<?xml version="1.0" encoding="UTF-8" standalone="no"?>
<!DOCTYPE svg PUBLIC "-//W3C//DTD SVG 1.1//EN"
 "http://www.w3.org/Graphics/SVG/1.1/DTD/svg11.dtd">
<!-- Generated by graphviz version 2.28.0 (20110507.0327)
 -->
<!-- Title: ObjectDiagram Pages: 1 -->
<svg width="372pt" height="290pt"
 viewBox="0.00 0.00 372.00 290.00" xmlns="http://www.w3.org/2000/svg" xmlns:xlink="http://www.w3.org/1999/xlink">
<g id="graph1" class="graph" transform="scale(1 1) rotate(0) translate(4 286)">
<title>ObjectDiagram</title>
<polygon fill="white" stroke="white" points="-4,5 -4,-286 369,-286 369,5 -4,5"/>
<!-- r178 -->
<g id="node1" class="node"><title>r178</title>
<a xlink:href="../../SDMLib/src/org/sdmlib/models/patterns/example/ferrmansproblem/River.java" xlink:title="&lt;TABLE&gt;">
<polygon fill="none" stroke="black" points="84,-255 84,-272 141,-272 141,-255 84,-255"/>
<text text-anchor="start" x="87.5" y="-261.5" font-family="Arial" font-size="10.00"> </text>
<text text-anchor="start" x="91.5" y="-261.5" font-family="Arial" font-size="10.00">r178 :River</text>
</a>
</g>
<!-- b179 -->
<g id="node2" class="node"><title>b179</title>
<a xlink:href="../../SDMLib/src/org/sdmlib/models/patterns/example/ferrmansproblem/Bank.java" xlink:title="&lt;TABLE&gt;">
<polygon fill="none" stroke="black" points="8,-188 8,-205 76,-205 76,-188 8,-188"/>
<text text-anchor="start" x="15" y="-194.5" font-family="Arial" font-size="10.00"> </text>
<text text-anchor="start" x="19" y="-194.5" font-family="Arial" font-size="10.00">b179 :Bank</text>
</a>
<polygon fill="none" stroke="black" points="8,-168 8,-188 76,-188 76,-168 8,-168"/>
<text text-anchor="start" x="13" y="-176" font-family="Arial" font-size="10.00">name = &quot;left&quot;</text>
</g>
<!-- r178&#45;&#45;b179 -->
<g id="edge2" class="edge"><title>r178&#45;&#45;b179</title>
<path fill="none" stroke="black" d="M96.1159,-245.981C86.0315,-235.177 72.8929,-221.1 62.087,-209.522"/>
<text text-anchor="middle" x="71.3605" y="-210.764" font-family="Arial" font-size="10.00">banks</text>
<text text-anchor="middle" x="86.8424" y="-239.739" font-family="Arial" font-size="10.00">river</text>
</g>
<!-- b180 -->
<g id="node3" class="node"><title>b180</title>
<a xlink:href="../../SDMLib/src/org/sdmlib/models/patterns/example/ferrmansproblem/Bank.java" xlink:title="&lt;TABLE&gt;">
<polygon fill="none" stroke="black" points="157,-188 157,-205 231,-205 231,-188 157,-188"/>
<text text-anchor="start" x="167" y="-194.5" font-family="Arial" font-size="10.00"> </text>
<text text-anchor="start" x="171" y="-194.5" font-family="Arial" font-size="10.00">b180 :Bank</text>
</a>
<polygon fill="none" stroke="black" points="157,-168 157,-188 231,-188 231,-168 157,-168"/>
<text text-anchor="start" x="162" y="-176" font-family="Arial" font-size="10.00">name = &quot;right&quot;</text>
</g>
<!-- r178&#45;&#45;b180 -->
<g id="edge4" class="edge"><title>r178&#45;&#45;b180</title>
<path fill="none" stroke="black" d="M130.607,-245.981C142.42,-235.177 157.811,-221.1 170.469,-209.522"/>
<text text-anchor="middle" x="166.634" y="-216.257" font-family="Arial" font-size="10.00">banks</text>
<text text-anchor="middle" x="134.442" y="-234.246" font-family="Arial" font-size="10.00">river</text>
</g>
<!-- b181 -->
<g id="node4" class="node"><title>b181</title>
<a xlink:href="../../SDMLib/src/org/sdmlib/models/patterns/example/ferrmansproblem/Boat.java" xlink:title="&lt;TABLE&gt;">
<polygon fill="none" stroke="black" points="65,-96 65,-113 124,-113 124,-96 65,-96"/>
<text text-anchor="start" x="68.5" y="-102.5" font-family="Arial" font-size="10.00"> </text>
<text text-anchor="start" x="72.5" y="-102.5" font-family="Arial" font-size="10.00">b181 :Boat</text>
</a>
</g>
<!-- r178&#45;&#45;b181 -->
<g id="edge6" class="edge"><title>r178&#45;&#45;b181</title>
<path fill="none" stroke="black" d="M110.039,-245.899C106.577,-215.699 99.4189,-153.265 95.9582,-123.08"/>
<text text-anchor="middle" x="101.189" y="-129.102" font-family="Arial" font-size="10.00">boat</text>
<text text-anchor="middle" x="104.808" y="-234.877" font-family="Arial" font-size="10.00">river</text>
</g>
<!-- b180&#45;&#45;b181 -->
<g id="edge8" class="edge"><title>b180&#45;&#45;b181</title>
<path fill="none" stroke="black" d="M166.939,-164.351C150.743,-151.394 130.447,-135.158 115.38,-123.104"/>
<text text-anchor="middle" x="125.097" y="-122.965" font-family="Arial" font-size="10.00">boat</text>
<text text-anchor="middle" x="157.221" y="-159.489" font-family="Arial" font-size="10.00">bank</text>
</g>
<!-- c183 -->
<g id="node6" class="node"><title>c183</title>
<a xlink:href="../../SDMLib/src/org/sdmlib/models/patterns/example/ferrmansproblem/Cargo.java" xlink:title="&lt;TABLE&gt;">
<polygon fill="none" stroke="black" points="158,-106 158,-123 250,-123 250,-106 158,-106"/>
<text text-anchor="start" x="175.5" y="-112.5" font-family="Arial" font-size="10.00"> </text>
<text text-anchor="start" x="179.5" y="-112.5" font-family="Arial" font-size="10.00">c183 :Cargo</text>
</a>
<polygon fill="none" stroke="black" points="158,-86 158,-106 250,-106 250,-86 158,-86"/>
<text text-anchor="start" x="163" y="-94" font-family="Arial" font-size="10.00">name = &quot;cabbage&quot;</text>
</g>
<!-- b180&#45;&#45;c183 -->
<g id="edge10" class="edge"><title>b180&#45;&#45;c183</title>
<path fill="none" stroke="black" d="M196.733,-164.14C198.155,-152.759 199.888,-138.893 201.305,-127.557"/>
<text text-anchor="middle" x="204.375" y="-134.574" font-family="Arial" font-size="10.00">cargos</text>
<text text-anchor="middle" x="193.663" y="-152.122" font-family="Arial" font-size="10.00">bank</text>
</g>
<!-- c184 -->
<g id="node7" class="node"><title>c184</title>
<a xlink:href="../../SDMLib/src/org/sdmlib/models/patterns/example/ferrmansproblem/Cargo.java" xlink:title="&lt;TABLE&gt;">
<polygon fill="none" stroke="black" points="284,-106 284,-123 356,-123 356,-106 284,-106"/>
<text text-anchor="start" x="291.5" y="-112.5" font-family="Arial" font-size="10.00"> </text>
<text text-anchor="start" x="295.5" y="-112.5" font-family="Arial" font-size="10.00">c184 :Cargo</text>
</a>
<polygon fill="none" stroke="black" points="284,-86 284,-106 356,-106 356,-86 284,-86"/>
<text text-anchor="start" x="289" y="-94" font-family="Arial" font-size="10.00">name = &quot;wolf&quot;</text>
</g>
<!-- b180&#45;&#45;c184 -->
<g id="edge12" class="edge"><title>b180&#45;&#45;c184</title>
<path fill="none" stroke="black" d="M228.097,-164.351C246.026,-152.967 267.942,-139.052 285.875,-127.666"/>
<text text-anchor="middle" x="280.489" y="-133.592" font-family="Arial" font-size="10.00">cargos</text>
<text text-anchor="middle" x="233.483" y="-153.425" font-family="Arial" font-size="10.00">bank</text>
</g>
<!-- c182 -->
<g id="node5" class="node"><title>c182</title>
<a xlink:href="../../SDMLib/src/org/sdmlib/models/patterns/example/ferrmansproblem/Cargo.java" xlink:title="&lt;TABLE&gt;">
<polygon fill="none" stroke="black" points="57,-24 57,-41 131,-41 131,-24 57,-24"/>
<text text-anchor="start" x="65.5" y="-30.5" font-family="Arial" font-size="10.00"> </text>
<text text-anchor="start" x="69.5" y="-30.5" font-family="Arial" font-size="10.00">c182 :Cargo</text>
</a>
<polygon fill="none" stroke="black" points="57,-4 57,-24 131,-24 131,-4 57,-4"/>
<text text-anchor="start" x="62" y="-12" font-family="Arial" font-size="10.00">name = &quot;goat&quot;</text>
</g>
<!-- b181&#45;&#45;c182 -->
<g id="edge14" class="edge"><title>b181&#45;&#45;c182</title>
<path fill="none" stroke="black" d="M94,-86.6412C94,-74.6011 94,-58.4804 94,-45.608"/>
<text text-anchor="middle" x="98.2262" y="-52.171" font-family="Arial" font-size="10.00">cargo</text>
<text text-anchor="middle" x="89.7738" y="-75.0781" font-family="Arial" font-size="10.00">boat</text>
</g>
</g>
</svg>
