<?xml version="1.0" encoding="UTF-8" standalone="no"?>
<!DOCTYPE svg PUBLIC "-//W3C//DTD SVG 1.1//EN"
 "http://www.w3.org/Graphics/SVG/1.1/DTD/svg11.dtd">
<!-- Generated by graphviz version 2.28.0 (20110507.0327)
 -->
<!-- Title: ObjectDiagram Pages: 1 -->
<svg width="320pt" height="290pt"
 viewBox="0.00 0.00 320.00 290.00" xmlns="http://www.w3.org/2000/svg" xmlns:xlink="http://www.w3.org/1999/xlink">
<g id="graph1" class="graph" transform="scale(1 1) rotate(0) translate(4 286)">
<title>ObjectDiagram</title>
<polygon fill="white" stroke="white" points="-4,5 -4,-286 317,-286 317,5 -4,5"/>
<!-- r10 -->
<g id="node1" class="node"><title>r10</title>
<a xlink:href="../../SDMLib/src/org/sdmlib/models/patterns/example/ferrmansproblem/River.java" xlink:title="&lt;TABLE&gt;">
<polygon fill="none" stroke="black" points="116,-255 116,-272 168,-272 168,-255 116,-255"/>
<text text-anchor="start" x="119.5" y="-261.5" font-family="Arial" font-size="10.00"> </text>
<text text-anchor="start" x="123.5" y="-261.5" font-family="Arial" font-size="10.00">r10 :River</text>
</a>
</g>
<!-- b11 -->
<g id="node2" class="node"><title>b11</title>
<a xlink:href="../../SDMLib/src/org/sdmlib/models/patterns/example/ferrmansproblem/Bank.java" xlink:title="&lt;TABLE&gt;">
<polygon fill="none" stroke="black" points="108,-188 108,-205 176,-205 176,-188 108,-188"/>
<text text-anchor="start" x="117.5" y="-194.5" font-family="Arial" font-size="10.00"> </text>
<text text-anchor="start" x="121.5" y="-194.5" font-family="Arial" font-size="10.00">b11 :Bank</text>
</a>
<polygon fill="none" stroke="black" points="108,-168 108,-188 176,-188 176,-168 108,-168"/>
<text text-anchor="start" x="113" y="-176" font-family="Arial" font-size="10.00">name = &quot;left&quot;</text>
</g>
<!-- r10&#45;&#45;b11 -->
<g id="edge2" class="edge"><title>r10&#45;&#45;b11</title>
<path fill="none" stroke="black" d="M142,-245.981C142,-235.177 142,-221.1 142,-209.522"/>
<text text-anchor="middle" x="146.226" y="-216.085" font-family="Arial" font-size="10.00">banks</text>
<text text-anchor="middle" x="137.774" y="-234.418" font-family="Arial" font-size="10.00">river</text>
</g>
<!-- b12 -->
<g id="node3" class="node"><title>b12</title>
<a xlink:href="../../SDMLib/src/org/sdmlib/models/patterns/example/ferrmansproblem/Boat.java" xlink:title="&lt;TABLE&gt;">
<polygon fill="none" stroke="black" points="18,-96 18,-113 72,-113 72,-96 18,-96"/>
<text text-anchor="start" x="21.5" y="-102.5" font-family="Arial" font-size="10.00"> </text>
<text text-anchor="start" x="25.5" y="-102.5" font-family="Arial" font-size="10.00">b12 :Boat</text>
</a>
</g>
<!-- r10&#45;&#45;b12 -->
<g id="edge6" class="edge"><title>r10&#45;&#45;b12</title>
<path fill="none" stroke="black" d="M122.345,-245.743C112.068,-235.991 99.8267,-223.146 91,-210 72.0705,-181.808 57.8123,-144.552 50.4935,-123.138"/>
<text text-anchor="middle" x="57.4722" y="-127.8" font-family="Arial" font-size="10.00">boat</text>
<text text-anchor="middle" x="112.883" y="-240.009" font-family="Arial" font-size="10.00">river</text>
</g>
<!-- b16 -->
<g id="node7" class="node"><title>b16</title>
<a xlink:href="../../SDMLib/src/org/sdmlib/models/patterns/example/ferrmansproblem/Bank.java" xlink:title="&lt;TABLE&gt;">
<polygon fill="none" stroke="black" points="210,-188 210,-205 284,-205 284,-188 210,-188"/>
<text text-anchor="start" x="222.5" y="-194.5" font-family="Arial" font-size="10.00"> </text>
<text text-anchor="start" x="226.5" y="-194.5" font-family="Arial" font-size="10.00">b16 :Bank</text>
</a>
<polygon fill="none" stroke="black" points="210,-168 210,-188 284,-188 284,-168 210,-168"/>
<text text-anchor="start" x="215" y="-176" font-family="Arial" font-size="10.00">name = &quot;right&quot;</text>
</g>
<!-- r10&#45;&#45;b16 -->
<g id="edge4" class="edge"><title>r10&#45;&#45;b16</title>
<path fill="none" stroke="black" d="M165.826,-245.981C180.953,-235.177 200.661,-221.1 216.869,-209.522"/>
<text text-anchor="middle" x="211.951" y="-215.729" font-family="Arial" font-size="10.00">banks</text>
<text text-anchor="middle" x="170.745" y="-234.775" font-family="Arial" font-size="10.00">river</text>
</g>
<!-- b11&#45;&#45;b12 -->
<g id="edge8" class="edge"><title>b11&#45;&#45;b12</title>
<path fill="none" stroke="black" d="M115.75,-164.351C100.04,-151.394 80.3537,-135.158 65.7383,-123.104"/>
<text text-anchor="middle" x="75.4191" y="-123.11" font-family="Arial" font-size="10.00">boat</text>
<text text-anchor="middle" x="106.07" y="-159.345" font-family="Arial" font-size="10.00">bank</text>
</g>
<!-- c14 -->
<g id="node5" class="node"><title>c14</title>
<a xlink:href="../../SDMLib/src/org/sdmlib/models/patterns/example/ferrmansproblem/Cargo.java" xlink:title="&lt;TABLE&gt;">
<polygon fill="none" stroke="black" points="106,-106 106,-123 198,-123 198,-106 106,-106"/>
<text text-anchor="start" x="126" y="-112.5" font-family="Arial" font-size="10.00"> </text>
<text text-anchor="start" x="130" y="-112.5" font-family="Arial" font-size="10.00">c14 :Cargo</text>
</a>
<polygon fill="none" stroke="black" points="106,-86 106,-106 198,-106 198,-86 106,-86"/>
<text text-anchor="start" x="111" y="-94" font-family="Arial" font-size="10.00">name = &quot;cabbage&quot;</text>
</g>
<!-- b11&#45;&#45;c14 -->
<g id="edge10" class="edge"><title>b11&#45;&#45;c14</title>
<path fill="none" stroke="black" d="M144.733,-164.14C146.155,-152.759 147.888,-138.893 149.305,-127.557"/>
<text text-anchor="middle" x="152.375" y="-134.574" font-family="Arial" font-size="10.00">cargos</text>
<text text-anchor="middle" x="141.663" y="-152.122" font-family="Arial" font-size="10.00">bank</text>
</g>
<!-- c15 -->
<g id="node6" class="node"><title>c15</title>
<a xlink:href="../../SDMLib/src/org/sdmlib/models/patterns/example/ferrmansproblem/Cargo.java" xlink:title="&lt;TABLE&gt;">
<polygon fill="none" stroke="black" points="232,-106 232,-123 304,-123 304,-106 232,-106"/>
<text text-anchor="start" x="242" y="-112.5" font-family="Arial" font-size="10.00"> </text>
<text text-anchor="start" x="246" y="-112.5" font-family="Arial" font-size="10.00">c15 :Cargo</text>
</a>
<polygon fill="none" stroke="black" points="232,-86 232,-106 304,-106 304,-86 232,-86"/>
<text text-anchor="start" x="237" y="-94" font-family="Arial" font-size="10.00">name = &quot;wolf&quot;</text>
</g>
<!-- b11&#45;&#45;c15 -->
<g id="edge12" class="edge"><title>b11&#45;&#45;c15</title>
<path fill="none" stroke="black" d="M176.097,-164.351C194.026,-152.967 215.942,-139.052 233.875,-127.666"/>
<text text-anchor="middle" x="228.489" y="-133.592" font-family="Arial" font-size="10.00">cargos</text>
<text text-anchor="middle" x="181.483" y="-153.425" font-family="Arial" font-size="10.00">bank</text>
</g>
<!-- c13 -->
<g id="node4" class="node"><title>c13</title>
<a xlink:href="../../SDMLib/src/org/sdmlib/models/patterns/example/ferrmansproblem/Cargo.java" xlink:title="&lt;TABLE&gt;">
<polygon fill="none" stroke="black" points="8,-24 8,-41 82,-41 82,-24 8,-24"/>
<text text-anchor="start" x="19" y="-30.5" font-family="Arial" font-size="10.00"> </text>
<text text-anchor="start" x="23" y="-30.5" font-family="Arial" font-size="10.00">c13 :Cargo</text>
</a>
<polygon fill="none" stroke="black" points="8,-4 8,-24 82,-24 82,-4 8,-4"/>
<text text-anchor="start" x="13" y="-12" font-family="Arial" font-size="10.00">name = &quot;goat&quot;</text>
</g>
<!-- b12&#45;&#45;c13 -->
<g id="edge14" class="edge"><title>b12&#45;&#45;c13</title>
<path fill="none" stroke="black" d="M45,-86.6412C45,-74.6011 45,-58.4804 45,-45.608"/>
<text text-anchor="middle" x="49.2262" y="-52.171" font-family="Arial" font-size="10.00">cargo</text>
<text text-anchor="middle" x="40.7738" y="-75.0781" font-family="Arial" font-size="10.00">boat</text>
</g>
</g>
</svg>
