<?xml version="1.0" encoding="UTF-8" standalone="no"?>
<!DOCTYPE svg PUBLIC "-//W3C//DTD SVG 1.1//EN"
 "http://www.w3.org/Graphics/SVG/1.1/DTD/svg11.dtd">
<!-- Generated by graphviz version 2.28.0 (20110507.0327)
 -->
<!-- Title: ObjectDiagram Pages: 1 -->
<svg width="424pt" height="208pt"
 viewBox="0.00 0.00 424.00 208.00" xmlns="http://www.w3.org/2000/svg" xmlns:xlink="http://www.w3.org/1999/xlink">
<g id="graph1" class="graph" transform="scale(1 1) rotate(0) translate(4 204)">
<title>ObjectDiagram</title>
<polygon fill="white" stroke="white" points="-4,5 -4,-204 421,-204 421,5 -4,5"/>
<!-- r136 -->
<g id="node1" class="node"><title>r136</title>
<a xlink:href="../../SDMLib/src/org/sdmlib/models/patterns/example/ferrmansproblem/River.java" xlink:title="&lt;TABLE&gt;">
<polygon fill="none" stroke="black" points="118,-173 118,-190 175,-190 175,-173 118,-173"/>
<text text-anchor="start" x="121.5" y="-179.5" font-family="Arial" font-size="10.00"> </text>
<text text-anchor="start" x="125.5" y="-179.5" font-family="Arial" font-size="10.00">r136 :River</text>
</a>
</g>
<!-- b137 -->
<g id="node2" class="node"><title>b137</title>
<a xlink:href="../../SDMLib/src/org/sdmlib/models/patterns/example/ferrmansproblem/Bank.java" xlink:title="&lt;TABLE&gt;">
<polygon fill="none" stroke="black" points="26,-106 26,-123 94,-123 94,-106 26,-106"/>
<text text-anchor="start" x="33" y="-112.5" font-family="Arial" font-size="10.00"> </text>
<text text-anchor="start" x="37" y="-112.5" font-family="Arial" font-size="10.00">b137 :Bank</text>
</a>
<polygon fill="none" stroke="black" points="26,-86 26,-106 94,-106 94,-86 26,-86"/>
<text text-anchor="start" x="31" y="-94" font-family="Arial" font-size="10.00">name = &quot;left&quot;</text>
</g>
<!-- r136&#45;&#45;b137 -->
<g id="edge2" class="edge"><title>r136&#45;&#45;b137</title>
<path fill="none" stroke="black" d="M126.485,-163.981C114.096,-153.177 97.9541,-139.1 84.6783,-127.522"/>
<text text-anchor="middle" x="94.2865" y="-127.794" font-family="Arial" font-size="10.00">banks</text>
<text text-anchor="middle" x="116.877" y="-158.71" font-family="Arial" font-size="10.00">river</text>
</g>
<!-- b139 -->
<g id="node4" class="node"><title>b139</title>
<a xlink:href="../../SDMLib/src/org/sdmlib/models/patterns/example/ferrmansproblem/Bank.java" xlink:title="&lt;TABLE&gt;">
<polygon fill="none" stroke="black" points="200,-106 200,-123 274,-123 274,-106 200,-106"/>
<text text-anchor="start" x="210" y="-112.5" font-family="Arial" font-size="10.00"> </text>
<text text-anchor="start" x="214" y="-112.5" font-family="Arial" font-size="10.00">b139 :Bank</text>
</a>
<polygon fill="none" stroke="black" points="200,-86 200,-106 274,-106 274,-86 200,-86"/>
<text text-anchor="start" x="205" y="-94" font-family="Arial" font-size="10.00">name = &quot;right&quot;</text>
</g>
<!-- r136&#45;&#45;b139 -->
<g id="edge4" class="edge"><title>r136&#45;&#45;b139</title>
<path fill="none" stroke="black" d="M166.649,-163.981C179.759,-153.177 196.839,-139.1 210.887,-127.522"/>
<text text-anchor="middle" x="206.581" y="-134.047" font-family="Arial" font-size="10.00">banks</text>
<text text-anchor="middle" x="170.955" y="-152.456" font-family="Arial" font-size="10.00">river</text>
</g>
<!-- b140 -->
<g id="node5" class="node"><title>b140</title>
<a xlink:href="../../SDMLib/src/org/sdmlib/models/patterns/example/ferrmansproblem/Boat.java" xlink:title="&lt;TABLE&gt;">
<polygon fill="none" stroke="black" points="117,-14 117,-31 176,-31 176,-14 117,-14"/>
<text text-anchor="start" x="120.5" y="-20.5" font-family="Arial" font-size="10.00"> </text>
<text text-anchor="start" x="124.5" y="-20.5" font-family="Arial" font-size="10.00">b140 :Boat</text>
</a>
</g>
<!-- r136&#45;&#45;b140 -->
<g id="edge6" class="edge"><title>r136&#45;&#45;b140</title>
<path fill="none" stroke="black" d="M146,-163.899C146,-133.699 146,-71.2648 146,-41.0795"/>
<text text-anchor="middle" x="150.226" y="-47.6426" font-family="Arial" font-size="10.00">boat</text>
<text text-anchor="middle" x="141.774" y="-152.336" font-family="Arial" font-size="10.00">river</text>
</g>
<!-- c138 -->
<g id="node3" class="node"><title>c138</title>
<a xlink:href="../../SDMLib/src/org/sdmlib/models/patterns/example/ferrmansproblem/Cargo.java" xlink:title="&lt;TABLE&gt;">
<polygon fill="none" stroke="black" points="8,-24 8,-41 82,-41 82,-24 8,-24"/>
<text text-anchor="start" x="16.5" y="-30.5" font-family="Arial" font-size="10.00"> </text>
<text text-anchor="start" x="20.5" y="-30.5" font-family="Arial" font-size="10.00">c138 :Cargo</text>
</a>
<polygon fill="none" stroke="black" points="8,-4 8,-24 82,-24 82,-4 8,-4"/>
<text text-anchor="start" x="13" y="-12" font-family="Arial" font-size="10.00">name = &quot;goat&quot;</text>
</g>
<!-- b137&#45;&#45;c138 -->
<g id="edge8" class="edge"><title>b137&#45;&#45;c138</title>
<path fill="none" stroke="black" d="M55.9012,-82.1396C53.7673,-70.759 51.1674,-56.8929 49.0419,-45.5569"/>
<text text-anchor="middle" x="54.8659" y="-51.1859" font-family="Arial" font-size="10.00">cargos</text>
<text text-anchor="middle" x="50.0772" y="-71.5106" font-family="Arial" font-size="10.00">bank</text>
</g>
<!-- b139&#45;&#45;b140 -->
<g id="edge10" class="edge"><title>b139&#45;&#45;b140</title>
<path fill="none" stroke="black" d="M212.134,-82.1396C197.399,-69.1861 179.002,-53.0125 165.354,-41.0149"/>
<text text-anchor="middle" x="174.952" y="-41.3248" font-family="Arial" font-size="10.00">boat</text>
<text text-anchor="middle" x="202.537" y="-76.8297" font-family="Arial" font-size="10.00">bank</text>
</g>
<!-- c141 -->
<g id="node6" class="node"><title>c141</title>
<a xlink:href="../../SDMLib/src/org/sdmlib/models/patterns/example/ferrmansproblem/Cargo.java" xlink:title="&lt;TABLE&gt;">
<polygon fill="none" stroke="black" points="210,-24 210,-41 302,-41 302,-24 210,-24"/>
<text text-anchor="start" x="227.5" y="-30.5" font-family="Arial" font-size="10.00"> </text>
<text text-anchor="start" x="231.5" y="-30.5" font-family="Arial" font-size="10.00">c141 :Cargo</text>
</a>
<polygon fill="none" stroke="black" points="210,-4 210,-24 302,-24 302,-4 210,-4"/>
<text text-anchor="start" x="215" y="-12" font-family="Arial" font-size="10.00">name = &quot;cabbage&quot;</text>
</g>
<!-- b139&#45;&#45;c141 -->
<g id="edge12" class="edge"><title>b139&#45;&#45;c141</title>
<path fill="none" stroke="black" d="M242.192,-82.1396C244.895,-70.759 248.188,-56.8929 250.88,-45.5569"/>
<text text-anchor="middle" x="252.898" y="-52.8513" font-family="Arial" font-size="10.00">cargos</text>
<text text-anchor="middle" x="240.174" y="-69.8453" font-family="Arial" font-size="10.00">bank</text>
</g>
<!-- c142 -->
<g id="node7" class="node"><title>c142</title>
<a xlink:href="../../SDMLib/src/org/sdmlib/models/patterns/example/ferrmansproblem/Cargo.java" xlink:title="&lt;TABLE&gt;">
<polygon fill="none" stroke="black" points="336,-24 336,-41 408,-41 408,-24 336,-24"/>
<text text-anchor="start" x="343.5" y="-30.5" font-family="Arial" font-size="10.00"> </text>
<text text-anchor="start" x="347.5" y="-30.5" font-family="Arial" font-size="10.00">c142 :Cargo</text>
</a>
<polygon fill="none" stroke="black" points="336,-4 336,-24 408,-24 408,-4 336,-4"/>
<text text-anchor="start" x="341" y="-12" font-family="Arial" font-size="10.00">name = &quot;wolf&quot;</text>
</g>
<!-- b139&#45;&#45;c142 -->
<g id="edge14" class="edge"><title>b139&#45;&#45;c142</title>
<path fill="none" stroke="black" d="M273.533,-82.3508C292.742,-70.9674 316.224,-57.0524 335.438,-45.6665"/>
<text text-anchor="middle" x="329.795" y="-51.4226" font-family="Arial" font-size="10.00">cargos</text>
<text text-anchor="middle" x="279.175" y="-71.5947" font-family="Arial" font-size="10.00">bank</text>
</g>
</g>
</svg>
