<?xml version="1.0" encoding="UTF-8" standalone="no"?>
<!DOCTYPE svg PUBLIC "-//W3C//DTD SVG 1.1//EN"
 "http://www.w3.org/Graphics/SVG/1.1/DTD/svg11.dtd">
<!-- Generated by graphviz version 2.28.0 (20110507.0327)
 -->
<!-- Title: ObjectDiagram Pages: 1 -->
<svg width="323pt" height="290pt"
 viewBox="0.00 0.00 323.00 290.00" xmlns="http://www.w3.org/2000/svg" xmlns:xlink="http://www.w3.org/1999/xlink">
<g id="graph1" class="graph" transform="scale(1 1) rotate(0) translate(4 286)">
<title>ObjectDiagram</title>
<polygon fill="white" stroke="white" points="-4,5 -4,-286 320,-286 320,5 -4,5"/>
<!-- r129 -->
<g id="node1" class="node"><title>r129</title>
<a xlink:href="../../SDMLib/src/org/sdmlib/models/patterns/example/ferrmansproblem/River.java" xlink:title="&lt;TABLE&gt;">
<polygon fill="none" stroke="black" points="106,-255 106,-272 163,-272 163,-255 106,-255"/>
<text text-anchor="start" x="109.5" y="-261.5" font-family="Arial" font-size="10.00"> </text>
<text text-anchor="start" x="113.5" y="-261.5" font-family="Arial" font-size="10.00">r129 :River</text>
</a>
</g>
<!-- b130 -->
<g id="node2" class="node"><title>b130</title>
<a xlink:href="../../SDMLib/src/org/sdmlib/models/patterns/example/ferrmansproblem/Bank.java" xlink:title="&lt;TABLE&gt;">
<polygon fill="none" stroke="black" points="100,-188 100,-205 168,-205 168,-188 100,-188"/>
<text text-anchor="start" x="107" y="-194.5" font-family="Arial" font-size="10.00"> </text>
<text text-anchor="start" x="111" y="-194.5" font-family="Arial" font-size="10.00">b130 :Bank</text>
</a>
<polygon fill="none" stroke="black" points="100,-168 100,-188 168,-188 168,-168 100,-168"/>
<text text-anchor="start" x="105" y="-176" font-family="Arial" font-size="10.00">name = &quot;left&quot;</text>
</g>
<!-- r129&#45;&#45;b130 -->
<g id="edge2" class="edge"><title>r129&#45;&#45;b130</title>
<path fill="none" stroke="black" d="M134,-245.981C134,-235.177 134,-221.1 134,-209.522"/>
<text text-anchor="middle" x="138.226" y="-216.085" font-family="Arial" font-size="10.00">banks</text>
<text text-anchor="middle" x="129.774" y="-234.418" font-family="Arial" font-size="10.00">river</text>
</g>
<!-- b131 -->
<g id="node3" class="node"><title>b131</title>
<a xlink:href="../../SDMLib/src/org/sdmlib/models/patterns/example/ferrmansproblem/Boat.java" xlink:title="&lt;TABLE&gt;">
<polygon fill="none" stroke="black" points="16,-96 16,-113 75,-113 75,-96 16,-96"/>
<text text-anchor="start" x="19.5" y="-102.5" font-family="Arial" font-size="10.00"> </text>
<text text-anchor="start" x="23.5" y="-102.5" font-family="Arial" font-size="10.00">b131 :Boat</text>
</a>
</g>
<!-- r129&#45;&#45;b131 -->
<g id="edge6" class="edge"><title>r129&#45;&#45;b131</title>
<path fill="none" stroke="black" d="M113.995,-245.97C103.615,-236.285 91.3873,-223.43 83,-210 65.4863,-181.956 54.3528,-144.649 48.9321,-123.185"/>
<text text-anchor="middle" x="55.3103" y="-128.387" font-family="Arial" font-size="10.00">boat</text>
<text text-anchor="middle" x="104.509" y="-240.304" font-family="Arial" font-size="10.00">river</text>
</g>
<!-- b134 -->
<g id="node6" class="node"><title>b134</title>
<a xlink:href="../../SDMLib/src/org/sdmlib/models/patterns/example/ferrmansproblem/Bank.java" xlink:title="&lt;TABLE&gt;">
<polygon fill="none" stroke="black" points="227,-188 227,-205 301,-205 301,-188 227,-188"/>
<text text-anchor="start" x="237" y="-194.5" font-family="Arial" font-size="10.00"> </text>
<text text-anchor="start" x="241" y="-194.5" font-family="Arial" font-size="10.00">b134 :Bank</text>
</a>
<polygon fill="none" stroke="black" points="227,-168 227,-188 301,-188 301,-168 227,-168"/>
<text text-anchor="start" x="232" y="-176" font-family="Arial" font-size="10.00">name = &quot;right&quot;</text>
</g>
<!-- r129&#45;&#45;b134 -->
<g id="edge4" class="edge"><title>r129&#45;&#45;b134</title>
<path fill="none" stroke="black" d="M163.499,-245.981C182.227,-235.177 206.628,-221.1 226.696,-209.522"/>
<text text-anchor="middle" x="220.957" y="-215.211" font-family="Arial" font-size="10.00">banks</text>
<text text-anchor="middle" x="169.237" y="-235.292" font-family="Arial" font-size="10.00">river</text>
</g>
<!-- b130&#45;&#45;b131 -->
<g id="edge8" class="edge"><title>b130&#45;&#45;b131</title>
<path fill="none" stroke="black" d="M109.68,-164.14C95.2695,-151.186 77.2764,-135.013 63.9291,-123.015"/>
<text text-anchor="middle" x="73.4946" y="-123.431" font-family="Arial" font-size="10.00">boat</text>
<text text-anchor="middle" x="100.115" y="-158.724" font-family="Arial" font-size="10.00">bank</text>
</g>
<!-- c133 -->
<g id="node5" class="node"><title>c133</title>
<a xlink:href="../../SDMLib/src/org/sdmlib/models/patterns/example/ferrmansproblem/Cargo.java" xlink:title="&lt;TABLE&gt;">
<polygon fill="none" stroke="black" points="109,-106 109,-123 201,-123 201,-106 109,-106"/>
<text text-anchor="start" x="126.5" y="-112.5" font-family="Arial" font-size="10.00"> </text>
<text text-anchor="start" x="130.5" y="-112.5" font-family="Arial" font-size="10.00">c133 :Cargo</text>
</a>
<polygon fill="none" stroke="black" points="109,-86 109,-106 201,-106 201,-86 109,-86"/>
<text text-anchor="start" x="114" y="-94" font-family="Arial" font-size="10.00">name = &quot;cabbage&quot;</text>
</g>
<!-- b130&#45;&#45;c133 -->
<g id="edge10" class="edge"><title>b130&#45;&#45;c133</title>
<path fill="none" stroke="black" d="M139.738,-164.14C142.726,-152.759 146.366,-138.893 149.341,-127.557"/>
<text text-anchor="middle" x="151.128" y="-134.896" font-family="Arial" font-size="10.00">cargos</text>
<text text-anchor="middle" x="137.952" y="-151.801" font-family="Arial" font-size="10.00">bank</text>
</g>
<!-- c132 -->
<g id="node4" class="node"><title>c132</title>
<a xlink:href="../../SDMLib/src/org/sdmlib/models/patterns/example/ferrmansproblem/Cargo.java" xlink:title="&lt;TABLE&gt;">
<polygon fill="none" stroke="black" points="8,-24 8,-41 82,-41 82,-24 8,-24"/>
<text text-anchor="start" x="16.5" y="-30.5" font-family="Arial" font-size="10.00"> </text>
<text text-anchor="start" x="20.5" y="-30.5" font-family="Arial" font-size="10.00">c132 :Cargo</text>
</a>
<polygon fill="none" stroke="black" points="8,-4 8,-24 82,-24 82,-4 8,-4"/>
<text text-anchor="start" x="13" y="-12" font-family="Arial" font-size="10.00">name = &quot;goat&quot;</text>
</g>
<!-- b131&#45;&#45;c132 -->
<g id="edge12" class="edge"><title>b131&#45;&#45;c132</title>
<path fill="none" stroke="black" d="M45,-86.6412C45,-74.6011 45,-58.4804 45,-45.608"/>
<text text-anchor="middle" x="49.2262" y="-52.171" font-family="Arial" font-size="10.00">cargo</text>
<text text-anchor="middle" x="40.7738" y="-75.0781" font-family="Arial" font-size="10.00">boat</text>
</g>
<!-- c135 -->
<g id="node7" class="node"><title>c135</title>
<a xlink:href="../../SDMLib/src/org/sdmlib/models/patterns/example/ferrmansproblem/Cargo.java" xlink:title="&lt;TABLE&gt;">
<polygon fill="none" stroke="black" points="235,-106 235,-123 307,-123 307,-106 235,-106"/>
<text text-anchor="start" x="242.5" y="-112.5" font-family="Arial" font-size="10.00"> </text>
<text text-anchor="start" x="246.5" y="-112.5" font-family="Arial" font-size="10.00">c135 :Cargo</text>
</a>
<polygon fill="none" stroke="black" points="235,-86 235,-106 307,-106 307,-86 235,-86"/>
<text text-anchor="start" x="240" y="-94" font-family="Arial" font-size="10.00">name = &quot;wolf&quot;</text>
</g>
<!-- b134&#45;&#45;c135 -->
<g id="edge14" class="edge"><title>b134&#45;&#45;c135</title>
<path fill="none" stroke="black" d="M265.913,-164.14C266.909,-152.759 268.122,-138.893 269.114,-127.557"/>
<text text-anchor="middle" x="272.534" y="-134.454" font-family="Arial" font-size="10.00">cargos</text>
<text text-anchor="middle" x="262.493" y="-152.243" font-family="Arial" font-size="10.00">bank</text>
</g>
</g>
</svg>
