<?xml version="1.0" encoding="UTF-8" standalone="no"?>
<!DOCTYPE svg PUBLIC "-//W3C//DTD SVG 1.1//EN"
 "http://www.w3.org/Graphics/SVG/1.1/DTD/svg11.dtd">
<!-- Generated by graphviz version 2.28.0 (20110507.0327)
 -->
<!-- Title: ObjectDiagram Pages: 1 -->
<svg width="393pt" height="208pt"
 viewBox="0.00 0.00 393.00 208.00" xmlns="http://www.w3.org/2000/svg" xmlns:xlink="http://www.w3.org/1999/xlink">
<g id="graph1" class="graph" transform="scale(1 1) rotate(0) translate(4 204)">
<title>ObjectDiagram</title>
<polygon fill="white" stroke="white" points="-4,5 -4,-204 390,-204 390,5 -4,5"/>
<!-- r1 -->
<g id="node1" class="node"><title>r1</title>
<polygon fill="none" stroke="black" points="107,-173 107,-190 151,-190 151,-173 107,-173"/>
<text text-anchor="start" x="110.5" y="-179.5" font-family="Times New Roman,serif" font-size="10.00"> </text>
<text text-anchor="start" x="113.5" y="-179.5" font-family="Times New Roman,serif" font-size="10.00">r1 :River</text>
</g>
<!-- b2 -->
<g id="node2" class="node"><title>b2</title>
<polygon fill="none" stroke="black" points="97,-106 97,-123 161,-123 161,-106 97,-106"/>
<text text-anchor="start" x="110" y="-112.5" font-family="Times New Roman,serif" font-size="10.00"> </text>
<text text-anchor="start" x="113" y="-112.5" font-family="Times New Roman,serif" font-size="10.00">b2 :Bank</text>
<polygon fill="none" stroke="black" points="97,-86 97,-106 161,-106 161,-86 97,-86"/>
<text text-anchor="start" x="102" y="-94" font-family="Times New Roman,serif" font-size="10.00">name = &quot;left&quot;</text>
</g>
<!-- r1&#45;&#45;b2 -->
<g id="edge2" class="edge"><title>r1&#45;&#45;b2</title>
<path fill="none" stroke="black" d="M129,-163.981C129,-153.177 129,-139.1 129,-127.522"/>
<text text-anchor="middle" x="133.226" y="-134.085" font-family="Times New Roman,serif" font-size="10.00">banks</text>
<text text-anchor="middle" x="124.774" y="-152.418" font-family="Times New Roman,serif" font-size="10.00">river</text>
</g>
<!-- b3 -->
<g id="node3" class="node"><title>b3</title>
<polygon fill="none" stroke="black" points="8,-14 8,-31 52,-31 52,-14 8,-14"/>
<text text-anchor="start" x="11.5" y="-20.5" font-family="Times New Roman,serif" font-size="10.00"> </text>
<text text-anchor="start" x="14.5" y="-20.5" font-family="Times New Roman,serif" font-size="10.00">b3 :Boat</text>
</g>
<!-- r1&#45;&#45;b3 -->
<g id="edge6" class="edge"><title>r1&#45;&#45;b3</title>
<path fill="none" stroke="black" d="M110.794,-163.98C100.887,-154.1 88.8785,-141.057 80,-128 60.6239,-99.5055 44.7136,-62.3532 36.3587,-41.0399"/>
<text text-anchor="middle" x="43.6409" y="-45.3933" font-family="Times New Roman,serif" font-size="10.00">boat</text>
<text text-anchor="middle" x="101.412" y="-158.02" font-family="Times New Roman,serif" font-size="10.00">river</text>
</g>
<!-- b7 -->
<g id="node7" class="node"><title>b7</title>
<polygon fill="none" stroke="black" points="195,-106 195,-123 265,-123 265,-106 195,-106"/>
<text text-anchor="start" x="211" y="-112.5" font-family="Times New Roman,serif" font-size="10.00"> </text>
<text text-anchor="start" x="214" y="-112.5" font-family="Times New Roman,serif" font-size="10.00">b7 :Bank</text>
<polygon fill="none" stroke="black" points="195,-86 195,-106 265,-106 265,-86 195,-86"/>
<text text-anchor="start" x="200" y="-94" font-family="Times New Roman,serif" font-size="10.00">name = &quot;right&quot;</text>
</g>
<!-- r1&#45;&#45;b7 -->
<g id="edge4" class="edge"><title>r1&#45;&#45;b7</title>
<path fill="none" stroke="black" d="M151.918,-163.981C166.469,-153.177 185.426,-139.1 201.017,-127.522"/>
<text text-anchor="middle" x="196.261" y="-133.818" font-family="Times New Roman,serif" font-size="10.00">banks</text>
<text text-anchor="middle" x="156.675" y="-152.685" font-family="Times New Roman,serif" font-size="10.00">river</text>
</g>
<!-- b2&#45;&#45;b3 -->
<g id="edge8" class="edge"><title>b2&#45;&#45;b3</title>
<path fill="none" stroke="black" d="M102.209,-82.3508C86.1752,-69.3941 66.0826,-53.1577 51.1659,-41.1037"/>
<text text-anchor="middle" x="60.8713" y="-41.013" font-family="Times New Roman,serif" font-size="10.00">boat</text>
<text text-anchor="middle" x="92.5037" y="-77.4416" font-family="Times New Roman,serif" font-size="10.00">bank</text>
</g>
<!-- c4 -->
<g id="node4" class="node"><title>c4</title>
<polygon fill="none" stroke="black" points="87,-24 87,-41 172,-41 172,-24 87,-24"/>
<text text-anchor="start" x="109" y="-30.5" font-family="Times New Roman,serif" font-size="10.00"> </text>
<text text-anchor="start" x="112" y="-30.5" font-family="Times New Roman,serif" font-size="10.00">c4 :Cargo</text>
<polygon fill="none" stroke="black" points="87,-4 87,-24 172,-24 172,-4 87,-4"/>
<text text-anchor="start" x="92" y="-12" font-family="Times New Roman,serif" font-size="10.00">name = &quot;cabbage&quot;</text>
</g>
<!-- b2&#45;&#45;c4 -->
<g id="edge10" class="edge"><title>b2&#45;&#45;c4</title>
<path fill="none" stroke="black" d="M129,-82.1396C129,-70.759 129,-56.8929 129,-45.5569"/>
<text text-anchor="middle" x="133.226" y="-52.12" font-family="Times New Roman,serif" font-size="10.00">cargos</text>
<text text-anchor="middle" x="124.774" y="-70.5766" font-family="Times New Roman,serif" font-size="10.00">bank</text>
</g>
<!-- c5 -->
<g id="node5" class="node"><title>c5</title>
<polygon fill="none" stroke="black" points="206,-24 206,-41 275,-41 275,-24 206,-24"/>
<text text-anchor="start" x="220" y="-30.5" font-family="Times New Roman,serif" font-size="10.00"> </text>
<text text-anchor="start" x="223" y="-30.5" font-family="Times New Roman,serif" font-size="10.00">c5 :Cargo</text>
<polygon fill="none" stroke="black" points="206,-4 206,-24 275,-24 275,-4 206,-4"/>
<text text-anchor="start" x="211" y="-12" font-family="Times New Roman,serif" font-size="10.00">name = &quot;goat&quot;</text>
</g>
<!-- b2&#45;&#45;c5 -->
<g id="edge12" class="edge"><title>b2&#45;&#45;c5</title>
<path fill="none" stroke="black" d="M159.038,-82.3508C174.833,-70.9674 194.14,-57.0524 209.938,-45.6665"/>
<text text-anchor="middle" x="205.056" y="-51.8941" font-family="Times New Roman,serif" font-size="10.00">cargos</text>
<text text-anchor="middle" x="163.92" y="-71.1232" font-family="Times New Roman,serif" font-size="10.00">bank</text>
</g>
<!-- c6 -->
<g id="node6" class="node"><title>c6</title>
<polygon fill="none" stroke="black" points="309,-24 309,-41 378,-41 378,-24 309,-24"/>
<text text-anchor="start" x="323" y="-30.5" font-family="Times New Roman,serif" font-size="10.00"> </text>
<text text-anchor="start" x="326" y="-30.5" font-family="Times New Roman,serif" font-size="10.00">c6 :Cargo</text>
<polygon fill="none" stroke="black" points="309,-4 309,-24 378,-24 378,-4 309,-4"/>
<text text-anchor="start" x="314" y="-12" font-family="Times New Roman,serif" font-size="10.00">name = &quot;wolf&quot;</text>
</g>
<!-- b2&#45;&#45;c6 -->
<g id="edge14" class="edge"><title>b2&#45;&#45;c6</title>
<path fill="none" stroke="black" d="M169.224,-85.5043C172.178,-84.2803 175.126,-83.099 178,-82 227.233,-63.175 241.565,-64.2881 291,-46 294.126,-44.8436 297.339,-43.6064 300.56,-42.3301"/>
<text text-anchor="middle" x="293.684" y="-47.0907" font-family="Times New Roman,serif" font-size="10.00">cargos</text>
<text text-anchor="middle" x="175.988" y="-75.6386" font-family="Times New Roman,serif" font-size="10.00">bank</text>
</g>
</g>
</svg>
