<?xml version="1.0" encoding="UTF-8" standalone="no"?>
<!DOCTYPE svg PUBLIC "-//W3C//DTD SVG 1.1//EN"
 "http://www.w3.org/Graphics/SVG/1.1/DTD/svg11.dtd">
<!-- Generated by graphviz version 2.28.0 (20110507.0327)
 -->
<!-- Title: ObjectDiagram Pages: 1 -->
<svg width="298pt" height="290pt"
 viewBox="0.00 0.00 298.00 290.00" xmlns="http://www.w3.org/2000/svg" xmlns:xlink="http://www.w3.org/1999/xlink">
<g id="graph1" class="graph" transform="scale(1 1) rotate(0) translate(4 286)">
<title>ObjectDiagram</title>
<polygon fill="white" stroke="white" points="-4,5 -4,-286 295,-286 295,5 -4,5"/>
<!-- r143 -->
<g id="node1" class="node"><title>r143</title>
<a xlink:href="../../SDMLib/src/org/sdmlib/models/patterns/example/ferrmansproblem/River.java" xlink:title="&lt;TABLE&gt;">
<polygon fill="none" stroke="black" points="110,-255 110,-272 167,-272 167,-255 110,-255"/>
<text text-anchor="start" x="113.5" y="-261.5" font-family="Arial" font-size="10.00"> </text>
<text text-anchor="start" x="117.5" y="-261.5" font-family="Arial" font-size="10.00">r143 :River</text>
</a>
</g>
<!-- b144 -->
<g id="node2" class="node"><title>b144</title>
<a xlink:href="../../SDMLib/src/org/sdmlib/models/patterns/example/ferrmansproblem/Bank.java" xlink:title="&lt;TABLE&gt;">
<polygon fill="none" stroke="black" points="19,-188 19,-205 87,-205 87,-188 19,-188"/>
<text text-anchor="start" x="26" y="-194.5" font-family="Arial" font-size="10.00"> </text>
<text text-anchor="start" x="30" y="-194.5" font-family="Arial" font-size="10.00">b144 :Bank</text>
</a>
<polygon fill="none" stroke="black" points="19,-168 19,-188 87,-188 87,-168 19,-168"/>
<text text-anchor="start" x="24" y="-176" font-family="Arial" font-size="10.00">name = &quot;left&quot;</text>
</g>
<!-- r143&#45;&#45;b144 -->
<g id="edge2" class="edge"><title>r143&#45;&#45;b144</title>
<path fill="none" stroke="black" d="M118.712,-245.981C106.467,-235.177 90.5128,-221.1 77.3914,-209.522"/>
<text text-anchor="middle" x="86.9834" y="-209.849" font-family="Arial" font-size="10.00">banks</text>
<text text-anchor="middle" x="109.12" y="-240.654" font-family="Arial" font-size="10.00">river</text>
</g>
<!-- b146 -->
<g id="node4" class="node"><title>b146</title>
<a xlink:href="../../SDMLib/src/org/sdmlib/models/patterns/example/ferrmansproblem/Bank.java" xlink:title="&lt;TABLE&gt;">
<polygon fill="none" stroke="black" points="174,-188 174,-205 248,-205 248,-188 174,-188"/>
<text text-anchor="start" x="184" y="-194.5" font-family="Arial" font-size="10.00"> </text>
<text text-anchor="start" x="188" y="-194.5" font-family="Arial" font-size="10.00">b146 :Bank</text>
</a>
<polygon fill="none" stroke="black" points="174,-168 174,-188 248,-188 248,-168 174,-168"/>
<text text-anchor="start" x="179" y="-176" font-family="Arial" font-size="10.00">name = &quot;right&quot;</text>
</g>
<!-- r143&#45;&#45;b146 -->
<g id="edge4" class="edge"><title>r143&#45;&#45;b146</title>
<path fill="none" stroke="black" d="M154.565,-245.981C165.081,-235.177 178.783,-221.1 190.052,-209.522"/>
<text text-anchor="middle" x="186.759" y="-216.464" font-family="Arial" font-size="10.00">banks</text>
<text text-anchor="middle" x="157.858" y="-234.039" font-family="Arial" font-size="10.00">river</text>
</g>
<!-- b147 -->
<g id="node5" class="node"><title>b147</title>
<a xlink:href="../../SDMLib/src/org/sdmlib/models/patterns/example/ferrmansproblem/Boat.java" xlink:title="&lt;TABLE&gt;">
<polygon fill="none" stroke="black" points="117,-96 117,-113 176,-113 176,-96 117,-96"/>
<text text-anchor="start" x="120.5" y="-102.5" font-family="Arial" font-size="10.00"> </text>
<text text-anchor="start" x="124.5" y="-102.5" font-family="Arial" font-size="10.00">b147 :Boat</text>
</a>
</g>
<!-- r143&#45;&#45;b147 -->
<g id="edge6" class="edge"><title>r143&#45;&#45;b147</title>
<path fill="none" stroke="black" d="M138.871,-245.899C140.41,-215.699 143.592,-153.265 145.13,-123.08"/>
<text text-anchor="middle" x="148.889" y="-129.846" font-family="Arial" font-size="10.00">boat</text>
<text text-anchor="middle" x="135.112" y="-234.133" font-family="Arial" font-size="10.00">river</text>
</g>
<!-- c145 -->
<g id="node3" class="node"><title>c145</title>
<a xlink:href="../../SDMLib/src/org/sdmlib/models/patterns/example/ferrmansproblem/Cargo.java" xlink:title="&lt;TABLE&gt;">
<polygon fill="none" stroke="black" points="8,-106 8,-123 82,-123 82,-106 8,-106"/>
<text text-anchor="start" x="16.5" y="-112.5" font-family="Arial" font-size="10.00"> </text>
<text text-anchor="start" x="20.5" y="-112.5" font-family="Arial" font-size="10.00">c145 :Cargo</text>
</a>
<polygon fill="none" stroke="black" points="8,-86 8,-106 82,-106 82,-86 8,-86"/>
<text text-anchor="start" x="13" y="-94" font-family="Arial" font-size="10.00">name = &quot;goat&quot;</text>
</g>
<!-- b144&#45;&#45;c145 -->
<g id="edge8" class="edge"><title>b144&#45;&#45;c145</title>
<path fill="none" stroke="black" d="M50.814,-164.14C49.6759,-152.759 48.2893,-138.893 47.1557,-127.557"/>
<text text-anchor="middle" x="52.2627" y="-133.655" font-family="Arial" font-size="10.00">cargos</text>
<text text-anchor="middle" x="45.7069" y="-153.042" font-family="Arial" font-size="10.00">bank</text>
</g>
<!-- b146&#45;&#45;b147 -->
<g id="edge10" class="edge"><title>b146&#45;&#45;b147</title>
<path fill="none" stroke="black" d="M193.238,-164.14C182.714,-151.186 169.573,-135.013 159.825,-123.015"/>
<text text-anchor="middle" x="168.82" y="-124.884" font-family="Arial" font-size="10.00">boat</text>
<text text-anchor="middle" x="184.243" y="-157.271" font-family="Arial" font-size="10.00">bank</text>
</g>
<!-- c149 -->
<g id="node7" class="node"><title>c149</title>
<a xlink:href="../../SDMLib/src/org/sdmlib/models/patterns/example/ferrmansproblem/Cargo.java" xlink:title="&lt;TABLE&gt;">
<polygon fill="none" stroke="black" points="210,-106 210,-123 282,-123 282,-106 210,-106"/>
<text text-anchor="start" x="217.5" y="-112.5" font-family="Arial" font-size="10.00"> </text>
<text text-anchor="start" x="221.5" y="-112.5" font-family="Arial" font-size="10.00">c149 :Cargo</text>
</a>
<polygon fill="none" stroke="black" points="210,-86 210,-106 282,-106 282,-86 210,-86"/>
<text text-anchor="start" x="215" y="-94" font-family="Arial" font-size="10.00">name = &quot;wolf&quot;</text>
</g>
<!-- b146&#45;&#45;c149 -->
<g id="edge12" class="edge"><title>b146&#45;&#45;c149</title>
<path fill="none" stroke="black" d="M220.564,-164.14C225.543,-152.759 231.609,-138.893 236.569,-127.557"/>
<text text-anchor="middle" x="236.808" y="-135.054" font-family="Arial" font-size="10.00">cargos</text>
<text text-anchor="middle" x="220.325" y="-151.643" font-family="Arial" font-size="10.00">bank</text>
</g>
<!-- c148 -->
<g id="node6" class="node"><title>c148</title>
<a xlink:href="../../SDMLib/src/org/sdmlib/models/patterns/example/ferrmansproblem/Cargo.java" xlink:title="&lt;TABLE&gt;">
<polygon fill="none" stroke="black" points="100,-24 100,-41 192,-41 192,-24 100,-24"/>
<text text-anchor="start" x="117.5" y="-30.5" font-family="Arial" font-size="10.00"> </text>
<text text-anchor="start" x="121.5" y="-30.5" font-family="Arial" font-size="10.00">c148 :Cargo</text>
</a>
<polygon fill="none" stroke="black" points="100,-4 100,-24 192,-24 192,-4 100,-4"/>
<text text-anchor="start" x="105" y="-12" font-family="Arial" font-size="10.00">name = &quot;cabbage&quot;</text>
</g>
<!-- b147&#45;&#45;c148 -->
<g id="edge14" class="edge"><title>b147&#45;&#45;c148</title>
<path fill="none" stroke="black" d="M146,-86.6412C146,-74.6011 146,-58.4804 146,-45.608"/>
<text text-anchor="middle" x="150.226" y="-52.171" font-family="Arial" font-size="10.00">cargo</text>
<text text-anchor="middle" x="141.774" y="-75.0781" font-family="Arial" font-size="10.00">boat</text>
</g>
</g>
</svg>
