<?xml version="1.0" encoding="UTF-8" standalone="no"?>
<!DOCTYPE svg PUBLIC "-//W3C//DTD SVG 1.1//EN"
 "http://www.w3.org/Graphics/SVG/1.1/DTD/svg11.dtd">
<!-- Generated by graphviz version 2.28.0 (20110507.0327)
 -->
<!-- Title: ObjectDiagram Pages: 1 -->
<svg width="323pt" height="290pt"
 viewBox="0.00 0.00 323.00 290.00" xmlns="http://www.w3.org/2000/svg" xmlns:xlink="http://www.w3.org/1999/xlink">
<g id="graph1" class="graph" transform="scale(1 1) rotate(0) translate(4 286)">
<title>ObjectDiagram</title>
<polygon fill="white" stroke="white" points="-4,5 -4,-286 320,-286 320,5 -4,5"/>
<!-- r115 -->
<g id="node1" class="node"><title>r115</title>
<a xlink:href="../../SDMLib/src/org/sdmlib/models/patterns/example/ferrmansproblem/River.java" xlink:title="&lt;TABLE&gt;">
<polygon fill="none" stroke="black" points="102,-255 102,-272 159,-272 159,-255 102,-255"/>
<text text-anchor="start" x="105.5" y="-261.5" font-family="Arial" font-size="10.00"> </text>
<text text-anchor="start" x="109.5" y="-261.5" font-family="Arial" font-size="10.00">r115 :River</text>
</a>
</g>
<!-- b116 -->
<g id="node2" class="node"><title>b116</title>
<a xlink:href="../../SDMLib/src/org/sdmlib/models/patterns/example/ferrmansproblem/Bank.java" xlink:title="&lt;TABLE&gt;">
<polygon fill="none" stroke="black" points="96,-188 96,-205 164,-205 164,-188 96,-188"/>
<text text-anchor="start" x="103" y="-194.5" font-family="Arial" font-size="10.00"> </text>
<text text-anchor="start" x="107" y="-194.5" font-family="Arial" font-size="10.00">b116 :Bank</text>
</a>
<polygon fill="none" stroke="black" points="96,-168 96,-188 164,-188 164,-168 96,-168"/>
<text text-anchor="start" x="101" y="-176" font-family="Arial" font-size="10.00">name = &quot;left&quot;</text>
</g>
<!-- r115&#45;&#45;b116 -->
<g id="edge2" class="edge"><title>r115&#45;&#45;b116</title>
<path fill="none" stroke="black" d="M130,-245.981C130,-235.177 130,-221.1 130,-209.522"/>
<text text-anchor="middle" x="134.226" y="-216.085" font-family="Arial" font-size="10.00">banks</text>
<text text-anchor="middle" x="125.774" y="-234.418" font-family="Arial" font-size="10.00">river</text>
</g>
<!-- b117 -->
<g id="node3" class="node"><title>b117</title>
<a xlink:href="../../SDMLib/src/org/sdmlib/models/patterns/example/ferrmansproblem/Boat.java" xlink:title="&lt;TABLE&gt;">
<polygon fill="none" stroke="black" points="16,-96 16,-113 75,-113 75,-96 16,-96"/>
<text text-anchor="start" x="19.5" y="-102.5" font-family="Arial" font-size="10.00"> </text>
<text text-anchor="start" x="23.5" y="-102.5" font-family="Arial" font-size="10.00">b117 :Boat</text>
</a>
</g>
<!-- r115&#45;&#45;b117 -->
<g id="edge6" class="edge"><title>r115&#45;&#45;b117</title>
<path fill="none" stroke="black" d="M109.557,-245.85C99.1791,-236.224 87.0897,-223.463 79,-210 62.1716,-181.994 52.6082,-144.674 48.1441,-123.198"/>
<text text-anchor="middle" x="54.1946" y="-128.66" font-family="Arial" font-size="10.00">boat</text>
<text text-anchor="middle" x="100.064" y="-240.206" font-family="Arial" font-size="10.00">river</text>
</g>
<!-- b120 -->
<g id="node6" class="node"><title>b120</title>
<a xlink:href="../../SDMLib/src/org/sdmlib/models/patterns/example/ferrmansproblem/Bank.java" xlink:title="&lt;TABLE&gt;">
<polygon fill="none" stroke="black" points="218,-188 218,-205 292,-205 292,-188 218,-188"/>
<text text-anchor="start" x="228" y="-194.5" font-family="Arial" font-size="10.00"> </text>
<text text-anchor="start" x="232" y="-194.5" font-family="Arial" font-size="10.00">b120 :Bank</text>
</a>
<polygon fill="none" stroke="black" points="218,-168 218,-188 292,-188 292,-168 218,-168"/>
<text text-anchor="start" x="223" y="-176" font-family="Arial" font-size="10.00">name = &quot;right&quot;</text>
</g>
<!-- r115&#45;&#45;b120 -->
<g id="edge4" class="edge"><title>r115&#45;&#45;b120</title>
<path fill="none" stroke="black" d="M158.364,-245.981C176.372,-235.177 199.834,-221.1 219.13,-209.522"/>
<text text-anchor="middle" x="213.533" y="-215.309" font-family="Arial" font-size="10.00">banks</text>
<text text-anchor="middle" x="163.962" y="-235.195" font-family="Arial" font-size="10.00">river</text>
</g>
<!-- b116&#45;&#45;b117 -->
<g id="edge8" class="edge"><title>b116&#45;&#45;b117</title>
<path fill="none" stroke="black" d="M106.773,-164.14C93.0102,-151.186 75.8258,-135.013 63.0783,-123.015"/>
<text text-anchor="middle" x="72.5745" y="-123.649" font-family="Arial" font-size="10.00">boat</text>
<text text-anchor="middle" x="97.2772" y="-158.506" font-family="Arial" font-size="10.00">bank</text>
</g>
<!-- c119 -->
<g id="node5" class="node"><title>c119</title>
<a xlink:href="../../SDMLib/src/org/sdmlib/models/patterns/example/ferrmansproblem/Cargo.java" xlink:title="&lt;TABLE&gt;">
<polygon fill="none" stroke="black" points="109,-106 109,-123 181,-123 181,-106 109,-106"/>
<text text-anchor="start" x="116.5" y="-112.5" font-family="Arial" font-size="10.00"> </text>
<text text-anchor="start" x="120.5" y="-112.5" font-family="Arial" font-size="10.00">c119 :Cargo</text>
</a>
<polygon fill="none" stroke="black" points="109,-86 109,-106 181,-106 181,-86 109,-86"/>
<text text-anchor="start" x="114" y="-94" font-family="Arial" font-size="10.00">name = &quot;wolf&quot;</text>
</g>
<!-- b116&#45;&#45;c119 -->
<g id="edge10" class="edge"><title>b116&#45;&#45;c119</title>
<path fill="none" stroke="black" d="M134.099,-164.14C136.233,-152.759 138.833,-138.893 140.958,-127.557"/>
<text text-anchor="middle" x="143.442" y="-134.744" font-family="Arial" font-size="10.00">cargos</text>
<text text-anchor="middle" x="131.615" y="-151.953" font-family="Arial" font-size="10.00">bank</text>
</g>
<!-- c118 -->
<g id="node4" class="node"><title>c118</title>
<a xlink:href="../../SDMLib/src/org/sdmlib/models/patterns/example/ferrmansproblem/Cargo.java" xlink:title="&lt;TABLE&gt;">
<polygon fill="none" stroke="black" points="8,-24 8,-41 82,-41 82,-24 8,-24"/>
<text text-anchor="start" x="16.5" y="-30.5" font-family="Arial" font-size="10.00"> </text>
<text text-anchor="start" x="20.5" y="-30.5" font-family="Arial" font-size="10.00">c118 :Cargo</text>
</a>
<polygon fill="none" stroke="black" points="8,-4 8,-24 82,-24 82,-4 8,-4"/>
<text text-anchor="start" x="13" y="-12" font-family="Arial" font-size="10.00">name = &quot;goat&quot;</text>
</g>
<!-- b117&#45;&#45;c118 -->
<g id="edge12" class="edge"><title>b117&#45;&#45;c118</title>
<path fill="none" stroke="black" d="M45,-86.6412C45,-74.6011 45,-58.4804 45,-45.608"/>
<text text-anchor="middle" x="49.2262" y="-52.171" font-family="Arial" font-size="10.00">cargo</text>
<text text-anchor="middle" x="40.7738" y="-75.0781" font-family="Arial" font-size="10.00">boat</text>
</g>
<!-- c121 -->
<g id="node7" class="node"><title>c121</title>
<a xlink:href="../../SDMLib/src/org/sdmlib/models/patterns/example/ferrmansproblem/Cargo.java" xlink:title="&lt;TABLE&gt;">
<polygon fill="none" stroke="black" points="215,-106 215,-123 307,-123 307,-106 215,-106"/>
<text text-anchor="start" x="232.5" y="-112.5" font-family="Arial" font-size="10.00"> </text>
<text text-anchor="start" x="236.5" y="-112.5" font-family="Arial" font-size="10.00">c121 :Cargo</text>
</a>
<polygon fill="none" stroke="black" points="215,-86 215,-106 307,-106 307,-86 215,-86"/>
<text text-anchor="start" x="220" y="-94" font-family="Arial" font-size="10.00">name = &quot;cabbage&quot;</text>
</g>
<!-- b120&#45;&#45;c121 -->
<g id="edge14" class="edge"><title>b120&#45;&#45;c121</title>
<path fill="none" stroke="black" d="M256.64,-164.14C257.493,-152.759 258.533,-138.893 259.383,-127.557"/>
<text text-anchor="middle" x="262.92" y="-134.411" font-family="Arial" font-size="10.00">cargos</text>
<text text-anchor="middle" x="253.103" y="-152.286" font-family="Arial" font-size="10.00">bank</text>
</g>
</g>
</svg>
