<?xml version="1.0" encoding="UTF-8" standalone="no"?>
<!DOCTYPE svg PUBLIC "-//W3C//DTD SVG 1.1//EN"
 "http://www.w3.org/Graphics/SVG/1.1/DTD/svg11.dtd">
<!-- Generated by graphviz version 2.28.0 (20110507.0327)
 -->
<!-- Title: ObjectDiagram Pages: 1 -->
<svg width="423pt" height="208pt"
 viewBox="0.00 0.00 423.00 208.00" xmlns="http://www.w3.org/2000/svg" xmlns:xlink="http://www.w3.org/1999/xlink">
<g id="graph1" class="graph" transform="scale(1 1) rotate(0) translate(4 204)">
<title>ObjectDiagram</title>
<polygon fill="white" stroke="white" points="-4,5 -4,-204 420,-204 420,5 -4,5"/>
<!-- r157 -->
<g id="node1" class="node"><title>r157</title>
<a xlink:href="../../SDMLib/src/org/sdmlib/models/patterns/example/ferrmansproblem/River.java" xlink:title="&lt;TABLE&gt;">
<polygon fill="none" stroke="black" points="102,-173 102,-190 159,-190 159,-173 102,-173"/>
<text text-anchor="start" x="105.5" y="-179.5" font-family="Arial" font-size="10.00"> </text>
<text text-anchor="start" x="109.5" y="-179.5" font-family="Arial" font-size="10.00">r157 :River</text>
</a>
</g>
<!-- b158 -->
<g id="node2" class="node"><title>b158</title>
<a xlink:href="../../SDMLib/src/org/sdmlib/models/patterns/example/ferrmansproblem/Bank.java" xlink:title="&lt;TABLE&gt;">
<polygon fill="none" stroke="black" points="96,-106 96,-123 164,-123 164,-106 96,-106"/>
<text text-anchor="start" x="103" y="-112.5" font-family="Arial" font-size="10.00"> </text>
<text text-anchor="start" x="107" y="-112.5" font-family="Arial" font-size="10.00">b158 :Bank</text>
</a>
<polygon fill="none" stroke="black" points="96,-86 96,-106 164,-106 164,-86 96,-86"/>
<text text-anchor="start" x="101" y="-94" font-family="Arial" font-size="10.00">name = &quot;left&quot;</text>
</g>
<!-- r157&#45;&#45;b158 -->
<g id="edge2" class="edge"><title>r157&#45;&#45;b158</title>
<path fill="none" stroke="black" d="M130,-163.981C130,-153.177 130,-139.1 130,-127.522"/>
<text text-anchor="middle" x="134.226" y="-134.085" font-family="Arial" font-size="10.00">banks</text>
<text text-anchor="middle" x="125.774" y="-152.418" font-family="Arial" font-size="10.00">river</text>
</g>
<!-- b159 -->
<g id="node3" class="node"><title>b159</title>
<a xlink:href="../../SDMLib/src/org/sdmlib/models/patterns/example/ferrmansproblem/Boat.java" xlink:title="&lt;TABLE&gt;">
<polygon fill="none" stroke="black" points="8,-14 8,-31 67,-31 67,-14 8,-14"/>
<text text-anchor="start" x="11.5" y="-20.5" font-family="Arial" font-size="10.00"> </text>
<text text-anchor="start" x="15.5" y="-20.5" font-family="Arial" font-size="10.00">b159 :Boat</text>
</a>
</g>
<!-- r157&#45;&#45;b159 -->
<g id="edge6" class="edge"><title>r157&#45;&#45;b159</title>
<path fill="none" stroke="black" d="M110.173,-163.857C99.8458,-154.138 87.6111,-141.288 79,-128 60.7858,-99.8933 48.0875,-62.6077 41.7152,-41.1652"/>
<text text-anchor="middle" x="48.4029" y="-46.0999" font-family="Arial" font-size="10.00">boat</text>
<text text-anchor="middle" x="100.7" y="-158.156" font-family="Arial" font-size="10.00">river</text>
</g>
<!-- b161 -->
<g id="node5" class="node"><title>b161</title>
<a xlink:href="../../SDMLib/src/org/sdmlib/models/patterns/example/ferrmansproblem/Bank.java" xlink:title="&lt;TABLE&gt;">
<polygon fill="none" stroke="black" points="218,-106 218,-123 292,-123 292,-106 218,-106"/>
<text text-anchor="start" x="228" y="-112.5" font-family="Arial" font-size="10.00"> </text>
<text text-anchor="start" x="232" y="-112.5" font-family="Arial" font-size="10.00">b161 :Bank</text>
</a>
<polygon fill="none" stroke="black" points="218,-86 218,-106 292,-106 292,-86 218,-86"/>
<text text-anchor="start" x="223" y="-94" font-family="Arial" font-size="10.00">name = &quot;right&quot;</text>
</g>
<!-- r157&#45;&#45;b161 -->
<g id="edge4" class="edge"><title>r157&#45;&#45;b161</title>
<path fill="none" stroke="black" d="M158.364,-163.981C176.372,-153.177 199.834,-139.1 219.13,-127.522"/>
<text text-anchor="middle" x="213.533" y="-133.309" font-family="Arial" font-size="10.00">banks</text>
<text text-anchor="middle" x="163.962" y="-153.195" font-family="Arial" font-size="10.00">river</text>
</g>
<!-- b158&#45;&#45;b159 -->
<g id="edge8" class="edge"><title>b158&#45;&#45;b159</title>
<path fill="none" stroke="black" d="M104.587,-82.1396C89.5288,-69.1861 70.7271,-53.0125 56.7798,-41.0149"/>
<text text-anchor="middle" x="66.4066" y="-41.2213" font-family="Arial" font-size="10.00">boat</text>
<text text-anchor="middle" x="94.9605" y="-76.9332" font-family="Arial" font-size="10.00">bank</text>
</g>
<!-- c160 -->
<g id="node4" class="node"><title>c160</title>
<a xlink:href="../../SDMLib/src/org/sdmlib/models/patterns/example/ferrmansproblem/Cargo.java" xlink:title="&lt;TABLE&gt;">
<polygon fill="none" stroke="black" points="101,-24 101,-41 175,-41 175,-24 101,-24"/>
<text text-anchor="start" x="109.5" y="-30.5" font-family="Arial" font-size="10.00"> </text>
<text text-anchor="start" x="113.5" y="-30.5" font-family="Arial" font-size="10.00">c160 :Cargo</text>
</a>
<polygon fill="none" stroke="black" points="101,-4 101,-24 175,-24 175,-4 101,-4"/>
<text text-anchor="start" x="106" y="-12" font-family="Arial" font-size="10.00">name = &quot;goat&quot;</text>
</g>
<!-- b158&#45;&#45;c160 -->
<g id="edge10" class="edge"><title>b158&#45;&#45;c160</title>
<path fill="none" stroke="black" d="M132.186,-82.1396C133.324,-70.759 134.711,-56.8929 135.844,-45.5569"/>
<text text-anchor="middle" x="139.148" y="-52.4956" font-family="Arial" font-size="10.00">cargos</text>
<text text-anchor="middle" x="128.883" y="-70.201" font-family="Arial" font-size="10.00">bank</text>
</g>
<!-- c162 -->
<g id="node6" class="node"><title>c162</title>
<a xlink:href="../../SDMLib/src/org/sdmlib/models/patterns/example/ferrmansproblem/Cargo.java" xlink:title="&lt;TABLE&gt;">
<polygon fill="none" stroke="black" points="209,-24 209,-41 301,-41 301,-24 209,-24"/>
<text text-anchor="start" x="226.5" y="-30.5" font-family="Arial" font-size="10.00"> </text>
<text text-anchor="start" x="230.5" y="-30.5" font-family="Arial" font-size="10.00">c162 :Cargo</text>
</a>
<polygon fill="none" stroke="black" points="209,-4 209,-24 301,-24 301,-4 209,-4"/>
<text text-anchor="start" x="214" y="-12" font-family="Arial" font-size="10.00">name = &quot;cabbage&quot;</text>
</g>
<!-- b161&#45;&#45;c162 -->
<g id="edge12" class="edge"><title>b161&#45;&#45;c162</title>
<path fill="none" stroke="black" d="M255,-82.1396C255,-70.759 255,-56.8929 255,-45.5569"/>
<text text-anchor="middle" x="259.226" y="-52.12" font-family="Arial" font-size="10.00">cargos</text>
<text text-anchor="middle" x="250.774" y="-70.5766" font-family="Arial" font-size="10.00">bank</text>
</g>
<!-- c163 -->
<g id="node7" class="node"><title>c163</title>
<a xlink:href="../../SDMLib/src/org/sdmlib/models/patterns/example/ferrmansproblem/Cargo.java" xlink:title="&lt;TABLE&gt;">
<polygon fill="none" stroke="black" points="335,-24 335,-41 407,-41 407,-24 335,-24"/>
<text text-anchor="start" x="342.5" y="-30.5" font-family="Arial" font-size="10.00"> </text>
<text text-anchor="start" x="346.5" y="-30.5" font-family="Arial" font-size="10.00">c163 :Cargo</text>
</a>
<polygon fill="none" stroke="black" points="335,-4 335,-24 407,-24 407,-4 335,-4"/>
<text text-anchor="start" x="340" y="-12" font-family="Arial" font-size="10.00">name = &quot;wolf&quot;</text>
</g>
<!-- b161&#45;&#45;c163 -->
<g id="edge14" class="edge"><title>b161&#45;&#45;c163</title>
<path fill="none" stroke="black" d="M286.391,-82.3508C302.897,-70.9674 323.074,-57.0524 339.584,-45.6665"/>
<text text-anchor="middle" x="334.522" y="-51.7909" font-family="Arial" font-size="10.00">cargos</text>
<text text-anchor="middle" x="291.453" y="-71.2264" font-family="Arial" font-size="10.00">bank</text>
</g>
</g>
</svg>
