<?xml version="1.0" encoding="UTF-8" standalone="no"?>
<!DOCTYPE svg PUBLIC "-//W3C//DTD SVG 1.1//EN"
 "http://www.w3.org/Graphics/SVG/1.1/DTD/svg11.dtd">
<!-- Generated by graphviz version 2.28.0 (20110507.0327)
 -->
<!-- Title: ObjectDiagram Pages: 1 -->
<svg width="314pt" height="290pt"
 viewBox="0.00 0.00 314.00 290.00" xmlns="http://www.w3.org/2000/svg" xmlns:xlink="http://www.w3.org/1999/xlink">
<g id="graph1" class="graph" transform="scale(1 1) rotate(0) translate(4 286)">
<title>ObjectDiagram</title>
<polygon fill="white" stroke="white" points="-4,5 -4,-286 311,-286 311,5 -4,5"/>
<!-- r122 -->
<g id="node1" class="node"><title>r122</title>
<a xlink:href="../../SDMLib/src/org/sdmlib/models/patterns/example/ferrmansproblem/River.java" xlink:title="&lt;TABLE&gt;">
<polygon fill="none" stroke="black" points="108,-255 108,-272 165,-272 165,-255 108,-255"/>
<text text-anchor="start" x="111.5" y="-261.5" font-family="Arial" font-size="10.00"> </text>
<text text-anchor="start" x="115.5" y="-261.5" font-family="Arial" font-size="10.00">r122 :River</text>
</a>
</g>
<!-- b123 -->
<g id="node2" class="node"><title>b123</title>
<a xlink:href="../../SDMLib/src/org/sdmlib/models/patterns/example/ferrmansproblem/Bank.java" xlink:title="&lt;TABLE&gt;">
<polygon fill="none" stroke="black" points="102,-188 102,-205 170,-205 170,-188 102,-188"/>
<text text-anchor="start" x="109" y="-194.5" font-family="Arial" font-size="10.00"> </text>
<text text-anchor="start" x="113" y="-194.5" font-family="Arial" font-size="10.00">b123 :Bank</text>
</a>
<polygon fill="none" stroke="black" points="102,-168 102,-188 170,-188 170,-168 102,-168"/>
<text text-anchor="start" x="107" y="-176" font-family="Arial" font-size="10.00">name = &quot;left&quot;</text>
</g>
<!-- r122&#45;&#45;b123 -->
<g id="edge2" class="edge"><title>r122&#45;&#45;b123</title>
<path fill="none" stroke="black" d="M136,-245.981C136,-235.177 136,-221.1 136,-209.522"/>
<text text-anchor="middle" x="140.226" y="-216.085" font-family="Arial" font-size="10.00">banks</text>
<text text-anchor="middle" x="131.774" y="-234.418" font-family="Arial" font-size="10.00">river</text>
</g>
<!-- b124 -->
<g id="node3" class="node"><title>b124</title>
<a xlink:href="../../SDMLib/src/org/sdmlib/models/patterns/example/ferrmansproblem/Boat.java" xlink:title="&lt;TABLE&gt;">
<polygon fill="none" stroke="black" points="25,-96 25,-113 84,-113 84,-96 25,-96"/>
<text text-anchor="start" x="28.5" y="-102.5" font-family="Arial" font-size="10.00"> </text>
<text text-anchor="start" x="32.5" y="-102.5" font-family="Arial" font-size="10.00">b124 :Boat</text>
</a>
</g>
<!-- r122&#45;&#45;b124 -->
<g id="edge6" class="edge"><title>r122&#45;&#45;b124</title>
<path fill="none" stroke="black" d="M115.413,-245.935C104.995,-236.333 92.9121,-223.568 85,-210 68.6757,-182.006 60.2933,-144.682 56.5499,-123.202"/>
<text text-anchor="middle" x="62.3429" y="-128.853" font-family="Arial" font-size="10.00">boat</text>
<text text-anchor="middle" x="105.912" y="-240.317" font-family="Arial" font-size="10.00">river</text>
</g>
<!-- b127 -->
<g id="node6" class="node"><title>b127</title>
<a xlink:href="../../SDMLib/src/org/sdmlib/models/patterns/example/ferrmansproblem/Bank.java" xlink:title="&lt;TABLE&gt;">
<polygon fill="none" stroke="black" points="220,-188 220,-205 294,-205 294,-188 220,-188"/>
<text text-anchor="start" x="230" y="-194.5" font-family="Arial" font-size="10.00"> </text>
<text text-anchor="start" x="234" y="-194.5" font-family="Arial" font-size="10.00">b127 :Bank</text>
</a>
<polygon fill="none" stroke="black" points="220,-168 220,-188 294,-188 294,-168 220,-168"/>
<text text-anchor="start" x="225" y="-176" font-family="Arial" font-size="10.00">name = &quot;right&quot;</text>
</g>
<!-- r122&#45;&#45;b127 -->
<g id="edge4" class="edge"><title>r122&#45;&#45;b127</title>
<path fill="none" stroke="black" d="M163.457,-245.981C180.888,-235.177 203.599,-221.1 222.278,-209.522"/>
<text text-anchor="middle" x="216.801" y="-215.389" font-family="Arial" font-size="10.00">banks</text>
<text text-anchor="middle" x="168.934" y="-235.114" font-family="Arial" font-size="10.00">river</text>
</g>
<!-- b123&#45;&#45;b124 -->
<g id="edge8" class="edge"><title>b123&#45;&#45;b124</title>
<path fill="none" stroke="black" d="M113.593,-164.14C100.316,-151.186 83.7378,-135.013 71.4403,-123.015"/>
<text text-anchor="middle" x="80.8787" y="-123.819" font-family="Arial" font-size="10.00">boat</text>
<text text-anchor="middle" x="104.155" y="-158.336" font-family="Arial" font-size="10.00">bank</text>
</g>
<!-- c126 -->
<g id="node5" class="node"><title>c126</title>
<a xlink:href="../../SDMLib/src/org/sdmlib/models/patterns/example/ferrmansproblem/Cargo.java" xlink:title="&lt;TABLE&gt;">
<polygon fill="none" stroke="black" points="118,-106 118,-123 192,-123 192,-106 118,-106"/>
<text text-anchor="start" x="126.5" y="-112.5" font-family="Arial" font-size="10.00"> </text>
<text text-anchor="start" x="130.5" y="-112.5" font-family="Arial" font-size="10.00">c126 :Cargo</text>
</a>
<polygon fill="none" stroke="black" points="118,-86 118,-106 192,-106 192,-86 118,-86"/>
<text text-anchor="start" x="123" y="-94" font-family="Arial" font-size="10.00">name = &quot;goat&quot;</text>
</g>
<!-- b123&#45;&#45;c126 -->
<g id="edge10" class="edge"><title>b123&#45;&#45;c126</title>
<path fill="none" stroke="black" d="M141.192,-164.14C143.895,-152.759 147.188,-138.893 149.88,-127.557"/>
<text text-anchor="middle" x="151.898" y="-134.851" font-family="Arial" font-size="10.00">cargos</text>
<text text-anchor="middle" x="139.174" y="-151.845" font-family="Arial" font-size="10.00">bank</text>
</g>
<!-- c125 -->
<g id="node4" class="node"><title>c125</title>
<a xlink:href="../../SDMLib/src/org/sdmlib/models/patterns/example/ferrmansproblem/Cargo.java" xlink:title="&lt;TABLE&gt;">
<polygon fill="none" stroke="black" points="8,-24 8,-41 100,-41 100,-24 8,-24"/>
<text text-anchor="start" x="25.5" y="-30.5" font-family="Arial" font-size="10.00"> </text>
<text text-anchor="start" x="29.5" y="-30.5" font-family="Arial" font-size="10.00">c125 :Cargo</text>
</a>
<polygon fill="none" stroke="black" points="8,-4 8,-24 100,-24 100,-4 8,-4"/>
<text text-anchor="start" x="13" y="-12" font-family="Arial" font-size="10.00">name = &quot;cabbage&quot;</text>
</g>
<!-- b124&#45;&#45;c125 -->
<g id="edge12" class="edge"><title>b124&#45;&#45;c125</title>
<path fill="none" stroke="black" d="M54,-86.6412C54,-74.6011 54,-58.4804 54,-45.608"/>
<text text-anchor="middle" x="58.2262" y="-52.171" font-family="Arial" font-size="10.00">cargo</text>
<text text-anchor="middle" x="49.7738" y="-75.0781" font-family="Arial" font-size="10.00">boat</text>
</g>
<!-- c128 -->
<g id="node7" class="node"><title>c128</title>
<a xlink:href="../../SDMLib/src/org/sdmlib/models/patterns/example/ferrmansproblem/Cargo.java" xlink:title="&lt;TABLE&gt;">
<polygon fill="none" stroke="black" points="226,-106 226,-123 298,-123 298,-106 226,-106"/>
<text text-anchor="start" x="233.5" y="-112.5" font-family="Arial" font-size="10.00"> </text>
<text text-anchor="start" x="237.5" y="-112.5" font-family="Arial" font-size="10.00">c128 :Cargo</text>
</a>
<polygon fill="none" stroke="black" points="226,-86 226,-106 298,-106 298,-86 226,-86"/>
<text text-anchor="start" x="231" y="-94" font-family="Arial" font-size="10.00">name = &quot;wolf&quot;</text>
</g>
<!-- b127&#45;&#45;c128 -->
<g id="edge14" class="edge"><title>b127&#45;&#45;c128</title>
<path fill="none" stroke="black" d="M258.366,-164.14C259.078,-152.759 259.944,-138.893 260.653,-127.557"/>
<text text-anchor="middle" x="264.305" y="-134.366" font-family="Arial" font-size="10.00">cargos</text>
<text text-anchor="middle" x="254.714" y="-152.331" font-family="Arial" font-size="10.00">bank</text>
</g>
</g>
</svg>
