<?xml version="1.0" encoding="UTF-8" standalone="no"?>
<!DOCTYPE svg PUBLIC "-//W3C//DTD SVG 1.1//EN"
 "http://www.w3.org/Graphics/SVG/1.1/DTD/svg11.dtd">
<!-- Generated by graphviz version 2.28.0 (20110507.0327)
 -->
<!-- Title: ObjectDiagram Pages: 1 -->
<svg width="423pt" height="208pt"
 viewBox="0.00 0.00 423.00 208.00" xmlns="http://www.w3.org/2000/svg" xmlns:xlink="http://www.w3.org/1999/xlink">
<g id="graph1" class="graph" transform="scale(1 1) rotate(0) translate(4 204)">
<title>ObjectDiagram</title>
<polygon fill="white" stroke="white" points="-4,5 -4,-204 420,-204 420,5 -4,5"/>
<!-- r101 -->
<g id="node1" class="node"><title>r101</title>
<a xlink:href="../../SDMLib/src/org/sdmlib/models/patterns/example/ferrmansproblem/River.java" xlink:title="&lt;TABLE&gt;">
<polygon fill="none" stroke="black" points="119,-173 119,-190 176,-190 176,-173 119,-173"/>
<text text-anchor="start" x="122.5" y="-179.5" font-family="Arial" font-size="10.00"> </text>
<text text-anchor="start" x="126.5" y="-179.5" font-family="Arial" font-size="10.00">r101 :River</text>
</a>
</g>
<!-- b102 -->
<g id="node2" class="node"><title>b102</title>
<a xlink:href="../../SDMLib/src/org/sdmlib/models/patterns/example/ferrmansproblem/Bank.java" xlink:title="&lt;TABLE&gt;">
<polygon fill="none" stroke="black" points="113,-106 113,-123 181,-123 181,-106 113,-106"/>
<text text-anchor="start" x="120" y="-112.5" font-family="Arial" font-size="10.00"> </text>
<text text-anchor="start" x="124" y="-112.5" font-family="Arial" font-size="10.00">b102 :Bank</text>
</a>
<polygon fill="none" stroke="black" points="113,-86 113,-106 181,-106 181,-86 113,-86"/>
<text text-anchor="start" x="118" y="-94" font-family="Arial" font-size="10.00">name = &quot;left&quot;</text>
</g>
<!-- r101&#45;&#45;b102 -->
<g id="edge2" class="edge"><title>r101&#45;&#45;b102</title>
<path fill="none" stroke="black" d="M147,-163.981C147,-153.177 147,-139.1 147,-127.522"/>
<text text-anchor="middle" x="151.226" y="-134.085" font-family="Arial" font-size="10.00">banks</text>
<text text-anchor="middle" x="142.774" y="-152.418" font-family="Arial" font-size="10.00">river</text>
</g>
<!-- b103 -->
<g id="node3" class="node"><title>b103</title>
<a xlink:href="../../SDMLib/src/org/sdmlib/models/patterns/example/ferrmansproblem/Boat.java" xlink:title="&lt;TABLE&gt;">
<polygon fill="none" stroke="black" points="8,-14 8,-31 67,-31 67,-14 8,-14"/>
<text text-anchor="start" x="11.5" y="-20.5" font-family="Arial" font-size="10.00"> </text>
<text text-anchor="start" x="15.5" y="-20.5" font-family="Arial" font-size="10.00">b103 :Boat</text>
</a>
</g>
<!-- r101&#45;&#45;b103 -->
<g id="edge6" class="edge"><title>r101&#45;&#45;b103</title>
<path fill="none" stroke="black" d="M128.347,-163.855C118.128,-153.936 105.623,-140.895 96,-128 74.6456,-99.3847 55.3526,-62.274 44.9908,-41.0009"/>
<text text-anchor="middle" x="52.7897" y="-44.7601" font-family="Arial" font-size="10.00">boat</text>
<text text-anchor="middle" x="118.916" y="-158.03" font-family="Arial" font-size="10.00">river</text>
</g>
<!-- b106 -->
<g id="node6" class="node"><title>b106</title>
<a xlink:href="../../SDMLib/src/org/sdmlib/models/patterns/example/ferrmansproblem/Bank.java" xlink:title="&lt;TABLE&gt;">
<polygon fill="none" stroke="black" points="274,-106 274,-123 348,-123 348,-106 274,-106"/>
<text text-anchor="start" x="284" y="-112.5" font-family="Arial" font-size="10.00"> </text>
<text text-anchor="start" x="288" y="-112.5" font-family="Arial" font-size="10.00">b106 :Bank</text>
</a>
<polygon fill="none" stroke="black" points="274,-86 274,-106 348,-106 348,-86 274,-86"/>
<text text-anchor="start" x="279" y="-94" font-family="Arial" font-size="10.00">name = &quot;right&quot;</text>
</g>
<!-- r101&#45;&#45;b106 -->
<g id="edge4" class="edge"><title>r101&#45;&#45;b106</title>
<path fill="none" stroke="black" d="M183.397,-164.355C207.744,-153.221 239.954,-138.49 265.922,-126.615"/>
<text text-anchor="middle" x="259.437" y="-131.728" font-family="Arial" font-size="10.00">banks</text>
<text text-anchor="middle" x="189.881" y="-154.242" font-family="Arial" font-size="10.00">river</text>
</g>
<!-- b102&#45;&#45;b103 -->
<g id="edge8" class="edge"><title>b102&#45;&#45;b103</title>
<path fill="none" stroke="black" d="M117.232,-82.3508C99.4169,-69.3941 77.0918,-53.1577 60.5176,-41.1037"/>
<text text-anchor="middle" x="70.333" y="-40.5165" font-family="Arial" font-size="10.00">boat</text>
<text text-anchor="middle" x="107.417" y="-77.9381" font-family="Arial" font-size="10.00">bank</text>
</g>
<!-- c104 -->
<g id="node4" class="node"><title>c104</title>
<a xlink:href="../../SDMLib/src/org/sdmlib/models/patterns/example/ferrmansproblem/Cargo.java" xlink:title="&lt;TABLE&gt;">
<polygon fill="none" stroke="black" points="101,-24 101,-41 193,-41 193,-24 101,-24"/>
<text text-anchor="start" x="118.5" y="-30.5" font-family="Arial" font-size="10.00"> </text>
<text text-anchor="start" x="122.5" y="-30.5" font-family="Arial" font-size="10.00">c104 :Cargo</text>
</a>
<polygon fill="none" stroke="black" points="101,-4 101,-24 193,-24 193,-4 101,-4"/>
<text text-anchor="start" x="106" y="-12" font-family="Arial" font-size="10.00">name = &quot;cabbage&quot;</text>
</g>
<!-- b102&#45;&#45;c104 -->
<g id="edge10" class="edge"><title>b102&#45;&#45;c104</title>
<path fill="none" stroke="black" d="M147,-82.1396C147,-70.759 147,-56.8929 147,-45.5569"/>
<text text-anchor="middle" x="151.226" y="-52.12" font-family="Arial" font-size="10.00">cargos</text>
<text text-anchor="middle" x="142.774" y="-70.5766" font-family="Arial" font-size="10.00">bank</text>
</g>
<!-- c105 -->
<g id="node5" class="node"><title>c105</title>
<a xlink:href="../../SDMLib/src/org/sdmlib/models/patterns/example/ferrmansproblem/Cargo.java" xlink:title="&lt;TABLE&gt;">
<polygon fill="none" stroke="black" points="227,-24 227,-41 301,-41 301,-24 227,-24"/>
<text text-anchor="start" x="235.5" y="-30.5" font-family="Arial" font-size="10.00"> </text>
<text text-anchor="start" x="239.5" y="-30.5" font-family="Arial" font-size="10.00">c105 :Cargo</text>
</a>
<polygon fill="none" stroke="black" points="227,-4 227,-24 301,-24 301,-4 227,-4"/>
<text text-anchor="start" x="232" y="-12" font-family="Arial" font-size="10.00">name = &quot;goat&quot;</text>
</g>
<!-- b102&#45;&#45;c105 -->
<g id="edge12" class="edge"><title>b102&#45;&#45;c105</title>
<path fill="none" stroke="black" d="M178.662,-82.3508C195.31,-70.9674 215.661,-57.0524 232.313,-45.6665"/>
<text text-anchor="middle" x="227.217" y="-51.7706" font-family="Arial" font-size="10.00">cargos</text>
<text text-anchor="middle" x="183.758" y="-71.2467" font-family="Arial" font-size="10.00">bank</text>
</g>
<!-- c107 -->
<g id="node7" class="node"><title>c107</title>
<a xlink:href="../../SDMLib/src/org/sdmlib/models/patterns/example/ferrmansproblem/Cargo.java" xlink:title="&lt;TABLE&gt;">
<polygon fill="none" stroke="black" points="335,-24 335,-41 407,-41 407,-24 335,-24"/>
<text text-anchor="start" x="342.5" y="-30.5" font-family="Arial" font-size="10.00"> </text>
<text text-anchor="start" x="346.5" y="-30.5" font-family="Arial" font-size="10.00">c107 :Cargo</text>
</a>
<polygon fill="none" stroke="black" points="335,-4 335,-24 407,-24 407,-4 335,-4"/>
<text text-anchor="start" x="340" y="-12" font-family="Arial" font-size="10.00">name = &quot;wolf&quot;</text>
</g>
<!-- b106&#45;&#45;c107 -->
<g id="edge14" class="edge"><title>b106&#45;&#45;c107</title>
<path fill="none" stroke="black" d="M327.395,-82.1396C335.931,-70.759 346.33,-56.8929 354.832,-45.5569"/>
<text text-anchor="middle" x="352.775" y="-52.8431" font-family="Arial" font-size="10.00">cargos</text>
<text text-anchor="middle" x="329.452" y="-69.8535" font-family="Arial" font-size="10.00">bank</text>
</g>
</g>
</svg>
