<?xml version="1.0" encoding="UTF-8" standalone="no"?>
<!DOCTYPE svg PUBLIC "-//W3C//DTD SVG 1.1//EN"
 "http://www.w3.org/Graphics/SVG/1.1/DTD/svg11.dtd">
<!-- Generated by graphviz version 2.28.0 (20110507.0327)
 -->
<!-- Title: ObjectDiagram Pages: 1 -->
<svg width="397pt" height="208pt"
 viewBox="0.00 0.00 397.00 208.00" xmlns="http://www.w3.org/2000/svg" xmlns:xlink="http://www.w3.org/1999/xlink">
<g id="graph1" class="graph" transform="scale(1 1) rotate(0) translate(4 204)">
<title>ObjectDiagram</title>
<polygon fill="white" stroke="white" points="-4,5 -4,-204 394,-204 394,5 -4,5"/>
<!-- r17 -->
<g id="node1" class="node"><title>r17</title>
<a xlink:href="../test/org/sdmlib/models/patterns/example/ferrmansproblem/River.java" xlink:title="&lt;TABLE&gt;">
<polygon fill="none" stroke="black" points="217,-173 217,-190 265,-190 265,-173 217,-173"/>
<text text-anchor="start" x="220.5" y="-179.5" font-family="Times New Roman,serif" font-size="10.00"> </text>
<text text-anchor="start" x="223.5" y="-179.5" font-family="Times New Roman,serif" font-size="10.00">r17 :River</text>
</a>
</g>
<!-- b18 -->
<g id="node2" class="node"><title>b18</title>
<a xlink:href="../test/org/sdmlib/models/patterns/example/ferrmansproblem/Bank.java" xlink:title="&lt;TABLE&gt;">
<polygon fill="none" stroke="black" points="129,-106 129,-123 193,-123 193,-106 129,-106"/>
<text text-anchor="start" x="139.5" y="-112.5" font-family="Times New Roman,serif" font-size="10.00"> </text>
<text text-anchor="start" x="142.5" y="-112.5" font-family="Times New Roman,serif" font-size="10.00">b18 :Bank</text>
</a>
<polygon fill="none" stroke="black" points="129,-86 129,-106 193,-106 193,-86 129,-86"/>
<text text-anchor="start" x="134" y="-94" font-family="Times New Roman,serif" font-size="10.00">name = &quot;left&quot;</text>
</g>
<!-- r17&#45;&#45;b18 -->
<g id="edge2" class="edge"><title>r17&#45;&#45;b18</title>
<path fill="none" stroke="black" d="M222.847,-163.981C211.322,-153.177 196.306,-139.1 183.957,-127.522"/>
<text text-anchor="middle" x="193.459" y="-128.137" font-family="Times New Roman,serif" font-size="10.00">banks</text>
<text text-anchor="middle" x="213.344" y="-158.366" font-family="Times New Roman,serif" font-size="10.00">river</text>
</g>
<!-- b21 -->
<g id="node5" class="node"><title>b21</title>
<a xlink:href="../test/org/sdmlib/models/patterns/example/ferrmansproblem/Bank.java" xlink:title="&lt;TABLE&gt;">
<polygon fill="none" stroke="black" points="277,-106 277,-123 347,-123 347,-106 277,-106"/>
<text text-anchor="start" x="290.5" y="-112.5" font-family="Times New Roman,serif" font-size="10.00"> </text>
<text text-anchor="start" x="293.5" y="-112.5" font-family="Times New Roman,serif" font-size="10.00">b21 :Bank</text>
</a>
<polygon fill="none" stroke="black" points="277,-86 277,-106 347,-106 347,-86 277,-86"/>
<text text-anchor="start" x="282" y="-94" font-family="Times New Roman,serif" font-size="10.00">name = &quot;right&quot;</text>
</g>
<!-- r17&#45;&#45;b21 -->
<g id="edge4" class="edge"><title>r17&#45;&#45;b21</title>
<path fill="none" stroke="black" d="M257.111,-163.981C267.34,-153.177 280.666,-139.1 291.626,-127.522"/>
<text text-anchor="middle" x="288.464" y="-134.509" font-family="Times New Roman,serif" font-size="10.00">banks</text>
<text text-anchor="middle" x="260.273" y="-151.994" font-family="Times New Roman,serif" font-size="10.00">river</text>
</g>
<!-- b22 -->
<g id="node6" class="node"><title>b22</title>
<a xlink:href="../test/org/sdmlib/models/patterns/example/ferrmansproblem/Boat.java" xlink:title="&lt;TABLE&gt;">
<polygon fill="none" stroke="black" points="230,-14 230,-31 278,-31 278,-14 230,-14"/>
<text text-anchor="start" x="233.5" y="-20.5" font-family="Times New Roman,serif" font-size="10.00"> </text>
<text text-anchor="start" x="236.5" y="-20.5" font-family="Times New Roman,serif" font-size="10.00">b22 :Boat</text>
</a>
</g>
<!-- r17&#45;&#45;b22 -->
<g id="edge6" class="edge"><title>r17&#45;&#45;b22</title>
<path fill="none" stroke="black" d="M242.416,-163.899C244.917,-133.699 250.086,-71.2648 252.586,-41.0795"/>
<text text-anchor="middle" x="256.05" y="-47.9605" font-family="Times New Roman,serif" font-size="10.00">boat</text>
<text text-anchor="middle" x="238.952" y="-152.018" font-family="Times New Roman,serif" font-size="10.00">river</text>
</g>
<!-- c19 -->
<g id="node3" class="node"><title>c19</title>
<a xlink:href="../test/org/sdmlib/models/patterns/example/ferrmansproblem/Cargo.java" xlink:title="&lt;TABLE&gt;">
<polygon fill="none" stroke="black" points="8,-24 8,-41 93,-41 93,-24 8,-24"/>
<text text-anchor="start" x="27.5" y="-30.5" font-family="Times New Roman,serif" font-size="10.00"> </text>
<text text-anchor="start" x="30.5" y="-30.5" font-family="Times New Roman,serif" font-size="10.00">c19 :Cargo</text>
</a>
<polygon fill="none" stroke="black" points="8,-4 8,-24 93,-24 93,-4 8,-4"/>
<text text-anchor="start" x="13" y="-12" font-family="Times New Roman,serif" font-size="10.00">name = &quot;cabbage&quot;</text>
</g>
<!-- b18&#45;&#45;c19 -->
<g id="edge8" class="edge"><title>b18&#45;&#45;c19</title>
<path fill="none" stroke="black" d="M130.962,-82.3508C115.167,-70.9674 95.8603,-57.0524 80.0622,-45.6665"/>
<text text-anchor="middle" x="89.8857" y="-45.037" font-family="Times New Roman,serif" font-size="10.00">cargos</text>
<text text-anchor="middle" x="121.138" y="-77.9803" font-family="Times New Roman,serif" font-size="10.00">bank</text>
</g>
<!-- c20 -->
<g id="node4" class="node"><title>c20</title>
<a xlink:href="../test/org/sdmlib/models/patterns/example/ferrmansproblem/Cargo.java" xlink:title="&lt;TABLE&gt;">
<polygon fill="none" stroke="black" points="127,-24 127,-41 196,-41 196,-24 127,-24"/>
<text text-anchor="start" x="138.5" y="-30.5" font-family="Times New Roman,serif" font-size="10.00"> </text>
<text text-anchor="start" x="141.5" y="-30.5" font-family="Times New Roman,serif" font-size="10.00">c20 :Cargo</text>
</a>
<polygon fill="none" stroke="black" points="127,-4 127,-24 196,-24 196,-4 127,-4"/>
<text text-anchor="start" x="132" y="-12" font-family="Times New Roman,serif" font-size="10.00">name = &quot;wolf&quot;</text>
</g>
<!-- b18&#45;&#45;c20 -->
<g id="edge10" class="edge"><title>b18&#45;&#45;c20</title>
<path fill="none" stroke="black" d="M161,-82.1396C161,-70.759 161,-56.8929 161,-45.5569"/>
<text text-anchor="middle" x="165.226" y="-52.12" font-family="Times New Roman,serif" font-size="10.00">cargos</text>
<text text-anchor="middle" x="156.774" y="-70.5766" font-family="Times New Roman,serif" font-size="10.00">bank</text>
</g>
<!-- b21&#45;&#45;b22 -->
<g id="edge12" class="edge"><title>b21&#45;&#45;b22</title>
<path fill="none" stroke="black" d="M296.151,-82.1396C286.76,-69.1861 275.034,-53.0125 266.336,-41.0149"/>
<text text-anchor="middle" x="275.077" y="-43.3718" font-family="Times New Roman,serif" font-size="10.00">boat</text>
<text text-anchor="middle" x="287.41" y="-74.7827" font-family="Times New Roman,serif" font-size="10.00">bank</text>
</g>
<!-- c23 -->
<g id="node7" class="node"><title>c23</title>
<a xlink:href="../test/org/sdmlib/models/patterns/example/ferrmansproblem/Cargo.java" xlink:title="&lt;TABLE&gt;">
<polygon fill="none" stroke="black" points="313,-24 313,-41 382,-41 382,-24 313,-24"/>
<text text-anchor="start" x="324.5" y="-30.5" font-family="Times New Roman,serif" font-size="10.00"> </text>
<text text-anchor="start" x="327.5" y="-30.5" font-family="Times New Roman,serif" font-size="10.00">c23 :Cargo</text>
</a>
<polygon fill="none" stroke="black" points="313,-4 313,-24 382,-24 382,-4 313,-4"/>
<text text-anchor="start" x="318" y="-12" font-family="Times New Roman,serif" font-size="10.00">name = &quot;goat&quot;</text>
</g>
<!-- b21&#45;&#45;c23 -->
<g id="edge14" class="edge"><title>b21&#45;&#45;c23</title>
<path fill="none" stroke="black" d="M321.564,-82.1396C326.543,-70.759 332.609,-56.8929 337.569,-45.5569"/>
<text text-anchor="middle" x="337.808" y="-53.0541" font-family="Times New Roman,serif" font-size="10.00">cargos</text>
<text text-anchor="middle" x="321.325" y="-69.6425" font-family="Times New Roman,serif" font-size="10.00">bank</text>
</g>
</g>
</svg>
