<?xml version="1.0" encoding="UTF-8" standalone="no"?>
<!DOCTYPE svg PUBLIC "-//W3C//DTD SVG 1.1//EN"
 "http://www.w3.org/Graphics/SVG/1.1/DTD/svg11.dtd">
<!-- Generated by graphviz version 2.28.0 (20110507.0327)
 -->
<!-- Title: ObjectDiagram Pages: 1 -->
<svg width="324pt" height="290pt"
 viewBox="0.00 0.00 324.00 290.00" xmlns="http://www.w3.org/2000/svg" xmlns:xlink="http://www.w3.org/1999/xlink">
<g id="graph1" class="graph" transform="scale(1 1) rotate(0) translate(4 286)">
<title>ObjectDiagram</title>
<polygon fill="white" stroke="white" points="-4,5 -4,-286 321,-286 321,5 -4,5"/>
<!-- r108 -->
<g id="node1" class="node"><title>r108</title>
<a xlink:href="../../SDMLib/src/org/sdmlib/models/patterns/example/ferrmansproblem/River.java" xlink:title="&lt;TABLE&gt;">
<polygon fill="none" stroke="black" points="102,-255 102,-272 159,-272 159,-255 102,-255"/>
<text text-anchor="start" x="105.5" y="-261.5" font-family="Arial" font-size="10.00"> </text>
<text text-anchor="start" x="109.5" y="-261.5" font-family="Arial" font-size="10.00">r108 :River</text>
</a>
</g>
<!-- b109 -->
<g id="node2" class="node"><title>b109</title>
<a xlink:href="../../SDMLib/src/org/sdmlib/models/patterns/example/ferrmansproblem/Bank.java" xlink:title="&lt;TABLE&gt;">
<polygon fill="none" stroke="black" points="96,-188 96,-205 164,-205 164,-188 96,-188"/>
<text text-anchor="start" x="103" y="-194.5" font-family="Arial" font-size="10.00"> </text>
<text text-anchor="start" x="107" y="-194.5" font-family="Arial" font-size="10.00">b109 :Bank</text>
</a>
<polygon fill="none" stroke="black" points="96,-168 96,-188 164,-188 164,-168 96,-168"/>
<text text-anchor="start" x="101" y="-176" font-family="Arial" font-size="10.00">name = &quot;left&quot;</text>
</g>
<!-- r108&#45;&#45;b109 -->
<g id="edge2" class="edge"><title>r108&#45;&#45;b109</title>
<path fill="none" stroke="black" d="M130,-245.981C130,-235.177 130,-221.1 130,-209.522"/>
<text text-anchor="middle" x="134.226" y="-216.085" font-family="Arial" font-size="10.00">banks</text>
<text text-anchor="middle" x="125.774" y="-234.418" font-family="Arial" font-size="10.00">river</text>
</g>
<!-- b110 -->
<g id="node3" class="node"><title>b110</title>
<a xlink:href="../../SDMLib/src/org/sdmlib/models/patterns/example/ferrmansproblem/Boat.java" xlink:title="&lt;TABLE&gt;">
<polygon fill="none" stroke="black" points="15,-96 15,-113 74,-113 74,-96 15,-96"/>
<text text-anchor="start" x="18.5" y="-102.5" font-family="Arial" font-size="10.00"> </text>
<text text-anchor="start" x="22.5" y="-102.5" font-family="Arial" font-size="10.00">b110 :Boat</text>
</a>
</g>
<!-- r108&#45;&#45;b110 -->
<g id="edge6" class="edge"><title>r108&#45;&#45;b110</title>
<path fill="none" stroke="black" d="M109.604,-245.821C99.2396,-236.187 87.148,-223.428 79,-210 62.0017,-181.987 52.0453,-144.669 47.3416,-123.195"/>
<text text-anchor="middle" x="53.4757" y="-128.593" font-family="Arial" font-size="10.00">boat</text>
<text text-anchor="middle" x="100.114" y="-240.169" font-family="Arial" font-size="10.00">river</text>
</g>
<!-- b113 -->
<g id="node6" class="node"><title>b113</title>
<a xlink:href="../../SDMLib/src/org/sdmlib/models/patterns/example/ferrmansproblem/Bank.java" xlink:title="&lt;TABLE&gt;">
<polygon fill="none" stroke="black" points="219,-188 219,-205 293,-205 293,-188 219,-188"/>
<text text-anchor="start" x="229" y="-194.5" font-family="Arial" font-size="10.00"> </text>
<text text-anchor="start" x="233" y="-194.5" font-family="Arial" font-size="10.00">b113 :Bank</text>
</a>
<polygon fill="none" stroke="black" points="219,-168 219,-188 293,-188 293,-168 219,-168"/>
<text text-anchor="start" x="224" y="-176" font-family="Arial" font-size="10.00">name = &quot;right&quot;</text>
</g>
<!-- r108&#45;&#45;b113 -->
<g id="edge4" class="edge"><title>r108&#45;&#45;b113</title>
<path fill="none" stroke="black" d="M158.591,-245.981C176.743,-235.177 200.393,-221.1 219.843,-209.522"/>
<text text-anchor="middle" x="214.217" y="-215.289" font-family="Arial" font-size="10.00">banks</text>
<text text-anchor="middle" x="164.218" y="-235.214" font-family="Arial" font-size="10.00">river</text>
</g>
<!-- b109&#45;&#45;b110 -->
<g id="edge8" class="edge"><title>b109&#45;&#45;b110</title>
<path fill="none" stroke="black" d="M106.5,-164.14C92.575,-151.186 75.1885,-135.013 62.291,-123.015"/>
<text text-anchor="middle" x="71.8053" y="-123.593" font-family="Arial" font-size="10.00">boat</text>
<text text-anchor="middle" x="96.9858" y="-158.561" font-family="Arial" font-size="10.00">bank</text>
</g>
<!-- c112 -->
<g id="node5" class="node"><title>c112</title>
<a xlink:href="../../SDMLib/src/org/sdmlib/models/patterns/example/ferrmansproblem/Cargo.java" xlink:title="&lt;TABLE&gt;">
<polygon fill="none" stroke="black" points="108,-106 108,-123 182,-123 182,-106 108,-106"/>
<text text-anchor="start" x="116.5" y="-112.5" font-family="Arial" font-size="10.00"> </text>
<text text-anchor="start" x="120.5" y="-112.5" font-family="Arial" font-size="10.00">c112 :Cargo</text>
</a>
<polygon fill="none" stroke="black" points="108,-86 108,-106 182,-106 182,-86 108,-86"/>
<text text-anchor="start" x="113" y="-94" font-family="Arial" font-size="10.00">name = &quot;goat&quot;</text>
</g>
<!-- b109&#45;&#45;c112 -->
<g id="edge10" class="edge"><title>b109&#45;&#45;c112</title>
<path fill="none" stroke="black" d="M134.099,-164.14C136.233,-152.759 138.833,-138.893 140.958,-127.557"/>
<text text-anchor="middle" x="143.442" y="-134.744" font-family="Arial" font-size="10.00">cargos</text>
<text text-anchor="middle" x="131.615" y="-151.953" font-family="Arial" font-size="10.00">bank</text>
</g>
<!-- c111 -->
<g id="node4" class="node"><title>c111</title>
<a xlink:href="../../SDMLib/src/org/sdmlib/models/patterns/example/ferrmansproblem/Cargo.java" xlink:title="&lt;TABLE&gt;">
<polygon fill="none" stroke="black" points="8,-24 8,-41 80,-41 80,-24 8,-24"/>
<text text-anchor="start" x="15.5" y="-30.5" font-family="Arial" font-size="10.00"> </text>
<text text-anchor="start" x="19.5" y="-30.5" font-family="Arial" font-size="10.00">c111 :Cargo</text>
</a>
<polygon fill="none" stroke="black" points="8,-4 8,-24 80,-24 80,-4 8,-4"/>
<text text-anchor="start" x="13" y="-12" font-family="Arial" font-size="10.00">name = &quot;wolf&quot;</text>
</g>
<!-- b110&#45;&#45;c111 -->
<g id="edge12" class="edge"><title>b110&#45;&#45;c111</title>
<path fill="none" stroke="black" d="M44,-86.6412C44,-74.6011 44,-58.4804 44,-45.608"/>
<text text-anchor="middle" x="48.2262" y="-52.171" font-family="Arial" font-size="10.00">cargo</text>
<text text-anchor="middle" x="39.7738" y="-75.0781" font-family="Arial" font-size="10.00">boat</text>
</g>
<!-- c114 -->
<g id="node7" class="node"><title>c114</title>
<a xlink:href="../../SDMLib/src/org/sdmlib/models/patterns/example/ferrmansproblem/Cargo.java" xlink:title="&lt;TABLE&gt;">
<polygon fill="none" stroke="black" points="216,-106 216,-123 308,-123 308,-106 216,-106"/>
<text text-anchor="start" x="233.5" y="-112.5" font-family="Arial" font-size="10.00"> </text>
<text text-anchor="start" x="237.5" y="-112.5" font-family="Arial" font-size="10.00">c114 :Cargo</text>
</a>
<polygon fill="none" stroke="black" points="216,-86 216,-106 308,-106 308,-86 216,-86"/>
<text text-anchor="start" x="221" y="-94" font-family="Arial" font-size="10.00">name = &quot;cabbage&quot;</text>
</g>
<!-- b113&#45;&#45;c114 -->
<g id="edge14" class="edge"><title>b113&#45;&#45;c114</title>
<path fill="none" stroke="black" d="M257.64,-164.14C258.493,-152.759 259.533,-138.893 260.383,-127.557"/>
<text text-anchor="middle" x="263.92" y="-134.411" font-family="Arial" font-size="10.00">cargos</text>
<text text-anchor="middle" x="254.103" y="-152.286" font-family="Arial" font-size="10.00">bank</text>
</g>
</g>
</svg>
