<?xml version="1.0" encoding="UTF-8" standalone="no"?>
<!DOCTYPE svg PUBLIC "-//W3C//DTD SVG 1.1//EN"
 "http://www.w3.org/Graphics/SVG/1.1/DTD/svg11.dtd">
<!-- Generated by graphviz version 2.28.0 (20110507.0327)
 -->
<!-- Title: ObjectDiagram Pages: 1 -->
<svg width="326pt" height="290pt"
 viewBox="0.00 0.00 326.00 290.00" xmlns="http://www.w3.org/2000/svg" xmlns:xlink="http://www.w3.org/1999/xlink">
<g id="graph1" class="graph" transform="scale(1 1) rotate(0) translate(4 286)">
<title>ObjectDiagram</title>
<polygon fill="white" stroke="white" points="-4,5 -4,-286 323,-286 323,5 -4,5"/>
<!-- r24 -->
<g id="node1" class="node"><title>r24</title>
<a xlink:href="../test/org/sdmlib/models/patterns/example/ferrmansproblem/River.java" xlink:title="&lt;TABLE&gt;">
<polygon fill="none" stroke="black" points="216,-255 216,-272 264,-272 264,-255 216,-255"/>
<text text-anchor="start" x="219.5" y="-261.5" font-family="Times New Roman,serif" font-size="10.00"> </text>
<text text-anchor="start" x="222.5" y="-261.5" font-family="Times New Roman,serif" font-size="10.00">r24 :River</text>
</a>
</g>
<!-- b25 -->
<g id="node2" class="node"><title>b25</title>
<a xlink:href="../test/org/sdmlib/models/patterns/example/ferrmansproblem/Bank.java" xlink:title="&lt;TABLE&gt;">
<polygon fill="none" stroke="black" points="107,-188 107,-205 171,-205 171,-188 107,-188"/>
<text text-anchor="start" x="117.5" y="-194.5" font-family="Times New Roman,serif" font-size="10.00"> </text>
<text text-anchor="start" x="120.5" y="-194.5" font-family="Times New Roman,serif" font-size="10.00">b25 :Bank</text>
</a>
<polygon fill="none" stroke="black" points="107,-168 107,-188 171,-188 171,-168 107,-168"/>
<text text-anchor="start" x="112" y="-176" font-family="Times New Roman,serif" font-size="10.00">name = &quot;left&quot;</text>
</g>
<!-- r24&#45;&#45;b25 -->
<g id="edge2" class="edge"><title>r24&#45;&#45;b25</title>
<path fill="none" stroke="black" d="M217.082,-245.981C202.531,-235.177 183.574,-221.1 167.983,-209.522"/>
<text text-anchor="middle" x="177.779" y="-209.032" font-family="Times New Roman,serif" font-size="10.00">banks</text>
<text text-anchor="middle" x="207.286" y="-241.471" font-family="Times New Roman,serif" font-size="10.00">river</text>
</g>
<!-- b28 -->
<g id="node5" class="node"><title>b28</title>
<a xlink:href="../test/org/sdmlib/models/patterns/example/ferrmansproblem/Bank.java" xlink:title="&lt;TABLE&gt;">
<polygon fill="none" stroke="black" points="205,-188 205,-205 275,-205 275,-188 205,-188"/>
<text text-anchor="start" x="218.5" y="-194.5" font-family="Times New Roman,serif" font-size="10.00"> </text>
<text text-anchor="start" x="221.5" y="-194.5" font-family="Times New Roman,serif" font-size="10.00">b28 :Bank</text>
</a>
<polygon fill="none" stroke="black" points="205,-168 205,-188 275,-188 275,-168 205,-168"/>
<text text-anchor="start" x="210" y="-176" font-family="Times New Roman,serif" font-size="10.00">name = &quot;right&quot;</text>
</g>
<!-- r24&#45;&#45;b28 -->
<g id="edge4" class="edge"><title>r24&#45;&#45;b28</title>
<path fill="none" stroke="black" d="M240,-245.981C240,-235.177 240,-221.1 240,-209.522"/>
<text text-anchor="middle" x="244.226" y="-216.085" font-family="Times New Roman,serif" font-size="10.00">banks</text>
<text text-anchor="middle" x="235.774" y="-234.418" font-family="Times New Roman,serif" font-size="10.00">river</text>
</g>
<!-- b29 -->
<g id="node6" class="node"><title>b29</title>
<a xlink:href="../test/org/sdmlib/models/patterns/example/ferrmansproblem/Boat.java" xlink:title="&lt;TABLE&gt;">
<polygon fill="none" stroke="black" points="252,-96 252,-113 300,-113 300,-96 252,-96"/>
<text text-anchor="start" x="255.5" y="-102.5" font-family="Times New Roman,serif" font-size="10.00"> </text>
<text text-anchor="start" x="258.5" y="-102.5" font-family="Times New Roman,serif" font-size="10.00">b29 :Boat</text>
</a>
</g>
<!-- r24&#45;&#45;b29 -->
<g id="edge6" class="edge"><title>r24&#45;&#45;b29</title>
<path fill="none" stroke="black" d="M263.752,-245.91C274.553,-236.651 286.197,-224.2 292,-210 303.817,-181.083 292.708,-144.394 284.029,-123.219"/>
<text text-anchor="middle" x="291.26" y="-127.626" font-family="Times New Roman,serif" font-size="10.00">boat</text>
<text text-anchor="middle" x="267.757" y="-234.247" font-family="Times New Roman,serif" font-size="10.00">river</text>
</g>
<!-- c26 -->
<g id="node3" class="node"><title>c26</title>
<a xlink:href="../test/org/sdmlib/models/patterns/example/ferrmansproblem/Cargo.java" xlink:title="&lt;TABLE&gt;">
<polygon fill="none" stroke="black" points="8,-106 8,-123 93,-123 93,-106 8,-106"/>
<text text-anchor="start" x="27.5" y="-112.5" font-family="Times New Roman,serif" font-size="10.00"> </text>
<text text-anchor="start" x="30.5" y="-112.5" font-family="Times New Roman,serif" font-size="10.00">c26 :Cargo</text>
</a>
<polygon fill="none" stroke="black" points="8,-86 8,-106 93,-106 93,-86 8,-86"/>
<text text-anchor="start" x="13" y="-94" font-family="Times New Roman,serif" font-size="10.00">name = &quot;cabbage&quot;</text>
</g>
<!-- b25&#45;&#45;c26 -->
<g id="edge8" class="edge"><title>b25&#45;&#45;c26</title>
<path fill="none" stroke="black" d="M114.68,-164.14C102.019,-152.759 86.5934,-138.893 73.9821,-127.557"/>
<text text-anchor="middle" x="83.5476" y="-127.973" font-family="Times New Roman,serif" font-size="10.00">cargos</text>
<text text-anchor="middle" x="105.115" y="-158.724" font-family="Times New Roman,serif" font-size="10.00">bank</text>
</g>
<!-- c27 -->
<g id="node4" class="node"><title>c27</title>
<a xlink:href="../test/org/sdmlib/models/patterns/example/ferrmansproblem/Cargo.java" xlink:title="&lt;TABLE&gt;">
<polygon fill="none" stroke="black" points="127,-106 127,-123 196,-123 196,-106 127,-106"/>
<text text-anchor="start" x="138.5" y="-112.5" font-family="Times New Roman,serif" font-size="10.00"> </text>
<text text-anchor="start" x="141.5" y="-112.5" font-family="Times New Roman,serif" font-size="10.00">c27 :Cargo</text>
</a>
<polygon fill="none" stroke="black" points="127,-86 127,-106 196,-106 196,-86 127,-86"/>
<text text-anchor="start" x="132" y="-94" font-family="Times New Roman,serif" font-size="10.00">name = &quot;wolf&quot;</text>
</g>
<!-- b25&#45;&#45;c27 -->
<g id="edge10" class="edge"><title>b25&#45;&#45;c27</title>
<path fill="none" stroke="black" d="M145.012,-164.14C148.141,-152.759 151.954,-138.893 155.072,-127.557"/>
<text text-anchor="middle" x="156.744" y="-134.916" font-family="Times New Roman,serif" font-size="10.00">cargos</text>
<text text-anchor="middle" x="143.34" y="-151.78" font-family="Times New Roman,serif" font-size="10.00">bank</text>
</g>
<!-- b28&#45;&#45;b29 -->
<g id="edge12" class="edge"><title>b28&#45;&#45;b29</title>
<path fill="none" stroke="black" d="M249.837,-164.14C255.666,-151.186 262.944,-135.013 268.343,-123.015"/>
<text text-anchor="middle" x="268.478" y="-130.514" font-family="Times New Roman,serif" font-size="10.00">boat</text>
<text text-anchor="middle" x="249.702" y="-151.641" font-family="Times New Roman,serif" font-size="10.00">bank</text>
</g>
<!-- c30 -->
<g id="node7" class="node"><title>c30</title>
<a xlink:href="../test/org/sdmlib/models/patterns/example/ferrmansproblem/Cargo.java" xlink:title="&lt;TABLE&gt;">
<polygon fill="none" stroke="black" points="242,-24 242,-41 311,-41 311,-24 242,-24"/>
<text text-anchor="start" x="253.5" y="-30.5" font-family="Times New Roman,serif" font-size="10.00"> </text>
<text text-anchor="start" x="256.5" y="-30.5" font-family="Times New Roman,serif" font-size="10.00">c30 :Cargo</text>
</a>
<polygon fill="none" stroke="black" points="242,-4 242,-24 311,-24 311,-4 242,-4"/>
<text text-anchor="start" x="247" y="-12" font-family="Times New Roman,serif" font-size="10.00">name = &quot;goat&quot;</text>
</g>
<!-- b29&#45;&#45;c30 -->
<g id="edge14" class="edge"><title>b29&#45;&#45;c30</title>
<path fill="none" stroke="black" d="M276,-86.6412C276,-74.6011 276,-58.4804 276,-45.608"/>
<text text-anchor="middle" x="280.226" y="-52.171" font-family="Times New Roman,serif" font-size="10.00">cargo</text>
<text text-anchor="middle" x="271.774" y="-75.0781" font-family="Times New Roman,serif" font-size="10.00">boat</text>
</g>
</g>
</svg>
