<?xml version="1.0" encoding="UTF-8" standalone="no"?>
<!DOCTYPE svg PUBLIC "-//W3C//DTD SVG 1.1//EN"
 "http://www.w3.org/Graphics/SVG/1.1/DTD/svg11.dtd">
<!-- Generated by graphviz version 2.28.0 (20110507.0327)
 -->
<!-- Title: ObjectDiagram Pages: 1 -->
<svg width="298pt" height="290pt"
 viewBox="0.00 0.00 298.00 290.00" xmlns="http://www.w3.org/2000/svg" xmlns:xlink="http://www.w3.org/1999/xlink">
<g id="graph1" class="graph" transform="scale(1 1) rotate(0) translate(4 286)">
<title>ObjectDiagram</title>
<polygon fill="white" stroke="white" points="-4,5 -4,-286 295,-286 295,5 -4,5"/>
<!-- r26 -->
<g id="node1" class="node"><title>r26</title>
<a xlink:href="../test/org/sdmlib/models/patterns/example/ferrmansproblem/River.java" xlink:title="&lt;TABLE&gt;">
<polygon fill="none" stroke="black" points="105,-255 105,-272 153,-272 153,-255 105,-255"/>
<text text-anchor="start" x="108.5" y="-261.5" font-family="Times New Roman,serif" font-size="10.00"> </text>
<text text-anchor="start" x="111.5" y="-261.5" font-family="Times New Roman,serif" font-size="10.00">r26 :River</text>
</a>
</g>
<!-- b121 -->
<g id="node2" class="node"><title>b121</title>
<a xlink:href="../test/org/sdmlib/models/patterns/example/ferrmansproblem/Bank.java" xlink:title="&lt;TABLE&gt;">
<polygon fill="none" stroke="black" points="97,-188 97,-205 161,-205 161,-188 97,-188"/>
<text text-anchor="start" x="105.5" y="-194.5" font-family="Times New Roman,serif" font-size="10.00"> </text>
<text text-anchor="start" x="108.5" y="-194.5" font-family="Times New Roman,serif" font-size="10.00">b121 :Bank</text>
</a>
<polygon fill="none" stroke="black" points="97,-168 97,-188 161,-188 161,-168 97,-168"/>
<text text-anchor="start" x="102" y="-176" font-family="Times New Roman,serif" font-size="10.00">name = &quot;left&quot;</text>
</g>
<!-- r26&#45;&#45;b121 -->
<g id="edge2" class="edge"><title>r26&#45;&#45;b121</title>
<path fill="none" stroke="black" d="M129,-245.981C129,-235.177 129,-221.1 129,-209.522"/>
<text text-anchor="middle" x="133.226" y="-216.085" font-family="Times New Roman,serif" font-size="10.00">banks</text>
<text text-anchor="middle" x="124.774" y="-234.418" font-family="Times New Roman,serif" font-size="10.00">river</text>
</g>
<!-- b122 -->
<g id="node3" class="node"><title>b122</title>
<a xlink:href="../test/org/sdmlib/models/patterns/example/ferrmansproblem/Boat.java" xlink:title="&lt;TABLE&gt;">
<polygon fill="none" stroke="black" points="24,-96 24,-113 77,-113 77,-96 24,-96"/>
<text text-anchor="start" x="27.5" y="-102.5" font-family="Times New Roman,serif" font-size="10.00"> </text>
<text text-anchor="start" x="30.5" y="-102.5" font-family="Times New Roman,serif" font-size="10.00">b122 :Boat</text>
</a>
</g>
<!-- r26&#45;&#45;b122 -->
<g id="edge6" class="edge"><title>r26&#45;&#45;b122</title>
<path fill="none" stroke="black" d="M108.952,-245.584C98.9908,-235.977 87.5103,-223.316 80,-210 64.122,-181.847 56.0376,-144.577 52.4417,-123.15"/>
<text text-anchor="middle" x="58.1819" y="-128.839" font-family="Times New Roman,serif" font-size="10.00">boat</text>
<text text-anchor="middle" x="99.5226" y="-239.753" font-family="Times New Roman,serif" font-size="10.00">river</text>
</g>
<!-- b125 -->
<g id="node6" class="node"><title>b125</title>
<a xlink:href="../test/org/sdmlib/models/patterns/example/ferrmansproblem/Bank.java" xlink:title="&lt;TABLE&gt;">
<polygon fill="none" stroke="black" points="209,-188 209,-205 279,-205 279,-188 209,-188"/>
<text text-anchor="start" x="220.5" y="-194.5" font-family="Times New Roman,serif" font-size="10.00"> </text>
<text text-anchor="start" x="223.5" y="-194.5" font-family="Times New Roman,serif" font-size="10.00">b125 :Bank</text>
</a>
<polygon fill="none" stroke="black" points="209,-168 209,-188 279,-188 279,-168 209,-168"/>
<text text-anchor="start" x="214" y="-176" font-family="Times New Roman,serif" font-size="10.00">name = &quot;right&quot;</text>
</g>
<!-- r26&#45;&#45;b125 -->
<g id="edge4" class="edge"><title>r26&#45;&#45;b125</title>
<path fill="none" stroke="black" d="M155.095,-245.981C171.663,-235.177 193.247,-221.1 211,-209.522"/>
<text text-anchor="middle" x="205.717" y="-215.513" font-family="Times New Roman,serif" font-size="10.00">banks</text>
<text text-anchor="middle" x="160.378" y="-234.991" font-family="Times New Roman,serif" font-size="10.00">river</text>
</g>
<!-- b121&#45;&#45;b122 -->
<g id="edge8" class="edge"><title>b121&#45;&#45;b122</title>
<path fill="none" stroke="black" d="M107.413,-164.14C94.6213,-151.186 78.6499,-135.013 66.8022,-123.015"/>
<text text-anchor="middle" x="76.1774" y="-123.994" font-family="Times New Roman,serif" font-size="10.00">boat</text>
<text text-anchor="middle" x="98.0377" y="-158.16" font-family="Times New Roman,serif" font-size="10.00">bank</text>
</g>
<!-- c124 -->
<g id="node5" class="node"><title>c124</title>
<a xlink:href="../test/org/sdmlib/models/patterns/example/ferrmansproblem/Cargo.java" xlink:title="&lt;TABLE&gt;">
<polygon fill="none" stroke="black" points="111,-106 111,-123 180,-123 180,-106 111,-106"/>
<text text-anchor="start" x="120.5" y="-112.5" font-family="Times New Roman,serif" font-size="10.00"> </text>
<text text-anchor="start" x="123.5" y="-112.5" font-family="Times New Roman,serif" font-size="10.00">c124 :Cargo</text>
</a>
<polygon fill="none" stroke="black" points="111,-86 111,-106 180,-106 180,-86 111,-86"/>
<text text-anchor="start" x="116" y="-94" font-family="Times New Roman,serif" font-size="10.00">name = &quot;wolf&quot;</text>
</g>
<!-- b121&#45;&#45;c124 -->
<g id="edge10" class="edge"><title>b121&#45;&#45;c124</title>
<path fill="none" stroke="black" d="M133.372,-164.14C135.648,-152.759 138.421,-138.893 140.689,-127.557"/>
<text text-anchor="middle" x="143.055" y="-134.773" font-family="Times New Roman,serif" font-size="10.00">cargos</text>
<text text-anchor="middle" x="131.005" y="-151.924" font-family="Times New Roman,serif" font-size="10.00">bank</text>
</g>
<!-- c123 -->
<g id="node4" class="node"><title>c123</title>
<a xlink:href="../test/org/sdmlib/models/patterns/example/ferrmansproblem/Cargo.java" xlink:title="&lt;TABLE&gt;">
<polygon fill="none" stroke="black" points="8,-24 8,-41 93,-41 93,-24 8,-24"/>
<text text-anchor="start" x="25.5" y="-30.5" font-family="Times New Roman,serif" font-size="10.00"> </text>
<text text-anchor="start" x="28.5" y="-30.5" font-family="Times New Roman,serif" font-size="10.00">c123 :Cargo</text>
</a>
<polygon fill="none" stroke="black" points="8,-4 8,-24 93,-24 93,-4 8,-4"/>
<text text-anchor="start" x="13" y="-12" font-family="Times New Roman,serif" font-size="10.00">name = &quot;cabbage&quot;</text>
</g>
<!-- b122&#45;&#45;c123 -->
<g id="edge12" class="edge"><title>b122&#45;&#45;c123</title>
<path fill="none" stroke="black" d="M50,-86.6412C50,-74.6011 50,-58.4804 50,-45.608"/>
<text text-anchor="middle" x="54.2262" y="-52.171" font-family="Times New Roman,serif" font-size="10.00">cargo</text>
<text text-anchor="middle" x="45.7738" y="-75.0781" font-family="Times New Roman,serif" font-size="10.00">boat</text>
</g>
<!-- c126 -->
<g id="node7" class="node"><title>c126</title>
<a xlink:href="../test/org/sdmlib/models/patterns/example/ferrmansproblem/Cargo.java" xlink:title="&lt;TABLE&gt;">
<polygon fill="none" stroke="black" points="214,-106 214,-123 283,-123 283,-106 214,-106"/>
<text text-anchor="start" x="223.5" y="-112.5" font-family="Times New Roman,serif" font-size="10.00"> </text>
<text text-anchor="start" x="226.5" y="-112.5" font-family="Times New Roman,serif" font-size="10.00">c126 :Cargo</text>
</a>
<polygon fill="none" stroke="black" points="214,-86 214,-106 283,-106 283,-86 214,-86"/>
<text text-anchor="start" x="219" y="-94" font-family="Times New Roman,serif" font-size="10.00">name = &quot;goat&quot;</text>
</g>
<!-- b125&#45;&#45;c126 -->
<g id="edge14" class="edge"><title>b125&#45;&#45;c126</title>
<path fill="none" stroke="black" d="M245.093,-164.14C245.662,-152.759 246.355,-138.893 246.922,-127.557"/>
<text text-anchor="middle" x="250.69" y="-134.32" font-family="Times New Roman,serif" font-size="10.00">cargos</text>
<text text-anchor="middle" x="241.325" y="-152.377" font-family="Times New Roman,serif" font-size="10.00">bank</text>
</g>
</g>
</svg>
