<?xml version="1.0" encoding="UTF-8" standalone="no"?>
<!DOCTYPE svg PUBLIC "-//W3C//DTD SVG 1.1//EN"
 "http://www.w3.org/Graphics/SVG/1.1/DTD/svg11.dtd">
<!-- Generated by graphviz version 2.28.0 (20110507.0327)
 -->
<!-- Title: ObjectDiagram Pages: 1 -->
<svg width="418pt" height="208pt"
 viewBox="0.00 0.00 418.00 208.00" xmlns="http://www.w3.org/2000/svg" xmlns:xlink="http://www.w3.org/1999/xlink">
<g id="graph1" class="graph" transform="scale(1 1) rotate(0) translate(4 204)">
<title>ObjectDiagram</title>
<polygon fill="white" stroke="white" points="-4,5 -4,-204 415,-204 415,5 -4,5"/>
<!-- r31 -->
<g id="node1" class="node"><title>r31</title>
<a xlink:href="../../SDMLib/src/org/sdmlib/models/patterns/example/ferrmansproblem/River.java" xlink:title="&lt;TABLE&gt;">
<polygon fill="none" stroke="black" points="116,-173 116,-190 168,-190 168,-173 116,-173"/>
<text text-anchor="start" x="119.5" y="-179.5" font-family="Arial" font-size="10.00"> </text>
<text text-anchor="start" x="123.5" y="-179.5" font-family="Arial" font-size="10.00">r31 :River</text>
</a>
</g>
<!-- b32 -->
<g id="node2" class="node"><title>b32</title>
<a xlink:href="../../SDMLib/src/org/sdmlib/models/patterns/example/ferrmansproblem/Bank.java" xlink:title="&lt;TABLE&gt;">
<polygon fill="none" stroke="black" points="108,-106 108,-123 176,-123 176,-106 108,-106"/>
<text text-anchor="start" x="117.5" y="-112.5" font-family="Arial" font-size="10.00"> </text>
<text text-anchor="start" x="121.5" y="-112.5" font-family="Arial" font-size="10.00">b32 :Bank</text>
</a>
<polygon fill="none" stroke="black" points="108,-86 108,-106 176,-106 176,-86 108,-86"/>
<text text-anchor="start" x="113" y="-94" font-family="Arial" font-size="10.00">name = &quot;left&quot;</text>
</g>
<!-- r31&#45;&#45;b32 -->
<g id="edge2" class="edge"><title>r31&#45;&#45;b32</title>
<path fill="none" stroke="black" d="M142,-163.981C142,-153.177 142,-139.1 142,-127.522"/>
<text text-anchor="middle" x="146.226" y="-134.085" font-family="Arial" font-size="10.00">banks</text>
<text text-anchor="middle" x="137.774" y="-152.418" font-family="Arial" font-size="10.00">river</text>
</g>
<!-- b33 -->
<g id="node3" class="node"><title>b33</title>
<a xlink:href="../../SDMLib/src/org/sdmlib/models/patterns/example/ferrmansproblem/Boat.java" xlink:title="&lt;TABLE&gt;">
<polygon fill="none" stroke="black" points="8,-14 8,-31 62,-31 62,-14 8,-14"/>
<text text-anchor="start" x="11.5" y="-20.5" font-family="Arial" font-size="10.00"> </text>
<text text-anchor="start" x="15.5" y="-20.5" font-family="Arial" font-size="10.00">b33 :Boat</text>
</a>
</g>
<!-- r31&#45;&#45;b33 -->
<g id="edge6" class="edge"><title>r31&#45;&#45;b33</title>
<path fill="none" stroke="black" d="M123.236,-163.936C112.983,-154.043 100.48,-141 91,-128 70.2184,-99.5008 52.0828,-62.3501 42.4187,-41.0384"/>
<text text-anchor="middle" x="50.0451" y="-45.0067" font-family="Arial" font-size="10.00">boat</text>
<text text-anchor="middle" x="113.796" y="-158.136" font-family="Arial" font-size="10.00">river</text>
</g>
<!-- b36 -->
<g id="node6" class="node"><title>b36</title>
<a xlink:href="../../SDMLib/src/org/sdmlib/models/patterns/example/ferrmansproblem/Bank.java" xlink:title="&lt;TABLE&gt;">
<polygon fill="none" stroke="black" points="269,-106 269,-123 343,-123 343,-106 269,-106"/>
<text text-anchor="start" x="281.5" y="-112.5" font-family="Arial" font-size="10.00"> </text>
<text text-anchor="start" x="285.5" y="-112.5" font-family="Arial" font-size="10.00">b36 :Bank</text>
</a>
<polygon fill="none" stroke="black" points="269,-86 269,-106 343,-106 343,-86 269,-86"/>
<text text-anchor="start" x="274" y="-94" font-family="Arial" font-size="10.00">name = &quot;right&quot;</text>
</g>
<!-- r31&#45;&#45;b36 -->
<g id="edge4" class="edge"><title>r31&#45;&#45;b36</title>
<path fill="none" stroke="black" d="M176.38,-165.278C200.894,-154.067 234.099,-138.882 260.763,-126.688"/>
<text text-anchor="middle" x="254.279" y="-131.8" font-family="Arial" font-size="10.00">banks</text>
<text text-anchor="middle" x="182.864" y="-155.165" font-family="Arial" font-size="10.00">river</text>
</g>
<!-- b32&#45;&#45;b33 -->
<g id="edge8" class="edge"><title>b32&#45;&#45;b33</title>
<path fill="none" stroke="black" d="M113.044,-82.3508C95.7146,-69.3941 73.9984,-53.1577 57.8762,-41.1037"/>
<text text-anchor="middle" x="67.6655" y="-40.646" font-family="Arial" font-size="10.00">boat</text>
<text text-anchor="middle" x="103.255" y="-77.8086" font-family="Arial" font-size="10.00">bank</text>
</g>
<!-- c34 -->
<g id="node4" class="node"><title>c34</title>
<a xlink:href="../../SDMLib/src/org/sdmlib/models/patterns/example/ferrmansproblem/Cargo.java" xlink:title="&lt;TABLE&gt;">
<polygon fill="none" stroke="black" points="96,-24 96,-41 188,-41 188,-24 96,-24"/>
<text text-anchor="start" x="116" y="-30.5" font-family="Arial" font-size="10.00"> </text>
<text text-anchor="start" x="120" y="-30.5" font-family="Arial" font-size="10.00">c34 :Cargo</text>
</a>
<polygon fill="none" stroke="black" points="96,-4 96,-24 188,-24 188,-4 96,-4"/>
<text text-anchor="start" x="101" y="-12" font-family="Arial" font-size="10.00">name = &quot;cabbage&quot;</text>
</g>
<!-- b32&#45;&#45;c34 -->
<g id="edge10" class="edge"><title>b32&#45;&#45;c34</title>
<path fill="none" stroke="black" d="M142,-82.1396C142,-70.759 142,-56.8929 142,-45.5569"/>
<text text-anchor="middle" x="146.226" y="-52.12" font-family="Arial" font-size="10.00">cargos</text>
<text text-anchor="middle" x="137.774" y="-70.5766" font-family="Arial" font-size="10.00">bank</text>
</g>
<!-- c35 -->
<g id="node5" class="node"><title>c35</title>
<a xlink:href="../../SDMLib/src/org/sdmlib/models/patterns/example/ferrmansproblem/Cargo.java" xlink:title="&lt;TABLE&gt;">
<polygon fill="none" stroke="black" points="222,-24 222,-41 294,-41 294,-24 222,-24"/>
<text text-anchor="start" x="232" y="-30.5" font-family="Arial" font-size="10.00"> </text>
<text text-anchor="start" x="236" y="-30.5" font-family="Arial" font-size="10.00">c35 :Cargo</text>
</a>
<polygon fill="none" stroke="black" points="222,-4 222,-24 294,-24 294,-4 222,-4"/>
<text text-anchor="start" x="227" y="-12" font-family="Arial" font-size="10.00">name = &quot;wolf&quot;</text>
</g>
<!-- b32&#45;&#45;c35 -->
<g id="edge12" class="edge"><title>b32&#45;&#45;c35</title>
<path fill="none" stroke="black" d="M173.391,-82.3508C189.897,-70.9674 210.074,-57.0524 226.584,-45.6665"/>
<text text-anchor="middle" x="221.522" y="-51.7909" font-family="Arial" font-size="10.00">cargos</text>
<text text-anchor="middle" x="178.453" y="-71.2264" font-family="Arial" font-size="10.00">bank</text>
</g>
<!-- c37 -->
<g id="node7" class="node"><title>c37</title>
<a xlink:href="../../SDMLib/src/org/sdmlib/models/patterns/example/ferrmansproblem/Cargo.java" xlink:title="&lt;TABLE&gt;">
<polygon fill="none" stroke="black" points="328,-24 328,-41 402,-41 402,-24 328,-24"/>
<text text-anchor="start" x="339" y="-30.5" font-family="Arial" font-size="10.00"> </text>
<text text-anchor="start" x="343" y="-30.5" font-family="Arial" font-size="10.00">c37 :Cargo</text>
</a>
<polygon fill="none" stroke="black" points="328,-4 328,-24 402,-24 402,-4 328,-4"/>
<text text-anchor="start" x="333" y="-12" font-family="Arial" font-size="10.00">name = &quot;goat&quot;</text>
</g>
<!-- b36&#45;&#45;c37 -->
<g id="edge14" class="edge"><title>b36&#45;&#45;c37</title>
<path fill="none" stroke="black" d="M322.122,-82.1396C330.515,-70.759 340.741,-56.8929 349.102,-45.5569"/>
<text text-anchor="middle" x="347.124" y="-52.8593" font-family="Arial" font-size="10.00">cargos</text>
<text text-anchor="middle" x="324.1" y="-69.8372" font-family="Arial" font-size="10.00">bank</text>
</g>
</g>
</svg>
