<?xml version="1.0" encoding="UTF-8" standalone="no"?>
<!DOCTYPE svg PUBLIC "-//W3C//DTD SVG 1.1//EN"
 "http://www.w3.org/Graphics/SVG/1.1/DTD/svg11.dtd">
<!-- Generated by graphviz version 2.28.0 (20110507.0327)
 -->
<!-- Title: ObjectDiagram Pages: 1 -->
<svg width="397pt" height="208pt"
 viewBox="0.00 0.00 397.00 208.00" xmlns="http://www.w3.org/2000/svg" xmlns:xlink="http://www.w3.org/1999/xlink">
<g id="graph1" class="graph" transform="scale(1 1) rotate(0) translate(4 204)">
<title>ObjectDiagram</title>
<polygon fill="white" stroke="white" points="-4,5 -4,-204 394,-204 394,5 -4,5"/>
<!-- r31 -->
<g id="node1" class="node"><title>r31</title>
<a xlink:href="../test/org/sdmlib/models/patterns/example/ferrmansproblem/River.java" xlink:title="&lt;TABLE&gt;">
<polygon fill="none" stroke="black" points="109,-173 109,-190 157,-190 157,-173 109,-173"/>
<text text-anchor="start" x="112.5" y="-179.5" font-family="Times New Roman,serif" font-size="10.00"> </text>
<text text-anchor="start" x="115.5" y="-179.5" font-family="Times New Roman,serif" font-size="10.00">r31 :River</text>
</a>
</g>
<!-- b32 -->
<g id="node2" class="node"><title>b32</title>
<a xlink:href="../test/org/sdmlib/models/patterns/example/ferrmansproblem/Bank.java" xlink:title="&lt;TABLE&gt;">
<polygon fill="none" stroke="black" points="101,-106 101,-123 165,-123 165,-106 101,-106"/>
<text text-anchor="start" x="111.5" y="-112.5" font-family="Times New Roman,serif" font-size="10.00"> </text>
<text text-anchor="start" x="114.5" y="-112.5" font-family="Times New Roman,serif" font-size="10.00">b32 :Bank</text>
</a>
<polygon fill="none" stroke="black" points="101,-86 101,-106 165,-106 165,-86 101,-86"/>
<text text-anchor="start" x="106" y="-94" font-family="Times New Roman,serif" font-size="10.00">name = &quot;left&quot;</text>
</g>
<!-- r31&#45;&#45;b32 -->
<g id="edge2" class="edge"><title>r31&#45;&#45;b32</title>
<path fill="none" stroke="black" d="M133,-163.981C133,-153.177 133,-139.1 133,-127.522"/>
<text text-anchor="middle" x="137.226" y="-134.085" font-family="Times New Roman,serif" font-size="10.00">banks</text>
<text text-anchor="middle" x="128.774" y="-152.418" font-family="Times New Roman,serif" font-size="10.00">river</text>
</g>
<!-- b33 -->
<g id="node3" class="node"><title>b33</title>
<a xlink:href="../test/org/sdmlib/models/patterns/example/ferrmansproblem/Boat.java" xlink:title="&lt;TABLE&gt;">
<polygon fill="none" stroke="black" points="8,-14 8,-31 56,-31 56,-14 8,-14"/>
<text text-anchor="start" x="11.5" y="-20.5" font-family="Times New Roman,serif" font-size="10.00"> </text>
<text text-anchor="start" x="14.5" y="-20.5" font-family="Times New Roman,serif" font-size="10.00">b33 :Boat</text>
</a>
</g>
<!-- r31&#45;&#45;b33 -->
<g id="edge6" class="edge"><title>r31&#45;&#45;b33</title>
<path fill="none" stroke="black" d="M114.873,-163.926C104.99,-154.03 92.9795,-140.988 84,-128 64.2541,-99.4403 47.5681,-62.3104 38.7439,-41.0189"/>
<text text-anchor="middle" x="46.1551" y="-45.2326" font-family="Times New Roman,serif" font-size="10.00">boat</text>
<text text-anchor="middle" x="105.496" y="-157.949" font-family="Times New Roman,serif" font-size="10.00">river</text>
</g>
<!-- b36 -->
<g id="node6" class="node"><title>b36</title>
<a xlink:href="../test/org/sdmlib/models/patterns/example/ferrmansproblem/Bank.java" xlink:title="&lt;TABLE&gt;">
<polygon fill="none" stroke="black" points="255,-106 255,-123 325,-123 325,-106 255,-106"/>
<text text-anchor="start" x="268.5" y="-112.5" font-family="Times New Roman,serif" font-size="10.00"> </text>
<text text-anchor="start" x="271.5" y="-112.5" font-family="Times New Roman,serif" font-size="10.00">b36 :Bank</text>
</a>
<polygon fill="none" stroke="black" points="255,-86 255,-106 325,-106 325,-86 255,-86"/>
<text text-anchor="start" x="260" y="-94" font-family="Times New Roman,serif" font-size="10.00">name = &quot;right&quot;</text>
</g>
<!-- r31&#45;&#45;b36 -->
<g id="edge4" class="edge"><title>r31&#45;&#45;b36</title>
<path fill="none" stroke="black" d="M165.15,-165.642C188.744,-154.371 221.042,-138.942 246.876,-126.601"/>
<text text-anchor="middle" x="240.52" y="-131.821" font-family="Times New Roman,serif" font-size="10.00">banks</text>
<text text-anchor="middle" x="171.506" y="-155.422" font-family="Times New Roman,serif" font-size="10.00">river</text>
</g>
<!-- b32&#45;&#45;b33 -->
<g id="edge8" class="edge"><title>b32&#45;&#45;b33</title>
<path fill="none" stroke="black" d="M105.668,-82.3508C89.3101,-69.3941 68.8116,-53.1577 53.5935,-41.1037"/>
<text text-anchor="middle" x="63.3219" y="-40.9181" font-family="Times New Roman,serif" font-size="10.00">boat</text>
<text text-anchor="middle" x="95.9395" y="-77.5364" font-family="Times New Roman,serif" font-size="10.00">bank</text>
</g>
<!-- c34 -->
<g id="node4" class="node"><title>c34</title>
<a xlink:href="../test/org/sdmlib/models/patterns/example/ferrmansproblem/Cargo.java" xlink:title="&lt;TABLE&gt;">
<polygon fill="none" stroke="black" points="91,-24 91,-41 176,-41 176,-24 91,-24"/>
<text text-anchor="start" x="110.5" y="-30.5" font-family="Times New Roman,serif" font-size="10.00"> </text>
<text text-anchor="start" x="113.5" y="-30.5" font-family="Times New Roman,serif" font-size="10.00">c34 :Cargo</text>
</a>
<polygon fill="none" stroke="black" points="91,-4 91,-24 176,-24 176,-4 91,-4"/>
<text text-anchor="start" x="96" y="-12" font-family="Times New Roman,serif" font-size="10.00">name = &quot;cabbage&quot;</text>
</g>
<!-- b32&#45;&#45;c34 -->
<g id="edge10" class="edge"><title>b32&#45;&#45;c34</title>
<path fill="none" stroke="black" d="M133,-82.1396C133,-70.759 133,-56.8929 133,-45.5569"/>
<text text-anchor="middle" x="137.226" y="-52.12" font-family="Times New Roman,serif" font-size="10.00">cargos</text>
<text text-anchor="middle" x="128.774" y="-70.5766" font-family="Times New Roman,serif" font-size="10.00">bank</text>
</g>
<!-- c35 -->
<g id="node5" class="node"><title>c35</title>
<a xlink:href="../test/org/sdmlib/models/patterns/example/ferrmansproblem/Cargo.java" xlink:title="&lt;TABLE&gt;">
<polygon fill="none" stroke="black" points="210,-24 210,-41 279,-41 279,-24 210,-24"/>
<text text-anchor="start" x="221.5" y="-30.5" font-family="Times New Roman,serif" font-size="10.00"> </text>
<text text-anchor="start" x="224.5" y="-30.5" font-family="Times New Roman,serif" font-size="10.00">c35 :Cargo</text>
</a>
<polygon fill="none" stroke="black" points="210,-4 210,-24 279,-24 279,-4 210,-4"/>
<text text-anchor="start" x="215" y="-12" font-family="Times New Roman,serif" font-size="10.00">name = &quot;wolf&quot;</text>
</g>
<!-- b32&#45;&#45;c35 -->
<g id="edge12" class="edge"><title>b32&#45;&#45;c35</title>
<path fill="none" stroke="black" d="M163.038,-82.3508C178.833,-70.9674 198.14,-57.0524 213.938,-45.6665"/>
<text text-anchor="middle" x="209.056" y="-51.8941" font-family="Times New Roman,serif" font-size="10.00">cargos</text>
<text text-anchor="middle" x="167.92" y="-71.1232" font-family="Times New Roman,serif" font-size="10.00">bank</text>
</g>
<!-- c37 -->
<g id="node7" class="node"><title>c37</title>
<a xlink:href="../test/org/sdmlib/models/patterns/example/ferrmansproblem/Cargo.java" xlink:title="&lt;TABLE&gt;">
<polygon fill="none" stroke="black" points="313,-24 313,-41 382,-41 382,-24 313,-24"/>
<text text-anchor="start" x="324.5" y="-30.5" font-family="Times New Roman,serif" font-size="10.00"> </text>
<text text-anchor="start" x="327.5" y="-30.5" font-family="Times New Roman,serif" font-size="10.00">c37 :Cargo</text>
</a>
<polygon fill="none" stroke="black" points="313,-4 313,-24 382,-24 382,-4 313,-4"/>
<text text-anchor="start" x="318" y="-12" font-family="Times New Roman,serif" font-size="10.00">name = &quot;goat&quot;</text>
</g>
<!-- b36&#45;&#45;c37 -->
<g id="edge14" class="edge"><title>b36&#45;&#45;c37</title>
<path fill="none" stroke="black" d="M305.576,-82.1396C313.684,-70.759 323.564,-56.8929 331.641,-45.5569"/>
<text text-anchor="middle" x="329.823" y="-52.8904" font-family="Times New Roman,serif" font-size="10.00">cargos</text>
<text text-anchor="middle" x="307.393" y="-69.8061" font-family="Times New Roman,serif" font-size="10.00">bank</text>
</g>
</g>
</svg>
