<?xml version="1.0" encoding="UTF-8" standalone="no"?>
<!DOCTYPE svg PUBLIC "-//W3C//DTD SVG 1.1//EN"
 "http://www.w3.org/Graphics/SVG/1.1/DTD/svg11.dtd">
<!-- Generated by graphviz version 2.28.0 (20110507.0327)
 -->
<!-- Title: ObjectDiagram Pages: 1 -->
<svg width="401pt" height="208pt"
 viewBox="0.00 0.00 401.00 208.00" xmlns="http://www.w3.org/2000/svg" xmlns:xlink="http://www.w3.org/1999/xlink">
<g id="graph1" class="graph" transform="scale(1 1) rotate(0) translate(4 204)">
<title>ObjectDiagram</title>
<polygon fill="white" stroke="white" points="-4,5 -4,-204 398,-204 398,5 -4,5"/>
<!-- r35 -->
<g id="node1" class="node"><title>r35</title>
<polygon fill="none" stroke="black" points="105,-173 105,-190 153,-190 153,-173 105,-173"/>
<text text-anchor="start" x="108.5" y="-179.5" font-family="Times New Roman,serif" font-size="10.00"> </text>
<text text-anchor="start" x="111.5" y="-179.5" font-family="Times New Roman,serif" font-size="10.00">r35 :River</text>
</g>
<!-- b169 -->
<g id="node2" class="node"><title>b169</title>
<polygon fill="none" stroke="black" points="97,-106 97,-123 161,-123 161,-106 97,-106"/>
<text text-anchor="start" x="105.5" y="-112.5" font-family="Times New Roman,serif" font-size="10.00"> </text>
<text text-anchor="start" x="108.5" y="-112.5" font-family="Times New Roman,serif" font-size="10.00">b169 :Bank</text>
<polygon fill="none" stroke="black" points="97,-86 97,-106 161,-106 161,-86 97,-86"/>
<text text-anchor="start" x="102.5" y="-94" font-family="Times New Roman,serif" font-size="10.00">name = &quot;left&quot;</text>
</g>
<!-- r35&#45;&#45;b169 -->
<g id="edge2" class="edge"><title>r35&#45;&#45;b169</title>
<path fill="none" stroke="black" d="M129,-163.981C129,-153.177 129,-139.1 129,-127.522"/>
<text text-anchor="middle" x="133.226" y="-134.085" font-family="Times New Roman,serif" font-size="10.00">banks</text>
<text text-anchor="middle" x="124.774" y="-152.418" font-family="Times New Roman,serif" font-size="10.00">river</text>
</g>
<!-- b170 -->
<g id="node3" class="node"><title>b170</title>
<polygon fill="none" stroke="black" points="8,-14 8,-31 61,-31 61,-14 8,-14"/>
<text text-anchor="start" x="11.5" y="-20.5" font-family="Times New Roman,serif" font-size="10.00"> </text>
<text text-anchor="start" x="14.5" y="-20.5" font-family="Times New Roman,serif" font-size="10.00">b170 :Boat</text>
</g>
<!-- r35&#45;&#45;b170 -->
<g id="edge6" class="edge"><title>r35&#45;&#45;b170</title>
<path fill="none" stroke="black" d="M110.158,-163.616C100.296,-153.827 88.5328,-140.986 80,-128 61.3528,-99.6202 46.9977,-62.4285 39.5847,-41.077"/>
<text text-anchor="middle" x="46.5954" y="-45.708" font-family="Times New Roman,serif" font-size="10.00">boat</text>
<text text-anchor="middle" x="100.769" y="-157.673" font-family="Times New Roman,serif" font-size="10.00">river</text>
</g>
<!-- b173 -->
<g id="node6" class="node"><title>b173</title>
<polygon fill="none" stroke="black" points="251,-106 251,-123 321,-123 321,-106 251,-106"/>
<text text-anchor="start" x="262.5" y="-112.5" font-family="Times New Roman,serif" font-size="10.00"> </text>
<text text-anchor="start" x="265.5" y="-112.5" font-family="Times New Roman,serif" font-size="10.00">b173 :Bank</text>
<polygon fill="none" stroke="black" points="251,-86 251,-106 321,-106 321,-86 251,-86"/>
<text text-anchor="start" x="256.5" y="-94" font-family="Times New Roman,serif" font-size="10.00">name = &quot;right&quot;</text>
</g>
<!-- r35&#45;&#45;b173 -->
<g id="edge4" class="edge"><title>r35&#45;&#45;b173</title>
<path fill="none" stroke="black" d="M161.15,-165.642C184.744,-154.371 217.042,-138.942 242.876,-126.601"/>
<text text-anchor="middle" x="236.52" y="-131.821" font-family="Times New Roman,serif" font-size="10.00">banks</text>
<text text-anchor="middle" x="167.506" y="-155.422" font-family="Times New Roman,serif" font-size="10.00">river</text>
</g>
<!-- b169&#45;&#45;b170 -->
<g id="edge8" class="edge"><title>b169&#45;&#45;b170</title>
<path fill="none" stroke="black" d="M103.041,-82.1396C87.6585,-69.1861 68.4524,-53.0125 54.2052,-41.0149"/>
<text text-anchor="middle" x="63.8599" y="-41.1201" font-family="Times New Roman,serif" font-size="10.00">boat</text>
<text text-anchor="middle" x="93.3861" y="-77.0345" font-family="Times New Roman,serif" font-size="10.00">bank</text>
</g>
<!-- c171 -->
<g id="node4" class="node"><title>c171</title>
<polygon fill="none" stroke="black" points="95,-24 95,-41 164,-41 164,-24 95,-24"/>
<text text-anchor="start" x="104.5" y="-30.5" font-family="Times New Roman,serif" font-size="10.00"> </text>
<text text-anchor="start" x="107.5" y="-30.5" font-family="Times New Roman,serif" font-size="10.00">c171 :Cargo</text>
<polygon fill="none" stroke="black" points="95,-4 95,-24 164,-24 164,-4 95,-4"/>
<text text-anchor="start" x="100.5" y="-12" font-family="Times New Roman,serif" font-size="10.00">name = &quot;wolf&quot;</text>
</g>
<!-- b169&#45;&#45;c171 -->
<g id="edge10" class="edge"><title>b169&#45;&#45;c171</title>
<path fill="none" stroke="black" d="M129,-82.1396C129,-70.759 129,-56.8929 129,-45.5569"/>
<text text-anchor="middle" x="133.226" y="-52.12" font-family="Times New Roman,serif" font-size="10.00">cargos</text>
<text text-anchor="middle" x="124.774" y="-70.5766" font-family="Times New Roman,serif" font-size="10.00">bank</text>
</g>
<!-- c172 -->
<g id="node5" class="node"><title>c172</title>
<polygon fill="none" stroke="black" points="198,-24 198,-41 267,-41 267,-24 198,-24"/>
<text text-anchor="start" x="207.5" y="-30.5" font-family="Times New Roman,serif" font-size="10.00"> </text>
<text text-anchor="start" x="210.5" y="-30.5" font-family="Times New Roman,serif" font-size="10.00">c172 :Cargo</text>
<polygon fill="none" stroke="black" points="198,-4 198,-24 267,-24 267,-4 198,-4"/>
<text text-anchor="start" x="203.5" y="-12" font-family="Times New Roman,serif" font-size="10.00">name = &quot;goat&quot;</text>
</g>
<!-- b169&#45;&#45;c172 -->
<g id="edge12" class="edge"><title>b169&#45;&#45;c172</title>
<path fill="none" stroke="black" d="M156.873,-82.3508C171.529,-70.9674 189.445,-57.0524 204.104,-45.6665"/>
<text text-anchor="middle" x="199.539" y="-52.0635" font-family="Times New Roman,serif" font-size="10.00">cargos</text>
<text text-anchor="middle" x="161.439" y="-70.9538" font-family="Times New Roman,serif" font-size="10.00">bank</text>
</g>
<!-- c174 -->
<g id="node7" class="node"><title>c174</title>
<polygon fill="none" stroke="black" points="301,-24 301,-41 386,-41 386,-24 301,-24"/>
<text text-anchor="start" x="318.5" y="-30.5" font-family="Times New Roman,serif" font-size="10.00"> </text>
<text text-anchor="start" x="321.5" y="-30.5" font-family="Times New Roman,serif" font-size="10.00">c174 :Cargo</text>
<polygon fill="none" stroke="black" points="301,-4 301,-24 386,-24 386,-4 301,-4"/>
<text text-anchor="start" x="306.5" y="-12" font-family="Times New Roman,serif" font-size="10.00">name = &quot;cabbage&quot;</text>
</g>
<!-- b173&#45;&#45;c174 -->
<g id="edge14" class="edge"><title>b173&#45;&#45;c174</title>
<path fill="none" stroke="black" d="M301.576,-82.1396C309.684,-70.759 319.564,-56.8929 327.641,-45.5569"/>
<text text-anchor="middle" x="325.823" y="-52.8904" font-family="Times New Roman,serif" font-size="10.00">cargos</text>
<text text-anchor="middle" x="303.393" y="-69.8061" font-family="Times New Roman,serif" font-size="10.00">bank</text>
</g>
</g>
</svg>
