<?xml version="1.0" encoding="UTF-8" standalone="no"?>
<!DOCTYPE svg PUBLIC "-//W3C//DTD SVG 1.1//EN"
 "http://www.w3.org/Graphics/SVG/1.1/DTD/svg11.dtd">
<!-- Generated by graphviz version 2.28.0 (20110507.0327)
 -->
<!-- Title: ObjectDiagram Pages: 1 -->
<svg width="282pt" height="290pt"
 viewBox="0.00 0.00 282.00 290.00" xmlns="http://www.w3.org/2000/svg" xmlns:xlink="http://www.w3.org/1999/xlink">
<g id="graph1" class="graph" transform="scale(1 1) rotate(0) translate(4 286)">
<title>ObjectDiagram</title>
<polygon fill="white" stroke="white" points="-4,5 -4,-286 279,-286 279,5 -4,5"/>
<!-- r43 -->
<g id="node1" class="node"><title>r43</title>
<polygon fill="none" stroke="black" points="106,-255 106,-272 154,-272 154,-255 106,-255"/>
<text text-anchor="start" x="109.5" y="-261.5" font-family="Times New Roman,serif" font-size="10.00"> </text>
<text text-anchor="start" x="112.5" y="-261.5" font-family="Times New Roman,serif" font-size="10.00">r43 :River</text>
</g>
<!-- b210 -->
<g id="node2" class="node"><title>b210</title>
<polygon fill="none" stroke="black" points="17,-188 17,-205 81,-205 81,-188 17,-188"/>
<text text-anchor="start" x="25.5" y="-194.5" font-family="Times New Roman,serif" font-size="10.00"> </text>
<text text-anchor="start" x="28.5" y="-194.5" font-family="Times New Roman,serif" font-size="10.00">b210 :Bank</text>
<polygon fill="none" stroke="black" points="17,-168 17,-188 81,-188 81,-168 17,-168"/>
<text text-anchor="start" x="22.5" y="-176" font-family="Times New Roman,serif" font-size="10.00">name = &quot;left&quot;</text>
</g>
<!-- r43&#45;&#45;b210 -->
<g id="edge2" class="edge"><title>r43&#45;&#45;b210</title>
<path fill="none" stroke="black" d="M111.62,-245.981C99.9507,-235.177 84.7475,-221.1 72.2436,-209.522"/>
<text text-anchor="middle" x="81.765" y="-210.078" font-family="Times New Roman,serif" font-size="10.00">banks</text>
<text text-anchor="middle" x="102.098" y="-240.425" font-family="Times New Roman,serif" font-size="10.00">river</text>
</g>
<!-- b212 -->
<g id="node4" class="node"><title>b212</title>
<polygon fill="none" stroke="black" points="166,-188 166,-205 236,-205 236,-188 166,-188"/>
<text text-anchor="start" x="177.5" y="-194.5" font-family="Times New Roman,serif" font-size="10.00"> </text>
<text text-anchor="start" x="180.5" y="-194.5" font-family="Times New Roman,serif" font-size="10.00">b212 :Bank</text>
<polygon fill="none" stroke="black" points="166,-168 166,-188 236,-188 236,-168 166,-168"/>
<text text-anchor="start" x="171.5" y="-176" font-family="Times New Roman,serif" font-size="10.00">name = &quot;right&quot;</text>
</g>
<!-- r43&#45;&#45;b212 -->
<g id="edge4" class="edge"><title>r43&#45;&#45;b212</title>
<path fill="none" stroke="black" d="M146.111,-245.981C156.34,-235.177 169.666,-221.1 180.626,-209.522"/>
<text text-anchor="middle" x="177.464" y="-216.509" font-family="Times New Roman,serif" font-size="10.00">banks</text>
<text text-anchor="middle" x="149.273" y="-233.994" font-family="Times New Roman,serif" font-size="10.00">river</text>
</g>
<!-- b213 -->
<g id="node5" class="node"><title>b213</title>
<polygon fill="none" stroke="black" points="111,-96 111,-113 164,-113 164,-96 111,-96"/>
<text text-anchor="start" x="114.5" y="-102.5" font-family="Times New Roman,serif" font-size="10.00"> </text>
<text text-anchor="start" x="117.5" y="-102.5" font-family="Times New Roman,serif" font-size="10.00">b213 :Boat</text>
</g>
<!-- r43&#45;&#45;b213 -->
<g id="edge6" class="edge"><title>r43&#45;&#45;b213</title>
<path fill="none" stroke="black" d="M130.762,-245.899C132.109,-215.699 134.893,-153.265 136.238,-123.08"/>
<text text-anchor="middle" x="140.057" y="-129.822" font-family="Times New Roman,serif" font-size="10.00">boat</text>
<text text-anchor="middle" x="126.944" y="-234.157" font-family="Times New Roman,serif" font-size="10.00">river</text>
</g>
<!-- c211 -->
<g id="node3" class="node"><title>c211</title>
<polygon fill="none" stroke="black" points="8,-106 8,-123 77,-123 77,-106 8,-106"/>
<text text-anchor="start" x="17.5" y="-112.5" font-family="Times New Roman,serif" font-size="10.00"> </text>
<text text-anchor="start" x="20.5" y="-112.5" font-family="Times New Roman,serif" font-size="10.00">c211 :Cargo</text>
<polygon fill="none" stroke="black" points="8,-86 8,-106 77,-106 77,-86 8,-86"/>
<text text-anchor="start" x="13.5" y="-94" font-family="Times New Roman,serif" font-size="10.00">name = &quot;goat&quot;</text>
</g>
<!-- b210&#45;&#45;c211 -->
<g id="edge8" class="edge"><title>b210&#45;&#45;c211</title>
<path fill="none" stroke="black" d="M47.0872,-164.14C46.0914,-152.759 44.8781,-138.893 43.8862,-127.557"/>
<text text-anchor="middle" x="48.8863" y="-133.717" font-family="Times New Roman,serif" font-size="10.00">cargos</text>
<text text-anchor="middle" x="42.0871" y="-152.979" font-family="Times New Roman,serif" font-size="10.00">bank</text>
</g>
<!-- b212&#45;&#45;b213 -->
<g id="edge10" class="edge"><title>b212&#45;&#45;b213</title>
<path fill="none" stroke="black" d="M183.512,-164.14C173.149,-151.186 160.21,-135.013 150.612,-123.015"/>
<text text-anchor="middle" x="159.574" y="-124.952" font-family="Times New Roman,serif" font-size="10.00">boat</text>
<text text-anchor="middle" x="174.55" y="-157.203" font-family="Times New Roman,serif" font-size="10.00">bank</text>
</g>
<!-- c215 -->
<g id="node7" class="node"><title>c215</title>
<polygon fill="none" stroke="black" points="198,-106 198,-123 267,-123 267,-106 198,-106"/>
<text text-anchor="start" x="207.5" y="-112.5" font-family="Times New Roman,serif" font-size="10.00"> </text>
<text text-anchor="start" x="210.5" y="-112.5" font-family="Times New Roman,serif" font-size="10.00">c215 :Cargo</text>
<polygon fill="none" stroke="black" points="198,-86 198,-106 267,-106 267,-86 198,-86"/>
<text text-anchor="start" x="203.5" y="-94" font-family="Times New Roman,serif" font-size="10.00">name = &quot;wolf&quot;</text>
</g>
<!-- b212&#45;&#45;c215 -->
<g id="edge12" class="edge"><title>b212&#45;&#45;c215</title>
<path fill="none" stroke="black" d="M209.471,-164.14C213.881,-152.759 219.254,-138.893 223.647,-127.557"/>
<text text-anchor="middle" x="224.313" y="-135.035" font-family="Times New Roman,serif" font-size="10.00">cargos</text>
<text text-anchor="middle" x="208.805" y="-151.662" font-family="Times New Roman,serif" font-size="10.00">bank</text>
</g>
<!-- c214 -->
<g id="node6" class="node"><title>c214</title>
<polygon fill="none" stroke="black" points="95,-24 95,-41 180,-41 180,-24 95,-24"/>
<text text-anchor="start" x="112.5" y="-30.5" font-family="Times New Roman,serif" font-size="10.00"> </text>
<text text-anchor="start" x="115.5" y="-30.5" font-family="Times New Roman,serif" font-size="10.00">c214 :Cargo</text>
<polygon fill="none" stroke="black" points="95,-4 95,-24 180,-24 180,-4 95,-4"/>
<text text-anchor="start" x="100.5" y="-12" font-family="Times New Roman,serif" font-size="10.00">name = &quot;cabbage&quot;</text>
</g>
<!-- b213&#45;&#45;c214 -->
<g id="edge14" class="edge"><title>b213&#45;&#45;c214</title>
<path fill="none" stroke="black" d="M137,-86.6412C137,-74.6011 137,-58.4804 137,-45.608"/>
<text text-anchor="middle" x="141.226" y="-52.171" font-family="Times New Roman,serif" font-size="10.00">cargo</text>
<text text-anchor="middle" x="132.774" y="-75.0781" font-family="Times New Roman,serif" font-size="10.00">boat</text>
</g>
</g>
</svg>
