<?xml version="1.0" encoding="UTF-8" standalone="no"?>
<!DOCTYPE svg PUBLIC "-//W3C//DTD SVG 1.1//EN"
 "http://www.w3.org/Graphics/SVG/1.1/DTD/svg11.dtd">
<!-- Generated by graphviz version 2.28.0 (20110507.0327)
 -->
<!-- Title: ObjectDiagram Pages: 1 -->
<svg width="304pt" height="290pt"
 viewBox="0.00 0.00 304.00 290.00" xmlns="http://www.w3.org/2000/svg" xmlns:xlink="http://www.w3.org/1999/xlink">
<g id="graph1" class="graph" transform="scale(1 1) rotate(0) translate(4 286)">
<title>ObjectDiagram</title>
<polygon fill="white" stroke="white" points="-4,5 -4,-286 301,-286 301,5 -4,5"/>
<!-- r45 -->
<g id="node1" class="node"><title>r45</title>
<a xlink:href="../test/org/sdmlib/models/patterns/example/ferrmansproblem/River.java" xlink:title="&lt;TABLE&gt;">
<polygon fill="none" stroke="black" points="102,-255 102,-272 150,-272 150,-255 102,-255"/>
<text text-anchor="start" x="105.5" y="-261.5" font-family="Times New Roman,serif" font-size="10.00"> </text>
<text text-anchor="start" x="108.5" y="-261.5" font-family="Times New Roman,serif" font-size="10.00">r45 :River</text>
</a>
</g>
<!-- b46 -->
<g id="node2" class="node"><title>b46</title>
<a xlink:href="../test/org/sdmlib/models/patterns/example/ferrmansproblem/Bank.java" xlink:title="&lt;TABLE&gt;">
<polygon fill="none" stroke="black" points="94,-188 94,-205 158,-205 158,-188 94,-188"/>
<text text-anchor="start" x="104.5" y="-194.5" font-family="Times New Roman,serif" font-size="10.00"> </text>
<text text-anchor="start" x="107.5" y="-194.5" font-family="Times New Roman,serif" font-size="10.00">b46 :Bank</text>
</a>
<polygon fill="none" stroke="black" points="94,-168 94,-188 158,-188 158,-168 94,-168"/>
<text text-anchor="start" x="99" y="-176" font-family="Times New Roman,serif" font-size="10.00">name = &quot;left&quot;</text>
</g>
<!-- r45&#45;&#45;b46 -->
<g id="edge2" class="edge"><title>r45&#45;&#45;b46</title>
<path fill="none" stroke="black" d="M126,-245.981C126,-235.177 126,-221.1 126,-209.522"/>
<text text-anchor="middle" x="130.226" y="-216.085" font-family="Times New Roman,serif" font-size="10.00">banks</text>
<text text-anchor="middle" x="121.774" y="-234.418" font-family="Times New Roman,serif" font-size="10.00">river</text>
</g>
<!-- b47 -->
<g id="node3" class="node"><title>b47</title>
<a xlink:href="../test/org/sdmlib/models/patterns/example/ferrmansproblem/Boat.java" xlink:title="&lt;TABLE&gt;">
<polygon fill="none" stroke="black" points="18,-96 18,-113 66,-113 66,-96 18,-96"/>
<text text-anchor="start" x="21.5" y="-102.5" font-family="Times New Roman,serif" font-size="10.00"> </text>
<text text-anchor="start" x="24.5" y="-102.5" font-family="Times New Roman,serif" font-size="10.00">b47 :Boat</text>
</a>
</g>
<!-- r45&#45;&#45;b47 -->
<g id="edge6" class="edge"><title>r45&#45;&#45;b47</title>
<path fill="none" stroke="black" d="M106.675,-245.918C96.672,-236.217 84.9279,-223.364 77,-210 60.2823,-181.819 50.2294,-144.559 45.4322,-123.141"/>
<text text-anchor="middle" x="51.6006" y="-128.512" font-family="Times New Roman,serif" font-size="10.00">boat</text>
<text text-anchor="middle" x="97.2529" y="-240.068" font-family="Times New Roman,serif" font-size="10.00">river</text>
</g>
<!-- b50 -->
<g id="node6" class="node"><title>b50</title>
<a xlink:href="../test/org/sdmlib/models/patterns/example/ferrmansproblem/Bank.java" xlink:title="&lt;TABLE&gt;">
<polygon fill="none" stroke="black" points="213,-188 213,-205 283,-205 283,-188 213,-188"/>
<text text-anchor="start" x="226.5" y="-194.5" font-family="Times New Roman,serif" font-size="10.00"> </text>
<text text-anchor="start" x="229.5" y="-194.5" font-family="Times New Roman,serif" font-size="10.00">b50 :Bank</text>
</a>
<polygon fill="none" stroke="black" points="213,-168 213,-188 283,-188 283,-168 213,-168"/>
<text text-anchor="start" x="218" y="-176" font-family="Times New Roman,serif" font-size="10.00">name = &quot;right&quot;</text>
</g>
<!-- r45&#45;&#45;b50 -->
<g id="edge4" class="edge"><title>r45&#45;&#45;b50</title>
<path fill="none" stroke="black" d="M153.684,-245.981C171.259,-235.177 194.158,-221.1 212.991,-209.522"/>
<text text-anchor="middle" x="207.484" y="-215.368" font-family="Times New Roman,serif" font-size="10.00">banks</text>
<text text-anchor="middle" x="159.191" y="-235.135" font-family="Times New Roman,serif" font-size="10.00">river</text>
</g>
<!-- b46&#45;&#45;b47 -->
<g id="edge8" class="edge"><title>b46&#45;&#45;b47</title>
<path fill="none" stroke="black" d="M103.047,-164.14C89.4454,-151.186 72.4631,-135.013 59.8656,-123.015"/>
<text text-anchor="middle" x="69.3432" y="-123.705" font-family="Times New Roman,serif" font-size="10.00">boat</text>
<text text-anchor="middle" x="93.5691" y="-158.45" font-family="Times New Roman,serif" font-size="10.00">bank</text>
</g>
<!-- c49 -->
<g id="node5" class="node"><title>c49</title>
<a xlink:href="../test/org/sdmlib/models/patterns/example/ferrmansproblem/Cargo.java" xlink:title="&lt;TABLE&gt;">
<polygon fill="none" stroke="black" points="101,-106 101,-123 186,-123 186,-106 101,-106"/>
<text text-anchor="start" x="120.5" y="-112.5" font-family="Times New Roman,serif" font-size="10.00"> </text>
<text text-anchor="start" x="123.5" y="-112.5" font-family="Times New Roman,serif" font-size="10.00">c49 :Cargo</text>
</a>
<polygon fill="none" stroke="black" points="101,-86 101,-106 186,-106 186,-86 101,-86"/>
<text text-anchor="start" x="106" y="-94" font-family="Times New Roman,serif" font-size="10.00">name = &quot;cabbage&quot;</text>
</g>
<!-- b46&#45;&#45;c49 -->
<g id="edge10" class="edge"><title>b46&#45;&#45;c49</title>
<path fill="none" stroke="black" d="M130.645,-164.14C133.064,-152.759 136.01,-138.893 138.419,-127.557"/>
<text text-anchor="middle" x="140.669" y="-134.801" font-family="Times New Roman,serif" font-size="10.00">cargos</text>
<text text-anchor="middle" x="128.395" y="-151.896" font-family="Times New Roman,serif" font-size="10.00">bank</text>
</g>
<!-- c48 -->
<g id="node4" class="node"><title>c48</title>
<a xlink:href="../test/org/sdmlib/models/patterns/example/ferrmansproblem/Cargo.java" xlink:title="&lt;TABLE&gt;">
<polygon fill="none" stroke="black" points="8,-24 8,-41 77,-41 77,-24 8,-24"/>
<text text-anchor="start" x="19.5" y="-30.5" font-family="Times New Roman,serif" font-size="10.00"> </text>
<text text-anchor="start" x="22.5" y="-30.5" font-family="Times New Roman,serif" font-size="10.00">c48 :Cargo</text>
</a>
<polygon fill="none" stroke="black" points="8,-4 8,-24 77,-24 77,-4 8,-4"/>
<text text-anchor="start" x="13" y="-12" font-family="Times New Roman,serif" font-size="10.00">name = &quot;wolf&quot;</text>
</g>
<!-- b47&#45;&#45;c48 -->
<g id="edge12" class="edge"><title>b47&#45;&#45;c48</title>
<path fill="none" stroke="black" d="M42,-86.6412C42,-74.6011 42,-58.4804 42,-45.608"/>
<text text-anchor="middle" x="46.2262" y="-52.171" font-family="Times New Roman,serif" font-size="10.00">cargo</text>
<text text-anchor="middle" x="37.7738" y="-75.0781" font-family="Times New Roman,serif" font-size="10.00">boat</text>
</g>
<!-- c51 -->
<g id="node7" class="node"><title>c51</title>
<a xlink:href="../test/org/sdmlib/models/patterns/example/ferrmansproblem/Cargo.java" xlink:title="&lt;TABLE&gt;">
<polygon fill="none" stroke="black" points="220,-106 220,-123 289,-123 289,-106 220,-106"/>
<text text-anchor="start" x="231.5" y="-112.5" font-family="Times New Roman,serif" font-size="10.00"> </text>
<text text-anchor="start" x="234.5" y="-112.5" font-family="Times New Roman,serif" font-size="10.00">c51 :Cargo</text>
</a>
<polygon fill="none" stroke="black" points="220,-86 220,-106 289,-106 289,-86 220,-86"/>
<text text-anchor="start" x="225" y="-94" font-family="Times New Roman,serif" font-size="10.00">name = &quot;goat&quot;</text>
</g>
<!-- b50&#45;&#45;c51 -->
<g id="edge14" class="edge"><title>b50&#45;&#45;c51</title>
<path fill="none" stroke="black" d="M249.64,-164.14C250.493,-152.759 251.533,-138.893 252.383,-127.557"/>
<text text-anchor="middle" x="255.92" y="-134.411" font-family="Times New Roman,serif" font-size="10.00">cargos</text>
<text text-anchor="middle" x="246.103" y="-152.286" font-family="Times New Roman,serif" font-size="10.00">bank</text>
</g>
</g>
</svg>
