<?xml version="1.0" encoding="UTF-8" standalone="no"?>
<!DOCTYPE svg PUBLIC "-//W3C//DTD SVG 1.1//EN"
 "http://www.w3.org/Graphics/SVG/1.1/DTD/svg11.dtd">
<!-- Generated by graphviz version 2.28.0 (20110507.0327)
 -->
<!-- Title: ObjectDiagram Pages: 1 -->
<svg width="418pt" height="208pt"
 viewBox="0.00 0.00 418.00 208.00" xmlns="http://www.w3.org/2000/svg" xmlns:xlink="http://www.w3.org/1999/xlink">
<g id="graph1" class="graph" transform="scale(1 1) rotate(0) translate(4 204)">
<title>ObjectDiagram</title>
<polygon fill="white" stroke="white" points="-4,5 -4,-204 415,-204 415,5 -4,5"/>
<!-- r59 -->
<g id="node1" class="node"><title>r59</title>
<a xlink:href="../../SDMLib/src/org/sdmlib/models/patterns/example/ferrmansproblem/River.java" xlink:title="&lt;TABLE&gt;">
<polygon fill="none" stroke="black" points="135,-173 135,-190 187,-190 187,-173 135,-173"/>
<text text-anchor="start" x="138.5" y="-179.5" font-family="Arial" font-size="10.00"> </text>
<text text-anchor="start" x="142.5" y="-179.5" font-family="Arial" font-size="10.00">r59 :River</text>
</a>
</g>
<!-- b60 -->
<g id="node2" class="node"><title>b60</title>
<a xlink:href="../../SDMLib/src/org/sdmlib/models/patterns/example/ferrmansproblem/Bank.java" xlink:title="&lt;TABLE&gt;">
<polygon fill="none" stroke="black" points="38,-106 38,-123 106,-123 106,-106 38,-106"/>
<text text-anchor="start" x="47.5" y="-112.5" font-family="Arial" font-size="10.00"> </text>
<text text-anchor="start" x="51.5" y="-112.5" font-family="Arial" font-size="10.00">b60 :Bank</text>
</a>
<polygon fill="none" stroke="black" points="38,-86 38,-106 106,-106 106,-86 38,-86"/>
<text text-anchor="start" x="43" y="-94" font-family="Arial" font-size="10.00">name = &quot;left&quot;</text>
</g>
<!-- r59&#45;&#45;b60 -->
<g id="edge2" class="edge"><title>r59&#45;&#45;b60</title>
<path fill="none" stroke="black" d="M140.805,-163.981C127.983,-153.177 111.278,-139.1 97.5392,-127.522"/>
<text text-anchor="middle" x="107.193" y="-127.63" font-family="Arial" font-size="10.00">banks</text>
<text text-anchor="middle" x="131.151" y="-158.873" font-family="Arial" font-size="10.00">river</text>
</g>
<!-- b62 -->
<g id="node4" class="node"><title>b62</title>
<a xlink:href="../../SDMLib/src/org/sdmlib/models/patterns/example/ferrmansproblem/Bank.java" xlink:title="&lt;TABLE&gt;">
<polygon fill="none" stroke="black" points="209,-106 209,-123 283,-123 283,-106 209,-106"/>
<text text-anchor="start" x="221.5" y="-112.5" font-family="Arial" font-size="10.00"> </text>
<text text-anchor="start" x="225.5" y="-112.5" font-family="Arial" font-size="10.00">b62 :Bank</text>
</a>
<polygon fill="none" stroke="black" points="209,-86 209,-106 283,-106 283,-86 209,-86"/>
<text text-anchor="start" x="214" y="-94" font-family="Arial" font-size="10.00">name = &quot;right&quot;</text>
</g>
<!-- r59&#45;&#45;b62 -->
<g id="edge4" class="edge"><title>r59&#45;&#45;b62</title>
<path fill="none" stroke="black" d="M180.288,-163.981C192.533,-153.177 208.487,-139.1 221.609,-127.522"/>
<text text-anchor="middle" x="217.609" y="-134.187" font-family="Arial" font-size="10.00">banks</text>
<text text-anchor="middle" x="184.288" y="-152.316" font-family="Arial" font-size="10.00">river</text>
</g>
<!-- b63 -->
<g id="node5" class="node"><title>b63</title>
<a xlink:href="../../SDMLib/src/org/sdmlib/models/patterns/example/ferrmansproblem/Boat.java" xlink:title="&lt;TABLE&gt;">
<polygon fill="none" stroke="black" points="134,-14 134,-31 188,-31 188,-14 134,-14"/>
<text text-anchor="start" x="137.5" y="-20.5" font-family="Arial" font-size="10.00"> </text>
<text text-anchor="start" x="141.5" y="-20.5" font-family="Arial" font-size="10.00">b63 :Boat</text>
</a>
</g>
<!-- r59&#45;&#45;b63 -->
<g id="edge6" class="edge"><title>r59&#45;&#45;b63</title>
<path fill="none" stroke="black" d="M161,-163.899C161,-133.699 161,-71.2648 161,-41.0795"/>
<text text-anchor="middle" x="165.226" y="-47.6426" font-family="Arial" font-size="10.00">boat</text>
<text text-anchor="middle" x="156.774" y="-152.336" font-family="Arial" font-size="10.00">river</text>
</g>
<!-- c61 -->
<g id="node3" class="node"><title>c61</title>
<a xlink:href="../../SDMLib/src/org/sdmlib/models/patterns/example/ferrmansproblem/Cargo.java" xlink:title="&lt;TABLE&gt;">
<polygon fill="none" stroke="black" points="8,-24 8,-41 100,-41 100,-24 8,-24"/>
<text text-anchor="start" x="28" y="-30.5" font-family="Arial" font-size="10.00"> </text>
<text text-anchor="start" x="32" y="-30.5" font-family="Arial" font-size="10.00">c61 :Cargo</text>
</a>
<polygon fill="none" stroke="black" points="8,-4 8,-24 100,-24 100,-4 8,-4"/>
<text text-anchor="start" x="13" y="-12" font-family="Arial" font-size="10.00">name = &quot;cabbage&quot;</text>
</g>
<!-- b60&#45;&#45;c61 -->
<g id="edge8" class="edge"><title>b60&#45;&#45;c61</title>
<path fill="none" stroke="black" d="M67.0814,-82.1396C64.5208,-70.759 61.4009,-56.8929 58.8503,-45.5569"/>
<text text-anchor="middle" x="64.9629" y="-50.9713" font-family="Arial" font-size="10.00">cargos</text>
<text text-anchor="middle" x="60.9689" y="-71.7253" font-family="Arial" font-size="10.00">bank</text>
</g>
<!-- b62&#45;&#45;b63 -->
<g id="edge10" class="edge"><title>b62&#45;&#45;b63</title>
<path fill="none" stroke="black" d="M222.773,-82.1396C209.01,-69.1861 191.826,-53.0125 179.078,-41.0149"/>
<text text-anchor="middle" x="188.575" y="-41.6489" font-family="Arial" font-size="10.00">boat</text>
<text text-anchor="middle" x="213.277" y="-76.5056" font-family="Arial" font-size="10.00">bank</text>
</g>
<!-- c64 -->
<g id="node6" class="node"><title>c64</title>
<a xlink:href="../../SDMLib/src/org/sdmlib/models/patterns/example/ferrmansproblem/Cargo.java" xlink:title="&lt;TABLE&gt;">
<polygon fill="none" stroke="black" points="222,-24 222,-41 296,-41 296,-24 222,-24"/>
<text text-anchor="start" x="233" y="-30.5" font-family="Arial" font-size="10.00"> </text>
<text text-anchor="start" x="237" y="-30.5" font-family="Arial" font-size="10.00">c64 :Cargo</text>
</a>
<polygon fill="none" stroke="black" points="222,-4 222,-24 296,-24 296,-4 222,-4"/>
<text text-anchor="start" x="227" y="-12" font-family="Arial" font-size="10.00">name = &quot;goat&quot;</text>
</g>
<!-- b62&#45;&#45;c64 -->
<g id="edge12" class="edge"><title>b62&#45;&#45;c64</title>
<path fill="none" stroke="black" d="M249.552,-82.1396C251.402,-70.759 253.655,-56.8929 255.497,-45.5569"/>
<text text-anchor="middle" x="258.215" y="-52.6805" font-family="Arial" font-size="10.00">cargos</text>
<text text-anchor="middle" x="246.835" y="-70.016" font-family="Arial" font-size="10.00">bank</text>
</g>
<!-- c65 -->
<g id="node7" class="node"><title>c65</title>
<a xlink:href="../../SDMLib/src/org/sdmlib/models/patterns/example/ferrmansproblem/Cargo.java" xlink:title="&lt;TABLE&gt;">
<polygon fill="none" stroke="black" points="330,-24 330,-41 402,-41 402,-24 330,-24"/>
<text text-anchor="start" x="340" y="-30.5" font-family="Arial" font-size="10.00"> </text>
<text text-anchor="start" x="344" y="-30.5" font-family="Arial" font-size="10.00">c65 :Cargo</text>
</a>
<polygon fill="none" stroke="black" points="330,-4 330,-24 402,-24 402,-4 330,-4"/>
<text text-anchor="start" x="335" y="-12" font-family="Arial" font-size="10.00">name = &quot;wolf&quot;</text>
</g>
<!-- b62&#45;&#45;c65 -->
<g id="edge14" class="edge"><title>b62&#45;&#45;c65</title>
<path fill="none" stroke="black" d="M278.474,-82.3508C295.549,-70.9674 316.421,-57.0524 333.5,-45.6665"/>
<text text-anchor="middle" x="328.304" y="-51.7101" font-family="Arial" font-size="10.00">cargos</text>
<text text-anchor="middle" x="283.67" y="-71.3072" font-family="Arial" font-size="10.00">bank</text>
</g>
</g>
</svg>
