<?xml version="1.0" encoding="UTF-8" standalone="no"?>
<!DOCTYPE svg PUBLIC "-//W3C//DTD SVG 1.1//EN"
 "http://www.w3.org/Graphics/SVG/1.1/DTD/svg11.dtd">
<!-- Generated by graphviz version 2.28.0 (20110507.0327)
 -->
<!-- Title: ObjectDiagram Pages: 1 -->
<svg width="401pt" height="208pt"
 viewBox="0.00 0.00 401.00 208.00" xmlns="http://www.w3.org/2000/svg" xmlns:xlink="http://www.w3.org/1999/xlink">
<g id="graph1" class="graph" transform="scale(1 1) rotate(0) translate(4 204)">
<title>ObjectDiagram</title>
<polygon fill="white" stroke="white" points="-4,5 -4,-204 398,-204 398,5 -4,5"/>
<!-- r56 -->
<g id="node1" class="node"><title>r56</title>
<polygon fill="none" stroke="black" points="129,-173 129,-190 177,-190 177,-173 129,-173"/>
<text text-anchor="start" x="132.5" y="-179.5" font-family="Times New Roman,serif" font-size="10.00"> </text>
<text text-anchor="start" x="135.5" y="-179.5" font-family="Times New Roman,serif" font-size="10.00">r56 :River</text>
</g>
<!-- b138 -->
<g id="node2" class="node"><title>b138</title>
<polygon fill="none" stroke="black" points="35,-106 35,-123 99,-123 99,-106 35,-106"/>
<text text-anchor="start" x="43.5" y="-112.5" font-family="Times New Roman,serif" font-size="10.00"> </text>
<text text-anchor="start" x="46.5" y="-112.5" font-family="Times New Roman,serif" font-size="10.00">b138 :Bank</text>
<polygon fill="none" stroke="black" points="35,-86 35,-106 99,-106 99,-86 35,-86"/>
<text text-anchor="start" x="40.5" y="-94" font-family="Times New Roman,serif" font-size="10.00">name = &quot;left&quot;</text>
</g>
<!-- r56&#45;&#45;b138 -->
<g id="edge2" class="edge"><title>r56&#45;&#45;b138</title>
<path fill="none" stroke="black" d="M133.485,-163.981C121.096,-153.177 104.954,-139.1 91.6783,-127.522"/>
<text text-anchor="middle" x="101.287" y="-127.794" font-family="Times New Roman,serif" font-size="10.00">banks</text>
<text text-anchor="middle" x="123.877" y="-158.71" font-family="Times New Roman,serif" font-size="10.00">river</text>
</g>
<!-- b140 -->
<g id="node4" class="node"><title>b140</title>
<polygon fill="none" stroke="black" points="201,-106 201,-123 271,-123 271,-106 201,-106"/>
<text text-anchor="start" x="212.5" y="-112.5" font-family="Times New Roman,serif" font-size="10.00"> </text>
<text text-anchor="start" x="215.5" y="-112.5" font-family="Times New Roman,serif" font-size="10.00">b140 :Bank</text>
<polygon fill="none" stroke="black" points="201,-86 201,-106 271,-106 271,-86 201,-86"/>
<text text-anchor="start" x="206.5" y="-94" font-family="Times New Roman,serif" font-size="10.00">name = &quot;right&quot;</text>
</g>
<!-- r56&#45;&#45;b140 -->
<g id="edge4" class="edge"><title>r56&#45;&#45;b140</title>
<path fill="none" stroke="black" d="M171.834,-163.981C183.791,-153.177 199.37,-139.1 212.183,-127.522"/>
<text text-anchor="middle" x="208.292" y="-134.234" font-family="Times New Roman,serif" font-size="10.00">banks</text>
<text text-anchor="middle" x="175.725" y="-152.269" font-family="Times New Roman,serif" font-size="10.00">river</text>
</g>
<!-- b141 -->
<g id="node5" class="node"><title>b141</title>
<polygon fill="none" stroke="black" points="127,-14 127,-31 180,-31 180,-14 127,-14"/>
<text text-anchor="start" x="130.5" y="-20.5" font-family="Times New Roman,serif" font-size="10.00"> </text>
<text text-anchor="start" x="133.5" y="-20.5" font-family="Times New Roman,serif" font-size="10.00">b141 :Boat</text>
</g>
<!-- r56&#45;&#45;b141 -->
<g id="edge6" class="edge"><title>r56&#45;&#45;b141</title>
<path fill="none" stroke="black" d="M153,-163.899C153,-133.699 153,-71.2648 153,-41.0795"/>
<text text-anchor="middle" x="157.226" y="-47.6426" font-family="Times New Roman,serif" font-size="10.00">boat</text>
<text text-anchor="middle" x="148.774" y="-152.336" font-family="Times New Roman,serif" font-size="10.00">river</text>
</g>
<!-- c139 -->
<g id="node3" class="node"><title>c139</title>
<polygon fill="none" stroke="black" points="8,-24 8,-41 93,-41 93,-24 8,-24"/>
<text text-anchor="start" x="25.5" y="-30.5" font-family="Times New Roman,serif" font-size="10.00"> </text>
<text text-anchor="start" x="28.5" y="-30.5" font-family="Times New Roman,serif" font-size="10.00">c139 :Cargo</text>
<polygon fill="none" stroke="black" points="8,-4 8,-24 93,-24 93,-4 8,-4"/>
<text text-anchor="start" x="13.5" y="-12" font-family="Times New Roman,serif" font-size="10.00">name = &quot;cabbage&quot;</text>
</g>
<!-- b138&#45;&#45;c139 -->
<g id="edge8" class="edge"><title>b138&#45;&#45;c139</title>
<path fill="none" stroke="black" d="M62.3547,-82.1396C59.9363,-70.759 56.9897,-56.8929 54.5808,-45.5569"/>
<text text-anchor="middle" x="60.5986" y="-51.0436" font-family="Times New Roman,serif" font-size="10.00">cargos</text>
<text text-anchor="middle" x="56.337" y="-71.653" font-family="Times New Roman,serif" font-size="10.00">bank</text>
</g>
<!-- b140&#45;&#45;b141 -->
<g id="edge10" class="edge"><title>b140&#45;&#45;b141</title>
<path fill="none" stroke="black" d="M213.32,-82.1396C199.881,-69.1861 183.1,-53.0125 170.653,-41.0149"/>
<text text-anchor="middle" x="180.111" y="-41.7616" font-family="Times New Roman,serif" font-size="10.00">boat</text>
<text text-anchor="middle" x="203.862" y="-76.3929" font-family="Times New Roman,serif" font-size="10.00">bank</text>
</g>
<!-- c142 -->
<g id="node6" class="node"><title>c142</title>
<polygon fill="none" stroke="black" points="214,-24 214,-41 283,-41 283,-24 214,-24"/>
<text text-anchor="start" x="223.5" y="-30.5" font-family="Times New Roman,serif" font-size="10.00"> </text>
<text text-anchor="start" x="226.5" y="-30.5" font-family="Times New Roman,serif" font-size="10.00">c142 :Cargo</text>
<polygon fill="none" stroke="black" points="214,-4 214,-24 283,-24 283,-4 214,-4"/>
<text text-anchor="start" x="219.5" y="-12" font-family="Times New Roman,serif" font-size="10.00">name = &quot;goat&quot;</text>
</g>
<!-- b140&#45;&#45;c142 -->
<g id="edge12" class="edge"><title>b140&#45;&#45;c142</title>
<path fill="none" stroke="black" d="M239.279,-82.1396C240.986,-70.759 243.066,-56.8929 244.766,-45.5569"/>
<text text-anchor="middle" x="247.601" y="-52.6467" font-family="Times New Roman,serif" font-size="10.00">cargos</text>
<text text-anchor="middle" x="236.444" y="-70.0499" font-family="Times New Roman,serif" font-size="10.00">bank</text>
</g>
<!-- c143 -->
<g id="node7" class="node"><title>c143</title>
<polygon fill="none" stroke="black" points="317,-24 317,-41 386,-41 386,-24 317,-24"/>
<text text-anchor="start" x="326.5" y="-30.5" font-family="Times New Roman,serif" font-size="10.00"> </text>
<text text-anchor="start" x="329.5" y="-30.5" font-family="Times New Roman,serif" font-size="10.00">c143 :Cargo</text>
<polygon fill="none" stroke="black" points="317,-4 317,-24 386,-24 386,-4 317,-4"/>
<text text-anchor="start" x="322.5" y="-12" font-family="Times New Roman,serif" font-size="10.00">name = &quot;wolf&quot;</text>
</g>
<!-- b140&#45;&#45;c143 -->
<g id="edge14" class="edge"><title>b140&#45;&#45;c143</title>
<path fill="none" stroke="black" d="M267.121,-82.3508C283.484,-70.9674 303.487,-57.0524 319.854,-45.6665"/>
<text text-anchor="middle" x="314.828" y="-51.8114" font-family="Times New Roman,serif" font-size="10.00">cargos</text>
<text text-anchor="middle" x="272.147" y="-71.206" font-family="Times New Roman,serif" font-size="10.00">bank</text>
</g>
</g>
</svg>
