<?xml version="1.0" encoding="UTF-8" standalone="no"?>
<!DOCTYPE svg PUBLIC "-//W3C//DTD SVG 1.1//EN"
 "http://www.w3.org/Graphics/SVG/1.1/DTD/svg11.dtd">
<!-- Generated by graphviz version 2.28.0 (20110507.0327)
 -->
<!-- Title: ObjectDiagram Pages: 1 -->
<svg width="310pt" height="290pt"
 viewBox="0.00 0.00 310.00 290.00" xmlns="http://www.w3.org/2000/svg" xmlns:xlink="http://www.w3.org/1999/xlink">
<g id="graph1" class="graph" transform="scale(1 1) rotate(0) translate(4 286)">
<title>ObjectDiagram</title>
<polygon fill="white" stroke="white" points="-4,5 -4,-286 307,-286 307,5 -4,5"/>
<!-- r66 -->
<g id="node1" class="node"><title>r66</title>
<a xlink:href="../../SDMLib/src/org/sdmlib/models/patterns/example/ferrmansproblem/River.java" xlink:title="&lt;TABLE&gt;">
<polygon fill="none" stroke="black" points="108,-255 108,-272 160,-272 160,-255 108,-255"/>
<text text-anchor="start" x="111.5" y="-261.5" font-family="Arial" font-size="10.00"> </text>
<text text-anchor="start" x="115.5" y="-261.5" font-family="Arial" font-size="10.00">r66 :River</text>
</a>
</g>
<!-- b67 -->
<g id="node2" class="node"><title>b67</title>
<a xlink:href="../../SDMLib/src/org/sdmlib/models/patterns/example/ferrmansproblem/Bank.java" xlink:title="&lt;TABLE&gt;">
<polygon fill="none" stroke="black" points="17,-188 17,-205 85,-205 85,-188 17,-188"/>
<text text-anchor="start" x="26.5" y="-194.5" font-family="Arial" font-size="10.00"> </text>
<text text-anchor="start" x="30.5" y="-194.5" font-family="Arial" font-size="10.00">b67 :Bank</text>
</a>
<polygon fill="none" stroke="black" points="17,-168 17,-188 85,-188 85,-168 17,-168"/>
<text text-anchor="start" x="22" y="-176" font-family="Arial" font-size="10.00">name = &quot;left&quot;</text>
</g>
<!-- r66&#45;&#45;b67 -->
<g id="edge2" class="edge"><title>r66&#45;&#45;b67</title>
<path fill="none" stroke="black" d="M115.166,-245.981C103.209,-235.177 87.6301,-221.1 74.8175,-209.522"/>
<text text-anchor="middle" x="84.3753" y="-209.962" font-family="Arial" font-size="10.00">banks</text>
<text text-anchor="middle" x="105.608" y="-240.541" font-family="Arial" font-size="10.00">river</text>
</g>
<!-- b69 -->
<g id="node4" class="node"><title>b69</title>
<a xlink:href="../../SDMLib/src/org/sdmlib/models/patterns/example/ferrmansproblem/Bank.java" xlink:title="&lt;TABLE&gt;">
<polygon fill="none" stroke="black" points="170,-188 170,-205 244,-205 244,-188 170,-188"/>
<text text-anchor="start" x="182.5" y="-194.5" font-family="Arial" font-size="10.00"> </text>
<text text-anchor="start" x="186.5" y="-194.5" font-family="Arial" font-size="10.00">b69 :Bank</text>
</a>
<polygon fill="none" stroke="black" points="170,-168 170,-188 244,-188 244,-168 170,-168"/>
<text text-anchor="start" x="175" y="-176" font-family="Arial" font-size="10.00">name = &quot;right&quot;</text>
</g>
<!-- r66&#45;&#45;b69 -->
<g id="edge4" class="edge"><title>r66&#45;&#45;b69</title>
<path fill="none" stroke="black" d="M150.565,-245.981C161.081,-235.177 174.783,-221.1 186.052,-209.522"/>
<text text-anchor="middle" x="182.759" y="-216.464" font-family="Arial" font-size="10.00">banks</text>
<text text-anchor="middle" x="153.858" y="-234.039" font-family="Arial" font-size="10.00">river</text>
</g>
<!-- b70 -->
<g id="node5" class="node"><title>b70</title>
<a xlink:href="../../SDMLib/src/org/sdmlib/models/patterns/example/ferrmansproblem/Boat.java" xlink:title="&lt;TABLE&gt;">
<polygon fill="none" stroke="black" points="114,-96 114,-113 168,-113 168,-96 114,-96"/>
<text text-anchor="start" x="117.5" y="-102.5" font-family="Arial" font-size="10.00"> </text>
<text text-anchor="start" x="121.5" y="-102.5" font-family="Arial" font-size="10.00">b70 :Boat</text>
</a>
</g>
<!-- r66&#45;&#45;b70 -->
<g id="edge6" class="edge"><title>r66&#45;&#45;b70</title>
<path fill="none" stroke="black" d="M134.762,-245.899C136.109,-215.699 138.893,-153.265 140.238,-123.08"/>
<text text-anchor="middle" x="144.057" y="-129.822" font-family="Arial" font-size="10.00">boat</text>
<text text-anchor="middle" x="130.944" y="-234.157" font-family="Arial" font-size="10.00">river</text>
</g>
<!-- c68 -->
<g id="node3" class="node"><title>c68</title>
<a xlink:href="../../SDMLib/src/org/sdmlib/models/patterns/example/ferrmansproblem/Cargo.java" xlink:title="&lt;TABLE&gt;">
<polygon fill="none" stroke="black" points="8,-106 8,-123 80,-123 80,-106 8,-106"/>
<text text-anchor="start" x="18" y="-112.5" font-family="Arial" font-size="10.00"> </text>
<text text-anchor="start" x="22" y="-112.5" font-family="Arial" font-size="10.00">c68 :Cargo</text>
</a>
<polygon fill="none" stroke="black" points="8,-86 8,-106 80,-106 80,-86 8,-86"/>
<text text-anchor="start" x="13" y="-94" font-family="Arial" font-size="10.00">name = &quot;wolf&quot;</text>
</g>
<!-- b67&#45;&#45;c68 -->
<g id="edge8" class="edge"><title>b67&#45;&#45;c68</title>
<path fill="none" stroke="black" d="M49.0872,-164.14C48.0914,-152.759 46.8781,-138.893 45.8862,-127.557"/>
<text text-anchor="middle" x="50.8863" y="-133.717" font-family="Arial" font-size="10.00">cargos</text>
<text text-anchor="middle" x="44.0871" y="-152.979" font-family="Arial" font-size="10.00">bank</text>
</g>
<!-- b69&#45;&#45;b70 -->
<g id="edge10" class="edge"><title>b69&#45;&#45;b70</title>
<path fill="none" stroke="black" d="M188.965,-164.14C178.279,-151.186 164.935,-135.013 155.037,-123.015"/>
<text text-anchor="middle" x="164.065" y="-124.816" font-family="Arial" font-size="10.00">boat</text>
<text text-anchor="middle" x="179.938" y="-157.338" font-family="Arial" font-size="10.00">bank</text>
</g>
<!-- c72 -->
<g id="node7" class="node"><title>c72</title>
<a xlink:href="../../SDMLib/src/org/sdmlib/models/patterns/example/ferrmansproblem/Cargo.java" xlink:title="&lt;TABLE&gt;">
<polygon fill="none" stroke="black" points="202,-106 202,-123 294,-123 294,-106 202,-106"/>
<text text-anchor="start" x="222" y="-112.5" font-family="Arial" font-size="10.00"> </text>
<text text-anchor="start" x="226" y="-112.5" font-family="Arial" font-size="10.00">c72 :Cargo</text>
</a>
<polygon fill="none" stroke="black" points="202,-86 202,-106 294,-106 294,-86 202,-86"/>
<text text-anchor="start" x="207" y="-94" font-family="Arial" font-size="10.00">name = &quot;cabbage&quot;</text>
</g>
<!-- b69&#45;&#45;c72 -->
<g id="edge12" class="edge"><title>b69&#45;&#45;c72</title>
<path fill="none" stroke="black" d="M218.203,-164.14C224.036,-152.759 231.142,-138.893 236.952,-127.557"/>
<text text-anchor="middle" x="236.58" y="-135.05" font-family="Arial" font-size="10.00">cargos</text>
<text text-anchor="middle" x="218.576" y="-151.647" font-family="Arial" font-size="10.00">bank</text>
</g>
<!-- c71 -->
<g id="node6" class="node"><title>c71</title>
<a xlink:href="../../SDMLib/src/org/sdmlib/models/patterns/example/ferrmansproblem/Cargo.java" xlink:title="&lt;TABLE&gt;">
<polygon fill="none" stroke="black" points="104,-24 104,-41 178,-41 178,-24 104,-24"/>
<text text-anchor="start" x="115" y="-30.5" font-family="Arial" font-size="10.00"> </text>
<text text-anchor="start" x="119" y="-30.5" font-family="Arial" font-size="10.00">c71 :Cargo</text>
</a>
<polygon fill="none" stroke="black" points="104,-4 104,-24 178,-24 178,-4 104,-4"/>
<text text-anchor="start" x="109" y="-12" font-family="Arial" font-size="10.00">name = &quot;goat&quot;</text>
</g>
<!-- b70&#45;&#45;c71 -->
<g id="edge14" class="edge"><title>b70&#45;&#45;c71</title>
<path fill="none" stroke="black" d="M141,-86.6412C141,-74.6011 141,-58.4804 141,-45.608"/>
<text text-anchor="middle" x="145.226" y="-52.171" font-family="Arial" font-size="10.00">cargo</text>
<text text-anchor="middle" x="136.774" y="-75.0781" font-family="Arial" font-size="10.00">boat</text>
</g>
</g>
</svg>
