<?xml version="1.0" encoding="UTF-8" standalone="no"?>
<!DOCTYPE svg PUBLIC "-//W3C//DTD SVG 1.1//EN"
 "http://www.w3.org/Graphics/SVG/1.1/DTD/svg11.dtd">
<!-- Generated by graphviz version 2.28.0 (20110507.0327)
 -->
<!-- Title: ObjectDiagram Pages: 1 -->
<svg width="401pt" height="208pt"
 viewBox="0.00 0.00 401.00 208.00" xmlns="http://www.w3.org/2000/svg" xmlns:xlink="http://www.w3.org/1999/xlink">
<g id="graph1" class="graph" transform="scale(1 1) rotate(0) translate(4 204)">
<title>ObjectDiagram</title>
<polygon fill="white" stroke="white" points="-4,5 -4,-204 398,-204 398,5 -4,5"/>
<!-- r76 -->
<g id="node1" class="node"><title>r76</title>
<polygon fill="none" stroke="black" points="98,-173 98,-190 146,-190 146,-173 98,-173"/>
<text text-anchor="start" x="101.5" y="-179.5" font-family="Times New Roman,serif" font-size="10.00"> </text>
<text text-anchor="start" x="104.5" y="-179.5" font-family="Times New Roman,serif" font-size="10.00">r76 :River</text>
</g>
<!-- b223 -->
<g id="node2" class="node"><title>b223</title>
<polygon fill="none" stroke="black" points="90,-106 90,-123 154,-123 154,-106 90,-106"/>
<text text-anchor="start" x="98.5" y="-112.5" font-family="Times New Roman,serif" font-size="10.00"> </text>
<text text-anchor="start" x="101.5" y="-112.5" font-family="Times New Roman,serif" font-size="10.00">b223 :Bank</text>
<polygon fill="none" stroke="black" points="90,-86 90,-106 154,-106 154,-86 90,-86"/>
<text text-anchor="start" x="95" y="-94" font-family="Times New Roman,serif" font-size="10.00">name = &quot;left&quot;</text>
</g>
<!-- r76&#45;&#45;b223 -->
<g id="edge2" class="edge"><title>r76&#45;&#45;b223</title>
<path fill="none" stroke="black" d="M122,-163.981C122,-153.177 122,-139.1 122,-127.522"/>
<text text-anchor="middle" x="126.226" y="-134.085" font-family="Times New Roman,serif" font-size="10.00">banks</text>
<text text-anchor="middle" x="117.774" y="-152.418" font-family="Times New Roman,serif" font-size="10.00">river</text>
</g>
<!-- b224 -->
<g id="node3" class="node"><title>b224</title>
<polygon fill="none" stroke="black" points="8,-14 8,-31 61,-31 61,-14 8,-14"/>
<text text-anchor="start" x="11.5" y="-20.5" font-family="Times New Roman,serif" font-size="10.00"> </text>
<text text-anchor="start" x="14.5" y="-20.5" font-family="Times New Roman,serif" font-size="10.00">b224 :Boat</text>
</g>
<!-- r76&#45;&#45;b224 -->
<g id="edge6" class="edge"><title>r76&#45;&#45;b224</title>
<path fill="none" stroke="black" d="M102.856,-163.808C92.906,-154.075 81.1549,-141.227 73,-128 55.5936,-99.7672 43.9718,-62.525 38.2191,-41.1245"/>
<text text-anchor="middle" x="44.7099" y="-46.2317" font-family="Times New Roman,serif" font-size="10.00">boat</text>
<text text-anchor="middle" x="93.4464" y="-157.924" font-family="Times New Roman,serif" font-size="10.00">river</text>
</g>
<!-- b226 -->
<g id="node5" class="node"><title>b226</title>
<polygon fill="none" stroke="black" points="205,-106 205,-123 275,-123 275,-106 205,-106"/>
<text text-anchor="start" x="216.5" y="-112.5" font-family="Times New Roman,serif" font-size="10.00"> </text>
<text text-anchor="start" x="219.5" y="-112.5" font-family="Times New Roman,serif" font-size="10.00">b226 :Bank</text>
<polygon fill="none" stroke="black" points="205,-86 205,-106 275,-106 275,-86 205,-86"/>
<text text-anchor="start" x="210" y="-94" font-family="Times New Roman,serif" font-size="10.00">name = &quot;right&quot;</text>
</g>
<!-- r76&#45;&#45;b226 -->
<g id="edge4" class="edge"><title>r76&#45;&#45;b226</title>
<path fill="none" stroke="black" d="M148.776,-163.981C165.776,-153.177 187.923,-139.1 206.139,-127.522"/>
<text text-anchor="middle" x="200.757" y="-133.45" font-family="Times New Roman,serif" font-size="10.00">banks</text>
<text text-anchor="middle" x="154.158" y="-153.053" font-family="Times New Roman,serif" font-size="10.00">river</text>
</g>
<!-- b223&#45;&#45;b224 -->
<g id="edge8" class="edge"><title>b223&#45;&#45;b224</title>
<path fill="none" stroke="black" d="M97.9536,-82.1396C83.7047,-69.1861 65.9138,-53.0125 52.7164,-41.0149"/>
<text text-anchor="middle" x="62.2654" y="-41.4843" font-family="Times New Roman,serif" font-size="10.00">boat</text>
<text text-anchor="middle" x="88.4046" y="-76.6703" font-family="Times New Roman,serif" font-size="10.00">bank</text>
</g>
<!-- c225 -->
<g id="node4" class="node"><title>c225</title>
<polygon fill="none" stroke="black" points="95,-24 95,-41 164,-41 164,-24 95,-24"/>
<text text-anchor="start" x="104.5" y="-30.5" font-family="Times New Roman,serif" font-size="10.00"> </text>
<text text-anchor="start" x="107.5" y="-30.5" font-family="Times New Roman,serif" font-size="10.00">c225 :Cargo</text>
<polygon fill="none" stroke="black" points="95,-4 95,-24 164,-24 164,-4 95,-4"/>
<text text-anchor="start" x="100" y="-12" font-family="Times New Roman,serif" font-size="10.00">name = &quot;goat&quot;</text>
</g>
<!-- b223&#45;&#45;c225 -->
<g id="edge10" class="edge"><title>b223&#45;&#45;c225</title>
<path fill="none" stroke="black" d="M123.913,-82.1396C124.909,-70.759 126.122,-56.8929 127.114,-45.5569"/>
<text text-anchor="middle" x="130.534" y="-52.4539" font-family="Times New Roman,serif" font-size="10.00">cargos</text>
<text text-anchor="middle" x="120.493" y="-70.2427" font-family="Times New Roman,serif" font-size="10.00">bank</text>
</g>
<!-- c227 -->
<g id="node6" class="node"><title>c227</title>
<polygon fill="none" stroke="black" points="198,-24 198,-41 283,-41 283,-24 198,-24"/>
<text text-anchor="start" x="215.5" y="-30.5" font-family="Times New Roman,serif" font-size="10.00"> </text>
<text text-anchor="start" x="218.5" y="-30.5" font-family="Times New Roman,serif" font-size="10.00">c227 :Cargo</text>
<polygon fill="none" stroke="black" points="198,-4 198,-24 283,-24 283,-4 198,-4"/>
<text text-anchor="start" x="203" y="-12" font-family="Times New Roman,serif" font-size="10.00">name = &quot;cabbage&quot;</text>
</g>
<!-- b226&#45;&#45;c227 -->
<g id="edge12" class="edge"><title>b226&#45;&#45;c227</title>
<path fill="none" stroke="black" d="M240,-82.1396C240,-70.759 240,-56.8929 240,-45.5569"/>
<text text-anchor="middle" x="244.226" y="-52.12" font-family="Times New Roman,serif" font-size="10.00">cargos</text>
<text text-anchor="middle" x="235.774" y="-70.5766" font-family="Times New Roman,serif" font-size="10.00">bank</text>
</g>
<!-- c228 -->
<g id="node7" class="node"><title>c228</title>
<polygon fill="none" stroke="black" points="317,-24 317,-41 386,-41 386,-24 317,-24"/>
<text text-anchor="start" x="326.5" y="-30.5" font-family="Times New Roman,serif" font-size="10.00"> </text>
<text text-anchor="start" x="329.5" y="-30.5" font-family="Times New Roman,serif" font-size="10.00">c228 :Cargo</text>
<polygon fill="none" stroke="black" points="317,-4 317,-24 386,-24 386,-4 317,-4"/>
<text text-anchor="start" x="322" y="-12" font-family="Times New Roman,serif" font-size="10.00">name = &quot;wolf&quot;</text>
</g>
<!-- b226&#45;&#45;c228 -->
<g id="edge14" class="edge"><title>b226&#45;&#45;c228</title>
<path fill="none" stroke="black" d="M270.038,-82.3508C285.833,-70.9674 305.14,-57.0524 320.938,-45.6665"/>
<text text-anchor="middle" x="316.056" y="-51.8941" font-family="Times New Roman,serif" font-size="10.00">cargos</text>
<text text-anchor="middle" x="274.92" y="-71.1232" font-family="Times New Roman,serif" font-size="10.00">bank</text>
</g>
</g>
</svg>
