<?xml version="1.0" encoding="UTF-8" standalone="no"?>
<!DOCTYPE svg PUBLIC "-//W3C//DTD SVG 1.1//EN"
 "http://www.w3.org/Graphics/SVG/1.1/DTD/svg11.dtd">
<!-- Generated by graphviz version 2.28.0 (20110507.0327)
 -->
<!-- Title: ObjectDiagram Pages: 1 -->
<svg width="306pt" height="290pt"
 viewBox="0.00 0.00 306.00 290.00" xmlns="http://www.w3.org/2000/svg" xmlns:xlink="http://www.w3.org/1999/xlink">
<g id="graph1" class="graph" transform="scale(1 1) rotate(0) translate(4 286)">
<title>ObjectDiagram</title>
<polygon fill="white" stroke="white" points="-4,5 -4,-286 303,-286 303,5 -4,5"/>
<!-- r90 -->
<g id="node1" class="node"><title>r90</title>
<a xlink:href="../test/org/sdmlib/models/patterns/example/ferrmansproblem/River.java" xlink:title="&lt;TABLE&gt;">
<polygon fill="none" stroke="black" points="100,-255 100,-272 148,-272 148,-255 100,-255"/>
<text text-anchor="start" x="103.5" y="-261.5" font-family="Times New Roman,serif" font-size="10.00"> </text>
<text text-anchor="start" x="106.5" y="-261.5" font-family="Times New Roman,serif" font-size="10.00">r90 :River</text>
</a>
</g>
<!-- b187 -->
<g id="node2" class="node"><title>b187</title>
<a xlink:href="../test/org/sdmlib/models/patterns/example/ferrmansproblem/Bank.java" xlink:title="&lt;TABLE&gt;">
<polygon fill="none" stroke="black" points="92,-188 92,-205 156,-205 156,-188 92,-188"/>
<text text-anchor="start" x="100.5" y="-194.5" font-family="Times New Roman,serif" font-size="10.00"> </text>
<text text-anchor="start" x="103.5" y="-194.5" font-family="Times New Roman,serif" font-size="10.00">b187 :Bank</text>
</a>
<polygon fill="none" stroke="black" points="92,-168 92,-188 156,-188 156,-168 92,-168"/>
<text text-anchor="start" x="97" y="-176" font-family="Times New Roman,serif" font-size="10.00">name = &quot;left&quot;</text>
</g>
<!-- r90&#45;&#45;b187 -->
<g id="edge2" class="edge"><title>r90&#45;&#45;b187</title>
<path fill="none" stroke="black" d="M124,-245.981C124,-235.177 124,-221.1 124,-209.522"/>
<text text-anchor="middle" x="128.226" y="-216.085" font-family="Times New Roman,serif" font-size="10.00">banks</text>
<text text-anchor="middle" x="119.774" y="-234.418" font-family="Times New Roman,serif" font-size="10.00">river</text>
</g>
<!-- b188 -->
<g id="node3" class="node"><title>b188</title>
<a xlink:href="../test/org/sdmlib/models/patterns/example/ferrmansproblem/Boat.java" xlink:title="&lt;TABLE&gt;">
<polygon fill="none" stroke="black" points="16,-96 16,-113 69,-113 69,-96 16,-96"/>
<text text-anchor="start" x="19.5" y="-102.5" font-family="Times New Roman,serif" font-size="10.00"> </text>
<text text-anchor="start" x="22.5" y="-102.5" font-family="Times New Roman,serif" font-size="10.00">b188 :Boat</text>
</a>
</g>
<!-- r90&#45;&#45;b188 -->
<g id="edge6" class="edge"><title>r90&#45;&#45;b188</title>
<path fill="none" stroke="black" d="M104.582,-245.972C94.552,-236.287 82.8115,-223.433 75,-210 58.621,-181.835 49.3545,-144.569 45.0369,-123.146"/>
<text text-anchor="middle" x="51.0374" y="-128.646" font-family="Times New Roman,serif" font-size="10.00">boat</text>
<text text-anchor="middle" x="95.1538" y="-240.14" font-family="Times New Roman,serif" font-size="10.00">river</text>
</g>
<!-- b191 -->
<g id="node6" class="node"><title>b191</title>
<a xlink:href="../test/org/sdmlib/models/patterns/example/ferrmansproblem/Bank.java" xlink:title="&lt;TABLE&gt;">
<polygon fill="none" stroke="black" points="208,-188 208,-205 278,-205 278,-188 208,-188"/>
<text text-anchor="start" x="219.5" y="-194.5" font-family="Times New Roman,serif" font-size="10.00"> </text>
<text text-anchor="start" x="222.5" y="-194.5" font-family="Times New Roman,serif" font-size="10.00">b191 :Bank</text>
</a>
<polygon fill="none" stroke="black" points="208,-168 208,-188 278,-188 278,-168 208,-168"/>
<text text-anchor="start" x="213" y="-176" font-family="Times New Roman,serif" font-size="10.00">name = &quot;right&quot;</text>
</g>
<!-- r90&#45;&#45;b191 -->
<g id="edge4" class="edge"><title>r90&#45;&#45;b191</title>
<path fill="none" stroke="black" d="M151.003,-245.981C168.146,-235.177 190.482,-221.1 208.852,-209.522"/>
<text text-anchor="middle" x="203.438" y="-215.429" font-family="Times New Roman,serif" font-size="10.00">banks</text>
<text text-anchor="middle" x="156.417" y="-235.074" font-family="Times New Roman,serif" font-size="10.00">river</text>
</g>
<!-- b187&#45;&#45;b188 -->
<g id="edge8" class="edge"><title>b187&#45;&#45;b188</title>
<path fill="none" stroke="black" d="M101.593,-164.14C88.3157,-151.186 71.7378,-135.013 59.4403,-123.015"/>
<text text-anchor="middle" x="68.8787" y="-123.819" font-family="Times New Roman,serif" font-size="10.00">boat</text>
<text text-anchor="middle" x="92.1547" y="-158.336" font-family="Times New Roman,serif" font-size="10.00">bank</text>
</g>
<!-- c190 -->
<g id="node5" class="node"><title>c190</title>
<a xlink:href="../test/org/sdmlib/models/patterns/example/ferrmansproblem/Cargo.java" xlink:title="&lt;TABLE&gt;">
<polygon fill="none" stroke="black" points="103,-106 103,-123 172,-123 172,-106 103,-106"/>
<text text-anchor="start" x="112.5" y="-112.5" font-family="Times New Roman,serif" font-size="10.00"> </text>
<text text-anchor="start" x="115.5" y="-112.5" font-family="Times New Roman,serif" font-size="10.00">c190 :Cargo</text>
</a>
<polygon fill="none" stroke="black" points="103,-86 103,-106 172,-106 172,-86 103,-86"/>
<text text-anchor="start" x="108" y="-94" font-family="Times New Roman,serif" font-size="10.00">name = &quot;wolf&quot;</text>
</g>
<!-- b187&#45;&#45;c190 -->
<g id="edge10" class="edge"><title>b187&#45;&#45;c190</title>
<path fill="none" stroke="black" d="M127.552,-164.14C129.402,-152.759 131.655,-138.893 133.497,-127.557"/>
<text text-anchor="middle" x="136.215" y="-134.681" font-family="Times New Roman,serif" font-size="10.00">cargos</text>
<text text-anchor="middle" x="124.835" y="-152.016" font-family="Times New Roman,serif" font-size="10.00">bank</text>
</g>
<!-- c189 -->
<g id="node4" class="node"><title>c189</title>
<a xlink:href="../test/org/sdmlib/models/patterns/example/ferrmansproblem/Cargo.java" xlink:title="&lt;TABLE&gt;">
<polygon fill="none" stroke="black" points="8,-24 8,-41 77,-41 77,-24 8,-24"/>
<text text-anchor="start" x="17.5" y="-30.5" font-family="Times New Roman,serif" font-size="10.00"> </text>
<text text-anchor="start" x="20.5" y="-30.5" font-family="Times New Roman,serif" font-size="10.00">c189 :Cargo</text>
</a>
<polygon fill="none" stroke="black" points="8,-4 8,-24 77,-24 77,-4 8,-4"/>
<text text-anchor="start" x="13" y="-12" font-family="Times New Roman,serif" font-size="10.00">name = &quot;goat&quot;</text>
</g>
<!-- b188&#45;&#45;c189 -->
<g id="edge12" class="edge"><title>b188&#45;&#45;c189</title>
<path fill="none" stroke="black" d="M42,-86.6412C42,-74.6011 42,-58.4804 42,-45.608"/>
<text text-anchor="middle" x="46.2262" y="-52.171" font-family="Times New Roman,serif" font-size="10.00">cargo</text>
<text text-anchor="middle" x="37.7738" y="-75.0781" font-family="Times New Roman,serif" font-size="10.00">boat</text>
</g>
<!-- c192 -->
<g id="node7" class="node"><title>c192</title>
<a xlink:href="../test/org/sdmlib/models/patterns/example/ferrmansproblem/Cargo.java" xlink:title="&lt;TABLE&gt;">
<polygon fill="none" stroke="black" points="206,-106 206,-123 291,-123 291,-106 206,-106"/>
<text text-anchor="start" x="223.5" y="-112.5" font-family="Times New Roman,serif" font-size="10.00"> </text>
<text text-anchor="start" x="226.5" y="-112.5" font-family="Times New Roman,serif" font-size="10.00">c192 :Cargo</text>
</a>
<polygon fill="none" stroke="black" points="206,-86 206,-106 291,-106 291,-86 206,-86"/>
<text text-anchor="start" x="211" y="-94" font-family="Times New Roman,serif" font-size="10.00">name = &quot;cabbage&quot;</text>
</g>
<!-- b191&#45;&#45;c192 -->
<g id="edge14" class="edge"><title>b191&#45;&#45;c192</title>
<path fill="none" stroke="black" d="M244.366,-164.14C245.078,-152.759 245.944,-138.893 246.653,-127.557"/>
<text text-anchor="middle" x="250.305" y="-134.366" font-family="Times New Roman,serif" font-size="10.00">cargos</text>
<text text-anchor="middle" x="240.714" y="-152.331" font-family="Times New Roman,serif" font-size="10.00">bank</text>
</g>
</g>
</svg>
