<?xml version="1.0" encoding="UTF-8" standalone="no"?>
<!DOCTYPE svg PUBLIC "-//W3C//DTD SVG 1.1//EN"
 "http://www.w3.org/Graphics/SVG/1.1/DTD/svg11.dtd">
<!-- Generated by graphviz version 2.28.0 (20110507.0327)
 -->
<!-- Title: ObjectDiagram Pages: 1 -->
<svg width="397pt" height="208pt"
 viewBox="0.00 0.00 397.00 208.00" xmlns="http://www.w3.org/2000/svg" xmlns:xlink="http://www.w3.org/1999/xlink">
<g id="graph1" class="graph" transform="scale(1 1) rotate(0) translate(4 204)">
<title>ObjectDiagram</title>
<polygon fill="white" stroke="white" points="-4,5 -4,-204 394,-204 394,5 -4,5"/>
<!-- r94 -->
<g id="node1" class="node"><title>r94</title>
<a xlink:href="../test/org/sdmlib/models/patterns/example/ferrmansproblem/River.java" xlink:title="&lt;TABLE&gt;">
<polygon fill="none" stroke="black" points="101,-173 101,-190 149,-190 149,-173 101,-173"/>
<text text-anchor="start" x="104.5" y="-179.5" font-family="Times New Roman,serif" font-size="10.00"> </text>
<text text-anchor="start" x="107.5" y="-179.5" font-family="Times New Roman,serif" font-size="10.00">r94 :River</text>
</a>
</g>
<!-- b95 -->
<g id="node2" class="node"><title>b95</title>
<a xlink:href="../test/org/sdmlib/models/patterns/example/ferrmansproblem/Bank.java" xlink:title="&lt;TABLE&gt;">
<polygon fill="none" stroke="black" points="93,-106 93,-123 157,-123 157,-106 93,-106"/>
<text text-anchor="start" x="103.5" y="-112.5" font-family="Times New Roman,serif" font-size="10.00"> </text>
<text text-anchor="start" x="106.5" y="-112.5" font-family="Times New Roman,serif" font-size="10.00">b95 :Bank</text>
</a>
<polygon fill="none" stroke="black" points="93,-86 93,-106 157,-106 157,-86 93,-86"/>
<text text-anchor="start" x="98" y="-94" font-family="Times New Roman,serif" font-size="10.00">name = &quot;left&quot;</text>
</g>
<!-- r94&#45;&#45;b95 -->
<g id="edge2" class="edge"><title>r94&#45;&#45;b95</title>
<path fill="none" stroke="black" d="M125,-163.981C125,-153.177 125,-139.1 125,-127.522"/>
<text text-anchor="middle" x="129.226" y="-134.085" font-family="Times New Roman,serif" font-size="10.00">banks</text>
<text text-anchor="middle" x="120.774" y="-152.418" font-family="Times New Roman,serif" font-size="10.00">river</text>
</g>
<!-- b96 -->
<g id="node3" class="node"><title>b96</title>
<a xlink:href="../test/org/sdmlib/models/patterns/example/ferrmansproblem/Boat.java" xlink:title="&lt;TABLE&gt;">
<polygon fill="none" stroke="black" points="8,-14 8,-31 56,-31 56,-14 8,-14"/>
<text text-anchor="start" x="11.5" y="-20.5" font-family="Times New Roman,serif" font-size="10.00"> </text>
<text text-anchor="start" x="14.5" y="-20.5" font-family="Times New Roman,serif" font-size="10.00">b96 :Boat</text>
</a>
</g>
<!-- r94&#45;&#45;b96 -->
<g id="edge6" class="edge"><title>r94&#45;&#45;b96</title>
<path fill="none" stroke="black" d="M106.074,-163.671C96.187,-153.898 84.4273,-141.055 76,-128 57.7119,-99.6694 44.1361,-62.4608 37.196,-41.0929"/>
<text text-anchor="middle" x="44.0639" y="-45.8614" font-family="Times New Roman,serif" font-size="10.00">boat</text>
<text text-anchor="middle" x="96.6791" y="-157.744" font-family="Times New Roman,serif" font-size="10.00">river</text>
</g>
<!-- b99 -->
<g id="node6" class="node"><title>b99</title>
<a xlink:href="../test/org/sdmlib/models/patterns/example/ferrmansproblem/Bank.java" xlink:title="&lt;TABLE&gt;">
<polygon fill="none" stroke="black" points="247,-106 247,-123 317,-123 317,-106 247,-106"/>
<text text-anchor="start" x="260.5" y="-112.5" font-family="Times New Roman,serif" font-size="10.00"> </text>
<text text-anchor="start" x="263.5" y="-112.5" font-family="Times New Roman,serif" font-size="10.00">b99 :Bank</text>
</a>
<polygon fill="none" stroke="black" points="247,-86 247,-106 317,-106 317,-86 247,-86"/>
<text text-anchor="start" x="252" y="-94" font-family="Times New Roman,serif" font-size="10.00">name = &quot;right&quot;</text>
</g>
<!-- r94&#45;&#45;b99 -->
<g id="edge4" class="edge"><title>r94&#45;&#45;b99</title>
<path fill="none" stroke="black" d="M157.15,-165.642C180.744,-154.371 213.042,-138.942 238.876,-126.601"/>
<text text-anchor="middle" x="232.52" y="-131.821" font-family="Times New Roman,serif" font-size="10.00">banks</text>
<text text-anchor="middle" x="163.506" y="-155.422" font-family="Times New Roman,serif" font-size="10.00">river</text>
</g>
<!-- b95&#45;&#45;b96 -->
<g id="edge8" class="edge"><title>b95&#45;&#45;b96</title>
<path fill="none" stroke="black" d="M99.5873,-82.1396C84.5288,-69.1861 65.7271,-53.0125 51.7798,-41.0149"/>
<text text-anchor="middle" x="61.4066" y="-41.2213" font-family="Times New Roman,serif" font-size="10.00">boat</text>
<text text-anchor="middle" x="89.9605" y="-76.9332" font-family="Times New Roman,serif" font-size="10.00">bank</text>
</g>
<!-- c97 -->
<g id="node4" class="node"><title>c97</title>
<a xlink:href="../test/org/sdmlib/models/patterns/example/ferrmansproblem/Cargo.java" xlink:title="&lt;TABLE&gt;">
<polygon fill="none" stroke="black" points="91,-24 91,-41 160,-41 160,-24 91,-24"/>
<text text-anchor="start" x="102.5" y="-30.5" font-family="Times New Roman,serif" font-size="10.00"> </text>
<text text-anchor="start" x="105.5" y="-30.5" font-family="Times New Roman,serif" font-size="10.00">c97 :Cargo</text>
</a>
<polygon fill="none" stroke="black" points="91,-4 91,-24 160,-24 160,-4 91,-4"/>
<text text-anchor="start" x="96" y="-12" font-family="Times New Roman,serif" font-size="10.00">name = &quot;wolf&quot;</text>
</g>
<!-- b95&#45;&#45;c97 -->
<g id="edge10" class="edge"><title>b95&#45;&#45;c97</title>
<path fill="none" stroke="black" d="M125,-82.1396C125,-70.759 125,-56.8929 125,-45.5569"/>
<text text-anchor="middle" x="129.226" y="-52.12" font-family="Times New Roman,serif" font-size="10.00">cargos</text>
<text text-anchor="middle" x="120.774" y="-70.5766" font-family="Times New Roman,serif" font-size="10.00">bank</text>
</g>
<!-- c98 -->
<g id="node5" class="node"><title>c98</title>
<a xlink:href="../test/org/sdmlib/models/patterns/example/ferrmansproblem/Cargo.java" xlink:title="&lt;TABLE&gt;">
<polygon fill="none" stroke="black" points="194,-24 194,-41 263,-41 263,-24 194,-24"/>
<text text-anchor="start" x="205.5" y="-30.5" font-family="Times New Roman,serif" font-size="10.00"> </text>
<text text-anchor="start" x="208.5" y="-30.5" font-family="Times New Roman,serif" font-size="10.00">c98 :Cargo</text>
</a>
<polygon fill="none" stroke="black" points="194,-4 194,-24 263,-24 263,-4 194,-4"/>
<text text-anchor="start" x="199" y="-12" font-family="Times New Roman,serif" font-size="10.00">name = &quot;goat&quot;</text>
</g>
<!-- b95&#45;&#45;c98 -->
<g id="edge12" class="edge"><title>b95&#45;&#45;c98</title>
<path fill="none" stroke="black" d="M152.873,-82.3508C167.529,-70.9674 185.445,-57.0524 200.104,-45.6665"/>
<text text-anchor="middle" x="195.539" y="-52.0635" font-family="Times New Roman,serif" font-size="10.00">cargos</text>
<text text-anchor="middle" x="157.439" y="-70.9538" font-family="Times New Roman,serif" font-size="10.00">bank</text>
</g>
<!-- c100 -->
<g id="node7" class="node"><title>c100</title>
<a xlink:href="../test/org/sdmlib/models/patterns/example/ferrmansproblem/Cargo.java" xlink:title="&lt;TABLE&gt;">
<polygon fill="none" stroke="black" points="297,-24 297,-41 382,-41 382,-24 297,-24"/>
<text text-anchor="start" x="314.5" y="-30.5" font-family="Times New Roman,serif" font-size="10.00"> </text>
<text text-anchor="start" x="317.5" y="-30.5" font-family="Times New Roman,serif" font-size="10.00">c100 :Cargo</text>
</a>
<polygon fill="none" stroke="black" points="297,-4 297,-24 382,-24 382,-4 297,-4"/>
<text text-anchor="start" x="302" y="-12" font-family="Times New Roman,serif" font-size="10.00">name = &quot;cabbage&quot;</text>
</g>
<!-- b99&#45;&#45;c100 -->
<g id="edge14" class="edge"><title>b99&#45;&#45;c100</title>
<path fill="none" stroke="black" d="M297.576,-82.1396C305.684,-70.759 315.564,-56.8929 323.641,-45.5569"/>
<text text-anchor="middle" x="321.823" y="-52.8904" font-family="Times New Roman,serif" font-size="10.00">cargos</text>
<text text-anchor="middle" x="299.393" y="-69.8061" font-family="Times New Roman,serif" font-size="10.00">bank</text>
</g>
</g>
</svg>
