<?xml version="1.0" encoding="UTF-8" standalone="no"?>
<!DOCTYPE svg PUBLIC "-//W3C//DTD SVG 1.1//EN"
 "http://www.w3.org/Graphics/SVG/1.1/DTD/svg11.dtd">
<!-- Generated by graphviz version 2.28.0 (20110507.0327)
 -->
<!-- Title: ClassDiagram Pages: 1 -->
<svg width="276pt" height="464pt"
 viewBox="0.00 0.00 276.00 464.00" xmlns="http://www.w3.org/2000/svg" xmlns:xlink="http://www.w3.org/1999/xlink">
<g id="graph1" class="graph" transform="scale(1 1) rotate(0) translate(4 460)">
<title>ClassDiagram</title>
<polygon fill="white" stroke="white" points="-4,5 -4,-460 273,-460 273,5 -4,5"/>
<!-- _Eve -->
<g id="node1" class="node"><title>_Eve</title>
<a xlink:href="../src/Eve.java" xlink:title="&lt;TABLE&gt;">
<polygon fill="none" stroke="black" points="16,-434 16,-451 39,-451 39,-434 16,-434"/>
<text text-anchor="start" x="19.5" y="-440.5" font-family="Times New Roman,serif" font-size="10.00">Eve</text>
</a>
<polygon fill="none" stroke="black" points="16,-414 16,-434 39,-434 39,-414 16,-414"/>
<text text-anchor="start" x="26" y="-422" font-family="Times New Roman,serif" font-size="10.00"> </text>
<polygon fill="none" stroke="black" points="16,-394 16,-414 39,-414 39,-394 16,-394"/>
<text text-anchor="start" x="26" y="-402" font-family="Times New Roman,serif" font-size="10.00"> </text>
</g>
<!-- _Adam -->
<g id="node2" class="node"><title>_Adam</title>
<a xlink:href="../src/Adam.java" xlink:title="&lt;TABLE&gt;">
<polygon fill="none" stroke="black" points="83,-434 83,-451 115,-451 115,-434 83,-434"/>
<text text-anchor="start" x="86.5" y="-440.5" font-family="Times New Roman,serif" font-size="10.00">Adam</text>
</a>
<polygon fill="none" stroke="black" points="83,-414 83,-434 115,-434 115,-414 83,-414"/>
<text text-anchor="start" x="97.5" y="-422" font-family="Times New Roman,serif" font-size="10.00"> </text>
<polygon fill="none" stroke="black" points="83,-394 83,-414 115,-414 115,-394 83,-394"/>
<text text-anchor="start" x="97.5" y="-402" font-family="Times New Roman,serif" font-size="10.00"> </text>
</g>
<!-- _TaskFlow -->
<g id="node3" class="node"><title>_TaskFlow</title>
<a xlink:href="../src/org/sdmlib/logger/TaskFlow.java" xlink:title="&lt;TABLE&gt;">
<polygon fill="none" stroke="black" points="153,-434 153,-451 208,-451 208,-434 153,-434"/>
<text text-anchor="start" x="160.5" y="-440.5" font-family="Times New Roman,serif" font-size="10.00">TaskFlow</text>
</a>
<polygon fill="none" stroke="black" points="153,-414 153,-434 208,-434 208,-414 153,-414"/>
<text text-anchor="start" x="158" y="-422" font-family="Times New Roman,serif" font-size="10.00">taskNo :int</text>
<polygon fill="none" stroke="black" points="153,-394 153,-414 208,-414 208,-394 153,-394"/>
<text text-anchor="start" x="179" y="-402" font-family="Times New Roman,serif" font-size="10.00"> </text>
</g>
<!-- _UpdateAdamFlow -->
<g id="node6" class="node"><title>_UpdateAdamFlow</title>
<a xlink:href="../src/UpdateAdamFlow.java" xlink:title="&lt;TABLE&gt;">
<polygon fill="none" stroke="black" points="100,-332 100,-349 261,-349 261,-332 100,-332"/>
<text text-anchor="start" x="144" y="-338.5" font-family="Times New Roman,serif" font-size="10.00">UpdateAdamFlow</text>
</a>
<polygon fill="none" stroke="black" points="100,-270 100,-332 261,-332 261,-270 100,-270"/>
<text text-anchor="start" x="105" y="-320" font-family="Times New Roman,serif" font-size="10.00">adam :PeerProxy</text>
<text text-anchor="start" x="105" y="-306" font-family="Times New Roman,serif" font-size="10.00">eve :PeerProxy</text>
<text text-anchor="start" x="105" y="-292" font-family="Times New Roman,serif" font-size="10.00">idMap :SDMLibJsonIdMap</text>
<text text-anchor="start" x="105" y="-278" font-family="Times New Roman,serif" font-size="10.00">adamJarAtEveSiteLastModified :long</text>
<polygon fill="none" stroke="black" points="100,-236 100,-270 261,-270 261,-236 100,-236"/>
<text text-anchor="start" x="105" y="-258" font-family="Times New Roman,serif" font-size="10.00">run()</text>
<text text-anchor="start" x="105" y="-244" font-family="Times New Roman,serif" font-size="10.00">getTaskNames()</text>
</g>
<!-- _TaskFlow&#45;&gt;_UpdateAdamFlow -->
<g id="edge2" class="edge"><title>_TaskFlow&#45;&gt;_UpdateAdamFlow</title>
<path fill="none" stroke="black" d="M180,-380.335C180,-371.834 180,-362.731 180,-353.74"/>
<polygon fill="none" stroke="black" points="176.5,-380.36 180,-390.36 183.5,-380.36 176.5,-380.36"/>
</g>
<!-- _SDMLibJsonIdMap -->
<g id="node4" class="node"><title>_SDMLibJsonIdMap</title>
<a xlink:href="../src/org/sdmlib/serialization/SDMLibJsonIdMap.java" xlink:title="&lt;TABLE&gt;">
<polygon fill="none" stroke="black" points="88,-44 88,-61 175,-61 175,-44 88,-44"/>
<text text-anchor="start" x="91.5" y="-50.5" font-family="Times New Roman,serif" font-size="10.00">SDMLibJsonIdMap</text>
</a>
<polygon fill="none" stroke="black" points="88,-24 88,-44 175,-44 175,-24 88,-24"/>
<text text-anchor="start" x="130" y="-32" font-family="Times New Roman,serif" font-size="10.00"> </text>
<polygon fill="none" stroke="black" points="88,-4 88,-24 175,-24 175,-4 88,-4"/>
<text text-anchor="start" x="130" y="-12" font-family="Times New Roman,serif" font-size="10.00"> </text>
</g>
<!-- _PeerProxy -->
<g id="node5" class="node"><title>_PeerProxy</title>
<a xlink:href="../src/org/sdmlib/logger/PeerProxy.java" xlink:title="&lt;TABLE&gt;">
<polygon fill="none" stroke="black" points="119,-174 119,-191 241,-191 241,-174 119,-174"/>
<text text-anchor="start" x="160" y="-180.5" font-family="Times New Roman,serif" font-size="10.00">PeerProxy</text>
</a>
<polygon fill="none" stroke="black" points="119,-126 119,-174 241,-174 241,-126 119,-126"/>
<text text-anchor="start" x="124" y="-162" font-family="Times New Roman,serif" font-size="10.00">ip :String</text>
<text text-anchor="start" x="124" y="-148" font-family="Times New Roman,serif" font-size="10.00">port :int</text>
<text text-anchor="start" x="124" y="-134" font-family="Times New Roman,serif" font-size="10.00">idMap :SDMLibJsonIdMap</text>
<polygon fill="none" stroke="black" points="119,-106 119,-126 241,-126 241,-106 119,-106"/>
<text text-anchor="start" x="178.5" y="-114" font-family="Times New Roman,serif" font-size="10.00"> </text>
</g>
<!-- _PeerProxy&#45;&gt;_SDMLibJsonIdMap -->
<g id="edge4" class="edge"><title>_PeerProxy&#45;&gt;_SDMLibJsonIdMap</title>
<path fill="none" stroke="black" d="M160.352,-102.289C156.481,-93.2816 152.441,-83.8827 148.64,-75.041"/>
<polygon fill="black" stroke="black" points="144.63,-65.7104 152.713,-73.1206 146.604,-70.304 148.579,-74.8977 148.579,-74.8977 148.579,-74.8977 146.604,-70.304 144.445,-76.6747 144.63,-65.7104 144.63,-65.7104"/>
<text text-anchor="middle" x="152.092" y="-69.868" font-family="Times New Roman,serif" font-size="10.00">idMap</text>
</g>
<!-- _UpdateAdamFlow&#45;&gt;_SDMLibJsonIdMap -->
<g id="edge10" class="edge"><title>_UpdateAdamFlow&#45;&gt;_SDMLibJsonIdMap</title>
<path fill="none" stroke="black" d="M121.565,-232.319C113.549,-221.037 106.526,-208.749 102,-196 88.022,-156.63 93.6363,-142.932 102,-102 103.849,-92.9503 106.951,-83.6146 110.454,-74.8689"/>
<polygon fill="black" stroke="black" points="114.373,-65.652 114.601,-76.6155 112.417,-70.2533 110.46,-74.8546 110.46,-74.8546 110.46,-74.8546 112.417,-70.2533 106.319,-73.0937 114.373,-65.652 114.373,-65.652"/>
<text text-anchor="middle" x="114.716" y="-73.1461" font-family="Times New Roman,serif" font-size="10.00">idMap</text>
</g>
<!-- _UpdateAdamFlow&#45;&gt;_PeerProxy -->
<g id="edge6" class="edge"><title>_UpdateAdamFlow&#45;&gt;_PeerProxy</title>
<path fill="none" stroke="black" d="M173.325,-232.191C173.209,-223.569 173.228,-214.721 173.383,-206.174"/>
<polygon fill="black" stroke="black" points="173.639,-195.932 177.887,-206.041 173.514,-200.93 173.389,-205.929 173.389,-205.929 173.389,-205.929 173.514,-200.93 168.89,-205.816 173.639,-195.932 173.639,-195.932"/>
<text text-anchor="middle" x="177.637" y="-202.598" font-family="Times New Roman,serif" font-size="10.00">adam</text>
</g>
<!-- _UpdateAdamFlow&#45;&gt;_PeerProxy -->
<g id="edge8" class="edge"><title>_UpdateAdamFlow&#45;&gt;_PeerProxy</title>
<path fill="none" stroke="black" d="M186.675,-232.191C186.791,-223.569 186.772,-214.721 186.617,-206.174"/>
<polygon fill="black" stroke="black" points="186.361,-195.932 191.11,-205.816 186.486,-200.93 186.611,-205.929 186.611,-205.929 186.611,-205.929 186.486,-200.93 182.113,-206.041 186.361,-195.932 186.361,-195.932"/>
<text text-anchor="middle" x="190.813" y="-202.386" font-family="Times New Roman,serif" font-size="10.00">eve</text>
</g>
</g>
</svg>
