<?xml version="1.0" encoding="UTF-8" standalone="no"?>
<!DOCTYPE svg PUBLIC "-//W3C//DTD SVG 1.1//EN"
 "http://www.w3.org/Graphics/SVG/1.1/DTD/svg11.dtd">
<!-- Generated by graphviz version 2.28.0 (20110507.0327)
 -->
<!-- Title: ObjectDiagram Pages: 1 -->
<svg width="838pt" height="387pt"
 viewBox="0.00 0.00 838.00 387.00" xmlns="http://www.w3.org/2000/svg" xmlns:xlink="http://www.w3.org/1999/xlink">
<g id="graph1" class="graph" transform="scale(1 1) rotate(0) translate(4 383)">
<title>ObjectDiagram</title>
<polygon fill="white" stroke="white" points="-4,5 -4,-383 835,-383 835,5 -4,5"/>
<g id="graph2" class="cluster"><title>cluster_o8</title>
<polygon fill="none" stroke="grey" points="730,-141 730,-311 822,-311 822,-141 730,-141"/>
<text text-anchor="start" x="744.5" y="-291.8" font-family="Times New Roman,serif" font-size="14.00">optional o8</text>
</g>
<!-- t1 -->
<g id="node1" class="node"><title>t1</title>
<polygon fill="deepskyblue" stroke="deepskyblue" points="403.5,-323.5 403.5,-374.5 470.5,-374.5 470.5,-323.5 403.5,-323.5"/>
<text text-anchor="start" x="432" y="-364.5" font-family="Arial" font-size="10.00">«bound»</text>
<polygon fill="none" stroke="black" points="404,-343 404,-359 471,-359 471,-343 404,-343"/>
<text text-anchor="start" x="407.5" y="-349" font-family="Arial" font-size="10.00"> </text>
<text text-anchor="start" x="411.5" y="-349" font-family="Arial" font-size="10.00"> t1 :TrainPO </text>
<polygon fill="none" stroke="black" points="404,-323 404,-343 471,-343 471,-323 404,-323"/>
<text text-anchor="start" x="434" y="-331" font-family="Arial" font-size="10.00"> &#160;</text>
</g>
<!-- s3 -->
<g id="node2" class="node"><title>s3</title>
<polygon fill="deepskyblue" stroke="deepskyblue" points="266,-230.5 266,-267.5 326,-267.5 326,-230.5 266,-230.5"/>
<polygon fill="none" stroke="black" points="266,-250 266,-267 326,-267 326,-250 266,-250"/>
<text text-anchor="start" x="269.5" y="-256.5" font-family="Arial" font-size="10.00"> </text>
<text text-anchor="start" x="273.5" y="-256.5" font-family="Arial" font-size="10.00"> s3 :StationPO </text>
<polygon fill="none" stroke="black" points="266,-230 266,-250 326,-250 326,-230 266,-230"/>
<text text-anchor="start" x="292.5" y="-238" font-family="Arial" font-size="10.00"> &#160;</text>
</g>
<!-- t1&#45;&#45;s3 -->
<g id="edge15" class="edge"><title>t1&#45;&#45;s3</title>
<path fill="none" stroke="black" d="M395.838,-319.391C373.891,-304.137 347.327,-285.674 327.119,-271.629"/>
<text text-anchor="middle" x="336.973" y="-270.831" font-family="Arial" font-size="10.00">station</text>
</g>
<!-- t2 -->
<g id="node8" class="node"><title>t2</title>
<a xlink:href="../../SDMLib/src/org/sdmlib/examples/patternrewriteops/Train.java" xlink:title="&lt;TABLE&gt;">
<polygon fill="none" stroke="black" points="414,-240 414,-257 461,-257 461,-240 414,-240"/>
<text text-anchor="start" x="417.5" y="-246.5" font-family="Arial" font-size="10.00"> </text>
<text text-anchor="start" x="421.5" y="-246.5" font-family="Arial" font-size="10.00">t2 :Train</text>
</a>
</g>
<!-- t1&#45;&#45;t2 -->
<g id="edge3" class="edge"><title>t1&#45;&#45;t2</title>
<path fill="none" stroke="black" stroke-dasharray="1,5" d="M437,-319.391C437,-302.442 437,-281.532 437,-267.121"/>
<text text-anchor="middle" x="441.226" y="-273.684" font-family="Arial" font-size="10.00">match</text>
</g>
<!-- s5 -->
<g id="node3" class="node"><title>s5</title>
<polygon fill="deepskyblue" stroke="deepskyblue" points="60,-148.5 60,-185.5 130,-185.5 130,-148.5 60,-148.5"/>
<polygon fill="none" stroke="black" points="60,-168 60,-185 130,-185 130,-168 60,-168"/>
<text text-anchor="start" x="63.5" y="-174.5" font-family="Arial" font-size="10.00"> </text>
<text text-anchor="start" x="67.5" y="-174.5" font-family="Arial" font-size="10.00"> s5 :SignalFlagPO </text>
<polygon fill="none" stroke="black" points="60,-148 60,-168 130,-168 130,-148 60,-148"/>
<text text-anchor="start" x="91.5" y="-156" font-family="Arial" font-size="10.00"> &#160;</text>
</g>
<!-- s3&#45;&#45;s5 -->
<g id="edge17" class="edge"><title>s3&#45;&#45;s5</title>
<path fill="none" stroke="black" d="M257.91,-233.523C227.733,-221.969 184.55,-205.248 147,-190 144.094,-188.82 141.101,-187.591 138.09,-186.344"/>
<text text-anchor="middle" x="148.08" y="-183.404" font-family="Arial" font-size="10.00">flag</text>
</g>
<!-- p9 -->
<g id="node6" class="node"><title>p9</title>
<polygon fill="deepskyblue" stroke="deepskyblue" points="746,-230.5 746,-267.5 806,-267.5 806,-230.5 746,-230.5"/>
<polygon fill="none" stroke="black" points="746,-250 746,-267 806,-267 806,-250 746,-250"/>
<text text-anchor="start" x="749.5" y="-256.5" font-family="Arial" font-size="10.00"> </text>
<text text-anchor="start" x="753.5" y="-256.5" font-family="Arial" font-size="10.00"> p9 :PersonPO </text>
<polygon fill="none" stroke="black" points="746,-230 746,-250 806,-250 806,-230 746,-230"/>
<text text-anchor="start" x="772.5" y="-238" font-family="Arial" font-size="10.00"> &#160;</text>
</g>
<!-- s3&#45;&#45;p9 -->
<g id="edge19" class="edge"><title>s3&#45;&#45;p9</title>
<path fill="none" stroke="red" d="M322.009,-271.709C342.82,-288.052 373.621,-308.341 405,-315 422.39,-318.691 707.61,-318.691 725,-315 746.106,-310.521 759.92,-288.898 767.781,-271.604"/>
<text text-anchor="middle" x="767.675" y="-279.104" font-family="Arial" font-size="10.00" fill="red">people</text>
</g>
<!-- s4 -->
<g id="node9" class="node"><title>s4</title>
<a xlink:href="../../SDMLib/src/org/sdmlib/examples/patternrewriteops/Station.java" xlink:title="&lt;TABLE&gt;">
<polygon fill="none" stroke="black" points="165,-158 165,-175 224,-175 224,-158 165,-158"/>
<text text-anchor="start" x="168.5" y="-164.5" font-family="Arial" font-size="10.00"> </text>
<text text-anchor="start" x="172.5" y="-164.5" font-family="Arial" font-size="10.00">s4 :Station</text>
</a>
</g>
<!-- s3&#45;&#45;s4 -->
<g id="edge5" class="edge"><title>s3&#45;&#45;s4</title>
<path fill="none" stroke="black" stroke-dasharray="1,5" d="M268.397,-226.351C251.877,-213.394 231.176,-197.158 215.807,-185.104"/>
<text text-anchor="middle" x="225.547" y="-184.872" font-family="Arial" font-size="10.00">match</text>
</g>
<!-- d7 -->
<g id="node4" class="node"><title>d7</title>
<text text-anchor="middle" x="27" y="-87.5" font-family="Arial" font-size="10.00" fill="red">destroy</text>
</g>
<!-- s5&#45;&#45;d7 -->
<g id="edge9" class="edge"><title>s5&#45;&#45;d7</title>
<path fill="none" stroke="red" stroke-dasharray="1,5" d="M75.3316,-144.307C64.9763,-132.886 52.45,-119.07 42.7447,-108.366"/>
</g>
<!-- s6 -->
<g id="node21" class="node"><title>s6</title>
<text text-anchor="middle" x="99" y="-87.5" font-family="Arial" font-size="10.00">s6</text>
</g>
<!-- s5&#45;&#45;s6 -->
<g id="edge7" class="edge"><title>s5&#45;&#45;s6</title>
<path fill="none" stroke="black" stroke-dasharray="1,5" d="M96.157,-144.307C96.7661,-132.886 97.5029,-119.07 98.0738,-108.366"/>
<text text-anchor="middle" x="101.811" y="-115.141" font-family="Arial" font-size="10.00">match</text>
</g>
<!-- p9&#45;&#45;t1 -->
<g id="edge21" class="edge"><title>p9&#45;&#45;t1</title>
<path fill="none" stroke="green" d="M766.818,-271.66C759.865,-285.273 748.945,-301.922 734,-311 691.977,-336.527 549.775,-344.532 478.475,-346.972"/>
<text text-anchor="middle" x="487.367" y="-339.895" font-family="Arial" font-size="10.00" fill="green">train</text>
</g>
<!-- allMatches_p9 -->
<g id="node7" class="node"><title>allMatches_p9</title>
<text text-anchor="middle" x="776" y="-164.5" font-family="Arial" font-size="10.00">allMatches</text>
</g>
<!-- p9&#45;&#45;allMatches_p9 -->
<g id="edge11" class="edge"><title>p9&#45;&#45;allMatches_p9</title>
<path fill="none" stroke="black" stroke-dasharray="1,5" d="M776,-226.14C776,-213.186 776,-197.013 776,-185.015"/>
</g>
<!-- p10 -->
<g id="node17" class="node"><title>p10</title>
<a xlink:href="../../SDMLib/src/org/sdmlib/examples/patternrewriteops/Person.java" xlink:title="&lt;TABLE&gt;">
<polygon fill="none" stroke="black" points="650,-158 650,-175 714,-175 714,-158 650,-158"/>
<text text-anchor="start" x="653.5" y="-164.5" font-family="Arial" font-size="10.00"> </text>
<text text-anchor="start" x="657.5" y="-164.5" font-family="Arial" font-size="10.00">p10 :Person</text>
</a>
</g>
<!-- p9&#45;&#45;p10 -->
<g id="edge13" class="edge"><title>p9&#45;&#45;p10</title>
<path fill="none" stroke="black" stroke-dasharray="1,5" d="M750.314,-226.14C735.094,-213.186 716.09,-197.013 701.992,-185.015"/>
<text text-anchor="middle" x="711.633" y="-185.17" font-family="Arial" font-size="10.00">match</text>
</g>
<!-- t2&#45;&#45;s4 -->
<g id="edge23" class="edge"><title>t2&#45;&#45;s4</title>
<path fill="none" stroke="black" d="M405.631,-240.273C366.526,-230.287 297.899,-211.596 241,-190 237.041,-188.497 232.952,-186.805 228.913,-185.043"/>
<text text-anchor="middle" x="238.909" y="-182.274" font-family="Arial" font-size="10.00">station</text>
<text text-anchor="middle" x="395.799" y="-239.596" font-family="Arial" font-size="10.00">trains</text>
</g>
<!-- p14 -->
<g id="node13" class="node"><title>p14</title>
<a xlink:href="../../SDMLib/src/org/sdmlib/examples/patternrewriteops/Person.java" xlink:title="&lt;TABLE&gt;">
<polygon fill="none" stroke="black" points="258,-158 258,-175 322,-175 322,-158 258,-158"/>
<text text-anchor="start" x="261.5" y="-164.5" font-family="Arial" font-size="10.00"> </text>
<text text-anchor="start" x="265.5" y="-164.5" font-family="Arial" font-size="10.00">p14 :Person</text>
</a>
</g>
<!-- t2&#45;&#45;p14 -->
<g id="edge25" class="edge"><title>t2&#45;&#45;p14</title>
<path fill="none" stroke="black" d="M405.465,-230.838C380.662,-217.34 346.272,-198.624 321.483,-185.134"/>
<text text-anchor="middle" x="331.464" y="-183.254" font-family="Arial" font-size="10.00">passengers</text>
<text text-anchor="middle" x="395.484" y="-227.718" font-family="Arial" font-size="10.00">train</text>
</g>
<!-- p15 -->
<g id="node14" class="node"><title>p15</title>
<a xlink:href="../../SDMLib/src/org/sdmlib/examples/patternrewriteops/Person.java" xlink:title="&lt;TABLE&gt;">
<polygon fill="none" stroke="black" points="356,-158 356,-175 420,-175 420,-158 356,-158"/>
<text text-anchor="start" x="359.5" y="-164.5" font-family="Arial" font-size="10.00"> </text>
<text text-anchor="start" x="363.5" y="-164.5" font-family="Arial" font-size="10.00">p15 :Person</text>
</a>
</g>
<!-- t2&#45;&#45;p15 -->
<g id="edge27" class="edge"><title>t2&#45;&#45;p15</title>
<path fill="none" stroke="black" d="M426.368,-230.641C418.092,-217.131 406.67,-198.482 398.443,-185.05"/>
<text text-anchor="middle" x="406.781" y="-188.071" font-family="Arial" font-size="10.00">passengers</text>
<text text-anchor="middle" x="418.03" y="-222.62" font-family="Arial" font-size="10.00">train</text>
</g>
<!-- p16 -->
<g id="node15" class="node"><title>p16</title>
<a xlink:href="../../SDMLib/src/org/sdmlib/examples/patternrewriteops/Person.java" xlink:title="&lt;TABLE&gt;">
<polygon fill="none" stroke="black" points="454,-158 454,-175 518,-175 518,-158 454,-158"/>
<text text-anchor="start" x="457.5" y="-164.5" font-family="Arial" font-size="10.00"> </text>
<text text-anchor="start" x="461.5" y="-164.5" font-family="Arial" font-size="10.00">p16 :Person</text>
</a>
</g>
<!-- t2&#45;&#45;p16 -->
<g id="edge29" class="edge"><title>t2&#45;&#45;p16</title>
<path fill="none" stroke="black" d="M447.632,-230.641C455.908,-217.131 467.33,-198.482 475.557,-185.05"/>
<text text-anchor="middle" x="474.427" y="-192.486" font-family="Arial" font-size="10.00">passengers</text>
<text text-anchor="middle" x="448.762" y="-218.205" font-family="Arial" font-size="10.00">train</text>
</g>
<!-- p17 -->
<g id="node16" class="node"><title>p17</title>
<a xlink:href="../../SDMLib/src/org/sdmlib/examples/patternrewriteops/Person.java" xlink:title="&lt;TABLE&gt;">
<polygon fill="none" stroke="black" points="552,-158 552,-175 616,-175 616,-158 552,-158"/>
<text text-anchor="start" x="555.5" y="-164.5" font-family="Arial" font-size="10.00"> </text>
<text text-anchor="start" x="559.5" y="-164.5" font-family="Arial" font-size="10.00">p17 :Person</text>
</a>
</g>
<!-- t2&#45;&#45;p17 -->
<g id="edge31" class="edge"><title>t2&#45;&#45;p17</title>
<path fill="none" stroke="black" d="M468.535,-230.838C493.338,-217.34 527.728,-198.624 552.517,-185.134"/>
<text text-anchor="middle" x="546.577" y="-190.678" font-family="Arial" font-size="10.00">passengers</text>
<text text-anchor="middle" x="474.476" y="-220.294" font-family="Arial" font-size="10.00">train</text>
</g>
<!-- t2&#45;&#45;p10 -->
<g id="edge33" class="edge"><title>t2&#45;&#45;p10</title>
<path fill="none" stroke="black" d="M468.313,-240.126C507.363,-229.99 575.933,-211.146 633,-190 637.11,-188.477 641.362,-186.772 645.566,-185.003"/>
<text text-anchor="middle" x="638.839" y="-189.902" font-family="Arial" font-size="10.00">passengers</text>
<text text-anchor="middle" x="476.007" y="-231.238" font-family="Arial" font-size="10.00">train</text>
</g>
<!-- s11 -->
<g id="node10" class="node"><title>s11</title>
<a xlink:href="../../SDMLib/src/org/sdmlib/examples/patternrewriteops/Station.java" xlink:title="&lt;TABLE&gt;">
<polygon fill="none" stroke="black" points="159,-81 159,-98 223,-98 223,-81 159,-81"/>
<text text-anchor="start" x="162.5" y="-87.5" font-family="Arial" font-size="10.00"> </text>
<text text-anchor="start" x="166.5" y="-87.5" font-family="Arial" font-size="10.00">s11 :Station</text>
</a>
</g>
<!-- s4&#45;&#45;s11 -->
<g id="edge35" class="edge"><title>s4&#45;&#45;s11</title>
<path fill="none" stroke="black" d="M193.319,-148.981C192.832,-136.794 192.178,-120.442 191.688,-108.211"/>
<text text-anchor="middle" x="196.273" y="-114.598" font-family="Arial" font-size="10.00">next</text>
<text text-anchor="middle" x="188.734" y="-137.594" font-family="Arial" font-size="10.00">prev</text>
</g>
<!-- s12 -->
<g id="node11" class="node"><title>s12</title>
<a xlink:href="../../SDMLib/src/org/sdmlib/examples/patternrewriteops/Station.java" xlink:title="&lt;TABLE&gt;">
<polygon fill="none" stroke="black" points="257,-81 257,-98 321,-98 321,-81 257,-81"/>
<text text-anchor="start" x="260.5" y="-87.5" font-family="Arial" font-size="10.00"> </text>
<text text-anchor="start" x="264.5" y="-87.5" font-family="Arial" font-size="10.00">s12 :Station</text>
</a>
</g>
<!-- s4&#45;&#45;s12 -->
<g id="edge37" class="edge"><title>s4&#45;&#45;s12</title>
<path fill="none" stroke="black" d="M215.557,-148.981C230.995,-136.794 251.707,-120.442 267.199,-108.211"/>
<text text-anchor="middle" x="262.705" y="-114.644" font-family="Arial" font-size="10.00">prev</text>
<text text-anchor="middle" x="220.052" y="-137.548" font-family="Arial" font-size="10.00">next</text>
</g>
<!-- s13 -->
<g id="node12" class="node"><title>s13</title>
<a xlink:href="../../SDMLib/src/org/sdmlib/examples/patternrewriteops/Station.java" xlink:title="&lt;TABLE&gt;">
<polygon fill="none" stroke="black" points="257,-9 257,-26 321,-26 321,-9 257,-9"/>
<text text-anchor="start" x="260.5" y="-15.5" font-family="Arial" font-size="10.00"> </text>
<text text-anchor="start" x="264.5" y="-15.5" font-family="Arial" font-size="10.00">s13 :Station</text>
</a>
</g>
<!-- s12&#45;&#45;s13 -->
<g id="edge39" class="edge"><title>s12&#45;&#45;s13</title>
<path fill="none" stroke="black" d="M289,-71.6966C289,-60.8463 289,-46.9167 289,-36.1043"/>
<text text-anchor="middle" x="293.226" y="-42.6674" font-family="Arial" font-size="10.00">prev</text>
<text text-anchor="middle" x="284.774" y="-60.1335" font-family="Arial" font-size="10.00">next</text>
</g>
</g>
</svg>
