<?xml version="1.0" encoding="UTF-8" standalone="no"?>
<!DOCTYPE svg PUBLIC "-//W3C//DTD SVG 1.1//EN"
 "http://www.w3.org/Graphics/SVG/1.1/DTD/svg11.dtd">
<!-- Generated by graphviz version 2.26.3 (20100126.1600)
 -->
<!-- Title: ObjectDiagram Pages: 1 -->
<svg width="682pt" height="459pt"
 viewBox="0.00 0.00 682.00 459.00" xmlns="http://www.w3.org/2000/svg" xmlns:xlink="http://www.w3.org/1999/xlink">
<g id="graph1" class="graph" transform="scale(1 1) rotate(0) translate(4 455)">
<title>ObjectDiagram</title>
<polygon fill="white" stroke="white" points="-4,5 -4,-455 679,-455 679,5 -4,5"/>
<g id="graph2" class="cluster"><title>cluster_o8</title>
<polygon fill="none" stroke="grey" points="552,-213 552,-383 666,-383 666,-213 552,-213"/>
<text text-anchor="start" x="570.5" y="-363.733" font-family="Times Roman,serif" font-size="14.00">optional o8</text>
</g>
<!-- t1 -->
<g id="node1" class="node"><title>t1</title>
<polygon fill="deepskyblue" stroke="deepskyblue" points="314.5,-395.5 314.5,-446.5 383.5,-446.5 383.5,-395.5 314.5,-395.5"/>
<text text-anchor="start" x="339" y="-436.167" font-family="Times Roman,serif" font-size="10.00">«bound»</text>
<polygon fill="none" stroke="black" points="315,-415 315,-431 384,-431 384,-415 315,-415"/>
<text text-anchor="start" x="318.5" y="-420.667" font-family="Times Roman,serif" font-size="10.00"> </text>
<text text-anchor="start" x="322.5" y="-420.667" font-family="Times Roman,serif" font-size="10.00"> t1 :TrainPO </text>
<polygon fill="none" stroke="black" points="315,-395 315,-415 384,-415 384,-395 315,-395"/>
<text text-anchor="start" x="346" y="-402.667" font-family="Times Roman,serif" font-size="10.00"> &#160;</text>
</g>
<!-- s3 -->
<g id="node2" class="node"><title>s3</title>
<polygon fill="deepskyblue" stroke="deepskyblue" points="208.5,-302.5 208.5,-339.5 291.5,-339.5 291.5,-302.5 208.5,-302.5"/>
<polygon fill="none" stroke="black" points="209,-322 209,-339 292,-339 292,-322 209,-322"/>
<text text-anchor="start" x="212.5" y="-328.167" font-family="Times Roman,serif" font-size="10.00"> </text>
<text text-anchor="start" x="216.5" y="-328.167" font-family="Times Roman,serif" font-size="10.00"> s3 :StationPO </text>
<polygon fill="none" stroke="black" points="209,-302 209,-322 292,-322 292,-302 209,-302"/>
<text text-anchor="start" x="247" y="-309.667" font-family="Times Roman,serif" font-size="10.00"> &#160;</text>
</g>
<!-- t1&#45;&#45;s3 -->
<g id="edge15" class="edge"><title>t1&#45;&#45;s3</title>
<path fill="none" stroke="black" d="M316.566,-391.342C313.644,-388.549 310.751,-385.739 308,-383 295.255,-370.314 281.485,-355.639 270.562,-343.751"/>
<text text-anchor="middle" x="279.811" y="-344.552" font-family="Times Roman,serif" font-size="10.00">station</text>
</g>
<!-- t2 -->
<g id="node8" class="node"><title>t2</title>
<polygon fill="none" stroke="black" points="325,-312 325,-329 374,-329 374,-312 325,-312"/>
<text text-anchor="start" x="328.5" y="-318.167" font-family="Times Roman,serif" font-size="10.00"> </text>
<text text-anchor="start" x="332.5" y="-318.167" font-family="Times Roman,serif" font-size="10.00">t2 :Train</text>
</g>
<!-- t1&#45;&#45;t2 -->
<g id="edge3" class="edge"><title>t1&#45;&#45;t2</title>
<path fill="none" stroke="black" stroke-dasharray="1,5" d="M349,-391.267C349,-374.341 349,-353.684 349,-339.163"/>
<text text-anchor="middle" x="353.226" y="-345.226" font-family="Times Roman,serif" font-size="10.00">match</text>
</g>
<!-- s5 -->
<g id="node3" class="node"><title>s5</title>
<polygon fill="deepskyblue" stroke="deepskyblue" points="37.5,-220.5 37.5,-257.5 134.5,-257.5 134.5,-220.5 37.5,-220.5"/>
<polygon fill="none" stroke="black" points="38,-240 38,-257 135,-257 135,-240 38,-240"/>
<text text-anchor="start" x="41.5" y="-246.167" font-family="Times Roman,serif" font-size="10.00"> </text>
<text text-anchor="start" x="45.5" y="-246.167" font-family="Times Roman,serif" font-size="10.00"> s5 :SignalFlagPO </text>
<polygon fill="none" stroke="black" points="38,-220 38,-240 135,-240 135,-220 38,-220"/>
<text text-anchor="start" x="83" y="-227.667" font-family="Times Roman,serif" font-size="10.00"> &#160;</text>
</g>
<!-- s3&#45;&#45;s5 -->
<g id="edge17" class="edge"><title>s3&#45;&#45;s5</title>
<path fill="none" stroke="black" d="M204.752,-298.376C181.808,-286.904 154.024,-273.012 131.1,-261.55"/>
<text text-anchor="middle" x="141.096" y="-258.823" font-family="Times Roman,serif" font-size="10.00">flag</text>
</g>
<!-- p9 -->
<g id="node6" class="node"><title>p9</title>
<polygon fill="deepskyblue" stroke="deepskyblue" points="568,-302.5 568,-339.5 650,-339.5 650,-302.5 568,-302.5"/>
<polygon fill="none" stroke="black" points="568,-322 568,-339 650,-339 650,-322 568,-322"/>
<text text-anchor="start" x="571.5" y="-328.167" font-family="Times Roman,serif" font-size="10.00"> </text>
<text text-anchor="start" x="575.5" y="-328.167" font-family="Times Roman,serif" font-size="10.00"> p9 :PersonPO </text>
<polygon fill="none" stroke="black" points="568,-302 568,-322 650,-322 650,-302 568,-302"/>
<text text-anchor="start" x="605.5" y="-309.667" font-family="Times Roman,serif" font-size="10.00"> &#160;</text>
</g>
<!-- s3&#45;&#45;p9 -->
<g id="edge19" class="edge"><title>s3&#45;&#45;p9</title>
<path fill="none" stroke="red" d="M263.091,-343.65C274.662,-360.708 293.361,-381.984 317,-387 341.999,-392.305 522.001,-392.305 547,-387 569.76,-382.17 586.926,-360.866 597.359,-343.75"/>
<text text-anchor="middle" x="596.064" y="-350.665" font-family="Times Roman,serif" font-size="10.00" fill="red">people</text>
</g>
<!-- s4 -->
<g id="node9" class="node"><title>s4</title>
<polygon fill="none" stroke="black" points="168,-230 168,-247 231,-247 231,-230 168,-230"/>
<text text-anchor="start" x="171.5" y="-236.167" font-family="Times Roman,serif" font-size="10.00"> </text>
<text text-anchor="start" x="175.5" y="-236.167" font-family="Times Roman,serif" font-size="10.00">s4 :Station</text>
</g>
<!-- s3&#45;&#45;s4 -->
<g id="edge5" class="edge"><title>s3&#45;&#45;s4</title>
<path fill="none" stroke="black" stroke-dasharray="1,5" d="M235.794,-298.158C227.718,-285.174 217.748,-269.144 210.225,-257.048"/>
<text text-anchor="middle" x="218.6" y="-259.512" font-family="Times Roman,serif" font-size="10.00">match</text>
</g>
<!-- d7 -->
<g id="node4" class="node"><title>d7</title>
<text text-anchor="middle" x="27" y="-159" font-family="Times Roman,serif" font-size="10.00" fill="red">destroy</text>
</g>
<!-- s5&#45;&#45;d7 -->
<g id="edge9" class="edge"><title>s5&#45;&#45;d7</title>
<path fill="none" stroke="red" stroke-dasharray="1,5" d="M68.6172,-216.314C59.7794,-204.78 49.1856,-190.954 40.8981,-180.138"/>
</g>
<!-- s6 -->
<g id="node22" class="node"><title>s6</title>
<text text-anchor="middle" x="99" y="-159" font-family="Times Roman,serif" font-size="10.00">s6</text>
</g>
<!-- s5&#45;&#45;s6 -->
<g id="edge7" class="edge"><title>s5&#45;&#45;s6</title>
<path fill="none" stroke="black" stroke-dasharray="1,5" d="M89.8301,-216.314C91.7774,-204.78 94.1117,-190.954 95.9377,-180.138"/>
<text text-anchor="middle" x="98.5961" y="-186.778" font-family="Times Roman,serif" font-size="10.00">match</text>
</g>
<!-- p9&#45;&#45;t1 -->
<g id="edge21" class="edge"><title>p9&#45;&#45;t1</title>
<path fill="none" stroke="green" d="M595.355,-343.675C585.988,-357.233 572.321,-373.601 556,-383 528.533,-398.819 443.217,-410.65 391.08,-416.633"/>
<text text-anchor="middle" x="399.58" y="-408.366" font-family="Times Roman,serif" font-size="10.00" fill="green">train</text>
</g>
<!-- allMatches_p9 -->
<g id="node7" class="node"><title>allMatches_p9</title>
<text text-anchor="middle" x="609" y="-236" font-family="Times Roman,serif" font-size="10.00">allMatches</text>
</g>
<!-- p9&#45;&#45;allMatches_p9 -->
<g id="edge11" class="edge"><title>p9&#45;&#45;allMatches_p9</title>
<path fill="none" stroke="black" stroke-dasharray="1,5" d="M609,-298.158C609,-285.174 609,-269.144 609,-257.048"/>
</g>
<!-- p10 -->
<g id="node18" class="node"><title>p10</title>
<polygon fill="none" stroke="black" points="468,-230 468,-247 536,-247 536,-230 468,-230"/>
<text text-anchor="start" x="471.5" y="-236.167" font-family="Times Roman,serif" font-size="10.00"> </text>
<text text-anchor="start" x="475.5" y="-236.167" font-family="Times Roman,serif" font-size="10.00">p10 :Person</text>
</g>
<!-- p9&#45;&#45;p10 -->
<g id="edge13" class="edge"><title>p9&#45;&#45;p10</title>
<path fill="none" stroke="black" stroke-dasharray="1,5" d="M579.479,-298.376C562.529,-285.387 541.532,-269.295 525.673,-257.142"/>
<text text-anchor="middle" x="535.437" y="-256.3" font-family="Times Roman,serif" font-size="10.00">match</text>
</g>
<!-- t2&#45;&#45;s4 -->
<g id="edge23" class="edge"><title>t2&#45;&#45;s4</title>
<path fill="none" stroke="black" d="M316.797,-302.874C313.826,-301.22 310.859,-299.576 308,-298 282.935,-284.187 254.494,-268.802 232.95,-257.206"/>
<text text-anchor="middle" x="242.933" y="-254.783" font-family="Times Roman,serif" font-size="10.00">station</text>
<text text-anchor="middle" x="306.822" y="-299.16" font-family="Times Roman,serif" font-size="10.00">trains</text>
</g>
<!-- p17 -->
<g id="node16" class="node"><title>p17</title>
<polygon fill="none" stroke="black" points="264,-230 264,-247 332,-247 332,-230 264,-230"/>
<text text-anchor="start" x="267.5" y="-236.167" font-family="Times Roman,serif" font-size="10.00"> </text>
<text text-anchor="start" x="271.5" y="-236.167" font-family="Times Roman,serif" font-size="10.00">p17 :Person</text>
</g>
<!-- t2&#45;&#45;p17 -->
<g id="edge25" class="edge"><title>t2&#45;&#45;p17</title>
<path fill="none" stroke="black" d="M337.681,-302.802C329.23,-289.213 317.731,-270.724 309.287,-257.148"/>
<text text-anchor="middle" x="317.662" y="-259.612" font-family="Times Roman,serif" font-size="10.00">passengers</text>
<text text-anchor="middle" x="329.306" y="-294.338" font-family="Times Roman,serif" font-size="10.00">train</text>
</g>
<!-- p18 -->
<g id="node17" class="node"><title>p18</title>
<polygon fill="none" stroke="black" points="366,-230 366,-247 434,-247 434,-230 366,-230"/>
<text text-anchor="start" x="369.5" y="-236.167" font-family="Times Roman,serif" font-size="10.00"> </text>
<text text-anchor="start" x="373.5" y="-236.167" font-family="Times Roman,serif" font-size="10.00">p18 :Person</text>
</g>
<!-- t2&#45;&#45;p18 -->
<g id="edge27" class="edge"><title>t2&#45;&#45;p18</title>
<path fill="none" stroke="black" d="M360.319,-302.802C368.77,-289.213 380.269,-270.724 388.713,-257.148"/>
<text text-anchor="middle" x="387.515" y="-264.076" font-family="Times Roman,serif" font-size="10.00">passengers</text>
<text text-anchor="middle" x="361.516" y="-289.874" font-family="Times Roman,serif" font-size="10.00">train</text>
</g>
<!-- t2&#45;&#45;p10 -->
<g id="edge29" class="edge"><title>t2&#45;&#45;p10</title>
<path fill="none" stroke="black" d="M381.074,-303.81C406.661,-290.097 442.394,-270.945 468.379,-257.019"/>
<text text-anchor="middle" x="462.387" y="-262.025" font-family="Times Roman,serif" font-size="10.00">passengers</text>
<text text-anchor="middle" x="387.066" y="-292.804" font-family="Times Roman,serif" font-size="10.00">train</text>
</g>
<!-- s11 -->
<g id="node10" class="node"><title>s11</title>
<polygon fill="none" stroke="black" points="165,-153 165,-170 234,-170 234,-153 165,-153"/>
<text text-anchor="start" x="168.5" y="-159.167" font-family="Times Roman,serif" font-size="10.00"> </text>
<text text-anchor="start" x="172.5" y="-159.167" font-family="Times Roman,serif" font-size="10.00">s11 :Station</text>
</g>
<!-- s4&#45;&#45;s11 -->
<g id="edge31" class="edge"><title>s4&#45;&#45;s11</title>
<path fill="none" stroke="black" d="M199,-220.752C199,-208.478 199,-192.364 199,-180.117"/>
<text text-anchor="middle" x="203.226" y="-186.18" font-family="Times Roman,serif" font-size="10.00">next</text>
<text text-anchor="middle" x="194.774" y="-208.689" font-family="Times Roman,serif" font-size="10.00">prev</text>
</g>
<!-- s12 -->
<g id="node11" class="node"><title>s12</title>
<polygon fill="none" stroke="black" points="165,-81 165,-98 234,-98 234,-81 165,-81"/>
<text text-anchor="start" x="168.5" y="-87.1667" font-family="Times Roman,serif" font-size="10.00"> </text>
<text text-anchor="start" x="172.5" y="-87.1667" font-family="Times Roman,serif" font-size="10.00">s12 :Station</text>
</g>
<!-- s11&#45;&#45;s12 -->
<g id="edge33" class="edge"><title>s11&#45;&#45;s12</title>
<path fill="none" stroke="black" d="M199,-143.831C199,-133 199,-119.288 199,-108.413"/>
<text text-anchor="middle" x="203.226" y="-114.476" font-family="Times Roman,serif" font-size="10.00">next</text>
<text text-anchor="middle" x="194.774" y="-131.768" font-family="Times Roman,serif" font-size="10.00">prev</text>
</g>
<!-- s13 -->
<g id="node12" class="node"><title>s13</title>
<polygon fill="none" stroke="black" points="12,-9 12,-26 81,-26 81,-9 12,-9"/>
<text text-anchor="start" x="15.5" y="-15.1667" font-family="Times Roman,serif" font-size="10.00"> </text>
<text text-anchor="start" x="19.5" y="-15.1667" font-family="Times Roman,serif" font-size="10.00">s13 :Station</text>
</g>
<!-- s12&#45;&#45;s13 -->
<g id="edge35" class="edge"><title>s12&#45;&#45;s13</title>
<path fill="none" stroke="black" d="M160.392,-71.8314C137.109,-60.875 107.563,-46.9708 84.3307,-36.038"/>
<text text-anchor="middle" x="94.3307" y="-33.0731" font-family="Times Roman,serif" font-size="10.00">next</text>
<text text-anchor="middle" x="150.392" y="-68.7963" font-family="Times Roman,serif" font-size="10.00">prev</text>
</g>
<!-- p14 -->
<g id="node13" class="node"><title>p14</title>
<polygon fill="none" stroke="black" points="114,-9 114,-26 182,-26 182,-9 114,-9"/>
<text text-anchor="start" x="117.5" y="-15.1667" font-family="Times Roman,serif" font-size="10.00"> </text>
<text text-anchor="start" x="121.5" y="-15.1667" font-family="Times Roman,serif" font-size="10.00">p14 :Person</text>
</g>
<!-- s12&#45;&#45;p14 -->
<g id="edge37" class="edge"><title>s12&#45;&#45;p14</title>
<path fill="none" stroke="black" d="M186.131,-71.8314C178.458,-61 168.745,-47.2876 161.043,-36.4133"/>
<text text-anchor="middle" x="169.73" y="-38.3662" font-family="Times Roman,serif" font-size="10.00">people</text>
<text text-anchor="middle" x="177.443" y="-63.8785" font-family="Times Roman,serif" font-size="10.00">station</text>
</g>
<!-- p15 -->
<g id="node14" class="node"><title>p15</title>
<polygon fill="none" stroke="black" points="216,-9 216,-26 284,-26 284,-9 216,-9"/>
<text text-anchor="start" x="219.5" y="-15.1667" font-family="Times Roman,serif" font-size="10.00"> </text>
<text text-anchor="start" x="223.5" y="-15.1667" font-family="Times Roman,serif" font-size="10.00">p15 :Person</text>
</g>
<!-- s12&#45;&#45;p15 -->
<g id="edge39" class="edge"><title>s12&#45;&#45;p15</title>
<path fill="none" stroke="black" d="M211.869,-71.8314C219.542,-61 229.255,-47.2876 236.957,-36.4133"/>
<text text-anchor="middle" x="235.167" y="-43.2518" font-family="Times Roman,serif" font-size="10.00">people</text>
<text text-anchor="middle" x="213.659" y="-58.9929" font-family="Times Roman,serif" font-size="10.00">station</text>
</g>
<!-- s16 -->
<g id="node15" class="node"><title>s16</title>
<polygon fill="none" stroke="black" points="318,-9 318,-26 402,-26 402,-9 318,-9"/>
<text text-anchor="start" x="321.5" y="-15.1667" font-family="Times Roman,serif" font-size="10.00"> </text>
<text text-anchor="start" x="325.5" y="-15.1667" font-family="Times Roman,serif" font-size="10.00">s16 :SignalFlag</text>
</g>
<!-- s12&#45;&#45;s16 -->
<g id="edge41" class="edge"><title>s12&#45;&#45;s16</title>
<path fill="none" stroke="black" d="M239.627,-71.8314C264.127,-60.875 295.218,-46.9708 319.665,-36.038"/>
<text text-anchor="middle" x="313.117" y="-40.5959" font-family="Times Roman,serif" font-size="10.00">flag</text>
<text text-anchor="middle" x="246.175" y="-61.2735" font-family="Times Roman,serif" font-size="10.00">station</text>
</g>
</g>
</svg>
