<?xml version="1.0" encoding="UTF-8" standalone="no"?>
<!DOCTYPE svg PUBLIC "-//W3C//DTD SVG 1.1//EN"
 "http://www.w3.org/Graphics/SVG/1.1/DTD/svg11.dtd">
<!-- Generated by graphviz version 2.28.0 (20110507.0327)
 -->
<!-- Title: ObjectDiagram Pages: 1 -->
<svg width="684pt" height="434pt"
 viewBox="0.00 0.00 684.00 434.00" xmlns="http://www.w3.org/2000/svg" xmlns:xlink="http://www.w3.org/1999/xlink">
<g id="graph1" class="graph" transform="scale(1 1) rotate(0) translate(4 430)">
<title>ObjectDiagram</title>
<polygon fill="white" stroke="white" points="-4,5 -4,-430 681,-430 681,5 -4,5"/>
<!-- t1 -->
<g id="node1" class="node"><title>t1</title>
<polygon fill="deepskyblue" stroke="deepskyblue" points="217,-384.5 217,-421.5 273,-421.5 273,-384.5 217,-384.5"/>
<polygon fill="none" stroke="black" points="217,-404 217,-421 273,-421 273,-404 217,-404"/>
<text text-anchor="start" x="220.5" y="-410.5" font-family="Arial" font-size="10.00"> </text>
<text text-anchor="start" x="224.5" y="-410.5" font-family="Arial" font-size="10.00"> t1 :TrainPO </text>
<polygon fill="none" stroke="black" points="217,-384 217,-404 273,-404 273,-384 217,-384"/>
<text text-anchor="start" x="241.5" y="-392" font-family="Arial" font-size="10.00"> &#160;</text>
</g>
<!-- s3 -->
<g id="node2" class="node"><title>s3</title>
<polygon fill="deepskyblue" stroke="deepskyblue" points="115.5,-302.5 115.5,-339.5 180.5,-339.5 180.5,-302.5 115.5,-302.5"/>
<polygon fill="none" stroke="black" points="116,-322 116,-339 181,-339 181,-322 116,-322"/>
<text text-anchor="start" x="119.5" y="-328.5" font-family="Arial" font-size="10.00"> </text>
<text text-anchor="start" x="123.5" y="-328.5" font-family="Arial" font-size="10.00"> s3 :StationPO </text>
<polygon fill="none" stroke="black" points="116,-302 116,-322 181,-322 181,-302 116,-302"/>
<text text-anchor="start" x="145" y="-310" font-family="Arial" font-size="10.00"> &#160;</text>
</g>
<!-- t1&#45;&#45;s3 -->
<g id="edge9" class="edge"><title>t1&#45;&#45;s3</title>
<path fill="none" stroke="black" d="M218.75,-380.351C204.948,-368.967 188.076,-355.052 174.271,-343.666"/>
<text text-anchor="middle" x="183.951" y="-343.673" font-family="Arial" font-size="10.00">station</text>
</g>
<!-- t2 -->
<g id="node6" class="node"><title>t2</title>
<a xlink:href="../../SDMLib/src/org/sdmlib/examples/patternrewriteops/model/Train.java" xlink:title="&lt;TABLE&gt;">
<polygon fill="none" stroke="black" points="319,-312 319,-329 366,-329 366,-312 319,-312"/>
<text text-anchor="start" x="322.5" y="-318.5" font-family="Arial" font-size="10.00"> </text>
<text text-anchor="start" x="326.5" y="-318.5" font-family="Arial" font-size="10.00">t2 :Train</text>
</a>
</g>
<!-- t1&#45;&#45;t2 -->
<g id="edge3" class="edge"><title>t1&#45;&#45;t2</title>
<path fill="none" stroke="black" stroke-dasharray="1,5" d="M271.25,-380.351C286.96,-367.394 306.646,-351.158 321.262,-339.104"/>
<text text-anchor="middle" x="316.959" y="-345.631" font-family="Arial" font-size="10.00">match</text>
</g>
<!-- s5 -->
<g id="node3" class="node"><title>s5</title>
<polygon fill="deepskyblue" stroke="deepskyblue" points="7.5,-220.5 7.5,-257.5 84.5,-257.5 84.5,-220.5 7.5,-220.5"/>
<polygon fill="none" stroke="black" points="8,-240 8,-257 85,-257 85,-240 8,-240"/>
<text text-anchor="start" x="11.5" y="-246.5" font-family="Arial" font-size="10.00"> </text>
<text text-anchor="start" x="15.5" y="-246.5" font-family="Arial" font-size="10.00"> s5 :SignalFlagPO </text>
<polygon fill="none" stroke="black" points="8,-220 8,-240 85,-240 85,-220 8,-220"/>
<text text-anchor="start" x="43" y="-228" font-family="Arial" font-size="10.00"> &#160;</text>
</g>
<!-- s3&#45;&#45;s5 -->
<g id="edge11" class="edge"><title>s3&#45;&#45;s5</title>
<path fill="none" stroke="black" d="M120.397,-298.351C105.883,-286.967 88.1419,-273.052 73.6247,-261.666"/>
<text text-anchor="middle" x="83.3642" y="-261.434" font-family="Arial" font-size="10.00">flag</text>
</g>
<!-- s4 -->
<g id="node7" class="node"><title>s4</title>
<a xlink:href="../../SDMLib/src/org/sdmlib/examples/patternrewriteops/model/Station.java" xlink:title="&lt;TABLE&gt;">
<polygon fill="none" stroke="black" points="119,-230 119,-247 178,-247 178,-230 119,-230"/>
<text text-anchor="start" x="122.5" y="-236.5" font-family="Arial" font-size="10.00"> </text>
<text text-anchor="start" x="126.5" y="-236.5" font-family="Arial" font-size="10.00">s4 :Station</text>
</a>
</g>
<!-- s3&#45;&#45;s4 -->
<g id="edge5" class="edge"><title>s3&#45;&#45;s4</title>
<path fill="none" stroke="black" stroke-dasharray="1,5" d="M148,-298.14C148,-285.186 148,-269.013 148,-257.015"/>
<text text-anchor="middle" x="152.226" y="-263.578" font-family="Arial" font-size="10.00">match</text>
</g>
<!-- d6 -->
<g id="node4" class="node"><title>d6</title>
<text text-anchor="middle" x="46" y="-159.5" font-family="Arial" font-size="10.00" fill="red">destroy</text>
</g>
<!-- s5&#45;&#45;d6 -->
<g id="edge7" class="edge"><title>s5&#45;&#45;d6</title>
<path fill="none" stroke="red" stroke-dasharray="1,5" d="M46,-216.307C46,-204.886 46,-191.07 46,-180.366"/>
</g>
<!-- t2&#45;&#45;s4 -->
<g id="edge23" class="edge"><title>t2&#45;&#45;s4</title>
<path fill="none" stroke="black" d="M310.513,-308.225C280.59,-296.882 234.433,-278.989 195,-262 191.359,-260.432 187.582,-258.752 183.822,-257.047"/>
<text text-anchor="middle" x="193.821" y="-254.434" font-family="Arial" font-size="10.00">station</text>
<text text-anchor="middle" x="300.539" y="-306.452" font-family="Arial" font-size="10.00">trains</text>
</g>
<!-- p11 -->
<g id="node11" class="node"><title>p11</title>
<a xlink:href="../../SDMLib/src/org/sdmlib/examples/patternrewriteops/model/Person.java" xlink:title="&lt;TABLE&gt;">
<polygon fill="none" stroke="black" points="212,-230 212,-247 276,-247 276,-230 212,-230"/>
<text text-anchor="start" x="215.5" y="-236.5" font-family="Arial" font-size="10.00"> </text>
<text text-anchor="start" x="219.5" y="-236.5" font-family="Arial" font-size="10.00">p11 :Person</text>
</a>
</g>
<!-- t2&#45;&#45;p11 -->
<g id="edge13" class="edge"><title>t2&#45;&#45;p11</title>
<path fill="none" stroke="black" d="M320.735,-302.641C304.185,-289.131 281.34,-270.482 264.886,-257.05"/>
<text text-anchor="middle" x="274.58" y="-257.008" font-family="Arial" font-size="10.00">passengers</text>
<text text-anchor="middle" x="311.042" y="-297.684" font-family="Arial" font-size="10.00">train</text>
</g>
<!-- p12 -->
<g id="node12" class="node"><title>p12</title>
<a xlink:href="../../SDMLib/src/org/sdmlib/examples/patternrewriteops/model/Person.java" xlink:title="&lt;TABLE&gt;">
<polygon fill="none" stroke="black" points="310,-230 310,-247 374,-247 374,-230 310,-230"/>
<text text-anchor="start" x="313.5" y="-236.5" font-family="Arial" font-size="10.00"> </text>
<text text-anchor="start" x="317.5" y="-236.5" font-family="Arial" font-size="10.00">p12 :Person</text>
</a>
</g>
<!-- t2&#45;&#45;p12 -->
<g id="edge15" class="edge"><title>t2&#45;&#45;p12</title>
<path fill="none" stroke="black" d="M342,-302.641C342,-289.131 342,-270.482 342,-257.05"/>
<text text-anchor="middle" x="346.226" y="-263.613" font-family="Arial" font-size="10.00">passengers</text>
<text text-anchor="middle" x="337.774" y="-291.078" font-family="Arial" font-size="10.00">train</text>
</g>
<!-- p13 -->
<g id="node13" class="node"><title>p13</title>
<a xlink:href="../../SDMLib/src/org/sdmlib/examples/patternrewriteops/model/Person.java" xlink:title="&lt;TABLE&gt;">
<polygon fill="none" stroke="black" points="408,-230 408,-247 472,-247 472,-230 408,-230"/>
<text text-anchor="start" x="411.5" y="-236.5" font-family="Arial" font-size="10.00"> </text>
<text text-anchor="start" x="415.5" y="-236.5" font-family="Arial" font-size="10.00">p13 :Person</text>
</a>
</g>
<!-- t2&#45;&#45;p13 -->
<g id="edge17" class="edge"><title>t2&#45;&#45;p13</title>
<path fill="none" stroke="black" d="M363.265,-302.641C379.815,-289.131 402.66,-270.482 419.114,-257.05"/>
<text text-anchor="middle" x="414.765" y="-263.555" font-family="Arial" font-size="10.00">passengers</text>
<text text-anchor="middle" x="367.613" y="-291.136" font-family="Arial" font-size="10.00">train</text>
</g>
<!-- p14 -->
<g id="node14" class="node"><title>p14</title>
<a xlink:href="../../SDMLib/src/org/sdmlib/examples/patternrewriteops/model/Person.java" xlink:title="&lt;TABLE&gt;">
<polygon fill="none" stroke="black" points="506,-230 506,-247 570,-247 570,-230 506,-230"/>
<text text-anchor="start" x="509.5" y="-236.5" font-family="Arial" font-size="10.00"> </text>
<text text-anchor="start" x="513.5" y="-236.5" font-family="Arial" font-size="10.00">p14 :Person</text>
</a>
</g>
<!-- t2&#45;&#45;p14 -->
<g id="edge19" class="edge"><title>t2&#45;&#45;p14</title>
<path fill="none" stroke="black" d="M373.427,-308.083C403.307,-296.64 449.435,-278.677 489,-262 492.695,-260.443 496.531,-258.788 500.357,-257.112"/>
<text text-anchor="middle" x="493.747" y="-262.116" font-family="Arial" font-size="10.00">passengers</text>
<text text-anchor="middle" x="380.372" y="-298.389" font-family="Arial" font-size="10.00">train</text>
</g>
<!-- p15 -->
<g id="node15" class="node"><title>p15</title>
<a xlink:href="../../SDMLib/src/org/sdmlib/examples/patternrewriteops/model/Person.java" xlink:title="&lt;TABLE&gt;">
<polygon fill="none" stroke="black" points="604,-230 604,-247 668,-247 668,-230 604,-230"/>
<text text-anchor="start" x="607.5" y="-236.5" font-family="Arial" font-size="10.00"> </text>
<text text-anchor="start" x="611.5" y="-236.5" font-family="Arial" font-size="10.00">p15 :Person</text>
</a>
</g>
<!-- t2&#45;&#45;p15 -->
<g id="edge21" class="edge"><title>t2&#45;&#45;p15</title>
<path fill="none" stroke="black" d="M373.473,-314.53C420.629,-305.894 512.082,-287.429 587,-262 591.327,-260.531 595.792,-258.819 600.185,-257.01"/>
<text text-anchor="middle" x="593.396" y="-261.852" font-family="Arial" font-size="10.00">passengers</text>
<text text-anchor="middle" x="381.605" y="-306.21" font-family="Arial" font-size="10.00">train</text>
</g>
<!-- s8 -->
<g id="node8" class="node"><title>s8</title>
<a xlink:href="../../SDMLib/src/org/sdmlib/examples/patternrewriteops/model/Station.java" xlink:title="&lt;TABLE&gt;">
<polygon fill="none" stroke="black" points="119,-153 119,-170 178,-170 178,-153 119,-153"/>
<text text-anchor="start" x="122.5" y="-159.5" font-family="Arial" font-size="10.00"> </text>
<text text-anchor="start" x="126.5" y="-159.5" font-family="Arial" font-size="10.00">s8 :Station</text>
</a>
</g>
<!-- s4&#45;&#45;s8 -->
<g id="edge25" class="edge"><title>s4&#45;&#45;s8</title>
<path fill="none" stroke="black" d="M148,-220.981C148,-208.794 148,-192.442 148,-180.211"/>
<text text-anchor="middle" x="152.226" y="-186.774" font-family="Arial" font-size="10.00">prev</text>
<text text-anchor="middle" x="143.774" y="-209.418" font-family="Arial" font-size="10.00">next</text>
</g>
<!-- s9 -->
<g id="node9" class="node"><title>s9</title>
<a xlink:href="../../SDMLib/src/org/sdmlib/examples/patternrewriteops/model/Station.java" xlink:title="&lt;TABLE&gt;">
<polygon fill="none" stroke="black" points="119,-81 119,-98 178,-98 178,-81 119,-81"/>
<text text-anchor="start" x="122.5" y="-87.5" font-family="Arial" font-size="10.00"> </text>
<text text-anchor="start" x="126.5" y="-87.5" font-family="Arial" font-size="10.00">s9 :Station</text>
</a>
</g>
<!-- s8&#45;&#45;s9 -->
<g id="edge27" class="edge"><title>s8&#45;&#45;s9</title>
<path fill="none" stroke="black" d="M148,-143.697C148,-132.846 148,-118.917 148,-108.104"/>
<text text-anchor="middle" x="152.226" y="-114.667" font-family="Arial" font-size="10.00">prev</text>
<text text-anchor="middle" x="143.774" y="-132.134" font-family="Arial" font-size="10.00">next</text>
</g>
<!-- s10 -->
<g id="node10" class="node"><title>s10</title>
<a xlink:href="../../SDMLib/src/org/sdmlib/examples/patternrewriteops/model/Station.java" xlink:title="&lt;TABLE&gt;">
<polygon fill="none" stroke="black" points="116,-9 116,-26 180,-26 180,-9 116,-9"/>
<text text-anchor="start" x="119.5" y="-15.5" font-family="Arial" font-size="10.00"> </text>
<text text-anchor="start" x="123.5" y="-15.5" font-family="Arial" font-size="10.00">s10 :Station</text>
</a>
</g>
<!-- s9&#45;&#45;s10 -->
<g id="edge29" class="edge"><title>s9&#45;&#45;s10</title>
<path fill="none" stroke="black" d="M148,-71.6966C148,-60.8463 148,-46.9167 148,-36.1043"/>
<text text-anchor="middle" x="152.226" y="-42.6674" font-family="Arial" font-size="10.00">prev</text>
<text text-anchor="middle" x="143.774" y="-60.1335" font-family="Arial" font-size="10.00">next</text>
</g>
</g>
</svg>
