<?xml version="1.0" encoding="UTF-8" standalone="no"?>
<!DOCTYPE svg PUBLIC "-//W3C//DTD SVG 1.1//EN"
 "http://www.w3.org/Graphics/SVG/1.1/DTD/svg11.dtd">
<!-- Generated by graphviz version 2.28.0 (20110507.0327)
 -->
<!-- Title: ObjectDiagram Pages: 1 -->
<svg width="618pt" height="362pt"
 viewBox="0.00 0.00 618.00 362.00" xmlns="http://www.w3.org/2000/svg" xmlns:xlink="http://www.w3.org/1999/xlink">
<g id="graph1" class="graph" transform="scale(1 1) rotate(0) translate(4 358)">
<title>ObjectDiagram</title>
<polygon fill="white" stroke="white" points="-4,5 -4,-358 615,-358 615,5 -4,5"/>
<!-- t1 -->
<g id="node1" class="node"><title>t1</title>
<polygon fill="deepskyblue" stroke="deepskyblue" points="291.5,-312.5 291.5,-349.5 358.5,-349.5 358.5,-312.5 291.5,-312.5"/>
<polygon fill="none" stroke="black" points="292,-332 292,-349 359,-349 359,-332 292,-332"/>
<text text-anchor="start" x="295.5" y="-338.5" font-family="Arial" font-size="10.00"> </text>
<text text-anchor="start" x="299.5" y="-338.5" font-family="Arial" font-size="10.00"> t1 :TrainPO </text>
<polygon fill="none" stroke="black" points="292,-312 292,-332 359,-332 359,-312 292,-312"/>
<text text-anchor="start" x="322" y="-320" font-family="Arial" font-size="10.00"> &#160;</text>
</g>
<!-- s3 -->
<g id="node2" class="node"><title>s3</title>
<polygon fill="deepskyblue" stroke="deepskyblue" points="237.5,-230.5 237.5,-267.5 316.5,-267.5 316.5,-230.5 237.5,-230.5"/>
<polygon fill="none" stroke="black" points="238,-250 238,-267 317,-267 317,-250 238,-250"/>
<text text-anchor="start" x="241.5" y="-256.5" font-family="Arial" font-size="10.00"> </text>
<text text-anchor="start" x="245.5" y="-256.5" font-family="Arial" font-size="10.00"> s3 :StationPO </text>
<polygon fill="none" stroke="black" points="238,-230 238,-250 317,-250 317,-230 238,-230"/>
<text text-anchor="start" x="274" y="-238" font-family="Arial" font-size="10.00"> &#160;</text>
</g>
<!-- t1&#45;&#45;s3 -->
<g id="edge11" class="edge"><title>t1&#45;&#45;s3</title>
<path fill="none" stroke="black" d="M311.884,-308.14C305.055,-296.759 296.736,-282.893 289.934,-271.557"/>
<text text-anchor="middle" x="298.221" y="-274.654" font-family="Arial" font-size="10.00">station</text>
</g>
<!-- t2 -->
<g id="node6" class="node"><title>t2</title>
<a xlink:href="../../SDMLib/src/org/sdmlib/examples/patternrewriteops/model/Train.java" xlink:title="&lt;TABLE&gt;">
<polygon fill="none" stroke="black" points="351,-240 351,-257 398,-257 398,-240 351,-240"/>
<text text-anchor="start" x="354.5" y="-246.5" font-family="Arial" font-size="10.00"> </text>
<text text-anchor="start" x="358.5" y="-246.5" font-family="Arial" font-size="10.00">t2 :Train</text>
</a>
</g>
<!-- t1&#45;&#45;t2 -->
<g id="edge3" class="edge"><title>t1&#45;&#45;t2</title>
<path fill="none" stroke="black" stroke-dasharray="1,5" d="M338.389,-308.14C346.324,-295.186 356.23,-279.013 363.578,-267.015"/>
<text text-anchor="middle" x="362.449" y="-274.451" font-family="Arial" font-size="10.00">match</text>
</g>
<!-- s5 -->
<g id="node3" class="node"><title>s5</title>
<polygon fill="deepskyblue" stroke="deepskyblue" points="52,-148.5 52,-185.5 146,-185.5 146,-148.5 52,-148.5"/>
<polygon fill="none" stroke="black" points="52,-168 52,-185 146,-185 146,-168 52,-168"/>
<text text-anchor="start" x="55.5" y="-174.5" font-family="Arial" font-size="10.00"> </text>
<text text-anchor="start" x="59.5" y="-174.5" font-family="Arial" font-size="10.00"> s5 :SignalFlagPO </text>
<polygon fill="none" stroke="black" points="52,-148 52,-168 146,-168 146,-148 52,-148"/>
<text text-anchor="start" x="95.5" y="-156" font-family="Arial" font-size="10.00"> &#160;</text>
</g>
<!-- s3&#45;&#45;s5 -->
<g id="edge13" class="edge"><title>s3&#45;&#45;s5</title>
<path fill="none" stroke="black" d="M229.299,-226.561C203.863,-215.13 172.644,-201.099 147.142,-189.637"/>
<text text-anchor="middle" x="157.141" y="-186.997" font-family="Arial" font-size="10.00">flag</text>
</g>
<!-- s4 -->
<g id="node7" class="node"><title>s4</title>
<a xlink:href="../../SDMLib/src/org/sdmlib/examples/patternrewriteops/model/Station.java" xlink:title="&lt;TABLE&gt;">
<polygon fill="none" stroke="black" points="249,-158 249,-175 308,-175 308,-158 249,-158"/>
<text text-anchor="start" x="252.5" y="-164.5" font-family="Arial" font-size="10.00"> </text>
<text text-anchor="start" x="256.5" y="-164.5" font-family="Arial" font-size="10.00">s4 :Station</text>
</a>
</g>
<!-- s3&#45;&#45;s4 -->
<g id="edge5" class="edge"><title>s3&#45;&#45;s4</title>
<path fill="none" stroke="black" stroke-dasharray="1,5" d="M277.273,-226.14C277.435,-213.186 277.637,-197.013 277.787,-185.015"/>
<text text-anchor="middle" x="281.9" y="-191.63" font-family="Arial" font-size="10.00">match</text>
</g>
<!-- d7 -->
<g id="node4" class="node"><title>d7</title>
<text text-anchor="middle" x="27" y="-87.5" font-family="Arial" font-size="10.00" fill="red">destroy</text>
</g>
<!-- s5&#45;&#45;d7 -->
<g id="edge9" class="edge"><title>s5&#45;&#45;d7</title>
<path fill="none" stroke="red" stroke-dasharray="1,5" d="M78.1746,-144.307C67.2102,-132.886 53.9471,-119.07 43.6709,-108.366"/>
</g>
<!-- s6 -->
<g id="node19" class="node"><title>s6</title>
<text text-anchor="middle" x="99" y="-87.5" font-family="Arial" font-size="10.00">s6</text>
</g>
<!-- s5&#45;&#45;s6 -->
<g id="edge7" class="edge"><title>s5&#45;&#45;s6</title>
<path fill="none" stroke="black" stroke-dasharray="1,5" d="M99,-144.307C99,-132.886 99,-119.07 99,-108.366"/>
<text text-anchor="middle" x="103.226" y="-114.929" font-family="Arial" font-size="10.00">match</text>
</g>
<!-- t2&#45;&#45;s4 -->
<g id="edge21" class="edge"><title>t2&#45;&#45;s4</title>
<path fill="none" stroke="black" d="M353.169,-230.641C336.957,-217.131 314.578,-198.482 298.46,-185.05"/>
<text text-anchor="middle" x="308.128" y="-185.105" font-family="Arial" font-size="10.00">station</text>
<text text-anchor="middle" x="343.501" y="-225.586" font-family="Arial" font-size="10.00">trains</text>
</g>
<!-- p14 -->
<g id="node13" class="node"><title>p14</title>
<a xlink:href="../../SDMLib/src/org/sdmlib/examples/patternrewriteops/model/Person.java" xlink:title="&lt;TABLE&gt;">
<polygon fill="none" stroke="black" points="342,-158 342,-175 406,-175 406,-158 342,-158"/>
<text text-anchor="start" x="345.5" y="-164.5" font-family="Arial" font-size="10.00"> </text>
<text text-anchor="start" x="349.5" y="-164.5" font-family="Arial" font-size="10.00">p14 :Person</text>
</a>
</g>
<!-- t2&#45;&#45;p14 -->
<g id="edge15" class="edge"><title>t2&#45;&#45;p14</title>
<path fill="none" stroke="black" d="M374,-230.641C374,-217.131 374,-198.482 374,-185.05"/>
<text text-anchor="middle" x="378.226" y="-191.613" font-family="Arial" font-size="10.00">passengers</text>
<text text-anchor="middle" x="369.774" y="-219.078" font-family="Arial" font-size="10.00">train</text>
</g>
<!-- p15 -->
<g id="node14" class="node"><title>p15</title>
<a xlink:href="../../SDMLib/src/org/sdmlib/examples/patternrewriteops/model/Person.java" xlink:title="&lt;TABLE&gt;">
<polygon fill="none" stroke="black" points="440,-158 440,-175 504,-175 504,-158 440,-158"/>
<text text-anchor="start" x="443.5" y="-164.5" font-family="Arial" font-size="10.00"> </text>
<text text-anchor="start" x="447.5" y="-164.5" font-family="Arial" font-size="10.00">p15 :Person</text>
</a>
</g>
<!-- t2&#45;&#45;p15 -->
<g id="edge17" class="edge"><title>t2&#45;&#45;p15</title>
<path fill="none" stroke="black" d="M395.265,-230.641C411.815,-217.131 434.66,-198.482 451.114,-185.05"/>
<text text-anchor="middle" x="446.765" y="-191.555" font-family="Arial" font-size="10.00">passengers</text>
<text text-anchor="middle" x="399.613" y="-219.136" font-family="Arial" font-size="10.00">train</text>
</g>
<!-- p16 -->
<g id="node15" class="node"><title>p16</title>
<a xlink:href="../../SDMLib/src/org/sdmlib/examples/patternrewriteops/model/Person.java" xlink:title="&lt;TABLE&gt;">
<polygon fill="none" stroke="black" points="538,-158 538,-175 602,-175 602,-158 538,-158"/>
<text text-anchor="start" x="541.5" y="-164.5" font-family="Arial" font-size="10.00"> </text>
<text text-anchor="start" x="545.5" y="-164.5" font-family="Arial" font-size="10.00">p16 :Person</text>
</a>
</g>
<!-- t2&#45;&#45;p16 -->
<g id="edge19" class="edge"><title>t2&#45;&#45;p16</title>
<path fill="none" stroke="black" d="M405.427,-236.083C435.307,-224.64 481.435,-206.677 521,-190 524.695,-188.443 528.531,-186.788 532.357,-185.112"/>
<text text-anchor="middle" x="525.747" y="-190.116" font-family="Arial" font-size="10.00">passengers</text>
<text text-anchor="middle" x="412.372" y="-226.389" font-family="Arial" font-size="10.00">train</text>
</g>
<!-- s9 -->
<g id="node8" class="node"><title>s9</title>
<a xlink:href="../../SDMLib/src/org/sdmlib/examples/patternrewriteops/model/Station.java" xlink:title="&lt;TABLE&gt;">
<polygon fill="none" stroke="black" points="153,-81 153,-98 212,-98 212,-81 153,-81"/>
<text text-anchor="start" x="156.5" y="-87.5" font-family="Arial" font-size="10.00"> </text>
<text text-anchor="start" x="160.5" y="-87.5" font-family="Arial" font-size="10.00">s9 :Station</text>
</a>
</g>
<!-- s4&#45;&#45;s9 -->
<g id="edge23" class="edge"><title>s4&#45;&#45;s9</title>
<path fill="none" stroke="black" d="M256.216,-148.981C240.616,-136.794 219.686,-120.442 204.03,-108.211"/>
<text text-anchor="middle" x="213.774" y="-107.96" font-family="Arial" font-size="10.00">next</text>
<text text-anchor="middle" x="246.472" y="-144.232" font-family="Arial" font-size="10.00">prev</text>
</g>
<!-- s10 -->
<g id="node9" class="node"><title>s10</title>
<a xlink:href="../../SDMLib/src/org/sdmlib/examples/patternrewriteops/model/Station.java" xlink:title="&lt;TABLE&gt;">
<polygon fill="none" stroke="black" points="246,-81 246,-98 310,-98 310,-81 246,-81"/>
<text text-anchor="start" x="249.5" y="-87.5" font-family="Arial" font-size="10.00"> </text>
<text text-anchor="start" x="253.5" y="-87.5" font-family="Arial" font-size="10.00">s10 :Station</text>
</a>
</g>
<!-- s4&#45;&#45;s10 -->
<g id="edge25" class="edge"><title>s4&#45;&#45;s10</title>
<path fill="none" stroke="black" d="M278,-148.981C278,-136.794 278,-120.442 278,-108.211"/>
<text text-anchor="middle" x="282.226" y="-114.774" font-family="Arial" font-size="10.00">prev</text>
<text text-anchor="middle" x="273.774" y="-137.418" font-family="Arial" font-size="10.00">next</text>
</g>
<!-- p12 -->
<g id="node11" class="node"><title>p12</title>
<a xlink:href="../../SDMLib/src/org/sdmlib/examples/patternrewriteops/model/Person.java" xlink:title="&lt;TABLE&gt;">
<polygon fill="none" stroke="black" points="344,-81 344,-98 408,-98 408,-81 344,-81"/>
<text text-anchor="start" x="347.5" y="-87.5" font-family="Arial" font-size="10.00"> </text>
<text text-anchor="start" x="351.5" y="-87.5" font-family="Arial" font-size="10.00">p12 :Person</text>
</a>
</g>
<!-- s4&#45;&#45;p12 -->
<g id="edge27" class="edge"><title>s4&#45;&#45;p12</title>
<path fill="none" stroke="black" d="M300.238,-148.981C316.163,-136.794 337.529,-120.442 353.511,-108.211"/>
<text text-anchor="middle" x="348.882" y="-114.575" font-family="Arial" font-size="10.00">people</text>
<text text-anchor="middle" x="304.866" y="-137.617" font-family="Arial" font-size="10.00">station</text>
</g>
<!-- p13 -->
<g id="node12" class="node"><title>p13</title>
<a xlink:href="../../SDMLib/src/org/sdmlib/examples/patternrewriteops/model/Person.java" xlink:title="&lt;TABLE&gt;">
<polygon fill="none" stroke="black" points="442,-81 442,-98 506,-98 506,-81 442,-81"/>
<text text-anchor="start" x="445.5" y="-87.5" font-family="Arial" font-size="10.00"> </text>
<text text-anchor="start" x="449.5" y="-87.5" font-family="Arial" font-size="10.00">p13 :Person</text>
</a>
</g>
<!-- s4&#45;&#45;p13 -->
<g id="edge29" class="edge"><title>s4&#45;&#45;p13</title>
<path fill="none" stroke="black" d="M313.511,-148.94C317.366,-147.219 321.25,-145.541 325,-144 335.381,-139.736 393.279,-119.3 433.764,-105.088"/>
<text text-anchor="middle" x="426.615" y="-109.579" font-family="Arial" font-size="10.00">people</text>
<text text-anchor="middle" x="320.073" y="-138.894" font-family="Arial" font-size="10.00">station</text>
</g>
<!-- s11 -->
<g id="node10" class="node"><title>s11</title>
<a xlink:href="../../SDMLib/src/org/sdmlib/examples/patternrewriteops/model/Station.java" xlink:title="&lt;TABLE&gt;">
<polygon fill="none" stroke="black" points="246,-9 246,-26 310,-26 310,-9 246,-9"/>
<text text-anchor="start" x="249.5" y="-15.5" font-family="Arial" font-size="10.00"> </text>
<text text-anchor="start" x="253.5" y="-15.5" font-family="Arial" font-size="10.00">s11 :Station</text>
</a>
</g>
<!-- s10&#45;&#45;s11 -->
<g id="edge31" class="edge"><title>s10&#45;&#45;s11</title>
<path fill="none" stroke="black" d="M278,-71.6966C278,-60.8463 278,-46.9167 278,-36.1043"/>
<text text-anchor="middle" x="282.226" y="-42.6674" font-family="Arial" font-size="10.00">prev</text>
<text text-anchor="middle" x="273.774" y="-60.1335" font-family="Arial" font-size="10.00">next</text>
</g>
</g>
</svg>
