<?xml version="1.0" encoding="UTF-8" standalone="no"?>
<!DOCTYPE svg PUBLIC "-//W3C//DTD SVG 1.1//EN"
 "http://www.w3.org/Graphics/SVG/1.1/DTD/svg11.dtd">
<!-- Generated by graphviz version 2.28.0 (20110507.0327)
 -->
<!-- Title: ObjectDiagram Pages: 1 -->
<svg width="527pt" height="445pt"
 viewBox="0.00 0.00 527.00 445.00" xmlns="http://www.w3.org/2000/svg" xmlns:xlink="http://www.w3.org/1999/xlink">
<g id="graph1" class="graph" transform="scale(1 1) rotate(0) translate(4 441)">
<title>ObjectDiagram</title>
<polygon fill="white" stroke="white" points="-4,5 -4,-441 524,-441 524,5 -4,5"/>
<g id="graph2" class="cluster"><title>cluster_o8</title>
<polygon fill="none" stroke="grey" points="337,-208 337,-301 439,-301 439,-208 337,-208"/>
<text text-anchor="start" x="356.5" y="-281.8" font-family="Times New Roman,serif" font-size="14.00">optional o8</text>
</g>
<!-- t1 -->
<g id="node1" class="node"><title>t1</title>
<polygon fill="deepskyblue" stroke="deepskyblue" points="322,-395.5 322,-432.5 378,-432.5 378,-395.5 322,-395.5"/>
<polygon fill="none" stroke="black" points="322,-415 322,-432 378,-432 378,-415 322,-415"/>
<text text-anchor="start" x="325.5" y="-421.5" font-family="Arial" font-size="10.00"> </text>
<text text-anchor="start" x="329.5" y="-421.5" font-family="Arial" font-size="10.00"> t1 :TrainPO </text>
<polygon fill="none" stroke="black" points="322,-395 322,-415 378,-415 378,-395 322,-395"/>
<text text-anchor="start" x="346.5" y="-403" font-family="Arial" font-size="10.00"> &#160;</text>
</g>
<!-- s3 -->
<g id="node2" class="node"><title>s3</title>
<polygon fill="deepskyblue" stroke="deepskyblue" points="227.5,-313.5 227.5,-350.5 292.5,-350.5 292.5,-313.5 227.5,-313.5"/>
<polygon fill="none" stroke="black" points="228,-333 228,-350 293,-350 293,-333 228,-333"/>
<text text-anchor="start" x="231.5" y="-339.5" font-family="Arial" font-size="10.00"> </text>
<text text-anchor="start" x="235.5" y="-339.5" font-family="Arial" font-size="10.00"> s3 :StationPO </text>
<polygon fill="none" stroke="black" points="228,-313 228,-333 293,-333 293,-313 228,-313"/>
<text text-anchor="start" x="257" y="-321" font-family="Arial" font-size="10.00"> &#160;</text>
</g>
<!-- t1&#45;&#45;s3 -->
<g id="edge19" class="edge"><title>t1&#45;&#45;s3</title>
<path fill="none" stroke="black" d="M325.407,-391.14C312.604,-379.759 297.005,-365.893 284.252,-354.557"/>
<text text-anchor="middle" x="293.833" y="-354.919" font-family="Arial" font-size="10.00">station</text>
</g>
<!-- t2 -->
<g id="node7" class="node"><title>t2</title>
<a xlink:href="../../SDMLib/src/org/sdmlib/examples/patternrewriteops/model/Train.java" xlink:title="&lt;TABLE&gt;">
<polygon fill="none" stroke="black" points="327,-323 327,-340 374,-340 374,-323 327,-323"/>
<text text-anchor="start" x="330.5" y="-329.5" font-family="Arial" font-size="10.00"> </text>
<text text-anchor="start" x="334.5" y="-329.5" font-family="Arial" font-size="10.00">t2 :Train</text>
</a>
</g>
<!-- t1&#45;&#45;t2 -->
<g id="edge3" class="edge"><title>t1&#45;&#45;t2</title>
<path fill="none" stroke="black" stroke-dasharray="1,5" d="M350,-391.14C350,-378.186 350,-362.013 350,-350.015"/>
<text text-anchor="middle" x="354.226" y="-356.578" font-family="Arial" font-size="10.00">match</text>
</g>
<!-- s5 -->
<g id="node3" class="node"><title>s5</title>
<polygon fill="deepskyblue" stroke="deepskyblue" points="65.5,-220.5 65.5,-257.5 142.5,-257.5 142.5,-220.5 65.5,-220.5"/>
<polygon fill="none" stroke="black" points="66,-240 66,-257 143,-257 143,-240 66,-240"/>
<text text-anchor="start" x="69.5" y="-246.5" font-family="Arial" font-size="10.00"> </text>
<text text-anchor="start" x="73.5" y="-246.5" font-family="Arial" font-size="10.00"> s5 :SignalFlagPO </text>
<polygon fill="none" stroke="black" points="66,-220 66,-240 143,-240 143,-220 66,-220"/>
<text text-anchor="start" x="101" y="-228" font-family="Arial" font-size="10.00"> &#160;</text>
</g>
<!-- s3&#45;&#45;s5 -->
<g id="edge21" class="edge"><title>s3&#45;&#45;s5</title>
<path fill="none" stroke="black" d="M223.03,-309.434C198.253,-294.981 165.753,-276.023 140.974,-261.568"/>
<text text-anchor="middle" x="150.932" y="-259.985" font-family="Arial" font-size="10.00">flag</text>
</g>
<!-- p18 -->
<g id="node6" class="node"><title>p18</title>
<polygon fill="deepskyblue" stroke="deepskyblue" points="353,-220.5 353,-257.5 423,-257.5 423,-220.5 353,-220.5"/>
<polygon fill="none" stroke="black" points="353,-240 353,-257 423,-257 423,-240 353,-240"/>
<text text-anchor="start" x="356.5" y="-246.5" font-family="Arial" font-size="10.00"> </text>
<text text-anchor="start" x="360.5" y="-246.5" font-family="Arial" font-size="10.00"> p18 :PersonPO </text>
<polygon fill="none" stroke="black" points="353,-220 353,-240 423,-240 423,-220 353,-220"/>
<text text-anchor="start" x="384.5" y="-228" font-family="Arial" font-size="10.00"> &#160;</text>
</g>
<!-- s3&#45;&#45;p18 -->
<g id="edge23" class="edge"><title>s3&#45;&#45;p18</title>
<path fill="none" stroke="red" d="M300.418,-312.189C303.3,-311.053 306.18,-309.977 309,-309 322.852,-304.201 328.735,-309.03 341,-301 355.988,-291.188 368.163,-274.934 376.363,-261.672"/>
<text text-anchor="middle" x="375.072" y="-269.088" font-family="Arial" font-size="10.00" fill="red">people</text>
</g>
<!-- s4 -->
<g id="node8" class="node"><title>s4</title>
<a xlink:href="../../SDMLib/src/org/sdmlib/examples/patternrewriteops/model/Station.java" xlink:title="&lt;TABLE&gt;">
<polygon fill="none" stroke="black" points="254,-230 254,-247 313,-247 313,-230 254,-230"/>
<text text-anchor="start" x="257.5" y="-236.5" font-family="Arial" font-size="10.00"> </text>
<text text-anchor="start" x="261.5" y="-236.5" font-family="Arial" font-size="10.00">s4 :Station</text>
</a>
</g>
<!-- s3&#45;&#45;s4 -->
<g id="edge5" class="edge"><title>s3&#45;&#45;s4</title>
<path fill="none" stroke="black" stroke-dasharray="1,5" d="M265.451,-309.434C269.489,-293.456 274.919,-271.974 278.664,-257.156"/>
<text text-anchor="middle" x="280.54" y="-264.479" font-family="Arial" font-size="10.00">match</text>
</g>
<!-- d7 -->
<g id="node4" class="node"><title>d7</title>
<text text-anchor="middle" x="32" y="-159.5" font-family="Arial" font-size="10.00" fill="red">destroy</text>
</g>
<!-- s5&#45;&#45;d7 -->
<g id="edge9" class="edge"><title>s5&#45;&#45;d7</title>
<path fill="none" stroke="red" stroke-dasharray="1,5" d="M83.1746,-216.307C72.2102,-204.886 58.9471,-191.07 48.6709,-180.366"/>
</g>
<!-- s6 -->
<g id="node21" class="node"><title>s6</title>
<text text-anchor="middle" x="104" y="-159.5" font-family="Arial" font-size="10.00">s6</text>
</g>
<!-- s5&#45;&#45;s6 -->
<g id="edge7" class="edge"><title>s5&#45;&#45;s6</title>
<path fill="none" stroke="black" stroke-dasharray="1,5" d="M104,-216.307C104,-204.886 104,-191.07 104,-180.366"/>
<text text-anchor="middle" x="108.226" y="-186.929" font-family="Arial" font-size="10.00">match</text>
</g>
<!-- p18&#45;&#45;t1 -->
<g id="edge25" class="edge"><title>p18&#45;&#45;t1</title>
<path fill="none" stroke="green" d="M392.362,-261.767C396.177,-285.331 399.736,-323.733 390,-355 385.891,-368.197 377.615,-381.044 369.653,-391.279"/>
<text text-anchor="middle" x="371.776" y="-379.007" font-family="Arial" font-size="10.00" fill="green">train</text>
</g>
<!-- p16 -->
<g id="node15" class="node"><title>p16</title>
<a xlink:href="../../SDMLib/src/org/sdmlib/examples/patternrewriteops/model/Person.java" xlink:title="&lt;TABLE&gt;">
<polygon fill="none" stroke="black" points="349,-153 349,-170 413,-170 413,-153 349,-153"/>
<text text-anchor="start" x="352.5" y="-159.5" font-family="Arial" font-size="10.00"> </text>
<text text-anchor="start" x="356.5" y="-159.5" font-family="Arial" font-size="10.00">p16 :Person</text>
</a>
</g>
<!-- p18&#45;&#45;p16 -->
<g id="edge15" class="edge"><title>p18&#45;&#45;p16</title>
<path fill="none" stroke="black" stroke-dasharray="1,5" d="M385.975,-216.307C384.909,-204.886 383.62,-191.07 382.621,-180.366"/>
<text text-anchor="middle" x="387.671" y="-186.497" font-family="Arial" font-size="10.00">candidate</text>
</g>
<!-- p17 -->
<g id="node16" class="node"><title>p17</title>
<a xlink:href="../../SDMLib/src/org/sdmlib/examples/patternrewriteops/model/Person.java" xlink:title="&lt;TABLE&gt;">
<polygon fill="none" stroke="black" points="251,-153 251,-170 315,-170 315,-153 251,-153"/>
<text text-anchor="start" x="254.5" y="-159.5" font-family="Arial" font-size="10.00"> </text>
<text text-anchor="start" x="258.5" y="-159.5" font-family="Arial" font-size="10.00">p17 :Person</text>
</a>
</g>
<!-- p18&#45;&#45;p17 -->
<g id="edge17" class="edge"><title>p18&#45;&#45;p17</title>
<path fill="none" stroke="black" stroke-dasharray="1,5" d="M357.63,-216.307C341.519,-204.799 322.005,-190.86 306.972,-180.123"/>
<text text-anchor="middle" x="316.803" y="-179.452" font-family="Arial" font-size="10.00">candidate</text>
</g>
<!-- p15 -->
<g id="node17" class="node"><title>p15</title>
<a xlink:href="../../SDMLib/src/org/sdmlib/examples/patternrewriteops/model/Person.java" xlink:title="&lt;TABLE&gt;">
<polygon fill="none" stroke="black" points="447,-153 447,-170 511,-170 511,-153 447,-153"/>
<text text-anchor="start" x="450.5" y="-159.5" font-family="Arial" font-size="10.00"> </text>
<text text-anchor="start" x="454.5" y="-159.5" font-family="Arial" font-size="10.00">p15 :Person</text>
</a>
</g>
<!-- p18&#45;&#45;p15 -->
<g id="edge11" class="edge"><title>p18&#45;&#45;p15</title>
<path fill="none" stroke="black" stroke-dasharray="1,5" d="M408.135,-216.307C421.227,-204.799 438.277,-190.86 452.452,-180.123"/>
<text text-anchor="middle" x="447.819" y="-186.485" font-family="Arial" font-size="10.00">match</text>
</g>
<!-- p18&#45;&#45;p15 -->
<g id="edge13" class="edge"><title>p18&#45;&#45;p15</title>
<path fill="none" stroke="black" stroke-dasharray="1,5" d="M420.507,-216.307C435.341,-204.799 452.115,-190.86 463.996,-180.123"/>
<text text-anchor="middle" x="460.056" y="-186.814" font-family="Arial" font-size="10.00">candidate</text>
</g>
<!-- t2&#45;&#45;s4 -->
<g id="edge29" class="edge"><title>t2&#45;&#45;s4</title>
<path fill="none" stroke="black" d="M337.398,-313.884C325.419,-297.614 307.506,-273.284 295.546,-257.04"/>
<text text-anchor="middle" x="304.322" y="-259.332" font-family="Arial" font-size="10.00">station</text>
<text text-anchor="middle" x="328.621" y="-306.591" font-family="Arial" font-size="10.00">trains</text>
</g>
<!-- t2&#45;&#45;p15 -->
<g id="edge27" class="edge"><title>t2&#45;&#45;p15</title>
<path fill="none" stroke="black" d="M381.257,-328.532C401.527,-325.299 427.039,-317.895 443,-301 474.796,-267.342 479.349,-209.222 479.494,-180.336"/>
<text text-anchor="middle" x="483.529" y="-186.986" font-family="Arial" font-size="10.00">passengers</text>
<text text-anchor="middle" x="389.446" y="-320.292" font-family="Arial" font-size="10.00">train</text>
</g>
<!-- s9 -->
<g id="node9" class="node"><title>s9</title>
<a xlink:href="../../SDMLib/src/org/sdmlib/examples/patternrewriteops/model/Station.java" xlink:title="&lt;TABLE&gt;">
<polygon fill="none" stroke="black" points="158,-153 158,-170 217,-170 217,-153 158,-153"/>
<text text-anchor="start" x="161.5" y="-159.5" font-family="Arial" font-size="10.00"> </text>
<text text-anchor="start" x="165.5" y="-159.5" font-family="Arial" font-size="10.00">s9 :Station</text>
</a>
</g>
<!-- s4&#45;&#45;s9 -->
<g id="edge31" class="edge"><title>s4&#45;&#45;s9</title>
<path fill="none" stroke="black" d="M261.216,-220.981C245.616,-208.794 224.686,-192.442 209.03,-180.211"/>
<text text-anchor="middle" x="218.774" y="-179.96" font-family="Arial" font-size="10.00">next</text>
<text text-anchor="middle" x="251.472" y="-216.232" font-family="Arial" font-size="10.00">prev</text>
</g>
<!-- s4&#45;&#45;p16 -->
<g id="edge33" class="edge"><title>s4&#45;&#45;p16</title>
<path fill="none" stroke="black" d="M305.238,-220.981C321.163,-208.794 342.529,-192.442 358.511,-180.211"/>
<text text-anchor="middle" x="353.882" y="-186.575" font-family="Arial" font-size="10.00">people</text>
<text text-anchor="middle" x="309.866" y="-209.617" font-family="Arial" font-size="10.00">station</text>
</g>
<!-- s4&#45;&#45;p17 -->
<g id="edge35" class="edge"><title>s4&#45;&#45;p17</title>
<path fill="none" stroke="black" d="M283,-220.981C283,-208.794 283,-192.442 283,-180.211"/>
<text text-anchor="middle" x="287.226" y="-186.774" font-family="Arial" font-size="10.00">people</text>
<text text-anchor="middle" x="278.774" y="-209.418" font-family="Arial" font-size="10.00">station</text>
</g>
<!-- s10 -->
<g id="node10" class="node"><title>s10</title>
<a xlink:href="../../SDMLib/src/org/sdmlib/examples/patternrewriteops/model/Station.java" xlink:title="&lt;TABLE&gt;">
<polygon fill="none" stroke="black" points="155,-81 155,-98 219,-98 219,-81 155,-81"/>
<text text-anchor="start" x="158.5" y="-87.5" font-family="Arial" font-size="10.00"> </text>
<text text-anchor="start" x="162.5" y="-87.5" font-family="Arial" font-size="10.00">s10 :Station</text>
</a>
</g>
<!-- s9&#45;&#45;s10 -->
<g id="edge37" class="edge"><title>s9&#45;&#45;s10</title>
<path fill="none" stroke="black" d="M187,-143.697C187,-132.846 187,-118.917 187,-108.104"/>
<text text-anchor="middle" x="191.226" y="-114.667" font-family="Arial" font-size="10.00">next</text>
<text text-anchor="middle" x="182.774" y="-132.134" font-family="Arial" font-size="10.00">prev</text>
</g>
<!-- s11 -->
<g id="node11" class="node"><title>s11</title>
<a xlink:href="../../SDMLib/src/org/sdmlib/examples/patternrewriteops/model/Station.java" xlink:title="&lt;TABLE&gt;">
<polygon fill="none" stroke="black" points="8,-9 8,-26 72,-26 72,-9 8,-9"/>
<text text-anchor="start" x="11.5" y="-15.5" font-family="Arial" font-size="10.00"> </text>
<text text-anchor="start" x="15.5" y="-15.5" font-family="Arial" font-size="10.00">s11 :Station</text>
</a>
</g>
<!-- s10&#45;&#45;s11 -->
<g id="edge41" class="edge"><title>s10&#45;&#45;s11</title>
<path fill="none" stroke="black" d="M151.04,-71.8761C128.175,-60.9882 98.6854,-46.9454 75.8435,-36.0683"/>
<text text-anchor="middle" x="85.8431" y="-33.6492" font-family="Arial" font-size="10.00">next</text>
<text text-anchor="middle" x="141.04" y="-69.2952" font-family="Arial" font-size="10.00">prev</text>
</g>
<!-- p12 -->
<g id="node12" class="node"><title>p12</title>
<a xlink:href="../../SDMLib/src/org/sdmlib/examples/patternrewriteops/model/Person.java" xlink:title="&lt;TABLE&gt;">
<polygon fill="none" stroke="black" points="106,-9 106,-26 170,-26 170,-9 106,-9"/>
<text text-anchor="start" x="109.5" y="-15.5" font-family="Arial" font-size="10.00"> </text>
<text text-anchor="start" x="113.5" y="-15.5" font-family="Arial" font-size="10.00">p12 :Person</text>
</a>
</g>
<!-- s10&#45;&#45;p12 -->
<g id="edge43" class="edge"><title>s10&#45;&#45;p12</title>
<path fill="none" stroke="black" d="M174.888,-71.6966C167.292,-60.8463 157.542,-46.9167 149.973,-36.1043"/>
<text text-anchor="middle" x="158.633" y="-38.6055" font-family="Arial" font-size="10.00">people</text>
<text text-anchor="middle" x="166.228" y="-64.1954" font-family="Arial" font-size="10.00">station</text>
</g>
<!-- p13 -->
<g id="node13" class="node"><title>p13</title>
<a xlink:href="../../SDMLib/src/org/sdmlib/examples/patternrewriteops/model/Person.java" xlink:title="&lt;TABLE&gt;">
<polygon fill="none" stroke="black" points="204,-9 204,-26 268,-26 268,-9 204,-9"/>
<text text-anchor="start" x="207.5" y="-15.5" font-family="Arial" font-size="10.00"> </text>
<text text-anchor="start" x="211.5" y="-15.5" font-family="Arial" font-size="10.00">p13 :Person</text>
</a>
</g>
<!-- s10&#45;&#45;p13 -->
<g id="edge45" class="edge"><title>s10&#45;&#45;p13</title>
<path fill="none" stroke="black" d="M199.112,-71.6966C206.708,-60.8463 216.458,-46.9167 224.027,-36.1043"/>
<text text-anchor="middle" x="222.292" y="-43.4527" font-family="Arial" font-size="10.00">people</text>
<text text-anchor="middle" x="200.847" y="-59.3483" font-family="Arial" font-size="10.00">station</text>
</g>
<!-- s14 -->
<g id="node14" class="node"><title>s14</title>
<a xlink:href="../../SDMLib/src/org/sdmlib/examples/patternrewriteops/model/SignalFlag.java" xlink:title="&lt;TABLE&gt;">
<polygon fill="none" stroke="black" points="303,-9 303,-26 382,-26 382,-9 303,-9"/>
<text text-anchor="start" x="306.5" y="-15.5" font-family="Arial" font-size="10.00"> </text>
<text text-anchor="start" x="310.5" y="-15.5" font-family="Arial" font-size="10.00">s14 :SignalFlag</text>
</a>
</g>
<!-- s10&#45;&#45;s14 -->
<g id="edge39" class="edge"><title>s10&#45;&#45;s14</title>
<path fill="none" stroke="black" d="M224.917,-71.8761C249.026,-60.9882 280.121,-46.9454 304.206,-36.0683"/>
<text text-anchor="middle" x="297.685" y="-41.1502" font-family="Arial" font-size="10.00">flag</text>
<text text-anchor="middle" x="231.438" y="-61.7942" font-family="Arial" font-size="10.00">station</text>
</g>
</g>
</svg>
