<?xml version="1.0" encoding="UTF-8" standalone="no"?>
<!DOCTYPE svg PUBLIC "-//W3C//DTD SVG 1.1//EN"
 "http://www.w3.org/Graphics/SVG/1.1/DTD/svg11.dtd">
<!-- Generated by graphviz version 2.28.0 (20110507.0327)
 -->
<!-- Title: ObjectDiagram Pages: 1 -->
<svg width="527pt" height="445pt"
 viewBox="0.00 0.00 527.00 445.00" xmlns="http://www.w3.org/2000/svg" xmlns:xlink="http://www.w3.org/1999/xlink">
<g id="graph1" class="graph" transform="scale(1 1) rotate(0) translate(4 441)">
<title>ObjectDiagram</title>
<polygon fill="white" stroke="white" points="-4,5 -4,-441 524,-441 524,5 -4,5"/>
<g id="graph2" class="cluster"><title>cluster_o8</title>
<polygon fill="none" stroke="grey" points="334,-208 334,-301 450,-301 450,-208 334,-208"/>
<text text-anchor="start" x="360.5" y="-281.8" font-family="Times New Roman,serif" font-size="14.00">optional o8</text>
</g>
<!-- t1 -->
<g id="node1" class="node"><title>t1</title>
<polygon fill="deepskyblue" stroke="deepskyblue" points="322.5,-395.5 322.5,-432.5 389.5,-432.5 389.5,-395.5 322.5,-395.5"/>
<polygon fill="none" stroke="black" points="323,-415 323,-432 390,-432 390,-415 323,-415"/>
<text text-anchor="start" x="326.5" y="-421.5" font-family="Arial" font-size="10.00"> </text>
<text text-anchor="start" x="330.5" y="-421.5" font-family="Arial" font-size="10.00"> t1 :TrainPO </text>
<polygon fill="none" stroke="black" points="323,-395 323,-415 390,-415 390,-395 323,-395"/>
<text text-anchor="start" x="353" y="-403" font-family="Arial" font-size="10.00"> &#160;</text>
</g>
<!-- s3 -->
<g id="node2" class="node"><title>s3</title>
<polygon fill="deepskyblue" stroke="deepskyblue" points="219.5,-313.5 219.5,-350.5 298.5,-350.5 298.5,-313.5 219.5,-313.5"/>
<polygon fill="none" stroke="black" points="220,-333 220,-350 299,-350 299,-333 220,-333"/>
<text text-anchor="start" x="223.5" y="-339.5" font-family="Arial" font-size="10.00"> </text>
<text text-anchor="start" x="227.5" y="-339.5" font-family="Arial" font-size="10.00"> s3 :StationPO </text>
<polygon fill="none" stroke="black" points="220,-313 220,-333 299,-333 299,-313 220,-313"/>
<text text-anchor="start" x="256" y="-321" font-family="Arial" font-size="10.00"> &#160;</text>
</g>
<!-- t1&#45;&#45;s3 -->
<g id="edge19" class="edge"><title>t1&#45;&#45;s3</title>
<path fill="none" stroke="black" d="M329.75,-391.351C315.948,-379.967 299.076,-366.052 285.271,-354.666"/>
<text text-anchor="middle" x="294.951" y="-354.673" font-family="Arial" font-size="10.00">station</text>
</g>
<!-- t2 -->
<g id="node7" class="node"><title>t2</title>
<a xlink:href="../../SDMLib/src/org/sdmlib/examples/patternrewriteops/model/Train.java" xlink:title="&lt;TABLE&gt;">
<polygon fill="none" stroke="black" points="333,-323 333,-340 380,-340 380,-323 333,-323"/>
<text text-anchor="start" x="336.5" y="-329.5" font-family="Arial" font-size="10.00"> </text>
<text text-anchor="start" x="340.5" y="-329.5" font-family="Arial" font-size="10.00">t2 :Train</text>
</a>
</g>
<!-- t1&#45;&#45;t2 -->
<g id="edge3" class="edge"><title>t1&#45;&#45;t2</title>
<path fill="none" stroke="black" stroke-dasharray="1,5" d="M356,-391.14C356,-378.186 356,-362.013 356,-350.015"/>
<text text-anchor="middle" x="360.226" y="-356.578" font-family="Arial" font-size="10.00">match</text>
</g>
<!-- s5 -->
<g id="node3" class="node"><title>s5</title>
<polygon fill="deepskyblue" stroke="deepskyblue" points="57,-220.5 57,-257.5 151,-257.5 151,-220.5 57,-220.5"/>
<polygon fill="none" stroke="black" points="57,-240 57,-257 151,-257 151,-240 57,-240"/>
<text text-anchor="start" x="60.5" y="-246.5" font-family="Arial" font-size="10.00"> </text>
<text text-anchor="start" x="64.5" y="-246.5" font-family="Arial" font-size="10.00"> s5 :SignalFlagPO </text>
<polygon fill="none" stroke="black" points="57,-220 57,-240 151,-240 151,-220 57,-220"/>
<text text-anchor="start" x="100.5" y="-228" font-family="Arial" font-size="10.00"> &#160;</text>
</g>
<!-- s3&#45;&#45;s5 -->
<g id="edge21" class="edge"><title>s3&#45;&#45;s5</title>
<path fill="none" stroke="black" d="M222.267,-309.434C197.648,-294.981 165.357,-276.023 140.737,-261.568"/>
<text text-anchor="middle" x="150.693" y="-260.012" font-family="Arial" font-size="10.00">flag</text>
</g>
<!-- p18 -->
<g id="node6" class="node"><title>p18</title>
<polygon fill="deepskyblue" stroke="deepskyblue" points="350,-220.5 350,-257.5 434,-257.5 434,-220.5 350,-220.5"/>
<polygon fill="none" stroke="black" points="350,-240 350,-257 434,-257 434,-240 350,-240"/>
<text text-anchor="start" x="353.5" y="-246.5" font-family="Arial" font-size="10.00"> </text>
<text text-anchor="start" x="357.5" y="-246.5" font-family="Arial" font-size="10.00"> p18 :PersonPO </text>
<polygon fill="none" stroke="black" points="350,-220 350,-240 434,-240 434,-220 350,-220"/>
<text text-anchor="start" x="388.5" y="-228" font-family="Arial" font-size="10.00"> &#160;</text>
</g>
<!-- s3&#45;&#45;p18 -->
<g id="edge23" class="edge"><title>s3&#45;&#45;p18</title>
<path fill="none" stroke="red" d="M306.306,-312.264C309.243,-311.147 312.159,-310.052 315,-309 325.15,-305.243 329.01,-307.026 338,-301 353.509,-290.606 367.381,-274.713 377.181,-261.755"/>
<text text-anchor="middle" x="374.992" y="-269.012" font-family="Arial" font-size="10.00" fill="red">people</text>
</g>
<!-- s4 -->
<g id="node8" class="node"><title>s4</title>
<a xlink:href="../../SDMLib/src/org/sdmlib/examples/patternrewriteops/model/Station.java" xlink:title="&lt;TABLE&gt;">
<polygon fill="none" stroke="black" points="254,-230 254,-247 313,-247 313,-230 254,-230"/>
<text text-anchor="start" x="257.5" y="-236.5" font-family="Arial" font-size="10.00"> </text>
<text text-anchor="start" x="261.5" y="-236.5" font-family="Arial" font-size="10.00">s4 :Station</text>
</a>
</g>
<!-- s3&#45;&#45;s4 -->
<g id="edge5" class="edge"><title>s3&#45;&#45;s4</title>
<path fill="none" stroke="black" stroke-dasharray="1,5" d="M264.688,-309.434C268.902,-293.456 274.567,-271.974 278.475,-257.156"/>
<text text-anchor="middle" x="280.25" y="-264.498" font-family="Arial" font-size="10.00">match</text>
</g>
<!-- d7 -->
<g id="node4" class="node"><title>d7</title>
<text text-anchor="middle" x="32" y="-159.5" font-family="Arial" font-size="10.00" fill="red">destroy</text>
</g>
<!-- s5&#45;&#45;d7 -->
<g id="edge9" class="edge"><title>s5&#45;&#45;d7</title>
<path fill="none" stroke="red" stroke-dasharray="1,5" d="M83.1746,-216.307C72.2102,-204.886 58.9471,-191.07 48.6709,-180.366"/>
</g>
<!-- s6 -->
<g id="node21" class="node"><title>s6</title>
<text text-anchor="middle" x="104" y="-159.5" font-family="Arial" font-size="10.00">s6</text>
</g>
<!-- s5&#45;&#45;s6 -->
<g id="edge7" class="edge"><title>s5&#45;&#45;s6</title>
<path fill="none" stroke="black" stroke-dasharray="1,5" d="M104,-216.307C104,-204.886 104,-191.07 104,-180.366"/>
<text text-anchor="middle" x="108.226" y="-186.929" font-family="Arial" font-size="10.00">match</text>
</g>
<!-- p18&#45;&#45;t1 -->
<g id="edge25" class="edge"><title>p18&#45;&#45;t1</title>
<path fill="none" stroke="green" d="M396.953,-261.762C401.36,-285.32 405.741,-323.719 396,-355 391.891,-368.197 383.615,-381.044 375.653,-391.279"/>
<text text-anchor="middle" x="377.776" y="-379.007" font-family="Arial" font-size="10.00" fill="green">train</text>
</g>
<!-- p16 -->
<g id="node15" class="node"><title>p16</title>
<a xlink:href="../../SDMLib/src/org/sdmlib/examples/patternrewriteops/model/Person.java" xlink:title="&lt;TABLE&gt;">
<polygon fill="none" stroke="black" points="349,-153 349,-170 413,-170 413,-153 349,-153"/>
<text text-anchor="start" x="352.5" y="-159.5" font-family="Arial" font-size="10.00"> </text>
<text text-anchor="start" x="356.5" y="-159.5" font-family="Arial" font-size="10.00">p16 :Person</text>
</a>
</g>
<!-- p18&#45;&#45;p16 -->
<g id="edge15" class="edge"><title>p18&#45;&#45;p16</title>
<path fill="none" stroke="black" stroke-dasharray="1,5" d="M388.818,-216.307C387.143,-204.886 385.117,-191.07 383.547,-180.366"/>
<text text-anchor="middle" x="389.044" y="-186.219" font-family="Arial" font-size="10.00">candidate</text>
</g>
<!-- p17 -->
<g id="node16" class="node"><title>p17</title>
<a xlink:href="../../SDMLib/src/org/sdmlib/examples/patternrewriteops/model/Person.java" xlink:title="&lt;TABLE&gt;">
<polygon fill="none" stroke="black" points="251,-153 251,-170 315,-170 315,-153 251,-153"/>
<text text-anchor="start" x="254.5" y="-159.5" font-family="Arial" font-size="10.00"> </text>
<text text-anchor="start" x="258.5" y="-159.5" font-family="Arial" font-size="10.00">p17 :Person</text>
</a>
</g>
<!-- p18&#45;&#45;p17 -->
<g id="edge17" class="edge"><title>p18&#45;&#45;p17</title>
<path fill="none" stroke="black" stroke-dasharray="1,5" d="M360.473,-216.307C343.748,-204.799 323.49,-190.86 307.885,-180.123"/>
<text text-anchor="middle" x="317.747" y="-179.279" font-family="Arial" font-size="10.00">candidate</text>
</g>
<!-- p15 -->
<g id="node17" class="node"><title>p15</title>
<a xlink:href="../../SDMLib/src/org/sdmlib/examples/patternrewriteops/model/Person.java" xlink:title="&lt;TABLE&gt;">
<polygon fill="none" stroke="black" points="447,-153 447,-170 511,-170 511,-153 447,-153"/>
<text text-anchor="start" x="450.5" y="-159.5" font-family="Arial" font-size="10.00"> </text>
<text text-anchor="start" x="454.5" y="-159.5" font-family="Arial" font-size="10.00">p15 :Person</text>
</a>
</g>
<!-- p18&#45;&#45;p15 -->
<g id="edge11" class="edge"><title>p18&#45;&#45;p15</title>
<path fill="none" stroke="black" stroke-dasharray="1,5" d="M410.978,-216.307C423.456,-204.799 439.763,-190.86 453.366,-180.123"/>
<text text-anchor="middle" x="448.912" y="-186.576" font-family="Arial" font-size="10.00">match</text>
</g>
<!-- p18&#45;&#45;p15 -->
<g id="edge13" class="edge"><title>p18&#45;&#45;p15</title>
<path fill="none" stroke="black" stroke-dasharray="1,5" d="M423.35,-216.307C437.57,-204.799 453.601,-190.86 464.91,-180.123"/>
<text text-anchor="middle" x="461.194" y="-186.907" font-family="Arial" font-size="10.00">candidate</text>
</g>
<!-- t2&#45;&#45;s4 -->
<g id="edge29" class="edge"><title>t2&#45;&#45;s4</title>
<path fill="none" stroke="black" d="M340.705,-313.695C337.145,-309.573 333.402,-305.162 330,-301 318.07,-286.405 305.023,-269.383 295.71,-257.034"/>
<text text-anchor="middle" x="304.546" y="-259.215" font-family="Arial" font-size="10.00">station</text>
<text text-anchor="middle" x="331.586" y="-307.09" font-family="Arial" font-size="10.00">trains</text>
</g>
<!-- t2&#45;&#45;p15 -->
<g id="edge27" class="edge"><title>t2&#45;&#45;p15</title>
<path fill="none" stroke="black" d="M387.472,-329.631C409.299,-326.95 437.335,-319.754 454,-301 484.244,-266.964 483.643,-209.018 481.122,-180.254"/>
<text text-anchor="middle" x="485.978" y="-186.496" font-family="Arial" font-size="10.00">passengers</text>
<text text-anchor="middle" x="395.857" y="-321.681" font-family="Arial" font-size="10.00">train</text>
</g>
<!-- s9 -->
<g id="node9" class="node"><title>s9</title>
<a xlink:href="../../SDMLib/src/org/sdmlib/examples/patternrewriteops/model/Station.java" xlink:title="&lt;TABLE&gt;">
<polygon fill="none" stroke="black" points="158,-153 158,-170 217,-170 217,-153 158,-153"/>
<text text-anchor="start" x="161.5" y="-159.5" font-family="Arial" font-size="10.00"> </text>
<text text-anchor="start" x="165.5" y="-159.5" font-family="Arial" font-size="10.00">s9 :Station</text>
</a>
</g>
<!-- s4&#45;&#45;s9 -->
<g id="edge31" class="edge"><title>s4&#45;&#45;s9</title>
<path fill="none" stroke="black" d="M261.216,-220.981C245.616,-208.794 224.686,-192.442 209.03,-180.211"/>
<text text-anchor="middle" x="218.774" y="-179.96" font-family="Arial" font-size="10.00">next</text>
<text text-anchor="middle" x="251.472" y="-216.232" font-family="Arial" font-size="10.00">prev</text>
</g>
<!-- s4&#45;&#45;p16 -->
<g id="edge33" class="edge"><title>s4&#45;&#45;p16</title>
<path fill="none" stroke="black" d="M305.238,-220.981C321.163,-208.794 342.529,-192.442 358.511,-180.211"/>
<text text-anchor="middle" x="353.882" y="-186.575" font-family="Arial" font-size="10.00">people</text>
<text text-anchor="middle" x="309.866" y="-209.617" font-family="Arial" font-size="10.00">station</text>
</g>
<!-- s4&#45;&#45;p17 -->
<g id="edge35" class="edge"><title>s4&#45;&#45;p17</title>
<path fill="none" stroke="black" d="M283,-220.981C283,-208.794 283,-192.442 283,-180.211"/>
<text text-anchor="middle" x="287.226" y="-186.774" font-family="Arial" font-size="10.00">people</text>
<text text-anchor="middle" x="278.774" y="-209.418" font-family="Arial" font-size="10.00">station</text>
</g>
<!-- s10 -->
<g id="node10" class="node"><title>s10</title>
<a xlink:href="../../SDMLib/src/org/sdmlib/examples/patternrewriteops/model/Station.java" xlink:title="&lt;TABLE&gt;">
<polygon fill="none" stroke="black" points="155,-81 155,-98 219,-98 219,-81 155,-81"/>
<text text-anchor="start" x="158.5" y="-87.5" font-family="Arial" font-size="10.00"> </text>
<text text-anchor="start" x="162.5" y="-87.5" font-family="Arial" font-size="10.00">s10 :Station</text>
</a>
</g>
<!-- s9&#45;&#45;s10 -->
<g id="edge37" class="edge"><title>s9&#45;&#45;s10</title>
<path fill="none" stroke="black" d="M187,-143.697C187,-132.846 187,-118.917 187,-108.104"/>
<text text-anchor="middle" x="191.226" y="-114.667" font-family="Arial" font-size="10.00">next</text>
<text text-anchor="middle" x="182.774" y="-132.134" font-family="Arial" font-size="10.00">prev</text>
</g>
<!-- s11 -->
<g id="node11" class="node"><title>s11</title>
<a xlink:href="../../SDMLib/src/org/sdmlib/examples/patternrewriteops/model/Station.java" xlink:title="&lt;TABLE&gt;">
<polygon fill="none" stroke="black" points="8,-9 8,-26 72,-26 72,-9 8,-9"/>
<text text-anchor="start" x="11.5" y="-15.5" font-family="Arial" font-size="10.00"> </text>
<text text-anchor="start" x="15.5" y="-15.5" font-family="Arial" font-size="10.00">s11 :Station</text>
</a>
</g>
<!-- s10&#45;&#45;s11 -->
<g id="edge39" class="edge"><title>s10&#45;&#45;s11</title>
<path fill="none" stroke="black" d="M151.04,-71.8761C128.175,-60.9882 98.6854,-46.9454 75.8435,-36.0683"/>
<text text-anchor="middle" x="85.8431" y="-33.6492" font-family="Arial" font-size="10.00">next</text>
<text text-anchor="middle" x="141.04" y="-69.2952" font-family="Arial" font-size="10.00">prev</text>
</g>
<!-- p12 -->
<g id="node12" class="node"><title>p12</title>
<a xlink:href="../../SDMLib/src/org/sdmlib/examples/patternrewriteops/model/Person.java" xlink:title="&lt;TABLE&gt;">
<polygon fill="none" stroke="black" points="106,-9 106,-26 170,-26 170,-9 106,-9"/>
<text text-anchor="start" x="109.5" y="-15.5" font-family="Arial" font-size="10.00"> </text>
<text text-anchor="start" x="113.5" y="-15.5" font-family="Arial" font-size="10.00">p12 :Person</text>
</a>
</g>
<!-- s10&#45;&#45;p12 -->
<g id="edge43" class="edge"><title>s10&#45;&#45;p12</title>
<path fill="none" stroke="black" d="M174.888,-71.6966C167.292,-60.8463 157.542,-46.9167 149.973,-36.1043"/>
<text text-anchor="middle" x="158.633" y="-38.6055" font-family="Arial" font-size="10.00">people</text>
<text text-anchor="middle" x="166.228" y="-64.1954" font-family="Arial" font-size="10.00">station</text>
</g>
<!-- p13 -->
<g id="node13" class="node"><title>p13</title>
<a xlink:href="../../SDMLib/src/org/sdmlib/examples/patternrewriteops/model/Person.java" xlink:title="&lt;TABLE&gt;">
<polygon fill="none" stroke="black" points="204,-9 204,-26 268,-26 268,-9 204,-9"/>
<text text-anchor="start" x="207.5" y="-15.5" font-family="Arial" font-size="10.00"> </text>
<text text-anchor="start" x="211.5" y="-15.5" font-family="Arial" font-size="10.00">p13 :Person</text>
</a>
</g>
<!-- s10&#45;&#45;p13 -->
<g id="edge45" class="edge"><title>s10&#45;&#45;p13</title>
<path fill="none" stroke="black" d="M199.112,-71.6966C206.708,-60.8463 216.458,-46.9167 224.027,-36.1043"/>
<text text-anchor="middle" x="222.292" y="-43.4527" font-family="Arial" font-size="10.00">people</text>
<text text-anchor="middle" x="200.847" y="-59.3483" font-family="Arial" font-size="10.00">station</text>
</g>
<!-- s14 -->
<g id="node14" class="node"><title>s14</title>
<a xlink:href="../../SDMLib/src/org/sdmlib/examples/patternrewriteops/model/SignalFlag.java" xlink:title="&lt;TABLE&gt;">
<polygon fill="none" stroke="black" points="303,-9 303,-26 382,-26 382,-9 303,-9"/>
<text text-anchor="start" x="306.5" y="-15.5" font-family="Arial" font-size="10.00"> </text>
<text text-anchor="start" x="310.5" y="-15.5" font-family="Arial" font-size="10.00">s14 :SignalFlag</text>
</a>
</g>
<!-- s10&#45;&#45;s14 -->
<g id="edge41" class="edge"><title>s10&#45;&#45;s14</title>
<path fill="none" stroke="black" d="M224.917,-71.8761C249.026,-60.9882 280.121,-46.9454 304.206,-36.0683"/>
<text text-anchor="middle" x="297.685" y="-41.1502" font-family="Arial" font-size="10.00">flag</text>
<text text-anchor="middle" x="231.438" y="-61.7942" font-family="Arial" font-size="10.00">station</text>
</g>
</g>
</svg>
