<?xml version="1.0" encoding="UTF-8" standalone="no"?>
<!DOCTYPE svg PUBLIC "-//W3C//DTD SVG 1.1//EN"
 "http://www.w3.org/Graphics/SVG/1.1/DTD/svg11.dtd">
<!-- Generated by graphviz version 2.28.0 (20110507.0327)
 -->
<!-- Title: ObjectDiagram Pages: 1 -->
<svg width="846pt" height="387pt"
 viewBox="0.00 0.00 846.00 387.00" xmlns="http://www.w3.org/2000/svg" xmlns:xlink="http://www.w3.org/1999/xlink">
<g id="graph1" class="graph" transform="scale(1 1) rotate(0) translate(4 383)">
<title>ObjectDiagram</title>
<polygon fill="white" stroke="white" points="-4,5 -4,-383 843,-383 843,5 -4,5"/>
<g id="graph2" class="cluster"><title>cluster_o8</title>
<polygon fill="none" stroke="grey" points="732,-141 732,-311 830,-311 830,-141 732,-141"/>
<text text-anchor="start" x="749.5" y="-291.8" font-family="Times New Roman,serif" font-size="14.00">optional o8</text>
</g>
<!-- t1 -->
<g id="node1" class="node"><title>t1</title>
<polygon fill="deepskyblue" stroke="deepskyblue" points="411,-323.5 411,-374.5 467,-374.5 467,-323.5 411,-323.5"/>
<text text-anchor="start" x="433" y="-364.5" font-family="Arial" font-size="10.00">«bound»</text>
<polygon fill="none" stroke="black" points="411,-343 411,-359 467,-359 467,-343 411,-343"/>
<text text-anchor="start" x="414.5" y="-349" font-family="Arial" font-size="10.00"> </text>
<text text-anchor="start" x="418.5" y="-349" font-family="Arial" font-size="10.00"> t1 :TrainPO </text>
<polygon fill="none" stroke="black" points="411,-323 411,-343 467,-343 467,-323 411,-323"/>
<text text-anchor="start" x="435.5" y="-331" font-family="Arial" font-size="10.00"> &#160;</text>
</g>
<!-- s3 -->
<g id="node2" class="node"><title>s3</title>
<polygon fill="deepskyblue" stroke="deepskyblue" points="264.5,-230.5 264.5,-267.5 329.5,-267.5 329.5,-230.5 264.5,-230.5"/>
<polygon fill="none" stroke="black" points="265,-250 265,-267 330,-267 330,-250 265,-250"/>
<text text-anchor="start" x="268.5" y="-256.5" font-family="Arial" font-size="10.00"> </text>
<text text-anchor="start" x="272.5" y="-256.5" font-family="Arial" font-size="10.00"> s3 :StationPO </text>
<polygon fill="none" stroke="black" points="265,-230 265,-250 330,-250 330,-230 265,-230"/>
<text text-anchor="start" x="294" y="-238" font-family="Arial" font-size="10.00"> &#160;</text>
</g>
<!-- t1&#45;&#45;s3 -->
<g id="edge15" class="edge"><title>t1&#45;&#45;s3</title>
<path fill="none" stroke="black" d="M402.8,-323.017C379.792,-307.138 350.308,-286.79 328.311,-271.609"/>
<text text-anchor="middle" x="338.17" y="-270.778" font-family="Arial" font-size="10.00">station</text>
</g>
<!-- t2 -->
<g id="node8" class="node"><title>t2</title>
<a xlink:href="../../SDMLib/src/org/sdmlib/examples/patternrewriteops/Train.java" xlink:title="&lt;TABLE&gt;">
<polygon fill="none" stroke="black" points="416,-240 416,-257 463,-257 463,-240 416,-240"/>
<text text-anchor="start" x="419.5" y="-246.5" font-family="Arial" font-size="10.00"> </text>
<text text-anchor="start" x="423.5" y="-246.5" font-family="Arial" font-size="10.00">t2 :Train</text>
</a>
</g>
<!-- t1&#45;&#45;t2 -->
<g id="edge3" class="edge"><title>t1&#45;&#45;t2</title>
<path fill="none" stroke="black" stroke-dasharray="1,5" d="M439,-319.391C439,-302.442 439,-281.532 439,-267.121"/>
<text text-anchor="middle" x="443.226" y="-273.684" font-family="Arial" font-size="10.00">match</text>
</g>
<!-- s5 -->
<g id="node3" class="node"><title>s5</title>
<polygon fill="deepskyblue" stroke="deepskyblue" points="55.5,-148.5 55.5,-185.5 132.5,-185.5 132.5,-148.5 55.5,-148.5"/>
<polygon fill="none" stroke="black" points="56,-168 56,-185 133,-185 133,-168 56,-168"/>
<text text-anchor="start" x="59.5" y="-174.5" font-family="Arial" font-size="10.00"> </text>
<text text-anchor="start" x="63.5" y="-174.5" font-family="Arial" font-size="10.00"> s5 :SignalFlagPO </text>
<polygon fill="none" stroke="black" points="56,-148 56,-168 133,-168 133,-148 56,-148"/>
<text text-anchor="start" x="91" y="-156" font-family="Arial" font-size="10.00"> &#160;</text>
</g>
<!-- s3&#45;&#45;s5 -->
<g id="edge17" class="edge"><title>s3&#45;&#45;s5</title>
<path fill="none" stroke="black" d="M256.453,-232.198C226.694,-220.579 185.307,-204.376 149,-190 146.227,-188.902 143.377,-187.771 140.502,-186.627"/>
<text text-anchor="middle" x="150.485" y="-183.549" font-family="Arial" font-size="10.00">flag</text>
</g>
<!-- p9 -->
<g id="node6" class="node"><title>p9</title>
<polygon fill="deepskyblue" stroke="deepskyblue" points="748,-230.5 748,-267.5 814,-267.5 814,-230.5 748,-230.5"/>
<polygon fill="none" stroke="black" points="748,-250 748,-267 814,-267 814,-250 748,-250"/>
<text text-anchor="start" x="751.5" y="-256.5" font-family="Arial" font-size="10.00"> </text>
<text text-anchor="start" x="755.5" y="-256.5" font-family="Arial" font-size="10.00"> p9 :PersonPO </text>
<polygon fill="none" stroke="black" points="748,-230 748,-250 814,-250 814,-230 748,-230"/>
<text text-anchor="start" x="777.5" y="-238" font-family="Arial" font-size="10.00"> &#160;</text>
</g>
<!-- s3&#45;&#45;p9 -->
<g id="edge19" class="edge"><title>s3&#45;&#45;p9</title>
<path fill="none" stroke="red" d="M323.291,-271.683C344.316,-288.013 375.411,-308.296 407,-315 424.39,-318.691 709.61,-318.691 727,-315 748.579,-310.421 763.332,-288.814 771.894,-271.552"/>
<text text-anchor="middle" x="771.454" y="-279.042" font-family="Arial" font-size="10.00" fill="red">people</text>
</g>
<!-- s4 -->
<g id="node9" class="node"><title>s4</title>
<a xlink:href="../../SDMLib/src/org/sdmlib/examples/patternrewriteops/Station.java" xlink:title="&lt;TABLE&gt;">
<polygon fill="none" stroke="black" points="167,-158 167,-175 226,-175 226,-158 167,-158"/>
<text text-anchor="start" x="170.5" y="-164.5" font-family="Arial" font-size="10.00"> </text>
<text text-anchor="start" x="174.5" y="-164.5" font-family="Arial" font-size="10.00">s4 :Station</text>
</a>
</g>
<!-- s3&#45;&#45;s4 -->
<g id="edge5" class="edge"><title>s3&#45;&#45;s4</title>
<path fill="none" stroke="black" stroke-dasharray="1,5" d="M269.668,-226.351C253.31,-213.394 232.812,-197.158 217.593,-185.104"/>
<text text-anchor="middle" x="227.322" y="-184.918" font-family="Arial" font-size="10.00">match</text>
</g>
<!-- d7 -->
<g id="node4" class="node"><title>d7</title>
<text text-anchor="middle" x="27" y="-87.5" font-family="Arial" font-size="10.00" fill="red">destroy</text>
</g>
<!-- s5&#45;&#45;d7 -->
<g id="edge9" class="edge"><title>s5&#45;&#45;d7</title>
<path fill="none" stroke="red" stroke-dasharray="1,5" d="M74.6208,-144.307C64.4178,-132.886 52.0758,-119.07 42.5132,-108.366"/>
</g>
<!-- s6 -->
<g id="node21" class="node"><title>s6</title>
<text text-anchor="middle" x="99" y="-87.5" font-family="Arial" font-size="10.00">s6</text>
</g>
<!-- s5&#45;&#45;s6 -->
<g id="edge7" class="edge"><title>s5&#45;&#45;s6</title>
<path fill="none" stroke="black" stroke-dasharray="1,5" d="M95.4462,-144.307C96.2076,-132.886 97.1287,-119.07 97.8423,-108.366"/>
<text text-anchor="middle" x="101.456" y="-115.19" font-family="Arial" font-size="10.00">match</text>
</g>
<!-- p9&#45;&#45;t1 -->
<g id="edge21" class="edge"><title>p9&#45;&#45;t1</title>
<path fill="none" stroke="green" d="M770.788,-271.684C763.181,-285.308 751.446,-301.959 736,-311 692.502,-336.462 544.369,-344.581 475.169,-347.021"/>
<text text-anchor="middle" x="484.057" y="-339.937" font-family="Arial" font-size="10.00" fill="green">train</text>
</g>
<!-- allMatches_p9 -->
<g id="node7" class="node"><title>allMatches_p9</title>
<text text-anchor="middle" x="781" y="-164.5" font-family="Arial" font-size="10.00">allMatches</text>
</g>
<!-- p9&#45;&#45;allMatches_p9 -->
<g id="edge11" class="edge"><title>p9&#45;&#45;allMatches_p9</title>
<path fill="none" stroke="black" stroke-dasharray="1,5" d="M781,-226.14C781,-213.186 781,-197.013 781,-185.015"/>
</g>
<!-- p10 -->
<g id="node17" class="node"><title>p10</title>
<a xlink:href="../../SDMLib/src/org/sdmlib/examples/patternrewriteops/Person.java" xlink:title="&lt;TABLE&gt;">
<polygon fill="none" stroke="black" points="652,-158 652,-175 716,-175 716,-158 652,-158"/>
<text text-anchor="start" x="655.5" y="-164.5" font-family="Arial" font-size="10.00"> </text>
<text text-anchor="start" x="659.5" y="-164.5" font-family="Arial" font-size="10.00">p10 :Person</text>
</a>
</g>
<!-- p9&#45;&#45;p10 -->
<g id="edge13" class="edge"><title>p9&#45;&#45;p10</title>
<path fill="none" stroke="black" stroke-dasharray="1,5" d="M754.75,-226.351C739.04,-213.394 719.354,-197.158 704.738,-185.104"/>
<text text-anchor="middle" x="714.419" y="-185.11" font-family="Arial" font-size="10.00">match</text>
</g>
<!-- t2&#45;&#45;s4 -->
<g id="edge23" class="edge"><title>t2&#45;&#45;s4</title>
<path fill="none" stroke="black" d="M407.631,-240.273C368.526,-230.287 299.899,-211.596 243,-190 239.041,-188.497 234.952,-186.805 230.913,-185.043"/>
<text text-anchor="middle" x="240.909" y="-182.274" font-family="Arial" font-size="10.00">station</text>
<text text-anchor="middle" x="397.799" y="-239.596" font-family="Arial" font-size="10.00">trains</text>
</g>
<!-- p14 -->
<g id="node13" class="node"><title>p14</title>
<a xlink:href="../../SDMLib/src/org/sdmlib/examples/patternrewriteops/Person.java" xlink:title="&lt;TABLE&gt;">
<polygon fill="none" stroke="black" points="260,-158 260,-175 324,-175 324,-158 260,-158"/>
<text text-anchor="start" x="263.5" y="-164.5" font-family="Arial" font-size="10.00"> </text>
<text text-anchor="start" x="267.5" y="-164.5" font-family="Arial" font-size="10.00">p14 :Person</text>
</a>
</g>
<!-- t2&#45;&#45;p14 -->
<g id="edge25" class="edge"><title>t2&#45;&#45;p14</title>
<path fill="none" stroke="black" d="M407.465,-230.838C382.662,-217.34 348.272,-198.624 323.483,-185.134"/>
<text text-anchor="middle" x="333.464" y="-183.254" font-family="Arial" font-size="10.00">passengers</text>
<text text-anchor="middle" x="397.484" y="-227.718" font-family="Arial" font-size="10.00">train</text>
</g>
<!-- p15 -->
<g id="node14" class="node"><title>p15</title>
<a xlink:href="../../SDMLib/src/org/sdmlib/examples/patternrewriteops/Person.java" xlink:title="&lt;TABLE&gt;">
<polygon fill="none" stroke="black" points="358,-158 358,-175 422,-175 422,-158 358,-158"/>
<text text-anchor="start" x="361.5" y="-164.5" font-family="Arial" font-size="10.00"> </text>
<text text-anchor="start" x="365.5" y="-164.5" font-family="Arial" font-size="10.00">p15 :Person</text>
</a>
</g>
<!-- t2&#45;&#45;p15 -->
<g id="edge27" class="edge"><title>t2&#45;&#45;p15</title>
<path fill="none" stroke="black" d="M428.368,-230.641C420.092,-217.131 408.67,-198.482 400.443,-185.05"/>
<text text-anchor="middle" x="408.781" y="-188.071" font-family="Arial" font-size="10.00">passengers</text>
<text text-anchor="middle" x="420.03" y="-222.62" font-family="Arial" font-size="10.00">train</text>
</g>
<!-- p16 -->
<g id="node15" class="node"><title>p16</title>
<a xlink:href="../../SDMLib/src/org/sdmlib/examples/patternrewriteops/Person.java" xlink:title="&lt;TABLE&gt;">
<polygon fill="none" stroke="black" points="456,-158 456,-175 520,-175 520,-158 456,-158"/>
<text text-anchor="start" x="459.5" y="-164.5" font-family="Arial" font-size="10.00"> </text>
<text text-anchor="start" x="463.5" y="-164.5" font-family="Arial" font-size="10.00">p16 :Person</text>
</a>
</g>
<!-- t2&#45;&#45;p16 -->
<g id="edge29" class="edge"><title>t2&#45;&#45;p16</title>
<path fill="none" stroke="black" d="M449.632,-230.641C457.908,-217.131 469.33,-198.482 477.557,-185.05"/>
<text text-anchor="middle" x="476.427" y="-192.486" font-family="Arial" font-size="10.00">passengers</text>
<text text-anchor="middle" x="450.762" y="-218.205" font-family="Arial" font-size="10.00">train</text>
</g>
<!-- p17 -->
<g id="node16" class="node"><title>p17</title>
<a xlink:href="../../SDMLib/src/org/sdmlib/examples/patternrewriteops/Person.java" xlink:title="&lt;TABLE&gt;">
<polygon fill="none" stroke="black" points="554,-158 554,-175 618,-175 618,-158 554,-158"/>
<text text-anchor="start" x="557.5" y="-164.5" font-family="Arial" font-size="10.00"> </text>
<text text-anchor="start" x="561.5" y="-164.5" font-family="Arial" font-size="10.00">p17 :Person</text>
</a>
</g>
<!-- t2&#45;&#45;p17 -->
<g id="edge31" class="edge"><title>t2&#45;&#45;p17</title>
<path fill="none" stroke="black" d="M470.535,-230.838C495.338,-217.34 529.728,-198.624 554.517,-185.134"/>
<text text-anchor="middle" x="548.577" y="-190.678" font-family="Arial" font-size="10.00">passengers</text>
<text text-anchor="middle" x="476.476" y="-220.294" font-family="Arial" font-size="10.00">train</text>
</g>
<!-- t2&#45;&#45;p10 -->
<g id="edge33" class="edge"><title>t2&#45;&#45;p10</title>
<path fill="none" stroke="black" d="M470.313,-240.126C509.363,-229.99 577.933,-211.146 635,-190 639.11,-188.477 643.362,-186.772 647.566,-185.003"/>
<text text-anchor="middle" x="640.839" y="-189.902" font-family="Arial" font-size="10.00">passengers</text>
<text text-anchor="middle" x="478.007" y="-231.238" font-family="Arial" font-size="10.00">train</text>
</g>
<!-- s11 -->
<g id="node10" class="node"><title>s11</title>
<a xlink:href="../../SDMLib/src/org/sdmlib/examples/patternrewriteops/Station.java" xlink:title="&lt;TABLE&gt;">
<polygon fill="none" stroke="black" points="160,-81 160,-98 224,-98 224,-81 160,-81"/>
<text text-anchor="start" x="163.5" y="-87.5" font-family="Arial" font-size="10.00"> </text>
<text text-anchor="start" x="167.5" y="-87.5" font-family="Arial" font-size="10.00">s11 :Station</text>
</a>
</g>
<!-- s4&#45;&#45;s11 -->
<g id="edge35" class="edge"><title>s4&#45;&#45;s11</title>
<path fill="none" stroke="black" d="M195.092,-148.981C194.442,-136.794 193.57,-120.442 192.918,-108.211"/>
<text text-anchor="middle" x="197.621" y="-114.536" font-family="Arial" font-size="10.00">next</text>
<text text-anchor="middle" x="190.389" y="-137.656" font-family="Arial" font-size="10.00">prev</text>
</g>
<!-- s12 -->
<g id="node11" class="node"><title>s12</title>
<a xlink:href="../../SDMLib/src/org/sdmlib/examples/patternrewriteops/Station.java" xlink:title="&lt;TABLE&gt;">
<polygon fill="none" stroke="black" points="258,-81 258,-98 322,-98 322,-81 258,-81"/>
<text text-anchor="start" x="261.5" y="-87.5" font-family="Arial" font-size="10.00"> </text>
<text text-anchor="start" x="265.5" y="-87.5" font-family="Arial" font-size="10.00">s12 :Station</text>
</a>
</g>
<!-- s4&#45;&#45;s12 -->
<g id="edge37" class="edge"><title>s4&#45;&#45;s12</title>
<path fill="none" stroke="black" d="M217.33,-148.981C232.605,-136.794 253.099,-120.442 268.429,-108.211"/>
<text text-anchor="middle" x="263.98" y="-114.667" font-family="Arial" font-size="10.00">prev</text>
<text text-anchor="middle" x="221.779" y="-137.525" font-family="Arial" font-size="10.00">next</text>
</g>
<!-- s13 -->
<g id="node12" class="node"><title>s13</title>
<a xlink:href="../../SDMLib/src/org/sdmlib/examples/patternrewriteops/Station.java" xlink:title="&lt;TABLE&gt;">
<polygon fill="none" stroke="black" points="258,-9 258,-26 322,-26 322,-9 258,-9"/>
<text text-anchor="start" x="261.5" y="-15.5" font-family="Arial" font-size="10.00"> </text>
<text text-anchor="start" x="265.5" y="-15.5" font-family="Arial" font-size="10.00">s13 :Station</text>
</a>
</g>
<!-- s12&#45;&#45;s13 -->
<g id="edge39" class="edge"><title>s12&#45;&#45;s13</title>
<path fill="none" stroke="black" d="M290,-71.6966C290,-60.8463 290,-46.9167 290,-36.1043"/>
<text text-anchor="middle" x="294.226" y="-42.6674" font-family="Arial" font-size="10.00">prev</text>
<text text-anchor="middle" x="285.774" y="-60.1335" font-family="Arial" font-size="10.00">next</text>
</g>
</g>
</svg>
