<?xml version="1.0" encoding="UTF-8" standalone="no"?>
<!DOCTYPE svg PUBLIC "-//W3C//DTD SVG 1.1//EN"
 "http://www.w3.org/Graphics/SVG/1.1/DTD/svg11.dtd">
<!-- Generated by graphviz version 2.28.0 (20110507.0327)
 -->
<!-- Title: ObjectDiagram Pages: 1 -->
<svg width="482pt" height="577pt"
 viewBox="0.00 0.00 482.00 577.00" xmlns="http://www.w3.org/2000/svg" xmlns:xlink="http://www.w3.org/1999/xlink">
<g id="graph1" class="graph" transform="scale(1 1) rotate(0) translate(4 573)">
<title>ObjectDiagram</title>
<polygon fill="white" stroke="white" points="-4,5 -4,-573 479,-573 479,5 -4,5"/>
<g id="graph2" class="cluster"><title>cluster_o7</title>
<polygon fill="none" stroke="grey" points="42,-384 42,-561 134,-561 134,-384 42,-384"/>
<text text-anchor="start" x="56.5" y="-541.8" font-family="Times New Roman,serif" font-size="14.00">optional o7</text>
</g>
<!-- t1 -->
<g id="node1" class="node"><title>t1</title>
<polygon fill="deepskyblue" stroke="deepskyblue" points="178.5,-384.5 178.5,-435.5 245.5,-435.5 245.5,-384.5 178.5,-384.5"/>
<text text-anchor="start" x="207" y="-425.5" font-family="Arial" font-size="10.00">«bound»</text>
<polygon fill="none" stroke="black" points="179,-404 179,-420 246,-420 246,-404 179,-404"/>
<text text-anchor="start" x="182.5" y="-410" font-family="Arial" font-size="10.00"> </text>
<text text-anchor="start" x="186.5" y="-410" font-family="Arial" font-size="10.00"> t1 :TrainPO </text>
<polygon fill="none" stroke="black" points="179,-384 179,-404 246,-404 246,-384 179,-384"/>
<text text-anchor="start" x="209" y="-392" font-family="Arial" font-size="10.00"> &#160;</text>
</g>
<!-- s3 -->
<g id="node2" class="node"><title>s3</title>
<polygon fill="deepskyblue" stroke="deepskyblue" points="112,-302.5 112,-339.5 172,-339.5 172,-302.5 112,-302.5"/>
<polygon fill="none" stroke="black" points="112,-322 112,-339 172,-339 172,-322 112,-322"/>
<text text-anchor="start" x="115.5" y="-328.5" font-family="Arial" font-size="10.00"> </text>
<text text-anchor="start" x="119.5" y="-328.5" font-family="Arial" font-size="10.00"> s3 :StationPO </text>
<polygon fill="none" stroke="black" points="112,-302 112,-322 172,-322 172,-302 112,-302"/>
<text text-anchor="start" x="138.5" y="-310" font-family="Arial" font-size="10.00"> &#160;</text>
</g>
<!-- t1&#45;&#45;s3 -->
<g id="edge11" class="edge"><title>t1&#45;&#45;s3</title>
<path fill="none" stroke="black" d="M188.691,-380.03C179.146,-368.167 168.29,-354.675 159.45,-343.687"/>
<text text-anchor="middle" x="168.424" y="-345.599" font-family="Arial" font-size="10.00">station</text>
</g>
<!-- t2 -->
<g id="node8" class="node"><title>t2</title>
<a xlink:href="../../SDMLib/src/org/sdmlib/examples/patternrewriteops/Train.java" xlink:title="&lt;TABLE&gt;">
<polygon fill="none" stroke="black" points="215,-312 215,-329 262,-329 262,-312 215,-312"/>
<text text-anchor="start" x="218.5" y="-318.5" font-family="Arial" font-size="10.00"> </text>
<text text-anchor="start" x="222.5" y="-318.5" font-family="Arial" font-size="10.00">t2 :Train</text>
</a>
</g>
<!-- t1&#45;&#45;t2 -->
<g id="edge3" class="edge"><title>t1&#45;&#45;t2</title>
<path fill="none" stroke="black" stroke-dasharray="1,5" d="M220.658,-380.03C224.705,-366.486 229.387,-350.819 232.866,-339.18"/>
<text text-anchor="middle" x="234.32" y="-346.574" font-family="Arial" font-size="10.00">match</text>
</g>
<!-- s5 -->
<g id="node3" class="node"><title>s5</title>
<polygon fill="deepskyblue" stroke="deepskyblue" points="8,-220.5 8,-257.5 78,-257.5 78,-220.5 8,-220.5"/>
<polygon fill="none" stroke="black" points="8,-240 8,-257 78,-257 78,-240 8,-240"/>
<text text-anchor="start" x="11.5" y="-246.5" font-family="Arial" font-size="10.00"> </text>
<text text-anchor="start" x="15.5" y="-246.5" font-family="Arial" font-size="10.00"> s5 :SignalFlagPO </text>
<polygon fill="none" stroke="black" points="8,-220 8,-240 78,-240 78,-220 8,-220"/>
<text text-anchor="start" x="39.5" y="-228" font-family="Arial" font-size="10.00"> &#160;</text>
</g>
<!-- s3&#45;&#45;s5 -->
<g id="edge13" class="edge"><title>s3&#45;&#45;s5</title>
<path fill="none" stroke="black" d="M115.209,-298.351C101.122,-286.967 83.9024,-273.052 69.8122,-261.666"/>
<text text-anchor="middle" x="79.5177" y="-261.576" font-family="Arial" font-size="10.00">flag</text>
</g>
<!-- p8 -->
<g id="node6" class="node"><title>p8</title>
<polygon fill="deepskyblue" stroke="deepskyblue" points="58,-480.5 58,-517.5 118,-517.5 118,-480.5 58,-480.5"/>
<polygon fill="none" stroke="black" points="58,-500 58,-517 118,-517 118,-500 58,-500"/>
<text text-anchor="start" x="61.5" y="-506.5" font-family="Arial" font-size="10.00"> </text>
<text text-anchor="start" x="65.5" y="-506.5" font-family="Arial" font-size="10.00"> p8 :PersonPO </text>
<polygon fill="none" stroke="black" points="58,-480 58,-500 118,-500 118,-480 58,-480"/>
<text text-anchor="start" x="84.5" y="-488" font-family="Arial" font-size="10.00"> &#160;</text>
</g>
<!-- s3&#45;&#45;p8 -->
<g id="edge15" class="edge"><title>s3&#45;&#45;p8</title>
<path fill="none" stroke="red" d="M141.001,-343.507C139.323,-367.644 134.853,-407.659 123,-440 118.305,-452.809 110.679,-465.919 103.742,-476.427"/>
<text text-anchor="middle" x="105.138" y="-464.025" font-family="Arial" font-size="10.00" fill="red">people</text>
</g>
<!-- s4 -->
<g id="node9" class="node"><title>s4</title>
<a xlink:href="../../SDMLib/src/org/sdmlib/examples/patternrewriteops/Station.java" xlink:title="&lt;TABLE&gt;">
<polygon fill="none" stroke="black" points="113,-230 113,-247 172,-247 172,-230 113,-230"/>
<text text-anchor="start" x="116.5" y="-236.5" font-family="Arial" font-size="10.00"> </text>
<text text-anchor="start" x="120.5" y="-236.5" font-family="Arial" font-size="10.00">s4 :Station</text>
</a>
</g>
<!-- s3&#45;&#45;s4 -->
<g id="edge5" class="edge"><title>s3&#45;&#45;s4</title>
<path fill="none" stroke="black" stroke-dasharray="1,5" d="M142,-298.14C142,-285.186 142,-269.013 142,-257.015"/>
<text text-anchor="middle" x="146.226" y="-263.578" font-family="Arial" font-size="10.00">match</text>
</g>
<!-- d6 -->
<g id="node4" class="node"><title>d6</title>
<text text-anchor="middle" x="43" y="-159.5" font-family="Arial" font-size="10.00" fill="red">destroy</text>
</g>
<!-- s5&#45;&#45;d6 -->
<g id="edge7" class="edge"><title>s5&#45;&#45;d6</title>
<path fill="none" stroke="red" stroke-dasharray="1,5" d="M43,-216.307C43,-204.886 43,-191.07 43,-180.366"/>
</g>
<!-- p8&#45;&#45;t1 -->
<g id="edge17" class="edge"><title>p8&#45;&#45;t1</title>
<path fill="none" stroke="green" d="M118.652,-476.494C134.43,-465.424 153.884,-451.775 170.941,-439.807"/>
<text text-anchor="middle" x="165.949" y="-445.972" font-family="Arial" font-size="10.00" fill="green">train</text>
</g>
<!-- allMatches_p8 -->
<g id="node7" class="node"><title>allMatches_p8</title>
<text text-anchor="middle" x="82" y="-407.5" font-family="Arial" font-size="10.00">allMatches</text>
</g>
<!-- p8&#45;&#45;allMatches_p8 -->
<g id="edge9" class="edge"><title>p8&#45;&#45;allMatches_p8</title>
<path fill="none" stroke="black" stroke-dasharray="1,5" d="M86.5169,-476.494C85.4897,-461.6 84.1405,-442.037 83.185,-428.182"/>
</g>
<!-- t2&#45;&#45;s4 -->
<g id="edge19" class="edge"><title>t2&#45;&#45;s4</title>
<path fill="none" stroke="black" d="M217.169,-302.641C200.957,-289.131 178.578,-270.482 162.46,-257.05"/>
<text text-anchor="middle" x="172.128" y="-257.105" font-family="Arial" font-size="10.00">station</text>
<text text-anchor="middle" x="207.501" y="-297.586" font-family="Arial" font-size="10.00">trains</text>
</g>
<!-- p12 -->
<g id="node13" class="node"><title>p12</title>
<a xlink:href="../../SDMLib/src/org/sdmlib/examples/patternrewriteops/Person.java" xlink:title="&lt;TABLE&gt;">
<polygon fill="none" stroke="black" points="206,-230 206,-247 270,-247 270,-230 206,-230"/>
<text text-anchor="start" x="209.5" y="-236.5" font-family="Arial" font-size="10.00"> </text>
<text text-anchor="start" x="213.5" y="-236.5" font-family="Arial" font-size="10.00">p12 :Person</text>
</a>
</g>
<!-- t2&#45;&#45;p12 -->
<g id="edge21" class="edge"><title>t2&#45;&#45;p12</title>
<path fill="none" stroke="black" d="M238,-302.641C238,-289.131 238,-270.482 238,-257.05"/>
<text text-anchor="middle" x="242.226" y="-263.613" font-family="Arial" font-size="10.00">passengers</text>
<text text-anchor="middle" x="233.774" y="-291.078" font-family="Arial" font-size="10.00">train</text>
</g>
<!-- p13 -->
<g id="node14" class="node"><title>p13</title>
<a xlink:href="../../SDMLib/src/org/sdmlib/examples/patternrewriteops/Person.java" xlink:title="&lt;TABLE&gt;">
<polygon fill="none" stroke="black" points="304,-230 304,-247 368,-247 368,-230 304,-230"/>
<text text-anchor="start" x="307.5" y="-236.5" font-family="Arial" font-size="10.00"> </text>
<text text-anchor="start" x="311.5" y="-236.5" font-family="Arial" font-size="10.00">p13 :Person</text>
</a>
</g>
<!-- t2&#45;&#45;p13 -->
<g id="edge23" class="edge"><title>t2&#45;&#45;p13</title>
<path fill="none" stroke="black" d="M259.265,-302.641C275.815,-289.131 298.66,-270.482 315.114,-257.05"/>
<text text-anchor="middle" x="310.765" y="-263.555" font-family="Arial" font-size="10.00">passengers</text>
<text text-anchor="middle" x="263.613" y="-291.136" font-family="Arial" font-size="10.00">train</text>
</g>
<!-- p14 -->
<g id="node15" class="node"><title>p14</title>
<a xlink:href="../../SDMLib/src/org/sdmlib/examples/patternrewriteops/Person.java" xlink:title="&lt;TABLE&gt;">
<polygon fill="none" stroke="black" points="402,-230 402,-247 466,-247 466,-230 402,-230"/>
<text text-anchor="start" x="405.5" y="-236.5" font-family="Arial" font-size="10.00"> </text>
<text text-anchor="start" x="409.5" y="-236.5" font-family="Arial" font-size="10.00">p14 :Person</text>
</a>
</g>
<!-- t2&#45;&#45;p14 -->
<g id="edge25" class="edge"><title>t2&#45;&#45;p14</title>
<path fill="none" stroke="black" d="M269.427,-308.083C299.307,-296.64 345.435,-278.677 385,-262 388.695,-260.443 392.531,-258.788 396.357,-257.112"/>
<text text-anchor="middle" x="389.747" y="-262.116" font-family="Arial" font-size="10.00">passengers</text>
<text text-anchor="middle" x="276.372" y="-298.389" font-family="Arial" font-size="10.00">train</text>
</g>
<!-- s9 -->
<g id="node10" class="node"><title>s9</title>
<a xlink:href="../../SDMLib/src/org/sdmlib/examples/patternrewriteops/Station.java" xlink:title="&lt;TABLE&gt;">
<polygon fill="none" stroke="black" points="113,-153 113,-170 172,-170 172,-153 113,-153"/>
<text text-anchor="start" x="116.5" y="-159.5" font-family="Arial" font-size="10.00"> </text>
<text text-anchor="start" x="120.5" y="-159.5" font-family="Arial" font-size="10.00">s9 :Station</text>
</a>
</g>
<!-- s4&#45;&#45;s9 -->
<g id="edge27" class="edge"><title>s4&#45;&#45;s9</title>
<path fill="none" stroke="black" d="M142,-220.981C142,-208.794 142,-192.442 142,-180.211"/>
<text text-anchor="middle" x="146.226" y="-186.774" font-family="Arial" font-size="10.00">prev</text>
<text text-anchor="middle" x="137.774" y="-209.418" font-family="Arial" font-size="10.00">next</text>
</g>
<!-- s10 -->
<g id="node11" class="node"><title>s10</title>
<a xlink:href="../../SDMLib/src/org/sdmlib/examples/patternrewriteops/Station.java" xlink:title="&lt;TABLE&gt;">
<polygon fill="none" stroke="black" points="110,-81 110,-98 174,-98 174,-81 110,-81"/>
<text text-anchor="start" x="113.5" y="-87.5" font-family="Arial" font-size="10.00"> </text>
<text text-anchor="start" x="117.5" y="-87.5" font-family="Arial" font-size="10.00">s10 :Station</text>
</a>
</g>
<!-- s9&#45;&#45;s10 -->
<g id="edge29" class="edge"><title>s9&#45;&#45;s10</title>
<path fill="none" stroke="black" d="M142,-143.697C142,-132.846 142,-118.917 142,-108.104"/>
<text text-anchor="middle" x="146.226" y="-114.667" font-family="Arial" font-size="10.00">prev</text>
<text text-anchor="middle" x="137.774" y="-132.134" font-family="Arial" font-size="10.00">next</text>
</g>
<!-- s11 -->
<g id="node12" class="node"><title>s11</title>
<a xlink:href="../../SDMLib/src/org/sdmlib/examples/patternrewriteops/Station.java" xlink:title="&lt;TABLE&gt;">
<polygon fill="none" stroke="black" points="110,-9 110,-26 174,-26 174,-9 110,-9"/>
<text text-anchor="start" x="113.5" y="-15.5" font-family="Arial" font-size="10.00"> </text>
<text text-anchor="start" x="117.5" y="-15.5" font-family="Arial" font-size="10.00">s11 :Station</text>
</a>
</g>
<!-- s10&#45;&#45;s11 -->
<g id="edge31" class="edge"><title>s10&#45;&#45;s11</title>
<path fill="none" stroke="black" d="M142,-71.6966C142,-60.8463 142,-46.9167 142,-36.1043"/>
<text text-anchor="middle" x="146.226" y="-42.6674" font-family="Arial" font-size="10.00">prev</text>
<text text-anchor="middle" x="137.774" y="-60.1335" font-family="Arial" font-size="10.00">next</text>
</g>
</g>
</svg>
