<?xml version="1.0" encoding="UTF-8" standalone="no"?>
<!DOCTYPE svg PUBLIC "-//W3C//DTD SVG 1.1//EN"
 "http://www.w3.org/Graphics/SVG/1.1/DTD/svg11.dtd">
<!-- Generated by graphviz version 2.28.0 (20110507.0327)
 -->
<!-- Title: ObjectDiagram Pages: 1 -->
<svg width="525pt" height="448pt"
 viewBox="0.00 0.00 525.00 448.00" xmlns="http://www.w3.org/2000/svg" xmlns:xlink="http://www.w3.org/1999/xlink">
<g id="graph1" class="graph" transform="scale(1 1) rotate(0) translate(4 444)">
<title>ObjectDiagram</title>
<polygon fill="white" stroke="white" points="-4,5 -4,-444 522,-444 522,5 -4,5"/>
<!-- t1 -->
<g id="node1" class="node"><title>t1</title>
<polygon fill="aliceblue" stroke="aliceblue" points="249,-384.5 249,-435.5 309,-435.5 309,-384.5 249,-384.5"/>
<text text-anchor="start" x="270" y="-425.5" font-family="Times New Roman,serif" font-size="10.00">«bound»</text>
<polygon fill="none" stroke="black" points="249,-404 249,-420 309,-420 309,-404 249,-404"/>
<text text-anchor="start" x="252.5" y="-410" font-family="Times New Roman,serif" font-size="10.00"> </text>
<text text-anchor="start" x="255.5" y="-410" font-family="Times New Roman,serif" font-size="10.00"> t1 :TrainPO </text>
<polygon fill="none" stroke="black" points="249,-384 249,-404 309,-404 309,-384 249,-384"/>
<text text-anchor="start" x="276.5" y="-392" font-family="Times New Roman,serif" font-size="10.00"> &#160;</text>
</g>
<!-- s3 -->
<g id="node2" class="node"><title>s3</title>
<polygon fill="aliceblue" stroke="aliceblue" points="244.5,-302.5 244.5,-339.5 313.5,-339.5 313.5,-302.5 244.5,-302.5"/>
<polygon fill="none" stroke="black" points="245,-322 245,-339 314,-339 314,-322 245,-322"/>
<text text-anchor="start" x="248.5" y="-328.5" font-family="Times New Roman,serif" font-size="10.00"> </text>
<text text-anchor="start" x="251.5" y="-328.5" font-family="Times New Roman,serif" font-size="10.00"> s3 :StationPO </text>
<polygon fill="none" stroke="black" points="245,-302 245,-322 314,-322 314,-302 245,-302"/>
<text text-anchor="start" x="277" y="-310" font-family="Times New Roman,serif" font-size="10.00"> &#160;</text>
</g>
<!-- t1&#45;&#45;s3 -->
<g id="edge16" class="edge"><title>t1&#45;&#45;s3</title>
<path fill="none" stroke="black" d="M279,-380.03C279,-368.167 279,-354.675 279,-343.687"/>
<text text-anchor="middle" x="283.226" y="-350.25" font-family="Times New Roman,serif" font-size="10.00">station</text>
</g>
<!-- t2 -->
<g id="node6" class="node"><title>t2</title>
<polygon fill="none" stroke="black" points="166,-312 166,-329 210,-329 210,-312 166,-312"/>
<text text-anchor="start" x="169.5" y="-318.5" font-family="Times New Roman,serif" font-size="10.00"> </text>
<text text-anchor="start" x="172.5" y="-318.5" font-family="Times New Roman,serif" font-size="10.00">t2 :Train</text>
</g>
<!-- t1&#45;&#45;t2 -->
<g id="edge2" class="edge"><title>t1&#45;&#45;t2</title>
<path fill="none" stroke="black" stroke-dasharray="1,5" d="M248.951,-380.272C234.662,-366.611 218.067,-350.745 205.804,-339.021"/>
<text text-anchor="middle" x="215.275" y="-339.73" font-family="Times New Roman,serif" font-size="10.00">match</text>
</g>
<!-- s5 -->
<g id="node3" class="node"><title>s5</title>
<polygon fill="aliceblue" stroke="aliceblue" points="38.5,-220.5 38.5,-257.5 121.5,-257.5 121.5,-220.5 38.5,-220.5"/>
<polygon fill="none" stroke="black" points="39,-240 39,-257 122,-257 122,-240 39,-240"/>
<text text-anchor="start" x="42.5" y="-246.5" font-family="Times New Roman,serif" font-size="10.00"> </text>
<text text-anchor="start" x="45.5" y="-246.5" font-family="Times New Roman,serif" font-size="10.00"> s5 :SignalFlagPO </text>
<polygon fill="none" stroke="black" points="39,-220 39,-240 122,-240 122,-220 39,-220"/>
<text text-anchor="start" x="78" y="-228" font-family="Times New Roman,serif" font-size="10.00"> &#160;</text>
</g>
<!-- s3&#45;&#45;s5 -->
<g id="edge18" class="edge"><title>s3&#45;&#45;s5</title>
<path fill="none" stroke="black" d="M236.468,-301.906C233.268,-300.575 230.085,-299.261 227,-298 194.62,-284.765 158.03,-270.326 129.456,-259.166"/>
<text text-anchor="middle" x="139.436" y="-256.031" font-family="Times New Roman,serif" font-size="10.00">flag</text>
</g>
<!-- p7 -->
<g id="node4" class="node"><title>p7</title>
<polygon fill="aliceblue" stroke="aliceblue" points="282.5,-220.5 282.5,-257.5 351.5,-257.5 351.5,-220.5 282.5,-220.5"/>
<polygon fill="none" stroke="black" points="283,-240 283,-257 352,-257 352,-240 283,-240"/>
<text text-anchor="start" x="286.5" y="-246.5" font-family="Times New Roman,serif" font-size="10.00"> </text>
<text text-anchor="start" x="289.5" y="-246.5" font-family="Times New Roman,serif" font-size="10.00"> p7 :PersonPO </text>
<polygon fill="none" stroke="black" points="283,-220 283,-240 352,-240 352,-220 283,-220"/>
<text text-anchor="start" x="315" y="-228" font-family="Times New Roman,serif" font-size="10.00"> &#160;</text>
</g>
<!-- s3&#45;&#45;p7 -->
<g id="edge24" class="edge"><title>s3&#45;&#45;p7</title>
<path fill="none" stroke="black" d="M283.293,-298.14C287.812,-286.759 294.406,-272.893 300.694,-261.557"/>
<text text-anchor="middle" x="300.065" y="-269.037" font-family="Times New Roman,serif" font-size="10.00">people</text>
</g>
<!-- s3&#45;&#45;p7 -->
<g id="edge20" class="edge"><title>s3&#45;&#45;p7</title>
<path fill="none" stroke="black" d="M295.474,-298.14C301.767,-286.759 308.346,-272.893 312.827,-261.557"/>
<text text-anchor="middle" x="313.345" y="-269.044" font-family="Times New Roman,serif" font-size="10.00">people</text>
</g>
<!-- s4 -->
<g id="node7" class="node"><title>s4</title>
<polygon fill="none" stroke="black" points="196,-230 196,-247 249,-247 249,-230 196,-230"/>
<text text-anchor="start" x="199.5" y="-236.5" font-family="Times New Roman,serif" font-size="10.00"> </text>
<text text-anchor="start" x="202.5" y="-236.5" font-family="Times New Roman,serif" font-size="10.00">s4 :Station</text>
</g>
<!-- s3&#45;&#45;s4 -->
<g id="edge4" class="edge"><title>s3&#45;&#45;s4</title>
<path fill="none" stroke="black" stroke-dasharray="1,5" d="M263.424,-298.14C254.195,-285.186 242.671,-269.013 234.123,-257.015"/>
<text text-anchor="middle" x="242.824" y="-259.444" font-family="Times New Roman,serif" font-size="10.00">match</text>
</g>
<!-- s6 -->
<g id="node14" class="node"><title>s6</title>
<polygon fill="none" stroke="black" points="8,-153 8,-170 74,-170 74,-153 8,-153"/>
<text text-anchor="start" x="11.5" y="-159.5" font-family="Times New Roman,serif" font-size="10.00"> </text>
<text text-anchor="start" x="14.5" y="-159.5" font-family="Times New Roman,serif" font-size="10.00">s6 :SignalFlag</text>
</g>
<!-- s5&#45;&#45;s6 -->
<g id="edge6" class="edge"><title>s5&#45;&#45;s6</title>
<path fill="none" stroke="black" stroke-dasharray="1,5" d="M68.7196,-216.307C62.7805,-204.886 55.5963,-191.07 50.0301,-180.366"/>
<text text-anchor="middle" x="57.9609" y="-183.957" font-family="Times New Roman,serif" font-size="10.00">match</text>
</g>
<!-- p7&#45;&#45;t1 -->
<g id="edge22" class="edge"><title>p7&#45;&#45;t1</title>
<path fill="none" stroke="green" d="M325.254,-261.701C332.145,-283.158 339.447,-316.654 330,-344 325.41,-357.286 316.86,-369.926 308.055,-380.466"/>
<text text-anchor="middle" x="310.51" y="-368.272" font-family="Times New Roman,serif" font-size="10.00" fill="green">train</text>
</g>
<!-- allMatches_p7 -->
<g id="node5" class="node"><title>allMatches_p7</title>
<text text-anchor="middle" x="487" y="-159.5" font-family="Times New Roman,serif" font-size="10.00">allMatches</text>
</g>
<!-- p7&#45;&#45;allMatches_p7 -->
<g id="edge8" class="edge"><title>p7&#45;&#45;allMatches_p7</title>
<path fill="none" stroke="black" stroke-dasharray="1,5" d="M359.46,-219.268C389.652,-205.948 429.492,-188.371 456.555,-176.432"/>
</g>
<!-- p8 -->
<g id="node11" class="node"><title>p8</title>
<polygon fill="none" stroke="black" points="200,-153 200,-170 253,-170 253,-153 200,-153"/>
<text text-anchor="start" x="203.5" y="-159.5" font-family="Times New Roman,serif" font-size="10.00"> </text>
<text text-anchor="start" x="206.5" y="-159.5" font-family="Times New Roman,serif" font-size="10.00">p8 :Person</text>
</g>
<!-- p7&#45;&#45;p8 -->
<g id="edge10" class="edge"><title>p7&#45;&#45;p8</title>
<path fill="none" stroke="black" stroke-dasharray="1,5" d="M290.679,-216.307C276.716,-204.799 259.804,-190.86 246.776,-180.123"/>
<text text-anchor="middle" x="256.457" y="-180.126" font-family="Times New Roman,serif" font-size="10.00">match</text>
</g>
<!-- p9 -->
<g id="node12" class="node"><title>p9</title>
<polygon fill="none" stroke="black" points="287,-153 287,-170 340,-170 340,-153 287,-153"/>
<text text-anchor="start" x="290.5" y="-159.5" font-family="Times New Roman,serif" font-size="10.00"> </text>
<text text-anchor="start" x="293.5" y="-159.5" font-family="Times New Roman,serif" font-size="10.00">p9 :Person</text>
</g>
<!-- p7&#45;&#45;p9 -->
<g id="edge12" class="edge"><title>p7&#45;&#45;p9</title>
<path fill="none" stroke="black" stroke-dasharray="1,5" d="M315.843,-216.307C315.234,-204.886 314.497,-191.07 313.926,-180.366"/>
<text text-anchor="middle" x="318.629" y="-186.691" font-family="Times New Roman,serif" font-size="10.00">candidate</text>
</g>
<!-- p10 -->
<g id="node13" class="node"><title>p10</title>
<polygon fill="none" stroke="black" points="374,-153 374,-170 431,-170 431,-153 374,-153"/>
<text text-anchor="start" x="377.5" y="-159.5" font-family="Times New Roman,serif" font-size="10.00"> </text>
<text text-anchor="start" x="380.5" y="-159.5" font-family="Times New Roman,serif" font-size="10.00">p10 :Person</text>
</g>
<!-- p7&#45;&#45;p10 -->
<g id="edge14" class="edge"><title>p7&#45;&#45;p10</title>
<path fill="none" stroke="black" stroke-dasharray="1,5" d="M341.586,-216.307C354.628,-204.799 370.425,-190.86 382.594,-180.123"/>
<text text-anchor="middle" x="378.594" y="-186.788" font-family="Times New Roman,serif" font-size="10.00">candidate</text>
</g>
<!-- t2&#45;&#45;s4 -->
<g id="edge40" class="edge"><title>t2&#45;&#45;s4</title>
<path fill="none" stroke="black" d="M195.377,-302.641C201.119,-289.131 209.045,-270.482 214.754,-257.05"/>
<text text-anchor="middle" x="215.098" y="-264.544" font-family="Times New Roman,serif" font-size="10.00">station</text>
<text text-anchor="middle" x="195.033" y="-290.147" font-family="Times New Roman,serif" font-size="10.00">trains</text>
</g>
<!-- s11 -->
<g id="node8" class="node"><title>s11</title>
<polygon fill="none" stroke="black" points="109,-153 109,-170 166,-170 166,-153 109,-153"/>
<text text-anchor="start" x="112.5" y="-159.5" font-family="Times New Roman,serif" font-size="10.00"> </text>
<text text-anchor="start" x="115.5" y="-159.5" font-family="Times New Roman,serif" font-size="10.00">s11 :Station</text>
</g>
<!-- s4&#45;&#45;s11 -->
<g id="edge36" class="edge"><title>s4&#45;&#45;s11</title>
<path fill="none" stroke="black" d="M202.712,-220.981C188.899,-208.794 170.368,-192.442 156.506,-180.211"/>
<text text-anchor="middle" x="166.098" y="-180.538" font-family="Times New Roman,serif" font-size="10.00">next</text>
<text text-anchor="middle" x="193.12" y="-215.654" font-family="Times New Roman,serif" font-size="10.00">prev</text>
</g>
<!-- s4&#45;&#45;p8 -->
<g id="edge32" class="edge"><title>s4&#45;&#45;p8</title>
<path fill="none" stroke="black" d="M222.908,-220.981C223.558,-208.794 224.43,-192.442 225.082,-180.211"/>
<text text-anchor="middle" x="228.82" y="-186.986" font-family="Times New Roman,serif" font-size="10.00">people</text>
<text text-anchor="middle" x="219.17" y="-209.206" font-family="Times New Roman,serif" font-size="10.00">station</text>
</g>
<!-- s4&#45;&#45;p9 -->
<g id="edge34" class="edge"><title>s4&#45;&#45;p9</title>
<path fill="none" stroke="black" d="M242.649,-220.981C257.437,-208.794 277.277,-192.442 292.117,-180.211"/>
<text text-anchor="middle" x="287.811" y="-186.736" font-family="Times New Roman,serif" font-size="10.00">people</text>
<text text-anchor="middle" x="246.955" y="-209.456" font-family="Times New Roman,serif" font-size="10.00">station</text>
</g>
<!-- s4&#45;&#45;p10 -->
<g id="edge30" class="edge"><title>s4&#45;&#45;p10</title>
<path fill="none" stroke="black" d="M254.698,-220.829C258.152,-219.147 261.633,-217.508 265,-216 283.446,-207.74 331.567,-189.392 365.547,-176.613"/>
<text text-anchor="middle" x="358.556" y="-181.264" font-family="Times New Roman,serif" font-size="10.00">people</text>
<text text-anchor="middle" x="261.008" y="-210.571" font-family="Times New Roman,serif" font-size="10.00">station</text>
</g>
<!-- s4&#45;&#45;s6 -->
<g id="edge38" class="edge"><title>s4&#45;&#45;s6</title>
<path fill="none" stroke="black" d="M187.529,-223.717C157.579,-211.306 114.131,-193.303 82.323,-180.123"/>
<text text-anchor="middle" x="92.3135" y="-177.188" font-family="Times New Roman,serif" font-size="10.00">flag</text>
<text text-anchor="middle" x="177.539" y="-221.651" font-family="Times New Roman,serif" font-size="10.00">station</text>
</g>
<!-- s12 -->
<g id="node9" class="node"><title>s12</title>
<polygon fill="none" stroke="black" points="109,-81 109,-98 166,-98 166,-81 109,-81"/>
<text text-anchor="start" x="112.5" y="-87.5" font-family="Times New Roman,serif" font-size="10.00"> </text>
<text text-anchor="start" x="115.5" y="-87.5" font-family="Times New Roman,serif" font-size="10.00">s12 :Station</text>
</g>
<!-- s11&#45;&#45;s12 -->
<g id="edge26" class="edge"><title>s11&#45;&#45;s12</title>
<path fill="none" stroke="black" d="M137,-143.697C137,-132.846 137,-118.917 137,-108.104"/>
<text text-anchor="middle" x="141.226" y="-114.667" font-family="Times New Roman,serif" font-size="10.00">next</text>
<text text-anchor="middle" x="132.774" y="-132.134" font-family="Times New Roman,serif" font-size="10.00">prev</text>
</g>
<!-- s13 -->
<g id="node10" class="node"><title>s13</title>
<polygon fill="none" stroke="black" points="109,-9 109,-26 166,-26 166,-9 109,-9"/>
<text text-anchor="start" x="112.5" y="-15.5" font-family="Times New Roman,serif" font-size="10.00"> </text>
<text text-anchor="start" x="115.5" y="-15.5" font-family="Times New Roman,serif" font-size="10.00">s13 :Station</text>
</g>
<!-- s12&#45;&#45;s13 -->
<g id="edge28" class="edge"><title>s12&#45;&#45;s13</title>
<path fill="none" stroke="black" d="M137,-71.6966C137,-60.8463 137,-46.9167 137,-36.1043"/>
<text text-anchor="middle" x="141.226" y="-42.6674" font-family="Times New Roman,serif" font-size="10.00">next</text>
<text text-anchor="middle" x="132.774" y="-60.1335" font-family="Times New Roman,serif" font-size="10.00">prev</text>
</g>
</g>
</svg>
