<?xml version="1.0" encoding="UTF-8" standalone="no"?>
<!DOCTYPE svg PUBLIC "-//W3C//DTD SVG 1.1//EN"
 "http://www.w3.org/Graphics/SVG/1.1/DTD/svg11.dtd">
<!-- Generated by graphviz version 2.28.0 (20110507.0327)
 -->
<!-- Title: ObjectDiagram Pages: 1 -->
<svg width="624pt" height="373pt"
 viewBox="0.00 0.00 624.00 373.00" xmlns="http://www.w3.org/2000/svg" xmlns:xlink="http://www.w3.org/1999/xlink">
<g id="graph1" class="graph" transform="scale(1 1) rotate(0) translate(4 369)">
<title>ObjectDiagram</title>
<polygon fill="white" stroke="white" points="-4,5 -4,-369 621,-369 621,5 -4,5"/>
<g id="graph2" class="cluster"><title>cluster_o7</title>
<polygon fill="none" stroke="grey" points="120,-136 120,-229 236,-229 236,-136 120,-136"/>
<text text-anchor="start" x="146.5" y="-209.8" font-family="Times New Roman,serif" font-size="14.00">optional o7</text>
</g>
<!-- t1 -->
<g id="node1" class="node"><title>t1</title>
<polygon fill="deepskyblue" stroke="deepskyblue" points="295.5,-323.5 295.5,-360.5 362.5,-360.5 362.5,-323.5 295.5,-323.5"/>
<polygon fill="none" stroke="black" points="296,-343 296,-360 363,-360 363,-343 296,-343"/>
<text text-anchor="start" x="299.5" y="-349.5" font-family="Arial" font-size="10.00"> </text>
<text text-anchor="start" x="303.5" y="-349.5" font-family="Arial" font-size="10.00"> t1 :TrainPO </text>
<polygon fill="none" stroke="black" points="296,-323 296,-343 363,-343 363,-323 296,-323"/>
<text text-anchor="start" x="326" y="-331" font-family="Arial" font-size="10.00"> &#160;</text>
</g>
<!-- s3 -->
<g id="node2" class="node"><title>s3</title>
<polygon fill="deepskyblue" stroke="deepskyblue" points="188.5,-241.5 188.5,-278.5 267.5,-278.5 267.5,-241.5 188.5,-241.5"/>
<polygon fill="none" stroke="black" points="189,-261 189,-278 268,-278 268,-261 189,-261"/>
<text text-anchor="start" x="192.5" y="-267.5" font-family="Arial" font-size="10.00"> </text>
<text text-anchor="start" x="196.5" y="-267.5" font-family="Arial" font-size="10.00"> s3 :StationPO </text>
<polygon fill="none" stroke="black" points="189,-241 189,-261 268,-261 268,-241 189,-241"/>
<text text-anchor="start" x="225" y="-249" font-family="Arial" font-size="10.00"> &#160;</text>
</g>
<!-- t1&#45;&#45;s3 -->
<g id="edge9" class="edge"><title>t1&#45;&#45;s3</title>
<path fill="none" stroke="black" d="M301.668,-319.351C287.296,-307.967 269.729,-294.052 255.354,-282.666"/>
<text text-anchor="middle" x="265.082" y="-282.481" font-family="Arial" font-size="10.00">station</text>
</g>
<!-- t2 -->
<g id="node7" class="node"><title>t2</title>
<a xlink:href="../../SDMLib/src/org/sdmlib/examples/patternrewriteops/model/Train.java" xlink:title="&lt;TABLE&gt;">
<polygon fill="none" stroke="black" points="357,-251 357,-268 404,-268 404,-251 357,-251"/>
<text text-anchor="start" x="360.5" y="-257.5" font-family="Arial" font-size="10.00"> </text>
<text text-anchor="start" x="364.5" y="-257.5" font-family="Arial" font-size="10.00">t2 :Train</text>
</a>
</g>
<!-- t1&#45;&#45;t2 -->
<g id="edge3" class="edge"><title>t1&#45;&#45;t2</title>
<path fill="none" stroke="black" stroke-dasharray="1,5" d="M342.936,-319.14C351.194,-306.186 361.505,-290.013 369.153,-278.015"/>
<text text-anchor="middle" x="367.845" y="-285.429" font-family="Arial" font-size="10.00">match</text>
</g>
<!-- s5 -->
<g id="node3" class="node"><title>s5</title>
<polygon fill="deepskyblue" stroke="deepskyblue" points="8,-148.5 8,-185.5 102,-185.5 102,-148.5 8,-148.5"/>
<polygon fill="none" stroke="black" points="8,-168 8,-185 102,-185 102,-168 8,-168"/>
<text text-anchor="start" x="11.5" y="-174.5" font-family="Arial" font-size="10.00"> </text>
<text text-anchor="start" x="15.5" y="-174.5" font-family="Arial" font-size="10.00"> s5 :SignalFlagPO </text>
<polygon fill="none" stroke="black" points="8,-148 8,-168 102,-168 102,-148 8,-148"/>
<text text-anchor="start" x="51.5" y="-156" font-family="Arial" font-size="10.00"> &#160;</text>
</g>
<!-- s3&#45;&#45;s5 -->
<g id="edge11" class="edge"><title>s3&#45;&#45;s5</title>
<path fill="none" stroke="black" d="M180.642,-252.021C159.83,-247.55 135.7,-240.373 116,-229 98.6192,-218.966 82.7208,-202.723 71.5149,-189.521"/>
<text text-anchor="middle" x="80.6417" y="-191.107" font-family="Arial" font-size="10.00">flag</text>
</g>
<!-- p17 -->
<g id="node6" class="node"><title>p17</title>
<polygon fill="deepskyblue" stroke="deepskyblue" points="136,-148.5 136,-185.5 220,-185.5 220,-148.5 136,-148.5"/>
<polygon fill="none" stroke="black" points="136,-168 136,-185 220,-185 220,-168 136,-168"/>
<text text-anchor="start" x="139.5" y="-174.5" font-family="Arial" font-size="10.00"> </text>
<text text-anchor="start" x="143.5" y="-174.5" font-family="Arial" font-size="10.00"> p17 :PersonPO </text>
<polygon fill="none" stroke="black" points="136,-148 136,-168 220,-168 220,-148 136,-148"/>
<text text-anchor="start" x="174.5" y="-156" font-family="Arial" font-size="10.00"> &#160;</text>
</g>
<!-- s3&#45;&#45;p17 -->
<g id="edge13" class="edge"><title>s3&#45;&#45;p17</title>
<path fill="none" stroke="red" d="M216.151,-237.434C208.238,-223.033 197.868,-204.16 189.938,-189.726"/>
<text text-anchor="middle" x="198.006" y="-193.134" font-family="Arial" font-size="10.00" fill="red">people</text>
</g>
<!-- s4 -->
<g id="node8" class="node"><title>s4</title>
<a xlink:href="../../SDMLib/src/org/sdmlib/examples/patternrewriteops/model/Station.java" xlink:title="&lt;TABLE&gt;">
<polygon fill="none" stroke="black" points="255,-158 255,-175 314,-175 314,-158 255,-158"/>
<text text-anchor="start" x="258.5" y="-164.5" font-family="Arial" font-size="10.00"> </text>
<text text-anchor="start" x="262.5" y="-164.5" font-family="Arial" font-size="10.00">s4 :Station</text>
</a>
</g>
<!-- s3&#45;&#45;s4 -->
<g id="edge5" class="edge"><title>s3&#45;&#45;s4</title>
<path fill="none" stroke="black" stroke-dasharray="1,5" d="M241.271,-237.434C251.104,-221.456 264.324,-199.974 273.442,-185.156"/>
<text text-anchor="middle" x="272.291" y="-192.59" font-family="Arial" font-size="10.00">match</text>
</g>
<!-- d6 -->
<g id="node4" class="node"><title>d6</title>
<text text-anchor="middle" x="55" y="-87.5" font-family="Arial" font-size="10.00" fill="red">destroy</text>
</g>
<!-- s5&#45;&#45;d6 -->
<g id="edge7" class="edge"><title>s5&#45;&#45;d6</title>
<path fill="none" stroke="red" stroke-dasharray="1,5" d="M55,-144.307C55,-132.886 55,-119.07 55,-108.366"/>
</g>
<!-- t2&#45;&#45;s4 -->
<g id="edge21" class="edge"><title>t2&#45;&#45;s4</title>
<path fill="none" stroke="black" d="M348.728,-242.222C342.556,-238.272 336.343,-233.799 331,-229 316.578,-216.046 303.415,-198.197 294.712,-185.153"/>
<text text-anchor="middle" x="303.294" y="-187.787" font-family="Arial" font-size="10.00">station</text>
<text text-anchor="middle" x="338.824" y="-238.338" font-family="Arial" font-size="10.00">trains</text>
</g>
<!-- p14 -->
<g id="node15" class="node"><title>p14</title>
<a xlink:href="../../SDMLib/src/org/sdmlib/examples/patternrewriteops/model/Person.java" xlink:title="&lt;TABLE&gt;">
<polygon fill="none" stroke="black" points="348,-158 348,-175 412,-175 412,-158 348,-158"/>
<text text-anchor="start" x="351.5" y="-164.5" font-family="Arial" font-size="10.00"> </text>
<text text-anchor="start" x="355.5" y="-164.5" font-family="Arial" font-size="10.00">p14 :Person</text>
</a>
</g>
<!-- t2&#45;&#45;p14 -->
<g id="edge15" class="edge"><title>t2&#45;&#45;p14</title>
<path fill="none" stroke="black" d="M380,-241.884C380,-225.614 380,-201.284 380,-185.04"/>
<text text-anchor="middle" x="384.226" y="-191.603" font-family="Arial" font-size="10.00">passengers</text>
<text text-anchor="middle" x="375.774" y="-230.321" font-family="Arial" font-size="10.00">train</text>
</g>
<!-- p15 -->
<g id="node16" class="node"><title>p15</title>
<a xlink:href="../../SDMLib/src/org/sdmlib/examples/patternrewriteops/model/Person.java" xlink:title="&lt;TABLE&gt;">
<polygon fill="none" stroke="black" points="446,-158 446,-175 510,-175 510,-158 446,-158"/>
<text text-anchor="start" x="449.5" y="-164.5" font-family="Arial" font-size="10.00"> </text>
<text text-anchor="start" x="453.5" y="-164.5" font-family="Arial" font-size="10.00">p15 :Person</text>
</a>
</g>
<!-- t2&#45;&#45;p15 -->
<g id="edge17" class="edge"><title>t2&#45;&#45;p15</title>
<path fill="none" stroke="black" d="M411.454,-241.973C417.547,-238.07 423.684,-233.679 429,-229 443.786,-215.987 457.542,-198.145 466.691,-185.12"/>
<text text-anchor="middle" x="464.876" y="-192.454" font-family="Arial" font-size="10.00">passengers</text>
<text text-anchor="middle" x="416.76" y="-230.997" font-family="Arial" font-size="10.00">train</text>
</g>
<!-- p16 -->
<g id="node17" class="node"><title>p16</title>
<a xlink:href="../../SDMLib/src/org/sdmlib/examples/patternrewriteops/model/Person.java" xlink:title="&lt;TABLE&gt;">
<polygon fill="none" stroke="black" points="544,-158 544,-175 608,-175 608,-158 544,-158"/>
<text text-anchor="start" x="547.5" y="-164.5" font-family="Arial" font-size="10.00"> </text>
<text text-anchor="start" x="551.5" y="-164.5" font-family="Arial" font-size="10.00">p16 :Person</text>
</a>
</g>
<!-- t2&#45;&#45;p16 -->
<g id="edge19" class="edge"><title>t2&#45;&#45;p16</title>
<path fill="none" stroke="black" d="M411.502,-258.663C442.894,-256.994 491.421,-250.701 527,-229 544.395,-218.39 558.228,-199.271 566.701,-185.257"/>
<text text-anchor="middle" x="565.505" y="-192.685" font-family="Arial" font-size="10.00">passengers</text>
<text text-anchor="middle" x="420.268" y="-251.352" font-family="Arial" font-size="10.00">train</text>
</g>
<!-- s8 -->
<g id="node9" class="node"><title>s8</title>
<a xlink:href="../../SDMLib/src/org/sdmlib/examples/patternrewriteops/model/Station.java" xlink:title="&lt;TABLE&gt;">
<polygon fill="none" stroke="black" points="207,-81 207,-98 266,-98 266,-81 207,-81"/>
<text text-anchor="start" x="210.5" y="-87.5" font-family="Arial" font-size="10.00"> </text>
<text text-anchor="start" x="214.5" y="-87.5" font-family="Arial" font-size="10.00">s8 :Station</text>
</a>
</g>
<!-- s4&#45;&#45;s8 -->
<g id="edge23" class="edge"><title>s4&#45;&#45;s8</title>
<path fill="none" stroke="black" d="M273.108,-148.981C265.308,-136.794 254.843,-120.442 247.015,-108.211"/>
<text text-anchor="middle" x="255.46" y="-111.066" font-family="Arial" font-size="10.00">next</text>
<text text-anchor="middle" x="264.663" y="-141.126" font-family="Arial" font-size="10.00">prev</text>
</g>
<!-- s13 -->
<g id="node14" class="node"><title>s13</title>
<a xlink:href="../../SDMLib/src/org/sdmlib/examples/patternrewriteops/model/Station.java" xlink:title="&lt;TABLE&gt;">
<polygon fill="none" stroke="black" points="300,-81 300,-98 364,-98 364,-81 300,-81"/>
<text text-anchor="start" x="303.5" y="-87.5" font-family="Arial" font-size="10.00"> </text>
<text text-anchor="start" x="307.5" y="-87.5" font-family="Arial" font-size="10.00">s13 :Station</text>
</a>
</g>
<!-- s4&#45;&#45;s13 -->
<g id="edge25" class="edge"><title>s4&#45;&#45;s13</title>
<path fill="none" stroke="black" d="M294.892,-148.981C302.692,-136.794 313.157,-120.442 320.985,-108.211"/>
<text text-anchor="middle" x="319.659" y="-115.623" font-family="Arial" font-size="10.00">prev</text>
<text text-anchor="middle" x="296.218" y="-136.57" font-family="Arial" font-size="10.00">next</text>
</g>
<!-- s9 -->
<g id="node10" class="node"><title>s9</title>
<a xlink:href="../../SDMLib/src/org/sdmlib/examples/patternrewriteops/model/Station.java" xlink:title="&lt;TABLE&gt;">
<polygon fill="none" stroke="black" points="62,-9 62,-26 121,-26 121,-9 62,-9"/>
<text text-anchor="start" x="65.5" y="-15.5" font-family="Arial" font-size="10.00"> </text>
<text text-anchor="start" x="69.5" y="-15.5" font-family="Arial" font-size="10.00">s9 :Station</text>
</a>
</g>
<!-- s8&#45;&#45;s9 -->
<g id="edge27" class="edge"><title>s8&#45;&#45;s9</title>
<path fill="none" stroke="black" d="M200.529,-71.8761C177.976,-60.9882 148.887,-46.9454 126.356,-36.0683"/>
<text text-anchor="middle" x="136.355" y="-33.7026" font-family="Arial" font-size="10.00">next</text>
<text text-anchor="middle" x="190.53" y="-69.2418" font-family="Arial" font-size="10.00">prev</text>
</g>
<!-- p10 -->
<g id="node11" class="node"><title>p10</title>
<a xlink:href="../../SDMLib/src/org/sdmlib/examples/patternrewriteops/model/Person.java" xlink:title="&lt;TABLE&gt;">
<polygon fill="none" stroke="black" points="155,-9 155,-26 219,-26 219,-9 155,-9"/>
<text text-anchor="start" x="158.5" y="-15.5" font-family="Arial" font-size="10.00"> </text>
<text text-anchor="start" x="162.5" y="-15.5" font-family="Arial" font-size="10.00">p10 :Person</text>
</a>
</g>
<!-- s8&#45;&#45;p10 -->
<g id="edge31" class="edge"><title>s8&#45;&#45;p10</title>
<path fill="none" stroke="black" d="M223.888,-71.6966C216.292,-60.8463 206.542,-46.9167 198.973,-36.1043"/>
<text text-anchor="middle" x="207.633" y="-38.6055" font-family="Arial" font-size="10.00">people</text>
<text text-anchor="middle" x="215.228" y="-64.1954" font-family="Arial" font-size="10.00">station</text>
</g>
<!-- p11 -->
<g id="node12" class="node"><title>p11</title>
<a xlink:href="../../SDMLib/src/org/sdmlib/examples/patternrewriteops/model/Person.java" xlink:title="&lt;TABLE&gt;">
<polygon fill="none" stroke="black" points="253,-9 253,-26 317,-26 317,-9 253,-9"/>
<text text-anchor="start" x="256.5" y="-15.5" font-family="Arial" font-size="10.00"> </text>
<text text-anchor="start" x="260.5" y="-15.5" font-family="Arial" font-size="10.00">p11 :Person</text>
</a>
</g>
<!-- s8&#45;&#45;p11 -->
<g id="edge33" class="edge"><title>s8&#45;&#45;p11</title>
<path fill="none" stroke="black" d="M248.112,-71.6966C255.708,-60.8463 265.458,-46.9167 273.027,-36.1043"/>
<text text-anchor="middle" x="271.292" y="-43.4527" font-family="Arial" font-size="10.00">people</text>
<text text-anchor="middle" x="249.847" y="-59.3483" font-family="Arial" font-size="10.00">station</text>
</g>
<!-- s12 -->
<g id="node13" class="node"><title>s12</title>
<a xlink:href="../../SDMLib/src/org/sdmlib/examples/patternrewriteops/model/SignalFlag.java" xlink:title="&lt;TABLE&gt;">
<polygon fill="none" stroke="black" points="352,-9 352,-26 431,-26 431,-9 352,-9"/>
<text text-anchor="start" x="355.5" y="-15.5" font-family="Arial" font-size="10.00"> </text>
<text text-anchor="start" x="359.5" y="-15.5" font-family="Arial" font-size="10.00">s12 :SignalFlag</text>
</a>
</g>
<!-- s8&#45;&#45;s12 -->
<g id="edge29" class="edge"><title>s8&#45;&#45;s12</title>
<path fill="none" stroke="black" d="M273.521,-72.055C297.712,-61.1301 329.059,-46.9735 353.287,-36.0316"/>
<text text-anchor="middle" x="346.767" y="-41.1135" font-family="Arial" font-size="10.00">flag</text>
<text text-anchor="middle" x="280.042" y="-61.9731" font-family="Arial" font-size="10.00">station</text>
</g>
</g>
</svg>
