<?xml version="1.0" encoding="UTF-8" standalone="no"?>
<!DOCTYPE svg PUBLIC "-//W3C//DTD SVG 1.1//EN"
 "http://www.w3.org/Graphics/SVG/1.1/DTD/svg11.dtd">
<!-- Generated by graphviz version 2.28.0 (20110507.0327)
 -->
<!-- Title: ObjectDiagram Pages: 1 -->
<svg width="593pt" height="373pt"
 viewBox="0.00 0.00 593.00 373.00" xmlns="http://www.w3.org/2000/svg" xmlns:xlink="http://www.w3.org/1999/xlink">
<g id="graph1" class="graph" transform="scale(1 1) rotate(0) translate(4 369)">
<title>ObjectDiagram</title>
<polygon fill="white" stroke="white" points="-4,5 -4,-369 590,-369 590,5 -4,5"/>
<g id="graph2" class="cluster"><title>cluster_o7</title>
<polygon fill="none" stroke="grey" points="103,-136 103,-229 205,-229 205,-136 103,-136"/>
<text text-anchor="start" x="122.5" y="-209.8" font-family="Times New Roman,serif" font-size="14.00">optional o7</text>
</g>
<!-- t1 -->
<g id="node1" class="node"><title>t1</title>
<polygon fill="deepskyblue" stroke="deepskyblue" points="272,-323.5 272,-360.5 328,-360.5 328,-323.5 272,-323.5"/>
<polygon fill="none" stroke="black" points="272,-343 272,-360 328,-360 328,-343 272,-343"/>
<text text-anchor="start" x="275.5" y="-349.5" font-family="Arial" font-size="10.00"> </text>
<text text-anchor="start" x="279.5" y="-349.5" font-family="Arial" font-size="10.00"> t1 :TrainPO </text>
<polygon fill="none" stroke="black" points="272,-323 272,-343 328,-343 328,-323 272,-323"/>
<text text-anchor="start" x="296.5" y="-331" font-family="Arial" font-size="10.00"> &#160;</text>
</g>
<!-- s3 -->
<g id="node2" class="node"><title>s3</title>
<polygon fill="deepskyblue" stroke="deepskyblue" points="170.5,-241.5 170.5,-278.5 235.5,-278.5 235.5,-241.5 170.5,-241.5"/>
<polygon fill="none" stroke="black" points="171,-261 171,-278 236,-278 236,-261 171,-261"/>
<text text-anchor="start" x="174.5" y="-267.5" font-family="Arial" font-size="10.00"> </text>
<text text-anchor="start" x="178.5" y="-267.5" font-family="Arial" font-size="10.00"> s3 :StationPO </text>
<polygon fill="none" stroke="black" points="171,-241 171,-261 236,-261 236,-241 171,-241"/>
<text text-anchor="start" x="200" y="-249" font-family="Arial" font-size="10.00"> &#160;</text>
</g>
<!-- t1&#45;&#45;s3 -->
<g id="edge9" class="edge"><title>t1&#45;&#45;s3</title>
<path fill="none" stroke="black" d="M273.75,-319.351C259.948,-307.967 243.076,-294.052 229.271,-282.666"/>
<text text-anchor="middle" x="238.951" y="-282.673" font-family="Arial" font-size="10.00">station</text>
</g>
<!-- t2 -->
<g id="node7" class="node"><title>t2</title>
<a xlink:href="../../SDMLib/src/org/sdmlib/examples/patternrewriteops/model/Train.java" xlink:title="&lt;TABLE&gt;">
<polygon fill="none" stroke="black" points="326,-251 326,-268 373,-268 373,-251 326,-251"/>
<text text-anchor="start" x="329.5" y="-257.5" font-family="Arial" font-size="10.00"> </text>
<text text-anchor="start" x="333.5" y="-257.5" font-family="Arial" font-size="10.00">t2 :Train</text>
</a>
</g>
<!-- t1&#45;&#45;t2 -->
<g id="edge3" class="edge"><title>t1&#45;&#45;t2</title>
<path fill="none" stroke="black" stroke-dasharray="1,5" d="M313.389,-319.14C321.324,-306.186 331.23,-290.013 338.578,-278.015"/>
<text text-anchor="middle" x="337.449" y="-285.451" font-family="Arial" font-size="10.00">match</text>
</g>
<!-- s5 -->
<g id="node3" class="node"><title>s5</title>
<polygon fill="deepskyblue" stroke="deepskyblue" points="7.5,-148.5 7.5,-185.5 84.5,-185.5 84.5,-148.5 7.5,-148.5"/>
<polygon fill="none" stroke="black" points="8,-168 8,-185 85,-185 85,-168 8,-168"/>
<text text-anchor="start" x="11.5" y="-174.5" font-family="Arial" font-size="10.00"> </text>
<text text-anchor="start" x="15.5" y="-174.5" font-family="Arial" font-size="10.00"> s5 :SignalFlagPO </text>
<polygon fill="none" stroke="black" points="8,-148 8,-168 85,-168 85,-148 8,-148"/>
<text text-anchor="start" x="43" y="-156" font-family="Arial" font-size="10.00"> &#160;</text>
</g>
<!-- s3&#45;&#45;s5 -->
<g id="edge11" class="edge"><title>s3&#45;&#45;s5</title>
<path fill="none" stroke="black" d="M162.728,-252.978C142.448,-248.606 118.166,-241.235 99,-229 83.2724,-218.96 69.5814,-202.888 60.0559,-189.761"/>
<text text-anchor="middle" x="68.85" y="-192.021" font-family="Arial" font-size="10.00">flag</text>
</g>
<!-- p17 -->
<g id="node6" class="node"><title>p17</title>
<polygon fill="deepskyblue" stroke="deepskyblue" points="119,-148.5 119,-185.5 189,-185.5 189,-148.5 119,-148.5"/>
<polygon fill="none" stroke="black" points="119,-168 119,-185 189,-185 189,-168 119,-168"/>
<text text-anchor="start" x="122.5" y="-174.5" font-family="Arial" font-size="10.00"> </text>
<text text-anchor="start" x="126.5" y="-174.5" font-family="Arial" font-size="10.00"> p17 :PersonPO </text>
<polygon fill="none" stroke="black" points="119,-148 119,-168 189,-168 189,-148 119,-148"/>
<text text-anchor="start" x="150.5" y="-156" font-family="Arial" font-size="10.00"> &#160;</text>
</g>
<!-- s3&#45;&#45;p17 -->
<g id="edge13" class="edge"><title>s3&#45;&#45;p17</title>
<path fill="none" stroke="red" d="M191.388,-237.434C183.633,-223.033 173.471,-204.16 165.699,-189.726"/>
<text text-anchor="middle" x="173.717" y="-193.202" font-family="Arial" font-size="10.00" fill="red">people</text>
</g>
<!-- s4 -->
<g id="node8" class="node"><title>s4</title>
<a xlink:href="../../SDMLib/src/org/sdmlib/examples/patternrewriteops/model/Station.java" xlink:title="&lt;TABLE&gt;">
<polygon fill="none" stroke="black" points="224,-158 224,-175 283,-175 283,-158 224,-158"/>
<text text-anchor="start" x="227.5" y="-164.5" font-family="Arial" font-size="10.00"> </text>
<text text-anchor="start" x="231.5" y="-164.5" font-family="Arial" font-size="10.00">s4 :Station</text>
</a>
</g>
<!-- s3&#45;&#45;s4 -->
<g id="edge5" class="edge"><title>s3&#45;&#45;s4</title>
<path fill="none" stroke="black" stroke-dasharray="1,5" d="M214.849,-237.434C223.628,-221.456 235.432,-199.974 243.573,-185.156"/>
<text text-anchor="middle" x="242.913" y="-192.635" font-family="Arial" font-size="10.00">match</text>
</g>
<!-- d6 -->
<g id="node4" class="node"><title>d6</title>
<text text-anchor="middle" x="46" y="-87.5" font-family="Arial" font-size="10.00" fill="red">destroy</text>
</g>
<!-- s5&#45;&#45;d6 -->
<g id="edge7" class="edge"><title>s5&#45;&#45;d6</title>
<path fill="none" stroke="red" stroke-dasharray="1,5" d="M46,-144.307C46,-132.886 46,-119.07 46,-108.366"/>
</g>
<!-- t2&#45;&#45;s4 -->
<g id="edge21" class="edge"><title>t2&#45;&#45;s4</title>
<path fill="none" stroke="black" d="M317.728,-242.222C311.556,-238.272 305.343,-233.799 300,-229 285.578,-216.046 272.415,-198.197 263.712,-185.153"/>
<text text-anchor="middle" x="272.294" y="-187.787" font-family="Arial" font-size="10.00">station</text>
<text text-anchor="middle" x="307.824" y="-238.338" font-family="Arial" font-size="10.00">trains</text>
</g>
<!-- p14 -->
<g id="node15" class="node"><title>p14</title>
<a xlink:href="../../SDMLib/src/org/sdmlib/examples/patternrewriteops/model/Person.java" xlink:title="&lt;TABLE&gt;">
<polygon fill="none" stroke="black" points="317,-158 317,-175 381,-175 381,-158 317,-158"/>
<text text-anchor="start" x="320.5" y="-164.5" font-family="Arial" font-size="10.00"> </text>
<text text-anchor="start" x="324.5" y="-164.5" font-family="Arial" font-size="10.00">p14 :Person</text>
</a>
</g>
<!-- t2&#45;&#45;p14 -->
<g id="edge15" class="edge"><title>t2&#45;&#45;p14</title>
<path fill="none" stroke="black" d="M349,-241.884C349,-225.614 349,-201.284 349,-185.04"/>
<text text-anchor="middle" x="353.226" y="-191.603" font-family="Arial" font-size="10.00">passengers</text>
<text text-anchor="middle" x="344.774" y="-230.321" font-family="Arial" font-size="10.00">train</text>
</g>
<!-- p15 -->
<g id="node16" class="node"><title>p15</title>
<a xlink:href="../../SDMLib/src/org/sdmlib/examples/patternrewriteops/model/Person.java" xlink:title="&lt;TABLE&gt;">
<polygon fill="none" stroke="black" points="415,-158 415,-175 479,-175 479,-158 415,-158"/>
<text text-anchor="start" x="418.5" y="-164.5" font-family="Arial" font-size="10.00"> </text>
<text text-anchor="start" x="422.5" y="-164.5" font-family="Arial" font-size="10.00">p15 :Person</text>
</a>
</g>
<!-- t2&#45;&#45;p15 -->
<g id="edge17" class="edge"><title>t2&#45;&#45;p15</title>
<path fill="none" stroke="black" d="M380.454,-241.973C386.547,-238.07 392.684,-233.679 398,-229 412.786,-215.987 426.542,-198.145 435.691,-185.12"/>
<text text-anchor="middle" x="433.876" y="-192.454" font-family="Arial" font-size="10.00">passengers</text>
<text text-anchor="middle" x="385.76" y="-230.997" font-family="Arial" font-size="10.00">train</text>
</g>
<!-- p16 -->
<g id="node17" class="node"><title>p16</title>
<a xlink:href="../../SDMLib/src/org/sdmlib/examples/patternrewriteops/model/Person.java" xlink:title="&lt;TABLE&gt;">
<polygon fill="none" stroke="black" points="513,-158 513,-175 577,-175 577,-158 513,-158"/>
<text text-anchor="start" x="516.5" y="-164.5" font-family="Arial" font-size="10.00"> </text>
<text text-anchor="start" x="520.5" y="-164.5" font-family="Arial" font-size="10.00">p16 :Person</text>
</a>
</g>
<!-- t2&#45;&#45;p16 -->
<g id="edge19" class="edge"><title>t2&#45;&#45;p16</title>
<path fill="none" stroke="black" d="M380.502,-258.663C411.894,-256.994 460.421,-250.701 496,-229 513.395,-218.39 527.228,-199.271 535.701,-185.257"/>
<text text-anchor="middle" x="534.505" y="-192.685" font-family="Arial" font-size="10.00">passengers</text>
<text text-anchor="middle" x="389.268" y="-251.352" font-family="Arial" font-size="10.00">train</text>
</g>
<!-- s8 -->
<g id="node9" class="node"><title>s8</title>
<a xlink:href="../../SDMLib/src/org/sdmlib/examples/patternrewriteops/model/Station.java" xlink:title="&lt;TABLE&gt;">
<polygon fill="none" stroke="black" points="176,-81 176,-98 235,-98 235,-81 176,-81"/>
<text text-anchor="start" x="179.5" y="-87.5" font-family="Arial" font-size="10.00"> </text>
<text text-anchor="start" x="183.5" y="-87.5" font-family="Arial" font-size="10.00">s8 :Station</text>
</a>
</g>
<!-- s4&#45;&#45;s8 -->
<g id="edge23" class="edge"><title>s4&#45;&#45;s8</title>
<path fill="none" stroke="black" d="M242.108,-148.981C234.308,-136.794 223.843,-120.442 216.015,-108.211"/>
<text text-anchor="middle" x="224.46" y="-111.066" font-family="Arial" font-size="10.00">next</text>
<text text-anchor="middle" x="233.663" y="-141.126" font-family="Arial" font-size="10.00">prev</text>
</g>
<!-- s13 -->
<g id="node14" class="node"><title>s13</title>
<a xlink:href="../../SDMLib/src/org/sdmlib/examples/patternrewriteops/model/Station.java" xlink:title="&lt;TABLE&gt;">
<polygon fill="none" stroke="black" points="269,-81 269,-98 333,-98 333,-81 269,-81"/>
<text text-anchor="start" x="272.5" y="-87.5" font-family="Arial" font-size="10.00"> </text>
<text text-anchor="start" x="276.5" y="-87.5" font-family="Arial" font-size="10.00">s13 :Station</text>
</a>
</g>
<!-- s4&#45;&#45;s13 -->
<g id="edge25" class="edge"><title>s4&#45;&#45;s13</title>
<path fill="none" stroke="black" d="M263.892,-148.981C271.692,-136.794 282.157,-120.442 289.985,-108.211"/>
<text text-anchor="middle" x="288.659" y="-115.623" font-family="Arial" font-size="10.00">prev</text>
<text text-anchor="middle" x="265.218" y="-136.57" font-family="Arial" font-size="10.00">next</text>
</g>
<!-- s9 -->
<g id="node10" class="node"><title>s9</title>
<a xlink:href="../../SDMLib/src/org/sdmlib/examples/patternrewriteops/model/Station.java" xlink:title="&lt;TABLE&gt;">
<polygon fill="none" stroke="black" points="31,-9 31,-26 90,-26 90,-9 31,-9"/>
<text text-anchor="start" x="34.5" y="-15.5" font-family="Arial" font-size="10.00"> </text>
<text text-anchor="start" x="38.5" y="-15.5" font-family="Arial" font-size="10.00">s9 :Station</text>
</a>
</g>
<!-- s8&#45;&#45;s9 -->
<g id="edge29" class="edge"><title>s8&#45;&#45;s9</title>
<path fill="none" stroke="black" d="M169.529,-71.8761C146.976,-60.9882 117.887,-46.9454 95.3558,-36.0683"/>
<text text-anchor="middle" x="105.355" y="-33.7026" font-family="Arial" font-size="10.00">next</text>
<text text-anchor="middle" x="159.53" y="-69.2418" font-family="Arial" font-size="10.00">prev</text>
</g>
<!-- p10 -->
<g id="node11" class="node"><title>p10</title>
<a xlink:href="../../SDMLib/src/org/sdmlib/examples/patternrewriteops/model/Person.java" xlink:title="&lt;TABLE&gt;">
<polygon fill="none" stroke="black" points="124,-9 124,-26 188,-26 188,-9 124,-9"/>
<text text-anchor="start" x="127.5" y="-15.5" font-family="Arial" font-size="10.00"> </text>
<text text-anchor="start" x="131.5" y="-15.5" font-family="Arial" font-size="10.00">p10 :Person</text>
</a>
</g>
<!-- s8&#45;&#45;p10 -->
<g id="edge31" class="edge"><title>s8&#45;&#45;p10</title>
<path fill="none" stroke="black" d="M192.888,-71.6966C185.292,-60.8463 175.542,-46.9167 167.973,-36.1043"/>
<text text-anchor="middle" x="176.633" y="-38.6055" font-family="Arial" font-size="10.00">people</text>
<text text-anchor="middle" x="184.228" y="-64.1954" font-family="Arial" font-size="10.00">station</text>
</g>
<!-- p11 -->
<g id="node12" class="node"><title>p11</title>
<a xlink:href="../../SDMLib/src/org/sdmlib/examples/patternrewriteops/model/Person.java" xlink:title="&lt;TABLE&gt;">
<polygon fill="none" stroke="black" points="222,-9 222,-26 286,-26 286,-9 222,-9"/>
<text text-anchor="start" x="225.5" y="-15.5" font-family="Arial" font-size="10.00"> </text>
<text text-anchor="start" x="229.5" y="-15.5" font-family="Arial" font-size="10.00">p11 :Person</text>
</a>
</g>
<!-- s8&#45;&#45;p11 -->
<g id="edge33" class="edge"><title>s8&#45;&#45;p11</title>
<path fill="none" stroke="black" d="M217.112,-71.6966C224.708,-60.8463 234.458,-46.9167 242.027,-36.1043"/>
<text text-anchor="middle" x="240.292" y="-43.4527" font-family="Arial" font-size="10.00">people</text>
<text text-anchor="middle" x="218.847" y="-59.3483" font-family="Arial" font-size="10.00">station</text>
</g>
<!-- s12 -->
<g id="node13" class="node"><title>s12</title>
<a xlink:href="../../SDMLib/src/org/sdmlib/examples/patternrewriteops/model/SignalFlag.java" xlink:title="&lt;TABLE&gt;">
<polygon fill="none" stroke="black" points="321,-9 321,-26 400,-26 400,-9 321,-9"/>
<text text-anchor="start" x="324.5" y="-15.5" font-family="Arial" font-size="10.00"> </text>
<text text-anchor="start" x="328.5" y="-15.5" font-family="Arial" font-size="10.00">s12 :SignalFlag</text>
</a>
</g>
<!-- s8&#45;&#45;s12 -->
<g id="edge27" class="edge"><title>s8&#45;&#45;s12</title>
<path fill="none" stroke="black" d="M242.521,-72.055C266.712,-61.1301 298.059,-46.9735 322.287,-36.0316"/>
<text text-anchor="middle" x="315.767" y="-41.1135" font-family="Arial" font-size="10.00">flag</text>
<text text-anchor="middle" x="249.042" y="-61.9731" font-family="Arial" font-size="10.00">station</text>
</g>
</g>
</svg>
