<?xml version="1.0" encoding="UTF-8" standalone="no"?>
<!DOCTYPE svg PUBLIC "-//W3C//DTD SVG 1.1//EN"
 "http://www.w3.org/Graphics/SVG/1.1/DTD/svg11.dtd">
<!-- Generated by graphviz version 2.28.0 (20110507.0327)
 -->
<!-- Title: ObjectDiagram Pages: 1 -->
<svg width="602pt" height="459pt"
 viewBox="0.00 0.00 602.00 459.00" xmlns="http://www.w3.org/2000/svg" xmlns:xlink="http://www.w3.org/1999/xlink">
<g id="graph1" class="graph" transform="scale(1 1) rotate(0) translate(4 455)">
<title>ObjectDiagram</title>
<polygon fill="white" stroke="white" points="-4,5 -4,-455 599,-455 599,5 -4,5"/>
<g id="graph2" class="cluster"><title>cluster_o8</title>
<polygon fill="none" stroke="grey" points="434,-213 434,-383 532,-383 532,-213 434,-213"/>
<text text-anchor="start" x="451.5" y="-363.8" font-family="Times New Roman,serif" font-size="14.00">optional o8</text>
</g>
<!-- t1 -->
<g id="node1" class="node"><title>t1</title>
<polygon fill="deepskyblue" stroke="deepskyblue" points="262.5,-395.5 262.5,-446.5 313.5,-446.5 313.5,-395.5 262.5,-395.5"/>
<text text-anchor="start" x="285" y="-436.5" font-family="Arial" font-size="10.00">«bound»</text>
<polygon fill="none" stroke="black" points="263,-415 263,-431 314,-431 314,-415 263,-415"/>
<text text-anchor="start" x="266.5" y="-421" font-family="Arial" font-size="10.00"> </text>
<text text-anchor="start" x="270.5" y="-421" font-family="Arial" font-size="10.00"> t1 :TrainPO </text>
<polygon fill="none" stroke="black" points="263,-395 263,-415 314,-415 314,-395 263,-395"/>
<text text-anchor="start" x="285" y="-403" font-family="Arial" font-size="10.00"> &#160;</text>
</g>
<!-- s3 -->
<g id="node2" class="node"><title>s3</title>
<polygon fill="deepskyblue" stroke="deepskyblue" points="162.5,-302.5 162.5,-339.5 227.5,-339.5 227.5,-302.5 162.5,-302.5"/>
<polygon fill="none" stroke="black" points="163,-322 163,-339 228,-339 228,-322 163,-322"/>
<text text-anchor="start" x="166.5" y="-328.5" font-family="Arial" font-size="10.00"> </text>
<text text-anchor="start" x="170.5" y="-328.5" font-family="Arial" font-size="10.00"> s3 :StationPO </text>
<polygon fill="none" stroke="black" points="163,-302 163,-322 228,-322 228,-302 163,-302"/>
<text text-anchor="start" x="192" y="-310" font-family="Arial" font-size="10.00"> &#160;</text>
</g>
<!-- t1&#45;&#45;s3 -->
<g id="edge21" class="edge"><title>t1&#45;&#45;s3</title>
<path fill="none" stroke="black" d="M255.4,-391.301C252.512,-388.544 249.673,-385.75 247,-383 234.875,-370.527 222.193,-355.692 212.389,-343.774"/>
<text text-anchor="middle" x="221.421" y="-345.566" font-family="Arial" font-size="10.00">station</text>
</g>
<!-- t2 -->
<g id="node8" class="node"><title>t2</title>
<a xlink:href="../../SDMLib/src/org/sdmlib/examples/patternrewriteops/Train.java" xlink:title="&lt;TABLE&gt;">
<polygon fill="none" stroke="black" points="265,-312 265,-329 312,-329 312,-312 265,-312"/>
<text text-anchor="start" x="268.5" y="-318.5" font-family="Arial" font-size="10.00"> </text>
<text text-anchor="start" x="272.5" y="-318.5" font-family="Arial" font-size="10.00">t2 :Train</text>
</a>
</g>
<!-- t1&#45;&#45;t2 -->
<g id="edge3" class="edge"><title>t1&#45;&#45;t2</title>
<path fill="none" stroke="black" stroke-dasharray="1,5" d="M288,-391.391C288,-374.442 288,-353.532 288,-339.121"/>
<text text-anchor="middle" x="292.226" y="-345.684" font-family="Arial" font-size="10.00">match</text>
</g>
<!-- s5 -->
<g id="node3" class="node"><title>s5</title>
<polygon fill="deepskyblue" stroke="deepskyblue" points="51.5,-220.5 51.5,-257.5 128.5,-257.5 128.5,-220.5 51.5,-220.5"/>
<polygon fill="none" stroke="black" points="52,-240 52,-257 129,-257 129,-240 52,-240"/>
<text text-anchor="start" x="55.5" y="-246.5" font-family="Arial" font-size="10.00"> </text>
<text text-anchor="start" x="59.5" y="-246.5" font-family="Arial" font-size="10.00"> s5 :SignalFlagPO </text>
<polygon fill="none" stroke="black" points="52,-220 52,-240 129,-240 129,-220 52,-220"/>
<text text-anchor="start" x="87" y="-228" font-family="Arial" font-size="10.00"> &#160;</text>
</g>
<!-- s3&#45;&#45;s5 -->
<g id="edge23" class="edge"><title>s3&#45;&#45;s5</title>
<path fill="none" stroke="black" d="M166.585,-298.351C151.645,-286.967 133.381,-273.052 118.437,-261.666"/>
<text text-anchor="middle" x="128.208" y="-261.297" font-family="Arial" font-size="10.00">flag</text>
</g>
<!-- p9 -->
<g id="node6" class="node"><title>p9</title>
<polygon fill="deepskyblue" stroke="deepskyblue" points="450,-302.5 450,-339.5 516,-339.5 516,-302.5 450,-302.5"/>
<polygon fill="none" stroke="black" points="450,-322 450,-339 516,-339 516,-322 450,-322"/>
<text text-anchor="start" x="453.5" y="-328.5" font-family="Arial" font-size="10.00"> </text>
<text text-anchor="start" x="457.5" y="-328.5" font-family="Arial" font-size="10.00"> p9 :PersonPO </text>
<polygon fill="none" stroke="black" points="450,-302 450,-322 516,-322 516,-302 450,-302"/>
<text text-anchor="start" x="479.5" y="-310" font-family="Arial" font-size="10.00"> &#160;</text>
</g>
<!-- s3&#45;&#45;p9 -->
<g id="edge25" class="edge"><title>s3&#45;&#45;p9</title>
<path fill="none" stroke="red" d="M206.349,-343.769C216.553,-360.896 233.411,-382.206 256,-387 274.803,-390.99 410.197,-390.99 429,-387 450.579,-382.421 465.332,-360.814 473.894,-343.552"/>
<text text-anchor="middle" x="473.454" y="-351.042" font-family="Arial" font-size="10.00" fill="red">people</text>
</g>
<!-- s4 -->
<g id="node9" class="node"><title>s4</title>
<a xlink:href="../../SDMLib/src/org/sdmlib/examples/patternrewriteops/Station.java" xlink:title="&lt;TABLE&gt;">
<polygon fill="none" stroke="black" points="163,-230 163,-247 222,-247 222,-230 163,-230"/>
<text text-anchor="start" x="166.5" y="-236.5" font-family="Arial" font-size="10.00"> </text>
<text text-anchor="start" x="170.5" y="-236.5" font-family="Arial" font-size="10.00">s4 :Station</text>
</a>
</g>
<!-- s3&#45;&#45;s4 -->
<g id="edge5" class="edge"><title>s3&#45;&#45;s4</title>
<path fill="none" stroke="black" stroke-dasharray="1,5" d="M194.18,-298.14C193.694,-285.186 193.088,-269.013 192.638,-257.015"/>
<text text-anchor="middle" x="197.201" y="-263.413" font-family="Arial" font-size="10.00">match</text>
</g>
<!-- d7 -->
<g id="node4" class="node"><title>d7</title>
<text text-anchor="middle" x="99" y="-159.5" font-family="Arial" font-size="10.00" fill="red">destroy</text>
</g>
<!-- s5&#45;&#45;d7 -->
<g id="edge9" class="edge"><title>s5&#45;&#45;d7</title>
<path fill="none" stroke="red" stroke-dasharray="1,5" d="M92.6032,-216.307C93.9737,-204.886 95.6316,-191.07 96.9161,-180.366"/>
</g>
<!-- s6 -->
<g id="node21" class="node"><title>s6</title>
<text text-anchor="middle" x="27" y="-159.5" font-family="Arial" font-size="10.00">s6</text>
</g>
<!-- s5&#45;&#45;s6 -->
<g id="edge7" class="edge"><title>s5&#45;&#45;s6</title>
<path fill="none" stroke="black" stroke-dasharray="1,5" d="M71.7778,-216.307C62.1839,-204.886 50.5787,-191.07 41.587,-180.366"/>
<text text-anchor="middle" x="50.6523" y="-182.087" font-family="Arial" font-size="10.00">match</text>
</g>
<!-- p9&#45;&#45;t1 -->
<g id="edge27" class="edge"><title>p9&#45;&#45;t1</title>
<path fill="none" stroke="green" d="M472.075,-343.687C464.31,-356.956 452.668,-373.21 438,-383 402.639,-406.601 353.565,-415.16 321.313,-418.257"/>
<text text-anchor="middle" x="329.867" y="-410.577" font-family="Arial" font-size="10.00" fill="green">train</text>
</g>
<!-- allMatches_p9 -->
<g id="node7" class="node"><title>allMatches_p9</title>
<text text-anchor="middle" x="483" y="-236.5" font-family="Arial" font-size="10.00">allMatches</text>
</g>
<!-- p9&#45;&#45;allMatches_p9 -->
<g id="edge11" class="edge"><title>p9&#45;&#45;allMatches_p9</title>
<path fill="none" stroke="black" stroke-dasharray="1,5" d="M483,-298.14C483,-285.186 483,-269.013 483,-257.015"/>
</g>
<!-- p11 -->
<g id="node16" class="node"><title>p11</title>
<a xlink:href="../../SDMLib/src/org/sdmlib/examples/patternrewriteops/Person.java" xlink:title="&lt;TABLE&gt;">
<polygon fill="none" stroke="black" points="256,-230 256,-247 320,-247 320,-230 256,-230"/>
<text text-anchor="start" x="259.5" y="-236.5" font-family="Arial" font-size="10.00"> </text>
<text text-anchor="start" x="263.5" y="-236.5" font-family="Arial" font-size="10.00">p11 :Person</text>
</a>
</g>
<!-- p9&#45;&#45;p11 -->
<g id="edge15" class="edge"><title>p9&#45;&#45;p11</title>
<path fill="none" stroke="black" stroke-dasharray="1,5" d="M441.887,-299.671C440.58,-299.098 439.282,-298.54 438,-298 394.08,-279.506 381.217,-279.774 337,-262 333.107,-260.435 329.068,-258.74 325.055,-257.01"/>
<text text-anchor="middle" x="335.051" y="-254.208" font-family="Arial" font-size="10.00">candidate</text>
</g>
<!-- p12 -->
<g id="node17" class="node"><title>p12</title>
<a xlink:href="../../SDMLib/src/org/sdmlib/examples/patternrewriteops/Person.java" xlink:title="&lt;TABLE&gt;">
<polygon fill="none" stroke="black" points="354,-230 354,-247 418,-247 418,-230 354,-230"/>
<text text-anchor="start" x="357.5" y="-236.5" font-family="Arial" font-size="10.00"> </text>
<text text-anchor="start" x="361.5" y="-236.5" font-family="Arial" font-size="10.00">p12 :Person</text>
</a>
</g>
<!-- p9&#45;&#45;p12 -->
<g id="edge17" class="edge"><title>p9&#45;&#45;p12</title>
<path fill="none" stroke="black" stroke-dasharray="1,5" d="M456.75,-298.351C441.04,-285.394 421.354,-269.158 406.738,-257.104"/>
<text text-anchor="middle" x="416.419" y="-257.11" font-family="Arial" font-size="10.00">candidate</text>
</g>
<!-- p10 -->
<g id="node25" class="node"><title>p10</title>
<text text-anchor="middle" x="567" y="-236.5" font-family="Arial" font-size="10.00">p10</text>
</g>
<!-- p9&#45;&#45;p10 -->
<g id="edge13" class="edge"><title>p9&#45;&#45;p10</title>
<path fill="none" stroke="black" stroke-dasharray="1,5" d="M499.863,-298.14C512.454,-285.186 529.586,-269.013 543.493,-257.015"/>
<text text-anchor="middle" x="539.442" y="-263.657" font-family="Arial" font-size="10.00">match</text>
</g>
<!-- p9&#45;&#45;p10 -->
<g id="edge19" class="edge"><title>p9&#45;&#45;p10</title>
<path fill="none" stroke="black" stroke-dasharray="1,5" d="M512.044,-298.14C526.655,-285.186 543.487,-269.013 554.776,-257.015"/>
<text text-anchor="middle" x="551.579" y="-263.99" font-family="Arial" font-size="10.00">candidate</text>
</g>
<!-- t2&#45;&#45;s4 -->
<g id="edge29" class="edge"><title>t2&#45;&#45;s4</title>
<path fill="none" stroke="black" d="M267.169,-302.641C250.957,-289.131 228.578,-270.482 212.46,-257.05"/>
<text text-anchor="middle" x="222.128" y="-257.105" font-family="Arial" font-size="10.00">station</text>
<text text-anchor="middle" x="257.501" y="-297.586" font-family="Arial" font-size="10.00">trains</text>
</g>
<!-- t2&#45;&#45;p11 -->
<g id="edge31" class="edge"><title>t2&#45;&#45;p11</title>
<path fill="none" stroke="black" d="M288,-302.641C288,-289.131 288,-270.482 288,-257.05"/>
<text text-anchor="middle" x="292.226" y="-263.613" font-family="Arial" font-size="10.00">passengers</text>
<text text-anchor="middle" x="283.774" y="-291.078" font-family="Arial" font-size="10.00">train</text>
</g>
<!-- t2&#45;&#45;p12 -->
<g id="edge33" class="edge"><title>t2&#45;&#45;p12</title>
<path fill="none" stroke="black" d="M309.265,-302.641C325.815,-289.131 348.66,-270.482 365.114,-257.05"/>
<text text-anchor="middle" x="360.765" y="-263.555" font-family="Arial" font-size="10.00">passengers</text>
<text text-anchor="middle" x="313.613" y="-291.136" font-family="Arial" font-size="10.00">train</text>
</g>
<!-- s13 -->
<g id="node10" class="node"><title>s13</title>
<a xlink:href="../../SDMLib/src/org/sdmlib/examples/patternrewriteops/Station.java" xlink:title="&lt;TABLE&gt;">
<polygon fill="none" stroke="black" points="160,-153 160,-170 224,-170 224,-153 160,-153"/>
<text text-anchor="start" x="163.5" y="-159.5" font-family="Arial" font-size="10.00"> </text>
<text text-anchor="start" x="167.5" y="-159.5" font-family="Arial" font-size="10.00">s13 :Station</text>
</a>
</g>
<!-- s4&#45;&#45;s13 -->
<g id="edge35" class="edge"><title>s4&#45;&#45;s13</title>
<path fill="none" stroke="black" d="M192,-220.981C192,-208.794 192,-192.442 192,-180.211"/>
<text text-anchor="middle" x="196.226" y="-186.774" font-family="Arial" font-size="10.00">next</text>
<text text-anchor="middle" x="187.774" y="-209.418" font-family="Arial" font-size="10.00">prev</text>
</g>
<!-- s14 -->
<g id="node11" class="node"><title>s14</title>
<a xlink:href="../../SDMLib/src/org/sdmlib/examples/patternrewriteops/Station.java" xlink:title="&lt;TABLE&gt;">
<polygon fill="none" stroke="black" points="160,-81 160,-98 224,-98 224,-81 160,-81"/>
<text text-anchor="start" x="163.5" y="-87.5" font-family="Arial" font-size="10.00"> </text>
<text text-anchor="start" x="167.5" y="-87.5" font-family="Arial" font-size="10.00">s14 :Station</text>
</a>
</g>
<!-- s13&#45;&#45;s14 -->
<g id="edge37" class="edge"><title>s13&#45;&#45;s14</title>
<path fill="none" stroke="black" d="M192,-143.697C192,-132.846 192,-118.917 192,-108.104"/>
<text text-anchor="middle" x="196.226" y="-114.667" font-family="Arial" font-size="10.00">next</text>
<text text-anchor="middle" x="187.774" y="-132.134" font-family="Arial" font-size="10.00">prev</text>
</g>
<!-- s15 -->
<g id="node12" class="node"><title>s15</title>
<a xlink:href="../../SDMLib/src/org/sdmlib/examples/patternrewriteops/Station.java" xlink:title="&lt;TABLE&gt;">
<polygon fill="none" stroke="black" points="13,-9 13,-26 77,-26 77,-9 13,-9"/>
<text text-anchor="start" x="16.5" y="-15.5" font-family="Arial" font-size="10.00"> </text>
<text text-anchor="start" x="20.5" y="-15.5" font-family="Arial" font-size="10.00">s15 :Station</text>
</a>
</g>
<!-- s14&#45;&#45;s15 -->
<g id="edge39" class="edge"><title>s14&#45;&#45;s15</title>
<path fill="none" stroke="black" d="M156.04,-71.8761C133.175,-60.9882 103.685,-46.9454 80.8435,-36.0683"/>
<text text-anchor="middle" x="90.8431" y="-33.6492" font-family="Arial" font-size="10.00">next</text>
<text text-anchor="middle" x="146.04" y="-69.2952" font-family="Arial" font-size="10.00">prev</text>
</g>
<!-- p16 -->
<g id="node13" class="node"><title>p16</title>
<a xlink:href="../../SDMLib/src/org/sdmlib/examples/patternrewriteops/Person.java" xlink:title="&lt;TABLE&gt;">
<polygon fill="none" stroke="black" points="111,-9 111,-26 175,-26 175,-9 111,-9"/>
<text text-anchor="start" x="114.5" y="-15.5" font-family="Arial" font-size="10.00"> </text>
<text text-anchor="start" x="118.5" y="-15.5" font-family="Arial" font-size="10.00">p16 :Person</text>
</a>
</g>
<!-- s14&#45;&#45;p16 -->
<g id="edge41" class="edge"><title>s14&#45;&#45;p16</title>
<path fill="none" stroke="black" d="M179.888,-71.6966C172.292,-60.8463 162.542,-46.9167 154.973,-36.1043"/>
<text text-anchor="middle" x="163.633" y="-38.6055" font-family="Arial" font-size="10.00">people</text>
<text text-anchor="middle" x="171.228" y="-64.1954" font-family="Arial" font-size="10.00">station</text>
</g>
<!-- p17 -->
<g id="node14" class="node"><title>p17</title>
<a xlink:href="../../SDMLib/src/org/sdmlib/examples/patternrewriteops/Person.java" xlink:title="&lt;TABLE&gt;">
<polygon fill="none" stroke="black" points="209,-9 209,-26 273,-26 273,-9 209,-9"/>
<text text-anchor="start" x="212.5" y="-15.5" font-family="Arial" font-size="10.00"> </text>
<text text-anchor="start" x="216.5" y="-15.5" font-family="Arial" font-size="10.00">p17 :Person</text>
</a>
</g>
<!-- s14&#45;&#45;p17 -->
<g id="edge43" class="edge"><title>s14&#45;&#45;p17</title>
<path fill="none" stroke="black" d="M204.112,-71.6966C211.708,-60.8463 221.458,-46.9167 229.027,-36.1043"/>
<text text-anchor="middle" x="227.292" y="-43.4527" font-family="Arial" font-size="10.00">people</text>
<text text-anchor="middle" x="205.847" y="-59.3483" font-family="Arial" font-size="10.00">station</text>
</g>
<!-- s18 -->
<g id="node15" class="node"><title>s18</title>
<a xlink:href="../../SDMLib/src/org/sdmlib/examples/patternrewriteops/SignalFlag.java" xlink:title="&lt;TABLE&gt;">
<polygon fill="none" stroke="black" points="308,-9 308,-26 387,-26 387,-9 308,-9"/>
<text text-anchor="start" x="311.5" y="-15.5" font-family="Arial" font-size="10.00"> </text>
<text text-anchor="start" x="315.5" y="-15.5" font-family="Arial" font-size="10.00">s18 :SignalFlag</text>
</a>
</g>
<!-- s14&#45;&#45;s18 -->
<g id="edge45" class="edge"><title>s14&#45;&#45;s18</title>
<path fill="none" stroke="black" d="M229.917,-71.8761C254.026,-60.9882 285.121,-46.9454 309.206,-36.0683"/>
<text text-anchor="middle" x="302.685" y="-41.1502" font-family="Arial" font-size="10.00">flag</text>
<text text-anchor="middle" x="236.438" y="-61.7942" font-family="Arial" font-size="10.00">station</text>
</g>
</g>
</svg>
