<?xml version="1.0" encoding="UTF-8" standalone="no"?>
<!DOCTYPE svg PUBLIC "-//W3C//DTD SVG 1.1//EN"
 "http://www.w3.org/Graphics/SVG/1.1/DTD/svg11.dtd">
<!-- Generated by graphviz version 2.28.0 (20110507.0327)
 -->
<!-- Title: ObjectDiagram Pages: 1 -->
<svg width="648pt" height="577pt"
 viewBox="0.00 0.00 648.00 577.00" xmlns="http://www.w3.org/2000/svg" xmlns:xlink="http://www.w3.org/1999/xlink">
<g id="graph1" class="graph" transform="scale(1 1) rotate(0) translate(4 573)">
<title>ObjectDiagram</title>
<polygon fill="white" stroke="white" points="-4,5 -4,-573 645,-573 645,5 -4,5"/>
<g id="graph2" class="cluster"><title>cluster_o7</title>
<polygon fill="none" stroke="grey" points="53,-384 53,-561 155,-561 155,-384 53,-384"/>
<text text-anchor="start" x="72.5" y="-541.8" font-family="Times New Roman,serif" font-size="14.00">optional o7</text>
</g>
<!-- t1 -->
<g id="node1" class="node"><title>t1</title>
<polygon fill="deepskyblue" stroke="deepskyblue" points="187,-384.5 187,-435.5 247,-435.5 247,-384.5 187,-384.5"/>
<text text-anchor="start" x="208" y="-425.5" font-family="Times New Roman,serif" font-size="10.00">«bound»</text>
<polygon fill="none" stroke="black" points="187,-404 187,-420 247,-420 247,-404 187,-404"/>
<text text-anchor="start" x="190.5" y="-410" font-family="Times New Roman,serif" font-size="10.00"> </text>
<text text-anchor="start" x="193.5" y="-410" font-family="Times New Roman,serif" font-size="10.00"> t1 :TrainPO </text>
<polygon fill="none" stroke="black" points="187,-384 187,-404 247,-404 247,-384 187,-384"/>
<text text-anchor="start" x="214.5" y="-392" font-family="Times New Roman,serif" font-size="10.00"> &#160;</text>
</g>
<!-- s3 -->
<g id="node2" class="node"><title>s3</title>
<polygon fill="deepskyblue" stroke="deepskyblue" points="116.5,-302.5 116.5,-339.5 185.5,-339.5 185.5,-302.5 116.5,-302.5"/>
<polygon fill="none" stroke="black" points="117,-322 117,-339 186,-339 186,-322 117,-322"/>
<text text-anchor="start" x="120.5" y="-328.5" font-family="Times New Roman,serif" font-size="10.00"> </text>
<text text-anchor="start" x="123.5" y="-328.5" font-family="Times New Roman,serif" font-size="10.00"> s3 :StationPO </text>
<polygon fill="none" stroke="black" points="117,-302 117,-322 186,-322 186,-302 117,-302"/>
<text text-anchor="start" x="149" y="-310" font-family="Times New Roman,serif" font-size="10.00"> &#160;</text>
</g>
<!-- t1&#45;&#45;s3 -->
<g id="edge11" class="edge"><title>t1&#45;&#45;s3</title>
<path fill="none" stroke="black" d="M195.023,-380.03C186.023,-368.167 175.788,-354.675 167.452,-343.687"/>
<text text-anchor="middle" x="176.297" y="-345.854" font-family="Times New Roman,serif" font-size="10.00">station</text>
</g>
<!-- t2 -->
<g id="node8" class="node"><title>t2</title>
<polygon fill="none" stroke="black" points="309,-312 309,-329 353,-329 353,-312 309,-312"/>
<text text-anchor="start" x="312.5" y="-318.5" font-family="Times New Roman,serif" font-size="10.00"> </text>
<text text-anchor="start" x="315.5" y="-318.5" font-family="Times New Roman,serif" font-size="10.00">t2 :Train</text>
</g>
<!-- t1&#45;&#45;t2 -->
<g id="edge3" class="edge"><title>t1&#45;&#45;t2</title>
<path fill="none" stroke="black" stroke-dasharray="1,5" d="M254.644,-380.272C272.544,-366.611 293.334,-350.745 308.696,-339.021"/>
<text text-anchor="middle" x="304.055" y="-345.379" font-family="Times New Roman,serif" font-size="10.00">match</text>
</g>
<!-- s5 -->
<g id="node3" class="node"><title>s5</title>
<polygon fill="deepskyblue" stroke="deepskyblue" points="7.5,-220.5 7.5,-257.5 90.5,-257.5 90.5,-220.5 7.5,-220.5"/>
<polygon fill="none" stroke="black" points="8,-240 8,-257 91,-257 91,-240 8,-240"/>
<text text-anchor="start" x="11.5" y="-246.5" font-family="Times New Roman,serif" font-size="10.00"> </text>
<text text-anchor="start" x="14.5" y="-246.5" font-family="Times New Roman,serif" font-size="10.00"> s5 :SignalFlagPO </text>
<polygon fill="none" stroke="black" points="8,-220 8,-240 91,-240 91,-220 8,-220"/>
<text text-anchor="start" x="47" y="-228" font-family="Times New Roman,serif" font-size="10.00"> &#160;</text>
</g>
<!-- s3&#45;&#45;s5 -->
<g id="edge13" class="edge"><title>s3&#45;&#45;s5</title>
<path fill="none" stroke="black" d="M123.397,-298.351C108.883,-286.967 91.1419,-273.052 76.6247,-261.666"/>
<text text-anchor="middle" x="86.3642" y="-261.434" font-family="Times New Roman,serif" font-size="10.00">flag</text>
</g>
<!-- p8 -->
<g id="node6" class="node"><title>p8</title>
<polygon fill="deepskyblue" stroke="deepskyblue" points="69.5,-480.5 69.5,-517.5 138.5,-517.5 138.5,-480.5 69.5,-480.5"/>
<polygon fill="none" stroke="black" points="70,-500 70,-517 139,-517 139,-500 70,-500"/>
<text text-anchor="start" x="73.5" y="-506.5" font-family="Times New Roman,serif" font-size="10.00"> </text>
<text text-anchor="start" x="76.5" y="-506.5" font-family="Times New Roman,serif" font-size="10.00"> p8 :PersonPO </text>
<polygon fill="none" stroke="black" points="70,-480 70,-500 139,-500 139,-480 70,-480"/>
<text text-anchor="start" x="102" y="-488" font-family="Times New Roman,serif" font-size="10.00"> &#160;</text>
</g>
<!-- s3&#45;&#45;p8 -->
<g id="edge15" class="edge"><title>s3&#45;&#45;p8</title>
<path fill="none" stroke="red" d="M149.078,-343.722C146.553,-367.708 141.19,-407.265 131,-440 127.137,-452.408 121.166,-465.589 115.82,-476.245"/>
<text text-anchor="middle" x="116.057" y="-463.748" font-family="Times New Roman,serif" font-size="10.00" fill="red">people</text>
</g>
<!-- s4 -->
<g id="node9" class="node"><title>s4</title>
<polygon fill="none" stroke="black" points="125,-230 125,-247 178,-247 178,-230 125,-230"/>
<text text-anchor="start" x="128.5" y="-236.5" font-family="Times New Roman,serif" font-size="10.00"> </text>
<text text-anchor="start" x="131.5" y="-236.5" font-family="Times New Roman,serif" font-size="10.00">s4 :Station</text>
</g>
<!-- s3&#45;&#45;s4 -->
<g id="edge5" class="edge"><title>s3&#45;&#45;s4</title>
<path fill="none" stroke="black" stroke-dasharray="1,5" d="M151,-298.14C151,-285.186 151,-269.013 151,-257.015"/>
<text text-anchor="middle" x="155.226" y="-263.578" font-family="Times New Roman,serif" font-size="10.00">match</text>
</g>
<!-- d6 -->
<g id="node4" class="node"><title>d6</title>
<text text-anchor="middle" x="49" y="-159.5" font-family="Times New Roman,serif" font-size="10.00" fill="red">destroy</text>
</g>
<!-- s5&#45;&#45;d6 -->
<g id="edge7" class="edge"><title>s5&#45;&#45;d6</title>
<path fill="none" stroke="red" stroke-dasharray="1,5" d="M49,-216.307C49,-204.886 49,-191.07 49,-180.366"/>
</g>
<!-- p8&#45;&#45;t1 -->
<g id="edge17" class="edge"><title>p8&#45;&#45;t1</title>
<path fill="none" stroke="green" d="M131.933,-476.494C146.311,-465.424 164.039,-451.775 179.584,-439.807"/>
<text text-anchor="middle" x="174.98" y="-446.185" font-family="Times New Roman,serif" font-size="10.00" fill="green">train</text>
</g>
<!-- allMatches_p8 -->
<g id="node7" class="node"><title>allMatches_p8</title>
<text text-anchor="middle" x="92" y="-407.5" font-family="Times New Roman,serif" font-size="10.00">allMatches</text>
</g>
<!-- p8&#45;&#45;allMatches_p8 -->
<g id="edge9" class="edge"><title>p8&#45;&#45;allMatches_p8</title>
<path fill="none" stroke="black" stroke-dasharray="1,5" d="M101.034,-476.494C98.9793,-461.6 96.281,-442.037 94.3699,-428.182"/>
</g>
<!-- t2&#45;&#45;s4 -->
<g id="edge19" class="edge"><title>t2&#45;&#45;s4</title>
<path fill="none" stroke="black" d="M300.792,-307.946C272.848,-296.623 230.277,-278.932 194,-262 190.657,-260.439 187.192,-258.765 183.747,-257.063"/>
<text text-anchor="middle" x="193.745" y="-254.78" font-family="Times New Roman,serif" font-size="10.00">station</text>
<text text-anchor="middle" x="290.805" y="-305.945" font-family="Times New Roman,serif" font-size="10.00">trains</text>
</g>
<!-- p12 -->
<g id="node13" class="node"><title>p12</title>
<polygon fill="none" stroke="black" points="212,-230 212,-247 269,-247 269,-230 212,-230"/>
<text text-anchor="start" x="215.5" y="-236.5" font-family="Times New Roman,serif" font-size="10.00"> </text>
<text text-anchor="start" x="218.5" y="-236.5" font-family="Times New Roman,serif" font-size="10.00">p12 :Person</text>
</g>
<!-- t2&#45;&#45;p12 -->
<g id="edge21" class="edge"><title>t2&#45;&#45;p12</title>
<path fill="none" stroke="black" d="M311.254,-302.641C295.886,-289.131 274.673,-270.482 259.394,-257.05"/>
<text text-anchor="middle" x="268.992" y="-257.36" font-family="Times New Roman,serif" font-size="10.00">passengers</text>
<text text-anchor="middle" x="301.657" y="-297.331" font-family="Times New Roman,serif" font-size="10.00">train</text>
</g>
<!-- p13 -->
<g id="node14" class="node"><title>p13</title>
<polygon fill="none" stroke="black" points="303,-230 303,-247 360,-247 360,-230 303,-230"/>
<text text-anchor="start" x="306.5" y="-236.5" font-family="Times New Roman,serif" font-size="10.00"> </text>
<text text-anchor="start" x="309.5" y="-236.5" font-family="Times New Roman,serif" font-size="10.00">p13 :Person</text>
</g>
<!-- t2&#45;&#45;p13 -->
<g id="edge23" class="edge"><title>t2&#45;&#45;p13</title>
<path fill="none" stroke="black" d="M331,-302.641C331,-289.131 331,-270.482 331,-257.05"/>
<text text-anchor="middle" x="335.226" y="-263.613" font-family="Times New Roman,serif" font-size="10.00">passengers</text>
<text text-anchor="middle" x="326.774" y="-291.078" font-family="Times New Roman,serif" font-size="10.00">train</text>
</g>
<!-- p14 -->
<g id="node15" class="node"><title>p14</title>
<polygon fill="none" stroke="black" points="394,-230 394,-247 451,-247 451,-230 394,-230"/>
<text text-anchor="start" x="397.5" y="-236.5" font-family="Times New Roman,serif" font-size="10.00"> </text>
<text text-anchor="start" x="400.5" y="-236.5" font-family="Times New Roman,serif" font-size="10.00">p14 :Person</text>
</g>
<!-- t2&#45;&#45;p14 -->
<g id="edge25" class="edge"><title>t2&#45;&#45;p14</title>
<path fill="none" stroke="black" d="M350.746,-302.641C366.114,-289.131 387.327,-270.482 402.606,-257.05"/>
<text text-anchor="middle" x="398.589" y="-263.708" font-family="Times New Roman,serif" font-size="10.00">passengers</text>
<text text-anchor="middle" x="354.762" y="-290.983" font-family="Times New Roman,serif" font-size="10.00">train</text>
</g>
<!-- p15 -->
<g id="node16" class="node"><title>p15</title>
<polygon fill="none" stroke="black" points="485,-230 485,-247 542,-247 542,-230 485,-230"/>
<text text-anchor="start" x="488.5" y="-236.5" font-family="Times New Roman,serif" font-size="10.00"> </text>
<text text-anchor="start" x="491.5" y="-236.5" font-family="Times New Roman,serif" font-size="10.00">p15 :Person</text>
</g>
<!-- t2&#45;&#45;p15 -->
<g id="edge27" class="edge"><title>t2&#45;&#45;p15</title>
<path fill="none" stroke="black" d="M361.143,-307.582C388.81,-296.081 430.864,-278.338 467,-262 470.469,-260.432 474.07,-258.77 477.661,-257.09"/>
<text text-anchor="middle" x="471.239" y="-262.255" font-family="Times New Roman,serif" font-size="10.00">passengers</text>
<text text-anchor="middle" x="367.883" y="-297.695" font-family="Times New Roman,serif" font-size="10.00">train</text>
</g>
<!-- p16 -->
<g id="node17" class="node"><title>p16</title>
<polygon fill="none" stroke="black" points="576,-230 576,-247 633,-247 633,-230 576,-230"/>
<text text-anchor="start" x="579.5" y="-236.5" font-family="Times New Roman,serif" font-size="10.00"> </text>
<text text-anchor="start" x="582.5" y="-236.5" font-family="Times New Roman,serif" font-size="10.00">p16 :Person</text>
</g>
<!-- t2&#45;&#45;p16 -->
<g id="edge29" class="edge"><title>t2&#45;&#45;p16</title>
<path fill="none" stroke="black" d="M361.311,-314.23C405.378,-305.401 489.367,-286.908 558,-262 561.994,-260.55 566.108,-258.871 570.156,-257.099"/>
<text text-anchor="middle" x="563.529" y="-262.088" font-family="Times New Roman,serif" font-size="10.00">passengers</text>
<text text-anchor="middle" x="369.344" y="-305.775" font-family="Times New Roman,serif" font-size="10.00">train</text>
</g>
<!-- s9 -->
<g id="node10" class="node"><title>s9</title>
<polygon fill="none" stroke="black" points="125,-153 125,-170 178,-170 178,-153 125,-153"/>
<text text-anchor="start" x="128.5" y="-159.5" font-family="Times New Roman,serif" font-size="10.00"> </text>
<text text-anchor="start" x="131.5" y="-159.5" font-family="Times New Roman,serif" font-size="10.00">s9 :Station</text>
</g>
<!-- s4&#45;&#45;s9 -->
<g id="edge31" class="edge"><title>s4&#45;&#45;s9</title>
<path fill="none" stroke="black" d="M151,-220.981C151,-208.794 151,-192.442 151,-180.211"/>
<text text-anchor="middle" x="155.226" y="-186.774" font-family="Times New Roman,serif" font-size="10.00">prev</text>
<text text-anchor="middle" x="146.774" y="-209.418" font-family="Times New Roman,serif" font-size="10.00">next</text>
</g>
<!-- s10 -->
<g id="node11" class="node"><title>s10</title>
<polygon fill="none" stroke="black" points="123,-81 123,-98 180,-98 180,-81 123,-81"/>
<text text-anchor="start" x="126.5" y="-87.5" font-family="Times New Roman,serif" font-size="10.00"> </text>
<text text-anchor="start" x="129.5" y="-87.5" font-family="Times New Roman,serif" font-size="10.00">s10 :Station</text>
</g>
<!-- s9&#45;&#45;s10 -->
<g id="edge33" class="edge"><title>s9&#45;&#45;s10</title>
<path fill="none" stroke="black" d="M151,-143.697C151,-132.846 151,-118.917 151,-108.104"/>
<text text-anchor="middle" x="155.226" y="-114.667" font-family="Times New Roman,serif" font-size="10.00">prev</text>
<text text-anchor="middle" x="146.774" y="-132.134" font-family="Times New Roman,serif" font-size="10.00">next</text>
</g>
<!-- s11 -->
<g id="node12" class="node"><title>s11</title>
<polygon fill="none" stroke="black" points="123,-9 123,-26 180,-26 180,-9 123,-9"/>
<text text-anchor="start" x="126.5" y="-15.5" font-family="Times New Roman,serif" font-size="10.00"> </text>
<text text-anchor="start" x="129.5" y="-15.5" font-family="Times New Roman,serif" font-size="10.00">s11 :Station</text>
</g>
<!-- s10&#45;&#45;s11 -->
<g id="edge35" class="edge"><title>s10&#45;&#45;s11</title>
<path fill="none" stroke="black" d="M151,-71.6966C151,-60.8463 151,-46.9167 151,-36.1043"/>
<text text-anchor="middle" x="155.226" y="-42.6674" font-family="Times New Roman,serif" font-size="10.00">prev</text>
<text text-anchor="middle" x="146.774" y="-60.1335" font-family="Times New Roman,serif" font-size="10.00">next</text>
</g>
</g>
</svg>
