<?xml version="1.0" encoding="UTF-8" standalone="no"?>
<!DOCTYPE svg PUBLIC "-//W3C//DTD SVG 1.1//EN"
 "http://www.w3.org/Graphics/SVG/1.1/DTD/svg11.dtd">
<!-- Generated by graphviz version 2.28.0 (20110507.0327)
 -->
<!-- Title: ObjectDiagram Pages: 1 -->
<svg width="660pt" height="445pt"
 viewBox="0.00 0.00 660.00 445.00" xmlns="http://www.w3.org/2000/svg" xmlns:xlink="http://www.w3.org/1999/xlink">
<g id="graph1" class="graph" transform="scale(1 1) rotate(0) translate(4 441)">
<title>ObjectDiagram</title>
<polygon fill="white" stroke="white" points="-4,5 -4,-441 657,-441 657,5 -4,5"/>
<g id="graph2" class="cluster"><title>cluster_o8</title>
<polygon fill="none" stroke="grey" points="177,-208 177,-301 293,-301 293,-208 177,-208"/>
<text text-anchor="start" x="203.5" y="-281.8" font-family="Times New Roman,serif" font-size="14.00">optional o8</text>
</g>
<!-- t1 -->
<g id="node1" class="node"><title>t1</title>
<polygon fill="deepskyblue" stroke="deepskyblue" points="253.5,-395.5 253.5,-432.5 320.5,-432.5 320.5,-395.5 253.5,-395.5"/>
<polygon fill="none" stroke="black" points="254,-415 254,-432 321,-432 321,-415 254,-415"/>
<text text-anchor="start" x="257.5" y="-421.5" font-family="Arial" font-size="10.00"> </text>
<text text-anchor="start" x="261.5" y="-421.5" font-family="Arial" font-size="10.00"> t1 :TrainPO </text>
<polygon fill="none" stroke="black" points="254,-395 254,-415 321,-415 321,-395 254,-395"/>
<text text-anchor="start" x="284" y="-403" font-family="Arial" font-size="10.00"> &#160;</text>
</g>
<!-- s3 -->
<g id="node2" class="node"><title>s3</title>
<polygon fill="deepskyblue" stroke="deepskyblue" points="197.5,-313.5 197.5,-350.5 276.5,-350.5 276.5,-313.5 197.5,-313.5"/>
<polygon fill="none" stroke="black" points="198,-333 198,-350 277,-350 277,-333 198,-333"/>
<text text-anchor="start" x="201.5" y="-339.5" font-family="Arial" font-size="10.00"> </text>
<text text-anchor="start" x="205.5" y="-339.5" font-family="Arial" font-size="10.00"> s3 :StationPO </text>
<polygon fill="none" stroke="black" points="198,-313 198,-333 277,-333 277,-313 198,-313"/>
<text text-anchor="start" x="234" y="-321" font-family="Arial" font-size="10.00"> &#160;</text>
</g>
<!-- t1&#45;&#45;s3 -->
<g id="edge19" class="edge"><title>t1&#45;&#45;s3</title>
<path fill="none" stroke="black" d="M273.337,-391.14C266.224,-379.759 257.558,-365.893 250.473,-354.557"/>
<text text-anchor="middle" x="258.86" y="-357.503" font-family="Arial" font-size="10.00">station</text>
</g>
<!-- t2 -->
<g id="node7" class="node"><title>t2</title>
<a xlink:href="../../SDMLib/src/org/sdmlib/examples/patternrewriteops/model/Train.java" xlink:title="&lt;TABLE&gt;">
<polygon fill="none" stroke="black" points="315,-323 315,-340 362,-340 362,-323 315,-323"/>
<text text-anchor="start" x="318.5" y="-329.5" font-family="Arial" font-size="10.00"> </text>
<text text-anchor="start" x="322.5" y="-329.5" font-family="Arial" font-size="10.00">t2 :Train</text>
</a>
</g>
<!-- t1&#45;&#45;t2 -->
<g id="edge3" class="edge"><title>t1&#45;&#45;t2</title>
<path fill="none" stroke="black" stroke-dasharray="1,5" d="M300.936,-391.14C309.194,-378.186 319.505,-362.013 327.153,-350.015"/>
<text text-anchor="middle" x="325.845" y="-357.429" font-family="Arial" font-size="10.00">match</text>
</g>
<!-- s5 -->
<g id="node3" class="node"><title>s5</title>
<polygon fill="deepskyblue" stroke="deepskyblue" points="52,-220.5 52,-257.5 146,-257.5 146,-220.5 52,-220.5"/>
<polygon fill="none" stroke="black" points="52,-240 52,-257 146,-257 146,-240 52,-240"/>
<text text-anchor="start" x="55.5" y="-246.5" font-family="Arial" font-size="10.00"> </text>
<text text-anchor="start" x="59.5" y="-246.5" font-family="Arial" font-size="10.00"> s5 :SignalFlagPO </text>
<polygon fill="none" stroke="black" points="52,-220 52,-240 146,-240 146,-220 52,-220"/>
<text text-anchor="start" x="95.5" y="-228" font-family="Arial" font-size="10.00"> &#160;</text>
</g>
<!-- s3&#45;&#45;s5 -->
<g id="edge21" class="edge"><title>s3&#45;&#45;s5</title>
<path fill="none" stroke="black" d="M189.444,-310.356C183.787,-307.422 178.186,-304.279 173,-301 154.847,-289.521 136.199,-274.121 122.164,-261.667"/>
<text text-anchor="middle" x="131.761" y="-261.976" font-family="Arial" font-size="10.00">flag</text>
</g>
<!-- p18 -->
<g id="node6" class="node"><title>p18</title>
<polygon fill="deepskyblue" stroke="deepskyblue" points="193,-220.5 193,-257.5 277,-257.5 277,-220.5 193,-220.5"/>
<polygon fill="none" stroke="black" points="193,-240 193,-257 277,-257 277,-240 193,-240"/>
<text text-anchor="start" x="196.5" y="-246.5" font-family="Arial" font-size="10.00"> </text>
<text text-anchor="start" x="200.5" y="-246.5" font-family="Arial" font-size="10.00"> p18 :PersonPO </text>
<polygon fill="none" stroke="black" points="193,-220 193,-240 277,-240 277,-220 193,-220"/>
<text text-anchor="start" x="231.5" y="-228" font-family="Arial" font-size="10.00"> &#160;</text>
</g>
<!-- s3&#45;&#45;p18 -->
<g id="edge23" class="edge"><title>s3&#45;&#45;p18</title>
<path fill="none" stroke="red" d="M236.526,-309.434C236.21,-295.033 235.795,-276.16 235.478,-261.726"/>
<text text-anchor="middle" x="239.902" y="-268.194" font-family="Arial" font-size="10.00" fill="red">people</text>
</g>
<!-- s4 -->
<g id="node8" class="node"><title>s4</title>
<a xlink:href="../../SDMLib/src/org/sdmlib/examples/patternrewriteops/model/Station.java" xlink:title="&lt;TABLE&gt;">
<polygon fill="none" stroke="black" points="312,-230 312,-247 371,-247 371,-230 312,-230"/>
<text text-anchor="start" x="315.5" y="-236.5" font-family="Arial" font-size="10.00"> </text>
<text text-anchor="start" x="319.5" y="-236.5" font-family="Arial" font-size="10.00">s4 :Station</text>
</a>
</g>
<!-- s3&#45;&#45;s4 -->
<g id="edge5" class="edge"><title>s3&#45;&#45;s4</title>
<path fill="none" stroke="black" stroke-dasharray="1,5" d="M284.261,-310.184C288.762,-307.385 293.097,-304.32 297,-301 311.522,-288.649 323.791,-270.545 331.654,-257.268"/>
<text text-anchor="middle" x="330.582" y="-264.71" font-family="Arial" font-size="10.00">match</text>
</g>
<!-- d7 -->
<g id="node4" class="node"><title>d7</title>
<text text-anchor="middle" x="27" y="-159.5" font-family="Arial" font-size="10.00" fill="red">destroy</text>
</g>
<!-- s5&#45;&#45;d7 -->
<g id="edge9" class="edge"><title>s5&#45;&#45;d7</title>
<path fill="none" stroke="red" stroke-dasharray="1,5" d="M78.1746,-216.307C67.2102,-204.886 53.9471,-191.07 43.6709,-180.366"/>
</g>
<!-- s6 -->
<g id="node20" class="node"><title>s6</title>
<text text-anchor="middle" x="99" y="-159.5" font-family="Arial" font-size="10.00">s6</text>
</g>
<!-- s5&#45;&#45;s6 -->
<g id="edge7" class="edge"><title>s5&#45;&#45;s6</title>
<path fill="none" stroke="black" stroke-dasharray="1,5" d="M99,-216.307C99,-204.886 99,-191.07 99,-180.366"/>
<text text-anchor="middle" x="103.226" y="-186.929" font-family="Arial" font-size="10.00">match</text>
</g>
<!-- p16 -->
<g id="node15" class="node"><title>p16</title>
<a xlink:href="../../SDMLib/src/org/sdmlib/examples/patternrewriteops/model/Person.java" xlink:title="&lt;TABLE&gt;">
<polygon fill="none" stroke="black" points="322,-153 322,-170 386,-170 386,-153 322,-153"/>
<text text-anchor="start" x="325.5" y="-159.5" font-family="Arial" font-size="10.00"> </text>
<text text-anchor="start" x="329.5" y="-159.5" font-family="Arial" font-size="10.00">p16 :Person</text>
</a>
</g>
<!-- p18&#45;&#45;p16 -->
<g id="edge15" class="edge"><title>p18&#45;&#45;p16</title>
<path fill="none" stroke="black" stroke-dasharray="1,5" d="M269.42,-216.307C287.679,-204.799 309.795,-190.86 326.832,-180.123"/>
<text text-anchor="middle" x="321.418" y="-186.03" font-family="Arial" font-size="10.00">candidate</text>
</g>
<!-- p17 -->
<g id="node16" class="node"><title>p17</title>
<a xlink:href="../../SDMLib/src/org/sdmlib/examples/patternrewriteops/model/Person.java" xlink:title="&lt;TABLE&gt;">
<polygon fill="none" stroke="black" points="224,-153 224,-170 288,-170 288,-153 224,-153"/>
<text text-anchor="start" x="227.5" y="-159.5" font-family="Arial" font-size="10.00"> </text>
<text text-anchor="start" x="231.5" y="-159.5" font-family="Arial" font-size="10.00">p17 :Person</text>
</a>
</g>
<!-- p18&#45;&#45;p17 -->
<g id="edge17" class="edge"><title>p18&#45;&#45;p17</title>
<path fill="none" stroke="black" stroke-dasharray="1,5" d="M241.074,-216.307C244.272,-204.886 248.14,-191.07 251.138,-180.366"/>
<text text-anchor="middle" x="252.764" y="-187.732" font-family="Arial" font-size="10.00">candidate</text>
</g>
<!-- p15 -->
<g id="node23" class="node"><title>p15</title>
<text text-anchor="middle" x="171" y="-159.5" font-family="Arial" font-size="10.00">p15</text>
</g>
<!-- p18&#45;&#45;p15 -->
<g id="edge11" class="edge"><title>p18&#45;&#45;p15</title>
<path fill="none" stroke="black" stroke-dasharray="1,5" d="M210.303,-216.307C199.692,-204.886 188.032,-191.07 180.021,-180.366"/>
<text text-anchor="middle" x="188.87" y="-182.523" font-family="Arial" font-size="10.00">match</text>
</g>
<!-- p18&#45;&#45;p15 -->
<g id="edge13" class="edge"><title>p18&#45;&#45;p15</title>
<path fill="none" stroke="black" stroke-dasharray="1,5" d="M222.675,-216.307C213.793,-204.886 201.874,-191.07 191.616,-180.366"/>
<text text-anchor="middle" x="200.916" y="-181.543" font-family="Arial" font-size="10.00">candidate</text>
</g>
<!-- t2&#45;&#45;s4 -->
<g id="edge25" class="edge"><title>t2&#45;&#45;s4</title>
<path fill="none" stroke="black" d="M338.564,-313.884C339.101,-297.614 339.903,-273.284 340.438,-257.04"/>
<text text-anchor="middle" x="344.364" y="-263.737" font-family="Arial" font-size="10.00">station</text>
<text text-anchor="middle" x="334.639" y="-302.186" font-family="Arial" font-size="10.00">trains</text>
</g>
<!-- s9 -->
<g id="node9" class="node"><title>s9</title>
<a xlink:href="../../SDMLib/src/org/sdmlib/examples/patternrewriteops/model/Station.java" xlink:title="&lt;TABLE&gt;">
<polygon fill="none" stroke="black" points="421,-153 421,-170 480,-170 480,-153 421,-153"/>
<text text-anchor="start" x="424.5" y="-159.5" font-family="Arial" font-size="10.00"> </text>
<text text-anchor="start" x="428.5" y="-159.5" font-family="Arial" font-size="10.00">s9 :Station</text>
</a>
</g>
<!-- s4&#45;&#45;s9 -->
<g id="edge27" class="edge"><title>s4&#45;&#45;s9</title>
<path fill="none" stroke="black" d="M365.734,-220.981C383.447,-208.794 407.211,-192.442 424.987,-180.211"/>
<text text-anchor="middle" x="419.916" y="-186.33" font-family="Arial" font-size="10.00">next</text>
<text text-anchor="middle" x="370.805" y="-209.862" font-family="Arial" font-size="10.00">prev</text>
</g>
<!-- s4&#45;&#45;p16 -->
<g id="edge29" class="edge"><title>s4&#45;&#45;p16</title>
<path fill="none" stroke="black" d="M343.95,-220.981C346.062,-208.794 348.897,-192.442 351.017,-180.211"/>
<text text-anchor="middle" x="353.633" y="-187.363" font-family="Arial" font-size="10.00">people</text>
<text text-anchor="middle" x="341.334" y="-208.83" font-family="Arial" font-size="10.00">station</text>
</g>
<!-- s4&#45;&#45;p17 -->
<g id="edge31" class="edge"><title>s4&#45;&#45;p17</title>
<path fill="none" stroke="black" d="M321.712,-220.981C307.899,-208.794 289.368,-192.442 275.506,-180.211"/>
<text text-anchor="middle" x="285.098" y="-180.538" font-family="Arial" font-size="10.00">people</text>
<text text-anchor="middle" x="312.12" y="-215.654" font-family="Arial" font-size="10.00">station</text>
</g>
<!-- s10 -->
<g id="node10" class="node"><title>s10</title>
<a xlink:href="../../SDMLib/src/org/sdmlib/examples/patternrewriteops/model/Station.java" xlink:title="&lt;TABLE&gt;">
<polygon fill="none" stroke="black" points="418,-81 418,-98 482,-98 482,-81 418,-81"/>
<text text-anchor="start" x="421.5" y="-87.5" font-family="Arial" font-size="10.00"> </text>
<text text-anchor="start" x="425.5" y="-87.5" font-family="Arial" font-size="10.00">s10 :Station</text>
</a>
</g>
<!-- s9&#45;&#45;s10 -->
<g id="edge33" class="edge"><title>s9&#45;&#45;s10</title>
<path fill="none" stroke="black" d="M450,-143.697C450,-132.846 450,-118.917 450,-108.104"/>
<text text-anchor="middle" x="454.226" y="-114.667" font-family="Arial" font-size="10.00">next</text>
<text text-anchor="middle" x="445.774" y="-132.134" font-family="Arial" font-size="10.00">prev</text>
</g>
<!-- s11 -->
<g id="node11" class="node"><title>s11</title>
<a xlink:href="../../SDMLib/src/org/sdmlib/examples/patternrewriteops/model/Station.java" xlink:title="&lt;TABLE&gt;">
<polygon fill="none" stroke="black" points="271,-9 271,-26 335,-26 335,-9 271,-9"/>
<text text-anchor="start" x="274.5" y="-15.5" font-family="Arial" font-size="10.00"> </text>
<text text-anchor="start" x="278.5" y="-15.5" font-family="Arial" font-size="10.00">s11 :Station</text>
</a>
</g>
<!-- s10&#45;&#45;s11 -->
<g id="edge37" class="edge"><title>s10&#45;&#45;s11</title>
<path fill="none" stroke="black" d="M414.04,-71.8761C391.175,-60.9882 361.685,-46.9454 338.843,-36.0683"/>
<text text-anchor="middle" x="348.843" y="-33.6492" font-family="Arial" font-size="10.00">next</text>
<text text-anchor="middle" x="404.04" y="-69.2952" font-family="Arial" font-size="10.00">prev</text>
</g>
<!-- p12 -->
<g id="node12" class="node"><title>p12</title>
<a xlink:href="../../SDMLib/src/org/sdmlib/examples/patternrewriteops/model/Person.java" xlink:title="&lt;TABLE&gt;">
<polygon fill="none" stroke="black" points="369,-9 369,-26 433,-26 433,-9 369,-9"/>
<text text-anchor="start" x="372.5" y="-15.5" font-family="Arial" font-size="10.00"> </text>
<text text-anchor="start" x="376.5" y="-15.5" font-family="Arial" font-size="10.00">p12 :Person</text>
</a>
</g>
<!-- s10&#45;&#45;p12 -->
<g id="edge39" class="edge"><title>s10&#45;&#45;p12</title>
<path fill="none" stroke="black" d="M437.888,-71.6966C430.292,-60.8463 420.542,-46.9167 412.973,-36.1043"/>
<text text-anchor="middle" x="421.633" y="-38.6055" font-family="Arial" font-size="10.00">people</text>
<text text-anchor="middle" x="429.228" y="-64.1954" font-family="Arial" font-size="10.00">station</text>
</g>
<!-- p13 -->
<g id="node13" class="node"><title>p13</title>
<a xlink:href="../../SDMLib/src/org/sdmlib/examples/patternrewriteops/model/Person.java" xlink:title="&lt;TABLE&gt;">
<polygon fill="none" stroke="black" points="467,-9 467,-26 531,-26 531,-9 467,-9"/>
<text text-anchor="start" x="470.5" y="-15.5" font-family="Arial" font-size="10.00"> </text>
<text text-anchor="start" x="474.5" y="-15.5" font-family="Arial" font-size="10.00">p13 :Person</text>
</a>
</g>
<!-- s10&#45;&#45;p13 -->
<g id="edge41" class="edge"><title>s10&#45;&#45;p13</title>
<path fill="none" stroke="black" d="M462.112,-71.6966C469.708,-60.8463 479.458,-46.9167 487.027,-36.1043"/>
<text text-anchor="middle" x="485.292" y="-43.4527" font-family="Arial" font-size="10.00">people</text>
<text text-anchor="middle" x="463.847" y="-59.3483" font-family="Arial" font-size="10.00">station</text>
</g>
<!-- s14 -->
<g id="node14" class="node"><title>s14</title>
<a xlink:href="../../SDMLib/src/org/sdmlib/examples/patternrewriteops/model/SignalFlag.java" xlink:title="&lt;TABLE&gt;">
<polygon fill="none" stroke="black" points="566,-9 566,-26 645,-26 645,-9 566,-9"/>
<text text-anchor="start" x="569.5" y="-15.5" font-family="Arial" font-size="10.00"> </text>
<text text-anchor="start" x="573.5" y="-15.5" font-family="Arial" font-size="10.00">s14 :SignalFlag</text>
</a>
</g>
<!-- s10&#45;&#45;s14 -->
<g id="edge35" class="edge"><title>s10&#45;&#45;s14</title>
<path fill="none" stroke="black" d="M487.917,-71.8761C512.026,-60.9882 543.121,-46.9454 567.206,-36.0683"/>
<text text-anchor="middle" x="560.685" y="-41.1502" font-family="Arial" font-size="10.00">flag</text>
<text text-anchor="middle" x="494.438" y="-61.7942" font-family="Arial" font-size="10.00">station</text>
</g>
</g>
</svg>
