<?xml version="1.0" encoding="UTF-8" standalone="no"?>
<!DOCTYPE svg PUBLIC "-//W3C//DTD SVG 1.1//EN"
 "http://www.w3.org/Graphics/SVG/1.1/DTD/svg11.dtd">
<!-- Generated by graphviz version 2.28.0 (20110507.0327)
 -->
<!-- Title: ObjectDiagram Pages: 1 -->
<svg width="625pt" height="459pt"
 viewBox="0.00 0.00 625.00 459.00" xmlns="http://www.w3.org/2000/svg" xmlns:xlink="http://www.w3.org/1999/xlink">
<g id="graph1" class="graph" transform="scale(1 1) rotate(0) translate(4 455)">
<title>ObjectDiagram</title>
<polygon fill="white" stroke="white" points="-4,5 -4,-455 622,-455 622,5 -4,5"/>
<g id="graph2" class="cluster"><title>cluster_o8</title>
<polygon fill="none" stroke="grey" points="507,-213 507,-383 609,-383 609,-213 507,-213"/>
<text text-anchor="start" x="526.5" y="-363.8" font-family="Times New Roman,serif" font-size="14.00">optional o8</text>
</g>
<!-- t1 -->
<g id="node1" class="node"><title>t1</title>
<polygon fill="deepskyblue" stroke="deepskyblue" points="318,-395.5 318,-446.5 378,-446.5 378,-395.5 318,-395.5"/>
<text text-anchor="start" x="339" y="-436.5" font-family="Times New Roman,serif" font-size="10.00">«bound»</text>
<polygon fill="none" stroke="black" points="318,-415 318,-431 378,-431 378,-415 318,-415"/>
<text text-anchor="start" x="321.5" y="-421" font-family="Times New Roman,serif" font-size="10.00"> </text>
<text text-anchor="start" x="324.5" y="-421" font-family="Times New Roman,serif" font-size="10.00"> t1 :TrainPO </text>
<polygon fill="none" stroke="black" points="318,-395 318,-415 378,-415 378,-395 318,-395"/>
<text text-anchor="start" x="345.5" y="-403" font-family="Times New Roman,serif" font-size="10.00"> &#160;</text>
</g>
<!-- s3 -->
<g id="node2" class="node"><title>s3</title>
<polygon fill="deepskyblue" stroke="deepskyblue" points="178.5,-302.5 178.5,-339.5 247.5,-339.5 247.5,-302.5 178.5,-302.5"/>
<polygon fill="none" stroke="black" points="179,-322 179,-339 248,-339 248,-322 179,-322"/>
<text text-anchor="start" x="182.5" y="-328.5" font-family="Times New Roman,serif" font-size="10.00"> </text>
<text text-anchor="start" x="185.5" y="-328.5" font-family="Times New Roman,serif" font-size="10.00"> s3 :StationPO </text>
<polygon fill="none" stroke="black" points="179,-302 179,-322 248,-322 248,-302 179,-302"/>
<text text-anchor="start" x="211" y="-310" font-family="Times New Roman,serif" font-size="10.00"> &#160;</text>
</g>
<!-- t1&#45;&#45;s3 -->
<g id="edge15" class="edge"><title>t1&#45;&#45;s3</title>
<path fill="none" stroke="black" d="M309.676,-392.179C288.472,-376.787 262.513,-357.943 242.835,-343.658"/>
<text text-anchor="middle" x="252.652" y="-343.062" font-family="Times New Roman,serif" font-size="10.00">station</text>
</g>
<!-- t2 -->
<g id="node8" class="node"><title>t2</title>
<a xlink:href="../examples/org/sdmlib/examples/patternrewriteops/Train.java" xlink:title="&lt;TABLE&gt;">
<polygon fill="none" stroke="black" points="326,-312 326,-329 370,-329 370,-312 326,-312"/>
<text text-anchor="start" x="329.5" y="-318.5" font-family="Times New Roman,serif" font-size="10.00"> </text>
<text text-anchor="start" x="332.5" y="-318.5" font-family="Times New Roman,serif" font-size="10.00">t2 :Train</text>
</a>
</g>
<!-- t1&#45;&#45;t2 -->
<g id="edge3" class="edge"><title>t1&#45;&#45;t2</title>
<path fill="none" stroke="black" stroke-dasharray="1,5" d="M348,-391.391C348,-374.442 348,-353.532 348,-339.121"/>
<text text-anchor="middle" x="352.226" y="-345.684" font-family="Times New Roman,serif" font-size="10.00">match</text>
</g>
<!-- s5 -->
<g id="node3" class="node"><title>s5</title>
<polygon fill="deepskyblue" stroke="deepskyblue" points="47.5,-220.5 47.5,-257.5 130.5,-257.5 130.5,-220.5 47.5,-220.5"/>
<polygon fill="none" stroke="black" points="48,-240 48,-257 131,-257 131,-240 48,-240"/>
<text text-anchor="start" x="51.5" y="-246.5" font-family="Times New Roman,serif" font-size="10.00"> </text>
<text text-anchor="start" x="54.5" y="-246.5" font-family="Times New Roman,serif" font-size="10.00"> s5 :SignalFlagPO </text>
<polygon fill="none" stroke="black" points="48,-220 48,-240 131,-240 131,-220 48,-220"/>
<text text-anchor="start" x="87" y="-228" font-family="Times New Roman,serif" font-size="10.00"> &#160;</text>
</g>
<!-- s3&#45;&#45;s5 -->
<g id="edge17" class="edge"><title>s3&#45;&#45;s5</title>
<path fill="none" stroke="black" d="M179.444,-298.351C161.799,-286.967 140.231,-273.052 122.583,-261.666"/>
<text text-anchor="middle" x="132.49" y="-260.529" font-family="Times New Roman,serif" font-size="10.00">flag</text>
</g>
<!-- p9 -->
<g id="node6" class="node"><title>p9</title>
<polygon fill="deepskyblue" stroke="deepskyblue" points="523.5,-302.5 523.5,-339.5 592.5,-339.5 592.5,-302.5 523.5,-302.5"/>
<polygon fill="none" stroke="black" points="524,-322 524,-339 593,-339 593,-322 524,-322"/>
<text text-anchor="start" x="527.5" y="-328.5" font-family="Times New Roman,serif" font-size="10.00"> </text>
<text text-anchor="start" x="530.5" y="-328.5" font-family="Times New Roman,serif" font-size="10.00"> p9 :PersonPO </text>
<polygon fill="none" stroke="black" points="524,-302 524,-322 593,-322 593,-302 524,-302"/>
<text text-anchor="start" x="556" y="-310" font-family="Times New Roman,serif" font-size="10.00"> &#160;</text>
</g>
<!-- s3&#45;&#45;p9 -->
<g id="edge19" class="edge"><title>s3&#45;&#45;p9</title>
<path fill="none" stroke="red" d="M237.877,-343.809C257.83,-360.206 287.46,-380.519 318,-387 337.999,-391.244 482.001,-391.244 502,-387 523.903,-382.352 539.28,-360.756 548.308,-343.516"/>
<text text-anchor="middle" x="547.652" y="-350.994" font-family="Times New Roman,serif" font-size="10.00" fill="red">people</text>
</g>
<!-- s4 -->
<g id="node9" class="node"><title>s4</title>
<a xlink:href="../examples/org/sdmlib/examples/patternrewriteops/Station.java" xlink:title="&lt;TABLE&gt;">
<polygon fill="none" stroke="black" points="165,-230 165,-247 218,-247 218,-230 165,-230"/>
<text text-anchor="start" x="168.5" y="-236.5" font-family="Times New Roman,serif" font-size="10.00"> </text>
<text text-anchor="start" x="171.5" y="-236.5" font-family="Times New Roman,serif" font-size="10.00">s4 :Station</text>
</a>
</g>
<!-- s3&#45;&#45;s4 -->
<g id="edge5" class="edge"><title>s3&#45;&#45;s4</title>
<path fill="none" stroke="black" stroke-dasharray="1,5" d="M206.988,-298.14C203.426,-285.186 198.978,-269.013 195.679,-257.015"/>
<text text-anchor="middle" x="202.157" y="-262.133" font-family="Times New Roman,serif" font-size="10.00">match</text>
</g>
<!-- d7 -->
<g id="node4" class="node"><title>d7</title>
<text text-anchor="middle" x="27" y="-159.5" font-family="Times New Roman,serif" font-size="10.00" fill="red">destroy</text>
</g>
<!-- s5&#45;&#45;d7 -->
<g id="edge9" class="edge"><title>s5&#45;&#45;d7</title>
<path fill="none" stroke="red" stroke-dasharray="1,5" d="M71.067,-216.307C61.6254,-204.886 50.2044,-191.07 41.3555,-180.366"/>
</g>
<!-- s6 -->
<g id="node22" class="node"><title>s6</title>
<text text-anchor="middle" x="99" y="-159.5" font-family="Times New Roman,serif" font-size="10.00">s6</text>
</g>
<!-- s5&#45;&#45;s6 -->
<g id="edge7" class="edge"><title>s5&#45;&#45;s6</title>
<path fill="none" stroke="black" stroke-dasharray="1,5" d="M91.8924,-216.307C93.4153,-204.886 95.2574,-191.07 96.6846,-180.366"/>
<text text-anchor="middle" x="99.6759" y="-187.408" font-family="Times New Roman,serif" font-size="10.00">match</text>
</g>
<!-- p9&#45;&#45;t1 -->
<g id="edge21" class="edge"><title>p9&#45;&#45;t1</title>
<path fill="none" stroke="green" d="M546.435,-343.783C538.264,-357.09 526.094,-373.351 511,-383 472.98,-407.303 421.008,-415.733 386.061,-418.607"/>
<text text-anchor="middle" x="394.685" y="-411.044" font-family="Times New Roman,serif" font-size="10.00" fill="green">train</text>
</g>
<!-- allMatches_p9 -->
<g id="node7" class="node"><title>allMatches_p9</title>
<text text-anchor="middle" x="558" y="-236.5" font-family="Times New Roman,serif" font-size="10.00">allMatches</text>
</g>
<!-- p9&#45;&#45;allMatches_p9 -->
<g id="edge11" class="edge"><title>p9&#45;&#45;allMatches_p9</title>
<path fill="none" stroke="black" stroke-dasharray="1,5" d="M558,-298.14C558,-285.186 558,-269.013 558,-257.015"/>
</g>
<!-- p10 -->
<g id="node18" class="node"><title>p10</title>
<a xlink:href="../examples/org/sdmlib/examples/patternrewriteops/Person.java" xlink:title="&lt;TABLE&gt;">
<polygon fill="none" stroke="black" points="434,-230 434,-247 491,-247 491,-230 434,-230"/>
<text text-anchor="start" x="437.5" y="-236.5" font-family="Times New Roman,serif" font-size="10.00"> </text>
<text text-anchor="start" x="440.5" y="-236.5" font-family="Times New Roman,serif" font-size="10.00">p10 :Person</text>
</a>
</g>
<!-- p9&#45;&#45;p10 -->
<g id="edge13" class="edge"><title>p9&#45;&#45;p10</title>
<path fill="none" stroke="black" stroke-dasharray="1,5" d="M532.021,-298.351C516.473,-285.394 496.989,-269.158 482.524,-257.104"/>
<text text-anchor="middle" x="492.192" y="-257.159" font-family="Times New Roman,serif" font-size="10.00">match</text>
</g>
<!-- t2&#45;&#45;s4 -->
<g id="edge23" class="edge"><title>t2&#45;&#45;s4</title>
<path fill="none" stroke="black" d="M317.988,-304.754C294.993,-293.067 262.484,-276.532 234,-262 230.863,-260.399 227.598,-258.732 224.331,-257.062"/>
<text text-anchor="middle" x="234.324" y="-254.923" font-family="Times New Roman,serif" font-size="10.00">station</text>
<text text-anchor="middle" x="307.993" y="-301.915" font-family="Times New Roman,serif" font-size="10.00">trains</text>
</g>
<!-- p17 -->
<g id="node16" class="node"><title>p17</title>
<a xlink:href="../examples/org/sdmlib/examples/patternrewriteops/Person.java" xlink:title="&lt;TABLE&gt;">
<polygon fill="none" stroke="black" points="252,-230 252,-247 309,-247 309,-230 252,-230"/>
<text text-anchor="start" x="255.5" y="-236.5" font-family="Times New Roman,serif" font-size="10.00"> </text>
<text text-anchor="start" x="258.5" y="-236.5" font-family="Times New Roman,serif" font-size="10.00">p17 :Person</text>
</a>
</g>
<!-- t2&#45;&#45;p17 -->
<g id="edge25" class="edge"><title>t2&#45;&#45;p17</title>
<path fill="none" stroke="black" d="M333.245,-302.641C321.761,-289.131 305.909,-270.482 294.493,-257.05"/>
<text text-anchor="middle" x="303.582" y="-258.719" font-family="Times New Roman,serif" font-size="10.00">passengers</text>
<text text-anchor="middle" x="324.155" y="-295.973" font-family="Times New Roman,serif" font-size="10.00">train</text>
</g>
<!-- p18 -->
<g id="node17" class="node"><title>p18</title>
<a xlink:href="../examples/org/sdmlib/examples/patternrewriteops/Person.java" xlink:title="&lt;TABLE&gt;">
<polygon fill="none" stroke="black" points="343,-230 343,-247 400,-247 400,-230 343,-230"/>
<text text-anchor="start" x="346.5" y="-236.5" font-family="Times New Roman,serif" font-size="10.00"> </text>
<text text-anchor="start" x="349.5" y="-236.5" font-family="Times New Roman,serif" font-size="10.00">p18 :Person</text>
</a>
</g>
<!-- t2&#45;&#45;p18 -->
<g id="edge27" class="edge"><title>t2&#45;&#45;p18</title>
<path fill="none" stroke="black" d="M352.991,-302.641C356.875,-289.131 362.237,-270.482 366.098,-257.05"/>
<text text-anchor="middle" x="367.656" y="-264.428" font-family="Times New Roman,serif" font-size="10.00">passengers</text>
<text text-anchor="middle" x="351.433" y="-290.263" font-family="Times New Roman,serif" font-size="10.00">train</text>
</g>
<!-- t2&#45;&#45;p10 -->
<g id="edge29" class="edge"><title>t2&#45;&#45;p10</title>
<path fill="none" stroke="black" d="M372.456,-302.838C391.69,-289.34 418.36,-270.624 437.585,-257.134"/>
<text text-anchor="middle" x="432.594" y="-263.299" font-family="Times New Roman,serif" font-size="10.00">passengers</text>
<text text-anchor="middle" x="377.447" y="-291.673" font-family="Times New Roman,serif" font-size="10.00">train</text>
</g>
<!-- s11 -->
<g id="node10" class="node"><title>s11</title>
<a xlink:href="../examples/org/sdmlib/examples/patternrewriteops/Station.java" xlink:title="&lt;TABLE&gt;">
<polygon fill="none" stroke="black" points="163,-153 163,-170 220,-170 220,-153 163,-153"/>
<text text-anchor="start" x="166.5" y="-159.5" font-family="Times New Roman,serif" font-size="10.00"> </text>
<text text-anchor="start" x="169.5" y="-159.5" font-family="Times New Roman,serif" font-size="10.00">s11 :Station</text>
</a>
</g>
<!-- s4&#45;&#45;s11 -->
<g id="edge31" class="edge"><title>s4&#45;&#45;s11</title>
<path fill="none" stroke="black" d="M191,-220.981C191,-208.794 191,-192.442 191,-180.211"/>
<text text-anchor="middle" x="195.226" y="-186.774" font-family="Times New Roman,serif" font-size="10.00">next</text>
<text text-anchor="middle" x="186.774" y="-209.418" font-family="Times New Roman,serif" font-size="10.00">prev</text>
</g>
<!-- s12 -->
<g id="node11" class="node"><title>s12</title>
<a xlink:href="../examples/org/sdmlib/examples/patternrewriteops/Station.java" xlink:title="&lt;TABLE&gt;">
<polygon fill="none" stroke="black" points="163,-81 163,-98 220,-98 220,-81 163,-81"/>
<text text-anchor="start" x="166.5" y="-87.5" font-family="Times New Roman,serif" font-size="10.00"> </text>
<text text-anchor="start" x="169.5" y="-87.5" font-family="Times New Roman,serif" font-size="10.00">s12 :Station</text>
</a>
</g>
<!-- s11&#45;&#45;s12 -->
<g id="edge33" class="edge"><title>s11&#45;&#45;s12</title>
<path fill="none" stroke="black" d="M191,-143.697C191,-132.846 191,-118.917 191,-108.104"/>
<text text-anchor="middle" x="195.226" y="-114.667" font-family="Times New Roman,serif" font-size="10.00">next</text>
<text text-anchor="middle" x="186.774" y="-132.134" font-family="Times New Roman,serif" font-size="10.00">prev</text>
</g>
<!-- s13 -->
<g id="node12" class="node"><title>s13</title>
<a xlink:href="../examples/org/sdmlib/examples/patternrewriteops/Station.java" xlink:title="&lt;TABLE&gt;">
<polygon fill="none" stroke="black" points="27,-9 27,-26 84,-26 84,-9 27,-9"/>
<text text-anchor="start" x="30.5" y="-15.5" font-family="Times New Roman,serif" font-size="10.00"> </text>
<text text-anchor="start" x="33.5" y="-15.5" font-family="Times New Roman,serif" font-size="10.00">s13 :Station</text>
</a>
</g>
<!-- s12&#45;&#45;s13 -->
<g id="edge35" class="edge"><title>s12&#45;&#45;s13</title>
<path fill="none" stroke="black" d="M157.731,-71.8761C136.656,-61.0287 109.497,-47.0498 88.3972,-36.1898"/>
<text text-anchor="middle" x="98.3896" y="-34.0798" font-family="Times New Roman,serif" font-size="10.00">next</text>
<text text-anchor="middle" x="147.738" y="-68.9861" font-family="Times New Roman,serif" font-size="10.00">prev</text>
</g>
<!-- p14 -->
<g id="node13" class="node"><title>p14</title>
<a xlink:href="../examples/org/sdmlib/examples/patternrewriteops/Person.java" xlink:title="&lt;TABLE&gt;">
<polygon fill="none" stroke="black" points="118,-9 118,-26 175,-26 175,-9 118,-9"/>
<text text-anchor="start" x="121.5" y="-15.5" font-family="Times New Roman,serif" font-size="10.00"> </text>
<text text-anchor="start" x="124.5" y="-15.5" font-family="Times New Roman,serif" font-size="10.00">p14 :Person</text>
</a>
</g>
<!-- s12&#45;&#45;p14 -->
<g id="edge37" class="edge"><title>s12&#45;&#45;p14</title>
<path fill="none" stroke="black" d="M179.876,-71.6966C172.901,-60.8463 163.946,-46.9167 156.996,-36.1043"/>
<text text-anchor="middle" x="165.452" y="-38.9427" font-family="Times New Roman,serif" font-size="10.00">people</text>
<text text-anchor="middle" x="171.42" y="-63.8583" font-family="Times New Roman,serif" font-size="10.00">station</text>
</g>
<!-- p15 -->
<g id="node14" class="node"><title>p15</title>
<a xlink:href="../examples/org/sdmlib/examples/patternrewriteops/Person.java" xlink:title="&lt;TABLE&gt;">
<polygon fill="none" stroke="black" points="209,-9 209,-26 266,-26 266,-9 209,-9"/>
<text text-anchor="start" x="212.5" y="-15.5" font-family="Times New Roman,serif" font-size="10.00"> </text>
<text text-anchor="start" x="215.5" y="-15.5" font-family="Times New Roman,serif" font-size="10.00">p15 :Person</text>
</a>
</g>
<!-- s12&#45;&#45;p15 -->
<g id="edge39" class="edge"><title>s12&#45;&#45;p15</title>
<path fill="none" stroke="black" d="M202.371,-71.6966C209.501,-60.8463 218.655,-46.9167 225.76,-36.1043"/>
<text text-anchor="middle" x="224.315" y="-43.4993" font-family="Times New Roman,serif" font-size="10.00">people</text>
<text text-anchor="middle" x="203.816" y="-59.3016" font-family="Times New Roman,serif" font-size="10.00">station</text>
</g>
<!-- s16 -->
<g id="node15" class="node"><title>s16</title>
<a xlink:href="../examples/org/sdmlib/examples/patternrewriteops/SignalFlag.java" xlink:title="&lt;TABLE&gt;">
<polygon fill="none" stroke="black" points="300,-9 300,-26 371,-26 371,-9 300,-9"/>
<text text-anchor="start" x="303.5" y="-15.5" font-family="Times New Roman,serif" font-size="10.00"> </text>
<text text-anchor="start" x="306.5" y="-15.5" font-family="Times New Roman,serif" font-size="10.00">s16 :SignalFlag</text>
</a>
</g>
<!-- s12&#45;&#45;s16 -->
<g id="edge41" class="edge"><title>s12&#45;&#45;s16</title>
<path fill="none" stroke="black" d="M226.226,-71.8761C248.541,-61.0287 277.298,-47.0498 299.638,-36.1898"/>
<text text-anchor="middle" x="293.335" y="-41.453" font-family="Times New Roman,serif" font-size="10.00">flag</text>
<text text-anchor="middle" x="232.53" y="-61.6129" font-family="Times New Roman,serif" font-size="10.00">station</text>
</g>
</g>
</svg>
