<?xml version="1.0" encoding="UTF-8" standalone="no"?>
<!DOCTYPE svg PUBLIC "-//W3C//DTD SVG 1.1//EN"
 "http://www.w3.org/Graphics/SVG/1.1/DTD/svg11.dtd">
<!-- Generated by graphviz version 2.28.0 (20110507.0327)
 -->
<!-- Title: ObjectDiagram Pages: 1 -->
<svg width="126pt" height="250pt"
 viewBox="0.00 0.00 126.00 250.00" xmlns="http://www.w3.org/2000/svg" xmlns:xlink="http://www.w3.org/1999/xlink">
<g id="graph1" class="graph" transform="scale(1 1) rotate(0) translate(4 246)">
<title>ObjectDiagram</title>
<polygon fill="white" stroke="white" points="-4,5 -4,-246 123,-246 123,5 -4,5"/>
<!-- g1 -->
<g id="node1" class="node"><title>g1</title>
<polygon fill="deepskyblue" stroke="deepskyblue" points="18.5,-186.5 18.5,-237.5 99.5,-237.5 99.5,-186.5 18.5,-186.5"/>
<text text-anchor="start" x="71" y="-227.5" font-family="Arial" font-size="10.00">«bound»</text>
<polygon fill="none" stroke="black" points="19,-206 19,-222 100,-222 100,-206 19,-206"/>
<text text-anchor="start" x="22.5" y="-212" font-family="Arial" font-size="10.00"> </text>
<text text-anchor="start" x="26.5" y="-212" font-family="Arial" font-size="10.00"> g1 :GenericGraphPO </text>
<polygon fill="none" stroke="black" points="19,-186 19,-206 100,-206 100,-186 19,-186"/>
<text text-anchor="start" x="56" y="-194" font-family="Arial" font-size="10.00"> &#160;</text>
</g>
<!-- g2 -->
<g id="node2" class="node"><title>g2</title>
<polygon fill="deepskyblue" stroke="deepskyblue" points="8,-76.5 8,-141.5 110,-141.5 110,-76.5 8,-76.5"/>
<polygon fill="none" stroke="black" points="8,-124 8,-141 110,-141 110,-124 8,-124"/>
<text text-anchor="start" x="12.5" y="-130.5" font-family="Arial" font-size="10.00"> </text>
<text text-anchor="start" x="16.5" y="-130.5" font-family="Arial" font-size="10.00"> g2 :GenericLinkPO </text>
<polygon fill="none" stroke="black" points="8,-76 8,-124 110,-124 110,-76 8,-76"/>
<text text-anchor="start" x="13.5" y="-112" font-family="Arial" font-size="10.00"> tgtLabel == &quot;graph&quot; </text>
<text text-anchor="start" x="13.5" y="-98" font-family="Arial" font-size="10.00" fill="green"> tgtLabel := &quot;parent&quot; </text>
<text text-anchor="start" x="18" y="-84" font-family="Arial" font-size="10.00" fill="green"> srcLabel := &quot;gcs&quot; </text>
</g>
<!-- g1&#45;&#45;g2 -->
<g id="edge4" class="edge"><title>g1&#45;&#45;g2</title>
<path fill="none" stroke="black" d="M59,-182.328C59,-170.897 59,-157.618 59,-145.582"/>
<text text-anchor="middle" x="63.2262" y="-152.145" font-family="Arial" font-size="10.00">links</text>
</g>
<!-- allMatches_g2 -->
<g id="node3" class="node"><title>allMatches_g2</title>
<text text-anchor="middle" x="59" y="-15.5" font-family="Arial" font-size="10.00">allMatches</text>
</g>
<!-- g2&#45;&#45;allMatches_g2 -->
<g id="edge2" class="edge"><title>g2&#45;&#45;allMatches_g2</title>
<path fill="none" stroke="black" stroke-dasharray="1,5" d="M59,-72.3131C59,-59.9329 59,-46.6046 59,-36.3714"/>
</g>
</g>
</svg>
