<?xml version="1.0" encoding="UTF-8" standalone="no"?>
<!DOCTYPE svg PUBLIC "-//W3C//DTD SVG 1.1//EN"
 "http://www.w3.org/Graphics/SVG/1.1/DTD/svg11.dtd">
<!-- Generated by graphviz version 2.28.0 (20110507.0327)
 -->
<!-- Title: ObjectDiagram Pages: 1 -->
<svg width="134pt" height="264pt"
 viewBox="0.00 0.00 134.00 264.00" xmlns="http://www.w3.org/2000/svg" xmlns:xlink="http://www.w3.org/1999/xlink">
<g id="graph1" class="graph" transform="scale(1 1) rotate(0) translate(4 260)">
<title>ObjectDiagram</title>
<polygon fill="white" stroke="white" points="-4,5 -4,-260 131,-260 131,5 -4,5"/>
<!-- g3 -->
<g id="node1" class="node"><title>g3</title>
<polygon fill="deepskyblue" stroke="deepskyblue" points="9,-200.5 9,-251.5 117,-251.5 117,-200.5 9,-200.5"/>
<text text-anchor="start" x="78" y="-241.5" font-family="Arial" font-size="10.00">«bound»</text>
<polygon fill="none" stroke="black" points="9,-220 9,-236 117,-236 117,-220 9,-220"/>
<text text-anchor="start" x="12.5" y="-226" font-family="Arial" font-size="10.00"> </text>
<text text-anchor="start" x="16.5" y="-226" font-family="Arial" font-size="10.00"> g3 :GenericGraphPO </text>
<polygon fill="none" stroke="black" points="9,-200 9,-220 117,-220 117,-200 9,-200"/>
<text text-anchor="start" x="59.5" y="-208" font-family="Arial" font-size="10.00"> &#160;</text>
</g>
<!-- g4 -->
<g id="node2" class="node"><title>g4</title>
<polygon fill="deepskyblue" stroke="deepskyblue" points="7.5,-76.5 7.5,-155.5 118.5,-155.5 118.5,-76.5 7.5,-76.5"/>
<polygon fill="none" stroke="black" points="8,-138 8,-155 119,-155 119,-138 8,-138"/>
<text text-anchor="start" x="17" y="-144.5" font-family="Arial" font-size="10.00"> </text>
<text text-anchor="start" x="21" y="-144.5" font-family="Arial" font-size="10.00"> g4 :GenericLinkPO </text>
<polygon fill="none" stroke="black" points="8,-76 8,-138 119,-138 119,-76 8,-76"/>
<text text-anchor="start" x="16.5" y="-126" font-family="Arial" font-size="10.00"> tgtLabel == &quot;parent&quot; </text>
<text text-anchor="start" x="21" y="-112" font-family="Arial" font-size="10.00"> srcLabel == &quot;gcs&quot; </text>
<text text-anchor="start" x="19.5" y="-98" font-family="Arial" font-size="10.00" fill="green"> tgtLabel := &quot;graph&quot; </text>
<text text-anchor="start" x="13.5" y="-84" font-family="Arial" font-size="10.00" fill="green"> srcLabel := &quot;persons&quot; </text>
</g>
<!-- g3&#45;&#45;g4 -->
<g id="edge4" class="edge"><title>g3&#45;&#45;g4</title>
<path fill="none" stroke="black" d="M63,-196.342C63,-185.093 63,-171.947 63,-159.629"/>
<text text-anchor="middle" x="67.2262" y="-166.192" font-family="Arial" font-size="10.00">links</text>
</g>
<!-- allMatches_g4 -->
<g id="node3" class="node"><title>allMatches_g4</title>
<text text-anchor="middle" x="63" y="-15.5" font-family="Arial" font-size="10.00">allMatches</text>
</g>
<!-- g4&#45;&#45;allMatches_g4 -->
<g id="edge2" class="edge"><title>g4&#45;&#45;allMatches_g4</title>
<path fill="none" stroke="black" stroke-dasharray="1,5" d="M63,-72.3339C63,-59.5143 63,-46.1808 63,-36.0523"/>
</g>
</g>
</svg>
