<?xml version="1.0" encoding="UTF-8" standalone="no"?>
<!DOCTYPE svg PUBLIC "-//W3C//DTD SVG 1.1//EN"
 "http://www.w3.org/Graphics/SVG/1.1/DTD/svg11.dtd">
<!-- Generated by graphviz version 2.28.0 (20110507.0327)
 -->
<!-- Title: ClassDiagram Pages: 1 -->
<svg width="269pt" height="292pt"
 viewBox="0.00 0.00 268.82 292.00" xmlns="http://www.w3.org/2000/svg" xmlns:xlink="http://www.w3.org/1999/xlink">
<g id="graph1" class="graph" transform="scale(1 1) rotate(0) translate(4 288)">
<title>ClassDiagram</title>
<polygon fill="white" stroke="white" points="-4,5 -4,-288 265.815,-288 265.815,5 -4,5"/>
<!-- _GraphComponent -->
<g id="node1" class="node"><title>_GraphComponent</title>
<a xlink:href="../src/GraphComponent.java" xlink:title="&lt;TABLE&gt;">
<polygon fill="none" stroke="black" points="8,-160 8,-177 86,-177 86,-160 8,-160"/>
<text text-anchor="start" x="11.5" y="-166.5" font-family="Times New Roman,serif" font-size="10.00">GraphComponent</text>
</a>
<polygon fill="none" stroke="black" points="8,-140 8,-160 86,-160 86,-140 8,-140"/>
<text text-anchor="start" x="13" y="-148" font-family="Times New Roman,serif" font-size="10.00">text :String</text>
<polygon fill="none" stroke="black" points="8,-120 8,-140 86,-140 86,-120 8,-120"/>
<text text-anchor="start" x="45.5" y="-128" font-family="Times New Roman,serif" font-size="10.00"> </text>
</g>
<!-- _Graph -->
<g id="node2" class="node"><title>_Graph</title>
<a xlink:href="../src/Graph.java" xlink:title="&lt;TABLE&gt;">
<polygon fill="none" stroke="black" points="106,-262 106,-279 138,-279 138,-262 106,-262"/>
<text text-anchor="start" x="109.5" y="-268.5" font-family="Times New Roman,serif" font-size="10.00">Graph</text>
</a>
<polygon fill="none" stroke="black" points="106,-242 106,-262 138,-262 138,-242 106,-242"/>
<text text-anchor="start" x="120.5" y="-250" font-family="Times New Roman,serif" font-size="10.00"> </text>
<polygon fill="none" stroke="black" points="106,-222 106,-242 138,-242 138,-222 106,-222"/>
<text text-anchor="start" x="120.5" y="-230" font-family="Times New Roman,serif" font-size="10.00"> </text>
</g>
<!-- _Graph&#45;&gt;_GraphComponent -->
<g id="edge2" class="edge"><title>_Graph&#45;&gt;_GraphComponent</title>
<path fill="none" stroke="black" d="M98.2695,-218.359C89.5148,-206.686 79.5973,-193.463 70.8335,-181.778"/>
<text text-anchor="middle" x="79.6523" y="-183.993" font-family="Times New Roman,serif" font-size="10.00">gcs *</text>
<text text-anchor="middle" x="89.4507" y="-211.145" font-family="Times New Roman,serif" font-size="10.00">parent</text>
</g>
<!-- _Person -->
<g id="node3" class="node"><title>_Person</title>
<a xlink:href="../src/Person.java" xlink:title="&lt;TABLE&gt;">
<polygon fill="none" stroke="black" points="148,-58 148,-75 226,-75 226,-58 148,-58"/>
<text text-anchor="start" x="173" y="-64.5" font-family="Times New Roman,serif" font-size="10.00">Person</text>
</a>
<polygon fill="none" stroke="black" points="148,-24 148,-58 226,-58 226,-24 148,-24"/>
<text text-anchor="start" x="153" y="-46" font-family="Times New Roman,serif" font-size="10.00">firstName :String</text>
<text text-anchor="start" x="153" y="-32" font-family="Times New Roman,serif" font-size="10.00">text :String</text>
<polygon fill="none" stroke="black" points="148,-4 148,-24 226,-24 226,-4 148,-4"/>
<text text-anchor="start" x="185.5" y="-12" font-family="Times New Roman,serif" font-size="10.00"> </text>
</g>
<!-- _Graph&#45;&gt;_Person -->
<g id="edge4" class="edge"><title>_Graph&#45;&gt;_Person</title>
<path fill="none" stroke="black" d="M123.246,-218.286C125.144,-190.585 129.932,-149.655 142,-116 146.459,-103.565 153.084,-90.9192 159.889,-79.643"/>
<text text-anchor="middle" x="158.892" y="-87.0931" font-family="Times New Roman,serif" font-size="10.00">persons *</text>
<text text-anchor="middle" x="119.719" y="-206.428" font-family="Times New Roman,serif" font-size="10.00">graph</text>
</g>
<!-- _Relation -->
<g id="node4" class="node"><title>_Relation</title>
<a xlink:href="../src/Relation.java" xlink:title="&lt;TABLE&gt;">
<polygon fill="none" stroke="black" points="159,-160 159,-177 216,-177 216,-160 159,-160"/>
<text text-anchor="start" x="170.5" y="-166.5" font-family="Times New Roman,serif" font-size="10.00">Relation</text>
</a>
<polygon fill="none" stroke="black" points="159,-140 159,-160 216,-160 216,-140 159,-140"/>
<text text-anchor="start" x="164" y="-148" font-family="Times New Roman,serif" font-size="10.00">kind :String</text>
<polygon fill="none" stroke="black" points="159,-120 159,-140 216,-140 216,-120 159,-120"/>
<text text-anchor="start" x="186" y="-128" font-family="Times New Roman,serif" font-size="10.00"> </text>
</g>
<!-- _Graph&#45;&gt;_Relation -->
<g id="edge6" class="edge"><title>_Graph&#45;&gt;_Relation</title>
<path fill="none" stroke="black" d="M142.566,-218.359C150.154,-206.686 158.749,-193.463 166.344,-181.778"/>
<text text-anchor="middle" x="164.948" y="-189.18" font-family="Times New Roman,serif" font-size="10.00">relations *</text>
<text text-anchor="middle" x="143.962" y="-205.957" font-family="Times New Roman,serif" font-size="10.00">graph</text>
</g>
<!-- _Person&#45;&gt;_Person -->
<g id="edge12" class="edge"><title>_Person&#45;&gt;_Person</title>
<path fill="none" stroke="black" d="M234.035,-59.7049C244.43,-57.8535 252,-51.2852 252,-40 252,-28.7148 244.43,-22.1465 234.035,-20.2951"/>
<text text-anchor="middle" x="243.815" y="-15.7089" font-family="Times New Roman,serif" font-size="10.00">knows *</text>
<text text-anchor="middle" x="241.92" y="-51.054" font-family="Times New Roman,serif" font-size="10.00">knows *</text>
</g>
<!-- _Relation&#45;&gt;_Person -->
<g id="edge8" class="edge"><title>_Relation&#45;&gt;_Person</title>
<path fill="none" stroke="black" d="M180.784,-116.475C180.195,-105.009 180.093,-91.9132 180.479,-79.8848"/>
<text text-anchor="middle" x="184.452" y="-86.5618" font-family="Times New Roman,serif" font-size="10.00">src</text>
<text text-anchor="middle" x="176.141" y="-105.118" font-family="Times New Roman,serif" font-size="10.00">outEdges *</text>
</g>
<!-- _Relation&#45;&gt;_Person -->
<g id="edge10" class="edge"><title>_Relation&#45;&gt;_Person</title>
<path fill="none" stroke="black" d="M193.216,-116.475C193.805,-105.009 193.907,-91.9132 193.521,-79.8848"/>
<text text-anchor="middle" x="197.997" y="-86.327" font-family="Times New Roman,serif" font-size="10.00">tgt</text>
<text text-anchor="middle" x="189.415" y="-104.726" font-family="Times New Roman,serif" font-size="10.00">inEdges *</text>
</g>
</g>
</svg>
