<?xml version="1.0" encoding="UTF-8" standalone="no"?>
<!DOCTYPE svg PUBLIC "-//W3C//DTD SVG 1.1//EN"
 "http://www.w3.org/Graphics/SVG/1.1/DTD/svg11.dtd">
<!-- Generated by graphviz version 2.28.0 (20110507.0327)
 -->
<!-- Title: ObjectDiagram Pages: 1 -->
<svg width="234pt" height="246pt"
 viewBox="0.00 0.00 234.00 246.00" xmlns="http://www.w3.org/2000/svg" xmlns:xlink="http://www.w3.org/1999/xlink">
<g id="graph1" class="graph" transform="scale(1 1) rotate(0) translate(4 242)">
<title>ObjectDiagram</title>
<polygon fill="white" stroke="white" points="-4,5 -4,-242 231,-242 231,5 -4,5"/>
<!-- g1 -->
<g id="node1" class="node"><title>g1</title>
<polygon fill="deepskyblue" stroke="deepskyblue" points="59,-182.5 59,-233.5 167,-233.5 167,-182.5 59,-182.5"/>
<text text-anchor="start" x="128" y="-223.5" font-family="Arial" font-size="10.00">«bound»</text>
<polygon fill="none" stroke="black" points="59,-202 59,-218 167,-218 167,-202 59,-202"/>
<text text-anchor="start" x="62.5" y="-208" font-family="Arial" font-size="10.00"> </text>
<text text-anchor="start" x="66.5" y="-208" font-family="Arial" font-size="10.00"> g1 :GenericGraphPO </text>
<polygon fill="none" stroke="black" points="59,-182 59,-202 167,-202 167,-182 59,-182"/>
<text text-anchor="start" x="109.5" y="-190" font-family="Arial" font-size="10.00"> &#160;</text>
</g>
<!-- g2 -->
<g id="node2" class="node"><title>g2</title>
<polygon fill="deepskyblue" stroke="deepskyblue" points="8,-100.5 8,-137.5 218,-137.5 218,-100.5 8,-100.5"/>
<polygon fill="none" stroke="black" points="8,-120 8,-137 218,-137 218,-120 8,-120"/>
<text text-anchor="start" x="61" y="-126.5" font-family="Arial" font-size="10.00"> </text>
<text text-anchor="start" x="65" y="-126.5" font-family="Arial" font-size="10.00"> g2 :GenericObjectPO </text>
<polygon fill="none" stroke="black" points="8,-100 8,-120 218,-120 218,-100 8,-100"/>
<text text-anchor="start" x="13.5" y="-108" font-family="Arial" font-size="10.00"> type == &quot;org.sdmlib.examples.m2m.Person&quot; </text>
</g>
<!-- g1&#45;&#45;g2 -->
<g id="edge2" class="edge"><title>g1&#45;&#45;g2</title>
<path fill="none" stroke="black" d="M113,-178.03C113,-166.167 113,-152.675 113,-141.687"/>
<text text-anchor="middle" x="117.226" y="-148.25" font-family="Arial" font-size="10.00">objects</text>
</g>
<!-- g3 -->
<g id="node3" class="node"><title>g3</title>
<polygon fill="deepskyblue" stroke="deepskyblue" points="63.5,-4.5 63.5,-55.5 162.5,-55.5 162.5,-4.5 63.5,-4.5"/>
<polygon fill="none" stroke="black" points="64,-38 64,-55 163,-55 163,-38 64,-38"/>
<text text-anchor="start" x="67.5" y="-44.5" font-family="Arial" font-size="10.00"> </text>
<text text-anchor="start" x="71.5" y="-44.5" font-family="Arial" font-size="10.00"> g3 :GenericAttributePO </text>
<polygon fill="none" stroke="black" points="64,-4 64,-38 163,-38 163,-4 64,-4"/>
<text text-anchor="start" x="74" y="-26" font-family="Arial" font-size="10.00"> name == &quot;firstName&quot; </text>
<text text-anchor="start" x="86" y="-12" font-family="Arial" font-size="10.00" fill="green"> name := &quot;text&quot; </text>
</g>
<!-- g2&#45;&#45;g3 -->
<g id="edge4" class="edge"><title>g2&#45;&#45;g3</title>
<path fill="none" stroke="black" d="M113,-96.4944C113,-85.4243 113,-71.7752 113,-59.8074"/>
<text text-anchor="middle" x="117.226" y="-66.3705" font-family="Arial" font-size="10.00">attrs</text>
</g>
</g>
</svg>
