<?xml version="1.0" encoding="UTF-8" standalone="no"?>
<!DOCTYPE svg PUBLIC "-//W3C//DTD SVG 1.1//EN"
 "http://www.w3.org/Graphics/SVG/1.1/DTD/svg11.dtd">
<!-- Generated by graphviz version 2.28.0 (20110507.0327)
 -->
<!-- Title: ObjectDiagram Pages: 1 -->
<svg width="132pt" height="264pt"
 viewBox="0.00 0.00 132.00 264.00" xmlns="http://www.w3.org/2000/svg" xmlns:xlink="http://www.w3.org/1999/xlink">
<g id="graph1" class="graph" transform="scale(1 1) rotate(0) translate(4 260)">
<title>ObjectDiagram</title>
<polygon fill="white" stroke="white" points="-4,5 -4,-260 129,-260 129,5 -4,5"/>
<!-- g1 -->
<g id="node1" class="node"><title>g1</title>
<polygon fill="deepskyblue" stroke="deepskyblue" points="8,-200.5 8,-251.5 116,-251.5 116,-200.5 8,-200.5"/>
<text text-anchor="start" x="77" y="-241.5" font-family="Arial" font-size="10.00">«bound»</text>
<polygon fill="none" stroke="black" points="8,-220 8,-236 116,-236 116,-220 8,-220"/>
<text text-anchor="start" x="11.5" y="-226" font-family="Arial" font-size="10.00"> </text>
<text text-anchor="start" x="15.5" y="-226" font-family="Arial" font-size="10.00"> g1 :GenericGraphPO </text>
<polygon fill="none" stroke="black" points="8,-200 8,-220 116,-220 116,-200 8,-200"/>
<text text-anchor="start" x="58.5" y="-208" font-family="Arial" font-size="10.00"> &#160;</text>
</g>
<!-- g2 -->
<g id="node2" class="node"><title>g2</title>
<polygon fill="deepskyblue" stroke="deepskyblue" points="14.5,-76.5 14.5,-155.5 109.5,-155.5 109.5,-76.5 14.5,-76.5"/>
<polygon fill="none" stroke="black" points="15,-138 15,-155 110,-155 110,-138 15,-138"/>
<text text-anchor="start" x="24.5" y="-144.5" font-family="Arial" font-size="10.00"> </text>
<text text-anchor="start" x="28.5" y="-144.5" font-family="Arial" font-size="10.00"> g2 :GenericLinkPO </text>
<polygon fill="none" stroke="black" points="15,-76 15,-138 110,-138 110,-76 15,-76"/>
<text text-anchor="start" x="24.5" y="-126" font-family="Arial" font-size="10.00"> tgtLabel == &quot;parent&quot; </text>
<text text-anchor="start" x="27.5" y="-112" font-family="Arial" font-size="10.00"> srcLabel == &quot;gcs&quot; </text>
<text text-anchor="start" x="26.5" y="-98" font-family="Arial" font-size="10.00" fill="green"> tgtLabel := &quot;graph&quot; </text>
<text text-anchor="start" x="20.5" y="-84" font-family="Arial" font-size="10.00" fill="green"> srcLabel := &quot;persons&quot; </text>
</g>
<!-- g1&#45;&#45;g2 -->
<g id="edge4" class="edge"><title>g1&#45;&#45;g2</title>
<path fill="none" stroke="black" d="M62,-196.342C62,-185.093 62,-171.947 62,-159.629"/>
<text text-anchor="middle" x="66.2262" y="-166.192" font-family="Arial" font-size="10.00">links</text>
</g>
<!-- allMatches_g2 -->
<g id="node3" class="node"><title>allMatches_g2</title>
<text text-anchor="middle" x="62" y="-15.5" font-family="Arial" font-size="10.00">allMatches</text>
</g>
<!-- g2&#45;&#45;allMatches_g2 -->
<g id="edge2" class="edge"><title>g2&#45;&#45;allMatches_g2</title>
<path fill="none" stroke="black" stroke-dasharray="1,5" d="M62,-72.3339C62,-59.5143 62,-46.1808 62,-36.0523"/>
</g>
</g>
</svg>
