<?xml version="1.0" encoding="UTF-8" standalone="no"?>
<!DOCTYPE svg PUBLIC "-//W3C//DTD SVG 1.1//EN"
 "http://www.w3.org/Graphics/SVG/1.1/DTD/svg11.dtd">
<!-- Generated by graphviz version 2.28.0 (20110507.0327)
 -->
<!-- Title: ObjectDiagram Pages: 1 -->
<svg width="134pt" height="264pt"
 viewBox="0.00 0.00 134.00 264.00" xmlns="http://www.w3.org/2000/svg" xmlns:xlink="http://www.w3.org/1999/xlink">
<g id="graph1" class="graph" transform="scale(1 1) rotate(0) translate(4 260)">
<title>ObjectDiagram</title>
<polygon fill="white" stroke="white" points="-4,5 -4,-260 131,-260 131,5 -4,5"/>
<!-- g1 -->
<g id="node1" class="node"><title>g1</title>
<polygon fill="deepskyblue" stroke="deepskyblue" points="17.5,-200.5 17.5,-251.5 108.5,-251.5 108.5,-200.5 17.5,-200.5"/>
<text text-anchor="start" x="75" y="-241.5" font-family="Arial" font-size="10.00">«bound»</text>
<polygon fill="none" stroke="black" points="18,-220 18,-236 109,-236 109,-220 18,-220"/>
<text text-anchor="start" x="21.5" y="-226" font-family="Arial" font-size="10.00"> </text>
<text text-anchor="start" x="25.5" y="-226" font-family="Arial" font-size="10.00"> g1 :GenericGraphPO </text>
<polygon fill="none" stroke="black" points="18,-200 18,-220 109,-220 109,-200 18,-200"/>
<text text-anchor="start" x="60" y="-208" font-family="Arial" font-size="10.00"> &#160;</text>
</g>
<!-- g2 -->
<g id="node2" class="node"><title>g2</title>
<polygon fill="deepskyblue" stroke="deepskyblue" points="7.5,-76.5 7.5,-155.5 118.5,-155.5 118.5,-76.5 7.5,-76.5"/>
<polygon fill="none" stroke="black" points="8,-138 8,-155 119,-155 119,-138 8,-138"/>
<text text-anchor="start" x="17" y="-144.5" font-family="Arial" font-size="10.00"> </text>
<text text-anchor="start" x="21" y="-144.5" font-family="Arial" font-size="10.00"> g2 :GenericLinkPO </text>
<polygon fill="none" stroke="black" points="8,-76 8,-138 119,-138 119,-76 8,-76"/>
<text text-anchor="start" x="15.5" y="-126" font-family="Arial" font-size="10.00"> srcLabel == &quot;parent&quot; </text>
<text text-anchor="start" x="22.5" y="-112" font-family="Arial" font-size="10.00"> tgtLabel == &quot;gcs&quot; </text>
<text text-anchor="start" x="18.5" y="-98" font-family="Arial" font-size="10.00" fill="green"> srcLabel := &quot;graph&quot; </text>
<text text-anchor="start" x="13.5" y="-84" font-family="Arial" font-size="10.00" fill="green"> tgtLabel := &quot;relations&quot; </text>
</g>
<!-- g1&#45;&#45;g2 -->
<g id="edge4" class="edge"><title>g1&#45;&#45;g2</title>
<path fill="none" stroke="black" d="M63,-196.342C63,-185.093 63,-171.947 63,-159.629"/>
<text text-anchor="middle" x="67.2262" y="-166.192" font-family="Arial" font-size="10.00">links</text>
</g>
<!-- allMatches_g2 -->
<g id="node3" class="node"><title>allMatches_g2</title>
<text text-anchor="middle" x="63" y="-15.5" font-family="Arial" font-size="10.00">allMatches</text>
</g>
<!-- g2&#45;&#45;allMatches_g2 -->
<g id="edge2" class="edge"><title>g2&#45;&#45;allMatches_g2</title>
<path fill="none" stroke="black" stroke-dasharray="1,5" d="M63,-72.3339C63,-59.5143 63,-46.1808 63,-36.0523"/>
</g>
</g>
</svg>
