<?xml version="1.0" encoding="UTF-8" standalone="no"?>
<!DOCTYPE svg PUBLIC "-//W3C//DTD SVG 1.1//EN"
 "http://www.w3.org/Graphics/SVG/1.1/DTD/svg11.dtd">
<!-- Generated by graphviz version 2.28.0 (20110507.0327)
 -->
<!-- Title: ObjectDiagram Pages: 1 -->
<svg width="268pt" height="246pt"
 viewBox="0.00 0.00 268.00 246.00" xmlns="http://www.w3.org/2000/svg" xmlns:xlink="http://www.w3.org/1999/xlink">
<g id="graph1" class="graph" transform="scale(1 1) rotate(0) translate(4 242)">
<title>ObjectDiagram</title>
<polygon fill="white" stroke="white" points="-4,5 -4,-242 265,-242 265,5 -4,5"/>
<!-- g4 -->
<g id="node1" class="node"><title>g4</title>
<polygon fill="deepskyblue" stroke="deepskyblue" points="76,-182.5 76,-233.5 184,-233.5 184,-182.5 76,-182.5"/>
<text text-anchor="start" x="145" y="-223.5" font-family="Arial" font-size="10.00">«bound»</text>
<polygon fill="none" stroke="black" points="76,-202 76,-218 184,-218 184,-202 76,-202"/>
<text text-anchor="start" x="79.5" y="-208" font-family="Arial" font-size="10.00"> </text>
<text text-anchor="start" x="83.5" y="-208" font-family="Arial" font-size="10.00"> g4 :GenericGraphPO </text>
<polygon fill="none" stroke="black" points="76,-182 76,-202 184,-202 184,-182 76,-182"/>
<text text-anchor="start" x="126.5" y="-190" font-family="Arial" font-size="10.00"> &#160;</text>
</g>
<!-- g5 -->
<g id="node2" class="node"><title>g5</title>
<polygon fill="deepskyblue" stroke="deepskyblue" points="8,-100.5 8,-137.5 252,-137.5 252,-100.5 8,-100.5"/>
<polygon fill="none" stroke="black" points="8,-120 8,-137 252,-137 252,-120 8,-120"/>
<text text-anchor="start" x="78" y="-126.5" font-family="Arial" font-size="10.00"> </text>
<text text-anchor="start" x="82" y="-126.5" font-family="Arial" font-size="10.00"> g5 :GenericObjectPO </text>
<polygon fill="none" stroke="black" points="8,-100 8,-120 252,-120 252,-100 8,-100"/>
<text text-anchor="start" x="13.5" y="-108" font-family="Arial" font-size="10.00"> type == &quot;org.sdmlib.examples.m2m.model.Relation&quot; </text>
</g>
<!-- g4&#45;&#45;g5 -->
<g id="edge2" class="edge"><title>g4&#45;&#45;g5</title>
<path fill="none" stroke="black" d="M130,-178.03C130,-166.167 130,-152.675 130,-141.687"/>
<text text-anchor="middle" x="134.226" y="-148.25" font-family="Arial" font-size="10.00">objects</text>
</g>
<!-- g6 -->
<g id="node3" class="node"><title>g6</title>
<polygon fill="deepskyblue" stroke="deepskyblue" points="70.5,-4.5 70.5,-55.5 189.5,-55.5 189.5,-4.5 70.5,-4.5"/>
<polygon fill="none" stroke="black" points="71,-38 71,-55 190,-55 190,-38 71,-38"/>
<text text-anchor="start" x="74.5" y="-44.5" font-family="Arial" font-size="10.00"> </text>
<text text-anchor="start" x="78.5" y="-44.5" font-family="Arial" font-size="10.00"> g6 :GenericAttributePO </text>
<polygon fill="none" stroke="black" points="71,-4 71,-38 190,-38 190,-4 71,-4"/>
<text text-anchor="start" x="94" y="-26" font-family="Arial" font-size="10.00"> name == &quot;text&quot; </text>
<text text-anchor="start" x="95" y="-12" font-family="Arial" font-size="10.00" fill="green"> name := &quot;kind&quot; </text>
</g>
<!-- g5&#45;&#45;g6 -->
<g id="edge4" class="edge"><title>g5&#45;&#45;g6</title>
<path fill="none" stroke="black" d="M130,-96.4944C130,-85.4243 130,-71.7752 130,-59.8074"/>
<text text-anchor="middle" x="134.226" y="-66.3705" font-family="Arial" font-size="10.00">attrs</text>
</g>
</g>
</svg>
