<?xml version="1.0" encoding="UTF-8" standalone="no"?>
<!DOCTYPE svg PUBLIC "-//W3C//DTD SVG 1.1//EN"
 "http://www.w3.org/Graphics/SVG/1.1/DTD/svg11.dtd">
<!-- Generated by graphviz version 2.28.0 (20110507.0327)
 -->
<!-- Title: ClassDiagram Pages: 1 -->
<svg width="111pt" height="176pt"
 viewBox="0.00 0.00 111.34 176.00" xmlns="http://www.w3.org/2000/svg" xmlns:xlink="http://www.w3.org/1999/xlink">
<g id="graph1" class="graph" transform="scale(1 1) rotate(0) translate(4 172)">
<title>ClassDiagram</title>
<polygon fill="white" stroke="white" points="-4,5 -4,-172 108.339,-172 108.339,5 -4,5"/>
<!-- _Graph -->
<g id="node1" class="node"><title>_Graph</title>
<a xlink:href="../examples/org/sdmlib/examples/m2m/Graph.java" xlink:title="&lt;TABLE&gt;">
<polygon fill="none" stroke="black" points="21,-146 21,-163 55,-163 55,-146 21,-146"/>
<text text-anchor="start" x="24.5" y="-152.5" font-family="Arial" font-size="10.00">Graph</text>
</a>
<polygon fill="none" stroke="black" points="21,-126 21,-146 55,-146 55,-126 21,-126"/>
<text text-anchor="start" x="36" y="-134" font-family="Arial" font-size="10.00"> </text>
<polygon fill="none" stroke="black" points="21,-106 21,-126 55,-126 55,-106 21,-106"/>
<text text-anchor="start" x="36" y="-114" font-family="Arial" font-size="10.00"> </text>
</g>
<!-- _Person -->
<g id="node2" class="node"><title>_Person</title>
<a xlink:href="../examples/org/sdmlib/examples/m2m/Person.java" xlink:title="&lt;TABLE&gt;">
<polygon fill="none" stroke="black" points="8,-44 8,-61 68,-61 68,-44 8,-44"/>
<text text-anchor="start" x="22.5" y="-50.5" font-family="Arial" font-size="10.00">Person</text>
</a>
<polygon fill="none" stroke="black" points="8,-24 8,-44 68,-44 68,-24 8,-24"/>
<text text-anchor="start" x="13" y="-32" font-family="Arial" font-size="10.00">text :String</text>
<polygon fill="none" stroke="black" points="8,-4 8,-24 68,-24 68,-4 8,-4"/>
<text text-anchor="start" x="36" y="-12" font-family="Arial" font-size="10.00"> </text>
</g>
<!-- _Graph&#45;&gt;_Person -->
<g id="edge2" class="edge"><title>_Graph&#45;&gt;_Person</title>
<path fill="none" stroke="black" d="M38,-102.359C38,-90.6864 38,-77.4631 38,-65.778"/>
<text text-anchor="middle" x="42.2262" y="-72.3411" font-family="Arial" font-size="10.00">persons *</text>
<text text-anchor="middle" x="33.7738" y="-90.7963" font-family="Arial" font-size="10.00">graph</text>
</g>
<!-- _Person&#45;&gt;_Person -->
<g id="edge4" class="edge"><title>_Person&#45;&gt;_Person</title>
<path fill="none" stroke="black" d="M76.214,-51.9569C86.3346,-50.8737 94,-44.5547 94,-33 94,-21.4453 86.3346,-15.1263 76.214,-14.0431"/>
<text text-anchor="middle" x="85.8389" y="-8.83" font-family="Arial" font-size="10.00">knows *</text>
<text text-anchor="middle" x="84.4791" y="-43.8277" font-family="Arial" font-size="10.00">knows *</text>
</g>
</g>
</svg>
