<?xml version="1.0" encoding="UTF-8" standalone="no"?>
<!DOCTYPE svg PUBLIC "-//W3C//DTD SVG 1.1//EN"
 "http://www.w3.org/Graphics/SVG/1.1/DTD/svg11.dtd">
<!-- Generated by graphviz version 2.28.0 (20110507.0327)
 -->
<!-- Title: ObjectDiagram Pages: 1 -->
<svg width="118pt" height="264pt"
 viewBox="0.00 0.00 118.00 264.00" xmlns="http://www.w3.org/2000/svg" xmlns:xlink="http://www.w3.org/1999/xlink">
<g id="graph1" class="graph" transform="scale(1 1) rotate(0) translate(4 260)">
<title>ObjectDiagram</title>
<polygon fill="white" stroke="white" points="-4,5 -4,-260 115,-260 115,5 -4,5"/>
<!-- g1 -->
<g id="node1" class="node"><title>g1</title>
<polygon fill="deepskyblue" stroke="deepskyblue" points="9.5,-200.5 9.5,-251.5 100.5,-251.5 100.5,-200.5 9.5,-200.5"/>
<text text-anchor="start" x="67" y="-241.5" font-family="Arial" font-size="10.00">«bound»</text>
<polygon fill="none" stroke="black" points="10,-220 10,-236 101,-236 101,-220 10,-220"/>
<text text-anchor="start" x="13.5" y="-226" font-family="Arial" font-size="10.00"> </text>
<text text-anchor="start" x="17.5" y="-226" font-family="Arial" font-size="10.00"> g1 :GenericGraphPO </text>
<polygon fill="none" stroke="black" points="10,-200 10,-220 101,-220 101,-200 10,-200"/>
<text text-anchor="start" x="52" y="-208" font-family="Arial" font-size="10.00"> &#160;</text>
</g>
<!-- g2 -->
<g id="node2" class="node"><title>g2</title>
<polygon fill="deepskyblue" stroke="deepskyblue" points="7.5,-76.5 7.5,-155.5 102.5,-155.5 102.5,-76.5 7.5,-76.5"/>
<polygon fill="none" stroke="black" points="8,-138 8,-155 103,-155 103,-138 8,-138"/>
<text text-anchor="start" x="17.5" y="-144.5" font-family="Arial" font-size="10.00"> </text>
<text text-anchor="start" x="21.5" y="-144.5" font-family="Arial" font-size="10.00"> g2 :GenericLinkPO </text>
<polygon fill="none" stroke="black" points="8,-76 8,-138 103,-138 103,-76 8,-76"/>
<text text-anchor="start" x="17.5" y="-126" font-family="Arial" font-size="10.00"> tgtLabel == &quot;parent&quot; </text>
<text text-anchor="start" x="20.5" y="-112" font-family="Arial" font-size="10.00"> srcLabel == &quot;gcs&quot; </text>
<text text-anchor="start" x="19.5" y="-98" font-family="Arial" font-size="10.00" fill="green"> tgtLabel := &quot;graph&quot; </text>
<text text-anchor="start" x="13.5" y="-84" font-family="Arial" font-size="10.00" fill="green"> srcLabel := &quot;persons&quot; </text>
</g>
<!-- g1&#45;&#45;g2 -->
<g id="edge4" class="edge"><title>g1&#45;&#45;g2</title>
<path fill="none" stroke="black" d="M55,-196.342C55,-185.093 55,-171.947 55,-159.629"/>
<text text-anchor="middle" x="59.2262" y="-166.192" font-family="Arial" font-size="10.00">links</text>
</g>
<!-- allMatches_g2 -->
<g id="node3" class="node"><title>allMatches_g2</title>
<text text-anchor="middle" x="55" y="-15.5" font-family="Arial" font-size="10.00">allMatches</text>
</g>
<!-- g2&#45;&#45;allMatches_g2 -->
<g id="edge2" class="edge"><title>g2&#45;&#45;allMatches_g2</title>
<path fill="none" stroke="black" stroke-dasharray="1,5" d="M55,-72.3339C55,-59.5143 55,-46.1808 55,-36.0523"/>
</g>
</g>
</svg>
