<?xml version="1.0" encoding="UTF-8" standalone="no"?>
<!DOCTYPE svg PUBLIC "-//W3C//DTD SVG 1.1//EN"
 "http://www.w3.org/Graphics/SVG/1.1/DTD/svg11.dtd">
<!-- Generated by graphviz version 2.28.0 (20110507.0327)
 -->
<!-- Title: ObjectDiagram Pages: 1 -->
<svg width="361pt" height="632pt"
 viewBox="0.00 0.00 361.00 632.00" xmlns="http://www.w3.org/2000/svg" xmlns:xlink="http://www.w3.org/1999/xlink">
<g id="graph1" class="graph" transform="scale(1 1) rotate(0) translate(4 628)">
<title>ObjectDiagram</title>
<polygon fill="white" stroke="white" points="-4,5 -4,-628 358,-628 358,5 -4,5"/>
<!-- p79 -->
<g id="node1" class="node"><title>p79</title>
<a xlink:href="../examples/org/sdmlib/examples/m2m/model/Person.java" xlink:title="&lt;TABLE&gt;">
<polygon fill="none" stroke="black" points="85,-602 85,-619 157,-619 157,-602 85,-602"/>
<text text-anchor="start" x="92.5" y="-608.5" font-family="Arial" font-size="10.00"> </text>
<text text-anchor="start" x="96.5" y="-608.5" font-family="Arial" font-size="10.00">p79 :Person</text>
</a>
<polygon fill="none" stroke="black" points="85,-554 85,-602 157,-602 157,-554 85,-554"/>
<text text-anchor="start" x="90" y="-590" font-family="Arial" font-size="10.00">text = &quot;&quot;</text>
<text text-anchor="start" x="90" y="-576" font-family="Arial" font-size="10.00">parent = &quot;&quot;</text>
<text text-anchor="start" x="90" y="-562" font-family="Arial" font-size="10.00">firstName = &quot;&quot;</text>
</g>
<!-- r80 -->
<g id="node2" class="node"><title>r80</title>
<a xlink:href="../examples/org/sdmlib/examples/m2m/model/Relation.java" xlink:title="&lt;TABLE&gt;">
<polygon fill="none" stroke="black" points="8,-492 8,-509 85,-509 85,-492 8,-492"/>
<text text-anchor="start" x="17" y="-498.5" font-family="Arial" font-size="10.00"> </text>
<text text-anchor="start" x="21" y="-498.5" font-family="Arial" font-size="10.00">r80 :Relation</text>
</a>
<polygon fill="none" stroke="black" points="8,-444 8,-492 85,-492 85,-444 8,-444"/>
<text text-anchor="start" x="13" y="-480" font-family="Arial" font-size="10.00">text = &quot;&quot;</text>
<text text-anchor="start" x="13" y="-466" font-family="Arial" font-size="10.00">parent = &quot;&quot;</text>
<text text-anchor="start" x="13" y="-452" font-family="Arial" font-size="10.00">kind = &quot;knows&quot;</text>
</g>
<!-- p79&#45;&#45;r80 -->
<g id="edge2" class="edge"><title>p79&#45;&#45;r80</title>
<path fill="none" stroke="black" d="M96.2343,-550.337C88.0421,-538.541 78.9299,-525.419 70.7397,-513.625"/>
<text text-anchor="middle" x="79.3805" y="-516.159" font-family="Arial" font-size="10.00">outEdges</text>
<text text-anchor="middle" x="87.5935" y="-542.804" font-family="Arial" font-size="10.00">src</text>
</g>
<!-- r84 -->
<g id="node6" class="node"><title>r84</title>
<a xlink:href="../examples/org/sdmlib/examples/m2m/model/Relation.java" xlink:title="&lt;TABLE&gt;">
<polygon fill="none" stroke="black" points="46,-52 46,-69 123,-69 123,-52 46,-52"/>
<text text-anchor="start" x="55" y="-58.5" font-family="Arial" font-size="10.00"> </text>
<text text-anchor="start" x="59" y="-58.5" font-family="Arial" font-size="10.00">r84 :Relation</text>
</a>
<polygon fill="none" stroke="black" points="46,-4 46,-52 123,-52 123,-4 46,-4"/>
<text text-anchor="start" x="51" y="-40" font-family="Arial" font-size="10.00">text = &quot;&quot;</text>
<text text-anchor="start" x="51" y="-26" font-family="Arial" font-size="10.00">parent = &quot;&quot;</text>
<text text-anchor="start" x="51" y="-12" font-family="Arial" font-size="10.00">kind = &quot;knows&quot;</text>
</g>
<!-- p79&#45;&#45;r84 -->
<g id="edge4" class="edge"><title>p79&#45;&#45;r84</title>
<path fill="none" stroke="black" d="M121,-550.125C121,-506.921 121,-432.151 121,-368 121,-368 121,-368 121,-256 121,-190.932 104.78,-116.459 93.8182,-73.561"/>
<text text-anchor="middle" x="100.106" y="-78.8368" font-family="Arial" font-size="10.00">outEdges</text>
<text text-anchor="middle" x="116.774" y="-538.562" font-family="Arial" font-size="10.00">src</text>
</g>
<!-- r85 -->
<g id="node7" class="node"><title>r85</title>
<a xlink:href="../examples/org/sdmlib/examples/m2m/model/Relation.java" xlink:title="&lt;TABLE&gt;">
<polygon fill="none" stroke="black" points="158,-492 158,-509 235,-509 235,-492 158,-492"/>
<text text-anchor="start" x="167" y="-498.5" font-family="Arial" font-size="10.00"> </text>
<text text-anchor="start" x="171" y="-498.5" font-family="Arial" font-size="10.00">r85 :Relation</text>
</a>
<polygon fill="none" stroke="black" points="158,-444 158,-492 235,-492 235,-444 158,-444"/>
<text text-anchor="start" x="163" y="-480" font-family="Arial" font-size="10.00">text = &quot;&quot;</text>
<text text-anchor="start" x="163" y="-466" font-family="Arial" font-size="10.00">parent = &quot;&quot;</text>
<text text-anchor="start" x="163" y="-452" font-family="Arial" font-size="10.00">kind = &quot;knows&quot;</text>
</g>
<!-- p79&#45;&#45;r85 -->
<g id="edge6" class="edge"><title>p79&#45;&#45;r85</title>
<path fill="none" stroke="black" d="M145.766,-550.337C153.958,-538.541 163.07,-525.419 171.26,-513.625"/>
<text text-anchor="middle" x="169.562" y="-520.98" font-family="Arial" font-size="10.00">outEdges</text>
<text text-anchor="middle" x="147.464" y="-537.983" font-family="Arial" font-size="10.00">src</text>
</g>
<!-- p81 -->
<g id="node3" class="node"><title>p81</title>
<a xlink:href="../examples/org/sdmlib/examples/m2m/model/Person.java" xlink:title="&lt;TABLE&gt;">
<polygon fill="none" stroke="black" points="10,-382 10,-399 82,-399 82,-382 10,-382"/>
<text text-anchor="start" x="17.5" y="-388.5" font-family="Arial" font-size="10.00"> </text>
<text text-anchor="start" x="21.5" y="-388.5" font-family="Arial" font-size="10.00">p81 :Person</text>
</a>
<polygon fill="none" stroke="black" points="10,-334 10,-382 82,-382 82,-334 10,-334"/>
<text text-anchor="start" x="15" y="-370" font-family="Arial" font-size="10.00">text = &quot;&quot;</text>
<text text-anchor="start" x="15" y="-356" font-family="Arial" font-size="10.00">parent = &quot;&quot;</text>
<text text-anchor="start" x="15" y="-342" font-family="Arial" font-size="10.00">firstName = &quot;&quot;</text>
</g>
<!-- r80&#45;&#45;p81 -->
<g id="edge8" class="edge"><title>r80&#45;&#45;p81</title>
<path fill="none" stroke="black" d="M46,-440.337C46,-428.541 46,-415.419 46,-403.625"/>
<text text-anchor="middle" x="50.2262" y="-410.188" font-family="Arial" font-size="10.00">tgt</text>
<text text-anchor="middle" x="41.7738" y="-428.774" font-family="Arial" font-size="10.00">inEdges</text>
</g>
<!-- r82 -->
<g id="node4" class="node"><title>r82</title>
<a xlink:href="../examples/org/sdmlib/examples/m2m/model/Relation.java" xlink:title="&lt;TABLE&gt;">
<polygon fill="none" stroke="black" points="8,-272 8,-289 85,-289 85,-272 8,-272"/>
<text text-anchor="start" x="17" y="-278.5" font-family="Arial" font-size="10.00"> </text>
<text text-anchor="start" x="21" y="-278.5" font-family="Arial" font-size="10.00">r82 :Relation</text>
</a>
<polygon fill="none" stroke="black" points="8,-224 8,-272 85,-272 85,-224 8,-224"/>
<text text-anchor="start" x="13" y="-260" font-family="Arial" font-size="10.00">text = &quot;&quot;</text>
<text text-anchor="start" x="13" y="-246" font-family="Arial" font-size="10.00">parent = &quot;&quot;</text>
<text text-anchor="start" x="13" y="-232" font-family="Arial" font-size="10.00">kind = &quot;knows&quot;</text>
</g>
<!-- p81&#45;&#45;r82 -->
<g id="edge10" class="edge"><title>p81&#45;&#45;r82</title>
<path fill="none" stroke="black" d="M46,-330.337C46,-318.541 46,-305.419 46,-293.625"/>
<text text-anchor="middle" x="50.2262" y="-300.188" font-family="Arial" font-size="10.00">inEdges</text>
<text text-anchor="middle" x="41.7738" y="-318.774" font-family="Arial" font-size="10.00">tgt</text>
</g>
<!-- p83 -->
<g id="node5" class="node"><title>p83</title>
<a xlink:href="../examples/org/sdmlib/examples/m2m/model/Person.java" xlink:title="&lt;TABLE&gt;">
<polygon fill="none" stroke="black" points="12,-162 12,-179 84,-179 84,-162 12,-162"/>
<text text-anchor="start" x="19.5" y="-168.5" font-family="Arial" font-size="10.00"> </text>
<text text-anchor="start" x="23.5" y="-168.5" font-family="Arial" font-size="10.00">p83 :Person</text>
</a>
<polygon fill="none" stroke="black" points="12,-114 12,-162 84,-162 84,-114 12,-114"/>
<text text-anchor="start" x="17" y="-150" font-family="Arial" font-size="10.00">text = &quot;&quot;</text>
<text text-anchor="start" x="17" y="-136" font-family="Arial" font-size="10.00">parent = &quot;&quot;</text>
<text text-anchor="start" x="17" y="-122" font-family="Arial" font-size="10.00">firstName = &quot;&quot;</text>
</g>
<!-- r82&#45;&#45;p83 -->
<g id="edge12" class="edge"><title>r82&#45;&#45;p83</title>
<path fill="none" stroke="black" d="M46.6604,-220.337C46.8789,-208.541 47.1219,-195.419 47.3403,-183.625"/>
<text text-anchor="middle" x="51.3979" y="-190.265" font-family="Arial" font-size="10.00">src</text>
<text text-anchor="middle" x="42.6028" y="-208.698" font-family="Arial" font-size="10.00">outEdges</text>
</g>
<!-- p83&#45;&#45;r84 -->
<g id="edge14" class="edge"><title>p83&#45;&#45;r84</title>
<path fill="none" stroke="black" d="M59.8875,-110.337C63.8198,-98.5407 68.1936,-85.4191 72.125,-73.6251"/>
<text text-anchor="middle" x="73.2683" y="-81.0595" font-family="Arial" font-size="10.00">inEdges</text>
<text text-anchor="middle" x="58.7442" y="-97.903" font-family="Arial" font-size="10.00">tgt</text>
</g>
<!-- p86 -->
<g id="node8" class="node"><title>p86</title>
<a xlink:href="../examples/org/sdmlib/examples/m2m/model/Person.java" xlink:title="&lt;TABLE&gt;">
<polygon fill="none" stroke="black" points="160,-382 160,-399 232,-399 232,-382 160,-382"/>
<text text-anchor="start" x="167.5" y="-388.5" font-family="Arial" font-size="10.00"> </text>
<text text-anchor="start" x="171.5" y="-388.5" font-family="Arial" font-size="10.00">p86 :Person</text>
</a>
<polygon fill="none" stroke="black" points="160,-334 160,-382 232,-382 232,-334 160,-334"/>
<text text-anchor="start" x="165" y="-370" font-family="Arial" font-size="10.00">text = &quot;&quot;</text>
<text text-anchor="start" x="165" y="-356" font-family="Arial" font-size="10.00">parent = &quot;&quot;</text>
<text text-anchor="start" x="165" y="-342" font-family="Arial" font-size="10.00">firstName = &quot;&quot;</text>
</g>
<!-- r85&#45;&#45;p86 -->
<g id="edge16" class="edge"><title>r85&#45;&#45;p86</title>
<path fill="none" stroke="black" d="M196,-440.337C196,-428.541 196,-415.419 196,-403.625"/>
<text text-anchor="middle" x="200.226" y="-410.188" font-family="Arial" font-size="10.00">tgt</text>
<text text-anchor="middle" x="191.774" y="-428.774" font-family="Arial" font-size="10.00">inEdges</text>
</g>
<!-- p87 -->
<g id="node9" class="node"><title>p87</title>
<a xlink:href="../examples/org/sdmlib/examples/m2m/model/Person.java" xlink:title="&lt;TABLE&gt;">
<polygon fill="none" stroke="black" points="271,-602 271,-619 343,-619 343,-602 271,-602"/>
<text text-anchor="start" x="278.5" y="-608.5" font-family="Arial" font-size="10.00"> </text>
<text text-anchor="start" x="282.5" y="-608.5" font-family="Arial" font-size="10.00">p87 :Person</text>
</a>
<polygon fill="none" stroke="black" points="271,-554 271,-602 343,-602 343,-554 271,-554"/>
<text text-anchor="start" x="276" y="-590" font-family="Arial" font-size="10.00">text = &quot;&quot;</text>
<text text-anchor="start" x="276" y="-576" font-family="Arial" font-size="10.00">parent = &quot;&quot;</text>
<text text-anchor="start" x="276" y="-562" font-family="Arial" font-size="10.00">firstName = &quot;&quot;</text>
</g>
<!-- r88 -->
<g id="node10" class="node"><title>r88</title>
<a xlink:href="../examples/org/sdmlib/examples/m2m/model/Relation.java" xlink:title="&lt;TABLE&gt;">
<polygon fill="none" stroke="black" points="269,-492 269,-509 346,-509 346,-492 269,-492"/>
<text text-anchor="start" x="278" y="-498.5" font-family="Arial" font-size="10.00"> </text>
<text text-anchor="start" x="282" y="-498.5" font-family="Arial" font-size="10.00">r88 :Relation</text>
</a>
<polygon fill="none" stroke="black" points="269,-444 269,-492 346,-492 346,-444 269,-444"/>
<text text-anchor="start" x="274" y="-480" font-family="Arial" font-size="10.00">text = &quot;&quot;</text>
<text text-anchor="start" x="274" y="-466" font-family="Arial" font-size="10.00">parent = &quot;&quot;</text>
<text text-anchor="start" x="274" y="-452" font-family="Arial" font-size="10.00">kind = &quot;knows&quot;</text>
</g>
<!-- p87&#45;&#45;r88 -->
<g id="edge18" class="edge"><title>p87&#45;&#45;r88</title>
<path fill="none" stroke="black" d="M307,-550.337C307,-538.541 307,-525.419 307,-513.625"/>
<text text-anchor="middle" x="311.226" y="-520.188" font-family="Arial" font-size="10.00">inEdges_outEdges</text>
<text text-anchor="middle" x="302.774" y="-538.774" font-family="Arial" font-size="10.00">tgt_src</text>
</g>
</g>
</svg>
