<?xml version="1.0" encoding="UTF-8" standalone="no"?>
<!DOCTYPE svg PUBLIC "-//W3C//DTD SVG 1.1//EN"
 "http://www.w3.org/Graphics/SVG/1.1/DTD/svg11.dtd">
<!-- Generated by graphviz version 2.28.0 (20110507.0327)
 -->
<!-- Title: ObjectDiagram Pages: 1 -->
<svg width="180pt" height="246pt"
 viewBox="0.00 0.00 180.00 246.00" xmlns="http://www.w3.org/2000/svg" xmlns:xlink="http://www.w3.org/1999/xlink">
<g id="graph1" class="graph" transform="scale(1 1) rotate(0) translate(4 242)">
<title>ObjectDiagram</title>
<polygon fill="white" stroke="white" points="-4,5 -4,-242 177,-242 177,5 -4,5"/>
<!-- g1 -->
<g id="node1" class="node"><title>g1</title>
<polygon fill="deepskyblue" stroke="deepskyblue" points="45.5,-182.5 45.5,-233.5 126.5,-233.5 126.5,-182.5 45.5,-182.5"/>
<text text-anchor="start" x="98" y="-223.5" font-family="Arial" font-size="10.00">«bound»</text>
<polygon fill="none" stroke="black" points="46,-202 46,-218 127,-218 127,-202 46,-202"/>
<text text-anchor="start" x="49.5" y="-208" font-family="Arial" font-size="10.00"> </text>
<text text-anchor="start" x="53.5" y="-208" font-family="Arial" font-size="10.00"> g1 :GenericGraphPO </text>
<polygon fill="none" stroke="black" points="46,-182 46,-202 127,-202 127,-182 46,-182"/>
<text text-anchor="start" x="83" y="-190" font-family="Arial" font-size="10.00"> &#160;</text>
</g>
<!-- g2 -->
<g id="node2" class="node"><title>g2</title>
<polygon fill="deepskyblue" stroke="deepskyblue" points="7.5,-100.5 7.5,-137.5 164.5,-137.5 164.5,-100.5 7.5,-100.5"/>
<polygon fill="none" stroke="black" points="8,-120 8,-137 165,-137 165,-120 8,-120"/>
<text text-anchor="start" x="49" y="-126.5" font-family="Arial" font-size="10.00"> </text>
<text text-anchor="start" x="53" y="-126.5" font-family="Arial" font-size="10.00"> g2 :GenericObjectPO </text>
<polygon fill="none" stroke="black" points="8,-100 8,-120 165,-120 165,-100 8,-100"/>
<text text-anchor="start" x="13.5" y="-108" font-family="Arial" font-size="10.00"> type == &quot;org.sdmlib.examples.m2m.Relation&quot; </text>
</g>
<!-- g1&#45;&#45;g2 -->
<g id="edge2" class="edge"><title>g1&#45;&#45;g2</title>
<path fill="none" stroke="black" d="M86,-178.03C86,-166.167 86,-152.675 86,-141.687"/>
<text text-anchor="middle" x="90.2262" y="-148.25" font-family="Arial" font-size="10.00">objects</text>
</g>
<!-- g3 -->
<g id="node3" class="node"><title>g3</title>
<polygon fill="deepskyblue" stroke="deepskyblue" points="36.5,-4.5 36.5,-55.5 135.5,-55.5 135.5,-4.5 36.5,-4.5"/>
<polygon fill="none" stroke="black" points="37,-38 37,-55 136,-55 136,-38 37,-38"/>
<text text-anchor="start" x="40.5" y="-44.5" font-family="Arial" font-size="10.00"> </text>
<text text-anchor="start" x="44.5" y="-44.5" font-family="Arial" font-size="10.00"> g3 :GenericAttributePO </text>
<polygon fill="none" stroke="black" points="37,-4 37,-38 136,-38 136,-4 37,-4"/>
<text text-anchor="start" x="57.5" y="-26" font-family="Arial" font-size="10.00"> name == &quot;text&quot; </text>
<text text-anchor="start" x="58.5" y="-12" font-family="Arial" font-size="10.00" fill="green"> name := &quot;kind&quot; </text>
</g>
<!-- g2&#45;&#45;g3 -->
<g id="edge4" class="edge"><title>g2&#45;&#45;g3</title>
<path fill="none" stroke="black" d="M86,-96.4944C86,-85.4243 86,-71.7752 86,-59.8074"/>
<text text-anchor="middle" x="90.2262" y="-66.3705" font-family="Arial" font-size="10.00">attrs</text>
</g>
</g>
</svg>
