<?xml version="1.0" encoding="UTF-8" standalone="no"?>
<!DOCTYPE svg PUBLIC "-//W3C//DTD SVG 1.1//EN"
 "http://www.w3.org/Graphics/SVG/1.1/DTD/svg11.dtd">
<!-- Generated by graphviz version 2.28.0 (20110507.0327)
 -->
<!-- Title: ObjectDiagram Pages: 1 -->
<svg width="134pt" height="246pt"
 viewBox="0.00 0.00 134.00 246.00" xmlns="http://www.w3.org/2000/svg" xmlns:xlink="http://www.w3.org/1999/xlink">
<g id="graph1" class="graph" transform="scale(1 1) rotate(0) translate(4 242)">
<title>ObjectDiagram</title>
<polygon fill="white" stroke="white" points="-4,5 -4,-242 131,-242 131,5 -4,5"/>
<!-- g1 -->
<g id="node1" class="node"><title>g1</title>
<polygon fill="deepskyblue" stroke="deepskyblue" points="9,-182.5 9,-233.5 117,-233.5 117,-182.5 9,-182.5"/>
<text text-anchor="start" x="78" y="-223.5" font-family="Arial" font-size="10.00">«bound»</text>
<polygon fill="none" stroke="black" points="9,-202 9,-218 117,-218 117,-202 9,-202"/>
<text text-anchor="start" x="12.5" y="-208" font-family="Arial" font-size="10.00"> </text>
<text text-anchor="start" x="16.5" y="-208" font-family="Arial" font-size="10.00"> g1 :GenericGraphPO </text>
<polygon fill="none" stroke="black" points="9,-182 9,-202 117,-202 117,-182 9,-182"/>
<text text-anchor="start" x="59.5" y="-190" font-family="Arial" font-size="10.00"> &#160;</text>
</g>
<!-- g2 -->
<g id="node2" class="node"><title>g2</title>
<polygon fill="deepskyblue" stroke="deepskyblue" points="7.5,-100.5 7.5,-137.5 118.5,-137.5 118.5,-100.5 7.5,-100.5"/>
<polygon fill="none" stroke="black" points="8,-120 8,-137 119,-137 119,-120 8,-120"/>
<text text-anchor="start" x="11.5" y="-126.5" font-family="Arial" font-size="10.00"> </text>
<text text-anchor="start" x="15.5" y="-126.5" font-family="Arial" font-size="10.00"> g2 :GenericObjectPO </text>
<polygon fill="none" stroke="black" points="8,-100 8,-120 119,-120 119,-100 8,-100"/>
<text text-anchor="start" x="60" y="-108" font-family="Arial" font-size="10.00"> &#160;</text>
</g>
<!-- g1&#45;&#45;g2 -->
<g id="edge2" class="edge"><title>g1&#45;&#45;g2</title>
<path fill="none" stroke="black" d="M63,-178.03C63,-166.167 63,-152.675 63,-141.687"/>
<text text-anchor="middle" x="67.2262" y="-148.25" font-family="Arial" font-size="10.00">objects</text>
</g>
<!-- g3 -->
<g id="node3" class="node"><title>g3</title>
<polygon fill="deepskyblue" stroke="deepskyblue" points="13.5,-4.5 13.5,-55.5 112.5,-55.5 112.5,-4.5 13.5,-4.5"/>
<polygon fill="none" stroke="black" points="14,-38 14,-55 113,-55 113,-38 14,-38"/>
<text text-anchor="start" x="17.5" y="-44.5" font-family="Arial" font-size="10.00"> </text>
<text text-anchor="start" x="21.5" y="-44.5" font-family="Arial" font-size="10.00"> g3 :GenericAttributePO </text>
<polygon fill="none" stroke="black" points="14,-4 14,-38 113,-38 113,-4 14,-4"/>
<text text-anchor="start" x="24" y="-26" font-family="Arial" font-size="10.00"> name == &quot;firstName&quot; </text>
<text text-anchor="start" x="36" y="-12" font-family="Arial" font-size="10.00" fill="green"> name := &quot;text&quot; </text>
</g>
<!-- g2&#45;&#45;g3 -->
<g id="edge4" class="edge"><title>g2&#45;&#45;g3</title>
<path fill="none" stroke="black" d="M63,-96.4944C63,-85.4243 63,-71.7752 63,-59.8074"/>
<text text-anchor="middle" x="67.2262" y="-66.3705" font-family="Arial" font-size="10.00">attrs</text>
</g>
</g>
</svg>
