<?xml version="1.0" encoding="UTF-8" standalone="no"?>
<!DOCTYPE svg PUBLIC "-//W3C//DTD SVG 1.1//EN"
 "http://www.w3.org/Graphics/SVG/1.1/DTD/svg11.dtd">
<!-- Generated by graphviz version 2.28.0 (20110507.0327)
 -->
<!-- Title: ClassDiagram Pages: 1 -->
<svg width="115pt" height="380pt"
 viewBox="0.00 0.00 115.00 380.00" xmlns="http://www.w3.org/2000/svg" xmlns:xlink="http://www.w3.org/1999/xlink">
<g id="graph1" class="graph" transform="scale(1 1) rotate(0) translate(4 376)">
<title>ClassDiagram</title>
<polygon fill="white" stroke="white" points="-4,5 -4,-376 112,-376 112,5 -4,5"/>
<!-- _Graph -->
<g id="node1" class="node"><title>_Graph</title>
<a xlink:href="../examples/org/sdmlib/examples/m2m/Graph.java" xlink:title="&lt;TABLE&gt;">
<polygon fill="none" stroke="black" points="32,-350 32,-367 66,-367 66,-350 32,-350"/>
<text text-anchor="start" x="35.5" y="-356.5" font-family="Arial" font-size="10.00">Graph</text>
</a>
<polygon fill="none" stroke="black" points="32,-330 32,-350 66,-350 66,-330 32,-330"/>
<text text-anchor="start" x="47" y="-338" font-family="Arial" font-size="10.00"> </text>
<polygon fill="none" stroke="black" points="32,-310 32,-330 66,-330 66,-310 32,-310"/>
<text text-anchor="start" x="47" y="-318" font-family="Arial" font-size="10.00"> </text>
</g>
<!-- _GraphComponent -->
<g id="node2" class="node"><title>_GraphComponent</title>
<a xlink:href="../examples/org/sdmlib/examples/m2m/GraphComponent.java" xlink:title="&lt;TABLE&gt;">
<polygon fill="none" stroke="black" points="8,-248 8,-265 91,-265 91,-248 8,-248"/>
<text text-anchor="start" x="11.5" y="-254.5" font-family="Arial" font-size="10.00">GraphComponent</text>
</a>
<polygon fill="none" stroke="black" points="8,-228 8,-248 91,-248 91,-228 8,-228"/>
<text text-anchor="start" x="13" y="-236" font-family="Arial" font-size="10.00">text :String</text>
<polygon fill="none" stroke="black" points="8,-208 8,-228 91,-228 91,-208 8,-208"/>
<text text-anchor="start" x="47.5" y="-216" font-family="Arial" font-size="10.00"> </text>
</g>
<!-- _Graph&#45;&gt;_GraphComponent -->
<g id="edge6" class="edge"><title>_Graph&#45;&gt;_GraphComponent</title>
<path fill="none" stroke="black" d="M49,-306.359C49,-294.686 49,-281.463 49,-269.778"/>
<text text-anchor="middle" x="53.2262" y="-276.341" font-family="Arial" font-size="10.00">gcs *</text>
<text text-anchor="middle" x="44.7738" y="-294.796" font-family="Arial" font-size="10.00">parent</text>
</g>
<!-- _Person -->
<g id="node3" class="node"><title>_Person</title>
<a xlink:href="../examples/org/sdmlib/examples/m2m/Person.java" xlink:title="&lt;TABLE&gt;">
<polygon fill="none" stroke="black" points="59,-44 59,-61 97,-61 97,-44 59,-44"/>
<text text-anchor="start" x="62.5" y="-50.5" font-family="Arial" font-size="10.00">Person</text>
</a>
<polygon fill="none" stroke="black" points="59,-24 59,-44 97,-44 97,-24 59,-24"/>
<text text-anchor="start" x="76" y="-32" font-family="Arial" font-size="10.00"> </text>
<polygon fill="none" stroke="black" points="59,-4 59,-24 97,-24 97,-4 59,-4"/>
<text text-anchor="start" x="76" y="-12" font-family="Arial" font-size="10.00"> </text>
</g>
<!-- _GraphComponent&#45;&gt;_Person -->
<g id="edge2" class="edge"><title>_GraphComponent&#45;&gt;_Person</title>
<path fill="none" stroke="black" d="M38.9046,-194.491C34.0855,-167.683 30.9323,-132.283 39,-102 42.3634,-89.3753 48.6886,-76.6567 55.2813,-65.6898"/>
<polygon fill="none" stroke="black" points="35.4705,-195.167 40.8133,-204.316 42.342,-193.832 35.4705,-195.167"/>
</g>
<!-- _Relation -->
<g id="node4" class="node"><title>_Relation</title>
<a xlink:href="../examples/org/sdmlib/examples/m2m/Relation.java" xlink:title="&lt;TABLE&gt;">
<polygon fill="none" stroke="black" points="57,-146 57,-163 100,-163 100,-146 57,-146"/>
<text text-anchor="start" x="60.5" y="-152.5" font-family="Arial" font-size="10.00">Relation</text>
</a>
<polygon fill="none" stroke="black" points="57,-126 57,-146 100,-146 100,-126 57,-126"/>
<text text-anchor="start" x="76.5" y="-134" font-family="Arial" font-size="10.00"> </text>
<polygon fill="none" stroke="black" points="57,-106 57,-126 100,-126 100,-106 57,-106"/>
<text text-anchor="start" x="76.5" y="-114" font-family="Arial" font-size="10.00"> </text>
</g>
<!-- _GraphComponent&#45;&gt;_Relation -->
<g id="edge4" class="edge"><title>_GraphComponent&#45;&gt;_Relation</title>
<path fill="none" stroke="black" d="M61.0352,-194.499C63.6247,-185.57 66.3223,-176.268 68.7844,-167.778"/>
<polygon fill="none" stroke="black" points="57.5996,-193.78 58.1758,-204.359 64.3226,-195.73 57.5996,-193.78"/>
</g>
<!-- _Relation&#45;&gt;_Person -->
<g id="edge8" class="edge"><title>_Relation&#45;&gt;_Person</title>
<path fill="none" stroke="black" d="M71.6719,-102.359C71.1116,-90.6864 71.1094,-77.4631 71.6653,-65.778"/>
<text text-anchor="middle" x="75.5049" y="-72.5115" font-family="Arial" font-size="10.00">src</text>
<text text-anchor="middle" x="67.063" y="-90.9848" font-family="Arial" font-size="10.00">outEdges *</text>
</g>
<!-- _Relation&#45;&gt;_Person -->
<g id="edge10" class="edge"><title>_Relation&#45;&gt;_Person</title>
<path fill="none" stroke="black" d="M84.3281,-102.359C84.8884,-90.6864 84.8906,-77.4631 84.3347,-65.778"/>
<text text-anchor="middle" x="88.9399" y="-72.1545" font-family="Arial" font-size="10.00">tgt</text>
<text text-anchor="middle" x="80.4923" y="-90.6243" font-family="Arial" font-size="10.00">inEdges *</text>
</g>
</g>
</svg>
