<?xml version="1.0" encoding="UTF-8" standalone="no"?>
<!DOCTYPE svg PUBLIC "-//W3C//DTD SVG 1.1//EN"
 "http://www.w3.org/Graphics/SVG/1.1/DTD/svg11.dtd">
<!-- Generated by graphviz version 2.28.0 (20110507.0327)
 -->
<!-- Title: ObjectDiagram Pages: 1 -->
<svg width="396pt" height="342pt"
 viewBox="0.00 0.00 396.00 342.00" xmlns="http://www.w3.org/2000/svg" xmlns:xlink="http://www.w3.org/1999/xlink">
<g id="graph1" class="graph" transform="scale(1 1) rotate(0) translate(4 338)">
<title>ObjectDiagram</title>
<polygon fill="white" stroke="white" points="-4,5 -4,-338 393,-338 393,5 -4,5"/>
<!-- g1 -->
<g id="node1" class="node"><title>g1</title>
<polygon fill="deepskyblue" stroke="deepskyblue" points="189.5,-278.5 189.5,-329.5 270.5,-329.5 270.5,-278.5 189.5,-278.5"/>
<text text-anchor="start" x="242" y="-319.5" font-family="Arial" font-size="10.00">«bound»</text>
<polygon fill="none" stroke="black" points="190,-298 190,-314 271,-314 271,-298 190,-298"/>
<text text-anchor="start" x="193.5" y="-304" font-family="Arial" font-size="10.00"> </text>
<text text-anchor="start" x="197.5" y="-304" font-family="Arial" font-size="10.00"> g1 :GenericGraphPO </text>
<polygon fill="none" stroke="black" points="190,-278 190,-298 271,-298 271,-278 190,-278"/>
<text text-anchor="start" x="227" y="-286" font-family="Arial" font-size="10.00"> &#160;</text>
</g>
<!-- g2 -->
<g id="node2" class="node"><title>g2</title>
<polygon fill="deepskyblue" stroke="deepskyblue" points="151.5,-196.5 151.5,-233.5 308.5,-233.5 308.5,-196.5 151.5,-196.5"/>
<polygon fill="none" stroke="black" points="152,-216 152,-233 309,-233 309,-216 152,-216"/>
<text text-anchor="start" x="193" y="-222.5" font-family="Arial" font-size="10.00"> </text>
<text text-anchor="start" x="197" y="-222.5" font-family="Arial" font-size="10.00"> g2 :GenericObjectPO </text>
<polygon fill="none" stroke="black" points="152,-196 152,-216 309,-216 309,-196 152,-196"/>
<text text-anchor="start" x="157.5" y="-204" font-family="Arial" font-size="10.00"> type == &quot;org.sdmlib.examples.m2m.Relation&quot; </text>
</g>
<!-- g1&#45;&#45;g2 -->
<g id="edge8" class="edge"><title>g1&#45;&#45;g2</title>
<path fill="none" stroke="black" d="M230,-274.03C230,-262.167 230,-248.675 230,-237.687"/>
<text text-anchor="middle" x="234.226" y="-244.25" font-family="Arial" font-size="10.00">objects</text>
</g>
<!-- g3 -->
<g id="node3" class="node"><title>g3</title>
<polygon fill="deepskyblue" stroke="deepskyblue" points="43,-100.5 43,-137.5 143,-137.5 143,-100.5 43,-100.5"/>
<polygon fill="none" stroke="black" points="43,-120 43,-137 143,-137 143,-120 43,-120"/>
<text text-anchor="start" x="46.5" y="-126.5" font-family="Arial" font-size="10.00"> </text>
<text text-anchor="start" x="50.5" y="-126.5" font-family="Arial" font-size="10.00"> g3 :GenericLinkPO </text>
<polygon fill="none" stroke="black" points="43,-100 43,-120 143,-120 143,-100 43,-100"/>
<text text-anchor="start" x="53" y="-108" font-family="Arial" font-size="10.00"> tgtLabel == &quot;src&quot; </text>
</g>
<!-- g2&#45;&#45;g3 -->
<g id="edge10" class="edge"><title>g2&#45;&#45;g3</title>
<path fill="none" stroke="black" d="M198.569,-192.435C176.45,-177.258 146.951,-157.017 124.759,-141.791"/>
<text text-anchor="middle" x="134.623" y="-140.933" font-family="Arial" font-size="10.00">outgoingLinks</text>
</g>
<!-- g4 -->
<g id="node4" class="node"><title>g4</title>
<polygon fill="deepskyblue" stroke="deepskyblue" points="177.5,-86.5 177.5,-151.5 282.5,-151.5 282.5,-86.5 177.5,-86.5"/>
<polygon fill="none" stroke="black" points="178,-134 178,-151 283,-151 283,-134 178,-134"/>
<text text-anchor="start" x="184" y="-140.5" font-family="Arial" font-size="10.00"> </text>
<text text-anchor="start" x="188" y="-140.5" font-family="Arial" font-size="10.00"> g4 :GenericLinkPO </text>
<polygon fill="none" stroke="black" points="178,-86 178,-134 283,-134 283,-86 178,-86"/>
<text text-anchor="start" x="191.5" y="-122" font-family="Arial" font-size="10.00"> tgtLabel == &quot;tgt&quot; </text>
<text text-anchor="start" x="183.5" y="-108" font-family="Arial" font-size="10.00" fill="green"> srcLabel := &quot;knows&quot; </text>
<text text-anchor="start" x="185" y="-94" font-family="Arial" font-size="10.00" fill="green"> tgtLabel := &quot;knows&quot; </text>
</g>
<!-- g2&#45;&#45;g4 -->
<g id="edge12" class="edge"><title>g2&#45;&#45;g4</title>
<path fill="none" stroke="black" d="M230,-192.198C230,-181.351 230,-167.962 230,-155.671"/>
<text text-anchor="middle" x="234.226" y="-162.234" font-family="Arial" font-size="10.00">outgoingLinks</text>
</g>
<!-- d7 -->
<g id="node8" class="node"><title>d7</title>
<text text-anchor="middle" x="336" y="-116.5" font-family="Arial" font-size="10.00" fill="red">destroy</text>
</g>
<!-- g2&#45;&#45;d7 -->
<g id="edge4" class="edge"><title>g2&#45;&#45;d7</title>
<path fill="none" stroke="red" stroke-dasharray="1,5" d="M256.597,-192.408C269.576,-181.678 285.306,-168.388 299,-156 305.647,-149.988 312.746,-143.179 318.931,-137.114"/>
</g>
<!-- g5 -->
<g id="node6" class="node"><title>g5</title>
<polygon fill="deepskyblue" stroke="deepskyblue" points="80,-4.5 80,-41.5 172,-41.5 172,-4.5 80,-4.5"/>
<polygon fill="none" stroke="black" points="80,-24 80,-41 172,-41 172,-24 80,-24"/>
<text text-anchor="start" x="83.5" y="-30.5" font-family="Arial" font-size="10.00"> </text>
<text text-anchor="start" x="87.5" y="-30.5" font-family="Arial" font-size="10.00"> g5 :GenericObjectPO </text>
<polygon fill="none" stroke="black" points="80,-4 80,-24 172,-24 172,-4 80,-4"/>
<text text-anchor="start" x="122.5" y="-12" font-family="Arial" font-size="10.00"> &#160;</text>
</g>
<!-- g3&#45;&#45;g5 -->
<g id="edge14" class="edge"><title>g3&#45;&#45;g5</title>
<path fill="none" stroke="black" d="M100.654,-96.1982C105.985,-81.0123 113.066,-60.8435 118.388,-45.6835"/>
<text text-anchor="middle" x="119.373" y="-53.1348" font-family="Arial" font-size="10.00">tgt</text>
</g>
<!-- d8 -->
<g id="node9" class="node"><title>d8</title>
<text text-anchor="middle" x="27" y="-20.5" font-family="Arial" font-size="10.00" fill="red">destroy</text>
</g>
<!-- g3&#45;&#45;d8 -->
<g id="edge6" class="edge"><title>g3&#45;&#45;d8</title>
<path fill="none" stroke="red" stroke-dasharray="1,5" d="M77.6924,-96.1982C65.9637,-79.4937 50.0016,-56.7599 39.1439,-41.2958"/>
</g>
<!-- allMatches_g4 -->
<g id="node5" class="node"><title>allMatches_g4</title>
<text text-anchor="middle" x="230" y="-20.5" font-family="Arial" font-size="10.00">allMatches</text>
</g>
<!-- g4&#45;&#45;allMatches_g4 -->
<g id="edge2" class="edge"><title>g4&#45;&#45;allMatches_g4</title>
<path fill="none" stroke="black" stroke-dasharray="1,5" d="M230,-82.4626C230,-68.3212 230,-52.7053 230,-41.1727"/>
</g>
<!-- g4&#45;&#45;g5 -->
<g id="edge18" class="edge"><title>g4&#45;&#45;g5</title>
<path fill="none" stroke="green" d="M190.682,-82.4626C176.992,-70.0889 162.053,-56.5863 149.984,-45.678"/>
<text text-anchor="middle" x="159.542" y="-46.1198" font-family="Arial" font-size="10.00" fill="green">src</text>
</g>
<!-- g6 -->
<g id="node7" class="node"><title>g6</title>
<polygon fill="deepskyblue" stroke="deepskyblue" points="288,-4.5 288,-41.5 380,-41.5 380,-4.5 288,-4.5"/>
<polygon fill="none" stroke="black" points="288,-24 288,-41 380,-41 380,-24 288,-24"/>
<text text-anchor="start" x="291.5" y="-30.5" font-family="Arial" font-size="10.00"> </text>
<text text-anchor="start" x="295.5" y="-30.5" font-family="Arial" font-size="10.00"> g6 :GenericObjectPO </text>
<polygon fill="none" stroke="black" points="288,-4 288,-24 380,-24 380,-4 288,-4"/>
<text text-anchor="start" x="330.5" y="-12" font-family="Arial" font-size="10.00"> &#160;</text>
</g>
<!-- g4&#45;&#45;g6 -->
<g id="edge16" class="edge"><title>g4&#45;&#45;g6</title>
<path fill="none" stroke="black" d="M269.318,-82.4626C283.008,-70.0889 297.947,-56.5863 310.016,-45.678"/>
<text text-anchor="middle" x="306.126" y="-52.3904" font-family="Arial" font-size="10.00">tgt</text>
</g>
</g>
</svg>
