<?xml version="1.0" encoding="UTF-8" standalone="no"?>
<!DOCTYPE svg PUBLIC "-//W3C//DTD SVG 1.1//EN"
 "http://www.w3.org/Graphics/SVG/1.1/DTD/svg11.dtd">
<!-- Generated by graphviz version 2.28.0 (20110507.0327)
 -->
<!-- Title: ObjectDiagram Pages: 1 -->
<svg width="264pt" height="232pt"
 viewBox="0.00 0.00 264.00 232.00" xmlns="http://www.w3.org/2000/svg" xmlns:xlink="http://www.w3.org/1999/xlink">
<g id="graph1" class="graph" transform="scale(1 1) rotate(0) translate(4 228)">
<title>ObjectDiagram</title>
<polygon fill="white" stroke="white" points="-4,5 -4,-228 261,-228 261,5 -4,5"/>
<!-- g4 -->
<g id="node1" class="node"><title>g4</title>
<polygon fill="deepskyblue" stroke="deepskyblue" points="82.5,-182.5 82.5,-219.5 173.5,-219.5 173.5,-182.5 82.5,-182.5"/>
<polygon fill="none" stroke="black" points="83,-202 83,-219 174,-219 174,-202 83,-202"/>
<text text-anchor="start" x="86.5" y="-208.5" font-family="Arial" font-size="10.00"> </text>
<text text-anchor="start" x="90.5" y="-208.5" font-family="Arial" font-size="10.00"> g4 :GenericGraphPO </text>
<polygon fill="none" stroke="black" points="83,-182 83,-202 174,-202 174,-182 83,-182"/>
<text text-anchor="start" x="125" y="-190" font-family="Arial" font-size="10.00"> &#160;</text>
</g>
<!-- g5 -->
<g id="node2" class="node"><title>g5</title>
<polygon fill="deepskyblue" stroke="deepskyblue" points="8,-100.5 8,-137.5 248,-137.5 248,-100.5 8,-100.5"/>
<polygon fill="none" stroke="black" points="8,-120 8,-137 248,-137 248,-120 8,-120"/>
<text text-anchor="start" x="76" y="-126.5" font-family="Arial" font-size="10.00"> </text>
<text text-anchor="start" x="80" y="-126.5" font-family="Arial" font-size="10.00"> g5 :GenericObjectPO </text>
<polygon fill="none" stroke="black" points="8,-100 8,-120 248,-120 248,-100 8,-100"/>
<text text-anchor="start" x="13.5" y="-108" font-family="Arial" font-size="10.00"> type == &quot;org.sdmlib.examples.m2m.model.Person&quot; </text>
</g>
<!-- g4&#45;&#45;g5 -->
<g id="edge2" class="edge"><title>g4&#45;&#45;g5</title>
<path fill="none" stroke="black" d="M128,-178.14C128,-166.759 128,-152.893 128,-141.557"/>
<text text-anchor="middle" x="132.226" y="-148.12" font-family="Arial" font-size="10.00">objects</text>
</g>
<!-- g6 -->
<g id="node3" class="node"><title>g6</title>
<polygon fill="deepskyblue" stroke="deepskyblue" points="68.5,-4.5 68.5,-55.5 187.5,-55.5 187.5,-4.5 68.5,-4.5"/>
<polygon fill="none" stroke="black" points="69,-38 69,-55 188,-55 188,-38 69,-38"/>
<text text-anchor="start" x="72.5" y="-44.5" font-family="Arial" font-size="10.00"> </text>
<text text-anchor="start" x="76.5" y="-44.5" font-family="Arial" font-size="10.00"> g6 :GenericAttributePO </text>
<polygon fill="none" stroke="black" points="69,-4 69,-38 188,-38 188,-4 69,-4"/>
<text text-anchor="start" x="92" y="-26" font-family="Arial" font-size="10.00"> name == &quot;text&quot; </text>
<text text-anchor="start" x="81.5" y="-12" font-family="Arial" font-size="10.00" fill="green"> name := &quot;firstName&quot; </text>
</g>
<!-- g5&#45;&#45;g6 -->
<g id="edge4" class="edge"><title>g5&#45;&#45;g6</title>
<path fill="none" stroke="black" d="M128,-96.4944C128,-85.4243 128,-71.7752 128,-59.8074"/>
<text text-anchor="middle" x="132.226" y="-66.3705" font-family="Arial" font-size="10.00">attrs</text>
</g>
</g>
</svg>
