<?xml version="1.0" encoding="UTF-8" standalone="no"?>
<!DOCTYPE svg PUBLIC "-//W3C//DTD SVG 1.1//EN"
 "http://www.w3.org/Graphics/SVG/1.1/DTD/svg11.dtd">
<!-- Generated by graphviz version 2.28.0 (20110507.0327)
 -->
<!-- Title: ObjectDiagram Pages: 1 -->
<svg width="268pt" height="222pt"
 viewBox="0.00 0.00 268.00 222.00" xmlns="http://www.w3.org/2000/svg" xmlns:xlink="http://www.w3.org/1999/xlink">
<g id="graph1" class="graph" transform="scale(1 1) rotate(0) translate(4 218)">
<title>ObjectDiagram</title>
<polygon fill="white" stroke="white" points="-4,5 -4,-218 265,-218 265,5 -4,5"/>
<!-- g1 -->
<g id="node1" class="node"><title>g1</title>
<polygon fill="deepskyblue" stroke="deepskyblue" points="76,-158.5 76,-209.5 184,-209.5 184,-158.5 76,-158.5"/>
<text text-anchor="start" x="145" y="-199.5" font-family="Arial" font-size="10.00">«bound»</text>
<polygon fill="none" stroke="black" points="76,-178 76,-194 184,-194 184,-178 76,-178"/>
<text text-anchor="start" x="79.5" y="-184" font-family="Arial" font-size="10.00"> </text>
<text text-anchor="start" x="83.5" y="-184" font-family="Arial" font-size="10.00"> g1 :GenericGraphPO </text>
<polygon fill="none" stroke="black" points="76,-158 76,-178 184,-178 184,-158 76,-158"/>
<text text-anchor="start" x="126.5" y="-166" font-family="Arial" font-size="10.00"> &#160;</text>
</g>
<!-- g2 -->
<g id="node2" class="node"><title>g2</title>
<polygon fill="deepskyblue" stroke="deepskyblue" points="8,-76.5 8,-113.5 252,-113.5 252,-76.5 8,-76.5"/>
<polygon fill="none" stroke="black" points="8,-96 8,-113 252,-113 252,-96 8,-96"/>
<text text-anchor="start" x="78" y="-102.5" font-family="Arial" font-size="10.00"> </text>
<text text-anchor="start" x="82" y="-102.5" font-family="Arial" font-size="10.00"> g2 :GenericObjectPO </text>
<polygon fill="none" stroke="black" points="8,-76 8,-96 252,-96 252,-76 8,-76"/>
<text text-anchor="start" x="13.5" y="-84" font-family="Arial" font-size="10.00"> type == &quot;org.sdmlib.examples.m2m.model.Relation&quot; </text>
</g>
<!-- g1&#45;&#45;g2 -->
<g id="edge6" class="edge"><title>g1&#45;&#45;g2</title>
<path fill="none" stroke="black" d="M130,-154.03C130,-142.167 130,-128.675 130,-117.687"/>
<text text-anchor="middle" x="134.226" y="-124.25" font-family="Arial" font-size="10.00">objects</text>
</g>
<!-- allMatches_g2 -->
<g id="node3" class="node"><title>allMatches_g2</title>
<text text-anchor="middle" x="92" y="-15.5" font-family="Arial" font-size="10.00">allMatches</text>
</g>
<!-- g2&#45;&#45;allMatches_g2 -->
<g id="edge2" class="edge"><title>g2&#45;&#45;allMatches_g2</title>
<path fill="none" stroke="black" stroke-dasharray="1,5" d="M119.009,-72.3069C113.222,-60.8856 106.222,-47.0699 100.799,-36.3655"/>
</g>
<!-- d3 -->
<g id="node4" class="node"><title>d3</title>
<text text-anchor="middle" x="169" y="-15.5" font-family="Arial" font-size="10.00" fill="red">destroy</text>
</g>
<!-- g2&#45;&#45;d3 -->
<g id="edge4" class="edge"><title>g2&#45;&#45;d3</title>
<path fill="none" stroke="red" stroke-dasharray="1,5" d="M141.28,-72.3069C147.219,-60.8856 154.404,-47.0699 159.97,-36.3655"/>
</g>
</g>
</svg>
