<?xml version="1.0" encoding="UTF-8" standalone="no"?>
<!DOCTYPE svg PUBLIC "-//W3C//DTD SVG 1.1//EN"
 "http://www.w3.org/Graphics/SVG/1.1/DTD/svg11.dtd">
<!-- Generated by graphviz version 2.28.0 (20110507.0327)
 -->
<!-- Title: ObjectDiagram Pages: 1 -->
<svg width="238pt" height="246pt"
 viewBox="0.00 0.00 238.00 246.00" xmlns="http://www.w3.org/2000/svg" xmlns:xlink="http://www.w3.org/1999/xlink">
<g id="graph1" class="graph" transform="scale(1 1) rotate(0) translate(4 242)">
<title>ObjectDiagram</title>
<polygon fill="white" stroke="white" points="-4,5 -4,-242 235,-242 235,5 -4,5"/>
<!-- g1 -->
<g id="node1" class="node"><title>g1</title>
<polygon fill="deepskyblue" stroke="deepskyblue" points="61,-182.5 61,-233.5 169,-233.5 169,-182.5 61,-182.5"/>
<text text-anchor="start" x="130" y="-223.5" font-family="Arial" font-size="10.00">«bound»</text>
<polygon fill="none" stroke="black" points="61,-202 61,-218 169,-218 169,-202 61,-202"/>
<text text-anchor="start" x="64.5" y="-208" font-family="Arial" font-size="10.00"> </text>
<text text-anchor="start" x="68.5" y="-208" font-family="Arial" font-size="10.00"> g1 :GenericGraphPO </text>
<polygon fill="none" stroke="black" points="61,-182 61,-202 169,-202 169,-182 61,-182"/>
<text text-anchor="start" x="111.5" y="-190" font-family="Arial" font-size="10.00"> &#160;</text>
</g>
<!-- g2 -->
<g id="node2" class="node"><title>g2</title>
<polygon fill="deepskyblue" stroke="deepskyblue" points="7.5,-100.5 7.5,-137.5 222.5,-137.5 222.5,-100.5 7.5,-100.5"/>
<polygon fill="none" stroke="black" points="8,-120 8,-137 223,-137 223,-120 8,-120"/>
<text text-anchor="start" x="63.5" y="-126.5" font-family="Arial" font-size="10.00"> </text>
<text text-anchor="start" x="67.5" y="-126.5" font-family="Arial" font-size="10.00"> g2 :GenericObjectPO </text>
<polygon fill="none" stroke="black" points="8,-100 8,-120 223,-120 223,-100 8,-100"/>
<text text-anchor="start" x="13.5" y="-108" font-family="Arial" font-size="10.00"> type == &quot;org.sdmlib.examples.m2m.Relation&quot; </text>
</g>
<!-- g1&#45;&#45;g2 -->
<g id="edge2" class="edge"><title>g1&#45;&#45;g2</title>
<path fill="none" stroke="black" d="M115,-178.03C115,-166.167 115,-152.675 115,-141.687"/>
<text text-anchor="middle" x="119.226" y="-148.25" font-family="Arial" font-size="10.00">objects</text>
</g>
<!-- g3 -->
<g id="node3" class="node"><title>g3</title>
<polygon fill="deepskyblue" stroke="deepskyblue" points="55.5,-4.5 55.5,-55.5 174.5,-55.5 174.5,-4.5 55.5,-4.5"/>
<polygon fill="none" stroke="black" points="56,-38 56,-55 175,-55 175,-38 56,-38"/>
<text text-anchor="start" x="59.5" y="-44.5" font-family="Arial" font-size="10.00"> </text>
<text text-anchor="start" x="63.5" y="-44.5" font-family="Arial" font-size="10.00"> g3 :GenericAttributePO </text>
<polygon fill="none" stroke="black" points="56,-4 56,-38 175,-38 175,-4 56,-4"/>
<text text-anchor="start" x="79" y="-26" font-family="Arial" font-size="10.00"> name == &quot;text&quot; </text>
<text text-anchor="start" x="80" y="-12" font-family="Arial" font-size="10.00" fill="green"> name := &quot;kind&quot; </text>
</g>
<!-- g2&#45;&#45;g3 -->
<g id="edge4" class="edge"><title>g2&#45;&#45;g3</title>
<path fill="none" stroke="black" d="M115,-96.4944C115,-85.4243 115,-71.7752 115,-59.8074"/>
<text text-anchor="middle" x="119.226" y="-66.3705" font-family="Arial" font-size="10.00">attrs</text>
</g>
</g>
</svg>
