<?xml version="1.0" encoding="UTF-8" standalone="no"?>
<!DOCTYPE svg PUBLIC "-//W3C//DTD SVG 1.1//EN"
 "http://www.w3.org/Graphics/SVG/1.1/DTD/svg11.dtd">
<!-- Generated by graphviz version 2.28.0 (20110507.0327)
 -->
<!-- Title: ObjectDiagram Pages: 1 -->
<svg width="376pt" height="342pt"
 viewBox="0.00 0.00 376.00 342.00" xmlns="http://www.w3.org/2000/svg" xmlns:xlink="http://www.w3.org/1999/xlink">
<g id="graph1" class="graph" transform="scale(1 1) rotate(0) translate(4 338)">
<title>ObjectDiagram</title>
<polygon fill="white" stroke="white" points="-4,5 -4,-338 373,-338 373,5 -4,5"/>
<!-- g1 -->
<g id="node1" class="node"><title>g1</title>
<polygon fill="deepskyblue" stroke="deepskyblue" points="174.5,-278.5 174.5,-329.5 265.5,-329.5 265.5,-278.5 174.5,-278.5"/>
<text text-anchor="start" x="232" y="-319.5" font-family="Arial" font-size="10.00">«bound»</text>
<polygon fill="none" stroke="black" points="175,-298 175,-314 266,-314 266,-298 175,-298"/>
<text text-anchor="start" x="178.5" y="-304" font-family="Arial" font-size="10.00"> </text>
<text text-anchor="start" x="182.5" y="-304" font-family="Arial" font-size="10.00"> g1 :GenericGraphPO </text>
<polygon fill="none" stroke="black" points="175,-278 175,-298 266,-298 266,-278 175,-278"/>
<text text-anchor="start" x="217" y="-286" font-family="Arial" font-size="10.00"> &#160;</text>
</g>
<!-- g2 -->
<g id="node2" class="node"><title>g2</title>
<polygon fill="deepskyblue" stroke="deepskyblue" points="133,-196.5 133,-233.5 307,-233.5 307,-196.5 133,-196.5"/>
<polygon fill="none" stroke="black" points="133,-216 133,-233 307,-233 307,-216 133,-216"/>
<text text-anchor="start" x="177.5" y="-222.5" font-family="Arial" font-size="10.00"> </text>
<text text-anchor="start" x="181.5" y="-222.5" font-family="Arial" font-size="10.00"> g2 :GenericObjectPO </text>
<polygon fill="none" stroke="black" points="133,-196 133,-216 307,-216 307,-196 133,-196"/>
<text text-anchor="start" x="138.5" y="-204" font-family="Arial" font-size="10.00"> type == &quot;org.sdmlib.examples.m2m.Relation&quot; </text>
</g>
<!-- g1&#45;&#45;g2 -->
<g id="edge8" class="edge"><title>g1&#45;&#45;g2</title>
<path fill="none" stroke="black" d="M220,-274.03C220,-262.167 220,-248.675 220,-237.687"/>
<text text-anchor="middle" x="224.226" y="-244.25" font-family="Arial" font-size="10.00">objects</text>
</g>
<!-- g3 -->
<g id="node3" class="node"><title>g3</title>
<polygon fill="deepskyblue" stroke="deepskyblue" points="50.5,-100.5 50.5,-137.5 133.5,-137.5 133.5,-100.5 50.5,-100.5"/>
<polygon fill="none" stroke="black" points="51,-120 51,-137 134,-137 134,-120 51,-120"/>
<text text-anchor="start" x="54.5" y="-126.5" font-family="Arial" font-size="10.00"> </text>
<text text-anchor="start" x="58.5" y="-126.5" font-family="Arial" font-size="10.00"> g3 :GenericLinkPO </text>
<polygon fill="none" stroke="black" points="51,-100 51,-120 134,-120 134,-100 51,-100"/>
<text text-anchor="start" x="60" y="-108" font-family="Arial" font-size="10.00"> tgtLabel == &quot;src&quot; </text>
</g>
<!-- g2&#45;&#45;g3 -->
<g id="edge10" class="edge"><title>g2&#45;&#45;g3</title>
<path fill="none" stroke="black" d="M190.634,-192.435C169.968,-177.258 142.407,-157.017 121.672,-141.791"/>
<text text-anchor="middle" x="131.479" y="-141.249" font-family="Arial" font-size="10.00">outgoingLinks</text>
</g>
<!-- g4 -->
<g id="node4" class="node"><title>g4</title>
<polygon fill="deepskyblue" stroke="deepskyblue" points="167.5,-86.5 167.5,-151.5 272.5,-151.5 272.5,-86.5 167.5,-86.5"/>
<polygon fill="none" stroke="black" points="168,-134 168,-151 273,-151 273,-134 168,-134"/>
<text text-anchor="start" x="174" y="-140.5" font-family="Arial" font-size="10.00"> </text>
<text text-anchor="start" x="178" y="-140.5" font-family="Arial" font-size="10.00"> g4 :GenericLinkPO </text>
<polygon fill="none" stroke="black" points="168,-86 168,-134 273,-134 273,-86 168,-86"/>
<text text-anchor="start" x="181.5" y="-122" font-family="Arial" font-size="10.00"> tgtLabel == &quot;tgt&quot; </text>
<text text-anchor="start" x="173.5" y="-108" font-family="Arial" font-size="10.00" fill="green"> srcLabel := &quot;knows&quot; </text>
<text text-anchor="start" x="175" y="-94" font-family="Arial" font-size="10.00" fill="green"> tgtLabel := &quot;knows&quot; </text>
</g>
<!-- g2&#45;&#45;g4 -->
<g id="edge12" class="edge"><title>g2&#45;&#45;g4</title>
<path fill="none" stroke="black" d="M220,-192.198C220,-181.351 220,-167.962 220,-155.671"/>
<text text-anchor="middle" x="224.226" y="-162.234" font-family="Arial" font-size="10.00">outgoingLinks</text>
</g>
<!-- d7 -->
<g id="node8" class="node"><title>d7</title>
<text text-anchor="middle" x="326" y="-116.5" font-family="Arial" font-size="10.00" fill="red">destroy</text>
</g>
<!-- g2&#45;&#45;d7 -->
<g id="edge4" class="edge"><title>g2&#45;&#45;d7</title>
<path fill="none" stroke="red" stroke-dasharray="1,5" d="M246.597,-192.408C259.576,-181.678 275.306,-168.388 289,-156 295.647,-149.988 302.746,-143.179 308.931,-137.114"/>
</g>
<!-- g5 -->
<g id="node6" class="node"><title>g5</title>
<polygon fill="deepskyblue" stroke="deepskyblue" points="80,-4.5 80,-41.5 162,-41.5 162,-4.5 80,-4.5"/>
<polygon fill="none" stroke="black" points="80,-24 80,-41 162,-41 162,-24 80,-24"/>
<text text-anchor="start" x="83.5" y="-30.5" font-family="Arial" font-size="10.00"> </text>
<text text-anchor="start" x="87.5" y="-30.5" font-family="Arial" font-size="10.00"> g5 :GenericObjectPO </text>
<polygon fill="none" stroke="black" points="80,-4 80,-24 162,-24 162,-4 80,-4"/>
<text text-anchor="start" x="117.5" y="-12" font-family="Arial" font-size="10.00"> &#160;</text>
</g>
<!-- g3&#45;&#45;g5 -->
<g id="edge14" class="edge"><title>g3&#45;&#45;g5</title>
<path fill="none" stroke="black" d="M98.7261,-96.1982C103.411,-81.0123 109.633,-60.8435 114.31,-45.6835"/>
<text text-anchor="middle" x="115.677" y="-53.0897" font-family="Arial" font-size="10.00">tgt</text>
</g>
<!-- d8 -->
<g id="node9" class="node"><title>d8</title>
<text text-anchor="middle" x="27" y="-20.5" font-family="Arial" font-size="10.00" fill="red">destroy</text>
</g>
<!-- g3&#45;&#45;d8 -->
<g id="edge6" class="edge"><title>g3&#45;&#45;d8</title>
<path fill="none" stroke="red" stroke-dasharray="1,5" d="M76.9243,-96.1982C65.3733,-79.4937 49.6531,-56.7599 38.9599,-41.2958"/>
</g>
<!-- allMatches_g4 -->
<g id="node5" class="node"><title>allMatches_g4</title>
<text text-anchor="middle" x="220" y="-20.5" font-family="Arial" font-size="10.00">allMatches</text>
</g>
<!-- g4&#45;&#45;allMatches_g4 -->
<g id="edge2" class="edge"><title>g4&#45;&#45;allMatches_g4</title>
<path fill="none" stroke="black" stroke-dasharray="1,5" d="M220,-82.4626C220,-68.3212 220,-52.7053 220,-41.1727"/>
</g>
<!-- g4&#45;&#45;g5 -->
<g id="edge18" class="edge"><title>g4&#45;&#45;g5</title>
<path fill="none" stroke="green" d="M182.572,-82.4626C169.54,-70.0889 155.32,-56.5863 143.831,-45.678"/>
<text text-anchor="middle" x="153.313" y="-46.3537" font-family="Arial" font-size="10.00" fill="green">src</text>
</g>
<!-- g6 -->
<g id="node7" class="node"><title>g6</title>
<polygon fill="deepskyblue" stroke="deepskyblue" points="278,-4.5 278,-41.5 360,-41.5 360,-4.5 278,-4.5"/>
<polygon fill="none" stroke="black" points="278,-24 278,-41 360,-41 360,-24 278,-24"/>
<text text-anchor="start" x="281.5" y="-30.5" font-family="Arial" font-size="10.00"> </text>
<text text-anchor="start" x="285.5" y="-30.5" font-family="Arial" font-size="10.00"> g6 :GenericObjectPO </text>
<polygon fill="none" stroke="black" points="278,-4 278,-24 360,-24 360,-4 278,-4"/>
<text text-anchor="start" x="315.5" y="-12" font-family="Arial" font-size="10.00"> &#160;</text>
</g>
<!-- g4&#45;&#45;g6 -->
<g id="edge16" class="edge"><title>g4&#45;&#45;g6</title>
<path fill="none" stroke="black" d="M257.428,-82.4626C270.46,-70.0889 284.68,-56.5863 296.169,-45.678"/>
<text text-anchor="middle" x="292.507" y="-52.4832" font-family="Arial" font-size="10.00">tgt</text>
</g>
</g>
</svg>
