<?xml version="1.0" encoding="UTF-8" standalone="no"?>
<!DOCTYPE svg PUBLIC "-//W3C//DTD SVG 1.1//EN"
 "http://www.w3.org/Graphics/SVG/1.1/DTD/svg11.dtd">
<!-- Generated by graphviz version 2.28.0 (20110507.0327)
 -->
<!-- Title: ObjectDiagram Pages: 1 -->
<svg width="389pt" height="632pt"
 viewBox="0.00 0.00 389.00 632.00" xmlns="http://www.w3.org/2000/svg" xmlns:xlink="http://www.w3.org/1999/xlink">
<g id="graph1" class="graph" transform="scale(1 1) rotate(0) translate(4 628)">
<title>ObjectDiagram</title>
<polygon fill="white" stroke="white" points="-4,5 -4,-628 386,-628 386,5 -4,5"/>
<!-- p120 -->
<g id="node1" class="node"><title>p120</title>
<a xlink:href="../examples/org/sdmlib/examples/m2m/model/Person.java" xlink:title="&lt;TABLE&gt;">
<polygon fill="none" stroke="black" points="88,-602 88,-619 186,-619 186,-602 88,-602"/>
<text text-anchor="start" x="106" y="-608.5" font-family="Arial" font-size="10.00"> </text>
<text text-anchor="start" x="110" y="-608.5" font-family="Arial" font-size="10.00">p120 :Person</text>
</a>
<polygon fill="none" stroke="black" points="88,-554 88,-602 186,-602 186,-554 88,-554"/>
<text text-anchor="start" x="93" y="-590" font-family="Arial" font-size="10.00">text = &quot;&quot;</text>
<text text-anchor="start" x="93" y="-576" font-family="Arial" font-size="10.00">parent = &quot;&quot;</text>
<text text-anchor="start" x="93" y="-562" font-family="Arial" font-size="10.00">firstName = &quot;Albert&quot;</text>
</g>
<!-- r121 -->
<g id="node2" class="node"><title>r121</title>
<a xlink:href="../examples/org/sdmlib/examples/m2m/model/Relation.java" xlink:title="&lt;TABLE&gt;">
<polygon fill="none" stroke="black" points="20,-492 20,-509 97,-509 97,-492 20,-492"/>
<text text-anchor="start" x="26" y="-498.5" font-family="Arial" font-size="10.00"> </text>
<text text-anchor="start" x="30" y="-498.5" font-family="Arial" font-size="10.00">r121 :Relation</text>
</a>
<polygon fill="none" stroke="black" points="20,-444 20,-492 97,-492 97,-444 20,-444"/>
<text text-anchor="start" x="25" y="-480" font-family="Arial" font-size="10.00">text = &quot;&quot;</text>
<text text-anchor="start" x="25" y="-466" font-family="Arial" font-size="10.00">parent = &quot;&quot;</text>
<text text-anchor="start" x="25" y="-452" font-family="Arial" font-size="10.00">kind = &quot;knows&quot;</text>
</g>
<!-- p120&#45;&#45;r121 -->
<g id="edge2" class="edge"><title>p120&#45;&#45;r121</title>
<path fill="none" stroke="black" d="M110.914,-550.337C102.284,-538.541 92.6862,-525.419 84.0591,-513.625"/>
<text text-anchor="middle" x="92.8209" y="-515.945" font-family="Arial" font-size="10.00">outEdges</text>
<text text-anchor="middle" x="102.152" y="-543.018" font-family="Arial" font-size="10.00">src</text>
</g>
<!-- r125 -->
<g id="node6" class="node"><title>r125</title>
<a xlink:href="../examples/org/sdmlib/examples/m2m/model/Relation.java" xlink:title="&lt;TABLE&gt;">
<polygon fill="none" stroke="black" points="57,-52 57,-69 134,-69 134,-52 57,-52"/>
<text text-anchor="start" x="63" y="-58.5" font-family="Arial" font-size="10.00"> </text>
<text text-anchor="start" x="67" y="-58.5" font-family="Arial" font-size="10.00">r125 :Relation</text>
</a>
<polygon fill="none" stroke="black" points="57,-4 57,-52 134,-52 134,-4 57,-4"/>
<text text-anchor="start" x="62" y="-40" font-family="Arial" font-size="10.00">text = &quot;&quot;</text>
<text text-anchor="start" x="62" y="-26" font-family="Arial" font-size="10.00">parent = &quot;&quot;</text>
<text text-anchor="start" x="62" y="-12" font-family="Arial" font-size="10.00">kind = &quot;knows&quot;</text>
</g>
<!-- p120&#45;&#45;r125 -->
<g id="edge4" class="edge"><title>p120&#45;&#45;r125</title>
<path fill="none" stroke="black" d="M137,-550.125C137,-506.921 137,-432.151 137,-368 137,-368 137,-368 137,-256 137,-190.505 131.059,-173.968 117,-110 114.363,-98.0001 110.696,-85.1051 107.111,-73.5903"/>
<text text-anchor="middle" x="113.819" y="-78.5066" font-family="Arial" font-size="10.00">outEdges</text>
<text text-anchor="middle" x="132.774" y="-538.562" font-family="Arial" font-size="10.00">src</text>
</g>
<!-- r126 -->
<g id="node7" class="node"><title>r126</title>
<a xlink:href="../examples/org/sdmlib/examples/m2m/model/Relation.java" xlink:title="&lt;TABLE&gt;">
<polygon fill="none" stroke="black" points="177,-492 177,-509 254,-509 254,-492 177,-492"/>
<text text-anchor="start" x="183" y="-498.5" font-family="Arial" font-size="10.00"> </text>
<text text-anchor="start" x="187" y="-498.5" font-family="Arial" font-size="10.00">r126 :Relation</text>
</a>
<polygon fill="none" stroke="black" points="177,-444 177,-492 254,-492 254,-444 177,-444"/>
<text text-anchor="start" x="182" y="-480" font-family="Arial" font-size="10.00">text = &quot;&quot;</text>
<text text-anchor="start" x="182" y="-466" font-family="Arial" font-size="10.00">parent = &quot;&quot;</text>
<text text-anchor="start" x="182" y="-452" font-family="Arial" font-size="10.00">kind = &quot;knows&quot;</text>
</g>
<!-- p120&#45;&#45;r126 -->
<g id="edge6" class="edge"><title>p120&#45;&#45;r126</title>
<path fill="none" stroke="black" d="M162.756,-550.337C171.276,-538.541 180.753,-525.419 189.271,-513.625"/>
<text text-anchor="middle" x="187.39" y="-520.947" font-family="Arial" font-size="10.00">outEdges</text>
<text text-anchor="middle" x="164.637" y="-538.016" font-family="Arial" font-size="10.00">src</text>
</g>
<!-- p122 -->
<g id="node3" class="node"><title>p122</title>
<a xlink:href="../examples/org/sdmlib/examples/m2m/model/Person.java" xlink:title="&lt;TABLE&gt;">
<polygon fill="none" stroke="black" points="8,-382 8,-399 101,-399 101,-382 8,-382"/>
<text text-anchor="start" x="23.5" y="-388.5" font-family="Arial" font-size="10.00"> </text>
<text text-anchor="start" x="27.5" y="-388.5" font-family="Arial" font-size="10.00">p122 :Person</text>
</a>
<polygon fill="none" stroke="black" points="8,-334 8,-382 101,-382 101,-334 8,-334"/>
<text text-anchor="start" x="13" y="-370" font-family="Arial" font-size="10.00">text = &quot;&quot;</text>
<text text-anchor="start" x="13" y="-356" font-family="Arial" font-size="10.00">parent = &quot;&quot;</text>
<text text-anchor="start" x="13" y="-342" font-family="Arial" font-size="10.00">firstName = &quot;Gabi&quot;</text>
</g>
<!-- r121&#45;&#45;p122 -->
<g id="edge8" class="edge"><title>r121&#45;&#45;p122</title>
<path fill="none" stroke="black" d="M56.6792,-440.337C56.2422,-428.541 55.7563,-415.419 55.3194,-403.625"/>
<text text-anchor="middle" x="59.8782" y="-410.026" font-family="Arial" font-size="10.00">tgt</text>
<text text-anchor="middle" x="52.1204" y="-428.937" font-family="Arial" font-size="10.00">inEdges</text>
</g>
<!-- r123 -->
<g id="node4" class="node"><title>r123</title>
<a xlink:href="../examples/org/sdmlib/examples/m2m/model/Relation.java" xlink:title="&lt;TABLE&gt;">
<polygon fill="none" stroke="black" points="16,-272 16,-289 93,-289 93,-272 16,-272"/>
<text text-anchor="start" x="22" y="-278.5" font-family="Arial" font-size="10.00"> </text>
<text text-anchor="start" x="26" y="-278.5" font-family="Arial" font-size="10.00">r123 :Relation</text>
</a>
<polygon fill="none" stroke="black" points="16,-224 16,-272 93,-272 93,-224 16,-224"/>
<text text-anchor="start" x="21" y="-260" font-family="Arial" font-size="10.00">text = &quot;&quot;</text>
<text text-anchor="start" x="21" y="-246" font-family="Arial" font-size="10.00">parent = &quot;&quot;</text>
<text text-anchor="start" x="21" y="-232" font-family="Arial" font-size="10.00">kind = &quot;knows&quot;</text>
</g>
<!-- p122&#45;&#45;r123 -->
<g id="edge10" class="edge"><title>p122&#45;&#45;r123</title>
<path fill="none" stroke="black" d="M54,-330.337C54,-318.541 54,-305.419 54,-293.625"/>
<text text-anchor="middle" x="58.2262" y="-300.188" font-family="Arial" font-size="10.00">inEdges</text>
<text text-anchor="middle" x="49.7738" y="-318.774" font-family="Arial" font-size="10.00">tgt</text>
</g>
<!-- p124 -->
<g id="node5" class="node"><title>p124</title>
<a xlink:href="../examples/org/sdmlib/examples/m2m/model/Person.java" xlink:title="&lt;TABLE&gt;">
<polygon fill="none" stroke="black" points="8,-162 8,-179 101,-179 101,-162 8,-162"/>
<text text-anchor="start" x="23.5" y="-168.5" font-family="Arial" font-size="10.00"> </text>
<text text-anchor="start" x="27.5" y="-168.5" font-family="Arial" font-size="10.00">p124 :Person</text>
</a>
<polygon fill="none" stroke="black" points="8,-114 8,-162 101,-162 101,-114 8,-114"/>
<text text-anchor="start" x="13" y="-150" font-family="Arial" font-size="10.00">text = &quot;&quot;</text>
<text text-anchor="start" x="13" y="-136" font-family="Arial" font-size="10.00">parent = &quot;&quot;</text>
<text text-anchor="start" x="13" y="-122" font-family="Arial" font-size="10.00">firstName = &quot;Jens&quot;</text>
</g>
<!-- r123&#45;&#45;p124 -->
<g id="edge12" class="edge"><title>r123&#45;&#45;p124</title>
<path fill="none" stroke="black" d="M54,-220.337C54,-208.541 54,-195.419 54,-183.625"/>
<text text-anchor="middle" x="58.2262" y="-190.188" font-family="Arial" font-size="10.00">src</text>
<text text-anchor="middle" x="49.7738" y="-208.774" font-family="Arial" font-size="10.00">outEdges</text>
</g>
<!-- p124&#45;&#45;r125 -->
<g id="edge14" class="edge"><title>p124&#45;&#45;r125</title>
<path fill="none" stroke="black" d="M67.5386,-110.337C72.017,-98.5407 76.9983,-85.4191 81.4757,-73.6251"/>
<text text-anchor="middle" x="82.2101" y="-81.0981" font-family="Arial" font-size="10.00">inEdges</text>
<text text-anchor="middle" x="66.8041" y="-97.8645" font-family="Arial" font-size="10.00">tgt</text>
</g>
<!-- p127 -->
<g id="node8" class="node"><title>p127</title>
<a xlink:href="../examples/org/sdmlib/examples/m2m/model/Person.java" xlink:title="&lt;TABLE&gt;">
<polygon fill="none" stroke="black" points="173,-382 173,-399 265,-399 265,-382 173,-382"/>
<text text-anchor="start" x="188" y="-388.5" font-family="Arial" font-size="10.00"> </text>
<text text-anchor="start" x="192" y="-388.5" font-family="Arial" font-size="10.00">p127 :Person</text>
</a>
<polygon fill="none" stroke="black" points="173,-334 173,-382 265,-382 265,-334 173,-334"/>
<text text-anchor="start" x="178" y="-370" font-family="Arial" font-size="10.00">text = &quot;&quot;</text>
<text text-anchor="start" x="178" y="-356" font-family="Arial" font-size="10.00">parent = &quot;&quot;</text>
<text text-anchor="start" x="178" y="-342" font-family="Arial" font-size="10.00">firstName = &quot;Nina&quot;</text>
</g>
<!-- r126&#45;&#45;p127 -->
<g id="edge16" class="edge"><title>r126&#45;&#45;p127</title>
<path fill="none" stroke="black" d="M216.321,-440.337C216.758,-428.541 217.244,-415.419 217.681,-403.625"/>
<text text-anchor="middle" x="221.568" y="-410.338" font-family="Arial" font-size="10.00">tgt</text>
<text text-anchor="middle" x="212.433" y="-428.624" font-family="Arial" font-size="10.00">inEdges</text>
</g>
<!-- p128 -->
<g id="node9" class="node"><title>p128</title>
<a xlink:href="../examples/org/sdmlib/examples/m2m/model/Person.java" xlink:title="&lt;TABLE&gt;">
<polygon fill="none" stroke="black" points="279,-602 279,-619 374,-619 374,-602 279,-602"/>
<text text-anchor="start" x="295.5" y="-608.5" font-family="Arial" font-size="10.00"> </text>
<text text-anchor="start" x="299.5" y="-608.5" font-family="Arial" font-size="10.00">p128 :Person</text>
</a>
<polygon fill="none" stroke="black" points="279,-554 279,-602 374,-602 374,-554 279,-554"/>
<text text-anchor="start" x="284" y="-590" font-family="Arial" font-size="10.00">text = &quot;&quot;</text>
<text text-anchor="start" x="284" y="-576" font-family="Arial" font-size="10.00">parent = &quot;&quot;</text>
<text text-anchor="start" x="284" y="-562" font-family="Arial" font-size="10.00">firstName = &quot;Nerdi&quot;</text>
</g>
<!-- r129 -->
<g id="node10" class="node"><title>r129</title>
<a xlink:href="../examples/org/sdmlib/examples/m2m/model/Relation.java" xlink:title="&lt;TABLE&gt;">
<polygon fill="none" stroke="black" points="288,-492 288,-509 365,-509 365,-492 288,-492"/>
<text text-anchor="start" x="294" y="-498.5" font-family="Arial" font-size="10.00"> </text>
<text text-anchor="start" x="298" y="-498.5" font-family="Arial" font-size="10.00">r129 :Relation</text>
</a>
<polygon fill="none" stroke="black" points="288,-444 288,-492 365,-492 365,-444 288,-444"/>
<text text-anchor="start" x="293" y="-480" font-family="Arial" font-size="10.00">text = &quot;&quot;</text>
<text text-anchor="start" x="293" y="-466" font-family="Arial" font-size="10.00">parent = &quot;&quot;</text>
<text text-anchor="start" x="293" y="-452" font-family="Arial" font-size="10.00">kind = &quot;knows&quot;</text>
</g>
<!-- p128&#45;&#45;r129 -->
<g id="edge18" class="edge"><title>p128&#45;&#45;r129</title>
<path fill="none" stroke="black" d="M326,-550.337C326,-538.541 326,-525.419 326,-513.625"/>
<text text-anchor="middle" x="330.226" y="-520.188" font-family="Arial" font-size="10.00">inEdges_outEdges</text>
<text text-anchor="middle" x="321.774" y="-538.774" font-family="Arial" font-size="10.00">tgt_src</text>
</g>
</g>
</svg>
