<?xml version="1.0" encoding="UTF-8" standalone="no"?>
<!DOCTYPE svg PUBLIC "-//W3C//DTD SVG 1.1//EN"
 "http://www.w3.org/Graphics/SVG/1.1/DTD/svg11.dtd">
<!-- Generated by graphviz version 2.28.0 (20110507.0327)
 -->
<!-- Title: ObjectDiagram Pages: 1 -->
<svg width="194pt" height="246pt"
 viewBox="0.00 0.00 194.00 246.00" xmlns="http://www.w3.org/2000/svg" xmlns:xlink="http://www.w3.org/1999/xlink">
<g id="graph1" class="graph" transform="scale(1 1) rotate(0) translate(4 242)">
<title>ObjectDiagram</title>
<polygon fill="white" stroke="white" points="-4,5 -4,-242 191,-242 191,5 -4,5"/>
<!-- g1 -->
<g id="node1" class="node"><title>g1</title>
<polygon fill="deepskyblue" stroke="deepskyblue" points="47.5,-182.5 47.5,-233.5 138.5,-233.5 138.5,-182.5 47.5,-182.5"/>
<text text-anchor="start" x="105" y="-223.5" font-family="Arial" font-size="10.00">«bound»</text>
<polygon fill="none" stroke="black" points="48,-202 48,-218 139,-218 139,-202 48,-202"/>
<text text-anchor="start" x="51.5" y="-208" font-family="Arial" font-size="10.00"> </text>
<text text-anchor="start" x="55.5" y="-208" font-family="Arial" font-size="10.00"> g1 :GenericGraphPO </text>
<polygon fill="none" stroke="black" points="48,-182 48,-202 139,-202 139,-182 48,-182"/>
<text text-anchor="start" x="90" y="-190" font-family="Arial" font-size="10.00"> &#160;</text>
</g>
<!-- g2 -->
<g id="node2" class="node"><title>g2</title>
<polygon fill="deepskyblue" stroke="deepskyblue" points="7.5,-100.5 7.5,-137.5 178.5,-137.5 178.5,-100.5 7.5,-100.5"/>
<polygon fill="none" stroke="black" points="8,-120 8,-137 179,-137 179,-120 8,-120"/>
<text text-anchor="start" x="51" y="-126.5" font-family="Arial" font-size="10.00"> </text>
<text text-anchor="start" x="55" y="-126.5" font-family="Arial" font-size="10.00"> g2 :GenericObjectPO </text>
<polygon fill="none" stroke="black" points="8,-100 8,-120 179,-120 179,-100 8,-100"/>
<text text-anchor="start" x="13.5" y="-108" font-family="Arial" font-size="10.00"> type == &quot;org.sdmlib.examples.m2m.Person&quot; </text>
</g>
<!-- g1&#45;&#45;g2 -->
<g id="edge2" class="edge"><title>g1&#45;&#45;g2</title>
<path fill="none" stroke="black" d="M93,-178.03C93,-166.167 93,-152.675 93,-141.687"/>
<text text-anchor="middle" x="97.2262" y="-148.25" font-family="Arial" font-size="10.00">objects</text>
</g>
<!-- g3 -->
<g id="node3" class="node"><title>g3</title>
<polygon fill="deepskyblue" stroke="deepskyblue" points="33.5,-4.5 33.5,-55.5 152.5,-55.5 152.5,-4.5 33.5,-4.5"/>
<polygon fill="none" stroke="black" points="34,-38 34,-55 153,-55 153,-38 34,-38"/>
<text text-anchor="start" x="37.5" y="-44.5" font-family="Arial" font-size="10.00"> </text>
<text text-anchor="start" x="41.5" y="-44.5" font-family="Arial" font-size="10.00"> g3 :GenericAttributePO </text>
<polygon fill="none" stroke="black" points="34,-4 34,-38 153,-38 153,-4 34,-4"/>
<text text-anchor="start" x="45" y="-26" font-family="Arial" font-size="10.00"> name == &quot;firstName&quot; </text>
<text text-anchor="start" x="58.5" y="-12" font-family="Arial" font-size="10.00" fill="green"> name := &quot;text&quot; </text>
</g>
<!-- g2&#45;&#45;g3 -->
<g id="edge4" class="edge"><title>g2&#45;&#45;g3</title>
<path fill="none" stroke="black" d="M93,-96.4944C93,-85.4243 93,-71.7752 93,-59.8074"/>
<text text-anchor="middle" x="97.2262" y="-66.3705" font-family="Arial" font-size="10.00">attrs</text>
</g>
</g>
</svg>
