<?xml version="1.0" encoding="UTF-8" standalone="no"?>
<!DOCTYPE svg PUBLIC "-//W3C//DTD SVG 1.1//EN"
 "http://www.w3.org/Graphics/SVG/1.1/DTD/svg11.dtd">
<!-- Generated by graphviz version 2.28.0 (20110507.0327)
 -->
<!-- Title: ObjectDiagram Pages: 1 -->
<svg width="299pt" height="302pt"
 viewBox="0.00 0.00 298.77 302.00" xmlns="http://www.w3.org/2000/svg" xmlns:xlink="http://www.w3.org/1999/xlink">
<g id="graph1" class="graph" transform="scale(1 1) rotate(0) translate(4 298)">
<title>ObjectDiagram</title>
<polygon fill="white" stroke="white" points="-4,5 -4,-298 295.775,-298 295.775,5 -4,5"/>
<!-- p82 -->
<g id="node1" class="node"><title>p82</title>
<a xlink:href="../examples/org/sdmlib/examples/m2m/Person.java" xlink:title="&lt;TABLE&gt;">
<polygon fill="none" stroke="black" points="80,-272 80,-289 153,-289 153,-272 80,-272"/>
<text text-anchor="start" x="88" y="-278.5" font-family="Arial" font-size="10.00"> </text>
<text text-anchor="start" x="92" y="-278.5" font-family="Arial" font-size="10.00">p82 :Person</text>
</a>
<polygon fill="none" stroke="black" points="80,-224 80,-272 153,-272 153,-224 80,-224"/>
<text text-anchor="start" x="85" y="-260" font-family="Arial" font-size="10.00">text = &quot;Albert&quot;</text>
<text text-anchor="start" x="85" y="-246" font-family="Arial" font-size="10.00">firstName = &quot;&quot;</text>
<text text-anchor="start" x="85" y="-232" font-family="Arial" font-size="10.00">parent = &quot;&quot;</text>
</g>
<!-- p83 -->
<g id="node2" class="node"><title>p83</title>
<a xlink:href="../examples/org/sdmlib/examples/m2m/Person.java" xlink:title="&lt;TABLE&gt;">
<polygon fill="none" stroke="black" points="8,-162 8,-179 80,-179 80,-162 8,-162"/>
<text text-anchor="start" x="15.5" y="-168.5" font-family="Arial" font-size="10.00"> </text>
<text text-anchor="start" x="19.5" y="-168.5" font-family="Arial" font-size="10.00">p83 :Person</text>
</a>
<polygon fill="none" stroke="black" points="8,-114 8,-162 80,-162 80,-114 8,-114"/>
<text text-anchor="start" x="13" y="-150" font-family="Arial" font-size="10.00">text = &quot;Gabi&quot;</text>
<text text-anchor="start" x="13" y="-136" font-family="Arial" font-size="10.00">firstName = &quot;&quot;</text>
<text text-anchor="start" x="13" y="-122" font-family="Arial" font-size="10.00">parent = &quot;&quot;</text>
</g>
<!-- p82&#45;&#45;p83 -->
<g id="edge2" class="edge"><title>p82&#45;&#45;p83</title>
<path fill="none" stroke="black" d="M92.225,-220.337C84.3605,-208.541 75.6127,-195.419 67.7501,-183.625"/>
<text text-anchor="middle" x="76.2938" y="-186.322" font-family="Arial" font-size="10.00">knows</text>
<text text-anchor="middle" x="83.6813" y="-212.641" font-family="Arial" font-size="10.00">knows</text>
</g>
<!-- p84 -->
<g id="node3" class="node"><title>p84</title>
<a xlink:href="../examples/org/sdmlib/examples/m2m/Person.java" xlink:title="&lt;TABLE&gt;">
<polygon fill="none" stroke="black" points="44,-52 44,-69 116,-69 116,-52 44,-52"/>
<text text-anchor="start" x="51.5" y="-58.5" font-family="Arial" font-size="10.00"> </text>
<text text-anchor="start" x="55.5" y="-58.5" font-family="Arial" font-size="10.00">p84 :Person</text>
</a>
<polygon fill="none" stroke="black" points="44,-4 44,-52 116,-52 116,-4 44,-4"/>
<text text-anchor="start" x="49" y="-40" font-family="Arial" font-size="10.00">text = &quot;Jens&quot;</text>
<text text-anchor="start" x="49" y="-26" font-family="Arial" font-size="10.00">firstName = &quot;&quot;</text>
<text text-anchor="start" x="49" y="-12" font-family="Arial" font-size="10.00">parent = &quot;&quot;</text>
</g>
<!-- p82&#45;&#45;p84 -->
<g id="edge4" class="edge"><title>p82&#45;&#45;p84</title>
<path fill="none" stroke="black" d="M112.403,-220.439C109.156,-190.778 103.842,-147.466 97,-110 94.831,-98.1234 91.9628,-85.2611 89.2013,-73.7383"/>
<text text-anchor="middle" x="95.4092" y="-79.0782" font-family="Arial" font-size="10.00">knows</text>
<text text-anchor="middle" x="107.199" y="-209.4" font-family="Arial" font-size="10.00">knows</text>
</g>
<!-- p85 -->
<g id="node4" class="node"><title>p85</title>
<a xlink:href="../examples/org/sdmlib/examples/m2m/Person.java" xlink:title="&lt;TABLE&gt;">
<polygon fill="none" stroke="black" points="152,-162 152,-179 224,-179 224,-162 152,-162"/>
<text text-anchor="start" x="159.5" y="-168.5" font-family="Arial" font-size="10.00"> </text>
<text text-anchor="start" x="163.5" y="-168.5" font-family="Arial" font-size="10.00">p85 :Person</text>
</a>
<polygon fill="none" stroke="black" points="152,-114 152,-162 224,-162 224,-114 152,-114"/>
<text text-anchor="start" x="157" y="-150" font-family="Arial" font-size="10.00">text = &quot;Nina&quot;</text>
<text text-anchor="start" x="157" y="-136" font-family="Arial" font-size="10.00">firstName = &quot;&quot;</text>
<text text-anchor="start" x="157" y="-122" font-family="Arial" font-size="10.00">parent = &quot;&quot;</text>
</g>
<!-- p82&#45;&#45;p85 -->
<g id="edge6" class="edge"><title>p82&#45;&#45;p85</title>
<path fill="none" stroke="black" d="M139.775,-220.337C147.64,-208.541 156.387,-195.419 164.25,-183.625"/>
<text text-anchor="middle" x="162.739" y="-191.01" font-family="Arial" font-size="10.00">knows</text>
<text text-anchor="middle" x="141.286" y="-207.952" font-family="Arial" font-size="10.00">knows</text>
</g>
<!-- p83&#45;&#45;p84 -->
<g id="edge8" class="edge"><title>p83&#45;&#45;p84</title>
<path fill="none" stroke="black" d="M55.8875,-110.337C59.8198,-98.5407 64.1936,-85.4191 68.125,-73.6251"/>
<text text-anchor="middle" x="69.2683" y="-81.0595" font-family="Arial" font-size="10.00">knows</text>
<text text-anchor="middle" x="54.7442" y="-97.903" font-family="Arial" font-size="10.00">knows</text>
</g>
<!-- p86 -->
<g id="node5" class="node"><title>p86</title>
<a xlink:href="../examples/org/sdmlib/examples/m2m/Person.java" xlink:title="&lt;TABLE&gt;">
<polygon fill="none" stroke="black" points="187,-272 187,-289 259,-289 259,-272 187,-272"/>
<text text-anchor="start" x="194.5" y="-278.5" font-family="Arial" font-size="10.00"> </text>
<text text-anchor="start" x="198.5" y="-278.5" font-family="Arial" font-size="10.00">p86 :Person</text>
</a>
<polygon fill="none" stroke="black" points="187,-224 187,-272 259,-272 259,-224 187,-224"/>
<text text-anchor="start" x="192" y="-260" font-family="Arial" font-size="10.00">text = &quot;Nerdi&quot;</text>
<text text-anchor="start" x="192" y="-246" font-family="Arial" font-size="10.00">firstName = &quot;&quot;</text>
<text text-anchor="start" x="192" y="-232" font-family="Arial" font-size="10.00">parent = &quot;&quot;</text>
</g>
<!-- p86&#45;&#45;p86 -->
<g id="edge10" class="edge"><title>p86&#45;&#45;p86</title>
<path fill="none" stroke="black" d="M267.024,-277.217C277.369,-275.555 285,-268.816 285,-257 285,-245.184 277.369,-238.445 267.024,-236.783"/>
<text text-anchor="middle" x="276.775" y="-232.063" font-family="Arial" font-size="10.00">knows</text>
</g>
</g>
</svg>
