<?xml version="1.0" encoding="UTF-8" standalone="no"?>
<!DOCTYPE svg PUBLIC "-//W3C//DTD SVG 1.1//EN"
 "http://www.w3.org/Graphics/SVG/1.1/DTD/svg11.dtd">
<!-- Generated by graphviz version 2.28.0 (20110507.0327)
 -->
<!-- Title: ObjectDiagram Pages: 1 -->
<svg width="198pt" height="246pt"
 viewBox="0.00 0.00 198.00 246.00" xmlns="http://www.w3.org/2000/svg" xmlns:xlink="http://www.w3.org/1999/xlink">
<g id="graph1" class="graph" transform="scale(1 1) rotate(0) translate(4 242)">
<title>ObjectDiagram</title>
<polygon fill="white" stroke="white" points="-4,5 -4,-242 195,-242 195,5 -4,5"/>
<!-- g1 -->
<g id="node1" class="node"><title>g1</title>
<polygon fill="deepskyblue" stroke="deepskyblue" points="49.5,-182.5 49.5,-233.5 140.5,-233.5 140.5,-182.5 49.5,-182.5"/>
<text text-anchor="start" x="107" y="-223.5" font-family="Arial" font-size="10.00">«bound»</text>
<polygon fill="none" stroke="black" points="50,-202 50,-218 141,-218 141,-202 50,-202"/>
<text text-anchor="start" x="53.5" y="-208" font-family="Arial" font-size="10.00"> </text>
<text text-anchor="start" x="57.5" y="-208" font-family="Arial" font-size="10.00"> g1 :GenericGraphPO </text>
<polygon fill="none" stroke="black" points="50,-182 50,-202 141,-202 141,-182 50,-182"/>
<text text-anchor="start" x="92" y="-190" font-family="Arial" font-size="10.00"> &#160;</text>
</g>
<!-- g2 -->
<g id="node2" class="node"><title>g2</title>
<polygon fill="deepskyblue" stroke="deepskyblue" points="8,-100.5 8,-137.5 182,-137.5 182,-100.5 8,-100.5"/>
<polygon fill="none" stroke="black" points="8,-120 8,-137 182,-137 182,-120 8,-120"/>
<text text-anchor="start" x="52.5" y="-126.5" font-family="Arial" font-size="10.00"> </text>
<text text-anchor="start" x="56.5" y="-126.5" font-family="Arial" font-size="10.00"> g2 :GenericObjectPO </text>
<polygon fill="none" stroke="black" points="8,-100 8,-120 182,-120 182,-100 8,-100"/>
<text text-anchor="start" x="13.5" y="-108" font-family="Arial" font-size="10.00"> type == &quot;org.sdmlib.examples.m2m.Relation&quot; </text>
</g>
<!-- g1&#45;&#45;g2 -->
<g id="edge2" class="edge"><title>g1&#45;&#45;g2</title>
<path fill="none" stroke="black" d="M95,-178.03C95,-166.167 95,-152.675 95,-141.687"/>
<text text-anchor="middle" x="99.2262" y="-148.25" font-family="Arial" font-size="10.00">objects</text>
</g>
<!-- g3 -->
<g id="node3" class="node"><title>g3</title>
<polygon fill="deepskyblue" stroke="deepskyblue" points="35.5,-4.5 35.5,-55.5 154.5,-55.5 154.5,-4.5 35.5,-4.5"/>
<polygon fill="none" stroke="black" points="36,-38 36,-55 155,-55 155,-38 36,-38"/>
<text text-anchor="start" x="39.5" y="-44.5" font-family="Arial" font-size="10.00"> </text>
<text text-anchor="start" x="43.5" y="-44.5" font-family="Arial" font-size="10.00"> g3 :GenericAttributePO </text>
<polygon fill="none" stroke="black" points="36,-4 36,-38 155,-38 155,-4 36,-4"/>
<text text-anchor="start" x="59" y="-26" font-family="Arial" font-size="10.00"> name == &quot;text&quot; </text>
<text text-anchor="start" x="60" y="-12" font-family="Arial" font-size="10.00" fill="green"> name := &quot;kind&quot; </text>
</g>
<!-- g2&#45;&#45;g3 -->
<g id="edge4" class="edge"><title>g2&#45;&#45;g3</title>
<path fill="none" stroke="black" d="M95,-96.4944C95,-85.4243 95,-71.7752 95,-59.8074"/>
<text text-anchor="middle" x="99.2262" y="-66.3705" font-family="Arial" font-size="10.00">attrs</text>
</g>
</g>
</svg>
