<?xml version="1.0" encoding="UTF-8" standalone="no"?>
<!DOCTYPE svg PUBLIC "-//W3C//DTD SVG 1.1//EN"
 "http://www.w3.org/Graphics/SVG/1.1/DTD/svg11.dtd">
<!-- Generated by graphviz version 2.28.0 (20110507.0327)
 -->
<!-- Title: ObjectDiagram Pages: 1 -->
<svg width="1318pt" height="1076pt"
 viewBox="0.00 0.00 1318.49 1076.00" xmlns="http://www.w3.org/2000/svg" xmlns:xlink="http://www.w3.org/1999/xlink">
<g id="graph1" class="graph" transform="scale(1 1) rotate(0) translate(4 1072)">
<title>ObjectDiagram</title>
<polygon fill="white" stroke="white" points="-4,5 -4,-1072 1315.49,-1072 1315.49,5 -4,5"/>
<!-- t9 -->
<g id="node1" class="node"><title>t9</title>
<a xlink:href="../../SDMLib/src/org/sdmlib/models/transformations/Template.java" xlink:title="&lt;TABLE&gt;">
<polygon fill="none" stroke="black" points="308.49,-1046 308.49,-1063 807.49,-1063 807.49,-1046 308.49,-1046"/>
<text text-anchor="start" x="528.49" y="-1052.5" font-family="Arial" font-size="10.00"> </text>
<text text-anchor="start" x="532.49" y="-1052.5" font-family="Arial" font-size="10.00">t9 :Template</text>
</a>
<polygon fill="none" stroke="black" points="308.49,-942 308.49,-1046 807.49,-1046 807.49,-942 308.49,-942"/>
<text text-anchor="start" x="313.49" y="-1034" font-family="Arial" font-size="10.00">templateText = &quot;The example University has 99 rooms and 88 students: roomList The students are: studentList &quot;</text>
<text text-anchor="start" x="313.49" y="-1020" font-family="Arial" font-size="10.00">modelClassName = &quot;&quot;</text>
<text text-anchor="start" x="313.49" y="-1006" font-family="Arial" font-size="10.00">placeholderDescription = &quot;&quot;</text>
<text text-anchor="start" x="313.49" y="-992" font-family="Arial" font-size="10.00">expandedText = &quot;&quot;</text>
<text text-anchor="start" x="313.49" y="-978" font-family="Arial" font-size="10.00">listStart = &quot;&quot;</text>
<text text-anchor="start" x="313.49" y="-964" font-family="Arial" font-size="10.00">listSeparator = &quot;&quot;</text>
<text text-anchor="start" x="313.49" y="-950" font-family="Arial" font-size="10.00">listEnd = &quot;&quot;</text>
</g>
<!-- u1 -->
<g id="node2" class="node"><title>u1</title>
<a xlink:href="../examples/org/sdmlib/examples/studyright/University.java" xlink:title="&lt;TABLE&gt;">
<polygon fill="none" stroke="black" points="100.49,-852 100.49,-869 203.49,-869 203.49,-852 100.49,-852"/>
<text text-anchor="start" x="120.49" y="-858.5" font-family="Arial" font-size="10.00"> </text>
<text text-anchor="start" x="124.49" y="-858.5" font-family="Arial" font-size="10.00">u1 :University</text>
</a>
<polygon fill="none" stroke="black" points="100.49,-832 100.49,-852 203.49,-852 203.49,-832 100.49,-832"/>
<text text-anchor="start" x="105.49" y="-840" font-family="Arial" font-size="10.00">name = &quot;StudyRight&quot;</text>
</g>
<!-- t9&#45;&#45;u1 -->
<g id="edge2" class="edge"><title>t9&#45;&#45;u1</title>
<path fill="none" stroke="black" d="M306.371,-938.386C276.489,-927.713 246.895,-915.607 219.49,-902 204.265,-894.441 188.876,-883.466 176.597,-873.723"/>
<text text-anchor="middle" x="186.338" y="-873.484" font-family="Arial" font-size="10.00">modelObject</text>
</g>
<!-- p10 -->
<g id="node10" class="node"><title>p10</title>
<a xlink:href="../../SDMLib/src/org/sdmlib/models/transformations/PlaceHolderDescription.java" xlink:title="&lt;TABLE&gt;">
<polygon fill="none" stroke="black" points="237.49,-880 237.49,-897 372.49,-897 372.49,-880 237.49,-880"/>
<text text-anchor="start" x="240.99" y="-886.5" font-family="Arial" font-size="10.00"> </text>
<text text-anchor="start" x="244.99" y="-886.5" font-family="Arial" font-size="10.00">p10 :PlaceHolderDescription</text>
</a>
<polygon fill="none" stroke="black" points="237.49,-804 237.49,-880 372.49,-880 372.49,-804 237.49,-804"/>
<text text-anchor="start" x="242.49" y="-868" font-family="Arial" font-size="10.00">textFragment = &quot;example&quot;</text>
<text text-anchor="start" x="242.49" y="-854" font-family="Arial" font-size="10.00">value = &quot;&quot;</text>
<text text-anchor="start" x="242.49" y="-840" font-family="Arial" font-size="10.00">attrName = &quot;name&quot;</text>
<text text-anchor="start" x="242.49" y="-826" font-family="Arial" font-size="10.00">subTemplate = &quot;&quot;</text>
<text text-anchor="start" x="242.49" y="-812" font-family="Arial" font-size="10.00">isKeyAttribute = &quot;false&quot;</text>
</g>
<!-- t9&#45;&#45;p10 -->
<g id="edge4" class="edge"><title>t9&#45;&#45;p10</title>
<path fill="none" stroke="black" d="M449.73,-938.294C429.382,-926.248 408.279,-913.745 388.49,-902 385.717,-900.354 382.893,-898.677 380.04,-896.983"/>
<text text-anchor="middle" x="389.991" y="-895.478" font-family="Arial" font-size="10.00">placeholders</text>
<text text-anchor="middle" x="439.778" y="-934.813" font-family="Arial" font-size="10.00">template</text>
</g>
<!-- p11 -->
<g id="node11" class="node"><title>p11</title>
<a xlink:href="../../SDMLib/src/org/sdmlib/models/transformations/PlaceHolderDescription.java" xlink:title="&lt;TABLE&gt;">
<polygon fill="none" stroke="black" points="406.49,-880 406.49,-897 541.49,-897 541.49,-880 406.49,-880"/>
<text text-anchor="start" x="409.99" y="-886.5" font-family="Arial" font-size="10.00"> </text>
<text text-anchor="start" x="413.99" y="-886.5" font-family="Arial" font-size="10.00">p11 :PlaceHolderDescription</text>
</a>
<polygon fill="none" stroke="black" points="406.49,-804 406.49,-880 541.49,-880 541.49,-804 406.49,-804"/>
<text text-anchor="start" x="411.49" y="-868" font-family="Arial" font-size="10.00">textFragment = &quot;99&quot;</text>
<text text-anchor="start" x="411.49" y="-854" font-family="Arial" font-size="10.00">value = &quot;&quot;</text>
<text text-anchor="start" x="411.49" y="-840" font-family="Arial" font-size="10.00">attrName = &quot;rooms.size&quot;</text>
<text text-anchor="start" x="411.49" y="-826" font-family="Arial" font-size="10.00">subTemplate = &quot;&quot;</text>
<text text-anchor="start" x="411.49" y="-812" font-family="Arial" font-size="10.00">isKeyAttribute = &quot;false&quot;</text>
</g>
<!-- t9&#45;&#45;p11 -->
<g id="edge6" class="edge"><title>t9&#45;&#45;p11</title>
<path fill="none" stroke="black" d="M521.866,-938.386C514.98,-926.09 507.86,-913.375 501.269,-901.606"/>
<text text-anchor="middle" x="509.385" y="-904.949" font-family="Arial" font-size="10.00">placeholders</text>
<text text-anchor="middle" x="513.751" y="-930.044" font-family="Arial" font-size="10.00">template</text>
</g>
<!-- p12 -->
<g id="node12" class="node"><title>p12</title>
<a xlink:href="../../SDMLib/src/org/sdmlib/models/transformations/PlaceHolderDescription.java" xlink:title="&lt;TABLE&gt;">
<polygon fill="none" stroke="black" points="575.49,-880 575.49,-897 710.49,-897 710.49,-880 575.49,-880"/>
<text text-anchor="start" x="578.99" y="-886.5" font-family="Arial" font-size="10.00"> </text>
<text text-anchor="start" x="582.99" y="-886.5" font-family="Arial" font-size="10.00">p12 :PlaceHolderDescription</text>
</a>
<polygon fill="none" stroke="black" points="575.49,-804 575.49,-880 710.49,-880 710.49,-804 575.49,-804"/>
<text text-anchor="start" x="580.49" y="-868" font-family="Arial" font-size="10.00">textFragment = &quot;88&quot;</text>
<text text-anchor="start" x="580.49" y="-854" font-family="Arial" font-size="10.00">value = &quot;&quot;</text>
<text text-anchor="start" x="580.49" y="-840" font-family="Arial" font-size="10.00">attrName = &quot;students.size&quot;</text>
<text text-anchor="start" x="580.49" y="-826" font-family="Arial" font-size="10.00">subTemplate = &quot;&quot;</text>
<text text-anchor="start" x="580.49" y="-812" font-family="Arial" font-size="10.00">isKeyAttribute = &quot;false&quot;</text>
</g>
<!-- t9&#45;&#45;p12 -->
<g id="edge8" class="edge"><title>t9&#45;&#45;p12</title>
<path fill="none" stroke="black" d="M593.537,-938.386C600.506,-926.09 607.711,-913.375 614.38,-901.606"/>
<text text-anchor="middle" x="613.588" y="-909.075" font-family="Arial" font-size="10.00">placeholders</text>
<text text-anchor="middle" x="594.329" y="-925.918" font-family="Arial" font-size="10.00">template</text>
</g>
<!-- p13 -->
<g id="node13" class="node"><title>p13</title>
<a xlink:href="../../SDMLib/src/org/sdmlib/models/transformations/PlaceHolderDescription.java" xlink:title="&lt;TABLE&gt;">
<polygon fill="none" stroke="black" points="744.49,-873 744.49,-890 879.49,-890 879.49,-873 744.49,-873"/>
<text text-anchor="start" x="747.99" y="-879.5" font-family="Arial" font-size="10.00"> </text>
<text text-anchor="start" x="751.99" y="-879.5" font-family="Arial" font-size="10.00">p13 :PlaceHolderDescription</text>
</a>
<polygon fill="none" stroke="black" points="744.49,-811 744.49,-873 879.49,-873 879.49,-811 744.49,-811"/>
<text text-anchor="start" x="749.49" y="-861" font-family="Arial" font-size="10.00">textFragment = &quot;roomList&quot;</text>
<text text-anchor="start" x="749.49" y="-847" font-family="Arial" font-size="10.00">value = &quot;&quot;</text>
<text text-anchor="start" x="749.49" y="-833" font-family="Arial" font-size="10.00">attrName = &quot;rooms&quot;</text>
<text text-anchor="start" x="749.49" y="-819" font-family="Arial" font-size="10.00">isKeyAttribute = &quot;false&quot;</text>
</g>
<!-- t9&#45;&#45;p13 -->
<g id="edge10" class="edge"><title>t9&#45;&#45;p13</title>
<path fill="none" stroke="black" d="M665.209,-938.386C690.223,-923.614 716.258,-908.239 739.311,-894.625"/>
<text text-anchor="middle" x="733.657" y="-900.373" font-family="Arial" font-size="10.00">placeholders</text>
<text text-anchor="middle" x="670.863" y="-927.639" font-family="Arial" font-size="10.00">template</text>
</g>
<!-- p20 -->
<g id="node20" class="node"><title>p20</title>
<a xlink:href="../../SDMLib/src/org/sdmlib/models/transformations/PlaceHolderDescription.java" xlink:title="&lt;TABLE&gt;">
<polygon fill="none" stroke="black" points="914.49,-873 914.49,-890 1051.49,-890 1051.49,-873 914.49,-873"/>
<text text-anchor="start" x="918.99" y="-879.5" font-family="Arial" font-size="10.00"> </text>
<text text-anchor="start" x="922.99" y="-879.5" font-family="Arial" font-size="10.00">p20 :PlaceHolderDescription</text>
</a>
<polygon fill="none" stroke="black" points="914.49,-811 914.49,-873 1051.49,-873 1051.49,-811 914.49,-811"/>
<text text-anchor="start" x="919.49" y="-861" font-family="Arial" font-size="10.00">textFragment = &quot;studentList&quot;</text>
<text text-anchor="start" x="919.49" y="-847" font-family="Arial" font-size="10.00">value = &quot;&quot;</text>
<text text-anchor="start" x="919.49" y="-833" font-family="Arial" font-size="10.00">attrName = &quot;students&quot;</text>
<text text-anchor="start" x="919.49" y="-819" font-family="Arial" font-size="10.00">isKeyAttribute = &quot;false&quot;</text>
</g>
<!-- t9&#45;&#45;p20 -->
<g id="edge12" class="edge"><title>t9&#45;&#45;p20</title>
<path fill="none" stroke="black" d="M798.17,-938.369C831.304,-927.423 864.55,-915.25 895.49,-902 900.774,-899.737 906.142,-897.226 911.484,-894.57"/>
<text text-anchor="middle" x="905.232" y="-899.874" font-family="Arial" font-size="10.00">placeholders</text>
<text text-anchor="middle" x="805.427" y="-928.989" font-family="Arial" font-size="10.00">template</text>
</g>
<!-- s2 -->
<g id="node3" class="node"><title>s2</title>
<a xlink:href="../examples/org/sdmlib/examples/studyright/Student.java" xlink:title="&lt;TABLE&gt;">
<polygon fill="none" stroke="black" points="113.49,-721 113.49,-738 189.49,-738 189.49,-721 113.49,-721"/>
<text text-anchor="start" x="123.99" y="-727.5" font-family="Arial" font-size="10.00"> </text>
<text text-anchor="start" x="127.99" y="-727.5" font-family="Arial" font-size="10.00">s2 :Student</text>
</a>
<polygon fill="none" stroke="black" points="113.49,-659 113.49,-721 189.49,-721 189.49,-659 113.49,-659"/>
<text text-anchor="start" x="118.49" y="-709" font-family="Arial" font-size="10.00">name = &quot;Tom&quot;</text>
<text text-anchor="start" x="118.49" y="-695" font-family="Arial" font-size="10.00">matrNo = 4242</text>
<text text-anchor="start" x="118.49" y="-681" font-family="Arial" font-size="10.00">credits = 0</text>
<text text-anchor="start" x="118.49" y="-667" font-family="Arial" font-size="10.00">motivation = 0</text>
</g>
<!-- u1&#45;&#45;s2 -->
<g id="edge14" class="edge"><title>u1&#45;&#45;s2</title>
<path fill="none" stroke="black" d="M151.49,-828.189C151.49,-805.844 151.49,-770.522 151.49,-742.609"/>
<text text-anchor="middle" x="155.716" y="-749.172" font-family="Arial" font-size="10.00">students</text>
<text text-anchor="middle" x="147.264" y="-816.626" font-family="Arial" font-size="10.00">uni</text>
</g>
<!-- r3 -->
<g id="node4" class="node"><title>r3</title>
<a xlink:href="../examples/org/sdmlib/examples/studyright/Room.java" xlink:title="&lt;TABLE&gt;">
<polygon fill="none" stroke="black" points="92.4897,-555 92.4897,-572 179.49,-572 179.49,-555 92.4897,-555"/>
<text text-anchor="start" x="113.99" y="-561.5" font-family="Arial" font-size="10.00"> </text>
<text text-anchor="start" x="117.99" y="-561.5" font-family="Arial" font-size="10.00">r3 :Room</text>
</a>
<polygon fill="none" stroke="black" points="92.4897,-521 92.4897,-555 179.49,-555 179.49,-521 92.4897,-521"/>
<text text-anchor="start" x="97.4897" y="-543" font-family="Arial" font-size="10.00">roomNo = &quot;math&quot;</text>
<text text-anchor="start" x="97.4897" y="-529" font-family="Arial" font-size="10.00">credits = 42</text>
</g>
<!-- u1&#45;&#45;r3 -->
<g id="edge18" class="edge"><title>u1&#45;&#45;r3</title>
<path fill="none" stroke="black" d="M132.686,-828.396C119.703,-811.973 103.553,-788.155 96.4897,-764 80.2733,-708.545 84.2829,-690.474 96.4897,-634 100.819,-613.97 110.219,-592.997 118.705,-576.776"/>
<text text-anchor="middle" x="118.328" y="-584.269" font-family="Arial" font-size="10.00">rooms</text>
<text text-anchor="middle" x="123.797" y="-821.314" font-family="Arial" font-size="10.00">uni</text>
</g>
<!-- r4 -->
<g id="node5" class="node"><title>r4</title>
<a xlink:href="../examples/org/sdmlib/examples/studyright/Room.java" xlink:title="&lt;TABLE&gt;">
<polygon fill="none" stroke="black" points="141.49,-403 141.49,-420 222.49,-420 222.49,-403 141.49,-403"/>
<text text-anchor="start" x="159.99" y="-409.5" font-family="Arial" font-size="10.00"> </text>
<text text-anchor="start" x="163.99" y="-409.5" font-family="Arial" font-size="10.00">r4 :Room</text>
</a>
<polygon fill="none" stroke="black" points="141.49,-369 141.49,-403 222.49,-403 222.49,-369 141.49,-369"/>
<text text-anchor="start" x="146.49" y="-391" font-family="Arial" font-size="10.00">roomNo = &quot;arts&quot;</text>
<text text-anchor="start" x="146.49" y="-377" font-family="Arial" font-size="10.00">credits = 23</text>
</g>
<!-- u1&#45;&#45;r4 -->
<g id="edge20" class="edge"><title>u1&#45;&#45;r4</title>
<path fill="none" stroke="black" d="M177.154,-828.486C189.43,-818.903 204.659,-808.001 219.49,-800 259.961,-778.168 290.233,-801.751 316.49,-764 394.398,-651.985 267.46,-489.697 208.759,-424.595"/>
<text text-anchor="middle" x="217.895" y="-426.162" font-family="Arial" font-size="10.00">rooms</text>
<text text-anchor="middle" x="181.744" y="-817.101" font-family="Arial" font-size="10.00">uni</text>
</g>
<!-- r5 -->
<g id="node6" class="node"><title>r5</title>
<a xlink:href="../examples/org/sdmlib/examples/studyright/Room.java" xlink:title="&lt;TABLE&gt;">
<polygon fill="none" stroke="black" points="53.4897,-251 53.4897,-268 145.49,-268 145.49,-251 53.4897,-251"/>
<text text-anchor="start" x="77.4897" y="-257.5" font-family="Arial" font-size="10.00"> </text>
<text text-anchor="start" x="81.4897" y="-257.5" font-family="Arial" font-size="10.00">r5 :Room</text>
</a>
<polygon fill="none" stroke="black" points="53.4897,-217 53.4897,-251 145.49,-251 145.49,-217 53.4897,-217"/>
<text text-anchor="start" x="58.4897" y="-239" font-family="Arial" font-size="10.00">roomNo = &quot;sports&quot;</text>
<text text-anchor="start" x="58.4897" y="-225" font-family="Arial" font-size="10.00">credits = 23</text>
</g>
<!-- u1&#45;&#45;r5 -->
<g id="edge22" class="edge"><title>u1&#45;&#45;r5</title>
<path fill="none" stroke="black" d="M127.675,-828.466C111.73,-812.431 91.9844,-789.061 82.4897,-764 15.6861,-587.675 69.1335,-353.15 91.1389,-272.584"/>
<text text-anchor="middle" x="92.9603" y="-279.917" font-family="Arial" font-size="10.00">rooms</text>
<text text-anchor="middle" x="118.328" y="-822.412" font-family="Arial" font-size="10.00">uni</text>
</g>
<!-- r6 -->
<g id="node7" class="node"><title>r6</title>
<a xlink:href="../examples/org/sdmlib/examples/studyright/Room.java" xlink:title="&lt;TABLE&gt;">
<polygon fill="none" stroke="black" points="75.4897,-134 75.4897,-151 164.49,-151 164.49,-134 75.4897,-134"/>
<text text-anchor="start" x="97.9897" y="-140.5" font-family="Arial" font-size="10.00"> </text>
<text text-anchor="start" x="101.99" y="-140.5" font-family="Arial" font-size="10.00">r6 :Room</text>
</a>
<polygon fill="none" stroke="black" points="75.4897,-100 75.4897,-134 164.49,-134 164.49,-100 75.4897,-100"/>
<text text-anchor="start" x="80.4897" y="-122" font-family="Arial" font-size="10.00">roomNo = &quot;exam&quot;</text>
<text text-anchor="start" x="80.4897" y="-108" font-family="Arial" font-size="10.00">credits = 0</text>
</g>
<!-- u1&#45;&#45;r6 -->
<g id="edge24" class="edge"><title>u1&#45;&#45;r6</title>
<path fill="none" stroke="black" d="M115.917,-828.35C93.7949,-813.06 66.588,-790.598 50.4897,-764 -0.480489,-679.784 1.48973,-646.439 1.48973,-548 1.48973,-548 1.48973,-548 1.48973,-394 1.48973,-302.885 -10.2774,-270.198 36.4897,-192 44.9445,-177.863 57.7131,-165.632 70.7172,-155.715"/>
<text text-anchor="middle" x="66.1843" y="-162.129" font-family="Arial" font-size="10.00">rooms</text>
<text text-anchor="middle" x="106.079" y="-824.059" font-family="Arial" font-size="10.00">uni</text>
</g>
<!-- r7 -->
<g id="node8" class="node"><title>r7</title>
<a xlink:href="../examples/org/sdmlib/examples/studyright/Room.java" xlink:title="&lt;TABLE&gt;">
<polygon fill="none" stroke="black" points="166.49,-38 166.49,-55 273.49,-55 273.49,-38 166.49,-38"/>
<text text-anchor="start" x="197.99" y="-44.5" font-family="Arial" font-size="10.00"> </text>
<text text-anchor="start" x="201.99" y="-44.5" font-family="Arial" font-size="10.00">r7 :Room</text>
</a>
<polygon fill="none" stroke="black" points="166.49,-4 166.49,-38 273.49,-38 273.49,-4 166.49,-4"/>
<text text-anchor="start" x="171.49" y="-26" font-family="Arial" font-size="10.00">roomNo = &quot;ProgMeth&quot;</text>
<text text-anchor="start" x="171.49" y="-12" font-family="Arial" font-size="10.00">credits = 42</text>
</g>
<!-- u1&#45;&#45;r7 -->
<g id="edge26" class="edge"><title>u1&#45;&#45;r7</title>
<path fill="none" stroke="black" d="M176.263,-828.494C188.589,-818.681 204.114,-807.585 219.49,-800 270.955,-774.611 305.947,-807.403 343.49,-764 406.896,-690.696 373.49,-644.922 373.49,-548 373.49,-548 373.49,-548 373.49,-242 373.49,-164.45 304.778,-96.3573 259.149,-59.6892"/>
<text text-anchor="middle" x="268.815" y="-59.7499" font-family="Arial" font-size="10.00">rooms</text>
<text text-anchor="middle" x="180.779" y="-817.072" font-family="Arial" font-size="10.00">uni</text>
</g>
<!-- s8 -->
<g id="node9" class="node"><title>s8</title>
<a xlink:href="../examples/org/sdmlib/examples/studyright/Student.java" xlink:title="&lt;TABLE&gt;">
<polygon fill="none" stroke="black" points="223.49,-728 223.49,-745 299.49,-745 299.49,-728 223.49,-728"/>
<text text-anchor="start" x="233.99" y="-734.5" font-family="Arial" font-size="10.00"> </text>
<text text-anchor="start" x="237.99" y="-734.5" font-family="Arial" font-size="10.00">s8 :Student</text>
</a>
<polygon fill="none" stroke="black" points="223.49,-652 223.49,-728 299.49,-728 299.49,-652 223.49,-652"/>
<text text-anchor="start" x="228.49" y="-716" font-family="Arial" font-size="10.00">name = &quot;Nina&quot;</text>
<text text-anchor="start" x="228.49" y="-702" font-family="Arial" font-size="10.00">matrNo = 2323</text>
<text text-anchor="start" x="228.49" y="-688" font-family="Arial" font-size="10.00">credits = 0</text>
<text text-anchor="start" x="228.49" y="-674" font-family="Arial" font-size="10.00">motivation = 0</text>
<text text-anchor="start" x="228.49" y="-660" font-family="Arial" font-size="10.00">in = &quot;&quot;</text>
</g>
<!-- u1&#45;&#45;s8 -->
<g id="edge16" class="edge"><title>u1&#45;&#45;s8</title>
<path fill="none" stroke="black" d="M167.485,-828.189C182.5,-807.713 205.508,-776.339 225.002,-749.756"/>
<text text-anchor="middle" x="223.051" y="-757.063" font-family="Arial" font-size="10.00">students</text>
<text text-anchor="middle" x="169.436" y="-815.881" font-family="Arial" font-size="10.00">uni</text>
</g>
<!-- s2&#45;&#45;r3 -->
<g id="edge28" class="edge"><title>s2&#45;&#45;r3</title>
<path fill="none" stroke="black" d="M146.948,-655.417C144.268,-630.299 140.948,-599.174 138.573,-576.905"/>
<text text-anchor="middle" x="143.737" y="-582.969" font-family="Arial" font-size="10.00">in</text>
<text text-anchor="middle" x="141.784" y="-644.354" font-family="Arial" font-size="10.00">students</text>
</g>
<!-- r3&#45;&#45;r4 -->
<g id="edge30" class="edge"><title>r3&#45;&#45;r4</title>
<path fill="none" stroke="black" d="M144.25,-517.433C152.409,-490.827 164.51,-451.369 172.684,-424.716"/>
<text text-anchor="middle" x="174.067" y="-432.12" font-family="Arial" font-size="10.00">neighbors</text>
<text text-anchor="middle" x="142.867" y="-505.029" font-family="Arial" font-size="10.00">neighbors</text>
</g>
<!-- r3&#45;&#45;r5 -->
<g id="edge32" class="edge"><title>r3&#45;&#45;r5</title>
<path fill="none" stroke="black" d="M131.289,-517.36C128.889,-500.647 125.889,-479.147 123.49,-460 115.093,-392.986 106.705,-314.083 102.418,-272.681"/>
<text text-anchor="middle" x="107.56" y="-278.757" font-family="Arial" font-size="10.00">neighbors</text>
<text text-anchor="middle" x="125.822" y="-506.487" font-family="Arial" font-size="10.00">neighbors</text>
</g>
<!-- r4&#45;&#45;r5 -->
<g id="edge34" class="edge"><title>r4&#45;&#45;r5</title>
<path fill="none" stroke="black" d="M165.873,-365.433C151.329,-338.827 129.758,-299.369 115.188,-272.716"/>
<text text-anchor="middle" x="123.243" y="-276.141" font-family="Arial" font-size="10.00">neighbors</text>
<text text-anchor="middle" x="157.818" y="-357.008" font-family="Arial" font-size="10.00">neighbors</text>
</g>
<!-- r4&#45;&#45;r6 -->
<g id="edge36" class="edge"><title>r4&#45;&#45;r6</title>
<path fill="none" stroke="black" d="M183.093,-365.3C184.379,-325.271 183.288,-250.962 162.49,-192 157.989,-179.24 150.443,-166.531 142.918,-155.779"/>
<text text-anchor="middle" x="151.533" y="-158.356" font-family="Arial" font-size="10.00">neighbors</text>
<text text-anchor="middle" x="179.075" y="-353.642" font-family="Arial" font-size="10.00">neighbors</text>
</g>
<!-- r4&#45;&#45;r7 -->
<g id="edge38" class="edge"><title>r4&#45;&#45;r7</title>
<path fill="none" stroke="black" d="M184.503,-365.213C191.622,-297.214 209.41,-127.289 216.502,-59.5393"/>
<text text-anchor="middle" x="219.762" y="-66.4931" font-family="Arial" font-size="10.00">neighbors</text>
<text text-anchor="middle" x="181.244" y="-353.259" font-family="Arial" font-size="10.00">neighbors</text>
</g>
<!-- r5&#45;&#45;r6 -->
<g id="edge40" class="edge"><title>r5&#45;&#45;r6</title>
<path fill="none" stroke="black" d="M104.485,-213.277C107.539,-195.714 111.433,-173.324 114.489,-155.755"/>
<text text-anchor="middle" x="117.1" y="-162.908" font-family="Arial" font-size="10.00">neighbors</text>
<text text-anchor="middle" x="101.874" y="-201.124" font-family="Arial" font-size="10.00">neighbors</text>
</g>
<!-- r6&#45;&#45;r7 -->
<g id="edge42" class="edge"><title>r6&#45;&#45;r7</title>
<path fill="none" stroke="black" d="M150.036,-96.2861C162.443,-84.624 176.743,-71.1822 189.13,-59.538"/>
<text text-anchor="middle" x="185.421" y="-66.3247" font-family="Arial" font-size="10.00">neighbors</text>
<text text-anchor="middle" x="153.745" y="-84.4994" font-family="Arial" font-size="10.00">neighbors</text>
</g>
<!-- t14 -->
<g id="node14" class="node"><title>t14</title>
<a xlink:href="../../SDMLib/src/org/sdmlib/models/transformations/Template.java" xlink:title="&lt;TABLE&gt;">
<polygon fill="none" stroke="black" points="541.49,-742 541.49,-759 915.49,-759 915.49,-742 541.49,-742"/>
<text text-anchor="start" x="696.49" y="-748.5" font-family="Arial" font-size="10.00"> </text>
<text text-anchor="start" x="700.49" y="-748.5" font-family="Arial" font-size="10.00">t14 :Template</text>
</a>
<polygon fill="none" stroke="black" points="541.49,-638 541.49,-742 915.49,-742 915.49,-638 541.49,-638"/>
<text text-anchor="start" x="546.49" y="-730" font-family="Arial" font-size="10.00">templateText = &quot; &#45; The xy room has 42 credits. It is connected to rooms: neighbors&quot;</text>
<text text-anchor="start" x="546.49" y="-716" font-family="Arial" font-size="10.00">modelObject = &quot;&quot;</text>
<text text-anchor="start" x="546.49" y="-702" font-family="Arial" font-size="10.00">modelClassName = &quot;&quot;</text>
<text text-anchor="start" x="546.49" y="-688" font-family="Arial" font-size="10.00">expandedText = &quot;&quot;</text>
<text text-anchor="start" x="546.49" y="-674" font-family="Arial" font-size="10.00">listStart = &quot;&quot;</text>
<text text-anchor="start" x="546.49" y="-660" font-family="Arial" font-size="10.00">listSeparator = &quot;&quot;</text>
<text text-anchor="start" x="546.49" y="-646" font-family="Arial" font-size="10.00">listEnd = &quot;&quot;</text>
</g>
<!-- p13&#45;&#45;t14 -->
<g id="edge44" class="edge"><title>p13&#45;&#45;t14</title>
<path fill="none" stroke="black" d="M787.927,-807.417C780.403,-793.819 771.904,-778.46 763.736,-763.698"/>
<text text-anchor="middle" x="771.822" y="-767.082" font-family="Arial" font-size="10.00">subTemplate</text>
<text text-anchor="middle" x="779.841" y="-799.033" font-family="Arial" font-size="10.00">placeholderDescription</text>
</g>
<!-- p15 -->
<g id="node15" class="node"><title>p15</title>
<a xlink:href="../../SDMLib/src/org/sdmlib/models/transformations/PlaceHolderDescription.java" xlink:title="&lt;TABLE&gt;">
<polygon fill="none" stroke="black" points="830.49,-576 830.49,-593 965.49,-593 965.49,-576 830.49,-576"/>
<text text-anchor="start" x="833.99" y="-582.5" font-family="Arial" font-size="10.00"> </text>
<text text-anchor="start" x="837.99" y="-582.5" font-family="Arial" font-size="10.00">p15 :PlaceHolderDescription</text>
</a>
<polygon fill="none" stroke="black" points="830.49,-500 830.49,-576 965.49,-576 965.49,-500 830.49,-500"/>
<text text-anchor="start" x="835.49" y="-564" font-family="Arial" font-size="10.00">textFragment = &quot;xy&quot;</text>
<text text-anchor="start" x="835.49" y="-550" font-family="Arial" font-size="10.00">value = &quot;&quot;</text>
<text text-anchor="start" x="835.49" y="-536" font-family="Arial" font-size="10.00">attrName = &quot;roomNo&quot;</text>
<text text-anchor="start" x="835.49" y="-522" font-family="Arial" font-size="10.00">subTemplate = &quot;&quot;</text>
<text text-anchor="start" x="835.49" y="-508" font-family="Arial" font-size="10.00">isKeyAttribute = &quot;false&quot;</text>
</g>
<!-- t14&#45;&#45;p15 -->
<g id="edge46" class="edge"><title>t14&#45;&#45;p15</title>
<path fill="none" stroke="black" d="M800.161,-634.386C814.015,-622.09 828.341,-609.375 841.6,-597.606"/>
<text text-anchor="middle" x="837.627" y="-604.283" font-family="Arial" font-size="10.00">placeholders</text>
<text text-anchor="middle" x="804.134" y="-622.71" font-family="Arial" font-size="10.00">template</text>
</g>
<!-- p16 -->
<g id="node16" class="node"><title>p16</title>
<a xlink:href="../../SDMLib/src/org/sdmlib/models/transformations/PlaceHolderDescription.java" xlink:title="&lt;TABLE&gt;">
<polygon fill="none" stroke="black" points="492.49,-576 492.49,-593 627.49,-593 627.49,-576 492.49,-576"/>
<text text-anchor="start" x="495.99" y="-582.5" font-family="Arial" font-size="10.00"> </text>
<text text-anchor="start" x="499.99" y="-582.5" font-family="Arial" font-size="10.00">p16 :PlaceHolderDescription</text>
</a>
<polygon fill="none" stroke="black" points="492.49,-500 492.49,-576 627.49,-576 627.49,-500 492.49,-500"/>
<text text-anchor="start" x="497.49" y="-564" font-family="Arial" font-size="10.00">textFragment = &quot;42&quot;</text>
<text text-anchor="start" x="497.49" y="-550" font-family="Arial" font-size="10.00">value = &quot;&quot;</text>
<text text-anchor="start" x="497.49" y="-536" font-family="Arial" font-size="10.00">attrName = &quot;credits&quot;</text>
<text text-anchor="start" x="497.49" y="-522" font-family="Arial" font-size="10.00">subTemplate = &quot;&quot;</text>
<text text-anchor="start" x="497.49" y="-508" font-family="Arial" font-size="10.00">isKeyAttribute = &quot;false&quot;</text>
</g>
<!-- t14&#45;&#45;p16 -->
<g id="edge48" class="edge"><title>t14&#45;&#45;p16</title>
<path fill="none" stroke="black" d="M656.819,-634.386C642.964,-622.09 628.639,-609.375 615.379,-597.606"/>
<text text-anchor="middle" x="624.963" y="-597.962" font-family="Arial" font-size="10.00">placeholders</text>
<text text-anchor="middle" x="647.235" y="-629.031" font-family="Arial" font-size="10.00">template</text>
</g>
<!-- p17 -->
<g id="node17" class="node"><title>p17</title>
<a xlink:href="../../SDMLib/src/org/sdmlib/models/transformations/PlaceHolderDescription.java" xlink:title="&lt;TABLE&gt;">
<polygon fill="none" stroke="black" points="661.49,-569 661.49,-586 796.49,-586 796.49,-569 661.49,-569"/>
<text text-anchor="start" x="664.99" y="-575.5" font-family="Arial" font-size="10.00"> </text>
<text text-anchor="start" x="668.99" y="-575.5" font-family="Arial" font-size="10.00">p17 :PlaceHolderDescription</text>
</a>
<polygon fill="none" stroke="black" points="661.49,-507 661.49,-569 796.49,-569 796.49,-507 661.49,-507"/>
<text text-anchor="start" x="666.49" y="-557" font-family="Arial" font-size="10.00">textFragment = &quot;neighbors&quot;</text>
<text text-anchor="start" x="666.49" y="-543" font-family="Arial" font-size="10.00">value = &quot;&quot;</text>
<text text-anchor="start" x="666.49" y="-529" font-family="Arial" font-size="10.00">attrName = &quot;neighbors&quot;</text>
<text text-anchor="start" x="666.49" y="-515" font-family="Arial" font-size="10.00">isKeyAttribute = &quot;false&quot;</text>
</g>
<!-- t14&#45;&#45;p17 -->
<g id="edge50" class="edge"><title>t14&#45;&#45;p17</title>
<path fill="none" stroke="black" d="M728.49,-634.386C728.49,-619.694 728.49,-604.405 728.49,-590.846"/>
<text text-anchor="middle" x="732.716" y="-597.409" font-family="Arial" font-size="10.00">placeholders</text>
<text text-anchor="middle" x="724.264" y="-622.823" font-family="Arial" font-size="10.00">template</text>
</g>
<!-- t18 -->
<g id="node18" class="node"><title>t18</title>
<a xlink:href="../../SDMLib/src/org/sdmlib/models/transformations/Template.java" xlink:title="&lt;TABLE&gt;">
<polygon fill="none" stroke="black" points="673.49,-438 673.49,-455 784.49,-455 784.49,-438 673.49,-438"/>
<text text-anchor="start" x="696.99" y="-444.5" font-family="Arial" font-size="10.00"> </text>
<text text-anchor="start" x="700.99" y="-444.5" font-family="Arial" font-size="10.00">t18 :Template</text>
</a>
<polygon fill="none" stroke="black" points="673.49,-334 673.49,-438 784.49,-438 784.49,-334 673.49,-334"/>
<text text-anchor="start" x="678.49" y="-426" font-family="Arial" font-size="10.00">templateText = &quot;name&quot;</text>
<text text-anchor="start" x="678.49" y="-412" font-family="Arial" font-size="10.00">modelObject = &quot;&quot;</text>
<text text-anchor="start" x="678.49" y="-398" font-family="Arial" font-size="10.00">modelClassName = &quot;&quot;</text>
<text text-anchor="start" x="678.49" y="-384" font-family="Arial" font-size="10.00">expandedText = &quot;&quot;</text>
<text text-anchor="start" x="678.49" y="-370" font-family="Arial" font-size="10.00">listStart = &quot;&quot;</text>
<text text-anchor="start" x="678.49" y="-356" font-family="Arial" font-size="10.00">listSeparator = &quot;, &quot;</text>
<text text-anchor="start" x="678.49" y="-342" font-family="Arial" font-size="10.00">listEnd = &quot;.&quot;</text>
</g>
<!-- p17&#45;&#45;t18 -->
<g id="edge52" class="edge"><title>p17&#45;&#45;t18</title>
<path fill="none" stroke="black" d="M728.49,-503.417C728.49,-489.819 728.49,-474.46 728.49,-459.698"/>
<text text-anchor="middle" x="732.716" y="-466.262" font-family="Arial" font-size="10.00">subTemplate</text>
<text text-anchor="middle" x="724.264" y="-491.854" font-family="Arial" font-size="10.00">placeholderDescription</text>
</g>
<!-- p19 -->
<g id="node19" class="node"><title>p19</title>
<a xlink:href="../../SDMLib/src/org/sdmlib/models/transformations/PlaceHolderDescription.java" xlink:title="&lt;TABLE&gt;">
<polygon fill="none" stroke="black" points="661.49,-272 661.49,-289 796.49,-289 796.49,-272 661.49,-272"/>
<text text-anchor="start" x="664.99" y="-278.5" font-family="Arial" font-size="10.00"> </text>
<text text-anchor="start" x="668.99" y="-278.5" font-family="Arial" font-size="10.00">p19 :PlaceHolderDescription</text>
</a>
<polygon fill="none" stroke="black" points="661.49,-196 661.49,-272 796.49,-272 796.49,-196 661.49,-196"/>
<text text-anchor="start" x="666.49" y="-260" font-family="Arial" font-size="10.00">textFragment = &quot;name&quot;</text>
<text text-anchor="start" x="666.49" y="-246" font-family="Arial" font-size="10.00">value = &quot;&quot;</text>
<text text-anchor="start" x="666.49" y="-232" font-family="Arial" font-size="10.00">attrName = &quot;roomNo&quot;</text>
<text text-anchor="start" x="666.49" y="-218" font-family="Arial" font-size="10.00">subTemplate = &quot;&quot;</text>
<text text-anchor="start" x="666.49" y="-204" font-family="Arial" font-size="10.00">isKeyAttribute = &quot;false&quot;</text>
</g>
<!-- t18&#45;&#45;p19 -->
<g id="edge54" class="edge"><title>t18&#45;&#45;p19</title>
<path fill="none" stroke="black" d="M728.49,-330.386C728.49,-318.09 728.49,-305.375 728.49,-293.606"/>
<text text-anchor="middle" x="732.716" y="-300.169" font-family="Arial" font-size="10.00">placeholders</text>
<text text-anchor="middle" x="724.264" y="-318.823" font-family="Arial" font-size="10.00">template</text>
</g>
<!-- t21 -->
<g id="node21" class="node"><title>t21</title>
<a xlink:href="../../SDMLib/src/org/sdmlib/models/transformations/Template.java" xlink:title="&lt;TABLE&gt;">
<polygon fill="none" stroke="black" points="950.49,-742 950.49,-759 1183.49,-759 1183.49,-742 950.49,-742"/>
<text text-anchor="start" x="1034.99" y="-748.5" font-family="Arial" font-size="10.00"> </text>
<text text-anchor="start" x="1038.99" y="-748.5" font-family="Arial" font-size="10.00">t21 :Template</text>
</a>
<polygon fill="none" stroke="black" points="950.49,-638 950.49,-742 1183.49,-742 1183.49,-638 950.49,-638"/>
<text text-anchor="start" x="955.49" y="-730" font-family="Arial" font-size="10.00">templateText = &quot; &#45; Stud has student number 1234.&quot;</text>
<text text-anchor="start" x="955.49" y="-716" font-family="Arial" font-size="10.00">modelObject = &quot;&quot;</text>
<text text-anchor="start" x="955.49" y="-702" font-family="Arial" font-size="10.00">modelClassName = &quot;&quot;</text>
<text text-anchor="start" x="955.49" y="-688" font-family="Arial" font-size="10.00">expandedText = &quot;&quot;</text>
<text text-anchor="start" x="955.49" y="-674" font-family="Arial" font-size="10.00">listStart = &quot;&quot;</text>
<text text-anchor="start" x="955.49" y="-660" font-family="Arial" font-size="10.00">listSeparator = &quot;&quot;</text>
<text text-anchor="start" x="955.49" y="-646" font-family="Arial" font-size="10.00">listEnd = &quot;&quot;</text>
</g>
<!-- p20&#45;&#45;t21 -->
<g id="edge56" class="edge"><title>p20&#45;&#45;t21</title>
<path fill="none" stroke="black" d="M1006.34,-807.417C1013.95,-793.819 1022.55,-778.46 1030.82,-763.698"/>
<text text-anchor="middle" x="1030.08" y="-771.171" font-family="Arial" font-size="10.00">subTemplate</text>
<text text-anchor="middle" x="1007.08" y="-794.945" font-family="Arial" font-size="10.00">placeholderDescription</text>
</g>
<!-- p22 -->
<g id="node22" class="node"><title>p22</title>
<a xlink:href="../../SDMLib/src/org/sdmlib/models/transformations/PlaceHolderDescription.java" xlink:title="&lt;TABLE&gt;">
<polygon fill="none" stroke="black" points="999.49,-576 999.49,-593 1134.49,-593 1134.49,-576 999.49,-576"/>
<text text-anchor="start" x="1002.99" y="-582.5" font-family="Arial" font-size="10.00"> </text>
<text text-anchor="start" x="1006.99" y="-582.5" font-family="Arial" font-size="10.00">p22 :PlaceHolderDescription</text>
</a>
<polygon fill="none" stroke="black" points="999.49,-500 999.49,-576 1134.49,-576 1134.49,-500 999.49,-500"/>
<text text-anchor="start" x="1004.49" y="-564" font-family="Arial" font-size="10.00">textFragment = &quot;Stud&quot;</text>
<text text-anchor="start" x="1004.49" y="-550" font-family="Arial" font-size="10.00">value = &quot;&quot;</text>
<text text-anchor="start" x="1004.49" y="-536" font-family="Arial" font-size="10.00">attrName = &quot;name&quot;</text>
<text text-anchor="start" x="1004.49" y="-522" font-family="Arial" font-size="10.00">subTemplate = &quot;&quot;</text>
<text text-anchor="start" x="1004.49" y="-508" font-family="Arial" font-size="10.00">isKeyAttribute = &quot;false&quot;</text>
</g>
<!-- t21&#45;&#45;p22 -->
<g id="edge58" class="edge"><title>t21&#45;&#45;p22</title>
<path fill="none" stroke="black" d="M1066.49,-634.386C1066.49,-622.09 1066.49,-609.375 1066.49,-597.606"/>
<text text-anchor="middle" x="1070.72" y="-604.169" font-family="Arial" font-size="10.00">placeholders</text>
<text text-anchor="middle" x="1062.26" y="-622.823" font-family="Arial" font-size="10.00">template</text>
</g>
<!-- p23 -->
<g id="node23" class="node"><title>p23</title>
<a xlink:href="../../SDMLib/src/org/sdmlib/models/transformations/PlaceHolderDescription.java" xlink:title="&lt;TABLE&gt;">
<polygon fill="none" stroke="black" points="1168.49,-576 1168.49,-593 1303.49,-593 1303.49,-576 1168.49,-576"/>
<text text-anchor="start" x="1171.99" y="-582.5" font-family="Arial" font-size="10.00"> </text>
<text text-anchor="start" x="1175.99" y="-582.5" font-family="Arial" font-size="10.00">p23 :PlaceHolderDescription</text>
</a>
<polygon fill="none" stroke="black" points="1168.49,-500 1168.49,-576 1303.49,-576 1303.49,-500 1168.49,-500"/>
<text text-anchor="start" x="1173.49" y="-564" font-family="Arial" font-size="10.00">textFragment = &quot;1234&quot;</text>
<text text-anchor="start" x="1173.49" y="-550" font-family="Arial" font-size="10.00">value = &quot;&quot;</text>
<text text-anchor="start" x="1173.49" y="-536" font-family="Arial" font-size="10.00">attrName = &quot;matrNo&quot;</text>
<text text-anchor="start" x="1173.49" y="-522" font-family="Arial" font-size="10.00">subTemplate = &quot;&quot;</text>
<text text-anchor="start" x="1173.49" y="-508" font-family="Arial" font-size="10.00">isKeyAttribute = &quot;false&quot;</text>
</g>
<!-- t21&#45;&#45;p23 -->
<g id="edge60" class="edge"><title>t21&#45;&#45;p23</title>
<path fill="none" stroke="black" d="M1138.16,-634.386C1152.02,-622.09 1166.34,-609.375 1179.6,-597.606"/>
<text text-anchor="middle" x="1175.63" y="-604.283" font-family="Arial" font-size="10.00">placeholders</text>
<text text-anchor="middle" x="1142.13" y="-622.71" font-family="Arial" font-size="10.00">template</text>
</g>
</g>
</svg>
