<?xml version="1.0" encoding="UTF-8" standalone="no"?>
<!DOCTYPE svg PUBLIC "-//W3C//DTD SVG 1.1//EN"
 "http://www.w3.org/Graphics/SVG/1.1/DTD/svg11.dtd">
<!-- Generated by graphviz version 2.28.0 (20110507.0327)
 -->
<!-- Title: ObjectDiagram Pages: 1 -->
<svg width="2647pt" height="1032pt"
 viewBox="0.00 0.00 2647.00 1032.00" xmlns="http://www.w3.org/2000/svg" xmlns:xlink="http://www.w3.org/1999/xlink">
<g id="graph1" class="graph" transform="scale(1 1) rotate(0) translate(4 1028)">
<title>ObjectDiagram</title>
<polygon fill="white" stroke="white" points="-4,5 -4,-1028 2644,-1028 2644,5 -4,5"/>
<!-- t9 -->
<g id="node1" class="node"><title>t9</title>
<a xlink:href="../../SDMLib/src/org/sdmlib/models/transformations/Template.java" xlink:title="&lt;TABLE&gt;">
<polygon fill="none" stroke="black" points="441,-1002 441,-1019 2631,-1019 2631,-1002 441,-1002"/>
<text text-anchor="start" x="1510" y="-1008.5" font-family="Times New Roman,serif" font-size="10.00"> </text>
<text text-anchor="start" x="1513" y="-1008.5" font-family="Times New Roman,serif" font-size="10.00">t9 :Template</text>
</a>
<polygon fill="none" stroke="black" points="441,-912 441,-1002 2631,-1002 2631,-912 441,-912"/>
<text text-anchor="start" x="446" y="-990" font-family="Times New Roman,serif" font-size="10.00">templateText = &quot;The example University has 99 rooms and 88 students: roomList The students are: studentList &quot;</text>
<text text-anchor="start" x="446" y="-976" font-family="Times New Roman,serif" font-size="10.00">modelClassName = &quot;org.sdmlib.examples.studyright.University&quot;</text>
<text text-anchor="start" x="446" y="-962" font-family="Times New Roman,serif" font-size="10.00">expandedText = &quot;The StudyRight University has 5 rooms and 2 students: &#160;&#45; The math room has 42 credits. It is connected to rooms: arts, sports. &#45; The arts room has 23 credits. It is connected to rooms: math, sports, exam, ProgMeth. &#45; The sports room has 23 credits. It is connected to rooms: math, arts, exam. &#45; The exam room has 0 credits. It is connected to rooms: sports, arts, ProgMeth. &#45; The ProgMeth room has 42 credits. It is connected to rooms: arts, exam. The students are: &#160;&#45; Albert has student number 4242. &#45; Nina has student number 2323. &quot;</text>
<text text-anchor="start" x="446" y="-948" font-family="Times New Roman,serif" font-size="10.00">listStart = &quot;&quot;</text>
<text text-anchor="start" x="446" y="-934" font-family="Times New Roman,serif" font-size="10.00">listSeparator = &quot;&quot;</text>
<text text-anchor="start" x="446" y="-920" font-family="Times New Roman,serif" font-size="10.00">listEnd = &quot;&quot;</text>
</g>
<!-- u1 -->
<g id="node2" class="node"><title>u1</title>
<a xlink:href="../examples/org/sdmlib/examples/studyright/University.java" xlink:title="&lt;TABLE&gt;">
<polygon fill="none" stroke="black" points="1665,-719 1665,-736 1762,-736 1762,-719 1665,-719"/>
<text text-anchor="start" x="1683.5" y="-725.5" font-family="Times New Roman,serif" font-size="10.00"> </text>
<text text-anchor="start" x="1686.5" y="-725.5" font-family="Times New Roman,serif" font-size="10.00">u1 :University</text>
</a>
<polygon fill="none" stroke="black" points="1665,-699 1665,-719 1762,-719 1762,-699 1665,-699"/>
<text text-anchor="start" x="1670" y="-707" font-family="Times New Roman,serif" font-size="10.00">name = &quot;StudyRight&quot;</text>
</g>
<!-- t9&#45;&#45;u1 -->
<g id="edge2" class="edge"><title>t9&#45;&#45;u1</title>
<path fill="none" stroke="black" d="M1659.78,-908.307C1673,-897.885 1684.91,-885.834 1694,-872 1720.52,-831.619 1719.09,-772.12 1715.94,-740.537"/>
<text text-anchor="middle" x="1720.91" y="-746.712" font-family="Times New Roman,serif" font-size="10.00">modelObject</text>
</g>
<!-- p10 -->
<g id="node10" class="node"><title>p10</title>
<a xlink:href="../../SDMLib/src/org/sdmlib/models/transformations/PlaceHolderDescription.java" xlink:title="&lt;TABLE&gt;">
<polygon fill="none" stroke="black" points="1237,-850 1237,-867 1361,-867 1361,-850 1237,-850"/>
<text text-anchor="start" x="1240.5" y="-856.5" font-family="Times New Roman,serif" font-size="10.00"> </text>
<text text-anchor="start" x="1243.5" y="-856.5" font-family="Times New Roman,serif" font-size="10.00">p10 :PlaceHolderDescription</text>
</a>
<polygon fill="none" stroke="black" points="1237,-816 1237,-850 1361,-850 1361,-816 1237,-816"/>
<text text-anchor="start" x="1242" y="-838" font-family="Times New Roman,serif" font-size="10.00">textFragment = &quot;example&quot;</text>
<text text-anchor="start" x="1242" y="-824" font-family="Times New Roman,serif" font-size="10.00">attrName = &quot;name&quot;</text>
</g>
<!-- t9&#45;&#45;p10 -->
<g id="edge4" class="edge"><title>t9&#45;&#45;p10</title>
<path fill="none" stroke="black" d="M1426.17,-908.464C1401.35,-895.687 1376.02,-882.646 1354.56,-871.602"/>
<text text-anchor="middle" x="1364.56" y="-869.493" font-family="Times New Roman,serif" font-size="10.00">placeholders</text>
<text text-anchor="middle" x="1416.18" y="-905.574" font-family="Times New Roman,serif" font-size="10.00">template</text>
</g>
<!-- p11 -->
<g id="node11" class="node"><title>p11</title>
<a xlink:href="../../SDMLib/src/org/sdmlib/models/transformations/PlaceHolderDescription.java" xlink:title="&lt;TABLE&gt;">
<polygon fill="none" stroke="black" points="1395,-850 1395,-867 1519,-867 1519,-850 1395,-850"/>
<text text-anchor="start" x="1398.5" y="-856.5" font-family="Times New Roman,serif" font-size="10.00"> </text>
<text text-anchor="start" x="1401.5" y="-856.5" font-family="Times New Roman,serif" font-size="10.00">p11 :PlaceHolderDescription</text>
</a>
<polygon fill="none" stroke="black" points="1395,-816 1395,-850 1519,-850 1519,-816 1395,-816"/>
<text text-anchor="start" x="1400" y="-838" font-family="Times New Roman,serif" font-size="10.00">textFragment = &quot;99&quot;</text>
<text text-anchor="start" x="1400" y="-824" font-family="Times New Roman,serif" font-size="10.00">attrName = &quot;rooms.size&quot;</text>
</g>
<!-- t9&#45;&#45;p11 -->
<g id="edge6" class="edge"><title>t9&#45;&#45;p11</title>
<path fill="none" stroke="black" d="M1499.28,-908.286C1491.06,-895.592 1482.67,-882.649 1475.57,-871.671"/>
<text text-anchor="middle" x="1484.04" y="-874.481" font-family="Times New Roman,serif" font-size="10.00">placeholders</text>
<text text-anchor="middle" x="1490.8" y="-900.476" font-family="Times New Roman,serif" font-size="10.00">template</text>
</g>
<!-- p12 -->
<g id="node12" class="node"><title>p12</title>
<a xlink:href="../../SDMLib/src/org/sdmlib/models/transformations/PlaceHolderDescription.java" xlink:title="&lt;TABLE&gt;">
<polygon fill="none" stroke="black" points="1553,-850 1553,-867 1677,-867 1677,-850 1553,-850"/>
<text text-anchor="start" x="1556.5" y="-856.5" font-family="Times New Roman,serif" font-size="10.00"> </text>
<text text-anchor="start" x="1559.5" y="-856.5" font-family="Times New Roman,serif" font-size="10.00">p12 :PlaceHolderDescription</text>
</a>
<polygon fill="none" stroke="black" points="1553,-816 1553,-850 1677,-850 1677,-816 1553,-816"/>
<text text-anchor="start" x="1558" y="-838" font-family="Times New Roman,serif" font-size="10.00">textFragment = &quot;88&quot;</text>
<text text-anchor="start" x="1558" y="-824" font-family="Times New Roman,serif" font-size="10.00">attrName = &quot;students.size&quot;</text>
</g>
<!-- t9&#45;&#45;p12 -->
<g id="edge8" class="edge"><title>t9&#45;&#45;p12</title>
<path fill="none" stroke="black" d="M1572.72,-908.286C1580.94,-895.592 1589.33,-882.649 1596.43,-871.671"/>
<text text-anchor="middle" x="1595.06" y="-879.076" font-family="Times New Roman,serif" font-size="10.00">placeholders</text>
<text text-anchor="middle" x="1574.1" y="-895.881" font-family="Times New Roman,serif" font-size="10.00">template</text>
</g>
<!-- p13 -->
<g id="node13" class="node"><title>p13</title>
<a xlink:href="../../SDMLib/src/org/sdmlib/models/transformations/PlaceHolderDescription.java" xlink:title="&lt;TABLE&gt;">
<polygon fill="none" stroke="black" points="918,-850 918,-867 1042,-867 1042,-850 918,-850"/>
<text text-anchor="start" x="921.5" y="-856.5" font-family="Times New Roman,serif" font-size="10.00"> </text>
<text text-anchor="start" x="924.5" y="-856.5" font-family="Times New Roman,serif" font-size="10.00">p13 :PlaceHolderDescription</text>
</a>
<polygon fill="none" stroke="black" points="918,-816 918,-850 1042,-850 1042,-816 918,-816"/>
<text text-anchor="start" x="923" y="-838" font-family="Times New Roman,serif" font-size="10.00">textFragment = &quot;roomList&quot;</text>
<text text-anchor="start" x="923" y="-824" font-family="Times New Roman,serif" font-size="10.00">attrName = &quot;rooms&quot;</text>
</g>
<!-- t9&#45;&#45;p13 -->
<g id="edge10" class="edge"><title>t9&#45;&#45;p13</title>
<path fill="none" stroke="black" d="M1278.35,-908.464C1194.55,-890.077 1108.27,-871.146 1050.19,-858.401"/>
<text text-anchor="middle" x="1059.95" y="-853.716" font-family="Times New Roman,serif" font-size="10.00">placeholders</text>
<text text-anchor="middle" x="1268.59" y="-908.15" font-family="Times New Roman,serif" font-size="10.00">template</text>
</g>
<!-- p20 -->
<g id="node20" class="node"><title>p20</title>
<a xlink:href="../../SDMLib/src/org/sdmlib/models/transformations/PlaceHolderDescription.java" xlink:title="&lt;TABLE&gt;">
<polygon fill="none" stroke="black" points="1829,-850 1829,-867 1957,-867 1957,-850 1829,-850"/>
<text text-anchor="start" x="1834.5" y="-856.5" font-family="Times New Roman,serif" font-size="10.00"> </text>
<text text-anchor="start" x="1837.5" y="-856.5" font-family="Times New Roman,serif" font-size="10.00">p20 :PlaceHolderDescription</text>
</a>
<polygon fill="none" stroke="black" points="1829,-816 1829,-850 1957,-850 1957,-816 1829,-816"/>
<text text-anchor="start" x="1834" y="-838" font-family="Times New Roman,serif" font-size="10.00">textFragment = &quot;studentList&quot;</text>
<text text-anchor="start" x="1834" y="-824" font-family="Times New Roman,serif" font-size="10.00">attrName = &quot;students&quot;</text>
</g>
<!-- t9&#45;&#45;p20 -->
<g id="edge12" class="edge"><title>t9&#45;&#45;p20</title>
<path fill="none" stroke="black" d="M1701.44,-908.464C1743.39,-894.128 1786.3,-879.462 1820.85,-867.655"/>
<text text-anchor="middle" x="1813.65" y="-872.085" font-family="Times New Roman,serif" font-size="10.00">placeholders</text>
<text text-anchor="middle" x="1708.65" y="-899.034" font-family="Times New Roman,serif" font-size="10.00">template</text>
</g>
<!-- s2 -->
<g id="node3" class="node"><title>s2</title>
<a xlink:href="../examples/org/sdmlib/examples/studyright/Student.java" xlink:title="&lt;TABLE&gt;">
<polygon fill="none" stroke="black" points="1677,-602 1677,-619 1754,-619 1754,-602 1677,-602"/>
<text text-anchor="start" x="1691" y="-608.5" font-family="Times New Roman,serif" font-size="10.00"> </text>
<text text-anchor="start" x="1694" y="-608.5" font-family="Times New Roman,serif" font-size="10.00">s2 :Student</text>
</a>
<polygon fill="none" stroke="black" points="1677,-540 1677,-602 1754,-602 1754,-540 1677,-540"/>
<text text-anchor="start" x="1682" y="-590" font-family="Times New Roman,serif" font-size="10.00">name = &quot;Albert&quot;</text>
<text text-anchor="start" x="1682" y="-576" font-family="Times New Roman,serif" font-size="10.00">matrNo = 4242</text>
<text text-anchor="start" x="1682" y="-562" font-family="Times New Roman,serif" font-size="10.00">credits = 0</text>
<text text-anchor="start" x="1682" y="-548" font-family="Times New Roman,serif" font-size="10.00">motivation = 0</text>
</g>
<!-- u1&#45;&#45;s2 -->
<g id="edge14" class="edge"><title>u1&#45;&#45;s2</title>
<path fill="none" stroke="black" d="M1713.32,-695.45C1713.6,-676.201 1714.02,-647.44 1714.37,-623.566"/>
<text text-anchor="middle" x="1718.47" y="-630.19" font-family="Times New Roman,serif" font-size="10.00">students</text>
<text text-anchor="middle" x="1709.22" y="-683.826" font-family="Times New Roman,serif" font-size="10.00">uni</text>
</g>
<!-- r3 -->
<g id="node4" class="node"><title>r3</title>
<a xlink:href="../examples/org/sdmlib/examples/studyright/Room.java" xlink:title="&lt;TABLE&gt;">
<polygon fill="none" stroke="black" points="1484,-450 1484,-467 1566,-467 1566,-450 1484,-450"/>
<text text-anchor="start" x="1505.5" y="-456.5" font-family="Times New Roman,serif" font-size="10.00"> </text>
<text text-anchor="start" x="1508.5" y="-456.5" font-family="Times New Roman,serif" font-size="10.00">r3 :Room</text>
</a>
<polygon fill="none" stroke="black" points="1484,-416 1484,-450 1566,-450 1566,-416 1484,-416"/>
<text text-anchor="start" x="1489" y="-438" font-family="Times New Roman,serif" font-size="10.00">roomNo = &quot;math&quot;</text>
<text text-anchor="start" x="1489" y="-424" font-family="Times New Roman,serif" font-size="10.00">credits = 42</text>
</g>
<!-- u1&#45;&#45;r3 -->
<g id="edge18" class="edge"><title>u1&#45;&#45;r3</title>
<path fill="none" stroke="black" d="M1689.95,-695.443C1677.61,-684.339 1661.92,-670.884 1647,-660 1622.18,-641.9 1607.29,-647.906 1588,-624 1551.23,-578.426 1535.24,-509.966 1528.84,-471.628"/>
<text text-anchor="middle" x="1534.6" y="-477.301" font-family="Times New Roman,serif" font-size="10.00">rooms</text>
<text text-anchor="middle" x="1680.38" y="-690.051" font-family="Times New Roman,serif" font-size="10.00">uni</text>
</g>
<!-- r4 -->
<g id="node5" class="node"><title>r4</title>
<a xlink:href="../examples/org/sdmlib/examples/studyright/Room.java" xlink:title="&lt;TABLE&gt;">
<polygon fill="none" stroke="black" points="1409,-326 1409,-343 1487,-343 1487,-326 1409,-326"/>
<text text-anchor="start" x="1428.5" y="-332.5" font-family="Times New Roman,serif" font-size="10.00"> </text>
<text text-anchor="start" x="1431.5" y="-332.5" font-family="Times New Roman,serif" font-size="10.00">r4 :Room</text>
</a>
<polygon fill="none" stroke="black" points="1409,-292 1409,-326 1487,-326 1487,-292 1409,-292"/>
<text text-anchor="start" x="1414" y="-314" font-family="Times New Roman,serif" font-size="10.00">roomNo = &quot;arts&quot;</text>
<text text-anchor="start" x="1414" y="-300" font-family="Times New Roman,serif" font-size="10.00">credits = 23</text>
</g>
<!-- u1&#45;&#45;r4 -->
<g id="edge20" class="edge"><title>u1&#45;&#45;r4</title>
<path fill="none" stroke="black" d="M1692.33,-695.442C1680.06,-683.655 1663.69,-669.552 1647,-660 1603.82,-635.283 1579.68,-655.288 1541,-624 1455.56,-554.898 1446.7,-409.583 1447.04,-347.791"/>
<text text-anchor="middle" x="1451.37" y="-354.304" font-family="Times New Roman,serif" font-size="10.00">rooms</text>
<text text-anchor="middle" x="1682.84" y="-689.777" font-family="Times New Roman,serif" font-size="10.00">uni</text>
</g>
<!-- r5 -->
<g id="node6" class="node"><title>r5</title>
<a xlink:href="../examples/org/sdmlib/examples/studyright/Room.java" xlink:title="&lt;TABLE&gt;">
<polygon fill="none" stroke="black" points="1326,-230 1326,-247 1414,-247 1414,-230 1326,-230"/>
<text text-anchor="start" x="1350.5" y="-236.5" font-family="Times New Roman,serif" font-size="10.00"> </text>
<text text-anchor="start" x="1353.5" y="-236.5" font-family="Times New Roman,serif" font-size="10.00">r5 :Room</text>
</a>
<polygon fill="none" stroke="black" points="1326,-196 1326,-230 1414,-230 1414,-196 1326,-196"/>
<text text-anchor="start" x="1331" y="-218" font-family="Times New Roman,serif" font-size="10.00">roomNo = &quot;sports&quot;</text>
<text text-anchor="start" x="1331" y="-204" font-family="Times New Roman,serif" font-size="10.00">credits = 23</text>
</g>
<!-- u1&#45;&#45;r5 -->
<g id="edge22" class="edge"><title>u1&#45;&#45;r5</title>
<path fill="none" stroke="black" d="M1693.3,-695.25C1681.11,-683.096 1664.49,-668.69 1647,-660 1578.22,-625.829 1534.75,-675.744 1478,-624 1368.38,-524.05 1365.2,-325.735 1368.18,-251.732"/>
<text text-anchor="middle" x="1372.19" y="-258.393" font-family="Times New Roman,serif" font-size="10.00">rooms</text>
<text text-anchor="middle" x="1683.87" y="-689.43" font-family="Times New Roman,serif" font-size="10.00">uni</text>
</g>
<!-- r6 -->
<g id="node7" class="node"><title>r6</title>
<a xlink:href="../examples/org/sdmlib/examples/studyright/Room.java" xlink:title="&lt;TABLE&gt;">
<polygon fill="none" stroke="black" points="1349,-134 1349,-151 1431,-151 1431,-134 1349,-134"/>
<text text-anchor="start" x="1370.5" y="-140.5" font-family="Times New Roman,serif" font-size="10.00"> </text>
<text text-anchor="start" x="1373.5" y="-140.5" font-family="Times New Roman,serif" font-size="10.00">r6 :Room</text>
</a>
<polygon fill="none" stroke="black" points="1349,-100 1349,-134 1431,-134 1431,-100 1349,-100"/>
<text text-anchor="start" x="1354" y="-122" font-family="Times New Roman,serif" font-size="10.00">roomNo = &quot;exam&quot;</text>
<text text-anchor="start" x="1354" y="-108" font-family="Times New Roman,serif" font-size="10.00">credits = 0</text>
</g>
<!-- u1&#45;&#45;r6 -->
<g id="edge24" class="edge"><title>u1&#45;&#45;r6</title>
<path fill="none" stroke="black" d="M1685.02,-695.341C1665.08,-678.248 1639.52,-652.579 1626,-624 1591.29,-550.648 1602,-524.149 1602,-443 1602,-443 1602,-443 1602,-317 1602,-230.014 1501.8,-172.829 1439.17,-145.583"/>
<text text-anchor="middle" x="1449.17" y="-143.02" font-family="Times New Roman,serif" font-size="10.00">rooms</text>
<text text-anchor="middle" x="1675.42" y="-690.04" font-family="Times New Roman,serif" font-size="10.00">uni</text>
</g>
<!-- r7 -->
<g id="node8" class="node"><title>r7</title>
<a xlink:href="../examples/org/sdmlib/examples/studyright/Room.java" xlink:title="&lt;TABLE&gt;">
<polygon fill="none" stroke="black" points="1388,-38 1388,-55 1491,-55 1491,-38 1388,-38"/>
<text text-anchor="start" x="1420" y="-44.5" font-family="Times New Roman,serif" font-size="10.00"> </text>
<text text-anchor="start" x="1423" y="-44.5" font-family="Times New Roman,serif" font-size="10.00">r7 :Room</text>
</a>
<polygon fill="none" stroke="black" points="1388,-4 1388,-38 1491,-38 1491,-4 1388,-4"/>
<text text-anchor="start" x="1393" y="-26" font-family="Times New Roman,serif" font-size="10.00">roomNo = &quot;ProgMeth&quot;</text>
<text text-anchor="start" x="1393" y="-12" font-family="Times New Roman,serif" font-size="10.00">credits = 42</text>
</g>
<!-- u1&#45;&#45;r7 -->
<g id="edge26" class="edge"><title>u1&#45;&#45;r7</title>
<path fill="none" stroke="black" d="M1696.85,-695.336C1684.28,-677.248 1667.57,-650.27 1659,-624 1633.91,-547.102 1640,-523.886 1640,-443 1640,-443 1640,-443 1640,-221 1640,-142.369 1557.76,-86.5921 1498.49,-56.6037"/>
<text text-anchor="middle" x="1508.48" y="-54.6281" font-family="Times New Roman,serif" font-size="10.00">rooms</text>
<text text-anchor="middle" x="1688.25" y="-687.738" font-family="Times New Roman,serif" font-size="10.00">uni</text>
</g>
<!-- s8 -->
<g id="node9" class="node"><title>s8</title>
<a xlink:href="../examples/org/sdmlib/examples/studyright/Student.java" xlink:title="&lt;TABLE&gt;">
<polygon fill="none" stroke="black" points="1797,-602 1797,-619 1867,-619 1867,-602 1797,-602"/>
<text text-anchor="start" x="1807.5" y="-608.5" font-family="Times New Roman,serif" font-size="10.00"> </text>
<text text-anchor="start" x="1810.5" y="-608.5" font-family="Times New Roman,serif" font-size="10.00">s8 :Student</text>
</a>
<polygon fill="none" stroke="black" points="1797,-540 1797,-602 1867,-602 1867,-540 1797,-540"/>
<text text-anchor="start" x="1802" y="-590" font-family="Times New Roman,serif" font-size="10.00">name = &quot;Nina&quot;</text>
<text text-anchor="start" x="1802" y="-576" font-family="Times New Roman,serif" font-size="10.00">matrNo = 2323</text>
<text text-anchor="start" x="1802" y="-562" font-family="Times New Roman,serif" font-size="10.00">credits = 0</text>
<text text-anchor="start" x="1802" y="-548" font-family="Times New Roman,serif" font-size="10.00">motivation = 0</text>
</g>
<!-- u1&#45;&#45;s8 -->
<g id="edge16" class="edge"><title>u1&#45;&#45;s8</title>
<path fill="none" stroke="black" d="M1731.86,-695.45C1748.7,-676.201 1773.87,-647.44 1794.76,-623.566"/>
<text text-anchor="middle" x="1791.97" y="-630.669" font-family="Times New Roman,serif" font-size="10.00">students</text>
<text text-anchor="middle" x="1734.64" y="-683.347" font-family="Times New Roman,serif" font-size="10.00">uni</text>
</g>
<!-- s2&#45;&#45;r3 -->
<g id="edge28" class="edge"><title>s2&#45;&#45;r3</title>
<path fill="none" stroke="black" d="M1668.52,-545.731C1636.77,-523.004 1595.14,-493.203 1564.89,-471.555"/>
<text text-anchor="middle" x="1574.72" y="-470.893" font-family="Times New Roman,serif" font-size="10.00">in</text>
<text text-anchor="middle" x="1658.69" y="-541.392" font-family="Times New Roman,serif" font-size="10.00">students</text>
</g>
<!-- r3&#45;&#45;r4 -->
<g id="edge30" class="edge"><title>r3&#45;&#45;r4</title>
<path fill="none" stroke="black" d="M1506.95,-412.396C1494.68,-392.958 1478.51,-367.337 1466.21,-347.847"/>
<text text-anchor="middle" x="1474.62" y="-350.756" font-family="Times New Roman,serif" font-size="10.00">neighbors</text>
<text text-anchor="middle" x="1498.54" y="-404.488" font-family="Times New Roman,serif" font-size="10.00">neighbors</text>
</g>
<!-- r3&#45;&#45;r5 -->
<g id="edge32" class="edge"><title>r3&#45;&#45;r5</title>
<path fill="none" stroke="black" d="M1528.62,-412.411C1531.24,-379.279 1530.53,-324.564 1504,-288 1484.48,-261.11 1450.8,-244.837 1422.09,-235.299"/>
<text text-anchor="middle" x="1432.04" y="-231.811" font-family="Times New Roman,serif" font-size="10.00">neighbors</text>
<text text-anchor="middle" x="1524.97" y="-400.6" font-family="Times New Roman,serif" font-size="10.00">neighbors</text>
</g>
<!-- r4&#45;&#45;r5 -->
<g id="edge34" class="edge"><title>r4&#45;&#45;r5</title>
<path fill="none" stroke="black" d="M1424.17,-288.286C1414.5,-276.624 1403.34,-263.182 1393.68,-251.538"/>
<text text-anchor="middle" x="1402.72" y="-253.314" font-family="Times New Roman,serif" font-size="10.00">neighbors</text>
<text text-anchor="middle" x="1415.13" y="-281.51" font-family="Times New Roman,serif" font-size="10.00">neighbors</text>
</g>
<!-- r4&#45;&#45;r6 -->
<g id="edge36" class="edge"><title>r4&#45;&#45;r6</title>
<path fill="none" stroke="black" d="M1447.55,-288.376C1446.34,-262.492 1442.53,-223.695 1431,-192 1426.39,-179.337 1419.04,-166.548 1411.82,-155.704"/>
<text text-anchor="middle" x="1420.32" y="-158.473" font-family="Times New Roman,serif" font-size="10.00">neighbors</text>
<text text-anchor="middle" x="1442.83" y="-277.057" font-family="Times New Roman,serif" font-size="10.00">neighbors</text>
</g>
<!-- r4&#45;&#45;r7 -->
<g id="edge38" class="edge"><title>r4&#45;&#45;r7</title>
<path fill="none" stroke="black" d="M1450.15,-288.219C1450.9,-276.933 1451.64,-263.866 1452,-252 1454.13,-182.677 1454.21,-165.078 1448,-96 1446.93,-84.086 1445.22,-71.0104 1443.58,-59.7303"/>
<text text-anchor="middle" x="1449.05" y="-65.6003" font-family="Times New Roman,serif" font-size="10.00">neighbors</text>
<text text-anchor="middle" x="1446.52" y="-276.402" font-family="Times New Roman,serif" font-size="10.00">neighbors</text>
</g>
<!-- r5&#45;&#45;r6 -->
<g id="edge40" class="edge"><title>r5&#45;&#45;r6</title>
<path fill="none" stroke="black" d="M1376.11,-192.286C1378.59,-180.624 1381.45,-167.182 1383.93,-155.538"/>
<text text-anchor="middle" x="1386.18" y="-162.782" font-family="Times New Roman,serif" font-size="10.00">neighbors</text>
<text text-anchor="middle" x="1373.86" y="-180.042" font-family="Times New Roman,serif" font-size="10.00">neighbors</text>
</g>
<!-- r6&#45;&#45;r7 -->
<g id="edge42" class="edge"><title>r6&#45;&#45;r7</title>
<path fill="none" stroke="black" d="M1404.97,-96.2861C1411.05,-84.624 1418.05,-71.1822 1424.12,-59.538"/>
<text text-anchor="middle" x="1423.68" y="-67.0283" font-family="Times New Roman,serif" font-size="10.00">neighbors</text>
<text text-anchor="middle" x="1405.41" y="-83.7959" font-family="Times New Roman,serif" font-size="10.00">neighbors</text>
</g>
<!-- t14 -->
<g id="node14" class="node"><title>t14</title>
<a xlink:href="../../SDMLib/src/org/sdmlib/models/transformations/Template.java" xlink:title="&lt;TABLE&gt;">
<polygon fill="none" stroke="black" points="8,-754 8,-771 1630,-771 1630,-754 8,-754"/>
<text text-anchor="start" x="790.5" y="-760.5" font-family="Times New Roman,serif" font-size="10.00"> </text>
<text text-anchor="start" x="793.5" y="-760.5" font-family="Times New Roman,serif" font-size="10.00">t14 :Template</text>
</a>
<polygon fill="none" stroke="black" points="8,-664 8,-754 1630,-754 1630,-664 8,-664"/>
<text text-anchor="start" x="13" y="-742" font-family="Times New Roman,serif" font-size="10.00">templateText = &quot; &#45; The xy room has 42 credits. It is connected to rooms: neighbors&quot;</text>
<text text-anchor="start" x="13" y="-728" font-family="Times New Roman,serif" font-size="10.00">modelClassName = &quot;org.sdmlib.examples.studyright.Room&quot;</text>
<text text-anchor="start" x="13" y="-714" font-family="Times New Roman,serif" font-size="10.00">expandedText = &quot; &#45; The math room has 42 credits. It is connected to rooms: arts, sports. &#45; The arts room has 23 credits. It is connected to rooms: math, sports, exam, ProgMeth. &#45; The sports room has 23 credits. It is connected to rooms: math, arts, exam. &#45; The exam room has 0 credits. It is connected to rooms: sports, arts, ProgMeth. &#45; The ProgMeth room has 42 credits. It is connected to rooms: arts, exam.&quot;</text>
<text text-anchor="start" x="13" y="-700" font-family="Times New Roman,serif" font-size="10.00">listStart = &quot;&quot;</text>
<text text-anchor="start" x="13" y="-686" font-family="Times New Roman,serif" font-size="10.00">listSeparator = &quot;&quot;</text>
<text text-anchor="start" x="13" y="-672" font-family="Times New Roman,serif" font-size="10.00">listEnd = &quot;&quot;</text>
</g>
<!-- p13&#45;&#45;t14 -->
<g id="edge44" class="edge"><title>p13&#45;&#45;t14</title>
<path fill="none" stroke="black" d="M942.253,-812.396C927.754,-801.41 910.648,-788.447 893.87,-775.734"/>
<text text-anchor="middle" x="903.646" y="-775.339" font-family="Times New Roman,serif" font-size="10.00">subTemplate</text>
<text text-anchor="middle" x="932.477" y="-807.791" font-family="Times New Roman,serif" font-size="10.00">placeholderDescription</text>
</g>
<!-- t14&#45;&#45;r3 -->
<g id="edge46" class="edge"><title>t14&#45;&#45;r3</title>
<path fill="none" stroke="black" d="M1330.28,-660.496C1370.65,-650.206 1403.65,-638.135 1424,-624 1477.2,-587.044 1505.52,-512.574 1517.65,-471.614"/>
<text text-anchor="middle" x="1518.98" y="-479.025" font-family="Times New Roman,serif" font-size="10.00">modelObject</text>
</g>
<!-- t14&#45;&#45;r4 -->
<g id="edge48" class="edge"><title>t14&#45;&#45;r4</title>
<path fill="none" stroke="black" d="M1200.22,-660.481C1239.47,-649.9 1271.67,-637.76 1290,-624 1384.43,-553.118 1427.31,-409.429 1441.89,-347.958"/>
<text text-anchor="middle" x="1443.76" y="-355.281" font-family="Times New Roman,serif" font-size="10.00">modelObject</text>
</g>
<!-- t14&#45;&#45;r5 -->
<g id="edge50" class="edge"><title>t14&#45;&#45;r5</title>
<path fill="none" stroke="black" d="M896.342,-660.251C908.818,-649.078 920.926,-636.816 931,-624 957.901,-589.776 953.795,-574.557 974,-536 1032.65,-424.081 1012.71,-364.853 1113,-288 1173,-242.022 1261.8,-228.286 1317.75,-224.345"/>
<text text-anchor="middle" x="1309.08" y="-226.821" font-family="Times New Roman,serif" font-size="10.00">modelObject</text>
</g>
<!-- t14&#45;&#45;r6 -->
<g id="edge52" class="edge"><title>t14&#45;&#45;r6</title>
<path fill="none" stroke="black" d="M876.062,-660.341C884.703,-649.074 892.54,-636.757 898,-624 929.825,-549.638 917,-523.886 917,-443 917,-443 917,-443 917,-317 917,-226.403 1219.57,-159.185 1340.72,-135.903"/>
<text text-anchor="middle" x="1332.66" y="-139.328" font-family="Times New Roman,serif" font-size="10.00">modelObject</text>
</g>
<!-- t14&#45;&#45;r7 -->
<g id="edge54" class="edge"><title>t14&#45;&#45;r7</title>
<path fill="none" stroke="black" d="M761.938,-660.341C753.297,-649.074 745.46,-636.757 740,-624 708.175,-549.638 721,-523.886 721,-443 721,-443 721,-443 721,-221 721,-85.1259 1207.61,-44.1981 1379.63,-33.9747"/>
<text text-anchor="middle" x="1370.87" y="-36.2996" font-family="Times New Roman,serif" font-size="10.00">modelObject</text>
</g>
<!-- p15 -->
<g id="node15" class="node"><title>p15</title>
<a xlink:href="../../SDMLib/src/org/sdmlib/models/transformations/PlaceHolderDescription.java" xlink:title="&lt;TABLE&gt;">
<polygon fill="none" stroke="black" points="991,-588 991,-605 1115,-605 1115,-588 991,-588"/>
<text text-anchor="start" x="994.5" y="-594.5" font-family="Times New Roman,serif" font-size="10.00"> </text>
<text text-anchor="start" x="997.5" y="-594.5" font-family="Times New Roman,serif" font-size="10.00">p15 :PlaceHolderDescription</text>
</a>
<polygon fill="none" stroke="black" points="991,-554 991,-588 1115,-588 1115,-554 991,-554"/>
<text text-anchor="start" x="996" y="-576" font-family="Times New Roman,serif" font-size="10.00">textFragment = &quot;xy&quot;</text>
<text text-anchor="start" x="996" y="-562" font-family="Times New Roman,serif" font-size="10.00">attrName = &quot;roomNo&quot;</text>
</g>
<!-- t14&#45;&#45;p15 -->
<g id="edge56" class="edge"><title>t14&#45;&#45;p15</title>
<path fill="none" stroke="black" d="M916.543,-660.309C946.64,-642.816 978.504,-624.297 1003.87,-609.557"/>
<text text-anchor="middle" x="998.154" y="-615.265" font-family="Times New Roman,serif" font-size="10.00">placeholders</text>
<text text-anchor="middle" x="922.255" y="-649.601" font-family="Times New Roman,serif" font-size="10.00">template</text>
</g>
<!-- p16 -->
<g id="node16" class="node"><title>p16</title>
<a xlink:href="../../SDMLib/src/org/sdmlib/models/transformations/PlaceHolderDescription.java" xlink:title="&lt;TABLE&gt;">
<polygon fill="none" stroke="black" points="757,-588 757,-605 881,-605 881,-588 757,-588"/>
<text text-anchor="start" x="760.5" y="-594.5" font-family="Times New Roman,serif" font-size="10.00"> </text>
<text text-anchor="start" x="763.5" y="-594.5" font-family="Times New Roman,serif" font-size="10.00">p16 :PlaceHolderDescription</text>
</a>
<polygon fill="none" stroke="black" points="757,-554 757,-588 881,-588 881,-554 757,-554"/>
<text text-anchor="start" x="762" y="-576" font-family="Times New Roman,serif" font-size="10.00">textFragment = &quot;42&quot;</text>
<text text-anchor="start" x="762" y="-562" font-family="Times New Roman,serif" font-size="10.00">attrName = &quot;credits&quot;</text>
</g>
<!-- t14&#45;&#45;p16 -->
<g id="edge58" class="edge"><title>t14&#45;&#45;p16</title>
<path fill="none" stroke="black" d="M819,-660.112C819,-642.788 819,-624.476 819,-609.837"/>
<text text-anchor="middle" x="823.226" y="-616.4" font-family="Times New Roman,serif" font-size="10.00">placeholders</text>
<text text-anchor="middle" x="814.774" y="-648.549" font-family="Times New Roman,serif" font-size="10.00">template</text>
</g>
<!-- p17 -->
<g id="node17" class="node"><title>p17</title>
<a xlink:href="../../SDMLib/src/org/sdmlib/models/transformations/PlaceHolderDescription.java" xlink:title="&lt;TABLE&gt;">
<polygon fill="none" stroke="black" points="1149,-588 1149,-605 1273,-605 1273,-588 1149,-588"/>
<text text-anchor="start" x="1152.5" y="-594.5" font-family="Times New Roman,serif" font-size="10.00"> </text>
<text text-anchor="start" x="1155.5" y="-594.5" font-family="Times New Roman,serif" font-size="10.00">p17 :PlaceHolderDescription</text>
</a>
<polygon fill="none" stroke="black" points="1149,-554 1149,-588 1273,-588 1273,-554 1149,-554"/>
<text text-anchor="start" x="1154" y="-576" font-family="Times New Roman,serif" font-size="10.00">textFragment = &quot;neighbors&quot;</text>
<text text-anchor="start" x="1154" y="-562" font-family="Times New Roman,serif" font-size="10.00">attrName = &quot;neighbors&quot;</text>
</g>
<!-- t14&#45;&#45;p17 -->
<g id="edge60" class="edge"><title>t14&#45;&#45;p17</title>
<path fill="none" stroke="black" d="M1031.57,-660.411C1065.58,-649.486 1100.06,-637.263 1132,-624 1141.95,-619.867 1152.28,-614.839 1162.05,-609.697"/>
<text text-anchor="middle" x="1155.97" y="-615.136" font-family="Times New Roman,serif" font-size="10.00">placeholders</text>
<text text-anchor="middle" x="1038.88" y="-651.093" font-family="Times New Roman,serif" font-size="10.00">template</text>
</g>
<!-- t18 -->
<g id="node18" class="node"><title>t18</title>
<a xlink:href="../../SDMLib/src/org/sdmlib/models/transformations/Template.java" xlink:title="&lt;TABLE&gt;">
<polygon fill="none" stroke="black" points="1087,-478 1087,-495 1336,-495 1336,-478 1087,-478"/>
<text text-anchor="start" x="1183" y="-484.5" font-family="Times New Roman,serif" font-size="10.00"> </text>
<text text-anchor="start" x="1186" y="-484.5" font-family="Times New Roman,serif" font-size="10.00">t18 :Template</text>
</a>
<polygon fill="none" stroke="black" points="1087,-388 1087,-478 1336,-478 1336,-388 1087,-388"/>
<text text-anchor="start" x="1092" y="-466" font-family="Times New Roman,serif" font-size="10.00">templateText = &quot;name&quot;</text>
<text text-anchor="start" x="1092" y="-452" font-family="Times New Roman,serif" font-size="10.00">modelClassName = &quot;org.sdmlib.examples.studyright.Room&quot;</text>
<text text-anchor="start" x="1092" y="-438" font-family="Times New Roman,serif" font-size="10.00">expandedText = &quot;arts, exam.&quot;</text>
<text text-anchor="start" x="1092" y="-424" font-family="Times New Roman,serif" font-size="10.00">listStart = &quot;&quot;</text>
<text text-anchor="start" x="1092" y="-410" font-family="Times New Roman,serif" font-size="10.00">listSeparator = &quot;, &quot;</text>
<text text-anchor="start" x="1092" y="-396" font-family="Times New Roman,serif" font-size="10.00">listEnd = &quot;.&quot;</text>
</g>
<!-- p17&#45;&#45;t18 -->
<g id="edge62" class="edge"><title>p17&#45;&#45;t18</title>
<path fill="none" stroke="black" d="M1211,-550.49C1211,-535.691 1211,-517.073 1211,-499.509"/>
<text text-anchor="middle" x="1215.23" y="-506.072" font-family="Times New Roman,serif" font-size="10.00">subTemplate</text>
<text text-anchor="middle" x="1206.77" y="-538.927" font-family="Times New Roman,serif" font-size="10.00">placeholderDescription</text>
</g>
<!-- t18&#45;&#45;r4 -->
<g id="edge64" class="edge"><title>t18&#45;&#45;r4</title>
<path fill="none" stroke="black" d="M1320.83,-384.464C1349.04,-369.941 1377.91,-355.079 1401,-343.194"/>
<text text-anchor="middle" x="1394.88" y="-348.6" font-family="Times New Roman,serif" font-size="10.00">modelObject</text>
</g>
<!-- t18&#45;&#45;r6 -->
<g id="edge66" class="edge"><title>t18&#45;&#45;r6</title>
<path fill="none" stroke="black" d="M1251.74,-384.376C1258.89,-372.73 1265.73,-360.269 1271,-348 1299.18,-282.439 1270.69,-252.204 1309,-192 1317.91,-178.005 1330.87,-165.675 1343.83,-155.619"/>
<text text-anchor="middle" x="1339.36" y="-162.065" font-family="Times New Roman,serif" font-size="10.00">modelObject</text>
</g>
<!-- p19 -->
<g id="node19" class="node"><title>p19</title>
<a xlink:href="../../SDMLib/src/org/sdmlib/models/transformations/PlaceHolderDescription.java" xlink:title="&lt;TABLE&gt;">
<polygon fill="none" stroke="black" points="1130,-326 1130,-343 1254,-343 1254,-326 1130,-326"/>
<text text-anchor="start" x="1133.5" y="-332.5" font-family="Times New Roman,serif" font-size="10.00"> </text>
<text text-anchor="start" x="1136.5" y="-332.5" font-family="Times New Roman,serif" font-size="10.00">p19 :PlaceHolderDescription</text>
</a>
<polygon fill="none" stroke="black" points="1130,-292 1130,-326 1254,-326 1254,-292 1130,-292"/>
<text text-anchor="start" x="1135" y="-314" font-family="Times New Roman,serif" font-size="10.00">textFragment = &quot;name&quot;</text>
<text text-anchor="start" x="1135" y="-300" font-family="Times New Roman,serif" font-size="10.00">attrName = &quot;roomNo&quot;</text>
</g>
<!-- t18&#45;&#45;p19 -->
<g id="edge68" class="edge"><title>t18&#45;&#45;p19</title>
<path fill="none" stroke="black" d="M1202.17,-384.286C1200.19,-371.592 1198.17,-358.649 1196.47,-347.671"/>
<text text-anchor="middle" x="1202.04" y="-353.476" font-family="Times New Roman,serif" font-size="10.00">placeholders</text>
<text text-anchor="middle" x="1196.6" y="-373.481" font-family="Times New Roman,serif" font-size="10.00">template</text>
</g>
<!-- t21 -->
<g id="node21" class="node"><title>t21</title>
<a xlink:href="../../SDMLib/src/org/sdmlib/models/transformations/Template.java" xlink:title="&lt;TABLE&gt;">
<polygon fill="none" stroke="black" points="1796,-754 1796,-771 2150,-771 2150,-754 1796,-754"/>
<text text-anchor="start" x="1944.5" y="-760.5" font-family="Times New Roman,serif" font-size="10.00"> </text>
<text text-anchor="start" x="1947.5" y="-760.5" font-family="Times New Roman,serif" font-size="10.00">t21 :Template</text>
</a>
<polygon fill="none" stroke="black" points="1796,-664 1796,-754 2150,-754 2150,-664 1796,-664"/>
<text text-anchor="start" x="1801" y="-742" font-family="Times New Roman,serif" font-size="10.00">templateText = &quot; &#45; Stud has student number 1234.&quot;</text>
<text text-anchor="start" x="1801" y="-728" font-family="Times New Roman,serif" font-size="10.00">modelClassName = &quot;org.sdmlib.examples.studyright.Student&quot;</text>
<text text-anchor="start" x="1801" y="-714" font-family="Times New Roman,serif" font-size="10.00">expandedText = &quot; &#45; Albert has student number 4242. &#45; Nina has student number 2323.&quot;</text>
<text text-anchor="start" x="1801" y="-700" font-family="Times New Roman,serif" font-size="10.00">listStart = &quot;&quot;</text>
<text text-anchor="start" x="1801" y="-686" font-family="Times New Roman,serif" font-size="10.00">listSeparator = &quot;&quot;</text>
<text text-anchor="start" x="1801" y="-672" font-family="Times New Roman,serif" font-size="10.00">listEnd = &quot;&quot;</text>
</g>
<!-- p20&#45;&#45;t21 -->
<g id="edge70" class="edge"><title>p20&#45;&#45;t21</title>
<path fill="none" stroke="black" d="M1911.76,-812.396C1918.96,-801.41 1927.46,-788.447 1935.8,-775.734"/>
<text text-anchor="middle" x="1934.36" y="-783.13" font-family="Times New Roman,serif" font-size="10.00">subTemplate</text>
<text text-anchor="middle" x="1913.19" y="-800" font-family="Times New Roman,serif" font-size="10.00">placeholderDescription</text>
</g>
<!-- t21&#45;&#45;s2 -->
<g id="edge72" class="edge"><title>t21&#45;&#45;s2</title>
<path fill="none" stroke="black" d="M1849.2,-660.416C1825.91,-648.914 1801.99,-636.495 1780,-624 1773.88,-620.524 1767.57,-616.686 1761.39,-612.776"/>
<text text-anchor="middle" x="1771.31" y="-611.533" font-family="Times New Roman,serif" font-size="10.00">modelObject</text>
</g>
<!-- t21&#45;&#45;s8 -->
<g id="edge74" class="edge"><title>t21&#45;&#45;s8</title>
<path fill="none" stroke="black" d="M1914.02,-660.112C1901.04,-647.592 1887.53,-634.556 1875.3,-622.763"/>
<text text-anchor="middle" x="1884.76" y="-623.514" font-family="Times New Roman,serif" font-size="10.00">modelObject</text>
</g>
<!-- p22 -->
<g id="node22" class="node"><title>p22</title>
<a xlink:href="../../SDMLib/src/org/sdmlib/models/transformations/PlaceHolderDescription.java" xlink:title="&lt;TABLE&gt;">
<polygon fill="none" stroke="black" points="1906,-588 1906,-605 2030,-605 2030,-588 1906,-588"/>
<text text-anchor="start" x="1909.5" y="-594.5" font-family="Times New Roman,serif" font-size="10.00"> </text>
<text text-anchor="start" x="1912.5" y="-594.5" font-family="Times New Roman,serif" font-size="10.00">p22 :PlaceHolderDescription</text>
</a>
<polygon fill="none" stroke="black" points="1906,-554 1906,-588 2030,-588 2030,-554 1906,-554"/>
<text text-anchor="start" x="1911" y="-576" font-family="Times New Roman,serif" font-size="10.00">textFragment = &quot;Stud&quot;</text>
<text text-anchor="start" x="1911" y="-562" font-family="Times New Roman,serif" font-size="10.00">attrName = &quot;name&quot;</text>
</g>
<!-- t21&#45;&#45;p22 -->
<g id="edge76" class="edge"><title>t21&#45;&#45;p22</title>
<path fill="none" stroke="black" d="M1970.91,-660.112C1970.27,-642.788 1969.6,-624.476 1969.06,-609.837"/>
<text text-anchor="middle" x="1973.62" y="-616.239" font-family="Times New Roman,serif" font-size="10.00">placeholders</text>
<text text-anchor="middle" x="1966.35" y="-648.71" font-family="Times New Roman,serif" font-size="10.00">template</text>
</g>
<!-- p23 -->
<g id="node23" class="node"><title>p23</title>
<a xlink:href="../../SDMLib/src/org/sdmlib/models/transformations/PlaceHolderDescription.java" xlink:title="&lt;TABLE&gt;">
<polygon fill="none" stroke="black" points="2064,-588 2064,-605 2188,-605 2188,-588 2064,-588"/>
<text text-anchor="start" x="2067.5" y="-594.5" font-family="Times New Roman,serif" font-size="10.00"> </text>
<text text-anchor="start" x="2070.5" y="-594.5" font-family="Times New Roman,serif" font-size="10.00">p23 :PlaceHolderDescription</text>
</a>
<polygon fill="none" stroke="black" points="2064,-554 2064,-588 2188,-588 2188,-554 2064,-554"/>
<text text-anchor="start" x="2069" y="-576" font-family="Times New Roman,serif" font-size="10.00">textFragment = &quot;1234&quot;</text>
<text text-anchor="start" x="2069" y="-562" font-family="Times New Roman,serif" font-size="10.00">attrName = &quot;matrNo&quot;</text>
</g>
<!-- t21&#45;&#45;p23 -->
<g id="edge78" class="edge"><title>t21&#45;&#45;p23</title>
<path fill="none" stroke="black" d="M2037,-660.112C2056.49,-642.788 2077.09,-624.476 2093.56,-609.837"/>
<text text-anchor="middle" x="2089.59" y="-616.517" font-family="Times New Roman,serif" font-size="10.00">placeholders</text>
<text text-anchor="middle" x="2040.97" y="-648.432" font-family="Times New Roman,serif" font-size="10.00">template</text>
</g>
</g>
</svg>
