<?xml version="1.0" encoding="UTF-8" standalone="no"?>
<!DOCTYPE svg PUBLIC "-//W3C//DTD SVG 1.1//EN"
 "http://www.w3.org/Graphics/SVG/1.1/DTD/svg11.dtd">
<!-- Generated by graphviz version 2.28.0 (20110507.0327)
 -->
<!-- Title: ObjectDiagram Pages: 1 -->
<svg width="1321pt" height="1230pt"
 viewBox="0.00 0.00 1320.60 1230.00" xmlns="http://www.w3.org/2000/svg" xmlns:xlink="http://www.w3.org/1999/xlink">
<g id="graph1" class="graph" transform="scale(1 1) rotate(0) translate(4 1226)">
<title>ObjectDiagram</title>
<polygon fill="white" stroke="white" points="-4,5 -4,-1226 1317.6,-1226 1317.6,5 -4,5"/>
<!-- t9 -->
<g id="node1" class="node"><title>t9</title>
<a xlink:href="../../SDMLib/src/org/sdmlib/models/transformations/Template.java" xlink:title="&lt;TABLE&gt;">
<polygon fill="none" stroke="black" points="310.596,-1200 310.596,-1217 809.596,-1217 809.596,-1200 310.596,-1200"/>
<text text-anchor="start" x="530.596" y="-1206.5" font-family="Arial" font-size="10.00"> </text>
<text text-anchor="start" x="534.596" y="-1206.5" font-family="Arial" font-size="10.00">t9 :Template</text>
</a>
<polygon fill="none" stroke="black" points="310.596,-1068 310.596,-1200 809.596,-1200 809.596,-1068 310.596,-1068"/>
<text text-anchor="start" x="315.596" y="-1188" font-family="Arial" font-size="10.00">templateText = &quot;The example University has 99 rooms and 88 students: roomList The students are: studentList &quot;</text>
<text text-anchor="start" x="315.596" y="-1174" font-family="Arial" font-size="10.00">expandedText = &quot;&quot;</text>
<text text-anchor="start" x="315.596" y="-1160" font-family="Arial" font-size="10.00">modelClassName = &quot;&quot;</text>
<text text-anchor="start" x="315.596" y="-1146" font-family="Arial" font-size="10.00">listStart = &quot;&quot;</text>
<text text-anchor="start" x="315.596" y="-1132" font-family="Arial" font-size="10.00">listSeparator = &quot;&quot;</text>
<text text-anchor="start" x="315.596" y="-1118" font-family="Arial" font-size="10.00">listEnd = &quot;&quot;</text>
<text text-anchor="start" x="315.596" y="-1104" font-family="Arial" font-size="10.00">chooser = &quot;&quot;</text>
<text text-anchor="start" x="315.596" y="-1090" font-family="Arial" font-size="10.00">referenceLookup = &quot;false&quot;</text>
<text text-anchor="start" x="315.596" y="-1076" font-family="Arial" font-size="10.00">name = &quot;&quot;</text>
</g>
<!-- u1 -->
<g id="node2" class="node"><title>u1</title>
<a xlink:href="../examples/org/sdmlib/examples/studyright/University.java" xlink:title="&lt;TABLE&gt;">
<polygon fill="none" stroke="black" points="102.596,-971 102.596,-988 205.596,-988 205.596,-971 102.596,-971"/>
<text text-anchor="start" x="122.596" y="-977.5" font-family="Arial" font-size="10.00"> </text>
<text text-anchor="start" x="126.596" y="-977.5" font-family="Arial" font-size="10.00">u1 :University</text>
</a>
<polygon fill="none" stroke="black" points="102.596,-951 102.596,-971 205.596,-971 205.596,-951 102.596,-951"/>
<text text-anchor="start" x="107.596" y="-959" font-family="Arial" font-size="10.00">name = &quot;StudyRight&quot;</text>
</g>
<!-- t9&#45;&#45;u1 -->
<g id="edge2" class="edge"><title>t9&#45;&#45;u1</title>
<path fill="none" stroke="black" d="M302.343,-1066.6C274.432,-1055.1 246.978,-1042.25 221.596,-1028 204.536,-1018.42 187.667,-1004.32 174.999,-992.54"/>
<text text-anchor="middle" x="184.535" y="-993.051" font-family="Arial" font-size="10.00">modelObject</text>
</g>
<!-- p10 -->
<g id="node10" class="node"><title>p10</title>
<a xlink:href="../../SDMLib/src/org/sdmlib/models/transformations/PlaceHolderDescription.java" xlink:title="&lt;TABLE&gt;">
<polygon fill="none" stroke="black" points="239.596,-1006 239.596,-1023 374.596,-1023 374.596,-1006 239.596,-1006"/>
<text text-anchor="start" x="243.096" y="-1012.5" font-family="Arial" font-size="10.00"> </text>
<text text-anchor="start" x="247.096" y="-1012.5" font-family="Arial" font-size="10.00">p10 :PlaceHolderDescription</text>
</a>
<polygon fill="none" stroke="black" points="239.596,-916 239.596,-1006 374.596,-1006 374.596,-916 239.596,-916"/>
<text text-anchor="start" x="244.596" y="-994" font-family="Arial" font-size="10.00">textFragment = &quot;example&quot;</text>
<text text-anchor="start" x="244.596" y="-980" font-family="Arial" font-size="10.00">value = &quot;&quot;</text>
<text text-anchor="start" x="244.596" y="-966" font-family="Arial" font-size="10.00">attrName = &quot;name&quot;</text>
<text text-anchor="start" x="244.596" y="-952" font-family="Arial" font-size="10.00">isKeyAttribute = &quot;false&quot;</text>
<text text-anchor="start" x="244.596" y="-938" font-family="Arial" font-size="10.00">subTemplate = &quot;&quot;</text>
<text text-anchor="start" x="244.596" y="-924" font-family="Arial" font-size="10.00">prefix = &quot;&quot;</text>
</g>
<!-- t9&#45;&#45;p10 -->
<g id="edge4" class="edge"><title>t9&#45;&#45;p10</title>
<path fill="none" stroke="black" d="M444.568,-1064.47C426.5,-1052.27 408.037,-1039.8 390.596,-1028 387.823,-1026.12 384.998,-1024.21 382.146,-1022.28"/>
<text text-anchor="middle" x="392.02" y="-1021.36" font-family="Arial" font-size="10.00">placeholders</text>
<text text-anchor="middle" x="434.692" y="-1060.4" font-family="Arial" font-size="10.00">owners</text>
</g>
<!-- p11 -->
<g id="node11" class="node"><title>p11</title>
<a xlink:href="../../SDMLib/src/org/sdmlib/models/transformations/PlaceHolderDescription.java" xlink:title="&lt;TABLE&gt;">
<polygon fill="none" stroke="black" points="408.596,-1006 408.596,-1023 543.596,-1023 543.596,-1006 408.596,-1006"/>
<text text-anchor="start" x="412.096" y="-1012.5" font-family="Arial" font-size="10.00"> </text>
<text text-anchor="start" x="416.096" y="-1012.5" font-family="Arial" font-size="10.00">p11 :PlaceHolderDescription</text>
</a>
<polygon fill="none" stroke="black" points="408.596,-916 408.596,-1006 543.596,-1006 543.596,-916 408.596,-916"/>
<text text-anchor="start" x="413.596" y="-994" font-family="Arial" font-size="10.00">textFragment = &quot;99&quot;</text>
<text text-anchor="start" x="413.596" y="-980" font-family="Arial" font-size="10.00">value = &quot;&quot;</text>
<text text-anchor="start" x="413.596" y="-966" font-family="Arial" font-size="10.00">attrName = &quot;rooms.size&quot;</text>
<text text-anchor="start" x="413.596" y="-952" font-family="Arial" font-size="10.00">isKeyAttribute = &quot;false&quot;</text>
<text text-anchor="start" x="413.596" y="-938" font-family="Arial" font-size="10.00">subTemplate = &quot;&quot;</text>
<text text-anchor="start" x="413.596" y="-924" font-family="Arial" font-size="10.00">prefix = &quot;&quot;</text>
</g>
<!-- t9&#45;&#45;p11 -->
<g id="edge6" class="edge"><title>t9&#45;&#45;p11</title>
<path fill="none" stroke="black" d="M521.283,-1064.01C515.269,-1051.76 509.153,-1039.31 503.433,-1027.67"/>
<text text-anchor="middle" x="511.222" y="-1031.44" font-family="Arial" font-size="10.00">placeholders</text>
<text text-anchor="middle" x="513.494" y="-1055.23" font-family="Arial" font-size="10.00">owners</text>
</g>
<!-- p12 -->
<g id="node12" class="node"><title>p12</title>
<a xlink:href="../../SDMLib/src/org/sdmlib/models/transformations/PlaceHolderDescription.java" xlink:title="&lt;TABLE&gt;">
<polygon fill="none" stroke="black" points="577.596,-1006 577.596,-1023 712.596,-1023 712.596,-1006 577.596,-1006"/>
<text text-anchor="start" x="581.096" y="-1012.5" font-family="Arial" font-size="10.00"> </text>
<text text-anchor="start" x="585.096" y="-1012.5" font-family="Arial" font-size="10.00">p12 :PlaceHolderDescription</text>
</a>
<polygon fill="none" stroke="black" points="577.596,-916 577.596,-1006 712.596,-1006 712.596,-916 577.596,-916"/>
<text text-anchor="start" x="582.596" y="-994" font-family="Arial" font-size="10.00">textFragment = &quot;88&quot;</text>
<text text-anchor="start" x="582.596" y="-980" font-family="Arial" font-size="10.00">value = &quot;&quot;</text>
<text text-anchor="start" x="582.596" y="-966" font-family="Arial" font-size="10.00">attrName = &quot;students.size&quot;</text>
<text text-anchor="start" x="582.596" y="-952" font-family="Arial" font-size="10.00">isKeyAttribute = &quot;false&quot;</text>
<text text-anchor="start" x="582.596" y="-938" font-family="Arial" font-size="10.00">subTemplate = &quot;&quot;</text>
<text text-anchor="start" x="582.596" y="-924" font-family="Arial" font-size="10.00">prefix = &quot;&quot;</text>
</g>
<!-- t9&#45;&#45;p12 -->
<g id="edge8" class="edge"><title>t9&#45;&#45;p12</title>
<path fill="none" stroke="black" d="M598.365,-1064.01C604.451,-1051.76 610.64,-1039.31 616.427,-1027.67"/>
<text text-anchor="middle" x="616.178" y="-1035.17" font-family="Arial" font-size="10.00">placeholders</text>
<text text-anchor="middle" x="598.615" y="-1051.51" font-family="Arial" font-size="10.00">owners</text>
</g>
<!-- p13 -->
<g id="node13" class="node"><title>p13</title>
<a xlink:href="../../SDMLib/src/org/sdmlib/models/transformations/PlaceHolderDescription.java" xlink:title="&lt;TABLE&gt;">
<polygon fill="none" stroke="black" points="746.596,-999 746.596,-1016 881.596,-1016 881.596,-999 746.596,-999"/>
<text text-anchor="start" x="750.096" y="-1005.5" font-family="Arial" font-size="10.00"> </text>
<text text-anchor="start" x="754.096" y="-1005.5" font-family="Arial" font-size="10.00">p13 :PlaceHolderDescription</text>
</a>
<polygon fill="none" stroke="black" points="746.596,-923 746.596,-999 881.596,-999 881.596,-923 746.596,-923"/>
<text text-anchor="start" x="751.596" y="-987" font-family="Arial" font-size="10.00">textFragment = &quot;roomList&quot;</text>
<text text-anchor="start" x="751.596" y="-973" font-family="Arial" font-size="10.00">value = &quot;&quot;</text>
<text text-anchor="start" x="751.596" y="-959" font-family="Arial" font-size="10.00">attrName = &quot;rooms&quot;</text>
<text text-anchor="start" x="751.596" y="-945" font-family="Arial" font-size="10.00">isKeyAttribute = &quot;false&quot;</text>
<text text-anchor="start" x="751.596" y="-931" font-family="Arial" font-size="10.00">prefix = &quot;&quot;</text>
</g>
<!-- t9&#45;&#45;p13 -->
<g id="edge10" class="edge"><title>t9&#45;&#45;p13</title>
<path fill="none" stroke="black" d="M675.076,-1064.26C697.092,-1049.43 719.574,-1034.3 739.846,-1020.65"/>
<text text-anchor="middle" x="734.688" y="-1026.72" font-family="Arial" font-size="10.00">placeholders</text>
<text text-anchor="middle" x="680.234" y="-1053.19" font-family="Arial" font-size="10.00">owners</text>
</g>
<!-- p20 -->
<g id="node20" class="node"><title>p20</title>
<a xlink:href="../../SDMLib/src/org/sdmlib/models/transformations/PlaceHolderDescription.java" xlink:title="&lt;TABLE&gt;">
<polygon fill="none" stroke="black" points="916.596,-999 916.596,-1016 1053.6,-1016 1053.6,-999 916.596,-999"/>
<text text-anchor="start" x="921.096" y="-1005.5" font-family="Arial" font-size="10.00"> </text>
<text text-anchor="start" x="925.096" y="-1005.5" font-family="Arial" font-size="10.00">p20 :PlaceHolderDescription</text>
</a>
<polygon fill="none" stroke="black" points="916.596,-923 916.596,-999 1053.6,-999 1053.6,-923 916.596,-923"/>
<text text-anchor="start" x="921.596" y="-987" font-family="Arial" font-size="10.00">textFragment = &quot;studentList&quot;</text>
<text text-anchor="start" x="921.596" y="-973" font-family="Arial" font-size="10.00">value = &quot;&quot;</text>
<text text-anchor="start" x="921.596" y="-959" font-family="Arial" font-size="10.00">attrName = &quot;students&quot;</text>
<text text-anchor="start" x="921.596" y="-945" font-family="Arial" font-size="10.00">isKeyAttribute = &quot;false&quot;</text>
<text text-anchor="start" x="921.596" y="-931" font-family="Arial" font-size="10.00">prefix = &quot;&quot;</text>
</g>
<!-- t9&#45;&#45;p20 -->
<g id="edge12" class="edge"><title>t9&#45;&#45;p20</title>
<path fill="none" stroke="black" d="M813.012,-1064.44C841.976,-1053.26 870.725,-1041.07 897.596,-1028 902.305,-1025.71 907.064,-1023.21 911.801,-1020.57"/>
<text text-anchor="middle" x="905.919" y="-1026.16" font-family="Arial" font-size="10.00">placeholders</text>
<text text-anchor="middle" x="819.92" y="-1054.71" font-family="Arial" font-size="10.00">owners</text>
</g>
<!-- s2 -->
<g id="node3" class="node"><title>s2</title>
<a xlink:href="../examples/org/sdmlib/examples/studyright/Student.java" xlink:title="&lt;TABLE&gt;">
<polygon fill="none" stroke="black" points="115.596,-812 115.596,-829 191.596,-829 191.596,-812 115.596,-812"/>
<text text-anchor="start" x="126.096" y="-818.5" font-family="Arial" font-size="10.00"> </text>
<text text-anchor="start" x="130.096" y="-818.5" font-family="Arial" font-size="10.00">s2 :Student</text>
</a>
<polygon fill="none" stroke="black" points="115.596,-750 115.596,-812 191.596,-812 191.596,-750 115.596,-750"/>
<text text-anchor="start" x="120.596" y="-800" font-family="Arial" font-size="10.00">name = &quot;Tom&quot;</text>
<text text-anchor="start" x="120.596" y="-786" font-family="Arial" font-size="10.00">matrNo = 4242</text>
<text text-anchor="start" x="120.596" y="-772" font-family="Arial" font-size="10.00">credits = 0</text>
<text text-anchor="start" x="120.596" y="-758" font-family="Arial" font-size="10.00">motivation = 0</text>
</g>
<!-- u1&#45;&#45;s2 -->
<g id="edge14" class="edge"><title>u1&#45;&#45;s2</title>
<path fill="none" stroke="black" d="M153.596,-947.174C153.596,-919.045 153.596,-869.513 153.596,-833.763"/>
<text text-anchor="middle" x="157.822" y="-840.326" font-family="Arial" font-size="10.00">students</text>
<text text-anchor="middle" x="149.37" y="-935.611" font-family="Arial" font-size="10.00">uni</text>
</g>
<!-- r3 -->
<g id="node4" class="node"><title>r3</title>
<a xlink:href="../examples/org/sdmlib/examples/studyright/Room.java" xlink:title="&lt;TABLE&gt;">
<polygon fill="none" stroke="black" points="94.596,-618 94.596,-635 181.596,-635 181.596,-618 94.596,-618"/>
<text text-anchor="start" x="116.096" y="-624.5" font-family="Arial" font-size="10.00"> </text>
<text text-anchor="start" x="120.096" y="-624.5" font-family="Arial" font-size="10.00">r3 :Room</text>
</a>
<polygon fill="none" stroke="black" points="94.596,-584 94.596,-618 181.596,-618 181.596,-584 94.596,-584"/>
<text text-anchor="start" x="99.596" y="-606" font-family="Arial" font-size="10.00">roomNo = &quot;math&quot;</text>
<text text-anchor="start" x="99.596" y="-592" font-family="Arial" font-size="10.00">credits = 42</text>
</g>
<!-- u1&#45;&#45;r3 -->
<g id="edge18" class="edge"><title>u1&#45;&#45;r3</title>
<path fill="none" stroke="black" d="M136.131,-947.243C122.927,-929.314 105.872,-902.597 98.596,-876 78.4244,-802.265 83.5183,-778.943 98.596,-704 103.12,-681.515 113.226,-657.689 122.017,-639.783"/>
<text text-anchor="middle" x="121.891" y="-647.282" font-family="Arial" font-size="10.00">rooms</text>
<text text-anchor="middle" x="127.402" y="-939.864" font-family="Arial" font-size="10.00">uni</text>
</g>
<!-- r4 -->
<g id="node5" class="node"><title>r4</title>
<a xlink:href="../examples/org/sdmlib/examples/studyright/Room.java" xlink:title="&lt;TABLE&gt;">
<polygon fill="none" stroke="black" points="143.596,-438 143.596,-455 224.596,-455 224.596,-438 143.596,-438"/>
<text text-anchor="start" x="162.096" y="-444.5" font-family="Arial" font-size="10.00"> </text>
<text text-anchor="start" x="166.096" y="-444.5" font-family="Arial" font-size="10.00">r4 :Room</text>
</a>
<polygon fill="none" stroke="black" points="143.596,-404 143.596,-438 224.596,-438 224.596,-404 143.596,-404"/>
<text text-anchor="start" x="148.596" y="-426" font-family="Arial" font-size="10.00">roomNo = &quot;arts&quot;</text>
<text text-anchor="start" x="148.596" y="-412" font-family="Arial" font-size="10.00">credits = 23</text>
</g>
<!-- u1&#45;&#45;r4 -->
<g id="edge20" class="edge"><title>u1&#45;&#45;r4</title>
<path fill="none" stroke="black" d="M175.411,-947.378C188.08,-935.714 204.815,-921.754 221.596,-912 261.353,-888.892 292.339,-913.751 318.596,-876 413.558,-739.465 268.275,-534.519 207.901,-459.67"/>
<text text-anchor="middle" x="216.8" y="-461.732" font-family="Arial" font-size="10.00">rooms</text>
<text text-anchor="middle" x="179.275" y="-935.655" font-family="Arial" font-size="10.00">uni</text>
</g>
<!-- r5 -->
<g id="node6" class="node"><title>r5</title>
<a xlink:href="../examples/org/sdmlib/examples/studyright/Room.java" xlink:title="&lt;TABLE&gt;">
<polygon fill="none" stroke="black" points="55.596,-258 55.596,-275 147.596,-275 147.596,-258 55.596,-258"/>
<text text-anchor="start" x="79.596" y="-264.5" font-family="Arial" font-size="10.00"> </text>
<text text-anchor="start" x="83.596" y="-264.5" font-family="Arial" font-size="10.00">r5 :Room</text>
</a>
<polygon fill="none" stroke="black" points="55.596,-224 55.596,-258 147.596,-258 147.596,-224 55.596,-224"/>
<text text-anchor="start" x="60.596" y="-246" font-family="Arial" font-size="10.00">roomNo = &quot;sports&quot;</text>
<text text-anchor="start" x="60.596" y="-232" font-family="Arial" font-size="10.00">credits = 23</text>
</g>
<!-- u1&#45;&#45;r5 -->
<g id="edge22" class="edge"><title>u1&#45;&#45;r5</title>
<path fill="none" stroke="black" d="M130.317,-947.444C113.292,-930.029 91.5094,-903.899 81.596,-876 4.17163,-658.109 69.4318,-370.13 93.5395,-279.534"/>
<text text-anchor="middle" x="95.4203" y="-286.856" font-family="Arial" font-size="10.00">rooms</text>
<text text-anchor="middle" x="121.001" y="-941.31" font-family="Arial" font-size="10.00">uni</text>
</g>
<!-- r6 -->
<g id="node7" class="node"><title>r6</title>
<a xlink:href="../examples/org/sdmlib/examples/studyright/Room.java" xlink:title="&lt;TABLE&gt;">
<polygon fill="none" stroke="black" points="77.596,-134 77.596,-151 166.596,-151 166.596,-134 77.596,-134"/>
<text text-anchor="start" x="100.096" y="-140.5" font-family="Arial" font-size="10.00"> </text>
<text text-anchor="start" x="104.096" y="-140.5" font-family="Arial" font-size="10.00">r6 :Room</text>
</a>
<polygon fill="none" stroke="black" points="77.596,-100 77.596,-134 166.596,-134 166.596,-100 77.596,-100"/>
<text text-anchor="start" x="82.596" y="-122" font-family="Arial" font-size="10.00">roomNo = &quot;exam&quot;</text>
<text text-anchor="start" x="82.596" y="-108" font-family="Arial" font-size="10.00">credits = 0</text>
</g>
<!-- u1&#45;&#45;r6 -->
<g id="edge24" class="edge"><title>u1&#45;&#45;r6</title>
<path fill="none" stroke="black" d="M116.662,-947.4C92.1315,-931.017 61.4446,-906.194 44.596,-876 -13.4774,-771.927 3.59601,-730.179 3.59601,-611 3.59601,-611 3.59601,-611 3.59601,-429 3.59601,-322.524 -14.9112,-284.055 38.596,-192 46.8739,-177.759 59.5898,-165.497 72.6003,-155.583"/>
<text text-anchor="middle" x="68.0673" y="-161.997" font-family="Arial" font-size="10.00">rooms</text>
<text text-anchor="middle" x="106.798" y="-943.255" font-family="Arial" font-size="10.00">uni</text>
</g>
<!-- r7 -->
<g id="node8" class="node"><title>r7</title>
<a xlink:href="../examples/org/sdmlib/examples/studyright/Room.java" xlink:title="&lt;TABLE&gt;">
<polygon fill="none" stroke="black" points="168.596,-38 168.596,-55 275.596,-55 275.596,-38 168.596,-38"/>
<text text-anchor="start" x="200.096" y="-44.5" font-family="Arial" font-size="10.00"> </text>
<text text-anchor="start" x="204.096" y="-44.5" font-family="Arial" font-size="10.00">r7 :Room</text>
</a>
<polygon fill="none" stroke="black" points="168.596,-4 168.596,-38 275.596,-38 275.596,-4 168.596,-4"/>
<text text-anchor="start" x="173.596" y="-26" font-family="Arial" font-size="10.00">roomNo = &quot;ProgMeth&quot;</text>
<text text-anchor="start" x="173.596" y="-12" font-family="Arial" font-size="10.00">credits = 42</text>
</g>
<!-- u1&#45;&#45;r7 -->
<g id="edge26" class="edge"><title>u1&#45;&#45;r7</title>
<path fill="none" stroke="black" d="M174.526,-947.42C187.17,-935.476 204.17,-921.226 221.596,-912 273.446,-884.549 310.888,-920.945 348.596,-876 424.687,-785.304 375.596,-729.388 375.596,-611 375.596,-611 375.596,-611 375.596,-249 375.596,-168.835 305.267,-97.4616 259.663,-59.6073"/>
<text text-anchor="middle" x="269.289" y="-59.8184" font-family="Arial" font-size="10.00">rooms</text>
<text text-anchor="middle" x="178.286" y="-935.653" font-family="Arial" font-size="10.00">uni</text>
</g>
<!-- s8 -->
<g id="node9" class="node"><title>s8</title>
<a xlink:href="../examples/org/sdmlib/examples/studyright/Student.java" xlink:title="&lt;TABLE&gt;">
<polygon fill="none" stroke="black" points="225.596,-819 225.596,-836 301.596,-836 301.596,-819 225.596,-819"/>
<text text-anchor="start" x="236.096" y="-825.5" font-family="Arial" font-size="10.00"> </text>
<text text-anchor="start" x="240.096" y="-825.5" font-family="Arial" font-size="10.00">s8 :Student</text>
</a>
<polygon fill="none" stroke="black" points="225.596,-743 225.596,-819 301.596,-819 301.596,-743 225.596,-743"/>
<text text-anchor="start" x="230.596" y="-807" font-family="Arial" font-size="10.00">name = &quot;Nina&quot;</text>
<text text-anchor="start" x="230.596" y="-793" font-family="Arial" font-size="10.00">matrNo = 2323</text>
<text text-anchor="start" x="230.596" y="-779" font-family="Arial" font-size="10.00">credits = 0</text>
<text text-anchor="start" x="230.596" y="-765" font-family="Arial" font-size="10.00">motivation = 0</text>
<text text-anchor="start" x="230.596" y="-751" font-family="Arial" font-size="10.00">in = &quot;&quot;</text>
</g>
<!-- u1&#45;&#45;s8 -->
<g id="edge16" class="edge"><title>u1&#45;&#45;s8</title>
<path fill="none" stroke="black" d="M167.084,-947.174C183.377,-920.809 211.29,-875.641 232.918,-840.642"/>
<text text-anchor="middle" x="231.749" y="-848.073" font-family="Arial" font-size="10.00">students</text>
<text text-anchor="middle" x="168.254" y="-934.742" font-family="Arial" font-size="10.00">uni</text>
</g>
<!-- s2&#45;&#45;r3 -->
<g id="edge28" class="edge"><title>s2&#45;&#45;r3</title>
<path fill="none" stroke="black" d="M149.764,-746.365C146.796,-713.349 142.767,-668.524 140.174,-639.675"/>
<text text-anchor="middle" x="145.194" y="-645.824" font-family="Arial" font-size="10.00">in</text>
<text text-anchor="middle" x="144.743" y="-735.216" font-family="Arial" font-size="10.00">students</text>
</g>
<!-- r3&#45;&#45;r4 -->
<g id="edge30" class="edge"><title>r3&#45;&#45;r4</title>
<path fill="none" stroke="black" d="M144.987,-580.401C153.571,-547.184 167.647,-492.714 176.224,-459.528"/>
<text text-anchor="middle" x="178.048" y="-466.86" font-family="Arial" font-size="10.00">neighbors</text>
<text text-anchor="middle" x="143.163" y="-568.069" font-family="Arial" font-size="10.00">neighbors</text>
</g>
<!-- r3&#45;&#45;r5 -->
<g id="edge32" class="edge"><title>r3&#45;&#45;r5</title>
<path fill="none" stroke="black" d="M133.583,-580.129C131.105,-561.784 127.958,-537.523 125.596,-516 116.171,-430.131 107.709,-328.311 103.833,-279.662"/>
<text text-anchor="middle" x="108.772" y="-285.857" font-family="Arial" font-size="10.00">neighbors</text>
<text text-anchor="middle" x="128.188" y="-569.209" font-family="Arial" font-size="10.00">neighbors</text>
</g>
<!-- r4&#45;&#45;r5 -->
<g id="edge34" class="edge"><title>r4&#45;&#45;r5</title>
<path fill="none" stroke="black" d="M170.421,-400.401C155.119,-367.184 130.026,-312.714 114.738,-279.528"/>
<text text-anchor="middle" x="122.369" y="-283.491" font-family="Arial" font-size="10.00">neighbors</text>
<text text-anchor="middle" x="162.791" y="-391.438" font-family="Arial" font-size="10.00">neighbors</text>
</g>
<!-- r4&#45;&#45;r6 -->
<g id="edge36" class="edge"><title>r4&#45;&#45;r6</title>
<path fill="none" stroke="black" d="M185.811,-400.342C188.345,-354.821 189.367,-263.798 164.596,-192 160.183,-179.209 152.657,-166.493 145.122,-155.745"/>
<text text-anchor="middle" x="153.74" y="-158.318" font-family="Arial" font-size="10.00">neighbors</text>
<text text-anchor="middle" x="182.007" y="-388.594" font-family="Arial" font-size="10.00">neighbors</text>
</g>
<!-- r4&#45;&#45;r7 -->
<g id="edge38" class="edge"><title>r4&#45;&#45;r7</title>
<path fill="none" stroke="black" d="M186.329,-400.377C193.332,-327.032 211.859,-132.984 218.862,-59.6307"/>
<text text-anchor="middle" x="222.208" y="-66.5544" font-family="Arial" font-size="10.00">neighbors</text>
<text text-anchor="middle" x="182.983" y="-388.453" font-family="Arial" font-size="10.00">neighbors</text>
</g>
<!-- r5&#45;&#45;r6 -->
<g id="edge40" class="edge"><title>r5&#45;&#45;r6</title>
<path fill="none" stroke="black" d="M106.285,-220.396C109.472,-200.958 113.672,-175.337 116.867,-155.847"/>
<text text-anchor="middle" x="119.571" y="-162.974" font-family="Arial" font-size="10.00">neighbors</text>
<text text-anchor="middle" x="103.581" y="-208.269" font-family="Arial" font-size="10.00">neighbors</text>
</g>
<!-- r6&#45;&#45;r7 -->
<g id="edge42" class="edge"><title>r6&#45;&#45;r7</title>
<path fill="none" stroke="black" d="M152.143,-96.2861C164.549,-84.624 178.849,-71.1822 191.236,-59.538"/>
<text text-anchor="middle" x="187.527" y="-66.3247" font-family="Arial" font-size="10.00">neighbors</text>
<text text-anchor="middle" x="155.852" y="-84.4994" font-family="Arial" font-size="10.00">neighbors</text>
</g>
<!-- t14 -->
<g id="node14" class="node"><title>t14</title>
<a xlink:href="../../SDMLib/src/org/sdmlib/models/transformations/Template.java" xlink:title="&lt;TABLE&gt;">
<polygon fill="none" stroke="black" points="543.596,-854 543.596,-871 917.596,-871 917.596,-854 543.596,-854"/>
<text text-anchor="start" x="698.596" y="-860.5" font-family="Arial" font-size="10.00"> </text>
<text text-anchor="start" x="702.596" y="-860.5" font-family="Arial" font-size="10.00">t14 :Template</text>
</a>
<polygon fill="none" stroke="black" points="543.596,-708 543.596,-854 917.596,-854 917.596,-708 543.596,-708"/>
<text text-anchor="start" x="548.596" y="-842" font-family="Arial" font-size="10.00">templateText = &quot; &#45; The xy room has 42 credits. It is connected to rooms: neighbors&quot;</text>
<text text-anchor="start" x="548.596" y="-828" font-family="Arial" font-size="10.00">expandedText = &quot;&quot;</text>
<text text-anchor="start" x="548.596" y="-814" font-family="Arial" font-size="10.00">modelObject = &quot;&quot;</text>
<text text-anchor="start" x="548.596" y="-800" font-family="Arial" font-size="10.00">modelClassName = &quot;&quot;</text>
<text text-anchor="start" x="548.596" y="-786" font-family="Arial" font-size="10.00">listStart = &quot;&quot;</text>
<text text-anchor="start" x="548.596" y="-772" font-family="Arial" font-size="10.00">listSeparator = &quot;&quot;</text>
<text text-anchor="start" x="548.596" y="-758" font-family="Arial" font-size="10.00">listEnd = &quot;&quot;</text>
<text text-anchor="start" x="548.596" y="-744" font-family="Arial" font-size="10.00">chooser = &quot;&quot;</text>
<text text-anchor="start" x="548.596" y="-730" font-family="Arial" font-size="10.00">referenceLookup = &quot;true&quot;</text>
<text text-anchor="start" x="548.596" y="-716" font-family="Arial" font-size="10.00">name = &quot;&quot;</text>
</g>
<!-- p13&#45;&#45;t14 -->
<g id="edge44" class="edge"><title>p13&#45;&#45;t14</title>
<path fill="none" stroke="black" d="M790.476,-919.417C784.144,-905.838 777.097,-890.726 770.125,-875.773"/>
<text text-anchor="middle" x="777.785" y="-879.7" font-family="Arial" font-size="10.00">subTemplate</text>
<text text-anchor="middle" x="782.816" y="-910.489" font-family="Arial" font-size="10.00">parents</text>
</g>
<!-- p15 -->
<g id="node15" class="node"><title>p15</title>
<a xlink:href="../../SDMLib/src/org/sdmlib/models/transformations/PlaceHolderDescription.java" xlink:title="&lt;TABLE&gt;">
<polygon fill="none" stroke="black" points="832.596,-646 832.596,-663 967.596,-663 967.596,-646 832.596,-646"/>
<text text-anchor="start" x="836.096" y="-652.5" font-family="Arial" font-size="10.00"> </text>
<text text-anchor="start" x="840.096" y="-652.5" font-family="Arial" font-size="10.00">p15 :PlaceHolderDescription</text>
</a>
<polygon fill="none" stroke="black" points="832.596,-556 832.596,-646 967.596,-646 967.596,-556 832.596,-556"/>
<text text-anchor="start" x="837.596" y="-634" font-family="Arial" font-size="10.00">textFragment = &quot;xy&quot;</text>
<text text-anchor="start" x="837.596" y="-620" font-family="Arial" font-size="10.00">value = &quot;&quot;</text>
<text text-anchor="start" x="837.596" y="-606" font-family="Arial" font-size="10.00">attrName = &quot;roomNo&quot;</text>
<text text-anchor="start" x="837.596" y="-592" font-family="Arial" font-size="10.00">isKeyAttribute = &quot;false&quot;</text>
<text text-anchor="start" x="837.596" y="-578" font-family="Arial" font-size="10.00">subTemplate = &quot;&quot;</text>
<text text-anchor="start" x="837.596" y="-564" font-family="Arial" font-size="10.00">prefix = &quot;&quot;</text>
</g>
<!-- t14&#45;&#45;p15 -->
<g id="edge46" class="edge"><title>t14&#45;&#45;p15</title>
<path fill="none" stroke="black" d="M810.889,-704.431C822.727,-691.963 834.675,-679.378 845.802,-667.659"/>
<text text-anchor="middle" x="842.626" y="-674.642" font-family="Arial" font-size="10.00">placeholders</text>
<text text-anchor="middle" x="814.064" y="-692.449" font-family="Arial" font-size="10.00">owners</text>
</g>
<!-- p16 -->
<g id="node16" class="node"><title>p16</title>
<a xlink:href="../../SDMLib/src/org/sdmlib/models/transformations/PlaceHolderDescription.java" xlink:title="&lt;TABLE&gt;">
<polygon fill="none" stroke="black" points="494.596,-646 494.596,-663 629.596,-663 629.596,-646 494.596,-646"/>
<text text-anchor="start" x="498.096" y="-652.5" font-family="Arial" font-size="10.00"> </text>
<text text-anchor="start" x="502.096" y="-652.5" font-family="Arial" font-size="10.00">p16 :PlaceHolderDescription</text>
</a>
<polygon fill="none" stroke="black" points="494.596,-556 494.596,-646 629.596,-646 629.596,-556 494.596,-556"/>
<text text-anchor="start" x="499.596" y="-634" font-family="Arial" font-size="10.00">textFragment = &quot;42&quot;</text>
<text text-anchor="start" x="499.596" y="-620" font-family="Arial" font-size="10.00">value = &quot;&quot;</text>
<text text-anchor="start" x="499.596" y="-606" font-family="Arial" font-size="10.00">attrName = &quot;credits&quot;</text>
<text text-anchor="start" x="499.596" y="-592" font-family="Arial" font-size="10.00">isKeyAttribute = &quot;false&quot;</text>
<text text-anchor="start" x="499.596" y="-578" font-family="Arial" font-size="10.00">subTemplate = &quot;&quot;</text>
<text text-anchor="start" x="499.596" y="-564" font-family="Arial" font-size="10.00">prefix = &quot;&quot;</text>
</g>
<!-- t14&#45;&#45;p16 -->
<g id="edge48" class="edge"><title>t14&#45;&#45;p16</title>
<path fill="none" stroke="black" d="M650.303,-704.431C638.465,-691.963 626.517,-679.378 615.39,-667.659"/>
<text text-anchor="middle" x="624.695" y="-668.822" font-family="Arial" font-size="10.00">placeholders</text>
<text text-anchor="middle" x="640.998" y="-698.268" font-family="Arial" font-size="10.00">owners</text>
</g>
<!-- p17 -->
<g id="node17" class="node"><title>p17</title>
<a xlink:href="../../SDMLib/src/org/sdmlib/models/transformations/PlaceHolderDescription.java" xlink:title="&lt;TABLE&gt;">
<polygon fill="none" stroke="black" points="663.596,-639 663.596,-656 798.596,-656 798.596,-639 663.596,-639"/>
<text text-anchor="start" x="667.096" y="-645.5" font-family="Arial" font-size="10.00"> </text>
<text text-anchor="start" x="671.096" y="-645.5" font-family="Arial" font-size="10.00">p17 :PlaceHolderDescription</text>
</a>
<polygon fill="none" stroke="black" points="663.596,-563 663.596,-639 798.596,-639 798.596,-563 663.596,-563"/>
<text text-anchor="start" x="668.596" y="-627" font-family="Arial" font-size="10.00">textFragment = &quot;neighbors&quot;</text>
<text text-anchor="start" x="668.596" y="-613" font-family="Arial" font-size="10.00">value = &quot;&quot;</text>
<text text-anchor="start" x="668.596" y="-599" font-family="Arial" font-size="10.00">attrName = &quot;neighbors&quot;</text>
<text text-anchor="start" x="668.596" y="-585" font-family="Arial" font-size="10.00">isKeyAttribute = &quot;false&quot;</text>
<text text-anchor="start" x="668.596" y="-571" font-family="Arial" font-size="10.00">prefix = &quot;&quot;</text>
</g>
<!-- t14&#45;&#45;p17 -->
<g id="edge50" class="edge"><title>t14&#45;&#45;p17</title>
<path fill="none" stroke="black" d="M730.596,-704.431C730.596,-689.541 730.596,-674.484 730.596,-660.935"/>
<text text-anchor="middle" x="734.822" y="-667.498" font-family="Arial" font-size="10.00">placeholders</text>
<text text-anchor="middle" x="726.37" y="-692.868" font-family="Arial" font-size="10.00">owners</text>
</g>
<!-- t18 -->
<g id="node18" class="node"><title>t18</title>
<a xlink:href="../../SDMLib/src/org/sdmlib/models/transformations/Template.java" xlink:title="&lt;TABLE&gt;">
<polygon fill="none" stroke="black" points="671.596,-494 671.596,-511 790.596,-511 790.596,-494 671.596,-494"/>
<text text-anchor="start" x="699.096" y="-500.5" font-family="Arial" font-size="10.00"> </text>
<text text-anchor="start" x="703.096" y="-500.5" font-family="Arial" font-size="10.00">t18 :Template</text>
</a>
<polygon fill="none" stroke="black" points="671.596,-348 671.596,-494 790.596,-494 790.596,-348 671.596,-348"/>
<text text-anchor="start" x="676.596" y="-482" font-family="Arial" font-size="10.00">templateText = &quot;name&quot;</text>
<text text-anchor="start" x="676.596" y="-468" font-family="Arial" font-size="10.00">expandedText = &quot;&quot;</text>
<text text-anchor="start" x="676.596" y="-454" font-family="Arial" font-size="10.00">modelObject = &quot;&quot;</text>
<text text-anchor="start" x="676.596" y="-440" font-family="Arial" font-size="10.00">modelClassName = &quot;&quot;</text>
<text text-anchor="start" x="676.596" y="-426" font-family="Arial" font-size="10.00">listStart = &quot;&quot;</text>
<text text-anchor="start" x="676.596" y="-412" font-family="Arial" font-size="10.00">listSeparator = &quot;, &quot;</text>
<text text-anchor="start" x="676.596" y="-398" font-family="Arial" font-size="10.00">listEnd = &quot;.&quot;</text>
<text text-anchor="start" x="676.596" y="-384" font-family="Arial" font-size="10.00">chooser = &quot;&quot;</text>
<text text-anchor="start" x="676.596" y="-370" font-family="Arial" font-size="10.00">referenceLookup = &quot;true&quot;</text>
<text text-anchor="start" x="676.596" y="-356" font-family="Arial" font-size="10.00">name = &quot;&quot;</text>
</g>
<!-- p17&#45;&#45;t18 -->
<g id="edge52" class="edge"><title>p17&#45;&#45;t18</title>
<path fill="none" stroke="black" d="M730.596,-559.417C730.596,-545.838 730.596,-530.726 730.596,-515.773"/>
<text text-anchor="middle" x="734.822" y="-522.336" font-family="Arial" font-size="10.00">subTemplate</text>
<text text-anchor="middle" x="726.37" y="-547.854" font-family="Arial" font-size="10.00">parents</text>
</g>
<!-- p19 -->
<g id="node19" class="node"><title>p19</title>
<a xlink:href="../../SDMLib/src/org/sdmlib/models/transformations/PlaceHolderDescription.java" xlink:title="&lt;TABLE&gt;">
<polygon fill="none" stroke="black" points="663.596,-286 663.596,-303 798.596,-303 798.596,-286 663.596,-286"/>
<text text-anchor="start" x="667.096" y="-292.5" font-family="Arial" font-size="10.00"> </text>
<text text-anchor="start" x="671.096" y="-292.5" font-family="Arial" font-size="10.00">p19 :PlaceHolderDescription</text>
</a>
<polygon fill="none" stroke="black" points="663.596,-196 663.596,-286 798.596,-286 798.596,-196 663.596,-196"/>
<text text-anchor="start" x="668.596" y="-274" font-family="Arial" font-size="10.00">textFragment = &quot;name&quot;</text>
<text text-anchor="start" x="668.596" y="-260" font-family="Arial" font-size="10.00">value = &quot;&quot;</text>
<text text-anchor="start" x="668.596" y="-246" font-family="Arial" font-size="10.00">attrName = &quot;roomNo&quot;</text>
<text text-anchor="start" x="668.596" y="-232" font-family="Arial" font-size="10.00">isKeyAttribute = &quot;false&quot;</text>
<text text-anchor="start" x="668.596" y="-218" font-family="Arial" font-size="10.00">subTemplate = &quot;&quot;</text>
<text text-anchor="start" x="668.596" y="-204" font-family="Arial" font-size="10.00">prefix = &quot;&quot;</text>
</g>
<!-- t18&#45;&#45;p19 -->
<g id="edge54" class="edge"><title>t18&#45;&#45;p19</title>
<path fill="none" stroke="black" d="M730.596,-344.431C730.596,-331.963 730.596,-319.378 730.596,-307.659"/>
<text text-anchor="middle" x="734.822" y="-314.222" font-family="Arial" font-size="10.00">placeholders</text>
<text text-anchor="middle" x="726.37" y="-332.868" font-family="Arial" font-size="10.00">owners</text>
</g>
<!-- t21 -->
<g id="node21" class="node"><title>t21</title>
<a xlink:href="../../SDMLib/src/org/sdmlib/models/transformations/Template.java" xlink:title="&lt;TABLE&gt;">
<polygon fill="none" stroke="black" points="952.596,-854 952.596,-871 1185.6,-871 1185.6,-854 952.596,-854"/>
<text text-anchor="start" x="1037.1" y="-860.5" font-family="Arial" font-size="10.00"> </text>
<text text-anchor="start" x="1041.1" y="-860.5" font-family="Arial" font-size="10.00">t21 :Template</text>
</a>
<polygon fill="none" stroke="black" points="952.596,-708 952.596,-854 1185.6,-854 1185.6,-708 952.596,-708"/>
<text text-anchor="start" x="957.596" y="-842" font-family="Arial" font-size="10.00">templateText = &quot; &#45; Stud has student number 1234.&quot;</text>
<text text-anchor="start" x="957.596" y="-828" font-family="Arial" font-size="10.00">expandedText = &quot;&quot;</text>
<text text-anchor="start" x="957.596" y="-814" font-family="Arial" font-size="10.00">modelObject = &quot;&quot;</text>
<text text-anchor="start" x="957.596" y="-800" font-family="Arial" font-size="10.00">modelClassName = &quot;&quot;</text>
<text text-anchor="start" x="957.596" y="-786" font-family="Arial" font-size="10.00">listStart = &quot;&quot;</text>
<text text-anchor="start" x="957.596" y="-772" font-family="Arial" font-size="10.00">listSeparator = &quot;&quot;</text>
<text text-anchor="start" x="957.596" y="-758" font-family="Arial" font-size="10.00">listEnd = &quot;&quot;</text>
<text text-anchor="start" x="957.596" y="-744" font-family="Arial" font-size="10.00">chooser = &quot;&quot;</text>
<text text-anchor="start" x="957.596" y="-730" font-family="Arial" font-size="10.00">referenceLookup = &quot;false&quot;</text>
<text text-anchor="start" x="957.596" y="-716" font-family="Arial" font-size="10.00">name = &quot;&quot;</text>
</g>
<!-- p20&#45;&#45;t21 -->
<g id="edge56" class="edge"><title>p20&#45;&#45;t21</title>
<path fill="none" stroke="black" d="M1007.99,-919.417C1014.4,-905.838 1021.53,-890.726 1028.59,-875.773"/>
<text text-anchor="middle" x="1028.55" y="-883.272" font-family="Arial" font-size="10.00">subTemplate</text>
<text text-anchor="middle" x="1008.04" y="-906.917" font-family="Arial" font-size="10.00">parents</text>
</g>
<!-- p22 -->
<g id="node22" class="node"><title>p22</title>
<a xlink:href="../../SDMLib/src/org/sdmlib/models/transformations/PlaceHolderDescription.java" xlink:title="&lt;TABLE&gt;">
<polygon fill="none" stroke="black" points="1001.6,-646 1001.6,-663 1136.6,-663 1136.6,-646 1001.6,-646"/>
<text text-anchor="start" x="1005.1" y="-652.5" font-family="Arial" font-size="10.00"> </text>
<text text-anchor="start" x="1009.1" y="-652.5" font-family="Arial" font-size="10.00">p22 :PlaceHolderDescription</text>
</a>
<polygon fill="none" stroke="black" points="1001.6,-556 1001.6,-646 1136.6,-646 1136.6,-556 1001.6,-556"/>
<text text-anchor="start" x="1006.6" y="-634" font-family="Arial" font-size="10.00">textFragment = &quot;Stud&quot;</text>
<text text-anchor="start" x="1006.6" y="-620" font-family="Arial" font-size="10.00">value = &quot;&quot;</text>
<text text-anchor="start" x="1006.6" y="-606" font-family="Arial" font-size="10.00">attrName = &quot;name&quot;</text>
<text text-anchor="start" x="1006.6" y="-592" font-family="Arial" font-size="10.00">isKeyAttribute = &quot;false&quot;</text>
<text text-anchor="start" x="1006.6" y="-578" font-family="Arial" font-size="10.00">subTemplate = &quot;&quot;</text>
<text text-anchor="start" x="1006.6" y="-564" font-family="Arial" font-size="10.00">prefix = &quot;&quot;</text>
</g>
<!-- t21&#45;&#45;p22 -->
<g id="edge58" class="edge"><title>t21&#45;&#45;p22</title>
<path fill="none" stroke="black" d="M1068.6,-704.431C1068.6,-691.963 1068.6,-679.378 1068.6,-667.659"/>
<text text-anchor="middle" x="1072.82" y="-674.222" font-family="Arial" font-size="10.00">placeholders</text>
<text text-anchor="middle" x="1064.37" y="-692.868" font-family="Arial" font-size="10.00">owners</text>
</g>
<!-- p23 -->
<g id="node23" class="node"><title>p23</title>
<a xlink:href="../../SDMLib/src/org/sdmlib/models/transformations/PlaceHolderDescription.java" xlink:title="&lt;TABLE&gt;">
<polygon fill="none" stroke="black" points="1170.6,-646 1170.6,-663 1305.6,-663 1305.6,-646 1170.6,-646"/>
<text text-anchor="start" x="1174.1" y="-652.5" font-family="Arial" font-size="10.00"> </text>
<text text-anchor="start" x="1178.1" y="-652.5" font-family="Arial" font-size="10.00">p23 :PlaceHolderDescription</text>
</a>
<polygon fill="none" stroke="black" points="1170.6,-556 1170.6,-646 1305.6,-646 1305.6,-556 1170.6,-556"/>
<text text-anchor="start" x="1175.6" y="-634" font-family="Arial" font-size="10.00">textFragment = &quot;1234&quot;</text>
<text text-anchor="start" x="1175.6" y="-620" font-family="Arial" font-size="10.00">value = &quot;&quot;</text>
<text text-anchor="start" x="1175.6" y="-606" font-family="Arial" font-size="10.00">attrName = &quot;matrNo&quot;</text>
<text text-anchor="start" x="1175.6" y="-592" font-family="Arial" font-size="10.00">isKeyAttribute = &quot;false&quot;</text>
<text text-anchor="start" x="1175.6" y="-578" font-family="Arial" font-size="10.00">subTemplate = &quot;&quot;</text>
<text text-anchor="start" x="1175.6" y="-564" font-family="Arial" font-size="10.00">prefix = &quot;&quot;</text>
</g>
<!-- t21&#45;&#45;p23 -->
<g id="edge60" class="edge"><title>t21&#45;&#45;p23</title>
<path fill="none" stroke="black" d="M1148.89,-704.431C1160.73,-691.963 1172.68,-679.378 1183.8,-667.659"/>
<text text-anchor="middle" x="1180.63" y="-674.642" font-family="Arial" font-size="10.00">placeholders</text>
<text text-anchor="middle" x="1152.06" y="-692.449" font-family="Arial" font-size="10.00">owners</text>
</g>
</g>
</svg>
