<?xml version="1.0" encoding="UTF-8" standalone="no"?>
<!DOCTYPE svg PUBLIC "-//W3C//DTD SVG 1.1//EN"
 "http://www.w3.org/Graphics/SVG/1.1/DTD/svg11.dtd">
<!-- Generated by graphviz version 2.28.0 (20110507.0327)
 -->
<!-- Title: ObjectDiagram Pages: 1 -->
<svg width="378pt" height="658pt"
 viewBox="0.00 0.00 378.09 658.00" xmlns="http://www.w3.org/2000/svg" xmlns:xlink="http://www.w3.org/1999/xlink">
<g id="graph1" class="graph" transform="scale(1 1) rotate(0) translate(4 654)">
<title>ObjectDiagram</title>
<polygon fill="white" stroke="white" points="-4,5 -4,-654 375.094,-654 375.094,5 -4,5"/>
<!-- u1 -->
<g id="node1" class="node"><title>u1</title>
<a xlink:href="../examples/org/sdmlib/examples/studyright/University.java" xlink:title="&lt;TABLE&gt;">
<polygon fill="none" stroke="black" points="99.0937,-628 99.0937,-645 196.094,-645 196.094,-628 99.0937,-628"/>
<text text-anchor="start" x="117.594" y="-634.5" font-family="Times New Roman,serif" font-size="10.00"> </text>
<text text-anchor="start" x="120.594" y="-634.5" font-family="Times New Roman,serif" font-size="10.00">u1 :University</text>
</a>
<polygon fill="none" stroke="black" points="99.0937,-608 99.0937,-628 196.094,-628 196.094,-608 99.0937,-608"/>
<text text-anchor="start" x="104.094" y="-616" font-family="Times New Roman,serif" font-size="10.00">name = &quot;StudyRight&quot;</text>
</g>
<!-- s2 -->
<g id="node2" class="node"><title>s2</title>
<a xlink:href="../examples/org/sdmlib/examples/studyright/Student.java" xlink:title="&lt;TABLE&gt;">
<polygon fill="none" stroke="black" points="113.094,-546 113.094,-563 182.094,-563 182.094,-546 113.094,-546"/>
<text text-anchor="start" x="123.094" y="-552.5" font-family="Times New Roman,serif" font-size="10.00"> </text>
<text text-anchor="start" x="126.094" y="-552.5" font-family="Times New Roman,serif" font-size="10.00">s2 :Student</text>
</a>
<polygon fill="none" stroke="black" points="113.094,-484 113.094,-546 182.094,-546 182.094,-484 113.094,-484"/>
<text text-anchor="start" x="118.094" y="-534" font-family="Times New Roman,serif" font-size="10.00">name = &quot;Tom&quot;</text>
<text text-anchor="start" x="118.094" y="-520" font-family="Times New Roman,serif" font-size="10.00">matrNo = 4242</text>
<text text-anchor="start" x="118.094" y="-506" font-family="Times New Roman,serif" font-size="10.00">credits = 0</text>
<text text-anchor="start" x="118.094" y="-492" font-family="Times New Roman,serif" font-size="10.00">motivation = 0</text>
</g>
<!-- u1&#45;&#45;s2 -->
<g id="edge2" class="edge"><title>u1&#45;&#45;s2</title>
<path fill="none" stroke="black" d="M147.094,-604.085C147.094,-593.409 147.094,-580.193 147.094,-567.641"/>
<text text-anchor="middle" x="151.32" y="-574.204" font-family="Times New Roman,serif" font-size="10.00">students</text>
<text text-anchor="middle" x="142.868" y="-592.521" font-family="Times New Roman,serif" font-size="10.00">uni</text>
</g>
<!-- r3 -->
<g id="node3" class="node"><title>r3</title>
<a xlink:href="../examples/org/sdmlib/examples/studyright/Room.java" xlink:title="&lt;TABLE&gt;">
<polygon fill="none" stroke="black" points="87.0937,-422 87.0937,-439 169.094,-439 169.094,-422 87.0937,-422"/>
<text text-anchor="start" x="108.594" y="-428.5" font-family="Times New Roman,serif" font-size="10.00"> </text>
<text text-anchor="start" x="111.594" y="-428.5" font-family="Times New Roman,serif" font-size="10.00">r3 :Room</text>
</a>
<polygon fill="none" stroke="black" points="87.0937,-388 87.0937,-422 169.094,-422 169.094,-388 87.0937,-388"/>
<text text-anchor="start" x="92.0937" y="-410" font-family="Times New Roman,serif" font-size="10.00">roomNo = &quot;math&quot;</text>
<text text-anchor="start" x="92.0937" y="-396" font-family="Times New Roman,serif" font-size="10.00">credits = 42</text>
</g>
<!-- u1&#45;&#45;r3 -->
<g id="edge6" class="edge"><title>u1&#45;&#45;r3</title>
<path fill="none" stroke="black" d="M120.833,-604.48C110.759,-594.556 100.41,-581.894 95.0937,-568 81.1165,-531.472 85.9911,-518.037 95.0937,-480 98.0981,-467.446 103.947,-454.577 109.897,-443.637"/>
<text text-anchor="middle" x="109.363" y="-451.122" font-family="Times New Roman,serif" font-size="10.00">rooms</text>
<text text-anchor="middle" x="111.455" y="-598.51" font-family="Times New Roman,serif" font-size="10.00">uni</text>
</g>
<!-- r4 -->
<g id="node4" class="node"><title>r4</title>
<a xlink:href="../examples/org/sdmlib/examples/studyright/Room.java" xlink:title="&lt;TABLE&gt;">
<polygon fill="none" stroke="black" points="131.094,-326 131.094,-343 209.094,-343 209.094,-326 131.094,-326"/>
<text text-anchor="start" x="150.594" y="-332.5" font-family="Times New Roman,serif" font-size="10.00"> </text>
<text text-anchor="start" x="153.594" y="-332.5" font-family="Times New Roman,serif" font-size="10.00">r4 :Room</text>
</a>
<polygon fill="none" stroke="black" points="131.094,-292 131.094,-326 209.094,-326 209.094,-292 131.094,-292"/>
<text text-anchor="start" x="136.094" y="-314" font-family="Times New Roman,serif" font-size="10.00">roomNo = &quot;arts&quot;</text>
<text text-anchor="start" x="136.094" y="-300" font-family="Times New Roman,serif" font-size="10.00">credits = 23</text>
</g>
<!-- u1&#45;&#45;r4 -->
<g id="edge8" class="edge"><title>u1&#45;&#45;r4</title>
<path fill="none" stroke="black" d="M172.859,-604.389C182.741,-594.45 192.889,-581.801 198.094,-568 226.645,-492.292 198.927,-395.152 181.634,-347.689"/>
<text text-anchor="middle" x="188.598" y="-352.365" font-family="Times New Roman,serif" font-size="10.00">rooms</text>
<text text-anchor="middle" x="176.132" y="-592.44" font-family="Times New Roman,serif" font-size="10.00">uni</text>
</g>
<!-- r5 -->
<g id="node5" class="node"><title>r5</title>
<a xlink:href="../examples/org/sdmlib/examples/studyright/Room.java" xlink:title="&lt;TABLE&gt;">
<polygon fill="none" stroke="black" points="46.0937,-230 46.0937,-247 134.094,-247 134.094,-230 46.0937,-230"/>
<text text-anchor="start" x="70.5937" y="-236.5" font-family="Times New Roman,serif" font-size="10.00"> </text>
<text text-anchor="start" x="73.5937" y="-236.5" font-family="Times New Roman,serif" font-size="10.00">r5 :Room</text>
</a>
<polygon fill="none" stroke="black" points="46.0937,-196 46.0937,-230 134.094,-230 134.094,-196 46.0937,-196"/>
<text text-anchor="start" x="51.0937" y="-218" font-family="Times New Roman,serif" font-size="10.00">roomNo = &quot;sports&quot;</text>
<text text-anchor="start" x="51.0937" y="-204" font-family="Times New Roman,serif" font-size="10.00">credits = 23</text>
</g>
<!-- u1&#45;&#45;r5 -->
<g id="edge10" class="edge"><title>u1&#45;&#45;r5</title>
<path fill="none" stroke="black" d="M114.667,-604.469C102.725,-594.789 90.3529,-582.309 83.0937,-568 29.4263,-462.217 62.9631,-313.686 80.9142,-251.813"/>
<text text-anchor="middle" x="82.6007" y="-259.17" font-family="Times New Roman,serif" font-size="10.00">rooms</text>
<text text-anchor="middle" x="104.997" y="-599.421" font-family="Times New Roman,serif" font-size="10.00">uni</text>
</g>
<!-- r6 -->
<g id="node6" class="node"><title>r6</title>
<a xlink:href="../examples/org/sdmlib/examples/studyright/Room.java" xlink:title="&lt;TABLE&gt;">
<polygon fill="none" stroke="black" points="70.0937,-134 70.0937,-151 152.094,-151 152.094,-134 70.0937,-134"/>
<text text-anchor="start" x="91.5937" y="-140.5" font-family="Times New Roman,serif" font-size="10.00"> </text>
<text text-anchor="start" x="94.5937" y="-140.5" font-family="Times New Roman,serif" font-size="10.00">r6 :Room</text>
</a>
<polygon fill="none" stroke="black" points="70.0937,-100 70.0937,-134 152.094,-134 152.094,-100 70.0937,-100"/>
<text text-anchor="start" x="75.0937" y="-122" font-family="Times New Roman,serif" font-size="10.00">roomNo = &quot;exam&quot;</text>
<text text-anchor="start" x="75.0937" y="-108" font-family="Times New Roman,serif" font-size="10.00">credits = 0</text>
</g>
<!-- u1&#45;&#45;r6 -->
<g id="edge12" class="edge"><title>u1&#45;&#45;r6</title>
<path fill="none" stroke="black" d="M99.3273,-604.445C83.1349,-595.179 66.1219,-582.989 54.0937,-568 8.96259,-511.758 0.0937003,-487.111 0.0937003,-415 0.0937003,-415 0.0937003,-415 0.0937003,-317 0.0937003,-259.969 -1.4055,-240.191 29.0937,-192 37.9343,-178.031 50.8512,-165.78 63.8292,-155.791"/>
<text text-anchor="middle" x="59.3275" y="-162.22" font-family="Times New Roman,serif" font-size="10.00">rooms</text>
<text text-anchor="middle" x="89.3726" y="-600.995" font-family="Times New Roman,serif" font-size="10.00">uni</text>
</g>
<!-- r7 -->
<g id="node7" class="node"><title>r7</title>
<a xlink:href="../examples/org/sdmlib/examples/studyright/Room.java" xlink:title="&lt;TABLE&gt;">
<polygon fill="none" stroke="black" points="157.094,-38 157.094,-55 260.094,-55 260.094,-38 157.094,-38"/>
<text text-anchor="start" x="189.094" y="-44.5" font-family="Times New Roman,serif" font-size="10.00"> </text>
<text text-anchor="start" x="192.094" y="-44.5" font-family="Times New Roman,serif" font-size="10.00">r7 :Room</text>
</a>
<polygon fill="none" stroke="black" points="157.094,-4 157.094,-38 260.094,-38 260.094,-4 157.094,-4"/>
<text text-anchor="start" x="162.094" y="-26" font-family="Times New Roman,serif" font-size="10.00">roomNo = &quot;ProgMeth&quot;</text>
<text text-anchor="start" x="162.094" y="-12" font-family="Times New Roman,serif" font-size="10.00">credits = 42</text>
</g>
<!-- u1&#45;&#45;r7 -->
<g id="edge14" class="edge"><title>u1&#45;&#45;r7</title>
<path fill="none" stroke="black" d="M182.901,-604.398C196.074,-594.784 209.984,-582.37 219.094,-568 256.55,-508.912 256.094,-484.96 256.094,-415 256.094,-415 256.094,-415 256.094,-221 256.094,-162.311 234.3,-96.4463 220.082,-59.7236"/>
<text text-anchor="middle" x="227.231" y="-64.2164" font-family="Times New Roman,serif" font-size="10.00">rooms</text>
<text text-anchor="middle" x="187.629" y="-593.086" font-family="Times New Roman,serif" font-size="10.00">uni</text>
</g>
<!-- s8 -->
<g id="node8" class="node"><title>s8</title>
<a xlink:href="../examples/org/sdmlib/examples/studyright/Student.java" xlink:title="&lt;TABLE&gt;">
<polygon fill="none" stroke="black" points="292.094,-546 292.094,-563 362.094,-563 362.094,-546 292.094,-546"/>
<text text-anchor="start" x="302.594" y="-552.5" font-family="Times New Roman,serif" font-size="10.00"> </text>
<text text-anchor="start" x="305.594" y="-552.5" font-family="Times New Roman,serif" font-size="10.00">s8 :Student</text>
</a>
<polygon fill="none" stroke="black" points="292.094,-484 292.094,-546 362.094,-546 362.094,-484 292.094,-484"/>
<text text-anchor="start" x="297.094" y="-534" font-family="Times New Roman,serif" font-size="10.00">name = &quot;Nina&quot;</text>
<text text-anchor="start" x="297.094" y="-520" font-family="Times New Roman,serif" font-size="10.00">matrNo = 2323</text>
<text text-anchor="start" x="297.094" y="-506" font-family="Times New Roman,serif" font-size="10.00">credits = 0</text>
<text text-anchor="start" x="297.094" y="-492" font-family="Times New Roman,serif" font-size="10.00">motivation = 0</text>
</g>
<!-- u1&#45;&#45;s8 -->
<g id="edge4" class="edge"><title>u1&#45;&#45;s8</title>
<path fill="none" stroke="black" d="M198.883,-604.435C221.324,-594.37 247.562,-581.612 270.094,-568 274.656,-565.244 279.294,-562.2 283.853,-559.044"/>
<text text-anchor="middle" x="278.785" y="-565.165" font-family="Times New Roman,serif" font-size="10.00">students</text>
<text text-anchor="middle" x="205.395" y="-594.345" font-family="Times New Roman,serif" font-size="10.00">uni</text>
</g>
<!-- s2&#45;&#45;r3 -->
<g id="edge16" class="edge"><title>s2&#45;&#45;r3</title>
<path fill="none" stroke="black" d="M139.584,-480.316C137.427,-468.052 135.126,-454.973 133.154,-443.765"/>
<text text-anchor="middle" x="138.887" y="-449.458" font-family="Times New Roman,serif" font-size="10.00">in</text>
<text text-anchor="middle" x="133.852" y="-469.622" font-family="Times New Roman,serif" font-size="10.00">students</text>
</g>
<!-- r3&#45;&#45;r4 -->
<g id="edge18" class="edge"><title>r3&#45;&#45;r4</title>
<path fill="none" stroke="black" d="M140.923,-384.286C146.134,-372.624 152.14,-359.182 157.343,-347.538"/>
<text text-anchor="middle" x="157.504" y="-355.037" font-family="Times New Roman,serif" font-size="10.00">neighbors</text>
<text text-anchor="middle" x="140.762" y="-371.787" font-family="Times New Roman,serif" font-size="10.00">neighbors</text>
</g>
<!-- r3&#45;&#45;r5 -->
<g id="edge20" class="edge"><title>r3&#45;&#45;r5</title>
<path fill="none" stroke="black" d="M121.752,-384.231C119.302,-372.946 116.513,-359.877 114.094,-348 107.39,-315.087 100.186,-277.191 95.4394,-251.832"/>
<text text-anchor="middle" x="101.265" y="-257.46" font-family="Times New Roman,serif" font-size="10.00">neighbors</text>
<text text-anchor="middle" x="115.703" y="-373.768" font-family="Times New Roman,serif" font-size="10.00">neighbors</text>
</g>
<!-- r4&#45;&#45;r5 -->
<g id="edge22" class="edge"><title>r4&#45;&#45;r5</title>
<path fill="none" stroke="black" d="M145.656,-288.286C135.731,-276.624 124.291,-263.182 114.381,-251.538"/>
<text text-anchor="middle" x="123.474" y="-253.201" font-family="Times New Roman,serif" font-size="10.00">neighbors</text>
<text text-anchor="middle" x="136.564" y="-281.623" font-family="Times New Roman,serif" font-size="10.00">neighbors</text>
</g>
<!-- r4&#45;&#45;r6 -->
<g id="edge24" class="edge"><title>r4&#45;&#45;r6</title>
<path fill="none" stroke="black" d="M168.988,-288.397C167.238,-262.528 162.725,-223.74 151.094,-192 146.489,-179.434 139.292,-166.666 132.264,-155.811"/>
<text text-anchor="middle" x="140.699" y="-158.683" font-family="Times New Roman,serif" font-size="10.00">neighbors</text>
<text text-anchor="middle" x="164.093" y="-277.177" font-family="Times New Roman,serif" font-size="10.00">neighbors</text>
</g>
<!-- r4&#45;&#45;r7 -->
<g id="edge26" class="edge"><title>r4&#45;&#45;r7</title>
<path fill="none" stroke="black" d="M173.911,-288.268C181.195,-233.449 196.997,-114.517 204.279,-59.7131"/>
<text text-anchor="middle" x="207.274" y="-66.7539" font-family="Times New Roman,serif" font-size="10.00">neighbors</text>
<text text-anchor="middle" x="170.916" y="-276.227" font-family="Times New Roman,serif" font-size="10.00">neighbors</text>
</g>
<!-- r5&#45;&#45;r6 -->
<g id="edge28" class="edge"><title>r5&#45;&#45;r6</title>
<path fill="none" stroke="black" d="M96.5085,-192.286C99.1139,-180.624 102.117,-167.182 104.718,-155.538"/>
<text text-anchor="middle" x="106.867" y="-162.805" font-family="Times New Roman,serif" font-size="10.00">neighbors</text>
<text text-anchor="middle" x="94.36" y="-180.02" font-family="Times New Roman,serif" font-size="10.00">neighbors</text>
</g>
<!-- r6&#45;&#45;r7 -->
<g id="edge30" class="edge"><title>r6&#45;&#45;r7</title>
<path fill="none" stroke="black" d="M140.724,-96.2861C152.758,-84.624 166.629,-71.1822 178.645,-59.538"/>
<text text-anchor="middle" x="175.078" y="-66.3801" font-family="Times New Roman,serif" font-size="10.00">neighbors</text>
<text text-anchor="middle" x="144.291" y="-84.4441" font-family="Times New Roman,serif" font-size="10.00">neighbors</text>
</g>
</g>
</svg>
