<?xml version="1.0" encoding="UTF-8" standalone="no"?>
<!DOCTYPE svg PUBLIC "-//W3C//DTD SVG 1.1//EN"
 "http://www.w3.org/Graphics/SVG/1.1/DTD/svg11.dtd">
<!-- Generated by graphviz version 2.28.0 (20110507.0327)
 -->
<!-- Title: ObjectDiagram Pages: 1 -->
<svg width="1247pt" height="866pt"
 viewBox="0.00 0.00 1247.09 866.00" xmlns="http://www.w3.org/2000/svg" xmlns:xlink="http://www.w3.org/1999/xlink">
<g id="graph1" class="graph" transform="scale(1 1) rotate(0) translate(4 862)">
<title>ObjectDiagram</title>
<polygon fill="white" stroke="white" points="-4,5 -4,-862 1244.09,-862 1244.09,5 -4,5"/>
<!-- t9 -->
<g id="node1" class="node"><title>t9</title>
<a xlink:href="../../SDMLib/src/org/sdmlib/models/transformations/Template.java" xlink:title="&lt;TABLE&gt;">
<polygon fill="none" stroke="black" points="304.091,-836 304.091,-853 762.091,-853 762.091,-836 304.091,-836"/>
<text text-anchor="start" x="507.091" y="-842.5" font-family="Times New Roman,serif" font-size="10.00"> </text>
<text text-anchor="start" x="510.091" y="-842.5" font-family="Times New Roman,serif" font-size="10.00">t9 :Template</text>
</a>
<polygon fill="none" stroke="black" points="304.091,-774 304.091,-836 762.091,-836 762.091,-774 304.091,-774"/>
<text text-anchor="start" x="309.091" y="-824" font-family="Times New Roman,serif" font-size="10.00">templateText = &quot;The example University has 99 rooms and 88 students: roomList The students are: studentList &quot;</text>
<text text-anchor="start" x="309.091" y="-810" font-family="Times New Roman,serif" font-size="10.00">listStart = &quot;&quot;</text>
<text text-anchor="start" x="309.091" y="-796" font-family="Times New Roman,serif" font-size="10.00">listSeparator = &quot;&quot;</text>
<text text-anchor="start" x="309.091" y="-782" font-family="Times New Roman,serif" font-size="10.00">listEnd = &quot;&quot;</text>
</g>
<!-- u1 -->
<g id="node2" class="node"><title>u1</title>
<a xlink:href="../examples/org/sdmlib/examples/studyright/University.java" xlink:title="&lt;TABLE&gt;">
<polygon fill="none" stroke="black" points="103.091,-698 103.091,-715 200.091,-715 200.091,-698 103.091,-698"/>
<text text-anchor="start" x="121.591" y="-704.5" font-family="Times New Roman,serif" font-size="10.00"> </text>
<text text-anchor="start" x="124.591" y="-704.5" font-family="Times New Roman,serif" font-size="10.00">u1 :University</text>
</a>
<polygon fill="none" stroke="black" points="103.091,-678 103.091,-698 200.091,-698 200.091,-678 103.091,-678"/>
<text text-anchor="start" x="108.091" y="-686" font-family="Times New Roman,serif" font-size="10.00">name = &quot;StudyRight&quot;</text>
</g>
<!-- t9&#45;&#45;u1 -->
<g id="edge2" class="edge"><title>t9&#45;&#45;u1</title>
<path fill="none" stroke="black" d="M330.51,-770.497C292.286,-760.201 253.044,-748.034 217.091,-734 206.877,-730.013 196.261,-724.767 186.605,-719.517"/>
<text text-anchor="middle" x="196.588" y="-717.59" font-family="Times New Roman,serif" font-size="10.00">modelObject</text>
</g>
<!-- p10 -->
<g id="node10" class="node"><title>p10</title>
<a xlink:href="../../SDMLib/src/org/sdmlib/models/transformations/PlaceHolderDescription.java" xlink:title="&lt;TABLE&gt;">
<polygon fill="none" stroke="black" points="234.091,-712 234.091,-729 358.091,-729 358.091,-712 234.091,-712"/>
<text text-anchor="start" x="237.591" y="-718.5" font-family="Times New Roman,serif" font-size="10.00"> </text>
<text text-anchor="start" x="240.591" y="-718.5" font-family="Times New Roman,serif" font-size="10.00">p10 :PlaceHolderDescription</text>
</a>
<polygon fill="none" stroke="black" points="234.091,-664 234.091,-712 358.091,-712 358.091,-664 234.091,-664"/>
<text text-anchor="start" x="239.091" y="-700" font-family="Times New Roman,serif" font-size="10.00">textFragment = &quot;example&quot;</text>
<text text-anchor="start" x="239.091" y="-686" font-family="Times New Roman,serif" font-size="10.00">attrName = &quot;name&quot;</text>
<text text-anchor="start" x="239.091" y="-672" font-family="Times New Roman,serif" font-size="10.00">isKeyAttribute = &quot;false&quot;</text>
</g>
<!-- t9&#45;&#45;p10 -->
<g id="edge4" class="edge"><title>t9&#45;&#45;p10</title>
<path fill="none" stroke="black" d="M445.177,-770.342C419.094,-757.685 390.888,-743.999 366.103,-731.972"/>
<text text-anchor="middle" x="376.102" y="-729.626" font-family="Times New Roman,serif" font-size="10.00">placeholders</text>
<text text-anchor="middle" x="435.179" y="-767.687" font-family="Times New Roman,serif" font-size="10.00">template</text>
</g>
<!-- p11 -->
<g id="node11" class="node"><title>p11</title>
<a xlink:href="../../SDMLib/src/org/sdmlib/models/transformations/PlaceHolderDescription.java" xlink:title="&lt;TABLE&gt;">
<polygon fill="none" stroke="black" points="392.091,-712 392.091,-729 516.091,-729 516.091,-712 392.091,-712"/>
<text text-anchor="start" x="395.591" y="-718.5" font-family="Times New Roman,serif" font-size="10.00"> </text>
<text text-anchor="start" x="398.591" y="-718.5" font-family="Times New Roman,serif" font-size="10.00">p11 :PlaceHolderDescription</text>
</a>
<polygon fill="none" stroke="black" points="392.091,-664 392.091,-712 516.091,-712 516.091,-664 392.091,-664"/>
<text text-anchor="start" x="397.091" y="-700" font-family="Times New Roman,serif" font-size="10.00">textFragment = &quot;99&quot;</text>
<text text-anchor="start" x="397.091" y="-686" font-family="Times New Roman,serif" font-size="10.00">attrName = &quot;rooms.size&quot;</text>
<text text-anchor="start" x="397.091" y="-672" font-family="Times New Roman,serif" font-size="10.00">isKeyAttribute = &quot;false&quot;</text>
</g>
<!-- t9&#45;&#45;p11 -->
<g id="edge6" class="edge"><title>t9&#45;&#45;p11</title>
<path fill="none" stroke="black" d="M503.674,-770.178C495.427,-758.173 486.551,-745.252 478.62,-733.707"/>
<text text-anchor="middle" x="487.235" y="-736.284" font-family="Times New Roman,serif" font-size="10.00">placeholders</text>
<text text-anchor="middle" x="495.059" y="-762.601" font-family="Times New Roman,serif" font-size="10.00">template</text>
</g>
<!-- p12 -->
<g id="node12" class="node"><title>p12</title>
<a xlink:href="../../SDMLib/src/org/sdmlib/models/transformations/PlaceHolderDescription.java" xlink:title="&lt;TABLE&gt;">
<polygon fill="none" stroke="black" points="550.091,-712 550.091,-729 674.091,-729 674.091,-712 550.091,-712"/>
<text text-anchor="start" x="553.591" y="-718.5" font-family="Times New Roman,serif" font-size="10.00"> </text>
<text text-anchor="start" x="556.591" y="-718.5" font-family="Times New Roman,serif" font-size="10.00">p12 :PlaceHolderDescription</text>
</a>
<polygon fill="none" stroke="black" points="550.091,-664 550.091,-712 674.091,-712 674.091,-664 550.091,-664"/>
<text text-anchor="start" x="555.091" y="-700" font-family="Times New Roman,serif" font-size="10.00">textFragment = &quot;88&quot;</text>
<text text-anchor="start" x="555.091" y="-686" font-family="Times New Roman,serif" font-size="10.00">attrName = &quot;students.size&quot;</text>
<text text-anchor="start" x="555.091" y="-672" font-family="Times New Roman,serif" font-size="10.00">isKeyAttribute = &quot;false&quot;</text>
</g>
<!-- t9&#45;&#45;p12 -->
<g id="edge8" class="edge"><title>t9&#45;&#45;p12</title>
<path fill="none" stroke="black" d="M562.507,-770.178C570.755,-758.173 579.631,-745.252 587.561,-733.707"/>
<text text-anchor="middle" x="585.913" y="-741.07" font-family="Times New Roman,serif" font-size="10.00">placeholders</text>
<text text-anchor="middle" x="564.156" y="-757.815" font-family="Times New Roman,serif" font-size="10.00">template</text>
</g>
<!-- p13 -->
<g id="node13" class="node"><title>p13</title>
<a xlink:href="../../SDMLib/src/org/sdmlib/models/transformations/PlaceHolderDescription.java" xlink:title="&lt;TABLE&gt;">
<polygon fill="none" stroke="black" points="708.091,-712 708.091,-729 832.091,-729 832.091,-712 708.091,-712"/>
<text text-anchor="start" x="711.591" y="-718.5" font-family="Times New Roman,serif" font-size="10.00"> </text>
<text text-anchor="start" x="714.591" y="-718.5" font-family="Times New Roman,serif" font-size="10.00">p13 :PlaceHolderDescription</text>
</a>
<polygon fill="none" stroke="black" points="708.091,-664 708.091,-712 832.091,-712 832.091,-664 708.091,-664"/>
<text text-anchor="start" x="713.091" y="-700" font-family="Times New Roman,serif" font-size="10.00">textFragment = &quot;roomList&quot;</text>
<text text-anchor="start" x="713.091" y="-686" font-family="Times New Roman,serif" font-size="10.00">attrName = &quot;rooms&quot;</text>
<text text-anchor="start" x="713.091" y="-672" font-family="Times New Roman,serif" font-size="10.00">isKeyAttribute = &quot;false&quot;</text>
</g>
<!-- t9&#45;&#45;p13 -->
<g id="edge10" class="edge"><title>t9&#45;&#45;p13</title>
<path fill="none" stroke="black" d="M621.004,-770.342C647.087,-757.685 675.293,-743.999 700.079,-731.972"/>
<text text-anchor="middle" x="693.77" y="-737.231" font-family="Times New Roman,serif" font-size="10.00">placeholders</text>
<text text-anchor="middle" x="627.313" y="-760.083" font-family="Times New Roman,serif" font-size="10.00">template</text>
</g>
<!-- p20 -->
<g id="node20" class="node"><title>p20</title>
<a xlink:href="../../SDMLib/src/org/sdmlib/models/transformations/PlaceHolderDescription.java" xlink:title="&lt;TABLE&gt;">
<polygon fill="none" stroke="black" points="871.091,-712 871.091,-729 999.091,-729 999.091,-712 871.091,-712"/>
<text text-anchor="start" x="876.591" y="-718.5" font-family="Times New Roman,serif" font-size="10.00"> </text>
<text text-anchor="start" x="879.591" y="-718.5" font-family="Times New Roman,serif" font-size="10.00">p20 :PlaceHolderDescription</text>
</a>
<polygon fill="none" stroke="black" points="871.091,-664 871.091,-712 999.091,-712 999.091,-664 871.091,-664"/>
<text text-anchor="start" x="876.091" y="-700" font-family="Times New Roman,serif" font-size="10.00">textFragment = &quot;studentList&quot;</text>
<text text-anchor="start" x="876.091" y="-686" font-family="Times New Roman,serif" font-size="10.00">attrName = &quot;students&quot;</text>
<text text-anchor="start" x="876.091" y="-672" font-family="Times New Roman,serif" font-size="10.00">isKeyAttribute = &quot;false&quot;</text>
</g>
<!-- t9&#45;&#45;p20 -->
<g id="edge12" class="edge"><title>t9&#45;&#45;p20</title>
<path fill="none" stroke="black" d="M723.254,-770.42C765.053,-759.687 808.841,-747.37 849.091,-734 853.545,-732.52 858.094,-730.914 862.659,-729.228"/>
<text text-anchor="middle" x="855.611" y="-733.822" font-family="Times New Roman,serif" font-size="10.00">placeholders</text>
<text text-anchor="middle" x="730.965" y="-761.553" font-family="Times New Roman,serif" font-size="10.00">template</text>
</g>
<!-- s2 -->
<g id="node3" class="node"><title>s2</title>
<a xlink:href="../examples/org/sdmlib/examples/studyright/Student.java" xlink:title="&lt;TABLE&gt;">
<polygon fill="none" stroke="black" points="113.091,-602 113.091,-619 190.091,-619 190.091,-602 113.091,-602"/>
<text text-anchor="start" x="127.091" y="-608.5" font-family="Times New Roman,serif" font-size="10.00"> </text>
<text text-anchor="start" x="130.091" y="-608.5" font-family="Times New Roman,serif" font-size="10.00">s2 :Student</text>
</a>
<polygon fill="none" stroke="black" points="113.091,-540 113.091,-602 190.091,-602 190.091,-540 113.091,-540"/>
<text text-anchor="start" x="118.091" y="-590" font-family="Times New Roman,serif" font-size="10.00">name = &quot;Albert&quot;</text>
<text text-anchor="start" x="118.091" y="-576" font-family="Times New Roman,serif" font-size="10.00">matrNo = 4242</text>
<text text-anchor="start" x="118.091" y="-562" font-family="Times New Roman,serif" font-size="10.00">credits = 0</text>
<text text-anchor="start" x="118.091" y="-548" font-family="Times New Roman,serif" font-size="10.00">motivation = 0</text>
</g>
<!-- u1&#45;&#45;s2 -->
<g id="edge14" class="edge"><title>u1&#45;&#45;s2</title>
<path fill="none" stroke="black" d="M151.091,-674.369C151.091,-660.055 151.091,-640.804 151.091,-623.5"/>
<text text-anchor="middle" x="155.317" y="-630.063" font-family="Times New Roman,serif" font-size="10.00">students</text>
<text text-anchor="middle" x="146.864" y="-662.806" font-family="Times New Roman,serif" font-size="10.00">uni</text>
</g>
<!-- r3 -->
<g id="node4" class="node"><title>r3</title>
<a xlink:href="../examples/org/sdmlib/examples/studyright/Room.java" xlink:title="&lt;TABLE&gt;">
<polygon fill="none" stroke="black" points="93.0907,-471 93.0907,-488 175.091,-488 175.091,-471 93.0907,-471"/>
<text text-anchor="start" x="114.591" y="-477.5" font-family="Times New Roman,serif" font-size="10.00"> </text>
<text text-anchor="start" x="117.591" y="-477.5" font-family="Times New Roman,serif" font-size="10.00">r3 :Room</text>
</a>
<polygon fill="none" stroke="black" points="93.0907,-437 93.0907,-471 175.091,-471 175.091,-437 93.0907,-437"/>
<text text-anchor="start" x="98.0907" y="-459" font-family="Times New Roman,serif" font-size="10.00">roomNo = &quot;math&quot;</text>
<text text-anchor="start" x="98.0907" y="-445" font-family="Times New Roman,serif" font-size="10.00">credits = 42</text>
</g>
<!-- u1&#45;&#45;r3 -->
<g id="edge18" class="edge"><title>u1&#45;&#45;r3</title>
<path fill="none" stroke="black" d="M128.024,-674.379C115.669,-661.173 101.669,-643.173 95.0907,-624 82.3977,-587.006 85.4822,-573.912 95.0907,-536 98.9323,-520.842 106.673,-505.417 114.253,-492.753"/>
<text text-anchor="middle" x="113.314" y="-500.208" font-family="Times New Roman,serif" font-size="10.00">rooms</text>
<text text-anchor="middle" x="118.792" y="-668.038" font-family="Times New Roman,serif" font-size="10.00">uni</text>
</g>
<!-- r4 -->
<g id="node5" class="node"><title>r4</title>
<a xlink:href="../examples/org/sdmlib/examples/studyright/Room.java" xlink:title="&lt;TABLE&gt;">
<polygon fill="none" stroke="black" points="138.091,-354 138.091,-371 216.091,-371 216.091,-354 138.091,-354"/>
<text text-anchor="start" x="157.591" y="-360.5" font-family="Times New Roman,serif" font-size="10.00"> </text>
<text text-anchor="start" x="160.591" y="-360.5" font-family="Times New Roman,serif" font-size="10.00">r4 :Room</text>
</a>
<polygon fill="none" stroke="black" points="138.091,-320 138.091,-354 216.091,-354 216.091,-320 138.091,-320"/>
<text text-anchor="start" x="143.091" y="-342" font-family="Times New Roman,serif" font-size="10.00">roomNo = &quot;arts&quot;</text>
<text text-anchor="start" x="143.091" y="-328" font-family="Times New Roman,serif" font-size="10.00">credits = 23</text>
</g>
<!-- u1&#45;&#45;r4 -->
<g id="edge20" class="edge"><title>u1&#45;&#45;r4</title>
<path fill="none" stroke="black" d="M188.689,-674.368C197.86,-669.405 207.729,-664.322 217.091,-660 257.707,-641.247 285.737,-660.859 311.091,-624 368.765,-540.152 266.402,-427.706 210.245,-375.654"/>
<text text-anchor="middle" x="219.707" y="-376.391" font-family="Times New Roman,serif" font-size="10.00">rooms</text>
<text text-anchor="middle" x="194.666" y="-663.851" font-family="Times New Roman,serif" font-size="10.00">uni</text>
</g>
<!-- r5 -->
<g id="node6" class="node"><title>r5</title>
<a xlink:href="../examples/org/sdmlib/examples/studyright/Room.java" xlink:title="&lt;TABLE&gt;">
<polygon fill="none" stroke="black" points="53.0907,-237 53.0907,-254 141.091,-254 141.091,-237 53.0907,-237"/>
<text text-anchor="start" x="77.5907" y="-243.5" font-family="Times New Roman,serif" font-size="10.00"> </text>
<text text-anchor="start" x="80.5907" y="-243.5" font-family="Times New Roman,serif" font-size="10.00">r5 :Room</text>
</a>
<polygon fill="none" stroke="black" points="53.0907,-203 53.0907,-237 141.091,-237 141.091,-203 53.0907,-203"/>
<text text-anchor="start" x="58.0907" y="-225" font-family="Times New Roman,serif" font-size="10.00">roomNo = &quot;sports&quot;</text>
<text text-anchor="start" x="58.0907" y="-211" font-family="Times New Roman,serif" font-size="10.00">credits = 23</text>
</g>
<!-- u1&#45;&#45;r5 -->
<g id="edge22" class="edge"><title>u1&#45;&#45;r5</title>
<path fill="none" stroke="black" d="M122.573,-674.241C108.002,-661.368 91.5908,-643.74 83.0907,-624 28.5437,-497.327 68.5392,-325.966 88.0407,-258.744"/>
<text text-anchor="middle" x="89.7179" y="-266.103" font-family="Times New Roman,serif" font-size="10.00">rooms</text>
<text text-anchor="middle" x="113.019" y="-668.788" font-family="Times New Roman,serif" font-size="10.00">uni</text>
</g>
<!-- r6 -->
<g id="node7" class="node"><title>r6</title>
<a xlink:href="../examples/org/sdmlib/examples/studyright/Room.java" xlink:title="&lt;TABLE&gt;">
<polygon fill="none" stroke="black" points="77.0907,-134 77.0907,-151 159.091,-151 159.091,-134 77.0907,-134"/>
<text text-anchor="start" x="98.5907" y="-140.5" font-family="Times New Roman,serif" font-size="10.00"> </text>
<text text-anchor="start" x="101.591" y="-140.5" font-family="Times New Roman,serif" font-size="10.00">r6 :Room</text>
</a>
<polygon fill="none" stroke="black" points="77.0907,-100 77.0907,-134 159.091,-134 159.091,-100 77.0907,-100"/>
<text text-anchor="start" x="82.0907" y="-122" font-family="Times New Roman,serif" font-size="10.00">roomNo = &quot;exam&quot;</text>
<text text-anchor="start" x="82.0907" y="-108" font-family="Times New Roman,serif" font-size="10.00">credits = 0</text>
</g>
<!-- u1&#45;&#45;r6 -->
<g id="edge24" class="edge"><title>u1&#45;&#45;r6</title>
<path fill="none" stroke="black" d="M112.471,-674.246C93.2266,-661.717 70.9543,-644.409 56.0907,-624 11.7363,-563.099 0.0906516,-539.341 0.0906516,-464 0.0906516,-464 0.0906516,-464 0.0906516,-345 0.0906516,-275.143 -1.35977,-250.97 36.0907,-192 44.9531,-178.045 57.8762,-165.798 70.8534,-155.808"/>
<text text-anchor="middle" x="66.3517" y="-162.237" font-family="Times New Roman,serif" font-size="10.00">rooms</text>
<text text-anchor="middle" x="102.585" y="-670.237" font-family="Times New Roman,serif" font-size="10.00">uni</text>
</g>
<!-- r7 -->
<g id="node8" class="node"><title>r7</title>
<a xlink:href="../examples/org/sdmlib/examples/studyright/Room.java" xlink:title="&lt;TABLE&gt;">
<polygon fill="none" stroke="black" points="164.091,-38 164.091,-55 267.091,-55 267.091,-38 164.091,-38"/>
<text text-anchor="start" x="196.091" y="-44.5" font-family="Times New Roman,serif" font-size="10.00"> </text>
<text text-anchor="start" x="199.091" y="-44.5" font-family="Times New Roman,serif" font-size="10.00">r7 :Room</text>
</a>
<polygon fill="none" stroke="black" points="164.091,-4 164.091,-38 267.091,-38 267.091,-4 164.091,-4"/>
<text text-anchor="start" x="169.091" y="-26" font-family="Times New Roman,serif" font-size="10.00">roomNo = &quot;ProgMeth&quot;</text>
<text text-anchor="start" x="169.091" y="-12" font-family="Times New Roman,serif" font-size="10.00">credits = 42</text>
</g>
<!-- u1&#45;&#45;r7 -->
<g id="edge26" class="edge"><title>u1&#45;&#45;r7</title>
<path fill="none" stroke="black" d="M187.445,-674.476C196.912,-669.345 207.228,-664.157 217.091,-660 267.225,-638.867 297.372,-664.146 334.091,-624 383.156,-570.355 368.091,-536.699 368.091,-464 368.091,-464 368.091,-464 368.091,-228 368.091,-155.681 302.981,-93.8819 257.71,-59.653"/>
<text text-anchor="middle" x="267.447" y="-59.4321" font-family="Times New Roman,serif" font-size="10.00">rooms</text>
<text text-anchor="middle" x="193.427" y="-663.962" font-family="Times New Roman,serif" font-size="10.00">uni</text>
</g>
<!-- s8 -->
<g id="node9" class="node"><title>s8</title>
<a xlink:href="../examples/org/sdmlib/examples/studyright/Student.java" xlink:title="&lt;TABLE&gt;">
<polygon fill="none" stroke="black" points="224.091,-602 224.091,-619 294.091,-619 294.091,-602 224.091,-602"/>
<text text-anchor="start" x="234.591" y="-608.5" font-family="Times New Roman,serif" font-size="10.00"> </text>
<text text-anchor="start" x="237.591" y="-608.5" font-family="Times New Roman,serif" font-size="10.00">s8 :Student</text>
</a>
<polygon fill="none" stroke="black" points="224.091,-540 224.091,-602 294.091,-602 294.091,-540 224.091,-540"/>
<text text-anchor="start" x="229.091" y="-590" font-family="Times New Roman,serif" font-size="10.00">name = &quot;Nina&quot;</text>
<text text-anchor="start" x="229.091" y="-576" font-family="Times New Roman,serif" font-size="10.00">matrNo = 2323</text>
<text text-anchor="start" x="229.091" y="-562" font-family="Times New Roman,serif" font-size="10.00">credits = 0</text>
<text text-anchor="start" x="229.091" y="-548" font-family="Times New Roman,serif" font-size="10.00">motivation = 0</text>
</g>
<!-- u1&#45;&#45;s8 -->
<g id="edge16" class="edge"><title>u1&#45;&#45;s8</title>
<path fill="none" stroke="black" d="M171.405,-674.369C184.847,-660.055 202.927,-640.804 219.177,-623.5"/>
<text text-anchor="middle" x="216.054" y="-630.5" font-family="Times New Roman,serif" font-size="10.00">students</text>
<text text-anchor="middle" x="174.528" y="-662.37" font-family="Times New Roman,serif" font-size="10.00">uni</text>
</g>
<!-- s2&#45;&#45;r3 -->
<g id="edge28" class="edge"><title>s2&#45;&#45;r3</title>
<path fill="none" stroke="black" d="M144.76,-536.178C142.608,-521.618 140.257,-505.713 138.311,-492.547"/>
<text text-anchor="middle" x="143.817" y="-498.395" font-family="Times New Roman,serif" font-size="10.00">in</text>
<text text-anchor="middle" x="139.254" y="-525.331" font-family="Times New Roman,serif" font-size="10.00">students</text>
</g>
<!-- r3&#45;&#45;r4 -->
<g id="edge30" class="edge"><title>r3&#45;&#45;r4</title>
<path fill="none" stroke="black" d="M144.83,-433.277C151.398,-415.714 159.769,-393.324 166.339,-375.755"/>
<text text-anchor="middle" x="167.123" y="-383.224" font-family="Times New Roman,serif" font-size="10.00">neighbors</text>
<text text-anchor="middle" x="144.046" y="-420.808" font-family="Times New Roman,serif" font-size="10.00">neighbors</text>
</g>
<!-- r3&#45;&#45;r5 -->
<g id="edge32" class="edge"><title>r3&#45;&#45;r5</title>
<path fill="none" stroke="black" d="M128.708,-433.304C126.288,-420.127 123.451,-404.287 121.091,-390 113.512,-344.135 105.702,-290.702 101.127,-258.654"/>
<text text-anchor="middle" x="106.596" y="-264.526" font-family="Times New Roman,serif" font-size="10.00">neighbors</text>
<text text-anchor="middle" x="122.918" y="-422.651" font-family="Times New Roman,serif" font-size="10.00">neighbors</text>
</g>
<!-- r4&#45;&#45;r5 -->
<g id="edge34" class="edge"><title>r4&#45;&#45;r5</title>
<path fill="none" stroke="black" d="M157.11,-316.277C144.892,-298.714 129.316,-276.324 117.094,-258.755"/>
<text text-anchor="middle" x="125.739" y="-261.282" font-family="Times New Roman,serif" font-size="10.00">neighbors</text>
<text text-anchor="middle" x="148.465" y="-308.751" font-family="Times New Roman,serif" font-size="10.00">neighbors</text>
</g>
<!-- r4&#45;&#45;r6 -->
<g id="edge36" class="edge"><title>r4&#45;&#45;r6</title>
<path fill="none" stroke="black" d="M177.133,-316.257C176.361,-284.873 172.675,-233.545 158.091,-192 153.658,-179.373 146.497,-166.591 139.45,-155.743"/>
<text text-anchor="middle" x="147.89" y="-158.606" font-family="Times New Roman,serif" font-size="10.00">neighbors</text>
<text text-anchor="middle" x="172.613" y="-304.837" font-family="Times New Roman,serif" font-size="10.00">neighbors</text>
</g>
<!-- r4&#45;&#45;r7 -->
<g id="edge38" class="edge"><title>r4&#45;&#45;r7</title>
<path fill="none" stroke="black" d="M180.564,-316.302C187.801,-256.501 204.421,-119.163 211.639,-59.5176"/>
<text text-anchor="middle" x="214.746" y="-66.5227" font-family="Times New Roman,serif" font-size="10.00">neighbors</text>
<text text-anchor="middle" x="177.457" y="-304.297" font-family="Times New Roman,serif" font-size="10.00">neighbors</text>
</g>
<!-- r5&#45;&#45;r6 -->
<g id="edge40" class="edge"><title>r5&#45;&#45;r6</title>
<path fill="none" stroke="black" d="M103.052,-199.328C105.89,-185.681 109.275,-169.4 112.114,-155.744"/>
<text text-anchor="middle" x="114.407" y="-162.978" font-family="Times New Roman,serif" font-size="10.00">neighbors</text>
<text text-anchor="middle" x="100.759" y="-187.094" font-family="Times New Roman,serif" font-size="10.00">neighbors</text>
</g>
<!-- r6&#45;&#45;r7 -->
<g id="edge42" class="edge"><title>r6&#45;&#45;r7</title>
<path fill="none" stroke="black" d="M147.721,-96.2861C159.755,-84.624 173.626,-71.1822 185.642,-59.538"/>
<text text-anchor="middle" x="182.074" y="-66.3801" font-family="Times New Roman,serif" font-size="10.00">neighbors</text>
<text text-anchor="middle" x="151.288" y="-84.4441" font-family="Times New Roman,serif" font-size="10.00">neighbors</text>
</g>
<!-- t14 -->
<g id="node14" class="node"><title>t14</title>
<a xlink:href="../../SDMLib/src/org/sdmlib/models/transformations/Template.java" xlink:title="&lt;TABLE&gt;">
<polygon fill="none" stroke="black" points="527.091,-602 527.091,-619 869.091,-619 869.091,-602 527.091,-602"/>
<text text-anchor="start" x="669.591" y="-608.5" font-family="Times New Roman,serif" font-size="10.00"> </text>
<text text-anchor="start" x="672.591" y="-608.5" font-family="Times New Roman,serif" font-size="10.00">t14 :Template</text>
</a>
<polygon fill="none" stroke="black" points="527.091,-540 527.091,-602 869.091,-602 869.091,-540 527.091,-540"/>
<text text-anchor="start" x="532.091" y="-590" font-family="Times New Roman,serif" font-size="10.00">templateText = &quot; &#45; The xy room has 42 credits. It is connected to rooms: neighbors&quot;</text>
<text text-anchor="start" x="532.091" y="-576" font-family="Times New Roman,serif" font-size="10.00">listStart = &quot;&quot;</text>
<text text-anchor="start" x="532.091" y="-562" font-family="Times New Roman,serif" font-size="10.00">listSeparator = &quot;&quot;</text>
<text text-anchor="start" x="532.091" y="-548" font-family="Times New Roman,serif" font-size="10.00">listEnd = &quot;&quot;</text>
</g>
<!-- p13&#45;&#45;t14 -->
<g id="edge44" class="edge"><title>p13&#45;&#45;t14</title>
<path fill="none" stroke="black" d="M747.704,-660.244C740.439,-648.639 732.306,-635.649 724.76,-623.597"/>
<text text-anchor="middle" x="733.152" y="-626.536" font-family="Times New Roman,serif" font-size="10.00">subTemplate</text>
<text text-anchor="middle" x="739.313" y="-652.305" font-family="Times New Roman,serif" font-size="10.00">placeholderDescription</text>
</g>
<!-- p15 -->
<g id="node15" class="node"><title>p15</title>
<a xlink:href="../../SDMLib/src/org/sdmlib/models/transformations/PlaceHolderDescription.java" xlink:title="&lt;TABLE&gt;">
<polygon fill="none" stroke="black" points="791.091,-478 791.091,-495 915.091,-495 915.091,-478 791.091,-478"/>
<text text-anchor="start" x="794.591" y="-484.5" font-family="Times New Roman,serif" font-size="10.00"> </text>
<text text-anchor="start" x="797.591" y="-484.5" font-family="Times New Roman,serif" font-size="10.00">p15 :PlaceHolderDescription</text>
</a>
<polygon fill="none" stroke="black" points="791.091,-430 791.091,-478 915.091,-478 915.091,-430 791.091,-430"/>
<text text-anchor="start" x="796.091" y="-466" font-family="Times New Roman,serif" font-size="10.00">textFragment = &quot;xy&quot;</text>
<text text-anchor="start" x="796.091" y="-452" font-family="Times New Roman,serif" font-size="10.00">attrName = &quot;roomNo&quot;</text>
<text text-anchor="start" x="796.091" y="-438" font-family="Times New Roman,serif" font-size="10.00">isKeyAttribute = &quot;false&quot;</text>
</g>
<!-- t14&#45;&#45;p15 -->
<g id="edge46" class="edge"><title>t14&#45;&#45;p15</title>
<path fill="none" stroke="black" d="M755.807,-536.178C771.988,-524.173 789.403,-511.252 804.964,-499.707"/>
<text text-anchor="middle" x="800.203" y="-506.001" font-family="Times New Roman,serif" font-size="10.00">placeholders</text>
<text text-anchor="middle" x="760.567" y="-524.884" font-family="Times New Roman,serif" font-size="10.00">template</text>
</g>
<!-- p16 -->
<g id="node16" class="node"><title>p16</title>
<a xlink:href="../../SDMLib/src/org/sdmlib/models/transformations/PlaceHolderDescription.java" xlink:title="&lt;TABLE&gt;">
<polygon fill="none" stroke="black" points="475.091,-478 475.091,-495 599.091,-495 599.091,-478 475.091,-478"/>
<text text-anchor="start" x="478.591" y="-484.5" font-family="Times New Roman,serif" font-size="10.00"> </text>
<text text-anchor="start" x="481.591" y="-484.5" font-family="Times New Roman,serif" font-size="10.00">p16 :PlaceHolderDescription</text>
</a>
<polygon fill="none" stroke="black" points="475.091,-430 475.091,-478 599.091,-478 599.091,-430 475.091,-430"/>
<text text-anchor="start" x="480.091" y="-466" font-family="Times New Roman,serif" font-size="10.00">textFragment = &quot;42&quot;</text>
<text text-anchor="start" x="480.091" y="-452" font-family="Times New Roman,serif" font-size="10.00">attrName = &quot;credits&quot;</text>
<text text-anchor="start" x="480.091" y="-438" font-family="Times New Roman,serif" font-size="10.00">isKeyAttribute = &quot;false&quot;</text>
</g>
<!-- t14&#45;&#45;p16 -->
<g id="edge48" class="edge"><title>t14&#45;&#45;p16</title>
<path fill="none" stroke="black" d="M638.14,-536.178C621.243,-524.109 603.051,-511.115 586.823,-499.523"/>
<text text-anchor="middle" x="596.654" y="-498.852" font-family="Times New Roman,serif" font-size="10.00">placeholders</text>
<text text-anchor="middle" x="628.309" y="-531.849" font-family="Times New Roman,serif" font-size="10.00">template</text>
</g>
<!-- p17 -->
<g id="node17" class="node"><title>p17</title>
<a xlink:href="../../SDMLib/src/org/sdmlib/models/transformations/PlaceHolderDescription.java" xlink:title="&lt;TABLE&gt;">
<polygon fill="none" stroke="black" points="633.091,-478 633.091,-495 757.091,-495 757.091,-478 633.091,-478"/>
<text text-anchor="start" x="636.591" y="-484.5" font-family="Times New Roman,serif" font-size="10.00"> </text>
<text text-anchor="start" x="639.591" y="-484.5" font-family="Times New Roman,serif" font-size="10.00">p17 :PlaceHolderDescription</text>
</a>
<polygon fill="none" stroke="black" points="633.091,-430 633.091,-478 757.091,-478 757.091,-430 633.091,-430"/>
<text text-anchor="start" x="638.091" y="-466" font-family="Times New Roman,serif" font-size="10.00">textFragment = &quot;neighbors&quot;</text>
<text text-anchor="start" x="638.091" y="-452" font-family="Times New Roman,serif" font-size="10.00">attrName = &quot;neighbors&quot;</text>
<text text-anchor="start" x="638.091" y="-438" font-family="Times New Roman,serif" font-size="10.00">isKeyAttribute = &quot;false&quot;</text>
</g>
<!-- t14&#45;&#45;p17 -->
<g id="edge50" class="edge"><title>t14&#45;&#45;p17</title>
<path fill="none" stroke="black" d="M696.974,-536.178C696.66,-524.173 696.323,-511.252 696.022,-499.707"/>
<text text-anchor="middle" x="700.483" y="-506.157" font-family="Times New Roman,serif" font-size="10.00">placeholders</text>
<text text-anchor="middle" x="692.512" y="-524.728" font-family="Times New Roman,serif" font-size="10.00">template</text>
</g>
<!-- t18 -->
<g id="node18" class="node"><title>t18</title>
<a xlink:href="../../SDMLib/src/org/sdmlib/models/transformations/Template.java" xlink:title="&lt;TABLE&gt;">
<polygon fill="none" stroke="black" points="644.091,-368 644.091,-385 746.091,-385 746.091,-368 644.091,-368"/>
<text text-anchor="start" x="666.591" y="-374.5" font-family="Times New Roman,serif" font-size="10.00"> </text>
<text text-anchor="start" x="669.591" y="-374.5" font-family="Times New Roman,serif" font-size="10.00">t18 :Template</text>
</a>
<polygon fill="none" stroke="black" points="644.091,-306 644.091,-368 746.091,-368 746.091,-306 644.091,-306"/>
<text text-anchor="start" x="649.091" y="-356" font-family="Times New Roman,serif" font-size="10.00">templateText = &quot;name&quot;</text>
<text text-anchor="start" x="649.091" y="-342" font-family="Times New Roman,serif" font-size="10.00">listStart = &quot;&quot;</text>
<text text-anchor="start" x="649.091" y="-328" font-family="Times New Roman,serif" font-size="10.00">listSeparator = &quot;, &quot;</text>
<text text-anchor="start" x="649.091" y="-314" font-family="Times New Roman,serif" font-size="10.00">listEnd = &quot;.&quot;</text>
</g>
<!-- p17&#45;&#45;t18 -->
<g id="edge52" class="edge"><title>p17&#45;&#45;t18</title>
<path fill="none" stroke="black" d="M695.091,-426.244C695.091,-414.639 695.091,-401.649 695.091,-389.597"/>
<text text-anchor="middle" x="699.317" y="-396.16" font-family="Times New Roman,serif" font-size="10.00">subTemplate</text>
<text text-anchor="middle" x="690.864" y="-414.681" font-family="Times New Roman,serif" font-size="10.00">placeholderDescription</text>
</g>
<!-- p19 -->
<g id="node19" class="node"><title>p19</title>
<a xlink:href="../../SDMLib/src/org/sdmlib/models/transformations/PlaceHolderDescription.java" xlink:title="&lt;TABLE&gt;">
<polygon fill="none" stroke="black" points="633.091,-244 633.091,-261 757.091,-261 757.091,-244 633.091,-244"/>
<text text-anchor="start" x="636.591" y="-250.5" font-family="Times New Roman,serif" font-size="10.00"> </text>
<text text-anchor="start" x="639.591" y="-250.5" font-family="Times New Roman,serif" font-size="10.00">p19 :PlaceHolderDescription</text>
</a>
<polygon fill="none" stroke="black" points="633.091,-196 633.091,-244 757.091,-244 757.091,-196 633.091,-196"/>
<text text-anchor="start" x="638.091" y="-232" font-family="Times New Roman,serif" font-size="10.00">textFragment = &quot;name&quot;</text>
<text text-anchor="start" x="638.091" y="-218" font-family="Times New Roman,serif" font-size="10.00">attrName = &quot;roomNo&quot;</text>
<text text-anchor="start" x="638.091" y="-204" font-family="Times New Roman,serif" font-size="10.00">isKeyAttribute = &quot;false&quot;</text>
</g>
<!-- t18&#45;&#45;p19 -->
<g id="edge54" class="edge"><title>t18&#45;&#45;p19</title>
<path fill="none" stroke="black" d="M695.091,-302.178C695.091,-290.173 695.091,-277.252 695.091,-265.707"/>
<text text-anchor="middle" x="699.317" y="-272.27" font-family="Times New Roman,serif" font-size="10.00">placeholders</text>
<text text-anchor="middle" x="690.864" y="-290.615" font-family="Times New Roman,serif" font-size="10.00">template</text>
</g>
<!-- t21 -->
<g id="node21" class="node"><title>t21</title>
<a xlink:href="../../SDMLib/src/org/sdmlib/models/transformations/Template.java" xlink:title="&lt;TABLE&gt;">
<polygon fill="none" stroke="black" points="905.091,-602 905.091,-619 1117.09,-619 1117.09,-602 905.091,-602"/>
<text text-anchor="start" x="982.591" y="-608.5" font-family="Times New Roman,serif" font-size="10.00"> </text>
<text text-anchor="start" x="985.591" y="-608.5" font-family="Times New Roman,serif" font-size="10.00">t21 :Template</text>
</a>
<polygon fill="none" stroke="black" points="905.091,-540 905.091,-602 1117.09,-602 1117.09,-540 905.091,-540"/>
<text text-anchor="start" x="910.091" y="-590" font-family="Times New Roman,serif" font-size="10.00">templateText = &quot; &#45; Stud has student number 1234.&quot;</text>
<text text-anchor="start" x="910.091" y="-576" font-family="Times New Roman,serif" font-size="10.00">listStart = &quot;&quot;</text>
<text text-anchor="start" x="910.091" y="-562" font-family="Times New Roman,serif" font-size="10.00">listSeparator = &quot;&quot;</text>
<text text-anchor="start" x="910.091" y="-548" font-family="Times New Roman,serif" font-size="10.00">listEnd = &quot;&quot;</text>
</g>
<!-- p20&#45;&#45;t21 -->
<g id="edge56" class="edge"><title>p20&#45;&#45;t21</title>
<path fill="none" stroke="black" d="M958.721,-660.244C966.39,-648.639 974.975,-635.649 982.94,-623.597"/>
<text text-anchor="middle" x="981.468" y="-630.988" font-family="Times New Roman,serif" font-size="10.00">subTemplate</text>
<text text-anchor="middle" x="960.192" y="-647.852" font-family="Times New Roman,serif" font-size="10.00">placeholderDescription</text>
</g>
<!-- p22 -->
<g id="node22" class="node"><title>p22</title>
<a xlink:href="../../SDMLib/src/org/sdmlib/models/transformations/PlaceHolderDescription.java" xlink:title="&lt;TABLE&gt;">
<polygon fill="none" stroke="black" points="949.091,-478 949.091,-495 1073.09,-495 1073.09,-478 949.091,-478"/>
<text text-anchor="start" x="952.591" y="-484.5" font-family="Times New Roman,serif" font-size="10.00"> </text>
<text text-anchor="start" x="955.591" y="-484.5" font-family="Times New Roman,serif" font-size="10.00">p22 :PlaceHolderDescription</text>
</a>
<polygon fill="none" stroke="black" points="949.091,-430 949.091,-478 1073.09,-478 1073.09,-430 949.091,-430"/>
<text text-anchor="start" x="954.091" y="-466" font-family="Times New Roman,serif" font-size="10.00">textFragment = &quot;Stud&quot;</text>
<text text-anchor="start" x="954.091" y="-452" font-family="Times New Roman,serif" font-size="10.00">attrName = &quot;name&quot;</text>
<text text-anchor="start" x="954.091" y="-438" font-family="Times New Roman,serif" font-size="10.00">isKeyAttribute = &quot;false&quot;</text>
</g>
<!-- t21&#45;&#45;p22 -->
<g id="edge58" class="edge"><title>t21&#45;&#45;p22</title>
<path fill="none" stroke="black" d="M1011.09,-536.178C1011.09,-524.173 1011.09,-511.252 1011.09,-499.707"/>
<text text-anchor="middle" x="1015.32" y="-506.27" font-family="Times New Roman,serif" font-size="10.00">placeholders</text>
<text text-anchor="middle" x="1006.86" y="-524.615" font-family="Times New Roman,serif" font-size="10.00">template</text>
</g>
<!-- p23 -->
<g id="node23" class="node"><title>p23</title>
<a xlink:href="../../SDMLib/src/org/sdmlib/models/transformations/PlaceHolderDescription.java" xlink:title="&lt;TABLE&gt;">
<polygon fill="none" stroke="black" points="1107.09,-478 1107.09,-495 1231.09,-495 1231.09,-478 1107.09,-478"/>
<text text-anchor="start" x="1110.59" y="-484.5" font-family="Times New Roman,serif" font-size="10.00"> </text>
<text text-anchor="start" x="1113.59" y="-484.5" font-family="Times New Roman,serif" font-size="10.00">p23 :PlaceHolderDescription</text>
</a>
<polygon fill="none" stroke="black" points="1107.09,-430 1107.09,-478 1231.09,-478 1231.09,-430 1107.09,-430"/>
<text text-anchor="start" x="1112.09" y="-466" font-family="Times New Roman,serif" font-size="10.00">textFragment = &quot;1234&quot;</text>
<text text-anchor="start" x="1112.09" y="-452" font-family="Times New Roman,serif" font-size="10.00">attrName = &quot;matrNo&quot;</text>
<text text-anchor="start" x="1112.09" y="-438" font-family="Times New Roman,serif" font-size="10.00">isKeyAttribute = &quot;false&quot;</text>
</g>
<!-- t21&#45;&#45;p23 -->
<g id="edge60" class="edge"><title>t21&#45;&#45;p23</title>
<path fill="none" stroke="black" d="M1069.92,-536.178C1086.51,-524.109 1104.36,-511.115 1120.29,-499.523"/>
<text text-anchor="middle" x="1115.44" y="-505.773" font-family="Times New Roman,serif" font-size="10.00">placeholders</text>
<text text-anchor="middle" x="1074.76" y="-524.928" font-family="Times New Roman,serif" font-size="10.00">template</text>
</g>
</g>
</svg>
