<?xml version="1.0" encoding="UTF-8" standalone="no"?>
<!DOCTYPE svg PUBLIC "-//W3C//DTD SVG 1.1//EN"
 "http://www.w3.org/Graphics/SVG/1.1/DTD/svg11.dtd">
<!-- Generated by graphviz version 2.28.0 (20110507.0327)
 -->
<!-- Title: ObjectDiagram Pages: 1 -->
<svg width="310pt" height="466pt"
 viewBox="0.00 0.00 310.00 466.00" xmlns="http://www.w3.org/2000/svg" xmlns:xlink="http://www.w3.org/1999/xlink">
<g id="graph1" class="graph" transform="scale(1 1) rotate(0) translate(4 462)">
<title>ObjectDiagram</title>
<polygon fill="white" stroke="white" points="-4,5 -4,-462 307,-462 307,5 -4,5"/>
<!-- u9 -->
<g id="node1" class="node"><title>u9</title>
<a xlink:href="../examples/org/sdmlib/examples/studyright/University.java" xlink:title="&lt;TABLE&gt;">
<polygon fill="none" stroke="black" points="102,-436 102,-453 201,-453 201,-436 102,-436"/>
<text text-anchor="start" x="121.5" y="-442.5" font-family="Times New Roman,serif" font-size="10.00"> </text>
<text text-anchor="start" x="124.5" y="-442.5" font-family="Times New Roman,serif" font-size="10.00">u9 :University</text>
</a>
<polygon fill="none" stroke="black" points="102,-416 102,-436 201,-436 201,-416 102,-416"/>
<text text-anchor="start" x="107" y="-424" font-family="Times New Roman,serif" font-size="10.00">name = &quot;Study False&quot;</text>
</g>
<!-- s10 -->
<g id="node2" class="node"><title>s10</title>
<a xlink:href="../examples/org/sdmlib/examples/studyright/Student.java" xlink:title="&lt;TABLE&gt;">
<polygon fill="none" stroke="black" points="8,-354 8,-371 77,-371 77,-354 8,-354"/>
<text text-anchor="start" x="16" y="-360.5" font-family="Times New Roman,serif" font-size="10.00"> </text>
<text text-anchor="start" x="19" y="-360.5" font-family="Times New Roman,serif" font-size="10.00">s10 :Student</text>
</a>
<polygon fill="none" stroke="black" points="8,-292 8,-354 77,-354 77,-292 8,-292"/>
<text text-anchor="start" x="13" y="-342" font-family="Times New Roman,serif" font-size="10.00">name = &quot;Bart&quot;</text>
<text text-anchor="start" x="13" y="-328" font-family="Times New Roman,serif" font-size="10.00">matrNo = 111</text>
<text text-anchor="start" x="13" y="-314" font-family="Times New Roman,serif" font-size="10.00">credits = 0</text>
<text text-anchor="start" x="13" y="-300" font-family="Times New Roman,serif" font-size="10.00">motivation = 0</text>
</g>
<!-- u9&#45;&#45;s10 -->
<g id="edge2" class="edge"><title>u9&#45;&#45;s10</title>
<path fill="none" stroke="black" d="M127.617,-412.333C114.981,-400.624 98.9887,-385.806 84.2556,-372.154"/>
<text text-anchor="middle" x="93.7759" y="-372.714" font-family="Times New Roman,serif" font-size="10.00">students</text>
<text text-anchor="middle" x="118.096" y="-406.773" font-family="Times New Roman,serif" font-size="10.00">uni</text>
</g>
<!-- r11 -->
<g id="node3" class="node"><title>r11</title>
<a xlink:href="../examples/org/sdmlib/examples/studyright/Room.java" xlink:title="&lt;TABLE&gt;">
<polygon fill="none" stroke="black" points="18,-230 18,-247 99,-247 99,-230 18,-230"/>
<text text-anchor="start" x="37" y="-236.5" font-family="Times New Roman,serif" font-size="10.00"> </text>
<text text-anchor="start" x="40" y="-236.5" font-family="Times New Roman,serif" font-size="10.00">r11 :Room</text>
</a>
<polygon fill="none" stroke="black" points="18,-196 18,-230 99,-230 99,-196 18,-196"/>
<text text-anchor="start" x="23" y="-218" font-family="Times New Roman,serif" font-size="10.00">roomNo = &quot;laws&quot;</text>
<text text-anchor="start" x="23" y="-204" font-family="Times New Roman,serif" font-size="10.00">credits = 24</text>
</g>
<!-- u9&#45;&#45;r11 -->
<g id="edge8" class="edge"><title>u9&#45;&#45;r11</title>
<path fill="none" stroke="black" d="M143.309,-412.394C132.86,-383.604 113.159,-331.264 93,-288 87.3703,-275.918 80.5383,-262.925 74.4101,-251.755"/>
<text text-anchor="middle" x="82.4622" y="-255.185" font-family="Times New Roman,serif" font-size="10.00">rooms</text>
<text text-anchor="middle" x="136.228" y="-402.833" font-family="Times New Roman,serif" font-size="10.00">uni</text>
</g>
<!-- r12 -->
<g id="node4" class="node"><title>r12</title>
<a xlink:href="../examples/org/sdmlib/examples/studyright/Room.java" xlink:title="&lt;TABLE&gt;">
<polygon fill="none" stroke="black" points="32,-134 32,-151 153,-151 153,-134 32,-134"/>
<text text-anchor="start" x="71" y="-140.5" font-family="Times New Roman,serif" font-size="10.00"> </text>
<text text-anchor="start" x="74" y="-140.5" font-family="Times New Roman,serif" font-size="10.00">r12 :Room</text>
</a>
<polygon fill="none" stroke="black" points="32,-100 32,-134 153,-134 153,-100 32,-100"/>
<text text-anchor="start" x="37" y="-122" font-family="Times New Roman,serif" font-size="10.00">roomNo = &quot;class diagrams&quot;</text>
<text text-anchor="start" x="37" y="-108" font-family="Times New Roman,serif" font-size="10.00">credits = 23</text>
</g>
<!-- u9&#45;&#45;r12 -->
<g id="edge6" class="edge"><title>u9&#45;&#45;r12</title>
<path fill="none" stroke="black" d="M149.19,-412.363C145.312,-369.709 134.899,-271.965 115,-192 111.994,-179.919 107.634,-166.927 103.517,-155.757"/>
<text text-anchor="middle" x="110.592" y="-160.324" font-family="Times New Roman,serif" font-size="10.00">rooms</text>
<text text-anchor="middle" x="144.127" y="-401.239" font-family="Times New Roman,serif" font-size="10.00">uni</text>
</g>
<!-- r13 -->
<g id="node5" class="node"><title>r13</title>
<a xlink:href="../examples/org/sdmlib/examples/studyright/Room.java" xlink:title="&lt;TABLE&gt;">
<polygon fill="none" stroke="black" points="43,-38 43,-55 142,-55 142,-38 43,-38"/>
<text text-anchor="start" x="71" y="-44.5" font-family="Times New Roman,serif" font-size="10.00"> </text>
<text text-anchor="start" x="74" y="-44.5" font-family="Times New Roman,serif" font-size="10.00">r13 :Room</text>
</a>
<polygon fill="none" stroke="black" points="43,-4 43,-38 142,-38 142,-4 43,-4"/>
<text text-anchor="start" x="48" y="-26" font-family="Times New Roman,serif" font-size="10.00">roomNo = &quot;business&quot;</text>
<text text-anchor="start" x="48" y="-12" font-family="Times New Roman,serif" font-size="10.00">credits = 3</text>
</g>
<!-- u9&#45;&#45;r13 -->
<g id="edge10" class="edge"><title>u9&#45;&#45;r13</title>
<path fill="none" stroke="black" d="M158.901,-412.109C177.678,-356.274 219.749,-205.254 169,-96 162.367,-81.7205 150.881,-69.4475 138.774,-59.5351"/>
<text text-anchor="middle" x="148.427" y="-59.6478" font-family="Times New Roman,serif" font-size="10.00">rooms</text>
<text text-anchor="middle" x="157.631" y="-399.69" font-family="Times New Roman,serif" font-size="10.00">uni</text>
</g>
<!-- s14 -->
<g id="node6" class="node"><title>s14</title>
<a xlink:href="../examples/org/sdmlib/examples/studyright/Student.java" xlink:title="&lt;TABLE&gt;">
<polygon fill="none" stroke="black" points="226,-354 226,-371 295,-371 295,-354 226,-354"/>
<text text-anchor="start" x="234" y="-360.5" font-family="Times New Roman,serif" font-size="10.00"> </text>
<text text-anchor="start" x="237" y="-360.5" font-family="Times New Roman,serif" font-size="10.00">s14 :Student</text>
</a>
<polygon fill="none" stroke="black" points="226,-292 226,-354 295,-354 295,-292 226,-292"/>
<text text-anchor="start" x="231" y="-342" font-family="Times New Roman,serif" font-size="10.00">name = &quot;Rosi&quot;</text>
<text text-anchor="start" x="231" y="-328" font-family="Times New Roman,serif" font-size="10.00">matrNo = 112</text>
<text text-anchor="start" x="231" y="-314" font-family="Times New Roman,serif" font-size="10.00">credits = 0</text>
<text text-anchor="start" x="231" y="-300" font-family="Times New Roman,serif" font-size="10.00">motivation = 0</text>
</g>
<!-- u9&#45;&#45;s14 -->
<g id="edge4" class="edge"><title>u9&#45;&#45;s14</title>
<path fill="none" stroke="black" d="M174.383,-412.333C187.019,-400.624 203.011,-385.806 217.744,-372.154"/>
<text text-anchor="middle" x="213.969" y="-378.914" font-family="Times New Roman,serif" font-size="10.00">students</text>
<text text-anchor="middle" x="178.159" y="-400.573" font-family="Times New Roman,serif" font-size="10.00">uni</text>
</g>
<!-- s10&#45;&#45;r11 -->
<g id="edge12" class="edge"><title>s10&#45;&#45;r11</title>
<path fill="none" stroke="black" d="M48.3236,-288.316C50.1405,-276.052 52.0781,-262.973 53.7386,-251.765"/>
<text text-anchor="middle" x="56.5909" y="-258.849" font-family="Times New Roman,serif" font-size="10.00">in</text>
<text text-anchor="middle" x="45.4713" y="-276.231" font-family="Times New Roman,serif" font-size="10.00">students</text>
</g>
<!-- r11&#45;&#45;r12 -->
<g id="edge14" class="edge"><title>r11&#45;&#45;r12</title>
<path fill="none" stroke="black" d="M68.3859,-192.286C72.6041,-180.624 77.466,-167.182 81.6777,-155.538"/>
<text text-anchor="middle" x="82.5693" y="-162.998" font-family="Times New Roman,serif" font-size="10.00">neighbors</text>
<text text-anchor="middle" x="67.4943" y="-179.826" font-family="Times New Roman,serif" font-size="10.00">neighbors</text>
</g>
<!-- r11&#45;&#45;r13 -->
<g id="edge16" class="edge"><title>r11&#45;&#45;r13</title>
<path fill="none" stroke="black" d="M33.114,-192.197C25.4313,-181.541 17.955,-168.898 14,-156 6.18229,-130.505 2.68919,-120.149 14,-96 20.6543,-81.7928 32.1092,-69.6079 44.2226,-59.7562"/>
<text text-anchor="middle" x="39.9904" y="-66.3165" font-family="Times New Roman,serif" font-size="10.00">neighbors</text>
<text text-anchor="middle" x="24.437" y="-184.726" font-family="Times New Roman,serif" font-size="10.00">neighbors</text>
</g>
<!-- r12&#45;&#45;r13 -->
<g id="edge18" class="edge"><title>r12&#45;&#45;r13</title>
<path fill="none" stroke="black" d="M92,-96.2861C92,-84.624 92,-71.1822 92,-59.538"/>
<text text-anchor="middle" x="96.2262" y="-66.1011" font-family="Times New Roman,serif" font-size="10.00">neighbors</text>
<text text-anchor="middle" x="87.7738" y="-84.7231" font-family="Times New Roman,serif" font-size="10.00">neighbors</text>
</g>
</g>
</svg>
