<?xml version="1.0" encoding="UTF-8" standalone="no"?>
<!DOCTYPE svg PUBLIC "-//W3C//DTD SVG 1.1//EN"
 "http://www.w3.org/Graphics/SVG/1.1/DTD/svg11.dtd">
<!-- Generated by graphviz version 2.28.0 (20110507.0327)
 -->
<!-- Title: ObjectDiagram Pages: 1 -->
<svg width="390pt" height="672pt"
 viewBox="0.00 0.00 390.10 672.00" xmlns="http://www.w3.org/2000/svg" xmlns:xlink="http://www.w3.org/1999/xlink">
<g id="graph1" class="graph" transform="scale(1 1) rotate(0) translate(4 668)">
<title>ObjectDiagram</title>
<polygon fill="white" stroke="white" points="-4,5 -4,-668 387.103,-668 387.103,5 -4,5"/>
<!-- u1 -->
<g id="node1" class="node"><title>u1</title>
<a xlink:href="../examples/org/sdmlib/examples/studyright/University.java" xlink:title="&lt;TABLE&gt;">
<polygon fill="none" stroke="black" points="99.1026,-642 99.1026,-659 202.103,-659 202.103,-642 99.1026,-642"/>
<text text-anchor="start" x="119.103" y="-648.5" font-family="Arial" font-size="10.00"> </text>
<text text-anchor="start" x="123.103" y="-648.5" font-family="Arial" font-size="10.00">u1 :University</text>
</a>
<polygon fill="none" stroke="black" points="99.1026,-622 99.1026,-642 202.103,-642 202.103,-622 99.1026,-622"/>
<text text-anchor="start" x="104.103" y="-630" font-family="Arial" font-size="10.00">name = &quot;StudyRight&quot;</text>
</g>
<!-- s2 -->
<g id="node2" class="node"><title>s2</title>
<a xlink:href="../examples/org/sdmlib/examples/studyright/Student.java" xlink:title="&lt;TABLE&gt;">
<polygon fill="none" stroke="black" points="112.103,-553 112.103,-570 188.103,-570 188.103,-553 112.103,-553"/>
<text text-anchor="start" x="122.603" y="-559.5" font-family="Arial" font-size="10.00"> </text>
<text text-anchor="start" x="126.603" y="-559.5" font-family="Arial" font-size="10.00">s2 :Student</text>
</a>
<polygon fill="none" stroke="black" points="112.103,-491 112.103,-553 188.103,-553 188.103,-491 112.103,-491"/>
<text text-anchor="start" x="117.103" y="-541" font-family="Arial" font-size="10.00">name = &quot;Tom&quot;</text>
<text text-anchor="start" x="117.103" y="-527" font-family="Arial" font-size="10.00">matrNo = 4242</text>
<text text-anchor="start" x="117.103" y="-513" font-family="Arial" font-size="10.00">credits = 0</text>
<text text-anchor="start" x="117.103" y="-499" font-family="Arial" font-size="10.00">motivation = 0</text>
</g>
<!-- u1&#45;&#45;s2 -->
<g id="edge2" class="edge"><title>u1&#45;&#45;s2</title>
<path fill="none" stroke="black" d="M150.103,-618.404C150.103,-605.847 150.103,-589.579 150.103,-574.551"/>
<text text-anchor="middle" x="154.329" y="-581.114" font-family="Arial" font-size="10.00">students</text>
<text text-anchor="middle" x="145.876" y="-606.841" font-family="Arial" font-size="10.00">uni</text>
</g>
<!-- r3 -->
<g id="node3" class="node"><title>r3</title>
<a xlink:href="../examples/org/sdmlib/examples/studyright/Room.java" xlink:title="&lt;TABLE&gt;">
<polygon fill="none" stroke="black" points="88.1026,-422 88.1026,-439 175.103,-439 175.103,-422 88.1026,-422"/>
<text text-anchor="start" x="109.603" y="-428.5" font-family="Arial" font-size="10.00"> </text>
<text text-anchor="start" x="113.603" y="-428.5" font-family="Arial" font-size="10.00">r3 :Room</text>
</a>
<polygon fill="none" stroke="black" points="88.1026,-388 88.1026,-422 175.103,-422 175.103,-388 88.1026,-388"/>
<text text-anchor="start" x="93.1026" y="-410" font-family="Arial" font-size="10.00">roomNo = &quot;math&quot;</text>
<text text-anchor="start" x="93.1026" y="-396" font-family="Arial" font-size="10.00">credits = 42</text>
</g>
<!-- u1&#45;&#45;r3 -->
<g id="edge6" class="edge"><title>u1&#45;&#45;r3</title>
<path fill="none" stroke="black" d="M122.066,-618.488C111.508,-608.65 100.705,-596.05 95.1026,-582 78.3116,-539.891 83.7598,-523.891 95.1026,-480 98.3625,-467.386 104.654,-454.607 111.077,-443.758"/>
<text text-anchor="middle" x="110.186" y="-451.218" font-family="Arial" font-size="10.00">rooms</text>
<text text-anchor="middle" x="112.596" y="-612.776" font-family="Arial" font-size="10.00">uni</text>
</g>
<!-- r4 -->
<g id="node4" class="node"><title>r4</title>
<a xlink:href="../examples/org/sdmlib/examples/studyright/Room.java" xlink:title="&lt;TABLE&gt;">
<polygon fill="none" stroke="black" points="134.103,-326 134.103,-343 215.103,-343 215.103,-326 134.103,-326"/>
<text text-anchor="start" x="152.603" y="-332.5" font-family="Arial" font-size="10.00"> </text>
<text text-anchor="start" x="156.603" y="-332.5" font-family="Arial" font-size="10.00">r4 :Room</text>
</a>
<polygon fill="none" stroke="black" points="134.103,-292 134.103,-326 215.103,-326 215.103,-292 134.103,-292"/>
<text text-anchor="start" x="139.103" y="-314" font-family="Arial" font-size="10.00">roomNo = &quot;arts&quot;</text>
<text text-anchor="start" x="139.103" y="-300" font-family="Arial" font-size="10.00">credits = 23</text>
</g>
<!-- u1&#45;&#45;r4 -->
<g id="edge8" class="edge"><title>u1&#45;&#45;r4</title>
<path fill="none" stroke="black" d="M178.139,-618.488C188.698,-608.65 199.5,-596.05 205.103,-582 237.117,-501.713 205.392,-397.51 186.279,-347.817"/>
<text text-anchor="middle" x="193.366" y="-352.371" font-family="Arial" font-size="10.00">rooms</text>
<text text-anchor="middle" x="181.765" y="-606.669" font-family="Arial" font-size="10.00">uni</text>
</g>
<!-- r5 -->
<g id="node5" class="node"><title>r5</title>
<a xlink:href="../examples/org/sdmlib/examples/studyright/Room.java" xlink:title="&lt;TABLE&gt;">
<polygon fill="none" stroke="black" points="46.1026,-230 46.1026,-247 138.103,-247 138.103,-230 46.1026,-230"/>
<text text-anchor="start" x="70.1026" y="-236.5" font-family="Arial" font-size="10.00"> </text>
<text text-anchor="start" x="74.1026" y="-236.5" font-family="Arial" font-size="10.00">r5 :Room</text>
</a>
<polygon fill="none" stroke="black" points="46.1026,-196 46.1026,-230 138.103,-230 138.103,-196 46.1026,-196"/>
<text text-anchor="start" x="51.1026" y="-218" font-family="Arial" font-size="10.00">roomNo = &quot;sports&quot;</text>
<text text-anchor="start" x="51.1026" y="-204" font-family="Arial" font-size="10.00">credits = 23</text>
</g>
<!-- u1&#45;&#45;r5 -->
<g id="edge10" class="edge"><title>u1&#45;&#45;r5</title>
<path fill="none" stroke="black" d="M113.895,-618.241C101.341,-608.753 88.5555,-596.468 81.1026,-582 24.1359,-471.411 62.6374,-315.163 82.4071,-251.581"/>
<text text-anchor="middle" x="83.9078" y="-258.968" font-family="Arial" font-size="10.00">rooms</text>
<text text-anchor="middle" x="104.147" y="-613.514" font-family="Arial" font-size="10.00">uni</text>
</g>
<!-- r6 -->
<g id="node6" class="node"><title>r6</title>
<a xlink:href="../examples/org/sdmlib/examples/studyright/Room.java" xlink:title="&lt;TABLE&gt;">
<polygon fill="none" stroke="black" points="68.1026,-134 68.1026,-151 157.103,-151 157.103,-134 68.1026,-134"/>
<text text-anchor="start" x="90.6026" y="-140.5" font-family="Arial" font-size="10.00"> </text>
<text text-anchor="start" x="94.6026" y="-140.5" font-family="Arial" font-size="10.00">r6 :Room</text>
</a>
<polygon fill="none" stroke="black" points="68.1026,-100 68.1026,-134 157.103,-134 157.103,-100 68.1026,-100"/>
<text text-anchor="start" x="73.1026" y="-122" font-family="Arial" font-size="10.00">roomNo = &quot;exam&quot;</text>
<text text-anchor="start" x="73.1026" y="-108" font-family="Arial" font-size="10.00">credits = 0</text>
</g>
<!-- u1&#45;&#45;r6 -->
<g id="edge12" class="edge"><title>u1&#45;&#45;r6</title>
<path fill="none" stroke="black" d="M96.5098,-618.497C79.6181,-609.435 62.2243,-597.362 50.1026,-582 2.10802,-521.178 0.102566,-492.478 0.102566,-415 0.102566,-415 0.102566,-415 0.102566,-317 0.102566,-259.969 -1.53849,-240.101 29.1026,-192 38.051,-177.953 51.1254,-165.679 64.2617,-155.693"/>
<text text-anchor="middle" x="59.7072" y="-162.095" font-family="Arial" font-size="10.00">rooms</text>
<text text-anchor="middle" x="86.5337" y="-615.307" font-family="Arial" font-size="10.00">uni</text>
</g>
<!-- r7 -->
<g id="node7" class="node"><title>r7</title>
<a xlink:href="../examples/org/sdmlib/examples/studyright/Room.java" xlink:title="&lt;TABLE&gt;">
<polygon fill="none" stroke="black" points="159.103,-38 159.103,-55 266.103,-55 266.103,-38 159.103,-38"/>
<text text-anchor="start" x="190.603" y="-44.5" font-family="Arial" font-size="10.00"> </text>
<text text-anchor="start" x="194.603" y="-44.5" font-family="Arial" font-size="10.00">r7 :Room</text>
</a>
<polygon fill="none" stroke="black" points="159.103,-4 159.103,-38 266.103,-38 266.103,-4 159.103,-4"/>
<text text-anchor="start" x="164.103" y="-26" font-family="Arial" font-size="10.00">roomNo = &quot;ProgMeth&quot;</text>
<text text-anchor="start" x="164.103" y="-12" font-family="Arial" font-size="10.00">credits = 42</text>
</g>
<!-- u1&#45;&#45;r7 -->
<g id="edge14" class="edge"><title>u1&#45;&#45;r7</title>
<path fill="none" stroke="black" d="M188.881,-618.352C202.574,-608.878 216.851,-596.573 226.103,-582 266.795,-517.898 262.103,-490.927 262.103,-415 262.103,-415 262.103,-415 262.103,-221 262.103,-162.162 239.4,-96.3488 224.591,-59.6758"/>
<text text-anchor="middle" x="231.837" y="-64.0672" font-family="Arial" font-size="10.00">rooms</text>
<text text-anchor="middle" x="193.822" y="-607.158" font-family="Arial" font-size="10.00">uni</text>
</g>
<!-- s8 -->
<g id="node8" class="node"><title>s8</title>
<a xlink:href="../examples/org/sdmlib/examples/studyright/Student.java" xlink:title="&lt;TABLE&gt;">
<polygon fill="none" stroke="black" points="298.103,-560 298.103,-577 374.103,-577 374.103,-560 298.103,-560"/>
<text text-anchor="start" x="308.603" y="-566.5" font-family="Arial" font-size="10.00"> </text>
<text text-anchor="start" x="312.603" y="-566.5" font-family="Arial" font-size="10.00">s8 :Student</text>
</a>
<polygon fill="none" stroke="black" points="298.103,-484 298.103,-560 374.103,-560 374.103,-484 298.103,-484"/>
<text text-anchor="start" x="303.103" y="-548" font-family="Arial" font-size="10.00">name = &quot;Nina&quot;</text>
<text text-anchor="start" x="303.103" y="-534" font-family="Arial" font-size="10.00">matrNo = 2323</text>
<text text-anchor="start" x="303.103" y="-520" font-family="Arial" font-size="10.00">credits = 0</text>
<text text-anchor="start" x="303.103" y="-506" font-family="Arial" font-size="10.00">motivation = 0</text>
<text text-anchor="start" x="303.103" y="-492" font-family="Arial" font-size="10.00">in = &quot;&quot;</text>
</g>
<!-- u1&#45;&#45;s8 -->
<g id="edge4" class="edge"><title>u1&#45;&#45;s8</title>
<path fill="none" stroke="black" d="M205.071,-618.45C227.769,-608.606 253.906,-596.011 276.103,-582 280.689,-579.105 285.307,-575.894 289.835,-572.536"/>
<text text-anchor="middle" x="285.045" y="-578.815" font-family="Arial" font-size="10.00">students</text>
<text text-anchor="middle" x="211.668" y="-608.435" font-family="Arial" font-size="10.00">uni</text>
</g>
<!-- s2&#45;&#45;r3 -->
<g id="edge16" class="edge"><title>s2&#45;&#45;r3</title>
<path fill="none" stroke="black" d="M143.028,-487.178C140.622,-472.618 137.994,-456.713 135.819,-443.547"/>
<text text-anchor="middle" x="141.466" y="-449.3" font-family="Arial" font-size="10.00">in</text>
<text text-anchor="middle" x="137.381" y="-476.425" font-family="Arial" font-size="10.00">students</text>
</g>
<!-- r3&#45;&#45;r4 -->
<g id="edge18" class="edge"><title>r3&#45;&#45;r4</title>
<path fill="none" stroke="black" d="M144.238,-384.286C149.572,-372.624 155.721,-359.182 161.048,-347.538"/>
<text text-anchor="middle" x="161.121" y="-355.038" font-family="Arial" font-size="10.00">neighbors</text>
<text text-anchor="middle" x="144.165" y="-371.786" font-family="Arial" font-size="10.00">neighbors</text>
</g>
<!-- r3&#45;&#45;r5 -->
<g id="edge20" class="edge"><title>r3&#45;&#45;r5</title>
<path fill="none" stroke="black" d="M124.227,-384.253C121.592,-372.97 118.617,-359.898 116.103,-348 109.158,-315.137 101.999,-277.231 97.3289,-251.857"/>
<text text-anchor="middle" x="103.132" y="-257.501" font-family="Arial" font-size="10.00">neighbors</text>
<text text-anchor="middle" x="118.056" y="-373.884" font-family="Arial" font-size="10.00">neighbors</text>
</g>
<!-- r4&#45;&#45;r5 -->
<g id="edge22" class="edge"><title>r4&#45;&#45;r5</title>
<path fill="none" stroke="black" d="M149.054,-288.286C138.881,-276.624 127.155,-263.182 116.997,-251.538"/>
<text text-anchor="middle" x="126.14" y="-253.09" font-family="Arial" font-size="10.00">neighbors</text>
<text text-anchor="middle" x="139.912" y="-281.735" font-family="Arial" font-size="10.00">neighbors</text>
</g>
<!-- r4&#45;&#45;r6 -->
<g id="edge24" class="edge"><title>r4&#45;&#45;r6</title>
<path fill="none" stroke="black" d="M173.244,-288.305C171.66,-262.372 167.252,-223.545 155.103,-192 150.191,-179.247 142.462,-166.44 134.903,-155.606"/>
<text text-anchor="middle" x="143.515" y="-158.187" font-family="Arial" font-size="10.00">neighbors</text>
<text text-anchor="middle" x="168.401" y="-277.056" font-family="Arial" font-size="10.00">neighbors</text>
</g>
<!-- r4&#45;&#45;r7 -->
<g id="edge26" class="edge"><title>r4&#45;&#45;r7</title>
<path fill="none" stroke="black" d="M177.92,-288.268C185.204,-233.449 201.006,-114.517 208.288,-59.7131"/>
<text text-anchor="middle" x="211.283" y="-66.7539" font-family="Arial" font-size="10.00">neighbors</text>
<text text-anchor="middle" x="174.924" y="-276.227" font-family="Arial" font-size="10.00">neighbors</text>
</g>
<!-- r5&#45;&#45;r6 -->
<g id="edge28" class="edge"><title>r5&#45;&#45;r6</title>
<path fill="none" stroke="black" d="M98.2119,-192.286C100.693,-180.624 103.553,-167.182 106.031,-155.538"/>
<text text-anchor="middle" x="108.278" y="-162.782" font-family="Arial" font-size="10.00">neighbors</text>
<text text-anchor="middle" x="95.9643" y="-180.042" font-family="Arial" font-size="10.00">neighbors</text>
</g>
<!-- r6&#45;&#45;r7 -->
<g id="edge30" class="edge"><title>r6&#45;&#45;r7</title>
<path fill="none" stroke="black" d="M142.649,-96.2861C155.056,-84.624 169.356,-71.1822 181.743,-59.538"/>
<text text-anchor="middle" x="178.034" y="-66.3247" font-family="Arial" font-size="10.00">neighbors</text>
<text text-anchor="middle" x="146.358" y="-84.4994" font-family="Arial" font-size="10.00">neighbors</text>
</g>
</g>
</svg>
