<?xml version="1.0" encoding="UTF-8" standalone="no"?>
<!DOCTYPE svg PUBLIC "-//W3C//DTD SVG 1.1//EN"
 "http://www.w3.org/Graphics/SVG/1.1/DTD/svg11.dtd">
<!-- Generated by graphviz version 2.28.0 (20110507.0327)
 -->
<!-- Title: ObjectDiagram Pages: 1 -->
<svg width="1319pt" height="1118pt"
 viewBox="0.00 0.00 1318.91 1118.00" xmlns="http://www.w3.org/2000/svg" xmlns:xlink="http://www.w3.org/1999/xlink">
<g id="graph1" class="graph" transform="scale(1 1) rotate(0) translate(4 1114)">
<title>ObjectDiagram</title>
<polygon fill="white" stroke="white" points="-4,5 -4,-1114 1315.91,-1114 1315.91,5 -4,5"/>
<!-- t9 -->
<g id="node1" class="node"><title>t9</title>
<a xlink:href="../../SDMLib/src/org/sdmlib/models/transformations/Template.java" xlink:title="&lt;TABLE&gt;">
<polygon fill="none" stroke="black" points="308.91,-1088 308.91,-1105 807.91,-1105 807.91,-1088 308.91,-1088"/>
<text text-anchor="start" x="528.91" y="-1094.5" font-family="Arial" font-size="10.00"> </text>
<text text-anchor="start" x="532.91" y="-1094.5" font-family="Arial" font-size="10.00">t9 :Template</text>
</a>
<polygon fill="none" stroke="black" points="308.91,-970 308.91,-1088 807.91,-1088 807.91,-970 308.91,-970"/>
<text text-anchor="start" x="313.91" y="-1076" font-family="Arial" font-size="10.00">templateText = &quot;The example University has 99 rooms and 88 students: roomList The students are: studentList &quot;</text>
<text text-anchor="start" x="313.91" y="-1062" font-family="Arial" font-size="10.00">expandedText = &quot;&quot;</text>
<text text-anchor="start" x="313.91" y="-1048" font-family="Arial" font-size="10.00">modelClassName = &quot;&quot;</text>
<text text-anchor="start" x="313.91" y="-1034" font-family="Arial" font-size="10.00">listStart = &quot;&quot;</text>
<text text-anchor="start" x="313.91" y="-1020" font-family="Arial" font-size="10.00">listSeparator = &quot;&quot;</text>
<text text-anchor="start" x="313.91" y="-1006" font-family="Arial" font-size="10.00">listEnd = &quot;&quot;</text>
<text text-anchor="start" x="313.91" y="-992" font-family="Arial" font-size="10.00">chooser = &quot;&quot;</text>
<text text-anchor="start" x="313.91" y="-978" font-family="Arial" font-size="10.00">parent = &quot;&quot;</text>
</g>
<!-- u1 -->
<g id="node2" class="node"><title>u1</title>
<a xlink:href="../examples/org/sdmlib/examples/studyright/University.java" xlink:title="&lt;TABLE&gt;">
<polygon fill="none" stroke="black" points="100.91,-880 100.91,-897 203.91,-897 203.91,-880 100.91,-880"/>
<text text-anchor="start" x="120.91" y="-886.5" font-family="Arial" font-size="10.00"> </text>
<text text-anchor="start" x="124.91" y="-886.5" font-family="Arial" font-size="10.00">u1 :University</text>
</a>
<polygon fill="none" stroke="black" points="100.91,-860 100.91,-880 203.91,-880 203.91,-860 100.91,-860"/>
<text text-anchor="start" x="105.91" y="-868" font-family="Arial" font-size="10.00">name = &quot;StudyRight&quot;</text>
</g>
<!-- t9&#45;&#45;u1 -->
<g id="edge2" class="edge"><title>t9&#45;&#45;u1</title>
<path fill="none" stroke="black" d="M303.262,-966.39C274.59,-955.518 246.247,-943.388 219.91,-930 204.758,-922.297 189.375,-911.309 177.083,-901.594"/>
<text text-anchor="middle" x="186.827" y="-901.339" font-family="Arial" font-size="10.00">modelObject</text>
</g>
<!-- p10 -->
<g id="node10" class="node"><title>p10</title>
<a xlink:href="../../SDMLib/src/org/sdmlib/models/transformations/PlaceHolderDescription.java" xlink:title="&lt;TABLE&gt;">
<polygon fill="none" stroke="black" points="237.91,-908 237.91,-925 372.91,-925 372.91,-908 237.91,-908"/>
<text text-anchor="start" x="241.41" y="-914.5" font-family="Arial" font-size="10.00"> </text>
<text text-anchor="start" x="245.41" y="-914.5" font-family="Arial" font-size="10.00">p10 :PlaceHolderDescription</text>
</a>
<polygon fill="none" stroke="black" points="237.91,-832 237.91,-908 372.91,-908 372.91,-832 237.91,-832"/>
<text text-anchor="start" x="242.91" y="-896" font-family="Arial" font-size="10.00">textFragment = &quot;example&quot;</text>
<text text-anchor="start" x="242.91" y="-882" font-family="Arial" font-size="10.00">value = &quot;&quot;</text>
<text text-anchor="start" x="242.91" y="-868" font-family="Arial" font-size="10.00">attrName = &quot;name&quot;</text>
<text text-anchor="start" x="242.91" y="-854" font-family="Arial" font-size="10.00">isKeyAttribute = &quot;false&quot;</text>
<text text-anchor="start" x="242.91" y="-840" font-family="Arial" font-size="10.00">subTemplate = &quot;&quot;</text>
</g>
<!-- t9&#45;&#45;p10 -->
<g id="edge4" class="edge"><title>t9&#45;&#45;p10</title>
<path fill="none" stroke="black" d="M443.992,-966.308C422.483,-952.96 400.483,-939.308 380.513,-926.916"/>
<text text-anchor="middle" x="390.443" y="-925.604" font-family="Arial" font-size="10.00">placeholders</text>
<text text-anchor="middle" x="434.063" y="-962.62" font-family="Arial" font-size="10.00">owners</text>
</g>
<!-- p11 -->
<g id="node11" class="node"><title>p11</title>
<a xlink:href="../../SDMLib/src/org/sdmlib/models/transformations/PlaceHolderDescription.java" xlink:title="&lt;TABLE&gt;">
<polygon fill="none" stroke="black" points="406.91,-908 406.91,-925 541.91,-925 541.91,-908 406.91,-908"/>
<text text-anchor="start" x="410.41" y="-914.5" font-family="Arial" font-size="10.00"> </text>
<text text-anchor="start" x="414.41" y="-914.5" font-family="Arial" font-size="10.00">p11 :PlaceHolderDescription</text>
</a>
<polygon fill="none" stroke="black" points="406.91,-832 406.91,-908 541.91,-908 541.91,-832 406.91,-832"/>
<text text-anchor="start" x="411.91" y="-896" font-family="Arial" font-size="10.00">textFragment = &quot;99&quot;</text>
<text text-anchor="start" x="411.91" y="-882" font-family="Arial" font-size="10.00">value = &quot;&quot;</text>
<text text-anchor="start" x="411.91" y="-868" font-family="Arial" font-size="10.00">attrName = &quot;rooms.size&quot;</text>
<text text-anchor="start" x="411.91" y="-854" font-family="Arial" font-size="10.00">isKeyAttribute = &quot;false&quot;</text>
<text text-anchor="start" x="411.91" y="-840" font-family="Arial" font-size="10.00">subTemplate = &quot;&quot;</text>
</g>
<!-- t9&#45;&#45;p11 -->
<g id="edge6" class="edge"><title>t9&#45;&#45;p11</title>
<path fill="none" stroke="black" d="M520.088,-966.308C513.469,-953.937 506.71,-941.304 500.478,-929.656"/>
<text text-anchor="middle" x="508.48" y="-933.153" font-family="Arial" font-size="10.00">placeholders</text>
<text text-anchor="middle" x="512.086" y="-957.81" font-family="Arial" font-size="10.00">owners</text>
</g>
<!-- p12 -->
<g id="node12" class="node"><title>p12</title>
<a xlink:href="../../SDMLib/src/org/sdmlib/models/transformations/PlaceHolderDescription.java" xlink:title="&lt;TABLE&gt;">
<polygon fill="none" stroke="black" points="575.91,-908 575.91,-925 710.91,-925 710.91,-908 575.91,-908"/>
<text text-anchor="start" x="579.41" y="-914.5" font-family="Arial" font-size="10.00"> </text>
<text text-anchor="start" x="583.41" y="-914.5" font-family="Arial" font-size="10.00">p12 :PlaceHolderDescription</text>
</a>
<polygon fill="none" stroke="black" points="575.91,-832 575.91,-908 710.91,-908 710.91,-832 575.91,-832"/>
<text text-anchor="start" x="580.91" y="-896" font-family="Arial" font-size="10.00">textFragment = &quot;88&quot;</text>
<text text-anchor="start" x="580.91" y="-882" font-family="Arial" font-size="10.00">value = &quot;&quot;</text>
<text text-anchor="start" x="580.91" y="-868" font-family="Arial" font-size="10.00">attrName = &quot;students.size&quot;</text>
<text text-anchor="start" x="580.91" y="-854" font-family="Arial" font-size="10.00">isKeyAttribute = &quot;false&quot;</text>
<text text-anchor="start" x="580.91" y="-840" font-family="Arial" font-size="10.00">subTemplate = &quot;&quot;</text>
</g>
<!-- t9&#45;&#45;p12 -->
<g id="edge8" class="edge"><title>t9&#45;&#45;p12</title>
<path fill="none" stroke="black" d="M596.183,-966.308C602.881,-953.937 609.72,-941.304 616.027,-929.656"/>
<text text-anchor="middle" x="615.428" y="-937.138" font-family="Arial" font-size="10.00">placeholders</text>
<text text-anchor="middle" x="596.782" y="-953.826" font-family="Arial" font-size="10.00">owners</text>
</g>
<!-- p13 -->
<g id="node13" class="node"><title>p13</title>
<a xlink:href="../../SDMLib/src/org/sdmlib/models/transformations/PlaceHolderDescription.java" xlink:title="&lt;TABLE&gt;">
<polygon fill="none" stroke="black" points="744.91,-901 744.91,-918 879.91,-918 879.91,-901 744.91,-901"/>
<text text-anchor="start" x="748.41" y="-907.5" font-family="Arial" font-size="10.00"> </text>
<text text-anchor="start" x="752.41" y="-907.5" font-family="Arial" font-size="10.00">p13 :PlaceHolderDescription</text>
</a>
<polygon fill="none" stroke="black" points="744.91,-839 744.91,-901 879.91,-901 879.91,-839 744.91,-839"/>
<text text-anchor="start" x="749.91" y="-889" font-family="Arial" font-size="10.00">textFragment = &quot;roomList&quot;</text>
<text text-anchor="start" x="749.91" y="-875" font-family="Arial" font-size="10.00">value = &quot;&quot;</text>
<text text-anchor="start" x="749.91" y="-861" font-family="Arial" font-size="10.00">attrName = &quot;rooms&quot;</text>
<text text-anchor="start" x="749.91" y="-847" font-family="Arial" font-size="10.00">isKeyAttribute = &quot;false&quot;</text>
</g>
<!-- t9&#45;&#45;p13 -->
<g id="edge10" class="edge"><title>t9&#45;&#45;p13</title>
<path fill="none" stroke="black" d="M672.279,-966.308C696.375,-951.413 721.085,-936.14 742.89,-922.662"/>
<text text-anchor="middle" x="737.403" y="-928.522" font-family="Arial" font-size="10.00">placeholders</text>
<text text-anchor="middle" x="677.766" y="-955.448" font-family="Arial" font-size="10.00">owners</text>
</g>
<!-- p20 -->
<g id="node20" class="node"><title>p20</title>
<a xlink:href="../../SDMLib/src/org/sdmlib/models/transformations/PlaceHolderDescription.java" xlink:title="&lt;TABLE&gt;">
<polygon fill="none" stroke="black" points="914.91,-901 914.91,-918 1051.91,-918 1051.91,-901 914.91,-901"/>
<text text-anchor="start" x="919.41" y="-907.5" font-family="Arial" font-size="10.00"> </text>
<text text-anchor="start" x="923.41" y="-907.5" font-family="Arial" font-size="10.00">p20 :PlaceHolderDescription</text>
</a>
<polygon fill="none" stroke="black" points="914.91,-839 914.91,-901 1051.91,-901 1051.91,-839 914.91,-839"/>
<text text-anchor="start" x="919.91" y="-889" font-family="Arial" font-size="10.00">textFragment = &quot;studentList&quot;</text>
<text text-anchor="start" x="919.91" y="-875" font-family="Arial" font-size="10.00">value = &quot;&quot;</text>
<text text-anchor="start" x="919.91" y="-861" font-family="Arial" font-size="10.00">attrName = &quot;students&quot;</text>
<text text-anchor="start" x="919.91" y="-847" font-family="Arial" font-size="10.00">isKeyAttribute = &quot;false&quot;</text>
</g>
<!-- t9&#45;&#45;p20 -->
<g id="edge12" class="edge"><title>t9&#45;&#45;p20</title>
<path fill="none" stroke="black" d="M802.563,-966.462C834.361,-955.287 866.187,-943.064 895.91,-930 901.014,-927.757 906.201,-925.293 911.371,-922.699"/>
<text text-anchor="middle" x="905.148" y="-928.028" font-family="Arial" font-size="10.00">placeholders</text>
<text text-anchor="middle" x="809.691" y="-956.949" font-family="Arial" font-size="10.00">owners</text>
</g>
<!-- s2 -->
<g id="node3" class="node"><title>s2</title>
<a xlink:href="../examples/org/sdmlib/examples/studyright/Student.java" xlink:title="&lt;TABLE&gt;">
<polygon fill="none" stroke="black" points="113.91,-742 113.91,-759 189.91,-759 189.91,-742 113.91,-742"/>
<text text-anchor="start" x="124.41" y="-748.5" font-family="Arial" font-size="10.00"> </text>
<text text-anchor="start" x="128.41" y="-748.5" font-family="Arial" font-size="10.00">s2 :Student</text>
</a>
<polygon fill="none" stroke="black" points="113.91,-680 113.91,-742 189.91,-742 189.91,-680 113.91,-680"/>
<text text-anchor="start" x="118.91" y="-730" font-family="Arial" font-size="10.00">name = &quot;Tom&quot;</text>
<text text-anchor="start" x="118.91" y="-716" font-family="Arial" font-size="10.00">matrNo = 4242</text>
<text text-anchor="start" x="118.91" y="-702" font-family="Arial" font-size="10.00">credits = 0</text>
<text text-anchor="start" x="118.91" y="-688" font-family="Arial" font-size="10.00">motivation = 0</text>
</g>
<!-- u1&#45;&#45;s2 -->
<g id="edge14" class="edge"><title>u1&#45;&#45;s2</title>
<path fill="none" stroke="black" d="M151.91,-856.499C151.91,-832.732 151.91,-793.842 151.91,-763.808"/>
<text text-anchor="middle" x="156.137" y="-770.371" font-family="Arial" font-size="10.00">students</text>
<text text-anchor="middle" x="147.684" y="-844.936" font-family="Arial" font-size="10.00">uni</text>
</g>
<!-- r3 -->
<g id="node4" class="node"><title>r3</title>
<a xlink:href="../examples/org/sdmlib/examples/studyright/Room.java" xlink:title="&lt;TABLE&gt;">
<polygon fill="none" stroke="black" points="92.9104,-569 92.9104,-586 179.91,-586 179.91,-569 92.9104,-569"/>
<text text-anchor="start" x="114.41" y="-575.5" font-family="Arial" font-size="10.00"> </text>
<text text-anchor="start" x="118.41" y="-575.5" font-family="Arial" font-size="10.00">r3 :Room</text>
</a>
<polygon fill="none" stroke="black" points="92.9104,-535 92.9104,-569 179.91,-569 179.91,-535 92.9104,-535"/>
<text text-anchor="start" x="97.9104" y="-557" font-family="Arial" font-size="10.00">roomNo = &quot;math&quot;</text>
<text text-anchor="start" x="97.9104" y="-543" font-family="Arial" font-size="10.00">credits = 42</text>
</g>
<!-- u1&#45;&#45;r3 -->
<g id="edge18" class="edge"><title>u1&#45;&#45;r3</title>
<path fill="none" stroke="black" d="M133.106,-856.396C120.124,-839.973 103.974,-816.155 96.9104,-792 78.9475,-730.573 83.389,-710.555 96.9104,-648 101.24,-627.97 110.64,-606.997 119.126,-590.776"/>
<text text-anchor="middle" x="118.748" y="-598.269" font-family="Arial" font-size="10.00">rooms</text>
<text text-anchor="middle" x="124.218" y="-849.314" font-family="Arial" font-size="10.00">uni</text>
</g>
<!-- r4 -->
<g id="node5" class="node"><title>r4</title>
<a xlink:href="../examples/org/sdmlib/examples/studyright/Room.java" xlink:title="&lt;TABLE&gt;">
<polygon fill="none" stroke="black" points="141.91,-410 141.91,-427 222.91,-427 222.91,-410 141.91,-410"/>
<text text-anchor="start" x="160.41" y="-416.5" font-family="Arial" font-size="10.00"> </text>
<text text-anchor="start" x="164.41" y="-416.5" font-family="Arial" font-size="10.00">r4 :Room</text>
</a>
<polygon fill="none" stroke="black" points="141.91,-376 141.91,-410 222.91,-410 222.91,-376 141.91,-376"/>
<text text-anchor="start" x="146.91" y="-398" font-family="Arial" font-size="10.00">roomNo = &quot;arts&quot;</text>
<text text-anchor="start" x="146.91" y="-384" font-family="Arial" font-size="10.00">credits = 23</text>
</g>
<!-- u1&#45;&#45;r4 -->
<g id="edge20" class="edge"><title>u1&#45;&#45;r4</title>
<path fill="none" stroke="black" d="M177.575,-856.486C189.851,-846.903 205.079,-836.001 219.91,-828 260.382,-806.168 290.654,-829.751 316.91,-792 399.362,-673.452 267.641,-499.789 208.403,-431.799"/>
<text text-anchor="middle" x="217.468" y="-433.521" font-family="Arial" font-size="10.00">rooms</text>
<text text-anchor="middle" x="182.164" y="-845.101" font-family="Arial" font-size="10.00">uni</text>
</g>
<!-- r5 -->
<g id="node6" class="node"><title>r5</title>
<a xlink:href="../examples/org/sdmlib/examples/studyright/Room.java" xlink:title="&lt;TABLE&gt;">
<polygon fill="none" stroke="black" points="53.9104,-251 53.9104,-268 145.91,-268 145.91,-251 53.9104,-251"/>
<text text-anchor="start" x="77.9104" y="-257.5" font-family="Arial" font-size="10.00"> </text>
<text text-anchor="start" x="81.9104" y="-257.5" font-family="Arial" font-size="10.00">r5 :Room</text>
</a>
<polygon fill="none" stroke="black" points="53.9104,-217 53.9104,-251 145.91,-251 145.91,-217 53.9104,-217"/>
<text text-anchor="start" x="58.9104" y="-239" font-family="Arial" font-size="10.00">roomNo = &quot;sports&quot;</text>
<text text-anchor="start" x="58.9104" y="-225" font-family="Arial" font-size="10.00">credits = 23</text>
</g>
<!-- u1&#45;&#45;r5 -->
<g id="edge22" class="edge"><title>u1&#45;&#45;r5</title>
<path fill="none" stroke="black" d="M127.334,-856.217C111.188,-840.237 91.3628,-817.034 81.9104,-792 11.2982,-604.987 68.6466,-356.036 91.536,-272.608"/>
<text text-anchor="middle" x="93.346" y="-279.942" font-family="Arial" font-size="10.00">rooms</text>
<text text-anchor="middle" x="117.96" y="-850.235" font-family="Arial" font-size="10.00">uni</text>
</g>
<!-- r6 -->
<g id="node7" class="node"><title>r6</title>
<a xlink:href="../examples/org/sdmlib/examples/studyright/Room.java" xlink:title="&lt;TABLE&gt;">
<polygon fill="none" stroke="black" points="75.9104,-134 75.9104,-151 164.91,-151 164.91,-134 75.9104,-134"/>
<text text-anchor="start" x="98.4104" y="-140.5" font-family="Arial" font-size="10.00"> </text>
<text text-anchor="start" x="102.41" y="-140.5" font-family="Arial" font-size="10.00">r6 :Room</text>
</a>
<polygon fill="none" stroke="black" points="75.9104,-100 75.9104,-134 164.91,-134 164.91,-100 75.9104,-100"/>
<text text-anchor="start" x="80.9104" y="-122" font-family="Arial" font-size="10.00">roomNo = &quot;exam&quot;</text>
<text text-anchor="start" x="80.9104" y="-108" font-family="Arial" font-size="10.00">credits = 0</text>
</g>
<!-- u1&#45;&#45;r6 -->
<g id="edge24" class="edge"><title>u1&#45;&#45;r6</title>
<path fill="none" stroke="black" d="M114.536,-856.383C91.7544,-841.25 64.0146,-818.95 47.9104,-792 -5.56351,-702.513 1.91038,-666.247 1.91038,-562 1.91038,-562 1.91038,-562 1.91038,-401 1.91038,-306.818 -11.2028,-272.966 36.9104,-192 45.3253,-177.839 58.082,-165.602 71.0875,-155.685"/>
<text text-anchor="middle" x="66.5546" y="-162.099" font-family="Arial" font-size="10.00">rooms</text>
<text text-anchor="middle" x="104.668" y="-852.267" font-family="Arial" font-size="10.00">uni</text>
</g>
<!-- r7 -->
<g id="node8" class="node"><title>r7</title>
<a xlink:href="../examples/org/sdmlib/examples/studyright/Room.java" xlink:title="&lt;TABLE&gt;">
<polygon fill="none" stroke="black" points="166.91,-38 166.91,-55 273.91,-55 273.91,-38 166.91,-38"/>
<text text-anchor="start" x="198.41" y="-44.5" font-family="Arial" font-size="10.00"> </text>
<text text-anchor="start" x="202.41" y="-44.5" font-family="Arial" font-size="10.00">r7 :Room</text>
</a>
<polygon fill="none" stroke="black" points="166.91,-4 166.91,-38 273.91,-38 273.91,-4 166.91,-4"/>
<text text-anchor="start" x="171.91" y="-26" font-family="Arial" font-size="10.00">roomNo = &quot;ProgMeth&quot;</text>
<text text-anchor="start" x="171.91" y="-12" font-family="Arial" font-size="10.00">credits = 42</text>
</g>
<!-- u1&#45;&#45;r7 -->
<g id="edge26" class="edge"><title>u1&#45;&#45;r7</title>
<path fill="none" stroke="black" d="M176.677,-856.479C189.001,-846.663 204.527,-835.568 219.91,-828 271.786,-802.478 307.317,-835.923 344.91,-792 411.906,-713.724 373.91,-665.032 373.91,-562 373.91,-562 373.91,-562 373.91,-242 373.91,-164.45 305.198,-96.3573 259.569,-59.6892"/>
<text text-anchor="middle" x="269.236" y="-59.7499" font-family="Arial" font-size="10.00">rooms</text>
<text text-anchor="middle" x="181.191" y="-845.056" font-family="Arial" font-size="10.00">uni</text>
</g>
<!-- s8 -->
<g id="node9" class="node"><title>s8</title>
<a xlink:href="../examples/org/sdmlib/examples/studyright/Student.java" xlink:title="&lt;TABLE&gt;">
<polygon fill="none" stroke="black" points="223.91,-749 223.91,-766 299.91,-766 299.91,-749 223.91,-749"/>
<text text-anchor="start" x="234.41" y="-755.5" font-family="Arial" font-size="10.00"> </text>
<text text-anchor="start" x="238.41" y="-755.5" font-family="Arial" font-size="10.00">s8 :Student</text>
</a>
<polygon fill="none" stroke="black" points="223.91,-673 223.91,-749 299.91,-749 299.91,-673 223.91,-673"/>
<text text-anchor="start" x="228.91" y="-737" font-family="Arial" font-size="10.00">name = &quot;Nina&quot;</text>
<text text-anchor="start" x="228.91" y="-723" font-family="Arial" font-size="10.00">matrNo = 2323</text>
<text text-anchor="start" x="228.91" y="-709" font-family="Arial" font-size="10.00">credits = 0</text>
<text text-anchor="start" x="228.91" y="-695" font-family="Arial" font-size="10.00">motivation = 0</text>
<text text-anchor="start" x="228.91" y="-681" font-family="Arial" font-size="10.00">in = &quot;&quot;</text>
</g>
<!-- u1&#45;&#45;s8 -->
<g id="edge16" class="edge"><title>u1&#45;&#45;s8</title>
<path fill="none" stroke="black" d="M166.975,-856.499C182.391,-834.496 206.889,-799.53 227.138,-770.63"/>
<text text-anchor="middle" x="225.398" y="-777.978" font-family="Arial" font-size="10.00">students</text>
<text text-anchor="middle" x="168.714" y="-844.151" font-family="Arial" font-size="10.00">uni</text>
</g>
<!-- s2&#45;&#45;r3 -->
<g id="edge28" class="edge"><title>s2&#45;&#45;r3</title>
<path fill="none" stroke="black" d="M147.538,-676.099C144.781,-649.043 141.294,-614.83 138.861,-590.956"/>
<text text-anchor="middle" x="143.985" y="-597.044" font-family="Arial" font-size="10.00">in</text>
<text text-anchor="middle" x="142.415" y="-665.011" font-family="Arial" font-size="10.00">students</text>
</g>
<!-- r3&#45;&#45;r4 -->
<g id="edge30" class="edge"><title>r3&#45;&#45;r4</title>
<path fill="none" stroke="black" d="M144.347,-531.204C152.647,-502.876 165.245,-459.878 173.527,-431.614"/>
<text text-anchor="middle" x="175.034" y="-438.999" font-family="Arial" font-size="10.00">neighbors</text>
<text text-anchor="middle" x="142.84" y="-518.818" font-family="Arial" font-size="10.00">neighbors</text>
</g>
<!-- r3&#45;&#45;r5 -->
<g id="edge32" class="edge"><title>r3&#45;&#45;r5</title>
<path fill="none" stroke="black" d="M131.662,-531.366C129.245,-514.654 126.245,-493.154 123.91,-474 115.093,-401.668 106.714,-316.289 102.585,-272.722"/>
<text text-anchor="middle" x="107.653" y="-278.842" font-family="Arial" font-size="10.00">neighbors</text>
<text text-anchor="middle" x="126.188" y="-520.497" font-family="Arial" font-size="10.00">neighbors</text>
</g>
<!-- r4&#45;&#45;r5 -->
<g id="edge34" class="edge"><title>r4&#45;&#45;r5</title>
<path fill="none" stroke="black" d="M166.87,-372.204C152.075,-343.876 129.618,-300.878 114.855,-272.614"/>
<text text-anchor="middle" x="122.797" y="-276.191" font-family="Arial" font-size="10.00">neighbors</text>
<text text-anchor="middle" x="158.929" y="-363.627" font-family="Arial" font-size="10.00">neighbors</text>
</g>
<!-- r4&#45;&#45;r6 -->
<g id="edge36" class="edge"><title>r4&#45;&#45;r6</title>
<path fill="none" stroke="black" d="M183.65,-372.352C185.193,-331.2 184.509,-253.537 162.91,-192 158.429,-179.233 150.888,-166.522 143.361,-155.771"/>
<text text-anchor="middle" x="151.977" y="-158.347" font-family="Arial" font-size="10.00">neighbors</text>
<text text-anchor="middle" x="179.681" y="-360.673" font-family="Arial" font-size="10.00">neighbors</text>
</g>
<!-- r4&#45;&#45;r7 -->
<g id="edge38" class="edge"><title>r4&#45;&#45;r7</title>
<path fill="none" stroke="black" d="M184.861,-372.275C191.949,-303.254 209.875,-128.709 216.962,-59.7071"/>
<text text-anchor="middle" x="220.24" y="-66.6545" font-family="Arial" font-size="10.00">neighbors</text>
<text text-anchor="middle" x="181.582" y="-360.327" font-family="Arial" font-size="10.00">neighbors</text>
</g>
<!-- r5&#45;&#45;r6 -->
<g id="edge40" class="edge"><title>r5&#45;&#45;r6</title>
<path fill="none" stroke="black" d="M104.906,-213.277C107.96,-195.714 111.854,-173.324 114.909,-155.755"/>
<text text-anchor="middle" x="117.52" y="-162.908" font-family="Arial" font-size="10.00">neighbors</text>
<text text-anchor="middle" x="102.295" y="-201.124" font-family="Arial" font-size="10.00">neighbors</text>
</g>
<!-- r6&#45;&#45;r7 -->
<g id="edge42" class="edge"><title>r6&#45;&#45;r7</title>
<path fill="none" stroke="black" d="M150.457,-96.2861C162.864,-84.624 177.163,-71.1822 189.551,-59.538"/>
<text text-anchor="middle" x="185.842" y="-66.3247" font-family="Arial" font-size="10.00">neighbors</text>
<text text-anchor="middle" x="154.166" y="-84.4994" font-family="Arial" font-size="10.00">neighbors</text>
</g>
<!-- t14 -->
<g id="node14" class="node"><title>t14</title>
<a xlink:href="../../SDMLib/src/org/sdmlib/models/transformations/Template.java" xlink:title="&lt;TABLE&gt;">
<polygon fill="none" stroke="black" points="541.91,-770 541.91,-787 915.91,-787 915.91,-770 541.91,-770"/>
<text text-anchor="start" x="696.91" y="-776.5" font-family="Arial" font-size="10.00"> </text>
<text text-anchor="start" x="700.91" y="-776.5" font-family="Arial" font-size="10.00">t14 :Template</text>
</a>
<polygon fill="none" stroke="black" points="541.91,-652 541.91,-770 915.91,-770 915.91,-652 541.91,-652"/>
<text text-anchor="start" x="546.91" y="-758" font-family="Arial" font-size="10.00">templateText = &quot; &#45; The xy room has 42 credits. It is connected to rooms: neighbors&quot;</text>
<text text-anchor="start" x="546.91" y="-744" font-family="Arial" font-size="10.00">expandedText = &quot;&quot;</text>
<text text-anchor="start" x="546.91" y="-730" font-family="Arial" font-size="10.00">modelObject = &quot;&quot;</text>
<text text-anchor="start" x="546.91" y="-716" font-family="Arial" font-size="10.00">modelClassName = &quot;&quot;</text>
<text text-anchor="start" x="546.91" y="-702" font-family="Arial" font-size="10.00">listStart = &quot;&quot;</text>
<text text-anchor="start" x="546.91" y="-688" font-family="Arial" font-size="10.00">listSeparator = &quot;&quot;</text>
<text text-anchor="start" x="546.91" y="-674" font-family="Arial" font-size="10.00">listEnd = &quot;&quot;</text>
<text text-anchor="start" x="546.91" y="-660" font-family="Arial" font-size="10.00">chooser = &quot;&quot;</text>
</g>
<!-- p13&#45;&#45;t14 -->
<g id="edge44" class="edge"><title>p13&#45;&#45;t14</title>
<path fill="none" stroke="black" d="M789.23,-835.099C782.127,-821.662 774.09,-806.46 766.252,-791.635"/>
<text text-anchor="middle" x="774.224" y="-795.172" font-family="Arial" font-size="10.00">subTemplate</text>
<text text-anchor="middle" x="781.258" y="-826.562" font-family="Arial" font-size="10.00">parent</text>
</g>
<!-- p15 -->
<g id="node15" class="node"><title>p15</title>
<a xlink:href="../../SDMLib/src/org/sdmlib/models/transformations/PlaceHolderDescription.java" xlink:title="&lt;TABLE&gt;">
<polygon fill="none" stroke="black" points="830.91,-590 830.91,-607 965.91,-607 965.91,-590 830.91,-590"/>
<text text-anchor="start" x="834.41" y="-596.5" font-family="Arial" font-size="10.00"> </text>
<text text-anchor="start" x="838.41" y="-596.5" font-family="Arial" font-size="10.00">p15 :PlaceHolderDescription</text>
</a>
<polygon fill="none" stroke="black" points="830.91,-514 830.91,-590 965.91,-590 965.91,-514 830.91,-514"/>
<text text-anchor="start" x="835.91" y="-578" font-family="Arial" font-size="10.00">textFragment = &quot;xy&quot;</text>
<text text-anchor="start" x="835.91" y="-564" font-family="Arial" font-size="10.00">value = &quot;&quot;</text>
<text text-anchor="start" x="835.91" y="-550" font-family="Arial" font-size="10.00">attrName = &quot;roomNo&quot;</text>
<text text-anchor="start" x="835.91" y="-536" font-family="Arial" font-size="10.00">isKeyAttribute = &quot;false&quot;</text>
<text text-anchor="start" x="835.91" y="-522" font-family="Arial" font-size="10.00">subTemplate = &quot;&quot;</text>
</g>
<!-- t14&#45;&#45;p15 -->
<g id="edge46" class="edge"><title>t14&#45;&#45;p15</title>
<path fill="none" stroke="black" d="M805.006,-648.308C818.323,-635.937 831.921,-623.304 844.459,-611.656"/>
<text text-anchor="middle" x="840.696" y="-618.42" font-family="Arial" font-size="10.00">placeholders</text>
<text text-anchor="middle" x="808.769" y="-636.543" font-family="Arial" font-size="10.00">owners</text>
</g>
<!-- p16 -->
<g id="node16" class="node"><title>p16</title>
<a xlink:href="../../SDMLib/src/org/sdmlib/models/transformations/PlaceHolderDescription.java" xlink:title="&lt;TABLE&gt;">
<polygon fill="none" stroke="black" points="492.91,-590 492.91,-607 627.91,-607 627.91,-590 492.91,-590"/>
<text text-anchor="start" x="496.41" y="-596.5" font-family="Arial" font-size="10.00"> </text>
<text text-anchor="start" x="500.41" y="-596.5" font-family="Arial" font-size="10.00">p16 :PlaceHolderDescription</text>
</a>
<polygon fill="none" stroke="black" points="492.91,-514 492.91,-590 627.91,-590 627.91,-514 492.91,-514"/>
<text text-anchor="start" x="497.91" y="-578" font-family="Arial" font-size="10.00">textFragment = &quot;42&quot;</text>
<text text-anchor="start" x="497.91" y="-564" font-family="Arial" font-size="10.00">value = &quot;&quot;</text>
<text text-anchor="start" x="497.91" y="-550" font-family="Arial" font-size="10.00">attrName = &quot;credits&quot;</text>
<text text-anchor="start" x="497.91" y="-536" font-family="Arial" font-size="10.00">isKeyAttribute = &quot;false&quot;</text>
<text text-anchor="start" x="497.91" y="-522" font-family="Arial" font-size="10.00">subTemplate = &quot;&quot;</text>
</g>
<!-- t14&#45;&#45;p16 -->
<g id="edge48" class="edge"><title>t14&#45;&#45;p16</title>
<path fill="none" stroke="black" d="M652.815,-648.308C639.498,-635.937 625.9,-623.304 613.361,-611.656"/>
<text text-anchor="middle" x="622.878" y="-612.228" font-family="Arial" font-size="10.00">placeholders</text>
<text text-anchor="middle" x="643.299" y="-642.736" font-family="Arial" font-size="10.00">owners</text>
</g>
<!-- p17 -->
<g id="node17" class="node"><title>p17</title>
<a xlink:href="../../SDMLib/src/org/sdmlib/models/transformations/PlaceHolderDescription.java" xlink:title="&lt;TABLE&gt;">
<polygon fill="none" stroke="black" points="661.91,-583 661.91,-600 796.91,-600 796.91,-583 661.91,-583"/>
<text text-anchor="start" x="665.41" y="-589.5" font-family="Arial" font-size="10.00"> </text>
<text text-anchor="start" x="669.41" y="-589.5" font-family="Arial" font-size="10.00">p17 :PlaceHolderDescription</text>
</a>
<polygon fill="none" stroke="black" points="661.91,-521 661.91,-583 796.91,-583 796.91,-521 661.91,-521"/>
<text text-anchor="start" x="666.91" y="-571" font-family="Arial" font-size="10.00">textFragment = &quot;neighbors&quot;</text>
<text text-anchor="start" x="666.91" y="-557" font-family="Arial" font-size="10.00">value = &quot;&quot;</text>
<text text-anchor="start" x="666.91" y="-543" font-family="Arial" font-size="10.00">attrName = &quot;neighbors&quot;</text>
<text text-anchor="start" x="666.91" y="-529" font-family="Arial" font-size="10.00">isKeyAttribute = &quot;false&quot;</text>
</g>
<!-- t14&#45;&#45;p17 -->
<g id="edge50" class="edge"><title>t14&#45;&#45;p17</title>
<path fill="none" stroke="black" d="M728.91,-648.308C728.91,-633.495 728.91,-618.307 728.91,-604.883"/>
<text text-anchor="middle" x="733.137" y="-611.446" font-family="Arial" font-size="10.00">placeholders</text>
<text text-anchor="middle" x="724.684" y="-636.745" font-family="Arial" font-size="10.00">owners</text>
</g>
<!-- t18 -->
<g id="node18" class="node"><title>t18</title>
<a xlink:href="../../SDMLib/src/org/sdmlib/models/transformations/Template.java" xlink:title="&lt;TABLE&gt;">
<polygon fill="none" stroke="black" points="673.91,-452 673.91,-469 784.91,-469 784.91,-452 673.91,-452"/>
<text text-anchor="start" x="697.41" y="-458.5" font-family="Arial" font-size="10.00"> </text>
<text text-anchor="start" x="701.41" y="-458.5" font-family="Arial" font-size="10.00">t18 :Template</text>
</a>
<polygon fill="none" stroke="black" points="673.91,-334 673.91,-452 784.91,-452 784.91,-334 673.91,-334"/>
<text text-anchor="start" x="678.91" y="-440" font-family="Arial" font-size="10.00">templateText = &quot;name&quot;</text>
<text text-anchor="start" x="678.91" y="-426" font-family="Arial" font-size="10.00">expandedText = &quot;&quot;</text>
<text text-anchor="start" x="678.91" y="-412" font-family="Arial" font-size="10.00">modelObject = &quot;&quot;</text>
<text text-anchor="start" x="678.91" y="-398" font-family="Arial" font-size="10.00">modelClassName = &quot;&quot;</text>
<text text-anchor="start" x="678.91" y="-384" font-family="Arial" font-size="10.00">listStart = &quot;&quot;</text>
<text text-anchor="start" x="678.91" y="-370" font-family="Arial" font-size="10.00">listSeparator = &quot;, &quot;</text>
<text text-anchor="start" x="678.91" y="-356" font-family="Arial" font-size="10.00">listEnd = &quot;.&quot;</text>
<text text-anchor="start" x="678.91" y="-342" font-family="Arial" font-size="10.00">chooser = &quot;&quot;</text>
</g>
<!-- p17&#45;&#45;t18 -->
<g id="edge52" class="edge"><title>p17&#45;&#45;t18</title>
<path fill="none" stroke="black" d="M728.91,-517.099C728.91,-503.662 728.91,-488.46 728.91,-473.635"/>
<text text-anchor="middle" x="733.137" y="-480.198" font-family="Arial" font-size="10.00">subTemplate</text>
<text text-anchor="middle" x="724.684" y="-505.536" font-family="Arial" font-size="10.00">parent</text>
</g>
<!-- p19 -->
<g id="node19" class="node"><title>p19</title>
<a xlink:href="../../SDMLib/src/org/sdmlib/models/transformations/PlaceHolderDescription.java" xlink:title="&lt;TABLE&gt;">
<polygon fill="none" stroke="black" points="661.91,-272 661.91,-289 796.91,-289 796.91,-272 661.91,-272"/>
<text text-anchor="start" x="665.41" y="-278.5" font-family="Arial" font-size="10.00"> </text>
<text text-anchor="start" x="669.41" y="-278.5" font-family="Arial" font-size="10.00">p19 :PlaceHolderDescription</text>
</a>
<polygon fill="none" stroke="black" points="661.91,-196 661.91,-272 796.91,-272 796.91,-196 661.91,-196"/>
<text text-anchor="start" x="666.91" y="-260" font-family="Arial" font-size="10.00">textFragment = &quot;name&quot;</text>
<text text-anchor="start" x="666.91" y="-246" font-family="Arial" font-size="10.00">value = &quot;&quot;</text>
<text text-anchor="start" x="666.91" y="-232" font-family="Arial" font-size="10.00">attrName = &quot;roomNo&quot;</text>
<text text-anchor="start" x="666.91" y="-218" font-family="Arial" font-size="10.00">isKeyAttribute = &quot;false&quot;</text>
<text text-anchor="start" x="666.91" y="-204" font-family="Arial" font-size="10.00">subTemplate = &quot;&quot;</text>
</g>
<!-- t18&#45;&#45;p19 -->
<g id="edge54" class="edge"><title>t18&#45;&#45;p19</title>
<path fill="none" stroke="black" d="M728.91,-330.308C728.91,-317.937 728.91,-305.304 728.91,-293.656"/>
<text text-anchor="middle" x="733.137" y="-300.219" font-family="Arial" font-size="10.00">placeholders</text>
<text text-anchor="middle" x="724.684" y="-318.745" font-family="Arial" font-size="10.00">owners</text>
</g>
<!-- t21 -->
<g id="node21" class="node"><title>t21</title>
<a xlink:href="../../SDMLib/src/org/sdmlib/models/transformations/Template.java" xlink:title="&lt;TABLE&gt;">
<polygon fill="none" stroke="black" points="950.91,-770 950.91,-787 1183.91,-787 1183.91,-770 950.91,-770"/>
<text text-anchor="start" x="1035.41" y="-776.5" font-family="Arial" font-size="10.00"> </text>
<text text-anchor="start" x="1039.41" y="-776.5" font-family="Arial" font-size="10.00">t21 :Template</text>
</a>
<polygon fill="none" stroke="black" points="950.91,-652 950.91,-770 1183.91,-770 1183.91,-652 950.91,-652"/>
<text text-anchor="start" x="955.91" y="-758" font-family="Arial" font-size="10.00">templateText = &quot; &#45; Stud has student number 1234.&quot;</text>
<text text-anchor="start" x="955.91" y="-744" font-family="Arial" font-size="10.00">expandedText = &quot;&quot;</text>
<text text-anchor="start" x="955.91" y="-730" font-family="Arial" font-size="10.00">modelObject = &quot;&quot;</text>
<text text-anchor="start" x="955.91" y="-716" font-family="Arial" font-size="10.00">modelClassName = &quot;&quot;</text>
<text text-anchor="start" x="955.91" y="-702" font-family="Arial" font-size="10.00">listStart = &quot;&quot;</text>
<text text-anchor="start" x="955.91" y="-688" font-family="Arial" font-size="10.00">listSeparator = &quot;&quot;</text>
<text text-anchor="start" x="955.91" y="-674" font-family="Arial" font-size="10.00">listEnd = &quot;&quot;</text>
<text text-anchor="start" x="955.91" y="-660" font-family="Arial" font-size="10.00">chooser = &quot;&quot;</text>
</g>
<!-- p20&#45;&#45;t21 -->
<g id="edge56" class="edge"><title>p20&#45;&#45;t21</title>
<path fill="none" stroke="black" d="M1005.86,-835.099C1013.05,-821.662 1021.19,-806.46 1029.12,-791.635"/>
<text text-anchor="middle" x="1028.57" y="-799.12" font-family="Arial" font-size="10.00">subTemplate</text>
<text text-anchor="middle" x="1006.41" y="-822.614" font-family="Arial" font-size="10.00">parent</text>
</g>
<!-- p22 -->
<g id="node22" class="node"><title>p22</title>
<a xlink:href="../../SDMLib/src/org/sdmlib/models/transformations/PlaceHolderDescription.java" xlink:title="&lt;TABLE&gt;">
<polygon fill="none" stroke="black" points="999.91,-590 999.91,-607 1134.91,-607 1134.91,-590 999.91,-590"/>
<text text-anchor="start" x="1003.41" y="-596.5" font-family="Arial" font-size="10.00"> </text>
<text text-anchor="start" x="1007.41" y="-596.5" font-family="Arial" font-size="10.00">p22 :PlaceHolderDescription</text>
</a>
<polygon fill="none" stroke="black" points="999.91,-514 999.91,-590 1134.91,-590 1134.91,-514 999.91,-514"/>
<text text-anchor="start" x="1004.91" y="-578" font-family="Arial" font-size="10.00">textFragment = &quot;Stud&quot;</text>
<text text-anchor="start" x="1004.91" y="-564" font-family="Arial" font-size="10.00">value = &quot;&quot;</text>
<text text-anchor="start" x="1004.91" y="-550" font-family="Arial" font-size="10.00">attrName = &quot;name&quot;</text>
<text text-anchor="start" x="1004.91" y="-536" font-family="Arial" font-size="10.00">isKeyAttribute = &quot;false&quot;</text>
<text text-anchor="start" x="1004.91" y="-522" font-family="Arial" font-size="10.00">subTemplate = &quot;&quot;</text>
</g>
<!-- t21&#45;&#45;p22 -->
<g id="edge58" class="edge"><title>t21&#45;&#45;p22</title>
<path fill="none" stroke="black" d="M1066.91,-648.308C1066.91,-635.937 1066.91,-623.304 1066.91,-611.656"/>
<text text-anchor="middle" x="1071.14" y="-618.219" font-family="Arial" font-size="10.00">placeholders</text>
<text text-anchor="middle" x="1062.68" y="-636.745" font-family="Arial" font-size="10.00">owners</text>
</g>
<!-- p23 -->
<g id="node23" class="node"><title>p23</title>
<a xlink:href="../../SDMLib/src/org/sdmlib/models/transformations/PlaceHolderDescription.java" xlink:title="&lt;TABLE&gt;">
<polygon fill="none" stroke="black" points="1168.91,-590 1168.91,-607 1303.91,-607 1303.91,-590 1168.91,-590"/>
<text text-anchor="start" x="1172.41" y="-596.5" font-family="Arial" font-size="10.00"> </text>
<text text-anchor="start" x="1176.41" y="-596.5" font-family="Arial" font-size="10.00">p23 :PlaceHolderDescription</text>
</a>
<polygon fill="none" stroke="black" points="1168.91,-514 1168.91,-590 1303.91,-590 1303.91,-514 1168.91,-514"/>
<text text-anchor="start" x="1173.91" y="-578" font-family="Arial" font-size="10.00">textFragment = &quot;1234&quot;</text>
<text text-anchor="start" x="1173.91" y="-564" font-family="Arial" font-size="10.00">value = &quot;&quot;</text>
<text text-anchor="start" x="1173.91" y="-550" font-family="Arial" font-size="10.00">attrName = &quot;matrNo&quot;</text>
<text text-anchor="start" x="1173.91" y="-536" font-family="Arial" font-size="10.00">isKeyAttribute = &quot;false&quot;</text>
<text text-anchor="start" x="1173.91" y="-522" font-family="Arial" font-size="10.00">subTemplate = &quot;&quot;</text>
</g>
<!-- t21&#45;&#45;p23 -->
<g id="edge60" class="edge"><title>t21&#45;&#45;p23</title>
<path fill="none" stroke="black" d="M1143.01,-648.308C1156.32,-635.937 1169.92,-623.304 1182.46,-611.656"/>
<text text-anchor="middle" x="1178.7" y="-618.42" font-family="Arial" font-size="10.00">placeholders</text>
<text text-anchor="middle" x="1146.77" y="-636.543" font-family="Arial" font-size="10.00">owners</text>
</g>
</g>
</svg>
