<?xml version="1.0" encoding="UTF-8" standalone="no"?>
<!DOCTYPE svg PUBLIC "-//W3C//DTD SVG 1.1//EN"
 "http://www.w3.org/Graphics/SVG/1.1/DTD/svg11.dtd">
<!-- Generated by graphviz version 2.28.0 (20110507.0327)
 -->
<!-- Title: ClassDiagram Pages: 1 -->
<svg width="744pt" height="446pt"
 viewBox="0.00 0.00 743.88 446.00" xmlns="http://www.w3.org/2000/svg" xmlns:xlink="http://www.w3.org/1999/xlink">
<g id="graph1" class="graph" transform="scale(1 1) rotate(0) translate(4 442)">
<title>ClassDiagram</title>
<polygon fill="white" stroke="white" points="-4,5 -4,-442 740.881,-442 740.881,5 -4,5"/>
<!-- _ClassModel -->
<g id="node1" class="node"><title>_ClassModel</title>
<a xlink:href="../src/org/sdmlib/models/classes/ClassModel.java" xlink:title="&lt;TABLE&gt;">
<polygon fill="none" stroke="black" points="186,-374 186,-391 282,-391 282,-374 186,-374"/>
<text text-anchor="start" x="209.5" y="-380.5" font-family="Times New Roman,serif" font-size="10.00">ClassModel</text>
</a>
<polygon fill="none" stroke="black" points="186,-354 186,-374 282,-374 282,-354 186,-354"/>
<text text-anchor="start" x="191" y="-362" font-family="Times New Roman,serif" font-size="10.00">packageName :String</text>
<polygon fill="none" stroke="black" points="186,-334 186,-354 282,-354 282,-334 186,-334"/>
<text text-anchor="start" x="232.5" y="-342" font-family="Times New Roman,serif" font-size="10.00"> </text>
</g>
<!-- _Clazz -->
<g id="node2" class="node"><title>_Clazz</title>
<a xlink:href="../src/org/sdmlib/models/classes/Clazz.java" xlink:title="&lt;TABLE&gt;">
<polygon fill="none" stroke="black" points="123,-230 123,-247 206,-247 206,-230 123,-230"/>
<text text-anchor="start" x="154" y="-236.5" font-family="Times New Roman,serif" font-size="10.00">Clazz</text>
</a>
<polygon fill="none" stroke="black" points="123,-154 123,-230 206,-230 206,-154 123,-154"/>
<text text-anchor="start" x="128" y="-218" font-family="Times New Roman,serif" font-size="10.00">name :String</text>
<text text-anchor="start" x="128" y="-204" font-family="Times New Roman,serif" font-size="10.00">interfaze :boolean</text>
<text text-anchor="start" x="128" y="-190" font-family="Times New Roman,serif" font-size="10.00">external :boolean</text>
<text text-anchor="start" x="128" y="-176" font-family="Times New Roman,serif" font-size="10.00">wrapped :boolean</text>
<text text-anchor="start" x="128" y="-162" font-family="Times New Roman,serif" font-size="10.00">filePath :String</text>
<polygon fill="none" stroke="black" points="123,-134 123,-154 206,-154 206,-134 123,-134"/>
<text text-anchor="start" x="163" y="-142" font-family="Times New Roman,serif" font-size="10.00"> </text>
</g>
<!-- _ClassModel&#45;&gt;_Clazz -->
<g id="edge2" class="edge"><title>_ClassModel&#45;&gt;_Clazz</title>
<path fill="none" stroke="black" d="M220.998,-330.423C211.904,-308.338 199.478,-278.162 188.549,-251.62"/>
<text text-anchor="middle" x="195.908" y="-255.891" font-family="Times New Roman,serif" font-size="10.00">classes *</text>
<text text-anchor="middle" x="213.639" y="-321.151" font-family="Times New Roman,serif" font-size="10.00">classModel</text>
</g>
<!-- _Association -->
<g id="node5" class="node"><title>_Association</title>
<a xlink:href="../src/org/sdmlib/models/classes/Association.java" xlink:title="&lt;TABLE&gt;">
<polygon fill="none" stroke="black" points="276,-202 276,-219 332,-219 332,-202 276,-202"/>
<text text-anchor="start" x="279.5" y="-208.5" font-family="Times New Roman,serif" font-size="10.00">Association</text>
</a>
<polygon fill="none" stroke="black" points="276,-182 276,-202 332,-202 332,-182 276,-182"/>
<text text-anchor="start" x="302.5" y="-190" font-family="Times New Roman,serif" font-size="10.00"> </text>
<polygon fill="none" stroke="black" points="276,-162 276,-182 332,-182 332,-162 276,-162"/>
<text text-anchor="start" x="302.5" y="-170" font-family="Times New Roman,serif" font-size="10.00"> </text>
</g>
<!-- _ClassModel&#45;&gt;_Association -->
<g id="edge12" class="edge"><title>_ClassModel&#45;&gt;_Association</title>
<path fill="none" stroke="black" d="M247.002,-330.423C259.536,-299.984 278.399,-254.175 290.949,-223.696"/>
<text text-anchor="middle" x="291.406" y="-231.186" font-family="Times New Roman,serif" font-size="10.00">associations *</text>
<text text-anchor="middle" x="246.545" y="-317.933" font-family="Times New Roman,serif" font-size="10.00">model</text>
</g>
<!-- _Clazz&#45;&gt;_Clazz -->
<g id="edge4" class="edge"><title>_Clazz&#45;&gt;_Clazz</title>
<path fill="none" stroke="black" d="M213.377,-204.025C223.628,-202.654 231,-198.313 231,-191 231,-183.688 223.628,-179.346 213.377,-177.975"/>
<text text-anchor="middle" x="223.014" y="-172.805" font-family="Times New Roman,serif" font-size="10.00">kidClasses *</text>
<text text-anchor="middle" x="221.616" y="-195.859" font-family="Times New Roman,serif" font-size="10.00">superClass</text>
</g>
<!-- _Clazz&#45;&gt;_Clazz -->
<g id="edge6" class="edge"><title>_Clazz&#45;&gt;_Clazz</title>
<path fill="none" stroke="black" d="M213.341,-217.867C232.771,-219.221 249,-210.266 249,-191 249,-171.734 232.771,-162.779 213.341,-164.133"/>
<text text-anchor="middle" x="222.331" y="-157.254" font-family="Times New Roman,serif" font-size="10.00">kidClassesAsInterface *</text>
<text text-anchor="middle" x="222.474" y="-211.295" font-family="Times New Roman,serif" font-size="10.00">interfaces *</text>
</g>
<!-- _Attribute -->
<g id="node3" class="node"><title>_Attribute</title>
<a xlink:href="../src/org/sdmlib/models/classes/Attribute.java" xlink:title="&lt;TABLE&gt;">
<polygon fill="none" stroke="black" points="8,-58 8,-75 96,-75 96,-58 8,-58"/>
<text text-anchor="start" x="33.5" y="-64.5" font-family="Times New Roman,serif" font-size="10.00">Attribute</text>
</a>
<polygon fill="none" stroke="black" points="8,-38 8,-58 96,-58 96,-38 8,-38"/>
<text text-anchor="start" x="13" y="-46" font-family="Times New Roman,serif" font-size="10.00">initialization :String</text>
<polygon fill="none" stroke="black" points="8,-18 8,-38 96,-38 96,-18 8,-18"/>
<text text-anchor="start" x="50.5" y="-26" font-family="Times New Roman,serif" font-size="10.00"> </text>
</g>
<!-- _Clazz&#45;&gt;_Attribute -->
<g id="edge8" class="edge"><title>_Clazz&#45;&gt;_Attribute</title>
<path fill="none" stroke="black" d="M116.827,-130.191C103.196,-112.909 88.8499,-94.7204 77.1284,-79.8593"/>
<text text-anchor="middle" x="86.0593" y="-81.8581" font-family="Times New Roman,serif" font-size="10.00">attributes *</text>
<text text-anchor="middle" x="107.896" y="-123.192" font-family="Times New Roman,serif" font-size="10.00">clazz</text>
</g>
<!-- _Method -->
<g id="node4" class="node"><title>_Method</title>
<a xlink:href="../src/org/sdmlib/models/classes/Method.java" xlink:title="&lt;TABLE&gt;">
<polygon fill="none" stroke="black" points="131,-65 131,-82 216,-82 216,-65 131,-65"/>
<text text-anchor="start" x="157" y="-71.5" font-family="Times New Roman,serif" font-size="10.00">Method</text>
</a>
<polygon fill="none" stroke="black" points="131,-31 131,-65 216,-65 216,-31 131,-31"/>
<text text-anchor="start" x="136" y="-53" font-family="Times New Roman,serif" font-size="10.00">signature :String</text>
<text text-anchor="start" x="136" y="-39" font-family="Times New Roman,serif" font-size="10.00">returnType :String</text>
<polygon fill="none" stroke="black" points="131,-11 131,-31 216,-31 216,-11 131,-11"/>
<text text-anchor="start" x="172" y="-19" font-family="Times New Roman,serif" font-size="10.00"> </text>
</g>
<!-- _Clazz&#45;&gt;_Method -->
<g id="edge10" class="edge"><title>_Clazz&#45;&gt;_Method</title>
<path fill="none" stroke="black" d="M167.791,-130.191C168.723,-115.486 169.696,-100.125 170.546,-86.7156"/>
<text text-anchor="middle" x="174.191" y="-93.5279" font-family="Times New Roman,serif" font-size="10.00">methods *</text>
<text text-anchor="middle" x="164.146" y="-118.379" font-family="Times New Roman,serif" font-size="10.00">clazz</text>
</g>
<!-- _Role -->
<g id="node6" class="node"><title>_Role</title>
<a xlink:href="../src/org/sdmlib/models/classes/Role.java" xlink:title="&lt;TABLE&gt;">
<polygon fill="none" stroke="black" points="258,-72 258,-89 319,-89 319,-72 258,-72"/>
<text text-anchor="start" x="279" y="-78.5" font-family="Times New Roman,serif" font-size="10.00">Role</text>
</a>
<polygon fill="none" stroke="black" points="258,-24 258,-72 319,-72 319,-24 258,-24"/>
<text text-anchor="start" x="263" y="-60" font-family="Times New Roman,serif" font-size="10.00">name :String</text>
<text text-anchor="start" x="263" y="-46" font-family="Times New Roman,serif" font-size="10.00">card :String</text>
<text text-anchor="start" x="263" y="-32" font-family="Times New Roman,serif" font-size="10.00">kind :String</text>
<polygon fill="none" stroke="black" points="258,-4 258,-24 319,-24 319,-4 258,-4"/>
<text text-anchor="start" x="287" y="-12" font-family="Times New Roman,serif" font-size="10.00"> </text>
</g>
<!-- _Clazz&#45;&gt;_Role -->
<g id="edge14" class="edge"><title>_Clazz&#45;&gt;_Role</title>
<path fill="none" stroke="black" d="M209.553,-130.191C222.716,-114.88 236.929,-98.8569 249.62,-85.0669"/>
<text text-anchor="middle" x="246.612" y="-92.1037" font-family="Times New Roman,serif" font-size="10.00">sourceRoles *</text>
<text text-anchor="middle" x="212.272" y="-118.068" font-family="Times New Roman,serif" font-size="10.00">clazz</text>
</g>
<!-- _Clazz&#45;&gt;_Role -->
<g id="edge16" class="edge"><title>_Clazz&#45;&gt;_Role</title>
<path fill="none" stroke="black" d="M213.482,-140.734C227.19,-125.514 241.734,-108.82 254.328,-93.8414"/>
<text text-anchor="middle" x="251.711" y="-100.993" font-family="Times New Roman,serif" font-size="10.00">targetRoles *</text>
<text text-anchor="middle" x="216.39" y="-128.666" font-family="Times New Roman,serif" font-size="10.00">clazz</text>
</g>
<!-- _Association&#45;&gt;_Role -->
<g id="edge18" class="edge"><title>_Association&#45;&gt;_Role</title>
<path fill="none" stroke="black" d="M294.729,-158.486C291.472,-139.448 288.489,-114.856 286.796,-93.7083"/>
<text text-anchor="middle" x="291.773" y="-99.8822" font-family="Times New Roman,serif" font-size="10.00">source</text>
<text text-anchor="middle" x="289.084" y="-147.731" font-family="Times New Roman,serif" font-size="10.00">assoc</text>
</g>
<!-- _Association&#45;&gt;_Role -->
<g id="edge20" class="edge"><title>_Association&#45;&gt;_Role</title>
<path fill="none" stroke="black" d="M306.169,-158.486C305.136,-139.448 302.577,-114.856 299.504,-93.7083"/>
<text text-anchor="middle" x="304.951" y="-99.5946" font-family="Times New Roman,serif" font-size="10.00">target</text>
<text text-anchor="middle" x="301.404" y="-147.194" font-family="Times New Roman,serif" font-size="10.00">assoc</text>
</g>
<!-- _SymTabEntry -->
<g id="node7" class="node"><title>_SymTabEntry</title>
<a xlink:href="../src/org/sdmlib/codegen/SymTabEntry.java" xlink:title="&lt;TABLE&gt;">
<polygon fill="none" stroke="black" points="317,-416 317,-433 410,-433 410,-416 317,-416"/>
<text text-anchor="start" x="336" y="-422.5" font-family="Times New Roman,serif" font-size="10.00">SymTabEntry</text>
</a>
<polygon fill="none" stroke="black" points="317,-312 317,-416 410,-416 410,-312 317,-312"/>
<text text-anchor="start" x="322" y="-404" font-family="Times New Roman,serif" font-size="10.00">kind :String</text>
<text text-anchor="start" x="322" y="-390" font-family="Times New Roman,serif" font-size="10.00">memberName :String</text>
<text text-anchor="start" x="322" y="-376" font-family="Times New Roman,serif" font-size="10.00">type :String</text>
<text text-anchor="start" x="322" y="-362" font-family="Times New Roman,serif" font-size="10.00">startPos :int</text>
<text text-anchor="start" x="322" y="-348" font-family="Times New Roman,serif" font-size="10.00">bodyStartPos :int</text>
<text text-anchor="start" x="322" y="-334" font-family="Times New Roman,serif" font-size="10.00">endPos :int</text>
<text text-anchor="start" x="322" y="-320" font-family="Times New Roman,serif" font-size="10.00">modifiers :String</text>
<polygon fill="none" stroke="black" points="317,-292 317,-312 410,-312 410,-292 317,-292"/>
<text text-anchor="start" x="362" y="-300" font-family="Times New Roman,serif" font-size="10.00"> </text>
</g>
<!-- _LocalVarTableEntry -->
<g id="node8" class="node"><title>_LocalVarTableEntry</title>
<a xlink:href="../src/org/sdmlib/codegen/LocalVarTableEntry.java" xlink:title="&lt;TABLE&gt;">
<polygon fill="none" stroke="black" points="444,-395 444,-412 531,-412 531,-395 444,-395"/>
<text text-anchor="start" x="447.5" y="-401.5" font-family="Times New Roman,serif" font-size="10.00">LocalVarTableEntry</text>
</a>
<polygon fill="none" stroke="black" points="444,-333 444,-395 531,-395 531,-333 444,-333"/>
<text text-anchor="start" x="449" y="-383" font-family="Times New Roman,serif" font-size="10.00">name :String</text>
<text text-anchor="start" x="449" y="-369" font-family="Times New Roman,serif" font-size="10.00">type :String</text>
<text text-anchor="start" x="449" y="-355" font-family="Times New Roman,serif" font-size="10.00">startPos :int</text>
<text text-anchor="start" x="449" y="-341" font-family="Times New Roman,serif" font-size="10.00">endPos :int</text>
<polygon fill="none" stroke="black" points="444,-313 444,-333 531,-333 531,-313 444,-313"/>
<text text-anchor="start" x="486" y="-321" font-family="Times New Roman,serif" font-size="10.00"> </text>
</g>
<!-- _StatementEntry -->
<g id="node9" class="node"><title>_StatementEntry</title>
<a xlink:href="../src/org/sdmlib/codegen/StatementEntry.java" xlink:title="&lt;TABLE&gt;">
<polygon fill="none" stroke="black" points="565,-402 565,-419 694,-419 694,-402 565,-402"/>
<text text-anchor="start" x="598.5" y="-408.5" font-family="Times New Roman,serif" font-size="10.00">StatementEntry</text>
</a>
<polygon fill="none" stroke="black" points="565,-326 565,-402 694,-402 694,-326 565,-326"/>
<text text-anchor="start" x="570" y="-390" font-family="Times New Roman,serif" font-size="10.00">kind :String</text>
<text text-anchor="start" x="570" y="-376" font-family="Times New Roman,serif" font-size="10.00">tokenList :ArrayList&lt;String&gt;</text>
<text text-anchor="start" x="570" y="-362" font-family="Times New Roman,serif" font-size="10.00">assignTargetVarName :String</text>
<text text-anchor="start" x="570" y="-348" font-family="Times New Roman,serif" font-size="10.00">startPos :int</text>
<text text-anchor="start" x="570" y="-334" font-family="Times New Roman,serif" font-size="10.00">endPos :int</text>
<polygon fill="none" stroke="black" points="565,-306 565,-326 694,-326 694,-306 565,-306"/>
<text text-anchor="start" x="628" y="-314" font-family="Times New Roman,serif" font-size="10.00"> </text>
</g>
<!-- _StatementEntry&#45;&gt;_StatementEntry -->
<g id="edge22" class="edge"><title>_StatementEntry&#45;&gt;_StatementEntry</title>
<path fill="none" stroke="black" d="M701.386,-392.101C711.91,-387.481 719,-377.781 719,-363 719,-348.219 711.91,-338.519 701.386,-333.899"/>
<text text-anchor="middle" x="711.381" y="-331.706" font-family="Times New Roman,serif" font-size="10.00">bodyStats *</text>
<text text-anchor="middle" x="707.576" y="-381.746" font-family="Times New Roman,serif" font-size="10.00">parent</text>
</g>
</g>
</svg>
