<?xml version="1.0" encoding="UTF-8" standalone="no"?>
<!DOCTYPE svg PUBLIC "-//W3C//DTD SVG 1.1//EN"
 "http://www.w3.org/Graphics/SVG/1.1/DTD/svg11.dtd">
<!-- Generated by graphviz version 2.28.0 (20110507.0327)
 -->
<!-- Title: ClassDiagram Pages: 1 -->
<svg width="740pt" height="432pt"
 viewBox="0.00 0.00 740.39 432.00" xmlns="http://www.w3.org/2000/svg" xmlns:xlink="http://www.w3.org/1999/xlink">
<g id="graph1" class="graph" transform="scale(1 1) rotate(0) translate(4 428)">
<title>ClassDiagram</title>
<polygon fill="white" stroke="white" points="-4,5 -4,-428 737.385,-428 737.385,5 -4,5"/>
<!-- _ClassModel -->
<g id="node1" class="node"><title>_ClassModel</title>
<a xlink:href="../src/org/sdmlib/models/classes/ClassModel.java" xlink:title="&lt;TABLE&gt;">
<polygon fill="none" stroke="black" points="186,-360 186,-377 282,-377 282,-360 186,-360"/>
<text text-anchor="start" x="209.5" y="-366.5" font-family="Times New Roman,serif" font-size="10.00">ClassModel</text>
</a>
<polygon fill="none" stroke="black" points="186,-340 186,-360 282,-360 282,-340 186,-340"/>
<text text-anchor="start" x="191" y="-348" font-family="Times New Roman,serif" font-size="10.00">packageName :String</text>
<polygon fill="none" stroke="black" points="186,-320 186,-340 282,-340 282,-320 186,-320"/>
<text text-anchor="start" x="232.5" y="-328" font-family="Times New Roman,serif" font-size="10.00"> </text>
</g>
<!-- _Clazz -->
<g id="node2" class="node"><title>_Clazz</title>
<a xlink:href="../src/org/sdmlib/models/classes/Clazz.java" xlink:title="&lt;TABLE&gt;">
<polygon fill="none" stroke="black" points="123,-216 123,-233 206,-233 206,-216 123,-216"/>
<text text-anchor="start" x="154" y="-222.5" font-family="Times New Roman,serif" font-size="10.00">Clazz</text>
</a>
<polygon fill="none" stroke="black" points="123,-154 123,-216 206,-216 206,-154 123,-154"/>
<text text-anchor="start" x="128" y="-204" font-family="Times New Roman,serif" font-size="10.00">name :String</text>
<text text-anchor="start" x="128" y="-190" font-family="Times New Roman,serif" font-size="10.00">interfaze :boolean</text>
<text text-anchor="start" x="128" y="-176" font-family="Times New Roman,serif" font-size="10.00">external :boolean</text>
<text text-anchor="start" x="128" y="-162" font-family="Times New Roman,serif" font-size="10.00">wrapped :boolean</text>
<polygon fill="none" stroke="black" points="123,-134 123,-154 206,-154 206,-134 123,-134"/>
<text text-anchor="start" x="163" y="-142" font-family="Times New Roman,serif" font-size="10.00"> </text>
</g>
<!-- _ClassModel&#45;&gt;_Clazz -->
<g id="edge2" class="edge"><title>_ClassModel&#45;&gt;_Clazz</title>
<path fill="none" stroke="black" d="M220.337,-316.185C210.748,-293.857 197.704,-263.483 186.582,-237.585"/>
<text text-anchor="middle" x="194.042" y="-241.745" font-family="Times New Roman,serif" font-size="10.00">classes</text>
<text text-anchor="middle" x="212.878" y="-307.025" font-family="Times New Roman,serif" font-size="10.00">classModel</text>
</g>
<!-- _Association -->
<g id="node5" class="node"><title>_Association</title>
<a xlink:href="../src/org/sdmlib/models/classes/Association.java" xlink:title="&lt;TABLE&gt;">
<polygon fill="none" stroke="black" points="276,-195 276,-212 332,-212 332,-195 276,-195"/>
<text text-anchor="start" x="279.5" y="-201.5" font-family="Times New Roman,serif" font-size="10.00">Association</text>
</a>
<polygon fill="none" stroke="black" points="276,-175 276,-195 332,-195 332,-175 276,-175"/>
<text text-anchor="start" x="302.5" y="-183" font-family="Times New Roman,serif" font-size="10.00"> </text>
<polygon fill="none" stroke="black" points="276,-155 276,-175 332,-175 332,-155 276,-155"/>
<text text-anchor="start" x="302.5" y="-163" font-family="Times New Roman,serif" font-size="10.00"> </text>
</g>
<!-- _ClassModel&#45;&gt;_Association -->
<g id="edge12" class="edge"><title>_ClassModel&#45;&gt;_Association</title>
<path fill="none" stroke="black" d="M247.663,-316.185C259.997,-287.464 278.048,-245.431 290.372,-216.735"/>
<text text-anchor="middle" x="290.679" y="-224.23" font-family="Times New Roman,serif" font-size="10.00">associations</text>
<text text-anchor="middle" x="247.356" y="-303.69" font-family="Times New Roman,serif" font-size="10.00">model</text>
</g>
<!-- _Clazz&#45;&gt;_Clazz -->
<g id="edge4" class="edge"><title>_Clazz&#45;&gt;_Clazz</title>
<path fill="none" stroke="black" d="M213.377,-196.302C223.628,-195.007 231,-190.906 231,-184 231,-177.094 223.628,-172.993 213.377,-171.698"/>
<text text-anchor="middle" x="222.989" y="-166.442" font-family="Times New Roman,serif" font-size="10.00">kindClasses</text>
<text text-anchor="middle" x="221.667" y="-188.21" font-family="Times New Roman,serif" font-size="10.00">superClass</text>
</g>
<!-- _Clazz&#45;&gt;_Clazz -->
<g id="edge6" class="edge"><title>_Clazz&#45;&gt;_Clazz</title>
<path fill="none" stroke="black" d="M213.341,-209.374C232.771,-210.653 249,-202.195 249,-184 249,-165.805 232.771,-157.347 213.341,-158.626"/>
<text text-anchor="middle" x="222.335" y="-151.755" font-family="Times New Roman,serif" font-size="10.00">kindClassesAsInterface</text>
<text text-anchor="middle" x="222.47" y="-202.794" font-family="Times New Roman,serif" font-size="10.00">interfaces</text>
</g>
<!-- _Attribute -->
<g id="node3" class="node"><title>_Attribute</title>
<a xlink:href="../src/org/sdmlib/models/classes/Attribute.java" xlink:title="&lt;TABLE&gt;">
<polygon fill="none" stroke="black" points="8,-58 8,-75 96,-75 96,-58 8,-58"/>
<text text-anchor="start" x="33.5" y="-64.5" font-family="Times New Roman,serif" font-size="10.00">Attribute</text>
</a>
<polygon fill="none" stroke="black" points="8,-38 8,-58 96,-58 96,-38 8,-38"/>
<text text-anchor="start" x="13" y="-46" font-family="Times New Roman,serif" font-size="10.00">initialization :String</text>
<polygon fill="none" stroke="black" points="8,-18 8,-38 96,-38 96,-18 8,-18"/>
<text text-anchor="start" x="50.5" y="-26" font-family="Times New Roman,serif" font-size="10.00"> </text>
</g>
<!-- _Clazz&#45;&gt;_Attribute -->
<g id="edge8" class="edge"><title>_Clazz&#45;&gt;_Attribute</title>
<path fill="none" stroke="black" d="M120.377,-130.419C106.127,-113.243 90.7521,-94.7102 78.1972,-79.5769"/>
<text text-anchor="middle" x="87.2365" y="-81.3536" font-family="Times New Roman,serif" font-size="10.00">attributes</text>
<text text-anchor="middle" x="111.338" y="-123.642" font-family="Times New Roman,serif" font-size="10.00">clazz</text>
</g>
<!-- _Method -->
<g id="node4" class="node"><title>_Method</title>
<a xlink:href="../src/org/sdmlib/models/classes/Method.java" xlink:title="&lt;TABLE&gt;">
<polygon fill="none" stroke="black" points="131,-65 131,-82 216,-82 216,-65 131,-65"/>
<text text-anchor="start" x="157" y="-71.5" font-family="Times New Roman,serif" font-size="10.00">Method</text>
</a>
<polygon fill="none" stroke="black" points="131,-31 131,-65 216,-65 216,-31 131,-31"/>
<text text-anchor="start" x="136" y="-53" font-family="Times New Roman,serif" font-size="10.00">signature :String</text>
<text text-anchor="start" x="136" y="-39" font-family="Times New Roman,serif" font-size="10.00">returnType :String</text>
<polygon fill="none" stroke="black" points="131,-11 131,-31 216,-31 216,-11 131,-11"/>
<text text-anchor="start" x="172" y="-19" font-family="Times New Roman,serif" font-size="10.00"> </text>
</g>
<!-- _Clazz&#45;&gt;_Method -->
<g id="edge10" class="edge"><title>_Clazz&#45;&gt;_Method</title>
<path fill="none" stroke="black" d="M167.505,-130.419C168.473,-115.908 169.505,-100.429 170.41,-86.8495"/>
<text text-anchor="middle" x="174.024" y="-93.6736" font-family="Times New Roman,serif" font-size="10.00">methods</text>
<text text-anchor="middle" x="163.891" y="-118.595" font-family="Times New Roman,serif" font-size="10.00">clazz</text>
</g>
<!-- _Role -->
<g id="node6" class="node"><title>_Role</title>
<a xlink:href="../src/org/sdmlib/models/classes/Role.java" xlink:title="&lt;TABLE&gt;">
<polygon fill="none" stroke="black" points="258,-72 258,-89 319,-89 319,-72 258,-72"/>
<text text-anchor="start" x="279" y="-78.5" font-family="Times New Roman,serif" font-size="10.00">Role</text>
</a>
<polygon fill="none" stroke="black" points="258,-24 258,-72 319,-72 319,-24 258,-24"/>
<text text-anchor="start" x="263" y="-60" font-family="Times New Roman,serif" font-size="10.00">name :String</text>
<text text-anchor="start" x="263" y="-46" font-family="Times New Roman,serif" font-size="10.00">card :String</text>
<text text-anchor="start" x="263" y="-32" font-family="Times New Roman,serif" font-size="10.00">kind :String</text>
<polygon fill="none" stroke="black" points="258,-4 258,-24 319,-24 319,-4 258,-4"/>
<text text-anchor="start" x="287" y="-12" font-family="Times New Roman,serif" font-size="10.00"> </text>
</g>
<!-- _Clazz&#45;&gt;_Role -->
<g id="edge14" class="edge"><title>_Clazz&#45;&gt;_Role</title>
<path fill="none" stroke="black" d="M205.695,-130.419C219.927,-114.575 235.738,-97.5778 249.698,-83.1585"/>
<text text-anchor="middle" x="246.452" y="-90.1168" font-family="Times New Roman,serif" font-size="10.00">sourceRoles</text>
<text text-anchor="middle" x="208.626" y="-118.358" font-family="Times New Roman,serif" font-size="10.00">clazz</text>
</g>
<!-- _Clazz&#45;&gt;_Role -->
<g id="edge16" class="edge"><title>_Clazz&#45;&gt;_Role</title>
<path fill="none" stroke="black" d="M213.482,-136.162C226.468,-122.455 240.205,-107.489 252.323,-93.8432"/>
<text text-anchor="middle" x="249.448" y="-100.921" font-family="Times New Roman,serif" font-size="10.00">targetRoles</text>
<text text-anchor="middle" x="216.631" y="-124.171" font-family="Times New Roman,serif" font-size="10.00">clazz</text>
</g>
<!-- _Association&#45;&gt;_Role -->
<g id="edge18" class="edge"><title>_Association&#45;&gt;_Role</title>
<path fill="none" stroke="black" d="M294.428,-151.348C291.399,-134.125 288.637,-112.515 286.973,-93.5144"/>
<text text-anchor="middle" x="292.012" y="-99.6519" font-family="Times New Roman,serif" font-size="10.00">source</text>
<text text-anchor="middle" x="288.742" y="-140.622" font-family="Times New Roman,serif" font-size="10.00">assoc</text>
</g>
<!-- _Association&#45;&gt;_Role -->
<g id="edge20" class="edge"><title>_Association&#45;&gt;_Role</title>
<path fill="none" stroke="black" d="M306.069,-151.348C305.016,-134.125 302.655,-112.515 299.815,-93.5144"/>
<text text-anchor="middle" x="305.298" y="-99.3774" font-family="Times New Roman,serif" font-size="10.00">target</text>
<text text-anchor="middle" x="301.247" y="-140.088" font-family="Times New Roman,serif" font-size="10.00">assoc</text>
</g>
<!-- _SymTabEntry -->
<g id="node7" class="node"><title>_SymTabEntry</title>
<a xlink:href="../src/org/sdmlib/codegen/SymTabEntry.java" xlink:title="&lt;TABLE&gt;">
<polygon fill="none" stroke="black" points="317,-402 317,-419 410,-419 410,-402 317,-402"/>
<text text-anchor="start" x="336" y="-408.5" font-family="Times New Roman,serif" font-size="10.00">SymTabEntry</text>
</a>
<polygon fill="none" stroke="black" points="317,-298 317,-402 410,-402 410,-298 317,-298"/>
<text text-anchor="start" x="322" y="-390" font-family="Times New Roman,serif" font-size="10.00">kind :String</text>
<text text-anchor="start" x="322" y="-376" font-family="Times New Roman,serif" font-size="10.00">memberName :String</text>
<text text-anchor="start" x="322" y="-362" font-family="Times New Roman,serif" font-size="10.00">type :String</text>
<text text-anchor="start" x="322" y="-348" font-family="Times New Roman,serif" font-size="10.00">startPos :int</text>
<text text-anchor="start" x="322" y="-334" font-family="Times New Roman,serif" font-size="10.00">bodyStartPos :int</text>
<text text-anchor="start" x="322" y="-320" font-family="Times New Roman,serif" font-size="10.00">endPos :int</text>
<text text-anchor="start" x="322" y="-306" font-family="Times New Roman,serif" font-size="10.00">modifiers :String</text>
<polygon fill="none" stroke="black" points="317,-278 317,-298 410,-298 410,-278 317,-278"/>
<text text-anchor="start" x="362" y="-286" font-family="Times New Roman,serif" font-size="10.00"> </text>
</g>
<!-- _LocalVarTableEntry -->
<g id="node8" class="node"><title>_LocalVarTableEntry</title>
<a xlink:href="../src/org/sdmlib/codegen/LocalVarTableEntry.java" xlink:title="&lt;TABLE&gt;">
<polygon fill="none" stroke="black" points="444,-381 444,-398 531,-398 531,-381 444,-381"/>
<text text-anchor="start" x="447.5" y="-387.5" font-family="Times New Roman,serif" font-size="10.00">LocalVarTableEntry</text>
</a>
<polygon fill="none" stroke="black" points="444,-319 444,-381 531,-381 531,-319 444,-319"/>
<text text-anchor="start" x="449" y="-369" font-family="Times New Roman,serif" font-size="10.00">name :String</text>
<text text-anchor="start" x="449" y="-355" font-family="Times New Roman,serif" font-size="10.00">type :String</text>
<text text-anchor="start" x="449" y="-341" font-family="Times New Roman,serif" font-size="10.00">startPos :int</text>
<text text-anchor="start" x="449" y="-327" font-family="Times New Roman,serif" font-size="10.00">endPos :int</text>
<polygon fill="none" stroke="black" points="444,-299 444,-319 531,-319 531,-299 444,-299"/>
<text text-anchor="start" x="486" y="-307" font-family="Times New Roman,serif" font-size="10.00"> </text>
</g>
<!-- _StatementEntry -->
<g id="node9" class="node"><title>_StatementEntry</title>
<a xlink:href="../src/org/sdmlib/codegen/StatementEntry.java" xlink:title="&lt;TABLE&gt;">
<polygon fill="none" stroke="black" points="565,-374 565,-391 694,-391 694,-374 565,-374"/>
<text text-anchor="start" x="598.5" y="-380.5" font-family="Times New Roman,serif" font-size="10.00">StatementEntry</text>
</a>
<polygon fill="none" stroke="black" points="565,-326 565,-374 694,-374 694,-326 565,-326"/>
<text text-anchor="start" x="570" y="-362" font-family="Times New Roman,serif" font-size="10.00">kind :String</text>
<text text-anchor="start" x="570" y="-348" font-family="Times New Roman,serif" font-size="10.00">tokenList :ArrayList&lt;String&gt;</text>
<text text-anchor="start" x="570" y="-334" font-family="Times New Roman,serif" font-size="10.00">assignTargetVarName :String</text>
<polygon fill="none" stroke="black" points="565,-306 565,-326 694,-326 694,-306 565,-306"/>
<text text-anchor="start" x="628" y="-314" font-family="Times New Roman,serif" font-size="10.00"> </text>
</g>
<!-- _StatementEntry&#45;&gt;_StatementEntry -->
<g id="edge22" class="edge"><title>_StatementEntry&#45;&gt;_StatementEntry</title>
<path fill="none" stroke="black" d="M701.386,-376.747C711.91,-372.343 719,-363.094 719,-349 719,-334.906 711.91,-325.657 701.386,-321.253"/>
<text text-anchor="middle" x="711.385" y="-318.871" font-family="Times New Roman,serif" font-size="10.00">bodyStats</text>
<text text-anchor="middle" x="707.723" y="-366.511" font-family="Times New Roman,serif" font-size="10.00">parent</text>
</g>
</g>
</svg>
