<?xml version="1.0" encoding="UTF-8" standalone="no"?>
<!DOCTYPE svg PUBLIC "-//W3C//DTD SVG 1.1//EN"
 "http://www.w3.org/Graphics/SVG/1.1/DTD/svg11.dtd">
<!-- Generated by graphviz version 2.28.0 (20110507.0327)
 -->
<!-- Title: ClassDiagram Pages: 1 -->
<svg width="817pt" height="446pt"
 viewBox="0.00 0.00 817.00 446.00" xmlns="http://www.w3.org/2000/svg" xmlns:xlink="http://www.w3.org/1999/xlink">
<g id="graph1" class="graph" transform="scale(1 1) rotate(0) translate(4 442)">
<title>ClassDiagram</title>
<polygon fill="white" stroke="white" points="-4,5 -4,-442 814,-442 814,5 -4,5"/>
<!-- _ClassModel -->
<g id="node1" class="node"><title>_ClassModel</title>
<a xlink:href="../src/org/sdmlib/models/classes/ClassModel.java" xlink:title="&lt;TABLE&gt;">
<polygon fill="none" stroke="black" points="195,-374 195,-391 291,-391 291,-374 195,-374"/>
<text text-anchor="start" x="218.5" y="-380.5" font-family="Times New Roman,serif" font-size="10.00">ClassModel</text>
</a>
<polygon fill="none" stroke="black" points="195,-354 195,-374 291,-374 291,-354 195,-354"/>
<text text-anchor="start" x="200" y="-362" font-family="Times New Roman,serif" font-size="10.00">packageName :String</text>
<polygon fill="none" stroke="black" points="195,-334 195,-354 291,-354 291,-334 195,-334"/>
<text text-anchor="start" x="241.5" y="-342" font-family="Times New Roman,serif" font-size="10.00"> </text>
</g>
<!-- _Clazz -->
<g id="node2" class="node"><title>_Clazz</title>
<a xlink:href="../src/org/sdmlib/models/classes/Clazz.java" xlink:title="&lt;TABLE&gt;">
<polygon fill="none" stroke="black" points="132,-230 132,-247 215,-247 215,-230 132,-230"/>
<text text-anchor="start" x="163" y="-236.5" font-family="Times New Roman,serif" font-size="10.00">Clazz</text>
</a>
<polygon fill="none" stroke="black" points="132,-154 132,-230 215,-230 215,-154 132,-154"/>
<text text-anchor="start" x="137" y="-218" font-family="Times New Roman,serif" font-size="10.00">name :String</text>
<text text-anchor="start" x="137" y="-204" font-family="Times New Roman,serif" font-size="10.00">interfaze :boolean</text>
<text text-anchor="start" x="137" y="-190" font-family="Times New Roman,serif" font-size="10.00">external :boolean</text>
<text text-anchor="start" x="137" y="-176" font-family="Times New Roman,serif" font-size="10.00">wrapped :boolean</text>
<text text-anchor="start" x="137" y="-162" font-family="Times New Roman,serif" font-size="10.00">filePath :String</text>
<polygon fill="none" stroke="black" points="132,-134 132,-154 215,-154 215,-134 132,-134"/>
<text text-anchor="start" x="172" y="-142" font-family="Times New Roman,serif" font-size="10.00"> </text>
</g>
<!-- _ClassModel&#45;&gt;_Clazz -->
<g id="edge2" class="edge"><title>_ClassModel&#45;&gt;_Clazz</title>
<path fill="none" stroke="black" d="M229.998,-330.423C220.904,-308.338 208.478,-278.162 197.549,-251.62"/>
<text text-anchor="middle" x="204.908" y="-255.891" font-family="Times New Roman,serif" font-size="10.00">classes *</text>
<text text-anchor="middle" x="222.639" y="-321.151" font-family="Times New Roman,serif" font-size="10.00">classModel</text>
</g>
<!-- _Association -->
<g id="node5" class="node"><title>_Association</title>
<a xlink:href="../src/org/sdmlib/models/classes/Association.java" xlink:title="&lt;TABLE&gt;">
<polygon fill="none" stroke="black" points="285,-202 285,-219 341,-219 341,-202 285,-202"/>
<text text-anchor="start" x="288.5" y="-208.5" font-family="Times New Roman,serif" font-size="10.00">Association</text>
</a>
<polygon fill="none" stroke="black" points="285,-182 285,-202 341,-202 341,-182 285,-182"/>
<text text-anchor="start" x="311.5" y="-190" font-family="Times New Roman,serif" font-size="10.00"> </text>
<polygon fill="none" stroke="black" points="285,-162 285,-182 341,-182 341,-162 285,-162"/>
<text text-anchor="start" x="311.5" y="-170" font-family="Times New Roman,serif" font-size="10.00"> </text>
</g>
<!-- _ClassModel&#45;&gt;_Association -->
<g id="edge12" class="edge"><title>_ClassModel&#45;&gt;_Association</title>
<path fill="none" stroke="black" d="M256.002,-330.423C268.536,-299.984 287.399,-254.175 299.949,-223.696"/>
<text text-anchor="middle" x="300.406" y="-231.186" font-family="Times New Roman,serif" font-size="10.00">associations *</text>
<text text-anchor="middle" x="255.545" y="-317.933" font-family="Times New Roman,serif" font-size="10.00">model</text>
</g>
<!-- _Clazz&#45;&gt;_Clazz -->
<g id="edge4" class="edge"><title>_Clazz&#45;&gt;_Clazz</title>
<path fill="none" stroke="black" d="M222.377,-204.025C232.628,-202.654 240,-198.313 240,-191 240,-183.688 232.628,-179.346 222.377,-177.975"/>
<text text-anchor="middle" x="232.014" y="-172.805" font-family="Times New Roman,serif" font-size="10.00">kidClasses *</text>
<text text-anchor="middle" x="230.616" y="-195.859" font-family="Times New Roman,serif" font-size="10.00">superClass</text>
</g>
<!-- _Clazz&#45;&gt;_Clazz -->
<g id="edge6" class="edge"><title>_Clazz&#45;&gt;_Clazz</title>
<path fill="none" stroke="black" d="M222.341,-217.867C241.771,-219.221 258,-210.266 258,-191 258,-171.734 241.771,-162.779 222.341,-164.133"/>
<text text-anchor="middle" x="231.331" y="-157.254" font-family="Times New Roman,serif" font-size="10.00">kidClassesAsInterface *</text>
<text text-anchor="middle" x="231.474" y="-211.295" font-family="Times New Roman,serif" font-size="10.00">interfaces *</text>
</g>
<!-- _Attribute -->
<g id="node3" class="node"><title>_Attribute</title>
<a xlink:href="../src/org/sdmlib/models/classes/Attribute.java" xlink:title="&lt;TABLE&gt;">
<polygon fill="none" stroke="black" points="8,-65 8,-82 96,-82 96,-65 8,-65"/>
<text text-anchor="start" x="33.5" y="-71.5" font-family="Times New Roman,serif" font-size="10.00">Attribute</text>
</a>
<polygon fill="none" stroke="black" points="8,-31 8,-65 96,-65 96,-31 8,-31"/>
<text text-anchor="start" x="13" y="-53" font-family="Times New Roman,serif" font-size="10.00">initialization :String</text>
<text text-anchor="start" x="13" y="-39" font-family="Times New Roman,serif" font-size="10.00">type :String</text>
<polygon fill="none" stroke="black" points="8,-11 8,-31 96,-31 96,-11 8,-11"/>
<text text-anchor="start" x="50.5" y="-19" font-family="Times New Roman,serif" font-size="10.00"> </text>
</g>
<!-- _Clazz&#45;&gt;_Attribute -->
<g id="edge8" class="edge"><title>_Clazz&#45;&gt;_Attribute</title>
<path fill="none" stroke="black" d="M123.436,-131.833C110.513,-116.668 96.902,-100.695 85.0675,-86.8065"/>
<text text-anchor="middle" x="94.1624" y="-88.4638" font-family="Times New Roman,serif" font-size="10.00">attributes *</text>
<text text-anchor="middle" x="114.341" y="-125.176" font-family="Times New Roman,serif" font-size="10.00">clazz</text>
</g>
<!-- _Method -->
<g id="node4" class="node"><title>_Method</title>
<a xlink:href="../src/org/sdmlib/models/classes/Method.java" xlink:title="&lt;TABLE&gt;">
<polygon fill="none" stroke="black" points="131,-72 131,-89 216,-89 216,-72 131,-72"/>
<text text-anchor="start" x="157" y="-78.5" font-family="Times New Roman,serif" font-size="10.00">Method</text>
</a>
<polygon fill="none" stroke="black" points="131,-24 131,-72 216,-72 216,-24 131,-24"/>
<text text-anchor="start" x="136" y="-60" font-family="Times New Roman,serif" font-size="10.00">signature :String</text>
<text text-anchor="start" x="136" y="-46" font-family="Times New Roman,serif" font-size="10.00">returnType :String</text>
<text text-anchor="start" x="136" y="-32" font-family="Times New Roman,serif" font-size="10.00">body :String</text>
<polygon fill="none" stroke="black" points="131,-4 131,-24 216,-24 216,-4 131,-4"/>
<text text-anchor="start" x="172" y="-12" font-family="Times New Roman,serif" font-size="10.00"> </text>
</g>
<!-- _Clazz&#45;&gt;_Method -->
<g id="edge10" class="edge"><title>_Clazz&#45;&gt;_Method</title>
<path fill="none" stroke="black" d="M173,-130.191C173,-118.063 173,-105.489 173,-93.9317"/>
<text text-anchor="middle" x="177.226" y="-100.495" font-family="Times New Roman,serif" font-size="10.00">methods *</text>
<text text-anchor="middle" x="168.774" y="-118.628" font-family="Times New Roman,serif" font-size="10.00">clazz</text>
</g>
<!-- _Role -->
<g id="node6" class="node"><title>_Role</title>
<a xlink:href="../src/org/sdmlib/models/classes/Role.java" xlink:title="&lt;TABLE&gt;">
<polygon fill="none" stroke="black" points="250,-72 250,-89 311,-89 311,-72 250,-72"/>
<text text-anchor="start" x="271" y="-78.5" font-family="Times New Roman,serif" font-size="10.00">Role</text>
</a>
<polygon fill="none" stroke="black" points="250,-24 250,-72 311,-72 311,-24 250,-24"/>
<text text-anchor="start" x="255" y="-60" font-family="Times New Roman,serif" font-size="10.00">name :String</text>
<text text-anchor="start" x="255" y="-46" font-family="Times New Roman,serif" font-size="10.00">card :String</text>
<text text-anchor="start" x="255" y="-32" font-family="Times New Roman,serif" font-size="10.00">kind :String</text>
<polygon fill="none" stroke="black" points="250,-4 250,-24 311,-24 311,-4 250,-4"/>
<text text-anchor="start" x="279" y="-12" font-family="Times New Roman,serif" font-size="10.00"> </text>
</g>
<!-- _Clazz&#45;&gt;_Role -->
<g id="edge14" class="edge"><title>_Clazz&#45;&gt;_Role</title>
<path fill="none" stroke="black" d="M211.393,-130.191C221.264,-116.851 231.868,-102.97 241.737,-90.4965"/>
<text text-anchor="middle" x="239.446" y="-97.7305" font-family="Times New Roman,serif" font-size="10.00">sourceRoles *</text>
<text text-anchor="middle" x="213.402" y="-117.895" font-family="Times New Roman,serif" font-size="10.00">clazz</text>
</g>
<!-- _Clazz&#45;&gt;_Role -->
<g id="edge16" class="edge"><title>_Clazz&#45;&gt;_Role</title>
<path fill="none" stroke="black" d="M222.535,-133.061C232.644,-119.944 242.937,-106.16 251.991,-93.5982"/>
<text text-anchor="middle" x="250.102" y="-100.918" font-family="Times New Roman,serif" font-size="10.00">targetRoles *</text>
<text text-anchor="middle" x="224.705" y="-120.8" font-family="Times New Roman,serif" font-size="10.00">clazz</text>
</g>
<!-- _Association&#45;&gt;_Role -->
<g id="edge18" class="edge"><title>_Association&#45;&gt;_Role</title>
<path fill="none" stroke="black" d="M305.676,-158.486C301.252,-139.448 295.537,-114.856 290.622,-93.7083"/>
<text text-anchor="middle" x="296.79" y="-99.0794" font-family="Times New Roman,serif" font-size="10.00">source</text>
<text text-anchor="middle" x="299.508" y="-148.114" font-family="Times New Roman,serif" font-size="10.00">assoc</text>
</g>
<!-- _SymTabEntry -->
<g id="node7" class="node"><title>_SymTabEntry</title>
<a xlink:href="../src/org/sdmlib/codegen/SymTabEntry.java" xlink:title="&lt;TABLE&gt;">
<polygon fill="none" stroke="black" points="326,-416 326,-433 419,-433 419,-416 326,-416"/>
<text text-anchor="start" x="345" y="-422.5" font-family="Times New Roman,serif" font-size="10.00">SymTabEntry</text>
</a>
<polygon fill="none" stroke="black" points="326,-312 326,-416 419,-416 419,-312 326,-312"/>
<text text-anchor="start" x="331" y="-404" font-family="Times New Roman,serif" font-size="10.00">kind :String</text>
<text text-anchor="start" x="331" y="-390" font-family="Times New Roman,serif" font-size="10.00">memberName :String</text>
<text text-anchor="start" x="331" y="-376" font-family="Times New Roman,serif" font-size="10.00">type :String</text>
<text text-anchor="start" x="331" y="-362" font-family="Times New Roman,serif" font-size="10.00">startPos :int</text>
<text text-anchor="start" x="331" y="-348" font-family="Times New Roman,serif" font-size="10.00">bodyStartPos :int</text>
<text text-anchor="start" x="331" y="-334" font-family="Times New Roman,serif" font-size="10.00">endPos :int</text>
<text text-anchor="start" x="331" y="-320" font-family="Times New Roman,serif" font-size="10.00">modifiers :String</text>
<polygon fill="none" stroke="black" points="326,-292 326,-312 419,-312 419,-292 326,-292"/>
<text text-anchor="start" x="371" y="-300" font-family="Times New Roman,serif" font-size="10.00"> </text>
</g>
<!-- _LocalVarTableEntry -->
<g id="node8" class="node"><title>_LocalVarTableEntry</title>
<a xlink:href="../src/org/sdmlib/codegen/LocalVarTableEntry.java" xlink:title="&lt;TABLE&gt;">
<polygon fill="none" stroke="black" points="453,-395 453,-412 540,-412 540,-395 453,-395"/>
<text text-anchor="start" x="456.5" y="-401.5" font-family="Times New Roman,serif" font-size="10.00">LocalVarTableEntry</text>
</a>
<polygon fill="none" stroke="black" points="453,-333 453,-395 540,-395 540,-333 453,-333"/>
<text text-anchor="start" x="458" y="-383" font-family="Times New Roman,serif" font-size="10.00">name :String</text>
<text text-anchor="start" x="458" y="-369" font-family="Times New Roman,serif" font-size="10.00">type :String</text>
<text text-anchor="start" x="458" y="-355" font-family="Times New Roman,serif" font-size="10.00">startPos :int</text>
<text text-anchor="start" x="458" y="-341" font-family="Times New Roman,serif" font-size="10.00">endPos :int</text>
<polygon fill="none" stroke="black" points="453,-313 453,-333 540,-333 540,-313 453,-313"/>
<text text-anchor="start" x="495" y="-321" font-family="Times New Roman,serif" font-size="10.00"> </text>
</g>
<!-- _StatementEntry -->
<g id="node9" class="node"><title>_StatementEntry</title>
<a xlink:href="../src/org/sdmlib/codegen/StatementEntry.java" xlink:title="&lt;TABLE&gt;">
<polygon fill="none" stroke="black" points="574,-402 574,-419 703,-419 703,-402 574,-402"/>
<text text-anchor="start" x="607.5" y="-408.5" font-family="Times New Roman,serif" font-size="10.00">StatementEntry</text>
</a>
<polygon fill="none" stroke="black" points="574,-326 574,-402 703,-402 703,-326 574,-326"/>
<text text-anchor="start" x="579" y="-390" font-family="Times New Roman,serif" font-size="10.00">kind :String</text>
<text text-anchor="start" x="579" y="-376" font-family="Times New Roman,serif" font-size="10.00">tokenList :ArrayList&lt;String&gt;</text>
<text text-anchor="start" x="579" y="-362" font-family="Times New Roman,serif" font-size="10.00">assignTargetVarName :String</text>
<text text-anchor="start" x="579" y="-348" font-family="Times New Roman,serif" font-size="10.00">startPos :int</text>
<text text-anchor="start" x="579" y="-334" font-family="Times New Roman,serif" font-size="10.00">endPos :int</text>
<polygon fill="none" stroke="black" points="574,-306 574,-326 703,-326 703,-306 574,-306"/>
<text text-anchor="start" x="637" y="-314" font-family="Times New Roman,serif" font-size="10.00"> </text>
</g>
<!-- _StatementEntry&#45;&gt;_StatementEntry -->
<g id="edge20" class="edge"><title>_StatementEntry&#45;&gt;_StatementEntry</title>
<path fill="none" stroke="black" d="M710.386,-392.101C720.91,-387.481 728,-377.781 728,-363 728,-348.219 720.91,-338.519 710.386,-333.899"/>
<text text-anchor="middle" x="720.381" y="-331.706" font-family="Times New Roman,serif" font-size="10.00">bodyStats *</text>
<text text-anchor="middle" x="716.576" y="-381.746" font-family="Times New Roman,serif" font-size="10.00">parent</text>
</g>
<!-- _String -->
<g id="node22" class="node"><title>_String</title>
<text text-anchor="middle" x="638" y="-188.5" font-family="Times New Roman,serif" font-size="10.00">_String</text>
</g>
<!-- _StatementEntry&#45;&gt;_String -->
<g id="edge22" class="edge"><title>_StatementEntry&#45;&gt;_String</title>
<path fill="none" stroke="black" d="M638,-302.064C638,-273.804 638,-241.485 638,-219.216"/>
<polygon fill="black" stroke="black" points="638,-209.152 642.5,-219.152 638,-214.152 638,-219.152 638,-219.152 638,-219.152 638,-214.152 633.5,-219.152 638,-209.152 638,-209.152"/>
<text text-anchor="middle" x="642.226" y="-215.715" font-family="Times New Roman,serif" font-size="10.00">tokenList</text>
</g>
<!-- _ArrayList -->
<g id="node10" class="node"><title>_ArrayList</title>
<a xlink:href="../src/org/sdmlib/models/classes/ArrayList.java" xlink:title="&lt;TABLE&gt;">
<polygon fill="none" stroke="black" points="755,-374 755,-391 801,-391 801,-374 755,-374"/>
<text text-anchor="start" x="758.5" y="-380.5" font-family="Times New Roman,serif" font-size="10.00">ArrayList</text>
</a>
<polygon fill="none" stroke="black" points="755,-354 755,-374 801,-374 801,-354 755,-354"/>
<text text-anchor="start" x="776.5" y="-362" font-family="Times New Roman,serif" font-size="10.00"> </text>
<polygon fill="none" stroke="black" points="755,-334 755,-354 801,-354 801,-334 755,-334"/>
<text text-anchor="start" x="776.5" y="-342" font-family="Times New Roman,serif" font-size="10.00"> </text>
</g>
</g>
</svg>
