<?xml version="1.0" encoding="UTF-8" standalone="no"?>
<!DOCTYPE svg PUBLIC "-//W3C//DTD SVG 1.1//EN"
 "http://www.w3.org/Graphics/SVG/1.1/DTD/svg11.dtd">
<!-- Generated by graphviz version 2.28.0 (20110507.0327)
 -->
<!-- Title: ClassDiagram Pages: 1 -->
<svg width="724pt" height="404pt"
 viewBox="0.00 0.00 723.88 404.00" xmlns="http://www.w3.org/2000/svg" xmlns:xlink="http://www.w3.org/1999/xlink">
<g id="graph1" class="graph" transform="scale(1 1) rotate(0) translate(4 400)">
<title>ClassDiagram</title>
<polygon fill="white" stroke="white" points="-4,5 -4,-400 720.884,-400 720.884,5 -4,5"/>
<!-- ClassModel -->
<g id="node1" class="node"><title>ClassModel</title>
<polygon fill="none" stroke="black" points="206,-332 206,-349 262,-349 262,-332 206,-332"/>
<text text-anchor="start" x="209.5" y="-338.5" font-family="Times New Roman,serif" font-size="10.00">ClassModel</text>
<polygon fill="none" stroke="black" points="206,-312 206,-332 262,-332 262,-312 206,-312"/>
<text text-anchor="start" x="232.5" y="-320" font-family="Times New Roman,serif" font-size="10.00"> </text>
<polygon fill="none" stroke="black" points="206,-292 206,-312 262,-312 262,-292 206,-292"/>
<text text-anchor="start" x="232.5" y="-300" font-family="Times New Roman,serif" font-size="10.00"> </text>
</g>
<!-- Clazz -->
<g id="node2" class="node"><title>Clazz</title>
<polygon fill="none" stroke="black" points="123,-188 123,-205 206,-205 206,-188 123,-188"/>
<text text-anchor="start" x="154" y="-194.5" font-family="Times New Roman,serif" font-size="10.00">Clazz</text>
<polygon fill="none" stroke="black" points="123,-154 123,-188 206,-188 206,-154 123,-154"/>
<text text-anchor="start" x="128" y="-176" font-family="Times New Roman,serif" font-size="10.00">name :String</text>
<text text-anchor="start" x="128" y="-162" font-family="Times New Roman,serif" font-size="10.00">interfaze :Boolean</text>
<polygon fill="none" stroke="black" points="123,-134 123,-154 206,-154 206,-134 123,-134"/>
<text text-anchor="start" x="163" y="-142" font-family="Times New Roman,serif" font-size="10.00"> </text>
</g>
<!-- ClassModel&#45;&gt;Clazz -->
<g id="edge2" class="edge"><title>ClassModel&#45;&gt;Clazz</title>
<path fill="none" stroke="black" d="M219.155,-288.401C208.359,-265.422 193.683,-234.182 182.183,-209.704"/>
<text text-anchor="middle" x="189.862" y="-213.61" font-family="Times New Roman,serif" font-size="10.00">classes *</text>
<text text-anchor="middle" x="211.476" y="-279.495" font-family="Times New Roman,serif" font-size="10.00">classModel</text>
</g>
<!-- Association -->
<g id="node5" class="node"><title>Association</title>
<polygon fill="none" stroke="black" points="276,-181 276,-198 332,-198 332,-181 276,-181"/>
<text text-anchor="start" x="279.5" y="-187.5" font-family="Times New Roman,serif" font-size="10.00">Association</text>
<polygon fill="none" stroke="black" points="276,-161 276,-181 332,-181 332,-161 276,-161"/>
<text text-anchor="start" x="302.5" y="-169" font-family="Times New Roman,serif" font-size="10.00"> </text>
<polygon fill="none" stroke="black" points="276,-141 276,-161 332,-161 332,-141 276,-141"/>
<text text-anchor="start" x="302.5" y="-149" font-family="Times New Roman,serif" font-size="10.00"> </text>
</g>
<!-- ClassModel&#45;&gt;Association -->
<g id="edge12" class="edge"><title>ClassModel&#45;&gt;Association</title>
<path fill="none" stroke="black" d="M248.845,-288.401C260.724,-263.115 277.303,-227.827 289.176,-202.554"/>
<text text-anchor="middle" x="289.148" y="-210.053" font-family="Times New Roman,serif" font-size="10.00">associations *</text>
<text text-anchor="middle" x="248.874" y="-275.901" font-family="Times New Roman,serif" font-size="10.00">model</text>
</g>
<!-- Clazz&#45;&gt;Clazz -->
<g id="edge4" class="edge"><title>Clazz&#45;&gt;Clazz</title>
<path fill="none" stroke="black" d="M213.377,-181.035C223.628,-179.874 231,-176.195 231,-170 231,-163.805 223.628,-160.126 213.377,-158.965"/>
<text text-anchor="middle" x="222.944" y="-153.555" font-family="Times New Roman,serif" font-size="10.00">kindClasses *</text>
<text text-anchor="middle" x="221.755" y="-173.076" font-family="Times New Roman,serif" font-size="10.00">superClass</text>
</g>
<!-- Clazz&#45;&gt;Clazz -->
<g id="edge6" class="edge"><title>Clazz&#45;&gt;Clazz</title>
<path fill="none" stroke="black" d="M213.341,-192.762C232.771,-193.91 249,-186.322 249,-170 249,-153.678 232.771,-146.09 213.341,-147.238"/>
<text text-anchor="middle" x="222.342" y="-140.382" font-family="Times New Roman,serif" font-size="10.00">kindClassesAsInterface *</text>
<text text-anchor="middle" x="222.464" y="-186.166" font-family="Times New Roman,serif" font-size="10.00">interfaces *</text>
</g>
<!-- Attribute -->
<g id="node3" class="node"><title>Attribute</title>
<polygon fill="none" stroke="black" points="8,-58 8,-75 96,-75 96,-58 8,-58"/>
<text text-anchor="start" x="33.5" y="-64.5" font-family="Times New Roman,serif" font-size="10.00">Attribute</text>
<polygon fill="none" stroke="black" points="8,-38 8,-58 96,-58 96,-38 8,-38"/>
<text text-anchor="start" x="13" y="-46" font-family="Times New Roman,serif" font-size="10.00">initialization :String</text>
<polygon fill="none" stroke="black" points="8,-18 8,-38 96,-38 96,-18 8,-18"/>
<text text-anchor="start" x="50.5" y="-26" font-family="Times New Roman,serif" font-size="10.00"> </text>
</g>
<!-- Clazz&#45;&gt;Attribute -->
<g id="edge8" class="edge"><title>Clazz&#45;&gt;Attribute</title>
<path fill="none" stroke="black" d="M128.255,-130.382C113.146,-114.06 95.7645,-95.2813 81.4152,-79.779"/>
<text text-anchor="middle" x="90.6732" y="-81.0593" font-family="Times New Roman,serif" font-size="10.00">attributes *</text>
<text text-anchor="middle" x="118.997" y="-124.102" font-family="Times New Roman,serif" font-size="10.00">clazz</text>
</g>
<!-- Method -->
<g id="node4" class="node"><title>Method</title>
<polygon fill="none" stroke="black" points="131,-65 131,-82 216,-82 216,-65 131,-65"/>
<text text-anchor="start" x="157" y="-71.5" font-family="Times New Roman,serif" font-size="10.00">Method</text>
<polygon fill="none" stroke="black" points="131,-31 131,-65 216,-65 216,-31 131,-31"/>
<text text-anchor="start" x="136" y="-53" font-family="Times New Roman,serif" font-size="10.00">signature :String</text>
<text text-anchor="start" x="136" y="-39" font-family="Times New Roman,serif" font-size="10.00">returnType :String</text>
<polygon fill="none" stroke="black" points="131,-11 131,-31 216,-31 216,-11 131,-11"/>
<text text-anchor="start" x="172" y="-19" font-family="Times New Roman,serif" font-size="10.00"> </text>
</g>
<!-- Clazz&#45;&gt;Method -->
<g id="edge10" class="edge"><title>Clazz&#45;&gt;Method</title>
<path fill="none" stroke="black" d="M166.872,-130.382C167.912,-116.411 169.085,-100.641 170.124,-86.666"/>
<text text-anchor="middle" x="173.666" y="-93.5176" font-family="Times New Roman,serif" font-size="10.00">methods *</text>
<text text-anchor="middle" x="163.33" y="-118.531" font-family="Times New Roman,serif" font-size="10.00">clazz</text>
</g>
<!-- Role -->
<g id="node6" class="node"><title>Role</title>
<polygon fill="none" stroke="black" points="258,-72 258,-89 319,-89 319,-72 258,-72"/>
<text text-anchor="start" x="279" y="-78.5" font-family="Times New Roman,serif" font-size="10.00">Role</text>
<polygon fill="none" stroke="black" points="258,-24 258,-72 319,-72 319,-24 258,-24"/>
<text text-anchor="start" x="263" y="-60" font-family="Times New Roman,serif" font-size="10.00">name :String</text>
<text text-anchor="start" x="263" y="-46" font-family="Times New Roman,serif" font-size="10.00">card :String</text>
<text text-anchor="start" x="263" y="-32" font-family="Times New Roman,serif" font-size="10.00">kind :String</text>
<polygon fill="none" stroke="black" points="258,-4 258,-24 319,-24 319,-4 258,-4"/>
<text text-anchor="start" x="287" y="-12" font-family="Times New Roman,serif" font-size="10.00"> </text>
</g>
<!-- Clazz&#45;&gt;Role -->
<g id="edge14" class="edge"><title>Clazz&#45;&gt;Role</title>
<path fill="none" stroke="black" d="M197.234,-130.382C213.325,-114.06 232.675,-95.2813 249.411,-79.779"/>
<text text-anchor="middle" x="245.658" y="-86.5484" font-family="Times New Roman,serif" font-size="10.00">sourceRoles *</text>
<text text-anchor="middle" x="200.611" y="-118.47" font-family="Times New Roman,serif" font-size="10.00">clazz</text>
</g>
<!-- Clazz&#45;&gt;Role -->
<g id="edge16" class="edge"><title>Clazz&#45;&gt;Role</title>
<path fill="none" stroke="black" d="M209.917,-130.382C223.013,-118.071 237.118,-104.363 249.713,-91.7172"/>
<text text-anchor="middle" x="246.295" y="-98.615" font-family="Times New Roman,serif" font-size="10.00">targetRoles *</text>
<text text-anchor="middle" x="213.609" y="-118.589" font-family="Times New Roman,serif" font-size="10.00">clazz</text>
</g>
<!-- Association&#45;&gt;Role -->
<g id="edge18" class="edge"><title>Association&#45;&gt;Role</title>
<path fill="none" stroke="black" d="M293.773,-137.209C291.286,-123.905 289.027,-108.19 287.474,-93.6856"/>
<text text-anchor="middle" x="292.674" y="-99.7273" font-family="Times New Roman,serif" font-size="10.00">source</text>
<text text-anchor="middle" x="287.992" y="-126.549" font-family="Times New Roman,serif" font-size="10.00">assoc</text>
</g>
<!-- Association&#45;&gt;Role -->
<g id="edge20" class="edge"><title>Association&#45;&gt;Role</title>
<path fill="none" stroke="black" d="M305.819,-137.209C304.788,-123.905 302.891,-108.19 300.608,-93.6856"/>
<text text-anchor="middle" x="306.16" y="-99.5026" font-family="Times New Roman,serif" font-size="10.00">target</text>
<text text-anchor="middle" x="300.862" y="-126.024" font-family="Times New Roman,serif" font-size="10.00">assoc</text>
</g>
<!-- SymTabEntry -->
<g id="node7" class="node"><title>SymTabEntry</title>
<polygon fill="none" stroke="black" points="297,-374 297,-391 390,-391 390,-374 297,-374"/>
<text text-anchor="start" x="316" y="-380.5" font-family="Times New Roman,serif" font-size="10.00">SymTabEntry</text>
<polygon fill="none" stroke="black" points="297,-270 297,-374 390,-374 390,-270 297,-270"/>
<text text-anchor="start" x="302" y="-362" font-family="Times New Roman,serif" font-size="10.00">kind :String</text>
<text text-anchor="start" x="302" y="-348" font-family="Times New Roman,serif" font-size="10.00">memberName :String</text>
<text text-anchor="start" x="302" y="-334" font-family="Times New Roman,serif" font-size="10.00">type :String</text>
<text text-anchor="start" x="302" y="-320" font-family="Times New Roman,serif" font-size="10.00">startPos :int</text>
<text text-anchor="start" x="302" y="-306" font-family="Times New Roman,serif" font-size="10.00">bodyStartPos :int</text>
<text text-anchor="start" x="302" y="-292" font-family="Times New Roman,serif" font-size="10.00">endPos :int</text>
<text text-anchor="start" x="302" y="-278" font-family="Times New Roman,serif" font-size="10.00">modifiers :String</text>
<polygon fill="none" stroke="black" points="297,-250 297,-270 390,-270 390,-250 297,-250"/>
<text text-anchor="start" x="342" y="-258" font-family="Times New Roman,serif" font-size="10.00"> </text>
</g>
<!-- LocalVarTableEntry -->
<g id="node8" class="node"><title>LocalVarTableEntry</title>
<polygon fill="none" stroke="black" points="424,-353 424,-370 511,-370 511,-353 424,-353"/>
<text text-anchor="start" x="427.5" y="-359.5" font-family="Times New Roman,serif" font-size="10.00">LocalVarTableEntry</text>
<polygon fill="none" stroke="black" points="424,-291 424,-353 511,-353 511,-291 424,-291"/>
<text text-anchor="start" x="429" y="-341" font-family="Times New Roman,serif" font-size="10.00">name :String</text>
<text text-anchor="start" x="429" y="-327" font-family="Times New Roman,serif" font-size="10.00">type :String</text>
<text text-anchor="start" x="429" y="-313" font-family="Times New Roman,serif" font-size="10.00">startPos :int</text>
<text text-anchor="start" x="429" y="-299" font-family="Times New Roman,serif" font-size="10.00">endPos :int</text>
<polygon fill="none" stroke="black" points="424,-271 424,-291 511,-291 511,-271 424,-271"/>
<text text-anchor="start" x="466" y="-279" font-family="Times New Roman,serif" font-size="10.00"> </text>
</g>
<!-- StatementEntry -->
<g id="node9" class="node"><title>StatementEntry</title>
<polygon fill="none" stroke="black" points="545,-346 545,-363 674,-363 674,-346 545,-346"/>
<text text-anchor="start" x="578.5" y="-352.5" font-family="Times New Roman,serif" font-size="10.00">StatementEntry</text>
<polygon fill="none" stroke="black" points="545,-298 545,-346 674,-346 674,-298 545,-298"/>
<text text-anchor="start" x="550" y="-334" font-family="Times New Roman,serif" font-size="10.00">kind :String</text>
<text text-anchor="start" x="550" y="-320" font-family="Times New Roman,serif" font-size="10.00">tokenList :ArrayList&lt;String&gt;</text>
<text text-anchor="start" x="550" y="-306" font-family="Times New Roman,serif" font-size="10.00">assignTargetVarName :String</text>
<polygon fill="none" stroke="black" points="545,-278 545,-298 674,-298 674,-278 545,-278"/>
<text text-anchor="start" x="608" y="-286" font-family="Times New Roman,serif" font-size="10.00"> </text>
</g>
<!-- StatementEntry&#45;&gt;StatementEntry -->
<g id="edge22" class="edge"><title>StatementEntry&#45;&gt;StatementEntry</title>
<path fill="none" stroke="black" d="M681.386,-346.378C691.91,-342.35 699,-333.891 699,-321 699,-308.109 691.91,-299.65 681.386,-295.622"/>
<text text-anchor="middle" x="691.384" y="-292.901" font-family="Times New Roman,serif" font-size="10.00">bodyStats *</text>
<text text-anchor="middle" x="687.981" y="-336.362" font-family="Times New Roman,serif" font-size="10.00">parent</text>
</g>
</g>
</svg>
