<?xml version="1.0" encoding="UTF-8" standalone="no"?>
<!DOCTYPE svg PUBLIC "-//W3C//DTD SVG 1.1//EN"
 "http://www.w3.org/Graphics/SVG/1.1/DTD/svg11.dtd">
<!-- Generated by graphviz version 2.28.0 (20110507.0327)
 -->
<!-- Title: ClassDiagram Pages: 1 -->
<svg width="858pt" height="446pt"
 viewBox="0.00 0.00 858.00 446.00" xmlns="http://www.w3.org/2000/svg" xmlns:xlink="http://www.w3.org/1999/xlink">
<g id="graph1" class="graph" transform="scale(1 1) rotate(0) translate(4 442)">
<title>ClassDiagram</title>
<polygon fill="white" stroke="white" points="-4,5 -4,-442 855,-442 855,5 -4,5"/>
<!-- _ClassModel -->
<g id="node1" class="node"><title>_ClassModel</title>
<a xlink:href="../src/org/sdmlib/models/classes/ClassModel.java" xlink:title="&lt;TABLE&gt;">
<polygon fill="none" stroke="black" points="201,-374 201,-391 306,-391 306,-374 201,-374"/>
<text text-anchor="start" x="227.5" y="-380.5" font-family="Arial" font-size="10.00">ClassModel</text>
</a>
<polygon fill="none" stroke="black" points="201,-354 201,-374 306,-374 306,-354 201,-354"/>
<text text-anchor="start" x="206" y="-362" font-family="Arial" font-size="10.00">packageName :String</text>
<polygon fill="none" stroke="black" points="201,-334 201,-354 306,-354 306,-334 201,-334"/>
<text text-anchor="start" x="251.5" y="-342" font-family="Arial" font-size="10.00"> </text>
</g>
<!-- _Clazz -->
<g id="node2" class="node"><title>_Clazz</title>
<a xlink:href="../src/org/sdmlib/models/classes/Clazz.java" xlink:title="&lt;TABLE&gt;">
<polygon fill="none" stroke="black" points="137,-230 137,-247 225,-247 225,-230 137,-230"/>
<text text-anchor="start" x="168.5" y="-236.5" font-family="Arial" font-size="10.00">Clazz</text>
</a>
<polygon fill="none" stroke="black" points="137,-154 137,-230 225,-230 225,-154 137,-154"/>
<text text-anchor="start" x="142" y="-218" font-family="Arial" font-size="10.00">name :String</text>
<text text-anchor="start" x="142" y="-204" font-family="Arial" font-size="10.00">interfaze :boolean</text>
<text text-anchor="start" x="142" y="-190" font-family="Arial" font-size="10.00">external :boolean</text>
<text text-anchor="start" x="142" y="-176" font-family="Arial" font-size="10.00">wrapped :boolean</text>
<text text-anchor="start" x="142" y="-162" font-family="Arial" font-size="10.00">filePath :String</text>
<polygon fill="none" stroke="black" points="137,-134 137,-154 225,-154 225,-134 137,-134"/>
<text text-anchor="start" x="179" y="-142" font-family="Arial" font-size="10.00"> </text>
</g>
<!-- _ClassModel&#45;&gt;_Clazz -->
<g id="edge2" class="edge"><title>_ClassModel&#45;&gt;_Clazz</title>
<path fill="none" stroke="black" d="M239.626,-330.423C230.273,-308.338 217.492,-278.162 206.251,-251.62"/>
<text text-anchor="middle" x="213.677" y="-255.817" font-family="Arial" font-size="10.00">classes *</text>
<text text-anchor="middle" x="232.2" y="-321.225" font-family="Arial" font-size="10.00">classModel</text>
</g>
<!-- _Association -->
<g id="node5" class="node"><title>_Association</title>
<a xlink:href="../src/org/sdmlib/models/classes/Association.java" xlink:title="&lt;TABLE&gt;">
<polygon fill="none" stroke="black" points="296,-202 296,-219 355,-219 355,-202 296,-202"/>
<text text-anchor="start" x="299.5" y="-208.5" font-family="Arial" font-size="10.00">Association</text>
</a>
<polygon fill="none" stroke="black" points="296,-182 296,-202 355,-202 355,-182 296,-182"/>
<text text-anchor="start" x="323.5" y="-190" font-family="Arial" font-size="10.00"> </text>
<polygon fill="none" stroke="black" points="296,-162 296,-182 355,-182 355,-162 296,-162"/>
<text text-anchor="start" x="323.5" y="-170" font-family="Arial" font-size="10.00"> </text>
</g>
<!-- _ClassModel&#45;&gt;_Association -->
<g id="edge12" class="edge"><title>_ClassModel&#45;&gt;_Association</title>
<path fill="none" stroke="black" d="M266.374,-330.423C279.266,-299.984 298.667,-254.175 311.576,-223.696"/>
<text text-anchor="middle" x="311.933" y="-231.19" font-family="Arial" font-size="10.00">associations *</text>
<text text-anchor="middle" x="266.017" y="-317.929" font-family="Arial" font-size="10.00">model</text>
</g>
<!-- _Clazz&#45;&gt;_Clazz -->
<g id="edge4" class="edge"><title>_Clazz&#45;&gt;_Clazz</title>
<path fill="none" stroke="black" d="M233.202,-203.943C243.592,-202.486 251,-198.172 251,-191 251,-183.828 243.592,-179.514 233.202,-178.057"/>
<text text-anchor="middle" x="242.853" y="-172.937" font-family="Arial" font-size="10.00">kidClasses *</text>
<text text-anchor="middle" x="241.413" y="-195.734" font-family="Arial" font-size="10.00">superClass</text>
</g>
<!-- _Clazz&#45;&gt;_Clazz -->
<g id="edge6" class="edge"><title>_Clazz&#45;&gt;_Clazz</title>
<path fill="none" stroke="black" d="M233.399,-217.941C252.926,-218.824 269,-209.844 269,-191 269,-172.156 252.926,-163.176 233.399,-164.059"/>
<text text-anchor="middle" x="242.485" y="-157.382" font-family="Arial" font-size="10.00">kidClassesAsInterface *</text>
<text text-anchor="middle" x="242.439" y="-211.166" font-family="Arial" font-size="10.00">interfaces *</text>
</g>
<!-- _Attribute -->
<g id="node3" class="node"><title>_Attribute</title>
<a xlink:href="../src/org/sdmlib/models/classes/Attribute.java" xlink:title="&lt;TABLE&gt;">
<polygon fill="none" stroke="black" points="8,-72 8,-89 102,-89 102,-72 8,-72"/>
<text text-anchor="start" x="36.5" y="-78.5" font-family="Arial" font-size="10.00">Attribute</text>
</a>
<polygon fill="none" stroke="black" points="8,-24 8,-72 102,-72 102,-24 8,-24"/>
<text text-anchor="start" x="13" y="-60" font-family="Arial" font-size="10.00">name :String</text>
<text text-anchor="start" x="13" y="-46" font-family="Arial" font-size="10.00">type :String</text>
<text text-anchor="start" x="13" y="-32" font-family="Arial" font-size="10.00">initialization :String</text>
<polygon fill="none" stroke="black" points="8,-4 8,-24 102,-24 102,-4 8,-4"/>
<text text-anchor="start" x="53" y="-12" font-family="Arial" font-size="10.00"> </text>
</g>
<!-- _Clazz&#45;&gt;_Attribute -->
<g id="edge8" class="edge"><title>_Clazz&#45;&gt;_Attribute</title>
<path fill="none" stroke="black" d="M128.659,-131.013C117.571,-118.516 106.028,-105.508 95.4603,-93.5982"/>
<text text-anchor="middle" x="104.637" y="-95.0723" font-family="Arial" font-size="10.00">attributes *</text>
<text text-anchor="middle" x="119.483" y="-124.539" font-family="Arial" font-size="10.00">clazz</text>
</g>
<!-- _Method -->
<g id="node4" class="node"><title>_Method</title>
<a xlink:href="../src/org/sdmlib/models/classes/Method.java" xlink:title="&lt;TABLE&gt;">
<polygon fill="none" stroke="black" points="137,-72 137,-89 226,-89 226,-72 137,-72"/>
<text text-anchor="start" x="165" y="-78.5" font-family="Arial" font-size="10.00">Method</text>
</a>
<polygon fill="none" stroke="black" points="137,-24 137,-72 226,-72 226,-24 137,-24"/>
<text text-anchor="start" x="142" y="-60" font-family="Arial" font-size="10.00">signature :String</text>
<text text-anchor="start" x="142" y="-46" font-family="Arial" font-size="10.00">returnType :String</text>
<text text-anchor="start" x="142" y="-32" font-family="Arial" font-size="10.00">body :String</text>
<polygon fill="none" stroke="black" points="137,-4 137,-24 226,-24 226,-4 137,-4"/>
<text text-anchor="start" x="179.5" y="-12" font-family="Arial" font-size="10.00"> </text>
</g>
<!-- _Clazz&#45;&gt;_Method -->
<g id="edge10" class="edge"><title>_Clazz&#45;&gt;_Method</title>
<path fill="none" stroke="black" d="M181,-130.191C181,-118.063 181,-105.489 181,-93.9317"/>
<text text-anchor="middle" x="185.226" y="-100.495" font-family="Arial" font-size="10.00">methods *</text>
<text text-anchor="middle" x="176.774" y="-118.628" font-family="Arial" font-size="10.00">clazz</text>
</g>
<!-- _Role -->
<g id="node6" class="node"><title>_Role</title>
<a xlink:href="../src/org/sdmlib/models/classes/Role.java" xlink:title="&lt;TABLE&gt;">
<polygon fill="none" stroke="black" points="260,-72 260,-89 327,-89 327,-72 260,-72"/>
<text text-anchor="start" x="283.5" y="-78.5" font-family="Arial" font-size="10.00">Role</text>
</a>
<polygon fill="none" stroke="black" points="260,-24 260,-72 327,-72 327,-24 260,-24"/>
<text text-anchor="start" x="265" y="-60" font-family="Arial" font-size="10.00">name :String</text>
<text text-anchor="start" x="265" y="-46" font-family="Arial" font-size="10.00">card :String</text>
<text text-anchor="start" x="265" y="-32" font-family="Arial" font-size="10.00">kind :String</text>
<polygon fill="none" stroke="black" points="260,-4 260,-24 327,-24 327,-4 260,-4"/>
<text text-anchor="start" x="291.5" y="-12" font-family="Arial" font-size="10.00"> </text>
</g>
<!-- _Clazz&#45;&gt;_Role -->
<g id="edge14" class="edge"><title>_Clazz&#45;&gt;_Role</title>
<path fill="none" stroke="black" d="M221.499,-130.191C231.252,-117.609 241.675,-104.545 251.476,-92.6359"/>
<text text-anchor="middle" x="248.996" y="-99.8234" font-family="Arial" font-size="10.00">sourceRoles *</text>
<text text-anchor="middle" x="223.725" y="-117.942" font-family="Arial" font-size="10.00">clazz</text>
</g>
<!-- _Clazz&#45;&gt;_Role -->
<g id="edge16" class="edge"><title>_Clazz&#45;&gt;_Role</title>
<path fill="none" stroke="black" d="M233.199,-132.243C243.581,-119.343 254.134,-105.839 263.448,-93.5156"/>
<text text-anchor="middle" x="261.338" y="-100.79" font-family="Arial" font-size="10.00">targetRoles *</text>
<text text-anchor="middle" x="235.575" y="-120.029" font-family="Arial" font-size="10.00">clazz</text>
</g>
<!-- _Association&#45;&gt;_Role -->
<g id="edge18" class="edge"><title>_Association&#45;&gt;_Role</title>
<path fill="none" stroke="black" d="M317.898,-158.486C313.608,-139.448 308.066,-114.856 303.3,-93.7083"/>
<text text-anchor="middle" x="309.416" y="-99.1205" font-family="Arial" font-size="10.00">source</text>
<text text-anchor="middle" x="311.783" y="-148.073" font-family="Arial" font-size="10.00">assoc</text>
</g>
<!-- _SymTabEntry -->
<g id="node7" class="node"><title>_SymTabEntry</title>
<a xlink:href="../src/org/sdmlib/codegen/SymTabEntry.java" xlink:title="&lt;TABLE&gt;">
<polygon fill="none" stroke="black" points="340,-416 340,-433 444,-433 444,-416 340,-416"/>
<text text-anchor="start" x="362" y="-422.5" font-family="Arial" font-size="10.00">SymTabEntry</text>
</a>
<polygon fill="none" stroke="black" points="340,-312 340,-416 444,-416 444,-312 340,-312"/>
<text text-anchor="start" x="345" y="-404" font-family="Arial" font-size="10.00">kind :String</text>
<text text-anchor="start" x="345" y="-390" font-family="Arial" font-size="10.00">memberName :String</text>
<text text-anchor="start" x="345" y="-376" font-family="Arial" font-size="10.00">type :String</text>
<text text-anchor="start" x="345" y="-362" font-family="Arial" font-size="10.00">startPos :int</text>
<text text-anchor="start" x="345" y="-348" font-family="Arial" font-size="10.00">bodyStartPos :int</text>
<text text-anchor="start" x="345" y="-334" font-family="Arial" font-size="10.00">endPos :int</text>
<text text-anchor="start" x="345" y="-320" font-family="Arial" font-size="10.00">modifiers :String</text>
<polygon fill="none" stroke="black" points="340,-292 340,-312 444,-312 444,-292 340,-292"/>
<text text-anchor="start" x="390" y="-300" font-family="Arial" font-size="10.00"> </text>
</g>
<!-- _LocalVarTableEntry -->
<g id="node8" class="node"><title>_LocalVarTableEntry</title>
<a xlink:href="../src/org/sdmlib/codegen/LocalVarTableEntry.java" xlink:title="&lt;TABLE&gt;">
<polygon fill="none" stroke="black" points="478,-395 478,-412 570,-412 570,-395 478,-395"/>
<text text-anchor="start" x="481.5" y="-401.5" font-family="Arial" font-size="10.00">LocalVarTableEntry</text>
</a>
<polygon fill="none" stroke="black" points="478,-333 478,-395 570,-395 570,-333 478,-333"/>
<text text-anchor="start" x="483" y="-383" font-family="Arial" font-size="10.00">name :String</text>
<text text-anchor="start" x="483" y="-369" font-family="Arial" font-size="10.00">type :String</text>
<text text-anchor="start" x="483" y="-355" font-family="Arial" font-size="10.00">startPos :int</text>
<text text-anchor="start" x="483" y="-341" font-family="Arial" font-size="10.00">endPos :int</text>
<polygon fill="none" stroke="black" points="478,-313 478,-333 570,-333 570,-313 478,-313"/>
<text text-anchor="start" x="522" y="-321" font-family="Arial" font-size="10.00"> </text>
</g>
<!-- _StatementEntry -->
<g id="node9" class="node"><title>_StatementEntry</title>
<a xlink:href="../src/org/sdmlib/codegen/StatementEntry.java" xlink:title="&lt;TABLE&gt;">
<polygon fill="none" stroke="black" points="605,-402 605,-419 744,-419 744,-402 605,-402"/>
<text text-anchor="start" x="640" y="-408.5" font-family="Arial" font-size="10.00">StatementEntry</text>
</a>
<polygon fill="none" stroke="black" points="605,-326 605,-402 744,-402 744,-326 605,-326"/>
<text text-anchor="start" x="610" y="-390" font-family="Arial" font-size="10.00">kind :String</text>
<text text-anchor="start" x="610" y="-376" font-family="Arial" font-size="10.00">tokenList :ArrayList&lt;String&gt;</text>
<text text-anchor="start" x="610" y="-362" font-family="Arial" font-size="10.00">assignTargetVarName :String</text>
<text text-anchor="start" x="610" y="-348" font-family="Arial" font-size="10.00">startPos :int</text>
<text text-anchor="start" x="610" y="-334" font-family="Arial" font-size="10.00">endPos :int</text>
<polygon fill="none" stroke="black" points="605,-306 605,-326 744,-326 744,-306 605,-306"/>
<text text-anchor="start" x="672.5" y="-314" font-family="Arial" font-size="10.00"> </text>
</g>
<!-- _StatementEntry&#45;&gt;_StatementEntry -->
<g id="edge20" class="edge"><title>_StatementEntry&#45;&gt;_StatementEntry</title>
<path fill="none" stroke="black" d="M751.531,-391.61C762.018,-386.814 769,-377.277 769,-363 769,-348.723 762.018,-339.186 751.531,-334.39"/>
<text text-anchor="middle" x="761.521" y="-332.326" font-family="Arial" font-size="10.00">bodyStats *</text>
<text text-anchor="middle" x="757.619" y="-381.177" font-family="Arial" font-size="10.00">parent</text>
</g>
<!-- _String -->
<g id="node22" class="node"><title>_String</title>
<text text-anchor="middle" x="674" y="-188.5" font-family="Arial" font-size="10.00">_String</text>
</g>
<!-- _StatementEntry&#45;&gt;_String -->
<g id="edge22" class="edge"><title>_StatementEntry&#45;&gt;_String</title>
<path fill="none" stroke="black" d="M674,-302.064C674,-273.804 674,-241.485 674,-219.216"/>
<polygon fill="black" stroke="black" points="674,-209.152 678.5,-219.152 674,-214.152 674,-219.152 674,-219.152 674,-219.152 674,-214.152 669.5,-219.152 674,-209.152 674,-209.152"/>
<text text-anchor="middle" x="678.226" y="-215.715" font-family="Arial" font-size="10.00">tokenList</text>
</g>
<!-- _ArrayList -->
<g id="node10" class="node"><title>_ArrayList</title>
<a xlink:href="../src/org/sdmlib/models/classes/ArrayList.java" xlink:title="&lt;TABLE&gt;">
<polygon fill="none" stroke="black" points="796,-374 796,-391 843,-391 843,-374 796,-374"/>
<text text-anchor="start" x="799.5" y="-380.5" font-family="Arial" font-size="10.00">ArrayList</text>
</a>
<polygon fill="none" stroke="black" points="796,-354 796,-374 843,-374 843,-354 796,-354"/>
<text text-anchor="start" x="817.5" y="-362" font-family="Arial" font-size="10.00"> </text>
<polygon fill="none" stroke="black" points="796,-334 796,-354 843,-354 843,-334 796,-334"/>
<text text-anchor="start" x="817.5" y="-342" font-family="Arial" font-size="10.00"> </text>
</g>
</g>
</svg>
