<?xml version="1.0" encoding="UTF-8" standalone="no"?>
<!DOCTYPE svg PUBLIC "-//W3C//DTD SVG 1.1//EN"
 "http://www.w3.org/Graphics/SVG/1.1/DTD/svg11.dtd">
<!-- Generated by graphviz version 2.28.0 (20110507.0327)
 -->
<!-- Title: TaskFlowDiagram Pages: 1 -->
<svg width="320pt" height="182pt"
 viewBox="0.00 0.00 320.00 182.00" xmlns="http://www.w3.org/2000/svg" xmlns:xlink="http://www.w3.org/1999/xlink">
<g id="graph1" class="graph" transform="scale(1 1) rotate(0) translate(4 178)">
<title>TaskFlowDiagram</title>
<polygon fill="white" stroke="white" points="-4,5 -4,-178 317,-178 317,5 -4,5"/>
<g id="graph2" class="cluster"><title>clusterNina</title>
<polygon fill="lightgrey" stroke="lightgrey" points="8,-91 8,-166 304,-166 304,-91 8,-91"/>
<text text-anchor="middle" x="156" y="-150.8" font-family="Times New Roman,serif" font-size="14.00">Nina</text>
</g>
<g id="graph3" class="cluster"><title>clusterchatServer</title>
<polygon fill="lightgrey" stroke="lightgrey" points="117,-8 117,-83 243,-83 243,-8 117,-8"/>
<text text-anchor="middle" x="180" y="-67.8" font-family="Times New Roman,serif" font-size="14.00">chatServer</text>
</g>
<!-- Nina_Start -->
<g id="node2" class="node"><title>Nina_Start</title>
<ellipse fill="none" stroke="black" cx="268" cy="-117" rx="27.4223" ry="18"/>
<text text-anchor="middle" x="268" y="-113.3" font-family="Times New Roman,serif" font-size="14.00">Start</text>
</g>
<!-- chatServer_ServerLogin -->
<g id="node5" class="node"><title>chatServer_ServerLogin</title>
<ellipse fill="none" stroke="black" cx="180" cy="-34" rx="55.3682" ry="18"/>
<text text-anchor="middle" x="180" y="-30.3" font-family="Times New Roman,serif" font-size="14.00">ServerLogin</text>
</g>
<!-- Nina_Start&#45;&gt;chatServer_ServerLogin -->
<g id="edge4" class="edge"><title>Nina_Start&#45;&gt;chatServer_ServerLogin</title>
<path fill="none" stroke="black" d="M252.672,-101.891C239.588,-89.8483 220.514,-72.2917 205.19,-58.1866"/>
<polygon fill="black" stroke="black" points="207.298,-55.3698 197.57,-51.1726 202.558,-60.5202 207.298,-55.3698"/>
</g>
<!-- Nina_ClientHandleAllMessages -->
<g id="node3" class="node"><title>Nina_ClientHandleAllMessages</title>
<ellipse fill="none" stroke="black" cx="119" cy="-117" rx="102.536" ry="18"/>
<text text-anchor="middle" x="119" y="-113.3" font-family="Times New Roman,serif" font-size="14.00">ClientHandleAllMessages</text>
</g>
<!-- chatServer_ServerLogin&#45;&gt;Nina_ClientHandleAllMessages -->
<g id="edge6" class="edge"><title>chatServer_ServerLogin&#45;&gt;Nina_ClientHandleAllMessages</title>
<path fill="none" stroke="black" d="M167.499,-51.5993C159.071,-62.7906 147.788,-77.7733 138.226,-90.471"/>
<polygon fill="black" stroke="black" points="135.156,-88.7283 131.937,-98.822 140.748,-92.9393 135.156,-88.7283"/>
</g>
</g>
</svg>
