<?xml version="1.0" encoding="UTF-8" standalone="no"?>
<!DOCTYPE svg PUBLIC "-//W3C//DTD SVG 1.1//EN"
 "http://www.w3.org/Graphics/SVG/1.1/DTD/svg11.dtd">
<!-- Generated by graphviz version 2.28.0 (20110507.0327)
 -->
<!-- Title: ObjectDiagram Pages: 1 -->
<svg width="1202pt" height="997pt"
 viewBox="0.00 0.00 1201.60 997.00" xmlns="http://www.w3.org/2000/svg" xmlns:xlink="http://www.w3.org/1999/xlink">
<g id="graph1" class="graph" transform="scale(1 1) rotate(0) translate(4 993)">
<title>ObjectDiagram</title>
<polygon fill="white" stroke="white" points="-4,5 -4,-993 1198.6,-993 1198.6,5 -4,5"/>
<g id="graph2" class="cluster"><title>cluster_n3</title>
<polygon fill="none" stroke="grey" points="185,-730 185,-839 293,-839 293,-730 185,-730"/>
<image xlink:href="../../SDMLib/doc/forbiddensign.svg" width="30px" height="30px" preserveAspectRatio="xMinYMin meet" x="197.5" y="-830"/>
<text text-anchor="start" x="234" y="-811.8" font-family="Times New Roman,serif" font-size="14.00">NAC n3</text>
</g>
<g id="graph3" class="cluster"><title>cluster_n5</title>
<polygon fill="none" stroke="grey" points="69,-730 69,-839 177,-839 177,-730 69,-730"/>
<image xlink:href="../../SDMLib/doc/forbiddensign.svg" width="30px" height="30px" preserveAspectRatio="xMinYMin meet" x="81.5" y="-830"/>
<text text-anchor="start" x="118" y="-811.8" font-family="Times New Roman,serif" font-size="14.00">NAC n5</text>
</g>
<!-- g1 -->
<g id="node1" class="node"><title>g1</title>
<polygon fill="deepskyblue" stroke="deepskyblue" points="432,-933.5 432,-984.5 492,-984.5 492,-933.5 432,-933.5"/>
<text text-anchor="start" x="460" y="-974.5" font-family="Times New Roman,serif" font-size="10.00">«bound»</text>
<polygon fill="none" stroke="black" points="432,-953 432,-969 492,-969 492,-953 432,-953"/>
<text text-anchor="start" x="435.5" y="-959" font-family="Times New Roman,serif" font-size="10.00"> </text>
<text text-anchor="start" x="438.5" y="-959" font-family="Times New Roman,serif" font-size="10.00"> g1 :GraphPO </text>
<polygon fill="none" stroke="black" points="432,-933 432,-953 492,-953 492,-933 432,-933"/>
<text text-anchor="start" x="459.5" y="-941" font-family="Times New Roman,serif" font-size="10.00"> &#160;</text>
</g>
<!-- n2 -->
<g id="node2" class="node"><title>n2</title>
<polygon fill="deepskyblue" stroke="deepskyblue" points="226,-851.5 226,-888.5 276,-888.5 276,-851.5 226,-851.5"/>
<polygon fill="none" stroke="black" points="226,-871 226,-888 276,-888 276,-871 226,-871"/>
<text text-anchor="start" x="229.5" y="-877.5" font-family="Times New Roman,serif" font-size="10.00"> </text>
<text text-anchor="start" x="232.5" y="-877.5" font-family="Times New Roman,serif" font-size="10.00"> n2 :NodePO </text>
<polygon fill="none" stroke="black" points="226,-851 226,-871 276,-871 276,-851 226,-851"/>
<text text-anchor="start" x="248.5" y="-859" font-family="Times New Roman,serif" font-size="10.00"> &#160;</text>
</g>
<!-- g1&#45;&#45;n2 -->
<g id="edge14" class="edge"><title>g1&#45;&#45;n2</title>
<path fill="none" stroke="black" d="M423.789,-942.245C383.887,-925.792 321.942,-900.251 284.07,-884.636"/>
<text text-anchor="middle" x="294.06" y="-881.683" font-family="Times New Roman,serif" font-size="10.00">nodes</text>
</g>
<!-- g7 -->
<g id="node8" class="node"><title>g7</title>
<polygon fill="none" stroke="black" points="649,-861 649,-878 698,-878 698,-861 649,-861"/>
<text text-anchor="start" x="652.5" y="-867.5" font-family="Times New Roman,serif" font-size="10.00"> </text>
<text text-anchor="start" x="655.5" y="-867.5" font-family="Times New Roman,serif" font-size="10.00">g7 :Graph</text>
</g>
<!-- g1&#45;&#45;g7 -->
<g id="edge4" class="edge"><title>g1&#45;&#45;g7</title>
<path fill="none" stroke="black" stroke-dasharray="1,5" d="M500.211,-942.245C540.351,-925.694 602.796,-899.947 640.603,-884.358"/>
<text text-anchor="middle" x="633.836" y="-889.22" font-family="Times New Roman,serif" font-size="10.00">match</text>
</g>
<!-- allMatches_n2 -->
<g id="node3" class="node"><title>allMatches_n2</title>
<text text-anchor="middle" x="30" y="-758.5" font-family="Times New Roman,serif" font-size="10.00">allMatches</text>
</g>
<!-- n2&#45;&#45;allMatches_n2 -->
<g id="edge6" class="edge"><title>n2&#45;&#45;allMatches_n2</title>
<path fill="none" stroke="black" stroke-dasharray="1,5" d="M217.741,-867.361C170.849,-864.438 88.3988,-856.863 65,-839 45.8584,-824.387 36.8779,-796.896 32.8954,-779.024"/>
</g>
<!-- e4 -->
<g id="node5" class="node"><title>e4</title>
<polygon fill="deepskyblue" stroke="deepskyblue" points="226.5,-742.5 226.5,-779.5 275.5,-779.5 275.5,-742.5 226.5,-742.5"/>
<polygon fill="none" stroke="black" points="227,-762 227,-779 276,-779 276,-762 227,-762"/>
<text text-anchor="start" x="230.5" y="-768.5" font-family="Times New Roman,serif" font-size="10.00"> </text>
<text text-anchor="start" x="233.5" y="-768.5" font-family="Times New Roman,serif" font-size="10.00"> e4 :EdgePO </text>
<polygon fill="none" stroke="black" points="227,-742 227,-762 276,-762 276,-742 227,-742"/>
<text text-anchor="start" x="249" y="-750" font-family="Times New Roman,serif" font-size="10.00"> &#160;</text>
</g>
<!-- n2&#45;&#45;e4 -->
<g id="edge16" class="edge"><title>n2&#45;&#45;e4</title>
<path fill="none" stroke="black" d="M251,-847.347C251,-828.783 251,-802.176 251,-783.621"/>
<text text-anchor="middle" x="255.226" y="-790.184" font-family="Times New Roman,serif" font-size="10.00">outEdges</text>
</g>
<!-- e6 -->
<g id="node7" class="node"><title>e6</title>
<polygon fill="deepskyblue" stroke="deepskyblue" points="111.5,-742.5 111.5,-779.5 160.5,-779.5 160.5,-742.5 111.5,-742.5"/>
<polygon fill="none" stroke="black" points="112,-762 112,-779 161,-779 161,-762 112,-762"/>
<text text-anchor="start" x="115.5" y="-768.5" font-family="Times New Roman,serif" font-size="10.00"> </text>
<text text-anchor="start" x="118.5" y="-768.5" font-family="Times New Roman,serif" font-size="10.00"> e6 :EdgePO </text>
<polygon fill="none" stroke="black" points="112,-742 112,-762 161,-762 161,-742 112,-742"/>
<text text-anchor="start" x="134" y="-750" font-family="Times New Roman,serif" font-size="10.00"> &#160;</text>
</g>
<!-- n2&#45;&#45;e6 -->
<g id="edge18" class="edge"><title>n2&#45;&#45;e6</title>
<path fill="none" stroke="black" d="M217.885,-859.726C205.312,-855.015 191.505,-848.277 181,-839 163.939,-823.934 151.634,-800.781 144.248,-783.797"/>
<text text-anchor="middle" x="151.815" y="-787.835" font-family="Times New Roman,serif" font-size="10.00">inEdges</text>
</g>
<!-- n8 -->
<g id="node24" class="node"><title>n8</title>
<polygon fill="none" stroke="black" points="310,-762 310,-779 371,-779 371,-762 310,-762"/>
<text text-anchor="start" x="320.5" y="-768.5" font-family="Times New Roman,serif" font-size="10.00"> </text>
<text text-anchor="start" x="323.5" y="-768.5" font-family="Times New Roman,serif" font-size="10.00">n8 :Node</text>
<polygon fill="none" stroke="black" points="310,-742 310,-762 371,-762 371,-742 310,-742"/>
<text text-anchor="start" x="315.5" y="-750" font-family="Times New Roman,serif" font-size="10.00">name = &quot;n8&quot;</text>
</g>
<!-- n2&#45;&#45;n8 -->
<g id="edge8" class="edge"><title>n2&#45;&#45;n8</title>
<path fill="none" stroke="black" stroke-dasharray="1,5" d="M284.214,-850.176C288.801,-846.792 293.226,-843.042 297,-839 312.151,-822.772 323.934,-800.225 331.303,-783.722"/>
<text text-anchor="middle" x="331.376" y="-791.222" font-family="Times New Roman,serif" font-size="10.00">match</text>
</g>
<!-- e9 -->
<g id="node25" class="node"><title>e9</title>
<polygon fill="none" stroke="black" points="350,-680 350,-697 415,-697 415,-680 350,-680"/>
<text text-anchor="start" x="364" y="-686.5" font-family="Times New Roman,serif" font-size="10.00"> </text>
<text text-anchor="start" x="367" y="-686.5" font-family="Times New Roman,serif" font-size="10.00">e9 :Edge</text>
<polygon fill="none" stroke="black" points="350,-660 350,-680 415,-680 415,-660 350,-660"/>
<text text-anchor="start" x="355.5" y="-668" font-family="Times New Roman,serif" font-size="10.00">name = &quot;e16&quot;</text>
</g>
<!-- e4&#45;&#45;e9 -->
<g id="edge10" class="edge"><title>e4&#45;&#45;e9</title>
<path fill="none" stroke="black" stroke-dasharray="1,5" d="M275.652,-738.317C279.361,-735.394 283.213,-732.533 287,-730 304.195,-718.497 324.339,-707.569 341.642,-698.88"/>
<text text-anchor="middle" x="335.47" y="-704.248" font-family="Times New Roman,serif" font-size="10.00">match</text>
</g>
<!-- e10 -->
<g id="node26" class="node"><title>e10</title>
<polygon fill="none" stroke="black" points="251,-680 251,-697 316,-697 316,-680 251,-680"/>
<text text-anchor="start" x="262.5" y="-686.5" font-family="Times New Roman,serif" font-size="10.00"> </text>
<text text-anchor="start" x="265.5" y="-686.5" font-family="Times New Roman,serif" font-size="10.00">e10 :Edge</text>
<polygon fill="none" stroke="black" points="251,-660 251,-680 316,-680 316,-660 251,-660"/>
<text text-anchor="start" x="256.5" y="-668" font-family="Times New Roman,serif" font-size="10.00">name = &quot;e17&quot;</text>
</g>
<!-- e4&#45;&#45;e10 -->
<g id="edge12" class="edge"><title>e4&#45;&#45;e10</title>
<path fill="none" stroke="black" stroke-dasharray="1,5" d="M259.744,-738.14C264.296,-726.759 269.843,-712.893 274.377,-701.557"/>
<text text-anchor="middle" x="274.935" y="-709.041" font-family="Times New Roman,serif" font-size="10.00">candidate</text>
</g>
<!-- n11 -->
<g id="node9" class="node"><title>n11</title>
<polygon fill="none" stroke="black" points="1053,-762 1053,-779 1114,-779 1114,-762 1053,-762"/>
<text text-anchor="start" x="1061.5" y="-768.5" font-family="Times New Roman,serif" font-size="10.00"> </text>
<text text-anchor="start" x="1064.5" y="-768.5" font-family="Times New Roman,serif" font-size="10.00">n11 :Node</text>
<polygon fill="none" stroke="black" points="1053,-742 1053,-762 1114,-762 1114,-742 1053,-742"/>
<text text-anchor="start" x="1058.5" y="-750" font-family="Times New Roman,serif" font-size="10.00">name = &quot;n1&quot;</text>
</g>
<!-- g7&#45;&#45;n11 -->
<g id="edge20" class="edge"><title>g7&#45;&#45;n11</title>
<path fill="none" stroke="black" d="M705.365,-867.854C788.013,-864.707 1002.3,-855.08 1030,-839 1051.33,-826.617 1066.02,-801.793 1074.43,-783.668"/>
<text text-anchor="middle" x="1074.3" y="-791.167" font-family="Times New Roman,serif" font-size="10.00">nodes</text>
<text text-anchor="middle" x="714.252" y="-860.768" font-family="Times New Roman,serif" font-size="10.00">graph</text>
</g>
<!-- e12 -->
<g id="node10" class="node"><title>e12</title>
<polygon fill="none" stroke="black" points="915,-680 915,-697 980,-697 980,-680 915,-680"/>
<text text-anchor="start" x="926.5" y="-686.5" font-family="Times New Roman,serif" font-size="10.00"> </text>
<text text-anchor="start" x="929.5" y="-686.5" font-family="Times New Roman,serif" font-size="10.00">e12 :Edge</text>
<polygon fill="none" stroke="black" points="915,-660 915,-680 980,-680 980,-660 915,-660"/>
<text text-anchor="start" x="920.5" y="-668" font-family="Times New Roman,serif" font-size="10.00">name = &quot;e10&quot;</text>
</g>
<!-- g7&#45;&#45;e12 -->
<g id="edge40" class="edge"><title>g7&#45;&#45;e12</title>
<path fill="none" stroke="black" d="M705.291,-867.985C776.356,-865.419 941.335,-857.511 958,-839 992.065,-801.162 971.479,-735.576 957.205,-701.678"/>
<text text-anchor="middle" x="964.487" y="-706.031" font-family="Times New Roman,serif" font-size="10.00">edges</text>
<text text-anchor="middle" x="714.181" y="-860.908" font-family="Times New Roman,serif" font-size="10.00">graph</text>
</g>
<!-- n13 -->
<g id="node11" class="node"><title>n13</title>
<polygon fill="none" stroke="black" points="748,-598 748,-615 809,-615 809,-598 748,-598"/>
<text text-anchor="start" x="756.5" y="-604.5" font-family="Times New Roman,serif" font-size="10.00"> </text>
<text text-anchor="start" x="759.5" y="-604.5" font-family="Times New Roman,serif" font-size="10.00">n13 :Node</text>
<polygon fill="none" stroke="black" points="748,-578 748,-598 809,-598 809,-578 748,-578"/>
<text text-anchor="start" x="753.5" y="-586" font-family="Times New Roman,serif" font-size="10.00">name = &quot;n2&quot;</text>
</g>
<!-- g7&#45;&#45;n13 -->
<g id="edge22" class="edge"><title>g7&#45;&#45;n13</title>
<path fill="none" stroke="black" d="M705.415,-855.819C712.802,-851.452 719.951,-845.896 725,-839 750.751,-803.83 769.053,-672.287 775.476,-619.813"/>
<text text-anchor="middle" x="778.526" y="-626.836" font-family="Times New Roman,serif" font-size="10.00">nodes</text>
<text text-anchor="middle" x="710.952" y="-844.992" font-family="Times New Roman,serif" font-size="10.00">graph</text>
</g>
<!-- e14 -->
<g id="node12" class="node"><title>e14</title>
<polygon fill="none" stroke="black" points="744,-516 744,-533 809,-533 809,-516 744,-516"/>
<text text-anchor="start" x="755.5" y="-522.5" font-family="Times New Roman,serif" font-size="10.00"> </text>
<text text-anchor="start" x="758.5" y="-522.5" font-family="Times New Roman,serif" font-size="10.00">e14 :Edge</text>
<polygon fill="none" stroke="black" points="744,-496 744,-516 809,-516 809,-496 744,-496"/>
<text text-anchor="start" x="749.5" y="-504" font-family="Times New Roman,serif" font-size="10.00">name = &quot;e11&quot;</text>
</g>
<!-- g7&#45;&#45;e14 -->
<g id="edge42" class="edge"><title>g7&#45;&#45;e14</title>
<path fill="none" stroke="black" d="M681.979,-851.872C683.865,-847.743 685.681,-843.285 687,-839 722.118,-724.967 681.817,-683.157 730,-574 735.865,-560.714 745.514,-547.857 754.465,-537.638"/>
<text text-anchor="middle" x="751.762" y="-544.765" font-family="Times New Roman,serif" font-size="10.00">edges</text>
<text text-anchor="middle" x="681.856" y="-839.373" font-family="Times New Roman,serif" font-size="10.00">graph</text>
</g>
<!-- n15 -->
<g id="node13" class="node"><title>n15</title>
<polygon fill="none" stroke="black" points="746,-434 746,-451 807,-451 807,-434 746,-434"/>
<text text-anchor="start" x="754.5" y="-440.5" font-family="Times New Roman,serif" font-size="10.00"> </text>
<text text-anchor="start" x="757.5" y="-440.5" font-family="Times New Roman,serif" font-size="10.00">n15 :Node</text>
<polygon fill="none" stroke="black" points="746,-414 746,-434 807,-434 807,-414 746,-414"/>
<text text-anchor="start" x="751.5" y="-422" font-family="Times New Roman,serif" font-size="10.00">name = &quot;n3&quot;</text>
</g>
<!-- g7&#45;&#45;n15 -->
<g id="edge24" class="edge"><title>g7&#45;&#45;n15</title>
<path fill="none" stroke="black" d="M705.344,-867.972C780.225,-865.295 960.678,-857.026 981,-839 1035.13,-790.983 1016,-752.359 1016,-680 1016,-680 1016,-680 1016,-596 1016,-499.858 882.053,-456.951 814.294,-441.397"/>
<text text-anchor="middle" x="824.11" y="-436.988" font-family="Times New Roman,serif" font-size="10.00">nodes</text>
<text text-anchor="middle" x="714.238" y="-860.901" font-family="Times New Roman,serif" font-size="10.00">graph</text>
</g>
<!-- e16 -->
<g id="node14" class="node"><title>e16</title>
<polygon fill="none" stroke="black" points="1051,-352 1051,-369 1116,-369 1116,-352 1051,-352"/>
<text text-anchor="start" x="1062.5" y="-358.5" font-family="Times New Roman,serif" font-size="10.00"> </text>
<text text-anchor="start" x="1065.5" y="-358.5" font-family="Times New Roman,serif" font-size="10.00">e16 :Edge</text>
<polygon fill="none" stroke="black" points="1051,-332 1051,-352 1116,-352 1116,-332 1051,-332"/>
<text text-anchor="start" x="1056.5" y="-340" font-family="Times New Roman,serif" font-size="10.00">name = &quot;e12&quot;</text>
</g>
<!-- g7&#45;&#45;e16 -->
<g id="edge44" class="edge"><title>g7&#45;&#45;e16</title>
<path fill="none" stroke="black" d="M705.438,-869.205C804.665,-869.515 1099.26,-867.966 1130,-839 1181.84,-790.16 1150,-751.224 1150,-680 1150,-680 1150,-680 1150,-514 1150,-460.281 1118.15,-403.63 1098.37,-373.624"/>
<text text-anchor="middle" x="1106.82" y="-376.481" font-family="Times New Roman,serif" font-size="10.00">edges</text>
<text text-anchor="middle" x="714.503" y="-862.482" font-family="Times New Roman,serif" font-size="10.00">graph</text>
</g>
<!-- e17 -->
<g id="node15" class="node"><title>e17</title>
<polygon fill="none" stroke="black" points="634,-352 634,-369 699,-369 699,-352 634,-352"/>
<text text-anchor="start" x="645.5" y="-358.5" font-family="Times New Roman,serif" font-size="10.00"> </text>
<text text-anchor="start" x="648.5" y="-358.5" font-family="Times New Roman,serif" font-size="10.00">e17 :Edge</text>
<polygon fill="none" stroke="black" points="634,-332 634,-352 699,-352 699,-332 634,-332"/>
<text text-anchor="start" x="639.5" y="-340" font-family="Times New Roman,serif" font-size="10.00">name = &quot;e13&quot;</text>
</g>
<!-- g7&#45;&#45;e17 -->
<g id="edge46" class="edge"><title>g7&#45;&#45;e17</title>
<path fill="none" stroke="black" d="M663.986,-851.883C662.102,-847.753 660.296,-843.292 659,-839 638.343,-770.583 635,-751.467 635,-680 635,-680 635,-680 635,-514 635,-463.029 649.987,-404.619 659.12,-373.757"/>
<text text-anchor="middle" x="660.673" y="-381.136" font-family="Times New Roman,serif" font-size="10.00">edges</text>
<text text-anchor="middle" x="656.409" y="-842.857" font-family="Times New Roman,serif" font-size="10.00">graph</text>
</g>
<!-- n18 -->
<g id="node16" class="node"><title>n18</title>
<polygon fill="none" stroke="black" points="617,-270 617,-287 678,-287 678,-270 617,-270"/>
<text text-anchor="start" x="625.5" y="-276.5" font-family="Times New Roman,serif" font-size="10.00"> </text>
<text text-anchor="start" x="628.5" y="-276.5" font-family="Times New Roman,serif" font-size="10.00">n18 :Node</text>
<polygon fill="none" stroke="black" points="617,-250 617,-270 678,-270 678,-250 617,-250"/>
<text text-anchor="start" x="622.5" y="-258" font-family="Times New Roman,serif" font-size="10.00">name = &quot;n4&quot;</text>
</g>
<!-- g7&#45;&#45;n18 -->
<g id="edge26" class="edge"><title>g7&#45;&#45;n18</title>
<path fill="none" stroke="black" d="M644.754,-851.899C640.283,-848.131 636.116,-843.808 633,-839 593.598,-778.195 597,-752.455 597,-680 597,-680 597,-680 597,-432 597,-385.013 600.518,-372.363 616,-328 620.402,-315.388 627.255,-302.189 633.4,-291.574"/>
<text text-anchor="middle" x="632.574" y="-299.04" font-family="Times New Roman,serif" font-size="10.00">nodes</text>
<text text-anchor="middle" x="635.129" y="-846.685" font-family="Times New Roman,serif" font-size="10.00">graph</text>
</g>
<!-- e19 -->
<g id="node17" class="node"><title>e19</title>
<polygon fill="none" stroke="black" points="615,-188 615,-205 680,-205 680,-188 615,-188"/>
<text text-anchor="start" x="626.5" y="-194.5" font-family="Times New Roman,serif" font-size="10.00"> </text>
<text text-anchor="start" x="629.5" y="-194.5" font-family="Times New Roman,serif" font-size="10.00">e19 :Edge</text>
<polygon fill="none" stroke="black" points="615,-168 615,-188 680,-188 680,-168 615,-168"/>
<text text-anchor="start" x="620.5" y="-176" font-family="Times New Roman,serif" font-size="10.00">name = &quot;e14&quot;</text>
</g>
<!-- g7&#45;&#45;e19 -->
<g id="edge48" class="edge"><title>g7&#45;&#45;e19</title>
<path fill="none" stroke="black" d="M674.752,-851.788C683.491,-765.39 721.684,-381.043 715,-328 710.296,-290.675 710.899,-279.612 694,-246 687.363,-232.8 677.317,-219.854 668.214,-209.554"/>
<text text-anchor="middle" x="677.351" y="-211.119" font-family="Times New Roman,serif" font-size="10.00">edges</text>
<text text-anchor="middle" x="671.451" y="-839.848" font-family="Times New Roman,serif" font-size="10.00">graph</text>
</g>
<!-- n20 -->
<g id="node18" class="node"><title>n20</title>
<polygon fill="none" stroke="black" points="587,-106 587,-123 648,-123 648,-106 587,-106"/>
<text text-anchor="start" x="595.5" y="-112.5" font-family="Times New Roman,serif" font-size="10.00"> </text>
<text text-anchor="start" x="598.5" y="-112.5" font-family="Times New Roman,serif" font-size="10.00">n20 :Node</text>
<polygon fill="none" stroke="black" points="587,-86 587,-106 648,-106 648,-86 587,-86"/>
<text text-anchor="start" x="592.5" y="-94" font-family="Times New Roman,serif" font-size="10.00">name = &quot;n5&quot;</text>
</g>
<!-- g7&#45;&#45;n20 -->
<g id="edge28" class="edge"><title>g7&#45;&#45;n20</title>
<path fill="none" stroke="black" d="M640.736,-864.181C624.491,-860.117 605.794,-852.658 594,-839 546.71,-784.233 559,-752.359 559,-680 559,-680 559,-680 559,-268 559,-215.124 586.726,-157.923 603.839,-127.654"/>
<text text-anchor="middle" x="603.18" y="-135.133" font-family="Times New Roman,serif" font-size="10.00">nodes</text>
<text text-anchor="middle" x="630.888" y="-863.416" font-family="Times New Roman,serif" font-size="10.00">graph</text>
</g>
<!-- e21 -->
<g id="node19" class="node"><title>e21</title>
<polygon fill="none" stroke="black" points="469,-24 469,-41 534,-41 534,-24 469,-24"/>
<text text-anchor="start" x="480.5" y="-30.5" font-family="Times New Roman,serif" font-size="10.00"> </text>
<text text-anchor="start" x="483.5" y="-30.5" font-family="Times New Roman,serif" font-size="10.00">e21 :Edge</text>
<polygon fill="none" stroke="black" points="469,-4 469,-24 534,-24 534,-4 469,-4"/>
<text text-anchor="start" x="474.5" y="-12" font-family="Times New Roman,serif" font-size="10.00">name = &quot;e18&quot;</text>
</g>
<!-- g7&#45;&#45;e21 -->
<g id="edge36" class="edge"><title>g7&#45;&#45;e21</title>
<path fill="none" stroke="black" d="M640.421,-867.023C599.44,-863.847 532.32,-856.131 515,-839 463.75,-788.309 483,-752.084 483,-680 483,-680 483,-680 483,-186 483,-135.488 491.751,-76.6555 497.05,-45.6636"/>
<text text-anchor="middle" x="499.73" y="-52.7977" font-family="Times New Roman,serif" font-size="10.00">edges</text>
<text text-anchor="middle" x="631.036" y="-867.975" font-family="Times New Roman,serif" font-size="10.00">graph</text>
</g>
<!-- e22 -->
<g id="node20" class="node"><title>e22</title>
<polygon fill="none" stroke="black" points="585,-24 585,-41 650,-41 650,-24 585,-24"/>
<text text-anchor="start" x="596.5" y="-30.5" font-family="Times New Roman,serif" font-size="10.00"> </text>
<text text-anchor="start" x="599.5" y="-30.5" font-family="Times New Roman,serif" font-size="10.00">e22 :Edge</text>
<polygon fill="none" stroke="black" points="585,-4 585,-24 650,-24 650,-4 585,-4"/>
<text text-anchor="start" x="590.5" y="-12" font-family="Times New Roman,serif" font-size="10.00">name = &quot;e15&quot;</text>
</g>
<!-- g7&#45;&#45;e22 -->
<g id="edge50" class="edge"><title>g7&#45;&#45;e22</title>
<path fill="none" stroke="black" d="M640.6,-869.721C613.664,-868.49 576.263,-862.225 554,-839 504.057,-786.898 521,-752.173 521,-680 521,-680 521,-680 521,-186 521,-129.115 565.35,-74.7182 593.761,-45.7065"/>
<text text-anchor="middle" x="590.598" y="-52.6931" font-family="Times New Roman,serif" font-size="10.00">edges</text>
<text text-anchor="middle" x="631.287" y="-870.863" font-family="Times New Roman,serif" font-size="10.00">graph</text>
</g>
<!-- e23 -->
<g id="node21" class="node"><title>e23</title>
<polygon fill="none" stroke="black" points="920,-24 920,-41 985,-41 985,-24 920,-24"/>
<text text-anchor="start" x="931.5" y="-30.5" font-family="Times New Roman,serif" font-size="10.00"> </text>
<text text-anchor="start" x="934.5" y="-30.5" font-family="Times New Roman,serif" font-size="10.00">e23 :Edge</text>
<polygon fill="none" stroke="black" points="920,-4 920,-24 985,-24 985,-4 920,-4"/>
<text text-anchor="start" x="925.5" y="-12" font-family="Times New Roman,serif" font-size="10.00">name = &quot;e19&quot;</text>
</g>
<!-- g7&#45;&#45;e23 -->
<g id="edge38" class="edge"><title>g7&#45;&#45;e23</title>
<path fill="none" stroke="black" d="M705.509,-869.256C808.72,-869.761 1124.2,-868.829 1158,-839 1211.92,-791.417 1188,-751.914 1188,-680 1188,-680 1188,-680 1188,-186 1188,-92.1979 1059.71,-48.6511 992.302,-32.2452"/>
<text text-anchor="middle" x="1002.14" y="-27.9675" font-family="Times New Roman,serif" font-size="10.00">edges</text>
<text text-anchor="middle" x="714.581" y="-862.549" font-family="Times New Roman,serif" font-size="10.00">graph</text>
</g>
<!-- n24 -->
<g id="node22" class="node"><title>n24</title>
<polygon fill="none" stroke="black" points="786,-762 786,-779 847,-779 847,-762 786,-762"/>
<text text-anchor="start" x="794.5" y="-768.5" font-family="Times New Roman,serif" font-size="10.00"> </text>
<text text-anchor="start" x="797.5" y="-768.5" font-family="Times New Roman,serif" font-size="10.00">n24 :Node</text>
<polygon fill="none" stroke="black" points="786,-742 786,-762 847,-762 847,-742 786,-742"/>
<text text-anchor="start" x="791.5" y="-750" font-family="Times New Roman,serif" font-size="10.00">name = &quot;n6&quot;</text>
</g>
<!-- g7&#45;&#45;n24 -->
<g id="edge30" class="edge"><title>g7&#45;&#45;n24</title>
<path fill="none" stroke="black" d="M705.364,-863.504C723.652,-859.172 746.152,-851.672 763,-839 782.195,-824.563 796.91,-801.083 805.909,-783.842"/>
<text text-anchor="middle" x="805.345" y="-791.326" font-family="Times New Roman,serif" font-size="10.00">nodes</text>
<text text-anchor="middle" x="713.136" y="-854.711" font-family="Times New Roman,serif" font-size="10.00">graph</text>
</g>
<!-- n25 -->
<g id="node23" class="node"><title>n25</title>
<polygon fill="none" stroke="black" points="881,-762 881,-779 942,-779 942,-762 881,-762"/>
<text text-anchor="start" x="889.5" y="-768.5" font-family="Times New Roman,serif" font-size="10.00"> </text>
<text text-anchor="start" x="892.5" y="-768.5" font-family="Times New Roman,serif" font-size="10.00">n25 :Node</text>
<polygon fill="none" stroke="black" points="881,-742 881,-762 942,-762 942,-742 881,-742"/>
<text text-anchor="start" x="886.5" y="-750" font-family="Times New Roman,serif" font-size="10.00">name = &quot;n7&quot;</text>
</g>
<!-- g7&#45;&#45;n25 -->
<g id="edge32" class="edge"><title>g7&#45;&#45;n25</title>
<path fill="none" stroke="black" d="M705.488,-867.108C752.789,-863.82 837.733,-855.734 863,-839 882.831,-825.865 895.968,-801.436 903.408,-783.606"/>
<text text-anchor="middle" x="903.67" y="-791.102" font-family="Times New Roman,serif" font-size="10.00">nodes</text>
<text text-anchor="middle" x="714.212" y="-859.72" font-family="Times New Roman,serif" font-size="10.00">graph</text>
</g>
<!-- g7&#45;&#45;n8 -->
<g id="edge34" class="edge"><title>g7&#45;&#45;n8</title>
<path fill="none" stroke="black" d="M640.355,-868.864C575.699,-868.058 434.054,-863.461 393,-839 371.809,-826.374 357.098,-801.596 348.642,-783.547"/>
<text text-anchor="middle" x="356.409" y="-787.347" font-family="Times New Roman,serif" font-size="10.00">nodes</text>
<text text-anchor="middle" x="631.221" y="-870.433" font-family="Times New Roman,serif" font-size="10.00">graph</text>
</g>
<!-- g7&#45;&#45;e9 -->
<g id="edge52" class="edge"><title>g7&#45;&#45;e9</title>
<path fill="none" stroke="black" d="M640.707,-867.988C590.146,-865.797 495.341,-859.066 469,-839 426.892,-806.923 448.152,-775.439 421,-730 415.127,-720.172 407.589,-710.077 400.709,-701.554"/>
<text text-anchor="middle" x="409.67" y="-703.492" font-family="Times New Roman,serif" font-size="10.00">edges</text>
<text text-anchor="middle" x="631.449" y="-869.265" font-family="Times New Roman,serif" font-size="10.00">graph</text>
</g>
<!-- g7&#45;&#45;e10 -->
<g id="edge54" class="edge"><title>g7&#45;&#45;e10</title>
<path fill="none" stroke="black" d="M640.667,-869.381C580.323,-869.427 453.697,-866.177 421,-839 381.974,-806.563 420.175,-768.401 387,-730 384.626,-727.252 351.577,-711.576 323.363,-698.499"/>
<text text-anchor="middle" x="333.363" y="-695.987" font-family="Times New Roman,serif" font-size="10.00">edges</text>
<text text-anchor="middle" x="631.582" y="-871.059" font-family="Times New Roman,serif" font-size="10.00">graph</text>
</g>
<!-- n11&#45;&#45;e12 -->
<g id="edge56" class="edge"><title>n11&#45;&#45;e12</title>
<path fill="none" stroke="black" d="M1046.2,-738.351C1026.84,-726.967 1003.19,-713.052 983.833,-701.666"/>
<text text-anchor="middle" x="993.788" y="-700.119" font-family="Times New Roman,serif" font-size="10.00">outEdges</text>
<text text-anchor="middle" x="1036.24" y="-734.898" font-family="Times New Roman,serif" font-size="10.00">src</text>
</g>
<!-- n11&#45;&#45;e16 -->
<g id="edge58" class="edge"><title>n11&#45;&#45;e16</title>
<path fill="none" stroke="black" d="M1083,-738.251C1083,-707.157 1083,-648.203 1083,-598 1083,-598 1083,-598 1083,-514 1083,-463.797 1083,-404.843 1083,-373.749"/>
<text text-anchor="middle" x="1087.23" y="-380.312" font-family="Times New Roman,serif" font-size="10.00">inEdges</text>
<text text-anchor="middle" x="1078.77" y="-726.688" font-family="Times New Roman,serif" font-size="10.00">tgt</text>
</g>
<!-- e12&#45;&#45;n13 -->
<g id="edge60" class="edge"><title>e12&#45;&#45;n13</title>
<path fill="none" stroke="black" d="M906.52,-658.838C879.178,-645.895 843.305,-628.913 816.408,-616.181"/>
<text text-anchor="middle" x="826.408" y="-613.739" font-family="Times New Roman,serif" font-size="10.00">tgt</text>
<text text-anchor="middle" x="896.52" y="-656.28" font-family="Times New Roman,serif" font-size="10.00">inEdges</text>
</g>
<!-- n13&#45;&#45;e14 -->
<g id="edge62" class="edge"><title>n13&#45;&#45;e14</title>
<path fill="none" stroke="black" d="M777.453,-574.14C777.169,-562.759 776.822,-548.893 776.539,-537.557"/>
<text text-anchor="middle" x="780.99" y="-544.012" font-family="Times New Roman,serif" font-size="10.00">outEdges</text>
<text text-anchor="middle" x="773.002" y="-562.685" font-family="Times New Roman,serif" font-size="10.00">src</text>
</g>
<!-- e14&#45;&#45;n15 -->
<g id="edge64" class="edge"><title>e14&#45;&#45;n15</title>
<path fill="none" stroke="black" d="M776,-492.14C776,-480.759 776,-466.893 776,-455.557"/>
<text text-anchor="middle" x="780.226" y="-462.12" font-family="Times New Roman,serif" font-size="10.00">tgt</text>
<text text-anchor="middle" x="771.774" y="-480.577" font-family="Times New Roman,serif" font-size="10.00">inEdges</text>
</g>
<!-- n15&#45;&#45;e16 -->
<g id="edge66" class="edge"><title>n15&#45;&#45;e16</title>
<path fill="none" stroke="black" d="M814.261,-422.03C872.447,-406.867 982.695,-378.138 1042.3,-362.606"/>
<text text-anchor="middle" x="1034.6" y="-366.481" font-family="Times New Roman,serif" font-size="10.00">outEdges</text>
<text text-anchor="middle" x="821.966" y="-413.155" font-family="Times New Roman,serif" font-size="10.00">src</text>
</g>
<!-- n15&#45;&#45;e17 -->
<g id="edge68" class="edge"><title>n15&#45;&#45;e17</title>
<path fill="none" stroke="black" d="M746.232,-410.351C730.58,-398.967 711.447,-385.052 695.791,-373.666"/>
<text text-anchor="middle" x="705.607" y="-373.079" font-family="Times New Roman,serif" font-size="10.00">outEdges</text>
<text text-anchor="middle" x="736.417" y="-405.938" font-family="Times New Roman,serif" font-size="10.00">src</text>
</g>
<!-- n15&#45;&#45;e22 -->
<g id="edge70" class="edge"><title>n15&#45;&#45;e22</title>
<path fill="none" stroke="black" d="M775.781,-410.252C775.486,-379.158 775,-320.204 775,-270 775,-270 775,-270 775,-186 775,-118.623 704.09,-68.8159 657.279,-43.2762"/>
<text text-anchor="middle" x="667.245" y="-41.6032" font-family="Times New Roman,serif" font-size="10.00">inEdges</text>
<text text-anchor="middle" x="771.471" y="-398.728" font-family="Times New Roman,serif" font-size="10.00">tgt</text>
</g>
<!-- e17&#45;&#45;n18 -->
<g id="edge72" class="edge"><title>e17&#45;&#45;n18</title>
<path fill="none" stroke="black" d="M660.808,-328.14C658.105,-316.759 654.812,-302.893 652.12,-291.557"/>
<text text-anchor="middle" x="658.326" y="-296.898" font-family="Times New Roman,serif" font-size="10.00">tgt</text>
<text text-anchor="middle" x="654.602" y="-317.798" font-family="Times New Roman,serif" font-size="10.00">inEdges</text>
</g>
<!-- n18&#45;&#45;e19 -->
<g id="edge74" class="edge"><title>n18&#45;&#45;e19</title>
<path fill="none" stroke="black" d="M647,-246.14C647,-234.759 647,-220.893 647,-209.557"/>
<text text-anchor="middle" x="651.226" y="-216.12" font-family="Times New Roman,serif" font-size="10.00">outEdges</text>
<text text-anchor="middle" x="642.774" y="-234.577" font-family="Times New Roman,serif" font-size="10.00">src</text>
</g>
<!-- e19&#45;&#45;n20 -->
<g id="edge76" class="edge"><title>e19&#45;&#45;n20</title>
<path fill="none" stroke="black" d="M638.802,-164.14C634.535,-152.759 629.335,-138.893 625.084,-127.557"/>
<text text-anchor="middle" x="632.223" y="-132.059" font-family="Times New Roman,serif" font-size="10.00">tgt</text>
<text text-anchor="middle" x="631.663" y="-154.638" font-family="Times New Roman,serif" font-size="10.00">inEdges</text>
</g>
<!-- n20&#45;&#45;e21 -->
<g id="edge78" class="edge"><title>n20&#45;&#45;e21</title>
<path fill="none" stroke="black" d="M585.609,-82.3508C569.103,-70.9674 548.926,-57.0524 532.416,-45.6665"/>
<text text-anchor="middle" x="542.277" y="-44.8328" font-family="Times New Roman,serif" font-size="10.00">outEdges</text>
<text text-anchor="middle" x="575.749" y="-78.1845" font-family="Times New Roman,serif" font-size="10.00">src</text>
</g>
<!-- n20&#45;&#45;e22 -->
<g id="edge80" class="edge"><title>n20&#45;&#45;e22</title>
<path fill="none" stroke="black" d="M617,-82.1396C617,-70.759 617,-56.8929 617,-45.5569"/>
<text text-anchor="middle" x="621.226" y="-52.12" font-family="Times New Roman,serif" font-size="10.00">outEdges</text>
<text text-anchor="middle" x="612.774" y="-70.5766" font-family="Times New Roman,serif" font-size="10.00">src</text>
</g>
<!-- n20&#45;&#45;e23 -->
<g id="edge82" class="edge"><title>n20&#45;&#45;e23</title>
<path fill="none" stroke="black" d="M655.429,-94.823C719.276,-79.5759 846.607,-49.1685 911.682,-33.6281"/>
<text text-anchor="middle" x="903.849" y="-37.3438" font-family="Times New Roman,serif" font-size="10.00">inEdges</text>
<text text-anchor="middle" x="663.262" y="-86.1073" font-family="Times New Roman,serif" font-size="10.00">tgt</text>
</g>
<!-- n8&#45;&#45;e9 -->
<g id="edge84" class="edge"><title>n8&#45;&#45;e9</title>
<path fill="none" stroke="black" d="M351.477,-738.14C357.452,-726.759 364.731,-712.893 370.683,-701.557"/>
<text text-anchor="middle" x="370.212" y="-709.046" font-family="Times New Roman,serif" font-size="10.00">outEdges_inEdges</text>
<text text-anchor="middle" x="351.948" y="-725.651" font-family="Times New Roman,serif" font-size="10.00">src_tgt</text>
</g>
<!-- n8&#45;&#45;e10 -->
<g id="edge86" class="edge"><title>n8&#45;&#45;e10</title>
<path fill="none" stroke="black" d="M324.424,-738.14C316.316,-726.759 306.436,-712.893 298.359,-701.557"/>
<text text-anchor="middle" x="307.06" y="-703.986" font-family="Times New Roman,serif" font-size="10.00">outEdges_inEdges</text>
<text text-anchor="middle" x="315.724" y="-730.711" font-family="Times New Roman,serif" font-size="10.00">src_tgt</text>
</g>
</g>
</svg>
