<?xml version="1.0" encoding="UTF-8" standalone="no"?>
<!DOCTYPE svg PUBLIC "-//W3C//DTD SVG 1.1//EN"
 "http://www.w3.org/Graphics/SVG/1.1/DTD/svg11.dtd">
<!-- Generated by graphviz version 2.28.0 (20110507.0327)
 -->
<!-- Title: ObjectDiagram Pages: 1 -->
<svg width="1058pt" height="1298pt"
 viewBox="0.00 0.00 1057.68 1298.00" xmlns="http://www.w3.org/2000/svg" xmlns:xlink="http://www.w3.org/1999/xlink">
<g id="graph1" class="graph" transform="scale(1 1) rotate(0) translate(4 1294)">
<title>ObjectDiagram</title>
<polygon fill="white" stroke="white" points="-4,5 -4,-1294 1054.68,-1294 1054.68,5 -4,5"/>
<!-- g1 -->
<g id="node1" class="node"><title>g1</title>
<polygon fill="deepskyblue" stroke="deepskyblue" points="298.853,-1234.5 298.853,-1285.5 373.853,-1285.5 373.853,-1234.5 298.853,-1234.5"/>
<text text-anchor="start" x="335.353" y="-1275.5" font-family="Arial" font-size="10.00">«bound»</text>
<polygon fill="none" stroke="black" points="299.353,-1254 299.353,-1270 374.353,-1270 374.353,-1254 299.353,-1254"/>
<text text-anchor="start" x="302.853" y="-1260" font-family="Arial" font-size="10.00"> </text>
<text text-anchor="start" x="306.853" y="-1260" font-family="Arial" font-size="10.00"> g1 :GraphPO </text>
<polygon fill="none" stroke="black" points="299.353,-1234 299.353,-1254 374.353,-1254 374.353,-1234 299.353,-1234"/>
<text text-anchor="start" x="333.353" y="-1242" font-family="Arial" font-size="10.00"> &#160;</text>
</g>
<!-- n2 -->
<g id="node2" class="node"><title>n2</title>
<polygon fill="deepskyblue" stroke="deepskyblue" points="205.853,-1152.5 205.853,-1189.5 264.853,-1189.5 264.853,-1152.5 205.853,-1152.5"/>
<polygon fill="none" stroke="black" points="206.353,-1172 206.353,-1189 265.353,-1189 265.353,-1172 206.353,-1172"/>
<text text-anchor="start" x="209.853" y="-1178.5" font-family="Arial" font-size="10.00"> </text>
<text text-anchor="start" x="213.853" y="-1178.5" font-family="Arial" font-size="10.00"> n2 :NodePO </text>
<polygon fill="none" stroke="black" points="206.353,-1152 206.353,-1172 265.353,-1172 265.353,-1152 206.353,-1152"/>
<text text-anchor="start" x="232.353" y="-1160" font-family="Arial" font-size="10.00"> &#160;</text>
</g>
<!-- g1&#45;&#45;n2 -->
<g id="edge16" class="edge"><title>g1&#45;&#45;n2</title>
<path fill="none" stroke="black" d="M303.001,-1230.27C289.096,-1218.29 273.223,-1204.62 260.348,-1193.53"/>
<text text-anchor="middle" x="269.973" y="-1193.74" font-family="Arial" font-size="10.00">nodes</text>
</g>
<!-- g8 -->
<g id="node10" class="node"><title>g8</title>
<a xlink:href="../examples/org/sdmlib/examples/helloworld/Graph.java" xlink:title="&lt;TABLE&gt;">
<polygon fill="none" stroke="black" points="494.353,-834 494.353,-851 548.353,-851 548.353,-834 494.353,-834"/>
<text text-anchor="start" x="497.853" y="-840.5" font-family="Arial" font-size="10.00"> </text>
<text text-anchor="start" x="501.853" y="-840.5" font-family="Arial" font-size="10.00">g8 :Graph</text>
</a>
</g>
<!-- g1&#45;&#45;g8 -->
<g id="edge2" class="edge"><title>g1&#45;&#45;g8</title>
<path fill="none" stroke="black" stroke-dasharray="1,5" d="M361.75,-1230.47C387.43,-1198.59 423.353,-1144.28 423.353,-1090 423.353,-1090 423.353,-1090 423.353,-1006 423.353,-945.846 473.431,-888.911 501.991,-861.332"/>
<text text-anchor="middle" x="498.564" y="-868.226" font-family="Arial" font-size="10.00">match</text>
</g>
<!-- e3 -->
<g id="node3" class="node"><title>e3</title>
<polygon fill="deepskyblue" stroke="deepskyblue" points="173.353,-1070.5 173.353,-1107.5 231.353,-1107.5 231.353,-1070.5 173.353,-1070.5"/>
<polygon fill="none" stroke="black" points="173.353,-1090 173.353,-1107 231.353,-1107 231.353,-1090 173.353,-1090"/>
<text text-anchor="start" x="176.853" y="-1096.5" font-family="Arial" font-size="10.00"> </text>
<text text-anchor="start" x="180.853" y="-1096.5" font-family="Arial" font-size="10.00"> e3 :EdgePO </text>
<polygon fill="none" stroke="black" points="173.353,-1070 173.353,-1090 231.353,-1090 231.353,-1070 173.353,-1070"/>
<text text-anchor="start" x="198.853" y="-1078" font-family="Arial" font-size="10.00"> &#160;</text>
</g>
<!-- n2&#45;&#45;e3 -->
<g id="edge18" class="edge"><title>n2&#45;&#45;e3</title>
<path fill="none" stroke="black" d="M226.335,-1148.14C221.641,-1136.76 215.921,-1122.89 211.245,-1111.56"/>
<text text-anchor="middle" x="218.608" y="-1115.82" font-family="Arial" font-size="10.00">outEdges</text>
</g>
<!-- n9 -->
<g id="node26" class="node"><title>n9</title>
<a xlink:href="../examples/org/sdmlib/examples/helloworld/Node.java" xlink:title="&lt;TABLE&gt;">
<polygon fill="none" stroke="black" points="153.353,-762 153.353,-779 219.353,-779 219.353,-762 153.353,-762"/>
<text text-anchor="start" x="164.353" y="-768.5" font-family="Arial" font-size="10.00"> </text>
<text text-anchor="start" x="168.353" y="-768.5" font-family="Arial" font-size="10.00">n9 :Node</text>
</a>
<polygon fill="none" stroke="black" points="153.353,-742 153.353,-762 219.353,-762 219.353,-742 153.353,-742"/>
<text text-anchor="start" x="158.353" y="-750" font-family="Arial" font-size="10.00">name = &quot;n8&quot;</text>
</g>
<!-- n2&#45;&#45;n9 -->
<g id="edge4" class="edge"><title>n2&#45;&#45;n9</title>
<path fill="none" stroke="black" stroke-dasharray="1,5" d="M247.022,-1148.43C262.354,-1118.04 287.353,-1060.43 287.353,-1008 287.353,-1008 287.353,-1008 287.353,-924 287.353,-874.789 276.67,-860.932 249.353,-820 240.192,-806.274 227.131,-793.547 215.274,-783.533"/>
<text text-anchor="middle" x="224.902" y="-783.735" font-family="Arial" font-size="10.00">match</text>
</g>
<!-- n4 -->
<g id="node4" class="node"><title>n4</title>
<polygon fill="deepskyblue" stroke="deepskyblue" points="172.853,-988.5 172.853,-1025.5 231.853,-1025.5 231.853,-988.5 172.853,-988.5"/>
<polygon fill="none" stroke="black" points="173.353,-1008 173.353,-1025 232.353,-1025 232.353,-1008 173.353,-1008"/>
<text text-anchor="start" x="176.853" y="-1014.5" font-family="Arial" font-size="10.00"> </text>
<text text-anchor="start" x="180.853" y="-1014.5" font-family="Arial" font-size="10.00"> n4 :NodePO </text>
<polygon fill="none" stroke="black" points="173.353,-988 173.353,-1008 232.353,-1008 232.353,-988 173.353,-988"/>
<text text-anchor="start" x="199.353" y="-996" font-family="Arial" font-size="10.00"> &#160;</text>
</g>
<!-- e3&#45;&#45;n4 -->
<g id="edge20" class="edge"><title>e3&#45;&#45;n4</title>
<path fill="none" stroke="black" d="M202.353,-1066.14C202.353,-1054.76 202.353,-1040.89 202.353,-1029.56"/>
<text text-anchor="middle" x="206.579" y="-1036.12" font-family="Arial" font-size="10.00">tgt</text>
</g>
<!-- e10 -->
<g id="node28" class="node"><title>e10</title>
<a xlink:href="../examples/org/sdmlib/examples/helloworld/Edge.java" xlink:title="&lt;TABLE&gt;">
<polygon fill="none" stroke="black" points="82.3525,-680 82.3525,-697 153.353,-697 153.353,-680 82.3525,-680"/>
<text text-anchor="start" x="93.3525" y="-686.5" font-family="Arial" font-size="10.00"> </text>
<text text-anchor="start" x="97.3525" y="-686.5" font-family="Arial" font-size="10.00">e10 :Edge</text>
</a>
<polygon fill="none" stroke="black" points="82.3525,-660 82.3525,-680 153.353,-680 153.353,-660 82.3525,-660"/>
<text text-anchor="start" x="87.3525" y="-668" font-family="Arial" font-size="10.00">name = &quot;e17&quot;</text>
</g>
<!-- e3&#45;&#45;e10 -->
<g id="edge6" class="edge"><title>e3&#45;&#45;e10</title>
<path fill="none" stroke="black" stroke-dasharray="1,5" d="M181.551,-1066.34C138.254,-1019.53 39.7077,-903.453 6.35251,-784 0.854098,-764.309 -4.24008,-755.486 6.35251,-738 21.0539,-713.731 49.6113,-699.133 74.0778,-690.653"/>
<text text-anchor="middle" x="67.0248" y="-695.242" font-family="Arial" font-size="10.00">match</text>
</g>
<!-- e5 -->
<g id="node5" class="node"><title>e5</title>
<polygon fill="deepskyblue" stroke="deepskyblue" points="154.353,-906.5 154.353,-943.5 212.353,-943.5 212.353,-906.5 154.353,-906.5"/>
<polygon fill="none" stroke="black" points="154.353,-926 154.353,-943 212.353,-943 212.353,-926 154.353,-926"/>
<text text-anchor="start" x="157.853" y="-932.5" font-family="Arial" font-size="10.00"> </text>
<text text-anchor="start" x="161.853" y="-932.5" font-family="Arial" font-size="10.00"> e5 :EdgePO </text>
<polygon fill="none" stroke="black" points="154.353,-906 154.353,-926 212.353,-926 212.353,-906 154.353,-906"/>
<text text-anchor="start" x="179.853" y="-914" font-family="Arial" font-size="10.00"> &#160;</text>
</g>
<!-- n4&#45;&#45;e5 -->
<g id="edge22" class="edge"><title>n4&#45;&#45;e5</title>
<path fill="none" stroke="black" d="M197.161,-984.14C194.458,-972.759 191.165,-958.893 188.472,-947.557"/>
<text text-anchor="middle" x="194.678" y="-952.898" font-family="Arial" font-size="10.00">outEdges</text>
</g>
<!-- n4&#45;&#45;n9 -->
<g id="edge8" class="edge"><title>n4&#45;&#45;n9</title>
<path fill="none" stroke="black" stroke-dasharray="1,5" d="M215.104,-984.493C220.663,-973.893 226.544,-960.688 229.353,-948 241.647,-892.456 247.193,-874.019 229.353,-820 224.95,-806.669 216.169,-793.901 207.684,-783.755"/>
<text text-anchor="middle" x="216.691" y="-785.599" font-family="Arial" font-size="10.00">match</text>
</g>
<!-- n6 -->
<g id="node6" class="node"><title>n6</title>
<polygon fill="deepskyblue" stroke="deepskyblue" points="153.853,-824.5 153.853,-861.5 212.853,-861.5 212.853,-824.5 153.853,-824.5"/>
<polygon fill="none" stroke="black" points="154.353,-844 154.353,-861 213.353,-861 213.353,-844 154.353,-844"/>
<text text-anchor="start" x="157.853" y="-850.5" font-family="Arial" font-size="10.00"> </text>
<text text-anchor="start" x="161.853" y="-850.5" font-family="Arial" font-size="10.00"> n6 :NodePO </text>
<polygon fill="none" stroke="black" points="154.353,-824 154.353,-844 213.353,-844 213.353,-824 154.353,-824"/>
<text text-anchor="start" x="180.353" y="-832" font-family="Arial" font-size="10.00"> &#160;</text>
</g>
<!-- e5&#45;&#45;n6 -->
<g id="edge24" class="edge"><title>e5&#45;&#45;n6</title>
<path fill="none" stroke="black" d="M183.353,-902.14C183.353,-890.759 183.353,-876.893 183.353,-865.557"/>
<text text-anchor="middle" x="187.579" y="-872.12" font-family="Arial" font-size="10.00">tgt</text>
</g>
<!-- e5&#45;&#45;e10 -->
<g id="edge10" class="edge"><title>e5&#45;&#45;e10</title>
<path fill="none" stroke="black" stroke-dasharray="1,5" d="M160.726,-902.327C151.578,-892.197 141.89,-879.418 136.353,-866 113.32,-810.191 113.727,-737.291 115.671,-701.597"/>
<text text-anchor="middle" x="119.497" y="-708.336" font-family="Arial" font-size="10.00">match</text>
</g>
<!-- e7 -->
<g id="node7" class="node"><title>e7</title>
<polygon fill="deepskyblue" stroke="deepskyblue" points="23.3525,-742.5 23.3525,-779.5 81.3525,-779.5 81.3525,-742.5 23.3525,-742.5"/>
<polygon fill="none" stroke="black" points="23.3525,-762 23.3525,-779 81.3525,-779 81.3525,-762 23.3525,-762"/>
<text text-anchor="start" x="26.8525" y="-768.5" font-family="Arial" font-size="10.00"> </text>
<text text-anchor="start" x="30.8525" y="-768.5" font-family="Arial" font-size="10.00"> e7 :EdgePO </text>
<polygon fill="none" stroke="black" points="23.3525,-742 23.3525,-762 81.3525,-762 81.3525,-742 23.3525,-742"/>
<text text-anchor="start" x="48.8525" y="-750" font-family="Arial" font-size="10.00"> &#160;</text>
</g>
<!-- n6&#45;&#45;e7 -->
<g id="edge26" class="edge"><title>n6&#45;&#45;e7</title>
<path fill="none" stroke="black" d="M147.902,-820.351C129.262,-808.967 106.476,-795.052 87.8313,-783.666"/>
<text text-anchor="middle" x="97.7688" y="-782.283" font-family="Arial" font-size="10.00">outEdges</text>
</g>
<!-- n6&#45;&#45;n9 -->
<g id="edge12" class="edge"><title>n6&#45;&#45;n9</title>
<path fill="none" stroke="black" stroke-dasharray="1,5" d="M184.172,-820.14C184.599,-808.759 185.119,-794.893 185.544,-783.557"/>
<text text-anchor="middle" x="189.428" y="-790.272" font-family="Arial" font-size="10.00">match</text>
</g>
<!-- e7&#45;&#45;n2 -->
<g id="edge28" class="edge"><title>e7&#45;&#45;n2</title>
<path fill="none" stroke="black" d="M46.4273,-783.558C38.4794,-814.423 25.3525,-873.104 25.3525,-924 25.3525,-1008 25.3525,-1008 25.3525,-1008 25.3525,-1094.11 137.405,-1140.86 197.809,-1159.8"/>
<text text-anchor="middle" x="187.873" y="-1158.43" font-family="Arial" font-size="10.00">tgt</text>
</g>
<!-- e7&#45;&#45;e10 -->
<g id="edge14" class="edge"><title>e7&#45;&#45;e10</title>
<path fill="none" stroke="black" stroke-dasharray="1,5" d="M70.1141,-738.14C79.3608,-726.759 90.627,-712.893 99.8375,-701.557"/>
<text text-anchor="middle" x="97.4024" y="-708.756" font-family="Arial" font-size="10.00">match</text>
</g>
<!-- matchIsomorphic -->
<g id="node8" class="node"><title>matchIsomorphic</title>
<text text-anchor="middle" x="445.353" y="-1257.5" font-family="Arial" font-size="10.00">matchIsomorphic</text>
</g>
<!-- allMatches -->
<g id="node9" class="node"><title>allMatches</title>
<text text-anchor="middle" x="541.353" y="-1257.5" font-family="Arial" font-size="10.00">allMatches</text>
</g>
<!-- n11 -->
<g id="node11" class="node"><title>n11</title>
<a xlink:href="../examples/org/sdmlib/examples/helloworld/Node.java" xlink:title="&lt;TABLE&gt;">
<polygon fill="none" stroke="black" points="909.353,-762 909.353,-779 975.353,-779 975.353,-762 909.353,-762"/>
<text text-anchor="start" x="917.853" y="-768.5" font-family="Arial" font-size="10.00"> </text>
<text text-anchor="start" x="921.853" y="-768.5" font-family="Arial" font-size="10.00">n11 :Node</text>
</a>
<polygon fill="none" stroke="black" points="909.353,-742 909.353,-762 975.353,-762 975.353,-742 909.353,-742"/>
<text text-anchor="start" x="914.353" y="-750" font-family="Arial" font-size="10.00">name = &quot;n1&quot;</text>
</g>
<!-- g8&#45;&#45;n11 -->
<g id="edge30" class="edge"><title>g8&#45;&#45;n11</title>
<path fill="none" stroke="black" d="M556.469,-839.065C622.316,-832.987 768.422,-816.766 887.353,-784 891.913,-782.743 896.611,-781.228 901.249,-779.588"/>
<text text-anchor="middle" x="894.094" y="-784.074" font-family="Arial" font-size="10.00">nodes</text>
<text text-anchor="middle" x="565.082" y="-831.486" font-family="Arial" font-size="10.00">graph</text>
</g>
<!-- e12 -->
<g id="node12" class="node"><title>e12</title>
<a xlink:href="../examples/org/sdmlib/examples/helloworld/Edge.java" xlink:title="&lt;TABLE&gt;">
<polygon fill="none" stroke="black" points="799.353,-680 799.353,-697 870.353,-697 870.353,-680 799.353,-680"/>
<text text-anchor="start" x="810.353" y="-686.5" font-family="Arial" font-size="10.00"> </text>
<text text-anchor="start" x="814.353" y="-686.5" font-family="Arial" font-size="10.00">e12 :Edge</text>
</a>
<polygon fill="none" stroke="black" points="799.353,-660 799.353,-680 870.353,-680 870.353,-660 799.353,-660"/>
<text text-anchor="start" x="804.353" y="-668" font-family="Arial" font-size="10.00">name = &quot;e10&quot;</text>
</g>
<!-- g8&#45;&#45;e12 -->
<g id="edge50" class="edge"><title>g8&#45;&#45;e12</title>
<path fill="none" stroke="black" d="M556.546,-839.679C625.667,-834.389 775.552,-819.083 811.353,-784 833.277,-762.515 836.439,-725.165 835.952,-701.558"/>
<text text-anchor="middle" x="840.205" y="-708.109" font-family="Arial" font-size="10.00">edges</text>
<text text-anchor="middle" x="565.231" y="-832.221" font-family="Arial" font-size="10.00">graph</text>
</g>
<!-- n13 -->
<g id="node13" class="node"><title>n13</title>
<a xlink:href="../examples/org/sdmlib/examples/helloworld/Node.java" xlink:title="&lt;TABLE&gt;">
<polygon fill="none" stroke="black" points="765.353,-598 765.353,-615 831.353,-615 831.353,-598 765.353,-598"/>
<text text-anchor="start" x="773.853" y="-604.5" font-family="Arial" font-size="10.00"> </text>
<text text-anchor="start" x="777.853" y="-604.5" font-family="Arial" font-size="10.00">n13 :Node</text>
</a>
<polygon fill="none" stroke="black" points="765.353,-578 765.353,-598 831.353,-598 831.353,-578 765.353,-578"/>
<text text-anchor="start" x="770.353" y="-586" font-family="Arial" font-size="10.00">name = &quot;n2&quot;</text>
</g>
<!-- g8&#45;&#45;n13 -->
<g id="edge32" class="edge"><title>g8&#45;&#45;n13</title>
<path fill="none" stroke="black" d="M556.516,-839.265C620.154,-833.517 750.437,-817.821 778.353,-784 782.881,-778.513 781.288,-663.034 782.353,-656 784.197,-643.813 787.74,-630.538 791.025,-619.767"/>
<text text-anchor="middle" x="792.468" y="-627.163" font-family="Arial" font-size="10.00">nodes</text>
<text text-anchor="middle" x="565.129" y="-831.683" font-family="Arial" font-size="10.00">graph</text>
</g>
<!-- e14 -->
<g id="node14" class="node"><title>e14</title>
<a xlink:href="../examples/org/sdmlib/examples/helloworld/Edge.java" xlink:title="&lt;TABLE&gt;">
<polygon fill="none" stroke="black" points="763.353,-516 763.353,-533 834.353,-533 834.353,-516 763.353,-516"/>
<text text-anchor="start" x="774.353" y="-522.5" font-family="Arial" font-size="10.00"> </text>
<text text-anchor="start" x="778.353" y="-522.5" font-family="Arial" font-size="10.00">e14 :Edge</text>
</a>
<polygon fill="none" stroke="black" points="763.353,-496 763.353,-516 834.353,-516 834.353,-496 763.353,-496"/>
<text text-anchor="start" x="768.353" y="-504" font-family="Arial" font-size="10.00">name = &quot;e11&quot;</text>
</g>
<!-- g8&#45;&#45;e14 -->
<g id="edge52" class="edge"><title>g8&#45;&#45;e14</title>
<path fill="none" stroke="black" d="M556.511,-839.08C628.614,-832.527 790.24,-814.765 835.353,-784 885.946,-749.497 899.536,-715.802 886.353,-656 877.705,-616.774 870.12,-607.758 848.353,-574 840.067,-561.151 829.136,-548.141 819.608,-537.709"/>
<text text-anchor="middle" x="828.821" y="-539.098" font-family="Arial" font-size="10.00">edges</text>
<text text-anchor="middle" x="565.131" y="-831.511" font-family="Arial" font-size="10.00">graph</text>
</g>
<!-- n15 -->
<g id="node15" class="node"><title>n15</title>
<a xlink:href="../examples/org/sdmlib/examples/helloworld/Node.java" xlink:title="&lt;TABLE&gt;">
<polygon fill="none" stroke="black" points="594.353,-434 594.353,-451 660.353,-451 660.353,-434 594.353,-434"/>
<text text-anchor="start" x="602.853" y="-440.5" font-family="Arial" font-size="10.00"> </text>
<text text-anchor="start" x="606.853" y="-440.5" font-family="Arial" font-size="10.00">n15 :Node</text>
</a>
<polygon fill="none" stroke="black" points="594.353,-414 594.353,-434 660.353,-434 660.353,-414 594.353,-414"/>
<text text-anchor="start" x="599.353" y="-422" font-family="Arial" font-size="10.00">name = &quot;n3&quot;</text>
</g>
<!-- g8&#45;&#45;n15 -->
<g id="edge34" class="edge"><title>g8&#45;&#45;n15</title>
<path fill="none" stroke="black" d="M528.146,-824.811C539.076,-795.562 559.353,-734.021 559.353,-680 559.353,-680 559.353,-680 559.353,-596 559.353,-542.164 591.676,-485.557 611.752,-455.59"/>
<text text-anchor="middle" x="610.355" y="-462.992" font-family="Arial" font-size="10.00">nodes</text>
<text text-anchor="middle" x="527.273" y="-812.349" font-family="Arial" font-size="10.00">graph</text>
</g>
<!-- e16 -->
<g id="node16" class="node"><title>e16</title>
<a xlink:href="../examples/org/sdmlib/examples/helloworld/Edge.java" xlink:title="&lt;TABLE&gt;">
<polygon fill="none" stroke="black" points="909.353,-352 909.353,-369 980.353,-369 980.353,-352 909.353,-352"/>
<text text-anchor="start" x="920.353" y="-358.5" font-family="Arial" font-size="10.00"> </text>
<text text-anchor="start" x="924.353" y="-358.5" font-family="Arial" font-size="10.00">e16 :Edge</text>
</a>
<polygon fill="none" stroke="black" points="909.353,-332 909.353,-352 980.353,-352 980.353,-332 909.353,-332"/>
<text text-anchor="start" x="914.353" y="-340" font-family="Arial" font-size="10.00">name = &quot;e12&quot;</text>
</g>
<!-- g8&#45;&#45;e16 -->
<g id="edge54" class="edge"><title>g8&#45;&#45;e16</title>
<path fill="none" stroke="black" d="M556.596,-840.04C660.562,-833.934 960.704,-813.859 992.353,-784 1026.53,-751.755 1011.35,-726.987 1011.35,-680 1011.35,-680 1011.35,-680 1011.35,-514 1011.35,-460.281 979.504,-403.63 959.724,-373.624"/>
<text text-anchor="middle" x="968.168" y="-376.481" font-family="Arial" font-size="10.00">edges</text>
<text text-anchor="middle" x="565.383" y="-832.767" font-family="Arial" font-size="10.00">graph</text>
</g>
<!-- e17 -->
<g id="node17" class="node"><title>e17</title>
<a xlink:href="../examples/org/sdmlib/examples/helloworld/Edge.java" xlink:title="&lt;TABLE&gt;">
<polygon fill="none" stroke="black" points="482.353,-352 482.353,-369 553.353,-369 553.353,-352 482.353,-352"/>
<text text-anchor="start" x="493.353" y="-358.5" font-family="Arial" font-size="10.00"> </text>
<text text-anchor="start" x="497.353" y="-358.5" font-family="Arial" font-size="10.00">e17 :Edge</text>
</a>
<polygon fill="none" stroke="black" points="482.353,-332 482.353,-352 553.353,-352 553.353,-332 482.353,-332"/>
<text text-anchor="start" x="487.353" y="-340" font-family="Arial" font-size="10.00">name = &quot;e13&quot;</text>
</g>
<!-- g8&#45;&#45;e17 -->
<g id="edge56" class="edge"><title>g8&#45;&#45;e17</title>
<path fill="none" stroke="black" d="M514.559,-824.811C503.629,-795.562 483.353,-734.021 483.353,-680 483.353,-680 483.353,-680 483.353,-514 483.353,-462.847 499.79,-404.508 509.807,-373.707"/>
<text text-anchor="middle" x="511.102" y="-381.123" font-family="Arial" font-size="10.00">edges</text>
<text text-anchor="middle" x="507.489" y="-815.239" font-family="Arial" font-size="10.00">graph</text>
</g>
<!-- n18 -->
<g id="node18" class="node"><title>n18</title>
<a xlink:href="../examples/org/sdmlib/examples/helloworld/Node.java" xlink:title="&lt;TABLE&gt;">
<polygon fill="none" stroke="black" points="463.353,-270 463.353,-287 529.353,-287 529.353,-270 463.353,-270"/>
<text text-anchor="start" x="471.853" y="-276.5" font-family="Arial" font-size="10.00"> </text>
<text text-anchor="start" x="475.853" y="-276.5" font-family="Arial" font-size="10.00">n18 :Node</text>
</a>
<polygon fill="none" stroke="black" points="463.353,-250 463.353,-270 529.353,-270 529.353,-250 463.353,-250"/>
<text text-anchor="start" x="468.353" y="-258" font-family="Arial" font-size="10.00">name = &quot;n4&quot;</text>
</g>
<!-- g8&#45;&#45;n18 -->
<g id="edge36" class="edge"><title>g8&#45;&#45;n18</title>
<path fill="none" stroke="black" d="M507.057,-824.791C485.042,-796.481 445.353,-737.472 445.353,-680 445.353,-680 445.353,-680 445.353,-432 445.353,-385.013 448.575,-372.259 464.353,-328 468.871,-315.326 475.943,-302.122 482.291,-291.519"/>
<text text-anchor="middle" x="481.321" y="-298.972" font-family="Arial" font-size="10.00">nodes</text>
<text text-anchor="middle" x="498.226" y="-817.601" font-family="Arial" font-size="10.00">graph</text>
</g>
<!-- e19 -->
<g id="node19" class="node"><title>e19</title>
<a xlink:href="../examples/org/sdmlib/examples/helloworld/Edge.java" xlink:title="&lt;TABLE&gt;">
<polygon fill="none" stroke="black" points="461.353,-188 461.353,-205 532.353,-205 532.353,-188 461.353,-188"/>
<text text-anchor="start" x="472.353" y="-194.5" font-family="Arial" font-size="10.00"> </text>
<text text-anchor="start" x="476.353" y="-194.5" font-family="Arial" font-size="10.00">e19 :Edge</text>
</a>
<polygon fill="none" stroke="black" points="461.353,-168 461.353,-188 532.353,-188 532.353,-168 461.353,-168"/>
<text text-anchor="start" x="466.353" y="-176" font-family="Arial" font-size="10.00">name = &quot;e14&quot;</text>
</g>
<!-- g8&#45;&#45;e19 -->
<g id="edge58" class="edge"><title>g8&#45;&#45;e19</title>
<path fill="none" stroke="black" d="M496.683,-824.839C482.877,-814.285 466.127,-799.785 454.353,-784 424.026,-743.341 407.353,-730.723 407.353,-680 407.353,-680 407.353,-680 407.353,-350 407.353,-293.843 448.942,-238.76 475.261,-209.526"/>
<text text-anchor="middle" x="472.493" y="-216.635" font-family="Arial" font-size="10.00">edges</text>
<text text-anchor="middle" x="486.934" y="-820.114" font-family="Arial" font-size="10.00">graph</text>
</g>
<!-- n20 -->
<g id="node20" class="node"><title>n20</title>
<a xlink:href="../examples/org/sdmlib/examples/helloworld/Node.java" xlink:title="&lt;TABLE&gt;">
<polygon fill="none" stroke="black" points="494.353,-106 494.353,-123 560.353,-123 560.353,-106 494.353,-106"/>
<text text-anchor="start" x="502.853" y="-112.5" font-family="Arial" font-size="10.00"> </text>
<text text-anchor="start" x="506.853" y="-112.5" font-family="Arial" font-size="10.00">n20 :Node</text>
</a>
<polygon fill="none" stroke="black" points="494.353,-86 494.353,-106 560.353,-106 560.353,-86 494.353,-86"/>
<text text-anchor="start" x="499.353" y="-94" font-family="Arial" font-size="10.00">name = &quot;n5&quot;</text>
</g>
<!-- g8&#45;&#45;n20 -->
<g id="edge38" class="edge"><title>g8&#45;&#45;n20</title>
<path fill="none" stroke="black" d="M521.353,-824.974C521.353,-795.458 521.353,-732.875 521.353,-680 521.353,-680 521.353,-680 521.353,-596 521.353,-495.053 558.625,-474.375 569.353,-374 571.525,-353.671 570.653,-348.403 569.353,-328 564.676,-254.665 565.632,-235.423 548.353,-164 545.381,-151.718 540.687,-138.435 536.49,-127.684"/>
<text text-anchor="middle" x="543.694" y="-132.119" font-family="Arial" font-size="10.00">nodes</text>
<text text-anchor="middle" x="517.126" y="-813.411" font-family="Arial" font-size="10.00">graph</text>
</g>
<!-- e21 -->
<g id="node21" class="node"><title>e21</title>
<a xlink:href="../examples/org/sdmlib/examples/helloworld/Edge.java" xlink:title="&lt;TABLE&gt;">
<polygon fill="none" stroke="black" points="342.353,-24 342.353,-41 413.353,-41 413.353,-24 342.353,-24"/>
<text text-anchor="start" x="353.353" y="-30.5" font-family="Arial" font-size="10.00"> </text>
<text text-anchor="start" x="357.353" y="-30.5" font-family="Arial" font-size="10.00">e21 :Edge</text>
</a>
<polygon fill="none" stroke="black" points="342.353,-4 342.353,-24 413.353,-24 413.353,-4 342.353,-4"/>
<text text-anchor="start" x="347.353" y="-12" font-family="Arial" font-size="10.00">name = &quot;e18&quot;</text>
</g>
<!-- g8&#45;&#45;e21 -->
<g id="edge46" class="edge"><title>g8&#45;&#45;e21</title>
<path fill="none" stroke="black" d="M486.117,-835.48C454.393,-827.974 408.284,-812.783 378.353,-784 341.791,-748.842 331.353,-730.723 331.353,-680 331.353,-680 331.353,-680 331.353,-186 331.353,-134.105 353.467,-76.2925 367.029,-45.717"/>
<text text-anchor="middle" x="367.32" y="-53.2128" font-family="Arial" font-size="10.00">edges</text>
<text text-anchor="middle" x="476.298" y="-834.874" font-family="Arial" font-size="10.00">graph</text>
</g>
<!-- e22 -->
<g id="node22" class="node"><title>e22</title>
<a xlink:href="../examples/org/sdmlib/examples/helloworld/Edge.java" xlink:title="&lt;TABLE&gt;">
<polygon fill="none" stroke="black" points="492.353,-24 492.353,-41 563.353,-41 563.353,-24 492.353,-24"/>
<text text-anchor="start" x="503.353" y="-30.5" font-family="Arial" font-size="10.00"> </text>
<text text-anchor="start" x="507.353" y="-30.5" font-family="Arial" font-size="10.00">e22 :Edge</text>
</a>
<polygon fill="none" stroke="black" points="492.353,-4 492.353,-24 563.353,-24 563.353,-4 492.353,-4"/>
<text text-anchor="start" x="497.353" y="-12" font-family="Arial" font-size="10.00">name = &quot;e15&quot;</text>
</g>
<!-- g8&#45;&#45;e22 -->
<g id="edge60" class="edge"><title>g8&#45;&#45;e22</title>
<path fill="none" stroke="black" d="M486.23,-828.758C464.423,-819.085 437.08,-804.138 418.353,-784 383.556,-746.583 369.353,-731.096 369.353,-680 369.353,-680 369.353,-680 369.353,-186 369.353,-120.195 436.993,-71.1489 483.76,-45.1027"/>
<text text-anchor="middle" x="478.061" y="-50.8197" font-family="Arial" font-size="10.00">edges</text>
<text text-anchor="middle" x="476.231" y="-826.334" font-family="Arial" font-size="10.00">graph</text>
</g>
<!-- e23 -->
<g id="node23" class="node"><title>e23</title>
<a xlink:href="../examples/org/sdmlib/examples/helloworld/Edge.java" xlink:title="&lt;TABLE&gt;">
<polygon fill="none" stroke="black" points="805.353,-24 805.353,-41 876.353,-41 876.353,-24 805.353,-24"/>
<text text-anchor="start" x="816.353" y="-30.5" font-family="Arial" font-size="10.00"> </text>
<text text-anchor="start" x="820.353" y="-30.5" font-family="Arial" font-size="10.00">e23 :Edge</text>
</a>
<polygon fill="none" stroke="black" points="805.353,-4 805.353,-24 876.353,-24 876.353,-4 805.353,-4"/>
<text text-anchor="start" x="810.353" y="-12" font-family="Arial" font-size="10.00">name = &quot;e19&quot;</text>
</g>
<!-- g8&#45;&#45;e23 -->
<g id="edge48" class="edge"><title>g8&#45;&#45;e23</title>
<path fill="none" stroke="black" d="M556.503,-842.693C657.759,-843.967 947.313,-842.32 1017.35,-784 1054.52,-753.055 1049.35,-728.361 1049.35,-680 1049.35,-680 1049.35,-680 1049.35,-186 1049.35,-102.905 944.875,-56.3291 883.657,-36.1703"/>
<text text-anchor="middle" x="893.609" y="-32.6844" font-family="Arial" font-size="10.00">edges</text>
<text text-anchor="middle" x="565.595" y="-836.028" font-family="Arial" font-size="10.00">graph</text>
</g>
<!-- n24 -->
<g id="node24" class="node"><title>n24</title>
<a xlink:href="../examples/org/sdmlib/examples/helloworld/Node.java" xlink:title="&lt;TABLE&gt;">
<polygon fill="none" stroke="black" points="595.353,-762 595.353,-779 661.353,-779 661.353,-762 595.353,-762"/>
<text text-anchor="start" x="603.853" y="-768.5" font-family="Arial" font-size="10.00"> </text>
<text text-anchor="start" x="607.853" y="-768.5" font-family="Arial" font-size="10.00">n24 :Node</text>
</a>
<polygon fill="none" stroke="black" points="595.353,-742 595.353,-762 661.353,-762 661.353,-742 595.353,-742"/>
<text text-anchor="start" x="600.353" y="-750" font-family="Arial" font-size="10.00">name = &quot;n6&quot;</text>
</g>
<!-- g8&#45;&#45;n24 -->
<g id="edge40" class="edge"><title>g8&#45;&#45;n24</title>
<path fill="none" stroke="black" d="M544.307,-824.838C560.395,-812.809 582.026,-796.637 599.314,-783.711"/>
<text text-anchor="middle" x="594.586" y="-790.023" font-family="Arial" font-size="10.00">nodes</text>
<text text-anchor="middle" x="549.035" y="-813.526" font-family="Arial" font-size="10.00">graph</text>
</g>
<!-- n25 -->
<g id="node25" class="node"><title>n25</title>
<a xlink:href="../examples/org/sdmlib/examples/helloworld/Node.java" xlink:title="&lt;TABLE&gt;">
<polygon fill="none" stroke="black" points="695.353,-762 695.353,-779 761.353,-779 761.353,-762 695.353,-762"/>
<text text-anchor="start" x="703.853" y="-768.5" font-family="Arial" font-size="10.00"> </text>
<text text-anchor="start" x="707.853" y="-768.5" font-family="Arial" font-size="10.00">n25 :Node</text>
</a>
<polygon fill="none" stroke="black" points="695.353,-742 695.353,-762 761.353,-762 761.353,-742 695.353,-742"/>
<text text-anchor="start" x="700.353" y="-750" font-family="Arial" font-size="10.00">name = &quot;n7&quot;</text>
</g>
<!-- g8&#45;&#45;n25 -->
<g id="edge42" class="edge"><title>g8&#45;&#45;n25</title>
<path fill="none" stroke="black" d="M556.505,-829.702C588.478,-818.354 636.866,-800.772 678.353,-784 681.254,-782.827 684.238,-781.591 687.236,-780.327"/>
<text text-anchor="middle" x="680.521" y="-785.238" font-family="Arial" font-size="10.00">nodes</text>
<text text-anchor="middle" x="563.624" y="-820.18" font-family="Arial" font-size="10.00">graph</text>
</g>
<!-- g8&#45;&#45;n9 -->
<g id="edge44" class="edge"><title>g8&#45;&#45;n9</title>
<path fill="none" stroke="black" d="M485.935,-836.721C432.314,-828.27 327.631,-809.97 241.353,-784 236.823,-782.636 232.145,-781.053 227.518,-779.372"/>
<text text-anchor="middle" x="237.478" y="-775.972" font-family="Arial" font-size="10.00">nodes</text>
<text text-anchor="middle" x="476.315" y="-836.951" font-family="Arial" font-size="10.00">graph</text>
</g>
<!-- e26 -->
<g id="node27" class="node"><title>e26</title>
<a xlink:href="../examples/org/sdmlib/examples/helloworld/Edge.java" xlink:title="&lt;TABLE&gt;">
<polygon fill="none" stroke="black" points="205.353,-680 205.353,-697 276.353,-697 276.353,-680 205.353,-680"/>
<text text-anchor="start" x="216.353" y="-686.5" font-family="Arial" font-size="10.00"> </text>
<text text-anchor="start" x="220.353" y="-686.5" font-family="Arial" font-size="10.00">e26 :Edge</text>
</a>
<polygon fill="none" stroke="black" points="205.353,-660 205.353,-680 276.353,-680 276.353,-660 205.353,-660"/>
<text text-anchor="start" x="210.353" y="-668" font-family="Arial" font-size="10.00">name = &quot;e16&quot;</text>
</g>
<!-- g8&#45;&#45;e26 -->
<g id="edge62" class="edge"><title>g8&#45;&#45;e26</title>
<path fill="none" stroke="black" d="M486.32,-838.957C443.188,-833.748 369.282,-819.928 317.353,-784 286.684,-762.782 263.412,-725.352 250.84,-701.657"/>
<text text-anchor="middle" x="258.892" y="-705.086" font-family="Arial" font-size="10.00">edges</text>
<text text-anchor="middle" x="476.78" y="-839.453" font-family="Arial" font-size="10.00">graph</text>
</g>
<!-- g8&#45;&#45;e10 -->
<g id="edge64" class="edge"><title>g8&#45;&#45;e10</title>
<path fill="none" stroke="black" d="M486.347,-841.398C434.945,-838.956 337.848,-828.287 270.353,-784 249.097,-770.053 255.897,-754.259 236.353,-738 214.002,-719.406 184.683,-705.026 160.74,-695.236"/>
<text text-anchor="middle" x="170.733" y="-692.343" font-family="Arial" font-size="10.00">edges</text>
<text text-anchor="middle" x="477.046" y="-842.572" font-family="Arial" font-size="10.00">graph</text>
</g>
<!-- n11&#45;&#45;e12 -->
<g id="edge66" class="edge"><title>n11&#45;&#45;e12</title>
<path fill="none" stroke="black" d="M913.126,-738.351C897.759,-726.967 878.973,-713.052 863.602,-701.666"/>
<text text-anchor="middle" x="873.4" y="-701.165" font-family="Arial" font-size="10.00">outEdges</text>
<text text-anchor="middle" x="903.328" y="-733.852" font-family="Arial" font-size="10.00">src</text>
</g>
<!-- n11&#45;&#45;e16 -->
<g id="edge68" class="edge"><title>n11&#45;&#45;e16</title>
<path fill="none" stroke="black" d="M942.791,-738.253C943.38,-707.16 944.353,-648.207 944.353,-598 944.353,-598 944.353,-598 944.353,-514 944.353,-463.797 944.353,-404.843 944.353,-373.749"/>
<text text-anchor="middle" x="948.579" y="-380.312" font-family="Arial" font-size="10.00">inEdges</text>
<text text-anchor="middle" x="938.733" y="-726.613" font-family="Arial" font-size="10.00">tgt</text>
</g>
<!-- e12&#45;&#45;n13 -->
<g id="edge70" class="edge"><title>e12&#45;&#45;n13</title>
<path fill="none" stroke="black" d="M824.515,-656.14C819.394,-644.759 813.154,-630.893 808.053,-619.557"/>
<text text-anchor="middle" x="815.626" y="-623.587" font-family="Arial" font-size="10.00">tgt</text>
<text text-anchor="middle" x="816.942" y="-647.109" font-family="Arial" font-size="10.00">inEdges</text>
</g>
<!-- n13&#45;&#45;e14 -->
<g id="edge72" class="edge"><title>n13&#45;&#45;e14</title>
<path fill="none" stroke="black" d="M798.353,-574.14C798.353,-562.759 798.353,-548.893 798.353,-537.557"/>
<text text-anchor="middle" x="802.579" y="-544.12" font-family="Arial" font-size="10.00">outEdges</text>
<text text-anchor="middle" x="794.126" y="-562.577" font-family="Arial" font-size="10.00">src</text>
</g>
<!-- e14&#45;&#45;n15 -->
<g id="edge74" class="edge"><title>e14&#45;&#45;n15</title>
<path fill="none" stroke="black" d="M754.76,-493.606C728.241,-481.199 694.576,-465.45 668.512,-453.256"/>
<text text-anchor="middle" x="678.512" y="-450.768" font-family="Arial" font-size="10.00">tgt</text>
<text text-anchor="middle" x="744.76" y="-491.093" font-family="Arial" font-size="10.00">inEdges</text>
</g>
<!-- n15&#45;&#45;e16 -->
<g id="edge76" class="edge"><title>n15&#45;&#45;e16</title>
<path fill="none" stroke="black" d="M668.47,-421.623C728.527,-406.467 839.739,-378.401 901.024,-362.935"/>
<text text-anchor="middle" x="893.271" y="-366.75" font-family="Arial" font-size="10.00">outEdges</text>
<text text-anchor="middle" x="676.223" y="-412.808" font-family="Arial" font-size="10.00">src</text>
</g>
<!-- n15&#45;&#45;e17 -->
<g id="edge78" class="edge"><title>n15&#45;&#45;e17</title>
<path fill="none" stroke="black" d="M597.585,-410.351C581.933,-398.967 562.8,-385.052 547.144,-373.666"/>
<text text-anchor="middle" x="556.959" y="-373.079" font-family="Arial" font-size="10.00">outEdges</text>
<text text-anchor="middle" x="587.77" y="-405.938" font-family="Arial" font-size="10.00">src</text>
</g>
<!-- n15&#45;&#45;e22 -->
<g id="edge80" class="edge"><title>n15&#45;&#45;e22</title>
<path fill="none" stroke="black" d="M627.353,-410.251C627.353,-379.157 627.353,-320.203 627.353,-270 627.353,-270 627.353,-270 627.353,-186 627.353,-128.49 581.155,-74.3176 551.56,-45.514"/>
<text text-anchor="middle" x="560.944" y="-46.4675" font-family="Arial" font-size="10.00">inEdges</text>
<text text-anchor="middle" x="623.126" y="-398.688" font-family="Arial" font-size="10.00">tgt</text>
</g>
<!-- e17&#45;&#45;n18 -->
<g id="edge82" class="edge"><title>e17&#45;&#45;n18</title>
<path fill="none" stroke="black" d="M511.614,-328.14C508.627,-316.759 504.987,-302.893 502.011,-291.557"/>
<text text-anchor="middle" x="508.4" y="-296.75" font-family="Arial" font-size="10.00">tgt</text>
<text text-anchor="middle" x="505.225" y="-317.947" font-family="Arial" font-size="10.00">inEdges</text>
</g>
<!-- n18&#45;&#45;e19 -->
<g id="edge84" class="edge"><title>n18&#45;&#45;e19</title>
<path fill="none" stroke="black" d="M496.353,-246.14C496.353,-234.759 496.353,-220.893 496.353,-209.557"/>
<text text-anchor="middle" x="500.579" y="-216.12" font-family="Arial" font-size="10.00">outEdges</text>
<text text-anchor="middle" x="492.126" y="-234.577" font-family="Arial" font-size="10.00">src</text>
</g>
<!-- e19&#45;&#45;n20 -->
<g id="edge86" class="edge"><title>e19&#45;&#45;n20</title>
<path fill="none" stroke="black" d="M504.823,-164.14C509.233,-152.759 514.607,-138.893 518.999,-127.557"/>
<text text-anchor="middle" x="519.665" y="-135.035" font-family="Arial" font-size="10.00">tgt</text>
<text text-anchor="middle" x="504.157" y="-151.662" font-family="Arial" font-size="10.00">inEdges</text>
</g>
<!-- n20&#45;&#45;e21 -->
<g id="edge88" class="edge"><title>n20&#45;&#45;e21</title>
<path fill="none" stroke="black" d="M486.76,-82.3508C465.33,-70.9211 439.114,-56.9393 417.717,-45.5277"/>
<text text-anchor="middle" x="427.703" y="-43.5637" font-family="Arial" font-size="10.00">outEdges</text>
<text text-anchor="middle" x="476.775" y="-79.3149" font-family="Arial" font-size="10.00">src</text>
</g>
<!-- n20&#45;&#45;e22 -->
<g id="edge90" class="edge"><title>n20&#45;&#45;e22</title>
<path fill="none" stroke="black" d="M527.353,-82.1396C527.353,-70.759 527.353,-56.8929 527.353,-45.5569"/>
<text text-anchor="middle" x="531.579" y="-52.12" font-family="Arial" font-size="10.00">outEdges</text>
<text text-anchor="middle" x="523.126" y="-70.5766" font-family="Arial" font-size="10.00">src</text>
</g>
<!-- n20&#45;&#45;e23 -->
<g id="edge92" class="edge"><title>n20&#45;&#45;e23</title>
<path fill="none" stroke="black" d="M568.594,-93.4591C627.856,-78.3121 736.599,-50.5185 797.008,-35.0785"/>
<text text-anchor="middle" x="789.274" y="-38.9174" font-family="Arial" font-size="10.00">inEdges</text>
<text text-anchor="middle" x="576.328" y="-84.6203" font-family="Arial" font-size="10.00">tgt</text>
</g>
<!-- n9&#45;&#45;e26 -->
<g id="edge94" class="edge"><title>n9&#45;&#45;e26</title>
<path fill="none" stroke="black" d="M201.108,-738.14C208.79,-726.759 218.15,-712.893 225.802,-701.557"/>
<text text-anchor="middle" x="224.234" y="-708.933" font-family="Arial" font-size="10.00">outEdges_inEdges</text>
<text text-anchor="middle" x="202.676" y="-725.763" font-family="Arial" font-size="10.00">src_tgt</text>
</g>
<!-- n9&#45;&#45;e10 -->
<g id="edge96" class="edge"><title>n9&#45;&#45;e10</title>
<path fill="none" stroke="black" d="M167.498,-738.14C157.682,-726.759 145.723,-712.893 135.945,-701.557"/>
<text text-anchor="middle" x="145.065" y="-703.16" font-family="Arial" font-size="10.00">outEdges_inEdges</text>
<text text-anchor="middle" x="158.378" y="-731.537" font-family="Arial" font-size="10.00">src_tgt</text>
</g>
</g>
</svg>
