<?xml version="1.0" encoding="UTF-8" standalone="no"?>
<!DOCTYPE svg PUBLIC "-//W3C//DTD SVG 1.1//EN"
 "http://www.w3.org/Graphics/SVG/1.1/DTD/svg11.dtd">
<!-- Generated by graphviz version 2.28.0 (20110507.0327)
 -->
<!-- Title: ObjectDiagram Pages: 1 -->
<svg width="1504pt" height="971pt"
 viewBox="0.00 0.00 1504.00 971.00" xmlns="http://www.w3.org/2000/svg" xmlns:xlink="http://www.w3.org/1999/xlink">
<g id="graph1" class="graph" transform="scale(1 1) rotate(0) translate(4 967)">
<title>ObjectDiagram</title>
<polygon fill="white" stroke="white" points="-4,5 -4,-967 1501,-967 1501,5 -4,5"/>
<g id="graph2" class="cluster"><title>cluster_n3</title>
<polygon fill="none" stroke="grey" points="505,-648 505,-741 714,-741 714,-648 505,-648"/>
<text text-anchor="start" x="589.5" y="-721.8" font-family="Times New Roman,serif" font-size="14.00">NAC n3</text>
</g>
<!-- g1 -->
<g id="node1" class="node"><title>g1</title>
<polygon fill="deepskyblue" stroke="deepskyblue" points="816.5,-907.5 816.5,-958.5 891.5,-958.5 891.5,-907.5 816.5,-907.5"/>
<text text-anchor="start" x="853" y="-948.5" font-family="Arial" font-size="10.00">«bound»</text>
<polygon fill="none" stroke="black" points="817,-927 817,-943 892,-943 892,-927 817,-927"/>
<text text-anchor="start" x="820.5" y="-933" font-family="Arial" font-size="10.00"> </text>
<text text-anchor="start" x="824.5" y="-933" font-family="Arial" font-size="10.00"> g1 :GraphPO </text>
<polygon fill="none" stroke="black" points="817,-907 817,-927 892,-927 892,-907 817,-907"/>
<text text-anchor="start" x="851" y="-915" font-family="Arial" font-size="10.00"> &#160;</text>
</g>
<!-- e2 -->
<g id="node2" class="node"><title>e2</title>
<polygon fill="deepskyblue" stroke="deepskyblue" points="355.5,-753.5 355.5,-790.5 426.5,-790.5 426.5,-753.5 355.5,-753.5"/>
<polygon fill="none" stroke="black" points="356,-773 356,-790 427,-790 427,-773 356,-773"/>
<text text-anchor="start" x="359.5" y="-779.5" font-family="Arial" font-size="10.00"> </text>
<text text-anchor="start" x="363.5" y="-779.5" font-family="Arial" font-size="10.00"> e2 :EdgePO </text>
<polygon fill="none" stroke="black" points="356,-753 356,-773 427,-773 427,-753 356,-753"/>
<text text-anchor="start" x="388" y="-761" font-family="Arial" font-size="10.00"> &#160;</text>
</g>
<!-- g1&#45;&#45;e2 -->
<g id="edge33" class="edge"><title>g1&#45;&#45;e2</title>
<path fill="none" stroke="black" d="M808.339,-916.319C718.908,-885.608 521.782,-817.912 434.291,-787.867"/>
<text text-anchor="middle" x="444.236" y="-784.313" font-family="Arial" font-size="10.00">edges</text>
</g>
<!-- g6 -->
<g id="node7" class="node"><title>g6</title>
<a xlink:href="../../SDMLib/src/org/sdmlib/examples/helloworld/Graph.java" xlink:title="&lt;TABLE&gt;">
<polygon fill="none" stroke="black" points="1003,-840 1003,-857 1057,-857 1057,-840 1003,-840"/>
<text text-anchor="start" x="1006.5" y="-846.5" font-family="Arial" font-size="10.00"> </text>
<text text-anchor="start" x="1010.5" y="-846.5" font-family="Arial" font-size="10.00">g6 :Graph</text>
</a>
</g>
<!-- g1&#45;&#45;g6 -->
<g id="edge3" class="edge"><title>g1&#45;&#45;g6</title>
<path fill="none" stroke="black" stroke-dasharray="1,5" d="M899.324,-910.883C929.065,-897.027 967.386,-879.173 994.827,-866.388"/>
<text text-anchor="middle" x="988.396" y="-871.546" font-family="Arial" font-size="10.00">match</text>
</g>
<!-- allMatches_e2 -->
<g id="node3" class="node"><title>allMatches_e2</title>
<text text-anchor="middle" x="217" y="-676.5" font-family="Arial" font-size="10.00">allMatches</text>
</g>
<!-- e2&#45;&#45;allMatches_e2 -->
<g id="edge5" class="edge"><title>e2&#45;&#45;allMatches_e2</title>
<path fill="none" stroke="black" stroke-dasharray="1,5" d="M347.468,-768.241C321.234,-764.852 288.148,-757.384 263,-741 246.33,-730.139 233.402,-711.063 225.555,-697.128"/>
</g>
<!-- n4 -->
<g id="node5" class="node"><title>n4</title>
<polygon fill="deepskyblue" stroke="deepskyblue" points="626.5,-660.5 626.5,-697.5 697.5,-697.5 697.5,-660.5 626.5,-660.5"/>
<polygon fill="none" stroke="black" points="627,-680 627,-697 698,-697 698,-680 627,-680"/>
<text text-anchor="start" x="630.5" y="-686.5" font-family="Arial" font-size="10.00"> </text>
<text text-anchor="start" x="634.5" y="-686.5" font-family="Arial" font-size="10.00"> n4 :NodePO </text>
<polygon fill="none" stroke="black" points="627,-660 627,-680 698,-680 698,-660 627,-660"/>
<text text-anchor="start" x="659" y="-668" font-family="Arial" font-size="10.00"> &#160;</text>
</g>
<!-- e2&#45;&#45;n4 -->
<g id="edge35" class="edge"><title>e2&#45;&#45;n4</title>
<path fill="none" stroke="black" d="M434.303,-768.639C489.045,-765.042 579.686,-756.867 609,-741 625.78,-731.918 639.689,-715.27 649.042,-701.658"/>
<text text-anchor="middle" x="647.266" y="-708.999" font-family="Arial" font-size="10.00">tgt</text>
</g>
<!-- n5 -->
<g id="node6" class="node"><title>n5</title>
<polygon fill="deepskyblue" stroke="deepskyblue" points="521.5,-660.5 521.5,-697.5 592.5,-697.5 592.5,-660.5 521.5,-660.5"/>
<polygon fill="none" stroke="black" points="522,-680 522,-697 593,-697 593,-680 522,-680"/>
<text text-anchor="start" x="525.5" y="-686.5" font-family="Arial" font-size="10.00"> </text>
<text text-anchor="start" x="529.5" y="-686.5" font-family="Arial" font-size="10.00"> n5 :NodePO </text>
<polygon fill="none" stroke="black" points="522,-660 522,-680 593,-680 593,-660 522,-660"/>
<text text-anchor="start" x="554" y="-668" font-family="Arial" font-size="10.00"> &#160;</text>
</g>
<!-- e2&#45;&#45;n5 -->
<g id="edge37" class="edge"><title>e2&#45;&#45;n5</title>
<path fill="none" stroke="black" d="M434.39,-766.834C457.967,-762.953 486.76,-755.461 509,-741 524.139,-731.156 536.58,-714.905 545.001,-701.65"/>
<text text-anchor="middle" x="543.59" y="-709.05" font-family="Arial" font-size="10.00">src</text>
</g>
<!-- e10 -->
<g id="node9" class="node"><title>e10</title>
<a xlink:href="../../SDMLib/src/org/sdmlib/examples/helloworld/Edge.java" xlink:title="&lt;TABLE&gt;">
<polygon fill="none" stroke="black" points="771,-680 771,-697 842,-697 842,-680 771,-680"/>
<text text-anchor="start" x="782" y="-686.5" font-family="Arial" font-size="10.00"> </text>
<text text-anchor="start" x="786" y="-686.5" font-family="Arial" font-size="10.00">e10 :Edge</text>
</a>
<polygon fill="none" stroke="black" points="771,-660 771,-680 842,-680 842,-660 771,-660"/>
<text text-anchor="start" x="776" y="-668" font-family="Arial" font-size="10.00">name = &quot;e10&quot;</text>
</g>
<!-- e2&#45;&#45;e10 -->
<g id="edge13" class="edge"><title>e2&#45;&#45;e10</title>
<path fill="none" stroke="black" stroke-dasharray="1,5" d="M434.546,-769.748C511.221,-767.09 667.036,-759.535 718,-741 741.934,-732.296 765.453,-715.438 782.148,-701.646"/>
<text text-anchor="middle" x="777.766" y="-708.135" font-family="Arial" font-size="10.00">candidate</text>
</g>
<!-- e11 -->
<g id="node11" class="node"><title>e11</title>
<a xlink:href="../../SDMLib/src/org/sdmlib/examples/helloworld/Edge.java" xlink:title="&lt;TABLE&gt;">
<polygon fill="none" stroke="black" points="891,-516 891,-533 962,-533 962,-516 891,-516"/>
<text text-anchor="start" x="902" y="-522.5" font-family="Arial" font-size="10.00"> </text>
<text text-anchor="start" x="906" y="-522.5" font-family="Arial" font-size="10.00">e11 :Edge</text>
</a>
<polygon fill="none" stroke="black" points="891,-496 891,-516 962,-516 962,-496 891,-496"/>
<text text-anchor="start" x="896" y="-504" font-family="Arial" font-size="10.00">name = &quot;e11&quot;</text>
</g>
<!-- e2&#45;&#45;e11 -->
<g id="edge15" class="edge"><title>e2&#45;&#45;e11</title>
<path fill="none" stroke="black" stroke-dasharray="1,5" d="M429.34,-749.185C432.757,-746.615 436.039,-743.875 439,-741 474.639,-706.394 466.252,-683.501 501,-648 541.189,-606.939 553.961,-596.091 607,-574 700.273,-535.151 819.579,-522.266 882.554,-518.035"/>
<text text-anchor="middle" x="873.834" y="-520.431" font-family="Arial" font-size="10.00">candidate</text>
</g>
<!-- e12 -->
<g id="node13" class="node"><title>e12</title>
<a xlink:href="../../SDMLib/src/org/sdmlib/examples/helloworld/Edge.java" xlink:title="&lt;TABLE&gt;">
<polygon fill="none" stroke="black" points="390,-352 390,-369 461,-369 461,-352 390,-352"/>
<text text-anchor="start" x="401" y="-358.5" font-family="Arial" font-size="10.00"> </text>
<text text-anchor="start" x="405" y="-358.5" font-family="Arial" font-size="10.00">e12 :Edge</text>
</a>
<polygon fill="none" stroke="black" points="390,-332 390,-352 461,-352 461,-332 390,-332"/>
<text text-anchor="start" x="395" y="-340" font-family="Arial" font-size="10.00">name = &quot;e12&quot;</text>
</g>
<!-- e2&#45;&#45;e12 -->
<g id="edge17" class="edge"><title>e2&#45;&#45;e12</title>
<path fill="none" stroke="black" stroke-dasharray="1,5" d="M347.512,-771.372C291.228,-770.817 197.771,-766.02 176,-741 148.868,-709.819 161.839,-686.832 176,-648 220.749,-525.291 341.234,-418.178 396.541,-373.795"/>
<text text-anchor="middle" x="392.229" y="-380.318" font-family="Arial" font-size="10.00">candidate</text>
</g>
<!-- e13 -->
<g id="node14" class="node"><title>e13</title>
<a xlink:href="../../SDMLib/src/org/sdmlib/examples/helloworld/Edge.java" xlink:title="&lt;TABLE&gt;">
<polygon fill="none" stroke="black" points="890,-352 890,-369 961,-369 961,-352 890,-352"/>
<text text-anchor="start" x="901" y="-358.5" font-family="Arial" font-size="10.00"> </text>
<text text-anchor="start" x="905" y="-358.5" font-family="Arial" font-size="10.00">e13 :Edge</text>
</a>
<polygon fill="none" stroke="black" points="890,-332 890,-352 961,-352 961,-332 890,-332"/>
<text text-anchor="start" x="895" y="-340" font-family="Arial" font-size="10.00">name = &quot;e13&quot;</text>
</g>
<!-- e2&#45;&#45;e13 -->
<g id="edge19" class="edge"><title>e2&#45;&#45;e13</title>
<path fill="none" stroke="black" stroke-dasharray="1,5" d="M382.037,-749.291C381.2,-746.54 380.485,-743.731 380,-741 367.001,-667.79 352.406,-638.151 390,-574 493.975,-396.574 773.231,-360.95 881.38,-353.797"/>
<text text-anchor="middle" x="872.701" y="-356.264" font-family="Arial" font-size="10.00">candidate</text>
</g>
<!-- e14 -->
<g id="node16" class="node"><title>e14</title>
<a xlink:href="../../SDMLib/src/org/sdmlib/examples/helloworld/Edge.java" xlink:title="&lt;TABLE&gt;">
<polygon fill="none" stroke="black" points="611,-188 611,-205 682,-205 682,-188 611,-188"/>
<text text-anchor="start" x="622" y="-194.5" font-family="Arial" font-size="10.00"> </text>
<text text-anchor="start" x="626" y="-194.5" font-family="Arial" font-size="10.00">e14 :Edge</text>
</a>
<polygon fill="none" stroke="black" points="611,-168 611,-188 682,-188 682,-168 611,-168"/>
<text text-anchor="start" x="616" y="-176" font-family="Arial" font-size="10.00">name = &quot;e14&quot;</text>
</g>
<!-- e2&#45;&#45;e14 -->
<g id="edge21" class="edge"><title>e2&#45;&#45;e14</title>
<path fill="none" stroke="black" stroke-dasharray="1,5" d="M366.822,-749.397C364.907,-746.751 363.238,-743.937 362,-741 308.984,-615.213 353,-570.503 353,-434 353,-434 353,-434 353,-350 353,-237.382 520.831,-202.437 602.451,-192.101"/>
<text text-anchor="middle" x="594.089" y="-195.085" font-family="Arial" font-size="10.00">candidate</text>
</g>
<!-- e8 -->
<g id="node18" class="node"><title>e8</title>
<a xlink:href="../../SDMLib/src/org/sdmlib/examples/helloworld/Edge.java" xlink:title="&lt;TABLE&gt;">
<polygon fill="none" stroke="black" points="8,-24 8,-41 79,-41 79,-24 8,-24"/>
<text text-anchor="start" x="21.5" y="-30.5" font-family="Arial" font-size="10.00"> </text>
<text text-anchor="start" x="25.5" y="-30.5" font-family="Arial" font-size="10.00">e8 :Edge</text>
</a>
<polygon fill="none" stroke="black" points="8,-4 8,-24 79,-24 79,-4 8,-4"/>
<text text-anchor="start" x="13" y="-12" font-family="Arial" font-size="10.00">name = &quot;e18&quot;</text>
</g>
<!-- e2&#45;&#45;e8 -->
<g id="edge9" class="edge"><title>e2&#45;&#45;e8</title>
<path fill="none" stroke="black" stroke-dasharray="1,5" d="M347.523,-769.029C273.929,-765.294 131.093,-756.172 114,-741 65.2191,-697.701 81,-663.226 81,-598 81,-598 81,-598 81,-268 81,-185.043 59.2897,-88.0908 48.689,-45.6954"/>
<text text-anchor="middle" x="54.9404" y="-51.0006" font-family="Arial" font-size="10.00">candidate</text>
</g>
<!-- e15 -->
<g id="node19" class="node"><title>e15</title>
<a xlink:href="../../SDMLib/src/org/sdmlib/examples/helloworld/Edge.java" xlink:title="&lt;TABLE&gt;">
<polygon fill="none" stroke="black" points="124,-24 124,-41 195,-41 195,-24 124,-24"/>
<text text-anchor="start" x="135" y="-30.5" font-family="Arial" font-size="10.00"> </text>
<text text-anchor="start" x="139" y="-30.5" font-family="Arial" font-size="10.00">e15 :Edge</text>
</a>
<polygon fill="none" stroke="black" points="124,-4 124,-24 195,-24 195,-4 124,-4"/>
<text text-anchor="start" x="129" y="-12" font-family="Arial" font-size="10.00">name = &quot;e15&quot;</text>
</g>
<!-- e2&#45;&#45;e15 -->
<g id="edge23" class="edge"><title>e2&#45;&#45;e15</title>
<path fill="none" stroke="black" stroke-dasharray="1,5" d="M347.71,-771.045C287.993,-770.196 184.576,-765.151 157,-741 107.529,-697.673 119,-663.761 119,-598 119,-598 119,-598 119,-186 119,-134.434 138.338,-76.2565 150.123,-45.5917"/>
<text text-anchor="middle" x="150.908" y="-53.0609" font-family="Arial" font-size="10.00">candidate</text>
</g>
<!-- e9 -->
<g id="node20" class="node"><title>e9</title>
<a xlink:href="../../SDMLib/src/org/sdmlib/examples/helloworld/Edge.java" xlink:title="&lt;TABLE&gt;">
<polygon fill="none" stroke="black" points="272,-24 272,-41 343,-41 343,-24 272,-24"/>
<text text-anchor="start" x="285.5" y="-30.5" font-family="Arial" font-size="10.00"> </text>
<text text-anchor="start" x="289.5" y="-30.5" font-family="Arial" font-size="10.00">e9 :Edge</text>
</a>
<polygon fill="none" stroke="black" points="272,-4 272,-24 343,-24 343,-4 272,-4"/>
<text text-anchor="start" x="277" y="-12" font-family="Arial" font-size="10.00">name = &quot;e19&quot;</text>
</g>
<!-- e2&#45;&#45;e9 -->
<g id="edge11" class="edge"><title>e2&#45;&#45;e9</title>
<path fill="none" stroke="black" stroke-dasharray="1,5" d="M347.6,-753.126C342.231,-749.659 337.174,-745.632 333,-741 287.313,-690.291 277,-666.255 277,-598 277,-598 277,-598 277,-514 277,-332.889 297.671,-114.826 304.696,-45.948"/>
<text text-anchor="middle" x="308.004" y="-52.8849" font-family="Arial" font-size="10.00">candidate</text>
</g>
<!-- e16 -->
<g id="node24" class="node"><title>e16</title>
<a xlink:href="../../SDMLib/src/org/sdmlib/examples/helloworld/Edge.java" xlink:title="&lt;TABLE&gt;">
<polygon fill="none" stroke="black" points="517,-516 517,-533 588,-533 588,-516 517,-516"/>
<text text-anchor="start" x="528" y="-522.5" font-family="Arial" font-size="10.00"> </text>
<text text-anchor="start" x="532" y="-522.5" font-family="Arial" font-size="10.00">e16 :Edge</text>
</a>
<polygon fill="none" stroke="black" points="517,-496 517,-516 588,-516 588,-496 517,-496"/>
<text text-anchor="start" x="522" y="-504" font-family="Arial" font-size="10.00">name = &quot;e16&quot;</text>
</g>
<!-- e2&#45;&#45;e16 -->
<g id="edge25" class="edge"><title>e2&#45;&#45;e16</title>
<path fill="none" stroke="black" stroke-dasharray="1,5" d="M387.152,-749.205C381.497,-709.911 375.5,-626.419 415,-574 421.062,-565.955 470.609,-546.177 508.393,-531.954"/>
<text text-anchor="middle" x="501.42" y="-536.621" font-family="Arial" font-size="10.00">candidate</text>
</g>
<!-- e7 -->
<g id="node25" class="node"><title>e7</title>
<a xlink:href="../../SDMLib/src/org/sdmlib/examples/helloworld/Edge.java" xlink:title="&lt;TABLE&gt;">
<polygon fill="none" stroke="black" points="622,-516 622,-533 693,-533 693,-516 622,-516"/>
<text text-anchor="start" x="635.5" y="-522.5" font-family="Arial" font-size="10.00"> </text>
<text text-anchor="start" x="639.5" y="-522.5" font-family="Arial" font-size="10.00">e7 :Edge</text>
</a>
<polygon fill="none" stroke="black" points="622,-496 622,-516 693,-516 693,-496 622,-496"/>
<text text-anchor="start" x="627" y="-504" font-family="Arial" font-size="10.00">name = &quot;e17&quot;</text>
</g>
<!-- e2&#45;&#45;e7 -->
<g id="edge27" class="edge"><title>e2&#45;&#45;e7</title>
<path fill="none" stroke="black" stroke-dasharray="1,5" d="M392.339,-749.325C401.579,-703.353 434.57,-598.287 462,-574 507.849,-533.405 537.044,-557.78 595,-538 601.034,-535.941 607.364,-533.536 613.605,-531.087"/>
<text text-anchor="middle" x="606.703" y="-535.824" font-family="Arial" font-size="10.00">candidate</text>
</g>
<!-- e2&#45;&#45;e7 -->
<g id="edge7" class="edge"><title>e2&#45;&#45;e7</title>
<path fill="none" stroke="black" stroke-dasharray="1,5" d="M401.948,-749.325C419.579,-703.353 452.57,-598.287 480,-574 525.849,-533.405 555.044,-557.78 613,-538 613.471,-537.839 613.945,-537.676 614.419,-537.511"/>
<text text-anchor="middle" x="607.244" y="-541.976" font-family="Arial" font-size="10.00">match</text>
</g>
<!-- n17 -->
<g id="node23" class="node"><title>n17</title>
<a xlink:href="../../SDMLib/src/org/sdmlib/examples/helloworld/Node.java" xlink:title="&lt;TABLE&gt;">
<polygon fill="none" stroke="black" points="624,-598 624,-615 690,-615 690,-598 624,-598"/>
<text text-anchor="start" x="632.5" y="-604.5" font-family="Arial" font-size="10.00"> </text>
<text text-anchor="start" x="636.5" y="-604.5" font-family="Arial" font-size="10.00">n17 :Node</text>
</a>
<polygon fill="none" stroke="black" points="624,-578 624,-598 690,-598 690,-578 624,-578"/>
<text text-anchor="start" x="629" y="-586" font-family="Arial" font-size="10.00">name = &quot;n8&quot;</text>
</g>
<!-- n4&#45;&#45;n17 -->
<g id="edge29" class="edge"><title>n4&#45;&#45;n17</title>
<path fill="none" stroke="black" stroke-dasharray="1,5" d="M660.634,-656.14C659.922,-644.759 659.056,-630.893 658.347,-619.557"/>
<text text-anchor="middle" x="663.131" y="-625.839" font-family="Arial" font-size="10.00">match</text>
</g>
<!-- n5&#45;&#45;n17 -->
<g id="edge31" class="edge"><title>n5&#45;&#45;n17</title>
<path fill="none" stroke="black" stroke-dasharray="1,5" d="M584.061,-656.351C598.291,-644.967 615.684,-631.052 629.917,-619.666"/>
<text text-anchor="middle" x="625.48" y="-626.128" font-family="Arial" font-size="10.00">match</text>
</g>
<!-- n18 -->
<g id="node8" class="node"><title>n18</title>
<a xlink:href="../../SDMLib/src/org/sdmlib/examples/helloworld/Node.java" xlink:title="&lt;TABLE&gt;">
<polygon fill="none" stroke="black" points="738,-773 738,-790 804,-790 804,-773 738,-773"/>
<text text-anchor="start" x="746.5" y="-779.5" font-family="Arial" font-size="10.00"> </text>
<text text-anchor="start" x="750.5" y="-779.5" font-family="Arial" font-size="10.00">n18 :Node</text>
</a>
<polygon fill="none" stroke="black" points="738,-753 738,-773 804,-773 804,-753 738,-753"/>
<text text-anchor="start" x="743" y="-761" font-family="Arial" font-size="10.00">name = &quot;n1&quot;</text>
</g>
<!-- g6&#45;&#45;n18 -->
<g id="edge39" class="edge"><title>g6&#45;&#45;n18</title>
<path fill="none" stroke="black" d="M994.96,-840.318C954.009,-831.014 884.406,-814.183 826,-795 821.506,-793.524 816.85,-791.868 812.238,-790.144"/>
<text text-anchor="middle" x="822.205" y="-786.841" font-family="Arial" font-size="10.00">nodes</text>
<text text-anchor="middle" x="985.181" y="-839.907" font-family="Arial" font-size="10.00">graph</text>
</g>
<!-- g6&#45;&#45;e10 -->
<g id="edge59" class="edge"><title>g6&#45;&#45;e10</title>
<path fill="none" stroke="black" d="M994.71,-844.724C958.204,-839.663 901.398,-826.909 864,-795 835.082,-770.327 818.994,-727.71 811.448,-701.861"/>
<text text-anchor="middle" x="818.148" y="-706.785" font-family="Arial" font-size="10.00">edges</text>
<text text-anchor="middle" x="985.113" y="-845.033" font-family="Arial" font-size="10.00">graph</text>
</g>
<!-- n19 -->
<g id="node10" class="node"><title>n19</title>
<a xlink:href="../../SDMLib/src/org/sdmlib/examples/helloworld/Node.java" xlink:title="&lt;TABLE&gt;">
<polygon fill="none" stroke="black" points="890,-598 890,-615 956,-615 956,-598 890,-598"/>
<text text-anchor="start" x="898.5" y="-604.5" font-family="Arial" font-size="10.00"> </text>
<text text-anchor="start" x="902.5" y="-604.5" font-family="Arial" font-size="10.00">n19 :Node</text>
</a>
<polygon fill="none" stroke="black" points="890,-578 890,-598 956,-598 956,-578 890,-578"/>
<text text-anchor="start" x="895" y="-586" font-family="Arial" font-size="10.00">name = &quot;n2&quot;</text>
</g>
<!-- g6&#45;&#45;n19 -->
<g id="edge41" class="edge"><title>g6&#45;&#45;n19</title>
<path fill="none" stroke="black" d="M1008.64,-830.83C998.048,-821.291 985.87,-808.616 978,-795 960.498,-764.717 937.363,-664.383 927.629,-619.743"/>
<text text-anchor="middle" x="933.712" y="-625.18" font-family="Arial" font-size="10.00">nodes</text>
<text text-anchor="middle" x="999.106" y="-825.318" font-family="Arial" font-size="10.00">graph</text>
</g>
<!-- g6&#45;&#45;e11 -->
<g id="edge61" class="edge"><title>g6&#45;&#45;e11</title>
<path fill="none" stroke="black" d="M1037.07,-830.927C1054.8,-785.187 1096.12,-657.695 1044,-574 1027.77,-547.938 996.022,-533.251 969.542,-525.181"/>
<text text-anchor="middle" x="979.467" y="-521.461" font-family="Arial" font-size="10.00">edges</text>
<text text-anchor="middle" x="1036.24" y="-818.461" font-family="Arial" font-size="10.00">graph</text>
</g>
<!-- n20 -->
<g id="node12" class="node"><title>n20</title>
<a xlink:href="../../SDMLib/src/org/sdmlib/examples/helloworld/Node.java" xlink:title="&lt;TABLE&gt;">
<polygon fill="none" stroke="black" points="892,-434 892,-451 958,-451 958,-434 892,-434"/>
<text text-anchor="start" x="900.5" y="-440.5" font-family="Arial" font-size="10.00"> </text>
<text text-anchor="start" x="904.5" y="-440.5" font-family="Arial" font-size="10.00">n20 :Node</text>
</a>
<polygon fill="none" stroke="black" points="892,-414 892,-434 958,-434 958,-414 892,-414"/>
<text text-anchor="start" x="897" y="-422" font-family="Arial" font-size="10.00">name = &quot;n3&quot;</text>
</g>
<!-- g6&#45;&#45;n20 -->
<g id="edge43" class="edge"><title>g6&#45;&#45;n20</title>
<path fill="none" stroke="black" d="M1044.89,-830.793C1052.89,-820.854 1062.44,-807.815 1069,-795 1093.45,-747.199 1106,-733.691 1106,-680 1106,-680 1106,-680 1106,-596 1106,-521.356 1019.47,-472.488 966.072,-449.435"/>
<text text-anchor="middle" x="976.071" y="-446.843" font-family="Arial" font-size="10.00">nodes</text>
<text text-anchor="middle" x="1047.22" y="-818.57" font-family="Arial" font-size="10.00">graph</text>
</g>
<!-- g6&#45;&#45;e12 -->
<g id="edge63" class="edge"><title>g6&#45;&#45;e12</title>
<path fill="none" stroke="black" d="M999.995,-830.938C985.653,-821.685 969.033,-809.232 957,-795 909.903,-739.296 928.252,-705.99 884,-648 770.538,-499.313 559.422,-404.025 468.499,-368.12"/>
<text text-anchor="middle" x="478.488" y="-365.141" font-family="Arial" font-size="10.00">edges</text>
<text text-anchor="middle" x="990.101" y="-826.988" font-family="Arial" font-size="10.00">graph</text>
</g>
<!-- g6&#45;&#45;e13 -->
<g id="edge65" class="edge"><title>g6&#45;&#45;e13</title>
<path fill="none" stroke="black" d="M1065.09,-847.897C1142.67,-846.848 1324.95,-839.584 1363,-795 1376.27,-779.449 1371.28,-767.691 1363,-749 1279.72,-561.115 1058.72,-424.251 966.421,-373.552"/>
<text text-anchor="middle" x="976.389" y="-371.85" font-family="Arial" font-size="10.00">edges</text>
<text text-anchor="middle" x="1074.06" y="-840.988" font-family="Arial" font-size="10.00">graph</text>
</g>
<!-- n21 -->
<g id="node15" class="node"><title>n21</title>
<a xlink:href="../../SDMLib/src/org/sdmlib/examples/helloworld/Node.java" xlink:title="&lt;TABLE&gt;">
<polygon fill="none" stroke="black" points="892,-270 892,-287 958,-287 958,-270 892,-270"/>
<text text-anchor="start" x="900.5" y="-276.5" font-family="Arial" font-size="10.00"> </text>
<text text-anchor="start" x="904.5" y="-276.5" font-family="Arial" font-size="10.00">n21 :Node</text>
</a>
<polygon fill="none" stroke="black" points="892,-250 892,-270 958,-270 958,-250 892,-250"/>
<text text-anchor="start" x="897" y="-258" font-family="Arial" font-size="10.00">name = &quot;n4&quot;</text>
</g>
<!-- g6&#45;&#45;n21 -->
<g id="edge45" class="edge"><title>g6&#45;&#45;n21</title>
<path fill="none" stroke="black" d="M1056.42,-830.905C1069.18,-821.562 1083.87,-809.039 1094,-795 1151.87,-714.797 1143.19,-670.143 1120,-574 1090.96,-453.615 990.668,-338.043 946.346,-291.51"/>
<text text-anchor="middle" x="955.612" y="-292.768" font-family="Arial" font-size="10.00">nodes</text>
<text text-anchor="middle" x="1061.15" y="-819.596" font-family="Arial" font-size="10.00">graph</text>
</g>
<!-- g6&#45;&#45;e14 -->
<g id="edge67" class="edge"><title>g6&#45;&#45;e14</title>
<path fill="none" stroke="black" d="M1065.07,-847.217C1144.21,-844.754 1333.5,-834.751 1381,-795 1422.39,-760.362 1420,-733.97 1420,-680 1420,-680 1420,-680 1420,-350 1420,-199.499 852.272,-187.963 689.272,-187.752"/>
<text text-anchor="middle" x="698.372" y="-181.106" font-family="Arial" font-size="10.00">edges</text>
<text text-anchor="middle" x="1073.97" y="-840.16" font-family="Arial" font-size="10.00">graph</text>
</g>
<!-- n22 -->
<g id="node17" class="node"><title>n22</title>
<a xlink:href="../../SDMLib/src/org/sdmlib/examples/helloworld/Node.java" xlink:title="&lt;TABLE&gt;">
<polygon fill="none" stroke="black" points="205,-106 205,-123 271,-123 271,-106 205,-106"/>
<text text-anchor="start" x="213.5" y="-112.5" font-family="Arial" font-size="10.00"> </text>
<text text-anchor="start" x="217.5" y="-112.5" font-family="Arial" font-size="10.00">n22 :Node</text>
</a>
<polygon fill="none" stroke="black" points="205,-86 205,-106 271,-106 271,-86 205,-86"/>
<text text-anchor="start" x="210" y="-94" font-family="Arial" font-size="10.00">name = &quot;n5&quot;</text>
</g>
<!-- g6&#45;&#45;n22 -->
<g id="edge47" class="edge"><title>g6&#45;&#45;n22</title>
<path fill="none" stroke="black" d="M1065.04,-847.48C1148.75,-845.568 1357.41,-836.639 1411,-795 1454.6,-761.124 1458,-735.215 1458,-680 1458,-680 1458,-680 1458,-268 1458,-146.345 492.401,-112.931 279.291,-107.038"/>
<text text-anchor="middle" x="288.482" y="-100.598" font-family="Arial" font-size="10.00">nodes</text>
<text text-anchor="middle" x="1073.98" y="-840.499" font-family="Arial" font-size="10.00">graph</text>
</g>
<!-- g6&#45;&#45;e8 -->
<g id="edge55" class="edge"><title>g6&#45;&#45;e8</title>
<path fill="none" stroke="black" d="M994.969,-848.119C830.93,-848.404 143.333,-846.5 64,-795 15.8171,-763.721 5,-737.445 5,-680 5,-680 5,-680 5,-186 5,-134.579 23.3715,-76.3447 34.5666,-45.632"/>
<text text-anchor="middle" x="35.5204" y="-53.0864" font-family="Arial" font-size="10.00">edges</text>
<text text-anchor="middle" x="985.905" y="-849.841" font-family="Arial" font-size="10.00">graph</text>
</g>
<!-- g6&#45;&#45;e15 -->
<g id="edge69" class="edge"><title>g6&#45;&#45;e15</title>
<path fill="none" stroke="black" d="M994.908,-846.876C892.979,-843.275 588.275,-830.135 338,-795 198.645,-775.437 43,-820.721 43,-680 43,-680 43,-680 43,-268 43,-178.178 107.911,-86.2019 140.619,-45.5567"/>
<text text-anchor="middle" x="138.373" y="-52.801" font-family="Arial" font-size="10.00">edges</text>
<text text-anchor="middle" x="985.692" y="-848.256" font-family="Arial" font-size="10.00">graph</text>
</g>
<!-- g6&#45;&#45;e9 -->
<g id="edge57" class="edge"><title>g6&#45;&#45;e9</title>
<path fill="none" stroke="black" d="M1065.29,-847.759C1154.09,-846.494 1384.01,-838.947 1444,-795 1448.13,-791.976 1496,-681.968 1496,-680 1496,-680 1496,-680 1496,-186 1496,-67.9676 564.211,-31.9572 350.373,-25.2472"/>
<text text-anchor="middle" x="359.578" y="-18.841" font-family="Arial" font-size="10.00">edges</text>
<text text-anchor="middle" x="1074.27" y="-840.856" font-family="Arial" font-size="10.00">graph</text>
</g>
<!-- n23 -->
<g id="node21" class="node"><title>n23</title>
<a xlink:href="../../SDMLib/src/org/sdmlib/examples/helloworld/Node.java" xlink:title="&lt;TABLE&gt;">
<polygon fill="none" stroke="black" points="1180,-773 1180,-790 1246,-790 1246,-773 1180,-773"/>
<text text-anchor="start" x="1188.5" y="-779.5" font-family="Arial" font-size="10.00"> </text>
<text text-anchor="start" x="1192.5" y="-779.5" font-family="Arial" font-size="10.00">n23 :Node</text>
</a>
<polygon fill="none" stroke="black" points="1180,-753 1180,-773 1246,-773 1246,-753 1180,-753"/>
<text text-anchor="start" x="1185" y="-761" font-family="Arial" font-size="10.00">name = &quot;n6&quot;</text>
</g>
<!-- g6&#45;&#45;n23 -->
<g id="edge49" class="edge"><title>g6&#45;&#45;n23</title>
<path fill="none" stroke="black" d="M1065.28,-833.539C1095.72,-821.067 1139.69,-803.044 1171.75,-789.907"/>
<text text-anchor="middle" x="1164.96" y="-794.755" font-family="Arial" font-size="10.00">nodes</text>
<text text-anchor="middle" x="1072.07" y="-823.692" font-family="Arial" font-size="10.00">graph</text>
</g>
<!-- n24 -->
<g id="node22" class="node"><title>n24</title>
<a xlink:href="../../SDMLib/src/org/sdmlib/examples/helloworld/Node.java" xlink:title="&lt;TABLE&gt;">
<polygon fill="none" stroke="black" points="1280,-773 1280,-790 1346,-790 1346,-773 1280,-773"/>
<text text-anchor="start" x="1288.5" y="-779.5" font-family="Arial" font-size="10.00"> </text>
<text text-anchor="start" x="1292.5" y="-779.5" font-family="Arial" font-size="10.00">n24 :Node</text>
</a>
<polygon fill="none" stroke="black" points="1280,-753 1280,-773 1346,-773 1346,-753 1280,-753"/>
<text text-anchor="start" x="1285" y="-761" font-family="Arial" font-size="10.00">name = &quot;n7&quot;</text>
</g>
<!-- g6&#45;&#45;n24 -->
<g id="edge51" class="edge"><title>g6&#45;&#45;n24</title>
<path fill="none" stroke="black" d="M1065.31,-842.14C1111.45,-833.991 1194.46,-817.644 1263,-795 1265.88,-794.048 1268.82,-792.99 1271.77,-791.868"/>
<text text-anchor="middle" x="1264.79" y="-796.532" font-family="Arial" font-size="10.00">nodes</text>
<text text-anchor="middle" x="1073.47" y="-833.871" font-family="Arial" font-size="10.00">graph</text>
</g>
<!-- g6&#45;&#45;n17 -->
<g id="edge53" class="edge"><title>g6&#45;&#45;n17</title>
<path fill="none" stroke="black" d="M994.775,-842.036C965.97,-835.369 926.181,-821.775 902,-795 856.292,-744.388 907.343,-695.076 858,-648 835.299,-626.343 750.155,-610.979 698.242,-603.391"/>
<text text-anchor="middle" x="707.838" y="-598.077" font-family="Arial" font-size="10.00">nodes</text>
<text text-anchor="middle" x="984.962" y="-841.461" font-family="Arial" font-size="10.00">graph</text>
</g>
<!-- g6&#45;&#45;e16 -->
<g id="edge71" class="edge"><title>g6&#45;&#45;e16</title>
<path fill="none" stroke="black" d="M1029,-830.717C1025.46,-776.079 1011.6,-608.646 973,-574 911.687,-518.967 683.854,-558.283 604,-538 601.15,-537.276 598.253,-536.42 595.361,-535.472"/>
<text text-anchor="middle" x="605.286" y="-531.749" font-family="Arial" font-size="10.00">edges</text>
<text text-anchor="middle" x="1024.14" y="-819.476" font-family="Arial" font-size="10.00">graph</text>
</g>
<!-- g6&#45;&#45;e7 -->
<g id="edge73" class="edge"><title>g6&#45;&#45;e7</title>
<path fill="none" stroke="black" d="M1031.1,-830.945C1034.19,-776.997 1040.62,-611.411 1006,-574 985.427,-551.771 789.362,-529.364 700.455,-520.25"/>
<text text-anchor="middle" x="709.911" y="-514.497" font-family="Arial" font-size="10.00">edges</text>
<text text-anchor="middle" x="1027.34" y="-819.179" font-family="Arial" font-size="10.00">graph</text>
</g>
<!-- n18&#45;&#45;e10 -->
<g id="edge75" class="edge"><title>n18&#45;&#45;e10</title>
<path fill="none" stroke="black" d="M779.295,-749.434C784.833,-735.033 792.092,-716.16 797.644,-701.726"/>
<text text-anchor="middle" x="798.335" y="-709.202" font-family="Arial" font-size="10.00">outEdges</text>
<text text-anchor="middle" x="778.603" y="-736.958" font-family="Arial" font-size="10.00">src</text>
</g>
<!-- n18&#45;&#45;e12 -->
<g id="edge77" class="edge"><title>n18&#45;&#45;e12</title>
<path fill="none" stroke="black" d="M757.359,-749.298C755.813,-746.545 754.321,-743.734 753,-741 733.783,-701.237 750.94,-677.418 718,-648 680.052,-614.11 652.852,-642.05 607,-620 552.686,-593.881 535.474,-585.977 499,-538 459.563,-486.126 438.198,-410.461 429.589,-373.683"/>
<text text-anchor="middle" x="435.848" y="-378.981" font-family="Arial" font-size="10.00">inEdges</text>
<text text-anchor="middle" x="749.251" y="-740.944" font-family="Arial" font-size="10.00">tgt</text>
</g>
<!-- e10&#45;&#45;n19 -->
<g id="edge79" class="edge"><title>e10&#45;&#45;n19</title>
<path fill="none" stroke="black" d="M837.662,-656.351C854.31,-644.967 874.661,-631.052 891.313,-619.666"/>
<text text-anchor="middle" x="886.217" y="-625.771" font-family="Arial" font-size="10.00">tgt</text>
<text text-anchor="middle" x="842.758" y="-645.247" font-family="Arial" font-size="10.00">inEdges</text>
</g>
<!-- n19&#45;&#45;e11 -->
<g id="edge81" class="edge"><title>n19&#45;&#45;e11</title>
<path fill="none" stroke="black" d="M923.82,-574.14C924.247,-562.759 924.767,-548.893 925.192,-537.557"/>
<text text-anchor="middle" x="929.075" y="-544.272" font-family="Arial" font-size="10.00">outEdges</text>
<text text-anchor="middle" x="919.936" y="-562.425" font-family="Arial" font-size="10.00">src</text>
</g>
<!-- e11&#45;&#45;n20 -->
<g id="edge83" class="edge"><title>e11&#45;&#45;n20</title>
<path fill="none" stroke="black" d="M925.727,-492.14C925.584,-480.759 925.411,-466.893 925.269,-455.557"/>
<text text-anchor="middle" x="929.609" y="-462.066" font-family="Arial" font-size="10.00">tgt</text>
<text text-anchor="middle" x="921.388" y="-480.63" font-family="Arial" font-size="10.00">inEdges</text>
</g>
<!-- n20&#45;&#45;e12 -->
<g id="edge85" class="edge"><title>n20&#45;&#45;e12</title>
<path fill="none" stroke="black" d="M883.703,-414.547C878.484,-412.792 873.163,-411.213 868,-410 700.699,-370.688 650.414,-412.826 483,-374 478.174,-372.881 473.21,-371.453 468.313,-369.865"/>
<text text-anchor="middle" x="478.233" y="-366.107" font-family="Arial" font-size="10.00">outEdges</text>
<text text-anchor="middle" x="873.77" y="-413.201" font-family="Arial" font-size="10.00">src</text>
</g>
<!-- n20&#45;&#45;e13 -->
<g id="edge87" class="edge"><title>n20&#45;&#45;e13</title>
<path fill="none" stroke="black" d="M925,-410.14C925,-398.759 925,-384.893 925,-373.557"/>
<text text-anchor="middle" x="929.226" y="-380.12" font-family="Arial" font-size="10.00">outEdges</text>
<text text-anchor="middle" x="920.774" y="-398.577" font-family="Arial" font-size="10.00">src</text>
</g>
<!-- n20&#45;&#45;e15 -->
<g id="edge89" class="edge"><title>n20&#45;&#45;e15</title>
<path fill="none" stroke="black" d="M883.79,-415.568C730.386,-354.329 200.566,-142.163 188,-128 167.597,-105.006 161.434,-68.7914 159.639,-45.7319"/>
<text text-anchor="middle" x="164.688" y="-51.8634" font-family="Arial" font-size="10.00">inEdges</text>
<text text-anchor="middle" x="873.805" y="-413.629" font-family="Arial" font-size="10.00">tgt</text>
</g>
<!-- e13&#45;&#45;n21 -->
<g id="edge91" class="edge"><title>e13&#45;&#45;n21</title>
<path fill="none" stroke="black" d="M925,-328.14C925,-316.759 925,-302.893 925,-291.557"/>
<text text-anchor="middle" x="929.226" y="-298.12" font-family="Arial" font-size="10.00">tgt</text>
<text text-anchor="middle" x="920.774" y="-316.577" font-family="Arial" font-size="10.00">inEdges</text>
</g>
<!-- n21&#45;&#45;e14 -->
<g id="edge93" class="edge"><title>n21&#45;&#45;e14</title>
<path fill="none" stroke="black" d="M883.833,-256.196C831.841,-241.288 742.772,-215.748 689.637,-200.512"/>
<text text-anchor="middle" x="699.514" y="-196.448" font-family="Arial" font-size="10.00">outEdges</text>
<text text-anchor="middle" x="873.956" y="-255.26" font-family="Arial" font-size="10.00">src</text>
</g>
<!-- e14&#45;&#45;n22 -->
<g id="edge95" class="edge"><title>e14&#45;&#45;n22</title>
<path fill="none" stroke="black" d="M602.723,-177.514C523.56,-161.992 356.461,-129.228 279.011,-114.041"/>
<text text-anchor="middle" x="288.718" y="-109.138" font-family="Arial" font-size="10.00">tgt</text>
<text text-anchor="middle" x="593.016" y="-177.418" font-family="Arial" font-size="10.00">inEdges</text>
</g>
<!-- n22&#45;&#45;e8 -->
<g id="edge97" class="edge"><title>n22&#45;&#45;e8</title>
<path fill="none" stroke="black" d="M196.646,-87.0341C164.224,-73.733 119.238,-55.2772 86.3222,-41.7732"/>
<text text-anchor="middle" x="96.3112" y="-38.8032" font-family="Arial" font-size="10.00">outEdges</text>
<text text-anchor="middle" x="186.657" y="-85.004" font-family="Arial" font-size="10.00">src</text>
</g>
<!-- n22&#45;&#45;e15 -->
<g id="edge99" class="edge"><title>n22&#45;&#45;e15</title>
<path fill="none" stroke="black" d="M216.413,-82.1396C205.175,-70.759 191.482,-56.8929 180.287,-45.5569"/>
<text text-anchor="middle" x="189.663" y="-46.5362" font-family="Arial" font-size="10.00">outEdges</text>
<text text-anchor="middle" x="207.038" y="-76.1604" font-family="Arial" font-size="10.00">src</text>
</g>
<!-- n22&#45;&#45;e9 -->
<g id="edge101" class="edge"><title>n22&#45;&#45;e9</title>
<path fill="none" stroke="black" d="M256.855,-82.1396C266.67,-70.759 278.63,-56.8929 288.407,-45.5569"/>
<text text-anchor="middle" x="285.688" y="-52.6802" font-family="Arial" font-size="10.00">inEdges</text>
<text text-anchor="middle" x="259.574" y="-70.0164" font-family="Arial" font-size="10.00">tgt</text>
</g>
<!-- n17&#45;&#45;e16 -->
<g id="edge103" class="edge"><title>n17&#45;&#45;e16</title>
<path fill="none" stroke="black" d="M628.585,-574.351C613.645,-562.967 595.381,-549.052 580.437,-537.666"/>
<text text-anchor="middle" x="590.208" y="-537.297" font-family="Arial" font-size="10.00">outEdges_inEdges</text>
<text text-anchor="middle" x="618.815" y="-569.72" font-family="Arial" font-size="10.00">src_tgt</text>
</g>
<!-- n17&#45;&#45;e7 -->
<g id="edge105" class="edge"><title>n17&#45;&#45;e7</title>
<path fill="none" stroke="black" d="M657,-574.14C657,-562.759 657,-548.893 657,-537.557"/>
<text text-anchor="middle" x="661.226" y="-544.12" font-family="Arial" font-size="10.00">outEdges_inEdges</text>
<text text-anchor="middle" x="652.774" y="-562.577" font-family="Arial" font-size="10.00">src_tgt</text>
</g>
</g>
</svg>
