<?xml version="1.0" encoding="UTF-8" standalone="no"?>
<!DOCTYPE svg PUBLIC "-//W3C//DTD SVG 1.1//EN"
 "http://www.w3.org/Graphics/SVG/1.1/DTD/svg11.dtd">
<!-- Generated by graphviz version 2.28.0 (20110507.0327)
 -->
<!-- Title: ObjectDiagram Pages: 1 -->
<svg width="165pt" height="232pt"
 viewBox="0.00 0.00 165.00 232.00" xmlns="http://www.w3.org/2000/svg" xmlns:xlink="http://www.w3.org/1999/xlink">
<g id="graph1" class="graph" transform="scale(1 1) rotate(0) translate(4 228)">
<title>ObjectDiagram</title>
<polygon fill="white" stroke="white" points="-4,5 -4,-228 162,-228 162,5 -4,5"/>
<!-- g1 -->
<g id="node1" class="node"><title>g1</title>
<polygon fill="deepskyblue" stroke="deepskyblue" points="88,-168.5 88,-219.5 148,-219.5 148,-168.5 88,-168.5"/>
<text text-anchor="start" x="116" y="-209.5" font-family="Times New Roman,serif" font-size="10.00">«bound»</text>
<polygon fill="none" stroke="black" points="88,-188 88,-204 148,-204 148,-188 88,-188"/>
<text text-anchor="start" x="91.5" y="-194" font-family="Times New Roman,serif" font-size="10.00"> </text>
<text text-anchor="start" x="94.5" y="-194" font-family="Times New Roman,serif" font-size="10.00"> g1 :GraphPO </text>
<polygon fill="none" stroke="black" points="88,-168 88,-188 148,-188 148,-168 88,-168"/>
<text text-anchor="start" x="115.5" y="-176" font-family="Times New Roman,serif" font-size="10.00"> &#160;</text>
</g>
<!-- e2 -->
<g id="node2" class="node"><title>e2</title>
<polygon fill="deepskyblue" stroke="deepskyblue" points="90,-86.5 90,-123.5 146,-123.5 146,-86.5 90,-86.5"/>
<polygon fill="none" stroke="black" points="90,-106 90,-123 146,-123 146,-106 90,-106"/>
<text text-anchor="start" x="93.5" y="-112.5" font-family="Times New Roman,serif" font-size="10.00"> </text>
<text text-anchor="start" x="96.5" y="-112.5" font-family="Times New Roman,serif" font-size="10.00"> e2 :EdgePO </text>
<polygon fill="none" stroke="black" points="90,-86 90,-106 146,-106 146,-86 90,-86"/>
<text text-anchor="start" x="115.5" y="-94" font-family="Times New Roman,serif" font-size="10.00"> &#160;</text>
</g>
<!-- g1&#45;&#45;e2 -->
<g id="edge4" class="edge"><title>g1&#45;&#45;e2</title>
<path fill="none" stroke="black" d="M118,-164.03C118,-152.167 118,-138.675 118,-127.687"/>
<text text-anchor="middle" x="122.226" y="-134.25" font-family="Times New Roman,serif" font-size="10.00">edges</text>
</g>
<!-- allMatches_e2 -->
<g id="node3" class="node"><title>allMatches_e2</title>
<text text-anchor="middle" x="30" y="-20.5" font-family="Times New Roman,serif" font-size="10.00">allMatches</text>
</g>
<!-- e2&#45;&#45;allMatches_e2 -->
<g id="edge2" class="edge"><title>e2&#45;&#45;allMatches_e2</title>
<path fill="none" stroke="black" stroke-dasharray="1,5" d="M93.9536,-82.1396C79.7047,-69.1861 61.9138,-53.0125 48.7164,-41.0149"/>
</g>
<!-- n3 -->
<g id="node4" class="node"><title>n3</title>
<polygon fill="deepskyblue" stroke="deepskyblue" points="86.5,-4.5 86.5,-41.5 149.5,-41.5 149.5,-4.5 86.5,-4.5"/>
<polygon fill="none" stroke="black" points="87,-24 87,-41 150,-41 150,-24 87,-24"/>
<text text-anchor="start" x="90.5" y="-30.5" font-family="Times New Roman,serif" font-size="10.00"> </text>
<text text-anchor="start" x="93.5" y="-30.5" font-family="Times New Roman,serif" font-size="10.00"> n3 :NodePO </text>
<polygon fill="none" stroke="black" points="87,-4 87,-24 150,-24 150,-4 87,-4"/>
<text text-anchor="start" x="116" y="-12" font-family="Times New Roman,serif" font-size="10.00"> &#160;</text>
</g>
<!-- e2&#45;&#45;n3 -->
<g id="edge6" class="edge"><title>e2&#45;&#45;n3</title>
<path fill="none" stroke="black" d="M111.909,-82.1396C111.022,-70.759 111.03,-56.8929 111.933,-45.5569"/>
<text text-anchor="middle" x="115.514" y="-52.394" font-family="Times New Roman,serif" font-size="10.00">src</text>
</g>
<!-- e2&#45;&#45;n3 -->
<g id="edge8" class="edge"><title>e2&#45;&#45;n3</title>
<path fill="none" stroke="black" d="M124.091,-82.1396C124.978,-70.759 124.97,-56.8929 124.067,-45.5569"/>
<text text-anchor="middle" x="128.918" y="-51.8014" font-family="Times New Roman,serif" font-size="10.00">tgt</text>
</g>
</g>
</svg>
