<?xml version="1.0" encoding="UTF-8" standalone="no"?>
<!DOCTYPE svg PUBLIC "-//W3C//DTD SVG 1.1//EN"
 "http://www.w3.org/Graphics/SVG/1.1/DTD/svg11.dtd">
<!-- Generated by graphviz version 2.28.0 (20110507.0327)
 -->
<!-- Title: ObjectDiagram Pages: 1 -->
<svg width="1222pt" height="997pt"
 viewBox="0.00 0.00 1221.92 997.00" xmlns="http://www.w3.org/2000/svg" xmlns:xlink="http://www.w3.org/1999/xlink">
<g id="graph1" class="graph" transform="scale(1 1) rotate(0) translate(4 993)">
<title>ObjectDiagram</title>
<polygon fill="white" stroke="white" points="-4,5 -4,-993 1218.92,-993 1218.92,5 -4,5"/>
<g id="graph2" class="cluster"><title>cluster_n3</title>
<polygon fill="none" stroke="grey" points="188,-730 188,-839 296,-839 296,-730 188,-730"/>
<image xlink:href="../../SDMLib.net/doc/forbiddensign.svg" width="30px" height="30px" preserveAspectRatio="xMinYMin meet" x="200.5" y="-830"/>
<text text-anchor="start" x="237" y="-811.8" font-family="Times New Roman,serif" font-size="14.00">NAC n3</text>
</g>
<g id="graph3" class="cluster"><title>cluster_n5</title>
<polygon fill="none" stroke="grey" points="72,-730 72,-839 180,-839 180,-730 72,-730"/>
<image xlink:href="../../SDMLib.net/doc/forbiddensign.svg" width="30px" height="30px" preserveAspectRatio="xMinYMin meet" x="84.5" y="-830"/>
<text text-anchor="start" x="121" y="-811.8" font-family="Times New Roman,serif" font-size="14.00">NAC n5</text>
</g>
<!-- g1 -->
<g id="node1" class="node"><title>g1</title>
<polygon fill="deepskyblue" stroke="deepskyblue" points="423.5,-933.5 423.5,-984.5 498.5,-984.5 498.5,-933.5 423.5,-933.5"/>
<text text-anchor="start" x="460" y="-974.5" font-family="Arial" font-size="10.00">«bound»</text>
<polygon fill="none" stroke="black" points="424,-953 424,-969 499,-969 499,-953 424,-953"/>
<text text-anchor="start" x="427.5" y="-959" font-family="Arial" font-size="10.00"> </text>
<text text-anchor="start" x="431.5" y="-959" font-family="Arial" font-size="10.00"> g1 :GraphPO </text>
<polygon fill="none" stroke="black" points="424,-933 424,-953 499,-953 499,-933 424,-933"/>
<text text-anchor="start" x="458" y="-941" font-family="Arial" font-size="10.00"> &#160;</text>
</g>
<!-- n2 -->
<g id="node2" class="node"><title>n2</title>
<polygon fill="deepskyblue" stroke="deepskyblue" points="206.5,-851.5 206.5,-888.5 277.5,-888.5 277.5,-851.5 206.5,-851.5"/>
<polygon fill="none" stroke="black" points="207,-871 207,-888 278,-888 278,-871 207,-871"/>
<text text-anchor="start" x="210.5" y="-877.5" font-family="Arial" font-size="10.00"> </text>
<text text-anchor="start" x="214.5" y="-877.5" font-family="Arial" font-size="10.00"> n2 :NodePO </text>
<polygon fill="none" stroke="black" points="207,-851 207,-871 278,-871 278,-851 207,-851"/>
<text text-anchor="start" x="239" y="-859" font-family="Arial" font-size="10.00"> &#160;</text>
</g>
<!-- g1&#45;&#45;n2 -->
<g id="edge14" class="edge"><title>g1&#45;&#45;n2</title>
<path fill="none" stroke="black" d="M415.623,-939.974C377.411,-924.793 323.113,-903.223 285.453,-888.262"/>
<text text-anchor="middle" x="295.437" y="-885.181" font-family="Arial" font-size="10.00">nodes</text>
</g>
<!-- g7 -->
<g id="node8" class="node"><title>g7</title>
<a xlink:href="../examples/org/sdmlib/examples/helloworld/Graph.java" xlink:title="&lt;TABLE&gt;">
<polygon fill="none" stroke="black" points="653,-861 653,-878 707,-878 707,-861 653,-861"/>
<text text-anchor="start" x="656.5" y="-867.5" font-family="Arial" font-size="10.00"> </text>
<text text-anchor="start" x="660.5" y="-867.5" font-family="Arial" font-size="10.00">g7 :Graph</text>
</a>
</g>
<!-- g1&#45;&#45;g7 -->
<g id="edge4" class="edge"><title>g1&#45;&#45;g7</title>
<path fill="none" stroke="black" stroke-dasharray="1,5" d="M506.377,-939.974C547.471,-923.649 607.168,-899.933 644.768,-884.996"/>
<text text-anchor="middle" x="637.906" y="-889.77" font-family="Arial" font-size="10.00">match</text>
</g>
<!-- allMatches_n2 -->
<g id="node3" class="node"><title>allMatches_n2</title>
<text text-anchor="middle" x="32" y="-758.5" font-family="Arial" font-size="10.00">allMatches</text>
</g>
<!-- n2&#45;&#45;allMatches_n2 -->
<g id="edge6" class="edge"><title>n2&#45;&#45;allMatches_n2</title>
<path fill="none" stroke="black" stroke-dasharray="1,5" d="M198.476,-866.071C153.769,-862.276 87.9787,-854.254 68,-839 48.8817,-824.403 39.5146,-797.178 35.2319,-779.323"/>
</g>
<!-- e4 -->
<g id="node5" class="node"><title>e4</title>
<polygon fill="deepskyblue" stroke="deepskyblue" points="206.5,-742.5 206.5,-779.5 277.5,-779.5 277.5,-742.5 206.5,-742.5"/>
<polygon fill="none" stroke="black" points="207,-762 207,-779 278,-779 278,-762 207,-762"/>
<text text-anchor="start" x="210.5" y="-768.5" font-family="Arial" font-size="10.00"> </text>
<text text-anchor="start" x="214.5" y="-768.5" font-family="Arial" font-size="10.00"> e4 :EdgePO </text>
<polygon fill="none" stroke="black" points="207,-742 207,-762 278,-762 278,-742 207,-742"/>
<text text-anchor="start" x="239" y="-750" font-family="Arial" font-size="10.00"> &#160;</text>
</g>
<!-- n2&#45;&#45;e4 -->
<g id="edge16" class="edge"><title>n2&#45;&#45;e4</title>
<path fill="none" stroke="black" d="M242,-847.347C242,-828.783 242,-802.176 242,-783.621"/>
<text text-anchor="middle" x="246.226" y="-790.184" font-family="Arial" font-size="10.00">outEdges</text>
</g>
<!-- e6 -->
<g id="node7" class="node"><title>e6</title>
<polygon fill="deepskyblue" stroke="deepskyblue" points="92.5,-742.5 92.5,-779.5 163.5,-779.5 163.5,-742.5 92.5,-742.5"/>
<polygon fill="none" stroke="black" points="93,-762 93,-779 164,-779 164,-762 93,-762"/>
<text text-anchor="start" x="96.5" y="-768.5" font-family="Arial" font-size="10.00"> </text>
<text text-anchor="start" x="100.5" y="-768.5" font-family="Arial" font-size="10.00"> e6 :EdgePO </text>
<polygon fill="none" stroke="black" points="93,-742 93,-762 164,-762 164,-742 93,-742"/>
<text text-anchor="start" x="125" y="-750" font-family="Arial" font-size="10.00"> &#160;</text>
</g>
<!-- n2&#45;&#45;e6 -->
<g id="edge18" class="edge"><title>n2&#45;&#45;e6</title>
<path fill="none" stroke="black" d="M198.726,-849.528C193.52,-846.36 188.472,-842.841 184,-839 165.693,-823.275 150.053,-800.442 139.993,-783.723"/>
<text text-anchor="middle" x="148.335" y="-786.736" font-family="Arial" font-size="10.00">inEdges</text>
</g>
<!-- n8 -->
<g id="node24" class="node"><title>n8</title>
<a xlink:href="../examples/org/sdmlib/examples/helloworld/Node.java" xlink:title="&lt;TABLE&gt;">
<polygon fill="none" stroke="black" points="312,-762 312,-779 378,-779 378,-762 312,-762"/>
<text text-anchor="start" x="323" y="-768.5" font-family="Arial" font-size="10.00"> </text>
<text text-anchor="start" x="327" y="-768.5" font-family="Arial" font-size="10.00">n8 :Node</text>
</a>
<polygon fill="none" stroke="black" points="312,-742 312,-762 378,-762 378,-742 312,-742"/>
<text text-anchor="start" x="317" y="-750" font-family="Arial" font-size="10.00">name = &quot;n8&quot;</text>
</g>
<!-- n2&#45;&#45;n8 -->
<g id="edge8" class="edge"><title>n2&#45;&#45;n8</title>
<path fill="none" stroke="black" stroke-dasharray="1,5" d="M285.353,-850.131C290.605,-846.848 295.643,-843.138 300,-839 316.391,-823.432 328.723,-800.577 336.294,-783.81"/>
<text text-anchor="middle" x="336.311" y="-791.31" font-family="Arial" font-size="10.00">match</text>
</g>
<!-- e9 -->
<g id="node25" class="node"><title>e9</title>
<a xlink:href="../examples/org/sdmlib/examples/helloworld/Edge.java" xlink:title="&lt;TABLE&gt;">
<polygon fill="none" stroke="black" points="348,-680 348,-697 419,-697 419,-680 348,-680"/>
<text text-anchor="start" x="361.5" y="-686.5" font-family="Arial" font-size="10.00"> </text>
<text text-anchor="start" x="365.5" y="-686.5" font-family="Arial" font-size="10.00">e9 :Edge</text>
</a>
<polygon fill="none" stroke="black" points="348,-660 348,-680 419,-680 419,-660 348,-660"/>
<text text-anchor="start" x="353" y="-668" font-family="Arial" font-size="10.00">name = &quot;e16&quot;</text>
</g>
<!-- e4&#45;&#45;e9 -->
<g id="edge10" class="edge"><title>e4&#45;&#45;e9</title>
<path fill="none" stroke="black" stroke-dasharray="1,5" d="M275.177,-738.365C279.785,-735.494 284.486,-732.636 289,-730 305.601,-720.307 324.228,-710.238 340.494,-701.697"/>
<text text-anchor="middle" x="334.446" y="-707.161" font-family="Arial" font-size="10.00">match</text>
</g>
<!-- e10 -->
<g id="node26" class="node"><title>e10</title>
<a xlink:href="../examples/org/sdmlib/examples/helloworld/Edge.java" xlink:title="&lt;TABLE&gt;">
<polygon fill="none" stroke="black" points="243,-680 243,-697 314,-697 314,-680 243,-680"/>
<text text-anchor="start" x="254" y="-686.5" font-family="Arial" font-size="10.00"> </text>
<text text-anchor="start" x="258" y="-686.5" font-family="Arial" font-size="10.00">e10 :Edge</text>
</a>
<polygon fill="none" stroke="black" points="243,-660 243,-680 314,-680 314,-660 243,-660"/>
<text text-anchor="start" x="248" y="-668" font-family="Arial" font-size="10.00">name = &quot;e17&quot;</text>
</g>
<!-- e4&#45;&#45;e10 -->
<g id="edge12" class="edge"><title>e4&#45;&#45;e10</title>
<path fill="none" stroke="black" stroke-dasharray="1,5" d="M251.837,-738.14C256.958,-726.759 263.198,-712.893 268.299,-701.557"/>
<text text-anchor="middle" x="268.434" y="-709.056" font-family="Arial" font-size="10.00">candidate</text>
</g>
<!-- n11 -->
<g id="node9" class="node"><title>n11</title>
<a xlink:href="../examples/org/sdmlib/examples/helloworld/Node.java" xlink:title="&lt;TABLE&gt;">
<polygon fill="none" stroke="black" points="1068,-762 1068,-779 1134,-779 1134,-762 1068,-762"/>
<text text-anchor="start" x="1076.5" y="-768.5" font-family="Arial" font-size="10.00"> </text>
<text text-anchor="start" x="1080.5" y="-768.5" font-family="Arial" font-size="10.00">n11 :Node</text>
</a>
<polygon fill="none" stroke="black" points="1068,-742 1068,-762 1134,-762 1134,-742 1068,-742"/>
<text text-anchor="start" x="1073" y="-750" font-family="Arial" font-size="10.00">name = &quot;n1&quot;</text>
</g>
<!-- g7&#45;&#45;n11 -->
<g id="edge20" class="edge"><title>g7&#45;&#45;n11</title>
<path fill="none" stroke="black" d="M715.035,-867.799C801.04,-864.616 1017.65,-855.087 1046,-839 1067.72,-826.676 1083.04,-801.841 1091.9,-783.697"/>
<text text-anchor="middle" x="1091.57" y="-791.191" font-family="Arial" font-size="10.00">nodes</text>
<text text-anchor="middle" x="723.927" y="-860.723" font-family="Arial" font-size="10.00">graph</text>
</g>
<!-- e12 -->
<g id="node10" class="node"><title>e12</title>
<a xlink:href="../examples/org/sdmlib/examples/helloworld/Edge.java" xlink:title="&lt;TABLE&gt;">
<polygon fill="none" stroke="black" points="925,-680 925,-697 996,-697 996,-680 925,-680"/>
<text text-anchor="start" x="936" y="-686.5" font-family="Arial" font-size="10.00"> </text>
<text text-anchor="start" x="940" y="-686.5" font-family="Arial" font-size="10.00">e12 :Edge</text>
</a>
<polygon fill="none" stroke="black" points="925,-660 925,-680 996,-680 996,-660 925,-660"/>
<text text-anchor="start" x="930" y="-668" font-family="Arial" font-size="10.00">name = &quot;e10&quot;</text>
</g>
<!-- g7&#45;&#45;e12 -->
<g id="edge40" class="edge"><title>g7&#45;&#45;e12</title>
<path fill="none" stroke="black" d="M715.089,-868.018C789.52,-865.571 957.852,-857.98 975,-839 1009.2,-801.144 986.489,-735.567 971.008,-701.674"/>
<text text-anchor="middle" x="978.492" y="-705.806" font-family="Arial" font-size="10.00">edges</text>
<text text-anchor="middle" x="723.994" y="-860.969" font-family="Arial" font-size="10.00">graph</text>
</g>
<!-- n13 -->
<g id="node11" class="node"><title>n13</title>
<a xlink:href="../examples/org/sdmlib/examples/helloworld/Node.java" xlink:title="&lt;TABLE&gt;">
<polygon fill="none" stroke="black" points="754,-598 754,-615 820,-615 820,-598 754,-598"/>
<text text-anchor="start" x="762.5" y="-604.5" font-family="Arial" font-size="10.00"> </text>
<text text-anchor="start" x="766.5" y="-604.5" font-family="Arial" font-size="10.00">n13 :Node</text>
</a>
<polygon fill="none" stroke="black" points="754,-578 754,-598 820,-598 820,-578 754,-578"/>
<text text-anchor="start" x="759" y="-586" font-family="Arial" font-size="10.00">name = &quot;n2&quot;</text>
</g>
<!-- g7&#45;&#45;n13 -->
<g id="edge22" class="edge"><title>g7&#45;&#45;n13</title>
<path fill="none" stroke="black" d="M715.066,-854.141C721.48,-850.051 727.543,-845.037 732,-839 757.936,-803.869 777.392,-672.303 784.282,-619.818"/>
<text text-anchor="middle" x="787.249" y="-626.867" font-family="Arial" font-size="10.00">nodes</text>
<text text-anchor="middle" x="720.326" y="-843.136" font-family="Arial" font-size="10.00">graph</text>
</g>
<!-- e14 -->
<g id="node12" class="node"><title>e14</title>
<a xlink:href="../examples/org/sdmlib/examples/helloworld/Edge.java" xlink:title="&lt;TABLE&gt;">
<polygon fill="none" stroke="black" points="752,-516 752,-533 823,-533 823,-516 752,-516"/>
<text text-anchor="start" x="763" y="-522.5" font-family="Arial" font-size="10.00"> </text>
<text text-anchor="start" x="767" y="-522.5" font-family="Arial" font-size="10.00">e14 :Edge</text>
</a>
<polygon fill="none" stroke="black" points="752,-496 752,-516 823,-516 823,-496 752,-496"/>
<text text-anchor="start" x="757" y="-504" font-family="Arial" font-size="10.00">name = &quot;e11&quot;</text>
</g>
<!-- g7&#45;&#45;e14 -->
<g id="edge42" class="edge"><title>g7&#45;&#45;e14</title>
<path fill="none" stroke="black" d="M688.979,-851.872C690.865,-847.743 692.681,-843.285 694,-839 729.118,-724.967 686.593,-682.148 737,-574 743.29,-560.504 753.647,-547.716 763.308,-537.599"/>
<text text-anchor="middle" x="760.199" y="-544.603" font-family="Arial" font-size="10.00">edges</text>
<text text-anchor="middle" x="688.856" y="-839.373" font-family="Arial" font-size="10.00">graph</text>
</g>
<!-- n15 -->
<g id="node13" class="node"><title>n15</title>
<a xlink:href="../examples/org/sdmlib/examples/helloworld/Node.java" xlink:title="&lt;TABLE&gt;">
<polygon fill="none" stroke="black" points="754,-434 754,-451 820,-451 820,-434 754,-434"/>
<text text-anchor="start" x="762.5" y="-440.5" font-family="Arial" font-size="10.00"> </text>
<text text-anchor="start" x="766.5" y="-440.5" font-family="Arial" font-size="10.00">n15 :Node</text>
</a>
<polygon fill="none" stroke="black" points="754,-414 754,-434 820,-434 820,-414 754,-414"/>
<text text-anchor="start" x="759" y="-422" font-family="Arial" font-size="10.00">name = &quot;n3&quot;</text>
</g>
<!-- g7&#45;&#45;n15 -->
<g id="edge24" class="edge"><title>g7&#45;&#45;n15</title>
<path fill="none" stroke="black" d="M715.019,-867.98C793.095,-865.383 976.22,-857.382 997,-839 1051.2,-791.058 1032,-752.359 1032,-680 1032,-680 1032,-680 1032,-596 1032,-499.37 897.753,-457.03 828.007,-441.554"/>
<text text-anchor="middle" x="837.81" y="-437.075" font-family="Arial" font-size="10.00">nodes</text>
<text text-anchor="middle" x="723.924" y="-860.931" font-family="Arial" font-size="10.00">graph</text>
</g>
<!-- e16 -->
<g id="node14" class="node"><title>e16</title>
<a xlink:href="../examples/org/sdmlib/examples/helloworld/Edge.java" xlink:title="&lt;TABLE&gt;">
<polygon fill="none" stroke="black" points="1066,-352 1066,-369 1137,-369 1137,-352 1066,-352"/>
<text text-anchor="start" x="1077" y="-358.5" font-family="Arial" font-size="10.00"> </text>
<text text-anchor="start" x="1081" y="-358.5" font-family="Arial" font-size="10.00">e16 :Edge</text>
</a>
<polygon fill="none" stroke="black" points="1066,-332 1066,-352 1137,-352 1137,-332 1066,-332"/>
<text text-anchor="start" x="1071" y="-340" font-family="Arial" font-size="10.00">name = &quot;e12&quot;</text>
</g>
<!-- g7&#45;&#45;e16 -->
<g id="edge44" class="edge"><title>g7&#45;&#45;e16</title>
<path fill="none" stroke="black" d="M715.263,-869.297C819.285,-869.826 1119.57,-868.74 1151,-839 1202.7,-790.087 1170,-751.169 1170,-680 1170,-680 1170,-680 1170,-514 1170,-460.044 1137.2,-403.482 1116.83,-373.556"/>
<text text-anchor="middle" x="1125.35" y="-376.289" font-family="Arial" font-size="10.00">edges</text>
<text text-anchor="middle" x="724.336" y="-862.591" font-family="Arial" font-size="10.00">graph</text>
</g>
<!-- e17 -->
<g id="node15" class="node"><title>e17</title>
<a xlink:href="../examples/org/sdmlib/examples/helloworld/Edge.java" xlink:title="&lt;TABLE&gt;">
<polygon fill="none" stroke="black" points="641,-352 641,-369 712,-369 712,-352 641,-352"/>
<text text-anchor="start" x="652" y="-358.5" font-family="Arial" font-size="10.00"> </text>
<text text-anchor="start" x="656" y="-358.5" font-family="Arial" font-size="10.00">e17 :Edge</text>
</a>
<polygon fill="none" stroke="black" points="641,-332 641,-352 712,-352 712,-332 641,-332"/>
<text text-anchor="start" x="646" y="-340" font-family="Arial" font-size="10.00">name = &quot;e13&quot;</text>
</g>
<!-- g7&#45;&#45;e17 -->
<g id="edge46" class="edge"><title>g7&#45;&#45;e17</title>
<path fill="none" stroke="black" d="M670.986,-851.883C669.102,-847.753 667.296,-843.292 666,-839 645.343,-770.583 642,-751.467 642,-680 642,-680 642,-680 642,-514 642,-462.847 658.438,-404.508 668.454,-373.707"/>
<text text-anchor="middle" x="669.749" y="-381.123" font-family="Arial" font-size="10.00">edges</text>
<text text-anchor="middle" x="663.409" y="-842.857" font-family="Arial" font-size="10.00">graph</text>
</g>
<!-- n18 -->
<g id="node16" class="node"><title>n18</title>
<a xlink:href="../examples/org/sdmlib/examples/helloworld/Node.java" xlink:title="&lt;TABLE&gt;">
<polygon fill="none" stroke="black" points="624,-270 624,-287 690,-287 690,-270 624,-270"/>
<text text-anchor="start" x="632.5" y="-276.5" font-family="Arial" font-size="10.00"> </text>
<text text-anchor="start" x="636.5" y="-276.5" font-family="Arial" font-size="10.00">n18 :Node</text>
</a>
<polygon fill="none" stroke="black" points="624,-250 624,-270 690,-270 690,-250 624,-250"/>
<text text-anchor="start" x="629" y="-258" font-family="Arial" font-size="10.00">name = &quot;n4&quot;</text>
</g>
<!-- g7&#45;&#45;n18 -->
<g id="edge26" class="edge"><title>g7&#45;&#45;n18</title>
<path fill="none" stroke="black" d="M651.754,-851.899C647.283,-848.131 643.116,-843.808 640,-839 600.598,-778.195 604,-752.455 604,-680 604,-680 604,-680 604,-432 604,-385.013 606.648,-372.05 623,-328 627.712,-315.307 635.135,-302.208 641.844,-291.678"/>
<text text-anchor="middle" x="640.602" y="-299.1" font-family="Arial" font-size="10.00">nodes</text>
<text text-anchor="middle" x="642.129" y="-846.685" font-family="Arial" font-size="10.00">graph</text>
</g>
<!-- e19 -->
<g id="node17" class="node"><title>e19</title>
<a xlink:href="../examples/org/sdmlib/examples/helloworld/Edge.java" xlink:title="&lt;TABLE&gt;">
<polygon fill="none" stroke="black" points="622,-188 622,-205 693,-205 693,-188 622,-188"/>
<text text-anchor="start" x="633" y="-194.5" font-family="Arial" font-size="10.00"> </text>
<text text-anchor="start" x="637" y="-194.5" font-family="Arial" font-size="10.00">e19 :Edge</text>
</a>
<polygon fill="none" stroke="black" points="622,-168 622,-188 693,-188 693,-168 622,-168"/>
<text text-anchor="start" x="627" y="-176" font-family="Arial" font-size="10.00">name = &quot;e14&quot;</text>
</g>
<!-- g7&#45;&#45;e19 -->
<g id="edge48" class="edge"><title>g7&#45;&#45;e19</title>
<path fill="none" stroke="black" d="M681.718,-851.768C690.153,-767.118 726.819,-398.417 728,-374 728.988,-353.579 730.556,-348.284 728,-328 723.296,-290.675 724.409,-279.35 707,-246 700.048,-232.682 689.492,-219.821 679.867,-209.608"/>
<text text-anchor="middle" x="689.127" y="-210.883" font-family="Arial" font-size="10.00">edges</text>
<text text-anchor="middle" x="678.411" y="-839.831" font-family="Arial" font-size="10.00">graph</text>
</g>
<!-- n20 -->
<g id="node18" class="node"><title>n20</title>
<a xlink:href="../examples/org/sdmlib/examples/helloworld/Node.java" xlink:title="&lt;TABLE&gt;">
<polygon fill="none" stroke="black" points="594,-106 594,-123 660,-123 660,-106 594,-106"/>
<text text-anchor="start" x="602.5" y="-112.5" font-family="Arial" font-size="10.00"> </text>
<text text-anchor="start" x="606.5" y="-112.5" font-family="Arial" font-size="10.00">n20 :Node</text>
</a>
<polygon fill="none" stroke="black" points="594,-86 594,-106 660,-106 660,-86 594,-86"/>
<text text-anchor="start" x="599" y="-94" font-family="Arial" font-size="10.00">name = &quot;n5&quot;</text>
</g>
<!-- g7&#45;&#45;n20 -->
<g id="edge28" class="edge"><title>g7&#45;&#45;n20</title>
<path fill="none" stroke="black" d="M644.941,-863.454C629.386,-859.248 612.122,-851.881 601,-839 553.71,-784.233 566,-752.359 566,-680 566,-680 566,-680 566,-268 566,-214.807 595.161,-157.727 613.158,-127.563"/>
<text text-anchor="middle" x="612.271" y="-135.024" font-family="Arial" font-size="10.00">nodes</text>
<text text-anchor="middle" x="635.061" y="-862.502" font-family="Arial" font-size="10.00">graph</text>
</g>
<!-- e21 -->
<g id="node19" class="node"><title>e21</title>
<a xlink:href="../examples/org/sdmlib/examples/helloworld/Edge.java" xlink:title="&lt;TABLE&gt;">
<polygon fill="none" stroke="black" points="471,-24 471,-41 542,-41 542,-24 471,-24"/>
<text text-anchor="start" x="482" y="-30.5" font-family="Arial" font-size="10.00"> </text>
<text text-anchor="start" x="486" y="-30.5" font-family="Arial" font-size="10.00">e21 :Edge</text>
</a>
<polygon fill="none" stroke="black" points="471,-4 471,-24 542,-24 542,-4 471,-4"/>
<text text-anchor="start" x="476" y="-12" font-family="Arial" font-size="10.00">name = &quot;e18&quot;</text>
</g>
<!-- g7&#45;&#45;e21 -->
<g id="edge36" class="edge"><title>g7&#45;&#45;e21</title>
<path fill="none" stroke="black" d="M644.924,-866.826C603.768,-863.533 538.972,-855.787 522,-839 470.75,-788.309 490,-752.084 490,-680 490,-680 490,-680 490,-186 490,-135.553 497.779,-76.6946 502.489,-45.6814"/>
<text text-anchor="middle" x="505.343" y="-52.7652" font-family="Arial" font-size="10.00">edges</text>
<text text-anchor="middle" x="635.53" y="-867.754" font-family="Arial" font-size="10.00">graph</text>
</g>
<!-- e22 -->
<g id="node20" class="node"><title>e22</title>
<a xlink:href="../examples/org/sdmlib/examples/helloworld/Edge.java" xlink:title="&lt;TABLE&gt;">
<polygon fill="none" stroke="black" points="592,-24 592,-41 663,-41 663,-24 592,-24"/>
<text text-anchor="start" x="603" y="-30.5" font-family="Arial" font-size="10.00"> </text>
<text text-anchor="start" x="607" y="-30.5" font-family="Arial" font-size="10.00">e22 :Edge</text>
</a>
<polygon fill="none" stroke="black" points="592,-4 592,-24 663,-24 663,-4 592,-4"/>
<text text-anchor="start" x="597" y="-12" font-family="Arial" font-size="10.00">name = &quot;e15&quot;</text>
</g>
<!-- g7&#45;&#45;e22 -->
<g id="edge50" class="edge"><title>g7&#45;&#45;e22</title>
<path fill="none" stroke="black" d="M644.891,-869.582C618.204,-868.056 582.526,-861.456 561,-839 511.057,-786.898 528,-752.173 528,-680 528,-680 528,-680 528,-186 528,-128.648 573.736,-74.4188 603.035,-45.5627"/>
<text text-anchor="middle" x="599.703" y="-52.4914" font-family="Arial" font-size="10.00">edges</text>
<text text-anchor="middle" x="635.536" y="-870.616" font-family="Arial" font-size="10.00">graph</text>
</g>
<!-- e23 -->
<g id="node21" class="node"><title>e23</title>
<a xlink:href="../examples/org/sdmlib/examples/helloworld/Edge.java" xlink:title="&lt;TABLE&gt;">
<polygon fill="none" stroke="black" points="935,-24 935,-41 1006,-41 1006,-24 935,-24"/>
<text text-anchor="start" x="946" y="-30.5" font-family="Arial" font-size="10.00"> </text>
<text text-anchor="start" x="950" y="-30.5" font-family="Arial" font-size="10.00">e23 :Edge</text>
</a>
<polygon fill="none" stroke="black" points="935,-4 935,-24 1006,-24 1006,-4 935,-4"/>
<text text-anchor="start" x="940" y="-12" font-family="Arial" font-size="10.00">name = &quot;e19&quot;</text>
</g>
<!-- g7&#45;&#45;e23 -->
<g id="edge38" class="edge"><title>g7&#45;&#45;e23</title>
<path fill="none" stroke="black" d="M715.338,-869.345C823.448,-870.064 1144.5,-869.582 1179,-839 1232.76,-791.354 1208,-751.832 1208,-680 1208,-680 1208,-680 1208,-186 1208,-92.9064 1082.02,-49.5226 1013.38,-32.7925"/>
<text text-anchor="middle" x="1023.22" y="-28.5194" font-family="Arial" font-size="10.00">edges</text>
<text text-anchor="middle" x="724.418" y="-862.654" font-family="Arial" font-size="10.00">graph</text>
</g>
<!-- n24 -->
<g id="node22" class="node"><title>n24</title>
<a xlink:href="../examples/org/sdmlib/examples/helloworld/Node.java" xlink:title="&lt;TABLE&gt;">
<polygon fill="none" stroke="black" points="792,-762 792,-779 858,-779 858,-762 792,-762"/>
<text text-anchor="start" x="800.5" y="-768.5" font-family="Arial" font-size="10.00"> </text>
<text text-anchor="start" x="804.5" y="-768.5" font-family="Arial" font-size="10.00">n24 :Node</text>
</a>
<polygon fill="none" stroke="black" points="792,-742 792,-762 858,-762 858,-742 792,-742"/>
<text text-anchor="start" x="797" y="-750" font-family="Arial" font-size="10.00">name = &quot;n6&quot;</text>
</g>
<!-- g7&#45;&#45;n24 -->
<g id="edge30" class="edge"><title>g7&#45;&#45;n24</title>
<path fill="none" stroke="black" d="M715.314,-862.648C732.986,-858.189 753.969,-850.84 770,-839 789.558,-824.555 804.884,-801.077 814.335,-783.837"/>
<text text-anchor="middle" x="813.57" y="-791.308" font-family="Arial" font-size="10.00">nodes</text>
<text text-anchor="middle" x="722.995" y="-853.746" font-family="Arial" font-size="10.00">graph</text>
</g>
<!-- n25 -->
<g id="node23" class="node"><title>n25</title>
<a xlink:href="../examples/org/sdmlib/examples/helloworld/Node.java" xlink:title="&lt;TABLE&gt;">
<polygon fill="none" stroke="black" points="892,-762 892,-779 958,-779 958,-762 892,-762"/>
<text text-anchor="start" x="900.5" y="-768.5" font-family="Arial" font-size="10.00"> </text>
<text text-anchor="start" x="904.5" y="-768.5" font-family="Arial" font-size="10.00">n25 :Node</text>
</a>
<polygon fill="none" stroke="black" points="892,-742 892,-762 958,-762 958,-742 892,-742"/>
<text text-anchor="start" x="897" y="-750" font-family="Arial" font-size="10.00">name = &quot;n7&quot;</text>
</g>
<!-- g7&#45;&#45;n25 -->
<g id="edge32" class="edge"><title>g7&#45;&#45;n25</title>
<path fill="none" stroke="black" d="M715.324,-867.007C764.175,-863.677 849.253,-855.64 875,-839 895.214,-825.936 908.978,-801.494 916.867,-783.641"/>
<text text-anchor="middle" x="916.923" y="-791.141" font-family="Arial" font-size="10.00">nodes</text>
<text text-anchor="middle" x="724.055" y="-859.631" font-family="Arial" font-size="10.00">graph</text>
</g>
<!-- g7&#45;&#45;n8 -->
<g id="edge34" class="edge"><title>g7&#45;&#45;n8</title>
<path fill="none" stroke="black" d="M644.876,-868.767C579.196,-867.763 440.738,-862.795 400,-839 378.438,-826.406 363.091,-801.622 354.181,-783.563"/>
<text text-anchor="middle" x="362.072" y="-787.206" font-family="Arial" font-size="10.00">nodes</text>
<text text-anchor="middle" x="635.73" y="-870.311" font-family="Arial" font-size="10.00">graph</text>
</g>
<!-- g7&#45;&#45;e9 -->
<g id="edge52" class="edge"><title>g7&#45;&#45;e9</title>
<path fill="none" stroke="black" d="M644.791,-867.858C593.583,-865.538 501.842,-858.686 476,-839 433.892,-806.923 456.735,-774.456 428,-730 421.534,-719.996 413.076,-710.026 405.241,-701.652"/>
<text text-anchor="middle" x="414.498" y="-702.935" font-family="Arial" font-size="10.00">edges</text>
<text text-anchor="middle" x="635.524" y="-869.117" font-family="Arial" font-size="10.00">graph</text>
</g>
<!-- g7&#45;&#45;e10 -->
<g id="edge54" class="edge"><title>g7&#45;&#45;e10</title>
<path fill="none" stroke="black" d="M644.783,-869.408C583.352,-869.39 460.076,-865.889 428,-839 389.21,-806.483 428.772,-767.702 395,-730 394.655,-729.614 354.545,-712.515 321.389,-698.42"/>
<text text-anchor="middle" x="331.383" y="-695.577" font-family="Arial" font-size="10.00">edges</text>
<text text-anchor="middle" x="635.693" y="-871.076" font-family="Arial" font-size="10.00">graph</text>
</g>
<!-- n11&#45;&#45;e12 -->
<g id="edge56" class="edge"><title>n11&#45;&#45;e12</title>
<path fill="none" stroke="black" d="M1062.84,-738.351C1042.78,-726.967 1018.25,-713.052 998.187,-701.666"/>
<text text-anchor="middle" x="1008.16" y="-699.963" font-family="Arial" font-size="10.00">outEdges</text>
<text text-anchor="middle" x="1052.88" y="-735.054" font-family="Arial" font-size="10.00">src</text>
</g>
<!-- n11&#45;&#45;e16 -->
<g id="edge58" class="edge"><title>n11&#45;&#45;e16</title>
<path fill="none" stroke="black" d="M1101,-738.251C1101,-707.157 1101,-648.203 1101,-598 1101,-598 1101,-598 1101,-514 1101,-463.797 1101,-404.843 1101,-373.749"/>
<text text-anchor="middle" x="1105.23" y="-380.312" font-family="Arial" font-size="10.00">inEdges</text>
<text text-anchor="middle" x="1096.77" y="-726.688" font-family="Arial" font-size="10.00">tgt</text>
</g>
<!-- e12&#45;&#45;n13 -->
<g id="edge60" class="edge"><title>e12&#45;&#45;n13</title>
<path fill="none" stroke="black" d="M916.345,-657.813C889.319,-645.315 854.827,-629.365 828.259,-617.079"/>
<text text-anchor="middle" x="838.259" y="-614.547" font-family="Arial" font-size="10.00">tgt</text>
<text text-anchor="middle" x="906.345" y="-655.345" font-family="Arial" font-size="10.00">inEdges</text>
</g>
<!-- n13&#45;&#45;e14 -->
<g id="edge62" class="edge"><title>n13&#45;&#45;e14</title>
<path fill="none" stroke="black" d="M787,-574.14C787,-562.759 787,-548.893 787,-537.557"/>
<text text-anchor="middle" x="791.226" y="-544.12" font-family="Arial" font-size="10.00">outEdges</text>
<text text-anchor="middle" x="782.774" y="-562.577" font-family="Arial" font-size="10.00">src</text>
</g>
<!-- e14&#45;&#45;n15 -->
<g id="edge64" class="edge"><title>e14&#45;&#45;n15</title>
<path fill="none" stroke="black" d="M787,-492.14C787,-480.759 787,-466.893 787,-455.557"/>
<text text-anchor="middle" x="791.226" y="-462.12" font-family="Arial" font-size="10.00">tgt</text>
<text text-anchor="middle" x="782.774" y="-480.577" font-family="Arial" font-size="10.00">inEdges</text>
</g>
<!-- n15&#45;&#45;e16 -->
<g id="edge66" class="edge"><title>n15&#45;&#45;e16</title>
<path fill="none" stroke="black" d="M828.05,-421.541C887.48,-406.4 996.991,-378.499 1057.67,-363.039"/>
<text text-anchor="middle" x="1049.93" y="-366.872" font-family="Arial" font-size="10.00">outEdges</text>
<text text-anchor="middle" x="835.789" y="-412.708" font-family="Arial" font-size="10.00">src</text>
</g>
<!-- n15&#45;&#45;e17 -->
<g id="edge68" class="edge"><title>n15&#45;&#45;e17</title>
<path fill="none" stroke="black" d="M756.962,-410.351C741.167,-398.967 721.86,-385.052 706.062,-373.666"/>
<text text-anchor="middle" x="715.886" y="-373.037" font-family="Arial" font-size="10.00">outEdges</text>
<text text-anchor="middle" x="747.138" y="-405.98" font-family="Arial" font-size="10.00">src</text>
</g>
<!-- n15&#45;&#45;e22 -->
<g id="edge70" class="edge"><title>n15&#45;&#45;e22</title>
<path fill="none" stroke="black" d="M787,-410.251C787,-379.157 787,-320.203 787,-270 787,-270 787,-270 787,-186 787,-119.392 717.683,-70.2837 670.298,-44.4951"/>
<text text-anchor="middle" x="680.265" y="-42.8138" font-family="Arial" font-size="10.00">inEdges</text>
<text text-anchor="middle" x="782.774" y="-398.688" font-family="Arial" font-size="10.00">tgt</text>
</g>
<!-- e17&#45;&#45;n18 -->
<g id="edge72" class="edge"><title>e17&#45;&#45;n18</title>
<path fill="none" stroke="black" d="M670.808,-328.14C668.105,-316.759 664.812,-302.893 662.12,-291.557"/>
<text text-anchor="middle" x="668.326" y="-296.898" font-family="Arial" font-size="10.00">tgt</text>
<text text-anchor="middle" x="664.602" y="-317.798" font-family="Arial" font-size="10.00">inEdges</text>
</g>
<!-- n18&#45;&#45;e19 -->
<g id="edge74" class="edge"><title>n18&#45;&#45;e19</title>
<path fill="none" stroke="black" d="M657,-246.14C657,-234.759 657,-220.893 657,-209.557"/>
<text text-anchor="middle" x="661.226" y="-216.12" font-family="Arial" font-size="10.00">outEdges</text>
<text text-anchor="middle" x="652.774" y="-234.577" font-family="Arial" font-size="10.00">src</text>
</g>
<!-- e19&#45;&#45;n20 -->
<g id="edge76" class="edge"><title>e19&#45;&#45;n20</title>
<path fill="none" stroke="black" d="M648.802,-164.14C644.535,-152.759 639.335,-138.893 635.084,-127.557"/>
<text text-anchor="middle" x="642.223" y="-132.059" font-family="Arial" font-size="10.00">tgt</text>
<text text-anchor="middle" x="641.663" y="-154.638" font-family="Arial" font-size="10.00">inEdges</text>
</g>
<!-- n20&#45;&#45;e21 -->
<g id="edge78" class="edge"><title>n20&#45;&#45;e21</title>
<path fill="none" stroke="black" d="M594.256,-82.3508C577.038,-70.9674 555.992,-57.0524 538.771,-45.6665"/>
<text text-anchor="middle" x="548.661" y="-44.6395" font-family="Arial" font-size="10.00">outEdges</text>
<text text-anchor="middle" x="584.365" y="-78.3778" font-family="Arial" font-size="10.00">src</text>
</g>
<!-- n20&#45;&#45;e22 -->
<g id="edge80" class="edge"><title>n20&#45;&#45;e22</title>
<path fill="none" stroke="black" d="M627,-82.1396C627,-70.759 627,-56.8929 627,-45.5569"/>
<text text-anchor="middle" x="631.226" y="-52.12" font-family="Arial" font-size="10.00">outEdges</text>
<text text-anchor="middle" x="622.774" y="-70.5766" font-family="Arial" font-size="10.00">src</text>
</g>
<!-- n20&#45;&#45;e23 -->
<g id="edge82" class="edge"><title>n20&#45;&#45;e23</title>
<path fill="none" stroke="black" d="M668.033,-94.4296C733.204,-79.2295 859.801,-49.7024 926.491,-34.148"/>
<text text-anchor="middle" x="918.624" y="-37.8223" font-family="Arial" font-size="10.00">inEdges</text>
<text text-anchor="middle" x="675.899" y="-85.7553" font-family="Arial" font-size="10.00">tgt</text>
</g>
<!-- n8&#45;&#45;e9 -->
<g id="edge84" class="edge"><title>n8&#45;&#45;e9</title>
<path fill="none" stroke="black" d="M355.384,-738.14C360.789,-726.759 367.376,-712.893 372.76,-701.557"/>
<text text-anchor="middle" x="372.689" y="-709.057" font-family="Arial" font-size="10.00">outEdges_inEdges</text>
<text text-anchor="middle" x="355.455" y="-725.64" font-family="Arial" font-size="10.00">src_tgt</text>
</g>
<!-- n8&#45;&#45;e10 -->
<g id="edge86" class="edge"><title>n8&#45;&#45;e10</title>
<path fill="none" stroke="black" d="M326.692,-738.14C317.161,-726.759 305.548,-712.893 296.054,-701.557"/>
<text text-anchor="middle" x="305.113" y="-703.292" font-family="Arial" font-size="10.00">outEdges_inEdges</text>
<text text-anchor="middle" x="317.633" y="-731.405" font-family="Arial" font-size="10.00">src_tgt</text>
</g>
</g>
</svg>
