<?xml version="1.0" encoding="UTF-8" standalone="no"?>
<!DOCTYPE svg PUBLIC "-//W3C//DTD SVG 1.1//EN"
 "http://www.w3.org/Graphics/SVG/1.1/DTD/svg11.dtd">
<!-- Generated by graphviz version 2.28.0 (20110507.0327)
 -->
<!-- Title: ObjectDiagram Pages: 1 -->
<svg width="266pt" height="275pt"
 viewBox="0.00 0.00 266.00 275.00" xmlns="http://www.w3.org/2000/svg" xmlns:xlink="http://www.w3.org/1999/xlink">
<g id="graph1" class="graph" transform="scale(1 1) rotate(0) translate(4 271)">
<title>ObjectDiagram</title>
<polygon fill="white" stroke="white" points="-4,5 -4,-271 263,-271 263,5 -4,5"/>
<g id="graph2" class="cluster"><title>cluster_n3</title>
<polygon fill="none" stroke="grey" points="70,-8 70,-117 250,-117 250,-8 70,-8"/>
<image xlink:href="../../SDMLib/doc/forbiddensign.svg" width="30px" height="30px" preserveAspectRatio="xMinYMin meet" x="118.5" y="-108"/>
<text text-anchor="start" x="155" y="-89.8" font-family="Times New Roman,serif" font-size="14.00">NAC n3</text>
</g>
<!-- g1 -->
<g id="node1" class="node"><title>g1</title>
<polygon fill="deepskyblue" stroke="deepskyblue" points="88,-211.5 88,-262.5 148,-262.5 148,-211.5 88,-211.5"/>
<text text-anchor="start" x="116" y="-252.5" font-family="Times New Roman,serif" font-size="10.00">«bound»</text>
<polygon fill="none" stroke="black" points="88,-231 88,-247 148,-247 148,-231 88,-231"/>
<text text-anchor="start" x="91.5" y="-237" font-family="Times New Roman,serif" font-size="10.00"> </text>
<text text-anchor="start" x="94.5" y="-237" font-family="Times New Roman,serif" font-size="10.00"> g1 :GraphPO </text>
<polygon fill="none" stroke="black" points="88,-211 88,-231 148,-231 148,-211 88,-211"/>
<text text-anchor="start" x="115.5" y="-219" font-family="Times New Roman,serif" font-size="10.00"> &#160;</text>
</g>
<!-- e2 -->
<g id="node2" class="node"><title>e2</title>
<polygon fill="deepskyblue" stroke="deepskyblue" points="90,-129.5 90,-166.5 146,-166.5 146,-129.5 90,-129.5"/>
<polygon fill="none" stroke="black" points="90,-149 90,-166 146,-166 146,-149 90,-149"/>
<text text-anchor="start" x="93.5" y="-155.5" font-family="Times New Roman,serif" font-size="10.00"> </text>
<text text-anchor="start" x="96.5" y="-155.5" font-family="Times New Roman,serif" font-size="10.00"> e2 :EdgePO </text>
<polygon fill="none" stroke="black" points="90,-129 90,-149 146,-149 146,-129 90,-129"/>
<text text-anchor="start" x="115.5" y="-137" font-family="Times New Roman,serif" font-size="10.00"> &#160;</text>
</g>
<!-- g1&#45;&#45;e2 -->
<g id="edge5" class="edge"><title>g1&#45;&#45;e2</title>
<path fill="none" stroke="black" d="M118,-207.03C118,-195.167 118,-181.675 118,-170.687"/>
<text text-anchor="middle" x="122.226" y="-177.25" font-family="Times New Roman,serif" font-size="10.00">edges</text>
</g>
<!-- allMatches_e2 -->
<g id="node3" class="node"><title>allMatches_e2</title>
<text text-anchor="middle" x="30" y="-36.5" font-family="Times New Roman,serif" font-size="10.00">allMatches</text>
</g>
<!-- e2&#45;&#45;allMatches_e2 -->
<g id="edge3" class="edge"><title>e2&#45;&#45;allMatches_e2</title>
<path fill="none" stroke="black" stroke-dasharray="1,5" d="M81.7351,-129.981C76.0145,-126.247 70.5097,-121.915 66,-117 50.037,-99.6026 39.9653,-73.8739 34.6562,-57.0238"/>
</g>
<!-- n4 -->
<g id="node5" class="node"><title>n4</title>
<polygon fill="deepskyblue" stroke="deepskyblue" points="184,-20.5 184,-57.5 234,-57.5 234,-20.5 184,-20.5"/>
<polygon fill="none" stroke="black" points="184,-40 184,-57 234,-57 234,-40 184,-40"/>
<text text-anchor="start" x="187.5" y="-46.5" font-family="Times New Roman,serif" font-size="10.00"> </text>
<text text-anchor="start" x="190.5" y="-46.5" font-family="Times New Roman,serif" font-size="10.00"> n4 :NodePO </text>
<polygon fill="none" stroke="black" points="184,-20 184,-40 234,-40 234,-20 184,-20"/>
<text text-anchor="start" x="206.5" y="-28" font-family="Times New Roman,serif" font-size="10.00"> &#160;</text>
</g>
<!-- e2&#45;&#45;n4 -->
<g id="edge7" class="edge"><title>e2&#45;&#45;n4</title>
<path fill="none" stroke="black" d="M154.151,-127.262C158.404,-124.137 162.477,-120.701 166,-117 181.307,-100.919 193.069,-78.352 200.391,-61.8054"/>
<text text-anchor="middle" x="200.495" y="-69.3049" font-family="Times New Roman,serif" font-size="10.00">tgt</text>
</g>
<!-- n5 -->
<g id="node6" class="node"><title>n5</title>
<polygon fill="deepskyblue" stroke="deepskyblue" points="86.5,-20.5 86.5,-57.5 149.5,-57.5 149.5,-20.5 86.5,-20.5"/>
<polygon fill="none" stroke="black" points="87,-40 87,-57 150,-57 150,-40 87,-40"/>
<text text-anchor="start" x="90.5" y="-46.5" font-family="Times New Roman,serif" font-size="10.00"> </text>
<text text-anchor="start" x="93.5" y="-46.5" font-family="Times New Roman,serif" font-size="10.00"> n5 :NodePO </text>
<polygon fill="none" stroke="black" points="87,-20 87,-40 150,-40 150,-20 87,-20"/>
<text text-anchor="start" x="116" y="-28" font-family="Times New Roman,serif" font-size="10.00"> &#160;</text>
</g>
<!-- e2&#45;&#45;n5 -->
<g id="edge9" class="edge"><title>e2&#45;&#45;n5</title>
<path fill="none" stroke="black" d="M118,-125.347C118,-106.783 118,-80.1756 118,-61.6208"/>
<text text-anchor="middle" x="122.226" y="-68.1839" font-family="Times New Roman,serif" font-size="10.00">src</text>
</g>
</g>
</svg>
