<?xml version="1.0" encoding="UTF-8" standalone="no"?>
<!DOCTYPE svg PUBLIC "-//W3C//DTD SVG 1.1//EN"
 "http://www.w3.org/Graphics/SVG/1.1/DTD/svg11.dtd">
<!-- Generated by graphviz version 2.28.0 (20110507.0327)
 -->
<!-- Title: ObjectDiagram Pages: 1 -->
<svg width="1386pt" height="981pt"
 viewBox="0.00 0.00 1385.88 981.00" xmlns="http://www.w3.org/2000/svg" xmlns:xlink="http://www.w3.org/1999/xlink">
<g id="graph1" class="graph" transform="scale(1 1) rotate(0) translate(4 977)">
<title>ObjectDiagram</title>
<polygon fill="white" stroke="white" points="-4,5 -4,-977 1382.88,-977 1382.88,5 -4,5"/>
<g id="graph2" class="cluster"><title>cluster_n3</title>
<polygon fill="none" stroke="grey" points="322.879,-730 322.879,-823 426.879,-823 426.879,-730 322.879,-730"/>
<text text-anchor="start" x="354.879" y="-803.8" font-family="Times New Roman,serif" font-size="14.00">NAC n3</text>
</g>
<g id="graph3" class="cluster"><title>cluster_n5</title>
<polygon fill="none" stroke="grey" points="102.879,-730 102.879,-823 206.879,-823 206.879,-730 102.879,-730"/>
<text text-anchor="start" x="134.879" y="-803.8" font-family="Times New Roman,serif" font-size="14.00">NAC n5</text>
</g>
<!-- g1 -->
<g id="node1" class="node"><title>g1</title>
<polygon fill="deepskyblue" stroke="deepskyblue" points="649.379,-917.5 649.379,-968.5 724.379,-968.5 724.379,-917.5 649.379,-917.5"/>
<text text-anchor="start" x="685.879" y="-958.5" font-family="Arial" font-size="10.00">«bound»</text>
<polygon fill="none" stroke="black" points="649.879,-937 649.879,-953 724.879,-953 724.879,-937 649.879,-937"/>
<text text-anchor="start" x="653.379" y="-943" font-family="Arial" font-size="10.00"> </text>
<text text-anchor="start" x="657.379" y="-943" font-family="Arial" font-size="10.00"> g1 :GraphPO </text>
<polygon fill="none" stroke="black" points="649.879,-917 649.879,-937 724.879,-937 724.879,-917 649.879,-917"/>
<text text-anchor="start" x="683.879" y="-925" font-family="Arial" font-size="10.00"> &#160;</text>
</g>
<!-- n2 -->
<g id="node2" class="node"><title>n2</title>
<polygon fill="deepskyblue" stroke="deepskyblue" points="339.379,-835.5 339.379,-872.5 410.379,-872.5 410.379,-835.5 339.379,-835.5"/>
<polygon fill="none" stroke="black" points="339.879,-855 339.879,-872 410.879,-872 410.879,-855 339.879,-855"/>
<text text-anchor="start" x="343.379" y="-861.5" font-family="Arial" font-size="10.00"> </text>
<text text-anchor="start" x="347.379" y="-861.5" font-family="Arial" font-size="10.00"> n2 :NodePO </text>
<polygon fill="none" stroke="black" points="339.879,-835 339.879,-855 410.879,-855 410.879,-835 339.879,-835"/>
<text text-anchor="start" x="371.879" y="-843" font-family="Arial" font-size="10.00"> &#160;</text>
</g>
<!-- g1&#45;&#45;n2 -->
<g id="edge32" class="edge"><title>g1&#45;&#45;n2</title>
<path fill="none" stroke="black" d="M641.512,-929.349C581.683,-912.666 477.125,-883.511 418.29,-867.105"/>
<text text-anchor="middle" x="428.155" y="-862.968" font-family="Arial" font-size="10.00">nodes</text>
</g>
<!-- g7 -->
<g id="node8" class="node"><title>g7</title>
<a xlink:href="../../SDMLib/src/org/sdmlib/examples/helloworld/Graph.java" xlink:title="&lt;TABLE&gt;">
<polygon fill="none" stroke="black" points="971.879,-845 971.879,-862 1025.88,-862 1025.88,-845 971.879,-845"/>
<text text-anchor="start" x="975.379" y="-851.5" font-family="Arial" font-size="10.00"> </text>
<text text-anchor="start" x="979.379" y="-851.5" font-family="Arial" font-size="10.00">g7 :Graph</text>
</a>
</g>
<!-- g1&#45;&#45;g7 -->
<g id="edge4" class="edge"><title>g1&#45;&#45;g7</title>
<path fill="none" stroke="black" stroke-dasharray="1,5" d="M732.247,-929.349C794.949,-911.865 906.78,-880.682 963.619,-864.832"/>
<text text-anchor="middle" x="956.024" y="-868.838" font-family="Arial" font-size="10.00">match</text>
</g>
<!-- allMatches_n2 -->
<g id="node3" class="node"><title>allMatches_n2</title>
<text text-anchor="middle" x="60.8795" y="-758.5" font-family="Arial" font-size="10.00">allMatches</text>
</g>
<!-- n2&#45;&#45;allMatches_n2 -->
<g id="edge6" class="edge"><title>n2&#45;&#45;allMatches_n2</title>
<path fill="none" stroke="black" stroke-dasharray="1,5" d="M331.402,-852.827C263.612,-851.81 136.579,-846.687 98.8795,-823 82.8209,-812.91 72.4354,-793.297 66.6475,-779.027"/>
</g>
<!-- e4 -->
<g id="node5" class="node"><title>e4</title>
<polygon fill="deepskyblue" stroke="deepskyblue" points="339.379,-742.5 339.379,-779.5 410.379,-779.5 410.379,-742.5 339.379,-742.5"/>
<polygon fill="none" stroke="black" points="339.879,-762 339.879,-779 410.879,-779 410.879,-762 339.879,-762"/>
<text text-anchor="start" x="343.379" y="-768.5" font-family="Arial" font-size="10.00"> </text>
<text text-anchor="start" x="347.379" y="-768.5" font-family="Arial" font-size="10.00"> e4 :EdgePO </text>
<polygon fill="none" stroke="black" points="339.879,-742 339.879,-762 410.879,-762 410.879,-742 339.879,-742"/>
<text text-anchor="start" x="371.879" y="-750" font-family="Arial" font-size="10.00"> &#160;</text>
</g>
<!-- n2&#45;&#45;e4 -->
<g id="edge34" class="edge"><title>n2&#45;&#45;e4</title>
<path fill="none" stroke="black" d="M374.879,-831.434C374.879,-817.033 374.879,-798.16 374.879,-783.726"/>
<text text-anchor="middle" x="379.106" y="-790.289" font-family="Arial" font-size="10.00">outEdges</text>
</g>
<!-- e6 -->
<g id="node7" class="node"><title>e6</title>
<polygon fill="deepskyblue" stroke="deepskyblue" points="119.379,-742.5 119.379,-779.5 190.379,-779.5 190.379,-742.5 119.379,-742.5"/>
<polygon fill="none" stroke="black" points="119.879,-762 119.879,-779 190.879,-779 190.879,-762 119.879,-762"/>
<text text-anchor="start" x="123.379" y="-768.5" font-family="Arial" font-size="10.00"> </text>
<text text-anchor="start" x="127.379" y="-768.5" font-family="Arial" font-size="10.00"> e6 :EdgePO </text>
<polygon fill="none" stroke="black" points="119.879,-742 119.879,-762 190.879,-762 190.879,-742 119.879,-742"/>
<text text-anchor="start" x="151.879" y="-750" font-family="Arial" font-size="10.00"> &#160;</text>
</g>
<!-- n2&#45;&#45;e6 -->
<g id="edge36" class="edge"><title>n2&#45;&#45;e6</title>
<path fill="none" stroke="black" d="M331.395,-849.081C287.47,-844.489 223.15,-835.837 201.879,-823 186.427,-813.674 174.202,-797.221 166.097,-783.75"/>
<text text-anchor="middle" x="174.464" y="-786.727" font-family="Arial" font-size="10.00">inEdges</text>
</g>
<!-- n9 -->
<g id="node9" class="node"><title>n9</title>
<a xlink:href="../../SDMLib/src/org/sdmlib/examples/helloworld/Node.java" xlink:title="&lt;TABLE&gt;">
<polygon fill="none" stroke="black" points="644.879,-762 644.879,-779 710.879,-779 710.879,-762 644.879,-762"/>
<text text-anchor="start" x="655.879" y="-768.5" font-family="Arial" font-size="10.00"> </text>
<text text-anchor="start" x="659.879" y="-768.5" font-family="Arial" font-size="10.00">n9 :Node</text>
</a>
<polygon fill="none" stroke="black" points="644.879,-742 644.879,-762 710.879,-762 710.879,-742 644.879,-742"/>
<text text-anchor="start" x="649.879" y="-750" font-family="Arial" font-size="10.00">name = &quot;n1&quot;</text>
</g>
<!-- n2&#45;&#45;n9 -->
<g id="edge10" class="edge"><title>n2&#45;&#45;n9</title>
<path fill="none" stroke="black" stroke-dasharray="1,5" d="M418.261,-851.735C480.835,-849.264 592.772,-842.23 627.879,-823 644.213,-814.054 657.303,-797.397 665.987,-783.747"/>
<text text-anchor="middle" x="664.553" y="-791.144" font-family="Arial" font-size="10.00">candidate</text>
</g>
<!-- n10 -->
<g id="node11" class="node"><title>n10</title>
<a xlink:href="../../SDMLib/src/org/sdmlib/examples/helloworld/Node.java" xlink:title="&lt;TABLE&gt;">
<polygon fill="none" stroke="black" points="969.879,-598 969.879,-615 1035.88,-615 1035.88,-598 969.879,-598"/>
<text text-anchor="start" x="978.379" y="-604.5" font-family="Arial" font-size="10.00"> </text>
<text text-anchor="start" x="982.379" y="-604.5" font-family="Arial" font-size="10.00">n10 :Node</text>
</a>
<polygon fill="none" stroke="black" points="969.879,-578 969.879,-598 1035.88,-598 1035.88,-578 969.879,-578"/>
<text text-anchor="start" x="974.879" y="-586" font-family="Arial" font-size="10.00">name = &quot;n2&quot;</text>
</g>
<!-- n2&#45;&#45;n10 -->
<g id="edge12" class="edge"><title>n2&#45;&#45;n10</title>
<path fill="none" stroke="black" stroke-dasharray="1,5" d="M331.556,-836.382C326.517,-832.716 322.052,-828.299 318.879,-823 297.646,-787.537 308.534,-770.018 318.879,-730 328.29,-693.597 328.375,-676.524 359.879,-656 410.241,-623.191 827.633,-604.643 961.635,-599.492"/>
<text text-anchor="middle" x="952.751" y="-601.582" font-family="Arial" font-size="10.00">candidate</text>
</g>
<!-- n11 -->
<g id="node13" class="node"><title>n11</title>
<a xlink:href="../../SDMLib/src/org/sdmlib/examples/helloworld/Node.java" xlink:title="&lt;TABLE&gt;">
<polygon fill="none" stroke="black" points="928.879,-434 928.879,-451 994.879,-451 994.879,-434 928.879,-434"/>
<text text-anchor="start" x="937.379" y="-440.5" font-family="Arial" font-size="10.00"> </text>
<text text-anchor="start" x="941.379" y="-440.5" font-family="Arial" font-size="10.00">n11 :Node</text>
</a>
<polygon fill="none" stroke="black" points="928.879,-414 928.879,-434 994.879,-434 994.879,-414 928.879,-414"/>
<text text-anchor="start" x="933.879" y="-422" font-family="Arial" font-size="10.00">name = &quot;n3&quot;</text>
</g>
<!-- n2&#45;&#45;n11 -->
<g id="edge14" class="edge"><title>n2&#45;&#45;n11</title>
<path fill="none" stroke="black" stroke-dasharray="1,5" d="M331.318,-852.544C241.123,-851.146 40.5709,-845.514 19.8795,-823 -8.08999,-792.567 -4.5776,-763.321 19.8795,-730 132.09,-577.121 753.962,-467.401 920.723,-440.431"/>
<text text-anchor="middle" x="912.485" y="-443.6" font-family="Arial" font-size="10.00">candidate</text>
</g>
<!-- n12 -->
<g id="node16" class="node"><title>n12</title>
<a xlink:href="../../SDMLib/src/org/sdmlib/examples/helloworld/Node.java" xlink:title="&lt;TABLE&gt;">
<polygon fill="none" stroke="black" points="1103.88,-270 1103.88,-287 1169.88,-287 1169.88,-270 1103.88,-270"/>
<text text-anchor="start" x="1112.38" y="-276.5" font-family="Arial" font-size="10.00"> </text>
<text text-anchor="start" x="1116.38" y="-276.5" font-family="Arial" font-size="10.00">n12 :Node</text>
</a>
<polygon fill="none" stroke="black" points="1103.88,-250 1103.88,-270 1169.88,-270 1169.88,-250 1103.88,-250"/>
<text text-anchor="start" x="1108.88" y="-258" font-family="Arial" font-size="10.00">name = &quot;n4&quot;</text>
</g>
<!-- n2&#45;&#45;n12 -->
<g id="edge16" class="edge"><title>n2&#45;&#45;n12</title>
<path fill="none" stroke="black" stroke-dasharray="1,5" d="M331.47,-844.159C320.304,-839.709 309.565,-833.028 302.879,-823 261.414,-760.802 286.775,-721.456 322.879,-656 418.587,-482.487 448.183,-417.694 624.879,-328 707.141,-286.243 989.189,-274.123 1095.71,-270.989"/>
<text text-anchor="middle" x="1086.79" y="-273.015" font-family="Arial" font-size="10.00">candidate</text>
</g>
<!-- n13 -->
<g id="node18" class="node"><title>n13</title>
<a xlink:href="../../SDMLib/src/org/sdmlib/examples/helloworld/Node.java" xlink:title="&lt;TABLE&gt;">
<polygon fill="none" stroke="black" points="1179.88,-106 1179.88,-123 1245.88,-123 1245.88,-106 1179.88,-106"/>
<text text-anchor="start" x="1188.38" y="-112.5" font-family="Arial" font-size="10.00"> </text>
<text text-anchor="start" x="1192.38" y="-112.5" font-family="Arial" font-size="10.00">n13 :Node</text>
</a>
<polygon fill="none" stroke="black" points="1179.88,-86 1179.88,-106 1245.88,-106 1245.88,-86 1179.88,-86"/>
<text text-anchor="start" x="1184.88" y="-94" font-family="Arial" font-size="10.00">name = &quot;n5&quot;</text>
</g>
<!-- n2&#45;&#45;n13 -->
<g id="edge18" class="edge"><title>n2&#45;&#45;n13</title>
<path fill="none" stroke="black" stroke-dasharray="1,5" d="M331.356,-848.276C312.846,-844.242 292.261,-836.781 277.879,-823 229.16,-776.315 226.879,-747.477 226.879,-680 226.879,-680 226.879,-680 226.879,-596 226.879,-166.861 985.16,-113.559 1171.77,-106.939"/>
<text text-anchor="middle" x="1162.94" y="-109.128" font-family="Arial" font-size="10.00">candidate</text>
</g>
<!-- n14 -->
<g id="node22" class="node"><title>n14</title>
<a xlink:href="../../SDMLib/src/org/sdmlib/examples/helloworld/Node.java" xlink:title="&lt;TABLE&gt;">
<polygon fill="none" stroke="black" points="544.879,-762 544.879,-779 610.879,-779 610.879,-762 544.879,-762"/>
<text text-anchor="start" x="553.379" y="-768.5" font-family="Arial" font-size="10.00"> </text>
<text text-anchor="start" x="557.379" y="-768.5" font-family="Arial" font-size="10.00">n14 :Node</text>
</a>
<polygon fill="none" stroke="black" points="544.879,-742 544.879,-762 610.879,-762 610.879,-742 544.879,-742"/>
<text text-anchor="start" x="549.879" y="-750" font-family="Arial" font-size="10.00">name = &quot;n6&quot;</text>
</g>
<!-- n2&#45;&#45;n14 -->
<g id="edge20" class="edge"><title>n2&#45;&#45;n14</title>
<path fill="none" stroke="black" stroke-dasharray="1,5" d="M418.237,-852.26C450.504,-849.946 494.542,-842.934 527.879,-823 543.745,-813.513 556.782,-797.068 565.562,-783.642"/>
<text text-anchor="middle" x="564.016" y="-791.022" font-family="Arial" font-size="10.00">candidate</text>
</g>
<!-- n15 -->
<g id="node23" class="node"><title>n15</title>
<a xlink:href="../../SDMLib/src/org/sdmlib/examples/helloworld/Node.java" xlink:title="&lt;TABLE&gt;">
<polygon fill="none" stroke="black" points="744.879,-762 744.879,-779 810.879,-779 810.879,-762 744.879,-762"/>
<text text-anchor="start" x="753.379" y="-768.5" font-family="Arial" font-size="10.00"> </text>
<text text-anchor="start" x="757.379" y="-768.5" font-family="Arial" font-size="10.00">n15 :Node</text>
</a>
<polygon fill="none" stroke="black" points="744.879,-742 744.879,-762 810.879,-762 810.879,-742 744.879,-742"/>
<text text-anchor="start" x="749.879" y="-750" font-family="Arial" font-size="10.00">name = &quot;n7&quot;</text>
</g>
<!-- n2&#45;&#45;n15 -->
<g id="edge22" class="edge"><title>n2&#45;&#45;n15</title>
<path fill="none" stroke="black" stroke-dasharray="1,5" d="M418.311,-853.465C500.49,-853.672 675.221,-850.715 727.879,-823 744.48,-814.263 757.633,-797.407 766.273,-783.625"/>
<text text-anchor="middle" x="764.9" y="-791.03" font-family="Arial" font-size="10.00">candidate</text>
</g>
<!-- n8 -->
<g id="node24" class="node"><title>n8</title>
<a xlink:href="../../SDMLib/src/org/sdmlib/examples/helloworld/Node.java" xlink:title="&lt;TABLE&gt;">
<polygon fill="none" stroke="black" points="444.879,-762 444.879,-779 510.879,-779 510.879,-762 444.879,-762"/>
<text text-anchor="start" x="455.879" y="-768.5" font-family="Arial" font-size="10.00"> </text>
<text text-anchor="start" x="459.879" y="-768.5" font-family="Arial" font-size="10.00">n8 :Node</text>
</a>
<polygon fill="none" stroke="black" points="444.879,-742 444.879,-762 510.879,-762 510.879,-742 444.879,-742"/>
<text text-anchor="start" x="449.879" y="-750" font-family="Arial" font-size="10.00">name = &quot;n8&quot;</text>
</g>
<!-- n2&#45;&#45;n8 -->
<g id="edge24" class="edge"><title>n2&#45;&#45;n8</title>
<path fill="none" stroke="black" stroke-dasharray="1,5" d="M410.484,-831.436C414.464,-828.815 418.346,-825.995 421.879,-823 435.138,-811.763 447.051,-796.208 456.744,-783.619"/>
<text text-anchor="middle" x="454.559" y="-790.877" font-family="Arial" font-size="10.00">candidate</text>
</g>
<!-- n2&#45;&#45;n8 -->
<g id="edge8" class="edge"><title>n2&#45;&#45;n8</title>
<path fill="none" stroke="black" stroke-dasharray="1,5" d="M418.284,-837.4C425.951,-833.265 433.485,-828.42 439.879,-823 453.138,-811.763 465.051,-796.208 472.387,-783.619"/>
<text text-anchor="middle" x="471.311" y="-791.061" font-family="Arial" font-size="10.00">match</text>
</g>
<!-- e16 -->
<g id="node25" class="node"><title>e16</title>
<a xlink:href="../../SDMLib/src/org/sdmlib/examples/helloworld/Edge.java" xlink:title="&lt;TABLE&gt;">
<polygon fill="none" stroke="black" points="377.879,-680 377.879,-697 448.879,-697 448.879,-680 377.879,-680"/>
<text text-anchor="start" x="388.879" y="-686.5" font-family="Arial" font-size="10.00"> </text>
<text text-anchor="start" x="392.879" y="-686.5" font-family="Arial" font-size="10.00">e16 :Edge</text>
</a>
<polygon fill="none" stroke="black" points="377.879,-660 377.879,-680 448.879,-680 448.879,-660 377.879,-660"/>
<text text-anchor="start" x="382.879" y="-668" font-family="Arial" font-size="10.00">name = &quot;e16&quot;</text>
</g>
<!-- e4&#45;&#45;e16 -->
<g id="edge26" class="edge"><title>e4&#45;&#45;e16</title>
<path fill="none" stroke="black" stroke-dasharray="1,5" d="M379.172,-738.14C383.691,-726.759 390.286,-712.893 396.573,-701.557"/>
<text text-anchor="middle" x="395.945" y="-709.037" font-family="Arial" font-size="10.00">match</text>
</g>
<!-- e4&#45;&#45;e16 -->
<g id="edge28" class="edge"><title>e4&#45;&#45;e16</title>
<path fill="none" stroke="black" stroke-dasharray="1,5" d="M391.354,-738.14C397.647,-726.759 404.225,-712.893 408.707,-701.557"/>
<text text-anchor="middle" x="409.224" y="-709.044" font-family="Arial" font-size="10.00">candidate</text>
</g>
<!-- e17 -->
<g id="node26" class="node"><title>e17</title>
<a xlink:href="../../SDMLib/src/org/sdmlib/examples/helloworld/Edge.java" xlink:title="&lt;TABLE&gt;">
<polygon fill="none" stroke="black" points="482.879,-680 482.879,-697 553.879,-697 553.879,-680 482.879,-680"/>
<text text-anchor="start" x="493.879" y="-686.5" font-family="Arial" font-size="10.00"> </text>
<text text-anchor="start" x="497.879" y="-686.5" font-family="Arial" font-size="10.00">e17 :Edge</text>
</a>
<polygon fill="none" stroke="black" points="482.879,-660 482.879,-680 553.879,-680 553.879,-660 482.879,-660"/>
<text text-anchor="start" x="487.879" y="-668" font-family="Arial" font-size="10.00">name = &quot;e17&quot;</text>
</g>
<!-- e4&#45;&#45;e17 -->
<g id="edge30" class="edge"><title>e4&#45;&#45;e17</title>
<path fill="none" stroke="black" stroke-dasharray="1,5" d="M407.779,-738.487C412.472,-735.569 417.27,-732.665 421.879,-730 438.799,-720.219 457.815,-710.133 474.432,-701.604"/>
<text text-anchor="middle" x="468.312" y="-707.013" font-family="Arial" font-size="10.00">candidate</text>
</g>
<!-- g7&#45;&#45;n9 -->
<g id="edge38" class="edge"><title>g7&#45;&#45;n9</title>
<path fill="none" stroke="black" d="M963.775,-852.37C899.942,-850.697 767.768,-844.647 727.879,-823 711.512,-814.117 698.423,-797.457 689.749,-783.789"/>
<text text-anchor="middle" x="698.247" y="-786.561" font-family="Arial" font-size="10.00">nodes</text>
<text text-anchor="middle" x="954.587" y="-853.817" font-family="Arial" font-size="10.00">graph</text>
</g>
<!-- e18 -->
<g id="node10" class="node"><title>e18</title>
<a xlink:href="../../SDMLib/src/org/sdmlib/examples/helloworld/Edge.java" xlink:title="&lt;TABLE&gt;">
<polygon fill="none" stroke="black" points="967.879,-680 967.879,-697 1038.88,-697 1038.88,-680 967.879,-680"/>
<text text-anchor="start" x="978.879" y="-686.5" font-family="Arial" font-size="10.00"> </text>
<text text-anchor="start" x="982.879" y="-686.5" font-family="Arial" font-size="10.00">e18 :Edge</text>
</a>
<polygon fill="none" stroke="black" points="967.879,-660 967.879,-680 1038.88,-680 1038.88,-660 967.879,-660"/>
<text text-anchor="start" x="972.879" y="-668" font-family="Arial" font-size="10.00">name = &quot;e10&quot;</text>
</g>
<!-- g7&#45;&#45;e18 -->
<g id="edge58" class="edge"><title>g7&#45;&#45;e18</title>
<path fill="none" stroke="black" d="M1008.51,-835.687C1010.32,-831.641 1011.93,-827.264 1012.88,-823 1022.26,-780.724 1014.27,-729.855 1008.19,-701.604"/>
<text text-anchor="middle" x="1014.14" y="-707.139" font-family="Arial" font-size="10.00">edges</text>
<text text-anchor="middle" x="1008.27" y="-823.19" font-family="Arial" font-size="10.00">graph</text>
</g>
<!-- g7&#45;&#45;n10 -->
<g id="edge40" class="edge"><title>g7&#45;&#45;n10</title>
<path fill="none" stroke="black" d="M1019.47,-835.674C1023.05,-831.823 1026.41,-827.528 1028.88,-823 1064.8,-757.026 1081.72,-726.156 1054.88,-656 1049.56,-642.106 1039.21,-629.444 1029.14,-619.52"/>
<text text-anchor="middle" x="1038.52" y="-620.49" font-family="Arial" font-size="10.00">nodes</text>
<text text-anchor="middle" x="1022.46" y="-823.632" font-family="Arial" font-size="10.00">graph</text>
</g>
<!-- e19 -->
<g id="node12" class="node"><title>e19</title>
<a xlink:href="../../SDMLib/src/org/sdmlib/examples/helloworld/Edge.java" xlink:title="&lt;TABLE&gt;">
<polygon fill="none" stroke="black" points="967.879,-516 967.879,-533 1038.88,-533 1038.88,-516 967.879,-516"/>
<text text-anchor="start" x="978.879" y="-522.5" font-family="Arial" font-size="10.00"> </text>
<text text-anchor="start" x="982.879" y="-522.5" font-family="Arial" font-size="10.00">e19 :Edge</text>
</a>
<polygon fill="none" stroke="black" points="967.879,-496 967.879,-516 1038.88,-516 1038.88,-496 967.879,-496"/>
<text text-anchor="start" x="972.879" y="-504" font-family="Arial" font-size="10.00">name = &quot;e11&quot;</text>
</g>
<!-- g7&#45;&#45;e19 -->
<g id="edge60" class="edge"><title>g7&#45;&#45;e19</title>
<path fill="none" stroke="black" d="M1034.06,-843.61C1044.61,-839.078 1055.15,-832.487 1061.88,-823 1104.94,-762.267 1084.61,-729.808 1074.88,-656 1069.95,-618.59 1070.53,-607.35 1052.88,-574 1045.85,-560.722 1035.29,-547.866 1025.68,-537.645"/>
<text text-anchor="middle" x="1034.93" y="-538.928" font-family="Arial" font-size="10.00">edges</text>
<text text-anchor="middle" x="1040.59" y="-833.537" font-family="Arial" font-size="10.00">graph</text>
</g>
<!-- g7&#45;&#45;n11 -->
<g id="edge42" class="edge"><title>g7&#45;&#45;n11</title>
<path fill="none" stroke="black" d="M998.276,-835.825C996.817,-811.224 991.842,-765.056 974.879,-730 967.74,-715.246 956.566,-717.372 950.879,-702 918.498,-614.464 942.146,-584.924 950.879,-492 952.021,-479.857 954.478,-466.471 956.781,-455.621"/>
<text text-anchor="middle" x="959.067" y="-462.856" font-family="Arial" font-size="10.00">nodes</text>
<text text-anchor="middle" x="993.436" y="-824.575" font-family="Arial" font-size="10.00">graph</text>
</g>
<!-- e20 -->
<g id="node14" class="node"><title>e20</title>
<a xlink:href="../../SDMLib/src/org/sdmlib/examples/helloworld/Edge.java" xlink:title="&lt;TABLE&gt;">
<polygon fill="none" stroke="black" points="642.879,-352 642.879,-369 713.879,-369 713.879,-352 642.879,-352"/>
<text text-anchor="start" x="653.879" y="-358.5" font-family="Arial" font-size="10.00"> </text>
<text text-anchor="start" x="657.879" y="-358.5" font-family="Arial" font-size="10.00">e20 :Edge</text>
</a>
<polygon fill="none" stroke="black" points="642.879,-332 642.879,-352 713.879,-352 713.879,-332 642.879,-332"/>
<text text-anchor="start" x="647.879" y="-340" font-family="Arial" font-size="10.00">name = &quot;e12&quot;</text>
</g>
<!-- g7&#45;&#45;e20 -->
<g id="edge62" class="edge"><title>g7&#45;&#45;e20</title>
<path fill="none" stroke="black" d="M983.653,-835.916C980.488,-831.858 977.363,-827.419 974.879,-823 968.36,-811.403 892.879,-611.304 892.879,-598 892.879,-598 892.879,-598 892.879,-514 892.879,-428.94 784.212,-382.945 721.388,-363.461"/>
<text text-anchor="middle" x="731.32" y="-359.802" font-family="Arial" font-size="10.00">edges</text>
<text text-anchor="middle" x="974.771" y="-828.822" font-family="Arial" font-size="10.00">graph</text>
</g>
<!-- e21 -->
<g id="node15" class="node"><title>e21</title>
<a xlink:href="../../SDMLib/src/org/sdmlib/examples/helloworld/Edge.java" xlink:title="&lt;TABLE&gt;">
<polygon fill="none" stroke="black" points="1081.88,-352 1081.88,-369 1152.88,-369 1152.88,-352 1081.88,-352"/>
<text text-anchor="start" x="1092.88" y="-358.5" font-family="Arial" font-size="10.00"> </text>
<text text-anchor="start" x="1096.88" y="-358.5" font-family="Arial" font-size="10.00">e21 :Edge</text>
</a>
<polygon fill="none" stroke="black" points="1081.88,-332 1081.88,-352 1152.88,-352 1152.88,-332 1081.88,-332"/>
<text text-anchor="start" x="1086.88" y="-340" font-family="Arial" font-size="10.00">name = &quot;e13&quot;</text>
</g>
<!-- g7&#45;&#45;e21 -->
<g id="edge64" class="edge"><title>g7&#45;&#45;e21</title>
<path fill="none" stroke="black" d="M1033.98,-848.302C1052.24,-844.267 1073.82,-836.797 1088.88,-823 1139.95,-776.203 1150.88,-749.272 1150.88,-680 1150.88,-680 1150.88,-680 1150.88,-514 1150.88,-462.847 1134.44,-404.508 1124.43,-373.707"/>
<text text-anchor="middle" x="1131.19" y="-378.572" font-family="Arial" font-size="10.00">edges</text>
<text text-anchor="middle" x="1041.83" y="-839.603" font-family="Arial" font-size="10.00">graph</text>
</g>
<!-- g7&#45;&#45;n12 -->
<g id="edge44" class="edge"><title>g7&#45;&#45;n12</title>
<path fill="none" stroke="black" d="M1033.93,-853.712C1063.31,-852.475 1104.7,-846.208 1131.88,-823 1183.91,-778.575 1188.88,-748.418 1188.88,-680 1188.88,-680 1188.88,-680 1188.88,-432 1188.88,-384.931 1184.89,-372.262 1168.88,-328 1164.3,-315.347 1157.23,-302.145 1150.89,-291.538"/>
<text text-anchor="middle" x="1159.13" y="-294.699" font-family="Arial" font-size="10.00">nodes</text>
<text text-anchor="middle" x="1042.73" y="-846.465" font-family="Arial" font-size="10.00">graph</text>
</g>
<!-- e22 -->
<g id="node17" class="node"><title>e22</title>
<a xlink:href="../../SDMLib/src/org/sdmlib/examples/helloworld/Edge.java" xlink:title="&lt;TABLE&gt;">
<polygon fill="none" stroke="black" points="1157.88,-188 1157.88,-205 1228.88,-205 1228.88,-188 1157.88,-188"/>
<text text-anchor="start" x="1168.88" y="-194.5" font-family="Arial" font-size="10.00"> </text>
<text text-anchor="start" x="1172.88" y="-194.5" font-family="Arial" font-size="10.00">e22 :Edge</text>
</a>
<polygon fill="none" stroke="black" points="1157.88,-168 1157.88,-188 1228.88,-188 1228.88,-168 1157.88,-168"/>
<text text-anchor="start" x="1162.88" y="-176" font-family="Arial" font-size="10.00">name = &quot;e14&quot;</text>
</g>
<!-- g7&#45;&#45;e22 -->
<g id="edge66" class="edge"><title>g7&#45;&#45;e22</title>
<path fill="none" stroke="black" d="M1033.9,-851.02C1078.48,-847.826 1152.2,-840.078 1172.88,-823 1225.26,-779.744 1226.88,-747.936 1226.88,-680 1226.88,-680 1226.88,-680 1226.88,-350 1226.88,-298.847 1210.44,-240.508 1200.43,-209.707"/>
<text text-anchor="middle" x="1207.19" y="-214.572" font-family="Arial" font-size="10.00">edges</text>
<text text-anchor="middle" x="1042.61" y="-843.605" font-family="Arial" font-size="10.00">graph</text>
</g>
<!-- g7&#45;&#45;n13 -->
<g id="edge46" class="edge"><title>g7&#45;&#45;n13</title>
<path fill="none" stroke="black" d="M1034.21,-852.356C1087.77,-850.683 1186.13,-844.661 1212.88,-823 1265.44,-780.442 1264.88,-747.627 1264.88,-680 1264.88,-680 1264.88,-680 1264.88,-268 1264.88,-220.931 1260.89,-208.262 1244.88,-164 1240.3,-151.347 1233.23,-138.145 1226.89,-127.538"/>
<text text-anchor="middle" x="1235.13" y="-130.699" font-family="Arial" font-size="10.00">nodes</text>
<text text-anchor="middle" x="1043.11" y="-845.296" font-family="Arial" font-size="10.00">graph</text>
</g>
<!-- e23 -->
<g id="node19" class="node"><title>e23</title>
<a xlink:href="../../SDMLib/src/org/sdmlib/examples/helloworld/Edge.java" xlink:title="&lt;TABLE&gt;">
<polygon fill="none" stroke="black" points="1299.88,-24 1299.88,-41 1370.88,-41 1370.88,-24 1299.88,-24"/>
<text text-anchor="start" x="1310.88" y="-30.5" font-family="Arial" font-size="10.00"> </text>
<text text-anchor="start" x="1314.88" y="-30.5" font-family="Arial" font-size="10.00">e23 :Edge</text>
</a>
<polygon fill="none" stroke="black" points="1299.88,-4 1299.88,-24 1370.88,-24 1370.88,-4 1299.88,-4"/>
<text text-anchor="start" x="1304.88" y="-12" font-family="Arial" font-size="10.00">name = &quot;e18&quot;</text>
</g>
<!-- g7&#45;&#45;e23 -->
<g id="edge54" class="edge"><title>g7&#45;&#45;e23</title>
<path fill="none" stroke="black" d="M1034.15,-851.455C1107.25,-847.956 1270.13,-838.503 1289.88,-823 1342.96,-781.338 1340.88,-747.477 1340.88,-680 1340.88,-680 1340.88,-680 1340.88,-186 1340.88,-135.762 1337.96,-76.8217 1336.2,-45.7391"/>
<text text-anchor="middle" x="1340.92" y="-52.0547" font-family="Arial" font-size="10.00">edges</text>
<text text-anchor="middle" x="1042.99" y="-844.278" font-family="Arial" font-size="10.00">graph</text>
</g>
<!-- e24 -->
<g id="node20" class="node"><title>e24</title>
<a xlink:href="../../SDMLib/src/org/sdmlib/examples/helloworld/Edge.java" xlink:title="&lt;TABLE&gt;">
<polygon fill="none" stroke="black" points="714.879,-24 714.879,-41 785.879,-41 785.879,-24 714.879,-24"/>
<text text-anchor="start" x="725.879" y="-30.5" font-family="Arial" font-size="10.00"> </text>
<text text-anchor="start" x="729.879" y="-30.5" font-family="Arial" font-size="10.00">e24 :Edge</text>
</a>
<polygon fill="none" stroke="black" points="714.879,-4 714.879,-24 785.879,-24 785.879,-4 714.879,-4"/>
<text text-anchor="start" x="719.879" y="-12" font-family="Arial" font-size="10.00">name = &quot;e15&quot;</text>
</g>
<!-- g7&#45;&#45;e24 -->
<g id="edge68" class="edge"><title>g7&#45;&#45;e24</title>
<path fill="none" stroke="black" d="M963.774,-841.412C954.097,-836.882 944.247,-830.845 936.879,-823 906.313,-790.452 931.421,-760.573 898.879,-730 790.507,-628.184 264.879,-664.698 264.879,-516 264.879,-516 264.879,-516 264.879,-186 264.879,-93.3417 587.368,-44.0781 706.412,-29.0494"/>
<text text-anchor="middle" x="697.992" y="-31.9443" font-family="Arial" font-size="10.00">edges</text>
<text text-anchor="middle" x="953.775" y="-838.772" font-family="Arial" font-size="10.00">graph</text>
</g>
<!-- e25 -->
<g id="node21" class="node"><title>e25</title>
<a xlink:href="../../SDMLib/src/org/sdmlib/examples/helloworld/Edge.java" xlink:title="&lt;TABLE&gt;">
<polygon fill="none" stroke="black" points="1183.88,-24 1183.88,-41 1254.88,-41 1254.88,-24 1183.88,-24"/>
<text text-anchor="start" x="1194.88" y="-30.5" font-family="Arial" font-size="10.00"> </text>
<text text-anchor="start" x="1198.88" y="-30.5" font-family="Arial" font-size="10.00">e25 :Edge</text>
</a>
<polygon fill="none" stroke="black" points="1183.88,-4 1183.88,-24 1254.88,-24 1254.88,-4 1183.88,-4"/>
<text text-anchor="start" x="1188.88" y="-12" font-family="Arial" font-size="10.00">name = &quot;e19&quot;</text>
</g>
<!-- g7&#45;&#45;e25 -->
<g id="edge56" class="edge"><title>g7&#45;&#45;e25</title>
<path fill="none" stroke="black" d="M1034.11,-853.27C1095.58,-853.033 1219.03,-849.196 1251.88,-823 1304.64,-780.933 1302.88,-747.477 1302.88,-680 1302.88,-680 1302.88,-680 1302.88,-186 1302.88,-130.558 1263.63,-75.213 1238.79,-45.7404"/>
<text text-anchor="middle" x="1247.79" y="-47.5885" font-family="Arial" font-size="10.00">edges</text>
<text text-anchor="middle" x="1043.13" y="-846.455" font-family="Arial" font-size="10.00">graph</text>
</g>
<!-- g7&#45;&#45;n14 -->
<g id="edge48" class="edge"><title>g7&#45;&#45;n14</title>
<path fill="none" stroke="black" d="M963.738,-853.604C882.774,-854.45 685.625,-853.242 627.879,-823 611.261,-814.297 598.11,-797.439 589.474,-783.647"/>
<text text-anchor="middle" x="597.942" y="-786.466" font-family="Arial" font-size="10.00">nodes</text>
<text text-anchor="middle" x="954.701" y="-855.384" font-family="Arial" font-size="10.00">graph</text>
</g>
<!-- g7&#45;&#45;n15 -->
<g id="edge50" class="edge"><title>g7&#45;&#45;n15</title>
<path fill="none" stroke="black" d="M963.629,-853.123C928.43,-851.812 873.822,-845.791 832.879,-823 816.06,-813.637 801.684,-797.186 791.853,-783.725"/>
<text text-anchor="middle" x="800.668" y="-785.947" font-family="Arial" font-size="10.00">nodes</text>
<text text-anchor="middle" x="954.369" y="-854.398" font-family="Arial" font-size="10.00">graph</text>
</g>
<!-- g7&#45;&#45;n8 -->
<g id="edge52" class="edge"><title>g7&#45;&#45;n8</title>
<path fill="none" stroke="black" d="M963.535,-852.366C860.669,-850.296 566.292,-842.701 527.879,-823 511.187,-814.439 498.041,-797.571 489.426,-783.739"/>
<text text-anchor="middle" x="497.883" y="-786.577" font-family="Arial" font-size="10.00">nodes</text>
<text text-anchor="middle" x="954.382" y="-853.892" font-family="Arial" font-size="10.00">graph</text>
</g>
<!-- g7&#45;&#45;e16 -->
<g id="edge70" class="edge"><title>g7&#45;&#45;e16</title>
<path fill="none" stroke="black" d="M963.741,-849.268C928.041,-844.809 875.923,-836.246 860.879,-823 827.963,-794.017 862.704,-756.661 827.879,-730 763.638,-680.818 543.493,-721.123 464.879,-702 462.022,-701.305 459.12,-700.471 456.224,-699.539"/>
<text text-anchor="middle" x="466.141" y="-695.759" font-family="Arial" font-size="10.00">edges</text>
<text text-anchor="middle" x="954.205" y="-849.781" font-family="Arial" font-size="10.00">graph</text>
</g>
<!-- g7&#45;&#45;e17 -->
<g id="edge72" class="edge"><title>g7&#45;&#45;e17</title>
<path fill="none" stroke="black" d="M963.705,-847.79C945.646,-843.615 924.268,-836.175 908.879,-823 873.546,-792.75 899.248,-756.295 860.879,-730 812.944,-697.149 658.019,-712.586 600.879,-702 587.981,-699.61 574.142,-696.264 561.534,-692.901"/>
<text text-anchor="middle" x="571.376" y="-688.627" font-family="Arial" font-size="10.00">edges</text>
<text text-anchor="middle" x="953.896" y="-847.232" font-family="Arial" font-size="10.00">graph</text>
</g>
<!-- n9&#45;&#45;e18 -->
<g id="edge74" class="edge"><title>n9&#45;&#45;e18</title>
<path fill="none" stroke="black" d="M710.109,-738.389C715.852,-735.206 721.911,-732.247 727.879,-730 806.217,-700.501 903.844,-688.055 959.197,-683.073"/>
<text text-anchor="middle" x="950.584" y="-685.655" font-family="Arial" font-size="10.00">outEdges</text>
<text text-anchor="middle" x="716.031" y="-727.831" font-family="Arial" font-size="10.00">src</text>
</g>
<!-- n9&#45;&#45;e20 -->
<g id="edge76" class="edge"><title>n9&#45;&#45;e20</title>
<path fill="none" stroke="black" d="M677.879,-738.251C677.879,-707.157 677.879,-648.203 677.879,-598 677.879,-598 677.879,-598 677.879,-514 677.879,-463.797 677.879,-404.843 677.879,-373.749"/>
<text text-anchor="middle" x="682.106" y="-380.312" font-family="Arial" font-size="10.00">inEdges</text>
<text text-anchor="middle" x="673.653" y="-726.688" font-family="Arial" font-size="10.00">tgt</text>
</g>
<!-- e18&#45;&#45;n10 -->
<g id="edge78" class="edge"><title>e18&#45;&#45;n10</title>
<path fill="none" stroke="black" d="M1002.88,-656.14C1002.88,-644.759 1002.88,-630.893 1002.88,-619.557"/>
<text text-anchor="middle" x="1007.11" y="-626.12" font-family="Arial" font-size="10.00">tgt</text>
<text text-anchor="middle" x="998.653" y="-644.577" font-family="Arial" font-size="10.00">inEdges</text>
</g>
<!-- n10&#45;&#45;e19 -->
<g id="edge80" class="edge"><title>n10&#45;&#45;e19</title>
<path fill="none" stroke="black" d="M1002.88,-574.14C1002.88,-562.759 1002.88,-548.893 1002.88,-537.557"/>
<text text-anchor="middle" x="1007.11" y="-544.12" font-family="Arial" font-size="10.00">outEdges</text>
<text text-anchor="middle" x="998.653" y="-562.577" font-family="Arial" font-size="10.00">src</text>
</g>
<!-- e19&#45;&#45;n11 -->
<g id="edge82" class="edge"><title>e19&#45;&#45;n11</title>
<path fill="none" stroke="black" d="M991.676,-492.14C985.843,-480.759 978.737,-466.893 972.927,-455.557"/>
<text text-anchor="middle" x="980.822" y="-459.195" font-family="Arial" font-size="10.00">tgt</text>
<text text-anchor="middle" x="983.781" y="-483.502" font-family="Arial" font-size="10.00">inEdges</text>
</g>
<!-- n11&#45;&#45;e20 -->
<g id="edge84" class="edge"><title>n11&#45;&#45;e20</title>
<path fill="none" stroke="black" d="M920.709,-414.643C916.084,-412.959 911.407,-411.371 906.879,-410 832.546,-387.494 810.412,-395.838 735.879,-374 731.125,-372.607 726.207,-371.004 721.337,-369.312"/>
<text text-anchor="middle" x="731.283" y="-365.775" font-family="Arial" font-size="10.00">outEdges</text>
<text text-anchor="middle" x="910.749" y="-413.036" font-family="Arial" font-size="10.00">src</text>
</g>
<!-- n11&#45;&#45;e21 -->
<g id="edge86" class="edge"><title>n11&#45;&#45;e21</title>
<path fill="none" stroke="black" d="M1003.01,-410.772C1025.25,-399.292 1052.66,-385.144 1075.02,-373.606"/>
<text text-anchor="middle" x="1068.9" y="-379.019" font-family="Arial" font-size="10.00">outEdges</text>
<text text-anchor="middle" x="1009.13" y="-400.359" font-family="Arial" font-size="10.00">src</text>
</g>
<!-- n11&#45;&#45;e24 -->
<g id="edge88" class="edge"><title>n11&#45;&#45;e24</title>
<path fill="none" stroke="black" d="M920.752,-410.742C859.102,-377.484 749.879,-312.558 749.879,-270 749.879,-270 749.879,-270 749.879,-186 749.879,-135.797 749.879,-76.8425 749.879,-45.7485"/>
<text text-anchor="middle" x="754.106" y="-52.3116" font-family="Arial" font-size="10.00">inEdges</text>
<text text-anchor="middle" x="910.775" y="-407.577" font-family="Arial" font-size="10.00">tgt</text>
</g>
<!-- e21&#45;&#45;n12 -->
<g id="edge90" class="edge"><title>e21&#45;&#45;n12</title>
<path fill="none" stroke="black" d="M1122.34,-328.14C1125.19,-316.759 1128.66,-302.893 1131.49,-291.557"/>
<text text-anchor="middle" x="1133.39" y="-298.874" font-family="Arial" font-size="10.00">tgt</text>
<text text-anchor="middle" x="1120.44" y="-315.822" font-family="Arial" font-size="10.00">inEdges</text>
</g>
<!-- n12&#45;&#45;e22 -->
<g id="edge92" class="edge"><title>n12&#45;&#45;e22</title>
<path fill="none" stroke="black" d="M1152.18,-246.14C1160.15,-234.759 1169.85,-220.893 1177.79,-209.557"/>
<text text-anchor="middle" x="1176.05" y="-216.905" font-family="Arial" font-size="10.00">outEdges</text>
<text text-anchor="middle" x="1153.92" y="-233.791" font-family="Arial" font-size="10.00">src</text>
</g>
<!-- e22&#45;&#45;n13 -->
<g id="edge94" class="edge"><title>e22&#45;&#45;n13</title>
<path fill="none" stroke="black" d="M1198.34,-164.14C1201.19,-152.759 1204.66,-138.893 1207.49,-127.557"/>
<text text-anchor="middle" x="1209.39" y="-134.874" font-family="Arial" font-size="10.00">tgt</text>
<text text-anchor="middle" x="1196.44" y="-151.822" font-family="Arial" font-size="10.00">inEdges</text>
</g>
<!-- n13&#45;&#45;e23 -->
<g id="edge96" class="edge"><title>n13&#45;&#45;e23</title>
<path fill="none" stroke="black" d="M1245.89,-82.3508C1263.25,-70.9674 1284.47,-57.0524 1301.84,-45.6665"/>
<text text-anchor="middle" x="1296.58" y="-51.6704" font-family="Arial" font-size="10.00">outEdges</text>
<text text-anchor="middle" x="1251.16" y="-71.3469" font-family="Arial" font-size="10.00">src</text>
</g>
<!-- n13&#45;&#45;e24 -->
<g id="edge98" class="edge"><title>n13&#45;&#45;e24</title>
<path fill="none" stroke="black" d="M1171.79,-96.9005C1084.7,-81.853 882.266,-46.8746 793.224,-31.4894"/>
<text text-anchor="middle" x="802.875" y="-26.368" font-family="Arial" font-size="10.00">outEdges</text>
<text text-anchor="middle" x="1162.14" y="-97.0219" font-family="Arial" font-size="10.00">src</text>
</g>
<!-- n13&#45;&#45;e25 -->
<g id="edge100" class="edge"><title>n13&#45;&#45;e25</title>
<path fill="none" stroke="black" d="M1214.52,-82.1396C1215.37,-70.759 1216.41,-56.8929 1217.26,-45.5569"/>
<text text-anchor="middle" x="1220.8" y="-52.4107" font-family="Arial" font-size="10.00">inEdges</text>
<text text-anchor="middle" x="1210.98" y="-70.2859" font-family="Arial" font-size="10.00">tgt</text>
</g>
<!-- n8&#45;&#45;e16 -->
<g id="edge102" class="edge"><title>n8&#45;&#45;e16</title>
<path fill="none" stroke="black" d="M460.118,-738.14C450.871,-726.759 439.605,-712.893 430.394,-701.557"/>
<text text-anchor="middle" x="439.39" y="-703.426" font-family="Arial" font-size="10.00">outEdges_inEdges</text>
<text text-anchor="middle" x="451.123" y="-731.271" font-family="Arial" font-size="10.00">src_tgt</text>
</g>
<!-- n8&#45;&#45;e17 -->
<g id="edge104" class="edge"><title>n8&#45;&#45;e17</title>
<path fill="none" stroke="black" d="M488.81,-738.14C494.5,-726.759 501.433,-712.893 507.101,-701.557"/>
<text text-anchor="middle" x="506.828" y="-709.053" font-family="Arial" font-size="10.00">outEdges_inEdges</text>
<text text-anchor="middle" x="489.083" y="-725.643" font-family="Arial" font-size="10.00">src_tgt</text>
</g>
</g>
</svg>
