<?xml version="1.0" encoding="UTF-8" standalone="no"?>
<!DOCTYPE svg PUBLIC "-//W3C//DTD SVG 1.1//EN"
 "http://www.w3.org/Graphics/SVG/1.1/DTD/svg11.dtd">
<!-- Generated by graphviz version 2.26.3 (20100126.1600)
 -->
<!-- Title: ObjectDiagram Pages: 1 -->
<svg width="310pt" height="259pt"
 viewBox="0.00 0.00 310.00 259.00" xmlns="http://www.w3.org/2000/svg" xmlns:xlink="http://www.w3.org/1999/xlink">
<g id="graph1" class="graph" transform="scale(1 1) rotate(0) translate(4 255)">
<title>ObjectDiagram</title>
<polygon fill="white" stroke="white" points="-4,5 -4,-255 307,-255 307,5 -4,5"/>
<g id="graph2" class="cluster"><title>cluster_n3</title>
<polygon fill="none" stroke="grey" points="78,-8 78,-101 182,-101 182,-8 78,-8"/>
<text text-anchor="start" x="107" y="-81.7333" font-family="Times Roman,serif" font-size="14.00">NAC n3</text>
</g>
<g id="graph3" class="cluster"><title>cluster_n5</title>
<polygon fill="none" stroke="grey" points="190,-8 190,-101 294,-101 294,-8 190,-8"/>
<text text-anchor="start" x="219" y="-81.7333" font-family="Times Roman,serif" font-size="14.00">NAC n5</text>
</g>
<!-- g1 -->
<g id="node1" class="node"><title>g1</title>
<polygon fill="deepskyblue" stroke="deepskyblue" points="91,-195.5 91,-246.5 169,-246.5 169,-195.5 91,-195.5"/>
<text text-anchor="start" x="124" y="-236.167" font-family="Times Roman,serif" font-size="10.00">«bound»</text>
<polygon fill="none" stroke="black" points="91,-215 91,-231 169,-231 169,-215 91,-215"/>
<text text-anchor="start" x="94.5" y="-220.667" font-family="Times Roman,serif" font-size="10.00"> </text>
<text text-anchor="start" x="98.5" y="-220.667" font-family="Times Roman,serif" font-size="10.00"> g1 :GraphPO </text>
<polygon fill="none" stroke="black" points="91,-195 91,-215 169,-215 169,-195 91,-195"/>
<text text-anchor="start" x="126.5" y="-202.667" font-family="Times Roman,serif" font-size="10.00"> &#160;</text>
</g>
<!-- n2 -->
<g id="node2" class="node"><title>n2</title>
<polygon fill="deepskyblue" stroke="deepskyblue" points="92.5,-113.5 92.5,-150.5 167.5,-150.5 167.5,-113.5 92.5,-113.5"/>
<polygon fill="none" stroke="black" points="93,-133 93,-150 168,-150 168,-133 93,-133"/>
<text text-anchor="start" x="96.5" y="-139.167" font-family="Times Roman,serif" font-size="10.00"> </text>
<text text-anchor="start" x="100.5" y="-139.167" font-family="Times Roman,serif" font-size="10.00"> n2 :NodePO </text>
<polygon fill="none" stroke="black" points="93,-113 93,-133 168,-133 168,-113 93,-113"/>
<text text-anchor="start" x="127" y="-120.667" font-family="Times Roman,serif" font-size="10.00"> &#160;</text>
</g>
<!-- g1&#45;&#45;n2 -->
<g id="edge6" class="edge"><title>g1&#45;&#45;n2</title>
<path fill="none" stroke="black" d="M130,-191.364C130,-179.431 130,-165.885 130,-154.75"/>
<text text-anchor="middle" x="134.226" y="-160.813" font-family="Times Roman,serif" font-size="10.00">nodes</text>
</g>
<!-- allMatches_n2 -->
<g id="node3" class="node"><title>allMatches_n2</title>
<text text-anchor="middle" x="34" y="-36" font-family="Times Roman,serif" font-size="10.00">allMatches</text>
</g>
<!-- n2&#45;&#45;allMatches_n2 -->
<g id="edge4" class="edge"><title>n2&#45;&#45;allMatches_n2</title>
<path fill="none" stroke="black" stroke-dasharray="1,5" d="M84.8919,-109.714C81.027,-107.021 77.3284,-104.111 74,-101 60.6184,-88.4911 49.7055,-70.6113 42.6787,-57.264"/>
</g>
<!-- e4 -->
<g id="node5" class="node"><title>e4</title>
<polygon fill="deepskyblue" stroke="deepskyblue" points="93.5,-20.5 93.5,-57.5 166.5,-57.5 166.5,-20.5 93.5,-20.5"/>
<polygon fill="none" stroke="black" points="94,-40 94,-57 167,-57 167,-40 94,-40"/>
<text text-anchor="start" x="97.5" y="-46.1667" font-family="Times Roman,serif" font-size="10.00"> </text>
<text text-anchor="start" x="101.5" y="-46.1667" font-family="Times Roman,serif" font-size="10.00"> e4 :EdgePO </text>
<polygon fill="none" stroke="black" points="94,-20 94,-40 167,-40 167,-20 94,-20"/>
<text text-anchor="start" x="127" y="-27.6667" font-family="Times Roman,serif" font-size="10.00"> &#160;</text>
</g>
<!-- n2&#45;&#45;e4 -->
<g id="edge8" class="edge"><title>n2&#45;&#45;e4</title>
<path fill="none" stroke="black" d="M130,-109.487C130,-94.9729 130,-76.1647 130,-61.6277"/>
<text text-anchor="middle" x="134.226" y="-67.6908" font-family="Times Roman,serif" font-size="10.00">outEdges</text>
</g>
<!-- e6 -->
<g id="node7" class="node"><title>e6</title>
<polygon fill="deepskyblue" stroke="deepskyblue" points="205.5,-20.5 205.5,-57.5 278.5,-57.5 278.5,-20.5 205.5,-20.5"/>
<polygon fill="none" stroke="black" points="206,-40 206,-57 279,-57 279,-40 206,-40"/>
<text text-anchor="start" x="209.5" y="-46.1667" font-family="Times Roman,serif" font-size="10.00"> </text>
<text text-anchor="start" x="213.5" y="-46.1667" font-family="Times Roman,serif" font-size="10.00"> e6 :EdgePO </text>
<polygon fill="none" stroke="black" points="206,-20 206,-40 279,-40 279,-20 206,-20"/>
<text text-anchor="start" x="239" y="-27.6667" font-family="Times Roman,serif" font-size="10.00"> &#160;</text>
</g>
<!-- n2&#45;&#45;e6 -->
<g id="edge10" class="edge"><title>n2&#45;&#45;e6</title>
<path fill="none" stroke="black" d="M174.018,-109.5C178.192,-106.818 182.257,-103.971 186,-101 200.428,-89.5481 214.323,-74.1998 224.663,-61.6396"/>
<text text-anchor="middle" x="222.106" y="-68.307" font-family="Times Roman,serif" font-size="10.00">inEdges</text>
</g>
</g>
</svg>
