<?xml version="1.0" encoding="UTF-8" standalone="no"?>
<!DOCTYPE svg PUBLIC "-//W3C//DTD SVG 1.1//EN"
 "http://www.w3.org/Graphics/SVG/1.1/DTD/svg11.dtd">
<!-- Generated by graphviz version 2.28.0 (20110507.0327)
 -->
<!-- Title: ObjectDiagram Pages: 1 -->
<svg width="943pt" height="970pt"
 viewBox="0.00 0.00 943.35 970.00" xmlns="http://www.w3.org/2000/svg" xmlns:xlink="http://www.w3.org/1999/xlink">
<g id="graph1" class="graph" transform="scale(1 1) rotate(0) translate(4 966)">
<title>ObjectDiagram</title>
<polygon fill="white" stroke="white" points="-4,5 -4,-966 940.347,-966 940.347,5 -4,5"/>
<!-- g1 -->
<g id="node1" class="node"><title>g1</title>
<polygon fill="deepskyblue" stroke="deepskyblue" points="523.847,-906.5 523.847,-957.5 598.847,-957.5 598.847,-906.5 523.847,-906.5"/>
<text text-anchor="start" x="560.347" y="-947.5" font-family="Arial" font-size="10.00">«bound»</text>
<polygon fill="none" stroke="black" points="524.347,-926 524.347,-942 599.347,-942 599.347,-926 524.347,-926"/>
<text text-anchor="start" x="527.847" y="-932" font-family="Arial" font-size="10.00"> </text>
<text text-anchor="start" x="531.847" y="-932" font-family="Arial" font-size="10.00"> g1 :GraphPO </text>
<polygon fill="none" stroke="black" points="524.347,-906 524.347,-926 599.347,-926 599.347,-906 524.347,-906"/>
<text text-anchor="start" x="558.347" y="-914" font-family="Arial" font-size="10.00"> &#160;</text>
</g>
<!-- n2 -->
<g id="node2" class="node"><title>n2</title>
<polygon fill="deepskyblue" stroke="deepskyblue" points="651.847,-824.5 651.847,-861.5 710.847,-861.5 710.847,-824.5 651.847,-824.5"/>
<polygon fill="none" stroke="black" points="652.347,-844 652.347,-861 711.347,-861 711.347,-844 652.347,-844"/>
<text text-anchor="start" x="655.847" y="-850.5" font-family="Arial" font-size="10.00"> </text>
<text text-anchor="start" x="659.847" y="-850.5" font-family="Arial" font-size="10.00"> n2 :NodePO </text>
<polygon fill="none" stroke="black" points="652.347,-824 652.347,-844 711.347,-844 711.347,-824 652.347,-824"/>
<text text-anchor="start" x="678.347" y="-832" font-family="Arial" font-size="10.00"> &#160;</text>
</g>
<!-- g1&#45;&#45;n2 -->
<g id="edge6" class="edge"><title>g1&#45;&#45;n2</title>
<path fill="none" stroke="black" d="M600.972,-902.272C617.493,-890.294 636.353,-876.621 651.649,-865.531"/>
<text text-anchor="middle" x="646.792" y="-871.772" font-family="Arial" font-size="10.00">nodes</text>
</g>
<!-- g3 -->
<g id="node4" class="node"><title>g3</title>
<a xlink:href="../../SDMLib/src/org/sdmlib/examples/helloworld/Graph.java" xlink:title="&lt;TABLE&gt;">
<polygon fill="none" stroke="black" points="414.347,-834 414.347,-851 468.347,-851 468.347,-834 414.347,-834"/>
<text text-anchor="start" x="417.847" y="-840.5" font-family="Arial" font-size="10.00"> </text>
<text text-anchor="start" x="421.847" y="-840.5" font-family="Arial" font-size="10.00">g3 :Graph</text>
</a>
</g>
<!-- g1&#45;&#45;g3 -->
<g id="edge2" class="edge"><title>g1&#45;&#45;g3</title>
<path fill="none" stroke="black" stroke-dasharray="1,5" d="M521.722,-902.272C502.88,-888.611 480.996,-872.745 464.825,-861.021"/>
<text text-anchor="middle" x="474.643" y="-860.42" font-family="Arial" font-size="10.00">match</text>
</g>
<!-- n4 -->
<g id="node20" class="node"><title>n4</title>
<a xlink:href="../../SDMLib/src/org/sdmlib/examples/helloworld/Node.java" xlink:title="&lt;TABLE&gt;">
<polygon fill="none" stroke="black" points="798.347,-762 798.347,-779 864.347,-779 864.347,-762 798.347,-762"/>
<text text-anchor="start" x="809.347" y="-768.5" font-family="Arial" font-size="10.00"> </text>
<text text-anchor="start" x="813.347" y="-768.5" font-family="Arial" font-size="10.00">n4 :Node</text>
</a>
<polygon fill="none" stroke="black" points="798.347,-742 798.347,-762 864.347,-762 864.347,-742 798.347,-742"/>
<text text-anchor="start" x="803.347" y="-750" font-family="Arial" font-size="10.00">name = &quot;n8&quot;</text>
</g>
<!-- n2&#45;&#45;n4 -->
<g id="edge4" class="edge"><title>n2&#45;&#45;n4</title>
<path fill="none" stroke="black" stroke-dasharray="1,5" d="M718.811,-822.019C740.766,-810.31 768.501,-795.518 790.944,-783.548"/>
<text text-anchor="middle" x="784.936" y="-789.042" font-family="Arial" font-size="10.00">match</text>
</g>
<!-- allMatches -->
<g id="node3" class="node"><title>allMatches</title>
<text text-anchor="middle" x="657.347" y="-929.5" font-family="Arial" font-size="10.00">allMatches</text>
</g>
<!-- n5 -->
<g id="node5" class="node"><title>n5</title>
<a xlink:href="../../SDMLib/src/org/sdmlib/examples/helloworld/Node.java" xlink:title="&lt;TABLE&gt;">
<polygon fill="none" stroke="black" points="74.347,-762 74.347,-779 140.347,-779 140.347,-762 74.347,-762"/>
<text text-anchor="start" x="85.347" y="-768.5" font-family="Arial" font-size="10.00"> </text>
<text text-anchor="start" x="89.347" y="-768.5" font-family="Arial" font-size="10.00">n5 :Node</text>
</a>
<polygon fill="none" stroke="black" points="74.347,-742 74.347,-762 140.347,-762 140.347,-742 74.347,-742"/>
<text text-anchor="start" x="79.347" y="-750" font-family="Arial" font-size="10.00">name = &quot;n1&quot;</text>
</g>
<!-- g3&#45;&#45;n5 -->
<g id="edge8" class="edge"><title>g3&#45;&#45;n5</title>
<path fill="none" stroke="black" d="M406.057,-836.706C352.628,-828.236 248.321,-809.912 162.347,-784 157.818,-782.635 153.14,-781.05 148.514,-779.368"/>
<text text-anchor="middle" x="158.474" y="-775.97" font-family="Arial" font-size="10.00">nodes</text>
<text text-anchor="middle" x="396.435" y="-836.928" font-family="Arial" font-size="10.00">graph</text>
</g>
<!-- e6 -->
<g id="node6" class="node"><title>e6</title>
<a xlink:href="../../SDMLib/src/org/sdmlib/examples/helloworld/Edge.java" xlink:title="&lt;TABLE&gt;">
<polygon fill="none" stroke="black" points="151.347,-680 151.347,-697 222.347,-697 222.347,-680 151.347,-680"/>
<text text-anchor="start" x="164.847" y="-686.5" font-family="Arial" font-size="10.00"> </text>
<text text-anchor="start" x="168.847" y="-686.5" font-family="Arial" font-size="10.00">e6 :Edge</text>
</a>
<polygon fill="none" stroke="black" points="151.347,-660 151.347,-680 222.347,-680 222.347,-660 151.347,-660"/>
<text text-anchor="start" x="156.347" y="-668" font-family="Arial" font-size="10.00">name = &quot;e10&quot;</text>
</g>
<!-- g3&#45;&#45;e6 -->
<g id="edge28" class="edge"><title>g3&#45;&#45;e6</title>
<path fill="none" stroke="black" d="M405.993,-839.611C363.452,-835.076 291.835,-821.948 244.347,-784 217.537,-762.576 201.109,-725.207 192.872,-701.58"/>
<text text-anchor="middle" x="199.943" y="-706.151" font-family="Arial" font-size="10.00">edges</text>
<text text-anchor="middle" x="396.49" y="-840.224" font-family="Arial" font-size="10.00">graph</text>
</g>
<!-- n7 -->
<g id="node7" class="node"><title>n7</title>
<a xlink:href="../../SDMLib/src/org/sdmlib/examples/helloworld/Node.java" xlink:title="&lt;TABLE&gt;">
<polygon fill="none" stroke="black" points="172.347,-598 172.347,-615 238.347,-615 238.347,-598 172.347,-598"/>
<text text-anchor="start" x="183.347" y="-604.5" font-family="Arial" font-size="10.00"> </text>
<text text-anchor="start" x="187.347" y="-604.5" font-family="Arial" font-size="10.00">n7 :Node</text>
</a>
<polygon fill="none" stroke="black" points="172.347,-578 172.347,-598 238.347,-598 238.347,-578 172.347,-578"/>
<text text-anchor="start" x="177.347" y="-586" font-family="Arial" font-size="10.00">name = &quot;n2&quot;</text>
</g>
<!-- g3&#45;&#45;n7 -->
<g id="edge10" class="edge"><title>g3&#45;&#45;n7</title>
<path fill="none" stroke="black" d="M406.264,-838.024C370.505,-832.174 315.69,-817.972 282.347,-784 240.209,-741.068 263.106,-710.825 238.347,-656 232.72,-643.541 225.27,-630.245 218.872,-619.53"/>
<text text-anchor="middle" x="227.127" y="-622.674" font-family="Arial" font-size="10.00">nodes</text>
<text text-anchor="middle" x="396.598" y="-838.086" font-family="Arial" font-size="10.00">graph</text>
</g>
<!-- e8 -->
<g id="node8" class="node"><title>e8</title>
<a xlink:href="../../SDMLib/src/org/sdmlib/examples/helloworld/Edge.java" xlink:title="&lt;TABLE&gt;">
<polygon fill="none" stroke="black" points="170.347,-516 170.347,-533 241.347,-533 241.347,-516 170.347,-516"/>
<text text-anchor="start" x="183.847" y="-522.5" font-family="Arial" font-size="10.00"> </text>
<text text-anchor="start" x="187.847" y="-522.5" font-family="Arial" font-size="10.00">e8 :Edge</text>
</a>
<polygon fill="none" stroke="black" points="170.347,-496 170.347,-516 241.347,-516 241.347,-496 170.347,-496"/>
<text text-anchor="start" x="175.347" y="-504" font-family="Arial" font-size="10.00">name = &quot;e11&quot;</text>
</g>
<!-- g3&#45;&#45;e8 -->
<g id="edge30" class="edge"><title>g3&#45;&#45;e8</title>
<path fill="none" stroke="black" d="M406.032,-839.911C357.564,-835.645 269.183,-822.754 205.347,-784 194.983,-777.708 137.621,-713.346 133.347,-702 112.998,-647.983 128.345,-625.018 155.347,-574 162.375,-560.722 172.94,-547.866 182.551,-537.645"/>
<text text-anchor="middle" x="179.499" y="-544.668" font-family="Arial" font-size="10.00">edges</text>
<text text-anchor="middle" x="396.596" y="-840.721" font-family="Arial" font-size="10.00">graph</text>
</g>
<!-- n9 -->
<g id="node9" class="node"><title>n9</title>
<a xlink:href="../../SDMLib/src/org/sdmlib/examples/helloworld/Node.java" xlink:title="&lt;TABLE&gt;">
<polygon fill="none" stroke="black" points="193.347,-434 193.347,-451 259.347,-451 259.347,-434 193.347,-434"/>
<text text-anchor="start" x="204.347" y="-440.5" font-family="Arial" font-size="10.00"> </text>
<text text-anchor="start" x="208.347" y="-440.5" font-family="Arial" font-size="10.00">n9 :Node</text>
</a>
<polygon fill="none" stroke="black" points="193.347,-414 193.347,-434 259.347,-434 259.347,-414 193.347,-414"/>
<text text-anchor="start" x="198.347" y="-422" font-family="Arial" font-size="10.00">name = &quot;n3&quot;</text>
</g>
<!-- g3&#45;&#45;n9 -->
<g id="edge12" class="edge"><title>g3&#45;&#45;n9</title>
<path fill="none" stroke="black" d="M406.141,-834.028C378.724,-825.988 341.827,-810.819 320.347,-784 290.692,-746.975 296.347,-727.437 296.347,-680 296.347,-680 296.347,-680 296.347,-596 296.347,-541.923 263.073,-485.407 242.406,-455.521"/>
<text text-anchor="middle" x="250.965" y="-458.192" font-family="Arial" font-size="10.00">nodes</text>
<text text-anchor="middle" x="396.233" y="-832.881" font-family="Arial" font-size="10.00">graph</text>
</g>
<!-- e10 -->
<g id="node10" class="node"><title>e10</title>
<a xlink:href="../../SDMLib/src/org/sdmlib/examples/helloworld/Edge.java" xlink:title="&lt;TABLE&gt;">
<polygon fill="none" stroke="black" points="41.347,-352 41.347,-369 112.347,-369 112.347,-352 41.347,-352"/>
<text text-anchor="start" x="52.347" y="-358.5" font-family="Arial" font-size="10.00"> </text>
<text text-anchor="start" x="56.347" y="-358.5" font-family="Arial" font-size="10.00">e10 :Edge</text>
</a>
<polygon fill="none" stroke="black" points="41.347,-332 41.347,-352 112.347,-352 112.347,-332 41.347,-332"/>
<text text-anchor="start" x="46.347" y="-340" font-family="Arial" font-size="10.00">name = &quot;e12&quot;</text>
</g>
<!-- g3&#45;&#45;e10 -->
<g id="edge32" class="edge"><title>g3&#45;&#45;e10</title>
<path fill="none" stroke="black" d="M406.05,-841.714C320.722,-840.259 106.658,-831.816 57.347,-784 23.6144,-751.29 38.347,-726.987 38.347,-680 38.347,-680 38.347,-680 38.347,-514 38.347,-462.579 56.7184,-404.345 67.9135,-373.632"/>
<text text-anchor="middle" x="68.8673" y="-381.086" font-family="Arial" font-size="10.00">edges</text>
<text text-anchor="middle" x="396.891" y="-843.228" font-family="Arial" font-size="10.00">graph</text>
</g>
<!-- e11 -->
<g id="node11" class="node"><title>e11</title>
<a xlink:href="../../SDMLib/src/org/sdmlib/examples/helloworld/Edge.java" xlink:title="&lt;TABLE&gt;">
<polygon fill="none" stroke="black" points="371.347,-352 371.347,-369 442.347,-369 442.347,-352 371.347,-352"/>
<text text-anchor="start" x="382.347" y="-358.5" font-family="Arial" font-size="10.00"> </text>
<text text-anchor="start" x="386.347" y="-358.5" font-family="Arial" font-size="10.00">e11 :Edge</text>
</a>
<polygon fill="none" stroke="black" points="371.347,-332 371.347,-352 442.347,-352 442.347,-332 371.347,-332"/>
<text text-anchor="start" x="376.347" y="-340" font-family="Arial" font-size="10.00">name = &quot;e13&quot;</text>
</g>
<!-- g3&#45;&#45;e11 -->
<g id="edge34" class="edge"><title>g3&#45;&#45;e11</title>
<path fill="none" stroke="black" d="M421.853,-824.514C411.189,-813.852 398.689,-799.352 391.347,-784 371.075,-741.611 372.347,-726.987 372.347,-680 372.347,-680 372.347,-680 372.347,-514 372.347,-462.847 388.785,-404.508 398.801,-373.707"/>
<text text-anchor="middle" x="400.096" y="-381.123" font-family="Arial" font-size="10.00">edges</text>
<text text-anchor="middle" x="412.49" y="-818.503" font-family="Arial" font-size="10.00">graph</text>
</g>
<!-- n12 -->
<g id="node12" class="node"><title>n12</title>
<a xlink:href="../../SDMLib/src/org/sdmlib/examples/helloworld/Node.java" xlink:title="&lt;TABLE&gt;">
<polygon fill="none" stroke="black" points="546.347,-270 546.347,-287 612.347,-287 612.347,-270 546.347,-270"/>
<text text-anchor="start" x="554.847" y="-276.5" font-family="Arial" font-size="10.00"> </text>
<text text-anchor="start" x="558.847" y="-276.5" font-family="Arial" font-size="10.00">n12 :Node</text>
</a>
<polygon fill="none" stroke="black" points="546.347,-250 546.347,-270 612.347,-270 612.347,-250 546.347,-250"/>
<text text-anchor="start" x="551.347" y="-258" font-family="Arial" font-size="10.00">name = &quot;n4&quot;</text>
</g>
<!-- g3&#45;&#45;n12 -->
<g id="edge14" class="edge"><title>g3&#45;&#45;n12</title>
<path fill="none" stroke="black" d="M476.469,-838.222C511.072,-832.557 562.778,-818.525 591.347,-784 621.302,-747.799 610.347,-726.987 610.347,-680 610.347,-680 610.347,-680 610.347,-432 610.347,-381.029 595.36,-322.619 586.227,-291.757"/>
<text text-anchor="middle" x="592.796" y="-296.797" font-family="Arial" font-size="10.00">nodes</text>
<text text-anchor="middle" x="484.636" y="-829.95" font-family="Arial" font-size="10.00">graph</text>
</g>
<!-- e13 -->
<g id="node13" class="node"><title>e13</title>
<a xlink:href="../../SDMLib/src/org/sdmlib/examples/helloworld/Edge.java" xlink:title="&lt;TABLE&gt;">
<polygon fill="none" stroke="black" points="562.347,-188 562.347,-205 633.347,-205 633.347,-188 562.347,-188"/>
<text text-anchor="start" x="573.347" y="-194.5" font-family="Arial" font-size="10.00"> </text>
<text text-anchor="start" x="577.347" y="-194.5" font-family="Arial" font-size="10.00">e13 :Edge</text>
</a>
<polygon fill="none" stroke="black" points="562.347,-168 562.347,-188 633.347,-188 633.347,-168 562.347,-168"/>
<text text-anchor="start" x="567.347" y="-176" font-family="Arial" font-size="10.00">name = &quot;e14&quot;</text>
</g>
<!-- g3&#45;&#45;e13 -->
<g id="edge36" class="edge"><title>g3&#45;&#45;e13</title>
<path fill="none" stroke="black" d="M476.538,-839.695C515.88,-835.244 578.96,-822.201 616.347,-784 650.173,-749.438 648.347,-728.361 648.347,-680 648.347,-680 648.347,-680 648.347,-350 648.347,-303.013 645.124,-290.259 629.347,-246 624.829,-233.326 617.757,-220.122 611.408,-209.519"/>
<text text-anchor="middle" x="619.656" y="-212.674" font-family="Arial" font-size="10.00">edges</text>
<text text-anchor="middle" x="484.985" y="-831.843" font-family="Arial" font-size="10.00">graph</text>
</g>
<!-- n14 -->
<g id="node14" class="node"><title>n14</title>
<a xlink:href="../../SDMLib/src/org/sdmlib/examples/helloworld/Node.java" xlink:title="&lt;TABLE&gt;">
<polygon fill="none" stroke="black" points="564.347,-106 564.347,-123 630.347,-123 630.347,-106 564.347,-106"/>
<text text-anchor="start" x="572.847" y="-112.5" font-family="Arial" font-size="10.00"> </text>
<text text-anchor="start" x="576.847" y="-112.5" font-family="Arial" font-size="10.00">n14 :Node</text>
</a>
<polygon fill="none" stroke="black" points="564.347,-86 564.347,-106 630.347,-106 630.347,-86 564.347,-86"/>
<text text-anchor="start" x="569.347" y="-94" font-family="Arial" font-size="10.00">name = &quot;n5&quot;</text>
</g>
<!-- g3&#45;&#45;n14 -->
<g id="edge16" class="edge"><title>g3&#45;&#45;n14</title>
<path fill="none" stroke="black" d="M476.501,-841.176C521.132,-838.287 598.005,-826.893 645.347,-784 682.166,-750.64 686.347,-729.684 686.347,-680 686.347,-680 686.347,-680 686.347,-268 686.347,-218.94 674.417,-206.171 649.347,-164 641.469,-150.748 630.295,-137.797 620.324,-127.507"/>
<text text-anchor="middle" x="629.64" y="-128.641" font-family="Arial" font-size="10.00">nodes</text>
<text text-anchor="middle" x="485.198" y="-833.739" font-family="Arial" font-size="10.00">graph</text>
</g>
<!-- e15 -->
<g id="node15" class="node"><title>e15</title>
<a xlink:href="../../SDMLib/src/org/sdmlib/examples/helloworld/Edge.java" xlink:title="&lt;TABLE&gt;">
<polygon fill="none" stroke="black" points="317.347,-24 317.347,-41 388.347,-41 388.347,-24 317.347,-24"/>
<text text-anchor="start" x="328.347" y="-30.5" font-family="Arial" font-size="10.00"> </text>
<text text-anchor="start" x="332.347" y="-30.5" font-family="Arial" font-size="10.00">e15 :Edge</text>
</a>
<polygon fill="none" stroke="black" points="317.347,-4 317.347,-24 388.347,-24 388.347,-4 317.347,-4"/>
<text text-anchor="start" x="322.347" y="-12" font-family="Arial" font-size="10.00">name = &quot;e18&quot;</text>
</g>
<!-- g3&#45;&#45;e15 -->
<g id="edge24" class="edge"><title>g3&#45;&#45;e15</title>
<path fill="none" stroke="black" d="M414.344,-824.927C399.88,-814.601 382.744,-800.295 371.347,-784 343.228,-743.797 334.347,-729.06 334.347,-680 334.347,-680 334.347,-680 334.347,-186 334.347,-135.488 343.098,-76.6555 348.397,-45.6636"/>
<text text-anchor="middle" x="351.077" y="-52.7977" font-family="Arial" font-size="10.00">edges</text>
<text text-anchor="middle" x="404.531" y="-820.503" font-family="Arial" font-size="10.00">graph</text>
</g>
<!-- e16 -->
<g id="node16" class="node"><title>e16</title>
<a xlink:href="../../SDMLib/src/org/sdmlib/examples/helloworld/Edge.java" xlink:title="&lt;TABLE&gt;">
<polygon fill="none" stroke="black" points="191.347,-24 191.347,-41 262.347,-41 262.347,-24 191.347,-24"/>
<text text-anchor="start" x="202.347" y="-30.5" font-family="Arial" font-size="10.00"> </text>
<text text-anchor="start" x="206.347" y="-30.5" font-family="Arial" font-size="10.00">e16 :Edge</text>
</a>
<polygon fill="none" stroke="black" points="191.347,-4 191.347,-24 262.347,-24 262.347,-4 191.347,-4"/>
<text text-anchor="start" x="196.347" y="-12" font-family="Arial" font-size="10.00">name = &quot;e15&quot;</text>
</g>
<!-- g3&#45;&#45;e16 -->
<g id="edge38" class="edge"><title>g3&#45;&#45;e16</title>
<path fill="none" stroke="black" d="M406.313,-841.746C317.629,-840.388 87.3249,-832.194 31.347,-784 -5.20458,-752.531 0.346972,-728.232 0.346972,-680 0.346972,-680 0.346972,-680 0.346972,-186 0.346972,-97.0531 117.416,-52.2241 183.039,-34.0824"/>
<text text-anchor="middle" x="175.556" y="-38.2157" font-family="Arial" font-size="10.00">edges</text>
<text text-anchor="middle" x="397.162" y="-843.279" font-family="Arial" font-size="10.00">graph</text>
</g>
<!-- e17 -->
<g id="node17" class="node"><title>e17</title>
<a xlink:href="../../SDMLib/src/org/sdmlib/examples/helloworld/Edge.java" xlink:title="&lt;TABLE&gt;">
<polygon fill="none" stroke="black" points="731.347,-24 731.347,-41 802.347,-41 802.347,-24 731.347,-24"/>
<text text-anchor="start" x="742.347" y="-30.5" font-family="Arial" font-size="10.00"> </text>
<text text-anchor="start" x="746.347" y="-30.5" font-family="Arial" font-size="10.00">e17 :Edge</text>
</a>
<polygon fill="none" stroke="black" points="731.347,-4 731.347,-24 802.347,-24 802.347,-4 731.347,-4"/>
<text text-anchor="start" x="736.347" y="-12" font-family="Arial" font-size="10.00">name = &quot;e19&quot;</text>
</g>
<!-- g3&#45;&#45;e17 -->
<g id="edge26" class="edge"><title>g3&#45;&#45;e17</title>
<path fill="none" stroke="black" d="M476.583,-837.794C579.514,-825.452 873.027,-789.833 881.347,-784 923.992,-754.101 935.347,-732.082 935.347,-680 935.347,-680 935.347,-680 935.347,-186 935.347,-116.5 859.942,-67.5662 809.869,-42.7331"/>
<text text-anchor="middle" x="819.859" y="-40.6724" font-family="Arial" font-size="10.00">edges</text>
<text text-anchor="middle" x="485.076" y="-830.015" font-family="Arial" font-size="10.00">graph</text>
</g>
<!-- n18 -->
<g id="node18" class="node"><title>n18</title>
<a xlink:href="../../SDMLib/src/org/sdmlib/examples/helloworld/Node.java" xlink:title="&lt;TABLE&gt;">
<polygon fill="none" stroke="black" points="408.347,-762 408.347,-779 474.347,-779 474.347,-762 408.347,-762"/>
<text text-anchor="start" x="416.847" y="-768.5" font-family="Arial" font-size="10.00"> </text>
<text text-anchor="start" x="420.847" y="-768.5" font-family="Arial" font-size="10.00">n18 :Node</text>
</a>
<polygon fill="none" stroke="black" points="408.347,-742 408.347,-762 474.347,-762 474.347,-742 408.347,-742"/>
<text text-anchor="start" x="413.347" y="-750" font-family="Arial" font-size="10.00">name = &quot;n6&quot;</text>
</g>
<!-- g3&#45;&#45;n18 -->
<g id="edge18" class="edge"><title>g3&#45;&#45;n18</title>
<path fill="none" stroke="black" d="M441.347,-824.641C441.347,-812.601 441.347,-796.48 441.347,-783.608"/>
<text text-anchor="middle" x="445.573" y="-790.171" font-family="Arial" font-size="10.00">nodes</text>
<text text-anchor="middle" x="437.121" y="-813.078" font-family="Arial" font-size="10.00">graph</text>
</g>
<!-- n19 -->
<g id="node19" class="node"><title>n19</title>
<a xlink:href="../../SDMLib/src/org/sdmlib/examples/helloworld/Node.java" xlink:title="&lt;TABLE&gt;">
<polygon fill="none" stroke="black" points="508.347,-762 508.347,-779 574.347,-779 574.347,-762 508.347,-762"/>
<text text-anchor="start" x="516.847" y="-768.5" font-family="Arial" font-size="10.00"> </text>
<text text-anchor="start" x="520.847" y="-768.5" font-family="Arial" font-size="10.00">n19 :Node</text>
</a>
<polygon fill="none" stroke="black" points="508.347,-742 508.347,-762 574.347,-762 574.347,-742 508.347,-742"/>
<text text-anchor="start" x="513.347" y="-750" font-family="Arial" font-size="10.00">name = &quot;n7&quot;</text>
</g>
<!-- g3&#45;&#45;n19 -->
<g id="edge20" class="edge"><title>g3&#45;&#45;n19</title>
<path fill="none" stroke="black" d="M463.045,-824.641C478.096,-812.601 498.247,-796.48 514.337,-783.608"/>
<text text-anchor="middle" x="509.9" y="-790.07" font-family="Arial" font-size="10.00">nodes</text>
<text text-anchor="middle" x="467.482" y="-813.179" font-family="Arial" font-size="10.00">graph</text>
</g>
<!-- g3&#45;&#45;n4 -->
<g id="edge22" class="edge"><title>g3&#45;&#45;n4</title>
<path fill="none" stroke="black" d="M476.608,-838.353C538.264,-831.434 669.295,-814.317 776.347,-784 780.899,-782.711 785.59,-781.175 790.225,-779.522"/>
<text text-anchor="middle" x="783.089" y="-784.028" font-family="Arial" font-size="10.00">nodes</text>
<text text-anchor="middle" x="485.121" y="-830.607" font-family="Arial" font-size="10.00">graph</text>
</g>
<!-- e20 -->
<g id="node21" class="node"><title>e20</title>
<a xlink:href="../../SDMLib/src/org/sdmlib/examples/helloworld/Edge.java" xlink:title="&lt;TABLE&gt;">
<polygon fill="none" stroke="black" points="828.347,-680 828.347,-697 899.347,-697 899.347,-680 828.347,-680"/>
<text text-anchor="start" x="839.347" y="-686.5" font-family="Arial" font-size="10.00"> </text>
<text text-anchor="start" x="843.347" y="-686.5" font-family="Arial" font-size="10.00">e20 :Edge</text>
</a>
<polygon fill="none" stroke="black" points="828.347,-660 828.347,-680 899.347,-680 899.347,-660 828.347,-660"/>
<text text-anchor="start" x="833.347" y="-668" font-family="Arial" font-size="10.00">name = &quot;e16&quot;</text>
</g>
<!-- g3&#45;&#45;e20 -->
<g id="edge40" class="edge"><title>g3&#45;&#45;e20</title>
<path fill="none" stroke="black" d="M476.528,-841.154C533.374,-838.479 647.608,-827.609 732.347,-784 758.907,-770.332 758.209,-756.892 781.347,-738 797.015,-725.207 815.32,-712.099 830.656,-701.588"/>
<text text-anchor="middle" x="825.592" y="-707.711" font-family="Arial" font-size="10.00">edges</text>
<text text-anchor="middle" x="485.334" y="-833.915" font-family="Arial" font-size="10.00">graph</text>
</g>
<!-- e21 -->
<g id="node22" class="node"><title>e21</title>
<a xlink:href="../../SDMLib/src/org/sdmlib/examples/helloworld/Edge.java" xlink:title="&lt;TABLE&gt;">
<polygon fill="none" stroke="black" points="723.347,-680 723.347,-697 794.347,-697 794.347,-680 723.347,-680"/>
<text text-anchor="start" x="734.347" y="-686.5" font-family="Arial" font-size="10.00"> </text>
<text text-anchor="start" x="738.347" y="-686.5" font-family="Arial" font-size="10.00">e21 :Edge</text>
</a>
<polygon fill="none" stroke="black" points="723.347,-660 723.347,-680 794.347,-680 794.347,-660 723.347,-660"/>
<text text-anchor="start" x="728.347" y="-668" font-family="Arial" font-size="10.00">name = &quot;e17&quot;</text>
</g>
<!-- g3&#45;&#45;e21 -->
<g id="edge42" class="edge"><title>g3&#45;&#45;e21</title>
<path fill="none" stroke="black" d="M476.471,-842.841C530.022,-842.36 632.955,-834.301 700.347,-784 727.849,-763.473 744.072,-725.838 752.079,-701.913"/>
<text text-anchor="middle" x="753.066" y="-709.364" font-family="Arial" font-size="10.00">edges</text>
<text text-anchor="middle" x="485.434" y="-835.905" font-family="Arial" font-size="10.00">graph</text>
</g>
<!-- n5&#45;&#45;e6 -->
<g id="edge44" class="edge"><title>n5&#45;&#45;e6</title>
<path fill="none" stroke="black" d="M128.934,-738.14C140.172,-726.759 153.865,-712.893 165.059,-701.557"/>
<text text-anchor="middle" x="161.698" y="-708.475" font-family="Arial" font-size="10.00">outEdges</text>
<text text-anchor="middle" x="132.295" y="-726.221" font-family="Arial" font-size="10.00">src</text>
</g>
<!-- n5&#45;&#45;e10 -->
<g id="edge46" class="edge"><title>n5&#45;&#45;e10</title>
<path fill="none" stroke="black" d="M100.467,-738.243C91.3342,-707.381 76.347,-648.971 76.347,-598 76.347,-598 76.347,-598 76.347,-514 76.347,-463.797 76.347,-404.843 76.347,-373.749"/>
<text text-anchor="middle" x="80.5732" y="-380.312" font-family="Arial" font-size="10.00">inEdges</text>
<text text-anchor="middle" x="93.8976" y="-728.203" font-family="Arial" font-size="10.00">tgt</text>
</g>
<!-- e6&#45;&#45;n7 -->
<g id="edge48" class="edge"><title>e6&#45;&#45;n7</title>
<path fill="none" stroke="black" d="M191.539,-656.14C194.242,-644.759 197.535,-630.893 200.227,-619.557"/>
<text text-anchor="middle" x="202.245" y="-626.851" font-family="Arial" font-size="10.00">tgt</text>
<text text-anchor="middle" x="189.521" y="-643.845" font-family="Arial" font-size="10.00">inEdges</text>
</g>
<!-- n7&#45;&#45;e8 -->
<g id="edge50" class="edge"><title>n7&#45;&#45;e8</title>
<path fill="none" stroke="black" d="M205.347,-574.14C205.347,-562.759 205.347,-548.893 205.347,-537.557"/>
<text text-anchor="middle" x="209.573" y="-544.12" font-family="Arial" font-size="10.00">outEdges</text>
<text text-anchor="middle" x="201.121" y="-562.577" font-family="Arial" font-size="10.00">src</text>
</g>
<!-- e8&#45;&#45;n9 -->
<g id="edge52" class="edge"><title>e8&#45;&#45;n9</title>
<path fill="none" stroke="black" d="M211.085,-492.14C214.073,-480.759 217.713,-466.893 220.688,-455.557"/>
<text text-anchor="middle" x="222.475" y="-462.896" font-family="Arial" font-size="10.00">tgt</text>
<text text-anchor="middle" x="209.299" y="-479.801" font-family="Arial" font-size="10.00">inEdges</text>
</g>
<!-- n9&#45;&#45;e10 -->
<g id="edge54" class="edge"><title>n9&#45;&#45;e10</title>
<path fill="none" stroke="black" d="M185.755,-410.351C164.324,-398.921 138.108,-384.939 116.711,-373.528"/>
<text text-anchor="middle" x="126.697" y="-371.564" font-family="Arial" font-size="10.00">outEdges</text>
<text text-anchor="middle" x="175.769" y="-407.315" font-family="Arial" font-size="10.00">src</text>
</g>
<!-- n9&#45;&#45;e11 -->
<g id="edge56" class="edge"><title>n9&#45;&#45;e11</title>
<path fill="none" stroke="black" d="M267.643,-413.646C296.186,-400.961 334.082,-384.118 363.049,-371.244"/>
<text text-anchor="middle" x="356.484" y="-376.286" font-family="Arial" font-size="10.00">outEdges</text>
<text text-anchor="middle" x="274.208" y="-403.604" font-family="Arial" font-size="10.00">src</text>
</g>
<!-- n9&#45;&#45;e16 -->
<g id="edge58" class="edge"><title>n9&#45;&#45;e16</title>
<path fill="none" stroke="black" d="M226.347,-410.251C226.347,-379.157 226.347,-320.203 226.347,-270 226.347,-270 226.347,-270 226.347,-186 226.347,-135.797 226.347,-76.8425 226.347,-45.7485"/>
<text text-anchor="middle" x="230.573" y="-52.3116" font-family="Arial" font-size="10.00">inEdges</text>
<text text-anchor="middle" x="222.121" y="-398.688" font-family="Arial" font-size="10.00">tgt</text>
</g>
<!-- e11&#45;&#45;n12 -->
<g id="edge60" class="edge"><title>e11&#45;&#45;n12</title>
<path fill="none" stroke="black" d="M450.002,-329.813C477.028,-317.315 511.52,-301.365 538.088,-289.079"/>
<text text-anchor="middle" x="531.635" y="-294.219" font-family="Arial" font-size="10.00">tgt</text>
<text text-anchor="middle" x="456.454" y="-319.673" font-family="Arial" font-size="10.00">inEdges</text>
</g>
<!-- n12&#45;&#45;e13 -->
<g id="edge62" class="edge"><title>n12&#45;&#45;e13</title>
<path fill="none" stroke="black" d="M584.266,-246.14C586.826,-234.759 589.946,-220.893 592.497,-209.557"/>
<text text-anchor="middle" x="594.63" y="-216.827" font-family="Arial" font-size="10.00">outEdges</text>
<text text-anchor="middle" x="582.132" y="-233.87" font-family="Arial" font-size="10.00">src</text>
</g>
<!-- e13&#45;&#45;n14 -->
<g id="edge64" class="edge"><title>e13&#45;&#45;n14</title>
<path fill="none" stroke="black" d="M597.347,-164.14C597.347,-152.759 597.347,-138.893 597.347,-127.557"/>
<text text-anchor="middle" x="601.573" y="-134.12" font-family="Arial" font-size="10.00">tgt</text>
<text text-anchor="middle" x="593.121" y="-152.577" font-family="Arial" font-size="10.00">inEdges</text>
</g>
<!-- n14&#45;&#45;e15 -->
<g id="edge66" class="edge"><title>n14&#45;&#45;e15</title>
<path fill="none" stroke="black" d="M556.339,-90.6098C511.931,-76.1091 441.373,-53.0698 395.969,-38.244"/>
<text text-anchor="middle" x="405.897" y="-34.5398" font-family="Arial" font-size="10.00">outEdges</text>
<text text-anchor="middle" x="546.412" y="-89.314" font-family="Arial" font-size="10.00">src</text>
</g>
<!-- n14&#45;&#45;e16 -->
<g id="edge68" class="edge"><title>n14&#45;&#45;e16</title>
<path fill="none" stroke="black" d="M556.088,-97.3201C498.307,-87.6593 390.165,-68.4626 299.347,-46 289.71,-43.6164 279.454,-40.7412 269.769,-37.8669"/>
<text text-anchor="middle" x="279.657" y="-33.8777" font-family="Arial" font-size="10.00">outEdges</text>
<text text-anchor="middle" x="546.447" y="-97.4746" font-family="Arial" font-size="10.00">src</text>
</g>
<!-- n14&#45;&#45;e17 -->
<g id="edge70" class="edge"><title>n14&#45;&#45;e17</title>
<path fill="none" stroke="black" d="M638.689,-84.4298C664.291,-72.3103 697.119,-56.7704 723.074,-44.4843"/>
<text text-anchor="middle" x="716.69" y="-49.6818" font-family="Arial" font-size="10.00">inEdges</text>
<text text-anchor="middle" x="645.072" y="-74.2323" font-family="Arial" font-size="10.00">tgt</text>
</g>
<!-- n4&#45;&#45;e20 -->
<g id="edge72" class="edge"><title>n4&#45;&#45;e20</title>
<path fill="none" stroke="black" d="M840.091,-738.14C844.643,-726.759 850.19,-712.893 854.724,-701.557"/>
<text text-anchor="middle" x="855.282" y="-709.041" font-family="Arial" font-size="10.00">outEdges_inEdges</text>
<text text-anchor="middle" x="839.533" y="-725.655" font-family="Arial" font-size="10.00">src_tgt</text>
</g>
<!-- n4&#45;&#45;e21 -->
<g id="edge74" class="edge"><title>n4&#45;&#45;e21</title>
<path fill="none" stroke="black" d="M811.399,-738.14C801.015,-726.759 788.362,-712.893 778.018,-701.557"/>
<text text-anchor="middle" x="787.248" y="-702.903" font-family="Arial" font-size="10.00">outEdges_inEdges</text>
<text text-anchor="middle" x="802.169" y="-731.794" font-family="Arial" font-size="10.00">src_tgt</text>
</g>
</g>
</svg>
