<?xml version="1.0" encoding="UTF-8" standalone="no"?>
<!DOCTYPE svg PUBLIC "-//W3C//DTD SVG 1.1//EN"
 "http://www.w3.org/Graphics/SVG/1.1/DTD/svg11.dtd">
<!-- Generated by graphviz version 2.28.0 (20110507.0327)
 -->
<!-- Title: ObjectDiagram Pages: 1 -->
<svg width="318pt" height="560pt"
 viewBox="0.00 0.00 318.00 560.00" xmlns="http://www.w3.org/2000/svg" xmlns:xlink="http://www.w3.org/1999/xlink">
<g id="graph1" class="graph" transform="scale(1 1) rotate(0) translate(4 556)">
<title>ObjectDiagram</title>
<polygon fill="white" stroke="white" points="-4,5 -4,-556 315,-556 315,5 -4,5"/>
<!-- g1 -->
<g id="node1" class="node"><title>g1</title>
<polygon fill="deepskyblue" stroke="deepskyblue" points="47.5,-496.5 47.5,-547.5 110.5,-547.5 110.5,-496.5 47.5,-496.5"/>
<text text-anchor="start" x="77" y="-537.5" font-family="Arial" font-size="10.00">«bound»</text>
<polygon fill="none" stroke="black" points="48,-516 48,-532 111,-532 111,-516 48,-516"/>
<text text-anchor="start" x="51.5" y="-522" font-family="Arial" font-size="10.00"> </text>
<text text-anchor="start" x="55.5" y="-522" font-family="Arial" font-size="10.00"> g1 :GraphPO </text>
<polygon fill="none" stroke="black" points="48,-496 48,-516 111,-516 111,-496 48,-496"/>
<text text-anchor="start" x="76" y="-504" font-family="Arial" font-size="10.00"> &#160;</text>
</g>
<!-- n2 -->
<g id="node2" class="node"><title>n2</title>
<polygon fill="deepskyblue" stroke="deepskyblue" points="49.5,-414.5 49.5,-451.5 108.5,-451.5 108.5,-414.5 49.5,-414.5"/>
<polygon fill="none" stroke="black" points="50,-434 50,-451 109,-451 109,-434 50,-434"/>
<text text-anchor="start" x="53.5" y="-440.5" font-family="Arial" font-size="10.00"> </text>
<text text-anchor="start" x="57.5" y="-440.5" font-family="Arial" font-size="10.00"> n2 :NodePO </text>
<polygon fill="none" stroke="black" points="50,-414 50,-434 109,-434 109,-414 50,-414"/>
<text text-anchor="start" x="76" y="-422" font-family="Arial" font-size="10.00"> &#160;</text>
</g>
<!-- g1&#45;&#45;n2 -->
<g id="edge2" class="edge"><title>g1&#45;&#45;n2</title>
<path fill="none" stroke="black" d="M79,-492.03C79,-480.167 79,-466.675 79,-455.687"/>
<text text-anchor="middle" x="83.2262" y="-462.25" font-family="Arial" font-size="10.00">nodes</text>
</g>
<!-- e3 -->
<g id="node3" class="node"><title>e3</title>
<polygon fill="deepskyblue" stroke="deepskyblue" points="7.5,-332.5 7.5,-369.5 78.5,-369.5 78.5,-332.5 7.5,-332.5"/>
<polygon fill="none" stroke="black" points="8,-352 8,-369 79,-369 79,-352 8,-352"/>
<text text-anchor="start" x="11.5" y="-358.5" font-family="Arial" font-size="10.00"> </text>
<text text-anchor="start" x="15.5" y="-358.5" font-family="Arial" font-size="10.00"> e3 :EdgePO </text>
<polygon fill="none" stroke="black" points="8,-332 8,-352 79,-352 79,-332 8,-332"/>
<text text-anchor="start" x="40" y="-340" font-family="Arial" font-size="10.00"> &#160;</text>
</g>
<!-- n2&#45;&#45;e3 -->
<g id="edge4" class="edge"><title>n2&#45;&#45;e3</title>
<path fill="none" stroke="black" d="M69.1628,-410.14C64.0416,-398.759 57.8018,-384.893 52.7006,-373.557"/>
<text text-anchor="middle" x="60.2737" y="-377.587" font-family="Arial" font-size="10.00">outEdges</text>
</g>
<!-- n4 -->
<g id="node4" class="node"><title>n4</title>
<polygon fill="deepskyblue" stroke="deepskyblue" points="7.5,-250.5 7.5,-287.5 78.5,-287.5 78.5,-250.5 7.5,-250.5"/>
<polygon fill="none" stroke="black" points="8,-270 8,-287 79,-287 79,-270 8,-270"/>
<text text-anchor="start" x="11.5" y="-276.5" font-family="Arial" font-size="10.00"> </text>
<text text-anchor="start" x="15.5" y="-276.5" font-family="Arial" font-size="10.00"> n4 :NodePO </text>
<polygon fill="none" stroke="black" points="8,-250 8,-270 79,-270 79,-250 8,-250"/>
<text text-anchor="start" x="40" y="-258" font-family="Arial" font-size="10.00"> &#160;</text>
</g>
<!-- e3&#45;&#45;n4 -->
<g id="edge6" class="edge"><title>e3&#45;&#45;n4</title>
<path fill="none" stroke="black" d="M43,-328.14C43,-316.759 43,-302.893 43,-291.557"/>
<text text-anchor="middle" x="47.2262" y="-298.12" font-family="Arial" font-size="10.00">tgt</text>
</g>
<!-- e5 -->
<g id="node5" class="node"><title>e5</title>
<polygon fill="deepskyblue" stroke="deepskyblue" points="7.5,-168.5 7.5,-205.5 78.5,-205.5 78.5,-168.5 7.5,-168.5"/>
<polygon fill="none" stroke="black" points="8,-188 8,-205 79,-205 79,-188 8,-188"/>
<text text-anchor="start" x="11.5" y="-194.5" font-family="Arial" font-size="10.00"> </text>
<text text-anchor="start" x="15.5" y="-194.5" font-family="Arial" font-size="10.00"> e5 :EdgePO </text>
<polygon fill="none" stroke="black" points="8,-168 8,-188 79,-188 79,-168 8,-168"/>
<text text-anchor="start" x="40" y="-176" font-family="Arial" font-size="10.00"> &#160;</text>
</g>
<!-- n4&#45;&#45;e5 -->
<g id="edge8" class="edge"><title>n4&#45;&#45;e5</title>
<path fill="none" stroke="black" d="M43,-246.14C43,-234.759 43,-220.893 43,-209.557"/>
<text text-anchor="middle" x="47.2262" y="-216.12" font-family="Arial" font-size="10.00">outEdges</text>
</g>
<!-- n6 -->
<g id="node6" class="node"><title>n6</title>
<polygon fill="deepskyblue" stroke="deepskyblue" points="16.5,-86.5 16.5,-123.5 75.5,-123.5 75.5,-86.5 16.5,-86.5"/>
<polygon fill="none" stroke="black" points="17,-106 17,-123 76,-123 76,-106 17,-106"/>
<text text-anchor="start" x="20.5" y="-112.5" font-family="Arial" font-size="10.00"> </text>
<text text-anchor="start" x="24.5" y="-112.5" font-family="Arial" font-size="10.00"> n6 :NodePO </text>
<polygon fill="none" stroke="black" points="17,-86 17,-106 76,-106 76,-86 17,-86"/>
<text text-anchor="start" x="43" y="-94" font-family="Arial" font-size="10.00"> &#160;</text>
</g>
<!-- e5&#45;&#45;n6 -->
<g id="edge10" class="edge"><title>e5&#45;&#45;n6</title>
<path fill="none" stroke="black" d="M43.8198,-164.14C44.2465,-152.759 44.7665,-138.893 45.1916,-127.557"/>
<text text-anchor="middle" x="49.0752" y="-134.272" font-family="Arial" font-size="10.00">tgt</text>
</g>
<!-- e7 -->
<g id="node7" class="node"><title>e7</title>
<polygon fill="deepskyblue" stroke="deepskyblue" points="51,-4.5 51,-41.5 109,-41.5 109,-4.5 51,-4.5"/>
<polygon fill="none" stroke="black" points="51,-24 51,-41 109,-41 109,-24 51,-24"/>
<text text-anchor="start" x="54.5" y="-30.5" font-family="Arial" font-size="10.00"> </text>
<text text-anchor="start" x="58.5" y="-30.5" font-family="Arial" font-size="10.00"> e7 :EdgePO </text>
<polygon fill="none" stroke="black" points="51,-4 51,-24 109,-24 109,-4 51,-4"/>
<text text-anchor="start" x="76.5" y="-12" font-family="Arial" font-size="10.00"> &#160;</text>
</g>
<!-- n6&#45;&#45;e7 -->
<g id="edge12" class="edge"><title>n6&#45;&#45;e7</title>
<path fill="none" stroke="black" d="M55.2906,-82.1396C60.1274,-70.759 66.0205,-56.8929 70.8383,-45.5569"/>
<text text-anchor="middle" x="71.1829" y="-53.051" font-family="Arial" font-size="10.00">outEdges</text>
</g>
<!-- e7&#45;&#45;n2 -->
<g id="edge14" class="edge"><title>e7&#45;&#45;n2</title>
<path fill="none" stroke="black" d="M87.7676,-45.6888C98.0789,-76.4689 115,-134.782 115,-186 115,-270 115,-270 115,-270 115,-321.284 97.5955,-379.571 86.9896,-410.33"/>
<text text-anchor="middle" x="85.8658" y="-397.893" font-family="Arial" font-size="10.00">tgt</text>
</g>
<!-- matchIsomorphic -->
<g id="node8" class="node"><title>matchIsomorphic</title>
<text text-anchor="middle" x="182" y="-519.5" font-family="Arial" font-size="10.00">matchIsomorphic</text>
</g>
<!-- allMatches -->
<g id="node9" class="node"><title>allMatches</title>
<text text-anchor="middle" x="278" y="-519.5" font-family="Arial" font-size="10.00">allMatches</text>
</g>
</g>
</svg>
