<?xml version="1.0" encoding="UTF-8" standalone="no"?>
<!DOCTYPE svg PUBLIC "-//W3C//DTD SVG 1.1//EN"
 "http://www.w3.org/Graphics/SVG/1.1/DTD/svg11.dtd">
<!-- Generated by graphviz version 2.28.0 (20110507.0327)
 -->
<!-- Title: ObjectDiagram Pages: 1 -->
<svg width="84pt" height="222pt"
 viewBox="0.00 0.00 84.00 222.00" xmlns="http://www.w3.org/2000/svg" xmlns:xlink="http://www.w3.org/1999/xlink">
<g id="graph1" class="graph" transform="scale(1 1) rotate(0) translate(4 218)">
<title>ObjectDiagram</title>
<polygon fill="white" stroke="white" points="-4,5 -4,-218 81,-218 81,5 -4,5"/>
<!-- g1 -->
<g id="node1" class="node"><title>g1</title>
<polygon fill="deepskyblue" stroke="deepskyblue" points="8,-158.5 8,-209.5 68,-209.5 68,-158.5 8,-158.5"/>
<text text-anchor="start" x="36" y="-199.5" font-family="Times New Roman,serif" font-size="10.00">«bound»</text>
<polygon fill="none" stroke="black" points="8,-178 8,-194 68,-194 68,-178 8,-178"/>
<text text-anchor="start" x="11.5" y="-184" font-family="Times New Roman,serif" font-size="10.00"> </text>
<text text-anchor="start" x="14.5" y="-184" font-family="Times New Roman,serif" font-size="10.00"> g1 :GraphPO </text>
<polygon fill="none" stroke="black" points="8,-158 8,-178 68,-178 68,-158 8,-158"/>
<text text-anchor="start" x="35.5" y="-166" font-family="Times New Roman,serif" font-size="10.00"> &#160;</text>
</g>
<!-- n2 -->
<g id="node2" class="node"><title>n2</title>
<polygon fill="deepskyblue" stroke="deepskyblue" points="9,-76.5 9,-113.5 67,-113.5 67,-76.5 9,-76.5"/>
<polygon fill="none" stroke="black" points="9,-96 9,-113 67,-113 67,-96 9,-96"/>
<text text-anchor="start" x="12.5" y="-102.5" font-family="Times New Roman,serif" font-size="10.00"> </text>
<text text-anchor="start" x="15.5" y="-102.5" font-family="Times New Roman,serif" font-size="10.00"> n2 :NodePO </text>
<polygon fill="none" stroke="black" points="9,-76 9,-96 67,-96 67,-76 9,-76"/>
<text text-anchor="start" x="35.5" y="-84" font-family="Times New Roman,serif" font-size="10.00"> &#160;</text>
</g>
<!-- g1&#45;&#45;n2 -->
<g id="edge4" class="edge"><title>g1&#45;&#45;n2</title>
<path fill="none" stroke="black" d="M38,-154.03C38,-142.167 38,-128.675 38,-117.687"/>
<text text-anchor="middle" x="42.2262" y="-124.25" font-family="Times New Roman,serif" font-size="10.00">nodes</text>
</g>
<!-- allMatches_n2 -->
<g id="node3" class="node"><title>allMatches_n2</title>
<text text-anchor="middle" x="38" y="-15.5" font-family="Times New Roman,serif" font-size="10.00">allMatches</text>
</g>
<!-- n2&#45;&#45;allMatches_n2 -->
<g id="edge2" class="edge"><title>n2&#45;&#45;allMatches_n2</title>
<path fill="none" stroke="black" stroke-dasharray="1,5" d="M38,-72.3069C38,-60.8856 38,-47.0699 38,-36.3655"/>
</g>
</g>
</svg>
