<?xml version="1.0" encoding="UTF-8" standalone="no"?>
<!DOCTYPE svg PUBLIC "-//W3C//DTD SVG 1.1//EN"
 "http://www.w3.org/Graphics/SVG/1.1/DTD/svg11.dtd">
<!-- Generated by graphviz version 2.28.0 (20110507.0327)
 -->
<!-- Title: ObjectDiagram Pages: 1 -->
<svg width="953pt" height="1063pt"
 viewBox="0.00 0.00 952.88 1063.00" xmlns="http://www.w3.org/2000/svg" xmlns:xlink="http://www.w3.org/1999/xlink">
<g id="graph1" class="graph" transform="scale(1 1) rotate(0) translate(4 1059)">
<title>ObjectDiagram</title>
<polygon fill="white" stroke="white" points="-4,5 -4,-1059 949.88,-1059 949.88,5 -4,5"/>
<g id="graph2" class="cluster"><title>cluster_n3</title>
<polygon fill="none" stroke="grey" points="27.8795,-812 27.8795,-905 212.88,-905 212.88,-812 27.8795,-812"/>
<text text-anchor="start" x="100.38" y="-885.8" font-family="Times New Roman,serif" font-size="14.00">NAC n3</text>
</g>
<!-- g1 -->
<g id="node1" class="node"><title>g1</title>
<polygon fill="deepskyblue" stroke="deepskyblue" points="229.38,-999.5 229.38,-1050.5 292.38,-1050.5 292.38,-999.5 229.38,-999.5"/>
<text text-anchor="start" x="258.88" y="-1040.5" font-family="Arial" font-size="10.00">«bound»</text>
<polygon fill="none" stroke="black" points="229.88,-1019 229.88,-1035 292.88,-1035 292.88,-1019 229.88,-1019"/>
<text text-anchor="start" x="233.38" y="-1025" font-family="Arial" font-size="10.00"> </text>
<text text-anchor="start" x="237.38" y="-1025" font-family="Arial" font-size="10.00"> g1 :GraphPO </text>
<polygon fill="none" stroke="black" points="229.88,-999 229.88,-1019 292.88,-1019 292.88,-999 229.88,-999"/>
<text text-anchor="start" x="257.88" y="-1007" font-family="Arial" font-size="10.00"> &#160;</text>
</g>
<!-- e2 -->
<g id="node2" class="node"><title>e2</title>
<polygon fill="deepskyblue" stroke="deepskyblue" points="137.88,-917.5 137.88,-954.5 195.88,-954.5 195.88,-917.5 137.88,-917.5"/>
<polygon fill="none" stroke="black" points="137.88,-937 137.88,-954 195.88,-954 195.88,-937 137.88,-937"/>
<text text-anchor="start" x="141.38" y="-943.5" font-family="Arial" font-size="10.00"> </text>
<text text-anchor="start" x="145.38" y="-943.5" font-family="Arial" font-size="10.00"> e2 :EdgePO </text>
<polygon fill="none" stroke="black" points="137.88,-917 137.88,-937 195.88,-937 195.88,-917 137.88,-917"/>
<text text-anchor="start" x="163.38" y="-925" font-family="Arial" font-size="10.00"> &#160;</text>
</g>
<!-- g1&#45;&#45;e2 -->
<g id="edge13" class="edge"><title>g1&#45;&#45;e2</title>
<path fill="none" stroke="black" d="M229.84,-995.272C216.898,-983.294 202.125,-969.621 190.143,-958.531"/>
<text text-anchor="middle" x="199.665" y="-959.085" font-family="Arial" font-size="10.00">edges</text>
</g>
<!-- g6 -->
<g id="node7" class="node"><title>g6</title>
<a xlink:href="../../SDMLib/src/org/sdmlib/examples/helloworld/Graph.java" xlink:title="&lt;TABLE&gt;">
<polygon fill="none" stroke="black" points="451.88,-834 451.88,-851 505.88,-851 505.88,-834 451.88,-834"/>
<text text-anchor="start" x="455.38" y="-840.5" font-family="Arial" font-size="10.00"> </text>
<text text-anchor="start" x="459.38" y="-840.5" font-family="Arial" font-size="10.00">g6 :Graph</text>
</a>
</g>
<!-- g1&#45;&#45;g6 -->
<g id="edge3" class="edge"><title>g1&#45;&#45;g6</title>
<path fill="none" stroke="black" stroke-dasharray="1,5" d="M295.422,-995.478C341.285,-957.61 420.834,-891.927 458.274,-861.014"/>
<text text-anchor="middle" x="453.976" y="-867.543" font-family="Arial" font-size="10.00">match</text>
</g>
<!-- allMatches_e2 -->
<g id="node3" class="node"><title>allMatches_e2</title>
<text text-anchor="middle" x="254.88" y="-840.5" font-family="Arial" font-size="10.00">allMatches</text>
</g>
<!-- e2&#45;&#45;allMatches_e2 -->
<g id="edge5" class="edge"><title>e2&#45;&#45;allMatches_e2</title>
<path fill="none" stroke="black" stroke-dasharray="1,5" d="M204.121,-915.422C208.67,-912.252 213.054,-908.762 216.88,-905 229.868,-892.227 240.401,-874.183 247.055,-861.034"/>
</g>
<!-- n4 -->
<g id="node5" class="node"><title>n4</title>
<polygon fill="deepskyblue" stroke="deepskyblue" points="137.38,-824.5 137.38,-861.5 196.38,-861.5 196.38,-824.5 137.38,-824.5"/>
<polygon fill="none" stroke="black" points="137.88,-844 137.88,-861 196.88,-861 196.88,-844 137.88,-844"/>
<text text-anchor="start" x="141.38" y="-850.5" font-family="Arial" font-size="10.00"> </text>
<text text-anchor="start" x="145.38" y="-850.5" font-family="Arial" font-size="10.00"> n4 :NodePO </text>
<polygon fill="none" stroke="black" points="137.88,-824 137.88,-844 196.88,-844 196.88,-824 137.88,-824"/>
<text text-anchor="start" x="163.88" y="-832" font-family="Arial" font-size="10.00"> &#160;</text>
</g>
<!-- e2&#45;&#45;n4 -->
<g id="edge15" class="edge"><title>e2&#45;&#45;n4</title>
<path fill="none" stroke="black" d="M166.88,-913.434C166.88,-899.033 166.88,-880.16 166.88,-865.726"/>
<text text-anchor="middle" x="171.106" y="-872.289" font-family="Arial" font-size="10.00">tgt</text>
</g>
<!-- n5 -->
<g id="node6" class="node"><title>n5</title>
<polygon fill="deepskyblue" stroke="deepskyblue" points="44.3795,-824.5 44.3795,-861.5 103.38,-861.5 103.38,-824.5 44.3795,-824.5"/>
<polygon fill="none" stroke="black" points="44.8795,-844 44.8795,-861 103.88,-861 103.88,-844 44.8795,-844"/>
<text text-anchor="start" x="48.3795" y="-850.5" font-family="Arial" font-size="10.00"> </text>
<text text-anchor="start" x="52.3795" y="-850.5" font-family="Arial" font-size="10.00"> n5 :NodePO </text>
<polygon fill="none" stroke="black" points="44.8795,-824 44.8795,-844 103.88,-844 103.88,-824 44.8795,-824"/>
<text text-anchor="start" x="70.8795" y="-832" font-family="Arial" font-size="10.00"> &#160;</text>
</g>
<!-- e2&#45;&#45;n5 -->
<g id="edge17" class="edge"><title>e2&#45;&#45;n5</title>
<path fill="none" stroke="black" d="M130.001,-913.304C126.447,-910.676 123.006,-907.892 119.88,-905 107.318,-893.382 95.7357,-877.984 87.3355,-865.565"/>
<text text-anchor="middle" x="95.9481" y="-868.146" font-family="Arial" font-size="10.00">src</text>
</g>
<!-- e7 -->
<g id="node25" class="node"><title>e7</title>
<a xlink:href="../../SDMLib/src/org/sdmlib/examples/helloworld/Edge.java" xlink:title="&lt;TABLE&gt;">
<polygon fill="none" stroke="black" points="8.87951,-680 8.87951,-697 79.8795,-697 79.8795,-680 8.87951,-680"/>
<text text-anchor="start" x="22.3795" y="-686.5" font-family="Arial" font-size="10.00"> </text>
<text text-anchor="start" x="26.3795" y="-686.5" font-family="Arial" font-size="10.00">e7 :Edge</text>
</a>
<polygon fill="none" stroke="black" points="8.87951,-660 8.87951,-680 79.8795,-680 79.8795,-660 8.87951,-660"/>
<text text-anchor="start" x="13.8795" y="-668" font-family="Arial" font-size="10.00">name = &quot;e17&quot;</text>
</g>
<!-- e2&#45;&#45;e7 -->
<g id="edge7" class="edge"><title>e2&#45;&#45;e7</title>
<path fill="none" stroke="black" stroke-dasharray="1,5" d="M129.828,-932.418C91.9908,-928.918 36.9913,-921.148 23.8795,-905 -24.4483,-845.481 12.701,-745.649 32.959,-701.787"/>
<text text-anchor="middle" x="33.1797" y="-709.285" font-family="Arial" font-size="10.00">match</text>
</g>
<!-- n8 -->
<g id="node23" class="node"><title>n8</title>
<a xlink:href="../../SDMLib/src/org/sdmlib/examples/helloworld/Node.java" xlink:title="&lt;TABLE&gt;">
<polygon fill="none" stroke="black" points="42.8795,-762 42.8795,-779 108.88,-779 108.88,-762 42.8795,-762"/>
<text text-anchor="start" x="53.8795" y="-768.5" font-family="Arial" font-size="10.00"> </text>
<text text-anchor="start" x="57.8795" y="-768.5" font-family="Arial" font-size="10.00">n8 :Node</text>
</a>
<polygon fill="none" stroke="black" points="42.8795,-742 42.8795,-762 108.88,-762 108.88,-742 42.8795,-742"/>
<text text-anchor="start" x="47.8795" y="-750" font-family="Arial" font-size="10.00">name = &quot;n8&quot;</text>
</g>
<!-- n4&#45;&#45;n8 -->
<g id="edge9" class="edge"><title>n4&#45;&#45;n8</title>
<path fill="none" stroke="black" stroke-dasharray="1,5" d="M142.013,-820.14C129.068,-808.759 113.295,-794.893 100.401,-783.557"/>
<text text-anchor="middle" x="109.998" y="-783.867" font-family="Arial" font-size="10.00">match</text>
</g>
<!-- n5&#45;&#45;n8 -->
<g id="edge11" class="edge"><title>n5&#45;&#45;n8</title>
<path fill="none" stroke="black" stroke-dasharray="1,5" d="M74.426,-820.14C74.7105,-808.759 75.0572,-794.893 75.3406,-783.557"/>
<text text-anchor="middle" x="79.3389" y="-790.223" font-family="Arial" font-size="10.00">match</text>
</g>
<!-- n9 -->
<g id="node8" class="node"><title>n9</title>
<a xlink:href="../../SDMLib/src/org/sdmlib/examples/helloworld/Node.java" xlink:title="&lt;TABLE&gt;">
<polygon fill="none" stroke="black" points="300.88,-762 300.88,-779 366.88,-779 366.88,-762 300.88,-762"/>
<text text-anchor="start" x="311.88" y="-768.5" font-family="Arial" font-size="10.00"> </text>
<text text-anchor="start" x="315.88" y="-768.5" font-family="Arial" font-size="10.00">n9 :Node</text>
</a>
<polygon fill="none" stroke="black" points="300.88,-742 300.88,-762 366.88,-762 366.88,-742 300.88,-742"/>
<text text-anchor="start" x="305.88" y="-750" font-family="Arial" font-size="10.00">name = &quot;n1&quot;</text>
</g>
<!-- g6&#45;&#45;n9 -->
<g id="edge19" class="edge"><title>g6&#45;&#45;n9</title>
<path fill="none" stroke="black" d="M447.773,-824.838C425.888,-812.763 396.435,-796.513 372.963,-783.563"/>
<text text-anchor="middle" x="382.94" y="-781.741" font-family="Arial" font-size="10.00">nodes</text>
<text text-anchor="middle" x="437.796" y="-821.66" font-family="Arial" font-size="10.00">graph</text>
</g>
<!-- e10 -->
<g id="node9" class="node"><title>e10</title>
<a xlink:href="../../SDMLib/src/org/sdmlib/examples/helloworld/Edge.java" xlink:title="&lt;TABLE&gt;">
<polygon fill="none" stroke="black" points="333.88,-680 333.88,-697 404.88,-697 404.88,-680 333.88,-680"/>
<text text-anchor="start" x="344.88" y="-686.5" font-family="Arial" font-size="10.00"> </text>
<text text-anchor="start" x="348.88" y="-686.5" font-family="Arial" font-size="10.00">e10 :Edge</text>
</a>
<polygon fill="none" stroke="black" points="333.88,-660 333.88,-680 404.88,-680 404.88,-660 333.88,-660"/>
<text text-anchor="start" x="338.88" y="-668" font-family="Arial" font-size="10.00">name = &quot;e10&quot;</text>
</g>
<!-- g6&#45;&#45;e10 -->
<g id="edge39" class="edge"><title>g6&#45;&#45;e10</title>
<path fill="none" stroke="black" d="M461.638,-824.838C450.955,-813.724 437.328,-798.641 426.88,-784 407.665,-757.075 389.812,-723.181 379.125,-701.547"/>
<text text-anchor="middle" x="386.955" y="-705.267" font-family="Arial" font-size="10.00">edges</text>
<text text-anchor="middle" x="452.326" y="-818.693" font-family="Arial" font-size="10.00">graph</text>
</g>
<!-- n11 -->
<g id="node10" class="node"><title>n11</title>
<a xlink:href="../../SDMLib/src/org/sdmlib/examples/helloworld/Node.java" xlink:title="&lt;TABLE&gt;">
<polygon fill="none" stroke="black" points="376.88,-598 376.88,-615 442.88,-615 442.88,-598 376.88,-598"/>
<text text-anchor="start" x="385.38" y="-604.5" font-family="Arial" font-size="10.00"> </text>
<text text-anchor="start" x="389.38" y="-604.5" font-family="Arial" font-size="10.00">n11 :Node</text>
</a>
<polygon fill="none" stroke="black" points="376.88,-578 376.88,-598 442.88,-598 442.88,-578 376.88,-578"/>
<text text-anchor="start" x="381.88" y="-586" font-family="Arial" font-size="10.00">name = &quot;n2&quot;</text>
</g>
<!-- g6&#45;&#45;n11 -->
<g id="edge21" class="edge"><title>g6&#45;&#45;n11</title>
<path fill="none" stroke="black" d="M474.028,-824.842C461.757,-781.452 429.506,-667.406 415.984,-619.586"/>
<text text-anchor="middle" x="422.517" y="-624.658" font-family="Arial" font-size="10.00">nodes</text>
<text text-anchor="middle" x="467.495" y="-814.771" font-family="Arial" font-size="10.00">graph</text>
</g>
<!-- e12 -->
<g id="node11" class="node"><title>e12</title>
<a xlink:href="../../SDMLib/src/org/sdmlib/examples/helloworld/Edge.java" xlink:title="&lt;TABLE&gt;">
<polygon fill="none" stroke="black" points="409.88,-516 409.88,-533 480.88,-533 480.88,-516 409.88,-516"/>
<text text-anchor="start" x="420.88" y="-522.5" font-family="Arial" font-size="10.00"> </text>
<text text-anchor="start" x="424.88" y="-522.5" font-family="Arial" font-size="10.00">e12 :Edge</text>
</a>
<polygon fill="none" stroke="black" points="409.88,-496 409.88,-516 480.88,-516 480.88,-496 409.88,-496"/>
<text text-anchor="start" x="414.88" y="-504" font-family="Arial" font-size="10.00">name = &quot;e11&quot;</text>
</g>
<!-- g6&#45;&#45;e12 -->
<g id="edge41" class="edge"><title>g6&#45;&#45;e12</title>
<path fill="none" stroke="black" d="M478.745,-824.943C478.177,-782.334 475.22,-667.91 459.88,-574 457.884,-561.785 454.503,-548.394 451.455,-537.559"/>
<text text-anchor="middle" x="457.951" y="-542.661" font-family="Arial" font-size="10.00">edges</text>
<text text-anchor="middle" x="474.366" y="-813.453" font-family="Arial" font-size="10.00">graph</text>
</g>
<!-- n13 -->
<g id="node12" class="node"><title>n13</title>
<a xlink:href="../../SDMLib/src/org/sdmlib/examples/helloworld/Node.java" xlink:title="&lt;TABLE&gt;">
<polygon fill="none" stroke="black" points="431.88,-434 431.88,-451 497.88,-451 497.88,-434 431.88,-434"/>
<text text-anchor="start" x="440.38" y="-440.5" font-family="Arial" font-size="10.00"> </text>
<text text-anchor="start" x="444.38" y="-440.5" font-family="Arial" font-size="10.00">n13 :Node</text>
</a>
<polygon fill="none" stroke="black" points="431.88,-414 431.88,-434 497.88,-434 497.88,-414 431.88,-414"/>
<text text-anchor="start" x="436.88" y="-422" font-family="Arial" font-size="10.00">name = &quot;n3&quot;</text>
</g>
<!-- g6&#45;&#45;n13 -->
<g id="edge23" class="edge"><title>g6&#45;&#45;n13</title>
<path fill="none" stroke="black" d="M485.673,-824.811C496.603,-795.562 516.88,-734.021 516.88,-680 516.88,-680 516.88,-680 516.88,-596 516.88,-548.931 512.89,-536.262 496.88,-492 492.303,-479.347 485.225,-466.145 478.889,-455.538"/>
<text text-anchor="middle" x="487.132" y="-458.699" font-family="Arial" font-size="10.00">nodes</text>
<text text-anchor="middle" x="484.8" y="-812.349" font-family="Arial" font-size="10.00">graph</text>
</g>
<!-- e14 -->
<g id="node13" class="node"><title>e14</title>
<a xlink:href="../../SDMLib/src/org/sdmlib/examples/helloworld/Edge.java" xlink:title="&lt;TABLE&gt;">
<polygon fill="none" stroke="black" points="261.88,-352 261.88,-369 332.88,-369 332.88,-352 261.88,-352"/>
<text text-anchor="start" x="272.88" y="-358.5" font-family="Arial" font-size="10.00"> </text>
<text text-anchor="start" x="276.88" y="-358.5" font-family="Arial" font-size="10.00">e14 :Edge</text>
</a>
<polygon fill="none" stroke="black" points="261.88,-332 261.88,-352 332.88,-352 332.88,-332 261.88,-332"/>
<text text-anchor="start" x="266.88" y="-340" font-family="Arial" font-size="10.00">name = &quot;e12&quot;</text>
</g>
<!-- g6&#45;&#45;e14 -->
<g id="edge43" class="edge"><title>g6&#45;&#45;e14</title>
<path fill="none" stroke="black" d="M443.555,-841.625C399.765,-839.176 325.8,-828.212 283.88,-784 251.17,-749.503 258.88,-727.539 258.88,-680 258.88,-680 258.88,-680 258.88,-514 258.88,-462.579 277.251,-404.345 288.446,-373.632"/>
<text text-anchor="middle" x="289.4" y="-381.086" font-family="Arial" font-size="10.00">edges</text>
<text text-anchor="middle" x="434.21" y="-842.684" font-family="Arial" font-size="10.00">graph</text>
</g>
<!-- e15 -->
<g id="node14" class="node"><title>e15</title>
<a xlink:href="../../SDMLib/src/org/sdmlib/examples/helloworld/Edge.java" xlink:title="&lt;TABLE&gt;">
<polygon fill="none" stroke="black" points="695.88,-352 695.88,-369 766.88,-369 766.88,-352 695.88,-352"/>
<text text-anchor="start" x="706.88" y="-358.5" font-family="Arial" font-size="10.00"> </text>
<text text-anchor="start" x="710.88" y="-358.5" font-family="Arial" font-size="10.00">e15 :Edge</text>
</a>
<polygon fill="none" stroke="black" points="695.88,-332 695.88,-352 766.88,-352 766.88,-332 695.88,-332"/>
<text text-anchor="start" x="700.88" y="-340" font-family="Arial" font-size="10.00">name = &quot;e13&quot;</text>
</g>
<!-- g6&#45;&#45;e15 -->
<g id="edge45" class="edge"><title>g6&#45;&#45;e15</title>
<path fill="none" stroke="black" d="M514.019,-840.808C590.853,-837.449 770.266,-825.272 811.88,-784 845.241,-750.912 830.88,-726.987 830.88,-680 830.88,-680 830.88,-680 830.88,-514 830.88,-456.49 784.682,-402.318 755.087,-373.514"/>
<text text-anchor="middle" x="764.471" y="-374.468" font-family="Arial" font-size="10.00">edges</text>
<text text-anchor="middle" x="522.86" y="-833.635" font-family="Arial" font-size="10.00">graph</text>
</g>
<!-- n16 -->
<g id="node15" class="node"><title>n16</title>
<a xlink:href="../../SDMLib/src/org/sdmlib/examples/helloworld/Node.java" xlink:title="&lt;TABLE&gt;">
<polygon fill="none" stroke="black" points="697.88,-270 697.88,-287 763.88,-287 763.88,-270 697.88,-270"/>
<text text-anchor="start" x="706.38" y="-276.5" font-family="Arial" font-size="10.00"> </text>
<text text-anchor="start" x="710.38" y="-276.5" font-family="Arial" font-size="10.00">n16 :Node</text>
</a>
<polygon fill="none" stroke="black" points="697.88,-250 697.88,-270 763.88,-270 763.88,-250 697.88,-250"/>
<text text-anchor="start" x="702.88" y="-258" font-family="Arial" font-size="10.00">name = &quot;n4&quot;</text>
</g>
<!-- g6&#45;&#45;n16 -->
<g id="edge25" class="edge"><title>g6&#45;&#45;n16</title>
<path fill="none" stroke="black" d="M514.02,-840.855C594.316,-837.538 787.998,-825.347 835.88,-784 872.582,-752.306 868.88,-728.493 868.88,-680 868.88,-680 868.88,-680 868.88,-432 868.88,-369.376 808.382,-318.661 767.499,-291.538"/>
<text text-anchor="middle" x="777.357" y="-290.717" font-family="Arial" font-size="10.00">nodes</text>
<text text-anchor="middle" x="522.875" y="-833.707" font-family="Arial" font-size="10.00">graph</text>
</g>
<!-- e17 -->
<g id="node16" class="node"><title>e17</title>
<a xlink:href="../../SDMLib/src/org/sdmlib/examples/helloworld/Edge.java" xlink:title="&lt;TABLE&gt;">
<polygon fill="none" stroke="black" points="643.88,-188 643.88,-205 714.88,-205 714.88,-188 643.88,-188"/>
<text text-anchor="start" x="654.88" y="-194.5" font-family="Arial" font-size="10.00"> </text>
<text text-anchor="start" x="658.88" y="-194.5" font-family="Arial" font-size="10.00">e17 :Edge</text>
</a>
<polygon fill="none" stroke="black" points="643.88,-168 643.88,-188 714.88,-188 714.88,-168 643.88,-168"/>
<text text-anchor="start" x="648.88" y="-176" font-family="Arial" font-size="10.00">name = &quot;e14&quot;</text>
</g>
<!-- g6&#45;&#45;e17 -->
<g id="edge47" class="edge"><title>g6&#45;&#45;e17</title>
<path fill="none" stroke="black" d="M514.067,-827.374C533.05,-817.74 555.306,-803.315 568.88,-784 596.154,-745.188 592.88,-727.437 592.88,-680 592.88,-680 592.88,-680 592.88,-350 592.88,-294.276 633.067,-239.034 658.499,-209.656"/>
<text text-anchor="middle" x="655.915" y="-216.816" font-family="Arial" font-size="10.00">edges</text>
<text text-anchor="middle" x="520.128" y="-816.92" font-family="Arial" font-size="10.00">graph</text>
</g>
<!-- n18 -->
<g id="node17" class="node"><title>n18</title>
<a xlink:href="../../SDMLib/src/org/sdmlib/examples/helloworld/Node.java" xlink:title="&lt;TABLE&gt;">
<polygon fill="none" stroke="black" points="645.88,-106 645.88,-123 711.88,-123 711.88,-106 645.88,-106"/>
<text text-anchor="start" x="654.38" y="-112.5" font-family="Arial" font-size="10.00"> </text>
<text text-anchor="start" x="658.38" y="-112.5" font-family="Arial" font-size="10.00">n18 :Node</text>
</a>
<polygon fill="none" stroke="black" points="645.88,-86 645.88,-106 711.88,-106 711.88,-86 645.88,-86"/>
<text text-anchor="start" x="650.88" y="-94" font-family="Arial" font-size="10.00">name = &quot;n5&quot;</text>
</g>
<!-- g6&#45;&#45;n18 -->
<g id="edge27" class="edge"><title>g6&#45;&#45;n18</title>
<path fill="none" stroke="black" d="M514.094,-841.072C598.764,-838.169 810.75,-826.713 864.88,-784 904.012,-753.12 906.88,-729.849 906.88,-680 906.88,-680 906.88,-680 906.88,-268 906.88,-177.318 785.547,-132.73 719.905,-115.243"/>
<text text-anchor="middle" x="729.782" y="-111.18" font-family="Arial" font-size="10.00">nodes</text>
<text text-anchor="middle" x="522.982" y="-833.989" font-family="Arial" font-size="10.00">graph</text>
</g>
<!-- e19 -->
<g id="node18" class="node"><title>e19</title>
<a xlink:href="../../SDMLib/src/org/sdmlib/examples/helloworld/Edge.java" xlink:title="&lt;TABLE&gt;">
<polygon fill="none" stroke="black" points="581.88,-24 581.88,-41 652.88,-41 652.88,-24 581.88,-24"/>
<text text-anchor="start" x="592.88" y="-30.5" font-family="Arial" font-size="10.00"> </text>
<text text-anchor="start" x="596.88" y="-30.5" font-family="Arial" font-size="10.00">e19 :Edge</text>
</a>
<polygon fill="none" stroke="black" points="581.88,-4 581.88,-24 652.88,-24 652.88,-4 581.88,-4"/>
<text text-anchor="start" x="586.88" y="-12" font-family="Arial" font-size="10.00">name = &quot;e18&quot;</text>
</g>
<!-- g6&#45;&#45;e19 -->
<g id="edge35" class="edge"><title>g6&#45;&#45;e19</title>
<path fill="none" stroke="black" d="M493.175,-824.791C515.19,-796.481 554.88,-737.472 554.88,-680 554.88,-680 554.88,-680 554.88,-186 554.88,-132.698 584.518,-75.6595 602.811,-45.5323"/>
<text text-anchor="middle" x="601.848" y="-52.9858" font-family="Arial" font-size="10.00">edges</text>
<text text-anchor="middle" x="495.259" y="-812.511" font-family="Arial" font-size="10.00">graph</text>
</g>
<!-- e20 -->
<g id="node19" class="node"><title>e20</title>
<a xlink:href="../../SDMLib/src/org/sdmlib/examples/helloworld/Edge.java" xlink:title="&lt;TABLE&gt;">
<polygon fill="none" stroke="black" points="429.88,-24 429.88,-41 500.88,-41 500.88,-24 429.88,-24"/>
<text text-anchor="start" x="440.88" y="-30.5" font-family="Arial" font-size="10.00"> </text>
<text text-anchor="start" x="444.88" y="-30.5" font-family="Arial" font-size="10.00">e20 :Edge</text>
</a>
<polygon fill="none" stroke="black" points="429.88,-4 429.88,-24 500.88,-24 500.88,-4 429.88,-4"/>
<text text-anchor="start" x="434.88" y="-12" font-family="Arial" font-size="10.00">name = &quot;e15&quot;</text>
</g>
<!-- g6&#45;&#45;e20 -->
<g id="edge49" class="edge"><title>g6&#45;&#45;e20</title>
<path fill="none" stroke="black" d="M443.485,-842.641C394.94,-841.576 307.819,-832.416 255.88,-784 220.206,-750.746 220.88,-728.77 220.88,-680 220.88,-680 220.88,-680 220.88,-186 220.88,-90.7879 351.422,-48.1887 421.538,-32.1751"/>
<text text-anchor="middle" x="413.761" y="-35.9615" font-family="Arial" font-size="10.00">edges</text>
<text text-anchor="middle" x="434.269" y="-844.021" font-family="Arial" font-size="10.00">graph</text>
</g>
<!-- e21 -->
<g id="node20" class="node"><title>e21</title>
<a xlink:href="../../SDMLib/src/org/sdmlib/examples/helloworld/Edge.java" xlink:title="&lt;TABLE&gt;">
<polygon fill="none" stroke="black" points="750.88,-24 750.88,-41 821.88,-41 821.88,-24 750.88,-24"/>
<text text-anchor="start" x="761.88" y="-30.5" font-family="Arial" font-size="10.00"> </text>
<text text-anchor="start" x="765.88" y="-30.5" font-family="Arial" font-size="10.00">e21 :Edge</text>
</a>
<polygon fill="none" stroke="black" points="750.88,-4 750.88,-24 821.88,-24 821.88,-4 750.88,-4"/>
<text text-anchor="start" x="755.88" y="-12" font-family="Arial" font-size="10.00">name = &quot;e19&quot;</text>
</g>
<!-- g6&#45;&#45;e21 -->
<g id="edge37" class="edge"><title>g6&#45;&#45;e21</title>
<path fill="none" stroke="black" d="M514.097,-841.316C603.306,-838.935 835.387,-828.51 895.88,-784 937.035,-753.718 944.88,-731.096 944.88,-680 944.88,-680 944.88,-680 944.88,-186 944.88,-119.794 876.404,-70.716 829.327,-44.7978"/>
<text text-anchor="middle" x="839.289" y="-43.165" font-family="Arial" font-size="10.00">edges</text>
<text text-anchor="middle" x="523.02" y="-834.302" font-family="Arial" font-size="10.00">graph</text>
</g>
<!-- n22 -->
<g id="node21" class="node"><title>n22</title>
<a xlink:href="../../SDMLib/src/org/sdmlib/examples/helloworld/Node.java" xlink:title="&lt;TABLE&gt;">
<polygon fill="none" stroke="black" points="628.88,-762 628.88,-779 694.88,-779 694.88,-762 628.88,-762"/>
<text text-anchor="start" x="637.38" y="-768.5" font-family="Arial" font-size="10.00"> </text>
<text text-anchor="start" x="641.38" y="-768.5" font-family="Arial" font-size="10.00">n22 :Node</text>
</a>
<polygon fill="none" stroke="black" points="628.88,-742 628.88,-762 694.88,-762 694.88,-742 628.88,-742"/>
<text text-anchor="start" x="633.88" y="-750" font-family="Arial" font-size="10.00">name = &quot;n6&quot;</text>
</g>
<!-- g6&#45;&#45;n22 -->
<g id="edge29" class="edge"><title>g6&#45;&#45;n22</title>
<path fill="none" stroke="black" d="M514.164,-826.575C544.596,-813.272 588.572,-794.047 620.625,-780.035"/>
<text text-anchor="middle" x="614.014" y="-785.037" font-family="Arial" font-size="10.00">nodes</text>
<text text-anchor="middle" x="520.775" y="-816.573" font-family="Arial" font-size="10.00">graph</text>
</g>
<!-- n23 -->
<g id="node22" class="node"><title>n23</title>
<a xlink:href="../../SDMLib/src/org/sdmlib/examples/helloworld/Node.java" xlink:title="&lt;TABLE&gt;">
<polygon fill="none" stroke="black" points="728.88,-762 728.88,-779 794.88,-779 794.88,-762 728.88,-762"/>
<text text-anchor="start" x="737.38" y="-768.5" font-family="Arial" font-size="10.00"> </text>
<text text-anchor="start" x="741.38" y="-768.5" font-family="Arial" font-size="10.00">n23 :Node</text>
</a>
<polygon fill="none" stroke="black" points="728.88,-742 728.88,-762 794.88,-762 794.88,-742 728.88,-742"/>
<text text-anchor="start" x="733.88" y="-750" font-family="Arial" font-size="10.00">name = &quot;n7&quot;</text>
</g>
<!-- g6&#45;&#45;n23 -->
<g id="edge31" class="edge"><title>g6&#45;&#45;n23</title>
<path fill="none" stroke="black" d="M514.156,-835.178C560.268,-825.818 643.242,-807.452 711.88,-784 714.751,-783.019 717.686,-781.939 720.624,-780.801"/>
<text text-anchor="middle" x="713.687" y="-785.504" font-family="Arial" font-size="10.00">nodes</text>
<text text-anchor="middle" x="522.177" y="-826.707" font-family="Arial" font-size="10.00">graph</text>
</g>
<!-- g6&#45;&#45;n8 -->
<g id="edge33" class="edge"><title>g6&#45;&#45;n8</title>
<path fill="none" stroke="black" d="M443.848,-836.263C357.046,-822.035 138.437,-786.115 130.88,-784 126.324,-782.725 121.629,-781.198 116.993,-779.551"/>
<text text-anchor="middle" x="126.946" y="-776.076" font-family="Arial" font-size="10.00">nodes</text>
<text text-anchor="middle" x="434.22" y="-836.467" font-family="Arial" font-size="10.00">graph</text>
</g>
<!-- e24 -->
<g id="node24" class="node"><title>e24</title>
<a xlink:href="../../SDMLib/src/org/sdmlib/examples/helloworld/Edge.java" xlink:title="&lt;TABLE&gt;">
<polygon fill="none" stroke="black" points="113.88,-680 113.88,-697 184.88,-697 184.88,-680 113.88,-680"/>
<text text-anchor="start" x="124.88" y="-686.5" font-family="Arial" font-size="10.00"> </text>
<text text-anchor="start" x="128.88" y="-686.5" font-family="Arial" font-size="10.00">e24 :Edge</text>
</a>
<polygon fill="none" stroke="black" points="113.88,-660 113.88,-680 184.88,-680 184.88,-660 113.88,-660"/>
<text text-anchor="start" x="118.88" y="-668" font-family="Arial" font-size="10.00">name = &quot;e16&quot;</text>
</g>
<!-- g6&#45;&#45;e24 -->
<g id="edge51" class="edge"><title>g6&#45;&#45;e24</title>
<path fill="none" stroke="black" d="M443.666,-836.162C374.481,-824.451 225.863,-798.019 206.88,-784 179.107,-763.491 162.887,-725.482 154.965,-701.533"/>
<text text-anchor="middle" x="161.929" y="-706.21" font-family="Arial" font-size="10.00">edges</text>
<text text-anchor="middle" x="434.02" y="-836.297" font-family="Arial" font-size="10.00">graph</text>
</g>
<!-- g6&#45;&#45;e7 -->
<g id="edge53" class="edge"><title>g6&#45;&#45;e7</title>
<path fill="none" stroke="black" d="M443.652,-836.048C364.784,-822.638 179.939,-790.708 167.88,-784 143.686,-770.543 146.634,-756.322 125.88,-738 110.977,-724.844 93.0862,-711.904 77.8237,-701.596"/>
<text text-anchor="middle" x="87.6933" y="-700.705" font-family="Arial" font-size="10.00">edges</text>
<text text-anchor="middle" x="434.007" y="-836.188" font-family="Arial" font-size="10.00">graph</text>
</g>
<!-- n9&#45;&#45;e10 -->
<g id="edge55" class="edge"><title>n9&#45;&#45;e10</title>
<path fill="none" stroke="black" d="M343.443,-738.14C348.422,-726.759 354.489,-712.893 359.448,-701.557"/>
<text text-anchor="middle" x="359.688" y="-709.054" font-family="Arial" font-size="10.00">outEdges</text>
<text text-anchor="middle" x="343.204" y="-725.643" font-family="Arial" font-size="10.00">src</text>
</g>
<!-- n9&#45;&#45;e14 -->
<g id="edge57" class="edge"><title>n9&#45;&#45;e14</title>
<path fill="none" stroke="black" d="M325.668,-738.349C314.768,-707.613 296.88,-649.352 296.88,-598 296.88,-598 296.88,-598 296.88,-514 296.88,-463.797 296.88,-404.843 296.88,-373.749"/>
<text text-anchor="middle" x="301.106" y="-380.312" font-family="Arial" font-size="10.00">inEdges</text>
<text text-anchor="middle" x="318.717" y="-728.66" font-family="Arial" font-size="10.00">tgt</text>
</g>
<!-- e10&#45;&#45;n11 -->
<g id="edge59" class="edge"><title>e10&#45;&#45;n11</title>
<path fill="none" stroke="black" d="M380.083,-656.14C385.916,-644.759 393.022,-630.893 398.832,-619.557"/>
<text text-anchor="middle" x="398.459" y="-627.05" font-family="Arial" font-size="10.00">tgt</text>
<text text-anchor="middle" x="380.456" y="-643.647" font-family="Arial" font-size="10.00">inEdges</text>
</g>
<!-- n11&#45;&#45;e12 -->
<g id="edge61" class="edge"><title>n11&#45;&#45;e12</title>
<path fill="none" stroke="black" d="M419.443,-574.14C424.422,-562.759 430.489,-548.893 435.448,-537.557"/>
<text text-anchor="middle" x="435.688" y="-545.054" font-family="Arial" font-size="10.00">outEdges</text>
<text text-anchor="middle" x="419.204" y="-561.643" font-family="Arial" font-size="10.00">src</text>
</g>
<!-- e12&#45;&#45;n13 -->
<g id="edge63" class="edge"><title>e12&#45;&#45;n13</title>
<path fill="none" stroke="black" d="M450.345,-492.14C453.19,-480.759 456.656,-466.893 459.49,-455.557"/>
<text text-anchor="middle" x="461.392" y="-462.874" font-family="Arial" font-size="10.00">tgt</text>
<text text-anchor="middle" x="448.443" y="-479.822" font-family="Arial" font-size="10.00">inEdges</text>
</g>
<!-- n13&#45;&#45;e14 -->
<g id="edge65" class="edge"><title>n13&#45;&#45;e14</title>
<path fill="none" stroke="black" d="M423.782,-412.43C398.428,-400.357 365.946,-384.889 340.192,-372.625"/>
<text text-anchor="middle" x="350.192" y="-370.206" font-family="Arial" font-size="10.00">outEdges</text>
<text text-anchor="middle" x="413.782" y="-409.849" font-family="Arial" font-size="10.00">src</text>
</g>
<!-- n13&#45;&#45;e15 -->
<g id="edge67" class="edge"><title>n13&#45;&#45;e15</title>
<path fill="none" stroke="black" d="M506.15,-419.588C555.327,-404.798 637.127,-380.196 687.3,-365.107"/>
<text text-anchor="middle" x="679.838" y="-369.264" font-family="Arial" font-size="10.00">outEdges</text>
<text text-anchor="middle" x="513.612" y="-410.43" font-family="Arial" font-size="10.00">src</text>
</g>
<!-- n13&#45;&#45;e20 -->
<g id="edge69" class="edge"><title>n13&#45;&#45;e20</title>
<path fill="none" stroke="black" d="M464.88,-410.251C464.88,-379.157 464.88,-320.203 464.88,-270 464.88,-270 464.88,-270 464.88,-186 464.88,-135.797 464.88,-76.8425 464.88,-45.7485"/>
<text text-anchor="middle" x="469.106" y="-52.3116" font-family="Arial" font-size="10.00">inEdges</text>
<text text-anchor="middle" x="460.653" y="-398.688" font-family="Arial" font-size="10.00">tgt</text>
</g>
<!-- e15&#45;&#45;n16 -->
<g id="edge71" class="edge"><title>e15&#45;&#45;n16</title>
<path fill="none" stroke="black" d="M730.88,-328.14C730.88,-316.759 730.88,-302.893 730.88,-291.557"/>
<text text-anchor="middle" x="735.106" y="-298.12" font-family="Arial" font-size="10.00">tgt</text>
<text text-anchor="middle" x="726.653" y="-316.577" font-family="Arial" font-size="10.00">inEdges</text>
</g>
<!-- n16&#45;&#45;e17 -->
<g id="edge73" class="edge"><title>n16&#45;&#45;e17</title>
<path fill="none" stroke="black" d="M716.67,-246.14C709.273,-234.759 700.26,-220.893 692.892,-209.557"/>
<text text-anchor="middle" x="701.374" y="-212.353" font-family="Arial" font-size="10.00">outEdges</text>
<text text-anchor="middle" x="708.188" y="-238.344" font-family="Arial" font-size="10.00">src</text>
</g>
<!-- e17&#45;&#45;n18 -->
<g id="edge75" class="edge"><title>e17&#45;&#45;n18</title>
<path fill="none" stroke="black" d="M678.88,-164.14C678.88,-152.759 678.88,-138.893 678.88,-127.557"/>
<text text-anchor="middle" x="683.106" y="-134.12" font-family="Arial" font-size="10.00">tgt</text>
<text text-anchor="middle" x="674.653" y="-152.577" font-family="Arial" font-size="10.00">inEdges</text>
</g>
<!-- n18&#45;&#45;e19 -->
<g id="edge77" class="edge"><title>n18&#45;&#45;e19</title>
<path fill="none" stroke="black" d="M661.938,-82.1396C653.118,-70.759 642.372,-56.8929 633.586,-45.5569"/>
<text text-anchor="middle" x="642.478" y="-47.6317" font-family="Arial" font-size="10.00">outEdges</text>
<text text-anchor="middle" x="653.046" y="-75.0649" font-family="Arial" font-size="10.00">src</text>
</g>
<!-- n18&#45;&#45;e20 -->
<g id="edge79" class="edge"><title>n18&#45;&#45;e20</title>
<path fill="none" stroke="black" d="M637.871,-88.6699C600.734,-74.7867 546.196,-54.3986 508.322,-40.24"/>
<text text-anchor="middle" x="518.291" y="-36.955" font-family="Arial" font-size="10.00">outEdges</text>
<text text-anchor="middle" x="627.902" y="-86.9549" font-family="Arial" font-size="10.00">src</text>
</g>
<!-- n18&#45;&#45;e21 -->
<g id="edge81" class="edge"><title>n18&#45;&#45;e21</title>
<path fill="none" stroke="black" d="M707.835,-82.3508C723.061,-70.9674 741.672,-57.0524 756.901,-45.6665"/>
<text text-anchor="middle" x="752.173" y="-51.9782" font-family="Arial" font-size="10.00">inEdges</text>
<text text-anchor="middle" x="712.563" y="-71.0391" font-family="Arial" font-size="10.00">tgt</text>
</g>
<!-- n8&#45;&#45;e24 -->
<g id="edge83" class="edge"><title>n8&#45;&#45;e24</title>
<path fill="none" stroke="black" d="M95.8271,-738.14C106.212,-726.759 118.865,-712.893 129.209,-701.557"/>
<text text-anchor="middle" x="126.222" y="-708.6" font-family="Arial" font-size="10.00">outEdges_inEdges</text>
<text text-anchor="middle" x="98.8142" y="-726.096" font-family="Arial" font-size="10.00">src_tgt</text>
</g>
<!-- n8&#45;&#45;e7 -->
<g id="edge85" class="edge"><title>n8&#45;&#45;e7</title>
<path fill="none" stroke="black" d="M67.1354,-738.14C62.5831,-726.759 57.0367,-712.893 52.5023,-701.557"/>
<text text-anchor="middle" x="59.7921" y="-705.902" font-family="Arial" font-size="10.00">outEdges_inEdges</text>
<text text-anchor="middle" x="59.8455" y="-728.794" font-family="Arial" font-size="10.00">src_tgt</text>
</g>
</g>
</svg>
