<?xml version="1.0" encoding="UTF-8" standalone="no"?>
<!DOCTYPE svg PUBLIC "-//W3C//DTD SVG 1.1//EN"
 "http://www.w3.org/Graphics/SVG/1.1/DTD/svg11.dtd">
<!-- Generated by graphviz version 2.26.3 (20100126.1600)
 -->
<!-- Title: ObjectDiagram Pages: 1 -->
<svg width="984pt" height="1052pt"
 viewBox="0.00 0.00 984.00 1052.00" xmlns="http://www.w3.org/2000/svg" xmlns:xlink="http://www.w3.org/1999/xlink">
<g id="graph1" class="graph" transform="scale(1 1) rotate(0) translate(4 1048)">
<title>ObjectDiagram</title>
<polygon fill="white" stroke="white" points="-4,5 -4,-1048 981,-1048 981,5 -4,5"/>
<!-- g1 -->
<g id="node1" class="node"><title>g1</title>
<polygon fill="deepskyblue" stroke="deepskyblue" points="168,-988.5 168,-1039.5 246,-1039.5 246,-988.5 168,-988.5"/>
<text text-anchor="start" x="201" y="-1029.17" font-family="Times Roman,serif" font-size="10.00">«bound»</text>
<polygon fill="none" stroke="black" points="168,-1008 168,-1024 246,-1024 246,-1008 168,-1008"/>
<text text-anchor="start" x="171.5" y="-1013.67" font-family="Times Roman,serif" font-size="10.00"> </text>
<text text-anchor="start" x="175.5" y="-1013.67" font-family="Times Roman,serif" font-size="10.00"> g1 :GraphPO </text>
<polygon fill="none" stroke="black" points="168,-988 168,-1008 246,-1008 246,-988 168,-988"/>
<text text-anchor="start" x="203.5" y="-995.667" font-family="Times Roman,serif" font-size="10.00"> &#160;</text>
</g>
<!-- e2 -->
<g id="node2" class="node"><title>e2</title>
<polygon fill="deepskyblue" stroke="deepskyblue" points="50.5,-906.5 50.5,-943.5 123.5,-943.5 123.5,-906.5 50.5,-906.5"/>
<polygon fill="none" stroke="black" points="51,-926 51,-943 124,-943 124,-926 51,-926"/>
<text text-anchor="start" x="54.5" y="-932.167" font-family="Times Roman,serif" font-size="10.00"> </text>
<text text-anchor="start" x="58.5" y="-932.167" font-family="Times Roman,serif" font-size="10.00"> e2 :EdgePO </text>
<polygon fill="none" stroke="black" points="51,-906 51,-926 124,-926 124,-906 51,-906"/>
<text text-anchor="start" x="84" y="-913.667" font-family="Times Roman,serif" font-size="10.00"> &#160;</text>
</g>
<!-- g1&#45;&#45;e2 -->
<g id="edge10" class="edge"><title>g1&#45;&#45;e2</title>
<path fill="none" stroke="black" d="M167.042,-984.364C150.951,-972.431 132.688,-958.885 117.674,-947.75"/>
<text text-anchor="middle" x="127.471" y="-946.754" font-family="Times Roman,serif" font-size="10.00">edges</text>
</g>
<!-- g4 -->
<g id="node5" class="node"><title>g4</title>
<polygon fill="none" stroke="black" points="469,-834 469,-851 528,-851 528,-834 469,-834"/>
<text text-anchor="start" x="472.5" y="-840.167" font-family="Times Roman,serif" font-size="10.00"> </text>
<text text-anchor="start" x="476.5" y="-840.167" font-family="Times Roman,serif" font-size="10.00">g4 :Graph</text>
</g>
<!-- g1&#45;&#45;g4 -->
<g id="edge2" class="edge"><title>g1&#45;&#45;g4</title>
<path fill="none" stroke="black" stroke-dasharray="1,5" d="M254.078,-986.336C314.078,-951.078 416.114,-891.119 467.094,-861.161"/>
<text text-anchor="middle" x="461.421" y="-866.396" font-family="Times Roman,serif" font-size="10.00">match</text>
</g>
<!-- allMatches_e2 -->
<g id="node3" class="node"><title>allMatches_e2</title>
<text text-anchor="middle" x="184" y="-840" font-family="Times Roman,serif" font-size="10.00">allMatches</text>
</g>
<!-- e2&#45;&#45;allMatches_e2 -->
<g id="edge4" class="edge"><title>e2&#45;&#45;allMatches_e2</title>
<path fill="none" stroke="black" stroke-dasharray="1,5" d="M113.762,-902.376C129.128,-889.387 148.163,-873.295 162.539,-861.142"/>
</g>
<!-- n3 -->
<g id="node4" class="node"><title>n3</title>
<polygon fill="deepskyblue" stroke="deepskyblue" points="49.5,-824.5 49.5,-861.5 124.5,-861.5 124.5,-824.5 49.5,-824.5"/>
<polygon fill="none" stroke="black" points="50,-844 50,-861 125,-861 125,-844 50,-844"/>
<text text-anchor="start" x="53.5" y="-850.167" font-family="Times Roman,serif" font-size="10.00"> </text>
<text text-anchor="start" x="57.5" y="-850.167" font-family="Times Roman,serif" font-size="10.00"> n3 :NodePO </text>
<polygon fill="none" stroke="black" points="50,-824 50,-844 125,-844 125,-824 50,-824"/>
<text text-anchor="start" x="84" y="-831.667" font-family="Times Roman,serif" font-size="10.00"> &#160;</text>
</g>
<!-- e2&#45;&#45;n3 -->
<g id="edge12" class="edge"><title>e2&#45;&#45;n3</title>
<path fill="none" stroke="black" d="M80.8766,-902.158C80.0381,-890.785 80.0411,-877.076 80.8857,-865.719"/>
<text text-anchor="middle" x="84.5087" y="-872.04" font-family="Times Roman,serif" font-size="10.00">src</text>
</g>
<!-- e2&#45;&#45;n3 -->
<g id="edge14" class="edge"><title>e2&#45;&#45;n3</title>
<path fill="none" stroke="black" d="M93.1234,-902.158C93.9619,-890.785 93.9589,-877.076 93.1143,-865.719"/>
<text text-anchor="middle" x="97.9254" y="-871.486" font-family="Times Roman,serif" font-size="10.00">tgt</text>
</g>
<!-- e5 -->
<g id="node23" class="node"><title>e5</title>
<polygon fill="none" stroke="black" points="8,-680 8,-697 87,-697 87,-680 8,-680"/>
<text text-anchor="start" x="24" y="-686.167" font-family="Times Roman,serif" font-size="10.00"> </text>
<text text-anchor="start" x="28" y="-686.167" font-family="Times Roman,serif" font-size="10.00">e5 :Edge</text>
<polygon fill="none" stroke="black" points="8,-660 8,-680 87,-680 87,-660 8,-660"/>
<text text-anchor="start" x="13.5" y="-667.667" font-family="Times Roman,serif" font-size="10.00">name = &quot;e17&quot;</text>
</g>
<!-- e2&#45;&#45;e5 -->
<g id="edge6" class="edge"><title>e2&#45;&#45;e5</title>
<path fill="none" stroke="black" stroke-dasharray="1,5" d="M58.8836,-902.38C48.6974,-892.428 38.3809,-879.849 33,-866 11.2462,-810.012 28.1202,-737.595 39.2429,-701.511"/>
<text text-anchor="middle" x="40.7585" y="-708.395" font-family="Times Roman,serif" font-size="10.00">match</text>
</g>
<!-- n6 -->
<g id="node21" class="node"><title>n6</title>
<polygon fill="none" stroke="black" points="50,-762 50,-779 123,-779 123,-762 50,-762"/>
<text text-anchor="start" x="62.5" y="-768.167" font-family="Times Roman,serif" font-size="10.00"> </text>
<text text-anchor="start" x="66.5" y="-768.167" font-family="Times Roman,serif" font-size="10.00">n6 :Node</text>
<polygon fill="none" stroke="black" points="50,-742 50,-762 123,-762 123,-742 50,-742"/>
<text text-anchor="start" x="55.5" y="-749.667" font-family="Times Roman,serif" font-size="10.00">name = &quot;n8&quot;</text>
</g>
<!-- n3&#45;&#45;n6 -->
<g id="edge8" class="edge"><title>n3&#45;&#45;n6</title>
<path fill="none" stroke="black" stroke-dasharray="1,5" d="M86.7214,-820.158C86.5827,-808.785 86.4156,-795.076 86.2771,-783.719"/>
<text text-anchor="middle" x="90.6134" y="-789.73" font-family="Times Roman,serif" font-size="10.00">match</text>
</g>
<!-- n7 -->
<g id="node6" class="node"><title>n7</title>
<polygon fill="none" stroke="black" points="314,-762 314,-779 387,-779 387,-762 314,-762"/>
<text text-anchor="start" x="326.5" y="-768.167" font-family="Times Roman,serif" font-size="10.00"> </text>
<text text-anchor="start" x="330.5" y="-768.167" font-family="Times Roman,serif" font-size="10.00">n7 :Node</text>
<polygon fill="none" stroke="black" points="314,-742 314,-762 387,-762 387,-742 314,-742"/>
<text text-anchor="start" x="319.5" y="-749.667" font-family="Times Roman,serif" font-size="10.00">name = &quot;n1&quot;</text>
</g>
<!-- g4&#45;&#45;n7 -->
<g id="edge16" class="edge"><title>g4&#45;&#45;n7</title>
<path fill="none" stroke="black" d="M465.154,-824.802C443.183,-812.628 414.114,-796.523 390.68,-783.539"/>
<text text-anchor="middle" x="400.656" y="-781.235" font-family="Times Roman,serif" font-size="10.00">nodes</text>
<text text-anchor="middle" x="455.178" y="-821.106" font-family="Times Roman,serif" font-size="10.00">graph</text>
</g>
<!-- e8 -->
<g id="node7" class="node"><title>e8</title>
<polygon fill="none" stroke="black" points="346,-680 346,-697 425,-697 425,-680 346,-680"/>
<text text-anchor="start" x="362" y="-686.167" font-family="Times Roman,serif" font-size="10.00"> </text>
<text text-anchor="start" x="366" y="-686.167" font-family="Times Roman,serif" font-size="10.00">e8 :Edge</text>
<polygon fill="none" stroke="black" points="346,-660 346,-680 425,-680 425,-660 346,-660"/>
<text text-anchor="start" x="351.5" y="-667.667" font-family="Times Roman,serif" font-size="10.00">name = &quot;e10&quot;</text>
</g>
<!-- g4&#45;&#45;e8 -->
<g id="edge36" class="edge"><title>g4&#45;&#45;e8</title>
<path fill="none" stroke="black" d="M480.393,-824.917C469.827,-813.621 456.456,-798.512 446,-784 426.651,-757.146 408.092,-723.738 396.631,-701.915"/>
<text text-anchor="middle" x="404.61" y="-704.943" font-family="Times Roman,serif" font-size="10.00">edges</text>
<text text-anchor="middle" x="471.129" y="-818.15" font-family="Times Roman,serif" font-size="10.00">graph</text>
</g>
<!-- n9 -->
<g id="node8" class="node"><title>n9</title>
<polygon fill="none" stroke="black" points="390,-598 390,-615 463,-615 463,-598 390,-598"/>
<text text-anchor="start" x="402.5" y="-604.167" font-family="Times Roman,serif" font-size="10.00"> </text>
<text text-anchor="start" x="406.5" y="-604.167" font-family="Times Roman,serif" font-size="10.00">n9 :Node</text>
<polygon fill="none" stroke="black" points="390,-578 390,-598 463,-598 463,-578 390,-578"/>
<text text-anchor="start" x="395.5" y="-585.667" font-family="Times Roman,serif" font-size="10.00">name = &quot;n2&quot;</text>
</g>
<!-- g4&#45;&#45;n9 -->
<g id="edge18" class="edge"><title>g4&#45;&#45;n9</title>
<path fill="none" stroke="black" d="M492.706,-824.911C479.813,-780.861 446.808,-668.096 432.633,-619.662"/>
<text text-anchor="middle" x="439.235" y="-624.173" font-family="Times Roman,serif" font-size="10.00">nodes</text>
<text text-anchor="middle" x="486.104" y="-814.4" font-family="Times Roman,serif" font-size="10.00">graph</text>
</g>
<!-- e10 -->
<g id="node9" class="node"><title>e10</title>
<polygon fill="none" stroke="black" points="422,-516 422,-533 501,-533 501,-516 422,-516"/>
<text text-anchor="start" x="435" y="-522.167" font-family="Times Roman,serif" font-size="10.00"> </text>
<text text-anchor="start" x="439" y="-522.167" font-family="Times Roman,serif" font-size="10.00">e10 :Edge</text>
<polygon fill="none" stroke="black" points="422,-496 422,-516 501,-516 501,-496 422,-496"/>
<text text-anchor="start" x="427.5" y="-503.667" font-family="Times Roman,serif" font-size="10.00">name = &quot;e11&quot;</text>
</g>
<!-- g4&#45;&#45;e10 -->
<g id="edge38" class="edge"><title>g4&#45;&#45;e10</title>
<path fill="none" stroke="black" d="M498.122,-824.879C498.112,-781.277 496.282,-667.217 479,-574 476.735,-561.786 472.827,-548.526 469.23,-537.677"/>
<text text-anchor="middle" x="476.063" y="-541.978" font-family="Times Roman,serif" font-size="10.00">edges</text>
<text text-anchor="middle" x="493.853" y="-812.836" font-family="Times Roman,serif" font-size="10.00">graph</text>
</g>
<!-- n11 -->
<g id="node10" class="node"><title>n11</title>
<polygon fill="none" stroke="black" points="445,-434 445,-451 518,-451 518,-434 445,-434"/>
<text text-anchor="start" x="454.5" y="-440.167" font-family="Times Roman,serif" font-size="10.00"> </text>
<text text-anchor="start" x="458.5" y="-440.167" font-family="Times Roman,serif" font-size="10.00">n11 :Node</text>
<polygon fill="none" stroke="black" points="445,-414 445,-434 518,-434 518,-414 445,-414"/>
<text text-anchor="start" x="450.5" y="-421.667" font-family="Times Roman,serif" font-size="10.00">name = &quot;n3&quot;</text>
</g>
<!-- g4&#45;&#45;n11 -->
<g id="edge20" class="edge"><title>g4&#45;&#45;n11</title>
<path fill="none" stroke="black" d="M505.148,-824.63C516.155,-794.638 536,-733.069 536,-679 536,-679 536,-679 536,-597 536,-549.575 533.859,-536.327 517,-492 512.137,-479.214 504.466,-466.116 497.453,-455.519"/>
<text text-anchor="middle" x="505.943" y="-457.802" font-family="Times Roman,serif" font-size="10.00">nodes</text>
<text text-anchor="middle" x="504.217" y="-811.673" font-family="Times Roman,serif" font-size="10.00">graph</text>
</g>
<!-- e12 -->
<g id="node11" class="node"><title>e12</title>
<polygon fill="none" stroke="black" points="271,-352 271,-369 350,-369 350,-352 271,-352"/>
<text text-anchor="start" x="284" y="-358.167" font-family="Times Roman,serif" font-size="10.00"> </text>
<text text-anchor="start" x="288" y="-358.167" font-family="Times Roman,serif" font-size="10.00">e12 :Edge</text>
<polygon fill="none" stroke="black" points="271,-332 271,-352 350,-352 350,-332 271,-332"/>
<text text-anchor="start" x="276.5" y="-339.667" font-family="Times Roman,serif" font-size="10.00">name = &quot;e12&quot;</text>
</g>
<!-- g4&#45;&#45;e12 -->
<g id="edge40" class="edge"><title>g4&#45;&#45;e12</title>
<path fill="none" stroke="black" d="M460.901,-836.684C409.252,-827.153 319.475,-807.67 297,-784 263.969,-749.213 272,-726.971 272,-679 272,-679 272,-679 272,-515 272,-463.415 290.063,-405.004 301.282,-373.7"/>
<text text-anchor="middle" x="302.289" y="-380.65" font-family="Times Roman,serif" font-size="10.00">edges</text>
<text text-anchor="middle" x="451.207" y="-836.138" font-family="Times Roman,serif" font-size="10.00">graph</text>
</g>
<!-- e13 -->
<g id="node12" class="node"><title>e13</title>
<polygon fill="none" stroke="black" points="755,-352 755,-369 834,-369 834,-352 755,-352"/>
<text text-anchor="start" x="768" y="-358.167" font-family="Times Roman,serif" font-size="10.00"> </text>
<text text-anchor="start" x="772" y="-358.167" font-family="Times Roman,serif" font-size="10.00">e13 :Edge</text>
<polygon fill="none" stroke="black" points="755,-332 755,-352 834,-352 834,-332 755,-332"/>
<text text-anchor="start" x="760.5" y="-339.667" font-family="Times Roman,serif" font-size="10.00">name = &quot;e13&quot;</text>
</g>
<!-- g4&#45;&#45;e13 -->
<g id="edge42" class="edge"><title>g4&#45;&#45;e13</title>
<path fill="none" stroke="black" d="M535.004,-841.868C614.935,-838.628 799.988,-826.6 843,-784 876.695,-750.628 862,-726.425 862,-679 862,-679 862,-679 862,-515 862,-461.06 830.224,-404.229 810.115,-373.666"/>
<text text-anchor="middle" x="818.554" y="-376.03" font-family="Times Roman,serif" font-size="10.00">edges</text>
<text text-anchor="middle" x="543.86" y="-834.223" font-family="Times Roman,serif" font-size="10.00">graph</text>
</g>
<!-- n14 -->
<g id="node13" class="node"><title>n14</title>
<polygon fill="none" stroke="black" points="758,-270 758,-287 831,-287 831,-270 758,-270"/>
<text text-anchor="start" x="767.5" y="-276.167" font-family="Times Roman,serif" font-size="10.00"> </text>
<text text-anchor="start" x="771.5" y="-276.167" font-family="Times Roman,serif" font-size="10.00">n14 :Node</text>
<polygon fill="none" stroke="black" points="758,-250 758,-270 831,-270 831,-250 758,-250"/>
<text text-anchor="start" x="763.5" y="-257.667" font-family="Times Roman,serif" font-size="10.00">name = &quot;n4&quot;</text>
</g>
<!-- g4&#45;&#45;n14 -->
<g id="edge22" class="edge"><title>g4&#45;&#45;n14</title>
<path fill="none" stroke="black" d="M535.071,-841.946C618.724,-838.821 818.704,-826.936 868,-784 904.788,-751.958 900,-727.786 900,-679 900,-679 900,-679 900,-433 900,-374.689 852.15,-320.701 820.748,-291.55"/>
<text text-anchor="middle" x="830.211" y="-291.785" font-family="Times Roman,serif" font-size="10.00">nodes</text>
<text text-anchor="middle" x="543.943" y="-834.333" font-family="Times Roman,serif" font-size="10.00">graph</text>
</g>
<!-- e15 -->
<g id="node14" class="node"><title>e15</title>
<polygon fill="none" stroke="black" points="667,-188 667,-205 746,-205 746,-188 667,-188"/>
<text text-anchor="start" x="680" y="-194.167" font-family="Times Roman,serif" font-size="10.00"> </text>
<text text-anchor="start" x="684" y="-194.167" font-family="Times Roman,serif" font-size="10.00">e15 :Edge</text>
<polygon fill="none" stroke="black" points="667,-168 667,-188 746,-188 746,-168 667,-168"/>
<text text-anchor="start" x="672.5" y="-175.667" font-family="Times Roman,serif" font-size="10.00">name = &quot;e14&quot;</text>
</g>
<!-- g4&#45;&#45;e15 -->
<g id="edge44" class="edge"><title>g4&#45;&#45;e15</title>
<path fill="none" stroke="black" d="M535.012,-827.05C553.591,-817.224 574.88,-802.867 588,-784 615.33,-744.698 612,-726.87 612,-679 612,-679 612,-679 612,-351 612,-294.226 654.928,-239.29 682.764,-209.635"/>
<text text-anchor="middle" x="679.8" y="-216.186" font-family="Times Roman,serif" font-size="10.00">edges</text>
<text text-anchor="middle" x="540.939" y="-815.996" font-family="Times Roman,serif" font-size="10.00">graph</text>
</g>
<!-- n16 -->
<g id="node15" class="node"><title>n16</title>
<polygon fill="none" stroke="black" points="670,-106 670,-123 743,-123 743,-106 670,-106"/>
<text text-anchor="start" x="679.5" y="-112.167" font-family="Times Roman,serif" font-size="10.00"> </text>
<text text-anchor="start" x="683.5" y="-112.167" font-family="Times Roman,serif" font-size="10.00">n16 :Node</text>
<polygon fill="none" stroke="black" points="670,-86 670,-106 743,-106 743,-86 670,-86"/>
<text text-anchor="start" x="675.5" y="-93.6667" font-family="Times Roman,serif" font-size="10.00">name = &quot;n5&quot;</text>
</g>
<!-- g4&#45;&#45;n16 -->
<g id="edge24" class="edge"><title>g4&#45;&#45;n16</title>
<path fill="none" stroke="black" d="M535.285,-842.102C623.24,-839.272 840.44,-827.903 896,-784 935.436,-752.838 938,-729.262 938,-679 938,-679 938,-679 938,-269 938,-177.995 817.496,-132.982 750.184,-114.936"/>
<text text-anchor="middle" x="760.063" y="-110.39" font-family="Times Roman,serif" font-size="10.00">nodes</text>
<text text-anchor="middle" x="544.183" y="-834.538" font-family="Times Roman,serif" font-size="10.00">graph</text>
</g>
<!-- e17 -->
<g id="node16" class="node"><title>e17</title>
<polygon fill="none" stroke="black" points="598,-24 598,-41 677,-41 677,-24 598,-24"/>
<text text-anchor="start" x="611" y="-30.1667" font-family="Times Roman,serif" font-size="10.00"> </text>
<text text-anchor="start" x="615" y="-30.1667" font-family="Times Roman,serif" font-size="10.00">e17 :Edge</text>
<polygon fill="none" stroke="black" points="598,-4 598,-24 677,-24 677,-4 598,-4"/>
<text text-anchor="start" x="603.5" y="-11.6667" font-family="Times Roman,serif" font-size="10.00">name = &quot;e18&quot;</text>
</g>
<!-- g4&#45;&#45;e17 -->
<g id="edge32" class="edge"><title>g4&#45;&#45;e17</title>
<path fill="none" stroke="black" d="M513.015,-824.608C535.164,-795.556 574,-736.427 574,-679 574,-679 574,-679 574,-187 574,-133.471 603.608,-76.2596 622.229,-45.5718"/>
<text text-anchor="middle" x="621.27" y="-52.5257" font-family="Times Roman,serif" font-size="10.00">edges</text>
<text text-anchor="middle" x="515.006" y="-811.808" font-family="Times Roman,serif" font-size="10.00">graph</text>
</g>
<!-- e18 -->
<g id="node17" class="node"><title>e18</title>
<polygon fill="none" stroke="black" points="442,-24 442,-41 521,-41 521,-24 442,-24"/>
<text text-anchor="start" x="455" y="-30.1667" font-family="Times Roman,serif" font-size="10.00"> </text>
<text text-anchor="start" x="459" y="-30.1667" font-family="Times Roman,serif" font-size="10.00">e18 :Edge</text>
<polygon fill="none" stroke="black" points="442,-4 442,-24 521,-24 521,-4 442,-4"/>
<text text-anchor="start" x="447.5" y="-11.6667" font-family="Times Roman,serif" font-size="10.00">name = &quot;e15&quot;</text>
</g>
<!-- g4&#45;&#45;e18 -->
<g id="edge46" class="edge"><title>g4&#45;&#45;e18</title>
<path fill="none" stroke="black" d="M460.869,-837.809C403.416,-829.075 296.696,-809.833 269,-784 233.028,-750.448 234,-728.191 234,-679 234,-679 234,-679 234,-187 234,-92.0313 362.295,-48.7673 433.96,-32.0086"/>
<text text-anchor="middle" x="426.217" y="-35.3367" font-family="Times Roman,serif" font-size="10.00">edges</text>
<text text-anchor="middle" x="451.258" y="-837.572" font-family="Times Roman,serif" font-size="10.00">graph</text>
</g>
<!-- e19 -->
<g id="node18" class="node"><title>e19</title>
<polygon fill="none" stroke="black" points="742,-24 742,-41 821,-41 821,-24 742,-24"/>
<text text-anchor="start" x="755" y="-30.1667" font-family="Times Roman,serif" font-size="10.00"> </text>
<text text-anchor="start" x="759" y="-30.1667" font-family="Times Roman,serif" font-size="10.00">e19 :Edge</text>
<polygon fill="none" stroke="black" points="742,-4 742,-24 821,-24 821,-4 742,-4"/>
<text text-anchor="start" x="747.5" y="-11.6667" font-family="Times Roman,serif" font-size="10.00">name = &quot;e19&quot;</text>
</g>
<!-- g4&#45;&#45;e19 -->
<g id="edge34" class="edge"><title>g4&#45;&#45;e19</title>
<path fill="none" stroke="black" d="M535.249,-842.345C627.772,-840.032 865.056,-829.68 927,-784 968.447,-753.435 976,-730.498 976,-679 976,-679 976,-679 976,-187 976,-110.03 885.915,-61.9274 828.204,-39.0086"/>
<text text-anchor="middle" x="838.197" y="-35.6248" font-family="Times Roman,serif" font-size="10.00">edges</text>
<text text-anchor="middle" x="544.18" y="-834.847" font-family="Times Roman,serif" font-size="10.00">graph</text>
</g>
<!-- n20 -->
<g id="node19" class="node"><title>n20</title>
<polygon fill="none" stroke="black" points="648,-762 648,-779 721,-779 721,-762 648,-762"/>
<text text-anchor="start" x="657.5" y="-768.167" font-family="Times Roman,serif" font-size="10.00"> </text>
<text text-anchor="start" x="661.5" y="-768.167" font-family="Times Roman,serif" font-size="10.00">n20 :Node</text>
<polygon fill="none" stroke="black" points="648,-742 648,-762 721,-762 721,-742 648,-742"/>
<text text-anchor="start" x="653.5" y="-749.667" font-family="Times Roman,serif" font-size="10.00">name = &quot;n6&quot;</text>
</g>
<!-- g4&#45;&#45;n20 -->
<g id="edge26" class="edge"><title>g4&#45;&#45;n20</title>
<path fill="none" stroke="black" d="M535.193,-826.603C565.301,-813.33 607.793,-794.597 639.666,-780.545"/>
<text text-anchor="middle" x="633.078" y="-785.068" font-family="Times Roman,serif" font-size="10.00">nodes</text>
<text text-anchor="middle" x="541.781" y="-816.08" font-family="Times Roman,serif" font-size="10.00">graph</text>
</g>
<!-- n21 -->
<g id="node20" class="node"><title>n21</title>
<polygon fill="none" stroke="black" points="754,-762 754,-779 827,-779 827,-762 754,-762"/>
<text text-anchor="start" x="763.5" y="-768.167" font-family="Times Roman,serif" font-size="10.00"> </text>
<text text-anchor="start" x="767.5" y="-768.167" font-family="Times Roman,serif" font-size="10.00">n21 :Node</text>
<polygon fill="none" stroke="black" points="754,-742 754,-762 827,-762 827,-742 754,-742"/>
<text text-anchor="start" x="759.5" y="-749.667" font-family="Times Roman,serif" font-size="10.00">name = &quot;n7&quot;</text>
</g>
<!-- g4&#45;&#45;n21 -->
<g id="edge28" class="edge"><title>g4&#45;&#45;n21</title>
<path fill="none" stroke="black" d="M535.4,-835.794C582.919,-826.179 667.152,-807.592 737,-784 739.946,-783.005 742.956,-781.914 745.97,-780.764"/>
<text text-anchor="middle" x="738.996" y="-784.931" font-family="Times Roman,serif" font-size="10.00">nodes</text>
<text text-anchor="middle" x="543.426" y="-826.827" font-family="Times Roman,serif" font-size="10.00">graph</text>
</g>
<!-- g4&#45;&#45;n6 -->
<g id="edge30" class="edge"><title>g4&#45;&#45;n6</title>
<path fill="none" stroke="black" d="M460.745,-839.423C395.6,-832.588 257.15,-815.478 144,-784 139.408,-782.723 134.681,-781.205 130.002,-779.567"/>
<text text-anchor="middle" x="139.949" y="-775.546" font-family="Times Roman,serif" font-size="10.00">nodes</text>
<text text-anchor="middle" x="451.277" y="-839.641" font-family="Times Roman,serif" font-size="10.00">graph</text>
</g>
<!-- e22 -->
<g id="node22" class="node"><title>e22</title>
<polygon fill="none" stroke="black" points="120,-680 120,-697 199,-697 199,-680 120,-680"/>
<text text-anchor="start" x="133" y="-686.167" font-family="Times Roman,serif" font-size="10.00"> </text>
<text text-anchor="start" x="137" y="-686.167" font-family="Times Roman,serif" font-size="10.00">e22 :Edge</text>
<polygon fill="none" stroke="black" points="120,-660 120,-680 199,-680 199,-660 120,-660"/>
<text text-anchor="start" x="125.5" y="-667.667" font-family="Times Roman,serif" font-size="10.00">name = &quot;e16&quot;</text>
</g>
<!-- g4&#45;&#45;e22 -->
<g id="edge48" class="edge"><title>g4&#45;&#45;e22</title>
<path fill="none" stroke="black" d="M460.976,-838.897C394.485,-830.928 258.211,-811.674 220,-784 191.827,-763.596 174.63,-725.875 165.964,-701.636"/>
<text text-anchor="middle" x="173.096" y="-705.645" font-family="Times Roman,serif" font-size="10.00">edges</text>
<text text-anchor="middle" x="451.46" y="-838.97" font-family="Times Roman,serif" font-size="10.00">graph</text>
</g>
<!-- g4&#45;&#45;e5 -->
<g id="edge50" class="edge"><title>g4&#45;&#45;e5</title>
<path fill="none" stroke="black" d="M460.982,-839.247C387.634,-831.315 226.805,-811.306 179,-784 155.474,-770.562 159.499,-755.714 139,-738 123.351,-724.477 104.35,-711.774 87.6874,-701.644"/>
<text text-anchor="middle" x="97.6212" y="-699.792" font-family="Times Roman,serif" font-size="10.00">edges</text>
<text text-anchor="middle" x="451.504" y="-839.438" font-family="Times Roman,serif" font-size="10.00">graph</text>
</g>
<!-- n7&#45;&#45;e8 -->
<g id="edge52" class="edge"><title>n7&#45;&#45;e8</title>
<path fill="none" stroke="black" d="M359.749,-738.158C364.604,-726.785 370.456,-713.076 375.303,-701.719"/>
<text text-anchor="middle" x="375.632" y="-708.714" font-family="Times Roman,serif" font-size="10.00">outEdges</text>
<text text-anchor="middle" x="359.42" y="-725.164" font-family="Times Roman,serif" font-size="10.00">src</text>
</g>
<!-- n7&#45;&#45;e12 -->
<g id="edge54" class="edge"><title>n7&#45;&#45;e12</title>
<path fill="none" stroke="black" d="M340.823,-738.341C329.014,-707.084 310,-648.727 310,-597 310,-597 310,-597 310,-515 310,-464.462 310,-405.163 310,-373.549"/>
<text text-anchor="middle" x="314.226" y="-379.612" font-family="Times Roman,serif" font-size="10.00">inEdges</text>
<text text-anchor="middle" x="333.73" y="-728.292" font-family="Times Roman,serif" font-size="10.00">tgt</text>
</g>
<!-- e8&#45;&#45;n9 -->
<g id="edge56" class="edge"><title>e8&#45;&#45;n9</title>
<path fill="none" stroke="black" d="M396.421,-656.158C402.107,-644.785 408.962,-631.076 414.64,-619.719"/>
<text text-anchor="middle" x="414.367" y="-626.715" font-family="Times Roman,serif" font-size="10.00">tgt</text>
<text text-anchor="middle" x="396.694" y="-643.162" font-family="Times Roman,serif" font-size="10.00">inEdges</text>
</g>
<!-- n9&#45;&#45;e10 -->
<g id="edge58" class="edge"><title>n9&#45;&#45;e10</title>
<path fill="none" stroke="black" d="M435.749,-574.158C440.604,-562.785 446.456,-549.076 451.303,-537.719"/>
<text text-anchor="middle" x="451.632" y="-544.714" font-family="Times Roman,serif" font-size="10.00">outEdges</text>
<text text-anchor="middle" x="435.42" y="-561.164" font-family="Times Roman,serif" font-size="10.00">src</text>
</g>
<!-- e10&#45;&#45;n11 -->
<g id="edge60" class="edge"><title>e10&#45;&#45;n11</title>
<path fill="none" stroke="black" d="M466.571,-492.158C469.345,-480.785 472.689,-467.076 475.459,-455.719"/>
<text text-anchor="middle" x="477.417" y="-462.525" font-family="Times Roman,serif" font-size="10.00">tgt</text>
<text text-anchor="middle" x="464.613" y="-479.352" font-family="Times Roman,serif" font-size="10.00">inEdges</text>
</g>
<!-- n11&#45;&#45;e12 -->
<g id="edge62" class="edge"><title>n11&#45;&#45;e12</title>
<path fill="none" stroke="black" d="M436.963,-411.883C412.521,-400.162 382.113,-385.581 357.184,-373.626"/>
<text text-anchor="middle" x="367.184" y="-370.735" font-family="Times Roman,serif" font-size="10.00">outEdges</text>
<text text-anchor="middle" x="426.964" y="-408.775" font-family="Times Roman,serif" font-size="10.00">src</text>
</g>
<!-- n11&#45;&#45;e13 -->
<g id="edge64" class="edge"><title>n11&#45;&#45;e13</title>
<path fill="none" stroke="black" d="M525.181,-421.425C583.824,-406.062 686.937,-379.049 746.977,-363.319"/>
<text text-anchor="middle" x="739.281" y="-366.704" font-family="Times Roman,serif" font-size="10.00">outEdges</text>
<text text-anchor="middle" x="532.878" y="-412.04" font-family="Times Roman,serif" font-size="10.00">src</text>
</g>
<!-- n11&#45;&#45;e18 -->
<g id="edge66" class="edge"><title>n11&#45;&#45;e18</title>
<path fill="none" stroke="black" d="M481,-410.451C481,-378.837 481,-319.538 481,-269 481,-269 481,-269 481,-187 481,-136.462 481,-77.1633 481,-45.5487"/>
<text text-anchor="middle" x="485.226" y="-51.6118" font-family="Times Roman,serif" font-size="10.00">inEdges</text>
<text text-anchor="middle" x="476.774" y="-398.388" font-family="Times Roman,serif" font-size="10.00">tgt</text>
</g>
<!-- e13&#45;&#45;n14 -->
<g id="edge68" class="edge"><title>e13&#45;&#45;n14</title>
<path fill="none" stroke="black" d="M794,-328.158C794,-316.785 794,-303.076 794,-291.719"/>
<text text-anchor="middle" x="798.226" y="-297.782" font-family="Times Roman,serif" font-size="10.00">tgt</text>
<text text-anchor="middle" x="789.774" y="-316.095" font-family="Times Roman,serif" font-size="10.00">inEdges</text>
</g>
<!-- n14&#45;&#45;e15 -->
<g id="edge70" class="edge"><title>n14&#45;&#45;e15</title>
<path fill="none" stroke="black" d="M769.487,-246.158C757.282,-234.785 742.569,-221.076 730.381,-209.719"/>
<text text-anchor="middle" x="739.893" y="-209.806" font-family="Times Roman,serif" font-size="10.00">outEdges</text>
<text text-anchor="middle" x="759.975" y="-240.072" font-family="Times Roman,serif" font-size="10.00">src</text>
</g>
<!-- e15&#45;&#45;n16 -->
<g id="edge72" class="edge"><title>e15&#45;&#45;n16</title>
<path fill="none" stroke="black" d="M706,-164.158C706,-152.785 706,-139.076 706,-127.719"/>
<text text-anchor="middle" x="710.226" y="-133.782" font-family="Times Roman,serif" font-size="10.00">tgt</text>
<text text-anchor="middle" x="701.774" y="-152.095" font-family="Times Roman,serif" font-size="10.00">inEdges</text>
</g>
<!-- n16&#45;&#45;e17 -->
<g id="edge74" class="edge"><title>n16&#45;&#45;e17</title>
<path fill="none" stroke="black" d="M686.78,-82.1584C677.209,-70.7851 665.673,-57.0756 656.117,-45.7191"/>
<text text-anchor="middle" x="665.186" y="-46.9327" font-family="Times Roman,serif" font-size="10.00">outEdges</text>
<text text-anchor="middle" x="677.711" y="-74.9448" font-family="Times Roman,serif" font-size="10.00">src</text>
</g>
<!-- n16&#45;&#45;e18 -->
<g id="edge76" class="edge"><title>n16&#45;&#45;e18</title>
<path fill="none" stroke="black" d="M661.816,-88.8973C623.294,-74.8581 567.572,-54.5508 528.188,-40.1975"/>
<text text-anchor="middle" x="538.151" y="-36.3301" font-family="Times Roman,serif" font-size="10.00">outEdges</text>
<text text-anchor="middle" x="651.853" y="-86.7647" font-family="Times Roman,serif" font-size="10.00">src</text>
</g>
<!-- n16&#45;&#45;e19 -->
<g id="edge78" class="edge"><title>n16&#45;&#45;e19</title>
<path fill="none" stroke="black" d="M726.892,-82.1584C737.294,-70.7851 749.833,-57.0756 760.22,-45.7191"/>
<text text-anchor="middle" x="757.222" y="-52.259" font-family="Times Roman,serif" font-size="10.00">inEdges</text>
<text text-anchor="middle" x="729.89" y="-69.6185" font-family="Times Roman,serif" font-size="10.00">tgt</text>
</g>
<!-- n6&#45;&#45;e22 -->
<g id="edge80" class="edge"><title>n6&#45;&#45;e22</title>
<path fill="none" stroke="black" d="M106.335,-738.158C116.46,-726.785 128.664,-713.076 138.774,-701.719"/>
<text text-anchor="middle" x="135.905" y="-708.298" font-family="Times Roman,serif" font-size="10.00">outEdges_inEdges</text>
<text text-anchor="middle" x="109.204" y="-725.579" font-family="Times Roman,serif" font-size="10.00">src_tgt</text>
</g>
<!-- n6&#45;&#45;e5 -->
<g id="edge82" class="edge"><title>n6&#45;&#45;e5</title>
<path fill="none" stroke="black" d="M75.1363,-738.158C69.7271,-726.785 63.2067,-713.076 57.8054,-701.719"/>
<text text-anchor="middle" x="65.5146" y="-705.088" font-family="Times Roman,serif" font-size="10.00">outEdges_inEdges</text>
<text text-anchor="middle" x="67.4272" y="-728.789" font-family="Times Roman,serif" font-size="10.00">src_tgt</text>
</g>
</g>
</svg>
