<?xml version="1.0" encoding="UTF-8" standalone="no"?>
<!DOCTYPE svg PUBLIC "-//W3C//DTD SVG 1.1//EN"
 "http://www.w3.org/Graphics/SVG/1.1/DTD/svg11.dtd">
<!-- Generated by graphviz version 2.26.3 (20100126.1600)
 -->
<!-- Title: ObjectDiagram Pages: 1 -->
<svg width="102pt" height="222pt"
 viewBox="0.00 0.00 102.00 222.00" xmlns="http://www.w3.org/2000/svg" xmlns:xlink="http://www.w3.org/1999/xlink">
<g id="graph1" class="graph" transform="scale(1 1) rotate(0) translate(4 218)">
<title>ObjectDiagram</title>
<polygon fill="white" stroke="white" points="-4,5 -4,-218 99,-218 99,5 -4,5"/>
<!-- g1 -->
<g id="node1" class="node"><title>g1</title>
<polygon fill="deepskyblue" stroke="deepskyblue" points="8,-158.5 8,-209.5 86,-209.5 86,-158.5 8,-158.5"/>
<text text-anchor="start" x="41" y="-199.167" font-family="Times Roman,serif" font-size="10.00">«bound»</text>
<polygon fill="none" stroke="black" points="8,-178 8,-194 86,-194 86,-178 8,-178"/>
<text text-anchor="start" x="11.5" y="-183.667" font-family="Times Roman,serif" font-size="10.00"> </text>
<text text-anchor="start" x="15.5" y="-183.667" font-family="Times Roman,serif" font-size="10.00"> g1 :GraphPO </text>
<polygon fill="none" stroke="black" points="8,-158 8,-178 86,-178 86,-158 8,-158"/>
<text text-anchor="start" x="43.5" y="-165.667" font-family="Times Roman,serif" font-size="10.00"> &#160;</text>
</g>
<!-- n2 -->
<g id="node2" class="node"><title>n2</title>
<polygon fill="deepskyblue" stroke="deepskyblue" points="9.5,-76.5 9.5,-113.5 84.5,-113.5 84.5,-76.5 9.5,-76.5"/>
<polygon fill="none" stroke="black" points="10,-96 10,-113 85,-113 85,-96 10,-96"/>
<text text-anchor="start" x="13.5" y="-102.167" font-family="Times Roman,serif" font-size="10.00"> </text>
<text text-anchor="start" x="17.5" y="-102.167" font-family="Times Roman,serif" font-size="10.00"> n2 :NodePO </text>
<polygon fill="none" stroke="black" points="10,-76 10,-96 85,-96 85,-76 10,-76"/>
<text text-anchor="start" x="44" y="-83.6667" font-family="Times Roman,serif" font-size="10.00"> &#160;</text>
</g>
<!-- g1&#45;&#45;n2 -->
<g id="edge4" class="edge"><title>g1&#45;&#45;n2</title>
<path fill="none" stroke="black" d="M47,-154.364C47,-142.431 47,-128.885 47,-117.75"/>
<text text-anchor="middle" x="51.2262" y="-123.813" font-family="Times Roman,serif" font-size="10.00">nodes</text>
</g>
<!-- allMatches_n2 -->
<g id="node3" class="node"><title>allMatches_n2</title>
<text text-anchor="middle" x="47" y="-15" font-family="Times Roman,serif" font-size="10.00">allMatches</text>
</g>
<!-- n2&#45;&#45;allMatches_n2 -->
<g id="edge2" class="edge"><title>n2&#45;&#45;allMatches_n2</title>
<path fill="none" stroke="black" stroke-dasharray="1,5" d="M47,-72.3139C47,-60.7799 47,-46.954 47,-36.1382"/>
</g>
</g>
</svg>
