<?xml version="1.0" encoding="UTF-8" standalone="no"?>
<!DOCTYPE svg PUBLIC "-//W3C//DTD SVG 1.1//EN"
 "http://www.w3.org/Graphics/SVG/1.1/DTD/svg11.dtd">
<!-- Generated by graphviz version 2.28.0 (20110507.0327)
 -->
<!-- Title: ObjectDiagram Pages: 1 -->
<svg width="232pt" height="560pt"
 viewBox="0.00 0.00 232.00 560.00" xmlns="http://www.w3.org/2000/svg" xmlns:xlink="http://www.w3.org/1999/xlink">
<g id="graph1" class="graph" transform="scale(1 1) rotate(0) translate(4 556)">
<title>ObjectDiagram</title>
<polygon fill="white" stroke="white" points="-4,5 -4,-556 229,-556 229,5 -4,5"/>
<!-- g1 -->
<g id="node1" class="node"><title>g1</title>
<polygon fill="deepskyblue" stroke="deepskyblue" points="32.5,-496.5 32.5,-547.5 107.5,-547.5 107.5,-496.5 32.5,-496.5"/>
<text text-anchor="start" x="69" y="-537.5" font-family="Arial" font-size="10.00">«bound»</text>
<polygon fill="none" stroke="black" points="33,-516 33,-532 108,-532 108,-516 33,-516"/>
<text text-anchor="start" x="36.5" y="-522" font-family="Arial" font-size="10.00"> </text>
<text text-anchor="start" x="40.5" y="-522" font-family="Arial" font-size="10.00"> g1 :GraphPO </text>
<polygon fill="none" stroke="black" points="33,-496 33,-516 108,-516 108,-496 33,-496"/>
<text text-anchor="start" x="67" y="-504" font-family="Arial" font-size="10.00"> &#160;</text>
</g>
<!-- n2 -->
<g id="node2" class="node"><title>n2</title>
<polygon fill="deepskyblue" stroke="deepskyblue" points="40.5,-414.5 40.5,-451.5 99.5,-451.5 99.5,-414.5 40.5,-414.5"/>
<polygon fill="none" stroke="black" points="41,-434 41,-451 100,-451 100,-434 41,-434"/>
<text text-anchor="start" x="44.5" y="-440.5" font-family="Arial" font-size="10.00"> </text>
<text text-anchor="start" x="48.5" y="-440.5" font-family="Arial" font-size="10.00"> n2 :NodePO </text>
<polygon fill="none" stroke="black" points="41,-414 41,-434 100,-434 100,-414 41,-414"/>
<text text-anchor="start" x="67" y="-422" font-family="Arial" font-size="10.00"> &#160;</text>
</g>
<!-- g1&#45;&#45;n2 -->
<g id="edge2" class="edge"><title>g1&#45;&#45;n2</title>
<path fill="none" stroke="black" d="M70,-492.03C70,-480.167 70,-466.675 70,-455.687"/>
<text text-anchor="middle" x="74.2262" y="-462.25" font-family="Arial" font-size="10.00">nodes</text>
</g>
<!-- e3 -->
<g id="node3" class="node"><title>e3</title>
<polygon fill="deepskyblue" stroke="deepskyblue" points="8,-332.5 8,-369.5 66,-369.5 66,-332.5 8,-332.5"/>
<polygon fill="none" stroke="black" points="8,-352 8,-369 66,-369 66,-352 8,-352"/>
<text text-anchor="start" x="11.5" y="-358.5" font-family="Arial" font-size="10.00"> </text>
<text text-anchor="start" x="15.5" y="-358.5" font-family="Arial" font-size="10.00"> e3 :EdgePO </text>
<polygon fill="none" stroke="black" points="8,-332 8,-352 66,-352 66,-332 8,-332"/>
<text text-anchor="start" x="33.5" y="-340" font-family="Arial" font-size="10.00"> &#160;</text>
</g>
<!-- n2&#45;&#45;e3 -->
<g id="edge4" class="edge"><title>n2&#45;&#45;e3</title>
<path fill="none" stroke="black" d="M60.9826,-410.14C56.2881,-398.759 50.5683,-384.893 45.8922,-373.557"/>
<text text-anchor="middle" x="53.2551" y="-377.824" font-family="Arial" font-size="10.00">outEdges</text>
</g>
<!-- n4 -->
<g id="node4" class="node"><title>n4</title>
<polygon fill="deepskyblue" stroke="deepskyblue" points="7.5,-250.5 7.5,-287.5 66.5,-287.5 66.5,-250.5 7.5,-250.5"/>
<polygon fill="none" stroke="black" points="8,-270 8,-287 67,-287 67,-270 8,-270"/>
<text text-anchor="start" x="11.5" y="-276.5" font-family="Arial" font-size="10.00"> </text>
<text text-anchor="start" x="15.5" y="-276.5" font-family="Arial" font-size="10.00"> n4 :NodePO </text>
<polygon fill="none" stroke="black" points="8,-250 8,-270 67,-270 67,-250 8,-250"/>
<text text-anchor="start" x="34" y="-258" font-family="Arial" font-size="10.00"> &#160;</text>
</g>
<!-- e3&#45;&#45;n4 -->
<g id="edge6" class="edge"><title>e3&#45;&#45;n4</title>
<path fill="none" stroke="black" d="M37,-328.14C37,-316.759 37,-302.893 37,-291.557"/>
<text text-anchor="middle" x="41.2262" y="-298.12" font-family="Arial" font-size="10.00">tgt</text>
</g>
<!-- e5 -->
<g id="node5" class="node"><title>e5</title>
<polygon fill="deepskyblue" stroke="deepskyblue" points="8,-168.5 8,-205.5 66,-205.5 66,-168.5 8,-168.5"/>
<polygon fill="none" stroke="black" points="8,-188 8,-205 66,-205 66,-188 8,-188"/>
<text text-anchor="start" x="11.5" y="-194.5" font-family="Arial" font-size="10.00"> </text>
<text text-anchor="start" x="15.5" y="-194.5" font-family="Arial" font-size="10.00"> e5 :EdgePO </text>
<polygon fill="none" stroke="black" points="8,-168 8,-188 66,-188 66,-168 8,-168"/>
<text text-anchor="start" x="33.5" y="-176" font-family="Arial" font-size="10.00"> &#160;</text>
</g>
<!-- n4&#45;&#45;e5 -->
<g id="edge8" class="edge"><title>n4&#45;&#45;e5</title>
<path fill="none" stroke="black" d="M37,-246.14C37,-234.759 37,-220.893 37,-209.557"/>
<text text-anchor="middle" x="41.2262" y="-216.12" font-family="Arial" font-size="10.00">outEdges</text>
</g>
<!-- n6 -->
<g id="node6" class="node"><title>n6</title>
<polygon fill="deepskyblue" stroke="deepskyblue" points="7.5,-86.5 7.5,-123.5 66.5,-123.5 66.5,-86.5 7.5,-86.5"/>
<polygon fill="none" stroke="black" points="8,-106 8,-123 67,-123 67,-106 8,-106"/>
<text text-anchor="start" x="11.5" y="-112.5" font-family="Arial" font-size="10.00"> </text>
<text text-anchor="start" x="15.5" y="-112.5" font-family="Arial" font-size="10.00"> n6 :NodePO </text>
<polygon fill="none" stroke="black" points="8,-86 8,-106 67,-106 67,-86 8,-86"/>
<text text-anchor="start" x="34" y="-94" font-family="Arial" font-size="10.00"> &#160;</text>
</g>
<!-- e5&#45;&#45;n6 -->
<g id="edge10" class="edge"><title>e5&#45;&#45;n6</title>
<path fill="none" stroke="black" d="M37,-164.14C37,-152.759 37,-138.893 37,-127.557"/>
<text text-anchor="middle" x="41.2262" y="-134.12" font-family="Arial" font-size="10.00">tgt</text>
</g>
<!-- e7 -->
<g id="node7" class="node"><title>e7</title>
<polygon fill="deepskyblue" stroke="deepskyblue" points="41,-4.5 41,-41.5 99,-41.5 99,-4.5 41,-4.5"/>
<polygon fill="none" stroke="black" points="41,-24 41,-41 99,-41 99,-24 41,-24"/>
<text text-anchor="start" x="44.5" y="-30.5" font-family="Arial" font-size="10.00"> </text>
<text text-anchor="start" x="48.5" y="-30.5" font-family="Arial" font-size="10.00"> e7 :EdgePO </text>
<polygon fill="none" stroke="black" points="41,-4 41,-24 99,-24 99,-4 41,-4"/>
<text text-anchor="start" x="66.5" y="-12" font-family="Arial" font-size="10.00"> &#160;</text>
</g>
<!-- n6&#45;&#45;e7 -->
<g id="edge12" class="edge"><title>n6&#45;&#45;e7</title>
<path fill="none" stroke="black" d="M46.0174,-82.1396C50.7119,-70.759 56.4317,-56.8929 61.1078,-45.5569"/>
<text text-anchor="middle" x="61.5586" y="-53.0468" font-family="Arial" font-size="10.00">outEdges</text>
</g>
<!-- e7&#45;&#45;n2 -->
<g id="edge14" class="edge"><title>e7&#45;&#45;n2</title>
<path fill="none" stroke="black" d="M77.3238,-45.7241C87.0458,-76.5462 103,-134.909 103,-186 103,-270 103,-270 103,-270 103,-321.091 87.0458,-379.454 77.3238,-410.276"/>
<text text-anchor="middle" x="75.9433" y="-397.872" font-family="Arial" font-size="10.00">tgt</text>
</g>
<!-- matchIsomorphic -->
<g id="node8" class="node"><title>matchIsomorphic</title>
<text text-anchor="middle" x="179" y="-519.5" font-family="Arial" font-size="10.00">matchIsomorphic</text>
</g>
</g>
</svg>
