<?xml version="1.0" encoding="UTF-8" standalone="no"?>
<!DOCTYPE svg PUBLIC "-//W3C//DTD SVG 1.1//EN"
 "http://www.w3.org/Graphics/SVG/1.1/DTD/svg11.dtd">
<!-- Generated by graphviz version 2.28.0 (20110507.0327)
 -->
<!-- Title: ObjectDiagram Pages: 1 -->
<svg width="933pt" height="1079pt"
 viewBox="0.00 0.00 932.98 1079.00" xmlns="http://www.w3.org/2000/svg" xmlns:xlink="http://www.w3.org/1999/xlink">
<g id="graph1" class="graph" transform="scale(1 1) rotate(0) translate(4 1075)">
<title>ObjectDiagram</title>
<polygon fill="white" stroke="white" points="-4,5 -4,-1075 929.978,-1075 929.978,5 -4,5"/>
<g id="graph2" class="cluster"><title>cluster_n3</title>
<polygon fill="none" stroke="grey" points="28.9782,-812 28.9782,-921 194.978,-921 194.978,-812 28.9782,-812"/>
<image xlink:href="../../SDMLib/doc/forbiddensign.svg" width="30px" height="30px" preserveAspectRatio="xMinYMin meet" x="70.4782" y="-912"/>
<text text-anchor="start" x="106.978" y="-893.8" font-family="Times New Roman,serif" font-size="14.00">NAC n3</text>
</g>
<!-- g1 -->
<g id="node1" class="node"><title>g1</title>
<polygon fill="deepskyblue" stroke="deepskyblue" points="220.478,-1015.5 220.478,-1066.5 273.478,-1066.5 273.478,-1015.5 220.478,-1015.5"/>
<text text-anchor="start" x="243.978" y="-1056.5" font-family="Times New Roman,serif" font-size="10.00">«bound»</text>
<polygon fill="none" stroke="black" points="220.978,-1035 220.978,-1051 273.978,-1051 273.978,-1035 220.978,-1035"/>
<text text-anchor="start" x="224.478" y="-1041" font-family="Times New Roman,serif" font-size="10.00"> </text>
<text text-anchor="start" x="227.478" y="-1041" font-family="Times New Roman,serif" font-size="10.00"> g1 :GraphPO </text>
<polygon fill="none" stroke="black" points="220.978,-1015 220.978,-1035 273.978,-1035 273.978,-1015 220.978,-1015"/>
<text text-anchor="start" x="244.978" y="-1023" font-family="Times New Roman,serif" font-size="10.00"> &#160;</text>
</g>
<!-- e2 -->
<g id="node2" class="node"><title>e2</title>
<polygon fill="deepskyblue" stroke="deepskyblue" points="129.478,-933.5 129.478,-970.5 178.478,-970.5 178.478,-933.5 129.478,-933.5"/>
<polygon fill="none" stroke="black" points="129.978,-953 129.978,-970 178.978,-970 178.978,-953 129.978,-953"/>
<text text-anchor="start" x="133.478" y="-959.5" font-family="Times New Roman,serif" font-size="10.00"> </text>
<text text-anchor="start" x="136.478" y="-959.5" font-family="Times New Roman,serif" font-size="10.00"> e2 :EdgePO </text>
<polygon fill="none" stroke="black" points="129.978,-933 129.978,-953 178.978,-953 178.978,-933 129.978,-933"/>
<text text-anchor="start" x="151.978" y="-941" font-family="Times New Roman,serif" font-size="10.00"> &#160;</text>
</g>
<!-- g1&#45;&#45;e2 -->
<g id="edge13" class="edge"><title>g1&#45;&#45;e2</title>
<path fill="none" stroke="black" d="M216.269,-1011.27C203.465,-999.294 188.849,-985.621 176.994,-974.531"/>
<text text-anchor="middle" x="186.5" y="-975.136" font-family="Times New Roman,serif" font-size="10.00">edges</text>
</g>
<!-- g6 -->
<g id="node7" class="node"><title>g6</title>
<polygon fill="none" stroke="black" points="443.978,-834 443.978,-851 492.978,-851 492.978,-834 443.978,-834"/>
<text text-anchor="start" x="447.478" y="-840.5" font-family="Times New Roman,serif" font-size="10.00"> </text>
<text text-anchor="start" x="450.478" y="-840.5" font-family="Times New Roman,serif" font-size="10.00">g6 :Graph</text>
</g>
<!-- g1&#45;&#45;g6 -->
<g id="edge3" class="edge"><title>g1&#45;&#45;g6</title>
<path fill="none" stroke="black" stroke-dasharray="1,5" d="M279.114,-1011.5C325.682,-970.199 410.509,-894.968 448.578,-861.205"/>
<text text-anchor="middle" x="444.602" y="-867.881" font-family="Times New Roman,serif" font-size="10.00">match</text>
</g>
<!-- allMatches_e2 -->
<g id="node3" class="node"><title>allMatches_e2</title>
<text text-anchor="middle" x="235.978" y="-840.5" font-family="Times New Roman,serif" font-size="10.00">allMatches</text>
</g>
<!-- e2&#45;&#45;allMatches_e2 -->
<g id="edge5" class="edge"><title>e2&#45;&#45;allMatches_e2</title>
<path fill="none" stroke="black" stroke-dasharray="1,5" d="M186.685,-932.299C191.143,-928.899 195.406,-925.111 198.978,-921 214.445,-903.199 224.972,-877.807 230.729,-861.12"/>
</g>
<!-- n4 -->
<g id="node5" class="node"><title>n4</title>
<polygon fill="deepskyblue" stroke="deepskyblue" points="128.978,-824.5 128.978,-861.5 178.978,-861.5 178.978,-824.5 128.978,-824.5"/>
<polygon fill="none" stroke="black" points="128.978,-844 128.978,-861 178.978,-861 178.978,-844 128.978,-844"/>
<text text-anchor="start" x="132.478" y="-850.5" font-family="Times New Roman,serif" font-size="10.00"> </text>
<text text-anchor="start" x="135.478" y="-850.5" font-family="Times New Roman,serif" font-size="10.00"> n4 :NodePO </text>
<polygon fill="none" stroke="black" points="128.978,-824 128.978,-844 178.978,-844 178.978,-824 128.978,-824"/>
<text text-anchor="start" x="151.478" y="-832" font-family="Times New Roman,serif" font-size="10.00"> &#160;</text>
</g>
<!-- e2&#45;&#45;n4 -->
<g id="edge15" class="edge"><title>e2&#45;&#45;n4</title>
<path fill="none" stroke="black" d="M153.978,-929.347C153.978,-910.783 153.978,-884.176 153.978,-865.621"/>
<text text-anchor="middle" x="158.204" y="-872.184" font-family="Times New Roman,serif" font-size="10.00">tgt</text>
</g>
<!-- n5 -->
<g id="node6" class="node"><title>n5</title>
<polygon fill="deepskyblue" stroke="deepskyblue" points="44.9782,-824.5 44.9782,-861.5 94.9782,-861.5 94.9782,-824.5 44.9782,-824.5"/>
<polygon fill="none" stroke="black" points="44.9782,-844 44.9782,-861 94.9782,-861 94.9782,-844 44.9782,-844"/>
<text text-anchor="start" x="48.4782" y="-850.5" font-family="Times New Roman,serif" font-size="10.00"> </text>
<text text-anchor="start" x="51.4782" y="-850.5" font-family="Times New Roman,serif" font-size="10.00"> n5 :NodePO </text>
<polygon fill="none" stroke="black" points="44.9782,-824 44.9782,-844 94.9782,-844 94.9782,-824 44.9782,-824"/>
<text text-anchor="start" x="67.4782" y="-832" font-family="Times New Roman,serif" font-size="10.00"> &#160;</text>
</g>
<!-- e2&#45;&#45;n5 -->
<g id="edge17" class="edge"><title>e2&#45;&#45;n5</title>
<path fill="none" stroke="black" d="M121.503,-930.145C118.089,-927.286 114.83,-924.22 111.978,-921 97.3373,-904.473 85.8075,-881.965 78.5616,-865.554"/>
<text text-anchor="middle" x="86.144" y="-869.573" font-family="Times New Roman,serif" font-size="10.00">src</text>
</g>
<!-- e7 -->
<g id="node25" class="node"><title>e7</title>
<polygon fill="none" stroke="black" points="15.9782,-680 15.9782,-697 80.9782,-697 80.9782,-680 15.9782,-680"/>
<text text-anchor="start" x="29.9782" y="-686.5" font-family="Times New Roman,serif" font-size="10.00"> </text>
<text text-anchor="start" x="32.9782" y="-686.5" font-family="Times New Roman,serif" font-size="10.00">e7 :Edge</text>
<polygon fill="none" stroke="black" points="15.9782,-660 15.9782,-680 80.9782,-680 80.9782,-660 15.9782,-660"/>
<text text-anchor="start" x="21.4782" y="-668" font-family="Times New Roman,serif" font-size="10.00">name = &quot;e17&quot;</text>
</g>
<!-- e2&#45;&#45;e7 -->
<g id="edge7" class="edge"><title>e2&#45;&#45;e7</title>
<path fill="none" stroke="black" stroke-dasharray="1,5" d="M121.448,-947.99C87.2588,-944.073 36.8109,-935.9 24.9782,-921 -26.6446,-855.994 15.0743,-747.85 36.8368,-701.819"/>
<text text-anchor="middle" x="36.9669" y="-709.318" font-family="Times New Roman,serif" font-size="10.00">match</text>
</g>
<!-- n8 -->
<g id="node23" class="node"><title>n8</title>
<polygon fill="none" stroke="black" points="42.9782,-762 42.9782,-779 103.978,-779 103.978,-762 42.9782,-762"/>
<text text-anchor="start" x="53.4782" y="-768.5" font-family="Times New Roman,serif" font-size="10.00"> </text>
<text text-anchor="start" x="56.4782" y="-768.5" font-family="Times New Roman,serif" font-size="10.00">n8 :Node</text>
<polygon fill="none" stroke="black" points="42.9782,-742 42.9782,-762 103.978,-762 103.978,-742 42.9782,-742"/>
<text text-anchor="start" x="48.4782" y="-750" font-family="Times New Roman,serif" font-size="10.00">name = &quot;n8&quot;</text>
</g>
<!-- n4&#45;&#45;n8 -->
<g id="edge9" class="edge"><title>n4&#45;&#45;n8</title>
<path fill="none" stroke="black" stroke-dasharray="1,5" d="M131.845,-820.14C120.322,-808.759 106.282,-794.893 94.8046,-783.557"/>
<text text-anchor="middle" x="104.223" y="-784.419" font-family="Times New Roman,serif" font-size="10.00">match</text>
</g>
<!-- n5&#45;&#45;n8 -->
<g id="edge11" class="edge"><title>n5&#45;&#45;n8</title>
<path fill="none" stroke="black" stroke-dasharray="1,5" d="M70.798,-820.14C71.2247,-808.759 71.7447,-794.893 72.1698,-783.557"/>
<text text-anchor="middle" x="76.0534" y="-790.272" font-family="Times New Roman,serif" font-size="10.00">match</text>
</g>
<!-- n9 -->
<g id="node8" class="node"><title>n9</title>
<polygon fill="none" stroke="black" points="294.978,-762 294.978,-779 355.978,-779 355.978,-762 294.978,-762"/>
<text text-anchor="start" x="305.478" y="-768.5" font-family="Times New Roman,serif" font-size="10.00"> </text>
<text text-anchor="start" x="308.478" y="-768.5" font-family="Times New Roman,serif" font-size="10.00">n9 :Node</text>
<polygon fill="none" stroke="black" points="294.978,-742 294.978,-762 355.978,-762 355.978,-742 294.978,-742"/>
<text text-anchor="start" x="300.478" y="-750" font-family="Times New Roman,serif" font-size="10.00">name = &quot;n1&quot;</text>
</g>
<!-- g6&#45;&#45;n9 -->
<g id="edge19" class="edge"><title>g6&#45;&#45;n9</title>
<path fill="none" stroke="black" d="M437.301,-824.838C415.636,-812.717 386.449,-796.389 363.258,-783.416"/>
<text text-anchor="middle" x="373.231" y="-781.652" font-family="Times New Roman,serif" font-size="10.00">nodes</text>
<text text-anchor="middle" x="427.328" y="-821.601" font-family="Times New Roman,serif" font-size="10.00">graph</text>
</g>
<!-- e10 -->
<g id="node9" class="node"><title>e10</title>
<polygon fill="none" stroke="black" points="328.978,-680 328.978,-697 393.978,-697 393.978,-680 328.978,-680"/>
<text text-anchor="start" x="340.478" y="-686.5" font-family="Times New Roman,serif" font-size="10.00"> </text>
<text text-anchor="start" x="343.478" y="-686.5" font-family="Times New Roman,serif" font-size="10.00">e10 :Edge</text>
<polygon fill="none" stroke="black" points="328.978,-660 328.978,-680 393.978,-680 393.978,-660 328.978,-660"/>
<text text-anchor="start" x="334.478" y="-668" font-family="Times New Roman,serif" font-size="10.00">name = &quot;e10&quot;</text>
</g>
<!-- g6&#45;&#45;e10 -->
<g id="edge39" class="edge"><title>g6&#45;&#45;e10</title>
<path fill="none" stroke="black" d="M450.381,-824.667C439.692,-813.608 426.185,-798.645 415.978,-784 397.292,-757.189 380.479,-723.267 370.497,-701.595"/>
<text text-anchor="middle" x="378.158" y="-705.523" font-family="Times New Roman,serif" font-size="10.00">edges</text>
<text text-anchor="middle" x="441.06" y="-818.544" font-family="Times New Roman,serif" font-size="10.00">graph</text>
</g>
<!-- n11 -->
<g id="node10" class="node"><title>n11</title>
<polygon fill="none" stroke="black" points="370.978,-598 370.978,-615 431.978,-615 431.978,-598 370.978,-598"/>
<text text-anchor="start" x="379.478" y="-604.5" font-family="Times New Roman,serif" font-size="10.00"> </text>
<text text-anchor="start" x="382.478" y="-604.5" font-family="Times New Roman,serif" font-size="10.00">n11 :Node</text>
<polygon fill="none" stroke="black" points="370.978,-578 370.978,-598 431.978,-598 431.978,-578 370.978,-578"/>
<text text-anchor="start" x="376.478" y="-586" font-family="Times New Roman,serif" font-size="10.00">name = &quot;n2&quot;</text>
</g>
<!-- g6&#45;&#45;n11 -->
<g id="edge21" class="edge"><title>g6&#45;&#45;n11</title>
<path fill="none" stroke="black" d="M463.267,-824.842C451.352,-781.452 420.036,-667.406 406.906,-619.586"/>
<text text-anchor="middle" x="413.381" y="-624.707" font-family="Times New Roman,serif" font-size="10.00">nodes</text>
<text text-anchor="middle" x="456.792" y="-814.722" font-family="Times New Roman,serif" font-size="10.00">graph</text>
</g>
<!-- e12 -->
<g id="node11" class="node"><title>e12</title>
<polygon fill="none" stroke="black" points="404.978,-516 404.978,-533 469.978,-533 469.978,-516 404.978,-516"/>
<text text-anchor="start" x="416.478" y="-522.5" font-family="Times New Roman,serif" font-size="10.00"> </text>
<text text-anchor="start" x="419.478" y="-522.5" font-family="Times New Roman,serif" font-size="10.00">e12 :Edge</text>
<polygon fill="none" stroke="black" points="404.978,-496 404.978,-516 469.978,-516 469.978,-496 404.978,-496"/>
<text text-anchor="start" x="410.478" y="-504" font-family="Times New Roman,serif" font-size="10.00">name = &quot;e11&quot;</text>
</g>
<!-- g6&#45;&#45;e12 -->
<g id="edge41" class="edge"><title>g6&#45;&#45;e12</title>
<path fill="none" stroke="black" d="M467.376,-825C465.728,-782.519 460.407,-668.366 447.978,-574 446.386,-561.908 443.897,-548.525 441.689,-537.665"/>
<text text-anchor="middle" x="447.619" y="-543.217" font-family="Times New Roman,serif" font-size="10.00">edges</text>
<text text-anchor="middle" x="462.782" y="-813.618" font-family="Times New Roman,serif" font-size="10.00">graph</text>
</g>
<!-- n13 -->
<g id="node12" class="node"><title>n13</title>
<polygon fill="none" stroke="black" points="426.978,-434 426.978,-451 487.978,-451 487.978,-434 426.978,-434"/>
<text text-anchor="start" x="435.478" y="-440.5" font-family="Times New Roman,serif" font-size="10.00"> </text>
<text text-anchor="start" x="438.478" y="-440.5" font-family="Times New Roman,serif" font-size="10.00">n13 :Node</text>
<polygon fill="none" stroke="black" points="426.978,-414 426.978,-434 487.978,-434 487.978,-414 426.978,-414"/>
<text text-anchor="start" x="432.478" y="-422" font-family="Times New Roman,serif" font-size="10.00">name = &quot;n3&quot;</text>
</g>
<!-- g6&#45;&#45;n13 -->
<g id="edge23" class="edge"><title>g6&#45;&#45;n13</title>
<path fill="none" stroke="black" d="M474.772,-824.811C485.702,-795.562 505.978,-734.021 505.978,-680 505.978,-680 505.978,-680 505.978,-596 505.978,-548.931 501.089,-536.578 485.978,-492 481.75,-479.525 475.329,-466.338 469.603,-455.696"/>
<text text-anchor="middle" x="477.588" y="-459.215" font-family="Times New Roman,serif" font-size="10.00">nodes</text>
<text text-anchor="middle" x="473.898" y="-812.349" font-family="Times New Roman,serif" font-size="10.00">graph</text>
</g>
<!-- e14 -->
<g id="node13" class="node"><title>e14</title>
<polygon fill="none" stroke="black" points="259.978,-352 259.978,-369 324.978,-369 324.978,-352 259.978,-352"/>
<text text-anchor="start" x="271.478" y="-358.5" font-family="Times New Roman,serif" font-size="10.00"> </text>
<text text-anchor="start" x="274.478" y="-358.5" font-family="Times New Roman,serif" font-size="10.00">e14 :Edge</text>
<polygon fill="none" stroke="black" points="259.978,-332 259.978,-352 324.978,-352 324.978,-332 259.978,-332"/>
<text text-anchor="start" x="265.478" y="-340" font-family="Times New Roman,serif" font-size="10.00">name = &quot;e12&quot;</text>
</g>
<!-- g6&#45;&#45;e14 -->
<g id="edge43" class="edge"><title>g6&#45;&#45;e14</title>
<path fill="none" stroke="black" d="M435.453,-841.641C392.727,-839.328 318.293,-828.633 276.978,-784 244.821,-749.26 253.978,-727.339 253.978,-680 253.978,-680 253.978,-680 253.978,-514 253.978,-462.579 272.35,-404.345 283.545,-373.632"/>
<text text-anchor="middle" x="284.499" y="-381.086" font-family="Times New Roman,serif" font-size="10.00">edges</text>
<text text-anchor="middle" x="426.114" y="-842.717" font-family="Times New Roman,serif" font-size="10.00">graph</text>
</g>
<!-- e15 -->
<g id="node14" class="node"><title>e15</title>
<polygon fill="none" stroke="black" points="683.978,-352 683.978,-369 748.978,-369 748.978,-352 683.978,-352"/>
<text text-anchor="start" x="695.478" y="-358.5" font-family="Times New Roman,serif" font-size="10.00"> </text>
<text text-anchor="start" x="698.478" y="-358.5" font-family="Times New Roman,serif" font-size="10.00">e15 :Edge</text>
<polygon fill="none" stroke="black" points="683.978,-332 683.978,-352 748.978,-352 748.978,-332 683.978,-332"/>
<text text-anchor="start" x="689.478" y="-340" font-family="Times New Roman,serif" font-size="10.00">name = &quot;e13&quot;</text>
</g>
<!-- g6&#45;&#45;e15 -->
<g id="edge45" class="edge"><title>g6&#45;&#45;e15</title>
<path fill="none" stroke="black" d="M500.384,-840.704C573.917,-837.077 750.191,-824.288 790.978,-784 824.465,-750.923 810.978,-727.069 810.978,-680 810.978,-680 810.978,-680 810.978,-514 810.978,-457.269 767.091,-402.816 738.975,-373.754"/>
<text text-anchor="middle" x="748.253" y="-374.985" font-family="Times New Roman,serif" font-size="10.00">edges</text>
<text text-anchor="middle" x="509.199" y="-833.483" font-family="Times New Roman,serif" font-size="10.00">graph</text>
</g>
<!-- n16 -->
<g id="node15" class="node"><title>n16</title>
<polygon fill="none" stroke="black" points="685.978,-270 685.978,-287 746.978,-287 746.978,-270 685.978,-270"/>
<text text-anchor="start" x="694.478" y="-276.5" font-family="Times New Roman,serif" font-size="10.00"> </text>
<text text-anchor="start" x="697.478" y="-276.5" font-family="Times New Roman,serif" font-size="10.00">n16 :Node</text>
<polygon fill="none" stroke="black" points="685.978,-250 685.978,-270 746.978,-270 746.978,-250 685.978,-250"/>
<text text-anchor="start" x="691.478" y="-258" font-family="Times New Roman,serif" font-size="10.00">name = &quot;n4&quot;</text>
</g>
<!-- g6&#45;&#45;n16 -->
<g id="edge25" class="edge"><title>g6&#45;&#45;n16</title>
<path fill="none" stroke="black" d="M500.51,-840.808C577.707,-837.334 769.008,-824.728 815.978,-784 852.616,-752.231 848.978,-728.493 848.978,-680 848.978,-680 848.978,-680 848.978,-432 848.978,-370.138 790.328,-318.998 750.922,-291.62"/>
<text text-anchor="middle" x="760.743" y="-291.008" font-family="Times New Roman,serif" font-size="10.00">nodes</text>
<text text-anchor="middle" x="509.348" y="-833.629" font-family="Times New Roman,serif" font-size="10.00">graph</text>
</g>
<!-- e17 -->
<g id="node16" class="node"><title>e17</title>
<polygon fill="none" stroke="black" points="647.978,-188 647.978,-205 712.978,-205 712.978,-188 647.978,-188"/>
<text text-anchor="start" x="659.478" y="-194.5" font-family="Times New Roman,serif" font-size="10.00"> </text>
<text text-anchor="start" x="662.478" y="-194.5" font-family="Times New Roman,serif" font-size="10.00">e17 :Edge</text>
<polygon fill="none" stroke="black" points="647.978,-168 647.978,-188 712.978,-188 712.978,-168 647.978,-168"/>
<text text-anchor="start" x="653.478" y="-176" font-family="Times New Roman,serif" font-size="10.00">name = &quot;e14&quot;</text>
</g>
<!-- g6&#45;&#45;e17 -->
<g id="edge47" class="edge"><title>g6&#45;&#45;e17</title>
<path fill="none" stroke="black" d="M500.498,-828.707C520.026,-819.092 543.763,-804.228 557.978,-784 585.253,-745.188 581.978,-727.437 581.978,-680 581.978,-680 581.978,-680 581.978,-350 581.978,-292.805 627.252,-238.519 656.255,-209.611"/>
<text text-anchor="middle" x="652.979" y="-216.559" font-family="Times New Roman,serif" font-size="10.00">edges</text>
<text text-anchor="middle" x="506.655" y="-818.327" font-family="Times New Roman,serif" font-size="10.00">graph</text>
</g>
<!-- n18 -->
<g id="node17" class="node"><title>n18</title>
<polygon fill="none" stroke="black" points="649.978,-106 649.978,-123 710.978,-123 710.978,-106 649.978,-106"/>
<text text-anchor="start" x="658.478" y="-112.5" font-family="Times New Roman,serif" font-size="10.00"> </text>
<text text-anchor="start" x="661.478" y="-112.5" font-family="Times New Roman,serif" font-size="10.00">n18 :Node</text>
<polygon fill="none" stroke="black" points="649.978,-86 649.978,-106 710.978,-106 710.978,-86 649.978,-86"/>
<text text-anchor="start" x="655.478" y="-94" font-family="Times New Roman,serif" font-size="10.00">name = &quot;n5&quot;</text>
</g>
<!-- g6&#45;&#45;n18 -->
<g id="edge27" class="edge"><title>g6&#45;&#45;n18</title>
<path fill="none" stroke="black" d="M500.271,-841.04C581.514,-838.012 791.702,-826.192 844.978,-784 884.057,-753.052 886.978,-729.849 886.978,-680 886.978,-680 886.978,-680 886.978,-268 886.978,-183.348 778.291,-136.316 718.428,-116.831"/>
<text text-anchor="middle" x="728.376" y="-113.308" font-family="Times New Roman,serif" font-size="10.00">nodes</text>
<text text-anchor="middle" x="509.145" y="-833.931" font-family="Times New Roman,serif" font-size="10.00">graph</text>
</g>
<!-- e19 -->
<g id="node18" class="node"><title>e19</title>
<polygon fill="none" stroke="black" points="579.978,-24 579.978,-41 644.978,-41 644.978,-24 579.978,-24"/>
<text text-anchor="start" x="591.478" y="-30.5" font-family="Times New Roman,serif" font-size="10.00"> </text>
<text text-anchor="start" x="594.478" y="-30.5" font-family="Times New Roman,serif" font-size="10.00">e19 :Edge</text>
<polygon fill="none" stroke="black" points="579.978,-4 579.978,-24 644.978,-24 644.978,-4 579.978,-4"/>
<text text-anchor="start" x="585.478" y="-12" font-family="Times New Roman,serif" font-size="10.00">name = &quot;e18&quot;</text>
</g>
<!-- g6&#45;&#45;e19 -->
<g id="edge35" class="edge"><title>g6&#45;&#45;e19</title>
<path fill="none" stroke="black" d="M482.273,-824.791C504.289,-796.481 543.978,-737.472 543.978,-680 543.978,-680 543.978,-680 543.978,-186 543.978,-132.164 576.302,-75.5565 596.378,-45.5902"/>
<text text-anchor="middle" x="594.98" y="-52.9921" font-family="Times New Roman,serif" font-size="10.00">edges</text>
<text text-anchor="middle" x="484.357" y="-812.511" font-family="Times New Roman,serif" font-size="10.00">graph</text>
</g>
<!-- e20 -->
<g id="node19" class="node"><title>e20</title>
<polygon fill="none" stroke="black" points="424.978,-24 424.978,-41 489.978,-41 489.978,-24 424.978,-24"/>
<text text-anchor="start" x="436.478" y="-30.5" font-family="Times New Roman,serif" font-size="10.00"> </text>
<text text-anchor="start" x="439.478" y="-30.5" font-family="Times New Roman,serif" font-size="10.00">e20 :Edge</text>
<polygon fill="none" stroke="black" points="424.978,-4 424.978,-24 489.978,-24 489.978,-4 424.978,-4"/>
<text text-anchor="start" x="430.478" y="-12" font-family="Times New Roman,serif" font-size="10.00">name = &quot;e15&quot;</text>
</g>
<!-- g6&#45;&#45;e20 -->
<g id="edge49" class="edge"><title>g6&#45;&#45;e20</title>
<path fill="none" stroke="black" d="M435.681,-842.515C388.651,-841.482 301.342,-832.568 249.978,-784 214.644,-750.589 215.978,-728.63 215.978,-680 215.978,-680 215.978,-680 215.978,-186 215.978,-90.4645 348.033,-47.5989 416.64,-31.7755"/>
<text text-anchor="middle" x="408.876" y="-35.5773" font-family="Times New Roman,serif" font-size="10.00">edges</text>
<text text-anchor="middle" x="426.464" y="-843.894" font-family="Times New Roman,serif" font-size="10.00">graph</text>
</g>
<!-- e21 -->
<g id="node20" class="node"><title>e21</title>
<polygon fill="none" stroke="black" points="769.978,-24 769.978,-41 834.978,-41 834.978,-24 769.978,-24"/>
<text text-anchor="start" x="781.478" y="-30.5" font-family="Times New Roman,serif" font-size="10.00"> </text>
<text text-anchor="start" x="784.478" y="-30.5" font-family="Times New Roman,serif" font-size="10.00">e21 :Edge</text>
<polygon fill="none" stroke="black" points="769.978,-4 769.978,-24 834.978,-24 834.978,-4 769.978,-4"/>
<text text-anchor="start" x="775.478" y="-12" font-family="Times New Roman,serif" font-size="10.00">name = &quot;e19&quot;</text>
</g>
<!-- g6&#45;&#45;e21 -->
<g id="edge37" class="edge"><title>g6&#45;&#45;e21</title>
<path fill="none" stroke="black" d="M500.24,-841.281C585.855,-838.782 816.328,-828.028 875.978,-784 917.088,-753.656 924.978,-731.096 924.978,-680 924.978,-680 924.978,-680 924.978,-186 924.978,-125.438 869.776,-73.3148 833.335,-45.5036"/>
<text text-anchor="middle" x="843.062" y="-45.3234" font-family="Times New Roman,serif" font-size="10.00">edges</text>
<text text-anchor="middle" x="509.153" y="-834.246" font-family="Times New Roman,serif" font-size="10.00">graph</text>
</g>
<!-- n22 -->
<g id="node21" class="node"><title>n22</title>
<polygon fill="none" stroke="black" points="618.978,-762 618.978,-779 679.978,-779 679.978,-762 618.978,-762"/>
<text text-anchor="start" x="627.478" y="-768.5" font-family="Times New Roman,serif" font-size="10.00"> </text>
<text text-anchor="start" x="630.478" y="-768.5" font-family="Times New Roman,serif" font-size="10.00">n22 :Node</text>
<polygon fill="none" stroke="black" points="618.978,-742 618.978,-762 679.978,-762 679.978,-742 618.978,-742"/>
<text text-anchor="start" x="624.478" y="-750" font-family="Times New Roman,serif" font-size="10.00">name = &quot;n6&quot;</text>
</g>
<!-- g6&#45;&#45;n22 -->
<g id="edge29" class="edge"><title>g6&#45;&#45;n22</title>
<path fill="none" stroke="black" d="M500.337,-827.698C531.249,-814.035 577.855,-793.436 610.62,-778.954"/>
<text text-anchor="middle" x="604.039" y="-783.983" font-family="Times New Roman,serif" font-size="10.00">nodes</text>
<text text-anchor="middle" x="506.918" y="-817.668" font-family="Times New Roman,serif" font-size="10.00">graph</text>
</g>
<!-- n23 -->
<g id="node22" class="node"><title>n23</title>
<polygon fill="none" stroke="black" points="713.978,-762 713.978,-779 774.978,-779 774.978,-762 713.978,-762"/>
<text text-anchor="start" x="722.478" y="-768.5" font-family="Times New Roman,serif" font-size="10.00"> </text>
<text text-anchor="start" x="725.478" y="-768.5" font-family="Times New Roman,serif" font-size="10.00">n23 :Node</text>
<polygon fill="none" stroke="black" points="713.978,-742 713.978,-762 774.978,-762 774.978,-742 713.978,-742"/>
<text text-anchor="start" x="719.478" y="-750" font-family="Times New Roman,serif" font-size="10.00">name = &quot;n7&quot;</text>
</g>
<!-- g6&#45;&#45;n23 -->
<g id="edge31" class="edge"><title>g6&#45;&#45;n23</title>
<path fill="none" stroke="black" d="M500.24,-835.716C544.911,-826.582 627.809,-808.07 695.978,-784 699.176,-782.871 702.453,-781.608 705.718,-780.275"/>
<text text-anchor="middle" x="698.911" y="-785.1" font-family="Times New Roman,serif" font-size="10.00">nodes</text>
<text text-anchor="middle" x="508.251" y="-827.231" font-family="Times New Roman,serif" font-size="10.00">graph</text>
</g>
<!-- g6&#45;&#45;n8 -->
<g id="edge33" class="edge"><title>g6&#45;&#45;n8</title>
<path fill="none" stroke="black" d="M435.616,-836.938C356.12,-824.443 155.562,-792.53 125.978,-784 121.192,-782.62 116.253,-780.94 111.405,-779.129"/>
<text text-anchor="middle" x="121.371" y="-775.81" font-family="Times New Roman,serif" font-size="10.00">nodes</text>
<text text-anchor="middle" x="426.006" y="-837.201" font-family="Times New Roman,serif" font-size="10.00">graph</text>
</g>
<!-- e24 -->
<g id="node24" class="node"><title>e24</title>
<polygon fill="none" stroke="black" points="114.978,-680 114.978,-697 179.978,-697 179.978,-680 114.978,-680"/>
<text text-anchor="start" x="126.478" y="-686.5" font-family="Times New Roman,serif" font-size="10.00"> </text>
<text text-anchor="start" x="129.478" y="-686.5" font-family="Times New Roman,serif" font-size="10.00">e24 :Edge</text>
<polygon fill="none" stroke="black" points="114.978,-660 114.978,-680 179.978,-680 179.978,-660 114.978,-660"/>
<text text-anchor="start" x="120.478" y="-668" font-family="Times New Roman,serif" font-size="10.00">name = &quot;e16&quot;</text>
</g>
<!-- g6&#45;&#45;e24 -->
<g id="edge51" class="edge"><title>g6&#45;&#45;e24</title>
<path fill="none" stroke="black" d="M435.637,-838.38C373.113,-830.837 238.584,-811.8 201.978,-784 174.977,-763.494 159.867,-725.853 152.58,-701.921"/>
<text text-anchor="middle" x="159.372" y="-706.76" font-family="Times New Roman,serif" font-size="10.00">edges</text>
<text text-anchor="middle" x="426.118" y="-838.944" font-family="Times New Roman,serif" font-size="10.00">graph</text>
</g>
<!-- g6&#45;&#45;e7 -->
<g id="edge53" class="edge"><title>g6&#45;&#45;e7</title>
<path fill="none" stroke="black" d="M435.47,-836.948C362.01,-825.368 187.727,-796.914 163.978,-784 139.124,-770.484 140.816,-757.136 119.978,-738 106.264,-725.406 90.1955,-712.316 76.7216,-701.766"/>
<text text-anchor="middle" x="86.4574" y="-701.55" font-family="Times New Roman,serif" font-size="10.00">edges</text>
<text text-anchor="middle" x="425.856" y="-837.198" font-family="Times New Roman,serif" font-size="10.00">graph</text>
</g>
<!-- n9&#45;&#45;e10 -->
<g id="edge55" class="edge"><title>n9&#45;&#45;e10</title>
<path fill="none" stroke="black" d="M334.815,-738.14C339.937,-726.759 346.176,-712.893 351.278,-701.557"/>
<text text-anchor="middle" x="351.412" y="-709.056" font-family="Times New Roman,serif" font-size="10.00">outEdges</text>
<text text-anchor="middle" x="334.681" y="-725.641" font-family="Times New Roman,serif" font-size="10.00">src</text>
</g>
<!-- n9&#45;&#45;e14 -->
<g id="edge57" class="edge"><title>n9&#45;&#45;e14</title>
<path fill="none" stroke="black" d="M317.654,-738.276C307.932,-707.454 291.978,-649.091 291.978,-598 291.978,-598 291.978,-598 291.978,-514 291.978,-463.797 291.978,-404.843 291.978,-373.749"/>
<text text-anchor="middle" x="296.204" y="-380.312" font-family="Times New Roman,serif" font-size="10.00">inEdges</text>
<text text-anchor="middle" x="310.955" y="-728.352" font-family="Times New Roman,serif" font-size="10.00">tgt</text>
</g>
<!-- e10&#45;&#45;n11 -->
<g id="edge59" class="edge"><title>e10&#45;&#45;n11</title>
<path fill="none" stroke="black" d="M371.908,-656.14C377.599,-644.759 384.532,-630.893 390.2,-619.557"/>
<text text-anchor="middle" x="389.927" y="-627.053" font-family="Times New Roman,serif" font-size="10.00">tgt</text>
<text text-anchor="middle" x="372.182" y="-643.643" font-family="Times New Roman,serif" font-size="10.00">inEdges</text>
</g>
<!-- n11&#45;&#45;e12 -->
<g id="edge61" class="edge"><title>n11&#45;&#45;e12</title>
<path fill="none" stroke="black" d="M410.815,-574.14C415.937,-562.759 422.176,-548.893 427.278,-537.557"/>
<text text-anchor="middle" x="427.412" y="-545.056" font-family="Times New Roman,serif" font-size="10.00">outEdges</text>
<text text-anchor="middle" x="410.681" y="-561.641" font-family="Times New Roman,serif" font-size="10.00">src</text>
</g>
<!-- e12&#45;&#45;n13 -->
<g id="edge63" class="edge"><title>e12&#45;&#45;n13</title>
<path fill="none" stroke="black" d="M442.443,-492.14C445.288,-480.759 448.755,-466.893 451.589,-455.557"/>
<text text-anchor="middle" x="453.491" y="-462.874" font-family="Times New Roman,serif" font-size="10.00">tgt</text>
<text text-anchor="middle" x="440.541" y="-479.822" font-family="Times New Roman,serif" font-size="10.00">inEdges</text>
</g>
<!-- n13&#45;&#45;e14 -->
<g id="edge65" class="edge"><title>n13&#45;&#45;e14</title>
<path fill="none" stroke="black" d="M418.709,-413.445C392.815,-400.89 358.666,-384.334 332.342,-371.57"/>
<text text-anchor="middle" x="342.341" y="-369.221" font-family="Times New Roman,serif" font-size="10.00">outEdges</text>
<text text-anchor="middle" x="408.71" y="-410.794" font-family="Times New Roman,serif" font-size="10.00">src</text>
</g>
<!-- n13&#45;&#45;e15 -->
<g id="edge67" class="edge"><title>n13&#45;&#45;e15</title>
<path fill="none" stroke="black" d="M495.473,-420.11C543.808,-405.18 626.343,-379.686 675.563,-364.483"/>
<text text-anchor="middle" x="668.151" y="-368.696" font-family="Times New Roman,serif" font-size="10.00">outEdges</text>
<text text-anchor="middle" x="502.886" y="-410.897" font-family="Times New Roman,serif" font-size="10.00">src</text>
</g>
<!-- n13&#45;&#45;e20 -->
<g id="edge69" class="edge"><title>n13&#45;&#45;e20</title>
<path fill="none" stroke="black" d="M456.978,-410.251C456.978,-379.157 456.978,-320.203 456.978,-270 456.978,-270 456.978,-270 456.978,-186 456.978,-135.797 456.978,-76.8425 456.978,-45.7485"/>
<text text-anchor="middle" x="461.204" y="-52.3116" font-family="Times New Roman,serif" font-size="10.00">inEdges</text>
<text text-anchor="middle" x="452.752" y="-398.688" font-family="Times New Roman,serif" font-size="10.00">tgt</text>
</g>
<!-- e15&#45;&#45;n16 -->
<g id="edge71" class="edge"><title>e15&#45;&#45;n16</title>
<path fill="none" stroke="black" d="M715.978,-328.14C715.978,-316.759 715.978,-302.893 715.978,-291.557"/>
<text text-anchor="middle" x="720.204" y="-298.12" font-family="Times New Roman,serif" font-size="10.00">tgt</text>
<text text-anchor="middle" x="711.752" y="-316.577" font-family="Times New Roman,serif" font-size="10.00">inEdges</text>
</g>
<!-- n16&#45;&#45;e17 -->
<g id="edge73" class="edge"><title>n16&#45;&#45;e17</title>
<path fill="none" stroke="black" d="M706.141,-246.14C701.02,-234.759 694.78,-220.893 689.679,-209.557"/>
<text text-anchor="middle" x="697.252" y="-213.587" font-family="Times New Roman,serif" font-size="10.00">outEdges</text>
<text text-anchor="middle" x="698.568" y="-237.109" font-family="Times New Roman,serif" font-size="10.00">src</text>
</g>
<!-- e17&#45;&#45;n18 -->
<g id="edge75" class="edge"><title>e17&#45;&#45;n18</title>
<path fill="none" stroke="black" d="M679.978,-164.14C679.978,-152.759 679.978,-138.893 679.978,-127.557"/>
<text text-anchor="middle" x="684.204" y="-134.12" font-family="Times New Roman,serif" font-size="10.00">tgt</text>
<text text-anchor="middle" x="675.752" y="-152.577" font-family="Times New Roman,serif" font-size="10.00">inEdges</text>
</g>
<!-- n18&#45;&#45;e19 -->
<g id="edge77" class="edge"><title>n18&#45;&#45;e19</title>
<path fill="none" stroke="black" d="M661.397,-82.1396C651.723,-70.759 639.937,-56.8929 630.302,-45.5569"/>
<text text-anchor="middle" x="639.391" y="-47.2254" font-family="Times New Roman,serif" font-size="10.00">outEdges</text>
<text text-anchor="middle" x="652.307" y="-75.4712" font-family="Times New Roman,serif" font-size="10.00">src</text>
</g>
<!-- n18&#45;&#45;e20 -->
<g id="edge79" class="edge"><title>n18&#45;&#45;e20</title>
<path fill="none" stroke="black" d="M641.643,-90.2475C601.42,-75.8177 538.454,-53.2289 497.448,-38.5182"/>
<text text-anchor="middle" x="507.405" y="-35.1006" font-family="Times New Roman,serif" font-size="10.00">outEdges</text>
<text text-anchor="middle" x="631.685" y="-88.6651" font-family="Times New Roman,serif" font-size="10.00">src</text>
</g>
<!-- n18&#45;&#45;e21 -->
<g id="edge81" class="edge"><title>n18&#45;&#45;e21</title>
<path fill="none" stroke="black" d="M712.993,-82.3508C730.353,-70.9674 751.573,-57.0524 768.937,-45.6665"/>
<text text-anchor="middle" x="763.675" y="-51.6704" font-family="Times New Roman,serif" font-size="10.00">inEdges</text>
<text text-anchor="middle" x="718.255" y="-71.3469" font-family="Times New Roman,serif" font-size="10.00">tgt</text>
</g>
<!-- n8&#45;&#45;e24 -->
<g id="edge83" class="edge"><title>n8&#45;&#45;e24</title>
<path fill="none" stroke="black" d="M93.199,-738.14C103.726,-726.759 116.552,-712.893 127.038,-701.557"/>
<text text-anchor="middle" x="123.986" y="-708.58" font-family="Times New Roman,serif" font-size="10.00">outEdges_inEdges</text>
<text text-anchor="middle" x="96.2508" y="-726.117" font-family="Times New Roman,serif" font-size="10.00">src_tgt</text>
</g>
<!-- n8&#45;&#45;e7 -->
<g id="edge85" class="edge"><title>n8&#45;&#45;e7</title>
<path fill="none" stroke="black" d="M66.1469,-738.14C62.5904,-726.759 58.2572,-712.893 54.7148,-701.557"/>
<text text-anchor="middle" x="61.4518" y="-706.447" font-family="Times New Roman,serif" font-size="10.00">outEdges_inEdges</text>
<text text-anchor="middle" x="59.4098" y="-728.25" font-family="Times New Roman,serif" font-size="10.00">src_tgt</text>
</g>
</g>
</svg>
