<?xml version="1.0" encoding="UTF-8" standalone="no"?>
<!DOCTYPE svg PUBLIC "-//W3C//DTD SVG 1.1//EN"
 "http://www.w3.org/Graphics/SVG/1.1/DTD/svg11.dtd">
<!-- Generated by graphviz version 2.28.0 (20110507.0327)
 -->
<!-- Title: ObjectDiagram Pages: 1 -->
<svg width="916pt" height="970pt"
 viewBox="0.00 0.00 916.34 970.00" xmlns="http://www.w3.org/2000/svg" xmlns:xlink="http://www.w3.org/1999/xlink">
<g id="graph1" class="graph" transform="scale(1 1) rotate(0) translate(4 966)">
<title>ObjectDiagram</title>
<polygon fill="white" stroke="white" points="-4,5 -4,-966 913.344,-966 913.344,5 -4,5"/>
<!-- g1 -->
<g id="node1" class="node"><title>g1</title>
<polygon fill="deepskyblue" stroke="deepskyblue" points="517.844,-906.5 517.844,-957.5 582.844,-957.5 582.844,-906.5 517.844,-906.5"/>
<text text-anchor="start" x="544.344" y="-947.5" font-family="Times New Roman,serif" font-size="10.00">«bound»</text>
<polygon fill="none" stroke="black" points="518.344,-926 518.344,-942 583.344,-942 583.344,-926 518.344,-926"/>
<text text-anchor="start" x="521.844" y="-932" font-family="Times New Roman,serif" font-size="10.00"> </text>
<text text-anchor="start" x="524.844" y="-932" font-family="Times New Roman,serif" font-size="10.00"> g1 :GraphPO </text>
<polygon fill="none" stroke="black" points="518.344,-906 518.344,-926 583.344,-926 583.344,-906 518.344,-906"/>
<text text-anchor="start" x="548.344" y="-914" font-family="Times New Roman,serif" font-size="10.00"> &#160;</text>
</g>
<!-- n2 -->
<g id="node2" class="node"><title>n2</title>
<polygon fill="deepskyblue" stroke="deepskyblue" points="636.844,-824.5 636.844,-861.5 699.844,-861.5 699.844,-824.5 636.844,-824.5"/>
<polygon fill="none" stroke="black" points="637.344,-844 637.344,-861 700.344,-861 700.344,-844 637.344,-844"/>
<text text-anchor="start" x="640.844" y="-850.5" font-family="Times New Roman,serif" font-size="10.00"> </text>
<text text-anchor="start" x="643.844" y="-850.5" font-family="Times New Roman,serif" font-size="10.00"> n2 :NodePO </text>
<polygon fill="none" stroke="black" points="637.344,-824 637.344,-844 700.344,-844 700.344,-824 637.344,-824"/>
<text text-anchor="start" x="666.344" y="-832" font-family="Times New Roman,serif" font-size="10.00"> &#160;</text>
</g>
<!-- g1&#45;&#45;n2 -->
<g id="edge6" class="edge"><title>g1&#45;&#45;n2</title>
<path fill="none" stroke="black" d="M589.309,-902.272C605.554,-890.294 624.1,-876.621 639.141,-865.531"/>
<text text-anchor="middle" x="634.355" y="-871.811" font-family="Times New Roman,serif" font-size="10.00">nodes</text>
</g>
<!-- g3 -->
<g id="node4" class="node"><title>g3</title>
<polygon fill="none" stroke="black" points="409.344,-834 409.344,-851 458.344,-851 458.344,-834 409.344,-834"/>
<text text-anchor="start" x="412.844" y="-840.5" font-family="Times New Roman,serif" font-size="10.00"> </text>
<text text-anchor="start" x="415.844" y="-840.5" font-family="Times New Roman,serif" font-size="10.00">g3 :Graph</text>
</g>
<!-- g1&#45;&#45;g3 -->
<g id="edge2" class="edge"><title>g1&#45;&#45;g3</title>
<path fill="none" stroke="black" stroke-dasharray="1,5" d="M511.71,-902.272C493.339,-888.611 472.002,-872.745 456.235,-861.021"/>
<text text-anchor="middle" x="466.03" y="-860.538" font-family="Times New Roman,serif" font-size="10.00">match</text>
</g>
<!-- n4 -->
<g id="node20" class="node"><title>n4</title>
<polygon fill="none" stroke="black" points="784.344,-762 784.344,-779 845.344,-779 845.344,-762 784.344,-762"/>
<text text-anchor="start" x="794.844" y="-768.5" font-family="Times New Roman,serif" font-size="10.00"> </text>
<text text-anchor="start" x="797.844" y="-768.5" font-family="Times New Roman,serif" font-size="10.00">n4 :Node</text>
<polygon fill="none" stroke="black" points="784.344,-742 784.344,-762 845.344,-762 845.344,-742 784.344,-742"/>
<text text-anchor="start" x="789.844" y="-750" font-family="Times New Roman,serif" font-size="10.00">name = &quot;n8&quot;</text>
</g>
<!-- n2&#45;&#45;n4 -->
<g id="edge4" class="edge"><title>n2&#45;&#45;n4</title>
<path fill="none" stroke="black" stroke-dasharray="1,5" d="M707.854,-820.351C729.051,-808.736 755.058,-794.486 776.064,-782.975"/>
<text text-anchor="middle" x="770.147" y="-788.537" font-family="Times New Roman,serif" font-size="10.00">match</text>
</g>
<!-- allMatches -->
<g id="node3" class="node"><title>allMatches</title>
<text text-anchor="middle" x="639.344" y="-929.5" font-family="Times New Roman,serif" font-size="10.00">allMatches</text>
</g>
<!-- n5 -->
<g id="node5" class="node"><title>n5</title>
<polygon fill="none" stroke="black" points="75.3443,-762 75.3443,-779 136.344,-779 136.344,-762 75.3443,-762"/>
<text text-anchor="start" x="85.8443" y="-768.5" font-family="Times New Roman,serif" font-size="10.00"> </text>
<text text-anchor="start" x="88.8443" y="-768.5" font-family="Times New Roman,serif" font-size="10.00">n5 :Node</text>
<polygon fill="none" stroke="black" points="75.3443,-742 75.3443,-762 136.344,-762 136.344,-742 75.3443,-742"/>
<text text-anchor="start" x="80.8443" y="-750" font-family="Times New Roman,serif" font-size="10.00">name = &quot;n1&quot;</text>
</g>
<!-- g3&#45;&#45;n5 -->
<g id="edge46" class="edge"><title>g3&#45;&#45;n5</title>
<path fill="none" stroke="black" d="M401.094,-837.193C349.214,-829.018 244.33,-810.66 158.344,-784 153.586,-782.525 148.665,-780.787 143.826,-778.944"/>
<text text-anchor="middle" x="153.798" y="-775.694" font-family="Times New Roman,serif" font-size="10.00">nodes</text>
<text text-anchor="middle" x="391.473" y="-837.422" font-family="Times New Roman,serif" font-size="10.00">graph</text>
</g>
<!-- e6 -->
<g id="node6" class="node"><title>e6</title>
<polygon fill="none" stroke="black" points="151.344,-680 151.344,-697 216.344,-697 216.344,-680 151.344,-680"/>
<text text-anchor="start" x="165.344" y="-686.5" font-family="Times New Roman,serif" font-size="10.00"> </text>
<text text-anchor="start" x="168.344" y="-686.5" font-family="Times New Roman,serif" font-size="10.00">e6 :Edge</text>
<polygon fill="none" stroke="black" points="151.344,-660 151.344,-680 216.344,-680 216.344,-660 151.344,-660"/>
<text text-anchor="start" x="156.844" y="-668" font-family="Times New Roman,serif" font-size="10.00">name = &quot;e10&quot;</text>
</g>
<!-- g3&#45;&#45;e6 -->
<g id="edge32" class="edge"><title>g3&#45;&#45;e6</title>
<path fill="none" stroke="black" d="M400.769,-839.953C358.876,-835.756 285.871,-822.964 238.344,-784 212.124,-762.504 196.782,-725.156 189.236,-701.553"/>
<text text-anchor="middle" x="196.123" y="-706.304" font-family="Times New Roman,serif" font-size="10.00">edges</text>
<text text-anchor="middle" x="391.285" y="-840.624" font-family="Times New Roman,serif" font-size="10.00">graph</text>
</g>
<!-- n7 -->
<g id="node7" class="node"><title>n7</title>
<polygon fill="none" stroke="black" points="172.344,-598 172.344,-615 233.344,-615 233.344,-598 172.344,-598"/>
<text text-anchor="start" x="182.844" y="-604.5" font-family="Times New Roman,serif" font-size="10.00"> </text>
<text text-anchor="start" x="185.844" y="-604.5" font-family="Times New Roman,serif" font-size="10.00">n7 :Node</text>
<polygon fill="none" stroke="black" points="172.344,-578 172.344,-598 233.344,-598 233.344,-578 172.344,-578"/>
<text text-anchor="start" x="177.844" y="-586" font-family="Times New Roman,serif" font-size="10.00">name = &quot;n2&quot;</text>
</g>
<!-- g3&#45;&#45;n7 -->
<g id="edge48" class="edge"><title>g3&#45;&#45;n7</title>
<path fill="none" stroke="black" d="M400.957,-838.273C365.728,-832.555 309.96,-818.39 276.344,-784 234.295,-740.981 256.004,-711.308 232.344,-656 227.083,-643.701 220.298,-630.417 214.512,-619.67"/>
<text text-anchor="middle" x="222.513" y="-623.168" font-family="Times New Roman,serif" font-size="10.00">nodes</text>
<text text-anchor="middle" x="391.295" y="-838.348" font-family="Times New Roman,serif" font-size="10.00">graph</text>
</g>
<!-- e8 -->
<g id="node8" class="node"><title>e8</title>
<polygon fill="none" stroke="black" points="170.344,-516 170.344,-533 235.344,-533 235.344,-516 170.344,-516"/>
<text text-anchor="start" x="184.344" y="-522.5" font-family="Times New Roman,serif" font-size="10.00"> </text>
<text text-anchor="start" x="187.344" y="-522.5" font-family="Times New Roman,serif" font-size="10.00">e8 :Edge</text>
<polygon fill="none" stroke="black" points="170.344,-496 170.344,-516 235.344,-516 235.344,-496 170.344,-496"/>
<text text-anchor="start" x="175.844" y="-504" font-family="Times New Roman,serif" font-size="10.00">name = &quot;e11&quot;</text>
</g>
<!-- g3&#45;&#45;e8 -->
<g id="edge34" class="edge"><title>g3&#45;&#45;e8</title>
<path fill="none" stroke="black" d="M401.084,-840.351C353.664,-836.591 263.9,-824.277 200.344,-784 180.468,-771.404 141.248,-724.164 133.344,-702 113.981,-647.7 128.183,-625.372 154.344,-574 161.047,-560.839 171.184,-547.996 180.419,-537.754"/>
<text text-anchor="middle" x="177.565" y="-544.839" font-family="Times New Roman,serif" font-size="10.00">edges</text>
<text text-anchor="middle" x="391.675" y="-841.238" font-family="Times New Roman,serif" font-size="10.00">graph</text>
</g>
<!-- n9 -->
<g id="node9" class="node"><title>n9</title>
<polygon fill="none" stroke="black" points="194.344,-434 194.344,-451 255.344,-451 255.344,-434 194.344,-434"/>
<text text-anchor="start" x="204.844" y="-440.5" font-family="Times New Roman,serif" font-size="10.00"> </text>
<text text-anchor="start" x="207.844" y="-440.5" font-family="Times New Roman,serif" font-size="10.00">n9 :Node</text>
<polygon fill="none" stroke="black" points="194.344,-414 194.344,-434 255.344,-434 255.344,-414 194.344,-414"/>
<text text-anchor="start" x="199.844" y="-422" font-family="Times New Roman,serif" font-size="10.00">name = &quot;n3&quot;</text>
</g>
<!-- g3&#45;&#45;n9 -->
<g id="edge50" class="edge"><title>g3&#45;&#45;n9</title>
<path fill="none" stroke="black" d="M400.882,-834.518C373.719,-826.558 336.022,-811.248 314.344,-784 284.811,-746.878 290.344,-727.437 290.344,-680 290.344,-680 290.344,-680 290.344,-596 290.344,-542.398 258.971,-485.702 239.486,-455.658"/>
<text text-anchor="middle" x="247.891" y="-458.576" font-family="Times New Roman,serif" font-size="10.00">nodes</text>
<text text-anchor="middle" x="390.975" y="-833.374" font-family="Times New Roman,serif" font-size="10.00">graph</text>
</g>
<!-- e10 -->
<g id="node10" class="node"><title>e10</title>
<polygon fill="none" stroke="black" points="44.3443,-352 44.3443,-369 109.344,-369 109.344,-352 44.3443,-352"/>
<text text-anchor="start" x="55.8443" y="-358.5" font-family="Times New Roman,serif" font-size="10.00"> </text>
<text text-anchor="start" x="58.8443" y="-358.5" font-family="Times New Roman,serif" font-size="10.00">e10 :Edge</text>
<polygon fill="none" stroke="black" points="44.3443,-332 44.3443,-352 109.344,-352 109.344,-332 44.3443,-332"/>
<text text-anchor="start" x="49.8443" y="-340" font-family="Times New Roman,serif" font-size="10.00">name = &quot;e12&quot;</text>
</g>
<!-- g3&#45;&#45;e10 -->
<g id="edge16" class="edge"><title>g3&#45;&#45;e10</title>
<path fill="none" stroke="black" d="M400.901,-841.644C318.825,-840.044 105.992,-831.321 57.3443,-784 23.6631,-751.237 38.3443,-726.987 38.3443,-680 38.3443,-680 38.3443,-680 38.3443,-514 38.3443,-462.579 56.7157,-404.345 67.9108,-373.632"/>
<text text-anchor="middle" x="68.8646" y="-381.086" font-family="Times New Roman,serif" font-size="10.00">edges</text>
<text text-anchor="middle" x="391.733" y="-843.136" font-family="Times New Roman,serif" font-size="10.00">graph</text>
</g>
<!-- e11 -->
<g id="node11" class="node"><title>e11</title>
<polygon fill="none" stroke="black" points="365.344,-352 365.344,-369 430.344,-369 430.344,-352 365.344,-352"/>
<text text-anchor="start" x="376.844" y="-358.5" font-family="Times New Roman,serif" font-size="10.00"> </text>
<text text-anchor="start" x="379.844" y="-358.5" font-family="Times New Roman,serif" font-size="10.00">e11 :Edge</text>
<polygon fill="none" stroke="black" points="365.344,-332 365.344,-352 430.344,-352 430.344,-332 365.344,-332"/>
<text text-anchor="start" x="370.844" y="-340" font-family="Times New Roman,serif" font-size="10.00">name = &quot;e13&quot;</text>
</g>
<!-- g3&#45;&#45;e11 -->
<g id="edge18" class="edge"><title>g3&#45;&#45;e11</title>
<path fill="none" stroke="black" d="M415.122,-824.873C404.786,-814.118 392.52,-799.402 385.344,-784 365.5,-741.409 366.344,-726.987 366.344,-680 366.344,-680 366.344,-680 366.344,-514 366.344,-463.029 381.332,-404.619 390.464,-373.757"/>
<text text-anchor="middle" x="392.017" y="-381.136" font-family="Times New Roman,serif" font-size="10.00">edges</text>
<text text-anchor="middle" x="405.829" y="-818.679" font-family="Times New Roman,serif" font-size="10.00">graph</text>
</g>
<!-- n12 -->
<g id="node12" class="node"><title>n12</title>
<polygon fill="none" stroke="black" points="536.344,-270 536.344,-287 597.344,-287 597.344,-270 536.344,-270"/>
<text text-anchor="start" x="544.844" y="-276.5" font-family="Times New Roman,serif" font-size="10.00"> </text>
<text text-anchor="start" x="547.844" y="-276.5" font-family="Times New Roman,serif" font-size="10.00">n12 :Node</text>
<polygon fill="none" stroke="black" points="536.344,-250 536.344,-270 597.344,-270 597.344,-250 536.344,-250"/>
<text text-anchor="start" x="541.844" y="-258" font-family="Times New Roman,serif" font-size="10.00">name = &quot;n4&quot;</text>
</g>
<!-- g3&#45;&#45;n12 -->
<g id="edge36" class="edge"><title>g3&#45;&#45;n12</title>
<path fill="none" stroke="black" d="M465.66,-837.779C498.399,-831.731 548,-817.368 575.344,-784 605.179,-747.594 595.344,-727.069 595.344,-680 595.344,-680 595.344,-680 595.344,-432 595.344,-380.999 581.245,-322.359 572.708,-291.529"/>
<text text-anchor="middle" x="579.148" y="-296.68" font-family="Times New Roman,serif" font-size="10.00">nodes</text>
<text text-anchor="middle" x="473.709" y="-829.345" font-family="Times New Roman,serif" font-size="10.00">graph</text>
</g>
<!-- e13 -->
<g id="node13" class="node"><title>e13</title>
<polygon fill="none" stroke="black" points="552.344,-188 552.344,-205 617.344,-205 617.344,-188 552.344,-188"/>
<text text-anchor="start" x="563.844" y="-194.5" font-family="Times New Roman,serif" font-size="10.00"> </text>
<text text-anchor="start" x="566.844" y="-194.5" font-family="Times New Roman,serif" font-size="10.00">e13 :Edge</text>
<polygon fill="none" stroke="black" points="552.344,-168 552.344,-188 617.344,-188 617.344,-168 552.344,-168"/>
<text text-anchor="start" x="557.844" y="-176" font-family="Times New Roman,serif" font-size="10.00">name = &quot;e14&quot;</text>
</g>
<!-- g3&#45;&#45;e13 -->
<g id="edge20" class="edge"><title>g3&#45;&#45;e13</title>
<path fill="none" stroke="black" d="M465.895,-839.293C503.336,-834.461 564.273,-821.059 600.344,-784 634.168,-749.25 633.344,-728.493 633.344,-680 633.344,-680 633.344,-680 633.344,-350 633.344,-302.931 628.455,-290.578 613.344,-246 609.116,-233.525 602.695,-220.338 596.969,-209.696"/>
<text text-anchor="middle" x="604.954" y="-213.215" font-family="Times New Roman,serif" font-size="10.00">edges</text>
<text text-anchor="middle" x="474.259" y="-831.311" font-family="Times New Roman,serif" font-size="10.00">graph</text>
</g>
<!-- n14 -->
<g id="node14" class="node"><title>n14</title>
<polygon fill="none" stroke="black" points="554.344,-106 554.344,-123 615.344,-123 615.344,-106 554.344,-106"/>
<text text-anchor="start" x="562.844" y="-112.5" font-family="Times New Roman,serif" font-size="10.00"> </text>
<text text-anchor="start" x="565.844" y="-112.5" font-family="Times New Roman,serif" font-size="10.00">n14 :Node</text>
<polygon fill="none" stroke="black" points="554.344,-86 554.344,-106 615.344,-106 615.344,-86 554.344,-86"/>
<text text-anchor="start" x="559.844" y="-94" font-family="Times New Roman,serif" font-size="10.00">name = &quot;n5&quot;</text>
</g>
<!-- g3&#45;&#45;n14 -->
<g id="edge38" class="edge"><title>g3&#45;&#45;n14</title>
<path fill="none" stroke="black" d="M465.622,-840.822C508.235,-837.592 583.242,-825.871 629.344,-784 666.245,-750.485 671.344,-729.849 671.344,-680 671.344,-680 671.344,-680 671.344,-268 671.344,-218.789 658.048,-206.561 633.344,-164 625.801,-151.003 615.259,-138.08 605.885,-127.742"/>
<text text-anchor="middle" x="615.078" y="-129.177" font-family="Times New Roman,serif" font-size="10.00">nodes</text>
<text text-anchor="middle" x="474.265" y="-833.293" font-family="Times New Roman,serif" font-size="10.00">graph</text>
</g>
<!-- e15 -->
<g id="node15" class="node"><title>e15</title>
<polygon fill="none" stroke="black" points="312.344,-24 312.344,-41 377.344,-41 377.344,-24 312.344,-24"/>
<text text-anchor="start" x="323.844" y="-30.5" font-family="Times New Roman,serif" font-size="10.00"> </text>
<text text-anchor="start" x="326.844" y="-30.5" font-family="Times New Roman,serif" font-size="10.00">e15 :Edge</text>
<polygon fill="none" stroke="black" points="312.344,-4 312.344,-24 377.344,-24 377.344,-4 312.344,-4"/>
<text text-anchor="start" x="317.844" y="-12" font-family="Times New Roman,serif" font-size="10.00">name = &quot;e18&quot;</text>
</g>
<!-- g3&#45;&#45;e15 -->
<g id="edge22" class="edge"><title>g3&#45;&#45;e15</title>
<path fill="none" stroke="black" d="M407.128,-824.776C393.081,-814.403 376.435,-800.101 365.344,-784 337.513,-743.598 328.344,-729.06 328.344,-680 328.344,-680 328.344,-680 328.344,-186 328.344,-135.553 336.123,-76.6946 340.833,-45.6814"/>
<text text-anchor="middle" x="343.688" y="-52.7652" font-family="Times New Roman,serif" font-size="10.00">edges</text>
<text text-anchor="middle" x="397.346" y="-820.197" font-family="Times New Roman,serif" font-size="10.00">graph</text>
</g>
<!-- e16 -->
<g id="node16" class="node"><title>e16</title>
<polygon fill="none" stroke="black" points="192.344,-24 192.344,-41 257.344,-41 257.344,-24 192.344,-24"/>
<text text-anchor="start" x="203.844" y="-30.5" font-family="Times New Roman,serif" font-size="10.00"> </text>
<text text-anchor="start" x="206.844" y="-30.5" font-family="Times New Roman,serif" font-size="10.00">e16 :Edge</text>
<polygon fill="none" stroke="black" points="192.344,-4 192.344,-24 257.344,-24 257.344,-4 192.344,-4"/>
<text text-anchor="start" x="197.844" y="-12" font-family="Times New Roman,serif" font-size="10.00">name = &quot;e15&quot;</text>
</g>
<!-- g3&#45;&#45;e16 -->
<g id="edge24" class="edge"><title>g3&#45;&#45;e16</title>
<path fill="none" stroke="black" d="M400.87,-841.681C315.329,-840.18 86.5866,-831.694 31.3443,-784 -5.16385,-752.48 0.344256,-728.232 0.344256,-680 0.344256,-680 0.344256,-680 0.344256,-186 0.344256,-96.3724 119.548,-51.3003 184.039,-33.4741"/>
<text text-anchor="middle" x="176.554" y="-37.6059" font-family="Times New Roman,serif" font-size="10.00">edges</text>
<text text-anchor="middle" x="391.711" y="-843.194" font-family="Times New Roman,serif" font-size="10.00">graph</text>
</g>
<!-- e17 -->
<g id="node17" class="node"><title>e17</title>
<polygon fill="none" stroke="black" points="714.344,-24 714.344,-41 779.344,-41 779.344,-24 714.344,-24"/>
<text text-anchor="start" x="725.844" y="-30.5" font-family="Times New Roman,serif" font-size="10.00"> </text>
<text text-anchor="start" x="728.844" y="-30.5" font-family="Times New Roman,serif" font-size="10.00">e17 :Edge</text>
<polygon fill="none" stroke="black" points="714.344,-4 714.344,-24 779.344,-24 779.344,-4 714.344,-4"/>
<text text-anchor="start" x="719.844" y="-12" font-family="Times New Roman,serif" font-size="10.00">name = &quot;e19&quot;</text>
</g>
<!-- g3&#45;&#45;e17 -->
<g id="edge26" class="edge"><title>g3&#45;&#45;e17</title>
<path fill="none" stroke="black" d="M465.874,-838.018C564.407,-825.902 853.369,-789.945 861.344,-784 902.013,-753.687 908.344,-730.723 908.344,-680 908.344,-680 908.344,-680 908.344,-186 908.344,-117.389 834.789,-67.6866 786.806,-42.5632"/>
<text text-anchor="middle" x="796.784" y="-40.7197" font-family="Times New Roman,serif" font-size="10.00">edges</text>
<text text-anchor="middle" x="474.351" y="-830.213" font-family="Times New Roman,serif" font-size="10.00">graph</text>
</g>
<!-- n18 -->
<g id="node18" class="node"><title>n18</title>
<polygon fill="none" stroke="black" points="403.344,-762 403.344,-779 464.344,-779 464.344,-762 403.344,-762"/>
<text text-anchor="start" x="411.844" y="-768.5" font-family="Times New Roman,serif" font-size="10.00"> </text>
<text text-anchor="start" x="414.844" y="-768.5" font-family="Times New Roman,serif" font-size="10.00">n18 :Node</text>
<polygon fill="none" stroke="black" points="403.344,-742 403.344,-762 464.344,-762 464.344,-742 403.344,-742"/>
<text text-anchor="start" x="408.844" y="-750" font-family="Times New Roman,serif" font-size="10.00">name = &quot;n6&quot;</text>
</g>
<!-- g3&#45;&#45;n18 -->
<g id="edge40" class="edge"><title>g3&#45;&#45;n18</title>
<path fill="none" stroke="black" d="M433.344,-824.641C433.344,-812.601 433.344,-796.48 433.344,-783.608"/>
<text text-anchor="middle" x="437.57" y="-790.171" font-family="Times New Roman,serif" font-size="10.00">nodes</text>
<text text-anchor="middle" x="429.118" y="-813.078" font-family="Times New Roman,serif" font-size="10.00">graph</text>
</g>
<!-- n19 -->
<g id="node19" class="node"><title>n19</title>
<polygon fill="none" stroke="black" points="498.344,-762 498.344,-779 559.344,-779 559.344,-762 498.344,-762"/>
<text text-anchor="start" x="506.844" y="-768.5" font-family="Times New Roman,serif" font-size="10.00"> </text>
<text text-anchor="start" x="509.844" y="-768.5" font-family="Times New Roman,serif" font-size="10.00">n19 :Node</text>
<polygon fill="none" stroke="black" points="498.344,-742 498.344,-762 559.344,-762 559.344,-742 498.344,-742"/>
<text text-anchor="start" x="503.844" y="-750" font-family="Times New Roman,serif" font-size="10.00">name = &quot;n7&quot;</text>
</g>
<!-- g3&#45;&#45;n19 -->
<g id="edge42" class="edge"><title>g3&#45;&#45;n19</title>
<path fill="none" stroke="black" d="M453.958,-824.641C468.255,-812.601 487.399,-796.48 502.685,-783.608"/>
<text text-anchor="middle" x="498.475" y="-790.178" font-family="Times New Roman,serif" font-size="10.00">nodes</text>
<text text-anchor="middle" x="458.168" y="-813.071" font-family="Times New Roman,serif" font-size="10.00">graph</text>
</g>
<!-- g3&#45;&#45;n4 -->
<g id="edge44" class="edge"><title>g3&#45;&#45;n4</title>
<path fill="none" stroke="black" d="M466.006,-838.619C525.606,-831.925 655.602,-814.892 761.344,-784 766.126,-782.603 771.061,-780.913 775.908,-779.097"/>
<text text-anchor="middle" x="768.883" y="-783.714" font-family="Times New Roman,serif" font-size="10.00">nodes</text>
<text text-anchor="middle" x="474.518" y="-830.871" font-family="Times New Roman,serif" font-size="10.00">graph</text>
</g>
<!-- e20 -->
<g id="node21" class="node"><title>e20</title>
<polygon fill="none" stroke="black" points="807.344,-680 807.344,-697 872.344,-697 872.344,-680 807.344,-680"/>
<text text-anchor="start" x="818.844" y="-686.5" font-family="Times New Roman,serif" font-size="10.00"> </text>
<text text-anchor="start" x="821.844" y="-686.5" font-family="Times New Roman,serif" font-size="10.00">e20 :Edge</text>
<polygon fill="none" stroke="black" points="807.344,-660 807.344,-680 872.344,-680 872.344,-660 807.344,-660"/>
<text text-anchor="start" x="812.844" y="-668" font-family="Times New Roman,serif" font-size="10.00">name = &quot;e16&quot;</text>
</g>
<!-- g3&#45;&#45;e20 -->
<g id="edge28" class="edge"><title>g3&#45;&#45;e20</title>
<path fill="none" stroke="black" d="M465.904,-841.059C520.755,-838.267 633.772,-827.259 717.344,-784 743.872,-770.269 743.743,-757.53 766.344,-738 780.797,-725.512 797.436,-712.213 811.175,-701.505"/>
<text text-anchor="middle" x="806.638" y="-707.917" font-family="Times New Roman,serif" font-size="10.00">edges</text>
<text text-anchor="middle" x="474.692" y="-833.787" font-family="Times New Roman,serif" font-size="10.00">graph</text>
</g>
<!-- e21 -->
<g id="node22" class="node"><title>e21</title>
<polygon fill="none" stroke="black" points="708.344,-680 708.344,-697 773.344,-697 773.344,-680 708.344,-680"/>
<text text-anchor="start" x="719.844" y="-686.5" font-family="Times New Roman,serif" font-size="10.00"> </text>
<text text-anchor="start" x="722.844" y="-686.5" font-family="Times New Roman,serif" font-size="10.00">e21 :Edge</text>
<polygon fill="none" stroke="black" points="708.344,-660 708.344,-680 773.344,-680 773.344,-660 708.344,-660"/>
<text text-anchor="start" x="713.844" y="-668" font-family="Times New Roman,serif" font-size="10.00">name = &quot;e17&quot;</text>
</g>
<!-- g3&#45;&#45;e21 -->
<g id="edge30" class="edge"><title>g3&#45;&#45;e21</title>
<path fill="none" stroke="black" d="M465.968,-842.766C517.767,-842.321 619.671,-834.474 685.344,-784 712.227,-763.339 727.372,-725.744 734.698,-701.863"/>
<text text-anchor="middle" x="735.935" y="-709.286" font-family="Times New Roman,serif" font-size="10.00">edges</text>
<text text-anchor="middle" x="474.931" y="-835.832" font-family="Times New Roman,serif" font-size="10.00">graph</text>
</g>
<!-- n5&#45;&#45;e6 -->
<g id="edge66" class="edge"><title>n5&#45;&#45;e6</title>
<path fill="none" stroke="black" d="M126.658,-738.14C137.754,-726.759 151.274,-712.893 162.326,-701.557"/>
<text text-anchor="middle" x="159.025" y="-708.496" font-family="Times New Roman,serif" font-size="10.00">outEdges</text>
<text text-anchor="middle" x="129.959" y="-726.2" font-family="Times New Roman,serif" font-size="10.00">src</text>
</g>
<!-- n5&#45;&#45;e10 -->
<g id="edge64" class="edge"><title>n5&#45;&#45;e10</title>
<path fill="none" stroke="black" d="M98.9801,-738.471C90.4435,-707.641 76.3443,-649.001 76.3443,-598 76.3443,-598 76.3443,-598 76.3443,-514 76.3443,-463.797 76.3443,-404.843 76.3443,-373.749"/>
<text text-anchor="middle" x="80.5704" y="-380.312" font-family="Times New Roman,serif" font-size="10.00">inEdges</text>
<text text-anchor="middle" x="92.5409" y="-728.32" font-family="Times New Roman,serif" font-size="10.00">tgt</text>
</g>
<!-- e6&#45;&#45;n7 -->
<g id="edge12" class="edge"><title>e6&#45;&#45;n7</title>
<path fill="none" stroke="black" d="M188.536,-656.14C191.239,-644.759 194.532,-630.893 197.224,-619.557"/>
<text text-anchor="middle" x="199.242" y="-626.851" font-family="Times New Roman,serif" font-size="10.00">tgt</text>
<text text-anchor="middle" x="186.519" y="-643.845" font-family="Times New Roman,serif" font-size="10.00">inEdges</text>
</g>
<!-- n7&#45;&#45;e8 -->
<g id="edge68" class="edge"><title>n7&#45;&#45;e8</title>
<path fill="none" stroke="black" d="M202.344,-574.14C202.344,-562.759 202.344,-548.893 202.344,-537.557"/>
<text text-anchor="middle" x="206.57" y="-544.12" font-family="Times New Roman,serif" font-size="10.00">outEdges</text>
<text text-anchor="middle" x="198.118" y="-562.577" font-family="Times New Roman,serif" font-size="10.00">src</text>
</g>
<!-- e8&#45;&#45;n9 -->
<g id="edge14" class="edge"><title>e8&#45;&#45;n9</title>
<path fill="none" stroke="black" d="M208.356,-492.14C211.486,-480.759 215.299,-466.893 218.416,-455.557"/>
<text text-anchor="middle" x="220.088" y="-462.916" font-family="Times New Roman,serif" font-size="10.00">tgt</text>
<text text-anchor="middle" x="206.684" y="-479.78" font-family="Times New Roman,serif" font-size="10.00">inEdges</text>
</g>
<!-- n9&#45;&#45;e10 -->
<g id="edge70" class="edge"><title>n9&#45;&#45;e10</title>
<path fill="none" stroke="black" d="M185.845,-411.19C164.433,-399.616 137.824,-385.233 116.199,-373.543"/>
<text text-anchor="middle" x="126.181" y="-371.635" font-family="Times New Roman,serif" font-size="10.00">outEdges</text>
<text text-anchor="middle" x="175.863" y="-408.098" font-family="Times New Roman,serif" font-size="10.00">src</text>
</g>
<!-- n9&#45;&#45;e11 -->
<g id="edge72" class="edge"><title>n9&#45;&#45;e11</title>
<path fill="none" stroke="black" d="M262.739,-414.245C290.711,-401.31 328.524,-383.824 356.951,-370.679"/>
<text text-anchor="middle" x="350.498" y="-375.819" font-family="Times New Roman,serif" font-size="10.00">outEdges</text>
<text text-anchor="middle" x="269.191" y="-404.106" font-family="Times New Roman,serif" font-size="10.00">src</text>
</g>
<!-- n9&#45;&#45;e16 -->
<g id="edge74" class="edge"><title>n9&#45;&#45;e16</title>
<path fill="none" stroke="black" d="M224.344,-410.251C224.344,-379.157 224.344,-320.203 224.344,-270 224.344,-270 224.344,-270 224.344,-186 224.344,-135.797 224.344,-76.8425 224.344,-45.7485"/>
<text text-anchor="middle" x="228.57" y="-52.3116" font-family="Times New Roman,serif" font-size="10.00">inEdges</text>
<text text-anchor="middle" x="220.118" y="-398.688" font-family="Times New Roman,serif" font-size="10.00">tgt</text>
</g>
<!-- e11&#45;&#45;n12 -->
<g id="edge8" class="edge"><title>e11&#45;&#45;n12</title>
<path fill="none" stroke="black" d="M437.824,-330.838C465.166,-317.895 501.04,-300.913 527.936,-288.181"/>
<text text-anchor="middle" x="521.553" y="-293.379" font-family="Times New Roman,serif" font-size="10.00">tgt</text>
<text text-anchor="middle" x="444.207" y="-320.64" font-family="Times New Roman,serif" font-size="10.00">inEdges</text>
</g>
<!-- n12&#45;&#45;e13 -->
<g id="edge52" class="edge"><title>n12&#45;&#45;e13</title>
<path fill="none" stroke="black" d="M571.263,-246.14C573.823,-234.759 576.943,-220.893 579.494,-209.557"/>
<text text-anchor="middle" x="581.628" y="-216.827" font-family="Times New Roman,serif" font-size="10.00">outEdges</text>
<text text-anchor="middle" x="569.129" y="-233.87" font-family="Times New Roman,serif" font-size="10.00">src</text>
</g>
<!-- e13&#45;&#45;n14 -->
<g id="edge10" class="edge"><title>e13&#45;&#45;n14</title>
<path fill="none" stroke="black" d="M584.344,-164.14C584.344,-152.759 584.344,-138.893 584.344,-127.557"/>
<text text-anchor="middle" x="588.57" y="-134.12" font-family="Times New Roman,serif" font-size="10.00">tgt</text>
<text text-anchor="middle" x="580.118" y="-152.577" font-family="Times New Roman,serif" font-size="10.00">inEdges</text>
</g>
<!-- n14&#45;&#45;e15 -->
<g id="edge54" class="edge"><title>n14&#45;&#45;e15</title>
<path fill="none" stroke="black" d="M546.05,-91.2353C501.981,-76.5455 429.913,-52.5228 384.908,-37.5212"/>
<text text-anchor="middle" x="394.842" y="-33.8779" font-family="Times New Roman,serif" font-size="10.00">outEdges</text>
<text text-anchor="middle" x="536.116" y="-89.8786" font-family="Times New Roman,serif" font-size="10.00">src</text>
</g>
<!-- n14&#45;&#45;e16 -->
<g id="edge56" class="edge"><title>n14&#45;&#45;e16</title>
<path fill="none" stroke="black" d="M546.049,-97.6887C490.277,-88.1936 383.62,-68.8866 294.344,-46 284.719,-43.5325 274.461,-40.5263 264.849,-37.5387"/>
<text text-anchor="middle" x="274.756" y="-33.6755" font-family="Times New Roman,serif" font-size="10.00">outEdges</text>
<text text-anchor="middle" x="536.399" y="-97.8133" font-family="Times New Roman,serif" font-size="10.00">src</text>
</g>
<!-- n14&#45;&#45;e17 -->
<g id="edge58" class="edge"><title>n14&#45;&#45;e17</title>
<path fill="none" stroke="black" d="M622.736,-85.0411C647.812,-72.6581 680.503,-56.5141 705.967,-43.9392"/>
<text text-anchor="middle" x="699.712" y="-49.2414" font-family="Times New Roman,serif" font-size="10.00">inEdges</text>
<text text-anchor="middle" x="628.991" y="-74.7388" font-family="Times New Roman,serif" font-size="10.00">tgt</text>
</g>
<!-- n4&#45;&#45;e20 -->
<g id="edge60" class="edge"><title>n4&#45;&#45;e20</title>
<path fill="none" stroke="black" d="M821.176,-738.14C824.732,-726.759 829.065,-712.893 832.608,-701.557"/>
<text text-anchor="middle" x="833.938" y="-708.968" font-family="Times New Roman,serif" font-size="10.00">outEdges_inEdges</text>
<text text-anchor="middle" x="819.845" y="-725.729" font-family="Times New Roman,serif" font-size="10.00">src_tgt</text>
</g>
<!-- n4&#45;&#45;e21 -->
<g id="edge62" class="edge"><title>n4&#45;&#45;e21</title>
<path fill="none" stroke="black" d="M794.123,-738.14C783.596,-726.759 770.77,-712.893 760.284,-701.557"/>
<text text-anchor="middle" x="769.541" y="-702.84" font-family="Times New Roman,serif" font-size="10.00">outEdges_inEdges</text>
<text text-anchor="middle" x="784.867" y="-731.856" font-family="Times New Roman,serif" font-size="10.00">src_tgt</text>
</g>
</g>
</svg>
