<?xml version="1.0" encoding="UTF-8" standalone="no"?>
<!DOCTYPE svg PUBLIC "-//W3C//DTD SVG 1.1//EN"
 "http://www.w3.org/Graphics/SVG/1.1/DTD/svg11.dtd">
<!-- Generated by graphviz version 2.28.0 (20110507.0327)
 -->
<!-- Title: ObjectDiagram Pages: 1 -->
<svg width="935pt" height="1079pt"
 viewBox="0.00 0.00 935.02 1079.00" xmlns="http://www.w3.org/2000/svg" xmlns:xlink="http://www.w3.org/1999/xlink">
<g id="graph1" class="graph" transform="scale(1 1) rotate(0) translate(4 1075)">
<title>ObjectDiagram</title>
<polygon fill="white" stroke="white" points="-4,5 -4,-1075 932.02,-1075 932.02,5 -4,5"/>
<g id="graph2" class="cluster"><title>cluster_n3</title>
<polygon fill="none" stroke="grey" points="29.0203,-812 29.0203,-921 211.02,-921 211.02,-812 29.0203,-812"/>
<image xlink:href="../../SDMLib/doc/forbiddensign.svg" width="30px" height="30px" preserveAspectRatio="xMinYMin meet" x="78.5203" y="-912"/>
<text text-anchor="start" x="115.02" y="-893.8" font-family="Times New Roman,serif" font-size="14.00">NAC n3</text>
</g>
<!-- g1 -->
<g id="node1" class="node"><title>g1</title>
<polygon fill="deepskyblue" stroke="deepskyblue" points="231.52,-1015.5 231.52,-1066.5 284.52,-1066.5 284.52,-1015.5 231.52,-1015.5"/>
<text text-anchor="start" x="255.02" y="-1056.5" font-family="Times New Roman,serif" font-size="10.00">«bound»</text>
<polygon fill="none" stroke="black" points="232.02,-1035 232.02,-1051 285.02,-1051 285.02,-1035 232.02,-1035"/>
<text text-anchor="start" x="235.52" y="-1041" font-family="Times New Roman,serif" font-size="10.00"> </text>
<text text-anchor="start" x="238.52" y="-1041" font-family="Times New Roman,serif" font-size="10.00"> g1 :GraphPO </text>
<polygon fill="none" stroke="black" points="232.02,-1015 232.02,-1035 285.02,-1035 285.02,-1015 232.02,-1015"/>
<text text-anchor="start" x="256.02" y="-1023" font-family="Times New Roman,serif" font-size="10.00"> &#160;</text>
</g>
<!-- e2 -->
<g id="node2" class="node"><title>e2</title>
<polygon fill="deepskyblue" stroke="deepskyblue" points="138.02,-933.5 138.02,-970.5 194.02,-970.5 194.02,-933.5 138.02,-933.5"/>
<polygon fill="none" stroke="black" points="138.02,-953 138.02,-970 194.02,-970 194.02,-953 138.02,-953"/>
<text text-anchor="start" x="141.52" y="-959.5" font-family="Times New Roman,serif" font-size="10.00"> </text>
<text text-anchor="start" x="144.52" y="-959.5" font-family="Times New Roman,serif" font-size="10.00"> e2 :EdgePO </text>
<polygon fill="none" stroke="black" points="138.02,-933 138.02,-953 194.02,-953 194.02,-933 138.02,-933"/>
<text text-anchor="start" x="163.52" y="-941" font-family="Times New Roman,serif" font-size="10.00"> &#160;</text>
</g>
<!-- g1&#45;&#45;e2 -->
<g id="edge13" class="edge"><title>g1&#45;&#45;e2</title>
<path fill="none" stroke="black" d="M227.641,-1011.27C214.975,-999.294 200.516,-985.621 188.789,-974.531"/>
<text text-anchor="middle" x="198.277" y="-975.187" font-family="Times New Roman,serif" font-size="10.00">edges</text>
</g>
<!-- g6 -->
<g id="node7" class="node"><title>g6</title>
<a xlink:href="../examples/org/sdmlib/examples/helloworld/Graph.java" xlink:title="&lt;TABLE&gt;">
<polygon fill="none" stroke="black" points="446.02,-834 446.02,-851 495.02,-851 495.02,-834 446.02,-834"/>
<text text-anchor="start" x="449.52" y="-840.5" font-family="Times New Roman,serif" font-size="10.00"> </text>
<text text-anchor="start" x="452.52" y="-840.5" font-family="Times New Roman,serif" font-size="10.00">g6 :Graph</text>
</a>
</g>
<!-- g1&#45;&#45;g6 -->
<g id="edge3" class="edge"><title>g1&#45;&#45;g6</title>
<path fill="none" stroke="black" stroke-dasharray="1,5" d="M288.847,-1011.5C333.519,-970.199 414.892,-894.968 451.411,-861.205"/>
<text text-anchor="middle" x="447.625" y="-867.961" font-family="Times New Roman,serif" font-size="10.00">match</text>
</g>
<!-- allMatches_e2 -->
<g id="node3" class="node"><title>allMatches_e2</title>
<text text-anchor="middle" x="252.02" y="-840.5" font-family="Times New Roman,serif" font-size="10.00">allMatches</text>
</g>
<!-- e2&#45;&#45;allMatches_e2 -->
<g id="edge5" class="edge"><title>e2&#45;&#45;allMatches_e2</title>
<path fill="none" stroke="black" stroke-dasharray="1,5" d="M202.156,-932.268C206.825,-928.912 211.276,-925.145 215.02,-921 230.828,-903.501 241.273,-878.036 246.918,-861.25"/>
</g>
<!-- n4 -->
<g id="node5" class="node"><title>n4</title>
<polygon fill="deepskyblue" stroke="deepskyblue" points="137.02,-824.5 137.02,-861.5 195.02,-861.5 195.02,-824.5 137.02,-824.5"/>
<polygon fill="none" stroke="black" points="137.02,-844 137.02,-861 195.02,-861 195.02,-844 137.02,-844"/>
<text text-anchor="start" x="140.52" y="-850.5" font-family="Times New Roman,serif" font-size="10.00"> </text>
<text text-anchor="start" x="143.52" y="-850.5" font-family="Times New Roman,serif" font-size="10.00"> n4 :NodePO </text>
<polygon fill="none" stroke="black" points="137.02,-824 137.02,-844 195.02,-844 195.02,-824 137.02,-824"/>
<text text-anchor="start" x="163.52" y="-832" font-family="Times New Roman,serif" font-size="10.00"> &#160;</text>
</g>
<!-- e2&#45;&#45;n4 -->
<g id="edge15" class="edge"><title>e2&#45;&#45;n4</title>
<path fill="none" stroke="black" d="M166.02,-929.347C166.02,-910.783 166.02,-884.176 166.02,-865.621"/>
<text text-anchor="middle" x="170.247" y="-872.184" font-family="Times New Roman,serif" font-size="10.00">tgt</text>
</g>
<!-- n5 -->
<g id="node6" class="node"><title>n5</title>
<polygon fill="deepskyblue" stroke="deepskyblue" points="45.0203,-824.5 45.0203,-861.5 103.02,-861.5 103.02,-824.5 45.0203,-824.5"/>
<polygon fill="none" stroke="black" points="45.0203,-844 45.0203,-861 103.02,-861 103.02,-844 45.0203,-844"/>
<text text-anchor="start" x="48.5203" y="-850.5" font-family="Times New Roman,serif" font-size="10.00"> </text>
<text text-anchor="start" x="51.5203" y="-850.5" font-family="Times New Roman,serif" font-size="10.00"> n5 :NodePO </text>
<polygon fill="none" stroke="black" points="45.0203,-824 45.0203,-844 103.02,-844 103.02,-824 45.0203,-824"/>
<text text-anchor="start" x="71.5203" y="-832" font-family="Times New Roman,serif" font-size="10.00"> &#160;</text>
</g>
<!-- e2&#45;&#45;n5 -->
<g id="edge17" class="edge"><title>e2&#45;&#45;n5</title>
<path fill="none" stroke="black" d="M129.611,-929.576C126.195,-926.895 122.928,-924.024 120.02,-921 104.372,-904.723 91.6927,-882.182 83.6394,-865.695"/>
<text text-anchor="middle" x="91.4681" y="-869.417" font-family="Times New Roman,serif" font-size="10.00">src</text>
</g>
<!-- e7 -->
<g id="node25" class="node"><title>e7</title>
<a xlink:href="../examples/org/sdmlib/examples/helloworld/Edge.java" xlink:title="&lt;TABLE&gt;">
<polygon fill="none" stroke="black" points="18.0203,-680 18.0203,-697 83.0203,-697 83.0203,-680 18.0203,-680"/>
<text text-anchor="start" x="32.0203" y="-686.5" font-family="Times New Roman,serif" font-size="10.00"> </text>
<text text-anchor="start" x="35.0203" y="-686.5" font-family="Times New Roman,serif" font-size="10.00">e7 :Edge</text>
</a>
<polygon fill="none" stroke="black" points="18.0203,-660 18.0203,-680 83.0203,-680 83.0203,-660 18.0203,-660"/>
<text text-anchor="start" x="23.0203" y="-668" font-family="Times New Roman,serif" font-size="10.00">name = &quot;e17&quot;</text>
</g>
<!-- e2&#45;&#45;e7 -->
<g id="edge7" class="edge"><title>e2&#45;&#45;e7</title>
<path fill="none" stroke="black" stroke-dasharray="1,5" d="M129.822,-948.374C92.4994,-944.824 37.9732,-936.999 25.0203,-921 -27.3882,-856.268 16.2278,-747.501 38.6815,-701.538"/>
<text text-anchor="middle" x="38.684" y="-709.038" font-family="Times New Roman,serif" font-size="10.00">match</text>
</g>
<!-- n8 -->
<g id="node23" class="node"><title>n8</title>
<a xlink:href="../examples/org/sdmlib/examples/helloworld/Node.java" xlink:title="&lt;TABLE&gt;">
<polygon fill="none" stroke="black" points="45.0203,-762 45.0203,-779 106.02,-779 106.02,-762 45.0203,-762"/>
<text text-anchor="start" x="55.5203" y="-768.5" font-family="Times New Roman,serif" font-size="10.00"> </text>
<text text-anchor="start" x="58.5203" y="-768.5" font-family="Times New Roman,serif" font-size="10.00">n8 :Node</text>
</a>
<polygon fill="none" stroke="black" points="45.0203,-742 45.0203,-762 106.02,-762 106.02,-742 45.0203,-742"/>
<text text-anchor="start" x="50.0203" y="-750" font-family="Times New Roman,serif" font-size="10.00">name = &quot;n8&quot;</text>
</g>
<!-- n4&#45;&#45;n8 -->
<g id="edge9" class="edge"><title>n4&#45;&#45;n8</title>
<path fill="none" stroke="black" stroke-dasharray="1,5" d="M141.154,-820.14C128.209,-808.759 112.436,-794.893 99.5413,-783.557"/>
<text text-anchor="middle" x="109.138" y="-783.867" font-family="Times New Roman,serif" font-size="10.00">match</text>
</g>
<!-- n5&#45;&#45;n8 -->
<g id="edge11" class="edge"><title>n5&#45;&#45;n8</title>
<path fill="none" stroke="black" stroke-dasharray="1,5" d="M74.2936,-820.14C74.4358,-808.759 74.6092,-794.893 74.7509,-783.557"/>
<text text-anchor="middle" x="78.8634" y="-790.172" font-family="Times New Roman,serif" font-size="10.00">match</text>
</g>
<!-- n9 -->
<g id="node8" class="node"><title>n9</title>
<a xlink:href="../examples/org/sdmlib/examples/helloworld/Node.java" xlink:title="&lt;TABLE&gt;">
<polygon fill="none" stroke="black" points="297.02,-762 297.02,-779 358.02,-779 358.02,-762 297.02,-762"/>
<text text-anchor="start" x="307.52" y="-768.5" font-family="Times New Roman,serif" font-size="10.00"> </text>
<text text-anchor="start" x="310.52" y="-768.5" font-family="Times New Roman,serif" font-size="10.00">n9 :Node</text>
</a>
<polygon fill="none" stroke="black" points="297.02,-742 297.02,-762 358.02,-762 358.02,-742 297.02,-742"/>
<text text-anchor="start" x="302.02" y="-750" font-family="Times New Roman,serif" font-size="10.00">name = &quot;n1&quot;</text>
</g>
<!-- g6&#45;&#45;n9 -->
<g id="edge19" class="edge"><title>g6&#45;&#45;n9</title>
<path fill="none" stroke="black" d="M439.343,-824.838C417.678,-812.717 388.492,-796.389 365.301,-783.416"/>
<text text-anchor="middle" x="375.273" y="-781.652" font-family="Times New Roman,serif" font-size="10.00">nodes</text>
<text text-anchor="middle" x="429.37" y="-821.601" font-family="Times New Roman,serif" font-size="10.00">graph</text>
</g>
<!-- e10 -->
<g id="node9" class="node"><title>e10</title>
<a xlink:href="../examples/org/sdmlib/examples/helloworld/Edge.java" xlink:title="&lt;TABLE&gt;">
<polygon fill="none" stroke="black" points="331.02,-680 331.02,-697 396.02,-697 396.02,-680 331.02,-680"/>
<text text-anchor="start" x="342.52" y="-686.5" font-family="Times New Roman,serif" font-size="10.00"> </text>
<text text-anchor="start" x="345.52" y="-686.5" font-family="Times New Roman,serif" font-size="10.00">e10 :Edge</text>
</a>
<polygon fill="none" stroke="black" points="331.02,-660 331.02,-680 396.02,-680 396.02,-660 331.02,-660"/>
<text text-anchor="start" x="336.02" y="-668" font-family="Times New Roman,serif" font-size="10.00">name = &quot;e10&quot;</text>
</g>
<!-- g6&#45;&#45;e10 -->
<g id="edge39" class="edge"><title>g6&#45;&#45;e10</title>
<path fill="none" stroke="black" d="M452.423,-824.667C441.734,-813.608 428.228,-798.645 418.02,-784 399.334,-757.189 382.521,-723.267 372.54,-701.595"/>
<text text-anchor="middle" x="380.2" y="-705.523" font-family="Times New Roman,serif" font-size="10.00">edges</text>
<text text-anchor="middle" x="443.102" y="-818.544" font-family="Times New Roman,serif" font-size="10.00">graph</text>
</g>
<!-- n11 -->
<g id="node10" class="node"><title>n11</title>
<a xlink:href="../examples/org/sdmlib/examples/helloworld/Node.java" xlink:title="&lt;TABLE&gt;">
<polygon fill="none" stroke="black" points="373.02,-598 373.02,-615 434.02,-615 434.02,-598 373.02,-598"/>
<text text-anchor="start" x="381.52" y="-604.5" font-family="Times New Roman,serif" font-size="10.00"> </text>
<text text-anchor="start" x="384.52" y="-604.5" font-family="Times New Roman,serif" font-size="10.00">n11 :Node</text>
</a>
<polygon fill="none" stroke="black" points="373.02,-578 373.02,-598 434.02,-598 434.02,-578 373.02,-578"/>
<text text-anchor="start" x="378.02" y="-586" font-family="Times New Roman,serif" font-size="10.00">name = &quot;n2&quot;</text>
</g>
<!-- g6&#45;&#45;n11 -->
<g id="edge21" class="edge"><title>g6&#45;&#45;n11</title>
<path fill="none" stroke="black" d="M465.309,-824.842C453.394,-781.452 422.078,-667.406 408.948,-619.586"/>
<text text-anchor="middle" x="415.423" y="-624.707" font-family="Times New Roman,serif" font-size="10.00">nodes</text>
<text text-anchor="middle" x="458.834" y="-814.722" font-family="Times New Roman,serif" font-size="10.00">graph</text>
</g>
<!-- e12 -->
<g id="node11" class="node"><title>e12</title>
<a xlink:href="../examples/org/sdmlib/examples/helloworld/Edge.java" xlink:title="&lt;TABLE&gt;">
<polygon fill="none" stroke="black" points="407.02,-516 407.02,-533 472.02,-533 472.02,-516 407.02,-516"/>
<text text-anchor="start" x="418.52" y="-522.5" font-family="Times New Roman,serif" font-size="10.00"> </text>
<text text-anchor="start" x="421.52" y="-522.5" font-family="Times New Roman,serif" font-size="10.00">e12 :Edge</text>
</a>
<polygon fill="none" stroke="black" points="407.02,-496 407.02,-516 472.02,-516 472.02,-496 407.02,-496"/>
<text text-anchor="start" x="412.02" y="-504" font-family="Times New Roman,serif" font-size="10.00">name = &quot;e11&quot;</text>
</g>
<!-- g6&#45;&#45;e12 -->
<g id="edge41" class="edge"><title>g6&#45;&#45;e12</title>
<path fill="none" stroke="black" d="M469.418,-825C467.77,-782.519 462.449,-668.366 450.02,-574 448.428,-561.908 445.939,-548.525 443.731,-537.665"/>
<text text-anchor="middle" x="449.661" y="-543.217" font-family="Times New Roman,serif" font-size="10.00">edges</text>
<text text-anchor="middle" x="464.824" y="-813.618" font-family="Times New Roman,serif" font-size="10.00">graph</text>
</g>
<!-- n13 -->
<g id="node12" class="node"><title>n13</title>
<a xlink:href="../examples/org/sdmlib/examples/helloworld/Node.java" xlink:title="&lt;TABLE&gt;">
<polygon fill="none" stroke="black" points="429.02,-434 429.02,-451 490.02,-451 490.02,-434 429.02,-434"/>
<text text-anchor="start" x="437.52" y="-440.5" font-family="Times New Roman,serif" font-size="10.00"> </text>
<text text-anchor="start" x="440.52" y="-440.5" font-family="Times New Roman,serif" font-size="10.00">n13 :Node</text>
</a>
<polygon fill="none" stroke="black" points="429.02,-414 429.02,-434 490.02,-434 490.02,-414 429.02,-414"/>
<text text-anchor="start" x="434.02" y="-422" font-family="Times New Roman,serif" font-size="10.00">name = &quot;n3&quot;</text>
</g>
<!-- g6&#45;&#45;n13 -->
<g id="edge23" class="edge"><title>g6&#45;&#45;n13</title>
<path fill="none" stroke="black" d="M476.814,-824.811C487.744,-795.562 508.02,-734.021 508.02,-680 508.02,-680 508.02,-680 508.02,-596 508.02,-548.931 503.131,-536.578 488.02,-492 483.792,-479.525 477.371,-466.338 471.645,-455.696"/>
<text text-anchor="middle" x="479.63" y="-459.215" font-family="Times New Roman,serif" font-size="10.00">nodes</text>
<text text-anchor="middle" x="475.941" y="-812.349" font-family="Times New Roman,serif" font-size="10.00">graph</text>
</g>
<!-- e14 -->
<g id="node13" class="node"><title>e14</title>
<a xlink:href="../examples/org/sdmlib/examples/helloworld/Edge.java" xlink:title="&lt;TABLE&gt;">
<polygon fill="none" stroke="black" points="262.02,-352 262.02,-369 327.02,-369 327.02,-352 262.02,-352"/>
<text text-anchor="start" x="273.52" y="-358.5" font-family="Times New Roman,serif" font-size="10.00"> </text>
<text text-anchor="start" x="276.52" y="-358.5" font-family="Times New Roman,serif" font-size="10.00">e14 :Edge</text>
</a>
<polygon fill="none" stroke="black" points="262.02,-332 262.02,-352 327.02,-352 327.02,-332 262.02,-332"/>
<text text-anchor="start" x="267.02" y="-340" font-family="Times New Roman,serif" font-size="10.00">name = &quot;e12&quot;</text>
</g>
<!-- g6&#45;&#45;e14 -->
<g id="edge43" class="edge"><title>g6&#45;&#45;e14</title>
<path fill="none" stroke="black" d="M437.495,-841.641C394.769,-839.328 320.335,-828.633 279.02,-784 246.863,-749.26 256.02,-727.339 256.02,-680 256.02,-680 256.02,-680 256.02,-514 256.02,-462.579 274.392,-404.345 285.587,-373.632"/>
<text text-anchor="middle" x="286.541" y="-381.086" font-family="Times New Roman,serif" font-size="10.00">edges</text>
<text text-anchor="middle" x="428.156" y="-842.717" font-family="Times New Roman,serif" font-size="10.00">graph</text>
</g>
<!-- e15 -->
<g id="node14" class="node"><title>e15</title>
<a xlink:href="../examples/org/sdmlib/examples/helloworld/Edge.java" xlink:title="&lt;TABLE&gt;">
<polygon fill="none" stroke="black" points="686.02,-352 686.02,-369 751.02,-369 751.02,-352 686.02,-352"/>
<text text-anchor="start" x="697.52" y="-358.5" font-family="Times New Roman,serif" font-size="10.00"> </text>
<text text-anchor="start" x="700.52" y="-358.5" font-family="Times New Roman,serif" font-size="10.00">e15 :Edge</text>
</a>
<polygon fill="none" stroke="black" points="686.02,-332 686.02,-352 751.02,-352 751.02,-332 686.02,-332"/>
<text text-anchor="start" x="691.02" y="-340" font-family="Times New Roman,serif" font-size="10.00">name = &quot;e13&quot;</text>
</g>
<!-- g6&#45;&#45;e15 -->
<g id="edge45" class="edge"><title>g6&#45;&#45;e15</title>
<path fill="none" stroke="black" d="M502.426,-840.704C575.959,-837.077 752.233,-824.288 793.02,-784 826.508,-750.923 813.02,-727.069 813.02,-680 813.02,-680 813.02,-680 813.02,-514 813.02,-457.269 769.133,-402.816 741.017,-373.754"/>
<text text-anchor="middle" x="750.295" y="-374.985" font-family="Times New Roman,serif" font-size="10.00">edges</text>
<text text-anchor="middle" x="511.241" y="-833.483" font-family="Times New Roman,serif" font-size="10.00">graph</text>
</g>
<!-- n16 -->
<g id="node15" class="node"><title>n16</title>
<a xlink:href="../examples/org/sdmlib/examples/helloworld/Node.java" xlink:title="&lt;TABLE&gt;">
<polygon fill="none" stroke="black" points="688.02,-270 688.02,-287 749.02,-287 749.02,-270 688.02,-270"/>
<text text-anchor="start" x="696.52" y="-276.5" font-family="Times New Roman,serif" font-size="10.00"> </text>
<text text-anchor="start" x="699.52" y="-276.5" font-family="Times New Roman,serif" font-size="10.00">n16 :Node</text>
</a>
<polygon fill="none" stroke="black" points="688.02,-250 688.02,-270 749.02,-270 749.02,-250 688.02,-250"/>
<text text-anchor="start" x="693.02" y="-258" font-family="Times New Roman,serif" font-size="10.00">name = &quot;n4&quot;</text>
</g>
<!-- g6&#45;&#45;n16 -->
<g id="edge25" class="edge"><title>g6&#45;&#45;n16</title>
<path fill="none" stroke="black" d="M502.552,-840.808C579.75,-837.334 771.05,-824.728 818.02,-784 854.658,-752.231 851.02,-728.493 851.02,-680 851.02,-680 851.02,-680 851.02,-432 851.02,-370.138 792.37,-318.998 752.965,-291.62"/>
<text text-anchor="middle" x="762.785" y="-291.008" font-family="Times New Roman,serif" font-size="10.00">nodes</text>
<text text-anchor="middle" x="511.39" y="-833.629" font-family="Times New Roman,serif" font-size="10.00">graph</text>
</g>
<!-- e17 -->
<g id="node16" class="node"><title>e17</title>
<a xlink:href="../examples/org/sdmlib/examples/helloworld/Edge.java" xlink:title="&lt;TABLE&gt;">
<polygon fill="none" stroke="black" points="650.02,-188 650.02,-205 715.02,-205 715.02,-188 650.02,-188"/>
<text text-anchor="start" x="661.52" y="-194.5" font-family="Times New Roman,serif" font-size="10.00"> </text>
<text text-anchor="start" x="664.52" y="-194.5" font-family="Times New Roman,serif" font-size="10.00">e17 :Edge</text>
</a>
<polygon fill="none" stroke="black" points="650.02,-168 650.02,-188 715.02,-188 715.02,-168 650.02,-168"/>
<text text-anchor="start" x="655.02" y="-176" font-family="Times New Roman,serif" font-size="10.00">name = &quot;e14&quot;</text>
</g>
<!-- g6&#45;&#45;e17 -->
<g id="edge47" class="edge"><title>g6&#45;&#45;e17</title>
<path fill="none" stroke="black" d="M502.54,-828.707C522.069,-819.092 545.805,-804.228 560.02,-784 587.295,-745.188 584.02,-727.437 584.02,-680 584.02,-680 584.02,-680 584.02,-350 584.02,-292.805 629.294,-238.519 658.297,-209.611"/>
<text text-anchor="middle" x="655.021" y="-216.559" font-family="Times New Roman,serif" font-size="10.00">edges</text>
<text text-anchor="middle" x="508.697" y="-818.327" font-family="Times New Roman,serif" font-size="10.00">graph</text>
</g>
<!-- n18 -->
<g id="node17" class="node"><title>n18</title>
<a xlink:href="../examples/org/sdmlib/examples/helloworld/Node.java" xlink:title="&lt;TABLE&gt;">
<polygon fill="none" stroke="black" points="652.02,-106 652.02,-123 713.02,-123 713.02,-106 652.02,-106"/>
<text text-anchor="start" x="660.52" y="-112.5" font-family="Times New Roman,serif" font-size="10.00"> </text>
<text text-anchor="start" x="663.52" y="-112.5" font-family="Times New Roman,serif" font-size="10.00">n18 :Node</text>
</a>
<polygon fill="none" stroke="black" points="652.02,-86 652.02,-106 713.02,-106 713.02,-86 652.02,-86"/>
<text text-anchor="start" x="657.02" y="-94" font-family="Times New Roman,serif" font-size="10.00">name = &quot;n5&quot;</text>
</g>
<!-- g6&#45;&#45;n18 -->
<g id="edge27" class="edge"><title>g6&#45;&#45;n18</title>
<path fill="none" stroke="black" d="M502.313,-841.04C583.556,-838.012 793.744,-826.192 847.02,-784 886.099,-753.052 889.02,-729.849 889.02,-680 889.02,-680 889.02,-680 889.02,-268 889.02,-183.348 780.333,-136.316 720.47,-116.831"/>
<text text-anchor="middle" x="730.418" y="-113.308" font-family="Times New Roman,serif" font-size="10.00">nodes</text>
<text text-anchor="middle" x="511.187" y="-833.931" font-family="Times New Roman,serif" font-size="10.00">graph</text>
</g>
<!-- e19 -->
<g id="node18" class="node"><title>e19</title>
<a xlink:href="../examples/org/sdmlib/examples/helloworld/Edge.java" xlink:title="&lt;TABLE&gt;">
<polygon fill="none" stroke="black" points="582.02,-24 582.02,-41 647.02,-41 647.02,-24 582.02,-24"/>
<text text-anchor="start" x="593.52" y="-30.5" font-family="Times New Roman,serif" font-size="10.00"> </text>
<text text-anchor="start" x="596.52" y="-30.5" font-family="Times New Roman,serif" font-size="10.00">e19 :Edge</text>
</a>
<polygon fill="none" stroke="black" points="582.02,-4 582.02,-24 647.02,-24 647.02,-4 582.02,-4"/>
<text text-anchor="start" x="587.02" y="-12" font-family="Times New Roman,serif" font-size="10.00">name = &quot;e18&quot;</text>
</g>
<!-- g6&#45;&#45;e19 -->
<g id="edge35" class="edge"><title>g6&#45;&#45;e19</title>
<path fill="none" stroke="black" d="M484.315,-824.791C506.331,-796.481 546.02,-737.472 546.02,-680 546.02,-680 546.02,-680 546.02,-186 546.02,-132.164 578.344,-75.5565 598.42,-45.5902"/>
<text text-anchor="middle" x="597.023" y="-52.9921" font-family="Times New Roman,serif" font-size="10.00">edges</text>
<text text-anchor="middle" x="486.4" y="-812.511" font-family="Times New Roman,serif" font-size="10.00">graph</text>
</g>
<!-- e20 -->
<g id="node19" class="node"><title>e20</title>
<a xlink:href="../examples/org/sdmlib/examples/helloworld/Edge.java" xlink:title="&lt;TABLE&gt;">
<polygon fill="none" stroke="black" points="427.02,-24 427.02,-41 492.02,-41 492.02,-24 427.02,-24"/>
<text text-anchor="start" x="438.52" y="-30.5" font-family="Times New Roman,serif" font-size="10.00"> </text>
<text text-anchor="start" x="441.52" y="-30.5" font-family="Times New Roman,serif" font-size="10.00">e20 :Edge</text>
</a>
<polygon fill="none" stroke="black" points="427.02,-4 427.02,-24 492.02,-24 492.02,-4 427.02,-4"/>
<text text-anchor="start" x="432.02" y="-12" font-family="Times New Roman,serif" font-size="10.00">name = &quot;e15&quot;</text>
</g>
<!-- g6&#45;&#45;e20 -->
<g id="edge49" class="edge"><title>g6&#45;&#45;e20</title>
<path fill="none" stroke="black" d="M437.723,-842.515C390.693,-841.482 303.385,-832.568 252.02,-784 216.686,-750.589 218.02,-728.63 218.02,-680 218.02,-680 218.02,-680 218.02,-186 218.02,-90.4645 350.076,-47.5989 418.682,-31.7755"/>
<text text-anchor="middle" x="410.918" y="-35.5773" font-family="Times New Roman,serif" font-size="10.00">edges</text>
<text text-anchor="middle" x="428.506" y="-843.894" font-family="Times New Roman,serif" font-size="10.00">graph</text>
</g>
<!-- e21 -->
<g id="node20" class="node"><title>e21</title>
<a xlink:href="../examples/org/sdmlib/examples/helloworld/Edge.java" xlink:title="&lt;TABLE&gt;">
<polygon fill="none" stroke="black" points="772.02,-24 772.02,-41 837.02,-41 837.02,-24 772.02,-24"/>
<text text-anchor="start" x="783.52" y="-30.5" font-family="Times New Roman,serif" font-size="10.00"> </text>
<text text-anchor="start" x="786.52" y="-30.5" font-family="Times New Roman,serif" font-size="10.00">e21 :Edge</text>
</a>
<polygon fill="none" stroke="black" points="772.02,-4 772.02,-24 837.02,-24 837.02,-4 772.02,-4"/>
<text text-anchor="start" x="777.02" y="-12" font-family="Times New Roman,serif" font-size="10.00">name = &quot;e19&quot;</text>
</g>
<!-- g6&#45;&#45;e21 -->
<g id="edge37" class="edge"><title>g6&#45;&#45;e21</title>
<path fill="none" stroke="black" d="M502.282,-841.281C587.897,-838.782 818.371,-828.028 878.02,-784 919.13,-753.656 927.02,-731.096 927.02,-680 927.02,-680 927.02,-680 927.02,-186 927.02,-125.438 871.818,-73.3148 835.377,-45.5036"/>
<text text-anchor="middle" x="845.104" y="-45.3234" font-family="Times New Roman,serif" font-size="10.00">edges</text>
<text text-anchor="middle" x="511.195" y="-834.246" font-family="Times New Roman,serif" font-size="10.00">graph</text>
</g>
<!-- n22 -->
<g id="node21" class="node"><title>n22</title>
<a xlink:href="../examples/org/sdmlib/examples/helloworld/Node.java" xlink:title="&lt;TABLE&gt;">
<polygon fill="none" stroke="black" points="621.02,-762 621.02,-779 682.02,-779 682.02,-762 621.02,-762"/>
<text text-anchor="start" x="629.52" y="-768.5" font-family="Times New Roman,serif" font-size="10.00"> </text>
<text text-anchor="start" x="632.52" y="-768.5" font-family="Times New Roman,serif" font-size="10.00">n22 :Node</text>
</a>
<polygon fill="none" stroke="black" points="621.02,-742 621.02,-762 682.02,-762 682.02,-742 621.02,-742"/>
<text text-anchor="start" x="626.02" y="-750" font-family="Times New Roman,serif" font-size="10.00">name = &quot;n6&quot;</text>
</g>
<!-- g6&#45;&#45;n22 -->
<g id="edge29" class="edge"><title>g6&#45;&#45;n22</title>
<path fill="none" stroke="black" d="M502.379,-827.698C533.291,-814.035 579.897,-793.436 612.663,-778.954"/>
<text text-anchor="middle" x="606.082" y="-783.983" font-family="Times New Roman,serif" font-size="10.00">nodes</text>
<text text-anchor="middle" x="508.96" y="-817.668" font-family="Times New Roman,serif" font-size="10.00">graph</text>
</g>
<!-- n23 -->
<g id="node22" class="node"><title>n23</title>
<a xlink:href="../examples/org/sdmlib/examples/helloworld/Node.java" xlink:title="&lt;TABLE&gt;">
<polygon fill="none" stroke="black" points="716.02,-762 716.02,-779 777.02,-779 777.02,-762 716.02,-762"/>
<text text-anchor="start" x="724.52" y="-768.5" font-family="Times New Roman,serif" font-size="10.00"> </text>
<text text-anchor="start" x="727.52" y="-768.5" font-family="Times New Roman,serif" font-size="10.00">n23 :Node</text>
</a>
<polygon fill="none" stroke="black" points="716.02,-742 716.02,-762 777.02,-762 777.02,-742 716.02,-742"/>
<text text-anchor="start" x="721.02" y="-750" font-family="Times New Roman,serif" font-size="10.00">name = &quot;n7&quot;</text>
</g>
<!-- g6&#45;&#45;n23 -->
<g id="edge31" class="edge"><title>g6&#45;&#45;n23</title>
<path fill="none" stroke="black" d="M502.282,-835.716C546.953,-826.582 629.851,-808.07 698.02,-784 701.219,-782.871 704.495,-781.608 707.76,-780.275"/>
<text text-anchor="middle" x="700.953" y="-785.1" font-family="Times New Roman,serif" font-size="10.00">nodes</text>
<text text-anchor="middle" x="510.293" y="-827.231" font-family="Times New Roman,serif" font-size="10.00">graph</text>
</g>
<!-- g6&#45;&#45;n8 -->
<g id="edge33" class="edge"><title>g6&#45;&#45;n8</title>
<path fill="none" stroke="black" d="M437.639,-836.557C353.061,-822.335 131.763,-785.079 128.02,-784 123.234,-782.62 118.296,-780.94 113.447,-779.129"/>
<text text-anchor="middle" x="123.413" y="-775.81" font-family="Times New Roman,serif" font-size="10.00">nodes</text>
<text text-anchor="middle" x="428.001" y="-836.722" font-family="Times New Roman,serif" font-size="10.00">graph</text>
</g>
<!-- e24 -->
<g id="node24" class="node"><title>e24</title>
<a xlink:href="../examples/org/sdmlib/examples/helloworld/Edge.java" xlink:title="&lt;TABLE&gt;">
<polygon fill="none" stroke="black" points="117.02,-680 117.02,-697 182.02,-697 182.02,-680 117.02,-680"/>
<text text-anchor="start" x="128.52" y="-686.5" font-family="Times New Roman,serif" font-size="10.00"> </text>
<text text-anchor="start" x="131.52" y="-686.5" font-family="Times New Roman,serif" font-size="10.00">e24 :Edge</text>
</a>
<polygon fill="none" stroke="black" points="117.02,-660 117.02,-680 182.02,-680 182.02,-660 117.02,-660"/>
<text text-anchor="start" x="122.02" y="-668" font-family="Times New Roman,serif" font-size="10.00">name = &quot;e16&quot;</text>
</g>
<!-- g6&#45;&#45;e24 -->
<g id="edge51" class="edge"><title>g6&#45;&#45;e24</title>
<path fill="none" stroke="black" d="M437.609,-836.509C370.834,-824.972 222.606,-798.114 204.02,-784 177.019,-763.494 161.909,-725.853 154.622,-701.921"/>
<text text-anchor="middle" x="161.414" y="-706.76" font-family="Times New Roman,serif" font-size="10.00">edges</text>
<text text-anchor="middle" x="427.954" y="-836.611" font-family="Times New Roman,serif" font-size="10.00">graph</text>
</g>
<!-- g6&#45;&#45;e7 -->
<g id="edge53" class="edge"><title>g6&#45;&#45;e7</title>
<path fill="none" stroke="black" d="M437.585,-836.36C361.682,-823.087 177.983,-790.505 166.02,-784 141.166,-770.484 142.858,-757.136 122.02,-738 108.306,-725.406 92.2376,-712.316 78.7637,-701.766"/>
<text text-anchor="middle" x="88.4995" y="-701.55" font-family="Times New Roman,serif" font-size="10.00">edges</text>
<text text-anchor="middle" x="427.928" y="-836.455" font-family="Times New Roman,serif" font-size="10.00">graph</text>
</g>
<!-- n9&#45;&#45;e10 -->
<g id="edge55" class="edge"><title>n9&#45;&#45;e10</title>
<path fill="none" stroke="black" d="M336.857,-738.14C341.979,-726.759 348.219,-712.893 353.32,-701.557"/>
<text text-anchor="middle" x="353.454" y="-709.056" font-family="Times New Roman,serif" font-size="10.00">outEdges</text>
<text text-anchor="middle" x="336.723" y="-725.641" font-family="Times New Roman,serif" font-size="10.00">src</text>
</g>
<!-- n9&#45;&#45;e14 -->
<g id="edge57" class="edge"><title>n9&#45;&#45;e14</title>
<path fill="none" stroke="black" d="M319.697,-738.276C309.974,-707.454 294.02,-649.091 294.02,-598 294.02,-598 294.02,-598 294.02,-514 294.02,-463.797 294.02,-404.843 294.02,-373.749"/>
<text text-anchor="middle" x="298.247" y="-380.312" font-family="Times New Roman,serif" font-size="10.00">inEdges</text>
<text text-anchor="middle" x="312.997" y="-728.352" font-family="Times New Roman,serif" font-size="10.00">tgt</text>
</g>
<!-- e10&#45;&#45;n11 -->
<g id="edge59" class="edge"><title>e10&#45;&#45;n11</title>
<path fill="none" stroke="black" d="M373.95,-656.14C379.641,-644.759 386.574,-630.893 392.242,-619.557"/>
<text text-anchor="middle" x="391.969" y="-627.053" font-family="Times New Roman,serif" font-size="10.00">tgt</text>
<text text-anchor="middle" x="374.224" y="-643.643" font-family="Times New Roman,serif" font-size="10.00">inEdges</text>
</g>
<!-- n11&#45;&#45;e12 -->
<g id="edge61" class="edge"><title>n11&#45;&#45;e12</title>
<path fill="none" stroke="black" d="M412.857,-574.14C417.979,-562.759 424.219,-548.893 429.32,-537.557"/>
<text text-anchor="middle" x="429.454" y="-545.056" font-family="Times New Roman,serif" font-size="10.00">outEdges</text>
<text text-anchor="middle" x="412.723" y="-561.641" font-family="Times New Roman,serif" font-size="10.00">src</text>
</g>
<!-- e12&#45;&#45;n13 -->
<g id="edge63" class="edge"><title>e12&#45;&#45;n13</title>
<path fill="none" stroke="black" d="M444.485,-492.14C447.331,-480.759 450.797,-466.893 453.631,-455.557"/>
<text text-anchor="middle" x="455.533" y="-462.874" font-family="Times New Roman,serif" font-size="10.00">tgt</text>
<text text-anchor="middle" x="442.584" y="-479.822" font-family="Times New Roman,serif" font-size="10.00">inEdges</text>
</g>
<!-- n13&#45;&#45;e14 -->
<g id="edge65" class="edge"><title>n13&#45;&#45;e14</title>
<path fill="none" stroke="black" d="M420.751,-413.445C394.857,-400.89 360.708,-384.334 334.384,-371.57"/>
<text text-anchor="middle" x="344.383" y="-369.221" font-family="Times New Roman,serif" font-size="10.00">outEdges</text>
<text text-anchor="middle" x="410.752" y="-410.794" font-family="Times New Roman,serif" font-size="10.00">src</text>
</g>
<!-- n13&#45;&#45;e15 -->
<g id="edge67" class="edge"><title>n13&#45;&#45;e15</title>
<path fill="none" stroke="black" d="M497.516,-420.11C545.85,-405.18 628.385,-379.686 677.605,-364.483"/>
<text text-anchor="middle" x="670.193" y="-368.696" font-family="Times New Roman,serif" font-size="10.00">outEdges</text>
<text text-anchor="middle" x="504.928" y="-410.897" font-family="Times New Roman,serif" font-size="10.00">src</text>
</g>
<!-- n13&#45;&#45;e20 -->
<g id="edge69" class="edge"><title>n13&#45;&#45;e20</title>
<path fill="none" stroke="black" d="M459.02,-410.251C459.02,-379.157 459.02,-320.203 459.02,-270 459.02,-270 459.02,-270 459.02,-186 459.02,-135.797 459.02,-76.8425 459.02,-45.7485"/>
<text text-anchor="middle" x="463.247" y="-52.3116" font-family="Times New Roman,serif" font-size="10.00">inEdges</text>
<text text-anchor="middle" x="454.794" y="-398.688" font-family="Times New Roman,serif" font-size="10.00">tgt</text>
</g>
<!-- e15&#45;&#45;n16 -->
<g id="edge71" class="edge"><title>e15&#45;&#45;n16</title>
<path fill="none" stroke="black" d="M718.02,-328.14C718.02,-316.759 718.02,-302.893 718.02,-291.557"/>
<text text-anchor="middle" x="722.247" y="-298.12" font-family="Times New Roman,serif" font-size="10.00">tgt</text>
<text text-anchor="middle" x="713.794" y="-316.577" font-family="Times New Roman,serif" font-size="10.00">inEdges</text>
</g>
<!-- n16&#45;&#45;e17 -->
<g id="edge73" class="edge"><title>n16&#45;&#45;e17</title>
<path fill="none" stroke="black" d="M708.183,-246.14C703.062,-234.759 696.822,-220.893 691.721,-209.557"/>
<text text-anchor="middle" x="699.294" y="-213.587" font-family="Times New Roman,serif" font-size="10.00">outEdges</text>
<text text-anchor="middle" x="700.61" y="-237.109" font-family="Times New Roman,serif" font-size="10.00">src</text>
</g>
<!-- e17&#45;&#45;n18 -->
<g id="edge75" class="edge"><title>e17&#45;&#45;n18</title>
<path fill="none" stroke="black" d="M682.02,-164.14C682.02,-152.759 682.02,-138.893 682.02,-127.557"/>
<text text-anchor="middle" x="686.247" y="-134.12" font-family="Times New Roman,serif" font-size="10.00">tgt</text>
<text text-anchor="middle" x="677.794" y="-152.577" font-family="Times New Roman,serif" font-size="10.00">inEdges</text>
</g>
<!-- n18&#45;&#45;e19 -->
<g id="edge77" class="edge"><title>n18&#45;&#45;e19</title>
<path fill="none" stroke="black" d="M663.439,-82.1396C653.765,-70.759 641.979,-56.8929 632.344,-45.5569"/>
<text text-anchor="middle" x="641.433" y="-47.2254" font-family="Times New Roman,serif" font-size="10.00">outEdges</text>
<text text-anchor="middle" x="654.349" y="-75.4712" font-family="Times New Roman,serif" font-size="10.00">src</text>
</g>
<!-- n18&#45;&#45;e20 -->
<g id="edge79" class="edge"><title>n18&#45;&#45;e20</title>
<path fill="none" stroke="black" d="M643.685,-90.2475C603.462,-75.8177 540.496,-53.2289 499.49,-38.5182"/>
<text text-anchor="middle" x="509.448" y="-35.1006" font-family="Times New Roman,serif" font-size="10.00">outEdges</text>
<text text-anchor="middle" x="633.727" y="-88.6651" font-family="Times New Roman,serif" font-size="10.00">src</text>
</g>
<!-- n18&#45;&#45;e21 -->
<g id="edge81" class="edge"><title>n18&#45;&#45;e21</title>
<path fill="none" stroke="black" d="M715.035,-82.3508C732.395,-70.9674 753.615,-57.0524 770.979,-45.6665"/>
<text text-anchor="middle" x="765.717" y="-51.6704" font-family="Times New Roman,serif" font-size="10.00">inEdges</text>
<text text-anchor="middle" x="720.297" y="-71.3469" font-family="Times New Roman,serif" font-size="10.00">tgt</text>
</g>
<!-- n8&#45;&#45;e24 -->
<g id="edge83" class="edge"><title>n8&#45;&#45;e24</title>
<path fill="none" stroke="black" d="M95.2411,-738.14C105.768,-726.759 118.594,-712.893 129.08,-701.557"/>
<text text-anchor="middle" x="126.028" y="-708.58" font-family="Times New Roman,serif" font-size="10.00">outEdges_inEdges</text>
<text text-anchor="middle" x="98.2929" y="-726.117" font-family="Times New Roman,serif" font-size="10.00">src_tgt</text>
</g>
<!-- n8&#45;&#45;e7 -->
<g id="edge85" class="edge"><title>n8&#45;&#45;e7</title>
<path fill="none" stroke="black" d="M68.189,-738.14C64.6325,-726.759 60.2994,-712.893 56.7569,-701.557"/>
<text text-anchor="middle" x="63.494" y="-706.447" font-family="Times New Roman,serif" font-size="10.00">outEdges_inEdges</text>
<text text-anchor="middle" x="61.4519" y="-728.25" font-family="Times New Roman,serif" font-size="10.00">src_tgt</text>
</g>
</g>
</svg>
