<?xml version="1.0" encoding="UTF-8" standalone="no"?>
<!DOCTYPE svg PUBLIC "-//W3C//DTD SVG 1.1//EN"
 "http://www.w3.org/Graphics/SVG/1.1/DTD/svg11.dtd">
<!-- Generated by graphviz version 2.26.3 (20100126.1600)
 -->
<!-- Title: ObjectDiagram Pages: 1 -->
<svg width="1096pt" height="1298pt"
 viewBox="0.00 0.00 1095.96 1298.00" xmlns="http://www.w3.org/2000/svg" xmlns:xlink="http://www.w3.org/1999/xlink">
<g id="graph1" class="graph" transform="scale(1 1) rotate(0) translate(4 1294)">
<title>ObjectDiagram</title>
<polygon fill="white" stroke="white" points="-4,5 -4,-1294 1092.96,-1294 1092.96,5 -4,5"/>
<!-- g1 -->
<g id="node1" class="node"><title>g1</title>
<polygon fill="deepskyblue" stroke="deepskyblue" points="321.622,-1234.5 321.622,-1285.5 399.622,-1285.5 399.622,-1234.5 321.622,-1234.5"/>
<text text-anchor="start" x="354.622" y="-1275.17" font-family="Times Roman,serif" font-size="10.00">«bound»</text>
<polygon fill="none" stroke="black" points="321.622,-1254 321.622,-1270 399.622,-1270 399.622,-1254 321.622,-1254"/>
<text text-anchor="start" x="325.122" y="-1259.67" font-family="Times Roman,serif" font-size="10.00"> </text>
<text text-anchor="start" x="329.122" y="-1259.67" font-family="Times Roman,serif" font-size="10.00"> g1 :GraphPO </text>
<polygon fill="none" stroke="black" points="321.622,-1234 321.622,-1254 399.622,-1254 399.622,-1234 321.622,-1234"/>
<text text-anchor="start" x="357.122" y="-1241.67" font-family="Times Roman,serif" font-size="10.00"> &#160;</text>
</g>
<!-- n2 -->
<g id="node2" class="node"><title>n2</title>
<polygon fill="deepskyblue" stroke="deepskyblue" points="221.122,-1152.5 221.122,-1189.5 296.122,-1189.5 296.122,-1152.5 221.122,-1152.5"/>
<polygon fill="none" stroke="black" points="221.622,-1172 221.622,-1189 296.622,-1189 296.622,-1172 221.622,-1172"/>
<text text-anchor="start" x="225.122" y="-1178.17" font-family="Times Roman,serif" font-size="10.00"> </text>
<text text-anchor="start" x="229.122" y="-1178.17" font-family="Times Roman,serif" font-size="10.00"> n2 :NodePO </text>
<polygon fill="none" stroke="black" points="221.622,-1152 221.622,-1172 296.622,-1172 296.622,-1152 221.622,-1152"/>
<text text-anchor="start" x="255.622" y="-1159.67" font-family="Times Roman,serif" font-size="10.00"> &#160;</text>
</g>
<!-- g1&#45;&#45;n2 -->
<g id="edge16" class="edge"><title>g1&#45;&#45;n2</title>
<path fill="none" stroke="black" d="M326.658,-1230.36C312.981,-1218.43 297.457,-1204.89 284.695,-1193.75"/>
<text text-anchor="middle" x="294.303" y="-1193.52" font-family="Times Roman,serif" font-size="10.00">nodes</text>
</g>
<!-- g8 -->
<g id="node10" class="node"><title>g8</title>
<polygon fill="none" stroke="black" points="512.622,-834 512.622,-851 571.622,-851 571.622,-834 512.622,-834"/>
<text text-anchor="start" x="516.122" y="-840.167" font-family="Times Roman,serif" font-size="10.00"> </text>
<text text-anchor="start" x="520.122" y="-840.167" font-family="Times Roman,serif" font-size="10.00">g8 :Graph</text>
</g>
<!-- g1&#45;&#45;g8 -->
<g id="edge2" class="edge"><title>g1&#45;&#45;g8</title>
<path fill="none" stroke="black" stroke-dasharray="1,5" d="M386.192,-1230.44C411.543,-1198.01 446.622,-1143.33 446.622,-1089 446.622,-1089 446.622,-1089 446.622,-1007 446.622,-947.114 494.638,-889.488 522.398,-861.176"/>
<text text-anchor="middle" x="519.226" y="-867.66" font-family="Times Roman,serif" font-size="10.00">match</text>
</g>
<!-- e3 -->
<g id="node3" class="node"><title>e3</title>
<polygon fill="deepskyblue" stroke="deepskyblue" points="186.122,-1070.5 186.122,-1107.5 259.122,-1107.5 259.122,-1070.5 186.122,-1070.5"/>
<polygon fill="none" stroke="black" points="186.622,-1090 186.622,-1107 259.622,-1107 259.622,-1090 186.622,-1090"/>
<text text-anchor="start" x="190.122" y="-1096.17" font-family="Times Roman,serif" font-size="10.00"> </text>
<text text-anchor="start" x="194.122" y="-1096.17" font-family="Times Roman,serif" font-size="10.00"> e3 :EdgePO </text>
<polygon fill="none" stroke="black" points="186.622,-1070 186.622,-1090 259.622,-1090 259.622,-1070 186.622,-1070"/>
<text text-anchor="start" x="219.622" y="-1077.67" font-family="Times Roman,serif" font-size="10.00"> &#160;</text>
</g>
<!-- n2&#45;&#45;e3 -->
<g id="edge18" class="edge"><title>n2&#45;&#45;e3</title>
<path fill="none" stroke="black" d="M248.594,-1148.16C243.601,-1136.79 237.582,-1123.08 232.597,-1111.72"/>
<text text-anchor="middle" x="240.11" y="-1115.32" font-family="Times Roman,serif" font-size="10.00">outEdges</text>
</g>
<!-- n9 -->
<g id="node26" class="node"><title>n9</title>
<polygon fill="none" stroke="black" points="167.622,-762 167.622,-779 240.622,-779 240.622,-762 167.622,-762"/>
<text text-anchor="start" x="180.122" y="-768.167" font-family="Times Roman,serif" font-size="10.00"> </text>
<text text-anchor="start" x="184.122" y="-768.167" font-family="Times Roman,serif" font-size="10.00">n9 :Node</text>
<polygon fill="none" stroke="black" points="167.622,-742 167.622,-762 240.622,-762 240.622,-742 167.622,-742"/>
<text text-anchor="start" x="173.122" y="-749.667" font-family="Times Roman,serif" font-size="10.00">name = &quot;n8&quot;</text>
</g>
<!-- n2&#45;&#45;n9 -->
<g id="edge4" class="edge"><title>n2&#45;&#45;n9</title>
<path fill="none" stroke="black" stroke-dasharray="1,5" d="M271.611,-1148.48C288.154,-1117.61 314.622,-1059.95 314.622,-1007 314.622,-1007 314.622,-1007 314.622,-925 314.622,-875.521 306.301,-860.32 277.622,-820 267.623,-805.941 253.377,-793.49 240.051,-783.692"/>
<text text-anchor="middle" x="249.836" y="-782.753" font-family="Times Roman,serif" font-size="10.00">match</text>
</g>
<!-- n4 -->
<g id="node4" class="node"><title>n4</title>
<polygon fill="deepskyblue" stroke="deepskyblue" points="185.122,-988.5 185.122,-1025.5 260.122,-1025.5 260.122,-988.5 185.122,-988.5"/>
<polygon fill="none" stroke="black" points="185.622,-1008 185.622,-1025 260.622,-1025 260.622,-1008 185.622,-1008"/>
<text text-anchor="start" x="189.122" y="-1014.17" font-family="Times Roman,serif" font-size="10.00"> </text>
<text text-anchor="start" x="193.122" y="-1014.17" font-family="Times Roman,serif" font-size="10.00"> n4 :NodePO </text>
<polygon fill="none" stroke="black" points="185.622,-988 185.622,-1008 260.622,-1008 260.622,-988 185.622,-988"/>
<text text-anchor="start" x="219.622" y="-995.667" font-family="Times Roman,serif" font-size="10.00"> &#160;</text>
</g>
<!-- e3&#45;&#45;n4 -->
<g id="edge20" class="edge"><title>e3&#45;&#45;n4</title>
<path fill="none" stroke="black" d="M222.622,-1066.16C222.622,-1054.79 222.622,-1041.08 222.622,-1029.72"/>
<text text-anchor="middle" x="226.849" y="-1035.78" font-family="Times Roman,serif" font-size="10.00">tgt</text>
</g>
<!-- e10 -->
<g id="node28" class="node"><title>e10</title>
<polygon fill="none" stroke="black" points="92.6224,-680 92.6224,-697 171.622,-697 171.622,-680 92.6224,-680"/>
<text text-anchor="start" x="105.622" y="-686.167" font-family="Times Roman,serif" font-size="10.00"> </text>
<text text-anchor="start" x="109.622" y="-686.167" font-family="Times Roman,serif" font-size="10.00">e10 :Edge</text>
<polygon fill="none" stroke="black" points="92.6224,-660 92.6224,-680 171.622,-680 171.622,-660 92.6224,-660"/>
<text text-anchor="start" x="98.1224" y="-667.667" font-family="Times Roman,serif" font-size="10.00">name = &quot;e17&quot;</text>
</g>
<!-- e3&#45;&#45;e10 -->
<g id="edge6" class="edge"><title>e3&#45;&#45;e10</title>
<path fill="none" stroke="black" stroke-dasharray="1,5" d="M198.235,-1066.31C149.805,-1019.31 43.0386,-905.511 6.62235,-784 0.753176,-764.416 -4.32219,-755.268 6.62235,-738 23.7082,-711.042 56.7799,-696.17 84.6154,-688.103"/>
<text text-anchor="middle" x="77.2093" y="-691.822" font-family="Times Roman,serif" font-size="10.00">match</text>
</g>
<!-- e5 -->
<g id="node5" class="node"><title>e5</title>
<polygon fill="deepskyblue" stroke="deepskyblue" points="167.122,-906.5 167.122,-943.5 240.122,-943.5 240.122,-906.5 167.122,-906.5"/>
<polygon fill="none" stroke="black" points="167.622,-926 167.622,-943 240.622,-943 240.622,-926 167.622,-926"/>
<text text-anchor="start" x="171.122" y="-932.167" font-family="Times Roman,serif" font-size="10.00"> </text>
<text text-anchor="start" x="175.122" y="-932.167" font-family="Times Roman,serif" font-size="10.00"> e5 :EdgePO </text>
<polygon fill="none" stroke="black" points="167.622,-906 167.622,-926 240.622,-926 240.622,-906 167.622,-906"/>
<text text-anchor="start" x="200.622" y="-913.667" font-family="Times Roman,serif" font-size="10.00"> &#160;</text>
</g>
<!-- n4&#45;&#45;e5 -->
<g id="edge22" class="edge"><title>n4&#45;&#45;e5</title>
<path fill="none" stroke="black" d="M217.33,-984.158C214.695,-972.785 211.518,-959.076 208.887,-947.719"/>
<text text-anchor="middle" x="215.049" y="-952.594" font-family="Times Roman,serif" font-size="10.00">outEdges</text>
</g>
<!-- n4&#45;&#45;n9 -->
<g id="edge8" class="edge"><title>n4&#45;&#45;n9</title>
<path fill="none" stroke="black" stroke-dasharray="1,5" d="M239.292,-984.399C246.053,-973.889 253.091,-960.884 256.622,-948 271.659,-893.133 278.226,-873.029 257.622,-820 252.241,-806.151 241.925,-793.572 231.739,-783.62"/>
<text text-anchor="middle" x="241.131" y="-784.053" font-family="Times Roman,serif" font-size="10.00">match</text>
</g>
<!-- n6 -->
<g id="node6" class="node"><title>n6</title>
<polygon fill="deepskyblue" stroke="deepskyblue" points="166.122,-824.5 166.122,-861.5 241.122,-861.5 241.122,-824.5 166.122,-824.5"/>
<polygon fill="none" stroke="black" points="166.622,-844 166.622,-861 241.622,-861 241.622,-844 166.622,-844"/>
<text text-anchor="start" x="170.122" y="-850.167" font-family="Times Roman,serif" font-size="10.00"> </text>
<text text-anchor="start" x="174.122" y="-850.167" font-family="Times Roman,serif" font-size="10.00"> n6 :NodePO </text>
<polygon fill="none" stroke="black" points="166.622,-824 166.622,-844 241.622,-844 241.622,-824 166.622,-824"/>
<text text-anchor="start" x="200.622" y="-831.667" font-family="Times Roman,serif" font-size="10.00"> &#160;</text>
</g>
<!-- e5&#45;&#45;n6 -->
<g id="edge24" class="edge"><title>e5&#45;&#45;n6</title>
<path fill="none" stroke="black" d="M203.622,-902.158C203.622,-890.785 203.622,-877.076 203.622,-865.719"/>
<text text-anchor="middle" x="207.849" y="-871.782" font-family="Times Roman,serif" font-size="10.00">tgt</text>
</g>
<!-- e5&#45;&#45;e10 -->
<g id="edge10" class="edge"><title>e5&#45;&#45;e10</title>
<path fill="none" stroke="black" stroke-dasharray="1,5" d="M176.457,-902.381C166.281,-892.344 155.718,-879.702 149.622,-866 125.164,-811.02 126.611,-738.158 129.327,-701.747"/>
<text text-anchor="middle" x="132.976" y="-708.057" font-family="Times Roman,serif" font-size="10.00">match</text>
</g>
<!-- e7 -->
<g id="node7" class="node"><title>e7</title>
<polygon fill="deepskyblue" stroke="deepskyblue" points="23.1224,-742.5 23.1224,-779.5 96.1224,-779.5 96.1224,-742.5 23.1224,-742.5"/>
<polygon fill="none" stroke="black" points="23.6224,-762 23.6224,-779 96.6224,-779 96.6224,-762 23.6224,-762"/>
<text text-anchor="start" x="27.1224" y="-768.167" font-family="Times Roman,serif" font-size="10.00"> </text>
<text text-anchor="start" x="31.1224" y="-768.167" font-family="Times Roman,serif" font-size="10.00"> e7 :EdgePO </text>
<polygon fill="none" stroke="black" points="23.6224,-742 23.6224,-762 96.6224,-762 96.6224,-742 23.6224,-742"/>
<text text-anchor="start" x="56.6224" y="-749.667" font-family="Times Roman,serif" font-size="10.00"> &#160;</text>
</g>
<!-- n6&#45;&#45;e7 -->
<g id="edge26" class="edge"><title>n6&#45;&#45;e7</title>
<path fill="none" stroke="black" d="M163.893,-820.376C143.746,-808.904 119.35,-795.012 99.2225,-783.55"/>
<text text-anchor="middle" x="109.189" y="-781.362" font-family="Times Roman,serif" font-size="10.00">outEdges</text>
</g>
<!-- n6&#45;&#45;n9 -->
<g id="edge12" class="edge"><title>n6&#45;&#45;n9</title>
<path fill="none" stroke="black" stroke-dasharray="1,5" d="M203.622,-820.158C203.622,-808.785 203.622,-795.076 203.622,-783.719"/>
<text text-anchor="middle" x="207.849" y="-789.782" font-family="Times Roman,serif" font-size="10.00">match</text>
</g>
<!-- e7&#45;&#45;n2 -->
<g id="edge28" class="edge"><title>e7&#45;&#45;n2</title>
<path fill="none" stroke="black" d="M51.9072,-783.51C41.8758,-814.836 25.6224,-873.533 25.6224,-925 25.6224,-1007 25.6224,-1007 25.6224,-1007 25.6224,-1097.9 145.664,-1142.8 213.421,-1160.9"/>
<text text-anchor="middle" x="203.543" y="-1159.46" font-family="Times Roman,serif" font-size="10.00">tgt</text>
</g>
<!-- e7&#45;&#45;e10 -->
<g id="edge14" class="edge"><title>e7&#45;&#45;e10</title>
<path fill="none" stroke="black" stroke-dasharray="1,5" d="M79.6784,-738.158C89.6647,-726.785 101.702,-713.076 111.674,-701.719"/>
<text text-anchor="middle" x="108.87" y="-708.318" font-family="Times Roman,serif" font-size="10.00">match</text>
</g>
<!-- matchIsomorphic -->
<g id="node8" class="node"><title>matchIsomorphic</title>
<text text-anchor="middle" x="475.622" y="-1257" font-family="Times Roman,serif" font-size="10.00">matchIsomorphic</text>
</g>
<!-- allMatches -->
<g id="node9" class="node"><title>allMatches</title>
<text text-anchor="middle" x="577.622" y="-1257" font-family="Times Roman,serif" font-size="10.00">allMatches</text>
</g>
<!-- n11 -->
<g id="node11" class="node"><title>n11</title>
<polygon fill="none" stroke="black" points="941.622,-762 941.622,-779 1014.62,-779 1014.62,-762 941.622,-762"/>
<text text-anchor="start" x="951.122" y="-768.167" font-family="Times Roman,serif" font-size="10.00"> </text>
<text text-anchor="start" x="955.122" y="-768.167" font-family="Times Roman,serif" font-size="10.00">n11 :Node</text>
<polygon fill="none" stroke="black" points="941.622,-742 941.622,-762 1014.62,-762 1014.62,-742 941.622,-742"/>
<text text-anchor="start" x="947.122" y="-749.667" font-family="Times Roman,serif" font-size="10.00">name = &quot;n1&quot;</text>
</g>
<!-- g8&#45;&#45;n11 -->
<g id="edge30" class="edge"><title>g8&#45;&#45;n11</title>
<path fill="none" stroke="black" d="M578.683,-839.975C647.053,-833.789 797.229,-817.371 919.622,-784 924.116,-782.775 928.737,-781.312 933.315,-779.727"/>
<text text-anchor="middle" x="926.115" y="-783.667" font-family="Times Roman,serif" font-size="10.00">nodes</text>
<text text-anchor="middle" x="587.306" y="-831.911" font-family="Times Roman,serif" font-size="10.00">graph</text>
</g>
<!-- e12 -->
<g id="node12" class="node"><title>e12</title>
<polygon fill="none" stroke="black" points="827.622,-680 827.622,-697 906.622,-697 906.622,-680 827.622,-680"/>
<text text-anchor="start" x="840.622" y="-686.167" font-family="Times Roman,serif" font-size="10.00"> </text>
<text text-anchor="start" x="844.622" y="-686.167" font-family="Times Roman,serif" font-size="10.00">e12 :Edge</text>
<polygon fill="none" stroke="black" points="827.622,-660 827.622,-680 906.622,-680 906.622,-660 827.622,-660"/>
<text text-anchor="start" x="833.122" y="-667.667" font-family="Times Roman,serif" font-size="10.00">name = &quot;e10&quot;</text>
</g>
<!-- g8&#45;&#45;e12 -->
<g id="edge50" class="edge"><title>g8&#45;&#45;e12</title>
<path fill="none" stroke="black" d="M578.825,-840.729C651.046,-835.545 806.424,-820.363 843.622,-784 865.507,-762.606 868.791,-725.531 868.325,-701.647"/>
<text text-anchor="middle" x="872.567" y="-707.703" font-family="Times Roman,serif" font-size="10.00">edges</text>
<text text-anchor="middle" x="587.533" y="-832.811" font-family="Times Roman,serif" font-size="10.00">graph</text>
</g>
<!-- n13 -->
<g id="node13" class="node"><title>n13</title>
<polygon fill="none" stroke="black" points="793.622,-598 793.622,-615 866.622,-615 866.622,-598 793.622,-598"/>
<text text-anchor="start" x="803.122" y="-604.167" font-family="Times Roman,serif" font-size="10.00"> </text>
<text text-anchor="start" x="807.122" y="-604.167" font-family="Times Roman,serif" font-size="10.00">n13 :Node</text>
<polygon fill="none" stroke="black" points="793.622,-578 793.622,-598 866.622,-598 866.622,-578 793.622,-578"/>
<text text-anchor="start" x="799.122" y="-585.667" font-family="Times Roman,serif" font-size="10.00">name = &quot;n2&quot;</text>
</g>
<!-- g8&#45;&#45;n13 -->
<g id="edge32" class="edge"><title>g8&#45;&#45;n13</title>
<path fill="none" stroke="black" d="M578.782,-840.444C645.637,-834.989 781.928,-819.67 810.622,-784 810.622,-784 810.622,-656 810.622,-656 812.559,-643.668 816.642,-630.398 820.528,-619.572"/>
<text text-anchor="middle" x="821.501" y="-626.525" font-family="Times Roman,serif" font-size="10.00">nodes</text>
<text text-anchor="middle" x="587.437" y="-832.436" font-family="Times Roman,serif" font-size="10.00">graph</text>
</g>
<!-- e14 -->
<g id="node14" class="node"><title>e14</title>
<polygon fill="none" stroke="black" points="790.622,-516 790.622,-533 869.622,-533 869.622,-516 790.622,-516"/>
<text text-anchor="start" x="803.622" y="-522.167" font-family="Times Roman,serif" font-size="10.00"> </text>
<text text-anchor="start" x="807.622" y="-522.167" font-family="Times Roman,serif" font-size="10.00">e14 :Edge</text>
<polygon fill="none" stroke="black" points="790.622,-496 790.622,-516 869.622,-516 869.622,-496 790.622,-496"/>
<text text-anchor="start" x="796.122" y="-503.667" font-family="Times Roman,serif" font-size="10.00">name = &quot;e11&quot;</text>
</g>
<!-- g8&#45;&#45;e14 -->
<g id="edge52" class="edge"><title>g8&#45;&#45;e14</title>
<path fill="none" stroke="black" d="M578.892,-839.909C653.996,-833.1 820.399,-814.907 867.622,-784 919.431,-750.092 936.553,-716.331 922.622,-656 913.5,-616.49 905.279,-607.629 882.622,-574 873.929,-561.096 862.584,-548.089 852.622,-537.583"/>
<text text-anchor="middle" x="861.905" y="-538.299" font-family="Times Roman,serif" font-size="10.00">edges</text>
<text text-anchor="middle" x="587.513" y="-831.843" font-family="Times Roman,serif" font-size="10.00">graph</text>
</g>
<!-- n15 -->
<g id="node15" class="node"><title>n15</title>
<polygon fill="none" stroke="black" points="617.622,-434 617.622,-451 690.622,-451 690.622,-434 617.622,-434"/>
<text text-anchor="start" x="627.122" y="-440.167" font-family="Times Roman,serif" font-size="10.00"> </text>
<text text-anchor="start" x="631.122" y="-440.167" font-family="Times Roman,serif" font-size="10.00">n15 :Node</text>
<polygon fill="none" stroke="black" points="617.622,-414 617.622,-434 690.622,-434 690.622,-414 617.622,-414"/>
<text text-anchor="start" x="623.122" y="-421.667" font-family="Times Roman,serif" font-size="10.00">name = &quot;n3&quot;</text>
</g>
<!-- g8&#45;&#45;n15 -->
<g id="edge34" class="edge"><title>g8&#45;&#45;n15</title>
<path fill="none" stroke="black" d="M548.77,-824.63C559.778,-794.638 579.622,-733.069 579.622,-679 579.622,-679 579.622,-679 579.622,-597 579.622,-542.492 614.005,-486.094 635.898,-455.709"/>
<text text-anchor="middle" x="634.171" y="-462.558" font-family="Times Roman,serif" font-size="10.00">nodes</text>
<text text-anchor="middle" x="547.839" y="-811.673" font-family="Times Roman,serif" font-size="10.00">graph</text>
</g>
<!-- e16 -->
<g id="node16" class="node"><title>e16</title>
<polygon fill="none" stroke="black" points="940.622,-352 940.622,-369 1019.62,-369 1019.62,-352 940.622,-352"/>
<text text-anchor="start" x="953.622" y="-358.167" font-family="Times Roman,serif" font-size="10.00"> </text>
<text text-anchor="start" x="957.622" y="-358.167" font-family="Times Roman,serif" font-size="10.00">e16 :Edge</text>
<polygon fill="none" stroke="black" points="940.622,-332 940.622,-352 1019.62,-352 1019.62,-332 940.622,-332"/>
<text text-anchor="start" x="946.122" y="-339.667" font-family="Times Roman,serif" font-size="10.00">name = &quot;e12&quot;</text>
</g>
<!-- g8&#45;&#45;e16 -->
<g id="edge54" class="edge"><title>g8&#45;&#45;e16</title>
<path fill="none" stroke="black" d="M578.983,-841.018C687.624,-834.911 997.84,-814.905 1030.62,-784 1065.13,-751.468 1049.62,-726.425 1049.62,-679 1049.62,-679 1049.62,-679 1049.62,-515 1049.62,-460.825 1016.91,-404.08 996.211,-373.595"/>
<text text-anchor="middle" x="1004.73" y="-375.838" font-family="Times Roman,serif" font-size="10.00">edges</text>
<text text-anchor="middle" x="587.782" y="-833.267" font-family="Times Roman,serif" font-size="10.00">graph</text>
</g>
<!-- e17 -->
<g id="node17" class="node"><title>e17</title>
<polygon fill="none" stroke="black" points="501.622,-352 501.622,-369 580.622,-369 580.622,-352 501.622,-352"/>
<text text-anchor="start" x="514.622" y="-358.167" font-family="Times Roman,serif" font-size="10.00"> </text>
<text text-anchor="start" x="518.622" y="-358.167" font-family="Times Roman,serif" font-size="10.00">e17 :Edge</text>
<polygon fill="none" stroke="black" points="501.622,-332 501.622,-352 580.622,-352 580.622,-332 501.622,-332"/>
<text text-anchor="start" x="507.122" y="-339.667" font-family="Times Roman,serif" font-size="10.00">name = &quot;e13&quot;</text>
</g>
<!-- g8&#45;&#45;e17 -->
<g id="edge56" class="edge"><title>g8&#45;&#45;e17</title>
<path fill="none" stroke="black" d="M534.475,-824.63C523.467,-794.638 503.622,-733.069 503.622,-679 503.622,-679 503.622,-679 503.622,-515 503.622,-463.483 521.21,-405.047 532.134,-373.72"/>
<text text-anchor="middle" x="533.224" y="-380.661" font-family="Times Roman,serif" font-size="10.00">edges</text>
<text text-anchor="middle" x="527.446" y="-814.517" font-family="Times Roman,serif" font-size="10.00">graph</text>
</g>
<!-- n18 -->
<g id="node18" class="node"><title>n18</title>
<polygon fill="none" stroke="black" points="484.622,-270 484.622,-287 557.622,-287 557.622,-270 484.622,-270"/>
<text text-anchor="start" x="494.122" y="-276.167" font-family="Times Roman,serif" font-size="10.00"> </text>
<text text-anchor="start" x="498.122" y="-276.167" font-family="Times Roman,serif" font-size="10.00">n18 :Node</text>
<polygon fill="none" stroke="black" points="484.622,-250 484.622,-270 557.622,-270 557.622,-250 484.622,-250"/>
<text text-anchor="start" x="490.122" y="-257.667" font-family="Times Roman,serif" font-size="10.00">name = &quot;n4&quot;</text>
</g>
<!-- g8&#45;&#45;n18 -->
<g id="edge36" class="edge"><title>g8&#45;&#45;n18</title>
<path fill="none" stroke="black" d="M526.607,-824.608C504.458,-795.556 465.622,-736.427 465.622,-679 465.622,-679 465.622,-679 465.622,-433 465.622,-385.575 467.763,-372.327 484.622,-328 489.485,-315.214 497.156,-302.116 504.17,-291.519"/>
<text text-anchor="middle" x="502.759" y="-298.419" font-family="Times Roman,serif" font-size="10.00">nodes</text>
<text text-anchor="middle" x="517.82" y="-816.834" font-family="Times Roman,serif" font-size="10.00">graph</text>
</g>
<!-- e19 -->
<g id="node19" class="node"><title>e19</title>
<polygon fill="none" stroke="black" points="481.622,-188 481.622,-205 560.622,-205 560.622,-188 481.622,-188"/>
<text text-anchor="start" x="494.622" y="-194.167" font-family="Times Roman,serif" font-size="10.00"> </text>
<text text-anchor="start" x="498.622" y="-194.167" font-family="Times Roman,serif" font-size="10.00">e19 :Edge</text>
<polygon fill="none" stroke="black" points="481.622,-168 481.622,-188 560.622,-188 560.622,-168 481.622,-168"/>
<text text-anchor="start" x="487.122" y="-175.667" font-family="Times Roman,serif" font-size="10.00">name = &quot;e14&quot;</text>
</g>
<!-- g8&#45;&#45;e19 -->
<g id="edge58" class="edge"><title>g8&#45;&#45;e19</title>
<path fill="none" stroke="black" d="M515.525,-824.824C501.688,-814.17 485.204,-799.734 473.622,-784 443.42,-742.969 427.622,-729.949 427.622,-679 427.622,-679 427.622,-679 427.622,-351 427.622,-301.062 441.609,-288.628 467.622,-246 475.656,-232.836 486.804,-219.898 496.805,-209.507"/>
<text text-anchor="middle" x="493.629" y="-215.989" font-family="Times Roman,serif" font-size="10.00">edges</text>
<text text-anchor="middle" x="505.784" y="-819.563" font-family="Times Roman,serif" font-size="10.00">graph</text>
</g>
<!-- n20 -->
<g id="node20" class="node"><title>n20</title>
<polygon fill="none" stroke="black" points="514.622,-106 514.622,-123 587.622,-123 587.622,-106 514.622,-106"/>
<text text-anchor="start" x="524.122" y="-112.167" font-family="Times Roman,serif" font-size="10.00"> </text>
<text text-anchor="start" x="528.122" y="-112.167" font-family="Times Roman,serif" font-size="10.00">n20 :Node</text>
<polygon fill="none" stroke="black" points="514.622,-86 514.622,-106 587.622,-106 587.622,-86 514.622,-86"/>
<text text-anchor="start" x="520.122" y="-93.6667" font-family="Times Roman,serif" font-size="10.00">name = &quot;n5&quot;</text>
</g>
<!-- g8&#45;&#45;n20 -->
<g id="edge38" class="edge"><title>g8&#45;&#45;n20</title>
<path fill="none" stroke="black" d="M541.622,-824.799C541.622,-794.536 541.622,-731.958 541.622,-679 541.622,-679 541.622,-679 541.622,-597 541.622,-494.919 584.31,-475.336 596.622,-374 599.088,-353.705 597.862,-348.407 596.622,-328 592.17,-254.706 596.082,-234.804 576.622,-164 573.211,-151.588 567.618,-138.421 562.491,-127.682"/>
<text text-anchor="middle" x="570.175" y="-131.083" font-family="Times Roman,serif" font-size="10.00">nodes</text>
<text text-anchor="middle" x="537.396" y="-812.736" font-family="Times Roman,serif" font-size="10.00">graph</text>
</g>
<!-- e21 -->
<g id="node21" class="node"><title>e21</title>
<polygon fill="none" stroke="black" points="356.622,-24 356.622,-41 435.622,-41 435.622,-24 356.622,-24"/>
<text text-anchor="start" x="369.622" y="-30.1667" font-family="Times Roman,serif" font-size="10.00"> </text>
<text text-anchor="start" x="373.622" y="-30.1667" font-family="Times Roman,serif" font-size="10.00">e21 :Edge</text>
<polygon fill="none" stroke="black" points="356.622,-4 356.622,-24 435.622,-24 435.622,-4 356.622,-4"/>
<text text-anchor="start" x="362.122" y="-11.6667" font-family="Times Roman,serif" font-size="10.00">name = &quot;e18&quot;</text>
</g>
<!-- g8&#45;&#45;e21 -->
<g id="edge46" class="edge"><title>g8&#45;&#45;e21</title>
<path fill="none" stroke="black" d="M504.503,-836.18C472.293,-828.515 426.295,-813.13 396.622,-784 360.392,-748.432 351.622,-729.772 351.622,-679 351.622,-679 351.622,-679 351.622,-187 351.622,-134.969 372.538,-76.7274 385.528,-45.5715"/>
<text text-anchor="middle" x="386.039" y="-52.5584" font-family="Times Roman,serif" font-size="10.00">edges</text>
<text text-anchor="middle" x="494.681" y="-835.058" font-family="Times Roman,serif" font-size="10.00">graph</text>
</g>
<!-- e22 -->
<g id="node22" class="node"><title>e22</title>
<polygon fill="none" stroke="black" points="511.622,-24 511.622,-41 590.622,-41 590.622,-24 511.622,-24"/>
<text text-anchor="start" x="524.622" y="-30.1667" font-family="Times Roman,serif" font-size="10.00"> </text>
<text text-anchor="start" x="528.622" y="-30.1667" font-family="Times Roman,serif" font-size="10.00">e22 :Edge</text>
<polygon fill="none" stroke="black" points="511.622,-4 511.622,-24 590.622,-24 590.622,-4 511.622,-4"/>
<text text-anchor="start" x="517.122" y="-11.6667" font-family="Times Roman,serif" font-size="10.00">name = &quot;e15&quot;</text>
</g>
<!-- g8&#45;&#45;e22 -->
<g id="edge60" class="edge"><title>g8&#45;&#45;e22</title>
<path fill="none" stroke="black" d="M504.429,-829.119C482.358,-819.32 455.16,-804.308 436.622,-784 402.152,-746.239 389.622,-730.128 389.622,-679 389.622,-679 389.622,-679 389.622,-187 389.622,-121.366 456.1,-72.3651 503.622,-45.7221"/>
<text text-anchor="middle" x="497.947" y="-50.9564" font-family="Times Roman,serif" font-size="10.00">edges</text>
<text text-anchor="middle" x="494.429" y="-826.188" font-family="Times Roman,serif" font-size="10.00">graph</text>
</g>
<!-- e23 -->
<g id="node23" class="node"><title>e23</title>
<polygon fill="none" stroke="black" points="835.622,-24 835.622,-41 914.622,-41 914.622,-24 835.622,-24"/>
<text text-anchor="start" x="848.622" y="-30.1667" font-family="Times Roman,serif" font-size="10.00"> </text>
<text text-anchor="start" x="852.622" y="-30.1667" font-family="Times Roman,serif" font-size="10.00">e23 :Edge</text>
<polygon fill="none" stroke="black" points="835.622,-4 835.622,-24 914.622,-24 914.622,-4 835.622,-4"/>
<text text-anchor="start" x="841.122" y="-11.6667" font-family="Times Roman,serif" font-size="10.00">name = &quot;e19&quot;</text>
</g>
<!-- g8&#45;&#45;e23 -->
<g id="edge48" class="edge"><title>g8&#45;&#45;e23</title>
<path fill="none" stroke="black" d="M578.714,-841.071C690.553,-834.937 1019.05,-814.473 1055.62,-784 1093.1,-752.772 1087.62,-727.786 1087.62,-679 1087.62,-679 1087.62,-679 1087.62,-187 1087.62,-103.81 984.356,-56.9584 921.63,-36.1731"/>
<text text-anchor="middle" x="931.583" y="-32.2077" font-family="Times Roman,serif" font-size="10.00">edges</text>
<text text-anchor="middle" x="587.52" y="-833.333" font-family="Times Roman,serif" font-size="10.00">graph</text>
</g>
<!-- n24 -->
<g id="node24" class="node"><title>n24</title>
<polygon fill="none" stroke="black" points="615.622,-762 615.622,-779 688.622,-779 688.622,-762 615.622,-762"/>
<text text-anchor="start" x="625.122" y="-768.167" font-family="Times Roman,serif" font-size="10.00"> </text>
<text text-anchor="start" x="629.122" y="-768.167" font-family="Times Roman,serif" font-size="10.00">n24 :Node</text>
<polygon fill="none" stroke="black" points="615.622,-742 615.622,-762 688.622,-762 688.622,-742 615.622,-742"/>
<text text-anchor="start" x="621.122" y="-749.667" font-family="Times Roman,serif" font-size="10.00">name = &quot;n6&quot;</text>
</g>
<!-- g8&#45;&#45;n24 -->
<g id="edge40" class="edge"><title>g8&#45;&#45;n24</title>
<path fill="none" stroke="black" d="M566.035,-824.802C582.365,-812.628 603.97,-796.523 621.387,-783.539"/>
<text text-anchor="middle" x="616.647" y="-789.344" font-family="Times Roman,serif" font-size="10.00">nodes</text>
<text text-anchor="middle" x="570.775" y="-812.997" font-family="Times Roman,serif" font-size="10.00">graph</text>
</g>
<!-- n25 -->
<g id="node25" class="node"><title>n25</title>
<polygon fill="none" stroke="black" points="721.622,-762 721.622,-779 794.622,-779 794.622,-762 721.622,-762"/>
<text text-anchor="start" x="731.122" y="-768.167" font-family="Times Roman,serif" font-size="10.00"> </text>
<text text-anchor="start" x="735.122" y="-768.167" font-family="Times Roman,serif" font-size="10.00">n25 :Node</text>
<polygon fill="none" stroke="black" points="721.622,-742 721.622,-762 794.622,-762 794.622,-742 721.622,-742"/>
<text text-anchor="start" x="727.122" y="-749.667" font-family="Times Roman,serif" font-size="10.00">name = &quot;n7&quot;</text>
</g>
<!-- g8&#45;&#45;n25 -->
<g id="edge42" class="edge"><title>g8&#45;&#45;n25</title>
<path fill="none" stroke="black" d="M578.769,-830.293C611.968,-818.762 661.833,-801.009 704.622,-784 707.512,-782.851 710.479,-781.644 713.462,-780.408"/>
<text text-anchor="middle" x="706.701" y="-784.777" font-family="Times Roman,serif" font-size="10.00">nodes</text>
<text text-anchor="middle" x="585.935" y="-820.319" font-family="Times Roman,serif" font-size="10.00">graph</text>
</g>
<!-- g8&#45;&#45;n9 -->
<g id="edge44" class="edge"><title>g8&#45;&#45;n9</title>
<path fill="none" stroke="black" d="M504.429,-837.234C450.312,-828.38 347.005,-809.722 261.622,-784 257.059,-782.625 252.35,-781.044 247.682,-779.367"/>
<text text-anchor="middle" x="257.638" y="-775.432" font-family="Times Roman,serif" font-size="10.00">nodes</text>
<text text-anchor="middle" x="494.793" y="-836.909" font-family="Times Roman,serif" font-size="10.00">graph</text>
</g>
<!-- e26 -->
<g id="node27" class="node"><title>e26</title>
<polygon fill="none" stroke="black" points="220.622,-680 220.622,-697 299.622,-697 299.622,-680 220.622,-680"/>
<text text-anchor="start" x="233.622" y="-686.167" font-family="Times Roman,serif" font-size="10.00"> </text>
<text text-anchor="start" x="237.622" y="-686.167" font-family="Times Roman,serif" font-size="10.00">e26 :Edge</text>
<polygon fill="none" stroke="black" points="220.622,-660 220.622,-680 299.622,-680 299.622,-660 220.622,-660"/>
<text text-anchor="start" x="226.122" y="-667.667" font-family="Times Roman,serif" font-size="10.00">name = &quot;e16&quot;</text>
</g>
<!-- g8&#45;&#45;e26 -->
<g id="edge62" class="edge"><title>g8&#45;&#45;e26</title>
<path fill="none" stroke="black" d="M504.304,-839.448C460.889,-833.774 388.658,-819.42 337.622,-784 307.027,-762.766 283.621,-725.646 270.749,-701.708"/>
<text text-anchor="middle" x="278.833" y="-704.594" font-family="Times Roman,serif" font-size="10.00">edges</text>
<text text-anchor="middle" x="494.735" y="-839.351" font-family="Times Roman,serif" font-size="10.00">graph</text>
</g>
<!-- g8&#45;&#45;e10 -->
<g id="edge64" class="edge"><title>g8&#45;&#45;e10</title>
<path fill="none" stroke="black" d="M504.182,-837.54C442.914,-828.067 324.55,-807.348 289.622,-784 268.704,-770.017 275.952,-754.108 256.622,-738 233.763,-718.95 203.721,-704.512 178.818,-694.688"/>
<text text-anchor="middle" x="188.805" y="-691.176" font-family="Times Roman,serif" font-size="10.00">edges</text>
<text text-anchor="middle" x="494.568" y="-837.292" font-family="Times Roman,serif" font-size="10.00">graph</text>
</g>
<!-- n11&#45;&#45;e12 -->
<g id="edge66" class="edge"><title>n11&#45;&#45;e12</title>
<path fill="none" stroke="black" d="M946.997,-738.376C931.468,-726.904 912.663,-713.012 897.147,-701.55"/>
<text text-anchor="middle" x="906.948" y="-700.536" font-family="Times Roman,serif" font-size="10.00">outEdges</text>
<text text-anchor="middle" x="937.196" y="-733.39" font-family="Times Roman,serif" font-size="10.00">src</text>
</g>
<!-- n11&#45;&#45;e16 -->
<g id="edge68" class="edge"><title>n11&#45;&#45;e16</title>
<path fill="none" stroke="black" d="M978.071,-738.452C978.661,-706.839 979.622,-647.542 979.622,-597 979.622,-597 979.622,-597 979.622,-515 979.622,-464.462 979.622,-405.163 979.622,-373.549"/>
<text text-anchor="middle" x="983.849" y="-379.612" font-family="Times Roman,serif" font-size="10.00">inEdges</text>
<text text-anchor="middle" x="974.01" y="-726.314" font-family="Times Roman,serif" font-size="10.00">tgt</text>
</g>
<!-- e12&#45;&#45;n13 -->
<g id="edge70" class="edge"><title>e12&#45;&#45;n13</title>
<path fill="none" stroke="black" d="M856.316,-656.158C851.184,-644.785 844.998,-631.076 839.874,-619.719"/>
<text text-anchor="middle" x="847.453" y="-623.242" font-family="Times Roman,serif" font-size="10.00">tgt</text>
<text text-anchor="middle" x="848.736" y="-646.636" font-family="Times Roman,serif" font-size="10.00">inEdges</text>
</g>
<!-- n13&#45;&#45;e14 -->
<g id="edge72" class="edge"><title>n13&#45;&#45;e14</title>
<path fill="none" stroke="black" d="M829.622,-574.158C829.622,-562.785 829.622,-549.076 829.622,-537.719"/>
<text text-anchor="middle" x="833.849" y="-543.782" font-family="Times Roman,serif" font-size="10.00">outEdges</text>
<text text-anchor="middle" x="825.396" y="-562.095" font-family="Times Roman,serif" font-size="10.00">src</text>
</g>
<!-- e14&#45;&#45;n15 -->
<g id="edge74" class="edge"><title>e14&#45;&#45;n15</title>
<path fill="none" stroke="black" d="M782.458,-493.026C756.187,-480.786 723.678,-465.64 697.889,-453.624"/>
<text text-anchor="middle" x="707.889" y="-450.621" font-family="Times Roman,serif" font-size="10.00">tgt</text>
<text text-anchor="middle" x="772.458" y="-490.029" font-family="Times Roman,serif" font-size="10.00">inEdges</text>
</g>
<!-- n15&#45;&#45;e16 -->
<g id="edge76" class="edge"><title>n15&#45;&#45;e16</title>
<path fill="none" stroke="black" d="M697.927,-421.856C759.294,-406.42 869.685,-378.653 932.509,-362.851"/>
<text text-anchor="middle" x="924.75" y="-366.16" font-family="Times Roman,serif" font-size="10.00">outEdges</text>
<text text-anchor="middle" x="705.686" y="-412.546" font-family="Times Roman,serif" font-size="10.00">src</text>
</g>
<!-- n15&#45;&#45;e17 -->
<g id="edge78" class="edge"><title>n15&#45;&#45;e17</title>
<path fill="none" stroke="black" d="M622.445,-410.376C606.636,-398.904 587.492,-385.012 571.697,-373.55"/>
<text text-anchor="middle" x="581.515" y="-372.453" font-family="Times Roman,serif" font-size="10.00">outEdges</text>
<text text-anchor="middle" x="612.628" y="-405.474" font-family="Times Roman,serif" font-size="10.00">src</text>
</g>
<!-- n15&#45;&#45;e22 -->
<g id="edge80" class="edge"><title>n15&#45;&#45;e22</title>
<path fill="none" stroke="black" d="M653.622,-410.451C653.622,-378.837 653.622,-319.538 653.622,-269 653.622,-269 653.622,-269 653.622,-187 653.622,-129.17 607.127,-75.0171 576.614,-45.7053"/>
<text text-anchor="middle" x="586.02" y="-46.0992" font-family="Times Roman,serif" font-size="10.00">inEdges</text>
<text text-anchor="middle" x="649.396" y="-398.388" font-family="Times Roman,serif" font-size="10.00">tgt</text>
</g>
<!-- e17&#45;&#45;n18 -->
<g id="edge82" class="edge"><title>e17&#45;&#45;n18</title>
<path fill="none" stroke="black" d="M535.051,-328.158C532.277,-316.785 528.933,-303.076 526.164,-291.719"/>
<text text-anchor="middle" x="532.417" y="-296.523" font-family="Times Roman,serif" font-size="10.00">tgt</text>
<text text-anchor="middle" x="528.798" y="-317.355" font-family="Times Roman,serif" font-size="10.00">inEdges</text>
</g>
<!-- n18&#45;&#45;e19 -->
<g id="edge84" class="edge"><title>n18&#45;&#45;e19</title>
<path fill="none" stroke="black" d="M520.622,-246.158C520.622,-234.785 520.622,-221.076 520.622,-209.719"/>
<text text-anchor="middle" x="524.849" y="-215.782" font-family="Times Roman,serif" font-size="10.00">outEdges</text>
<text text-anchor="middle" x="516.396" y="-234.095" font-family="Times Roman,serif" font-size="10.00">src</text>
</g>
<!-- e19&#45;&#45;n20 -->
<g id="edge86" class="edge"><title>e19&#45;&#45;n20</title>
<path fill="none" stroke="black" d="M528.979,-164.158C533.14,-152.785 538.156,-139.076 542.31,-127.719"/>
<text text-anchor="middle" x="543.165" y="-134.682" font-family="Times Roman,serif" font-size="10.00">tgt</text>
<text text-anchor="middle" x="528.124" y="-151.195" font-family="Times Roman,serif" font-size="10.00">inEdges</text>
</g>
<!-- n20&#45;&#45;e21 -->
<g id="edge88" class="edge"><title>n20&#45;&#45;e21</title>
<path fill="none" stroke="black" d="M507.858,-82.3761C486.173,-70.904 459.913,-57.0118 438.248,-45.5501"/>
<text text-anchor="middle" x="448.235" y="-43.0526" font-family="Times Roman,serif" font-size="10.00">outEdges</text>
<text text-anchor="middle" x="497.87" y="-78.8736" font-family="Times Roman,serif" font-size="10.00">src</text>
</g>
<!-- n20&#45;&#45;e22 -->
<g id="edge90" class="edge"><title>n20&#45;&#45;e22</title>
<path fill="none" stroke="black" d="M550.622,-82.1584C550.622,-70.7851 550.622,-57.0756 550.622,-45.7191"/>
<text text-anchor="middle" x="554.849" y="-51.7822" font-family="Times Roman,serif" font-size="10.00">outEdges</text>
<text text-anchor="middle" x="546.396" y="-70.0954" font-family="Times Roman,serif" font-size="10.00">src</text>
</g>
<!-- n20&#45;&#45;e23 -->
<g id="edge92" class="edge"><title>n20&#45;&#45;e23</title>
<path fill="none" stroke="black" d="M594.656,-93.8558C655.56,-78.4418 765.049,-50.7316 827.532,-34.918"/>
<text text-anchor="middle" x="819.782" y="-38.2387" font-family="Times Roman,serif" font-size="10.00">inEdges</text>
<text text-anchor="middle" x="602.405" y="-84.5351" font-family="Times Roman,serif" font-size="10.00">tgt</text>
</g>
<!-- n9&#45;&#45;e26 -->
<g id="edge94" class="edge"><title>n9&#45;&#45;e26</title>
<path fill="none" stroke="black" d="M219.221,-738.158C226.989,-726.785 236.351,-713.076 244.107,-701.719"/>
<text text-anchor="middle" x="242.486" y="-708.587" font-family="Times Roman,serif" font-size="10.00">outEdges_inEdges</text>
<text text-anchor="middle" x="220.843" y="-725.291" font-family="Times Roman,serif" font-size="10.00">src_tgt</text>
</g>
<!-- n9&#45;&#45;e10 -->
<g id="edge96" class="edge"><title>n9&#45;&#45;e10</title>
<path fill="none" stroke="black" d="M183.566,-738.158C173.58,-726.785 161.542,-713.076 151.571,-701.719"/>
<text text-anchor="middle" x="160.726" y="-702.741" font-family="Times Roman,serif" font-size="10.00">outEdges_inEdges</text>
<text text-anchor="middle" x="174.411" y="-731.137" font-family="Times Roman,serif" font-size="10.00">src_tgt</text>
</g>
</g>
</svg>
