<?xml version="1.0" encoding="UTF-8" standalone="no"?>
<!DOCTYPE svg PUBLIC "-//W3C//DTD SVG 1.1//EN"
 "http://www.w3.org/Graphics/SVG/1.1/DTD/svg11.dtd">
<!-- Generated by graphviz version 2.28.0 (20110507.0327)
 -->
<!-- Title: ObjectDiagram Pages: 1 -->
<svg width="1054pt" height="1298pt"
 viewBox="0.00 0.00 1053.58 1298.00" xmlns="http://www.w3.org/2000/svg" xmlns:xlink="http://www.w3.org/1999/xlink">
<g id="graph1" class="graph" transform="scale(1 1) rotate(0) translate(4 1294)">
<title>ObjectDiagram</title>
<polygon fill="white" stroke="white" points="-4,5 -4,-1294 1050.58,-1294 1050.58,5 -4,5"/>
<!-- g1 -->
<g id="node1" class="node"><title>g1</title>
<polygon fill="deepskyblue" stroke="deepskyblue" points="289.757,-1234.5 289.757,-1285.5 364.757,-1285.5 364.757,-1234.5 289.757,-1234.5"/>
<text text-anchor="start" x="326.257" y="-1275.5" font-family="Arial" font-size="10.00">«bound»</text>
<polygon fill="none" stroke="black" points="290.257,-1254 290.257,-1270 365.257,-1270 365.257,-1254 290.257,-1254"/>
<text text-anchor="start" x="293.757" y="-1260" font-family="Arial" font-size="10.00"> </text>
<text text-anchor="start" x="297.757" y="-1260" font-family="Arial" font-size="10.00"> g1 :GraphPO </text>
<polygon fill="none" stroke="black" points="290.257,-1234 290.257,-1254 365.257,-1254 365.257,-1234 290.257,-1234"/>
<text text-anchor="start" x="324.257" y="-1242" font-family="Arial" font-size="10.00"> &#160;</text>
</g>
<!-- n2 -->
<g id="node2" class="node"><title>n2</title>
<polygon fill="deepskyblue" stroke="deepskyblue" points="199.257,-1152.5 199.257,-1189.5 253.257,-1189.5 253.257,-1152.5 199.257,-1152.5"/>
<polygon fill="none" stroke="black" points="199.257,-1172 199.257,-1189 253.257,-1189 253.257,-1172 199.257,-1172"/>
<text text-anchor="start" x="202.757" y="-1178.5" font-family="Arial" font-size="10.00"> </text>
<text text-anchor="start" x="206.757" y="-1178.5" font-family="Arial" font-size="10.00"> n2 :NodePO </text>
<polygon fill="none" stroke="black" points="199.257,-1152 199.257,-1172 253.257,-1172 253.257,-1152 199.257,-1152"/>
<text text-anchor="start" x="222.757" y="-1160" font-family="Arial" font-size="10.00"> &#160;</text>
</g>
<!-- g1&#45;&#45;n2 -->
<g id="edge16" class="edge"><title>g1&#45;&#45;n2</title>
<path fill="none" stroke="black" d="M293.906,-1230.27C280.001,-1218.29 264.128,-1204.62 251.253,-1193.53"/>
<text text-anchor="middle" x="260.878" y="-1193.74" font-family="Arial" font-size="10.00">nodes</text>
</g>
<!-- g8 -->
<g id="node9" class="node"><title>g8</title>
<a xlink:href="../../SDMLib/src/org/sdmlib/examples/helloworld/Graph.java" xlink:title="&lt;TABLE&gt;">
<polygon fill="none" stroke="black" points="490.257,-834 490.257,-851 544.257,-851 544.257,-834 490.257,-834"/>
<text text-anchor="start" x="493.757" y="-840.5" font-family="Arial" font-size="10.00"> </text>
<text text-anchor="start" x="497.757" y="-840.5" font-family="Arial" font-size="10.00">g8 :Graph</text>
</a>
</g>
<!-- g1&#45;&#45;g8 -->
<g id="edge2" class="edge"><title>g1&#45;&#45;g8</title>
<path fill="none" stroke="black" stroke-dasharray="1,5" d="M353.479,-1230.28C379.732,-1198.45 416.257,-1144.38 416.257,-1090 416.257,-1090 416.257,-1090 416.257,-1006 416.257,-945.348 467.868,-888.627 497.303,-861.21"/>
<text text-anchor="middle" x="493.709" y="-868.042" font-family="Arial" font-size="10.00">match</text>
</g>
<!-- e3 -->
<g id="node3" class="node"><title>e3</title>
<polygon fill="deepskyblue" stroke="deepskyblue" points="168.257,-1070.5 168.257,-1107.5 222.257,-1107.5 222.257,-1070.5 168.257,-1070.5"/>
<polygon fill="none" stroke="black" points="168.257,-1090 168.257,-1107 222.257,-1107 222.257,-1090 168.257,-1090"/>
<text text-anchor="start" x="171.757" y="-1096.5" font-family="Arial" font-size="10.00"> </text>
<text text-anchor="start" x="175.757" y="-1096.5" font-family="Arial" font-size="10.00"> e3 :EdgePO </text>
<polygon fill="none" stroke="black" points="168.257,-1070 168.257,-1090 222.257,-1090 222.257,-1070 168.257,-1070"/>
<text text-anchor="start" x="191.757" y="-1078" font-family="Arial" font-size="10.00"> &#160;</text>
</g>
<!-- n2&#45;&#45;e3 -->
<g id="edge18" class="edge"><title>n2&#45;&#45;e3</title>
<path fill="none" stroke="black" d="M217.786,-1148.14C213.376,-1136.76 208.003,-1122.89 203.611,-1111.56"/>
<text text-anchor="middle" x="210.826" y="-1115.98" font-family="Arial" font-size="10.00">outEdges</text>
</g>
<!-- n9 -->
<g id="node25" class="node"><title>n9</title>
<a xlink:href="../../SDMLib/src/org/sdmlib/examples/helloworld/Node.java" xlink:title="&lt;TABLE&gt;">
<polygon fill="none" stroke="black" points="149.257,-762 149.257,-779 215.257,-779 215.257,-762 149.257,-762"/>
<text text-anchor="start" x="160.257" y="-768.5" font-family="Arial" font-size="10.00"> </text>
<text text-anchor="start" x="164.257" y="-768.5" font-family="Arial" font-size="10.00">n9 :Node</text>
</a>
<polygon fill="none" stroke="black" points="149.257,-742 149.257,-762 215.257,-762 215.257,-742 149.257,-742"/>
<text text-anchor="start" x="154.257" y="-750" font-family="Arial" font-size="10.00">name = &quot;n8&quot;</text>
</g>
<!-- n2&#45;&#45;n9 -->
<g id="edge4" class="edge"><title>n2&#45;&#45;n9</title>
<path fill="none" stroke="black" stroke-dasharray="1,5" d="M237.703,-1148.41C252.739,-1117.98 277.257,-1060.34 277.257,-1008 277.257,-1008 277.257,-1008 277.257,-924 277.257,-874.789 265.544,-861.602 239.257,-820 230.811,-806.633 218.845,-793.86 208.056,-783.721"/>
<text text-anchor="middle" x="217.53" y="-784.421" font-family="Arial" font-size="10.00">match</text>
</g>
<!-- n4 -->
<g id="node4" class="node"><title>n4</title>
<polygon fill="deepskyblue" stroke="deepskyblue" points="168.257,-988.5 168.257,-1025.5 222.257,-1025.5 222.257,-988.5 168.257,-988.5"/>
<polygon fill="none" stroke="black" points="168.257,-1008 168.257,-1025 222.257,-1025 222.257,-1008 168.257,-1008"/>
<text text-anchor="start" x="171.757" y="-1014.5" font-family="Arial" font-size="10.00"> </text>
<text text-anchor="start" x="175.757" y="-1014.5" font-family="Arial" font-size="10.00"> n4 :NodePO </text>
<polygon fill="none" stroke="black" points="168.257,-988 168.257,-1008 222.257,-1008 222.257,-988 168.257,-988"/>
<text text-anchor="start" x="191.757" y="-996" font-family="Arial" font-size="10.00"> &#160;</text>
</g>
<!-- e3&#45;&#45;n4 -->
<g id="edge20" class="edge"><title>e3&#45;&#45;n4</title>
<path fill="none" stroke="black" d="M195.257,-1066.14C195.257,-1054.76 195.257,-1040.89 195.257,-1029.56"/>
<text text-anchor="middle" x="199.483" y="-1036.12" font-family="Arial" font-size="10.00">tgt</text>
</g>
<!-- e10 -->
<g id="node27" class="node"><title>e10</title>
<a xlink:href="../../SDMLib/src/org/sdmlib/examples/helloworld/Edge.java" xlink:title="&lt;TABLE&gt;">
<polygon fill="none" stroke="black" points="78.2573,-680 78.2573,-697 149.257,-697 149.257,-680 78.2573,-680"/>
<text text-anchor="start" x="89.2573" y="-686.5" font-family="Arial" font-size="10.00"> </text>
<text text-anchor="start" x="93.2573" y="-686.5" font-family="Arial" font-size="10.00">e10 :Edge</text>
</a>
<polygon fill="none" stroke="black" points="78.2573,-660 78.2573,-680 149.257,-680 149.257,-660 78.2573,-660"/>
<text text-anchor="start" x="83.2573" y="-668" font-family="Arial" font-size="10.00">name = &quot;e17&quot;</text>
</g>
<!-- e3&#45;&#45;e10 -->
<g id="edge6" class="edge"><title>e3&#45;&#45;e10</title>
<path fill="none" stroke="black" stroke-dasharray="1,5" d="M175.22,-1066.18C133.51,-1019.06 38.5584,-902.412 6.25726,-784 0.876912,-764.276 -4.20194,-755.566 6.25726,-738 20.0399,-714.852 46.6352,-700.374 69.8617,-691.673"/>
<text text-anchor="middle" x="62.9857" y="-696.434" font-family="Arial" font-size="10.00">match</text>
</g>
<!-- e5 -->
<g id="node5" class="node"><title>e5</title>
<polygon fill="deepskyblue" stroke="deepskyblue" points="149.257,-906.5 149.257,-943.5 203.257,-943.5 203.257,-906.5 149.257,-906.5"/>
<polygon fill="none" stroke="black" points="149.257,-926 149.257,-943 203.257,-943 203.257,-926 149.257,-926"/>
<text text-anchor="start" x="152.757" y="-932.5" font-family="Arial" font-size="10.00"> </text>
<text text-anchor="start" x="156.757" y="-932.5" font-family="Arial" font-size="10.00"> e5 :EdgePO </text>
<polygon fill="none" stroke="black" points="149.257,-906 149.257,-926 203.257,-926 203.257,-906 149.257,-906"/>
<text text-anchor="start" x="172.757" y="-914" font-family="Arial" font-size="10.00"> &#160;</text>
</g>
<!-- n4&#45;&#45;e5 -->
<g id="edge22" class="edge"><title>n4&#45;&#45;e5</title>
<path fill="none" stroke="black" d="M190.065,-984.14C187.363,-972.759 184.069,-958.893 181.377,-947.557"/>
<text text-anchor="middle" x="187.583" y="-952.898" font-family="Arial" font-size="10.00">outEdges</text>
</g>
<!-- n4&#45;&#45;n9 -->
<g id="edge8" class="edge"><title>n4&#45;&#45;n9</title>
<path fill="none" stroke="black" stroke-dasharray="1,5" d="M207.072,-984.383C212.22,-973.759 217.665,-960.564 220.257,-948 231.754,-892.285 236.525,-874.513 220.257,-820 216.333,-806.85 208.368,-793.91 200.74,-783.601"/>
<text text-anchor="middle" x="209.478" y="-785.964" font-family="Arial" font-size="10.00">match</text>
</g>
<!-- n6 -->
<g id="node6" class="node"><title>n6</title>
<polygon fill="deepskyblue" stroke="deepskyblue" points="149.257,-824.5 149.257,-861.5 203.257,-861.5 203.257,-824.5 149.257,-824.5"/>
<polygon fill="none" stroke="black" points="149.257,-844 149.257,-861 203.257,-861 203.257,-844 149.257,-844"/>
<text text-anchor="start" x="152.757" y="-850.5" font-family="Arial" font-size="10.00"> </text>
<text text-anchor="start" x="156.757" y="-850.5" font-family="Arial" font-size="10.00"> n6 :NodePO </text>
<polygon fill="none" stroke="black" points="149.257,-824 149.257,-844 203.257,-844 203.257,-824 149.257,-824"/>
<text text-anchor="start" x="172.757" y="-832" font-family="Arial" font-size="10.00"> &#160;</text>
</g>
<!-- e5&#45;&#45;n6 -->
<g id="edge24" class="edge"><title>e5&#45;&#45;n6</title>
<path fill="none" stroke="black" d="M176.257,-902.14C176.257,-890.759 176.257,-876.893 176.257,-865.557"/>
<text text-anchor="middle" x="180.483" y="-872.12" font-family="Arial" font-size="10.00">tgt</text>
</g>
<!-- e5&#45;&#45;e10 -->
<g id="edge10" class="edge"><title>e5&#45;&#45;e10</title>
<path fill="none" stroke="black" stroke-dasharray="1,5" d="M155.31,-902.364C146.68,-892.145 137.494,-879.288 132.257,-866 110.121,-809.829 110.122,-737.094 111.777,-701.516"/>
<text text-anchor="middle" x="115.671" y="-708.227" font-family="Arial" font-size="10.00">match</text>
</g>
<!-- e7 -->
<g id="node7" class="node"><title>e7</title>
<polygon fill="deepskyblue" stroke="deepskyblue" points="23.2573,-742.5 23.2573,-779.5 77.2573,-779.5 77.2573,-742.5 23.2573,-742.5"/>
<polygon fill="none" stroke="black" points="23.2573,-762 23.2573,-779 77.2573,-779 77.2573,-762 23.2573,-762"/>
<text text-anchor="start" x="26.7573" y="-768.5" font-family="Arial" font-size="10.00"> </text>
<text text-anchor="start" x="30.7573" y="-768.5" font-family="Arial" font-size="10.00"> e7 :EdgePO </text>
<polygon fill="none" stroke="black" points="23.2573,-742 23.2573,-762 77.2573,-762 77.2573,-742 23.2573,-742"/>
<text text-anchor="start" x="46.7573" y="-750" font-family="Arial" font-size="10.00"> &#160;</text>
</g>
<!-- n6&#45;&#45;e7 -->
<g id="edge26" class="edge"><title>n6&#45;&#45;e7</title>
<path fill="none" stroke="black" d="M142.16,-820.351C124.231,-808.967 102.315,-795.052 84.3819,-783.666"/>
<text text-anchor="middle" x="94.2984" y="-782.457" font-family="Arial" font-size="10.00">outEdges</text>
</g>
<!-- n6&#45;&#45;n9 -->
<g id="edge12" class="edge"><title>n6&#45;&#45;n9</title>
<path fill="none" stroke="black" stroke-dasharray="1,5" d="M177.897,-820.14C178.75,-808.759 179.79,-794.893 180.64,-783.557"/>
<text text-anchor="middle" x="184.177" y="-790.411" font-family="Arial" font-size="10.00">match</text>
</g>
<!-- e7&#45;&#45;n2 -->
<g id="edge28" class="edge"><title>e7&#45;&#45;n2</title>
<path fill="none" stroke="black" d="M44.7709,-783.585C37.4117,-814.483 25.2573,-873.203 25.2573,-924 25.2573,-1008 25.2573,-1008 25.2573,-1008 25.2573,-1092.26 133.658,-1140.13 191.246,-1159.62"/>
<text text-anchor="middle" x="181.287" y="-1158.03" font-family="Arial" font-size="10.00">tgt</text>
</g>
<!-- e7&#45;&#45;e10 -->
<g id="edge14" class="edge"><title>e7&#45;&#45;e10</title>
<path fill="none" stroke="black" stroke-dasharray="1,5" d="M67.4723,-738.14C76.4345,-726.759 87.3541,-712.893 96.2812,-701.557"/>
<text text-anchor="middle" x="93.9942" y="-708.792" font-family="Arial" font-size="10.00">match</text>
</g>
<!-- matchIsomorphic -->
<g id="node8" class="node"><title>matchIsomorphic</title>
<text text-anchor="middle" x="436.257" y="-1257.5" font-family="Arial" font-size="10.00">matchIsomorphic</text>
</g>
<!-- n11 -->
<g id="node10" class="node"><title>n11</title>
<a xlink:href="../../SDMLib/src/org/sdmlib/examples/helloworld/Node.java" xlink:title="&lt;TABLE&gt;">
<polygon fill="none" stroke="black" points="905.257,-762 905.257,-779 971.257,-779 971.257,-762 905.257,-762"/>
<text text-anchor="start" x="913.757" y="-768.5" font-family="Arial" font-size="10.00"> </text>
<text text-anchor="start" x="917.757" y="-768.5" font-family="Arial" font-size="10.00">n11 :Node</text>
</a>
<polygon fill="none" stroke="black" points="905.257,-742 905.257,-762 971.257,-762 971.257,-742 905.257,-742"/>
<text text-anchor="start" x="910.257" y="-750" font-family="Arial" font-size="10.00">name = &quot;n1&quot;</text>
</g>
<!-- g8&#45;&#45;n11 -->
<g id="edge30" class="edge"><title>g8&#45;&#45;n11</title>
<path fill="none" stroke="black" d="M552.373,-839.065C618.22,-832.987 764.327,-816.766 883.257,-784 887.818,-782.743 892.516,-781.228 897.154,-779.588"/>
<text text-anchor="middle" x="889.999" y="-784.074" font-family="Arial" font-size="10.00">nodes</text>
<text text-anchor="middle" x="560.987" y="-831.486" font-family="Arial" font-size="10.00">graph</text>
</g>
<!-- e12 -->
<g id="node11" class="node"><title>e12</title>
<a xlink:href="../../SDMLib/src/org/sdmlib/examples/helloworld/Edge.java" xlink:title="&lt;TABLE&gt;">
<polygon fill="none" stroke="black" points="795.257,-680 795.257,-697 866.257,-697 866.257,-680 795.257,-680"/>
<text text-anchor="start" x="806.257" y="-686.5" font-family="Arial" font-size="10.00"> </text>
<text text-anchor="start" x="810.257" y="-686.5" font-family="Arial" font-size="10.00">e12 :Edge</text>
</a>
<polygon fill="none" stroke="black" points="795.257,-660 795.257,-680 866.257,-680 866.257,-660 795.257,-660"/>
<text text-anchor="start" x="800.257" y="-668" font-family="Arial" font-size="10.00">name = &quot;e10&quot;</text>
</g>
<!-- g8&#45;&#45;e12 -->
<g id="edge50" class="edge"><title>g8&#45;&#45;e12</title>
<path fill="none" stroke="black" d="M552.451,-839.679C621.572,-834.389 771.456,-819.083 807.257,-784 829.182,-762.515 832.344,-725.165 831.857,-701.558"/>
<text text-anchor="middle" x="836.109" y="-708.109" font-family="Arial" font-size="10.00">edges</text>
<text text-anchor="middle" x="561.135" y="-832.221" font-family="Arial" font-size="10.00">graph</text>
</g>
<!-- n13 -->
<g id="node12" class="node"><title>n13</title>
<a xlink:href="../../SDMLib/src/org/sdmlib/examples/helloworld/Node.java" xlink:title="&lt;TABLE&gt;">
<polygon fill="none" stroke="black" points="761.257,-598 761.257,-615 827.257,-615 827.257,-598 761.257,-598"/>
<text text-anchor="start" x="769.757" y="-604.5" font-family="Arial" font-size="10.00"> </text>
<text text-anchor="start" x="773.757" y="-604.5" font-family="Arial" font-size="10.00">n13 :Node</text>
</a>
<polygon fill="none" stroke="black" points="761.257,-578 761.257,-598 827.257,-598 827.257,-578 761.257,-578"/>
<text text-anchor="start" x="766.257" y="-586" font-family="Arial" font-size="10.00">name = &quot;n2&quot;</text>
</g>
<!-- g8&#45;&#45;n13 -->
<g id="edge32" class="edge"><title>g8&#45;&#45;n13</title>
<path fill="none" stroke="black" d="M552.421,-839.265C616.059,-833.517 746.342,-817.821 774.257,-784 778.786,-778.513 777.193,-663.034 778.257,-656 780.102,-643.813 783.645,-630.538 786.93,-619.767"/>
<text text-anchor="middle" x="788.372" y="-627.163" font-family="Arial" font-size="10.00">nodes</text>
<text text-anchor="middle" x="561.033" y="-831.683" font-family="Arial" font-size="10.00">graph</text>
</g>
<!-- e14 -->
<g id="node13" class="node"><title>e14</title>
<a xlink:href="../../SDMLib/src/org/sdmlib/examples/helloworld/Edge.java" xlink:title="&lt;TABLE&gt;">
<polygon fill="none" stroke="black" points="759.257,-516 759.257,-533 830.257,-533 830.257,-516 759.257,-516"/>
<text text-anchor="start" x="770.257" y="-522.5" font-family="Arial" font-size="10.00"> </text>
<text text-anchor="start" x="774.257" y="-522.5" font-family="Arial" font-size="10.00">e14 :Edge</text>
</a>
<polygon fill="none" stroke="black" points="759.257,-496 759.257,-516 830.257,-516 830.257,-496 759.257,-496"/>
<text text-anchor="start" x="764.257" y="-504" font-family="Arial" font-size="10.00">name = &quot;e11&quot;</text>
</g>
<!-- g8&#45;&#45;e14 -->
<g id="edge52" class="edge"><title>g8&#45;&#45;e14</title>
<path fill="none" stroke="black" d="M552.416,-839.08C624.519,-832.527 786.145,-814.765 831.257,-784 881.85,-749.497 895.441,-715.802 882.257,-656 873.61,-616.774 866.024,-607.758 844.257,-574 835.972,-561.151 825.041,-548.141 815.513,-537.709"/>
<text text-anchor="middle" x="824.725" y="-539.098" font-family="Arial" font-size="10.00">edges</text>
<text text-anchor="middle" x="561.036" y="-831.511" font-family="Arial" font-size="10.00">graph</text>
</g>
<!-- n15 -->
<g id="node14" class="node"><title>n15</title>
<a xlink:href="../../SDMLib/src/org/sdmlib/examples/helloworld/Node.java" xlink:title="&lt;TABLE&gt;">
<polygon fill="none" stroke="black" points="590.257,-434 590.257,-451 656.257,-451 656.257,-434 590.257,-434"/>
<text text-anchor="start" x="598.757" y="-440.5" font-family="Arial" font-size="10.00"> </text>
<text text-anchor="start" x="602.757" y="-440.5" font-family="Arial" font-size="10.00">n15 :Node</text>
</a>
<polygon fill="none" stroke="black" points="590.257,-414 590.257,-434 656.257,-434 656.257,-414 590.257,-414"/>
<text text-anchor="start" x="595.257" y="-422" font-family="Arial" font-size="10.00">name = &quot;n3&quot;</text>
</g>
<!-- g8&#45;&#45;n15 -->
<g id="edge34" class="edge"><title>g8&#45;&#45;n15</title>
<path fill="none" stroke="black" d="M524.051,-824.811C534.981,-795.562 555.257,-734.021 555.257,-680 555.257,-680 555.257,-680 555.257,-596 555.257,-542.164 587.581,-485.557 607.657,-455.59"/>
<text text-anchor="middle" x="606.26" y="-462.992" font-family="Arial" font-size="10.00">nodes</text>
<text text-anchor="middle" x="523.177" y="-812.349" font-family="Arial" font-size="10.00">graph</text>
</g>
<!-- e16 -->
<g id="node15" class="node"><title>e16</title>
<a xlink:href="../../SDMLib/src/org/sdmlib/examples/helloworld/Edge.java" xlink:title="&lt;TABLE&gt;">
<polygon fill="none" stroke="black" points="905.257,-352 905.257,-369 976.257,-369 976.257,-352 905.257,-352"/>
<text text-anchor="start" x="916.257" y="-358.5" font-family="Arial" font-size="10.00"> </text>
<text text-anchor="start" x="920.257" y="-358.5" font-family="Arial" font-size="10.00">e16 :Edge</text>
</a>
<polygon fill="none" stroke="black" points="905.257,-332 905.257,-352 976.257,-352 976.257,-332 905.257,-332"/>
<text text-anchor="start" x="910.257" y="-340" font-family="Arial" font-size="10.00">name = &quot;e12&quot;</text>
</g>
<!-- g8&#45;&#45;e16 -->
<g id="edge54" class="edge"><title>g8&#45;&#45;e16</title>
<path fill="none" stroke="black" d="M552.501,-840.04C656.466,-833.934 956.608,-813.859 988.257,-784 1022.43,-751.755 1007.26,-726.987 1007.26,-680 1007.26,-680 1007.26,-680 1007.26,-514 1007.26,-460.281 975.409,-403.63 955.628,-373.624"/>
<text text-anchor="middle" x="964.073" y="-376.481" font-family="Arial" font-size="10.00">edges</text>
<text text-anchor="middle" x="561.288" y="-832.767" font-family="Arial" font-size="10.00">graph</text>
</g>
<!-- e17 -->
<g id="node16" class="node"><title>e17</title>
<a xlink:href="../../SDMLib/src/org/sdmlib/examples/helloworld/Edge.java" xlink:title="&lt;TABLE&gt;">
<polygon fill="none" stroke="black" points="478.257,-352 478.257,-369 549.257,-369 549.257,-352 478.257,-352"/>
<text text-anchor="start" x="489.257" y="-358.5" font-family="Arial" font-size="10.00"> </text>
<text text-anchor="start" x="493.257" y="-358.5" font-family="Arial" font-size="10.00">e17 :Edge</text>
</a>
<polygon fill="none" stroke="black" points="478.257,-332 478.257,-352 549.257,-352 549.257,-332 478.257,-332"/>
<text text-anchor="start" x="483.257" y="-340" font-family="Arial" font-size="10.00">name = &quot;e13&quot;</text>
</g>
<!-- g8&#45;&#45;e17 -->
<g id="edge56" class="edge"><title>g8&#45;&#45;e17</title>
<path fill="none" stroke="black" d="M510.464,-824.811C499.533,-795.562 479.257,-734.021 479.257,-680 479.257,-680 479.257,-680 479.257,-514 479.257,-462.847 495.695,-404.508 505.712,-373.707"/>
<text text-anchor="middle" x="507.006" y="-381.123" font-family="Arial" font-size="10.00">edges</text>
<text text-anchor="middle" x="503.394" y="-815.239" font-family="Arial" font-size="10.00">graph</text>
</g>
<!-- n18 -->
<g id="node17" class="node"><title>n18</title>
<a xlink:href="../../SDMLib/src/org/sdmlib/examples/helloworld/Node.java" xlink:title="&lt;TABLE&gt;">
<polygon fill="none" stroke="black" points="459.257,-270 459.257,-287 525.257,-287 525.257,-270 459.257,-270"/>
<text text-anchor="start" x="467.757" y="-276.5" font-family="Arial" font-size="10.00"> </text>
<text text-anchor="start" x="471.757" y="-276.5" font-family="Arial" font-size="10.00">n18 :Node</text>
</a>
<polygon fill="none" stroke="black" points="459.257,-250 459.257,-270 525.257,-270 525.257,-250 459.257,-250"/>
<text text-anchor="start" x="464.257" y="-258" font-family="Arial" font-size="10.00">name = &quot;n4&quot;</text>
</g>
<!-- g8&#45;&#45;n18 -->
<g id="edge36" class="edge"><title>g8&#45;&#45;n18</title>
<path fill="none" stroke="black" d="M502.962,-824.791C480.947,-796.481 441.257,-737.472 441.257,-680 441.257,-680 441.257,-680 441.257,-432 441.257,-385.013 444.48,-372.259 460.257,-328 464.775,-315.326 471.848,-302.122 478.196,-291.519"/>
<text text-anchor="middle" x="477.226" y="-298.972" font-family="Arial" font-size="10.00">nodes</text>
<text text-anchor="middle" x="494.13" y="-817.601" font-family="Arial" font-size="10.00">graph</text>
</g>
<!-- e19 -->
<g id="node18" class="node"><title>e19</title>
<a xlink:href="../../SDMLib/src/org/sdmlib/examples/helloworld/Edge.java" xlink:title="&lt;TABLE&gt;">
<polygon fill="none" stroke="black" points="457.257,-188 457.257,-205 528.257,-205 528.257,-188 457.257,-188"/>
<text text-anchor="start" x="468.257" y="-194.5" font-family="Arial" font-size="10.00"> </text>
<text text-anchor="start" x="472.257" y="-194.5" font-family="Arial" font-size="10.00">e19 :Edge</text>
</a>
<polygon fill="none" stroke="black" points="457.257,-168 457.257,-188 528.257,-188 528.257,-168 457.257,-168"/>
<text text-anchor="start" x="462.257" y="-176" font-family="Arial" font-size="10.00">name = &quot;e14&quot;</text>
</g>
<!-- g8&#45;&#45;e19 -->
<g id="edge58" class="edge"><title>g8&#45;&#45;e19</title>
<path fill="none" stroke="black" d="M492.588,-824.839C478.781,-814.285 462.031,-799.785 450.257,-784 419.931,-743.341 403.257,-730.723 403.257,-680 403.257,-680 403.257,-680 403.257,-350 403.257,-293.843 444.847,-238.76 471.166,-209.526"/>
<text text-anchor="middle" x="468.397" y="-216.635" font-family="Arial" font-size="10.00">edges</text>
<text text-anchor="middle" x="482.838" y="-820.114" font-family="Arial" font-size="10.00">graph</text>
</g>
<!-- n20 -->
<g id="node19" class="node"><title>n20</title>
<a xlink:href="../../SDMLib/src/org/sdmlib/examples/helloworld/Node.java" xlink:title="&lt;TABLE&gt;">
<polygon fill="none" stroke="black" points="490.257,-106 490.257,-123 556.257,-123 556.257,-106 490.257,-106"/>
<text text-anchor="start" x="498.757" y="-112.5" font-family="Arial" font-size="10.00"> </text>
<text text-anchor="start" x="502.757" y="-112.5" font-family="Arial" font-size="10.00">n20 :Node</text>
</a>
<polygon fill="none" stroke="black" points="490.257,-86 490.257,-106 556.257,-106 556.257,-86 490.257,-86"/>
<text text-anchor="start" x="495.257" y="-94" font-family="Arial" font-size="10.00">name = &quot;n5&quot;</text>
</g>
<!-- g8&#45;&#45;n20 -->
<g id="edge38" class="edge"><title>g8&#45;&#45;n20</title>
<path fill="none" stroke="black" d="M517.257,-824.974C517.257,-795.458 517.257,-732.875 517.257,-680 517.257,-680 517.257,-680 517.257,-596 517.257,-495.053 554.53,-474.375 565.257,-374 567.43,-353.671 566.558,-348.403 565.257,-328 560.581,-254.665 561.537,-235.423 544.257,-164 541.286,-151.718 536.592,-138.435 532.395,-127.684"/>
<text text-anchor="middle" x="539.599" y="-132.119" font-family="Arial" font-size="10.00">nodes</text>
<text text-anchor="middle" x="513.031" y="-813.411" font-family="Arial" font-size="10.00">graph</text>
</g>
<!-- e21 -->
<g id="node20" class="node"><title>e21</title>
<a xlink:href="../../SDMLib/src/org/sdmlib/examples/helloworld/Edge.java" xlink:title="&lt;TABLE&gt;">
<polygon fill="none" stroke="black" points="338.257,-24 338.257,-41 409.257,-41 409.257,-24 338.257,-24"/>
<text text-anchor="start" x="349.257" y="-30.5" font-family="Arial" font-size="10.00"> </text>
<text text-anchor="start" x="353.257" y="-30.5" font-family="Arial" font-size="10.00">e21 :Edge</text>
</a>
<polygon fill="none" stroke="black" points="338.257,-4 338.257,-24 409.257,-24 409.257,-4 338.257,-4"/>
<text text-anchor="start" x="343.257" y="-12" font-family="Arial" font-size="10.00">name = &quot;e18&quot;</text>
</g>
<!-- g8&#45;&#45;e21 -->
<g id="edge46" class="edge"><title>g8&#45;&#45;e21</title>
<path fill="none" stroke="black" d="M482.022,-835.48C450.298,-827.974 404.189,-812.783 374.257,-784 337.696,-748.842 327.257,-730.723 327.257,-680 327.257,-680 327.257,-680 327.257,-186 327.257,-134.105 349.372,-76.2925 362.934,-45.717"/>
<text text-anchor="middle" x="363.225" y="-53.2128" font-family="Arial" font-size="10.00">edges</text>
<text text-anchor="middle" x="472.203" y="-834.874" font-family="Arial" font-size="10.00">graph</text>
</g>
<!-- e22 -->
<g id="node21" class="node"><title>e22</title>
<a xlink:href="../../SDMLib/src/org/sdmlib/examples/helloworld/Edge.java" xlink:title="&lt;TABLE&gt;">
<polygon fill="none" stroke="black" points="488.257,-24 488.257,-41 559.257,-41 559.257,-24 488.257,-24"/>
<text text-anchor="start" x="499.257" y="-30.5" font-family="Arial" font-size="10.00"> </text>
<text text-anchor="start" x="503.257" y="-30.5" font-family="Arial" font-size="10.00">e22 :Edge</text>
</a>
<polygon fill="none" stroke="black" points="488.257,-4 488.257,-24 559.257,-24 559.257,-4 488.257,-4"/>
<text text-anchor="start" x="493.257" y="-12" font-family="Arial" font-size="10.00">name = &quot;e15&quot;</text>
</g>
<!-- g8&#45;&#45;e22 -->
<g id="edge60" class="edge"><title>g8&#45;&#45;e22</title>
<path fill="none" stroke="black" d="M482.135,-828.758C460.327,-819.085 432.984,-804.138 414.257,-784 379.461,-746.583 365.257,-731.096 365.257,-680 365.257,-680 365.257,-680 365.257,-186 365.257,-120.195 432.898,-71.1489 479.665,-45.1027"/>
<text text-anchor="middle" x="473.966" y="-50.8197" font-family="Arial" font-size="10.00">edges</text>
<text text-anchor="middle" x="472.136" y="-826.334" font-family="Arial" font-size="10.00">graph</text>
</g>
<!-- e23 -->
<g id="node22" class="node"><title>e23</title>
<a xlink:href="../../SDMLib/src/org/sdmlib/examples/helloworld/Edge.java" xlink:title="&lt;TABLE&gt;">
<polygon fill="none" stroke="black" points="801.257,-24 801.257,-41 872.257,-41 872.257,-24 801.257,-24"/>
<text text-anchor="start" x="812.257" y="-30.5" font-family="Arial" font-size="10.00"> </text>
<text text-anchor="start" x="816.257" y="-30.5" font-family="Arial" font-size="10.00">e23 :Edge</text>
</a>
<polygon fill="none" stroke="black" points="801.257,-4 801.257,-24 872.257,-24 872.257,-4 801.257,-4"/>
<text text-anchor="start" x="806.257" y="-12" font-family="Arial" font-size="10.00">name = &quot;e19&quot;</text>
</g>
<!-- g8&#45;&#45;e23 -->
<g id="edge48" class="edge"><title>g8&#45;&#45;e23</title>
<path fill="none" stroke="black" d="M552.408,-842.693C653.664,-843.967 943.218,-842.32 1013.26,-784 1050.42,-753.055 1045.26,-728.361 1045.26,-680 1045.26,-680 1045.26,-680 1045.26,-186 1045.26,-102.905 940.78,-56.3291 879.562,-36.1703"/>
<text text-anchor="middle" x="889.513" y="-32.6844" font-family="Arial" font-size="10.00">edges</text>
<text text-anchor="middle" x="561.499" y="-836.028" font-family="Arial" font-size="10.00">graph</text>
</g>
<!-- n24 -->
<g id="node23" class="node"><title>n24</title>
<a xlink:href="../../SDMLib/src/org/sdmlib/examples/helloworld/Node.java" xlink:title="&lt;TABLE&gt;">
<polygon fill="none" stroke="black" points="591.257,-762 591.257,-779 657.257,-779 657.257,-762 591.257,-762"/>
<text text-anchor="start" x="599.757" y="-768.5" font-family="Arial" font-size="10.00"> </text>
<text text-anchor="start" x="603.757" y="-768.5" font-family="Arial" font-size="10.00">n24 :Node</text>
</a>
<polygon fill="none" stroke="black" points="591.257,-742 591.257,-762 657.257,-762 657.257,-742 591.257,-742"/>
<text text-anchor="start" x="596.257" y="-750" font-family="Arial" font-size="10.00">name = &quot;n6&quot;</text>
</g>
<!-- g8&#45;&#45;n24 -->
<g id="edge40" class="edge"><title>g8&#45;&#45;n24</title>
<path fill="none" stroke="black" d="M540.211,-824.838C556.3,-812.809 577.931,-796.637 595.219,-783.711"/>
<text text-anchor="middle" x="590.491" y="-790.023" font-family="Arial" font-size="10.00">nodes</text>
<text text-anchor="middle" x="544.939" y="-813.526" font-family="Arial" font-size="10.00">graph</text>
</g>
<!-- n25 -->
<g id="node24" class="node"><title>n25</title>
<a xlink:href="../../SDMLib/src/org/sdmlib/examples/helloworld/Node.java" xlink:title="&lt;TABLE&gt;">
<polygon fill="none" stroke="black" points="691.257,-762 691.257,-779 757.257,-779 757.257,-762 691.257,-762"/>
<text text-anchor="start" x="699.757" y="-768.5" font-family="Arial" font-size="10.00"> </text>
<text text-anchor="start" x="703.757" y="-768.5" font-family="Arial" font-size="10.00">n25 :Node</text>
</a>
<polygon fill="none" stroke="black" points="691.257,-742 691.257,-762 757.257,-762 757.257,-742 691.257,-742"/>
<text text-anchor="start" x="696.257" y="-750" font-family="Arial" font-size="10.00">name = &quot;n7&quot;</text>
</g>
<!-- g8&#45;&#45;n25 -->
<g id="edge42" class="edge"><title>g8&#45;&#45;n25</title>
<path fill="none" stroke="black" d="M552.41,-829.702C584.383,-818.354 632.771,-800.772 674.257,-784 677.159,-782.827 680.143,-781.591 683.141,-780.327"/>
<text text-anchor="middle" x="676.426" y="-785.238" font-family="Arial" font-size="10.00">nodes</text>
<text text-anchor="middle" x="559.529" y="-820.18" font-family="Arial" font-size="10.00">graph</text>
</g>
<!-- g8&#45;&#45;n9 -->
<g id="edge44" class="edge"><title>g8&#45;&#45;n9</title>
<path fill="none" stroke="black" d="M481.84,-836.721C428.218,-828.27 323.536,-809.97 237.257,-784 232.727,-782.636 228.049,-781.053 223.423,-779.372"/>
<text text-anchor="middle" x="233.383" y="-775.972" font-family="Arial" font-size="10.00">nodes</text>
<text text-anchor="middle" x="472.22" y="-836.951" font-family="Arial" font-size="10.00">graph</text>
</g>
<!-- e26 -->
<g id="node26" class="node"><title>e26</title>
<a xlink:href="../../SDMLib/src/org/sdmlib/examples/helloworld/Edge.java" xlink:title="&lt;TABLE&gt;">
<polygon fill="none" stroke="black" points="201.257,-680 201.257,-697 272.257,-697 272.257,-680 201.257,-680"/>
<text text-anchor="start" x="212.257" y="-686.5" font-family="Arial" font-size="10.00"> </text>
<text text-anchor="start" x="216.257" y="-686.5" font-family="Arial" font-size="10.00">e26 :Edge</text>
</a>
<polygon fill="none" stroke="black" points="201.257,-660 201.257,-680 272.257,-680 272.257,-660 201.257,-660"/>
<text text-anchor="start" x="206.257" y="-668" font-family="Arial" font-size="10.00">name = &quot;e16&quot;</text>
</g>
<!-- g8&#45;&#45;e26 -->
<g id="edge62" class="edge"><title>g8&#45;&#45;e26</title>
<path fill="none" stroke="black" d="M482.225,-838.957C439.093,-833.748 365.187,-819.928 313.257,-784 282.589,-762.782 259.317,-725.352 246.745,-701.657"/>
<text text-anchor="middle" x="254.797" y="-705.086" font-family="Arial" font-size="10.00">edges</text>
<text text-anchor="middle" x="472.684" y="-839.453" font-family="Arial" font-size="10.00">graph</text>
</g>
<!-- g8&#45;&#45;e10 -->
<g id="edge64" class="edge"><title>g8&#45;&#45;e10</title>
<path fill="none" stroke="black" d="M482.251,-841.398C430.85,-838.956 333.753,-828.287 266.257,-784 245.002,-770.053 251.801,-754.259 232.257,-738 209.907,-719.406 180.588,-705.026 156.645,-695.236"/>
<text text-anchor="middle" x="166.637" y="-692.343" font-family="Arial" font-size="10.00">edges</text>
<text text-anchor="middle" x="472.951" y="-842.572" font-family="Arial" font-size="10.00">graph</text>
</g>
<!-- n11&#45;&#45;e12 -->
<g id="edge66" class="edge"><title>n11&#45;&#45;e12</title>
<path fill="none" stroke="black" d="M909.031,-738.351C893.663,-726.967 874.878,-713.052 859.507,-701.666"/>
<text text-anchor="middle" x="869.305" y="-701.165" font-family="Arial" font-size="10.00">outEdges</text>
<text text-anchor="middle" x="899.233" y="-733.852" font-family="Arial" font-size="10.00">src</text>
</g>
<!-- n11&#45;&#45;e16 -->
<g id="edge68" class="edge"><title>n11&#45;&#45;e16</title>
<path fill="none" stroke="black" d="M938.696,-738.253C939.285,-707.16 940.257,-648.207 940.257,-598 940.257,-598 940.257,-598 940.257,-514 940.257,-463.797 940.257,-404.843 940.257,-373.749"/>
<text text-anchor="middle" x="944.483" y="-380.312" font-family="Arial" font-size="10.00">inEdges</text>
<text text-anchor="middle" x="934.638" y="-726.613" font-family="Arial" font-size="10.00">tgt</text>
</g>
<!-- e12&#45;&#45;n13 -->
<g id="edge70" class="edge"><title>e12&#45;&#45;n13</title>
<path fill="none" stroke="black" d="M820.42,-656.14C815.299,-644.759 809.059,-630.893 803.958,-619.557"/>
<text text-anchor="middle" x="811.531" y="-623.587" font-family="Arial" font-size="10.00">tgt</text>
<text text-anchor="middle" x="812.847" y="-647.109" font-family="Arial" font-size="10.00">inEdges</text>
</g>
<!-- n13&#45;&#45;e14 -->
<g id="edge72" class="edge"><title>n13&#45;&#45;e14</title>
<path fill="none" stroke="black" d="M794.257,-574.14C794.257,-562.759 794.257,-548.893 794.257,-537.557"/>
<text text-anchor="middle" x="798.483" y="-544.12" font-family="Arial" font-size="10.00">outEdges</text>
<text text-anchor="middle" x="790.031" y="-562.577" font-family="Arial" font-size="10.00">src</text>
</g>
<!-- e14&#45;&#45;n15 -->
<g id="edge74" class="edge"><title>e14&#45;&#45;n15</title>
<path fill="none" stroke="black" d="M750.664,-493.606C724.145,-481.199 690.481,-465.45 664.417,-453.256"/>
<text text-anchor="middle" x="674.417" y="-450.768" font-family="Arial" font-size="10.00">tgt</text>
<text text-anchor="middle" x="740.664" y="-491.093" font-family="Arial" font-size="10.00">inEdges</text>
</g>
<!-- n15&#45;&#45;e16 -->
<g id="edge76" class="edge"><title>n15&#45;&#45;e16</title>
<path fill="none" stroke="black" d="M664.374,-421.623C724.432,-406.467 835.644,-378.401 896.929,-362.935"/>
<text text-anchor="middle" x="889.175" y="-366.75" font-family="Arial" font-size="10.00">outEdges</text>
<text text-anchor="middle" x="672.128" y="-412.808" font-family="Arial" font-size="10.00">src</text>
</g>
<!-- n15&#45;&#45;e17 -->
<g id="edge78" class="edge"><title>n15&#45;&#45;e17</title>
<path fill="none" stroke="black" d="M593.49,-410.351C577.837,-398.967 558.704,-385.052 543.049,-373.666"/>
<text text-anchor="middle" x="552.864" y="-373.079" font-family="Arial" font-size="10.00">outEdges</text>
<text text-anchor="middle" x="583.674" y="-405.938" font-family="Arial" font-size="10.00">src</text>
</g>
<!-- n15&#45;&#45;e22 -->
<g id="edge80" class="edge"><title>n15&#45;&#45;e22</title>
<path fill="none" stroke="black" d="M623.257,-410.251C623.257,-379.157 623.257,-320.203 623.257,-270 623.257,-270 623.257,-270 623.257,-186 623.257,-128.49 577.06,-74.3176 547.464,-45.514"/>
<text text-anchor="middle" x="556.849" y="-46.4675" font-family="Arial" font-size="10.00">inEdges</text>
<text text-anchor="middle" x="619.031" y="-398.688" font-family="Arial" font-size="10.00">tgt</text>
</g>
<!-- e17&#45;&#45;n18 -->
<g id="edge82" class="edge"><title>e17&#45;&#45;n18</title>
<path fill="none" stroke="black" d="M507.519,-328.14C504.532,-316.759 500.892,-302.893 497.916,-291.557"/>
<text text-anchor="middle" x="504.305" y="-296.75" font-family="Arial" font-size="10.00">tgt</text>
<text text-anchor="middle" x="501.13" y="-317.947" font-family="Arial" font-size="10.00">inEdges</text>
</g>
<!-- n18&#45;&#45;e19 -->
<g id="edge84" class="edge"><title>n18&#45;&#45;e19</title>
<path fill="none" stroke="black" d="M492.257,-246.14C492.257,-234.759 492.257,-220.893 492.257,-209.557"/>
<text text-anchor="middle" x="496.483" y="-216.12" font-family="Arial" font-size="10.00">outEdges</text>
<text text-anchor="middle" x="488.031" y="-234.577" font-family="Arial" font-size="10.00">src</text>
</g>
<!-- e19&#45;&#45;n20 -->
<g id="edge86" class="edge"><title>e19&#45;&#45;n20</title>
<path fill="none" stroke="black" d="M500.728,-164.14C505.138,-152.759 510.511,-138.893 514.904,-127.557"/>
<text text-anchor="middle" x="515.57" y="-135.035" font-family="Arial" font-size="10.00">tgt</text>
<text text-anchor="middle" x="500.062" y="-151.662" font-family="Arial" font-size="10.00">inEdges</text>
</g>
<!-- n20&#45;&#45;e21 -->
<g id="edge88" class="edge"><title>n20&#45;&#45;e21</title>
<path fill="none" stroke="black" d="M482.665,-82.3508C461.234,-70.9211 435.018,-56.9393 413.622,-45.5277"/>
<text text-anchor="middle" x="423.607" y="-43.5637" font-family="Arial" font-size="10.00">outEdges</text>
<text text-anchor="middle" x="472.679" y="-79.3149" font-family="Arial" font-size="10.00">src</text>
</g>
<!-- n20&#45;&#45;e22 -->
<g id="edge90" class="edge"><title>n20&#45;&#45;e22</title>
<path fill="none" stroke="black" d="M523.257,-82.1396C523.257,-70.759 523.257,-56.8929 523.257,-45.5569"/>
<text text-anchor="middle" x="527.483" y="-52.12" font-family="Arial" font-size="10.00">outEdges</text>
<text text-anchor="middle" x="519.031" y="-70.5766" font-family="Arial" font-size="10.00">src</text>
</g>
<!-- n20&#45;&#45;e23 -->
<g id="edge92" class="edge"><title>n20&#45;&#45;e23</title>
<path fill="none" stroke="black" d="M564.498,-93.4591C623.761,-78.3121 732.504,-50.5185 792.913,-35.0785"/>
<text text-anchor="middle" x="785.178" y="-38.9174" font-family="Arial" font-size="10.00">inEdges</text>
<text text-anchor="middle" x="572.233" y="-84.6203" font-family="Arial" font-size="10.00">tgt</text>
</g>
<!-- n9&#45;&#45;e26 -->
<g id="edge94" class="edge"><title>n9&#45;&#45;e26</title>
<path fill="none" stroke="black" d="M197.013,-738.14C204.695,-726.759 214.055,-712.893 221.706,-701.557"/>
<text text-anchor="middle" x="220.139" y="-708.933" font-family="Arial" font-size="10.00">outEdges_inEdges</text>
<text text-anchor="middle" x="198.581" y="-725.763" font-family="Arial" font-size="10.00">src_tgt</text>
</g>
<!-- n9&#45;&#45;e10 -->
<g id="edge96" class="edge"><title>n9&#45;&#45;e10</title>
<path fill="none" stroke="black" d="M163.403,-738.14C153.587,-726.759 141.627,-712.893 131.85,-701.557"/>
<text text-anchor="middle" x="140.97" y="-703.16" font-family="Arial" font-size="10.00">outEdges_inEdges</text>
<text text-anchor="middle" x="154.283" y="-731.537" font-family="Arial" font-size="10.00">src_tgt</text>
</g>
</g>
</svg>
