<?xml version="1.0" encoding="UTF-8" standalone="no"?>
<!DOCTYPE svg PUBLIC "-//W3C//DTD SVG 1.1//EN"
 "http://www.w3.org/Graphics/SVG/1.1/DTD/svg11.dtd">
<!-- Generated by graphviz version 2.28.0 (20110507.0327)
 -->
<!-- Title: ObjectDiagram Pages: 1 -->
<svg width="1262pt" height="960pt"
 viewBox="0.00 0.00 1262.13 960.00" xmlns="http://www.w3.org/2000/svg" xmlns:xlink="http://www.w3.org/1999/xlink">
<g id="graph1" class="graph" transform="scale(1 1) rotate(0) translate(4 956)">
<title>ObjectDiagram</title>
<polygon fill="white" stroke="white" points="-4,5 -4,-956 1259.13,-956 1259.13,5 -4,5"/>
<!-- g1 -->
<g id="node1" class="node"><title>g1</title>
<polygon fill="deepskyblue" stroke="deepskyblue" points="679.629,-896.5 679.629,-947.5 754.629,-947.5 754.629,-896.5 679.629,-896.5"/>
<text text-anchor="start" x="716.129" y="-937.5" font-family="Arial" font-size="10.00">«bound»</text>
<polygon fill="none" stroke="black" points="680.129,-916 680.129,-932 755.129,-932 755.129,-916 680.129,-916"/>
<text text-anchor="start" x="683.629" y="-922" font-family="Arial" font-size="10.00"> </text>
<text text-anchor="start" x="687.629" y="-922" font-family="Arial" font-size="10.00"> g1 :GraphPO </text>
<polygon fill="none" stroke="black" points="680.129,-896 680.129,-916 755.129,-916 755.129,-896 680.129,-896"/>
<text text-anchor="start" x="714.129" y="-904" font-family="Arial" font-size="10.00"> &#160;</text>
</g>
<!-- e2 -->
<g id="node2" class="node"><title>e2</title>
<polygon fill="deepskyblue" stroke="deepskyblue" points="532.629,-742.5 532.629,-779.5 603.629,-779.5 603.629,-742.5 532.629,-742.5"/>
<polygon fill="none" stroke="black" points="533.129,-762 533.129,-779 604.129,-779 604.129,-762 533.129,-762"/>
<text text-anchor="start" x="536.629" y="-768.5" font-family="Arial" font-size="10.00"> </text>
<text text-anchor="start" x="540.629" y="-768.5" font-family="Arial" font-size="10.00"> e2 :EdgePO </text>
<polygon fill="none" stroke="black" points="533.129,-742 533.129,-762 604.129,-762 604.129,-742 533.129,-742"/>
<text text-anchor="start" x="565.129" y="-750" font-family="Arial" font-size="10.00"> &#160;</text>
</g>
<!-- g1&#45;&#45;e2 -->
<g id="edge30" class="edge"><title>g1&#45;&#45;e2</title>
<path fill="none" stroke="black" d="M690.146,-892.206C660.962,-861.063 615.081,-812.103 588.683,-783.934"/>
<text text-anchor="middle" x="597.964" y="-785.157" font-family="Arial" font-size="10.00">edges</text>
</g>
<!-- g4 -->
<g id="node5" class="node"><title>g4</title>
<a xlink:href="../../SDMLib/src/org/sdmlib/examples/helloworld/Graph.java" xlink:title="&lt;TABLE&gt;">
<polygon fill="none" stroke="black" points="761.129,-829 761.129,-846 815.129,-846 815.129,-829 761.129,-829"/>
<text text-anchor="start" x="764.629" y="-835.5" font-family="Arial" font-size="10.00"> </text>
<text text-anchor="start" x="768.629" y="-835.5" font-family="Arial" font-size="10.00">g4 :Graph</text>
</a>
</g>
<!-- g1&#45;&#45;g4 -->
<g id="edge2" class="edge"><title>g1&#45;&#45;g4</title>
<path fill="none" stroke="black" stroke-dasharray="1,5" d="M741.961,-892.32C752.359,-880.312 764.101,-866.75 773.142,-856.309"/>
<text text-anchor="middle" x="770.405" y="-863.427" font-family="Arial" font-size="10.00">match</text>
</g>
<!-- allMatches_e2 -->
<g id="node3" class="node"><title>allMatches_e2</title>
<text text-anchor="middle" x="394.129" y="-676.5" font-family="Arial" font-size="10.00">allMatches</text>
</g>
<!-- e2&#45;&#45;allMatches_e2 -->
<g id="edge4" class="edge"><title>e2&#45;&#45;allMatches_e2</title>
<path fill="none" stroke="black" stroke-dasharray="1,5" d="M524.776,-740.623C499.939,-729.455 468.218,-715.079 440.129,-702 435.635,-699.907 430.906,-697.678 426.26,-695.471"/>
</g>
<!-- n3 -->
<g id="node4" class="node"><title>n3</title>
<polygon fill="deepskyblue" stroke="deepskyblue" points="604.629,-660.5 604.629,-697.5 675.629,-697.5 675.629,-660.5 604.629,-660.5"/>
<polygon fill="none" stroke="black" points="605.129,-680 605.129,-697 676.129,-697 676.129,-680 605.129,-680"/>
<text text-anchor="start" x="608.629" y="-686.5" font-family="Arial" font-size="10.00"> </text>
<text text-anchor="start" x="612.629" y="-686.5" font-family="Arial" font-size="10.00"> n3 :NodePO </text>
<polygon fill="none" stroke="black" points="605.129,-660 605.129,-680 676.129,-680 676.129,-660 605.129,-660"/>
<text text-anchor="start" x="637.129" y="-668" font-family="Arial" font-size="10.00"> &#160;</text>
</g>
<!-- e2&#45;&#45;n3 -->
<g id="edge32" class="edge"><title>e2&#45;&#45;n3</title>
<path fill="none" stroke="black" d="M581.713,-738.14C591.068,-726.759 603.556,-712.893 614.661,-701.557"/>
<text text-anchor="middle" x="611.383" y="-708.504" font-family="Arial" font-size="10.00">src</text>
</g>
<!-- e2&#45;&#45;n3 -->
<g id="edge34" class="edge"><title>e2&#45;&#45;n3</title>
<path fill="none" stroke="black" d="M593.894,-738.14C605.024,-726.759 617.495,-712.893 626.795,-701.557"/>
<text text-anchor="middle" x="624.26" y="-708.73" font-family="Arial" font-size="10.00">tgt</text>
</g>
<!-- e8 -->
<g id="node7" class="node"><title>e8</title>
<a xlink:href="../../SDMLib/src/org/sdmlib/examples/helloworld/Edge.java" xlink:title="&lt;TABLE&gt;">
<polygon fill="none" stroke="black" points="151.129,-680 151.129,-697 222.129,-697 222.129,-680 151.129,-680"/>
<text text-anchor="start" x="164.629" y="-686.5" font-family="Arial" font-size="10.00"> </text>
<text text-anchor="start" x="168.629" y="-686.5" font-family="Arial" font-size="10.00">e8 :Edge</text>
</a>
<polygon fill="none" stroke="black" points="151.129,-660 151.129,-680 222.129,-680 222.129,-660 151.129,-660"/>
<text text-anchor="start" x="156.129" y="-668" font-family="Arial" font-size="10.00">name = &quot;e10&quot;</text>
</g>
<!-- e2&#45;&#45;e8 -->
<g id="edge12" class="edge"><title>e2&#45;&#45;e8</title>
<path fill="none" stroke="black" stroke-dasharray="1,5" d="M524.45,-751.497C468.293,-740.484 367.802,-720.501 282.129,-702 264.914,-698.283 246.011,-693.995 229.566,-690.198"/>
<text text-anchor="middle" x="239.346" y="-685.615" font-family="Arial" font-size="10.00">candidate</text>
</g>
<!-- e9 -->
<g id="node9" class="node"><title>e9</title>
<a xlink:href="../../SDMLib/src/org/sdmlib/examples/helloworld/Edge.java" xlink:title="&lt;TABLE&gt;">
<polygon fill="none" stroke="black" points="529.129,-516 529.129,-533 600.129,-533 600.129,-516 529.129,-516"/>
<text text-anchor="start" x="542.629" y="-522.5" font-family="Arial" font-size="10.00"> </text>
<text text-anchor="start" x="546.629" y="-522.5" font-family="Arial" font-size="10.00">e9 :Edge</text>
</a>
<polygon fill="none" stroke="black" points="529.129,-496 529.129,-516 600.129,-516 600.129,-496 529.129,-496"/>
<text text-anchor="start" x="534.129" y="-504" font-family="Arial" font-size="10.00">name = &quot;e11&quot;</text>
</g>
<!-- e2&#45;&#45;e9 -->
<g id="edge14" class="edge"><title>e2&#45;&#45;e9</title>
<path fill="none" stroke="black" stroke-dasharray="1,5" d="M561.643,-738.463C558.713,-727.634 555.585,-714.24 554.129,-702 547.08,-642.754 555.386,-572.295 560.575,-537.558"/>
<text text-anchor="middle" x="563.48" y="-544.627" font-family="Arial" font-size="10.00">candidate</text>
</g>
<!-- e10 -->
<g id="node11" class="node"><title>e10</title>
<a xlink:href="../../SDMLib/src/org/sdmlib/examples/helloworld/Edge.java" xlink:title="&lt;TABLE&gt;">
<polygon fill="none" stroke="black" points="160.129,-352 160.129,-369 231.129,-369 231.129,-352 160.129,-352"/>
<text text-anchor="start" x="171.129" y="-358.5" font-family="Arial" font-size="10.00"> </text>
<text text-anchor="start" x="175.129" y="-358.5" font-family="Arial" font-size="10.00">e10 :Edge</text>
</a>
<polygon fill="none" stroke="black" points="160.129,-332 160.129,-352 231.129,-352 231.129,-332 160.129,-332"/>
<text text-anchor="start" x="165.129" y="-340" font-family="Arial" font-size="10.00">name = &quot;e12&quot;</text>
</g>
<!-- e2&#45;&#45;e10 -->
<g id="edge16" class="edge"><title>e2&#45;&#45;e10</title>
<path fill="none" stroke="black" stroke-dasharray="1,5" d="M528.545,-738.253C512.1,-728.291 493.343,-715.661 478.129,-702 446.841,-673.906 268.093,-445.613 211.98,-373.646"/>
<text text-anchor="middle" x="220.889" y="-375.688" font-family="Arial" font-size="10.00">candidate</text>
</g>
<!-- e11 -->
<g id="node12" class="node"><title>e11</title>
<a xlink:href="../../SDMLib/src/org/sdmlib/examples/helloworld/Edge.java" xlink:title="&lt;TABLE&gt;">
<polygon fill="none" stroke="black" points="978.129,-352 978.129,-369 1049.13,-369 1049.13,-352 978.129,-352"/>
<text text-anchor="start" x="989.129" y="-358.5" font-family="Arial" font-size="10.00"> </text>
<text text-anchor="start" x="993.129" y="-358.5" font-family="Arial" font-size="10.00">e11 :Edge</text>
</a>
<polygon fill="none" stroke="black" points="978.129,-332 978.129,-352 1049.13,-352 1049.13,-332 978.129,-332"/>
<text text-anchor="start" x="983.129" y="-340" font-family="Arial" font-size="10.00">name = &quot;e13&quot;</text>
</g>
<!-- e2&#45;&#45;e11 -->
<g id="edge18" class="edge"><title>e2&#45;&#45;e11</title>
<path fill="none" stroke="black" stroke-dasharray="1,5" d="M611.69,-753.05C649.603,-745.379 704.669,-730.193 745.129,-702 876.361,-610.554 971.943,-435.14 1002.62,-373.813"/>
<text text-anchor="middle" x="1002.23" y="-381.306" font-family="Arial" font-size="10.00">candidate</text>
</g>
<!-- e12 -->
<g id="node14" class="node"><title>e12</title>
<a xlink:href="../../SDMLib/src/org/sdmlib/examples/helloworld/Edge.java" xlink:title="&lt;TABLE&gt;">
<polygon fill="none" stroke="black" points="1007.13,-188 1007.13,-205 1078.13,-205 1078.13,-188 1007.13,-188"/>
<text text-anchor="start" x="1018.13" y="-194.5" font-family="Arial" font-size="10.00"> </text>
<text text-anchor="start" x="1022.13" y="-194.5" font-family="Arial" font-size="10.00">e12 :Edge</text>
</a>
<polygon fill="none" stroke="black" points="1007.13,-168 1007.13,-188 1078.13,-188 1078.13,-168 1007.13,-168"/>
<text text-anchor="start" x="1012.13" y="-176" font-family="Arial" font-size="10.00">name = &quot;e14&quot;</text>
</g>
<!-- e2&#45;&#45;e12 -->
<g id="edge20" class="edge"><title>e2&#45;&#45;e12</title>
<path fill="none" stroke="black" stroke-dasharray="1,5" d="M550.502,-738.445C528.051,-708.743 492.129,-652.677 492.129,-598 492.129,-598 492.129,-598 492.129,-432 492.129,-210.804 868.425,-188.593 998.512,-187.524"/>
<text text-anchor="middle" x="989.556" y="-189.473" font-family="Arial" font-size="10.00">candidate</text>
</g>
<!-- e6 -->
<g id="node16" class="node"><title>e6</title>
<a xlink:href="../../SDMLib/src/org/sdmlib/examples/helloworld/Edge.java" xlink:title="&lt;TABLE&gt;">
<polygon fill="none" stroke="black" points="223.129,-24 223.129,-41 294.129,-41 294.129,-24 223.129,-24"/>
<text text-anchor="start" x="236.629" y="-30.5" font-family="Arial" font-size="10.00"> </text>
<text text-anchor="start" x="240.629" y="-30.5" font-family="Arial" font-size="10.00">e6 :Edge</text>
</a>
<polygon fill="none" stroke="black" points="223.129,-4 223.129,-24 294.129,-24 294.129,-4 223.129,-4"/>
<text text-anchor="start" x="228.129" y="-12" font-family="Arial" font-size="10.00">name = &quot;e18&quot;</text>
</g>
<!-- e2&#45;&#45;e6 -->
<g id="edge8" class="edge"><title>e2&#45;&#45;e6</title>
<path fill="none" stroke="black" stroke-dasharray="1,5" d="M524.662,-754.688C463.468,-746.367 356.233,-728.43 328.129,-702 292.9,-668.869 296.129,-646.361 296.129,-598 296.129,-598 296.129,-598 296.129,-514 296.129,-332.685 269.946,-114.757 261.048,-45.9303"/>
<text text-anchor="middle" x="266.375" y="-51.8934" font-family="Arial" font-size="10.00">candidate</text>
</g>
<!-- e13 -->
<g id="node17" class="node"><title>e13</title>
<a xlink:href="../../SDMLib/src/org/sdmlib/examples/helloworld/Edge.java" xlink:title="&lt;TABLE&gt;">
<polygon fill="none" stroke="black" points="393.129,-24 393.129,-41 464.129,-41 464.129,-24 393.129,-24"/>
<text text-anchor="start" x="404.129" y="-30.5" font-family="Arial" font-size="10.00"> </text>
<text text-anchor="start" x="408.129" y="-30.5" font-family="Arial" font-size="10.00">e13 :Edge</text>
</a>
<polygon fill="none" stroke="black" points="393.129,-4 393.129,-24 464.129,-24 464.129,-4 393.129,-4"/>
<text text-anchor="start" x="398.129" y="-12" font-family="Arial" font-size="10.00">name = &quot;e15&quot;</text>
</g>
<!-- e2&#45;&#45;e13 -->
<g id="edge22" class="edge"><title>e2&#45;&#45;e13</title>
<path fill="none" stroke="black" stroke-dasharray="1,5" d="M524.536,-753.806C468.623,-744.956 376.104,-726.961 353.129,-702 321.308,-667.428 334.129,-644.987 334.129,-598 334.129,-598 334.129,-598 334.129,-186 334.129,-129.421 377.555,-74.914 405.374,-45.8006"/>
<text text-anchor="middle" x="402.326" y="-52.8248" font-family="Arial" font-size="10.00">candidate</text>
</g>
<!-- e7 -->
<g id="node18" class="node"><title>e7</title>
<a xlink:href="../../SDMLib/src/org/sdmlib/examples/helloworld/Edge.java" xlink:title="&lt;TABLE&gt;">
<polygon fill="none" stroke="black" points="1143.13,-24 1143.13,-41 1214.13,-41 1214.13,-24 1143.13,-24"/>
<text text-anchor="start" x="1156.63" y="-30.5" font-family="Arial" font-size="10.00"> </text>
<text text-anchor="start" x="1160.63" y="-30.5" font-family="Arial" font-size="10.00">e7 :Edge</text>
</a>
<polygon fill="none" stroke="black" points="1143.13,-4 1143.13,-24 1214.13,-24 1214.13,-4 1143.13,-4"/>
<text text-anchor="start" x="1148.13" y="-12" font-family="Arial" font-size="10.00">name = &quot;e19&quot;</text>
</g>
<!-- e2&#45;&#45;e7 -->
<g id="edge10" class="edge"><title>e2&#45;&#45;e7</title>
<path fill="none" stroke="black" stroke-dasharray="1,5" d="M611.51,-752.397C750.87,-726.758 1178.13,-638.188 1178.13,-516 1178.13,-516 1178.13,-516 1178.13,-186 1178.13,-135.797 1178.13,-76.8425 1178.13,-45.7485"/>
<text text-anchor="middle" x="1182.36" y="-52.3116" font-family="Arial" font-size="10.00">candidate</text>
</g>
<!-- e14 -->
<g id="node22" class="node"><title>e14</title>
<a xlink:href="../../SDMLib/src/org/sdmlib/examples/helloworld/Edge.java" xlink:title="&lt;TABLE&gt;">
<polygon fill="none" stroke="black" points="634.129,-516 634.129,-533 705.129,-533 705.129,-516 634.129,-516"/>
<text text-anchor="start" x="645.129" y="-522.5" font-family="Arial" font-size="10.00"> </text>
<text text-anchor="start" x="649.129" y="-522.5" font-family="Arial" font-size="10.00">e14 :Edge</text>
</a>
<polygon fill="none" stroke="black" points="634.129,-496 634.129,-516 705.129,-516 705.129,-496 634.129,-496"/>
<text text-anchor="start" x="639.129" y="-504" font-family="Arial" font-size="10.00">name = &quot;e16&quot;</text>
</g>
<!-- e2&#45;&#45;e14 -->
<g id="edge24" class="edge"><title>e2&#45;&#45;e14</title>
<path fill="none" stroke="black" stroke-dasharray="1,5" d="M569.873,-738.306C572.107,-716.853 576.978,-683.361 587.129,-656 603.786,-611.105 634.481,-564.099 653.224,-537.584"/>
<text text-anchor="middle" x="651.51" y="-544.936" font-family="Arial" font-size="10.00">candidate</text>
</g>
<!-- e5 -->
<g id="node23" class="node"><title>e5</title>
<a xlink:href="../../SDMLib/src/org/sdmlib/examples/helloworld/Edge.java" xlink:title="&lt;TABLE&gt;">
<polygon fill="none" stroke="black" points="771.129,-516 771.129,-533 842.129,-533 842.129,-516 771.129,-516"/>
<text text-anchor="start" x="784.629" y="-522.5" font-family="Arial" font-size="10.00"> </text>
<text text-anchor="start" x="788.629" y="-522.5" font-family="Arial" font-size="10.00">e5 :Edge</text>
</a>
<polygon fill="none" stroke="black" points="771.129,-496 771.129,-516 842.129,-516 842.129,-496 771.129,-496"/>
<text text-anchor="start" x="776.129" y="-504" font-family="Arial" font-size="10.00">name = &quot;e17&quot;</text>
</g>
<!-- e2&#45;&#45;e5 -->
<g id="edge26" class="edge"><title>e2&#45;&#45;e5</title>
<path fill="none" stroke="black" stroke-dasharray="1,5" d="M611.775,-741.527C659.325,-720.386 733.095,-680.649 769.129,-620 784.506,-594.119 791.616,-559.657 797.015,-537.644"/>
<text text-anchor="middle" x="798.998" y="-544.945" font-family="Arial" font-size="10.00">candidate</text>
</g>
<!-- e2&#45;&#45;e5 -->
<g id="edge6" class="edge"><title>e2&#45;&#45;e5</title>
<path fill="none" stroke="black" stroke-dasharray="1,5" d="M611.813,-746.788C663.731,-727.374 747.85,-686.111 787.129,-620 802.506,-594.119 809.616,-559.657 810.537,-537.644"/>
<text text-anchor="middle" x="814.151" y="-544.468" font-family="Arial" font-size="10.00">match</text>
</g>
<!-- n15 -->
<g id="node21" class="node"><title>n15</title>
<a xlink:href="../../SDMLib/src/org/sdmlib/examples/helloworld/Node.java" xlink:title="&lt;TABLE&gt;">
<polygon fill="none" stroke="black" points="695.129,-598 695.129,-615 761.129,-615 761.129,-598 695.129,-598"/>
<text text-anchor="start" x="703.629" y="-604.5" font-family="Arial" font-size="10.00"> </text>
<text text-anchor="start" x="707.629" y="-604.5" font-family="Arial" font-size="10.00">n15 :Node</text>
</a>
<polygon fill="none" stroke="black" points="695.129,-578 695.129,-598 761.129,-598 761.129,-578 695.129,-578"/>
<text text-anchor="start" x="700.129" y="-586" font-family="Arial" font-size="10.00">name = &quot;n8&quot;</text>
</g>
<!-- n3&#45;&#45;n15 -->
<g id="edge28" class="edge"><title>n3&#45;&#45;n15</title>
<path fill="none" stroke="black" stroke-dasharray="1,5" d="M664.175,-656.14C676.694,-644.759 691.947,-630.893 704.416,-619.557"/>
<text text-anchor="middle" x="700.553" y="-626.281" font-family="Arial" font-size="10.00">match</text>
</g>
<!-- n16 -->
<g id="node6" class="node"><title>n16</title>
<a xlink:href="../../SDMLib/src/org/sdmlib/examples/helloworld/Node.java" xlink:title="&lt;TABLE&gt;">
<polygon fill="none" stroke="black" points="118.129,-762 118.129,-779 184.129,-779 184.129,-762 118.129,-762"/>
<text text-anchor="start" x="126.629" y="-768.5" font-family="Arial" font-size="10.00"> </text>
<text text-anchor="start" x="130.629" y="-768.5" font-family="Arial" font-size="10.00">n16 :Node</text>
</a>
<polygon fill="none" stroke="black" points="118.129,-742 118.129,-762 184.129,-762 184.129,-742 118.129,-742"/>
<text text-anchor="start" x="123.129" y="-750" font-family="Arial" font-size="10.00">name = &quot;n1&quot;</text>
</g>
<!-- g4&#45;&#45;n16 -->
<g id="edge36" class="edge"><title>g4&#45;&#45;n16</title>
<path fill="none" stroke="black" d="M753.122,-837.309C661.76,-837.37 409.113,-832.741 206.129,-784 201.529,-782.895 196.806,-781.478 192.154,-779.894"/>
<text text-anchor="middle" x="202.091" y="-776.276" font-family="Arial" font-size="10.00">nodes</text>
<text text-anchor="middle" x="744.038" y="-838.99" font-family="Arial" font-size="10.00">graph</text>
</g>
<!-- g4&#45;&#45;e8 -->
<g id="edge56" class="edge"><title>g4&#45;&#45;e8</title>
<path fill="none" stroke="black" d="M752.835,-835.452C639.031,-830.202 286.655,-811.837 244.129,-784 215.07,-764.978 199.172,-726.133 191.676,-701.675"/>
<text text-anchor="middle" x="198.49" y="-706.495" font-family="Arial" font-size="10.00">edges</text>
<text text-anchor="middle" x="743.579" y="-836.737" font-family="Arial" font-size="10.00">graph</text>
</g>
<!-- n17 -->
<g id="node8" class="node"><title>n17</title>
<a xlink:href="../../SDMLib/src/org/sdmlib/examples/helloworld/Node.java" xlink:title="&lt;TABLE&gt;">
<polygon fill="none" stroke="black" points="156.129,-598 156.129,-615 222.129,-615 222.129,-598 156.129,-598"/>
<text text-anchor="start" x="164.629" y="-604.5" font-family="Arial" font-size="10.00"> </text>
<text text-anchor="start" x="168.629" y="-604.5" font-family="Arial" font-size="10.00">n17 :Node</text>
</a>
<polygon fill="none" stroke="black" points="156.129,-578 156.129,-598 222.129,-598 222.129,-578 156.129,-578"/>
<text text-anchor="start" x="161.129" y="-586" font-family="Arial" font-size="10.00">name = &quot;n2&quot;</text>
</g>
<!-- g4&#45;&#45;n17 -->
<g id="edge38" class="edge"><title>g4&#45;&#45;n17</title>
<path fill="none" stroke="black" d="M753.058,-835.322C666.064,-829.635 436.271,-805.159 282.129,-702 273.222,-696.039 232.174,-648.604 207.687,-619.896"/>
<text text-anchor="middle" x="216.79" y="-621.537" font-family="Arial" font-size="10.00">nodes</text>
<text text-anchor="middle" x="743.696" y="-836.337" font-family="Arial" font-size="10.00">graph</text>
</g>
<!-- g4&#45;&#45;e9 -->
<g id="edge58" class="edge"><title>g4&#45;&#45;e9</title>
<path fill="none" stroke="black" d="M779.737,-819.865C760.398,-780.607 712.781,-685.288 692.129,-656 683.209,-643.35 618.359,-573.777 584.537,-537.709"/>
<text text-anchor="middle" x="593.817" y="-538.935" font-family="Arial" font-size="10.00">edges</text>
<text text-anchor="middle" x="771.931" y="-811.114" font-family="Arial" font-size="10.00">graph</text>
</g>
<!-- n18 -->
<g id="node10" class="node"><title>n18</title>
<a xlink:href="../../SDMLib/src/org/sdmlib/examples/helloworld/Node.java" xlink:title="&lt;TABLE&gt;">
<polygon fill="none" stroke="black" points="531.129,-434 531.129,-451 597.129,-451 597.129,-434 531.129,-434"/>
<text text-anchor="start" x="539.629" y="-440.5" font-family="Arial" font-size="10.00"> </text>
<text text-anchor="start" x="543.629" y="-440.5" font-family="Arial" font-size="10.00">n18 :Node</text>
</a>
<polygon fill="none" stroke="black" points="531.129,-414 531.129,-434 597.129,-434 597.129,-414 531.129,-414"/>
<text text-anchor="start" x="536.129" y="-422" font-family="Arial" font-size="10.00">name = &quot;n3&quot;</text>
</g>
<!-- g4&#45;&#45;n18 -->
<g id="edge40" class="edge"><title>g4&#45;&#45;n18</title>
<path fill="none" stroke="black" d="M800.127,-819.966C836.953,-765.427 940.986,-592.8 858.129,-492 826.579,-453.618 678.451,-440.223 605.263,-435.895"/>
<text text-anchor="middle" x="614.585" y="-429.776" font-family="Arial" font-size="10.00">nodes</text>
<text text-anchor="middle" x="801.521" y="-807.563" font-family="Arial" font-size="10.00">graph</text>
</g>
<!-- g4&#45;&#45;e10 -->
<g id="edge60" class="edge"><title>g4&#45;&#45;e10</title>
<path fill="none" stroke="black" d="M752.806,-836.667C619.369,-835.089 151.028,-826.538 101.129,-784 64.9518,-753.159 76.129,-727.539 76.129,-680 76.129,-680 76.129,-680 76.129,-514 76.129,-463.092 92.9519,-450.244 124.129,-410 134.851,-396.159 149.468,-383.504 162.653,-373.572"/>
<text text-anchor="middle" x="158.03" y="-379.939" font-family="Arial" font-size="10.00">edges</text>
<text text-anchor="middle" x="743.683" y="-838.262" font-family="Arial" font-size="10.00">graph</text>
</g>
<!-- g4&#45;&#45;e11 -->
<g id="edge62" class="edge"><title>g4&#45;&#45;e11</title>
<path fill="none" stroke="black" d="M813.071,-819.911C875.611,-776.146 1034.13,-659.183 1034.13,-598 1034.13,-598 1034.13,-598 1034.13,-514 1034.13,-463.377 1023.92,-404.588 1017.74,-373.633"/>
<text text-anchor="middle" x="1023.62" y="-379.223" font-family="Arial" font-size="10.00">edges</text>
<text text-anchor="middle" x="818.011" y="-808.716" font-family="Arial" font-size="10.00">graph</text>
</g>
<!-- n19 -->
<g id="node13" class="node"><title>n19</title>
<a xlink:href="../../SDMLib/src/org/sdmlib/examples/helloworld/Node.java" xlink:title="&lt;TABLE&gt;">
<polygon fill="none" stroke="black" points="1009.13,-270 1009.13,-287 1075.13,-287 1075.13,-270 1009.13,-270"/>
<text text-anchor="start" x="1017.63" y="-276.5" font-family="Arial" font-size="10.00"> </text>
<text text-anchor="start" x="1021.63" y="-276.5" font-family="Arial" font-size="10.00">n19 :Node</text>
</a>
<polygon fill="none" stroke="black" points="1009.13,-250 1009.13,-270 1075.13,-270 1075.13,-250 1009.13,-250"/>
<text text-anchor="start" x="1014.13" y="-258" font-family="Arial" font-size="10.00">name = &quot;n4&quot;</text>
</g>
<!-- g4&#45;&#45;n19 -->
<g id="edge42" class="edge"><title>g4&#45;&#45;n19</title>
<path fill="none" stroke="black" d="M823.215,-836.897C900.801,-835.848 1083.08,-828.584 1121.13,-784 1134.4,-768.449 1122,-758.426 1121.13,-738 1116.9,-639.063 1102.13,-615.027 1102.13,-516 1102.13,-516 1102.13,-516 1102.13,-432 1102.13,-378.914 1073.45,-321.793 1055.74,-291.594"/>
<text text-anchor="middle" x="1063.9" y="-294.879" font-family="Arial" font-size="10.00">nodes</text>
<text text-anchor="middle" x="832.19" y="-829.988" font-family="Arial" font-size="10.00">graph</text>
</g>
<!-- g4&#45;&#45;e12 -->
<g id="edge64" class="edge"><title>g4&#45;&#45;e12</title>
<path fill="none" stroke="black" d="M823.262,-837.207C903.909,-836.859 1098.5,-831.051 1139.13,-784 1216.98,-693.851 1140.13,-635.112 1140.13,-516 1140.13,-516 1140.13,-516 1140.13,-350 1140.13,-292.805 1094.86,-238.519 1065.85,-209.611"/>
<text text-anchor="middle" x="1075.2" y="-210.675" font-family="Arial" font-size="10.00">edges</text>
<text text-anchor="middle" x="832.277" y="-830.381" font-family="Arial" font-size="10.00">graph</text>
</g>
<!-- n20 -->
<g id="node15" class="node"><title>n20</title>
<a xlink:href="../../SDMLib/src/org/sdmlib/examples/helloworld/Node.java" xlink:title="&lt;TABLE&gt;">
<polygon fill="none" stroke="black" points="1009.13,-106 1009.13,-123 1075.13,-123 1075.13,-106 1009.13,-106"/>
<text text-anchor="start" x="1017.63" y="-112.5" font-family="Arial" font-size="10.00"> </text>
<text text-anchor="start" x="1021.63" y="-112.5" font-family="Arial" font-size="10.00">n20 :Node</text>
</a>
<polygon fill="none" stroke="black" points="1009.13,-86 1009.13,-106 1075.13,-106 1075.13,-86 1009.13,-86"/>
<text text-anchor="start" x="1014.13" y="-94" font-family="Arial" font-size="10.00">name = &quot;n5&quot;</text>
</g>
<!-- g4&#45;&#45;n20 -->
<g id="edge44" class="edge"><title>g4&#45;&#45;n20</title>
<path fill="none" stroke="black" d="M823.154,-836.267C906.33,-833.883 1112.83,-823.986 1167.13,-784 1208.27,-753.703 1216.13,-731.096 1216.13,-680 1216.13,-680 1216.13,-680 1216.13,-268 1216.13,-195.77 1134.82,-146.589 1083.36,-122.698"/>
<text text-anchor="middle" x="1093.36" y="-120.379" font-family="Arial" font-size="10.00">nodes</text>
<text text-anchor="middle" x="832.069" y="-829.236" font-family="Arial" font-size="10.00">graph</text>
</g>
<!-- g4&#45;&#45;e6 -->
<g id="edge52" class="edge"><title>g4&#45;&#45;e6</title>
<path fill="none" stroke="black" d="M753.079,-836.749C612.538,-835.444 94.6304,-827.688 37.129,-784 -1.9353,-754.32 0.12902,-729.06 0.12902,-680 0.12902,-680 0.12902,-680 0.12902,-186 0.12902,-85.9064 141.127,-45.2694 214.655,-30.8829"/>
<text text-anchor="middle" x="206.683" y="-34.4209" font-family="Arial" font-size="10.00">edges</text>
<text text-anchor="middle" x="743.967" y="-838.369" font-family="Arial" font-size="10.00">graph</text>
</g>
<!-- g4&#45;&#45;e13 -->
<g id="edge66" class="edge"><title>g4&#45;&#45;e13</title>
<path fill="none" stroke="black" d="M752.776,-836.675C615.802,-835.112 124.996,-826.559 71.129,-784 33.0786,-753.937 38.129,-728.493 38.129,-680 38.129,-680 38.129,-680 38.129,-514 38.129,-288.123 294.971,-106.155 391.789,-45.5862"/>
<text text-anchor="middle" x="386.494" y="-51.5696" font-family="Arial" font-size="10.00">edges</text>
<text text-anchor="middle" x="743.655" y="-838.275" font-family="Arial" font-size="10.00">graph</text>
</g>
<!-- g4&#45;&#45;e7 -->
<g id="edge54" class="edge"><title>g4&#45;&#45;e7</title>
<path fill="none" stroke="black" d="M823.132,-836.575C911.236,-834.877 1139.46,-826.393 1200.13,-784 1242.82,-754.168 1254.13,-732.082 1254.13,-680 1254.13,-680 1254.13,-680 1254.13,-186 1254.13,-131.323 1218.21,-75.2569 1195.76,-45.5547"/>
<text text-anchor="middle" x="1204.52" y="-47.8664" font-family="Arial" font-size="10.00">edges</text>
<text text-anchor="middle" x="832.089" y="-829.629" font-family="Arial" font-size="10.00">graph</text>
</g>
<!-- n21 -->
<g id="node19" class="node"><title>n21</title>
<a xlink:href="../../SDMLib/src/org/sdmlib/examples/helloworld/Node.java" xlink:title="&lt;TABLE&gt;">
<polygon fill="none" stroke="black" points="938.129,-762 938.129,-779 1004.13,-779 1004.13,-762 938.129,-762"/>
<text text-anchor="start" x="946.629" y="-768.5" font-family="Arial" font-size="10.00"> </text>
<text text-anchor="start" x="950.629" y="-768.5" font-family="Arial" font-size="10.00">n21 :Node</text>
</a>
<polygon fill="none" stroke="black" points="938.129,-742 938.129,-762 1004.13,-762 1004.13,-742 938.129,-742"/>
<text text-anchor="start" x="943.129" y="-750" font-family="Arial" font-size="10.00">name = &quot;n6&quot;</text>
</g>
<!-- g4&#45;&#45;n21 -->
<g id="edge46" class="edge"><title>g4&#45;&#45;n21</title>
<path fill="none" stroke="black" d="M823.413,-822.539C853.845,-810.067 897.822,-792.044 929.875,-778.907"/>
<text text-anchor="middle" x="923.091" y="-783.755" font-family="Arial" font-size="10.00">nodes</text>
<text text-anchor="middle" x="830.197" y="-812.692" font-family="Arial" font-size="10.00">graph</text>
</g>
<!-- n22 -->
<g id="node20" class="node"><title>n22</title>
<a xlink:href="../../SDMLib/src/org/sdmlib/examples/helloworld/Node.java" xlink:title="&lt;TABLE&gt;">
<polygon fill="none" stroke="black" points="1038.13,-762 1038.13,-779 1104.13,-779 1104.13,-762 1038.13,-762"/>
<text text-anchor="start" x="1046.63" y="-768.5" font-family="Arial" font-size="10.00"> </text>
<text text-anchor="start" x="1050.63" y="-768.5" font-family="Arial" font-size="10.00">n22 :Node</text>
</a>
<polygon fill="none" stroke="black" points="1038.13,-742 1038.13,-762 1104.13,-762 1104.13,-742 1038.13,-742"/>
<text text-anchor="start" x="1043.13" y="-750" font-family="Arial" font-size="10.00">name = &quot;n7&quot;</text>
</g>
<!-- g4&#45;&#45;n22 -->
<g id="edge48" class="edge"><title>g4&#45;&#45;n22</title>
<path fill="none" stroke="black" d="M823.435,-831.14C869.581,-822.991 952.589,-806.644 1021.13,-784 1024.01,-783.048 1026.95,-781.99 1029.9,-780.868"/>
<text text-anchor="middle" x="1022.92" y="-785.532" font-family="Arial" font-size="10.00">nodes</text>
<text text-anchor="middle" x="831.604" y="-822.871" font-family="Arial" font-size="10.00">graph</text>
</g>
<!-- g4&#45;&#45;n15 -->
<g id="edge50" class="edge"><title>g4&#45;&#45;n15</title>
<path fill="none" stroke="black" d="M788.229,-819.975C787.916,-787.226 784.742,-713.601 764.129,-656 759.537,-643.168 751.806,-630.16 744.683,-619.724"/>
<text text-anchor="middle" x="753.243" y="-622.394" font-family="Arial" font-size="10.00">nodes</text>
<text text-anchor="middle" x="783.843" y="-808.488" font-family="Arial" font-size="10.00">graph</text>
</g>
<!-- g4&#45;&#45;e14 -->
<g id="edge68" class="edge"><title>g4&#45;&#45;e14</title>
<path fill="none" stroke="black" d="M785.734,-819.991C780.254,-785.985 764.218,-708.388 726.129,-656 710.447,-634.431 691.073,-643.315 678.129,-620 663.966,-594.49 664.058,-559.932 666.076,-537.797"/>
<text text-anchor="middle" x="669.598" y="-544.656" font-family="Arial" font-size="10.00">edges</text>
<text text-anchor="middle" x="780.03" y="-809.277" font-family="Arial" font-size="10.00">graph</text>
</g>
<!-- g4&#45;&#45;e5 -->
<g id="edge70" class="edge"><title>g4&#45;&#45;e5</title>
<path fill="none" stroke="black" d="M792.298,-819.918C794.664,-809.582 797.475,-796.104 799.129,-784 811.783,-691.399 813.346,-667.406 810.129,-574 809.716,-561.996 808.822,-548.619 807.984,-537.74"/>
<text text-anchor="middle" x="812.883" y="-543.958" font-family="Arial" font-size="10.00">edges</text>
<text text-anchor="middle" x="790.175" y="-807.646" font-family="Arial" font-size="10.00">graph</text>
</g>
<!-- n16&#45;&#45;e8 -->
<g id="edge72" class="edge"><title>n16&#45;&#45;e8</title>
<path fill="none" stroke="black" d="M160.693,-738.14C165.672,-726.759 171.738,-712.893 176.698,-701.557"/>
<text text-anchor="middle" x="176.937" y="-709.054" font-family="Arial" font-size="10.00">outEdges</text>
<text text-anchor="middle" x="160.454" y="-725.643" font-family="Arial" font-size="10.00">src</text>
</g>
<!-- n16&#45;&#45;e10 -->
<g id="edge74" class="edge"><title>n16&#45;&#45;e10</title>
<path fill="none" stroke="black" d="M142.918,-738.349C132.017,-707.613 114.129,-649.352 114.129,-598 114.129,-598 114.129,-598 114.129,-514 114.129,-458.815 152.197,-403.158 176.138,-373.611"/>
<text text-anchor="middle" x="173.865" y="-380.85" font-family="Arial" font-size="10.00">inEdges</text>
<text text-anchor="middle" x="135.966" y="-728.66" font-family="Arial" font-size="10.00">tgt</text>
</g>
<!-- e8&#45;&#45;n17 -->
<g id="edge76" class="edge"><title>e8&#45;&#45;n17</title>
<path fill="none" stroke="black" d="M186.949,-656.14C187.376,-644.759 187.896,-630.893 188.321,-619.557"/>
<text text-anchor="middle" x="192.204" y="-626.272" font-family="Arial" font-size="10.00">tgt</text>
<text text-anchor="middle" x="183.065" y="-644.425" font-family="Arial" font-size="10.00">inEdges</text>
</g>
<!-- n17&#45;&#45;e9 -->
<g id="edge78" class="edge"><title>n17&#45;&#45;e9</title>
<path fill="none" stroke="black" d="M230.333,-587.21C301.777,-571.968 447.967,-540.781 520.838,-525.235"/>
<text text-anchor="middle" x="512.856" y="-528.759" font-family="Arial" font-size="10.00">outEdges</text>
<text text-anchor="middle" x="238.315" y="-578.686" font-family="Arial" font-size="10.00">src</text>
</g>
<!-- e9&#45;&#45;n18 -->
<g id="edge80" class="edge"><title>e9&#45;&#45;n18</title>
<path fill="none" stroke="black" d="M564.129,-492.14C564.129,-480.759 564.129,-466.893 564.129,-455.557"/>
<text text-anchor="middle" x="568.355" y="-462.12" font-family="Arial" font-size="10.00">tgt</text>
<text text-anchor="middle" x="559.903" y="-480.577" font-family="Arial" font-size="10.00">inEdges</text>
</g>
<!-- n18&#45;&#45;e10 -->
<g id="edge82" class="edge"><title>n18&#45;&#45;e10</title>
<path fill="none" stroke="black" d="M522.874,-423.056C452.538,-407.807 310.079,-376.921 238.394,-361.38"/>
<text text-anchor="middle" x="248.147" y="-356.67" font-family="Arial" font-size="10.00">outEdges</text>
<text text-anchor="middle" x="513.121" y="-422.766" font-family="Arial" font-size="10.00">src</text>
</g>
<!-- n18&#45;&#45;e11 -->
<g id="edge84" class="edge"><title>n18&#45;&#45;e11</title>
<path fill="none" stroke="black" d="M605.165,-424.688C689.811,-409.607 883.096,-375.168 969.726,-359.733"/>
<text text-anchor="middle" x="961.544" y="-362.984" font-family="Arial" font-size="10.00">outEdges</text>
<text text-anchor="middle" x="613.346" y="-416.438" font-family="Arial" font-size="10.00">src</text>
</g>
<!-- n18&#45;&#45;e13 -->
<g id="edge86" class="edge"><title>n18&#45;&#45;e13</title>
<path fill="none" stroke="black" d="M556.913,-410.352C533.355,-339.677 458.861,-116.195 435.328,-45.5956"/>
<text text-anchor="middle" x="442.203" y="-50.3572" font-family="Arial" font-size="10.00">inEdges</text>
<text text-anchor="middle" x="550.038" y="-400.591" font-family="Arial" font-size="10.00">tgt</text>
</g>
<!-- e11&#45;&#45;n19 -->
<g id="edge88" class="edge"><title>e11&#45;&#45;n19</title>
<path fill="none" stroke="black" d="M1021.05,-328.14C1025.18,-316.759 1030.21,-302.893 1034.31,-291.557"/>
<text text-anchor="middle" x="1035.2" y="-299.018" font-family="Arial" font-size="10.00">tgt</text>
<text text-anchor="middle" x="1020.17" y="-315.679" font-family="Arial" font-size="10.00">inEdges</text>
</g>
<!-- n19&#45;&#45;e12 -->
<g id="edge90" class="edge"><title>n19&#45;&#45;e12</title>
<path fill="none" stroke="black" d="M1042.13,-246.14C1042.13,-234.759 1042.13,-220.893 1042.13,-209.557"/>
<text text-anchor="middle" x="1046.36" y="-216.12" font-family="Arial" font-size="10.00">outEdges</text>
<text text-anchor="middle" x="1037.9" y="-234.577" font-family="Arial" font-size="10.00">src</text>
</g>
<!-- e12&#45;&#45;n20 -->
<g id="edge92" class="edge"><title>e12&#45;&#45;n20</title>
<path fill="none" stroke="black" d="M1042.13,-164.14C1042.13,-152.759 1042.13,-138.893 1042.13,-127.557"/>
<text text-anchor="middle" x="1046.36" y="-134.12" font-family="Arial" font-size="10.00">tgt</text>
<text text-anchor="middle" x="1037.9" y="-152.577" font-family="Arial" font-size="10.00">inEdges</text>
</g>
<!-- n20&#45;&#45;e6 -->
<g id="edge94" class="edge"><title>n20&#45;&#45;e6</title>
<path fill="none" stroke="black" d="M1000.99,-101.845C896.207,-96.0498 610.914,-78.3383 375.129,-46 350.659,-42.6439 323.54,-37.6273 301.577,-33.2316"/>
<text text-anchor="middle" x="311.289" y="-28.3481" font-family="Arial" font-size="10.00">outEdges</text>
<text text-anchor="middle" x="991.695" y="-103.046" font-family="Arial" font-size="10.00">src</text>
</g>
<!-- n20&#45;&#45;e13 -->
<g id="edge96" class="edge"><title>n20&#45;&#45;e13</title>
<path fill="none" stroke="black" d="M1000.89,-98.6268C889.842,-84.158 585.268,-44.4741 471.635,-29.6685"/>
<text text-anchor="middle" x="481.168" y="-24.1487" font-family="Arial" font-size="10.00">outEdges</text>
<text text-anchor="middle" x="991.356" y="-99.1466" font-family="Arial" font-size="10.00">src</text>
</g>
<!-- n20&#45;&#45;e7 -->
<g id="edge98" class="edge"><title>n20&#45;&#45;e7</title>
<path fill="none" stroke="black" d="M1078.93,-82.3508C1098.28,-70.9674 1121.94,-57.0524 1141.3,-45.6665"/>
<text text-anchor="middle" x="1135.63" y="-51.4043" font-family="Arial" font-size="10.00">inEdges</text>
<text text-anchor="middle" x="1084.6" y="-71.613" font-family="Arial" font-size="10.00">tgt</text>
</g>
<!-- n15&#45;&#45;e14 -->
<g id="edge100" class="edge"><title>n15&#45;&#45;e14</title>
<path fill="none" stroke="black" d="M712.007,-574.14C703.614,-562.759 693.388,-548.893 685.027,-537.557"/>
<text text-anchor="middle" x="693.808" y="-539.843" font-family="Arial" font-size="10.00">outEdges_inEdges</text>
<text text-anchor="middle" x="703.226" y="-566.854" font-family="Arial" font-size="10.00">src_tgt</text>
</g>
<!-- n15&#45;&#45;e5 -->
<g id="edge102" class="edge"><title>n15&#45;&#45;e5</title>
<path fill="none" stroke="black" d="M749.443,-574.14C760.539,-562.759 774.058,-548.893 785.111,-537.557"/>
<text text-anchor="middle" x="781.81" y="-544.496" font-family="Arial" font-size="10.00">outEdges_inEdges</text>
<text text-anchor="middle" x="752.744" y="-562.2" font-family="Arial" font-size="10.00">src_tgt</text>
</g>
</g>
</svg>
