<?xml version="1.0" encoding="UTF-8" standalone="no"?>
<!DOCTYPE svg PUBLIC "-//W3C//DTD SVG 1.1//EN"
 "http://www.w3.org/Graphics/SVG/1.1/DTD/svg11.dtd">
<!-- Generated by graphviz version 2.28.0 (20110507.0327)
 -->
<!-- Title: ObjectDiagram Pages: 1 -->
<svg width="925pt" height="1052pt"
 viewBox="0.00 0.00 925.00 1052.00" xmlns="http://www.w3.org/2000/svg" xmlns:xlink="http://www.w3.org/1999/xlink">
<g id="graph1" class="graph" transform="scale(1 1) rotate(0) translate(4 1048)">
<title>ObjectDiagram</title>
<polygon fill="white" stroke="white" points="-4,5 -4,-1048 922,-1048 922,5 -4,5"/>
<!-- g1 -->
<g id="node1" class="node"><title>g1</title>
<polygon fill="deepskyblue" stroke="deepskyblue" points="151,-988.5 151,-1039.5 211,-1039.5 211,-988.5 151,-988.5"/>
<text text-anchor="start" x="179" y="-1029.5" font-family="Times New Roman,serif" font-size="10.00">«bound»</text>
<polygon fill="none" stroke="black" points="151,-1008 151,-1024 211,-1024 211,-1008 151,-1008"/>
<text text-anchor="start" x="154.5" y="-1014" font-family="Times New Roman,serif" font-size="10.00"> </text>
<text text-anchor="start" x="157.5" y="-1014" font-family="Times New Roman,serif" font-size="10.00"> g1 :GraphPO </text>
<polygon fill="none" stroke="black" points="151,-988 151,-1008 211,-1008 211,-988 151,-988"/>
<text text-anchor="start" x="178.5" y="-996" font-family="Times New Roman,serif" font-size="10.00"> &#160;</text>
</g>
<!-- e2 -->
<g id="node2" class="node"><title>e2</title>
<polygon fill="deepskyblue" stroke="deepskyblue" points="35.5,-906.5 35.5,-943.5 96.5,-943.5 96.5,-906.5 35.5,-906.5"/>
<polygon fill="none" stroke="black" points="36,-926 36,-943 97,-943 97,-926 36,-926"/>
<text text-anchor="start" x="39.5" y="-932.5" font-family="Times New Roman,serif" font-size="10.00"> </text>
<text text-anchor="start" x="42.5" y="-932.5" font-family="Times New Roman,serif" font-size="10.00"> e2 :EdgePO </text>
<polygon fill="none" stroke="black" points="36,-906 36,-926 97,-926 97,-906 36,-906"/>
<text text-anchor="start" x="64" y="-914" font-family="Times New Roman,serif" font-size="10.00"> &#160;</text>
</g>
<!-- g1&#45;&#45;e2 -->
<g id="edge10" class="edge"><title>g1&#45;&#45;e2</title>
<path fill="none" stroke="black" d="M143.026,-984.272C127.193,-972.294 109.12,-958.621 94.4604,-947.531"/>
<text text-anchor="middle" x="104.238" y="-947.129" font-family="Times New Roman,serif" font-size="10.00">edges</text>
</g>
<!-- g4 -->
<g id="node5" class="node"><title>g4</title>
<polygon fill="none" stroke="black" points="436,-834 436,-851 485,-851 485,-834 436,-834"/>
<text text-anchor="start" x="439.5" y="-840.5" font-family="Times New Roman,serif" font-size="10.00"> </text>
<text text-anchor="start" x="442.5" y="-840.5" font-family="Times New Roman,serif" font-size="10.00">g4 :Graph</text>
</g>
<!-- g1&#45;&#45;g4 -->
<g id="edge2" class="edge"><title>g1&#45;&#45;g4</title>
<path fill="none" stroke="black" stroke-dasharray="1,5" d="M219.209,-989.856C275.92,-955.504 381.089,-891.799 431.547,-861.235"/>
<text text-anchor="middle" x="425.984" y="-867.046" font-family="Times New Roman,serif" font-size="10.00">match</text>
</g>
<!-- allMatches_e2 -->
<g id="node3" class="node"><title>allMatches_e2</title>
<text text-anchor="middle" x="154" y="-840.5" font-family="Times New Roman,serif" font-size="10.00">allMatches</text>
</g>
<!-- e2&#45;&#45;allMatches_e2 -->
<g id="edge4" class="edge"><title>e2&#45;&#45;allMatches_e2</title>
<path fill="none" stroke="black" stroke-dasharray="1,5" d="M90.0464,-902.14C104.295,-889.186 122.086,-873.013 135.284,-861.015"/>
</g>
<!-- n3 -->
<g id="node4" class="node"><title>n3</title>
<polygon fill="deepskyblue" stroke="deepskyblue" points="34.5,-824.5 34.5,-861.5 97.5,-861.5 97.5,-824.5 34.5,-824.5"/>
<polygon fill="none" stroke="black" points="35,-844 35,-861 98,-861 98,-844 35,-844"/>
<text text-anchor="start" x="38.5" y="-850.5" font-family="Times New Roman,serif" font-size="10.00"> </text>
<text text-anchor="start" x="41.5" y="-850.5" font-family="Times New Roman,serif" font-size="10.00"> n3 :NodePO </text>
<polygon fill="none" stroke="black" points="35,-824 35,-844 98,-844 98,-824 35,-824"/>
<text text-anchor="start" x="64" y="-832" font-family="Times New Roman,serif" font-size="10.00"> &#160;</text>
</g>
<!-- e2&#45;&#45;n3 -->
<g id="edge12" class="edge"><title>e2&#45;&#45;n3</title>
<path fill="none" stroke="black" d="M59.9092,-902.14C59.0224,-890.759 59.0303,-876.893 59.9331,-865.557"/>
<text text-anchor="middle" x="63.5135" y="-872.394" font-family="Times New Roman,serif" font-size="10.00">src</text>
</g>
<!-- e2&#45;&#45;n3 -->
<g id="edge14" class="edge"><title>e2&#45;&#45;n3</title>
<path fill="none" stroke="black" d="M72.0908,-902.14C72.9776,-890.759 72.9697,-876.893 72.0669,-865.557"/>
<text text-anchor="middle" x="76.9181" y="-871.801" font-family="Times New Roman,serif" font-size="10.00">tgt</text>
</g>
<!-- e5 -->
<g id="node23" class="node"><title>e5</title>
<polygon fill="none" stroke="black" points="8,-680 8,-697 73,-697 73,-680 8,-680"/>
<text text-anchor="start" x="22" y="-686.5" font-family="Times New Roman,serif" font-size="10.00"> </text>
<text text-anchor="start" x="25" y="-686.5" font-family="Times New Roman,serif" font-size="10.00">e5 :Edge</text>
<polygon fill="none" stroke="black" points="8,-660 8,-680 73,-680 73,-660 8,-660"/>
<text text-anchor="start" x="13.5" y="-668" font-family="Times New Roman,serif" font-size="10.00">name = &quot;e17&quot;</text>
</g>
<!-- e2&#45;&#45;e5 -->
<g id="edge6" class="edge"><title>e2&#45;&#45;e5</title>
<path fill="none" stroke="black" stroke-dasharray="1,5" d="M41.4865,-902.482C31.9073,-892.47 22.0274,-879.741 17,-866 -2.54671,-812.575 6.32502,-793.878 17,-738 19.3782,-725.551 24.3867,-712.367 29.1246,-701.719"/>
<text text-anchor="middle" x="29.371" y="-709.216" font-family="Times New Roman,serif" font-size="10.00">match</text>
</g>
<!-- n6 -->
<g id="node21" class="node"><title>n6</title>
<polygon fill="none" stroke="black" points="35,-762 35,-779 96,-779 96,-762 35,-762"/>
<text text-anchor="start" x="45.5" y="-768.5" font-family="Times New Roman,serif" font-size="10.00"> </text>
<text text-anchor="start" x="48.5" y="-768.5" font-family="Times New Roman,serif" font-size="10.00">n6 :Node</text>
<polygon fill="none" stroke="black" points="35,-742 35,-762 96,-762 96,-742 35,-742"/>
<text text-anchor="start" x="40.5" y="-750" font-family="Times New Roman,serif" font-size="10.00">name = &quot;n8&quot;</text>
</g>
<!-- n3&#45;&#45;n6 -->
<g id="edge8" class="edge"><title>n3&#45;&#45;n6</title>
<path fill="none" stroke="black" stroke-dasharray="1,5" d="M65.7267,-820.14C65.5845,-808.759 65.4112,-794.893 65.2695,-783.557"/>
<text text-anchor="middle" x="69.6086" y="-790.066" font-family="Times New Roman,serif" font-size="10.00">match</text>
</g>
<!-- n7 -->
<g id="node6" class="node"><title>n7</title>
<polygon fill="none" stroke="black" points="287,-762 287,-779 348,-779 348,-762 287,-762"/>
<text text-anchor="start" x="297.5" y="-768.5" font-family="Times New Roman,serif" font-size="10.00"> </text>
<text text-anchor="start" x="300.5" y="-768.5" font-family="Times New Roman,serif" font-size="10.00">n7 :Node</text>
<polygon fill="none" stroke="black" points="287,-742 287,-762 348,-762 348,-742 287,-742"/>
<text text-anchor="start" x="292.5" y="-750" font-family="Times New Roman,serif" font-size="10.00">name = &quot;n1&quot;</text>
</g>
<!-- g4&#45;&#45;n7 -->
<g id="edge16" class="edge"><title>g4&#45;&#45;n7</title>
<path fill="none" stroke="black" d="M429.323,-824.838C407.657,-812.717 378.471,-796.389 355.28,-783.416"/>
<text text-anchor="middle" x="365.253" y="-781.652" font-family="Times New Roman,serif" font-size="10.00">nodes</text>
<text text-anchor="middle" x="419.35" y="-821.601" font-family="Times New Roman,serif" font-size="10.00">graph</text>
</g>
<!-- e8 -->
<g id="node7" class="node"><title>e8</title>
<polygon fill="none" stroke="black" points="321,-680 321,-697 386,-697 386,-680 321,-680"/>
<text text-anchor="start" x="335" y="-686.5" font-family="Times New Roman,serif" font-size="10.00"> </text>
<text text-anchor="start" x="338" y="-686.5" font-family="Times New Roman,serif" font-size="10.00">e8 :Edge</text>
<polygon fill="none" stroke="black" points="321,-660 321,-680 386,-680 386,-660 321,-660"/>
<text text-anchor="start" x="326.5" y="-668" font-family="Times New Roman,serif" font-size="10.00">name = &quot;e10&quot;</text>
</g>
<!-- g4&#45;&#45;e8 -->
<g id="edge36" class="edge"><title>g4&#45;&#45;e8</title>
<path fill="none" stroke="black" d="M442.403,-824.667C431.713,-813.608 418.207,-798.645 408,-784 389.314,-757.189 372.501,-723.267 362.519,-701.595"/>
<text text-anchor="middle" x="370.18" y="-705.523" font-family="Times New Roman,serif" font-size="10.00">edges</text>
<text text-anchor="middle" x="433.082" y="-818.544" font-family="Times New Roman,serif" font-size="10.00">graph</text>
</g>
<!-- n9 -->
<g id="node8" class="node"><title>n9</title>
<polygon fill="none" stroke="black" points="363,-598 363,-615 424,-615 424,-598 363,-598"/>
<text text-anchor="start" x="373.5" y="-604.5" font-family="Times New Roman,serif" font-size="10.00"> </text>
<text text-anchor="start" x="376.5" y="-604.5" font-family="Times New Roman,serif" font-size="10.00">n9 :Node</text>
<polygon fill="none" stroke="black" points="363,-578 363,-598 424,-598 424,-578 363,-578"/>
<text text-anchor="start" x="368.5" y="-586" font-family="Times New Roman,serif" font-size="10.00">name = &quot;n2&quot;</text>
</g>
<!-- g4&#45;&#45;n9 -->
<g id="edge18" class="edge"><title>g4&#45;&#45;n9</title>
<path fill="none" stroke="black" d="M455.289,-824.842C443.374,-781.452 412.058,-667.406 398.927,-619.586"/>
<text text-anchor="middle" x="405.403" y="-624.707" font-family="Times New Roman,serif" font-size="10.00">nodes</text>
<text text-anchor="middle" x="448.814" y="-814.722" font-family="Times New Roman,serif" font-size="10.00">graph</text>
</g>
<!-- e10 -->
<g id="node9" class="node"><title>e10</title>
<polygon fill="none" stroke="black" points="397,-516 397,-533 462,-533 462,-516 397,-516"/>
<text text-anchor="start" x="408.5" y="-522.5" font-family="Times New Roman,serif" font-size="10.00"> </text>
<text text-anchor="start" x="411.5" y="-522.5" font-family="Times New Roman,serif" font-size="10.00">e10 :Edge</text>
<polygon fill="none" stroke="black" points="397,-496 397,-516 462,-516 462,-496 397,-496"/>
<text text-anchor="start" x="402.5" y="-504" font-family="Times New Roman,serif" font-size="10.00">name = &quot;e11&quot;</text>
</g>
<!-- g4&#45;&#45;e10 -->
<g id="edge38" class="edge"><title>g4&#45;&#45;e10</title>
<path fill="none" stroke="black" d="M459.398,-825C457.75,-782.519 452.429,-668.366 440,-574 438.407,-561.908 435.918,-548.525 433.711,-537.665"/>
<text text-anchor="middle" x="439.641" y="-543.217" font-family="Times New Roman,serif" font-size="10.00">edges</text>
<text text-anchor="middle" x="454.803" y="-813.618" font-family="Times New Roman,serif" font-size="10.00">graph</text>
</g>
<!-- n11 -->
<g id="node10" class="node"><title>n11</title>
<polygon fill="none" stroke="black" points="419,-434 419,-451 480,-451 480,-434 419,-434"/>
<text text-anchor="start" x="427.5" y="-440.5" font-family="Times New Roman,serif" font-size="10.00"> </text>
<text text-anchor="start" x="430.5" y="-440.5" font-family="Times New Roman,serif" font-size="10.00">n11 :Node</text>
<polygon fill="none" stroke="black" points="419,-414 419,-434 480,-434 480,-414 419,-414"/>
<text text-anchor="start" x="424.5" y="-422" font-family="Times New Roman,serif" font-size="10.00">name = &quot;n3&quot;</text>
</g>
<!-- g4&#45;&#45;n11 -->
<g id="edge20" class="edge"><title>g4&#45;&#45;n11</title>
<path fill="none" stroke="black" d="M466.794,-824.811C477.724,-795.562 498,-734.021 498,-680 498,-680 498,-680 498,-596 498,-548.931 493.111,-536.578 478,-492 473.771,-479.525 467.351,-466.338 461.625,-455.696"/>
<text text-anchor="middle" x="469.61" y="-459.215" font-family="Times New Roman,serif" font-size="10.00">nodes</text>
<text text-anchor="middle" x="465.92" y="-812.349" font-family="Times New Roman,serif" font-size="10.00">graph</text>
</g>
<!-- e12 -->
<g id="node11" class="node"><title>e12</title>
<polygon fill="none" stroke="black" points="252,-352 252,-369 317,-369 317,-352 252,-352"/>
<text text-anchor="start" x="263.5" y="-358.5" font-family="Times New Roman,serif" font-size="10.00"> </text>
<text text-anchor="start" x="266.5" y="-358.5" font-family="Times New Roman,serif" font-size="10.00">e12 :Edge</text>
<polygon fill="none" stroke="black" points="252,-332 252,-352 317,-352 317,-332 252,-332"/>
<text text-anchor="start" x="257.5" y="-340" font-family="Times New Roman,serif" font-size="10.00">name = &quot;e12&quot;</text>
</g>
<!-- g4&#45;&#45;e12 -->
<g id="edge40" class="edge"><title>g4&#45;&#45;e12</title>
<path fill="none" stroke="black" d="M427.475,-841.641C384.748,-839.328 310.315,-828.633 269,-784 236.842,-749.26 246,-727.339 246,-680 246,-680 246,-680 246,-514 246,-462.579 264.371,-404.345 275.567,-373.632"/>
<text text-anchor="middle" x="276.52" y="-381.086" font-family="Times New Roman,serif" font-size="10.00">edges</text>
<text text-anchor="middle" x="418.136" y="-842.717" font-family="Times New Roman,serif" font-size="10.00">graph</text>
</g>
<!-- e13 -->
<g id="node12" class="node"><title>e13</title>
<polygon fill="none" stroke="black" points="678,-352 678,-369 743,-369 743,-352 678,-352"/>
<text text-anchor="start" x="689.5" y="-358.5" font-family="Times New Roman,serif" font-size="10.00"> </text>
<text text-anchor="start" x="692.5" y="-358.5" font-family="Times New Roman,serif" font-size="10.00">e13 :Edge</text>
<polygon fill="none" stroke="black" points="678,-332 678,-352 743,-352 743,-332 678,-332"/>
<text text-anchor="start" x="683.5" y="-340" font-family="Times New Roman,serif" font-size="10.00">name = &quot;e13&quot;</text>
</g>
<!-- g4&#45;&#45;e13 -->
<g id="edge42" class="edge"><title>g4&#45;&#45;e13</title>
<path fill="none" stroke="black" d="M492.405,-840.704C565.939,-837.077 742.213,-824.288 783,-784 816.487,-750.923 803,-727.069 803,-680 803,-680 803,-680 803,-514 803,-457.41 759.789,-402.697 732.276,-373.596"/>
<text text-anchor="middle" x="741.511" y="-374.932" font-family="Times New Roman,serif" font-size="10.00">edges</text>
<text text-anchor="middle" x="501.22" y="-833.483" font-family="Times New Roman,serif" font-size="10.00">graph</text>
</g>
<!-- n14 -->
<g id="node13" class="node"><title>n14</title>
<polygon fill="none" stroke="black" points="680,-270 680,-287 741,-287 741,-270 680,-270"/>
<text text-anchor="start" x="688.5" y="-276.5" font-family="Times New Roman,serif" font-size="10.00"> </text>
<text text-anchor="start" x="691.5" y="-276.5" font-family="Times New Roman,serif" font-size="10.00">n14 :Node</text>
<polygon fill="none" stroke="black" points="680,-250 680,-270 741,-270 741,-250 680,-250"/>
<text text-anchor="start" x="685.5" y="-258" font-family="Times New Roman,serif" font-size="10.00">name = &quot;n4&quot;</text>
</g>
<!-- g4&#45;&#45;n14 -->
<g id="edge22" class="edge"><title>g4&#45;&#45;n14</title>
<path fill="none" stroke="black" d="M492.362,-840.861C569.643,-837.493 762.011,-825.088 809,-784 845.406,-752.167 841,-728.361 841,-680 841,-680 841,-680 841,-432 841,-370.33 782.891,-318.947 744.077,-291.504"/>
<text text-anchor="middle" x="753.881" y="-290.971" font-family="Times New Roman,serif" font-size="10.00">nodes</text>
<text text-anchor="middle" x="501.206" y="-833.693" font-family="Times New Roman,serif" font-size="10.00">graph</text>
</g>
<!-- e15 -->
<g id="node14" class="node"><title>e15</title>
<polygon fill="none" stroke="black" points="647,-188 647,-205 712,-205 712,-188 647,-188"/>
<text text-anchor="start" x="658.5" y="-194.5" font-family="Times New Roman,serif" font-size="10.00"> </text>
<text text-anchor="start" x="661.5" y="-194.5" font-family="Times New Roman,serif" font-size="10.00">e15 :Edge</text>
<polygon fill="none" stroke="black" points="647,-168 647,-188 712,-188 712,-168 647,-168"/>
<text text-anchor="start" x="652.5" y="-176" font-family="Times New Roman,serif" font-size="10.00">name = &quot;e14&quot;</text>
</g>
<!-- g4&#45;&#45;e15 -->
<g id="edge44" class="edge"><title>g4&#45;&#45;e15</title>
<path fill="none" stroke="black" d="M492.52,-828.707C512.048,-819.092 535.785,-804.228 550,-784 577.275,-745.188 574,-727.437 574,-680 574,-680 574,-680 574,-350 574,-291.85 622.229,-238.11 653.314,-209.512"/>
<text text-anchor="middle" x="649.668" y="-216.324" font-family="Times New Roman,serif" font-size="10.00">edges</text>
<text text-anchor="middle" x="498.677" y="-818.327" font-family="Times New Roman,serif" font-size="10.00">graph</text>
</g>
<!-- n16 -->
<g id="node15" class="node"><title>n16</title>
<polygon fill="none" stroke="black" points="649,-106 649,-123 710,-123 710,-106 649,-106"/>
<text text-anchor="start" x="657.5" y="-112.5" font-family="Times New Roman,serif" font-size="10.00"> </text>
<text text-anchor="start" x="660.5" y="-112.5" font-family="Times New Roman,serif" font-size="10.00">n16 :Node</text>
<polygon fill="none" stroke="black" points="649,-86 649,-106 710,-106 710,-86 649,-86"/>
<text text-anchor="start" x="654.5" y="-94" font-family="Times New Roman,serif" font-size="10.00">name = &quot;n5&quot;</text>
</g>
<!-- g4&#45;&#45;n16 -->
<g id="edge24" class="edge"><title>g4&#45;&#45;n16</title>
<path fill="none" stroke="black" d="M492.398,-841.078C573.904,-838.139 784.753,-826.512 838,-784 876.827,-753 879,-729.684 879,-680 879,-680 879,-680 879,-268 879,-185.782 775.68,-138.063 717.562,-117.724"/>
<text text-anchor="middle" x="727.53" y="-114.421" font-family="Times New Roman,serif" font-size="10.00">nodes</text>
<text text-anchor="middle" x="501.278" y="-833.979" font-family="Times New Roman,serif" font-size="10.00">graph</text>
</g>
<!-- e17 -->
<g id="node16" class="node"><title>e17</title>
<polygon fill="none" stroke="black" points="557,-24 557,-41 622,-41 622,-24 557,-24"/>
<text text-anchor="start" x="568.5" y="-30.5" font-family="Times New Roman,serif" font-size="10.00"> </text>
<text text-anchor="start" x="571.5" y="-30.5" font-family="Times New Roman,serif" font-size="10.00">e17 :Edge</text>
<polygon fill="none" stroke="black" points="557,-4 557,-24 622,-24 622,-4 557,-4"/>
<text text-anchor="start" x="562.5" y="-12" font-family="Times New Roman,serif" font-size="10.00">name = &quot;e18&quot;</text>
</g>
<!-- g4&#45;&#45;e17 -->
<g id="edge32" class="edge"><title>g4&#45;&#45;e17</title>
<path fill="none" stroke="black" d="M474.295,-824.791C496.31,-796.481 536,-737.472 536,-680 536,-680 536,-680 536,-186 536,-133.474 561.48,-75.906 577.106,-45.5392"/>
<text text-anchor="middle" x="576.832" y="-53.0355" font-family="Times New Roman,serif" font-size="10.00">edges</text>
<text text-anchor="middle" x="476.379" y="-812.511" font-family="Times New Roman,serif" font-size="10.00">graph</text>
</g>
<!-- e18 -->
<g id="node17" class="node"><title>e18</title>
<polygon fill="none" stroke="black" points="417,-24 417,-41 482,-41 482,-24 417,-24"/>
<text text-anchor="start" x="428.5" y="-30.5" font-family="Times New Roman,serif" font-size="10.00"> </text>
<text text-anchor="start" x="431.5" y="-30.5" font-family="Times New Roman,serif" font-size="10.00">e18 :Edge</text>
<polygon fill="none" stroke="black" points="417,-4 417,-24 482,-24 482,-4 417,-4"/>
<text text-anchor="start" x="422.5" y="-12" font-family="Times New Roman,serif" font-size="10.00">name = &quot;e15&quot;</text>
</g>
<!-- g4&#45;&#45;e18 -->
<g id="edge46" class="edge"><title>g4&#45;&#45;e18</title>
<path fill="none" stroke="black" d="M427.703,-842.515C380.672,-841.482 293.364,-832.568 242,-784 206.665,-750.589 208,-728.63 208,-680 208,-680 208,-680 208,-186 208,-90.4645 340.055,-47.5989 408.662,-31.7755"/>
<text text-anchor="middle" x="400.898" y="-35.5773" font-family="Times New Roman,serif" font-size="10.00">edges</text>
<text text-anchor="middle" x="418.486" y="-843.894" font-family="Times New Roman,serif" font-size="10.00">graph</text>
</g>
<!-- e19 -->
<g id="node18" class="node"><title>e19</title>
<polygon fill="none" stroke="black" points="696,-24 696,-41 761,-41 761,-24 696,-24"/>
<text text-anchor="start" x="707.5" y="-30.5" font-family="Times New Roman,serif" font-size="10.00"> </text>
<text text-anchor="start" x="710.5" y="-30.5" font-family="Times New Roman,serif" font-size="10.00">e19 :Edge</text>
<polygon fill="none" stroke="black" points="696,-4 696,-24 761,-24 761,-4 696,-4"/>
<text text-anchor="start" x="701.5" y="-12" font-family="Times New Roman,serif" font-size="10.00">name = &quot;e19&quot;</text>
</g>
<!-- g4&#45;&#45;e19 -->
<g id="edge34" class="edge"><title>g4&#45;&#45;e19</title>
<path fill="none" stroke="black" d="M492.458,-841.353C578.585,-839.035 810.401,-828.693 870,-784 910.58,-753.569 917,-730.723 917,-680 917,-680 917,-680 917,-186 917,-108.426 824.08,-59.9915 768.545,-37.9714"/>
<text text-anchor="middle" x="778.538" y="-35.0785" font-family="Times New Roman,serif" font-size="10.00">edges</text>
<text text-anchor="middle" x="501.38" y="-834.338" font-family="Times New Roman,serif" font-size="10.00">graph</text>
</g>
<!-- n20 -->
<g id="node19" class="node"><title>n20</title>
<polygon fill="none" stroke="black" points="611,-762 611,-779 672,-779 672,-762 611,-762"/>
<text text-anchor="start" x="619.5" y="-768.5" font-family="Times New Roman,serif" font-size="10.00"> </text>
<text text-anchor="start" x="622.5" y="-768.5" font-family="Times New Roman,serif" font-size="10.00">n20 :Node</text>
<polygon fill="none" stroke="black" points="611,-742 611,-762 672,-762 672,-742 611,-742"/>
<text text-anchor="start" x="616.5" y="-750" font-family="Times New Roman,serif" font-size="10.00">name = &quot;n6&quot;</text>
</g>
<!-- g4&#45;&#45;n20 -->
<g id="edge26" class="edge"><title>g4&#45;&#45;n20</title>
<path fill="none" stroke="black" d="M492.359,-827.698C523.271,-814.035 569.877,-793.436 602.642,-778.954"/>
<text text-anchor="middle" x="596.061" y="-783.983" font-family="Times New Roman,serif" font-size="10.00">nodes</text>
<text text-anchor="middle" x="498.94" y="-817.668" font-family="Times New Roman,serif" font-size="10.00">graph</text>
</g>
<!-- n21 -->
<g id="node20" class="node"><title>n21</title>
<polygon fill="none" stroke="black" points="706,-762 706,-779 767,-779 767,-762 706,-762"/>
<text text-anchor="start" x="714.5" y="-768.5" font-family="Times New Roman,serif" font-size="10.00"> </text>
<text text-anchor="start" x="717.5" y="-768.5" font-family="Times New Roman,serif" font-size="10.00">n21 :Node</text>
<polygon fill="none" stroke="black" points="706,-742 706,-762 767,-762 767,-742 706,-742"/>
<text text-anchor="start" x="711.5" y="-750" font-family="Times New Roman,serif" font-size="10.00">name = &quot;n7&quot;</text>
</g>
<!-- g4&#45;&#45;n21 -->
<g id="edge28" class="edge"><title>g4&#45;&#45;n21</title>
<path fill="none" stroke="black" d="M492.261,-835.716C536.933,-826.582 619.831,-808.07 688,-784 691.198,-782.871 694.475,-781.608 697.74,-780.275"/>
<text text-anchor="middle" x="690.933" y="-785.1" font-family="Times New Roman,serif" font-size="10.00">nodes</text>
<text text-anchor="middle" x="500.273" y="-827.231" font-family="Times New Roman,serif" font-size="10.00">graph</text>
</g>
<!-- g4&#45;&#45;n6 -->
<g id="edge30" class="edge"><title>g4&#45;&#45;n6</title>
<path fill="none" stroke="black" d="M427.394,-838.944C365.926,-832.642 229.102,-816.035 118,-784 113.214,-782.62 108.275,-780.94 103.427,-779.129"/>
<text text-anchor="middle" x="113.393" y="-775.81" font-family="Times New Roman,serif" font-size="10.00">nodes</text>
<text text-anchor="middle" x="417.933" y="-839.682" font-family="Times New Roman,serif" font-size="10.00">graph</text>
</g>
<!-- e22 -->
<g id="node22" class="node"><title>e22</title>
<polygon fill="none" stroke="black" points="107,-680 107,-697 172,-697 172,-680 107,-680"/>
<text text-anchor="start" x="118.5" y="-686.5" font-family="Times New Roman,serif" font-size="10.00"> </text>
<text text-anchor="start" x="121.5" y="-686.5" font-family="Times New Roman,serif" font-size="10.00">e22 :Edge</text>
<polygon fill="none" stroke="black" points="107,-660 107,-680 172,-680 172,-660 107,-660"/>
<text text-anchor="start" x="112.5" y="-668" font-family="Times New Roman,serif" font-size="10.00">name = &quot;e16&quot;</text>
</g>
<!-- g4&#45;&#45;e22 -->
<g id="edge48" class="edge"><title>g4&#45;&#45;e22</title>
<path fill="none" stroke="black" d="M427.659,-838.38C365.135,-830.837 230.606,-811.8 194,-784 166.998,-763.494 151.889,-725.853 144.602,-701.921"/>
<text text-anchor="middle" x="151.394" y="-706.76" font-family="Times New Roman,serif" font-size="10.00">edges</text>
<text text-anchor="middle" x="418.14" y="-838.944" font-family="Times New Roman,serif" font-size="10.00">graph</text>
</g>
<!-- g4&#45;&#45;e5 -->
<g id="edge50" class="edge"><title>g4&#45;&#45;e5</title>
<path fill="none" stroke="black" d="M427.684,-842.147C369.699,-841.096 245.684,-832.77 156,-784 131.146,-770.484 132.837,-757.136 112,-738 98.2862,-725.406 82.2173,-712.316 68.7434,-701.766"/>
<text text-anchor="middle" x="78.4792" y="-701.55" font-family="Times New Roman,serif" font-size="10.00">edges</text>
<text text-anchor="middle" x="418.5" y="-843.605" font-family="Times New Roman,serif" font-size="10.00">graph</text>
</g>
<!-- n7&#45;&#45;e8 -->
<g id="edge52" class="edge"><title>n7&#45;&#45;e8</title>
<path fill="none" stroke="black" d="M326.837,-738.14C331.958,-726.759 338.198,-712.893 343.299,-701.557"/>
<text text-anchor="middle" x="343.434" y="-709.056" font-family="Times New Roman,serif" font-size="10.00">outEdges</text>
<text text-anchor="middle" x="326.702" y="-725.641" font-family="Times New Roman,serif" font-size="10.00">src</text>
</g>
<!-- n7&#45;&#45;e12 -->
<g id="edge54" class="edge"><title>n7&#45;&#45;e12</title>
<path fill="none" stroke="black" d="M309.676,-738.276C299.954,-707.454 284,-649.091 284,-598 284,-598 284,-598 284,-514 284,-463.797 284,-404.843 284,-373.749"/>
<text text-anchor="middle" x="288.226" y="-380.312" font-family="Times New Roman,serif" font-size="10.00">inEdges</text>
<text text-anchor="middle" x="302.976" y="-728.352" font-family="Times New Roman,serif" font-size="10.00">tgt</text>
</g>
<!-- e8&#45;&#45;n9 -->
<g id="edge56" class="edge"><title>e8&#45;&#45;n9</title>
<path fill="none" stroke="black" d="M363.93,-656.14C369.62,-644.759 376.554,-630.893 382.222,-619.557"/>
<text text-anchor="middle" x="381.948" y="-627.053" font-family="Times New Roman,serif" font-size="10.00">tgt</text>
<text text-anchor="middle" x="364.203" y="-643.643" font-family="Times New Roman,serif" font-size="10.00">inEdges</text>
</g>
<!-- n9&#45;&#45;e10 -->
<g id="edge58" class="edge"><title>n9&#45;&#45;e10</title>
<path fill="none" stroke="black" d="M402.837,-574.14C407.958,-562.759 414.198,-548.893 419.299,-537.557"/>
<text text-anchor="middle" x="419.434" y="-545.056" font-family="Times New Roman,serif" font-size="10.00">outEdges</text>
<text text-anchor="middle" x="402.702" y="-561.641" font-family="Times New Roman,serif" font-size="10.00">src</text>
</g>
<!-- e10&#45;&#45;n11 -->
<g id="edge60" class="edge"><title>e10&#45;&#45;n11</title>
<path fill="none" stroke="black" d="M434.465,-492.14C437.31,-480.759 440.777,-466.893 443.611,-455.557"/>
<text text-anchor="middle" x="445.513" y="-462.874" font-family="Times New Roman,serif" font-size="10.00">tgt</text>
<text text-anchor="middle" x="432.563" y="-479.822" font-family="Times New Roman,serif" font-size="10.00">inEdges</text>
</g>
<!-- n11&#45;&#45;e12 -->
<g id="edge62" class="edge"><title>n11&#45;&#45;e12</title>
<path fill="none" stroke="black" d="M410.731,-413.445C384.836,-400.89 350.688,-384.334 324.364,-371.57"/>
<text text-anchor="middle" x="334.362" y="-369.221" font-family="Times New Roman,serif" font-size="10.00">outEdges</text>
<text text-anchor="middle" x="400.732" y="-410.794" font-family="Times New Roman,serif" font-size="10.00">src</text>
</g>
<!-- n11&#45;&#45;e13 -->
<g id="edge64" class="edge"><title>n11&#45;&#45;e13</title>
<path fill="none" stroke="black" d="M487.511,-420.196C536.291,-405.244 619.958,-379.599 669.612,-364.379"/>
<text text-anchor="middle" x="662.186" y="-368.576" font-family="Times New Roman,serif" font-size="10.00">outEdges</text>
<text text-anchor="middle" x="494.938" y="-410.999" font-family="Times New Roman,serif" font-size="10.00">src</text>
</g>
<!-- n11&#45;&#45;e18 -->
<g id="edge66" class="edge"><title>n11&#45;&#45;e18</title>
<path fill="none" stroke="black" d="M449,-410.251C449,-379.157 449,-320.203 449,-270 449,-270 449,-270 449,-186 449,-135.797 449,-76.8425 449,-45.7485"/>
<text text-anchor="middle" x="453.226" y="-52.3116" font-family="Times New Roman,serif" font-size="10.00">inEdges</text>
<text text-anchor="middle" x="444.774" y="-398.688" font-family="Times New Roman,serif" font-size="10.00">tgt</text>
</g>
<!-- e13&#45;&#45;n14 -->
<g id="edge68" class="edge"><title>e13&#45;&#45;n14</title>
<path fill="none" stroke="black" d="M710,-328.14C710,-316.759 710,-302.893 710,-291.557"/>
<text text-anchor="middle" x="714.226" y="-298.12" font-family="Times New Roman,serif" font-size="10.00">tgt</text>
<text text-anchor="middle" x="705.774" y="-316.577" font-family="Times New Roman,serif" font-size="10.00">inEdges</text>
</g>
<!-- n14&#45;&#45;e15 -->
<g id="edge70" class="edge"><title>n14&#45;&#45;e15</title>
<path fill="none" stroke="black" d="M701.529,-246.14C697.119,-234.759 691.746,-220.893 687.353,-209.557"/>
<text text-anchor="middle" x="694.569" y="-213.981" font-family="Times New Roman,serif" font-size="10.00">outEdges</text>
<text text-anchor="middle" x="694.314" y="-236.716" font-family="Times New Roman,serif" font-size="10.00">src</text>
</g>
<!-- e15&#45;&#45;n16 -->
<g id="edge72" class="edge"><title>e15&#45;&#45;n16</title>
<path fill="none" stroke="black" d="M679,-164.14C679,-152.759 679,-138.893 679,-127.557"/>
<text text-anchor="middle" x="683.226" y="-134.12" font-family="Times New Roman,serif" font-size="10.00">tgt</text>
<text text-anchor="middle" x="674.774" y="-152.577" font-family="Times New Roman,serif" font-size="10.00">inEdges</text>
</g>
<!-- n16&#45;&#45;e17 -->
<g id="edge74" class="edge"><title>n16&#45;&#45;e17</title>
<path fill="none" stroke="black" d="M654.407,-82.1396C641.604,-70.759 626.005,-56.8929 613.252,-45.5569"/>
<text text-anchor="middle" x="622.833" y="-45.9194" font-family="Times New Roman,serif" font-size="10.00">outEdges</text>
<text text-anchor="middle" x="644.826" y="-76.7772" font-family="Times New Roman,serif" font-size="10.00">src</text>
</g>
<!-- n16&#45;&#45;e18 -->
<g id="edge76" class="edge"><title>n16&#45;&#45;e18</title>
<path fill="none" stroke="black" d="M640.503,-90.6098C598.686,-76.0647 532.169,-52.9284 489.56,-38.1078"/>
<text text-anchor="middle" x="499.508" y="-34.5936" font-family="Times New Roman,serif" font-size="10.00">outEdges</text>
<text text-anchor="middle" x="630.555" y="-89.124" font-family="Times New Roman,serif" font-size="10.00">src</text>
</g>
<!-- n16&#45;&#45;e19 -->
<g id="edge78" class="edge"><title>n16&#45;&#45;e19</title>
<path fill="none" stroke="black" d="M692.389,-82.1396C699.36,-70.759 707.853,-56.8929 714.796,-45.5569"/>
<text text-anchor="middle" x="713.667" y="-52.9929" font-family="Times New Roman,serif" font-size="10.00">inEdges</text>
<text text-anchor="middle" x="693.519" y="-69.7037" font-family="Times New Roman,serif" font-size="10.00">tgt</text>
</g>
<!-- n6&#45;&#45;e22 -->
<g id="edge80" class="edge"><title>n6&#45;&#45;e22</title>
<path fill="none" stroke="black" d="M85.2208,-738.14C95.7479,-726.759 108.574,-712.893 119.06,-701.557"/>
<text text-anchor="middle" x="116.008" y="-708.58" font-family="Times New Roman,serif" font-size="10.00">outEdges_inEdges</text>
<text text-anchor="middle" x="88.2726" y="-726.117" font-family="Times New Roman,serif" font-size="10.00">src_tgt</text>
</g>
<!-- n6&#45;&#45;e5 -->
<g id="edge82" class="edge"><title>n6&#45;&#45;e5</title>
<path fill="none" stroke="black" d="M58.1686,-738.14C54.6122,-726.759 50.279,-712.893 46.7365,-701.557"/>
<text text-anchor="middle" x="53.4736" y="-706.447" font-family="Times New Roman,serif" font-size="10.00">outEdges_inEdges</text>
<text text-anchor="middle" x="51.4315" y="-728.25" font-family="Times New Roman,serif" font-size="10.00">src_tgt</text>
</g>
</g>
</svg>
