<?xml version="1.0" encoding="UTF-8" standalone="no"?>
<!DOCTYPE svg PUBLIC "-//W3C//DTD SVG 1.1//EN"
 "http://www.w3.org/Graphics/SVG/1.1/DTD/svg11.dtd">
<!-- Generated by graphviz version 2.28.0 (20110507.0327)
 -->
<!-- Title: ObjectDiagram Pages: 1 -->
<svg width="279pt" height="259pt"
 viewBox="0.00 0.00 279.00 259.00" xmlns="http://www.w3.org/2000/svg" xmlns:xlink="http://www.w3.org/1999/xlink">
<g id="graph1" class="graph" transform="scale(1 1) rotate(0) translate(4 255)">
<title>ObjectDiagram</title>
<polygon fill="white" stroke="white" points="-4,5 -4,-255 276,-255 276,5 -4,5"/>
<g id="graph2" class="cluster"><title>cluster_n3</title>
<polygon fill="none" stroke="grey" points="70,-8 70,-101 263,-101 263,-8 70,-8"/>
<text text-anchor="start" x="146.5" y="-81.8" font-family="Times New Roman,serif" font-size="14.00">NAC n3</text>
</g>
<!-- g1 -->
<g id="node1" class="node"><title>g1</title>
<polygon fill="deepskyblue" stroke="deepskyblue" points="85.5,-195.5 85.5,-246.5 150.5,-246.5 150.5,-195.5 85.5,-195.5"/>
<text text-anchor="start" x="112" y="-236.5" font-family="Times New Roman,serif" font-size="10.00">«bound»</text>
<polygon fill="none" stroke="black" points="86,-215 86,-231 151,-231 151,-215 86,-215"/>
<text text-anchor="start" x="89.5" y="-221" font-family="Times New Roman,serif" font-size="10.00"> </text>
<text text-anchor="start" x="92.5" y="-221" font-family="Times New Roman,serif" font-size="10.00"> g1 :GraphPO </text>
<polygon fill="none" stroke="black" points="86,-195 86,-215 151,-215 151,-195 86,-195"/>
<text text-anchor="start" x="116" y="-203" font-family="Times New Roman,serif" font-size="10.00"> &#160;</text>
</g>
<!-- e2 -->
<g id="node2" class="node"><title>e2</title>
<polygon fill="deepskyblue" stroke="deepskyblue" points="87.5,-113.5 87.5,-150.5 148.5,-150.5 148.5,-113.5 87.5,-113.5"/>
<polygon fill="none" stroke="black" points="88,-133 88,-150 149,-150 149,-133 88,-133"/>
<text text-anchor="start" x="91.5" y="-139.5" font-family="Times New Roman,serif" font-size="10.00"> </text>
<text text-anchor="start" x="94.5" y="-139.5" font-family="Times New Roman,serif" font-size="10.00"> e2 :EdgePO </text>
<polygon fill="none" stroke="black" points="88,-113 88,-133 149,-133 149,-113 88,-113"/>
<text text-anchor="start" x="116" y="-121" font-family="Times New Roman,serif" font-size="10.00"> &#160;</text>
</g>
<!-- g1&#45;&#45;e2 -->
<g id="edge5" class="edge"><title>g1&#45;&#45;e2</title>
<path fill="none" stroke="black" d="M118,-191.03C118,-179.167 118,-165.675 118,-154.687"/>
<text text-anchor="middle" x="122.226" y="-161.25" font-family="Times New Roman,serif" font-size="10.00">edges</text>
</g>
<!-- allMatches_e2 -->
<g id="node3" class="node"><title>allMatches_e2</title>
<text text-anchor="middle" x="30" y="-36.5" font-family="Times New Roman,serif" font-size="10.00">allMatches</text>
</g>
<!-- e2&#45;&#45;allMatches_e2 -->
<g id="edge3" class="edge"><title>e2&#45;&#45;allMatches_e2</title>
<path fill="none" stroke="black" stroke-dasharray="1,5" d="M79.7026,-112.018C74.7966,-108.718 70.0734,-105.033 66,-101 53.2423,-88.3677 43.3271,-70.3035 37.1618,-57.1119"/>
</g>
<!-- n4 -->
<g id="node5" class="node"><title>n4</title>
<polygon fill="deepskyblue" stroke="deepskyblue" points="183.5,-20.5 183.5,-57.5 246.5,-57.5 246.5,-20.5 183.5,-20.5"/>
<polygon fill="none" stroke="black" points="184,-40 184,-57 247,-57 247,-40 184,-40"/>
<text text-anchor="start" x="187.5" y="-46.5" font-family="Times New Roman,serif" font-size="10.00"> </text>
<text text-anchor="start" x="190.5" y="-46.5" font-family="Times New Roman,serif" font-size="10.00"> n4 :NodePO </text>
<polygon fill="none" stroke="black" points="184,-20 184,-40 247,-40 247,-20 184,-20"/>
<text text-anchor="start" x="213" y="-28" font-family="Times New Roman,serif" font-size="10.00"> &#160;</text>
</g>
<!-- e2&#45;&#45;n4 -->
<g id="edge7" class="edge"><title>e2&#45;&#45;n4</title>
<path fill="none" stroke="black" d="M155.583,-109.262C159.228,-106.642 162.767,-103.872 166,-101 179.101,-89.3623 191.44,-73.964 200.46,-61.5502"/>
<text text-anchor="middle" x="198.49" y="-68.8542" font-family="Times New Roman,serif" font-size="10.00">tgt</text>
</g>
<!-- n5 -->
<g id="node6" class="node"><title>n5</title>
<polygon fill="deepskyblue" stroke="deepskyblue" points="86.5,-20.5 86.5,-57.5 149.5,-57.5 149.5,-20.5 86.5,-20.5"/>
<polygon fill="none" stroke="black" points="87,-40 87,-57 150,-57 150,-40 87,-40"/>
<text text-anchor="start" x="90.5" y="-46.5" font-family="Times New Roman,serif" font-size="10.00"> </text>
<text text-anchor="start" x="93.5" y="-46.5" font-family="Times New Roman,serif" font-size="10.00"> n5 :NodePO </text>
<polygon fill="none" stroke="black" points="87,-20 87,-40 150,-40 150,-20 87,-20"/>
<text text-anchor="start" x="116" y="-28" font-family="Times New Roman,serif" font-size="10.00"> &#160;</text>
</g>
<!-- e2&#45;&#45;n5 -->
<g id="edge9" class="edge"><title>e2&#45;&#45;n5</title>
<path fill="none" stroke="black" d="M118,-109.434C118,-95.0333 118,-76.1604 118,-61.7263"/>
<text text-anchor="middle" x="122.226" y="-68.2894" font-family="Times New Roman,serif" font-size="10.00">src</text>
</g>
</g>
</svg>
