<?xml version="1.0" encoding="UTF-8" standalone="no"?>
<!DOCTYPE svg PUBLIC "-//W3C//DTD SVG 1.1//EN"
 "http://www.w3.org/Graphics/SVG/1.1/DTD/svg11.dtd">
<!-- Generated by graphviz version 2.26.3 (20100126.1600)
 -->
<!-- Title: ObjectDiagram Pages: 1 -->
<svg width="340pt" height="560pt"
 viewBox="0.00 0.00 340.00 560.00" xmlns="http://www.w3.org/2000/svg" xmlns:xlink="http://www.w3.org/1999/xlink">
<g id="graph1" class="graph" transform="scale(1 1) rotate(0) translate(4 556)">
<title>ObjectDiagram</title>
<polygon fill="white" stroke="white" points="-4,5 -4,-556 337,-556 337,5 -4,5"/>
<!-- g1 -->
<g id="node1" class="node"><title>g1</title>
<polygon fill="deepskyblue" stroke="deepskyblue" points="42,-496.5 42,-547.5 120,-547.5 120,-496.5 42,-496.5"/>
<text text-anchor="start" x="75" y="-537.167" font-family="Times Roman,serif" font-size="10.00">«bound»</text>
<polygon fill="none" stroke="black" points="42,-516 42,-532 120,-532 120,-516 42,-516"/>
<text text-anchor="start" x="45.5" y="-521.667" font-family="Times Roman,serif" font-size="10.00"> </text>
<text text-anchor="start" x="49.5" y="-521.667" font-family="Times Roman,serif" font-size="10.00"> g1 :GraphPO </text>
<polygon fill="none" stroke="black" points="42,-496 42,-516 120,-516 120,-496 42,-496"/>
<text text-anchor="start" x="77.5" y="-503.667" font-family="Times Roman,serif" font-size="10.00"> &#160;</text>
</g>
<!-- n2 -->
<g id="node2" class="node"><title>n2</title>
<polygon fill="deepskyblue" stroke="deepskyblue" points="43.5,-414.5 43.5,-451.5 118.5,-451.5 118.5,-414.5 43.5,-414.5"/>
<polygon fill="none" stroke="black" points="44,-434 44,-451 119,-451 119,-434 44,-434"/>
<text text-anchor="start" x="47.5" y="-440.167" font-family="Times Roman,serif" font-size="10.00"> </text>
<text text-anchor="start" x="51.5" y="-440.167" font-family="Times Roman,serif" font-size="10.00"> n2 :NodePO </text>
<polygon fill="none" stroke="black" points="44,-414 44,-434 119,-434 119,-414 44,-414"/>
<text text-anchor="start" x="78" y="-421.667" font-family="Times Roman,serif" font-size="10.00"> &#160;</text>
</g>
<!-- g1&#45;&#45;n2 -->
<g id="edge2" class="edge"><title>g1&#45;&#45;n2</title>
<path fill="none" stroke="black" d="M81,-492.364C81,-480.431 81,-466.885 81,-455.75"/>
<text text-anchor="middle" x="85.2262" y="-461.813" font-family="Times Roman,serif" font-size="10.00">nodes</text>
</g>
<!-- e3 -->
<g id="node3" class="node"><title>e3</title>
<polygon fill="deepskyblue" stroke="deepskyblue" points="8.5,-332.5 8.5,-369.5 81.5,-369.5 81.5,-332.5 8.5,-332.5"/>
<polygon fill="none" stroke="black" points="9,-352 9,-369 82,-369 82,-352 9,-352"/>
<text text-anchor="start" x="12.5" y="-358.167" font-family="Times Roman,serif" font-size="10.00"> </text>
<text text-anchor="start" x="16.5" y="-358.167" font-family="Times Roman,serif" font-size="10.00"> e3 :EdgePO </text>
<polygon fill="none" stroke="black" points="9,-332 9,-352 82,-352 82,-332 9,-332"/>
<text text-anchor="start" x="42" y="-339.667" font-family="Times Roman,serif" font-size="10.00"> &#160;</text>
</g>
<!-- n2&#45;&#45;e3 -->
<g id="edge4" class="edge"><title>n2&#45;&#45;e3</title>
<path fill="none" stroke="black" d="M70.972,-410.158C65.9788,-398.785 59.96,-385.076 54.9742,-373.719"/>
<text text-anchor="middle" x="62.4872" y="-377.319" font-family="Times Roman,serif" font-size="10.00">outEdges</text>
</g>
<!-- n4 -->
<g id="node4" class="node"><title>n4</title>
<polygon fill="deepskyblue" stroke="deepskyblue" points="7.5,-250.5 7.5,-287.5 82.5,-287.5 82.5,-250.5 7.5,-250.5"/>
<polygon fill="none" stroke="black" points="8,-270 8,-287 83,-287 83,-270 8,-270"/>
<text text-anchor="start" x="11.5" y="-276.167" font-family="Times Roman,serif" font-size="10.00"> </text>
<text text-anchor="start" x="15.5" y="-276.167" font-family="Times Roman,serif" font-size="10.00"> n4 :NodePO </text>
<polygon fill="none" stroke="black" points="8,-250 8,-270 83,-270 83,-250 8,-250"/>
<text text-anchor="start" x="42" y="-257.667" font-family="Times Roman,serif" font-size="10.00"> &#160;</text>
</g>
<!-- e3&#45;&#45;n4 -->
<g id="edge6" class="edge"><title>e3&#45;&#45;n4</title>
<path fill="none" stroke="black" d="M45,-328.158C45,-316.785 45,-303.076 45,-291.719"/>
<text text-anchor="middle" x="49.2262" y="-297.782" font-family="Times Roman,serif" font-size="10.00">tgt</text>
</g>
<!-- e5 -->
<g id="node5" class="node"><title>e5</title>
<polygon fill="deepskyblue" stroke="deepskyblue" points="8.5,-168.5 8.5,-205.5 81.5,-205.5 81.5,-168.5 8.5,-168.5"/>
<polygon fill="none" stroke="black" points="9,-188 9,-205 82,-205 82,-188 9,-188"/>
<text text-anchor="start" x="12.5" y="-194.167" font-family="Times Roman,serif" font-size="10.00"> </text>
<text text-anchor="start" x="16.5" y="-194.167" font-family="Times Roman,serif" font-size="10.00"> e5 :EdgePO </text>
<polygon fill="none" stroke="black" points="9,-168 9,-188 82,-188 82,-168 9,-168"/>
<text text-anchor="start" x="42" y="-175.667" font-family="Times Roman,serif" font-size="10.00"> &#160;</text>
</g>
<!-- n4&#45;&#45;e5 -->
<g id="edge8" class="edge"><title>n4&#45;&#45;e5</title>
<path fill="none" stroke="black" d="M45,-246.158C45,-234.785 45,-221.076 45,-209.719"/>
<text text-anchor="middle" x="49.2262" y="-215.782" font-family="Times Roman,serif" font-size="10.00">outEdges</text>
</g>
<!-- n6 -->
<g id="node6" class="node"><title>n6</title>
<polygon fill="deepskyblue" stroke="deepskyblue" points="7.5,-86.5 7.5,-123.5 82.5,-123.5 82.5,-86.5 7.5,-86.5"/>
<polygon fill="none" stroke="black" points="8,-106 8,-123 83,-123 83,-106 8,-106"/>
<text text-anchor="start" x="11.5" y="-112.167" font-family="Times Roman,serif" font-size="10.00"> </text>
<text text-anchor="start" x="15.5" y="-112.167" font-family="Times Roman,serif" font-size="10.00"> n6 :NodePO </text>
<polygon fill="none" stroke="black" points="8,-86 8,-106 83,-106 83,-86 8,-86"/>
<text text-anchor="start" x="42" y="-93.6667" font-family="Times Roman,serif" font-size="10.00"> &#160;</text>
</g>
<!-- e5&#45;&#45;n6 -->
<g id="edge10" class="edge"><title>e5&#45;&#45;n6</title>
<path fill="none" stroke="black" d="M45,-164.158C45,-152.785 45,-139.076 45,-127.719"/>
<text text-anchor="middle" x="49.2262" y="-133.782" font-family="Times Roman,serif" font-size="10.00">tgt</text>
</g>
<!-- e7 -->
<g id="node7" class="node"><title>e7</title>
<polygon fill="deepskyblue" stroke="deepskyblue" points="44.5,-4.5 44.5,-41.5 117.5,-41.5 117.5,-4.5 44.5,-4.5"/>
<polygon fill="none" stroke="black" points="45,-24 45,-41 118,-41 118,-24 45,-24"/>
<text text-anchor="start" x="48.5" y="-30.1667" font-family="Times Roman,serif" font-size="10.00"> </text>
<text text-anchor="start" x="52.5" y="-30.1667" font-family="Times Roman,serif" font-size="10.00"> e7 :EdgePO </text>
<polygon fill="none" stroke="black" points="45,-4 45,-24 118,-24 118,-4 45,-4"/>
<text text-anchor="start" x="78" y="-11.6667" font-family="Times Roman,serif" font-size="10.00"> &#160;</text>
</g>
<!-- n6&#45;&#45;e7 -->
<g id="edge12" class="edge"><title>n6&#45;&#45;e7</title>
<path fill="none" stroke="black" d="M55.028,-82.1584C60.0212,-70.7851 66.04,-57.0756 71.0258,-45.7191"/>
<text text-anchor="middle" x="71.2522" y="-52.7165" font-family="Times Roman,serif" font-size="10.00">outEdges</text>
</g>
<!-- e7&#45;&#45;n2 -->
<g id="edge14" class="edge"><title>e7&#45;&#45;n2</title>
<path fill="none" stroke="black" d="M89.4885,-45.7202C100.412,-77.0467 118,-135.483 118,-187 118,-269 118,-269 118,-269 118,-320.517 100.412,-378.953 89.4885,-410.28"/>
<text text-anchor="middle" x="88.3982" y="-397.339" font-family="Times Roman,serif" font-size="10.00">tgt</text>
</g>
<!-- matchIsomorphic -->
<g id="node8" class="node"><title>matchIsomorphic</title>
<text text-anchor="middle" x="196" y="-519" font-family="Times Roman,serif" font-size="10.00">matchIsomorphic</text>
</g>
<!-- allMatches -->
<g id="node9" class="node"><title>allMatches</title>
<text text-anchor="middle" x="298" y="-519" font-family="Times Roman,serif" font-size="10.00">allMatches</text>
</g>
</g>
</svg>
