<?xml version="1.0" encoding="UTF-8" standalone="no"?>
<!DOCTYPE svg PUBLIC "-//W3C//DTD SVG 1.1//EN"
 "http://www.w3.org/Graphics/SVG/1.1/DTD/svg11.dtd">
<!-- Generated by graphviz version 2.28.0 (20110507.0327)
 -->
<!-- Title: ObjectDiagram Pages: 1 -->
<svg width="1045pt" height="1298pt"
 viewBox="0.00 0.00 1044.71 1298.00" xmlns="http://www.w3.org/2000/svg" xmlns:xlink="http://www.w3.org/1999/xlink">
<g id="graph1" class="graph" transform="scale(1 1) rotate(0) translate(4 1294)">
<title>ObjectDiagram</title>
<polygon fill="white" stroke="white" points="-4,5 -4,-1294 1041.71,-1294 1041.71,5 -4,5"/>
<!-- g1 -->
<g id="node1" class="node"><title>g1</title>
<polygon fill="deepskyblue" stroke="deepskyblue" points="308.935,-1234.5 308.935,-1285.5 373.935,-1285.5 373.935,-1234.5 308.935,-1234.5"/>
<text text-anchor="start" x="335.435" y="-1275.5" font-family="Times New Roman,serif" font-size="10.00">«bound»</text>
<polygon fill="none" stroke="black" points="309.435,-1254 309.435,-1270 374.435,-1270 374.435,-1254 309.435,-1254"/>
<text text-anchor="start" x="312.935" y="-1260" font-family="Times New Roman,serif" font-size="10.00"> </text>
<text text-anchor="start" x="315.935" y="-1260" font-family="Times New Roman,serif" font-size="10.00"> g1 :GraphPO </text>
<polygon fill="none" stroke="black" points="309.435,-1234 309.435,-1254 374.435,-1254 374.435,-1234 309.435,-1234"/>
<text text-anchor="start" x="339.435" y="-1242" font-family="Times New Roman,serif" font-size="10.00"> &#160;</text>
</g>
<!-- n2 -->
<g id="node2" class="node"><title>n2</title>
<polygon fill="deepskyblue" stroke="deepskyblue" points="209.935,-1152.5 209.935,-1189.5 272.935,-1189.5 272.935,-1152.5 209.935,-1152.5"/>
<polygon fill="none" stroke="black" points="210.435,-1172 210.435,-1189 273.435,-1189 273.435,-1172 210.435,-1172"/>
<text text-anchor="start" x="213.935" y="-1178.5" font-family="Times New Roman,serif" font-size="10.00"> </text>
<text text-anchor="start" x="216.935" y="-1178.5" font-family="Times New Roman,serif" font-size="10.00"> n2 :NodePO </text>
<polygon fill="none" stroke="black" points="210.435,-1152 210.435,-1172 273.435,-1172 273.435,-1152 210.435,-1152"/>
<text text-anchor="start" x="239.435" y="-1160" font-family="Times New Roman,serif" font-size="10.00"> &#160;</text>
</g>
<!-- g1&#45;&#45;n2 -->
<g id="edge16" class="edge"><title>g1&#45;&#45;n2</title>
<path fill="none" stroke="black" d="M308.414,-1230.27C294.646,-1218.29 278.93,-1204.62 266.183,-1193.53"/>
<text text-anchor="middle" x="275.794" y="-1193.79" font-family="Times New Roman,serif" font-size="10.00">nodes</text>
</g>
<!-- g8 -->
<g id="node10" class="node"><title>g8</title>
<polygon fill="none" stroke="black" points="497.435,-834 497.435,-851 546.435,-851 546.435,-834 497.435,-834"/>
<text text-anchor="start" x="500.935" y="-840.5" font-family="Times New Roman,serif" font-size="10.00"> </text>
<text text-anchor="start" x="503.935" y="-840.5" font-family="Times New Roman,serif" font-size="10.00">g8 :Graph</text>
</g>
<!-- g1&#45;&#45;g8 -->
<g id="edge2" class="edge"><title>g1&#45;&#45;g8</title>
<path fill="none" stroke="black" stroke-dasharray="1,5" d="M366.249,-1230.37C391.338,-1198.4 426.435,-1144.03 426.435,-1090 426.435,-1090 426.435,-1090 426.435,-1006 426.435,-946.334 474.98,-889.19 502.666,-861.451"/>
<text text-anchor="middle" x="499.41" y="-868.406" font-family="Times New Roman,serif" font-size="10.00">match</text>
</g>
<!-- e3 -->
<g id="node3" class="node"><title>e3</title>
<polygon fill="deepskyblue" stroke="deepskyblue" points="176.935,-1070.5 176.935,-1107.5 237.935,-1107.5 237.935,-1070.5 176.935,-1070.5"/>
<polygon fill="none" stroke="black" points="177.435,-1090 177.435,-1107 238.435,-1107 238.435,-1090 177.435,-1090"/>
<text text-anchor="start" x="180.935" y="-1096.5" font-family="Times New Roman,serif" font-size="10.00"> </text>
<text text-anchor="start" x="183.935" y="-1096.5" font-family="Times New Roman,serif" font-size="10.00"> e3 :EdgePO </text>
<polygon fill="none" stroke="black" points="177.435,-1070 177.435,-1090 238.435,-1090 238.435,-1070 177.435,-1070"/>
<text text-anchor="start" x="205.435" y="-1078" font-family="Times New Roman,serif" font-size="10.00"> &#160;</text>
</g>
<!-- n2&#45;&#45;e3 -->
<g id="edge18" class="edge"><title>n2&#45;&#45;e3</title>
<path fill="none" stroke="black" d="M232.144,-1148.14C227.307,-1136.76 221.414,-1122.89 216.596,-1111.56"/>
<text text-anchor="middle" x="224.031" y="-1115.74" font-family="Times New Roman,serif" font-size="10.00">outEdges</text>
</g>
<!-- n9 -->
<g id="node26" class="node"><title>n9</title>
<polygon fill="none" stroke="black" points="158.435,-762 158.435,-779 219.435,-779 219.435,-762 158.435,-762"/>
<text text-anchor="start" x="168.935" y="-768.5" font-family="Times New Roman,serif" font-size="10.00"> </text>
<text text-anchor="start" x="171.935" y="-768.5" font-family="Times New Roman,serif" font-size="10.00">n9 :Node</text>
<polygon fill="none" stroke="black" points="158.435,-742 158.435,-762 219.435,-762 219.435,-742 158.435,-742"/>
<text text-anchor="start" x="163.435" y="-750" font-family="Times New Roman,serif" font-size="10.00">name = &quot;n8&quot;</text>
</g>
<!-- n2&#45;&#45;n9 -->
<g id="edge4" class="edge"><title>n2&#45;&#45;n9</title>
<path fill="none" stroke="black" stroke-dasharray="1,5" d="M253.329,-1148.46C268.955,-1118.09 294.435,-1060.53 294.435,-1008 294.435,-1008 294.435,-1008 294.435,-924 294.435,-874.789 284.523,-860.407 256.435,-820 246.781,-806.113 233.02,-793.536 220.4,-783.672"/>
<text text-anchor="middle" x="230.122" y="-783.514" font-family="Times New Roman,serif" font-size="10.00">match</text>
</g>
<!-- n4 -->
<g id="node4" class="node"><title>n4</title>
<polygon fill="deepskyblue" stroke="deepskyblue" points="175.935,-988.5 175.935,-1025.5 238.935,-1025.5 238.935,-988.5 175.935,-988.5"/>
<polygon fill="none" stroke="black" points="176.435,-1008 176.435,-1025 239.435,-1025 239.435,-1008 176.435,-1008"/>
<text text-anchor="start" x="179.935" y="-1014.5" font-family="Times New Roman,serif" font-size="10.00"> </text>
<text text-anchor="start" x="182.935" y="-1014.5" font-family="Times New Roman,serif" font-size="10.00"> n4 :NodePO </text>
<polygon fill="none" stroke="black" points="176.435,-988 176.435,-1008 239.435,-1008 239.435,-988 176.435,-988"/>
<text text-anchor="start" x="205.435" y="-996" font-family="Times New Roman,serif" font-size="10.00"> &#160;</text>
</g>
<!-- e3&#45;&#45;n4 -->
<g id="edge20" class="edge"><title>e3&#45;&#45;n4</title>
<path fill="none" stroke="black" d="M207.435,-1066.14C207.435,-1054.76 207.435,-1040.89 207.435,-1029.56"/>
<text text-anchor="middle" x="211.661" y="-1036.12" font-family="Times New Roman,serif" font-size="10.00">tgt</text>
</g>
<!-- e10 -->
<g id="node28" class="node"><title>e10</title>
<polygon fill="none" stroke="black" points="89.4347,-680 89.4347,-697 154.435,-697 154.435,-680 89.4347,-680"/>
<text text-anchor="start" x="100.935" y="-686.5" font-family="Times New Roman,serif" font-size="10.00"> </text>
<text text-anchor="start" x="103.935" y="-686.5" font-family="Times New Roman,serif" font-size="10.00">e10 :Edge</text>
<polygon fill="none" stroke="black" points="89.4347,-660 89.4347,-680 154.435,-680 154.435,-660 89.4347,-660"/>
<text text-anchor="start" x="94.4347" y="-668" font-family="Times New Roman,serif" font-size="10.00">name = &quot;e17&quot;</text>
</g>
<!-- e3&#45;&#45;e10 -->
<g id="edge6" class="edge"><title>e3&#45;&#45;e10</title>
<path fill="none" stroke="black" stroke-dasharray="1,5" d="M186.092,-1066.46C141.671,-1019.87 40.5757,-904.206 6.4347,-784 0.848967,-764.333 -4.28337,-755.41 6.4347,-738 22.6121,-711.723 54.7659,-696.921 80.9706,-688.859"/>
<text text-anchor="middle" x="73.6726" y="-693.196" font-family="Times New Roman,serif" font-size="10.00">match</text>
</g>
<!-- e5 -->
<g id="node5" class="node"><title>e5</title>
<polygon fill="deepskyblue" stroke="deepskyblue" points="157.935,-906.5 157.935,-943.5 218.935,-943.5 218.935,-906.5 157.935,-906.5"/>
<polygon fill="none" stroke="black" points="158.435,-926 158.435,-943 219.435,-943 219.435,-926 158.435,-926"/>
<text text-anchor="start" x="161.935" y="-932.5" font-family="Times New Roman,serif" font-size="10.00"> </text>
<text text-anchor="start" x="164.935" y="-932.5" font-family="Times New Roman,serif" font-size="10.00"> e5 :EdgePO </text>
<polygon fill="none" stroke="black" points="158.435,-906 158.435,-926 219.435,-926 219.435,-906 158.435,-906"/>
<text text-anchor="start" x="186.435" y="-914" font-family="Times New Roman,serif" font-size="10.00"> &#160;</text>
</g>
<!-- n4&#45;&#45;e5 -->
<g id="edge22" class="edge"><title>n4&#45;&#45;e5</title>
<path fill="none" stroke="black" d="M202.243,-984.14C199.54,-972.759 196.247,-958.893 193.554,-947.557"/>
<text text-anchor="middle" x="199.761" y="-952.898" font-family="Times New Roman,serif" font-size="10.00">outEdges</text>
</g>
<!-- n4&#45;&#45;n9 -->
<g id="edge8" class="edge"><title>n4&#45;&#45;n9</title>
<path fill="none" stroke="black" stroke-dasharray="1,5" d="M220.734,-984.262C226.438,-973.718 232.465,-960.626 235.435,-948 248.459,-892.62 255.711,-873.525 236.435,-820 231.519,-806.35 221.842,-793.633 212.457,-783.606"/>
<text text-anchor="middle" x="221.689" y="-784.948" font-family="Times New Roman,serif" font-size="10.00">match</text>
</g>
<!-- n6 -->
<g id="node6" class="node"><title>n6</title>
<polygon fill="deepskyblue" stroke="deepskyblue" points="156.935,-824.5 156.935,-861.5 219.935,-861.5 219.935,-824.5 156.935,-824.5"/>
<polygon fill="none" stroke="black" points="157.435,-844 157.435,-861 220.435,-861 220.435,-844 157.435,-844"/>
<text text-anchor="start" x="160.935" y="-850.5" font-family="Times New Roman,serif" font-size="10.00"> </text>
<text text-anchor="start" x="163.935" y="-850.5" font-family="Times New Roman,serif" font-size="10.00"> n6 :NodePO </text>
<polygon fill="none" stroke="black" points="157.435,-824 157.435,-844 220.435,-844 220.435,-824 157.435,-824"/>
<text text-anchor="start" x="186.435" y="-832" font-family="Times New Roman,serif" font-size="10.00"> &#160;</text>
</g>
<!-- e5&#45;&#45;n6 -->
<g id="edge24" class="edge"><title>e5&#45;&#45;n6</title>
<path fill="none" stroke="black" d="M188.435,-902.14C188.435,-890.759 188.435,-876.893 188.435,-865.557"/>
<text text-anchor="middle" x="192.661" y="-872.12" font-family="Times New Roman,serif" font-size="10.00">tgt</text>
</g>
<!-- e5&#45;&#45;e10 -->
<g id="edge10" class="edge"><title>e5&#45;&#45;e10</title>
<path fill="none" stroke="black" stroke-dasharray="1,5" d="M164.553,-902.233C155.086,-892.178 145.119,-879.483 139.435,-866 115.993,-810.396 117.113,-737.404 119.478,-701.643"/>
<text text-anchor="middle" x="123.2" y="-708.425" font-family="Times New Roman,serif" font-size="10.00">match</text>
</g>
<!-- e7 -->
<g id="node7" class="node"><title>e7</title>
<polygon fill="deepskyblue" stroke="deepskyblue" points="23.9347,-742.5 23.9347,-779.5 84.9347,-779.5 84.9347,-742.5 23.9347,-742.5"/>
<polygon fill="none" stroke="black" points="24.4347,-762 24.4347,-779 85.4347,-779 85.4347,-762 24.4347,-762"/>
<text text-anchor="start" x="27.9347" y="-768.5" font-family="Times New Roman,serif" font-size="10.00"> </text>
<text text-anchor="start" x="30.9347" y="-768.5" font-family="Times New Roman,serif" font-size="10.00"> e7 :EdgePO </text>
<polygon fill="none" stroke="black" points="24.4347,-742 24.4347,-762 85.4347,-762 85.4347,-742 24.4347,-742"/>
<text text-anchor="start" x="52.4347" y="-750" font-family="Times New Roman,serif" font-size="10.00"> &#160;</text>
</g>
<!-- n6&#45;&#45;e7 -->
<g id="edge26" class="edge"><title>n6&#45;&#45;e7</title>
<path fill="none" stroke="black" d="M152.172,-820.351C133.105,-808.967 109.798,-795.052 90.726,-783.666"/>
<text text-anchor="middle" x="100.674" y="-782.184" font-family="Times New Roman,serif" font-size="10.00">outEdges</text>
</g>
<!-- n6&#45;&#45;n9 -->
<g id="edge12" class="edge"><title>n6&#45;&#45;n9</title>
<path fill="none" stroke="black" stroke-dasharray="1,5" d="M188.435,-820.14C188.435,-808.759 188.435,-794.893 188.435,-783.557"/>
<text text-anchor="middle" x="192.661" y="-790.12" font-family="Times New Roman,serif" font-size="10.00">match</text>
</g>
<!-- e7&#45;&#45;n2 -->
<g id="edge28" class="edge"><title>e7&#45;&#45;n2</title>
<path fill="none" stroke="black" d="M48.0705,-783.529C39.5339,-814.359 25.4347,-872.999 25.4347,-924 25.4347,-1008 25.4347,-1008 25.4347,-1008 25.4347,-1095.19 139.46,-1141.2 201.817,-1159.84"/>
<text text-anchor="middle" x="191.897" y="-1158.61" font-family="Times New Roman,serif" font-size="10.00">tgt</text>
</g>
<!-- e7&#45;&#45;e10 -->
<g id="edge14" class="edge"><title>e7&#45;&#45;e10</title>
<path fill="none" stroke="black" stroke-dasharray="1,5" d="M72.7427,-738.14C82.274,-726.759 93.8869,-712.893 103.381,-701.557"/>
<text text-anchor="middle" x="100.802" y="-708.719" font-family="Times New Roman,serif" font-size="10.00">match</text>
</g>
<!-- matchIsomorphic -->
<g id="node8" class="node"><title>matchIsomorphic</title>
<text text-anchor="middle" x="443.435" y="-1257.5" font-family="Times New Roman,serif" font-size="10.00">matchIsomorphic</text>
</g>
<!-- allMatches -->
<g id="node9" class="node"><title>allMatches</title>
<text text-anchor="middle" x="535.435" y="-1257.5" font-family="Times New Roman,serif" font-size="10.00">allMatches</text>
</g>
<!-- n11 -->
<g id="node11" class="node"><title>n11</title>
<polygon fill="none" stroke="black" points="901.435,-762 901.435,-779 962.435,-779 962.435,-762 901.435,-762"/>
<text text-anchor="start" x="909.935" y="-768.5" font-family="Times New Roman,serif" font-size="10.00"> </text>
<text text-anchor="start" x="912.935" y="-768.5" font-family="Times New Roman,serif" font-size="10.00">n11 :Node</text>
<polygon fill="none" stroke="black" points="901.435,-742 901.435,-762 962.435,-762 962.435,-742 901.435,-742"/>
<text text-anchor="start" x="906.435" y="-750" font-family="Times New Roman,serif" font-size="10.00">name = &quot;n1&quot;</text>
</g>
<!-- g8&#45;&#45;n11 -->
<g id="edge30" class="edge"><title>g8&#45;&#45;n11</title>
<path fill="none" stroke="black" d="M553.985,-839.264C617.411,-833.376 761.573,-817.257 878.435,-784 883.226,-782.637 888.167,-780.966 893.017,-779.162"/>
<text text-anchor="middle" x="885.975" y="-783.761" font-family="Times New Roman,serif" font-size="10.00">nodes</text>
<text text-anchor="middle" x="562.595" y="-831.678" font-family="Times New Roman,serif" font-size="10.00">graph</text>
</g>
<!-- e12 -->
<g id="node12" class="node"><title>e12</title>
<polygon fill="none" stroke="black" points="793.435,-680 793.435,-697 858.435,-697 858.435,-680 793.435,-680"/>
<text text-anchor="start" x="804.935" y="-686.5" font-family="Times New Roman,serif" font-size="10.00"> </text>
<text text-anchor="start" x="807.935" y="-686.5" font-family="Times New Roman,serif" font-size="10.00">e12 :Edge</text>
<polygon fill="none" stroke="black" points="793.435,-660 793.435,-680 858.435,-680 858.435,-660 793.435,-660"/>
<text text-anchor="start" x="798.435" y="-668" font-family="Times New Roman,serif" font-size="10.00">name = &quot;e10&quot;</text>
</g>
<!-- g8&#45;&#45;e12 -->
<g id="edge50" class="edge"><title>g8&#45;&#45;e12</title>
<path fill="none" stroke="black" d="M553.764,-839.667C619.928,-834.225 767.496,-818.449 802.435,-784 824.293,-762.448 827.475,-725.117 827.01,-701.533"/>
<text text-anchor="middle" x="831.254" y="-708.087" font-family="Times New Roman,serif" font-size="10.00">edges</text>
<text text-anchor="middle" x="562.421" y="-832.16" font-family="Times New Roman,serif" font-size="10.00">graph</text>
</g>
<!-- n13 -->
<g id="node13" class="node"><title>n13</title>
<polygon fill="none" stroke="black" points="760.435,-598 760.435,-615 821.435,-615 821.435,-598 760.435,-598"/>
<text text-anchor="start" x="768.935" y="-604.5" font-family="Times New Roman,serif" font-size="10.00"> </text>
<text text-anchor="start" x="771.935" y="-604.5" font-family="Times New Roman,serif" font-size="10.00">n13 :Node</text>
<polygon fill="none" stroke="black" points="760.435,-578 760.435,-598 821.435,-598 821.435,-578 760.435,-578"/>
<text text-anchor="start" x="765.435" y="-586" font-family="Times New Roman,serif" font-size="10.00">name = &quot;n2&quot;</text>
</g>
<!-- g8&#45;&#45;n13 -->
<g id="edge32" class="edge"><title>g8&#45;&#45;n13</title>
<path fill="none" stroke="black" d="M553.966,-839.091C614.548,-832.95 741.009,-816.476 768.435,-784 777.629,-773.113 774.31,-670.091 776.435,-656 778.272,-643.811 781.427,-630.421 784.276,-619.581"/>
<text text-anchor="middle" x="786.092" y="-626.915" font-family="Times New Roman,serif" font-size="10.00">nodes</text>
<text text-anchor="middle" x="562.523" y="-831.417" font-family="Times New Roman,serif" font-size="10.00">graph</text>
</g>
<!-- e14 -->
<g id="node14" class="node"><title>e14</title>
<polygon fill="none" stroke="black" points="758.435,-516 758.435,-533 823.435,-533 823.435,-516 758.435,-516"/>
<text text-anchor="start" x="769.935" y="-522.5" font-family="Times New Roman,serif" font-size="10.00"> </text>
<text text-anchor="start" x="772.935" y="-522.5" font-family="Times New Roman,serif" font-size="10.00">e14 :Edge</text>
<polygon fill="none" stroke="black" points="758.435,-496 758.435,-516 823.435,-516 823.435,-496 758.435,-496"/>
<text text-anchor="start" x="763.435" y="-504" font-family="Times New Roman,serif" font-size="10.00">name = &quot;e11&quot;</text>
</g>
<!-- g8&#45;&#45;e14 -->
<g id="edge52" class="edge"><title>g8&#45;&#45;e14</title>
<path fill="none" stroke="black" d="M553.807,-839.229C623.024,-832.773 782.672,-814.885 826.435,-784 876.075,-748.967 887.215,-715.398 874.435,-656 866.024,-616.912 858.416,-608.035 837.435,-574 829.545,-561.202 819.155,-548.094 810.151,-537.584"/>
<text text-anchor="middle" x="819.237" y="-539.26" font-family="Times New Roman,serif" font-size="10.00">edges</text>
<text text-anchor="middle" x="562.415" y="-831.639" font-family="Times New Roman,serif" font-size="10.00">graph</text>
</g>
<!-- n15 -->
<g id="node15" class="node"><title>n15</title>
<polygon fill="none" stroke="black" points="591.435,-434 591.435,-451 652.435,-451 652.435,-434 591.435,-434"/>
<text text-anchor="start" x="599.935" y="-440.5" font-family="Times New Roman,serif" font-size="10.00"> </text>
<text text-anchor="start" x="602.935" y="-440.5" font-family="Times New Roman,serif" font-size="10.00">n15 :Node</text>
<polygon fill="none" stroke="black" points="591.435,-414 591.435,-434 652.435,-434 652.435,-414 591.435,-414"/>
<text text-anchor="start" x="596.435" y="-422" font-family="Times New Roman,serif" font-size="10.00">name = &quot;n3&quot;</text>
</g>
<!-- g8&#45;&#45;n15 -->
<g id="edge34" class="edge"><title>g8&#45;&#45;n15</title>
<path fill="none" stroke="black" d="M528.228,-824.811C539.158,-795.562 559.435,-734.021 559.435,-680 559.435,-680 559.435,-680 559.435,-596 559.435,-542.698 589.073,-485.659 607.366,-455.532"/>
<text text-anchor="middle" x="606.403" y="-462.986" font-family="Times New Roman,serif" font-size="10.00">nodes</text>
<text text-anchor="middle" x="527.355" y="-812.349" font-family="Times New Roman,serif" font-size="10.00">graph</text>
</g>
<!-- e16 -->
<g id="node16" class="node"><title>e16</title>
<polygon fill="none" stroke="black" points="900.435,-352 900.435,-369 965.435,-369 965.435,-352 900.435,-352"/>
<text text-anchor="start" x="911.935" y="-358.5" font-family="Times New Roman,serif" font-size="10.00"> </text>
<text text-anchor="start" x="914.935" y="-358.5" font-family="Times New Roman,serif" font-size="10.00">e16 :Edge</text>
<polygon fill="none" stroke="black" points="900.435,-332 900.435,-352 965.435,-352 965.435,-332 900.435,-332"/>
<text text-anchor="start" x="905.435" y="-340" font-family="Times New Roman,serif" font-size="10.00">name = &quot;e12&quot;</text>
</g>
<!-- g8&#45;&#45;e16 -->
<g id="edge54" class="edge"><title>g8&#45;&#45;e16</title>
<path fill="none" stroke="black" d="M553.795,-842.613C647.626,-843.688 917.047,-841.594 978.435,-784 1012.76,-751.795 998.435,-727.069 998.435,-680 998.435,-680 998.435,-680 998.435,-514 998.435,-460.398 967.062,-403.702 947.576,-373.658"/>
<text text-anchor="middle" x="955.981" y="-376.576" font-family="Times New Roman,serif" font-size="10.00">edges</text>
<text text-anchor="middle" x="562.88" y="-835.935" font-family="Times New Roman,serif" font-size="10.00">graph</text>
</g>
<!-- e17 -->
<g id="node17" class="node"><title>e17</title>
<polygon fill="none" stroke="black" points="482.435,-352 482.435,-369 547.435,-369 547.435,-352 482.435,-352"/>
<text text-anchor="start" x="493.935" y="-358.5" font-family="Times New Roman,serif" font-size="10.00"> </text>
<text text-anchor="start" x="496.935" y="-358.5" font-family="Times New Roman,serif" font-size="10.00">e17 :Edge</text>
<polygon fill="none" stroke="black" points="482.435,-332 482.435,-352 547.435,-352 547.435,-332 482.435,-332"/>
<text text-anchor="start" x="487.435" y="-340" font-family="Times New Roman,serif" font-size="10.00">name = &quot;e13&quot;</text>
</g>
<!-- g8&#45;&#45;e17 -->
<g id="edge56" class="edge"><title>g8&#45;&#45;e17</title>
<path fill="none" stroke="black" d="M514.641,-824.811C503.711,-795.562 483.435,-734.021 483.435,-680 483.435,-680 483.435,-680 483.435,-514 483.435,-463.029 498.422,-404.619 507.555,-373.757"/>
<text text-anchor="middle" x="509.107" y="-381.136" font-family="Times New Roman,serif" font-size="10.00">edges</text>
<text text-anchor="middle" x="507.571" y="-815.239" font-family="Times New Roman,serif" font-size="10.00">graph</text>
</g>
<!-- n18 -->
<g id="node18" class="node"><title>n18</title>
<polygon fill="none" stroke="black" points="464.435,-270 464.435,-287 525.435,-287 525.435,-270 464.435,-270"/>
<text text-anchor="start" x="472.935" y="-276.5" font-family="Times New Roman,serif" font-size="10.00"> </text>
<text text-anchor="start" x="475.935" y="-276.5" font-family="Times New Roman,serif" font-size="10.00">n18 :Node</text>
<polygon fill="none" stroke="black" points="464.435,-250 464.435,-270 525.435,-270 525.435,-250 464.435,-250"/>
<text text-anchor="start" x="469.435" y="-258" font-family="Times New Roman,serif" font-size="10.00">name = &quot;n4&quot;</text>
</g>
<!-- g8&#45;&#45;n18 -->
<g id="edge36" class="edge"><title>g8&#45;&#45;n18</title>
<path fill="none" stroke="black" d="M507.14,-824.791C485.124,-796.481 445.435,-737.472 445.435,-680 445.435,-680 445.435,-680 445.435,-432 445.435,-385.013 449.252,-372.467 464.435,-328 468.721,-315.448 475.355,-302.254 481.296,-291.627"/>
<text text-anchor="middle" x="480.617" y="-299.104" font-family="Times New Roman,serif" font-size="10.00">nodes</text>
<text text-anchor="middle" x="498.308" y="-817.601" font-family="Times New Roman,serif" font-size="10.00">graph</text>
</g>
<!-- e19 -->
<g id="node19" class="node"><title>e19</title>
<polygon fill="none" stroke="black" points="462.435,-188 462.435,-205 527.435,-205 527.435,-188 462.435,-188"/>
<text text-anchor="start" x="473.935" y="-194.5" font-family="Times New Roman,serif" font-size="10.00"> </text>
<text text-anchor="start" x="476.935" y="-194.5" font-family="Times New Roman,serif" font-size="10.00">e19 :Edge</text>
<polygon fill="none" stroke="black" points="462.435,-168 462.435,-188 527.435,-188 527.435,-168 462.435,-168"/>
<text text-anchor="start" x="467.435" y="-176" font-family="Times New Roman,serif" font-size="10.00">name = &quot;e14&quot;</text>
</g>
<!-- g8&#45;&#45;e19 -->
<g id="edge58" class="edge"><title>g8&#45;&#45;e19</title>
<path fill="none" stroke="black" d="M496.765,-824.839C482.959,-814.285 466.209,-799.785 454.435,-784 424.108,-743.341 407.435,-730.723 407.435,-680 407.435,-680 407.435,-680 407.435,-350 407.435,-294.133 448.09,-238.944 473.817,-209.613"/>
<text text-anchor="middle" x="471.171" y="-216.756" font-family="Times New Roman,serif" font-size="10.00">edges</text>
<text text-anchor="middle" x="487.016" y="-820.114" font-family="Times New Roman,serif" font-size="10.00">graph</text>
</g>
<!-- n20 -->
<g id="node20" class="node"><title>n20</title>
<polygon fill="none" stroke="black" points="494.435,-106 494.435,-123 555.435,-123 555.435,-106 494.435,-106"/>
<text text-anchor="start" x="502.935" y="-112.5" font-family="Times New Roman,serif" font-size="10.00"> </text>
<text text-anchor="start" x="505.935" y="-112.5" font-family="Times New Roman,serif" font-size="10.00">n20 :Node</text>
<polygon fill="none" stroke="black" points="494.435,-86 494.435,-106 555.435,-106 555.435,-86 494.435,-86"/>
<text text-anchor="start" x="499.435" y="-94" font-family="Times New Roman,serif" font-size="10.00">name = &quot;n5&quot;</text>
</g>
<!-- g8&#45;&#45;n20 -->
<g id="edge38" class="edge"><title>g8&#45;&#45;n20</title>
<path fill="none" stroke="black" d="M521.435,-824.974C521.435,-795.458 521.435,-732.875 521.435,-680 521.435,-680 521.435,-680 521.435,-596 521.435,-475.435 570.746,-448.343 563.435,-328 558.982,-254.706 559.385,-235.676 543.435,-164 540.719,-151.795 536.47,-138.519 532.678,-127.752"/>
<text text-anchor="middle" x="539.649" y="-132.422" font-family="Times New Roman,serif" font-size="10.00">nodes</text>
<text text-anchor="middle" x="517.209" y="-813.411" font-family="Times New Roman,serif" font-size="10.00">graph</text>
</g>
<!-- e21 -->
<g id="node21" class="node"><title>e21</title>
<polygon fill="none" stroke="black" points="346.435,-24 346.435,-41 411.435,-41 411.435,-24 346.435,-24"/>
<text text-anchor="start" x="357.935" y="-30.5" font-family="Times New Roman,serif" font-size="10.00"> </text>
<text text-anchor="start" x="360.935" y="-30.5" font-family="Times New Roman,serif" font-size="10.00">e21 :Edge</text>
<polygon fill="none" stroke="black" points="346.435,-4 346.435,-24 411.435,-24 411.435,-4 346.435,-4"/>
<text text-anchor="start" x="351.435" y="-12" font-family="Times New Roman,serif" font-size="10.00">name = &quot;e18&quot;</text>
</g>
<!-- g8&#45;&#45;e21 -->
<g id="edge46" class="edge"><title>g8&#45;&#45;e21</title>
<path fill="none" stroke="black" d="M488.925,-836.115C457.166,-828.845 409.236,-813.619 378.435,-784 341.873,-748.842 331.435,-730.723 331.435,-680 331.435,-680 331.435,-680 331.435,-186 331.435,-134.02 354.03,-76.2403 367.887,-45.693"/>
<text text-anchor="middle" x="368.096" y="-53.1909" font-family="Times New Roman,serif" font-size="10.00">edges</text>
<text text-anchor="middle" x="479.12" y="-835.58" font-family="Times New Roman,serif" font-size="10.00">graph</text>
</g>
<!-- e22 -->
<g id="node22" class="node"><title>e22</title>
<polygon fill="none" stroke="black" points="492.435,-24 492.435,-41 557.435,-41 557.435,-24 492.435,-24"/>
<text text-anchor="start" x="503.935" y="-30.5" font-family="Times New Roman,serif" font-size="10.00"> </text>
<text text-anchor="start" x="506.935" y="-30.5" font-family="Times New Roman,serif" font-size="10.00">e22 :Edge</text>
<polygon fill="none" stroke="black" points="492.435,-4 492.435,-24 557.435,-24 557.435,-4 492.435,-4"/>
<text text-anchor="start" x="497.435" y="-12" font-family="Times New Roman,serif" font-size="10.00">name = &quot;e15&quot;</text>
</g>
<!-- g8&#45;&#45;e22 -->
<g id="edge60" class="edge"><title>g8&#45;&#45;e22</title>
<path fill="none" stroke="black" d="M488.73,-829.819C466.557,-820.193 437.861,-804.889 418.435,-784 383.639,-746.583 369.435,-731.096 369.435,-680 369.435,-680 369.435,-680 369.435,-186 369.435,-119.633 438.189,-69.8095 484.115,-43.9319"/>
<text text-anchor="middle" x="478.455" y="-49.6758" font-family="Times New Roman,serif" font-size="10.00">edges</text>
<text text-anchor="middle" x="478.731" y="-827.473" font-family="Times New Roman,serif" font-size="10.00">graph</text>
</g>
<!-- e23 -->
<g id="node23" class="node"><title>e23</title>
<polygon fill="none" stroke="black" points="797.435,-24 797.435,-41 862.435,-41 862.435,-24 797.435,-24"/>
<text text-anchor="start" x="808.935" y="-30.5" font-family="Times New Roman,serif" font-size="10.00"> </text>
<text text-anchor="start" x="811.935" y="-30.5" font-family="Times New Roman,serif" font-size="10.00">e23 :Edge</text>
<polygon fill="none" stroke="black" points="797.435,-4 797.435,-24 862.435,-24 862.435,-4 797.435,-4"/>
<text text-anchor="start" x="802.435" y="-12" font-family="Times New Roman,serif" font-size="10.00">name = &quot;e19&quot;</text>
</g>
<!-- g8&#45;&#45;e23 -->
<g id="edge48" class="edge"><title>g8&#45;&#45;e23</title>
<path fill="none" stroke="black" d="M553.841,-842.505C650.575,-843.352 934.787,-840.848 1003.43,-784 1040.78,-753.071 1036.43,-728.493 1036.43,-680 1036.43,-680 1036.43,-680 1036.43,-186 1036.43,-102.26 930.079,-55.3342 869.838,-35.4711"/>
<text text-anchor="middle" x="879.789" y="-31.9874" font-family="Times New Roman,serif" font-size="10.00">edges</text>
<text text-anchor="middle" x="562.917" y="-835.806" font-family="Times New Roman,serif" font-size="10.00">graph</text>
</g>
<!-- n24 -->
<g id="node24" class="node"><title>n24</title>
<polygon fill="none" stroke="black" points="596.435,-762 596.435,-779 657.435,-779 657.435,-762 596.435,-762"/>
<text text-anchor="start" x="604.935" y="-768.5" font-family="Times New Roman,serif" font-size="10.00"> </text>
<text text-anchor="start" x="607.935" y="-768.5" font-family="Times New Roman,serif" font-size="10.00">n24 :Node</text>
<polygon fill="none" stroke="black" points="596.435,-742 596.435,-762 657.435,-762 657.435,-742 596.435,-742"/>
<text text-anchor="start" x="601.435" y="-750" font-family="Times New Roman,serif" font-size="10.00">name = &quot;n6&quot;</text>
</g>
<!-- g8&#45;&#45;n24 -->
<g id="edge40" class="edge"><title>g8&#45;&#45;n24</title>
<path fill="none" stroke="black" d="M543.96,-824.838C559.748,-812.809 580.974,-796.637 597.939,-783.711"/>
<text text-anchor="middle" x="593.291" y="-790.065" font-family="Times New Roman,serif" font-size="10.00">nodes</text>
<text text-anchor="middle" x="548.608" y="-813.484" font-family="Times New Roman,serif" font-size="10.00">graph</text>
</g>
<!-- n25 -->
<g id="node25" class="node"><title>n25</title>
<polygon fill="none" stroke="black" points="691.435,-762 691.435,-779 752.435,-779 752.435,-762 691.435,-762"/>
<text text-anchor="start" x="699.935" y="-768.5" font-family="Times New Roman,serif" font-size="10.00"> </text>
<text text-anchor="start" x="702.935" y="-768.5" font-family="Times New Roman,serif" font-size="10.00">n25 :Node</text>
<polygon fill="none" stroke="black" points="691.435,-742 691.435,-762 752.435,-762 752.435,-742 691.435,-742"/>
<text text-anchor="start" x="696.435" y="-750" font-family="Times New Roman,serif" font-size="10.00">name = &quot;n7&quot;</text>
</g>
<!-- g8&#45;&#45;n25 -->
<g id="edge42" class="edge"><title>g8&#45;&#45;n25</title>
<path fill="none" stroke="black" d="M553.702,-830.382C584.637,-819.08 632.542,-801.152 673.435,-784 676.562,-782.688 679.789,-781.296 683.02,-779.874"/>
<text text-anchor="middle" x="676.421" y="-784.888" font-family="Times New Roman,serif" font-size="10.00">nodes</text>
<text text-anchor="middle" x="560.755" y="-820.793" font-family="Times New Roman,serif" font-size="10.00">graph</text>
</g>
<!-- g8&#45;&#45;n9 -->
<g id="edge44" class="edge"><title>g8&#45;&#45;n9</title>
<path fill="none" stroke="black" d="M489.022,-837.33C436.344,-829.288 329.204,-811.04 241.435,-784 236.674,-782.533 231.751,-780.8 226.911,-778.961"/>
<text text-anchor="middle" x="236.883" y="-775.705" font-family="Times New Roman,serif" font-size="10.00">nodes</text>
<text text-anchor="middle" x="479.415" y="-837.604" font-family="Times New Roman,serif" font-size="10.00">graph</text>
</g>
<!-- e26 -->
<g id="node27" class="node"><title>e26</title>
<polygon fill="none" stroke="black" points="209.435,-680 209.435,-697 274.435,-697 274.435,-680 209.435,-680"/>
<text text-anchor="start" x="220.935" y="-686.5" font-family="Times New Roman,serif" font-size="10.00"> </text>
<text text-anchor="start" x="223.935" y="-686.5" font-family="Times New Roman,serif" font-size="10.00">e26 :Edge</text>
<polygon fill="none" stroke="black" points="209.435,-660 209.435,-680 274.435,-680 274.435,-660 209.435,-660"/>
<text text-anchor="start" x="214.435" y="-668" font-family="Times New Roman,serif" font-size="10.00">name = &quot;e16&quot;</text>
</g>
<!-- g8&#45;&#45;e26 -->
<g id="edge62" class="edge"><title>g8&#45;&#45;e26</title>
<path fill="none" stroke="black" d="M488.97,-839.315C446.224,-834.408 370.31,-820.826 317.435,-784 286.973,-762.784 264.06,-725.353 251.715,-701.657"/>
<text text-anchor="middle" x="259.723" y="-705.147" font-family="Times New Roman,serif" font-size="10.00">edges</text>
<text text-anchor="middle" x="479.447" y="-839.866" font-family="Times New Roman,serif" font-size="10.00">graph</text>
</g>
<!-- g8&#45;&#45;e10 -->
<g id="edge64" class="edge"><title>g8&#45;&#45;e10</title>
<path fill="none" stroke="black" d="M489.029,-841.397C438.44,-839.031 339.364,-828.545 270.435,-784 248.859,-770.056 255.157,-754.461 235.435,-738 213.528,-719.716 184.89,-705.174 161.799,-695.224"/>
<text text-anchor="middle" x="171.796" y="-692.513" font-family="Times New Roman,serif" font-size="10.00">edges</text>
<text text-anchor="middle" x="479.732" y="-842.581" font-family="Times New Roman,serif" font-size="10.00">graph</text>
</g>
<!-- n11&#45;&#45;e12 -->
<g id="edge66" class="edge"><title>n11&#45;&#45;e12</title>
<path fill="none" stroke="black" d="M902.75,-738.351C887.667,-726.967 869.229,-713.052 854.143,-701.666"/>
<text text-anchor="middle" x="863.923" y="-701.253" font-family="Times New Roman,serif" font-size="10.00">outEdges</text>
<text text-anchor="middle" x="892.97" y="-733.764" font-family="Times New Roman,serif" font-size="10.00">src</text>
</g>
<!-- n11&#45;&#45;e16 -->
<g id="edge68" class="edge"><title>n11&#45;&#45;e16</title>
<path fill="none" stroke="black" d="M931.654,-738.252C931.949,-707.158 932.435,-648.204 932.435,-598 932.435,-598 932.435,-598 932.435,-514 932.435,-463.797 932.435,-404.843 932.435,-373.749"/>
<text text-anchor="middle" x="936.661" y="-380.312" font-family="Times New Roman,serif" font-size="10.00">inEdges</text>
<text text-anchor="middle" x="927.512" y="-726.65" font-family="Times New Roman,serif" font-size="10.00">tgt</text>
</g>
<!-- e12&#45;&#45;n13 -->
<g id="edge70" class="edge"><title>e12&#45;&#45;n13</title>
<path fill="none" stroke="black" d="M815.871,-656.14C810.892,-644.759 804.825,-630.893 799.866,-619.557"/>
<text text-anchor="middle" x="807.37" y="-623.666" font-family="Times New Roman,serif" font-size="10.00">tgt</text>
<text text-anchor="middle" x="808.366" y="-647.03" font-family="Times New Roman,serif" font-size="10.00">inEdges</text>
</g>
<!-- n13&#45;&#45;e14 -->
<g id="edge72" class="edge"><title>n13&#45;&#45;e14</title>
<path fill="none" stroke="black" d="M790.435,-574.14C790.435,-562.759 790.435,-548.893 790.435,-537.557"/>
<text text-anchor="middle" x="794.661" y="-544.12" font-family="Times New Roman,serif" font-size="10.00">outEdges</text>
<text text-anchor="middle" x="786.209" y="-562.577" font-family="Times New Roman,serif" font-size="10.00">src</text>
</g>
<!-- e14&#45;&#45;n15 -->
<g id="edge74" class="edge"><title>e14&#45;&#45;n15</title>
<path fill="none" stroke="black" d="M749.955,-494.838C722.613,-481.895 686.739,-464.913 659.843,-452.181"/>
<text text-anchor="middle" x="669.843" y="-449.739" font-family="Times New Roman,serif" font-size="10.00">tgt</text>
<text text-anchor="middle" x="739.955" y="-492.28" font-family="Times New Roman,serif" font-size="10.00">inEdges</text>
</g>
<!-- n15&#45;&#45;e16 -->
<g id="edge76" class="edge"><title>n15&#45;&#45;e16</title>
<path fill="none" stroke="black" d="M659.881,-422.11C719.037,-406.893 831.838,-377.877 892.108,-362.373"/>
<text text-anchor="middle" x="884.384" y="-366.224" font-family="Times New Roman,serif" font-size="10.00">outEdges</text>
<text text-anchor="middle" x="667.606" y="-413.259" font-family="Times New Roman,serif" font-size="10.00">src</text>
</g>
<!-- n15&#45;&#45;e17 -->
<g id="edge78" class="edge"><title>n15&#45;&#45;e17</title>
<path fill="none" stroke="black" d="M592.479,-410.351C577.254,-398.967 558.642,-385.052 543.414,-373.666"/>
<text text-anchor="middle" x="553.203" y="-373.209" font-family="Times New Roman,serif" font-size="10.00">outEdges</text>
<text text-anchor="middle" x="582.69" y="-405.809" font-family="Times New Roman,serif" font-size="10.00">src</text>
</g>
<!-- n15&#45;&#45;e22 -->
<g id="edge80" class="edge"><title>n15&#45;&#45;e22</title>
<path fill="none" stroke="black" d="M621.435,-410.251C621.435,-379.157 621.435,-320.203 621.435,-270 621.435,-270 621.435,-270 621.435,-186 621.435,-128.961 576.623,-74.6192 547.916,-45.6589"/>
<text text-anchor="middle" x="557.238" y="-46.7781" font-family="Times New Roman,serif" font-size="10.00">inEdges</text>
<text text-anchor="middle" x="617.209" y="-398.688" font-family="Times New Roman,serif" font-size="10.00">tgt</text>
</g>
<!-- e17&#45;&#45;n18 -->
<g id="edge82" class="edge"><title>e17&#45;&#45;n18</title>
<path fill="none" stroke="black" d="M508.97,-328.14C506.124,-316.759 502.658,-302.893 499.824,-291.557"/>
<text text-anchor="middle" x="506.122" y="-296.824" font-family="Times New Roman,serif" font-size="10.00">tgt</text>
<text text-anchor="middle" x="502.671" y="-317.872" font-family="Times New Roman,serif" font-size="10.00">inEdges</text>
</g>
<!-- n18&#45;&#45;e19 -->
<g id="edge84" class="edge"><title>n18&#45;&#45;e19</title>
<path fill="none" stroke="black" d="M494.435,-246.14C494.435,-234.759 494.435,-220.893 494.435,-209.557"/>
<text text-anchor="middle" x="498.661" y="-216.12" font-family="Times New Roman,serif" font-size="10.00">outEdges</text>
<text text-anchor="middle" x="490.209" y="-234.577" font-family="Times New Roman,serif" font-size="10.00">src</text>
</g>
<!-- e19&#45;&#45;n20 -->
<g id="edge86" class="edge"><title>e19&#45;&#45;n20</title>
<path fill="none" stroke="black" d="M502.632,-164.14C506.9,-152.759 512.1,-138.893 516.351,-127.557"/>
<text text-anchor="middle" x="517.126" y="-135.027" font-family="Times New Roman,serif" font-size="10.00">tgt</text>
<text text-anchor="middle" x="501.857" y="-151.67" font-family="Times New Roman,serif" font-size="10.00">inEdges</text>
</g>
<!-- n20&#45;&#45;e21 -->
<g id="edge88" class="edge"><title>n20&#45;&#45;e21</title>
<path fill="none" stroke="black" d="M486.075,-82.9809C465.038,-71.4537 439.004,-57.1886 417.809,-45.575"/>
<text text-anchor="middle" x="427.788" y="-43.7239" font-family="Times New Roman,serif" font-size="10.00">outEdges</text>
<text text-anchor="middle" x="476.096" y="-79.8321" font-family="Times New Roman,serif" font-size="10.00">src</text>
</g>
<!-- n20&#45;&#45;e22 -->
<g id="edge90" class="edge"><title>n20&#45;&#45;e22</title>
<path fill="none" stroke="black" d="M524.435,-82.1396C524.435,-70.759 524.435,-56.8929 524.435,-45.5569"/>
<text text-anchor="middle" x="528.661" y="-52.12" font-family="Times New Roman,serif" font-size="10.00">outEdges</text>
<text text-anchor="middle" x="520.209" y="-70.5766" font-family="Times New Roman,serif" font-size="10.00">src</text>
</g>
<!-- n20&#45;&#45;e23 -->
<g id="edge92" class="edge"><title>n20&#45;&#45;e23</title>
<path fill="none" stroke="black" d="M562.754,-93.9489C620.672,-78.7574 730.002,-50.0807 789.092,-34.5818"/>
<text text-anchor="middle" x="781.397" y="-38.4691" font-family="Times New Roman,serif" font-size="10.00">inEdges</text>
<text text-anchor="middle" x="570.449" y="-85.0616" font-family="Times New Roman,serif" font-size="10.00">tgt</text>
</g>
<!-- n9&#45;&#45;e26 -->
<g id="edge94" class="edge"><title>n9&#45;&#45;e26</title>
<path fill="none" stroke="black" d="M202.917,-738.14C210.457,-726.759 219.643,-712.893 227.153,-701.557"/>
<text text-anchor="middle" x="225.671" y="-708.946" font-family="Times New Roman,serif" font-size="10.00">outEdges_inEdges</text>
<text text-anchor="middle" x="204.399" y="-725.75" font-family="Times New Roman,serif" font-size="10.00">src_tgt</text>
</g>
<!-- n9&#45;&#45;e10 -->
<g id="edge96" class="edge"><title>n9&#45;&#45;e10</title>
<path fill="none" stroke="black" d="M170.127,-738.14C160.595,-726.759 148.983,-712.893 139.489,-701.557"/>
<text text-anchor="middle" x="148.548" y="-703.292" font-family="Times New Roman,serif" font-size="10.00">outEdges_inEdges</text>
<text text-anchor="middle" x="161.068" y="-731.405" font-family="Times New Roman,serif" font-size="10.00">src_tgt</text>
</g>
</g>
</svg>
