<?xml version="1.0" encoding="UTF-8" standalone="no"?>
<!DOCTYPE svg PUBLIC "-//W3C//DTD SVG 1.1//EN"
 "http://www.w3.org/Graphics/SVG/1.1/DTD/svg11.dtd">
<!-- Generated by graphviz version 2.28.0 (20110507.0327)
 -->
<!-- Title: ObjectDiagram Pages: 1 -->
<svg width="302pt" height="560pt"
 viewBox="0.00 0.00 302.00 560.00" xmlns="http://www.w3.org/2000/svg" xmlns:xlink="http://www.w3.org/1999/xlink">
<g id="graph1" class="graph" transform="scale(1 1) rotate(0) translate(4 556)">
<title>ObjectDiagram</title>
<polygon fill="white" stroke="white" points="-4,5 -4,-556 299,-556 299,5 -4,5"/>
<!-- g1 -->
<g id="node1" class="node"><title>g1</title>
<polygon fill="aliceblue" stroke="aliceblue" points="43,-496.5 43,-547.5 103,-547.5 103,-496.5 43,-496.5"/>
<text text-anchor="start" x="71" y="-537.5" font-family="Times New Roman,serif" font-size="10.00">«bound»</text>
<polygon fill="none" stroke="black" points="43,-516 43,-532 103,-532 103,-516 43,-516"/>
<text text-anchor="start" x="46.5" y="-522" font-family="Times New Roman,serif" font-size="10.00"> </text>
<text text-anchor="start" x="49.5" y="-522" font-family="Times New Roman,serif" font-size="10.00"> g1 :GraphPO </text>
<polygon fill="none" stroke="black" points="43,-496 43,-516 103,-516 103,-496 43,-496"/>
<text text-anchor="start" x="70.5" y="-504" font-family="Times New Roman,serif" font-size="10.00"> &#160;</text>
</g>
<!-- n2 -->
<g id="node2" class="node"><title>n2</title>
<polygon fill="aliceblue" stroke="aliceblue" points="44,-414.5 44,-451.5 102,-451.5 102,-414.5 44,-414.5"/>
<polygon fill="none" stroke="black" points="44,-434 44,-451 102,-451 102,-434 44,-434"/>
<text text-anchor="start" x="47.5" y="-440.5" font-family="Times New Roman,serif" font-size="10.00"> </text>
<text text-anchor="start" x="50.5" y="-440.5" font-family="Times New Roman,serif" font-size="10.00"> n2 :NodePO </text>
<polygon fill="none" stroke="black" points="44,-414 44,-434 102,-434 102,-414 44,-414"/>
<text text-anchor="start" x="70.5" y="-422" font-family="Times New Roman,serif" font-size="10.00"> &#160;</text>
</g>
<!-- g1&#45;&#45;n2 -->
<g id="edge2" class="edge"><title>g1&#45;&#45;n2</title>
<path fill="none" stroke="black" d="M73,-492.03C73,-480.167 73,-466.675 73,-455.687"/>
<text text-anchor="middle" x="77.2262" y="-462.25" font-family="Times New Roman,serif" font-size="10.00">nodes</text>
</g>
<!-- e3 -->
<g id="node3" class="node"><title>e3</title>
<polygon fill="aliceblue" stroke="aliceblue" points="8.5,-332.5 8.5,-369.5 69.5,-369.5 69.5,-332.5 8.5,-332.5"/>
<polygon fill="none" stroke="black" points="9,-352 9,-369 70,-369 70,-352 9,-352"/>
<text text-anchor="start" x="12.5" y="-358.5" font-family="Times New Roman,serif" font-size="10.00"> </text>
<text text-anchor="start" x="15.5" y="-358.5" font-family="Times New Roman,serif" font-size="10.00"> e3 :EdgePO </text>
<polygon fill="none" stroke="black" points="9,-332 9,-352 70,-352 70,-332 9,-332"/>
<text text-anchor="start" x="37" y="-340" font-family="Times New Roman,serif" font-size="10.00"> &#160;</text>
</g>
<!-- n2&#45;&#45;e3 -->
<g id="edge4" class="edge"><title>n2&#45;&#45;e3</title>
<path fill="none" stroke="black" d="M63.7094,-410.14C58.8726,-398.759 52.9795,-384.893 48.1617,-373.557"/>
<text text-anchor="middle" x="55.5961" y="-377.745" font-family="Times New Roman,serif" font-size="10.00">outEdges</text>
</g>
<!-- n4 -->
<g id="node4" class="node"><title>n4</title>
<polygon fill="aliceblue" stroke="aliceblue" points="7.5,-250.5 7.5,-287.5 70.5,-287.5 70.5,-250.5 7.5,-250.5"/>
<polygon fill="none" stroke="black" points="8,-270 8,-287 71,-287 71,-270 8,-270"/>
<text text-anchor="start" x="11.5" y="-276.5" font-family="Times New Roman,serif" font-size="10.00"> </text>
<text text-anchor="start" x="14.5" y="-276.5" font-family="Times New Roman,serif" font-size="10.00"> n4 :NodePO </text>
<polygon fill="none" stroke="black" points="8,-250 8,-270 71,-270 71,-250 8,-250"/>
<text text-anchor="start" x="37" y="-258" font-family="Times New Roman,serif" font-size="10.00"> &#160;</text>
</g>
<!-- e3&#45;&#45;n4 -->
<g id="edge6" class="edge"><title>e3&#45;&#45;n4</title>
<path fill="none" stroke="black" d="M39,-328.14C39,-316.759 39,-302.893 39,-291.557"/>
<text text-anchor="middle" x="43.2262" y="-298.12" font-family="Times New Roman,serif" font-size="10.00">tgt</text>
</g>
<!-- e5 -->
<g id="node5" class="node"><title>e5</title>
<polygon fill="aliceblue" stroke="aliceblue" points="9.5,-168.5 9.5,-205.5 70.5,-205.5 70.5,-168.5 9.5,-168.5"/>
<polygon fill="none" stroke="black" points="10,-188 10,-205 71,-205 71,-188 10,-188"/>
<text text-anchor="start" x="13.5" y="-194.5" font-family="Times New Roman,serif" font-size="10.00"> </text>
<text text-anchor="start" x="16.5" y="-194.5" font-family="Times New Roman,serif" font-size="10.00"> e5 :EdgePO </text>
<polygon fill="none" stroke="black" points="10,-168 10,-188 71,-188 71,-168 10,-168"/>
<text text-anchor="start" x="38" y="-176" font-family="Times New Roman,serif" font-size="10.00"> &#160;</text>
</g>
<!-- n4&#45;&#45;e5 -->
<g id="edge8" class="edge"><title>n4&#45;&#45;e5</title>
<path fill="none" stroke="black" d="M39.2733,-246.14C39.4155,-234.759 39.5888,-220.893 39.7305,-209.557"/>
<text text-anchor="middle" x="43.8431" y="-216.172" font-family="Times New Roman,serif" font-size="10.00">outEdges</text>
</g>
<!-- n6 -->
<g id="node6" class="node"><title>n6</title>
<polygon fill="aliceblue" stroke="aliceblue" points="12,-86.5 12,-123.5 70,-123.5 70,-86.5 12,-86.5"/>
<polygon fill="none" stroke="black" points="12,-106 12,-123 70,-123 70,-106 12,-106"/>
<text text-anchor="start" x="15.5" y="-112.5" font-family="Times New Roman,serif" font-size="10.00"> </text>
<text text-anchor="start" x="18.5" y="-112.5" font-family="Times New Roman,serif" font-size="10.00"> n6 :NodePO </text>
<polygon fill="none" stroke="black" points="12,-86 12,-106 70,-106 70,-86 12,-86"/>
<text text-anchor="start" x="38.5" y="-94" font-family="Times New Roman,serif" font-size="10.00"> &#160;</text>
</g>
<!-- e5&#45;&#45;n6 -->
<g id="edge10" class="edge"><title>e5&#45;&#45;n6</title>
<path fill="none" stroke="black" d="M40.2733,-164.14C40.4155,-152.759 40.5888,-138.893 40.7305,-127.557"/>
<text text-anchor="middle" x="44.8431" y="-134.172" font-family="Times New Roman,serif" font-size="10.00">tgt</text>
</g>
<!-- e7 -->
<g id="node7" class="node"><title>e7</title>
<polygon fill="aliceblue" stroke="aliceblue" points="46,-4.5 46,-41.5 102,-41.5 102,-4.5 46,-4.5"/>
<polygon fill="none" stroke="black" points="46,-24 46,-41 102,-41 102,-24 46,-24"/>
<text text-anchor="start" x="49.5" y="-30.5" font-family="Times New Roman,serif" font-size="10.00"> </text>
<text text-anchor="start" x="52.5" y="-30.5" font-family="Times New Roman,serif" font-size="10.00"> e7 :EdgePO </text>
<polygon fill="none" stroke="black" points="46,-4 46,-24 102,-24 102,-4 46,-4"/>
<text text-anchor="start" x="71.5" y="-12" font-family="Times New Roman,serif" font-size="10.00"> &#160;</text>
</g>
<!-- n6&#45;&#45;e7 -->
<g id="edge12" class="edge"><title>n6&#45;&#45;e7</title>
<path fill="none" stroke="black" d="M50.0174,-82.1396C54.7119,-70.759 60.4317,-56.8929 65.1078,-45.5569"/>
<text text-anchor="middle" x="65.5586" y="-53.0468" font-family="Times New Roman,serif" font-size="10.00">outEdges</text>
</g>
<!-- e7&#45;&#45;n2 -->
<g id="edge14" class="edge"><title>e7&#45;&#45;n2</title>
<path fill="none" stroke="black" d="M81.3238,-45.7241C91.0458,-76.5462 107,-134.909 107,-186 107,-270 107,-270 107,-270 107,-321.153 90.5624,-379.492 80.5457,-410.293"/>
<text text-anchor="middle" x="79.251" y="-397.877" font-family="Times New Roman,serif" font-size="10.00">tgt</text>
</g>
<!-- matchIsomorphic -->
<g id="node8" class="node"><title>matchIsomorphic</title>
<text text-anchor="middle" x="172" y="-519.5" font-family="Times New Roman,serif" font-size="10.00">matchIsomorphic</text>
</g>
<!-- allMatches -->
<g id="node9" class="node"><title>allMatches</title>
<text text-anchor="middle" x="264" y="-519.5" font-family="Times New Roman,serif" font-size="10.00">allMatches</text>
</g>
</g>
</svg>
