<?xml version="1.0" encoding="UTF-8" standalone="no"?>
<!DOCTYPE svg PUBLIC "-//W3C//DTD SVG 1.1//EN"
 "http://www.w3.org/Graphics/SVG/1.1/DTD/svg11.dtd">
<!-- Generated by graphviz version 2.28.0 (20110507.0327)
 -->
<!-- Title: TaskFlowDiagram Pages: 1 -->
<svg width="816pt" height="207pt"
 viewBox="0.00 0.00 816.00 207.00" xmlns="http://www.w3.org/2000/svg" xmlns:xlink="http://www.w3.org/1999/xlink">
<g id="graph1" class="graph" transform="scale(1 1) rotate(0) translate(4 203)">
<title>TaskFlowDiagram</title>
<polygon fill="white" stroke="white" points="-4,5 -4,-203 813,-203 813,5 -4,5"/>
<g id="graph2" class="cluster"><title>clustertobi</title>
<polygon fill="lightgrey" stroke="lightgrey" points="8,-8 8,-191 240,-191 240,-8 8,-8"/>
<text text-anchor="middle" x="124" y="-175.8" font-family="Times New Roman,serif" font-size="14.00">tobi</text>
</g>
<g id="graph3" class="cluster"><title>clusterchatServer</title>
<polygon fill="lightgrey" stroke="lightgrey" points="260,-22 260,-151 546,-151 546,-22 260,-22"/>
<text text-anchor="middle" x="403" y="-135.8" font-family="Times New Roman,serif" font-size="14.00">chatServer</text>
</g>
<g id="graph4" class="cluster"><title>clusternina</title>
<polygon fill="lightgrey" stroke="lightgrey" points="566,-22 566,-97 800,-97 800,-22 566,-22"/>
<text text-anchor="middle" x="683" y="-81.8" font-family="Times New Roman,serif" font-size="14.00">nina</text>
</g>
<!-- tobi_HandelClick -->
<g id="node2" class="node"><title>tobi_HandelClick</title>
<ellipse fill="none" stroke="black" cx="124" cy="-142" rx="74.187" ry="18"/>
<text text-anchor="middle" x="124" y="-138.3" font-family="Times New Roman,serif" font-size="14.00">tobi_HandelClick</text>
</g>
<!-- chatServer_ServerHandelMessage -->
<g id="node6" class="node"><title>chatServer_ServerHandelMessage</title>
<ellipse fill="none" stroke="black" cx="403" cy="-102" rx="134.576" ry="18"/>
<text text-anchor="middle" x="403" y="-98.3" font-family="Times New Roman,serif" font-size="14.00">chatServer_ServerHandelMessage</text>
</g>
<!-- tobi_HandelClick&#45;&gt;chatServer_ServerHandelMessage -->
<g id="edge5" class="edge"><title>tobi_HandelClick&#45;&gt;chatServer_ServerHandelMessage</title>
<path fill="none" stroke="black" d="M188.202,-132.873C221.548,-128.058 263.262,-122.034 300.968,-116.589"/>
<polygon fill="black" stroke="black" points="301.575,-120.038 310.972,-115.145 300.574,-113.11 301.575,-120.038"/>
</g>
<!-- tobi_ClientHandelMessage -->
<g id="node3" class="node"><title>tobi_ClientHandelMessage</title>
<ellipse fill="none" stroke="black" cx="124" cy="-88" rx="107.781" ry="18"/>
<text text-anchor="middle" x="124" y="-84.3" font-family="Times New Roman,serif" font-size="14.00">tobi_ClientHandelMessage</text>
</g>
<!-- chatServer_ServerReceiveRoger -->
<g id="node7" class="node"><title>chatServer_ServerReceiveRoger</title>
<ellipse fill="none" stroke="black" cx="403" cy="-48" rx="128.877" ry="18"/>
<text text-anchor="middle" x="403" y="-44.3" font-family="Times New Roman,serif" font-size="14.00">chatServer_ServerReceiveRoger</text>
</g>
<!-- tobi_ClientHandelMessage&#45;&gt;chatServer_ServerReceiveRoger -->
<g id="edge9" class="edge"><title>tobi_ClientHandelMessage&#45;&gt;chatServer_ServerReceiveRoger</title>
<path fill="none" stroke="black" d="M206.237,-76.269C236.344,-71.9215 270.831,-66.9414 302.388,-62.3845"/>
<polygon fill="black" stroke="black" points="303.124,-65.8145 312.521,-60.9212 302.123,-58.8864 303.124,-65.8145"/>
</g>
<!-- tobi_ClientReceiveRoger -->
<g id="node4" class="node"><title>tobi_ClientReceiveRoger</title>
<ellipse fill="none" stroke="black" cx="124" cy="-34" rx="102.082" ry="18"/>
<text text-anchor="middle" x="124" y="-30.3" font-family="Times New Roman,serif" font-size="14.00">tobi_ClientReceiveRoger</text>
</g>
<!-- chatServer_ServerHandelMessage&#45;&gt;tobi_ClientHandelMessage -->
<g id="edge7" class="edge"><title>chatServer_ServerHandelMessage&#45;&gt;tobi_ClientHandelMessage</title>
<path fill="none" stroke="black" d="M276.581,-95.6611C263.583,-95.0042 250.429,-94.3394 237.584,-93.6902"/>
<polygon fill="black" stroke="black" points="237.522,-90.1826 227.358,-93.1733 237.168,-97.1737 237.522,-90.1826"/>
</g>
<!-- chatServer_ServerReceiveRoger&#45;&gt;tobi_ClientReceiveRoger -->
<g id="edge15" class="edge"><title>chatServer_ServerReceiveRoger&#45;&gt;tobi_ClientReceiveRoger</title>
<path fill="none" stroke="black" d="M281.609,-41.9153C265.342,-41.0931 248.736,-40.2538 232.709,-39.4438"/>
<polygon fill="black" stroke="black" points="232.434,-35.9255 222.27,-38.9162 232.081,-42.9166 232.434,-35.9255"/>
</g>
<!-- nina_ClientHandelMessage -->
<g id="node9" class="node"><title>nina_ClientHandelMessage</title>
<ellipse fill="none" stroke="black" cx="683" cy="-48" rx="108.581" ry="18"/>
<text text-anchor="middle" x="683" y="-44.3" font-family="Times New Roman,serif" font-size="14.00">nina_ClientHandelMessage</text>
</g>
<!-- chatServer_ServerReceiveRoger&#45;&gt;nina_ClientHandelMessage -->
<g id="edge11" class="edge"><title>chatServer_ServerReceiveRoger&#45;&gt;nina_ClientHandelMessage</title>
<path fill="none" stroke="black" d="M522.703,-54.6856C538.804,-54.7884 555.277,-54.7681 571.231,-54.6247"/>
<polygon fill="black" stroke="black" points="571.669,-58.1203 581.631,-54.5128 571.594,-51.1207 571.669,-58.1203"/>
</g>
<!-- nina_ClientHandelMessage&#45;&gt;chatServer_ServerReceiveRoger -->
<g id="edge13" class="edge"><title>nina_ClientHandelMessage&#45;&gt;chatServer_ServerReceiveRoger</title>
<path fill="none" stroke="black" d="M581.631,-41.4872C565.797,-41.288 549.237,-41.2143 532.865,-41.266"/>
<polygon fill="black" stroke="black" points="532.687,-37.7667 522.703,-41.3144 532.72,-44.7666 532.687,-37.7667"/>
</g>
</g>
</svg>
