<?xml version="1.0" encoding="UTF-8" standalone="no"?>
<!DOCTYPE svg PUBLIC "-//W3C//DTD SVG 1.1//EN"
 "http://www.w3.org/Graphics/SVG/1.1/DTD/svg11.dtd">
<!-- Generated by graphviz version 2.28.0 (20110507.0327)
 -->
<!-- Title: TaskFlowDiagram Pages: 1 -->
<svg width="530pt" height="265pt"
 viewBox="0.00 0.00 530.00 265.00" xmlns="http://www.w3.org/2000/svg" xmlns:xlink="http://www.w3.org/1999/xlink">
<g id="graph1" class="graph" transform="scale(1 1) rotate(0) translate(4 261)">
<title>TaskFlowDiagram</title>
<polygon fill="white" stroke="white" points="-4,5 -4,-261 527,-261 527,5 -4,5"/>
<g id="graph2" class="cluster"><title>clusterAlbert</title>
<polygon fill="lightgrey" stroke="lightgrey" points="8,-174 8,-249 514,-249 514,-174 8,-174"/>
<text text-anchor="middle" x="261" y="-233.8" font-family="Times New Roman,serif" font-size="14.00">Albert</text>
</g>
<g id="graph3" class="cluster"><title>clusterchatServer</title>
<polygon fill="lightgrey" stroke="lightgrey" points="67,-91 67,-166 453,-166 453,-91 67,-91"/>
<text text-anchor="middle" x="260" y="-150.8" font-family="Times New Roman,serif" font-size="14.00">chatServer</text>
</g>
<g id="graph4" class="cluster"><title>clusterNina</title>
<polygon fill="lightgrey" stroke="lightgrey" points="69,-8 69,-83 447,-83 447,-8 69,-8"/>
<text text-anchor="middle" x="258" y="-67.8" font-family="Times New Roman,serif" font-size="14.00">Nina</text>
</g>
<!-- Albert_HandleClick -->
<g id="node2" class="node"><title>Albert_HandleClick</title>
<ellipse fill="none" stroke="black" cx="451" cy="-200" rx="55.3682" ry="18"/>
<text text-anchor="middle" x="451" y="-196.3" font-family="Times New Roman,serif" font-size="14.00">HandleClick</text>
</g>
<!-- chatServer_ServerHandleMessage -->
<g id="node6" class="node"><title>chatServer_ServerHandleMessage</title>
<ellipse fill="none" stroke="black" cx="354" cy="-117" rx="90.4879" ry="18"/>
<text text-anchor="middle" x="354" y="-113.3" font-family="Times New Roman,serif" font-size="14.00">ServerHandleMessage</text>
</g>
<!-- Albert_HandleClick&#45;&gt;chatServer_ServerHandleMessage -->
<g id="edge5" class="edge"><title>Albert_HandleClick&#45;&gt;chatServer_ServerHandleMessage</title>
<path fill="none" stroke="black" d="M431.836,-182.997C417.637,-171.14 398.064,-154.796 382.099,-141.464"/>
<polygon fill="black" stroke="black" points="384.045,-138.529 374.126,-134.806 379.558,-143.902 384.045,-138.529"/>
</g>
<!-- Albert_ClientHandleMessage -->
<g id="node3" class="node"><title>Albert_ClientHandleMessage</title>
<ellipse fill="none" stroke="black" cx="289" cy="-200" rx="89.0632" ry="18"/>
<text text-anchor="middle" x="289" y="-196.3" font-family="Times New Roman,serif" font-size="14.00">ClientHandleMessage</text>
</g>
<!-- chatServer_ServerReceiveRoger -->
<g id="node7" class="node"><title>chatServer_ServerReceiveRoger</title>
<ellipse fill="none" stroke="black" cx="160" cy="-117" rx="85.2138" ry="18"/>
<text text-anchor="middle" x="160" y="-113.3" font-family="Times New Roman,serif" font-size="14.00">ServerReceiveRoger</text>
</g>
<!-- Albert_ClientHandleMessage&#45;&gt;chatServer_ServerReceiveRoger -->
<g id="edge11" class="edge"><title>Albert_ClientHandleMessage&#45;&gt;chatServer_ServerReceiveRoger</title>
<path fill="none" stroke="black" d="M262.895,-182.608C243.224,-170.257 216.063,-153.202 194.585,-139.716"/>
<polygon fill="black" stroke="black" points="196.396,-136.721 186.066,-134.367 192.674,-142.649 196.396,-136.721"/>
</g>
<!-- Albert_ClientReceiveRoger -->
<g id="node4" class="node"><title>Albert_ClientReceiveRoger</title>
<ellipse fill="none" stroke="black" cx="99" cy="-200" rx="83.2892" ry="18"/>
<text text-anchor="middle" x="99" y="-196.3" font-family="Times New Roman,serif" font-size="14.00">ClientReceiveRoger</text>
</g>
<!-- chatServer_ServerHandleMessage&#45;&gt;Albert_ClientHandleMessage -->
<g id="edge9" class="edge"><title>chatServer_ServerHandleMessage&#45;&gt;Albert_ClientHandleMessage</title>
<path fill="none" stroke="black" d="M340.458,-134.876C331.402,-146.161 319.325,-161.21 309.148,-173.893"/>
<polygon fill="black" stroke="black" points="306.314,-171.832 302.785,-181.822 311.773,-176.213 306.314,-171.832"/>
</g>
<!-- Nina_ClientHandleMessage -->
<g id="node9" class="node"><title>Nina_ClientHandleMessage</title>
<ellipse fill="none" stroke="black" cx="350" cy="-34" rx="89.0632" ry="18"/>
<text text-anchor="middle" x="350" y="-30.3" font-family="Times New Roman,serif" font-size="14.00">ClientHandleMessage</text>
</g>
<!-- chatServer_ServerHandleMessage&#45;&gt;Nina_ClientHandleMessage -->
<g id="edge7" class="edge"><title>chatServer_ServerHandleMessage&#45;&gt;Nina_ClientHandleMessage</title>
<path fill="none" stroke="black" d="M353.152,-98.822C352.627,-88.1903 351.941,-74.306 351.343,-62.2035"/>
<polygon fill="black" stroke="black" points="354.836,-61.9684 350.847,-52.1533 347.845,-62.3137 354.836,-61.9684"/>
</g>
<!-- chatServer_ServerReceiveRoger&#45;&gt;Albert_ClientReceiveRoger -->
<g id="edge17" class="edge"><title>chatServer_ServerReceiveRoger&#45;&gt;Albert_ClientReceiveRoger</title>
<path fill="none" stroke="black" d="M147.291,-134.876C138.873,-146.054 127.675,-160.924 118.181,-173.53"/>
<polygon fill="black" stroke="black" points="115.156,-171.728 111.937,-181.822 120.748,-175.939 115.156,-171.728"/>
</g>
<!-- Nina_ClientReceiveRoger -->
<g id="node10" class="node"><title>Nina_ClientReceiveRoger</title>
<ellipse fill="none" stroke="black" cx="160" cy="-34" rx="83.2892" ry="18"/>
<text text-anchor="middle" x="160" y="-30.3" font-family="Times New Roman,serif" font-size="14.00">ClientReceiveRoger</text>
</g>
<!-- chatServer_ServerReceiveRoger&#45;&gt;Nina_ClientReceiveRoger -->
<g id="edge15" class="edge"><title>chatServer_ServerReceiveRoger&#45;&gt;Nina_ClientReceiveRoger</title>
<path fill="none" stroke="black" d="M160,-98.822C160,-88.1903 160,-74.306 160,-62.2035"/>
<polygon fill="black" stroke="black" points="163.5,-62.1532 160,-52.1533 156.5,-62.1533 163.5,-62.1532"/>
</g>
<!-- Nina_ClientHandleMessage&#45;&gt;chatServer_ServerReceiveRoger -->
<g id="edge13" class="edge"><title>Nina_ClientHandleMessage&#45;&gt;chatServer_ServerReceiveRoger</title>
<path fill="none" stroke="black" d="M319.509,-51.0221C300.37,-60.8059 275.034,-73.2633 252,-83 239.67,-88.2121 226.202,-93.3457 213.469,-97.9542"/>
<polygon fill="black" stroke="black" points="212.147,-94.7098 203.906,-101.369 214.501,-101.302 212.147,-94.7098"/>
</g>
</g>
</svg>
