<?xml version="1.0" encoding="UTF-8" standalone="no"?>
<!DOCTYPE svg PUBLIC "-//W3C//DTD SVG 1.1//EN"
 "http://www.w3.org/Graphics/SVG/1.1/DTD/svg11.dtd">
<!-- Generated by graphviz version 2.28.0 (20110507.0327)
 -->
<!-- Title: ObjectDiagram Pages: 1 -->
<svg width="1292pt" height="1178pt"
 viewBox="0.00 0.00 1292.00 1178.00" xmlns="http://www.w3.org/2000/svg" xmlns:xlink="http://www.w3.org/1999/xlink">
<g id="graph1" class="graph" transform="scale(1 1) rotate(0) translate(4 1174)">
<title>ObjectDiagram</title>
<polygon fill="white" stroke="white" points="-4,5 -4,-1174 1289,-1174 1289,5 -4,5"/>
<!-- g1 -->
<g id="node1" class="node"><title>g1</title>
<polygon fill="none" stroke="black" points="1011,-1148 1011,-1165 1102,-1165 1102,-1148 1011,-1148"/>
<text text-anchor="start" x="1014.5" y="-1154.5" font-family="Times New Roman,serif" font-size="10.00"> </text>
<text text-anchor="start" x="1017.5" y="-1154.5" font-family="Times New Roman,serif" font-size="10.00">g1 :GenericGraphPO</text>
<polygon fill="none" stroke="black" points="1011,-1128 1011,-1148 1102,-1148 1102,-1128 1011,-1128"/>
<text text-anchor="start" x="1017.5" y="-1136" font-family="Times New Roman,serif" font-size="10.00">modifier = &quot;bound&quot;</text>
</g>
<!-- g2 -->
<g id="node2" class="node"><title>g2</title>
<polygon fill="none" stroke="black" points="1063,-611 1063,-628 1142,-628 1142,-611 1063,-611"/>
<text text-anchor="start" x="1066.5" y="-617.5" font-family="Times New Roman,serif" font-size="10.00"> </text>
<text text-anchor="start" x="1069.5" y="-617.5" font-family="Times New Roman,serif" font-size="10.00">g2 :GenericGraph</text>
</g>
<!-- g1&#45;&#45;g2 -->
<g id="edge34" class="edge"><title>g1&#45;&#45;g2</title>
<path fill="none" stroke="black" d="M1067.1,-1124.43C1072.25,-1113.71 1078.08,-1100.42 1082,-1088 1096.17,-1043.11 1102,-1031.07 1102,-984 1102,-984 1102,-984 1102,-811 1102,-747.172 1102,-671.282 1102,-638.032"/>
<text text-anchor="middle" x="1106.23" y="-644.595" font-family="Times New Roman,serif" font-size="10.00">currentMatch</text>
</g>
<!-- p12 -->
<g id="node12" class="node"><title>p12</title>
<polygon fill="none" stroke="black" points="955,-1066 955,-1083 1066,-1083 1066,-1066 955,-1066"/>
<text text-anchor="start" x="976.5" y="-1072.5" font-family="Times New Roman,serif" font-size="10.00"> </text>
<text text-anchor="start" x="979.5" y="-1072.5" font-family="Times New Roman,serif" font-size="10.00">p12 :PatternLink</text>
<polygon fill="none" stroke="black" points="955,-1046 955,-1066 1066,-1066 1066,-1046 955,-1046"/>
<text text-anchor="start" x="960.5" y="-1054" font-family="Times New Roman,serif" font-size="10.00">tgtRoleName = &quot;objects&quot;</text>
</g>
<!-- g1&#45;&#45;p12 -->
<g id="edge36" class="edge"><title>g1&#45;&#45;p12</title>
<path fill="none" stroke="black" d="M1043.43,-1124.14C1036.89,-1112.76 1028.91,-1098.89 1022.4,-1087.56"/>
<text text-anchor="middle" x="1030.58" y="-1090.81" font-family="Times New Roman,serif" font-size="10.00">outgoing</text>
<text text-anchor="middle" x="1035.25" y="-1115.89" font-family="Times New Roman,serif" font-size="10.00">src</text>
</g>
<!-- g3 -->
<g id="node3" class="node"><title>g3</title>
<polygon fill="none" stroke="black" points="935,-532 935,-549 1134,-549 1134,-532 935,-532"/>
<text text-anchor="start" x="997.5" y="-538.5" font-family="Times New Roman,serif" font-size="10.00"> </text>
<text text-anchor="start" x="1000.5" y="-538.5" font-family="Times New Roman,serif" font-size="10.00">g3 :GenericObject</text>
<polygon fill="none" stroke="black" points="935,-498 935,-532 1134,-532 1134,-498 935,-498"/>
<text text-anchor="start" x="1003" y="-520" font-family="Times New Roman,serif" font-size="10.00">name = &quot;g1.G1&quot;</text>
<text text-anchor="start" x="940.5" y="-506" font-family="Times New Roman,serif" font-size="10.00">type = &quot;org.sdmlib.examples.helloworld.Graph&quot;</text>
</g>
<!-- g2&#45;&#45;g3 -->
<g id="edge52" class="edge"><title>g2&#45;&#45;g3</title>
<path fill="none" stroke="black" d="M1089.53,-601.759C1079.79,-588.296 1066.05,-569.3 1054.67,-553.574"/>
<text text-anchor="middle" x="1063.41" y="-555.94" font-family="Times New Roman,serif" font-size="10.00">objects</text>
<text text-anchor="middle" x="1080.79" y="-594.393" font-family="Times New Roman,serif" font-size="10.00">graph</text>
</g>
<!-- g4 -->
<g id="node4" class="node"><title>g4</title>
<polygon fill="none" stroke="black" points="1018,-436 1018,-453 1106,-453 1106,-436 1018,-436"/>
<text text-anchor="start" x="1029.5" y="-442.5" font-family="Times New Roman,serif" font-size="10.00"> </text>
<text text-anchor="start" x="1032.5" y="-442.5" font-family="Times New Roman,serif" font-size="10.00">g4 :GenericLink</text>
<polygon fill="none" stroke="black" points="1018,-402 1018,-436 1106,-436 1106,-402 1018,-402"/>
<text text-anchor="start" x="1023.5" y="-424" font-family="Times New Roman,serif" font-size="10.00">tgtLabel = &quot;nodes&quot;</text>
<text text-anchor="start" x="1024" y="-410" font-family="Times New Roman,serif" font-size="10.00">srcLabel = &quot;graph&quot;</text>
</g>
<!-- g2&#45;&#45;g4 -->
<g id="edge54" class="edge"><title>g2&#45;&#45;g4</title>
<path fill="none" stroke="black" d="M1119.58,-601.756C1130.67,-589.587 1143.99,-572.255 1150,-554 1158.34,-528.671 1162.01,-517.808 1150,-494 1142.13,-478.399 1128.55,-465.617 1114.38,-455.642"/>
<text text-anchor="middle" x="1124.2" y="-455.058" font-family="Times New Roman,serif" font-size="10.00">links</text>
<text text-anchor="middle" x="1122.45" y="-589.676" font-family="Times New Roman,serif" font-size="10.00">graph</text>
</g>
<!-- g5 -->
<g id="node5" class="node"><title>g5</title>
<polygon fill="none" stroke="black" points="936,-333 936,-350 1133,-350 1133,-333 936,-333"/>
<text text-anchor="start" x="997.5" y="-339.5" font-family="Times New Roman,serif" font-size="10.00"> </text>
<text text-anchor="start" x="1000.5" y="-339.5" font-family="Times New Roman,serif" font-size="10.00">g5 :GenericObject</text>
<polygon fill="none" stroke="black" points="936,-299 936,-333 1133,-333 1133,-299 936,-299"/>
<text text-anchor="start" x="1002.5" y="-321" font-family="Times New Roman,serif" font-size="10.00">name = &quot;g1.N2&quot;</text>
<text text-anchor="start" x="941.5" y="-307" font-family="Times New Roman,serif" font-size="10.00">type = &quot;org.sdmlib.examples.helloworld.Node&quot;</text>
</g>
<!-- g2&#45;&#45;g5 -->
<g id="edge56" class="edge"><title>g2&#45;&#45;g5</title>
<path fill="none" stroke="black" d="M1127.68,-601.806C1142.51,-590.251 1159.8,-573.581 1168,-554 1178.3,-529.402 1173.8,-520.029 1168,-494 1157.75,-448.006 1152.06,-435.096 1123,-398 1110.25,-381.728 1093.18,-366.794 1077.39,-354.797"/>
<text text-anchor="middle" x="1087.14" y="-354.495" font-family="Times New Roman,serif" font-size="10.00">objects</text>
<text text-anchor="middle" x="1132.11" y="-590.338" font-family="Times New Roman,serif" font-size="10.00">graph</text>
</g>
<!-- g7 -->
<g id="node7" class="node"><title>g7</title>
<polygon fill="none" stroke="black" points="598,-230 598,-247 701,-247 701,-230 598,-230"/>
<text text-anchor="start" x="617" y="-236.5" font-family="Times New Roman,serif" font-size="10.00"> </text>
<text text-anchor="start" x="620" y="-236.5" font-family="Times New Roman,serif" font-size="10.00">g7 :GenericLink</text>
<polygon fill="none" stroke="black" points="598,-196 598,-230 701,-230 701,-196 598,-196"/>
<text text-anchor="start" x="608.5" y="-218" font-family="Times New Roman,serif" font-size="10.00">tgtLabel = &quot;linksTo&quot;</text>
<text text-anchor="start" x="603.5" y="-204" font-family="Times New Roman,serif" font-size="10.00">srcLabel = &quot;linksFrom&quot;</text>
</g>
<!-- g2&#45;&#45;g7 -->
<g id="edge58" class="edge"><title>g2&#45;&#45;g7</title>
<path fill="none" stroke="black" d="M1054.48,-616.238C1009.2,-611.022 942.268,-596.149 903,-554 820.183,-465.108 921.394,-378.197 840,-288 806.56,-250.944 751.167,-235.001 708.622,-228.149"/>
<text text-anchor="middle" x="718.287" y="-223.081" font-family="Times New Roman,serif" font-size="10.00">links</text>
<text text-anchor="middle" x="1044.94" y="-616.742" font-family="Times New Roman,serif" font-size="10.00">graph</text>
</g>
<!-- g8 -->
<g id="node8" class="node"><title>g8</title>
<polygon fill="none" stroke="black" points="869,-134 869,-151 1066,-151 1066,-134 869,-134"/>
<text text-anchor="start" x="930.5" y="-140.5" font-family="Times New Roman,serif" font-size="10.00"> </text>
<text text-anchor="start" x="933.5" y="-140.5" font-family="Times New Roman,serif" font-size="10.00">g8 :GenericObject</text>
<polygon fill="none" stroke="black" points="869,-100 869,-134 1066,-134 1066,-100 869,-100"/>
<text text-anchor="start" x="935.5" y="-122" font-family="Times New Roman,serif" font-size="10.00">name = &quot;g1.N4&quot;</text>
<text text-anchor="start" x="874.5" y="-108" font-family="Times New Roman,serif" font-size="10.00">type = &quot;org.sdmlib.examples.helloworld.Node&quot;</text>
</g>
<!-- g2&#45;&#45;g8 -->
<g id="edge60" class="edge"><title>g2&#45;&#45;g8</title>
<path fill="none" stroke="black" d="M1137.07,-601.875C1155.26,-590.931 1175.77,-574.859 1186,-554 1212.77,-499.429 1188.35,-400.273 1149,-288 1132.95,-242.207 1131.87,-225.745 1097,-192 1081.77,-177.26 1062.54,-165.194 1043.57,-155.636"/>
<text text-anchor="middle" x="1053.56" y="-153.543" font-family="Times New Roman,serif" font-size="10.00">objects</text>
<text text-anchor="middle" x="1142.52" y="-590.995" font-family="Times New Roman,serif" font-size="10.00">graph</text>
</g>
<!-- g10 -->
<g id="node10" class="node"><title>g10</title>
<polygon fill="none" stroke="black" points="1126,-38 1126,-55 1214,-55 1214,-38 1126,-38"/>
<text text-anchor="start" x="1135" y="-44.5" font-family="Times New Roman,serif" font-size="10.00"> </text>
<text text-anchor="start" x="1138" y="-44.5" font-family="Times New Roman,serif" font-size="10.00">g10 :GenericLink</text>
<polygon fill="none" stroke="black" points="1126,-4 1126,-38 1214,-38 1214,-4 1126,-4"/>
<text text-anchor="start" x="1131.5" y="-26" font-family="Times New Roman,serif" font-size="10.00">tgtLabel = &quot;nodes&quot;</text>
<text text-anchor="start" x="1132" y="-12" font-family="Times New Roman,serif" font-size="10.00">srcLabel = &quot;graph&quot;</text>
</g>
<!-- g2&#45;&#45;g10 -->
<g id="edge48" class="edge"><title>g2&#45;&#45;g10</title>
<path fill="none" stroke="black" d="M1137.96,-601.853C1191,-573.763 1284,-512.591 1284,-429 1284,-429 1284,-429 1284,-221 1284,-156.181 1234.61,-94.3764 1200.85,-59.6994"/>
<text text-anchor="middle" x="1210.14" y="-60.9036" font-family="Times New Roman,serif" font-size="10.00">links</text>
<text text-anchor="middle" x="1143.84" y="-591.264" font-family="Times New Roman,serif" font-size="10.00">graph</text>
</g>
<!-- g11 -->
<g id="node11" class="node"><title>g11</title>
<polygon fill="none" stroke="black" points="896,-436 896,-453 984,-453 984,-436 896,-436"/>
<text text-anchor="start" x="905" y="-442.5" font-family="Times New Roman,serif" font-size="10.00"> </text>
<text text-anchor="start" x="908" y="-442.5" font-family="Times New Roman,serif" font-size="10.00">g11 :GenericLink</text>
<polygon fill="none" stroke="black" points="896,-402 896,-436 984,-436 984,-402 896,-402"/>
<text text-anchor="start" x="902" y="-424" font-family="Times New Roman,serif" font-size="10.00">tgtLabel = &quot;graph&quot;</text>
<text text-anchor="start" x="901.5" y="-410" font-family="Times New Roman,serif" font-size="10.00">srcLabel = &quot;edges&quot;</text>
</g>
<!-- g2&#45;&#45;g11 -->
<g id="edge50" class="edge"><title>g2&#45;&#45;g11</title>
<path fill="none" stroke="black" d="M1054.68,-616.966C1010.88,-612.269 947.999,-597.748 917,-554 896.907,-525.644 910.244,-484.865 923.481,-457.682"/>
<text text-anchor="middle" x="923.52" y="-465.182" font-family="Times New Roman,serif" font-size="10.00">links</text>
<text text-anchor="middle" x="1045.16" y="-617.525" font-family="Times New Roman,serif" font-size="10.00">graph</text>
</g>
<!-- g3&#45;&#45;g4 -->
<g id="edge66" class="edge"><title>g3&#45;&#45;g4</title>
<path fill="none" stroke="black" d="M1042.55,-494.286C1046.03,-482.624 1050.03,-469.182 1053.5,-457.538"/>
<text text-anchor="middle" x="1054.96" y="-464.93" font-family="Times New Roman,serif" font-size="10.00">outgoingLinks</text>
<text text-anchor="middle" x="1041.09" y="-481.894" font-family="Times New Roman,serif" font-size="10.00">src</text>
</g>
<!-- g3&#45;&#45;g10 -->
<g id="edge62" class="edge"><title>g3&#45;&#45;g10</title>
<path fill="none" stroke="black" d="M1084.28,-494.192C1098.33,-484.202 1112.59,-471.955 1123,-458 1160.24,-408.088 1170,-388.275 1170,-326 1170,-326 1170,-326 1170,-221 1170,-163.769 1170,-96.8414 1170,-59.6481"/>
<text text-anchor="middle" x="1174.23" y="-66.2111" font-family="Times New Roman,serif" font-size="10.00">outgoingLinks</text>
<text text-anchor="middle" x="1089.13" y="-482.946" font-family="Times New Roman,serif" font-size="10.00">src</text>
</g>
<!-- g3&#45;&#45;g11 -->
<g id="edge64" class="edge"><title>g3&#45;&#45;g11</title>
<path fill="none" stroke="black" d="M1005.29,-494.286C993.624,-482.624 980.182,-469.182 968.538,-457.538"/>
<text text-anchor="middle" x="977.935" y="-458.458" font-family="Times New Roman,serif" font-size="10.00">incommingLinks</text>
<text text-anchor="middle" x="995.889" y="-488.366" font-family="Times New Roman,serif" font-size="10.00">tgt</text>
</g>
<!-- g4&#45;&#45;g5 -->
<g id="edge68" class="edge"><title>g4&#45;&#45;g5</title>
<path fill="none" stroke="black" d="M1054.05,-398.328C1050.27,-384.681 1045.75,-368.4 1041.97,-354.744"/>
<text text-anchor="middle" x="1048.46" y="-359.849" font-family="Times New Roman,serif" font-size="10.00">tgt</text>
<text text-anchor="middle" x="1047.56" y="-388.223" font-family="Times New Roman,serif" font-size="10.00">incommingLinks</text>
</g>
<!-- g6 -->
<g id="node6" class="node"><title>g6</title>
<polygon fill="none" stroke="black" points="988,-230 988,-247 1080,-247 1080,-230 988,-230"/>
<text text-anchor="start" x="991.5" y="-236.5" font-family="Times New Roman,serif" font-size="10.00"> </text>
<text text-anchor="start" x="994.5" y="-236.5" font-family="Times New Roman,serif" font-size="10.00">g6 :GenericAttribute</text>
<polygon fill="none" stroke="black" points="988,-196 988,-230 1080,-230 1080,-196 988,-196"/>
<text text-anchor="start" x="1006.5" y="-218" font-family="Times New Roman,serif" font-size="10.00">name = &quot;text&quot;</text>
<text text-anchor="start" x="1001" y="-204" font-family="Times New Roman,serif" font-size="10.00">value = &quot;node1&quot;</text>
</g>
<!-- g5&#45;&#45;g6 -->
<g id="edge70" class="edge"><title>g5&#45;&#45;g6</title>
<path fill="none" stroke="black" d="M1034,-295.328C1034,-281.681 1034,-265.4 1034,-251.744"/>
<text text-anchor="middle" x="1038.23" y="-258.307" font-family="Times New Roman,serif" font-size="10.00">attrs</text>
<text text-anchor="middle" x="1029.77" y="-283.765" font-family="Times New Roman,serif" font-size="10.00">owner</text>
</g>
<!-- g5&#45;&#45;g7 -->
<g id="edge72" class="edge"><title>g5&#45;&#45;g7</title>
<path fill="none" stroke="black" d="M927.523,-296.067C856.861,-277.53 766.732,-253.886 708.452,-238.597"/>
<text text-anchor="middle" x="718.291" y="-234.308" font-family="Times New Roman,serif" font-size="10.00">outgoingLinks</text>
<text text-anchor="middle" x="917.684" y="-295.355" font-family="Times New Roman,serif" font-size="10.00">src</text>
</g>
<!-- g7&#45;&#45;g8 -->
<g id="edge74" class="edge"><title>g7&#45;&#45;g8</title>
<path fill="none" stroke="black" d="M708.44,-203.43C753.921,-189.985 817.588,-171.166 870.363,-155.566"/>
<text text-anchor="middle" x="862.869" y="-159.688" font-family="Times New Roman,serif" font-size="10.00">tgt</text>
<text text-anchor="middle" x="715.934" y="-194.308" font-family="Times New Roman,serif" font-size="10.00">incommingLinks</text>
</g>
<!-- g9 -->
<g id="node9" class="node"><title>g9</title>
<polygon fill="none" stroke="black" points="921,-38 921,-55 1013,-55 1013,-38 921,-38"/>
<text text-anchor="start" x="924.5" y="-44.5" font-family="Times New Roman,serif" font-size="10.00"> </text>
<text text-anchor="start" x="927.5" y="-44.5" font-family="Times New Roman,serif" font-size="10.00">g9 :GenericAttribute</text>
<polygon fill="none" stroke="black" points="921,-4 921,-38 1013,-38 1013,-4 921,-4"/>
<text text-anchor="start" x="939.5" y="-26" font-family="Times New Roman,serif" font-size="10.00">name = &quot;text&quot;</text>
<text text-anchor="start" x="934" y="-12" font-family="Times New Roman,serif" font-size="10.00">value = &quot;node2&quot;</text>
</g>
<!-- g8&#45;&#45;g9 -->
<g id="edge78" class="edge"><title>g8&#45;&#45;g9</title>
<path fill="none" stroke="black" d="M967,-96.2861C967,-84.624 967,-71.1822 967,-59.538"/>
<text text-anchor="middle" x="971.226" y="-66.1011" font-family="Times New Roman,serif" font-size="10.00">attrs</text>
<text text-anchor="middle" x="962.774" y="-84.7231" font-family="Times New Roman,serif" font-size="10.00">owner</text>
</g>
<!-- g8&#45;&#45;g10 -->
<g id="edge76" class="edge"><title>g8&#45;&#45;g10</title>
<path fill="none" stroke="black" d="M1028.73,-96.414C1057.2,-83.2346 1090.61,-67.7605 1117.8,-55.172"/>
<text text-anchor="middle" x="1111.35" y="-60.3153" font-family="Times New Roman,serif" font-size="10.00">incommingLinks</text>
<text text-anchor="middle" x="1035.18" y="-86.2708" font-family="Times New Roman,serif" font-size="10.00">tgt</text>
</g>
<!-- p12&#45;&#45;g2 -->
<g id="edge84" class="edge"><title>p12&#45;&#45;g2</title>
<path fill="none" stroke="black" d="M1015.93,-1042.44C1023.87,-1011.58 1037,-952.896 1037,-902 1037,-902 1037,-902 1037,-811 1037,-744.063 1073.56,-670.657 1091.84,-638.137"/>
<text text-anchor="middle" x="1091.2" y="-645.616" font-family="Times New Roman,serif" font-size="10.00">hostGraphSrcObject</text>
</g>
<!-- g13 -->
<g id="node13" class="node"><title>g13</title>
<polygon fill="none" stroke="black" points="342,-984 342,-1001 440,-1001 440,-984 342,-984"/>
<text text-anchor="start" x="345.5" y="-990.5" font-family="Times New Roman,serif" font-size="10.00"> </text>
<text text-anchor="start" x="348.5" y="-990.5" font-family="Times New Roman,serif" font-size="10.00">g13 :GenericObjectPO</text>
<polygon fill="none" stroke="black" points="342,-964 342,-984 440,-984 440,-964 342,-964"/>
<text text-anchor="start" x="360" y="-972" font-family="Times New Roman,serif" font-size="10.00">name = &quot;g1.E3&quot;</text>
</g>
<!-- p12&#45;&#45;g13 -->
<g id="edge82" class="edge"><title>p12&#45;&#45;g13</title>
<path fill="none" stroke="black" d="M946.665,-1055.81C825.878,-1040.2 564.326,-1006.4 448.358,-991.413"/>
<text text-anchor="middle" x="457.888" y="-985.883" font-family="Times New Roman,serif" font-size="10.00">tgt</text>
<text text-anchor="middle" x="937.135" y="-1056.34" font-family="Times New Roman,serif" font-size="10.00">incomming</text>
</g>
<!-- g13&#45;&#45;g8 -->
<g id="edge14" class="edge"><title>g13&#45;&#45;g8</title>
<path fill="none" stroke="black" d="M448.259,-975.537C496.221,-968.279 565.262,-953.424 619,-924 720.495,-868.428 752.689,-847.086 809,-746 885.776,-608.177 839.015,-550.614 879,-398 902.507,-308.278 938.787,-204.609 956.519,-155.554"/>
<text text-anchor="middle" x="957.436" y="-163.012" font-family="Times New Roman,serif" font-size="10.00">candidates</text>
</g>
<!-- g14 -->
<g id="node14" class="node"><title>g14</title>
<polygon fill="none" stroke="black" points="64,-230 64,-247 259,-247 259,-230 64,-230"/>
<text text-anchor="start" x="122" y="-236.5" font-family="Times New Roman,serif" font-size="10.00"> </text>
<text text-anchor="start" x="125" y="-236.5" font-family="Times New Roman,serif" font-size="10.00">g14 :GenericObject</text>
<polygon fill="none" stroke="black" points="64,-196 64,-230 259,-230 259,-196 64,-196"/>
<text text-anchor="start" x="130.5" y="-218" font-family="Times New Roman,serif" font-size="10.00">name = &quot;g1.E3&quot;</text>
<text text-anchor="start" x="69.5" y="-204" font-family="Times New Roman,serif" font-size="10.00">type = &quot;org.sdmlib.examples.helloworld.Edge&quot;</text>
</g>
<!-- g13&#45;&#45;g14 -->
<g id="edge12" class="edge"><title>g13&#45;&#45;g14</title>
<path fill="none" stroke="black" d="M333.727,-982.319C225.122,-979.604 0,-956.651 0,-813 0,-813 0,-813 0,-427 0,-350.976 69.7502,-286.652 117.431,-251.561"/>
<text text-anchor="middle" x="112.803" y="-257.926" font-family="Times New Roman,serif" font-size="10.00">currentMatch</text>
</g>
<!-- p15 -->
<g id="node15" class="node"><title>p15</title>
<polygon fill="none" stroke="black" points="321,-902 321,-919 462,-919 462,-902 321,-902"/>
<text text-anchor="start" x="357.5" y="-908.5" font-family="Times New Roman,serif" font-size="10.00"> </text>
<text text-anchor="start" x="360.5" y="-908.5" font-family="Times New Roman,serif" font-size="10.00">p15 :PatternLink</text>
<polygon fill="none" stroke="black" points="321,-882 321,-902 462,-902 462,-882 321,-882"/>
<text text-anchor="start" x="326.5" y="-890" font-family="Times New Roman,serif" font-size="10.00">tgtRoleName = &quot;outgoingLinks&quot;</text>
</g>
<!-- g13&#45;&#45;p15 -->
<g id="edge16" class="edge"><title>g13&#45;&#45;p15</title>
<path fill="none" stroke="black" d="M391,-960.14C391,-948.759 391,-934.893 391,-923.557"/>
<text text-anchor="middle" x="395.226" y="-930.12" font-family="Times New Roman,serif" font-size="10.00">outgoing</text>
<text text-anchor="middle" x="386.774" y="-948.577" font-family="Times New Roman,serif" font-size="10.00">src</text>
</g>
<!-- p22 -->
<g id="node22" class="node"><title>p22</title>
<polygon fill="none" stroke="black" points="145,-326 145,-343 286,-343 286,-326 145,-326"/>
<text text-anchor="start" x="181.5" y="-332.5" font-family="Times New Roman,serif" font-size="10.00"> </text>
<text text-anchor="start" x="184.5" y="-332.5" font-family="Times New Roman,serif" font-size="10.00">p22 :PatternLink</text>
<polygon fill="none" stroke="black" points="145,-306 145,-326 286,-326 286,-306 145,-306"/>
<text text-anchor="start" x="150.5" y="-314" font-family="Times New Roman,serif" font-size="10.00">tgtRoleName = &quot;outgoingLinks&quot;</text>
</g>
<!-- g13&#45;&#45;p22 -->
<g id="edge18" class="edge"><title>g13&#45;&#45;p22</title>
<path fill="none" stroke="black" d="M343.483,-960.424C328.314,-951.274 312.909,-939.164 303,-924 275.622,-882.101 284,-863.051 284,-813 284,-813 284,-813 284,-523 284,-455.959 247.966,-382.933 227.978,-347.584"/>
<text text-anchor="middle" x="236.047" y="-350.991" font-family="Times New Roman,serif" font-size="10.00">outgoing</text>
<text text-anchor="middle" x="333.556" y="-956.722" font-family="Times New Roman,serif" font-size="10.00">src</text>
</g>
<!-- a26 -->
<g id="node28" class="node"><title>a26</title>
<polygon fill="none" stroke="black" points="37,-820 37,-837 248,-837 248,-820 37,-820"/>
<text text-anchor="start" x="92.5" y="-826.5" font-family="Times New Roman,serif" font-size="10.00"> </text>
<text text-anchor="start" x="95.5" y="-826.5" font-family="Times New Roman,serif" font-size="10.00">a26 :AttributeConstraint</text>
<polygon fill="none" stroke="black" points="37,-786 37,-820 248,-820 248,-786 37,-786"/>
<text text-anchor="start" x="106" y="-808" font-family="Times New Roman,serif" font-size="10.00">attrName = &quot;type&quot;</text>
<text text-anchor="start" x="42.5" y="-794" font-family="Times New Roman,serif" font-size="10.00">tgtValue = &quot;org.sdmlib.examples.helloworld.Edge&quot;</text>
</g>
<!-- g13&#45;&#45;a26 -->
<g id="edge8" class="edge"><title>g13&#45;&#45;a26</title>
<path fill="none" stroke="black" d="M338.129,-960.37C316.317,-950.513 291.23,-937.93 270,-924 233.111,-899.795 195.506,-865.847 170.689,-841.883"/>
<text text-anchor="middle" x="180.161" y="-842.589" font-family="Times New Roman,serif" font-size="10.00">attrConstraints</text>
<text text-anchor="middle" x="328.129" y="-957.94" font-family="Times New Roman,serif" font-size="10.00">src</text>
</g>
<!-- d27 -->
<g id="node29" class="node"><title>d27</title>
<polygon fill="none" stroke="black" points="496,-892 496,-909 603,-909 603,-892 496,-892"/>
<text text-anchor="start" x="499.5" y="-898.5" font-family="Times New Roman,serif" font-size="10.00"> </text>
<text text-anchor="start" x="502.5" y="-898.5" font-family="Times New Roman,serif" font-size="10.00">d27 :DestroyObjectElem</text>
</g>
<!-- g13&#45;&#45;d27 -->
<g id="edge10" class="edge"><title>g13&#45;&#45;d27</title>
<path fill="none" stroke="black" d="M433.757,-960.351C459.347,-947.394 491.414,-931.158 515.22,-919.104"/>
<text text-anchor="middle" x="509.044" y="-924.468" font-family="Times New Roman,serif" font-size="10.00">destroyElem</text>
<text text-anchor="middle" x="439.934" y="-949.986" font-family="Times New Roman,serif" font-size="10.00">patternObject</text>
</g>
<!-- p15&#45;&#45;g14 -->
<g id="edge86" class="edge"><title>p15&#45;&#45;g14</title>
<path fill="none" stroke="black" d="M377.037,-878.458C356.875,-845.22 322,-778.797 322,-717 322,-717 322,-717 322,-427 322,-364.586 339.317,-338.03 302,-288 290.477,-272.551 274.392,-260.662 257.191,-251.548"/>
<text text-anchor="middle" x="267.169" y="-249.713" font-family="Times New Roman,serif" font-size="10.00">hostGraphSrcObject</text>
</g>
<!-- g16 -->
<g id="node16" class="node"><title>g16</title>
<polygon fill="none" stroke="black" points="466,-803 466,-820 555,-820 555,-803 466,-803"/>
<text text-anchor="start" x="469.5" y="-809.5" font-family="Times New Roman,serif" font-size="10.00"> </text>
<text text-anchor="start" x="472.5" y="-809.5" font-family="Times New Roman,serif" font-size="10.00">g16 :GenericLinkPO</text>
</g>
<!-- p15&#45;&#45;g16 -->
<g id="edge88" class="edge"><title>p15&#45;&#45;g16</title>
<path fill="none" stroke="black" d="M420.416,-878.494C440.788,-863.6 467.547,-844.037 486.498,-830.182"/>
<text text-anchor="middle" x="481.676" y="-836.442" font-family="Times New Roman,serif" font-size="10.00">tgt</text>
<text text-anchor="middle" x="425.238" y="-867.234" font-family="Times New Roman,serif" font-size="10.00">incomming</text>
</g>
<!-- g16&#45;&#45;g7 -->
<g id="edge26" class="edge"><title>g16&#45;&#45;g7</title>
<path fill="none" stroke="black" d="M457.556,-797.728C429.89,-787.989 397.86,-771.839 379,-746 345.87,-700.611 360,-677.194 360,-621 360,-621 360,-621 360,-427 360,-362.464 355.549,-332.803 402,-288 452.187,-239.593 533.915,-226.13 589.499,-222.945"/>
<text text-anchor="middle" x="580.772" y="-225.329" font-family="Times New Roman,serif" font-size="10.00">candidates</text>
</g>
<!-- g17 -->
<g id="node17" class="node"><title>g17</title>
<polygon fill="none" stroke="black" points="534,-628 534,-645 636,-645 636,-628 534,-628"/>
<text text-anchor="start" x="550" y="-634.5" font-family="Times New Roman,serif" font-size="10.00"> </text>
<text text-anchor="start" x="553" y="-634.5" font-family="Times New Roman,serif" font-size="10.00">g17 :GenericLink</text>
<polygon fill="none" stroke="black" points="534,-594 534,-628 636,-628 636,-594 534,-594"/>
<text text-anchor="start" x="553" y="-616" font-family="Times New Roman,serif" font-size="10.00">tgtLabel = &quot;src&quot;</text>
<text text-anchor="start" x="539.5" y="-602" font-family="Times New Roman,serif" font-size="10.00">srcLabel = &quot;outEdges&quot;</text>
</g>
<!-- g16&#45;&#45;g17 -->
<g id="edge24" class="edge"><title>g16&#45;&#45;g17</title>
<path fill="none" stroke="black" d="M562.536,-806.361C635.151,-798.737 760.395,-780.805 788,-746 804.571,-725.107 803.72,-707.54 788,-686 755.386,-641.312 691.634,-626.651 644.234,-622.186"/>
<text text-anchor="middle" x="653.716" y="-616.51" font-family="Times New Roman,serif" font-size="10.00">currentMatch</text>
</g>
<!-- p18 -->
<g id="node18" class="node"><title>p18</title>
<polygon fill="none" stroke="black" points="397,-717 397,-734 490,-734 490,-717 397,-717"/>
<text text-anchor="start" x="409.5" y="-723.5" font-family="Times New Roman,serif" font-size="10.00"> </text>
<text text-anchor="start" x="412.5" y="-723.5" font-family="Times New Roman,serif" font-size="10.00">p18 :PatternLink</text>
<polygon fill="none" stroke="black" points="397,-697 397,-717 490,-717 490,-697 397,-697"/>
<text text-anchor="start" x="402.5" y="-705" font-family="Times New Roman,serif" font-size="10.00">tgtRoleName = &quot;tgt&quot;</text>
</g>
<!-- g16&#45;&#45;p18 -->
<g id="edge28" class="edge"><title>g16&#45;&#45;p18</title>
<path fill="none" stroke="black" d="M497.711,-793.759C486.68,-778.282 470.436,-755.492 458.513,-738.765"/>
<text text-anchor="middle" x="467.215" y="-741.192" font-family="Times New Roman,serif" font-size="10.00">outgoing</text>
<text text-anchor="middle" x="489.009" y="-786.332" font-family="Times New Roman,serif" font-size="10.00">src</text>
</g>
<!-- a24 -->
<g id="node26" class="node"><title>a24</title>
<polygon fill="none" stroke="black" points="524,-724 524,-741 631,-741 631,-724 524,-724"/>
<text text-anchor="start" x="527.5" y="-730.5" font-family="Times New Roman,serif" font-size="10.00"> </text>
<text text-anchor="start" x="530.5" y="-730.5" font-family="Times New Roman,serif" font-size="10.00">a24 :AttributeConstraint</text>
<polygon fill="none" stroke="black" points="524,-690 524,-724 631,-724 631,-690 524,-690"/>
<text text-anchor="start" x="533.5" y="-712" font-family="Times New Roman,serif" font-size="10.00">attrName = &quot;tgtLabel&quot;</text>
<text text-anchor="start" x="545" y="-698" font-family="Times New Roman,serif" font-size="10.00">tgtValue = &quot;src&quot;</text>
</g>
<!-- g16&#45;&#45;a24 -->
<g id="edge20" class="edge"><title>g16&#45;&#45;a24</title>
<path fill="none" stroke="black" d="M522.289,-793.759C531.884,-780.296 545.424,-761.3 556.633,-745.574"/>
<text text-anchor="middle" x="554.815" y="-752.907" font-family="Times New Roman,serif" font-size="10.00">attrConstraints</text>
<text text-anchor="middle" x="524.108" y="-781.426" font-family="Times New Roman,serif" font-size="10.00">src</text>
</g>
<!-- d25 -->
<g id="node27" class="node"><title>d25</title>
<polygon fill="none" stroke="black" points="665,-707 665,-724 772,-724 772,-707 665,-707"/>
<text text-anchor="start" x="668.5" y="-713.5" font-family="Times New Roman,serif" font-size="10.00"> </text>
<text text-anchor="start" x="671.5" y="-713.5" font-family="Times New Roman,serif" font-size="10.00">d25 :DestroyObjectElem</text>
</g>
<!-- g16&#45;&#45;d25 -->
<g id="edge22" class="edge"><title>g16&#45;&#45;d25</title>
<path fill="none" stroke="black" d="M547.667,-793.977C585.247,-776.994 642.658,-751.049 680.262,-734.055"/>
<text text-anchor="middle" x="673.744" y="-739.138" font-family="Times New Roman,serif" font-size="10.00">destroyElem</text>
<text text-anchor="middle" x="554.186" y="-783.894" font-family="Times New Roman,serif" font-size="10.00">patternObject</text>
</g>
<!-- p18&#45;&#45;g17 -->
<g id="edge90" class="edge"><title>p18&#45;&#45;g17</title>
<path fill="none" stroke="black" d="M475.578,-693.435C495.229,-680.426 520.5,-663.697 541.805,-649.594"/>
<text text-anchor="middle" x="536.58" y="-655.621" font-family="Times New Roman,serif" font-size="10.00">hostGraphSrcObject</text>
</g>
<!-- g19 -->
<g id="node19" class="node"><title>g19</title>
<polygon fill="none" stroke="black" points="402,-621 402,-638 500,-638 500,-621 402,-621"/>
<text text-anchor="start" x="405.5" y="-627.5" font-family="Times New Roman,serif" font-size="10.00"> </text>
<text text-anchor="start" x="408.5" y="-627.5" font-family="Times New Roman,serif" font-size="10.00">g19 :GenericObjectPO</text>
<polygon fill="none" stroke="black" points="402,-601 402,-621 500,-621 500,-601 402,-601"/>
<text text-anchor="start" x="419" y="-609" font-family="Times New Roman,serif" font-size="10.00">name = &quot;g1.N2&quot;</text>
</g>
<!-- p18&#45;&#45;g19 -->
<g id="edge92" class="edge"><title>p18&#45;&#45;g19</title>
<path fill="none" stroke="black" d="M444.855,-693.198C446.148,-678.012 447.864,-657.844 449.155,-642.684"/>
<text text-anchor="middle" x="452.597" y="-649.572" font-family="Times New Roman,serif" font-size="10.00">tgt</text>
<text text-anchor="middle" x="441.413" y="-681.309" font-family="Times New Roman,serif" font-size="10.00">incomming</text>
</g>
<!-- g19&#45;&#45;g5 -->
<g id="edge30" class="edge"><title>g19&#45;&#45;g5</title>
<path fill="none" stroke="black" d="M491.433,-597.405C567.041,-557.184 735.201,-468.486 879,-398 908.973,-383.308 942.536,-367.624 970.745,-354.658"/>
<text text-anchor="middle" x="964.282" y="-359.788" font-family="Times New Roman,serif" font-size="10.00">currentMatch</text>
</g>
<!-- l20 -->
<g id="node20" class="node"><title>l20</title>
<polygon fill="none" stroke="black" points="409,-532 409,-549 503,-549 503,-532 409,-532"/>
<text text-anchor="start" x="416.5" y="-538.5" font-family="Times New Roman,serif" font-size="10.00"> </text>
<text text-anchor="start" x="419.5" y="-538.5" font-family="Times New Roman,serif" font-size="10.00">l20 :LinkConstraint</text>
<polygon fill="none" stroke="black" points="409,-498 409,-532 503,-532 503,-498 409,-498"/>
<text text-anchor="start" x="414.5" y="-520" font-family="Times New Roman,serif" font-size="10.00">tgtRoleName = &quot;src&quot;</text>
<text text-anchor="start" x="418" y="-506" font-family="Times New Roman,serif" font-size="10.00">modifier = &quot;create&quot;</text>
</g>
<!-- g19&#45;&#45;l20 -->
<g id="edge32" class="edge"><title>g19&#45;&#45;l20</title>
<path fill="none" stroke="black" d="M452.16,-597.198C452.846,-584.29 453.724,-567.782 454.468,-553.81"/>
<text text-anchor="middle" x="458.206" y="-560.585" font-family="Times New Roman,serif" font-size="10.00">incomming</text>
<text text-anchor="middle" x="448.421" y="-585.423" font-family="Times New Roman,serif" font-size="10.00">tgt</text>
</g>
<!-- g21 -->
<g id="node21" class="node"><title>g21</title>
<polygon fill="none" stroke="black" points="423,-419 423,-436 512,-436 512,-419 423,-419"/>
<text text-anchor="start" x="426.5" y="-425.5" font-family="Times New Roman,serif" font-size="10.00"> </text>
<text text-anchor="start" x="429.5" y="-425.5" font-family="Times New Roman,serif" font-size="10.00">g21 :GenericLinkPO</text>
</g>
<!-- l20&#45;&#45;g21 -->
<g id="edge80" class="edge"><title>l20&#45;&#45;g21</title>
<path fill="none" stroke="black" d="M459.36,-494.286C461.205,-478.521 463.431,-459.503 465.002,-446.07"/>
<text text-anchor="middle" x="468.147" y="-453.063" font-family="Times New Roman,serif" font-size="10.00">src</text>
<text text-anchor="middle" x="456.216" y="-482.293" font-family="Times New Roman,serif" font-size="10.00">outgoing</text>
</g>
<!-- g21&#45;&#45;g7 -->
<g id="edge44" class="edge"><title>g21&#45;&#45;g7</title>
<path fill="none" stroke="black" d="M448.704,-409.892C437.159,-397.783 423.281,-380.466 417,-362 406.41,-330.863 397.127,-314.206 417,-288 437.82,-260.545 527.928,-241.507 589.52,-231.423"/>
<text text-anchor="middle" x="581.3" y="-234.618" font-family="Times New Roman,serif" font-size="10.00">currentMatch</text>
</g>
<!-- g21&#45;&#45;p22 -->
<g id="edge46" class="edge"><title>g21&#45;&#45;p22</title>
<path fill="none" stroke="black" d="M424.537,-409.981C381.754,-392.834 315.587,-366.314 269.077,-347.674"/>
<text text-anchor="middle" x="279.061" y="-344.622" font-family="Times New Roman,serif" font-size="10.00">incomming</text>
<text text-anchor="middle" x="414.552" y="-408.032" font-family="Times New Roman,serif" font-size="10.00">tgt</text>
</g>
<!-- a23 -->
<g id="node23" class="node"><title>a23</title>
<polygon fill="none" stroke="black" points="435,-333 435,-350 542,-350 542,-333 435,-333"/>
<text text-anchor="start" x="438.5" y="-339.5" font-family="Times New Roman,serif" font-size="10.00"> </text>
<text text-anchor="start" x="441.5" y="-339.5" font-family="Times New Roman,serif" font-size="10.00">a23 :AttributeConstraint</text>
<polygon fill="none" stroke="black" points="435,-299 435,-333 542,-333 542,-299 435,-299"/>
<text text-anchor="start" x="444.5" y="-321" font-family="Times New Roman,serif" font-size="10.00">attrName = &quot;tgtLabel&quot;</text>
<text text-anchor="start" x="456.5" y="-307" font-family="Times New Roman,serif" font-size="10.00">tgtValue = &quot;tgt&quot;</text>
</g>
<!-- g21&#45;&#45;a23 -->
<g id="edge38" class="edge"><title>g21&#45;&#45;a23</title>
<path fill="none" stroke="black" d="M470.562,-409.867C473.698,-394.783 478.329,-372.512 482.031,-354.71"/>
<text text-anchor="middle" x="484.323" y="-361.944" font-family="Times New Roman,serif" font-size="10.00">attrConstraints</text>
<text text-anchor="middle" x="468.27" y="-397.633" font-family="Times New Roman,serif" font-size="10.00">src</text>
</g>
<!-- a28 -->
<g id="node24" class="node"><title>a28</title>
<polygon fill="none" stroke="black" points="717,-340 717,-357 824,-357 824,-340 717,-340"/>
<text text-anchor="start" x="720.5" y="-346.5" font-family="Times New Roman,serif" font-size="10.00"> </text>
<text text-anchor="start" x="723.5" y="-346.5" font-family="Times New Roman,serif" font-size="10.00">a28 :AttributeConstraint</text>
<polygon fill="none" stroke="black" points="717,-292 717,-340 824,-340 824,-292 717,-292"/>
<text text-anchor="start" x="726" y="-328" font-family="Times New Roman,serif" font-size="10.00">attrName = &quot;srcLabel&quot;</text>
<text text-anchor="start" x="724.5" y="-314" font-family="Times New Roman,serif" font-size="10.00">tgtValue = &quot;linksFrom&quot;</text>
<text text-anchor="start" x="732.5" y="-300" font-family="Times New Roman,serif" font-size="10.00">modifier = &quot;create&quot;</text>
</g>
<!-- g21&#45;&#45;a28 -->
<g id="edge40" class="edge"><title>g21&#45;&#45;a28</title>
<path fill="none" stroke="black" d="M519.553,-415.395C567.209,-404.143 638.971,-385.367 699,-362 702.091,-360.797 705.226,-359.503 708.371,-358.146"/>
<text text-anchor="middle" x="701.713" y="-363.107" font-family="Times New Roman,serif" font-size="10.00">attrConstraints</text>
<text text-anchor="middle" x="527.379" y="-406.669" font-family="Times New Roman,serif" font-size="10.00">src</text>
</g>
<!-- a29 -->
<g id="node25" class="node"><title>a29</title>
<polygon fill="none" stroke="black" points="576,-340 576,-357 683,-357 683,-340 576,-340"/>
<text text-anchor="start" x="579.5" y="-346.5" font-family="Times New Roman,serif" font-size="10.00"> </text>
<text text-anchor="start" x="582.5" y="-346.5" font-family="Times New Roman,serif" font-size="10.00">a29 :AttributeConstraint</text>
<polygon fill="none" stroke="black" points="576,-292 576,-340 683,-340 683,-292 576,-292"/>
<text text-anchor="start" x="585.5" y="-328" font-family="Times New Roman,serif" font-size="10.00">attrName = &quot;tgtLabel&quot;</text>
<text text-anchor="start" x="588" y="-314" font-family="Times New Roman,serif" font-size="10.00">tgtValue = &quot;linksTo&quot;</text>
<text text-anchor="start" x="591.5" y="-300" font-family="Times New Roman,serif" font-size="10.00">modifier = &quot;create&quot;</text>
</g>
<!-- g21&#45;&#45;a29 -->
<g id="edge42" class="edge"><title>g21&#45;&#45;a29</title>
<path fill="none" stroke="black" d="M494.481,-409.867C515.605,-396.697 545.518,-378.047 571.774,-361.678"/>
<text text-anchor="middle" x="566.32" y="-367.559" font-family="Times New Roman,serif" font-size="10.00">attrConstraints</text>
<text text-anchor="middle" x="499.936" y="-398.986" font-family="Times New Roman,serif" font-size="10.00">src</text>
</g>
<!-- p22&#45;&#45;g14 -->
<g id="edge94" class="edge"><title>p22&#45;&#45;g14</title>
<path fill="none" stroke="black" d="M203.283,-302.085C195.404,-287.348 184.936,-267.77 176.387,-251.78"/>
<text text-anchor="middle" x="184.387" y="-255.28" font-family="Times New Roman,serif" font-size="10.00">hostGraphSrcObject</text>
</g>
<!-- a23&#45;&#45;g7 -->
<g id="edge2" class="edge"><title>a23&#45;&#45;g7</title>
<path fill="none" stroke="black" d="M533.705,-295.328C555.553,-281.622 581.633,-265.261 603.459,-251.569"/>
<text text-anchor="middle" x="598.028" y="-257.465" font-family="Times New Roman,serif" font-size="10.00">hostGraphSrcObject</text>
</g>
<!-- a24&#45;&#45;g17 -->
<g id="edge4" class="edge"><title>a24&#45;&#45;g17</title>
<path fill="none" stroke="black" d="M579.444,-686.286C580.436,-674.624 581.58,-661.182 582.571,-649.538"/>
<text text-anchor="middle" x="586.014" y="-656.427" font-family="Times New Roman,serif" font-size="10.00">hostGraphSrcObject</text>
</g>
<!-- a26&#45;&#45;g14 -->
<g id="edge6" class="edge"><title>a26&#45;&#45;g14</title>
<path fill="none" stroke="black" d="M133.596,-782.316C123.527,-745.361 108,-678.972 108,-621 108,-621 108,-621 108,-427 108,-364.648 108.045,-347.401 127,-288 130.988,-275.503 137.271,-262.541 143.356,-251.509"/>
<text text-anchor="middle" x="142.741" y="-258.99" font-family="Times New Roman,serif" font-size="10.00">hostGraphSrcObject</text>
</g>
</g>
</svg>
