<?xml version="1.0" encoding="UTF-8" standalone="no"?>
<!DOCTYPE svg PUBLIC "-//W3C//DTD SVG 1.1//EN"
 "http://www.w3.org/Graphics/SVG/1.1/DTD/svg11.dtd">
<!-- Generated by graphviz version 2.28.0 (20110507.0327)
 -->
<!-- Title: ObjectDiagram Pages: 1 -->
<svg width="447pt" height="331pt"
 viewBox="0.00 0.00 447.00 331.00" xmlns="http://www.w3.org/2000/svg" xmlns:xlink="http://www.w3.org/1999/xlink">
<g id="graph1" class="graph" transform="scale(1 1) rotate(0) translate(4 327)">
<title>ObjectDiagram</title>
<polygon fill="white" stroke="white" points="-4,5 -4,-327 444,-327 444,5 -4,5"/>
<g id="graph2" class="cluster"><title>cluster_o3</title>
<polygon fill="none" stroke="grey" points="69,-8 69,-173 219,-173 219,-8 69,-8"/>
<text text-anchor="start" x="112.5" y="-153.8" font-family="Times New Roman,serif" font-size="14.00">optional o3</text>
</g>
<g id="graph3" class="cluster"><title>cluster_o6</title>
<polygon fill="none" stroke="grey" points="227,-8 227,-173 377,-173 377,-8 227,-8"/>
<text text-anchor="start" x="270.5" y="-153.8" font-family="Times New Roman,serif" font-size="14.00">optional o6</text>
</g>
<!-- g1 -->
<g id="node1" class="node"><title>g1</title>
<polygon fill="deepskyblue" stroke="deepskyblue" points="190.5,-267.5 190.5,-318.5 255.5,-318.5 255.5,-267.5 190.5,-267.5"/>
<text text-anchor="start" x="217" y="-308.5" font-family="Times New Roman,serif" font-size="10.00">«bound»</text>
<polygon fill="none" stroke="black" points="191,-287 191,-303 256,-303 256,-287 191,-287"/>
<text text-anchor="start" x="194.5" y="-293" font-family="Times New Roman,serif" font-size="10.00"> </text>
<text text-anchor="start" x="197.5" y="-293" font-family="Times New Roman,serif" font-size="10.00"> g1 :GraphPO </text>
<polygon fill="none" stroke="black" points="191,-267 191,-287 256,-287 256,-267 191,-267"/>
<text text-anchor="start" x="221" y="-275" font-family="Times New Roman,serif" font-size="10.00"> &#160;</text>
</g>
<!-- n2 -->
<g id="node2" class="node"><title>n2</title>
<polygon fill="deepskyblue" stroke="deepskyblue" points="197.5,-185.5 197.5,-222.5 248.5,-222.5 248.5,-185.5 197.5,-185.5"/>
<polygon fill="none" stroke="black" points="198,-205 198,-222 249,-222 249,-205 198,-205"/>
<text text-anchor="start" x="202" y="-211.5" font-family="Times New Roman,serif" font-size="10.00"> </text>
<text text-anchor="start" x="205" y="-211.5" font-family="Times New Roman,serif" font-size="10.00"> n2 :NodePO </text>
<polygon fill="none" stroke="black" points="198,-185 198,-205 249,-205 249,-185 198,-185"/>
<text text-anchor="start" x="203.5" y="-193" font-family="Times New Roman,serif" font-size="10.00"> name == &quot;n1&quot; </text>
</g>
<!-- g1&#45;&#45;n2 -->
<g id="edge16" class="edge"><title>g1&#45;&#45;n2</title>
<path fill="none" stroke="black" d="M223,-263.03C223,-251.167 223,-237.675 223,-226.687"/>
<text text-anchor="middle" x="227.226" y="-233.25" font-family="Times New Roman,serif" font-size="10.00">nodes</text>
</g>
<!-- allMatches_n2 -->
<g id="node3" class="node"><title>allMatches_n2</title>
<text text-anchor="middle" x="30" y="-108.5" font-family="Times New Roman,serif" font-size="10.00">allMatches</text>
</g>
<!-- n2&#45;&#45;allMatches_n2 -->
<g id="edge4" class="edge"><title>n2&#45;&#45;allMatches_n2</title>
<path fill="none" stroke="black" stroke-dasharray="1,5" d="M189.448,-199.928C149.16,-195.682 84.5599,-186.927 65,-173 50.081,-162.377 40.6289,-143.26 35.3592,-129.25"/>
</g>
<!-- e4 -->
<g id="node5" class="node"><title>e4</title>
<polygon fill="deepskyblue" stroke="deepskyblue" points="153.5,-92.5 153.5,-129.5 202.5,-129.5 202.5,-92.5 153.5,-92.5"/>
<polygon fill="none" stroke="black" points="154,-112 154,-129 203,-129 203,-112 154,-112"/>
<text text-anchor="start" x="157.5" y="-118.5" font-family="Times New Roman,serif" font-size="10.00"> </text>
<text text-anchor="start" x="160.5" y="-118.5" font-family="Times New Roman,serif" font-size="10.00"> e4 :EdgePO </text>
<polygon fill="none" stroke="black" points="154,-92 154,-112 203,-112 203,-92 154,-92"/>
<text text-anchor="start" x="176" y="-100" font-family="Times New Roman,serif" font-size="10.00"> &#160;</text>
</g>
<!-- n2&#45;&#45;e4 -->
<g id="edge18" class="edge"><title>n2&#45;&#45;e4</title>
<path fill="none" stroke="black" d="M212.336,-181.434C205.214,-167.033 195.882,-148.16 188.744,-133.726"/>
<text text-anchor="middle" x="196.549" y="-137.477" font-family="Times New Roman,serif" font-size="10.00">outEdges</text>
</g>
<!-- e7 -->
<g id="node9" class="node"><title>e7</title>
<polygon fill="deepskyblue" stroke="deepskyblue" points="243.5,-92.5 243.5,-129.5 292.5,-129.5 292.5,-92.5 243.5,-92.5"/>
<polygon fill="none" stroke="black" points="244,-112 244,-129 293,-129 293,-112 244,-112"/>
<text text-anchor="start" x="247.5" y="-118.5" font-family="Times New Roman,serif" font-size="10.00"> </text>
<text text-anchor="start" x="250.5" y="-118.5" font-family="Times New Roman,serif" font-size="10.00"> e7 :EdgePO </text>
<polygon fill="none" stroke="black" points="244,-92 244,-112 293,-112 293,-92 244,-92"/>
<text text-anchor="start" x="266" y="-100" font-family="Times New Roman,serif" font-size="10.00"> &#160;</text>
</g>
<!-- n2&#45;&#45;e7 -->
<g id="edge20" class="edge"><title>n2&#45;&#45;e7</title>
<path fill="none" stroke="black" d="M233.664,-181.434C240.786,-167.033 250.118,-148.16 257.256,-133.726"/>
<text text-anchor="middle" x="257.027" y="-141.224" font-family="Times New Roman,serif" font-size="10.00">inEdges</text>
</g>
<!-- d9 -->
<g id="node12" class="node"><title>d9</title>
<text text-anchor="middle" x="412" y="-108.5" font-family="Times New Roman,serif" font-size="10.00" fill="red">destroy</text>
</g>
<!-- n2&#45;&#45;d9 -->
<g id="edge14" class="edge"><title>n2&#45;&#45;d9</title>
<path fill="none" stroke="red" stroke-dasharray="1,5" d="M256.317,-200.123C296.699,-196.055 361.744,-187.461 381,-173 395.249,-162.3 403.443,-143.196 407.785,-129.211"/>
</g>
<!-- allMatches_e4 -->
<g id="node6" class="node"><title>allMatches_e4</title>
<text text-anchor="middle" x="108" y="-31.5" font-family="Times New Roman,serif" font-size="10.00">allMatches</text>
</g>
<!-- e4&#45;&#45;allMatches_e4 -->
<g id="edge6" class="edge"><title>e4&#45;&#45;allMatches_e4</title>
<path fill="none" stroke="black" stroke-dasharray="1,5" d="M157.753,-88.3069C147.093,-76.8856 134.199,-63.0699 124.208,-52.3655"/>
</g>
<!-- d5 -->
<g id="node7" class="node"><title>d5</title>
<text text-anchor="middle" x="184" y="-31.5" font-family="Times New Roman,serif" font-size="10.00" fill="red">destroy</text>
</g>
<!-- e4&#45;&#45;d5 -->
<g id="edge8" class="edge"><title>e4&#45;&#45;d5</title>
<path fill="none" stroke="red" stroke-dasharray="1,5" d="M179.735,-88.3069C180.649,-76.8856 181.754,-63.0699 182.611,-52.3655"/>
</g>
<!-- allMatches_e7 -->
<g id="node10" class="node"><title>allMatches_e7</title>
<text text-anchor="middle" x="266" y="-31.5" font-family="Times New Roman,serif" font-size="10.00">allMatches</text>
</g>
<!-- e7&#45;&#45;allMatches_e7 -->
<g id="edge10" class="edge"><title>e7&#45;&#45;allMatches_e7</title>
<path fill="none" stroke="black" stroke-dasharray="1,5" d="M267.422,-88.3069C267.117,-76.8856 266.749,-63.0699 266.463,-52.3655"/>
</g>
<!-- d8 -->
<g id="node11" class="node"><title>d8</title>
<text text-anchor="middle" x="342" y="-31.5" font-family="Times New Roman,serif" font-size="10.00" fill="red">destroy</text>
</g>
<!-- e7&#45;&#45;d8 -->
<g id="edge12" class="edge"><title>e7&#45;&#45;d8</title>
<path fill="none" stroke="red" stroke-dasharray="1,5" d="M289.404,-88.3069C300.673,-76.8856 314.304,-63.0699 324.866,-52.3655"/>
</g>
</g>
</svg>
