<?xml version="1.0" encoding="UTF-8" standalone="no"?>
<!DOCTYPE svg PUBLIC "-//W3C//DTD SVG 1.1//EN"
 "http://www.w3.org/Graphics/SVG/1.1/DTD/svg11.dtd">
<!-- Generated by graphviz version 2.28.0 (20110507.0327)
 -->
<!-- Title: ObjectDiagram Pages: 1 -->
<svg width="454pt" height="331pt"
 viewBox="0.00 0.00 454.00 331.00" xmlns="http://www.w3.org/2000/svg" xmlns:xlink="http://www.w3.org/1999/xlink">
<g id="graph1" class="graph" transform="scale(1 1) rotate(0) translate(4 327)">
<title>ObjectDiagram</title>
<polygon fill="white" stroke="white" points="-4,5 -4,-327 451,-327 451,5 -4,5"/>
<g id="graph2" class="cluster"><title>cluster_o3</title>
<polygon fill="none" stroke="grey" points="72,-8 72,-173 224,-173 224,-8 72,-8"/>
<text text-anchor="start" x="116.5" y="-153.8" font-family="Times New Roman,serif" font-size="14.00">optional o3</text>
</g>
<g id="graph3" class="cluster"><title>cluster_o6</title>
<polygon fill="none" stroke="grey" points="232,-8 232,-173 384,-173 384,-8 232,-8"/>
<text text-anchor="start" x="276.5" y="-153.8" font-family="Times New Roman,serif" font-size="14.00">optional o6</text>
</g>
<!-- g1 -->
<g id="node1" class="node"><title>g1</title>
<polygon fill="deepskyblue" stroke="deepskyblue" points="190.5,-267.5 190.5,-318.5 265.5,-318.5 265.5,-267.5 190.5,-267.5"/>
<text text-anchor="start" x="227" y="-308.5" font-family="Arial" font-size="10.00">«bound»</text>
<polygon fill="none" stroke="black" points="191,-287 191,-303 266,-303 266,-287 191,-287"/>
<text text-anchor="start" x="194.5" y="-293" font-family="Arial" font-size="10.00"> </text>
<text text-anchor="start" x="198.5" y="-293" font-family="Arial" font-size="10.00"> g1 :GraphPO </text>
<polygon fill="none" stroke="black" points="191,-267 191,-287 266,-287 266,-267 191,-267"/>
<text text-anchor="start" x="225" y="-275" font-family="Arial" font-size="10.00"> &#160;</text>
</g>
<!-- n2 -->
<g id="node2" class="node"><title>n2</title>
<polygon fill="deepskyblue" stroke="deepskyblue" points="199.5,-185.5 199.5,-222.5 256.5,-222.5 256.5,-185.5 199.5,-185.5"/>
<polygon fill="none" stroke="black" points="200,-205 200,-222 257,-222 257,-205 200,-205"/>
<text text-anchor="start" x="205" y="-211.5" font-family="Arial" font-size="10.00"> </text>
<text text-anchor="start" x="209" y="-211.5" font-family="Arial" font-size="10.00"> n2 :NodePO </text>
<polygon fill="none" stroke="black" points="200,-185 200,-205 257,-205 257,-185 200,-185"/>
<text text-anchor="start" x="205.5" y="-193" font-family="Arial" font-size="10.00"> name == &quot;n1&quot; </text>
</g>
<!-- g1&#45;&#45;n2 -->
<g id="edge16" class="edge"><title>g1&#45;&#45;n2</title>
<path fill="none" stroke="black" d="M228,-263.03C228,-251.167 228,-237.675 228,-226.687"/>
<text text-anchor="middle" x="232.226" y="-233.25" font-family="Arial" font-size="10.00">nodes</text>
</g>
<!-- allMatches_n2 -->
<g id="node3" class="node"><title>allMatches_n2</title>
<text text-anchor="middle" x="32" y="-108.5" font-family="Arial" font-size="10.00">allMatches</text>
</g>
<!-- n2&#45;&#45;allMatches_n2 -->
<g id="edge4" class="edge"><title>n2&#45;&#45;allMatches_n2</title>
<path fill="none" stroke="black" stroke-dasharray="1,5" d="M191.535,-199.672C150.644,-195.341 87.4959,-186.669 68,-173 52.897,-162.411 43.1332,-143.288 37.6369,-129.268"/>
</g>
<!-- e4 -->
<g id="node5" class="node"><title>e4</title>
<polygon fill="deepskyblue" stroke="deepskyblue" points="154,-92.5 154,-129.5 208,-129.5 208,-92.5 154,-92.5"/>
<polygon fill="none" stroke="black" points="154,-112 154,-129 208,-129 208,-112 154,-112"/>
<text text-anchor="start" x="157.5" y="-118.5" font-family="Arial" font-size="10.00"> </text>
<text text-anchor="start" x="161.5" y="-118.5" font-family="Arial" font-size="10.00"> e4 :EdgePO </text>
<polygon fill="none" stroke="black" points="154,-92 154,-112 208,-112 208,-92 154,-92"/>
<text text-anchor="start" x="177.5" y="-100" font-family="Arial" font-size="10.00"> &#160;</text>
</g>
<!-- n2&#45;&#45;e4 -->
<g id="edge18" class="edge"><title>n2&#45;&#45;e4</title>
<path fill="none" stroke="black" d="M216.862,-181.434C209.424,-167.033 199.676,-148.16 192.221,-133.726"/>
<text text-anchor="middle" x="200.135" y="-137.339" font-family="Arial" font-size="10.00">outEdges</text>
</g>
<!-- e7 -->
<g id="node9" class="node"><title>e7</title>
<polygon fill="deepskyblue" stroke="deepskyblue" points="248,-92.5 248,-129.5 302,-129.5 302,-92.5 248,-92.5"/>
<polygon fill="none" stroke="black" points="248,-112 248,-129 302,-129 302,-112 248,-112"/>
<text text-anchor="start" x="251.5" y="-118.5" font-family="Arial" font-size="10.00"> </text>
<text text-anchor="start" x="255.5" y="-118.5" font-family="Arial" font-size="10.00"> e7 :EdgePO </text>
<polygon fill="none" stroke="black" points="248,-92 248,-112 302,-112 302,-92 248,-92"/>
<text text-anchor="start" x="271.5" y="-100" font-family="Arial" font-size="10.00"> &#160;</text>
</g>
<!-- n2&#45;&#45;e7 -->
<g id="edge20" class="edge"><title>n2&#45;&#45;e7</title>
<path fill="none" stroke="black" d="M239.138,-181.434C246.576,-167.033 256.324,-148.16 263.779,-133.726"/>
<text text-anchor="middle" x="263.375" y="-141.218" font-family="Arial" font-size="10.00">inEdges</text>
</g>
<!-- d9 -->
<g id="node12" class="node"><title>d9</title>
<text text-anchor="middle" x="419" y="-108.5" font-family="Arial" font-size="10.00" fill="red">destroy</text>
</g>
<!-- n2&#45;&#45;d9 -->
<g id="edge14" class="edge"><title>n2&#45;&#45;d9</title>
<path fill="none" stroke="red" stroke-dasharray="1,5" d="M264.255,-199.922C305.28,-195.807 368.888,-187.319 388,-173 402.261,-162.316 410.453,-143.21 414.792,-129.219"/>
</g>
<!-- allMatches_e4 -->
<g id="node6" class="node"><title>allMatches_e4</title>
<text text-anchor="middle" x="112" y="-31.5" font-family="Arial" font-size="10.00">allMatches</text>
</g>
<!-- e4&#45;&#45;allMatches_e4 -->
<g id="edge6" class="edge"><title>e4&#45;&#45;allMatches_e4</title>
<path fill="none" stroke="black" stroke-dasharray="1,5" d="M161.042,-88.3069C150.535,-76.8856 137.824,-63.0699 127.976,-52.3655"/>
</g>
<!-- d5 -->
<g id="node7" class="node"><title>d5</title>
<text text-anchor="middle" x="189" y="-31.5" font-family="Arial" font-size="10.00" fill="red">destroy</text>
</g>
<!-- e4&#45;&#45;d5 -->
<g id="edge8" class="edge"><title>e4&#45;&#45;d5</title>
<path fill="none" stroke="red" stroke-dasharray="1,5" d="M183.314,-88.3069C184.532,-76.8856 186.006,-63.0699 187.148,-52.3655"/>
</g>
<!-- allMatches_e7 -->
<g id="node10" class="node"><title>allMatches_e7</title>
<text text-anchor="middle" x="272" y="-31.5" font-family="Arial" font-size="10.00">allMatches</text>
</g>
<!-- e7&#45;&#45;allMatches_e7 -->
<g id="edge10" class="edge"><title>e7&#45;&#45;allMatches_e7</title>
<path fill="none" stroke="black" stroke-dasharray="1,5" d="M274.132,-88.3069C273.675,-76.8856 273.123,-63.0699 272.695,-52.3655"/>
</g>
<!-- d8 -->
<g id="node11" class="node"><title>d8</title>
<text text-anchor="middle" x="349" y="-31.5" font-family="Arial" font-size="10.00" fill="red">destroy</text>
</g>
<!-- e7&#45;&#45;d8 -->
<g id="edge12" class="edge"><title>e7&#45;&#45;d8</title>
<path fill="none" stroke="red" stroke-dasharray="1,5" d="M296.404,-88.3069C307.673,-76.8856 321.304,-63.0699 331.866,-52.3655"/>
</g>
</g>
</svg>
