<?xml version="1.0" encoding="UTF-8" standalone="no"?>
<!DOCTYPE svg PUBLIC "-//W3C//DTD SVG 1.1//EN"
 "http://www.w3.org/Graphics/SVG/1.1/DTD/svg11.dtd">
<!-- Generated by graphviz version 2.28.0 (20110507.0327)
 -->
<!-- Title: ObjectDiagram Pages: 1 -->
<svg width="141pt" height="222pt"
 viewBox="0.00 0.00 141.00 222.00" xmlns="http://www.w3.org/2000/svg" xmlns:xlink="http://www.w3.org/1999/xlink">
<g id="graph1" class="graph" transform="scale(1 1) rotate(0) translate(4 218)">
<title>ObjectDiagram</title>
<polygon fill="white" stroke="white" points="-4,5 -4,-218 138,-218 138,5 -4,5"/>
<!-- n1 -->
<g id="node1" class="node"><title>n1</title>
<polygon fill="aliceblue" stroke="aliceblue" points="36.5,-158.5 36.5,-209.5 99.5,-209.5 99.5,-158.5 36.5,-158.5"/>
<text text-anchor="start" x="61" y="-199.5" font-family="Times New Roman,serif" font-size="10.00">«bound»</text>
<polygon fill="none" stroke="black" points="37,-178 37,-194 100,-194 100,-178 37,-178"/>
<text text-anchor="start" x="40.5" y="-184" font-family="Times New Roman,serif" font-size="10.00"> </text>
<text text-anchor="start" x="43.5" y="-184" font-family="Times New Roman,serif" font-size="10.00"> n1 :NodePO </text>
<polygon fill="none" stroke="black" points="37,-158 37,-178 100,-178 100,-158 37,-158"/>
<text text-anchor="start" x="66" y="-166" font-family="Times New Roman,serif" font-size="10.00"> &#160;</text>
</g>
<!-- e2 -->
<g id="node2" class="node"><title>e2</title>
<polygon fill="aliceblue" stroke="aliceblue" points="37.5,-76.5 37.5,-113.5 98.5,-113.5 98.5,-76.5 37.5,-76.5"/>
<polygon fill="none" stroke="black" points="38,-96 38,-113 99,-113 99,-96 38,-96"/>
<text text-anchor="start" x="41.5" y="-102.5" font-family="Times New Roman,serif" font-size="10.00"> </text>
<text text-anchor="start" x="44.5" y="-102.5" font-family="Times New Roman,serif" font-size="10.00"> e2 :EdgePO </text>
<polygon fill="none" stroke="black" points="38,-76 38,-96 99,-96 99,-76 38,-76"/>
<text text-anchor="start" x="66" y="-84" font-family="Times New Roman,serif" font-size="10.00"> &#160;</text>
</g>
<!-- n1&#45;&#45;e2 -->
<g id="edge6" class="edge"><title>n1&#45;&#45;e2</title>
<path fill="none" stroke="black" d="M68,-154.03C68,-142.167 68,-128.675 68,-117.687"/>
<text text-anchor="middle" x="72.2262" y="-124.25" font-family="Times New Roman,serif" font-size="10.00">inEdges</text>
</g>
<!-- allMatches -->
<g id="node3" class="node"><title>allMatches</title>
<text text-anchor="middle" x="30" y="-15.5" font-family="Times New Roman,serif" font-size="10.00">allMatches</text>
</g>
<!-- e2&#45;&#45;allMatches -->
<g id="edge2" class="edge"><title>e2&#45;&#45;allMatches</title>
<path fill="none" stroke="black" stroke-dasharray="1,5" d="M57.0088,-72.3069C51.222,-60.8856 44.2221,-47.0699 38.7985,-36.3655"/>
</g>
<!-- d3 -->
<g id="node4" class="node"><title>d3</title>
<text text-anchor="middle" x="106" y="-15.5" font-family="Times New Roman,serif" font-size="10.00" fill="red">destroy</text>
</g>
<!-- e2&#45;&#45;d3 -->
<g id="edge4" class="edge"><title>e2&#45;&#45;d3</title>
<path fill="none" stroke="red" stroke-dasharray="1,5" d="M78.9912,-72.3069C84.778,-60.8856 91.7779,-47.0699 97.2015,-36.3655"/>
</g>
</g>
</svg>
