<?xml version="1.0" encoding="UTF-8" standalone="no"?>
<!DOCTYPE svg PUBLIC "-//W3C//DTD SVG 1.1//EN"
 "http://www.w3.org/Graphics/SVG/1.1/DTD/svg11.dtd">
<!-- Generated by graphviz version 2.26.3 (20100126.1600)
 -->
<!-- Title: ObjectDiagram Pages: 1 -->
<svg width="466pt" height="331pt"
 viewBox="0.00 0.00 466.00 331.00" xmlns="http://www.w3.org/2000/svg" xmlns:xlink="http://www.w3.org/1999/xlink">
<g id="graph1" class="graph" transform="scale(1 1) rotate(0) translate(4 327)">
<title>ObjectDiagram</title>
<polygon fill="white" stroke="white" points="-4,5 -4,-327 463,-327 463,5 -4,5"/>
<g id="graph2" class="cluster"><title>cluster_o3</title>
<polygon fill="none" stroke="grey" points="76,-8 76,-173 232,-173 232,-8 76,-8"/>
<text text-anchor="start" x="115.5" y="-153.733" font-family="Times Roman,serif" font-size="14.00">optional o3</text>
</g>
<g id="graph3" class="cluster"><title>cluster_o6</title>
<polygon fill="none" stroke="grey" points="240,-8 240,-173 396,-173 396,-8 240,-8"/>
<text text-anchor="start" x="279.5" y="-153.733" font-family="Times Roman,serif" font-size="14.00">optional o6</text>
</g>
<!-- g1 -->
<g id="node1" class="node"><title>g1</title>
<polygon fill="deepskyblue" stroke="deepskyblue" points="197,-267.5 197,-318.5 275,-318.5 275,-267.5 197,-267.5"/>
<text text-anchor="start" x="230" y="-308.167" font-family="Times Roman,serif" font-size="10.00">«bound»</text>
<polygon fill="none" stroke="black" points="197,-287 197,-303 275,-303 275,-287 197,-287"/>
<text text-anchor="start" x="200.5" y="-292.667" font-family="Times Roman,serif" font-size="10.00"> </text>
<text text-anchor="start" x="204.5" y="-292.667" font-family="Times Roman,serif" font-size="10.00"> g1 :GraphPO </text>
<polygon fill="none" stroke="black" points="197,-267 197,-287 275,-287 275,-267 197,-267"/>
<text text-anchor="start" x="232.5" y="-274.667" font-family="Times Roman,serif" font-size="10.00"> &#160;</text>
</g>
<!-- n2 -->
<g id="node2" class="node"><title>n2</title>
<polygon fill="deepskyblue" stroke="deepskyblue" points="192.5,-185.5 192.5,-222.5 279.5,-222.5 279.5,-185.5 192.5,-185.5"/>
<polygon fill="none" stroke="black" points="193,-205 193,-222 280,-222 280,-205 193,-205"/>
<text text-anchor="start" x="202.5" y="-211.167" font-family="Times Roman,serif" font-size="10.00"> </text>
<text text-anchor="start" x="206.5" y="-211.167" font-family="Times Roman,serif" font-size="10.00"> n2 :NodePO </text>
<polygon fill="none" stroke="black" points="193,-185 193,-205 280,-205 280,-185 193,-185"/>
<text text-anchor="start" x="198.5" y="-192.667" font-family="Times Roman,serif" font-size="10.00"> name == &quot;n1&quot; </text>
</g>
<!-- g1&#45;&#45;n2 -->
<g id="edge16" class="edge"><title>g1&#45;&#45;n2</title>
<path fill="none" stroke="black" d="M236,-263.364C236,-251.431 236,-237.885 236,-226.75"/>
<text text-anchor="middle" x="240.226" y="-232.813" font-family="Times Roman,serif" font-size="10.00">nodes</text>
</g>
<!-- allMatches_n2 -->
<g id="node3" class="node"><title>allMatches_n2</title>
<text text-anchor="middle" x="34" y="-108" font-family="Times Roman,serif" font-size="10.00">allMatches</text>
</g>
<!-- n2&#45;&#45;allMatches_n2 -->
<g id="edge4" class="edge"><title>n2&#45;&#45;allMatches_n2</title>
<path fill="none" stroke="black" stroke-dasharray="1,5" d="M184.952,-198.902C143.83,-193.976 90.0079,-185.423 72,-173 56.62,-162.39 46.3224,-143.326 40.3712,-129.128"/>
</g>
<!-- e4 -->
<g id="node5" class="node"><title>e4</title>
<polygon fill="deepskyblue" stroke="deepskyblue" points="143.5,-92.5 143.5,-129.5 216.5,-129.5 216.5,-92.5 143.5,-92.5"/>
<polygon fill="none" stroke="black" points="144,-112 144,-129 217,-129 217,-112 144,-112"/>
<text text-anchor="start" x="147.5" y="-118.167" font-family="Times Roman,serif" font-size="10.00"> </text>
<text text-anchor="start" x="151.5" y="-118.167" font-family="Times Roman,serif" font-size="10.00"> e4 :EdgePO </text>
<polygon fill="none" stroke="black" points="144,-92 144,-112 217,-112 217,-92 144,-92"/>
<text text-anchor="start" x="177" y="-99.6667" font-family="Times Roman,serif" font-size="10.00"> &#160;</text>
</g>
<!-- n2&#45;&#45;e4 -->
<g id="edge18" class="edge"><title>n2&#45;&#45;e4</title>
<path fill="none" stroke="black" d="M222.444,-181.487C213.704,-166.973 202.379,-148.165 193.625,-133.628"/>
<text text-anchor="middle" x="201.921" y="-136.212" font-family="Times Roman,serif" font-size="10.00">outEdges</text>
</g>
<!-- e7 -->
<g id="node9" class="node"><title>e7</title>
<polygon fill="deepskyblue" stroke="deepskyblue" points="255.5,-92.5 255.5,-129.5 328.5,-129.5 328.5,-92.5 255.5,-92.5"/>
<polygon fill="none" stroke="black" points="256,-112 256,-129 329,-129 329,-112 256,-112"/>
<text text-anchor="start" x="259.5" y="-118.167" font-family="Times Roman,serif" font-size="10.00"> </text>
<text text-anchor="start" x="263.5" y="-118.167" font-family="Times Roman,serif" font-size="10.00"> e7 :EdgePO </text>
<polygon fill="none" stroke="black" points="256,-92 256,-112 329,-112 329,-92 256,-92"/>
<text text-anchor="start" x="289" y="-99.6667" font-family="Times Roman,serif" font-size="10.00"> &#160;</text>
</g>
<!-- n2&#45;&#45;e7 -->
<g id="edge20" class="edge"><title>n2&#45;&#45;e7</title>
<path fill="none" stroke="black" d="M249.556,-181.487C258.296,-166.973 269.621,-148.165 278.375,-133.628"/>
<text text-anchor="middle" x="277.32" y="-140.572" font-family="Times Roman,serif" font-size="10.00">inEdges</text>
</g>
<!-- d9 -->
<g id="node12" class="node"><title>d9</title>
<text text-anchor="middle" x="431" y="-108" font-family="Times Roman,serif" font-size="10.00" fill="red">destroy</text>
</g>
<!-- n2&#45;&#45;d9 -->
<g id="edge14" class="edge"><title>n2&#45;&#45;d9</title>
<path fill="none" stroke="red" stroke-dasharray="1,5" d="M287.327,-199.288C328.623,-194.603 382.544,-186.187 400,-173 414.211,-162.264 422.352,-143.219 426.691,-129.061"/>
</g>
<!-- allMatches_e4 -->
<g id="node6" class="node"><title>allMatches_e4</title>
<text text-anchor="middle" x="118" y="-31" font-family="Times Roman,serif" font-size="10.00">allMatches</text>
</g>
<!-- e4&#45;&#45;allMatches_e4 -->
<g id="edge6" class="edge"><title>e4&#45;&#45;allMatches_e4</title>
<path fill="none" stroke="black" stroke-dasharray="1,5" d="M161.733,-88.3139C152.446,-76.7799 141.314,-62.954 132.605,-52.1382"/>
</g>
<!-- d5 -->
<g id="node7" class="node"><title>d5</title>
<text text-anchor="middle" x="197" y="-31" font-family="Times Roman,serif" font-size="10.00" fill="red">destroy</text>
</g>
<!-- e4&#45;&#45;d5 -->
<g id="edge8" class="edge"><title>e4&#45;&#45;d5</title>
<path fill="none" stroke="red" stroke-dasharray="1,5" d="M185.009,-88.3139C187.555,-76.7799 190.608,-62.954 192.995,-52.1382"/>
</g>
<!-- allMatches_e7 -->
<g id="node10" class="node"><title>allMatches_e7</title>
<text text-anchor="middle" x="282" y="-31" font-family="Times Roman,serif" font-size="10.00">allMatches</text>
</g>
<!-- e7&#45;&#45;allMatches_e7 -->
<g id="edge10" class="edge"><title>e7&#45;&#45;allMatches_e7</title>
<path fill="none" stroke="black" stroke-dasharray="1,5" d="M289.054,-88.3139C287.556,-76.7799 285.76,-62.954 284.356,-52.1382"/>
</g>
<!-- d8 -->
<g id="node11" class="node"><title>d8</title>
<text text-anchor="middle" x="361" y="-31" font-family="Times Roman,serif" font-size="10.00" fill="red">destroy</text>
</g>
<!-- e7&#45;&#45;d8 -->
<g id="edge12" class="edge"><title>e7&#45;&#45;d8</title>
<path fill="none" stroke="red" stroke-dasharray="1,5" d="M312.329,-88.3139C322.665,-76.7799 335.054,-62.954 344.746,-52.1382"/>
</g>
</g>
</svg>
