<?xml version="1.0" encoding="UTF-8" standalone="no"?>
<!DOCTYPE svg PUBLIC "-//W3C//DTD SVG 1.1//EN"
 "http://www.w3.org/Graphics/SVG/1.1/DTD/svg11.dtd">
<!-- Generated by graphviz version 2.28.0 (20110507.0327)
 -->
<!-- Title: ClassDiagram Pages: 1 -->
<svg width="90pt" height="204pt"
 viewBox="0.00 0.00 90.00 204.00" xmlns="http://www.w3.org/2000/svg" xmlns:xlink="http://www.w3.org/1999/xlink">
<g id="graph1" class="graph" transform="scale(1 1) rotate(0) translate(4 200)">
<title>ClassDiagram</title>
<polygon fill="white" stroke="white" points="-4,5 -4,-200 87,-200 87,5 -4,5"/>
<!-- _Building -->
<g id="node1" class="node"><title>_Building</title>
<a xlink:href="../test/de/kassel/roombook/Building.java" xlink:title="&lt;TABLE&gt;">
<polygon fill="none" stroke="black" points="8,-174 8,-191 75,-191 75,-174 8,-174"/>
<text text-anchor="start" x="24" y="-180.5" font-family="Arial" font-size="10.00">Building</text>
</a>
<polygon fill="none" stroke="black" points="8,-154 8,-174 75,-174 75,-154 8,-154"/>
<text text-anchor="start" x="13" y="-162" font-family="Arial" font-size="10.00">name :String</text>
<polygon fill="none" stroke="black" points="8,-134 8,-154 75,-154 75,-134 8,-134"/>
<text text-anchor="start" x="39.5" y="-142" font-family="Arial" font-size="10.00"> </text>
</g>
<!-- _Floor -->
<g id="node2" class="node"><title>_Floor</title>
<a xlink:href="../test/de/kassel/roombook/Floor.java" xlink:title="&lt;TABLE&gt;">
<polygon fill="none" stroke="black" points="8,-72 8,-89 75,-89 75,-72 8,-72"/>
<text text-anchor="start" x="30.5" y="-78.5" font-family="Arial" font-size="10.00">Floor</text>
</a>
<polygon fill="none" stroke="black" points="8,-24 8,-72 75,-72 75,-24 8,-24"/>
<text text-anchor="start" x="13" y="-60" font-family="Arial" font-size="10.00">name :String</text>
<text text-anchor="start" x="13" y="-46" font-family="Arial" font-size="10.00">level :String</text>
<text text-anchor="start" x="13" y="-32" font-family="Arial" font-size="10.00">guest :String</text>
<polygon fill="none" stroke="black" points="8,-4 8,-24 75,-24 75,-4 8,-4"/>
<text text-anchor="start" x="39.5" y="-12" font-family="Arial" font-size="10.00"> </text>
</g>
<!-- _Building&#45;&gt;_Floor -->
<g id="edge2" class="edge"><title>_Building&#45;&gt;_Floor</title>
<path fill="none" stroke="black" d="M41,-130.245C41,-118.913 41,-105.913 41,-93.6447"/>
<text text-anchor="middle" x="45.2262" y="-100.208" font-family="Arial" font-size="10.00">has *</text>
<text text-anchor="middle" x="36.7738" y="-118.682" font-family="Arial" font-size="10.00">buildings *</text>
</g>
</g>
</svg>
