<?xml version="1.0" encoding="UTF-8" standalone="no"?>
<!DOCTYPE svg PUBLIC "-//W3C//DTD SVG 1.1//EN"
 "http://www.w3.org/Graphics/SVG/1.1/DTD/svg11.dtd">
<!-- Generated by graphviz version 2.28.0 (20110507.0327)
 -->
<!-- Title: ClassDiagram Pages: 1 -->
<svg width="82pt" height="190pt"
 viewBox="0.00 0.00 82.00 190.00" xmlns="http://www.w3.org/2000/svg" xmlns:xlink="http://www.w3.org/1999/xlink">
<g id="graph1" class="graph" transform="scale(1 1) rotate(0) translate(4 186)">
<title>ClassDiagram</title>
<polygon fill="white" stroke="white" points="-4,5 -4,-186 79,-186 79,5 -4,5"/>
<!-- Building -->
<g id="node1" class="node"><title>Building</title>
<polygon fill="none" stroke="black" points="13,-160 13,-177 61,-177 61,-160 13,-160"/>
<text text-anchor="start" x="20" y="-166.5" font-family="Times New Roman,serif" font-size="10.00">Building</text>
<polygon fill="none" stroke="black" points="13,-140 13,-160 61,-160 61,-140 13,-140"/>
<text text-anchor="start" x="18" y="-148" font-family="Times New Roman,serif" font-size="10.00">id :String</text>
<polygon fill="none" stroke="black" points="13,-120 13,-140 61,-140 61,-120 13,-120"/>
<text text-anchor="start" x="35.5" y="-128" font-family="Times New Roman,serif" font-size="10.00"> </text>
</g>
<!-- Floor -->
<g id="node2" class="node"><title>Floor</title>
<polygon fill="none" stroke="black" points="8,-58 8,-75 67,-75 67,-58 8,-58"/>
<text text-anchor="start" x="26.5" y="-64.5" font-family="Times New Roman,serif" font-size="10.00">Floor</text>
<polygon fill="none" stroke="black" points="8,-24 8,-58 67,-58 67,-24 8,-24"/>
<text text-anchor="start" x="13" y="-46" font-family="Times New Roman,serif" font-size="10.00">id :String</text>
<text text-anchor="start" x="13" y="-32" font-family="Times New Roman,serif" font-size="10.00">level :String</text>
<polygon fill="none" stroke="black" points="8,-4 8,-24 67,-24 67,-4 8,-4"/>
<text text-anchor="start" x="36" y="-12" font-family="Times New Roman,serif" font-size="10.00"> </text>
</g>
<!-- Building&#45;&gt;Floor -->
<g id="edge2" class="edge"><title>Building&#45;&gt;Floor</title>
<path fill="none" stroke="black" d="M37,-116.475C37,-105.009 37,-91.9132 37,-79.8848"/>
<text text-anchor="middle" x="41.2262" y="-86.4479" font-family="Times New Roman,serif" font-size="10.00">has *</text>
<text text-anchor="middle" x="32.7738" y="-104.912" font-family="Times New Roman,serif" font-size="10.00">buildings *</text>
</g>
</g>
</svg>
