<?xml version="1.0" encoding="UTF-8" standalone="no"?>
<!DOCTYPE svg PUBLIC "-//W3C//DTD SVG 1.1//EN"
 "http://www.w3.org/Graphics/SVG/1.1/DTD/svg11.dtd">
<!-- Generated by graphviz version 2.28.0 (20110507.0327)
 -->
<!-- Title: ClassDiagram Pages: 1 -->
<svg width="90pt" height="176pt"
 viewBox="0.00 0.00 90.00 176.00" xmlns="http://www.w3.org/2000/svg" xmlns:xlink="http://www.w3.org/1999/xlink">
<g id="graph1" class="graph" transform="scale(1 1) rotate(0) translate(4 172)">
<title>ClassDiagram</title>
<polygon fill="white" stroke="white" points="-4,5 -4,-172 87,-172 87,5 -4,5"/>
<!-- _University -->
<g id="node1" class="node"><title>_University</title>
<a xlink:href="../examples/org/sdmlib/examples/emfstudyright/University.java" xlink:title="&lt;TABLE&gt;">
<polygon fill="none" stroke="black" points="11,-146 11,-163 72,-163 72,-146 11,-146"/>
<text text-anchor="start" x="20" y="-152.5" font-family="Times New Roman,serif" font-size="10.00">University</text>
</a>
<polygon fill="none" stroke="black" points="11,-126 11,-146 72,-146 72,-126 11,-126"/>
<text text-anchor="start" x="16" y="-134" font-family="Times New Roman,serif" font-size="10.00">name :String</text>
<polygon fill="none" stroke="black" points="11,-106 11,-126 72,-126 72,-106 11,-106"/>
<text text-anchor="start" x="40" y="-114" font-family="Times New Roman,serif" font-size="10.00"> </text>
</g>
<!-- _Student -->
<g id="node2" class="node"><title>_Student</title>
<a xlink:href="../examples/org/sdmlib/examples/emfstudyright/Student.java" xlink:title="&lt;TABLE&gt;">
<polygon fill="none" stroke="black" points="8,-44 8,-61 74,-61 74,-44 8,-44"/>
<text text-anchor="start" x="25" y="-50.5" font-family="Times New Roman,serif" font-size="10.00">Student</text>
</a>
<polygon fill="none" stroke="black" points="8,-24 8,-44 74,-44 74,-24 8,-24"/>
<text text-anchor="start" x="13" y="-32" font-family="Times New Roman,serif" font-size="10.00">studId :String</text>
<polygon fill="none" stroke="black" points="8,-4 8,-24 74,-24 74,-4 8,-4"/>
<text text-anchor="start" x="39.5" y="-12" font-family="Times New Roman,serif" font-size="10.00"> </text>
</g>
<!-- _University&#45;&gt;_Student -->
<g id="edge2" class="edge"><title>_University&#45;&gt;_Student</title>
<path fill="none" stroke="black" d="M41,-102.359C41,-90.6864 41,-77.4631 41,-65.778"/>
<text text-anchor="middle" x="45.2262" y="-72.3411" font-family="Times New Roman,serif" font-size="10.00">students *</text>
<text text-anchor="middle" x="36.7738" y="-90.7963" font-family="Times New Roman,serif" font-size="10.00">uni</text>
</g>
</g>
</svg>
