<?xml version="1.0" encoding="UTF-8" standalone="no"?>
<!DOCTYPE svg PUBLIC "-//W3C//DTD SVG 1.1//EN"
 "http://www.w3.org/Graphics/SVG/1.1/DTD/svg11.dtd">
<!-- Generated by graphviz version 2.28.0 (20110507.0327)
 -->
<!-- Title: ObjectDiagram Pages: 1 -->
<svg width="401pt" height="250pt"
 viewBox="0.00 0.00 401.00 250.00" xmlns="http://www.w3.org/2000/svg" xmlns:xlink="http://www.w3.org/1999/xlink">
<g id="graph1" class="graph" transform="scale(1 1) rotate(0) translate(4 246)">
<title>ObjectDiagram</title>
<polygon fill="white" stroke="white" points="-4,5 -4,-246 398,-246 398,5 -4,5"/>
<!-- r1 -->
<g id="node1" class="node"><title>r1</title>
<a xlink:href="../test/org/sdmlib/models/patterns/example/ferrmansproblem/River.java" xlink:title="&lt;TABLE&gt;">
<polygon fill="none" stroke="black" points="115,-215 115,-232 159,-232 159,-215 115,-215"/>
<text text-anchor="start" x="118.5" y="-221.5" font-family="Times New Roman,serif" font-size="10.00"> </text>
<text text-anchor="start" x="121.5" y="-221.5" font-family="Times New Roman,serif" font-size="10.00">r1 :River</text>
</a>
</g>
<!-- b2 -->
<g id="node2" class="node"><title>b2</title>
<a xlink:href="../test/org/sdmlib/models/patterns/example/ferrmansproblem/Bank.java" xlink:title="&lt;TABLE&gt;">
<polygon fill="none" stroke="black" points="105,-141 105,-158 169,-158 169,-141 105,-141"/>
<text text-anchor="start" x="118" y="-147.5" font-family="Times New Roman,serif" font-size="10.00"> </text>
<text text-anchor="start" x="121" y="-147.5" font-family="Times New Roman,serif" font-size="10.00">b2 :Bank</text>
</a>
<polygon fill="none" stroke="black" points="105,-107 105,-141 169,-141 169,-107 105,-107"/>
<text text-anchor="start" x="110" y="-129" font-family="Times New Roman,serif" font-size="10.00">name = &quot;left&quot;</text>
<text text-anchor="start" x="110" y="-115" font-family="Times New Roman,serif" font-size="10.00">age = 0</text>
</g>
<!-- r1&#45;&#45;b2 -->
<g id="edge2" class="edge"><title>r1&#45;&#45;b2</title>
<path fill="none" stroke="black" d="M137,-205.84C137,-193.616 137,-176.898 137,-162.665"/>
<text text-anchor="middle" x="141.226" y="-169.228" font-family="Times New Roman,serif" font-size="10.00">banks</text>
<text text-anchor="middle" x="132.774" y="-194.277" font-family="Times New Roman,serif" font-size="10.00">river</text>
</g>
<!-- b3 -->
<g id="node3" class="node"><title>b3</title>
<a xlink:href="../test/org/sdmlib/models/patterns/example/ferrmansproblem/Boat.java" xlink:title="&lt;TABLE&gt;">
<polygon fill="none" stroke="black" points="8,-31 8,-48 61,-48 61,-31 8,-31"/>
<text text-anchor="start" x="16" y="-37.5" font-family="Times New Roman,serif" font-size="10.00"> </text>
<text text-anchor="start" x="19" y="-37.5" font-family="Times New Roman,serif" font-size="10.00">b3 :Boat</text>
</a>
<polygon fill="none" stroke="black" points="8,-11 8,-31 61,-31 61,-11 8,-11"/>
<text text-anchor="start" x="13" y="-19" font-family="Times New Roman,serif" font-size="10.00">cargo = &quot;&quot;</text>
</g>
<!-- r1&#45;&#45;b3 -->
<g id="edge6" class="edge"><title>r1&#45;&#45;b3</title>
<path fill="none" stroke="black" d="M117.918,-205.77C107.986,-196.025 96.2326,-183.179 88,-170 64.1338,-131.795 47.7641,-81.3103 39.7259,-52.8885"/>
<text text-anchor="middle" x="46.3136" y="-57.9119" font-family="Times New Roman,serif" font-size="10.00">boat</text>
<text text-anchor="middle" x="108.513" y="-199.873" font-family="Times New Roman,serif" font-size="10.00">river</text>
</g>
<!-- b7 -->
<g id="node7" class="node"><title>b7</title>
<a xlink:href="../test/org/sdmlib/models/patterns/example/ferrmansproblem/Bank.java" xlink:title="&lt;TABLE&gt;">
<polygon fill="none" stroke="black" points="203,-148 203,-165 273,-165 273,-148 203,-148"/>
<text text-anchor="start" x="219" y="-154.5" font-family="Times New Roman,serif" font-size="10.00"> </text>
<text text-anchor="start" x="222" y="-154.5" font-family="Times New Roman,serif" font-size="10.00">b7 :Bank</text>
</a>
<polygon fill="none" stroke="black" points="203,-100 203,-148 273,-148 273,-100 203,-100"/>
<text text-anchor="start" x="208" y="-136" font-family="Times New Roman,serif" font-size="10.00">name = &quot;right&quot;</text>
<text text-anchor="start" x="208" y="-122" font-family="Times New Roman,serif" font-size="10.00">age = 0</text>
<text text-anchor="start" x="208" y="-108" font-family="Times New Roman,serif" font-size="10.00">boat = &quot;&quot;</text>
</g>
<!-- r1&#45;&#45;b7 -->
<g id="edge4" class="edge"><title>r1&#45;&#45;b7</title>
<path fill="none" stroke="black" d="M156.474,-205.84C168.168,-195.535 183.486,-182.037 197.683,-169.527"/>
<text text-anchor="middle" x="193.677" y="-176.19" font-family="Times New Roman,serif" font-size="10.00">banks</text>
<text text-anchor="middle" x="160.48" y="-194.177" font-family="Times New Roman,serif" font-size="10.00">river</text>
</g>
<!-- b2&#45;&#45;b3 -->
<g id="edge8" class="edge"><title>b2&#45;&#45;b3</title>
<path fill="none" stroke="black" d="M107.76,-103.328C91.3447,-87.2312 71.1934,-67.4712 56.104,-52.6748"/>
<text text-anchor="middle" x="65.534" y="-53.5027" font-family="Times New Roman,serif" font-size="10.00">boat</text>
<text text-anchor="middle" x="98.3298" y="-97.4997" font-family="Times New Roman,serif" font-size="10.00">bank</text>
</g>
<!-- c4 -->
<g id="node4" class="node"><title>c4</title>
<a xlink:href="../test/org/sdmlib/models/patterns/example/ferrmansproblem/Cargo.java" xlink:title="&lt;TABLE&gt;">
<polygon fill="none" stroke="black" points="95,-38 95,-55 180,-55 180,-38 95,-38"/>
<text text-anchor="start" x="117" y="-44.5" font-family="Times New Roman,serif" font-size="10.00"> </text>
<text text-anchor="start" x="120" y="-44.5" font-family="Times New Roman,serif" font-size="10.00">c4 :Cargo</text>
</a>
<polygon fill="none" stroke="black" points="95,-4 95,-38 180,-38 180,-4 95,-4"/>
<text text-anchor="start" x="100" y="-26" font-family="Times New Roman,serif" font-size="10.00">name = &quot;cabbage&quot;</text>
<text text-anchor="start" x="100" y="-12" font-family="Times New Roman,serif" font-size="10.00">boat = &quot;&quot;</text>
</g>
<!-- b2&#45;&#45;c4 -->
<g id="edge10" class="edge"><title>b2&#45;&#45;c4</title>
<path fill="none" stroke="black" d="M137,-103.328C137,-89.6807 137,-73.4002 137,-59.7441"/>
<text text-anchor="middle" x="141.226" y="-66.3072" font-family="Times New Roman,serif" font-size="10.00">cargos</text>
<text text-anchor="middle" x="132.774" y="-91.7645" font-family="Times New Roman,serif" font-size="10.00">bank</text>
</g>
<!-- c5 -->
<g id="node5" class="node"><title>c5</title>
<a xlink:href="../test/org/sdmlib/models/patterns/example/ferrmansproblem/Cargo.java" xlink:title="&lt;TABLE&gt;">
<polygon fill="none" stroke="black" points="214,-38 214,-55 283,-55 283,-38 214,-38"/>
<text text-anchor="start" x="228" y="-44.5" font-family="Times New Roman,serif" font-size="10.00"> </text>
<text text-anchor="start" x="231" y="-44.5" font-family="Times New Roman,serif" font-size="10.00">c5 :Cargo</text>
</a>
<polygon fill="none" stroke="black" points="214,-4 214,-38 283,-38 283,-4 214,-4"/>
<text text-anchor="start" x="219" y="-26" font-family="Times New Roman,serif" font-size="10.00">name = &quot;goat&quot;</text>
<text text-anchor="start" x="219" y="-12" font-family="Times New Roman,serif" font-size="10.00">boat = &quot;&quot;</text>
</g>
<!-- b2&#45;&#45;c5 -->
<g id="edge12" class="edge"><title>b2&#45;&#45;c5</title>
<path fill="none" stroke="black" d="M168.511,-103.328C183.509,-89.6807 201.402,-73.4002 216.41,-59.7441"/>
<text text-anchor="middle" x="212.551" y="-66.4694" font-family="Times New Roman,serif" font-size="10.00">cargos</text>
<text text-anchor="middle" x="172.37" y="-91.6023" font-family="Times New Roman,serif" font-size="10.00">bank</text>
</g>
<!-- c6 -->
<g id="node6" class="node"><title>c6</title>
<a xlink:href="../test/org/sdmlib/models/patterns/example/ferrmansproblem/Cargo.java" xlink:title="&lt;TABLE&gt;">
<polygon fill="none" stroke="black" points="317,-38 317,-55 386,-55 386,-38 317,-38"/>
<text text-anchor="start" x="331" y="-44.5" font-family="Times New Roman,serif" font-size="10.00"> </text>
<text text-anchor="start" x="334" y="-44.5" font-family="Times New Roman,serif" font-size="10.00">c6 :Cargo</text>
</a>
<polygon fill="none" stroke="black" points="317,-4 317,-38 386,-38 386,-4 317,-4"/>
<text text-anchor="start" x="322" y="-26" font-family="Times New Roman,serif" font-size="10.00">name = &quot;wolf&quot;</text>
<text text-anchor="start" x="322" y="-12" font-family="Times New Roman,serif" font-size="10.00">boat = &quot;&quot;</text>
</g>
<!-- b2&#45;&#45;c6 -->
<g id="edge14" class="edge"><title>b2&#45;&#45;c6</title>
<path fill="none" stroke="black" d="M173.363,-103.339C177.508,-100.666 181.767,-98.1557 186,-96 232.969,-72.0805 250.629,-80.9415 299,-60 302.13,-58.6448 305.318,-57.157 308.495,-55.5935"/>
<text text-anchor="middle" x="302.213" y="-60.8738" font-family="Times New Roman,serif" font-size="10.00">cargos</text>
<text text-anchor="middle" x="178.723" y="-92.3972" font-family="Times New Roman,serif" font-size="10.00">bank</text>
</g>
</g>
</svg>
