<?xml version="1.0" encoding="UTF-8" standalone="no"?>
<!DOCTYPE svg PUBLIC "-//W3C//DTD SVG 1.1//EN"
 "http://www.w3.org/Graphics/SVG/1.1/DTD/svg11.dtd">
<!-- Generated by graphviz version 2.28.0 (20110507.0327)
 -->
<!-- Title: ObjectDiagram Pages: 1 -->
<svg width="689pt" height="516pt"
 viewBox="0.00 0.00 689.00 516.00" xmlns="http://www.w3.org/2000/svg" xmlns:xlink="http://www.w3.org/1999/xlink">
<g id="graph1" class="graph" transform="scale(1 1) rotate(0) translate(4 512)">
<title>ObjectDiagram</title>
<polygon fill="white" stroke="white" points="-4,5 -4,-512 686,-512 686,5 -4,5"/>
<!-- r8 -->
<g id="node1" class="node"><title>r8</title>
<polygon fill="none" stroke="black" points="197,-481 197,-498 293,-498 293,-481 197,-481"/>
<text text-anchor="start" x="200.5" y="-487.5" font-family="Times New Roman,serif" font-size="10.00"> </text>
<text text-anchor="start" x="203.5" y="-487.5" font-family="Times New Roman,serif" font-size="10.00">r8 :ReachabilityGraph</text>
</g>
<!-- r9 -->
<g id="node2" class="node"><title>r9</title>
<polygon fill="none" stroke="black" points="242,-409 242,-426 326,-426 326,-409 242,-409"/>
<text text-anchor="start" x="245.5" y="-415.5" font-family="Times New Roman,serif" font-size="10.00"> </text>
<text text-anchor="start" x="248.5" y="-415.5" font-family="Times New Roman,serif" font-size="10.00">r9 :ReachableState</text>
</g>
<!-- r8&#45;&#45;r9 -->
<g id="edge2" class="edge"><title>r8&#45;&#45;r9</title>
<path fill="none" stroke="black" d="M254.64,-471.697C260.686,-460.846 268.446,-446.917 274.47,-436.104"/>
<text text-anchor="middle" x="273.751" y="-443.578" font-family="Times New Roman,serif" font-size="10.00">states</text>
<text text-anchor="middle" x="255.36" y="-459.223" font-family="Times New Roman,serif" font-size="10.00">parent</text>
</g>
<!-- r10 -->
<g id="node3" class="node"><title>r10</title>
<polygon fill="none" stroke="black" points="162,-337 162,-354 251,-354 251,-337 162,-337"/>
<text text-anchor="start" x="165.5" y="-343.5" font-family="Times New Roman,serif" font-size="10.00"> </text>
<text text-anchor="start" x="168.5" y="-343.5" font-family="Times New Roman,serif" font-size="10.00">r10 :ReachableState</text>
</g>
<!-- r8&#45;&#45;r10 -->
<g id="edge4" class="edge"><title>r8&#45;&#45;r10</title>
<path fill="none" stroke="black" d="M237.66,-471.559C233.546,-461.329 228.546,-448.079 225,-436 217.789,-411.441 212.096,-382.325 208.887,-364.253"/>
<text text-anchor="middle" x="214.657" y="-369.921" font-family="Times New Roman,serif" font-size="10.00">states</text>
<text text-anchor="middle" x="230.377" y="-462.206" font-family="Times New Roman,serif" font-size="10.00">parent</text>
</g>
<!-- r9&#45;&#45;r10 -->
<g id="edge6" class="edge"><title>r9&#45;&#45;r10</title>
<path fill="none" stroke="black" d="M264.719,-399.697C252.629,-388.846 237.107,-374.917 225.059,-364.104"/>
<text text-anchor="middle" x="234.627" y="-364.512" font-family="Times New Roman,serif" font-size="10.00">successor</text>
<text text-anchor="middle" x="255.151" y="-394.289" font-family="Times New Roman,serif" font-size="10.00">predecessor</text>
</g>
<!-- r1 -->
<g id="node11" class="node"><title>r1</title>
<polygon fill="none" stroke="black" points="357,-337 357,-354 401,-354 401,-337 357,-337"/>
<text text-anchor="start" x="360.5" y="-343.5" font-family="Times New Roman,serif" font-size="10.00"> </text>
<text text-anchor="start" x="363.5" y="-343.5" font-family="Times New Roman,serif" font-size="10.00">r1 :River</text>
</g>
<!-- r9&#45;&#45;r1 -->
<g id="edge8" class="edge"><title>r9&#45;&#45;r1</title>
<path fill="none" stroke="black" d="M307.483,-399.697C322.209,-388.846 341.113,-374.917 355.787,-364.104"/>
<text text-anchor="middle" x="350.998" y="-370.383" font-family="Times New Roman,serif" font-size="10.00">graphRoot</text>
</g>
<!-- r11 -->
<g id="node4" class="node"><title>r11</title>
<polygon fill="none" stroke="black" points="146,-260 146,-277 194,-277 194,-260 146,-260"/>
<text text-anchor="start" x="149.5" y="-266.5" font-family="Times New Roman,serif" font-size="10.00"> </text>
<text text-anchor="start" x="152.5" y="-266.5" font-family="Times New Roman,serif" font-size="10.00">r11 :River</text>
</g>
<!-- r10&#45;&#45;r11 -->
<g id="edge10" class="edge"><title>r10&#45;&#45;r11</title>
<path fill="none" stroke="black" d="M197.831,-327.981C191.981,-315.794 184.132,-299.442 178.261,-287.211"/>
<text text-anchor="middle" x="185.993" y="-291.053" font-family="Times New Roman,serif" font-size="10.00">graphRoot</text>
</g>
<!-- b12 -->
<g id="node5" class="node"><title>b12</title>
<polygon fill="none" stroke="black" points="102,-188 102,-205 166,-205 166,-188 102,-188"/>
<text text-anchor="start" x="112.5" y="-194.5" font-family="Times New Roman,serif" font-size="10.00"> </text>
<text text-anchor="start" x="115.5" y="-194.5" font-family="Times New Roman,serif" font-size="10.00">b12 :Bank</text>
<polygon fill="none" stroke="black" points="102,-168 102,-188 166,-188 166,-168 102,-168"/>
<text text-anchor="start" x="107.5" y="-176" font-family="Times New Roman,serif" font-size="10.00">name = &quot;left&quot;</text>
</g>
<!-- r11&#45;&#45;b12 -->
<g id="edge12" class="edge"><title>r11&#45;&#45;b12</title>
<path fill="none" stroke="black" d="M162.189,-250.641C156.771,-238.601 149.516,-222.48 143.724,-209.608"/>
<text text-anchor="middle" x="151.297" y="-213.639" font-family="Times New Roman,serif" font-size="10.00">banks</text>
<text text-anchor="middle" x="154.615" y="-241.611" font-family="Times New Roman,serif" font-size="10.00">river</text>
</g>
<!-- b13 -->
<g id="node6" class="node"><title>b13</title>
<polygon fill="none" stroke="black" points="18,-96 18,-113 66,-113 66,-96 18,-96"/>
<text text-anchor="start" x="21.5" y="-102.5" font-family="Times New Roman,serif" font-size="10.00"> </text>
<text text-anchor="start" x="24.5" y="-102.5" font-family="Times New Roman,serif" font-size="10.00">b13 :Boat</text>
</g>
<!-- r11&#45;&#45;b13 -->
<g id="edge16" class="edge"><title>r11&#45;&#45;b13</title>
<path fill="none" stroke="black" d="M137.897,-252.077C120.333,-242.025 99.3023,-227.613 85,-210 63.5697,-183.609 51.4063,-145.048 45.8129,-123.052"/>
<text text-anchor="middle" x="52.2248" y="-128.226" font-family="Times New Roman,serif" font-size="10.00">boat</text>
<text text-anchor="middle" x="127.941" y="-248.638" font-family="Times New Roman,serif" font-size="10.00">river</text>
</g>
<!-- b17 -->
<g id="node10" class="node"><title>b17</title>
<polygon fill="none" stroke="black" points="200,-188 200,-205 270,-205 270,-188 200,-188"/>
<text text-anchor="start" x="213.5" y="-194.5" font-family="Times New Roman,serif" font-size="10.00"> </text>
<text text-anchor="start" x="216.5" y="-194.5" font-family="Times New Roman,serif" font-size="10.00">b17 :Bank</text>
<polygon fill="none" stroke="black" points="200,-168 200,-188 270,-188 270,-168 200,-168"/>
<text text-anchor="start" x="205.5" y="-176" font-family="Times New Roman,serif" font-size="10.00">name = &quot;right&quot;</text>
</g>
<!-- r11&#45;&#45;b17 -->
<g id="edge14" class="edge"><title>r11&#45;&#45;b17</title>
<path fill="none" stroke="black" d="M184.104,-250.641C193.887,-238.601 206.985,-222.48 217.444,-209.608"/>
<text text-anchor="middle" x="215.008" y="-216.807" font-family="Times New Roman,serif" font-size="10.00">banks</text>
<text text-anchor="middle" x="186.539" y="-238.442" font-family="Times New Roman,serif" font-size="10.00">river</text>
</g>
<!-- b12&#45;&#45;b13 -->
<g id="edge18" class="edge"><title>b12&#45;&#45;b13</title>
<path fill="none" stroke="black" d="M108.861,-164.14C93.964,-151.186 75.3644,-135.013 61.5671,-123.015"/>
<text text-anchor="middle" x="71.1793" y="-123.273" font-family="Times New Roman,serif" font-size="10.00">boat</text>
<text text-anchor="middle" x="99.2484" y="-158.882" font-family="Times New Roman,serif" font-size="10.00">bank</text>
</g>
<!-- c15 -->
<g id="node8" class="node"><title>c15</title>
<polygon fill="none" stroke="black" points="101,-106 101,-123 186,-123 186,-106 101,-106"/>
<text text-anchor="start" x="120.5" y="-112.5" font-family="Times New Roman,serif" font-size="10.00"> </text>
<text text-anchor="start" x="123.5" y="-112.5" font-family="Times New Roman,serif" font-size="10.00">c15 :Cargo</text>
<polygon fill="none" stroke="black" points="101,-86 101,-106 186,-106 186,-86 101,-86"/>
<text text-anchor="start" x="106.5" y="-94" font-family="Times New Roman,serif" font-size="10.00">name = &quot;cabbage&quot;</text>
</g>
<!-- b12&#45;&#45;c15 -->
<g id="edge20" class="edge"><title>b12&#45;&#45;c15</title>
<path fill="none" stroke="black" d="M136.459,-164.14C137.74,-152.759 139.3,-138.893 140.575,-127.557"/>
<text text-anchor="middle" x="143.761" y="-134.536" font-family="Times New Roman,serif" font-size="10.00">cargos</text>
<text text-anchor="middle" x="133.273" y="-152.161" font-family="Times New Roman,serif" font-size="10.00">bank</text>
</g>
<!-- c16 -->
<g id="node9" class="node"><title>c16</title>
<polygon fill="none" stroke="black" points="220,-106 220,-123 289,-123 289,-106 220,-106"/>
<text text-anchor="start" x="231.5" y="-112.5" font-family="Times New Roman,serif" font-size="10.00"> </text>
<text text-anchor="start" x="234.5" y="-112.5" font-family="Times New Roman,serif" font-size="10.00">c16 :Cargo</text>
<polygon fill="none" stroke="black" points="220,-86 220,-106 289,-106 289,-86 220,-86"/>
<text text-anchor="start" x="225.5" y="-94" font-family="Times New Roman,serif" font-size="10.00">name = &quot;wolf&quot;</text>
</g>
<!-- b12&#45;&#45;c16 -->
<g id="edge22" class="edge"><title>b12&#45;&#45;c16</title>
<path fill="none" stroke="black" d="M166.474,-164.351C183.549,-152.967 204.421,-139.052 221.5,-127.666"/>
<text text-anchor="middle" x="216.304" y="-133.71" font-family="Times New Roman,serif" font-size="10.00">cargos</text>
<text text-anchor="middle" x="171.67" y="-153.307" font-family="Times New Roman,serif" font-size="10.00">bank</text>
</g>
<!-- c14 -->
<g id="node7" class="node"><title>c14</title>
<polygon fill="none" stroke="black" points="8,-24 8,-41 77,-41 77,-24 8,-24"/>
<text text-anchor="start" x="19.5" y="-30.5" font-family="Times New Roman,serif" font-size="10.00"> </text>
<text text-anchor="start" x="22.5" y="-30.5" font-family="Times New Roman,serif" font-size="10.00">c14 :Cargo</text>
<polygon fill="none" stroke="black" points="8,-4 8,-24 77,-24 77,-4 8,-4"/>
<text text-anchor="start" x="13.5" y="-12" font-family="Times New Roman,serif" font-size="10.00">name = &quot;goat&quot;</text>
</g>
<!-- b13&#45;&#45;c14 -->
<g id="edge24" class="edge"><title>b13&#45;&#45;c14</title>
<path fill="none" stroke="black" d="M42,-86.6412C42,-74.6011 42,-58.4804 42,-45.608"/>
<text text-anchor="middle" x="46.2262" y="-52.171" font-family="Times New Roman,serif" font-size="10.00">cargo</text>
<text text-anchor="middle" x="37.7738" y="-75.0781" font-family="Times New Roman,serif" font-size="10.00">boat</text>
</g>
<!-- b2 -->
<g id="node12" class="node"><title>b2</title>
<polygon fill="none" stroke="black" points="385,-270 385,-287 449,-287 449,-270 385,-270"/>
<text text-anchor="start" x="398" y="-276.5" font-family="Times New Roman,serif" font-size="10.00"> </text>
<text text-anchor="start" x="401" y="-276.5" font-family="Times New Roman,serif" font-size="10.00">b2 :Bank</text>
<polygon fill="none" stroke="black" points="385,-250 385,-270 449,-270 449,-250 385,-250"/>
<text text-anchor="start" x="390.5" y="-258" font-family="Times New Roman,serif" font-size="10.00">name = &quot;left&quot;</text>
</g>
<!-- r1&#45;&#45;b2 -->
<g id="edge26" class="edge"><title>r1&#45;&#45;b2</title>
<path fill="none" stroke="black" d="M387.623,-327.981C393.097,-317.177 400.23,-303.1 406.096,-291.522"/>
<text text-anchor="middle" x="405.769" y="-299.016" font-family="Times New Roman,serif" font-size="10.00">banks</text>
<text text-anchor="middle" x="387.949" y="-315.487" font-family="Times New Roman,serif" font-size="10.00">river</text>
</g>
<!-- b3 -->
<g id="node13" class="node"><title>b3</title>
<polygon fill="none" stroke="black" points="304,-178 304,-195 348,-195 348,-178 304,-178"/>
<text text-anchor="start" x="307.5" y="-184.5" font-family="Times New Roman,serif" font-size="10.00"> </text>
<text text-anchor="start" x="310.5" y="-184.5" font-family="Times New Roman,serif" font-size="10.00">b3 :Boat</text>
</g>
<!-- r1&#45;&#45;b3 -->
<g id="edge30" class="edge"><title>r1&#45;&#45;b3</title>
<path fill="none" stroke="black" d="M373.227,-327.899C363.032,-297.699 341.956,-235.265 331.766,-205.08"/>
<text text-anchor="middle" x="338.669" y="-209.815" font-family="Times New Roman,serif" font-size="10.00">boat</text>
<text text-anchor="middle" x="366.324" y="-318.164" font-family="Times New Roman,serif" font-size="10.00">river</text>
</g>
<!-- b7 -->
<g id="node17" class="node"><title>b7</title>
<polygon fill="none" stroke="black" points="483,-270 483,-287 553,-287 553,-270 483,-270"/>
<text text-anchor="start" x="499" y="-276.5" font-family="Times New Roman,serif" font-size="10.00"> </text>
<text text-anchor="start" x="502" y="-276.5" font-family="Times New Roman,serif" font-size="10.00">b7 :Bank</text>
<polygon fill="none" stroke="black" points="483,-250 483,-270 553,-270 553,-250 483,-250"/>
<text text-anchor="start" x="488.5" y="-258" font-family="Times New Roman,serif" font-size="10.00">name = &quot;right&quot;</text>
</g>
<!-- r1&#45;&#45;b7 -->
<g id="edge28" class="edge"><title>r1&#45;&#45;b7</title>
<path fill="none" stroke="black" d="M409.161,-328.726C429.362,-317.826 456.174,-303.359 478.132,-291.512"/>
<text text-anchor="middle" x="472.163" y="-297.035" font-family="Times New Roman,serif" font-size="10.00">banks</text>
<text text-anchor="middle" x="415.13" y="-318.203" font-family="Times New Roman,serif" font-size="10.00">river</text>
</g>
<!-- b2&#45;&#45;b3 -->
<g id="edge32" class="edge"><title>b2&#45;&#45;b3</title>
<path fill="none" stroke="black" d="M392.134,-246.14C377.399,-233.186 359.002,-217.013 345.354,-205.015"/>
<text text-anchor="middle" x="354.952" y="-205.325" font-family="Times New Roman,serif" font-size="10.00">boat</text>
<text text-anchor="middle" x="382.537" y="-240.83" font-family="Times New Roman,serif" font-size="10.00">bank</text>
</g>
<!-- c4 -->
<g id="node14" class="node"><title>c4</title>
<polygon fill="none" stroke="black" points="383,-188 383,-205 468,-205 468,-188 383,-188"/>
<text text-anchor="start" x="405" y="-194.5" font-family="Times New Roman,serif" font-size="10.00"> </text>
<text text-anchor="start" x="408" y="-194.5" font-family="Times New Roman,serif" font-size="10.00">c4 :Cargo</text>
<polygon fill="none" stroke="black" points="383,-168 383,-188 468,-188 468,-168 383,-168"/>
<text text-anchor="start" x="388.5" y="-176" font-family="Times New Roman,serif" font-size="10.00">name = &quot;cabbage&quot;</text>
</g>
<!-- b2&#45;&#45;c4 -->
<g id="edge34" class="edge"><title>b2&#45;&#45;c4</title>
<path fill="none" stroke="black" d="M419.186,-246.14C420.324,-234.759 421.711,-220.893 422.844,-209.557"/>
<text text-anchor="middle" x="426.148" y="-216.496" font-family="Times New Roman,serif" font-size="10.00">cargos</text>
<text text-anchor="middle" x="415.883" y="-234.201" font-family="Times New Roman,serif" font-size="10.00">bank</text>
</g>
<!-- c5 -->
<g id="node15" class="node"><title>c5</title>
<polygon fill="none" stroke="black" points="502,-188 502,-205 571,-205 571,-188 502,-188"/>
<text text-anchor="start" x="516" y="-194.5" font-family="Times New Roman,serif" font-size="10.00"> </text>
<text text-anchor="start" x="519" y="-194.5" font-family="Times New Roman,serif" font-size="10.00">c5 :Cargo</text>
<polygon fill="none" stroke="black" points="502,-168 502,-188 571,-188 571,-168 502,-168"/>
<text text-anchor="start" x="507.5" y="-176" font-family="Times New Roman,serif" font-size="10.00">name = &quot;goat&quot;</text>
</g>
<!-- b2&#45;&#45;c5 -->
<g id="edge36" class="edge"><title>b2&#45;&#45;c5</title>
<path fill="none" stroke="black" d="M449.203,-246.351C466.136,-234.967 486.834,-221.052 503.771,-209.666"/>
<text text-anchor="middle" x="498.608" y="-215.73" font-family="Times New Roman,serif" font-size="10.00">cargos</text>
<text text-anchor="middle" x="454.367" y="-235.287" font-family="Times New Roman,serif" font-size="10.00">bank</text>
</g>
<!-- c6 -->
<g id="node16" class="node"><title>c6</title>
<polygon fill="none" stroke="black" points="605,-188 605,-205 674,-205 674,-188 605,-188"/>
<text text-anchor="start" x="619" y="-194.5" font-family="Times New Roman,serif" font-size="10.00"> </text>
<text text-anchor="start" x="622" y="-194.5" font-family="Times New Roman,serif" font-size="10.00">c6 :Cargo</text>
<polygon fill="none" stroke="black" points="605,-168 605,-188 674,-188 674,-168 605,-168"/>
<text text-anchor="start" x="610.5" y="-176" font-family="Times New Roman,serif" font-size="10.00">name = &quot;wolf&quot;</text>
</g>
<!-- b2&#45;&#45;c6 -->
<g id="edge38" class="edge"><title>b2&#45;&#45;c6</title>
<path fill="none" stroke="black" d="M457.2,-249.441C460.16,-248.232 463.115,-247.071 466,-246 518.597,-226.466 534.193,-228.96 587,-210 590.137,-208.874 593.358,-207.659 596.585,-206.398"/>
<text text-anchor="middle" x="589.672" y="-211.124" font-family="Times New Roman,serif" font-size="10.00">cargos</text>
<text text-anchor="middle" x="464.002" y="-239.61" font-family="Times New Roman,serif" font-size="10.00">bank</text>
</g>
</g>
</svg>
