<?xml version="1.0" encoding="UTF-8" standalone="no"?>
<!DOCTYPE svg PUBLIC "-//W3C//DTD SVG 1.1//EN"
 "http://www.w3.org/Graphics/SVG/1.1/DTD/svg11.dtd">
<!-- Generated by graphviz version 2.28.0 (20110507.0327)
 -->
<!-- Title: ObjectDiagram Pages: 1 -->
<svg width="483pt" height="646pt"
 viewBox="0.00 0.00 483.00 646.00" xmlns="http://www.w3.org/2000/svg" xmlns:xlink="http://www.w3.org/1999/xlink">
<g id="graph1" class="graph" transform="scale(1 1) rotate(0) translate(4 642)">
<title>ObjectDiagram</title>
<polygon fill="white" stroke="white" points="-4,5 -4,-642 480,-642 480,5 -4,5"/>
<!-- u1 -->
<g id="node1" class="node"><title>u1</title>
<a xlink:href="../examples/org/sdmlib/examples/studyright/model/University.java" xlink:title="&lt;TABLE&gt;">
<polygon fill="none" stroke="black" points="228,-616 228,-633 331,-633 331,-616 228,-616"/>
<text text-anchor="start" x="248" y="-622.5" font-family="Arial" font-size="10.00"> </text>
<text text-anchor="start" x="252" y="-622.5" font-family="Arial" font-size="10.00">u1 :University</text>
</a>
<polygon fill="none" stroke="black" points="228,-596 228,-616 331,-616 331,-596 228,-596"/>
<text text-anchor="start" x="233" y="-604" font-family="Arial" font-size="10.00">name = &quot;StudyRight&quot;</text>
</g>
<!-- r4 -->
<g id="node2" class="node"><title>r4</title>
<a xlink:href="../examples/org/sdmlib/examples/studyright/model/Room.java" xlink:title="&lt;TABLE&gt;">
<polygon fill="none" stroke="black" points="106,-520 106,-537 193,-537 193,-520 106,-520"/>
<text text-anchor="start" x="127.5" y="-526.5" font-family="Arial" font-size="10.00"> </text>
<text text-anchor="start" x="131.5" y="-526.5" font-family="Arial" font-size="10.00">r4 :Room</text>
</a>
<polygon fill="none" stroke="black" points="106,-472 106,-520 193,-520 193,-472 106,-472"/>
<text text-anchor="start" x="111" y="-508" font-family="Arial" font-size="10.00">roomNo = &quot;math&quot;</text>
<text text-anchor="start" x="111" y="-494" font-family="Arial" font-size="10.00">credits = 42</text>
<text text-anchor="start" x="111" y="-480" font-family="Arial" font-size="10.00">room = &quot;&quot;</text>
</g>
<!-- u1&#45;&#45;r4 -->
<g id="edge2" class="edge"><title>u1&#45;&#45;r4</title>
<path fill="none" stroke="black" d="M253.005,-592.404C235.518,-577.877 212.055,-558.384 191.84,-541.59"/>
<text text-anchor="middle" x="201.512" y="-541.631" font-family="Arial" font-size="10.00">rooms</text>
<text text-anchor="middle" x="243.333" y="-587.363" font-family="Arial" font-size="10.00">uni</text>
</g>
<!-- r5 -->
<g id="node3" class="node"><title>r5</title>
<a xlink:href="../examples/org/sdmlib/examples/studyright/model/Room.java" xlink:title="&lt;TABLE&gt;">
<polygon fill="none" stroke="black" points="8,-389 8,-406 89,-406 89,-389 8,-389"/>
<text text-anchor="start" x="26.5" y="-395.5" font-family="Arial" font-size="10.00"> </text>
<text text-anchor="start" x="30.5" y="-395.5" font-family="Arial" font-size="10.00">r5 :Room</text>
</a>
<polygon fill="none" stroke="black" points="8,-341 8,-389 89,-389 89,-341 8,-341"/>
<text text-anchor="start" x="13" y="-377" font-family="Arial" font-size="10.00">roomNo = &quot;arts&quot;</text>
<text text-anchor="start" x="13" y="-363" font-family="Arial" font-size="10.00">credits = 23</text>
<text text-anchor="start" x="13" y="-349" font-family="Arial" font-size="10.00">room = &quot;&quot;</text>
</g>
<!-- u1&#45;&#45;r5 -->
<g id="edge4" class="edge"><title>u1&#45;&#45;r5</title>
<path fill="none" stroke="black" d="M219.439,-611.279C176.925,-606.108 121.544,-592.243 88,-556 51.3854,-516.439 45.5602,-451.16 45.9085,-410.754"/>
<text text-anchor="middle" x="50.2091" y="-417.282" font-family="Arial" font-size="10.00">rooms</text>
<text text-anchor="middle" x="209.879" y="-611.714" font-family="Arial" font-size="10.00">uni</text>
</g>
<!-- r6 -->
<g id="node4" class="node"><title>r6</title>
<a xlink:href="../examples/org/sdmlib/examples/studyright/model/Room.java" xlink:title="&lt;TABLE&gt;">
<polygon fill="none" stroke="black" points="122,-272 122,-289 214,-289 214,-272 122,-272"/>
<text text-anchor="start" x="146" y="-278.5" font-family="Arial" font-size="10.00"> </text>
<text text-anchor="start" x="150" y="-278.5" font-family="Arial" font-size="10.00">r6 :Room</text>
</a>
<polygon fill="none" stroke="black" points="122,-224 122,-272 214,-272 214,-224 122,-224"/>
<text text-anchor="start" x="127" y="-260" font-family="Arial" font-size="10.00">roomNo = &quot;sports&quot;</text>
<text text-anchor="start" x="127" y="-246" font-family="Arial" font-size="10.00">credits = 23</text>
<text text-anchor="start" x="127" y="-232" font-family="Arial" font-size="10.00">room = &quot;&quot;</text>
</g>
<!-- u1&#45;&#45;r6 -->
<g id="edge6" class="edge"><title>u1&#45;&#45;r6</title>
<path fill="none" stroke="black" d="M283.052,-592.471C291.264,-542.826 305.394,-417.852 259,-330 250.439,-313.789 236.466,-300.005 222.01,-288.972"/>
<text text-anchor="middle" x="231.747" y="-288.748" font-family="Arial" font-size="10.00">rooms</text>
<text text-anchor="middle" x="280.227" y="-580.379" font-family="Arial" font-size="10.00">uni</text>
</g>
<!-- r7 -->
<g id="node5" class="node"><title>r7</title>
<a xlink:href="../examples/org/sdmlib/examples/studyright/model/Room.java" xlink:title="&lt;TABLE&gt;">
<polygon fill="none" stroke="black" points="124,-162 124,-179 213,-179 213,-162 124,-162"/>
<text text-anchor="start" x="146.5" y="-168.5" font-family="Arial" font-size="10.00"> </text>
<text text-anchor="start" x="150.5" y="-168.5" font-family="Arial" font-size="10.00">r7 :Room</text>
</a>
<polygon fill="none" stroke="black" points="124,-114 124,-162 213,-162 213,-114 124,-114"/>
<text text-anchor="start" x="129" y="-150" font-family="Arial" font-size="10.00">roomNo = &quot;exam&quot;</text>
<text text-anchor="start" x="129" y="-136" font-family="Arial" font-size="10.00">credits = 0</text>
<text text-anchor="start" x="129" y="-122" font-family="Arial" font-size="10.00">room = &quot;&quot;</text>
</g>
<!-- u1&#45;&#45;r7 -->
<g id="edge8" class="edge"><title>u1&#45;&#45;r7</title>
<path fill="none" stroke="black" d="M290.345,-592.331C295.288,-581.695 300.515,-568.505 303,-556 322.627,-457.235 316.72,-426.21 287,-330 270.808,-277.584 261.743,-265.436 231,-220 222.53,-207.482 212.121,-194.765 202.222,-183.573"/>
<text text-anchor="middle" x="211.374" y="-185.102" font-family="Arial" font-size="10.00">rooms</text>
<text text-anchor="middle" x="290.26" y="-579.832" font-family="Arial" font-size="10.00">uni</text>
</g>
<!-- r8 -->
<g id="node6" class="node"><title>r8</title>
<a xlink:href="../examples/org/sdmlib/examples/studyright/model/Room.java" xlink:title="&lt;TABLE&gt;">
<polygon fill="none" stroke="black" points="115,-52 115,-69 222,-69 222,-52 115,-52"/>
<text text-anchor="start" x="146.5" y="-58.5" font-family="Arial" font-size="10.00"> </text>
<text text-anchor="start" x="150.5" y="-58.5" font-family="Arial" font-size="10.00">r8 :Room</text>
</a>
<polygon fill="none" stroke="black" points="115,-4 115,-52 222,-52 222,-4 115,-4"/>
<text text-anchor="start" x="120" y="-40" font-family="Arial" font-size="10.00">roomNo = &quot;ProgMeth&quot;</text>
<text text-anchor="start" x="120" y="-26" font-family="Arial" font-size="10.00">credits = 42</text>
<text text-anchor="start" x="120" y="-12" font-family="Arial" font-size="10.00">room = &quot;&quot;</text>
</g>
<!-- u1&#45;&#45;r8 -->
<g id="edge10" class="edge"><title>u1&#45;&#45;r8</title>
<path fill="none" stroke="black" d="M299.269,-592.448C307.874,-582.149 317.23,-569.203 323,-556 355.712,-481.144 355,-456.692 355,-375 355,-375 355,-375 355,-256 355,-176.467 282.409,-111.415 227.682,-73.6726"/>
<text text-anchor="middle" x="237.507" y="-73.0337" font-family="Arial" font-size="10.00">rooms</text>
<text text-anchor="middle" x="301.753" y="-580.261" font-family="Arial" font-size="10.00">uni</text>
</g>
<!-- s2 -->
<g id="node7" class="node"><title>s2</title>
<a xlink:href="../examples/org/sdmlib/examples/studyright/model/Student.java" xlink:title="&lt;TABLE&gt;">
<polygon fill="none" stroke="black" points="162,-396 162,-413 243,-413 243,-396 162,-396"/>
<text text-anchor="start" x="175" y="-402.5" font-family="Arial" font-size="10.00"> </text>
<text text-anchor="start" x="179" y="-402.5" font-family="Arial" font-size="10.00">s2 :Student</text>
</a>
<polygon fill="none" stroke="black" points="162,-334 162,-396 243,-396 243,-334 162,-334"/>
<text text-anchor="start" x="167" y="-384" font-family="Arial" font-size="10.00">credits = 0</text>
<text text-anchor="start" x="167" y="-370" font-family="Arial" font-size="10.00">motivation = 0</text>
<text text-anchor="start" x="167" y="-356" font-family="Arial" font-size="10.00">name = &quot;Albert&quot;</text>
<text text-anchor="start" x="167" y="-342" font-family="Arial" font-size="10.00">matrNo = 4242</text>
</g>
<!-- u1&#45;&#45;s2 -->
<g id="edge12" class="edge"><title>u1&#45;&#45;s2</title>
<path fill="none" stroke="black" d="M272.031,-592.369C259.333,-552.956 232.219,-468.796 215.703,-417.531"/>
<text text-anchor="middle" x="222.504" y="-422.362" font-family="Arial" font-size="10.00">students</text>
<text text-anchor="middle" x="265.229" y="-582.538" font-family="Arial" font-size="10.00">uni</text>
</g>
<!-- s3 -->
<g id="node8" class="node"><title>s3</title>
<a xlink:href="../examples/org/sdmlib/examples/studyright/model/Student.java" xlink:title="&lt;TABLE&gt;">
<polygon fill="none" stroke="black" points="391,-534 391,-551 467,-551 467,-534 391,-534"/>
<text text-anchor="start" x="401.5" y="-540.5" font-family="Arial" font-size="10.00"> </text>
<text text-anchor="start" x="405.5" y="-540.5" font-family="Arial" font-size="10.00">s3 :Student</text>
</a>
<polygon fill="none" stroke="black" points="391,-458 391,-534 467,-534 467,-458 391,-458"/>
<text text-anchor="start" x="396" y="-522" font-family="Arial" font-size="10.00">credits = 0</text>
<text text-anchor="start" x="396" y="-508" font-family="Arial" font-size="10.00">in = &quot;&quot;</text>
<text text-anchor="start" x="396" y="-494" font-family="Arial" font-size="10.00">motivation = 0</text>
<text text-anchor="start" x="396" y="-480" font-family="Arial" font-size="10.00">name = &quot;Nina&quot;</text>
<text text-anchor="start" x="396" y="-466" font-family="Arial" font-size="10.00">matrNo = 2323</text>
</g>
<!-- u1&#45;&#45;s3 -->
<g id="edge14" class="edge"><title>u1&#45;&#45;s3</title>
<path fill="none" stroke="black" d="M314.718,-592.388C331.514,-581.872 351.623,-568.766 369,-556 373.59,-552.628 378.288,-549.017 382.937,-545.336"/>
<text text-anchor="middle" x="378.442" y="-551.769" font-family="Arial" font-size="10.00">students</text>
<text text-anchor="middle" x="320.138" y="-581.484" font-family="Arial" font-size="10.00">uni</text>
</g>
<!-- r4&#45;&#45;r5 -->
<g id="edge16" class="edge"><title>r4&#45;&#45;r5</title>
<path fill="none" stroke="black" d="M121.134,-468.409C107.12,-450.51 90.1752,-428.867 76.1257,-410.923"/>
<text text-anchor="middle" x="85.0405" y="-412.954" font-family="Arial" font-size="10.00">neighbors</text>
<text text-anchor="middle" x="112.219" y="-461.378" font-family="Arial" font-size="10.00">neighbors</text>
</g>
<!-- r4&#45;&#45;r6 -->
<g id="edge18" class="edge"><title>r4&#45;&#45;r6</title>
<path fill="none" stroke="black" d="M144.075,-468.416C140.096,-433.065 136.303,-377.431 144,-330 145.963,-317.904 149.667,-305.095 153.588,-293.687"/>
<text text-anchor="middle" x="154.695" y="-301.125" font-family="Arial" font-size="10.00">neighbors</text>
<text text-anchor="middle" x="138.924" y="-457.345" font-family="Arial" font-size="10.00">neighbors</text>
</g>
<!-- r4&#45;&#45;s2 -->
<g id="edge20" class="edge"><title>r4&#45;&#45;s2</title>
<path fill="none" stroke="black" d="M163.623,-468.409C170.057,-452.748 177.669,-434.22 184.411,-417.811"/>
<text text-anchor="middle" x="184.876" y="-425.3" font-family="Arial" font-size="10.00">students</text>
<text text-anchor="middle" x="163.158" y="-455.92" font-family="Arial" font-size="10.00">in</text>
</g>
<!-- r5&#45;&#45;r6 -->
<g id="edge22" class="edge"><title>r5&#45;&#45;r6</title>
<path fill="none" stroke="black" d="M85.311,-337.244C99.7592,-323.397 116.266,-307.578 130.712,-293.734"/>
<text text-anchor="middle" x="127.093" y="-300.556" font-family="Arial" font-size="10.00">neighbors</text>
<text text-anchor="middle" x="88.9303" y="-325.422" font-family="Arial" font-size="10.00">neighbors</text>
</g>
<!-- r5&#45;&#45;r7 -->
<g id="edge24" class="edge"><title>r5&#45;&#45;r7</title>
<path fill="none" stroke="black" d="M57.2876,-337.344C66.5563,-305.244 82.6418,-257.492 105,-220 112.571,-207.304 122.493,-194.733 132.215,-183.735"/>
<text text-anchor="middle" x="129.439" y="-190.842" font-family="Arial" font-size="10.00">neighbors</text>
<text text-anchor="middle" x="55.81" y="-324.954" font-family="Arial" font-size="10.00">neighbors</text>
</g>
<!-- r5&#45;&#45;r8 -->
<g id="edge26" class="edge"><title>r5&#45;&#45;r8</title>
<path fill="none" stroke="black" d="M49.1565,-337.398C52.2911,-284.462 63.8195,-183.369 106,-110 113.317,-97.2722 123.04,-84.6919 132.612,-73.695"/>
<text text-anchor="middle" x="129.912" y="-80.8236" font-family="Arial" font-size="10.00">neighbors</text>
<text text-anchor="middle" x="45.5773" y="-325.561" font-family="Arial" font-size="10.00">neighbors</text>
</g>
<!-- r6&#45;&#45;r7 -->
<g id="edge28" class="edge"><title>r6&#45;&#45;r7</title>
<path fill="none" stroke="black" d="M168,-220.337C168,-208.541 168,-195.419 168,-183.625"/>
<text text-anchor="middle" x="172.226" y="-190.188" font-family="Arial" font-size="10.00">neighbors</text>
<text text-anchor="middle" x="163.774" y="-208.774" font-family="Arial" font-size="10.00">neighbors</text>
</g>
<!-- r7&#45;&#45;r8 -->
<g id="edge30" class="edge"><title>r7&#45;&#45;r8</title>
<path fill="none" stroke="black" d="M168,-110.337C168,-98.5407 168,-85.4191 168,-73.6251"/>
<text text-anchor="middle" x="172.226" y="-80.1882" font-family="Arial" font-size="10.00">neighbors</text>
<text text-anchor="middle" x="163.774" y="-98.7744" font-family="Arial" font-size="10.00">neighbors</text>
</g>
</g>
</svg>
