<?xml version="1.0" encoding="UTF-8" standalone="no"?>
<!DOCTYPE svg PUBLIC "-//W3C//DTD SVG 1.1//EN"
 "http://www.w3.org/Graphics/SVG/1.1/DTD/svg11.dtd">
<!-- Generated by graphviz version 2.26.3 (20100126.1600)
 -->
<!-- Title: ObjectDiagram Pages: 1 -->
<svg width="624pt" height="428pt"
 viewBox="0.00 0.00 624.00 428.00" xmlns="http://www.w3.org/2000/svg" xmlns:xlink="http://www.w3.org/1999/xlink">
<g id="graph1" class="graph" transform="scale(1 1) rotate(0) translate(4 424)">
<title>ObjectDiagram</title>
<polygon fill="white" stroke="white" points="-4,5 -4,-424 621,-424 621,5 -4,5"/>
<!-- g1 -->
<g id="node1" class="node"><title>g1</title>
<polygon fill="none" stroke="black" points="271,-393 271,-410 367,-410 367,-393 271,-393"/>
<text text-anchor="start" x="274.5" y="-399.167" font-family="Times Roman,serif" font-size="10.00"> </text>
<text text-anchor="start" x="278.5" y="-399.167" font-family="Times Roman,serif" font-size="10.00">g1 :GenericGraph</text>
</g>
<!-- g2 -->
<g id="node2" class="node"><title>g2</title>
<polygon fill="none" stroke="black" points="91,-326 91,-343 283,-343 283,-326 91,-326"/>
<text text-anchor="start" x="142" y="-332.167" font-family="Times Roman,serif" font-size="10.00"> </text>
<text text-anchor="start" x="146" y="-332.167" font-family="Times Roman,serif" font-size="10.00">g2 :GenericObject</text>
<polygon fill="none" stroke="black" points="91,-292 91,-326 283,-326 283,-292 91,-292"/>
<text text-anchor="start" x="131" y="-313.667" font-family="Times Roman,serif" font-size="10.00">name = &quot;spec2gen.B1&quot;</text>
<text text-anchor="start" x="96.5" y="-299.667" font-family="Times Roman,serif" font-size="10.00">type = &quot;de.kassel.roombook.Building&quot;</text>
</g>
<!-- g1&#45;&#45;g2 -->
<g id="edge2" class="edge"><title>g1&#45;&#45;g2</title>
<path fill="none" stroke="black" d="M290.683,-383.98C274.017,-373.374 252.53,-359.701 233.443,-347.554"/>
<text text-anchor="middle" x="243.358" y="-345.855" font-family="Times Roman,serif" font-size="10.00">objects</text>
<text text-anchor="middle" x="280.768" y="-379.68" font-family="Times Roman,serif" font-size="10.00">graph</text>
</g>
<!-- g4 -->
<g id="node4" class="node"><title>g4</title>
<polygon fill="none" stroke="black" points="12,-230 12,-247 127,-247 127,-230 12,-230"/>
<text text-anchor="start" x="30.5" y="-236.167" font-family="Times Roman,serif" font-size="10.00"> </text>
<text text-anchor="start" x="34.5" y="-236.167" font-family="Times Roman,serif" font-size="10.00">g4 :GenericLink</text>
<polygon fill="none" stroke="black" points="12,-196 12,-230 127,-230 127,-196 12,-196"/>
<text text-anchor="start" x="30" y="-217.667" font-family="Times Roman,serif" font-size="10.00">tgtLabel = &quot;has&quot;</text>
<text text-anchor="start" x="17.5" y="-203.667" font-family="Times Roman,serif" font-size="10.00">srcLabel = &quot;buildings&quot;</text>
</g>
<!-- g1&#45;&#45;g4 -->
<g id="edge4" class="edge"><title>g1&#45;&#45;g4</title>
<path fill="none" stroke="black" d="M262.958,-397.454C198.298,-390.932 97.7935,-376.435 74,-348 51.8026,-321.472 55.1005,-279.694 60.8784,-251.595"/>
<text text-anchor="middle" x="63.3791" y="-258.277" font-family="Times Roman,serif" font-size="10.00">links</text>
<text text-anchor="middle" x="253.493" y="-397.681" font-family="Times Roman,serif" font-size="10.00">graph</text>
</g>
<!-- g5 -->
<g id="node5" class="node"><title>g5</title>
<polygon fill="none" stroke="black" points="36,-134 36,-151 213,-151 213,-134 36,-134"/>
<text text-anchor="start" x="79.5" y="-140.167" font-family="Times Roman,serif" font-size="10.00"> </text>
<text text-anchor="start" x="83.5" y="-140.167" font-family="Times Roman,serif" font-size="10.00">g5 :GenericObject</text>
<polygon fill="none" stroke="black" points="36,-100 36,-134 213,-134 213,-100 36,-100"/>
<text text-anchor="start" x="69" y="-121.667" font-family="Times Roman,serif" font-size="10.00">name = &quot;spec2gen.F2&quot;</text>
<text text-anchor="start" x="41.5" y="-107.667" font-family="Times Roman,serif" font-size="10.00">type = &quot;de.kassel.roombook.Floor&quot;</text>
</g>
<!-- g1&#45;&#45;g5 -->
<g id="edge6" class="edge"><title>g1&#45;&#45;g5</title>
<path fill="none" stroke="black" d="M321.492,-383.964C325.898,-344.526 330.706,-249.557 285,-192 268.562,-171.3 244.552,-157.04 220.067,-147.236"/>
<text text-anchor="middle" x="230.06" y="-143.85" font-family="Times Roman,serif" font-size="10.00">objects</text>
<text text-anchor="middle" x="318.148" y="-371.539" font-family="Times Roman,serif" font-size="10.00">graph</text>
</g>
<!-- g8 -->
<g id="node8" class="node"><title>g8</title>
<polygon fill="none" stroke="black" points="347,-230 347,-247 462,-247 462,-230 347,-230"/>
<text text-anchor="start" x="365.5" y="-236.167" font-family="Times Roman,serif" font-size="10.00"> </text>
<text text-anchor="start" x="369.5" y="-236.167" font-family="Times Roman,serif" font-size="10.00">g8 :GenericLink</text>
<polygon fill="none" stroke="black" points="347,-196 347,-230 462,-230 462,-196 347,-196"/>
<text text-anchor="start" x="365" y="-217.667" font-family="Times Roman,serif" font-size="10.00">tgtLabel = &quot;has&quot;</text>
<text text-anchor="start" x="352.5" y="-203.667" font-family="Times Roman,serif" font-size="10.00">srcLabel = &quot;buildings&quot;</text>
</g>
<!-- g1&#45;&#45;g8 -->
<g id="edge8" class="edge"><title>g1&#45;&#45;g8</title>
<path fill="none" stroke="black" d="M327.618,-383.75C342.306,-352.647 372.314,-289.1 390.031,-251.582"/>
<text text-anchor="middle" x="389.982" y="-258.581" font-family="Times Roman,serif" font-size="10.00">links</text>
<text text-anchor="middle" x="327.666" y="-370.75" font-family="Times Roman,serif" font-size="10.00">graph</text>
</g>
<!-- g9 -->
<g id="node9" class="node"><title>g9</title>
<polygon fill="none" stroke="black" points="362,-134 362,-151 539,-151 539,-134 362,-134"/>
<text text-anchor="start" x="405.5" y="-140.167" font-family="Times Roman,serif" font-size="10.00"> </text>
<text text-anchor="start" x="409.5" y="-140.167" font-family="Times Roman,serif" font-size="10.00">g9 :GenericObject</text>
<polygon fill="none" stroke="black" points="362,-100 362,-134 539,-134 539,-100 362,-100"/>
<text text-anchor="start" x="395" y="-121.667" font-family="Times Roman,serif" font-size="10.00">name = &quot;spec2gen.F3&quot;</text>
<text text-anchor="start" x="367.5" y="-107.667" font-family="Times Roman,serif" font-size="10.00">type = &quot;de.kassel.roombook.Floor&quot;</text>
</g>
<!-- g1&#45;&#45;g9 -->
<g id="edge10" class="edge"><title>g1&#45;&#45;g9</title>
<path fill="none" stroke="black" d="M350.103,-383.932C388.526,-359.592 451.995,-312.283 478,-252 491.536,-220.622 479.009,-181.915 466.667,-155.746"/>
<text text-anchor="middle" x="474.233" y="-159.285" font-family="Times Roman,serif" font-size="10.00">objects</text>
<text text-anchor="middle" x="355.379" y="-372.437" font-family="Times Roman,serif" font-size="10.00">graph</text>
</g>
<!-- g3 -->
<g id="node3" class="node"><title>g3</title>
<polygon fill="none" stroke="black" points="160,-230 160,-247 268,-247 268,-230 160,-230"/>
<text text-anchor="start" x="163.5" y="-236.167" font-family="Times Roman,serif" font-size="10.00"> </text>
<text text-anchor="start" x="167.5" y="-236.167" font-family="Times Roman,serif" font-size="10.00">g3 :GenericAttribute</text>
<polygon fill="none" stroke="black" points="160,-196 160,-230 268,-230 268,-196 160,-196"/>
<text text-anchor="start" x="175" y="-217.667" font-family="Times Roman,serif" font-size="10.00">name = &quot;name&quot;</text>
<text text-anchor="start" x="176.5" y="-203.667" font-family="Times Roman,serif" font-size="10.00">value = &quot;WA73&quot;</text>
</g>
<!-- g2&#45;&#45;g3 -->
<g id="edge12" class="edge"><title>g2&#45;&#45;g3</title>
<path fill="none" stroke="black" d="M195.321,-288.414C198.606,-276.734 202.373,-263.34 205.66,-251.654"/>
<text text-anchor="middle" x="207.274" y="-258.523" font-family="Times Roman,serif" font-size="10.00">attrs</text>
<text text-anchor="middle" x="193.707" y="-275.545" font-family="Times Roman,serif" font-size="10.00">owner</text>
</g>
<!-- g2&#45;&#45;g4 -->
<g id="edge14" class="edge"><title>g2&#45;&#45;g4</title>
<path fill="none" stroke="black" d="M150.633,-288.414C136.277,-276.734 119.814,-263.34 105.45,-251.654"/>
<text text-anchor="middle" x="115.147" y="-251.095" font-family="Times Roman,serif" font-size="10.00">outgoingLinks</text>
<text text-anchor="middle" x="140.936" y="-282.972" font-family="Times Roman,serif" font-size="10.00">src</text>
</g>
<!-- g2&#45;&#45;g8 -->
<g id="edge16" class="edge"><title>g2&#45;&#45;g8</title>
<path fill="none" stroke="black" d="M253.878,-288.414C280.901,-276.459 311.984,-262.707 338.832,-250.83"/>
<text text-anchor="middle" x="332.254" y="-255.362" font-family="Times Roman,serif" font-size="10.00">outgoingLinks</text>
<text text-anchor="middle" x="260.456" y="-277.882" font-family="Times Roman,serif" font-size="10.00">src</text>
</g>
<!-- g4&#45;&#45;g5 -->
<g id="edge18" class="edge"><title>g4&#45;&#45;g5</title>
<path fill="none" stroke="black" d="M85.9506,-192.414C92.642,-180.734 100.316,-167.34 107.011,-155.654"/>
<text text-anchor="middle" x="106.172" y="-162.619" font-family="Times Roman,serif" font-size="10.00">tgt</text>
<text text-anchor="middle" x="86.789" y="-179.449" font-family="Times Roman,serif" font-size="10.00">incommingLinks</text>
</g>
<!-- g6 -->
<g id="node6" class="node"><title>g6</title>
<polygon fill="none" stroke="black" points="8,-38 8,-55 116,-55 116,-38 8,-38"/>
<text text-anchor="start" x="11.5" y="-44.1667" font-family="Times Roman,serif" font-size="10.00"> </text>
<text text-anchor="start" x="15.5" y="-44.1667" font-family="Times Roman,serif" font-size="10.00">g6 :GenericAttribute</text>
<polygon fill="none" stroke="black" points="8,-4 8,-38 116,-38 116,-4 8,-4"/>
<text text-anchor="start" x="26" y="-25.6667" font-family="Times Roman,serif" font-size="10.00">name = &quot;level&quot;</text>
<text text-anchor="start" x="35" y="-11.6667" font-family="Times Roman,serif" font-size="10.00">value = &quot;1&quot;</text>
</g>
<!-- g5&#45;&#45;g6 -->
<g id="edge20" class="edge"><title>g5&#45;&#45;g6</title>
<path fill="none" stroke="black" d="M104.892,-96.4135C97.349,-84.734 88.6988,-71.3401 81.1516,-59.6541"/>
<text text-anchor="middle" x="89.6187" y="-61.9746" font-family="Times Roman,serif" font-size="10.00">attrs</text>
<text text-anchor="middle" x="96.4249" y="-88.093" font-family="Times Roman,serif" font-size="10.00">owner</text>
</g>
<!-- g7 -->
<g id="node7" class="node"><title>g7</title>
<polygon fill="none" stroke="black" points="150,-38 150,-55 258,-55 258,-38 150,-38"/>
<text text-anchor="start" x="153.5" y="-44.1667" font-family="Times Roman,serif" font-size="10.00"> </text>
<text text-anchor="start" x="157.5" y="-44.1667" font-family="Times Roman,serif" font-size="10.00">g7 :GenericAttribute</text>
<polygon fill="none" stroke="black" points="150,-4 150,-38 258,-38 258,-4 150,-4"/>
<text text-anchor="start" x="165" y="-25.6667" font-family="Times Roman,serif" font-size="10.00">name = &quot;name&quot;</text>
<text text-anchor="start" x="166.5" y="-11.6667" font-family="Times Roman,serif" font-size="10.00">value = &quot;WA13&quot;</text>
</g>
<!-- g5&#45;&#45;g7 -->
<g id="edge22" class="edge"><title>g5&#45;&#45;g7</title>
<path fill="none" stroke="black" d="M148.655,-96.4135C158.388,-84.734 169.55,-71.3401 179.288,-59.6541"/>
<text text-anchor="middle" x="176.733" y="-66.322" font-family="Times Roman,serif" font-size="10.00">attrs</text>
<text text-anchor="middle" x="151.211" y="-83.7455" font-family="Times Roman,serif" font-size="10.00">owner</text>
</g>
<!-- g8&#45;&#45;g9 -->
<g id="edge24" class="edge"><title>g8&#45;&#45;g9</title>
<path fill="none" stroke="black" d="M418.177,-192.414C423.773,-180.734 430.191,-167.34 435.791,-155.654"/>
<text text-anchor="middle" x="435.686" y="-162.654" font-family="Times Roman,serif" font-size="10.00">tgt</text>
<text text-anchor="middle" x="418.282" y="-179.414" font-family="Times Roman,serif" font-size="10.00">incommingLinks</text>
</g>
<!-- g10 -->
<g id="node10" class="node"><title>g10</title>
<polygon fill="none" stroke="black" points="346,-38 346,-55 460,-55 460,-38 346,-38"/>
<text text-anchor="start" x="349.5" y="-44.1667" font-family="Times Roman,serif" font-size="10.00"> </text>
<text text-anchor="start" x="353.5" y="-44.1667" font-family="Times Roman,serif" font-size="10.00">g10 :GenericAttribute</text>
<polygon fill="none" stroke="black" points="346,-4 346,-38 460,-38 460,-4 346,-4"/>
<text text-anchor="start" x="367" y="-25.6667" font-family="Times Roman,serif" font-size="10.00">name = &quot;level&quot;</text>
<text text-anchor="start" x="376" y="-11.6667" font-family="Times Roman,serif" font-size="10.00">value = &quot;0&quot;</text>
</g>
<!-- g9&#45;&#45;g10 -->
<g id="edge26" class="edge"><title>g9&#45;&#45;g10</title>
<path fill="none" stroke="black" d="M435.515,-96.4135C429.797,-84.734 423.239,-71.3401 417.518,-59.6541"/>
<text text-anchor="middle" x="425.299" y="-62.9356" font-family="Times Roman,serif" font-size="10.00">attrs</text>
<text text-anchor="middle" x="427.734" y="-87.1319" font-family="Times Roman,serif" font-size="10.00">owner</text>
</g>
<!-- g11 -->
<g id="node11" class="node"><title>g11</title>
<polygon fill="none" stroke="black" points="494,-38 494,-55 608,-55 608,-38 494,-38"/>
<text text-anchor="start" x="497.5" y="-44.1667" font-family="Times Roman,serif" font-size="10.00"> </text>
<text text-anchor="start" x="501.5" y="-44.1667" font-family="Times Roman,serif" font-size="10.00">g11 :GenericAttribute</text>
<polygon fill="none" stroke="black" points="494,-4 494,-38 608,-38 608,-4 494,-4"/>
<text text-anchor="start" x="512" y="-25.6667" font-family="Times Roman,serif" font-size="10.00">name = &quot;name&quot;</text>
<text text-anchor="start" x="513.5" y="-11.6667" font-family="Times Roman,serif" font-size="10.00">value = &quot;WA03&quot;</text>
</g>
<!-- g9&#45;&#45;g11 -->
<g id="edge28" class="edge"><title>g9&#45;&#45;g11</title>
<path fill="none" stroke="black" d="M481.127,-96.4135C493.415,-84.734 507.507,-71.3401 519.801,-59.6541"/>
<text text-anchor="middle" x="516.144" y="-65.9612" font-family="Times Roman,serif" font-size="10.00">attrs</text>
<text text-anchor="middle" x="484.785" y="-84.1064" font-family="Times Roman,serif" font-size="10.00">owner</text>
</g>
</g>
</svg>
