<?xml version="1.0" encoding="UTF-8" standalone="no"?>
<!DOCTYPE svg PUBLIC "-//W3C//DTD SVG 1.1//EN"
 "http://www.w3.org/Graphics/SVG/1.1/DTD/svg11.dtd">
<!-- Generated by graphviz version 2.26.3 (20100126.1600)
 -->
<!-- Title: ObjectDiagram Pages: 1 -->
<svg width="234pt" height="150pt"
 viewBox="0.00 0.00 234.00 150.00" xmlns="http://www.w3.org/2000/svg" xmlns:xlink="http://www.w3.org/1999/xlink">
<g id="graph1" class="graph" transform="scale(1 1) rotate(0) translate(4 146)">
<title>ObjectDiagram</title>
<polygon fill="white" stroke="white" points="-4,5 -4,-146 231,-146 231,5 -4,5"/>
<!-- b1 -->
<g id="node1" class="node"><title>b1</title>
<polygon fill="none" stroke="black" points="69,-120 69,-137 157,-137 157,-120 69,-120"/>
<text text-anchor="start" x="83" y="-126.167" font-family="Times Roman,serif" font-size="10.00"> </text>
<text text-anchor="start" x="87" y="-126.167" font-family="Times Roman,serif" font-size="10.00">b1 :Building</text>
<polygon fill="none" stroke="black" points="69,-100 69,-120 157,-120 157,-100 69,-100"/>
<text text-anchor="start" x="74.5" y="-107.667" font-family="Times Roman,serif" font-size="10.00">name = &quot;WA73&quot;</text>
</g>
<!-- f2 -->
<g id="node2" class="node"><title>f2</title>
<polygon fill="none" stroke="black" points="8,-38 8,-55 96,-55 96,-38 8,-38"/>
<text text-anchor="start" x="30.5" y="-44.1667" font-family="Times Roman,serif" font-size="10.00"> </text>
<text text-anchor="start" x="34.5" y="-44.1667" font-family="Times Roman,serif" font-size="10.00">f2 :Floor</text>
<polygon fill="none" stroke="black" points="8,-4 8,-38 96,-38 96,-4 8,-4"/>
<text text-anchor="start" x="30.5" y="-25.6667" font-family="Times Roman,serif" font-size="10.00">level = 1</text>
<text text-anchor="start" x="13.5" y="-11.6667" font-family="Times Roman,serif" font-size="10.00">name = &quot;WA13&quot;</text>
</g>
<!-- b1&#45;&#45;f2 -->
<g id="edge2" class="edge"><title>b1&#45;&#45;f2</title>
<path fill="none" stroke="black" d="M97.291,-96.0803C89.6661,-84.9554 80.4139,-71.4563 72.2644,-59.5662"/>
<text text-anchor="middle" x="80.8742" y="-61.6526" font-family="Times Roman,serif" font-size="10.00">has</text>
<text text-anchor="middle" x="88.6812" y="-87.9939" font-family="Times Roman,serif" font-size="10.00">buildings</text>
</g>
<!-- f3 -->
<g id="node3" class="node"><title>f3</title>
<polygon fill="none" stroke="black" points="130,-38 130,-55 218,-55 218,-38 130,-38"/>
<text text-anchor="start" x="152.5" y="-44.1667" font-family="Times Roman,serif" font-size="10.00"> </text>
<text text-anchor="start" x="156.5" y="-44.1667" font-family="Times Roman,serif" font-size="10.00">f3 :Floor</text>
<polygon fill="none" stroke="black" points="130,-4 130,-38 218,-38 218,-4 130,-4"/>
<text text-anchor="start" x="152.5" y="-25.6667" font-family="Times Roman,serif" font-size="10.00">level = 0</text>
<text text-anchor="start" x="135.5" y="-11.6667" font-family="Times Roman,serif" font-size="10.00">name = &quot;WA03&quot;</text>
</g>
<!-- b1&#45;&#45;f3 -->
<g id="edge4" class="edge"><title>b1&#45;&#45;f3</title>
<path fill="none" stroke="black" d="M128.709,-96.0803C136.334,-84.9554 145.586,-71.4563 153.736,-59.5662"/>
<text text-anchor="middle" x="152.098" y="-66.4311" font-family="Times Roman,serif" font-size="10.00">has</text>
<text text-anchor="middle" x="130.347" y="-83.2153" font-family="Times Roman,serif" font-size="10.00">buildings</text>
</g>
</g>
</svg>
