<?xml version="1.0" encoding="UTF-8" standalone="no"?>
<!DOCTYPE svg PUBLIC "-//W3C//DTD SVG 1.1//EN"
 "http://www.w3.org/Graphics/SVG/1.1/DTD/svg11.dtd">
<!-- Generated by graphviz version 2.26.3 (20100126.1600)
 -->
<!-- Title: ClassDiagram Pages: 1 -->
<svg width="230pt" height="320pt"
 viewBox="0.00 0.00 230.00 320.00" xmlns="http://www.w3.org/2000/svg" xmlns:xlink="http://www.w3.org/1999/xlink">
<g id="graph1" class="graph" transform="scale(1 1) rotate(0) translate(4 316)">
<title>ClassDiagram</title>
<polygon fill="white" stroke="white" points="-4,5 -4,-316 227,-316 227,5 -4,5"/>
<!-- _GenericGraph -->
<g id="node1" class="node"><title>_GenericGraph</title>
<polygon fill="none" stroke="black" points="133,-290 133,-307 207,-307 207,-290 133,-290"/>
<text text-anchor="start" x="136.5" y="-296.167" font-family="Times Roman,serif" font-size="10.00">GenericGraph</text>
<polygon fill="none" stroke="black" points="133,-270 133,-290 207,-290 207,-270 133,-270"/>
<text text-anchor="start" x="168" y="-277.667" font-family="Times Roman,serif" font-size="10.00"> </text>
<polygon fill="none" stroke="black" points="133,-250 133,-270 207,-270 207,-250 133,-250"/>
<text text-anchor="start" x="168" y="-257.667" font-family="Times Roman,serif" font-size="10.00"> </text>
</g>
<!-- _GenericObject -->
<g id="node2" class="node"><title>_GenericObject</title>
<polygon fill="none" stroke="black" points="97,-188 97,-205 172,-205 172,-188 97,-188"/>
<text text-anchor="start" x="100.5" y="-194.167" font-family="Times Roman,serif" font-size="10.00">GenericObject</text>
<polygon fill="none" stroke="black" points="97,-140 97,-188 172,-188 172,-140 97,-140"/>
<text text-anchor="start" x="102" y="-175.667" font-family="Times Roman,serif" font-size="10.00">name :String</text>
<text text-anchor="start" x="102" y="-161.667" font-family="Times Roman,serif" font-size="10.00">type :String</text>
<text text-anchor="start" x="102" y="-147.667" font-family="Times Roman,serif" font-size="10.00">icon :String</text>
<polygon fill="none" stroke="black" points="97,-120 97,-140 172,-140 172,-120 97,-120"/>
<text text-anchor="start" x="132.5" y="-127.667" font-family="Times Roman,serif" font-size="10.00"> </text>
</g>
<!-- _GenericGraph&#45;&gt;_GenericObject -->
<g id="edge2" class="edge"><title>_GenericGraph&#45;&gt;_GenericObject</title>
<path fill="none" stroke="black" d="M159.876,-246.379C156.341,-234.987 152.3,-221.968 148.48,-209.658"/>
<text text-anchor="middle" x="155.203" y="-214.061" font-family="Times Roman,serif" font-size="10.00">objects *</text>
<text text-anchor="middle" x="153.154" y="-235.976" font-family="Times Roman,serif" font-size="10.00">graph</text>
</g>
<!-- _GenericLink -->
<g id="node4" class="node"><title>_GenericLink</title>
<polygon fill="none" stroke="black" points="128,-58 128,-75 214,-75 214,-58 128,-58"/>
<text text-anchor="start" x="143" y="-64.1667" font-family="Times Roman,serif" font-size="10.00">GenericLink</text>
<polygon fill="none" stroke="black" points="128,-24 128,-58 214,-58 214,-24 128,-24"/>
<text text-anchor="start" x="133" y="-45.6667" font-family="Times Roman,serif" font-size="10.00">tgtLabel :String</text>
<text text-anchor="start" x="133" y="-31.6667" font-family="Times Roman,serif" font-size="10.00">srcLabel :String</text>
<polygon fill="none" stroke="black" points="128,-4 128,-24 214,-24 214,-4 128,-4"/>
<text text-anchor="start" x="169" y="-11.6667" font-family="Times Roman,serif" font-size="10.00"> </text>
</g>
<!-- _GenericGraph&#45;&gt;_GenericLink -->
<g id="edge10" class="edge"><title>_GenericGraph&#45;&gt;_GenericLink</title>
<path fill="none" stroke="black" d="M180.342,-246.345C183.457,-234.966 186.456,-222.034 188,-210 193.316,-168.562 192.588,-157.525 188,-116 186.679,-104.04 184.221,-91.2096 181.578,-79.5603"/>
<text text-anchor="middle" x="187.675" y="-84.4866" font-family="Times Roman,serif" font-size="10.00">links *</text>
<text text-anchor="middle" x="178.614" y="-233.495" font-family="Times Roman,serif" font-size="10.00">graph</text>
</g>
<!-- _GenericAttribute -->
<g id="node3" class="node"><title>_GenericAttribute</title>
<polygon fill="none" stroke="black" points="8,-58 8,-75 94,-75 94,-58 8,-58"/>
<text text-anchor="start" x="11.5" y="-64.1667" font-family="Times Roman,serif" font-size="10.00">GenericAttribute</text>
<polygon fill="none" stroke="black" points="8,-24 8,-58 94,-58 94,-24 8,-24"/>
<text text-anchor="start" x="13" y="-45.6667" font-family="Times Roman,serif" font-size="10.00">name :String</text>
<text text-anchor="start" x="13" y="-31.6667" font-family="Times Roman,serif" font-size="10.00">value :String</text>
<polygon fill="none" stroke="black" points="8,-4 8,-24 94,-24 94,-4 8,-4"/>
<text text-anchor="start" x="49" y="-11.6667" font-family="Times Roman,serif" font-size="10.00"> </text>
</g>
<!-- _GenericObject&#45;&gt;_GenericAttribute -->
<g id="edge4" class="edge"><title>_GenericObject&#45;&gt;_GenericAttribute</title>
<path fill="none" stroke="black" d="M102.621,-116.499C94.4499,-104.39 85.721,-91.454 77.8098,-79.7302"/>
<text text-anchor="middle" x="86.3825" y="-81.8789" font-family="Times Roman,serif" font-size="10.00">attrs *</text>
<text text-anchor="middle" x="94.0486" y="-108.35" font-family="Times Roman,serif" font-size="10.00">owner</text>
</g>
<!-- _GenericObject&#45;&gt;_GenericLink -->
<g id="edge6" class="edge"><title>_GenericObject&#45;&gt;_GenericLink</title>
<path fill="none" stroke="black" d="M141.42,-116.499C144.764,-104.39 148.725,-91.454 152.689,-79.7302"/>
<text text-anchor="middle" x="153.82" y="-86.6661" font-family="Times Roman,serif" font-size="10.00">outgoingLinks *</text>
<text text-anchor="middle" x="139.788" y="-103.633" font-family="Times Roman,serif" font-size="10.00">src</text>
</g>
<!-- _GenericObject&#45;&gt;_GenericLink -->
<g id="edge8" class="edge"><title>_GenericObject&#45;&gt;_GenericLink</title>
<path fill="none" stroke="black" d="M154.556,-116.499C158.498,-104.39 162.319,-91.454 165.408,-79.7302"/>
<text text-anchor="middle" x="167.154" y="-86.5766" font-family="Times Roman,serif" font-size="10.00">incommingLinks *</text>
<text text-anchor="middle" x="153.314" y="-103.576" font-family="Times Roman,serif" font-size="10.00">tgt</text>
</g>
</g>
</svg>
