<?xml version="1.0" encoding="UTF-8" standalone="no"?>
<!DOCTYPE svg PUBLIC "-//W3C//DTD SVG 1.1//EN"
 "http://www.w3.org/Graphics/SVG/1.1/DTD/svg11.dtd">
<!-- Generated by graphviz version 2.28.0 (20110507.0327)
 -->
<!-- Title: ObjectDiagram Pages: 1 -->
<svg width="655pt" height="428pt"
 viewBox="0.00 0.00 655.00 428.00" xmlns="http://www.w3.org/2000/svg" xmlns:xlink="http://www.w3.org/1999/xlink">
<g id="graph1" class="graph" transform="scale(1 1) rotate(0) translate(4 424)">
<title>ObjectDiagram</title>
<polygon fill="white" stroke="white" points="-4,5 -4,-424 652,-424 652,5 -4,5"/>
<!-- g1 -->
<g id="node1" class="node"><title>g1</title>
<polygon fill="none" stroke="black" points="277,-393 277,-410 356,-410 356,-393 277,-393"/>
<text text-anchor="start" x="280.5" y="-399.5" font-family="Times New Roman,serif" font-size="10.00"> </text>
<text text-anchor="start" x="283.5" y="-399.5" font-family="Times New Roman,serif" font-size="10.00">g1 :GenericGraph</text>
</g>
<!-- g2 -->
<g id="node2" class="node"><title>g2</title>
<polygon fill="none" stroke="black" points="116,-326 116,-343 280,-343 280,-326 116,-326"/>
<text text-anchor="start" x="161" y="-332.5" font-family="Times New Roman,serif" font-size="10.00"> </text>
<text text-anchor="start" x="164" y="-332.5" font-family="Times New Roman,serif" font-size="10.00">g2 :GenericObject</text>
<polygon fill="none" stroke="black" points="116,-292 116,-326 280,-326 280,-292 116,-292"/>
<text text-anchor="start" x="152.5" y="-314" font-family="Times New Roman,serif" font-size="10.00">name = &quot;spec2gen.B1&quot;</text>
<text text-anchor="start" x="121.5" y="-300" font-family="Times New Roman,serif" font-size="10.00">type = &quot;de.kassel.roombook.Building&quot;</text>
</g>
<!-- g1&#45;&#45;g2 -->
<g id="edge2" class="edge"><title>g1&#45;&#45;g2</title>
<path fill="none" stroke="black" d="M291.263,-383.81C276.26,-373.384 256.734,-359.815 239.427,-347.789"/>
<text text-anchor="middle" x="249.282" y="-346.99" font-family="Times New Roman,serif" font-size="10.00">objects</text>
<text text-anchor="middle" x="281.409" y="-379.609" font-family="Times New Roman,serif" font-size="10.00">graph</text>
</g>
<!-- g4 -->
<g id="node4" class="node"><title>g4</title>
<polygon fill="none" stroke="black" points="40,-230 40,-247 142,-247 142,-230 40,-230"/>
<text text-anchor="start" x="58.5" y="-236.5" font-family="Times New Roman,serif" font-size="10.00"> </text>
<text text-anchor="start" x="61.5" y="-236.5" font-family="Times New Roman,serif" font-size="10.00">g4 :GenericLink</text>
<polygon fill="none" stroke="black" points="40,-196 40,-230 142,-230 142,-196 40,-196"/>
<text text-anchor="start" x="57.5" y="-218" font-family="Times New Roman,serif" font-size="10.00">tgtLabel = &quot;has&quot;</text>
<text text-anchor="start" x="45.5" y="-204" font-family="Times New Roman,serif" font-size="10.00">srcLabel = &quot;buildings&quot;</text>
</g>
<!-- g1&#45;&#45;g4 -->
<g id="edge4" class="edge"><title>g1&#45;&#45;g4</title>
<path fill="none" stroke="black" d="M268.659,-395.944C211.544,-388.787 120.486,-373.635 99,-348 76.7199,-321.418 79.0974,-279.436 84.0557,-251.563"/>
<text text-anchor="middle" x="86.8107" y="-258.676" font-family="Times New Roman,serif" font-size="10.00">links</text>
<text text-anchor="middle" x="259.12" y="-396.445" font-family="Times New Roman,serif" font-size="10.00">graph</text>
</g>
<!-- g5 -->
<g id="node5" class="node"><title>g5</title>
<polygon fill="none" stroke="black" points="20,-134 20,-151 171,-151 171,-134 20,-134"/>
<text text-anchor="start" x="58.5" y="-140.5" font-family="Times New Roman,serif" font-size="10.00"> </text>
<text text-anchor="start" x="61.5" y="-140.5" font-family="Times New Roman,serif" font-size="10.00">g5 :GenericObject</text>
<polygon fill="none" stroke="black" points="20,-100 20,-134 171,-134 171,-100 20,-100"/>
<text text-anchor="start" x="50" y="-122" font-family="Times New Roman,serif" font-size="10.00">name = &quot;spec2gen.F2&quot;</text>
<text text-anchor="start" x="25.5" y="-108" font-family="Times New Roman,serif" font-size="10.00">type = &quot;de.kassel.roombook.Floor&quot;</text>
</g>
<!-- g1&#45;&#45;g5 -->
<g id="edge6" class="edge"><title>g1&#45;&#45;g5</title>
<path fill="none" stroke="black" d="M318.895,-383.76C324.418,-344.711 332.054,-248.525 285,-192 258.792,-160.517 216.616,-144.241 178.65,-135.845"/>
<text text-anchor="middle" x="188.45" y="-131.353" font-family="Times New Roman,serif" font-size="10.00">objects</text>
<text text-anchor="middle" x="315.824" y="-371.743" font-family="Times New Roman,serif" font-size="10.00">graph</text>
</g>
<!-- g8 -->
<g id="node8" class="node"><title>g8</title>
<polygon fill="none" stroke="black" points="346,-230 346,-247 448,-247 448,-230 346,-230"/>
<text text-anchor="start" x="364.5" y="-236.5" font-family="Times New Roman,serif" font-size="10.00"> </text>
<text text-anchor="start" x="367.5" y="-236.5" font-family="Times New Roman,serif" font-size="10.00">g8 :GenericLink</text>
<polygon fill="none" stroke="black" points="346,-196 346,-230 448,-230 448,-196 346,-196"/>
<text text-anchor="start" x="363.5" y="-218" font-family="Times New Roman,serif" font-size="10.00">tgtLabel = &quot;has&quot;</text>
<text text-anchor="start" x="351.5" y="-204" font-family="Times New Roman,serif" font-size="10.00">srcLabel = &quot;buildings&quot;</text>
</g>
<!-- g1&#45;&#45;g8 -->
<g id="edge8" class="edge"><title>g1&#45;&#45;g8</title>
<path fill="none" stroke="black" d="M323.767,-383.933C337.665,-353.39 366.925,-289.09 383.953,-251.671"/>
<text text-anchor="middle" x="384.046" y="-259.171" font-family="Times New Roman,serif" font-size="10.00">links</text>
<text text-anchor="middle" x="323.674" y="-371.433" font-family="Times New Roman,serif" font-size="10.00">graph</text>
</g>
<!-- g9 -->
<g id="node9" class="node"><title>g9</title>
<polygon fill="none" stroke="black" points="386,-134 386,-151 537,-151 537,-134 386,-134"/>
<text text-anchor="start" x="424.5" y="-140.5" font-family="Times New Roman,serif" font-size="10.00"> </text>
<text text-anchor="start" x="427.5" y="-140.5" font-family="Times New Roman,serif" font-size="10.00">g9 :GenericObject</text>
<polygon fill="none" stroke="black" points="386,-100 386,-134 537,-134 537,-100 386,-100"/>
<text text-anchor="start" x="416" y="-122" font-family="Times New Roman,serif" font-size="10.00">name = &quot;spec2gen.F3&quot;</text>
<text text-anchor="start" x="391.5" y="-108" font-family="Times New Roman,serif" font-size="10.00">type = &quot;de.kassel.roombook.Floor&quot;</text>
</g>
<!-- g1&#45;&#45;g9 -->
<g id="edge10" class="edge"><title>g1&#45;&#45;g9</title>
<path fill="none" stroke="black" d="M343.34,-383.869C379.175,-359.604 440.361,-311.485 465,-252 477.837,-221.008 473.723,-181.895 468.442,-155.752"/>
<text text-anchor="middle" x="474.26" y="-161.385" font-family="Times New Roman,serif" font-size="10.00">objects</text>
<text text-anchor="middle" x="348.357" y="-372.719" font-family="Times New Roman,serif" font-size="10.00">graph</text>
</g>
<!-- g3 -->
<g id="node3" class="node"><title>g3</title>
<polygon fill="none" stroke="black" points="176,-230 176,-247 268,-247 268,-230 176,-230"/>
<text text-anchor="start" x="179.5" y="-236.5" font-family="Times New Roman,serif" font-size="10.00"> </text>
<text text-anchor="start" x="182.5" y="-236.5" font-family="Times New Roman,serif" font-size="10.00">g3 :GenericAttribute</text>
<polygon fill="none" stroke="black" points="176,-196 176,-230 268,-230 268,-196 176,-196"/>
<text text-anchor="start" x="191.5" y="-218" font-family="Times New Roman,serif" font-size="10.00">name = &quot;name&quot;</text>
<text text-anchor="start" x="188.5" y="-204" font-family="Times New Roman,serif" font-size="10.00">value = &quot;WA73&quot;</text>
</g>
<!-- g2&#45;&#45;g3 -->
<g id="edge12" class="edge"><title>g2&#45;&#45;g3</title>
<path fill="none" stroke="black" d="M205.331,-288.286C208.309,-276.624 211.741,-263.182 214.714,-251.538"/>
<text text-anchor="middle" x="216.566" y="-258.865" font-family="Times New Roman,serif" font-size="10.00">attrs</text>
<text text-anchor="middle" x="203.478" y="-275.959" font-family="Times New Roman,serif" font-size="10.00">owner</text>
</g>
<!-- g2&#45;&#45;g4 -->
<g id="edge14" class="edge"><title>g2&#45;&#45;g4</title>
<path fill="none" stroke="black" d="M165.315,-288.286C152.04,-276.624 136.739,-263.182 123.485,-251.538"/>
<text text-anchor="middle" x="133.083" y="-251.845" font-family="Times New Roman,serif" font-size="10.00">outgoingLinks</text>
<text text-anchor="middle" x="155.717" y="-282.98" font-family="Times New Roman,serif" font-size="10.00">src</text>
</g>
<!-- g2&#45;&#45;g8 -->
<g id="edge16" class="edge"><title>g2&#45;&#45;g8</title>
<path fill="none" stroke="black" d="M258.517,-288.414C283.674,-276.531 312.78,-262.782 337.796,-250.965"/>
<text text-anchor="middle" x="331.407" y="-256.158" font-family="Times New Roman,serif" font-size="10.00">outgoingLinks</text>
<text text-anchor="middle" x="264.907" y="-278.222" font-family="Times New Roman,serif" font-size="10.00">src</text>
</g>
<!-- g4&#45;&#45;g5 -->
<g id="edge18" class="edge"><title>g4&#45;&#45;g5</title>
<path fill="none" stroke="black" d="M92.2219,-192.286C92.7181,-180.624 93.2901,-167.182 93.7856,-155.538"/>
<text text-anchor="middle" x="97.6227" y="-162.273" font-family="Times New Roman,serif" font-size="10.00">tgt</text>
<text text-anchor="middle" x="88.3848" y="-180.552" font-family="Times New Roman,serif" font-size="10.00">incommingLinks</text>
</g>
<!-- g6 -->
<g id="node6" class="node"><title>g6</title>
<polygon fill="none" stroke="black" points="134,-38 134,-55 226,-55 226,-38 134,-38"/>
<text text-anchor="start" x="137.5" y="-44.5" font-family="Times New Roman,serif" font-size="10.00"> </text>
<text text-anchor="start" x="140.5" y="-44.5" font-family="Times New Roman,serif" font-size="10.00">g6 :GenericAttribute</text>
<polygon fill="none" stroke="black" points="134,-4 134,-38 226,-38 226,-4 134,-4"/>
<text text-anchor="start" x="150.5" y="-26" font-family="Times New Roman,serif" font-size="10.00">name = &quot;level&quot;</text>
<text text-anchor="start" x="157" y="-12" font-family="Times New Roman,serif" font-size="10.00">value = &quot;1&quot;</text>
</g>
<!-- g5&#45;&#45;g6 -->
<g id="edge20" class="edge"><title>g5&#45;&#45;g6</title>
<path fill="none" stroke="black" d="M120.965,-96.2861C131.51,-84.624 143.665,-71.1822 154.194,-59.538"/>
<text text-anchor="middle" x="151.25" y="-66.5948" font-family="Times New Roman,serif" font-size="10.00">attrs</text>
<text text-anchor="middle" x="123.909" y="-84.2293" font-family="Times New Roman,serif" font-size="10.00">owner</text>
</g>
<!-- g7 -->
<g id="node7" class="node"><title>g7</title>
<polygon fill="none" stroke="black" points="8,-38 8,-55 100,-55 100,-38 8,-38"/>
<text text-anchor="start" x="11.5" y="-44.5" font-family="Times New Roman,serif" font-size="10.00"> </text>
<text text-anchor="start" x="14.5" y="-44.5" font-family="Times New Roman,serif" font-size="10.00">g7 :GenericAttribute</text>
<polygon fill="none" stroke="black" points="8,-4 8,-38 100,-38 100,-4 8,-4"/>
<text text-anchor="start" x="23.5" y="-26" font-family="Times New Roman,serif" font-size="10.00">name = &quot;name&quot;</text>
<text text-anchor="start" x="20.5" y="-12" font-family="Times New Roman,serif" font-size="10.00">value = &quot;WA13&quot;</text>
</g>
<!-- g5&#45;&#45;g7 -->
<g id="edge22" class="edge"><title>g5&#45;&#45;g7</title>
<path fill="none" stroke="black" d="M82.4759,-96.2861C77.3892,-84.624 71.5263,-71.1822 66.4474,-59.538"/>
<text text-anchor="middle" x="73.9446" y="-63.6557" font-family="Times New Roman,serif" font-size="10.00">attrs</text>
<text text-anchor="middle" x="74.9788" y="-87.1685" font-family="Times New Roman,serif" font-size="10.00">owner</text>
</g>
<!-- g8&#45;&#45;g9 -->
<g id="edge24" class="edge"><title>g8&#45;&#45;g9</title>
<path fill="none" stroke="black" d="M416.55,-192.286C424.49,-180.624 433.642,-167.182 441.57,-155.538"/>
<text text-anchor="middle" x="439.963" y="-162.908" font-family="Times New Roman,serif" font-size="10.00">tgt</text>
<text text-anchor="middle" x="418.157" y="-179.916" font-family="Times New Roman,serif" font-size="10.00">incommingLinks</text>
</g>
<!-- g10 -->
<g id="node10" class="node"><title>g10</title>
<polygon fill="none" stroke="black" points="283,-38 283,-55 379,-55 379,-38 283,-38"/>
<text text-anchor="start" x="286.5" y="-44.5" font-family="Times New Roman,serif" font-size="10.00"> </text>
<text text-anchor="start" x="289.5" y="-44.5" font-family="Times New Roman,serif" font-size="10.00">g10 :GenericAttribute</text>
<polygon fill="none" stroke="black" points="283,-4 283,-38 379,-38 379,-4 283,-4"/>
<text text-anchor="start" x="301.5" y="-26" font-family="Times New Roman,serif" font-size="10.00">name = &quot;level&quot;</text>
<text text-anchor="start" x="308" y="-12" font-family="Times New Roman,serif" font-size="10.00">value = &quot;0&quot;</text>
</g>
<!-- g9&#45;&#45;g10 -->
<g id="edge26" class="edge"><title>g9&#45;&#45;g10</title>
<path fill="none" stroke="black" d="M421.289,-96.2861C405.161,-84.624 386.571,-71.1822 370.467,-59.538"/>
<text text-anchor="middle" x="380.288" y="-58.9238" font-family="Times New Roman,serif" font-size="10.00">attrs</text>
<text text-anchor="middle" x="411.469" y="-91.9004" font-family="Times New Roman,serif" font-size="10.00">owner</text>
</g>
<!-- g11 -->
<g id="node11" class="node"><title>g11</title>
<polygon fill="none" stroke="black" points="413,-38 413,-55 509,-55 509,-38 413,-38"/>
<text text-anchor="start" x="416.5" y="-44.5" font-family="Times New Roman,serif" font-size="10.00"> </text>
<text text-anchor="start" x="419.5" y="-44.5" font-family="Times New Roman,serif" font-size="10.00">g11 :GenericAttribute</text>
<polygon fill="none" stroke="black" points="413,-4 413,-38 509,-38 509,-4 413,-4"/>
<text text-anchor="start" x="430.5" y="-26" font-family="Times New Roman,serif" font-size="10.00">name = &quot;name&quot;</text>
<text text-anchor="start" x="427.5" y="-12" font-family="Times New Roman,serif" font-size="10.00">value = &quot;WA03&quot;</text>
</g>
<!-- g9&#45;&#45;g11 -->
<g id="edge28" class="edge"><title>g9&#45;&#45;g11</title>
<path fill="none" stroke="black" d="M461,-96.2861C461,-84.624 461,-71.1822 461,-59.538"/>
<text text-anchor="middle" x="465.226" y="-66.1011" font-family="Times New Roman,serif" font-size="10.00">attrs</text>
<text text-anchor="middle" x="456.774" y="-84.7231" font-family="Times New Roman,serif" font-size="10.00">owner</text>
</g>
<!-- g12 -->
<g id="node12" class="node"><title>g12</title>
<polygon fill="none" stroke="black" points="543,-38 543,-55 639,-55 639,-38 543,-38"/>
<text text-anchor="start" x="546.5" y="-44.5" font-family="Times New Roman,serif" font-size="10.00"> </text>
<text text-anchor="start" x="549.5" y="-44.5" font-family="Times New Roman,serif" font-size="10.00">g12 :GenericAttribute</text>
<polygon fill="none" stroke="black" points="543,-4 543,-38 639,-38 639,-4 543,-4"/>
<text text-anchor="start" x="559.5" y="-26" font-family="Times New Roman,serif" font-size="10.00">name = &quot;guest&quot;</text>
<text text-anchor="start" x="558.5" y="-12" font-family="Times New Roman,serif" font-size="10.00">value = &quot;Ulrich&quot;</text>
</g>
<!-- g9&#45;&#45;g12 -->
<g id="edge30" class="edge"><title>g9&#45;&#45;g12</title>
<path fill="none" stroke="black" d="M500.711,-96.2861C516.839,-84.624 535.429,-71.1822 551.533,-59.538"/>
<text text-anchor="middle" x="546.665" y="-65.7732" font-family="Times New Roman,serif" font-size="10.00">attrs</text>
<text text-anchor="middle" x="505.579" y="-85.051" font-family="Times New Roman,serif" font-size="10.00">owner</text>
</g>
</g>
</svg>
