<?xml version="1.0" encoding="UTF-8" standalone="no"?>
<!DOCTYPE svg PUBLIC "-//W3C//DTD SVG 1.1//EN"
 "http://www.w3.org/Graphics/SVG/1.1/DTD/svg11.dtd">
<!-- Generated by graphviz version 2.28.0 (20110507.0327)
 -->
<!-- Title: ClassDiagram Pages: 1 -->
<svg width="206pt" height="306pt"
 viewBox="0.00 0.00 206.00 306.00" xmlns="http://www.w3.org/2000/svg" xmlns:xlink="http://www.w3.org/1999/xlink">
<g id="graph1" class="graph" transform="scale(1 1) rotate(0) translate(4 302)">
<title>ClassDiagram</title>
<polygon fill="white" stroke="white" points="-4,5 -4,-302 203,-302 203,5 -4,5"/>
<!-- _GenericGraph -->
<g id="node1" class="node"><title>_GenericGraph</title>
<polygon fill="none" stroke="black" points="122,-276 122,-293 184,-293 184,-276 122,-276"/>
<text text-anchor="start" x="125.5" y="-282.5" font-family="Times New Roman,serif" font-size="10.00">GenericGraph</text>
<polygon fill="none" stroke="black" points="122,-256 122,-276 184,-276 184,-256 122,-256"/>
<text text-anchor="start" x="151.5" y="-264" font-family="Times New Roman,serif" font-size="10.00"> </text>
<polygon fill="none" stroke="black" points="122,-236 122,-256 184,-256 184,-236 122,-236"/>
<text text-anchor="start" x="151.5" y="-244" font-family="Times New Roman,serif" font-size="10.00"> </text>
</g>
<!-- _GenericObject -->
<g id="node2" class="node"><title>_GenericObject</title>
<polygon fill="none" stroke="black" points="87,-174 87,-191 151,-191 151,-174 87,-174"/>
<text text-anchor="start" x="90.5" y="-180.5" font-family="Times New Roman,serif" font-size="10.00">GenericObject</text>
<polygon fill="none" stroke="black" points="87,-140 87,-174 151,-174 151,-140 87,-140"/>
<text text-anchor="start" x="92" y="-162" font-family="Times New Roman,serif" font-size="10.00">name :String</text>
<text text-anchor="start" x="92" y="-148" font-family="Times New Roman,serif" font-size="10.00">type :String</text>
<polygon fill="none" stroke="black" points="87,-120 87,-140 151,-140 151,-120 87,-120"/>
<text text-anchor="start" x="117.5" y="-128" font-family="Times New Roman,serif" font-size="10.00"> </text>
</g>
<!-- _GenericGraph&#45;&gt;_GenericObject -->
<g id="edge2" class="edge"><title>_GenericGraph&#45;&gt;_GenericObject</title>
<path fill="none" stroke="black" d="M142.983,-232.475C139.339,-221.009 135.178,-207.913 131.356,-195.885"/>
<text text-anchor="middle" x="138.128" y="-200.742" font-family="Times New Roman,serif" font-size="10.00">objects *</text>
<text text-anchor="middle" x="136.21" y="-222.618" font-family="Times New Roman,serif" font-size="10.00">graph</text>
</g>
<!-- _GenericLink -->
<g id="node4" class="node"><title>_GenericLink</title>
<polygon fill="none" stroke="black" points="116,-58 116,-75 190,-75 190,-58 116,-58"/>
<text text-anchor="start" x="129" y="-64.5" font-family="Times New Roman,serif" font-size="10.00">GenericLink</text>
<polygon fill="none" stroke="black" points="116,-24 116,-58 190,-58 190,-24 116,-24"/>
<text text-anchor="start" x="121" y="-46" font-family="Times New Roman,serif" font-size="10.00">tgtLabel :String</text>
<text text-anchor="start" x="121" y="-32" font-family="Times New Roman,serif" font-size="10.00">srcLabel :String</text>
<polygon fill="none" stroke="black" points="116,-4 116,-24 190,-24 190,-4 116,-4"/>
<text text-anchor="start" x="151.5" y="-12" font-family="Times New Roman,serif" font-size="10.00"> </text>
</g>
<!-- _GenericGraph&#45;&gt;_GenericLink -->
<g id="edge10" class="edge"><title>_GenericGraph&#45;&gt;_GenericLink</title>
<path fill="none" stroke="black" d="M161.463,-232.41C164.115,-221.023 166.69,-208.018 168,-196 171.852,-160.654 171.504,-151.383 168,-116 166.822,-104.107 164.619,-91.307 162.256,-79.7071"/>
<text text-anchor="middle" x="168.179" y="-85.2647" font-family="Times New Roman,serif" font-size="10.00">links *</text>
<text text-anchor="middle" x="159.364" y="-220.133" font-family="Times New Roman,serif" font-size="10.00">graph</text>
</g>
<!-- _GenericAttribute -->
<g id="node3" class="node"><title>_GenericAttribute</title>
<polygon fill="none" stroke="black" points="8,-58 8,-75 82,-75 82,-58 8,-58"/>
<text text-anchor="start" x="11.5" y="-64.5" font-family="Times New Roman,serif" font-size="10.00">GenericAttribute</text>
<polygon fill="none" stroke="black" points="8,-24 8,-58 82,-58 82,-24 8,-24"/>
<text text-anchor="start" x="13" y="-46" font-family="Times New Roman,serif" font-size="10.00">name :String</text>
<text text-anchor="start" x="13" y="-32" font-family="Times New Roman,serif" font-size="10.00">value :String</text>
<polygon fill="none" stroke="black" points="8,-4 8,-24 82,-24 82,-4 8,-4"/>
<text text-anchor="start" x="43.5" y="-12" font-family="Times New Roman,serif" font-size="10.00"> </text>
</g>
<!-- _GenericObject&#45;&gt;_GenericAttribute -->
<g id="edge4" class="edge"><title>_GenericObject&#45;&gt;_GenericAttribute</title>
<path fill="none" stroke="black" d="M93.947,-116.405C86.2319,-104.519 77.7405,-91.4381 70.0272,-79.5555"/>
<text text-anchor="middle" x="78.5066" y="-82.3563" font-family="Times New Roman,serif" font-size="10.00">attrs *</text>
<text text-anchor="middle" x="85.4676" y="-108.604" font-family="Times New Roman,serif" font-size="10.00">owner</text>
</g>
<!-- _GenericObject&#45;&gt;_GenericLink -->
<g id="edge6" class="edge"><title>_GenericObject&#45;&gt;_GenericLink</title>
<path fill="none" stroke="black" d="M124.084,-116.405C127.197,-104.519 131.099,-91.4381 135.075,-79.5555"/>
<text text-anchor="middle" x="136.243" y="-86.9871" font-family="Times New Roman,serif" font-size="10.00">outgoingLinks *</text>
<text text-anchor="middle" x="122.329" y="-104.06" font-family="Times New Roman,serif" font-size="10.00">src</text>
</g>
<!-- _GenericObject&#45;&gt;_GenericLink -->
<g id="edge8" class="edge"><title>_GenericObject&#45;&gt;_GenericLink</title>
<path fill="none" stroke="black" d="M136.938,-116.405C140.914,-104.519 144.815,-91.4381 147.927,-79.5555"/>
<text text-anchor="middle" x="149.683" y="-86.9001" font-family="Times New Roman,serif" font-size="10.00">incommingLinks *</text>
<text text-anchor="middle" x="135.77" y="-103.973" font-family="Times New Roman,serif" font-size="10.00">tgt</text>
</g>
</g>
</svg>
