<?xml version="1.0" encoding="UTF-8" standalone="no"?>
<!DOCTYPE svg PUBLIC "-//W3C//DTD SVG 1.1//EN"
 "http://www.w3.org/Graphics/SVG/1.1/DTD/svg11.dtd">
<!-- Generated by graphviz version 2.28.0 (20110507.0327)
 -->
<!-- Title: ObjectDiagram Pages: 1 -->
<svg width="548pt" height="428pt"
 viewBox="0.00 0.00 548.00 428.00" xmlns="http://www.w3.org/2000/svg" xmlns:xlink="http://www.w3.org/1999/xlink">
<g id="graph1" class="graph" transform="scale(1 1) rotate(0) translate(4 424)">
<title>ObjectDiagram</title>
<polygon fill="white" stroke="white" points="-4,5 -4,-424 545,-424 545,5 -4,5"/>
<!-- g1 -->
<g id="node1" class="node"><title>g1</title>
<polygon fill="none" stroke="black" points="232,-393 232,-410 311,-410 311,-393 232,-393"/>
<text text-anchor="start" x="235.5" y="-399.5" font-family="Times New Roman,serif" font-size="10.00"> </text>
<text text-anchor="start" x="238.5" y="-399.5" font-family="Times New Roman,serif" font-size="10.00">g1 :GenericGraph</text>
</g>
<!-- g2 -->
<g id="node2" class="node"><title>g2</title>
<polygon fill="none" stroke="black" points="144,-326 144,-343 235,-343 235,-326 144,-326"/>
<text text-anchor="start" x="152.5" y="-332.5" font-family="Times New Roman,serif" font-size="10.00"> </text>
<text text-anchor="start" x="155.5" y="-332.5" font-family="Times New Roman,serif" font-size="10.00">g2 :GenericObject</text>
<polygon fill="none" stroke="black" points="144,-292 144,-326 235,-326 235,-292 144,-292"/>
<text text-anchor="start" x="149.5" y="-314" font-family="Times New Roman,serif" font-size="10.00">name = &quot;WilliAllee&quot;</text>
<text text-anchor="start" x="154" y="-300" font-family="Times New Roman,serif" font-size="10.00">type = &quot;Building&quot;</text>
</g>
<!-- g1&#45;&#45;g2 -->
<g id="edge2" class="edge"><title>g1&#45;&#45;g2</title>
<path fill="none" stroke="black" d="M253.61,-383.61C243.173,-373.173 229.64,-359.64 217.658,-347.658"/>
<text text-anchor="middle" x="227.055" y="-348.578" font-family="Times New Roman,serif" font-size="10.00">objects</text>
<text text-anchor="middle" x="244.213" y="-377.69" font-family="Times New Roman,serif" font-size="10.00">graph</text>
</g>
<!-- g4 -->
<g id="node4" class="node"><title>g4</title>
<polygon fill="none" stroke="black" points="31,-223 31,-240 109,-240 109,-223 31,-223"/>
<text text-anchor="start" x="37.5" y="-229.5" font-family="Times New Roman,serif" font-size="10.00"> </text>
<text text-anchor="start" x="40.5" y="-229.5" font-family="Times New Roman,serif" font-size="10.00">g4 :GenericLink</text>
<polygon fill="none" stroke="black" points="31,-203 31,-223 109,-223 109,-203 31,-203"/>
<text text-anchor="start" x="36.5" y="-211" font-family="Times New Roman,serif" font-size="10.00">tgtLabel = &quot;has&quot;</text>
</g>
<!-- g1&#45;&#45;g4 -->
<g id="edge4" class="edge"><title>g1&#45;&#45;g4</title>
<path fill="none" stroke="black" d="M223.55,-393.516C192.505,-386.449 152.867,-373.03 126,-348 95.7257,-319.796 80.7349,-272.185 74.2376,-244.578"/>
<text text-anchor="middle" x="80.5358" y="-249.845" font-family="Times New Roman,serif" font-size="10.00">links</text>
<text text-anchor="middle" x="213.746" y="-392.987" font-family="Times New Roman,serif" font-size="10.00">graph</text>
</g>
<!-- g5 -->
<g id="node5" class="node"><title>g5</title>
<polygon fill="none" stroke="black" points="77,-134 77,-151 158,-151 158,-134 77,-134"/>
<text text-anchor="start" x="80.5" y="-140.5" font-family="Times New Roman,serif" font-size="10.00"> </text>
<text text-anchor="start" x="83.5" y="-140.5" font-family="Times New Roman,serif" font-size="10.00">g5 :GenericObject</text>
<polygon fill="none" stroke="black" points="77,-100 77,-134 158,-134 158,-100 77,-100"/>
<text text-anchor="start" x="82.5" y="-122" font-family="Times New Roman,serif" font-size="10.00">name = &quot;seFloor&quot;</text>
<text text-anchor="start" x="88.5" y="-108" font-family="Times New Roman,serif" font-size="10.00">type = &quot;Floor&quot;</text>
</g>
<!-- g1&#45;&#45;g5 -->
<g id="edge6" class="edge"><title>g1&#45;&#45;g5</title>
<path fill="none" stroke="black" d="M274.632,-383.968C281.765,-345.76 293.527,-251.878 252,-192 231.987,-163.143 195.539,-146.646 165.556,-137.497"/>
<text text-anchor="middle" x="175.48" y="-133.77" font-family="Times New Roman,serif" font-size="10.00">objects</text>
<text text-anchor="middle" x="271.987" y="-371.824" font-family="Times New Roman,serif" font-size="10.00">graph</text>
</g>
<!-- g8 -->
<g id="node8" class="node"><title>g8</title>
<polygon fill="none" stroke="black" points="307,-223 307,-240 385,-240 385,-223 307,-223"/>
<text text-anchor="start" x="313.5" y="-229.5" font-family="Times New Roman,serif" font-size="10.00"> </text>
<text text-anchor="start" x="316.5" y="-229.5" font-family="Times New Roman,serif" font-size="10.00">g8 :GenericLink</text>
<polygon fill="none" stroke="black" points="307,-203 307,-223 385,-223 385,-203 307,-203"/>
<text text-anchor="start" x="312.5" y="-211" font-family="Times New Roman,serif" font-size="10.00">tgtLabel = &quot;has&quot;</text>
</g>
<!-- g1&#45;&#45;g8 -->
<g id="edge8" class="edge"><title>g1&#45;&#45;g8</title>
<path fill="none" stroke="black" d="M278.191,-383.933C291.904,-351.389 321.765,-280.518 336.866,-244.679"/>
<text text-anchor="middle" x="337.241" y="-252.172" font-family="Times New Roman,serif" font-size="10.00">links</text>
<text text-anchor="middle" x="277.816" y="-371.44" font-family="Times New Roman,serif" font-size="10.00">graph</text>
</g>
<!-- g9 -->
<g id="node9" class="node"><title>g9</title>
<polygon fill="none" stroke="black" points="335,-134 335,-151 432,-151 432,-134 335,-134"/>
<text text-anchor="start" x="346.5" y="-140.5" font-family="Times New Roman,serif" font-size="10.00"> </text>
<text text-anchor="start" x="349.5" y="-140.5" font-family="Times New Roman,serif" font-size="10.00">g9 :GenericObject</text>
<polygon fill="none" stroke="black" points="335,-100 335,-134 432,-134 432,-100 335,-100"/>
<text text-anchor="start" x="340.5" y="-122" font-family="Times New Roman,serif" font-size="10.00">name = &quot;digitalFloor&quot;</text>
<text text-anchor="start" x="354.5" y="-108" font-family="Times New Roman,serif" font-size="10.00">type = &quot;Floor&quot;</text>
</g>
<!-- g1&#45;&#45;g9 -->
<g id="edge10" class="edge"><title>g1&#45;&#45;g9</title>
<path fill="none" stroke="black" d="M294.211,-383.97C325.841,-359.126 380.952,-309.585 402,-252 413.605,-220.25 404.372,-181.465 395.172,-155.598"/>
<text text-anchor="middle" x="402.072" y="-160.336" font-family="Times New Roman,serif" font-size="10.00">objects</text>
<text text-anchor="middle" x="298.611" y="-372.49" font-family="Times New Roman,serif" font-size="10.00">graph</text>
</g>
<!-- g3 -->
<g id="node3" class="node"><title>g3</title>
<polygon fill="none" stroke="black" points="143,-230 143,-247 235,-247 235,-230 143,-230"/>
<text text-anchor="start" x="146.5" y="-236.5" font-family="Times New Roman,serif" font-size="10.00"> </text>
<text text-anchor="start" x="149.5" y="-236.5" font-family="Times New Roman,serif" font-size="10.00">g3 :GenericAttribute</text>
<polygon fill="none" stroke="black" points="143,-196 143,-230 235,-230 235,-196 143,-196"/>
<text text-anchor="start" x="158.5" y="-218" font-family="Times New Roman,serif" font-size="10.00">name = &quot;name&quot;</text>
<text text-anchor="start" x="155.5" y="-204" font-family="Times New Roman,serif" font-size="10.00">value = &quot;WA73&quot;</text>
</g>
<!-- g2&#45;&#45;g3 -->
<g id="edge12" class="edge"><title>g2&#45;&#45;g3</title>
<path fill="none" stroke="black" d="M189,-288.286C189,-276.624 189,-263.182 189,-251.538"/>
<text text-anchor="middle" x="193.226" y="-258.101" font-family="Times New Roman,serif" font-size="10.00">attrs</text>
<text text-anchor="middle" x="184.774" y="-276.723" font-family="Times New Roman,serif" font-size="10.00">owner</text>
</g>
<!-- g2&#45;&#45;g4 -->
<g id="edge14" class="edge"><title>g2&#45;&#45;g4</title>
<path fill="none" stroke="black" d="M152.649,-288.286C134.878,-274.248 113.843,-257.632 97.4411,-244.676"/>
<text text-anchor="middle" x="107.173" y="-244.478" font-family="Times New Roman,serif" font-size="10.00">outgoingLinks</text>
<text text-anchor="middle" x="142.918" y="-283.485" font-family="Times New Roman,serif" font-size="10.00">src</text>
</g>
<!-- g2&#45;&#45;g8 -->
<g id="edge16" class="edge"><title>g2&#45;&#45;g8</title>
<path fill="none" stroke="black" d="M236.958,-288.286C260.404,-274.248 288.157,-257.632 309.796,-244.676"/>
<text text-anchor="middle" x="304.191" y="-250.458" font-family="Times New Roman,serif" font-size="10.00">outgoingLinks</text>
<text text-anchor="middle" x="242.563" y="-277.505" font-family="Times New Roman,serif" font-size="10.00">src</text>
</g>
<!-- g4&#45;&#45;g5 -->
<g id="edge18" class="edge"><title>g4&#45;&#45;g5</title>
<path fill="none" stroke="black" d="M80.9009,-199.198C87.3549,-186.29 95.609,-169.782 102.595,-155.81"/>
<text text-anchor="middle" x="102.322" y="-163.306" font-family="Times New Roman,serif" font-size="10.00">tgt</text>
<text text-anchor="middle" x="81.174" y="-186.702" font-family="Times New Roman,serif" font-size="10.00">incommingLinks</text>
</g>
<!-- g6 -->
<g id="node6" class="node"><title>g6</title>
<polygon fill="none" stroke="black" points="8,-38 8,-55 100,-55 100,-38 8,-38"/>
<text text-anchor="start" x="11.5" y="-44.5" font-family="Times New Roman,serif" font-size="10.00"> </text>
<text text-anchor="start" x="14.5" y="-44.5" font-family="Times New Roman,serif" font-size="10.00">g6 :GenericAttribute</text>
<polygon fill="none" stroke="black" points="8,-4 8,-38 100,-38 100,-4 8,-4"/>
<text text-anchor="start" x="23.5" y="-26" font-family="Times New Roman,serif" font-size="10.00">name = &quot;name&quot;</text>
<text text-anchor="start" x="20.5" y="-12" font-family="Times New Roman,serif" font-size="10.00">value = &quot;WA13&quot;</text>
</g>
<!-- g5&#45;&#45;g6 -->
<g id="edge20" class="edge"><title>g5&#45;&#45;g6</title>
<path fill="none" stroke="black" d="M97.7556,-96.2861C89.9395,-84.624 80.9306,-71.1822 73.1266,-59.538"/>
<text text-anchor="middle" x="81.6829" y="-62.2137" font-family="Times New Roman,serif" font-size="10.00">attrs</text>
<text text-anchor="middle" x="89.1992" y="-88.6104" font-family="Times New Roman,serif" font-size="10.00">owner</text>
</g>
<!-- g7 -->
<g id="node7" class="node"><title>g7</title>
<polygon fill="none" stroke="black" points="134,-38 134,-55 226,-55 226,-38 134,-38"/>
<text text-anchor="start" x="137.5" y="-44.5" font-family="Times New Roman,serif" font-size="10.00"> </text>
<text text-anchor="start" x="140.5" y="-44.5" font-family="Times New Roman,serif" font-size="10.00">g7 :GenericAttribute</text>
<polygon fill="none" stroke="black" points="134,-4 134,-38 226,-38 226,-4 134,-4"/>
<text text-anchor="start" x="150.5" y="-26" font-family="Times New Roman,serif" font-size="10.00">name = &quot;level&quot;</text>
<text text-anchor="start" x="157" y="-12" font-family="Times New Roman,serif" font-size="10.00">value = &quot;1&quot;</text>
</g>
<!-- g5&#45;&#45;g7 -->
<g id="edge22" class="edge"><title>g5&#45;&#45;g7</title>
<path fill="none" stroke="black" d="M136.244,-96.2861C144.061,-84.624 153.069,-71.1822 160.873,-59.538"/>
<text text-anchor="middle" x="159.338" y="-66.9195" font-family="Times New Roman,serif" font-size="10.00">attrs</text>
<text text-anchor="middle" x="137.78" y="-83.9047" font-family="Times New Roman,serif" font-size="10.00">owner</text>
</g>
<!-- g8&#45;&#45;g9 -->
<g id="edge24" class="edge"><title>g8&#45;&#45;g9</title>
<path fill="none" stroke="black" d="M354.582,-199.198C359.662,-186.29 366.16,-169.782 371.66,-155.81"/>
<text text-anchor="middle" x="372.273" y="-163.291" font-family="Times New Roman,serif" font-size="10.00">tgt</text>
<text text-anchor="middle" x="353.969" y="-186.717" font-family="Times New Roman,serif" font-size="10.00">incommingLinks</text>
</g>
<!-- g10 -->
<g id="node10" class="node"><title>g10</title>
<polygon fill="none" stroke="black" points="306,-38 306,-55 402,-55 402,-38 306,-38"/>
<text text-anchor="start" x="309.5" y="-44.5" font-family="Times New Roman,serif" font-size="10.00"> </text>
<text text-anchor="start" x="312.5" y="-44.5" font-family="Times New Roman,serif" font-size="10.00">g10 :GenericAttribute</text>
<polygon fill="none" stroke="black" points="306,-4 306,-38 402,-38 402,-4 306,-4"/>
<text text-anchor="start" x="323.5" y="-26" font-family="Times New Roman,serif" font-size="10.00">name = &quot;name&quot;</text>
<text text-anchor="start" x="320.5" y="-12" font-family="Times New Roman,serif" font-size="10.00">value = &quot;WA03&quot;</text>
</g>
<!-- g9&#45;&#45;g10 -->
<g id="edge26" class="edge"><title>g9&#45;&#45;g10</title>
<path fill="none" stroke="black" d="M374.141,-96.2861C370.544,-84.624 366.397,-71.1822 362.804,-59.538"/>
<text text-anchor="middle" x="369.514" y="-64.4525" font-family="Times New Roman,serif" font-size="10.00">attrs</text>
<text text-anchor="middle" x="367.431" y="-86.3717" font-family="Times New Roman,serif" font-size="10.00">owner</text>
</g>
<!-- g11 -->
<g id="node11" class="node"><title>g11</title>
<polygon fill="none" stroke="black" points="436,-38 436,-55 532,-55 532,-38 436,-38"/>
<text text-anchor="start" x="439.5" y="-44.5" font-family="Times New Roman,serif" font-size="10.00"> </text>
<text text-anchor="start" x="442.5" y="-44.5" font-family="Times New Roman,serif" font-size="10.00">g11 :GenericAttribute</text>
<polygon fill="none" stroke="black" points="436,-4 436,-38 532,-38 532,-4 436,-4"/>
<text text-anchor="start" x="454.5" y="-26" font-family="Times New Roman,serif" font-size="10.00">name = &quot;level&quot;</text>
<text text-anchor="start" x="461" y="-12" font-family="Times New Roman,serif" font-size="10.00">value = &quot;0&quot;</text>
</g>
<!-- g9&#45;&#45;g11 -->
<g id="edge28" class="edge"><title>g9&#45;&#45;g11</title>
<path fill="none" stroke="black" d="M413.852,-96.2861C426.383,-84.624 440.825,-71.1822 453.337,-59.538"/>
<text text-anchor="middle" x="449.582" y="-66.3062" font-family="Times New Roman,serif" font-size="10.00">attrs</text>
<text text-anchor="middle" x="417.607" y="-84.518" font-family="Times New Roman,serif" font-size="10.00">owner</text>
</g>
</g>
</svg>
