<?xml version="1.0" encoding="UTF-8" standalone="no"?>
<!DOCTYPE svg PUBLIC "-//W3C//DTD SVG 1.1//EN"
 "http://www.w3.org/Graphics/SVG/1.1/DTD/svg11.dtd">
<!-- Generated by graphviz version 2.28.0 (20110507.0327)
 -->
<!-- Title: ObjectDiagram Pages: 1 -->
<svg width="681pt" height="456pt"
 viewBox="0.00 0.00 681.00 456.00" xmlns="http://www.w3.org/2000/svg" xmlns:xlink="http://www.w3.org/1999/xlink">
<g id="graph1" class="graph" transform="scale(1 1) rotate(0) translate(4 452)">
<title>ObjectDiagram</title>
<polygon fill="white" stroke="white" points="-4,5 -4,-452 678,-452 678,5 -4,5"/>
<!-- g1 -->
<g id="node1" class="node"><title>g1</title>
<a xlink:href="../../SDMLib/src/org/sdmlib/models/objects/GenericGraph.java" xlink:title="&lt;TABLE&gt;">
<polygon fill="none" stroke="black" points="299,-421 299,-438 387,-438 387,-421 299,-421"/>
<text text-anchor="start" x="302.5" y="-427.5" font-family="Arial" font-size="10.00"> </text>
<text text-anchor="start" x="306.5" y="-427.5" font-family="Arial" font-size="10.00">g1 :GenericGraph</text>
</a>
</g>
<!-- g2 -->
<g id="node2" class="node"><title>g2</title>
<a xlink:href="../../SDMLib/src/org/sdmlib/models/objects/GenericObject.java" xlink:title="&lt;TABLE&gt;">
<polygon fill="none" stroke="black" points="210,-354 210,-371 306,-371 306,-354 210,-354"/>
<text text-anchor="start" x="216.5" y="-360.5" font-family="Arial" font-size="10.00"> </text>
<text text-anchor="start" x="220.5" y="-360.5" font-family="Arial" font-size="10.00">g2 :GenericObject</text>
</a>
<polygon fill="none" stroke="black" points="210,-306 210,-354 306,-354 306,-306 210,-306"/>
<text text-anchor="start" x="215" y="-342" font-family="Arial" font-size="10.00">name = &quot;WilliAllee&quot;</text>
<text text-anchor="start" x="215" y="-328" font-family="Arial" font-size="10.00">icon = &quot;&quot;</text>
<text text-anchor="start" x="215" y="-314" font-family="Arial" font-size="10.00">type = &quot;Building&quot;</text>
</g>
<!-- g1&#45;&#45;g2 -->
<g id="edge2" class="edge"><title>g1&#45;&#45;g2</title>
<path fill="none" stroke="black" d="M326.611,-411.84C316.77,-401.535 303.879,-388.037 291.93,-375.527"/>
<text text-anchor="middle" x="301.246" y="-376.662" font-family="Arial" font-size="10.00">objects</text>
<text text-anchor="middle" x="317.295" y="-405.705" font-family="Arial" font-size="10.00">graph</text>
</g>
<!-- g4 -->
<g id="node4" class="node"><title>g4</title>
<a xlink:href="../../SDMLib/src/org/sdmlib/models/objects/GenericLink.java" xlink:title="&lt;TABLE&gt;">
<polygon fill="none" stroke="black" points="93,-244 93,-261 174,-261 174,-244 93,-244"/>
<text text-anchor="start" x="97" y="-250.5" font-family="Arial" font-size="10.00"> </text>
<text text-anchor="start" x="101" y="-250.5" font-family="Arial" font-size="10.00">g4 :GenericLink</text>
</a>
<polygon fill="none" stroke="black" points="93,-210 93,-244 174,-244 174,-210 93,-210"/>
<text text-anchor="start" x="98" y="-232" font-family="Arial" font-size="10.00">srcLabel = &quot;&quot;</text>
<text text-anchor="start" x="98" y="-218" font-family="Arial" font-size="10.00">tgtLabel = &quot;has&quot;</text>
</g>
<!-- g1&#45;&#45;g4 -->
<g id="edge8" class="edge"><title>g1&#45;&#45;g4</title>
<path fill="none" stroke="black" d="M290.981,-421.42C259.279,-414.404 219.841,-401.079 193,-376 161.215,-346.302 145.45,-296.908 138.277,-265.697"/>
<text text-anchor="middle" x="144.537" y="-270.995" font-family="Arial" font-size="10.00">links</text>
<text text-anchor="middle" x="281.188" y="-420.947" font-family="Arial" font-size="10.00">graph</text>
</g>
<!-- g5 -->
<g id="node5" class="node"><title>g5</title>
<a xlink:href="../../SDMLib/src/org/sdmlib/models/objects/GenericObject.java" xlink:title="&lt;TABLE&gt;">
<polygon fill="none" stroke="black" points="133,-148 133,-165 223,-165 223,-148 133,-148"/>
<text text-anchor="start" x="136.5" y="-154.5" font-family="Arial" font-size="10.00"> </text>
<text text-anchor="start" x="140.5" y="-154.5" font-family="Arial" font-size="10.00">g5 :GenericObject</text>
</a>
<polygon fill="none" stroke="black" points="133,-100 133,-148 223,-148 223,-100 133,-100"/>
<text text-anchor="start" x="138" y="-136" font-family="Arial" font-size="10.00">name = &quot;seFloor&quot;</text>
<text text-anchor="start" x="138" y="-122" font-family="Arial" font-size="10.00">icon = &quot;&quot;</text>
<text text-anchor="start" x="138" y="-108" font-family="Arial" font-size="10.00">type = &quot;Floor&quot;</text>
</g>
<!-- g1&#45;&#45;g5 -->
<g id="edge4" class="edge"><title>g1&#45;&#45;g5</title>
<path fill="none" stroke="black" d="M346.677,-411.774C354.212,-371.688 367.205,-270.658 323,-206 301.824,-175.025 263.301,-156.776 231.283,-146.403"/>
<text text-anchor="middle" x="241.227" y="-142.846" font-family="Arial" font-size="10.00">objects</text>
<text text-anchor="middle" x="344.045" y="-399.627" font-family="Arial" font-size="10.00">graph</text>
</g>
<!-- g8 -->
<g id="node8" class="node"><title>g8</title>
<a xlink:href="../../SDMLib/src/org/sdmlib/models/objects/GenericLink.java" xlink:title="&lt;TABLE&gt;">
<polygon fill="none" stroke="black" points="380,-244 380,-261 461,-261 461,-244 380,-244"/>
<text text-anchor="start" x="384" y="-250.5" font-family="Arial" font-size="10.00"> </text>
<text text-anchor="start" x="388" y="-250.5" font-family="Arial" font-size="10.00">g8 :GenericLink</text>
</a>
<polygon fill="none" stroke="black" points="380,-210 380,-244 461,-244 461,-210 380,-210"/>
<text text-anchor="start" x="385" y="-232" font-family="Arial" font-size="10.00">srcLabel = &quot;&quot;</text>
<text text-anchor="start" x="385" y="-218" font-family="Arial" font-size="10.00">tgtLabel = &quot;has&quot;</text>
</g>
<!-- g1&#45;&#45;g8 -->
<g id="edge10" class="edge"><title>g1&#45;&#45;g8</title>
<path fill="none" stroke="black" d="M349.833,-411.961C363.047,-379.013 392.227,-306.252 408.487,-265.707"/>
<text text-anchor="middle" x="409.036" y="-273.192" font-family="Arial" font-size="10.00">links</text>
<text text-anchor="middle" x="349.284" y="-399.476" font-family="Arial" font-size="10.00">graph</text>
</g>
<!-- g9 -->
<g id="node9" class="node"><title>g9</title>
<a xlink:href="../../SDMLib/src/org/sdmlib/models/objects/GenericObject.java" xlink:title="&lt;TABLE&gt;">
<polygon fill="none" stroke="black" points="424,-148 424,-165 526,-165 526,-148 424,-148"/>
<text text-anchor="start" x="433.5" y="-154.5" font-family="Arial" font-size="10.00"> </text>
<text text-anchor="start" x="437.5" y="-154.5" font-family="Arial" font-size="10.00">g9 :GenericObject</text>
</a>
<polygon fill="none" stroke="black" points="424,-100 424,-148 526,-148 526,-100 424,-100"/>
<text text-anchor="start" x="429" y="-136" font-family="Arial" font-size="10.00">name = &quot;digitalFloor&quot;</text>
<text text-anchor="start" x="429" y="-122" font-family="Arial" font-size="10.00">icon = &quot;&quot;</text>
<text text-anchor="start" x="429" y="-108" font-family="Arial" font-size="10.00">type = &quot;Floor&quot;</text>
</g>
<!-- g1&#45;&#45;g9 -->
<g id="edge6" class="edge"><title>g1&#45;&#45;g9</title>
<path fill="none" stroke="black" d="M364.809,-411.862C397.03,-384.935 455.824,-329.221 477,-266 487.482,-234.705 485.539,-196.851 481.833,-169.719"/>
<text text-anchor="middle" x="487.143" y="-175.693" font-family="Arial" font-size="10.00">objects</text>
<text text-anchor="middle" x="368.936" y="-400.254" font-family="Arial" font-size="10.00">graph</text>
</g>
<!-- g3 -->
<g id="node3" class="node"><title>g3</title>
<a xlink:href="../../SDMLib/src/org/sdmlib/models/objects/GenericAttribute.java" xlink:title="&lt;TABLE&gt;">
<polygon fill="none" stroke="black" points="208,-244 208,-261 307,-261 307,-244 208,-244"/>
<text text-anchor="start" x="211.5" y="-250.5" font-family="Arial" font-size="10.00"> </text>
<text text-anchor="start" x="215.5" y="-250.5" font-family="Arial" font-size="10.00">g3 :GenericAttribute</text>
</a>
<polygon fill="none" stroke="black" points="208,-210 208,-244 307,-244 307,-210 208,-210"/>
<text text-anchor="start" x="213" y="-232" font-family="Arial" font-size="10.00">name = &quot;name&quot;</text>
<text text-anchor="start" x="213" y="-218" font-family="Arial" font-size="10.00">value = &quot;WA73&quot;</text>
</g>
<!-- g2&#45;&#45;g3 -->
<g id="edge16" class="edge"><title>g2&#45;&#45;g3</title>
<path fill="none" stroke="black" d="M257.647,-302.391C257.528,-290.351 257.397,-277.07 257.284,-265.641"/>
<text text-anchor="middle" x="261.599" y="-272.162" font-family="Arial" font-size="10.00">attrs</text>
<text text-anchor="middle" x="253.332" y="-290.87" font-family="Arial" font-size="10.00">owner</text>
</g>
<!-- g2&#45;&#45;g4 -->
<g id="edge12" class="edge"><title>g2&#45;&#45;g4</title>
<path fill="none" stroke="black" d="M213.93,-302.391C199.028,-290.351 182.592,-277.07 168.446,-265.641"/>
<text text-anchor="middle" x="178.152" y="-265.55" font-family="Arial" font-size="10.00">outgoingLinks</text>
<text text-anchor="middle" x="204.224" y="-297.482" font-family="Arial" font-size="10.00">src</text>
</g>
<!-- g2&#45;&#45;g8 -->
<g id="edge14" class="edge"><title>g2&#45;&#45;g8</title>
<path fill="none" stroke="black" d="M314.205,-302.959C333.762,-290.766 355.452,-277.243 374.077,-265.631"/>
<text text-anchor="middle" x="368.622" y="-271.512" font-family="Arial" font-size="10.00">outgoingLinks</text>
<text text-anchor="middle" x="319.66" y="-292.077" font-family="Arial" font-size="10.00">src</text>
</g>
<!-- g4&#45;&#45;g5 -->
<g id="edge18" class="edge"><title>g4&#45;&#45;g5</title>
<path fill="none" stroke="black" d="M145.775,-206.328C150.868,-194.897 156.784,-181.618 162.147,-169.582"/>
<text text-anchor="middle" x="162.318" y="-177.081" font-family="Arial" font-size="10.00">tgt</text>
<text text-anchor="middle" x="145.603" y="-193.829" font-family="Arial" font-size="10.00">incommingLinks</text>
</g>
<!-- g6 -->
<g id="node6" class="node"><title>g6</title>
<a xlink:href="../../SDMLib/src/org/sdmlib/models/objects/GenericAttribute.java" xlink:title="&lt;TABLE&gt;">
<polygon fill="none" stroke="black" points="141,-38 141,-55 240,-55 240,-38 141,-38"/>
<text text-anchor="start" x="144.5" y="-44.5" font-family="Arial" font-size="10.00"> </text>
<text text-anchor="start" x="148.5" y="-44.5" font-family="Arial" font-size="10.00">g6 :GenericAttribute</text>
</a>
<polygon fill="none" stroke="black" points="141,-4 141,-38 240,-38 240,-4 141,-4"/>
<text text-anchor="start" x="146" y="-26" font-family="Arial" font-size="10.00">name = &quot;name&quot;</text>
<text text-anchor="start" x="146" y="-12" font-family="Arial" font-size="10.00">value = &quot;WA13&quot;</text>
</g>
<!-- g5&#45;&#45;g6 -->
<g id="edge20" class="edge"><title>g5&#45;&#45;g6</title>
<path fill="none" stroke="black" d="M182.231,-96.3912C183.661,-84.3509 185.239,-71.0703 186.597,-59.6408"/>
<text text-anchor="middle" x="189.725" y="-66.6392" font-family="Arial" font-size="10.00">attrs</text>
<text text-anchor="middle" x="179.103" y="-84.3928" font-family="Arial" font-size="10.00">owner</text>
</g>
<!-- g7 -->
<g id="node7" class="node"><title>g7</title>
<a xlink:href="../../SDMLib/src/org/sdmlib/models/objects/GenericAttribute.java" xlink:title="&lt;TABLE&gt;">
<polygon fill="none" stroke="black" points="8,-38 8,-55 107,-55 107,-38 8,-38"/>
<text text-anchor="start" x="11.5" y="-44.5" font-family="Arial" font-size="10.00"> </text>
<text text-anchor="start" x="15.5" y="-44.5" font-family="Arial" font-size="10.00">g7 :GenericAttribute</text>
</a>
<polygon fill="none" stroke="black" points="8,-4 8,-38 107,-38 107,-4 8,-4"/>
<text text-anchor="start" x="13" y="-26" font-family="Arial" font-size="10.00">name = &quot;level&quot;</text>
<text text-anchor="start" x="13" y="-12" font-family="Arial" font-size="10.00">value = &quot;1&quot;</text>
</g>
<!-- g5&#45;&#45;g7 -->
<g id="edge22" class="edge"><title>g5&#45;&#45;g7</title>
<path fill="none" stroke="black" d="M135.34,-96.3912C120.915,-84.3509 105.005,-71.0703 91.3122,-59.6408"/>
<text text-anchor="middle" x="100.978" y="-59.704" font-family="Arial" font-size="10.00">attrs</text>
<text text-anchor="middle" x="125.674" y="-91.3279" font-family="Arial" font-size="10.00">owner</text>
</g>
<!-- g8&#45;&#45;g9 -->
<g id="edge24" class="edge"><title>g8&#45;&#45;g9</title>
<path fill="none" stroke="black" d="M435.614,-206.328C441.838,-194.897 449.069,-181.618 455.624,-169.582"/>
<text text-anchor="middle" x="455.001" y="-177.063" font-family="Arial" font-size="10.00">tgt</text>
<text text-anchor="middle" x="436.236" y="-193.847" font-family="Arial" font-size="10.00">incommingLinks</text>
</g>
<!-- g10 -->
<g id="node10" class="node"><title>g10</title>
<a xlink:href="../../SDMLib/src/org/sdmlib/models/objects/GenericAttribute.java" xlink:title="&lt;TABLE&gt;">
<polygon fill="none" stroke="black" points="285,-38 285,-55 389,-55 389,-38 285,-38"/>
<text text-anchor="start" x="288.5" y="-44.5" font-family="Arial" font-size="10.00"> </text>
<text text-anchor="start" x="292.5" y="-44.5" font-family="Arial" font-size="10.00">g10 :GenericAttribute</text>
</a>
<polygon fill="none" stroke="black" points="285,-4 285,-38 389,-38 389,-4 285,-4"/>
<text text-anchor="start" x="290" y="-26" font-family="Arial" font-size="10.00">name = &quot;name&quot;</text>
<text text-anchor="start" x="290" y="-12" font-family="Arial" font-size="10.00">value = &quot;WA03&quot;</text>
</g>
<!-- g9&#45;&#45;g10 -->
<g id="edge26" class="edge"><title>g9&#45;&#45;g10</title>
<path fill="none" stroke="black" d="M426.346,-96.3912C409.895,-84.3509 391.749,-71.0703 376.133,-59.6408"/>
<text text-anchor="middle" x="385.942" y="-59.0831" font-family="Arial" font-size="10.00">attrs</text>
<text text-anchor="middle" x="416.537" y="-91.9489" font-family="Arial" font-size="10.00">owner</text>
</g>
<!-- g11 -->
<g id="node11" class="node"><title>g11</title>
<a xlink:href="../../SDMLib/src/org/sdmlib/models/objects/GenericAttribute.java" xlink:title="&lt;TABLE&gt;">
<polygon fill="none" stroke="black" points="423,-38 423,-55 527,-55 527,-38 423,-38"/>
<text text-anchor="start" x="426.5" y="-44.5" font-family="Arial" font-size="10.00"> </text>
<text text-anchor="start" x="430.5" y="-44.5" font-family="Arial" font-size="10.00">g11 :GenericAttribute</text>
</a>
<polygon fill="none" stroke="black" points="423,-4 423,-38 527,-38 527,-4 423,-4"/>
<text text-anchor="start" x="428" y="-26" font-family="Arial" font-size="10.00">name = &quot;level&quot;</text>
<text text-anchor="start" x="428" y="-12" font-family="Arial" font-size="10.00">value = &quot;0&quot;</text>
</g>
<!-- g9&#45;&#45;g11 -->
<g id="edge28" class="edge"><title>g9&#45;&#45;g11</title>
<path fill="none" stroke="black" d="M475,-96.3912C475,-84.3509 475,-71.0703 475,-59.6408"/>
<text text-anchor="middle" x="479.226" y="-66.2038" font-family="Arial" font-size="10.00">attrs</text>
<text text-anchor="middle" x="470.774" y="-84.8281" font-family="Arial" font-size="10.00">owner</text>
</g>
<!-- g12 -->
<g id="node12" class="node"><title>g12</title>
<a xlink:href="../../SDMLib/src/org/sdmlib/models/objects/GenericAttribute.java" xlink:title="&lt;TABLE&gt;">
<polygon fill="none" stroke="black" points="561,-38 561,-55 665,-55 665,-38 561,-38"/>
<text text-anchor="start" x="564.5" y="-44.5" font-family="Arial" font-size="10.00"> </text>
<text text-anchor="start" x="568.5" y="-44.5" font-family="Arial" font-size="10.00">g12 :GenericAttribute</text>
</a>
<polygon fill="none" stroke="black" points="561,-4 561,-38 665,-38 665,-4 561,-4"/>
<text text-anchor="start" x="566" y="-26" font-family="Arial" font-size="10.00">name = &quot;guest&quot;</text>
<text text-anchor="start" x="566" y="-12" font-family="Arial" font-size="10.00">value = &quot;Ulrich&quot;</text>
</g>
<!-- g9&#45;&#45;g12 -->
<g id="edge30" class="edge"><title>g9&#45;&#45;g12</title>
<path fill="none" stroke="black" d="M523.654,-96.3912C540.105,-84.3509 558.251,-71.0703 573.867,-59.6408"/>
<text text-anchor="middle" x="569.049" y="-65.9038" font-family="Arial" font-size="10.00">attrs</text>
<text text-anchor="middle" x="528.471" y="-85.1281" font-family="Arial" font-size="10.00">owner</text>
</g>
</g>
</svg>
