<?xml version="1.0" encoding="UTF-8" standalone="no"?>
<!DOCTYPE svg PUBLIC "-//W3C//DTD SVG 1.1//EN"
 "http://www.w3.org/Graphics/SVG/1.1/DTD/svg11.dtd">
<!-- Generated by graphviz version 2.28.0 (20110507.0327)
 -->
<!-- Title: ObjectDiagram Pages: 1 -->
<svg width="568pt" height="812pt"
 viewBox="0.00 0.00 567.63 812.00" xmlns="http://www.w3.org/2000/svg" xmlns:xlink="http://www.w3.org/1999/xlink">
<g id="graph1" class="graph" transform="scale(1 1) rotate(0) translate(4 808)">
<title>ObjectDiagram</title>
<polygon fill="white" stroke="white" points="-4,5 -4,-808 564.631,-808 564.631,5 -4,5"/>
<!-- g1 -->
<g id="node1" class="node"><title>g1</title>
<polygon fill="none" stroke="black" points="172,-777 172,-794 251,-794 251,-777 172,-777"/>
<text text-anchor="start" x="175.5" y="-783.5" font-family="Times New Roman,serif" font-size="10.00"> </text>
<text text-anchor="start" x="178.5" y="-783.5" font-family="Times New Roman,serif" font-size="10.00">g1 :GenericGraph</text>
</g>
<!-- g2 -->
<g id="node2" class="node"><title>g2</title>
<polygon fill="none" stroke="black" points="286,-710 286,-727 485,-727 485,-710 286,-710"/>
<text text-anchor="start" x="348.5" y="-716.5" font-family="Times New Roman,serif" font-size="10.00"> </text>
<text text-anchor="start" x="351.5" y="-716.5" font-family="Times New Roman,serif" font-size="10.00">g2 :GenericObject</text>
<polygon fill="none" stroke="black" points="286,-676 286,-710 485,-710 485,-676 286,-676"/>
<text text-anchor="start" x="354" y="-698" font-family="Times New Roman,serif" font-size="10.00">name = &quot;g1.G1&quot;</text>
<text text-anchor="start" x="291.5" y="-684" font-family="Times New Roman,serif" font-size="10.00">type = &quot;org.sdmlib.examples.helloworld.Graph&quot;</text>
</g>
<!-- g1&#45;&#45;g2 -->
<g id="edge14" class="edge"><title>g1&#45;&#45;g2</title>
<path fill="none" stroke="black" d="M247.476,-767.81C269.699,-757.337 298.652,-743.693 324.257,-731.626"/>
<text text-anchor="middle" x="317.86" y="-736.813" font-family="Times New Roman,serif" font-size="10.00">objects</text>
<text text-anchor="middle" x="253.873" y="-757.624" font-family="Times New Roman,serif" font-size="10.00">graph</text>
</g>
<!-- g3 -->
<g id="node3" class="node"><title>g3</title>
<polygon fill="none" stroke="black" points="210,-614 210,-631 299,-631 299,-614 210,-614"/>
<text text-anchor="start" x="222" y="-620.5" font-family="Times New Roman,serif" font-size="10.00"> </text>
<text text-anchor="start" x="225" y="-620.5" font-family="Times New Roman,serif" font-size="10.00">g3 :GenericLink</text>
<polygon fill="none" stroke="black" points="210,-580 210,-614 299,-614 299,-580 210,-580"/>
<text text-anchor="start" x="216.5" y="-602" font-family="Times New Roman,serif" font-size="10.00">tgtLabel = &quot;graph&quot;</text>
<text text-anchor="start" x="215.5" y="-588" font-family="Times New Roman,serif" font-size="10.00">srcLabel = &quot;nodes&quot;</text>
</g>
<!-- g1&#45;&#45;g3 -->
<g id="edge16" class="edge"><title>g1&#45;&#45;g3</title>
<path fill="none" stroke="black" d="M214.259,-767.677C218.543,-745.421 226.523,-705.645 235,-672 238.016,-660.029 241.755,-646.944 245.115,-635.671"/>
<text text-anchor="middle" x="246.589" y="-643.062" font-family="Times New Roman,serif" font-size="10.00">links</text>
<text text-anchor="middle" x="211.836" y="-755.475" font-family="Times New Roman,serif" font-size="10.00">graph</text>
</g>
<!-- g4 -->
<g id="node4" class="node"><title>g4</title>
<polygon fill="none" stroke="black" points="125,-518 125,-535 322,-535 322,-518 125,-518"/>
<text text-anchor="start" x="186.5" y="-524.5" font-family="Times New Roman,serif" font-size="10.00"> </text>
<text text-anchor="start" x="189.5" y="-524.5" font-family="Times New Roman,serif" font-size="10.00">g4 :GenericObject</text>
<polygon fill="none" stroke="black" points="125,-484 125,-518 322,-518 322,-484 125,-484"/>
<text text-anchor="start" x="191.5" y="-506" font-family="Times New Roman,serif" font-size="10.00">name = &quot;g1.N2&quot;</text>
<text text-anchor="start" x="130.5" y="-492" font-family="Times New Roman,serif" font-size="10.00">type = &quot;org.sdmlib.examples.helloworld.Node&quot;</text>
</g>
<!-- g1&#45;&#45;g4 -->
<g id="edge18" class="edge"><title>g1&#45;&#45;g4</title>
<path fill="none" stroke="black" d="M205.914,-767.969C195.951,-732.034 176.161,-646.006 192,-576 194.814,-563.562 200.307,-550.717 205.897,-539.763"/>
<text text-anchor="middle" x="205.621" y="-547.259" font-family="Times New Roman,serif" font-size="10.00">objects</text>
<text text-anchor="middle" x="199.506" y="-757.791" font-family="Times New Roman,serif" font-size="10.00">graph</text>
</g>
<!-- g6 -->
<g id="node6" class="node"><title>g6</title>
<polygon fill="none" stroke="black" points="90,-422 90,-439 192,-439 192,-422 90,-422"/>
<text text-anchor="start" x="108.5" y="-428.5" font-family="Times New Roman,serif" font-size="10.00"> </text>
<text text-anchor="start" x="111.5" y="-428.5" font-family="Times New Roman,serif" font-size="10.00">g6 :GenericLink</text>
<polygon fill="none" stroke="black" points="90,-388 90,-422 192,-422 192,-388 90,-388"/>
<text text-anchor="start" x="109" y="-410" font-family="Times New Roman,serif" font-size="10.00">tgtLabel = &quot;src&quot;</text>
<text text-anchor="start" x="95.5" y="-396" font-family="Times New Roman,serif" font-size="10.00">srcLabel = &quot;outEdges&quot;</text>
</g>
<!-- g1&#45;&#45;g6 -->
<g id="edge20" class="edge"><title>g1&#45;&#45;g6</title>
<path fill="none" stroke="black" d="M200.791,-767.979C178.229,-729.218 124.721,-630.702 107,-540 101.887,-513.828 100.636,-505.896 107,-480 110.1,-467.385 116.127,-454.504 122.257,-443.571"/>
<text text-anchor="middle" x="121.597" y="-451.049" font-family="Times New Roman,serif" font-size="10.00">links</text>
<text text-anchor="middle" x="192.626" y="-759.707" font-family="Times New Roman,serif" font-size="10.00">graph</text>
</g>
<!-- g7 -->
<g id="node7" class="node"><title>g7</title>
<polygon fill="none" stroke="black" points="146,-326 146,-343 341,-343 341,-326 146,-326"/>
<text text-anchor="start" x="206.5" y="-332.5" font-family="Times New Roman,serif" font-size="10.00"> </text>
<text text-anchor="start" x="209.5" y="-332.5" font-family="Times New Roman,serif" font-size="10.00">g7 :GenericObject</text>
<polygon fill="none" stroke="black" points="146,-292 146,-326 341,-326 341,-292 146,-292"/>
<text text-anchor="start" x="212.5" y="-314" font-family="Times New Roman,serif" font-size="10.00">name = &quot;g1.E3&quot;</text>
<text text-anchor="start" x="151.5" y="-300" font-family="Times New Roman,serif" font-size="10.00">type = &quot;org.sdmlib.examples.helloworld.Edge&quot;</text>
</g>
<!-- g1&#45;&#45;g7 -->
<g id="edge22" class="edge"><title>g1&#45;&#45;g7</title>
<path fill="none" stroke="black" d="M219.084,-767.943C233.167,-738.388 261.339,-680.035 268,-672 284.793,-651.743 300.665,-658.065 315,-636 338.903,-599.209 332.853,-583.571 338,-540 341.069,-514.017 335.08,-384.149 335,-384 327.126,-369.36 314.338,-357.276 300.768,-347.665"/>
<text text-anchor="middle" x="310.578" y="-347.105" font-family="Times New Roman,serif" font-size="10.00">objects</text>
<text text-anchor="middle" x="219.179" y="-755.443" font-family="Times New Roman,serif" font-size="10.00">graph</text>
</g>
<!-- g9 -->
<g id="node9" class="node"><title>g9</title>
<polygon fill="none" stroke="black" points="352,-230 352,-247 440,-247 440,-230 352,-230"/>
<text text-anchor="start" x="363.5" y="-236.5" font-family="Times New Roman,serif" font-size="10.00"> </text>
<text text-anchor="start" x="366.5" y="-236.5" font-family="Times New Roman,serif" font-size="10.00">g9 :GenericLink</text>
<polygon fill="none" stroke="black" points="352,-196 352,-230 440,-230 440,-196 352,-196"/>
<text text-anchor="start" x="358" y="-218" font-family="Times New Roman,serif" font-size="10.00">tgtLabel = &quot;graph&quot;</text>
<text text-anchor="start" x="357.5" y="-204" font-family="Times New Roman,serif" font-size="10.00">srcLabel = &quot;edges&quot;</text>
</g>
<!-- g1&#45;&#45;g9 -->
<g id="edge24" class="edge"><title>g1&#45;&#45;g9</title>
<path fill="none" stroke="black" d="M258.25,-783.436C332.363,-779.878 470.641,-768.41 501,-732 563.26,-657.33 446.294,-347.685 407.727,-251.581"/>
<text text-anchor="middle" x="414.974" y="-255.971" font-family="Times New Roman,serif" font-size="10.00">links</text>
<text text-anchor="middle" x="267.067" y="-776.218" font-family="Times New Roman,serif" font-size="10.00">graph</text>
</g>
<!-- g10 -->
<g id="node10" class="node"><title>g10</title>
<polygon fill="none" stroke="black" points="58,-230 58,-247 154,-247 154,-230 58,-230"/>
<text text-anchor="start" x="71" y="-236.5" font-family="Times New Roman,serif" font-size="10.00"> </text>
<text text-anchor="start" x="74" y="-236.5" font-family="Times New Roman,serif" font-size="10.00">g10 :GenericLink</text>
<polygon fill="none" stroke="black" points="58,-196 58,-230 154,-230 154,-196 58,-196"/>
<text text-anchor="start" x="63.5" y="-218" font-family="Times New Roman,serif" font-size="10.00">tgtLabel = &quot;inEdges&quot;</text>
<text text-anchor="start" x="74" y="-204" font-family="Times New Roman,serif" font-size="10.00">srcLabel = &quot;tgt&quot;</text>
</g>
<!-- g1&#45;&#45;g10 -->
<g id="edge8" class="edge"><title>g1&#45;&#45;g10</title>
<path fill="none" stroke="black" d="M178.419,-767.989C131.375,-740.81 50,-682.837 50,-607 50,-607 50,-607 50,-413 50,-353.679 75.4265,-288.034 92.0133,-251.522"/>
<text text-anchor="middle" x="92.2185" y="-259.02" font-family="Times New Roman,serif" font-size="10.00">links</text>
<text text-anchor="middle" x="168.476" y="-764.427" font-family="Times New Roman,serif" font-size="10.00">graph</text>
</g>
<!-- g11 -->
<g id="node11" class="node"><title>g11</title>
<polygon fill="none" stroke="black" points="8,-134 8,-151 205,-151 205,-134 8,-134"/>
<text text-anchor="start" x="67" y="-140.5" font-family="Times New Roman,serif" font-size="10.00"> </text>
<text text-anchor="start" x="70" y="-140.5" font-family="Times New Roman,serif" font-size="10.00">g11 :GenericObject</text>
<polygon fill="none" stroke="black" points="8,-100 8,-134 205,-134 205,-100 8,-100"/>
<text text-anchor="start" x="74.5" y="-122" font-family="Times New Roman,serif" font-size="10.00">name = &quot;g1.N4&quot;</text>
<text text-anchor="start" x="13.5" y="-108" font-family="Times New Roman,serif" font-size="10.00">type = &quot;org.sdmlib.examples.helloworld.Node&quot;</text>
</g>
<!-- g1&#45;&#45;g11 -->
<g id="edge10" class="edge"><title>g1&#45;&#45;g11</title>
<path fill="none" stroke="black" d="M163.623,-776.765C133.677,-769.438 95.881,-756.012 70,-732 25.1026,-690.345 12,-668.245 12,-607 12,-607 12,-607 12,-317 12,-259.969 13.324,-241.866 41,-192 48.4348,-178.604 59.4341,-166.115 70.2791,-155.735"/>
<text text-anchor="middle" x="66.7444" y="-162.59" font-family="Times New Roman,serif" font-size="10.00">objects</text>
<text text-anchor="middle" x="153.789" y="-776.081" font-family="Times New Roman,serif" font-size="10.00">graph</text>
</g>
<!-- g13 -->
<g id="node13" class="node"><title>g13</title>
<polygon fill="none" stroke="black" points="439,-38 439,-55 528,-55 528,-38 439,-38"/>
<text text-anchor="start" x="448.5" y="-44.5" font-family="Times New Roman,serif" font-size="10.00"> </text>
<text text-anchor="start" x="451.5" y="-44.5" font-family="Times New Roman,serif" font-size="10.00">g13 :GenericLink</text>
<polygon fill="none" stroke="black" points="439,-4 439,-38 528,-38 528,-4 439,-4"/>
<text text-anchor="start" x="445.5" y="-26" font-family="Times New Roman,serif" font-size="10.00">tgtLabel = &quot;graph&quot;</text>
<text text-anchor="start" x="444.5" y="-12" font-family="Times New Roman,serif" font-size="10.00">srcLabel = &quot;nodes&quot;</text>
</g>
<!-- g1&#45;&#45;g13 -->
<g id="edge12" class="edge"><title>g1&#45;&#45;g13</title>
<path fill="none" stroke="black" d="M258.299,-783.054C335.94,-778.895 485.644,-766.517 524,-732 566.884,-693.408 559,-664.692 559,-607 559,-607 559,-607 559,-221 559,-160.071 524.892,-95.5062 502.375,-59.5217"/>
<text text-anchor="middle" x="510.691" y="-62.5745" font-family="Times New Roman,serif" font-size="10.00">links</text>
<text text-anchor="middle" x="267.094" y="-775.795" font-family="Times New Roman,serif" font-size="10.00">graph</text>
</g>
<!-- g2&#45;&#45;g3 -->
<g id="edge28" class="edge"><title>g2&#45;&#45;g3</title>
<path fill="none" stroke="black" d="M344.984,-672.286C328.731,-660.624 309.999,-647.182 293.771,-635.538"/>
<text text-anchor="middle" x="303.598" y="-634.888" font-family="Times New Roman,serif" font-size="10.00">incommingLinks</text>
<text text-anchor="middle" x="335.156" y="-667.936" font-family="Times New Roman,serif" font-size="10.00">tgt</text>
</g>
<!-- g2&#45;&#45;g9 -->
<g id="edge30" class="edge"><title>g2&#45;&#45;g9</title>
<path fill="none" stroke="black" d="M387.691,-672.382C390.947,-635.22 396,-568.327 396,-511 396,-511 396,-511 396,-413 396,-355.769 396,-288.841 396,-251.648"/>
<text text-anchor="middle" x="400.226" y="-258.211" font-family="Times New Roman,serif" font-size="10.00">incommingLinks</text>
<text text-anchor="middle" x="384.251" y="-660.492" font-family="Times New Roman,serif" font-size="10.00">tgt</text>
</g>
<!-- g2&#45;&#45;g13 -->
<g id="edge26" class="edge"><title>g2&#45;&#45;g13</title>
<path fill="none" stroke="black" d="M410.748,-672.442C439.784,-637.179 483,-574.096 483,-511 483,-511 483,-511 483,-221 483,-163.769 483,-96.8414 483,-59.6481"/>
<text text-anchor="middle" x="487.226" y="-66.2111" font-family="Times New Roman,serif" font-size="10.00">incommingLinks</text>
<text text-anchor="middle" x="413.094" y="-660.221" font-family="Times New Roman,serif" font-size="10.00">tgt</text>
</g>
<!-- g3&#45;&#45;g4 -->
<g id="edge32" class="edge"><title>g3&#45;&#45;g4</title>
<path fill="none" stroke="black" d="M244.531,-576.286C240.684,-564.624 236.252,-551.182 232.411,-539.538"/>
<text text-anchor="middle" x="239.264" y="-544.322" font-family="Times New Roman,serif" font-size="10.00">src</text>
<text text-anchor="middle" x="237.678" y="-566.503" font-family="Times New Roman,serif" font-size="10.00">outgoingLinks</text>
</g>
<!-- g5 -->
<g id="node5" class="node"><title>g5</title>
<polygon fill="none" stroke="black" points="226,-422 226,-439 318,-439 318,-422 226,-422"/>
<text text-anchor="start" x="229.5" y="-428.5" font-family="Times New Roman,serif" font-size="10.00"> </text>
<text text-anchor="start" x="232.5" y="-428.5" font-family="Times New Roman,serif" font-size="10.00">g5 :GenericAttribute</text>
<polygon fill="none" stroke="black" points="226,-388 226,-422 318,-422 318,-388 226,-388"/>
<text text-anchor="start" x="241.5" y="-410" font-family="Times New Roman,serif" font-size="10.00">name = &quot;name&quot;</text>
<text text-anchor="start" x="239" y="-396" font-family="Times New Roman,serif" font-size="10.00">value = &quot;node1&quot;</text>
</g>
<!-- g4&#45;&#45;g5 -->
<g id="edge34" class="edge"><title>g4&#45;&#45;g5</title>
<path fill="none" stroke="black" d="M237.968,-480.286C244.047,-468.624 251.054,-455.182 257.124,-443.538"/>
<text text-anchor="middle" x="256.682" y="-451.028" font-family="Times New Roman,serif" font-size="10.00">attrs</text>
<text text-anchor="middle" x="238.41" y="-467.796" font-family="Times New Roman,serif" font-size="10.00">owner</text>
</g>
<!-- g4&#45;&#45;g6 -->
<g id="edge36" class="edge"><title>g4&#45;&#45;g6</title>
<path fill="none" stroke="black" d="M197.952,-480.286C187.778,-468.624 176.053,-455.182 165.895,-443.538"/>
<text text-anchor="middle" x="175.037" y="-445.09" font-family="Times New Roman,serif" font-size="10.00">incommingLinks</text>
<text text-anchor="middle" x="188.809" y="-473.735" font-family="Times New Roman,serif" font-size="10.00">tgt</text>
</g>
<!-- g6&#45;&#45;g7 -->
<g id="edge38" class="edge"><title>g6&#45;&#45;g7</title>
<path fill="none" stroke="black" d="M172.158,-384.286C184.812,-372.624 199.398,-359.182 212.033,-347.538"/>
<text text-anchor="middle" x="208.233" y="-354.288" font-family="Times New Roman,serif" font-size="10.00">src</text>
<text text-anchor="middle" x="175.958" y="-372.537" font-family="Times New Roman,serif" font-size="10.00">outgoingLinks</text>
</g>
<!-- g8 -->
<g id="node8" class="node"><title>g8</title>
<polygon fill="none" stroke="black" points="197,-230 197,-247 289,-247 289,-230 197,-230"/>
<text text-anchor="start" x="200.5" y="-236.5" font-family="Times New Roman,serif" font-size="10.00"> </text>
<text text-anchor="start" x="203.5" y="-236.5" font-family="Times New Roman,serif" font-size="10.00">g8 :GenericAttribute</text>
<polygon fill="none" stroke="black" points="197,-196 197,-230 289,-230 289,-196 197,-196"/>
<text text-anchor="start" x="212.5" y="-218" font-family="Times New Roman,serif" font-size="10.00">name = &quot;name&quot;</text>
<text text-anchor="start" x="209" y="-204" font-family="Times New Roman,serif" font-size="10.00">value = &quot;edgeA&quot;</text>
</g>
<!-- g7&#45;&#45;g8 -->
<g id="edge42" class="edge"><title>g7&#45;&#45;g8</title>
<path fill="none" stroke="black" d="M243,-288.286C243,-276.624 243,-263.182 243,-251.538"/>
<text text-anchor="middle" x="247.226" y="-258.101" font-family="Times New Roman,serif" font-size="10.00">attrs</text>
<text text-anchor="middle" x="238.774" y="-276.723" font-family="Times New Roman,serif" font-size="10.00">owner</text>
</g>
<!-- g7&#45;&#45;g9 -->
<g id="edge44" class="edge"><title>g7&#45;&#45;g9</title>
<path fill="none" stroke="black" d="M289.736,-288.286C308.718,-276.624 330.597,-263.182 349.55,-251.538"/>
<text text-anchor="middle" x="344.04" y="-257.383" font-family="Times New Roman,serif" font-size="10.00">outgoingLinks</text>
<text text-anchor="middle" x="295.246" y="-277.441" font-family="Times New Roman,serif" font-size="10.00">src</text>
</g>
<!-- g7&#45;&#45;g10 -->
<g id="edge40" class="edge"><title>g7&#45;&#45;g10</title>
<path fill="none" stroke="black" d="M201.151,-288.286C184.154,-276.624 164.563,-263.182 147.593,-251.538"/>
<text text-anchor="middle" x="157.457" y="-250.681" font-family="Times New Roman,serif" font-size="10.00">incommingLinks</text>
<text text-anchor="middle" x="191.287" y="-284.143" font-family="Times New Roman,serif" font-size="10.00">tgt</text>
</g>
<!-- g10&#45;&#45;g11 -->
<g id="edge2" class="edge"><title>g10&#45;&#45;g11</title>
<path fill="none" stroke="black" d="M106,-192.286C106,-180.624 106,-167.182 106,-155.538"/>
<text text-anchor="middle" x="110.226" y="-162.101" font-family="Times New Roman,serif" font-size="10.00">src</text>
<text text-anchor="middle" x="101.774" y="-180.723" font-family="Times New Roman,serif" font-size="10.00">outgoingLinks</text>
</g>
<!-- g12 -->
<g id="node12" class="node"><title>g12</title>
<polygon fill="none" stroke="black" points="58,-38 58,-55 154,-55 154,-38 58,-38"/>
<text text-anchor="start" x="61.5" y="-44.5" font-family="Times New Roman,serif" font-size="10.00"> </text>
<text text-anchor="start" x="64.5" y="-44.5" font-family="Times New Roman,serif" font-size="10.00">g12 :GenericAttribute</text>
<polygon fill="none" stroke="black" points="58,-4 58,-38 154,-38 154,-4 58,-4"/>
<text text-anchor="start" x="75.5" y="-26" font-family="Times New Roman,serif" font-size="10.00">name = &quot;name&quot;</text>
<text text-anchor="start" x="73" y="-12" font-family="Times New Roman,serif" font-size="10.00">value = &quot;node2&quot;</text>
</g>
<!-- g11&#45;&#45;g12 -->
<g id="edge4" class="edge"><title>g11&#45;&#45;g12</title>
<path fill="none" stroke="black" d="M106,-96.2861C106,-84.624 106,-71.1822 106,-59.538"/>
<text text-anchor="middle" x="110.226" y="-66.1011" font-family="Times New Roman,serif" font-size="10.00">attrs</text>
<text text-anchor="middle" x="101.774" y="-84.7231" font-family="Times New Roman,serif" font-size="10.00">owner</text>
</g>
<!-- g11&#45;&#45;g13 -->
<g id="edge6" class="edge"><title>g11&#45;&#45;g13</title>
<path fill="none" stroke="black" d="M212.27,-98.503C283.588,-80.7208 374.438,-58.0685 430.653,-44.0519"/>
<text text-anchor="middle" x="422.882" y="-47.8452" font-family="Times New Roman,serif" font-size="10.00">outgoingLinks</text>
<text text-anchor="middle" x="220.041" y="-89.7097" font-family="Times New Roman,serif" font-size="10.00">src</text>
</g>
</g>
</svg>
