<?xml version="1.0" encoding="UTF-8" standalone="no"?>
<!DOCTYPE svg PUBLIC "-//W3C//DTD SVG 1.1//EN"
 "http://www.w3.org/Graphics/SVG/1.1/DTD/svg11.dtd">
<!-- Generated by graphviz version 2.28.0 (20110507.0327)
 -->
<!-- Title: ObjectDiagram Pages: 1 -->
<svg width="590pt" height="428pt"
 viewBox="0.00 0.00 590.00 428.00" xmlns="http://www.w3.org/2000/svg" xmlns:xlink="http://www.w3.org/1999/xlink">
<g id="graph1" class="graph" transform="scale(1 1) rotate(0) translate(4 424)">
<title>ObjectDiagram</title>
<polygon fill="white" stroke="white" points="-4,5 -4,-424 587,-424 587,5 -4,5"/>
<!-- g1 -->
<g id="node1" class="node"><title>g1</title>
<polygon fill="none" stroke="black" points="355,-393 355,-410 434,-410 434,-393 355,-393"/>
<text text-anchor="start" x="358.5" y="-399.5" font-family="Times New Roman,serif" font-size="10.00"> </text>
<text text-anchor="start" x="361.5" y="-399.5" font-family="Times New Roman,serif" font-size="10.00">g1 :GenericGraph</text>
</g>
<!-- g2 -->
<g id="node2" class="node"><title>g2</title>
<polygon fill="none" stroke="black" points="159,-326 159,-343 358,-343 358,-326 159,-326"/>
<text text-anchor="start" x="221.5" y="-332.5" font-family="Times New Roman,serif" font-size="10.00"> </text>
<text text-anchor="start" x="224.5" y="-332.5" font-family="Times New Roman,serif" font-size="10.00">g2 :GenericObject</text>
<polygon fill="none" stroke="black" points="159,-292 159,-326 358,-326 358,-292 159,-292"/>
<text text-anchor="start" x="227" y="-314" font-family="Times New Roman,serif" font-size="10.00">name = &quot;g1.G1&quot;</text>
<text text-anchor="start" x="164.5" y="-300" font-family="Times New Roman,serif" font-size="10.00">type = &quot;org.sdmlib.examples.helloworld.Graph&quot;</text>
</g>
<!-- g1&#45;&#45;g2 -->
<g id="edge4" class="edge"><title>g1&#45;&#45;g2</title>
<path fill="none" stroke="black" d="M365.49,-383.81C348.121,-373.337 325.491,-359.693 305.477,-347.626"/>
<text text-anchor="middle" x="315.421" y="-346.187" font-family="Times New Roman,serif" font-size="10.00">objects</text>
<text text-anchor="middle" x="355.546" y="-380.25" font-family="Times New Roman,serif" font-size="10.00">graph</text>
</g>
<!-- g3 -->
<g id="node3" class="node"><title>g3</title>
<polygon fill="none" stroke="black" points="346,-230 346,-247 434,-247 434,-230 346,-230"/>
<text text-anchor="start" x="357.5" y="-236.5" font-family="Times New Roman,serif" font-size="10.00"> </text>
<text text-anchor="start" x="360.5" y="-236.5" font-family="Times New Roman,serif" font-size="10.00">g3 :GenericLink</text>
<polygon fill="none" stroke="black" points="346,-196 346,-230 434,-230 434,-196 346,-196"/>
<text text-anchor="start" x="351.5" y="-218" font-family="Times New Roman,serif" font-size="10.00">tgtLabel = &quot;nodes&quot;</text>
<text text-anchor="start" x="352" y="-204" font-family="Times New Roman,serif" font-size="10.00">srcLabel = &quot;graph&quot;</text>
</g>
<!-- g1&#45;&#45;g3 -->
<g id="edge6" class="edge"><title>g1&#45;&#45;g3</title>
<path fill="none" stroke="black" d="M399.824,-383.56C402.931,-373.33 406.431,-360.08 408,-348 411.434,-321.555 411.591,-314.424 408,-288 406.36,-275.933 403.082,-262.943 399.767,-251.771"/>
<text text-anchor="middle" x="406.36" y="-256.79" font-family="Times New Roman,serif" font-size="10.00">links</text>
<text text-anchor="middle" x="398.366" y="-371.167" font-family="Times New Roman,serif" font-size="10.00">graph</text>
</g>
<!-- g4 -->
<g id="node4" class="node"><title>g4</title>
<polygon fill="none" stroke="black" points="292,-134 292,-151 489,-151 489,-134 292,-134"/>
<text text-anchor="start" x="353.5" y="-140.5" font-family="Times New Roman,serif" font-size="10.00"> </text>
<text text-anchor="start" x="356.5" y="-140.5" font-family="Times New Roman,serif" font-size="10.00">g4 :GenericObject</text>
<polygon fill="none" stroke="black" points="292,-100 292,-134 489,-134 489,-100 292,-100"/>
<text text-anchor="start" x="358.5" y="-122" font-family="Times New Roman,serif" font-size="10.00">name = &quot;g1.N2&quot;</text>
<text text-anchor="start" x="297.5" y="-108" font-family="Times New Roman,serif" font-size="10.00">type = &quot;org.sdmlib.examples.helloworld.Node&quot;</text>
</g>
<!-- g1&#45;&#45;g4 -->
<g id="edge8" class="edge"><title>g1&#45;&#45;g4</title>
<path fill="none" stroke="black" d="M406.032,-383.791C429.813,-347.521 478.264,-260.893 451,-192 445.59,-178.33 435.795,-165.854 425.614,-155.569"/>
<text text-anchor="middle" x="434.948" y="-156.658" font-family="Times New Roman,serif" font-size="10.00">objects</text>
<text text-anchor="middle" x="407.293" y="-371.371" font-family="Times New Roman,serif" font-size="10.00">graph</text>
</g>
<!-- g6 -->
<g id="node6" class="node"><title>g6</title>
<polygon fill="none" stroke="black" points="472,-38 472,-55 574,-55 574,-38 472,-38"/>
<text text-anchor="start" x="490.5" y="-44.5" font-family="Times New Roman,serif" font-size="10.00"> </text>
<text text-anchor="start" x="493.5" y="-44.5" font-family="Times New Roman,serif" font-size="10.00">g6 :GenericLink</text>
<polygon fill="none" stroke="black" points="472,-4 472,-38 574,-38 574,-4 472,-4"/>
<text text-anchor="start" x="477.5" y="-26" font-family="Times New Roman,serif" font-size="10.00">tgtLabel = &quot;linksFrom&quot;</text>
<text text-anchor="start" x="481.5" y="-12" font-family="Times New Roman,serif" font-size="10.00">srcLabel = &quot;linksTo&quot;</text>
</g>
<!-- g1&#45;&#45;g6 -->
<g id="edge10" class="edge"><title>g1&#45;&#45;g6</title>
<path fill="none" stroke="black" d="M419.69,-383.799C431.73,-374.512 445.307,-362.07 454,-348 512.026,-254.086 521.646,-118.158 522.968,-59.601"/>
<text text-anchor="middle" x="526.878" y="-66.3051" font-family="Times New Roman,serif" font-size="10.00">links</text>
<text text-anchor="middle" x="424.19" y="-372.369" font-family="Times New Roman,serif" font-size="10.00">graph</text>
</g>
<!-- g7 -->
<g id="node7" class="node"><title>g7</title>
<polygon fill="none" stroke="black" points="102,-230 102,-247 190,-247 190,-230 102,-230"/>
<text text-anchor="start" x="113.5" y="-236.5" font-family="Times New Roman,serif" font-size="10.00"> </text>
<text text-anchor="start" x="116.5" y="-236.5" font-family="Times New Roman,serif" font-size="10.00">g7 :GenericLink</text>
<polygon fill="none" stroke="black" points="102,-196 102,-230 190,-230 190,-196 102,-196"/>
<text text-anchor="start" x="107.5" y="-218" font-family="Times New Roman,serif" font-size="10.00">tgtLabel = &quot;nodes&quot;</text>
<text text-anchor="start" x="108" y="-204" font-family="Times New Roman,serif" font-size="10.00">srcLabel = &quot;graph&quot;</text>
</g>
<!-- g1&#45;&#45;g7 -->
<g id="edge12" class="edge"><title>g1&#45;&#45;g7</title>
<path fill="none" stroke="black" d="M346.528,-398.006C280.562,-392.742 166.393,-379.264 141,-348 119.228,-321.195 126.43,-279.467 135.013,-251.694"/>
<text text-anchor="middle" x="136.572" y="-259.071" font-family="Times New Roman,serif" font-size="10.00">links</text>
<text text-anchor="middle" x="337.133" y="-398.931" font-family="Times New Roman,serif" font-size="10.00">graph</text>
</g>
<!-- g8 -->
<g id="node8" class="node"><title>g8</title>
<polygon fill="none" stroke="black" points="8,-134 8,-151 205,-151 205,-134 8,-134"/>
<text text-anchor="start" x="69.5" y="-140.5" font-family="Times New Roman,serif" font-size="10.00"> </text>
<text text-anchor="start" x="72.5" y="-140.5" font-family="Times New Roman,serif" font-size="10.00">g8 :GenericObject</text>
<polygon fill="none" stroke="black" points="8,-100 8,-134 205,-134 205,-100 8,-100"/>
<text text-anchor="start" x="74.5" y="-122" font-family="Times New Roman,serif" font-size="10.00">name = &quot;g1.N4&quot;</text>
<text text-anchor="start" x="13.5" y="-108" font-family="Times New Roman,serif" font-size="10.00">type = &quot;org.sdmlib.examples.helloworld.Node&quot;</text>
</g>
<!-- g1&#45;&#45;g8 -->
<g id="edge14" class="edge"><title>g1&#45;&#45;g8</title>
<path fill="none" stroke="black" d="M346.723,-397.186C278.356,-390.786 156.41,-375.772 123,-348 68.1232,-302.383 73.8955,-262.491 85,-192 86.9192,-179.817 90.7449,-166.805 94.6113,-155.648"/>
<text text-anchor="middle" x="95.6929" y="-163.09" font-family="Times New Roman,serif" font-size="10.00">objects</text>
<text text-anchor="middle" x="337.286" y="-397.996" font-family="Times New Roman,serif" font-size="10.00">graph</text>
</g>
<!-- g10 -->
<g id="node10" class="node"><title>g10</title>
<polygon fill="none" stroke="black" points="224,-230 224,-247 312,-247 312,-230 224,-230"/>
<text text-anchor="start" x="233" y="-236.5" font-family="Times New Roman,serif" font-size="10.00"> </text>
<text text-anchor="start" x="236" y="-236.5" font-family="Times New Roman,serif" font-size="10.00">g10 :GenericLink</text>
<polygon fill="none" stroke="black" points="224,-196 224,-230 312,-230 312,-196 224,-196"/>
<text text-anchor="start" x="230" y="-218" font-family="Times New Roman,serif" font-size="10.00">tgtLabel = &quot;graph&quot;</text>
<text text-anchor="start" x="229.5" y="-204" font-family="Times New Roman,serif" font-size="10.00">srcLabel = &quot;edges&quot;</text>
</g>
<!-- g1&#45;&#45;g10 -->
<g id="edge2" class="edge"><title>g1&#45;&#45;g10</title>
<path fill="none" stroke="black" d="M395.133,-383.685C395.813,-360.007 393.852,-317.145 374,-288 366.739,-277.34 343.159,-262.468 320.078,-249.64"/>
<text text-anchor="middle" x="330.049" y="-247.91" font-family="Times New Roman,serif" font-size="10.00">links</text>
<text text-anchor="middle" x="391.037" y="-372.062" font-family="Times New Roman,serif" font-size="10.00">graph</text>
</g>
<!-- g2&#45;&#45;g3 -->
<g id="edge18" class="edge"><title>g2&#45;&#45;g3</title>
<path fill="none" stroke="black" d="M298.322,-288.286C314.698,-276.624 333.574,-263.182 349.925,-251.538"/>
<text text-anchor="middle" x="344.994" y="-257.738" font-family="Times New Roman,serif" font-size="10.00">outgoingLinks</text>
<text text-anchor="middle" x="303.253" y="-277.086" font-family="Times New Roman,serif" font-size="10.00">src</text>
</g>
<!-- g2&#45;&#45;g7 -->
<g id="edge20" class="edge"><title>g2&#45;&#45;g7</title>
<path fill="none" stroke="black" d="M223.788,-288.286C209.892,-276.624 193.877,-263.182 180.003,-251.538"/>
<text text-anchor="middle" x="189.662" y="-251.627" font-family="Times New Roman,serif" font-size="10.00">outgoingLinks</text>
<text text-anchor="middle" x="214.129" y="-283.197" font-family="Times New Roman,serif" font-size="10.00">src</text>
</g>
<!-- g2&#45;&#45;g10 -->
<g id="edge16" class="edge"><title>g2&#45;&#45;g10</title>
<path fill="none" stroke="black" d="M261.055,-288.286C262.295,-276.624 263.725,-263.182 264.964,-251.538"/>
<text text-anchor="middle" x="268.208" y="-258.497" font-family="Times New Roman,serif" font-size="10.00">incommingLinks</text>
<text text-anchor="middle" x="257.811" y="-276.327" font-family="Times New Roman,serif" font-size="10.00">tgt</text>
</g>
<!-- g3&#45;&#45;g4 -->
<g id="edge22" class="edge"><title>g3&#45;&#45;g4</title>
<path fill="none" stroke="black" d="M390,-192.286C390,-180.624 390,-167.182 390,-155.538"/>
<text text-anchor="middle" x="394.226" y="-162.101" font-family="Times New Roman,serif" font-size="10.00">tgt</text>
<text text-anchor="middle" x="385.774" y="-180.723" font-family="Times New Roman,serif" font-size="10.00">incommingLinks</text>
</g>
<!-- g5 -->
<g id="node5" class="node"><title>g5</title>
<polygon fill="none" stroke="black" points="344,-38 344,-55 436,-55 436,-38 344,-38"/>
<text text-anchor="start" x="347.5" y="-44.5" font-family="Times New Roman,serif" font-size="10.00"> </text>
<text text-anchor="start" x="350.5" y="-44.5" font-family="Times New Roman,serif" font-size="10.00">g5 :GenericAttribute</text>
<polygon fill="none" stroke="black" points="344,-4 344,-38 436,-38 436,-4 344,-4"/>
<text text-anchor="start" x="362.5" y="-26" font-family="Times New Roman,serif" font-size="10.00">name = &quot;text&quot;</text>
<text text-anchor="start" x="357" y="-12" font-family="Times New Roman,serif" font-size="10.00">value = &quot;node1&quot;</text>
</g>
<!-- g4&#45;&#45;g5 -->
<g id="edge24" class="edge"><title>g4&#45;&#45;g5</title>
<path fill="none" stroke="black" d="M390,-96.2861C390,-84.624 390,-71.1822 390,-59.538"/>
<text text-anchor="middle" x="394.226" y="-66.1011" font-family="Times New Roman,serif" font-size="10.00">attrs</text>
<text text-anchor="middle" x="385.774" y="-84.7231" font-family="Times New Roman,serif" font-size="10.00">owner</text>
</g>
<!-- g4&#45;&#45;g6 -->
<g id="edge26" class="edge"><title>g4&#45;&#45;g6</title>
<path fill="none" stroke="black" d="M430.627,-96.2861C447.128,-84.624 466.146,-71.1822 482.622,-59.538"/>
<text text-anchor="middle" x="477.66" y="-65.7201" font-family="Times New Roman,serif" font-size="10.00">incommingLinks</text>
<text text-anchor="middle" x="435.589" y="-85.104" font-family="Times New Roman,serif" font-size="10.00">tgt</text>
</g>
<!-- g7&#45;&#45;g8 -->
<g id="edge28" class="edge"><title>g7&#45;&#45;g8</title>
<path fill="none" stroke="black" d="M133.781,-192.286C128.819,-180.624 123.099,-167.182 118.144,-155.538"/>
<text text-anchor="middle" x="125.581" y="-159.723" font-family="Times New Roman,serif" font-size="10.00">tgt</text>
<text text-anchor="middle" x="126.344" y="-183.101" font-family="Times New Roman,serif" font-size="10.00">incommingLinks</text>
</g>
<!-- g9 -->
<g id="node9" class="node"><title>g9</title>
<polygon fill="none" stroke="black" points="60,-38 60,-55 152,-55 152,-38 60,-38"/>
<text text-anchor="start" x="63.5" y="-44.5" font-family="Times New Roman,serif" font-size="10.00"> </text>
<text text-anchor="start" x="66.5" y="-44.5" font-family="Times New Roman,serif" font-size="10.00">g9 :GenericAttribute</text>
<polygon fill="none" stroke="black" points="60,-4 60,-38 152,-38 152,-4 60,-4"/>
<text text-anchor="start" x="78.5" y="-26" font-family="Times New Roman,serif" font-size="10.00">name = &quot;text&quot;</text>
<text text-anchor="start" x="73" y="-12" font-family="Times New Roman,serif" font-size="10.00">value = &quot;node2&quot;</text>
</g>
<!-- g8&#45;&#45;g9 -->
<g id="edge30" class="edge"><title>g8&#45;&#45;g9</title>
<path fill="none" stroke="black" d="M106,-96.2861C106,-84.624 106,-71.1822 106,-59.538"/>
<text text-anchor="middle" x="110.226" y="-66.1011" font-family="Times New Roman,serif" font-size="10.00">attrs</text>
<text text-anchor="middle" x="101.774" y="-84.7231" font-family="Times New Roman,serif" font-size="10.00">owner</text>
</g>
</g>
</svg>
