<?xml version="1.0" encoding="UTF-8" standalone="no"?>
<!DOCTYPE svg PUBLIC "-//W3C//DTD SVG 1.1//EN"
 "http://www.w3.org/Graphics/SVG/1.1/DTD/svg11.dtd">
<!-- Generated by graphviz version 2.28.0 (20110507.0327)
 -->
<!-- Title: ClassDiagram Pages: 1 -->
<svg width="180pt" height="320pt"
 viewBox="0.00 0.00 180.00 320.00" xmlns="http://www.w3.org/2000/svg" xmlns:xlink="http://www.w3.org/1999/xlink">
<g id="graph1" class="graph" transform="scale(1 1) rotate(0) translate(4 316)">
<title>ClassDiagram</title>
<polygon fill="white" stroke="white" points="-4,5 -4,-316 177,-316 177,5 -4,5"/>
<!-- _GroupAccount -->
<g id="node1" class="node"><title>_GroupAccount</title>
<a xlink:href="../src/GroupAccount.java" xlink:title="&lt;TABLE&gt;">
<polygon fill="none" stroke="black" points="8,-290 8,-307 165,-307 165,-290 8,-290"/>
<text text-anchor="start" x="56" y="-296.5" font-family="Times New Roman,serif" font-size="10.00">GroupAccount</text>
</a>
<polygon fill="none" stroke="black" points="8,-270 8,-290 165,-290 165,-270 8,-270"/>
<text text-anchor="start" x="85" y="-278" font-family="Times New Roman,serif" font-size="10.00"> </text>
<polygon fill="none" stroke="black" points="8,-236 8,-270 165,-270 165,-236 8,-236"/>
<text text-anchor="start" x="13" y="-258" font-family="Times New Roman,serif" font-size="10.00">getTaskNames(double p0, String p1)</text>
<text text-anchor="start" x="13" y="-244" font-family="Times New Roman,serif" font-size="10.00">updateBalances()</text>
</g>
<!-- _Person -->
<g id="node2" class="node"><title>_Person</title>
<a xlink:href="../src/Person.java" xlink:title="&lt;TABLE&gt;">
<polygon fill="none" stroke="black" points="12,-174 12,-191 87,-191 87,-174 12,-174"/>
<text text-anchor="start" x="35.5" y="-180.5" font-family="Times New Roman,serif" font-size="10.00">Person</text>
</a>
<polygon fill="none" stroke="black" points="12,-140 12,-174 87,-174 87,-140 12,-140"/>
<text text-anchor="start" x="17" y="-162" font-family="Times New Roman,serif" font-size="10.00">name :String</text>
<text text-anchor="start" x="17" y="-148" font-family="Times New Roman,serif" font-size="10.00">balance :double</text>
<polygon fill="none" stroke="black" points="12,-120 12,-140 87,-140 87,-120 12,-120"/>
<text text-anchor="start" x="48" y="-128" font-family="Times New Roman,serif" font-size="10.00"> </text>
</g>
<!-- _GroupAccount&#45;&gt;_Person -->
<g id="edge2" class="edge"><title>_GroupAccount&#45;&gt;_Person</title>
<path fill="none" stroke="black" d="M73.4735,-232.405C69.616,-220.519 65.3703,-207.438 61.5136,-195.555"/>
<text text-anchor="middle" x="68.3312" y="-200.371" font-family="Times New Roman,serif" font-size="10.00">persons *</text>
<text text-anchor="middle" x="66.6559" y="-222.589" font-family="Times New Roman,serif" font-size="10.00">parent</text>
</g>
<!-- _Item -->
<g id="node3" class="node"><title>_Item</title>
<a xlink:href="../src/Item.java" xlink:title="&lt;TABLE&gt;">
<polygon fill="none" stroke="black" points="44,-58 44,-75 129,-75 129,-58 44,-58"/>
<text text-anchor="start" x="77.5" y="-64.5" font-family="Times New Roman,serif" font-size="10.00">Item</text>
</a>
<polygon fill="none" stroke="black" points="44,-24 44,-58 129,-58 129,-24 44,-24"/>
<text text-anchor="start" x="49" y="-46" font-family="Times New Roman,serif" font-size="10.00">description :String</text>
<text text-anchor="start" x="49" y="-32" font-family="Times New Roman,serif" font-size="10.00">value :double</text>
<polygon fill="none" stroke="black" points="44,-4 44,-24 129,-24 129,-4 44,-4"/>
<text text-anchor="start" x="85" y="-12" font-family="Times New Roman,serif" font-size="10.00"> </text>
</g>
<!-- _GroupAccount&#45;&gt;_Item -->
<g id="edge4" class="edge"><title>_GroupAccount&#45;&gt;_Item</title>
<path fill="none" stroke="black" d="M96.4882,-232.355C99.1657,-220.756 101.664,-207.941 103,-196 106.954,-160.665 106.954,-151.335 103,-116 101.664,-104.059 99.1657,-91.2437 96.4882,-79.6455"/>
<text text-anchor="middle" x="102.614" y="-85.0494" font-family="Times New Roman,serif" font-size="10.00">item *</text>
<text text-anchor="middle" x="94.3711" y="-220.081" font-family="Times New Roman,serif" font-size="10.00">parent</text>
</g>
<!-- _Person&#45;&gt;_Item -->
<g id="edge6" class="edge"><title>_Person&#45;&gt;_Item</title>
<path fill="none" stroke="black" d="M61.5265,-116.405C65.384,-104.519 69.6297,-91.4381 73.4864,-79.5555"/>
<text text-anchor="middle" x="74.7083" y="-86.9805" font-family="Times New Roman,serif" font-size="10.00">item *</text>
<text text-anchor="middle" x="60.3046" y="-103.98" font-family="Times New Roman,serif" font-size="10.00">buyer</text>
</g>
</g>
</svg>
