<?xml version="1.0" encoding="UTF-8" standalone="no"?>
<!DOCTYPE svg PUBLIC "-//W3C//DTD SVG 1.1//EN"
 "http://www.w3.org/Graphics/SVG/1.1/DTD/svg11.dtd">
<!-- Generated by graphviz version 2.28.0 (20110507.0327)
 -->
<!-- Title: ObjectDiagram Pages: 1 -->
<svg width="297pt" height="414pt"
 viewBox="0.00 0.00 297.00 414.00" xmlns="http://www.w3.org/2000/svg" xmlns:xlink="http://www.w3.org/1999/xlink">
<g id="graph1" class="graph" transform="scale(1 1) rotate(0) translate(4 410)">
<title>ObjectDiagram</title>
<polygon fill="white" stroke="white" points="-4,5 -4,-410 294,-410 294,5 -4,5"/>
<g id="graph2" class="cluster"><title>cluster_n6</title>
<polygon fill="none" stroke="grey" points="8,-81 8,-174 98,-174 98,-81 8,-81"/>
<text text-anchor="start" x="33" y="-154.8" font-family="Times New Roman,serif" font-size="14.00">NAC n6</text>
</g>
<!-- graphPO2 -->
<g id="node1" class="node"><title>graphPO2</title>
<polygon fill="deepskyblue" stroke="deepskyblue" points="91,-350.5 91,-401.5 199,-401.5 199,-350.5 91,-350.5"/>
<text text-anchor="start" x="160" y="-391.5" font-family="Arial" font-size="10.00">«bound»</text>
<polygon fill="none" stroke="black" points="91,-370 91,-386 199,-386 199,-370 91,-370"/>
<text text-anchor="start" x="94.5" y="-376" font-family="Arial" font-size="10.00"> </text>
<text text-anchor="start" x="98.5" y="-376" font-family="Arial" font-size="10.00"> graphPO2 :GraphPO </text>
<polygon fill="none" stroke="black" points="91,-350 91,-370 199,-370 199,-350 91,-350"/>
<text text-anchor="start" x="141.5" y="-358" font-family="Arial" font-size="10.00"> &#160;</text>
</g>
<!-- e1 -->
<g id="node2" class="node"><title>e1</title>
<polygon fill="deepskyblue" stroke="deepskyblue" points="70,-268.5 70,-305.5 128,-305.5 128,-268.5 70,-268.5"/>
<polygon fill="none" stroke="black" points="70,-288 70,-305 128,-305 128,-288 70,-288"/>
<text text-anchor="start" x="73.5" y="-294.5" font-family="Arial" font-size="10.00"> </text>
<text text-anchor="start" x="77.5" y="-294.5" font-family="Arial" font-size="10.00"> e1 :EdgePO </text>
<polygon fill="none" stroke="black" points="70,-268 70,-288 128,-288 128,-268 70,-268"/>
<text text-anchor="start" x="95.5" y="-276" font-family="Arial" font-size="10.00"> &#160;</text>
</g>
<!-- graphPO2&#45;&#45;e1 -->
<g id="edge3" class="edge"><title>graphPO2&#45;&#45;e1</title>
<path fill="none" stroke="black" d="M129.683,-346.03C123.41,-334.167 116.276,-320.675 110.467,-309.687"/>
<text text-anchor="middle" x="118.439" y="-313.224" font-family="Arial" font-size="10.00">edges</text>
</g>
<!-- e2 -->
<g id="node3" class="node"><title>e2</title>
<polygon fill="deepskyblue" stroke="deepskyblue" points="162,-268.5 162,-305.5 220,-305.5 220,-268.5 162,-268.5"/>
<polygon fill="none" stroke="black" points="162,-288 162,-305 220,-305 220,-288 162,-288"/>
<text text-anchor="start" x="165.5" y="-294.5" font-family="Arial" font-size="10.00"> </text>
<text text-anchor="start" x="169.5" y="-294.5" font-family="Arial" font-size="10.00"> e2 :EdgePO </text>
<polygon fill="none" stroke="black" points="162,-268 162,-288 220,-288 220,-268 162,-268"/>
<text text-anchor="start" x="187.5" y="-276" font-family="Arial" font-size="10.00"> &#160;</text>
</g>
<!-- graphPO2&#45;&#45;e2 -->
<g id="edge5" class="edge"><title>graphPO2&#45;&#45;e2</title>
<path fill="none" stroke="black" d="M160.317,-346.03C166.59,-334.167 173.724,-320.675 179.533,-309.687"/>
<text text-anchor="middle" x="179.033" y="-317.175" font-family="Arial" font-size="10.00">edges</text>
</g>
<!-- n3 -->
<g id="node4" class="node"><title>n3</title>
<polygon fill="deepskyblue" stroke="deepskyblue" points="128.5,-186.5 128.5,-223.5 187.5,-223.5 187.5,-186.5 128.5,-186.5"/>
<polygon fill="none" stroke="black" points="129,-206 129,-223 188,-223 188,-206 129,-206"/>
<text text-anchor="start" x="132.5" y="-212.5" font-family="Arial" font-size="10.00"> </text>
<text text-anchor="start" x="136.5" y="-212.5" font-family="Arial" font-size="10.00"> n3 :NodePO </text>
<polygon fill="none" stroke="black" points="129,-186 129,-206 188,-206 188,-186 129,-186"/>
<text text-anchor="start" x="155" y="-194" font-family="Arial" font-size="10.00"> &#160;</text>
</g>
<!-- e1&#45;&#45;n3 -->
<g id="edge7" class="edge"><title>e1&#45;&#45;n3</title>
<path fill="none" stroke="black" d="M115.122,-264.14C123.515,-252.759 133.741,-238.893 142.102,-227.557"/>
<text text-anchor="middle" x="140.124" y="-234.859" font-family="Arial" font-size="10.00">tgt</text>
</g>
<!-- n4 -->
<g id="node5" class="node"><title>n4</title>
<polygon fill="deepskyblue" stroke="deepskyblue" points="35.5,-186.5 35.5,-223.5 94.5,-223.5 94.5,-186.5 35.5,-186.5"/>
<polygon fill="none" stroke="black" points="36,-206 36,-223 95,-223 95,-206 36,-206"/>
<text text-anchor="start" x="39.5" y="-212.5" font-family="Arial" font-size="10.00"> </text>
<text text-anchor="start" x="43.5" y="-212.5" font-family="Arial" font-size="10.00"> n4 :NodePO </text>
<polygon fill="none" stroke="black" points="36,-186 36,-206 95,-206 95,-186 36,-186"/>
<text text-anchor="start" x="62" y="-194" font-family="Arial" font-size="10.00"> &#160;</text>
</g>
<!-- e1&#45;&#45;n4 -->
<g id="edge11" class="edge"><title>e1&#45;&#45;n4</title>
<path fill="none" stroke="black" d="M89.7094,-264.14C84.8726,-252.759 78.9795,-238.893 74.1617,-227.557"/>
<text text-anchor="middle" x="81.5961" y="-231.745" font-family="Arial" font-size="10.00">src</text>
</g>
<!-- e2&#45;&#45;n3 -->
<g id="edge9" class="edge"><title>e2&#45;&#45;n3</title>
<path fill="none" stroke="black" d="M181.983,-264.14C177.288,-252.759 171.568,-238.893 166.892,-227.557"/>
<text text-anchor="middle" x="174.255" y="-231.824" font-family="Arial" font-size="10.00">src</text>
</g>
<!-- n5 -->
<g id="node6" class="node"><title>n5</title>
<polygon fill="deepskyblue" stroke="deepskyblue" points="122.5,-4.5 122.5,-41.5 181.5,-41.5 181.5,-4.5 122.5,-4.5"/>
<polygon fill="none" stroke="black" points="123,-24 123,-41 182,-41 182,-24 123,-24"/>
<text text-anchor="start" x="126.5" y="-30.5" font-family="Arial" font-size="10.00"> </text>
<text text-anchor="start" x="130.5" y="-30.5" font-family="Arial" font-size="10.00"> n5 :NodePO </text>
<polygon fill="none" stroke="black" points="123,-4 123,-24 182,-24 182,-4 123,-4"/>
<text text-anchor="start" x="149" y="-12" font-family="Arial" font-size="10.00"> &#160;</text>
</g>
<!-- e2&#45;&#45;n5 -->
<g id="edge13" class="edge"><title>e2&#45;&#45;n5</title>
<path fill="none" stroke="black" d="M198.12,-264.443C209.566,-226.065 228.424,-144.011 204,-81 198.772,-67.5112 188.7,-55.2587 178.802,-45.6003"/>
<text text-anchor="middle" x="188.196" y="-46.5274" font-family="Arial" font-size="10.00">tgt</text>
</g>
<!-- e7 -->
<g id="node8" class="node"><title>e7</title>
<polygon fill="deepskyblue" stroke="deepskyblue" points="24,-93.5 24,-130.5 82,-130.5 82,-93.5 24,-93.5"/>
<polygon fill="none" stroke="black" points="24,-113 24,-130 82,-130 82,-113 24,-113"/>
<text text-anchor="start" x="27.5" y="-119.5" font-family="Arial" font-size="10.00"> </text>
<text text-anchor="start" x="31.5" y="-119.5" font-family="Arial" font-size="10.00"> e7 :EdgePO </text>
<polygon fill="none" stroke="black" points="24,-93 24,-113 82,-113 82,-93 24,-93"/>
<text text-anchor="start" x="49.5" y="-101" font-family="Arial" font-size="10.00"> &#160;</text>
</g>
<!-- n4&#45;&#45;e7 -->
<g id="edge15" class="edge"><title>n4&#45;&#45;e7</title>
<path fill="none" stroke="black" d="M62.1562,-182.434C60.2571,-168.033 57.7684,-149.16 55.865,-134.726"/>
<text text-anchor="middle" x="61.2398" y="-140.659" font-family="Arial" font-size="10.00">outEdges</text>
</g>
<!-- e8 -->
<g id="node9" class="node"><title>e8</title>
<polygon fill="deepskyblue" stroke="deepskyblue" points="116.5,-86.5 116.5,-137.5 187.5,-137.5 187.5,-86.5 116.5,-86.5"/>
<text text-anchor="start" x="148" y="-127.5" font-family="Arial" font-size="10.00" fill="green">«create»</text>
<polygon fill="none" stroke="green" points="117,-106 117,-122 188,-122 188,-106 117,-106"/>
<text text-anchor="start" x="120.5" y="-112" font-family="Arial" font-size="10.00"> </text>
<text text-anchor="start" x="124.5" y="-112" font-family="Arial" font-size="10.00" fill="green"> e8 :EdgePO </text>
<polygon fill="none" stroke="green" points="117,-86 117,-106 188,-106 188,-86 117,-86"/>
<text text-anchor="start" x="149" y="-94" font-family="Arial" font-size="10.00"> &#160;</text>
</g>
<!-- n4&#45;&#45;e8 -->
<g id="edge19" class="edge"><title>n4&#45;&#45;e8</title>
<path fill="none" stroke="green" d="M93.0118,-182.313C96.1259,-179.604 99.1857,-176.799 102,-174 112,-164.053 122.047,-152.236 130.484,-141.663"/>
<text text-anchor="middle" x="128.099" y="-148.875" font-family="Arial" font-size="10.00" fill="green">outEdges</text>
</g>
<!-- e7&#45;&#45;n5 -->
<g id="edge17" class="edge"><title>e7&#45;&#45;n5</title>
<path fill="none" stroke="black" d="M77.4719,-89.4944C92.7029,-76.1096 112.224,-58.9547 127.466,-45.5597"/>
<text text-anchor="middle" x="123.448" y="-52.217" font-family="Arial" font-size="10.00">tgt</text>
</g>
<!-- e8&#45;&#45;n5 -->
<g id="edge21" class="edge"><title>e8&#45;&#45;n5</title>
<path fill="none" stroke="green" d="M152,-82.0303C152,-70.167 152,-56.6747 152,-45.6874"/>
<text text-anchor="middle" x="156.226" y="-52.2504" font-family="Arial" font-size="10.00" fill="green">tgt</text>
</g>
<!-- allMatches -->
<g id="node10" class="node"><title>allMatches</title>
<text text-anchor="middle" x="257" y="-373.5" font-family="Arial" font-size="10.00">allMatches</text>
</g>
</g>
</svg>
