<?xml version="1.0" encoding="UTF-8" standalone="no"?>
<!DOCTYPE svg PUBLIC "-//W3C//DTD SVG 1.1//EN"
 "http://www.w3.org/Graphics/SVG/1.1/DTD/svg11.dtd">
<!-- Generated by graphviz version 2.28.0 (20110507.0327)
 -->
<!-- Title: ObjectDiagram Pages: 1 -->
<svg width="294pt" height="430pt"
 viewBox="0.00 0.00 294.00 430.00" xmlns="http://www.w3.org/2000/svg" xmlns:xlink="http://www.w3.org/1999/xlink">
<g id="graph1" class="graph" transform="scale(1 1) rotate(0) translate(4 426)">
<title>ObjectDiagram</title>
<polygon fill="white" stroke="white" points="-4,5 -4,-426 291,-426 291,5 -4,5"/>
<g id="graph2" class="cluster"><title>cluster_n6</title>
<polygon fill="none" stroke="grey" points="8,-81 8,-190 116,-190 116,-81 8,-81"/>
<image xlink:href="forbiddensign.svg" width="30px" height="30px" preserveAspectRatio="xMinYMin meet" x="20.5" y="-181"/>
<text text-anchor="start" x="57" y="-162.8" font-family="Times New Roman,serif" font-size="14.00">NAC n6</text>
</g>
<!-- graphPO -->
<g id="node1" class="node"><title>graphPO</title>
<polygon fill="aliceblue" stroke="aliceblue" points="108.5,-366.5 108.5,-417.5 199.5,-417.5 199.5,-366.5 108.5,-366.5"/>
<text text-anchor="start" x="161" y="-407.5" font-family="Times New Roman,serif" font-size="10.00">«bound»</text>
<polygon fill="none" stroke="black" points="109,-386 109,-402 200,-402 200,-386 109,-386"/>
<text text-anchor="start" x="112.5" y="-392" font-family="Times New Roman,serif" font-size="10.00"> </text>
<text text-anchor="start" x="115.5" y="-392" font-family="Times New Roman,serif" font-size="10.00"> graphPO :GraphPO </text>
<polygon fill="none" stroke="black" points="109,-366 109,-386 200,-386 200,-366 109,-366"/>
<text text-anchor="start" x="152" y="-374" font-family="Times New Roman,serif" font-size="10.00"> &#160;</text>
</g>
<!-- e1 -->
<g id="node2" class="node"><title>e1</title>
<polygon fill="aliceblue" stroke="aliceblue" points="76.5,-284.5 76.5,-321.5 137.5,-321.5 137.5,-284.5 76.5,-284.5"/>
<polygon fill="none" stroke="black" points="77,-304 77,-321 138,-321 138,-304 77,-304"/>
<text text-anchor="start" x="80.5" y="-310.5" font-family="Times New Roman,serif" font-size="10.00"> </text>
<text text-anchor="start" x="83.5" y="-310.5" font-family="Times New Roman,serif" font-size="10.00"> e1 :EdgePO </text>
<polygon fill="none" stroke="black" points="77,-284 77,-304 138,-304 138,-284 77,-284"/>
<text text-anchor="start" x="105" y="-292" font-family="Times New Roman,serif" font-size="10.00"> &#160;</text>
</g>
<!-- graphPO&#45;&#45;e1 -->
<g id="edge3" class="edge"><title>graphPO&#45;&#45;e1</title>
<path fill="none" stroke="black" d="M138.35,-362.03C131.941,-350.167 124.652,-336.675 118.716,-325.687"/>
<text text-anchor="middle" x="126.742" y="-329.153" font-family="Times New Roman,serif" font-size="10.00">edges</text>
</g>
<!-- e2 -->
<g id="node3" class="node"><title>e2</title>
<polygon fill="aliceblue" stroke="aliceblue" points="171.5,-284.5 171.5,-321.5 232.5,-321.5 232.5,-284.5 171.5,-284.5"/>
<polygon fill="none" stroke="black" points="172,-304 172,-321 233,-321 233,-304 172,-304"/>
<text text-anchor="start" x="175.5" y="-310.5" font-family="Times New Roman,serif" font-size="10.00"> </text>
<text text-anchor="start" x="178.5" y="-310.5" font-family="Times New Roman,serif" font-size="10.00"> e2 :EdgePO </text>
<polygon fill="none" stroke="black" points="172,-284 172,-304 233,-304 233,-284 172,-284"/>
<text text-anchor="start" x="200" y="-292" font-family="Times New Roman,serif" font-size="10.00"> &#160;</text>
</g>
<!-- graphPO&#45;&#45;e2 -->
<g id="edge5" class="edge"><title>graphPO&#45;&#45;e2</title>
<path fill="none" stroke="black" d="M169.983,-362.03C176.529,-350.167 183.973,-336.675 190.035,-325.687"/>
<text text-anchor="middle" x="189.357" y="-333.164" font-family="Times New Roman,serif" font-size="10.00">edges</text>
</g>
<!-- n3 -->
<g id="node4" class="node"><title>n3</title>
<polygon fill="aliceblue" stroke="aliceblue" points="136.5,-202.5 136.5,-239.5 199.5,-239.5 199.5,-202.5 136.5,-202.5"/>
<polygon fill="none" stroke="black" points="137,-222 137,-239 200,-239 200,-222 137,-222"/>
<text text-anchor="start" x="140.5" y="-228.5" font-family="Times New Roman,serif" font-size="10.00"> </text>
<text text-anchor="start" x="143.5" y="-228.5" font-family="Times New Roman,serif" font-size="10.00"> n3 :NodePO </text>
<polygon fill="none" stroke="black" points="137,-202 137,-222 200,-222 200,-202 137,-202"/>
<text text-anchor="start" x="166" y="-210" font-family="Times New Roman,serif" font-size="10.00"> &#160;</text>
</g>
<!-- e1&#45;&#45;n3 -->
<g id="edge7" class="edge"><title>e1&#45;&#45;n3</title>
<path fill="none" stroke="black" d="M123.669,-280.14C132.346,-268.759 142.919,-254.893 151.563,-243.557"/>
<text text-anchor="middle" x="149.428" y="-250.826" font-family="Times New Roman,serif" font-size="10.00">tgt</text>
</g>
<!-- n4 -->
<g id="node5" class="node"><title>n4</title>
<polygon fill="aliceblue" stroke="aliceblue" points="39.5,-202.5 39.5,-239.5 102.5,-239.5 102.5,-202.5 39.5,-202.5"/>
<polygon fill="none" stroke="black" points="40,-222 40,-239 103,-239 103,-222 40,-222"/>
<text text-anchor="start" x="43.5" y="-228.5" font-family="Times New Roman,serif" font-size="10.00"> </text>
<text text-anchor="start" x="46.5" y="-228.5" font-family="Times New Roman,serif" font-size="10.00"> n4 :NodePO </text>
<polygon fill="none" stroke="black" points="40,-202 40,-222 103,-222 103,-202 40,-202"/>
<text text-anchor="start" x="69" y="-210" font-family="Times New Roman,serif" font-size="10.00"> &#160;</text>
</g>
<!-- e1&#45;&#45;n4 -->
<g id="edge11" class="edge"><title>e1&#45;&#45;n4</title>
<path fill="none" stroke="black" d="M97.1628,-280.14C92.0416,-268.759 85.8018,-254.893 80.7006,-243.557"/>
<text text-anchor="middle" x="88.2737" y="-247.587" font-family="Times New Roman,serif" font-size="10.00">src</text>
</g>
<!-- e2&#45;&#45;n3 -->
<g id="edge9" class="edge"><title>e2&#45;&#45;n3</title>
<path fill="none" stroke="black" d="M192.709,-280.14C187.873,-268.759 181.979,-254.893 177.162,-243.557"/>
<text text-anchor="middle" x="184.596" y="-247.745" font-family="Times New Roman,serif" font-size="10.00">src</text>
</g>
<!-- n5 -->
<g id="node6" class="node"><title>n5</title>
<polygon fill="aliceblue" stroke="aliceblue" points="132,-4.5 132,-41.5 190,-41.5 190,-4.5 132,-4.5"/>
<polygon fill="none" stroke="black" points="132,-24 132,-41 190,-41 190,-24 132,-24"/>
<text text-anchor="start" x="135.5" y="-30.5" font-family="Times New Roman,serif" font-size="10.00"> </text>
<text text-anchor="start" x="138.5" y="-30.5" font-family="Times New Roman,serif" font-size="10.00"> n5 :NodePO </text>
<polygon fill="none" stroke="black" points="132,-4 132,-24 190,-24 190,-4 132,-4"/>
<text text-anchor="start" x="158.5" y="-12" font-family="Times New Roman,serif" font-size="10.00"> &#160;</text>
</g>
<!-- e2&#45;&#45;n5 -->
<g id="edge13" class="edge"><title>e2&#45;&#45;n5</title>
<path fill="none" stroke="black" d="M208.486,-280.463C211.416,-269.634 214.544,-256.24 216,-244 224.575,-171.928 232.704,-148.49 206,-81 200.851,-67.9867 191.707,-55.5422 183,-45.6198"/>
<text text-anchor="middle" x="192.112" y="-47.2403" font-family="Times New Roman,serif" font-size="10.00">tgt</text>
</g>
<!-- e7 -->
<g id="node8" class="node"><title>e7</title>
<polygon fill="aliceblue" stroke="aliceblue" points="43,-93.5 43,-130.5 99,-130.5 99,-93.5 43,-93.5"/>
<polygon fill="none" stroke="black" points="43,-113 43,-130 99,-130 99,-113 43,-113"/>
<text text-anchor="start" x="46.5" y="-119.5" font-family="Times New Roman,serif" font-size="10.00"> </text>
<text text-anchor="start" x="49.5" y="-119.5" font-family="Times New Roman,serif" font-size="10.00"> e7 :EdgePO </text>
<polygon fill="none" stroke="black" points="43,-93 43,-113 99,-113 99,-93 43,-93"/>
<text text-anchor="start" x="68.5" y="-101" font-family="Times New Roman,serif" font-size="10.00"> &#160;</text>
</g>
<!-- n4&#45;&#45;e7 -->
<g id="edge15" class="edge"><title>n4&#45;&#45;e7</title>
<path fill="none" stroke="black" d="M71,-198.347C71,-179.783 71,-153.176 71,-134.621"/>
<text text-anchor="middle" x="75.2262" y="-141.184" font-family="Times New Roman,serif" font-size="10.00">outEdges</text>
</g>
<!-- e8 -->
<g id="node9" class="node"><title>e8</title>
<polygon fill="aliceblue" stroke="aliceblue" points="133,-86.5 133,-137.5 189,-137.5 189,-86.5 133,-86.5"/>
<text text-anchor="start" x="156" y="-127.5" font-family="Times New Roman,serif" font-size="10.00" fill="green">«create»</text>
<polygon fill="none" stroke="green" points="133,-106 133,-122 189,-122 189,-106 133,-106"/>
<text text-anchor="start" x="136.5" y="-112" font-family="Times New Roman,serif" font-size="10.00"> </text>
<text text-anchor="start" x="139.5" y="-112" font-family="Times New Roman,serif" font-size="10.00" fill="green"> e8 :EdgePO </text>
<polygon fill="none" stroke="green" points="133,-86 133,-106 189,-106 189,-86 133,-86"/>
<text text-anchor="start" x="158.5" y="-94" font-family="Times New Roman,serif" font-size="10.00"> &#160;</text>
</g>
<!-- n4&#45;&#45;e8 -->
<g id="edge19" class="edge"><title>n4&#45;&#45;e8</title>
<path fill="none" stroke="green" d="M110.455,-198.551C113.879,-195.907 117.128,-193.05 120,-190 133.082,-176.107 143.219,-157.237 150.14,-141.655"/>
<text text-anchor="middle" x="150.226" y="-149.154" font-family="Times New Roman,serif" font-size="10.00" fill="green">outEdges</text>
</g>
<!-- e7&#45;&#45;n5 -->
<g id="edge17" class="edge"><title>e7&#45;&#45;n5</title>
<path fill="none" stroke="black" d="M93.2472,-89.4944C107.094,-76.1096 124.84,-58.9547 138.697,-45.5597"/>
<text text-anchor="middle" x="135.118" y="-52.3974" font-family="Times New Roman,serif" font-size="10.00">tgt</text>
</g>
<!-- e8&#45;&#45;n5 -->
<g id="edge21" class="edge"><title>e8&#45;&#45;n5</title>
<path fill="none" stroke="green" d="M161,-82.0303C161,-70.167 161,-56.6747 161,-45.6874"/>
<text text-anchor="middle" x="165.226" y="-52.2504" font-family="Times New Roman,serif" font-size="10.00" fill="green">tgt</text>
</g>
<!-- allMatches -->
<g id="node10" class="node"><title>allMatches</title>
<text text-anchor="middle" x="256" y="-389.5" font-family="Times New Roman,serif" font-size="10.00">allMatches</text>
</g>
</g>
</svg>
