<?xml version="1.0" encoding="UTF-8" standalone="no"?>
<!DOCTYPE svg PUBLIC "-//W3C//DTD SVG 1.1//EN"
 "http://www.w3.org/Graphics/SVG/1.1/DTD/svg11.dtd">
<!-- Generated by graphviz version 2.28.0 (20110507.0327)
 -->
<!-- Title: ObjectDiagram Pages: 1 -->
<svg width="303pt" height="430pt"
 viewBox="0.00 0.00 303.00 430.00" xmlns="http://www.w3.org/2000/svg" xmlns:xlink="http://www.w3.org/1999/xlink">
<g id="graph1" class="graph" transform="scale(1 1) rotate(0) translate(4 426)">
<title>ObjectDiagram</title>
<polygon fill="white" stroke="white" points="-4,5 -4,-426 300,-426 300,5 -4,5"/>
<g id="graph2" class="cluster"><title>cluster_n6</title>
<polygon fill="none" stroke="grey" points="8,-81 8,-190 116,-190 116,-81 8,-81"/>
<image xlink:href="../../SDMLib.net/doc/forbiddensign.svg" width="30px" height="30px" preserveAspectRatio="xMinYMin meet" x="20.5" y="-181"/>
<text text-anchor="start" x="57" y="-162.8" font-family="Times New Roman,serif" font-size="14.00">NAC n6</text>
</g>
<!-- graphPO2 -->
<g id="node1" class="node"><title>graphPO2</title>
<polygon fill="deepskyblue" stroke="deepskyblue" points="97,-366.5 97,-417.5 205,-417.5 205,-366.5 97,-366.5"/>
<text text-anchor="start" x="166" y="-407.5" font-family="Arial" font-size="10.00">«bound»</text>
<polygon fill="none" stroke="black" points="97,-386 97,-402 205,-402 205,-386 97,-386"/>
<text text-anchor="start" x="100.5" y="-392" font-family="Arial" font-size="10.00"> </text>
<text text-anchor="start" x="104.5" y="-392" font-family="Arial" font-size="10.00"> graphPO2 :GraphPO </text>
<polygon fill="none" stroke="black" points="97,-366 97,-386 205,-386 205,-366 97,-366"/>
<text text-anchor="start" x="147.5" y="-374" font-family="Arial" font-size="10.00"> &#160;</text>
</g>
<!-- e1 -->
<g id="node2" class="node"><title>e1</title>
<polygon fill="deepskyblue" stroke="deepskyblue" points="63.5,-284.5 63.5,-321.5 134.5,-321.5 134.5,-284.5 63.5,-284.5"/>
<polygon fill="none" stroke="black" points="64,-304 64,-321 135,-321 135,-304 64,-304"/>
<text text-anchor="start" x="67.5" y="-310.5" font-family="Arial" font-size="10.00"> </text>
<text text-anchor="start" x="71.5" y="-310.5" font-family="Arial" font-size="10.00"> e1 :EdgePO </text>
<polygon fill="none" stroke="black" points="64,-284 64,-304 135,-304 135,-284 64,-284"/>
<text text-anchor="start" x="96" y="-292" font-family="Arial" font-size="10.00"> &#160;</text>
</g>
<!-- graphPO2&#45;&#45;e1 -->
<g id="edge3" class="edge"><title>graphPO2&#45;&#45;e1</title>
<path fill="none" stroke="black" d="M133.685,-362.03C126.594,-350.167 118.53,-336.675 111.963,-325.687"/>
<text text-anchor="middle" x="120.24" y="-328.799" font-family="Arial" font-size="10.00">edges</text>
</g>
<!-- e2 -->
<g id="node3" class="node"><title>e2</title>
<polygon fill="deepskyblue" stroke="deepskyblue" points="168.5,-284.5 168.5,-321.5 239.5,-321.5 239.5,-284.5 168.5,-284.5"/>
<polygon fill="none" stroke="black" points="169,-304 169,-321 240,-321 240,-304 169,-304"/>
<text text-anchor="start" x="172.5" y="-310.5" font-family="Arial" font-size="10.00"> </text>
<text text-anchor="start" x="176.5" y="-310.5" font-family="Arial" font-size="10.00"> e2 :EdgePO </text>
<polygon fill="none" stroke="black" points="169,-284 169,-304 240,-304 240,-284 169,-284"/>
<text text-anchor="start" x="201" y="-292" font-family="Arial" font-size="10.00"> &#160;</text>
</g>
<!-- graphPO2&#45;&#45;e2 -->
<g id="edge5" class="edge"><title>graphPO2&#45;&#45;e2</title>
<path fill="none" stroke="black" d="M168.648,-362.03C175.875,-350.167 184.095,-336.675 190.788,-325.687"/>
<text text-anchor="middle" x="189.682" y="-333.126" font-family="Arial" font-size="10.00">edges</text>
</g>
<!-- n3 -->
<g id="node4" class="node"><title>n3</title>
<polygon fill="deepskyblue" stroke="deepskyblue" points="132.5,-202.5 132.5,-239.5 203.5,-239.5 203.5,-202.5 132.5,-202.5"/>
<polygon fill="none" stroke="black" points="133,-222 133,-239 204,-239 204,-222 133,-222"/>
<text text-anchor="start" x="136.5" y="-228.5" font-family="Arial" font-size="10.00"> </text>
<text text-anchor="start" x="140.5" y="-228.5" font-family="Arial" font-size="10.00"> n3 :NodePO </text>
<polygon fill="none" stroke="black" points="133,-202 133,-222 204,-222 204,-202 133,-202"/>
<text text-anchor="start" x="165" y="-210" font-family="Arial" font-size="10.00"> &#160;</text>
</g>
<!-- e1&#45;&#45;n3 -->
<g id="edge7" class="edge"><title>e1&#45;&#45;n3</title>
<path fill="none" stroke="black" d="M117.855,-280.14C127.67,-268.759 139.63,-254.893 149.407,-243.557"/>
<text text-anchor="middle" x="146.688" y="-250.68" font-family="Arial" font-size="10.00">tgt</text>
</g>
<!-- n4 -->
<g id="node5" class="node"><title>n4</title>
<polygon fill="deepskyblue" stroke="deepskyblue" points="27.5,-202.5 27.5,-239.5 98.5,-239.5 98.5,-202.5 27.5,-202.5"/>
<polygon fill="none" stroke="black" points="28,-222 28,-239 99,-239 99,-222 28,-222"/>
<text text-anchor="start" x="31.5" y="-228.5" font-family="Arial" font-size="10.00"> </text>
<text text-anchor="start" x="35.5" y="-228.5" font-family="Arial" font-size="10.00"> n4 :NodePO </text>
<polygon fill="none" stroke="black" points="28,-202 28,-222 99,-222 99,-202 28,-202"/>
<text text-anchor="start" x="60" y="-210" font-family="Arial" font-size="10.00"> &#160;</text>
</g>
<!-- e1&#45;&#45;n4 -->
<g id="edge11" class="edge"><title>e1&#45;&#45;n4</title>
<path fill="none" stroke="black" d="M89.1628,-280.14C84.0416,-268.759 77.8018,-254.893 72.7006,-243.557"/>
<text text-anchor="middle" x="80.2737" y="-247.587" font-family="Arial" font-size="10.00">src</text>
</g>
<!-- e2&#45;&#45;n3 -->
<g id="edge9" class="edge"><title>e2&#45;&#45;n3</title>
<path fill="none" stroke="black" d="M194.163,-280.14C189.042,-268.759 182.802,-254.893 177.701,-243.557"/>
<text text-anchor="middle" x="185.274" y="-247.587" font-family="Arial" font-size="10.00">src</text>
</g>
<!-- n5 -->
<g id="node6" class="node"><title>n5</title>
<polygon fill="deepskyblue" stroke="deepskyblue" points="126.5,-4.5 126.5,-41.5 197.5,-41.5 197.5,-4.5 126.5,-4.5"/>
<polygon fill="none" stroke="black" points="127,-24 127,-41 198,-41 198,-24 127,-24"/>
<text text-anchor="start" x="130.5" y="-30.5" font-family="Arial" font-size="10.00"> </text>
<text text-anchor="start" x="134.5" y="-30.5" font-family="Arial" font-size="10.00"> n5 :NodePO </text>
<polygon fill="none" stroke="black" points="127,-4 127,-24 198,-24 198,-4 127,-4"/>
<text text-anchor="start" x="159" y="-12" font-family="Arial" font-size="10.00"> &#160;</text>
</g>
<!-- e2&#45;&#45;n5 -->
<g id="edge13" class="edge"><title>e2&#45;&#45;n5</title>
<path fill="none" stroke="black" d="M211.494,-280.256C214.818,-269.491 218.346,-256.214 220,-244 229.747,-172.016 235.658,-148.169 208,-81 202.626,-67.948 193.264,-55.4984 184.383,-45.5825"/>
<text text-anchor="middle" x="193.536" y="-47.1091" font-family="Arial" font-size="10.00">tgt</text>
</g>
<!-- e7 -->
<g id="node8" class="node"><title>e7</title>
<polygon fill="deepskyblue" stroke="deepskyblue" points="27.5,-93.5 27.5,-130.5 98.5,-130.5 98.5,-93.5 27.5,-93.5"/>
<polygon fill="none" stroke="black" points="28,-113 28,-130 99,-130 99,-113 28,-113"/>
<text text-anchor="start" x="31.5" y="-119.5" font-family="Arial" font-size="10.00"> </text>
<text text-anchor="start" x="35.5" y="-119.5" font-family="Arial" font-size="10.00"> e7 :EdgePO </text>
<polygon fill="none" stroke="black" points="28,-93 28,-113 99,-113 99,-93 28,-93"/>
<text text-anchor="start" x="60" y="-101" font-family="Arial" font-size="10.00"> &#160;</text>
</g>
<!-- n4&#45;&#45;e7 -->
<g id="edge15" class="edge"><title>n4&#45;&#45;e7</title>
<path fill="none" stroke="black" d="M63,-198.347C63,-179.783 63,-153.176 63,-134.621"/>
<text text-anchor="middle" x="67.2262" y="-141.184" font-family="Arial" font-size="10.00">outEdges</text>
</g>
<!-- e8 -->
<g id="node9" class="node"><title>e8</title>
<polygon fill="deepskyblue" stroke="deepskyblue" points="133,-86.5 133,-137.5 191,-137.5 191,-86.5 133,-86.5"/>
<text text-anchor="start" x="156" y="-127.5" font-family="Arial" font-size="10.00" fill="green">«create»</text>
<polygon fill="none" stroke="green" points="133,-106 133,-122 191,-122 191,-106 133,-106"/>
<text text-anchor="start" x="136.5" y="-112" font-family="Arial" font-size="10.00"> </text>
<text text-anchor="start" x="140.5" y="-112" font-family="Arial" font-size="10.00" fill="green"> e8 :EdgePO </text>
<polygon fill="none" stroke="green" points="133,-86 133,-106 191,-106 191,-86 133,-86"/>
<text text-anchor="start" x="158.5" y="-94" font-family="Arial" font-size="10.00"> &#160;</text>
</g>
<!-- n4&#45;&#45;e8 -->
<g id="edge19" class="edge"><title>n4&#45;&#45;e8</title>
<path fill="none" stroke="green" d="M106.299,-200.798C111.231,-197.601 115.937,-194.003 120,-190 133.776,-176.427 144.22,-157.371 151.248,-141.612"/>
<text text-anchor="middle" x="151.309" y="-149.112" font-family="Arial" font-size="10.00" fill="green">outEdges</text>
</g>
<!-- e7&#45;&#45;n5 -->
<g id="edge17" class="edge"><title>e7&#45;&#45;n5</title>
<path fill="none" stroke="black" d="M87.4719,-89.4944C102.703,-76.1096 122.224,-58.9547 137.466,-45.5597"/>
<text text-anchor="middle" x="133.448" y="-52.217" font-family="Arial" font-size="10.00">tgt</text>
</g>
<!-- e8&#45;&#45;n5 -->
<g id="edge21" class="edge"><title>e8&#45;&#45;n5</title>
<path fill="none" stroke="green" d="M162,-82.0303C162,-70.167 162,-56.6747 162,-45.6874"/>
<text text-anchor="middle" x="166.226" y="-52.2504" font-family="Arial" font-size="10.00" fill="green">tgt</text>
</g>
<!-- allMatches -->
<g id="node10" class="node"><title>allMatches</title>
<text text-anchor="middle" x="263" y="-389.5" font-family="Arial" font-size="10.00">allMatches</text>
</g>
</g>
</svg>
