<?xml version="1.0" encoding="UTF-8" standalone="no"?>
<!DOCTYPE svg PUBLIC "-//W3C//DTD SVG 1.1//EN"
 "http://www.w3.org/Graphics/SVG/1.1/DTD/svg11.dtd">
<!-- Generated by graphviz version 2.28.0 (20110507.0327)
 -->
<!-- Title: ObjectDiagram Pages: 1 -->
<svg width="302pt" height="430pt"
 viewBox="0.00 0.00 302.00 430.00" xmlns="http://www.w3.org/2000/svg" xmlns:xlink="http://www.w3.org/1999/xlink">
<g id="graph1" class="graph" transform="scale(1 1) rotate(0) translate(4 426)">
<title>ObjectDiagram</title>
<polygon fill="white" stroke="white" points="-4,5 -4,-426 299,-426 299,5 -4,5"/>
<g id="graph2" class="cluster"><title>cluster_n6</title>
<polygon fill="none" stroke="grey" points="8,-81 8,-190 116,-190 116,-81 8,-81"/>
<image xlink:href="../../SDMLib.net/doc/forbiddensign.svg" width="30px" height="30px" preserveAspectRatio="xMinYMin meet" x="20.5" y="-181"/>
<text text-anchor="start" x="57" y="-162.8" font-family="Times New Roman,serif" font-size="14.00">NAC n6</text>
</g>
<!-- graphPO2 -->
<g id="node1" class="node"><title>graphPO2</title>
<polygon fill="deepskyblue" stroke="deepskyblue" points="96,-366.5 96,-417.5 204,-417.5 204,-366.5 96,-366.5"/>
<text text-anchor="start" x="165" y="-407.5" font-family="Arial" font-size="10.00">«bound»</text>
<polygon fill="none" stroke="black" points="96,-386 96,-402 204,-402 204,-386 96,-386"/>
<text text-anchor="start" x="99.5" y="-392" font-family="Arial" font-size="10.00"> </text>
<text text-anchor="start" x="103.5" y="-392" font-family="Arial" font-size="10.00"> graphPO2 :GraphPO </text>
<polygon fill="none" stroke="black" points="96,-366 96,-386 204,-386 204,-366 96,-366"/>
<text text-anchor="start" x="146.5" y="-374" font-family="Arial" font-size="10.00"> &#160;</text>
</g>
<!-- e1 -->
<g id="node2" class="node"><title>e1</title>
<polygon fill="deepskyblue" stroke="deepskyblue" points="75,-284.5 75,-321.5 133,-321.5 133,-284.5 75,-284.5"/>
<polygon fill="none" stroke="black" points="75,-304 75,-321 133,-321 133,-304 75,-304"/>
<text text-anchor="start" x="78.5" y="-310.5" font-family="Arial" font-size="10.00"> </text>
<text text-anchor="start" x="82.5" y="-310.5" font-family="Arial" font-size="10.00"> e1 :EdgePO </text>
<polygon fill="none" stroke="black" points="75,-284 75,-304 133,-304 133,-284 75,-284"/>
<text text-anchor="start" x="100.5" y="-292" font-family="Arial" font-size="10.00"> &#160;</text>
</g>
<!-- graphPO2&#45;&#45;e1 -->
<g id="edge3" class="edge"><title>graphPO2&#45;&#45;e1</title>
<path fill="none" stroke="black" d="M134.683,-362.03C128.41,-350.167 121.276,-336.675 115.467,-325.687"/>
<text text-anchor="middle" x="123.439" y="-329.224" font-family="Arial" font-size="10.00">edges</text>
</g>
<!-- e2 -->
<g id="node3" class="node"><title>e2</title>
<polygon fill="deepskyblue" stroke="deepskyblue" points="167,-284.5 167,-321.5 225,-321.5 225,-284.5 167,-284.5"/>
<polygon fill="none" stroke="black" points="167,-304 167,-321 225,-321 225,-304 167,-304"/>
<text text-anchor="start" x="170.5" y="-310.5" font-family="Arial" font-size="10.00"> </text>
<text text-anchor="start" x="174.5" y="-310.5" font-family="Arial" font-size="10.00"> e2 :EdgePO </text>
<polygon fill="none" stroke="black" points="167,-284 167,-304 225,-304 225,-284 167,-284"/>
<text text-anchor="start" x="192.5" y="-292" font-family="Arial" font-size="10.00"> &#160;</text>
</g>
<!-- graphPO2&#45;&#45;e2 -->
<g id="edge5" class="edge"><title>graphPO2&#45;&#45;e2</title>
<path fill="none" stroke="black" d="M165.317,-362.03C171.59,-350.167 178.724,-336.675 184.533,-325.687"/>
<text text-anchor="middle" x="184.033" y="-333.175" font-family="Arial" font-size="10.00">edges</text>
</g>
<!-- n3 -->
<g id="node4" class="node"><title>n3</title>
<polygon fill="deepskyblue" stroke="deepskyblue" points="133.5,-202.5 133.5,-239.5 192.5,-239.5 192.5,-202.5 133.5,-202.5"/>
<polygon fill="none" stroke="black" points="134,-222 134,-239 193,-239 193,-222 134,-222"/>
<text text-anchor="start" x="137.5" y="-228.5" font-family="Arial" font-size="10.00"> </text>
<text text-anchor="start" x="141.5" y="-228.5" font-family="Arial" font-size="10.00"> n3 :NodePO </text>
<polygon fill="none" stroke="black" points="134,-202 134,-222 193,-222 193,-202 134,-202"/>
<text text-anchor="start" x="160" y="-210" font-family="Arial" font-size="10.00"> &#160;</text>
</g>
<!-- e1&#45;&#45;n3 -->
<g id="edge7" class="edge"><title>e1&#45;&#45;n3</title>
<path fill="none" stroke="black" d="M120.122,-280.14C128.515,-268.759 138.741,-254.893 147.102,-243.557"/>
<text text-anchor="middle" x="145.124" y="-250.859" font-family="Arial" font-size="10.00">tgt</text>
</g>
<!-- n4 -->
<g id="node5" class="node"><title>n4</title>
<polygon fill="deepskyblue" stroke="deepskyblue" points="40.5,-202.5 40.5,-239.5 99.5,-239.5 99.5,-202.5 40.5,-202.5"/>
<polygon fill="none" stroke="black" points="41,-222 41,-239 100,-239 100,-222 41,-222"/>
<text text-anchor="start" x="44.5" y="-228.5" font-family="Arial" font-size="10.00"> </text>
<text text-anchor="start" x="48.5" y="-228.5" font-family="Arial" font-size="10.00"> n4 :NodePO </text>
<polygon fill="none" stroke="black" points="41,-202 41,-222 100,-222 100,-202 41,-202"/>
<text text-anchor="start" x="67" y="-210" font-family="Arial" font-size="10.00"> &#160;</text>
</g>
<!-- e1&#45;&#45;n4 -->
<g id="edge11" class="edge"><title>e1&#45;&#45;n4</title>
<path fill="none" stroke="black" d="M94.7094,-280.14C89.8726,-268.759 83.9795,-254.893 79.1617,-243.557"/>
<text text-anchor="middle" x="86.5961" y="-247.745" font-family="Arial" font-size="10.00">src</text>
</g>
<!-- e2&#45;&#45;n3 -->
<g id="edge9" class="edge"><title>e2&#45;&#45;n3</title>
<path fill="none" stroke="black" d="M186.983,-280.14C182.288,-268.759 176.568,-254.893 171.892,-243.557"/>
<text text-anchor="middle" x="179.255" y="-247.824" font-family="Arial" font-size="10.00">src</text>
</g>
<!-- n5 -->
<g id="node6" class="node"><title>n5</title>
<polygon fill="deepskyblue" stroke="deepskyblue" points="132.5,-4.5 132.5,-41.5 191.5,-41.5 191.5,-4.5 132.5,-4.5"/>
<polygon fill="none" stroke="black" points="133,-24 133,-41 192,-41 192,-24 133,-24"/>
<text text-anchor="start" x="136.5" y="-30.5" font-family="Arial" font-size="10.00"> </text>
<text text-anchor="start" x="140.5" y="-30.5" font-family="Arial" font-size="10.00"> n5 :NodePO </text>
<polygon fill="none" stroke="black" points="133,-4 133,-24 192,-24 192,-4 133,-4"/>
<text text-anchor="start" x="159" y="-12" font-family="Arial" font-size="10.00"> &#160;</text>
</g>
<!-- e2&#45;&#45;n5 -->
<g id="edge13" class="edge"><title>e2&#45;&#45;n5</title>
<path fill="none" stroke="black" d="M202.537,-280.492C213.683,-240.042 232.866,-150.459 208,-81 203.285,-67.8305 194.129,-55.4545 185.219,-45.6217"/>
<text text-anchor="middle" x="194.39" y="-47.1092" font-family="Arial" font-size="10.00">tgt</text>
</g>
<!-- e7 -->
<g id="node8" class="node"><title>e7</title>
<polygon fill="deepskyblue" stroke="deepskyblue" points="41,-93.5 41,-130.5 99,-130.5 99,-93.5 41,-93.5"/>
<polygon fill="none" stroke="black" points="41,-113 41,-130 99,-130 99,-113 41,-113"/>
<text text-anchor="start" x="44.5" y="-119.5" font-family="Arial" font-size="10.00"> </text>
<text text-anchor="start" x="48.5" y="-119.5" font-family="Arial" font-size="10.00"> e7 :EdgePO </text>
<polygon fill="none" stroke="black" points="41,-93 41,-113 99,-113 99,-93 41,-93"/>
<text text-anchor="start" x="66.5" y="-101" font-family="Arial" font-size="10.00"> &#160;</text>
</g>
<!-- n4&#45;&#45;e7 -->
<g id="edge15" class="edge"><title>n4&#45;&#45;e7</title>
<path fill="none" stroke="black" d="M70,-198.347C70,-179.783 70,-153.176 70,-134.621"/>
<text text-anchor="middle" x="74.2262" y="-141.184" font-family="Arial" font-size="10.00">outEdges</text>
</g>
<!-- e8 -->
<g id="node9" class="node"><title>e8</title>
<polygon fill="deepskyblue" stroke="deepskyblue" points="133,-86.5 133,-137.5 191,-137.5 191,-86.5 133,-86.5"/>
<text text-anchor="start" x="156" y="-127.5" font-family="Arial" font-size="10.00" fill="green">«create»</text>
<polygon fill="none" stroke="green" points="133,-106 133,-122 191,-122 191,-106 133,-106"/>
<text text-anchor="start" x="136.5" y="-112" font-family="Arial" font-size="10.00"> </text>
<text text-anchor="start" x="140.5" y="-112" font-family="Arial" font-size="10.00" fill="green"> e8 :EdgePO </text>
<polygon fill="none" stroke="green" points="133,-86 133,-106 191,-106 191,-86 133,-86"/>
<text text-anchor="start" x="158.5" y="-94" font-family="Arial" font-size="10.00"> &#160;</text>
</g>
<!-- n4&#45;&#45;e8 -->
<g id="edge19" class="edge"><title>n4&#45;&#45;e8</title>
<path fill="none" stroke="green" d="M107.45,-200.627C111.965,-197.425 116.285,-193.871 120,-190 133.285,-176.157 143.667,-157.288 150.786,-141.693"/>
<text text-anchor="middle" x="150.769" y="-149.193" font-family="Arial" font-size="10.00" fill="green">outEdges</text>
</g>
<!-- e7&#45;&#45;n5 -->
<g id="edge17" class="edge"><title>e7&#45;&#45;n5</title>
<path fill="none" stroke="black" d="M92.7416,-89.4944C106.896,-76.1096 125.036,-58.9547 139.201,-45.5597"/>
<text text-anchor="middle" x="135.52" y="-52.3575" font-family="Arial" font-size="10.00">tgt</text>
</g>
<!-- e8&#45;&#45;n5 -->
<g id="edge21" class="edge"><title>e8&#45;&#45;n5</title>
<path fill="none" stroke="green" d="M162,-82.0303C162,-70.167 162,-56.6747 162,-45.6874"/>
<text text-anchor="middle" x="166.226" y="-52.2504" font-family="Arial" font-size="10.00" fill="green">tgt</text>
</g>
<!-- allMatches -->
<g id="node10" class="node"><title>allMatches</title>
<text text-anchor="middle" x="262" y="-389.5" font-family="Arial" font-size="10.00">allMatches</text>
</g>
</g>
</svg>
