<?xml version="1.0" encoding="UTF-8" standalone="no"?>
<!DOCTYPE svg PUBLIC "-//W3C//DTD SVG 1.1//EN"
 "http://www.w3.org/Graphics/SVG/1.1/DTD/svg11.dtd">
<!-- Generated by graphviz version 2.28.0 (20110507.0327)
 -->
<!-- Title: ObjectDiagram Pages: 1 -->
<svg width="440pt" height="418pt"
 viewBox="0.00 0.00 440.00 418.00" xmlns="http://www.w3.org/2000/svg" xmlns:xlink="http://www.w3.org/1999/xlink">
<g id="graph1" class="graph" transform="scale(1 1) rotate(0) translate(4 414)">
<title>ObjectDiagram</title>
<polygon fill="white" stroke="white" points="-4,5 -4,-414 437,-414 437,5 -4,5"/>
<g id="graph2" class="cluster"><title>cluster_n3</title>
<polygon fill="none" stroke="grey" points="8,-181 8,-274 114,-274 114,-181 8,-181"/>
<text text-anchor="start" x="41" y="-254.8" font-family="Times New Roman,serif" font-size="14.00">NAC n3</text>
</g>
<g id="graph3" class="cluster"><title>cluster_n7</title>
<polygon fill="none" stroke="grey" points="187,-8 187,-173 424,-173 424,-8 187,-8"/>
<text text-anchor="start" x="285.5" y="-153.8" font-family="Times New Roman,serif" font-size="14.00">NAC n7</text>
</g>
<!-- r1 -->
<g id="node1" class="node"><title>r1</title>
<polygon fill="deepskyblue" stroke="deepskyblue" points="100.5,-368.5 100.5,-405.5 167.5,-405.5 167.5,-368.5 100.5,-368.5"/>
<polygon fill="none" stroke="black" points="101,-388 101,-405 168,-405 168,-388 101,-388"/>
<text text-anchor="start" x="104.5" y="-394.5" font-family="Arial" font-size="10.00"> </text>
<text text-anchor="start" x="108.5" y="-394.5" font-family="Arial" font-size="10.00"> r1 :RiverPO </text>
<polygon fill="none" stroke="black" points="101,-368 101,-388 168,-388 168,-368 101,-368"/>
<text text-anchor="start" x="131" y="-376" font-family="Arial" font-size="10.00"> &#160;</text>
</g>
<!-- b2 -->
<g id="node2" class="node"><title>b2</title>
<polygon fill="deepskyblue" stroke="deepskyblue" points="99.5,-286.5 99.5,-323.5 168.5,-323.5 168.5,-286.5 99.5,-286.5"/>
<polygon fill="none" stroke="black" points="100,-306 100,-323 169,-323 169,-306 100,-306"/>
<text text-anchor="start" x="103.5" y="-312.5" font-family="Arial" font-size="10.00"> </text>
<text text-anchor="start" x="107.5" y="-312.5" font-family="Arial" font-size="10.00"> b2 :BoatPO </text>
<polygon fill="none" stroke="black" points="100,-286 100,-306 169,-306 169,-286 100,-286"/>
<text text-anchor="start" x="131" y="-294" font-family="Arial" font-size="10.00"> &#160;</text>
</g>
<!-- r1&#45;&#45;b2 -->
<g id="edge10" class="edge"><title>r1&#45;&#45;b2</title>
<path fill="none" stroke="black" d="M134,-364.14C134,-352.759 134,-338.893 134,-327.557"/>
<text text-anchor="middle" x="138.226" y="-334.12" font-family="Arial" font-size="10.00">boat</text>
</g>
<!-- c4 -->
<g id="node4" class="node"><title>c4</title>
<polygon fill="deepskyblue" stroke="deepskyblue" points="24,-193.5 24,-230.5 98,-230.5 98,-193.5 24,-193.5"/>
<polygon fill="none" stroke="black" points="24,-213 24,-230 98,-230 98,-213 24,-213"/>
<text text-anchor="start" x="27.5" y="-219.5" font-family="Arial" font-size="10.00"> </text>
<text text-anchor="start" x="31.5" y="-219.5" font-family="Arial" font-size="10.00"> c4 :CargoPO </text>
<polygon fill="none" stroke="black" points="24,-193 24,-213 98,-213 98,-193 24,-193"/>
<text text-anchor="start" x="57.5" y="-201" font-family="Arial" font-size="10.00"> &#160;</text>
</g>
<!-- b2&#45;&#45;c4 -->
<g id="edge12" class="edge"><title>b2&#45;&#45;c4</title>
<path fill="none" stroke="black" d="M116.7,-282.434C105.148,-268.033 90.0078,-249.16 78.4288,-234.726"/>
<text text-anchor="middle" x="87.3965" y="-236.651" font-family="Arial" font-size="10.00">cargo</text>
</g>
<!-- b5 -->
<g id="node5" class="node"><title>b5</title>
<polygon fill="deepskyblue" stroke="deepskyblue" points="170.5,-193.5 170.5,-230.5 241.5,-230.5 241.5,-193.5 170.5,-193.5"/>
<polygon fill="none" stroke="black" points="171,-213 171,-230 242,-230 242,-213 171,-213"/>
<text text-anchor="start" x="174.5" y="-219.5" font-family="Arial" font-size="10.00"> </text>
<text text-anchor="start" x="178.5" y="-219.5" font-family="Arial" font-size="10.00"> b5 :BankPO </text>
<polygon fill="none" stroke="black" points="171,-193 171,-213 242,-213 242,-193 171,-193"/>
<text text-anchor="start" x="203" y="-201" font-family="Arial" font-size="10.00"> &#160;</text>
</g>
<!-- b2&#45;&#45;b5 -->
<g id="edge14" class="edge"><title>b2&#45;&#45;b5</title>
<path fill="none" stroke="black" d="M151.063,-282.434C162.457,-268.033 177.39,-249.16 188.81,-234.726"/>
<text text-anchor="middle" x="186.501" y="-241.956" font-family="Arial" font-size="10.00">bank</text>
</g>
<!-- c6 -->
<g id="node6" class="node"><title>c6</title>
<polygon fill="deepskyblue" stroke="deepskyblue" points="97,-92.5 97,-129.5 171,-129.5 171,-92.5 97,-92.5"/>
<polygon fill="none" stroke="black" points="97,-112 97,-129 171,-129 171,-112 97,-112"/>
<text text-anchor="start" x="100.5" y="-118.5" font-family="Arial" font-size="10.00"> </text>
<text text-anchor="start" x="104.5" y="-118.5" font-family="Arial" font-size="10.00"> c6 :CargoPO </text>
<polygon fill="none" stroke="black" points="97,-92 97,-112 171,-112 171,-92 97,-92"/>
<text text-anchor="start" x="130.5" y="-100" font-family="Arial" font-size="10.00"> &#160;</text>
</g>
<!-- b2&#45;&#45;c6 -->
<g id="edge24" class="edge"><title>b2&#45;&#45;c6</title>
<path fill="none" stroke="green" d="M134,-282.348C134,-245.375 134,-170.491 134,-133.572"/>
<text text-anchor="middle" x="138.226" y="-140.136" font-family="Arial" font-size="10.00" fill="green">cargo</text>
</g>
<!-- b5&#45;&#45;c6 -->
<g id="edge16" class="edge"><title>b5&#45;&#45;c6</title>
<path fill="none" stroke="black" d="M184.301,-189.029C170.902,-172.509 154.536,-149.991 144.001,-133.569"/>
<text text-anchor="middle" x="152.493" y="-136.349" font-family="Arial" font-size="10.00">cargos</text>
</g>
<!-- b5&#45;&#45;c6 -->
<g id="edge22" class="edge"><title>b5&#45;&#45;c6</title>
<path fill="none" stroke="red" d="M195.741,-189.029C185.111,-172.509 168.723,-149.991 155.373,-133.569"/>
<text text-anchor="middle" x="164.34" y="-135.496" font-family="Arial" font-size="10.00" fill="red">cargos</text>
</g>
<!-- c8 -->
<g id="node8" class="node"><title>c8</title>
<polygon fill="deepskyblue" stroke="deepskyblue" points="320,-92.5 320,-129.5 406,-129.5 406,-92.5 320,-92.5"/>
<polygon fill="none" stroke="black" points="320,-112 320,-129 406,-129 406,-112 320,-112"/>
<text text-anchor="start" x="329.5" y="-118.5" font-family="Arial" font-size="10.00"> </text>
<text text-anchor="start" x="333.5" y="-118.5" font-family="Arial" font-size="10.00"> c8 :CargoPO </text>
<polygon fill="none" stroke="black" points="320,-92 320,-112 406,-112 406,-92 320,-92"/>
<text text-anchor="start" x="325.5" y="-100" font-family="Arial" font-size="10.00"> name == &quot;goat&quot; </text>
</g>
<!-- b5&#45;&#45;c8 -->
<g id="edge18" class="edge"><title>b5&#45;&#45;c8</title>
<path fill="none" stroke="black" d="M249.392,-197.76C266.242,-191.587 285.238,-183.301 301,-173 317.558,-162.178 333.405,-146.458 344.933,-133.687"/>
<text text-anchor="middle" x="341.926" y="-140.725" font-family="Arial" font-size="10.00">cargos</text>
</g>
<!-- c10 -->
<g id="node10" class="node"><title>c10</title>
<polygon fill="deepskyblue" stroke="deepskyblue" points="205.5,-92.5 205.5,-129.5 284.5,-129.5 284.5,-92.5 205.5,-92.5"/>
<polygon fill="none" stroke="black" points="206,-112 206,-129 285,-129 285,-112 206,-112"/>
<text text-anchor="start" x="209.5" y="-118.5" font-family="Arial" font-size="10.00"> </text>
<text text-anchor="start" x="213.5" y="-118.5" font-family="Arial" font-size="10.00"> c10 :CargoPO </text>
<polygon fill="none" stroke="black" points="206,-92 206,-112 285,-112 285,-92 206,-92"/>
<text text-anchor="start" x="242" y="-100" font-family="Arial" font-size="10.00"> &#160;</text>
</g>
<!-- b5&#45;&#45;c10 -->
<g id="edge20" class="edge"><title>b5&#45;&#45;c10</title>
<path fill="none" stroke="black" d="M214.655,-189.029C221.163,-172.509 230.034,-149.991 236.503,-133.569"/>
<text text-anchor="middle" x="237.113" y="-141.051" font-family="Arial" font-size="10.00">cargos</text>
</g>
<!-- m9 -->
<g id="node9" class="node"><title>m9</title>
<text text-anchor="middle" x="387" y="-31.5" font-family="Arial" font-size="10.00">{c8 != c6}</text>
</g>
<!-- c8&#45;&#45;m9 -->
<g id="edge4" class="edge"><title>c8&#45;&#45;m9</title>
<path fill="none" stroke="black" stroke-dasharray="1,5" d="M369.942,-88.3069C373.597,-76.8856 378.018,-63.0699 381.443,-52.3655"/>
</g>
<!-- m11 -->
<g id="node11" class="node"><title>m11</title>
<text text-anchor="middle" x="227" y="-31.5" font-family="Arial" font-size="10.00">{c10 != c6}</text>
</g>
<!-- c10&#45;&#45;m11 -->
<g id="edge6" class="edge"><title>c10&#45;&#45;m11</title>
<path fill="none" stroke="black" stroke-dasharray="1,5" d="M239.794,-88.3069C237.053,-76.8856 233.737,-63.0699 231.168,-52.3655"/>
</g>
<!-- m12 -->
<g id="node12" class="node"><title>m12</title>
<text text-anchor="middle" x="308" y="-31.5" font-family="Arial" font-size="10.00">{c10 != c8}</text>
</g>
<!-- c10&#45;&#45;m12 -->
<g id="edge8" class="edge"><title>c10&#45;&#45;m12</title>
<path fill="none" stroke="black" stroke-dasharray="1,5" d="M263.222,-88.3069C272.816,-76.8856 284.421,-63.0699 293.413,-52.3655"/>
</g>
</g>
</svg>
