<?xml version="1.0" encoding="UTF-8" standalone="no"?>
<!DOCTYPE svg PUBLIC "-//W3C//DTD SVG 1.1//EN"
 "http://www.w3.org/Graphics/SVG/1.1/DTD/svg11.dtd">
<!-- Generated by graphviz version 2.26.3 (20100126.1600)
 -->
<!-- Title: ObjectDiagram Pages: 1 -->
<svg width="337pt" height="646pt"
 viewBox="0.00 0.00 337.00 646.00" xmlns="http://www.w3.org/2000/svg" xmlns:xlink="http://www.w3.org/1999/xlink">
<g id="graph1" class="graph" transform="scale(1 1) rotate(0) translate(4 642)">
<title>ObjectDiagram</title>
<polygon fill="white" stroke="white" points="-4,5 -4,-642 334,-642 334,5 -4,5"/>
<!-- p1 -->
<g id="node1" class="node"><title>p1</title>
<polygon fill="none" stroke="black" points="151,-616 151,-633 232,-633 232,-616 151,-616"/>
<text text-anchor="start" x="165.5" y="-622.167" font-family="Times Roman,serif" font-size="10.00"> </text>
<text text-anchor="start" x="169.5" y="-622.167" font-family="Times Roman,serif" font-size="10.00">p1 :Player</text>
<polygon fill="none" stroke="black" points="151,-554 151,-616 232,-616 232,-554 151,-554"/>
<text text-anchor="start" x="158.5" y="-603.667" font-family="Times Roman,serif" font-size="10.00">color = &quot;blue&quot;</text>
<text text-anchor="start" x="156.5" y="-589.667" font-family="Times Roman,serif" font-size="10.00">name = &quot;Tom&quot;</text>
<text text-anchor="start" x="178.5" y="-575.667" font-family="Times Roman,serif" font-size="10.00">x = 0</text>
<text text-anchor="start" x="178.5" y="-561.667" font-family="Times Roman,serif" font-size="10.00">y = 0</text>
</g>
<!-- d2 -->
<g id="node2" class="node"><title>d2</title>
<polygon fill="none" stroke="black" points="8,-471 8,-488 65,-488 65,-471 8,-471"/>
<text text-anchor="start" x="14.5" y="-477.167" font-family="Times Roman,serif" font-size="10.00"> </text>
<text text-anchor="start" x="18.5" y="-477.167" font-family="Times Roman,serif" font-size="10.00">d2 :Dice</text>
<polygon fill="none" stroke="black" points="8,-451 8,-471 65,-471 65,-451 8,-451"/>
<text text-anchor="start" x="13.5" y="-458.667" font-family="Times Roman,serif" font-size="10.00">value = 6</text>
</g>
<!-- p1&#45;&#45;d2 -->
<g id="edge14" class="edge"><title>p1&#45;&#45;d2</title>
<path fill="none" stroke="black" d="M142.748,-561.204C123.103,-547.268 100.481,-530.458 81,-514 73.1542,-507.372 65.003,-499.679 57.8284,-492.597"/>
<text text-anchor="middle" x="67.2559" y="-492.932" font-family="Times Roman,serif" font-size="10.00">dice</text>
<text text-anchor="middle" x="132.915" y="-556.381" font-family="Times Roman,serif" font-size="10.00">player</text>
</g>
<!-- f3 -->
<g id="node3" class="node"><title>f3</title>
<polygon fill="none" stroke="black" points="98,-492 98,-509 175,-509 175,-492 98,-492"/>
<text text-anchor="start" x="116" y="-498.167" font-family="Times Roman,serif" font-size="10.00"> </text>
<text text-anchor="start" x="120" y="-498.167" font-family="Times Roman,serif" font-size="10.00">f3 :Field</text>
<polygon fill="none" stroke="black" points="98,-430 98,-492 175,-492 175,-430 98,-430"/>
<text text-anchor="start" x="103.5" y="-479.667" font-family="Times Roman,serif" font-size="10.00">color = &quot;blue&quot;</text>
<text text-anchor="start" x="104.5" y="-465.667" font-family="Times Roman,serif" font-size="10.00">kind = &quot;start&quot;</text>
<text text-anchor="start" x="123.5" y="-451.667" font-family="Times Roman,serif" font-size="10.00">x = 0</text>
<text text-anchor="start" x="123.5" y="-437.667" font-family="Times Roman,serif" font-size="10.00">y = 0</text>
</g>
<!-- p1&#45;&#45;f3 -->
<g id="edge18" class="edge"><title>p1&#45;&#45;f3</title>
<path fill="none" stroke="black" d="M171.609,-550.282C166.351,-538.429 160.659,-525.596 155.401,-513.741"/>
<text text-anchor="middle" x="162.939" y="-517.312" font-family="Times Roman,serif" font-size="10.00">start</text>
<text text-anchor="middle" x="164.071" y="-540.711" font-family="Times Roman,serif" font-size="10.00">starter</text>
</g>
<!-- f10 -->
<g id="node10" class="node"><title>f10</title>
<polygon fill="none" stroke="black" points="208,-492 208,-509 285,-509 285,-492 208,-492"/>
<text text-anchor="start" x="223" y="-498.167" font-family="Times Roman,serif" font-size="10.00"> </text>
<text text-anchor="start" x="227" y="-498.167" font-family="Times Roman,serif" font-size="10.00">f10 :Field</text>
<polygon fill="none" stroke="black" points="208,-430 208,-492 285,-492 285,-430 208,-430"/>
<text text-anchor="start" x="213.5" y="-479.667" font-family="Times Roman,serif" font-size="10.00">color = &quot;blue&quot;</text>
<text text-anchor="start" x="214" y="-465.667" font-family="Times Roman,serif" font-size="10.00">kind = &quot;base&quot;</text>
<text text-anchor="start" x="233.5" y="-451.667" font-family="Times Roman,serif" font-size="10.00">x = 0</text>
<text text-anchor="start" x="233.5" y="-437.667" font-family="Times Roman,serif" font-size="10.00">y = 0</text>
</g>
<!-- p1&#45;&#45;f10 -->
<g id="edge16" class="edge"><title>p1&#45;&#45;f10</title>
<path fill="none" stroke="black" d="M210.391,-550.282C215.649,-538.429 221.341,-525.596 226.599,-513.741"/>
<text text-anchor="middle" x="226.787" y="-520.739" font-family="Times Roman,serif" font-size="10.00">base</text>
<text text-anchor="middle" x="210.202" y="-537.284" font-family="Times Roman,serif" font-size="10.00">baseowner</text>
</g>
<!-- p11 -->
<g id="node11" class="node"><title>p11</title>
<polygon fill="none" stroke="black" points="245,-368 245,-385 322,-385 322,-368 245,-368"/>
<text text-anchor="start" x="257" y="-374.167" font-family="Times Roman,serif" font-size="10.00"> </text>
<text text-anchor="start" x="261" y="-374.167" font-family="Times Roman,serif" font-size="10.00">p11 :Pawn</text>
<polygon fill="none" stroke="black" points="245,-320 245,-368 322,-368 322,-320 245,-320"/>
<text text-anchor="start" x="250.5" y="-355.667" font-family="Times Roman,serif" font-size="10.00">color = &quot;blue&quot;</text>
<text text-anchor="start" x="270.5" y="-341.667" font-family="Times Roman,serif" font-size="10.00">x = 0</text>
<text text-anchor="start" x="270.5" y="-327.667" font-family="Times Roman,serif" font-size="10.00">y = 0</text>
</g>
<!-- p1&#45;&#45;p11 -->
<g id="edge20" class="edge"><title>p1&#45;&#45;p11</title>
<path fill="none" stroke="black" d="M239.119,-572.291C262.332,-559.044 287.927,-539.672 301,-514 320.91,-474.902 309.871,-423.669 298.208,-389.609"/>
<text text-anchor="middle" x="305.011" y="-393.939" font-family="Times Roman,serif" font-size="10.00">pawns</text>
<text text-anchor="middle" x="244.764" y="-561.036" font-family="Times Roman,serif" font-size="10.00">player</text>
</g>
<!-- f4 -->
<g id="node4" class="node"><title>f4</title>
<polygon fill="none" stroke="black" points="14,-361 14,-378 62,-378 62,-361 14,-361"/>
<text text-anchor="start" x="17.5" y="-367.167" font-family="Times Roman,serif" font-size="10.00"> </text>
<text text-anchor="start" x="21.5" y="-367.167" font-family="Times Roman,serif" font-size="10.00">f4 :Field</text>
<polygon fill="none" stroke="black" points="14,-327 14,-361 62,-361 62,-327 14,-327"/>
<text text-anchor="start" x="25" y="-348.667" font-family="Times Roman,serif" font-size="10.00">x = 0</text>
<text text-anchor="start" x="25" y="-334.667" font-family="Times Roman,serif" font-size="10.00">y = 0</text>
</g>
<!-- f3&#45;&#45;f4 -->
<g id="edge4" class="edge"><title>f3&#45;&#45;f4</title>
<path fill="none" stroke="black" d="M99.5084,-426.434C87.3184,-411.88 74.0216,-396.005 62.9196,-382.751"/>
<text text-anchor="middle" x="71.979" y="-383.985" font-family="Times Roman,serif" font-size="10.00">next</text>
<text text-anchor="middle" x="90.449" y="-419.199" font-family="Times Roman,serif" font-size="10.00">prev</text>
</g>
<!-- p8 -->
<g id="node8" class="node"><title>p8</title>
<polygon fill="none" stroke="black" points="101,-368 101,-385 173,-385 173,-368 101,-368"/>
<text text-anchor="start" x="113.5" y="-374.167" font-family="Times Roman,serif" font-size="10.00"> </text>
<text text-anchor="start" x="117.5" y="-374.167" font-family="Times Roman,serif" font-size="10.00">p8 :Pawn</text>
<polygon fill="none" stroke="black" points="101,-320 101,-368 173,-368 173,-320 101,-320"/>
<text text-anchor="start" x="106.5" y="-355.667" font-family="Times Roman,serif" font-size="10.00">color = &quot;red&quot;</text>
<text text-anchor="start" x="124" y="-341.667" font-family="Times Roman,serif" font-size="10.00">x = 0</text>
<text text-anchor="start" x="124" y="-327.667" font-family="Times Roman,serif" font-size="10.00">y = 0</text>
</g>
<!-- f3&#45;&#45;p8 -->
<g id="edge6" class="edge"><title>f3&#45;&#45;p8</title>
<path fill="none" stroke="black" d="M136.372,-426.434C136.476,-414.349 136.587,-401.353 136.686,-389.704"/>
<text text-anchor="middle" x="140.835" y="-395.802" font-family="Times Roman,serif" font-size="10.00">pawns</text>
<text text-anchor="middle" x="132.224" y="-414.335" font-family="Times Roman,serif" font-size="10.00">pos</text>
</g>
<!-- f5 -->
<g id="node5" class="node"><title>f5</title>
<polygon fill="none" stroke="black" points="11,-244 11,-261 59,-261 59,-244 11,-244"/>
<text text-anchor="start" x="14.5" y="-250.167" font-family="Times Roman,serif" font-size="10.00"> </text>
<text text-anchor="start" x="18.5" y="-250.167" font-family="Times Roman,serif" font-size="10.00">f5 :Field</text>
<polygon fill="none" stroke="black" points="11,-210 11,-244 59,-244 59,-210 11,-210"/>
<text text-anchor="start" x="22" y="-231.667" font-family="Times Roman,serif" font-size="10.00">x = 0</text>
<text text-anchor="start" x="22" y="-217.667" font-family="Times Roman,serif" font-size="10.00">y = 0</text>
</g>
<!-- f4&#45;&#45;f5 -->
<g id="edge8" class="edge"><title>f4&#45;&#45;f5</title>
<path fill="none" stroke="black" d="M37.243,-323.476C36.7882,-305.74 36.2115,-283.249 35.7568,-265.515"/>
<text text-anchor="middle" x="40.2139" y="-271.466" font-family="Times Roman,serif" font-size="10.00">next</text>
<text text-anchor="middle" x="32.7859" y="-311.524" font-family="Times Roman,serif" font-size="10.00">prev</text>
</g>
<!-- f6 -->
<g id="node6" class="node"><title>f6</title>
<polygon fill="none" stroke="black" points="11,-134 11,-151 59,-151 59,-134 11,-134"/>
<text text-anchor="start" x="14.5" y="-140.167" font-family="Times Roman,serif" font-size="10.00"> </text>
<text text-anchor="start" x="18.5" y="-140.167" font-family="Times Roman,serif" font-size="10.00">f6 :Field</text>
<polygon fill="none" stroke="black" points="11,-100 11,-134 59,-134 59,-100 11,-100"/>
<text text-anchor="start" x="22" y="-121.667" font-family="Times Roman,serif" font-size="10.00">x = 0</text>
<text text-anchor="start" x="22" y="-107.667" font-family="Times Roman,serif" font-size="10.00">y = 0</text>
</g>
<!-- f5&#45;&#45;f6 -->
<g id="edge10" class="edge"><title>f5&#45;&#45;f6</title>
<path fill="none" stroke="black" d="M35,-206.232C35,-190.58 35,-171.447 35,-155.791"/>
<text text-anchor="middle" x="39.2262" y="-161.854" font-family="Times Roman,serif" font-size="10.00">next</text>
<text text-anchor="middle" x="30.7738" y="-194.169" font-family="Times Roman,serif" font-size="10.00">prev</text>
</g>
<!-- f7 -->
<g id="node7" class="node"><title>f7</title>
<polygon fill="none" stroke="black" points="11,-38 11,-55 59,-55 59,-38 11,-38"/>
<text text-anchor="start" x="14.5" y="-44.1667" font-family="Times Roman,serif" font-size="10.00"> </text>
<text text-anchor="start" x="18.5" y="-44.1667" font-family="Times Roman,serif" font-size="10.00">f7 :Field</text>
<polygon fill="none" stroke="black" points="11,-4 11,-38 59,-38 59,-4 11,-4"/>
<text text-anchor="start" x="22" y="-25.6667" font-family="Times Roman,serif" font-size="10.00">x = 0</text>
<text text-anchor="start" x="22" y="-11.6667" font-family="Times Roman,serif" font-size="10.00">y = 0</text>
</g>
<!-- f6&#45;&#45;f7 -->
<g id="edge12" class="edge"><title>f6&#45;&#45;f7</title>
<path fill="none" stroke="black" d="M35,-96.4135C35,-84.734 35,-71.3401 35,-59.6541"/>
<text text-anchor="middle" x="39.2262" y="-65.7171" font-family="Times Roman,serif" font-size="10.00">next</text>
<text text-anchor="middle" x="30.7738" y="-84.3504" font-family="Times Roman,serif" font-size="10.00">prev</text>
</g>
<!-- p9 -->
<g id="node9" class="node"><title>p9</title>
<polygon fill="none" stroke="black" points="93,-258 93,-275 187,-275 187,-258 93,-258"/>
<text text-anchor="start" x="114" y="-264.167" font-family="Times Roman,serif" font-size="10.00"> </text>
<text text-anchor="start" x="118" y="-264.167" font-family="Times Roman,serif" font-size="10.00">p9 :Player</text>
<polygon fill="none" stroke="black" points="93,-196 93,-258 187,-258 187,-196 93,-196"/>
<text text-anchor="start" x="109.5" y="-245.667" font-family="Times Roman,serif" font-size="10.00">color = &quot;red&quot;</text>
<text text-anchor="start" x="98.5" y="-231.667" font-family="Times Roman,serif" font-size="10.00">name = &quot;Sabine&quot;</text>
<text text-anchor="start" x="127" y="-217.667" font-family="Times Roman,serif" font-size="10.00">x = 0</text>
<text text-anchor="start" x="127" y="-203.667" font-family="Times Roman,serif" font-size="10.00">y = 0</text>
</g>
<!-- p8&#45;&#45;p9 -->
<g id="edge22" class="edge"><title>p8&#45;&#45;p9</title>
<path fill="none" stroke="black" d="M137.941,-316.301C138.24,-304.641 138.574,-291.631 138.884,-279.537"/>
<text text-anchor="middle" x="142.876" y="-285.705" font-family="Times Roman,serif" font-size="10.00">player</text>
<text text-anchor="middle" x="133.949" y="-304.133" font-family="Times Roman,serif" font-size="10.00">pawns</text>
</g>
<!-- f10&#45;&#45;p11 -->
<g id="edge2" class="edge"><title>f10&#45;&#45;p11</title>
<path fill="none" stroke="black" d="M259.777,-426.434C263.599,-414.349 267.709,-401.353 271.393,-389.704"/>
<text text-anchor="middle" x="272.69" y="-396.619" font-family="Times Roman,serif" font-size="10.00">pawns</text>
<text text-anchor="middle" x="258.481" y="-413.518" font-family="Times Roman,serif" font-size="10.00">pos</text>
</g>
</g>
</svg>
