<?xml version="1.0" encoding="UTF-8" standalone="no"?>
<!DOCTYPE svg PUBLIC "-//W3C//DTD SVG 1.1//EN"
 "http://www.w3.org/Graphics/SVG/1.1/DTD/svg11.dtd">
<!-- Generated by graphviz version 2.28.0 (20110507.0327)
 -->
<!-- Title: ObjectDiagram Pages: 1 -->
<svg width="481pt" height="844pt"
 viewBox="0.00 0.00 481.16 844.00" xmlns="http://www.w3.org/2000/svg" xmlns:xlink="http://www.w3.org/1999/xlink">
<g id="graph1" class="graph" transform="scale(1 1) rotate(0) translate(4 840)">
<title>ObjectDiagram</title>
<polygon fill="white" stroke="white" points="-4,5 -4,-840 478.161,-840 478.161,5 -4,5"/>
<g id="graph2" class="cluster"><title>cluster_n11</title>
<polygon fill="none" stroke="grey" points="8,-439 8,-548 123,-548 123,-439 8,-439"/>
<image xlink:href="forbiddensign.svg" width="30px" height="30px" preserveAspectRatio="xMinYMin meet" x="21" y="-539"/>
<text text-anchor="start" x="57.5" y="-520.8" font-family="Times New Roman,serif" font-size="14.00">NAC n11</text>
</g>
<!-- p1 -->
<g id="node1" class="node"><title>p1</title>
<polygon fill="aliceblue" stroke="aliceblue" points="301.5,-794.5 301.5,-831.5 360.5,-831.5 360.5,-794.5 301.5,-794.5"/>
<polygon fill="none" stroke="black" points="302,-814 302,-831 361,-831 361,-814 302,-814"/>
<text text-anchor="start" x="305.5" y="-820.5" font-family="Times New Roman,serif" font-size="10.00"> </text>
<text text-anchor="start" x="308.5" y="-820.5" font-family="Times New Roman,serif" font-size="10.00"> p1 :PawnPO </text>
<polygon fill="none" stroke="black" points="302,-794 302,-814 361,-814 361,-794 302,-794"/>
<text text-anchor="start" x="329" y="-802" font-family="Times New Roman,serif" font-size="10.00"> &#160;</text>
</g>
<!-- p3 -->
<g id="node2" class="node"><title>p3</title>
<polygon fill="aliceblue" stroke="aliceblue" points="194.5,-698.5 194.5,-735.5 247.5,-735.5 247.5,-698.5 194.5,-698.5"/>
<polygon fill="none" stroke="black" points="195,-718 195,-735 248,-735 248,-718 195,-718"/>
<text text-anchor="start" x="198.5" y="-724.5" font-family="Times New Roman,serif" font-size="10.00"> </text>
<text text-anchor="start" x="201.5" y="-724.5" font-family="Times New Roman,serif" font-size="10.00"> p3 :PlayerPO </text>
<polygon fill="none" stroke="black" points="195,-698 195,-718 248,-718 248,-698 195,-698"/>
<text text-anchor="start" x="219" y="-706" font-family="Times New Roman,serif" font-size="10.00"> &#160;</text>
</g>
<!-- p1&#45;&#45;p3 -->
<g id="edge15" class="edge"><title>p1&#45;&#45;p3</title>
<path fill="none" stroke="black" d="M305.764,-790.435C288.004,-775.258 264.318,-755.017 246.5,-739.791"/>
<text text-anchor="middle" x="256.135" y="-739.966" font-family="Times New Roman,serif" font-size="10.00">player</text>
</g>
<!-- f7 -->
<g id="node4" class="node"><title>f7</title>
<polygon fill="aliceblue" stroke="aliceblue" points="378.5,-581.5 378.5,-618.5 445.5,-618.5 445.5,-581.5 378.5,-581.5"/>
<polygon fill="none" stroke="black" points="379,-601 379,-618 446,-618 446,-601 379,-601"/>
<text text-anchor="start" x="386.5" y="-607.5" font-family="Times New Roman,serif" font-size="10.00"> </text>
<text text-anchor="start" x="389.5" y="-607.5" font-family="Times New Roman,serif" font-size="10.00"> f7 :FieldPO </text>
<polygon fill="none" stroke="black" points="379,-581 379,-601 446,-601 446,-581 379,-581"/>
<text text-anchor="start" x="384.5" y="-589" font-family="Times New Roman,serif" font-size="10.00"> kind == base </text>
</g>
<!-- p1&#45;&#45;f7 -->
<g id="edge19" class="edge"><title>p1&#45;&#45;f7</title>
<path fill="none" stroke="black" d="M354.961,-790.38C364.777,-780.259 375.367,-767.474 382,-754 403.339,-710.651 409.506,-653.368 411.284,-622.658"/>
<text text-anchor="middle" x="414.887" y="-629.486" font-family="Times New Roman,serif" font-size="10.00">pos</text>
</g>
<!-- p2 -->
<g id="node8" class="node"><title>p2</title>
<polygon fill="none" stroke="black" points="297,-732 297,-749 365,-749 365,-732 297,-732"/>
<text text-anchor="start" x="311" y="-738.5" font-family="Times New Roman,serif" font-size="10.00"> </text>
<text text-anchor="start" x="314" y="-738.5" font-family="Times New Roman,serif" font-size="10.00">p2 :Pawn</text>
<polygon fill="none" stroke="black" points="297,-684 297,-732 365,-732 365,-684 297,-684"/>
<text text-anchor="start" x="302.5" y="-720" font-family="Times New Roman,serif" font-size="10.00">color = &quot;blue&quot;</text>
<text text-anchor="start" x="321.5" y="-706" font-family="Times New Roman,serif" font-size="10.00">x = 0</text>
<text text-anchor="start" x="321" y="-692" font-family="Times New Roman,serif" font-size="10.00">y = 0</text>
</g>
<!-- p1&#45;&#45;p2 -->
<g id="edge3" class="edge"><title>p1&#45;&#45;p2</title>
<path fill="none" stroke="black" stroke-dasharray="1,5" d="M331,-790.198C331,-779.351 331,-765.962 331,-753.671"/>
<text text-anchor="middle" x="335.226" y="-760.234" font-family="Times New Roman,serif" font-size="10.00">match</text>
</g>
<!-- d5 -->
<g id="node3" class="node"><title>d5</title>
<polygon fill="aliceblue" stroke="aliceblue" points="193,-581.5 193,-618.5 241,-618.5 241,-581.5 193,-581.5"/>
<polygon fill="none" stroke="black" points="193,-601 193,-618 241,-618 241,-601 193,-601"/>
<text text-anchor="start" x="196.5" y="-607.5" font-family="Times New Roman,serif" font-size="10.00"> </text>
<text text-anchor="start" x="199.5" y="-607.5" font-family="Times New Roman,serif" font-size="10.00"> d5 :DicePO </text>
<polygon fill="none" stroke="black" points="193,-581 193,-601 241,-601 241,-581 193,-581"/>
<text text-anchor="start" x="200" y="-589" font-family="Times New Roman,serif" font-size="10.00"> value == 6 </text>
</g>
<!-- p3&#45;&#45;d5 -->
<g id="edge17" class="edge"><title>p3&#45;&#45;d5</title>
<path fill="none" stroke="black" d="M220.248,-694.369C219.532,-673.809 218.463,-643.062 217.749,-622.534"/>
<text text-anchor="middle" x="222.288" y="-628.944" font-family="Times New Roman,serif" font-size="10.00">dice</text>
</g>
<!-- p3&#45;&#45;f7 -->
<g id="edge21" class="edge"><title>p3&#45;&#45;f7</title>
<path fill="none" stroke="black" d="M254.573,-694.483C262.773,-689.517 271.605,-684.403 280,-680 314.888,-661.702 327.609,-664.905 361,-644 370.816,-637.854 380.746,-629.949 389.202,-622.596"/>
<text text-anchor="middle" x="385.09" y="-629.211" font-family="Times New Roman,serif" font-size="10.00">base</text>
</g>
<!-- f9 -->
<g id="node5" class="node"><title>f9</title>
<polygon fill="aliceblue" stroke="aliceblue" points="99.5,-581.5 99.5,-618.5 158.5,-618.5 158.5,-581.5 99.5,-581.5"/>
<polygon fill="none" stroke="black" points="100,-601 100,-618 159,-618 159,-601 100,-601"/>
<text text-anchor="start" x="103.5" y="-607.5" font-family="Times New Roman,serif" font-size="10.00"> </text>
<text text-anchor="start" x="106.5" y="-607.5" font-family="Times New Roman,serif" font-size="10.00"> f9 :FieldPO </text>
<polygon fill="none" stroke="black" points="100,-581 100,-601 159,-601 159,-581 100,-581"/>
<text text-anchor="start" x="127" y="-589" font-family="Times New Roman,serif" font-size="10.00"> &#160;</text>
</g>
<!-- p3&#45;&#45;f9 -->
<g id="edge23" class="edge"><title>p3&#45;&#45;f9</title>
<path fill="none" stroke="black" d="M203.696,-694.369C187.247,-673.809 162.649,-643.062 146.227,-622.534"/>
<text text-anchor="middle" x="155.189" y="-624.471" font-family="Times New Roman,serif" font-size="10.00">start</text>
</g>
<!-- p4 -->
<g id="node9" class="node"><title>p4</title>
<polygon fill="none" stroke="black" points="276,-622 276,-639 345,-639 345,-622 276,-622"/>
<text text-anchor="start" x="289" y="-628.5" font-family="Times New Roman,serif" font-size="10.00"> </text>
<text text-anchor="start" x="292" y="-628.5" font-family="Times New Roman,serif" font-size="10.00">p4 :Player</text>
<polygon fill="none" stroke="black" points="276,-560 276,-622 345,-622 345,-560 276,-560"/>
<text text-anchor="start" x="282" y="-610" font-family="Times New Roman,serif" font-size="10.00">color = &quot;blue&quot;</text>
<text text-anchor="start" x="281.5" y="-596" font-family="Times New Roman,serif" font-size="10.00">name = &quot;Tom&quot;</text>
<text text-anchor="start" x="301" y="-582" font-family="Times New Roman,serif" font-size="10.00">x = 0</text>
<text text-anchor="start" x="300.5" y="-568" font-family="Times New Roman,serif" font-size="10.00">y = 0</text>
</g>
<!-- p3&#45;&#45;p4 -->
<g id="edge5" class="edge"><title>p3&#45;&#45;p4</title>
<path fill="none" stroke="black" stroke-dasharray="1,5" d="M237.74,-694.369C248.818,-680.055 263.717,-660.804 277.109,-643.5"/>
<text text-anchor="middle" x="274.904" y="-650.754" font-family="Times New Roman,serif" font-size="10.00">match</text>
</g>
<!-- d6 -->
<g id="node10" class="node"><title>d6</title>
<polygon fill="none" stroke="black" points="257,-471 257,-488 305,-488 305,-471 257,-471"/>
<text text-anchor="start" x="263" y="-477.5" font-family="Times New Roman,serif" font-size="10.00"> </text>
<text text-anchor="start" x="266" y="-477.5" font-family="Times New Roman,serif" font-size="10.00">d6 :Dice</text>
<polygon fill="none" stroke="black" points="257,-451 257,-471 305,-471 305,-451 257,-451"/>
<text text-anchor="start" x="262.5" y="-459" font-family="Times New Roman,serif" font-size="10.00">value = 6</text>
</g>
<!-- d5&#45;&#45;d6 -->
<g id="edge7" class="edge"><title>d5&#45;&#45;d6</title>
<path fill="none" stroke="black" stroke-dasharray="1,5" d="M227.857,-577.287C239.626,-553.749 258.3,-516.399 270.09,-492.82"/>
<text text-anchor="middle" x="269.817" y="-500.316" font-family="Times New Roman,serif" font-size="10.00">match</text>
</g>
<!-- f8 -->
<g id="node18" class="node"><title>f8</title>
<polygon fill="none" stroke="black" points="378,-492 378,-509 446,-509 446,-492 378,-492"/>
<text text-anchor="start" x="394.5" y="-498.5" font-family="Times New Roman,serif" font-size="10.00"> </text>
<text text-anchor="start" x="397.5" y="-498.5" font-family="Times New Roman,serif" font-size="10.00">f8 :Field</text>
<polygon fill="none" stroke="black" points="378,-430 378,-492 446,-492 446,-430 378,-430"/>
<text text-anchor="start" x="383.5" y="-480" font-family="Times New Roman,serif" font-size="10.00">color = &quot;blue&quot;</text>
<text text-anchor="start" x="384.5" y="-466" font-family="Times New Roman,serif" font-size="10.00">kind = &quot;base&quot;</text>
<text text-anchor="start" x="402.5" y="-452" font-family="Times New Roman,serif" font-size="10.00">x = 0</text>
<text text-anchor="start" x="402" y="-438" font-family="Times New Roman,serif" font-size="10.00">y = 0</text>
</g>
<!-- f7&#45;&#45;f8 -->
<g id="edge9" class="edge"><title>f7&#45;&#45;f8</title>
<path fill="none" stroke="black" stroke-dasharray="1,5" d="M412,-577.287C412,-559.883 412,-534.928 412,-513.572"/>
<text text-anchor="middle" x="416.226" y="-520.135" font-family="Times New Roman,serif" font-size="10.00">match</text>
</g>
<!-- p12 -->
<g id="node7" class="node"><title>p12</title>
<polygon fill="aliceblue" stroke="aliceblue" points="49.5,-451.5 49.5,-488.5 104.5,-488.5 104.5,-451.5 49.5,-451.5"/>
<polygon fill="none" stroke="black" points="50,-471 50,-488 105,-488 105,-471 50,-471"/>
<text text-anchor="start" x="53.5" y="-477.5" font-family="Times New Roman,serif" font-size="10.00"> </text>
<text text-anchor="start" x="56.5" y="-477.5" font-family="Times New Roman,serif" font-size="10.00"> p12 :PawnPO </text>
<polygon fill="none" stroke="black" points="50,-451 50,-471 105,-471 105,-451 50,-451"/>
<text text-anchor="start" x="75" y="-459" font-family="Times New Roman,serif" font-size="10.00"> &#160;</text>
</g>
<!-- f9&#45;&#45;p12 -->
<g id="edge25" class="edge"><title>f9&#45;&#45;p12</title>
<path fill="none" stroke="black" d="M120.179,-577.287C110.617,-553.749 95.4434,-516.399 85.8644,-492.82"/>
<text text-anchor="middle" x="93.1909" y="-497.126" font-family="Times New Roman,serif" font-size="10.00">pawns</text>
</g>
<!-- f10 -->
<g id="node11" class="node"><title>f10</title>
<polygon fill="none" stroke="black" points="140,-492 140,-509 208,-509 208,-492 140,-492"/>
<text text-anchor="start" x="154" y="-498.5" font-family="Times New Roman,serif" font-size="10.00"> </text>
<text text-anchor="start" x="157" y="-498.5" font-family="Times New Roman,serif" font-size="10.00">f10 :Field</text>
<polygon fill="none" stroke="black" points="140,-430 140,-492 208,-492 208,-430 140,-430"/>
<text text-anchor="start" x="145.5" y="-480" font-family="Times New Roman,serif" font-size="10.00">color = &quot;blue&quot;</text>
<text text-anchor="start" x="146.5" y="-466" font-family="Times New Roman,serif" font-size="10.00">kind = &quot;start&quot;</text>
<text text-anchor="start" x="164.5" y="-452" font-family="Times New Roman,serif" font-size="10.00">x = 0</text>
<text text-anchor="start" x="164" y="-438" font-family="Times New Roman,serif" font-size="10.00">y = 0</text>
</g>
<!-- f9&#45;&#45;f10 -->
<g id="edge11" class="edge"><title>f9&#45;&#45;f10</title>
<path fill="none" stroke="black" stroke-dasharray="1,5" d="M136.634,-577.287C142.752,-559.883 151.525,-534.928 159.033,-513.572"/>
<text text-anchor="middle" x="160.014" y="-521.024" font-family="Times New Roman,serif" font-size="10.00">match</text>
</g>
<!-- p12&#45;&#45;p3 -->
<g id="edge27" class="edge"><title>p12&#45;&#45;p3</title>
<path fill="none" stroke="black" d="M71.1172,-492.678C62.9875,-527.544 52.4313,-596.929 82,-644 105.058,-680.706 153.342,-699.623 186.467,-708.668"/>
<text text-anchor="middle" x="176.583" y="-707.689" font-family="Times New Roman,serif" font-size="10.00">player</text>
</g>
<!-- p13 -->
<g id="node16" class="node"><title>p13</title>
<polygon fill="none" stroke="black" points="46,-368 46,-385 109,-385 109,-368 46,-368"/>
<text text-anchor="start" x="55.5" y="-374.5" font-family="Times New Roman,serif" font-size="10.00"> </text>
<text text-anchor="start" x="58.5" y="-374.5" font-family="Times New Roman,serif" font-size="10.00">p13 :Pawn</text>
<polygon fill="none" stroke="black" points="46,-320 46,-368 109,-368 109,-320 46,-320"/>
<text text-anchor="start" x="51.5" y="-356" font-family="Times New Roman,serif" font-size="10.00">color = &quot;red&quot;</text>
<text text-anchor="start" x="68" y="-342" font-family="Times New Roman,serif" font-size="10.00">x = 0</text>
<text text-anchor="start" x="67.5" y="-328" font-family="Times New Roman,serif" font-size="10.00">y = 0</text>
</g>
<!-- p12&#45;&#45;p13 -->
<g id="edge13" class="edge"><title>p12&#45;&#45;p13</title>
<path fill="none" stroke="black" stroke-dasharray="1,5" d="M77,-447.369C77,-431.103 77,-408.461 77,-389.548"/>
<text text-anchor="middle" x="81.2262" y="-396.111" font-family="Times New Roman,serif" font-size="10.00">match</text>
</g>
<!-- p2&#45;&#45;p4 -->
<g id="edge43" class="edge"><title>p2&#45;&#45;p4</title>
<path fill="none" stroke="black" d="M324.471,-680.244C322.352,-668.639 319.979,-655.649 317.779,-643.597"/>
<text text-anchor="middle" x="323.564" y="-649.254" font-family="Times New Roman,serif" font-size="10.00">player</text>
<text text-anchor="middle" x="318.685" y="-669.587" font-family="Times New Roman,serif" font-size="10.00">pawns</text>
</g>
<!-- p2&#45;&#45;f8 -->
<g id="edge41" class="edge"><title>p2&#45;&#45;f8</title>
<path fill="none" stroke="black" d="M373.04,-705.291C403.632,-695.056 442.909,-676.277 462,-644 486.113,-603.232 464.175,-550.128 442.246,-513.567"/>
<text text-anchor="middle" x="450.411" y="-516.84" font-family="Times New Roman,serif" font-size="10.00">pos</text>
<text text-anchor="middle" x="380.173" y="-695.782" font-family="Times New Roman,serif" font-size="10.00">pawns</text>
</g>
<!-- p4&#45;&#45;d6 -->
<g id="edge45" class="edge"><title>p4&#45;&#45;d6</title>
<path fill="none" stroke="black" d="M300.343,-556.378C295.499,-534.997 289.84,-510.019 285.899,-492.625"/>
<text text-anchor="middle" x="292.024" y="-498.03" font-family="Times New Roman,serif" font-size="10.00">dice</text>
<text text-anchor="middle" x="294.219" y="-545.973" font-family="Times New Roman,serif" font-size="10.00">player</text>
</g>
<!-- p4&#45;&#45;f10 -->
<g id="edge47" class="edge"><title>p4&#45;&#45;f10</title>
<path fill="none" stroke="black" d="M267.554,-562.382C264.389,-560.126 261.187,-557.974 258,-556 250.558,-551.39 247.021,-553.23 240,-548 227.151,-538.429 215.097,-525.933 204.896,-513.801"/>
<text text-anchor="middle" x="213.996" y="-515.448" font-family="Times New Roman,serif" font-size="10.00">start</text>
<text text-anchor="middle" x="257.716" y="-558.091" font-family="Times New Roman,serif" font-size="10.00">starter</text>
</g>
<!-- p4&#45;&#45;f8 -->
<g id="edge49" class="edge"><title>p4&#45;&#45;f8</title>
<path fill="none" stroke="black" d="M343.965,-556.378C354.86,-542.706 366.927,-527.563 377.836,-513.872"/>
<text text-anchor="middle" x="375.493" y="-521.094" font-family="Times New Roman,serif" font-size="10.00">base</text>
<text text-anchor="middle" x="346.308" y="-544.156" font-family="Times New Roman,serif" font-size="10.00">baseowner</text>
</g>
<!-- f14 -->
<g id="node12" class="node"><title>f14</title>
<polygon fill="none" stroke="black" points="151,-361 151,-378 198,-378 198,-361 151,-361"/>
<text text-anchor="start" x="154.5" y="-367.5" font-family="Times New Roman,serif" font-size="10.00"> </text>
<text text-anchor="start" x="157.5" y="-367.5" font-family="Times New Roman,serif" font-size="10.00">f14 :Field</text>
<polygon fill="none" stroke="black" points="151,-327 151,-361 198,-361 198,-327 151,-327"/>
<text text-anchor="start" x="165" y="-349" font-family="Times New Roman,serif" font-size="10.00">x = 0</text>
<text text-anchor="start" x="164.5" y="-335" font-family="Times New Roman,serif" font-size="10.00">y = 0</text>
</g>
<!-- f10&#45;&#45;f14 -->
<g id="edge29" class="edge"><title>f10&#45;&#45;f14</title>
<path fill="none" stroke="black" d="M174,-426.178C174,-411.618 174,-395.713 174,-382.547"/>
<text text-anchor="middle" x="178.226" y="-389.11" font-family="Times New Roman,serif" font-size="10.00">next</text>
<text text-anchor="middle" x="169.774" y="-414.615" font-family="Times New Roman,serif" font-size="10.00">prev</text>
</g>
<!-- f10&#45;&#45;p13 -->
<g id="edge31" class="edge"><title>f10&#45;&#45;p13</title>
<path fill="none" stroke="black" d="M137.881,-426.178C127.754,-414.173 116.856,-401.252 107.118,-389.707"/>
<text text-anchor="middle" x="116.192" y="-391.41" font-family="Times New Roman,serif" font-size="10.00">pawns</text>
<text text-anchor="middle" x="128.807" y="-419.475" font-family="Times New Roman,serif" font-size="10.00">pos</text>
</g>
<!-- f15 -->
<g id="node13" class="node"><title>f15</title>
<polygon fill="none" stroke="black" points="151,-244 151,-261 198,-261 198,-244 151,-244"/>
<text text-anchor="start" x="154.5" y="-250.5" font-family="Times New Roman,serif" font-size="10.00"> </text>
<text text-anchor="start" x="157.5" y="-250.5" font-family="Times New Roman,serif" font-size="10.00">f15 :Field</text>
<polygon fill="none" stroke="black" points="151,-210 151,-244 198,-244 198,-210 151,-210"/>
<text text-anchor="start" x="165" y="-232" font-family="Times New Roman,serif" font-size="10.00">x = 0</text>
<text text-anchor="start" x="164.5" y="-218" font-family="Times New Roman,serif" font-size="10.00">y = 0</text>
</g>
<!-- f14&#45;&#45;f15 -->
<g id="edge33" class="edge"><title>f14&#45;&#45;f15</title>
<path fill="none" stroke="black" d="M174,-323.277C174,-305.714 174,-283.324 174,-265.755"/>
<text text-anchor="middle" x="178.226" y="-272.318" font-family="Times New Roman,serif" font-size="10.00">next</text>
<text text-anchor="middle" x="169.774" y="-311.714" font-family="Times New Roman,serif" font-size="10.00">prev</text>
</g>
<!-- f16 -->
<g id="node14" class="node"><title>f16</title>
<polygon fill="none" stroke="black" points="151,-134 151,-151 198,-151 198,-134 151,-134"/>
<text text-anchor="start" x="154.5" y="-140.5" font-family="Times New Roman,serif" font-size="10.00"> </text>
<text text-anchor="start" x="157.5" y="-140.5" font-family="Times New Roman,serif" font-size="10.00">f16 :Field</text>
<polygon fill="none" stroke="black" points="151,-100 151,-134 198,-134 198,-100 151,-100"/>
<text text-anchor="start" x="165" y="-122" font-family="Times New Roman,serif" font-size="10.00">x = 0</text>
<text text-anchor="start" x="164.5" y="-108" font-family="Times New Roman,serif" font-size="10.00">y = 0</text>
</g>
<!-- f15&#45;&#45;f16 -->
<g id="edge35" class="edge"><title>f15&#45;&#45;f16</title>
<path fill="none" stroke="black" d="M174,-206.342C174,-190.719 174,-171.436 174,-155.792"/>
<text text-anchor="middle" x="178.226" y="-162.355" font-family="Times New Roman,serif" font-size="10.00">next</text>
<text text-anchor="middle" x="169.774" y="-194.778" font-family="Times New Roman,serif" font-size="10.00">prev</text>
</g>
<!-- f17 -->
<g id="node15" class="node"><title>f17</title>
<polygon fill="none" stroke="black" points="151,-38 151,-55 198,-55 198,-38 151,-38"/>
<text text-anchor="start" x="154.5" y="-44.5" font-family="Times New Roman,serif" font-size="10.00"> </text>
<text text-anchor="start" x="157.5" y="-44.5" font-family="Times New Roman,serif" font-size="10.00">f17 :Field</text>
<polygon fill="none" stroke="black" points="151,-4 151,-38 198,-38 198,-4 151,-4"/>
<text text-anchor="start" x="165" y="-26" font-family="Times New Roman,serif" font-size="10.00">x = 0</text>
<text text-anchor="start" x="164.5" y="-12" font-family="Times New Roman,serif" font-size="10.00">y = 0</text>
</g>
<!-- f16&#45;&#45;f17 -->
<g id="edge37" class="edge"><title>f16&#45;&#45;f17</title>
<path fill="none" stroke="black" d="M174,-96.2861C174,-84.624 174,-71.1822 174,-59.538"/>
<text text-anchor="middle" x="178.226" y="-66.1011" font-family="Times New Roman,serif" font-size="10.00">next</text>
<text text-anchor="middle" x="169.774" y="-84.7231" font-family="Times New Roman,serif" font-size="10.00">prev</text>
</g>
<!-- p18 -->
<g id="node17" class="node"><title>p18</title>
<polygon fill="none" stroke="black" points="38,-258 38,-275 116,-275 116,-258 38,-258"/>
<text text-anchor="start" x="53.5" y="-264.5" font-family="Times New Roman,serif" font-size="10.00"> </text>
<text text-anchor="start" x="56.5" y="-264.5" font-family="Times New Roman,serif" font-size="10.00">p18 :Player</text>
<polygon fill="none" stroke="black" points="38,-196 38,-258 116,-258 116,-196 38,-196"/>
<text text-anchor="start" x="51" y="-246" font-family="Times New Roman,serif" font-size="10.00">color = &quot;red&quot;</text>
<text text-anchor="start" x="43.5" y="-232" font-family="Times New Roman,serif" font-size="10.00">name = &quot;Sabine&quot;</text>
<text text-anchor="start" x="67.5" y="-218" font-family="Times New Roman,serif" font-size="10.00">x = 0</text>
<text text-anchor="start" x="67" y="-204" font-family="Times New Roman,serif" font-size="10.00">y = 0</text>
</g>
<!-- p13&#45;&#45;p18 -->
<g id="edge39" class="edge"><title>p13&#45;&#45;p18</title>
<path fill="none" stroke="black" d="M77,-316.244C77,-304.639 77,-291.649 77,-279.597"/>
<text text-anchor="middle" x="81.2262" y="-286.16" font-family="Times New Roman,serif" font-size="10.00">player</text>
<text text-anchor="middle" x="72.7738" y="-304.681" font-family="Times New Roman,serif" font-size="10.00">pawns</text>
</g>
</g>
</svg>
