<?xml version="1.0" encoding="UTF-8" standalone="no"?>
<!DOCTYPE svg PUBLIC "-//W3C//DTD SVG 1.1//EN"
 "http://www.w3.org/Graphics/SVG/1.1/DTD/svg11.dtd">
<!-- Generated by graphviz version 2.28.0 (20110507.0327)
 -->
<!-- Title: ObjectDiagram Pages: 1 -->
<svg width="913pt" height="746pt"
 viewBox="0.00 0.00 913.00 746.00" xmlns="http://www.w3.org/2000/svg" xmlns:xlink="http://www.w3.org/1999/xlink">
<g id="graph1" class="graph" transform="scale(1 1) rotate(0) translate(4 742)">
<title>ObjectDiagram</title>
<polygon fill="white" stroke="white" points="-4,5 -4,-742 910,-742 910,5 -4,5"/>
<!-- l1 -->
<g id="node1" class="node"><title>l1</title>
<a xlink:href="../examples/org/sdmlib/examples/ludo/Ludo.java" xlink:title="&lt;TABLE&gt;">
<polygon fill="none" stroke="black" points="602,-711 602,-728 645,-728 645,-711 602,-711"/>
<text text-anchor="start" x="605.5" y="-717.5" font-family="Times New Roman,serif" font-size="10.00"> </text>
<text text-anchor="start" x="608.5" y="-717.5" font-family="Times New Roman,serif" font-size="10.00">l1 :Ludo</text>
</a>
</g>
<!-- p2 -->
<g id="node2" class="node"><title>p2</title>
<a xlink:href="../examples/org/sdmlib/examples/ludo/Player.java" xlink:title="&lt;TABLE&gt;">
<polygon fill="none" stroke="black" points="484,-644 484,-661 553,-661 553,-644 484,-644"/>
<text text-anchor="start" x="497" y="-650.5" font-family="Times New Roman,serif" font-size="10.00"> </text>
<text text-anchor="start" x="500" y="-650.5" font-family="Times New Roman,serif" font-size="10.00">p2 :Player</text>
</a>
<polygon fill="none" stroke="black" points="484,-582 484,-644 553,-644 553,-582 484,-582"/>
<text text-anchor="start" x="489" y="-632" font-family="Times New Roman,serif" font-size="10.00">color = &quot;blue&quot;</text>
<text text-anchor="start" x="489" y="-618" font-family="Times New Roman,serif" font-size="10.00">name = &quot;Tom&quot;</text>
<text text-anchor="start" x="489" y="-604" font-family="Times New Roman,serif" font-size="10.00">x = 0</text>
<text text-anchor="start" x="489" y="-590" font-family="Times New Roman,serif" font-size="10.00">y = 0</text>
</g>
<!-- l1&#45;&#45;p2 -->
<g id="edge2" class="edge"><title>l1&#45;&#45;p2</title>
<path fill="none" stroke="black" d="M604.228,-701.837C592.077,-690.727 575.745,-675.795 560.563,-661.915"/>
<text text-anchor="middle" x="570.104" y="-662.411" font-family="Times New Roman,serif" font-size="10.00">players</text>
<text text-anchor="middle" x="594.688" y="-696.341" font-family="Times New Roman,serif" font-size="10.00">game</text>
</g>
<!-- p11 -->
<g id="node11" class="node"><title>p11</title>
<a xlink:href="../examples/org/sdmlib/examples/ludo/Player.java" xlink:title="&lt;TABLE&gt;">
<polygon fill="none" stroke="black" points="626,-286 626,-303 704,-303 704,-286 626,-286"/>
<text text-anchor="start" x="641.5" y="-292.5" font-family="Times New Roman,serif" font-size="10.00"> </text>
<text text-anchor="start" x="644.5" y="-292.5" font-family="Times New Roman,serif" font-size="10.00">p11 :Player</text>
</a>
<polygon fill="none" stroke="black" points="626,-224 626,-286 704,-286 704,-224 626,-224"/>
<text text-anchor="start" x="631" y="-274" font-family="Times New Roman,serif" font-size="10.00">color = &quot;red&quot;</text>
<text text-anchor="start" x="631" y="-260" font-family="Times New Roman,serif" font-size="10.00">name = &quot;Sabine&quot;</text>
<text text-anchor="start" x="631" y="-246" font-family="Times New Roman,serif" font-size="10.00">x = 0</text>
<text text-anchor="start" x="631" y="-232" font-family="Times New Roman,serif" font-size="10.00">y = 0</text>
</g>
<!-- l1&#45;&#45;p11 -->
<g id="edge4" class="edge"><title>l1&#45;&#45;p11</title>
<path fill="none" stroke="black" d="M625.437,-701.736C631.838,-655.727 649.238,-526.284 658,-418 661.013,-380.762 662.827,-338.313 663.851,-307.59"/>
<text text-anchor="middle" x="667.761" y="-314.294" font-family="Times New Roman,serif" font-size="10.00">players</text>
<text text-anchor="middle" x="622.486" y="-689.681" font-family="Times New Roman,serif" font-size="10.00">game</text>
</g>
<!-- l3 -->
<g id="node3" class="node"><title>l3</title>
<a xlink:href="../examples/org/sdmlib/examples/ludo/LudoModel.java" xlink:title="&lt;TABLE&gt;">
<polygon fill="none" stroke="black" points="8,-499 8,-516 317,-516 317,-499 8,-499"/>
<text text-anchor="start" x="108" y="-505.5" font-family="Times New Roman,serif" font-size="10.00"> </text>
<text text-anchor="start" x="111" y="-505.5" font-family="Times New Roman,serif" font-size="10.00">l3 :LudoModel$LudoColor</text>
</a>
<polygon fill="none" stroke="black" points="8,-479 8,-499 317,-499 317,-479 8,-479"/>
<text text-anchor="start" x="13" y="-487" font-family="Times New Roman,serif" font-size="10.00">declaringClass = &quot;class org.sdmlib.examples.ludo.LudoModel$LudoColor&quot;</text>
</g>
<!-- p2&#45;&#45;l3 -->
<g id="edge6" class="edge"><title>p2&#45;&#45;l3</title>
<path fill="none" stroke="black" d="M475.412,-606.405C413.216,-585.091 297.115,-545.303 225.016,-520.595"/>
<text text-anchor="middle" x="234.959" y="-517.035" font-family="Times New Roman,serif" font-size="10.00">enumColor</text>
</g>
<!-- d4 -->
<g id="node4" class="node"><title>d4</title>
<a xlink:href="../examples/org/sdmlib/examples/ludo/Dice.java" xlink:title="&lt;TABLE&gt;">
<polygon fill="none" stroke="black" points="351,-499 351,-516 399,-516 399,-499 351,-499"/>
<text text-anchor="start" x="357" y="-505.5" font-family="Times New Roman,serif" font-size="10.00"> </text>
<text text-anchor="start" x="360" y="-505.5" font-family="Times New Roman,serif" font-size="10.00">d4 :Dice</text>
</a>
<polygon fill="none" stroke="black" points="351,-479 351,-499 399,-499 399,-479 351,-479"/>
<text text-anchor="start" x="356" y="-487" font-family="Times New Roman,serif" font-size="10.00">value = 6</text>
</g>
<!-- p2&#45;&#45;d4 -->
<g id="edge8" class="edge"><title>p2&#45;&#45;d4</title>
<path fill="none" stroke="black" d="M475.666,-590.461C456.867,-576.335 434.791,-558.956 416,-542 408.648,-535.366 401.045,-527.661 394.412,-520.621"/>
<text text-anchor="middle" x="403.713" y="-521.795" font-family="Times New Roman,serif" font-size="10.00">dice</text>
<text text-anchor="middle" x="465.888" y="-585.868" font-family="Times New Roman,serif" font-size="10.00">player</text>
</g>
<!-- f5 -->
<g id="node5" class="node"><title>f5</title>
<a xlink:href="../examples/org/sdmlib/examples/ludo/Field.java" xlink:title="&lt;TABLE&gt;">
<polygon fill="none" stroke="black" points="433,-520 433,-537 501,-537 501,-520 433,-520"/>
<text text-anchor="start" x="449.5" y="-526.5" font-family="Times New Roman,serif" font-size="10.00"> </text>
<text text-anchor="start" x="452.5" y="-526.5" font-family="Times New Roman,serif" font-size="10.00">f5 :Field</text>
</a>
<polygon fill="none" stroke="black" points="433,-458 433,-520 501,-520 501,-458 433,-458"/>
<text text-anchor="start" x="438" y="-508" font-family="Times New Roman,serif" font-size="10.00">color = &quot;blue&quot;</text>
<text text-anchor="start" x="438" y="-494" font-family="Times New Roman,serif" font-size="10.00">kind = &quot;start&quot;</text>
<text text-anchor="start" x="438" y="-480" font-family="Times New Roman,serif" font-size="10.00">x = 0</text>
<text text-anchor="start" x="438" y="-466" font-family="Times New Roman,serif" font-size="10.00">y = 0</text>
</g>
<!-- p2&#45;&#45;f5 -->
<g id="edge10" class="edge"><title>p2&#45;&#45;f5</title>
<path fill="none" stroke="black" d="M500.163,-578.33C495.222,-566.512 489.858,-553.681 484.913,-541.852"/>
<text text-anchor="middle" x="492.308" y="-546.084" font-family="Times New Roman,serif" font-size="10.00">start</text>
<text text-anchor="middle" x="492.768" y="-569.098" font-family="Times New Roman,serif" font-size="10.00">starter</text>
</g>
<!-- f14 -->
<g id="node14" class="node"><title>f14</title>
<a xlink:href="../examples/org/sdmlib/examples/ludo/Field.java" xlink:title="&lt;TABLE&gt;">
<polygon fill="none" stroke="black" points="535,-520 535,-537 603,-537 603,-520 535,-520"/>
<text text-anchor="start" x="549" y="-526.5" font-family="Times New Roman,serif" font-size="10.00"> </text>
<text text-anchor="start" x="552" y="-526.5" font-family="Times New Roman,serif" font-size="10.00">f14 :Field</text>
</a>
<polygon fill="none" stroke="black" points="535,-458 535,-520 603,-520 603,-458 535,-458"/>
<text text-anchor="start" x="540" y="-508" font-family="Times New Roman,serif" font-size="10.00">color = &quot;blue&quot;</text>
<text text-anchor="start" x="540" y="-494" font-family="Times New Roman,serif" font-size="10.00">kind = &quot;base&quot;</text>
<text text-anchor="start" x="540" y="-480" font-family="Times New Roman,serif" font-size="10.00">x = 0</text>
<text text-anchor="start" x="540" y="-466" font-family="Times New Roman,serif" font-size="10.00">y = 0</text>
</g>
<!-- p2&#45;&#45;f14 -->
<g id="edge12" class="edge"><title>p2&#45;&#45;f14</title>
<path fill="none" stroke="black" d="M535.837,-578.33C540.778,-566.512 546.142,-553.681 551.087,-541.852"/>
<text text-anchor="middle" x="551.49" y="-549.344" font-family="Times New Roman,serif" font-size="10.00">base</text>
<text text-anchor="middle" x="535.434" y="-565.838" font-family="Times New Roman,serif" font-size="10.00">baseowner</text>
</g>
<!-- p15 -->
<g id="node15" class="node"><title>p15</title>
<a xlink:href="../examples/org/sdmlib/examples/ludo/Pawn.java" xlink:title="&lt;TABLE&gt;">
<polygon fill="none" stroke="black" points="573,-396 573,-413 641,-413 641,-396 573,-396"/>
<text text-anchor="start" x="585" y="-402.5" font-family="Times New Roman,serif" font-size="10.00"> </text>
<text text-anchor="start" x="588" y="-402.5" font-family="Times New Roman,serif" font-size="10.00">p15 :Pawn</text>
</a>
<polygon fill="none" stroke="black" points="573,-348 573,-396 641,-396 641,-348 573,-348"/>
<text text-anchor="start" x="578" y="-384" font-family="Times New Roman,serif" font-size="10.00">color = &quot;blue&quot;</text>
<text text-anchor="start" x="578" y="-370" font-family="Times New Roman,serif" font-size="10.00">x = 0</text>
<text text-anchor="start" x="578" y="-356" font-family="Times New Roman,serif" font-size="10.00">y = 0</text>
</g>
<!-- p2&#45;&#45;p15 -->
<g id="edge14" class="edge"><title>p2&#45;&#45;p15</title>
<path fill="none" stroke="black" d="M560.32,-600.336C582.473,-587.028 607.525,-567.44 620,-542 639.264,-502.714 630.01,-451.437 619.972,-417.652"/>
<text text-anchor="middle" x="626.474" y="-422.749" font-family="Times New Roman,serif" font-size="10.00">pawns</text>
<text text-anchor="middle" x="565.782" y="-589.459" font-family="Times New Roman,serif" font-size="10.00">player</text>
</g>
<!-- f6 -->
<g id="node6" class="node"><title>f6</title>
<a xlink:href="../examples/org/sdmlib/examples/ludo/Field.java" xlink:title="&lt;TABLE&gt;">
<polygon fill="none" stroke="black" points="399,-389 399,-406 441,-406 441,-389 399,-389"/>
<text text-anchor="start" x="402.5" y="-395.5" font-family="Times New Roman,serif" font-size="10.00"> </text>
<text text-anchor="start" x="405.5" y="-395.5" font-family="Times New Roman,serif" font-size="10.00">f6 :Field</text>
</a>
<polygon fill="none" stroke="black" points="399,-355 399,-389 441,-389 441,-355 399,-355"/>
<text text-anchor="start" x="404" y="-377" font-family="Times New Roman,serif" font-size="10.00">x = 0</text>
<text text-anchor="start" x="404" y="-363" font-family="Times New Roman,serif" font-size="10.00">y = 0</text>
</g>
<!-- f5&#45;&#45;f6 -->
<g id="edge16" class="edge"><title>f5&#45;&#45;f6</title>
<path fill="none" stroke="black" d="M449.499,-454.178C443.548,-439.618 437.048,-423.713 431.667,-410.547"/>
<text text-anchor="middle" x="439.008" y="-414.838" font-family="Times New Roman,serif" font-size="10.00">next</text>
<text text-anchor="middle" x="442.158" y="-444.888" font-family="Times New Roman,serif" font-size="10.00">prev</text>
</g>
<!-- p10 -->
<g id="node10" class="node"><title>p10</title>
<a xlink:href="../examples/org/sdmlib/examples/ludo/Pawn.java" xlink:title="&lt;TABLE&gt;">
<polygon fill="none" stroke="black" points="476,-396 476,-413 539,-413 539,-396 476,-396"/>
<text text-anchor="start" x="485.5" y="-402.5" font-family="Times New Roman,serif" font-size="10.00"> </text>
<text text-anchor="start" x="488.5" y="-402.5" font-family="Times New Roman,serif" font-size="10.00">p10 :Pawn</text>
</a>
<polygon fill="none" stroke="black" points="476,-348 476,-396 539,-396 539,-348 476,-348"/>
<text text-anchor="start" x="481" y="-384" font-family="Times New Roman,serif" font-size="10.00">color = &quot;red&quot;</text>
<text text-anchor="start" x="481" y="-370" font-family="Times New Roman,serif" font-size="10.00">x = 0</text>
<text text-anchor="start" x="481" y="-356" font-family="Times New Roman,serif" font-size="10.00">y = 0</text>
</g>
<!-- f5&#45;&#45;p10 -->
<g id="edge18" class="edge"><title>f5&#45;&#45;p10</title>
<path fill="none" stroke="black" d="M481.895,-454.178C486.07,-442.173 490.564,-429.252 494.58,-417.707"/>
<text text-anchor="middle" x="495.594" y="-425.156" font-family="Times New Roman,serif" font-size="10.00">pawns</text>
<text text-anchor="middle" x="480.88" y="-441.73" font-family="Times New Roman,serif" font-size="10.00">pos</text>
</g>
<!-- f7 -->
<g id="node7" class="node"><title>f7</title>
<a xlink:href="../examples/org/sdmlib/examples/ludo/Field.java" xlink:title="&lt;TABLE&gt;">
<polygon fill="none" stroke="black" points="399,-272 399,-289 441,-289 441,-272 399,-272"/>
<text text-anchor="start" x="402.5" y="-278.5" font-family="Times New Roman,serif" font-size="10.00"> </text>
<text text-anchor="start" x="405.5" y="-278.5" font-family="Times New Roman,serif" font-size="10.00">f7 :Field</text>
</a>
<polygon fill="none" stroke="black" points="399,-238 399,-272 441,-272 441,-238 399,-238"/>
<text text-anchor="start" x="404" y="-260" font-family="Times New Roman,serif" font-size="10.00">x = 0</text>
<text text-anchor="start" x="404" y="-246" font-family="Times New Roman,serif" font-size="10.00">y = 0</text>
</g>
<!-- f6&#45;&#45;f7 -->
<g id="edge20" class="edge"><title>f6&#45;&#45;f7</title>
<path fill="none" stroke="black" d="M420,-351.277C420,-333.714 420,-311.324 420,-293.755"/>
<text text-anchor="middle" x="424.226" y="-300.318" font-family="Times New Roman,serif" font-size="10.00">next</text>
<text text-anchor="middle" x="415.774" y="-339.714" font-family="Times New Roman,serif" font-size="10.00">prev</text>
</g>
<!-- f8 -->
<g id="node8" class="node"><title>f8</title>
<a xlink:href="../examples/org/sdmlib/examples/ludo/Field.java" xlink:title="&lt;TABLE&gt;">
<polygon fill="none" stroke="black" points="399,-148 399,-165 441,-165 441,-148 399,-148"/>
<text text-anchor="start" x="402.5" y="-154.5" font-family="Times New Roman,serif" font-size="10.00"> </text>
<text text-anchor="start" x="405.5" y="-154.5" font-family="Times New Roman,serif" font-size="10.00">f8 :Field</text>
</a>
<polygon fill="none" stroke="black" points="399,-114 399,-148 441,-148 441,-114 399,-114"/>
<text text-anchor="start" x="404" y="-136" font-family="Times New Roman,serif" font-size="10.00">x = 0</text>
<text text-anchor="start" x="404" y="-122" font-family="Times New Roman,serif" font-size="10.00">y = 0</text>
</g>
<!-- f7&#45;&#45;f8 -->
<g id="edge22" class="edge"><title>f7&#45;&#45;f8</title>
<path fill="none" stroke="black" d="M420,-234.396C420,-214.958 420,-189.337 420,-169.847"/>
<text text-anchor="middle" x="424.226" y="-176.41" font-family="Times New Roman,serif" font-size="10.00">next</text>
<text text-anchor="middle" x="415.774" y="-222.833" font-family="Times New Roman,serif" font-size="10.00">prev</text>
</g>
<!-- f9 -->
<g id="node9" class="node"><title>f9</title>
<a xlink:href="../examples/org/sdmlib/examples/ludo/Field.java" xlink:title="&lt;TABLE&gt;">
<polygon fill="none" stroke="black" points="399,-38 399,-55 441,-55 441,-38 399,-38"/>
<text text-anchor="start" x="402.5" y="-44.5" font-family="Times New Roman,serif" font-size="10.00"> </text>
<text text-anchor="start" x="405.5" y="-44.5" font-family="Times New Roman,serif" font-size="10.00">f9 :Field</text>
</a>
<polygon fill="none" stroke="black" points="399,-4 399,-38 441,-38 441,-4 399,-4"/>
<text text-anchor="start" x="404" y="-26" font-family="Times New Roman,serif" font-size="10.00">x = 0</text>
<text text-anchor="start" x="404" y="-12" font-family="Times New Roman,serif" font-size="10.00">y = 0</text>
</g>
<!-- f8&#45;&#45;f9 -->
<g id="edge24" class="edge"><title>f8&#45;&#45;f9</title>
<path fill="none" stroke="black" d="M420,-110.342C420,-94.7187 420,-75.4361 420,-59.7924"/>
<text text-anchor="middle" x="424.226" y="-66.3555" font-family="Times New Roman,serif" font-size="10.00">next</text>
<text text-anchor="middle" x="415.774" y="-98.7784" font-family="Times New Roman,serif" font-size="10.00">prev</text>
</g>
<!-- p10&#45;&#45;p11 -->
<g id="edge26" class="edge"><title>p10&#45;&#45;p11</title>
<path fill="none" stroke="black" d="M546.298,-351.093C549.578,-348.691 552.845,-346.302 556,-344 576.201,-329.259 598.557,-313.04 617.738,-299.153"/>
<text text-anchor="middle" x="612.876" y="-305.391" font-family="Times New Roman,serif" font-size="10.00">player</text>
<text text-anchor="middle" x="551.114" y="-339.829" font-family="Times New Roman,serif" font-size="10.00">pawns</text>
</g>
<!-- l12 -->
<g id="node12" class="node"><title>l12</title>
<a xlink:href="../examples/org/sdmlib/examples/ludo/LudoModel.java" xlink:title="&lt;TABLE&gt;">
<polygon fill="none" stroke="black" points="488,-141 488,-158 797,-158 797,-141 488,-141"/>
<text text-anchor="start" x="585.5" y="-147.5" font-family="Times New Roman,serif" font-size="10.00"> </text>
<text text-anchor="start" x="588.5" y="-147.5" font-family="Times New Roman,serif" font-size="10.00">l12 :LudoModel$LudoColor</text>
</a>
<polygon fill="none" stroke="black" points="488,-121 488,-141 797,-141 797,-121 488,-121"/>
<text text-anchor="start" x="493" y="-129" font-family="Times New Roman,serif" font-size="10.00">declaringClass = &quot;class org.sdmlib.examples.ludo.LudoModel$LudoColor&quot;</text>
</g>
<!-- p11&#45;&#45;l12 -->
<g id="edge28" class="edge"><title>p11&#45;&#45;l12</title>
<path fill="none" stroke="black" d="M656.956,-220.33C653.277,-200.816 649.078,-178.542 646.067,-162.574"/>
<text text-anchor="middle" x="651.899" y="-168.197" font-family="Times New Roman,serif" font-size="10.00">enumColor</text>
</g>
<!-- f13 -->
<g id="node13" class="node"><title>f13</title>
<a xlink:href="../examples/org/sdmlib/examples/ludo/Field.java" xlink:title="&lt;TABLE&gt;">
<polygon fill="none" stroke="black" points="831,-162 831,-179 897,-179 897,-162 831,-162"/>
<text text-anchor="start" x="844" y="-168.5" font-family="Times New Roman,serif" font-size="10.00"> </text>
<text text-anchor="start" x="847" y="-168.5" font-family="Times New Roman,serif" font-size="10.00">f13 :Field</text>
</a>
<polygon fill="none" stroke="black" points="831,-100 831,-162 897,-162 897,-100 831,-100"/>
<text text-anchor="start" x="836" y="-150" font-family="Times New Roman,serif" font-size="10.00">color = &quot;red&quot;</text>
<text text-anchor="start" x="836" y="-136" font-family="Times New Roman,serif" font-size="10.00">kind = &quot;start&quot;</text>
<text text-anchor="start" x="836" y="-122" font-family="Times New Roman,serif" font-size="10.00">x = 0</text>
<text text-anchor="start" x="836" y="-108" font-family="Times New Roman,serif" font-size="10.00">y = 0</text>
</g>
<!-- p11&#45;&#45;f13 -->
<g id="edge30" class="edge"><title>p11&#45;&#45;f13</title>
<path fill="none" stroke="black" d="M712.12,-241.024C741.943,-226.354 780.808,-205.807 813,-184 816.26,-181.792 819.554,-179.411 822.815,-176.944"/>
<text text-anchor="middle" x="818.118" y="-183.272" font-family="Times New Roman,serif" font-size="10.00">start</text>
<text text-anchor="middle" x="718.355" y="-230.707" font-family="Times New Roman,serif" font-size="10.00">starter</text>
</g>
<!-- f14&#45;&#45;p15 -->
<g id="edge32" class="edge"><title>f14&#45;&#45;p15</title>
<path fill="none" stroke="black" d="M583.15,-454.178C587.117,-442.173 591.386,-429.252 595.201,-417.707"/>
<text text-anchor="middle" x="596.37" y="-425.139" font-family="Times New Roman,serif" font-size="10.00">pawns</text>
<text text-anchor="middle" x="581.981" y="-441.747" font-family="Times New Roman,serif" font-size="10.00">pos</text>
</g>
</g>
</svg>
