<?xml version="1.0" encoding="UTF-8" standalone="no"?>
<!DOCTYPE svg PUBLIC "-//W3C//DTD SVG 1.1//EN"
 "http://www.w3.org/Graphics/SVG/1.1/DTD/svg11.dtd">
<!-- Generated by graphviz version 2.28.0 (20110507.0327)
 -->
<!-- Title: ObjectDiagram Pages: 1 -->
<svg width="502pt" height="950pt"
 viewBox="0.00 0.00 502.42 950.00" xmlns="http://www.w3.org/2000/svg" xmlns:xlink="http://www.w3.org/1999/xlink">
<g id="graph1" class="graph" transform="scale(1 1) rotate(0) translate(4 946)">
<title>ObjectDiagram</title>
<polygon fill="white" stroke="white" points="-4,5 -4,-946 499.415,-946 499.415,5 -4,5"/>
<g id="graph2" class="cluster"><title>cluster_n11</title>
<polygon fill="none" stroke="grey" points="50,-589 50,-682 160,-682 160,-589 50,-589"/>
<text text-anchor="start" x="82" y="-662.8" font-family="Times New Roman,serif" font-size="14.00">NAC n11</text>
</g>
<!-- p1 -->
<g id="node1" class="node"><title>p1</title>
<polygon fill="deepskyblue" stroke="deepskyblue" points="253,-886.5 253,-937.5 325,-937.5 325,-886.5 253,-886.5"/>
<text text-anchor="start" x="286" y="-927.5" font-family="Arial" font-size="10.00">«bound»</text>
<polygon fill="none" stroke="black" points="253,-906 253,-922 325,-922 325,-906 253,-906"/>
<text text-anchor="start" x="256.5" y="-912" font-family="Arial" font-size="10.00"> </text>
<text text-anchor="start" x="260.5" y="-912" font-family="Arial" font-size="10.00"> p1 :PawnPO </text>
<polygon fill="none" stroke="black" points="253,-886 253,-906 325,-906 325,-886 253,-886"/>
<text text-anchor="start" x="285.5" y="-894" font-family="Arial" font-size="10.00"> &#160;</text>
</g>
<!-- p3 -->
<g id="node2" class="node"><title>p3</title>
<polygon fill="deepskyblue" stroke="deepskyblue" points="155,-804.5 155,-841.5 231,-841.5 231,-804.5 155,-804.5"/>
<polygon fill="none" stroke="black" points="155,-824 155,-841 231,-841 231,-824 155,-824"/>
<text text-anchor="start" x="158.5" y="-830.5" font-family="Arial" font-size="10.00"> </text>
<text text-anchor="start" x="162.5" y="-830.5" font-family="Arial" font-size="10.00"> p3 :PlayerPO </text>
<polygon fill="none" stroke="black" points="155,-804 155,-824 231,-824 231,-804 155,-804"/>
<text text-anchor="start" x="189.5" y="-812" font-family="Arial" font-size="10.00"> &#160;</text>
</g>
<!-- p1&#45;&#45;p3 -->
<g id="edge15" class="edge"><title>p1&#45;&#45;p3</title>
<path fill="none" stroke="black" d="M257.3,-882.272C244.083,-870.294 228.996,-856.621 216.758,-845.531"/>
<text text-anchor="middle" x="226.312" y="-845.985" font-family="Arial" font-size="10.00">player</text>
</g>
<!-- f7 -->
<g id="node4" class="node"><title>f7</title>
<polygon fill="deepskyblue" stroke="deepskyblue" points="248,-708.5 248,-745.5 330,-745.5 330,-708.5 248,-708.5"/>
<polygon fill="none" stroke="black" points="248,-728 248,-745 330,-745 330,-728 248,-728"/>
<text text-anchor="start" x="259.5" y="-734.5" font-family="Arial" font-size="10.00"> </text>
<text text-anchor="start" x="263.5" y="-734.5" font-family="Arial" font-size="10.00"> f7 :FieldPO </text>
<polygon fill="none" stroke="black" points="248,-708 248,-728 330,-728 330,-708 248,-708"/>
<text text-anchor="start" x="253.5" y="-716" font-family="Arial" font-size="10.00"> kind == &quot;base&quot; </text>
</g>
<!-- p1&#45;&#45;f7 -->
<g id="edge29" class="edge"><title>p1&#45;&#45;f7</title>
<path fill="none" stroke="red" d="M283.938,-882.406C281.525,-845.614 281.699,-782.521 284.461,-749.531"/>
<text text-anchor="middle" x="288.045" y="-756.366" font-family="Arial" font-size="10.00" fill="red">pos</text>
</g>
<!-- p1&#45;&#45;f7 -->
<g id="edge19" class="edge"><title>p1&#45;&#45;f7</title>
<path fill="none" stroke="black" d="M294.063,-882.406C296.475,-845.614 296.301,-782.521 293.539,-749.531"/>
<text text-anchor="middle" x="298.387" y="-755.777" font-family="Arial" font-size="10.00">pos</text>
</g>
<!-- f9 -->
<g id="node5" class="node"><title>f9</title>
<polygon fill="deepskyblue" stroke="deepskyblue" points="8,-708.5 8,-745.5 74,-745.5 74,-708.5 8,-708.5"/>
<polygon fill="none" stroke="black" points="8,-728 8,-745 74,-745 74,-728 8,-728"/>
<text text-anchor="start" x="11.5" y="-734.5" font-family="Arial" font-size="10.00"> </text>
<text text-anchor="start" x="15.5" y="-734.5" font-family="Arial" font-size="10.00"> f9 :FieldPO </text>
<polygon fill="none" stroke="black" points="8,-708 8,-728 74,-728 74,-708 8,-708"/>
<text text-anchor="start" x="37.5" y="-716" font-family="Arial" font-size="10.00"> &#160;</text>
</g>
<!-- p1&#45;&#45;f9 -->
<g id="edge31" class="edge"><title>p1&#45;&#45;f9</title>
<path fill="none" stroke="green" d="M244.773,-898.186C213.009,-887.567 170.281,-870.268 138,-846 101.964,-818.91 71.0135,-775.763 54.2852,-749.831"/>
<text text-anchor="middle" x="62.7971" y="-752.58" font-family="Arial" font-size="10.00" fill="green">pos</text>
</g>
<!-- p2 -->
<g id="node8" class="node"><title>p2</title>
<a xlink:href="../../SDMLib/src/org/sdmlib/examples/ludo/model/Pawn.java" xlink:title="&lt;TABLE&gt;">
<polygon fill="none" stroke="black" points="373,-824 373,-841 443,-841 443,-824 373,-824"/>
<text text-anchor="start" x="385.5" y="-830.5" font-family="Arial" font-size="10.00"> </text>
<text text-anchor="start" x="389.5" y="-830.5" font-family="Arial" font-size="10.00">p2 :Pawn</text>
</a>
<polygon fill="none" stroke="black" points="373,-804 373,-824 443,-824 443,-804 373,-804"/>
<text text-anchor="start" x="378" y="-812" font-family="Arial" font-size="10.00">color = &quot;blue&quot;</text>
</g>
<!-- p1&#45;&#45;p2 -->
<g id="edge3" class="edge"><title>p1&#45;&#45;p2</title>
<path fill="none" stroke="black" stroke-dasharray="1,5" d="M328.295,-882.272C344.678,-870.294 363.38,-856.621 378.55,-845.531"/>
<text text-anchor="middle" x="373.728" y="-851.791" font-family="Arial" font-size="10.00">match</text>
</g>
<!-- d5 -->
<g id="node3" class="node"><title>d5</title>
<polygon fill="deepskyblue" stroke="deepskyblue" points="146,-708.5 146,-745.5 214,-745.5 214,-708.5 146,-708.5"/>
<polygon fill="none" stroke="black" points="146,-728 146,-745 214,-745 214,-728 146,-728"/>
<text text-anchor="start" x="149.5" y="-734.5" font-family="Arial" font-size="10.00"> </text>
<text text-anchor="start" x="153.5" y="-734.5" font-family="Arial" font-size="10.00"> d5 :DicePO </text>
<polygon fill="none" stroke="black" points="146,-708 146,-728 214,-728 214,-708 146,-708"/>
<text text-anchor="start" x="154" y="-716" font-family="Arial" font-size="10.00"> value == 6 </text>
</g>
<!-- p3&#45;&#45;d5 -->
<g id="edge17" class="edge"><title>p3&#45;&#45;d5</title>
<path fill="none" stroke="black" d="M189.985,-800.198C187.885,-785.012 185.095,-764.844 182.999,-749.684"/>
<text text-anchor="middle" x="188.427" y="-755.582" font-family="Arial" font-size="10.00">dice</text>
</g>
<!-- p3&#45;&#45;f7 -->
<g id="edge21" class="edge"><title>p3&#45;&#45;f7</title>
<path fill="none" stroke="black" d="M215.266,-800.198C230.775,-785.012 251.373,-764.844 266.855,-749.684"/>
<text text-anchor="middle" x="263.336" y="-756.544" font-family="Arial" font-size="10.00">base</text>
</g>
<!-- p3&#45;&#45;f9 -->
<g id="edge23" class="edge"><title>p3&#45;&#45;f9</title>
<path fill="none" stroke="black" d="M155.937,-800.317C137.768,-789.566 115.626,-776.283 96,-764 88.648,-759.399 80.8138,-754.356 73.4317,-749.541"/>
<text text-anchor="middle" x="83.3325" y="-748.446" font-family="Arial" font-size="10.00">start</text>
</g>
<!-- p4 -->
<g id="node9" class="node"><title>p4</title>
<a xlink:href="../../SDMLib/src/org/sdmlib/examples/ludo/model/Player.java" xlink:title="&lt;TABLE&gt;">
<polygon fill="none" stroke="black" points="364,-742 364,-759 452,-759 452,-742 364,-742"/>
<text text-anchor="start" x="383.5" y="-748.5" font-family="Arial" font-size="10.00"> </text>
<text text-anchor="start" x="387.5" y="-748.5" font-family="Arial" font-size="10.00">p4 :Player</text>
</a>
<polygon fill="none" stroke="black" points="364,-694 364,-742 452,-742 452,-694 364,-694"/>
<text text-anchor="start" x="369" y="-730" font-family="Arial" font-size="10.00">color = &quot;blue&quot;</text>
<text text-anchor="start" x="369" y="-716" font-family="Arial" font-size="10.00">name = &quot;Tom&quot;</text>
<text text-anchor="start" x="369" y="-702" font-family="Arial" font-size="10.00">enumColor = blue</text>
</g>
<!-- p3&#45;&#45;p4 -->
<g id="edge5" class="edge"><title>p3&#45;&#45;p4</title>
<path fill="none" stroke="black" stroke-dasharray="1,5" d="M239.009,-807.014C270.078,-796.329 311.7,-780.907 347,-764 349.884,-762.619 352.811,-761.147 355.743,-759.617"/>
<text text-anchor="middle" x="349.651" y="-765.047" font-family="Arial" font-size="10.00">match</text>
</g>
<!-- d6 -->
<g id="node19" class="node"><title>d6</title>
<a xlink:href="../../SDMLib/src/org/sdmlib/examples/ludo/model/Dice.java" xlink:title="&lt;TABLE&gt;">
<polygon fill="none" stroke="black" points="179,-621 179,-638 230,-638 230,-621 179,-621"/>
<text text-anchor="start" x="184" y="-627.5" font-family="Arial" font-size="10.00"> </text>
<text text-anchor="start" x="188" y="-627.5" font-family="Arial" font-size="10.00">d6 :Dice</text>
</a>
<polygon fill="none" stroke="black" points="179,-601 179,-621 230,-621 230,-601 179,-601"/>
<text text-anchor="start" x="184" y="-609" font-family="Arial" font-size="10.00">value = 6</text>
</g>
<!-- d5&#45;&#45;d6 -->
<g id="edge7" class="edge"><title>d5&#45;&#45;d6</title>
<path fill="none" stroke="black" stroke-dasharray="1,5" d="M184.915,-704.498C189.029,-686.499 194.874,-660.926 199.009,-642.834"/>
<text text-anchor="middle" x="201.11" y="-650.111" font-family="Arial" font-size="10.00">match</text>
</g>
<!-- f8 -->
<g id="node20" class="node"><title>f8</title>
<a xlink:href="../../SDMLib/src/org/sdmlib/examples/ludo/model/Field.java" xlink:title="&lt;TABLE&gt;">
<polygon fill="none" stroke="black" points="264,-628 264,-645 334,-645 334,-628 264,-628"/>
<text text-anchor="start" x="279.5" y="-634.5" font-family="Arial" font-size="10.00"> </text>
<text text-anchor="start" x="283.5" y="-634.5" font-family="Arial" font-size="10.00">f8 :Field</text>
</a>
<polygon fill="none" stroke="black" points="264,-594 264,-628 334,-628 334,-594 264,-594"/>
<text text-anchor="start" x="269" y="-616" font-family="Arial" font-size="10.00">color = &quot;blue&quot;</text>
<text text-anchor="start" x="269" y="-602" font-family="Arial" font-size="10.00">kind = &quot;base&quot;</text>
</g>
<!-- f7&#45;&#45;f8 -->
<g id="edge9" class="edge"><title>f7&#45;&#45;f8</title>
<path fill="none" stroke="black" stroke-dasharray="1,5" d="M291.048,-704.498C292.556,-688.659 294.623,-666.954 296.272,-649.644"/>
<text text-anchor="middle" x="299.62" y="-656.567" font-family="Arial" font-size="10.00">match</text>
</g>
<!-- p12 -->
<g id="node7" class="node"><title>p12</title>
<polygon fill="deepskyblue" stroke="deepskyblue" points="66,-601.5 66,-638.5 144,-638.5 144,-601.5 66,-601.5"/>
<polygon fill="none" stroke="black" points="66,-621 66,-638 144,-638 144,-621 66,-621"/>
<text text-anchor="start" x="69.5" y="-627.5" font-family="Arial" font-size="10.00"> </text>
<text text-anchor="start" x="73.5" y="-627.5" font-family="Arial" font-size="10.00"> p12 :PawnPO </text>
<polygon fill="none" stroke="black" points="66,-601 66,-621 144,-621 144,-601 66,-601"/>
<text text-anchor="start" x="101.5" y="-609" font-family="Arial" font-size="10.00"> &#160;</text>
</g>
<!-- f9&#45;&#45;p12 -->
<g id="edge25" class="edge"><title>f9&#45;&#45;p12</title>
<path fill="none" stroke="black" d="M54.1058,-704.498C65.0769,-686.499 80.6644,-660.926 91.6918,-642.834"/>
<text text-anchor="middle" x="90.5835" y="-650.272" font-family="Arial" font-size="10.00">pawns</text>
</g>
<!-- f10 -->
<g id="node14" class="node"><title>f10</title>
<a xlink:href="../../SDMLib/src/org/sdmlib/examples/ludo/model/Field.java" xlink:title="&lt;TABLE&gt;">
<polygon fill="none" stroke="black" points="332,-326 332,-343 402,-343 402,-326 332,-326"/>
<text text-anchor="start" x="345" y="-332.5" font-family="Arial" font-size="10.00"> </text>
<text text-anchor="start" x="349" y="-332.5" font-family="Arial" font-size="10.00">f10 :Field</text>
</a>
<polygon fill="none" stroke="black" points="332,-292 332,-326 402,-326 402,-292 332,-292"/>
<text text-anchor="start" x="337" y="-314" font-family="Arial" font-size="10.00">color = &quot;blue&quot;</text>
<text text-anchor="start" x="337" y="-300" font-family="Arial" font-size="10.00">kind = &quot;start&quot;</text>
</g>
<!-- f9&#45;&#45;f10 -->
<g id="edge11" class="edge"><title>f9&#45;&#45;f10</title>
<path fill="none" stroke="black" stroke-dasharray="1,5" d="M37.3881,-704.181C33.7483,-676.334 30.6273,-627.198 46,-589 91.5983,-475.699 131.119,-457.046 229,-384 257.971,-362.38 295.281,-345.335 323.801,-334.134"/>
<text text-anchor="middle" x="316.966" y="-338.933" font-family="Arial" font-size="10.00">match</text>
</g>
<!-- p12&#45;&#45;p3 -->
<g id="edge27" class="edge"><title>p12&#45;&#45;p3</title>
<path fill="none" stroke="black" d="M104.339,-642.778C104.371,-672.114 107.743,-725.127 129,-764 136.698,-778.077 149.142,-790.519 161.019,-800.234"/>
<text text-anchor="middle" x="151.358" y="-795.153" font-family="Arial" font-size="10.00">player</text>
</g>
<!-- p13 -->
<g id="node13" class="node"><title>p13</title>
<a xlink:href="../../SDMLib/src/org/sdmlib/examples/ludo/model/Pawn.java" xlink:title="&lt;TABLE&gt;">
<polygon fill="none" stroke="black" points="246,-415 246,-432 312,-432 312,-415 246,-415"/>
<text text-anchor="start" x="254" y="-421.5" font-family="Arial" font-size="10.00"> </text>
<text text-anchor="start" x="258" y="-421.5" font-family="Arial" font-size="10.00">p13 :Pawn</text>
</a>
<polygon fill="none" stroke="black" points="246,-395 246,-415 312,-415 312,-395 246,-395"/>
<text text-anchor="start" x="251" y="-403" font-family="Arial" font-size="10.00">color = &quot;red&quot;</text>
</g>
<!-- p12&#45;&#45;p13 -->
<g id="edge13" class="edge"><title>p12&#45;&#45;p13</title>
<path fill="none" stroke="black" stroke-dasharray="1,5" d="M123.621,-597.168C157.111,-557.904 227.12,-475.824 260.513,-436.675"/>
<text text-anchor="middle" x="257.847" y="-443.813" font-family="Arial" font-size="10.00">candidate</text>
</g>
<!-- p2&#45;&#45;p4 -->
<g id="edge35" class="edge"><title>p2&#45;&#45;p4</title>
<path fill="none" stroke="black" d="M408,-800.198C408,-789.351 408,-775.962 408,-763.671"/>
<text text-anchor="middle" x="412.226" y="-770.234" font-family="Arial" font-size="10.00">player</text>
<text text-anchor="middle" x="403.774" y="-788.635" font-family="Arial" font-size="10.00">pawns</text>
</g>
<!-- p2&#45;&#45;f10 -->
<g id="edge33" class="edge"><title>p2&#45;&#45;f10</title>
<path fill="none" stroke="black" d="M437.8,-800.479C449.303,-790.639 461.478,-778.04 469,-764 499.469,-707.128 494,-685.519 494,-621 494,-621 494,-621 494,-516 494,-455.191 492.756,-433.898 458,-384 445.794,-366.476 427.276,-352.01 410.124,-341.211"/>
<text text-anchor="middle" x="420.029" y="-340.084" font-family="Arial" font-size="10.00">pos</text>
<text text-anchor="middle" x="441.837" y="-788.83" font-family="Arial" font-size="10.00">pawns</text>
</g>
<!-- l14 -->
<g id="node10" class="node"><title>l14</title>
<a xlink:href="../../SDMLib/src/org/sdmlib/examples/ludo/model/Ludo.java" xlink:title="&lt;TABLE&gt;">
<polygon fill="none" stroke="black" points="369,-611 369,-628 420,-628 420,-611 369,-611"/>
<text text-anchor="start" x="372.5" y="-617.5" font-family="Arial" font-size="10.00"> </text>
<text text-anchor="start" x="376.5" y="-617.5" font-family="Arial" font-size="10.00">l14 :Ludo</text>
</a>
</g>
<!-- p4&#45;&#45;l14 -->
<g id="edge37" class="edge"><title>p4&#45;&#45;l14</title>
<path fill="none" stroke="black" d="M403.26,-690.452C400.912,-672.841 398.184,-652.38 396.3,-638.25"/>
<text text-anchor="middle" x="401.687" y="-644.175" font-family="Arial" font-size="10.00">game</text>
<text text-anchor="middle" x="397.873" y="-679.527" font-family="Arial" font-size="10.00">players</text>
</g>
<!-- p4&#45;&#45;f10 -->
<g id="edge41" class="edge"><title>p4&#45;&#45;f10</title>
<path fill="none" stroke="black" d="M432.936,-690.28C434.145,-687.556 435.19,-684.782 436,-682 473.033,-554.826 485.226,-505.292 432,-384 425.972,-370.263 415.607,-357.85 404.903,-347.642"/>
<text text-anchor="middle" x="414.337" y="-348.459" font-family="Arial" font-size="10.00">start</text>
<text text-anchor="middle" x="432.691" y="-677.783" font-family="Arial" font-size="10.00">starter</text>
</g>
<!-- p4&#45;&#45;d6 -->
<g id="edge39" class="edge"><title>p4&#45;&#45;d6</title>
<path fill="none" stroke="black" d="M355.791,-693.229C352.871,-692.017 349.931,-690.928 347,-690 325.746,-683.274 266.365,-693.044 247,-682 231.58,-673.206 220.35,-656.354 213.241,-642.588"/>
<text text-anchor="middle" x="221.246" y="-646.081" font-family="Arial" font-size="10.00">dice</text>
<text text-anchor="middle" x="345.802" y="-691.197" font-family="Arial" font-size="10.00">player</text>
</g>
<!-- p4&#45;&#45;f8 -->
<g id="edge43" class="edge"><title>p4&#45;&#45;f8</title>
<path fill="none" stroke="black" d="M360.397,-690.482C357.151,-687.688 353.987,-684.845 351,-682 340.622,-672.114 330.177,-660.308 321.399,-649.728"/>
<text text-anchor="middle" x="330.455" y="-651.471" font-family="Arial" font-size="10.00">base</text>
<text text-anchor="middle" x="350.777" y="-685.252" font-family="Arial" font-size="10.00">baseowner</text>
</g>
<!-- p15 -->
<g id="node11" class="node"><title>p15</title>
<a xlink:href="../../SDMLib/src/org/sdmlib/examples/ludo/model/Player.java" xlink:title="&lt;TABLE&gt;">
<polygon fill="none" stroke="black" points="335,-532 335,-549 420,-549 420,-532 335,-532"/>
<text text-anchor="start" x="350.5" y="-538.5" font-family="Arial" font-size="10.00"> </text>
<text text-anchor="start" x="354.5" y="-538.5" font-family="Arial" font-size="10.00">p15 :Player</text>
</a>
<polygon fill="none" stroke="black" points="335,-484 335,-532 420,-532 420,-484 335,-484"/>
<text text-anchor="start" x="340" y="-520" font-family="Arial" font-size="10.00">color = &quot;red&quot;</text>
<text text-anchor="start" x="340" y="-506" font-family="Arial" font-size="10.00">name = &quot;Sabine&quot;</text>
<text text-anchor="start" x="340" y="-492" font-family="Arial" font-size="10.00">enumColor = red</text>
</g>
<!-- l14&#45;&#45;p15 -->
<g id="edge45" class="edge"><title>l14&#45;&#45;p15</title>
<path fill="none" stroke="black" d="M391.116,-601.867C388.9,-588.697 385.76,-570.047 383.005,-553.678"/>
<text text-anchor="middle" x="388.677" y="-559.414" font-family="Arial" font-size="10.00">players</text>
<text text-anchor="middle" x="385.444" y="-591.131" font-family="Arial" font-size="10.00">game</text>
</g>
<!-- f16 -->
<g id="node12" class="node"><title>f16</title>
<a xlink:href="../../SDMLib/src/org/sdmlib/examples/ludo/model/Field.java" xlink:title="&lt;TABLE&gt;">
<polygon fill="none" stroke="black" points="347,-422 347,-439 416,-439 416,-422 347,-422"/>
<text text-anchor="start" x="359.5" y="-428.5" font-family="Arial" font-size="10.00"> </text>
<text text-anchor="start" x="363.5" y="-428.5" font-family="Arial" font-size="10.00">f16 :Field</text>
</a>
<polygon fill="none" stroke="black" points="347,-388 347,-422 416,-422 416,-388 347,-388"/>
<text text-anchor="start" x="352" y="-410" font-family="Arial" font-size="10.00">color = &quot;red&quot;</text>
<text text-anchor="start" x="352" y="-396" font-family="Arial" font-size="10.00">kind = &quot;start&quot;</text>
</g>
<!-- p15&#45;&#45;f16 -->
<g id="edge49" class="edge"><title>p15&#45;&#45;f16</title>
<path fill="none" stroke="black" d="M378.41,-480.391C378.887,-468.351 379.413,-455.07 379.866,-443.641"/>
<text text-anchor="middle" x="383.73" y="-450.364" font-family="Arial" font-size="10.00">start</text>
<text text-anchor="middle" x="374.546" y="-468.668" font-family="Arial" font-size="10.00">starter</text>
</g>
<!-- p15&#45;&#45;p13 -->
<g id="edge47" class="edge"><title>p15&#45;&#45;p13</title>
<path fill="none" stroke="black" d="M342.449,-480.391C328.341,-465.852 312.479,-449.504 300.144,-436.791"/>
<text text-anchor="middle" x="309.488" y="-437.853" font-family="Arial" font-size="10.00">pawns</text>
<text text-anchor="middle" x="333.105" y="-474.33" font-family="Arial" font-size="10.00">player</text>
</g>
<!-- p13&#45;&#45;f10 -->
<g id="edge51" class="edge"><title>p13&#45;&#45;f10</title>
<path fill="none" stroke="black" d="M299.41,-391.198C311.494,-378.29 326.949,-361.782 340.029,-347.81"/>
<text text-anchor="middle" x="336.92" y="-354.814" font-family="Arial" font-size="10.00">pos</text>
<text text-anchor="middle" x="302.519" y="-379.194" font-family="Arial" font-size="10.00">pawns</text>
</g>
<!-- f17 -->
<g id="node15" class="node"><title>f17</title>
<a xlink:href="../../SDMLib/src/org/sdmlib/examples/ludo/model/Field.java" xlink:title="&lt;TABLE&gt;">
<polygon fill="none" stroke="black" points="342,-225 342,-242 393,-242 393,-225 342,-225"/>
<text text-anchor="start" x="345.5" y="-231.5" font-family="Arial" font-size="10.00"> </text>
<text text-anchor="start" x="349.5" y="-231.5" font-family="Arial" font-size="10.00">f17 :Field</text>
</a>
</g>
<!-- f10&#45;&#45;f17 -->
<g id="edge53" class="edge"><title>f10&#45;&#45;f17</title>
<path fill="none" stroke="black" d="M367,-288.32C367,-276.312 367,-262.75 367,-252.309"/>
<text text-anchor="middle" x="371.226" y="-258.872" font-family="Arial" font-size="10.00">next</text>
<text text-anchor="middle" x="362.774" y="-276.757" font-family="Arial" font-size="10.00">prev</text>
</g>
<!-- f18 -->
<g id="node16" class="node"><title>f18</title>
<a xlink:href="../../SDMLib/src/org/sdmlib/examples/ludo/model/Field.java" xlink:title="&lt;TABLE&gt;">
<polygon fill="none" stroke="black" points="342,-153 342,-170 393,-170 393,-153 342,-153"/>
<text text-anchor="start" x="345.5" y="-159.5" font-family="Arial" font-size="10.00"> </text>
<text text-anchor="start" x="349.5" y="-159.5" font-family="Arial" font-size="10.00">f18 :Field</text>
</a>
</g>
<!-- f17&#45;&#45;f18 -->
<g id="edge55" class="edge"><title>f17&#45;&#45;f18</title>
<path fill="none" stroke="black" d="M367,-215.697C367,-204.846 367,-190.917 367,-180.104"/>
<text text-anchor="middle" x="371.226" y="-186.667" font-family="Arial" font-size="10.00">next</text>
<text text-anchor="middle" x="362.774" y="-204.134" font-family="Arial" font-size="10.00">prev</text>
</g>
<!-- f19 -->
<g id="node17" class="node"><title>f19</title>
<a xlink:href="../../SDMLib/src/org/sdmlib/examples/ludo/model/Field.java" xlink:title="&lt;TABLE&gt;">
<polygon fill="none" stroke="black" points="342,-81 342,-98 393,-98 393,-81 342,-81"/>
<text text-anchor="start" x="345.5" y="-87.5" font-family="Arial" font-size="10.00"> </text>
<text text-anchor="start" x="349.5" y="-87.5" font-family="Arial" font-size="10.00">f19 :Field</text>
</a>
</g>
<!-- f18&#45;&#45;f19 -->
<g id="edge57" class="edge"><title>f18&#45;&#45;f19</title>
<path fill="none" stroke="black" d="M367,-143.697C367,-132.846 367,-118.917 367,-108.104"/>
<text text-anchor="middle" x="371.226" y="-114.667" font-family="Arial" font-size="10.00">next</text>
<text text-anchor="middle" x="362.774" y="-132.134" font-family="Arial" font-size="10.00">prev</text>
</g>
<!-- f20 -->
<g id="node18" class="node"><title>f20</title>
<a xlink:href="../../SDMLib/src/org/sdmlib/examples/ludo/model/Field.java" xlink:title="&lt;TABLE&gt;">
<polygon fill="none" stroke="black" points="342,-9 342,-26 393,-26 393,-9 342,-9"/>
<text text-anchor="start" x="345.5" y="-15.5" font-family="Arial" font-size="10.00"> </text>
<text text-anchor="start" x="349.5" y="-15.5" font-family="Arial" font-size="10.00">f20 :Field</text>
</a>
</g>
<!-- f19&#45;&#45;f20 -->
<g id="edge59" class="edge"><title>f19&#45;&#45;f20</title>
<path fill="none" stroke="black" d="M367,-71.6966C367,-60.8463 367,-46.9167 367,-36.1043"/>
<text text-anchor="middle" x="371.226" y="-42.6674" font-family="Arial" font-size="10.00">next</text>
<text text-anchor="middle" x="362.774" y="-60.1335" font-family="Arial" font-size="10.00">prev</text>
</g>
</g>
</svg>
