<?xml version="1.0" encoding="UTF-8" standalone="no"?>
<!DOCTYPE svg PUBLIC "-//W3C//DTD SVG 1.1//EN"
 "http://www.w3.org/Graphics/SVG/1.1/DTD/svg11.dtd">
<!-- Generated by graphviz version 2.28.0 (20110507.0327)
 -->
<!-- Title: ObjectDiagram Pages: 1 -->
<svg width="464pt" height="966pt"
 viewBox="0.00 0.00 464.05 966.00" xmlns="http://www.w3.org/2000/svg" xmlns:xlink="http://www.w3.org/1999/xlink">
<g id="graph1" class="graph" transform="scale(1 1) rotate(0) translate(4 962)">
<title>ObjectDiagram</title>
<polygon fill="white" stroke="white" points="-4,5 -4,-962 461.053,-962 461.053,5 -4,5"/>
<g id="graph2" class="cluster"><title>cluster_n11</title>
<polygon fill="none" stroke="grey" points="17,-589 17,-698 132,-698 132,-589 17,-589"/>
<image xlink:href="../../SDMLib/doc/forbiddensign.svg" width="30px" height="30px" preserveAspectRatio="xMinYMin meet" x="30" y="-689"/>
<text text-anchor="start" x="66.5" y="-670.8" font-family="Times New Roman,serif" font-size="14.00">NAC n11</text>
</g>
<!-- p1 -->
<g id="node1" class="node"><title>p1</title>
<polygon fill="deepskyblue" stroke="deepskyblue" points="229.5,-902.5 229.5,-953.5 288.5,-953.5 288.5,-902.5 229.5,-902.5"/>
<text text-anchor="start" x="257" y="-943.5" font-family="Times New Roman,serif" font-size="10.00">«bound»</text>
<polygon fill="none" stroke="black" points="230,-922 230,-938 289,-938 289,-922 230,-922"/>
<text text-anchor="start" x="233.5" y="-928" font-family="Times New Roman,serif" font-size="10.00"> </text>
<text text-anchor="start" x="236.5" y="-928" font-family="Times New Roman,serif" font-size="10.00"> p1 :PawnPO </text>
<polygon fill="none" stroke="black" points="230,-902 230,-922 289,-922 289,-902 230,-902"/>
<text text-anchor="start" x="257" y="-910" font-family="Times New Roman,serif" font-size="10.00"> &#160;</text>
</g>
<!-- p3 -->
<g id="node2" class="node"><title>p3</title>
<polygon fill="deepskyblue" stroke="deepskyblue" points="145.5,-820.5 145.5,-857.5 198.5,-857.5 198.5,-820.5 145.5,-820.5"/>
<polygon fill="none" stroke="black" points="146,-840 146,-857 199,-857 199,-840 146,-840"/>
<text text-anchor="start" x="149.5" y="-846.5" font-family="Times New Roman,serif" font-size="10.00"> </text>
<text text-anchor="start" x="152.5" y="-846.5" font-family="Times New Roman,serif" font-size="10.00"> p3 :PlayerPO </text>
<polygon fill="none" stroke="black" points="146,-820 146,-840 199,-840 199,-820 146,-820"/>
<text text-anchor="start" x="170" y="-828" font-family="Times New Roman,serif" font-size="10.00"> &#160;</text>
</g>
<!-- p1&#45;&#45;p3 -->
<g id="edge15" class="edge"><title>p1&#45;&#45;p3</title>
<path fill="none" stroke="black" d="M230.03,-898.03C218.167,-886.167 204.675,-872.675 193.687,-861.687"/>
<text text-anchor="middle" x="203.084" y="-862.608" font-family="Times New Roman,serif" font-size="10.00">player</text>
</g>
<!-- f7 -->
<g id="node4" class="node"><title>f7</title>
<polygon fill="deepskyblue" stroke="deepskyblue" points="221,-724.5 221,-761.5 297,-761.5 297,-724.5 221,-724.5"/>
<polygon fill="none" stroke="black" points="221,-744 221,-761 297,-761 297,-744 221,-744"/>
<text text-anchor="start" x="233" y="-750.5" font-family="Times New Roman,serif" font-size="10.00"> </text>
<text text-anchor="start" x="236" y="-750.5" font-family="Times New Roman,serif" font-size="10.00"> f7 :FieldPO </text>
<polygon fill="none" stroke="black" points="221,-724 221,-744 297,-744 297,-724 221,-724"/>
<text text-anchor="start" x="226.5" y="-732" font-family="Times New Roman,serif" font-size="10.00"> kind == &quot;base&quot; </text>
</g>
<!-- p1&#45;&#45;f7 -->
<g id="edge29" class="edge"><title>p1&#45;&#45;f7</title>
<path fill="none" stroke="red" d="M253.938,-898.406C251.525,-861.614 251.699,-798.521 254.461,-765.531"/>
<text text-anchor="middle" x="258.045" y="-772.366" font-family="Times New Roman,serif" font-size="10.00" fill="red">pos</text>
</g>
<!-- p1&#45;&#45;f7 -->
<g id="edge19" class="edge"><title>p1&#45;&#45;f7</title>
<path fill="none" stroke="black" d="M264.063,-898.406C266.475,-861.614 266.301,-798.521 263.539,-765.531"/>
<text text-anchor="middle" x="268.387" y="-771.777" font-family="Times New Roman,serif" font-size="10.00">pos</text>
</g>
<!-- f9 -->
<g id="node5" class="node"><title>f9</title>
<polygon fill="deepskyblue" stroke="deepskyblue" points="7.5,-724.5 7.5,-761.5 54.5,-761.5 54.5,-724.5 7.5,-724.5"/>
<polygon fill="none" stroke="black" points="8,-744 8,-761 55,-761 55,-744 8,-744"/>
<text text-anchor="start" x="11.5" y="-750.5" font-family="Times New Roman,serif" font-size="10.00"> </text>
<text text-anchor="start" x="14.5" y="-750.5" font-family="Times New Roman,serif" font-size="10.00"> f9 :FieldPO </text>
<polygon fill="none" stroke="black" points="8,-724 8,-744 55,-744 55,-724 8,-724"/>
<text text-anchor="start" x="29" y="-732" font-family="Times New Roman,serif" font-size="10.00"> &#160;</text>
</g>
<!-- p1&#45;&#45;f9 -->
<g id="edge31" class="edge"><title>p1&#45;&#45;f9</title>
<path fill="none" stroke="green" d="M221.573,-913.393C193.965,-902.227 156.42,-884.593 128,-862 92.71,-833.945 61.5146,-791.115 44.5378,-765.505"/>
<text text-anchor="middle" x="53.1096" y="-768.155" font-family="Times New Roman,serif" font-size="10.00" fill="green">pos</text>
</g>
<!-- p2 -->
<g id="node8" class="node"><title>p2</title>
<a xlink:href="../examples/org/sdmlib/examples/ludo/Pawn.java" xlink:title="&lt;TABLE&gt;">
<polygon fill="none" stroke="black" points="338,-840 338,-857 406,-857 406,-840 338,-840"/>
<text text-anchor="start" x="352" y="-846.5" font-family="Times New Roman,serif" font-size="10.00"> </text>
<text text-anchor="start" x="355" y="-846.5" font-family="Times New Roman,serif" font-size="10.00">p2 :Pawn</text>
</a>
<polygon fill="none" stroke="black" points="338,-820 338,-840 406,-840 406,-820 338,-820"/>
<text text-anchor="start" x="343" y="-828" font-family="Times New Roman,serif" font-size="10.00">color = &quot;blue&quot;</text>
</g>
<!-- p1&#45;&#45;p2 -->
<g id="edge3" class="edge"><title>p1&#45;&#45;p2</title>
<path fill="none" stroke="black" stroke-dasharray="1,5" d="M296.314,-898.272C311.871,-886.294 329.63,-872.621 344.035,-861.531"/>
<text text-anchor="middle" x="339.431" y="-867.909" font-family="Times New Roman,serif" font-size="10.00">match</text>
</g>
<!-- d5 -->
<g id="node3" class="node"><title>d5</title>
<polygon fill="deepskyblue" stroke="deepskyblue" points="127.5,-724.5 127.5,-761.5 186.5,-761.5 186.5,-724.5 127.5,-724.5"/>
<polygon fill="none" stroke="black" points="128,-744 128,-761 187,-761 187,-744 128,-744"/>
<text text-anchor="start" x="131.5" y="-750.5" font-family="Times New Roman,serif" font-size="10.00"> </text>
<text text-anchor="start" x="134.5" y="-750.5" font-family="Times New Roman,serif" font-size="10.00"> d5 :DicePO </text>
<polygon fill="none" stroke="black" points="128,-724 128,-744 187,-744 187,-724 128,-724"/>
<text text-anchor="start" x="134.5" y="-732" font-family="Times New Roman,serif" font-size="10.00"> value == 6 </text>
</g>
<!-- p3&#45;&#45;d5 -->
<g id="edge17" class="edge"><title>p3&#45;&#45;d5</title>
<path fill="none" stroke="black" d="M168.521,-816.198C166.098,-801.012 162.879,-780.844 160.46,-765.684"/>
<text text-anchor="middle" x="166.062" y="-771.467" font-family="Times New Roman,serif" font-size="10.00">dice</text>
</g>
<!-- p3&#45;&#45;f7 -->
<g id="edge21" class="edge"><title>p3&#45;&#45;f7</title>
<path fill="none" stroke="black" d="M192.178,-816.198C206.233,-801.012 224.9,-780.844 238.931,-765.684"/>
<text text-anchor="middle" x="235.877" y="-772.706" font-family="Times New Roman,serif" font-size="10.00">base</text>
</g>
<!-- p3&#45;&#45;f9 -->
<g id="edge23" class="edge"><title>p3&#45;&#45;f9</title>
<path fill="none" stroke="black" d="M137.536,-818.265C119.229,-807.458 96.5349,-793.54 77,-780 70.6656,-775.61 64.038,-770.653 57.8497,-765.854"/>
<text text-anchor="middle" x="67.6055" y="-765.55" font-family="Times New Roman,serif" font-size="10.00">start</text>
</g>
<!-- p4 -->
<g id="node9" class="node"><title>p4</title>
<a xlink:href="../examples/org/sdmlib/examples/ludo/Player.java" xlink:title="&lt;TABLE&gt;">
<polygon fill="none" stroke="black" points="331,-758 331,-775 413,-775 413,-758 331,-758"/>
<text text-anchor="start" x="350.5" y="-764.5" font-family="Times New Roman,serif" font-size="10.00"> </text>
<text text-anchor="start" x="353.5" y="-764.5" font-family="Times New Roman,serif" font-size="10.00">p4 :Player</text>
</a>
<polygon fill="none" stroke="black" points="331,-710 331,-758 413,-758 413,-710 331,-710"/>
<text text-anchor="start" x="336" y="-746" font-family="Times New Roman,serif" font-size="10.00">color = &quot;blue&quot;</text>
<text text-anchor="start" x="336" y="-732" font-family="Times New Roman,serif" font-size="10.00">enumColor = blue</text>
<text text-anchor="start" x="336" y="-718" font-family="Times New Roman,serif" font-size="10.00">name = &quot;Tom&quot;</text>
</g>
<!-- p3&#45;&#45;p4 -->
<g id="edge5" class="edge"><title>p3&#45;&#45;p4</title>
<path fill="none" stroke="black" stroke-dasharray="1,5" d="M206.282,-825.845C235.496,-815.054 278.297,-798.209 314,-780 316.956,-778.492 319.959,-776.884 322.964,-775.214"/>
<text text-anchor="middle" x="317.082" y="-780.801" font-family="Times New Roman,serif" font-size="10.00">match</text>
</g>
<!-- d6 -->
<g id="node19" class="node"><title>d6</title>
<a xlink:href="../examples/org/sdmlib/examples/ludo/Dice.java" xlink:title="&lt;TABLE&gt;">
<polygon fill="none" stroke="black" points="148,-621 148,-638 196,-638 196,-621 148,-621"/>
<text text-anchor="start" x="154" y="-627.5" font-family="Times New Roman,serif" font-size="10.00"> </text>
<text text-anchor="start" x="157" y="-627.5" font-family="Times New Roman,serif" font-size="10.00">d6 :Dice</text>
</a>
<polygon fill="none" stroke="black" points="148,-601 148,-621 196,-621 196,-601 148,-601"/>
<text text-anchor="start" x="153" y="-609" font-family="Times New Roman,serif" font-size="10.00">value = 6</text>
</g>
<!-- d5&#45;&#45;d6 -->
<g id="edge7" class="edge"><title>d5&#45;&#45;d6</title>
<path fill="none" stroke="black" stroke-dasharray="1,5" d="M159.682,-720.368C162.395,-698.479 166.568,-664.82 169.291,-642.853"/>
<text text-anchor="middle" x="172.37" y="-649.867" font-family="Times New Roman,serif" font-size="10.00">match</text>
</g>
<!-- f8 -->
<g id="node20" class="node"><title>f8</title>
<a xlink:href="../examples/org/sdmlib/examples/ludo/Field.java" xlink:title="&lt;TABLE&gt;">
<polygon fill="none" stroke="black" points="230,-628 230,-645 298,-645 298,-628 230,-628"/>
<text text-anchor="start" x="246.5" y="-634.5" font-family="Times New Roman,serif" font-size="10.00"> </text>
<text text-anchor="start" x="249.5" y="-634.5" font-family="Times New Roman,serif" font-size="10.00">f8 :Field</text>
</a>
<polygon fill="none" stroke="black" points="230,-594 230,-628 298,-628 298,-594 230,-594"/>
<text text-anchor="start" x="235" y="-616" font-family="Times New Roman,serif" font-size="10.00">color = &quot;blue&quot;</text>
<text text-anchor="start" x="235" y="-602" font-family="Times New Roman,serif" font-size="10.00">kind = &quot;base&quot;</text>
</g>
<!-- f7&#45;&#45;f8 -->
<g id="edge9" class="edge"><title>f7&#45;&#45;f8</title>
<path fill="none" stroke="black" stroke-dasharray="1,5" d="M259.894,-720.368C260.708,-700.654 261.918,-671.394 262.813,-649.726"/>
<text text-anchor="middle" x="266.661" y="-656.455" font-family="Times New Roman,serif" font-size="10.00">match</text>
</g>
<!-- p12 -->
<g id="node7" class="node"><title>p12</title>
<polygon fill="deepskyblue" stroke="deepskyblue" points="58.5,-601.5 58.5,-638.5 113.5,-638.5 113.5,-601.5 58.5,-601.5"/>
<polygon fill="none" stroke="black" points="59,-621 59,-638 114,-638 114,-621 59,-621"/>
<text text-anchor="start" x="62.5" y="-627.5" font-family="Times New Roman,serif" font-size="10.00"> </text>
<text text-anchor="start" x="65.5" y="-627.5" font-family="Times New Roman,serif" font-size="10.00"> p12 :PawnPO </text>
<polygon fill="none" stroke="black" points="59,-601 59,-621 114,-621 114,-601 59,-601"/>
<text text-anchor="start" x="84" y="-609" font-family="Times New Roman,serif" font-size="10.00"> &#160;</text>
</g>
<!-- f9&#45;&#45;p12 -->
<g id="edge25" class="edge"><title>f9&#45;&#45;p12</title>
<path fill="none" stroke="black" d="M40.8329,-720.368C50.7822,-698.479 66.0817,-664.82 76.0668,-642.853"/>
<text text-anchor="middle" x="76.1638" y="-650.353" font-family="Times New Roman,serif" font-size="10.00">pawns</text>
</g>
<!-- f10 -->
<g id="node14" class="node"><title>f10</title>
<a xlink:href="../examples/org/sdmlib/examples/ludo/Field.java" xlink:title="&lt;TABLE&gt;">
<polygon fill="none" stroke="black" points="296,-326 296,-343 364,-343 364,-326 296,-326"/>
<text text-anchor="start" x="310" y="-332.5" font-family="Times New Roman,serif" font-size="10.00"> </text>
<text text-anchor="start" x="313" y="-332.5" font-family="Times New Roman,serif" font-size="10.00">f10 :Field</text>
</a>
<polygon fill="none" stroke="black" points="296,-292 296,-326 364,-326 364,-292 296,-292"/>
<text text-anchor="start" x="301" y="-314" font-family="Times New Roman,serif" font-size="10.00">color = &quot;blue&quot;</text>
<text text-anchor="start" x="301" y="-300" font-family="Times New Roman,serif" font-size="10.00">kind = &quot;start&quot;</text>
</g>
<!-- f9&#45;&#45;f10 -->
<g id="edge11" class="edge"><title>f9&#45;&#45;f10</title>
<path fill="none" stroke="black" stroke-dasharray="1,5" d="M20.107,-720.136C17.2018,-713.228 14.465,-705.45 13,-698 3.65304,-650.466 -4.2641,-634.264 13,-589 56.5242,-474.886 98.539,-457.605 196,-384 224.061,-362.807 260.126,-345.787 287.77,-334.487"/>
<text text-anchor="middle" x="281.034" y="-339.378" font-family="Times New Roman,serif" font-size="10.00">match</text>
</g>
<!-- p12&#45;&#45;p3 -->
<g id="edge27" class="edge"><title>p12&#45;&#45;p3</title>
<path fill="none" stroke="black" d="M84.9097,-642.695C84.2313,-674.651 86.5405,-735.404 110,-780 117.411,-794.088 129.604,-806.612 141.225,-816.385"/>
<text text-anchor="middle" x="131.599" y="-811.172" font-family="Times New Roman,serif" font-size="10.00">player</text>
</g>
<!-- p13 -->
<g id="node13" class="node"><title>p13</title>
<a xlink:href="../examples/org/sdmlib/examples/ludo/Pawn.java" xlink:title="&lt;TABLE&gt;">
<polygon fill="none" stroke="black" points="214,-415 214,-432 277,-432 277,-415 214,-415"/>
<text text-anchor="start" x="223.5" y="-421.5" font-family="Times New Roman,serif" font-size="10.00"> </text>
<text text-anchor="start" x="226.5" y="-421.5" font-family="Times New Roman,serif" font-size="10.00">p13 :Pawn</text>
</a>
<polygon fill="none" stroke="black" points="214,-395 214,-415 277,-415 277,-395 214,-395"/>
<text text-anchor="start" x="219" y="-403" font-family="Times New Roman,serif" font-size="10.00">color = &quot;red&quot;</text>
</g>
<!-- p12&#45;&#45;p13 -->
<g id="edge13" class="edge"><title>p12&#45;&#45;p13</title>
<path fill="none" stroke="black" stroke-dasharray="1,5" d="M103.016,-597.168C133.619,-557.904 197.593,-475.824 228.107,-436.675"/>
<text text-anchor="middle" x="225.868" y="-443.921" font-family="Times New Roman,serif" font-size="10.00">match</text>
</g>
<!-- p2&#45;&#45;p4 -->
<g id="edge33" class="edge"><title>p2&#45;&#45;p4</title>
<path fill="none" stroke="black" d="M372,-816.198C372,-805.351 372,-791.962 372,-779.671"/>
<text text-anchor="middle" x="376.226" y="-786.234" font-family="Times New Roman,serif" font-size="10.00">player</text>
<text text-anchor="middle" x="367.774" y="-804.635" font-family="Times New Roman,serif" font-size="10.00">pawns</text>
</g>
<!-- p2&#45;&#45;f10 -->
<g id="edge35" class="edge"><title>p2&#45;&#45;f10</title>
<path fill="none" stroke="black" d="M400.489,-816.296C411.45,-806.427 423.003,-793.856 430,-780 462.214,-716.205 454,-692.467 454,-621 454,-621 454,-621 454,-516 454,-455.306 453.25,-434.107 419,-384 407.123,-366.624 389.021,-352.18 372.236,-341.356"/>
<text text-anchor="middle" x="382.126" y="-340.335" font-family="Times New Roman,serif" font-size="10.00">pos</text>
<text text-anchor="middle" x="404.292" y="-804.548" font-family="Times New Roman,serif" font-size="10.00">pawns</text>
</g>
<!-- l14 -->
<g id="node10" class="node"><title>l14</title>
<a xlink:href="../examples/org/sdmlib/examples/ludo/Ludo.java" xlink:title="&lt;TABLE&gt;">
<polygon fill="none" stroke="black" points="333,-611 333,-628 380,-628 380,-611 333,-611"/>
<text text-anchor="start" x="336.5" y="-617.5" font-family="Times New Roman,serif" font-size="10.00"> </text>
<text text-anchor="start" x="339.5" y="-617.5" font-family="Times New Roman,serif" font-size="10.00">l14 :Ludo</text>
</a>
</g>
<!-- p4&#45;&#45;l14 -->
<g id="edge37" class="edge"><title>p4&#45;&#45;l14</title>
<path fill="none" stroke="black" d="M367.286,-706.35C364.318,-683.904 360.619,-655.933 358.283,-638.264"/>
<text text-anchor="middle" x="363.661" y="-644.195" font-family="Times New Roman,serif" font-size="10.00">game</text>
<text text-anchor="middle" x="361.908" y="-695.42" font-family="Times New Roman,serif" font-size="10.00">players</text>
</g>
<!-- p4&#45;&#45;f10 -->
<g id="edge41" class="edge"><title>p4&#45;&#45;f10</title>
<path fill="none" stroke="black" d="M393.269,-706.333C394.348,-703.574 395.281,-700.78 396,-698 430.952,-562.889 448.917,-512.299 394,-384 388.142,-370.315 377.957,-357.916 367.413,-347.704"/>
<text text-anchor="middle" x="376.821" y="-348.593" font-family="Times New Roman,serif" font-size="10.00">start</text>
<text text-anchor="middle" x="392.584" y="-693.857" font-family="Times New Roman,serif" font-size="10.00">starter</text>
</g>
<!-- p4&#45;&#45;d6 -->
<g id="edge39" class="edge"><title>p4&#45;&#45;d6</title>
<path fill="none" stroke="black" d="M322.763,-709.366C319.859,-708.099 316.928,-706.961 314,-706 292.609,-698.976 231.829,-710.344 213,-698 193.748,-685.379 182.903,-660.6 177.27,-642.55"/>
<text text-anchor="middle" x="184.126" y="-647.33" font-family="Times New Roman,serif" font-size="10.00">dice</text>
<text text-anchor="middle" x="312.767" y="-707.155" font-family="Times New Roman,serif" font-size="10.00">player</text>
</g>
<!-- p4&#45;&#45;f8 -->
<g id="edge43" class="edge"><title>p4&#45;&#45;f8</title>
<path fill="none" stroke="black" d="M323.422,-706.355C320.475,-703.633 317.639,-700.838 315,-698 301.459,-683.441 289.07,-664.921 279.894,-649.692"/>
<text text-anchor="middle" x="288.226" y="-652.723" font-family="Times New Roman,serif" font-size="10.00">base</text>
<text text-anchor="middle" x="313.907" y="-700.778" font-family="Times New Roman,serif" font-size="10.00">baseowner</text>
</g>
<!-- p15 -->
<g id="node11" class="node"><title>p15</title>
<a xlink:href="../examples/org/sdmlib/examples/ludo/Player.java" xlink:title="&lt;TABLE&gt;">
<polygon fill="none" stroke="black" points="302,-532 302,-549 380,-549 380,-532 302,-532"/>
<text text-anchor="start" x="317.5" y="-538.5" font-family="Times New Roman,serif" font-size="10.00"> </text>
<text text-anchor="start" x="320.5" y="-538.5" font-family="Times New Roman,serif" font-size="10.00">p15 :Player</text>
</a>
<polygon fill="none" stroke="black" points="302,-484 302,-532 380,-532 380,-484 302,-484"/>
<text text-anchor="start" x="307" y="-520" font-family="Times New Roman,serif" font-size="10.00">color = &quot;red&quot;</text>
<text text-anchor="start" x="307" y="-506" font-family="Times New Roman,serif" font-size="10.00">enumColor = red</text>
<text text-anchor="start" x="307" y="-492" font-family="Times New Roman,serif" font-size="10.00">name = &quot;Sabine&quot;</text>
</g>
<!-- l14&#45;&#45;p15 -->
<g id="edge45" class="edge"><title>l14&#45;&#45;p15</title>
<path fill="none" stroke="black" d="M353.455,-601.867C351.5,-588.697 348.73,-570.047 346.299,-553.678"/>
<text text-anchor="middle" x="351.81" y="-559.522" font-family="Times New Roman,serif" font-size="10.00">players</text>
<text text-anchor="middle" x="347.944" y="-591.023" font-family="Times New Roman,serif" font-size="10.00">game</text>
</g>
<!-- f16 -->
<g id="node12" class="node"><title>f16</title>
<a xlink:href="../examples/org/sdmlib/examples/ludo/Field.java" xlink:title="&lt;TABLE&gt;">
<polygon fill="none" stroke="black" points="311,-422 311,-439 377,-439 377,-422 311,-422"/>
<text text-anchor="start" x="324" y="-428.5" font-family="Times New Roman,serif" font-size="10.00"> </text>
<text text-anchor="start" x="327" y="-428.5" font-family="Times New Roman,serif" font-size="10.00">f16 :Field</text>
</a>
<polygon fill="none" stroke="black" points="311,-388 311,-422 377,-422 377,-388 311,-388"/>
<text text-anchor="start" x="316" y="-410" font-family="Times New Roman,serif" font-size="10.00">color = &quot;red&quot;</text>
<text text-anchor="start" x="316" y="-396" font-family="Times New Roman,serif" font-size="10.00">kind = &quot;start&quot;</text>
</g>
<!-- p15&#45;&#45;f16 -->
<g id="edge47" class="edge"><title>p15&#45;&#45;f16</title>
<path fill="none" stroke="black" d="M342.058,-480.391C342.415,-468.351 342.81,-455.07 343.149,-443.641"/>
<text text-anchor="middle" x="347.105" y="-450.325" font-family="Times New Roman,serif" font-size="10.00">start</text>
<text text-anchor="middle" x="338.102" y="-468.707" font-family="Times New Roman,serif" font-size="10.00">starter</text>
</g>
<!-- p15&#45;&#45;p13 -->
<g id="edge49" class="edge"><title>p15&#45;&#45;p13</title>
<path fill="none" stroke="black" d="M307.154,-480.391C293.335,-465.852 277.796,-449.504 265.712,-436.791"/>
<text text-anchor="middle" x="275.02" y="-437.949" font-family="Times New Roman,serif" font-size="10.00">pawns</text>
<text text-anchor="middle" x="297.847" y="-474.234" font-family="Times New Roman,serif" font-size="10.00">player</text>
</g>
<!-- p13&#45;&#45;f10 -->
<g id="edge51" class="edge"><title>p13&#45;&#45;f10</title>
<path fill="none" stroke="black" d="M264.714,-391.198C276.387,-378.29 291.314,-361.782 303.949,-347.81"/>
<text text-anchor="middle" x="301.004" y="-354.867" font-family="Times New Roman,serif" font-size="10.00">pos</text>
<text text-anchor="middle" x="267.658" y="-379.141" font-family="Times New Roman,serif" font-size="10.00">pawns</text>
</g>
<!-- f17 -->
<g id="node15" class="node"><title>f17</title>
<a xlink:href="../examples/org/sdmlib/examples/ludo/Field.java" xlink:title="&lt;TABLE&gt;">
<polygon fill="none" stroke="black" points="307,-225 307,-242 354,-242 354,-225 307,-225"/>
<text text-anchor="start" x="310.5" y="-231.5" font-family="Times New Roman,serif" font-size="10.00"> </text>
<text text-anchor="start" x="313.5" y="-231.5" font-family="Times New Roman,serif" font-size="10.00">f17 :Field</text>
</a>
</g>
<!-- f10&#45;&#45;f17 -->
<g id="edge53" class="edge"><title>f10&#45;&#45;f17</title>
<path fill="none" stroke="black" d="M330,-288.32C330,-276.312 330,-262.75 330,-252.309"/>
<text text-anchor="middle" x="334.226" y="-258.872" font-family="Times New Roman,serif" font-size="10.00">next</text>
<text text-anchor="middle" x="325.774" y="-276.757" font-family="Times New Roman,serif" font-size="10.00">prev</text>
</g>
<!-- f18 -->
<g id="node16" class="node"><title>f18</title>
<a xlink:href="../examples/org/sdmlib/examples/ludo/Field.java" xlink:title="&lt;TABLE&gt;">
<polygon fill="none" stroke="black" points="307,-153 307,-170 354,-170 354,-153 307,-153"/>
<text text-anchor="start" x="310.5" y="-159.5" font-family="Times New Roman,serif" font-size="10.00"> </text>
<text text-anchor="start" x="313.5" y="-159.5" font-family="Times New Roman,serif" font-size="10.00">f18 :Field</text>
</a>
</g>
<!-- f17&#45;&#45;f18 -->
<g id="edge55" class="edge"><title>f17&#45;&#45;f18</title>
<path fill="none" stroke="black" d="M330,-215.697C330,-204.846 330,-190.917 330,-180.104"/>
<text text-anchor="middle" x="334.226" y="-186.667" font-family="Times New Roman,serif" font-size="10.00">next</text>
<text text-anchor="middle" x="325.774" y="-204.134" font-family="Times New Roman,serif" font-size="10.00">prev</text>
</g>
<!-- f19 -->
<g id="node17" class="node"><title>f19</title>
<a xlink:href="../examples/org/sdmlib/examples/ludo/Field.java" xlink:title="&lt;TABLE&gt;">
<polygon fill="none" stroke="black" points="307,-81 307,-98 354,-98 354,-81 307,-81"/>
<text text-anchor="start" x="310.5" y="-87.5" font-family="Times New Roman,serif" font-size="10.00"> </text>
<text text-anchor="start" x="313.5" y="-87.5" font-family="Times New Roman,serif" font-size="10.00">f19 :Field</text>
</a>
</g>
<!-- f18&#45;&#45;f19 -->
<g id="edge57" class="edge"><title>f18&#45;&#45;f19</title>
<path fill="none" stroke="black" d="M330,-143.697C330,-132.846 330,-118.917 330,-108.104"/>
<text text-anchor="middle" x="334.226" y="-114.667" font-family="Times New Roman,serif" font-size="10.00">next</text>
<text text-anchor="middle" x="325.774" y="-132.134" font-family="Times New Roman,serif" font-size="10.00">prev</text>
</g>
<!-- f20 -->
<g id="node18" class="node"><title>f20</title>
<a xlink:href="../examples/org/sdmlib/examples/ludo/Field.java" xlink:title="&lt;TABLE&gt;">
<polygon fill="none" stroke="black" points="307,-9 307,-26 354,-26 354,-9 307,-9"/>
<text text-anchor="start" x="310.5" y="-15.5" font-family="Times New Roman,serif" font-size="10.00"> </text>
<text text-anchor="start" x="313.5" y="-15.5" font-family="Times New Roman,serif" font-size="10.00">f20 :Field</text>
</a>
</g>
<!-- f19&#45;&#45;f20 -->
<g id="edge59" class="edge"><title>f19&#45;&#45;f20</title>
<path fill="none" stroke="black" d="M330,-71.6966C330,-60.8463 330,-46.9167 330,-36.1043"/>
<text text-anchor="middle" x="334.226" y="-42.6674" font-family="Times New Roman,serif" font-size="10.00">next</text>
<text text-anchor="middle" x="325.774" y="-60.1335" font-family="Times New Roman,serif" font-size="10.00">prev</text>
</g>
</g>
</svg>
