<?xml version="1.0" encoding="UTF-8" standalone="no"?>
<!DOCTYPE svg PUBLIC "-//W3C//DTD SVG 1.1//EN"
 "http://www.w3.org/Graphics/SVG/1.1/DTD/svg11.dtd">
<!-- Generated by graphviz version 2.28.0 (20110507.0327)
 -->
<!-- Title: ObjectDiagram Pages: 1 -->
<svg width="982pt" height="1386pt"
 viewBox="0.00 0.00 982.00 1386.00" xmlns="http://www.w3.org/2000/svg" xmlns:xlink="http://www.w3.org/1999/xlink">
<g id="graph1" class="graph" transform="scale(1 1) rotate(0) translate(4 1382)">
<title>ObjectDiagram</title>
<polygon fill="white" stroke="white" points="-4,5 -4,-1382 979,-1382 979,5 -4,5"/>
<!-- l1 -->
<g id="node1" class="node"><title>l1</title>
<a xlink:href="../examples/org/sdmlib/examples/ludo/model/Ludo.java" xlink:title="&lt;TABLE&gt;">
<polygon fill="none" stroke="black" points="638,-1356 638,-1373 688,-1373 688,-1356 638,-1356"/>
<text text-anchor="start" x="643.5" y="-1362.5" font-family="Arial" font-size="10.00"> </text>
<text text-anchor="start" x="647.5" y="-1362.5" font-family="Arial" font-size="10.00">l1 :Ludo</text>
</a>
<polygon fill="none" stroke="black" points="638,-1322 638,-1356 688,-1356 688,-1322 638,-1322"/>
<text text-anchor="start" x="643" y="-1344" font-family="Arial" font-size="10.00">date = &quot;&quot;</text>
<text text-anchor="start" x="643" y="-1330" font-family="Arial" font-size="10.00">dice = &quot;&quot;</text>
</g>
<!-- p2 -->
<g id="node2" class="node"><title>p2</title>
<a xlink:href="../examples/org/sdmlib/examples/ludo/model/Player.java" xlink:title="&lt;TABLE&gt;">
<polygon fill="none" stroke="black" points="518,-1260 518,-1277 592,-1277 592,-1260 518,-1260"/>
<text text-anchor="start" x="530.5" y="-1266.5" font-family="Arial" font-size="10.00"> </text>
<text text-anchor="start" x="534.5" y="-1266.5" font-family="Arial" font-size="10.00">p2 :Player</text>
</a>
<polygon fill="none" stroke="black" points="518,-1156 518,-1260 592,-1260 592,-1156 518,-1156"/>
<text text-anchor="start" x="523" y="-1248" font-family="Arial" font-size="10.00">next = &quot;&quot;</text>
<text text-anchor="start" x="523" y="-1234" font-family="Arial" font-size="10.00">color = &quot;blue&quot;</text>
<text text-anchor="start" x="523" y="-1220" font-family="Arial" font-size="10.00">prev = &quot;&quot;</text>
<text text-anchor="start" x="523" y="-1206" font-family="Arial" font-size="10.00">landing = &quot;&quot;</text>
<text text-anchor="start" x="523" y="-1192" font-family="Arial" font-size="10.00">name = &quot;Tom&quot;</text>
<text text-anchor="start" x="523" y="-1178" font-family="Arial" font-size="10.00">x = 0</text>
<text text-anchor="start" x="523" y="-1164" font-family="Arial" font-size="10.00">y = 0</text>
</g>
<!-- l1&#45;&#45;p2 -->
<g id="edge2" class="edge"><title>l1&#45;&#45;p2</title>
<path fill="none" stroke="black" d="M639.031,-1318.37C627.597,-1304.71 613.528,-1287.91 600.195,-1271.98"/>
<text text-anchor="middle" x="609.254" y="-1273.72" font-family="Arial" font-size="10.00">players</text>
<text text-anchor="middle" x="629.973" y="-1311.63" font-family="Arial" font-size="10.00">game</text>
</g>
<!-- p11 -->
<g id="node11" class="node"><title>p11</title>
<a xlink:href="../examples/org/sdmlib/examples/ludo/model/Player.java" xlink:title="&lt;TABLE&gt;">
<polygon fill="none" stroke="black" points="666,-622 666,-639 751,-639 751,-622 666,-622"/>
<text text-anchor="start" x="681.5" y="-628.5" font-family="Arial" font-size="10.00"> </text>
<text text-anchor="start" x="685.5" y="-628.5" font-family="Arial" font-size="10.00">p11 :Player</text>
</a>
<polygon fill="none" stroke="black" points="666,-490 666,-622 751,-622 751,-490 666,-490"/>
<text text-anchor="start" x="671" y="-610" font-family="Arial" font-size="10.00">next = &quot;&quot;</text>
<text text-anchor="start" x="671" y="-596" font-family="Arial" font-size="10.00">color = &quot;red&quot;</text>
<text text-anchor="start" x="671" y="-582" font-family="Arial" font-size="10.00">prev = &quot;&quot;</text>
<text text-anchor="start" x="671" y="-568" font-family="Arial" font-size="10.00">dice = &quot;&quot;</text>
<text text-anchor="start" x="671" y="-554" font-family="Arial" font-size="10.00">landing = &quot;&quot;</text>
<text text-anchor="start" x="671" y="-540" font-family="Arial" font-size="10.00">name = &quot;Sabine&quot;</text>
<text text-anchor="start" x="671" y="-526" font-family="Arial" font-size="10.00">x = 0</text>
<text text-anchor="start" x="671" y="-512" font-family="Arial" font-size="10.00">y = 0</text>
<text text-anchor="start" x="671" y="-498" font-family="Arial" font-size="10.00">base = &quot;&quot;</text>
</g>
<!-- l1&#45;&#45;p11 -->
<g id="edge4" class="edge"><title>l1&#45;&#45;p11</title>
<path fill="none" stroke="black" d="M666.278,-1318.23C671.158,-1274.56 680.363,-1188.93 686,-1116 698.997,-947.834 704.53,-750.113 706.713,-643.528"/>
<text text-anchor="middle" x="710.739" y="-650.181" font-family="Arial" font-size="10.00">players</text>
<text text-anchor="middle" x="663.076" y="-1306.25" font-family="Arial" font-size="10.00">game</text>
</g>
<!-- l3 -->
<g id="node3" class="node"><title>l3</title>
<a xlink:href="../examples/org/sdmlib/examples/ludo/LudoModel.java" xlink:title="&lt;TABLE&gt;">
<polygon fill="none" stroke="black" points="8,-1017 8,-1034 339,-1034 339,-1017 8,-1017"/>
<text text-anchor="start" x="116.5" y="-1023.5" font-family="Arial" font-size="10.00"> </text>
<text text-anchor="start" x="120.5" y="-1023.5" font-family="Arial" font-size="10.00">l3 :LudoModel$LudoColor</text>
</a>
<polygon fill="none" stroke="black" points="8,-997 8,-1017 339,-1017 339,-997 8,-997"/>
<text text-anchor="start" x="13" y="-1005" font-family="Arial" font-size="10.00">declaringClass = &quot;class org.sdmlib.examples.ludo.LudoModel$LudoColor&quot;</text>
</g>
<!-- p2&#45;&#45;l3 -->
<g id="edge12" class="edge"><title>p2&#45;&#45;l3</title>
<path fill="none" stroke="black" d="M509.752,-1193.75C469.289,-1173.73 408.452,-1143.36 356,-1116 306.038,-1089.94 249.012,-1058.88 212.085,-1038.59"/>
<text text-anchor="middle" x="222.063" y="-1036.74" font-family="Arial" font-size="10.00">enumColor</text>
</g>
<!-- d4 -->
<g id="node4" class="node"><title>d4</title>
<a xlink:href="../examples/org/sdmlib/examples/ludo/model/Dice.java" xlink:title="&lt;TABLE&gt;">
<polygon fill="none" stroke="black" points="373,-1024 373,-1041 428,-1041 428,-1024 373,-1024"/>
<text text-anchor="start" x="380" y="-1030.5" font-family="Arial" font-size="10.00"> </text>
<text text-anchor="start" x="384" y="-1030.5" font-family="Arial" font-size="10.00">d4 :Dice</text>
</a>
<polygon fill="none" stroke="black" points="373,-990 373,-1024 428,-1024 428,-990 373,-990"/>
<text text-anchor="start" x="378" y="-1012" font-family="Arial" font-size="10.00">game = &quot;&quot;</text>
<text text-anchor="start" x="378" y="-998" font-family="Arial" font-size="10.00">value = 6</text>
</g>
<!-- p2&#45;&#45;d4 -->
<g id="edge6" class="edge"><title>p2&#45;&#45;d4</title>
<path fill="none" stroke="black" d="M509.751,-1182.06C488.13,-1164.17 463.089,-1140.82 445,-1116 429.21,-1094.33 417.091,-1066.24 409.43,-1045.52"/>
<text text-anchor="middle" x="416.59" y="-1050" font-family="Arial" font-size="10.00">dice</text>
<text text-anchor="middle" x="500.093" y="-1176.97" font-family="Arial" font-size="10.00">player</text>
</g>
<!-- f5 -->
<g id="node5" class="node"><title>f5</title>
<a xlink:href="../examples/org/sdmlib/examples/ludo/model/Field.java" xlink:title="&lt;TABLE&gt;">
<polygon fill="none" stroke="black" points="462,-1087 462,-1104 540,-1104 540,-1087 462,-1087"/>
<text text-anchor="start" x="481.5" y="-1093.5" font-family="Arial" font-size="10.00"> </text>
<text text-anchor="start" x="485.5" y="-1093.5" font-family="Arial" font-size="10.00">f5 :Field</text>
</a>
<polygon fill="none" stroke="black" points="462,-927 462,-1087 540,-1087 540,-927 462,-927"/>
<text text-anchor="start" x="467" y="-1075" font-family="Arial" font-size="10.00">game = &quot;&quot;</text>
<text text-anchor="start" x="467" y="-1061" font-family="Arial" font-size="10.00">color = &quot;blue&quot;</text>
<text text-anchor="start" x="467" y="-1047" font-family="Arial" font-size="10.00">kind = &quot;start&quot;</text>
<text text-anchor="start" x="467" y="-1033" font-family="Arial" font-size="10.00">prev = &quot;&quot;</text>
<text text-anchor="start" x="467" y="-1019" font-family="Arial" font-size="10.00">lander = &quot;&quot;</text>
<text text-anchor="start" x="467" y="-1005" font-family="Arial" font-size="10.00">point = &quot;&quot;</text>
<text text-anchor="start" x="467" y="-991" font-family="Arial" font-size="10.00">entry = &quot;&quot;</text>
<text text-anchor="start" x="467" y="-977" font-family="Arial" font-size="10.00">landing = &quot;&quot;</text>
<text text-anchor="start" x="467" y="-963" font-family="Arial" font-size="10.00">x = 0</text>
<text text-anchor="start" x="467" y="-949" font-family="Arial" font-size="10.00">y = 0</text>
<text text-anchor="start" x="467" y="-935" font-family="Arial" font-size="10.00">baseowner = &quot;&quot;</text>
</g>
<!-- p2&#45;&#45;f5 -->
<g id="edge8" class="edge"><title>p2&#45;&#45;f5</title>
<path fill="none" stroke="black" d="M537.766,-1152.49C533.969,-1138.5 529.875,-1123.41 525.845,-1108.56"/>
<text text-anchor="middle" x="532.297" y="-1113.7" font-family="Arial" font-size="10.00">start</text>
<text text-anchor="middle" x="531.313" y="-1142.35" font-family="Arial" font-size="10.00">starter</text>
</g>
<!-- f14 -->
<g id="node14" class="node"><title>f14</title>
<a xlink:href="../examples/org/sdmlib/examples/ludo/model/Field.java" xlink:title="&lt;TABLE&gt;">
<polygon fill="none" stroke="black" points="574,-1094 574,-1111 644,-1111 644,-1094 574,-1094"/>
<text text-anchor="start" x="587" y="-1100.5" font-family="Arial" font-size="10.00"> </text>
<text text-anchor="start" x="591" y="-1100.5" font-family="Arial" font-size="10.00">f14 :Field</text>
</a>
<polygon fill="none" stroke="black" points="574,-920 574,-1094 644,-1094 644,-920 574,-920"/>
<text text-anchor="start" x="579" y="-1082" font-family="Arial" font-size="10.00">next = &quot;&quot;</text>
<text text-anchor="start" x="579" y="-1068" font-family="Arial" font-size="10.00">game = &quot;&quot;</text>
<text text-anchor="start" x="579" y="-1054" font-family="Arial" font-size="10.00">color = &quot;blue&quot;</text>
<text text-anchor="start" x="579" y="-1040" font-family="Arial" font-size="10.00">starter = &quot;&quot;</text>
<text text-anchor="start" x="579" y="-1026" font-family="Arial" font-size="10.00">kind = &quot;base&quot;</text>
<text text-anchor="start" x="579" y="-1012" font-family="Arial" font-size="10.00">prev = &quot;&quot;</text>
<text text-anchor="start" x="579" y="-998" font-family="Arial" font-size="10.00">lander = &quot;&quot;</text>
<text text-anchor="start" x="579" y="-984" font-family="Arial" font-size="10.00">point = &quot;&quot;</text>
<text text-anchor="start" x="579" y="-970" font-family="Arial" font-size="10.00">entry = &quot;&quot;</text>
<text text-anchor="start" x="579" y="-956" font-family="Arial" font-size="10.00">landing = &quot;&quot;</text>
<text text-anchor="start" x="579" y="-942" font-family="Arial" font-size="10.00">x = 0</text>
<text text-anchor="start" x="579" y="-928" font-family="Arial" font-size="10.00">y = 0</text>
</g>
<!-- p2&#45;&#45;f14 -->
<g id="edge14" class="edge"><title>p2&#45;&#45;f14</title>
<path fill="none" stroke="black" d="M572.234,-1152.49C575.414,-1140.77 578.802,-1128.29 582.186,-1115.82"/>
<text text-anchor="middle" x="583.891" y="-1123.17" font-family="Arial" font-size="10.00">base</text>
<text text-anchor="middle" x="570.529" y="-1140.13" font-family="Arial" font-size="10.00">baseowner</text>
</g>
<!-- p15 -->
<g id="node15" class="node"><title>p15</title>
<a xlink:href="../examples/org/sdmlib/examples/ludo/model/Pawn.java" xlink:title="&lt;TABLE&gt;">
<polygon fill="none" stroke="black" points="612,-802 612,-819 682,-819 682,-802 612,-802"/>
<text text-anchor="start" x="622" y="-808.5" font-family="Arial" font-size="10.00"> </text>
<text text-anchor="start" x="626" y="-808.5" font-family="Arial" font-size="10.00">p15 :Pawn</text>
</a>
<polygon fill="none" stroke="black" points="612,-754 612,-802 682,-802 682,-754 612,-754"/>
<text text-anchor="start" x="617" y="-790" font-family="Arial" font-size="10.00">color = &quot;blue&quot;</text>
<text text-anchor="start" x="617" y="-776" font-family="Arial" font-size="10.00">x = 0</text>
<text text-anchor="start" x="617" y="-762" font-family="Arial" font-size="10.00">y = 0</text>
</g>
<!-- p2&#45;&#45;p15 -->
<g id="edge10" class="edge"><title>p2&#45;&#45;p15</title>
<path fill="none" stroke="black" d="M600.023,-1187.05C622.908,-1169.56 648.474,-1145.04 661,-1116 703.555,-1017.35 675.851,-886.142 658.282,-823.81"/>
<text text-anchor="middle" x="664.695" y="-828.983" font-family="Arial" font-size="10.00">pawns</text>
<text text-anchor="middle" x="604.529" y="-1175.63" font-family="Arial" font-size="10.00">player</text>
</g>
<!-- f6 -->
<g id="node6" class="node"><title>f6</title>
<a xlink:href="../examples/org/sdmlib/examples/ludo/model/Field.java" xlink:title="&lt;TABLE&gt;">
<polygon fill="none" stroke="black" points="400,-858 400,-875 478,-875 478,-858 400,-858"/>
<text text-anchor="start" x="419.5" y="-864.5" font-family="Arial" font-size="10.00"> </text>
<text text-anchor="start" x="423.5" y="-864.5" font-family="Arial" font-size="10.00">f6 :Field</text>
</a>
<polygon fill="none" stroke="black" points="400,-698 400,-858 478,-858 478,-698 400,-698"/>
<text text-anchor="start" x="405" y="-846" font-family="Arial" font-size="10.00">game = &quot;&quot;</text>
<text text-anchor="start" x="405" y="-832" font-family="Arial" font-size="10.00">color = &quot;&quot;</text>
<text text-anchor="start" x="405" y="-818" font-family="Arial" font-size="10.00">starter = &quot;&quot;</text>
<text text-anchor="start" x="405" y="-804" font-family="Arial" font-size="10.00">kind = &quot;&quot;</text>
<text text-anchor="start" x="405" y="-790" font-family="Arial" font-size="10.00">lander = &quot;&quot;</text>
<text text-anchor="start" x="405" y="-776" font-family="Arial" font-size="10.00">point = &quot;&quot;</text>
<text text-anchor="start" x="405" y="-762" font-family="Arial" font-size="10.00">entry = &quot;&quot;</text>
<text text-anchor="start" x="405" y="-748" font-family="Arial" font-size="10.00">landing = &quot;&quot;</text>
<text text-anchor="start" x="405" y="-734" font-family="Arial" font-size="10.00">x = 0</text>
<text text-anchor="start" x="405" y="-720" font-family="Arial" font-size="10.00">y = 0</text>
<text text-anchor="start" x="405" y="-706" font-family="Arial" font-size="10.00">baseowner = &quot;&quot;</text>
</g>
<!-- f5&#45;&#45;f6 -->
<g id="edge16" class="edge"><title>f5&#45;&#45;f6</title>
<path fill="none" stroke="black" d="M475.961,-923.325C472.029,-908.928 467.964,-894.045 464.032,-879.648"/>
<text text-anchor="middle" x="470.497" y="-884.778" font-family="Arial" font-size="10.00">next</text>
<text text-anchor="middle" x="469.496" y="-913.195" font-family="Arial" font-size="10.00">prev</text>
</g>
<!-- p10 -->
<g id="node10" class="node"><title>p10</title>
<a xlink:href="../examples/org/sdmlib/examples/ludo/model/Pawn.java" xlink:title="&lt;TABLE&gt;">
<polygon fill="none" stroke="black" points="512,-802 512,-819 578,-819 578,-802 512,-802"/>
<text text-anchor="start" x="520" y="-808.5" font-family="Arial" font-size="10.00"> </text>
<text text-anchor="start" x="524" y="-808.5" font-family="Arial" font-size="10.00">p10 :Pawn</text>
</a>
<polygon fill="none" stroke="black" points="512,-754 512,-802 578,-802 578,-754 512,-754"/>
<text text-anchor="start" x="517" y="-790" font-family="Arial" font-size="10.00">color = &quot;red&quot;</text>
<text text-anchor="start" x="517" y="-776" font-family="Arial" font-size="10.00">x = 0</text>
<text text-anchor="start" x="517" y="-762" font-family="Arial" font-size="10.00">y = 0</text>
</g>
<!-- f5&#45;&#45;p10 -->
<g id="edge18" class="edge"><title>f5&#45;&#45;p10</title>
<path fill="none" stroke="black" d="M518.77,-923.325C525.567,-888.256 532.925,-850.298 538.112,-823.534"/>
<text text-anchor="middle" x="540.537" y="-830.736" font-family="Arial" font-size="10.00">pawns</text>
<text text-anchor="middle" x="516.345" y="-911.123" font-family="Arial" font-size="10.00">pos</text>
</g>
<!-- f7 -->
<g id="node7" class="node"><title>f7</title>
<a xlink:href="../examples/org/sdmlib/examples/ludo/model/Field.java" xlink:title="&lt;TABLE&gt;">
<polygon fill="none" stroke="black" points="400,-636 400,-653 478,-653 478,-636 400,-636"/>
<text text-anchor="start" x="419.5" y="-642.5" font-family="Arial" font-size="10.00"> </text>
<text text-anchor="start" x="423.5" y="-642.5" font-family="Arial" font-size="10.00">f7 :Field</text>
</a>
<polygon fill="none" stroke="black" points="400,-476 400,-636 478,-636 478,-476 400,-476"/>
<text text-anchor="start" x="405" y="-624" font-family="Arial" font-size="10.00">game = &quot;&quot;</text>
<text text-anchor="start" x="405" y="-610" font-family="Arial" font-size="10.00">color = &quot;&quot;</text>
<text text-anchor="start" x="405" y="-596" font-family="Arial" font-size="10.00">starter = &quot;&quot;</text>
<text text-anchor="start" x="405" y="-582" font-family="Arial" font-size="10.00">kind = &quot;&quot;</text>
<text text-anchor="start" x="405" y="-568" font-family="Arial" font-size="10.00">lander = &quot;&quot;</text>
<text text-anchor="start" x="405" y="-554" font-family="Arial" font-size="10.00">point = &quot;&quot;</text>
<text text-anchor="start" x="405" y="-540" font-family="Arial" font-size="10.00">entry = &quot;&quot;</text>
<text text-anchor="start" x="405" y="-526" font-family="Arial" font-size="10.00">landing = &quot;&quot;</text>
<text text-anchor="start" x="405" y="-512" font-family="Arial" font-size="10.00">x = 0</text>
<text text-anchor="start" x="405" y="-498" font-family="Arial" font-size="10.00">y = 0</text>
<text text-anchor="start" x="405" y="-484" font-family="Arial" font-size="10.00">baseowner = &quot;&quot;</text>
</g>
<!-- f6&#45;&#45;f7 -->
<g id="edge20" class="edge"><title>f6&#45;&#45;f7</title>
<path fill="none" stroke="black" d="M439,-694.293C439,-682.149 439,-669.7 439,-657.558"/>
<text text-anchor="middle" x="443.226" y="-664.121" font-family="Arial" font-size="10.00">next</text>
<text text-anchor="middle" x="434.774" y="-682.73" font-family="Arial" font-size="10.00">prev</text>
</g>
<!-- f8 -->
<g id="node8" class="node"><title>f8</title>
<a xlink:href="../examples/org/sdmlib/examples/ludo/model/Field.java" xlink:title="&lt;TABLE&gt;">
<polygon fill="none" stroke="black" points="400,-407 400,-424 478,-424 478,-407 400,-407"/>
<text text-anchor="start" x="419.5" y="-413.5" font-family="Arial" font-size="10.00"> </text>
<text text-anchor="start" x="423.5" y="-413.5" font-family="Arial" font-size="10.00">f8 :Field</text>
</a>
<polygon fill="none" stroke="black" points="400,-247 400,-407 478,-407 478,-247 400,-247"/>
<text text-anchor="start" x="405" y="-395" font-family="Arial" font-size="10.00">game = &quot;&quot;</text>
<text text-anchor="start" x="405" y="-381" font-family="Arial" font-size="10.00">color = &quot;&quot;</text>
<text text-anchor="start" x="405" y="-367" font-family="Arial" font-size="10.00">starter = &quot;&quot;</text>
<text text-anchor="start" x="405" y="-353" font-family="Arial" font-size="10.00">kind = &quot;&quot;</text>
<text text-anchor="start" x="405" y="-339" font-family="Arial" font-size="10.00">lander = &quot;&quot;</text>
<text text-anchor="start" x="405" y="-325" font-family="Arial" font-size="10.00">point = &quot;&quot;</text>
<text text-anchor="start" x="405" y="-311" font-family="Arial" font-size="10.00">entry = &quot;&quot;</text>
<text text-anchor="start" x="405" y="-297" font-family="Arial" font-size="10.00">landing = &quot;&quot;</text>
<text text-anchor="start" x="405" y="-283" font-family="Arial" font-size="10.00">x = 0</text>
<text text-anchor="start" x="405" y="-269" font-family="Arial" font-size="10.00">y = 0</text>
<text text-anchor="start" x="405" y="-255" font-family="Arial" font-size="10.00">baseowner = &quot;&quot;</text>
</g>
<!-- f7&#45;&#45;f8 -->
<g id="edge22" class="edge"><title>f7&#45;&#45;f8</title>
<path fill="none" stroke="black" d="M439,-472.325C439,-457.928 439,-443.045 439,-428.648"/>
<text text-anchor="middle" x="443.226" y="-435.212" font-family="Arial" font-size="10.00">next</text>
<text text-anchor="middle" x="434.774" y="-460.762" font-family="Arial" font-size="10.00">prev</text>
</g>
<!-- f9 -->
<g id="node9" class="node"><title>f9</title>
<a xlink:href="../examples/org/sdmlib/examples/ludo/model/Field.java" xlink:title="&lt;TABLE&gt;">
<polygon fill="none" stroke="black" points="400,-178 400,-195 478,-195 478,-178 400,-178"/>
<text text-anchor="start" x="419.5" y="-184.5" font-family="Arial" font-size="10.00"> </text>
<text text-anchor="start" x="423.5" y="-184.5" font-family="Arial" font-size="10.00">f9 :Field</text>
</a>
<polygon fill="none" stroke="black" points="400,-4 400,-178 478,-178 478,-4 400,-4"/>
<text text-anchor="start" x="405" y="-166" font-family="Arial" font-size="10.00">next = &quot;&quot;</text>
<text text-anchor="start" x="405" y="-152" font-family="Arial" font-size="10.00">game = &quot;&quot;</text>
<text text-anchor="start" x="405" y="-138" font-family="Arial" font-size="10.00">color = &quot;&quot;</text>
<text text-anchor="start" x="405" y="-124" font-family="Arial" font-size="10.00">starter = &quot;&quot;</text>
<text text-anchor="start" x="405" y="-110" font-family="Arial" font-size="10.00">kind = &quot;&quot;</text>
<text text-anchor="start" x="405" y="-96" font-family="Arial" font-size="10.00">lander = &quot;&quot;</text>
<text text-anchor="start" x="405" y="-82" font-family="Arial" font-size="10.00">point = &quot;&quot;</text>
<text text-anchor="start" x="405" y="-68" font-family="Arial" font-size="10.00">entry = &quot;&quot;</text>
<text text-anchor="start" x="405" y="-54" font-family="Arial" font-size="10.00">landing = &quot;&quot;</text>
<text text-anchor="start" x="405" y="-40" font-family="Arial" font-size="10.00">x = 0</text>
<text text-anchor="start" x="405" y="-26" font-family="Arial" font-size="10.00">y = 0</text>
<text text-anchor="start" x="405" y="-12" font-family="Arial" font-size="10.00">baseowner = &quot;&quot;</text>
</g>
<!-- f8&#45;&#45;f9 -->
<g id="edge24" class="edge"><title>f8&#45;&#45;f9</title>
<path fill="none" stroke="black" d="M439,-243.189C439,-228.976 439,-214.243 439,-199.883"/>
<text text-anchor="middle" x="443.226" y="-206.446" font-family="Arial" font-size="10.00">next</text>
<text text-anchor="middle" x="434.774" y="-231.626" font-family="Arial" font-size="10.00">prev</text>
</g>
<!-- p10&#45;&#45;p11 -->
<g id="edge26" class="edge"><title>p10&#45;&#45;p11</title>
<path fill="none" stroke="black" d="M561.977,-750.385C570.922,-732.85 582.598,-711.725 595,-694 613.609,-667.405 636.972,-640.143 657.619,-617.65"/>
<text text-anchor="middle" x="654.643" y="-624.697" font-family="Arial" font-size="10.00">player</text>
<text text-anchor="middle" x="562.373" y="-737.893" font-family="Arial" font-size="10.00">pawns</text>
</g>
<!-- l12 -->
<g id="node12" class="node"><title>l12</title>
<a xlink:href="../examples/org/sdmlib/examples/ludo/LudoModel.java" xlink:title="&lt;TABLE&gt;">
<polygon fill="none" stroke="black" points="523,-337 523,-354 854,-354 854,-337 523,-337"/>
<text text-anchor="start" x="629" y="-343.5" font-family="Arial" font-size="10.00"> </text>
<text text-anchor="start" x="633" y="-343.5" font-family="Arial" font-size="10.00">l12 :LudoModel$LudoColor</text>
</a>
<polygon fill="none" stroke="black" points="523,-317 523,-337 854,-337 854,-317 523,-317"/>
<text text-anchor="start" x="528" y="-325" font-family="Arial" font-size="10.00">declaringClass = &quot;class org.sdmlib.examples.ludo.LudoModel$LudoColor&quot;</text>
</g>
<!-- p11&#45;&#45;l12 -->
<g id="edge30" class="edge"><title>p11&#45;&#45;l12</title>
<path fill="none" stroke="black" d="M701.145,-486.197C697.176,-441.148 692.471,-387.747 689.905,-358.617"/>
<text text-anchor="middle" x="694.91" y="-364.774" font-family="Arial" font-size="10.00">enumColor</text>
</g>
<!-- f13 -->
<g id="node13" class="node"><title>f13</title>
<a xlink:href="../examples/org/sdmlib/examples/ludo/model/Field.java" xlink:title="&lt;TABLE&gt;">
<polygon fill="none" stroke="black" points="888,-414 888,-431 966,-431 966,-414 888,-414"/>
<text text-anchor="start" x="905" y="-420.5" font-family="Arial" font-size="10.00"> </text>
<text text-anchor="start" x="909" y="-420.5" font-family="Arial" font-size="10.00">f13 :Field</text>
</a>
<polygon fill="none" stroke="black" points="888,-240 888,-414 966,-414 966,-240 888,-240"/>
<text text-anchor="start" x="893" y="-402" font-family="Arial" font-size="10.00">next = &quot;&quot;</text>
<text text-anchor="start" x="893" y="-388" font-family="Arial" font-size="10.00">game = &quot;&quot;</text>
<text text-anchor="start" x="893" y="-374" font-family="Arial" font-size="10.00">color = &quot;red&quot;</text>
<text text-anchor="start" x="893" y="-360" font-family="Arial" font-size="10.00">kind = &quot;start&quot;</text>
<text text-anchor="start" x="893" y="-346" font-family="Arial" font-size="10.00">prev = &quot;&quot;</text>
<text text-anchor="start" x="893" y="-332" font-family="Arial" font-size="10.00">lander = &quot;&quot;</text>
<text text-anchor="start" x="893" y="-318" font-family="Arial" font-size="10.00">point = &quot;&quot;</text>
<text text-anchor="start" x="893" y="-304" font-family="Arial" font-size="10.00">entry = &quot;&quot;</text>
<text text-anchor="start" x="893" y="-290" font-family="Arial" font-size="10.00">landing = &quot;&quot;</text>
<text text-anchor="start" x="893" y="-276" font-family="Arial" font-size="10.00">x = 0</text>
<text text-anchor="start" x="893" y="-262" font-family="Arial" font-size="10.00">y = 0</text>
<text text-anchor="start" x="893" y="-248" font-family="Arial" font-size="10.00">baseowner = &quot;&quot;</text>
</g>
<!-- p11&#45;&#45;f13 -->
<g id="edge28" class="edge"><title>p11&#45;&#45;f13</title>
<path fill="none" stroke="black" d="M758.55,-531.605C792.799,-507.959 837.555,-473.576 870,-436 873.37,-432.097 876.643,-427.966 879.805,-423.693"/>
<text text-anchor="middle" x="877.779" y="-430.985" font-family="Arial" font-size="10.00">start</text>
<text text-anchor="middle" x="763.545" y="-520.442" font-family="Arial" font-size="10.00">starter</text>
</g>
<!-- f14&#45;&#45;p15 -->
<g id="edge32" class="edge"><title>f14&#45;&#45;p15</title>
<path fill="none" stroke="black" d="M625.502,-916.425C631.03,-883.401 636.845,-848.663 641.031,-823.654"/>
<text text-anchor="middle" x="643.703" y="-830.79" font-family="Arial" font-size="10.00">pawns</text>
<text text-anchor="middle" x="622.83" y="-904.288" font-family="Arial" font-size="10.00">pos</text>
</g>
</g>
</svg>
