<?xml version="1.0" encoding="UTF-8" standalone="no"?>
<!DOCTYPE svg PUBLIC "-//W3C//DTD SVG 1.1//EN"
 "http://www.w3.org/Graphics/SVG/1.1/DTD/svg11.dtd">
<!-- Generated by graphviz version 2.28.0 (20110507.0327)
 -->
<!-- Title: ObjectDiagram Pages: 1 -->
<svg width="427pt" height="844pt"
 viewBox="0.00 0.00 426.58 844.00" xmlns="http://www.w3.org/2000/svg" xmlns:xlink="http://www.w3.org/1999/xlink">
<g id="graph1" class="graph" transform="scale(1 1) rotate(0) translate(4 840)">
<title>ObjectDiagram</title>
<polygon fill="white" stroke="white" points="-4,5 -4,-840 423.578,-840 423.578,5 -4,5"/>
<g id="graph2" class="cluster"><title>cluster_n11</title>
<polygon fill="none" stroke="grey" points="295.578,-439 295.578,-548 410.578,-548 410.578,-439 295.578,-439"/>
<image xlink:href="forbiddensign.svg" width="30px" height="30px" preserveAspectRatio="xMinYMin meet" x="308.578" y="-539"/>
<text text-anchor="start" x="345.078" y="-520.8" font-family="Times New Roman,serif" font-size="14.00">NAC n11</text>
</g>
<!-- p1 -->
<g id="node1" class="node"><title>p1</title>
<polygon fill="aliceblue" stroke="aliceblue" points="174.078,-794.5 174.078,-831.5 233.078,-831.5 233.078,-794.5 174.078,-794.5"/>
<polygon fill="none" stroke="black" points="174.578,-814 174.578,-831 233.578,-831 233.578,-814 174.578,-814"/>
<text text-anchor="start" x="178.078" y="-820.5" font-family="Times New Roman,serif" font-size="10.00"> </text>
<text text-anchor="start" x="181.078" y="-820.5" font-family="Times New Roman,serif" font-size="10.00"> p1 :PawnPO </text>
<polygon fill="none" stroke="black" points="174.578,-794 174.578,-814 233.578,-814 233.578,-794 174.578,-794"/>
<text text-anchor="start" x="201.578" y="-802" font-family="Times New Roman,serif" font-size="10.00"> &#160;</text>
</g>
<!-- p3 -->
<g id="node2" class="node"><title>p3</title>
<polygon fill="aliceblue" stroke="aliceblue" points="216.078,-698.5 216.078,-735.5 269.078,-735.5 269.078,-698.5 216.078,-698.5"/>
<polygon fill="none" stroke="black" points="216.578,-718 216.578,-735 269.578,-735 269.578,-718 216.578,-718"/>
<text text-anchor="start" x="220.078" y="-724.5" font-family="Times New Roman,serif" font-size="10.00"> </text>
<text text-anchor="start" x="223.078" y="-724.5" font-family="Times New Roman,serif" font-size="10.00"> p3 :PlayerPO </text>
<polygon fill="none" stroke="black" points="216.578,-698 216.578,-718 269.578,-718 269.578,-698 216.578,-698"/>
<text text-anchor="start" x="240.578" y="-706" font-family="Times New Roman,serif" font-size="10.00"> &#160;</text>
</g>
<!-- p1&#45;&#45;p3 -->
<g id="edge15" class="edge"><title>p1&#45;&#45;p3</title>
<path fill="none" stroke="black" d="M212.623,-790.198C218.924,-775.012 227.292,-754.844 233.581,-739.684"/>
<text text-anchor="middle" x="234.012" y="-747.174" font-family="Times New Roman,serif" font-size="10.00">player</text>
</g>
<!-- f7 -->
<g id="node4" class="node"><title>f7</title>
<polygon fill="aliceblue" stroke="aliceblue" points="311.078,-581.5 311.078,-618.5 362.078,-618.5 362.078,-581.5 311.078,-581.5"/>
<polygon fill="none" stroke="black" points="311.578,-601 311.578,-618 362.578,-618 362.578,-601 311.578,-601"/>
<text text-anchor="start" x="317.078" y="-607.5" font-family="Times New Roman,serif" font-size="10.00"> </text>
<text text-anchor="start" x="320.078" y="-607.5" font-family="Times New Roman,serif" font-size="10.00"> f7 :FieldPO </text>
<polygon fill="none" stroke="black" points="311.578,-581 311.578,-601 362.578,-601 362.578,-581 311.578,-581"/>
<text text-anchor="start" x="317.078" y="-589" font-family="Times New Roman,serif" font-size="10.00"> kind == base </text>
</g>
<!-- p1&#45;&#45;f7 -->
<g id="edge19" class="edge"><title>p1&#45;&#45;f7</title>
<path fill="none" stroke="black" d="M241.177,-792.477C256.789,-782.745 273.939,-769.683 285.578,-754 315.614,-713.529 328.625,-654.33 333.704,-622.747"/>
<text text-anchor="middle" x="336.326" y="-629.897" font-family="Times New Roman,serif" font-size="10.00">pos</text>
</g>
<!-- f9 -->
<g id="node5" class="node"><title>f9</title>
<polygon fill="aliceblue" stroke="aliceblue" points="129.078,-581.5 129.078,-618.5 188.078,-618.5 188.078,-581.5 129.078,-581.5"/>
<polygon fill="none" stroke="black" points="129.578,-601 129.578,-618 188.578,-618 188.578,-601 129.578,-601"/>
<text text-anchor="start" x="133.078" y="-607.5" font-family="Times New Roman,serif" font-size="10.00"> </text>
<text text-anchor="start" x="136.078" y="-607.5" font-family="Times New Roman,serif" font-size="10.00"> f9 :FieldPO </text>
<polygon fill="none" stroke="black" points="129.578,-581 129.578,-601 188.578,-601 188.578,-581 129.578,-581"/>
<text text-anchor="start" x="156.578" y="-589" font-family="Times New Roman,serif" font-size="10.00"> &#160;</text>
</g>
<!-- p1&#45;&#45;f9 -->
<g id="edge29" class="edge"><title>p1&#45;&#45;f9</title>
<path fill="none" stroke="green" d="M198.931,-790.214C190.286,-749.676 171.825,-663.115 163.199,-622.667"/>
<text text-anchor="middle" x="169.222" y="-628.15" font-family="Times New Roman,serif" font-size="10.00" fill="green">pos</text>
</g>
<!-- p2 -->
<g id="node8" class="node"><title>p2</title>
<polygon fill="none" stroke="black" points="26.5777,-732 26.5777,-749 94.5777,-749 94.5777,-732 26.5777,-732"/>
<text text-anchor="start" x="40.5777" y="-738.5" font-family="Times New Roman,serif" font-size="10.00"> </text>
<text text-anchor="start" x="43.5777" y="-738.5" font-family="Times New Roman,serif" font-size="10.00">p2 :Pawn</text>
<polygon fill="none" stroke="black" points="26.5777,-684 26.5777,-732 94.5777,-732 94.5777,-684 26.5777,-684"/>
<text text-anchor="start" x="32.0777" y="-720" font-family="Times New Roman,serif" font-size="10.00">color = &quot;blue&quot;</text>
<text text-anchor="start" x="51.0777" y="-706" font-family="Times New Roman,serif" font-size="10.00">x = 0</text>
<text text-anchor="start" x="50.5777" y="-692" font-family="Times New Roman,serif" font-size="10.00">y = 0</text>
</g>
<!-- p1&#45;&#45;p2 -->
<g id="edge3" class="edge"><title>p1&#45;&#45;p2</title>
<path fill="none" stroke="black" stroke-dasharray="1,5" d="M170.771,-790.435C150.568,-777.155 124.469,-759.998 102.741,-745.716"/>
<text text-anchor="middle" x="112.636" y="-744.663" font-family="Times New Roman,serif" font-size="10.00">match</text>
</g>
<!-- d5 -->
<g id="node3" class="node"><title>d5</title>
<polygon fill="aliceblue" stroke="aliceblue" points="222.078,-581.5 222.078,-618.5 277.078,-618.5 277.078,-581.5 222.078,-581.5"/>
<polygon fill="none" stroke="black" points="222.578,-601 222.578,-618 277.578,-618 277.578,-601 222.578,-601"/>
<text text-anchor="start" x="226.078" y="-607.5" font-family="Times New Roman,serif" font-size="10.00"> </text>
<text text-anchor="start" x="229.078" y="-607.5" font-family="Times New Roman,serif" font-size="10.00"> d5 :DicePO </text>
<polygon fill="none" stroke="black" points="222.578,-581 222.578,-601 277.578,-601 277.578,-581 222.578,-581"/>
<text text-anchor="start" x="229.578" y="-589" font-family="Times New Roman,serif" font-size="10.00"> value == 6 </text>
</g>
<!-- p3&#45;&#45;d5 -->
<g id="edge17" class="edge"><title>p3&#45;&#45;d5</title>
<path fill="none" stroke="black" d="M243.894,-694.369C245.146,-673.809 247.017,-643.062 248.267,-622.534"/>
<text text-anchor="middle" x="251.935" y="-629.337" font-family="Times New Roman,serif" font-size="10.00">dice</text>
</g>
<!-- p3&#45;&#45;f7 -->
<g id="edge21" class="edge"><title>p3&#45;&#45;f7</title>
<path fill="none" stroke="black" d="M260.258,-694.369C277.064,-673.809 302.197,-643.062 318.976,-622.534"/>
<text text-anchor="middle" x="316.513" y="-629.725" font-family="Times New Roman,serif" font-size="10.00">base</text>
</g>
<!-- p3&#45;&#45;f9 -->
<g id="edge23" class="edge"><title>p3&#45;&#45;f9</title>
<path fill="none" stroke="black" d="M226.778,-694.369C211.76,-673.809 189.301,-643.062 174.307,-622.534"/>
<text text-anchor="middle" x="183.065" y="-624.859" font-family="Times New Roman,serif" font-size="10.00">start</text>
</g>
<!-- p4 -->
<g id="node9" class="node"><title>p4</title>
<polygon fill="none" stroke="black" points="26.5777,-622 26.5777,-639 95.5777,-639 95.5777,-622 26.5777,-622"/>
<text text-anchor="start" x="39.5777" y="-628.5" font-family="Times New Roman,serif" font-size="10.00"> </text>
<text text-anchor="start" x="42.5777" y="-628.5" font-family="Times New Roman,serif" font-size="10.00">p4 :Player</text>
<polygon fill="none" stroke="black" points="26.5777,-560 26.5777,-622 95.5777,-622 95.5777,-560 26.5777,-560"/>
<text text-anchor="start" x="32.5777" y="-610" font-family="Times New Roman,serif" font-size="10.00">color = &quot;blue&quot;</text>
<text text-anchor="start" x="32.0777" y="-596" font-family="Times New Roman,serif" font-size="10.00">name = &quot;Tom&quot;</text>
<text text-anchor="start" x="51.5777" y="-582" font-family="Times New Roman,serif" font-size="10.00">x = 0</text>
<text text-anchor="start" x="51.0777" y="-568" font-family="Times New Roman,serif" font-size="10.00">y = 0</text>
</g>
<!-- p3&#45;&#45;p4 -->
<g id="edge5" class="edge"><title>p3&#45;&#45;p4</title>
<path fill="none" stroke="black" stroke-dasharray="1,5" d="M208.106,-699.42C181.032,-685.845 142.817,-665.442 111.578,-644 108.713,-642.034 105.82,-639.938 102.943,-637.77"/>
<text text-anchor="middle" x="112.728" y="-637.332" font-family="Times New Roman,serif" font-size="10.00">match</text>
</g>
<!-- d6 -->
<g id="node10" class="node"><title>d6</title>
<polygon fill="none" stroke="black" points="128.578,-471 128.578,-488 176.578,-488 176.578,-471 128.578,-471"/>
<text text-anchor="start" x="134.578" y="-477.5" font-family="Times New Roman,serif" font-size="10.00"> </text>
<text text-anchor="start" x="137.578" y="-477.5" font-family="Times New Roman,serif" font-size="10.00">d6 :Dice</text>
<polygon fill="none" stroke="black" points="128.578,-451 128.578,-471 176.578,-471 176.578,-451 128.578,-451"/>
<text text-anchor="start" x="134.078" y="-459" font-family="Times New Roman,serif" font-size="10.00">value = 6</text>
</g>
<!-- d5&#45;&#45;d6 -->
<g id="edge7" class="edge"><title>d5&#45;&#45;d6</title>
<path fill="none" stroke="black" stroke-dasharray="1,5" d="M228.147,-577.397C220.859,-570.358 212.54,-562.649 204.578,-556 199.938,-552.125 197.544,-552.562 193.578,-548 179.17,-531.427 167.93,-508.925 160.891,-492.528"/>
<text text-anchor="middle" x="168.406" y="-496.625" font-family="Times New Roman,serif" font-size="10.00">match</text>
</g>
<!-- f8 -->
<g id="node18" class="node"><title>f8</title>
<polygon fill="none" stroke="black" points="210.578,-492 210.578,-509 278.578,-509 278.578,-492 210.578,-492"/>
<text text-anchor="start" x="227.078" y="-498.5" font-family="Times New Roman,serif" font-size="10.00"> </text>
<text text-anchor="start" x="230.078" y="-498.5" font-family="Times New Roman,serif" font-size="10.00">f8 :Field</text>
<polygon fill="none" stroke="black" points="210.578,-430 210.578,-492 278.578,-492 278.578,-430 210.578,-430"/>
<text text-anchor="start" x="216.078" y="-480" font-family="Times New Roman,serif" font-size="10.00">color = &quot;blue&quot;</text>
<text text-anchor="start" x="217.078" y="-466" font-family="Times New Roman,serif" font-size="10.00">kind = &quot;base&quot;</text>
<text text-anchor="start" x="235.078" y="-452" font-family="Times New Roman,serif" font-size="10.00">x = 0</text>
<text text-anchor="start" x="234.578" y="-438" font-family="Times New Roman,serif" font-size="10.00">y = 0</text>
</g>
<!-- f7&#45;&#45;f8 -->
<g id="edge9" class="edge"><title>f7&#45;&#45;f8</title>
<path fill="none" stroke="black" stroke-dasharray="1,5" d="M315.986,-577.365C307.999,-568.548 299.007,-558.073 291.578,-548 283.676,-537.287 275.84,-525.199 268.897,-513.83"/>
<text text-anchor="middle" x="277.244" y="-516.837" font-family="Times New Roman,serif" font-size="10.00">match</text>
</g>
<!-- p12 -->
<g id="node7" class="node"><title>p12</title>
<polygon fill="aliceblue" stroke="aliceblue" points="313.078,-451.5 313.078,-488.5 376.078,-488.5 376.078,-451.5 313.078,-451.5"/>
<polygon fill="none" stroke="black" points="313.578,-471 313.578,-488 376.578,-488 376.578,-471 313.578,-471"/>
<text text-anchor="start" x="317.078" y="-477.5" font-family="Times New Roman,serif" font-size="10.00"> </text>
<text text-anchor="start" x="320.078" y="-477.5" font-family="Times New Roman,serif" font-size="10.00"> p12 :PawnPO </text>
<polygon fill="none" stroke="black" points="313.578,-451 313.578,-471 376.578,-471 376.578,-451 313.578,-451"/>
<text text-anchor="start" x="342.578" y="-459" font-family="Times New Roman,serif" font-size="10.00"> &#160;</text>
</g>
<!-- f9&#45;&#45;p12 -->
<g id="edge25" class="edge"><title>f9&#45;&#45;p12</title>
<path fill="none" stroke="black" d="M176.103,-577.301C183.912,-569.187 193.785,-560.786 204.578,-556 224.147,-547.321 282.525,-559.505 300.578,-548 320.314,-535.422 332.125,-510.635 338.464,-492.571"/>
<text text-anchor="middle" x="339.29" y="-500.037" font-family="Times New Roman,serif" font-size="10.00">pawns</text>
</g>
<!-- f10 -->
<g id="node11" class="node"><title>f10</title>
<polygon fill="none" stroke="black" points="26.5777,-492 26.5777,-509 94.5777,-509 94.5777,-492 26.5777,-492"/>
<text text-anchor="start" x="40.5777" y="-498.5" font-family="Times New Roman,serif" font-size="10.00"> </text>
<text text-anchor="start" x="43.5777" y="-498.5" font-family="Times New Roman,serif" font-size="10.00">f10 :Field</text>
<polygon fill="none" stroke="black" points="26.5777,-430 26.5777,-492 94.5777,-492 94.5777,-430 26.5777,-430"/>
<text text-anchor="start" x="32.0777" y="-480" font-family="Times New Roman,serif" font-size="10.00">color = &quot;blue&quot;</text>
<text text-anchor="start" x="33.0777" y="-466" font-family="Times New Roman,serif" font-size="10.00">kind = &quot;start&quot;</text>
<text text-anchor="start" x="51.0777" y="-452" font-family="Times New Roman,serif" font-size="10.00">x = 0</text>
<text text-anchor="start" x="50.5777" y="-438" font-family="Times New Roman,serif" font-size="10.00">y = 0</text>
</g>
<!-- f9&#45;&#45;f10 -->
<g id="edge11" class="edge"><title>f9&#45;&#45;f10</title>
<path fill="none" stroke="black" stroke-dasharray="1,5" d="M137.188,-577.337C128.863,-568.515 119.451,-558.045 111.578,-548 103.17,-537.273 94.7228,-525.181 87.1896,-513.812"/>
<text text-anchor="middle" x="95.7329" y="-516.51" font-family="Times New Roman,serif" font-size="10.00">match</text>
</g>
<!-- p12&#45;&#45;p3 -->
<g id="edge27" class="edge"><title>p12&#45;&#45;p3</title>
<path fill="none" stroke="black" d="M357.87,-492.625C377.189,-527.116 407.707,-595.618 378.578,-644 356.667,-680.391 309.511,-699.352 276.921,-708.496"/>
<text text-anchor="middle" x="284.391" y="-699.349" font-family="Times New Roman,serif" font-size="10.00">player</text>
</g>
<!-- p13 -->
<g id="node16" class="node"><title>p13</title>
<polygon fill="none" stroke="black" points="219.578,-368 219.578,-385 282.578,-385 282.578,-368 219.578,-368"/>
<text text-anchor="start" x="229.078" y="-374.5" font-family="Times New Roman,serif" font-size="10.00"> </text>
<text text-anchor="start" x="232.078" y="-374.5" font-family="Times New Roman,serif" font-size="10.00">p13 :Pawn</text>
<polygon fill="none" stroke="black" points="219.578,-320 219.578,-368 282.578,-368 282.578,-320 219.578,-320"/>
<text text-anchor="start" x="225.078" y="-356" font-family="Times New Roman,serif" font-size="10.00">color = &quot;red&quot;</text>
<text text-anchor="start" x="241.578" y="-342" font-family="Times New Roman,serif" font-size="10.00">x = 0</text>
<text text-anchor="start" x="241.078" y="-328" font-family="Times New Roman,serif" font-size="10.00">y = 0</text>
</g>
<!-- p12&#45;&#45;p13 -->
<g id="edge13" class="edge"><title>p12&#45;&#45;p13</title>
<path fill="none" stroke="black" stroke-dasharray="1,5" d="M326.897,-447.369C313.601,-431.103 295.094,-408.461 279.634,-389.548"/>
<text text-anchor="middle" x="288.642" y="-391.39" font-family="Times New Roman,serif" font-size="10.00">match</text>
</g>
<!-- p2&#45;&#45;p4 -->
<g id="edge45" class="edge"><title>p2&#45;&#45;p4</title>
<path fill="none" stroke="black" d="M60.5777,-680.244C60.5777,-668.639 60.5777,-655.649 60.5777,-643.597"/>
<text text-anchor="middle" x="64.8039" y="-650.16" font-family="Times New Roman,serif" font-size="10.00">player</text>
<text text-anchor="middle" x="56.3516" y="-668.681" font-family="Times New Roman,serif" font-size="10.00">pawns</text>
</g>
<!-- p2&#45;&#45;f10 -->
<g id="edge43" class="edge"><title>p2&#45;&#45;f10</title>
<path fill="none" stroke="black" d="M28.1807,-680.355C20.2016,-669.453 12.7525,-656.911 8.57774,-644 -3.45555,-606.786 -2.02442,-593.647 8.57774,-556 12.7045,-541.347 20.1386,-526.723 28.1187,-513.841"/>
<text text-anchor="middle" x="27.0317" y="-521.282" font-family="Times New Roman,serif" font-size="10.00">pos</text>
<text text-anchor="middle" x="19.4692" y="-672.945" font-family="Times New Roman,serif" font-size="10.00">pawns</text>
</g>
<!-- p4&#45;&#45;d6 -->
<g id="edge47" class="edge"><title>p4&#45;&#45;d6</title>
<path fill="none" stroke="black" d="M102.893,-558.769C105.959,-555.235 108.895,-551.623 111.578,-548 124.465,-530.594 135.748,-508.608 143.198,-492.589"/>
<text text-anchor="middle" x="143.151" y="-500.089" font-family="Times New Roman,serif" font-size="10.00">dice</text>
<text text-anchor="middle" x="105.61" y="-546.645" font-family="Times New Roman,serif" font-size="10.00">player</text>
</g>
<!-- p4&#45;&#45;f10 -->
<g id="edge49" class="edge"><title>p4&#45;&#45;f10</title>
<path fill="none" stroke="black" d="M60.5777,-556.378C60.5777,-542.706 60.5777,-527.563 60.5777,-513.872"/>
<text text-anchor="middle" x="64.8039" y="-520.436" font-family="Times New Roman,serif" font-size="10.00">start</text>
<text text-anchor="middle" x="56.3516" y="-544.815" font-family="Times New Roman,serif" font-size="10.00">starter</text>
</g>
<!-- p4&#45;&#45;f8 -->
<g id="edge51" class="edge"><title>p4&#45;&#45;f8</title>
<path fill="none" stroke="black" d="M103.078,-560.249C105.855,-558.651 108.696,-557.214 111.578,-556 145.321,-541.778 162.199,-566.874 193.578,-548 207.043,-539.9 217.673,-526.718 225.665,-513.532"/>
<text text-anchor="middle" x="224.431" y="-520.955" font-family="Times New Roman,serif" font-size="10.00">base</text>
<text text-anchor="middle" x="108.869" y="-549.597" font-family="Times New Roman,serif" font-size="10.00">baseowner</text>
</g>
<!-- f14 -->
<g id="node12" class="node"><title>f14</title>
<polygon fill="none" stroke="black" points="37.5777,-361 37.5777,-378 84.5777,-378 84.5777,-361 37.5777,-361"/>
<text text-anchor="start" x="41.0777" y="-367.5" font-family="Times New Roman,serif" font-size="10.00"> </text>
<text text-anchor="start" x="44.0777" y="-367.5" font-family="Times New Roman,serif" font-size="10.00">f14 :Field</text>
<polygon fill="none" stroke="black" points="37.5777,-327 37.5777,-361 84.5777,-361 84.5777,-327 37.5777,-327"/>
<text text-anchor="start" x="51.5777" y="-349" font-family="Times New Roman,serif" font-size="10.00">x = 0</text>
<text text-anchor="start" x="51.0777" y="-335" font-family="Times New Roman,serif" font-size="10.00">y = 0</text>
</g>
<!-- f10&#45;&#45;f14 -->
<g id="edge31" class="edge"><title>f10&#45;&#45;f14</title>
<path fill="none" stroke="black" d="M60.5777,-426.178C60.5777,-411.618 60.5777,-395.713 60.5777,-382.547"/>
<text text-anchor="middle" x="64.8039" y="-389.11" font-family="Times New Roman,serif" font-size="10.00">next</text>
<text text-anchor="middle" x="56.3516" y="-414.615" font-family="Times New Roman,serif" font-size="10.00">prev</text>
</g>
<!-- f10&#45;&#45;p13 -->
<g id="edge33" class="edge"><title>f10&#45;&#45;p13</title>
<path fill="none" stroke="black" d="M102.598,-432.362C105.583,-430.138 108.593,-427.995 111.578,-426 143.549,-404.63 182.644,-384.887 211.219,-371.501"/>
<text text-anchor="middle" x="204.838" y="-376.7" font-family="Times New Roman,serif" font-size="10.00">pawns</text>
<text text-anchor="middle" x="107.358" y="-421.068" font-family="Times New Roman,serif" font-size="10.00">pos</text>
</g>
<!-- f15 -->
<g id="node13" class="node"><title>f15</title>
<polygon fill="none" stroke="black" points="37.5777,-244 37.5777,-261 84.5777,-261 84.5777,-244 37.5777,-244"/>
<text text-anchor="start" x="41.0777" y="-250.5" font-family="Times New Roman,serif" font-size="10.00"> </text>
<text text-anchor="start" x="44.0777" y="-250.5" font-family="Times New Roman,serif" font-size="10.00">f15 :Field</text>
<polygon fill="none" stroke="black" points="37.5777,-210 37.5777,-244 84.5777,-244 84.5777,-210 37.5777,-210"/>
<text text-anchor="start" x="51.5777" y="-232" font-family="Times New Roman,serif" font-size="10.00">x = 0</text>
<text text-anchor="start" x="51.0777" y="-218" font-family="Times New Roman,serif" font-size="10.00">y = 0</text>
</g>
<!-- f14&#45;&#45;f15 -->
<g id="edge35" class="edge"><title>f14&#45;&#45;f15</title>
<path fill="none" stroke="black" d="M60.5777,-323.277C60.5777,-305.714 60.5777,-283.324 60.5777,-265.755"/>
<text text-anchor="middle" x="64.8039" y="-272.318" font-family="Times New Roman,serif" font-size="10.00">next</text>
<text text-anchor="middle" x="56.3516" y="-311.714" font-family="Times New Roman,serif" font-size="10.00">prev</text>
</g>
<!-- f16 -->
<g id="node14" class="node"><title>f16</title>
<polygon fill="none" stroke="black" points="37.5777,-134 37.5777,-151 84.5777,-151 84.5777,-134 37.5777,-134"/>
<text text-anchor="start" x="41.0777" y="-140.5" font-family="Times New Roman,serif" font-size="10.00"> </text>
<text text-anchor="start" x="44.0777" y="-140.5" font-family="Times New Roman,serif" font-size="10.00">f16 :Field</text>
<polygon fill="none" stroke="black" points="37.5777,-100 37.5777,-134 84.5777,-134 84.5777,-100 37.5777,-100"/>
<text text-anchor="start" x="51.5777" y="-122" font-family="Times New Roman,serif" font-size="10.00">x = 0</text>
<text text-anchor="start" x="51.0777" y="-108" font-family="Times New Roman,serif" font-size="10.00">y = 0</text>
</g>
<!-- f15&#45;&#45;f16 -->
<g id="edge37" class="edge"><title>f15&#45;&#45;f16</title>
<path fill="none" stroke="black" d="M60.5777,-206.342C60.5777,-190.719 60.5777,-171.436 60.5777,-155.792"/>
<text text-anchor="middle" x="64.8039" y="-162.355" font-family="Times New Roman,serif" font-size="10.00">next</text>
<text text-anchor="middle" x="56.3516" y="-194.778" font-family="Times New Roman,serif" font-size="10.00">prev</text>
</g>
<!-- f17 -->
<g id="node15" class="node"><title>f17</title>
<polygon fill="none" stroke="black" points="37.5777,-38 37.5777,-55 84.5777,-55 84.5777,-38 37.5777,-38"/>
<text text-anchor="start" x="41.0777" y="-44.5" font-family="Times New Roman,serif" font-size="10.00"> </text>
<text text-anchor="start" x="44.0777" y="-44.5" font-family="Times New Roman,serif" font-size="10.00">f17 :Field</text>
<polygon fill="none" stroke="black" points="37.5777,-4 37.5777,-38 84.5777,-38 84.5777,-4 37.5777,-4"/>
<text text-anchor="start" x="51.5777" y="-26" font-family="Times New Roman,serif" font-size="10.00">x = 0</text>
<text text-anchor="start" x="51.0777" y="-12" font-family="Times New Roman,serif" font-size="10.00">y = 0</text>
</g>
<!-- f16&#45;&#45;f17 -->
<g id="edge39" class="edge"><title>f16&#45;&#45;f17</title>
<path fill="none" stroke="black" d="M60.5777,-96.2861C60.5777,-84.624 60.5777,-71.1822 60.5777,-59.538"/>
<text text-anchor="middle" x="64.8039" y="-66.1011" font-family="Times New Roman,serif" font-size="10.00">next</text>
<text text-anchor="middle" x="56.3516" y="-84.7231" font-family="Times New Roman,serif" font-size="10.00">prev</text>
</g>
<!-- p18 -->
<g id="node17" class="node"><title>p18</title>
<polygon fill="none" stroke="black" points="211.578,-258 211.578,-275 289.578,-275 289.578,-258 211.578,-258"/>
<text text-anchor="start" x="227.078" y="-264.5" font-family="Times New Roman,serif" font-size="10.00"> </text>
<text text-anchor="start" x="230.078" y="-264.5" font-family="Times New Roman,serif" font-size="10.00">p18 :Player</text>
<polygon fill="none" stroke="black" points="211.578,-196 211.578,-258 289.578,-258 289.578,-196 211.578,-196"/>
<text text-anchor="start" x="224.578" y="-246" font-family="Times New Roman,serif" font-size="10.00">color = &quot;red&quot;</text>
<text text-anchor="start" x="217.078" y="-232" font-family="Times New Roman,serif" font-size="10.00">name = &quot;Sabine&quot;</text>
<text text-anchor="start" x="241.078" y="-218" font-family="Times New Roman,serif" font-size="10.00">x = 0</text>
<text text-anchor="start" x="240.578" y="-204" font-family="Times New Roman,serif" font-size="10.00">y = 0</text>
</g>
<!-- p13&#45;&#45;p18 -->
<g id="edge41" class="edge"><title>p13&#45;&#45;p18</title>
<path fill="none" stroke="black" d="M250.578,-316.244C250.578,-304.639 250.578,-291.649 250.578,-279.597"/>
<text text-anchor="middle" x="254.804" y="-286.16" font-family="Times New Roman,serif" font-size="10.00">player</text>
<text text-anchor="middle" x="246.352" y="-304.681" font-family="Times New Roman,serif" font-size="10.00">pawns</text>
</g>
</g>
</svg>
