<?xml version="1.0" encoding="UTF-8" standalone="no"?>
<!DOCTYPE svg PUBLIC "-//W3C//DTD SVG 1.1//EN"
 "http://www.w3.org/Graphics/SVG/1.1/DTD/svg11.dtd">
<!-- Generated by graphviz version 2.28.0 (20110507.0327)
 -->
<!-- Title: ObjectDiagram Pages: 1 -->
<svg width="326pt" height="486pt"
 viewBox="0.00 0.00 326.00 486.00" xmlns="http://www.w3.org/2000/svg" xmlns:xlink="http://www.w3.org/1999/xlink">
<g id="graph1" class="graph" transform="scale(1 1) rotate(0) translate(4 482)">
<title>ObjectDiagram</title>
<polygon fill="white" stroke="white" points="-4,5 -4,-482 323,-482 323,5 -4,5"/>
<!-- p1 -->
<g id="node1" class="node"><title>p1</title>
<a xlink:href="../examples/org/sdmlib/examples/ludo/Player.java" xlink:title="&lt;TABLE&gt;">
<polygon fill="none" stroke="black" points="137,-456 137,-473 206,-473 206,-456 137,-456"/>
<text text-anchor="start" x="150" y="-462.5" font-family="Times New Roman,serif" font-size="10.00"> </text>
<text text-anchor="start" x="153" y="-462.5" font-family="Times New Roman,serif" font-size="10.00">p1 :Player</text>
</a>
<polygon fill="none" stroke="black" points="137,-422 137,-456 206,-456 206,-422 137,-422"/>
<text text-anchor="start" x="142" y="-444" font-family="Times New Roman,serif" font-size="10.00">color = &quot;blue&quot;</text>
<text text-anchor="start" x="142" y="-430" font-family="Times New Roman,serif" font-size="10.00">name = &quot;Tom&quot;</text>
</g>
<!-- d2 -->
<g id="node2" class="node"><title>d2</title>
<a xlink:href="../examples/org/sdmlib/examples/ludo/Dice.java" xlink:title="&lt;TABLE&gt;">
<polygon fill="none" stroke="black" points="20,-353 20,-370 68,-370 68,-353 20,-353"/>
<text text-anchor="start" x="26" y="-359.5" font-family="Times New Roman,serif" font-size="10.00"> </text>
<text text-anchor="start" x="29" y="-359.5" font-family="Times New Roman,serif" font-size="10.00">d2 :Dice</text>
</a>
<polygon fill="none" stroke="black" points="20,-333 20,-353 68,-353 68,-333 20,-333"/>
<text text-anchor="start" x="25" y="-341" font-family="Times New Roman,serif" font-size="10.00">value = 6</text>
</g>
<!-- p1&#45;&#45;d2 -->
<g id="edge2" class="edge"><title>p1&#45;&#45;d2</title>
<path fill="none" stroke="black" d="M132.206,-418.286C113.24,-404.248 90.7902,-387.632 73.2859,-374.676"/>
<text text-anchor="middle" x="83.0848" y="-374.171" font-family="Times New Roman,serif" font-size="10.00">dice</text>
<text text-anchor="middle" x="122.407" y="-413.791" font-family="Times New Roman,serif" font-size="10.00">player</text>
</g>
<!-- f3 -->
<g id="node3" class="node"><title>f3</title>
<a xlink:href="../examples/org/sdmlib/examples/ludo/Field.java" xlink:title="&lt;TABLE&gt;">
<polygon fill="none" stroke="black" points="102,-360 102,-377 170,-377 170,-360 102,-360"/>
<text text-anchor="start" x="118.5" y="-366.5" font-family="Times New Roman,serif" font-size="10.00"> </text>
<text text-anchor="start" x="121.5" y="-366.5" font-family="Times New Roman,serif" font-size="10.00">f3 :Field</text>
</a>
<polygon fill="none" stroke="black" points="102,-326 102,-360 170,-360 170,-326 102,-326"/>
<text text-anchor="start" x="107" y="-348" font-family="Times New Roman,serif" font-size="10.00">color = &quot;blue&quot;</text>
<text text-anchor="start" x="107" y="-334" font-family="Times New Roman,serif" font-size="10.00">kind = &quot;start&quot;</text>
</g>
<!-- p1&#45;&#45;f3 -->
<g id="edge4" class="edge"><title>p1&#45;&#45;f3</title>
<path fill="none" stroke="black" d="M160.309,-418.286C155.966,-406.624 150.961,-393.182 146.626,-381.538"/>
<text text-anchor="middle" x="153.749" y="-386.057" font-family="Times New Roman,serif" font-size="10.00">start</text>
<text text-anchor="middle" x="153.186" y="-408.767" font-family="Times New Roman,serif" font-size="10.00">starter</text>
</g>
<!-- p11 -->
<g id="node10" class="node"><title>p11</title>
<a xlink:href="../examples/org/sdmlib/examples/ludo/Pawn.java" xlink:title="&lt;TABLE&gt;">
<polygon fill="none" stroke="black" points="187,-264 187,-281 255,-281 255,-264 187,-264"/>
<text text-anchor="start" x="199" y="-270.5" font-family="Times New Roman,serif" font-size="10.00"> </text>
<text text-anchor="start" x="202" y="-270.5" font-family="Times New Roman,serif" font-size="10.00">p11 :Pawn</text>
</a>
<polygon fill="none" stroke="black" points="187,-244 187,-264 255,-264 255,-244 187,-244"/>
<text text-anchor="start" x="192" y="-252" font-family="Times New Roman,serif" font-size="10.00">color = &quot;blue&quot;</text>
</g>
<!-- p1&#45;&#45;p11 -->
<g id="edge8" class="edge"><title>p1&#45;&#45;p11</title>
<path fill="none" stroke="black" d="M178.813,-418.406C188.865,-381.614 206.103,-318.521 215.117,-285.531"/>
<text text-anchor="middle" x="216.805" y="-292.887" font-family="Times New Roman,serif" font-size="10.00">pawns</text>
<text text-anchor="middle" x="177.124" y="-406.05" font-family="Times New Roman,serif" font-size="10.00">player</text>
</g>
<!-- f10 -->
<g id="node11" class="node"><title>f10</title>
<a xlink:href="../examples/org/sdmlib/examples/ludo/Field.java" xlink:title="&lt;TABLE&gt;">
<polygon fill="none" stroke="black" points="242,-360 242,-377 310,-377 310,-360 242,-360"/>
<text text-anchor="start" x="256" y="-366.5" font-family="Times New Roman,serif" font-size="10.00"> </text>
<text text-anchor="start" x="259" y="-366.5" font-family="Times New Roman,serif" font-size="10.00">f10 :Field</text>
</a>
<polygon fill="none" stroke="black" points="242,-326 242,-360 310,-360 310,-326 242,-326"/>
<text text-anchor="start" x="247" y="-348" font-family="Times New Roman,serif" font-size="10.00">color = &quot;blue&quot;</text>
<text text-anchor="start" x="247" y="-334" font-family="Times New Roman,serif" font-size="10.00">kind = &quot;base&quot;</text>
</g>
<!-- p1&#45;&#45;f10 -->
<g id="edge6" class="edge"><title>p1&#45;&#45;f10</title>
<path fill="none" stroke="black" d="M203.074,-418.286C216.101,-406.624 231.116,-393.182 244.122,-381.538"/>
<text text-anchor="middle" x="240.189" y="-388.232" font-family="Times New Roman,serif" font-size="10.00">base</text>
<text text-anchor="middle" x="207.008" y="-406.592" font-family="Times New Roman,serif" font-size="10.00">baseowner</text>
</g>
<!-- f4 -->
<g id="node4" class="node"><title>f4</title>
<a xlink:href="../examples/org/sdmlib/examples/ludo/Field.java" xlink:title="&lt;TABLE&gt;">
<polygon fill="none" stroke="black" points="10,-254 10,-271 52,-271 52,-254 10,-254"/>
<text text-anchor="start" x="13.5" y="-260.5" font-family="Times New Roman,serif" font-size="10.00"> </text>
<text text-anchor="start" x="16.5" y="-260.5" font-family="Times New Roman,serif" font-size="10.00">f4 :Field</text>
</a>
</g>
<!-- f3&#45;&#45;f4 -->
<g id="edge10" class="edge"><title>f3&#45;&#45;f4</title>
<path fill="none" stroke="black" d="M101.328,-322.272C84.8413,-308.611 65.6928,-292.745 51.5431,-281.021"/>
<text text-anchor="middle" x="61.2183" y="-281.05" font-family="Times New Roman,serif" font-size="10.00">next</text>
<text text-anchor="middle" x="91.6529" y="-317.244" font-family="Times New Roman,serif" font-size="10.00">prev</text>
</g>
<!-- p8 -->
<g id="node8" class="node"><title>p8</title>
<a xlink:href="../examples/org/sdmlib/examples/ludo/Pawn.java" xlink:title="&lt;TABLE&gt;">
<polygon fill="none" stroke="black" points="90,-264 90,-281 153,-281 153,-264 90,-264"/>
<text text-anchor="start" x="101.5" y="-270.5" font-family="Times New Roman,serif" font-size="10.00"> </text>
<text text-anchor="start" x="104.5" y="-270.5" font-family="Times New Roman,serif" font-size="10.00">p8 :Pawn</text>
</a>
<polygon fill="none" stroke="black" points="90,-244 90,-264 153,-264 153,-244 90,-244"/>
<text text-anchor="start" x="95" y="-252" font-family="Times New Roman,serif" font-size="10.00">color = &quot;red&quot;</text>
</g>
<!-- f3&#45;&#45;p8 -->
<g id="edge12" class="edge"><title>f3&#45;&#45;p8</title>
<path fill="none" stroke="black" d="M131.005,-322.03C128.96,-310.167 126.634,-296.675 124.739,-285.687"/>
<text text-anchor="middle" x="130.444" y="-291.401" font-family="Times New Roman,serif" font-size="10.00">pawns</text>
<text text-anchor="middle" x="125.301" y="-311.317" font-family="Times New Roman,serif" font-size="10.00">pos</text>
</g>
<!-- f3&#45;&#45;p11 -->
<g id="edge14" class="edge"><title>f3&#45;&#45;p11</title>
<path fill="none" stroke="black" d="M164.304,-322.03C175.894,-310.167 189.076,-296.675 199.811,-285.687"/>
<text text-anchor="middle" x="196.5" y="-292.623" font-family="Times New Roman,serif" font-size="10.00">pawns</text>
<text text-anchor="middle" x="167.614" y="-310.094" font-family="Times New Roman,serif" font-size="10.00">pos</text>
</g>
<!-- f5 -->
<g id="node5" class="node"><title>f5</title>
<a xlink:href="../examples/org/sdmlib/examples/ludo/Field.java" xlink:title="&lt;TABLE&gt;">
<polygon fill="none" stroke="black" points="8,-165 8,-182 50,-182 50,-165 8,-165"/>
<text text-anchor="start" x="11.5" y="-171.5" font-family="Times New Roman,serif" font-size="10.00"> </text>
<text text-anchor="start" x="14.5" y="-171.5" font-family="Times New Roman,serif" font-size="10.00">f5 :Field</text>
</a>
</g>
<!-- f4&#45;&#45;f5 -->
<g id="edge16" class="edge"><title>f4&#45;&#45;f5</title>
<path fill="none" stroke="black" d="M30.6049,-244.812C30.2542,-229.559 29.7447,-207.394 29.3943,-192.153"/>
<text text-anchor="middle" x="33.8277" y="-198.616" font-family="Times New Roman,serif" font-size="10.00">next</text>
<text text-anchor="middle" x="26.1715" y="-233.348" font-family="Times New Roman,serif" font-size="10.00">prev</text>
</g>
<!-- f6 -->
<g id="node6" class="node"><title>f6</title>
<a xlink:href="../examples/org/sdmlib/examples/ludo/Field.java" xlink:title="&lt;TABLE&gt;">
<polygon fill="none" stroke="black" points="8,-81 8,-98 50,-98 50,-81 8,-81"/>
<text text-anchor="start" x="11.5" y="-87.5" font-family="Times New Roman,serif" font-size="10.00"> </text>
<text text-anchor="start" x="14.5" y="-87.5" font-family="Times New Roman,serif" font-size="10.00">f6 :Field</text>
</a>
</g>
<!-- f5&#45;&#45;f6 -->
<g id="edge18" class="edge"><title>f5&#45;&#45;f6</title>
<path fill="none" stroke="black" d="M29,-155.61C29,-141.6 29,-122.011 29,-108.084"/>
<text text-anchor="middle" x="33.2262" y="-114.647" font-family="Times New Roman,serif" font-size="10.00">next</text>
<text text-anchor="middle" x="24.7738" y="-144.047" font-family="Times New Roman,serif" font-size="10.00">prev</text>
</g>
<!-- f7 -->
<g id="node7" class="node"><title>f7</title>
<a xlink:href="../examples/org/sdmlib/examples/ludo/Field.java" xlink:title="&lt;TABLE&gt;">
<polygon fill="none" stroke="black" points="8,-9 8,-26 50,-26 50,-9 8,-9"/>
<text text-anchor="start" x="11.5" y="-15.5" font-family="Times New Roman,serif" font-size="10.00"> </text>
<text text-anchor="start" x="14.5" y="-15.5" font-family="Times New Roman,serif" font-size="10.00">f7 :Field</text>
</a>
</g>
<!-- f6&#45;&#45;f7 -->
<g id="edge20" class="edge"><title>f6&#45;&#45;f7</title>
<path fill="none" stroke="black" d="M29,-71.6966C29,-60.8463 29,-46.9167 29,-36.1043"/>
<text text-anchor="middle" x="33.2262" y="-42.6674" font-family="Times New Roman,serif" font-size="10.00">next</text>
<text text-anchor="middle" x="24.7738" y="-60.1335" font-family="Times New Roman,serif" font-size="10.00">prev</text>
</g>
<!-- p9 -->
<g id="node9" class="node"><title>p9</title>
<a xlink:href="../examples/org/sdmlib/examples/ludo/Player.java" xlink:title="&lt;TABLE&gt;">
<polygon fill="none" stroke="black" points="84,-182 84,-199 162,-199 162,-182 84,-182"/>
<text text-anchor="start" x="101.5" y="-188.5" font-family="Times New Roman,serif" font-size="10.00"> </text>
<text text-anchor="start" x="104.5" y="-188.5" font-family="Times New Roman,serif" font-size="10.00">p9 :Player</text>
</a>
<polygon fill="none" stroke="black" points="84,-148 84,-182 162,-182 162,-148 84,-148"/>
<text text-anchor="start" x="89" y="-170" font-family="Times New Roman,serif" font-size="10.00">color = &quot;red&quot;</text>
<text text-anchor="start" x="89" y="-156" font-family="Times New Roman,serif" font-size="10.00">name = &quot;Sabine&quot;</text>
</g>
<!-- p8&#45;&#45;p9 -->
<g id="edge22" class="edge"><title>p8&#45;&#45;p9</title>
<path fill="none" stroke="black" d="M121.494,-240.494C121.749,-229.424 122.063,-215.775 122.338,-203.807"/>
<text text-anchor="middle" x="126.355" y="-210.465" font-family="Times New Roman,serif" font-size="10.00">player</text>
<text text-anchor="middle" x="117.478" y="-228.837" font-family="Times New Roman,serif" font-size="10.00">pawns</text>
</g>
</g>
</svg>
