<?xml version="1.0" encoding="UTF-8" standalone="no"?>
<!DOCTYPE svg PUBLIC "-//W3C//DTD SVG 1.1//EN"
 "http://www.w3.org/Graphics/SVG/1.1/DTD/svg11.dtd">
<!-- Generated by graphviz version 2.28.0 (20110507.0327)
 -->
<!-- Title: ObjectDiagram Pages: 1 -->
<svg width="460pt" height="736pt"
 viewBox="0.00 0.00 460.46 736.00" xmlns="http://www.w3.org/2000/svg" xmlns:xlink="http://www.w3.org/1999/xlink">
<g id="graph1" class="graph" transform="scale(1 1) rotate(0) translate(4 732)">
<title>ObjectDiagram</title>
<polygon fill="white" stroke="white" points="-4,5 -4,-732 457.464,-732 457.464,5 -4,5"/>
<g id="graph2" class="cluster"><title>cluster_n11</title>
<polygon fill="none" stroke="grey" points="230,-359 230,-468 345,-468 345,-359 230,-359"/>
<image xlink:href="../../SDMLib/doc/forbiddensign.svg" width="30px" height="30px" preserveAspectRatio="xMinYMin meet" x="243" y="-459"/>
<text text-anchor="start" x="279.5" y="-440.8" font-family="Times New Roman,serif" font-size="14.00">NAC n11</text>
</g>
<!-- p1 -->
<g id="node1" class="node"><title>p1</title>
<polygon fill="deepskyblue" stroke="deepskyblue" points="157.5,-672.5 157.5,-723.5 208.5,-723.5 208.5,-672.5 157.5,-672.5"/>
<text text-anchor="start" x="179" y="-713.5" font-family="Times New Roman,serif" font-size="10.00">«bound»</text>
<polygon fill="none" stroke="black" points="158,-692 158,-708 209,-708 209,-692 158,-692"/>
<text text-anchor="start" x="161.5" y="-698" font-family="Times New Roman,serif" font-size="10.00"> </text>
<text text-anchor="start" x="164.5" y="-698" font-family="Times New Roman,serif" font-size="10.00"> p1 :PawnPO </text>
<polygon fill="none" stroke="black" points="158,-672 158,-692 209,-692 209,-672 158,-672"/>
<text text-anchor="start" x="181" y="-680" font-family="Times New Roman,serif" font-size="10.00"> &#160;</text>
</g>
<!-- p3 -->
<g id="node2" class="node"><title>p3</title>
<polygon fill="deepskyblue" stroke="deepskyblue" points="150,-590.5 150,-627.5 216,-627.5 216,-590.5 150,-590.5"/>
<polygon fill="none" stroke="black" points="150,-610 150,-627 216,-627 216,-610 150,-610"/>
<text text-anchor="start" x="153.5" y="-616.5" font-family="Times New Roman,serif" font-size="10.00"> </text>
<text text-anchor="start" x="156.5" y="-616.5" font-family="Times New Roman,serif" font-size="10.00"> p3 :PlayerPO </text>
<polygon fill="none" stroke="black" points="150,-590 150,-610 216,-610 216,-590 150,-590"/>
<text text-anchor="start" x="180.5" y="-598" font-family="Times New Roman,serif" font-size="10.00"> &#160;</text>
</g>
<!-- p1&#45;&#45;p3 -->
<g id="edge15" class="edge"><title>p1&#45;&#45;p3</title>
<path fill="none" stroke="black" d="M183,-668.03C183,-656.167 183,-642.675 183,-631.687"/>
<text text-anchor="middle" x="187.226" y="-638.25" font-family="Times New Roman,serif" font-size="10.00">player</text>
</g>
<!-- f7 -->
<g id="node4" class="node"><title>f7</title>
<polygon fill="deepskyblue" stroke="deepskyblue" points="8,-494.5 8,-531.5 84,-531.5 84,-494.5 8,-494.5"/>
<polygon fill="none" stroke="black" points="8,-514 8,-531 84,-531 84,-514 8,-514"/>
<text text-anchor="start" x="20" y="-520.5" font-family="Times New Roman,serif" font-size="10.00"> </text>
<text text-anchor="start" x="23" y="-520.5" font-family="Times New Roman,serif" font-size="10.00"> f7 :FieldPO </text>
<polygon fill="none" stroke="black" points="8,-494 8,-514 84,-514 84,-494 8,-494"/>
<text text-anchor="start" x="13.5" y="-502" font-family="Times New Roman,serif" font-size="10.00"> kind == &quot;base&quot; </text>
</g>
<!-- p1&#45;&#45;f7 -->
<g id="edge29" class="edge"><title>p1&#45;&#45;f7</title>
<path fill="none" stroke="red" d="M152.342,-668.298C143.021,-657.022 132.993,-643.941 124,-632 98.8881,-598.657 70.246,-559.607 55.2689,-535.847"/>
<text text-anchor="middle" x="63.7358" y="-538.668" font-family="Times New Roman,serif" font-size="10.00" fill="red">pos</text>
</g>
<!-- p1&#45;&#45;f7 -->
<g id="edge19" class="edge"><title>p1&#45;&#45;f7</title>
<path fill="none" stroke="black" d="M169.1,-668.298C161.021,-657.022 150.993,-643.941 142,-632 116.888,-598.657 88.246,-559.607 68.5365,-535.847"/>
<text text-anchor="middle" x="77.5389" y="-537.701" font-family="Times New Roman,serif" font-size="10.00">pos</text>
</g>
<!-- f9 -->
<g id="node5" class="node"><title>f9</title>
<polygon fill="deepskyblue" stroke="deepskyblue" points="366.5,-494.5 366.5,-531.5 425.5,-531.5 425.5,-494.5 366.5,-494.5"/>
<polygon fill="none" stroke="black" points="367,-514 367,-531 426,-531 426,-514 367,-514"/>
<text text-anchor="start" x="370.5" y="-520.5" font-family="Times New Roman,serif" font-size="10.00"> </text>
<text text-anchor="start" x="373.5" y="-520.5" font-family="Times New Roman,serif" font-size="10.00"> f9 :FieldPO </text>
<polygon fill="none" stroke="black" points="367,-494 367,-514 426,-514 426,-494 367,-494"/>
<text text-anchor="start" x="394" y="-502" font-family="Times New Roman,serif" font-size="10.00"> &#160;</text>
</g>
<!-- p1&#45;&#45;f9 -->
<g id="edge31" class="edge"><title>p1&#45;&#45;f9</title>
<path fill="none" stroke="green" d="M205.168,-668.367C229.874,-636.557 266.916,-589.212 271,-586 301.011,-562.397 316.311,-569.729 349,-550 356.04,-545.751 363.27,-540.642 369.883,-535.626"/>
<text text-anchor="middle" x="365.184" y="-541.953" font-family="Times New Roman,serif" font-size="10.00" fill="green">pos</text>
</g>
<!-- p2 -->
<g id="node8" class="node"><title>p2</title>
<polygon fill="none" stroke="black" points="288,-610 288,-627 356,-627 356,-610 288,-610"/>
<text text-anchor="start" x="302" y="-616.5" font-family="Times New Roman,serif" font-size="10.00"> </text>
<text text-anchor="start" x="305" y="-616.5" font-family="Times New Roman,serif" font-size="10.00">p2 :Pawn</text>
<polygon fill="none" stroke="black" points="288,-590 288,-610 356,-610 356,-590 288,-590"/>
<text text-anchor="start" x="293.5" y="-598" font-family="Times New Roman,serif" font-size="10.00">color = &quot;blue&quot;</text>
</g>
<!-- p1&#45;&#45;p2 -->
<g id="edge3" class="edge"><title>p1&#45;&#45;p2</title>
<path fill="none" stroke="black" stroke-dasharray="1,5" d="M216.294,-676.161C237.819,-662.689 265.772,-645.193 287.526,-631.577"/>
<text text-anchor="middle" x="282.086" y="-637.468" font-family="Times New Roman,serif" font-size="10.00">match</text>
</g>
<!-- d5 -->
<g id="node3" class="node"><title>d5</title>
<polygon fill="deepskyblue" stroke="deepskyblue" points="118.5,-494.5 118.5,-531.5 177.5,-531.5 177.5,-494.5 118.5,-494.5"/>
<polygon fill="none" stroke="black" points="119,-514 119,-531 178,-531 178,-514 119,-514"/>
<text text-anchor="start" x="122.5" y="-520.5" font-family="Times New Roman,serif" font-size="10.00"> </text>
<text text-anchor="start" x="125.5" y="-520.5" font-family="Times New Roman,serif" font-size="10.00"> d5 :DicePO </text>
<polygon fill="none" stroke="black" points="119,-494 119,-514 178,-514 178,-494 119,-494"/>
<text text-anchor="start" x="125.5" y="-502" font-family="Times New Roman,serif" font-size="10.00"> value == 6 </text>
</g>
<!-- p3&#45;&#45;d5 -->
<g id="edge17" class="edge"><title>p3&#45;&#45;d5</title>
<path fill="none" stroke="black" d="M174.882,-586.198C169.228,-571.012 161.718,-550.844 156.074,-535.684"/>
<text text-anchor="middle" x="163.197" y="-540.202" font-family="Times New Roman,serif" font-size="10.00">dice</text>
</g>
<!-- p3&#45;&#45;f7 -->
<g id="edge21" class="edge"><title>p3&#45;&#45;f7</title>
<path fill="none" stroke="black" d="M151.569,-586.435C129.45,-571.258 99.9507,-551.017 77.7587,-535.791"/>
<text text-anchor="middle" x="87.6229" y="-534.933" font-family="Times New Roman,serif" font-size="10.00">base</text>
</g>
<!-- p3&#45;&#45;f9 -->
<g id="edge23" class="edge"><title>p3&#45;&#45;f9</title>
<path fill="none" stroke="black" d="M224.03,-591.24C228.724,-589.426 233.455,-587.644 238,-586 286.771,-568.359 303.085,-574.116 349,-550 356.462,-546.081 363.965,-540.979 370.719,-535.854"/>
<text text-anchor="middle" x="366.004" y="-542.172" font-family="Times New Roman,serif" font-size="10.00">start</text>
</g>
<!-- p4 -->
<g id="node9" class="node"><title>p4</title>
<polygon fill="none" stroke="black" points="250,-528 250,-545 332,-545 332,-528 250,-528"/>
<text text-anchor="start" x="269.5" y="-534.5" font-family="Times New Roman,serif" font-size="10.00"> </text>
<text text-anchor="start" x="272.5" y="-534.5" font-family="Times New Roman,serif" font-size="10.00">p4 :Player</text>
<polygon fill="none" stroke="black" points="250,-480 250,-528 332,-528 332,-480 250,-480"/>
<text text-anchor="start" x="262.5" y="-516" font-family="Times New Roman,serif" font-size="10.00">color = &quot;blue&quot;</text>
<text text-anchor="start" x="255.5" y="-502" font-family="Times New Roman,serif" font-size="10.00">enumColor = blue</text>
<text text-anchor="start" x="262" y="-488" font-family="Times New Roman,serif" font-size="10.00">name = &quot;Tom&quot;</text>
</g>
<!-- p3&#45;&#45;p4 -->
<g id="edge5" class="edge"><title>p3&#45;&#45;p4</title>
<path fill="none" stroke="black" stroke-dasharray="1,5" d="M207.777,-586.435C220.233,-575.594 235.656,-562.17 249.828,-549.835"/>
<text text-anchor="middle" x="245.766" y="-556.473" font-family="Times New Roman,serif" font-size="10.00">match</text>
</g>
<!-- d6 -->
<g id="node10" class="node"><title>d6</title>
<polygon fill="none" stroke="black" points="145,-391 145,-408 193,-408 193,-391 145,-391"/>
<text text-anchor="start" x="151" y="-397.5" font-family="Times New Roman,serif" font-size="10.00"> </text>
<text text-anchor="start" x="154" y="-397.5" font-family="Times New Roman,serif" font-size="10.00">d6 :Dice</text>
<polygon fill="none" stroke="black" points="145,-371 145,-391 193,-391 193,-371 145,-371"/>
<text text-anchor="start" x="150.5" y="-379" font-family="Times New Roman,serif" font-size="10.00">value = 6</text>
</g>
<!-- d5&#45;&#45;d6 -->
<g id="edge7" class="edge"><title>d5&#45;&#45;d6</title>
<path fill="none" stroke="black" stroke-dasharray="1,5" d="M151.754,-490.368C155.553,-468.479 161.395,-434.82 165.207,-412.853"/>
<text text-anchor="middle" x="167.821" y="-420.005" font-family="Times New Roman,serif" font-size="10.00">match</text>
</g>
<!-- f8 -->
<g id="node19" class="node"><title>f8</title>
<polygon fill="none" stroke="black" points="17,-398 17,-415 85,-415 85,-398 17,-398"/>
<text text-anchor="start" x="33.5" y="-404.5" font-family="Times New Roman,serif" font-size="10.00"> </text>
<text text-anchor="start" x="36.5" y="-404.5" font-family="Times New Roman,serif" font-size="10.00">f8 :Field</text>
<polygon fill="none" stroke="black" points="17,-364 17,-398 85,-398 85,-364 17,-364"/>
<text text-anchor="start" x="22.5" y="-386" font-family="Times New Roman,serif" font-size="10.00">color = &quot;blue&quot;</text>
<text text-anchor="start" x="23.5" y="-372" font-family="Times New Roman,serif" font-size="10.00">kind = &quot;base&quot;</text>
</g>
<!-- f7&#45;&#45;f8 -->
<g id="edge9" class="edge"><title>f7&#45;&#45;f8</title>
<path fill="none" stroke="black" stroke-dasharray="1,5" d="M46.8939,-490.368C47.7085,-470.654 48.9176,-441.394 49.813,-419.726"/>
<text text-anchor="middle" x="53.6614" y="-426.455" font-family="Times New Roman,serif" font-size="10.00">match</text>
</g>
<!-- p12 -->
<g id="node7" class="node"><title>p12</title>
<polygon fill="deepskyblue" stroke="deepskyblue" points="260,-371.5 260,-408.5 328,-408.5 328,-371.5 260,-371.5"/>
<polygon fill="none" stroke="black" points="260,-391 260,-408 328,-408 328,-391 260,-391"/>
<text text-anchor="start" x="263.5" y="-397.5" font-family="Times New Roman,serif" font-size="10.00"> </text>
<text text-anchor="start" x="266.5" y="-397.5" font-family="Times New Roman,serif" font-size="10.00"> p12 :PawnPO </text>
<polygon fill="none" stroke="black" points="260,-371 260,-391 328,-391 328,-371 260,-371"/>
<text text-anchor="start" x="291.5" y="-379" font-family="Times New Roman,serif" font-size="10.00"> &#160;</text>
</g>
<!-- f9&#45;&#45;p12 -->
<g id="edge25" class="edge"><title>f9&#45;&#45;p12</title>
<path fill="none" stroke="black" d="M367.453,-490.298C354.908,-480.627 342.45,-470.785 340,-468 325.186,-451.167 312.483,-428.907 304.204,-412.653"/>
<text text-anchor="middle" x="312.126" y="-416.255" font-family="Times New Roman,serif" font-size="10.00">pawns</text>
</g>
<!-- f10 -->
<g id="node11" class="node"><title>f10</title>
<polygon fill="none" stroke="black" points="362,-398 362,-415 430,-415 430,-398 362,-398"/>
<text text-anchor="start" x="376" y="-404.5" font-family="Times New Roman,serif" font-size="10.00"> </text>
<text text-anchor="start" x="379" y="-404.5" font-family="Times New Roman,serif" font-size="10.00">f10 :Field</text>
<polygon fill="none" stroke="black" points="362,-364 362,-398 430,-398 430,-364 362,-364"/>
<text text-anchor="start" x="367.5" y="-386" font-family="Times New Roman,serif" font-size="10.00">color = &quot;blue&quot;</text>
<text text-anchor="start" x="368.5" y="-372" font-family="Times New Roman,serif" font-size="10.00">kind = &quot;start&quot;</text>
</g>
<!-- f9&#45;&#45;f10 -->
<g id="edge11" class="edge"><title>f9&#45;&#45;f10</title>
<path fill="none" stroke="black" stroke-dasharray="1,5" d="M396,-490.368C396,-470.654 396,-441.394 396,-419.726"/>
<text text-anchor="middle" x="400.226" y="-426.289" font-family="Times New Roman,serif" font-size="10.00">match</text>
</g>
<!-- p12&#45;&#45;p3 -->
<g id="edge27" class="edge"><title>p12&#45;&#45;p3</title>
<path fill="none" stroke="black" d="M284.938,-412.747C277.108,-429.479 264.461,-452.319 248,-468 242.529,-473.211 237.99,-470.327 233,-476 204.675,-508.2 191.711,-558.06 186.342,-586.389"/>
<text text-anchor="middle" x="184.001" y="-574.167" font-family="Times New Roman,serif" font-size="10.00">player</text>
</g>
<!-- p13 -->
<g id="node16" class="node"><title>p13</title>
<polygon fill="none" stroke="black" points="266,-302 266,-319 329,-319 329,-302 266,-302"/>
<text text-anchor="start" x="275.5" y="-308.5" font-family="Times New Roman,serif" font-size="10.00"> </text>
<text text-anchor="start" x="278.5" y="-308.5" font-family="Times New Roman,serif" font-size="10.00">p13 :Pawn</text>
<polygon fill="none" stroke="black" points="266,-282 266,-302 329,-302 329,-282 266,-282"/>
<text text-anchor="start" x="271.5" y="-290" font-family="Times New Roman,serif" font-size="10.00">color = &quot;red&quot;</text>
</g>
<!-- p12&#45;&#45;p13 -->
<g id="edge13" class="edge"><title>p12&#45;&#45;p13</title>
<path fill="none" stroke="black" stroke-dasharray="1,5" d="M294.742,-367.494C295.203,-354.11 295.795,-336.955 296.257,-323.56"/>
<text text-anchor="middle" x="300.168" y="-330.263" font-family="Times New Roman,serif" font-size="10.00">match</text>
</g>
<!-- p2&#45;&#45;p4 -->
<g id="edge33" class="edge"><title>p2&#45;&#45;p4</title>
<path fill="none" stroke="black" d="M314.81,-586.198C311.233,-575.351 306.817,-561.962 302.764,-549.671"/>
<text text-anchor="middle" x="309.616" y="-554.455" font-family="Times New Roman,serif" font-size="10.00">player</text>
<text text-anchor="middle" x="307.958" y="-576.415" font-family="Times New Roman,serif" font-size="10.00">pawns</text>
</g>
<!-- p2&#45;&#45;f10 -->
<g id="edge35" class="edge"><title>p2&#45;&#45;f10</title>
<path fill="none" stroke="black" d="M364.167,-599.633C391.486,-591.791 425.03,-577.05 442,-550 467.732,-508.983 439.662,-453.077 417.467,-419.652"/>
<text text-anchor="middle" x="425.894" y="-422.536" font-family="Times New Roman,serif" font-size="10.00">pos</text>
<text text-anchor="middle" x="371.591" y="-590.434" font-family="Times New Roman,serif" font-size="10.00">pawns</text>
</g>
<!-- p4&#45;&#45;d6 -->
<g id="edge37" class="edge"><title>p4&#45;&#45;d6</title>
<path fill="none" stroke="black" d="M241.687,-481.283C236.176,-477.085 230.82,-472.621 226,-468 208.711,-451.425 192.837,-429.134 182.257,-412.801"/>
<text text-anchor="middle" x="190.765" y="-415.555" font-family="Times New Roman,serif" font-size="10.00">dice</text>
<text text-anchor="middle" x="231.926" y="-476.609" font-family="Times New Roman,serif" font-size="10.00">player</text>
</g>
<!-- p4&#45;&#45;f10 -->
<g id="edge39" class="edge"><title>p4&#45;&#45;f10</title>
<path fill="none" stroke="black" d="M340.279,-476.783C343.348,-473.939 346.288,-471.001 349,-468 362.022,-453.592 373.456,-435.076 381.785,-419.812"/>
<text text-anchor="middle" x="381.084" y="-427.288" font-family="Times New Roman,serif" font-size="10.00">start</text>
<text text-anchor="middle" x="344.019" y="-465.008" font-family="Times New Roman,serif" font-size="10.00">starter</text>
</g>
<!-- p4&#45;&#45;f8 -->
<g id="edge41" class="edge"><title>p4&#45;&#45;f8</title>
<path fill="none" stroke="black" d="M241.854,-491.215C226.734,-485.517 209.885,-479.854 194,-476 165.285,-469.034 154.568,-480.932 128,-468 105.392,-456.995 85.492,-436.642 71.5882,-419.624"/>
<text text-anchor="middle" x="80.6468" y="-421.36" font-family="Times New Roman,serif" font-size="10.00">base</text>
<text text-anchor="middle" x="231.886" y="-489.514" font-family="Times New Roman,serif" font-size="10.00">baseowner</text>
</g>
<!-- f14 -->
<g id="node12" class="node"><title>f14</title>
<polygon fill="none" stroke="black" points="373,-292 373,-309 420,-309 420,-292 373,-292"/>
<text text-anchor="start" x="376.5" y="-298.5" font-family="Times New Roman,serif" font-size="10.00"> </text>
<text text-anchor="start" x="379.5" y="-298.5" font-family="Times New Roman,serif" font-size="10.00">f14 :Field</text>
</g>
<!-- f10&#45;&#45;f14 -->
<g id="edge43" class="edge"><title>f10&#45;&#45;f14</title>
<path fill="none" stroke="black" d="M396,-360.03C396,-346.486 396,-330.819 396,-319.18"/>
<text text-anchor="middle" x="400.226" y="-325.743" font-family="Times New Roman,serif" font-size="10.00">next</text>
<text text-anchor="middle" x="391.774" y="-348.467" font-family="Times New Roman,serif" font-size="10.00">prev</text>
</g>
<!-- f10&#45;&#45;p13 -->
<g id="edge45" class="edge"><title>f10&#45;&#45;p13</title>
<path fill="none" stroke="black" d="M363.309,-360.272C349.68,-348.294 334.12,-334.621 321.501,-323.531"/>
<text text-anchor="middle" x="331.098" y="-323.839" font-family="Times New Roman,serif" font-size="10.00">pawns</text>
<text text-anchor="middle" x="353.712" y="-354.964" font-family="Times New Roman,serif" font-size="10.00">pos</text>
</g>
<!-- f15 -->
<g id="node13" class="node"><title>f15</title>
<polygon fill="none" stroke="black" points="373,-196 373,-213 420,-213 420,-196 373,-196"/>
<text text-anchor="start" x="376.5" y="-202.5" font-family="Times New Roman,serif" font-size="10.00"> </text>
<text text-anchor="start" x="379.5" y="-202.5" font-family="Times New Roman,serif" font-size="10.00">f15 :Field</text>
</g>
<!-- f14&#45;&#45;f15 -->
<g id="edge47" class="edge"><title>f14&#45;&#45;f15</title>
<path fill="none" stroke="black" d="M396,-282.759C396,-265.798 396,-240.055 396,-223.132"/>
<text text-anchor="middle" x="400.226" y="-229.695" font-family="Times New Roman,serif" font-size="10.00">next</text>
<text text-anchor="middle" x="391.774" y="-271.196" font-family="Times New Roman,serif" font-size="10.00">prev</text>
</g>
<!-- f16 -->
<g id="node14" class="node"><title>f16</title>
<polygon fill="none" stroke="black" points="373,-93 373,-110 420,-110 420,-93 373,-93"/>
<text text-anchor="start" x="376.5" y="-99.5" font-family="Times New Roman,serif" font-size="10.00"> </text>
<text text-anchor="start" x="379.5" y="-99.5" font-family="Times New Roman,serif" font-size="10.00">f16 :Field</text>
</g>
<!-- f15&#45;&#45;f16 -->
<g id="edge49" class="edge"><title>f15&#45;&#45;f16</title>
<path fill="none" stroke="black" d="M396,-186.867C396,-168.294 396,-138.823 396,-120.217"/>
<text text-anchor="middle" x="400.226" y="-126.78" font-family="Times New Roman,serif" font-size="10.00">next</text>
<text text-anchor="middle" x="391.774" y="-175.304" font-family="Times New Roman,serif" font-size="10.00">prev</text>
</g>
<!-- f17 -->
<g id="node15" class="node"><title>f17</title>
<polygon fill="none" stroke="black" points="373,-9 373,-26 420,-26 420,-9 373,-9"/>
<text text-anchor="start" x="376.5" y="-15.5" font-family="Times New Roman,serif" font-size="10.00"> </text>
<text text-anchor="start" x="379.5" y="-15.5" font-family="Times New Roman,serif" font-size="10.00">f17 :Field</text>
</g>
<!-- f16&#45;&#45;f17 -->
<g id="edge51" class="edge"><title>f16&#45;&#45;f17</title>
<path fill="none" stroke="black" d="M396,-83.6099C396,-69.6002 396,-50.0114 396,-36.0838"/>
<text text-anchor="middle" x="400.226" y="-42.6469" font-family="Times New Roman,serif" font-size="10.00">next</text>
<text text-anchor="middle" x="391.774" y="-72.0468" font-family="Times New Roman,serif" font-size="10.00">prev</text>
</g>
<!-- p18 -->
<g id="node17" class="node"><title>p18</title>
<polygon fill="none" stroke="black" points="258,-220 258,-237 336,-237 336,-220 258,-220"/>
<text text-anchor="start" x="273.5" y="-226.5" font-family="Times New Roman,serif" font-size="10.00"> </text>
<text text-anchor="start" x="276.5" y="-226.5" font-family="Times New Roman,serif" font-size="10.00">p18 :Player</text>
<polygon fill="none" stroke="black" points="258,-172 258,-220 336,-220 336,-172 258,-172"/>
<text text-anchor="start" x="271" y="-208" font-family="Times New Roman,serif" font-size="10.00">color = &quot;red&quot;</text>
<text text-anchor="start" x="263.5" y="-194" font-family="Times New Roman,serif" font-size="10.00">enumColor = red</text>
<text text-anchor="start" x="263.5" y="-180" font-family="Times New Roman,serif" font-size="10.00">name = &quot;Sabine&quot;</text>
</g>
<!-- p13&#45;&#45;p18 -->
<g id="edge53" class="edge"><title>p13&#45;&#45;p18</title>
<path fill="none" stroke="black" d="M297,-278.198C297,-267.351 297,-253.962 297,-241.671"/>
<text text-anchor="middle" x="301.226" y="-248.234" font-family="Times New Roman,serif" font-size="10.00">player</text>
<text text-anchor="middle" x="292.774" y="-266.635" font-family="Times New Roman,serif" font-size="10.00">pawns</text>
</g>
<!-- f19 -->
<g id="node18" class="node"><title>f19</title>
<polygon fill="none" stroke="black" points="264,-110 264,-127 330,-127 330,-110 264,-110"/>
<text text-anchor="start" x="277" y="-116.5" font-family="Times New Roman,serif" font-size="10.00"> </text>
<text text-anchor="start" x="280" y="-116.5" font-family="Times New Roman,serif" font-size="10.00">f19 :Field</text>
<polygon fill="none" stroke="black" points="264,-76 264,-110 330,-110 330,-76 264,-76"/>
<text text-anchor="start" x="271" y="-98" font-family="Times New Roman,serif" font-size="10.00">color = &quot;red&quot;</text>
<text text-anchor="start" x="269.5" y="-84" font-family="Times New Roman,serif" font-size="10.00">kind = &quot;start&quot;</text>
</g>
<!-- p18&#45;&#45;f19 -->
<g id="edge55" class="edge"><title>p18&#45;&#45;f19</title>
<path fill="none" stroke="black" d="M297,-168.391C297,-156.351 297,-143.07 297,-131.641"/>
<text text-anchor="middle" x="301.226" y="-138.204" font-family="Times New Roman,serif" font-size="10.00">start</text>
<text text-anchor="middle" x="292.774" y="-156.828" font-family="Times New Roman,serif" font-size="10.00">starter</text>
</g>
</g>
</svg>
