<?xml version="1.0" encoding="UTF-8" standalone="no"?>
<!DOCTYPE svg PUBLIC "-//W3C//DTD SVG 1.1//EN"
 "http://www.w3.org/Graphics/SVG/1.1/DTD/svg11.dtd">
<!-- Generated by graphviz version 2.28.0 (20110507.0327)
 -->
<!-- Title: ObjectDiagram Pages: 1 -->
<svg width="174pt" height="206pt"
 viewBox="0.00 0.00 174.00 206.00" xmlns="http://www.w3.org/2000/svg" xmlns:xlink="http://www.w3.org/1999/xlink">
<g id="graph1" class="graph" transform="scale(1 1) rotate(0) translate(4 202)">
<title>ObjectDiagram</title>
<polygon fill="white" stroke="white" points="-4,5 -4,-202 171,-202 171,5 -4,5"/>
<!-- p1 -->
<g id="node1" class="node"><title>p1</title>
<polygon fill="none" stroke="black" points="44,-176 44,-193 113,-193 113,-176 44,-176"/>
<text text-anchor="start" x="57" y="-182.5" font-family="Times New Roman,serif" font-size="10.00"> </text>
<text text-anchor="start" x="60" y="-182.5" font-family="Times New Roman,serif" font-size="10.00">p1 :Player</text>
<polygon fill="none" stroke="black" points="44,-114 44,-176 113,-176 113,-114 44,-114"/>
<text text-anchor="start" x="50" y="-164" font-family="Times New Roman,serif" font-size="10.00">color = &quot;blue&quot;</text>
<text text-anchor="start" x="49.5" y="-150" font-family="Times New Roman,serif" font-size="10.00">name = &quot;Tom&quot;</text>
<text text-anchor="start" x="69" y="-136" font-family="Times New Roman,serif" font-size="10.00">x = 0</text>
<text text-anchor="start" x="68.5" y="-122" font-family="Times New Roman,serif" font-size="10.00">y = 0</text>
</g>
<!-- d2 -->
<g id="node2" class="node"><title>d2</title>
<polygon fill="none" stroke="black" points="8,-38 8,-55 56,-55 56,-38 8,-38"/>
<text text-anchor="start" x="14" y="-44.5" font-family="Times New Roman,serif" font-size="10.00"> </text>
<text text-anchor="start" x="17" y="-44.5" font-family="Times New Roman,serif" font-size="10.00">d2 :Dice</text>
<polygon fill="none" stroke="black" points="8,-18 8,-38 56,-38 56,-18 8,-18"/>
<text text-anchor="start" x="13.5" y="-26" font-family="Times New Roman,serif" font-size="10.00">value = 3</text>
</g>
<!-- p1&#45;&#45;d2 -->
<g id="edge2" class="edge"><title>p1&#45;&#45;d2</title>
<path fill="none" stroke="black" d="M60.8713,-110.178C53.9745,-92.9361 46.3228,-73.8069 40.6303,-59.5758"/>
<text text-anchor="middle" x="47.9202" y="-63.9211" font-family="Times New Roman,serif" font-size="10.00">dice</text>
<text text-anchor="middle" x="53.5814" y="-100.833" font-family="Times New Roman,serif" font-size="10.00">player</text>
</g>
<!-- p3 -->
<g id="node3" class="node"><title>p3</title>
<polygon fill="none" stroke="black" points="90,-52 90,-69 158,-69 158,-52 90,-52"/>
<text text-anchor="start" x="104" y="-58.5" font-family="Times New Roman,serif" font-size="10.00"> </text>
<text text-anchor="start" x="107" y="-58.5" font-family="Times New Roman,serif" font-size="10.00">p3 :Pawn</text>
<polygon fill="none" stroke="black" points="90,-4 90,-52 158,-52 158,-4 90,-4"/>
<text text-anchor="start" x="95.5" y="-40" font-family="Times New Roman,serif" font-size="10.00">color = &quot;blue&quot;</text>
<text text-anchor="start" x="114.5" y="-26" font-family="Times New Roman,serif" font-size="10.00">x = 0</text>
<text text-anchor="start" x="114" y="-12" font-family="Times New Roman,serif" font-size="10.00">y = 0</text>
</g>
<!-- p1&#45;&#45;p3 -->
<g id="edge4" class="edge"><title>p1&#45;&#45;p3</title>
<path fill="none" stroke="black" d="M95.1287,-110.178C99.9309,-98.1726 105.099,-85.2521 109.717,-73.7072"/>
<text text-anchor="middle" x="110.275" y="-81.1916" font-family="Times New Roman,serif" font-size="10.00">pawns</text>
<text text-anchor="middle" x="94.5707" y="-97.6938" font-family="Times New Roman,serif" font-size="10.00">player</text>
</g>
</g>
</svg>
