<?xml version="1.0" encoding="UTF-8" standalone="no"?>
<!DOCTYPE svg PUBLIC "-//W3C//DTD SVG 1.1//EN"
 "http://www.w3.org/Graphics/SVG/1.1/DTD/svg11.dtd">
<!-- Generated by graphviz version 2.26.3 (20100126.1600)
 -->
<!-- Title: ObjectDiagram Pages: 1 -->
<svg width="477pt" height="858pt"
 viewBox="0.00 0.00 477.08 858.00" xmlns="http://www.w3.org/2000/svg" xmlns:xlink="http://www.w3.org/1999/xlink">
<g id="graph1" class="graph" transform="scale(1 1) rotate(0) translate(4 854)">
<title>ObjectDiagram</title>
<polygon fill="white" stroke="white" points="-4,5 -4,-854 474.085,-854 474.085,5 -4,5"/>
<g id="graph2" class="cluster"><title>cluster_n11</title>
<polygon fill="none" stroke="grey" points="321.095,-439 321.095,-548 444.095,-548 444.095,-439 321.095,-439"/>
<image xlink:href="forbiddensign.svg" width="30px" height="30px" preserveAspectRatio="xMinYMin meet" x="334.095" y="-539"/>
<text text-anchor="start" x="370.595" y="-520.733" font-family="Times Roman,serif" font-size="14.00">NAC n11</text>
</g>
<!-- p1 -->
<g id="node1" class="node"><title>p1</title>
<polygon fill="aliceblue" stroke="aliceblue" points="188.095,-794.5 188.095,-845.5 262.095,-845.5 262.095,-794.5 188.095,-794.5"/>
<text text-anchor="start" x="217.095" y="-835.167" font-family="Times Roman,serif" font-size="10.00">«bound»</text>
<polygon fill="none" stroke="black" points="188.095,-814 188.095,-830 262.095,-830 262.095,-814 188.095,-814"/>
<text text-anchor="start" x="191.595" y="-819.667" font-family="Times Roman,serif" font-size="10.00"> </text>
<text text-anchor="start" x="195.595" y="-819.667" font-family="Times Roman,serif" font-size="10.00"> p1 :PawnPO </text>
<polygon fill="none" stroke="black" points="188.095,-794 188.095,-814 262.095,-814 262.095,-794 188.095,-794"/>
<text text-anchor="start" x="221.595" y="-801.667" font-family="Times Roman,serif" font-size="10.00"> &#160;</text>
</g>
<!-- p3 -->
<g id="node2" class="node"><title>p3</title>
<polygon fill="aliceblue" stroke="aliceblue" points="231.095,-698.5 231.095,-735.5 309.095,-735.5 309.095,-698.5 231.095,-698.5"/>
<polygon fill="none" stroke="black" points="231.095,-718 231.095,-735 309.095,-735 309.095,-718 231.095,-718"/>
<text text-anchor="start" x="234.595" y="-724.167" font-family="Times Roman,serif" font-size="10.00"> </text>
<text text-anchor="start" x="238.595" y="-724.167" font-family="Times Roman,serif" font-size="10.00"> p3 :PlayerPO </text>
<polygon fill="none" stroke="black" points="231.095,-698 231.095,-718 309.095,-718 309.095,-698 231.095,-698"/>
<text text-anchor="start" x="266.595" y="-705.667" font-family="Times Roman,serif" font-size="10.00"> &#160;</text>
</g>
<!-- p1&#45;&#45;p3 -->
<g id="edge15" class="edge"><title>p1&#45;&#45;p3</title>
<path fill="none" stroke="black" d="M237.99,-790.484C245.054,-774.315 253.673,-754.586 260.202,-739.644"/>
<text text-anchor="middle" x="260.446" y="-746.641" font-family="Times Roman,serif" font-size="10.00">player</text>
</g>
<!-- f7 -->
<g id="node4" class="node"><title>f7</title>
<polygon fill="aliceblue" stroke="aliceblue" points="348.095,-581.5 348.095,-618.5 438.095,-618.5 438.095,-581.5 348.095,-581.5"/>
<polygon fill="none" stroke="black" points="348.095,-601 348.095,-618 438.095,-618 438.095,-601 348.095,-601"/>
<text text-anchor="start" x="362.595" y="-607.167" font-family="Times Roman,serif" font-size="10.00"> </text>
<text text-anchor="start" x="366.595" y="-607.167" font-family="Times Roman,serif" font-size="10.00"> f7 :FieldPO </text>
<polygon fill="none" stroke="black" points="348.095,-581 348.095,-601 438.095,-601 438.095,-581 348.095,-581"/>
<text text-anchor="start" x="353.595" y="-588.667" font-family="Times Roman,serif" font-size="10.00"> kind == &quot;base&quot; </text>
</g>
<!-- p1&#45;&#45;f7 -->
<g id="edge19" class="edge"><title>p1&#45;&#45;f7</title>
<path fill="none" stroke="black" d="M270.137,-798.155C289.357,-787.064 310.825,-772.086 326.095,-754 359.764,-714.122 379.105,-654.719 387.695,-622.592"/>
<text text-anchor="middle" x="389.331" y="-629.458" font-family="Times Roman,serif" font-size="10.00">pos</text>
</g>
<!-- f9 -->
<g id="node5" class="node"><title>f9</title>
<polygon fill="aliceblue" stroke="aliceblue" points="140.095,-581.5 140.095,-618.5 208.095,-618.5 208.095,-581.5 140.095,-581.5"/>
<polygon fill="none" stroke="black" points="140.095,-601 140.095,-618 208.095,-618 208.095,-601 140.095,-601"/>
<text text-anchor="start" x="143.595" y="-607.167" font-family="Times Roman,serif" font-size="10.00"> </text>
<text text-anchor="start" x="147.595" y="-607.167" font-family="Times Roman,serif" font-size="10.00"> f9 :FieldPO </text>
<polygon fill="none" stroke="black" points="140.095,-581 140.095,-601 208.095,-601 208.095,-581 140.095,-581"/>
<text text-anchor="start" x="170.595" y="-588.667" font-family="Times Roman,serif" font-size="10.00"> &#160;</text>
</g>
<!-- p1&#45;&#45;f9 -->
<g id="edge29" class="edge"><title>p1&#45;&#45;f9</title>
<path fill="none" stroke="green" d="M218.216,-790.33C207.885,-745.761 188.585,-662.507 179.32,-622.542"/>
<text text-anchor="middle" x="185.484" y="-627.417" font-family="Times Roman,serif" font-size="10.00" fill="green">pos</text>
</g>
<!-- p2 -->
<g id="node8" class="node"><title>p2</title>
<polygon fill="none" stroke="black" points="28.0946,-732 28.0946,-749 105.095,-749 105.095,-732 28.0946,-732"/>
<text text-anchor="start" x="43.0946" y="-738.167" font-family="Times Roman,serif" font-size="10.00"> </text>
<text text-anchor="start" x="47.0946" y="-738.167" font-family="Times Roman,serif" font-size="10.00">p2 :Pawn</text>
<polygon fill="none" stroke="black" points="28.0946,-684 28.0946,-732 105.095,-732 105.095,-684 28.0946,-684"/>
<text text-anchor="start" x="33.5946" y="-719.667" font-family="Times Roman,serif" font-size="10.00">color = &quot;blue&quot;</text>
<text text-anchor="start" x="53.5946" y="-705.667" font-family="Times Roman,serif" font-size="10.00">x = 0</text>
<text text-anchor="start" x="53.5946" y="-691.667" font-family="Times Roman,serif" font-size="10.00">y = 0</text>
</g>
<!-- p1&#45;&#45;p2 -->
<g id="edge3" class="edge"><title>p1&#45;&#45;p2</title>
<path fill="none" stroke="black" stroke-dasharray="1,5" d="M179.957,-790.76C158.748,-777.021 133.5,-760.665 112.174,-746.85"/>
<text text-anchor="middle" x="122.078" y="-745.231" font-family="Times Roman,serif" font-size="10.00">match</text>
</g>
<!-- d5 -->
<g id="node3" class="node"><title>d5</title>
<polygon fill="aliceblue" stroke="aliceblue" points="242.095,-581.5 242.095,-618.5 314.095,-618.5 314.095,-581.5 242.095,-581.5"/>
<polygon fill="none" stroke="black" points="242.095,-601 242.095,-618 314.095,-618 314.095,-601 242.095,-601"/>
<text text-anchor="start" x="246.595" y="-607.167" font-family="Times Roman,serif" font-size="10.00"> </text>
<text text-anchor="start" x="250.595" y="-607.167" font-family="Times Roman,serif" font-size="10.00"> d5 :DicePO </text>
<polygon fill="none" stroke="black" points="242.095,-581 242.095,-601 314.095,-601 314.095,-581 242.095,-581"/>
<text text-anchor="start" x="247.595" y="-588.667" font-family="Times Roman,serif" font-size="10.00"> value == 6 </text>
</g>
<!-- p3&#45;&#45;d5 -->
<g id="edge17" class="edge"><title>p3&#45;&#45;d5</title>
<path fill="none" stroke="black" d="M271.637,-694.441C273.045,-673.856 275.115,-643.577 276.53,-622.889"/>
<text text-anchor="middle" x="280.128" y="-629.219" font-family="Times Roman,serif" font-size="10.00">dice</text>
</g>
<!-- p3&#45;&#45;f7 -->
<g id="edge21" class="edge"><title>p3&#45;&#45;f7</title>
<path fill="none" stroke="black" d="M293.81,-694.441C315.451,-673.856 347.283,-643.577 369.032,-622.889"/>
<text text-anchor="middle" x="365.378" y="-629.197" font-family="Times Roman,serif" font-size="10.00">base</text>
</g>
<!-- p3&#45;&#45;f9 -->
<g id="edge23" class="edge"><title>p3&#45;&#45;f9</title>
<path fill="none" stroke="black" d="M251.585,-694.441C234.694,-673.856 209.85,-643.577 192.875,-622.889"/>
<text text-anchor="middle" x="201.891" y="-624.214" font-family="Times Roman,serif" font-size="10.00">start</text>
</g>
<!-- p4 -->
<g id="node9" class="node"><title>p4</title>
<polygon fill="none" stroke="black" points="26.0946,-622 26.0946,-639 107.095,-639 107.095,-622 26.0946,-622"/>
<text text-anchor="start" x="40.5946" y="-628.167" font-family="Times Roman,serif" font-size="10.00"> </text>
<text text-anchor="start" x="44.5946" y="-628.167" font-family="Times Roman,serif" font-size="10.00">p4 :Player</text>
<polygon fill="none" stroke="black" points="26.0946,-560 26.0946,-622 107.095,-622 107.095,-560 26.0946,-560"/>
<text text-anchor="start" x="33.5946" y="-609.667" font-family="Times Roman,serif" font-size="10.00">color = &quot;blue&quot;</text>
<text text-anchor="start" x="31.5946" y="-595.667" font-family="Times Roman,serif" font-size="10.00">name = &quot;Tom&quot;</text>
<text text-anchor="start" x="53.5946" y="-581.667" font-family="Times Roman,serif" font-size="10.00">x = 0</text>
<text text-anchor="start" x="53.5946" y="-567.667" font-family="Times Roman,serif" font-size="10.00">y = 0</text>
</g>
<!-- p3&#45;&#45;p4 -->
<g id="edge5" class="edge"><title>p3&#45;&#45;p4</title>
<path fill="none" stroke="black" stroke-dasharray="1,5" d="M222.815,-696.407C193.354,-682.88 155.1,-664.028 123.095,-644 120.127,-642.143 117.127,-640.166 114.137,-638.117"/>
<text text-anchor="middle" x="124.005" y="-636.736" font-family="Times Roman,serif" font-size="10.00">match</text>
</g>
<!-- d6 -->
<g id="node10" class="node"><title>d6</title>
<polygon fill="none" stroke="black" points="138.095,-471 138.095,-488 195.095,-488 195.095,-471 138.095,-471"/>
<text text-anchor="start" x="144.595" y="-477.167" font-family="Times Roman,serif" font-size="10.00"> </text>
<text text-anchor="start" x="148.595" y="-477.167" font-family="Times Roman,serif" font-size="10.00">d6 :Dice</text>
<polygon fill="none" stroke="black" points="138.095,-451 138.095,-471 195.095,-471 195.095,-451 138.095,-451"/>
<text text-anchor="start" x="143.595" y="-458.667" font-family="Times Roman,serif" font-size="10.00">value = 6</text>
</g>
<!-- d5&#45;&#45;d6 -->
<g id="edge7" class="edge"><title>d5&#45;&#45;d6</title>
<path fill="none" stroke="black" stroke-dasharray="1,5" d="M252.654,-577.359C244.139,-570.199 234.433,-562.471 225.095,-556 219.204,-551.918 216.172,-553.057 211.095,-548 195.143,-532.114 182.899,-509.42 175.238,-492.604"/>
<text text-anchor="middle" x="182.905" y="-496.024" font-family="Times Roman,serif" font-size="10.00">match</text>
</g>
<!-- f8 -->
<g id="node18" class="node"><title>f8</title>
<polygon fill="none" stroke="black" points="228.095,-492 228.095,-509 305.095,-509 305.095,-492 228.095,-492"/>
<text text-anchor="start" x="246.095" y="-498.167" font-family="Times Roman,serif" font-size="10.00"> </text>
<text text-anchor="start" x="250.095" y="-498.167" font-family="Times Roman,serif" font-size="10.00">f8 :Field</text>
<polygon fill="none" stroke="black" points="228.095,-430 228.095,-492 305.095,-492 305.095,-430 228.095,-430"/>
<text text-anchor="start" x="233.595" y="-479.667" font-family="Times Roman,serif" font-size="10.00">color = &quot;blue&quot;</text>
<text text-anchor="start" x="234.095" y="-465.667" font-family="Times Roman,serif" font-size="10.00">kind = &quot;base&quot;</text>
<text text-anchor="start" x="253.595" y="-451.667" font-family="Times Roman,serif" font-size="10.00">x = 0</text>
<text text-anchor="start" x="253.595" y="-437.667" font-family="Times Roman,serif" font-size="10.00">y = 0</text>
</g>
<!-- f7&#45;&#45;f8 -->
<g id="edge9" class="edge"><title>f7&#45;&#45;f8</title>
<path fill="none" stroke="black" stroke-dasharray="1,5" d="M362.597,-577.461C352.689,-570.382 341.552,-562.676 331.095,-556 325.054,-552.144 322.312,-552.913 317.095,-548 306.612,-538.128 297.254,-525.692 289.506,-513.669"/>
<text text-anchor="middle" x="298.01" y="-515.929" font-family="Times Roman,serif" font-size="10.00">match</text>
</g>
<!-- p12 -->
<g id="node7" class="node"><title>p12</title>
<polygon fill="aliceblue" stroke="aliceblue" points="338.095,-451.5 338.095,-488.5 418.095,-488.5 418.095,-451.5 338.095,-451.5"/>
<polygon fill="none" stroke="black" points="338.095,-471 338.095,-488 418.095,-488 418.095,-471 338.095,-471"/>
<text text-anchor="start" x="341.595" y="-477.167" font-family="Times Roman,serif" font-size="10.00"> </text>
<text text-anchor="start" x="345.595" y="-477.167" font-family="Times Roman,serif" font-size="10.00"> p12 :PawnPO </text>
<polygon fill="none" stroke="black" points="338.095,-451 338.095,-471 418.095,-471 418.095,-451 338.095,-451"/>
<text text-anchor="start" x="374.595" y="-458.667" font-family="Times Roman,serif" font-size="10.00"> &#160;</text>
</g>
<!-- f9&#45;&#45;p12 -->
<g id="edge25" class="edge"><title>f9&#45;&#45;p12</title>
<path fill="none" stroke="black" d="M194.322,-577.302C202.946,-569.139 213.656,-560.775 225.095,-556 245.872,-547.327 306.679,-559.4 326.095,-548 347.147,-535.639 361.381,-510.985 369.56,-492.687"/>
<text text-anchor="middle" x="369.565" y="-499.687" font-family="Times Roman,serif" font-size="10.00">pawns</text>
</g>
<!-- f10 -->
<g id="node11" class="node"><title>f10</title>
<polygon fill="none" stroke="black" points="28.0946,-492 28.0946,-509 105.095,-509 105.095,-492 28.0946,-492"/>
<text text-anchor="start" x="43.0946" y="-498.167" font-family="Times Roman,serif" font-size="10.00"> </text>
<text text-anchor="start" x="47.0946" y="-498.167" font-family="Times Roman,serif" font-size="10.00">f10 :Field</text>
<polygon fill="none" stroke="black" points="28.0946,-430 28.0946,-492 105.095,-492 105.095,-430 28.0946,-430"/>
<text text-anchor="start" x="33.5946" y="-479.667" font-family="Times Roman,serif" font-size="10.00">color = &quot;blue&quot;</text>
<text text-anchor="start" x="34.5946" y="-465.667" font-family="Times Roman,serif" font-size="10.00">kind = &quot;start&quot;</text>
<text text-anchor="start" x="53.5946" y="-451.667" font-family="Times Roman,serif" font-size="10.00">x = 0</text>
<text text-anchor="start" x="53.5946" y="-437.667" font-family="Times Roman,serif" font-size="10.00">y = 0</text>
</g>
<!-- f9&#45;&#45;f10 -->
<g id="edge11" class="edge"><title>f9&#45;&#45;f10</title>
<path fill="none" stroke="black" stroke-dasharray="1,5" d="M149.145,-577.32C139.953,-568.51 129.694,-558.116 121.095,-548 111.972,-537.269 102.845,-525.065 94.7204,-513.549"/>
<text text-anchor="middle" x="103.413" y="-515.492" font-family="Times Roman,serif" font-size="10.00">match</text>
</g>
<!-- p12&#45;&#45;p3 -->
<g id="edge27" class="edge"><title>p12&#45;&#45;p3</title>
<path fill="none" stroke="black" d="M406.965,-492.539C424.55,-508.195 445.434,-530.729 455.095,-556 469.06,-592.533 477.097,-611.665 455.095,-644 439.07,-667.551 366.849,-691.069 317.53,-704.813"/>
<text text-anchor="middle" x="325.081" y="-695.257" font-family="Times Roman,serif" font-size="10.00">player</text>
</g>
<!-- p13 -->
<g id="node16" class="node"><title>p13</title>
<polygon fill="none" stroke="black" points="240.095,-368 240.095,-385 312.095,-385 312.095,-368 240.095,-368"/>
<text text-anchor="start" x="249.595" y="-374.167" font-family="Times Roman,serif" font-size="10.00"> </text>
<text text-anchor="start" x="253.595" y="-374.167" font-family="Times Roman,serif" font-size="10.00">p13 :Pawn</text>
<polygon fill="none" stroke="black" points="240.095,-320 240.095,-368 312.095,-368 312.095,-320 240.095,-320"/>
<text text-anchor="start" x="245.595" y="-355.667" font-family="Times Roman,serif" font-size="10.00">color = &quot;red&quot;</text>
<text text-anchor="start" x="263.095" y="-341.667" font-family="Times Roman,serif" font-size="10.00">x = 0</text>
<text text-anchor="start" x="263.095" y="-327.667" font-family="Times Roman,serif" font-size="10.00">y = 0</text>
</g>
<!-- p12&#45;&#45;p13 -->
<g id="edge13" class="edge"><title>p12&#45;&#45;p13</title>
<path fill="none" stroke="black" stroke-dasharray="1,5" d="M358.428,-447.441C344.187,-431.106 324.624,-408.666 308.141,-389.759"/>
<text text-anchor="middle" x="317.282" y="-390.813" font-family="Times Roman,serif" font-size="10.00">match</text>
</g>
<!-- p2&#45;&#45;p4 -->
<g id="edge45" class="edge"><title>p2&#45;&#45;p4</title>
<path fill="none" stroke="black" d="M66.0946,-680.301C66.0946,-668.641 66.0946,-655.631 66.0946,-643.537"/>
<text text-anchor="middle" x="70.3208" y="-649.6" font-family="Times Roman,serif" font-size="10.00">player</text>
<text text-anchor="middle" x="61.8684" y="-668.238" font-family="Times Roman,serif" font-size="10.00">pawns</text>
</g>
<!-- p2&#45;&#45;f10 -->
<g id="edge43" class="edge"><title>p2&#45;&#45;f10</title>
<path fill="none" stroke="black" d="M30.0241,-680.478C21.5041,-669.604 13.5948,-657.076 9.09458,-644 -3.63342,-607.018 -2.18887,-593.448 9.09458,-556 13.5388,-541.25 21.4297,-526.705 29.95,-513.892"/>
<text text-anchor="middle" x="28.5488" y="-520.793" font-family="Times Roman,serif" font-size="10.00">pos</text>
<text text-anchor="middle" x="21.1588" y="-672.851" font-family="Times Roman,serif" font-size="10.00">pawns</text>
</g>
<!-- p4&#45;&#45;d6 -->
<g id="edge47" class="edge"><title>p4&#45;&#45;d6</title>
<path fill="none" stroke="black" d="M114.11,-556.298C116.549,-553.56 118.896,-550.785 121.095,-548 134.755,-530.699 147.019,-508.794 155.28,-492.605"/>
<text text-anchor="middle" x="154.869" y="-499.597" font-family="Times Roman,serif" font-size="10.00">dice</text>
<text text-anchor="middle" x="116.959" y="-543.712" font-family="Times Roman,serif" font-size="10.00">player</text>
</g>
<!-- p4&#45;&#45;f10 -->
<g id="edge49" class="edge"><title>p4&#45;&#45;f10</title>
<path fill="none" stroke="black" d="M66.0946,-556.35C66.0946,-542.63 66.0946,-527.483 66.0946,-513.756"/>
<text text-anchor="middle" x="70.3208" y="-519.819" font-family="Times Roman,serif" font-size="10.00">start</text>
<text text-anchor="middle" x="61.8684" y="-544.287" font-family="Times Roman,serif" font-size="10.00">starter</text>
</g>
<!-- p4&#45;&#45;f8 -->
<g id="edge51" class="edge"><title>p4&#45;&#45;f8</title>
<path fill="none" stroke="black" d="M114.123,-560.145C117.07,-558.588 120.069,-557.188 123.095,-556 159.652,-541.651 177.085,-567.638 211.095,-548 225.013,-539.963 236.281,-526.818 244.908,-513.59"/>
<text text-anchor="middle" x="243.351" y="-520.468" font-family="Times Roman,serif" font-size="10.00">base</text>
<text text-anchor="middle" x="120.201" y="-549.204" font-family="Times Roman,serif" font-size="10.00">baseowner</text>
</g>
<!-- f14 -->
<g id="node12" class="node"><title>f14</title>
<polygon fill="none" stroke="black" points="39.0946,-361 39.0946,-378 93.0946,-378 93.0946,-361 39.0946,-361"/>
<text text-anchor="start" x="42.5946" y="-367.167" font-family="Times Roman,serif" font-size="10.00"> </text>
<text text-anchor="start" x="46.5946" y="-367.167" font-family="Times Roman,serif" font-size="10.00">f14 :Field</text>
<polygon fill="none" stroke="black" points="39.0946,-327 39.0946,-361 93.0946,-361 93.0946,-327 39.0946,-327"/>
<text text-anchor="start" x="53.0946" y="-348.667" font-family="Times Roman,serif" font-size="10.00">x = 0</text>
<text text-anchor="start" x="53.0946" y="-334.667" font-family="Times Roman,serif" font-size="10.00">y = 0</text>
</g>
<!-- f10&#45;&#45;f14 -->
<g id="edge31" class="edge"><title>f10&#45;&#45;f14</title>
<path fill="none" stroke="black" d="M66.0946,-426.434C66.0946,-411.88 66.0946,-396.005 66.0946,-382.751"/>
<text text-anchor="middle" x="70.3208" y="-388.814" font-family="Times Roman,serif" font-size="10.00">next</text>
<text text-anchor="middle" x="61.8684" y="-414.37" font-family="Times Roman,serif" font-size="10.00">prev</text>
</g>
<!-- f10&#45;&#45;p13 -->
<g id="edge33" class="edge"><title>f10&#45;&#45;p13</title>
<path fill="none" stroke="black" d="M112.35,-431.774C115.261,-429.753 118.189,-427.811 121.095,-426 156.685,-403.813 200.091,-383.921 231.907,-370.527"/>
<text text-anchor="middle" x="225.227" y="-374.968" font-family="Times Roman,serif" font-size="10.00">pawns</text>
<text text-anchor="middle" x="117.402" y="-420.144" font-family="Times Roman,serif" font-size="10.00">pos</text>
</g>
<!-- f15 -->
<g id="node13" class="node"><title>f15</title>
<polygon fill="none" stroke="black" points="39.0946,-244 39.0946,-261 93.0946,-261 93.0946,-244 39.0946,-244"/>
<text text-anchor="start" x="42.5946" y="-250.167" font-family="Times Roman,serif" font-size="10.00"> </text>
<text text-anchor="start" x="46.5946" y="-250.167" font-family="Times Roman,serif" font-size="10.00">f15 :Field</text>
<polygon fill="none" stroke="black" points="39.0946,-210 39.0946,-244 93.0946,-244 93.0946,-210 39.0946,-210"/>
<text text-anchor="start" x="53.0946" y="-231.667" font-family="Times Roman,serif" font-size="10.00">x = 0</text>
<text text-anchor="start" x="53.0946" y="-217.667" font-family="Times Roman,serif" font-size="10.00">y = 0</text>
</g>
<!-- f14&#45;&#45;f15 -->
<g id="edge35" class="edge"><title>f14&#45;&#45;f15</title>
<path fill="none" stroke="black" d="M66.0946,-323.476C66.0946,-305.74 66.0946,-283.249 66.0946,-265.515"/>
<text text-anchor="middle" x="70.3208" y="-271.578" font-family="Times Roman,serif" font-size="10.00">next</text>
<text text-anchor="middle" x="61.8684" y="-311.413" font-family="Times Roman,serif" font-size="10.00">prev</text>
</g>
<!-- f16 -->
<g id="node14" class="node"><title>f16</title>
<polygon fill="none" stroke="black" points="39.0946,-134 39.0946,-151 93.0946,-151 93.0946,-134 39.0946,-134"/>
<text text-anchor="start" x="42.5946" y="-140.167" font-family="Times Roman,serif" font-size="10.00"> </text>
<text text-anchor="start" x="46.5946" y="-140.167" font-family="Times Roman,serif" font-size="10.00">f16 :Field</text>
<polygon fill="none" stroke="black" points="39.0946,-100 39.0946,-134 93.0946,-134 93.0946,-100 39.0946,-100"/>
<text text-anchor="start" x="53.0946" y="-121.667" font-family="Times Roman,serif" font-size="10.00">x = 0</text>
<text text-anchor="start" x="53.0946" y="-107.667" font-family="Times Roman,serif" font-size="10.00">y = 0</text>
</g>
<!-- f15&#45;&#45;f16 -->
<g id="edge37" class="edge"><title>f15&#45;&#45;f16</title>
<path fill="none" stroke="black" d="M66.0946,-206.232C66.0946,-190.58 66.0946,-171.447 66.0946,-155.791"/>
<text text-anchor="middle" x="70.3208" y="-161.854" font-family="Times Roman,serif" font-size="10.00">next</text>
<text text-anchor="middle" x="61.8684" y="-194.169" font-family="Times Roman,serif" font-size="10.00">prev</text>
</g>
<!-- f17 -->
<g id="node15" class="node"><title>f17</title>
<polygon fill="none" stroke="black" points="39.0946,-38 39.0946,-55 93.0946,-55 93.0946,-38 39.0946,-38"/>
<text text-anchor="start" x="42.5946" y="-44.1667" font-family="Times Roman,serif" font-size="10.00"> </text>
<text text-anchor="start" x="46.5946" y="-44.1667" font-family="Times Roman,serif" font-size="10.00">f17 :Field</text>
<polygon fill="none" stroke="black" points="39.0946,-4 39.0946,-38 93.0946,-38 93.0946,-4 39.0946,-4"/>
<text text-anchor="start" x="53.0946" y="-25.6667" font-family="Times Roman,serif" font-size="10.00">x = 0</text>
<text text-anchor="start" x="53.0946" y="-11.6667" font-family="Times Roman,serif" font-size="10.00">y = 0</text>
</g>
<!-- f16&#45;&#45;f17 -->
<g id="edge39" class="edge"><title>f16&#45;&#45;f17</title>
<path fill="none" stroke="black" d="M66.0946,-96.4135C66.0946,-84.734 66.0946,-71.3401 66.0946,-59.6541"/>
<text text-anchor="middle" x="70.3208" y="-65.7171" font-family="Times Roman,serif" font-size="10.00">next</text>
<text text-anchor="middle" x="61.8684" y="-84.3504" font-family="Times Roman,serif" font-size="10.00">prev</text>
</g>
<!-- p18 -->
<g id="node17" class="node"><title>p18</title>
<polygon fill="none" stroke="black" points="229.095,-258 229.095,-275 323.095,-275 323.095,-258 229.095,-258"/>
<text text-anchor="start" x="247.095" y="-264.167" font-family="Times Roman,serif" font-size="10.00"> </text>
<text text-anchor="start" x="251.095" y="-264.167" font-family="Times Roman,serif" font-size="10.00">p18 :Player</text>
<polygon fill="none" stroke="black" points="229.095,-196 229.095,-258 323.095,-258 323.095,-196 229.095,-196"/>
<text text-anchor="start" x="245.595" y="-245.667" font-family="Times Roman,serif" font-size="10.00">color = &quot;red&quot;</text>
<text text-anchor="start" x="234.595" y="-231.667" font-family="Times Roman,serif" font-size="10.00">name = &quot;Sabine&quot;</text>
<text text-anchor="start" x="263.095" y="-217.667" font-family="Times Roman,serif" font-size="10.00">x = 0</text>
<text text-anchor="start" x="263.095" y="-203.667" font-family="Times Roman,serif" font-size="10.00">y = 0</text>
</g>
<!-- p13&#45;&#45;p18 -->
<g id="edge41" class="edge"><title>p13&#45;&#45;p18</title>
<path fill="none" stroke="black" d="M276.095,-316.301C276.095,-304.641 276.095,-291.631 276.095,-279.537"/>
<text text-anchor="middle" x="280.321" y="-285.6" font-family="Times Roman,serif" font-size="10.00">player</text>
<text text-anchor="middle" x="271.868" y="-304.238" font-family="Times Roman,serif" font-size="10.00">pawns</text>
</g>
</g>
</svg>
