<?xml version="1.0" encoding="UTF-8" standalone="no"?>
<!DOCTYPE svg PUBLIC "-//W3C//DTD SVG 1.1//EN"
 "http://www.w3.org/Graphics/SVG/1.1/DTD/svg11.dtd">
<!-- Generated by graphviz version 2.28.0 (20110507.0327)
 -->
<!-- Title: ClassDiagram Pages: 1 -->
<svg width="434pt" height="636pt"
 viewBox="0.00 0.00 434.00 636.00" xmlns="http://www.w3.org/2000/svg" xmlns:xlink="http://www.w3.org/1999/xlink">
<g id="graph1" class="graph" transform="scale(1 1) rotate(0) translate(4 632)">
<title>ClassDiagram</title>
<polygon fill="white" stroke="white" points="-4,5 -4,-632 431,-632 431,5 -4,5"/>
<!-- _Ludo -->
<g id="node1" class="node"><title>_Ludo</title>
<a xlink:href="../examples/org/sdmlib/examples/ludo/Ludo.java" xlink:title="&lt;TABLE&gt;">
<polygon fill="none" stroke="black" points="205,-606 205,-623 257,-623 257,-606 205,-606"/>
<text text-anchor="start" x="220" y="-612.5" font-family="Times New Roman,serif" font-size="10.00">Ludo</text>
</a>
<polygon fill="none" stroke="black" points="205,-586 205,-606 257,-606 257,-586 205,-586"/>
<text text-anchor="start" x="210" y="-594" font-family="Times New Roman,serif" font-size="10.00">date :Date</text>
<polygon fill="none" stroke="black" points="205,-566 205,-586 257,-586 257,-566 205,-566"/>
<text text-anchor="start" x="229.5" y="-574" font-family="Times New Roman,serif" font-size="10.00"> </text>
</g>
<!-- _Player -->
<g id="node3" class="node"><title>_Player</title>
<a xlink:href="../examples/org/sdmlib/examples/ludo/Player.java" xlink:title="&lt;TABLE&gt;">
<polygon fill="none" stroke="black" points="68,-504 68,-521 170,-521 170,-504 68,-504"/>
<text text-anchor="start" x="106.5" y="-510.5" font-family="Times New Roman,serif" font-size="10.00">Player</text>
</a>
<polygon fill="none" stroke="black" points="68,-428 68,-504 170,-504 170,-428 68,-428"/>
<text text-anchor="start" x="73" y="-492" font-family="Times New Roman,serif" font-size="10.00">color :String</text>
<text text-anchor="start" x="73" y="-478" font-family="Times New Roman,serif" font-size="10.00">enumColor :LudoColor</text>
<text text-anchor="start" x="73" y="-464" font-family="Times New Roman,serif" font-size="10.00">name :String</text>
<text text-anchor="start" x="73" y="-450" font-family="Times New Roman,serif" font-size="10.00">x :int</text>
<text text-anchor="start" x="73" y="-436" font-family="Times New Roman,serif" font-size="10.00">y :int</text>
<polygon fill="none" stroke="black" points="68,-408 68,-428 170,-428 170,-408 68,-408"/>
<text text-anchor="start" x="117.5" y="-416" font-family="Times New Roman,serif" font-size="10.00"> </text>
</g>
<!-- _Ludo&#45;&gt;_Player -->
<g id="edge2" class="edge"><title>_Ludo&#45;&gt;_Player</title>
<path fill="none" stroke="black" d="M203.315,-562.36C193.598,-551.255 182.338,-538.386 171.273,-525.74"/>
<text text-anchor="middle" x="180.421" y="-527.278" font-family="Times New Roman,serif" font-size="10.00">players *</text>
<text text-anchor="middle" x="194.166" y="-555.822" font-family="Times New Roman,serif" font-size="10.00">game</text>
</g>
<!-- _Dice -->
<g id="node4" class="node"><title>_Dice</title>
<a xlink:href="../examples/org/sdmlib/examples/ludo/Dice.java" xlink:title="&lt;TABLE&gt;">
<polygon fill="none" stroke="black" points="8,-332 8,-349 56,-349 56,-332 8,-332"/>
<text text-anchor="start" x="22.5" y="-338.5" font-family="Times New Roman,serif" font-size="10.00">Dice</text>
</a>
<polygon fill="none" stroke="black" points="8,-312 8,-332 56,-332 56,-312 8,-312"/>
<text text-anchor="start" x="13" y="-320" font-family="Times New Roman,serif" font-size="10.00">value :int</text>
<polygon fill="none" stroke="black" points="8,-292 8,-312 56,-312 56,-292 8,-292"/>
<text text-anchor="start" x="30.5" y="-300" font-family="Times New Roman,serif" font-size="10.00"> </text>
</g>
<!-- _Ludo&#45;&gt;_Dice -->
<g id="edge6" class="edge"><title>_Ludo&#45;&gt;_Dice</title>
<path fill="none" stroke="black" d="M196.828,-591.601C155.111,-586.686 85.8288,-571.698 51,-526 12.7287,-475.785 18.3947,-397.132 25.4682,-353.617"/>
<text text-anchor="middle" x="28.3496" y="-360.693" font-family="Times New Roman,serif" font-size="10.00">dice</text>
<text text-anchor="middle" x="187.28" y="-592.074" font-family="Times New Roman,serif" font-size="10.00">game</text>
</g>
<!-- _Field -->
<g id="node5" class="node"><title>_Field</title>
<a xlink:href="../examples/org/sdmlib/examples/ludo/Field.java" xlink:title="&lt;TABLE&gt;">
<polygon fill="none" stroke="black" points="80,-216 80,-233 140,-233 140,-216 80,-216"/>
<text text-anchor="start" x="100" y="-222.5" font-family="Times New Roman,serif" font-size="10.00">Field</text>
</a>
<polygon fill="none" stroke="black" points="80,-140 80,-216 140,-216 140,-140 80,-140"/>
<text text-anchor="start" x="85" y="-204" font-family="Times New Roman,serif" font-size="10.00">color :String</text>
<text text-anchor="start" x="85" y="-190" font-family="Times New Roman,serif" font-size="10.00">kind :String</text>
<text text-anchor="start" x="85" y="-176" font-family="Times New Roman,serif" font-size="10.00">x :int</text>
<text text-anchor="start" x="85" y="-162" font-family="Times New Roman,serif" font-size="10.00">y :int</text>
<text text-anchor="start" x="85" y="-148" font-family="Times New Roman,serif" font-size="10.00">point :Point</text>
<polygon fill="none" stroke="black" points="80,-120 80,-140 140,-140 140,-120 80,-120"/>
<text text-anchor="start" x="108.5" y="-128" font-family="Times New Roman,serif" font-size="10.00"> </text>
</g>
<!-- _Ludo&#45;&gt;_Field -->
<g id="edge10" class="edge"><title>_Ludo&#45;&gt;_Field</title>
<path fill="none" stroke="black" d="M256.326,-562.433C301.505,-502.025 385.815,-367.756 325,-274 285.848,-213.64 198.909,-190.9 148.395,-182.582"/>
<text text-anchor="middle" x="158.07" y="-177.553" font-family="Times New Roman,serif" font-size="10.00">fields *</text>
<text text-anchor="middle" x="258.186" y="-550.108" font-family="Times New Roman,serif" font-size="10.00">game</text>
</g>
<!-- _Date -->
<g id="node7" class="node"><title>_Date</title>
<a xlink:href="../examples/java/util/Date.java" xlink:title="&lt;TABLE&gt;">
<polygon fill="none" stroke="black" points="386,-476 386,-493 412,-493 412,-476 386,-476"/>
<text text-anchor="start" x="389.5" y="-482.5" font-family="Times New Roman,serif" font-size="10.00">Date</text>
</a>
<polygon fill="none" stroke="black" points="386,-456 386,-476 412,-476 412,-456 386,-456"/>
<text text-anchor="start" x="397.5" y="-464" font-family="Times New Roman,serif" font-size="10.00"> </text>
<polygon fill="none" stroke="black" points="386,-436 386,-456 412,-456 412,-436 386,-436"/>
<text text-anchor="start" x="397.5" y="-444" font-family="Times New Roman,serif" font-size="10.00"> </text>
</g>
<!-- _Ludo&#45;&gt;_Date -->
<g id="edge26" class="edge"><title>_Ludo&#45;&gt;_Date</title>
<path fill="none" stroke="black" d="M265.03,-581.105C292.311,-569.589 330.453,-550.725 358,-526 364.478,-520.185 370.443,-513.146 375.7,-505.965"/>
<polygon fill="black" stroke="black" points="381.535,-497.535 379.544,-508.319 378.69,-501.646 375.844,-505.757 375.844,-505.757 375.844,-505.757 378.69,-501.646 372.144,-503.196 381.535,-497.535 381.535,-497.535"/>
<text text-anchor="middle" x="379.852" y="-504.892" font-family="Times New Roman,serif" font-size="10.00">date</text>
</g>
<!-- _Point -->
<g id="node2" class="node"><title>_Point</title>
<a xlink:href="../examples/java/awt/Point.java" xlink:title="&lt;TABLE&gt;">
<polygon fill="none" stroke="black" points="94,-58 94,-75 126,-75 126,-58 94,-58"/>
<text text-anchor="start" x="99" y="-64.5" font-family="Times New Roman,serif" font-size="10.00">Point</text>
</a>
<polygon fill="none" stroke="black" points="94,-24 94,-58 126,-58 126,-24 94,-24"/>
<text text-anchor="start" x="99" y="-46" font-family="Times New Roman,serif" font-size="10.00">x :int</text>
<text text-anchor="start" x="99" y="-32" font-family="Times New Roman,serif" font-size="10.00">y :int</text>
<polygon fill="none" stroke="black" points="94,-4 94,-24 126,-24 126,-4 94,-4"/>
<text text-anchor="start" x="108.5" y="-12" font-family="Times New Roman,serif" font-size="10.00"> </text>
</g>
<!-- _Player&#45;&gt;_Player -->
<g id="edge4" class="edge"><title>_Player&#45;&gt;_Player</title>
<path fill="none" stroke="black" d="M178.079,-487.945C188.63,-484.963 196,-477.314 196,-465 196,-452.686 188.63,-445.037 178.079,-442.055"/>
<text text-anchor="middle" x="188.018" y="-438.449" font-family="Times New Roman,serif" font-size="10.00">next</text>
<text text-anchor="middle" x="185.315" y="-478.543" font-family="Times New Roman,serif" font-size="10.00">prev</text>
</g>
<!-- _Player&#45;&gt;_Dice -->
<g id="edge8" class="edge"><title>_Player&#45;&gt;_Dice</title>
<path fill="none" stroke="black" d="M82.3563,-404.191C71.7684,-386.909 60.6245,-368.72 51.5194,-353.859"/>
<text text-anchor="middle" x="59.8578" y="-356.879" font-family="Times New Roman,serif" font-size="10.00">dice</text>
<text text-anchor="middle" x="74.018" y="-396.171" font-family="Times New Roman,serif" font-size="10.00">player</text>
</g>
<!-- _Player&#45;&gt;_Field -->
<g id="edge16" class="edge"><title>_Player&#45;&gt;_Field</title>
<path fill="none" stroke="black" d="M105.917,-404.393C101.318,-355.445 99.1488,-286.458 100.671,-237.53"/>
<text text-anchor="middle" x="104.69" y="-244.187" font-family="Times New Roman,serif" font-size="10.00">start</text>
<text text-anchor="middle" x="100.933" y="-393.224" font-family="Times New Roman,serif" font-size="10.00">starter</text>
</g>
<!-- _Player&#45;&gt;_Field -->
<g id="edge18" class="edge"><title>_Player&#45;&gt;_Field</title>
<path fill="none" stroke="black" d="M117.124,-404.393C115.584,-355.445 113.413,-286.458 111.873,-237.53"/>
<text text-anchor="middle" x="116.382" y="-243.956" font-family="Times New Roman,serif" font-size="10.00">base</text>
<text text-anchor="middle" x="112.615" y="-392.967" font-family="Times New Roman,serif" font-size="10.00">baseowner</text>
</g>
<!-- _Player&#45;&gt;_Field -->
<g id="edge20" class="edge"><title>_Player&#45;&gt;_Field</title>
<path fill="none" stroke="black" d="M128.331,-404.393C129.85,-355.445 127.677,-286.458 123.076,-237.53"/>
<text text-anchor="middle" x="128.061" y="-243.699" font-family="Times New Roman,serif" font-size="10.00">landing</text>
<text text-anchor="middle" x="124.312" y="-392.737" font-family="Times New Roman,serif" font-size="10.00">lander</text>
</g>
<!-- _Pawn -->
<g id="node6" class="node"><title>_Pawn</title>
<a xlink:href="../examples/org/sdmlib/examples/ludo/Pawn.java" xlink:title="&lt;TABLE&gt;">
<polygon fill="none" stroke="black" points="164,-346 164,-363 224,-363 224,-346 164,-346"/>
<text text-anchor="start" x="183" y="-352.5" font-family="Times New Roman,serif" font-size="10.00">Pawn</text>
</a>
<polygon fill="none" stroke="black" points="164,-298 164,-346 224,-346 224,-298 164,-298"/>
<text text-anchor="start" x="169" y="-334" font-family="Times New Roman,serif" font-size="10.00">color :String</text>
<text text-anchor="start" x="169" y="-320" font-family="Times New Roman,serif" font-size="10.00">x :int</text>
<text text-anchor="start" x="169" y="-306" font-family="Times New Roman,serif" font-size="10.00">y :int</text>
<polygon fill="none" stroke="black" points="164,-278 164,-298 224,-298 224,-278 164,-278"/>
<text text-anchor="start" x="192.5" y="-286" font-family="Times New Roman,serif" font-size="10.00"> </text>
</g>
<!-- _Player&#45;&gt;_Pawn -->
<g id="edge22" class="edge"><title>_Player&#45;&gt;_Pawn</title>
<path fill="none" stroke="black" d="M150.589,-404.191C156.995,-392.063 163.636,-379.489 169.74,-367.932"/>
<text text-anchor="middle" x="169.245" y="-375.419" font-family="Times New Roman,serif" font-size="10.00">pawns *</text>
<text text-anchor="middle" x="151.085" y="-391.703" font-family="Times New Roman,serif" font-size="10.00">player</text>
</g>
<!-- _LudoColor -->
<g id="node8" class="node"><title>_LudoColor</title>
<a xlink:href="../examples/org/sdmlib/examples/ludo/LudoModel/LudoColor.java" xlink:title="&lt;TABLE&gt;">
<polygon fill="none" stroke="black" points="258,-332 258,-349 308,-349 308,-332 258,-332"/>
<text text-anchor="start" x="261.5" y="-338.5" font-family="Times New Roman,serif" font-size="10.00">LudoColor</text>
</a>
<polygon fill="none" stroke="black" points="258,-312 258,-332 308,-332 308,-312 258,-312"/>
<text text-anchor="start" x="281.5" y="-320" font-family="Times New Roman,serif" font-size="10.00"> </text>
<polygon fill="none" stroke="black" points="258,-292 258,-312 308,-312 308,-292 258,-292"/>
<text text-anchor="start" x="281.5" y="-300" font-family="Times New Roman,serif" font-size="10.00"> </text>
</g>
<!-- _Player&#45;&gt;_LudoColor -->
<g id="edge28" class="edge"><title>_Player&#45;&gt;_LudoColor</title>
<path fill="none" stroke="black" d="M178.012,-420.701C198.552,-404.822 221.356,-386.255 241,-368 243.377,-365.792 245.773,-363.469 248.152,-361.089"/>
<polygon fill="black" stroke="black" points="255.198,-353.837 251.457,-364.145 251.714,-357.423 248.23,-361.009 248.23,-361.009 248.23,-361.009 251.714,-357.423 245.002,-357.873 255.198,-353.837 255.198,-353.837"/>
<text text-anchor="middle" x="251.914" y="-360.782" font-family="Times New Roman,serif" font-size="10.00">enumColor</text>
</g>
<!-- _Field&#45;&gt;_Point -->
<g id="edge30" class="edge"><title>_Field&#45;&gt;_Point</title>
<path fill="none" stroke="black" d="M110,-116.394C110,-107.556 110,-98.5349 110,-89.948"/>
<polygon fill="black" stroke="black" points="110,-79.7308 114.5,-89.7307 110,-84.7308 110,-89.7308 110,-89.7308 110,-89.7308 110,-84.7308 105.5,-89.7308 110,-79.7308 110,-79.7308"/>
<text text-anchor="middle" x="114.226" y="-86.2939" font-family="Times New Roman,serif" font-size="10.00">point</text>
</g>
<!-- _Field&#45;&gt;_Field -->
<g id="edge12" class="edge"><title>_Field&#45;&gt;_Field</title>
<path fill="none" stroke="black" d="M148.214,-189.638C158.335,-188.916 166,-184.703 166,-177 166,-169.297 158.335,-165.084 148.214,-164.362"/>
<text text-anchor="middle" x="157.681" y="-158.64" font-family="Times New Roman,serif" font-size="10.00">next</text>
<text text-anchor="middle" x="156.767" y="-181.957" font-family="Times New Roman,serif" font-size="10.00">prev</text>
</g>
<!-- _Field&#45;&gt;_Field -->
<g id="edge14" class="edge"><title>_Field&#45;&gt;_Field</title>
<path fill="none" stroke="black" d="M148.074,-201.747C167.063,-205.171 184,-196.922 184,-177 184,-157.078 167.063,-148.829 148.074,-152.253"/>
<text text-anchor="middle" x="156.567" y="-144.473" font-family="Times New Roman,serif" font-size="10.00">landing</text>
<text text-anchor="middle" x="157.578" y="-196.135" font-family="Times New Roman,serif" font-size="10.00">entry</text>
</g>
<!-- _Pawn&#45;&gt;_Field -->
<g id="edge24" class="edge"><title>_Pawn&#45;&gt;_Field</title>
<path fill="none" stroke="black" d="M166.959,-274.289C160.053,-262.614 152.526,-249.889 145.274,-237.629"/>
<text text-anchor="middle" x="153.525" y="-240.778" font-family="Times New Roman,serif" font-size="10.00">pos</text>
<text text-anchor="middle" x="158.708" y="-266.14" font-family="Times New Roman,serif" font-size="10.00">pawns *</text>
</g>
</g>
</svg>
