<?xml version="1.0" encoding="UTF-8" standalone="no"?>
<!DOCTYPE svg PUBLIC "-//W3C//DTD SVG 1.1//EN"
 "http://www.w3.org/Graphics/SVG/1.1/DTD/svg11.dtd">
<!-- Generated by graphviz version 2.28.0 (20110507.0327)
 -->
<!-- Title: ObjectDiagram Pages: 1 -->
<svg width="311pt" height="660pt"
 viewBox="0.00 0.00 311.00 660.00" xmlns="http://www.w3.org/2000/svg" xmlns:xlink="http://www.w3.org/1999/xlink">
<g id="graph1" class="graph" transform="scale(1 1) rotate(0) translate(4 656)">
<title>ObjectDiagram</title>
<polygon fill="white" stroke="white" points="-4,5 -4,-656 308,-656 308,5 -4,5"/>
<!-- p1 -->
<g id="node1" class="node"><title>p1</title>
<polygon fill="none" stroke="black" points="141,-630 141,-647 210,-647 210,-630 141,-630"/>
<text text-anchor="start" x="154" y="-636.5" font-family="Times New Roman,serif" font-size="10.00"> </text>
<text text-anchor="start" x="157" y="-636.5" font-family="Times New Roman,serif" font-size="10.00">p1 :Player</text>
<polygon fill="none" stroke="black" points="141,-568 141,-630 210,-630 210,-568 141,-568"/>
<text text-anchor="start" x="147" y="-618" font-family="Times New Roman,serif" font-size="10.00">color = &quot;blue&quot;</text>
<text text-anchor="start" x="146.5" y="-604" font-family="Times New Roman,serif" font-size="10.00">name = &quot;Tom&quot;</text>
<text text-anchor="start" x="166" y="-590" font-family="Times New Roman,serif" font-size="10.00">x = 0</text>
<text text-anchor="start" x="165.5" y="-576" font-family="Times New Roman,serif" font-size="10.00">y = 0</text>
</g>
<!-- d2 -->
<g id="node2" class="node"><title>d2</title>
<polygon fill="none" stroke="black" points="8,-485 8,-502 56,-502 56,-485 8,-485"/>
<text text-anchor="start" x="14" y="-491.5" font-family="Times New Roman,serif" font-size="10.00"> </text>
<text text-anchor="start" x="17" y="-491.5" font-family="Times New Roman,serif" font-size="10.00">d2 :Dice</text>
<polygon fill="none" stroke="black" points="8,-465 8,-485 56,-485 56,-465 8,-465"/>
<text text-anchor="start" x="13.5" y="-473" font-family="Times New Roman,serif" font-size="10.00">value = 6</text>
</g>
<!-- p1&#45;&#45;d2 -->
<g id="edge14" class="edge"><title>p1&#45;&#45;d2</title>
<path fill="none" stroke="black" d="M132.666,-576.461C113.867,-562.335 91.7912,-544.956 73,-528 65.6482,-521.366 58.0446,-513.661 51.412,-506.621"/>
<text text-anchor="middle" x="60.7126" y="-507.795" font-family="Times New Roman,serif" font-size="10.00">dice</text>
<text text-anchor="middle" x="122.888" y="-571.868" font-family="Times New Roman,serif" font-size="10.00">player</text>
</g>
<!-- f3 -->
<g id="node3" class="node"><title>f3</title>
<polygon fill="none" stroke="black" points="90,-506 90,-523 158,-523 158,-506 90,-506"/>
<text text-anchor="start" x="106.5" y="-512.5" font-family="Times New Roman,serif" font-size="10.00"> </text>
<text text-anchor="start" x="109.5" y="-512.5" font-family="Times New Roman,serif" font-size="10.00">f3 :Field</text>
<polygon fill="none" stroke="black" points="90,-444 90,-506 158,-506 158,-444 90,-444"/>
<text text-anchor="start" x="95.5" y="-494" font-family="Times New Roman,serif" font-size="10.00">color = &quot;blue&quot;</text>
<text text-anchor="start" x="96.5" y="-480" font-family="Times New Roman,serif" font-size="10.00">kind = &quot;start&quot;</text>
<text text-anchor="start" x="114.5" y="-466" font-family="Times New Roman,serif" font-size="10.00">x = 0</text>
<text text-anchor="start" x="114" y="-452" font-family="Times New Roman,serif" font-size="10.00">y = 0</text>
</g>
<!-- p1&#45;&#45;f3 -->
<g id="edge18" class="edge"><title>p1&#45;&#45;f3</title>
<path fill="none" stroke="black" d="M157.163,-564.33C152.222,-552.512 146.858,-539.681 141.913,-527.852"/>
<text text-anchor="middle" x="149.308" y="-532.084" font-family="Times New Roman,serif" font-size="10.00">start</text>
<text text-anchor="middle" x="149.768" y="-555.098" font-family="Times New Roman,serif" font-size="10.00">player</text>
</g>
<!-- p10 -->
<g id="node10" class="node"><title>p10</title>
<polygon fill="none" stroke="black" points="192,-499 192,-516 260,-516 260,-499 192,-499"/>
<text text-anchor="start" x="204" y="-505.5" font-family="Times New Roman,serif" font-size="10.00"> </text>
<text text-anchor="start" x="207" y="-505.5" font-family="Times New Roman,serif" font-size="10.00">p10 :Pawn</text>
<polygon fill="none" stroke="black" points="192,-451 192,-499 260,-499 260,-451 192,-451"/>
<text text-anchor="start" x="197.5" y="-487" font-family="Times New Roman,serif" font-size="10.00">color = &quot;blue&quot;</text>
<text text-anchor="start" x="216.5" y="-473" font-family="Times New Roman,serif" font-size="10.00">x = 0</text>
<text text-anchor="start" x="216" y="-459" font-family="Times New Roman,serif" font-size="10.00">y = 0</text>
</g>
<!-- p1&#45;&#45;p10 -->
<g id="edge20" class="edge"><title>p1&#45;&#45;p10</title>
<path fill="none" stroke="black" d="M192.837,-564.33C198.812,-550.038 205.405,-534.266 211.129,-520.574"/>
<text text-anchor="middle" x="211.532" y="-528.066" font-family="Times New Roman,serif" font-size="10.00">pawns</text>
<text text-anchor="middle" x="192.434" y="-551.838" font-family="Times New Roman,serif" font-size="10.00">player</text>
</g>
<!-- f11 -->
<g id="node11" class="node"><title>f11</title>
<polygon fill="none" stroke="black" points="227,-382 227,-399 295,-399 295,-382 227,-382"/>
<text text-anchor="start" x="241" y="-388.5" font-family="Times New Roman,serif" font-size="10.00"> </text>
<text text-anchor="start" x="244" y="-388.5" font-family="Times New Roman,serif" font-size="10.00">f11 :Field</text>
<polygon fill="none" stroke="black" points="227,-320 227,-382 295,-382 295,-320 227,-320"/>
<text text-anchor="start" x="232.5" y="-370" font-family="Times New Roman,serif" font-size="10.00">color = &quot;blue&quot;</text>
<text text-anchor="start" x="233.5" y="-356" font-family="Times New Roman,serif" font-size="10.00">kind = &quot;base&quot;</text>
<text text-anchor="start" x="251.5" y="-342" font-family="Times New Roman,serif" font-size="10.00">x = 0</text>
<text text-anchor="start" x="251" y="-328" font-family="Times New Roman,serif" font-size="10.00">y = 0</text>
</g>
<!-- p1&#45;&#45;f11 -->
<g id="edge16" class="edge"><title>p1&#45;&#45;f11</title>
<path fill="none" stroke="black" d="M217.32,-586.336C239.473,-573.028 264.525,-553.44 277,-528 296.106,-489.035 287.552,-438.855 277.063,-403.714"/>
<text text-anchor="middle" x="283.571" y="-408.806" font-family="Times New Roman,serif" font-size="10.00">base</text>
<text text-anchor="middle" x="222.782" y="-575.459" font-family="Times New Roman,serif" font-size="10.00">baseowner</text>
</g>
<!-- f4 -->
<g id="node4" class="node"><title>f4</title>
<polygon fill="none" stroke="black" points="14,-368 14,-385 56,-385 56,-368 14,-368"/>
<text text-anchor="start" x="17.5" y="-374.5" font-family="Times New Roman,serif" font-size="10.00"> </text>
<text text-anchor="start" x="20.5" y="-374.5" font-family="Times New Roman,serif" font-size="10.00">f4 :Field</text>
<polygon fill="none" stroke="black" points="14,-334 14,-368 56,-368 56,-334 14,-334"/>
<text text-anchor="start" x="25.5" y="-356" font-family="Times New Roman,serif" font-size="10.00">x = 0</text>
<text text-anchor="start" x="25" y="-342" font-family="Times New Roman,serif" font-size="10.00">y = 0</text>
</g>
<!-- f3&#45;&#45;f4 -->
<g id="edge2" class="edge"><title>f3&#45;&#45;f4</title>
<path fill="none" stroke="black" d="M92.8721,-440.33C80.6411,-423.564 66.9244,-404.761 55.9157,-389.671"/>
<text text-anchor="middle" x="64.6713" y="-392.002" font-family="Times New Roman,serif" font-size="10.00">next</text>
<text text-anchor="middle" x="84.1165" y="-432.999" font-family="Times New Roman,serif" font-size="10.00">prev</text>
</g>
<!-- p8 -->
<g id="node8" class="node"><title>p8</title>
<polygon fill="none" stroke="black" points="94,-375 94,-392 157,-392 157,-375 94,-375"/>
<text text-anchor="start" x="105.5" y="-381.5" font-family="Times New Roman,serif" font-size="10.00"> </text>
<text text-anchor="start" x="108.5" y="-381.5" font-family="Times New Roman,serif" font-size="10.00">p8 :Pawn</text>
<polygon fill="none" stroke="black" points="94,-327 94,-375 157,-375 157,-327 94,-327"/>
<text text-anchor="start" x="99.5" y="-363" font-family="Times New Roman,serif" font-size="10.00">color = &quot;red&quot;</text>
<text text-anchor="start" x="116" y="-349" font-family="Times New Roman,serif" font-size="10.00">x = 0</text>
<text text-anchor="start" x="115.5" y="-335" font-family="Times New Roman,serif" font-size="10.00">y = 0</text>
</g>
<!-- f3&#45;&#45;p8 -->
<g id="edge4" class="edge"><title>f3&#45;&#45;p8</title>
<path fill="none" stroke="black" d="M124.35,-440.33C124.467,-426.038 124.596,-410.266 124.708,-396.574"/>
<text text-anchor="middle" x="128.86" y="-403.172" font-family="Times New Roman,serif" font-size="10.00">pawns</text>
<text text-anchor="middle" x="120.198" y="-428.733" font-family="Times New Roman,serif" font-size="10.00">pos</text>
</g>
<!-- f5 -->
<g id="node5" class="node"><title>f5</title>
<polygon fill="none" stroke="black" points="12,-244 12,-261 54,-261 54,-244 12,-244"/>
<text text-anchor="start" x="15.5" y="-250.5" font-family="Times New Roman,serif" font-size="10.00"> </text>
<text text-anchor="start" x="18.5" y="-250.5" font-family="Times New Roman,serif" font-size="10.00">f5 :Field</text>
<polygon fill="none" stroke="black" points="12,-210 12,-244 54,-244 54,-210 12,-210"/>
<text text-anchor="start" x="23.5" y="-232" font-family="Times New Roman,serif" font-size="10.00">x = 0</text>
<text text-anchor="start" x="23" y="-218" font-family="Times New Roman,serif" font-size="10.00">y = 0</text>
</g>
<!-- f4&#45;&#45;f5 -->
<g id="edge6" class="edge"><title>f4&#45;&#45;f5</title>
<path fill="none" stroke="black" d="M34.5311,-330.396C34.2124,-310.958 33.7924,-285.337 33.4729,-265.847"/>
<text text-anchor="middle" x="37.8471" y="-272.34" font-family="Times New Roman,serif" font-size="10.00">next</text>
<text text-anchor="middle" x="30.1569" y="-318.904" font-family="Times New Roman,serif" font-size="10.00">prev</text>
</g>
<!-- f6 -->
<g id="node6" class="node"><title>f6</title>
<polygon fill="none" stroke="black" points="12,-134 12,-151 54,-151 54,-134 12,-134"/>
<text text-anchor="start" x="15.5" y="-140.5" font-family="Times New Roman,serif" font-size="10.00"> </text>
<text text-anchor="start" x="18.5" y="-140.5" font-family="Times New Roman,serif" font-size="10.00">f6 :Field</text>
<polygon fill="none" stroke="black" points="12,-100 12,-134 54,-134 54,-100 12,-100"/>
<text text-anchor="start" x="23.5" y="-122" font-family="Times New Roman,serif" font-size="10.00">x = 0</text>
<text text-anchor="start" x="23" y="-108" font-family="Times New Roman,serif" font-size="10.00">y = 0</text>
</g>
<!-- f5&#45;&#45;f6 -->
<g id="edge8" class="edge"><title>f5&#45;&#45;f6</title>
<path fill="none" stroke="black" d="M33,-206.342C33,-190.719 33,-171.436 33,-155.792"/>
<text text-anchor="middle" x="37.2262" y="-162.355" font-family="Times New Roman,serif" font-size="10.00">next</text>
<text text-anchor="middle" x="28.7738" y="-194.778" font-family="Times New Roman,serif" font-size="10.00">prev</text>
</g>
<!-- f7 -->
<g id="node7" class="node"><title>f7</title>
<polygon fill="none" stroke="black" points="12,-38 12,-55 54,-55 54,-38 12,-38"/>
<text text-anchor="start" x="15.5" y="-44.5" font-family="Times New Roman,serif" font-size="10.00"> </text>
<text text-anchor="start" x="18.5" y="-44.5" font-family="Times New Roman,serif" font-size="10.00">f7 :Field</text>
<polygon fill="none" stroke="black" points="12,-4 12,-38 54,-38 54,-4 12,-4"/>
<text text-anchor="start" x="23.5" y="-26" font-family="Times New Roman,serif" font-size="10.00">x = 0</text>
<text text-anchor="start" x="23" y="-12" font-family="Times New Roman,serif" font-size="10.00">y = 0</text>
</g>
<!-- f6&#45;&#45;f7 -->
<g id="edge10" class="edge"><title>f6&#45;&#45;f7</title>
<path fill="none" stroke="black" d="M33,-96.2861C33,-84.624 33,-71.1822 33,-59.538"/>
<text text-anchor="middle" x="37.2262" y="-66.1011" font-family="Times New Roman,serif" font-size="10.00">next</text>
<text text-anchor="middle" x="28.7738" y="-84.7231" font-family="Times New Roman,serif" font-size="10.00">prev</text>
</g>
<!-- p9 -->
<g id="node9" class="node"><title>p9</title>
<polygon fill="none" stroke="black" points="88,-258 88,-275 166,-275 166,-258 88,-258"/>
<text text-anchor="start" x="105.5" y="-264.5" font-family="Times New Roman,serif" font-size="10.00"> </text>
<text text-anchor="start" x="108.5" y="-264.5" font-family="Times New Roman,serif" font-size="10.00">p9 :Player</text>
<polygon fill="none" stroke="black" points="88,-196 88,-258 166,-258 166,-196 88,-196"/>
<text text-anchor="start" x="101" y="-246" font-family="Times New Roman,serif" font-size="10.00">color = &quot;red&quot;</text>
<text text-anchor="start" x="93.5" y="-232" font-family="Times New Roman,serif" font-size="10.00">name = &quot;Sabine&quot;</text>
<text text-anchor="start" x="117.5" y="-218" font-family="Times New Roman,serif" font-size="10.00">x = 0</text>
<text text-anchor="start" x="117" y="-204" font-family="Times New Roman,serif" font-size="10.00">y = 0</text>
</g>
<!-- p8&#45;&#45;p9 -->
<g id="edge22" class="edge"><title>p8&#45;&#45;p9</title>
<path fill="none" stroke="black" d="M125.584,-323.385C125.808,-309.74 126.065,-294.033 126.299,-279.786"/>
<text text-anchor="middle" x="130.376" y="-286.417" font-family="Times New Roman,serif" font-size="10.00">player</text>
<text text-anchor="middle" x="121.507" y="-311.753" font-family="Times New Roman,serif" font-size="10.00">pawns</text>
</g>
<!-- p10&#45;&#45;f11 -->
<g id="edge12" class="edge"><title>p10&#45;&#45;f11</title>
<path fill="none" stroke="black" d="M236.218,-447.385C240.132,-433.74 244.638,-418.033 248.725,-403.786"/>
<text text-anchor="middle" x="250.288" y="-411.163" font-family="Times New Roman,serif" font-size="10.00">pos</text>
<text text-anchor="middle" x="234.654" y="-435.008" font-family="Times New Roman,serif" font-size="10.00">pawns</text>
</g>
</g>
</svg>
