<?xml version="1.0" encoding="UTF-8" standalone="no"?>
<!DOCTYPE svg PUBLIC "-//W3C//DTD SVG 1.1//EN"
 "http://www.w3.org/Graphics/SVG/1.1/DTD/svg11.dtd">
<!-- Generated by graphviz version 2.28.0 (20110507.0327)
 -->
<!-- Title: ObjectDiagram Pages: 1 -->
<svg width="489pt" height="966pt"
 viewBox="0.00 0.00 488.56 966.00" xmlns="http://www.w3.org/2000/svg" xmlns:xlink="http://www.w3.org/1999/xlink">
<g id="graph1" class="graph" transform="scale(1 1) rotate(0) translate(4 962)">
<title>ObjectDiagram</title>
<polygon fill="white" stroke="white" points="-4,5 -4,-962 485.564,-962 485.564,5 -4,5"/>
<g id="graph2" class="cluster"><title>cluster_n11</title>
<polygon fill="none" stroke="grey" points="44,-589 44,-698 159,-698 159,-589 44,-589"/>
<image xlink:href="../../SDMLib.net/doc/forbiddensign.svg" width="30px" height="30px" preserveAspectRatio="xMinYMin meet" x="57" y="-689"/>
<text text-anchor="start" x="93.5" y="-670.8" font-family="Times New Roman,serif" font-size="14.00">NAC n11</text>
</g>
<!-- p1 -->
<g id="node1" class="node"><title>p1</title>
<polygon fill="deepskyblue" stroke="deepskyblue" points="273.5,-902.5 273.5,-953.5 334.5,-953.5 334.5,-902.5 273.5,-902.5"/>
<text text-anchor="start" x="301" y="-943.5" font-family="Arial" font-size="10.00">«bound»</text>
<polygon fill="none" stroke="black" points="274,-922 274,-938 335,-938 335,-922 274,-922"/>
<text text-anchor="start" x="277.5" y="-928" font-family="Arial" font-size="10.00"> </text>
<text text-anchor="start" x="281.5" y="-928" font-family="Arial" font-size="10.00"> p1 :PawnPO </text>
<polygon fill="none" stroke="black" points="274,-902 274,-922 335,-922 335,-902 274,-902"/>
<text text-anchor="start" x="301" y="-910" font-family="Arial" font-size="10.00"> &#160;</text>
</g>
<!-- p3 -->
<g id="node2" class="node"><title>p3</title>
<polygon fill="deepskyblue" stroke="deepskyblue" points="157,-820.5 157,-857.5 233,-857.5 233,-820.5 157,-820.5"/>
<polygon fill="none" stroke="black" points="157,-840 157,-857 233,-857 233,-840 157,-840"/>
<text text-anchor="start" x="160.5" y="-846.5" font-family="Arial" font-size="10.00"> </text>
<text text-anchor="start" x="164.5" y="-846.5" font-family="Arial" font-size="10.00"> p3 :PlayerPO </text>
<polygon fill="none" stroke="black" points="157,-820 157,-840 233,-840 233,-820 157,-820"/>
<text text-anchor="start" x="191.5" y="-828" font-family="Arial" font-size="10.00"> &#160;</text>
</g>
<!-- p1&#45;&#45;p3 -->
<g id="edge15" class="edge"><title>p1&#45;&#45;p3</title>
<path fill="none" stroke="black" d="M268.007,-898.272C253.001,-886.294 235.87,-872.621 221.976,-861.531"/>
<text text-anchor="middle" x="231.695" y="-861.382" font-family="Arial" font-size="10.00">player</text>
</g>
<!-- f7 -->
<g id="node4" class="node"><title>f7</title>
<polygon fill="deepskyblue" stroke="deepskyblue" points="370,-724.5 370,-761.5 452,-761.5 452,-724.5 370,-724.5"/>
<polygon fill="none" stroke="black" points="370,-744 370,-761 452,-761 452,-744 370,-744"/>
<text text-anchor="start" x="381.5" y="-750.5" font-family="Arial" font-size="10.00"> </text>
<text text-anchor="start" x="385.5" y="-750.5" font-family="Arial" font-size="10.00"> f7 :FieldPO </text>
<polygon fill="none" stroke="black" points="370,-724 370,-744 452,-744 452,-724 370,-724"/>
<text text-anchor="start" x="375.5" y="-732" font-family="Arial" font-size="10.00"> kind == &quot;base&quot; </text>
</g>
<!-- p1&#45;&#45;f7 -->
<g id="edge19" class="edge"><title>p1&#45;&#45;f7</title>
<path fill="none" stroke="black" d="M329.374,-898.331C338.393,-887.387 348.227,-874.524 356,-862 375.785,-830.121 393.037,-789.97 402.722,-765.678"/>
<text text-anchor="middle" x="403.245" y="-773.164" font-family="Arial" font-size="10.00">pos</text>
</g>
<!-- p2 -->
<g id="node8" class="node"><title>p2</title>
<a xlink:href="../../SDMLib/src/org/sdmlib/examples/ludo/Pawn.java" xlink:title="&lt;TABLE&gt;">
<polygon fill="none" stroke="black" points="269,-840 269,-857 339,-857 339,-840 269,-840"/>
<text text-anchor="start" x="281.5" y="-846.5" font-family="Arial" font-size="10.00"> </text>
<text text-anchor="start" x="285.5" y="-846.5" font-family="Arial" font-size="10.00">p2 :Pawn</text>
</a>
<polygon fill="none" stroke="black" points="269,-820 269,-840 339,-840 339,-820 269,-820"/>
<text text-anchor="start" x="274" y="-828" font-family="Arial" font-size="10.00">color = &quot;blue&quot;</text>
</g>
<!-- p1&#45;&#45;p2 -->
<g id="edge3" class="edge"><title>p1&#45;&#45;p2</title>
<path fill="none" stroke="black" stroke-dasharray="1,5" d="M304,-898.03C304,-886.167 304,-872.675 304,-861.687"/>
<text text-anchor="middle" x="308.226" y="-868.25" font-family="Arial" font-size="10.00">match</text>
</g>
<!-- d5 -->
<g id="node3" class="node"><title>d5</title>
<polygon fill="deepskyblue" stroke="deepskyblue" points="146,-724.5 146,-761.5 214,-761.5 214,-724.5 146,-724.5"/>
<polygon fill="none" stroke="black" points="146,-744 146,-761 214,-761 214,-744 146,-744"/>
<text text-anchor="start" x="149.5" y="-750.5" font-family="Arial" font-size="10.00"> </text>
<text text-anchor="start" x="153.5" y="-750.5" font-family="Arial" font-size="10.00"> d5 :DicePO </text>
<polygon fill="none" stroke="black" points="146,-724 146,-744 214,-744 214,-724 146,-724"/>
<text text-anchor="start" x="154" y="-732" font-family="Arial" font-size="10.00"> value == 6 </text>
</g>
<!-- p3&#45;&#45;d5 -->
<g id="edge17" class="edge"><title>p3&#45;&#45;d5</title>
<path fill="none" stroke="black" d="M191.521,-816.198C189.098,-801.012 185.879,-780.844 183.46,-765.684"/>
<text text-anchor="middle" x="189.062" y="-771.467" font-family="Arial" font-size="10.00">dice</text>
</g>
<!-- p3&#45;&#45;f7 -->
<g id="edge21" class="edge"><title>p3&#45;&#45;f7</title>
<path fill="none" stroke="black" d="M241.004,-820.127C244.72,-818.719 248.42,-817.329 252,-816 296.677,-799.419 310.067,-800.683 353,-780 361.648,-775.834 370.631,-770.7 378.869,-765.628"/>
<text text-anchor="middle" x="373.337" y="-771.458" font-family="Arial" font-size="10.00">base</text>
</g>
<!-- f9 -->
<g id="node5" class="node"><title>f9</title>
<polygon fill="deepskyblue" stroke="deepskyblue" points="8,-724.5 8,-761.5 74,-761.5 74,-724.5 8,-724.5"/>
<polygon fill="none" stroke="black" points="8,-744 8,-761 74,-761 74,-744 8,-744"/>
<text text-anchor="start" x="11.5" y="-750.5" font-family="Arial" font-size="10.00"> </text>
<text text-anchor="start" x="15.5" y="-750.5" font-family="Arial" font-size="10.00"> f9 :FieldPO </text>
<polygon fill="none" stroke="black" points="8,-724 8,-744 74,-744 74,-724 8,-724"/>
<text text-anchor="start" x="37.5" y="-732" font-family="Arial" font-size="10.00"> &#160;</text>
</g>
<!-- p3&#45;&#45;f9 -->
<g id="edge23" class="edge"><title>p3&#45;&#45;f9</title>
<path fill="none" stroke="black" d="M157.129,-816.402C138.575,-805.671 115.98,-792.381 96,-780 88.6275,-775.431 80.785,-770.403 73.4013,-765.589"/>
<text text-anchor="middle" x="83.3027" y="-764.49" font-family="Arial" font-size="10.00">start</text>
</g>
<!-- p4 -->
<g id="node9" class="node"><title>p4</title>
<a xlink:href="../../SDMLib/src/org/sdmlib/examples/ludo/Player.java" xlink:title="&lt;TABLE&gt;">
<polygon fill="none" stroke="black" points="248,-758 248,-775 336,-775 336,-758 248,-758"/>
<text text-anchor="start" x="267.5" y="-764.5" font-family="Arial" font-size="10.00"> </text>
<text text-anchor="start" x="271.5" y="-764.5" font-family="Arial" font-size="10.00">p4 :Player</text>
</a>
<polygon fill="none" stroke="black" points="248,-710 248,-758 336,-758 336,-710 248,-710"/>
<text text-anchor="start" x="253" y="-746" font-family="Arial" font-size="10.00">color = &quot;blue&quot;</text>
<text text-anchor="start" x="253" y="-732" font-family="Arial" font-size="10.00">enumColor = blue</text>
<text text-anchor="start" x="253" y="-718" font-family="Arial" font-size="10.00">name = &quot;Tom&quot;</text>
</g>
<!-- p3&#45;&#45;p4 -->
<g id="edge5" class="edge"><title>p3&#45;&#45;p4</title>
<path fill="none" stroke="black" stroke-dasharray="1,5" d="M217.498,-816.198C228.691,-805.351 242.508,-791.962 255.19,-779.671"/>
<text text-anchor="middle" x="251.623" y="-786.513" font-family="Arial" font-size="10.00">match</text>
</g>
<!-- d6 -->
<g id="node19" class="node"><title>d6</title>
<a xlink:href="../../SDMLib/src/org/sdmlib/examples/ludo/Dice.java" xlink:title="&lt;TABLE&gt;">
<polygon fill="none" stroke="black" points="176,-621 176,-638 227,-638 227,-621 176,-621"/>
<text text-anchor="start" x="181" y="-627.5" font-family="Arial" font-size="10.00"> </text>
<text text-anchor="start" x="185" y="-627.5" font-family="Arial" font-size="10.00">d6 :Dice</text>
</a>
<polygon fill="none" stroke="black" points="176,-601 176,-621 227,-621 227,-601 176,-601"/>
<text text-anchor="start" x="181" y="-609" font-family="Arial" font-size="10.00">value = 6</text>
</g>
<!-- d5&#45;&#45;d6 -->
<g id="edge7" class="edge"><title>d5&#45;&#45;d6</title>
<path fill="none" stroke="black" stroke-dasharray="1,5" d="M183.754,-720.368C187.553,-698.479 193.395,-664.82 197.207,-642.853"/>
<text text-anchor="middle" x="199.821" y="-650.005" font-family="Arial" font-size="10.00">match</text>
</g>
<!-- f8 -->
<g id="node20" class="node"><title>f8</title>
<a xlink:href="../../SDMLib/src/org/sdmlib/examples/ludo/Field.java" xlink:title="&lt;TABLE&gt;">
<polygon fill="none" stroke="black" points="385,-628 385,-645 455,-645 455,-628 385,-628"/>
<text text-anchor="start" x="400.5" y="-634.5" font-family="Arial" font-size="10.00"> </text>
<text text-anchor="start" x="404.5" y="-634.5" font-family="Arial" font-size="10.00">f8 :Field</text>
</a>
<polygon fill="none" stroke="black" points="385,-594 385,-628 455,-628 455,-594 385,-594"/>
<text text-anchor="start" x="390" y="-616" font-family="Arial" font-size="10.00">color = &quot;blue&quot;</text>
<text text-anchor="start" x="390" y="-602" font-family="Arial" font-size="10.00">kind = &quot;base&quot;</text>
</g>
<!-- f7&#45;&#45;f8 -->
<g id="edge9" class="edge"><title>f7&#45;&#45;f8</title>
<path fill="none" stroke="black" stroke-dasharray="1,5" d="M412.609,-720.368C414.075,-700.654 416.252,-671.394 417.863,-649.726"/>
<text text-anchor="middle" x="421.406" y="-656.577" font-family="Arial" font-size="10.00">match</text>
</g>
<!-- p12 -->
<g id="node7" class="node"><title>p12</title>
<polygon fill="deepskyblue" stroke="deepskyblue" points="63,-601.5 63,-638.5 141,-638.5 141,-601.5 63,-601.5"/>
<polygon fill="none" stroke="black" points="63,-621 63,-638 141,-638 141,-621 63,-621"/>
<text text-anchor="start" x="66.5" y="-627.5" font-family="Arial" font-size="10.00"> </text>
<text text-anchor="start" x="70.5" y="-627.5" font-family="Arial" font-size="10.00"> p12 :PawnPO </text>
<polygon fill="none" stroke="black" points="63,-601 63,-621 141,-621 141,-601 63,-601"/>
<text text-anchor="start" x="98.5" y="-609" font-family="Arial" font-size="10.00"> &#160;</text>
</g>
<!-- f9&#45;&#45;p12 -->
<g id="edge25" class="edge"><title>f9&#45;&#45;p12</title>
<path fill="none" stroke="black" d="M51.9056,-720.368C62.9402,-698.479 79.9088,-664.82 90.9832,-642.853"/>
<text text-anchor="middle" x="90.6771" y="-650.348" font-family="Arial" font-size="10.00">pawns</text>
</g>
<!-- f10 -->
<g id="node14" class="node"><title>f10</title>
<a xlink:href="../../SDMLib/src/org/sdmlib/examples/ludo/Field.java" xlink:title="&lt;TABLE&gt;">
<polygon fill="none" stroke="black" points="136,-326 136,-343 206,-343 206,-326 136,-326"/>
<text text-anchor="start" x="149" y="-332.5" font-family="Arial" font-size="10.00"> </text>
<text text-anchor="start" x="153" y="-332.5" font-family="Arial" font-size="10.00">f10 :Field</text>
</a>
<polygon fill="none" stroke="black" points="136,-292 136,-326 206,-326 206,-292 136,-292"/>
<text text-anchor="start" x="141" y="-314" font-family="Arial" font-size="10.00">color = &quot;blue&quot;</text>
<text text-anchor="start" x="141" y="-300" font-family="Arial" font-size="10.00">kind = &quot;start&quot;</text>
</g>
<!-- f9&#45;&#45;f10 -->
<g id="edge11" class="edge"><title>f9&#45;&#45;f10</title>
<path fill="none" stroke="black" stroke-dasharray="1,5" d="M38.2607,-720.477C35.0505,-690.646 31.2061,-635.187 40,-589 58.3234,-492.763 72.6638,-469.211 121,-384 128.165,-371.369 137.558,-358.484 146.266,-347.553"/>
<text text-anchor="middle" x="143.973" y="-354.787" font-family="Arial" font-size="10.00">match</text>
</g>
<!-- p12&#45;&#45;p3 -->
<g id="edge27" class="edge"><title>p12&#45;&#45;p3</title>
<path fill="none" stroke="black" d="M101.235,-642.55C101.032,-674.587 104.303,-735.746 129,-780 136.954,-794.253 149.789,-806.723 162.035,-816.412"/>
<text text-anchor="middle" x="152.334" y="-811.486" font-family="Arial" font-size="10.00">player</text>
</g>
<!-- p13 -->
<g id="node13" class="node"><title>p13</title>
<a xlink:href="../../SDMLib/src/org/sdmlib/examples/ludo/Pawn.java" xlink:title="&lt;TABLE&gt;">
<polygon fill="none" stroke="black" points="138,-415 138,-432 204,-432 204,-415 138,-415"/>
<text text-anchor="start" x="146" y="-421.5" font-family="Arial" font-size="10.00"> </text>
<text text-anchor="start" x="150" y="-421.5" font-family="Arial" font-size="10.00">p13 :Pawn</text>
</a>
<polygon fill="none" stroke="black" points="138,-395 138,-415 204,-415 204,-395 138,-395"/>
<text text-anchor="start" x="143" y="-403" font-family="Arial" font-size="10.00">color = &quot;red&quot;</text>
</g>
<!-- p12&#45;&#45;p13 -->
<g id="edge13" class="edge"><title>p12&#45;&#45;p13</title>
<path fill="none" stroke="black" stroke-dasharray="1,5" d="M109.384,-597.168C122.665,-557.904 150.427,-475.824 163.669,-436.675"/>
<text text-anchor="middle" x="164.768" y="-444.114" font-family="Arial" font-size="10.00">match</text>
</g>
<!-- p2&#45;&#45;p4 -->
<g id="edge29" class="edge"><title>p2&#45;&#45;p4</title>
<path fill="none" stroke="black" d="M301.217,-816.198C299.832,-805.351 298.123,-791.962 296.554,-779.671"/>
<text text-anchor="middle" x="301.894" y="-785.626" font-family="Arial" font-size="10.00">player</text>
<text text-anchor="middle" x="295.877" y="-805.243" font-family="Arial" font-size="10.00">pawns</text>
</g>
<!-- p2&#45;&#45;f8 -->
<g id="edge31" class="edge"><title>p2&#45;&#45;f8</title>
<path fill="none" stroke="black" d="M347.327,-836.057C386.336,-831.734 441.617,-818.651 469,-780 497.304,-740.05 466.646,-683.298 442.697,-649.508"/>
<text text-anchor="middle" x="451.283" y="-652.134" font-family="Arial" font-size="10.00">pos</text>
<text text-anchor="middle" x="355.77" y="-828.199" font-family="Arial" font-size="10.00">pawns</text>
</g>
<!-- l14 -->
<g id="node10" class="node"><title>l14</title>
<a xlink:href="../../SDMLib/src/org/sdmlib/examples/ludo/Ludo.java" xlink:title="&lt;TABLE&gt;">
<polygon fill="none" stroke="black" points="300,-611 300,-628 351,-628 351,-611 300,-611"/>
<text text-anchor="start" x="303.5" y="-617.5" font-family="Arial" font-size="10.00"> </text>
<text text-anchor="start" x="307.5" y="-617.5" font-family="Arial" font-size="10.00">l14 :Ludo</text>
</a>
</g>
<!-- p4&#45;&#45;l14 -->
<g id="edge33" class="edge"><title>p4&#45;&#45;l14</title>
<path fill="none" stroke="black" d="M301.723,-706.35C307.844,-683.904 315.473,-655.933 320.292,-638.264"/>
<text text-anchor="middle" x="321.984" y="-645.62" font-family="Arial" font-size="10.00">game</text>
<text text-anchor="middle" x="300.03" y="-693.995" font-family="Arial" font-size="10.00">players</text>
</g>
<!-- p4&#45;&#45;f10 -->
<g id="edge37" class="edge"><title>p4&#45;&#45;f10</title>
<path fill="none" stroke="black" d="M283.826,-706.48C283.197,-703.613 282.581,-700.76 282,-698 252.687,-558.89 279.46,-513.588 221,-384 215.145,-371.022 206.235,-358.265 197.55,-347.537"/>
<text text-anchor="middle" x="206.501" y="-349.495" font-family="Arial" font-size="10.00">start</text>
<text text-anchor="middle" x="277.759" y="-696.03" font-family="Arial" font-size="10.00">starter</text>
</g>
<!-- p4&#45;&#45;d6 -->
<g id="edge35" class="edge"><title>p4&#45;&#45;d6</title>
<path fill="none" stroke="black" d="M255.915,-706.316C253.507,-703.561 251.177,-700.772 249,-698 235.185,-680.407 221.928,-658.64 212.86,-642.742"/>
<text text-anchor="middle" x="221.045" y="-645.987" font-family="Arial" font-size="10.00">dice</text>
<text text-anchor="middle" x="246.777" y="-699.752" font-family="Arial" font-size="10.00">player</text>
</g>
<!-- p4&#45;&#45;f8 -->
<g id="edge39" class="edge"><title>p4&#45;&#45;f8</title>
<path fill="none" stroke="black" d="M344.215,-711.12C347.185,-709.384 350.129,-707.667 353,-706 359.197,-702.401 361.725,-702.851 367,-698 382.051,-684.159 395.126,-665.289 404.523,-649.694"/>
<text text-anchor="middle" x="403.382" y="-657.129" font-family="Arial" font-size="10.00">base</text>
<text text-anchor="middle" x="349.907" y="-700.398" font-family="Arial" font-size="10.00">baseowner</text>
</g>
<!-- p15 -->
<g id="node11" class="node"><title>p15</title>
<a xlink:href="../../SDMLib/src/org/sdmlib/examples/ludo/Player.java" xlink:title="&lt;TABLE&gt;">
<polygon fill="none" stroke="black" points="300,-532 300,-549 385,-549 385,-532 300,-532"/>
<text text-anchor="start" x="315.5" y="-538.5" font-family="Arial" font-size="10.00"> </text>
<text text-anchor="start" x="319.5" y="-538.5" font-family="Arial" font-size="10.00">p15 :Player</text>
</a>
<polygon fill="none" stroke="black" points="300,-484 300,-532 385,-532 385,-484 300,-484"/>
<text text-anchor="start" x="305" y="-520" font-family="Arial" font-size="10.00">color = &quot;red&quot;</text>
<text text-anchor="start" x="305" y="-506" font-family="Arial" font-size="10.00">enumColor = red</text>
<text text-anchor="start" x="305" y="-492" font-family="Arial" font-size="10.00">name = &quot;Sabine&quot;</text>
</g>
<!-- l14&#45;&#45;p15 -->
<g id="edge41" class="edge"><title>l14&#45;&#45;p15</title>
<path fill="none" stroke="black" d="M327.884,-601.867C330.1,-588.697 333.24,-570.047 335.995,-553.678"/>
<text text-anchor="middle" x="338.658" y="-560.816" font-family="Arial" font-size="10.00">players</text>
<text text-anchor="middle" x="325.221" y="-589.728" font-family="Arial" font-size="10.00">game</text>
</g>
<!-- f16 -->
<g id="node12" class="node"><title>f16</title>
<a xlink:href="../../SDMLib/src/org/sdmlib/examples/ludo/Field.java" xlink:title="&lt;TABLE&gt;">
<polygon fill="none" stroke="black" points="308,-422 308,-439 377,-439 377,-422 308,-422"/>
<text text-anchor="start" x="320.5" y="-428.5" font-family="Arial" font-size="10.00"> </text>
<text text-anchor="start" x="324.5" y="-428.5" font-family="Arial" font-size="10.00">f16 :Field</text>
</a>
<polygon fill="none" stroke="black" points="308,-388 308,-422 377,-422 377,-388 308,-388"/>
<text text-anchor="start" x="313" y="-410" font-family="Arial" font-size="10.00">color = &quot;red&quot;</text>
<text text-anchor="start" x="313" y="-396" font-family="Arial" font-size="10.00">kind = &quot;start&quot;</text>
</g>
<!-- p15&#45;&#45;f16 -->
<g id="edge43" class="edge"><title>p15&#45;&#45;f16</title>
<path fill="none" stroke="black" d="M342,-480.391C342,-468.351 342,-455.07 342,-443.641"/>
<text text-anchor="middle" x="346.226" y="-450.204" font-family="Arial" font-size="10.00">start</text>
<text text-anchor="middle" x="337.774" y="-468.828" font-family="Arial" font-size="10.00">starter</text>
</g>
<!-- p15&#45;&#45;p13 -->
<g id="edge45" class="edge"><title>p15&#45;&#45;p13</title>
<path fill="none" stroke="black" d="M291.619,-486.243C264.626,-470.299 231.979,-451.017 207.461,-436.535"/>
<text text-anchor="middle" x="217.414" y="-435.006" font-family="Arial" font-size="10.00">pawns</text>
<text text-anchor="middle" x="281.666" y="-482.773" font-family="Arial" font-size="10.00">player</text>
</g>
<!-- p13&#45;&#45;f10 -->
<g id="edge47" class="edge"><title>p13&#45;&#45;f10</title>
<path fill="none" stroke="black" d="M171,-391.198C171,-378.29 171,-361.782 171,-347.81"/>
<text text-anchor="middle" x="175.226" y="-354.373" font-family="Arial" font-size="10.00">pos</text>
<text text-anchor="middle" x="166.774" y="-379.635" font-family="Arial" font-size="10.00">pawns</text>
</g>
<!-- f17 -->
<g id="node15" class="node"><title>f17</title>
<a xlink:href="../../SDMLib/src/org/sdmlib/examples/ludo/Field.java" xlink:title="&lt;TABLE&gt;">
<polygon fill="none" stroke="black" points="146,-225 146,-242 197,-242 197,-225 146,-225"/>
<text text-anchor="start" x="149.5" y="-231.5" font-family="Arial" font-size="10.00"> </text>
<text text-anchor="start" x="153.5" y="-231.5" font-family="Arial" font-size="10.00">f17 :Field</text>
</a>
</g>
<!-- f10&#45;&#45;f17 -->
<g id="edge49" class="edge"><title>f10&#45;&#45;f17</title>
<path fill="none" stroke="black" d="M171,-288.32C171,-276.312 171,-262.75 171,-252.309"/>
<text text-anchor="middle" x="175.226" y="-258.872" font-family="Arial" font-size="10.00">next</text>
<text text-anchor="middle" x="166.774" y="-276.757" font-family="Arial" font-size="10.00">prev</text>
</g>
<!-- f18 -->
<g id="node16" class="node"><title>f18</title>
<a xlink:href="../../SDMLib/src/org/sdmlib/examples/ludo/Field.java" xlink:title="&lt;TABLE&gt;">
<polygon fill="none" stroke="black" points="146,-153 146,-170 197,-170 197,-153 146,-153"/>
<text text-anchor="start" x="149.5" y="-159.5" font-family="Arial" font-size="10.00"> </text>
<text text-anchor="start" x="153.5" y="-159.5" font-family="Arial" font-size="10.00">f18 :Field</text>
</a>
</g>
<!-- f17&#45;&#45;f18 -->
<g id="edge51" class="edge"><title>f17&#45;&#45;f18</title>
<path fill="none" stroke="black" d="M171,-215.697C171,-204.846 171,-190.917 171,-180.104"/>
<text text-anchor="middle" x="175.226" y="-186.667" font-family="Arial" font-size="10.00">next</text>
<text text-anchor="middle" x="166.774" y="-204.134" font-family="Arial" font-size="10.00">prev</text>
</g>
<!-- f19 -->
<g id="node17" class="node"><title>f19</title>
<a xlink:href="../../SDMLib/src/org/sdmlib/examples/ludo/Field.java" xlink:title="&lt;TABLE&gt;">
<polygon fill="none" stroke="black" points="146,-81 146,-98 197,-98 197,-81 146,-81"/>
<text text-anchor="start" x="149.5" y="-87.5" font-family="Arial" font-size="10.00"> </text>
<text text-anchor="start" x="153.5" y="-87.5" font-family="Arial" font-size="10.00">f19 :Field</text>
</a>
</g>
<!-- f18&#45;&#45;f19 -->
<g id="edge53" class="edge"><title>f18&#45;&#45;f19</title>
<path fill="none" stroke="black" d="M171,-143.697C171,-132.846 171,-118.917 171,-108.104"/>
<text text-anchor="middle" x="175.226" y="-114.667" font-family="Arial" font-size="10.00">next</text>
<text text-anchor="middle" x="166.774" y="-132.134" font-family="Arial" font-size="10.00">prev</text>
</g>
<!-- f20 -->
<g id="node18" class="node"><title>f20</title>
<a xlink:href="../../SDMLib/src/org/sdmlib/examples/ludo/Field.java" xlink:title="&lt;TABLE&gt;">
<polygon fill="none" stroke="black" points="146,-9 146,-26 197,-26 197,-9 146,-9"/>
<text text-anchor="start" x="149.5" y="-15.5" font-family="Arial" font-size="10.00"> </text>
<text text-anchor="start" x="153.5" y="-15.5" font-family="Arial" font-size="10.00">f20 :Field</text>
</a>
</g>
<!-- f19&#45;&#45;f20 -->
<g id="edge55" class="edge"><title>f19&#45;&#45;f20</title>
<path fill="none" stroke="black" d="M171,-71.6966C171,-60.8463 171,-46.9167 171,-36.1043"/>
<text text-anchor="middle" x="175.226" y="-42.6674" font-family="Arial" font-size="10.00">next</text>
<text text-anchor="middle" x="166.774" y="-60.1335" font-family="Arial" font-size="10.00">prev</text>
</g>
</g>
</svg>
