<?xml version="1.0" encoding="UTF-8" standalone="no"?>
<!DOCTYPE svg PUBLIC "-//W3C//DTD SVG 1.1//EN"
 "http://www.w3.org/Graphics/SVG/1.1/DTD/svg11.dtd">
<!-- Generated by graphviz version 2.28.0 (20110507.0327)
 -->
<!-- Title: ObjectDiagram Pages: 1 -->
<svg width="462pt" height="966pt"
 viewBox="0.00 0.00 461.66 966.00" xmlns="http://www.w3.org/2000/svg" xmlns:xlink="http://www.w3.org/1999/xlink">
<g id="graph1" class="graph" transform="scale(1 1) rotate(0) translate(4 962)">
<title>ObjectDiagram</title>
<polygon fill="white" stroke="white" points="-4,5 -4,-962 458.656,-962 458.656,5 -4,5"/>
<g id="graph2" class="cluster"><title>cluster_n11</title>
<polygon fill="none" stroke="grey" points="30,-589 30,-698 145,-698 145,-589 30,-589"/>
<image xlink:href="../../SDMLib/doc/forbiddensign.svg" width="30px" height="30px" preserveAspectRatio="xMinYMin meet" x="43" y="-689"/>
<text text-anchor="start" x="79.5" y="-670.8" font-family="Times New Roman,serif" font-size="14.00">NAC n11</text>
</g>
<!-- p1 -->
<g id="node1" class="node"><title>p1</title>
<polygon fill="deepskyblue" stroke="deepskyblue" points="259.5,-902.5 259.5,-953.5 310.5,-953.5 310.5,-902.5 259.5,-902.5"/>
<text text-anchor="start" x="281" y="-943.5" font-family="Times New Roman,serif" font-size="10.00">«bound»</text>
<polygon fill="none" stroke="black" points="260,-922 260,-938 311,-938 311,-922 260,-922"/>
<text text-anchor="start" x="263.5" y="-928" font-family="Times New Roman,serif" font-size="10.00"> </text>
<text text-anchor="start" x="266.5" y="-928" font-family="Times New Roman,serif" font-size="10.00"> p1 :PawnPO </text>
<polygon fill="none" stroke="black" points="260,-902 260,-922 311,-922 311,-902 260,-902"/>
<text text-anchor="start" x="283" y="-910" font-family="Times New Roman,serif" font-size="10.00"> &#160;</text>
</g>
<!-- p3 -->
<g id="node2" class="node"><title>p3</title>
<polygon fill="deepskyblue" stroke="deepskyblue" points="149,-820.5 149,-857.5 215,-857.5 215,-820.5 149,-820.5"/>
<polygon fill="none" stroke="black" points="149,-840 149,-857 215,-857 215,-840 149,-840"/>
<text text-anchor="start" x="152.5" y="-846.5" font-family="Times New Roman,serif" font-size="10.00"> </text>
<text text-anchor="start" x="155.5" y="-846.5" font-family="Times New Roman,serif" font-size="10.00"> p3 :PlayerPO </text>
<polygon fill="none" stroke="black" points="149,-820 149,-840 215,-840 215,-820 149,-820"/>
<text text-anchor="start" x="179.5" y="-828" font-family="Times New Roman,serif" font-size="10.00"> &#160;</text>
</g>
<!-- p1&#45;&#45;p3 -->
<g id="edge15" class="edge"><title>p1&#45;&#45;p3</title>
<path fill="none" stroke="black" d="M251.559,-898.754C237.344,-886.746 221.026,-872.964 207.77,-861.767"/>
<text text-anchor="middle" x="217.421" y="-861.887" font-family="Times New Roman,serif" font-size="10.00">player</text>
</g>
<!-- f7 -->
<g id="node4" class="node"><title>f7</title>
<polygon fill="deepskyblue" stroke="deepskyblue" points="349,-724.5 349,-761.5 425,-761.5 425,-724.5 349,-724.5"/>
<polygon fill="none" stroke="black" points="349,-744 349,-761 425,-761 425,-744 349,-744"/>
<text text-anchor="start" x="361" y="-750.5" font-family="Times New Roman,serif" font-size="10.00"> </text>
<text text-anchor="start" x="364" y="-750.5" font-family="Times New Roman,serif" font-size="10.00"> f7 :FieldPO </text>
<polygon fill="none" stroke="black" points="349,-724 349,-744 425,-744 425,-724 349,-724"/>
<text text-anchor="start" x="354.5" y="-732" font-family="Times New Roman,serif" font-size="10.00"> kind == &quot;base&quot; </text>
</g>
<!-- p1&#45;&#45;f7 -->
<g id="edge19" class="edge"><title>p1&#45;&#45;f7</title>
<path fill="none" stroke="black" d="M310.043,-898.385C318.905,-887.447 328.52,-874.574 336,-862 354.94,-830.16 370.761,-789.997 379.545,-765.693"/>
<text text-anchor="middle" x="380.389" y="-773.157" font-family="Times New Roman,serif" font-size="10.00">pos</text>
</g>
<!-- p2 -->
<g id="node8" class="node"><title>p2</title>
<a xlink:href="../examples/org/sdmlib/examples/ludo/Pawn.java" xlink:title="&lt;TABLE&gt;">
<polygon fill="none" stroke="black" points="251,-840 251,-857 319,-857 319,-840 251,-840"/>
<text text-anchor="start" x="265" y="-846.5" font-family="Times New Roman,serif" font-size="10.00"> </text>
<text text-anchor="start" x="268" y="-846.5" font-family="Times New Roman,serif" font-size="10.00">p2 :Pawn</text>
</a>
<polygon fill="none" stroke="black" points="251,-820 251,-840 319,-840 319,-820 251,-820"/>
<text text-anchor="start" x="256" y="-828" font-family="Times New Roman,serif" font-size="10.00">color = &quot;blue&quot;</text>
</g>
<!-- p1&#45;&#45;p2 -->
<g id="edge3" class="edge"><title>p1&#45;&#45;p2</title>
<path fill="none" stroke="black" stroke-dasharray="1,5" d="M285,-898.03C285,-886.167 285,-872.675 285,-861.687"/>
<text text-anchor="middle" x="289.226" y="-868.25" font-family="Times New Roman,serif" font-size="10.00">match</text>
</g>
<!-- d5 -->
<g id="node3" class="node"><title>d5</title>
<polygon fill="deepskyblue" stroke="deepskyblue" points="139.5,-724.5 139.5,-761.5 198.5,-761.5 198.5,-724.5 139.5,-724.5"/>
<polygon fill="none" stroke="black" points="140,-744 140,-761 199,-761 199,-744 140,-744"/>
<text text-anchor="start" x="143.5" y="-750.5" font-family="Times New Roman,serif" font-size="10.00"> </text>
<text text-anchor="start" x="146.5" y="-750.5" font-family="Times New Roman,serif" font-size="10.00"> d5 :DicePO </text>
<polygon fill="none" stroke="black" points="140,-724 140,-744 199,-744 199,-724 140,-724"/>
<text text-anchor="start" x="146.5" y="-732" font-family="Times New Roman,serif" font-size="10.00"> value == 6 </text>
</g>
<!-- p3&#45;&#45;d5 -->
<g id="edge17" class="edge"><title>p3&#45;&#45;d5</title>
<path fill="none" stroke="black" d="M178.985,-816.198C176.885,-801.012 174.095,-780.844 171.999,-765.684"/>
<text text-anchor="middle" x="177.427" y="-771.582" font-family="Times New Roman,serif" font-size="10.00">dice</text>
</g>
<!-- p3&#45;&#45;f7 -->
<g id="edge21" class="edge"><title>p3&#45;&#45;f7</title>
<path fill="none" stroke="black" d="M223.083,-820.403C226.765,-818.891 230.444,-817.404 234,-816 277.157,-798.955 290.542,-800.841 332,-780 340.259,-775.848 348.798,-770.72 356.613,-765.648"/>
<text text-anchor="middle" x="351.279" y="-771.607" font-family="Times New Roman,serif" font-size="10.00">base</text>
</g>
<!-- f9 -->
<g id="node5" class="node"><title>f9</title>
<polygon fill="deepskyblue" stroke="deepskyblue" points="7.5,-724.5 7.5,-761.5 66.5,-761.5 66.5,-724.5 7.5,-724.5"/>
<polygon fill="none" stroke="black" points="8,-744 8,-761 67,-761 67,-744 8,-744"/>
<text text-anchor="start" x="11.5" y="-750.5" font-family="Times New Roman,serif" font-size="10.00"> </text>
<text text-anchor="start" x="14.5" y="-750.5" font-family="Times New Roman,serif" font-size="10.00"> f9 :FieldPO </text>
<polygon fill="none" stroke="black" points="8,-724 8,-744 67,-744 67,-724 8,-724"/>
<text text-anchor="start" x="35" y="-732" font-family="Times New Roman,serif" font-size="10.00"> &#160;</text>
</g>
<!-- p3&#45;&#45;f9 -->
<g id="edge23" class="edge"><title>p3&#45;&#45;f9</title>
<path fill="none" stroke="black" d="M146.418,-816.362C128.987,-805.621 107.762,-792.335 89,-780 82.0271,-775.416 74.6113,-770.38 67.6302,-765.566"/>
<text text-anchor="middle" x="77.4917" y="-764.725" font-family="Times New Roman,serif" font-size="10.00">start</text>
</g>
<!-- p4 -->
<g id="node9" class="node"><title>p4</title>
<a xlink:href="../examples/org/sdmlib/examples/ludo/Player.java" xlink:title="&lt;TABLE&gt;">
<polygon fill="none" stroke="black" points="233,-758 233,-775 315,-775 315,-758 233,-758"/>
<text text-anchor="start" x="252.5" y="-764.5" font-family="Times New Roman,serif" font-size="10.00"> </text>
<text text-anchor="start" x="255.5" y="-764.5" font-family="Times New Roman,serif" font-size="10.00">p4 :Player</text>
</a>
<polygon fill="none" stroke="black" points="233,-710 233,-758 315,-758 315,-710 233,-710"/>
<text text-anchor="start" x="238" y="-746" font-family="Times New Roman,serif" font-size="10.00">color = &quot;blue&quot;</text>
<text text-anchor="start" x="238" y="-732" font-family="Times New Roman,serif" font-size="10.00">enumColor = blue</text>
<text text-anchor="start" x="238" y="-718" font-family="Times New Roman,serif" font-size="10.00">name = &quot;Tom&quot;</text>
</g>
<!-- p3&#45;&#45;p4 -->
<g id="edge5" class="edge"><title>p3&#45;&#45;p4</title>
<path fill="none" stroke="black" stroke-dasharray="1,5" d="M203.338,-816.198C213.954,-805.351 227.059,-791.962 239.088,-779.671"/>
<text text-anchor="middle" x="235.769" y="-786.605" font-family="Times New Roman,serif" font-size="10.00">match</text>
</g>
<!-- d6 -->
<g id="node19" class="node"><title>d6</title>
<a xlink:href="../examples/org/sdmlib/examples/ludo/Dice.java" xlink:title="&lt;TABLE&gt;">
<polygon fill="none" stroke="black" points="161,-621 161,-638 209,-638 209,-621 161,-621"/>
<text text-anchor="start" x="167" y="-627.5" font-family="Times New Roman,serif" font-size="10.00"> </text>
<text text-anchor="start" x="170" y="-627.5" font-family="Times New Roman,serif" font-size="10.00">d6 :Dice</text>
</a>
<polygon fill="none" stroke="black" points="161,-601 161,-621 209,-621 209,-601 161,-601"/>
<text text-anchor="start" x="166" y="-609" font-family="Times New Roman,serif" font-size="10.00">value = 6</text>
</g>
<!-- d5&#45;&#45;d6 -->
<g id="edge7" class="edge"><title>d5&#45;&#45;d6</title>
<path fill="none" stroke="black" stroke-dasharray="1,5" d="M171.86,-720.368C174.755,-698.479 179.206,-664.82 182.11,-642.853"/>
<text text-anchor="middle" x="185.112" y="-649.892" font-family="Times New Roman,serif" font-size="10.00">match</text>
</g>
<!-- f8 -->
<g id="node20" class="node"><title>f8</title>
<a xlink:href="../examples/org/sdmlib/examples/ludo/Field.java" xlink:title="&lt;TABLE&gt;">
<polygon fill="none" stroke="black" points="363,-628 363,-645 431,-645 431,-628 363,-628"/>
<text text-anchor="start" x="379.5" y="-634.5" font-family="Times New Roman,serif" font-size="10.00"> </text>
<text text-anchor="start" x="382.5" y="-634.5" font-family="Times New Roman,serif" font-size="10.00">f8 :Field</text>
</a>
<polygon fill="none" stroke="black" points="363,-594 363,-628 431,-628 431,-594 363,-594"/>
<text text-anchor="start" x="368" y="-616" font-family="Times New Roman,serif" font-size="10.00">color = &quot;blue&quot;</text>
<text text-anchor="start" x="368" y="-602" font-family="Times New Roman,serif" font-size="10.00">kind = &quot;base&quot;</text>
</g>
<!-- f7&#45;&#45;f8 -->
<g id="edge9" class="edge"><title>f7&#45;&#45;f8</title>
<path fill="none" stroke="black" stroke-dasharray="1,5" d="M388.788,-720.368C390.417,-700.654 392.835,-671.394 394.626,-649.726"/>
<text text-anchor="middle" x="398.091" y="-656.606" font-family="Times New Roman,serif" font-size="10.00">match</text>
</g>
<!-- p12 -->
<g id="node7" class="node"><title>p12</title>
<polygon fill="deepskyblue" stroke="deepskyblue" points="59,-601.5 59,-638.5 127,-638.5 127,-601.5 59,-601.5"/>
<polygon fill="none" stroke="black" points="59,-621 59,-638 127,-638 127,-621 59,-621"/>
<text text-anchor="start" x="62.5" y="-627.5" font-family="Times New Roman,serif" font-size="10.00"> </text>
<text text-anchor="start" x="65.5" y="-627.5" font-family="Times New Roman,serif" font-size="10.00"> p12 :PawnPO </text>
<polygon fill="none" stroke="black" points="59,-601 59,-621 127,-621 127,-601 59,-601"/>
<text text-anchor="start" x="90.5" y="-609" font-family="Times New Roman,serif" font-size="10.00"> &#160;</text>
</g>
<!-- f9&#45;&#45;p12 -->
<g id="edge25" class="edge"><title>f9&#45;&#45;p12</title>
<path fill="none" stroke="black" d="M47.0117,-720.368C57.1418,-698.479 72.7196,-664.82 82.8862,-642.853"/>
<text text-anchor="middle" x="82.915" y="-650.353" font-family="Times New Roman,serif" font-size="10.00">pawns</text>
</g>
<!-- f10 -->
<g id="node14" class="node"><title>f10</title>
<a xlink:href="../examples/org/sdmlib/examples/ludo/Field.java" xlink:title="&lt;TABLE&gt;">
<polygon fill="none" stroke="black" points="122,-326 122,-343 190,-343 190,-326 122,-326"/>
<text text-anchor="start" x="136" y="-332.5" font-family="Times New Roman,serif" font-size="10.00"> </text>
<text text-anchor="start" x="139" y="-332.5" font-family="Times New Roman,serif" font-size="10.00">f10 :Field</text>
</a>
<polygon fill="none" stroke="black" points="122,-292 122,-326 190,-326 190,-292 122,-292"/>
<text text-anchor="start" x="127" y="-314" font-family="Times New Roman,serif" font-size="10.00">color = &quot;blue&quot;</text>
<text text-anchor="start" x="127" y="-300" font-family="Times New Roman,serif" font-size="10.00">kind = &quot;start&quot;</text>
</g>
<!-- f9&#45;&#45;f10 -->
<g id="edge11" class="edge"><title>f9&#45;&#45;f10</title>
<path fill="none" stroke="black" stroke-dasharray="1,5" d="M30.4466,-720.266C28.6277,-713.23 26.9043,-705.346 26,-698 20.0809,-649.919 16.939,-636.59 26,-589 44.3234,-492.763 59.0792,-469.445 107,-384 114.051,-371.428 123.262,-358.555 131.793,-347.617"/>
<text text-anchor="middle" x="129.599" y="-354.874" font-family="Times New Roman,serif" font-size="10.00">match</text>
</g>
<!-- p12&#45;&#45;p3 -->
<g id="edge27" class="edge"><title>p12&#45;&#45;p3</title>
<path fill="none" stroke="black" d="M92.8436,-642.679C93.4873,-674.616 98.1025,-735.345 122,-780 129.451,-793.923 141.435,-806.505 152.74,-816.363"/>
<text text-anchor="middle" x="143.163" y="-810.986" font-family="Times New Roman,serif" font-size="10.00">player</text>
</g>
<!-- p13 -->
<g id="node13" class="node"><title>p13</title>
<a xlink:href="../examples/org/sdmlib/examples/ludo/Pawn.java" xlink:title="&lt;TABLE&gt;">
<polygon fill="none" stroke="black" points="125,-415 125,-432 188,-432 188,-415 125,-415"/>
<text text-anchor="start" x="134.5" y="-421.5" font-family="Times New Roman,serif" font-size="10.00"> </text>
<text text-anchor="start" x="137.5" y="-421.5" font-family="Times New Roman,serif" font-size="10.00">p13 :Pawn</text>
</a>
<polygon fill="none" stroke="black" points="125,-395 125,-415 188,-415 188,-395 125,-395"/>
<text text-anchor="start" x="130" y="-403" font-family="Times New Roman,serif" font-size="10.00">color = &quot;red&quot;</text>
</g>
<!-- p12&#45;&#45;p13 -->
<g id="edge13" class="edge"><title>p12&#45;&#45;p13</title>
<path fill="none" stroke="black" stroke-dasharray="1,5" d="M99.7421,-597.168C111.868,-557.904 137.216,-475.824 149.306,-436.675"/>
<text text-anchor="middle" x="150.67" y="-444.081" font-family="Times New Roman,serif" font-size="10.00">match</text>
</g>
<!-- p2&#45;&#45;p4 -->
<g id="edge29" class="edge"><title>p2&#45;&#45;p4</title>
<path fill="none" stroke="black" d="M282.449,-816.198C281.179,-805.351 279.613,-791.962 278.174,-779.671"/>
<text text-anchor="middle" x="283.425" y="-785.682" font-family="Times New Roman,serif" font-size="10.00">player</text>
<text text-anchor="middle" x="277.198" y="-805.188" font-family="Times New Roman,serif" font-size="10.00">pawns</text>
</g>
<!-- p2&#45;&#45;f8 -->
<g id="edge31" class="edge"><title>p2&#45;&#45;f8</title>
<path fill="none" stroke="black" d="M327.009,-835.297C364.131,-830.423 416.255,-816.956 442,-780 469.795,-740.1 441.056,-683.333 418.461,-649.526"/>
<text text-anchor="middle" x="426.904" y="-652.384" font-family="Times New Roman,serif" font-size="10.00">pos</text>
<text text-anchor="middle" x="335.343" y="-827.271" font-family="Times New Roman,serif" font-size="10.00">pawns</text>
</g>
<!-- l14 -->
<g id="node10" class="node"><title>l14</title>
<a xlink:href="../examples/org/sdmlib/examples/ludo/Ludo.java" xlink:title="&lt;TABLE&gt;">
<polygon fill="none" stroke="black" points="282,-611 282,-628 329,-628 329,-611 282,-611"/>
<text text-anchor="start" x="285.5" y="-617.5" font-family="Times New Roman,serif" font-size="10.00"> </text>
<text text-anchor="start" x="288.5" y="-617.5" font-family="Times New Roman,serif" font-size="10.00">l14 :Ludo</text>
</a>
</g>
<!-- p4&#45;&#45;l14 -->
<g id="edge33" class="edge"><title>p4&#45;&#45;l14</title>
<path fill="none" stroke="black" d="M283.133,-706.35C288.884,-683.904 296.05,-655.933 300.577,-638.264"/>
<text text-anchor="middle" x="302.422" y="-645.592" font-family="Times New Roman,serif" font-size="10.00">game</text>
<text text-anchor="middle" x="281.289" y="-694.022" font-family="Times New Roman,serif" font-size="10.00">players</text>
</g>
<!-- p4&#45;&#45;f10 -->
<g id="edge37" class="edge"><title>p4&#45;&#45;f10</title>
<path fill="none" stroke="black" d="M265.817,-706.482C265.19,-703.615 264.577,-700.76 264,-698 234.918,-558.928 260.953,-514.166 204,-384 198.377,-371.148 189.823,-358.419 181.485,-347.677"/>
<text text-anchor="middle" x="190.344" y="-349.816" font-family="Times New Roman,serif" font-size="10.00">start</text>
<text text-anchor="middle" x="259.756" y="-696.028" font-family="Times New Roman,serif" font-size="10.00">starter</text>
</g>
<!-- p4&#45;&#45;d6 -->
<g id="edge35" class="edge"><title>p4&#45;&#45;d6</title>
<path fill="none" stroke="black" d="M237.855,-706.362C235.461,-703.597 233.15,-700.793 231,-698 217.509,-680.48 204.831,-658.705 196.216,-642.786"/>
<text text-anchor="middle" x="204.273" y="-646.209" font-family="Times New Roman,serif" font-size="10.00">dice</text>
<text text-anchor="middle" x="228.738" y="-699.753" font-family="Times New Roman,serif" font-size="10.00">player</text>
</g>
<!-- p4&#45;&#45;f8 -->
<g id="edge39" class="edge"><title>p4&#45;&#45;f8</title>
<path fill="none" stroke="black" d="M323.04,-711.543C326.071,-709.666 329.076,-707.807 332,-706 337.771,-702.433 340.102,-702.695 345,-698 359.673,-683.935 372.499,-665.062 381.742,-649.522"/>
<text text-anchor="middle" x="380.663" y="-656.963" font-family="Times New Roman,serif" font-size="10.00">base</text>
<text text-anchor="middle" x="328.52" y="-700.679" font-family="Times New Roman,serif" font-size="10.00">baseowner</text>
</g>
<!-- p15 -->
<g id="node11" class="node"><title>p15</title>
<a xlink:href="../examples/org/sdmlib/examples/ludo/Player.java" xlink:title="&lt;TABLE&gt;">
<polygon fill="none" stroke="black" points="281,-532 281,-549 359,-549 359,-532 281,-532"/>
<text text-anchor="start" x="296.5" y="-538.5" font-family="Times New Roman,serif" font-size="10.00"> </text>
<text text-anchor="start" x="299.5" y="-538.5" font-family="Times New Roman,serif" font-size="10.00">p15 :Player</text>
</a>
<polygon fill="none" stroke="black" points="281,-484 281,-532 359,-532 359,-484 281,-484"/>
<text text-anchor="start" x="286" y="-520" font-family="Times New Roman,serif" font-size="10.00">color = &quot;red&quot;</text>
<text text-anchor="start" x="286" y="-506" font-family="Times New Roman,serif" font-size="10.00">enumColor = red</text>
<text text-anchor="start" x="286" y="-492" font-family="Times New Roman,serif" font-size="10.00">name = &quot;Sabine&quot;</text>
</g>
<!-- l14&#45;&#45;p15 -->
<g id="edge41" class="edge"><title>l14&#45;&#45;p15</title>
<path fill="none" stroke="black" d="M307.545,-601.867C309.5,-588.697 312.27,-570.047 314.701,-553.678"/>
<text text-anchor="middle" x="317.55" y="-560.763" font-family="Times New Roman,serif" font-size="10.00">players</text>
<text text-anchor="middle" x="304.696" y="-589.781" font-family="Times New Roman,serif" font-size="10.00">game</text>
</g>
<!-- f16 -->
<g id="node12" class="node"><title>f16</title>
<a xlink:href="../examples/org/sdmlib/examples/ludo/Field.java" xlink:title="&lt;TABLE&gt;">
<polygon fill="none" stroke="black" points="287,-422 287,-439 353,-439 353,-422 287,-422"/>
<text text-anchor="start" x="300" y="-428.5" font-family="Times New Roman,serif" font-size="10.00"> </text>
<text text-anchor="start" x="303" y="-428.5" font-family="Times New Roman,serif" font-size="10.00">f16 :Field</text>
</a>
<polygon fill="none" stroke="black" points="287,-388 287,-422 353,-422 353,-388 287,-388"/>
<text text-anchor="start" x="292" y="-410" font-family="Times New Roman,serif" font-size="10.00">color = &quot;red&quot;</text>
<text text-anchor="start" x="292" y="-396" font-family="Times New Roman,serif" font-size="10.00">kind = &quot;start&quot;</text>
</g>
<!-- p15&#45;&#45;f16 -->
<g id="edge43" class="edge"><title>p15&#45;&#45;f16</title>
<path fill="none" stroke="black" d="M320,-480.391C320,-468.351 320,-455.07 320,-443.641"/>
<text text-anchor="middle" x="324.226" y="-450.204" font-family="Times New Roman,serif" font-size="10.00">start</text>
<text text-anchor="middle" x="315.774" y="-468.828" font-family="Times New Roman,serif" font-size="10.00">starter</text>
</g>
<!-- p15&#45;&#45;p13 -->
<g id="edge45" class="edge"><title>p15&#45;&#45;p13</title>
<path fill="none" stroke="black" d="M272.564,-486.787C246.549,-470.765 214.853,-451.245 191.083,-436.606"/>
<text text-anchor="middle" x="201.016" y="-435.26" font-family="Times New Roman,serif" font-size="10.00">pawns</text>
<text text-anchor="middle" x="262.631" y="-483.133" font-family="Times New Roman,serif" font-size="10.00">player</text>
</g>
<!-- p13&#45;&#45;f10 -->
<g id="edge47" class="edge"><title>p13&#45;&#45;f10</title>
<path fill="none" stroke="black" d="M156,-391.198C156,-378.29 156,-361.782 156,-347.81"/>
<text text-anchor="middle" x="160.226" y="-354.373" font-family="Times New Roman,serif" font-size="10.00">pos</text>
<text text-anchor="middle" x="151.774" y="-379.635" font-family="Times New Roman,serif" font-size="10.00">pawns</text>
</g>
<!-- f17 -->
<g id="node15" class="node"><title>f17</title>
<a xlink:href="../examples/org/sdmlib/examples/ludo/Field.java" xlink:title="&lt;TABLE&gt;">
<polygon fill="none" stroke="black" points="133,-225 133,-242 180,-242 180,-225 133,-225"/>
<text text-anchor="start" x="136.5" y="-231.5" font-family="Times New Roman,serif" font-size="10.00"> </text>
<text text-anchor="start" x="139.5" y="-231.5" font-family="Times New Roman,serif" font-size="10.00">f17 :Field</text>
</a>
</g>
<!-- f10&#45;&#45;f17 -->
<g id="edge49" class="edge"><title>f10&#45;&#45;f17</title>
<path fill="none" stroke="black" d="M156,-288.32C156,-276.312 156,-262.75 156,-252.309"/>
<text text-anchor="middle" x="160.226" y="-258.872" font-family="Times New Roman,serif" font-size="10.00">next</text>
<text text-anchor="middle" x="151.774" y="-276.757" font-family="Times New Roman,serif" font-size="10.00">prev</text>
</g>
<!-- f18 -->
<g id="node16" class="node"><title>f18</title>
<a xlink:href="../examples/org/sdmlib/examples/ludo/Field.java" xlink:title="&lt;TABLE&gt;">
<polygon fill="none" stroke="black" points="133,-153 133,-170 180,-170 180,-153 133,-153"/>
<text text-anchor="start" x="136.5" y="-159.5" font-family="Times New Roman,serif" font-size="10.00"> </text>
<text text-anchor="start" x="139.5" y="-159.5" font-family="Times New Roman,serif" font-size="10.00">f18 :Field</text>
</a>
</g>
<!-- f17&#45;&#45;f18 -->
<g id="edge51" class="edge"><title>f17&#45;&#45;f18</title>
<path fill="none" stroke="black" d="M156,-215.697C156,-204.846 156,-190.917 156,-180.104"/>
<text text-anchor="middle" x="160.226" y="-186.667" font-family="Times New Roman,serif" font-size="10.00">next</text>
<text text-anchor="middle" x="151.774" y="-204.134" font-family="Times New Roman,serif" font-size="10.00">prev</text>
</g>
<!-- f19 -->
<g id="node17" class="node"><title>f19</title>
<a xlink:href="../examples/org/sdmlib/examples/ludo/Field.java" xlink:title="&lt;TABLE&gt;">
<polygon fill="none" stroke="black" points="133,-81 133,-98 180,-98 180,-81 133,-81"/>
<text text-anchor="start" x="136.5" y="-87.5" font-family="Times New Roman,serif" font-size="10.00"> </text>
<text text-anchor="start" x="139.5" y="-87.5" font-family="Times New Roman,serif" font-size="10.00">f19 :Field</text>
</a>
</g>
<!-- f18&#45;&#45;f19 -->
<g id="edge53" class="edge"><title>f18&#45;&#45;f19</title>
<path fill="none" stroke="black" d="M156,-143.697C156,-132.846 156,-118.917 156,-108.104"/>
<text text-anchor="middle" x="160.226" y="-114.667" font-family="Times New Roman,serif" font-size="10.00">next</text>
<text text-anchor="middle" x="151.774" y="-132.134" font-family="Times New Roman,serif" font-size="10.00">prev</text>
</g>
<!-- f20 -->
<g id="node18" class="node"><title>f20</title>
<a xlink:href="../examples/org/sdmlib/examples/ludo/Field.java" xlink:title="&lt;TABLE&gt;">
<polygon fill="none" stroke="black" points="133,-9 133,-26 180,-26 180,-9 133,-9"/>
<text text-anchor="start" x="136.5" y="-15.5" font-family="Times New Roman,serif" font-size="10.00"> </text>
<text text-anchor="start" x="139.5" y="-15.5" font-family="Times New Roman,serif" font-size="10.00">f20 :Field</text>
</a>
</g>
<!-- f19&#45;&#45;f20 -->
<g id="edge55" class="edge"><title>f19&#45;&#45;f20</title>
<path fill="none" stroke="black" d="M156,-71.6966C156,-60.8463 156,-46.9167 156,-36.1043"/>
<text text-anchor="middle" x="160.226" y="-42.6674" font-family="Times New Roman,serif" font-size="10.00">next</text>
<text text-anchor="middle" x="151.774" y="-60.1335" font-family="Times New Roman,serif" font-size="10.00">prev</text>
</g>
</g>
</svg>
