<?xml version="1.0" encoding="UTF-8" standalone="no"?>
<!DOCTYPE svg PUBLIC "-//W3C//DTD SVG 1.1//EN"
 "http://www.w3.org/Graphics/SVG/1.1/DTD/svg11.dtd">
<!-- Generated by graphviz version 2.28.0 (20110507.0327)
 -->
<!-- Title: ObjectDiagram Pages: 1 -->
<svg width="919pt" height="1310pt"
 viewBox="0.00 0.00 919.44 1310.00" xmlns="http://www.w3.org/2000/svg" xmlns:xlink="http://www.w3.org/1999/xlink">
<g id="graph1" class="graph" transform="scale(1 1) rotate(0) translate(4 1306)">
<title>ObjectDiagram</title>
<polygon fill="white" stroke="white" points="-4,5 -4,-1306 916.441,-1306 916.441,5 -4,5"/>
<!-- p1 -->
<g id="node1" class="node"><title>p1</title>
<polygon fill="none" stroke="black" points="9,-1275 9,-1292 68,-1292 68,-1275 9,-1275"/>
<text text-anchor="start" x="12.5" y="-1281.5" font-family="Times New Roman,serif" font-size="10.00"> </text>
<text text-anchor="start" x="15.5" y="-1281.5" font-family="Times New Roman,serif" font-size="10.00">p1 :PawnPO</text>
</g>
<!-- p2 -->
<g id="node2" class="node"><title>p2</title>
<polygon fill="none" stroke="black" points="70,-726 70,-743 138,-743 138,-726 70,-726"/>
<text text-anchor="start" x="84" y="-732.5" font-family="Times New Roman,serif" font-size="10.00"> </text>
<text text-anchor="start" x="87" y="-732.5" font-family="Times New Roman,serif" font-size="10.00">p2 :Pawn</text>
<polygon fill="none" stroke="black" points="70,-678 70,-726 138,-726 138,-678 70,-678"/>
<text text-anchor="start" x="75.5" y="-714" font-family="Times New Roman,serif" font-size="10.00">color = &quot;blue&quot;</text>
<text text-anchor="start" x="94.5" y="-700" font-family="Times New Roman,serif" font-size="10.00">x = 0</text>
<text text-anchor="start" x="94" y="-686" font-family="Times New Roman,serif" font-size="10.00">y = 0</text>
</g>
<!-- p1&#45;&#45;p2 -->
<g id="edge70" class="edge"><title>p1&#45;&#45;p2</title>
<path fill="none" stroke="black" d="M38,-1265.68C38,-1237.46 38,-1179.82 38,-1131 38,-1131 38,-1131 38,-888 38,-836.766 62.8235,-782.177 82.023,-747.619"/>
<text text-anchor="middle" x="81.4439" y="-755.102" font-family="Times New Roman,serif" font-size="10.00">currentMatch</text>
</g>
<!-- p13 -->
<g id="node13" class="node"><title>p13</title>
<polygon fill="none" stroke="black" points="75,-1208 75,-1225 182,-1225 182,-1208 75,-1208"/>
<text text-anchor="start" x="94.5" y="-1214.5" font-family="Times New Roman,serif" font-size="10.00"> </text>
<text text-anchor="start" x="97.5" y="-1214.5" font-family="Times New Roman,serif" font-size="10.00">p13 :PatternLink</text>
<polygon fill="none" stroke="black" points="75,-1188 75,-1208 182,-1208 182,-1188 75,-1188"/>
<text text-anchor="start" x="80.5" y="-1196" font-family="Times New Roman,serif" font-size="10.00">tgtRoleName = &quot;player&quot;</text>
</g>
<!-- p1&#45;&#45;p13 -->
<g id="edge68" class="edge"><title>p1&#45;&#45;p13</title>
<path fill="none" stroke="black" d="M58.4224,-1265.98C71.3881,-1255.18 88.2806,-1241.1 102.174,-1229.52"/>
<text text-anchor="middle" x="97.9169" y="-1236.07" font-family="Times New Roman,serif" font-size="10.00">outgoing</text>
<text text-anchor="middle" x="62.6793" y="-1254.43" font-family="Times New Roman,serif" font-size="10.00">src</text>
</g>
<!-- p26 -->
<g id="node26" class="node"><title>p26</title>
<polygon fill="none" stroke="black" points="113,-808 113,-825 210,-825 210,-808 113,-808"/>
<text text-anchor="start" x="127.5" y="-814.5" font-family="Times New Roman,serif" font-size="10.00"> </text>
<text text-anchor="start" x="130.5" y="-814.5" font-family="Times New Roman,serif" font-size="10.00">p26 :PatternLink</text>
<polygon fill="none" stroke="black" points="113,-788 113,-808 210,-808 210,-788 113,-788"/>
<text text-anchor="start" x="118.5" y="-796" font-family="Times New Roman,serif" font-size="10.00">tgtRoleName = &quot;pos&quot;</text>
</g>
<!-- p1&#45;&#45;p26 -->
<g id="edge72" class="edge"><title>p1&#45;&#45;p26</title>
<path fill="none" stroke="black" d="M30.6732,-1265.57C19.6309,-1237.68 0,-1181.05 0,-1131 0,-1131 0,-1131 0,-1052 0,-956.079 87.7545,-868.797 133.689,-829.68"/>
<text text-anchor="middle" x="129.685" y="-836.344" font-family="Times New Roman,serif" font-size="10.00">outgoing</text>
<text text-anchor="middle" x="23.4715" y="-1256.13" font-family="Times New Roman,serif" font-size="10.00">src</text>
</g>
<!-- p3 -->
<g id="node3" class="node"><title>p3</title>
<polygon fill="none" stroke="black" points="345,-616 345,-633 414,-633 414,-616 345,-616"/>
<text text-anchor="start" x="358" y="-622.5" font-family="Times New Roman,serif" font-size="10.00"> </text>
<text text-anchor="start" x="361" y="-622.5" font-family="Times New Roman,serif" font-size="10.00">p3 :Player</text>
<polygon fill="none" stroke="black" points="345,-554 345,-616 414,-616 414,-554 345,-554"/>
<text text-anchor="start" x="351" y="-604" font-family="Times New Roman,serif" font-size="10.00">color = &quot;blue&quot;</text>
<text text-anchor="start" x="350.5" y="-590" font-family="Times New Roman,serif" font-size="10.00">name = &quot;Tom&quot;</text>
<text text-anchor="start" x="370" y="-576" font-family="Times New Roman,serif" font-size="10.00">x = 0</text>
<text text-anchor="start" x="369.5" y="-562" font-family="Times New Roman,serif" font-size="10.00">y = 0</text>
</g>
<!-- p2&#45;&#45;p3 -->
<g id="edge82" class="edge"><title>p2&#45;&#45;p3</title>
<path fill="none" stroke="black" d="M146.066,-692.409C197.674,-670.827 284.675,-634.445 336.486,-612.778"/>
<text text-anchor="middle" x="329.756" y="-617.674" font-family="Times New Roman,serif" font-size="10.00">player</text>
<text text-anchor="middle" x="152.797" y="-682.513" font-family="Times New Roman,serif" font-size="10.00">pawns</text>
</g>
<!-- f12 -->
<g id="node12" class="node"><title>f12</title>
<polygon fill="none" stroke="black" points="205,-492 205,-509 273,-509 273,-492 205,-492"/>
<text text-anchor="start" x="219" y="-498.5" font-family="Times New Roman,serif" font-size="10.00"> </text>
<text text-anchor="start" x="222" y="-498.5" font-family="Times New Roman,serif" font-size="10.00">f12 :Field</text>
<polygon fill="none" stroke="black" points="205,-430 205,-492 273,-492 273,-430 205,-430"/>
<text text-anchor="start" x="210.5" y="-480" font-family="Times New Roman,serif" font-size="10.00">color = &quot;blue&quot;</text>
<text text-anchor="start" x="211.5" y="-466" font-family="Times New Roman,serif" font-size="10.00">kind = &quot;base&quot;</text>
<text text-anchor="start" x="229.5" y="-452" font-family="Times New Roman,serif" font-size="10.00">x = 0</text>
<text text-anchor="start" x="229" y="-438" font-family="Times New Roman,serif" font-size="10.00">y = 0</text>
</g>
<!-- p2&#45;&#45;f12 -->
<g id="edge80" class="edge"><title>p2&#45;&#45;f12</title>
<path fill="none" stroke="black" d="M100.139,-674.22C98.204,-639.874 100.066,-587.782 123,-550 140.005,-521.985 171.162,-501.601 196.906,-488.563"/>
<text text-anchor="middle" x="190.848" y="-494.019" font-family="Times New Roman,serif" font-size="10.00">pos</text>
<text text-anchor="middle" x="95.5398" y="-662.84" font-family="Times New Roman,serif" font-size="10.00">pawns</text>
</g>
<!-- d4 -->
<g id="node4" class="node"><title>d4</title>
<polygon fill="none" stroke="black" points="484,-471 484,-488 532,-488 532,-471 484,-471"/>
<text text-anchor="start" x="490" y="-477.5" font-family="Times New Roman,serif" font-size="10.00"> </text>
<text text-anchor="start" x="493" y="-477.5" font-family="Times New Roman,serif" font-size="10.00">d4 :Dice</text>
<polygon fill="none" stroke="black" points="484,-451 484,-471 532,-471 532,-451 484,-451"/>
<text text-anchor="start" x="489.5" y="-459" font-family="Times New Roman,serif" font-size="10.00">value = 6</text>
</g>
<!-- p3&#45;&#45;d4 -->
<g id="edge84" class="edge"><title>p3&#45;&#45;d4</title>
<path fill="none" stroke="black" d="M421.597,-552.715C442.733,-532.726 467.429,-509.369 484.993,-492.758"/>
<text text-anchor="middle" x="481.312" y="-499.556" font-family="Times New Roman,serif" font-size="10.00">dice</text>
<text text-anchor="middle" x="425.278" y="-540.917" font-family="Times New Roman,serif" font-size="10.00">player</text>
</g>
<!-- f5 -->
<g id="node5" class="node"><title>f5</title>
<polygon fill="none" stroke="black" points="735,-492 735,-509 803,-509 803,-492 735,-492"/>
<text text-anchor="start" x="751.5" y="-498.5" font-family="Times New Roman,serif" font-size="10.00"> </text>
<text text-anchor="start" x="754.5" y="-498.5" font-family="Times New Roman,serif" font-size="10.00">f5 :Field</text>
<polygon fill="none" stroke="black" points="735,-430 735,-492 803,-492 803,-430 735,-430"/>
<text text-anchor="start" x="740.5" y="-480" font-family="Times New Roman,serif" font-size="10.00">color = &quot;blue&quot;</text>
<text text-anchor="start" x="741.5" y="-466" font-family="Times New Roman,serif" font-size="10.00">kind = &quot;start&quot;</text>
<text text-anchor="start" x="759.5" y="-452" font-family="Times New Roman,serif" font-size="10.00">x = 0</text>
<text text-anchor="start" x="759" y="-438" font-family="Times New Roman,serif" font-size="10.00">y = 0</text>
</g>
<!-- p3&#45;&#45;f5 -->
<g id="edge88" class="edge"><title>p3&#45;&#45;f5</title>
<path fill="none" stroke="black" d="M421.479,-579.712C496.598,-556.213 651.999,-507.6 726.869,-484.18"/>
<text text-anchor="middle" x="719.481" y="-488.419" font-family="Times New Roman,serif" font-size="10.00">start</text>
<text text-anchor="middle" x="428.867" y="-570.472" font-family="Times New Roman,serif" font-size="10.00">starter</text>
</g>
<!-- p3&#45;&#45;f12 -->
<g id="edge86" class="edge"><title>p3&#45;&#45;f12</title>
<path fill="none" stroke="black" d="M336.615,-556.065C319.071,-540.776 298.77,-523.085 281.24,-507.81"/>
<text text-anchor="middle" x="290.85" y="-508.078" font-family="Times New Roman,serif" font-size="10.00">base</text>
<text text-anchor="middle" x="327.006" y="-550.797" font-family="Times New Roman,serif" font-size="10.00">baseowner</text>
</g>
<!-- f6 -->
<g id="node6" class="node"><title>f6</title>
<polygon fill="none" stroke="black" points="745,-361 745,-378 787,-378 787,-361 745,-361"/>
<text text-anchor="start" x="748.5" y="-367.5" font-family="Times New Roman,serif" font-size="10.00"> </text>
<text text-anchor="start" x="751.5" y="-367.5" font-family="Times New Roman,serif" font-size="10.00">f6 :Field</text>
<polygon fill="none" stroke="black" points="745,-327 745,-361 787,-361 787,-327 745,-327"/>
<text text-anchor="start" x="756.5" y="-349" font-family="Times New Roman,serif" font-size="10.00">x = 0</text>
<text text-anchor="start" x="756" y="-335" font-family="Times New Roman,serif" font-size="10.00">y = 0</text>
</g>
<!-- f5&#45;&#45;f6 -->
<g id="edge20" class="edge"><title>f5&#45;&#45;f6</title>
<path fill="none" stroke="black" d="M767.883,-426.178C767.503,-411.618 767.088,-395.713 766.745,-382.547"/>
<text text-anchor="middle" x="771.206" y="-388.997" font-family="Times New Roman,serif" font-size="10.00">next</text>
<text text-anchor="middle" x="763.422" y="-414.728" font-family="Times New Roman,serif" font-size="10.00">prev</text>
</g>
<!-- p10 -->
<g id="node10" class="node"><title>p10</title>
<polygon fill="none" stroke="black" points="826,-368 826,-385 889,-385 889,-368 826,-368"/>
<text text-anchor="start" x="835.5" y="-374.5" font-family="Times New Roman,serif" font-size="10.00"> </text>
<text text-anchor="start" x="838.5" y="-374.5" font-family="Times New Roman,serif" font-size="10.00">p10 :Pawn</text>
<polygon fill="none" stroke="black" points="826,-320 826,-368 889,-368 889,-320 826,-320"/>
<text text-anchor="start" x="831.5" y="-356" font-family="Times New Roman,serif" font-size="10.00">color = &quot;red&quot;</text>
<text text-anchor="start" x="848" y="-342" font-family="Times New Roman,serif" font-size="10.00">x = 0</text>
<text text-anchor="start" x="847.5" y="-328" font-family="Times New Roman,serif" font-size="10.00">y = 0</text>
</g>
<!-- f5&#45;&#45;p10 -->
<g id="edge22" class="edge"><title>f5&#45;&#45;p10</title>
<path fill="none" stroke="black" d="M801.768,-426.178C810.955,-414.173 820.842,-401.252 829.676,-389.707"/>
<text text-anchor="middle" x="827.525" y="-396.973" font-family="Times New Roman,serif" font-size="10.00">pawns</text>
<text text-anchor="middle" x="803.919" y="-413.912" font-family="Times New Roman,serif" font-size="10.00">pos</text>
</g>
<!-- f7 -->
<g id="node7" class="node"><title>f7</title>
<polygon fill="none" stroke="black" points="744,-244 744,-261 786,-261 786,-244 744,-244"/>
<text text-anchor="start" x="747.5" y="-250.5" font-family="Times New Roman,serif" font-size="10.00"> </text>
<text text-anchor="start" x="750.5" y="-250.5" font-family="Times New Roman,serif" font-size="10.00">f7 :Field</text>
<polygon fill="none" stroke="black" points="744,-210 744,-244 786,-244 786,-210 744,-210"/>
<text text-anchor="start" x="755.5" y="-232" font-family="Times New Roman,serif" font-size="10.00">x = 0</text>
<text text-anchor="start" x="755" y="-218" font-family="Times New Roman,serif" font-size="10.00">y = 0</text>
</g>
<!-- f6&#45;&#45;f7 -->
<g id="edge24" class="edge"><title>f6&#45;&#45;f7</title>
<path fill="none" stroke="black" d="M765.75,-323.277C765.598,-305.714 765.403,-283.324 765.25,-265.755"/>
<text text-anchor="middle" x="769.555" y="-272.281" font-family="Times New Roman,serif" font-size="10.00">next</text>
<text text-anchor="middle" x="761.445" y="-311.751" font-family="Times New Roman,serif" font-size="10.00">prev</text>
</g>
<!-- f8 -->
<g id="node8" class="node"><title>f8</title>
<polygon fill="none" stroke="black" points="744,-134 744,-151 786,-151 786,-134 744,-134"/>
<text text-anchor="start" x="747.5" y="-140.5" font-family="Times New Roman,serif" font-size="10.00"> </text>
<text text-anchor="start" x="750.5" y="-140.5" font-family="Times New Roman,serif" font-size="10.00">f8 :Field</text>
<polygon fill="none" stroke="black" points="744,-100 744,-134 786,-134 786,-100 744,-100"/>
<text text-anchor="start" x="755.5" y="-122" font-family="Times New Roman,serif" font-size="10.00">x = 0</text>
<text text-anchor="start" x="755" y="-108" font-family="Times New Roman,serif" font-size="10.00">y = 0</text>
</g>
<!-- f7&#45;&#45;f8 -->
<g id="edge26" class="edge"><title>f7&#45;&#45;f8</title>
<path fill="none" stroke="black" d="M765,-206.342C765,-190.719 765,-171.436 765,-155.792"/>
<text text-anchor="middle" x="769.226" y="-162.355" font-family="Times New Roman,serif" font-size="10.00">next</text>
<text text-anchor="middle" x="760.774" y="-194.778" font-family="Times New Roman,serif" font-size="10.00">prev</text>
</g>
<!-- f9 -->
<g id="node9" class="node"><title>f9</title>
<polygon fill="none" stroke="black" points="744,-38 744,-55 786,-55 786,-38 744,-38"/>
<text text-anchor="start" x="747.5" y="-44.5" font-family="Times New Roman,serif" font-size="10.00"> </text>
<text text-anchor="start" x="750.5" y="-44.5" font-family="Times New Roman,serif" font-size="10.00">f9 :Field</text>
<polygon fill="none" stroke="black" points="744,-4 744,-38 786,-38 786,-4 744,-4"/>
<text text-anchor="start" x="755.5" y="-26" font-family="Times New Roman,serif" font-size="10.00">x = 0</text>
<text text-anchor="start" x="755" y="-12" font-family="Times New Roman,serif" font-size="10.00">y = 0</text>
</g>
<!-- f8&#45;&#45;f9 -->
<g id="edge28" class="edge"><title>f8&#45;&#45;f9</title>
<path fill="none" stroke="black" d="M765,-96.2861C765,-84.624 765,-71.1822 765,-59.538"/>
<text text-anchor="middle" x="769.226" y="-66.1011" font-family="Times New Roman,serif" font-size="10.00">next</text>
<text text-anchor="middle" x="760.774" y="-84.7231" font-family="Times New Roman,serif" font-size="10.00">prev</text>
</g>
<!-- p11 -->
<g id="node11" class="node"><title>p11</title>
<polygon fill="none" stroke="black" points="820,-258 820,-275 898,-275 898,-258 820,-258"/>
<text text-anchor="start" x="835.5" y="-264.5" font-family="Times New Roman,serif" font-size="10.00"> </text>
<text text-anchor="start" x="838.5" y="-264.5" font-family="Times New Roman,serif" font-size="10.00">p11 :Player</text>
<polygon fill="none" stroke="black" points="820,-196 820,-258 898,-258 898,-196 820,-196"/>
<text text-anchor="start" x="833" y="-246" font-family="Times New Roman,serif" font-size="10.00">color = &quot;red&quot;</text>
<text text-anchor="start" x="825.5" y="-232" font-family="Times New Roman,serif" font-size="10.00">name = &quot;Sabine&quot;</text>
<text text-anchor="start" x="849.5" y="-218" font-family="Times New Roman,serif" font-size="10.00">x = 0</text>
<text text-anchor="start" x="849" y="-204" font-family="Times New Roman,serif" font-size="10.00">y = 0</text>
</g>
<!-- p10&#45;&#45;p11 -->
<g id="edge40" class="edge"><title>p10&#45;&#45;p11</title>
<path fill="none" stroke="black" d="M857.622,-316.244C857.824,-304.639 858.05,-291.649 858.259,-279.597"/>
<text text-anchor="middle" x="862.327" y="-286.232" font-family="Times New Roman,serif" font-size="10.00">player</text>
<text text-anchor="middle" x="853.554" y="-304.608" font-family="Times New Roman,serif" font-size="10.00">pawns</text>
</g>
<!-- p13&#45;&#45;p2 -->
<g id="edge44" class="edge"><title>p13&#45;&#45;p2</title>
<path fill="none" stroke="black" d="M115.412,-1184.14C100.023,-1155.31 76,-1102.53 76,-1054 76,-1054 76,-1054 76,-888 76,-838.96 86.7334,-783.179 94.9092,-747.802"/>
<text text-anchor="middle" x="97.0456" y="-755.071" font-family="Times New Roman,serif" font-size="10.00">hostGraphSrcObject</text>
</g>
<!-- p14 -->
<g id="node14" class="node"><title>p14</title>
<polygon fill="none" stroke="black" points="358,-1121 358,-1138 424,-1138 424,-1121 358,-1121"/>
<text text-anchor="start" x="361.5" y="-1127.5" font-family="Times New Roman,serif" font-size="10.00"> </text>
<text text-anchor="start" x="364.5" y="-1127.5" font-family="Times New Roman,serif" font-size="10.00">p14 :PlayerPO</text>
</g>
<!-- p13&#45;&#45;p14 -->
<g id="edge42" class="edge"><title>p13&#45;&#45;p14</title>
<path fill="none" stroke="black" d="M189.33,-1188.51C238.66,-1174.44 306.623,-1155.06 349.687,-1142.78"/>
<text text-anchor="middle" x="342.13" y="-1146.83" font-family="Times New Roman,serif" font-size="10.00">tgt</text>
<text text-anchor="middle" x="196.887" y="-1179.46" font-family="Times New Roman,serif" font-size="10.00">incomming</text>
</g>
<!-- p14&#45;&#45;p3 -->
<g id="edge54" class="edge"><title>p14&#45;&#45;p3</title>
<path fill="none" stroke="black" d="M385.314,-1111.8C376.365,-1083.14 360,-1023.68 360,-972 360,-972 360,-972 360,-806 360,-747.52 367.329,-680.288 372.884,-637.735"/>
<text text-anchor="middle" x="375.935" y="-644.758" font-family="Times New Roman,serif" font-size="10.00">currentMatch</text>
</g>
<!-- l15 -->
<g id="node15" class="node"><title>l15</title>
<polygon fill="none" stroke="black" points="628,-1054 628,-1071 735,-1071 735,-1054 628,-1054"/>
<text text-anchor="start" x="642" y="-1060.5" font-family="Times New Roman,serif" font-size="10.00"> </text>
<text text-anchor="start" x="645" y="-1060.5" font-family="Times New Roman,serif" font-size="10.00">l15 :LinkConstraint</text>
<polygon fill="none" stroke="black" points="628,-1034 628,-1054 735,-1054 735,-1034 628,-1034"/>
<text text-anchor="start" x="633.5" y="-1042" font-family="Times New Roman,serif" font-size="10.00">tgtRoleName = &quot;player&quot;</text>
</g>
<!-- p14&#45;&#45;l15 -->
<g id="edge46" class="edge"><title>p14&#45;&#45;l15</title>
<path fill="none" stroke="black" d="M432.242,-1118.33C481.187,-1105.68 563.256,-1084.45 619.657,-1069.86"/>
<text text-anchor="middle" x="611.941" y="-1073.73" font-family="Times New Roman,serif" font-size="10.00">incomming</text>
<text text-anchor="middle" x="439.958" y="-1109.47" font-family="Times New Roman,serif" font-size="10.00">tgt</text>
</g>
<!-- p19 -->
<g id="node19" class="node"><title>p19</title>
<polygon fill="none" stroke="black" points="434,-712 434,-729 534,-729 534,-712 434,-712"/>
<text text-anchor="start" x="450" y="-718.5" font-family="Times New Roman,serif" font-size="10.00"> </text>
<text text-anchor="start" x="453" y="-718.5" font-family="Times New Roman,serif" font-size="10.00">p19 :PatternLink</text>
<polygon fill="none" stroke="black" points="434,-692 434,-712 534,-712 534,-692 434,-692"/>
<text text-anchor="start" x="439.5" y="-700" font-family="Times New Roman,serif" font-size="10.00">tgtRoleName = &quot;start&quot;</text>
</g>
<!-- p14&#45;&#45;p19 -->
<g id="edge50" class="edge"><title>p14&#45;&#45;p19</title>
<path fill="none" stroke="black" d="M422.995,-1111.9C464.596,-1087.07 532,-1036.85 532,-972 532,-972 532,-972 532,-888 532,-830.675 508.005,-766.43 493.946,-733.706"/>
<text text-anchor="middle" x="501.34" y="-737.939" font-family="Times New Roman,serif" font-size="10.00">outgoing</text>
<text text-anchor="middle" x="428.453" y="-1101.02" font-family="Times New Roman,serif" font-size="10.00">src</text>
</g>
<!-- p21 -->
<g id="node21" class="node"><title>p21</title>
<polygon fill="none" stroke="black" points="397,-808 397,-825 496,-825 496,-808 397,-808"/>
<text text-anchor="start" x="412.5" y="-814.5" font-family="Times New Roman,serif" font-size="10.00"> </text>
<text text-anchor="start" x="415.5" y="-814.5" font-family="Times New Roman,serif" font-size="10.00">p21 :PatternLink</text>
<polygon fill="none" stroke="black" points="397,-788 397,-808 496,-808 496,-788 397,-788"/>
<text text-anchor="start" x="402.5" y="-796" font-family="Times New Roman,serif" font-size="10.00">tgtRoleName = &quot;dice&quot;</text>
</g>
<!-- p14&#45;&#45;p21 -->
<g id="edge52" class="edge"><title>p14&#45;&#45;p21</title>
<path fill="none" stroke="black" d="M393.957,-1111.74C403.261,-1057.44 431.932,-890.108 442.251,-829.882"/>
<text text-anchor="middle" x="444.886" y="-837.029" font-family="Times New Roman,serif" font-size="10.00">outgoing</text>
<text text-anchor="middle" x="391.322" y="-1099.6" font-family="Times New Roman,serif" font-size="10.00">src</text>
</g>
<!-- l24 -->
<g id="node24" class="node"><title>l24</title>
<polygon fill="none" stroke="black" points="223,-972 223,-989 324,-989 324,-972 223,-972"/>
<text text-anchor="start" x="234" y="-978.5" font-family="Times New Roman,serif" font-size="10.00"> </text>
<text text-anchor="start" x="237" y="-978.5" font-family="Times New Roman,serif" font-size="10.00">l24 :LinkConstraint</text>
<polygon fill="none" stroke="black" points="223,-952 223,-972 324,-972 324,-952 223,-952"/>
<text text-anchor="start" x="228.5" y="-960" font-family="Times New Roman,serif" font-size="10.00">tgtRoleName = &quot;base&quot;</text>
</g>
<!-- p14&#45;&#45;l24 -->
<g id="edge48" class="edge"><title>p14&#45;&#45;l24</title>
<path fill="none" stroke="black" d="M375.586,-1111.67C366.698,-1101.47 355.448,-1088.22 346,-1076 324.551,-1048.25 301.585,-1014.85 287.261,-993.526"/>
<text text-anchor="middle" x="295.832" y="-996.177" font-family="Times New Roman,serif" font-size="10.00">outgoing</text>
<text text-anchor="middle" x="366.452" y="-1105.1" font-family="Times New Roman,serif" font-size="10.00">src</text>
</g>
<!-- l15&#45;&#45;p10 -->
<g id="edge32" class="edge"><title>l15&#45;&#45;p10</title>
<path fill="none" stroke="black" d="M742.267,-1033.16C803.306,-1010.14 888,-964.727 888,-890 888,-890 888,-890 888,-593 888,-520.406 873.761,-436.433 864.583,-389.848"/>
<text text-anchor="middle" x="870.441" y="-395.453" font-family="Times New Roman,serif" font-size="10.00">hostGraphSrcObject</text>
</g>
<!-- p16 -->
<g id="node16" class="node"><title>p16</title>
<polygon fill="none" stroke="black" points="699,-962 699,-979 762,-979 762,-962 699,-962"/>
<text text-anchor="start" x="702.5" y="-968.5" font-family="Times New Roman,serif" font-size="10.00"> </text>
<text text-anchor="start" x="705.5" y="-968.5" font-family="Times New Roman,serif" font-size="10.00">p16 :PawnPO</text>
</g>
<!-- l15&#45;&#45;p16 -->
<g id="edge34" class="edge"><title>l15&#45;&#45;p16</title>
<path fill="none" stroke="black" d="M694.389,-1030.14C702.324,-1017.19 712.23,-1001.01 719.578,-989.015"/>
<text text-anchor="middle" x="718.449" y="-996.451" font-family="Times New Roman,serif" font-size="10.00">src</text>
<text text-anchor="middle" x="695.519" y="-1017.7" font-family="Times New Roman,serif" font-size="10.00">outgoing</text>
</g>
<!-- n20 -->
<g id="node20" class="node"><title>n20</title>
<polygon fill="none" stroke="black" points="568,-798 568,-815 720,-815 720,-798 568,-798"/>
<text text-anchor="start" x="571.5" y="-804.5" font-family="Times New Roman,serif" font-size="10.00"> </text>
<text text-anchor="start" x="574.5" y="-804.5" font-family="Times New Roman,serif" font-size="10.00">n20 :NegativeApplicationCondition</text>
</g>
<!-- l15&#45;&#45;n20 -->
<g id="edge30" class="edge"><title>l15&#45;&#45;n20</title>
<path fill="none" stroke="black" d="M677.716,-1030.35C670.465,-982.527 653.207,-868.714 646.618,-825.264"/>
<text text-anchor="middle" x="652.155" y="-831.091" font-family="Times New Roman,serif" font-size="10.00">pattern</text>
</g>
<!-- p16&#45;&#45;p10 -->
<g id="edge58" class="edge"><title>p16&#45;&#45;p10</title>
<path fill="none" stroke="black" d="M769.299,-956.854C790.815,-947.638 816.065,-933.138 831,-912 858.114,-873.625 850,-854.987 850,-808 850,-808 850,-808 850,-593 850,-520.771 853.234,-436.316 855.305,-389.623"/>
<text text-anchor="middle" x="859.137" y="-396.36" font-family="Times New Roman,serif" font-size="10.00">currentMatch</text>
</g>
<!-- p17 -->
<g id="node17" class="node"><title>p17</title>
<polygon fill="none" stroke="black" points="706,-890 706,-907 814,-907 814,-890 706,-890"/>
<text text-anchor="start" x="726" y="-896.5" font-family="Times New Roman,serif" font-size="10.00"> </text>
<text text-anchor="start" x="729" y="-896.5" font-family="Times New Roman,serif" font-size="10.00">p17 :PatternLink</text>
<polygon fill="none" stroke="black" points="706,-870 706,-890 814,-890 814,-870 706,-870"/>
<text text-anchor="start" x="711.5" y="-878" font-family="Times New Roman,serif" font-size="10.00">tgtRoleName = &quot;pawns&quot;</text>
</g>
<!-- p16&#45;&#45;p17 -->
<g id="edge60" class="edge"><title>p16&#45;&#45;p17</title>
<path fill="none" stroke="black" d="M736.51,-952.641C741.025,-940.601 747.07,-924.48 751.897,-911.608"/>
<text text-anchor="middle" x="752.672" y="-919.078" font-family="Times New Roman,serif" font-size="10.00">incomming</text>
<text text-anchor="middle" x="735.735" y="-940.171" font-family="Times New Roman,serif" font-size="10.00">tgt</text>
</g>
<!-- p16&#45;&#45;n20 -->
<g id="edge56" class="edge"><title>p16&#45;&#45;n20</title>
<path fill="none" stroke="black" d="M716.455,-952.853C707.947,-941.622 697.093,-926.406 689,-912 672.523,-882.67 657.98,-846.12 650.139,-825.082"/>
<text text-anchor="middle" x="657.293" y="-829.57" font-family="Times New Roman,serif" font-size="10.00">pattern</text>
</g>
<!-- f18 -->
<g id="node18" class="node"><title>f18</title>
<polygon fill="none" stroke="black" points="755,-798 755,-815 814,-815 814,-798 755,-798"/>
<text text-anchor="start" x="758.5" y="-804.5" font-family="Times New Roman,serif" font-size="10.00"> </text>
<text text-anchor="start" x="761.5" y="-804.5" font-family="Times New Roman,serif" font-size="10.00">f18 :FieldPO</text>
</g>
<!-- p17&#45;&#45;f18 -->
<g id="edge62" class="edge"><title>p17&#45;&#45;f18</title>
<path fill="none" stroke="black" d="M766.558,-866.14C770.444,-853.186 775.296,-837.013 778.896,-825.015"/>
<text text-anchor="middle" x="780.339" y="-832.41" font-family="Times New Roman,serif" font-size="10.00">src</text>
<text text-anchor="middle" x="765.114" y="-853.744" font-family="Times New Roman,serif" font-size="10.00">outgoing</text>
</g>
<!-- p17&#45;&#45;n20 -->
<g id="edge64" class="edge"><title>p17&#45;&#45;n20</title>
<path fill="none" stroke="black" d="M728.609,-866.351C709.821,-853.394 686.279,-837.158 668.8,-825.104"/>
<text text-anchor="middle" x="678.661" y="-824.27" font-family="Times New Roman,serif" font-size="10.00">pattern</text>
</g>
<!-- f18&#45;&#45;f5 -->
<g id="edge10" class="edge"><title>f18&#45;&#45;f5</title>
<path fill="none" stroke="black" d="M783.236,-788.927C780.97,-738.327 774.242,-588.07 770.911,-513.69"/>
<text text-anchor="middle" x="775.539" y="-520.055" font-family="Times New Roman,serif" font-size="10.00">currentMatch</text>
</g>
<!-- f18&#45;&#45;p19 -->
<g id="edge12" class="edge"><title>f18&#45;&#45;p19</title>
<path fill="none" stroke="black" d="M750,-788.897C745.687,-787.082 741.284,-785.393 737,-784 656.929,-757.954 630.321,-776.248 551,-748 540.302,-744.19 529.231,-738.877 519.244,-733.501"/>
<text text-anchor="middle" x="529.23" y="-731.525" font-family="Times New Roman,serif" font-size="10.00">incomming</text>
<text text-anchor="middle" x="740.008" y="-786.81" font-family="Times New Roman,serif" font-size="10.00">tgt</text>
</g>
<!-- p19&#45;&#45;p3 -->
<g id="edge66" class="edge"><title>p19&#45;&#45;p3</title>
<path fill="none" stroke="black" d="M464.25,-688.369C451.181,-674.055 433.603,-654.804 417.804,-637.5"/>
<text text-anchor="middle" x="427.036" y="-638.843" font-family="Times New Roman,serif" font-size="10.00">hostGraphSrcObject</text>
</g>
<!-- p21&#45;&#45;p3 -->
<g id="edge76" class="edge"><title>p21&#45;&#45;p3</title>
<path fill="none" stroke="black" d="M433.814,-784.473C428.12,-773.759 421.599,-760.463 417,-748 403.591,-711.667 393.396,-668.756 386.958,-637.638"/>
<text text-anchor="middle" x="392.967" y="-643.131" font-family="Times New Roman,serif" font-size="10.00">hostGraphSrcObject</text>
</g>
<!-- d22 -->
<g id="node22" class="node"><title>d22</title>
<polygon fill="none" stroke="black" points="569,-702 569,-719 628,-719 628,-702 569,-702"/>
<text text-anchor="start" x="572.5" y="-708.5" font-family="Times New Roman,serif" font-size="10.00"> </text>
<text text-anchor="start" x="575.5" y="-708.5" font-family="Times New Roman,serif" font-size="10.00">d22 :DicePO</text>
</g>
<!-- p21&#45;&#45;d22 -->
<g id="edge74" class="edge"><title>p21&#45;&#45;d22</title>
<path fill="none" stroke="black" d="M488.484,-784.391C507.934,-774.03 531.043,-761.051 551,-748 559.774,-742.262 569.018,-735.381 576.964,-729.18"/>
<text text-anchor="middle" x="572.396" y="-735.575" font-family="Times New Roman,serif" font-size="10.00">tgt</text>
<text text-anchor="middle" x="494.474" y="-773.883" font-family="Times New Roman,serif" font-size="10.00">incomming</text>
</g>
<!-- d22&#45;&#45;d4 -->
<g id="edge8" class="edge"><title>d22&#45;&#45;d4</title>
<path fill="none" stroke="black" d="M574.352,-692.986C558.128,-679.907 537.674,-660.333 527,-638 504.036,-589.952 504.158,-525.538 506.12,-492.512"/>
<text text-anchor="middle" x="509.912" y="-499.265" font-family="Times New Roman,serif" font-size="10.00">currentMatch</text>
</g>
<!-- a23 -->
<g id="node23" class="node"><title>a23</title>
<polygon fill="none" stroke="black" points="545,-602 545,-619 652,-619 652,-602 545,-602"/>
<text text-anchor="start" x="548.5" y="-608.5" font-family="Times New Roman,serif" font-size="10.00"> </text>
<text text-anchor="start" x="551.5" y="-608.5" font-family="Times New Roman,serif" font-size="10.00">a23 :AttributeConstraint</text>
<polygon fill="none" stroke="black" points="545,-568 545,-602 652,-602 652,-568 545,-568"/>
<text text-anchor="start" x="560" y="-590" font-family="Times New Roman,serif" font-size="10.00">attrName = &quot;value&quot;</text>
<text text-anchor="start" x="574" y="-576" font-family="Times New Roman,serif" font-size="10.00">tgtValue = 6</text>
</g>
<!-- d22&#45;&#45;a23 -->
<g id="edge6" class="edge"><title>d22&#45;&#45;a23</title>
<path fill="none" stroke="black" d="M598,-692.534C598,-674.312 598,-645.442 598,-623.832"/>
<text text-anchor="middle" x="602.226" y="-630.395" font-family="Times New Roman,serif" font-size="10.00">attrConstraints</text>
<text text-anchor="middle" x="593.774" y="-680.971" font-family="Times New Roman,serif" font-size="10.00">src</text>
</g>
<!-- a23&#45;&#45;d4 -->
<g id="edge2" class="edge"><title>a23&#45;&#45;d4</title>
<path fill="none" stroke="black" d="M576.899,-564.396C560.689,-542.423 538.65,-512.548 523.906,-492.561"/>
<text text-anchor="middle" x="532.687" y="-494.845" font-family="Times New Roman,serif" font-size="10.00">hostGraphSrcObject</text>
</g>
<!-- l24&#45;&#45;p3 -->
<g id="edge38" class="edge"><title>l24&#45;&#45;p3</title>
<path fill="none" stroke="black" d="M283.115,-948.325C287.834,-937.577 293.228,-924.293 297,-912 328.677,-808.754 314.15,-777.193 346,-674 349.682,-662.07 354.501,-649.463 359.314,-637.908"/>
<text text-anchor="middle" x="359.763" y="-645.398" font-family="Times New Roman,serif" font-size="10.00">hostGraphSrcObject</text>
</g>
<!-- f25 -->
<g id="node25" class="node"><title>f25</title>
<polygon fill="none" stroke="black" points="222,-880 222,-897 281,-897 281,-880 222,-880"/>
<text text-anchor="start" x="225.5" y="-886.5" font-family="Times New Roman,serif" font-size="10.00"> </text>
<text text-anchor="start" x="228.5" y="-886.5" font-family="Times New Roman,serif" font-size="10.00">f25 :FieldPO</text>
</g>
<!-- l24&#45;&#45;f25 -->
<g id="edge36" class="edge"><title>l24&#45;&#45;f25</title>
<path fill="none" stroke="black" d="M266.988,-948.14C263.426,-935.186 258.978,-919.013 255.679,-907.015"/>
<text text-anchor="middle" x="262.157" y="-912.133" font-family="Times New Roman,serif" font-size="10.00">tgt</text>
<text text-anchor="middle" x="260.51" y="-938.022" font-family="Times New Roman,serif" font-size="10.00">incomming</text>
</g>
<!-- f25&#45;&#45;f12 -->
<g id="edge16" class="edge"><title>f25&#45;&#45;f12</title>
<path fill="none" stroke="black" d="M253.932,-870.987C262.017,-821.243 282.824,-671.875 264,-550 262.155,-538.058 258.83,-525.447 255.193,-513.892"/>
<text text-anchor="middle" x="261.907" y="-518.803" font-family="Times New Roman,serif" font-size="10.00">currentMatch</text>
</g>
<!-- f25&#45;&#45;p26 -->
<g id="edge18" class="edge"><title>f25&#45;&#45;p26</title>
<path fill="none" stroke="black" d="M231.471,-870.641C217.926,-858.601 199.79,-842.48 185.309,-829.608"/>
<text text-anchor="middle" x="194.891" y="-829.97" font-family="Times New Roman,serif" font-size="10.00">incomming</text>
<text text-anchor="middle" x="221.89" y="-865.279" font-family="Times New Roman,serif" font-size="10.00">tgt</text>
</g>
<!-- a27 -->
<g id="node27" class="node"><title>a27</title>
<polygon fill="none" stroke="black" points="141,-602 141,-619 248,-619 248,-602 141,-602"/>
<text text-anchor="start" x="144.5" y="-608.5" font-family="Times New Roman,serif" font-size="10.00"> </text>
<text text-anchor="start" x="147.5" y="-608.5" font-family="Times New Roman,serif" font-size="10.00">a27 :AttributeConstraint</text>
<polygon fill="none" stroke="black" points="141,-568 141,-602 248,-602 248,-568 141,-568"/>
<text text-anchor="start" x="158" y="-590" font-family="Times New Roman,serif" font-size="10.00">attrName = &quot;kind&quot;</text>
<text text-anchor="start" x="158.5" y="-576" font-family="Times New Roman,serif" font-size="10.00">tgtValue = &quot;base&quot;</text>
</g>
<!-- f25&#45;&#45;a27 -->
<g id="edge14" class="edge"><title>f25&#45;&#45;a27</title>
<path fill="none" stroke="black" d="M247.689,-870.981C238.28,-822.615 211.309,-683.972 199.57,-623.632"/>
<text text-anchor="middle" x="205.449" y="-629.221" font-family="Times New Roman,serif" font-size="10.00">attrConstraints</text>
<text text-anchor="middle" x="241.81" y="-860.391" font-family="Times New Roman,serif" font-size="10.00">src</text>
</g>
<!-- p26&#45;&#45;p2 -->
<g id="edge78" class="edge"><title>p26&#45;&#45;p2</title>
<path fill="none" stroke="black" d="M147.78,-784.198C141.202,-773.351 133.083,-759.962 125.631,-747.671"/>
<text text-anchor="middle" x="133.943" y="-750.73" font-family="Times New Roman,serif" font-size="10.00">hostGraphSrcObject</text>
</g>
<!-- a27&#45;&#45;f12 -->
<g id="edge4" class="edge"><title>a27&#45;&#45;f12</title>
<path fill="none" stroke="black" d="M204.551,-564.396C210.11,-549.325 217.04,-530.536 223.224,-513.77"/>
<text text-anchor="middle" x="224.053" y="-521.236" font-family="Times New Roman,serif" font-size="10.00">hostGraphSrcObject</text>
</g>
</g>
</svg>
