<?xml version="1.0" encoding="UTF-8" standalone="no"?>
<!DOCTYPE svg PUBLIC "-//W3C//DTD SVG 1.1//EN"
 "http://www.w3.org/Graphics/SVG/1.1/DTD/svg11.dtd">
<!-- Generated by graphviz version 2.28.0 (20110507.0327)
 -->
<!-- Title: ObjectDiagram Pages: 1 -->
<svg width="464pt" height="966pt"
 viewBox="0.00 0.00 463.73 966.00" xmlns="http://www.w3.org/2000/svg" xmlns:xlink="http://www.w3.org/1999/xlink">
<g id="graph1" class="graph" transform="scale(1 1) rotate(0) translate(4 962)">
<title>ObjectDiagram</title>
<polygon fill="white" stroke="white" points="-4,5 -4,-962 460.733,-962 460.733,5 -4,5"/>
<g id="graph2" class="cluster"><title>cluster_n11</title>
<polygon fill="none" stroke="grey" points="35,-589 35,-698 150,-698 150,-589 35,-589"/>
<image xlink:href="../../SDMLib.net/doc/forbiddensign.svg" width="30px" height="30px" preserveAspectRatio="xMinYMin meet" x="48" y="-689"/>
<text text-anchor="start" x="84.5" y="-670.8" font-family="Times New Roman,serif" font-size="14.00">NAC n11</text>
</g>
<!-- p1 -->
<g id="node1" class="node"><title>p1</title>
<polygon fill="deepskyblue" stroke="deepskyblue" points="279,-902.5 279,-953.5 333,-953.5 333,-902.5 279,-902.5"/>
<text text-anchor="start" x="304" y="-943.5" font-family="Arial" font-size="10.00">«bound»</text>
<polygon fill="none" stroke="black" points="279,-922 279,-938 333,-938 333,-922 279,-922"/>
<text text-anchor="start" x="282.5" y="-928" font-family="Arial" font-size="10.00"> </text>
<text text-anchor="start" x="286.5" y="-928" font-family="Arial" font-size="10.00"> p1 :PawnPO </text>
<polygon fill="none" stroke="black" points="279,-902 279,-922 333,-922 333,-902 279,-902"/>
<text text-anchor="start" x="302.5" y="-910" font-family="Arial" font-size="10.00"> &#160;</text>
</g>
<!-- p3 -->
<g id="node2" class="node"><title>p3</title>
<polygon fill="deepskyblue" stroke="deepskyblue" points="141,-820.5 141,-857.5 217,-857.5 217,-820.5 141,-820.5"/>
<polygon fill="none" stroke="black" points="141,-840 141,-857 217,-857 217,-840 141,-840"/>
<text text-anchor="start" x="144.5" y="-846.5" font-family="Arial" font-size="10.00"> </text>
<text text-anchor="start" x="148.5" y="-846.5" font-family="Arial" font-size="10.00"> p3 :PlayerPO </text>
<polygon fill="none" stroke="black" points="141,-820 141,-840 217,-840 217,-820 141,-820"/>
<text text-anchor="start" x="175.5" y="-828" font-family="Arial" font-size="10.00"> &#160;</text>
</g>
<!-- p1&#45;&#45;p3 -->
<g id="edge15" class="edge"><title>p1&#45;&#45;p3</title>
<path fill="none" stroke="black" d="M270.961,-902.997C252.018,-890.02 228.815,-874.125 210.456,-861.548"/>
<text text-anchor="middle" x="220.321" y="-860.684" font-family="Arial" font-size="10.00">player</text>
</g>
<!-- f7 -->
<g id="node4" class="node"><title>f7</title>
<polygon fill="deepskyblue" stroke="deepskyblue" points="358,-724.5 358,-761.5 426,-761.5 426,-724.5 358,-724.5"/>
<polygon fill="none" stroke="black" points="358,-744 358,-761 426,-761 426,-744 358,-744"/>
<text text-anchor="start" x="368" y="-750.5" font-family="Arial" font-size="10.00"> </text>
<text text-anchor="start" x="372" y="-750.5" font-family="Arial" font-size="10.00"> f7 :FieldPO </text>
<polygon fill="none" stroke="black" points="358,-724 358,-744 426,-744 426,-724 358,-724"/>
<text text-anchor="start" x="363.5" y="-732" font-family="Arial" font-size="10.00"> kind == &quot;base&quot; </text>
</g>
<!-- p1&#45;&#45;f7 -->
<g id="edge19" class="edge"><title>p1&#45;&#45;f7</title>
<path fill="none" stroke="black" d="M332.995,-898.303C341.969,-887.56 351.357,-874.834 358,-862 374.268,-830.57 383.735,-790.285 388.38,-765.845"/>
<text text-anchor="middle" x="390.766" y="-773.056" font-family="Arial" font-size="10.00">pos</text>
</g>
<!-- p2 -->
<g id="node8" class="node"><title>p2</title>
<a xlink:href="../examples/org/sdmlib/examples/ludo/Pawn.java" xlink:title="&lt;TABLE&gt;">
<polygon fill="none" stroke="black" points="271,-840 271,-857 341,-857 341,-840 271,-840"/>
<text text-anchor="start" x="283.5" y="-846.5" font-family="Arial" font-size="10.00"> </text>
<text text-anchor="start" x="287.5" y="-846.5" font-family="Arial" font-size="10.00">p2 :Pawn</text>
</a>
<polygon fill="none" stroke="black" points="271,-820 271,-840 341,-840 341,-820 271,-820"/>
<text text-anchor="start" x="276" y="-828" font-family="Arial" font-size="10.00">color = &quot;blue&quot;</text>
</g>
<!-- p1&#45;&#45;p2 -->
<g id="edge3" class="edge"><title>p1&#45;&#45;p2</title>
<path fill="none" stroke="black" stroke-dasharray="1,5" d="M306,-898.03C306,-886.167 306,-872.675 306,-861.687"/>
<text text-anchor="middle" x="310.226" y="-868.25" font-family="Arial" font-size="10.00">match</text>
</g>
<!-- d5 -->
<g id="node3" class="node"><title>d5</title>
<polygon fill="deepskyblue" stroke="deepskyblue" points="146,-724.5 146,-761.5 202,-761.5 202,-724.5 146,-724.5"/>
<polygon fill="none" stroke="black" points="146,-744 146,-761 202,-761 202,-744 146,-744"/>
<text text-anchor="start" x="149.5" y="-750.5" font-family="Arial" font-size="10.00"> </text>
<text text-anchor="start" x="153.5" y="-750.5" font-family="Arial" font-size="10.00"> d5 :DicePO </text>
<polygon fill="none" stroke="black" points="146,-724 146,-744 202,-744 202,-724 146,-724"/>
<text text-anchor="start" x="152.5" y="-732" font-family="Arial" font-size="10.00"> value == 6 </text>
</g>
<!-- p3&#45;&#45;d5 -->
<g id="edge17" class="edge"><title>p3&#45;&#45;d5</title>
<path fill="none" stroke="black" d="M177.84,-816.198C177.033,-801.012 175.96,-780.844 175.153,-765.684"/>
<text text-anchor="middle" x="179.855" y="-772.009" font-family="Arial" font-size="10.00">dice</text>
</g>
<!-- p3&#45;&#45;f7 -->
<g id="edge21" class="edge"><title>p3&#45;&#45;f7</title>
<path fill="none" stroke="black" d="M225.075,-825.161C258.275,-815.044 303.624,-799.422 341,-780 348.886,-775.902 356.952,-770.736 364.275,-765.606"/>
<text text-anchor="middle" x="359.238" y="-771.745" font-family="Arial" font-size="10.00">base</text>
</g>
<!-- f9 -->
<g id="node5" class="node"><title>f9</title>
<polygon fill="deepskyblue" stroke="deepskyblue" points="8,-724.5 8,-761.5 74,-761.5 74,-724.5 8,-724.5"/>
<polygon fill="none" stroke="black" points="8,-744 8,-761 74,-761 74,-744 8,-744"/>
<text text-anchor="start" x="11.5" y="-750.5" font-family="Arial" font-size="10.00"> </text>
<text text-anchor="start" x="15.5" y="-750.5" font-family="Arial" font-size="10.00"> f9 :FieldPO </text>
<polygon fill="none" stroke="black" points="8,-724 8,-744 74,-744 74,-724 8,-724"/>
<text text-anchor="start" x="37.5" y="-732" font-family="Arial" font-size="10.00"> &#160;</text>
</g>
<!-- p3&#45;&#45;f9 -->
<g id="edge23" class="edge"><title>p3&#45;&#45;f9</title>
<path fill="none" stroke="black" d="M147.34,-816.435C125.059,-801.258 95.3445,-781.017 72.9906,-765.791"/>
<text text-anchor="middle" x="82.8602" y="-764.9" font-family="Arial" font-size="10.00">start</text>
</g>
<!-- p4 -->
<g id="node9" class="node"><title>p4</title>
<a xlink:href="../examples/org/sdmlib/examples/ludo/Player.java" xlink:title="&lt;TABLE&gt;">
<polygon fill="none" stroke="black" points="236,-758 236,-775 324,-775 324,-758 236,-758"/>
<text text-anchor="start" x="255.5" y="-764.5" font-family="Arial" font-size="10.00"> </text>
<text text-anchor="start" x="259.5" y="-764.5" font-family="Arial" font-size="10.00">p4 :Player</text>
</a>
<polygon fill="none" stroke="black" points="236,-710 236,-758 324,-758 324,-710 236,-710"/>
<text text-anchor="start" x="241" y="-746" font-family="Arial" font-size="10.00">color = &quot;blue&quot;</text>
<text text-anchor="start" x="241" y="-732" font-family="Arial" font-size="10.00">enumColor = blue</text>
<text text-anchor="start" x="241" y="-718" font-family="Arial" font-size="10.00">name = &quot;Tom&quot;</text>
</g>
<!-- p3&#45;&#45;p4 -->
<g id="edge5" class="edge"><title>p3&#45;&#45;p4</title>
<path fill="none" stroke="black" stroke-dasharray="1,5" d="M202.171,-816.435C213.819,-805.594 228.243,-792.17 241.497,-779.835"/>
<text text-anchor="middle" x="237.741" y="-786.603" font-family="Arial" font-size="10.00">match</text>
</g>
<!-- d6 -->
<g id="node19" class="node"><title>d6</title>
<a xlink:href="../examples/org/sdmlib/examples/ludo/Dice.java" xlink:title="&lt;TABLE&gt;">
<polygon fill="none" stroke="black" points="167,-621 167,-638 218,-638 218,-621 167,-621"/>
<text text-anchor="start" x="172" y="-627.5" font-family="Arial" font-size="10.00"> </text>
<text text-anchor="start" x="176" y="-627.5" font-family="Arial" font-size="10.00">d6 :Dice</text>
</a>
<polygon fill="none" stroke="black" points="167,-601 167,-621 218,-621 218,-601 167,-601"/>
<text text-anchor="start" x="172" y="-609" font-family="Arial" font-size="10.00">value = 6</text>
</g>
<!-- d5&#45;&#45;d6 -->
<g id="edge7" class="edge"><title>d5&#45;&#45;d6</title>
<path fill="none" stroke="black" stroke-dasharray="1,5" d="M177.218,-720.368C180.474,-698.479 185.481,-664.82 188.749,-642.853"/>
<text text-anchor="middle" x="191.596" y="-649.939" font-family="Arial" font-size="10.00">match</text>
</g>
<!-- f8 -->
<g id="node20" class="node"><title>f8</title>
<a xlink:href="../examples/org/sdmlib/examples/ludo/Field.java" xlink:title="&lt;TABLE&gt;">
<polygon fill="none" stroke="black" points="376,-628 376,-645 446,-645 446,-628 376,-628"/>
<text text-anchor="start" x="391.5" y="-634.5" font-family="Arial" font-size="10.00"> </text>
<text text-anchor="start" x="395.5" y="-634.5" font-family="Arial" font-size="10.00">f8 :Field</text>
</a>
<polygon fill="none" stroke="black" points="376,-594 376,-628 446,-628 446,-594 376,-594"/>
<text text-anchor="start" x="381" y="-616" font-family="Arial" font-size="10.00">color = &quot;blue&quot;</text>
<text text-anchor="start" x="381" y="-602" font-family="Arial" font-size="10.00">kind = &quot;base&quot;</text>
</g>
<!-- f7&#45;&#45;f8 -->
<g id="edge9" class="edge"><title>f7&#45;&#45;f8</title>
<path fill="none" stroke="black" stroke-dasharray="1,5" d="M395.397,-720.368C398.492,-700.654 403.087,-671.394 406.489,-649.726"/>
<text text-anchor="middle" x="409.258" y="-656.835" font-family="Arial" font-size="10.00">match</text>
</g>
<!-- p12 -->
<g id="node7" class="node"><title>p12</title>
<polygon fill="deepskyblue" stroke="deepskyblue" points="54,-601.5 54,-638.5 132,-638.5 132,-601.5 54,-601.5"/>
<polygon fill="none" stroke="black" points="54,-621 54,-638 132,-638 132,-621 54,-621"/>
<text text-anchor="start" x="57.5" y="-627.5" font-family="Arial" font-size="10.00"> </text>
<text text-anchor="start" x="61.5" y="-627.5" font-family="Arial" font-size="10.00"> p12 :PawnPO </text>
<polygon fill="none" stroke="black" points="54,-601 54,-621 132,-621 132,-601 54,-601"/>
<text text-anchor="start" x="89.5" y="-609" font-family="Arial" font-size="10.00"> &#160;</text>
</g>
<!-- f9&#45;&#45;p12 -->
<g id="edge25" class="edge"><title>f9&#45;&#45;p12</title>
<path fill="none" stroke="black" d="M50.2966,-720.368C59.7031,-698.479 74.1682,-664.82 83.6086,-642.853"/>
<text text-anchor="middle" x="83.913" y="-650.348" font-family="Arial" font-size="10.00">pawns</text>
</g>
<!-- f10 -->
<g id="node14" class="node"><title>f10</title>
<a xlink:href="../examples/org/sdmlib/examples/ludo/Field.java" xlink:title="&lt;TABLE&gt;">
<polygon fill="none" stroke="black" points="127,-326 127,-343 197,-343 197,-326 127,-326"/>
<text text-anchor="start" x="140" y="-332.5" font-family="Arial" font-size="10.00"> </text>
<text text-anchor="start" x="144" y="-332.5" font-family="Arial" font-size="10.00">f10 :Field</text>
</a>
<polygon fill="none" stroke="black" points="127,-292 127,-326 197,-326 197,-292 127,-292"/>
<text text-anchor="start" x="132" y="-314" font-family="Arial" font-size="10.00">color = &quot;blue&quot;</text>
<text text-anchor="start" x="132" y="-300" font-family="Arial" font-size="10.00">kind = &quot;start&quot;</text>
</g>
<!-- f9&#45;&#45;f10 -->
<g id="edge11" class="edge"><title>f9&#45;&#45;f10</title>
<path fill="none" stroke="black" stroke-dasharray="1,5" d="M35.0411,-720.232C33.3875,-713.194 31.8211,-705.318 31,-698 25.5982,-649.858 21.939,-636.59 31,-589 49.3234,-492.763 63.6638,-469.211 112,-384 119.165,-371.369 128.558,-358.484 137.266,-347.553"/>
<text text-anchor="middle" x="134.973" y="-354.787" font-family="Arial" font-size="10.00">match</text>
</g>
<!-- p12&#45;&#45;p3 -->
<g id="edge27" class="edge"><title>p12&#45;&#45;p3</title>
<path fill="none" stroke="black" d="M94.5696,-642.692C97.5823,-674.384 106.061,-734.511 129,-780 135.764,-793.414 146.299,-806.286 155.957,-816.482"/>
<text text-anchor="middle" x="146.689" y="-810.227" font-family="Arial" font-size="10.00">player</text>
</g>
<!-- p13 -->
<g id="node13" class="node"><title>p13</title>
<a xlink:href="../examples/org/sdmlib/examples/ludo/Pawn.java" xlink:title="&lt;TABLE&gt;">
<polygon fill="none" stroke="black" points="129,-415 129,-432 195,-432 195,-415 129,-415"/>
<text text-anchor="start" x="137" y="-421.5" font-family="Arial" font-size="10.00"> </text>
<text text-anchor="start" x="141" y="-421.5" font-family="Arial" font-size="10.00">p13 :Pawn</text>
</a>
<polygon fill="none" stroke="black" points="129,-395 129,-415 195,-415 195,-395 129,-395"/>
<text text-anchor="start" x="134" y="-403" font-family="Arial" font-size="10.00">color = &quot;red&quot;</text>
</g>
<!-- p12&#45;&#45;p13 -->
<g id="edge13" class="edge"><title>p12&#45;&#45;p13</title>
<path fill="none" stroke="black" stroke-dasharray="1,5" d="M100.384,-597.168C113.665,-557.904 141.427,-475.824 154.669,-436.675"/>
<text text-anchor="middle" x="155.768" y="-444.114" font-family="Arial" font-size="10.00">match</text>
</g>
<!-- p2&#45;&#45;p4 -->
<g id="edge29" class="edge"><title>p2&#45;&#45;p4</title>
<path fill="none" stroke="black" d="M299.97,-816.198C296.969,-805.351 293.266,-791.962 289.867,-779.671"/>
<text text-anchor="middle" x="296.356" y="-784.78" font-family="Arial" font-size="10.00">player</text>
<text text-anchor="middle" x="293.48" y="-806.09" font-family="Arial" font-size="10.00">pawns</text>
</g>
<!-- p2&#45;&#45;f8 -->
<g id="edge31" class="edge"><title>p2&#45;&#45;f8</title>
<path fill="none" stroke="black" d="M349.267,-832.352C381.11,-825.681 422.315,-811.22 443,-780 469.361,-740.213 446.786,-683.409 428.52,-649.564"/>
<text text-anchor="middle" x="436.424" y="-653.191" font-family="Arial" font-size="10.00">pos</text>
<text text-anchor="middle" x="357.159" y="-823.71" font-family="Arial" font-size="10.00">pawns</text>
</g>
<!-- l14 -->
<g id="node10" class="node"><title>l14</title>
<a xlink:href="../examples/org/sdmlib/examples/ludo/Ludo.java" xlink:title="&lt;TABLE&gt;">
<polygon fill="none" stroke="black" points="291,-611 291,-628 342,-628 342,-611 291,-611"/>
<text text-anchor="start" x="294.5" y="-617.5" font-family="Arial" font-size="10.00"> </text>
<text text-anchor="start" x="298.5" y="-617.5" font-family="Arial" font-size="10.00">l14 :Ludo</text>
</a>
</g>
<!-- p4&#45;&#45;l14 -->
<g id="edge33" class="edge"><title>p4&#45;&#45;l14</title>
<path fill="none" stroke="black" d="M290.606,-706.35C297.285,-683.904 305.607,-655.933 310.864,-638.264"/>
<text text-anchor="middle" x="312.33" y="-645.656" font-family="Arial" font-size="10.00">game</text>
<text text-anchor="middle" x="289.14" y="-693.959" font-family="Arial" font-size="10.00">players</text>
</g>
<!-- p4&#45;&#45;f10 -->
<g id="edge37" class="edge"><title>p4&#45;&#45;f10</title>
<path fill="none" stroke="black" d="M274.204,-706.4C260.286,-621.752 225.158,-413.33 212,-384 206.173,-371.01 197.268,-358.25 188.58,-347.523"/>
<text text-anchor="middle" x="197.532" y="-349.481" font-family="Arial" font-size="10.00">start</text>
<text text-anchor="middle" x="268.555" y="-695.648" font-family="Arial" font-size="10.00">starter</text>
</g>
<!-- p4&#45;&#45;d6 -->
<g id="edge35" class="edge"><title>p4&#45;&#45;d6</title>
<path fill="none" stroke="black" d="M246.707,-706.438C244.378,-703.631 242.118,-700.799 240,-698 226.505,-680.16 213.212,-658.42 204.05,-642.596"/>
<text text-anchor="middle" x="212.268" y="-645.793" font-family="Arial" font-size="10.00">dice</text>
<text text-anchor="middle" x="237.675" y="-699.644" font-family="Arial" font-size="10.00">player</text>
</g>
<!-- p4&#45;&#45;f8 -->
<g id="edge39" class="edge"><title>p4&#45;&#45;f8</title>
<path fill="none" stroke="black" d="M332.062,-710.843C335.071,-709.178 338.065,-707.552 341,-706 348.382,-702.096 351.634,-703.404 358,-698 373.712,-684.661 386.878,-665.606 396.158,-649.79"/>
<text text-anchor="middle" x="395.12" y="-657.236" font-family="Arial" font-size="10.00">base</text>
<text text-anchor="middle" x="337.951" y="-700.261" font-family="Arial" font-size="10.00">baseowner</text>
</g>
<!-- p15 -->
<g id="node11" class="node"><title>p15</title>
<a xlink:href="../examples/org/sdmlib/examples/ludo/Player.java" xlink:title="&lt;TABLE&gt;">
<polygon fill="none" stroke="black" points="291,-532 291,-549 376,-549 376,-532 291,-532"/>
<text text-anchor="start" x="306.5" y="-538.5" font-family="Arial" font-size="10.00"> </text>
<text text-anchor="start" x="310.5" y="-538.5" font-family="Arial" font-size="10.00">p15 :Player</text>
</a>
<polygon fill="none" stroke="black" points="291,-484 291,-532 376,-532 376,-484 291,-484"/>
<text text-anchor="start" x="296" y="-520" font-family="Arial" font-size="10.00">color = &quot;red&quot;</text>
<text text-anchor="start" x="296" y="-506" font-family="Arial" font-size="10.00">enumColor = red</text>
<text text-anchor="start" x="296" y="-492" font-family="Arial" font-size="10.00">name = &quot;Sabine&quot;</text>
</g>
<!-- l14&#45;&#45;p15 -->
<g id="edge41" class="edge"><title>l14&#45;&#45;p15</title>
<path fill="none" stroke="black" d="M318.884,-601.867C321.1,-588.697 324.24,-570.047 326.995,-553.678"/>
<text text-anchor="middle" x="329.658" y="-560.816" font-family="Arial" font-size="10.00">players</text>
<text text-anchor="middle" x="316.221" y="-589.728" font-family="Arial" font-size="10.00">game</text>
</g>
<!-- f16 -->
<g id="node12" class="node"><title>f16</title>
<a xlink:href="../examples/org/sdmlib/examples/ludo/Field.java" xlink:title="&lt;TABLE&gt;">
<polygon fill="none" stroke="black" points="299,-422 299,-439 368,-439 368,-422 299,-422"/>
<text text-anchor="start" x="311.5" y="-428.5" font-family="Arial" font-size="10.00"> </text>
<text text-anchor="start" x="315.5" y="-428.5" font-family="Arial" font-size="10.00">f16 :Field</text>
</a>
<polygon fill="none" stroke="black" points="299,-388 299,-422 368,-422 368,-388 299,-388"/>
<text text-anchor="start" x="304" y="-410" font-family="Arial" font-size="10.00">color = &quot;red&quot;</text>
<text text-anchor="start" x="304" y="-396" font-family="Arial" font-size="10.00">kind = &quot;start&quot;</text>
</g>
<!-- p15&#45;&#45;f16 -->
<g id="edge43" class="edge"><title>p15&#45;&#45;f16</title>
<path fill="none" stroke="black" d="M333,-480.391C333,-468.351 333,-455.07 333,-443.641"/>
<text text-anchor="middle" x="337.226" y="-450.204" font-family="Arial" font-size="10.00">start</text>
<text text-anchor="middle" x="328.774" y="-468.828" font-family="Arial" font-size="10.00">starter</text>
</g>
<!-- p15&#45;&#45;p13 -->
<g id="edge45" class="edge"><title>p15&#45;&#45;p13</title>
<path fill="none" stroke="black" d="M282.619,-486.243C255.626,-470.299 222.979,-451.017 198.461,-436.535"/>
<text text-anchor="middle" x="208.414" y="-435.006" font-family="Arial" font-size="10.00">pawns</text>
<text text-anchor="middle" x="272.666" y="-482.773" font-family="Arial" font-size="10.00">player</text>
</g>
<!-- p13&#45;&#45;f10 -->
<g id="edge47" class="edge"><title>p13&#45;&#45;f10</title>
<path fill="none" stroke="black" d="M162,-391.198C162,-378.29 162,-361.782 162,-347.81"/>
<text text-anchor="middle" x="166.226" y="-354.373" font-family="Arial" font-size="10.00">pos</text>
<text text-anchor="middle" x="157.774" y="-379.635" font-family="Arial" font-size="10.00">pawns</text>
</g>
<!-- f17 -->
<g id="node15" class="node"><title>f17</title>
<a xlink:href="../examples/org/sdmlib/examples/ludo/Field.java" xlink:title="&lt;TABLE&gt;">
<polygon fill="none" stroke="black" points="137,-225 137,-242 188,-242 188,-225 137,-225"/>
<text text-anchor="start" x="140.5" y="-231.5" font-family="Arial" font-size="10.00"> </text>
<text text-anchor="start" x="144.5" y="-231.5" font-family="Arial" font-size="10.00">f17 :Field</text>
</a>
</g>
<!-- f10&#45;&#45;f17 -->
<g id="edge49" class="edge"><title>f10&#45;&#45;f17</title>
<path fill="none" stroke="black" d="M162,-288.32C162,-276.312 162,-262.75 162,-252.309"/>
<text text-anchor="middle" x="166.226" y="-258.872" font-family="Arial" font-size="10.00">next</text>
<text text-anchor="middle" x="157.774" y="-276.757" font-family="Arial" font-size="10.00">prev</text>
</g>
<!-- f18 -->
<g id="node16" class="node"><title>f18</title>
<a xlink:href="../examples/org/sdmlib/examples/ludo/Field.java" xlink:title="&lt;TABLE&gt;">
<polygon fill="none" stroke="black" points="137,-153 137,-170 188,-170 188,-153 137,-153"/>
<text text-anchor="start" x="140.5" y="-159.5" font-family="Arial" font-size="10.00"> </text>
<text text-anchor="start" x="144.5" y="-159.5" font-family="Arial" font-size="10.00">f18 :Field</text>
</a>
</g>
<!-- f17&#45;&#45;f18 -->
<g id="edge51" class="edge"><title>f17&#45;&#45;f18</title>
<path fill="none" stroke="black" d="M162,-215.697C162,-204.846 162,-190.917 162,-180.104"/>
<text text-anchor="middle" x="166.226" y="-186.667" font-family="Arial" font-size="10.00">next</text>
<text text-anchor="middle" x="157.774" y="-204.134" font-family="Arial" font-size="10.00">prev</text>
</g>
<!-- f19 -->
<g id="node17" class="node"><title>f19</title>
<a xlink:href="../examples/org/sdmlib/examples/ludo/Field.java" xlink:title="&lt;TABLE&gt;">
<polygon fill="none" stroke="black" points="137,-81 137,-98 188,-98 188,-81 137,-81"/>
<text text-anchor="start" x="140.5" y="-87.5" font-family="Arial" font-size="10.00"> </text>
<text text-anchor="start" x="144.5" y="-87.5" font-family="Arial" font-size="10.00">f19 :Field</text>
</a>
</g>
<!-- f18&#45;&#45;f19 -->
<g id="edge53" class="edge"><title>f18&#45;&#45;f19</title>
<path fill="none" stroke="black" d="M162,-143.697C162,-132.846 162,-118.917 162,-108.104"/>
<text text-anchor="middle" x="166.226" y="-114.667" font-family="Arial" font-size="10.00">next</text>
<text text-anchor="middle" x="157.774" y="-132.134" font-family="Arial" font-size="10.00">prev</text>
</g>
<!-- f20 -->
<g id="node18" class="node"><title>f20</title>
<a xlink:href="../examples/org/sdmlib/examples/ludo/Field.java" xlink:title="&lt;TABLE&gt;">
<polygon fill="none" stroke="black" points="137,-9 137,-26 188,-26 188,-9 137,-9"/>
<text text-anchor="start" x="140.5" y="-15.5" font-family="Arial" font-size="10.00"> </text>
<text text-anchor="start" x="144.5" y="-15.5" font-family="Arial" font-size="10.00">f20 :Field</text>
</a>
</g>
<!-- f19&#45;&#45;f20 -->
<g id="edge55" class="edge"><title>f19&#45;&#45;f20</title>
<path fill="none" stroke="black" d="M162,-71.6966C162,-60.8463 162,-46.9167 162,-36.1043"/>
<text text-anchor="middle" x="166.226" y="-42.6674" font-family="Arial" font-size="10.00">next</text>
<text text-anchor="middle" x="157.774" y="-60.1335" font-family="Arial" font-size="10.00">prev</text>
</g>
</g>
</svg>
