<?xml version="1.0" encoding="UTF-8" standalone="no"?>
<!DOCTYPE svg PUBLIC "-//W3C//DTD SVG 1.1//EN"
 "http://www.w3.org/Graphics/SVG/1.1/DTD/svg11.dtd">
<!-- Generated by graphviz version 2.28.0 (20110507.0327)
 -->
<!-- Title: ObjectDiagram Pages: 1 -->
<svg width="497pt" height="736pt"
 viewBox="0.00 0.00 496.57 736.00" xmlns="http://www.w3.org/2000/svg" xmlns:xlink="http://www.w3.org/1999/xlink">
<g id="graph1" class="graph" transform="scale(1 1) rotate(0) translate(4 732)">
<title>ObjectDiagram</title>
<polygon fill="white" stroke="white" points="-4,5 -4,-732 493.567,-732 493.567,5 -4,5"/>
<g id="graph2" class="cluster"><title>cluster_n11</title>
<polygon fill="none" stroke="grey" points="8,-359 8,-468 123,-468 123,-359 8,-359"/>
<image xlink:href="../../SDMLib/doc/forbiddensign.svg" width="30px" height="30px" preserveAspectRatio="xMinYMin meet" x="21" y="-459"/>
<text text-anchor="start" x="57.5" y="-440.8" font-family="Times New Roman,serif" font-size="14.00">NAC n11</text>
</g>
<!-- p1 -->
<g id="node1" class="node"><title>p1</title>
<polygon fill="deepskyblue" stroke="deepskyblue" points="311.5,-672.5 311.5,-723.5 362.5,-723.5 362.5,-672.5 311.5,-672.5"/>
<text text-anchor="start" x="333" y="-713.5" font-family="Times New Roman,serif" font-size="10.00">«bound»</text>
<polygon fill="none" stroke="black" points="312,-692 312,-708 363,-708 363,-692 312,-692"/>
<text text-anchor="start" x="315.5" y="-698" font-family="Times New Roman,serif" font-size="10.00"> </text>
<text text-anchor="start" x="318.5" y="-698" font-family="Times New Roman,serif" font-size="10.00"> p1 :PawnPO </text>
<polygon fill="none" stroke="black" points="312,-672 312,-692 363,-692 363,-672 312,-672"/>
<text text-anchor="start" x="335" y="-680" font-family="Times New Roman,serif" font-size="10.00"> &#160;</text>
</g>
<!-- p3 -->
<g id="node2" class="node"><title>p3</title>
<polygon fill="deepskyblue" stroke="deepskyblue" points="183,-590.5 183,-627.5 249,-627.5 249,-590.5 183,-590.5"/>
<polygon fill="none" stroke="black" points="183,-610 183,-627 249,-627 249,-610 183,-610"/>
<text text-anchor="start" x="186.5" y="-616.5" font-family="Times New Roman,serif" font-size="10.00"> </text>
<text text-anchor="start" x="189.5" y="-616.5" font-family="Times New Roman,serif" font-size="10.00"> p3 :PlayerPO </text>
<polygon fill="none" stroke="black" points="183,-590 183,-610 249,-610 249,-590 183,-590"/>
<text text-anchor="start" x="213.5" y="-598" font-family="Times New Roman,serif" font-size="10.00"> &#160;</text>
</g>
<!-- p1&#45;&#45;p3 -->
<g id="edge15" class="edge"><title>p1&#45;&#45;p3</title>
<path fill="none" stroke="black" d="M303.616,-672.997C285.568,-660.02 263.462,-644.125 245.97,-631.548"/>
<text text-anchor="middle" x="255.795" y="-630.908" font-family="Times New Roman,serif" font-size="10.00">player</text>
</g>
<!-- f7 -->
<g id="node4" class="node"><title>f7</title>
<polygon fill="deepskyblue" stroke="deepskyblue" points="385,-494.5 385,-531.5 461,-531.5 461,-494.5 385,-494.5"/>
<polygon fill="none" stroke="black" points="385,-514 385,-531 461,-531 461,-514 385,-514"/>
<text text-anchor="start" x="397" y="-520.5" font-family="Times New Roman,serif" font-size="10.00"> </text>
<text text-anchor="start" x="400" y="-520.5" font-family="Times New Roman,serif" font-size="10.00"> f7 :FieldPO </text>
<polygon fill="none" stroke="black" points="385,-494 385,-514 461,-514 461,-494 385,-494"/>
<text text-anchor="start" x="390.5" y="-502" font-family="Times New Roman,serif" font-size="10.00"> kind == &quot;base&quot; </text>
</g>
<!-- p1&#45;&#45;f7 -->
<g id="edge19" class="edge"><title>p1&#45;&#45;f7</title>
<path fill="none" stroke="black" d="M363.4,-668.203C372.195,-657.45 381.417,-644.744 388,-632 404.28,-600.485 414.163,-560.225 419.1,-535.813"/>
<text text-anchor="middle" x="421.376" y="-543.051" font-family="Times New Roman,serif" font-size="10.00">pos</text>
</g>
<!-- p2 -->
<g id="node8" class="node"><title>p2</title>
<polygon fill="none" stroke="black" points="303,-610 303,-627 371,-627 371,-610 303,-610"/>
<text text-anchor="start" x="317" y="-616.5" font-family="Times New Roman,serif" font-size="10.00"> </text>
<text text-anchor="start" x="320" y="-616.5" font-family="Times New Roman,serif" font-size="10.00">p2 :Pawn</text>
<polygon fill="none" stroke="black" points="303,-590 303,-610 371,-610 371,-590 303,-590"/>
<text text-anchor="start" x="308.5" y="-598" font-family="Times New Roman,serif" font-size="10.00">color = &quot;blue&quot;</text>
</g>
<!-- p1&#45;&#45;p2 -->
<g id="edge3" class="edge"><title>p1&#45;&#45;p2</title>
<path fill="none" stroke="black" stroke-dasharray="1,5" d="M337,-668.03C337,-656.167 337,-642.675 337,-631.687"/>
<text text-anchor="middle" x="341.226" y="-638.25" font-family="Times New Roman,serif" font-size="10.00">match</text>
</g>
<!-- d5 -->
<g id="node3" class="node"><title>d5</title>
<polygon fill="deepskyblue" stroke="deepskyblue" points="187,-494.5 187,-531.5 235,-531.5 235,-494.5 187,-494.5"/>
<polygon fill="none" stroke="black" points="187,-514 187,-531 235,-531 235,-514 187,-514"/>
<text text-anchor="start" x="190.5" y="-520.5" font-family="Times New Roman,serif" font-size="10.00"> </text>
<text text-anchor="start" x="193.5" y="-520.5" font-family="Times New Roman,serif" font-size="10.00"> d5 :DicePO </text>
<polygon fill="none" stroke="black" points="187,-494 187,-514 235,-514 235,-494 187,-494"/>
<text text-anchor="start" x="194" y="-502" font-family="Times New Roman,serif" font-size="10.00"> value == 6 </text>
</g>
<!-- p3&#45;&#45;d5 -->
<g id="edge17" class="edge"><title>p3&#45;&#45;d5</title>
<path fill="none" stroke="black" d="M214.84,-586.198C214.033,-571.012 212.96,-550.844 212.153,-535.684"/>
<text text-anchor="middle" x="216.855" y="-542.009" font-family="Times New Roman,serif" font-size="10.00">dice</text>
</g>
<!-- p3&#45;&#45;f7 -->
<g id="edge21" class="edge"><title>p3&#45;&#45;f7</title>
<path fill="none" stroke="black" d="M257.023,-595.029C288.21,-584.534 331.775,-568.494 368,-550 376.233,-545.797 384.762,-540.649 392.576,-535.576"/>
<text text-anchor="middle" x="387.246" y="-541.537" font-family="Times New Roman,serif" font-size="10.00">base</text>
</g>
<!-- f9 -->
<g id="node5" class="node"><title>f9</title>
<polygon fill="deepskyblue" stroke="deepskyblue" points="93.5,-494.5 93.5,-531.5 152.5,-531.5 152.5,-494.5 93.5,-494.5"/>
<polygon fill="none" stroke="black" points="94,-514 94,-531 153,-531 153,-514 94,-514"/>
<text text-anchor="start" x="97.5" y="-520.5" font-family="Times New Roman,serif" font-size="10.00"> </text>
<text text-anchor="start" x="100.5" y="-520.5" font-family="Times New Roman,serif" font-size="10.00"> f9 :FieldPO </text>
<polygon fill="none" stroke="black" points="94,-494 94,-514 153,-514 153,-494 94,-494"/>
<text text-anchor="start" x="121" y="-502" font-family="Times New Roman,serif" font-size="10.00"> &#160;</text>
</g>
<!-- p3&#45;&#45;f9 -->
<g id="edge23" class="edge"><title>p3&#45;&#45;f9</title>
<path fill="none" stroke="black" d="M194.43,-586.198C179.406,-571.012 159.452,-550.844 144.453,-535.684"/>
<text text-anchor="middle" x="153.831" y="-536.654" font-family="Times New Roman,serif" font-size="10.00">start</text>
</g>
<!-- p4 -->
<g id="node9" class="node"><title>p4</title>
<polygon fill="none" stroke="black" points="269,-528 269,-545 351,-545 351,-528 269,-528"/>
<text text-anchor="start" x="288.5" y="-534.5" font-family="Times New Roman,serif" font-size="10.00"> </text>
<text text-anchor="start" x="291.5" y="-534.5" font-family="Times New Roman,serif" font-size="10.00">p4 :Player</text>
<polygon fill="none" stroke="black" points="269,-480 269,-528 351,-528 351,-480 269,-480"/>
<text text-anchor="start" x="281.5" y="-516" font-family="Times New Roman,serif" font-size="10.00">color = &quot;blue&quot;</text>
<text text-anchor="start" x="274.5" y="-502" font-family="Times New Roman,serif" font-size="10.00">enumColor = blue</text>
<text text-anchor="start" x="281" y="-488" font-family="Times New Roman,serif" font-size="10.00">name = &quot;Tom&quot;</text>
</g>
<!-- p3&#45;&#45;p4 -->
<g id="edge5" class="edge"><title>p3&#45;&#45;p4</title>
<path fill="none" stroke="black" stroke-dasharray="1,5" d="M237.802,-586.198C248.649,-575.351 262.038,-561.962 274.329,-549.671"/>
<text text-anchor="middle" x="270.908" y="-556.568" font-family="Times New Roman,serif" font-size="10.00">match</text>
</g>
<!-- d6 -->
<g id="node10" class="node"><title>d6</title>
<polygon fill="none" stroke="black" points="257,-391 257,-408 305,-408 305,-391 257,-391"/>
<text text-anchor="start" x="263" y="-397.5" font-family="Times New Roman,serif" font-size="10.00"> </text>
<text text-anchor="start" x="266" y="-397.5" font-family="Times New Roman,serif" font-size="10.00">d6 :Dice</text>
<polygon fill="none" stroke="black" points="257,-371 257,-391 305,-391 305,-371 257,-371"/>
<text text-anchor="start" x="262.5" y="-379" font-family="Times New Roman,serif" font-size="10.00">value = 6</text>
</g>
<!-- d5&#45;&#45;d6 -->
<g id="edge7" class="edge"><title>d5&#45;&#45;d6</title>
<path fill="none" stroke="black" stroke-dasharray="1,5" d="M223.515,-490.368C236.177,-468.479 255.649,-434.82 268.358,-412.853"/>
<text text-anchor="middle" x="267.477" y="-420.314" font-family="Times New Roman,serif" font-size="10.00">match</text>
</g>
<!-- f8 -->
<g id="node19" class="node"><title>f8</title>
<polygon fill="none" stroke="black" points="389,-398 389,-415 457,-415 457,-398 389,-398"/>
<text text-anchor="start" x="405.5" y="-404.5" font-family="Times New Roman,serif" font-size="10.00"> </text>
<text text-anchor="start" x="408.5" y="-404.5" font-family="Times New Roman,serif" font-size="10.00">f8 :Field</text>
<polygon fill="none" stroke="black" points="389,-364 389,-398 457,-398 457,-364 389,-364"/>
<text text-anchor="start" x="394.5" y="-386" font-family="Times New Roman,serif" font-size="10.00">color = &quot;blue&quot;</text>
<text text-anchor="start" x="395.5" y="-372" font-family="Times New Roman,serif" font-size="10.00">kind = &quot;base&quot;</text>
</g>
<!-- f7&#45;&#45;f8 -->
<g id="edge9" class="edge"><title>f7&#45;&#45;f8</title>
<path fill="none" stroke="black" stroke-dasharray="1,5" d="M423,-490.368C423,-470.654 423,-441.394 423,-419.726"/>
<text text-anchor="middle" x="427.226" y="-426.289" font-family="Times New Roman,serif" font-size="10.00">match</text>
</g>
<!-- p12 -->
<g id="node7" class="node"><title>p12</title>
<polygon fill="deepskyblue" stroke="deepskyblue" points="38,-371.5 38,-408.5 106,-408.5 106,-371.5 38,-371.5"/>
<polygon fill="none" stroke="black" points="38,-391 38,-408 106,-408 106,-391 38,-391"/>
<text text-anchor="start" x="41.5" y="-397.5" font-family="Times New Roman,serif" font-size="10.00"> </text>
<text text-anchor="start" x="44.5" y="-397.5" font-family="Times New Roman,serif" font-size="10.00"> p12 :PawnPO </text>
<polygon fill="none" stroke="black" points="38,-371 38,-391 106,-391 106,-371 38,-371"/>
<text text-anchor="start" x="69.5" y="-379" font-family="Times New Roman,serif" font-size="10.00"> &#160;</text>
</g>
<!-- f9&#45;&#45;p12 -->
<g id="edge25" class="edge"><title>f9&#45;&#45;p12</title>
<path fill="none" stroke="black" d="M113.882,-490.368C104.657,-468.479 90.4697,-434.82 81.2108,-412.853"/>
<text text-anchor="middle" x="88.6253" y="-417.063" font-family="Times New Roman,serif" font-size="10.00">pawns</text>
</g>
<!-- f10 -->
<g id="node11" class="node"><title>f10</title>
<polygon fill="none" stroke="black" points="140,-398 140,-415 208,-415 208,-398 140,-398"/>
<text text-anchor="start" x="154" y="-404.5" font-family="Times New Roman,serif" font-size="10.00"> </text>
<text text-anchor="start" x="157" y="-404.5" font-family="Times New Roman,serif" font-size="10.00">f10 :Field</text>
<polygon fill="none" stroke="black" points="140,-364 140,-398 208,-398 208,-364 140,-364"/>
<text text-anchor="start" x="145.5" y="-386" font-family="Times New Roman,serif" font-size="10.00">color = &quot;blue&quot;</text>
<text text-anchor="start" x="146.5" y="-372" font-family="Times New Roman,serif" font-size="10.00">kind = &quot;start&quot;</text>
</g>
<!-- f9&#45;&#45;f10 -->
<g id="edge11" class="edge"><title>f9&#45;&#45;f10</title>
<path fill="none" stroke="black" stroke-dasharray="1,5" d="M132.118,-490.368C140.427,-470.654 152.76,-441.394 161.892,-419.726"/>
<text text-anchor="middle" x="162.267" y="-427.219" font-family="Times New Roman,serif" font-size="10.00">match</text>
</g>
<!-- p12&#45;&#45;p3 -->
<g id="edge27" class="edge"><title>p12&#45;&#45;p3</title>
<path fill="none" stroke="black" d="M65.7468,-412.52C57.5901,-445.338 47.4794,-508.454 76,-550 98.1856,-582.318 141.972,-596.664 174.699,-603.01"/>
<text text-anchor="middle" x="164.955" y="-602.757" font-family="Times New Roman,serif" font-size="10.00">player</text>
</g>
<!-- p13 -->
<g id="node16" class="node"><title>p13</title>
<polygon fill="none" stroke="black" points="44,-302 44,-319 107,-319 107,-302 44,-302"/>
<text text-anchor="start" x="53.5" y="-308.5" font-family="Times New Roman,serif" font-size="10.00"> </text>
<text text-anchor="start" x="56.5" y="-308.5" font-family="Times New Roman,serif" font-size="10.00">p13 :Pawn</text>
<polygon fill="none" stroke="black" points="44,-282 44,-302 107,-302 107,-282 44,-282"/>
<text text-anchor="start" x="49.5" y="-290" font-family="Times New Roman,serif" font-size="10.00">color = &quot;red&quot;</text>
</g>
<!-- p12&#45;&#45;p13 -->
<g id="edge13" class="edge"><title>p12&#45;&#45;p13</title>
<path fill="none" stroke="black" stroke-dasharray="1,5" d="M72.7416,-367.494C73.2031,-354.11 73.7947,-336.955 74.2566,-323.56"/>
<text text-anchor="middle" x="78.1679" y="-330.263" font-family="Times New Roman,serif" font-size="10.00">match</text>
</g>
<!-- p2&#45;&#45;p4 -->
<g id="edge29" class="edge"><title>p2&#45;&#45;p4</title>
<path fill="none" stroke="black" d="M330.738,-586.198C327.622,-575.351 323.776,-561.962 320.246,-549.671"/>
<text text-anchor="middle" x="326.81" y="-554.716" font-family="Times New Roman,serif" font-size="10.00">player</text>
<text text-anchor="middle" x="324.174" y="-576.154" font-family="Times New Roman,serif" font-size="10.00">pawns</text>
</g>
<!-- p2&#45;&#45;f8 -->
<g id="edge31" class="edge"><title>p2&#45;&#45;f8</title>
<path fill="none" stroke="black" d="M379.135,-603.182C412.181,-596.942 456.122,-582.656 478,-550 505.394,-509.111 472.898,-453.165 447.485,-419.697"/>
<text text-anchor="middle" x="456.234" y="-422.039" font-family="Times New Roman,serif" font-size="10.00">pos</text>
<text text-anchor="middle" x="387.147" y="-594.699" font-family="Times New Roman,serif" font-size="10.00">pawns</text>
</g>
<!-- p4&#45;&#45;d6 -->
<g id="edge33" class="edge"><title>p4&#45;&#45;d6</title>
<path fill="none" stroke="black" d="M301.456,-476.35C296.51,-455.716 290.446,-430.414 286.21,-412.737"/>
<text text-anchor="middle" x="292.432" y="-418.066" font-family="Times New Roman,serif" font-size="10.00">dice</text>
<text text-anchor="middle" x="295.234" y="-466.022" font-family="Times New Roman,serif" font-size="10.00">player</text>
</g>
<!-- p4&#45;&#45;f10 -->
<g id="edge35" class="edge"><title>p4&#45;&#45;f10</title>
<path fill="none" stroke="black" d="M260.673,-481.356C249.841,-474.553 241.196,-469.031 240,-468 223.334,-453.626 207.207,-434.931 195.067,-419.562"/>
<text text-anchor="middle" x="204.027" y="-421.504" font-family="Times New Roman,serif" font-size="10.00">start</text>
<text text-anchor="middle" x="250.751" y="-477.608" font-family="Times New Roman,serif" font-size="10.00">starter</text>
</g>
<!-- p4&#45;&#45;f8 -->
<g id="edge37" class="edge"><title>p4&#45;&#45;f8</title>
<path fill="none" stroke="black" d="M343.293,-476.35C360.219,-458.226 380.509,-436.499 396.382,-419.503"/>
<text text-anchor="middle" x="393.284" y="-426.511" font-family="Times New Roman,serif" font-size="10.00">base</text>
<text text-anchor="middle" x="346.39" y="-464.342" font-family="Times New Roman,serif" font-size="10.00">baseowner</text>
</g>
<!-- f14 -->
<g id="node12" class="node"><title>f14</title>
<polygon fill="none" stroke="black" points="151,-292 151,-309 198,-309 198,-292 151,-292"/>
<text text-anchor="start" x="154.5" y="-298.5" font-family="Times New Roman,serif" font-size="10.00"> </text>
<text text-anchor="start" x="157.5" y="-298.5" font-family="Times New Roman,serif" font-size="10.00">f14 :Field</text>
</g>
<!-- f10&#45;&#45;f14 -->
<g id="edge39" class="edge"><title>f10&#45;&#45;f14</title>
<path fill="none" stroke="black" d="M174,-360.03C174,-346.486 174,-330.819 174,-319.18"/>
<text text-anchor="middle" x="178.226" y="-325.743" font-family="Times New Roman,serif" font-size="10.00">next</text>
<text text-anchor="middle" x="169.774" y="-348.467" font-family="Times New Roman,serif" font-size="10.00">prev</text>
</g>
<!-- f10&#45;&#45;p13 -->
<g id="edge41" class="edge"><title>f10&#45;&#45;p13</title>
<path fill="none" stroke="black" d="M141.309,-360.272C127.68,-348.294 112.12,-334.621 99.5007,-323.531"/>
<text text-anchor="middle" x="109.098" y="-323.839" font-family="Times New Roman,serif" font-size="10.00">pawns</text>
<text text-anchor="middle" x="131.712" y="-354.964" font-family="Times New Roman,serif" font-size="10.00">pos</text>
</g>
<!-- f15 -->
<g id="node13" class="node"><title>f15</title>
<polygon fill="none" stroke="black" points="151,-196 151,-213 198,-213 198,-196 151,-196"/>
<text text-anchor="start" x="154.5" y="-202.5" font-family="Times New Roman,serif" font-size="10.00"> </text>
<text text-anchor="start" x="157.5" y="-202.5" font-family="Times New Roman,serif" font-size="10.00">f15 :Field</text>
</g>
<!-- f14&#45;&#45;f15 -->
<g id="edge43" class="edge"><title>f14&#45;&#45;f15</title>
<path fill="none" stroke="black" d="M174,-282.759C174,-265.798 174,-240.055 174,-223.132"/>
<text text-anchor="middle" x="178.226" y="-229.695" font-family="Times New Roman,serif" font-size="10.00">next</text>
<text text-anchor="middle" x="169.774" y="-271.196" font-family="Times New Roman,serif" font-size="10.00">prev</text>
</g>
<!-- f16 -->
<g id="node14" class="node"><title>f16</title>
<polygon fill="none" stroke="black" points="151,-93 151,-110 198,-110 198,-93 151,-93"/>
<text text-anchor="start" x="154.5" y="-99.5" font-family="Times New Roman,serif" font-size="10.00"> </text>
<text text-anchor="start" x="157.5" y="-99.5" font-family="Times New Roman,serif" font-size="10.00">f16 :Field</text>
</g>
<!-- f15&#45;&#45;f16 -->
<g id="edge45" class="edge"><title>f15&#45;&#45;f16</title>
<path fill="none" stroke="black" d="M174,-186.867C174,-168.294 174,-138.823 174,-120.217"/>
<text text-anchor="middle" x="178.226" y="-126.78" font-family="Times New Roman,serif" font-size="10.00">next</text>
<text text-anchor="middle" x="169.774" y="-175.304" font-family="Times New Roman,serif" font-size="10.00">prev</text>
</g>
<!-- f17 -->
<g id="node15" class="node"><title>f17</title>
<polygon fill="none" stroke="black" points="151,-9 151,-26 198,-26 198,-9 151,-9"/>
<text text-anchor="start" x="154.5" y="-15.5" font-family="Times New Roman,serif" font-size="10.00"> </text>
<text text-anchor="start" x="157.5" y="-15.5" font-family="Times New Roman,serif" font-size="10.00">f17 :Field</text>
</g>
<!-- f16&#45;&#45;f17 -->
<g id="edge47" class="edge"><title>f16&#45;&#45;f17</title>
<path fill="none" stroke="black" d="M174,-83.6099C174,-69.6002 174,-50.0114 174,-36.0838"/>
<text text-anchor="middle" x="178.226" y="-42.6469" font-family="Times New Roman,serif" font-size="10.00">next</text>
<text text-anchor="middle" x="169.774" y="-72.0468" font-family="Times New Roman,serif" font-size="10.00">prev</text>
</g>
<!-- p18 -->
<g id="node17" class="node"><title>p18</title>
<polygon fill="none" stroke="black" points="36,-220 36,-237 114,-237 114,-220 36,-220"/>
<text text-anchor="start" x="51.5" y="-226.5" font-family="Times New Roman,serif" font-size="10.00"> </text>
<text text-anchor="start" x="54.5" y="-226.5" font-family="Times New Roman,serif" font-size="10.00">p18 :Player</text>
<polygon fill="none" stroke="black" points="36,-172 36,-220 114,-220 114,-172 36,-172"/>
<text text-anchor="start" x="49" y="-208" font-family="Times New Roman,serif" font-size="10.00">color = &quot;red&quot;</text>
<text text-anchor="start" x="41.5" y="-194" font-family="Times New Roman,serif" font-size="10.00">enumColor = red</text>
<text text-anchor="start" x="41.5" y="-180" font-family="Times New Roman,serif" font-size="10.00">name = &quot;Sabine&quot;</text>
</g>
<!-- p13&#45;&#45;p18 -->
<g id="edge49" class="edge"><title>p13&#45;&#45;p18</title>
<path fill="none" stroke="black" d="M75,-278.198C75,-267.351 75,-253.962 75,-241.671"/>
<text text-anchor="middle" x="79.2262" y="-248.234" font-family="Times New Roman,serif" font-size="10.00">player</text>
<text text-anchor="middle" x="70.7738" y="-266.635" font-family="Times New Roman,serif" font-size="10.00">pawns</text>
</g>
<!-- f19 -->
<g id="node18" class="node"><title>f19</title>
<polygon fill="none" stroke="black" points="42,-110 42,-127 108,-127 108,-110 42,-110"/>
<text text-anchor="start" x="55" y="-116.5" font-family="Times New Roman,serif" font-size="10.00"> </text>
<text text-anchor="start" x="58" y="-116.5" font-family="Times New Roman,serif" font-size="10.00">f19 :Field</text>
<polygon fill="none" stroke="black" points="42,-76 42,-110 108,-110 108,-76 42,-76"/>
<text text-anchor="start" x="49" y="-98" font-family="Times New Roman,serif" font-size="10.00">color = &quot;red&quot;</text>
<text text-anchor="start" x="47.5" y="-84" font-family="Times New Roman,serif" font-size="10.00">kind = &quot;start&quot;</text>
</g>
<!-- p18&#45;&#45;f19 -->
<g id="edge51" class="edge"><title>p18&#45;&#45;f19</title>
<path fill="none" stroke="black" d="M75,-168.391C75,-156.351 75,-143.07 75,-131.641"/>
<text text-anchor="middle" x="79.2262" y="-138.204" font-family="Times New Roman,serif" font-size="10.00">start</text>
<text text-anchor="middle" x="70.7738" y="-156.828" font-family="Times New Roman,serif" font-size="10.00">starter</text>
</g>
</g>
</svg>
