<?xml version="1.0" encoding="UTF-8" standalone="no"?>
<!DOCTYPE svg PUBLIC "-//W3C//DTD SVG 1.1//EN"
 "http://www.w3.org/Graphics/SVG/1.1/DTD/svg11.dtd">
<!-- Generated by graphviz version 2.28.0 (20110507.0327)
 -->
<!-- Title: ObjectDiagram Pages: 1 -->
<svg width="1045pt" height="1660pt"
 viewBox="0.00 0.00 1045.00 1660.00" xmlns="http://www.w3.org/2000/svg" xmlns:xlink="http://www.w3.org/1999/xlink">
<g id="graph1" class="graph" transform="scale(1 1) rotate(0) translate(4 1656)">
<title>ObjectDiagram</title>
<polygon fill="white" stroke="white" points="-4,5 -4,-1656 1042,-1656 1042,5 -4,5"/>
<!-- p12 -->
<g id="node1" class="node"><title>p12</title>
<polygon fill="none" stroke="black" points="664,-1625 664,-1642 727,-1642 727,-1625 664,-1625"/>
<text text-anchor="start" x="667.5" y="-1631.5" font-family="Times New Roman,serif" font-size="10.00"> </text>
<text text-anchor="start" x="670.5" y="-1631.5" font-family="Times New Roman,serif" font-size="10.00">p12 :PawnPO</text>
</g>
<!-- p10 -->
<g id="node2" class="node"><title>p10</title>
<polygon fill="none" stroke="black" points="154,-780 154,-797 222,-797 222,-780 154,-780"/>
<text text-anchor="start" x="166" y="-786.5" font-family="Times New Roman,serif" font-size="10.00"> </text>
<text text-anchor="start" x="169" y="-786.5" font-family="Times New Roman,serif" font-size="10.00">p10 :Pawn</text>
<polygon fill="none" stroke="black" points="154,-732 154,-780 222,-780 222,-732 154,-732"/>
<text text-anchor="start" x="159.5" y="-768" font-family="Times New Roman,serif" font-size="10.00">color = &quot;blue&quot;</text>
<text text-anchor="start" x="178.5" y="-754" font-family="Times New Roman,serif" font-size="10.00">x = 0</text>
<text text-anchor="start" x="178" y="-740" font-family="Times New Roman,serif" font-size="10.00">y = 0</text>
</g>
<!-- p12&#45;&#45;p10 -->
<g id="edge42" class="edge"><title>p12&#45;&#45;p10</title>
<path fill="none" stroke="black" d="M655.642,-1632.87C508.62,-1631.33 0,-1616.25 0,-1481 0,-1481 0,-1481 0,-937 0,-858.686 90.3805,-806.763 145.809,-782.284"/>
<text text-anchor="middle" x="139.375" y="-787.439" font-family="Times New Roman,serif" font-size="10.00">currentMatch</text>
</g>
<!-- p13 -->
<g id="node11" class="node"><title>p13</title>
<polygon fill="none" stroke="black" points="566,-1558 566,-1575 673,-1575 673,-1558 566,-1558"/>
<text text-anchor="start" x="585.5" y="-1564.5" font-family="Times New Roman,serif" font-size="10.00"> </text>
<text text-anchor="start" x="588.5" y="-1564.5" font-family="Times New Roman,serif" font-size="10.00">p13 :PatternLink</text>
<polygon fill="none" stroke="black" points="566,-1538 566,-1558 673,-1558 673,-1538 566,-1538"/>
<text text-anchor="start" x="571.5" y="-1546" font-family="Times New Roman,serif" font-size="10.00">tgtRoleName = &quot;player&quot;</text>
</g>
<!-- p12&#45;&#45;p13 -->
<g id="edge44" class="edge"><title>p12&#45;&#45;p13</title>
<path fill="none" stroke="black" d="M677.754,-1615.98C666.806,-1605.18 652.541,-1591.1 640.809,-1579.52"/>
<text text-anchor="middle" x="650.228" y="-1580.38" font-family="Times New Roman,serif" font-size="10.00">outgoing</text>
<text text-anchor="middle" x="668.335" y="-1610.12" font-family="Times New Roman,serif" font-size="10.00">src</text>
</g>
<!-- p20 -->
<g id="node20" class="node"><title>p20</title>
<polygon fill="none" stroke="black" points="716,-929 716,-946 774,-946 774,-929 716,-929"/>
<text text-anchor="start" x="719.5" y="-935.5" font-family="Times New Roman,serif" font-size="10.00"> </text>
<text text-anchor="start" x="722.5" y="-935.5" font-family="Times New Roman,serif" font-size="10.00">p20 :Pattern</text>
</g>
<!-- p12&#45;&#45;p20 -->
<g id="edge46" class="edge"><title>p12&#45;&#45;p20</title>
<path fill="none" stroke="black" d="M720.388,-1615.8C732.259,-1606.51 745.599,-1594.07 754,-1580 777.214,-1541.13 778,-1526.27 778,-1481 778,-1481 778,-1481 778,-1234 778,-1127.84 756.632,-1001.51 748.285,-956.215"/>
<text text-anchor="middle" x="754.047" y="-961.888" font-family="Times New Roman,serif" font-size="10.00">pattern</text>
<text text-anchor="middle" x="724.825" y="-1604.33" font-family="Times New Roman,serif" font-size="10.00">elements</text>
</g>
<!-- p24 -->
<g id="node24" class="node"><title>p24</title>
<polygon fill="none" stroke="black" points="612,-862 612,-879 709,-879 709,-862 612,-862"/>
<text text-anchor="start" x="626.5" y="-868.5" font-family="Times New Roman,serif" font-size="10.00"> </text>
<text text-anchor="start" x="629.5" y="-868.5" font-family="Times New Roman,serif" font-size="10.00">p24 :PatternLink</text>
<polygon fill="none" stroke="black" points="612,-842 612,-862 709,-862 709,-842 612,-842"/>
<text text-anchor="start" x="617.5" y="-850" font-family="Times New Roman,serif" font-size="10.00">tgtRoleName = &quot;pos&quot;</text>
</g>
<!-- p12&#45;&#45;p24 -->
<g id="edge48" class="edge"><title>p12&#45;&#45;p24</title>
<path fill="none" stroke="black" d="M703.676,-1615.71C716.753,-1588.01 740,-1531.64 740,-1481 740,-1481 740,-1481 740,-1234 740,-1098.25 688.449,-940.731 668.111,-883.869"/>
<text text-anchor="middle" x="675.085" y="-888.536" font-family="Times New Roman,serif" font-size="10.00">outgoing</text>
<text text-anchor="middle" x="703.617" y="-1603.21" font-family="Times New Roman,serif" font-size="10.00">src</text>
</g>
<!-- p1 -->
<g id="node3" class="node"><title>p1</title>
<polygon fill="none" stroke="black" points="519,-574 519,-591 588,-591 588,-574 519,-574"/>
<text text-anchor="start" x="532" y="-580.5" font-family="Times New Roman,serif" font-size="10.00"> </text>
<text text-anchor="start" x="535" y="-580.5" font-family="Times New Roman,serif" font-size="10.00">p1 :Player</text>
<polygon fill="none" stroke="black" points="519,-512 519,-574 588,-574 588,-512 519,-512"/>
<text text-anchor="start" x="525" y="-562" font-family="Times New Roman,serif" font-size="10.00">color = &quot;blue&quot;</text>
<text text-anchor="start" x="524.5" y="-548" font-family="Times New Roman,serif" font-size="10.00">name = &quot;Tom&quot;</text>
<text text-anchor="start" x="544" y="-534" font-family="Times New Roman,serif" font-size="10.00">x = 0</text>
<text text-anchor="start" x="543.5" y="-520" font-family="Times New Roman,serif" font-size="10.00">y = 0</text>
</g>
<!-- p10&#45;&#45;p1 -->
<g id="edge40" class="edge"><title>p10&#45;&#45;p1</title>
<path fill="none" stroke="black" d="M214.576,-728.252C238.239,-698.697 275.328,-657.571 316,-632 377.869,-593.102 460.969,-571.184 510.548,-560.746"/>
<text text-anchor="middle" x="502.605" y="-564.321" font-family="Times New Roman,serif" font-size="10.00">player</text>
<text text-anchor="middle" x="217.029" y="-716.057" font-family="Times New Roman,serif" font-size="10.00">pawns</text>
</g>
<!-- f3 -->
<g id="node5" class="node"><title>f3</title>
<polygon fill="none" stroke="black" points="214,-450 214,-467 282,-467 282,-450 214,-450"/>
<text text-anchor="start" x="230.5" y="-456.5" font-family="Times New Roman,serif" font-size="10.00"> </text>
<text text-anchor="start" x="233.5" y="-456.5" font-family="Times New Roman,serif" font-size="10.00">f3 :Field</text>
<polygon fill="none" stroke="black" points="214,-388 214,-450 282,-450 282,-388 214,-388"/>
<text text-anchor="start" x="219.5" y="-438" font-family="Times New Roman,serif" font-size="10.00">color = &quot;blue&quot;</text>
<text text-anchor="start" x="220.5" y="-424" font-family="Times New Roman,serif" font-size="10.00">kind = &quot;start&quot;</text>
<text text-anchor="start" x="238.5" y="-410" font-family="Times New Roman,serif" font-size="10.00">x = 0</text>
<text text-anchor="start" x="238" y="-396" font-family="Times New Roman,serif" font-size="10.00">y = 0</text>
</g>
<!-- p10&#45;&#45;f3 -->
<g id="edge38" class="edge"><title>p10&#45;&#45;f3</title>
<path fill="none" stroke="black" d="M194.364,-728.466C205.478,-666.414 228.378,-538.558 240.341,-471.763"/>
<text text-anchor="middle" x="242.903" y="-478.929" font-family="Times New Roman,serif" font-size="10.00">pos</text>
<text text-anchor="middle" x="191.802" y="-716.3" font-family="Times New Roman,serif" font-size="10.00">pawns</text>
</g>
<!-- d2 -->
<g id="node4" class="node"><title>d2</title>
<polygon fill="none" stroke="black" points="929,-429 929,-446 977,-446 977,-429 929,-429"/>
<text text-anchor="start" x="935" y="-435.5" font-family="Times New Roman,serif" font-size="10.00"> </text>
<text text-anchor="start" x="938" y="-435.5" font-family="Times New Roman,serif" font-size="10.00">d2 :Dice</text>
<polygon fill="none" stroke="black" points="929,-409 929,-429 977,-429 977,-409 929,-409"/>
<text text-anchor="start" x="934.5" y="-417" font-family="Times New Roman,serif" font-size="10.00">value = 6</text>
</g>
<!-- p1&#45;&#45;d2 -->
<g id="edge84" class="edge"><title>p1&#45;&#45;d2</title>
<path fill="none" stroke="black" d="M595.428,-538.059C675.955,-513.499 849.292,-460.631 920.969,-438.769"/>
<text text-anchor="middle" x="913.533" y="-442.956" font-family="Times New Roman,serif" font-size="10.00">dice</text>
<text text-anchor="middle" x="602.864" y="-528.873" font-family="Times New Roman,serif" font-size="10.00">player</text>
</g>
<!-- p1&#45;&#45;f3 -->
<g id="edge88" class="edge"><title>p1&#45;&#45;f3</title>
<path fill="none" stroke="black" d="M510.591,-534.036C452.32,-510.728 348.13,-469.052 290.049,-445.82"/>
<text text-anchor="middle" x="300.033" y="-442.762" font-family="Times New Roman,serif" font-size="10.00">start</text>
<text text-anchor="middle" x="500.607" y="-532.094" font-family="Times New Roman,serif" font-size="10.00">player</text>
</g>
<!-- f11 -->
<g id="node10" class="node"><title>f11</title>
<polygon fill="none" stroke="black" points="649,-450 649,-467 717,-467 717,-450 649,-450"/>
<text text-anchor="start" x="663" y="-456.5" font-family="Times New Roman,serif" font-size="10.00"> </text>
<text text-anchor="start" x="666" y="-456.5" font-family="Times New Roman,serif" font-size="10.00">f11 :Field</text>
<polygon fill="none" stroke="black" points="649,-388 649,-450 717,-450 717,-388 649,-388"/>
<text text-anchor="start" x="654.5" y="-438" font-family="Times New Roman,serif" font-size="10.00">color = &quot;blue&quot;</text>
<text text-anchor="start" x="655.5" y="-424" font-family="Times New Roman,serif" font-size="10.00">kind = &quot;base&quot;</text>
<text text-anchor="start" x="673.5" y="-410" font-family="Times New Roman,serif" font-size="10.00">x = 0</text>
<text text-anchor="start" x="673" y="-396" font-family="Times New Roman,serif" font-size="10.00">y = 0</text>
</g>
<!-- p1&#45;&#45;f11 -->
<g id="edge86" class="edge"><title>p1&#45;&#45;f11</title>
<path fill="none" stroke="black" d="M595.567,-511.053C610.081,-497.432 626.295,-482.215 640.781,-468.62"/>
<text text-anchor="middle" x="637.065" y="-475.404" font-family="Times New Roman,serif" font-size="10.00">base</text>
<text text-anchor="middle" x="599.284" y="-499.269" font-family="Times New Roman,serif" font-size="10.00">baseowner</text>
</g>
<!-- f4 -->
<g id="node6" class="node"><title>f4</title>
<polygon fill="none" stroke="black" points="227,-326 227,-343 269,-343 269,-326 227,-326"/>
<text text-anchor="start" x="230.5" y="-332.5" font-family="Times New Roman,serif" font-size="10.00"> </text>
<text text-anchor="start" x="233.5" y="-332.5" font-family="Times New Roman,serif" font-size="10.00">f4 :Field</text>
<polygon fill="none" stroke="black" points="227,-292 227,-326 269,-326 269,-292 227,-292"/>
<text text-anchor="start" x="238.5" y="-314" font-family="Times New Roman,serif" font-size="10.00">x = 0</text>
<text text-anchor="start" x="238" y="-300" font-family="Times New Roman,serif" font-size="10.00">y = 0</text>
</g>
<!-- f3&#45;&#45;f4 -->
<g id="edge22" class="edge"><title>f3&#45;&#45;f4</title>
<path fill="none" stroke="black" d="M248,-384.316C248,-372.052 248,-358.973 248,-347.765"/>
<text text-anchor="middle" x="252.226" y="-354.328" font-family="Times New Roman,serif" font-size="10.00">next</text>
<text text-anchor="middle" x="243.774" y="-372.752" font-family="Times New Roman,serif" font-size="10.00">prev</text>
</g>
<!-- f5 -->
<g id="node7" class="node"><title>f5</title>
<polygon fill="none" stroke="black" points="227,-230 227,-247 269,-247 269,-230 227,-230"/>
<text text-anchor="start" x="230.5" y="-236.5" font-family="Times New Roman,serif" font-size="10.00"> </text>
<text text-anchor="start" x="233.5" y="-236.5" font-family="Times New Roman,serif" font-size="10.00">f5 :Field</text>
<polygon fill="none" stroke="black" points="227,-196 227,-230 269,-230 269,-196 227,-196"/>
<text text-anchor="start" x="238.5" y="-218" font-family="Times New Roman,serif" font-size="10.00">x = 0</text>
<text text-anchor="start" x="238" y="-204" font-family="Times New Roman,serif" font-size="10.00">y = 0</text>
</g>
<!-- f4&#45;&#45;f5 -->
<g id="edge24" class="edge"><title>f4&#45;&#45;f5</title>
<path fill="none" stroke="black" d="M248,-288.286C248,-276.624 248,-263.182 248,-251.538"/>
<text text-anchor="middle" x="252.226" y="-258.101" font-family="Times New Roman,serif" font-size="10.00">next</text>
<text text-anchor="middle" x="243.774" y="-276.723" font-family="Times New Roman,serif" font-size="10.00">prev</text>
</g>
<!-- f6 -->
<g id="node8" class="node"><title>f6</title>
<polygon fill="none" stroke="black" points="227,-134 227,-151 269,-151 269,-134 227,-134"/>
<text text-anchor="start" x="230.5" y="-140.5" font-family="Times New Roman,serif" font-size="10.00"> </text>
<text text-anchor="start" x="233.5" y="-140.5" font-family="Times New Roman,serif" font-size="10.00">f6 :Field</text>
<polygon fill="none" stroke="black" points="227,-100 227,-134 269,-134 269,-100 227,-100"/>
<text text-anchor="start" x="238.5" y="-122" font-family="Times New Roman,serif" font-size="10.00">x = 0</text>
<text text-anchor="start" x="238" y="-108" font-family="Times New Roman,serif" font-size="10.00">y = 0</text>
</g>
<!-- f5&#45;&#45;f6 -->
<g id="edge26" class="edge"><title>f5&#45;&#45;f6</title>
<path fill="none" stroke="black" d="M248,-192.286C248,-180.624 248,-167.182 248,-155.538"/>
<text text-anchor="middle" x="252.226" y="-162.101" font-family="Times New Roman,serif" font-size="10.00">next</text>
<text text-anchor="middle" x="243.774" y="-180.723" font-family="Times New Roman,serif" font-size="10.00">prev</text>
</g>
<!-- f7 -->
<g id="node9" class="node"><title>f7</title>
<polygon fill="none" stroke="black" points="227,-38 227,-55 269,-55 269,-38 227,-38"/>
<text text-anchor="start" x="230.5" y="-44.5" font-family="Times New Roman,serif" font-size="10.00"> </text>
<text text-anchor="start" x="233.5" y="-44.5" font-family="Times New Roman,serif" font-size="10.00">f7 :Field</text>
<polygon fill="none" stroke="black" points="227,-4 227,-38 269,-38 269,-4 227,-4"/>
<text text-anchor="start" x="238.5" y="-26" font-family="Times New Roman,serif" font-size="10.00">x = 0</text>
<text text-anchor="start" x="238" y="-12" font-family="Times New Roman,serif" font-size="10.00">y = 0</text>
</g>
<!-- f6&#45;&#45;f7 -->
<g id="edge28" class="edge"><title>f6&#45;&#45;f7</title>
<path fill="none" stroke="black" d="M248,-96.2861C248,-84.624 248,-71.1822 248,-59.538"/>
<text text-anchor="middle" x="252.226" y="-66.1011" font-family="Times New Roman,serif" font-size="10.00">next</text>
<text text-anchor="middle" x="243.774" y="-84.7231" font-family="Times New Roman,serif" font-size="10.00">prev</text>
</g>
<!-- p13&#45;&#45;p10 -->
<g id="edge50" class="edge"><title>p13&#45;&#45;p10</title>
<path fill="none" stroke="black" d="M557.647,-1552.95C408.298,-1543.85 38,-1510.54 38,-1404 38,-1404 38,-1404 38,-1234 38,-1065.49 127.278,-878.438 168.081,-801.748"/>
<text text-anchor="middle" x="167.668" y="-809.24" font-family="Times New Roman,serif" font-size="10.00">hostGraphSrcObject</text>
</g>
<!-- p14 -->
<g id="node12" class="node"><title>p14</title>
<polygon fill="none" stroke="black" points="555,-1471 555,-1488 621,-1488 621,-1471 555,-1471"/>
<text text-anchor="start" x="558.5" y="-1477.5" font-family="Times New Roman,serif" font-size="10.00"> </text>
<text text-anchor="start" x="561.5" y="-1477.5" font-family="Times New Roman,serif" font-size="10.00">p14 :PlayerPO</text>
</g>
<!-- p13&#45;&#45;p14 -->
<g id="edge52" class="edge"><title>p13&#45;&#45;p14</title>
<path fill="none" stroke="black" d="M610.034,-1534.31C605.313,-1522.89 599.602,-1509.07 595.178,-1498.37"/>
<text text-anchor="middle" x="602.545" y="-1502.63" font-family="Times New Roman,serif" font-size="10.00">tgt</text>
<text text-anchor="middle" x="602.666" y="-1525.05" font-family="Times New Roman,serif" font-size="10.00">incomming</text>
</g>
<!-- p13&#45;&#45;p20 -->
<g id="edge54" class="edge"><title>p13&#45;&#45;p20</title>
<path fill="none" stroke="black" d="M629.664,-1534.44C642.971,-1505.51 664,-1452.16 664,-1404 664,-1404 664,-1404 664,-1234 664,-1162.09 668.529,-1143.22 688,-1074 700.331,-1030.16 723.286,-981.626 735.979,-956.395"/>
<text text-anchor="middle" x="735.73" y="-963.892" font-family="Times New Roman,serif" font-size="10.00">pattern</text>
<text text-anchor="middle" x="629.505" y="-1521.94" font-family="Times New Roman,serif" font-size="10.00">elements</text>
</g>
<!-- p14&#45;&#45;p1 -->
<g id="edge60" class="edge"><title>p14&#45;&#45;p1</title>
<path fill="none" stroke="black" d="M546.966,-1475.71C425.471,-1464.84 76,-1425.05 76,-1327 76,-1327 76,-1327 76,-1234 76,-932.315 393.93,-669.325 510.669,-582.928"/>
<text text-anchor="middle" x="506.048" y="-589.296" font-family="Times New Roman,serif" font-size="10.00">currentMatch</text>
</g>
<!-- l15 -->
<g id="node13" class="node"><title>l15</title>
<polygon fill="none" stroke="black" points="313,-1404 313,-1421 420,-1421 420,-1404 313,-1404"/>
<text text-anchor="start" x="327" y="-1410.5" font-family="Times New Roman,serif" font-size="10.00"> </text>
<text text-anchor="start" x="330" y="-1410.5" font-family="Times New Roman,serif" font-size="10.00">l15 :LinkConstraint</text>
<polygon fill="none" stroke="black" points="313,-1384 313,-1404 420,-1404 420,-1384 313,-1384"/>
<text text-anchor="start" x="318.5" y="-1392" font-family="Times New Roman,serif" font-size="10.00">tgtRoleName = &quot;player&quot;</text>
</g>
<!-- p14&#45;&#45;l15 -->
<g id="edge56" class="edge"><title>p14&#45;&#45;l15</title>
<path fill="none" stroke="black" d="M546.764,-1465.07C513.284,-1453.76 465.565,-1437.64 427.562,-1424.8"/>
<text text-anchor="middle" x="437.501" y="-1421.19" font-family="Times New Roman,serif" font-size="10.00">incomming</text>
<text text-anchor="middle" x="536.825" y="-1463.67" font-family="Times New Roman,serif" font-size="10.00">tgt</text>
</g>
<!-- p19 -->
<g id="node19" class="node"><title>p19</title>
<polygon fill="none" stroke="black" points="376,-1016 376,-1033 476,-1033 476,-1016 376,-1016"/>
<text text-anchor="start" x="392" y="-1022.5" font-family="Times New Roman,serif" font-size="10.00"> </text>
<text text-anchor="start" x="395" y="-1022.5" font-family="Times New Roman,serif" font-size="10.00">p19 :PatternLink</text>
<polygon fill="none" stroke="black" points="376,-996 376,-1016 476,-1016 476,-996 376,-996"/>
<text text-anchor="start" x="381.5" y="-1004" font-family="Times New Roman,serif" font-size="10.00">tgtRoleName = &quot;start&quot;</text>
</g>
<!-- p14&#45;&#45;p19 -->
<g id="edge62" class="edge"><title>p14&#45;&#45;p19</title>
<path fill="none" stroke="black" d="M583.026,-1461.77C566.579,-1405.37 511.642,-1221.37 453,-1074 448.113,-1061.72 441.935,-1048.32 436.723,-1037.5"/>
<text text-anchor="middle" x="444.45" y="-1041.35" font-family="Times New Roman,serif" font-size="10.00">outgoing</text>
<text text-anchor="middle" x="576.415" y="-1451.77" font-family="Times New Roman,serif" font-size="10.00">src</text>
</g>
<!-- p14&#45;&#45;p20 -->
<g id="edge64" class="edge"><title>p14&#45;&#45;p20</title>
<path fill="none" stroke="black" d="M595.327,-1461.57C606.369,-1433.68 626,-1377.05 626,-1327 626,-1327 626,-1327 626,-1117 626,-1047.86 688.819,-985.223 723.174,-956.139"/>
<text text-anchor="middle" x="719.145" y="-962.792" font-family="Times New Roman,serif" font-size="10.00">pattern</text>
<text text-anchor="middle" x="594.641" y="-1449.09" font-family="Times New Roman,serif" font-size="10.00">elements</text>
</g>
<!-- p21 -->
<g id="node21" class="node"><title>p21</title>
<polygon fill="none" stroke="black" points="896,-862 896,-879 995,-879 995,-862 896,-862"/>
<text text-anchor="start" x="911.5" y="-868.5" font-family="Times New Roman,serif" font-size="10.00"> </text>
<text text-anchor="start" x="914.5" y="-868.5" font-family="Times New Roman,serif" font-size="10.00">p21 :PatternLink</text>
<polygon fill="none" stroke="black" points="896,-842 896,-862 995,-862 995,-842 896,-842"/>
<text text-anchor="start" x="901.5" y="-850" font-family="Times New Roman,serif" font-size="10.00">tgtRoleName = &quot;dice&quot;</text>
</g>
<!-- p14&#45;&#45;p21 -->
<g id="edge66" class="edge"><title>p14&#45;&#45;p21</title>
<path fill="none" stroke="black" d="M613.018,-1461.83C646.576,-1436.55 702,-1385.88 702,-1327 702,-1327 702,-1327 702,-1234 702,-1078.17 853.297,-936.647 917.125,-883.873"/>
<text text-anchor="middle" x="912.985" y="-890.476" font-family="Times New Roman,serif" font-size="10.00">outgoing</text>
<text text-anchor="middle" x="617.552" y="-1450.42" font-family="Times New Roman,serif" font-size="10.00">src</text>
</g>
<!-- l26 -->
<g id="node26" class="node"><title>l26</title>
<polygon fill="none" stroke="black" points="546,-663 546,-680 647,-680 647,-663 546,-663"/>
<text text-anchor="start" x="557" y="-669.5" font-family="Times New Roman,serif" font-size="10.00"> </text>
<text text-anchor="start" x="560" y="-669.5" font-family="Times New Roman,serif" font-size="10.00">l26 :LinkConstraint</text>
<polygon fill="none" stroke="black" points="546,-643 546,-663 647,-663 647,-643 546,-643"/>
<text text-anchor="start" x="551.5" y="-651" font-family="Times New Roman,serif" font-size="10.00">tgtRoleName = &quot;base&quot;</text>
</g>
<!-- p14&#45;&#45;l26 -->
<g id="edge58" class="edge"><title>p14&#45;&#45;l26</title>
<path fill="none" stroke="black" d="M588,-1461.68C588,-1433.46 588,-1375.82 588,-1327 588,-1327 588,-1327 588,-1117 588,-950.665 593.435,-750.104 595.345,-684.734"/>
<text text-anchor="middle" x="599.311" y="-691.414" font-family="Times New Roman,serif" font-size="10.00">outgoing</text>
<text text-anchor="middle" x="583.774" y="-1450.11" font-family="Times New Roman,serif" font-size="10.00">src</text>
</g>
<!-- p16 -->
<g id="node14" class="node"><title>p16</title>
<polygon fill="none" stroke="black" points="271,-1317 271,-1334 334,-1334 334,-1317 271,-1317"/>
<text text-anchor="start" x="274.5" y="-1323.5" font-family="Times New Roman,serif" font-size="10.00"> </text>
<text text-anchor="start" x="277.5" y="-1323.5" font-family="Times New Roman,serif" font-size="10.00">p16 :PawnPO</text>
</g>
<!-- l15&#45;&#45;p16 -->
<g id="edge32" class="edge"><title>l15&#45;&#45;p16</title>
<path fill="none" stroke="black" d="M347.489,-1380.31C337.742,-1368.89 325.953,-1355.07 316.819,-1344.37"/>
<text text-anchor="middle" x="325.916" y="-1346.02" font-family="Times New Roman,serif" font-size="10.00">src</text>
<text text-anchor="middle" x="338.391" y="-1373.66" font-family="Times New Roman,serif" font-size="10.00">outgoing</text>
</g>
<!-- p8 -->
<g id="node15" class="node"><title>p8</title>
<polygon fill="none" stroke="black" points="161,-1250 161,-1267 224,-1267 224,-1250 161,-1250"/>
<text text-anchor="start" x="172.5" y="-1256.5" font-family="Times New Roman,serif" font-size="10.00"> </text>
<text text-anchor="start" x="175.5" y="-1256.5" font-family="Times New Roman,serif" font-size="10.00">p8 :Pawn</text>
<polygon fill="none" stroke="black" points="161,-1202 161,-1250 224,-1250 224,-1202 161,-1202"/>
<text text-anchor="start" x="166.5" y="-1238" font-family="Times New Roman,serif" font-size="10.00">color = &quot;red&quot;</text>
<text text-anchor="start" x="183" y="-1224" font-family="Times New Roman,serif" font-size="10.00">x = 0</text>
<text text-anchor="start" x="182.5" y="-1210" font-family="Times New Roman,serif" font-size="10.00">y = 0</text>
</g>
<!-- l15&#45;&#45;p8 -->
<g id="edge34" class="edge"><title>l15&#45;&#45;p8</title>
<path fill="none" stroke="black" d="M308.39,-1380.38C289.208,-1371.23 268.742,-1359.13 253,-1344 231.882,-1323.71 215.986,-1294.5 205.724,-1271.57"/>
<text text-anchor="middle" x="213.353" y="-1275.53" font-family="Times New Roman,serif" font-size="10.00">hostGraphSrcObject</text>
</g>
<!-- n28 -->
<g id="node28" class="node"><title>n28</title>
<polygon fill="none" stroke="black" points="332,-852 332,-869 484,-869 484,-852 332,-852"/>
<text text-anchor="start" x="335.5" y="-858.5" font-family="Times New Roman,serif" font-size="10.00"> </text>
<text text-anchor="start" x="338.5" y="-858.5" font-family="Times New Roman,serif" font-size="10.00">n28 :NegativeApplicationCondition</text>
</g>
<!-- l15&#45;&#45;n28 -->
<g id="edge30" class="edge"><title>l15&#45;&#45;n28</title>
<path fill="none" stroke="black" d="M387.871,-1380.29C410.747,-1356.12 445.687,-1314.81 463,-1272 502.307,-1174.8 486.32,-1142.64 493,-1038 494.303,-1017.6 498.837,-1011.59 493,-992 479.527,-946.774 444.753,-902.632 424.097,-879.225"/>
<text text-anchor="middle" x="433.22" y="-880.822" font-family="Times New Roman,serif" font-size="10.00">pattern</text>
</g>
<!-- p16&#45;&#45;p10 -->
<g id="edge70" class="edge"><title>p16&#45;&#45;p10</title>
<path fill="none" stroke="black" d="M298.526,-1307.97C282.704,-1230.38 217.29,-909.622 195.271,-801.652"/>
<text text-anchor="middle" x="201.223" y="-807.187" font-family="Times New Roman,serif" font-size="10.00">candidates</text>
</g>
<!-- p16&#45;&#45;p8 -->
<g id="edge74" class="edge"><title>p16&#45;&#45;p8</title>
<path fill="none" stroke="black" d="M280.791,-1307.84C266.806,-1296.53 248.063,-1281.36 231.402,-1267.88"/>
<text text-anchor="middle" x="241.106" y="-1267.79" font-family="Times New Roman,serif" font-size="10.00">currentMatch</text>
</g>
<!-- p17 -->
<g id="node17" class="node"><title>p17</title>
<polygon fill="none" stroke="black" points="338,-1236 338,-1253 446,-1253 446,-1236 338,-1236"/>
<text text-anchor="start" x="358" y="-1242.5" font-family="Times New Roman,serif" font-size="10.00"> </text>
<text text-anchor="start" x="361" y="-1242.5" font-family="Times New Roman,serif" font-size="10.00">p17 :PatternLink</text>
<polygon fill="none" stroke="black" points="338,-1216 338,-1236 446,-1236 446,-1216 338,-1216"/>
<text text-anchor="start" x="343.5" y="-1224" font-family="Times New Roman,serif" font-size="10.00">tgtRoleName = &quot;pawns&quot;</text>
</g>
<!-- p16&#45;&#45;p17 -->
<g id="edge72" class="edge"><title>p16&#45;&#45;p17</title>
<path fill="none" stroke="black" d="M319.353,-1307.84C333.86,-1293.49 354.625,-1272.96 370.242,-1257.52"/>
<text text-anchor="middle" x="366.77" y="-1264.39" font-family="Times New Roman,serif" font-size="10.00">incomming</text>
<text text-anchor="middle" x="322.826" y="-1295.96" font-family="Times New Roman,serif" font-size="10.00">tgt</text>
</g>
<!-- p16&#45;&#45;n28 -->
<g id="edge68" class="edge"><title>p16&#45;&#45;n28</title>
<path fill="none" stroke="black" d="M301.37,-1307.84C299.917,-1250.1 300.541,-1058.75 365,-920 371.971,-904.994 383.186,-890.043 392.414,-879.079"/>
<text text-anchor="middle" x="389.885" y="-886.254" font-family="Times New Roman,serif" font-size="10.00">pattern</text>
</g>
<!-- p8&#45;&#45;f3 -->
<g id="edge114" class="edge"><title>p8&#45;&#45;f3</title>
<path fill="none" stroke="black" d="M155.454,-1198.43C146.522,-1187.62 138.081,-1175.11 133,-1162 69.3101,-997.663 112,-942.247 112,-766 112,-766 112,-766 112,-661 112,-585.832 165.791,-513.45 205.714,-470.08"/>
<text text-anchor="middle" x="202.848" y="-477.161" font-family="Times New Roman,serif" font-size="10.00">pos</text>
</g>
<!-- p9 -->
<g id="node16" class="node"><title>p9</title>
<polygon fill="none" stroke="black" points="150,-1140 150,-1157 228,-1157 228,-1140 150,-1140"/>
<text text-anchor="start" x="167.5" y="-1146.5" font-family="Times New Roman,serif" font-size="10.00"> </text>
<text text-anchor="start" x="170.5" y="-1146.5" font-family="Times New Roman,serif" font-size="10.00">p9 :Player</text>
<polygon fill="none" stroke="black" points="150,-1078 150,-1140 228,-1140 228,-1078 150,-1078"/>
<text text-anchor="start" x="163" y="-1128" font-family="Times New Roman,serif" font-size="10.00">color = &quot;red&quot;</text>
<text text-anchor="start" x="155.5" y="-1114" font-family="Times New Roman,serif" font-size="10.00">name = &quot;Sabine&quot;</text>
<text text-anchor="start" x="179.5" y="-1100" font-family="Times New Roman,serif" font-size="10.00">x = 0</text>
<text text-anchor="start" x="179" y="-1086" font-family="Times New Roman,serif" font-size="10.00">y = 0</text>
</g>
<!-- p8&#45;&#45;p9 -->
<g id="edge116" class="edge"><title>p8&#45;&#45;p9</title>
<path fill="none" stroke="black" d="M191.067,-1198.24C190.765,-1186.64 190.426,-1173.65 190.111,-1161.6"/>
<text text-anchor="middle" x="194.572" y="-1168.05" font-family="Times New Roman,serif" font-size="10.00">player</text>
<text text-anchor="middle" x="186.606" y="-1186.79" font-family="Times New Roman,serif" font-size="10.00">pawns</text>
</g>
<!-- f18 -->
<g id="node18" class="node"><title>f18</title>
<polygon fill="none" stroke="black" points="378,-1109 378,-1126 437,-1126 437,-1109 378,-1109"/>
<text text-anchor="start" x="381.5" y="-1115.5" font-family="Times New Roman,serif" font-size="10.00"> </text>
<text text-anchor="start" x="384.5" y="-1115.5" font-family="Times New Roman,serif" font-size="10.00">f18 :FieldPO</text>
</g>
<!-- p17&#45;&#45;f18 -->
<g id="edge76" class="edge"><title>p17&#45;&#45;f18</title>
<path fill="none" stroke="black" d="M394.821,-1212.37C397.707,-1190.25 402.131,-1156.33 404.777,-1136.04"/>
<text text-anchor="middle" x="407.796" y="-1143.08" font-family="Times New Roman,serif" font-size="10.00">src</text>
<text text-anchor="middle" x="391.803" y="-1200.34" font-family="Times New Roman,serif" font-size="10.00">outgoing</text>
</g>
<!-- p17&#45;&#45;n28 -->
<g id="edge78" class="edge"><title>p17&#45;&#45;n28</title>
<path fill="none" stroke="black" d="M379.602,-1212.42C372.335,-1198.52 363.848,-1179.78 360,-1162 344.017,-1088.15 345.456,-1066.33 359,-992 366.696,-949.763 387.379,-903.412 399.269,-879.088"/>
<text text-anchor="middle" x="399.155" y="-886.587" font-family="Times New Roman,serif" font-size="10.00">pattern</text>
</g>
<!-- f18&#45;&#45;f3 -->
<g id="edge10" class="edge"><title>f18&#45;&#45;f3</title>
<path fill="none" stroke="black" d="M394.718,-1099.85C384.06,-1084.32 368.836,-1060.5 359,-1038 271.824,-838.594 253.11,-573.6 249.095,-471.549"/>
<text text-anchor="middle" x="253.753" y="-477.899" font-family="Times New Roman,serif" font-size="10.00">currentMatch</text>
</g>
<!-- f18&#45;&#45;p19 -->
<g id="edge12" class="edge"><title>f18&#45;&#45;p19</title>
<path fill="none" stroke="black" d="M410.223,-1099.87C413.442,-1082.76 418.4,-1056.4 421.898,-1037.81"/>
<text text-anchor="middle" x="424.376" y="-1044.99" font-family="Times New Roman,serif" font-size="10.00">incomming</text>
<text text-anchor="middle" x="407.745" y="-1087.68" font-family="Times New Roman,serif" font-size="10.00">tgt</text>
</g>
<!-- f18&#45;&#45;p20 -->
<g id="edge14" class="edge"><title>f18&#45;&#45;p20</title>
<path fill="none" stroke="black" d="M431.784,-1099.99C469.563,-1074.52 544.321,-1025.82 612,-992 643.462,-976.279 680.778,-961.745 707.863,-951.888"/>
<text text-anchor="middle" x="700.815" y="-956.482" font-family="Times New Roman,serif" font-size="10.00">pattern</text>
<text text-anchor="middle" x="436.964" y="-1088.94" font-family="Times New Roman,serif" font-size="10.00">elements</text>
</g>
<!-- p19&#45;&#45;p1 -->
<g id="edge80" class="edge"><title>p19&#45;&#45;p1</title>
<path fill="none" stroke="black" d="M442.322,-992.344C460.042,-967.577 487.599,-925.125 501,-884 535.899,-776.902 504.892,-742.245 528,-632 530.508,-620.032 534.107,-607.303 537.796,-595.636"/>
<text text-anchor="middle" x="539.127" y="-603.047" font-family="Times New Roman,serif" font-size="10.00">hostGraphSrcObject</text>
</g>
<!-- p19&#45;&#45;p20 -->
<g id="edge82" class="edge"><title>p19&#45;&#45;p20</title>
<path fill="none" stroke="black" d="M484.139,-1000.33C549.193,-985.036 652.659,-960.71 707.7,-947.77"/>
<text text-anchor="middle" x="699.845" y="-951.458" font-family="Times New Roman,serif" font-size="10.00">pattern</text>
<text text-anchor="middle" x="491.994" y="-991.643" font-family="Times New Roman,serif" font-size="10.00">elements</text>
</g>
<!-- p20&#45;&#45;p21 -->
<g id="edge102" class="edge"><title>p20&#45;&#45;p21</title>
<path fill="none" stroke="black" d="M782.15,-923.069C811.747,-911.97 853.696,-896.239 887.606,-883.523"/>
<text text-anchor="middle" x="880.604" y="-888.162" font-family="Times New Roman,serif" font-size="10.00">elements</text>
<text text-anchor="middle" x="789.152" y="-913.429" font-family="Times New Roman,serif" font-size="10.00">pattern</text>
</g>
<!-- d22 -->
<g id="node22" class="node"><title>d22</title>
<polygon fill="none" stroke="black" points="970,-756 970,-773 1029,-773 1029,-756 970,-756"/>
<text text-anchor="start" x="973.5" y="-762.5" font-family="Times New Roman,serif" font-size="10.00"> </text>
<text text-anchor="start" x="976.5" y="-762.5" font-family="Times New Roman,serif" font-size="10.00">d22 :DicePO</text>
</g>
<!-- p20&#45;&#45;d22 -->
<g id="edge94" class="edge"><title>p20&#45;&#45;d22</title>
<path fill="none" stroke="black" d="M782.221,-935.209C848.445,-931.158 982.477,-918.766 1011,-884 1034.64,-855.185 1018.85,-808.129 1007.57,-783.03"/>
<text text-anchor="middle" x="1015.02" y="-787.209" font-family="Times New Roman,serif" font-size="10.00">elements</text>
<text text-anchor="middle" x="790.976" y="-927.876" font-family="Times New Roman,serif" font-size="10.00">pattern</text>
</g>
<!-- a23 -->
<g id="node23" class="node"><title>a23</title>
<polygon fill="none" stroke="black" points="900,-670 900,-687 1007,-687 1007,-670 900,-670"/>
<text text-anchor="start" x="903.5" y="-676.5" font-family="Times New Roman,serif" font-size="10.00"> </text>
<text text-anchor="start" x="906.5" y="-676.5" font-family="Times New Roman,serif" font-size="10.00">a23 :AttributeConstraint</text>
<polygon fill="none" stroke="black" points="900,-636 900,-670 1007,-670 1007,-636 900,-636"/>
<text text-anchor="start" x="915" y="-658" font-family="Times New Roman,serif" font-size="10.00">attrName = &quot;value&quot;</text>
<text text-anchor="start" x="929" y="-644" font-family="Times New Roman,serif" font-size="10.00">tgtValue = 6</text>
</g>
<!-- p20&#45;&#45;a23 -->
<g id="edge90" class="edge"><title>p20&#45;&#45;a23</title>
<path fill="none" stroke="black" d="M764.113,-919.896C774.857,-909.885 788.231,-896.742 799,-884 853.788,-819.173 908.298,-735.181 935.384,-691.785"/>
<text text-anchor="middle" x="934.134" y="-699.207" font-family="Times New Roman,serif" font-size="10.00">elements</text>
</g>
<!-- p20&#45;&#45;p24 -->
<g id="edge104" class="edge"><title>p20&#45;&#45;p24</title>
<path fill="none" stroke="black" d="M725.712,-919.981C713.467,-909.177 697.513,-895.1 684.391,-883.522"/>
<text text-anchor="middle" x="693.983" y="-883.849" font-family="Times New Roman,serif" font-size="10.00">elements</text>
<text text-anchor="middle" x="716.12" y="-914.654" font-family="Times New Roman,serif" font-size="10.00">pattern</text>
</g>
<!-- f25 -->
<g id="node25" class="node"><title>f25</title>
<polygon fill="none" stroke="black" points="726,-756 726,-773 785,-773 785,-756 726,-756"/>
<text text-anchor="start" x="729.5" y="-762.5" font-family="Times New Roman,serif" font-size="10.00"> </text>
<text text-anchor="start" x="732.5" y="-762.5" font-family="Times New Roman,serif" font-size="10.00">f25 :FieldPO</text>
</g>
<!-- p20&#45;&#45;f25 -->
<g id="edge96" class="edge"><title>p20&#45;&#45;f25</title>
<path fill="none" stroke="black" d="M750.824,-919.56C753.931,-909.33 757.431,-896.08 759,-884 763.619,-848.427 760.054,-806.348 757.335,-783.281"/>
<text text-anchor="middle" x="762.539" y="-789.32" font-family="Times New Roman,serif" font-size="10.00">elements</text>
<text text-anchor="middle" x="749.366" y="-907.167" font-family="Times New Roman,serif" font-size="10.00">pattern</text>
</g>
<!-- p20&#45;&#45;l26 -->
<g id="edge98" class="edge"><title>p20&#45;&#45;l26</title>
<path fill="none" stroke="black" d="M743.802,-919.856C741.879,-899.558 737.01,-865.091 725,-838 697.772,-776.58 646.041,-715.967 617.046,-684.732"/>
<text text-anchor="middle" x="626.278" y="-686.076" font-family="Times New Roman,serif" font-size="10.00">elements</text>
<text text-anchor="middle" x="738.668" y="-908.774" font-family="Times New Roman,serif" font-size="10.00">pattern</text>
</g>
<!-- a27 -->
<g id="node27" class="node"><title>a27</title>
<polygon fill="none" stroke="black" points="720,-670 720,-687 827,-687 827,-670 720,-670"/>
<text text-anchor="start" x="723.5" y="-676.5" font-family="Times New Roman,serif" font-size="10.00"> </text>
<text text-anchor="start" x="726.5" y="-676.5" font-family="Times New Roman,serif" font-size="10.00">a27 :AttributeConstraint</text>
<polygon fill="none" stroke="black" points="720,-636 720,-670 827,-670 827,-636 720,-636"/>
<text text-anchor="start" x="737" y="-658" font-family="Times New Roman,serif" font-size="10.00">attrName = &quot;kind&quot;</text>
<text text-anchor="start" x="737.5" y="-644" font-family="Times New Roman,serif" font-size="10.00">tgtValue = &quot;base&quot;</text>
</g>
<!-- p20&#45;&#45;a27 -->
<g id="edge92" class="edge"><title>p20&#45;&#45;a27</title>
<path fill="none" stroke="black" d="M755.944,-919.805C762.092,-909.656 769.592,-896.406 775,-884 790.277,-848.952 795.153,-839.783 801,-802 806.029,-769.498 807.643,-760.211 801,-728 798.444,-715.605 793.412,-702.662 788.31,-691.618"/>
<text text-anchor="middle" x="795.9" y="-695.629" font-family="Times New Roman,serif" font-size="10.00">elements</text>
</g>
<!-- p20&#45;&#45;n28 -->
<g id="edge100" class="edge"><title>p20&#45;&#45;n28</title>
<path fill="none" stroke="black" d="M707.971,-928.759C654.453,-916.849 554.264,-894.551 484.466,-879.018"/>
<text text-anchor="middle" x="494.231" y="-874.361" font-family="Times New Roman,serif" font-size="10.00">elements</text>
</g>
<!-- p21&#45;&#45;p1 -->
<g id="edge108" class="edge"><title>p21&#45;&#45;p1</title>
<path fill="none" stroke="black" d="M937.994,-838.41C920.982,-787.219 876.435,-660.625 843,-632 771.55,-570.829 656.946,-556.634 595.38,-553.59"/>
<text text-anchor="middle" x="604.695" y="-547.454" font-family="Times New Roman,serif" font-size="10.00">hostGraphSrcObject</text>
</g>
<!-- p21&#45;&#45;d22 -->
<g id="edge106" class="edge"><title>p21&#45;&#45;d22</title>
<path fill="none" stroke="black" d="M957.524,-838.198C967.121,-821.494 980.18,-798.76 989.064,-783.296"/>
<text text-anchor="middle" x="988.214" y="-790.76" font-family="Times New Roman,serif" font-size="10.00">tgt</text>
<text text-anchor="middle" x="958.374" y="-825.734" font-family="Times New Roman,serif" font-size="10.00">incomming</text>
</g>
<!-- d22&#45;&#45;d2 -->
<g id="edge8" class="edge"><title>d22&#45;&#45;d2</title>
<path fill="none" stroke="black" d="M1006.43,-746.936C1012.24,-732.59 1019.86,-711.379 1023,-692 1027.27,-665.678 1027.41,-658.3 1023,-632 1011.51,-563.43 979.61,-487.029 963.136,-450.6"/>
<text text-anchor="middle" x="970.679" y="-454.666" font-family="Times New Roman,serif" font-size="10.00">currentMatch</text>
</g>
<!-- d22&#45;&#45;a23 -->
<g id="edge6" class="edge"><title>d22&#45;&#45;a23</title>
<path fill="none" stroke="black" d="M991.197,-746.867C984.327,-731.783 974.184,-709.512 966.076,-691.71"/>
<text text-anchor="middle" x="973.679" y="-695.707" font-family="Times New Roman,serif" font-size="10.00">attrConstraints</text>
<text text-anchor="middle" x="983.594" y="-737.87" font-family="Times New Roman,serif" font-size="10.00">src</text>
</g>
<!-- a23&#45;&#45;d2 -->
<g id="edge2" class="edge"><title>a23&#45;&#45;d2</title>
<path fill="none" stroke="black" d="M953,-632.086C953,-584.956 953,-492.629 953,-450.673"/>
<text text-anchor="middle" x="957.226" y="-457.236" font-family="Times New Roman,serif" font-size="10.00">hostGraphSrcObject</text>
</g>
<!-- p24&#45;&#45;p10 -->
<g id="edge112" class="edge"><title>p24&#45;&#45;p10</title>
<path fill="none" stroke="black" d="M603.535,-848.755C507.736,-829.676 315.484,-791.389 230.297,-774.424"/>
<text text-anchor="middle" x="240.011" y="-769.549" font-family="Times New Roman,serif" font-size="10.00">hostGraphSrcObject</text>
</g>
<!-- p24&#45;&#45;f25 -->
<g id="edge110" class="edge"><title>p24&#45;&#45;f25</title>
<path fill="none" stroke="black" d="M682.034,-838.198C698.916,-821.494 721.892,-798.76 737.52,-783.296"/>
<text text-anchor="middle" x="734.05" y="-790.174" font-family="Times New Roman,serif" font-size="10.00">tgt</text>
<text text-anchor="middle" x="685.504" y="-826.32" font-family="Times New Roman,serif" font-size="10.00">incomming</text>
</g>
<!-- f25&#45;&#45;f11 -->
<g id="edge18" class="edge"><title>f25&#45;&#45;f11</title>
<path fill="none" stroke="black" d="M737.884,-746.756C725.537,-733.13 709.734,-712.97 702,-692 674.754,-618.125 675.543,-524.797 678.994,-471.504"/>
<text text-anchor="middle" x="682.723" y="-478.283" font-family="Times New Roman,serif" font-size="10.00">currentMatch</text>
</g>
<!-- f25&#45;&#45;l26 -->
<g id="edge20" class="edge"><title>f25&#45;&#45;l26</title>
<path fill="none" stroke="black" d="M730.865,-746.848C722.159,-740.779 712.21,-733.978 703,-728 680.028,-713.09 653.749,-697.111 632.982,-684.727"/>
<text text-anchor="middle" x="642.93" y="-683.25" font-family="Times New Roman,serif" font-size="10.00">incomming</text>
<text text-anchor="middle" x="721.012" y="-742.642" font-family="Times New Roman,serif" font-size="10.00">tgt</text>
</g>
<!-- f25&#45;&#45;a27 -->
<g id="edge16" class="edge"><title>f25&#45;&#45;a27</title>
<path fill="none" stroke="black" d="M758.053,-746.867C760.742,-731.783 764.711,-709.512 767.883,-691.71"/>
<text text-anchor="middle" x="770.454" y="-698.874" font-family="Times New Roman,serif" font-size="10.00">attrConstraints</text>
<text text-anchor="middle" x="755.483" y="-734.703" font-family="Times New Roman,serif" font-size="10.00">src</text>
</g>
<!-- l26&#45;&#45;p1 -->
<g id="edge36" class="edge"><title>l26&#45;&#45;p1</title>
<path fill="none" stroke="black" d="M587.402,-639.404C582.402,-626.847 575.925,-610.579 569.942,-595.551"/>
<text text-anchor="middle" x="577.221" y="-599.908" font-family="Times New Roman,serif" font-size="10.00">hostGraphSrcObject</text>
</g>
<!-- a27&#45;&#45;f11 -->
<g id="edge4" class="edge"><title>a27&#45;&#45;f11</title>
<path fill="none" stroke="black" d="M761.783,-632.086C746.139,-591.759 717.657,-518.339 699.565,-471.7"/>
<text text-anchor="middle" x="706.783" y="-476.121" font-family="Times New Roman,serif" font-size="10.00">hostGraphSrcObject</text>
</g>
</g>
</svg>
