<?xml version="1.0" encoding="UTF-8" standalone="no"?>
<!DOCTYPE svg PUBLIC "-//W3C//DTD SVG 1.1//EN"
 "http://www.w3.org/Graphics/SVG/1.1/DTD/svg11.dtd">
<!-- Generated by graphviz version 2.28.0 (20110507.0327)
 -->
<!-- Title: ObjectDiagram Pages: 1 -->
<svg width="442pt" height="736pt"
 viewBox="0.00 0.00 442.49 736.00" xmlns="http://www.w3.org/2000/svg" xmlns:xlink="http://www.w3.org/1999/xlink">
<g id="graph1" class="graph" transform="scale(1 1) rotate(0) translate(4 732)">
<title>ObjectDiagram</title>
<polygon fill="white" stroke="white" points="-4,5 -4,-732 439.487,-732 439.487,5 -4,5"/>
<g id="graph2" class="cluster"><title>cluster_n11</title>
<polygon fill="none" stroke="grey" points="214,-359 214,-468 329,-468 329,-359 214,-359"/>
<image xlink:href="../../SDMLib/doc/forbiddensign.svg" width="30px" height="30px" preserveAspectRatio="xMinYMin meet" x="227" y="-459"/>
<text text-anchor="start" x="263.5" y="-440.8" font-family="Times New Roman,serif" font-size="14.00">NAC n11</text>
</g>
<!-- p1 -->
<g id="node1" class="node"><title>p1</title>
<polygon fill="deepskyblue" stroke="deepskyblue" points="144.5,-672.5 144.5,-723.5 195.5,-723.5 195.5,-672.5 144.5,-672.5"/>
<text text-anchor="start" x="166" y="-713.5" font-family="Times New Roman,serif" font-size="10.00">«bound»</text>
<polygon fill="none" stroke="black" points="145,-692 145,-708 196,-708 196,-692 145,-692"/>
<text text-anchor="start" x="148.5" y="-698" font-family="Times New Roman,serif" font-size="10.00"> </text>
<text text-anchor="start" x="151.5" y="-698" font-family="Times New Roman,serif" font-size="10.00"> p1 :PawnPO </text>
<polygon fill="none" stroke="black" points="145,-672 145,-692 196,-692 196,-672 145,-672"/>
<text text-anchor="start" x="168" y="-680" font-family="Times New Roman,serif" font-size="10.00"> &#160;</text>
</g>
<!-- p3 -->
<g id="node2" class="node"><title>p3</title>
<polygon fill="deepskyblue" stroke="deepskyblue" points="139,-590.5 139,-627.5 201,-627.5 201,-590.5 139,-590.5"/>
<polygon fill="none" stroke="black" points="139,-610 139,-627 201,-627 201,-610 139,-610"/>
<text text-anchor="start" x="142.5" y="-616.5" font-family="Times New Roman,serif" font-size="10.00"> </text>
<text text-anchor="start" x="145.5" y="-616.5" font-family="Times New Roman,serif" font-size="10.00"> p3 :PlayerPO </text>
<polygon fill="none" stroke="black" points="139,-590 139,-610 201,-610 201,-590 139,-590"/>
<text text-anchor="start" x="167.5" y="-598" font-family="Times New Roman,serif" font-size="10.00"> &#160;</text>
</g>
<!-- p1&#45;&#45;p3 -->
<g id="edge15" class="edge"><title>p1&#45;&#45;p3</title>
<path fill="none" stroke="black" d="M170,-668.03C170,-656.167 170,-642.675 170,-631.687"/>
<text text-anchor="middle" x="174.226" y="-638.25" font-family="Times New Roman,serif" font-size="10.00">player</text>
</g>
<!-- f7 -->
<g id="node4" class="node"><title>f7</title>
<polygon fill="deepskyblue" stroke="deepskyblue" points="8,-494.5 8,-531.5 74,-531.5 74,-494.5 8,-494.5"/>
<polygon fill="none" stroke="black" points="8,-514 8,-531 74,-531 74,-514 8,-514"/>
<text text-anchor="start" x="17" y="-520.5" font-family="Times New Roman,serif" font-size="10.00"> </text>
<text text-anchor="start" x="20" y="-520.5" font-family="Times New Roman,serif" font-size="10.00"> f7 :FieldPO </text>
<polygon fill="none" stroke="black" points="8,-494 8,-514 74,-514 74,-494 8,-494"/>
<text text-anchor="start" x="13.5" y="-502" font-family="Times New Roman,serif" font-size="10.00"> kind == &quot;base&quot; </text>
</g>
<!-- p1&#45;&#45;f7 -->
<g id="edge29" class="edge"><title>p1&#45;&#45;f7</title>
<path fill="none" stroke="red" d="M140.14,-668.358C131.155,-657.089 121.544,-643.998 113,-632 89.3613,-598.806 62.7672,-559.714 49.0719,-535.904"/>
<text text-anchor="middle" x="57.3213" y="-539.057" font-family="Times New Roman,serif" font-size="10.00" fill="red">pos</text>
</g>
<!-- p1&#45;&#45;f7 -->
<g id="edge19" class="edge"><title>p1&#45;&#45;f7</title>
<path fill="none" stroke="black" d="M156.898,-668.358C149.155,-657.089 139.544,-643.998 131,-632 107.361,-598.806 80.7672,-559.714 62.3395,-535.904"/>
<text text-anchor="middle" x="71.1886" y="-538.062" font-family="Times New Roman,serif" font-size="10.00">pos</text>
</g>
<!-- f9 -->
<g id="node5" class="node"><title>f9</title>
<polygon fill="deepskyblue" stroke="deepskyblue" points="352.5,-494.5 352.5,-531.5 407.5,-531.5 407.5,-494.5 352.5,-494.5"/>
<polygon fill="none" stroke="black" points="353,-514 353,-531 408,-531 408,-514 353,-514"/>
<text text-anchor="start" x="356.5" y="-520.5" font-family="Times New Roman,serif" font-size="10.00"> </text>
<text text-anchor="start" x="359.5" y="-520.5" font-family="Times New Roman,serif" font-size="10.00"> f9 :FieldPO </text>
<polygon fill="none" stroke="black" points="353,-494 353,-514 408,-514 408,-494 353,-494"/>
<text text-anchor="start" x="378" y="-502" font-family="Times New Roman,serif" font-size="10.00"> &#160;</text>
</g>
<!-- p1&#45;&#45;f9 -->
<g id="edge31" class="edge"><title>p1&#45;&#45;f9</title>
<path fill="none" stroke="green" d="M191.062,-668.371C213.854,-637.629 248.02,-592.317 256,-586 286.253,-562.051 302.129,-570.206 335,-550 341.819,-545.809 348.77,-540.721 355.106,-535.707"/>
<text text-anchor="middle" x="350.585" y="-542.127" font-family="Times New Roman,serif" font-size="10.00" fill="green">pos</text>
</g>
<!-- p2 -->
<g id="node8" class="node"><title>p2</title>
<polygon fill="none" stroke="black" points="273,-610 273,-627 341,-627 341,-610 273,-610"/>
<text text-anchor="start" x="287" y="-616.5" font-family="Times New Roman,serif" font-size="10.00"> </text>
<text text-anchor="start" x="290" y="-616.5" font-family="Times New Roman,serif" font-size="10.00">p2 :Pawn</text>
<polygon fill="none" stroke="black" points="273,-590 273,-610 341,-610 341,-590 273,-590"/>
<text text-anchor="start" x="278.5" y="-598" font-family="Times New Roman,serif" font-size="10.00">color = &quot;blue&quot;</text>
</g>
<!-- p1&#45;&#45;p2 -->
<g id="edge3" class="edge"><title>p1&#45;&#45;p2</title>
<path fill="none" stroke="black" stroke-dasharray="1,5" d="M203.514,-675.717C224.585,-662.336 251.695,-645.121 272.88,-631.667"/>
<text text-anchor="middle" x="267.495" y="-637.593" font-family="Times New Roman,serif" font-size="10.00">match</text>
</g>
<!-- d5 -->
<g id="node3" class="node"><title>d5</title>
<polygon fill="deepskyblue" stroke="deepskyblue" points="108.5,-494.5 108.5,-531.5 163.5,-531.5 163.5,-494.5 108.5,-494.5"/>
<polygon fill="none" stroke="black" points="109,-514 109,-531 164,-531 164,-514 109,-514"/>
<text text-anchor="start" x="112.5" y="-520.5" font-family="Times New Roman,serif" font-size="10.00"> </text>
<text text-anchor="start" x="115.5" y="-520.5" font-family="Times New Roman,serif" font-size="10.00"> d5 :DicePO </text>
<polygon fill="none" stroke="black" points="109,-494 109,-514 164,-514 164,-494 109,-494"/>
<text text-anchor="start" x="116" y="-502" font-family="Times New Roman,serif" font-size="10.00"> value == 6 </text>
</g>
<!-- p3&#45;&#45;d5 -->
<g id="edge17" class="edge"><title>p3&#45;&#45;d5</title>
<path fill="none" stroke="black" d="M162.114,-586.198C156.621,-571.012 149.326,-550.844 143.843,-535.684"/>
<text text-anchor="middle" x="150.9" y="-540.269" font-family="Times New Roman,serif" font-size="10.00">dice</text>
</g>
<!-- p3&#45;&#45;f7 -->
<g id="edge21" class="edge"><title>p3&#45;&#45;f7</title>
<path fill="none" stroke="black" d="M140.405,-586.435C119.577,-571.258 91.8003,-551.017 70.9042,-535.791"/>
<text text-anchor="middle" x="80.7178" y="-535.212" font-family="Times New Roman,serif" font-size="10.00">base</text>
</g>
<!-- p3&#45;&#45;f9 -->
<g id="edge23" class="edge"><title>p3&#45;&#45;f9</title>
<path fill="none" stroke="black" d="M209.22,-591.298C213.843,-589.454 218.512,-587.65 223,-586 272.076,-567.962 288.937,-574.739 335,-550 342.404,-546.024 349.794,-540.781 356.382,-535.531"/>
<text text-anchor="middle" x="351.873" y="-541.956" font-family="Times New Roman,serif" font-size="10.00">start</text>
</g>
<!-- p4 -->
<g id="node9" class="node"><title>p4</title>
<polygon fill="none" stroke="black" points="236,-528 236,-545 318,-545 318,-528 236,-528"/>
<text text-anchor="start" x="255.5" y="-534.5" font-family="Times New Roman,serif" font-size="10.00"> </text>
<text text-anchor="start" x="258.5" y="-534.5" font-family="Times New Roman,serif" font-size="10.00">p4 :Player</text>
<polygon fill="none" stroke="black" points="236,-480 236,-528 318,-528 318,-480 236,-480"/>
<text text-anchor="start" x="248.5" y="-516" font-family="Times New Roman,serif" font-size="10.00">color = &quot;blue&quot;</text>
<text text-anchor="start" x="241.5" y="-502" font-family="Times New Roman,serif" font-size="10.00">enumColor = blue</text>
<text text-anchor="start" x="248" y="-488" font-family="Times New Roman,serif" font-size="10.00">name = &quot;Tom&quot;</text>
</g>
<!-- p3&#45;&#45;p4 -->
<g id="edge5" class="edge"><title>p3&#45;&#45;p4</title>
<path fill="none" stroke="black" stroke-dasharray="1,5" d="M194.548,-586.435C206.888,-575.594 222.168,-562.17 236.209,-549.835"/>
<text text-anchor="middle" x="232.19" y="-556.491" font-family="Times New Roman,serif" font-size="10.00">match</text>
</g>
<!-- d6 -->
<g id="node10" class="node"><title>d6</title>
<polygon fill="none" stroke="black" points="131,-391 131,-408 179,-408 179,-391 131,-391"/>
<text text-anchor="start" x="137" y="-397.5" font-family="Times New Roman,serif" font-size="10.00"> </text>
<text text-anchor="start" x="140" y="-397.5" font-family="Times New Roman,serif" font-size="10.00">d6 :Dice</text>
<polygon fill="none" stroke="black" points="131,-371 131,-391 179,-391 179,-371 131,-371"/>
<text text-anchor="start" x="136.5" y="-379" font-family="Times New Roman,serif" font-size="10.00">value = 6</text>
</g>
<!-- d5&#45;&#45;d6 -->
<g id="edge7" class="edge"><title>d5&#45;&#45;d6</title>
<path fill="none" stroke="black" stroke-dasharray="1,5" d="M139.397,-490.368C142.834,-468.479 148.119,-434.82 151.569,-412.853"/>
<text text-anchor="middle" x="154.338" y="-419.962" font-family="Times New Roman,serif" font-size="10.00">match</text>
</g>
<!-- f8 -->
<g id="node19" class="node"><title>f8</title>
<polygon fill="none" stroke="black" points="8,-398 8,-415 76,-415 76,-398 8,-398"/>
<text text-anchor="start" x="24.5" y="-404.5" font-family="Times New Roman,serif" font-size="10.00"> </text>
<text text-anchor="start" x="27.5" y="-404.5" font-family="Times New Roman,serif" font-size="10.00">f8 :Field</text>
<polygon fill="none" stroke="black" points="8,-364 8,-398 76,-398 76,-364 8,-364"/>
<text text-anchor="start" x="13.5" y="-386" font-family="Times New Roman,serif" font-size="10.00">color = &quot;blue&quot;</text>
<text text-anchor="start" x="14.5" y="-372" font-family="Times New Roman,serif" font-size="10.00">kind = &quot;base&quot;</text>
</g>
<!-- f7&#45;&#45;f8 -->
<g id="edge9" class="edge"><title>f7&#45;&#45;f8</title>
<path fill="none" stroke="black" stroke-dasharray="1,5" d="M41.1788,-490.368C41.3417,-470.654 41.5835,-441.394 41.7626,-419.726"/>
<text text-anchor="middle" x="45.9137" y="-426.323" font-family="Times New Roman,serif" font-size="10.00">match</text>
</g>
<!-- p12 -->
<g id="node7" class="node"><title>p12</title>
<polygon fill="deepskyblue" stroke="deepskyblue" points="248.5,-371.5 248.5,-408.5 311.5,-408.5 311.5,-371.5 248.5,-371.5"/>
<polygon fill="none" stroke="black" points="249,-391 249,-408 312,-408 312,-391 249,-391"/>
<text text-anchor="start" x="252.5" y="-397.5" font-family="Times New Roman,serif" font-size="10.00"> </text>
<text text-anchor="start" x="255.5" y="-397.5" font-family="Times New Roman,serif" font-size="10.00"> p12 :PawnPO </text>
<polygon fill="none" stroke="black" points="249,-371 249,-391 312,-391 312,-371 249,-371"/>
<text text-anchor="start" x="278" y="-379" font-family="Times New Roman,serif" font-size="10.00"> &#160;</text>
</g>
<!-- f9&#45;&#45;p12 -->
<g id="edge25" class="edge"><title>f9&#45;&#45;p12</title>
<path fill="none" stroke="black" d="M353.647,-490.291C347.597,-485.484 341.138,-480.488 335,-476 329.826,-472.217 327.351,-472.707 323,-468 307.931,-451.696 296.137,-429.158 288.743,-412.679"/>
<text text-anchor="middle" x="296.367" y="-416.651" font-family="Times New Roman,serif" font-size="10.00">pawns</text>
</g>
<!-- f10 -->
<g id="node11" class="node"><title>f10</title>
<polygon fill="none" stroke="black" points="346,-398 346,-415 414,-415 414,-398 346,-398"/>
<text text-anchor="start" x="360" y="-404.5" font-family="Times New Roman,serif" font-size="10.00"> </text>
<text text-anchor="start" x="363" y="-404.5" font-family="Times New Roman,serif" font-size="10.00">f10 :Field</text>
<polygon fill="none" stroke="black" points="346,-364 346,-398 414,-398 414,-364 346,-364"/>
<text text-anchor="start" x="351.5" y="-386" font-family="Times New Roman,serif" font-size="10.00">color = &quot;blue&quot;</text>
<text text-anchor="start" x="352.5" y="-372" font-family="Times New Roman,serif" font-size="10.00">kind = &quot;start&quot;</text>
</g>
<!-- f9&#45;&#45;f10 -->
<g id="edge11" class="edge"><title>f9&#45;&#45;f10</title>
<path fill="none" stroke="black" stroke-dasharray="1,5" d="M380,-490.368C380,-470.654 380,-441.394 380,-419.726"/>
<text text-anchor="middle" x="384.226" y="-426.289" font-family="Times New Roman,serif" font-size="10.00">match</text>
</g>
<!-- p12&#45;&#45;p3 -->
<g id="edge27" class="edge"><title>p12&#45;&#45;p3</title>
<path fill="none" stroke="black" d="M271.905,-412.638C264.666,-429.534 252.626,-452.643 236,-468 229.866,-473.666 224.65,-469.852 219,-476 190.054,-507.498 177.785,-557.616 172.919,-586.178"/>
<text text-anchor="middle" x="170.406" y="-573.999" font-family="Times New Roman,serif" font-size="10.00">player</text>
</g>
<!-- p13 -->
<g id="node16" class="node"><title>p13</title>
<polygon fill="none" stroke="black" points="251,-302 251,-319 314,-319 314,-302 251,-302"/>
<text text-anchor="start" x="260.5" y="-308.5" font-family="Times New Roman,serif" font-size="10.00"> </text>
<text text-anchor="start" x="263.5" y="-308.5" font-family="Times New Roman,serif" font-size="10.00">p13 :Pawn</text>
<polygon fill="none" stroke="black" points="251,-282 251,-302 314,-302 314,-282 251,-282"/>
<text text-anchor="start" x="256.5" y="-290" font-family="Times New Roman,serif" font-size="10.00">color = &quot;red&quot;</text>
</g>
<!-- p12&#45;&#45;p13 -->
<g id="edge13" class="edge"><title>p12&#45;&#45;p13</title>
<path fill="none" stroke="black" stroke-dasharray="1,5" d="M280.494,-367.494C280.802,-354.11 281.196,-336.955 281.504,-323.56"/>
<text text-anchor="middle" x="285.521" y="-330.218" font-family="Times New Roman,serif" font-size="10.00">match</text>
</g>
<!-- p2&#45;&#45;p4 -->
<g id="edge33" class="edge"><title>p2&#45;&#45;p4</title>
<path fill="none" stroke="black" d="M300.042,-586.198C296.58,-575.351 292.307,-561.962 288.384,-549.671"/>
<text text-anchor="middle" x="295.166" y="-554.52" font-family="Times New Roman,serif" font-size="10.00">player</text>
<text text-anchor="middle" x="293.26" y="-576.349" font-family="Times New Roman,serif" font-size="10.00">pawns</text>
</g>
<!-- p2&#45;&#45;f10 -->
<g id="edge35" class="edge"><title>p2&#45;&#45;f10</title>
<path fill="none" stroke="black" d="M349.017,-599.075C375.505,-591.04 407.685,-576.297 424,-550 449.443,-508.99 422.33,-453.082 400.824,-419.655"/>
<text text-anchor="middle" x="409.173" y="-422.659" font-family="Times New Roman,serif" font-size="10.00">pos</text>
<text text-anchor="middle" x="356.341" y="-589.766" font-family="Times New Roman,serif" font-size="10.00">pawns</text>
</g>
<!-- p4&#45;&#45;d6 -->
<g id="edge37" class="edge"><title>p4&#45;&#45;d6</title>
<path fill="none" stroke="black" d="M227.803,-482.776C221.529,-478.178 215.417,-473.209 210,-468 192.83,-451.489 177.465,-428.979 167.369,-412.563"/>
<text text-anchor="middle" x="175.756" y="-415.51" font-family="Times New Roman,serif" font-size="10.00">dice</text>
<text text-anchor="middle" x="218.005" y="-478.276" font-family="Times New Roman,serif" font-size="10.00">player</text>
</g>
<!-- p4&#45;&#45;f10 -->
<g id="edge39" class="edge"><title>p4&#45;&#45;f10</title>
<path fill="none" stroke="black" d="M324.836,-476.419C327.704,-473.682 330.454,-470.865 333,-468 345.899,-453.482 357.329,-434.963 365.687,-419.725"/>
<text text-anchor="middle" x="364.968" y="-427.199" font-family="Times New Roman,serif" font-size="10.00">start</text>
<text text-anchor="middle" x="328.441" y="-464.592" font-family="Times New Roman,serif" font-size="10.00">starter</text>
</g>
<!-- p4&#45;&#45;f8 -->
<g id="edge41" class="edge"><title>p4&#45;&#45;f8</title>
<path fill="none" stroke="black" d="M227.854,-491.215C212.734,-485.517 195.885,-479.854 180,-476 151.285,-469.034 140.347,-481.376 114,-468 92.2956,-456.981 73.7097,-436.628 60.8603,-419.614"/>
<text text-anchor="middle" x="69.7529" y="-421.688" font-family="Times New Roman,serif" font-size="10.00">base</text>
<text text-anchor="middle" x="217.886" y="-489.514" font-family="Times New Roman,serif" font-size="10.00">baseowner</text>
</g>
<!-- f14 -->
<g id="node12" class="node"><title>f14</title>
<polygon fill="none" stroke="black" points="357,-292 357,-309 404,-309 404,-292 357,-292"/>
<text text-anchor="start" x="360.5" y="-298.5" font-family="Times New Roman,serif" font-size="10.00"> </text>
<text text-anchor="start" x="363.5" y="-298.5" font-family="Times New Roman,serif" font-size="10.00">f14 :Field</text>
</g>
<!-- f10&#45;&#45;f14 -->
<g id="edge43" class="edge"><title>f10&#45;&#45;f14</title>
<path fill="none" stroke="black" d="M380,-360.03C380,-346.486 380,-330.819 380,-319.18"/>
<text text-anchor="middle" x="384.226" y="-325.743" font-family="Times New Roman,serif" font-size="10.00">next</text>
<text text-anchor="middle" x="375.774" y="-348.467" font-family="Times New Roman,serif" font-size="10.00">prev</text>
</g>
<!-- f10&#45;&#45;p13 -->
<g id="edge45" class="edge"><title>f10&#45;&#45;p13</title>
<path fill="none" stroke="black" d="M347.64,-360.272C334.147,-348.294 318.745,-334.621 306.253,-323.531"/>
<text text-anchor="middle" x="315.837" y="-323.887" font-family="Times New Roman,serif" font-size="10.00">pawns</text>
<text text-anchor="middle" x="338.056" y="-354.915" font-family="Times New Roman,serif" font-size="10.00">pos</text>
</g>
<!-- f15 -->
<g id="node13" class="node"><title>f15</title>
<polygon fill="none" stroke="black" points="357,-196 357,-213 404,-213 404,-196 357,-196"/>
<text text-anchor="start" x="360.5" y="-202.5" font-family="Times New Roman,serif" font-size="10.00"> </text>
<text text-anchor="start" x="363.5" y="-202.5" font-family="Times New Roman,serif" font-size="10.00">f15 :Field</text>
</g>
<!-- f14&#45;&#45;f15 -->
<g id="edge47" class="edge"><title>f14&#45;&#45;f15</title>
<path fill="none" stroke="black" d="M380,-282.759C380,-265.798 380,-240.055 380,-223.132"/>
<text text-anchor="middle" x="384.226" y="-229.695" font-family="Times New Roman,serif" font-size="10.00">next</text>
<text text-anchor="middle" x="375.774" y="-271.196" font-family="Times New Roman,serif" font-size="10.00">prev</text>
</g>
<!-- f16 -->
<g id="node14" class="node"><title>f16</title>
<polygon fill="none" stroke="black" points="357,-93 357,-110 404,-110 404,-93 357,-93"/>
<text text-anchor="start" x="360.5" y="-99.5" font-family="Times New Roman,serif" font-size="10.00"> </text>
<text text-anchor="start" x="363.5" y="-99.5" font-family="Times New Roman,serif" font-size="10.00">f16 :Field</text>
</g>
<!-- f15&#45;&#45;f16 -->
<g id="edge49" class="edge"><title>f15&#45;&#45;f16</title>
<path fill="none" stroke="black" d="M380,-186.867C380,-168.294 380,-138.823 380,-120.217"/>
<text text-anchor="middle" x="384.226" y="-126.78" font-family="Times New Roman,serif" font-size="10.00">next</text>
<text text-anchor="middle" x="375.774" y="-175.304" font-family="Times New Roman,serif" font-size="10.00">prev</text>
</g>
<!-- f17 -->
<g id="node15" class="node"><title>f17</title>
<polygon fill="none" stroke="black" points="357,-9 357,-26 404,-26 404,-9 357,-9"/>
<text text-anchor="start" x="360.5" y="-15.5" font-family="Times New Roman,serif" font-size="10.00"> </text>
<text text-anchor="start" x="363.5" y="-15.5" font-family="Times New Roman,serif" font-size="10.00">f17 :Field</text>
</g>
<!-- f16&#45;&#45;f17 -->
<g id="edge51" class="edge"><title>f16&#45;&#45;f17</title>
<path fill="none" stroke="black" d="M380,-83.6099C380,-69.6002 380,-50.0114 380,-36.0838"/>
<text text-anchor="middle" x="384.226" y="-42.6469" font-family="Times New Roman,serif" font-size="10.00">next</text>
<text text-anchor="middle" x="375.774" y="-72.0468" font-family="Times New Roman,serif" font-size="10.00">prev</text>
</g>
<!-- p18 -->
<g id="node17" class="node"><title>p18</title>
<polygon fill="none" stroke="black" points="243,-220 243,-237 321,-237 321,-220 243,-220"/>
<text text-anchor="start" x="258.5" y="-226.5" font-family="Times New Roman,serif" font-size="10.00"> </text>
<text text-anchor="start" x="261.5" y="-226.5" font-family="Times New Roman,serif" font-size="10.00">p18 :Player</text>
<polygon fill="none" stroke="black" points="243,-172 243,-220 321,-220 321,-172 243,-172"/>
<text text-anchor="start" x="256" y="-208" font-family="Times New Roman,serif" font-size="10.00">color = &quot;red&quot;</text>
<text text-anchor="start" x="248.5" y="-194" font-family="Times New Roman,serif" font-size="10.00">enumColor = red</text>
<text text-anchor="start" x="248.5" y="-180" font-family="Times New Roman,serif" font-size="10.00">name = &quot;Sabine&quot;</text>
</g>
<!-- p13&#45;&#45;p18 -->
<g id="edge53" class="edge"><title>p13&#45;&#45;p18</title>
<path fill="none" stroke="black" d="M282,-278.198C282,-267.351 282,-253.962 282,-241.671"/>
<text text-anchor="middle" x="286.226" y="-248.234" font-family="Times New Roman,serif" font-size="10.00">player</text>
<text text-anchor="middle" x="277.774" y="-266.635" font-family="Times New Roman,serif" font-size="10.00">pawns</text>
</g>
<!-- f19 -->
<g id="node18" class="node"><title>f19</title>
<polygon fill="none" stroke="black" points="249,-110 249,-127 315,-127 315,-110 249,-110"/>
<text text-anchor="start" x="262" y="-116.5" font-family="Times New Roman,serif" font-size="10.00"> </text>
<text text-anchor="start" x="265" y="-116.5" font-family="Times New Roman,serif" font-size="10.00">f19 :Field</text>
<polygon fill="none" stroke="black" points="249,-76 249,-110 315,-110 315,-76 249,-76"/>
<text text-anchor="start" x="256" y="-98" font-family="Times New Roman,serif" font-size="10.00">color = &quot;red&quot;</text>
<text text-anchor="start" x="254.5" y="-84" font-family="Times New Roman,serif" font-size="10.00">kind = &quot;start&quot;</text>
</g>
<!-- p18&#45;&#45;f19 -->
<g id="edge55" class="edge"><title>p18&#45;&#45;f19</title>
<path fill="none" stroke="black" d="M282,-168.391C282,-156.351 282,-143.07 282,-131.641"/>
<text text-anchor="middle" x="286.226" y="-138.204" font-family="Times New Roman,serif" font-size="10.00">start</text>
<text text-anchor="middle" x="277.774" y="-156.828" font-family="Times New Roman,serif" font-size="10.00">starter</text>
</g>
</g>
</svg>
