<?xml version="1.0" encoding="UTF-8" standalone="no"?>
<!DOCTYPE svg PUBLIC "-//W3C//DTD SVG 1.1//EN"
 "http://www.w3.org/Graphics/SVG/1.1/DTD/svg11.dtd">
<!-- Generated by graphviz version 2.26.3 (20100126.1600)
 -->
<!-- Title: ObjectDiagram Pages: 1 -->
<svg width="353pt" height="486pt"
 viewBox="0.00 0.00 353.00 486.00" xmlns="http://www.w3.org/2000/svg" xmlns:xlink="http://www.w3.org/1999/xlink">
<g id="graph1" class="graph" transform="scale(1 1) rotate(0) translate(4 482)">
<title>ObjectDiagram</title>
<polygon fill="white" stroke="white" points="-4,5 -4,-482 350,-482 350,5 -4,5"/>
<!-- p1 -->
<g id="node1" class="node"><title>p1</title>
<polygon fill="none" stroke="black" points="148,-456 148,-473 228,-473 228,-456 148,-456"/>
<text text-anchor="start" x="162" y="-462.167" font-family="Times Roman,serif" font-size="10.00"> </text>
<text text-anchor="start" x="166" y="-462.167" font-family="Times Roman,serif" font-size="10.00">p1 :Player</text>
<polygon fill="none" stroke="black" points="148,-422 148,-456 228,-456 228,-422 148,-422"/>
<text text-anchor="start" x="155" y="-443.667" font-family="Times Roman,serif" font-size="10.00">color = &quot;blue&quot;</text>
<text text-anchor="start" x="153.5" y="-429.667" font-family="Times Roman,serif" font-size="10.00">name = &quot;Tom&quot;</text>
</g>
<!-- d2 -->
<g id="node2" class="node"><title>d2</title>
<polygon fill="none" stroke="black" points="23,-353 23,-370 80,-370 80,-353 23,-353"/>
<text text-anchor="start" x="29.5" y="-359.167" font-family="Times Roman,serif" font-size="10.00"> </text>
<text text-anchor="start" x="33.5" y="-359.167" font-family="Times Roman,serif" font-size="10.00">d2 :Dice</text>
<polygon fill="none" stroke="black" points="23,-333 23,-353 80,-353 80,-333 23,-333"/>
<text text-anchor="start" x="28.5" y="-340.667" font-family="Times Roman,serif" font-size="10.00">value = 6</text>
</g>
<!-- p1&#45;&#45;d2 -->
<g id="edge2" class="edge"><title>p1&#45;&#45;d2</title>
<path fill="none" stroke="black" d="M145.778,-418.414C125.651,-404.31 101.956,-387.707 83.2936,-374.629"/>
<text text-anchor="middle" x="93.1411" y="-373.369" font-family="Times Roman,serif" font-size="10.00">dice</text>
<text text-anchor="middle" x="135.93" y="-413.674" font-family="Times Roman,serif" font-size="10.00">player</text>
</g>
<!-- f3 -->
<g id="node3" class="node"><title>f3</title>
<polygon fill="none" stroke="black" points="113,-360 113,-377 190,-377 190,-360 113,-360"/>
<text text-anchor="start" x="131" y="-366.167" font-family="Times Roman,serif" font-size="10.00"> </text>
<text text-anchor="start" x="135" y="-366.167" font-family="Times Roman,serif" font-size="10.00">f3 :Field</text>
<polygon fill="none" stroke="black" points="113,-326 113,-360 190,-360 190,-326 113,-326"/>
<text text-anchor="start" x="118.5" y="-347.667" font-family="Times Roman,serif" font-size="10.00">color = &quot;blue&quot;</text>
<text text-anchor="start" x="119.5" y="-333.667" font-family="Times Roman,serif" font-size="10.00">kind = &quot;start&quot;</text>
</g>
<!-- p1&#45;&#45;f3 -->
<g id="edge4" class="edge"><title>p1&#45;&#45;f3</title>
<path fill="none" stroke="black" d="M176.597,-418.414C172.095,-406.734 166.933,-393.34 162.429,-381.654"/>
<text text-anchor="middle" x="169.632" y="-385.591" font-family="Times Roman,serif" font-size="10.00">start</text>
<text text-anchor="middle" x="169.394" y="-408.477" font-family="Times Roman,serif" font-size="10.00">starter</text>
</g>
<!-- p11 -->
<g id="node10" class="node"><title>p11</title>
<polygon fill="none" stroke="black" points="204,-264 204,-281 281,-281 281,-264 204,-264"/>
<text text-anchor="start" x="216" y="-270.167" font-family="Times Roman,serif" font-size="10.00"> </text>
<text text-anchor="start" x="220" y="-270.167" font-family="Times Roman,serif" font-size="10.00">p11 :Pawn</text>
<polygon fill="none" stroke="black" points="204,-244 204,-264 281,-264 281,-244 204,-244"/>
<text text-anchor="start" x="209.5" y="-251.667" font-family="Times Roman,serif" font-size="10.00">color = &quot;blue&quot;</text>
</g>
<!-- p1&#45;&#45;p11 -->
<g id="edge8" class="edge"><title>p1&#45;&#45;p11</title>
<path fill="none" stroke="black" d="M196.676,-418.277C207.469,-381.302 225.657,-318.99 235.388,-285.653"/>
<text text-anchor="middle" x="236.905" y="-292.537" font-family="Times Roman,serif" font-size="10.00">pawns</text>
<text text-anchor="middle" x="195.159" y="-405.392" font-family="Times Roman,serif" font-size="10.00">player</text>
</g>
<!-- f10 -->
<g id="node11" class="node"><title>f10</title>
<polygon fill="none" stroke="black" points="261,-360 261,-377 338,-377 338,-360 261,-360"/>
<text text-anchor="start" x="276" y="-366.167" font-family="Times Roman,serif" font-size="10.00"> </text>
<text text-anchor="start" x="280" y="-366.167" font-family="Times Roman,serif" font-size="10.00">f10 :Field</text>
<polygon fill="none" stroke="black" points="261,-326 261,-360 338,-360 338,-326 261,-326"/>
<text text-anchor="start" x="266.5" y="-347.667" font-family="Times Roman,serif" font-size="10.00">color = &quot;blue&quot;</text>
<text text-anchor="start" x="267" y="-333.667" font-family="Times Roman,serif" font-size="10.00">kind = &quot;base&quot;</text>
</g>
<!-- p1&#45;&#45;f10 -->
<g id="edge6" class="edge"><title>p1&#45;&#45;f10</title>
<path fill="none" stroke="black" d="M222.209,-418.414C235.714,-406.734 251.2,-393.34 264.712,-381.654"/>
<text text-anchor="middle" x="260.622" y="-387.779" font-family="Times Roman,serif" font-size="10.00">base</text>
<text text-anchor="middle" x="226.3" y="-406.288" font-family="Times Roman,serif" font-size="10.00">baseowner</text>
</g>
<!-- f4 -->
<g id="node4" class="node"><title>f4</title>
<polygon fill="none" stroke="black" points="11,-254 11,-271 59,-271 59,-254 11,-254"/>
<text text-anchor="start" x="14.5" y="-260.167" font-family="Times Roman,serif" font-size="10.00"> </text>
<text text-anchor="start" x="18.5" y="-260.167" font-family="Times Roman,serif" font-size="10.00">f4 :Field</text>
</g>
<!-- f3&#45;&#45;f4 -->
<g id="edge10" class="edge"><title>f3&#45;&#45;f4</title>
<path fill="none" stroke="black" d="M112.374,-322.364C94.5787,-308.711 74.0349,-292.949 58.5901,-281.099"/>
<text text-anchor="middle" x="68.3532" y="-280.263" font-family="Times Roman,serif" font-size="10.00">next</text>
<text text-anchor="middle" x="102.611" y="-317.2" font-family="Times Roman,serif" font-size="10.00">prev</text>
</g>
<!-- p8 -->
<g id="node8" class="node"><title>p8</title>
<polygon fill="none" stroke="black" points="98,-264 98,-281 170,-281 170,-264 98,-264"/>
<text text-anchor="start" x="110.5" y="-270.167" font-family="Times Roman,serif" font-size="10.00"> </text>
<text text-anchor="start" x="114.5" y="-270.167" font-family="Times Roman,serif" font-size="10.00">p8 :Pawn</text>
<polygon fill="none" stroke="black" points="98,-244 98,-264 170,-264 170,-244 98,-244"/>
<text text-anchor="start" x="103.5" y="-251.667" font-family="Times Roman,serif" font-size="10.00">color = &quot;red&quot;</text>
</g>
<!-- f3&#45;&#45;p8 -->
<g id="edge12" class="edge"><title>f3&#45;&#45;p8</title>
<path fill="none" stroke="black" d="M145.339,-322.364C143.06,-310.431 140.473,-296.885 138.346,-285.75"/>
<text text-anchor="middle" x="144.197" y="-290.859" font-family="Times Roman,serif" font-size="10.00">pawns</text>
<text text-anchor="middle" x="139.488" y="-311.255" font-family="Times Roman,serif" font-size="10.00">pos</text>
</g>
<!-- f3&#45;&#45;p11 -->
<g id="edge14" class="edge"><title>f3&#45;&#45;p11</title>
<path fill="none" stroke="black" d="M181.302,-322.364C193.504,-310.431 207.353,-296.885 218.739,-285.75"/>
<text text-anchor="middle" x="215.214" y="-292.108" font-family="Times Roman,serif" font-size="10.00">pawns</text>
<text text-anchor="middle" x="184.826" y="-310.006" font-family="Times Roman,serif" font-size="10.00">pos</text>
</g>
<!-- f5 -->
<g id="node5" class="node"><title>f5</title>
<polygon fill="none" stroke="black" points="8,-165 8,-182 56,-182 56,-165 8,-165"/>
<text text-anchor="start" x="11.5" y="-171.167" font-family="Times Roman,serif" font-size="10.00"> </text>
<text text-anchor="start" x="15.5" y="-171.167" font-family="Times Roman,serif" font-size="10.00">f5 :Field</text>
</g>
<!-- f4&#45;&#45;f5 -->
<g id="edge16" class="edge"><title>f4&#45;&#45;f5</title>
<path fill="none" stroke="black" d="M34.3929,-244.99C33.8758,-229.65 33.1362,-207.708 32.6165,-192.289"/>
<text text-anchor="middle" x="37.1456" y="-198.205" font-family="Times Roman,serif" font-size="10.00">next</text>
<text text-anchor="middle" x="29.8638" y="-233.074" font-family="Times Roman,serif" font-size="10.00">prev</text>
</g>
<!-- f6 -->
<g id="node6" class="node"><title>f6</title>
<polygon fill="none" stroke="black" points="8,-81 8,-98 56,-98 56,-81 8,-81"/>
<text text-anchor="start" x="11.5" y="-87.1667" font-family="Times Roman,serif" font-size="10.00"> </text>
<text text-anchor="start" x="15.5" y="-87.1667" font-family="Times Roman,serif" font-size="10.00">f6 :Field</text>
</g>
<!-- f5&#45;&#45;f6 -->
<g id="edge18" class="edge"><title>f5&#45;&#45;f6</title>
<path fill="none" stroke="black" d="M32,-155.773C32,-141.684 32,-122.272 32,-108.191"/>
<text text-anchor="middle" x="36.2262" y="-114.254" font-family="Times Roman,serif" font-size="10.00">next</text>
<text text-anchor="middle" x="27.7738" y="-143.71" font-family="Times Roman,serif" font-size="10.00">prev</text>
</g>
<!-- f7 -->
<g id="node7" class="node"><title>f7</title>
<polygon fill="none" stroke="black" points="8,-9 8,-26 56,-26 56,-9 8,-9"/>
<text text-anchor="start" x="11.5" y="-15.1667" font-family="Times Roman,serif" font-size="10.00"> </text>
<text text-anchor="start" x="15.5" y="-15.1667" font-family="Times Roman,serif" font-size="10.00">f7 :Field</text>
</g>
<!-- f6&#45;&#45;f7 -->
<g id="edge20" class="edge"><title>f6&#45;&#45;f7</title>
<path fill="none" stroke="black" d="M32,-71.8314C32,-61 32,-47.2876 32,-36.4133"/>
<text text-anchor="middle" x="36.2262" y="-42.4763" font-family="Times Roman,serif" font-size="10.00">next</text>
<text text-anchor="middle" x="27.7738" y="-59.7683" font-family="Times Roman,serif" font-size="10.00">prev</text>
</g>
<!-- p9 -->
<g id="node9" class="node"><title>p9</title>
<polygon fill="none" stroke="black" points="90,-182 90,-199 184,-199 184,-182 90,-182"/>
<text text-anchor="start" x="111" y="-188.167" font-family="Times Roman,serif" font-size="10.00"> </text>
<text text-anchor="start" x="115" y="-188.167" font-family="Times Roman,serif" font-size="10.00">p9 :Player</text>
<polygon fill="none" stroke="black" points="90,-148 90,-182 184,-182 184,-148 90,-148"/>
<text text-anchor="start" x="106.5" y="-169.667" font-family="Times Roman,serif" font-size="10.00">color = &quot;red&quot;</text>
<text text-anchor="start" x="95.5" y="-155.667" font-family="Times Roman,serif" font-size="10.00">name = &quot;Sabine&quot;</text>
</g>
<!-- p8&#45;&#45;p9 -->
<g id="edge22" class="edge"><title>p8&#45;&#45;p9</title>
<path fill="none" stroke="black" d="M134.773,-240.08C135.148,-228.955 135.603,-215.456 136.003,-203.566"/>
<text text-anchor="middle" x="139.922" y="-209.766" font-family="Times Roman,serif" font-size="10.00">player</text>
<text text-anchor="middle" x="130.854" y="-227.88" font-family="Times Roman,serif" font-size="10.00">pawns</text>
</g>
</g>
</svg>
