<?xml version="1.0" encoding="UTF-8" standalone="no"?>
<!DOCTYPE svg PUBLIC "-//W3C//DTD SVG 1.1//EN"
 "http://www.w3.org/Graphics/SVG/1.1/DTD/svg11.dtd">
<!-- Generated by graphviz version 2.28.0 (20110507.0327)
 -->
<!-- Title: ClassDiagram Pages: 1 -->
<svg width="205pt" height="190pt"
 viewBox="0.00 0.00 205.00 190.00" xmlns="http://www.w3.org/2000/svg" xmlns:xlink="http://www.w3.org/1999/xlink">
<g id="graph1" class="graph" transform="scale(1 1) rotate(0) translate(4 186)">
<title>ClassDiagram</title>
<polygon fill="white" stroke="white" points="-4,5 -4,-186 202,-186 202,5 -4,5"/>
<!-- _Building -->
<g id="node1" class="node"><title>_Building</title>
<polygon fill="none" stroke="black" points="8,-160 8,-177 69,-177 69,-160 8,-160"/>
<text text-anchor="start" x="21.5" y="-166.5" font-family="Times New Roman,serif" font-size="10.00">Building</text>
<polygon fill="none" stroke="black" points="8,-140 8,-160 69,-160 69,-140 8,-140"/>
<text text-anchor="start" x="13" y="-148" font-family="Times New Roman,serif" font-size="10.00">name :String</text>
<polygon fill="none" stroke="black" points="8,-120 8,-140 69,-140 69,-120 8,-120"/>
<text text-anchor="start" x="37" y="-128" font-family="Times New Roman,serif" font-size="10.00"> </text>
</g>
<!-- _Floor -->
<g id="node2" class="node"><title>_Floor</title>
<polygon fill="none" stroke="black" points="8,-58 8,-75 69,-75 69,-58 8,-58"/>
<text text-anchor="start" x="27.5" y="-64.5" font-family="Times New Roman,serif" font-size="10.00">Floor</text>
<polygon fill="none" stroke="black" points="8,-24 8,-58 69,-58 69,-24 8,-24"/>
<text text-anchor="start" x="13" y="-46" font-family="Times New Roman,serif" font-size="10.00">level :int</text>
<text text-anchor="start" x="13" y="-32" font-family="Times New Roman,serif" font-size="10.00">name :String</text>
<polygon fill="none" stroke="black" points="8,-4 8,-24 69,-24 69,-4 8,-4"/>
<text text-anchor="start" x="37" y="-12" font-family="Times New Roman,serif" font-size="10.00"> </text>
</g>
<!-- _Building&#45;&gt;_Floor -->
<g id="edge2" class="edge"><title>_Building&#45;&gt;_Floor</title>
<path fill="none" stroke="black" d="M38,-116.475C38,-105.009 38,-91.9132 38,-79.8848"/>
<text text-anchor="middle" x="42.2262" y="-86.4479" font-family="Times New Roman,serif" font-size="10.00">has *</text>
<text text-anchor="middle" x="33.7738" y="-104.912" font-family="Times New Roman,serif" font-size="10.00">buildings</text>
</g>
<!-- _GenericObjectsTest -->
<g id="node3" class="node"><title>_GenericObjectsTest</title>
<polygon fill="none" stroke="black" points="103,-160 103,-177 189,-177 189,-160 103,-160"/>
<text text-anchor="start" x="106.5" y="-166.5" font-family="Times New Roman,serif" font-size="10.00">GenericObjectsTest</text>
<polygon fill="none" stroke="black" points="103,-140 103,-160 189,-160 189,-140 103,-140"/>
<text text-anchor="start" x="144.5" y="-148" font-family="Times New Roman,serif" font-size="10.00"> </text>
<polygon fill="none" stroke="black" points="103,-120 103,-140 189,-140 189,-120 103,-120"/>
<text text-anchor="start" x="144.5" y="-128" font-family="Times New Roman,serif" font-size="10.00"> </text>
</g>
</g>
</svg>
