<?xml version="1.0" encoding="UTF-8" standalone="no"?>
<!DOCTYPE svg PUBLIC "-//W3C//DTD SVG 1.1//EN"
 "http://www.w3.org/Graphics/SVG/1.1/DTD/svg11.dtd">
<!-- Generated by graphviz version 2.26.3 (20100126.1600)
 -->
<!-- Title: ClassDiagram Pages: 1 -->
<svg width="232pt" height="204pt"
 viewBox="0.00 0.00 232.00 204.00" xmlns="http://www.w3.org/2000/svg" xmlns:xlink="http://www.w3.org/1999/xlink">
<g id="graph1" class="graph" transform="scale(1 1) rotate(0) translate(4 200)">
<title>ClassDiagram</title>
<polygon fill="white" stroke="white" points="-4,5 -4,-200 229,-200 229,5 -4,5"/>
<!-- _Building -->
<g id="node1" class="node"><title>_Building</title>
<polygon fill="none" stroke="black" points="8,-174 8,-191 82,-191 82,-174 8,-174"/>
<text text-anchor="start" x="26" y="-180.167" font-family="Times Roman,serif" font-size="10.00">Building</text>
<polygon fill="none" stroke="black" points="8,-154 8,-174 82,-174 82,-154 8,-154"/>
<text text-anchor="start" x="13" y="-161.667" font-family="Times Roman,serif" font-size="10.00">name :String</text>
<polygon fill="none" stroke="black" points="8,-134 8,-154 82,-154 82,-134 8,-134"/>
<text text-anchor="start" x="43" y="-141.667" font-family="Times Roman,serif" font-size="10.00"> </text>
</g>
<!-- _Floor -->
<g id="node2" class="node"><title>_Floor</title>
<polygon fill="none" stroke="black" points="8,-72 8,-89 82,-89 82,-72 8,-72"/>
<text text-anchor="start" x="33" y="-78.1667" font-family="Times Roman,serif" font-size="10.00">Floor</text>
<polygon fill="none" stroke="black" points="8,-24 8,-72 82,-72 82,-24 8,-24"/>
<text text-anchor="start" x="13" y="-59.6667" font-family="Times Roman,serif" font-size="10.00">level :int</text>
<text text-anchor="start" x="13" y="-45.6667" font-family="Times Roman,serif" font-size="10.00">name :String</text>
<text text-anchor="start" x="13" y="-31.6667" font-family="Times Roman,serif" font-size="10.00">guest :String</text>
<polygon fill="none" stroke="black" points="8,-4 8,-24 82,-24 82,-4 8,-4"/>
<text text-anchor="start" x="43" y="-11.6667" font-family="Times Roman,serif" font-size="10.00"> </text>
</g>
<!-- _Building&#45;&gt;_Floor -->
<g id="edge2" class="edge"><title>_Building&#45;&gt;_Floor</title>
<path fill="none" stroke="black" d="M45,-130.379C45,-118.987 45,-105.968 45,-93.658"/>
<text text-anchor="middle" x="49.2262" y="-99.7211" font-family="Times Roman,serif" font-size="10.00">has *</text>
<text text-anchor="middle" x="40.7738" y="-118.316" font-family="Times Roman,serif" font-size="10.00">buildings</text>
</g>
<!-- _GenericObjectsTest -->
<g id="node3" class="node"><title>_GenericObjectsTest</title>
<polygon fill="none" stroke="black" points="116,-174 116,-191 216,-191 216,-174 116,-174"/>
<text text-anchor="start" x="119.5" y="-180.167" font-family="Times Roman,serif" font-size="10.00">GenericObjectsTest</text>
<polygon fill="none" stroke="black" points="116,-154 116,-174 216,-174 216,-154 116,-154"/>
<text text-anchor="start" x="164" y="-161.667" font-family="Times Roman,serif" font-size="10.00"> </text>
<polygon fill="none" stroke="black" points="116,-134 116,-154 216,-154 216,-134 116,-134"/>
<text text-anchor="start" x="164" y="-141.667" font-family="Times Roman,serif" font-size="10.00"> </text>
</g>
</g>
</svg>
