<?xml version="1.0" encoding="UTF-8" standalone="no"?>
<!DOCTYPE svg PUBLIC "-//W3C//DTD SVG 1.1//EN"
 "http://www.w3.org/Graphics/SVG/1.1/DTD/svg11.dtd">
<!-- Generated by graphviz version 2.28.0 (20110507.0327)
 -->
<!-- Title: ClassDiagram Pages: 1 -->
<svg width="206pt" height="204pt"
 viewBox="0.00 0.00 206.00 204.00" xmlns="http://www.w3.org/2000/svg" xmlns:xlink="http://www.w3.org/1999/xlink">
<g id="graph1" class="graph" transform="scale(1 1) rotate(0) translate(4 200)">
<title>ClassDiagram</title>
<polygon fill="white" stroke="white" points="-4,5 -4,-200 203,-200 203,5 -4,5"/>
<!-- _Building -->
<g id="node1" class="node"><title>_Building</title>
<a xlink:href="../test/de/kassel/roombook/Building.java" xlink:title="&lt;TABLE&gt;">
<polygon fill="none" stroke="black" points="9,-174 9,-191 70,-191 70,-174 9,-174"/>
<text text-anchor="start" x="22.5" y="-180.5" font-family="Times New Roman,serif" font-size="10.00">Building</text>
</a>
<polygon fill="none" stroke="black" points="9,-154 9,-174 70,-174 70,-154 9,-154"/>
<text text-anchor="start" x="14" y="-162" font-family="Times New Roman,serif" font-size="10.00">name :String</text>
<polygon fill="none" stroke="black" points="9,-134 9,-154 70,-154 70,-134 9,-134"/>
<text text-anchor="start" x="38" y="-142" font-family="Times New Roman,serif" font-size="10.00"> </text>
</g>
<!-- _Floor -->
<g id="node2" class="node"><title>_Floor</title>
<a xlink:href="../test/de/kassel/roombook/Floor.java" xlink:title="&lt;TABLE&gt;">
<polygon fill="none" stroke="black" points="8,-72 8,-89 71,-89 71,-72 8,-72"/>
<text text-anchor="start" x="28.5" y="-78.5" font-family="Times New Roman,serif" font-size="10.00">Floor</text>
</a>
<polygon fill="none" stroke="black" points="8,-24 8,-72 71,-72 71,-24 8,-24"/>
<text text-anchor="start" x="13" y="-60" font-family="Times New Roman,serif" font-size="10.00">level :int</text>
<text text-anchor="start" x="13" y="-46" font-family="Times New Roman,serif" font-size="10.00">name :String</text>
<text text-anchor="start" x="13" y="-32" font-family="Times New Roman,serif" font-size="10.00">guest :String</text>
<polygon fill="none" stroke="black" points="8,-4 8,-24 71,-24 71,-4 8,-4"/>
<text text-anchor="start" x="38" y="-12" font-family="Times New Roman,serif" font-size="10.00"> </text>
</g>
<!-- _Building&#45;&gt;_Floor -->
<g id="edge2" class="edge"><title>_Building&#45;&gt;_Floor</title>
<path fill="none" stroke="black" d="M39,-130.245C39,-118.913 39,-105.913 39,-93.6447"/>
<text text-anchor="middle" x="43.2262" y="-100.208" font-family="Times New Roman,serif" font-size="10.00">has *</text>
<text text-anchor="middle" x="34.7738" y="-118.682" font-family="Times New Roman,serif" font-size="10.00">buildings</text>
</g>
<!-- _GenericObjectsTest -->
<g id="node3" class="node"><title>_GenericObjectsTest</title>
<a xlink:href="../test/org/sdmlib/models/objects/GenericObjectsTest.java" xlink:title="&lt;TABLE&gt;">
<polygon fill="none" stroke="black" points="104,-174 104,-191 190,-191 190,-174 104,-174"/>
<text text-anchor="start" x="107.5" y="-180.5" font-family="Times New Roman,serif" font-size="10.00">GenericObjectsTest</text>
</a>
<polygon fill="none" stroke="black" points="104,-154 104,-174 190,-174 190,-154 104,-154"/>
<text text-anchor="start" x="145.5" y="-162" font-family="Times New Roman,serif" font-size="10.00"> </text>
<polygon fill="none" stroke="black" points="104,-134 104,-154 190,-154 190,-134 104,-134"/>
<text text-anchor="start" x="145.5" y="-142" font-family="Times New Roman,serif" font-size="10.00"> </text>
</g>
</g>
</svg>
