<?xml version="1.0" encoding="UTF-8" standalone="no"?>
<!DOCTYPE svg PUBLIC "-//W3C//DTD SVG 1.1//EN"
 "http://www.w3.org/Graphics/SVG/1.1/DTD/svg11.dtd">
<!-- Generated by graphviz version 2.28.0 (20110507.0327)
 -->
<!-- Title: ClassDiagram Pages: 1 -->
<svg width="317pt" height="488pt"
 viewBox="0.00 0.00 316.99 488.00" xmlns="http://www.w3.org/2000/svg" xmlns:xlink="http://www.w3.org/1999/xlink">
<g id="graph1" class="graph" transform="scale(1 1) rotate(0) translate(4 484)">
<title>ClassDiagram</title>
<polygon fill="white" stroke="white" points="-4,5 -4,-484 313.989,-484 313.989,5 -4,5"/>
<!-- _Template -->
<g id="node1" class="node"><title>_Template</title>
<a xlink:href="../test/org/sdmlib/models/transformations/Template.java" xlink:title="&lt;TABLE&gt;">
<polygon fill="none" stroke="black" points="123,-300 123,-317 239,-317 239,-300 123,-300"/>
<text text-anchor="start" x="162.5" y="-306.5" font-family="Times New Roman,serif" font-size="10.00">Template</text>
</a>
<polygon fill="none" stroke="black" points="123,-168 123,-300 239,-300 239,-168 123,-168"/>
<text text-anchor="start" x="128" y="-288" font-family="Times New Roman,serif" font-size="10.00">templateText :String</text>
<text text-anchor="start" x="128" y="-274" font-family="Times New Roman,serif" font-size="10.00">expandedText :String</text>
<text text-anchor="start" x="128" y="-260" font-family="Times New Roman,serif" font-size="10.00">modelObject :Object</text>
<text text-anchor="start" x="128" y="-246" font-family="Times New Roman,serif" font-size="10.00">modelClassName :String</text>
<text text-anchor="start" x="128" y="-232" font-family="Times New Roman,serif" font-size="10.00">listStart :String</text>
<text text-anchor="start" x="128" y="-218" font-family="Times New Roman,serif" font-size="10.00">listSeparator :String</text>
<text text-anchor="start" x="128" y="-204" font-family="Times New Roman,serif" font-size="10.00">listEnd :String</text>
<text text-anchor="start" x="128" y="-190" font-family="Times New Roman,serif" font-size="10.00">referenceLookup :boolean</text>
<text text-anchor="start" x="128" y="-176" font-family="Times New Roman,serif" font-size="10.00">name :String</text>
<polygon fill="none" stroke="black" points="123,-148 123,-168 239,-168 239,-148 123,-148"/>
<text text-anchor="start" x="179.5" y="-156" font-family="Times New Roman,serif" font-size="10.00"> </text>
</g>
<!-- _PlaceHolderDescription -->
<g id="node2" class="node"><title>_PlaceHolderDescription</title>
<a xlink:href="../test/org/sdmlib/models/transformations/PlaceHolderDescription.java" xlink:title="&lt;TABLE&gt;">
<polygon fill="none" stroke="black" points="8,-86 8,-103 116,-103 116,-86 8,-86"/>
<text text-anchor="start" x="14.5" y="-92.5" font-family="Times New Roman,serif" font-size="10.00">PlaceHolderDescription</text>
</a>
<polygon fill="none" stroke="black" points="8,-24 8,-86 116,-86 116,-24 8,-24"/>
<text text-anchor="start" x="13" y="-74" font-family="Times New Roman,serif" font-size="10.00">textFragment :String</text>
<text text-anchor="start" x="13" y="-60" font-family="Times New Roman,serif" font-size="10.00">value :String</text>
<text text-anchor="start" x="13" y="-46" font-family="Times New Roman,serif" font-size="10.00">attrName :String</text>
<text text-anchor="start" x="13" y="-32" font-family="Times New Roman,serif" font-size="10.00">isKeyAttribute :boolean</text>
<polygon fill="none" stroke="black" points="8,-4 8,-24 116,-24 116,-4 8,-4"/>
<text text-anchor="start" x="60.5" y="-12" font-family="Times New Roman,serif" font-size="10.00"> </text>
</g>
<!-- _Template&#45;&gt;_PlaceHolderDescription -->
<g id="edge4" class="edge"><title>_Template&#45;&gt;_PlaceHolderDescription</title>
<path fill="none" stroke="black" d="M115.273,-144.278C106.85,-131.76 98.5925,-119.221 91.1749,-107.664"/>
<text text-anchor="middle" x="99.6336" y="-110.498" font-family="Times New Roman,serif" font-size="10.00">placeholders *</text>
<text text-anchor="middle" x="106.712" y="-136.61" font-family="Times New Roman,serif" font-size="10.00">owners *</text>
</g>
<!-- _ChoiceTemplate -->
<g id="node3" class="node"><title>_ChoiceTemplate</title>
<a xlink:href="../test/org/sdmlib/models/transformations/ChoiceTemplate.java" xlink:title="&lt;TABLE&gt;">
<polygon fill="none" stroke="black" points="150,-65 150,-82 222,-82 222,-65 150,-65"/>
<text text-anchor="start" x="153.5" y="-71.5" font-family="Times New Roman,serif" font-size="10.00">ChoiceTemplate</text>
</a>
<polygon fill="none" stroke="black" points="150,-45 150,-65 222,-65 222,-45 150,-45"/>
<text text-anchor="start" x="184.5" y="-53" font-family="Times New Roman,serif" font-size="10.00"> </text>
<polygon fill="none" stroke="black" points="150,-25 150,-45 222,-45 222,-25 150,-25"/>
<text text-anchor="start" x="184.5" y="-33" font-family="Times New Roman,serif" font-size="10.00"> </text>
</g>
<!-- _Template&#45;&gt;_ChoiceTemplate -->
<g id="edge2" class="edge"><title>_Template&#45;&gt;_ChoiceTemplate</title>
<path fill="none" stroke="black" d="M177.049,-134.11C177.66,-116.902 178.601,-100.172 179.797,-86.5635"/>
<polygon fill="none" stroke="black" points="173.546,-134.172 176.728,-144.278 180.542,-134.393 173.546,-134.172"/>
</g>
<!-- _Object -->
<g id="node5" class="node"><title>_Object</title>
<a xlink:href="../test/org/sdmlib/models/transformations/Object.java" xlink:title="&lt;TABLE&gt;">
<polygon fill="none" stroke="black" points="258,-65 258,-82 292,-82 292,-65 258,-65"/>
<text text-anchor="start" x="261.5" y="-71.5" font-family="Times New Roman,serif" font-size="10.00">Object</text>
</a>
<polygon fill="none" stroke="black" points="258,-45 258,-65 292,-65 292,-45 258,-45"/>
<text text-anchor="start" x="273.5" y="-53" font-family="Times New Roman,serif" font-size="10.00"> </text>
<polygon fill="none" stroke="black" points="258,-25 258,-45 292,-45 292,-25 258,-25"/>
<text text-anchor="start" x="273.5" y="-33" font-family="Times New Roman,serif" font-size="10.00"> </text>
</g>
<!-- _Template&#45;&gt;_Object -->
<g id="edge16" class="edge"><title>_Template&#45;&gt;_Object</title>
<path fill="none" stroke="black" d="M227.587,-144.278C236.6,-127.306 245.633,-110.297 253.361,-95.7455"/>
<polygon fill="black" stroke="black" points="258.237,-86.5635 257.521,-97.506 255.892,-90.9794 253.547,-95.3953 253.547,-95.3953 253.547,-95.3953 255.892,-90.9794 249.573,-93.2847 258.237,-86.5635 258.237,-86.5635"/>
<text text-anchor="middle" x="257.719" y="-94.0501" font-family="Times New Roman,serif" font-size="10.00">modelObject</text>
</g>
<!-- _PlaceHolderDescription&#45;&gt;_Template -->
<g id="edge14" class="edge"><title>_PlaceHolderDescription&#45;&gt;_Template</title>
<path fill="none" stroke="black" d="M103.639,-107.664C111.762,-119.221 120.364,-131.76 128.773,-144.278"/>
<text text-anchor="middle" x="120.206" y="-136.619" font-family="Times New Roman,serif" font-size="10.00">subTemplate</text>
<text text-anchor="middle" x="112.302" y="-110.159" font-family="Times New Roman,serif" font-size="10.00">parents *</text>
</g>
<!-- _ChoiceTemplate&#45;&gt;_Template -->
<g id="edge6" class="edge"><title>_ChoiceTemplate&#45;&gt;_Template</title>
<path fill="none" stroke="black" d="M190.419,-86.5635C190.931,-102.843 190.825,-123.589 190.228,-144.278"/>
<text text-anchor="middle" x="186.243" y="-132.606" font-family="Times New Roman,serif" font-size="10.00">choices *</text>
<text text-anchor="middle" x="194.888" y="-93.0095" font-family="Times New Roman,serif" font-size="10.00">chooser</text>
</g>
<!-- _Match -->
<g id="node4" class="node"><title>_Match</title>
<a xlink:href="../test/org/sdmlib/models/transformations/Match.java" xlink:title="&lt;TABLE&gt;">
<polygon fill="none" stroke="black" points="135,-458 135,-475 228,-475 228,-458 135,-458"/>
<text text-anchor="start" x="168" y="-464.5" font-family="Times New Roman,serif" font-size="10.00">Match</text>
</a>
<polygon fill="none" stroke="black" points="135,-382 135,-458 228,-458 228,-382 135,-382"/>
<text text-anchor="start" x="140" y="-446" font-family="Times New Roman,serif" font-size="10.00">startPos :int</text>
<text text-anchor="start" x="140" y="-432" font-family="Times New Roman,serif" font-size="10.00">endPos :int</text>
<text text-anchor="start" x="140" y="-418" font-family="Times New Roman,serif" font-size="10.00">fullText :String</text>
<text text-anchor="start" x="140" y="-404" font-family="Times New Roman,serif" font-size="10.00">matchText :String</text>
<text text-anchor="start" x="140" y="-390" font-family="Times New Roman,serif" font-size="10.00">modelObject :Object</text>
<polygon fill="none" stroke="black" points="135,-362 135,-382 228,-382 228,-362 135,-362"/>
<text text-anchor="start" x="180" y="-370" font-family="Times New Roman,serif" font-size="10.00"> </text>
</g>
<!-- _Match&#45;&gt;_Template -->
<g id="edge8" class="edge"><title>_Match&#45;&gt;_Template</title>
<path fill="none" stroke="black" d="M181,-358.26C181,-346.508 181,-333.951 181,-321.504"/>
<text text-anchor="middle" x="185.226" y="-328.067" font-family="Times New Roman,serif" font-size="10.00">template</text>
<text text-anchor="middle" x="176.774" y="-346.697" font-family="Times New Roman,serif" font-size="10.00">matches *</text>
</g>
<!-- _Match&#45;&gt;_PlaceHolderDescription -->
<g id="edge10" class="edge"><title>_Match&#45;&gt;_PlaceHolderDescription</title>
<path fill="none" stroke="black" d="M127.27,-358.449C119.073,-346.976 111.521,-334.59 106,-322 75.294,-251.978 65.8468,-163.075 63.0386,-107.598"/>
<text text-anchor="middle" x="67.8003" y="-113.892" font-family="Times New Roman,serif" font-size="10.00">placeholder</text>
<text text-anchor="middle" x="118.601" y="-350.965" font-family="Times New Roman,serif" font-size="10.00">matches *</text>
</g>
<!-- _Match&#45;&gt;_Match -->
<g id="edge12" class="edge"><title>_Match&#45;&gt;_Match</title>
<path fill="none" stroke="black" d="M235.319,-452.206C245.676,-448.233 253,-437.164 253,-419 253,-400.836 245.676,-389.767 235.319,-385.794"/>
<text text-anchor="middle" x="245.319" y="-383.295" font-family="Times New Roman,serif" font-size="10.00">subMatches *</text>
<text text-anchor="middle" x="241.746" y="-442.045" font-family="Times New Roman,serif" font-size="10.00">parentMatch</text>
</g>
<!-- _Match&#45;&gt;_Object -->
<g id="edge18" class="edge"><title>_Match&#45;&gt;_Object</title>
<path fill="none" stroke="black" d="M235.336,-359.383C243.578,-347.72 250.99,-335.029 256,-322 284.929,-246.772 283.381,-150.925 279.373,-96.927"/>
<polygon fill="black" stroke="black" points="278.547,-86.7038 283.838,-96.3089 278.95,-91.6876 279.352,-96.6713 279.352,-96.6713 279.352,-96.6713 278.95,-91.6876 274.867,-97.0338 278.547,-86.7038 278.547,-86.7038"/>
<text text-anchor="middle" x="283.489" y="-92.8971" font-family="Times New Roman,serif" font-size="10.00">modelObject</text>
</g>
</g>
</svg>
