<?xml version="1.0" encoding="UTF-8" standalone="no"?>
<!DOCTYPE svg PUBLIC "-//W3C//DTD SVG 1.1//EN"
 "http://www.w3.org/Graphics/SVG/1.1/DTD/svg11.dtd">
<!-- Generated by graphviz version 2.28.0 (20110507.0327)
 -->
<!-- Title: ClassDiagram Pages: 1 -->
<svg width="317pt" height="474pt"
 viewBox="0.00 0.00 316.72 474.00" xmlns="http://www.w3.org/2000/svg" xmlns:xlink="http://www.w3.org/1999/xlink">
<g id="graph1" class="graph" transform="scale(1 1) rotate(0) translate(4 470)">
<title>ClassDiagram</title>
<polygon fill="white" stroke="white" points="-4,5 -4,-470 313.719,-470 313.719,5 -4,5"/>
<!-- _Template -->
<g id="node1" class="node"><title>_Template</title>
<a xlink:href="../test/org/sdmlib/models/transformations/Template.java" xlink:title="&lt;TABLE&gt;">
<polygon fill="none" stroke="black" points="123,-286 123,-303 239,-303 239,-286 123,-286"/>
<text text-anchor="start" x="162.5" y="-292.5" font-family="Times New Roman,serif" font-size="10.00">Template</text>
</a>
<polygon fill="none" stroke="black" points="123,-168 123,-286 239,-286 239,-168 123,-168"/>
<text text-anchor="start" x="128" y="-274" font-family="Times New Roman,serif" font-size="10.00">templateText :String</text>
<text text-anchor="start" x="128" y="-260" font-family="Times New Roman,serif" font-size="10.00">expandedText :String</text>
<text text-anchor="start" x="128" y="-246" font-family="Times New Roman,serif" font-size="10.00">modelObject :Object</text>
<text text-anchor="start" x="128" y="-232" font-family="Times New Roman,serif" font-size="10.00">modelClassName :String</text>
<text text-anchor="start" x="128" y="-218" font-family="Times New Roman,serif" font-size="10.00">listStart :String</text>
<text text-anchor="start" x="128" y="-204" font-family="Times New Roman,serif" font-size="10.00">listSeparator :String</text>
<text text-anchor="start" x="128" y="-190" font-family="Times New Roman,serif" font-size="10.00">listEnd :String</text>
<text text-anchor="start" x="128" y="-176" font-family="Times New Roman,serif" font-size="10.00">referenceLookup :boolean</text>
<polygon fill="none" stroke="black" points="123,-148 123,-168 239,-168 239,-148 123,-148"/>
<text text-anchor="start" x="179.5" y="-156" font-family="Times New Roman,serif" font-size="10.00"> </text>
</g>
<!-- _PlaceHolderDescription -->
<g id="node2" class="node"><title>_PlaceHolderDescription</title>
<a xlink:href="../test/org/sdmlib/models/transformations/PlaceHolderDescription.java" xlink:title="&lt;TABLE&gt;">
<polygon fill="none" stroke="black" points="8,-86 8,-103 116,-103 116,-86 8,-86"/>
<text text-anchor="start" x="14.5" y="-92.5" font-family="Times New Roman,serif" font-size="10.00">PlaceHolderDescription</text>
</a>
<polygon fill="none" stroke="black" points="8,-24 8,-86 116,-86 116,-24 8,-24"/>
<text text-anchor="start" x="13" y="-74" font-family="Times New Roman,serif" font-size="10.00">textFragment :String</text>
<text text-anchor="start" x="13" y="-60" font-family="Times New Roman,serif" font-size="10.00">value :String</text>
<text text-anchor="start" x="13" y="-46" font-family="Times New Roman,serif" font-size="10.00">attrName :String</text>
<text text-anchor="start" x="13" y="-32" font-family="Times New Roman,serif" font-size="10.00">isKeyAttribute :boolean</text>
<polygon fill="none" stroke="black" points="8,-4 8,-24 116,-24 116,-4 8,-4"/>
<text text-anchor="start" x="60.5" y="-12" font-family="Times New Roman,serif" font-size="10.00"> </text>
</g>
<!-- _Template&#45;&gt;_PlaceHolderDescription -->
<g id="edge4" class="edge"><title>_Template&#45;&gt;_PlaceHolderDescription</title>
<path fill="none" stroke="black" d="M117.895,-144.481C109.077,-131.951 100.365,-119.291 92.5222,-107.594"/>
<text text-anchor="middle" x="101.086" y="-110.257" font-family="Times New Roman,serif" font-size="10.00">placeholders *</text>
<text text-anchor="middle" x="109.228" y="-136.992" font-family="Times New Roman,serif" font-size="10.00">owners *</text>
</g>
<!-- _ChoiceTemplate -->
<g id="node3" class="node"><title>_ChoiceTemplate</title>
<a xlink:href="../test/org/sdmlib/models/transformations/ChoiceTemplate.java" xlink:title="&lt;TABLE&gt;">
<polygon fill="none" stroke="black" points="150,-65 150,-82 222,-82 222,-65 150,-65"/>
<text text-anchor="start" x="153.5" y="-71.5" font-family="Times New Roman,serif" font-size="10.00">ChoiceTemplate</text>
</a>
<polygon fill="none" stroke="black" points="150,-45 150,-65 222,-65 222,-45 150,-45"/>
<text text-anchor="start" x="184.5" y="-53" font-family="Times New Roman,serif" font-size="10.00"> </text>
<polygon fill="none" stroke="black" points="150,-25 150,-45 222,-45 222,-25 150,-25"/>
<text text-anchor="start" x="184.5" y="-33" font-family="Times New Roman,serif" font-size="10.00"> </text>
</g>
<!-- _Template&#45;&gt;_ChoiceTemplate -->
<g id="edge2" class="edge"><title>_Template&#45;&gt;_ChoiceTemplate</title>
<path fill="none" stroke="black" d="M176.927,-134.421C177.508,-117.358 178.444,-100.597 179.655,-86.9024"/>
<polygon fill="none" stroke="black" points="173.427,-134.381 176.627,-144.481 180.424,-134.59 173.427,-134.381"/>
</g>
<!-- _Object -->
<g id="node5" class="node"><title>_Object</title>
<a xlink:href="../test/org/sdmlib/models/transformations/Object.java" xlink:title="&lt;TABLE&gt;">
<polygon fill="none" stroke="black" points="258,-65 258,-82 292,-82 292,-65 258,-65"/>
<text text-anchor="start" x="261.5" y="-71.5" font-family="Times New Roman,serif" font-size="10.00">Object</text>
</a>
<polygon fill="none" stroke="black" points="258,-45 258,-65 292,-65 292,-45 258,-45"/>
<text text-anchor="start" x="273.5" y="-53" font-family="Times New Roman,serif" font-size="10.00"> </text>
<polygon fill="none" stroke="black" points="258,-25 258,-45 292,-45 292,-25 258,-25"/>
<text text-anchor="start" x="273.5" y="-33" font-family="Times New Roman,serif" font-size="10.00"> </text>
</g>
<!-- _Template&#45;&gt;_Object -->
<g id="edge16" class="edge"><title>_Template&#45;&gt;_Object</title>
<path fill="none" stroke="black" d="M225.523,-144.481C234.875,-127.566 244.359,-110.414 252.487,-95.7143"/>
<polygon fill="black" stroke="black" points="257.36,-86.9024 256.459,-97.8312 254.94,-91.2781 252.521,-95.6537 252.521,-95.6537 252.521,-95.6537 254.94,-91.2781 248.583,-93.4762 257.36,-86.9024 257.36,-86.9024"/>
<text text-anchor="middle" x="256.673" y="-94.3788" font-family="Times New Roman,serif" font-size="10.00">modelObject</text>
</g>
<!-- _PlaceHolderDescription&#45;&gt;_Template -->
<g id="edge14" class="edge"><title>_PlaceHolderDescription&#45;&gt;_Template</title>
<path fill="none" stroke="black" d="M105.109,-107.594C113.643,-119.291 122.654,-131.951 131.378,-144.481"/>
<text text-anchor="middle" x="122.726" y="-136.967" font-family="Times New Roman,serif" font-size="10.00">subTemplate</text>
<text text-anchor="middle" x="113.859" y="-109.936" font-family="Times New Roman,serif" font-size="10.00">parents *</text>
</g>
<!-- _ChoiceTemplate&#45;&gt;_Template -->
<g id="edge6" class="edge"><title>_ChoiceTemplate&#45;&gt;_Template</title>
<path fill="none" stroke="black" d="M190.469,-86.9024C190.953,-103.284 190.787,-124.055 190.11,-144.481"/>
<text text-anchor="middle" x="186.163" y="-132.793" font-family="Times New Roman,serif" font-size="10.00">choices *</text>
<text text-anchor="middle" x="194.92" y="-93.3572" font-family="Times New Roman,serif" font-size="10.00">chooser</text>
</g>
<!-- _Match -->
<g id="node4" class="node"><title>_Match</title>
<a xlink:href="../test/org/sdmlib/models/transformations/Match.java" xlink:title="&lt;TABLE&gt;">
<polygon fill="none" stroke="black" points="135,-444 135,-461 228,-461 228,-444 135,-444"/>
<text text-anchor="start" x="168" y="-450.5" font-family="Times New Roman,serif" font-size="10.00">Match</text>
</a>
<polygon fill="none" stroke="black" points="135,-368 135,-444 228,-444 228,-368 135,-368"/>
<text text-anchor="start" x="140" y="-432" font-family="Times New Roman,serif" font-size="10.00">startPos :int</text>
<text text-anchor="start" x="140" y="-418" font-family="Times New Roman,serif" font-size="10.00">endPos :int</text>
<text text-anchor="start" x="140" y="-404" font-family="Times New Roman,serif" font-size="10.00">fullText :String</text>
<text text-anchor="start" x="140" y="-390" font-family="Times New Roman,serif" font-size="10.00">matchText :String</text>
<text text-anchor="start" x="140" y="-376" font-family="Times New Roman,serif" font-size="10.00">modelObject :Object</text>
<polygon fill="none" stroke="black" points="135,-348 135,-368 228,-368 228,-348 135,-348"/>
<text text-anchor="start" x="180" y="-356" font-family="Times New Roman,serif" font-size="10.00"> </text>
</g>
<!-- _Match&#45;&gt;_Template -->
<g id="edge8" class="edge"><title>_Match&#45;&gt;_Template</title>
<path fill="none" stroke="black" d="M181,-344.076C181,-332.342 181,-319.857 181,-307.577"/>
<text text-anchor="middle" x="185.226" y="-314.14" font-family="Times New Roman,serif" font-size="10.00">template</text>
<text text-anchor="middle" x="176.774" y="-332.513" font-family="Times New Roman,serif" font-size="10.00">matches *</text>
</g>
<!-- _Match&#45;&gt;_PlaceHolderDescription -->
<g id="edge10" class="edge"><title>_Match&#45;&gt;_PlaceHolderDescription</title>
<path fill="none" stroke="black" d="M127.363,-344.408C119.157,-332.939 111.577,-320.566 106,-308 77.0634,-242.8 67.1101,-160.272 63.7143,-107.545"/>
<text text-anchor="middle" x="68.595" y="-113.773" font-family="Times New Roman,serif" font-size="10.00">placeholder</text>
<text text-anchor="middle" x="118.689" y="-336.932" font-family="Times New Roman,serif" font-size="10.00">matches *</text>
</g>
<!-- _Match&#45;&gt;_Match -->
<g id="edge12" class="edge"><title>_Match&#45;&gt;_Match</title>
<path fill="none" stroke="black" d="M235.319,-436.778C245.676,-432.975 253,-422.383 253,-405 253,-387.617 245.676,-377.025 235.319,-373.222"/>
<text text-anchor="middle" x="245.318" y="-370.557" font-family="Times New Roman,serif" font-size="10.00">subMatches *</text>
<text text-anchor="middle" x="241.872" y="-426.724" font-family="Times New Roman,serif" font-size="10.00">parentMatch</text>
</g>
<!-- _Match&#45;&gt;_Object -->
<g id="edge18" class="edge"><title>_Match&#45;&gt;_Object</title>
<path fill="none" stroke="black" d="M235.293,-345.367C243.54,-333.706 250.964,-321.019 256,-308 283.205,-237.667 282.52,-148.252 279.082,-96.7348"/>
<polygon fill="black" stroke="black" points="278.34,-86.6455 283.561,-96.2886 278.707,-91.632 279.073,-96.6185 279.073,-96.6185 279.073,-96.6185 278.707,-91.632 274.585,-96.9485 278.34,-86.6455 278.34,-86.6455"/>
<text text-anchor="middle" x="283.219" y="-92.8743" font-family="Times New Roman,serif" font-size="10.00">modelObject</text>
</g>
</g>
</svg>
