<?xml version="1.0" encoding="UTF-8" standalone="no"?>
<!DOCTYPE svg PUBLIC "-//W3C//DTD SVG 1.1//EN"
 "http://www.w3.org/Graphics/SVG/1.1/DTD/svg11.dtd">
<!-- Generated by graphviz version 2.26.3 (20100126.1600)
 -->
<!-- Title: ClassDiagram Pages: 1 -->
<svg width="347pt" height="488pt"
 viewBox="0.00 0.00 346.66 488.00" xmlns="http://www.w3.org/2000/svg" xmlns:xlink="http://www.w3.org/1999/xlink">
<g id="graph1" class="graph" transform="scale(1 1) rotate(0) translate(4 484)">
<title>ClassDiagram</title>
<polygon fill="white" stroke="white" points="-4,5 -4,-484 343.66,-484 343.66,5 -4,5"/>
<!-- _Template -->
<g id="node1" class="node"><title>_Template</title>
<a xlink:href="../test/org/sdmlib/models/transformations/Template.java" xlink:title="&lt;TABLE&gt;">
<polygon fill="none" stroke="black" points="129,-300 129,-317 264,-317 264,-300 129,-300"/>
<text text-anchor="start" x="174.5" y="-306.167" font-family="Times Roman,serif" font-size="10.00">Template</text>
</a>
<polygon fill="none" stroke="black" points="129,-168 129,-300 264,-300 264,-168 129,-168"/>
<text text-anchor="start" x="134" y="-287.667" font-family="Times Roman,serif" font-size="10.00">templateText :String</text>
<text text-anchor="start" x="134" y="-273.667" font-family="Times Roman,serif" font-size="10.00">expandedText :String</text>
<text text-anchor="start" x="134" y="-259.667" font-family="Times Roman,serif" font-size="10.00">modelObject :Object</text>
<text text-anchor="start" x="134" y="-245.667" font-family="Times Roman,serif" font-size="10.00">modelClassName :String</text>
<text text-anchor="start" x="134" y="-231.667" font-family="Times Roman,serif" font-size="10.00">listStart :String</text>
<text text-anchor="start" x="134" y="-217.667" font-family="Times Roman,serif" font-size="10.00">listSeparator :String</text>
<text text-anchor="start" x="134" y="-203.667" font-family="Times Roman,serif" font-size="10.00">listEnd :String</text>
<text text-anchor="start" x="134" y="-189.667" font-family="Times Roman,serif" font-size="10.00">referenceLookup :boolean</text>
<text text-anchor="start" x="134" y="-175.667" font-family="Times Roman,serif" font-size="10.00">name :String</text>
<polygon fill="none" stroke="black" points="129,-148 129,-168 264,-168 264,-148 129,-148"/>
<text text-anchor="start" x="194.5" y="-155.667" font-family="Times Roman,serif" font-size="10.00"> </text>
</g>
<!-- _PlaceHolderDescription -->
<g id="node2" class="node"><title>_PlaceHolderDescription</title>
<a xlink:href="../test/org/sdmlib/models/transformations/PlaceHolderDescription.java" xlink:title="&lt;TABLE&gt;">
<polygon fill="none" stroke="black" points="8,-86 8,-103 130,-103 130,-86 8,-86"/>
<text text-anchor="start" x="13" y="-92.1667" font-family="Times Roman,serif" font-size="10.00">PlaceHolderDescription</text>
</a>
<polygon fill="none" stroke="black" points="8,-24 8,-86 130,-86 130,-24 8,-24"/>
<text text-anchor="start" x="13" y="-73.6667" font-family="Times Roman,serif" font-size="10.00">textFragment :String</text>
<text text-anchor="start" x="13" y="-59.6667" font-family="Times Roman,serif" font-size="10.00">value :String</text>
<text text-anchor="start" x="13" y="-45.6667" font-family="Times Roman,serif" font-size="10.00">attrName :String</text>
<text text-anchor="start" x="13" y="-31.6667" font-family="Times Roman,serif" font-size="10.00">isKeyAttribute :boolean</text>
<polygon fill="none" stroke="black" points="8,-4 8,-24 130,-24 130,-4 8,-4"/>
<text text-anchor="start" x="67" y="-11.6667" font-family="Times Roman,serif" font-size="10.00"> </text>
</g>
<!-- _Template&#45;&gt;_PlaceHolderDescription -->
<g id="edge4" class="edge"><title>_Template&#45;&gt;_PlaceHolderDescription</title>
<path fill="none" stroke="black" d="M126.308,-144.287C117.444,-131.803 108.74,-119.299 100.887,-107.747"/>
<text text-anchor="middle" x="109.483" y="-110.356" font-family="Times Roman,serif" font-size="10.00">placeholders *</text>
<text text-anchor="middle" x="117.62" y="-136.836" font-family="Times Roman,serif" font-size="10.00">owners *</text>
</g>
<!-- _ChoiceTemplate -->
<g id="node3" class="node"><title>_ChoiceTemplate</title>
<a xlink:href="../test/org/sdmlib/models/transformations/ChoiceTemplate.java" xlink:title="&lt;TABLE&gt;">
<polygon fill="none" stroke="black" points="164,-65 164,-82 247,-82 247,-65 164,-65"/>
<text text-anchor="start" x="167.5" y="-71.1667" font-family="Times Roman,serif" font-size="10.00">ChoiceTemplate</text>
</a>
<polygon fill="none" stroke="black" points="164,-45 164,-65 247,-65 247,-45 164,-45"/>
<text text-anchor="start" x="203.5" y="-52.6667" font-family="Times Roman,serif" font-size="10.00"> </text>
<polygon fill="none" stroke="black" points="164,-25 164,-45 247,-45 247,-25 164,-25"/>
<text text-anchor="start" x="203.5" y="-32.6667" font-family="Times Roman,serif" font-size="10.00"> </text>
</g>
<!-- _Template&#45;&gt;_ChoiceTemplate -->
<g id="edge2" class="edge"><title>_Template&#45;&gt;_ChoiceTemplate</title>
<path fill="none" stroke="black" d="M194.251,-134.176C195.232,-117.063 196.522,-100.409 197.994,-86.7541"/>
<polygon fill="none" stroke="black" points="190.75,-134.114 193.711,-144.287 197.74,-134.488 190.75,-134.114"/>
</g>
<!-- _Object -->
<g id="node5" class="node"><title>_Object</title>
<a xlink:href="../test/org/sdmlib/models/transformations/Object.java" xlink:title="&lt;TABLE&gt;">
<polygon fill="none" stroke="black" points="280,-65 280,-82 318,-82 318,-65 280,-65"/>
<text text-anchor="start" x="283.5" y="-71.1667" font-family="Times Roman,serif" font-size="10.00">Object</text>
</a>
<polygon fill="none" stroke="black" points="280,-45 280,-65 318,-65 318,-45 280,-45"/>
<text text-anchor="start" x="297" y="-52.6667" font-family="Times Roman,serif" font-size="10.00"> </text>
<polygon fill="none" stroke="black" points="280,-25 280,-45 318,-45 318,-25 280,-25"/>
<text text-anchor="start" x="297" y="-32.6667" font-family="Times Roman,serif" font-size="10.00"> </text>
</g>
<!-- _Template&#45;&gt;_Object -->
<g id="edge16" class="edge"><title>_Template&#45;&gt;_Object</title>
<path fill="none" stroke="black" d="M247.047,-144.287C256.85,-127.251 266.674,-110.177 275.1,-95.5349"/>
<polygon fill="black" stroke="black" points="280.153,-86.7541 279.066,-97.6659 277.659,-91.0878 275.165,-95.4216 275.165,-95.4216 275.165,-95.4216 277.659,-91.0878 271.265,-93.1772 280.153,-86.7541 280.153,-86.7541"/>
<text text-anchor="middle" x="279.296" y="-94.2173" font-family="Times Roman,serif" font-size="10.00">modelObject</text>
</g>
<!-- _PlaceHolderDescription&#45;&gt;_Template -->
<g id="edge14" class="edge"><title>_PlaceHolderDescription&#45;&gt;_Template</title>
<path fill="none" stroke="black" d="M113.38,-107.747C121.919,-119.299 130.958,-131.803 139.808,-144.287"/>
<text text-anchor="middle" x="131.114" y="-136.845" font-family="Times Roman,serif" font-size="10.00">subTemplate</text>
<text text-anchor="middle" x="122.16" y="-110.033" font-family="Times Roman,serif" font-size="10.00">parents *</text>
</g>
<!-- _ChoiceTemplate&#45;&gt;_Template -->
<g id="edge6" class="edge"><title>_ChoiceTemplate&#45;&gt;_Template</title>
<path fill="none" stroke="black" d="M208.713,-86.7541C208.83,-103.089 208.257,-123.715 207.21,-144.287"/>
<text text-anchor="middle" x="203.429" y="-132.529" font-family="Times Roman,serif" font-size="10.00">choices *</text>
<text text-anchor="middle" x="212.966" y="-93.3047" font-family="Times Roman,serif" font-size="10.00">chooser</text>
</g>
<!-- _Match -->
<g id="node4" class="node"><title>_Match</title>
<a xlink:href="../test/org/sdmlib/models/transformations/Match.java" xlink:title="&lt;TABLE&gt;">
<polygon fill="none" stroke="black" points="142,-458 142,-475 251,-475 251,-458 142,-458"/>
<text text-anchor="start" x="181.5" y="-464.167" font-family="Times Roman,serif" font-size="10.00">Match</text>
</a>
<polygon fill="none" stroke="black" points="142,-382 142,-458 251,-458 251,-382 142,-382"/>
<text text-anchor="start" x="147" y="-445.667" font-family="Times Roman,serif" font-size="10.00">startPos :int</text>
<text text-anchor="start" x="147" y="-431.667" font-family="Times Roman,serif" font-size="10.00">endPos :int</text>
<text text-anchor="start" x="147" y="-417.667" font-family="Times Roman,serif" font-size="10.00">fullText :String</text>
<text text-anchor="start" x="147" y="-403.667" font-family="Times Roman,serif" font-size="10.00">matchText :String</text>
<text text-anchor="start" x="147" y="-389.667" font-family="Times Roman,serif" font-size="10.00">modelObject :Object</text>
<polygon fill="none" stroke="black" points="142,-362 142,-382 251,-382 251,-362 142,-362"/>
<text text-anchor="start" x="194.5" y="-369.667" font-family="Times Roman,serif" font-size="10.00"> </text>
</g>
<!-- _Match&#45;&gt;_Template -->
<g id="edge8" class="edge"><title>_Match&#45;&gt;_Template</title>
<path fill="none" stroke="black" d="M196,-358.354C196,-346.587 196,-334.03 196,-321.579"/>
<text text-anchor="middle" x="200.226" y="-328.142" font-family="Times Roman,serif" font-size="10.00">template</text>
<text text-anchor="middle" x="191.774" y="-346.791" font-family="Times Roman,serif" font-size="10.00">matches *</text>
</g>
<!-- _Match&#45;&gt;_PlaceHolderDescription -->
<g id="edge10" class="edge"><title>_Match&#45;&gt;_PlaceHolderDescription</title>
<path fill="none" stroke="black" d="M134.873,-358.42C126.032,-347.053 117.932,-334.719 112,-322 79.6836,-252.709 71.0582,-163.597 69.0747,-107.622"/>
<text text-anchor="middle" x="73.7106" y="-113.983" font-family="Times Roman,serif" font-size="10.00">placeholder</text>
<text text-anchor="middle" x="126.011" y="-351.287" font-family="Times Roman,serif" font-size="10.00">matches *</text>
</g>
<!-- _Match&#45;&gt;_Match -->
<g id="edge12" class="edge"><title>_Match&#45;&gt;_Match</title>
<path fill="none" stroke="black" d="M258.055,-451.557C268.655,-447.108 276,-436.256 276,-419 276,-401.744 268.655,-390.892 258.055,-386.443"/>
<text text-anchor="middle" x="268.052" y="-384.184" font-family="Times Roman,serif" font-size="10.00">subMatches *</text>
<text text-anchor="middle" x="264.296" y="-441.244" font-family="Times Roman,serif" font-size="10.00">parentMatch</text>
</g>
<!-- _Match&#45;&gt;_Object -->
<g id="edge18" class="edge"><title>_Match&#45;&gt;_Object</title>
<path fill="none" stroke="black" d="M258.095,-358.845C266.824,-347.429 274.635,-334.969 280,-322 310.821,-247.494 308.682,-151.414 304.042,-96.8654"/>
<polygon fill="black" stroke="black" points="303.122,-86.8529 308.518,-96.3991 303.58,-91.8319 304.037,-96.811 304.037,-96.811 304.037,-96.811 303.58,-91.8319 299.556,-97.2228 303.122,-86.8529 303.122,-86.8529"/>
<text text-anchor="middle" x="308.16" y="-92.9912" font-family="Times Roman,serif" font-size="10.00">modelObject</text>
</g>
</g>
</svg>
