<?xml version="1.0" encoding="UTF-8" standalone="no"?>
<!DOCTYPE svg PUBLIC "-//W3C//DTD SVG 1.1//EN"
 "http://www.w3.org/Graphics/SVG/1.1/DTD/svg11.dtd">
<!-- Generated by graphviz version 2.28.0 (20110507.0327)
 -->
<!-- Title: ObjectDiagram Pages: 1 -->
<svg width="365pt" height="434pt"
 viewBox="0.00 0.00 365.00 434.00" xmlns="http://www.w3.org/2000/svg" xmlns:xlink="http://www.w3.org/1999/xlink">
<g id="graph1" class="graph" transform="scale(1 1) rotate(0) translate(4 430)">
<title>ObjectDiagram</title>
<polygon fill="white" stroke="white" points="-4,5 -4,-430 362,-430 362,5 -4,5"/>
<g id="graph2" class="cluster"><title>cluster_n6</title>
<polygon fill="none" stroke="grey" points="8,-8 8,-189 219,-189 219,-8 8,-8"/>
<image xlink:href="../../SDMLib/doc/forbiddensign.svg" width="30px" height="30px" preserveAspectRatio="xMinYMin meet" x="72" y="-180"/>
<text text-anchor="start" x="108.5" y="-161.8" font-family="Times New Roman,serif" font-size="14.00">NAC n6</text>
</g>
<g id="graph3" class="cluster"><title>cluster_o10</title>
<polygon fill="none" stroke="grey" points="233,-197 233,-290 335,-290 335,-197 233,-197"/>
<text text-anchor="start" x="249.5" y="-270.8" font-family="Times New Roman,serif" font-size="14.00">optional o10</text>
</g>
<!-- r1 -->
<g id="node1" class="node"><title>r1</title>
<polygon fill="deepskyblue" stroke="deepskyblue" points="289,-384.5 289,-421.5 349,-421.5 349,-384.5 289,-384.5"/>
<polygon fill="none" stroke="black" points="289,-404 289,-421 349,-421 349,-404 289,-404"/>
<text text-anchor="start" x="292.5" y="-410.5" font-family="Times New Roman,serif" font-size="10.00"> </text>
<text text-anchor="start" x="295.5" y="-410.5" font-family="Times New Roman,serif" font-size="10.00"> r1 :RiverPO </text>
<polygon fill="none" stroke="black" points="289,-384 289,-404 349,-404 349,-384 289,-384"/>
<text text-anchor="start" x="316.5" y="-392" font-family="Times New Roman,serif" font-size="10.00"> &#160;</text>
</g>
<!-- b2 -->
<g id="node2" class="node"><title>b2</title>
<polygon fill="deepskyblue" stroke="deepskyblue" points="218,-302.5 218,-339.5 278,-339.5 278,-302.5 218,-302.5"/>
<polygon fill="none" stroke="black" points="218,-322 218,-339 278,-339 278,-322 218,-322"/>
<text text-anchor="start" x="221.5" y="-328.5" font-family="Times New Roman,serif" font-size="10.00"> </text>
<text text-anchor="start" x="224.5" y="-328.5" font-family="Times New Roman,serif" font-size="10.00"> b2 :BoatPO </text>
<polygon fill="none" stroke="black" points="218,-302 218,-322 278,-322 278,-302 218,-302"/>
<text text-anchor="start" x="245.5" y="-310" font-family="Times New Roman,serif" font-size="10.00"> &#160;</text>
</g>
<!-- r1&#45;&#45;b2 -->
<g id="edge8" class="edge"><title>r1&#45;&#45;b2</title>
<path fill="none" stroke="black" d="M299.599,-380.14C289.499,-368.759 277.192,-354.893 267.132,-343.557"/>
<text text-anchor="middle" x="276.309" y="-345.03" font-family="Times New Roman,serif" font-size="10.00">boat</text>
</g>
<!-- b4 -->
<g id="node4" class="node"><title>b4</title>
<polygon fill="deepskyblue" stroke="deepskyblue" points="253,-92.5 253,-129.5 315,-129.5 315,-92.5 253,-92.5"/>
<polygon fill="none" stroke="black" points="253,-112 253,-129 315,-129 315,-112 253,-112"/>
<text text-anchor="start" x="256.5" y="-118.5" font-family="Times New Roman,serif" font-size="10.00"> </text>
<text text-anchor="start" x="259.5" y="-118.5" font-family="Times New Roman,serif" font-size="10.00"> b4 :BankPO </text>
<polygon fill="none" stroke="black" points="253,-92 253,-112 315,-112 315,-92 253,-92"/>
<text text-anchor="start" x="281.5" y="-100" font-family="Times New Roman,serif" font-size="10.00"> &#160;</text>
</g>
<!-- r1&#45;&#45;b4 -->
<g id="edge12" class="edge"><title>r1&#45;&#45;b4</title>
<path fill="none" stroke="black" d="M326.42,-380.242C338.224,-342.237 358.091,-261.646 339,-197 331.981,-173.232 316.009,-149.86 303.076,-133.658"/>
<text text-anchor="middle" x="311.985" y="-135.699" font-family="Times New Roman,serif" font-size="10.00">banks</text>
</g>
<!-- b3 -->
<g id="node3" class="node"><title>b3</title>
<polygon fill="deepskyblue" stroke="deepskyblue" points="115,-209.5 115,-246.5 177,-246.5 177,-209.5 115,-209.5"/>
<polygon fill="none" stroke="black" points="115,-229 115,-246 177,-246 177,-229 115,-229"/>
<text text-anchor="start" x="118.5" y="-235.5" font-family="Times New Roman,serif" font-size="10.00"> </text>
<text text-anchor="start" x="121.5" y="-235.5" font-family="Times New Roman,serif" font-size="10.00"> b3 :BankPO </text>
<polygon fill="none" stroke="black" points="115,-209 115,-229 177,-229 177,-209 115,-209"/>
<text text-anchor="start" x="143.5" y="-217" font-family="Times New Roman,serif" font-size="10.00"> &#160;</text>
</g>
<!-- b2&#45;&#45;b3 -->
<g id="edge10" class="edge"><title>b2&#45;&#45;b3</title>
<path fill="none" stroke="black" d="M209.742,-303.948C202.807,-299.775 195.939,-295.027 190,-290 176.186,-278.308 162.836,-262.91 154.142,-250.51"/>
<text text-anchor="middle" x="162.872" y="-252.887" font-family="Times New Roman,serif" font-size="10.00">bank</text>
</g>
<!-- b2&#45;&#45;b3 -->
<g id="edge18" class="edge"><title>b2&#45;&#45;b3</title>
<path fill="none" stroke="red" d="M218.943,-298.365C215.162,-295.707 211.426,-292.9 208,-290 194.186,-278.308 180.836,-262.91 169.839,-250.51"/>
<text text-anchor="middle" x="179.011" y="-251.993" font-family="Times New Roman,serif" font-size="10.00" fill="red">bank</text>
</g>
<!-- b2&#45;&#45;b4 -->
<g id="edge20" class="edge"><title>b2&#45;&#45;b4</title>
<path fill="none" stroke="green" d="M232.386,-298.397C231.007,-295.673 229.824,-292.842 229,-290 217.487,-250.303 217.293,-236.641 229,-197 236.019,-173.232 251.991,-149.86 264.924,-133.658"/>
<text text-anchor="middle" x="262.676" y="-140.902" font-family="Times New Roman,serif" font-size="10.00" fill="green">bank</text>
</g>
<!-- c11 -->
<g id="node11" class="node"><title>c11</title>
<polygon fill="deepskyblue" stroke="deepskyblue" points="249.5,-209.5 249.5,-246.5 318.5,-246.5 318.5,-209.5 249.5,-209.5"/>
<polygon fill="none" stroke="black" points="250,-229 250,-246 319,-246 319,-229 250,-229"/>
<text text-anchor="start" x="253.5" y="-235.5" font-family="Times New Roman,serif" font-size="10.00"> </text>
<text text-anchor="start" x="256.5" y="-235.5" font-family="Times New Roman,serif" font-size="10.00"> c11 :CargoPO </text>
<polygon fill="none" stroke="black" points="250,-209 250,-229 319,-229 319,-209 250,-209"/>
<text text-anchor="start" x="282" y="-217" font-family="Times New Roman,serif" font-size="10.00"> &#160;</text>
</g>
<!-- b2&#45;&#45;c11 -->
<g id="edge24" class="edge"><title>b2&#45;&#45;c11</title>
<path fill="none" stroke="red" d="M250.692,-298.434C255.18,-284.033 262.641,-265.16 269.552,-250.726"/>
<text text-anchor="middle" x="269.535" y="-258.226" font-family="Times New Roman,serif" font-size="10.00" fill="red">cargo</text>
</g>
<!-- b2&#45;&#45;c11 -->
<g id="edge22" class="edge"><title>b2&#45;&#45;c11</title>
<path fill="none" stroke="black" d="M262.371,-298.434C269.277,-284.033 276.748,-265.16 281.258,-250.726"/>
<text text-anchor="middle" x="282.495" y="-258.15" font-family="Times New Roman,serif" font-size="10.00">cargo</text>
</g>
<!-- c7 -->
<g id="node7" class="node"><title>c7</title>
<polygon fill="deepskyblue" stroke="deepskyblue" points="123.5,-92.5 123.5,-129.5 202.5,-129.5 202.5,-92.5 123.5,-92.5"/>
<polygon fill="none" stroke="black" points="124,-112 124,-129 203,-129 203,-112 124,-112"/>
<text text-anchor="start" x="134.5" y="-118.5" font-family="Times New Roman,serif" font-size="10.00"> </text>
<text text-anchor="start" x="137.5" y="-118.5" font-family="Times New Roman,serif" font-size="10.00"> c7 :CargoPO </text>
<polygon fill="none" stroke="black" points="124,-92 124,-112 203,-112 203,-92 124,-92"/>
<text text-anchor="start" x="129.5" y="-100" font-family="Times New Roman,serif" font-size="10.00"> name == &quot;goat&quot; </text>
</g>
<!-- b3&#45;&#45;c7 -->
<g id="edge14" class="edge"><title>b3&#45;&#45;c7</title>
<path fill="none" stroke="black" d="M149.198,-205.369C152.237,-184.809 156.782,-154.062 159.817,-133.534"/>
<text text-anchor="middle" x="162.672" y="-140.617" font-family="Times New Roman,serif" font-size="10.00">cargos</text>
</g>
<!-- c8 -->
<g id="node8" class="node"><title>c8</title>
<polygon fill="deepskyblue" stroke="deepskyblue" points="24.5,-92.5 24.5,-129.5 89.5,-129.5 89.5,-92.5 24.5,-92.5"/>
<polygon fill="none" stroke="black" points="25,-112 25,-129 90,-129 90,-112 25,-112"/>
<text text-anchor="start" x="28.5" y="-118.5" font-family="Times New Roman,serif" font-size="10.00"> </text>
<text text-anchor="start" x="31.5" y="-118.5" font-family="Times New Roman,serif" font-size="10.00"> c8 :CargoPO </text>
<polygon fill="none" stroke="black" points="25,-92 25,-112 90,-112 90,-92 25,-92"/>
<text text-anchor="start" x="55" y="-100" font-family="Times New Roman,serif" font-size="10.00"> &#160;</text>
</g>
<!-- b3&#45;&#45;c8 -->
<g id="edge16" class="edge"><title>b3&#45;&#45;c8</title>
<path fill="none" stroke="black" d="M121.346,-205.394C116.033,-200.252 110.628,-194.62 106,-189 91.5964,-171.508 77.995,-149.532 68.7939,-133.539"/>
<text text-anchor="middle" x="77.0036" y="-136.749" font-family="Times New Roman,serif" font-size="10.00">cargos</text>
</g>
<!-- m5 -->
<g id="node5" class="node"><title>m5</title>
<text text-anchor="middle" x="284" y="-31.5" font-family="Times New Roman,serif" font-size="10.00">{b4 != b3}</text>
</g>
<!-- b4&#45;&#45;m5 -->
<g id="edge4" class="edge"><title>b4&#45;&#45;m5</title>
<path fill="none" stroke="black" stroke-dasharray="1,5" d="M284,-88.3069C284,-76.8856 284,-63.0699 284,-52.3655"/>
</g>
<!-- m9 -->
<g id="node9" class="node"><title>m9</title>
<text text-anchor="middle" x="57" y="-31.5" font-family="Times New Roman,serif" font-size="10.00">{c8 != c7}</text>
</g>
<!-- c8&#45;&#45;m9 -->
<g id="edge6" class="edge"><title>c8&#45;&#45;m9</title>
<path fill="none" stroke="black" stroke-dasharray="1,5" d="M57,-88.3069C57,-76.8856 57,-63.0699 57,-52.3655"/>
</g>
<!-- c11&#45;&#45;b4 -->
<g id="edge26" class="edge"><title>c11&#45;&#45;b4</title>
<path fill="none" stroke="green" d="M284,-205.369C284,-184.809 284,-154.062 284,-133.534"/>
<text text-anchor="middle" x="288.226" y="-140.097" font-family="Times New Roman,serif" font-size="10.00" fill="green">bank</text>
</g>
</g>
</svg>
