<?xml version="1.0" encoding="UTF-8" standalone="no"?>
<!DOCTYPE svg PUBLIC "-//W3C//DTD SVG 1.1//EN"
 "http://www.w3.org/Graphics/SVG/1.1/DTD/svg11.dtd">
<!-- Generated by graphviz version 2.28.0 (20110507.0327)
 -->
<!-- Title: ClassDiagram Pages: 1 -->
<svg width="1201pt" height="448pt"
 viewBox="0.00 0.00 1201.00 448.00" xmlns="http://www.w3.org/2000/svg" xmlns:xlink="http://www.w3.org/1999/xlink">
<g id="graph1" class="graph" transform="scale(1 1) rotate(0) translate(4 444)">
<title>ClassDiagram</title>
<polygon fill="white" stroke="white" points="-4,5 -4,-444 1198,-444 1198,5 -4,5"/>
<!-- _PatternElement -->
<g id="node1" class="node"><title>_PatternElement</title>
<a xlink:href="../src/org/sdmlib/models/pattern/PatternElement.java" xlink:title="&lt;TABLE&gt;">
<polygon fill="none" stroke="black" points="596,-418 596,-435 713,-435 713,-418 596,-418"/>
<text text-anchor="start" x="624" y="-424.5" font-family="Times New Roman,serif" font-size="10.00">PatternElement</text>
</a>
<polygon fill="none" stroke="black" points="596,-356 596,-418 713,-418 713,-356 596,-356"/>
<text text-anchor="start" x="601" y="-406" font-family="Times New Roman,serif" font-size="10.00">modifier :String</text>
<text text-anchor="start" x="601" y="-392" font-family="Times New Roman,serif" font-size="10.00">hasMatch :boolean</text>
<text text-anchor="start" x="601" y="-378" font-family="Times New Roman,serif" font-size="10.00">patternObjectName :String</text>
<text text-anchor="start" x="601" y="-364" font-family="Times New Roman,serif" font-size="10.00">doAllMatches :boolean</text>
<polygon fill="none" stroke="black" points="596,-336 596,-356 713,-356 713,-336 596,-336"/>
<text text-anchor="start" x="653" y="-344" font-family="Times New Roman,serif" font-size="10.00"> </text>
</g>
<!-- _Pattern -->
<g id="node2" class="node"><title>_Pattern</title>
<a xlink:href="../src/org/sdmlib/models/pattern/Pattern.java" xlink:title="&lt;TABLE&gt;">
<polygon fill="none" stroke="black" points="110,-267 110,-284 227,-284 227,-267 110,-267"/>
<text text-anchor="start" x="154" y="-273.5" font-family="Times New Roman,serif" font-size="10.00">Pattern</text>
</a>
<polygon fill="none" stroke="black" points="110,-219 110,-267 227,-267 227,-219 110,-219"/>
<text text-anchor="start" x="115" y="-255" font-family="Times New Roman,serif" font-size="10.00">currentSubPattern :Pattern</text>
<text text-anchor="start" x="115" y="-241" font-family="Times New Roman,serif" font-size="10.00">debugMode :int</text>
<text text-anchor="start" x="115" y="-227" font-family="Times New Roman,serif" font-size="10.00">trace :StringBuilder</text>
<polygon fill="none" stroke="black" points="110,-199 110,-219 227,-219 227,-199 110,-199"/>
<text text-anchor="start" x="167" y="-207" font-family="Times New Roman,serif" font-size="10.00"> </text>
</g>
<!-- _PatternElement&#45;&gt;_Pattern -->
<g id="edge2" class="edge"><title>_PatternElement&#45;&gt;_Pattern</title>
<path fill="none" stroke="black" d="M577.564,-375.548C495.02,-363.285 360.929,-338.293 252,-296 246.197,-293.747 240.319,-291.176 234.507,-288.408"/>
<polygon fill="none" stroke="black" points="577.218,-379.034 587.618,-377.016 578.229,-372.108 577.218,-379.034"/>
</g>
<!-- _PatternObject -->
<g id="node6" class="node"><title>_PatternObject</title>
<a xlink:href="../src/org/sdmlib/models/pattern/PatternObject.java" xlink:title="&lt;TABLE&gt;">
<polygon fill="none" stroke="black" points="606,-130 606,-147 703,-147 703,-130 606,-130"/>
<text text-anchor="start" x="627" y="-136.5" font-family="Times New Roman,serif" font-size="10.00">PatternObject</text>
</a>
<polygon fill="none" stroke="black" points="606,-96 606,-130 703,-130 703,-96 606,-96"/>
<text text-anchor="start" x="611" y="-118" font-family="Times New Roman,serif" font-size="10.00">currentMatch :Object</text>
<text text-anchor="start" x="611" y="-104" font-family="Times New Roman,serif" font-size="10.00">candidates :Object</text>
<polygon fill="none" stroke="black" points="606,-76 606,-96 703,-96 703,-76 606,-76"/>
<text text-anchor="start" x="653" y="-84" font-family="Times New Roman,serif" font-size="10.00"> </text>
</g>
<!-- _PatternElement&#45;&gt;_PatternObject -->
<g id="edge8" class="edge"><title>_PatternElement&#45;&gt;_PatternObject</title>
<path fill="none" stroke="black" d="M716.931,-323.939C723.043,-315.155 728.327,-305.764 732,-296 748.901,-251.074 750.803,-232.164 732,-188 726.26,-174.518 716.777,-162.289 706.364,-151.801"/>
<polygon fill="none" stroke="black" points="713.978,-322.045 710.843,-332.165 719.605,-326.209 713.978,-322.045"/>
</g>
<!-- _PatternLink -->
<g id="node7" class="node"><title>_PatternLink</title>
<a xlink:href="../src/org/sdmlib/models/pattern/PatternLink.java" xlink:title="&lt;TABLE&gt;">
<polygon fill="none" stroke="black" points="908,-260 908,-277 1031,-277 1031,-260 908,-260"/>
<text text-anchor="start" x="946.5" y="-266.5" font-family="Times New Roman,serif" font-size="10.00">PatternLink</text>
</a>
<polygon fill="none" stroke="black" points="908,-226 908,-260 1031,-260 1031,-226 908,-226"/>
<text text-anchor="start" x="913" y="-248" font-family="Times New Roman,serif" font-size="10.00">tgtRoleName :String</text>
<text text-anchor="start" x="913" y="-234" font-family="Times New Roman,serif" font-size="10.00">hostGraphSrcObject :Object</text>
<polygon fill="none" stroke="black" points="908,-206 908,-226 1031,-226 1031,-206 908,-206"/>
<text text-anchor="start" x="968" y="-214" font-family="Times New Roman,serif" font-size="10.00"> </text>
</g>
<!-- _PatternElement&#45;&gt;_PatternLink -->
<g id="edge10" class="edge"><title>_PatternElement&#45;&gt;_PatternLink</title>
<path fill="none" stroke="black" d="M729.767,-332.145C798.383,-304.116 825.517,-323.678 890,-296 899.106,-292.091 908.283,-287.104 916.998,-281.757"/>
<polygon fill="none" stroke="black" points="728.079,-329.061 720.267,-336.217 730.837,-335.495 728.079,-329.061"/>
</g>
<!-- _AttributeConstraint -->
<g id="node8" class="node"><title>_AttributeConstraint</title>
<a xlink:href="../src/org/sdmlib/models/pattern/AttributeConstraint.java" xlink:title="&lt;TABLE&gt;">
<polygon fill="none" stroke="black" points="279,-267 279,-284 402,-284 402,-267 279,-267"/>
<text text-anchor="start" x="301" y="-273.5" font-family="Times New Roman,serif" font-size="10.00">AttributeConstraint</text>
</a>
<polygon fill="none" stroke="black" points="279,-219 279,-267 402,-267 402,-219 279,-219"/>
<text text-anchor="start" x="284" y="-255" font-family="Times New Roman,serif" font-size="10.00">attrName :String</text>
<text text-anchor="start" x="284" y="-241" font-family="Times New Roman,serif" font-size="10.00">tgtValue :Object</text>
<text text-anchor="start" x="284" y="-227" font-family="Times New Roman,serif" font-size="10.00">hostGraphSrcObject :Object</text>
<polygon fill="none" stroke="black" points="279,-199 279,-219 402,-219 402,-199 279,-199"/>
<text text-anchor="start" x="339" y="-207" font-family="Times New Roman,serif" font-size="10.00"> </text>
</g>
<!-- _PatternElement&#45;&gt;_AttributeConstraint -->
<g id="edge12" class="edge"><title>_PatternElement&#45;&gt;_AttributeConstraint</title>
<path fill="none" stroke="black" d="M578.047,-361.463C530.797,-345.588 469.451,-322.703 418,-296 413.641,-293.737 409.232,-291.277 404.845,-288.697"/>
<polygon fill="none" stroke="black" points="577.01,-364.807 587.604,-364.643 579.221,-358.165 577.01,-364.807"/>
</g>
<!-- _MatchIsomorphicConstraint -->
<g id="node10" class="node"><title>_MatchIsomorphicConstraint</title>
<a xlink:href="../src/org/sdmlib/models/pattern/MatchIsomorphicConstraint.java" xlink:title="&lt;TABLE&gt;">
<polygon fill="none" stroke="black" points="1065,-253 1065,-270 1186,-270 1186,-253 1065,-253"/>
<text text-anchor="start" x="1068.5" y="-259.5" font-family="Times New Roman,serif" font-size="10.00">MatchIsomorphicConstraint</text>
</a>
<polygon fill="none" stroke="black" points="1065,-233 1065,-253 1186,-253 1186,-233 1065,-233"/>
<text text-anchor="start" x="1124" y="-241" font-family="Times New Roman,serif" font-size="10.00"> </text>
<polygon fill="none" stroke="black" points="1065,-213 1065,-233 1186,-233 1186,-213 1065,-213"/>
<text text-anchor="start" x="1124" y="-221" font-family="Times New Roman,serif" font-size="10.00"> </text>
</g>
<!-- _PatternElement&#45;&gt;_MatchIsomorphicConstraint -->
<g id="edge16" class="edge"><title>_PatternElement&#45;&gt;_MatchIsomorphicConstraint</title>
<path fill="none" stroke="black" d="M729.936,-332.127C864.283,-284.187 916.618,-344.3 1047,-296 1060.66,-290.938 1074.25,-282.99 1086.17,-274.774"/>
<polygon fill="none" stroke="black" points="728.705,-328.85 720.543,-335.605 731.136,-335.415 728.705,-328.85"/>
</g>
<!-- _DestroyObjectElem -->
<g id="node11" class="node"><title>_DestroyObjectElem</title>
<a xlink:href="../src/org/sdmlib/models/pattern/DestroyObjectElem.java" xlink:title="&lt;TABLE&gt;">
<polygon fill="none" stroke="black" points="789,-253 789,-270 874,-270 874,-253 789,-253"/>
<text text-anchor="start" x="792.5" y="-259.5" font-family="Times New Roman,serif" font-size="10.00">DestroyObjectElem</text>
</a>
<polygon fill="none" stroke="black" points="789,-233 789,-253 874,-253 874,-233 789,-233"/>
<text text-anchor="start" x="830" y="-241" font-family="Times New Roman,serif" font-size="10.00"> </text>
<polygon fill="none" stroke="black" points="789,-213 789,-233 874,-233 874,-213 789,-213"/>
<text text-anchor="start" x="830" y="-221" font-family="Times New Roman,serif" font-size="10.00"> </text>
</g>
<!-- _PatternElement&#45;&gt;_DestroyObjectElem -->
<g id="edge18" class="edge"><title>_PatternElement&#45;&gt;_DestroyObjectElem</title>
<path fill="none" stroke="black" d="M728.602,-325.932C741.109,-315.968 753.938,-305.709 766,-296 774.507,-289.152 783.608,-281.768 792.226,-274.749"/>
<polygon fill="none" stroke="black" points="726.084,-323.463 720.44,-332.429 730.444,-328.939 726.084,-323.463"/>
</g>
<!-- _CardinalityConstraint -->
<g id="node12" class="node"><title>_CardinalityConstraint</title>
<a xlink:href="../src/org/sdmlib/models/pattern/CardinalityConstraint.java" xlink:title="&lt;TABLE&gt;">
<polygon fill="none" stroke="black" points="436,-274 436,-291 559,-291 559,-274 436,-274"/>
<text text-anchor="start" x="454.5" y="-280.5" font-family="Times New Roman,serif" font-size="10.00">CardinalityConstraint</text>
</a>
<polygon fill="none" stroke="black" points="436,-212 436,-274 559,-274 559,-212 436,-212"/>
<text text-anchor="start" x="441" y="-262" font-family="Times New Roman,serif" font-size="10.00">tgtRoleName :String</text>
<text text-anchor="start" x="441" y="-248" font-family="Times New Roman,serif" font-size="10.00">hostGraphSrcObject :Object</text>
<text text-anchor="start" x="441" y="-234" font-family="Times New Roman,serif" font-size="10.00">minCard :long</text>
<text text-anchor="start" x="441" y="-220" font-family="Times New Roman,serif" font-size="10.00">maxCard :long</text>
<polygon fill="none" stroke="black" points="436,-192 436,-212 559,-212 559,-192 436,-192"/>
<text text-anchor="start" x="496" y="-200" font-family="Times New Roman,serif" font-size="10.00"> </text>
</g>
<!-- _PatternElement&#45;&gt;_CardinalityConstraint -->
<g id="edge20" class="edge"><title>_PatternElement&#45;&gt;_CardinalityConstraint</title>
<path fill="none" stroke="black" d="M588.06,-325.36C577.164,-315.505 565.937,-305.351 555.248,-295.683"/>
<polygon fill="none" stroke="black" points="585.775,-328.012 595.539,-332.124 590.47,-322.821 585.775,-328.012"/>
</g>
<!-- _MatchOtherThen -->
<g id="node13" class="node"><title>_MatchOtherThen</title>
<a xlink:href="../src/org/sdmlib/models/pattern/MatchOtherThen.java" xlink:title="&lt;TABLE&gt;">
<polygon fill="none" stroke="black" points="593,-253 593,-270 716,-270 716,-253 593,-253"/>
<text text-anchor="start" x="619.5" y="-259.5" font-family="Times New Roman,serif" font-size="10.00">MatchOtherThen</text>
</a>
<polygon fill="none" stroke="black" points="593,-233 593,-253 716,-253 716,-233 593,-233"/>
<text text-anchor="start" x="598" y="-241" font-family="Times New Roman,serif" font-size="10.00">hostGraphSrcObject :Object</text>
<polygon fill="none" stroke="black" points="593,-213 593,-233 716,-233 716,-213 593,-213"/>
<text text-anchor="start" x="653" y="-221" font-family="Times New Roman,serif" font-size="10.00"> </text>
</g>
<!-- _PatternElement&#45;&gt;_MatchOtherThen -->
<g id="edge22" class="edge"><title>_PatternElement&#45;&gt;_MatchOtherThen</title>
<path fill="none" stroke="black" d="M654,-322.067C654,-305.743 654,-288.843 654,-274.879"/>
<polygon fill="none" stroke="black" points="650.5,-322.124 654,-332.124 657.5,-322.124 650.5,-322.124"/>
</g>
<!-- _Pattern&#45;&gt;_PatternElement -->
<g id="edge24" class="edge"><title>_Pattern&#45;&gt;_PatternElement</title>
<path fill="none" stroke="black" d="M234.318,-279.232C245.958,-285.456 258.133,-291.393 270,-296 377.603,-337.778 509.759,-362.674 587.708,-375.095"/>
<text text-anchor="middle" x="578.079" y="-375.292" font-family="Times New Roman,serif" font-size="10.00">elements *</text>
<text text-anchor="middle" x="244.305" y="-277.239" font-family="Times New Roman,serif" font-size="10.00">pattern</text>
</g>
<!-- _Pattern&#45;&gt;_Pattern -->
<g id="edge40" class="edge"><title>_Pattern&#45;&gt;_Pattern</title>
<path fill="none" stroke="black" d="M234.545,-264.338C244.924,-260.999 252,-253.553 252,-242 252,-234.238 248.806,-228.33 243.562,-224.275"/>
<polygon fill="black" stroke="black" points="234.545,-219.662 245.497,-220.211 238.996,-221.939 243.447,-224.217 243.447,-224.217 243.447,-224.217 238.996,-221.939 241.397,-228.223 234.545,-219.662 234.545,-219.662"/>
<text text-anchor="middle" x="244.538" y="-217.528" font-family="Times New Roman,serif" font-size="10.00">currentSubPattern</text>
</g>
<!-- _StringBuilder -->
<g id="node3" class="node"><title>_StringBuilder</title>
<a xlink:href="../src/java/lang/StringBuilder.java" xlink:title="&lt;TABLE&gt;">
<polygon fill="none" stroke="black" points="8,-123 8,-140 68,-140 68,-123 8,-123"/>
<text text-anchor="start" x="11.5" y="-129.5" font-family="Times New Roman,serif" font-size="10.00">StringBuilder</text>
</a>
<polygon fill="none" stroke="black" points="8,-103 8,-123 68,-123 68,-103 8,-103"/>
<text text-anchor="start" x="36.5" y="-111" font-family="Times New Roman,serif" font-size="10.00"> </text>
<polygon fill="none" stroke="black" points="8,-83 8,-103 68,-103 68,-83 8,-83"/>
<text text-anchor="start" x="36.5" y="-91" font-family="Times New Roman,serif" font-size="10.00"> </text>
</g>
<!-- _Pattern&#45;&gt;_StringBuilder -->
<g id="edge42" class="edge"><title>_Pattern&#45;&gt;_StringBuilder</title>
<path fill="none" stroke="black" d="M121.434,-195.151C107.05,-180.987 91.3523,-165.531 77.4934,-151.886"/>
<polygon fill="black" stroke="black" points="70.0032,-144.511 80.2862,-148.32 73.5661,-148.019 77.1289,-151.527 77.1289,-151.527 77.1289,-151.527 73.5661,-148.019 73.9717,-154.734 70.0032,-144.511 70.0032,-144.511"/>
<text text-anchor="middle" x="79.4264" y="-145.358" font-family="Times New Roman,serif" font-size="10.00">trace</text>
</g>
<!-- _NegativeApplicationCondition -->
<g id="node4" class="node"><title>_NegativeApplicationCondition</title>
<a xlink:href="../src/org/sdmlib/models/pattern/NegativeApplicationCondition.java" xlink:title="&lt;TABLE&gt;">
<polygon fill="none" stroke="black" points="103,-123 103,-140 234,-140 234,-123 103,-123"/>
<text text-anchor="start" x="106.5" y="-129.5" font-family="Times New Roman,serif" font-size="10.00">NegativeApplicationCondition</text>
</a>
<polygon fill="none" stroke="black" points="103,-103 103,-123 234,-123 234,-103 103,-103"/>
<text text-anchor="start" x="167" y="-111" font-family="Times New Roman,serif" font-size="10.00"> </text>
<polygon fill="none" stroke="black" points="103,-83 103,-103 234,-103 234,-83 103,-83"/>
<text text-anchor="start" x="167" y="-91" font-family="Times New Roman,serif" font-size="10.00"> </text>
</g>
<!-- _Pattern&#45;&gt;_NegativeApplicationCondition -->
<g id="edge4" class="edge"><title>_Pattern&#45;&gt;_NegativeApplicationCondition</title>
<path fill="none" stroke="black" d="M168,-185.146C168,-171.226 168,-156.784 168,-144.511"/>
<polygon fill="none" stroke="black" points="164.5,-185.151 168,-195.151 171.5,-185.151 164.5,-185.151"/>
</g>
<!-- _OptionalSubPattern -->
<g id="node5" class="node"><title>_OptionalSubPattern</title>
<a xlink:href="../src/org/sdmlib/models/pattern/OptionalSubPattern.java" xlink:title="&lt;TABLE&gt;">
<polygon fill="none" stroke="black" points="268,-123 268,-140 373,-140 373,-123 268,-123"/>
<text text-anchor="start" x="281" y="-129.5" font-family="Times New Roman,serif" font-size="10.00">OptionalSubPattern</text>
</a>
<polygon fill="none" stroke="black" points="268,-103 268,-123 373,-123 373,-103 268,-103"/>
<text text-anchor="start" x="273" y="-111" font-family="Times New Roman,serif" font-size="10.00">matchForward :boolean</text>
<polygon fill="none" stroke="black" points="268,-83 268,-103 373,-103 373,-83 268,-83"/>
<text text-anchor="start" x="319" y="-91" font-family="Times New Roman,serif" font-size="10.00"> </text>
</g>
<!-- _Pattern&#45;&gt;_OptionalSubPattern -->
<g id="edge6" class="edge"><title>_Pattern&#45;&gt;_OptionalSubPattern</title>
<path fill="none" stroke="black" d="M230.488,-188.378C248.177,-173.483 266.875,-157.737 282.581,-144.511"/>
<polygon fill="none" stroke="black" points="227.841,-186.032 222.446,-195.151 232.35,-191.386 227.841,-186.032"/>
</g>
<!-- _Object -->
<g id="node38" class="node"><title>_Object</title>
<text text-anchor="middle" x="569" y="-15.5" font-family="Times New Roman,serif" font-size="10.00">_Object</text>
</g>
<!-- _PatternObject&#45;&gt;_Object -->
<g id="edge44" class="edge"><title>_PatternObject&#45;&gt;_Object</title>
<path fill="none" stroke="black" d="M611.524,-72.2504C602.523,-62.7235 593.524,-52.7711 586.088,-44.0834"/>
<polygon fill="black" stroke="black" points="579.488,-36.1966 589.357,-40.978 582.697,-40.0312 585.906,-43.8659 585.906,-43.8659 585.906,-43.8659 582.697,-40.0312 582.455,-46.7537 579.488,-36.1966 579.488,-36.1966"/>
<text text-anchor="middle" x="588.546" y="-37.9352" font-family="Times New Roman,serif" font-size="10.00">currentMatch</text>
</g>
<!-- _PatternObject&#45;&gt;_Object -->
<g id="edge46" class="edge"><title>_PatternObject&#45;&gt;_Object</title>
<path fill="none" stroke="black" d="M624.874,-72.2504C616.004,-62.4289 606.298,-52.1551 597.465,-43.281"/>
<polygon fill="black" stroke="black" points="590.288,-36.1966 600.566,-40.0192 593.846,-39.7092 597.405,-43.2217 597.405,-43.2217 597.405,-43.2217 593.846,-39.7092 594.243,-46.4243 590.288,-36.1966 590.288,-36.1966"/>
<text text-anchor="middle" x="599.707" y="-37.0558" font-family="Times New Roman,serif" font-size="10.00">candidates</text>
</g>
<!-- _PatternLink&#45;&gt;_PatternObject -->
<g id="edge26" class="edge"><title>_PatternLink&#45;&gt;_PatternObject</title>
<path fill="none" stroke="black" d="M906.917,-202.396C898.402,-197.157 889.628,-192.161 881,-188 825.237,-161.111 757.535,-140.741 710.572,-128.065"/>
<text text-anchor="middle" x="720.431" y="-123.891" font-family="Times New Roman,serif" font-size="10.00">tgt</text>
<text text-anchor="middle" x="896.98" y="-198.781" font-family="Times New Roman,serif" font-size="10.00">incomming *</text>
</g>
<!-- _PatternLink&#45;&gt;_PatternObject -->
<g id="edge28" class="edge"><title>_PatternLink&#45;&gt;_PatternObject</title>
<path fill="none" stroke="black" d="M924.708,-202.396C916.402,-197.157 907.628,-192.161 899,-188 837.428,-158.31 761.301,-136.569 710.295,-124.355"/>
<text text-anchor="middle" x="720.106" y="-119.921" font-family="Times New Roman,serif" font-size="10.00">src</text>
<text text-anchor="middle" x="914.782" y="-198.681" font-family="Times New Roman,serif" font-size="10.00">outgoing *</text>
</g>
<!-- _LinkConstraint -->
<g id="node9" class="node"><title>_LinkConstraint</title>
<a xlink:href="../src/org/sdmlib/models/pattern/LinkConstraint.java" xlink:title="&lt;TABLE&gt;">
<polygon fill="none" stroke="black" points="866,-123 866,-140 933,-140 933,-123 866,-123"/>
<text text-anchor="start" x="869.5" y="-129.5" font-family="Times New Roman,serif" font-size="10.00">LinkConstraint</text>
</a>
<polygon fill="none" stroke="black" points="866,-103 866,-123 933,-123 933,-103 866,-103"/>
<text text-anchor="start" x="898" y="-111" font-family="Times New Roman,serif" font-size="10.00"> </text>
<polygon fill="none" stroke="black" points="866,-83 866,-103 933,-103 933,-83 866,-83"/>
<text text-anchor="start" x="898" y="-91" font-family="Times New Roman,serif" font-size="10.00"> </text>
</g>
<!-- _PatternLink&#45;&gt;_LinkConstraint -->
<g id="edge14" class="edge"><title>_PatternLink&#45;&gt;_LinkConstraint</title>
<path fill="none" stroke="black" d="M942.975,-193.412C934.095,-177.174 924.388,-159.424 916.359,-144.742"/>
<polygon fill="none" stroke="black" points="939.939,-195.154 947.808,-202.248 946.08,-191.795 939.939,-195.154"/>
</g>
<!-- _PatternLink&#45;&gt;_Object -->
<g id="edge48" class="edge"><title>_PatternLink&#45;&gt;_Object</title>
<path fill="none" stroke="black" d="M976.532,-202.493C981.613,-164.065 982.284,-105.983 949,-72 901.908,-23.9192 692.396,-18.7206 606.215,-18.664"/>
<polygon fill="black" stroke="black" points="596.096,-18.681 606.088,-14.1641 601.096,-18.6725 606.096,-18.6641 606.096,-18.6641 606.096,-18.6641 601.096,-18.6725 606.104,-23.1641 596.096,-18.681 596.096,-18.681"/>
<text text-anchor="middle" x="605.152" y="-11.9396" font-family="Times New Roman,serif" font-size="10.00">hostGraphSrcObject</text>
</g>
<!-- _AttributeConstraint&#45;&gt;_PatternObject -->
<g id="edge30" class="edge"><title>_AttributeConstraint&#45;&gt;_PatternObject</title>
<path fill="none" stroke="black" d="M404.267,-195.283C408.832,-192.676 413.435,-190.218 418,-188 476.584,-159.537 548.481,-138.496 597.416,-126.061"/>
<text text-anchor="middle" x="589.709" y="-129.932" font-family="Times New Roman,serif" font-size="10.00">src</text>
<text text-anchor="middle" x="410.064" y="-184.635" font-family="Times New Roman,serif" font-size="10.00">attrConstraints *</text>
</g>
<!-- _AttributeConstraint&#45;&gt;_Object -->
<g id="edge50" class="edge"><title>_AttributeConstraint&#45;&gt;_Object</title>
<path fill="none" stroke="black" d="M381.589,-195.271C427.45,-148.981 499.828,-79.2042 539.984,-42.8837"/>
<polygon fill="black" stroke="black" points="547.568,-36.0825 543.127,-46.1091 543.845,-39.4207 540.123,-42.7589 540.123,-42.7589 540.123,-42.7589 543.845,-39.4207 537.118,-39.4087 547.568,-36.0825 547.568,-36.0825"/>
<text text-anchor="middle" x="543.642" y="-42.7797" font-family="Times New Roman,serif" font-size="10.00">tgtValue</text>
</g>
<!-- _AttributeConstraint&#45;&gt;_Object -->
<g id="edge52" class="edge"><title>_AttributeConstraint&#45;&gt;_Object</title>
<path fill="none" stroke="black" d="M392.753,-195.271C442.183,-149.174 513.371,-79.7853 548.306,-43.3394"/>
<polygon fill="black" stroke="black" points="555.19,-36.0825 551.573,-46.4346 551.749,-39.7101 548.308,-43.3377 548.308,-43.3377 548.308,-43.3377 551.749,-39.7101 545.043,-40.2407 555.19,-36.0825 555.19,-36.0825"/>
<text text-anchor="middle" x="552.019" y="-43.0664" font-family="Times New Roman,serif" font-size="10.00">hostGraphSrcObject</text>
</g>
<!-- _DestroyObjectElem&#45;&gt;_PatternObject -->
<g id="edge32" class="edge"><title>_DestroyObjectElem&#45;&gt;_PatternObject</title>
<path fill="none" stroke="black" d="M793.323,-209.282C784.484,-202.121 775.012,-194.669 766,-188 748.223,-174.846 728.309,-161.183 710.258,-149.18"/>
<text text-anchor="middle" x="720.142" y="-148.195" font-family="Times New Roman,serif" font-size="10.00">patternObject</text>
<text text-anchor="middle" x="783.617" y="-204.376" font-family="Times New Roman,serif" font-size="10.00">destroyElem</text>
</g>
<!-- _CardinalityConstraint&#45;&gt;_PatternObject -->
<g id="edge34" class="edge"><title>_CardinalityConstraint&#45;&gt;_PatternObject</title>
<path fill="none" stroke="black" d="M561.764,-188.199C576.8,-175.94 592.529,-163.117 606.652,-151.602"/>
<text text-anchor="middle" x="602.298" y="-158.105" font-family="Times New Roman,serif" font-size="10.00">src</text>
<text text-anchor="middle" x="566.118" y="-176.696" font-family="Times New Roman,serif" font-size="10.00">cardConstraints *</text>
</g>
<!-- _CardinalityConstraint&#45;&gt;_Object -->
<g id="edge54" class="edge"><title>_CardinalityConstraint&#45;&gt;_Object</title>
<path fill="none" stroke="black" d="M514.063,-188.389C528.597,-143.576 548.887,-81.0139 560.303,-45.8155"/>
<polygon fill="black" stroke="black" points="563.41,-36.2352 564.606,-47.1358 561.868,-40.9914 560.325,-45.7475 560.325,-45.7475 560.325,-45.7475 561.868,-40.9914 556.045,-44.3592 563.41,-36.2352 563.41,-36.2352"/>
<text text-anchor="middle" x="564.634" y="-43.66" font-family="Times New Roman,serif" font-size="10.00">hostGraphSrcObject</text>
</g>
<!-- _MatchOtherThen&#45;&gt;_PatternObject -->
<g id="edge36" class="edge"><title>_MatchOtherThen&#45;&gt;_PatternObject</title>
<path fill="none" stroke="black" d="M648.084,-209.36C647.099,-191.888 646.986,-170.05 647.747,-151.583"/>
<text text-anchor="middle" x="651.646" y="-158.292" font-family="Times New Roman,serif" font-size="10.00">src</text>
<text text-anchor="middle" x="643.409" y="-198.02" font-family="Times New Roman,serif" font-size="10.00">matchOtherThen *</text>
</g>
<!-- _MatchOtherThen&#45;&gt;_PatternObject -->
<g id="edge38" class="edge"><title>_MatchOtherThen&#45;&gt;_PatternObject</title>
<path fill="none" stroke="black" d="M659.916,-209.36C660.901,-191.888 661.014,-170.05 660.253,-151.583"/>
<text text-anchor="middle" x="664.801" y="-157.989" font-family="Times New Roman,serif" font-size="10.00">forbidden</text>
<text text-anchor="middle" x="656.15" y="-197.596" font-family="Times New Roman,serif" font-size="10.00">excluders *</text>
</g>
<!-- _MatchOtherThen&#45;&gt;_Object -->
<g id="edge56" class="edge"><title>_MatchOtherThen&#45;&gt;_Object</title>
<path fill="none" stroke="black" d="M624.324,-209.189C611.078,-193.196 596.557,-172.817 588,-152 573.752,-117.338 569.905,-73.7949 569.015,-46.1727"/>
<polygon fill="black" stroke="black" points="568.799,-36.0723 573.512,-45.974 568.906,-41.0712 569.013,-46.07 569.013,-46.07 569.013,-46.07 568.906,-41.0712 564.514,-46.166 568.799,-36.0723 568.799,-36.0723"/>
<text text-anchor="middle" x="573.218" y="-42.5432" font-family="Times New Roman,serif" font-size="10.00">hostGraphSrcObject</text>
</g>
<!-- _JsonIdMap -->
<g id="node14" class="node"><title>_JsonIdMap</title>
<a xlink:href="../src/org/sdmlib/serialization/json/JsonIdMap.java" xlink:title="&lt;TABLE&gt;">
<polygon fill="none" stroke="black" points="747,-397 747,-414 800,-414 800,-397 747,-397"/>
<text text-anchor="start" x="750.5" y="-403.5" font-family="Times New Roman,serif" font-size="10.00">JsonIdMap</text>
</a>
<polygon fill="none" stroke="black" points="747,-377 747,-397 800,-397 800,-377 747,-377"/>
<text text-anchor="start" x="772" y="-385" font-family="Times New Roman,serif" font-size="10.00"> </text>
<polygon fill="none" stroke="black" points="747,-357 747,-377 800,-377 800,-357 747,-357"/>
<text text-anchor="start" x="772" y="-365" font-family="Times New Roman,serif" font-size="10.00"> </text>
</g>
<!-- _SDMLibJsonIdMap -->
<g id="node15" class="node"><title>_SDMLibJsonIdMap</title>
<a xlink:href="../src/org/sdmlib/serialization/json/SDMLibJsonIdMap.java" xlink:title="&lt;TABLE&gt;">
<polygon fill="none" stroke="black" points="834,-397 834,-414 921,-414 921,-397 834,-397"/>
<text text-anchor="start" x="837.5" y="-403.5" font-family="Times New Roman,serif" font-size="10.00">SDMLibJsonIdMap</text>
</a>
<polygon fill="none" stroke="black" points="834,-377 834,-397 921,-397 921,-377 834,-377"/>
<text text-anchor="start" x="876" y="-385" font-family="Times New Roman,serif" font-size="10.00"> </text>
<polygon fill="none" stroke="black" points="834,-357 834,-377 921,-377 921,-357 834,-357"/>
<text text-anchor="start" x="876" y="-365" font-family="Times New Roman,serif" font-size="10.00"> </text>
</g>
</g>
</svg>
