<?xml version="1.0" encoding="UTF-8" standalone="no"?>
<!DOCTYPE svg PUBLIC "-//W3C//DTD SVG 1.1//EN"
 "http://www.w3.org/Graphics/SVG/1.1/DTD/svg11.dtd">
<!-- Generated by graphviz version 2.28.0 (20110507.0327)
 -->
<!-- Title: ClassDiagram Pages: 1 -->
<svg width="1609pt" height="448pt"
 viewBox="0.00 0.00 1609.00 448.00" xmlns="http://www.w3.org/2000/svg" xmlns:xlink="http://www.w3.org/1999/xlink">
<g id="graph1" class="graph" transform="scale(1 1) rotate(0) translate(4 444)">
<title>ClassDiagram</title>
<polygon fill="white" stroke="white" points="-4,5 -4,-444 1606,-444 1606,5 -4,5"/>
<!-- _PatternElement -->
<g id="node1" class="node"><title>_PatternElement</title>
<a xlink:href="../src/org/sdmlib/models/pattern/PatternElement.java" xlink:title="&lt;TABLE&gt;">
<polygon fill="none" stroke="black" points="718,-418 718,-435 845,-435 845,-418 718,-418"/>
<text text-anchor="start" x="747.5" y="-424.5" font-family="Arial" font-size="10.00">PatternElement</text>
</a>
<polygon fill="none" stroke="black" points="718,-356 718,-418 845,-418 845,-356 718,-356"/>
<text text-anchor="start" x="723" y="-406" font-family="Arial" font-size="10.00">modifier :String</text>
<text text-anchor="start" x="723" y="-392" font-family="Arial" font-size="10.00">hasMatch :boolean</text>
<text text-anchor="start" x="723" y="-378" font-family="Arial" font-size="10.00">patternObjectName :String</text>
<text text-anchor="start" x="723" y="-364" font-family="Arial" font-size="10.00">doAllMatches :boolean</text>
<polygon fill="none" stroke="black" points="718,-336 718,-356 845,-356 845,-336 718,-336"/>
<text text-anchor="start" x="779.5" y="-344" font-family="Arial" font-size="10.00"> </text>
</g>
<!-- _Pattern -->
<g id="node2" class="node"><title>_Pattern</title>
<a xlink:href="../src/org/sdmlib/models/pattern/Pattern.java" xlink:title="&lt;TABLE&gt;">
<polygon fill="none" stroke="black" points="138,-274 138,-291 266,-291 266,-274 138,-274"/>
<text text-anchor="start" x="186" y="-280.5" font-family="Arial" font-size="10.00">Pattern</text>
</a>
<polygon fill="none" stroke="black" points="138,-212 138,-274 266,-274 266,-212 138,-212"/>
<text text-anchor="start" x="143" y="-262" font-family="Arial" font-size="10.00">currentSubPattern :Pattern</text>
<text text-anchor="start" x="143" y="-248" font-family="Arial" font-size="10.00">debugMode :int</text>
<text text-anchor="start" x="143" y="-234" font-family="Arial" font-size="10.00">trace :StringBuilder</text>
<text text-anchor="start" x="143" y="-220" font-family="Arial" font-size="10.00">name :String</text>
<polygon fill="none" stroke="black" points="138,-192 138,-212 266,-212 266,-192 138,-192"/>
<text text-anchor="start" x="200" y="-200" font-family="Arial" font-size="10.00"> </text>
</g>
<!-- _PatternElement&#45;&gt;_Pattern -->
<g id="edge2" class="edge"><title>_PatternElement&#45;&gt;_Pattern</title>
<path fill="none" stroke="black" d="M699.139,-378.244C600.212,-368.023 430.068,-344.441 292,-296 286.113,-293.935 280.151,-291.557 274.243,-288.979"/>
<polygon fill="none" stroke="black" points="699.068,-381.755 709.37,-379.28 699.773,-374.79 699.068,-381.755"/>
</g>
<!-- _PatternObject -->
<g id="node6" class="node"><title>_PatternObject</title>
<a xlink:href="../src/org/sdmlib/models/pattern/PatternObject.java" xlink:title="&lt;TABLE&gt;">
<polygon fill="none" stroke="black" points="1141,-130 1141,-147 1244,-147 1244,-130 1141,-130"/>
<text text-anchor="start" x="1162" y="-136.5" font-family="Arial" font-size="10.00">PatternObject</text>
</a>
<polygon fill="none" stroke="black" points="1141,-96 1141,-130 1244,-130 1244,-96 1141,-96"/>
<text text-anchor="start" x="1146" y="-118" font-family="Arial" font-size="10.00">currentMatch :Object</text>
<text text-anchor="start" x="1146" y="-104" font-family="Arial" font-size="10.00">candidates :Object</text>
<polygon fill="none" stroke="black" points="1141,-76 1141,-96 1244,-96 1244,-76 1141,-76"/>
<text text-anchor="start" x="1190.5" y="-84" font-family="Arial" font-size="10.00"> </text>
</g>
<!-- _PatternElement&#45;&gt;_PatternObject -->
<g id="edge8" class="edge"><title>_PatternElement&#45;&gt;_PatternObject</title>
<path fill="none" stroke="black" d="M861.701,-332.1C861.801,-332.067 861.9,-332.033 862,-332 919.13,-312.882 1361.84,-339.99 1403,-296 1435.79,-260.95 1430.68,-227.215 1403,-188 1368.92,-139.722 1300.93,-122.333 1251.3,-116.173"/>
<polygon fill="none" stroke="black" points="860.553,-328.792 852.468,-335.639 863.058,-335.329 860.553,-328.792"/>
</g>
<!-- _PatternLink -->
<g id="node7" class="node"><title>_PatternLink</title>
<a xlink:href="../src/org/sdmlib/models/pattern/PatternLink.java" xlink:title="&lt;TABLE&gt;">
<polygon fill="none" stroke="black" points="787,-260 787,-277 922,-277 922,-260 787,-260"/>
<text text-anchor="start" x="829.5" y="-266.5" font-family="Arial" font-size="10.00">PatternLink</text>
</a>
<polygon fill="none" stroke="black" points="787,-226 787,-260 922,-260 922,-226 787,-226"/>
<text text-anchor="start" x="792" y="-248" font-family="Arial" font-size="10.00">tgtRoleName :String</text>
<text text-anchor="start" x="792" y="-234" font-family="Arial" font-size="10.00">hostGraphSrcObject :Object</text>
<polygon fill="none" stroke="black" points="787,-206 787,-226 922,-226 922,-206 787,-206"/>
<text text-anchor="start" x="852.5" y="-214" font-family="Arial" font-size="10.00"> </text>
</g>
<!-- _PatternElement&#45;&gt;_PatternLink -->
<g id="edge10" class="edge"><title>_PatternElement&#45;&gt;_PatternLink</title>
<path fill="none" stroke="black" d="M812.875,-322.997C820.087,-308.968 827.544,-294.463 834.095,-281.72"/>
<polygon fill="none" stroke="black" points="809.642,-321.631 808.183,-332.124 815.867,-324.831 809.642,-321.631"/>
</g>
<!-- _AttributeConstraint -->
<g id="node8" class="node"><title>_AttributeConstraint</title>
<a xlink:href="../src/org/sdmlib/models/pattern/AttributeConstraint.java" xlink:title="&lt;TABLE&gt;">
<polygon fill="none" stroke="black" points="956,-274 956,-291 1091,-291 1091,-274 956,-274"/>
<text text-anchor="start" x="982.5" y="-280.5" font-family="Arial" font-size="10.00">AttributeConstraint</text>
</a>
<polygon fill="none" stroke="black" points="956,-212 956,-274 1091,-274 1091,-212 956,-212"/>
<text text-anchor="start" x="961" y="-262" font-family="Arial" font-size="10.00">attrName :String</text>
<text text-anchor="start" x="961" y="-248" font-family="Arial" font-size="10.00">tgtValue :Object</text>
<text text-anchor="start" x="961" y="-234" font-family="Arial" font-size="10.00">cmpOp :String</text>
<text text-anchor="start" x="961" y="-220" font-family="Arial" font-size="10.00">hostGraphSrcObject :Object</text>
<polygon fill="none" stroke="black" points="956,-192 956,-212 1091,-212 1091,-192 956,-192"/>
<text text-anchor="start" x="1021.5" y="-200" font-family="Arial" font-size="10.00"> </text>
</g>
<!-- _PatternElement&#45;&gt;_AttributeConstraint -->
<g id="edge12" class="edge"><title>_PatternElement&#45;&gt;_AttributeConstraint</title>
<path fill="none" stroke="black" d="M861.422,-332.324C861.615,-332.216 861.808,-332.108 862,-332 894.603,-313.725 905.199,-313.917 938,-296 941.205,-294.249 944.456,-292.429 947.724,-290.563"/>
<polygon fill="none" stroke="black" points="859.584,-329.344 852.672,-337.374 863.083,-335.407 859.584,-329.344"/>
</g>
<!-- _MatchIsomorphicConstraint -->
<g id="node10" class="node"><title>_MatchIsomorphicConstraint</title>
<a xlink:href="../src/org/sdmlib/models/pattern/MatchIsomorphicConstraint.java" xlink:title="&lt;TABLE&gt;">
<polygon fill="none" stroke="black" points="318,-253 318,-270 444,-270 444,-253 318,-253"/>
<text text-anchor="start" x="321.5" y="-259.5" font-family="Arial" font-size="10.00">MatchIsomorphicConstraint</text>
</a>
<polygon fill="none" stroke="black" points="318,-233 318,-253 444,-253 444,-233 318,-233"/>
<text text-anchor="start" x="379" y="-241" font-family="Arial" font-size="10.00"> </text>
<polygon fill="none" stroke="black" points="318,-213 318,-233 444,-233 444,-213 318,-213"/>
<text text-anchor="start" x="379" y="-221" font-family="Arial" font-size="10.00"> </text>
</g>
<!-- _PatternElement&#45;&gt;_MatchIsomorphicConstraint -->
<g id="edge16" class="edge"><title>_PatternElement&#45;&gt;_MatchIsomorphicConstraint</title>
<path fill="none" stroke="black" d="M699.524,-369.739C633.341,-355.616 538.59,-331.414 461,-296 448.269,-290.189 435.279,-282.485 423.571,-274.756"/>
<polygon fill="none" stroke="black" points="698.978,-373.201 709.484,-371.835 700.419,-366.351 698.978,-373.201"/>
</g>
<!-- _CloneOp -->
<g id="node11" class="node"><title>_CloneOp</title>
<a xlink:href="../src/org/sdmlib/models/pattern/CloneOp.java" xlink:title="&lt;TABLE&gt;">
<polygon fill="none" stroke="black" points="479,-253 479,-270 524,-270 524,-253 479,-253"/>
<text text-anchor="start" x="482.5" y="-259.5" font-family="Arial" font-size="10.00">CloneOp</text>
</a>
<polygon fill="none" stroke="black" points="479,-233 479,-253 524,-253 524,-233 479,-233"/>
<text text-anchor="start" x="499.5" y="-241" font-family="Arial" font-size="10.00"> </text>
<polygon fill="none" stroke="black" points="479,-213 479,-233 524,-233 524,-213 479,-213"/>
<text text-anchor="start" x="499.5" y="-221" font-family="Arial" font-size="10.00"> </text>
</g>
<!-- _PatternElement&#45;&gt;_CloneOp -->
<g id="edge18" class="edge"><title>_PatternElement&#45;&gt;_CloneOp</title>
<path fill="none" stroke="black" d="M699.958,-367.291C650.577,-353.649 588.128,-331.067 541,-296 533.139,-290.151 526.088,-282.343 520.176,-274.522"/>
<polygon fill="none" stroke="black" points="699.085,-370.68 709.652,-369.901 700.906,-363.921 699.085,-370.68"/>
</g>
<!-- _UnifyGraphsOp -->
<g id="node12" class="node"><title>_UnifyGraphsOp</title>
<a xlink:href="../src/org/sdmlib/models/pattern/UnifyGraphsOp.java" xlink:title="&lt;TABLE&gt;">
<polygon fill="none" stroke="black" points="558,-253 558,-270 632,-270 632,-253 558,-253"/>
<text text-anchor="start" x="561.5" y="-259.5" font-family="Arial" font-size="10.00">UnifyGraphsOp</text>
</a>
<polygon fill="none" stroke="black" points="558,-233 558,-253 632,-253 632,-233 558,-233"/>
<text text-anchor="start" x="593" y="-241" font-family="Arial" font-size="10.00"> </text>
<polygon fill="none" stroke="black" points="558,-213 558,-233 632,-233 632,-213 558,-213"/>
<text text-anchor="start" x="593" y="-221" font-family="Arial" font-size="10.00"> </text>
</g>
<!-- _PatternElement&#45;&gt;_UnifyGraphsOp -->
<g id="edge20" class="edge"><title>_PatternElement&#45;&gt;_UnifyGraphsOp</title>
<path fill="none" stroke="black" d="M700.867,-334.398C683.336,-322.394 665.192,-309.218 649,-296 640.961,-289.437 632.741,-281.878 625.218,-274.562"/>
<polygon fill="none" stroke="black" points="699.171,-337.477 709.412,-340.192 703.1,-331.683 699.171,-337.477"/>
</g>
<!-- _DestroyObjectElem -->
<g id="node13" class="node"><title>_DestroyObjectElem</title>
<a xlink:href="../src/org/sdmlib/models/pattern/DestroyObjectElem.java" xlink:title="&lt;TABLE&gt;">
<polygon fill="none" stroke="black" points="1294,-253 1294,-270 1386,-270 1386,-253 1294,-253"/>
<text text-anchor="start" x="1297.5" y="-259.5" font-family="Arial" font-size="10.00">DestroyObjectElem</text>
</a>
<polygon fill="none" stroke="black" points="1294,-233 1294,-253 1386,-253 1386,-233 1294,-233"/>
<text text-anchor="start" x="1338" y="-241" font-family="Arial" font-size="10.00"> </text>
<polygon fill="none" stroke="black" points="1294,-213 1294,-233 1386,-233 1386,-213 1294,-213"/>
<text text-anchor="start" x="1338" y="-221" font-family="Arial" font-size="10.00"> </text>
</g>
<!-- _PatternElement&#45;&gt;_DestroyObjectElem -->
<g id="edge22" class="edge"><title>_PatternElement&#45;&gt;_DestroyObjectElem</title>
<path fill="none" stroke="black" d="M861.702,-332.103C861.801,-332.069 861.901,-332.034 862,-332 1036.54,-271.615 1105.12,-366.082 1276,-296 1288.01,-291.073 1299.49,-283.06 1309.32,-274.74"/>
<polygon fill="none" stroke="black" points="860.523,-328.806 852.496,-335.722 863.083,-335.321 860.523,-328.806"/>
</g>
<!-- _CardinalityConstraint -->
<g id="node14" class="node"><title>_CardinalityConstraint</title>
<a xlink:href="../src/org/sdmlib/models/pattern/CardinalityConstraint.java" xlink:title="&lt;TABLE&gt;">
<polygon fill="none" stroke="black" points="1459,-274 1459,-291 1594,-291 1594,-274 1459,-274"/>
<text text-anchor="start" x="1481" y="-280.5" font-family="Arial" font-size="10.00">CardinalityConstraint</text>
</a>
<polygon fill="none" stroke="black" points="1459,-212 1459,-274 1594,-274 1594,-212 1459,-212"/>
<text text-anchor="start" x="1464" y="-262" font-family="Arial" font-size="10.00">tgtRoleName :String</text>
<text text-anchor="start" x="1464" y="-248" font-family="Arial" font-size="10.00">hostGraphSrcObject :Object</text>
<text text-anchor="start" x="1464" y="-234" font-family="Arial" font-size="10.00">minCard :long</text>
<text text-anchor="start" x="1464" y="-220" font-family="Arial" font-size="10.00">maxCard :long</text>
<polygon fill="none" stroke="black" points="1459,-192 1459,-212 1594,-212 1594,-192 1459,-192"/>
<text text-anchor="start" x="1524.5" y="-200" font-family="Arial" font-size="10.00"> </text>
</g>
<!-- _PatternElement&#45;&gt;_CardinalityConstraint -->
<g id="edge24" class="edge"><title>_PatternElement&#45;&gt;_CardinalityConstraint</title>
<path fill="none" stroke="black" d="M861.701,-332.1C861.801,-332.066 861.9,-332.033 862,-332 1104.55,-251.345 1191.61,-370.909 1436,-296 1440.85,-294.512 1445.72,-292.716 1450.55,-290.696"/>
<polygon fill="none" stroke="black" points="860.559,-328.79 852.463,-335.624 863.053,-335.33 860.559,-328.79"/>
</g>
<!-- _MatchOtherThen -->
<g id="node15" class="node"><title>_MatchOtherThen</title>
<a xlink:href="../src/org/sdmlib/models/pattern/MatchOtherThen.java" xlink:title="&lt;TABLE&gt;">
<polygon fill="none" stroke="black" points="1125,-253 1125,-270 1260,-270 1260,-253 1125,-253"/>
<text text-anchor="start" x="1156" y="-259.5" font-family="Arial" font-size="10.00">MatchOtherThen</text>
</a>
<polygon fill="none" stroke="black" points="1125,-233 1125,-253 1260,-253 1260,-233 1125,-233"/>
<text text-anchor="start" x="1130" y="-241" font-family="Arial" font-size="10.00">hostGraphSrcObject :Object</text>
<polygon fill="none" stroke="black" points="1125,-213 1125,-233 1260,-233 1260,-213 1125,-213"/>
<text text-anchor="start" x="1190.5" y="-221" font-family="Arial" font-size="10.00"> </text>
</g>
<!-- _PatternElement&#45;&gt;_MatchOtherThen -->
<g id="edge26" class="edge"><title>_PatternElement&#45;&gt;_MatchOtherThen</title>
<path fill="none" stroke="black" d="M861.705,-332.112C861.804,-332.075 861.902,-332.037 862,-332 964.9,-292.956 1003.68,-333.916 1107,-296 1121.37,-290.728 1135.9,-282.817 1148.79,-274.706"/>
<polygon fill="none" stroke="black" points="860.436,-328.849 852.582,-335.96 863.156,-335.299 860.436,-328.849"/>
</g>
<!-- _GenericConstraint -->
<g id="node16" class="node"><title>_GenericConstraint</title>
<a xlink:href="../src/org/sdmlib/models/pattern/GenericConstraint.java" xlink:title="&lt;TABLE&gt;">
<polygon fill="none" stroke="black" points="666,-253 666,-270 752,-270 752,-253 666,-253"/>
<text text-anchor="start" x="669.5" y="-259.5" font-family="Arial" font-size="10.00">GenericConstraint</text>
</a>
<polygon fill="none" stroke="black" points="666,-233 666,-253 752,-253 752,-233 666,-233"/>
<text text-anchor="start" x="707" y="-241" font-family="Arial" font-size="10.00"> </text>
<polygon fill="none" stroke="black" points="666,-213 666,-233 752,-233 752,-213 666,-213"/>
<text text-anchor="start" x="707" y="-221" font-family="Arial" font-size="10.00"> </text>
</g>
<!-- _PatternElement&#45;&gt;_GenericConstraint -->
<g id="edge28" class="edge"><title>_PatternElement&#45;&gt;_GenericConstraint</title>
<path fill="none" stroke="black" d="M749.558,-322.99C741.137,-306.382 732.378,-289.106 725.164,-274.879"/>
<polygon fill="none" stroke="black" points="746.546,-324.788 754.19,-332.124 752.789,-321.623 746.546,-324.788"/>
</g>
<!-- _Pattern&#45;&gt;_PatternElement -->
<g id="edge30" class="edge"><title>_Pattern&#45;&gt;_PatternElement</title>
<path fill="none" stroke="black" d="M274.25,-280.613C285.964,-286.407 298.134,-291.837 310,-296 446.956,-344.051 615.474,-367.641 709.347,-377.995"/>
<text text-anchor="middle" x="699.858" y="-378.648" font-family="Arial" font-size="10.00">elements *</text>
<text text-anchor="middle" x="284.249" y="-278.302" font-family="Arial" font-size="10.00">pattern</text>
</g>
<!-- _Pattern&#45;&gt;_Pattern -->
<g id="edge52" class="edge"><title>_Pattern&#45;&gt;_Pattern</title>
<path fill="none" stroke="black" d="M274.026,-264.112C284.748,-260.67 292,-253.299 292,-242 292,-234.409 288.726,-228.59 283.326,-224.545"/>
<polygon fill="black" stroke="black" points="274.026,-219.888 284.983,-220.342 278.497,-222.127 282.967,-224.366 282.967,-224.366 282.967,-224.366 278.497,-222.127 280.952,-228.389 274.026,-219.888 274.026,-219.888"/>
<text text-anchor="middle" x="284.022" y="-217.667" font-family="Arial" font-size="10.00">currentSubPattern</text>
</g>
<!-- _StringBuilder -->
<g id="node3" class="node"><title>_StringBuilder</title>
<a xlink:href="../src/java/lang/StringBuilder.java" xlink:title="&lt;TABLE&gt;">
<polygon fill="none" stroke="black" points="171,-123 171,-140 234,-140 234,-123 171,-123"/>
<text text-anchor="start" x="174.5" y="-129.5" font-family="Arial" font-size="10.00">StringBuilder</text>
</a>
<polygon fill="none" stroke="black" points="171,-103 171,-123 234,-123 234,-103 171,-103"/>
<text text-anchor="start" x="200.5" y="-111" font-family="Arial" font-size="10.00"> </text>
<polygon fill="none" stroke="black" points="171,-83 171,-103 234,-103 234,-83 171,-83"/>
<text text-anchor="start" x="200.5" y="-91" font-family="Arial" font-size="10.00"> </text>
</g>
<!-- _Pattern&#45;&gt;_StringBuilder -->
<g id="edge54" class="edge"><title>_Pattern&#45;&gt;_StringBuilder</title>
<path fill="none" stroke="black" d="M202,-188.199C202,-177.146 202,-165.633 202,-155.035"/>
<polygon fill="black" stroke="black" points="202,-144.792 206.5,-154.792 202,-149.792 202,-154.792 202,-154.792 202,-154.792 202,-149.792 197.5,-154.792 202,-144.792 202,-144.792"/>
<text text-anchor="middle" x="206.226" y="-151.355" font-family="Arial" font-size="10.00">trace</text>
</g>
<!-- _NegativeApplicationCondition -->
<g id="node4" class="node"><title>_NegativeApplicationCondition</title>
<a xlink:href="../src/org/sdmlib/models/pattern/NegativeApplicationCondition.java" xlink:title="&lt;TABLE&gt;">
<polygon fill="none" stroke="black" points="268,-123 268,-140 401,-140 401,-123 268,-123"/>
<text text-anchor="start" x="271.5" y="-129.5" font-family="Arial" font-size="10.00">NegativeApplicationCondition</text>
</a>
<polygon fill="none" stroke="black" points="268,-103 268,-123 401,-123 401,-103 268,-103"/>
<text text-anchor="start" x="332.5" y="-111" font-family="Arial" font-size="10.00"> </text>
<polygon fill="none" stroke="black" points="268,-83 268,-103 401,-103 401,-83 268,-83"/>
<text text-anchor="start" x="332.5" y="-91" font-family="Arial" font-size="10.00"> </text>
</g>
<!-- _Pattern&#45;&gt;_NegativeApplicationCondition -->
<g id="edge4" class="edge"><title>_Pattern&#45;&gt;_NegativeApplicationCondition</title>
<path fill="none" stroke="black" d="M263.985,-180.893C276.845,-168.423 289.909,-155.755 301.214,-144.792"/>
<polygon fill="none" stroke="black" points="261.194,-178.724 256.452,-188.199 266.067,-183.75 261.194,-178.724"/>
</g>
<!-- _OptionalSubPattern -->
<g id="node5" class="node"><title>_OptionalSubPattern</title>
<a xlink:href="../src/org/sdmlib/models/pattern/OptionalSubPattern.java" xlink:title="&lt;TABLE&gt;">
<polygon fill="none" stroke="black" points="435,-123 435,-140 548,-140 548,-123 435,-123"/>
<text text-anchor="start" x="449" y="-129.5" font-family="Arial" font-size="10.00">OptionalSubPattern</text>
</a>
<polygon fill="none" stroke="black" points="435,-103 435,-123 548,-123 548,-103 435,-103"/>
<text text-anchor="start" x="440" y="-111" font-family="Arial" font-size="10.00">matchForward :boolean</text>
<polygon fill="none" stroke="black" points="435,-83 435,-103 548,-103 548,-83 435,-83"/>
<text text-anchor="start" x="489.5" y="-91" font-family="Arial" font-size="10.00"> </text>
</g>
<!-- _Pattern&#45;&gt;_OptionalSubPattern -->
<g id="edge6" class="edge"><title>_Pattern&#45;&gt;_OptionalSubPattern</title>
<path fill="none" stroke="black" d="M283.441,-195.848C289.324,-193.067 295.217,-190.419 301,-188 350.799,-167.167 367.134,-172.672 417,-152 422.366,-149.776 427.862,-147.294 433.316,-144.69"/>
<polygon fill="none" stroke="black" points="281.696,-192.804 274.222,-200.313 284.747,-199.104 281.696,-192.804"/>
</g>
<!-- _Object -->
<g id="node50" class="node"><title>_Object</title>
<text text-anchor="middle" x="1059" y="-15.5" font-family="Arial" font-size="10.00">_Object</text>
</g>
<!-- _PatternObject&#45;&gt;_Object -->
<g id="edge56" class="edge"><title>_PatternObject&#45;&gt;_Object</title>
<path fill="none" stroke="black" d="M1132.43,-74.3748C1116.45,-63.5231 1099.93,-51.9444 1086.58,-42.1952"/>
<polygon fill="black" stroke="black" points="1078.3,-36.0788 1089.02,-38.4021 1082.32,-39.0501 1086.35,-42.0214 1086.35,-42.0214 1086.35,-42.0214 1082.32,-39.0501 1083.67,-45.6406 1078.3,-36.0788 1078.3,-36.0788"/>
<text text-anchor="middle" x="1088.1" y="-35.5655" font-family="Arial" font-size="10.00">currentMatch</text>
</g>
<!-- _PatternObject&#45;&gt;_Object -->
<g id="edge58" class="edge"><title>_PatternObject&#45;&gt;_Object</title>
<path fill="none" stroke="black" d="M1142.66,-72.2504C1126.9,-61.1889 1109.77,-49.5537 1095.12,-39.9906"/>
<polygon fill="black" stroke="black" points="1086.34,-34.3275 1097.18,-35.9693 1090.54,-37.0389 1094.74,-39.7502 1094.74,-39.7502 1094.74,-39.7502 1090.54,-37.0389 1092.3,-43.5312 1086.34,-34.3275 1086.34,-34.3275"/>
<text text-anchor="middle" x="1096.25" y="-33.1912" font-family="Arial" font-size="10.00">candidates</text>
</g>
<!-- _LinkConstraint -->
<g id="node9" class="node"><title>_LinkConstraint</title>
<a xlink:href="../src/org/sdmlib/models/pattern/LinkConstraint.java" xlink:title="&lt;TABLE&gt;">
<polygon fill="none" stroke="black" points="819,-123 819,-140 889,-140 889,-123 819,-123"/>
<text text-anchor="start" x="822.5" y="-129.5" font-family="Arial" font-size="10.00">LinkConstraint</text>
</a>
<polygon fill="none" stroke="black" points="819,-103 819,-123 889,-123 889,-103 819,-103"/>
<text text-anchor="start" x="852" y="-111" font-family="Arial" font-size="10.00"> </text>
<polygon fill="none" stroke="black" points="819,-83 819,-103 889,-103 889,-83 819,-83"/>
<text text-anchor="start" x="852" y="-91" font-family="Arial" font-size="10.00"> </text>
</g>
<!-- _PatternLink&#45;&gt;_LinkConstraint -->
<g id="edge14" class="edge"><title>_PatternLink&#45;&gt;_LinkConstraint</title>
<path fill="none" stroke="black" d="M854,-192.055C854,-176.19 854,-159.017 854,-144.742"/>
<polygon fill="none" stroke="black" points="850.5,-192.248 854,-202.248 857.5,-192.248 850.5,-192.248"/>
</g>
<!-- _PatternLink&#45;&gt;_Object -->
<g id="edge60" class="edge"><title>_PatternLink&#45;&gt;_Object</title>
<path fill="none" stroke="black" d="M889.708,-202.331C931.797,-156.751 1000.5,-82.352 1036.06,-43.8441"/>
<polygon fill="black" stroke="black" points="1043.12,-36.1949 1039.64,-46.5946 1039.73,-39.8683 1036.34,-43.5417 1036.34,-43.5417 1036.34,-43.5417 1039.73,-39.8683 1033.03,-40.4888 1043.12,-36.1949 1043.12,-36.1949"/>
<text text-anchor="middle" x="1040.08" y="-43.2205" font-family="Arial" font-size="10.00">hostGraphSrcObject</text>
</g>
<!-- _AttributeConstraint&#45;&gt;_PatternObject -->
<g id="edge32" class="edge"><title>_AttributeConstraint&#45;&gt;_PatternObject</title>
<path fill="none" stroke="black" d="M1092.71,-188.199C1108.9,-175.94 1125.83,-163.117 1141.03,-151.602"/>
<text text-anchor="middle" x="1136.36" y="-157.943" font-family="Arial" font-size="10.00">src</text>
<text text-anchor="middle" x="1097.39" y="-176.858" font-family="Arial" font-size="10.00">attrConstraints *</text>
</g>
<!-- _AttributeConstraint&#45;&gt;_Object -->
<g id="edge62" class="edge"><title>_AttributeConstraint&#45;&gt;_Object</title>
<path fill="none" stroke="black" d="M1025.69,-188.389C1031.39,-143.769 1041.89,-81.5506 1049.96,-46.2702"/>
<polygon fill="black" stroke="black" points="1052.38,-36.2352 1054.41,-47.0114 1051.21,-41.096 1050.04,-45.9568 1050.04,-45.9568 1050.04,-45.9568 1051.21,-41.096 1045.66,-44.9021 1052.38,-36.2352 1052.38,-36.2352"/>
<text text-anchor="middle" x="1054.36" y="-43.5363" font-family="Arial" font-size="10.00">tgtValue</text>
</g>
<!-- _AttributeConstraint&#45;&gt;_Object -->
<g id="edge64" class="edge"><title>_AttributeConstraint&#45;&gt;_Object</title>
<path fill="none" stroke="black" d="M1037.37,-188.389C1046.14,-143.769 1055.82,-81.5506 1059.2,-46.2702"/>
<polygon fill="black" stroke="black" points="1060.03,-36.2352 1063.69,-46.5742 1059.62,-41.218 1059.2,-46.2008 1059.2,-46.2008 1059.2,-46.2008 1059.62,-41.218 1054.72,-45.8274 1060.03,-36.2352 1060.03,-36.2352"/>
<text text-anchor="middle" x="1063.49" y="-43.1177" font-family="Arial" font-size="10.00">hostGraphSrcObject</text>
</g>
<!-- _DestroyObjectElem&#45;&gt;_PatternObject -->
<g id="edge34" class="edge"><title>_DestroyObjectElem&#45;&gt;_PatternObject</title>
<path fill="none" stroke="black" d="M1303.42,-209.36C1283.21,-191.888 1257.96,-170.05 1236.61,-151.583"/>
<text text-anchor="middle" x="1246.23" y="-151.815" font-family="Arial" font-size="10.00">patternObject</text>
<text text-anchor="middle" x="1293.8" y="-204.127" font-family="Arial" font-size="10.00">destroyElem</text>
</g>
<!-- _CardinalityConstraint&#45;&gt;_PatternObject -->
<g id="edge36" class="edge"><title>_CardinalityConstraint&#45;&gt;_PatternObject</title>
<path fill="none" stroke="black" d="M1450.55,-194.89C1445.69,-192.442 1440.81,-190.121 1436,-188 1375.07,-161.14 1301.61,-139.974 1251.32,-127.071"/>
<text text-anchor="middle" x="1261.16" y="-122.774" font-family="Arial" font-size="10.00">src</text>
<text text-anchor="middle" x="1440.56" y="-192.113" font-family="Arial" font-size="10.00">cardConstraints *</text>
</g>
<!-- _CardinalityConstraint&#45;&gt;_Object -->
<g id="edge66" class="edge"><title>_CardinalityConstraint&#45;&gt;_Object</title>
<path fill="none" stroke="black" d="M1456.54,-188.42C1404.73,-151.358 1330.94,-102.995 1260,-72 1205.28,-48.0914 1137.32,-32.9469 1096.1,-25.2259"/>
<polygon fill="black" stroke="black" points="1086.22,-23.4221 1096.86,-20.7915 1091.14,-24.3202 1096.05,-25.2183 1096.05,-25.2183 1096.05,-25.2183 1091.14,-24.3202 1095.25,-29.6451 1086.22,-23.4221 1086.22,-23.4221"/>
<text text-anchor="middle" x="1095.89" y="-18.3925" font-family="Arial" font-size="10.00">hostGraphSrcObject</text>
</g>
<!-- _MatchOtherThen&#45;&gt;_PatternObject -->
<g id="edge38" class="edge"><title>_MatchOtherThen&#45;&gt;_PatternObject</title>
<path fill="none" stroke="black" d="M1186.08,-209.36C1185.1,-191.888 1184.99,-170.05 1185.75,-151.583"/>
<text text-anchor="middle" x="1189.65" y="-158.292" font-family="Arial" font-size="10.00">src</text>
<text text-anchor="middle" x="1181.41" y="-198.02" font-family="Arial" font-size="10.00">matchOtherThen *</text>
</g>
<!-- _MatchOtherThen&#45;&gt;_PatternObject -->
<g id="edge40" class="edge"><title>_MatchOtherThen&#45;&gt;_PatternObject</title>
<path fill="none" stroke="black" d="M1197.92,-209.36C1198.9,-191.888 1199.01,-170.05 1198.25,-151.583"/>
<text text-anchor="middle" x="1202.8" y="-157.989" font-family="Arial" font-size="10.00">forbidden</text>
<text text-anchor="middle" x="1194.15" y="-197.596" font-family="Arial" font-size="10.00">excluders *</text>
</g>
<!-- _MatchOtherThen&#45;&gt;_Object -->
<g id="edge68" class="edge"><title>_MatchOtherThen&#45;&gt;_Object</title>
<path fill="none" stroke="black" d="M1165.2,-209.14C1151.97,-192.646 1136.27,-171.85 1124,-152 1102.22,-116.756 1082.1,-73.1611 1070.18,-45.7072"/>
<polygon fill="black" stroke="black" points="1066.17,-36.3682 1074.25,-43.7834 1068.14,-40.9631 1070.11,-45.5579 1070.11,-45.5579 1070.11,-45.5579 1068.14,-40.9631 1065.98,-47.3325 1066.17,-36.3682 1066.17,-36.3682"/>
<text text-anchor="middle" x="1073.63" y="-40.5304" font-family="Arial" font-size="10.00">hostGraphSrcObject</text>
</g>
<!-- _JsonIdMap -->
<g id="node17" class="node"><title>_JsonIdMap</title>
<a xlink:href="../src/org/sdmlib/serialization/json/JsonIdMap.java" xlink:title="&lt;TABLE&gt;">
<polygon fill="none" stroke="black" points="879,-397 879,-414 933,-414 933,-397 879,-397"/>
<text text-anchor="start" x="882.5" y="-403.5" font-family="Arial" font-size="10.00">JsonIdMap</text>
</a>
<polygon fill="none" stroke="black" points="879,-377 879,-397 933,-397 933,-377 879,-377"/>
<text text-anchor="start" x="904" y="-385" font-family="Arial" font-size="10.00"> </text>
<polygon fill="none" stroke="black" points="879,-357 879,-377 933,-377 933,-357 879,-357"/>
<text text-anchor="start" x="904" y="-365" font-family="Arial" font-size="10.00"> </text>
</g>
<!-- _SDMLibJsonIdMap -->
<g id="node18" class="node"><title>_SDMLibJsonIdMap</title>
<a xlink:href="../src/org/sdmlib/serialization/json/SDMLibJsonIdMap.java" xlink:title="&lt;TABLE&gt;">
<polygon fill="none" stroke="black" points="968,-397 968,-414 1057,-414 1057,-397 968,-397"/>
<text text-anchor="start" x="971.5" y="-403.5" font-family="Arial" font-size="10.00">SDMLibJsonIdMap</text>
</a>
<polygon fill="none" stroke="black" points="968,-377 968,-397 1057,-397 1057,-377 968,-377"/>
<text text-anchor="start" x="1010.5" y="-385" font-family="Arial" font-size="10.00"> </text>
<polygon fill="none" stroke="black" points="968,-357 968,-377 1057,-377 1057,-357 968,-357"/>
<text text-anchor="start" x="1010.5" y="-365" font-family="Arial" font-size="10.00"> </text>
</g>
<!-- _ReachabilityGraph -->
<g id="node19" class="node"><title>_ReachabilityGraph</title>
<a xlink:href="../src/org/sdmlib/models/pattern/ReachabilityGraph.java" xlink:title="&lt;TABLE&gt;">
<polygon fill="none" stroke="black" points="13,-397 13,-414 100,-414 100,-397 13,-397"/>
<text text-anchor="start" x="16.5" y="-403.5" font-family="Arial" font-size="10.00">ReachabilityGraph</text>
</a>
<polygon fill="none" stroke="black" points="13,-377 13,-397 100,-397 100,-377 13,-377"/>
<text text-anchor="start" x="54.5" y="-385" font-family="Arial" font-size="10.00"> </text>
<polygon fill="none" stroke="black" points="13,-357 13,-377 100,-377 100,-357 13,-357"/>
<text text-anchor="start" x="54.5" y="-365" font-family="Arial" font-size="10.00"> </text>
</g>
<!-- _ReachabilityGraph&#45;&gt;_Pattern -->
<g id="edge50" class="edge"><title>_ReachabilityGraph&#45;&gt;_Pattern</title>
<path fill="none" stroke="black" d="M88.4021,-353.486C105.876,-336.49 127.901,-315.069 147.894,-295.623"/>
<text text-anchor="middle" x="144.344" y="-302.472" font-family="Arial" font-size="10.00">rules *</text>
<text text-anchor="middle" x="91.9525" y="-341.637" font-family="Arial" font-size="10.00">rgraph</text>
</g>
<!-- _ReachableState -->
<g id="node20" class="node"><title>_ReachableState</title>
<a xlink:href="../src/org/sdmlib/models/pattern/ReachableState.java" xlink:title="&lt;TABLE&gt;">
<polygon fill="none" stroke="black" points="11,-260 11,-277 101,-277 101,-260 11,-260"/>
<text text-anchor="start" x="21" y="-266.5" font-family="Arial" font-size="10.00">ReachableState</text>
</a>
<polygon fill="none" stroke="black" points="11,-226 11,-260 101,-260 101,-226 11,-226"/>
<text text-anchor="start" x="16" y="-248" font-family="Arial" font-size="10.00">number :long</text>
<text text-anchor="start" x="16" y="-234" font-family="Arial" font-size="10.00">graphRoot :Object</text>
<polygon fill="none" stroke="black" points="11,-206 11,-226 101,-226 101,-206 11,-206"/>
<text text-anchor="start" x="54" y="-214" font-family="Arial" font-size="10.00"> </text>
</g>
<!-- _ReachabilityGraph&#45;&gt;_ReachableState -->
<g id="edge42" class="edge"><title>_ReachabilityGraph&#45;&gt;_ReachableState</title>
<path fill="none" stroke="black" d="M50.28,-353.486C49.0386,-332.242 48.9194,-304.082 49.9221,-281.509"/>
<text text-anchor="middle" x="53.7959" y="-288.228" font-family="Arial" font-size="10.00">states *</text>
<text text-anchor="middle" x="45.5926" y="-342.152" font-family="Arial" font-size="10.00">parent</text>
</g>
<!-- _ReachabilityGraph&#45;&gt;_ReachableState -->
<g id="edge48" class="edge"><title>_ReachabilityGraph&#45;&gt;_ReachableState</title>
<path fill="none" stroke="black" d="M61.72,-353.486C62.9614,-332.242 63.0806,-304.082 62.0779,-281.509"/>
<text text-anchor="middle" x="66.6502" y="-287.903" font-family="Arial" font-size="10.00">todo *</text>
<text text-anchor="middle" x="57.9662" y="-341.717" font-family="Arial" font-size="10.00">master</text>
</g>
<!-- _RuleApplication -->
<g id="node21" class="node"><title>_RuleApplication</title>
<a xlink:href="../src/org/sdmlib/models/pattern/RuleApplication.java" xlink:title="&lt;TABLE&gt;">
<polygon fill="none" stroke="black" points="8,-123 8,-140 98,-140 98,-123 8,-123"/>
<text text-anchor="start" x="19" y="-129.5" font-family="Arial" font-size="10.00">RuleApplication</text>
</a>
<polygon fill="none" stroke="black" points="8,-103 8,-123 98,-123 98,-103 8,-103"/>
<text text-anchor="start" x="13" y="-111" font-family="Arial" font-size="10.00">description :String</text>
<polygon fill="none" stroke="black" points="8,-83 8,-103 98,-103 98,-83 8,-83"/>
<text text-anchor="start" x="51" y="-91" font-family="Arial" font-size="10.00"> </text>
</g>
<!-- _ReachableState&#45;&gt;_RuleApplication -->
<g id="edge44" class="edge"><title>_ReachableState&#45;&gt;_RuleApplication</title>
<path fill="none" stroke="black" d="M48.8321,-202.248C47.6491,-183.853 47.253,-162.143 47.8225,-144.742"/>
<text text-anchor="middle" x="51.8063" y="-151.414" font-family="Arial" font-size="10.00">ruleapplications *</text>
<text text-anchor="middle" x="44.0793" y="-190.95" font-family="Arial" font-size="10.00">src</text>
</g>
<!-- _ReachableState&#45;&gt;_Object -->
<g id="edge70" class="edge"><title>_ReachableState&#45;&gt;_Object</title>
<path fill="none" stroke="black" d="M83.3691,-202.322C93.776,-186.963 105.422,-168.946 115,-152 134.368,-117.732 120.355,-93.9944 153,-72 225.889,-22.8914 859.958,-19.1254 1021.62,-18.968"/>
<polygon fill="black" stroke="black" points="1032,-18.9624 1022,-23.4679 1027,-18.9651 1022,-18.9679 1022,-18.9679 1022,-18.9679 1027,-18.9651 1022,-14.4679 1032,-18.9624 1032,-18.9624"/>
<text text-anchor="middle" x="1022.94" y="-20.6935" font-family="Arial" font-size="10.00">graphRoot</text>
</g>
<!-- _RuleApplication&#45;&gt;_ReachableState -->
<g id="edge46" class="edge"><title>_RuleApplication&#45;&gt;_ReachableState</title>
<path fill="none" stroke="black" d="M59.6654,-144.742C61.0506,-162.143 61.6721,-183.853 61.3514,-202.248"/>
<text text-anchor="middle" x="57.2356" y="-190.635" font-family="Arial" font-size="10.00">tgt</text>
<text text-anchor="middle" x="64.5443" y="-150.971" font-family="Arial" font-size="10.00">resultOf *</text>
</g>
</g>
</svg>
