<?xml version="1.0" encoding="UTF-8" standalone="no"?>
<!DOCTYPE svg PUBLIC "-//W3C//DTD SVG 1.1//EN"
 "http://www.w3.org/Graphics/SVG/1.1/DTD/svg11.dtd">
<!-- Generated by graphviz version 2.28.0 (20110507.0327)
 -->
<!-- Title: ClassDiagram Pages: 1 -->
<svg width="719pt" height="348pt"
 viewBox="0.00 0.00 719.00 348.00" xmlns="http://www.w3.org/2000/svg" xmlns:xlink="http://www.w3.org/1999/xlink">
<g id="graph1" class="graph" transform="scale(1 1) rotate(0) translate(4 344)">
<title>ClassDiagram</title>
<polygon fill="white" stroke="white" points="-4,5 -4,-344 716,-344 716,5 -4,5"/>
<!-- _PatternElement -->
<g id="node1" class="node"><title>_PatternElement</title>
<polygon fill="none" stroke="black" points="237,-318 237,-335 326,-335 326,-318 237,-318"/>
<text text-anchor="start" x="251" y="-324.5" font-family="Times New Roman,serif" font-size="10.00">PatternElement</text>
<polygon fill="none" stroke="black" points="237,-270 237,-318 326,-318 326,-270 237,-270"/>
<text text-anchor="start" x="242" y="-306" font-family="Times New Roman,serif" font-size="10.00">modifier :String</text>
<text text-anchor="start" x="242" y="-292" font-family="Times New Roman,serif" font-size="10.00">hasMatch :boolean</text>
<text text-anchor="start" x="242" y="-278" font-family="Times New Roman,serif" font-size="10.00">name :String</text>
<polygon fill="none" stroke="black" points="237,-250 237,-270 326,-270 326,-250 237,-250"/>
<text text-anchor="start" x="280" y="-258" font-family="Times New Roman,serif" font-size="10.00"> </text>
</g>
<!-- _Pattern -->
<g id="node2" class="node"><title>_Pattern</title>
<polygon fill="none" stroke="black" points="8,-174 8,-191 196,-191 196,-174 8,-174"/>
<text text-anchor="start" x="87.5" y="-180.5" font-family="Times New Roman,serif" font-size="10.00">Pattern</text>
<polygon fill="none" stroke="black" points="8,-154 8,-174 196,-174 196,-154 8,-154"/>
<text text-anchor="start" x="13" y="-162" font-family="Times New Roman,serif" font-size="10.00">currentNAC :NegativeApplicationCondition</text>
<polygon fill="none" stroke="black" points="8,-134 8,-154 196,-154 196,-134 8,-134"/>
<text text-anchor="start" x="100.5" y="-142" font-family="Times New Roman,serif" font-size="10.00"> </text>
</g>
<!-- _PatternElement&#45;&gt;_Pattern -->
<g id="edge2" class="edge"><title>_PatternElement&#45;&gt;_Pattern</title>
<path fill="none" stroke="black" d="M219.995,-252.863C193.572,-234.496 163.483,-212.894 140.26,-195.587"/>
<polygon fill="none" stroke="black" points="218.217,-255.89 228.431,-258.704 222.201,-250.134 218.217,-255.89"/>
</g>
<!-- _PatternObject -->
<g id="node4" class="node"><title>_PatternObject</title>
<polygon fill="none" stroke="black" points="303,-58 303,-75 400,-75 400,-58 303,-58"/>
<text text-anchor="start" x="324" y="-64.5" font-family="Times New Roman,serif" font-size="10.00">PatternObject</text>
<polygon fill="none" stroke="black" points="303,-24 303,-58 400,-58 400,-24 303,-24"/>
<text text-anchor="start" x="308" y="-46" font-family="Times New Roman,serif" font-size="10.00">currentMatch :Object</text>
<text text-anchor="start" x="308" y="-32" font-family="Times New Roman,serif" font-size="10.00">candidates :Object</text>
<polygon fill="none" stroke="black" points="303,-4 303,-24 400,-24 400,-4 303,-4"/>
<text text-anchor="start" x="350" y="-12" font-family="Times New Roman,serif" font-size="10.00"> </text>
</g>
<!-- _PatternElement&#45;&gt;_PatternObject -->
<g id="edge6" class="edge"><title>_PatternElement&#45;&gt;_PatternObject</title>
<path fill="none" stroke="black" d="M254.937,-236.981C241.773,-200.922 232.167,-153.666 251,-116 260.511,-96.9779 277.395,-81.5287 294.613,-69.7045"/>
<polygon fill="none" stroke="black" points="251.686,-238.28 258.533,-246.365 258.222,-235.775 251.686,-238.28"/>
</g>
<!-- _PatternLink -->
<g id="node5" class="node"><title>_PatternLink</title>
<polygon fill="none" stroke="black" points="426,-181 426,-198 549,-198 549,-181 426,-181"/>
<text text-anchor="start" x="464.5" y="-187.5" font-family="Times New Roman,serif" font-size="10.00">PatternLink</text>
<polygon fill="none" stroke="black" points="426,-147 426,-181 549,-181 549,-147 426,-147"/>
<text text-anchor="start" x="431" y="-169" font-family="Times New Roman,serif" font-size="10.00">tgtRoleName :String</text>
<text text-anchor="start" x="431" y="-155" font-family="Times New Roman,serif" font-size="10.00">hostGraphSrcObject :Object</text>
<polygon fill="none" stroke="black" points="426,-127 426,-147 549,-147 549,-127 426,-127"/>
<text text-anchor="start" x="486" y="-135" font-family="Times New Roman,serif" font-size="10.00"> </text>
</g>
<!-- _PatternElement&#45;&gt;_PatternLink -->
<g id="edge8" class="edge"><title>_PatternElement&#45;&gt;_PatternLink</title>
<path fill="none" stroke="black" d="M342.167,-253.993C368.2,-237.817 398.528,-218.973 424.686,-202.72"/>
<polygon fill="none" stroke="black" points="340.162,-251.118 333.516,-259.369 343.857,-257.064 340.162,-251.118"/>
</g>
<!-- _AttributeConstraint -->
<g id="node6" class="node"><title>_AttributeConstraint</title>
<polygon fill="none" stroke="black" points="269,-188 269,-205 392,-205 392,-188 269,-188"/>
<text text-anchor="start" x="291" y="-194.5" font-family="Times New Roman,serif" font-size="10.00">AttributeConstraint</text>
<polygon fill="none" stroke="black" points="269,-140 269,-188 392,-188 392,-140 269,-140"/>
<text text-anchor="start" x="274" y="-176" font-family="Times New Roman,serif" font-size="10.00">attrName :String</text>
<text text-anchor="start" x="274" y="-162" font-family="Times New Roman,serif" font-size="10.00">tgtValue :Object</text>
<text text-anchor="start" x="274" y="-148" font-family="Times New Roman,serif" font-size="10.00">hostGraphSrcObject :Object</text>
<polygon fill="none" stroke="black" points="269,-120 269,-140 392,-140 392,-120 269,-120"/>
<text text-anchor="start" x="329" y="-128" font-family="Times New Roman,serif" font-size="10.00"> </text>
</g>
<!-- _PatternElement&#45;&gt;_AttributeConstraint -->
<g id="edge10" class="edge"><title>_PatternElement&#45;&gt;_AttributeConstraint</title>
<path fill="none" stroke="black" d="M302.135,-236.79C305.617,-227.693 309.192,-218.355 312.571,-209.529"/>
<polygon fill="none" stroke="black" points="298.858,-235.56 298.552,-246.151 305.396,-238.063 298.858,-235.56"/>
</g>
<!-- _MatchIsomorphicConstraint -->
<g id="node8" class="node"><title>_MatchIsomorphicConstraint</title>
<polygon fill="none" stroke="black" points="583,-174 583,-191 704,-191 704,-174 583,-174"/>
<text text-anchor="start" x="586.5" y="-180.5" font-family="Times New Roman,serif" font-size="10.00">MatchIsomorphicConstraint</text>
<polygon fill="none" stroke="black" points="583,-154 583,-174 704,-174 704,-154 583,-154"/>
<text text-anchor="start" x="642" y="-162" font-family="Times New Roman,serif" font-size="10.00"> </text>
<polygon fill="none" stroke="black" points="583,-134 583,-154 704,-154 704,-134 583,-134"/>
<text text-anchor="start" x="642" y="-142" font-family="Times New Roman,serif" font-size="10.00"> </text>
</g>
<!-- _PatternElement&#45;&gt;_MatchIsomorphicConstraint -->
<g id="edge14" class="edge"><title>_PatternElement&#45;&gt;_MatchIsomorphicConstraint</title>
<path fill="none" stroke="black" d="M343.255,-278.8C401.859,-265.271 491.38,-241.732 565,-210 574.529,-205.893 584.328,-200.846 593.626,-195.617"/>
<polygon fill="none" stroke="black" points="342.375,-275.411 333.404,-281.047 343.931,-282.236 342.375,-275.411"/>
</g>
<!-- _Pattern&#45;&gt;_PatternElement -->
<g id="edge16" class="edge"><title>_Pattern&#45;&gt;_PatternElement</title>
<path fill="none" stroke="black" d="M152.217,-195.678C175.953,-211.994 204.244,-232.111 228.284,-249.733"/>
<text text-anchor="middle" x="218.473" y="-245.3" font-family="Times New Roman,serif" font-size="10.00">elements *</text>
<text text-anchor="middle" x="162.077" y="-194.847" font-family="Times New Roman,serif" font-size="10.00">pattern</text>
</g>
<!-- _NegativeApplicationCondition -->
<g id="node3" class="node"><title>_NegativeApplicationCondition</title>
<polygon fill="none" stroke="black" points="37,-51 37,-68 168,-68 168,-51 37,-51"/>
<text text-anchor="start" x="40.5" y="-57.5" font-family="Times New Roman,serif" font-size="10.00">NegativeApplicationCondition</text>
<polygon fill="none" stroke="black" points="37,-31 37,-51 168,-51 168,-31 37,-31"/>
<text text-anchor="start" x="101" y="-39" font-family="Times New Roman,serif" font-size="10.00"> </text>
<polygon fill="none" stroke="black" points="37,-11 37,-31 168,-31 168,-11 37,-11"/>
<text text-anchor="start" x="101" y="-19" font-family="Times New Roman,serif" font-size="10.00"> </text>
</g>
<!-- _Pattern&#45;&gt;_NegativeApplicationCondition -->
<g id="edge4" class="edge"><title>_Pattern&#45;&gt;_NegativeApplicationCondition</title>
<path fill="none" stroke="black" d="M102,-119.807C102,-104.291 102,-87.0014 102,-72.579"/>
<polygon fill="none" stroke="black" points="98.5001,-120.209 102,-130.209 105.5,-120.209 98.5001,-120.209"/>
</g>
<!-- _PatternLink&#45;&gt;_PatternObject -->
<g id="edge18" class="edge"><title>_PatternLink&#45;&gt;_PatternObject</title>
<path fill="none" stroke="black" d="M437.254,-123.382C421.006,-109.411 403.281,-93.641 388.116,-79.666"/>
<text text-anchor="middle" x="397.651" y="-80.1813" font-family="Times New Roman,serif" font-size="10.00">tgt</text>
<text text-anchor="middle" x="427.631" y="-118.16" font-family="Times New Roman,serif" font-size="10.00">incomming *</text>
</g>
<!-- _PatternLink&#45;&gt;_PatternObject -->
<g id="edge20" class="edge"><title>_PatternLink&#45;&gt;_PatternObject</title>
<path fill="none" stroke="black" d="M449.936,-123.382C434.778,-109.411 417.053,-93.641 400.802,-79.666"/>
<text text-anchor="middle" x="410.425" y="-79.8887" font-family="Times New Roman,serif" font-size="10.00">src</text>
<text text-anchor="middle" x="440.402" y="-117.866" font-family="Times New Roman,serif" font-size="10.00">outgoing *</text>
</g>
<!-- _LinkConstraint -->
<g id="node7" class="node"><title>_LinkConstraint</title>
<polygon fill="none" stroke="black" points="454,-51 454,-68 521,-68 521,-51 454,-51"/>
<text text-anchor="start" x="457.5" y="-57.5" font-family="Times New Roman,serif" font-size="10.00">LinkConstraint</text>
<polygon fill="none" stroke="black" points="454,-31 454,-51 521,-51 521,-31 454,-31"/>
<text text-anchor="start" x="486" y="-39" font-family="Times New Roman,serif" font-size="10.00"> </text>
<polygon fill="none" stroke="black" points="454,-11 454,-31 521,-31 521,-11 454,-11"/>
<text text-anchor="start" x="486" y="-19" font-family="Times New Roman,serif" font-size="10.00"> </text>
</g>
<!-- _PatternLink&#45;&gt;_LinkConstraint -->
<g id="edge12" class="edge"><title>_PatternLink&#45;&gt;_LinkConstraint</title>
<path fill="none" stroke="black" d="M487,-113.18C487,-99.5661 487,-85.1324 487,-72.779"/>
<polygon fill="none" stroke="black" points="483.5,-113.382 487,-123.382 490.5,-113.382 483.5,-113.382"/>
</g>
<!-- _AttributeConstraint&#45;&gt;_PatternObject -->
<g id="edge22" class="edge"><title>_AttributeConstraint&#45;&gt;_PatternObject</title>
<path fill="none" stroke="black" d="M337.939,-116.255C340.03,-104.209 342.265,-91.3313 344.284,-79.6959"/>
<text text-anchor="middle" x="346.898" y="-86.8482" font-family="Times New Roman,serif" font-size="10.00">src</text>
<text text-anchor="middle" x="335.325" y="-104.103" font-family="Times New Roman,serif" font-size="10.00">attrConstraints *</text>
</g>
</g>
</svg>
