<?xml version="1.0" encoding="UTF-8" standalone="no"?>
<!DOCTYPE svg PUBLIC "-//W3C//DTD SVG 1.1//EN"
 "http://www.w3.org/Graphics/SVG/1.1/DTD/svg11.dtd">
<!-- Generated by graphviz version 2.28.0 (20110507.0327)
 -->
<!-- Title: ClassDiagram Pages: 1 -->
<svg width="1609pt" height="462pt"
 viewBox="0.00 0.00 1609.00 462.00" xmlns="http://www.w3.org/2000/svg" xmlns:xlink="http://www.w3.org/1999/xlink">
<g id="graph1" class="graph" transform="scale(1 1) rotate(0) translate(4 458)">
<title>ClassDiagram</title>
<polygon fill="white" stroke="white" points="-4,5 -4,-458 1606,-458 1606,5 -4,5"/>
<!-- _PatternElement -->
<g id="node1" class="node"><title>_PatternElement</title>
<a xlink:href="../src/org/sdmlib/models/pattern/PatternElement.java" xlink:title="&lt;TABLE&gt;">
<polygon fill="none" stroke="black" points="718,-432 718,-449 845,-449 845,-432 718,-432"/>
<text text-anchor="start" x="747.5" y="-438.5" font-family="Arial" font-size="10.00">PatternElement</text>
</a>
<polygon fill="none" stroke="black" points="718,-370 718,-432 845,-432 845,-370 718,-370"/>
<text text-anchor="start" x="723" y="-420" font-family="Arial" font-size="10.00">modifier :String</text>
<text text-anchor="start" x="723" y="-406" font-family="Arial" font-size="10.00">hasMatch :boolean</text>
<text text-anchor="start" x="723" y="-392" font-family="Arial" font-size="10.00">patternObjectName :String</text>
<text text-anchor="start" x="723" y="-378" font-family="Arial" font-size="10.00">doAllMatches :boolean</text>
<polygon fill="none" stroke="black" points="718,-350 718,-370 845,-370 845,-350 718,-350"/>
<text text-anchor="start" x="779.5" y="-358" font-family="Arial" font-size="10.00"> </text>
</g>
<!-- _Pattern -->
<g id="node2" class="node"><title>_Pattern</title>
<a xlink:href="../src/org/sdmlib/models/pattern/Pattern.java" xlink:title="&lt;TABLE&gt;">
<polygon fill="none" stroke="black" points="138,-281 138,-298 266,-298 266,-281 138,-281"/>
<text text-anchor="start" x="186" y="-287.5" font-family="Arial" font-size="10.00">Pattern</text>
</a>
<polygon fill="none" stroke="black" points="138,-219 138,-281 266,-281 266,-219 138,-219"/>
<text text-anchor="start" x="143" y="-269" font-family="Arial" font-size="10.00">currentSubPattern :Pattern</text>
<text text-anchor="start" x="143" y="-255" font-family="Arial" font-size="10.00">debugMode :int</text>
<text text-anchor="start" x="143" y="-241" font-family="Arial" font-size="10.00">trace :StringBuilder</text>
<text text-anchor="start" x="143" y="-227" font-family="Arial" font-size="10.00">name :String</text>
<polygon fill="none" stroke="black" points="138,-199 138,-219 266,-219 266,-199 138,-199"/>
<text text-anchor="start" x="200" y="-207" font-family="Arial" font-size="10.00"> </text>
</g>
<!-- _PatternElement&#45;&gt;_Pattern -->
<g id="edge2" class="edge"><title>_PatternElement&#45;&gt;_Pattern</title>
<path fill="none" stroke="black" d="M699.431,-393.475C600.162,-384.517 429.057,-362.231 292,-310 286.084,-307.746 280.125,-305.137 274.24,-302.297"/>
<polygon fill="none" stroke="black" points="699.132,-396.962 709.4,-394.351 699.745,-389.989 699.132,-396.962"/>
</g>
<!-- _PatternObject -->
<g id="node6" class="node"><title>_PatternObject</title>
<a xlink:href="../src/org/sdmlib/models/pattern/PatternObject.java" xlink:title="&lt;TABLE&gt;">
<polygon fill="none" stroke="black" points="1141,-130 1141,-147 1244,-147 1244,-130 1141,-130"/>
<text text-anchor="start" x="1162" y="-136.5" font-family="Arial" font-size="10.00">PatternObject</text>
</a>
<polygon fill="none" stroke="black" points="1141,-96 1141,-130 1244,-130 1244,-96 1141,-96"/>
<text text-anchor="start" x="1146" y="-118" font-family="Arial" font-size="10.00">currentMatch :Object</text>
<text text-anchor="start" x="1146" y="-104" font-family="Arial" font-size="10.00">candidates :Object</text>
<polygon fill="none" stroke="black" points="1141,-76 1141,-96 1244,-96 1244,-76 1141,-76"/>
<text text-anchor="start" x="1190.5" y="-84" font-family="Arial" font-size="10.00"> </text>
</g>
<!-- _PatternElement&#45;&gt;_PatternObject -->
<g id="edge8" class="edge"><title>_PatternElement&#45;&gt;_PatternObject</title>
<path fill="none" stroke="black" d="M861.701,-346.1C861.801,-346.067 861.9,-346.033 862,-346 919.13,-326.882 1361.84,-353.99 1403,-310 1440.05,-270.407 1434.27,-232.299 1403,-188 1368.92,-139.722 1300.93,-122.333 1251.3,-116.173"/>
<polygon fill="none" stroke="black" points="860.553,-342.792 852.468,-349.639 863.058,-349.329 860.553,-342.792"/>
</g>
<!-- _PatternLink -->
<g id="node7" class="node"><title>_PatternLink</title>
<a xlink:href="../src/org/sdmlib/models/pattern/PatternLink.java" xlink:title="&lt;TABLE&gt;">
<polygon fill="none" stroke="black" points="787,-267 787,-284 922,-284 922,-267 787,-267"/>
<text text-anchor="start" x="829.5" y="-273.5" font-family="Arial" font-size="10.00">PatternLink</text>
</a>
<polygon fill="none" stroke="black" points="787,-233 787,-267 922,-267 922,-233 787,-233"/>
<text text-anchor="start" x="792" y="-255" font-family="Arial" font-size="10.00">tgtRoleName :String</text>
<text text-anchor="start" x="792" y="-241" font-family="Arial" font-size="10.00">hostGraphSrcObject :Object</text>
<polygon fill="none" stroke="black" points="787,-213 787,-233 922,-233 922,-213 787,-213"/>
<text text-anchor="start" x="852.5" y="-221" font-family="Arial" font-size="10.00"> </text>
</g>
<!-- _PatternElement&#45;&gt;_PatternLink -->
<g id="edge10" class="edge"><title>_PatternElement&#45;&gt;_PatternLink</title>
<path fill="none" stroke="black" d="M811.15,-337.461C819.19,-321.05 827.655,-303.773 834.918,-288.949"/>
<polygon fill="none" stroke="black" points="807.994,-335.948 806.737,-346.468 814.28,-339.028 807.994,-335.948"/>
</g>
<!-- _AttributeConstraint -->
<g id="node8" class="node"><title>_AttributeConstraint</title>
<a xlink:href="../src/org/sdmlib/models/pattern/AttributeConstraint.java" xlink:title="&lt;TABLE&gt;">
<polygon fill="none" stroke="black" points="956,-288 956,-305 1091,-305 1091,-288 956,-288"/>
<text text-anchor="start" x="982.5" y="-294.5" font-family="Arial" font-size="10.00">AttributeConstraint</text>
</a>
<polygon fill="none" stroke="black" points="956,-212 956,-288 1091,-288 1091,-212 956,-212"/>
<text text-anchor="start" x="961" y="-276" font-family="Arial" font-size="10.00">attrName :String</text>
<text text-anchor="start" x="961" y="-262" font-family="Arial" font-size="10.00">tgtValue :Object</text>
<text text-anchor="start" x="961" y="-248" font-family="Arial" font-size="10.00">upperTgtValue :Object</text>
<text text-anchor="start" x="961" y="-234" font-family="Arial" font-size="10.00">cmpOp :String</text>
<text text-anchor="start" x="961" y="-220" font-family="Arial" font-size="10.00">hostGraphSrcObject :Object</text>
<polygon fill="none" stroke="black" points="956,-192 956,-212 1091,-212 1091,-192 956,-192"/>
<text text-anchor="start" x="1021.5" y="-200" font-family="Arial" font-size="10.00"> </text>
</g>
<!-- _PatternElement&#45;&gt;_AttributeConstraint -->
<g id="edge12" class="edge"><title>_PatternElement&#45;&gt;_AttributeConstraint</title>
<path fill="none" stroke="black" d="M861.422,-346.324C861.615,-346.216 861.808,-346.108 862,-346 894.603,-327.725 905.724,-328.847 938,-310 941.12,-308.178 944.271,-306.275 947.429,-304.314"/>
<polygon fill="none" stroke="black" points="859.584,-343.344 852.672,-351.374 863.083,-349.407 859.584,-343.344"/>
</g>
<!-- _MatchIsomorphicConstraint -->
<g id="node10" class="node"><title>_MatchIsomorphicConstraint</title>
<a xlink:href="../src/org/sdmlib/models/pattern/MatchIsomorphicConstraint.java" xlink:title="&lt;TABLE&gt;">
<polygon fill="none" stroke="black" points="318,-260 318,-277 444,-277 444,-260 318,-260"/>
<text text-anchor="start" x="321.5" y="-266.5" font-family="Arial" font-size="10.00">MatchIsomorphicConstraint</text>
</a>
<polygon fill="none" stroke="black" points="318,-240 318,-260 444,-260 444,-240 318,-240"/>
<text text-anchor="start" x="379" y="-248" font-family="Arial" font-size="10.00"> </text>
<polygon fill="none" stroke="black" points="318,-220 318,-240 444,-240 444,-220 318,-220"/>
<text text-anchor="start" x="379" y="-228" font-family="Arial" font-size="10.00"> </text>
</g>
<!-- _PatternElement&#45;&gt;_MatchIsomorphicConstraint -->
<g id="edge16" class="edge"><title>_PatternElement&#45;&gt;_MatchIsomorphicConstraint</title>
<path fill="none" stroke="black" d="M699.594,-385.072C633.051,-371.669 537.769,-347.785 461,-310 445.735,-302.487 430.434,-291.933 417.361,-281.768"/>
<polygon fill="none" stroke="black" points="699.119,-388.545 709.609,-387.053 700.478,-381.679 699.119,-388.545"/>
</g>
<!-- _CloneOp -->
<g id="node11" class="node"><title>_CloneOp</title>
<a xlink:href="../src/org/sdmlib/models/pattern/CloneOp.java" xlink:title="&lt;TABLE&gt;">
<polygon fill="none" stroke="black" points="479,-260 479,-277 524,-277 524,-260 479,-260"/>
<text text-anchor="start" x="482.5" y="-266.5" font-family="Arial" font-size="10.00">CloneOp</text>
</a>
<polygon fill="none" stroke="black" points="479,-240 479,-260 524,-260 524,-240 479,-240"/>
<text text-anchor="start" x="499.5" y="-248" font-family="Arial" font-size="10.00"> </text>
<polygon fill="none" stroke="black" points="479,-220 479,-240 524,-240 524,-220 479,-220"/>
<text text-anchor="start" x="499.5" y="-228" font-family="Arial" font-size="10.00"> </text>
</g>
<!-- _PatternElement&#45;&gt;_CloneOp -->
<g id="edge18" class="edge"><title>_PatternElement&#45;&gt;_CloneOp</title>
<path fill="none" stroke="black" d="M699.752,-382.388C650.008,-369.128 587.246,-346.56 541,-310 531.375,-302.391 523.258,-291.815 516.904,-281.659"/>
<polygon fill="none" stroke="black" points="698.96,-385.799 709.518,-384.918 700.715,-379.022 698.96,-385.799"/>
</g>
<!-- _UnifyGraphsOp -->
<g id="node12" class="node"><title>_UnifyGraphsOp</title>
<a xlink:href="../src/org/sdmlib/models/pattern/UnifyGraphsOp.java" xlink:title="&lt;TABLE&gt;">
<polygon fill="none" stroke="black" points="558,-260 558,-277 632,-277 632,-260 558,-260"/>
<text text-anchor="start" x="561.5" y="-266.5" font-family="Arial" font-size="10.00">UnifyGraphsOp</text>
</a>
<polygon fill="none" stroke="black" points="558,-240 558,-260 632,-260 632,-240 558,-240"/>
<text text-anchor="start" x="593" y="-248" font-family="Arial" font-size="10.00"> </text>
<polygon fill="none" stroke="black" points="558,-220 558,-240 632,-240 632,-220 558,-220"/>
<text text-anchor="start" x="593" y="-228" font-family="Arial" font-size="10.00"> </text>
</g>
<!-- _PatternElement&#45;&gt;_UnifyGraphsOp -->
<g id="edge20" class="edge"><title>_PatternElement&#45;&gt;_UnifyGraphsOp</title>
<path fill="none" stroke="black" d="M700.842,-349.545C683.157,-337.395 664.954,-323.869 649,-310 639.164,-301.449 629.348,-291.193 620.835,-281.598"/>
<polygon fill="none" stroke="black" points="699.229,-352.68 709.47,-355.395 703.157,-346.886 699.229,-352.68"/>
</g>
<!-- _DestroyObjectElem -->
<g id="node13" class="node"><title>_DestroyObjectElem</title>
<a xlink:href="../src/org/sdmlib/models/pattern/DestroyObjectElem.java" xlink:title="&lt;TABLE&gt;">
<polygon fill="none" stroke="black" points="1294,-260 1294,-277 1386,-277 1386,-260 1294,-260"/>
<text text-anchor="start" x="1297.5" y="-266.5" font-family="Arial" font-size="10.00">DestroyObjectElem</text>
</a>
<polygon fill="none" stroke="black" points="1294,-240 1294,-260 1386,-260 1386,-240 1294,-240"/>
<text text-anchor="start" x="1338" y="-248" font-family="Arial" font-size="10.00"> </text>
<polygon fill="none" stroke="black" points="1294,-220 1294,-240 1386,-240 1386,-220 1294,-220"/>
<text text-anchor="start" x="1338" y="-228" font-family="Arial" font-size="10.00"> </text>
</g>
<!-- _PatternElement&#45;&gt;_DestroyObjectElem -->
<g id="edge22" class="edge"><title>_PatternElement&#45;&gt;_DestroyObjectElem</title>
<path fill="none" stroke="black" d="M861.702,-346.103C861.801,-346.069 861.901,-346.034 862,-346 1036.54,-285.615 1107.35,-385.302 1276,-310 1290.46,-303.542 1303.74,-292.429 1314.4,-281.509"/>
<polygon fill="none" stroke="black" points="860.523,-342.806 852.496,-349.722 863.083,-349.321 860.523,-342.806"/>
</g>
<!-- _CardinalityConstraint -->
<g id="node14" class="node"><title>_CardinalityConstraint</title>
<a xlink:href="../src/org/sdmlib/models/pattern/CardinalityConstraint.java" xlink:title="&lt;TABLE&gt;">
<polygon fill="none" stroke="black" points="1459,-281 1459,-298 1594,-298 1594,-281 1459,-281"/>
<text text-anchor="start" x="1481" y="-287.5" font-family="Arial" font-size="10.00">CardinalityConstraint</text>
</a>
<polygon fill="none" stroke="black" points="1459,-219 1459,-281 1594,-281 1594,-219 1459,-219"/>
<text text-anchor="start" x="1464" y="-269" font-family="Arial" font-size="10.00">tgtRoleName :String</text>
<text text-anchor="start" x="1464" y="-255" font-family="Arial" font-size="10.00">hostGraphSrcObject :Object</text>
<text text-anchor="start" x="1464" y="-241" font-family="Arial" font-size="10.00">minCard :long</text>
<text text-anchor="start" x="1464" y="-227" font-family="Arial" font-size="10.00">maxCard :long</text>
<polygon fill="none" stroke="black" points="1459,-199 1459,-219 1594,-219 1594,-199 1459,-199"/>
<text text-anchor="start" x="1524.5" y="-207" font-family="Arial" font-size="10.00"> </text>
</g>
<!-- _PatternElement&#45;&gt;_CardinalityConstraint -->
<g id="edge24" class="edge"><title>_PatternElement&#45;&gt;_CardinalityConstraint</title>
<path fill="none" stroke="black" d="M861.701,-346.1C861.801,-346.066 861.9,-346.033 862,-346 1104.55,-265.345 1193.79,-391.697 1436,-310 1442.05,-307.959 1448.08,-305.402 1453.99,-302.502"/>
<polygon fill="none" stroke="black" points="860.559,-342.79 852.463,-349.624 863.053,-349.33 860.559,-342.79"/>
</g>
<!-- _MatchOtherThen -->
<g id="node15" class="node"><title>_MatchOtherThen</title>
<a xlink:href="../src/org/sdmlib/models/pattern/MatchOtherThen.java" xlink:title="&lt;TABLE&gt;">
<polygon fill="none" stroke="black" points="1125,-260 1125,-277 1260,-277 1260,-260 1125,-260"/>
<text text-anchor="start" x="1156" y="-266.5" font-family="Arial" font-size="10.00">MatchOtherThen</text>
</a>
<polygon fill="none" stroke="black" points="1125,-240 1125,-260 1260,-260 1260,-240 1125,-240"/>
<text text-anchor="start" x="1130" y="-248" font-family="Arial" font-size="10.00">hostGraphSrcObject :Object</text>
<polygon fill="none" stroke="black" points="1125,-220 1125,-240 1260,-240 1260,-220 1125,-220"/>
<text text-anchor="start" x="1190.5" y="-228" font-family="Arial" font-size="10.00"> </text>
</g>
<!-- _PatternElement&#45;&gt;_MatchOtherThen -->
<g id="edge26" class="edge"><title>_PatternElement&#45;&gt;_MatchOtherThen</title>
<path fill="none" stroke="black" d="M861.705,-346.112C861.804,-346.075 861.902,-346.037 862,-346 964.9,-306.956 1004.8,-350.851 1107,-310 1124.11,-303.161 1141.08,-292.247 1155.3,-281.591"/>
<polygon fill="none" stroke="black" points="860.436,-342.849 852.582,-349.96 863.156,-349.299 860.436,-342.849"/>
</g>
<!-- _GenericConstraint -->
<g id="node16" class="node"><title>_GenericConstraint</title>
<a xlink:href="../src/org/sdmlib/models/pattern/GenericConstraint.java" xlink:title="&lt;TABLE&gt;">
<polygon fill="none" stroke="black" points="666,-260 666,-277 752,-277 752,-260 666,-260"/>
<text text-anchor="start" x="669.5" y="-266.5" font-family="Arial" font-size="10.00">GenericConstraint</text>
</a>
<polygon fill="none" stroke="black" points="666,-240 666,-260 752,-260 752,-240 666,-240"/>
<text text-anchor="start" x="707" y="-248" font-family="Arial" font-size="10.00"> </text>
<polygon fill="none" stroke="black" points="666,-220 666,-240 752,-240 752,-220 666,-220"/>
<text text-anchor="start" x="707" y="-228" font-family="Arial" font-size="10.00"> </text>
</g>
<!-- _PatternElement&#45;&gt;_GenericConstraint -->
<g id="edge28" class="edge"><title>_PatternElement&#45;&gt;_GenericConstraint</title>
<path fill="none" stroke="black" d="M751.142,-337.211C741.916,-318.119 732.136,-297.879 724.322,-281.709"/>
<polygon fill="none" stroke="black" points="748.113,-338.987 755.615,-346.468 754.416,-335.941 748.113,-338.987"/>
</g>
<!-- _Pattern&#45;&gt;_PatternElement -->
<g id="edge30" class="edge"><title>_Pattern&#45;&gt;_PatternElement</title>
<path fill="none" stroke="black" d="M274.108,-292.896C285.784,-299.379 297.981,-305.42 310,-310 446.022,-361.837 615.58,-384.178 709.734,-393.269"/>
<text text-anchor="middle" x="700.285" y="-394.042" font-family="Arial" font-size="10.00">elements *</text>
<text text-anchor="middle" x="284.086" y="-291.052" font-family="Arial" font-size="10.00">pattern</text>
</g>
<!-- _Pattern&#45;&gt;_Pattern -->
<g id="edge52" class="edge"><title>_Pattern&#45;&gt;_Pattern</title>
<path fill="none" stroke="black" d="M274.026,-272.133C284.748,-268.531 292,-260.82 292,-249 292,-240.874 288.572,-234.689 282.946,-230.448"/>
<polygon fill="black" stroke="black" points="274.026,-225.867 284.977,-226.432 278.474,-228.151 282.922,-230.435 282.922,-230.435 282.922,-230.435 278.474,-228.151 280.866,-234.438 274.026,-225.867 274.026,-225.867"/>
<text text-anchor="middle" x="284.019" y="-223.748" font-family="Arial" font-size="10.00">currentSubPattern</text>
</g>
<!-- _StringBuilder -->
<g id="node3" class="node"><title>_StringBuilder</title>
<a xlink:href="../src/java/lang/StringBuilder.java" xlink:title="&lt;TABLE&gt;">
<polygon fill="none" stroke="black" points="171,-123 171,-140 234,-140 234,-123 171,-123"/>
<text text-anchor="start" x="174.5" y="-129.5" font-family="Arial" font-size="10.00">StringBuilder</text>
</a>
<polygon fill="none" stroke="black" points="171,-103 171,-123 234,-123 234,-103 171,-103"/>
<text text-anchor="start" x="200.5" y="-111" font-family="Arial" font-size="10.00"> </text>
<polygon fill="none" stroke="black" points="171,-83 171,-103 234,-103 234,-83 171,-83"/>
<text text-anchor="start" x="200.5" y="-91" font-family="Arial" font-size="10.00"> </text>
</g>
<!-- _Pattern&#45;&gt;_StringBuilder -->
<g id="edge54" class="edge"><title>_Pattern&#45;&gt;_StringBuilder</title>
<path fill="none" stroke="black" d="M202,-195.419C202,-182 202,-167.753 202,-154.946"/>
<polygon fill="black" stroke="black" points="202,-144.577 206.5,-154.577 202,-149.577 202,-154.577 202,-154.577 202,-154.577 202,-149.577 197.5,-154.577 202,-144.577 202,-144.577"/>
<text text-anchor="middle" x="206.226" y="-151.14" font-family="Arial" font-size="10.00">trace</text>
</g>
<!-- _NegativeApplicationCondition -->
<g id="node4" class="node"><title>_NegativeApplicationCondition</title>
<a xlink:href="../src/org/sdmlib/models/pattern/NegativeApplicationCondition.java" xlink:title="&lt;TABLE&gt;">
<polygon fill="none" stroke="black" points="268,-123 268,-140 401,-140 401,-123 268,-123"/>
<text text-anchor="start" x="271.5" y="-129.5" font-family="Arial" font-size="10.00">NegativeApplicationCondition</text>
</a>
<polygon fill="none" stroke="black" points="268,-103 268,-123 401,-123 401,-103 268,-103"/>
<text text-anchor="start" x="332.5" y="-111" font-family="Arial" font-size="10.00"> </text>
<polygon fill="none" stroke="black" points="268,-83 268,-103 401,-103 401,-83 268,-83"/>
<text text-anchor="start" x="332.5" y="-91" font-family="Arial" font-size="10.00"> </text>
</g>
<!-- _Pattern&#45;&gt;_NegativeApplicationCondition -->
<g id="edge4" class="edge"><title>_Pattern&#45;&gt;_NegativeApplicationCondition</title>
<path fill="none" stroke="black" d="M260.563,-188.106C275.238,-173.098 290.409,-157.582 303.125,-144.577"/>
<polygon fill="none" stroke="black" points="257.901,-185.822 253.413,-195.419 262.906,-190.716 257.901,-185.822"/>
</g>
<!-- _OptionalSubPattern -->
<g id="node5" class="node"><title>_OptionalSubPattern</title>
<a xlink:href="../src/org/sdmlib/models/pattern/OptionalSubPattern.java" xlink:title="&lt;TABLE&gt;">
<polygon fill="none" stroke="black" points="435,-123 435,-140 548,-140 548,-123 435,-123"/>
<text text-anchor="start" x="449" y="-129.5" font-family="Arial" font-size="10.00">OptionalSubPattern</text>
</a>
<polygon fill="none" stroke="black" points="435,-103 435,-123 548,-123 548,-103 435,-103"/>
<text text-anchor="start" x="440" y="-111" font-family="Arial" font-size="10.00">matchForward :boolean</text>
<polygon fill="none" stroke="black" points="435,-83 435,-103 548,-103 548,-83 435,-83"/>
<text text-anchor="start" x="489.5" y="-91" font-family="Arial" font-size="10.00"> </text>
</g>
<!-- _Pattern&#45;&gt;_OptionalSubPattern -->
<g id="edge6" class="edge"><title>_Pattern&#45;&gt;_OptionalSubPattern</title>
<path fill="none" stroke="black" d="M283.371,-196.591C289.254,-193.525 295.167,-190.625 301,-188 350.226,-165.846 367.134,-172.672 417,-152 422.366,-149.776 427.862,-147.294 433.316,-144.69"/>
<polygon fill="none" stroke="black" points="281.324,-193.717 274.167,-201.529 284.634,-199.885 281.324,-193.717"/>
</g>
<!-- _Object -->
<g id="node50" class="node"><title>_Object</title>
<text text-anchor="middle" x="1023" y="-15.5" font-family="Arial" font-size="10.00">_Object</text>
</g>
<!-- _PatternObject&#45;&gt;_Object -->
<g id="edge56" class="edge"><title>_PatternObject&#45;&gt;_Object</title>
<path fill="none" stroke="black" d="M1132.68,-82.143C1107.75,-68.9558 1079.64,-53.575 1058.08,-41.2953"/>
<polygon fill="black" stroke="black" points="1049.26,-36.2379 1060.17,-37.3115 1053.6,-38.7263 1057.93,-41.2147 1057.93,-41.2147 1057.93,-41.2147 1053.6,-38.7263 1055.7,-45.1178 1049.26,-36.2379 1049.26,-36.2379"/>
<text text-anchor="middle" x="1059.23" y="-34.5827" font-family="Arial" font-size="10.00">currentMatch</text>
</g>
<!-- _PatternObject&#45;&gt;_Object -->
<g id="edge58" class="edge"><title>_PatternObject&#45;&gt;_Object</title>
<path fill="none" stroke="black" d="M1132.3,-74.9032C1107.88,-61.397 1080.45,-46.6951 1059.14,-35.7593"/>
<polygon fill="black" stroke="black" points="1050.1,-31.1679 1061.06,-31.6877 1054.56,-33.4336 1059.02,-35.6992 1059.02,-35.6992 1059.02,-35.6992 1054.56,-33.4336 1056.98,-39.7107 1050.1,-31.1679 1050.1,-31.1679"/>
<text text-anchor="middle" x="1060.1" y="-29.0072" font-family="Arial" font-size="10.00">candidates</text>
</g>
<!-- _LinkConstraint -->
<g id="node9" class="node"><title>_LinkConstraint</title>
<a xlink:href="../src/org/sdmlib/models/pattern/LinkConstraint.java" xlink:title="&lt;TABLE&gt;">
<polygon fill="none" stroke="black" points="819,-123 819,-140 889,-140 889,-123 819,-123"/>
<text text-anchor="start" x="822.5" y="-129.5" font-family="Arial" font-size="10.00">LinkConstraint</text>
</a>
<polygon fill="none" stroke="black" points="819,-103 819,-123 889,-123 889,-103 819,-103"/>
<text text-anchor="start" x="852" y="-111" font-family="Arial" font-size="10.00"> </text>
<polygon fill="none" stroke="black" points="819,-83 819,-103 889,-103 889,-83 819,-83"/>
<text text-anchor="start" x="852" y="-91" font-family="Arial" font-size="10.00"> </text>
</g>
<!-- _PatternLink&#45;&gt;_LinkConstraint -->
<g id="edge14" class="edge"><title>_PatternLink&#45;&gt;_LinkConstraint</title>
<path fill="none" stroke="black" d="M854,-199.213C854,-181.115 854,-161.068 854,-144.864"/>
<polygon fill="none" stroke="black" points="850.5,-199.314 854,-209.314 857.5,-199.314 850.5,-199.314"/>
</g>
<!-- _PatternLink&#45;&gt;_Object -->
<g id="edge60" class="edge"><title>_PatternLink&#45;&gt;_Object</title>
<path fill="none" stroke="black" d="M882.477,-209.412C917.183,-162.386 974.834,-84.2657 1004.34,-44.2789"/>
<polygon fill="black" stroke="black" points="1010.37,-36.12 1008.05,-46.8383 1007.4,-40.1431 1004.43,-44.1662 1004.43,-44.1662 1004.43,-44.1662 1007.4,-40.1431 1000.81,-41.4941 1010.37,-36.12 1010.37,-36.12"/>
<text text-anchor="middle" x="1008.38" y="-43.4218" font-family="Arial" font-size="10.00">hostGraphSrcObject</text>
</g>
<!-- _AttributeConstraint&#45;&gt;_PatternObject -->
<g id="edge32" class="edge"><title>_AttributeConstraint&#45;&gt;_PatternObject</title>
<path fill="none" stroke="black" d="M1097.62,-188.394C1113.18,-175.962 1129.2,-163.169 1143.51,-151.731"/>
<text text-anchor="middle" x="1139.07" y="-158.189" font-family="Arial" font-size="10.00">src</text>
<text text-anchor="middle" x="1102.06" y="-176.936" font-family="Arial" font-size="10.00">attrConstraints *</text>
</g>
<!-- _AttributeConstraint&#45;&gt;_Object -->
<g id="edge62" class="edge"><title>_AttributeConstraint&#45;&gt;_Object</title>
<path fill="none" stroke="black" d="M1010.99,-188.431C1008.29,-142.433 1009.26,-80.9349 1013.9,-46.0917"/>
<polygon fill="black" stroke="black" points="1015.46,-36.1807 1018.35,-46.7582 1014.68,-41.1201 1013.91,-46.0594 1013.91,-46.0594 1013.91,-46.0594 1014.68,-41.1201 1009.46,-45.3606 1015.46,-36.1807 1015.46,-36.1807"/>
<text text-anchor="middle" x="1018.23" y="-43.2901" font-family="Arial" font-size="10.00">tgtValue</text>
</g>
<!-- _AttributeConstraint&#45;&gt;_Object -->
<g id="edge64" class="edge"><title>_AttributeConstraint&#45;&gt;_Object</title>
<path fill="none" stroke="black" d="M1023,-188.431C1023,-142.631 1023,-81.4648 1023,-46.5438"/>
<polygon fill="black" stroke="black" points="1023,-36.1807 1027.5,-46.1807 1023,-41.1807 1023,-46.1807 1023,-46.1807 1023,-46.1807 1023,-41.1807 1018.5,-46.1808 1023,-36.1807 1023,-36.1807"/>
<text text-anchor="middle" x="1027.23" y="-42.7438" font-family="Arial" font-size="10.00">upperTgtValue</text>
</g>
<!-- _AttributeConstraint&#45;&gt;_Object -->
<g id="edge66" class="edge"><title>_AttributeConstraint&#45;&gt;_Object</title>
<path fill="none" stroke="black" d="M1035.01,-188.431C1037.71,-142.433 1036.74,-80.9349 1032.1,-46.0917"/>
<polygon fill="black" stroke="black" points="1030.54,-36.1807 1036.54,-45.3606 1031.32,-41.1201 1032.09,-46.0594 1032.09,-46.0594 1032.09,-46.0594 1031.32,-41.1201 1027.65,-46.7582 1030.54,-36.1807 1030.54,-36.1807"/>
<text text-anchor="middle" x="1036.12" y="-41.9776" font-family="Arial" font-size="10.00">hostGraphSrcObject</text>
</g>
<!-- _DestroyObjectElem&#45;&gt;_PatternObject -->
<g id="edge34" class="edge"><title>_DestroyObjectElem&#45;&gt;_PatternObject</title>
<path fill="none" stroke="black" d="M1306.6,-216.395C1296.78,-207.19 1286,-197.15 1276,-188 1263.02,-176.123 1248.78,-163.327 1235.78,-151.726"/>
<text text-anchor="middle" x="1245.35" y="-152.11" font-family="Arial" font-size="10.00">patternObject</text>
<text text-anchor="middle" x="1297.09" y="-210.78" font-family="Arial" font-size="10.00">destroyElem</text>
</g>
<!-- _CardinalityConstraint&#45;&gt;_PatternObject -->
<g id="edge36" class="edge"><title>_CardinalityConstraint&#45;&gt;_PatternObject</title>
<path fill="none" stroke="black" d="M1450.55,-195.502C1445.71,-192.822 1440.84,-190.295 1436,-188 1375.74,-159.404 1302.01,-138.509 1251.46,-126.144"/>
<text text-anchor="middle" x="1261.28" y="-121.748" font-family="Arial" font-size="10.00">src</text>
<text text-anchor="middle" x="1440.58" y="-192.34" font-family="Arial" font-size="10.00">cardConstraints *</text>
</g>
<!-- _CardinalityConstraint&#45;&gt;_Object -->
<g id="edge68" class="edge"><title>_CardinalityConstraint&#45;&gt;_Object</title>
<path fill="none" stroke="black" d="M1461.28,-195.362C1409.67,-155.904 1334.01,-103.489 1260,-72 1192.91,-43.4563 1108.32,-29.2916 1060.48,-23.1041"/>
<polygon fill="black" stroke="black" points="1050.28,-21.8343 1060.76,-18.6042 1055.24,-22.452 1060.21,-23.0698 1060.21,-23.0698 1060.21,-23.0698 1055.24,-22.452 1059.65,-27.5353 1050.28,-21.8343 1050.28,-21.8343"/>
<text text-anchor="middle" x="1059.8" y="-16.2601" font-family="Arial" font-size="10.00">hostGraphSrcObject</text>
</g>
<!-- _MatchOtherThen&#45;&gt;_PatternObject -->
<g id="edge38" class="edge"><title>_MatchOtherThen&#45;&gt;_PatternObject</title>
<path fill="none" stroke="black" d="M1186.18,-216.348C1185.07,-197.021 1184.95,-172.169 1185.83,-151.68"/>
<text text-anchor="middle" x="1189.72" y="-158.394" font-family="Arial" font-size="10.00">src</text>
<text text-anchor="middle" x="1181.5" y="-205.012" font-family="Arial" font-size="10.00">matchOtherThen *</text>
</g>
<!-- _MatchOtherThen&#45;&gt;_PatternObject -->
<g id="edge40" class="edge"><title>_MatchOtherThen&#45;&gt;_PatternObject</title>
<path fill="none" stroke="black" d="M1197.82,-216.348C1198.93,-197.021 1199.05,-172.169 1198.17,-151.68"/>
<text text-anchor="middle" x="1202.73" y="-158.08" font-family="Arial" font-size="10.00">forbidden</text>
<text text-anchor="middle" x="1194.06" y="-204.582" font-family="Arial" font-size="10.00">excluders *</text>
</g>
<!-- _MatchOtherThen&#45;&gt;_Object -->
<g id="edge70" class="edge"><title>_MatchOtherThen&#45;&gt;_Object</title>
<path fill="none" stroke="black" d="M1168.5,-216.159C1134.63,-170.264 1072.77,-86.4333 1041.76,-44.4203"/>
<polygon fill="black" stroke="black" points="1035.63,-36.1186 1045.19,-41.4926 1038.6,-40.1416 1041.57,-44.1647 1041.57,-44.1647 1041.57,-44.1647 1038.6,-40.1416 1037.95,-46.8368 1035.63,-36.1186 1035.63,-36.1186"/>
<text text-anchor="middle" x="1044.42" y="-38.4013" font-family="Arial" font-size="10.00">hostGraphSrcObject</text>
</g>
<!-- _JsonIdMap -->
<g id="node17" class="node"><title>_JsonIdMap</title>
<a xlink:href="../src/org/sdmlib/serialization/json/JsonIdMap.java" xlink:title="&lt;TABLE&gt;">
<polygon fill="none" stroke="black" points="879,-411 879,-428 933,-428 933,-411 879,-411"/>
<text text-anchor="start" x="882.5" y="-417.5" font-family="Arial" font-size="10.00">JsonIdMap</text>
</a>
<polygon fill="none" stroke="black" points="879,-391 879,-411 933,-411 933,-391 879,-391"/>
<text text-anchor="start" x="904" y="-399" font-family="Arial" font-size="10.00"> </text>
<polygon fill="none" stroke="black" points="879,-371 879,-391 933,-391 933,-371 879,-371"/>
<text text-anchor="start" x="904" y="-379" font-family="Arial" font-size="10.00"> </text>
</g>
<!-- _SDMLibJsonIdMap -->
<g id="node18" class="node"><title>_SDMLibJsonIdMap</title>
<a xlink:href="../src/org/sdmlib/serialization/json/SDMLibJsonIdMap.java" xlink:title="&lt;TABLE&gt;">
<polygon fill="none" stroke="black" points="968,-411 968,-428 1057,-428 1057,-411 968,-411"/>
<text text-anchor="start" x="971.5" y="-417.5" font-family="Arial" font-size="10.00">SDMLibJsonIdMap</text>
</a>
<polygon fill="none" stroke="black" points="968,-391 968,-411 1057,-411 1057,-391 968,-391"/>
<text text-anchor="start" x="1010.5" y="-399" font-family="Arial" font-size="10.00"> </text>
<polygon fill="none" stroke="black" points="968,-371 968,-391 1057,-391 1057,-371 968,-371"/>
<text text-anchor="start" x="1010.5" y="-379" font-family="Arial" font-size="10.00"> </text>
</g>
<!-- _ReachabilityGraph -->
<g id="node19" class="node"><title>_ReachabilityGraph</title>
<a xlink:href="../src/org/sdmlib/models/pattern/ReachabilityGraph.java" xlink:title="&lt;TABLE&gt;">
<polygon fill="none" stroke="black" points="13,-411 13,-428 100,-428 100,-411 13,-411"/>
<text text-anchor="start" x="16.5" y="-417.5" font-family="Arial" font-size="10.00">ReachabilityGraph</text>
</a>
<polygon fill="none" stroke="black" points="13,-391 13,-411 100,-411 100,-391 13,-391"/>
<text text-anchor="start" x="54.5" y="-399" font-family="Arial" font-size="10.00"> </text>
<polygon fill="none" stroke="black" points="13,-371 13,-391 100,-391 100,-371 13,-371"/>
<text text-anchor="start" x="54.5" y="-379" font-family="Arial" font-size="10.00"> </text>
</g>
<!-- _ReachabilityGraph&#45;&gt;_Pattern -->
<g id="edge50" class="edge"><title>_ReachabilityGraph&#45;&gt;_Pattern</title>
<path fill="none" stroke="black" d="M86.9628,-367.401C105.378,-348.607 129.207,-324.289 150.397,-302.663"/>
<text text-anchor="middle" x="147.073" y="-309.594" font-family="Arial" font-size="10.00">rules *</text>
<text text-anchor="middle" x="90.2873" y="-355.47" font-family="Arial" font-size="10.00">rgraph</text>
</g>
<!-- _ReachableState -->
<g id="node20" class="node"><title>_ReachableState</title>
<a xlink:href="../src/org/sdmlib/models/pattern/ReachableState.java" xlink:title="&lt;TABLE&gt;">
<polygon fill="none" stroke="black" points="11,-267 11,-284 101,-284 101,-267 11,-267"/>
<text text-anchor="start" x="21" y="-273.5" font-family="Arial" font-size="10.00">ReachableState</text>
</a>
<polygon fill="none" stroke="black" points="11,-233 11,-267 101,-267 101,-233 11,-233"/>
<text text-anchor="start" x="16" y="-255" font-family="Arial" font-size="10.00">number :long</text>
<text text-anchor="start" x="16" y="-241" font-family="Arial" font-size="10.00">graphRoot :Object</text>
<polygon fill="none" stroke="black" points="11,-213 11,-233 101,-233 101,-213 11,-213"/>
<text text-anchor="start" x="54" y="-221" font-family="Arial" font-size="10.00"> </text>
</g>
<!-- _ReachabilityGraph&#45;&gt;_ReachableState -->
<g id="edge42" class="edge"><title>_ReachabilityGraph&#45;&gt;_ReachableState</title>
<path fill="none" stroke="black" d="M50.364,-367.401C49.0133,-344.422 48.8909,-313.182 49.9966,-288.704"/>
<text text-anchor="middle" x="53.865" y="-295.426" font-family="Arial" font-size="10.00">states *</text>
<text text-anchor="middle" x="45.6756" y="-356.068" font-family="Arial" font-size="10.00">parent</text>
</g>
<!-- _ReachabilityGraph&#45;&gt;_ReachableState -->
<g id="edge48" class="edge"><title>_ReachabilityGraph&#45;&gt;_ReachableState</title>
<path fill="none" stroke="black" d="M61.636,-367.401C62.9867,-344.422 63.1091,-313.182 62.0034,-288.704"/>
<text text-anchor="middle" x="66.5809" y="-295.095" font-family="Arial" font-size="10.00">todo *</text>
<text text-anchor="middle" x="57.8833" y="-355.632" font-family="Arial" font-size="10.00">master</text>
</g>
<!-- _RuleApplication -->
<g id="node21" class="node"><title>_RuleApplication</title>
<a xlink:href="../src/org/sdmlib/models/pattern/RuleApplication.java" xlink:title="&lt;TABLE&gt;">
<polygon fill="none" stroke="black" points="8,-123 8,-140 98,-140 98,-123 8,-123"/>
<text text-anchor="start" x="19" y="-129.5" font-family="Arial" font-size="10.00">RuleApplication</text>
</a>
<polygon fill="none" stroke="black" points="8,-103 8,-123 98,-123 98,-103 8,-103"/>
<text text-anchor="start" x="13" y="-111" font-family="Arial" font-size="10.00">description :String</text>
<polygon fill="none" stroke="black" points="8,-83 8,-103 98,-103 98,-83 8,-83"/>
<text text-anchor="start" x="51" y="-91" font-family="Arial" font-size="10.00"> </text>
</g>
<!-- _ReachableState&#45;&gt;_RuleApplication -->
<g id="edge44" class="edge"><title>_ReachableState&#45;&gt;_RuleApplication</title>
<path fill="none" stroke="black" d="M48.9697,-209.314C47.6438,-188.901 47.2066,-164.159 47.8755,-144.864"/>
<text text-anchor="middle" x="51.8443" y="-151.542" font-family="Arial" font-size="10.00">ruleapplications *</text>
<text text-anchor="middle" x="44.2135" y="-198.018" font-family="Arial" font-size="10.00">src</text>
</g>
<!-- _ReachableState&#45;&gt;_Object -->
<g id="edge72" class="edge"><title>_ReachableState&#45;&gt;_Object</title>
<path fill="none" stroke="black" d="M81.0816,-209.326C91.949,-192.039 104.548,-171.257 115,-152 133.777,-117.404 120.382,-94.0337 153,-72 222.716,-24.9068 827.86,-19.6374 985.555,-19.0656"/>
<polygon fill="black" stroke="black" points="995.704,-19.0331 985.719,-23.5652 990.704,-19.0492 985.704,-19.0652 985.704,-19.0652 985.704,-19.0652 990.704,-19.0492 985.69,-14.5652 995.704,-19.0331 995.704,-19.0331"/>
<text text-anchor="middle" x="986.655" y="-20.7883" font-family="Arial" font-size="10.00">graphRoot</text>
</g>
<!-- _RuleApplication&#45;&gt;_ReachableState -->
<g id="edge46" class="edge"><title>_RuleApplication&#45;&gt;_ReachableState</title>
<path fill="none" stroke="black" d="M59.5406,-144.864C61.0671,-164.159 61.7296,-188.901 61.311,-209.314"/>
<text text-anchor="middle" x="57.2208" y="-197.689" font-family="Arial" font-size="10.00">tgt</text>
<text text-anchor="middle" x="64.4126" y="-151.096" font-family="Arial" font-size="10.00">resultOf *</text>
</g>
</g>
</svg>
