<?xml version="1.0" encoding="UTF-8" standalone="no"?>
<!DOCTYPE svg PUBLIC "-//W3C//DTD SVG 1.1//EN"
 "http://www.w3.org/Graphics/SVG/1.1/DTD/svg11.dtd">
<!-- Generated by graphviz version 2.28.0 (20110507.0327)
 -->
<!-- Title: ClassDiagram Pages: 1 -->
<svg width="1471pt" height="478pt"
 viewBox="0.00 0.00 1471.00 478.00" xmlns="http://www.w3.org/2000/svg" xmlns:xlink="http://www.w3.org/1999/xlink">
<g id="graph1" class="graph" transform="scale(1 1) rotate(0) translate(4 474)">
<title>ClassDiagram</title>
<polygon fill="white" stroke="white" points="-4,5 -4,-474 1468,-474 1468,5 -4,5"/>
<!-- _PatternElement -->
<g id="node1" class="node"><title>_PatternElement</title>
<a xlink:href="../src/org/sdmlib/models/pattern/PatternElement.java" xlink:title="&lt;TABLE&gt;">
<polygon fill="none" stroke="black" points="639,-448 639,-465 756,-465 756,-448 639,-448"/>
<text text-anchor="start" x="667" y="-454.5" font-family="Times New Roman,serif" font-size="10.00">PatternElement</text>
</a>
<polygon fill="none" stroke="black" points="639,-386 639,-448 756,-448 756,-386 639,-386"/>
<text text-anchor="start" x="644" y="-436" font-family="Times New Roman,serif" font-size="10.00">modifier :String</text>
<text text-anchor="start" x="644" y="-422" font-family="Times New Roman,serif" font-size="10.00">hasMatch :boolean</text>
<text text-anchor="start" x="644" y="-408" font-family="Times New Roman,serif" font-size="10.00">patternObjectName :String</text>
<text text-anchor="start" x="644" y="-394" font-family="Times New Roman,serif" font-size="10.00">doAllMatches :boolean</text>
<polygon fill="none" stroke="black" points="639,-366 639,-386 756,-386 756,-366 639,-366"/>
<text text-anchor="start" x="696" y="-374" font-family="Times New Roman,serif" font-size="10.00"> </text>
</g>
<!-- _Pattern -->
<g id="node2" class="node"><title>_Pattern</title>
<a xlink:href="../src/org/sdmlib/models/pattern/Pattern.java" xlink:title="&lt;TABLE&gt;">
<polygon fill="none" stroke="black" points="1131,-304 1131,-321 1248,-321 1248,-304 1131,-304"/>
<text text-anchor="start" x="1175" y="-310.5" font-family="Times New Roman,serif" font-size="10.00">Pattern</text>
</a>
<polygon fill="none" stroke="black" points="1131,-242 1131,-304 1248,-304 1248,-242 1131,-242"/>
<text text-anchor="start" x="1136" y="-292" font-family="Times New Roman,serif" font-size="10.00">currentSubPattern :Pattern</text>
<text text-anchor="start" x="1136" y="-278" font-family="Times New Roman,serif" font-size="10.00">debugMode :int</text>
<text text-anchor="start" x="1136" y="-264" font-family="Times New Roman,serif" font-size="10.00">trace :StringBuilder</text>
<text text-anchor="start" x="1136" y="-250" font-family="Times New Roman,serif" font-size="10.00">name :String</text>
<polygon fill="none" stroke="black" points="1131,-222 1131,-242 1248,-242 1248,-222 1131,-222"/>
<text text-anchor="start" x="1188" y="-230" font-family="Times New Roman,serif" font-size="10.00"> </text>
</g>
<!-- _PatternElement&#45;&gt;_Pattern -->
<g id="edge2" class="edge"><title>_PatternElement&#45;&gt;_Pattern</title>
<path fill="none" stroke="black" d="M771.644,-358.886C908.16,-311.414 964.422,-378.071 1104,-326 1110.18,-323.695 1116.33,-320.768 1122.34,-317.479"/>
<polygon fill="none" stroke="black" points="770.315,-355.645 762.105,-362.342 772.699,-362.226 770.315,-355.645"/>
</g>
<!-- _PatternObject -->
<g id="node6" class="node"><title>_PatternObject</title>
<a xlink:href="../src/org/sdmlib/models/pattern/PatternObject.java" xlink:title="&lt;TABLE&gt;">
<polygon fill="none" stroke="black" points="294,-160 294,-177 391,-177 391,-160 294,-160"/>
<text text-anchor="start" x="315" y="-166.5" font-family="Times New Roman,serif" font-size="10.00">PatternObject</text>
</a>
<polygon fill="none" stroke="black" points="294,-126 294,-160 391,-160 391,-126 294,-126"/>
<text text-anchor="start" x="299" y="-148" font-family="Times New Roman,serif" font-size="10.00">currentMatch :Object</text>
<text text-anchor="start" x="299" y="-134" font-family="Times New Roman,serif" font-size="10.00">candidates :Object</text>
<polygon fill="none" stroke="black" points="294,-106 294,-126 391,-126 391,-106 294,-106"/>
<text text-anchor="start" x="341" y="-114" font-family="Times New Roman,serif" font-size="10.00"> </text>
</g>
<!-- _PatternElement&#45;&gt;_PatternObject -->
<g id="edge8" class="edge"><title>_PatternElement&#45;&gt;_PatternObject</title>
<path fill="none" stroke="black" d="M620.498,-408.737C517.795,-398.559 343.716,-374.491 305,-326 272.035,-284.711 296.049,-221.811 317.847,-181.559"/>
<polygon fill="none" stroke="black" points="620.222,-412.226 630.513,-409.707 620.898,-405.259 620.222,-412.226"/>
</g>
<!-- _PatternLink -->
<g id="node7" class="node"><title>_PatternLink</title>
<a xlink:href="../src/org/sdmlib/models/pattern/PatternLink.java" xlink:title="&lt;TABLE&gt;">
<polygon fill="none" stroke="black" points="869,-290 869,-307 992,-307 992,-290 869,-290"/>
<text text-anchor="start" x="907.5" y="-296.5" font-family="Times New Roman,serif" font-size="10.00">PatternLink</text>
</a>
<polygon fill="none" stroke="black" points="869,-256 869,-290 992,-290 992,-256 869,-256"/>
<text text-anchor="start" x="874" y="-278" font-family="Times New Roman,serif" font-size="10.00">tgtRoleName :String</text>
<text text-anchor="start" x="874" y="-264" font-family="Times New Roman,serif" font-size="10.00">hostGraphSrcObject :Object</text>
<polygon fill="none" stroke="black" points="869,-236 869,-256 992,-256 992,-236 869,-236"/>
<text text-anchor="start" x="929" y="-244" font-family="Times New Roman,serif" font-size="10.00"> </text>
</g>
<!-- _PatternElement&#45;&gt;_PatternLink -->
<g id="edge10" class="edge"><title>_PatternElement&#45;&gt;_PatternLink</title>
<path fill="none" stroke="black" d="M772.484,-361.998C807.338,-342.968 819.812,-343.415 851,-326 858.931,-321.571 867.101,-316.599 875.04,-311.522"/>
<polygon fill="none" stroke="black" points="770.647,-359.015 763.648,-366.969 774.08,-365.116 770.647,-359.015"/>
</g>
<!-- _AttributeConstraint -->
<g id="node8" class="node"><title>_AttributeConstraint</title>
<a xlink:href="../src/org/sdmlib/models/pattern/AttributeConstraint.java" xlink:title="&lt;TABLE&gt;">
<polygon fill="none" stroke="black" points="8,-304 8,-321 131,-321 131,-304 8,-304"/>
<text text-anchor="start" x="30" y="-310.5" font-family="Times New Roman,serif" font-size="10.00">AttributeConstraint</text>
</a>
<polygon fill="none" stroke="black" points="8,-242 8,-304 131,-304 131,-242 8,-242"/>
<text text-anchor="start" x="13" y="-292" font-family="Times New Roman,serif" font-size="10.00">attrName :String</text>
<text text-anchor="start" x="13" y="-278" font-family="Times New Roman,serif" font-size="10.00">tgtValue :Object</text>
<text text-anchor="start" x="13" y="-264" font-family="Times New Roman,serif" font-size="10.00">cmpOp :String</text>
<text text-anchor="start" x="13" y="-250" font-family="Times New Roman,serif" font-size="10.00">hostGraphSrcObject :Object</text>
<polygon fill="none" stroke="black" points="8,-222 8,-242 131,-242 131,-222 8,-222"/>
<text text-anchor="start" x="68" y="-230" font-family="Times New Roman,serif" font-size="10.00"> </text>
</g>
<!-- _PatternElement&#45;&gt;_AttributeConstraint -->
<g id="edge12" class="edge"><title>_PatternElement&#45;&gt;_AttributeConstraint</title>
<path fill="none" stroke="black" d="M620.395,-413.016C511.517,-407.911 307.424,-389.82 147,-326 144.11,-324.85 141.219,-323.579 138.343,-322.211"/>
<polygon fill="none" stroke="black" points="620.485,-416.523 630.63,-413.47 620.795,-409.53 620.485,-416.523"/>
</g>
<!-- _MatchIsomorphicConstraint -->
<g id="node10" class="node"><title>_MatchIsomorphicConstraint</title>
<a xlink:href="../src/org/sdmlib/models/pattern/MatchIsomorphicConstraint.java" xlink:title="&lt;TABLE&gt;">
<polygon fill="none" stroke="black" points="637,-283 637,-300 758,-300 758,-283 637,-283"/>
<text text-anchor="start" x="640.5" y="-289.5" font-family="Times New Roman,serif" font-size="10.00">MatchIsomorphicConstraint</text>
</a>
<polygon fill="none" stroke="black" points="637,-263 637,-283 758,-283 758,-263 637,-263"/>
<text text-anchor="start" x="696" y="-271" font-family="Times New Roman,serif" font-size="10.00"> </text>
<polygon fill="none" stroke="black" points="637,-243 637,-263 758,-263 758,-243 637,-243"/>
<text text-anchor="start" x="696" y="-251" font-family="Times New Roman,serif" font-size="10.00"> </text>
</g>
<!-- _PatternElement&#45;&gt;_MatchIsomorphicConstraint -->
<g id="edge16" class="edge"><title>_PatternElement&#45;&gt;_MatchIsomorphicConstraint</title>
<path fill="none" stroke="black" d="M697,-352.067C697,-335.743 697,-318.843 697,-304.879"/>
<polygon fill="none" stroke="black" points="693.5,-352.124 697,-362.124 700.5,-352.124 693.5,-352.124"/>
</g>
<!-- _CloneOp -->
<g id="node11" class="node"><title>_CloneOp</title>
<a xlink:href="../src/org/sdmlib/models/pattern/CloneOp.java" xlink:title="&lt;TABLE&gt;">
<polygon fill="none" stroke="black" points="792,-283 792,-300 835,-300 835,-283 792,-283"/>
<text text-anchor="start" x="795.5" y="-289.5" font-family="Times New Roman,serif" font-size="10.00">CloneOp</text>
</a>
<polygon fill="none" stroke="black" points="792,-263 792,-283 835,-283 835,-263 792,-263"/>
<text text-anchor="start" x="812" y="-271" font-family="Times New Roman,serif" font-size="10.00"> </text>
<polygon fill="none" stroke="black" points="792,-243 792,-263 835,-263 835,-243 792,-243"/>
<text text-anchor="start" x="812" y="-251" font-family="Times New Roman,serif" font-size="10.00"> </text>
</g>
<!-- _PatternElement&#45;&gt;_CloneOp -->
<g id="edge18" class="edge"><title>_PatternElement&#45;&gt;_CloneOp</title>
<path fill="none" stroke="black" d="M750.42,-354.542C758.446,-345.09 766.53,-335.355 774,-326 779.417,-319.215 785.056,-311.788 790.306,-304.697"/>
<polygon fill="none" stroke="black" points="747.541,-352.523 743.706,-362.399 752.863,-357.07 747.541,-352.523"/>
</g>
<!-- _UnifyGraphsOp -->
<g id="node12" class="node"><title>_UnifyGraphsOp</title>
<a xlink:href="../src/org/sdmlib/models/pattern/UnifyGraphsOp.java" xlink:title="&lt;TABLE&gt;">
<polygon fill="none" stroke="black" points="1026,-283 1026,-300 1097,-300 1097,-283 1026,-283"/>
<text text-anchor="start" x="1029.5" y="-289.5" font-family="Times New Roman,serif" font-size="10.00">UnifyGraphsOp</text>
</a>
<polygon fill="none" stroke="black" points="1026,-263 1026,-283 1097,-283 1097,-263 1026,-263"/>
<text text-anchor="start" x="1060" y="-271" font-family="Times New Roman,serif" font-size="10.00"> </text>
<polygon fill="none" stroke="black" points="1026,-243 1026,-263 1097,-263 1097,-243 1026,-243"/>
<text text-anchor="start" x="1060" y="-251" font-family="Times New Roman,serif" font-size="10.00"> </text>
</g>
<!-- _PatternElement&#45;&gt;_UnifyGraphsOp -->
<g id="edge20" class="edge"><title>_PatternElement&#45;&gt;_UnifyGraphsOp</title>
<path fill="none" stroke="black" d="M773.126,-362.057C873.05,-325.353 916.191,-372.449 1008,-326 1018.33,-320.772 1027.89,-312.773 1035.96,-304.562"/>
<polygon fill="none" stroke="black" points="771.66,-358.871 763.598,-365.745 774.187,-365.4 771.66,-358.871"/>
</g>
<!-- _DestroyObjectElem -->
<g id="node13" class="node"><title>_DestroyObjectElem</title>
<a xlink:href="../src/org/sdmlib/models/pattern/DestroyObjectElem.java" xlink:title="&lt;TABLE&gt;">
<polygon fill="none" stroke="black" points="165,-283 165,-300 250,-300 250,-283 165,-283"/>
<text text-anchor="start" x="168.5" y="-289.5" font-family="Times New Roman,serif" font-size="10.00">DestroyObjectElem</text>
</a>
<polygon fill="none" stroke="black" points="165,-263 165,-283 250,-283 250,-263 165,-263"/>
<text text-anchor="start" x="206" y="-271" font-family="Times New Roman,serif" font-size="10.00"> </text>
<polygon fill="none" stroke="black" points="165,-243 165,-263 250,-263 250,-243 165,-243"/>
<text text-anchor="start" x="206" y="-251" font-family="Times New Roman,serif" font-size="10.00"> </text>
</g>
<!-- _PatternElement&#45;&gt;_DestroyObjectElem -->
<g id="edge22" class="edge"><title>_PatternElement&#45;&gt;_DestroyObjectElem</title>
<path fill="none" stroke="black" d="M620.4,-409.923C532.514,-401.669 385.873,-380.34 272,-326 260.567,-320.544 249.398,-312.676 239.634,-304.664"/>
<polygon fill="none" stroke="black" points="620.282,-413.427 630.557,-410.844 620.914,-406.456 620.282,-413.427"/>
</g>
<!-- _CardinalityConstraint -->
<g id="node14" class="node"><title>_CardinalityConstraint</title>
<a xlink:href="../src/org/sdmlib/models/pattern/CardinalityConstraint.java" xlink:title="&lt;TABLE&gt;">
<polygon fill="none" stroke="black" points="480,-304 480,-321 603,-321 603,-304 480,-304"/>
<text text-anchor="start" x="498.5" y="-310.5" font-family="Times New Roman,serif" font-size="10.00">CardinalityConstraint</text>
</a>
<polygon fill="none" stroke="black" points="480,-242 480,-304 603,-304 603,-242 480,-242"/>
<text text-anchor="start" x="485" y="-292" font-family="Times New Roman,serif" font-size="10.00">tgtRoleName :String</text>
<text text-anchor="start" x="485" y="-278" font-family="Times New Roman,serif" font-size="10.00">hostGraphSrcObject :Object</text>
<text text-anchor="start" x="485" y="-264" font-family="Times New Roman,serif" font-size="10.00">minCard :long</text>
<text text-anchor="start" x="485" y="-250" font-family="Times New Roman,serif" font-size="10.00">maxCard :long</text>
<polygon fill="none" stroke="black" points="480,-222 480,-242 603,-242 603,-222 480,-222"/>
<text text-anchor="start" x="540" y="-230" font-family="Times New Roman,serif" font-size="10.00"> </text>
</g>
<!-- _PatternElement&#45;&gt;_CardinalityConstraint -->
<g id="edge24" class="edge"><title>_PatternElement&#45;&gt;_CardinalityConstraint</title>
<path fill="none" stroke="black" d="M631.48,-355.36C620.654,-345.505 609.498,-335.351 598.877,-325.683"/>
<polygon fill="none" stroke="black" points="629.16,-357.981 638.911,-362.124 633.872,-352.805 629.16,-357.981"/>
</g>
<!-- _MatchOtherThen -->
<g id="node15" class="node"><title>_MatchOtherThen</title>
<a xlink:href="../src/org/sdmlib/models/pattern/MatchOtherThen.java" xlink:title="&lt;TABLE&gt;">
<polygon fill="none" stroke="black" points="323,-283 323,-300 446,-300 446,-283 323,-283"/>
<text text-anchor="start" x="349.5" y="-289.5" font-family="Times New Roman,serif" font-size="10.00">MatchOtherThen</text>
</a>
<polygon fill="none" stroke="black" points="323,-263 323,-283 446,-283 446,-263 323,-263"/>
<text text-anchor="start" x="328" y="-271" font-family="Times New Roman,serif" font-size="10.00">hostGraphSrcObject :Object</text>
<polygon fill="none" stroke="black" points="323,-243 323,-263 446,-263 446,-243 323,-243"/>
<text text-anchor="start" x="383" y="-251" font-family="Times New Roman,serif" font-size="10.00"> </text>
</g>
<!-- _PatternElement&#45;&gt;_MatchOtherThen -->
<g id="edge26" class="edge"><title>_PatternElement&#45;&gt;_MatchOtherThen</title>
<path fill="none" stroke="black" d="M621.125,-391.335C574.112,-375.446 513.151,-352.593 462,-326 450.089,-319.807 437.805,-312.144 426.61,-304.588"/>
<polygon fill="none" stroke="black" points="620.042,-394.663 630.636,-394.518 622.264,-388.025 620.042,-394.663"/>
</g>
<!-- _Pattern&#45;&gt;_PatternElement -->
<g id="edge28" class="edge"><title>_Pattern&#45;&gt;_PatternElement</title>
<path fill="none" stroke="black" d="M1122.9,-325.658C1122.6,-325.774 1122.3,-325.888 1122,-326 979.215,-379.268 923.619,-308.288 781,-362 775.032,-364.248 769.097,-367.087 763.298,-370.278"/>
<text text-anchor="middle" x="769.247" y="-359.74" font-family="Times New Roman,serif" font-size="10.00">elements *</text>
<text text-anchor="middle" x="1115.95" y="-330.343" font-family="Times New Roman,serif" font-size="10.00">pattern</text>
</g>
<!-- _Pattern&#45;&gt;_Pattern -->
<g id="edge48" class="edge"><title>_Pattern&#45;&gt;_Pattern</title>
<path fill="none" stroke="black" d="M1255.54,-294.338C1265.92,-290.999 1273,-283.553 1273,-272 1273,-264.238 1269.81,-258.33 1264.56,-254.275"/>
<polygon fill="black" stroke="black" points="1255.54,-249.662 1266.5,-250.211 1260,-251.939 1264.45,-254.217 1264.45,-254.217 1264.45,-254.217 1260,-251.939 1262.4,-258.223 1255.54,-249.662 1255.54,-249.662"/>
<text text-anchor="middle" x="1265.54" y="-247.528" font-family="Times New Roman,serif" font-size="10.00">currentSubPattern</text>
</g>
<!-- _StringBuilder -->
<g id="node3" class="node"><title>_StringBuilder</title>
<a xlink:href="../src/java/lang/StringBuilder.java" xlink:title="&lt;TABLE&gt;">
<polygon fill="none" stroke="black" points="1276,-153 1276,-170 1336,-170 1336,-153 1276,-153"/>
<text text-anchor="start" x="1279.5" y="-159.5" font-family="Times New Roman,serif" font-size="10.00">StringBuilder</text>
</a>
<polygon fill="none" stroke="black" points="1276,-133 1276,-153 1336,-153 1336,-133 1276,-133"/>
<text text-anchor="start" x="1304.5" y="-141" font-family="Times New Roman,serif" font-size="10.00"> </text>
<polygon fill="none" stroke="black" points="1276,-113 1276,-133 1336,-133 1336,-113 1276,-113"/>
<text text-anchor="start" x="1304.5" y="-121" font-family="Times New Roman,serif" font-size="10.00"> </text>
</g>
<!-- _Pattern&#45;&gt;_StringBuilder -->
<g id="edge50" class="edge"><title>_Pattern&#45;&gt;_StringBuilder</title>
<path fill="none" stroke="black" d="M1237.26,-218.199C1248.21,-206.225 1259.65,-193.711 1269.98,-182.405"/>
<polygon fill="black" stroke="black" points="1276.94,-174.792 1273.51,-185.209 1273.57,-178.483 1270.19,-182.173 1270.19,-182.173 1270.19,-182.173 1273.57,-178.483 1266.87,-179.137 1276.94,-174.792 1276.94,-174.792"/>
<text text-anchor="middle" x="1273.94" y="-181.833" font-family="Times New Roman,serif" font-size="10.00">trace</text>
</g>
<!-- _NegativeApplicationCondition -->
<g id="node4" class="node"><title>_NegativeApplicationCondition</title>
<a xlink:href="../src/org/sdmlib/models/pattern/NegativeApplicationCondition.java" xlink:title="&lt;TABLE&gt;">
<polygon fill="none" stroke="black" points="972,-153 972,-170 1103,-170 1103,-153 972,-153"/>
<text text-anchor="start" x="975.5" y="-159.5" font-family="Times New Roman,serif" font-size="10.00">NegativeApplicationCondition</text>
</a>
<polygon fill="none" stroke="black" points="972,-133 972,-153 1103,-153 1103,-133 972,-133"/>
<text text-anchor="start" x="1036" y="-141" font-family="Times New Roman,serif" font-size="10.00"> </text>
<polygon fill="none" stroke="black" points="972,-113 972,-133 1103,-133 1103,-113 972,-113"/>
<text text-anchor="start" x="1036" y="-121" font-family="Times New Roman,serif" font-size="10.00"> </text>
</g>
<!-- _Pattern&#45;&gt;_NegativeApplicationCondition -->
<g id="edge4" class="edge"><title>_Pattern&#45;&gt;_NegativeApplicationCondition</title>
<path fill="none" stroke="black" d="M1118.45,-211.592C1103.38,-198.897 1088.01,-185.96 1074.75,-174.792"/>
<polygon fill="none" stroke="black" points="1116.39,-214.434 1126.3,-218.199 1120.9,-209.08 1116.39,-214.434"/>
</g>
<!-- _OptionalSubPattern -->
<g id="node5" class="node"><title>_OptionalSubPattern</title>
<a xlink:href="../src/org/sdmlib/models/pattern/OptionalSubPattern.java" xlink:title="&lt;TABLE&gt;">
<polygon fill="none" stroke="black" points="1137,-153 1137,-170 1242,-170 1242,-153 1137,-153"/>
<text text-anchor="start" x="1150" y="-159.5" font-family="Times New Roman,serif" font-size="10.00">OptionalSubPattern</text>
</a>
<polygon fill="none" stroke="black" points="1137,-133 1137,-153 1242,-153 1242,-133 1137,-133"/>
<text text-anchor="start" x="1142" y="-141" font-family="Times New Roman,serif" font-size="10.00">matchForward :boolean</text>
<polygon fill="none" stroke="black" points="1137,-113 1137,-133 1242,-133 1242,-113 1137,-113"/>
<text text-anchor="start" x="1188" y="-121" font-family="Times New Roman,serif" font-size="10.00"> </text>
</g>
<!-- _Pattern&#45;&gt;_OptionalSubPattern -->
<g id="edge6" class="edge"><title>_Pattern&#45;&gt;_OptionalSubPattern</title>
<path fill="none" stroke="black" d="M1189,-208.094C1189,-196.538 1189,-184.935 1189,-174.792"/>
<polygon fill="none" stroke="black" points="1185.5,-208.198 1189,-218.199 1192.5,-208.199 1185.5,-208.198"/>
</g>
<!-- _Object -->
<g id="node47" class="node"><title>_Object</title>
<text text-anchor="middle" x="384" y="-30.5" font-family="Times New Roman,serif" font-size="10.00">_Object</text>
</g>
<!-- _PatternObject&#45;&gt;_Object -->
<g id="edge52" class="edge"><title>_PatternObject&#45;&gt;_Object</title>
<path fill="none" stroke="black" d="M350.65,-102.371C355.697,-88.3462 361.989,-72.841 367.842,-60.1465"/>
<polygon fill="black" stroke="black" points="372.204,-51.058 371.934,-62.0205 370.041,-55.5656 367.877,-60.0733 367.877,-60.0733 367.877,-60.0733 370.041,-55.5656 363.82,-58.126 372.204,-51.058 372.204,-51.058"/>
<text text-anchor="middle" x="372.092" y="-58.5574" font-family="Times New Roman,serif" font-size="10.00">currentMatch</text>
</g>
<!-- _PatternObject&#45;&gt;_Object -->
<g id="edge54" class="edge"><title>_PatternObject&#45;&gt;_Object</title>
<path fill="none" stroke="black" d="M363.676,-102.371C369.522,-88.6212 375.289,-73.4485 379.388,-60.8965"/>
<polygon fill="black" stroke="black" points="382.405,-51.058 383.775,-61.9378 380.939,-55.8383 379.473,-60.6187 379.473,-60.6187 379.473,-60.6187 380.939,-55.8383 375.171,-59.2996 382.405,-51.058 382.405,-51.058"/>
<text text-anchor="middle" x="383.788" y="-58.4618" font-family="Times New Roman,serif" font-size="10.00">candidates</text>
</g>
<!-- _LinkConstraint -->
<g id="node9" class="node"><title>_LinkConstraint</title>
<a xlink:href="../src/org/sdmlib/models/pattern/LinkConstraint.java" xlink:title="&lt;TABLE&gt;">
<polygon fill="none" stroke="black" points="871,-153 871,-170 938,-170 938,-153 871,-153"/>
<text text-anchor="start" x="874.5" y="-159.5" font-family="Times New Roman,serif" font-size="10.00">LinkConstraint</text>
</a>
<polygon fill="none" stroke="black" points="871,-133 871,-153 938,-153 938,-133 871,-133"/>
<text text-anchor="start" x="903" y="-141" font-family="Times New Roman,serif" font-size="10.00"> </text>
<polygon fill="none" stroke="black" points="871,-113 871,-133 938,-133 938,-113 871,-113"/>
<text text-anchor="start" x="903" y="-121" font-family="Times New Roman,serif" font-size="10.00"> </text>
</g>
<!-- _PatternLink&#45;&gt;_LinkConstraint -->
<g id="edge14" class="edge"><title>_PatternLink&#45;&gt;_LinkConstraint</title>
<path fill="none" stroke="black" d="M920.058,-222.055C916.836,-206.19 913.347,-189.017 910.448,-174.742"/>
<polygon fill="none" stroke="black" points="916.708,-223.145 922.129,-232.248 923.568,-221.752 916.708,-223.145"/>
</g>
<!-- _PatternLink&#45;&gt;_Object -->
<g id="edge56" class="edge"><title>_PatternLink&#45;&gt;_Object</title>
<path fill="none" stroke="black" d="M875.684,-232.366C867.578,-227.249 859.19,-222.297 851,-218 697.812,-137.64 501.394,-71.2695 420.901,-45.5125"/>
<polygon fill="black" stroke="black" points="411.221,-42.4326 422.115,-41.1766 415.986,-43.9487 420.75,-45.4648 420.75,-45.4648 420.75,-45.4648 415.986,-43.9487 419.386,-49.7529 411.221,-42.4326 411.221,-42.4326"/>
<text text-anchor="middle" x="421.139" y="-38.6534" font-family="Times New Roman,serif" font-size="10.00">hostGraphSrcObject</text>
</g>
<!-- _AttributeConstraint&#45;&gt;_PatternObject -->
<g id="edge30" class="edge"><title>_AttributeConstraint&#45;&gt;_PatternObject</title>
<path fill="none" stroke="black" d="M138.688,-222.54C141.467,-220.962 144.244,-219.442 147,-218 191.834,-194.545 245.71,-174.381 285.459,-160.887"/>
<text text-anchor="middle" x="278.266" y="-165.334" font-family="Times New Roman,serif" font-size="10.00">src</text>
<text text-anchor="middle" x="144.494" y="-211.899" font-family="Times New Roman,serif" font-size="10.00">attrConstraints *</text>
</g>
<!-- _AttributeConstraint&#45;&gt;_Object -->
<g id="edge58" class="edge"><title>_AttributeConstraint&#45;&gt;_Object</title>
<path fill="none" stroke="black" d="M121.821,-218.308C160.956,-183.89 215.958,-138.694 267,-102 293.047,-83.2748 324.176,-63.98 347.935,-50.7492"/>
<polygon fill="black" stroke="black" points="356.978,-45.8163 350.354,-54.5556 352.589,-48.2107 348.199,-50.6051 348.199,-50.6051 348.199,-50.6051 352.589,-48.2107 346.045,-46.6546 356.978,-45.8163 356.978,-45.8163"/>
<text text-anchor="middle" x="351.046" y="-51.3665" font-family="Times New Roman,serif" font-size="10.00">tgtValue</text>
</g>
<!-- _AttributeConstraint&#45;&gt;_Object -->
<g id="edge60" class="edge"><title>_AttributeConstraint&#45;&gt;_Object</title>
<path fill="none" stroke="black" d="M137.152,-218.308C178.956,-183.89 233.958,-138.694 285,-102 307.31,-85.9615 333.348,-69.5052 353.244,-56.7992"/>
<polygon fill="black" stroke="black" points="361.918,-51.2402 355.927,-60.4248 357.708,-53.9382 353.498,-56.6361 353.498,-56.6361 353.498,-56.6361 357.708,-53.9382 351.07,-52.8474 361.918,-51.2402 361.918,-51.2402"/>
<text text-anchor="middle" x="356.568" y="-57.1887" font-family="Times New Roman,serif" font-size="10.00">hostGraphSrcObject</text>
</g>
<!-- _DestroyObjectElem&#45;&gt;_PatternObject -->
<g id="edge32" class="edge"><title>_DestroyObjectElem&#45;&gt;_PatternObject</title>
<path fill="none" stroke="black" d="M240.371,-239.36C258.798,-221.888 281.83,-200.05 301.307,-181.583"/>
<text text-anchor="middle" x="297.638" y="-188.386" font-family="Times New Roman,serif" font-size="10.00">patternObject</text>
<text text-anchor="middle" x="244.04" y="-227.557" font-family="Times New Roman,serif" font-size="10.00">destroyElem</text>
</g>
<!-- _CardinalityConstraint&#45;&gt;_PatternObject -->
<g id="edge34" class="edge"><title>_CardinalityConstraint&#45;&gt;_PatternObject</title>
<path fill="none" stroke="black" d="M471.722,-224.339C468.441,-222.187 465.188,-220.065 462,-218 441.38,-204.644 418.559,-190.279 398.402,-177.73"/>
<text text-anchor="middle" x="408.329" y="-176.438" font-family="Times New Roman,serif" font-size="10.00">src</text>
<text text-anchor="middle" x="461.825" y="-220.404" font-family="Times New Roman,serif" font-size="10.00">cardConstraints *</text>
</g>
<!-- _CardinalityConstraint&#45;&gt;_Object -->
<g id="edge62" class="edge"><title>_CardinalityConstraint&#45;&gt;_Object</title>
<path fill="none" stroke="black" d="M506.157,-218.402C473.456,-169.038 425.935,-97.3028 400.894,-59.5029"/>
<polygon fill="black" stroke="black" points="395.325,-51.0951 404.599,-56.9466 398.086,-55.2634 400.847,-59.4318 400.847,-59.4318 400.847,-59.4318 398.086,-55.2634 397.096,-61.917 395.325,-51.0951 395.325,-51.0951"/>
<text text-anchor="middle" x="403.853" y="-53.8167" font-family="Times New Roman,serif" font-size="10.00">hostGraphSrcObject</text>
</g>
<!-- _MatchOtherThen&#45;&gt;_PatternObject -->
<g id="edge36" class="edge"><title>_MatchOtherThen&#45;&gt;_PatternObject</title>
<path fill="none" stroke="black" d="M367.702,-239.36C360.984,-221.888 353.706,-200.05 348.407,-181.583"/>
<text text-anchor="middle" x="355.006" y="-186.597" font-family="Times New Roman,serif" font-size="10.00">src</text>
<text text-anchor="middle" x="360.542" y="-229.878" font-family="Times New Roman,serif" font-size="10.00">matchOtherThen *</text>
</g>
<!-- _MatchOtherThen&#45;&gt;_PatternObject -->
<g id="edge38" class="edge"><title>_MatchOtherThen&#45;&gt;_PatternObject</title>
<path fill="none" stroke="black" d="M379.534,-239.36C374.786,-221.888 367.733,-200.05 360.913,-181.583"/>
<text text-anchor="middle" x="367.984" y="-186.154" font-family="Times New Roman,serif" font-size="10.00">forbidden</text>
<text text-anchor="middle" x="373.035" y="-229.259" font-family="Times New Roman,serif" font-size="10.00">excluders *</text>
</g>
<!-- _MatchOtherThen&#45;&gt;_Object -->
<g id="edge64" class="edge"><title>_MatchOtherThen&#45;&gt;_Object</title>
<path fill="none" stroke="black" d="M394.29,-239.249C399.206,-222.433 404.545,-201.315 407,-182 411.484,-146.728 412.773,-137.084 407,-102 404.708,-88.0696 399.941,-73.1526 395.338,-60.8499"/>
<polygon fill="black" stroke="black" points="391.568,-51.2095 399.401,-58.8838 393.389,-55.8661 395.21,-60.5227 395.21,-60.5227 395.21,-60.5227 393.389,-55.8661 391.019,-62.1617 391.568,-51.2095 391.568,-51.2095"/>
<text text-anchor="middle" x="398.804" y="-55.611" font-family="Times New Roman,serif" font-size="10.00">hostGraphSrcObject</text>
</g>
<!-- _JsonIdMap -->
<g id="node16" class="node"><title>_JsonIdMap</title>
<a xlink:href="../src/org/sdmlib/serialization/json/JsonIdMap.java" xlink:title="&lt;TABLE&gt;">
<polygon fill="none" stroke="black" points="790,-427 790,-444 843,-444 843,-427 790,-427"/>
<text text-anchor="start" x="793.5" y="-433.5" font-family="Times New Roman,serif" font-size="10.00">JsonIdMap</text>
</a>
<polygon fill="none" stroke="black" points="790,-407 790,-427 843,-427 843,-407 790,-407"/>
<text text-anchor="start" x="815" y="-415" font-family="Times New Roman,serif" font-size="10.00"> </text>
<polygon fill="none" stroke="black" points="790,-387 790,-407 843,-407 843,-387 790,-387"/>
<text text-anchor="start" x="815" y="-395" font-family="Times New Roman,serif" font-size="10.00"> </text>
</g>
<!-- _SDMLibJsonIdMap -->
<g id="node17" class="node"><title>_SDMLibJsonIdMap</title>
<a xlink:href="../src/org/sdmlib/serialization/json/SDMLibJsonIdMap.java" xlink:title="&lt;TABLE&gt;">
<polygon fill="none" stroke="black" points="877,-427 877,-444 964,-444 964,-427 877,-427"/>
<text text-anchor="start" x="880.5" y="-433.5" font-family="Times New Roman,serif" font-size="10.00">SDMLibJsonIdMap</text>
</a>
<polygon fill="none" stroke="black" points="877,-407 877,-427 964,-427 964,-407 877,-407"/>
<text text-anchor="start" x="919" y="-415" font-family="Times New Roman,serif" font-size="10.00"> </text>
<polygon fill="none" stroke="black" points="877,-387 877,-407 964,-407 964,-387 877,-387"/>
<text text-anchor="start" x="919" y="-395" font-family="Times New Roman,serif" font-size="10.00"> </text>
</g>
<!-- _ReachabilityGraph -->
<g id="node18" class="node"><title>_ReachabilityGraph</title>
<a xlink:href="../src/org/sdmlib/models/pattern/ReachabilityGraph.java" xlink:title="&lt;TABLE&gt;">
<polygon fill="none" stroke="black" points="1373,-283 1373,-300 1454,-300 1454,-283 1373,-283"/>
<text text-anchor="start" x="1376.5" y="-289.5" font-family="Times New Roman,serif" font-size="10.00">ReachabilityGraph</text>
</a>
<polygon fill="none" stroke="black" points="1373,-263 1373,-283 1454,-283 1454,-263 1373,-263"/>
<text text-anchor="start" x="1412" y="-271" font-family="Times New Roman,serif" font-size="10.00"> </text>
<polygon fill="none" stroke="black" points="1373,-243 1373,-263 1454,-263 1454,-243 1373,-243"/>
<text text-anchor="start" x="1412" y="-251" font-family="Times New Roman,serif" font-size="10.00"> </text>
</g>
<!-- _ReachableState -->
<g id="node19" class="node"><title>_ReachableState</title>
<a xlink:href="../src/org/sdmlib/models/pattern/ReachableState.java" xlink:title="&lt;TABLE&gt;">
<polygon fill="none" stroke="black" points="1371,-160 1371,-177 1456,-177 1456,-160 1371,-160"/>
<text text-anchor="start" x="1382.5" y="-166.5" font-family="Times New Roman,serif" font-size="10.00">ReachableState</text>
</a>
<polygon fill="none" stroke="black" points="1371,-126 1371,-160 1456,-160 1456,-126 1371,-126"/>
<text text-anchor="start" x="1376" y="-148" font-family="Times New Roman,serif" font-size="10.00">number :long</text>
<text text-anchor="start" x="1376" y="-134" font-family="Times New Roman,serif" font-size="10.00">graphRoot :Object</text>
<polygon fill="none" stroke="black" points="1371,-106 1371,-126 1456,-126 1456,-106 1371,-106"/>
<text text-anchor="start" x="1412" y="-114" font-family="Times New Roman,serif" font-size="10.00"> </text>
</g>
<!-- _ReachabilityGraph&#45;&gt;_ReachableState -->
<g id="edge40" class="edge"><title>_ReachabilityGraph&#45;&gt;_ReachableState</title>
<path fill="none" stroke="black" d="M1407.08,-239.36C1406.1,-221.888 1405.99,-200.05 1406.75,-181.583"/>
<text text-anchor="middle" x="1410.65" y="-188.292" font-family="Times New Roman,serif" font-size="10.00">states *</text>
<text text-anchor="middle" x="1402.41" y="-228.02" font-family="Times New Roman,serif" font-size="10.00">parent</text>
</g>
<!-- _ReachabilityGraph&#45;&gt;_ReachableState -->
<g id="edge46" class="edge"><title>_ReachabilityGraph&#45;&gt;_ReachableState</title>
<path fill="none" stroke="black" d="M1418.92,-239.36C1419.9,-221.888 1420.01,-200.05 1419.25,-181.583"/>
<text text-anchor="middle" x="1423.8" y="-187.989" font-family="Times New Roman,serif" font-size="10.00">todo *</text>
<text text-anchor="middle" x="1415.15" y="-227.596" font-family="Times New Roman,serif" font-size="10.00">master</text>
</g>
<!-- _RuleApplication -->
<g id="node20" class="node"><title>_RuleApplication</title>
<a xlink:href="../src/org/sdmlib/models/pattern/RuleApplication.java" xlink:title="&lt;TABLE&gt;">
<polygon fill="none" stroke="black" points="1371,-44 1371,-61 1456,-61 1456,-44 1371,-44"/>
<text text-anchor="start" x="1380.5" y="-50.5" font-family="Times New Roman,serif" font-size="10.00">RuleApplication</text>
</a>
<polygon fill="none" stroke="black" points="1371,-24 1371,-44 1456,-44 1456,-24 1371,-24"/>
<text text-anchor="start" x="1376" y="-32" font-family="Times New Roman,serif" font-size="10.00">description :String</text>
<polygon fill="none" stroke="black" points="1371,-4 1371,-24 1456,-24 1456,-4 1371,-4"/>
<text text-anchor="start" x="1412" y="-12" font-family="Times New Roman,serif" font-size="10.00"> </text>
</g>
<!-- _ReachableState&#45;&gt;_RuleApplication -->
<g id="edge42" class="edge"><title>_ReachableState&#45;&gt;_RuleApplication</title>
<path fill="none" stroke="black" d="M1406.49,-102.371C1406.09,-90.2786 1406.19,-77.0858 1406.78,-65.5428"/>
<text text-anchor="middle" x="1410.58" y="-72.2921" font-family="Times New Roman,serif" font-size="10.00">ruleapplications *</text>
<text text-anchor="middle" x="1402.01" y="-90.931" font-family="Times New Roman,serif" font-size="10.00">src</text>
</g>
<!-- _ReachableState&#45;&gt;_Object -->
<g id="edge66" class="edge"><title>_ReachableState&#45;&gt;_Object</title>
<path fill="none" stroke="black" d="M1362.5,-105.768C1359.36,-104.34 1356.18,-103.065 1353,-102 1175.56,-42.5641 577.56,-35.0751 421.505,-34.1345"/>
<polygon fill="black" stroke="black" points="411.044,-34.0774 421.069,-29.6321 416.044,-34.1047 421.044,-34.1321 421.044,-34.1321 421.044,-34.1321 416.044,-34.1047 421.019,-38.632 411.044,-34.0774 411.044,-34.0774"/>
<text text-anchor="middle" x="420.13" y="-27.4007" font-family="Times New Roman,serif" font-size="10.00">graphRoot</text>
</g>
<!-- _RuleApplication&#45;&gt;_ReachableState -->
<g id="edge44" class="edge"><title>_RuleApplication&#45;&gt;_ReachableState</title>
<path fill="none" stroke="black" d="M1419.22,-65.5428C1419.81,-77.0858 1419.91,-90.2786 1419.51,-102.371"/>
<text text-anchor="middle" x="1415.55" y="-90.6913" font-family="Times New Roman,serif" font-size="10.00">tgt</text>
<text text-anchor="middle" x="1423.86" y="-71.9002" font-family="Times New Roman,serif" font-size="10.00">resultOf *</text>
</g>
</g>
</svg>
