<?xml version="1.0" encoding="UTF-8" standalone="no"?>
<!DOCTYPE svg PUBLIC "-//W3C//DTD SVG 1.1//EN"
 "http://www.w3.org/Graphics/SVG/1.1/DTD/svg11.dtd">
<!-- Generated by graphviz version 2.28.0 (20110507.0327)
 -->
<!-- Title: ClassDiagram Pages: 1 -->
<svg width="960pt" height="434pt"
 viewBox="0.00 0.00 960.00 434.00" xmlns="http://www.w3.org/2000/svg" xmlns:xlink="http://www.w3.org/1999/xlink">
<g id="graph1" class="graph" transform="scale(1 1) rotate(0) translate(4 430)">
<title>ClassDiagram</title>
<polygon fill="white" stroke="white" points="-4,5 -4,-430 957,-430 957,5 -4,5"/>
<!-- _PatternElement -->
<g id="node1" class="node"><title>_PatternElement</title>
<a xlink:href="../src/org/sdmlib/models/pattern/PatternElement.java" xlink:title="&lt;TABLE&gt;">
<polygon fill="none" stroke="black" points="453,-404 453,-421 570,-421 570,-404 453,-404"/>
<text text-anchor="start" x="481" y="-410.5" font-family="Times New Roman,serif" font-size="10.00">PatternElement</text>
</a>
<polygon fill="none" stroke="black" points="453,-342 453,-404 570,-404 570,-342 453,-342"/>
<text text-anchor="start" x="458" y="-392" font-family="Times New Roman,serif" font-size="10.00">modifier :String</text>
<text text-anchor="start" x="458" y="-378" font-family="Times New Roman,serif" font-size="10.00">hasMatch :boolean</text>
<text text-anchor="start" x="458" y="-364" font-family="Times New Roman,serif" font-size="10.00">patternObjectName :String</text>
<text text-anchor="start" x="458" y="-350" font-family="Times New Roman,serif" font-size="10.00">doAllMatches :boolean</text>
<polygon fill="none" stroke="black" points="453,-322 453,-342 570,-342 570,-322 453,-322"/>
<text text-anchor="start" x="510" y="-330" font-family="Times New Roman,serif" font-size="10.00"> </text>
</g>
<!-- _Pattern -->
<g id="node2" class="node"><title>_Pattern</title>
<a xlink:href="../src/org/sdmlib/models/pattern/Pattern.java" xlink:title="&lt;TABLE&gt;">
<polygon fill="none" stroke="black" points="183,-260 183,-277 300,-277 300,-260 183,-260"/>
<text text-anchor="start" x="227" y="-266.5" font-family="Times New Roman,serif" font-size="10.00">Pattern</text>
</a>
<polygon fill="none" stroke="black" points="183,-212 183,-260 300,-260 300,-212 183,-212"/>
<text text-anchor="start" x="188" y="-248" font-family="Times New Roman,serif" font-size="10.00">currentSubPattern :Pattern</text>
<text text-anchor="start" x="188" y="-234" font-family="Times New Roman,serif" font-size="10.00">debugMode :int</text>
<text text-anchor="start" x="188" y="-220" font-family="Times New Roman,serif" font-size="10.00">trace :StringBuilder</text>
<polygon fill="none" stroke="black" points="183,-192 183,-212 300,-212 300,-192 183,-192"/>
<text text-anchor="start" x="240" y="-200" font-family="Times New Roman,serif" font-size="10.00"> </text>
</g>
<!-- _PatternElement&#45;&gt;_Pattern -->
<g id="edge2" class="edge"><title>_PatternElement&#45;&gt;_Pattern</title>
<path fill="none" stroke="black" d="M435.424,-336.207C395.153,-316.566 346.105,-292.054 307.321,-272.189"/>
<polygon fill="none" stroke="black" points="434.143,-339.476 444.666,-340.703 437.205,-333.181 434.143,-339.476"/>
</g>
<!-- _PatternObject -->
<g id="node6" class="node"><title>_PatternObject</title>
<a xlink:href="../src/org/sdmlib/models/pattern/PatternObject.java" xlink:title="&lt;TABLE&gt;">
<polygon fill="none" stroke="black" points="547,-130 547,-147 644,-147 644,-130 547,-130"/>
<text text-anchor="start" x="568" y="-136.5" font-family="Times New Roman,serif" font-size="10.00">PatternObject</text>
</a>
<polygon fill="none" stroke="black" points="547,-96 547,-130 644,-130 644,-96 547,-96"/>
<text text-anchor="start" x="552" y="-118" font-family="Times New Roman,serif" font-size="10.00">currentMatch :Object</text>
<text text-anchor="start" x="552" y="-104" font-family="Times New Roman,serif" font-size="10.00">candidates :Object</text>
<polygon fill="none" stroke="black" points="547,-76 547,-96 644,-96 644,-76 547,-76"/>
<text text-anchor="start" x="594" y="-84" font-family="Times New Roman,serif" font-size="10.00"> </text>
</g>
<!-- _PatternElement&#45;&gt;_PatternObject -->
<g id="edge8" class="edge"><title>_PatternElement&#45;&gt;_PatternObject</title>
<path fill="none" stroke="black" d="M508.298,-308.389C508.934,-271.898 513.637,-225.775 530,-188 535.616,-175.035 544.303,-162.681 553.518,-151.876"/>
<polygon fill="none" stroke="black" points="504.798,-308.384 508.22,-318.411 511.798,-308.438 504.798,-308.384"/>
</g>
<!-- _PatternLink -->
<g id="node7" class="node"><title>_PatternLink</title>
<a xlink:href="../src/org/sdmlib/models/pattern/PatternLink.java" xlink:title="&lt;TABLE&gt;">
<polygon fill="none" stroke="black" points="352,-253 352,-270 475,-270 475,-253 352,-253"/>
<text text-anchor="start" x="390.5" y="-259.5" font-family="Times New Roman,serif" font-size="10.00">PatternLink</text>
</a>
<polygon fill="none" stroke="black" points="352,-219 352,-253 475,-253 475,-219 352,-219"/>
<text text-anchor="start" x="357" y="-241" font-family="Times New Roman,serif" font-size="10.00">tgtRoleName :String</text>
<text text-anchor="start" x="357" y="-227" font-family="Times New Roman,serif" font-size="10.00">hostGraphSrcObject :Object</text>
<polygon fill="none" stroke="black" points="352,-199 352,-219 475,-219 475,-199 352,-199"/>
<text text-anchor="start" x="412" y="-207" font-family="Times New Roman,serif" font-size="10.00"> </text>
</g>
<!-- _PatternElement&#45;&gt;_PatternLink -->
<g id="edge10" class="edge"><title>_PatternElement&#45;&gt;_PatternLink</title>
<path fill="none" stroke="black" d="M466.844,-310.173C458.131,-298.17 449.211,-285.883 441.202,-274.85"/>
<polygon fill="none" stroke="black" points="464.123,-312.382 472.83,-318.419 469.788,-308.27 464.123,-312.382"/>
</g>
<!-- _AttributeConstraint -->
<g id="node8" class="node"><title>_AttributeConstraint</title>
<a xlink:href="../src/org/sdmlib/models/pattern/AttributeConstraint.java" xlink:title="&lt;TABLE&gt;">
<polygon fill="none" stroke="black" points="667,-260 667,-277 790,-277 790,-260 667,-260"/>
<text text-anchor="start" x="689" y="-266.5" font-family="Times New Roman,serif" font-size="10.00">AttributeConstraint</text>
</a>
<polygon fill="none" stroke="black" points="667,-212 667,-260 790,-260 790,-212 667,-212"/>
<text text-anchor="start" x="672" y="-248" font-family="Times New Roman,serif" font-size="10.00">attrName :String</text>
<text text-anchor="start" x="672" y="-234" font-family="Times New Roman,serif" font-size="10.00">tgtValue :Object</text>
<text text-anchor="start" x="672" y="-220" font-family="Times New Roman,serif" font-size="10.00">hostGraphSrcObject :Object</text>
<polygon fill="none" stroke="black" points="667,-192 667,-212 790,-212 790,-192 667,-192"/>
<text text-anchor="start" x="727" y="-200" font-family="Times New Roman,serif" font-size="10.00"> </text>
</g>
<!-- _PatternElement&#45;&gt;_AttributeConstraint -->
<g id="edge12" class="edge"><title>_PatternElement&#45;&gt;_AttributeConstraint</title>
<path fill="none" stroke="black" d="M585.735,-318.169C585.823,-318.112 585.912,-318.056 586,-318 613.2,-300.674 621.065,-298.114 649,-282 652.162,-280.176 655.393,-278.309 658.656,-276.42"/>
<polygon fill="none" stroke="black" points="583.913,-315.179 577.43,-323.559 587.723,-321.051 583.913,-315.179"/>
</g>
<!-- _MatchIsomorphicConstraint -->
<g id="node10" class="node"><title>_MatchIsomorphicConstraint</title>
<a xlink:href="../src/org/sdmlib/models/pattern/MatchIsomorphicConstraint.java" xlink:title="&lt;TABLE&gt;">
<polygon fill="none" stroke="black" points="824,-246 824,-263 945,-263 945,-246 824,-246"/>
<text text-anchor="start" x="827.5" y="-252.5" font-family="Times New Roman,serif" font-size="10.00">MatchIsomorphicConstraint</text>
</a>
<polygon fill="none" stroke="black" points="824,-226 824,-246 945,-246 945,-226 824,-226"/>
<text text-anchor="start" x="883" y="-234" font-family="Times New Roman,serif" font-size="10.00"> </text>
<polygon fill="none" stroke="black" points="824,-206 824,-226 945,-226 945,-206 824,-206"/>
<text text-anchor="start" x="883" y="-214" font-family="Times New Roman,serif" font-size="10.00"> </text>
</g>
<!-- _PatternElement&#45;&gt;_MatchIsomorphicConstraint -->
<g id="edge16" class="edge"><title>_PatternElement&#45;&gt;_MatchIsomorphicConstraint</title>
<path fill="none" stroke="black" d="M587.091,-318.022C680.014,-282.654 715.847,-314.655 806,-282 816.347,-278.252 826.867,-273.115 836.693,-267.627"/>
<polygon fill="none" stroke="black" points="585.617,-314.842 577.614,-321.784 588.2,-321.348 585.617,-314.842"/>
</g>
<!-- _DestroyObjectElem -->
<g id="node11" class="node"><title>_DestroyObjectElem</title>
<a xlink:href="../src/org/sdmlib/models/pattern/DestroyObjectElem.java" xlink:title="&lt;TABLE&gt;">
<polygon fill="none" stroke="black" points="548,-246 548,-263 633,-263 633,-246 548,-246"/>
<text text-anchor="start" x="551.5" y="-252.5" font-family="Times New Roman,serif" font-size="10.00">DestroyObjectElem</text>
</a>
<polygon fill="none" stroke="black" points="548,-226 548,-246 633,-246 633,-226 548,-226"/>
<text text-anchor="start" x="589" y="-234" font-family="Times New Roman,serif" font-size="10.00"> </text>
<polygon fill="none" stroke="black" points="548,-206 548,-226 633,-226 633,-206 548,-206"/>
<text text-anchor="start" x="589" y="-214" font-family="Times New Roman,serif" font-size="10.00"> </text>
</g>
<!-- _PatternElement&#45;&gt;_DestroyObjectElem -->
<g id="edge18" class="edge"><title>_PatternElement&#45;&gt;_DestroyObjectElem</title>
<path fill="none" stroke="black" d="M547.009,-309.466C555.49,-294.973 564.188,-280.109 571.522,-267.577"/>
<polygon fill="none" stroke="black" points="543.8,-308.02 541.77,-318.419 549.841,-311.556 543.8,-308.02"/>
</g>
<!-- _Pattern&#45;&gt;_PatternElement -->
<g id="edge20" class="edge"><title>_Pattern&#45;&gt;_PatternElement</title>
<path fill="none" stroke="black" d="M307.415,-266.336C349.221,-286.625 402.921,-313.422 444.702,-334.822"/>
<text text-anchor="middle" x="434.709" y="-331.965" font-family="Times New Roman,serif" font-size="10.00">elements *</text>
<text text-anchor="middle" x="317.414" y="-264.005" font-family="Times New Roman,serif" font-size="10.00">pattern</text>
</g>
<!-- _Pattern&#45;&gt;_Pattern -->
<g id="edge30" class="edge"><title>_Pattern&#45;&gt;_Pattern</title>
<path fill="none" stroke="black" d="M307.545,-255.964C317.924,-252.83 325,-245.842 325,-235 325,-227.716 321.806,-222.171 316.562,-218.366"/>
<polygon fill="black" stroke="black" points="307.545,-214.036 318.507,-214.309 312.052,-216.201 316.559,-218.365 316.559,-218.365 316.559,-218.365 312.052,-216.201 314.611,-222.422 307.545,-214.036 307.545,-214.036"/>
<text text-anchor="middle" x="317.544" y="-211.65" font-family="Times New Roman,serif" font-size="10.00">currentSubPattern</text>
</g>
<!-- _StringBuilder -->
<g id="node3" class="node"><title>_StringBuilder</title>
<a xlink:href="../src/java/lang/StringBuilder.java" xlink:title="&lt;TABLE&gt;">
<polygon fill="none" stroke="black" points="8,-123 8,-140 68,-140 68,-123 8,-123"/>
<text text-anchor="start" x="11.5" y="-129.5" font-family="Times New Roman,serif" font-size="10.00">StringBuilder</text>
</a>
<polygon fill="none" stroke="black" points="8,-103 8,-123 68,-123 68,-103 8,-103"/>
<text text-anchor="start" x="36.5" y="-111" font-family="Times New Roman,serif" font-size="10.00"> </text>
<polygon fill="none" stroke="black" points="8,-83 8,-103 68,-103 68,-83 8,-83"/>
<text text-anchor="start" x="36.5" y="-91" font-family="Times New Roman,serif" font-size="10.00"> </text>
</g>
<!-- _Pattern&#45;&gt;_StringBuilder -->
<g id="edge32" class="edge"><title>_Pattern&#45;&gt;_StringBuilder</title>
<path fill="none" stroke="black" d="M174.744,-203.02C146.334,-188.767 113.253,-170.847 85,-152 84.355,-151.57 83.7085,-151.132 83.0611,-150.688"/>
<polygon fill="black" stroke="black" points="74.6448,-144.614 85.387,-146.817 78.6991,-147.54 82.7534,-150.466 82.7534,-150.466 82.7534,-150.466 78.6991,-147.54 80.1198,-154.115 74.6448,-144.614 74.6448,-144.614"/>
<text text-anchor="middle" x="84.467" y="-143.991" font-family="Times New Roman,serif" font-size="10.00">trace</text>
</g>
<!-- _NegativeApplicationCondition -->
<g id="node4" class="node"><title>_NegativeApplicationCondition</title>
<a xlink:href="../src/org/sdmlib/models/pattern/NegativeApplicationCondition.java" xlink:title="&lt;TABLE&gt;">
<polygon fill="none" stroke="black" points="103,-123 103,-140 234,-140 234,-123 103,-123"/>
<text text-anchor="start" x="106.5" y="-129.5" font-family="Times New Roman,serif" font-size="10.00">NegativeApplicationCondition</text>
</a>
<polygon fill="none" stroke="black" points="103,-103 103,-123 234,-123 234,-103 103,-103"/>
<text text-anchor="start" x="167" y="-111" font-family="Times New Roman,serif" font-size="10.00"> </text>
<polygon fill="none" stroke="black" points="103,-83 103,-103 234,-103 234,-83 103,-83"/>
<text text-anchor="start" x="167" y="-91" font-family="Times New Roman,serif" font-size="10.00"> </text>
</g>
<!-- _Pattern&#45;&gt;_NegativeApplicationCondition -->
<g id="edge4" class="edge"><title>_Pattern&#45;&gt;_NegativeApplicationCondition</title>
<path fill="none" stroke="black" d="M208.177,-179.595C200.931,-167.584 193.49,-155.251 187.012,-144.512"/>
<polygon fill="none" stroke="black" points="205.239,-181.501 213.402,-188.255 211.233,-177.885 205.239,-181.501"/>
</g>
<!-- _OptionalSubPattern -->
<g id="node5" class="node"><title>_OptionalSubPattern</title>
<a xlink:href="../src/org/sdmlib/models/pattern/OptionalSubPattern.java" xlink:title="&lt;TABLE&gt;">
<polygon fill="none" stroke="black" points="268,-123 268,-140 373,-140 373,-123 268,-123"/>
<text text-anchor="start" x="281" y="-129.5" font-family="Times New Roman,serif" font-size="10.00">OptionalSubPattern</text>
</a>
<polygon fill="none" stroke="black" points="268,-103 268,-123 373,-123 373,-103 268,-103"/>
<text text-anchor="start" x="273" y="-111" font-family="Times New Roman,serif" font-size="10.00">matchForward :boolean</text>
<polygon fill="none" stroke="black" points="268,-83 268,-103 373,-103 373,-83 268,-83"/>
<text text-anchor="start" x="319" y="-91" font-family="Times New Roman,serif" font-size="10.00"> </text>
</g>
<!-- _Pattern&#45;&gt;_OptionalSubPattern -->
<g id="edge6" class="edge"><title>_Pattern&#45;&gt;_OptionalSubPattern</title>
<path fill="none" stroke="black" d="M276.521,-179.595C284.362,-167.584 292.415,-155.251 299.426,-144.512"/>
<polygon fill="none" stroke="black" points="273.403,-177.968 270.867,-188.255 279.264,-181.795 273.403,-177.968"/>
</g>
<!-- _Object -->
<g id="node31" class="node"><title>_Object</title>
<text text-anchor="middle" x="595" y="-15.5" font-family="Times New Roman,serif" font-size="10.00">_Object</text>
</g>
<!-- _PatternObject&#45;&gt;_Object -->
<g id="edge34" class="edge"><title>_PatternObject&#45;&gt;_Object</title>
<path fill="none" stroke="black" d="M588.325,-72.2504C588.143,-63.5093 588.293,-54.4099 588.775,-46.2578"/>
<polygon fill="black" stroke="black" points="589.6,-36.1966 593.267,-46.5311 589.191,-41.1798 588.783,-46.1631 588.783,-46.1631 588.783,-46.1631 589.191,-41.1798 584.298,-45.7951 589.6,-36.1966 589.6,-36.1966"/>
<text text-anchor="middle" x="593.071" y="-43.0749" font-family="Times New Roman,serif" font-size="10.00">currentMatch</text>
</g>
<!-- _PatternObject&#45;&gt;_Object -->
<g id="edge36" class="edge"><title>_PatternObject&#45;&gt;_Object</title>
<path fill="none" stroke="black" d="M601.675,-72.2504C601.857,-63.5093 601.707,-54.4099 601.225,-46.2578"/>
<polygon fill="black" stroke="black" points="600.4,-36.1966 605.702,-45.7951 600.809,-41.1798 601.217,-46.1631 601.217,-46.1631 601.217,-46.1631 600.809,-41.1798 596.733,-46.5311 600.4,-36.1966 600.4,-36.1966"/>
<text text-anchor="middle" x="605.353" y="-42.3837" font-family="Times New Roman,serif" font-size="10.00">candidates</text>
</g>
<!-- _PatternLink&#45;&gt;_PatternObject -->
<g id="edge22" class="edge"><title>_PatternLink&#45;&gt;_PatternObject</title>
<path fill="none" stroke="black" d="M464.745,-195.382C487.85,-179.613 515.095,-161.552 538.706,-146.367"/>
<text text-anchor="middle" x="533.383" y="-152.332" font-family="Times New Roman,serif" font-size="10.00">tgt</text>
<text text-anchor="middle" x="469.862" y="-184.29" font-family="Times New Roman,serif" font-size="10.00">incomming *</text>
</g>
<!-- _PatternLink&#45;&gt;_PatternObject -->
<g id="edge24" class="edge"><title>_PatternLink&#45;&gt;_PatternObject</title>
<path fill="none" stroke="black" d="M477.428,-195.382C498.986,-181.411 522.707,-165.641 543.184,-151.666"/>
<text text-anchor="middle" x="538.069" y="-157.759" font-family="Times New Roman,serif" font-size="10.00">src</text>
<text text-anchor="middle" x="482.724" y="-184.4" font-family="Times New Roman,serif" font-size="10.00">outgoing *</text>
</g>
<!-- _LinkConstraint -->
<g id="node9" class="node"><title>_LinkConstraint</title>
<a xlink:href="../src/org/sdmlib/models/pattern/LinkConstraint.java" xlink:title="&lt;TABLE&gt;">
<polygon fill="none" stroke="black" points="446,-123 446,-140 513,-140 513,-123 446,-123"/>
<text text-anchor="start" x="449.5" y="-129.5" font-family="Times New Roman,serif" font-size="10.00">LinkConstraint</text>
</a>
<polygon fill="none" stroke="black" points="446,-103 446,-123 513,-123 513,-103 446,-103"/>
<text text-anchor="start" x="478" y="-111" font-family="Times New Roman,serif" font-size="10.00"> </text>
<polygon fill="none" stroke="black" points="446,-83 446,-103 513,-103 513,-83 446,-83"/>
<text text-anchor="start" x="478" y="-91" font-family="Times New Roman,serif" font-size="10.00"> </text>
</g>
<!-- _PatternLink&#45;&gt;_LinkConstraint -->
<g id="edge14" class="edge"><title>_PatternLink&#45;&gt;_LinkConstraint</title>
<path fill="none" stroke="black" d="M438.975,-186.379C446.591,-172.417 454.73,-157.496 461.666,-144.779"/>
<polygon fill="none" stroke="black" points="435.78,-184.927 434.064,-195.382 441.925,-188.279 435.78,-184.927"/>
</g>
<!-- _PatternLink&#45;&gt;_Object -->
<g id="edge38" class="edge"><title>_PatternLink&#45;&gt;_Object</title>
<path fill="none" stroke="black" d="M405.472,-195.209C400.844,-159.307 400.277,-106.43 428,-72 459.126,-33.3436 518.413,-22.4331 557.321,-19.6036"/>
<polygon fill="black" stroke="black" points="567.714,-19.0035 557.99,-24.0725 562.722,-19.2917 557.73,-19.58 557.73,-19.58 557.73,-19.58 562.722,-19.2917 557.471,-15.0875 567.714,-19.0035 567.714,-19.0035"/>
<text text-anchor="middle" x="558.909" y="-21.2451" font-family="Times New Roman,serif" font-size="10.00">hostGraphSrcObject</text>
</g>
<!-- _AttributeConstraint&#45;&gt;_PatternObject -->
<g id="edge26" class="edge"><title>_AttributeConstraint&#45;&gt;_PatternObject</title>
<path fill="none" stroke="black" d="M677.718,-188.255C664.477,-176.209 650.323,-163.331 637.534,-151.696"/>
<text text-anchor="middle" x="647.081" y="-152.169" font-family="Times New Roman,serif" font-size="10.00">src</text>
<text text-anchor="middle" x="668.171" y="-182.782" font-family="Times New Roman,serif" font-size="10.00">attrConstraints *</text>
</g>
<!-- _AttributeConstraint&#45;&gt;_Object -->
<g id="edge40" class="edge"><title>_AttributeConstraint&#45;&gt;_Object</title>
<path fill="none" stroke="black" d="M708.048,-188.307C695.532,-154.037 677.304,-107.176 651,-72 642.743,-60.9586 631.702,-50.8343 621.521,-42.4593"/>
<polygon fill="black" stroke="black" points="613.61,-36.1335 624.231,-38.8642 617.515,-39.2561 621.421,-42.3787 621.421,-42.3787 621.421,-42.3787 617.515,-39.2561 618.61,-45.8933 613.61,-36.1335 613.61,-36.1335"/>
<text text-anchor="middle" x="623.328" y="-35.9929" font-family="Times New Roman,serif" font-size="10.00">tgtValue</text>
</g>
<!-- _AttributeConstraint&#45;&gt;_Object -->
<g id="edge42" class="edge"><title>_AttributeConstraint&#45;&gt;_Object</title>
<path fill="none" stroke="black" d="M722.844,-188.307C713.532,-154.037 695.304,-107.176 669,-72 658.843,-58.4169 644.471,-46.2218 630.976,-36.9637"/>
<polygon fill="black" stroke="black" points="622.287,-31.3189 633.124,-32.9932 626.48,-34.0429 630.673,-36.7668 630.673,-36.7668 630.673,-36.7668 626.48,-34.0429 628.221,-40.5404 622.287,-31.3189 622.287,-31.3189"/>
<text text-anchor="middle" x="632.189" y="-30.2124" font-family="Times New Roman,serif" font-size="10.00">hostGraphSrcObject</text>
</g>
<!-- _DestroyObjectElem&#45;&gt;_PatternObject -->
<g id="edge28" class="edge"><title>_DestroyObjectElem&#45;&gt;_PatternObject</title>
<path fill="none" stroke="black" d="M591.314,-202.209C591.95,-186.804 592.72,-168.167 593.392,-151.92"/>
<text text-anchor="middle" x="597.24" y="-158.65" font-family="Times New Roman,serif" font-size="10.00">patternObject</text>
<text text-anchor="middle" x="587.465" y="-190.479" font-family="Times New Roman,serif" font-size="10.00">destroyElem</text>
</g>
<!-- _JsonIdMap -->
<g id="node12" class="node"><title>_JsonIdMap</title>
<a xlink:href="../src/org/sdmlib/serialization/json/JsonIdMap.java" xlink:title="&lt;TABLE&gt;">
<polygon fill="none" stroke="black" points="604,-383 604,-400 657,-400 657,-383 604,-383"/>
<text text-anchor="start" x="607.5" y="-389.5" font-family="Times New Roman,serif" font-size="10.00">JsonIdMap</text>
</a>
<polygon fill="none" stroke="black" points="604,-363 604,-383 657,-383 657,-363 604,-363"/>
<text text-anchor="start" x="629" y="-371" font-family="Times New Roman,serif" font-size="10.00"> </text>
<polygon fill="none" stroke="black" points="604,-343 604,-363 657,-363 657,-343 604,-343"/>
<text text-anchor="start" x="629" y="-351" font-family="Times New Roman,serif" font-size="10.00"> </text>
</g>
<!-- _SDMLibJsonIdMap -->
<g id="node13" class="node"><title>_SDMLibJsonIdMap</title>
<a xlink:href="../src/org/sdmlib/serialization/json/SDMLibJsonIdMap.java" xlink:title="&lt;TABLE&gt;">
<polygon fill="none" stroke="black" points="691,-383 691,-400 778,-400 778,-383 691,-383"/>
<text text-anchor="start" x="694.5" y="-389.5" font-family="Times New Roman,serif" font-size="10.00">SDMLibJsonIdMap</text>
</a>
<polygon fill="none" stroke="black" points="691,-363 691,-383 778,-383 778,-363 691,-363"/>
<text text-anchor="start" x="733" y="-371" font-family="Times New Roman,serif" font-size="10.00"> </text>
<polygon fill="none" stroke="black" points="691,-343 691,-363 778,-363 778,-343 691,-343"/>
<text text-anchor="start" x="733" y="-351" font-family="Times New Roman,serif" font-size="10.00"> </text>
</g>
</g>
</svg>
