<?xml version="1.0" encoding="UTF-8" standalone="no"?>
<!DOCTYPE svg PUBLIC "-//W3C//DTD SVG 1.1//EN"
 "http://www.w3.org/Graphics/SVG/1.1/DTD/svg11.dtd">
<!-- Generated by graphviz version 2.28.0 (20110507.0327)
 -->
<!-- Title: ClassDiagram Pages: 1 -->
<svg width="564pt" height="320pt"
 viewBox="0.00 0.00 564.00 320.00" xmlns="http://www.w3.org/2000/svg" xmlns:xlink="http://www.w3.org/1999/xlink">
<g id="graph1" class="graph" transform="scale(1 1) rotate(0) translate(4 316)">
<title>ClassDiagram</title>
<polygon fill="white" stroke="white" points="-4,5 -4,-316 561,-316 561,5 -4,5"/>
<!-- PatternElement -->
<g id="node1" class="node"><title>PatternElement</title>
<polygon fill="none" stroke="black" points="198,-290 198,-307 266,-307 266,-290 198,-290"/>
<text text-anchor="start" x="201.5" y="-296.5" font-family="Times New Roman,serif" font-size="10.00">PatternElement</text>
<polygon fill="none" stroke="black" points="198,-270 198,-290 266,-290 266,-270 198,-270"/>
<text text-anchor="start" x="230.5" y="-278" font-family="Times New Roman,serif" font-size="10.00"> </text>
<polygon fill="none" stroke="black" points="198,-250 198,-270 266,-270 266,-250 198,-250"/>
<text text-anchor="start" x="230.5" y="-258" font-family="Times New Roman,serif" font-size="10.00"> </text>
</g>
<!-- Pattern -->
<g id="node2" class="node"><title>Pattern</title>
<polygon fill="none" stroke="black" points="8,-181 8,-198 196,-198 196,-181 8,-181"/>
<text text-anchor="start" x="87.5" y="-187.5" font-family="Times New Roman,serif" font-size="10.00">Pattern</text>
<polygon fill="none" stroke="black" points="8,-147 8,-181 196,-181 196,-147 8,-147"/>
<text text-anchor="start" x="13" y="-169" font-family="Times New Roman,serif" font-size="10.00">hasMatch :boolean</text>
<text text-anchor="start" x="13" y="-155" font-family="Times New Roman,serif" font-size="10.00">currentNAC :NegativeApplicationCondition</text>
<polygon fill="none" stroke="black" points="8,-127 8,-147 196,-147 196,-127 8,-127"/>
<text text-anchor="start" x="100.5" y="-135" font-family="Times New Roman,serif" font-size="10.00"> </text>
</g>
<!-- PatternElement&#45;&gt;Pattern -->
<g id="edge2" class="edge"><title>PatternElement&#45;&gt;Pattern</title>
<path fill="none" stroke="black" d="M182.012,-239.788C168.028,-227.912 153.079,-214.81 139.909,-202.889"/>
<polygon fill="none" stroke="black" points="179.764,-242.471 189.664,-246.245 184.278,-237.121 179.764,-242.471"/>
</g>
<!-- PatternObject -->
<g id="node4" class="node"><title>PatternObject</title>
<polygon fill="none" stroke="black" points="303,-58 303,-75 400,-75 400,-58 303,-58"/>
<text text-anchor="start" x="324" y="-64.5" font-family="Times New Roman,serif" font-size="10.00">PatternObject</text>
<polygon fill="none" stroke="black" points="303,-24 303,-58 400,-58 400,-24 303,-24"/>
<text text-anchor="start" x="308" y="-46" font-family="Times New Roman,serif" font-size="10.00">currentMatch :Object</text>
<text text-anchor="start" x="308" y="-32" font-family="Times New Roman,serif" font-size="10.00">candidates :Object</text>
<polygon fill="none" stroke="black" points="303,-4 303,-24 400,-24 400,-4 303,-4"/>
<text text-anchor="start" x="350" y="-12" font-family="Times New Roman,serif" font-size="10.00"> </text>
</g>
<!-- PatternElement&#45;&gt;PatternObject -->
<g id="edge6" class="edge"><title>PatternElement&#45;&gt;PatternObject</title>
<path fill="none" stroke="black" d="M228.169,-236.291C226.955,-201.801 229.886,-152.704 251,-116 261.334,-98.0355 277.874,-83.0369 294.552,-71.2913"/>
<polygon fill="none" stroke="black" points="224.684,-236.677 228.664,-246.496 231.676,-236.338 224.684,-236.677"/>
</g>
<!-- PatternLink -->
<g id="node5" class="node"><title>PatternLink</title>
<polygon fill="none" stroke="black" points="426,-181 426,-198 549,-198 549,-181 426,-181"/>
<text text-anchor="start" x="464.5" y="-187.5" font-family="Times New Roman,serif" font-size="10.00">PatternLink</text>
<polygon fill="none" stroke="black" points="426,-147 426,-181 549,-181 549,-147 426,-147"/>
<text text-anchor="start" x="431" y="-169" font-family="Times New Roman,serif" font-size="10.00">tgtRoleName :String</text>
<text text-anchor="start" x="431" y="-155" font-family="Times New Roman,serif" font-size="10.00">hostGraphSrcObject :Object</text>
<polygon fill="none" stroke="black" points="426,-127 426,-147 549,-147 549,-127 426,-127"/>
<text text-anchor="start" x="486" y="-135" font-family="Times New Roman,serif" font-size="10.00"> </text>
</g>
<!-- PatternElement&#45;&gt;PatternLink -->
<g id="edge8" class="edge"><title>PatternElement&#45;&gt;PatternLink</title>
<path fill="none" stroke="black" d="M283.721,-260.463C319.28,-247.817 367.249,-229.584 408,-210 412.864,-207.663 417.829,-205.135 422.783,-202.508"/>
<polygon fill="none" stroke="black" points="282.303,-257.252 274.037,-263.878 284.632,-263.853 282.303,-257.252"/>
</g>
<!-- AttributeConstraint -->
<g id="node6" class="node"><title>AttributeConstraint</title>
<polygon fill="none" stroke="black" points="269,-188 269,-205 392,-205 392,-188 269,-188"/>
<text text-anchor="start" x="291" y="-194.5" font-family="Times New Roman,serif" font-size="10.00">AttributeConstraint</text>
<polygon fill="none" stroke="black" points="269,-140 269,-188 392,-188 392,-140 269,-140"/>
<text text-anchor="start" x="274" y="-176" font-family="Times New Roman,serif" font-size="10.00">attrName :String</text>
<text text-anchor="start" x="274" y="-162" font-family="Times New Roman,serif" font-size="10.00">tgtValue :Object</text>
<text text-anchor="start" x="274" y="-148" font-family="Times New Roman,serif" font-size="10.00">hostGraphSrcObject :Object</text>
<polygon fill="none" stroke="black" points="269,-120 269,-140 392,-140 392,-120 269,-120"/>
<text text-anchor="start" x="329" y="-128" font-family="Times New Roman,serif" font-size="10.00"> </text>
</g>
<!-- PatternElement&#45;&gt;AttributeConstraint -->
<g id="edge10" class="edge"><title>PatternElement&#45;&gt;AttributeConstraint</title>
<path fill="none" stroke="black" d="M265.875,-238.594C273.899,-229.26 282.522,-219.229 290.762,-209.645"/>
<polygon fill="none" stroke="black" points="263.163,-236.38 259.298,-246.245 268.471,-240.943 263.163,-236.38"/>
</g>
<!-- Pattern&#45;&gt;PatternElement -->
<g id="edge14" class="edge"><title>Pattern&#45;&gt;PatternElement</title>
<path fill="none" stroke="black" d="M152.784,-202.889C169.4,-217.018 187.298,-232.805 201.911,-246.245"/>
<text text-anchor="middle" x="192.372" y="-240.743" font-family="Times New Roman,serif" font-size="10.00">elements *</text>
<text text-anchor="middle" x="162.421" y="-203.059" font-family="Times New Roman,serif" font-size="10.00">pattern</text>
</g>
<!-- NegativeApplicationCondition -->
<g id="node3" class="node"><title>NegativeApplicationCondition</title>
<polygon fill="none" stroke="black" points="37,-51 37,-68 168,-68 168,-51 37,-51"/>
<text text-anchor="start" x="40.5" y="-57.5" font-family="Times New Roman,serif" font-size="10.00">NegativeApplicationCondition</text>
<polygon fill="none" stroke="black" points="37,-31 37,-51 168,-51 168,-31 37,-31"/>
<text text-anchor="start" x="101" y="-39" font-family="Times New Roman,serif" font-size="10.00"> </text>
<polygon fill="none" stroke="black" points="37,-11 37,-31 168,-31 168,-11 37,-11"/>
<text text-anchor="start" x="101" y="-19" font-family="Times New Roman,serif" font-size="10.00"> </text>
</g>
<!-- Pattern&#45;&gt;NegativeApplicationCondition -->
<g id="edge4" class="edge"><title>Pattern&#45;&gt;NegativeApplicationCondition</title>
<path fill="none" stroke="black" d="M102,-113.18C102,-99.5661 102,-85.1324 102,-72.779"/>
<polygon fill="none" stroke="black" points="98.5001,-113.382 102,-123.382 105.5,-113.382 98.5001,-113.382"/>
</g>
<!-- PatternLink&#45;&gt;PatternObject -->
<g id="edge16" class="edge"><title>PatternLink&#45;&gt;PatternObject</title>
<path fill="none" stroke="black" d="M437.254,-123.382C421.006,-109.411 403.281,-93.641 388.116,-79.666"/>
<text text-anchor="middle" x="397.651" y="-80.1813" font-family="Times New Roman,serif" font-size="10.00">tgt</text>
<text text-anchor="middle" x="427.631" y="-118.16" font-family="Times New Roman,serif" font-size="10.00">incomming *</text>
</g>
<!-- PatternLink&#45;&gt;PatternObject -->
<g id="edge18" class="edge"><title>PatternLink&#45;&gt;PatternObject</title>
<path fill="none" stroke="black" d="M449.936,-123.382C434.778,-109.411 417.053,-93.641 400.802,-79.666"/>
<text text-anchor="middle" x="410.425" y="-79.8887" font-family="Times New Roman,serif" font-size="10.00">src</text>
<text text-anchor="middle" x="440.402" y="-117.866" font-family="Times New Roman,serif" font-size="10.00">outgoing *</text>
</g>
<!-- LinkConstraint -->
<g id="node7" class="node"><title>LinkConstraint</title>
<polygon fill="none" stroke="black" points="454,-51 454,-68 521,-68 521,-51 454,-51"/>
<text text-anchor="start" x="457.5" y="-57.5" font-family="Times New Roman,serif" font-size="10.00">LinkConstraint</text>
<polygon fill="none" stroke="black" points="454,-31 454,-51 521,-51 521,-31 454,-31"/>
<text text-anchor="start" x="486" y="-39" font-family="Times New Roman,serif" font-size="10.00"> </text>
<polygon fill="none" stroke="black" points="454,-11 454,-31 521,-31 521,-11 454,-11"/>
<text text-anchor="start" x="486" y="-19" font-family="Times New Roman,serif" font-size="10.00"> </text>
</g>
<!-- PatternLink&#45;&gt;LinkConstraint -->
<g id="edge12" class="edge"><title>PatternLink&#45;&gt;LinkConstraint</title>
<path fill="none" stroke="black" d="M487,-113.18C487,-99.5661 487,-85.1324 487,-72.779"/>
<polygon fill="none" stroke="black" points="483.5,-113.382 487,-123.382 490.5,-113.382 483.5,-113.382"/>
</g>
<!-- AttributeConstraint&#45;&gt;PatternObject -->
<g id="edge20" class="edge"><title>AttributeConstraint&#45;&gt;PatternObject</title>
<path fill="none" stroke="black" d="M337.939,-116.255C340.03,-104.209 342.265,-91.3313 344.284,-79.6959"/>
<text text-anchor="middle" x="346.898" y="-86.8482" font-family="Times New Roman,serif" font-size="10.00">src</text>
<text text-anchor="middle" x="335.325" y="-104.103" font-family="Times New Roman,serif" font-size="10.00">attrConstraints *</text>
</g>
</g>
</svg>
