<?xml version="1.0" encoding="UTF-8" standalone="no"?>
<!DOCTYPE svg PUBLIC "-//W3C//DTD SVG 1.1//EN"
 "http://www.w3.org/Graphics/SVG/1.1/DTD/svg11.dtd">
<!-- Generated by graphviz version 2.28.0 (20110507.0327)
 -->
<!-- Title: ClassDiagram Pages: 1 -->
<svg width="1572pt" height="576pt"
 viewBox="0.00 0.00 1572.00 576.00" xmlns="http://www.w3.org/2000/svg" xmlns:xlink="http://www.w3.org/1999/xlink">
<g id="graph1" class="graph" transform="scale(1 1) rotate(0) translate(4 572)">
<title>ClassDiagram</title>
<polygon fill="white" stroke="white" points="-4,5 -4,-572 1569,-572 1569,5 -4,5"/>
<!-- _PeerToPeerChat -->
<g id="node1" class="node"><title>_PeerToPeerChat</title>
<a xlink:href="../examples/org/sdmlib/examples/chats/PeerToPeerChat.java" xlink:title="&lt;TABLE&gt;">
<polygon fill="none" stroke="black" points="145,-216 145,-233 217,-233 217,-216 145,-216"/>
<text text-anchor="start" x="148.5" y="-222.5" font-family="Times New Roman,serif" font-size="10.00">PeerToPeerChat</text>
</a>
<polygon fill="none" stroke="black" points="145,-196 145,-216 217,-216 217,-196 145,-196"/>
<text text-anchor="start" x="179.5" y="-204" font-family="Times New Roman,serif" font-size="10.00"> </text>
<polygon fill="none" stroke="black" points="145,-176 145,-196 217,-196 217,-176 145,-176"/>
<text text-anchor="start" x="179.5" y="-184" font-family="Times New Roman,serif" font-size="10.00"> </text>
</g>
<!-- _TaskFlow -->
<g id="node2" class="node"><title>_TaskFlow</title>
<a xlink:href="../examples/org/sdmlib/model/taskflows/TaskFlow.java" xlink:title="&lt;TABLE&gt;">
<polygon fill="none" stroke="black" points="751,-532 751,-549 873,-549 873,-532 751,-532"/>
<text text-anchor="start" x="792" y="-538.5" font-family="Times New Roman,serif" font-size="10.00">TaskFlow</text>
</a>
<polygon fill="none" stroke="black" points="751,-498 751,-532 873,-532 873,-498 751,-498"/>
<text text-anchor="start" x="756" y="-520" font-family="Times New Roman,serif" font-size="10.00">taskNo :int</text>
<text text-anchor="start" x="756" y="-506" font-family="Times New Roman,serif" font-size="10.00">idMap :SDMLibJsonIdMap</text>
<polygon fill="none" stroke="black" points="751,-478 751,-498 873,-498 873,-478 751,-478"/>
<text text-anchor="start" x="810.5" y="-486" font-family="Times New Roman,serif" font-size="10.00"> </text>
</g>
<!-- _TaskFlow&#45;&gt;_TaskFlow -->
<g id="edge28" class="edge"><title>_TaskFlow&#45;&gt;_TaskFlow</title>
<path fill="none" stroke="black" d="M881.275,-541.014C891.831,-536.891 899,-527.887 899,-514 899,-500.113 891.831,-491.109 881.275,-486.986"/>
<text text-anchor="middle" x="891.274" y="-484.366" font-family="Times New Roman,serif" font-size="10.00">subFlow</text>
<text text-anchor="middle" x="887.794" y="-530.931" font-family="Times New Roman,serif" font-size="10.00">parent</text>
</g>
<!-- _ChatMessageFlow -->
<g id="node3" class="node"><title>_ChatMessageFlow</title>
<a xlink:href="../examples/org/sdmlib/examples/chats/ChatMessageFlow.java" xlink:title="&lt;TABLE&gt;">
<polygon fill="none" stroke="black" points="391,-374 391,-391 484,-391 484,-374 391,-374"/>
<text text-anchor="start" x="399.5" y="-380.5" font-family="Times New Roman,serif" font-size="10.00">ChatMessageFlow</text>
</a>
<polygon fill="none" stroke="black" points="391,-340 391,-374 484,-374 484,-340 391,-340"/>
<text text-anchor="start" x="396" y="-362" font-family="Times New Roman,serif" font-size="10.00">msg :String</text>
<text text-anchor="start" x="396" y="-348" font-family="Times New Roman,serif" font-size="10.00">gui :PeerToPeerChat</text>
<polygon fill="none" stroke="black" points="391,-320 391,-340 484,-340 484,-320 391,-320"/>
<text text-anchor="start" x="396" y="-328" font-family="Times New Roman,serif" font-size="10.00">run()</text>
</g>
<!-- _TaskFlow&#45;&gt;_ChatMessageFlow -->
<g id="edge2" class="edge"><title>_TaskFlow&#45;&gt;_ChatMessageFlow</title>
<path fill="none" stroke="black" d="M733.029,-502.222C667.243,-490.574 573.01,-467.509 501,-424 488.609,-416.513 477.02,-406.01 467.201,-395.536"/>
<polygon fill="none" stroke="black" points="732.48,-505.679 742.929,-503.927 733.668,-498.781 732.48,-505.679"/>
</g>
<!-- _DrawPointFlow -->
<g id="node4" class="node"><title>_DrawPointFlow</title>
<a xlink:href="../examples/org/sdmlib/examples/chats/DrawPointFlow.java" xlink:title="&lt;TABLE&gt;">
<polygon fill="none" stroke="black" points="8,-402 8,-419 101,-419 101,-402 8,-402"/>
<text text-anchor="start" x="23.5" y="-408.5" font-family="Times New Roman,serif" font-size="10.00">DrawPointFlow</text>
</a>
<polygon fill="none" stroke="black" points="8,-312 8,-402 101,-402 101,-312 8,-312"/>
<text text-anchor="start" x="13" y="-390" font-family="Times New Roman,serif" font-size="10.00">x :int</text>
<text text-anchor="start" x="13" y="-376" font-family="Times New Roman,serif" font-size="10.00">y :int</text>
<text text-anchor="start" x="13" y="-362" font-family="Times New Roman,serif" font-size="10.00">r :int</text>
<text text-anchor="start" x="13" y="-348" font-family="Times New Roman,serif" font-size="10.00">g :int</text>
<text text-anchor="start" x="13" y="-334" font-family="Times New Roman,serif" font-size="10.00">b :int</text>
<text text-anchor="start" x="13" y="-320" font-family="Times New Roman,serif" font-size="10.00">gui :PeerToPeerChat</text>
<polygon fill="none" stroke="black" points="8,-292 8,-312 101,-312 101,-292 8,-292"/>
<text text-anchor="start" x="13" y="-300" font-family="Times New Roman,serif" font-size="10.00">run()</text>
</g>
<!-- _TaskFlow&#45;&gt;_DrawPointFlow -->
<g id="edge4" class="edge"><title>_TaskFlow&#45;&gt;_DrawPointFlow</title>
<path fill="none" stroke="black" d="M732.736,-509.547C573.986,-501.553 223.162,-478.162 117,-424 114.155,-422.549 111.371,-420.915 108.654,-419.137"/>
<polygon fill="none" stroke="black" points="732.749,-513.051 742.91,-510.051 733.096,-506.06 732.749,-513.051"/>
</g>
<!-- _ClearDrawingFlow -->
<g id="node5" class="node"><title>_ClearDrawingFlow</title>
<a xlink:href="../examples/org/sdmlib/examples/chats/ClearDrawingFlow.java" xlink:title="&lt;TABLE&gt;">
<polygon fill="none" stroke="black" points="135,-367 135,-384 228,-384 228,-367 135,-367"/>
<text text-anchor="start" x="144.5" y="-373.5" font-family="Times New Roman,serif" font-size="10.00">ClearDrawingFlow</text>
</a>
<polygon fill="none" stroke="black" points="135,-347 135,-367 228,-367 228,-347 135,-347"/>
<text text-anchor="start" x="140" y="-355" font-family="Times New Roman,serif" font-size="10.00">gui :PeerToPeerChat</text>
<polygon fill="none" stroke="black" points="135,-327 135,-347 228,-347 228,-327 135,-327"/>
<text text-anchor="start" x="140" y="-335" font-family="Times New Roman,serif" font-size="10.00">run()</text>
</g>
<!-- _TaskFlow&#45;&gt;_ClearDrawingFlow -->
<g id="edge6" class="edge"><title>_TaskFlow&#45;&gt;_ClearDrawingFlow</title>
<path fill="none" stroke="black" d="M732.597,-506.841C597.239,-495.308 328.36,-467.61 245,-424 229.036,-415.649 214.791,-401.78 203.816,-388.821"/>
<polygon fill="none" stroke="black" points="732.64,-510.357 742.899,-507.709 733.228,-503.381 732.64,-510.357"/>
</g>
<!-- _CSChatMessageFlow -->
<g id="node8" class="node"><title>_CSChatMessageFlow</title>
<a xlink:href="../examples/org/sdmlib/examples/chats/CSChatMessageFlow.java" xlink:title="&lt;TABLE&gt;">
<polygon fill="none" stroke="black" points="262,-367 262,-384 356,-384 356,-367 262,-367"/>
<text text-anchor="start" x="265.5" y="-373.5" font-family="Times New Roman,serif" font-size="10.00">CSChatMessageFlow</text>
</a>
<polygon fill="none" stroke="black" points="262,-347 262,-367 356,-367 356,-347 262,-347"/>
<text text-anchor="start" x="267" y="-355" font-family="Times New Roman,serif" font-size="10.00">msg :String</text>
<polygon fill="none" stroke="black" points="262,-327 262,-347 356,-347 356,-327 262,-327"/>
<text text-anchor="start" x="267" y="-335" font-family="Times New Roman,serif" font-size="10.00">run()</text>
</g>
<!-- _TaskFlow&#45;&gt;_CSChatMessageFlow -->
<g id="edge8" class="edge"><title>_TaskFlow&#45;&gt;_CSChatMessageFlow</title>
<path fill="none" stroke="black" d="M732.912,-511.071C641.061,-505.761 487.524,-487.185 373,-424 357.366,-415.375 343.258,-401.633 332.291,-388.833"/>
<polygon fill="none" stroke="black" points="732.802,-514.57 742.976,-511.614 733.179,-507.581 732.802,-514.57"/>
</g>
<!-- _ClientLoginFlow -->
<g id="node10" class="node"><title>_ClientLoginFlow</title>
<a xlink:href="../examples/org/sdmlib/examples/chats/ClientLoginFlow.java" xlink:title="&lt;TABLE&gt;">
<polygon fill="none" stroke="black" points="892,-388 892,-405 1000,-405 1000,-388 892,-388"/>
<text text-anchor="start" x="912.5" y="-394.5" font-family="Times New Roman,serif" font-size="10.00">ClientLoginFlow</text>
</a>
<polygon fill="none" stroke="black" points="892,-326 892,-388 1000,-388 1000,-326 892,-326"/>
<text text-anchor="start" x="897" y="-376" font-family="Times New Roman,serif" font-size="10.00">server :PeerProxy</text>
<text text-anchor="start" x="897" y="-362" font-family="Times New Roman,serif" font-size="10.00">clientIP :String</text>
<text text-anchor="start" x="897" y="-348" font-family="Times New Roman,serif" font-size="10.00">clientPort :int</text>
<text text-anchor="start" x="897" y="-334" font-family="Times New Roman,serif" font-size="10.00">allMessagesText :String</text>
<polygon fill="none" stroke="black" points="892,-306 892,-326 1000,-326 1000,-306 892,-306"/>
<text text-anchor="start" x="897" y="-314" font-family="Times New Roman,serif" font-size="10.00">run()</text>
</g>
<!-- _TaskFlow&#45;&gt;_ClientLoginFlow -->
<g id="edge10" class="edge"><title>_TaskFlow&#45;&gt;_ClientLoginFlow</title>
<path fill="none" stroke="black" d="M852.014,-466.416C867.393,-448.513 885.048,-427.959 900.874,-409.534"/>
<polygon fill="none" stroke="black" points="848.985,-464.572 845.124,-474.438 854.295,-469.133 848.985,-464.572"/>
</g>
<!-- _CSDrawPointFlow -->
<g id="node11" class="node"><title>_CSDrawPointFlow</title>
<a xlink:href="../examples/org/sdmlib/examples/chats/CSDrawPointFlow.java" xlink:title="&lt;TABLE&gt;">
<polygon fill="none" stroke="black" points="518,-395 518,-412 598,-412 598,-395 518,-395"/>
<text text-anchor="start" x="521.5" y="-401.5" font-family="Times New Roman,serif" font-size="10.00">CSDrawPointFlow</text>
</a>
<polygon fill="none" stroke="black" points="518,-319 518,-395 598,-395 598,-319 518,-319"/>
<text text-anchor="start" x="523" y="-383" font-family="Times New Roman,serif" font-size="10.00">x :int</text>
<text text-anchor="start" x="523" y="-369" font-family="Times New Roman,serif" font-size="10.00">y :int</text>
<text text-anchor="start" x="523" y="-355" font-family="Times New Roman,serif" font-size="10.00">r :int</text>
<text text-anchor="start" x="523" y="-341" font-family="Times New Roman,serif" font-size="10.00">g :int</text>
<text text-anchor="start" x="523" y="-327" font-family="Times New Roman,serif" font-size="10.00">b :int</text>
<polygon fill="none" stroke="black" points="518,-299 518,-319 598,-319 598,-299 518,-299"/>
<text text-anchor="start" x="523" y="-307" font-family="Times New Roman,serif" font-size="10.00">run()</text>
</g>
<!-- _TaskFlow&#45;&gt;_CSDrawPointFlow -->
<g id="edge12" class="edge"><title>_TaskFlow&#45;&gt;_CSDrawPointFlow</title>
<path fill="none" stroke="black" d="M733.271,-486.683C695.354,-471.781 650.524,-450.732 615,-424 611.949,-421.704 608.951,-419.218 606.024,-416.6"/>
<polygon fill="none" stroke="black" points="732.163,-490.007 742.752,-490.339 734.681,-483.475 732.163,-490.007"/>
</g>
<!-- _CSClearDrawingFlow -->
<g id="node12" class="node"><title>_CSClearDrawingFlow</title>
<a xlink:href="../examples/org/sdmlib/examples/chats/CSClearDrawingFlow.java" xlink:title="&lt;TABLE&gt;">
<polygon fill="none" stroke="black" points="632,-367 632,-384 724,-384 724,-367 632,-367"/>
<text text-anchor="start" x="635.5" y="-373.5" font-family="Times New Roman,serif" font-size="10.00">CSClearDrawingFlow</text>
</a>
<polygon fill="none" stroke="black" points="632,-347 632,-367 724,-367 724,-347 632,-347"/>
<text text-anchor="start" x="676.5" y="-355" font-family="Times New Roman,serif" font-size="10.00"> </text>
<polygon fill="none" stroke="black" points="632,-327 632,-347 724,-347 724,-327 632,-327"/>
<text text-anchor="start" x="637" y="-335" font-family="Times New Roman,serif" font-size="10.00">run()</text>
</g>
<!-- _TaskFlow&#45;&gt;_CSClearDrawingFlow -->
<g id="edge14" class="edge"><title>_TaskFlow&#45;&gt;_CSClearDrawingFlow</title>
<path fill="none" stroke="black" d="M772.317,-466.802C750.664,-441.594 724.418,-411.038 705.116,-388.567"/>
<polygon fill="none" stroke="black" points="769.705,-469.133 778.876,-474.438 775.015,-464.572 769.705,-469.133"/>
</g>
<!-- _CSVisitAllClientsFlow -->
<g id="node13" class="node"><title>_CSVisitAllClientsFlow</title>
<a xlink:href="../examples/org/sdmlib/examples/chats/CSVisitAllClientsFlow.java" xlink:title="&lt;TABLE&gt;">
<polygon fill="none" stroke="black" points="1460,-367 1460,-384 1556,-384 1556,-367 1460,-367"/>
<text text-anchor="start" x="1463.5" y="-373.5" font-family="Times New Roman,serif" font-size="10.00">CSVisitAllClientsFlow</text>
</a>
<polygon fill="none" stroke="black" points="1460,-347 1460,-367 1556,-367 1556,-347 1460,-347"/>
<text text-anchor="start" x="1506.5" y="-355" font-family="Times New Roman,serif" font-size="10.00"> </text>
<polygon fill="none" stroke="black" points="1460,-327 1460,-347 1556,-347 1556,-327 1460,-327"/>
<text text-anchor="start" x="1465" y="-335" font-family="Times New Roman,serif" font-size="10.00">run()</text>
</g>
<!-- _TaskFlow&#45;&gt;_CSVisitAllClientsFlow -->
<g id="edge16" class="edge"><title>_TaskFlow&#45;&gt;_CSVisitAllClientsFlow</title>
<path fill="none" stroke="black" d="M881.724,-470.024C890.342,-466.069 899.215,-462.585 908,-460 1021.25,-426.682 1330,-471.668 1438,-424 1455.54,-416.256 1471.34,-402.123 1483.47,-388.826"/>
<polygon fill="none" stroke="black" points="879.975,-466.982 872.489,-474.48 883.017,-473.287 879.975,-466.982"/>
</g>
<!-- _CSClientTask -->
<g id="node14" class="node"><title>_CSClientTask</title>
<a xlink:href="../examples/org/sdmlib/examples/chats/CSClientTask.java" xlink:title="&lt;TABLE&gt;">
<polygon fill="none" stroke="black" points="1435,-216 1435,-233 1497,-233 1497,-216 1435,-216"/>
<text text-anchor="start" x="1438.5" y="-222.5" font-family="Times New Roman,serif" font-size="10.00">CSClientTask</text>
</a>
<polygon fill="none" stroke="black" points="1435,-196 1435,-216 1497,-216 1497,-196 1435,-196"/>
<text text-anchor="start" x="1464.5" y="-204" font-family="Times New Roman,serif" font-size="10.00"> </text>
<polygon fill="none" stroke="black" points="1435,-176 1435,-196 1497,-196 1497,-176 1435,-176"/>
<text text-anchor="start" x="1464.5" y="-184" font-family="Times New Roman,serif" font-size="10.00"> </text>
</g>
<!-- _TaskFlow&#45;&gt;_CSClientTask -->
<g id="edge18" class="edge"><title>_TaskFlow&#45;&gt;_CSClientTask</title>
<path fill="none" stroke="black" d="M881.933,-469.974C890.487,-466.049 899.288,-462.585 908,-460 1013.95,-428.563 1318.28,-493.754 1404,-424 1404.93,-423.245 1440.23,-297.798 1457.15,-237.568"/>
<polygon fill="none" stroke="black" points="880.252,-466.898 872.764,-474.394 883.292,-473.204 880.252,-466.898"/>
</g>
<!-- _P2PNetworkLoginFlow -->
<g id="node17" class="node"><title>_P2PNetworkLoginFlow</title>
<a xlink:href="../examples/org/sdmlib/examples/chats/P2PNetworkLoginFlow.java" xlink:title="&lt;TABLE&gt;">
<polygon fill="none" stroke="black" points="1035,-402 1035,-419 1136,-419 1136,-402 1035,-402"/>
<text text-anchor="start" x="1039.5" y="-408.5" font-family="Times New Roman,serif" font-size="10.00">P2PNetworkLoginFlow</text>
</a>
<polygon fill="none" stroke="black" points="1035,-326 1035,-402 1136,-402 1136,-326 1035,-326"/>
<text text-anchor="start" x="1040" y="-390" font-family="Times New Roman,serif" font-size="10.00">firstPeer :PeerProxy</text>
<text text-anchor="start" x="1040" y="-376" font-family="Times New Roman,serif" font-size="10.00">clientPeer :PeerProxy</text>
<text text-anchor="start" x="1040" y="-362" font-family="Times New Roman,serif" font-size="10.00">clientName :String</text>
<text text-anchor="start" x="1040" y="-348" font-family="Times New Roman,serif" font-size="10.00">allMessages :String</text>
<text text-anchor="start" x="1040" y="-334" font-family="Times New Roman,serif" font-size="10.00">peerList :PeerProxySet</text>
<polygon fill="none" stroke="black" points="1035,-292 1035,-326 1136,-326 1136,-292 1035,-292"/>
<text text-anchor="start" x="1040" y="-314" font-family="Times New Roman,serif" font-size="10.00">run()</text>
<text text-anchor="start" x="1040" y="-300" font-family="Times New Roman,serif" font-size="10.00">getTaskNames()</text>
</g>
<!-- _TaskFlow&#45;&gt;_P2PNetworkLoginFlow -->
<g id="edge24" class="edge"><title>_TaskFlow&#45;&gt;_P2PNetworkLoginFlow</title>
<path fill="none" stroke="black" d="M887.411,-469.679C894.292,-466.241 901.223,-462.959 908,-460 954.755,-439.583 973.466,-450.601 1017,-424 1020.25,-422.012 1023.47,-419.841 1026.63,-417.535"/>
<polygon fill="none" stroke="black" points="885.389,-466.781 878.076,-474.448 888.574,-473.015 885.389,-466.781"/>
</g>
<!-- _P2PChatMessageFlow -->
<g id="node18" class="node"><title>_P2PChatMessageFlow</title>
<a xlink:href="../examples/org/sdmlib/examples/chats/P2PChatMessageFlow.java" xlink:title="&lt;TABLE&gt;">
<polygon fill="none" stroke="black" points="1170,-374 1170,-391 1268,-391 1268,-374 1170,-374"/>
<text text-anchor="start" x="1173.5" y="-380.5" font-family="Times New Roman,serif" font-size="10.00">P2PChatMessageFlow</text>
</a>
<polygon fill="none" stroke="black" points="1170,-340 1170,-374 1268,-374 1268,-340 1170,-340"/>
<text text-anchor="start" x="1175" y="-362" font-family="Times New Roman,serif" font-size="10.00">msg :String</text>
<text text-anchor="start" x="1175" y="-348" font-family="Times New Roman,serif" font-size="10.00">pos :int</text>
<polygon fill="none" stroke="black" points="1170,-320 1170,-340 1268,-340 1268,-320 1170,-320"/>
<text text-anchor="start" x="1175" y="-328" font-family="Times New Roman,serif" font-size="10.00">run()</text>
</g>
<!-- _TaskFlow&#45;&gt;_P2PChatMessageFlow -->
<g id="edge26" class="edge"><title>_TaskFlow&#45;&gt;_P2PChatMessageFlow</title>
<path fill="none" stroke="black" d="M883.381,-470.023C891.503,-466.216 899.809,-462.764 908,-460 1011.86,-424.95 1054.07,-473.248 1152,-424 1165.67,-417.127 1178.25,-406.405 1188.73,-395.539"/>
<polygon fill="none" stroke="black" points="881.754,-466.922 874.304,-474.456 884.826,-473.212 881.754,-466.922"/>
</g>
<!-- _SDMLibJsonIdMap -->
<g id="node35" class="node"><title>_SDMLibJsonIdMap</title>
<text text-anchor="middle" x="1345" y="-353.5" font-family="Times New Roman,serif" font-size="10.00">_SDMLibJsonIdMap</text>
</g>
<!-- _TaskFlow&#45;&gt;_SDMLibJsonIdMap -->
<g id="edge32" class="edge"><title>_TaskFlow&#45;&gt;_SDMLibJsonIdMap</title>
<path fill="none" stroke="black" d="M873.094,-474.486C884.354,-468.79 896.268,-463.627 908,-460 1068.81,-410.287 1134.77,-499.903 1285,-424 1303.41,-414.7 1318.79,-397.162 1329.37,-382.362"/>
<polygon fill="black" stroke="black" points="1335.03,-374.047 1333.13,-384.846 1332.22,-378.18 1329.41,-382.313 1329.41,-382.313 1329.41,-382.313 1332.22,-378.18 1325.69,-379.78 1335.03,-374.047 1335.03,-374.047"/>
<text text-anchor="middle" x="1333.43" y="-381.417" font-family="Times New Roman,serif" font-size="10.00">idMap</text>
</g>
<!-- _ChatMessageFlow&#45;&gt;_PeerToPeerChat -->
<g id="edge34" class="edge"><title>_ChatMessageFlow&#45;&gt;_PeerToPeerChat</title>
<path fill="none" stroke="black" d="M405.19,-316.376C395.579,-306.262 384.503,-295.971 373,-288 330.201,-258.344 274.976,-236.15 234.748,-222.381"/>
<polygon fill="black" stroke="black" points="225.119,-219.148 236.031,-218.065 229.859,-220.74 234.599,-222.331 234.599,-222.331 234.599,-222.331 229.859,-220.74 233.166,-226.597 225.119,-219.148 225.119,-219.148"/>
<text text-anchor="middle" x="235.056" y="-215.527" font-family="Times New Roman,serif" font-size="10.00">gui</text>
</g>
<!-- _DrawPointFlow&#45;&gt;_PeerToPeerChat -->
<g id="edge36" class="edge"><title>_DrawPointFlow&#45;&gt;_PeerToPeerChat</title>
<path fill="none" stroke="black" d="M108.596,-290.946C121.747,-275.517 135.418,-259.479 147.291,-245.548"/>
<polygon fill="black" stroke="black" points="154.057,-237.61 150.995,-248.14 150.813,-241.416 147.57,-245.221 147.57,-245.221 147.57,-245.221 150.813,-241.416 144.145,-242.302 154.057,-237.61 154.057,-237.61"/>
<text text-anchor="middle" x="151.394" y="-244.749" font-family="Times New Roman,serif" font-size="10.00">gui</text>
</g>
<!-- _ClearDrawingFlow&#45;&gt;_PeerToPeerChat -->
<g id="edge38" class="edge"><title>_ClearDrawingFlow&#45;&gt;_PeerToPeerChat</title>
<path fill="none" stroke="black" d="M181,-323.401C181,-301.375 181,-271.759 181,-247.784"/>
<polygon fill="black" stroke="black" points="181,-237.554 185.5,-247.553 181,-242.554 181,-247.554 181,-247.554 181,-247.554 181,-242.554 176.5,-247.554 181,-237.554 181,-237.554"/>
<text text-anchor="middle" x="185.226" y="-244.117" font-family="Times New Roman,serif" font-size="10.00">gui</text>
</g>
<!-- _PeerToPeerChatArgs -->
<g id="node6" class="node"><title>_PeerToPeerChatArgs</title>
<a xlink:href="../examples/org/sdmlib/examples/chats/PeerToPeerChatArgs.java" xlink:title="&lt;TABLE&gt;">
<polygon fill="none" stroke="black" points="925,-546 925,-563 1017,-563 1017,-546 925,-546"/>
<text text-anchor="start" x="928.5" y="-552.5" font-family="Times New Roman,serif" font-size="10.00">PeerToPeerChatArgs</text>
</a>
<polygon fill="none" stroke="black" points="925,-484 925,-546 1017,-546 1017,-484 925,-484"/>
<text text-anchor="start" x="930" y="-534" font-family="Times New Roman,serif" font-size="10.00">userName :String</text>
<text text-anchor="start" x="930" y="-520" font-family="Times New Roman,serif" font-size="10.00">localPort :int</text>
<text text-anchor="start" x="930" y="-506" font-family="Times New Roman,serif" font-size="10.00">peerIp :String</text>
<text text-anchor="start" x="930" y="-492" font-family="Times New Roman,serif" font-size="10.00">peerPort :int</text>
<polygon fill="none" stroke="black" points="925,-464 925,-484 1017,-484 1017,-464 925,-464"/>
<text text-anchor="start" x="969.5" y="-472" font-family="Times New Roman,serif" font-size="10.00"> </text>
</g>
<!-- _PeerProxy -->
<g id="node7" class="node"><title>_PeerProxy</title>
<a xlink:href="../examples/org/sdmlib/model/taskflows/PeerProxy.java" xlink:title="&lt;TABLE&gt;">
<polygon fill="none" stroke="black" points="1041,-230 1041,-247 1129,-247 1129,-230 1041,-230"/>
<text text-anchor="start" x="1065" y="-236.5" font-family="Times New Roman,serif" font-size="10.00">PeerProxy</text>
</a>
<polygon fill="none" stroke="black" points="1041,-182 1041,-230 1129,-230 1129,-182 1041,-182"/>
<text text-anchor="start" x="1046" y="-218" font-family="Times New Roman,serif" font-size="10.00">ip :String</text>
<text text-anchor="start" x="1046" y="-204" font-family="Times New Roman,serif" font-size="10.00">port :int</text>
<text text-anchor="start" x="1046" y="-190" font-family="Times New Roman,serif" font-size="10.00">idMap :JsonIdMap</text>
<polygon fill="none" stroke="black" points="1041,-162 1041,-182 1129,-182 1129,-162 1041,-162"/>
<text text-anchor="start" x="1083.5" y="-170" font-family="Times New Roman,serif" font-size="10.00"> </text>
</g>
<!-- _JsonIdMap -->
<g id="node40" class="node"><title>_JsonIdMap</title>
<text text-anchor="middle" x="1085" y="-58.5" font-family="Times New Roman,serif" font-size="10.00">_JsonIdMap</text>
</g>
<!-- _PeerProxy&#45;&gt;_JsonIdMap -->
<g id="edge40" class="edge"><title>_PeerProxy&#45;&gt;_JsonIdMap</title>
<path fill="none" stroke="black" d="M1085,-158.289C1085,-135.44 1085,-108.573 1085,-89.0326"/>
<polygon fill="black" stroke="black" points="1085,-79.0029 1089.5,-89.0028 1085,-84.0029 1085,-89.0029 1085,-89.0029 1085,-89.0029 1085,-84.0029 1080.5,-89.0029 1085,-79.0029 1085,-79.0029"/>
<text text-anchor="middle" x="1089.23" y="-85.566" font-family="Times New Roman,serif" font-size="10.00">idMap</text>
</g>
<!-- _ChatServer -->
<g id="node9" class="node"><title>_ChatServer</title>
<a xlink:href="../examples/org/sdmlib/examples/chats/ChatServer.java" xlink:title="&lt;TABLE&gt;">
<polygon fill="none" stroke="black" points="759,-374 759,-391 858,-391 858,-374 759,-374"/>
<text text-anchor="start" x="786" y="-380.5" font-family="Times New Roman,serif" font-size="10.00">ChatServer</text>
</a>
<polygon fill="none" stroke="black" points="759,-340 759,-374 858,-374 858,-340 759,-340"/>
<text text-anchor="start" x="764" y="-362" font-family="Times New Roman,serif" font-size="10.00">allMessages :String</text>
<text text-anchor="start" x="764" y="-348" font-family="Times New Roman,serif" font-size="10.00">allPeers :PeerProxySet</text>
<polygon fill="none" stroke="black" points="759,-320 759,-340 858,-340 858,-320 759,-320"/>
<text text-anchor="start" x="807" y="-328" font-family="Times New Roman,serif" font-size="10.00"> </text>
</g>
<!-- _ChatServer&#45;&gt;_PeerProxy -->
<g id="edge42" class="edge"><title>_ChatServer&#45;&gt;_PeerProxy</title>
<path fill="none" stroke="black" d="M841.382,-316.191C851.444,-306.075 863.02,-295.829 875,-288 920.994,-257.943 979.694,-236.192 1023.33,-222.677"/>
<polygon fill="black" stroke="black" points="1032.96,-219.751 1024.7,-226.963 1028.18,-221.205 1023.4,-222.658 1023.4,-222.658 1023.4,-222.658 1028.18,-221.205 1022.09,-218.352 1032.96,-219.751 1032.96,-219.751"/>
<text text-anchor="middle" x="1025.52" y="-223.929" font-family="Times New Roman,serif" font-size="10.00">allPeers</text>
</g>
<!-- _ClientLoginFlow&#45;&gt;_PeerProxy -->
<g id="edge44" class="edge"><title>_ClientLoginFlow&#45;&gt;_PeerProxy</title>
<path fill="none" stroke="black" d="M995.006,-302.468C1008.06,-288.471 1022.18,-273.337 1035.28,-259.299"/>
<polygon fill="black" stroke="black" points="1042.44,-251.627 1038.9,-262.009 1039.02,-255.283 1035.61,-258.939 1035.61,-258.939 1035.61,-258.939 1039.02,-255.283 1032.32,-255.87 1042.44,-251.627 1042.44,-251.627"/>
<text text-anchor="middle" x="1039.34" y="-258.637" font-family="Times New Roman,serif" font-size="10.00">server</text>
</g>
<!-- _CSVisitAllClientsFlow&#45;&gt;_CSClientTask -->
<g id="edge30" class="edge"><title>_CSVisitAllClientsFlow&#45;&gt;_CSClientTask</title>
<path fill="none" stroke="black" d="M1499.09,-323.401C1491.97,-298.115 1482.02,-262.827 1474.89,-237.554"/>
<text text-anchor="middle" x="1481.42" y="-242.63" font-family="Times New Roman,serif" font-size="10.00">tgtTask</text>
<text text-anchor="middle" x="1492.57" y="-313.324" font-family="Times New Roman,serif" font-size="10.00">parent</text>
</g>
<!-- _CTDrawPoint -->
<g id="node15" class="node"><title>_CTDrawPoint</title>
<a xlink:href="../examples/org/sdmlib/examples/chats/CTDrawPoint.java" xlink:title="&lt;TABLE&gt;">
<polygon fill="none" stroke="black" points="1486,-100 1486,-117 1548,-117 1548,-100 1486,-100"/>
<text text-anchor="start" x="1489.5" y="-106.5" font-family="Times New Roman,serif" font-size="10.00">CTDrawPoint</text>
</a>
<polygon fill="none" stroke="black" points="1486,-24 1486,-100 1548,-100 1548,-24 1486,-24"/>
<text text-anchor="start" x="1491" y="-88" font-family="Times New Roman,serif" font-size="10.00">x :int</text>
<text text-anchor="start" x="1491" y="-74" font-family="Times New Roman,serif" font-size="10.00">y :int</text>
<text text-anchor="start" x="1491" y="-60" font-family="Times New Roman,serif" font-size="10.00">r :int</text>
<text text-anchor="start" x="1491" y="-46" font-family="Times New Roman,serif" font-size="10.00">g :int</text>
<text text-anchor="start" x="1491" y="-32" font-family="Times New Roman,serif" font-size="10.00">b :int</text>
<polygon fill="none" stroke="black" points="1486,-4 1486,-24 1548,-24 1548,-4 1486,-4"/>
<text text-anchor="start" x="1515.5" y="-12" font-family="Times New Roman,serif" font-size="10.00"> </text>
</g>
<!-- _CSClientTask&#45;&gt;_CTDrawPoint -->
<g id="edge20" class="edge"><title>_CSClientTask&#45;&gt;_CTDrawPoint</title>
<path fill="none" stroke="black" d="M1480.73,-162.986C1485.36,-150.105 1490.56,-135.611 1495.56,-121.71"/>
<polygon fill="none" stroke="black" points="1477.4,-161.891 1477.32,-172.486 1483.99,-164.257 1477.4,-161.891"/>
</g>
<!-- _CTClearDrawing -->
<g id="node16" class="node"><title>_CTClearDrawing</title>
<a xlink:href="../examples/org/sdmlib/examples/chats/CTClearDrawing.java" xlink:title="&lt;TABLE&gt;">
<polygon fill="none" stroke="black" points="1378,-72 1378,-89 1452,-89 1452,-72 1378,-72"/>
<text text-anchor="start" x="1381.5" y="-78.5" font-family="Times New Roman,serif" font-size="10.00">CTClearDrawing</text>
</a>
<polygon fill="none" stroke="black" points="1378,-52 1378,-72 1452,-72 1452,-52 1378,-52"/>
<text text-anchor="start" x="1413.5" y="-60" font-family="Times New Roman,serif" font-size="10.00"> </text>
<polygon fill="none" stroke="black" points="1378,-32 1378,-52 1452,-52 1452,-32 1378,-32"/>
<text text-anchor="start" x="1413.5" y="-40" font-family="Times New Roman,serif" font-size="10.00"> </text>
</g>
<!-- _CSClientTask&#45;&gt;_CTClearDrawing -->
<g id="edge22" class="edge"><title>_CSClientTask&#45;&gt;_CTClearDrawing</title>
<path fill="none" stroke="black" d="M1451.3,-163.067C1443.4,-141.073 1433.8,-114.357 1426.46,-93.9173"/>
<polygon fill="none" stroke="black" points="1448.01,-164.257 1454.68,-172.486 1454.6,-161.891 1448.01,-164.257"/>
</g>
<!-- _P2PNetworkLoginFlow&#45;&gt;_PeerProxy -->
<g id="edge46" class="edge"><title>_P2PNetworkLoginFlow&#45;&gt;_PeerProxy</title>
<path fill="none" stroke="black" d="M1071.57,-288.344C1071.41,-279.434 1071.52,-270.372 1071.89,-261.676"/>
<polygon fill="black" stroke="black" points="1072.44,-251.667 1076.38,-261.899 1072.17,-256.659 1071.89,-261.652 1071.89,-261.652 1071.89,-261.652 1072.17,-256.659 1067.4,-261.404 1072.44,-251.667 1072.44,-251.667"/>
<text text-anchor="middle" x="1076.16" y="-258.449" font-family="Times New Roman,serif" font-size="10.00">firstPeer</text>
</g>
<!-- _P2PNetworkLoginFlow&#45;&gt;_PeerProxy -->
<g id="edge48" class="edge"><title>_P2PNetworkLoginFlow&#45;&gt;_PeerProxy</title>
<path fill="none" stroke="black" d="M1085,-288.344C1085,-279.434 1085,-270.372 1085,-261.676"/>
<polygon fill="black" stroke="black" points="1085,-251.667 1089.5,-261.667 1085,-256.667 1085,-261.667 1085,-261.667 1085,-261.667 1085,-256.667 1080.5,-261.667 1085,-251.667 1085,-251.667"/>
<text text-anchor="middle" x="1089.23" y="-258.23" font-family="Times New Roman,serif" font-size="10.00">clientPeer</text>
</g>
<!-- _P2PNetworkLoginFlow&#45;&gt;_PeerProxy -->
<g id="edge50" class="edge"><title>_P2PNetworkLoginFlow&#45;&gt;_PeerProxy</title>
<path fill="none" stroke="black" d="M1098.43,-288.344C1098.59,-279.434 1098.48,-270.372 1098.11,-261.676"/>
<polygon fill="black" stroke="black" points="1097.56,-251.667 1102.6,-261.404 1097.83,-256.659 1098.11,-261.652 1098.11,-261.652 1098.11,-261.652 1097.83,-256.659 1093.62,-261.899 1097.56,-251.667 1097.56,-251.667"/>
<text text-anchor="middle" x="1102.28" y="-257.984" font-family="Times New Roman,serif" font-size="10.00">peerList</text>
</g>
</g>
</svg>
