<?xml version="1.0" encoding="UTF-8" standalone="no"?>
<!DOCTYPE svg PUBLIC "-//W3C//DTD SVG 1.1//EN"
 "http://www.w3.org/Graphics/SVG/1.1/DTD/svg11.dtd">
<!-- Generated by graphviz version 2.28.0 (20110507.0327)
 -->
<!-- Title: ClassDiagram Pages: 1 -->
<svg width="473pt" height="288pt"
 viewBox="0.00 0.00 473.00 288.00" xmlns="http://www.w3.org/2000/svg" xmlns:xlink="http://www.w3.org/1999/xlink">
<g id="graph1" class="graph" transform="scale(1 1) rotate(0) translate(4 284)">
<title>ClassDiagram</title>
<polygon fill="white" stroke="white" points="-4,5 -4,-284 470,-284 470,5 -4,5"/>
<!-- _PeerToPeerChat -->
<g id="node1" class="node"><title>_PeerToPeerChat</title>
<polygon fill="none" stroke="black" points="47,-237 47,-254 119,-254 119,-237 47,-237"/>
<text text-anchor="start" x="50.5" y="-243.5" font-family="Times New Roman,serif" font-size="10.00">PeerToPeerChat</text>
<polygon fill="none" stroke="black" points="47,-217 47,-237 119,-237 119,-217 47,-217"/>
<text text-anchor="start" x="81.5" y="-225" font-family="Times New Roman,serif" font-size="10.00"> </text>
<polygon fill="none" stroke="black" points="47,-197 47,-217 119,-217 119,-197 47,-197"/>
<text text-anchor="start" x="81.5" y="-205" font-family="Times New Roman,serif" font-size="10.00"> </text>
</g>
<!-- _TaskFlow -->
<g id="node2" class="node"><title>_TaskFlow</title>
<polygon fill="none" stroke="black" points="154,-237 154,-254 209,-254 209,-237 154,-237"/>
<text text-anchor="start" x="161.5" y="-243.5" font-family="Times New Roman,serif" font-size="10.00">TaskFlow</text>
<polygon fill="none" stroke="black" points="154,-217 154,-237 209,-237 209,-217 154,-217"/>
<text text-anchor="start" x="159" y="-225" font-family="Times New Roman,serif" font-size="10.00">taskNo :int</text>
<polygon fill="none" stroke="black" points="154,-197 154,-217 209,-217 209,-197 154,-197"/>
<text text-anchor="start" x="180" y="-205" font-family="Times New Roman,serif" font-size="10.00"> </text>
</g>
<!-- _ChatMessageFlow -->
<g id="node3" class="node"><title>_ChatMessageFlow</title>
<polygon fill="none" stroke="black" points="8,-86 8,-103 101,-103 101,-86 8,-86"/>
<text text-anchor="start" x="16.5" y="-92.5" font-family="Times New Roman,serif" font-size="10.00">ChatMessageFlow</text>
<polygon fill="none" stroke="black" points="8,-52 8,-86 101,-86 101,-52 8,-52"/>
<text text-anchor="start" x="13" y="-74" font-family="Times New Roman,serif" font-size="10.00">msg :String</text>
<text text-anchor="start" x="13" y="-60" font-family="Times New Roman,serif" font-size="10.00">gui :PeerToPeerChat</text>
<polygon fill="none" stroke="black" points="8,-32 8,-52 101,-52 101,-32 8,-32"/>
<text text-anchor="start" x="13" y="-40" font-family="Times New Roman,serif" font-size="10.00">run()</text>
</g>
<!-- _TaskFlow&#45;&gt;_ChatMessageFlow -->
<g id="edge2" class="edge"><title>_TaskFlow&#45;&gt;_ChatMessageFlow</title>
<path fill="none" stroke="black" d="M148.929,-185.605C129.504,-161.745 104.833,-131.44 85.5105,-107.706"/>
<polygon fill="none" stroke="black" points="146.272,-187.886 155.3,-193.431 151.7,-183.466 146.272,-187.886"/>
</g>
<!-- _DrawPointFlow -->
<g id="node4" class="node"><title>_DrawPointFlow</title>
<polygon fill="none" stroke="black" points="135,-114 135,-131 228,-131 228,-114 135,-114"/>
<text text-anchor="start" x="150.5" y="-120.5" font-family="Times New Roman,serif" font-size="10.00">DrawPointFlow</text>
<polygon fill="none" stroke="black" points="135,-24 135,-114 228,-114 228,-24 135,-24"/>
<text text-anchor="start" x="140" y="-102" font-family="Times New Roman,serif" font-size="10.00">x :int</text>
<text text-anchor="start" x="140" y="-88" font-family="Times New Roman,serif" font-size="10.00">y :int</text>
<text text-anchor="start" x="140" y="-74" font-family="Times New Roman,serif" font-size="10.00">r :int</text>
<text text-anchor="start" x="140" y="-60" font-family="Times New Roman,serif" font-size="10.00">g :int</text>
<text text-anchor="start" x="140" y="-46" font-family="Times New Roman,serif" font-size="10.00">b :int</text>
<text text-anchor="start" x="140" y="-32" font-family="Times New Roman,serif" font-size="10.00">gui :PeerToPeerChat</text>
<polygon fill="none" stroke="black" points="135,-4 135,-24 228,-24 228,-4 135,-4"/>
<text text-anchor="start" x="140" y="-12" font-family="Times New Roman,serif" font-size="10.00">run()</text>
</g>
<!-- _TaskFlow&#45;&gt;_DrawPointFlow -->
<g id="edge4" class="edge"><title>_TaskFlow&#45;&gt;_DrawPointFlow</title>
<path fill="none" stroke="black" d="M181,-183.209C181,-168.585 181,-151.778 181,-135.635"/>
<polygon fill="none" stroke="black" points="177.5,-183.431 181,-193.431 184.5,-183.431 177.5,-183.431"/>
</g>
<!-- _ClearDrawingFlow -->
<g id="node5" class="node"><title>_ClearDrawingFlow</title>
<polygon fill="none" stroke="black" points="262,-79 262,-96 355,-96 355,-79 262,-79"/>
<text text-anchor="start" x="271.5" y="-85.5" font-family="Times New Roman,serif" font-size="10.00">ClearDrawingFlow</text>
<polygon fill="none" stroke="black" points="262,-59 262,-79 355,-79 355,-59 262,-59"/>
<text text-anchor="start" x="267" y="-67" font-family="Times New Roman,serif" font-size="10.00">gui :PeerToPeerChat</text>
<polygon fill="none" stroke="black" points="262,-39 262,-59 355,-59 355,-39 262,-39"/>
<text text-anchor="start" x="267" y="-47" font-family="Times New Roman,serif" font-size="10.00">run()</text>
</g>
<!-- _TaskFlow&#45;&gt;_ClearDrawingFlow -->
<g id="edge6" class="edge"><title>_TaskFlow&#45;&gt;_ClearDrawingFlow</title>
<path fill="none" stroke="black" d="M213.133,-185.529C234.572,-159.195 262.38,-125.038 282.338,-100.522"/>
<polygon fill="none" stroke="black" points="210.3,-183.466 206.7,-193.431 215.728,-187.886 210.3,-183.466"/>
</g>
<!-- _PeerToPeerChatArgs -->
<g id="node6" class="node"><title>_PeerToPeerChatArgs</title>
<polygon fill="none" stroke="black" points="243,-258 243,-275 335,-275 335,-258 243,-258"/>
<text text-anchor="start" x="246.5" y="-264.5" font-family="Times New Roman,serif" font-size="10.00">PeerToPeerChatArgs</text>
<polygon fill="none" stroke="black" points="243,-196 243,-258 335,-258 335,-196 243,-196"/>
<text text-anchor="start" x="248" y="-246" font-family="Times New Roman,serif" font-size="10.00">userName :String</text>
<text text-anchor="start" x="248" y="-232" font-family="Times New Roman,serif" font-size="10.00">localPort :int</text>
<text text-anchor="start" x="248" y="-218" font-family="Times New Roman,serif" font-size="10.00">peerIp :String</text>
<text text-anchor="start" x="248" y="-204" font-family="Times New Roman,serif" font-size="10.00">peerPort :int</text>
<polygon fill="none" stroke="black" points="243,-176 243,-196 335,-196 335,-176 243,-176"/>
<text text-anchor="start" x="287.5" y="-184" font-family="Times New Roman,serif" font-size="10.00"> </text>
</g>
<!-- _PeerProxy -->
<g id="node7" class="node"><title>_PeerProxy</title>
<polygon fill="none" stroke="black" points="369,-251 369,-268 457,-268 457,-251 369,-251"/>
<text text-anchor="start" x="393" y="-257.5" font-family="Times New Roman,serif" font-size="10.00">PeerProxy</text>
<polygon fill="none" stroke="black" points="369,-203 369,-251 457,-251 457,-203 369,-203"/>
<text text-anchor="start" x="374" y="-239" font-family="Times New Roman,serif" font-size="10.00">ip :String</text>
<text text-anchor="start" x="374" y="-225" font-family="Times New Roman,serif" font-size="10.00">port :int</text>
<text text-anchor="start" x="374" y="-211" font-family="Times New Roman,serif" font-size="10.00">idMap :JsonIdMap</text>
<polygon fill="none" stroke="black" points="369,-183 369,-203 457,-203 457,-183 369,-183"/>
<text text-anchor="start" x="411.5" y="-191" font-family="Times New Roman,serif" font-size="10.00"> </text>
</g>
</g>
</svg>
