<?xml version="1.0" encoding="UTF-8" standalone="no"?>
<!DOCTYPE svg PUBLIC "-//W3C//DTD SVG 1.1//EN"
 "http://www.w3.org/Graphics/SVG/1.1/DTD/svg11.dtd">
<!-- Generated by graphviz version 2.28.0 (20110507.0327)
 -->
<!-- Title: ObjectDiagram Pages: 1 -->
<svg width="220pt" height="208pt"
 viewBox="0.00 0.00 220.00 208.00" xmlns="http://www.w3.org/2000/svg" xmlns:xlink="http://www.w3.org/1999/xlink">
<g id="graph1" class="graph" transform="scale(1 1) rotate(0) translate(4 204)">
<title>ObjectDiagram</title>
<polygon fill="white" stroke="white" points="-4,5 -4,-204 217,-204 217,5 -4,5"/>
<!-- s1 -->
<g id="node1" class="node"><title>s1</title>
<a xlink:href="../test/org/sdmlib/models/patterns/example/SimpleState.java" xlink:title="&lt;TABLE&gt;">
<polygon fill="none" stroke="black" points="86,-173 86,-190 157,-190 157,-173 86,-173"/>
<text text-anchor="start" x="89.5" y="-179.5" font-family="Times New Roman,serif" font-size="10.00"> </text>
<text text-anchor="start" x="92.5" y="-179.5" font-family="Times New Roman,serif" font-size="10.00">s1 :SimpleState</text>
</a>
</g>
<!-- n2 -->
<g id="node2" class="node"><title>n2</title>
<a xlink:href="../test/org/sdmlib/models/patterns/example/Node.java" xlink:title="&lt;TABLE&gt;">
<polygon fill="none" stroke="black" points="8,-106 8,-123 55,-123 55,-106 8,-106"/>
<text text-anchor="start" x="11.5" y="-112.5" font-family="Times New Roman,serif" font-size="10.00"> </text>
<text text-anchor="start" x="14.5" y="-112.5" font-family="Times New Roman,serif" font-size="10.00">n2 :Node</text>
</a>
<polygon fill="none" stroke="black" points="8,-86 8,-106 55,-106 55,-86 8,-86"/>
<text text-anchor="start" x="13" y="-94" font-family="Times New Roman,serif" font-size="10.00">num = 0</text>
</g>
<!-- s1&#45;&#45;n2 -->
<g id="edge2" class="edge"><title>s1&#45;&#45;n2</title>
<path fill="none" stroke="black" d="M100.578,-163.981C87.6119,-153.177 70.7194,-139.1 56.8262,-127.522"/>
<text text-anchor="middle" x="66.4942" y="-127.577" font-family="Times New Roman,serif" font-size="10.00">nodes</text>
<text text-anchor="middle" x="90.9096" y="-158.926" font-family="Times New Roman,serif" font-size="10.00">graph</text>
</g>
<!-- n3 -->
<g id="node3" class="node"><title>n3</title>
<a xlink:href="../test/org/sdmlib/models/patterns/example/Node.java" xlink:title="&lt;TABLE&gt;">
<polygon fill="none" stroke="black" points="27,-24 27,-41 74,-41 74,-24 27,-24"/>
<text text-anchor="start" x="30.5" y="-30.5" font-family="Times New Roman,serif" font-size="10.00"> </text>
<text text-anchor="start" x="33.5" y="-30.5" font-family="Times New Roman,serif" font-size="10.00">n3 :Node</text>
</a>
<polygon fill="none" stroke="black" points="27,-4 27,-24 74,-24 74,-4 27,-4"/>
<text text-anchor="start" x="32" y="-12" font-family="Times New Roman,serif" font-size="10.00">num = 0</text>
</g>
<!-- s1&#45;&#45;n3 -->
<g id="edge4" class="edge"><title>s1&#45;&#45;n3</title>
<path fill="none" stroke="black" d="M113.267,-163.899C100.256,-135.13 74.0167,-77.1073 59.7588,-45.5793"/>
<text text-anchor="middle" x="67.344" y="-49.5958" font-family="Times New Roman,serif" font-size="10.00">nodes</text>
<text text-anchor="middle" x="105.681" y="-154.883" font-family="Times New Roman,serif" font-size="10.00">graph</text>
</g>
<!-- n4 -->
<g id="node4" class="node"><title>n4</title>
<a xlink:href="../test/org/sdmlib/models/patterns/example/Node.java" xlink:title="&lt;TABLE&gt;">
<polygon fill="none" stroke="black" points="128,-106 128,-123 175,-123 175,-106 128,-106"/>
<text text-anchor="start" x="131.5" y="-112.5" font-family="Times New Roman,serif" font-size="10.00"> </text>
<text text-anchor="start" x="134.5" y="-112.5" font-family="Times New Roman,serif" font-size="10.00">n4 :Node</text>
</a>
<polygon fill="none" stroke="black" points="128,-86 128,-106 175,-106 175,-86 128,-86"/>
<text text-anchor="start" x="133" y="-94" font-family="Times New Roman,serif" font-size="10.00">num = 0</text>
</g>
<!-- s1&#45;&#45;n4 -->
<g id="edge6" class="edge"><title>s1&#45;&#45;n4</title>
<path fill="none" stroke="black" d="M127.807,-163.981C132.129,-153.177 137.76,-139.1 142.391,-127.522"/>
<text text-anchor="middle" x="142.949" y="-135.006" font-family="Times New Roman,serif" font-size="10.00">nodes</text>
<text text-anchor="middle" x="127.249" y="-151.497" font-family="Times New Roman,serif" font-size="10.00">graph</text>
</g>
<!-- n5 -->
<g id="node5" class="node"><title>n5</title>
<a xlink:href="../test/org/sdmlib/models/patterns/example/Node.java" xlink:title="&lt;TABLE&gt;">
<polygon fill="none" stroke="black" points="158,-24 158,-41 205,-41 205,-24 158,-24"/>
<text text-anchor="start" x="161.5" y="-30.5" font-family="Times New Roman,serif" font-size="10.00"> </text>
<text text-anchor="start" x="164.5" y="-30.5" font-family="Times New Roman,serif" font-size="10.00">n5 :Node</text>
</a>
<polygon fill="none" stroke="black" points="158,-4 158,-24 205,-24 205,-4 158,-4"/>
<text text-anchor="start" x="163" y="-12" font-family="Times New Roman,serif" font-size="10.00">num = 0</text>
</g>
<!-- s1&#45;&#45;n5 -->
<g id="edge8" class="edge"><title>s1&#45;&#45;n5</title>
<path fill="none" stroke="black" d="M155.682,-163.834C169.307,-155.127 183.468,-143.151 191,-128 204.001,-101.85 196.694,-67.4573 189.48,-45.5327"/>
<text text-anchor="middle" x="196.198" y="-50.4399" font-family="Times New Roman,serif" font-size="10.00">nodes</text>
<text text-anchor="middle" x="160.909" y="-152.809" font-family="Times New Roman,serif" font-size="10.00">graph</text>
</g>
<!-- n2&#45;&#45;n3 -->
<g id="edge10" class="edge"><title>n2&#45;&#45;n3</title>
<path fill="none" stroke="black" d="M36.1918,-82.1396C38.8947,-70.759 42.1879,-56.8929 44.8802,-45.5569"/>
<text text-anchor="middle" x="46.8978" y="-52.8513" font-family="Times New Roman,serif" font-size="10.00">next_prev</text>
<text text-anchor="middle" x="34.1743" y="-69.8453" font-family="Times New Roman,serif" font-size="10.00">next_prev</text>
</g>
<!-- n4&#45;&#45;n5 -->
<g id="edge12" class="edge"><title>n4&#45;&#45;n5</title>
<path fill="none" stroke="black" d="M159.198,-82.1396C163.465,-70.759 168.665,-56.8929 172.916,-45.5569"/>
<text text-anchor="middle" x="173.691" y="-53.0269" font-family="Times New Roman,serif" font-size="10.00">next_prev</text>
<text text-anchor="middle" x="158.423" y="-69.6697" font-family="Times New Roman,serif" font-size="10.00">next_prev</text>
</g>
</g>
</svg>
