<?xml version="1.0" encoding="UTF-8" standalone="no"?>
<!DOCTYPE svg PUBLIC "-//W3C//DTD SVG 1.1//EN"
 "http://www.w3.org/Graphics/SVG/1.1/DTD/svg11.dtd">
<!-- Generated by graphviz version 2.28.0 (20110507.0327)
 -->
<!-- Title: ObjectDiagram Pages: 1 -->
<svg width="161pt" height="332pt"
 viewBox="0.00 0.00 161.00 332.00" xmlns="http://www.w3.org/2000/svg" xmlns:xlink="http://www.w3.org/1999/xlink">
<g id="graph1" class="graph" transform="scale(1 1) rotate(0) translate(4 328)">
<title>ObjectDiagram</title>
<polygon fill="white" stroke="white" points="-4,5 -4,-328 158,-328 158,5 -4,5"/>
<!-- s1 -->
<g id="node1" class="node"><title>s1</title>
<polygon fill="none" stroke="black" points="75,-297 75,-314 146,-314 146,-297 75,-297"/>
<text text-anchor="start" x="78.5" y="-303.5" font-family="Times New Roman,serif" font-size="10.00"> </text>
<text text-anchor="start" x="81.5" y="-303.5" font-family="Times New Roman,serif" font-size="10.00">s1 :SimpleState</text>
</g>
<!-- n2 -->
<g id="node2" class="node"><title>n2</title>
<polygon fill="none" stroke="black" points="8,-225 8,-242 55,-242 55,-225 8,-225"/>
<text text-anchor="start" x="11.5" y="-231.5" font-family="Times New Roman,serif" font-size="10.00"> </text>
<text text-anchor="start" x="14.5" y="-231.5" font-family="Times New Roman,serif" font-size="10.00">n2 :Node</text>
</g>
<!-- s1&#45;&#45;n2 -->
<g id="edge2" class="edge"><title>s1&#45;&#45;n2</title>
<path fill="none" stroke="black" d="M90.4719,-287.697C78.2265,-276.846 62.506,-262.917 50.3035,-252.104"/>
<text text-anchor="middle" x="59.8895" y="-252.452" font-family="Times New Roman,serif" font-size="10.00">nodes</text>
<text text-anchor="middle" x="80.8859" y="-282.349" font-family="Times New Roman,serif" font-size="10.00">graph</text>
</g>
<!-- n3 -->
<g id="node3" class="node"><title>n3</title>
<polygon fill="none" stroke="black" points="46,-153 46,-170 93,-170 93,-153 46,-153"/>
<text text-anchor="start" x="49.5" y="-159.5" font-family="Times New Roman,serif" font-size="10.00"> </text>
<text text-anchor="start" x="52.5" y="-159.5" font-family="Times New Roman,serif" font-size="10.00">n3 :Node</text>
</g>
<!-- s1&#45;&#45;n3 -->
<g id="edge4" class="edge"><title>s1&#45;&#45;n3</title>
<path fill="none" stroke="black" d="M105.054,-287.871C97.1741,-260.578 81.8545,-207.52 73.9631,-180.189"/>
<text text-anchor="middle" x="80.5375" y="-185.224" font-family="Times New Roman,serif" font-size="10.00">nodes</text>
<text text-anchor="middle" x="98.48" y="-277.836" font-family="Times New Roman,serif" font-size="10.00">graph</text>
</g>
<!-- n4 -->
<g id="node4" class="node"><title>n4</title>
<polygon fill="none" stroke="black" points="65,-81 65,-98 112,-98 112,-81 65,-81"/>
<text text-anchor="start" x="68.5" y="-87.5" font-family="Times New Roman,serif" font-size="10.00"> </text>
<text text-anchor="start" x="71.5" y="-87.5" font-family="Times New Roman,serif" font-size="10.00">n4 :Node</text>
</g>
<!-- s1&#45;&#45;n4 -->
<g id="edge6" class="edge"><title>s1&#45;&#45;n4</title>
<path fill="none" stroke="black" d="M111.945,-287.875C114.859,-258.234 119.014,-195.587 109,-144 106.586,-131.564 101.336,-118.314 96.6894,-108.173"/>
<text text-anchor="middle" x="104.261" y="-112.204" font-family="Times New Roman,serif" font-size="10.00">nodes</text>
<text text-anchor="middle" x="108.559" y="-275.966" font-family="Times New Roman,serif" font-size="10.00">graph</text>
</g>
<!-- n5 -->
<g id="node5" class="node"><title>n5</title>
<polygon fill="none" stroke="black" points="65,-9 65,-26 112,-26 112,-9 65,-9"/>
<text text-anchor="start" x="68.5" y="-15.5" font-family="Times New Roman,serif" font-size="10.00"> </text>
<text text-anchor="start" x="71.5" y="-15.5" font-family="Times New Roman,serif" font-size="10.00">n5 :Node</text>
</g>
<!-- s1&#45;&#45;n5 -->
<g id="edge8" class="edge"><title>s1&#45;&#45;n5</title>
<path fill="none" stroke="black" d="M117.893,-287.745C122.107,-277.577 126.857,-264.327 129,-252 136.016,-211.636 154.622,-150.559 128,-72 123.486,-58.6801 114.19,-46.0188 105.695,-36.4135"/>
<text text-anchor="middle" x="114.818" y="-38.0081" font-family="Times New Roman,serif" font-size="10.00">nodes</text>
<text text-anchor="middle" x="117.394" y="-275.258" font-family="Times New Roman,serif" font-size="10.00">graph</text>
</g>
<!-- n2&#45;&#45;n3 -->
<g id="edge10" class="edge"><title>n2&#45;&#45;n3</title>
<path fill="none" stroke="black" d="M40.3933,-215.697C46.2834,-204.846 53.8452,-190.917 59.7148,-180.104"/>
<text text-anchor="middle" x="59.1051" y="-187.586" font-family="Times New Roman,serif" font-size="10.00">next</text>
<text text-anchor="middle" x="41.003" y="-203.215" font-family="Times New Roman,serif" font-size="10.00">prev</text>
</g>
<!-- n2&#45;&#45;n5 -->
<g id="edge12" class="edge"><title>n2&#45;&#45;n5</title>
<path fill="none" stroke="black" d="M29.7813,-215.825C29.107,-205.456 28.3387,-191.976 28,-180 26.6223,-131.282 25.4412,-115.71 47,-72 53.381,-59.0628 63.1998,-46.2237 71.6289,-36.423"/>
<text text-anchor="middle" x="68.9952" y="-43.57" font-family="Times New Roman,serif" font-size="10.00">prev</text>
<text text-anchor="middle" x="24.9853" y="-204.55" font-family="Times New Roman,serif" font-size="10.00">next</text>
</g>
<!-- n3&#45;&#45;n4 -->
<g id="edge14" class="edge"><title>n3&#45;&#45;n4</title>
<path fill="none" stroke="black" d="M73.6966,-143.697C76.6417,-132.846 80.4226,-118.917 83.3574,-108.104"/>
<text text-anchor="middle" x="85.0619" y="-115.458" font-family="Times New Roman,serif" font-size="10.00">next</text>
<text text-anchor="middle" x="71.9921" y="-131.343" font-family="Times New Roman,serif" font-size="10.00">prev</text>
</g>
<!-- n4&#45;&#45;n5 -->
<g id="edge16" class="edge"><title>n4&#45;&#45;n5</title>
<path fill="none" stroke="black" d="M88,-71.6966C88,-60.8463 88,-46.9167 88,-36.1043"/>
<text text-anchor="middle" x="92.2262" y="-42.6674" font-family="Times New Roman,serif" font-size="10.00">next</text>
<text text-anchor="middle" x="83.7738" y="-60.1335" font-family="Times New Roman,serif" font-size="10.00">prev</text>
</g>
</g>
</svg>
