<?xml version="1.0" encoding="UTF-8" standalone="no"?>
<!DOCTYPE svg PUBLIC "-//W3C//DTD SVG 1.1//EN"
 "http://www.w3.org/Graphics/SVG/1.1/DTD/svg11.dtd">
<!-- Generated by graphviz version 2.28.0 (20110507.0327)
 -->
<!-- Title: ObjectDiagram Pages: 1 -->
<svg width="955pt" height="888pt"
 viewBox="0.00 0.00 955.31 888.00" xmlns="http://www.w3.org/2000/svg" xmlns:xlink="http://www.w3.org/1999/xlink">
<g id="graph1" class="graph" transform="scale(1 1) rotate(0) translate(4 884)">
<title>ObjectDiagram</title>
<polygon fill="white" stroke="white" points="-4,5 -4,-884 952.314,-884 952.314,5 -4,5"/>
<!-- g1 -->
<g id="node1" class="node"><title>g1</title>
<polygon fill="deepskyblue" stroke="deepskyblue" points="218.5,-824.5 218.5,-875.5 275.5,-875.5 275.5,-824.5 218.5,-824.5"/>
<text text-anchor="start" x="247" y="-865.5" font-family="Arial" font-size="10.00">«bound»</text>
<polygon fill="none" stroke="black" points="219,-844 219,-860 276,-860 276,-844 219,-844"/>
<text text-anchor="start" x="222.5" y="-850" font-family="Arial" font-size="10.00"> </text>
<text text-anchor="start" x="226.5" y="-850" font-family="Arial" font-size="10.00"> g1 :GraphPO </text>
<polygon fill="none" stroke="black" points="219,-824 219,-844 276,-844 276,-824 219,-824"/>
<text text-anchor="start" x="244" y="-832" font-family="Arial" font-size="10.00"> &#160;</text>
</g>
<!-- e2 -->
<g id="node2" class="node"><title>e2</title>
<polygon fill="deepskyblue" stroke="deepskyblue" points="93.5,-742.5 93.5,-779.5 164.5,-779.5 164.5,-742.5 93.5,-742.5"/>
<polygon fill="none" stroke="black" points="94,-762 94,-779 165,-779 165,-762 94,-762"/>
<text text-anchor="start" x="97.5" y="-768.5" font-family="Arial" font-size="10.00"> </text>
<text text-anchor="start" x="101.5" y="-768.5" font-family="Arial" font-size="10.00"> e2 :EdgePO </text>
<polygon fill="none" stroke="black" points="94,-742 94,-762 165,-762 165,-742 94,-742"/>
<text text-anchor="start" x="126" y="-750" font-family="Arial" font-size="10.00"> &#160;</text>
</g>
<!-- g1&#45;&#45;e2 -->
<g id="edge10" class="edge"><title>g1&#45;&#45;e2</title>
<path fill="none" stroke="black" d="M210.633,-822.187C193.839,-809.805 174.162,-795.297 158.334,-783.628"/>
<text text-anchor="middle" x="168.137" y="-783.105" font-family="Arial" font-size="10.00">edges</text>
</g>
<!-- g5 -->
<g id="node6" class="node"><title>g5</title>
<a xlink:href="../../SDMLib/src/org/sdmlib/examples/helloworld/Graph.java" xlink:title="&lt;TABLE&gt;">
<polygon fill="none" stroke="black" points="451,-670 451,-687 505,-687 505,-670 451,-670"/>
<text text-anchor="start" x="454.5" y="-676.5" font-family="Arial" font-size="10.00"> </text>
<text text-anchor="start" x="458.5" y="-676.5" font-family="Arial" font-size="10.00">g5 :Graph</text>
</a>
</g>
<!-- g1&#45;&#45;g5 -->
<g id="edge2" class="edge"><title>g1&#45;&#45;g5</title>
<path fill="none" stroke="black" stroke-dasharray="1,5" d="M283.348,-822.408C331.248,-787.364 414.144,-726.717 454.529,-697.172"/>
<text text-anchor="middle" x="449.709" y="-703.434" font-family="Arial" font-size="10.00">match</text>
</g>
<!-- n3 -->
<g id="node3" class="node"><title>n3</title>
<polygon fill="deepskyblue" stroke="deepskyblue" points="146.5,-660.5 146.5,-697.5 217.5,-697.5 217.5,-660.5 146.5,-660.5"/>
<polygon fill="none" stroke="black" points="147,-680 147,-697 218,-697 218,-680 147,-680"/>
<text text-anchor="start" x="150.5" y="-686.5" font-family="Arial" font-size="10.00"> </text>
<text text-anchor="start" x="154.5" y="-686.5" font-family="Arial" font-size="10.00"> n3 :NodePO </text>
<polygon fill="none" stroke="black" points="147,-660 147,-680 218,-680 218,-660 147,-660"/>
<text text-anchor="start" x="179" y="-668" font-family="Arial" font-size="10.00"> &#160;</text>
</g>
<!-- e2&#45;&#45;n3 -->
<g id="edge12" class="edge"><title>e2&#45;&#45;n3</title>
<path fill="none" stroke="black" d="M137.392,-738.14C144.045,-726.759 153.239,-712.893 161.652,-701.557"/>
<text text-anchor="middle" x="159.704" y="-708.865" font-family="Arial" font-size="10.00">src</text>
</g>
<!-- e2&#45;&#45;n3 -->
<g id="edge18" class="edge"><title>e2&#45;&#45;n3</title>
<path fill="none" stroke="green" d="M149.573,-738.14C158,-726.759 167.178,-712.893 173.785,-701.557"/>
<text text-anchor="middle" x="172.804" y="-709.009" font-family="Arial" font-size="10.00" fill="green">tgt</text>
</g>
<!-- n4 -->
<g id="node4" class="node"><title>n4</title>
<polygon fill="deepskyblue" stroke="deepskyblue" points="41.5,-660.5 41.5,-697.5 112.5,-697.5 112.5,-660.5 41.5,-660.5"/>
<polygon fill="none" stroke="black" points="42,-680 42,-697 113,-697 113,-680 42,-680"/>
<text text-anchor="start" x="45.5" y="-686.5" font-family="Arial" font-size="10.00"> </text>
<text text-anchor="start" x="49.5" y="-686.5" font-family="Arial" font-size="10.00"> n4 :NodePO </text>
<polygon fill="none" stroke="black" points="42,-660 42,-680 113,-680 113,-660 42,-660"/>
<text text-anchor="start" x="74" y="-668" font-family="Arial" font-size="10.00"> &#160;</text>
</g>
<!-- e2&#45;&#45;n4 -->
<g id="edge14" class="edge"><title>e2&#45;&#45;n4</title>
<path fill="none" stroke="black" d="M108.7,-738.14C100.416,-726.759 91.4107,-712.893 84.9451,-701.557"/>
<text text-anchor="middle" x="93.1468" y="-704.778" font-family="Arial" font-size="10.00">tgt</text>
</g>
<!-- e2&#45;&#45;n4 -->
<g id="edge16" class="edge"><title>e2&#45;&#45;n4</title>
<path fill="none" stroke="green" d="M120.882,-738.14C114.371,-726.759 105.35,-712.893 97.0789,-701.557"/>
<text text-anchor="middle" x="105.805" y="-703.941" font-family="Arial" font-size="10.00" fill="green">src</text>
</g>
<!-- e6 -->
<g id="node24" class="node"><title>e6</title>
<a xlink:href="../../SDMLib/src/org/sdmlib/examples/helloworld/Edge.java" xlink:title="&lt;TABLE&gt;">
<polygon fill="none" stroke="black" points="8,-516 8,-533 79,-533 79,-516 8,-516"/>
<text text-anchor="start" x="21.5" y="-522.5" font-family="Arial" font-size="10.00"> </text>
<text text-anchor="start" x="25.5" y="-522.5" font-family="Arial" font-size="10.00">e6 :Edge</text>
</a>
<polygon fill="none" stroke="black" points="8,-496 8,-516 79,-516 79,-496 8,-496"/>
<text text-anchor="start" x="13" y="-504" font-family="Arial" font-size="10.00">name = &quot;e17&quot;</text>
</g>
<!-- e2&#45;&#45;e6 -->
<g id="edge4" class="edge"><title>e2&#45;&#45;e6</title>
<path fill="none" stroke="black" stroke-dasharray="1,5" d="M85.5855,-747.804C62.9789,-739.003 37.3345,-724.599 24,-702 -6.92847,-649.582 17.6408,-574.17 33.0037,-537.566"/>
<text text-anchor="middle" x="33.571" y="-545.05" font-family="Arial" font-size="10.00">match</text>
</g>
<!-- n7 -->
<g id="node22" class="node"><title>n7</title>
<a xlink:href="../../SDMLib/src/org/sdmlib/examples/helloworld/Node.java" xlink:title="&lt;TABLE&gt;">
<polygon fill="none" stroke="black" points="42,-598 42,-615 108,-615 108,-598 42,-598"/>
<text text-anchor="start" x="53" y="-604.5" font-family="Arial" font-size="10.00"> </text>
<text text-anchor="start" x="57" y="-604.5" font-family="Arial" font-size="10.00">n7 :Node</text>
</a>
<polygon fill="none" stroke="black" points="42,-578 42,-598 108,-598 108,-578 42,-578"/>
<text text-anchor="start" x="47" y="-586" font-family="Arial" font-size="10.00">name = &quot;n8&quot;</text>
</g>
<!-- n3&#45;&#45;n7 -->
<g id="edge6" class="edge"><title>n3&#45;&#45;n7</title>
<path fill="none" stroke="black" stroke-dasharray="1,5" d="M153.044,-656.351C137.819,-644.967 119.208,-631.052 103.979,-619.666"/>
<text text-anchor="middle" x="113.768" y="-619.209" font-family="Arial" font-size="10.00">match</text>
</g>
<!-- n4&#45;&#45;n7 -->
<g id="edge8" class="edge"><title>n4&#45;&#45;n7</title>
<path fill="none" stroke="black" stroke-dasharray="1,5" d="M76.4535,-656.14C76.169,-644.759 75.8223,-630.893 75.5389,-619.557"/>
<text text-anchor="middle" x="79.9903" y="-626.012" font-family="Arial" font-size="10.00">match</text>
</g>
<!-- allMatches -->
<g id="node5" class="node"><title>allMatches</title>
<text text-anchor="middle" x="334" y="-847.5" font-family="Arial" font-size="10.00">allMatches</text>
</g>
<!-- n8 -->
<g id="node7" class="node"><title>n8</title>
<a xlink:href="../../SDMLib/src/org/sdmlib/examples/helloworld/Node.java" xlink:title="&lt;TABLE&gt;">
<polygon fill="none" stroke="black" points="338,-598 338,-615 404,-615 404,-598 338,-598"/>
<text text-anchor="start" x="349" y="-604.5" font-family="Arial" font-size="10.00"> </text>
<text text-anchor="start" x="353" y="-604.5" font-family="Arial" font-size="10.00">n8 :Node</text>
</a>
<polygon fill="none" stroke="black" points="338,-578 338,-598 404,-598 404,-578 338,-578"/>
<text text-anchor="start" x="343" y="-586" font-family="Arial" font-size="10.00">name = &quot;n1&quot;</text>
</g>
<!-- g5&#45;&#45;n8 -->
<g id="edge20" class="edge"><title>g5&#45;&#45;n8</title>
<path fill="none" stroke="black" d="M455.046,-660.838C438.957,-648.809 417.326,-632.637 400.038,-619.711"/>
<text text-anchor="middle" x="409.828" y="-619.253" font-family="Arial" font-size="10.00">nodes</text>
<text text-anchor="middle" x="445.257" y="-656.296" font-family="Arial" font-size="10.00">graph</text>
</g>
<!-- e9 -->
<g id="node8" class="node"><title>e9</title>
<a xlink:href="../../SDMLib/src/org/sdmlib/examples/helloworld/Edge.java" xlink:title="&lt;TABLE&gt;">
<polygon fill="none" stroke="black" points="371,-516 371,-533 442,-533 442,-516 371,-516"/>
<text text-anchor="start" x="384.5" y="-522.5" font-family="Arial" font-size="10.00"> </text>
<text text-anchor="start" x="388.5" y="-522.5" font-family="Arial" font-size="10.00">e9 :Edge</text>
</a>
<polygon fill="none" stroke="black" points="371,-496 371,-516 442,-516 442,-496 371,-496"/>
<text text-anchor="start" x="376" y="-504" font-family="Arial" font-size="10.00">name = &quot;e12&quot;</text>
</g>
<!-- g5&#45;&#45;e9 -->
<g id="edge44" class="edge"><title>g5&#45;&#45;e9</title>
<path fill="none" stroke="black" d="M470.431,-660.969C457.253,-631.318 430.119,-570.268 415.625,-537.656"/>
<text text-anchor="middle" x="423.168" y="-541.721" font-family="Arial" font-size="10.00">edges</text>
<text text-anchor="middle" x="462.888" y="-651.904" font-family="Arial" font-size="10.00">graph</text>
</g>
<!-- n10 -->
<g id="node9" class="node"><title>n10</title>
<a xlink:href="../../SDMLib/src/org/sdmlib/examples/helloworld/Node.java" xlink:title="&lt;TABLE&gt;">
<polygon fill="none" stroke="black" points="414,-434 414,-451 480,-451 480,-434 414,-434"/>
<text text-anchor="start" x="422.5" y="-440.5" font-family="Arial" font-size="10.00"> </text>
<text text-anchor="start" x="426.5" y="-440.5" font-family="Arial" font-size="10.00">n10 :Node</text>
</a>
<polygon fill="none" stroke="black" points="414,-414 414,-434 480,-434 480,-414 414,-414"/>
<text text-anchor="start" x="419" y="-422" font-family="Arial" font-size="10.00">name = &quot;n3&quot;</text>
</g>
<!-- g5&#45;&#45;n10 -->
<g id="edge24" class="edge"><title>g5&#45;&#45;n10</title>
<path fill="none" stroke="black" d="M476.612,-660.76C473.86,-627.851 467.174,-553.843 458,-492 456.21,-479.936 453.708,-466.555 451.541,-455.688"/>
<text text-anchor="middle" x="457.446" y="-461.259" font-family="Arial" font-size="10.00">nodes</text>
<text text-anchor="middle" x="471.631" y="-649.589" font-family="Arial" font-size="10.00">graph</text>
</g>
<!-- e11 -->
<g id="node10" class="node"><title>e11</title>
<a xlink:href="../../SDMLib/src/org/sdmlib/examples/helloworld/Edge.java" xlink:title="&lt;TABLE&gt;">
<polygon fill="none" stroke="black" points="295,-352 295,-369 366,-369 366,-352 295,-352"/>
<text text-anchor="start" x="306" y="-358.5" font-family="Arial" font-size="10.00"> </text>
<text text-anchor="start" x="310" y="-358.5" font-family="Arial" font-size="10.00">e11 :Edge</text>
</a>
<polygon fill="none" stroke="black" points="295,-332 295,-352 366,-352 366,-332 295,-332"/>
<text text-anchor="start" x="300" y="-340" font-family="Arial" font-size="10.00">name = &quot;e11&quot;</text>
</g>
<!-- g5&#45;&#45;e11 -->
<g id="edge42" class="edge"><title>g5&#45;&#45;e11</title>
<path fill="none" stroke="black" d="M442.73,-676.035C405.528,-671.866 348.561,-659.054 321,-620 267.18,-543.738 303.185,-422.54 321.326,-373.574"/>
<text text-anchor="middle" x="322.314" y="-381.025" font-family="Arial" font-size="10.00">edges</text>
<text text-anchor="middle" x="433.196" y="-676.553" font-family="Arial" font-size="10.00">graph</text>
</g>
<!-- n12 -->
<g id="node11" class="node"><title>n12</title>
<a xlink:href="../../SDMLib/src/org/sdmlib/examples/helloworld/Node.java" xlink:title="&lt;TABLE&gt;">
<polygon fill="none" stroke="black" points="276,-270 276,-287 342,-287 342,-270 276,-270"/>
<text text-anchor="start" x="284.5" y="-276.5" font-family="Arial" font-size="10.00"> </text>
<text text-anchor="start" x="288.5" y="-276.5" font-family="Arial" font-size="10.00">n12 :Node</text>
</a>
<polygon fill="none" stroke="black" points="276,-250 276,-270 342,-270 342,-250 276,-250"/>
<text text-anchor="start" x="281" y="-258" font-family="Arial" font-size="10.00">name = &quot;n2&quot;</text>
</g>
<!-- g5&#45;&#45;n12 -->
<g id="edge22" class="edge"><title>g5&#45;&#45;n12</title>
<path fill="none" stroke="black" d="M442.771,-675.705C402.547,-671.264 337.141,-658.234 297,-620 261.254,-585.953 258,-565.365 258,-516 258,-516 258,-516 258,-432 258,-385.013 261.223,-372.259 277,-328 281.518,-315.326 288.59,-302.122 294.939,-291.519"/>
<text text-anchor="middle" x="293.968" y="-298.972" font-family="Arial" font-size="10.00">nodes</text>
<text text-anchor="middle" x="433.251" y="-676.267" font-family="Arial" font-size="10.00">graph</text>
</g>
<!-- e13 -->
<g id="node12" class="node"><title>e13</title>
<a xlink:href="../../SDMLib/src/org/sdmlib/examples/helloworld/Edge.java" xlink:title="&lt;TABLE&gt;">
<polygon fill="none" stroke="black" points="274,-188 274,-205 345,-205 345,-188 274,-188"/>
<text text-anchor="start" x="285" y="-194.5" font-family="Arial" font-size="10.00"> </text>
<text text-anchor="start" x="289" y="-194.5" font-family="Arial" font-size="10.00">e13 :Edge</text>
</a>
<polygon fill="none" stroke="black" points="274,-168 274,-188 345,-188 345,-168 274,-168"/>
<text text-anchor="start" x="279" y="-176" font-family="Arial" font-size="10.00">name = &quot;e10&quot;</text>
</g>
<!-- g5&#45;&#45;e13 -->
<g id="edge40" class="edge"><title>g5&#45;&#45;e13</title>
<path fill="none" stroke="black" d="M442.678,-677.93C395.582,-675.963 312.225,-665.678 261,-620 223.918,-586.933 220,-565.684 220,-516 220,-516 220,-516 220,-350 220,-293.843 261.59,-238.76 287.908,-209.526"/>
<text text-anchor="middle" x="285.14" y="-216.635" font-family="Arial" font-size="10.00">edges</text>
<text text-anchor="middle" x="433.388" y="-679.132" font-family="Arial" font-size="10.00">graph</text>
</g>
<!-- e14 -->
<g id="node13" class="node"><title>e14</title>
<a xlink:href="../../SDMLib/src/org/sdmlib/examples/helloworld/Edge.java" xlink:title="&lt;TABLE&gt;">
<polygon fill="none" stroke="black" points="723,-352 723,-369 794,-369 794,-352 723,-352"/>
<text text-anchor="start" x="734" y="-358.5" font-family="Arial" font-size="10.00"> </text>
<text text-anchor="start" x="738" y="-358.5" font-family="Arial" font-size="10.00">e14 :Edge</text>
</a>
<polygon fill="none" stroke="black" points="723,-332 723,-352 794,-352 794,-332 723,-332"/>
<text text-anchor="start" x="728" y="-340" font-family="Arial" font-size="10.00">name = &quot;e15&quot;</text>
</g>
<!-- g5&#45;&#45;e14 -->
<g id="edge50" class="edge"><title>g5&#45;&#45;e14</title>
<path fill="none" stroke="black" d="M513.121,-676.475C584.05,-672.583 740.423,-659.606 773,-620 832.502,-547.66 789.32,-423.702 768.019,-373.778"/>
<text text-anchor="middle" x="775.341" y="-378.089" font-family="Arial" font-size="10.00">edges</text>
<text text-anchor="middle" x="521.906" y="-669.199" font-family="Arial" font-size="10.00">graph</text>
</g>
<!-- n15 -->
<g id="node14" class="node"><title>n15</title>
<a xlink:href="../../SDMLib/src/org/sdmlib/examples/helloworld/Node.java" xlink:title="&lt;TABLE&gt;">
<polygon fill="none" stroke="black" points="734,-270 734,-287 800,-287 800,-270 734,-270"/>
<text text-anchor="start" x="742.5" y="-276.5" font-family="Arial" font-size="10.00"> </text>
<text text-anchor="start" x="746.5" y="-276.5" font-family="Arial" font-size="10.00">n15 :Node</text>
</a>
<polygon fill="none" stroke="black" points="734,-250 734,-270 800,-270 800,-250 734,-250"/>
<text text-anchor="start" x="739" y="-258" font-family="Arial" font-size="10.00">name = &quot;n5&quot;</text>
</g>
<!-- g5&#45;&#45;n15 -->
<g id="edge28" class="edge"><title>g5&#45;&#45;n15</title>
<path fill="none" stroke="black" d="M513.116,-676.148C587.204,-671.543 756.139,-657.147 798,-620 834.172,-587.901 830,-564.361 830,-516 830,-516 830,-516 830,-432 830,-384.931 828.934,-371.093 810,-328 804.252,-314.917 795.096,-301.985 786.708,-291.663"/>
<text text-anchor="middle" x="795.667" y="-293.604" font-family="Arial" font-size="10.00">nodes</text>
<text text-anchor="middle" x="521.871" y="-668.817" font-family="Arial" font-size="10.00">graph</text>
</g>
<!-- e16 -->
<g id="node15" class="node"><title>e16</title>
<a xlink:href="../../SDMLib/src/org/sdmlib/examples/helloworld/Edge.java" xlink:title="&lt;TABLE&gt;">
<polygon fill="none" stroke="black" points="732,-188 732,-205 803,-205 803,-188 732,-188"/>
<text text-anchor="start" x="743" y="-194.5" font-family="Arial" font-size="10.00"> </text>
<text text-anchor="start" x="747" y="-194.5" font-family="Arial" font-size="10.00">e16 :Edge</text>
</a>
<polygon fill="none" stroke="black" points="732,-168 732,-188 803,-188 803,-168 732,-168"/>
<text text-anchor="start" x="737" y="-176" font-family="Arial" font-size="10.00">name = &quot;e18&quot;</text>
</g>
<!-- g5&#45;&#45;e16 -->
<g id="edge36" class="edge"><title>g5&#45;&#45;e16</title>
<path fill="none" stroke="black" d="M513.223,-676.421C591.766,-672.237 778.103,-658.422 826,-620 864.884,-588.808 868,-565.849 868,-516 868,-516 868,-516 868,-350 868,-292.496 821.608,-238.527 791.707,-209.713"/>
<text text-anchor="middle" x="801.109" y="-210.621" font-family="Arial" font-size="10.00">edges</text>
<text text-anchor="middle" x="522.023" y="-669.171" font-family="Arial" font-size="10.00">graph</text>
</g>
<!-- e17 -->
<g id="node16" class="node"><title>e17</title>
<a xlink:href="../../SDMLib/src/org/sdmlib/examples/helloworld/Edge.java" xlink:title="&lt;TABLE&gt;">
<polygon fill="none" stroke="black" points="590,-188 590,-205 661,-205 661,-188 590,-188"/>
<text text-anchor="start" x="601" y="-194.5" font-family="Arial" font-size="10.00"> </text>
<text text-anchor="start" x="605" y="-194.5" font-family="Arial" font-size="10.00">e17 :Edge</text>
</a>
<polygon fill="none" stroke="black" points="590,-168 590,-188 661,-188 661,-168 590,-168"/>
<text text-anchor="start" x="595" y="-176" font-family="Arial" font-size="10.00">name = &quot;e14&quot;</text>
</g>
<!-- g5&#45;&#45;e17 -->
<g id="edge48" class="edge"><title>g5&#45;&#45;e17</title>
<path fill="none" stroke="black" d="M497.76,-660.772C508.821,-650.09 521.962,-635.484 530,-620 551.857,-577.898 554,-563.437 554,-516 554,-516 554,-516 554,-350 554,-295.955 587.559,-239.651 608.533,-209.74"/>
<text text-anchor="middle" x="606.929" y="-217.11" font-family="Arial" font-size="10.00">edges</text>
<text text-anchor="middle" x="501.256" y="-648.903" font-family="Arial" font-size="10.00">graph</text>
</g>
<!-- n18 -->
<g id="node17" class="node"><title>n18</title>
<a xlink:href="../../SDMLib/src/org/sdmlib/examples/helloworld/Node.java" xlink:title="&lt;TABLE&gt;">
<polygon fill="none" stroke="black" points="592,-106 592,-123 658,-123 658,-106 592,-106"/>
<text text-anchor="start" x="600.5" y="-112.5" font-family="Arial" font-size="10.00"> </text>
<text text-anchor="start" x="604.5" y="-112.5" font-family="Arial" font-size="10.00">n18 :Node</text>
</a>
<polygon fill="none" stroke="black" points="592,-86 592,-106 658,-106 658,-86 592,-86"/>
<text text-anchor="start" x="597" y="-94" font-family="Arial" font-size="10.00">name = &quot;n4&quot;</text>
</g>
<!-- g5&#45;&#45;n18 -->
<g id="edge26" class="edge"><title>g5&#45;&#45;n18</title>
<path fill="none" stroke="black" d="M513.021,-677.114C601.169,-674.262 829.49,-662.822 890,-620 932.513,-589.914 944,-568.082 944,-516 944,-516 944,-516 944,-268 944,-220.931 957.256,-197.31 924,-164 888.321,-128.264 739.442,-113.567 666.139,-108.407"/>
<text text-anchor="middle" x="675.499" y="-102.386" font-family="Arial" font-size="10.00">nodes</text>
<text text-anchor="middle" x="521.92" y="-670.052" font-family="Arial" font-size="10.00">graph</text>
</g>
<!-- e19 -->
<g id="node18" class="node"><title>e19</title>
<a xlink:href="../../SDMLib/src/org/sdmlib/examples/helloworld/Edge.java" xlink:title="&lt;TABLE&gt;">
<polygon fill="none" stroke="black" points="481,-24 481,-41 552,-41 552,-24 481,-24"/>
<text text-anchor="start" x="492" y="-30.5" font-family="Arial" font-size="10.00"> </text>
<text text-anchor="start" x="496" y="-30.5" font-family="Arial" font-size="10.00">e19 :Edge</text>
</a>
<polygon fill="none" stroke="black" points="481,-4 481,-24 552,-24 552,-4 481,-4"/>
<text text-anchor="start" x="486" y="-12" font-family="Arial" font-size="10.00">name = &quot;e13&quot;</text>
</g>
<!-- g5&#45;&#45;e19 -->
<g id="edge46" class="edge"><title>g5&#45;&#45;e19</title>
<path fill="none" stroke="black" d="M484.794,-660.811C495.724,-631.562 516,-570.021 516,-516 516,-516 516,-516 516,-186 516,-135.797 516,-76.8425 516,-45.7485"/>
<text text-anchor="middle" x="520.226" y="-52.3116" font-family="Arial" font-size="10.00">edges</text>
<text text-anchor="middle" x="483.92" y="-648.349" font-family="Arial" font-size="10.00">graph</text>
</g>
<!-- e20 -->
<g id="node19" class="node"><title>e20</title>
<a xlink:href="../../SDMLib/src/org/sdmlib/examples/helloworld/Edge.java" xlink:title="&lt;TABLE&gt;">
<polygon fill="none" stroke="black" points="837,-188 837,-205 908,-205 908,-188 837,-188"/>
<text text-anchor="start" x="848" y="-194.5" font-family="Arial" font-size="10.00"> </text>
<text text-anchor="start" x="852" y="-194.5" font-family="Arial" font-size="10.00">e20 :Edge</text>
</a>
<polygon fill="none" stroke="black" points="837,-168 837,-188 908,-188 908,-168 837,-168"/>
<text text-anchor="start" x="842" y="-176" font-family="Arial" font-size="10.00">name = &quot;e19&quot;</text>
</g>
<!-- g5&#45;&#45;e20 -->
<g id="edge38" class="edge"><title>g5&#45;&#45;e20</title>
<path fill="none" stroke="black" d="M513.045,-676.768C596.266,-673.203 802.855,-660.412 857,-620 897.948,-589.438 906,-567.096 906,-516 906,-516 906,-516 906,-350 906,-298.847 889.562,-240.508 879.546,-209.707"/>
<text text-anchor="middle" x="886.309" y="-214.572" font-family="Arial" font-size="10.00">edges</text>
<text text-anchor="middle" x="521.895" y="-669.611" font-family="Arial" font-size="10.00">graph</text>
</g>
<!-- n21 -->
<g id="node20" class="node"><title>n21</title>
<a xlink:href="../../SDMLib/src/org/sdmlib/examples/helloworld/Node.java" xlink:title="&lt;TABLE&gt;">
<polygon fill="none" stroke="black" points="590,-598 590,-615 656,-615 656,-598 590,-598"/>
<text text-anchor="start" x="598.5" y="-604.5" font-family="Arial" font-size="10.00"> </text>
<text text-anchor="start" x="602.5" y="-604.5" font-family="Arial" font-size="10.00">n21 :Node</text>
</a>
<polygon fill="none" stroke="black" points="590,-578 590,-598 656,-598 656,-578 590,-578"/>
<text text-anchor="start" x="595" y="-586" font-family="Arial" font-size="10.00">name = &quot;n6&quot;</text>
</g>
<!-- g5&#45;&#45;n21 -->
<g id="edge30" class="edge"><title>g5&#45;&#45;n21</title>
<path fill="none" stroke="black" d="M509.106,-660.838C530.992,-648.763 560.445,-632.513 583.917,-619.563"/>
<text text-anchor="middle" x="578.023" y="-625.142" font-family="Arial" font-size="10.00">nodes</text>
<text text-anchor="middle" x="515" y="-650.259" font-family="Arial" font-size="10.00">graph</text>
</g>
<!-- n22 -->
<g id="node21" class="node"><title>n22</title>
<a xlink:href="../../SDMLib/src/org/sdmlib/examples/helloworld/Node.java" xlink:title="&lt;TABLE&gt;">
<polygon fill="none" stroke="black" points="690,-598 690,-615 756,-615 756,-598 690,-598"/>
<text text-anchor="start" x="698.5" y="-604.5" font-family="Arial" font-size="10.00"> </text>
<text text-anchor="start" x="702.5" y="-604.5" font-family="Arial" font-size="10.00">n22 :Node</text>
</a>
<polygon fill="none" stroke="black" points="690,-578 690,-598 756,-598 756,-578 690,-578"/>
<text text-anchor="start" x="695" y="-586" font-family="Arial" font-size="10.00">name = &quot;n7&quot;</text>
</g>
<!-- g5&#45;&#45;n22 -->
<g id="edge32" class="edge"><title>g5&#45;&#45;n22</title>
<path fill="none" stroke="black" d="M513.306,-668.932C552.703,-658.482 618.126,-640.143 673,-620 675.938,-618.922 678.949,-617.756 681.966,-616.543"/>
<text text-anchor="middle" x="675.125" y="-621.336" font-family="Arial" font-size="10.00">nodes</text>
<text text-anchor="middle" x="520.967" y="-660.004" font-family="Arial" font-size="10.00">graph</text>
</g>
<!-- g5&#45;&#45;n7 -->
<g id="edge34" class="edge"><title>g5&#45;&#45;n7</title>
<path fill="none" stroke="black" d="M442.882,-674.675C379.48,-668.118 242.071,-651.358 130,-620 125.444,-618.725 120.75,-617.198 116.114,-615.551"/>
<text text-anchor="middle" x="126.066" y="-612.076" font-family="Arial" font-size="10.00">nodes</text>
<text text-anchor="middle" x="433.418" y="-675.406" font-family="Arial" font-size="10.00">graph</text>
</g>
<!-- e23 -->
<g id="node23" class="node"><title>e23</title>
<a xlink:href="../../SDMLib/src/org/sdmlib/examples/helloworld/Edge.java" xlink:title="&lt;TABLE&gt;">
<polygon fill="none" stroke="black" points="113,-516 113,-533 184,-533 184,-516 113,-516"/>
<text text-anchor="start" x="124" y="-522.5" font-family="Arial" font-size="10.00"> </text>
<text text-anchor="start" x="128" y="-522.5" font-family="Arial" font-size="10.00">e23 :Edge</text>
</a>
<polygon fill="none" stroke="black" points="113,-496 113,-516 184,-516 184,-496 113,-496"/>
<text text-anchor="start" x="118" y="-504" font-family="Arial" font-size="10.00">name = &quot;e16&quot;</text>
</g>
<!-- g5&#45;&#45;e23 -->
<g id="edge52" class="edge"><title>g5&#45;&#45;e23</title>
<path fill="none" stroke="black" d="M442.997,-674.16C378.344,-666.491 243.385,-647.607 206,-620 178.227,-599.491 162.007,-561.482 154.086,-537.533"/>
<text text-anchor="middle" x="161.05" y="-542.21" font-family="Arial" font-size="10.00">edges</text>
<text text-anchor="middle" x="433.484" y="-674.744" font-family="Arial" font-size="10.00">graph</text>
</g>
<!-- g5&#45;&#45;e6 -->
<g id="edge54" class="edge"><title>g5&#45;&#45;e6</title>
<path fill="none" stroke="black" d="M442.929,-678.521C382.663,-677.944 257.238,-670.191 167,-620 142.806,-606.543 145.754,-592.322 125,-574 110.097,-560.844 92.2067,-547.904 76.9442,-537.596"/>
<text text-anchor="middle" x="86.8138" y="-536.705" font-family="Arial" font-size="10.00">edges</text>
<text text-anchor="middle" x="433.778" y="-680.054" font-family="Arial" font-size="10.00">graph</text>
</g>
<!-- n8&#45;&#45;e9 -->
<g id="edge56" class="edge"><title>n8&#45;&#45;e9</title>
<path fill="none" stroke="black" d="M380.564,-574.14C385.543,-562.759 391.609,-548.893 396.569,-537.557"/>
<text text-anchor="middle" x="396.808" y="-545.054" font-family="Arial" font-size="10.00">outEdges</text>
<text text-anchor="middle" x="380.325" y="-561.643" font-family="Arial" font-size="10.00">src</text>
</g>
<!-- n8&#45;&#45;e13 -->
<g id="edge58" class="edge"><title>n8&#45;&#45;e13</title>
<path fill="none" stroke="black" d="M362.573,-574.332C358.835,-563.584 354.865,-550.3 353,-538 338.877,-444.845 394.843,-421.34 382,-328 376.841,-290.502 376.896,-279.353 359,-246 351.897,-232.762 341.323,-219.91 331.726,-209.683"/>
<text text-anchor="middle" x="340.979" y="-210.974" font-family="Arial" font-size="10.00">inEdges</text>
<text text-anchor="middle" x="355.644" y="-564.621" font-family="Arial" font-size="10.00">tgt</text>
</g>
<!-- e9&#45;&#45;n10 -->
<g id="edge60" class="edge"><title>e9&#45;&#45;n10</title>
<path fill="none" stroke="black" d="M417.203,-492.14C423.036,-480.759 430.142,-466.893 435.952,-455.557"/>
<text text-anchor="middle" x="435.58" y="-463.05" font-family="Arial" font-size="10.00">tgt</text>
<text text-anchor="middle" x="417.576" y="-479.647" font-family="Arial" font-size="10.00">inEdges</text>
</g>
<!-- n10&#45;&#45;e11 -->
<g id="edge62" class="edge"><title>n10&#45;&#45;e11</title>
<path fill="none" stroke="black" d="M415.338,-410.351C398.69,-398.967 378.339,-385.052 361.687,-373.666"/>
<text text-anchor="middle" x="371.554" y="-372.793" font-family="Arial" font-size="10.00">outEdges</text>
<text text-anchor="middle" x="405.471" y="-406.224" font-family="Arial" font-size="10.00">src</text>
</g>
<!-- n10&#45;&#45;e14 -->
<g id="edge64" class="edge"><title>n10&#45;&#45;e14</title>
<path fill="none" stroke="black" d="M488.298,-421.377C547.121,-406.246 654.533,-378.615 714.527,-363.183"/>
<text text-anchor="middle" x="706.802" y="-367.034" font-family="Arial" font-size="10.00">outEdges</text>
<text text-anchor="middle" x="496.023" y="-412.526" font-family="Arial" font-size="10.00">src</text>
</g>
<!-- n10&#45;&#45;e19 -->
<g id="edge66" class="edge"><title>n10&#45;&#45;e19</title>
<path fill="none" stroke="black" d="M450.292,-410.311C454.707,-379.288 462,-320.418 462,-270 462,-270 462,-270 462,-186 462,-133.378 487.96,-75.8467 503.881,-45.512"/>
<text text-anchor="middle" x="503.528" y="-53.0057" font-family="Arial" font-size="10.00">inEdges</text>
<text text-anchor="middle" x="447.35" y="-398.253" font-family="Arial" font-size="10.00">tgt</text>
</g>
<!-- e11&#45;&#45;n12 -->
<g id="edge68" class="edge"><title>e11&#45;&#45;n12</title>
<path fill="none" stroke="black" d="M324.262,-328.14C321.274,-316.759 317.634,-302.893 314.659,-291.557"/>
<text text-anchor="middle" x="321.047" y="-296.75" font-family="Arial" font-size="10.00">tgt</text>
<text text-anchor="middle" x="317.873" y="-317.947" font-family="Arial" font-size="10.00">inEdges</text>
</g>
<!-- n12&#45;&#45;e13 -->
<g id="edge70" class="edge"><title>n12&#45;&#45;e13</title>
<path fill="none" stroke="black" d="M309,-246.14C309,-234.759 309,-220.893 309,-209.557"/>
<text text-anchor="middle" x="313.226" y="-216.12" font-family="Arial" font-size="10.00">outEdges</text>
<text text-anchor="middle" x="304.774" y="-234.577" font-family="Arial" font-size="10.00">src</text>
</g>
<!-- e14&#45;&#45;n15 -->
<g id="edge72" class="edge"><title>e14&#45;&#45;n15</title>
<path fill="none" stroke="black" d="M760.459,-328.14C761.74,-316.759 763.3,-302.893 764.575,-291.557"/>
<text text-anchor="middle" x="767.761" y="-298.536" font-family="Arial" font-size="10.00">tgt</text>
<text text-anchor="middle" x="757.273" y="-316.161" font-family="Arial" font-size="10.00">inEdges</text>
</g>
<!-- n15&#45;&#45;e16 -->
<g id="edge74" class="edge"><title>n15&#45;&#45;e16</title>
<path fill="none" stroke="black" d="M767,-246.14C767,-234.759 767,-220.893 767,-209.557"/>
<text text-anchor="middle" x="771.226" y="-216.12" font-family="Arial" font-size="10.00">outEdges</text>
<text text-anchor="middle" x="762.774" y="-234.577" font-family="Arial" font-size="10.00">src</text>
</g>
<!-- n15&#45;&#45;e17 -->
<g id="edge76" class="edge"><title>n15&#45;&#45;e17</title>
<path fill="none" stroke="black" d="M728.573,-246.351C708.367,-234.967 683.668,-221.052 663.458,-209.666"/>
<text text-anchor="middle" x="673.429" y="-207.933" font-family="Arial" font-size="10.00">outEdges</text>
<text text-anchor="middle" x="718.602" y="-243.084" font-family="Arial" font-size="10.00">src</text>
</g>
<!-- n15&#45;&#45;e20 -->
<g id="edge78" class="edge"><title>n15&#45;&#45;e20</title>
<path fill="none" stroke="black" d="M795.415,-246.351C810.355,-234.967 828.619,-221.052 843.563,-209.666"/>
<text text-anchor="middle" x="838.915" y="-216.021" font-family="Arial" font-size="10.00">inEdges</text>
<text text-anchor="middle" x="800.062" y="-234.997" font-family="Arial" font-size="10.00">tgt</text>
</g>
<!-- e17&#45;&#45;n18 -->
<g id="edge80" class="edge"><title>e17&#45;&#45;n18</title>
<path fill="none" stroke="black" d="M625,-164.14C625,-152.759 625,-138.893 625,-127.557"/>
<text text-anchor="middle" x="629.226" y="-134.12" font-family="Arial" font-size="10.00">tgt</text>
<text text-anchor="middle" x="620.774" y="-152.577" font-family="Arial" font-size="10.00">inEdges</text>
</g>
<!-- n18&#45;&#45;e19 -->
<g id="edge82" class="edge"><title>n18&#45;&#45;e19</title>
<path fill="none" stroke="black" d="M595.503,-82.3508C579.993,-70.9674 561.034,-57.0524 545.521,-45.6665"/>
<text text-anchor="middle" x="555.327" y="-45.1219" font-family="Arial" font-size="10.00">outEdges</text>
<text text-anchor="middle" x="585.696" y="-77.8954" font-family="Arial" font-size="10.00">src</text>
</g>
<!-- n7&#45;&#45;e23 -->
<g id="edge84" class="edge"><title>n7&#45;&#45;e23</title>
<path fill="none" stroke="black" d="M94.9476,-574.14C105.332,-562.759 117.985,-548.893 128.329,-537.557"/>
<text text-anchor="middle" x="125.342" y="-544.6" font-family="Arial" font-size="10.00">outEdges_inEdges</text>
<text text-anchor="middle" x="97.9347" y="-562.096" font-family="Arial" font-size="10.00">src_tgt</text>
</g>
<!-- n7&#45;&#45;e6 -->
<g id="edge86" class="edge"><title>n7&#45;&#45;e6</title>
<path fill="none" stroke="black" d="M66.2559,-574.14C61.7036,-562.759 56.1572,-548.893 51.6228,-537.557"/>
<text text-anchor="middle" x="58.9126" y="-541.902" font-family="Arial" font-size="10.00">outEdges_inEdges</text>
<text text-anchor="middle" x="58.966" y="-564.794" font-family="Arial" font-size="10.00">src_tgt</text>
</g>
</g>
</svg>
