<?xml version="1.0" encoding="UTF-8" standalone="no"?>
<!DOCTYPE svg PUBLIC "-//W3C//DTD SVG 1.1//EN"
 "http://www.w3.org/Graphics/SVG/1.1/DTD/svg11.dtd">
<!-- Generated by graphviz version 2.28.0 (20110507.0327)
 -->
<!-- Title: ClassDiagram Pages: 1 -->
<svg width="84pt" height="176pt"
 viewBox="0.00 0.00 84.00 176.00" xmlns="http://www.w3.org/2000/svg" xmlns:xlink="http://www.w3.org/1999/xlink">
<g id="graph1" class="graph" transform="scale(1 1) rotate(0) translate(4 172)">
<title>ClassDiagram</title>
<polygon fill="white" stroke="white" points="-4,5 -4,-172 81,-172 81,5 -4,5"/>
<!-- _KanbanEntry -->
<g id="node1" class="node"><title>_KanbanEntry</title>
<polygon fill="none" stroke="black" points="8,-146 8,-163 69,-163 69,-146 8,-146"/>
<text text-anchor="start" x="11.5" y="-152.5" font-family="Times New Roman,serif" font-size="10.00">KanbanEntry</text>
<polygon fill="none" stroke="black" points="8,-126 8,-146 69,-146 69,-126 8,-126"/>
<text text-anchor="start" x="37" y="-134" font-family="Times New Roman,serif" font-size="10.00"> </text>
<polygon fill="none" stroke="black" points="8,-106 8,-126 69,-126 69,-106 8,-106"/>
<text text-anchor="start" x="37" y="-114" font-family="Times New Roman,serif" font-size="10.00"> </text>
</g>
<!-- _LogEntry -->
<g id="node2" class="node"><title>_LogEntry</title>
<polygon fill="none" stroke="black" points="16,-44 16,-61 61,-61 61,-44 16,-44"/>
<text text-anchor="start" x="19.5" y="-50.5" font-family="Times New Roman,serif" font-size="10.00">LogEntry</text>
<polygon fill="none" stroke="black" points="16,-24 16,-44 61,-44 61,-24 16,-24"/>
<text text-anchor="start" x="37" y="-32" font-family="Times New Roman,serif" font-size="10.00"> </text>
<polygon fill="none" stroke="black" points="16,-4 16,-24 61,-24 61,-4 16,-4"/>
<text text-anchor="start" x="37" y="-12" font-family="Times New Roman,serif" font-size="10.00"> </text>
</g>
<!-- _KanbanEntry&#45;&gt;_LogEntry -->
<g id="edge2" class="edge"><title>_KanbanEntry&#45;&gt;_LogEntry</title>
<path fill="none" stroke="black" d="M38,-102.359C38,-90.6864 38,-77.4631 38,-65.778"/>
<text text-anchor="middle" x="42.2262" y="-72.3411" font-family="Times New Roman,serif" font-size="10.00">logEntries *</text>
<text text-anchor="middle" x="33.7738" y="-90.7963" font-family="Times New Roman,serif" font-size="10.00">kanbanEntry</text>
</g>
</g>
</svg>
