<?xml version="1.0" encoding="UTF-8" standalone="no"?>
<!DOCTYPE svg PUBLIC "-//W3C//DTD SVG 1.1//EN"
 "http://www.w3.org/Graphics/SVG/1.1/DTD/svg11.dtd">
<!-- Generated by graphviz version 2.28.0 (20110507.0327)
 -->
<!-- Title: ObjectDiagram Pages: 1 -->
<svg width="363pt" height="342pt"
 viewBox="0.00 0.00 363.00 342.00" xmlns="http://www.w3.org/2000/svg" xmlns:xlink="http://www.w3.org/1999/xlink">
<g id="graph1" class="graph" transform="scale(1 1) rotate(0) translate(4 338)">
<title>ObjectDiagram</title>
<polygon fill="white" stroke="white" points="-4,5 -4,-338 360,-338 360,5 -4,5"/>
<!-- g1 -->
<g id="node1" class="node"><title>g1</title>
<polygon fill="deepskyblue" stroke="deepskyblue" points="176.5,-278.5 176.5,-329.5 251.5,-329.5 251.5,-278.5 176.5,-278.5"/>
<text text-anchor="start" x="222" y="-319.5" font-family="Times New Roman,serif" font-size="10.00">«bound»</text>
<polygon fill="none" stroke="black" points="177,-298 177,-314 252,-314 252,-298 177,-298"/>
<text text-anchor="start" x="180.5" y="-304" font-family="Times New Roman,serif" font-size="10.00"> </text>
<text text-anchor="start" x="183.5" y="-304" font-family="Times New Roman,serif" font-size="10.00"> g1 :GenericGraphPO </text>
<polygon fill="none" stroke="black" points="177,-278 177,-298 252,-298 252,-278 177,-278"/>
<text text-anchor="start" x="212" y="-286" font-family="Times New Roman,serif" font-size="10.00"> &#160;</text>
</g>
<!-- g2 -->
<g id="node2" class="node"><title>g2</title>
<polygon fill="deepskyblue" stroke="deepskyblue" points="139,-196.5 139,-233.5 289,-233.5 289,-196.5 139,-196.5"/>
<polygon fill="none" stroke="black" points="139,-216 139,-233 289,-233 289,-216 139,-216"/>
<text text-anchor="start" x="179" y="-222.5" font-family="Times New Roman,serif" font-size="10.00"> </text>
<text text-anchor="start" x="182" y="-222.5" font-family="Times New Roman,serif" font-size="10.00"> g2 :GenericObjectPO </text>
<polygon fill="none" stroke="black" points="139,-196 139,-216 289,-216 289,-196 139,-196"/>
<text text-anchor="start" x="144.5" y="-204" font-family="Times New Roman,serif" font-size="10.00"> type == &quot;org.sdmlib.examples.helloworld.Edge&quot; </text>
</g>
<!-- g1&#45;&#45;g2 -->
<g id="edge8" class="edge"><title>g1&#45;&#45;g2</title>
<path fill="none" stroke="black" d="M214,-274.03C214,-262.167 214,-248.675 214,-237.687"/>
<text text-anchor="middle" x="218.226" y="-244.25" font-family="Times New Roman,serif" font-size="10.00">objects</text>
</g>
<!-- g3 -->
<g id="node3" class="node"><title>g3</title>
<polygon fill="deepskyblue" stroke="deepskyblue" points="49.5,-100.5 49.5,-137.5 138.5,-137.5 138.5,-100.5 49.5,-100.5"/>
<polygon fill="none" stroke="black" points="50,-120 50,-137 139,-137 139,-120 50,-120"/>
<text text-anchor="start" x="53.5" y="-126.5" font-family="Times New Roman,serif" font-size="10.00"> </text>
<text text-anchor="start" x="56.5" y="-126.5" font-family="Times New Roman,serif" font-size="10.00"> g3 :GenericLinkPO </text>
<polygon fill="none" stroke="black" points="50,-100 50,-120 139,-120 139,-100 50,-100"/>
<text text-anchor="start" x="57.5" y="-108" font-family="Times New Roman,serif" font-size="10.00"> tgtLabel == &quot;src&quot; </text>
</g>
<!-- g2&#45;&#45;g3 -->
<g id="edge10" class="edge"><title>g2&#45;&#45;g3</title>
<path fill="none" stroke="black" d="M186.47,-192.435C167.095,-177.258 141.256,-157.017 121.818,-141.791"/>
<text text-anchor="middle" x="131.559" y="-141.553" font-family="Times New Roman,serif" font-size="10.00">outgoingLinks</text>
</g>
<!-- g4 -->
<g id="node4" class="node"><title>g4</title>
<polygon fill="deepskyblue" stroke="deepskyblue" points="173,-86.5 173,-151.5 255,-151.5 255,-86.5 173,-86.5"/>
<polygon fill="none" stroke="black" points="173,-134 173,-151 255,-151 255,-134 173,-134"/>
<text text-anchor="start" x="182" y="-140.5" font-family="Times New Roman,serif" font-size="10.00"> </text>
<text text-anchor="start" x="185" y="-140.5" font-family="Times New Roman,serif" font-size="10.00"> g4 :GenericLinkPO </text>
<polygon fill="none" stroke="black" points="173,-86 173,-134 255,-134 255,-86 173,-86"/>
<text text-anchor="start" x="188" y="-122" font-family="Times New Roman,serif" font-size="10.00"> tgtLabel == &quot;tgt&quot; </text>
<text text-anchor="start" x="178.5" y="-108" font-family="Times New Roman,serif" font-size="10.00" fill="green"> srcLabel := &quot;linksFrom&quot; </text>
<text text-anchor="start" x="182" y="-94" font-family="Times New Roman,serif" font-size="10.00" fill="green"> tgtLabel := &quot;linksTo&quot; </text>
</g>
<!-- g2&#45;&#45;g4 -->
<g id="edge12" class="edge"><title>g2&#45;&#45;g4</title>
<path fill="none" stroke="black" d="M214,-192.198C214,-181.351 214,-167.962 214,-155.671"/>
<text text-anchor="middle" x="218.226" y="-162.234" font-family="Times New Roman,serif" font-size="10.00">outgoingLinks</text>
</g>
<!-- d7 -->
<g id="node8" class="node"><title>d7</title>
<text text-anchor="middle" x="308" y="-116.5" font-family="Times New Roman,serif" font-size="10.00" fill="red">destroy</text>
</g>
<!-- g2&#45;&#45;d7 -->
<g id="edge4" class="edge"><title>g2&#45;&#45;d7</title>
<path fill="none" stroke="red" stroke-dasharray="1,5" d="M235.802,-192.198C252.506,-175.494 275.24,-152.76 290.704,-137.296"/>
</g>
<!-- g5 -->
<g id="node6" class="node"><title>g5</title>
<polygon fill="deepskyblue" stroke="deepskyblue" points="80.5,-4.5 80.5,-41.5 157.5,-41.5 157.5,-4.5 80.5,-4.5"/>
<polygon fill="none" stroke="black" points="81,-24 81,-41 158,-41 158,-24 81,-24"/>
<text text-anchor="start" x="84.5" y="-30.5" font-family="Times New Roman,serif" font-size="10.00"> </text>
<text text-anchor="start" x="87.5" y="-30.5" font-family="Times New Roman,serif" font-size="10.00"> g5 :GenericObjectPO </text>
<polygon fill="none" stroke="black" points="81,-4 81,-24 158,-24 158,-4 81,-4"/>
<text text-anchor="start" x="117" y="-12" font-family="Times New Roman,serif" font-size="10.00"> &#160;</text>
</g>
<!-- g3&#45;&#45;g5 -->
<g id="edge14" class="edge"><title>g3&#45;&#45;g5</title>
<path fill="none" stroke="black" d="M99.7983,-96.1982C103.837,-81.0123 109.201,-60.8435 113.233,-45.6835"/>
<text text-anchor="middle" x="114.988" y="-53.0284" font-family="Times New Roman,serif" font-size="10.00">tgt</text>
</g>
<!-- d8 -->
<g id="node9" class="node"><title>d8</title>
<text text-anchor="middle" x="27" y="-20.5" font-family="Times New Roman,serif" font-size="10.00" fill="red">destroy</text>
</g>
<!-- g3&#45;&#45;d8 -->
<g id="edge6" class="edge"><title>g3&#45;&#45;d8</title>
<path fill="none" stroke="red" stroke-dasharray="1,5" d="M78.4604,-96.1982C66.554,-79.4937 50.3501,-56.7599 39.3279,-41.2958"/>
</g>
<!-- allMatches_g4 -->
<g id="node5" class="node"><title>allMatches_g4</title>
<text text-anchor="middle" x="214" y="-20.5" font-family="Times New Roman,serif" font-size="10.00">allMatches</text>
</g>
<!-- g4&#45;&#45;allMatches_g4 -->
<g id="edge2" class="edge"><title>g4&#45;&#45;allMatches_g4</title>
<path fill="none" stroke="black" stroke-dasharray="1,5" d="M214,-82.4626C214,-68.3212 214,-52.7053 214,-41.1727"/>
</g>
<!-- g4&#45;&#45;g5 -->
<g id="edge18" class="edge"><title>g4&#45;&#45;g5</title>
<path fill="none" stroke="green" d="M178.085,-82.4626C165.579,-70.0889 151.933,-56.5863 140.909,-45.678"/>
<text text-anchor="middle" x="150.323" y="-46.5484" font-family="Times New Roman,serif" font-size="10.00" fill="green">src</text>
</g>
<!-- g6 -->
<g id="node7" class="node"><title>g6</title>
<polygon fill="deepskyblue" stroke="deepskyblue" points="270.5,-4.5 270.5,-41.5 347.5,-41.5 347.5,-4.5 270.5,-4.5"/>
<polygon fill="none" stroke="black" points="271,-24 271,-41 348,-41 348,-24 271,-24"/>
<text text-anchor="start" x="274.5" y="-30.5" font-family="Times New Roman,serif" font-size="10.00"> </text>
<text text-anchor="start" x="277.5" y="-30.5" font-family="Times New Roman,serif" font-size="10.00"> g6 :GenericObjectPO </text>
<polygon fill="none" stroke="black" points="271,-4 271,-24 348,-24 348,-4 271,-4"/>
<text text-anchor="start" x="307" y="-12" font-family="Times New Roman,serif" font-size="10.00"> &#160;</text>
</g>
<!-- g4&#45;&#45;g6 -->
<g id="edge16" class="edge"><title>g4&#45;&#45;g6</title>
<path fill="none" stroke="black" d="M249.915,-82.4626C262.421,-70.0889 276.067,-56.5863 287.091,-45.678"/>
<text text-anchor="middle" x="283.622" y="-52.5567" font-family="Times New Roman,serif" font-size="10.00">tgt</text>
</g>
</g>
</svg>
