<?xml version="1.0" encoding="UTF-8" standalone="no"?>
<!DOCTYPE svg PUBLIC "-//W3C//DTD SVG 1.1//EN"
 "http://www.w3.org/Graphics/SVG/1.1/DTD/svg11.dtd">
<!-- Generated by graphviz version 2.28.0 (20110507.0327)
 -->
<!-- Title: ObjectDiagram Pages: 1 -->
<svg width="435pt" height="342pt"
 viewBox="0.00 0.00 435.00 342.00" xmlns="http://www.w3.org/2000/svg" xmlns:xlink="http://www.w3.org/1999/xlink">
<g id="graph1" class="graph" transform="scale(1 1) rotate(0) translate(4 338)">
<title>ObjectDiagram</title>
<polygon fill="white" stroke="white" points="-4,5 -4,-338 432,-338 432,5 -4,5"/>
<!-- g1 -->
<g id="node1" class="node"><title>g1</title>
<polygon fill="deepskyblue" stroke="deepskyblue" points="204.5,-278.5 204.5,-329.5 295.5,-329.5 295.5,-278.5 204.5,-278.5"/>
<text text-anchor="start" x="262" y="-319.5" font-family="Arial" font-size="10.00">«bound»</text>
<polygon fill="none" stroke="black" points="205,-298 205,-314 296,-314 296,-298 205,-298"/>
<text text-anchor="start" x="208.5" y="-304" font-family="Arial" font-size="10.00"> </text>
<text text-anchor="start" x="212.5" y="-304" font-family="Arial" font-size="10.00"> g1 :GenericGraphPO </text>
<polygon fill="none" stroke="black" points="205,-278 205,-298 296,-298 296,-278 205,-278"/>
<text text-anchor="start" x="247" y="-286" font-family="Arial" font-size="10.00"> &#160;</text>
</g>
<!-- g2 -->
<g id="node2" class="node"><title>g2</title>
<polygon fill="deepskyblue" stroke="deepskyblue" points="157.5,-196.5 157.5,-233.5 342.5,-233.5 342.5,-196.5 157.5,-196.5"/>
<polygon fill="none" stroke="black" points="158,-216 158,-233 343,-233 343,-216 158,-216"/>
<text text-anchor="start" x="208" y="-222.5" font-family="Arial" font-size="10.00"> </text>
<text text-anchor="start" x="212" y="-222.5" font-family="Arial" font-size="10.00"> g2 :GenericObjectPO </text>
<polygon fill="none" stroke="black" points="158,-196 158,-216 343,-216 343,-196 158,-196"/>
<text text-anchor="start" x="163.5" y="-204" font-family="Arial" font-size="10.00"> type == &quot;org.sdmlib.examples.helloworld.Edge&quot; </text>
</g>
<!-- g1&#45;&#45;g2 -->
<g id="edge8" class="edge"><title>g1&#45;&#45;g2</title>
<path fill="none" stroke="black" d="M250,-274.03C250,-262.167 250,-248.675 250,-237.687"/>
<text text-anchor="middle" x="254.226" y="-244.25" font-family="Arial" font-size="10.00">objects</text>
</g>
<!-- g3 -->
<g id="node3" class="node"><title>g3</title>
<polygon fill="deepskyblue" stroke="deepskyblue" points="72.5,-100.5 72.5,-137.5 155.5,-137.5 155.5,-100.5 72.5,-100.5"/>
<polygon fill="none" stroke="black" points="73,-120 73,-137 156,-137 156,-120 73,-120"/>
<text text-anchor="start" x="76.5" y="-126.5" font-family="Arial" font-size="10.00"> </text>
<text text-anchor="start" x="80.5" y="-126.5" font-family="Arial" font-size="10.00"> g3 :GenericLinkPO </text>
<polygon fill="none" stroke="black" points="73,-100 73,-120 156,-120 156,-100 73,-100"/>
<text text-anchor="start" x="82" y="-108" font-family="Arial" font-size="10.00"> tgtLabel == &quot;src&quot; </text>
</g>
<!-- g2&#45;&#45;g3 -->
<g id="edge10" class="edge"><title>g2&#45;&#45;g3</title>
<path fill="none" stroke="black" d="M218.799,-192.435C196.841,-177.258 167.557,-157.017 145.527,-141.791"/>
<text text-anchor="middle" x="155.385" y="-140.967" font-family="Arial" font-size="10.00">outgoingLinks</text>
</g>
<!-- g4 -->
<g id="node4" class="node"><title>g4</title>
<polygon fill="deepskyblue" stroke="deepskyblue" points="190,-86.5 190,-151.5 310,-151.5 310,-86.5 190,-86.5"/>
<polygon fill="none" stroke="black" points="190,-134 190,-151 310,-151 310,-134 190,-134"/>
<text text-anchor="start" x="203.5" y="-140.5" font-family="Arial" font-size="10.00"> </text>
<text text-anchor="start" x="207.5" y="-140.5" font-family="Arial" font-size="10.00"> g4 :GenericLinkPO </text>
<polygon fill="none" stroke="black" points="190,-86 190,-134 310,-134 310,-86 190,-86"/>
<text text-anchor="start" x="211" y="-122" font-family="Arial" font-size="10.00"> tgtLabel == &quot;tgt&quot; </text>
<text text-anchor="start" x="195.5" y="-108" font-family="Arial" font-size="10.00" fill="green"> srcLabel := &quot;linksFrom&quot; </text>
<text text-anchor="start" x="203" y="-94" font-family="Arial" font-size="10.00" fill="green"> tgtLabel := &quot;linksTo&quot; </text>
</g>
<!-- g2&#45;&#45;g4 -->
<g id="edge12" class="edge"><title>g2&#45;&#45;g4</title>
<path fill="none" stroke="black" d="M250,-192.198C250,-181.351 250,-167.962 250,-155.671"/>
<text text-anchor="middle" x="254.226" y="-162.234" font-family="Arial" font-size="10.00">outgoingLinks</text>
</g>
<!-- d7 -->
<g id="node8" class="node"><title>d7</title>
<text text-anchor="middle" x="363" y="-116.5" font-family="Arial" font-size="10.00" fill="red">destroy</text>
</g>
<!-- g2&#45;&#45;d7 -->
<g id="edge4" class="edge"><title>g2&#45;&#45;d7</title>
<path fill="none" stroke="red" stroke-dasharray="1,5" d="M280.751,-192.36C295.163,-181.838 312.347,-168.735 327,-156 333.671,-150.202 340.624,-143.44 346.62,-137.353"/>
</g>
<!-- g5 -->
<g id="node6" class="node"><title>g5</title>
<polygon fill="deepskyblue" stroke="deepskyblue" points="80.5,-4.5 80.5,-41.5 191.5,-41.5 191.5,-4.5 80.5,-4.5"/>
<polygon fill="none" stroke="black" points="81,-24 81,-41 192,-41 192,-24 81,-24"/>
<text text-anchor="start" x="84.5" y="-30.5" font-family="Arial" font-size="10.00"> </text>
<text text-anchor="start" x="88.5" y="-30.5" font-family="Arial" font-size="10.00"> g5 :GenericObjectPO </text>
<polygon fill="none" stroke="black" points="81,-4 81,-24 192,-24 192,-4 81,-4"/>
<text text-anchor="start" x="133" y="-12" font-family="Arial" font-size="10.00"> &#160;</text>
</g>
<!-- g3&#45;&#45;g5 -->
<g id="edge14" class="edge"><title>g3&#45;&#45;g5</title>
<path fill="none" stroke="black" d="M119.103,-96.1982C122.657,-81.0123 127.377,-60.8435 130.925,-45.6835"/>
<text text-anchor="middle" x="132.975" y="-52.9712" font-family="Arial" font-size="10.00">tgt</text>
</g>
<!-- d8 -->
<g id="node9" class="node"><title>d8</title>
<text text-anchor="middle" x="27" y="-20.5" font-family="Arial" font-size="10.00" fill="red">destroy</text>
</g>
<!-- g3&#45;&#45;d8 -->
<g id="edge6" class="edge"><title>g3&#45;&#45;d8</title>
<path fill="none" stroke="red" stroke-dasharray="1,5" d="M93.8218,-96.1982C78.3612,-79.4937 57.3203,-56.7599 43.0078,-41.2958"/>
</g>
<!-- allMatches_g4 -->
<g id="node5" class="node"><title>allMatches_g4</title>
<text text-anchor="middle" x="250" y="-20.5" font-family="Arial" font-size="10.00">allMatches</text>
</g>
<!-- g4&#45;&#45;allMatches_g4 -->
<g id="edge2" class="edge"><title>g4&#45;&#45;allMatches_g4</title>
<path fill="none" stroke="black" stroke-dasharray="1,5" d="M250,-82.4626C250,-68.3212 250,-52.7053 250,-41.1727"/>
</g>
<!-- g4&#45;&#45;g5 -->
<g id="edge18" class="edge"><title>g4&#45;&#45;g5</title>
<path fill="none" stroke="green" d="M206.901,-82.4626C191.895,-70.0889 175.52,-56.5863 162.29,-45.678"/>
<text text-anchor="middle" x="171.971" y="-45.6831" font-family="Arial" font-size="10.00" fill="green">src</text>
</g>
<!-- g6 -->
<g id="node7" class="node"><title>g6</title>
<polygon fill="deepskyblue" stroke="deepskyblue" points="308.5,-4.5 308.5,-41.5 419.5,-41.5 419.5,-4.5 308.5,-4.5"/>
<polygon fill="none" stroke="black" points="309,-24 309,-41 420,-41 420,-24 309,-24"/>
<text text-anchor="start" x="312.5" y="-30.5" font-family="Arial" font-size="10.00"> </text>
<text text-anchor="start" x="316.5" y="-30.5" font-family="Arial" font-size="10.00"> g6 :GenericObjectPO </text>
<polygon fill="none" stroke="black" points="309,-4 309,-24 420,-24 420,-4 309,-4"/>
<text text-anchor="start" x="361" y="-12" font-family="Arial" font-size="10.00"> &#160;</text>
</g>
<!-- g4&#45;&#45;g6 -->
<g id="edge16" class="edge"><title>g4&#45;&#45;g6</title>
<path fill="none" stroke="black" d="M293.099,-82.4626C308.105,-70.0889 324.48,-56.5863 337.71,-45.678"/>
<text text-anchor="middle" x="333.406" y="-52.2044" font-family="Arial" font-size="10.00">tgt</text>
</g>
</g>
</svg>
