<?xml version="1.0" encoding="UTF-8" standalone="no"?>
<!DOCTYPE svg PUBLIC "-//W3C//DTD SVG 1.1//EN"
 "http://www.w3.org/Graphics/SVG/1.1/DTD/svg11.dtd">
<!-- Generated by graphviz version 2.28.0 (20110507.0327)
 -->
<!-- Title: ObjectDiagram Pages: 1 -->
<svg width="142pt" height="290pt"
 viewBox="0.00 0.00 141.76 290.00" xmlns="http://www.w3.org/2000/svg" xmlns:xlink="http://www.w3.org/1999/xlink">
<g id="graph1" class="graph" transform="scale(1 1) rotate(0) translate(4 286)">
<title>ObjectDiagram</title>
<polygon fill="white" stroke="white" points="-4,5 -4,-286 138.755,-286 138.755,5 -4,5"/>
<!-- s5 -->
<g id="node1" class="node"><title>s5</title>
<a xlink:href="../test/org/sdmlib/models/patterns/example/SimpleState.java" xlink:title="&lt;TABLE&gt;">
<polygon fill="none" stroke="black" points="43,-255 43,-272 124,-272 124,-255 43,-255"/>
<text text-anchor="start" x="46.5" y="-261.5" font-family="Arial" font-size="10.00"> </text>
<text text-anchor="start" x="50.5" y="-261.5" font-family="Arial" font-size="10.00">s5 :SimpleState</text>
</a>
</g>
<!-- n6 -->
<g id="node2" class="node"><title>n6</title>
<a xlink:href="../test/org/sdmlib/models/patterns/example/Node.java" xlink:title="&lt;TABLE&gt;">
<polygon fill="none" stroke="black" points="57,-188 57,-205 110,-205 110,-188 57,-188"/>
<text text-anchor="start" x="61.5" y="-194.5" font-family="Arial" font-size="10.00"> </text>
<text text-anchor="start" x="65.5" y="-194.5" font-family="Arial" font-size="10.00">n6 :Node</text>
</a>
<polygon fill="none" stroke="black" points="57,-168 57,-188 110,-188 110,-168 57,-168"/>
<text text-anchor="start" x="62" y="-176" font-family="Arial" font-size="10.00">num = 42</text>
</g>
<!-- s5&#45;&#45;n6 -->
<g id="edge2" class="edge"><title>s5&#45;&#45;n6</title>
<path fill="none" stroke="black" d="M83,-245.981C83,-235.177 83,-221.1 83,-209.522"/>
<text text-anchor="middle" x="87.2262" y="-216.085" font-family="Arial" font-size="10.00">nodes</text>
<text text-anchor="middle" x="78.7738" y="-234.418" font-family="Arial" font-size="10.00">graph</text>
</g>
<!-- n7 -->
<g id="node3" class="node"><title>n7</title>
<a xlink:href="../test/org/sdmlib/models/patterns/example/Node.java" xlink:title="&lt;TABLE&gt;">
<polygon fill="none" stroke="black" points="8,-106 8,-123 59,-123 59,-106 8,-106"/>
<text text-anchor="start" x="11.5" y="-112.5" font-family="Arial" font-size="10.00"> </text>
<text text-anchor="start" x="15.5" y="-112.5" font-family="Arial" font-size="10.00">n7 :Node</text>
</a>
<polygon fill="none" stroke="black" points="8,-86 8,-106 59,-106 59,-86 8,-86"/>
<text text-anchor="start" x="13" y="-94" font-family="Arial" font-size="10.00">num = 0</text>
</g>
<!-- s5&#45;&#45;n7 -->
<g id="edge4" class="edge"><title>s5&#45;&#45;n7</title>
<path fill="none" stroke="black" d="M63.8496,-245.796C54.5909,-236.248 44.3474,-223.575 39,-210 28.3944,-183.077 28.702,-149.182 30.4242,-127.548"/>
<text text-anchor="middle" x="34.0262" y="-134.377" font-family="Arial" font-size="10.00">nodes</text>
<text text-anchor="middle" x="54.5479" y="-239.625" font-family="Arial" font-size="10.00">graph</text>
</g>
<!-- n8 -->
<g id="node4" class="node"><title>n8</title>
<a xlink:href="../test/org/sdmlib/models/patterns/example/Node.java" xlink:title="&lt;TABLE&gt;">
<polygon fill="none" stroke="black" points="70,-24 70,-41 121,-41 121,-24 70,-24"/>
<text text-anchor="start" x="73.5" y="-30.5" font-family="Arial" font-size="10.00"> </text>
<text text-anchor="start" x="77.5" y="-30.5" font-family="Arial" font-size="10.00">n8 :Node</text>
</a>
<polygon fill="none" stroke="black" points="70,-4 70,-24 121,-24 121,-4 70,-4"/>
<text text-anchor="start" x="75" y="-12" font-family="Arial" font-size="10.00">num = 0</text>
</g>
<!-- s5&#45;&#45;n8 -->
<g id="edge6" class="edge"><title>s5&#45;&#45;n8</title>
<path fill="none" stroke="black" d="M102.039,-245.837C111.176,-236.3 121.168,-223.624 126,-210 146.298,-152.765 120.903,-80.8153 105.376,-45.5272"/>
<text text-anchor="middle" x="112.788" y="-49.7403" font-family="Arial" font-size="10.00">nodes</text>
<text text-anchor="middle" x="105.141" y="-233.83" font-family="Arial" font-size="10.00">graph</text>
</g>
<!-- n6&#45;&#45;n7 -->
<g id="edge8" class="edge"><title>n6&#45;&#45;n7</title>
<path fill="none" stroke="black" d="M69.3373,-164.14C62.2244,-152.759 53.5581,-138.893 46.4731,-127.557"/>
<text text-anchor="middle" x="54.8603" y="-130.503" font-family="Arial" font-size="10.00">next</text>
<text text-anchor="middle" x="60.9501" y="-156.194" font-family="Arial" font-size="10.00">prev</text>
</g>
<!-- n6&#45;&#45;n8 -->
<g id="edge10" class="edge"><title>n6&#45;&#45;n8</title>
<path fill="none" stroke="black" d="M84.5935,-164.488C86.8887,-133.503 91.1011,-76.6355 93.3999,-45.6013"/>
<text text-anchor="middle" x="96.945" y="-52.4518" font-family="Arial" font-size="10.00">prev</text>
<text text-anchor="middle" x="81.0484" y="-152.637" font-family="Arial" font-size="10.00">next</text>
</g>
<!-- n7&#45;&#45;n8 -->
<g id="edge12" class="edge"><title>n7&#45;&#45;n8</title>
<path fill="none" stroke="black" d="M49.9418,-82.1396C58.7618,-70.759 69.508,-56.8929 78.2934,-45.5569"/>
<text text-anchor="middle" x="76.082" y="-52.8094" font-family="Arial" font-size="10.00">next</text>
<text text-anchor="middle" x="52.1531" y="-69.8872" font-family="Arial" font-size="10.00">prev</text>
</g>
</g>
</svg>
