<?xml version="1.0" encoding="UTF-8" standalone="no"?>
<!DOCTYPE svg PUBLIC "-//W3C//DTD SVG 1.1//EN"
 "http://www.w3.org/Graphics/SVG/1.1/DTD/svg11.dtd">
<!-- Generated by graphviz version 2.28.0 (20110507.0327)
 -->
<!-- Title: ObjectDiagram Pages: 1 -->
<svg width="205pt" height="246pt"
 viewBox="0.00 0.00 205.00 246.00" xmlns="http://www.w3.org/2000/svg" xmlns:xlink="http://www.w3.org/1999/xlink">
<g id="graph1" class="graph" transform="scale(1 1) rotate(0) translate(4 242)">
<title>ObjectDiagram</title>
<polygon fill="white" stroke="white" points="-4,5 -4,-242 202,-242 202,5 -4,5"/>
<!-- g1 -->
<g id="node1" class="node"><title>g1</title>
<polygon fill="deepskyblue" stroke="deepskyblue" points="7.5,-86.5 7.5,-137.5 82.5,-137.5 82.5,-86.5 7.5,-86.5"/>
<text text-anchor="start" x="44" y="-127.5" font-family="Arial" font-size="10.00">«bound»</text>
<polygon fill="none" stroke="black" points="8,-106 8,-122 83,-122 83,-106 8,-106"/>
<text text-anchor="start" x="11.5" y="-112" font-family="Arial" font-size="10.00"> </text>
<text text-anchor="start" x="15.5" y="-112" font-family="Arial" font-size="10.00"> g1 :GraphPO </text>
<polygon fill="none" stroke="black" points="8,-86 8,-106 83,-106 83,-86 8,-86"/>
<text text-anchor="start" x="42" y="-94" font-family="Arial" font-size="10.00"> &#160;</text>
</g>
<!-- n2 -->
<g id="node2" class="node"><title>n2</title>
<polygon fill="deepskyblue" stroke="deepskyblue" points="62.5,-4.5 62.5,-41.5 133.5,-41.5 133.5,-4.5 62.5,-4.5"/>
<polygon fill="none" stroke="black" points="63,-24 63,-41 134,-41 134,-24 63,-24"/>
<text text-anchor="start" x="66.5" y="-30.5" font-family="Arial" font-size="10.00"> </text>
<text text-anchor="start" x="70.5" y="-30.5" font-family="Arial" font-size="10.00"> n2 :NodePO </text>
<polygon fill="none" stroke="black" points="63,-4 63,-24 134,-24 134,-4 63,-4"/>
<text text-anchor="start" x="95" y="-12" font-family="Arial" font-size="10.00"> &#160;</text>
</g>
<!-- g1&#45;&#45;n2 -->
<g id="edge2" class="edge"><title>g1&#45;&#45;n2</title>
<path fill="none" stroke="black" d="M62.6482,-82.0303C69.8753,-70.167 78.0947,-56.6747 84.7882,-45.6874"/>
<text text-anchor="middle" x="83.6822" y="-53.126" font-family="Arial" font-size="10.00">nodes</text>
</g>
<!-- g3 -->
<g id="node3" class="node"><title>g3</title>
<polygon fill="deepskyblue" stroke="deepskyblue" points="114.5,-182.5 114.5,-233.5 189.5,-233.5 189.5,-182.5 114.5,-182.5"/>
<text text-anchor="start" x="151" y="-223.5" font-family="Arial" font-size="10.00">«bound»</text>
<polygon fill="none" stroke="black" points="115,-202 115,-218 190,-218 190,-202 115,-202"/>
<text text-anchor="start" x="118.5" y="-208" font-family="Arial" font-size="10.00"> </text>
<text text-anchor="start" x="122.5" y="-208" font-family="Arial" font-size="10.00"> g3 :GraphPO </text>
<polygon fill="none" stroke="black" points="115,-182 115,-202 190,-202 190,-182 115,-182"/>
<text text-anchor="start" x="149" y="-190" font-family="Arial" font-size="10.00"> &#160;</text>
</g>
<!-- n4 -->
<g id="node4" class="node"><title>n4</title>
<polygon fill="deepskyblue" stroke="deepskyblue" points="116.5,-86.5 116.5,-137.5 187.5,-137.5 187.5,-86.5 116.5,-86.5"/>
<text text-anchor="start" x="148" y="-127.5" font-family="Arial" font-size="10.00" fill="green">«create»</text>
<polygon fill="none" stroke="green" points="117,-106 117,-122 188,-122 188,-106 117,-106"/>
<text text-anchor="start" x="120.5" y="-112" font-family="Arial" font-size="10.00"> </text>
<text text-anchor="start" x="124.5" y="-112" font-family="Arial" font-size="10.00" fill="green"> n4 :NodePO </text>
<polygon fill="none" stroke="green" points="117,-86 117,-106 188,-106 188,-86 117,-86"/>
<text text-anchor="start" x="149" y="-94" font-family="Arial" font-size="10.00"> &#160;</text>
</g>
<!-- g3&#45;&#45;n4 -->
<g id="edge4" class="edge"><title>g3&#45;&#45;n4</title>
<path fill="none" stroke="green" d="M152,-178.286C152,-166.624 152,-153.182 152,-141.538"/>
<text text-anchor="middle" x="156.226" y="-148.101" font-family="Arial" font-size="10.00" fill="green">gcs</text>
</g>
<!-- n4&#45;&#45;n2 -->
<g id="edge6" class="edge"><title>n4&#45;&#45;n2</title>
<path fill="none" stroke="green" d="M134.019,-82.0303C126.655,-70.167 118.281,-56.6747 111.461,-45.6874"/>
<text text-anchor="middle" x="119.831" y="-48.659" font-family="Arial" font-size="10.00" fill="green">orig</text>
</g>
</g>
</svg>
