<?xml version="1.0" encoding="UTF-8" standalone="no"?>
<!DOCTYPE svg PUBLIC "-//W3C//DTD SVG 1.1//EN"
 "http://www.w3.org/Graphics/SVG/1.1/DTD/svg11.dtd">
<!-- Generated by graphviz version 2.28.0 (20110507.0327)
 -->
<!-- Title: ObjectDiagram Pages: 1 -->
<svg width="165pt" height="246pt"
 viewBox="0.00 0.00 165.00 246.00" xmlns="http://www.w3.org/2000/svg" xmlns:xlink="http://www.w3.org/1999/xlink">
<g id="graph1" class="graph" transform="scale(1 1) rotate(0) translate(4 242)">
<title>ObjectDiagram</title>
<polygon fill="white" stroke="white" points="-4,5 -4,-242 162,-242 162,5 -4,5"/>
<!-- e1 -->
<g id="node1" class="node"><title>e1</title>
<polygon fill="deepskyblue" stroke="deepskyblue" points="9,-182.5 9,-233.5 65,-233.5 65,-182.5 9,-182.5"/>
<text text-anchor="start" x="33" y="-223.5" font-family="Times New Roman,serif" font-size="10.00">«bound»</text>
<polygon fill="none" stroke="black" points="9,-202 9,-218 65,-218 65,-202 9,-202"/>
<text text-anchor="start" x="12.5" y="-208" font-family="Times New Roman,serif" font-size="10.00"> </text>
<text text-anchor="start" x="15.5" y="-208" font-family="Times New Roman,serif" font-size="10.00"> e1 :EdgePO </text>
<polygon fill="none" stroke="black" points="9,-182 9,-202 65,-202 65,-182 9,-182"/>
<text text-anchor="start" x="34.5" y="-190" font-family="Times New Roman,serif" font-size="10.00"> &#160;</text>
</g>
<!-- n2 -->
<g id="node2" class="node"><title>n2</title>
<polygon fill="deepskyblue" stroke="deepskyblue" points="8,-93.5 8,-130.5 66,-130.5 66,-93.5 8,-93.5"/>
<polygon fill="none" stroke="black" points="8,-113 8,-130 66,-130 66,-113 8,-113"/>
<text text-anchor="start" x="11.5" y="-119.5" font-family="Times New Roman,serif" font-size="10.00"> </text>
<text text-anchor="start" x="14.5" y="-119.5" font-family="Times New Roman,serif" font-size="10.00"> n2 :NodePO </text>
<polygon fill="none" stroke="black" points="8,-93 8,-113 66,-113 66,-93 8,-93"/>
<text text-anchor="start" x="34.5" y="-101" font-family="Times New Roman,serif" font-size="10.00"> &#160;</text>
</g>
<!-- e1&#45;&#45;n2 -->
<g id="edge2" class="edge"><title>e1&#45;&#45;n2</title>
<path fill="none" stroke="black" d="M37,-178.286C37,-164.248 37,-147.632 37,-134.676"/>
<text text-anchor="middle" x="41.2262" y="-141.239" font-family="Times New Roman,serif" font-size="10.00">src</text>
</g>
<!-- n3 -->
<g id="node3" class="node"><title>n3</title>
<polygon fill="deepskyblue" stroke="deepskyblue" points="49.5,-4.5 49.5,-41.5 112.5,-41.5 112.5,-4.5 49.5,-4.5"/>
<polygon fill="none" stroke="black" points="50,-24 50,-41 113,-41 113,-24 50,-24"/>
<text text-anchor="start" x="53.5" y="-30.5" font-family="Times New Roman,serif" font-size="10.00"> </text>
<text text-anchor="start" x="56.5" y="-30.5" font-family="Times New Roman,serif" font-size="10.00"> n3 :NodePO </text>
<polygon fill="none" stroke="black" points="50,-4 50,-24 113,-24 113,-4 50,-4"/>
<text text-anchor="start" x="79" y="-12" font-family="Times New Roman,serif" font-size="10.00"> &#160;</text>
</g>
<!-- n2&#45;&#45;n3 -->
<g id="edge4" class="edge"><title>n2&#45;&#45;n3</title>
<path fill="none" stroke="black" d="M47.8764,-89.4944C54.6457,-76.1096 63.3218,-58.9547 70.0962,-45.5597"/>
<text text-anchor="middle" x="69.7773" y="-53.0547" font-family="Times New Roman,serif" font-size="10.00">copy</text>
</g>
<!-- e4 -->
<g id="node4" class="node"><title>e4</title>
<polygon fill="deepskyblue" stroke="deepskyblue" points="100.5,-86.5 100.5,-137.5 149.5,-137.5 149.5,-86.5 100.5,-86.5"/>
<text text-anchor="start" x="120" y="-127.5" font-family="Times New Roman,serif" font-size="10.00">«bound»</text>
<polygon fill="none" stroke="black" points="101,-106 101,-122 150,-122 150,-106 101,-106"/>
<text text-anchor="start" x="104.5" y="-112" font-family="Times New Roman,serif" font-size="10.00"> </text>
<text text-anchor="start" x="107.5" y="-112" font-family="Times New Roman,serif" font-size="10.00"> e4 :EdgePO </text>
<polygon fill="none" stroke="black" points="101,-86 101,-106 150,-106 150,-86 101,-86"/>
<text text-anchor="start" x="123" y="-94" font-family="Times New Roman,serif" font-size="10.00"> &#160;</text>
</g>
<!-- e4&#45;&#45;n3 -->
<g id="edge6" class="edge"><title>e4&#45;&#45;n3</title>
<path fill="none" stroke="green" d="M110.349,-82.0303C104.349,-70.167 97.5251,-56.6747 91.9683,-45.6874"/>
<text text-anchor="middle" x="99.8299" y="-49.3676" font-family="Times New Roman,serif" font-size="10.00" fill="green">src</text>
</g>
</g>
</svg>
