<?xml version="1.0" encoding="UTF-8" standalone="no"?>
<!DOCTYPE svg PUBLIC "-//W3C//DTD SVG 1.1//EN"
 "http://www.w3.org/Graphics/SVG/1.1/DTD/svg11.dtd">
<!-- Generated by graphviz version 2.28.0 (20110507.0327)
 -->
<!-- Title: ObjectDiagram Pages: 1 -->
<svg width="122pt" height="246pt"
 viewBox="0.00 0.00 122.00 246.00" xmlns="http://www.w3.org/2000/svg" xmlns:xlink="http://www.w3.org/1999/xlink">
<g id="graph1" class="graph" transform="scale(1 1) rotate(0) translate(4 242)">
<title>ObjectDiagram</title>
<polygon fill="white" stroke="white" points="-4,5 -4,-242 119,-242 119,5 -4,5"/>
<!-- g1 -->
<g id="node1" class="node"><title>g1</title>
<polygon fill="deepskyblue" stroke="deepskyblue" points="9.5,-182.5 9.5,-233.5 104.5,-233.5 104.5,-182.5 9.5,-182.5"/>
<text text-anchor="start" x="66" y="-223.5" font-family="Times New Roman,serif" font-size="10.00">«bound»</text>
<polygon fill="none" stroke="black" points="10,-202 10,-218 105,-218 105,-202 10,-202"/>
<text text-anchor="start" x="13.5" y="-208" font-family="Times New Roman,serif" font-size="10.00"> </text>
<text text-anchor="start" x="16.5" y="-208" font-family="Times New Roman,serif" font-size="10.00"> g1 :GenericGraphPO </text>
<polygon fill="none" stroke="black" points="10,-182 10,-202 105,-202 105,-182 10,-182"/>
<text text-anchor="start" x="55" y="-190" font-family="Times New Roman,serif" font-size="10.00"> &#160;</text>
</g>
<!-- g2 -->
<g id="node2" class="node"><title>g2</title>
<polygon fill="deepskyblue" stroke="deepskyblue" points="8,-100.5 8,-137.5 106,-137.5 106,-100.5 8,-100.5"/>
<polygon fill="none" stroke="black" points="8,-120 8,-137 106,-137 106,-120 8,-120"/>
<text text-anchor="start" x="11.5" y="-126.5" font-family="Times New Roman,serif" font-size="10.00"> </text>
<text text-anchor="start" x="14.5" y="-126.5" font-family="Times New Roman,serif" font-size="10.00"> g2 :GenericObjectPO </text>
<polygon fill="none" stroke="black" points="8,-100 8,-120 106,-120 106,-100 8,-100"/>
<text text-anchor="start" x="54.5" y="-108" font-family="Times New Roman,serif" font-size="10.00"> &#160;</text>
</g>
<!-- g1&#45;&#45;g2 -->
<g id="edge2" class="edge"><title>g1&#45;&#45;g2</title>
<path fill="none" stroke="black" d="M57,-178.03C57,-166.167 57,-152.675 57,-141.687"/>
<text text-anchor="middle" x="61.2262" y="-148.25" font-family="Times New Roman,serif" font-size="10.00">objects</text>
</g>
<!-- g3 -->
<g id="node3" class="node"><title>g3</title>
<polygon fill="deepskyblue" stroke="deepskyblue" points="8.5,-4.5 8.5,-55.5 105.5,-55.5 105.5,-4.5 8.5,-4.5"/>
<polygon fill="none" stroke="black" points="9,-38 9,-55 106,-55 106,-38 9,-38"/>
<text text-anchor="start" x="12.5" y="-44.5" font-family="Times New Roman,serif" font-size="10.00"> </text>
<text text-anchor="start" x="15.5" y="-44.5" font-family="Times New Roman,serif" font-size="10.00"> g3 :GenericAttributePO </text>
<polygon fill="none" stroke="black" points="9,-4 9,-38 106,-38 106,-4 9,-4"/>
<text text-anchor="start" x="25.5" y="-26" font-family="Times New Roman,serif" font-size="10.00"> name == &quot;name&quot; </text>
<text text-anchor="start" x="29" y="-12" font-family="Times New Roman,serif" font-size="10.00" fill="green"> name := &quot;text&quot; </text>
</g>
<!-- g2&#45;&#45;g3 -->
<g id="edge4" class="edge"><title>g2&#45;&#45;g3</title>
<path fill="none" stroke="black" d="M57,-96.4944C57,-85.4243 57,-71.7752 57,-59.8074"/>
<text text-anchor="middle" x="61.2262" y="-66.3705" font-family="Times New Roman,serif" font-size="10.00">attrs</text>
</g>
</g>
</svg>
