<?xml version="1.0" encoding="UTF-8" standalone="no"?>
<!DOCTYPE svg PUBLIC "-//W3C//DTD SVG 1.1//EN"
 "http://www.w3.org/Graphics/SVG/1.1/DTD/svg11.dtd">
<!-- Generated by graphviz version 2.28.0 (20110507.0327)
 -->
<!-- Title: ObjectDiagram Pages: 1 -->
<svg width="204pt" height="222pt"
 viewBox="0.00 0.00 204.00 222.00" xmlns="http://www.w3.org/2000/svg" xmlns:xlink="http://www.w3.org/1999/xlink">
<g id="graph1" class="graph" transform="scale(1 1) rotate(0) translate(4 218)">
<title>ObjectDiagram</title>
<polygon fill="white" stroke="white" points="-4,5 -4,-218 201,-218 201,5 -4,5"/>
<!-- g1 -->
<g id="node1" class="node"><title>g1</title>
<polygon fill="deepskyblue" stroke="deepskyblue" points="50.5,-158.5 50.5,-209.5 145.5,-209.5 145.5,-158.5 50.5,-158.5"/>
<text text-anchor="start" x="107" y="-199.5" font-family="Times New Roman,serif" font-size="10.00">«bound»</text>
<polygon fill="none" stroke="black" points="51,-178 51,-194 146,-194 146,-178 51,-178"/>
<text text-anchor="start" x="54.5" y="-184" font-family="Times New Roman,serif" font-size="10.00"> </text>
<text text-anchor="start" x="57.5" y="-184" font-family="Times New Roman,serif" font-size="10.00"> g1 :GenericGraphPO </text>
<polygon fill="none" stroke="black" points="51,-158 51,-178 146,-178 146,-158 51,-158"/>
<text text-anchor="start" x="96" y="-166" font-family="Times New Roman,serif" font-size="10.00"> &#160;</text>
</g>
<!-- g2 -->
<g id="node2" class="node"><title>g2</title>
<polygon fill="deepskyblue" stroke="deepskyblue" points="8,-76.5 8,-113.5 188,-113.5 188,-76.5 8,-76.5"/>
<polygon fill="none" stroke="black" points="8,-96 8,-113 188,-113 188,-96 8,-96"/>
<text text-anchor="start" x="57.5" y="-102.5" font-family="Times New Roman,serif" font-size="10.00"> </text>
<text text-anchor="start" x="60.5" y="-102.5" font-family="Times New Roman,serif" font-size="10.00"> g2 :GenericObjectPO </text>
<polygon fill="none" stroke="black" points="8,-76 8,-96 188,-96 188,-76 8,-76"/>
<text text-anchor="start" x="13.5" y="-84" font-family="Times New Roman,serif" font-size="10.00"> type == &quot;org.sdmlib.examples.helloworld.Edge&quot; </text>
</g>
<!-- g1&#45;&#45;g2 -->
<g id="edge6" class="edge"><title>g1&#45;&#45;g2</title>
<path fill="none" stroke="black" d="M98,-154.03C98,-142.167 98,-128.675 98,-117.687"/>
<text text-anchor="middle" x="102.226" y="-124.25" font-family="Times New Roman,serif" font-size="10.00">objects</text>
</g>
<!-- allMatches_g2 -->
<g id="node3" class="node"><title>allMatches_g2</title>
<text text-anchor="middle" x="60" y="-15.5" font-family="Times New Roman,serif" font-size="10.00">allMatches</text>
</g>
<!-- g2&#45;&#45;allMatches_g2 -->
<g id="edge2" class="edge"><title>g2&#45;&#45;allMatches_g2</title>
<path fill="none" stroke="black" stroke-dasharray="1,5" d="M87.0088,-72.3069C81.222,-60.8856 74.2221,-47.0699 68.7985,-36.3655"/>
</g>
<!-- d3 -->
<g id="node4" class="node"><title>d3</title>
<text text-anchor="middle" x="136" y="-15.5" font-family="Times New Roman,serif" font-size="10.00" fill="red">destroy</text>
</g>
<!-- g2&#45;&#45;d3 -->
<g id="edge4" class="edge"><title>g2&#45;&#45;d3</title>
<path fill="none" stroke="red" stroke-dasharray="1,5" d="M108.991,-72.3069C114.778,-60.8856 121.778,-47.0699 127.201,-36.3655"/>
</g>
</g>
</svg>
