<?xml version="1.0" encoding="UTF-8" standalone="no"?>
<!DOCTYPE svg PUBLIC "-//W3C//DTD SVG 1.1//EN"
 "http://www.w3.org/Graphics/SVG/1.1/DTD/svg11.dtd">
<!-- Generated by graphviz version 2.28.0 (20110507.0327)
 -->
<!-- Title: ObjectDiagram Pages: 1 -->
<svg width="120pt" height="246pt"
 viewBox="0.00 0.00 120.00 246.00" xmlns="http://www.w3.org/2000/svg" xmlns:xlink="http://www.w3.org/1999/xlink">
<g id="graph1" class="graph" transform="scale(1 1) rotate(0) translate(4 242)">
<title>ObjectDiagram</title>
<polygon fill="white" stroke="white" points="-4,5 -4,-242 117,-242 117,5 -4,5"/>
<!-- g1 -->
<g id="node1" class="node"><title>g1</title>
<polygon fill="aliceblue" stroke="aliceblue" points="13,-182.5 13,-233.5 99,-233.5 99,-182.5 13,-182.5"/>
<text text-anchor="start" x="67" y="-223.5" font-family="Times New Roman,serif" font-size="10.00">«bound»</text>
<polygon fill="none" stroke="black" points="13,-202 13,-218 99,-218 99,-202 13,-202"/>
<text text-anchor="start" x="16.5" y="-208" font-family="Times New Roman,serif" font-size="10.00"> </text>
<text text-anchor="start" x="19.5" y="-208" font-family="Times New Roman,serif" font-size="10.00"> g1 :GenericGraphPO </text>
<polygon fill="none" stroke="black" points="13,-182 13,-202 99,-202 99,-182 13,-182"/>
<text text-anchor="start" x="53.5" y="-190" font-family="Times New Roman,serif" font-size="10.00"> &#160;</text>
</g>
<!-- g2 -->
<g id="node2" class="node"><title>g2</title>
<polygon fill="aliceblue" stroke="aliceblue" points="12,-100.5 12,-137.5 100,-137.5 100,-100.5 12,-100.5"/>
<polygon fill="none" stroke="black" points="12,-120 12,-137 100,-137 100,-120 12,-120"/>
<text text-anchor="start" x="15.5" y="-126.5" font-family="Times New Roman,serif" font-size="10.00"> </text>
<text text-anchor="start" x="18.5" y="-126.5" font-family="Times New Roman,serif" font-size="10.00"> g2 :GenericObjectPO </text>
<polygon fill="none" stroke="black" points="12,-100 12,-120 100,-120 100,-100 12,-100"/>
<text text-anchor="start" x="53.5" y="-108" font-family="Times New Roman,serif" font-size="10.00"> &#160;</text>
</g>
<!-- g1&#45;&#45;g2 -->
<g id="edge2" class="edge"><title>g1&#45;&#45;g2</title>
<path fill="none" stroke="black" d="M56,-178.03C56,-166.167 56,-152.675 56,-141.687"/>
<text text-anchor="middle" x="60.2262" y="-148.25" font-family="Times New Roman,serif" font-size="10.00">objects</text>
</g>
<!-- g3 -->
<g id="node3" class="node"><title>g3</title>
<polygon fill="aliceblue" stroke="aliceblue" points="7.5,-4.5 7.5,-55.5 104.5,-55.5 104.5,-4.5 7.5,-4.5"/>
<polygon fill="none" stroke="black" points="8,-38 8,-55 105,-55 105,-38 8,-38"/>
<text text-anchor="start" x="11.5" y="-44.5" font-family="Times New Roman,serif" font-size="10.00"> </text>
<text text-anchor="start" x="14.5" y="-44.5" font-family="Times New Roman,serif" font-size="10.00"> g3 :GenericAttributePO </text>
<polygon fill="none" stroke="black" points="8,-4 8,-38 105,-38 105,-4 8,-4"/>
<text text-anchor="start" x="28.5" y="-26" font-family="Times New Roman,serif" font-size="10.00"> name == name </text>
<text text-anchor="start" x="32" y="-12" font-family="Times New Roman,serif" font-size="10.00" fill="green"> name := text </text>
</g>
<!-- g2&#45;&#45;g3 -->
<g id="edge4" class="edge"><title>g2&#45;&#45;g3</title>
<path fill="none" stroke="black" d="M56,-96.4944C56,-85.4243 56,-71.7752 56,-59.8074"/>
<text text-anchor="middle" x="60.2262" y="-66.3705" font-family="Times New Roman,serif" font-size="10.00">attrs</text>
</g>
</g>
</svg>
