<?xml version="1.0" encoding="UTF-8" standalone="no"?>
<!DOCTYPE svg PUBLIC "-//W3C//DTD SVG 1.1//EN"
 "http://www.w3.org/Graphics/SVG/1.1/DTD/svg11.dtd">
<!-- Generated by graphviz version 2.28.0 (20110507.0327)
 -->
<!-- Title: ObjectDiagram Pages: 1 -->
<svg width="141pt" height="290pt"
 viewBox="0.00 0.00 140.69 290.00" xmlns="http://www.w3.org/2000/svg" xmlns:xlink="http://www.w3.org/1999/xlink">
<g id="graph1" class="graph" transform="scale(1 1) rotate(0) translate(4 286)">
<title>ObjectDiagram</title>
<polygon fill="white" stroke="white" points="-4,5 -4,-286 137.689,-286 137.689,5 -4,5"/>
<!-- s1 -->
<g id="node1" class="node"><title>s1</title>
<a xlink:href="../test/org/sdmlib/models/patterns/example/SimpleState.java" xlink:title="&lt;TABLE&gt;">
<polygon fill="none" stroke="black" points="43,-255 43,-272 124,-272 124,-255 43,-255"/>
<text text-anchor="start" x="46.5" y="-261.5" font-family="Arial" font-size="10.00"> </text>
<text text-anchor="start" x="50.5" y="-261.5" font-family="Arial" font-size="10.00">s1 :SimpleState</text>
</a>
</g>
<!-- n2 -->
<g id="node2" class="node"><title>n2</title>
<a xlink:href="../test/org/sdmlib/models/patterns/example/Node.java" xlink:title="&lt;TABLE&gt;">
<polygon fill="none" stroke="black" points="58,-188 58,-205 109,-205 109,-188 58,-188"/>
<text text-anchor="start" x="61.5" y="-194.5" font-family="Arial" font-size="10.00"> </text>
<text text-anchor="start" x="65.5" y="-194.5" font-family="Arial" font-size="10.00">n2 :Node</text>
</a>
<polygon fill="none" stroke="black" points="58,-168 58,-188 109,-188 109,-168 58,-168"/>
<text text-anchor="start" x="63" y="-176" font-family="Arial" font-size="10.00">num = 0</text>
</g>
<!-- s1&#45;&#45;n2 -->
<g id="edge2" class="edge"><title>s1&#45;&#45;n2</title>
<path fill="none" stroke="black" d="M83,-245.981C83,-235.177 83,-221.1 83,-209.522"/>
<text text-anchor="middle" x="87.2262" y="-216.085" font-family="Arial" font-size="10.00">nodes</text>
<text text-anchor="middle" x="78.7738" y="-234.418" font-family="Arial" font-size="10.00">graph</text>
</g>
<!-- n3 -->
<g id="node3" class="node"><title>n3</title>
<a xlink:href="../test/org/sdmlib/models/patterns/example/Node.java" xlink:title="&lt;TABLE&gt;">
<polygon fill="none" stroke="black" points="8,-106 8,-123 59,-123 59,-106 8,-106"/>
<text text-anchor="start" x="11.5" y="-112.5" font-family="Arial" font-size="10.00"> </text>
<text text-anchor="start" x="15.5" y="-112.5" font-family="Arial" font-size="10.00">n3 :Node</text>
</a>
<polygon fill="none" stroke="black" points="8,-86 8,-106 59,-106 59,-86 8,-86"/>
<text text-anchor="start" x="13" y="-94" font-family="Arial" font-size="10.00">num = 0</text>
</g>
<!-- s1&#45;&#45;n3 -->
<g id="edge4" class="edge"><title>s1&#45;&#45;n3</title>
<path fill="none" stroke="black" d="M64.3349,-245.697C55.3003,-236.122 45.2867,-223.454 40,-210 29.4109,-183.052 29.3238,-149.164 30.7475,-127.537"/>
<text text-anchor="middle" x="34.474" y="-134.317" font-family="Arial" font-size="10.00">nodes</text>
<text text-anchor="middle" x="55.0829" y="-239.402" font-family="Arial" font-size="10.00">graph</text>
</g>
<!-- n4 -->
<g id="node4" class="node"><title>n4</title>
<a xlink:href="../test/org/sdmlib/models/patterns/example/Node.java" xlink:title="&lt;TABLE&gt;">
<polygon fill="none" stroke="black" points="69,-24 69,-41 122,-41 122,-24 69,-24"/>
<text text-anchor="start" x="73.5" y="-30.5" font-family="Arial" font-size="10.00"> </text>
<text text-anchor="start" x="77.5" y="-30.5" font-family="Arial" font-size="10.00">n4 :Node</text>
</a>
<polygon fill="none" stroke="black" points="69,-4 69,-24 122,-24 122,-4 69,-4"/>
<text text-anchor="start" x="74" y="-12" font-family="Arial" font-size="10.00">num = 42</text>
</g>
<!-- s1&#45;&#45;n4 -->
<g id="edge6" class="edge"><title>s1&#45;&#45;n4</title>
<path fill="none" stroke="black" d="M101.604,-245.756C110.531,-236.198 120.29,-223.527 125,-210 144.952,-152.699 120.237,-80.7787 105.112,-45.5121"/>
<text text-anchor="middle" x="112.462" y="-49.7927" font-family="Arial" font-size="10.00">nodes</text>
<text text-anchor="middle" x="104.586" y="-233.711" font-family="Arial" font-size="10.00">graph</text>
</g>
<!-- n2&#45;&#45;n3 -->
<g id="edge8" class="edge"><title>n2&#45;&#45;n3</title>
<path fill="none" stroke="black" d="M69.3373,-164.14C62.2244,-152.759 53.5581,-138.893 46.4731,-127.557"/>
<text text-anchor="middle" x="54.8603" y="-130.503" font-family="Arial" font-size="10.00">next</text>
<text text-anchor="middle" x="60.9501" y="-156.194" font-family="Arial" font-size="10.00">prev</text>
</g>
<!-- n2&#45;&#45;n4 -->
<g id="edge10" class="edge"><title>n2&#45;&#45;n4</title>
<path fill="none" stroke="black" d="M84.5935,-164.488C86.8887,-133.503 91.1011,-76.6355 93.3999,-45.6013"/>
<text text-anchor="middle" x="96.945" y="-52.4518" font-family="Arial" font-size="10.00">prev</text>
<text text-anchor="middle" x="81.0484" y="-152.637" font-family="Arial" font-size="10.00">next</text>
</g>
<!-- n3&#45;&#45;n4 -->
<g id="edge12" class="edge"><title>n3&#45;&#45;n4</title>
<path fill="none" stroke="black" d="M49.9418,-82.1396C58.7618,-70.759 69.508,-56.8929 78.2934,-45.5569"/>
<text text-anchor="middle" x="76.082" y="-52.8094" font-family="Arial" font-size="10.00">next</text>
<text text-anchor="middle" x="52.1531" y="-69.8872" font-family="Arial" font-size="10.00">prev</text>
</g>
</g>
</svg>
