<?xml version="1.0" encoding="UTF-8" standalone="no"?>
<!DOCTYPE svg PUBLIC "-//W3C//DTD SVG 1.1//EN"
 "http://www.w3.org/Graphics/SVG/1.1/DTD/svg11.dtd">
<!-- Generated by graphviz version 2.28.0 (20110507.0327)
 -->
<!-- Title: ObjectDiagram Pages: 1 -->
<svg width="220pt" height="222pt"
 viewBox="0.00 0.00 220.00 222.00" xmlns="http://www.w3.org/2000/svg" xmlns:xlink="http://www.w3.org/1999/xlink">
<g id="graph1" class="graph" transform="scale(1 1) rotate(0) translate(4 218)">
<title>ObjectDiagram</title>
<polygon fill="white" stroke="white" points="-4,5 -4,-218 217,-218 217,5 -4,5"/>
<!-- g1 -->
<g id="node1" class="node"><title>g1</title>
<polygon fill="aliceblue" stroke="aliceblue" points="58.5,-158.5 58.5,-209.5 153.5,-209.5 153.5,-158.5 58.5,-158.5"/>
<text text-anchor="start" x="115" y="-199.5" font-family="Times New Roman,serif" font-size="10.00">«bound»</text>
<polygon fill="none" stroke="black" points="59,-178 59,-194 154,-194 154,-178 59,-178"/>
<text text-anchor="start" x="62.5" y="-184" font-family="Times New Roman,serif" font-size="10.00"> </text>
<text text-anchor="start" x="65.5" y="-184" font-family="Times New Roman,serif" font-size="10.00"> g1 :GenericGraphPO </text>
<polygon fill="none" stroke="black" points="59,-158 59,-178 154,-178 154,-158 59,-158"/>
<text text-anchor="start" x="104" y="-166" font-family="Times New Roman,serif" font-size="10.00"> &#160;</text>
</g>
<!-- g2 -->
<g id="node2" class="node"><title>g2</title>
<polygon fill="aliceblue" stroke="aliceblue" points="8,-76.5 8,-113.5 204,-113.5 204,-76.5 8,-76.5"/>
<polygon fill="none" stroke="black" points="8,-96 8,-113 204,-113 204,-96 8,-96"/>
<text text-anchor="start" x="60.5" y="-102.5" font-family="Times New Roman,serif" font-size="10.00"> </text>
<text text-anchor="start" x="63.5" y="-102.5" font-family="Times New Roman,serif" font-size="10.00"> g2 :GenericObjectPO </text>
<polygon fill="none" stroke="black" points="8,-76 8,-96 204,-96 204,-76 8,-76"/>
<text text-anchor="start" x="13.5" y="-84" font-family="Times New Roman,serif" font-size="10.00"> type == org.sdmlib.examples.helloworld.Edge </text>
</g>
<!-- g1&#45;&#45;g2 -->
<g id="edge6" class="edge"><title>g1&#45;&#45;g2</title>
<path fill="none" stroke="black" d="M106,-154.03C106,-142.167 106,-128.675 106,-117.687"/>
<text text-anchor="middle" x="110.226" y="-124.25" font-family="Times New Roman,serif" font-size="10.00">objects</text>
</g>
<!-- allMatches_g2 -->
<g id="node3" class="node"><title>allMatches_g2</title>
<text text-anchor="middle" x="68" y="-15.5" font-family="Times New Roman,serif" font-size="10.00">allMatches</text>
</g>
<!-- g2&#45;&#45;allMatches_g2 -->
<g id="edge2" class="edge"><title>g2&#45;&#45;allMatches_g2</title>
<path fill="none" stroke="black" stroke-dasharray="1,5" d="M95.0088,-72.3069C89.222,-60.8856 82.2221,-47.0699 76.7985,-36.3655"/>
</g>
<!-- d3 -->
<g id="node4" class="node"><title>d3</title>
<text text-anchor="middle" x="144" y="-15.5" font-family="Times New Roman,serif" font-size="10.00" fill="red">destroy</text>
</g>
<!-- g2&#45;&#45;d3 -->
<g id="edge4" class="edge"><title>g2&#45;&#45;d3</title>
<path fill="none" stroke="red" stroke-dasharray="1,5" d="M116.991,-72.3069C122.778,-60.8856 129.778,-47.0699 135.201,-36.3655"/>
</g>
</g>
</svg>
