<?xml version="1.0" encoding="UTF-8" standalone="no"?>
<!DOCTYPE svg PUBLIC "-//W3C//DTD SVG 1.1//EN"
 "http://www.w3.org/Graphics/SVG/1.1/DTD/svg11.dtd">
<!-- Generated by graphviz version 2.28.0 (20110507.0327)
 -->
<!-- Title: ObjectDiagram Pages: 1 -->
<svg width="193pt" height="246pt"
 viewBox="0.00 0.00 193.00 246.00" xmlns="http://www.w3.org/2000/svg" xmlns:xlink="http://www.w3.org/1999/xlink">
<g id="graph1" class="graph" transform="scale(1 1) rotate(0) translate(4 242)">
<title>ObjectDiagram</title>
<polygon fill="white" stroke="white" points="-4,5 -4,-242 190,-242 190,5 -4,5"/>
<!-- g1 -->
<g id="node1" class="node"><title>g1</title>
<polygon fill="deepskyblue" stroke="deepskyblue" points="7.5,-86.5 7.5,-137.5 70.5,-137.5 70.5,-86.5 7.5,-86.5"/>
<text text-anchor="start" x="37" y="-127.5" font-family="Arial" font-size="10.00">«bound»</text>
<polygon fill="none" stroke="black" points="8,-106 8,-122 71,-122 71,-106 8,-106"/>
<text text-anchor="start" x="11.5" y="-112" font-family="Arial" font-size="10.00"> </text>
<text text-anchor="start" x="15.5" y="-112" font-family="Arial" font-size="10.00"> g1 :GraphPO </text>
<polygon fill="none" stroke="black" points="8,-86 8,-106 71,-106 71,-86 8,-86"/>
<text text-anchor="start" x="36" y="-94" font-family="Arial" font-size="10.00"> &#160;</text>
</g>
<!-- n2 -->
<g id="node2" class="node"><title>n2</title>
<polygon fill="deepskyblue" stroke="deepskyblue" points="59.5,-4.5 59.5,-41.5 118.5,-41.5 118.5,-4.5 59.5,-4.5"/>
<polygon fill="none" stroke="black" points="60,-24 60,-41 119,-41 119,-24 60,-24"/>
<text text-anchor="start" x="63.5" y="-30.5" font-family="Arial" font-size="10.00"> </text>
<text text-anchor="start" x="67.5" y="-30.5" font-family="Arial" font-size="10.00"> n2 :NodePO </text>
<polygon fill="none" stroke="black" points="60,-4 60,-24 119,-24 119,-4 60,-4"/>
<text text-anchor="start" x="86" y="-12" font-family="Arial" font-size="10.00"> &#160;</text>
</g>
<!-- g1&#45;&#45;n2 -->
<g id="edge2" class="edge"><title>g1&#45;&#45;n2</title>
<path fill="none" stroke="black" d="M55.6493,-82.0303C62.4673,-70.167 70.2214,-56.6747 76.536,-45.6874"/>
<text text-anchor="middle" x="75.6842" y="-53.151" font-family="Arial" font-size="10.00">nodes</text>
</g>
<!-- g3 -->
<g id="node3" class="node"><title>g3</title>
<polygon fill="deepskyblue" stroke="deepskyblue" points="102.5,-182.5 102.5,-233.5 177.5,-233.5 177.5,-182.5 102.5,-182.5"/>
<text text-anchor="start" x="139" y="-223.5" font-family="Arial" font-size="10.00">«bound»</text>
<polygon fill="none" stroke="black" points="103,-202 103,-218 178,-218 178,-202 103,-202"/>
<text text-anchor="start" x="106.5" y="-208" font-family="Arial" font-size="10.00"> </text>
<text text-anchor="start" x="110.5" y="-208" font-family="Arial" font-size="10.00"> g3 :GraphPO </text>
<polygon fill="none" stroke="black" points="103,-182 103,-202 178,-202 178,-182 103,-182"/>
<text text-anchor="start" x="137" y="-190" font-family="Arial" font-size="10.00"> &#160;</text>
</g>
<!-- n4 -->
<g id="node4" class="node"><title>n4</title>
<polygon fill="deepskyblue" stroke="deepskyblue" points="104.5,-86.5 104.5,-137.5 175.5,-137.5 175.5,-86.5 104.5,-86.5"/>
<text text-anchor="start" x="136" y="-127.5" font-family="Arial" font-size="10.00" fill="green">«create»</text>
<polygon fill="none" stroke="green" points="105,-106 105,-122 176,-122 176,-106 105,-106"/>
<text text-anchor="start" x="108.5" y="-112" font-family="Arial" font-size="10.00"> </text>
<text text-anchor="start" x="112.5" y="-112" font-family="Arial" font-size="10.00" fill="green"> n4 :NodePO </text>
<polygon fill="none" stroke="green" points="105,-86 105,-106 176,-106 176,-86 105,-86"/>
<text text-anchor="start" x="137" y="-94" font-family="Arial" font-size="10.00"> &#160;</text>
</g>
<!-- g3&#45;&#45;n4 -->
<g id="edge4" class="edge"><title>g3&#45;&#45;n4</title>
<path fill="none" stroke="green" d="M140,-178.286C140,-166.624 140,-153.182 140,-141.538"/>
<text text-anchor="middle" x="144.226" y="-148.101" font-family="Arial" font-size="10.00" fill="green">gcs</text>
</g>
<!-- n4&#45;&#45;n2 -->
<g id="edge6" class="edge"><title>n4&#45;&#45;n2</title>
<path fill="none" stroke="green" d="M123.018,-82.0303C116.063,-70.167 108.154,-56.6747 101.713,-45.6874"/>
<text text-anchor="middle" x="109.943" y="-48.8688" font-family="Arial" font-size="10.00" fill="green">orig</text>
</g>
</g>
</svg>
