<?xml version="1.0" encoding="UTF-8" standalone="no"?>
<!DOCTYPE svg PUBLIC "-//W3C//DTD SVG 1.1//EN"
 "http://www.w3.org/Graphics/SVG/1.1/DTD/svg11.dtd">
<!-- Generated by graphviz version 2.28.0 (20110507.0327)
 -->
<!-- Title: ObjectDiagram Pages: 1 -->
<svg width="132pt" height="246pt"
 viewBox="0.00 0.00 132.00 246.00" xmlns="http://www.w3.org/2000/svg" xmlns:xlink="http://www.w3.org/1999/xlink">
<g id="graph1" class="graph" transform="scale(1 1) rotate(0) translate(4 242)">
<title>ObjectDiagram</title>
<polygon fill="white" stroke="white" points="-4,5 -4,-242 129,-242 129,5 -4,5"/>
<!-- g1 -->
<g id="node1" class="node"><title>g1</title>
<polygon fill="deepskyblue" stroke="deepskyblue" points="14.5,-182.5 14.5,-233.5 109.5,-233.5 109.5,-182.5 14.5,-182.5"/>
<text text-anchor="start" x="71" y="-223.5" font-family="Times New Roman,serif" font-size="10.00">«bound»</text>
<polygon fill="none" stroke="black" points="15,-202 15,-218 110,-218 110,-202 15,-202"/>
<text text-anchor="start" x="18.5" y="-208" font-family="Times New Roman,serif" font-size="10.00"> </text>
<text text-anchor="start" x="21.5" y="-208" font-family="Times New Roman,serif" font-size="10.00"> g1 :GenericGraphPO </text>
<polygon fill="none" stroke="black" points="15,-182 15,-202 110,-202 110,-182 15,-182"/>
<text text-anchor="start" x="60" y="-190" font-family="Times New Roman,serif" font-size="10.00"> &#160;</text>
</g>
<!-- g2 -->
<g id="node2" class="node"><title>g2</title>
<polygon fill="deepskyblue" stroke="deepskyblue" points="18,-100.5 18,-137.5 106,-137.5 106,-100.5 18,-100.5"/>
<polygon fill="none" stroke="black" points="18,-120 18,-137 106,-137 106,-120 18,-120"/>
<text text-anchor="start" x="21.5" y="-126.5" font-family="Times New Roman,serif" font-size="10.00"> </text>
<text text-anchor="start" x="24.5" y="-126.5" font-family="Times New Roman,serif" font-size="10.00"> g2 :GenericObjectPO </text>
<polygon fill="none" stroke="black" points="18,-100 18,-120 106,-120 106,-100 18,-100"/>
<text text-anchor="start" x="59.5" y="-108" font-family="Times New Roman,serif" font-size="10.00"> &#160;</text>
</g>
<!-- g1&#45;&#45;g2 -->
<g id="edge2" class="edge"><title>g1&#45;&#45;g2</title>
<path fill="none" stroke="black" d="M62,-178.03C62,-166.167 62,-152.675 62,-141.687"/>
<text text-anchor="middle" x="66.2262" y="-148.25" font-family="Times New Roman,serif" font-size="10.00">objects</text>
</g>
<!-- g3 -->
<g id="node3" class="node"><title>g3</title>
<polygon fill="deepskyblue" stroke="deepskyblue" points="8,-4.5 8,-55.5 116,-55.5 116,-4.5 8,-4.5"/>
<polygon fill="none" stroke="black" points="8,-38 8,-55 116,-55 116,-38 8,-38"/>
<text text-anchor="start" x="11.5" y="-44.5" font-family="Times New Roman,serif" font-size="10.00"> </text>
<text text-anchor="start" x="14.5" y="-44.5" font-family="Times New Roman,serif" font-size="10.00"> g3 :GenericAttributePO </text>
<polygon fill="none" stroke="black" points="8,-4 8,-38 116,-38 116,-4 8,-4"/>
<text text-anchor="start" x="26.5" y="-26" font-family="Times New Roman,serif" font-size="10.00"> name == &quot;name&quot; </text>
<text text-anchor="start" x="31.5" y="-12" font-family="Times New Roman,serif" font-size="10.00" fill="green"> name := &quot;text&quot; </text>
</g>
<!-- g2&#45;&#45;g3 -->
<g id="edge4" class="edge"><title>g2&#45;&#45;g3</title>
<path fill="none" stroke="black" d="M62,-96.4944C62,-85.4243 62,-71.7752 62,-59.8074"/>
<text text-anchor="middle" x="66.2262" y="-66.3705" font-family="Times New Roman,serif" font-size="10.00">attrs</text>
</g>
</g>
</svg>
