<?xml version="1.0" encoding="UTF-8" standalone="no"?>
<!DOCTYPE svg PUBLIC "-//W3C//DTD SVG 1.1//EN"
 "http://www.w3.org/Graphics/SVG/1.1/DTD/svg11.dtd">
<!-- Generated by graphviz version 2.26.3 (20100126.1600)
 -->
<!-- Title: ObjectDiagram Pages: 1 -->
<svg width="268pt" height="222pt"
 viewBox="0.00 0.00 268.00 222.00" xmlns="http://www.w3.org/2000/svg" xmlns:xlink="http://www.w3.org/1999/xlink">
<g id="graph1" class="graph" transform="scale(1 1) rotate(0) translate(4 218)">
<title>ObjectDiagram</title>
<polygon fill="white" stroke="white" points="-4,5 -4,-218 265,-218 265,5 -4,5"/>
<!-- g1 -->
<g id="node1" class="node"><title>g1</title>
<polygon fill="deepskyblue" stroke="deepskyblue" points="72.5,-158.5 72.5,-209.5 187.5,-209.5 187.5,-158.5 72.5,-158.5"/>
<text text-anchor="start" x="143" y="-199.167" font-family="Times Roman,serif" font-size="10.00">«bound»</text>
<polygon fill="none" stroke="black" points="73,-178 73,-194 188,-194 188,-178 73,-178"/>
<text text-anchor="start" x="76.5" y="-183.667" font-family="Times Roman,serif" font-size="10.00"> </text>
<text text-anchor="start" x="80.5" y="-183.667" font-family="Times Roman,serif" font-size="10.00"> g1 :GenericGraphPO </text>
<polygon fill="none" stroke="black" points="73,-158 73,-178 188,-178 188,-158 73,-158"/>
<text text-anchor="start" x="127" y="-165.667" font-family="Times Roman,serif" font-size="10.00"> &#160;</text>
</g>
<!-- g2 -->
<g id="node2" class="node"><title>g2</title>
<polygon fill="deepskyblue" stroke="deepskyblue" points="7.5,-76.5 7.5,-113.5 252.5,-113.5 252.5,-76.5 7.5,-76.5"/>
<polygon fill="none" stroke="black" points="8,-96 8,-113 253,-113 253,-96 8,-96"/>
<text text-anchor="start" x="75.5" y="-102.167" font-family="Times Roman,serif" font-size="10.00"> </text>
<text text-anchor="start" x="79.5" y="-102.167" font-family="Times Roman,serif" font-size="10.00"> g2 :GenericObjectPO </text>
<polygon fill="none" stroke="black" points="8,-76 8,-96 253,-96 253,-76 8,-76"/>
<text text-anchor="start" x="13.5" y="-83.6667" font-family="Times Roman,serif" font-size="10.00"> type == &quot;org.sdmlib.examples.helloworld.Edge&quot; </text>
</g>
<!-- g1&#45;&#45;g2 -->
<g id="edge6" class="edge"><title>g1&#45;&#45;g2</title>
<path fill="none" stroke="black" d="M130,-154.364C130,-142.431 130,-128.885 130,-117.75"/>
<text text-anchor="middle" x="134.226" y="-123.813" font-family="Times Roman,serif" font-size="10.00">objects</text>
</g>
<!-- allMatches_g2 -->
<g id="node3" class="node"><title>allMatches_g2</title>
<text text-anchor="middle" x="91" y="-15" font-family="Times Roman,serif" font-size="10.00">allMatches</text>
</g>
<!-- g2&#45;&#45;allMatches_g2 -->
<g id="edge2" class="edge"><title>g2&#45;&#45;allMatches_g2</title>
<path fill="none" stroke="black" stroke-dasharray="1,5" d="M118.51,-72.3139C112.668,-60.7799 105.665,-46.954 100.187,-36.1382"/>
</g>
<!-- d3 -->
<g id="node4" class="node"><title>d3</title>
<text text-anchor="middle" x="170" y="-15" font-family="Times Roman,serif" font-size="10.00" fill="red">destroy</text>
</g>
<!-- g2&#45;&#45;d3 -->
<g id="edge4" class="edge"><title>g2&#45;&#45;d3</title>
<path fill="none" stroke="red" stroke-dasharray="1,5" d="M141.785,-72.3139C147.777,-60.7799 154.959,-46.954 160.578,-36.1382"/>
</g>
</g>
</svg>
