<?xml version="1.0" encoding="UTF-8" standalone="no"?>
<!DOCTYPE svg PUBLIC "-//W3C//DTD SVG 1.1//EN"
 "http://www.w3.org/Graphics/SVG/1.1/DTD/svg11.dtd">
<!-- Generated by graphviz version 2.28.0 (20110507.0327)
 -->
<!-- Title: ObjectDiagram Pages: 1 -->
<svg width="199pt" height="246pt"
 viewBox="0.00 0.00 199.00 246.00" xmlns="http://www.w3.org/2000/svg" xmlns:xlink="http://www.w3.org/1999/xlink">
<g id="graph1" class="graph" transform="scale(1 1) rotate(0) translate(4 242)">
<title>ObjectDiagram</title>
<polygon fill="white" stroke="white" points="-4,5 -4,-242 196,-242 196,5 -4,5"/>
<!-- e1 -->
<g id="node1" class="node"><title>e1</title>
<polygon fill="deepskyblue" stroke="deepskyblue" points="7.5,-182.5 7.5,-233.5 78.5,-233.5 78.5,-182.5 7.5,-182.5"/>
<text text-anchor="start" x="40" y="-223.5" font-family="Arial" font-size="10.00">«bound»</text>
<polygon fill="none" stroke="black" points="8,-202 8,-218 79,-218 79,-202 8,-202"/>
<text text-anchor="start" x="11.5" y="-208" font-family="Arial" font-size="10.00"> </text>
<text text-anchor="start" x="15.5" y="-208" font-family="Arial" font-size="10.00"> e1 :EdgePO </text>
<polygon fill="none" stroke="black" points="8,-182 8,-202 79,-202 79,-182 8,-182"/>
<text text-anchor="start" x="40" y="-190" font-family="Arial" font-size="10.00"> &#160;</text>
</g>
<!-- n2 -->
<g id="node2" class="node"><title>n2</title>
<polygon fill="deepskyblue" stroke="deepskyblue" points="7.5,-93.5 7.5,-130.5 78.5,-130.5 78.5,-93.5 7.5,-93.5"/>
<polygon fill="none" stroke="black" points="8,-113 8,-130 79,-130 79,-113 8,-113"/>
<text text-anchor="start" x="11.5" y="-119.5" font-family="Arial" font-size="10.00"> </text>
<text text-anchor="start" x="15.5" y="-119.5" font-family="Arial" font-size="10.00"> n2 :NodePO </text>
<polygon fill="none" stroke="black" points="8,-93 8,-113 79,-113 79,-93 8,-93"/>
<text text-anchor="start" x="40" y="-101" font-family="Arial" font-size="10.00"> &#160;</text>
</g>
<!-- e1&#45;&#45;n2 -->
<g id="edge2" class="edge"><title>e1&#45;&#45;n2</title>
<path fill="none" stroke="black" d="M43,-178.286C43,-164.248 43,-147.632 43,-134.676"/>
<text text-anchor="middle" x="47.2262" y="-141.239" font-family="Arial" font-size="10.00">src</text>
</g>
<!-- n3 -->
<g id="node3" class="node"><title>n3</title>
<polygon fill="deepskyblue" stroke="deepskyblue" points="68,-4.5 68,-41.5 122,-41.5 122,-4.5 68,-4.5"/>
<polygon fill="none" stroke="black" points="68,-24 68,-41 122,-41 122,-24 68,-24"/>
<text text-anchor="start" x="71.5" y="-30.5" font-family="Arial" font-size="10.00"> </text>
<text text-anchor="start" x="75.5" y="-30.5" font-family="Arial" font-size="10.00"> n3 :NodePO </text>
<polygon fill="none" stroke="black" points="68,-4 68,-24 122,-24 122,-4 68,-4"/>
<text text-anchor="start" x="91.5" y="-12" font-family="Arial" font-size="10.00"> &#160;</text>
</g>
<!-- n2&#45;&#45;n3 -->
<g id="edge4" class="edge"><title>n2&#45;&#45;n3</title>
<path fill="none" stroke="black" d="M55.8539,-89.4944C63.854,-76.1096 74.1076,-58.9547 82.1137,-45.5597"/>
<text text-anchor="middle" x="81.0916" y="-53.0074" font-family="Arial" font-size="10.00">copy</text>
</g>
<!-- e4 -->
<g id="node4" class="node"><title>e4</title>
<polygon fill="deepskyblue" stroke="deepskyblue" points="112.5,-86.5 112.5,-137.5 183.5,-137.5 183.5,-86.5 112.5,-86.5"/>
<text text-anchor="start" x="145" y="-127.5" font-family="Arial" font-size="10.00">«bound»</text>
<polygon fill="none" stroke="black" points="113,-106 113,-122 184,-122 184,-106 113,-106"/>
<text text-anchor="start" x="116.5" y="-112" font-family="Arial" font-size="10.00"> </text>
<text text-anchor="start" x="120.5" y="-112" font-family="Arial" font-size="10.00"> e4 :EdgePO </text>
<polygon fill="none" stroke="black" points="113,-86 113,-106 184,-106 184,-86 113,-86"/>
<text text-anchor="start" x="145" y="-94" font-family="Arial" font-size="10.00"> &#160;</text>
</g>
<!-- e4&#45;&#45;n3 -->
<g id="edge6" class="edge"><title>e4&#45;&#45;n3</title>
<path fill="none" stroke="green" d="M130.352,-82.0303C123.125,-70.167 114.905,-56.6747 108.212,-45.6874"/>
<text text-anchor="middle" x="116.536" y="-48.7286" font-family="Arial" font-size="10.00" fill="green">src</text>
</g>
</g>
</svg>
