<?xml version="1.0" encoding="UTF-8" standalone="no"?>
<!DOCTYPE svg PUBLIC "-//W3C//DTD SVG 1.1//EN"
 "http://www.w3.org/Graphics/SVG/1.1/DTD/svg11.dtd">
<!-- Generated by graphviz version 2.28.0 (20110507.0327)
 -->
<!-- Title: ObjectDiagram Pages: 1 -->
<svg width="186pt" height="246pt"
 viewBox="0.00 0.00 186.00 246.00" xmlns="http://www.w3.org/2000/svg" xmlns:xlink="http://www.w3.org/1999/xlink">
<g id="graph1" class="graph" transform="scale(1 1) rotate(0) translate(4 242)">
<title>ObjectDiagram</title>
<polygon fill="white" stroke="white" points="-4,5 -4,-242 183,-242 183,5 -4,5"/>
<!-- g1 -->
<g id="node1" class="node"><title>g1</title>
<polygon fill="aliceblue" stroke="aliceblue" points="7.5,-86.5 7.5,-137.5 72.5,-137.5 72.5,-86.5 7.5,-86.5"/>
<text text-anchor="start" x="34" y="-127.5" font-family="Times New Roman,serif" font-size="10.00">«bound»</text>
<polygon fill="none" stroke="black" points="8,-106 8,-122 73,-122 73,-106 8,-106"/>
<text text-anchor="start" x="11.5" y="-112" font-family="Times New Roman,serif" font-size="10.00"> </text>
<text text-anchor="start" x="14.5" y="-112" font-family="Times New Roman,serif" font-size="10.00"> g1 :GraphPO </text>
<polygon fill="none" stroke="black" points="8,-86 8,-106 73,-106 73,-86 8,-86"/>
<text text-anchor="start" x="38" y="-94" font-family="Times New Roman,serif" font-size="10.00"> &#160;</text>
</g>
<!-- n2 -->
<g id="node2" class="node"><title>n2</title>
<polygon fill="aliceblue" stroke="aliceblue" points="57.5,-4.5 57.5,-41.5 120.5,-41.5 120.5,-4.5 57.5,-4.5"/>
<polygon fill="none" stroke="black" points="58,-24 58,-41 121,-41 121,-24 58,-24"/>
<text text-anchor="start" x="61.5" y="-30.5" font-family="Times New Roman,serif" font-size="10.00"> </text>
<text text-anchor="start" x="64.5" y="-30.5" font-family="Times New Roman,serif" font-size="10.00"> n2 :NodePO </text>
<polygon fill="none" stroke="black" points="58,-4 58,-24 121,-24 121,-4 58,-4"/>
<text text-anchor="start" x="87" y="-12" font-family="Times New Roman,serif" font-size="10.00"> &#160;</text>
</g>
<!-- g1&#45;&#45;n2 -->
<g id="edge2" class="edge"><title>g1&#45;&#45;n2</title>
<path fill="none" stroke="black" d="M56.3163,-82.0303C62.9979,-70.167 70.597,-56.6747 76.7853,-45.6874"/>
<text text-anchor="middle" x="76.02" y="-53.158" font-family="Times New Roman,serif" font-size="10.00">nodes</text>
</g>
<!-- g3 -->
<g id="node3" class="node"><title>g3</title>
<polygon fill="aliceblue" stroke="aliceblue" points="105.5,-182.5 105.5,-233.5 170.5,-233.5 170.5,-182.5 105.5,-182.5"/>
<text text-anchor="start" x="132" y="-223.5" font-family="Times New Roman,serif" font-size="10.00">«bound»</text>
<polygon fill="none" stroke="black" points="106,-202 106,-218 171,-218 171,-202 106,-202"/>
<text text-anchor="start" x="109.5" y="-208" font-family="Times New Roman,serif" font-size="10.00"> </text>
<text text-anchor="start" x="112.5" y="-208" font-family="Times New Roman,serif" font-size="10.00"> g3 :GraphPO </text>
<polygon fill="none" stroke="black" points="106,-182 106,-202 171,-202 171,-182 106,-182"/>
<text text-anchor="start" x="136" y="-190" font-family="Times New Roman,serif" font-size="10.00"> &#160;</text>
</g>
<!-- n4 -->
<g id="node4" class="node"><title>n4</title>
<polygon fill="aliceblue" stroke="aliceblue" points="106.5,-86.5 106.5,-137.5 169.5,-137.5 169.5,-86.5 106.5,-86.5"/>
<text text-anchor="start" x="133" y="-127.5" font-family="Times New Roman,serif" font-size="10.00" fill="green">«create»</text>
<polygon fill="none" stroke="green" points="107,-106 107,-122 170,-122 170,-106 107,-106"/>
<text text-anchor="start" x="110.5" y="-112" font-family="Times New Roman,serif" font-size="10.00"> </text>
<text text-anchor="start" x="113.5" y="-112" font-family="Times New Roman,serif" font-size="10.00" fill="green"> n4 :NodePO </text>
<polygon fill="none" stroke="green" points="107,-86 107,-106 170,-106 170,-86 107,-86"/>
<text text-anchor="start" x="136" y="-94" font-family="Times New Roman,serif" font-size="10.00"> &#160;</text>
</g>
<!-- g3&#45;&#45;n4 -->
<g id="edge4" class="edge"><title>g3&#45;&#45;n4</title>
<path fill="none" stroke="green" d="M138,-178.286C138,-166.624 138,-153.182 138,-141.538"/>
<text text-anchor="middle" x="142.226" y="-148.101" font-family="Times New Roman,serif" font-size="10.00" fill="green">gcs</text>
</g>
<!-- n4&#45;&#45;n2 -->
<g id="edge6" class="edge"><title>n4&#45;&#45;n2</title>
<path fill="none" stroke="green" d="M121.684,-82.0303C115.002,-70.167 107.403,-56.6747 101.215,-45.6874"/>
<text text-anchor="middle" x="109.345" y="-49.0101" font-family="Times New Roman,serif" font-size="10.00" fill="green">orig</text>
</g>
</g>
</svg>
