<?xml version="1.0" encoding="UTF-8" standalone="no"?>
<!DOCTYPE svg PUBLIC "-//W3C//DTD SVG 1.1//EN"
 "http://www.w3.org/Graphics/SVG/1.1/DTD/svg11.dtd">
<!-- Generated by graphviz version 2.28.0 (20110507.0327)
 -->
<!-- Title: ObjectDiagram Pages: 1 -->
<svg width="136pt" height="270pt"
 viewBox="0.00 0.00 135.50 270.00" xmlns="http://www.w3.org/2000/svg" xmlns:xlink="http://www.w3.org/1999/xlink">
<g id="graph1" class="graph" transform="scale(1 1) rotate(0) translate(4 266)">
<title>ObjectDiagram</title>
<polygon fill="white" stroke="white" points="-4,5 -4,-266 132.501,-266 132.501,5 -4,5"/>
<!-- s1 -->
<g id="node1" class="node"><title>s1</title>
<polygon fill="none" stroke="black" points="45,-235 45,-252 116,-252 116,-235 45,-235"/>
<text text-anchor="start" x="48.5" y="-241.5" font-family="Times New Roman,serif" font-size="10.00"> </text>
<text text-anchor="start" x="51.5" y="-241.5" font-family="Times New Roman,serif" font-size="10.00">s1 :SimpleState</text>
</g>
<!-- n2 -->
<g id="node2" class="node"><title>n2</title>
<polygon fill="none" stroke="black" points="56,-168 56,-185 104,-185 104,-168 56,-168"/>
<text text-anchor="start" x="60" y="-174.5" font-family="Times New Roman,serif" font-size="10.00"> </text>
<text text-anchor="start" x="63" y="-174.5" font-family="Times New Roman,serif" font-size="10.00">n2 :Node</text>
<polygon fill="none" stroke="black" points="56,-148 56,-168 104,-168 104,-148 56,-148"/>
<text text-anchor="start" x="61.5" y="-156" font-family="Times New Roman,serif" font-size="10.00">num = 42</text>
</g>
<!-- s1&#45;&#45;n2 -->
<g id="edge2" class="edge"><title>s1&#45;&#45;n2</title>
<path fill="none" stroke="black" d="M80,-225.981C80,-215.177 80,-201.1 80,-189.522"/>
<text text-anchor="middle" x="84.2262" y="-196.085" font-family="Times New Roman,serif" font-size="10.00">nodes</text>
<text text-anchor="middle" x="75.7738" y="-214.418" font-family="Times New Roman,serif" font-size="10.00">graph</text>
</g>
<!-- n3 -->
<g id="node3" class="node"><title>n3</title>
<polygon fill="none" stroke="black" points="8,-81 8,-98 55,-98 55,-81 8,-81"/>
<text text-anchor="start" x="11.5" y="-87.5" font-family="Times New Roman,serif" font-size="10.00"> </text>
<text text-anchor="start" x="14.5" y="-87.5" font-family="Times New Roman,serif" font-size="10.00">n3 :Node</text>
</g>
<!-- s1&#45;&#45;n3 -->
<g id="edge4" class="edge"><title>s1&#45;&#45;n3</title>
<path fill="none" stroke="black" d="M62.6949,-225.987C53.9922,-216.307 44.21,-203.451 39,-190 28.4748,-162.826 28.3597,-128.385 29.4971,-108.115"/>
<text text-anchor="middle" x="33.3077" y="-114.86" font-family="Times New Roman,serif" font-size="10.00">nodes</text>
<text text-anchor="middle" x="53.5347" y="-219.476" font-family="Times New Roman,serif" font-size="10.00">graph</text>
</g>
<!-- n4 -->
<g id="node4" class="node"><title>n4</title>
<polygon fill="none" stroke="black" points="68,-9 68,-26 115,-26 115,-9 68,-9"/>
<text text-anchor="start" x="71.5" y="-15.5" font-family="Times New Roman,serif" font-size="10.00"> </text>
<text text-anchor="start" x="74.5" y="-15.5" font-family="Times New Roman,serif" font-size="10.00">n4 :Node</text>
</g>
<!-- s1&#45;&#45;n4 -->
<g id="edge6" class="edge"><title>s1&#45;&#45;n4</title>
<path fill="none" stroke="black" d="M98.1688,-225.677C106.885,-216.097 116.412,-203.43 121,-190 139.515,-135.808 114.021,-67.8631 99.6457,-36.4311"/>
<text text-anchor="middle" x="107.155" y="-40.5354" font-family="Times New Roman,serif" font-size="10.00">nodes</text>
<text text-anchor="middle" x="101.028" y="-213.595" font-family="Times New Roman,serif" font-size="10.00">graph</text>
</g>
<!-- n2&#45;&#45;n3 -->
<g id="edge8" class="edge"><title>n2&#45;&#45;n3</title>
<path fill="none" stroke="black" d="M65.8272,-144.307C58.3653,-132.886 49.339,-119.07 42.3455,-108.366"/>
<text text-anchor="middle" x="50.8405" y="-111.141" font-family="Times New Roman,serif" font-size="10.00">next</text>
<text text-anchor="middle" x="57.3321" y="-136.531" font-family="Times New Roman,serif" font-size="10.00">prev</text>
</g>
<!-- n2&#45;&#45;n4 -->
<g id="edge10" class="edge"><title>n2&#45;&#45;n4</title>
<path fill="none" stroke="black" d="M81.6231,-144.31C83.8223,-114.92 87.7043,-63.0426 89.7139,-36.1866"/>
<text text-anchor="middle" x="93.252" y="-43.0397" font-family="Times New Roman,serif" font-size="10.00">prev</text>
<text text-anchor="middle" x="78.085" y="-132.456" font-family="Times New Roman,serif" font-size="10.00">next</text>
</g>
<!-- n3&#45;&#45;n4 -->
<g id="edge12" class="edge"><title>n3&#45;&#45;n4</title>
<path fill="none" stroke="black" d="M45.8315,-71.6966C55.1318,-60.8463 67.0714,-46.9167 76.3391,-36.1043"/>
<text text-anchor="middle" x="73.6497" y="-43.2359" font-family="Times New Roman,serif" font-size="10.00">next</text>
<text text-anchor="middle" x="48.5209" y="-59.5651" font-family="Times New Roman,serif" font-size="10.00">prev</text>
</g>
</g>
</svg>
