<?xml version="1.0" encoding="UTF-8" standalone="no"?>
<!DOCTYPE svg PUBLIC "-//W3C//DTD SVG 1.1//EN"
 "http://www.w3.org/Graphics/SVG/1.1/DTD/svg11.dtd">
<!-- Generated by graphviz version 2.28.0 (20110507.0327)
 -->
<!-- Title: ObjectDiagram Pages: 1 -->
<svg width="181pt" height="246pt"
 viewBox="0.00 0.00 181.00 246.00" xmlns="http://www.w3.org/2000/svg" xmlns:xlink="http://www.w3.org/1999/xlink">
<g id="graph1" class="graph" transform="scale(1 1) rotate(0) translate(4 242)">
<title>ObjectDiagram</title>
<polygon fill="white" stroke="white" points="-4,5 -4,-242 178,-242 178,5 -4,5"/>
<!-- e1 -->
<g id="node1" class="node"><title>e1</title>
<polygon fill="deepskyblue" stroke="deepskyblue" points="8.5,-182.5 8.5,-233.5 69.5,-233.5 69.5,-182.5 8.5,-182.5"/>
<text text-anchor="start" x="31" y="-223.5" font-family="Times New Roman,serif" font-size="10.00">«bound»</text>
<polygon fill="none" stroke="black" points="9,-202 9,-218 70,-218 70,-202 9,-202"/>
<text text-anchor="start" x="12.5" y="-208" font-family="Times New Roman,serif" font-size="10.00"> </text>
<text text-anchor="start" x="15.5" y="-208" font-family="Times New Roman,serif" font-size="10.00"> e1 :EdgePO </text>
<polygon fill="none" stroke="black" points="9,-182 9,-202 70,-202 70,-182 9,-182"/>
<text text-anchor="start" x="37" y="-190" font-family="Times New Roman,serif" font-size="10.00"> &#160;</text>
</g>
<!-- n2 -->
<g id="node2" class="node"><title>n2</title>
<polygon fill="deepskyblue" stroke="deepskyblue" points="7.5,-93.5 7.5,-130.5 70.5,-130.5 70.5,-93.5 7.5,-93.5"/>
<polygon fill="none" stroke="black" points="8,-113 8,-130 71,-130 71,-113 8,-113"/>
<text text-anchor="start" x="11.5" y="-119.5" font-family="Times New Roman,serif" font-size="10.00"> </text>
<text text-anchor="start" x="14.5" y="-119.5" font-family="Times New Roman,serif" font-size="10.00"> n2 :NodePO </text>
<polygon fill="none" stroke="black" points="8,-93 8,-113 71,-113 71,-93 8,-93"/>
<text text-anchor="start" x="37" y="-101" font-family="Times New Roman,serif" font-size="10.00"> &#160;</text>
</g>
<!-- e1&#45;&#45;n2 -->
<g id="edge2" class="edge"><title>e1&#45;&#45;n2</title>
<path fill="none" stroke="black" d="M39,-178.286C39,-164.248 39,-147.632 39,-134.676"/>
<text text-anchor="middle" x="43.2262" y="-141.239" font-family="Times New Roman,serif" font-size="10.00">tgt</text>
</g>
<!-- n3 -->
<g id="node3" class="node"><title>n3</title>
<polygon fill="deepskyblue" stroke="deepskyblue" points="55.5,-4.5 55.5,-41.5 118.5,-41.5 118.5,-4.5 55.5,-4.5"/>
<polygon fill="none" stroke="black" points="56,-24 56,-41 119,-41 119,-24 56,-24"/>
<text text-anchor="start" x="59.5" y="-30.5" font-family="Times New Roman,serif" font-size="10.00"> </text>
<text text-anchor="start" x="62.5" y="-30.5" font-family="Times New Roman,serif" font-size="10.00"> n3 :NodePO </text>
<polygon fill="none" stroke="black" points="56,-4 56,-24 119,-24 119,-4 56,-4"/>
<text text-anchor="start" x="85" y="-12" font-family="Times New Roman,serif" font-size="10.00"> &#160;</text>
</g>
<!-- n2&#45;&#45;n3 -->
<g id="edge4" class="edge"><title>n2&#45;&#45;n3</title>
<path fill="none" stroke="black" d="M50.8652,-89.4944C58.2499,-76.1096 67.7147,-58.9547 75.105,-45.5597"/>
<text text-anchor="middle" x="74.4272" y="-53.0367" font-family="Times New Roman,serif" font-size="10.00">copy</text>
</g>
<!-- e4 -->
<g id="node4" class="node"><title>e4</title>
<polygon fill="deepskyblue" stroke="deepskyblue" points="104.5,-86.5 104.5,-137.5 165.5,-137.5 165.5,-86.5 104.5,-86.5"/>
<text text-anchor="start" x="127" y="-127.5" font-family="Times New Roman,serif" font-size="10.00">«bound»</text>
<polygon fill="none" stroke="black" points="105,-106 105,-122 166,-122 166,-106 105,-106"/>
<text text-anchor="start" x="108.5" y="-112" font-family="Times New Roman,serif" font-size="10.00"> </text>
<text text-anchor="start" x="111.5" y="-112" font-family="Times New Roman,serif" font-size="10.00"> e4 :EdgePO </text>
<polygon fill="none" stroke="black" points="105,-86 105,-106 166,-106 166,-86 105,-86"/>
<text text-anchor="start" x="133" y="-94" font-family="Times New Roman,serif" font-size="10.00"> &#160;</text>
</g>
<!-- e4&#45;&#45;n3 -->
<g id="edge6" class="edge"><title>e4&#45;&#45;n3</title>
<path fill="none" stroke="green" d="M119.017,-82.0303C112.471,-70.167 105.027,-56.6747 98.9654,-45.6874"/>
<text text-anchor="middle" x="107.044" y="-49.0812" font-family="Times New Roman,serif" font-size="10.00" fill="green">tgt</text>
</g>
</g>
</svg>
