<?xml version="1.0" encoding="UTF-8" standalone="no"?>
<!DOCTYPE svg PUBLIC "-//W3C//DTD SVG 1.1//EN"
 "http://www.w3.org/Graphics/SVG/1.1/DTD/svg11.dtd">
<!-- Generated by graphviz version 2.28.0 (20110507.0327)
 -->
<!-- Title: ObjectDiagram Pages: 1 -->
<svg width="187pt" height="164pt"
 viewBox="0.00 0.00 187.00 164.00" xmlns="http://www.w3.org/2000/svg" xmlns:xlink="http://www.w3.org/1999/xlink">
<g id="graph1" class="graph" transform="scale(1 1) rotate(0) translate(4 160)">
<title>ObjectDiagram</title>
<polygon fill="white" stroke="white" points="-4,5 -4,-160 184,-160 184,5 -4,5"/>
<!-- g1 -->
<g id="node1" class="node"><title>g1</title>
<polygon fill="deepskyblue" stroke="deepskyblue" points="7.5,-100.5 7.5,-151.5 72.5,-151.5 72.5,-100.5 7.5,-100.5"/>
<text text-anchor="start" x="34" y="-141.5" font-family="Times New Roman,serif" font-size="10.00">«bound»</text>
<polygon fill="none" stroke="black" points="8,-120 8,-136 73,-136 73,-120 8,-120"/>
<text text-anchor="start" x="11.5" y="-126" font-family="Times New Roman,serif" font-size="10.00"> </text>
<text text-anchor="start" x="14.5" y="-126" font-family="Times New Roman,serif" font-size="10.00"> g1 :GraphPO </text>
<polygon fill="none" stroke="black" points="8,-100 8,-120 73,-120 73,-100 8,-100"/>
<text text-anchor="start" x="38" y="-108" font-family="Times New Roman,serif" font-size="10.00"> &#160;</text>
</g>
<!-- e2 -->
<g id="node2" class="node"><title>e2</title>
<polygon fill="deepskyblue" stroke="deepskyblue" points="9.5,-11.5 9.5,-48.5 70.5,-48.5 70.5,-11.5 9.5,-11.5"/>
<polygon fill="none" stroke="black" points="10,-31 10,-48 71,-48 71,-31 10,-31"/>
<text text-anchor="start" x="13.5" y="-37.5" font-family="Times New Roman,serif" font-size="10.00"> </text>
<text text-anchor="start" x="16.5" y="-37.5" font-family="Times New Roman,serif" font-size="10.00"> e2 :EdgePO </text>
<polygon fill="none" stroke="black" points="10,-11 10,-31 71,-31 71,-11 10,-11"/>
<text text-anchor="start" x="38" y="-19" font-family="Times New Roman,serif" font-size="10.00"> &#160;</text>
</g>
<!-- g1&#45;&#45;e2 -->
<g id="edge2" class="edge"><title>g1&#45;&#45;e2</title>
<path fill="none" stroke="black" d="M40,-96.2861C40,-82.2483 40,-65.6321 40,-52.6761"/>
<text text-anchor="middle" x="44.2262" y="-59.2392" font-family="Times New Roman,serif" font-size="10.00">edges</text>
</g>
<!-- g3 -->
<g id="node3" class="node"><title>g3</title>
<polygon fill="deepskyblue" stroke="deepskyblue" points="106.5,-100.5 106.5,-151.5 171.5,-151.5 171.5,-100.5 106.5,-100.5"/>
<text text-anchor="start" x="133" y="-141.5" font-family="Times New Roman,serif" font-size="10.00">«bound»</text>
<polygon fill="none" stroke="black" points="107,-120 107,-136 172,-136 172,-120 107,-120"/>
<text text-anchor="start" x="110.5" y="-126" font-family="Times New Roman,serif" font-size="10.00"> </text>
<text text-anchor="start" x="113.5" y="-126" font-family="Times New Roman,serif" font-size="10.00"> g3 :GraphPO </text>
<polygon fill="none" stroke="black" points="107,-100 107,-120 172,-120 172,-100 107,-100"/>
<text text-anchor="start" x="137" y="-108" font-family="Times New Roman,serif" font-size="10.00"> &#160;</text>
</g>
<!-- e4 -->
<g id="node4" class="node"><title>e4</title>
<polygon fill="deepskyblue" stroke="deepskyblue" points="108.5,-4.5 108.5,-55.5 169.5,-55.5 169.5,-4.5 108.5,-4.5"/>
<text text-anchor="start" x="133" y="-45.5" font-family="Times New Roman,serif" font-size="10.00" fill="green">«create»</text>
<polygon fill="none" stroke="green" points="109,-24 109,-40 170,-40 170,-24 109,-24"/>
<text text-anchor="start" x="112.5" y="-30" font-family="Times New Roman,serif" font-size="10.00"> </text>
<text text-anchor="start" x="115.5" y="-30" font-family="Times New Roman,serif" font-size="10.00" fill="green"> e4 :EdgePO </text>
<polygon fill="none" stroke="green" points="109,-4 109,-24 170,-24 170,-4 109,-4"/>
<text text-anchor="start" x="137" y="-12" font-family="Times New Roman,serif" font-size="10.00"> &#160;</text>
</g>
<!-- g3&#45;&#45;e4 -->
<g id="edge4" class="edge"><title>g3&#45;&#45;e4</title>
<path fill="none" stroke="green" d="M139,-96.2861C139,-84.624 139,-71.1822 139,-59.538"/>
<text text-anchor="middle" x="143.226" y="-66.1011" font-family="Times New Roman,serif" font-size="10.00" fill="green">gcs</text>
</g>
</g>
</svg>
