<?xml version="1.0" encoding="UTF-8" standalone="no"?>
<!DOCTYPE svg PUBLIC "-//W3C//DTD SVG 1.1//EN"
 "http://www.w3.org/Graphics/SVG/1.1/DTD/svg11.dtd">
<!-- Generated by graphviz version 2.28.0 (20110507.0327)
 -->
<!-- Title: ObjectDiagram Pages: 1 -->
<svg width="118pt" height="192pt"
 viewBox="0.00 0.00 118.00 192.00" xmlns="http://www.w3.org/2000/svg" xmlns:xlink="http://www.w3.org/1999/xlink">
<g id="graph1" class="graph" transform="scale(1 1) rotate(0) translate(4 188)">
<title>ObjectDiagram</title>
<polygon fill="white" stroke="white" points="-4,5 -4,-188 115,-188 115,5 -4,5"/>
<!-- s1 -->
<g id="node1" class="node"><title>s1</title>
<a xlink:href="../examples/de/uniks/jism/test/model/SortedMsg.java" xlink:title="&lt;TABLE&gt;">
<polygon fill="none" stroke="black" points="8,-162 8,-179 103,-179 103,-162 8,-162"/>
<text text-anchor="start" x="21.5" y="-168.5" font-family="Arial" font-size="10.00"> </text>
<text text-anchor="start" x="25.5" y="-168.5" font-family="Arial" font-size="10.00">s1 :SortedMsg</text>
</a>
<polygon fill="none" stroke="black" points="8,-114 8,-162 103,-162 103,-114 8,-114"/>
<text text-anchor="start" x="13" y="-150" font-family="Arial" font-size="10.00">parent = &quot;&quot;</text>
<text text-anchor="start" x="13" y="-136" font-family="Arial" font-size="10.00">number = 0</text>
<text text-anchor="start" x="13" y="-122" font-family="Arial" font-size="10.00">msg = &quot;Hallo Welt&quot;</text>
</g>
<!-- s2 -->
<g id="node2" class="node"><title>s2</title>
<a xlink:href="../examples/de/uniks/jism/test/model/SortedMsg.java" xlink:title="&lt;TABLE&gt;">
<polygon fill="none" stroke="black" points="18,-52 18,-69 93,-69 93,-52 18,-52"/>
<text text-anchor="start" x="21.5" y="-58.5" font-family="Arial" font-size="10.00"> </text>
<text text-anchor="start" x="25.5" y="-58.5" font-family="Arial" font-size="10.00">s2 :SortedMsg</text>
</a>
<polygon fill="none" stroke="black" points="18,-4 18,-52 93,-52 93,-4 18,-4"/>
<text text-anchor="start" x="23" y="-40" font-family="Arial" font-size="10.00">number = 0</text>
<text text-anchor="start" x="23" y="-26" font-family="Arial" font-size="10.00">child = &quot;&quot;</text>
<text text-anchor="start" x="23" y="-12" font-family="Arial" font-size="10.00">msg = &quot;Child&quot;</text>
</g>
<!-- s1&#45;&#45;s2 -->
<g id="edge2" class="edge"><title>s1&#45;&#45;s2</title>
<path fill="none" stroke="black" d="M55,-110.337C55,-98.5407 55,-85.4191 55,-73.6251"/>
<text text-anchor="middle" x="59.2262" y="-80.1882" font-family="Arial" font-size="10.00">child</text>
<text text-anchor="middle" x="50.7738" y="-98.7744" font-family="Arial" font-size="10.00">parent</text>
</g>
</g>
</svg>
