<?xml version="1.0" encoding="UTF-8" standalone="no"?>
<!DOCTYPE svg PUBLIC "-//W3C//DTD SVG 1.1//EN"
 "http://www.w3.org/Graphics/SVG/1.1/DTD/svg11.dtd">
<!-- Generated by graphviz version 2.28.0 (20110507.0327)
 -->
<!-- Title: ObjectDiagram Pages: 1 -->
<svg width="128pt" height="250pt"
 viewBox="0.00 0.00 128.00 250.00" xmlns="http://www.w3.org/2000/svg" xmlns:xlink="http://www.w3.org/1999/xlink">
<g id="graph1" class="graph" transform="scale(1 1) rotate(0) translate(4 246)">
<title>ObjectDiagram</title>
<polygon fill="white" stroke="white" points="-4,5 -4,-246 125,-246 125,5 -4,5"/>
<!-- g1 -->
<g id="node1" class="node"><title>g1</title>
<polygon fill="deepskyblue" stroke="deepskyblue" points="19.5,-186.5 19.5,-237.5 100.5,-237.5 100.5,-186.5 19.5,-186.5"/>
<text text-anchor="start" x="72" y="-227.5" font-family="Arial" font-size="10.00">«bound»</text>
<polygon fill="none" stroke="black" points="20,-206 20,-222 101,-222 101,-206 20,-206"/>
<text text-anchor="start" x="23.5" y="-212" font-family="Arial" font-size="10.00"> </text>
<text text-anchor="start" x="27.5" y="-212" font-family="Arial" font-size="10.00"> g1 :GenericGraphPO </text>
<polygon fill="none" stroke="black" points="20,-186 20,-206 101,-206 101,-186 20,-186"/>
<text text-anchor="start" x="57" y="-194" font-family="Arial" font-size="10.00"> &#160;</text>
</g>
<!-- g2 -->
<g id="node2" class="node"><title>g2</title>
<polygon fill="deepskyblue" stroke="deepskyblue" points="8,-76.5 8,-141.5 112,-141.5 112,-76.5 8,-76.5"/>
<polygon fill="none" stroke="black" points="8,-124 8,-141 112,-141 112,-124 8,-124"/>
<text text-anchor="start" x="13.5" y="-130.5" font-family="Arial" font-size="10.00"> </text>
<text text-anchor="start" x="17.5" y="-130.5" font-family="Arial" font-size="10.00"> g2 :GenericLinkPO </text>
<polygon fill="none" stroke="black" points="8,-76 8,-124 112,-124 112,-76 8,-76"/>
<text text-anchor="start" x="13.5" y="-112" font-family="Arial" font-size="10.00"> srcLabel == &quot;graph&quot; </text>
<text text-anchor="start" x="13.5" y="-98" font-family="Arial" font-size="10.00" fill="green"> srcLabel := &quot;parent&quot; </text>
<text text-anchor="start" x="20.5" y="-84" font-family="Arial" font-size="10.00" fill="green"> tgtLabel := &quot;gcs&quot; </text>
</g>
<!-- g1&#45;&#45;g2 -->
<g id="edge4" class="edge"><title>g1&#45;&#45;g2</title>
<path fill="none" stroke="black" d="M60,-182.328C60,-170.897 60,-157.618 60,-145.582"/>
<text text-anchor="middle" x="64.2262" y="-152.145" font-family="Arial" font-size="10.00">links</text>
</g>
<!-- allMatches_g2 -->
<g id="node3" class="node"><title>allMatches_g2</title>
<text text-anchor="middle" x="60" y="-15.5" font-family="Arial" font-size="10.00">allMatches</text>
</g>
<!-- g2&#45;&#45;allMatches_g2 -->
<g id="edge2" class="edge"><title>g2&#45;&#45;allMatches_g2</title>
<path fill="none" stroke="black" stroke-dasharray="1,5" d="M60,-72.3131C60,-59.9329 60,-46.6046 60,-36.3714"/>
</g>
</g>
</svg>
