<?xml version="1.0" encoding="UTF-8" standalone="no"?>
<!DOCTYPE svg PUBLIC "-//W3C//DTD SVG 1.1//EN"
 "http://www.w3.org/Graphics/SVG/1.1/DTD/svg11.dtd">
<!-- Generated by graphviz version 2.28.0 (20110507.0327)
 -->
<!-- Title: ObjectDiagram Pages: 1 -->
<svg width="4205pt" height="126pt"
 viewBox="0.00 0.00 4205.00 126.00" xmlns="http://www.w3.org/2000/svg" xmlns:xlink="http://www.w3.org/1999/xlink">
<g id="graph1" class="graph" transform="scale(1 1) rotate(0) translate(4 122)">
<title>ObjectDiagram</title>
<polygon fill="white" stroke="white" points="-4,5 -4,-122 4202,-122 4202,5 -4,5"/>
<!-- g1 -->
<g id="node1" class="node"><title>g1</title>
<text text-anchor="middle" x="1973" y="-15.5" font-family="Times New Roman,serif" font-size="10.00">g1</text>
</g>
<!-- G1 -->
<g id="node2" class="node"><title>G1</title>
<polygon fill="none" stroke="black" points="4001,-86 4001,-103 4189,-103 4189,-86 4001,-86"/>
<text text-anchor="start" x="4004.5" y="-92.5" font-family="Times New Roman,serif" font-size="10.00"> </text>
<text text-anchor="start" x="4007.5" y="-92.5" font-family="Times New Roman,serif" font-size="10.00">g1.G1 :org.sdmlib.examples.helloworld.Graph</text>
</g>
<!-- N2 -->
<g id="node3" class="node"><title>N2</title>
<polygon fill="none" stroke="black" points="8,-96 8,-113 195,-113 195,-96 8,-96"/>
<text text-anchor="start" x="11.5" y="-102.5" font-family="Times New Roman,serif" font-size="10.00"> </text>
<text text-anchor="start" x="14.5" y="-102.5" font-family="Times New Roman,serif" font-size="10.00">g1.N2 :org.sdmlib.examples.helloworld.Node</text>
<polygon fill="none" stroke="black" points="8,-76 8,-96 195,-96 195,-76 8,-76"/>
<text text-anchor="start" x="80" y="-84" font-family="Times New Roman,serif" font-size="10.00">text = &quot;n1&quot;</text>
</g>
<!-- N2&#45;&#45;g1 -->
<g id="edge2" class="edge"><title>N2&#45;&#45;g1</title>
<path fill="none" stroke="black" d="M202.518,-73.1806C205.71,-72.7498 208.877,-72.354 212,-72 568.727,-31.5625 1752,-20.7204 1945.99,-19.1991"/>
</g>
<!-- E3 -->
<g id="node4" class="node"><title>E3</title>
<polygon fill="none" stroke="black" points="229,-96 229,-113 413,-113 413,-96 229,-96"/>
<text text-anchor="start" x="232.5" y="-102.5" font-family="Times New Roman,serif" font-size="10.00"> </text>
<text text-anchor="start" x="235.5" y="-102.5" font-family="Times New Roman,serif" font-size="10.00">g1.E3 :org.sdmlib.examples.helloworld.Edge</text>
<polygon fill="none" stroke="black" points="229,-76 229,-96 413,-96 413,-76 229,-76"/>
<text text-anchor="start" x="297.5" y="-84" font-family="Times New Roman,serif" font-size="10.00">text = &quot;e10&quot;</text>
</g>
<!-- E3&#45;&#45;g1 -->
<g id="edge4" class="edge"><title>E3&#45;&#45;g1</title>
<path fill="none" stroke="black" d="M416.951,-72.4952C418.308,-72.3227 419.658,-72.1574 421,-72 732.638,-35.4509 1764.83,-21.4244 1945.84,-19.2942"/>
</g>
<!-- E3&#45;&#45;g1 -->
<g id="edge6" class="edge"><title>E3&#45;&#45;g1</title>
<path fill="none" stroke="black" d="M421.099,-74.4589C427.15,-73.5206 433.152,-72.6859 439,-72 748.143,-35.7436 1766.34,-21.6506 1945.88,-19.3477"/>
</g>
<!-- N4 -->
<g id="node5" class="node"><title>N4</title>
<polygon fill="none" stroke="black" points="448,-96 448,-113 635,-113 635,-96 448,-96"/>
<text text-anchor="start" x="451.5" y="-102.5" font-family="Times New Roman,serif" font-size="10.00"> </text>
<text text-anchor="start" x="454.5" y="-102.5" font-family="Times New Roman,serif" font-size="10.00">g1.N4 :org.sdmlib.examples.helloworld.Node</text>
<polygon fill="none" stroke="black" points="448,-76 448,-96 635,-96 635,-76 448,-76"/>
<text text-anchor="start" x="520" y="-84" font-family="Times New Roman,serif" font-size="10.00">text = &quot;n2&quot;</text>
</g>
<!-- N4&#45;&#45;g1 -->
<g id="edge8" class="edge"><title>N4&#45;&#45;g1</title>
<path fill="none" stroke="black" d="M639.176,-72.4698C640.457,-72.3069 641.732,-72.1502 643,-72 907.828,-40.6363 1780.31,-22.542 1945.82,-19.4695"/>
</g>
<!-- N4&#45;&#45;g1 -->
<g id="edge10" class="edge"><title>N4&#45;&#45;g1</title>
<path fill="none" stroke="black" d="M642.48,-74.5495C648.741,-73.5816 654.952,-72.7163 661,-72 923.264,-40.94 1781.47,-22.8937 1945.74,-19.563"/>
</g>
<!-- E5 -->
<g id="node6" class="node"><title>E5</title>
<polygon fill="none" stroke="black" points="669,-96 669,-113 853,-113 853,-96 669,-96"/>
<text text-anchor="start" x="672.5" y="-102.5" font-family="Times New Roman,serif" font-size="10.00"> </text>
<text text-anchor="start" x="675.5" y="-102.5" font-family="Times New Roman,serif" font-size="10.00">g1.E5 :org.sdmlib.examples.helloworld.Edge</text>
<polygon fill="none" stroke="black" points="669,-76 669,-96 853,-96 853,-76 669,-76"/>
<text text-anchor="start" x="737.5" y="-84" font-family="Times New Roman,serif" font-size="10.00">text = &quot;e11&quot;</text>
</g>
<!-- E5&#45;&#45;g1 -->
<g id="edge12" class="edge"><title>E5&#45;&#45;g1</title>
<path fill="none" stroke="black" d="M857.244,-72.4826C858.502,-72.3157 859.755,-72.1547 861,-72 1290.49,-18.6485 1820.23,-18.1769 1945.6,-18.8104"/>
</g>
<!-- E5&#45;&#45;g1 -->
<g id="edge14" class="edge"><title>E5&#45;&#45;g1</title>
<path fill="none" stroke="black" d="M861.11,-74.552C867.159,-73.591 873.157,-72.7258 879,-72 1301.83,-19.4757 1821.83,-18.2042 1945.7,-18.7819"/>
</g>
<!-- N6 -->
<g id="node7" class="node"><title>N6</title>
<polygon fill="none" stroke="black" points="888,-96 888,-113 1075,-113 1075,-96 888,-96"/>
<text text-anchor="start" x="891.5" y="-102.5" font-family="Times New Roman,serif" font-size="10.00"> </text>
<text text-anchor="start" x="894.5" y="-102.5" font-family="Times New Roman,serif" font-size="10.00">g1.N6 :org.sdmlib.examples.helloworld.Node</text>
<polygon fill="none" stroke="black" points="888,-76 888,-96 1075,-96 1075,-76 888,-76"/>
<text text-anchor="start" x="960" y="-84" font-family="Times New Roman,serif" font-size="10.00">text = &quot;n3&quot;</text>
</g>
<!-- N6&#45;&#45;g1 -->
<g id="edge16" class="edge"><title>N6&#45;&#45;g1</title>
<path fill="none" stroke="black" d="M1079.48,-72.4658C1080.66,-72.3057 1081.83,-72.1503 1083,-72 1421.15,-28.5222 1837.01,-20.5846 1945.97,-19.2516"/>
</g>
<!-- N6&#45;&#45;g1 -->
<g id="edge18" class="edge"><title>N6&#45;&#45;g1</title>
<path fill="none" stroke="black" d="M1082.5,-74.6895C1088.75,-73.6878 1094.96,-72.7767 1101,-72 1432.31,-29.4015 1838.22,-20.9202 1945.87,-19.3409"/>
</g>
<!-- E7 -->
<g id="node8" class="node"><title>E7</title>
<polygon fill="none" stroke="black" points="1109,-96 1109,-113 1293,-113 1293,-96 1109,-96"/>
<text text-anchor="start" x="1112.5" y="-102.5" font-family="Times New Roman,serif" font-size="10.00"> </text>
<text text-anchor="start" x="1115.5" y="-102.5" font-family="Times New Roman,serif" font-size="10.00">g1.E7 :org.sdmlib.examples.helloworld.Edge</text>
<polygon fill="none" stroke="black" points="1109,-76 1109,-96 1293,-96 1293,-76 1109,-76"/>
<text text-anchor="start" x="1177.5" y="-84" font-family="Times New Roman,serif" font-size="10.00">text = &quot;e12&quot;</text>
</g>
<!-- E7&#45;&#45;g1 -->
<g id="edge22" class="edge"><title>E7&#45;&#45;g1</title>
<path fill="none" stroke="black" d="M1288.54,-72.4964C1289.7,-72.3266 1290.85,-72.161 1292,-72 1543.57,-36.6856 1852.4,-22.926 1945.7,-19.7544"/>
</g>
<!-- E7&#45;&#45;g1 -->
<g id="edge24" class="edge"><title>E7&#45;&#45;g1</title>
<path fill="none" stroke="black" d="M1301.15,-76.3146C1310.25,-74.7031 1319.3,-73.2211 1328,-72 1566.42,-38.5315 1856.27,-24.4234 1945.89,-20.3402"/>
</g>
<!-- E7&#45;&#45;g1 -->
<g id="edge20" class="edge"><title>E7&#45;&#45;g1</title>
<path fill="none" stroke="black" d="M1301,-73.3336C1304.03,-72.8622 1307.04,-72.416 1310,-72 1555.28,-37.5684 1854.99,-23.6274 1945.72,-20.0123"/>
</g>
<!-- E8 -->
<g id="node9" class="node"><title>E8</title>
<polygon fill="none" stroke="black" points="1327,-96 1327,-113 1511,-113 1511,-96 1327,-96"/>
<text text-anchor="start" x="1330.5" y="-102.5" font-family="Times New Roman,serif" font-size="10.00"> </text>
<text text-anchor="start" x="1333.5" y="-102.5" font-family="Times New Roman,serif" font-size="10.00">g1.E8 :org.sdmlib.examples.helloworld.Edge</text>
<polygon fill="none" stroke="black" points="1327,-76 1327,-96 1511,-96 1511,-76 1327,-76"/>
<text text-anchor="start" x="1395.5" y="-84" font-family="Times New Roman,serif" font-size="10.00">text = &quot;e13&quot;</text>
</g>
<!-- E8&#45;&#45;g1 -->
<g id="edge26" class="edge"><title>E8&#45;&#45;g1</title>
<path fill="none" stroke="black" d="M1516.13,-72.4652C1517.09,-72.3078 1518.05,-72.1527 1519,-72 1679.75,-46.2473 1875.02,-27.1841 1945.9,-21.0805"/>
</g>
<!-- E8&#45;&#45;g1 -->
<g id="edge28" class="edge"><title>E8&#45;&#45;g1</title>
<path fill="none" stroke="black" d="M1519.18,-75.0305C1525.21,-73.9531 1531.19,-72.9314 1537,-72 1691.22,-47.2934 1877.22,-28.7439 1945.97,-21.888"/>
</g>
<!-- N9 -->
<g id="node10" class="node"><title>N9</title>
<polygon fill="none" stroke="black" points="1546,-96 1546,-113 1733,-113 1733,-96 1546,-96"/>
<text text-anchor="start" x="1549.5" y="-102.5" font-family="Times New Roman,serif" font-size="10.00"> </text>
<text text-anchor="start" x="1552.5" y="-102.5" font-family="Times New Roman,serif" font-size="10.00">g1.N9 :org.sdmlib.examples.helloworld.Node</text>
<polygon fill="none" stroke="black" points="1546,-76 1546,-96 1733,-96 1733,-76 1546,-76"/>
<text text-anchor="start" x="1618" y="-84" font-family="Times New Roman,serif" font-size="10.00">text = &quot;n4&quot;</text>
</g>
<!-- N9&#45;&#45;g1 -->
<g id="edge30" class="edge"><title>N9&#45;&#45;g1</title>
<path fill="none" stroke="black" d="M1728.98,-72.4075C1801.53,-55.8334 1898.83,-34.1703 1945.69,-24.3062"/>
</g>
<!-- N9&#45;&#45;g1 -->
<g id="edge32" class="edge"><title>N9&#45;&#45;g1</title>
<path fill="none" stroke="black" d="M1740.43,-72.6084C1811.44,-56.9349 1901.21,-36.6263 1945.66,-26.0719"/>
</g>
<!-- E10 -->
<g id="node11" class="node"><title>E10</title>
<polygon fill="none" stroke="black" points="1767,-96 1767,-113 1955,-113 1955,-96 1767,-96"/>
<text text-anchor="start" x="1770.5" y="-102.5" font-family="Times New Roman,serif" font-size="10.00"> </text>
<text text-anchor="start" x="1773.5" y="-102.5" font-family="Times New Roman,serif" font-size="10.00">g1.E10 :org.sdmlib.examples.helloworld.Edge</text>
<polygon fill="none" stroke="black" points="1767,-76 1767,-96 1955,-96 1955,-76 1767,-76"/>
<text text-anchor="start" x="1837.5" y="-84" font-family="Times New Roman,serif" font-size="10.00">text = &quot;e14&quot;</text>
</g>
<!-- E10&#45;&#45;g1 -->
<g id="edge34" class="edge"><title>E10&#45;&#45;g1</title>
<path fill="none" stroke="black" d="M1887.21,-72.3069C1904.87,-59.8473 1927.97,-44.5381 1945.84,-33.5274"/>
</g>
<!-- E10&#45;&#45;g1 -->
<g id="edge36" class="edge"><title>E10&#45;&#45;g1</title>
<path fill="none" stroke="black" d="M1899.58,-72.3069C1917.64,-60.7991 1938.31,-46.8604 1953.2,-36.1228"/>
</g>
<!-- N11 -->
<g id="node12" class="node"><title>N11</title>
<polygon fill="none" stroke="black" points="1990,-96 1990,-113 2181,-113 2181,-96 1990,-96"/>
<text text-anchor="start" x="1993.5" y="-102.5" font-family="Times New Roman,serif" font-size="10.00"> </text>
<text text-anchor="start" x="1996.5" y="-102.5" font-family="Times New Roman,serif" font-size="10.00">g1.N11 :org.sdmlib.examples.helloworld.Node</text>
<polygon fill="none" stroke="black" points="1990,-76 1990,-96 2181,-96 2181,-76 1990,-76"/>
<text text-anchor="start" x="2064" y="-84" font-family="Times New Roman,serif" font-size="10.00">text = &quot;n5&quot;</text>
</g>
<!-- N11&#45;&#45;g1 -->
<g id="edge38" class="edge"><title>N11&#45;&#45;g1</title>
<path fill="none" stroke="black" d="M2046.42,-72.3069C2028.36,-60.7991 2007.69,-46.8604 1992.8,-36.1228"/>
</g>
<!-- N11&#45;&#45;g1 -->
<g id="edge40" class="edge"><title>N11&#45;&#45;g1</title>
<path fill="none" stroke="black" d="M2058.79,-72.3069C2041.13,-59.8473 2018.03,-44.5381 2000.16,-33.5274"/>
</g>
<!-- E12 -->
<g id="node13" class="node"><title>E12</title>
<polygon fill="none" stroke="black" points="2215,-96 2215,-113 2403,-113 2403,-96 2215,-96"/>
<text text-anchor="start" x="2218.5" y="-102.5" font-family="Times New Roman,serif" font-size="10.00"> </text>
<text text-anchor="start" x="2221.5" y="-102.5" font-family="Times New Roman,serif" font-size="10.00">g1.E12 :org.sdmlib.examples.helloworld.Edge</text>
<polygon fill="none" stroke="black" points="2215,-76 2215,-96 2403,-96 2403,-76 2215,-76"/>
<text text-anchor="start" x="2285.5" y="-84" font-family="Times New Roman,serif" font-size="10.00">text = &quot;e18&quot;</text>
</g>
<!-- E12&#45;&#45;g1 -->
<g id="edge42" class="edge"><title>E12&#45;&#45;g1</title>
<path fill="none" stroke="black" d="M2206.55,-72.508C2134.94,-56.7952 2044.55,-36.4664 2000.08,-25.9651"/>
</g>
<!-- E12&#45;&#45;g1 -->
<g id="edge44" class="edge"><title>E12&#45;&#45;g1</title>
<path fill="none" stroke="black" d="M2218.44,-72.4075C2145.27,-55.7901 2047.06,-34.0571 2000.08,-24.2292"/>
</g>
<!-- E13 -->
<g id="node14" class="node"><title>E13</title>
<polygon fill="none" stroke="black" points="2437,-96 2437,-113 2625,-113 2625,-96 2437,-96"/>
<text text-anchor="start" x="2440.5" y="-102.5" font-family="Times New Roman,serif" font-size="10.00"> </text>
<text text-anchor="start" x="2443.5" y="-102.5" font-family="Times New Roman,serif" font-size="10.00">g1.E13 :org.sdmlib.examples.helloworld.Edge</text>
<polygon fill="none" stroke="black" points="2437,-76 2437,-96 2625,-96 2625,-76 2437,-76"/>
<text text-anchor="start" x="2507.5" y="-84" font-family="Times New Roman,serif" font-size="10.00">text = &quot;e15&quot;</text>
</g>
<!-- E13&#45;&#45;g1 -->
<g id="edge46" class="edge"><title>E13&#45;&#45;g1</title>
<path fill="none" stroke="black" d="M2428.98,-76.6146C2419.82,-74.9561 2410.73,-73.3809 2402,-72 2250.52,-48.0448 2068.6,-29.6708 2000.04,-22.3989"/>
</g>
<!-- E13&#45;&#45;g1 -->
<g id="edge48" class="edge"><title>E13&#45;&#45;g1</title>
<path fill="none" stroke="black" d="M2428.84,-73.4415C2425.86,-72.9422 2422.91,-72.4603 2420,-72 2261.57,-46.9462 2069.85,-27.9973 2000.06,-21.469"/>
</g>
<!-- E13&#45;&#45;g1 -->
<g id="edge50" class="edge"><title>E13&#45;&#45;g1</title>
<path fill="none" stroke="black" d="M2440.92,-72.4673C2439.94,-72.3093 2438.97,-72.1534 2438,-72 2273.4,-45.9696 2072.85,-26.5295 2000.06,-20.7626"/>
</g>
<!-- E14 -->
<g id="node15" class="node"><title>E14</title>
<polygon fill="none" stroke="black" points="2659,-96 2659,-113 2847,-113 2847,-96 2659,-96"/>
<text text-anchor="start" x="2662.5" y="-102.5" font-family="Times New Roman,serif" font-size="10.00"> </text>
<text text-anchor="start" x="2665.5" y="-102.5" font-family="Times New Roman,serif" font-size="10.00">g1.E14 :org.sdmlib.examples.helloworld.Edge</text>
<polygon fill="none" stroke="black" points="2659,-76 2659,-96 2847,-96 2847,-76 2659,-76"/>
<text text-anchor="start" x="2729.5" y="-84" font-family="Times New Roman,serif" font-size="10.00">text = &quot;e19&quot;</text>
</g>
<!-- E14&#45;&#45;g1 -->
<g id="edge52" class="edge"><title>E14&#45;&#45;g1</title>
<path fill="none" stroke="black" d="M2650.88,-74.7224C2644.83,-73.727 2638.84,-72.807 2633,-72 2388.61,-38.2185 2090.8,-24.0604 2000.24,-20.1752"/>
</g>
<!-- E14&#45;&#45;g1 -->
<g id="edge54" class="edge"><title>E14&#45;&#45;g1</title>
<path fill="none" stroke="black" d="M2654.52,-72.4975C2653.34,-72.3273 2652.17,-72.1614 2651,-72 2399.98,-37.3011 2092.59,-23.3059 2000.29,-19.8812"/>
</g>
<!-- N15 -->
<g id="node16" class="node"><title>N15</title>
<polygon fill="none" stroke="black" points="2882,-96 2882,-113 3073,-113 3073,-96 2882,-96"/>
<text text-anchor="start" x="2885.5" y="-102.5" font-family="Times New Roman,serif" font-size="10.00"> </text>
<text text-anchor="start" x="2888.5" y="-102.5" font-family="Times New Roman,serif" font-size="10.00">g1.N15 :org.sdmlib.examples.helloworld.Node</text>
<polygon fill="none" stroke="black" points="2882,-76 2882,-96 3073,-96 3073,-76 2882,-76"/>
<text text-anchor="start" x="2956" y="-84" font-family="Times New Roman,serif" font-size="10.00">text = &quot;n6&quot;</text>
</g>
<!-- N15&#45;&#45;g1 -->
<g id="edge56" class="edge"><title>N15&#45;&#45;g1</title>
<path fill="none" stroke="black" d="M2873.63,-73.3054C2870.39,-72.8385 2867.17,-72.4014 2864,-72 2525.01,-29.1121 2108.96,-20.7853 2000.09,-19.3007"/>
</g>
<!-- N16 -->
<g id="node17" class="node"><title>N16</title>
<polygon fill="none" stroke="black" points="3107,-96 3107,-113 3298,-113 3298,-96 3107,-96"/>
<text text-anchor="start" x="3110.5" y="-102.5" font-family="Times New Roman,serif" font-size="10.00"> </text>
<text text-anchor="start" x="3113.5" y="-102.5" font-family="Times New Roman,serif" font-size="10.00">g1.N16 :org.sdmlib.examples.helloworld.Node</text>
<polygon fill="none" stroke="black" points="3107,-76 3107,-96 3298,-96 3298,-76 3107,-76"/>
<text text-anchor="start" x="3181" y="-84" font-family="Times New Roman,serif" font-size="10.00">text = &quot;n7&quot;</text>
</g>
<!-- N16&#45;&#45;g1 -->
<g id="edge58" class="edge"><title>N16&#45;&#45;g1</title>
<path fill="none" stroke="black" d="M3098.64,-73.2554C3095.39,-72.8029 3092.17,-72.3824 3089,-72 2657.15,-19.9844 2125.53,-18.4289 2000.31,-18.8432"/>
</g>
<!-- N17 -->
<g id="node18" class="node"><title>N17</title>
<polygon fill="none" stroke="black" points="3332,-96 3332,-113 3523,-113 3523,-96 3332,-96"/>
<text text-anchor="start" x="3335.5" y="-102.5" font-family="Times New Roman,serif" font-size="10.00"> </text>
<text text-anchor="start" x="3338.5" y="-102.5" font-family="Times New Roman,serif" font-size="10.00">g1.N17 :org.sdmlib.examples.helloworld.Node</text>
<polygon fill="none" stroke="black" points="3332,-76 3332,-96 3523,-96 3523,-76 3332,-76"/>
<text text-anchor="start" x="3406" y="-84" font-family="Times New Roman,serif" font-size="10.00">text = &quot;n8&quot;</text>
</g>
<!-- N17&#45;&#45;g1 -->
<g id="edge60" class="edge"><title>N17&#45;&#45;g1</title>
<path fill="none" stroke="black" d="M3323.64,-73.2221C3320.4,-72.7793 3317.18,-72.3698 3314,-72 3046.12,-40.8145 2166.12,-22.69 2000.14,-19.5065"/>
</g>
<!-- E18 -->
<g id="node19" class="node"><title>E18</title>
<polygon fill="none" stroke="black" points="3557,-96 3557,-113 3745,-113 3745,-96 3557,-96"/>
<text text-anchor="start" x="3560.5" y="-102.5" font-family="Times New Roman,serif" font-size="10.00"> </text>
<text text-anchor="start" x="3563.5" y="-102.5" font-family="Times New Roman,serif" font-size="10.00">g1.E18 :org.sdmlib.examples.helloworld.Edge</text>
<polygon fill="none" stroke="black" points="3557,-76 3557,-96 3745,-96 3745,-76 3557,-76"/>
<text text-anchor="start" x="3627.5" y="-84" font-family="Times New Roman,serif" font-size="10.00">text = &quot;e16&quot;</text>
</g>
<!-- E18&#45;&#45;g1 -->
<g id="edge62" class="edge"><title>E18&#45;&#45;g1</title>
<path fill="none" stroke="black" d="M3548.94,-75.967C3539.47,-74.4099 3530.06,-73.036 3521,-72 3208.33,-36.234 2181.63,-21.8251 2000.29,-19.384"/>
</g>
<!-- E18&#45;&#45;g1 -->
<g id="edge64" class="edge"><title>E18&#45;&#45;g1</title>
<path fill="none" stroke="black" d="M3548.87,-73.2381C3545.54,-72.7867 3542.25,-72.3716 3539,-72 3223.63,-35.9248 2181.83,-21.5776 2000.14,-19.3234"/>
</g>
<!-- E18&#45;&#45;g1 -->
<g id="edge66" class="edge"><title>E18&#45;&#45;g1</title>
<path fill="none" stroke="black" d="M3561.16,-72.4959C3559.76,-72.3231 3558.38,-72.1576 3557,-72 3239.27,-35.6543 2184.16,-21.3637 2000.26,-19.2747"/>
</g>
<!-- E19 -->
<g id="node20" class="node"><title>E19</title>
<polygon fill="none" stroke="black" points="3779,-96 3779,-113 3967,-113 3967,-96 3779,-96"/>
<text text-anchor="start" x="3782.5" y="-102.5" font-family="Times New Roman,serif" font-size="10.00"> </text>
<text text-anchor="start" x="3785.5" y="-102.5" font-family="Times New Roman,serif" font-size="10.00">g1.E19 :org.sdmlib.examples.helloworld.Edge</text>
<polygon fill="none" stroke="black" points="3779,-76 3779,-96 3967,-96 3967,-76 3779,-76"/>
<text text-anchor="start" x="3849.5" y="-84" font-family="Times New Roman,serif" font-size="10.00">text = &quot;e17&quot;</text>
</g>
<!-- E19&#45;&#45;g1 -->
<g id="edge68" class="edge"><title>E19&#45;&#45;g1</title>
<path fill="none" stroke="black" d="M3770.78,-75.7753C3761.71,-74.2884 3752.69,-72.9827 3744,-72 3384.1,-31.2892 2196.11,-20.773 2000.27,-19.2187"/>
</g>
<!-- E19&#45;&#45;g1 -->
<g id="edge70" class="edge"><title>E19&#45;&#45;g1</title>
<path fill="none" stroke="black" d="M3770.88,-73.0984C3767.89,-72.6992 3764.93,-72.3312 3762,-72 3399.4,-30.9836 2196.23,-20.6169 2000.13,-19.1852"/>
</g>
<!-- E19&#45;&#45;g1 -->
<g id="edge72" class="edge"><title>E19&#45;&#45;g1</title>
<path fill="none" stroke="black" d="M3784.12,-72.4872C3782.74,-72.3171 3781.37,-72.1546 3780,-72 3414.89,-30.6998 2197.54,-20.4749 2000.01,-19.1568"/>
</g>
</g>
</svg>
