<?xml version="1.0" encoding="UTF-8" standalone="no"?>
<!DOCTYPE svg PUBLIC "-//W3C//DTD SVG 1.1//EN"
 "http://www.w3.org/Graphics/SVG/1.1/DTD/svg11.dtd">
<!-- Generated by graphviz version 2.26.3 (20100126.1600)
 -->
<!-- Title: ObjectDiagram Pages: 1 -->
<svg width="238pt" height="164pt"
 viewBox="0.00 0.00 238.00 164.00" xmlns="http://www.w3.org/2000/svg" xmlns:xlink="http://www.w3.org/1999/xlink">
<g id="graph1" class="graph" transform="scale(1 1) rotate(0) translate(4 160)">
<title>ObjectDiagram</title>
<polygon fill="white" stroke="white" points="-4,5 -4,-160 235,-160 235,5 -4,5"/>
<!-- WilliAllee -->
<g id="node1" class="node"><title>WilliAllee</title>
<polygon fill="none" stroke="black" points="66,-134 66,-151 162,-151 162,-134 66,-134"/>
<text text-anchor="start" x="69.5" y="-140.167" font-family="Times Roman,serif" font-size="10.00"> </text>
<text text-anchor="start" x="73.5" y="-140.167" font-family="Times Roman,serif" font-size="10.00">WilliAllee :Building</text>
<polygon fill="none" stroke="black" points="66,-114 66,-134 162,-134 162,-114 66,-114"/>
<text text-anchor="start" x="75.5" y="-121.667" font-family="Times Roman,serif" font-size="10.00">name = &quot;WA73&quot;</text>
</g>
<!-- seFloor -->
<g id="node2" class="node"><title>seFloor</title>
<polygon fill="none" stroke="black" points="8,-45 8,-62 96,-62 96,-45 8,-45"/>
<text text-anchor="start" x="18" y="-51.1667" font-family="Times Roman,serif" font-size="10.00"> </text>
<text text-anchor="start" x="22" y="-51.1667" font-family="Times Roman,serif" font-size="10.00">seFloor :Floor</text>
<polygon fill="none" stroke="black" points="8,-11 8,-45 96,-45 96,-11 8,-11"/>
<text text-anchor="start" x="13.5" y="-32.6667" font-family="Times Roman,serif" font-size="10.00">name = &quot;WA13&quot;</text>
<text text-anchor="start" x="27" y="-18.6667" font-family="Times Roman,serif" font-size="10.00">level = &quot;1&quot;</text>
</g>
<!-- WilliAllee&#45;&#45;seFloor -->
<g id="edge2" class="edge"><title>WilliAllee&#45;&#45;seFloor</title>
<path fill="none" stroke="black" d="M99.3069,-110.249C90.8559,-97.164 80.1447,-80.5789 71.0524,-66.5006"/>
<text text-anchor="middle" x="79.5196" y="-68.8211" font-family="Times Roman,serif" font-size="10.00">has</text>
<text text-anchor="middle" x="90.8398" y="-101.929" font-family="Times Roman,serif" font-size="10.00"> </text>
</g>
<!-- digitalFloor -->
<g id="node3" class="node"><title>digitalFloor</title>
<polygon fill="none" stroke="black" points="130,-52 130,-69 223,-69 223,-52 130,-52"/>
<text text-anchor="start" x="133.5" y="-58.1667" font-family="Times Roman,serif" font-size="10.00"> </text>
<text text-anchor="start" x="137.5" y="-58.1667" font-family="Times Roman,serif" font-size="10.00">digitalFloor :Floor</text>
<polygon fill="none" stroke="black" points="130,-4 130,-52 223,-52 223,-4 130,-4"/>
<text text-anchor="start" x="138" y="-39.6667" font-family="Times Roman,serif" font-size="10.00">name = &quot;WA03&quot;</text>
<text text-anchor="start" x="151.5" y="-25.6667" font-family="Times Roman,serif" font-size="10.00">level = &quot;0&quot;</text>
<text text-anchor="start" x="138.5" y="-11.6667" font-family="Times Roman,serif" font-size="10.00">guest = &quot;Ulrich&quot;</text>
</g>
<!-- WilliAllee&#45;&#45;digitalFloor -->
<g id="edge4" class="edge"><title>WilliAllee&#45;&#45;digitalFloor</title>
<path fill="none" stroke="black" d="M128.693,-110.249C135.712,-99.3819 144.289,-86.1004 152.204,-73.8458"/>
<text text-anchor="middle" x="150.837" y="-80.752" font-family="Times Roman,serif" font-size="10.00">has</text>
<text text-anchor="middle" x="130.06" y="-97.3432" font-family="Times Roman,serif" font-size="10.00"> </text>
</g>
</g>
</svg>
