<?xml version="1.0" encoding="UTF-8" standalone="no"?>
<!DOCTYPE svg PUBLIC "-//W3C//DTD SVG 1.1//EN"
 "http://www.w3.org/Graphics/SVG/1.1/DTD/svg11.dtd">
<!-- Generated by graphviz version 2.28.0 (20110507.0327)
 -->
<!-- Title: ObjectDiagram Pages: 1 -->
<svg width="914pt" height="428pt"
 viewBox="0.00 0.00 914.00 428.00" xmlns="http://www.w3.org/2000/svg" xmlns:xlink="http://www.w3.org/1999/xlink">
<g id="graph1" class="graph" transform="scale(1 1) rotate(0) translate(4 424)">
<title>ObjectDiagram</title>
<polygon fill="white" stroke="white" points="-4,5 -4,-424 911,-424 911,5 -4,5"/>
<!-- s1 -->
<g id="node1" class="node"><title>s1</title>
<a xlink:href="../../SDMLib/src/org/sdmlib/storyboards/StoryboardWall.java" xlink:title="&lt;TABLE&gt;">
<polygon fill="none" stroke="black" points="231,-339 231,-356 326,-356 326,-339 231,-339"/>
<text text-anchor="start" x="234.5" y="-345.5" font-family="Arial" font-size="10.00"> </text>
<text text-anchor="start" x="238.5" y="-345.5" font-family="Arial" font-size="10.00">s1 :StoryboardWall</text>
</a>
</g>
<!-- s3 -->
<g id="node2" class="node"><title>s3</title>
<a xlink:href="../../SDMLib/src/org/sdmlib/storyboards/Storyboard.java" xlink:title="&lt;TABLE&gt;">
<polygon fill="none" stroke="black" points="226,-176 226,-193 330,-193 330,-176 226,-176"/>
<text text-anchor="start" x="244" y="-182.5" font-family="Arial" font-size="10.00"> </text>
<text text-anchor="start" x="248" y="-182.5" font-family="Arial" font-size="10.00">s3 :Storyboard</text>
</a>
<polygon fill="none" stroke="black" points="226,-128 226,-176 330,-176 330,-128 226,-128"/>
<text text-anchor="start" x="231" y="-164" font-family="Arial" font-size="10.00">rootDir = &quot;test&quot;</text>
<text text-anchor="start" x="231" y="-150" font-family="Arial" font-size="10.00">stepCounter = 0</text>
<text text-anchor="start" x="231" y="-136" font-family="Arial" font-size="10.00">stepDoneCounter = 0</text>
</g>
<!-- s1&#45;&#45;s3 -->
<g id="edge2" class="edge"><title>s1&#45;&#45;s3</title>
<path fill="none" stroke="black" d="M278,-329.927C278,-299.962 278,-237.318 278,-197.588"/>
<text text-anchor="middle" x="282.226" y="-204.151" font-family="Arial" font-size="10.00">storyboard</text>
<text text-anchor="middle" x="273.774" y="-318.364" font-family="Arial" font-size="10.00">wall</text>
</g>
<!-- s4 -->
<g id="node3" class="node"><title>s4</title>
<a xlink:href="../../SDMLib/src/org/sdmlib/storyboards/StoryboardStep.java" xlink:title="&lt;TABLE&gt;">
<polygon fill="none" stroke="black" points="8,-24 8,-41 196,-41 196,-24 8,-24"/>
<text text-anchor="start" x="57.5" y="-30.5" font-family="Arial" font-size="10.00"> </text>
<text text-anchor="start" x="61.5" y="-30.5" font-family="Arial" font-size="10.00">s4 :StoryboardStep</text>
</a>
<polygon fill="none" stroke="black" points="8,-4 8,-24 196,-24 196,-4 8,-4"/>
<text text-anchor="start" x="13" y="-12" font-family="Arial" font-size="10.00">text = &quot;StoryboardInfrastructureInternals&quot;</text>
</g>
<!-- s3&#45;&#45;s4 -->
<g id="edge4" class="edge"><title>s3&#45;&#45;s4</title>
<path fill="none" stroke="black" d="M231.758,-124.268C199.473,-99.3197 157.425,-66.8282 130.079,-45.6976"/>
<text text-anchor="middle" x="139.835" y="-45.3951" font-family="Arial" font-size="10.00">storyboardSteps</text>
<text text-anchor="middle" x="222.003" y="-119.57" font-family="Arial" font-size="10.00">storyboard</text>
</g>
<!-- s5 -->
<g id="node4" class="node"><title>s5</title>
<a xlink:href="../../SDMLib/src/org/sdmlib/storyboards/StoryboardStep.java" xlink:title="&lt;TABLE&gt;">
<polygon fill="none" stroke="black" points="230,-24 230,-41 326,-41 326,-24 230,-24"/>
<text text-anchor="start" x="233.5" y="-30.5" font-family="Arial" font-size="10.00"> </text>
<text text-anchor="start" x="237.5" y="-30.5" font-family="Arial" font-size="10.00">s5 :StoryboardStep</text>
</a>
<polygon fill="none" stroke="black" points="230,-4 230,-24 326,-24 326,-4 230,-4"/>
<text text-anchor="start" x="235" y="-12" font-family="Arial" font-size="10.00">text = &quot;Internals.&quot;</text>
</g>
<!-- s3&#45;&#45;s5 -->
<g id="edge6" class="edge"><title>s3&#45;&#45;s5</title>
<path fill="none" stroke="black" d="M278,-124.268C278,-99.3984 278,-67.0331 278,-45.8979"/>
<text text-anchor="middle" x="282.226" y="-52.461" font-family="Arial" font-size="10.00">storyboardSteps</text>
<text text-anchor="middle" x="273.774" y="-112.705" font-family="Arial" font-size="10.00">storyboard</text>
</g>
<!-- s6 -->
<g id="node5" class="node"><title>s6</title>
<a xlink:href="../../SDMLib/src/org/sdmlib/storyboards/StoryboardStep.java" xlink:title="&lt;TABLE&gt;">
<polygon fill="none" stroke="black" points="361,-24 361,-41 618,-41 618,-24 361,-24"/>
<text text-anchor="start" x="445" y="-30.5" font-family="Arial" font-size="10.00"> </text>
<text text-anchor="start" x="449" y="-30.5" font-family="Arial" font-size="10.00">s6 :StoryboardStep</text>
</a>
<polygon fill="none" stroke="black" points="361,-4 361,-24 618,-24 618,-4 361,-4"/>
<text text-anchor="start" x="366" y="-12" font-family="Arial" font-size="10.00">text = &quot;Object diagram for storyboard and KanbanEntry:&quot;</text>
</g>
<!-- s3&#45;&#45;s6 -->
<g id="edge8" class="edge"><title>s3&#45;&#45;s6</title>
<path fill="none" stroke="black" d="M333.162,-124.445C371.991,-99.4179 422.703,-66.7317 455.558,-45.5549"/>
<text text-anchor="middle" x="450.23" y="-51.5172" font-family="Arial" font-size="10.00">storyboardSteps</text>
<text text-anchor="middle" x="338.49" y="-113.483" font-family="Arial" font-size="10.00">storyboard</text>
</g>
<!-- k2 -->
<g id="node6" class="node"><title>k2</title>
<a xlink:href="../../SDMLib/src/org/sdmlib/storyboards/KanbanEntry.java" xlink:title="&lt;TABLE&gt;">
<polygon fill="none" stroke="black" points="484,-398 484,-415 610,-415 610,-398 484,-398"/>
<text text-anchor="start" x="508.5" y="-404.5" font-family="Arial" font-size="10.00"> </text>
<text text-anchor="start" x="512.5" y="-404.5" font-family="Arial" font-size="10.00">k2 :KanbanEntry</text>
</a>
<polygon fill="none" stroke="black" points="484,-280 484,-398 610,-398 610,-280 484,-280"/>
<text text-anchor="start" x="489" y="-386" font-family="Arial" font-size="10.00">name = &quot;name&quot;</text>
<text text-anchor="start" x="489" y="-372" font-family="Arial" font-size="10.00">phase = &quot;done&quot;</text>
<text text-anchor="start" x="489" y="-358" font-family="Arial" font-size="10.00">lastDeveloper = &quot;zuendorf&quot;</text>
<text text-anchor="start" x="489" y="-344" font-family="Arial" font-size="10.00">hoursRemaining = 1.0</text>
<text text-anchor="start" x="489" y="-330" font-family="Arial" font-size="10.00">hoursSpend = 2.0</text>
<text text-anchor="start" x="489" y="-316" font-family="Arial" font-size="10.00">files = &quot;&quot;</text>
<text text-anchor="start" x="489" y="-302" font-family="Arial" font-size="10.00">oldNoOfLogEntries = 0</text>
<text text-anchor="start" x="489" y="-288" font-family="Arial" font-size="10.00">phases = &quot;&quot;</text>
</g>
<!-- k7 -->
<g id="node7" class="node"><title>k7</title>
<a xlink:href="../../SDMLib/src/org/sdmlib/storyboards/KanbanEntry.java" xlink:title="&lt;TABLE&gt;">
<polygon fill="none" stroke="black" points="428,-218 428,-235 538,-235 538,-218 428,-218"/>
<text text-anchor="start" x="444.5" y="-224.5" font-family="Arial" font-size="10.00"> </text>
<text text-anchor="start" x="448.5" y="-224.5" font-family="Arial" font-size="10.00">k7 :KanbanEntry</text>
</a>
<polygon fill="none" stroke="black" points="428,-86 428,-218 538,-218 538,-86 428,-86"/>
<text text-anchor="start" x="433" y="-206" font-family="Arial" font-size="10.00">name = &quot;&quot;</text>
<text text-anchor="start" x="433" y="-192" font-family="Arial" font-size="10.00">phase = &quot;&quot;</text>
<text text-anchor="start" x="433" y="-178" font-family="Arial" font-size="10.00">lastDeveloper = &quot;&quot;</text>
<text text-anchor="start" x="433" y="-164" font-family="Arial" font-size="10.00">hoursRemaining = 0.0</text>
<text text-anchor="start" x="433" y="-150" font-family="Arial" font-size="10.00">hoursSpend = 0.0</text>
<text text-anchor="start" x="433" y="-136" font-family="Arial" font-size="10.00">parent = &quot;&quot;</text>
<text text-anchor="start" x="433" y="-122" font-family="Arial" font-size="10.00">files = &quot;&quot;</text>
<text text-anchor="start" x="433" y="-108" font-family="Arial" font-size="10.00">oldNoOfLogEntries = 0</text>
<text text-anchor="start" x="433" y="-94" font-family="Arial" font-size="10.00">phases = &quot;&quot;</text>
</g>
<!-- k2&#45;&#45;k7 -->
<g id="edge10" class="edge"><title>k2&#45;&#45;k7</title>
<path fill="none" stroke="black" d="M522.53,-276.268C518.402,-264.333 514.096,-251.886 509.909,-239.784"/>
<text text-anchor="middle" x="516.866" y="-244.467" font-family="Arial" font-size="10.00">parent</text>
<text text-anchor="middle" x="515.573" y="-266.584" font-family="Arial" font-size="10.00">subentries</text>
</g>
<!-- l8 -->
<g id="node8" class="node"><title>l8</title>
<a xlink:href="../../SDMLib/src/org/sdmlib/storyboards/LogEntry.java" xlink:title="&lt;TABLE&gt;">
<polygon fill="none" stroke="black" points="572,-197 572,-214 898,-214 898,-197 572,-197"/>
<text text-anchor="start" x="706.5" y="-203.5" font-family="Arial" font-size="10.00"> </text>
<text text-anchor="start" x="710.5" y="-203.5" font-family="Arial" font-size="10.00">l8 :LogEntry</text>
</a>
<polygon fill="none" stroke="black" points="572,-107 572,-197 898,-197 898,-107 572,-107"/>
<text text-anchor="start" x="577" y="-185" font-family="Arial" font-size="10.00">date = &quot;08.10.2013 13:22:42&quot;</text>
<text text-anchor="start" x="577" y="-171" font-family="Arial" font-size="10.00">hoursSpend = 1.0</text>
<text text-anchor="start" x="577" y="-157" font-family="Arial" font-size="10.00">hoursRemainingInTotal = 0.0</text>
<text text-anchor="start" x="577" y="-143" font-family="Arial" font-size="10.00">developer = &quot;zuendorf&quot;</text>
<text text-anchor="start" x="577" y="-129" font-family="Arial" font-size="10.00">phase = &quot;done&quot;</text>
<text text-anchor="start" x="577" y="-115" font-family="Arial" font-size="10.00">comment = &quot;Achieved: Object diagram for storyboard and KanbanEntry:&quot;</text>
</g>
<!-- k2&#45;&#45;l8 -->
<g id="edge12" class="edge"><title>k2&#45;&#45;l8</title>
<path fill="none" stroke="black" d="M618.075,-277.059C637.727,-257.721 658.803,-236.981 677.574,-218.509"/>
<text text-anchor="middle" x="674.079" y="-225.378" font-family="Arial" font-size="10.00">logEntries</text>
<text text-anchor="middle" x="621.57" y="-265.19" font-family="Arial" font-size="10.00">kanbanEntry</text>
</g>
</g>
</svg>
