<?xml version="1.0" encoding="UTF-8" standalone="no"?>
<!DOCTYPE svg PUBLIC "-//W3C//DTD SVG 1.1//EN"
 "http://www.w3.org/Graphics/SVG/1.1/DTD/svg11.dtd">
<!-- Generated by graphviz version 2.28.0 (20110507.0327)
 -->
<!-- Title: ObjectDiagram Pages: 1 -->
<svg width="821pt" height="1106pt"
 viewBox="0.00 0.00 821.00 1106.00" xmlns="http://www.w3.org/2000/svg" xmlns:xlink="http://www.w3.org/1999/xlink">
<g id="graph1" class="graph" transform="scale(1 1) rotate(0) translate(4 1102)">
<title>ObjectDiagram</title>
<polygon fill="white" stroke="white" points="-4,5 -4,-1102 818,-1102 818,5 -4,5"/>
<!-- c1 -->
<g id="node1" class="node"><title>c1</title>
<a xlink:href="../../SDMLib/src/org/sdmlib/models/classes/ClassModel.java" xlink:title="&lt;TABLE&gt;">
<polygon fill="none" stroke="black" points="469,-1076 469,-1093 648,-1093 648,-1076 469,-1076"/>
<text text-anchor="start" x="526" y="-1082.5" font-family="Times New Roman,serif" font-size="10.00"> </text>
<text text-anchor="start" x="529" y="-1082.5" font-family="Times New Roman,serif" font-size="10.00">c1 :ClassModel</text>
</a>
<polygon fill="none" stroke="black" points="469,-1056 469,-1076 648,-1076 648,-1056 469,-1056"/>
<text text-anchor="start" x="474" y="-1064" font-family="Times New Roman,serif" font-size="10.00">packageName = &quot;org.sdmlib.storyboards&quot;</text>
</g>
<!-- c2 -->
<g id="node2" class="node"><title>c2</title>
<a xlink:href="../../SDMLib/src/org/sdmlib/models/classes/Clazz.java" xlink:title="&lt;TABLE&gt;">
<polygon fill="none" stroke="black" points="73,-994 73,-1011 273,-1011 273,-994 73,-994"/>
<text text-anchor="start" x="154.5" y="-1000.5" font-family="Times New Roman,serif" font-size="10.00"> </text>
<text text-anchor="start" x="157.5" y="-1000.5" font-family="Times New Roman,serif" font-size="10.00">c2 :Clazz</text>
</a>
<polygon fill="none" stroke="black" points="73,-932 73,-994 273,-994 273,-932 73,-932"/>
<text text-anchor="start" x="78" y="-982" font-family="Times New Roman,serif" font-size="10.00">name = &quot;org.sdmlib.storyboards.KanbanEntry&quot;</text>
<text text-anchor="start" x="78" y="-968" font-family="Times New Roman,serif" font-size="10.00">interfaze = &quot;false&quot;</text>
<text text-anchor="start" x="78" y="-954" font-family="Times New Roman,serif" font-size="10.00">external = &quot;false&quot;</text>
<text text-anchor="start" x="78" y="-940" font-family="Times New Roman,serif" font-size="10.00">wrapped = &quot;false&quot;</text>
</g>
<!-- c1&#45;&#45;c2 -->
<g id="edge2" class="edge"><title>c1&#45;&#45;c2</title>
<path fill="none" stroke="black" d="M460.492,-1055.45C410.625,-1045.22 349.179,-1031.46 295,-1016 290.465,-1014.71 285.853,-1013.33 281.207,-1011.91"/>
<text text-anchor="middle" x="291.11" y="-1008.02" font-family="Times New Roman,serif" font-size="10.00">classes</text>
<text text-anchor="middle" x="450.759" y="-1055.24" font-family="Times New Roman,serif" font-size="10.00">classModel</text>
</g>
<!-- a5 -->
<g id="node5" class="node"><title>a5</title>
<a xlink:href="../../SDMLib/src/org/sdmlib/models/classes/Association.java" xlink:title="&lt;TABLE&gt;">
<polygon fill="none" stroke="black" points="229,-755 229,-772 302,-772 302,-755 229,-755"/>
<text text-anchor="start" x="232.5" y="-761.5" font-family="Times New Roman,serif" font-size="10.00"> </text>
<text text-anchor="start" x="235.5" y="-761.5" font-family="Times New Roman,serif" font-size="10.00">a5 :Association</text>
</a>
</g>
<!-- c1&#45;&#45;a5 -->
<g id="edge12" class="edge"><title>c1&#45;&#45;a5</title>
<path fill="none" stroke="black" d="M460.744,-1059.3C408.475,-1049.44 351.111,-1034.82 333,-1016 270.559,-951.112 318.95,-903.271 290,-818 285.813,-805.669 279.563,-792.419 274.36,-782.252"/>
<text text-anchor="middle" x="282.225" y="-785.928" font-family="Times New Roman,serif" font-size="10.00">associations</text>
<text text-anchor="middle" x="451.037" y="-1059.2" font-family="Times New Roman,serif" font-size="10.00">model</text>
</g>
<!-- c7 -->
<g id="node7" class="node"><title>c7</title>
<a xlink:href="../../SDMLib/src/org/sdmlib/models/classes/Clazz.java" xlink:title="&lt;TABLE&gt;">
<polygon fill="none" stroke="black" points="173,-578 173,-595 357,-595 357,-578 173,-578"/>
<text text-anchor="start" x="246.5" y="-584.5" font-family="Times New Roman,serif" font-size="10.00"> </text>
<text text-anchor="start" x="249.5" y="-584.5" font-family="Times New Roman,serif" font-size="10.00">c7 :Clazz</text>
</a>
<polygon fill="none" stroke="black" points="173,-516 173,-578 357,-578 357,-516 173,-516"/>
<text text-anchor="start" x="178" y="-566" font-family="Times New Roman,serif" font-size="10.00">name = &quot;org.sdmlib.storyboards.LogEntry&quot;</text>
<text text-anchor="start" x="178" y="-552" font-family="Times New Roman,serif" font-size="10.00">interfaze = &quot;false&quot;</text>
<text text-anchor="start" x="178" y="-538" font-family="Times New Roman,serif" font-size="10.00">external = &quot;false&quot;</text>
<text text-anchor="start" x="178" y="-524" font-family="Times New Roman,serif" font-size="10.00">wrapped = &quot;false&quot;</text>
</g>
<!-- c1&#45;&#45;c7 -->
<g id="edge4" class="edge"><title>c1&#45;&#45;c7</title>
<path fill="none" stroke="black" d="M460.425,-1066.4C425.666,-1058.67 389.381,-1043.88 366,-1016 319.987,-961.128 347,-927.611 347,-856 347,-856 347,-856 347,-763 347,-705.927 350.794,-688.323 328,-636 322.465,-623.295 314.347,-610.908 305.767,-599.853"/>
<text text-anchor="middle" x="314.622" y="-601.998" font-family="Times New Roman,serif" font-size="10.00">classes</text>
<text text-anchor="middle" x="450.621" y="-1065.87" font-family="Times New Roman,serif" font-size="10.00">classModel</text>
</g>
<!-- c8 -->
<g id="node8" class="node"><title>c8</title>
<a xlink:href="../../SDMLib/src/org/sdmlib/models/classes/Clazz.java" xlink:title="&lt;TABLE&gt;">
<polygon fill="none" stroke="black" points="383,-994 383,-1011 593,-1011 593,-994 383,-994"/>
<text text-anchor="start" x="469.5" y="-1000.5" font-family="Times New Roman,serif" font-size="10.00"> </text>
<text text-anchor="start" x="472.5" y="-1000.5" font-family="Times New Roman,serif" font-size="10.00">c8 :Clazz</text>
</a>
<polygon fill="none" stroke="black" points="383,-932 383,-994 593,-994 593,-932 383,-932"/>
<text text-anchor="start" x="388" y="-982" font-family="Times New Roman,serif" font-size="10.00">name = &quot;org.sdmlib.storyboards.StoryboardWall&quot;</text>
<text text-anchor="start" x="388" y="-968" font-family="Times New Roman,serif" font-size="10.00">interfaze = &quot;false&quot;</text>
<text text-anchor="start" x="388" y="-954" font-family="Times New Roman,serif" font-size="10.00">external = &quot;false&quot;</text>
<text text-anchor="start" x="388" y="-940" font-family="Times New Roman,serif" font-size="10.00">wrapped = &quot;false&quot;</text>
</g>
<!-- c1&#45;&#45;c8 -->
<g id="edge6" class="edge"><title>c1&#45;&#45;c8</title>
<path fill="none" stroke="black" d="M542.811,-1052.08C535.412,-1041.41 526.253,-1028.19 517.553,-1015.64"/>
<text text-anchor="middle" x="526.189" y="-1018.18" font-family="Times New Roman,serif" font-size="10.00">classes</text>
<text text-anchor="middle" x="534.175" y="-1044.54" font-family="Times New Roman,serif" font-size="10.00">classModel</text>
</g>
<!-- a10 -->
<g id="node10" class="node"><title>a10</title>
<a xlink:href="../../SDMLib/src/org/sdmlib/models/classes/Association.java" xlink:title="&lt;TABLE&gt;">
<polygon fill="none" stroke="black" points="450,-755 450,-772 527,-772 527,-755 450,-755"/>
<text text-anchor="start" x="453.5" y="-761.5" font-family="Times New Roman,serif" font-size="10.00"> </text>
<text text-anchor="start" x="456.5" y="-761.5" font-family="Times New Roman,serif" font-size="10.00">a10 :Association</text>
</a>
</g>
<!-- c1&#45;&#45;a10 -->
<g id="edge14" class="edge"><title>c1&#45;&#45;a10</title>
<path fill="none" stroke="black" d="M584.261,-1052.48C594.335,-1042.56 604.684,-1029.89 610,-1016 623.977,-979.472 620.69,-965.622 610,-928 592.32,-865.778 537.575,-809.22 507.79,-782.025"/>
<text text-anchor="middle" x="517.294" y="-782.638" font-family="Times New Roman,serif" font-size="10.00">associations</text>
<text text-anchor="middle" x="587.63" y="-1040.57" font-family="Times New Roman,serif" font-size="10.00">model</text>
</g>
<!-- c12 -->
<g id="node12" class="node"><title>c12</title>
<a xlink:href="../../SDMLib/src/org/sdmlib/models/classes/Clazz.java" xlink:title="&lt;TABLE&gt;">
<polygon fill="none" stroke="black" points="391,-578 391,-595 583,-595 583,-578 391,-578"/>
<text text-anchor="start" x="466" y="-584.5" font-family="Times New Roman,serif" font-size="10.00"> </text>
<text text-anchor="start" x="469" y="-584.5" font-family="Times New Roman,serif" font-size="10.00">c12 :Clazz</text>
</a>
<polygon fill="none" stroke="black" points="391,-516 391,-578 583,-578 583,-516 391,-516"/>
<text text-anchor="start" x="396" y="-566" font-family="Times New Roman,serif" font-size="10.00">name = &quot;org.sdmlib.storyboards.Storyboard&quot;</text>
<text text-anchor="start" x="396" y="-552" font-family="Times New Roman,serif" font-size="10.00">interfaze = &quot;false&quot;</text>
<text text-anchor="start" x="396" y="-538" font-family="Times New Roman,serif" font-size="10.00">external = &quot;false&quot;</text>
<text text-anchor="start" x="396" y="-524" font-family="Times New Roman,serif" font-size="10.00">wrapped = &quot;false&quot;</text>
</g>
<!-- c1&#45;&#45;c12 -->
<g id="edge8" class="edge"><title>c1&#45;&#45;c12</title>
<path fill="none" stroke="black" d="M593.339,-1052.32C606.333,-1042.7 620.045,-1030.3 629,-1016 667.793,-954.056 667,-929.089 667,-856 667,-856 667,-856 667,-763 667,-693.422 608.052,-636.016 557.624,-599.636"/>
<text text-anchor="middle" x="567.406" y="-599.213" font-family="Times New Roman,serif" font-size="10.00">classes</text>
<text text-anchor="middle" x="598.005" y="-1040.98" font-family="Times New Roman,serif" font-size="10.00">classModel</text>
</g>
<!-- a17 -->
<g id="node17" class="node"><title>a17</title>
<a xlink:href="../../SDMLib/src/org/sdmlib/models/classes/Association.java" xlink:title="&lt;TABLE&gt;">
<polygon fill="none" stroke="black" points="615,-339 615,-356 692,-356 692,-339 615,-339"/>
<text text-anchor="start" x="618.5" y="-345.5" font-family="Times New Roman,serif" font-size="10.00"> </text>
<text text-anchor="start" x="621.5" y="-345.5" font-family="Times New Roman,serif" font-size="10.00">a17 :Association</text>
</a>
</g>
<!-- c1&#45;&#45;a17 -->
<g id="edge16" class="edge"><title>c1&#45;&#45;a17</title>
<path fill="none" stroke="black" d="M613.669,-1052.48C630.894,-1043.47 648.585,-1031.43 661,-1016 707.623,-958.057 710,-930.371 710,-856 710,-856 710,-856 710,-555 710,-486.478 715.957,-465.816 691,-402 685.887,-388.925 676.811,-376.082 668.812,-366.313"/>
<text text-anchor="middle" x="677.784" y="-368.23" font-family="Times New Roman,serif" font-size="10.00">associations</text>
<text text-anchor="middle" x="619.636" y="-1041.95" font-family="Times New Roman,serif" font-size="10.00">model</text>
</g>
<!-- c19 -->
<g id="node19" class="node"><title>c19</title>
<a xlink:href="../../SDMLib/src/org/sdmlib/models/classes/Clazz.java" xlink:title="&lt;TABLE&gt;">
<polygon fill="none" stroke="black" points="595,-162 595,-179 805,-179 805,-162 595,-162"/>
<text text-anchor="start" x="679" y="-168.5" font-family="Times New Roman,serif" font-size="10.00"> </text>
<text text-anchor="start" x="682" y="-168.5" font-family="Times New Roman,serif" font-size="10.00">c19 :Clazz</text>
</a>
<polygon fill="none" stroke="black" points="595,-100 595,-162 805,-162 805,-100 595,-100"/>
<text text-anchor="start" x="600" y="-150" font-family="Times New Roman,serif" font-size="10.00">name = &quot;org.sdmlib.storyboards.StoryboardStep&quot;</text>
<text text-anchor="start" x="600" y="-136" font-family="Times New Roman,serif" font-size="10.00">interfaze = &quot;false&quot;</text>
<text text-anchor="start" x="600" y="-122" font-family="Times New Roman,serif" font-size="10.00">external = &quot;false&quot;</text>
<text text-anchor="start" x="600" y="-108" font-family="Times New Roman,serif" font-size="10.00">wrapped = &quot;false&quot;</text>
</g>
<!-- c1&#45;&#45;c19 -->
<g id="edge10" class="edge"><title>c1&#45;&#45;c19</title>
<path fill="none" stroke="black" d="M643.211,-1052.42C663.373,-1043.88 683.269,-1032.12 698,-1016 748.261,-961.005 748,-930.502 748,-856 748,-856 748,-856 748,-347 748,-289.927 743.129,-275.296 729,-220 725.926,-207.968 721.696,-195.217 717.417,-183.55"/>
<text text-anchor="middle" x="724.481" y="-188.128" font-family="Times New Roman,serif" font-size="10.00">classes</text>
<text text-anchor="middle" x="649.8" y="-1042.4" font-family="Times New Roman,serif" font-size="10.00">classModel</text>
</g>
<!-- a3 -->
<g id="node3" class="node"><title>a3</title>
<a xlink:href="../../SDMLib/src/org/sdmlib/models/classes/Attribute.java" xlink:title="&lt;TABLE&gt;">
<polygon fill="none" stroke="black" points="8,-863 8,-880 137,-880 137,-863 8,-863"/>
<text text-anchor="start" x="45.5" y="-869.5" font-family="Times New Roman,serif" font-size="10.00"> </text>
<text text-anchor="start" x="48.5" y="-869.5" font-family="Times New Roman,serif" font-size="10.00">a3 :Attribute</text>
</a>
<polygon fill="none" stroke="black" points="8,-829 8,-863 137,-863 137,-829 8,-829"/>
<text text-anchor="start" x="13" y="-851" font-family="Times New Roman,serif" font-size="10.00">type = &quot;int&quot;</text>
<text text-anchor="start" x="13" y="-837" font-family="Times New Roman,serif" font-size="10.00">name = &quot;oldNoOfLogEntries&quot;</text>
</g>
<!-- c2&#45;&#45;a3 -->
<g id="edge18" class="edge"><title>c2&#45;&#45;a3</title>
<path fill="none" stroke="black" d="M135.391,-928.178C122.604,-913.618 108.635,-897.713 97.0717,-884.547"/>
<text text-anchor="middle" x="106.228" y="-886.068" font-family="Times New Roman,serif" font-size="10.00">attributes</text>
<text text-anchor="middle" x="126.235" y="-921.657" font-family="Times New Roman,serif" font-size="10.00">clazz</text>
</g>
<!-- r4 -->
<g id="node4" class="node"><title>r4</title>
<a xlink:href="../../SDMLib/src/org/sdmlib/models/classes/Role.java" xlink:title="&lt;TABLE&gt;">
<polygon fill="none" stroke="black" points="171,-870 171,-887 273,-887 273,-870 171,-870"/>
<text text-anchor="start" x="205" y="-876.5" font-family="Times New Roman,serif" font-size="10.00"> </text>
<text text-anchor="start" x="208" y="-876.5" font-family="Times New Roman,serif" font-size="10.00">r4 :Role</text>
</a>
<polygon fill="none" stroke="black" points="171,-822 171,-870 273,-870 273,-822 171,-822"/>
<text text-anchor="start" x="176" y="-858" font-family="Times New Roman,serif" font-size="10.00">name = &quot;kanbanEntry&quot;</text>
<text text-anchor="start" x="176" y="-844" font-family="Times New Roman,serif" font-size="10.00">card = &quot;one&quot;</text>
<text text-anchor="start" x="176" y="-830" font-family="Times New Roman,serif" font-size="10.00">kind = &quot;aggregation&quot;</text>
</g>
<!-- c2&#45;&#45;r4 -->
<g id="edge20" class="edge"><title>c2&#45;&#45;r4</title>
<path fill="none" stroke="black" d="M191.246,-928.178C196.361,-916.173 201.866,-903.252 206.786,-891.707"/>
<text text-anchor="middle" x="207.121" y="-899.202" font-family="Times New Roman,serif" font-size="10.00">sourceRoles</text>
<text text-anchor="middle" x="190.91" y="-915.684" font-family="Times New Roman,serif" font-size="10.00">clazz</text>
</g>
<!-- r4&#45;&#45;a5 -->
<g id="edge22" class="edge"><title>r4&#45;&#45;a5</title>
<path fill="none" stroke="black" d="M239.242,-818.313C245.223,-805.933 251.663,-792.605 256.607,-782.371"/>
<text text-anchor="middle" x="256.47" y="-789.87" font-family="Times New Roman,serif" font-size="10.00">assoc</text>
<text text-anchor="middle" x="239.379" y="-805.814" font-family="Times New Roman,serif" font-size="10.00">source</text>
</g>
<!-- r6 -->
<g id="node6" class="node"><title>r6</title>
<a xlink:href="../../SDMLib/src/org/sdmlib/models/classes/Role.java" xlink:title="&lt;TABLE&gt;">
<polygon fill="none" stroke="black" points="219,-688 219,-705 311,-705 311,-688 219,-688"/>
<text text-anchor="start" x="248" y="-694.5" font-family="Times New Roman,serif" font-size="10.00"> </text>
<text text-anchor="start" x="251" y="-694.5" font-family="Times New Roman,serif" font-size="10.00">r6 :Role</text>
</a>
<polygon fill="none" stroke="black" points="219,-640 219,-688 311,-688 311,-640 219,-640"/>
<text text-anchor="start" x="224" y="-676" font-family="Times New Roman,serif" font-size="10.00">name = &quot;logEntries&quot;</text>
<text text-anchor="start" x="224" y="-662" font-family="Times New Roman,serif" font-size="10.00">card = &quot;many&quot;</text>
<text text-anchor="start" x="224" y="-648" font-family="Times New Roman,serif" font-size="10.00">kind = &quot;vanilla&quot;</text>
</g>
<!-- a5&#45;&#45;r6 -->
<g id="edge24" class="edge"><title>a5&#45;&#45;r6</title>
<path fill="none" stroke="black" d="M265,-745.84C265,-735.535 265,-722.037 265,-709.527"/>
<text text-anchor="middle" x="269.226" y="-716.09" font-family="Times New Roman,serif" font-size="10.00">target</text>
<text text-anchor="middle" x="260.774" y="-734.277" font-family="Times New Roman,serif" font-size="10.00">assoc</text>
</g>
<!-- r6&#45;&#45;c7 -->
<g id="edge26" class="edge"><title>r6&#45;&#45;c7</title>
<path fill="none" stroke="black" d="M265,-636.244C265,-624.639 265,-611.649 265,-599.597"/>
<text text-anchor="middle" x="269.226" y="-606.16" font-family="Times New Roman,serif" font-size="10.00">clazz</text>
<text text-anchor="middle" x="260.774" y="-624.681" font-family="Times New Roman,serif" font-size="10.00">sourceRoles</text>
</g>
<!-- r9 -->
<g id="node9" class="node"><title>r9</title>
<a xlink:href="../../SDMLib/src/org/sdmlib/models/classes/Role.java" xlink:title="&lt;TABLE&gt;">
<polygon fill="none" stroke="black" points="451,-870 451,-887 525,-887 525,-870 451,-870"/>
<text text-anchor="start" x="471" y="-876.5" font-family="Times New Roman,serif" font-size="10.00"> </text>
<text text-anchor="start" x="474" y="-876.5" font-family="Times New Roman,serif" font-size="10.00">r9 :Role</text>
</a>
<polygon fill="none" stroke="black" points="451,-822 451,-870 525,-870 525,-822 451,-822"/>
<text text-anchor="start" x="456" y="-858" font-family="Times New Roman,serif" font-size="10.00">name = &quot;wall&quot;</text>
<text text-anchor="start" x="456" y="-844" font-family="Times New Roman,serif" font-size="10.00">card = &quot;one&quot;</text>
<text text-anchor="start" x="456" y="-830" font-family="Times New Roman,serif" font-size="10.00">kind = &quot;vanilla&quot;</text>
</g>
<!-- c8&#45;&#45;r9 -->
<g id="edge28" class="edge"><title>c8&#45;&#45;r9</title>
<path fill="none" stroke="black" d="M488,-928.178C488,-916.173 488,-903.252 488,-891.707"/>
<text text-anchor="middle" x="492.226" y="-898.27" font-family="Times New Roman,serif" font-size="10.00">sourceRoles</text>
<text text-anchor="middle" x="483.774" y="-916.615" font-family="Times New Roman,serif" font-size="10.00">clazz</text>
</g>
<!-- r9&#45;&#45;a10 -->
<g id="edge30" class="edge"><title>r9&#45;&#45;a10</title>
<path fill="none" stroke="black" d="M488,-818.313C488,-805.933 488,-792.605 488,-782.371"/>
<text text-anchor="middle" x="492.226" y="-788.934" font-family="Times New Roman,serif" font-size="10.00">assoc</text>
<text text-anchor="middle" x="483.774" y="-806.75" font-family="Times New Roman,serif" font-size="10.00">source</text>
</g>
<!-- r11 -->
<g id="node11" class="node"><title>r11</title>
<a xlink:href="../../SDMLib/src/org/sdmlib/models/classes/Role.java" xlink:title="&lt;TABLE&gt;">
<polygon fill="none" stroke="black" points="439,-688 439,-705 535,-705 535,-688 439,-688"/>
<text text-anchor="start" x="468" y="-694.5" font-family="Times New Roman,serif" font-size="10.00"> </text>
<text text-anchor="start" x="471" y="-694.5" font-family="Times New Roman,serif" font-size="10.00">r11 :Role</text>
</a>
<polygon fill="none" stroke="black" points="439,-640 439,-688 535,-688 535,-640 439,-640"/>
<text text-anchor="start" x="444" y="-676" font-family="Times New Roman,serif" font-size="10.00">name = &quot;storyboard&quot;</text>
<text text-anchor="start" x="444" y="-662" font-family="Times New Roman,serif" font-size="10.00">card = &quot;one&quot;</text>
<text text-anchor="start" x="444" y="-648" font-family="Times New Roman,serif" font-size="10.00">kind = &quot;vanilla&quot;</text>
</g>
<!-- a10&#45;&#45;r11 -->
<g id="edge32" class="edge"><title>a10&#45;&#45;r11</title>
<path fill="none" stroke="black" d="M487.807,-745.84C487.691,-735.535 487.54,-722.037 487.399,-709.527"/>
<text text-anchor="middle" x="491.727" y="-716.042" font-family="Times New Roman,serif" font-size="10.00">target</text>
<text text-anchor="middle" x="483.479" y="-734.325" font-family="Times New Roman,serif" font-size="10.00">assoc</text>
</g>
<!-- r11&#45;&#45;c12 -->
<g id="edge34" class="edge"><title>r11&#45;&#45;c12</title>
<path fill="none" stroke="black" d="M487,-636.244C487,-624.639 487,-611.649 487,-599.597"/>
<text text-anchor="middle" x="491.226" y="-606.16" font-family="Times New Roman,serif" font-size="10.00">clazz</text>
<text text-anchor="middle" x="482.774" y="-624.681" font-family="Times New Roman,serif" font-size="10.00">sourceRoles</text>
</g>
<!-- a13 -->
<g id="node13" class="node"><title>a13</title>
<a xlink:href="../../SDMLib/src/org/sdmlib/models/classes/Attribute.java" xlink:title="&lt;TABLE&gt;">
<polygon fill="none" stroke="black" points="171,-447 171,-464 251,-464 251,-447 171,-447"/>
<text text-anchor="start" x="182" y="-453.5" font-family="Times New Roman,serif" font-size="10.00"> </text>
<text text-anchor="start" x="185" y="-453.5" font-family="Times New Roman,serif" font-size="10.00">a13 :Attribute</text>
</a>
<polygon fill="none" stroke="black" points="171,-413 171,-447 251,-447 251,-413 171,-413"/>
<text text-anchor="start" x="176" y="-435" font-family="Times New Roman,serif" font-size="10.00">type = &quot;String&quot;</text>
<text text-anchor="start" x="176" y="-421" font-family="Times New Roman,serif" font-size="10.00">name = &quot;rootDir&quot;</text>
</g>
<!-- c12&#45;&#45;a13 -->
<g id="edge36" class="edge"><title>c12&#45;&#45;a13</title>
<path fill="none" stroke="black" d="M382.995,-515.261C379.966,-514.155 376.962,-513.066 374,-512 327.186,-495.15 312.901,-497.433 268,-476 263.352,-473.782 258.619,-471.262 253.966,-468.611"/>
<text text-anchor="middle" x="263.935" y="-466.897" font-family="Times New Roman,serif" font-size="10.00">attributes</text>
<text text-anchor="middle" x="373.032" y="-513.626" font-family="Times New Roman,serif" font-size="10.00">clazz</text>
</g>
<!-- a14 -->
<g id="node14" class="node"><title>a14</title>
<a xlink:href="../../SDMLib/src/org/sdmlib/models/classes/Attribute.java" xlink:title="&lt;TABLE&gt;">
<polygon fill="none" stroke="black" points="286,-447 286,-464 387,-464 387,-447 286,-447"/>
<text text-anchor="start" x="307.5" y="-453.5" font-family="Times New Roman,serif" font-size="10.00"> </text>
<text text-anchor="start" x="310.5" y="-453.5" font-family="Times New Roman,serif" font-size="10.00">a14 :Attribute</text>
</a>
<polygon fill="none" stroke="black" points="286,-413 286,-447 387,-447 387,-413 286,-413"/>
<text text-anchor="start" x="291" y="-435" font-family="Times New Roman,serif" font-size="10.00">type = &quot;int&quot;</text>
<text text-anchor="start" x="291" y="-421" font-family="Times New Roman,serif" font-size="10.00">name = &quot;stepCounter&quot;</text>
</g>
<!-- c12&#45;&#45;a14 -->
<g id="edge38" class="edge"><title>c12&#45;&#45;a14</title>
<path fill="none" stroke="black" d="M430.773,-512.178C411.655,-497.618 390.77,-481.713 373.483,-468.547"/>
<text text-anchor="middle" x="383.254" y="-468.176" font-family="Times New Roman,serif" font-size="10.00">attributes</text>
<text text-anchor="middle" x="421.002" y="-507.549" font-family="Times New Roman,serif" font-size="10.00">clazz</text>
</g>
<!-- a15 -->
<g id="node15" class="node"><title>a15</title>
<a xlink:href="../../SDMLib/src/org/sdmlib/models/classes/Attribute.java" xlink:title="&lt;TABLE&gt;">
<polygon fill="none" stroke="black" points="421,-447 421,-464 544,-464 544,-447 421,-447"/>
<text text-anchor="start" x="453.5" y="-453.5" font-family="Times New Roman,serif" font-size="10.00"> </text>
<text text-anchor="start" x="456.5" y="-453.5" font-family="Times New Roman,serif" font-size="10.00">a15 :Attribute</text>
</a>
<polygon fill="none" stroke="black" points="421,-413 421,-447 544,-447 544,-413 421,-413"/>
<text text-anchor="start" x="426" y="-435" font-family="Times New Roman,serif" font-size="10.00">type = &quot;int&quot;</text>
<text text-anchor="start" x="426" y="-421" font-family="Times New Roman,serif" font-size="10.00">name = &quot;stepDoneCounter&quot;</text>
</g>
<!-- c12&#45;&#45;a15 -->
<g id="edge40" class="edge"><title>c12&#45;&#45;a15</title>
<path fill="none" stroke="black" d="M485.138,-512.178C484.505,-497.618 483.814,-481.713 483.241,-468.547"/>
<text text-anchor="middle" x="487.857" y="-474.918" font-family="Times New Roman,serif" font-size="10.00">attributes</text>
<text text-anchor="middle" x="480.522" y="-500.807" font-family="Times New Roman,serif" font-size="10.00">clazz</text>
</g>
<!-- r16 -->
<g id="node16" class="node"><title>r16</title>
<a xlink:href="../../SDMLib/src/org/sdmlib/models/classes/Role.java" xlink:title="&lt;TABLE&gt;">
<polygon fill="none" stroke="black" points="578,-454 578,-471 674,-471 674,-454 578,-454"/>
<text text-anchor="start" x="607" y="-460.5" font-family="Times New Roman,serif" font-size="10.00"> </text>
<text text-anchor="start" x="610" y="-460.5" font-family="Times New Roman,serif" font-size="10.00">r16 :Role</text>
</a>
<polygon fill="none" stroke="black" points="578,-406 578,-454 674,-454 674,-406 578,-406"/>
<text text-anchor="start" x="583" y="-442" font-family="Times New Roman,serif" font-size="10.00">name = &quot;storyboard&quot;</text>
<text text-anchor="start" x="583" y="-428" font-family="Times New Roman,serif" font-size="10.00">card = &quot;one&quot;</text>
<text text-anchor="start" x="583" y="-414" font-family="Times New Roman,serif" font-size="10.00">kind = &quot;vanilla&quot;</text>
</g>
<!-- c12&#45;&#45;r16 -->
<g id="edge42" class="edge"><title>c12&#45;&#45;r16</title>
<path fill="none" stroke="black" d="M538.758,-512.178C553.27,-500.173 568.887,-487.252 582.841,-475.707"/>
<text text-anchor="middle" x="578.552" y="-482.241" font-family="Times New Roman,serif" font-size="10.00">sourceRoles</text>
<text text-anchor="middle" x="543.047" y="-500.645" font-family="Times New Roman,serif" font-size="10.00">clazz</text>
</g>
<!-- r16&#45;&#45;a17 -->
<g id="edge44" class="edge"><title>r16&#45;&#45;a17</title>
<path fill="none" stroke="black" d="M636.826,-402.313C640.582,-389.933 644.626,-376.605 647.73,-366.371"/>
<text text-anchor="middle" x="649.143" y="-373.771" font-family="Times New Roman,serif" font-size="10.00">assoc</text>
<text text-anchor="middle" x="635.413" y="-389.913" font-family="Times New Roman,serif" font-size="10.00">source</text>
</g>
<!-- r18 -->
<g id="node18" class="node"><title>r18</title>
<a xlink:href="../../SDMLib/src/org/sdmlib/models/classes/Role.java" xlink:title="&lt;TABLE&gt;">
<polygon fill="none" stroke="black" points="594,-272 594,-289 712,-289 712,-272 594,-272"/>
<text text-anchor="start" x="634" y="-278.5" font-family="Times New Roman,serif" font-size="10.00"> </text>
<text text-anchor="start" x="637" y="-278.5" font-family="Times New Roman,serif" font-size="10.00">r18 :Role</text>
</a>
<polygon fill="none" stroke="black" points="594,-224 594,-272 712,-272 712,-224 594,-224"/>
<text text-anchor="start" x="599" y="-260" font-family="Times New Roman,serif" font-size="10.00">name = &quot;storyboardSteps&quot;</text>
<text text-anchor="start" x="599" y="-246" font-family="Times New Roman,serif" font-size="10.00">card = &quot;many&quot;</text>
<text text-anchor="start" x="599" y="-232" font-family="Times New Roman,serif" font-size="10.00">kind = &quot;vanilla&quot;</text>
</g>
<!-- a17&#45;&#45;r18 -->
<g id="edge46" class="edge"><title>a17&#45;&#45;r18</title>
<path fill="none" stroke="black" d="M653,-329.84C653,-319.535 653,-306.037 653,-293.527"/>
<text text-anchor="middle" x="657.226" y="-300.09" font-family="Times New Roman,serif" font-size="10.00">target</text>
<text text-anchor="middle" x="648.774" y="-318.277" font-family="Times New Roman,serif" font-size="10.00">assoc</text>
</g>
<!-- r18&#45;&#45;c19 -->
<g id="edge48" class="edge"><title>r18&#45;&#45;c19</title>
<path fill="none" stroke="black" d="M667.613,-220.244C672.356,-208.639 677.665,-195.649 682.591,-183.597"/>
<text text-anchor="middle" x="683.074" y="-191.085" font-family="Times New Roman,serif" font-size="10.00">clazz</text>
<text text-anchor="middle" x="667.13" y="-207.755" font-family="Times New Roman,serif" font-size="10.00">sourceRoles</text>
</g>
<!-- a20 -->
<g id="node20" class="node"><title>a20</title>
<a xlink:href="../../SDMLib/src/org/sdmlib/models/classes/Attribute.java" xlink:title="&lt;TABLE&gt;">
<polygon fill="none" stroke="black" points="664,-38 664,-55 736,-55 736,-38 664,-38"/>
<text text-anchor="start" x="671" y="-44.5" font-family="Times New Roman,serif" font-size="10.00"> </text>
<text text-anchor="start" x="674" y="-44.5" font-family="Times New Roman,serif" font-size="10.00">a20 :Attribute</text>
</a>
<polygon fill="none" stroke="black" points="664,-4 664,-38 736,-38 736,-4 664,-4"/>
<text text-anchor="start" x="669" y="-26" font-family="Times New Roman,serif" font-size="10.00">type = &quot;String&quot;</text>
<text text-anchor="start" x="669" y="-12" font-family="Times New Roman,serif" font-size="10.00">name = &quot;text&quot;</text>
</g>
<!-- c19&#45;&#45;a20 -->
<g id="edge50" class="edge"><title>c19&#45;&#45;a20</title>
<path fill="none" stroke="black" d="M700,-96.3155C700,-84.0517 700,-70.9726 700,-59.7647"/>
<text text-anchor="middle" x="704.226" y="-66.3278" font-family="Times New Roman,serif" font-size="10.00">attributes</text>
<text text-anchor="middle" x="695.774" y="-84.7525" font-family="Times New Roman,serif" font-size="10.00">clazz</text>
</g>
</g>
</svg>
