<?xml version="1.0" encoding="UTF-8" standalone="no"?>
<!DOCTYPE svg PUBLIC "-//W3C//DTD SVG 1.1//EN"
 "http://www.w3.org/Graphics/SVG/1.1/DTD/svg11.dtd">
<!-- Generated by graphviz version 2.28.0 (20110507.0327)
 -->
<!-- Title: ObjectDiagram Pages: 1 -->
<svg width="914pt" height="400pt"
 viewBox="0.00 0.00 914.00 400.00" xmlns="http://www.w3.org/2000/svg" xmlns:xlink="http://www.w3.org/1999/xlink">
<g id="graph1" class="graph" transform="scale(1 1) rotate(0) translate(4 396)">
<title>ObjectDiagram</title>
<polygon fill="white" stroke="white" points="-4,5 -4,-396 911,-396 911,5 -4,5"/>
<!-- s1 -->
<g id="node1" class="node"><title>s1</title>
<a xlink:href="../../SDMLib/src/org/sdmlib/storyboards/StoryboardWall.java" xlink:title="&lt;TABLE&gt;">
<polygon fill="none" stroke="black" points="231,-318 231,-335 326,-335 326,-318 231,-318"/>
<text text-anchor="start" x="234.5" y="-324.5" font-family="Arial" font-size="10.00"> </text>
<text text-anchor="start" x="238.5" y="-324.5" font-family="Arial" font-size="10.00">s1 :StoryboardWall</text>
</a>
</g>
<!-- s3 -->
<g id="node2" class="node"><title>s3</title>
<a xlink:href="../../SDMLib/src/org/sdmlib/storyboards/Storyboard.java" xlink:title="&lt;TABLE&gt;">
<polygon fill="none" stroke="black" points="226,-169 226,-186 330,-186 330,-169 226,-169"/>
<text text-anchor="start" x="244" y="-175.5" font-family="Arial" font-size="10.00"> </text>
<text text-anchor="start" x="248" y="-175.5" font-family="Arial" font-size="10.00">s3 :Storyboard</text>
</a>
<polygon fill="none" stroke="black" points="226,-121 226,-169 330,-169 330,-121 226,-121"/>
<text text-anchor="start" x="231" y="-157" font-family="Arial" font-size="10.00">rootDir = &quot;test&quot;</text>
<text text-anchor="start" x="231" y="-143" font-family="Arial" font-size="10.00">stepCounter = 0</text>
<text text-anchor="start" x="231" y="-129" font-family="Arial" font-size="10.00">stepDoneCounter = 0</text>
</g>
<!-- s1&#45;&#45;s3 -->
<g id="edge2" class="edge"><title>s1&#45;&#45;s3</title>
<path fill="none" stroke="black" d="M278,-308.979C278,-281.524 278,-226.881 278,-190.629"/>
<text text-anchor="middle" x="282.226" y="-197.192" font-family="Arial" font-size="10.00">storyboard</text>
<text text-anchor="middle" x="273.774" y="-297.416" font-family="Arial" font-size="10.00">wall</text>
</g>
<!-- s4 -->
<g id="node3" class="node"><title>s4</title>
<a xlink:href="../../SDMLib/src/org/sdmlib/storyboards/StoryboardStep.java" xlink:title="&lt;TABLE&gt;">
<polygon fill="none" stroke="black" points="8,-24 8,-41 196,-41 196,-24 8,-24"/>
<text text-anchor="start" x="57.5" y="-30.5" font-family="Arial" font-size="10.00"> </text>
<text text-anchor="start" x="61.5" y="-30.5" font-family="Arial" font-size="10.00">s4 :StoryboardStep</text>
</a>
<polygon fill="none" stroke="black" points="8,-4 8,-24 196,-24 196,-4 8,-4"/>
<text text-anchor="start" x="13" y="-12" font-family="Arial" font-size="10.00">text = &quot;StoryboardInfrastructureInternals&quot;</text>
</g>
<!-- s3&#45;&#45;s4 -->
<g id="edge4" class="edge"><title>s3&#45;&#45;s4</title>
<path fill="none" stroke="black" d="M229.441,-117.409C198.001,-94.3645 158.092,-65.113 131.388,-45.5401"/>
<text text-anchor="middle" x="141.196" y="-44.9892" font-family="Arial" font-size="10.00">storyboardSteps</text>
<text text-anchor="middle" x="219.633" y="-112.96" font-family="Arial" font-size="10.00">storyboard</text>
</g>
<!-- s5 -->
<g id="node4" class="node"><title>s5</title>
<a xlink:href="../../SDMLib/src/org/sdmlib/storyboards/StoryboardStep.java" xlink:title="&lt;TABLE&gt;">
<polygon fill="none" stroke="black" points="230,-24 230,-41 326,-41 326,-24 230,-24"/>
<text text-anchor="start" x="233.5" y="-30.5" font-family="Arial" font-size="10.00"> </text>
<text text-anchor="start" x="237.5" y="-30.5" font-family="Arial" font-size="10.00">s5 :StoryboardStep</text>
</a>
<polygon fill="none" stroke="black" points="230,-4 230,-24 326,-24 326,-4 230,-4"/>
<text text-anchor="start" x="235" y="-12" font-family="Arial" font-size="10.00">text = &quot;Internals.&quot;</text>
</g>
<!-- s3&#45;&#45;s5 -->
<g id="edge6" class="edge"><title>s3&#45;&#45;s5</title>
<path fill="none" stroke="black" d="M278,-117.409C278,-94.4391 278,-65.3023 278,-45.7304"/>
<text text-anchor="middle" x="282.226" y="-52.2935" font-family="Arial" font-size="10.00">storyboardSteps</text>
<text text-anchor="middle" x="273.774" y="-105.846" font-family="Arial" font-size="10.00">storyboard</text>
</g>
<!-- s6 -->
<g id="node5" class="node"><title>s6</title>
<a xlink:href="../../SDMLib/src/org/sdmlib/storyboards/StoryboardStep.java" xlink:title="&lt;TABLE&gt;">
<polygon fill="none" stroke="black" points="361,-24 361,-41 618,-41 618,-24 361,-24"/>
<text text-anchor="start" x="445" y="-30.5" font-family="Arial" font-size="10.00"> </text>
<text text-anchor="start" x="449" y="-30.5" font-family="Arial" font-size="10.00">s6 :StoryboardStep</text>
</a>
<polygon fill="none" stroke="black" points="361,-4 361,-24 618,-24 618,-4 361,-4"/>
<text text-anchor="start" x="366" y="-12" font-family="Arial" font-size="10.00">text = &quot;Object diagram for storyboard and KanbanEntry:&quot;</text>
</g>
<!-- s3&#45;&#45;s6 -->
<g id="edge8" class="edge"><title>s3&#45;&#45;s6</title>
<path fill="none" stroke="black" d="M336.215,-117.409C373.908,-94.3645 421.753,-65.113 453.768,-45.5401"/>
<text text-anchor="middle" x="448.24" y="-51.3732" font-family="Arial" font-size="10.00">storyboardSteps</text>
<text text-anchor="middle" x="341.743" y="-106.576" font-family="Arial" font-size="10.00">storyboard</text>
</g>
<!-- k2 -->
<g id="node6" class="node"><title>k2</title>
<a xlink:href="../../SDMLib/src/org/sdmlib/storyboards/KanbanEntry.java" xlink:title="&lt;TABLE&gt;">
<polygon fill="none" stroke="black" points="484,-370 484,-387 610,-387 610,-370 484,-370"/>
<text text-anchor="start" x="508.5" y="-376.5" font-family="Arial" font-size="10.00"> </text>
<text text-anchor="start" x="512.5" y="-376.5" font-family="Arial" font-size="10.00">k2 :KanbanEntry</text>
</a>
<polygon fill="none" stroke="black" points="484,-266 484,-370 610,-370 610,-266 484,-266"/>
<text text-anchor="start" x="489" y="-358" font-family="Arial" font-size="10.00">name = &quot;name&quot;</text>
<text text-anchor="start" x="489" y="-344" font-family="Arial" font-size="10.00">phase = &quot;done&quot;</text>
<text text-anchor="start" x="489" y="-330" font-family="Arial" font-size="10.00">lastDeveloper = &quot;zuendorf&quot;</text>
<text text-anchor="start" x="489" y="-316" font-family="Arial" font-size="10.00">hoursRemaining = 1.0</text>
<text text-anchor="start" x="489" y="-302" font-family="Arial" font-size="10.00">hoursSpend = 2.0</text>
<text text-anchor="start" x="489" y="-288" font-family="Arial" font-size="10.00">files = &quot;&quot;</text>
<text text-anchor="start" x="489" y="-274" font-family="Arial" font-size="10.00">oldNoOfLogEntries = 0</text>
</g>
<!-- k7 -->
<g id="node7" class="node"><title>k7</title>
<a xlink:href="../../SDMLib/src/org/sdmlib/storyboards/KanbanEntry.java" xlink:title="&lt;TABLE&gt;">
<polygon fill="none" stroke="black" points="428,-204 428,-221 538,-221 538,-204 428,-204"/>
<text text-anchor="start" x="444.5" y="-210.5" font-family="Arial" font-size="10.00"> </text>
<text text-anchor="start" x="448.5" y="-210.5" font-family="Arial" font-size="10.00">k7 :KanbanEntry</text>
</a>
<polygon fill="none" stroke="black" points="428,-86 428,-204 538,-204 538,-86 428,-86"/>
<text text-anchor="start" x="433" y="-192" font-family="Arial" font-size="10.00">name = &quot;&quot;</text>
<text text-anchor="start" x="433" y="-178" font-family="Arial" font-size="10.00">phase = &quot;&quot;</text>
<text text-anchor="start" x="433" y="-164" font-family="Arial" font-size="10.00">lastDeveloper = &quot;&quot;</text>
<text text-anchor="start" x="433" y="-150" font-family="Arial" font-size="10.00">hoursRemaining = 0.0</text>
<text text-anchor="start" x="433" y="-136" font-family="Arial" font-size="10.00">hoursSpend = 0.0</text>
<text text-anchor="start" x="433" y="-122" font-family="Arial" font-size="10.00">parent = &quot;&quot;</text>
<text text-anchor="start" x="433" y="-108" font-family="Arial" font-size="10.00">files = &quot;&quot;</text>
<text text-anchor="start" x="433" y="-94" font-family="Arial" font-size="10.00">oldNoOfLogEntries = 0</text>
</g>
<!-- k2&#45;&#45;k7 -->
<g id="edge10" class="edge"><title>k2&#45;&#45;k7</title>
<path fill="none" stroke="black" d="M523.169,-262.326C518.691,-250.361 513.984,-237.786 509.433,-225.624"/>
<text text-anchor="middle" x="516.567" y="-230.131" font-family="Arial" font-size="10.00">parent</text>
<text text-anchor="middle" x="516.034" y="-252.819" font-family="Arial" font-size="10.00">subentries</text>
</g>
<!-- l8 -->
<g id="node8" class="node"><title>l8</title>
<a xlink:href="../../SDMLib/src/org/sdmlib/storyboards/LogEntry.java" xlink:title="&lt;TABLE&gt;">
<polygon fill="none" stroke="black" points="572,-190 572,-207 898,-207 898,-190 572,-190"/>
<text text-anchor="start" x="706.5" y="-196.5" font-family="Arial" font-size="10.00"> </text>
<text text-anchor="start" x="710.5" y="-196.5" font-family="Arial" font-size="10.00">l8 :LogEntry</text>
</a>
<polygon fill="none" stroke="black" points="572,-100 572,-190 898,-190 898,-100 572,-100"/>
<text text-anchor="start" x="577" y="-178" font-family="Arial" font-size="10.00">date = &quot;08.10.2013 13:22:42&quot;</text>
<text text-anchor="start" x="577" y="-164" font-family="Arial" font-size="10.00">hoursSpend = 1.0</text>
<text text-anchor="start" x="577" y="-150" font-family="Arial" font-size="10.00">hoursRemainingInTotal = 0.0</text>
<text text-anchor="start" x="577" y="-136" font-family="Arial" font-size="10.00">developer = &quot;zuendorf&quot;</text>
<text text-anchor="start" x="577" y="-122" font-family="Arial" font-size="10.00">phase = &quot;done&quot;</text>
<text text-anchor="start" x="577" y="-108" font-family="Arial" font-size="10.00">comment = &quot;Achieved: Object diagram for storyboard and KanbanEntry:&quot;</text>
</g>
<!-- k2&#45;&#45;l8 -->
<g id="edge12" class="edge"><title>k2&#45;&#45;l8</title>
<path fill="none" stroke="black" d="M617.004,-262.326C635.274,-245.709 654.839,-227.912 672.68,-211.684"/>
<text text-anchor="middle" x="668.819" y="-218.409" font-family="Arial" font-size="10.00">logEntries</text>
<text text-anchor="middle" x="620.865" y="-250.601" font-family="Arial" font-size="10.00">kanbanEntry</text>
</g>
</g>
</svg>
