<?xml version="1.0" encoding="UTF-8" standalone="no"?>
<!DOCTYPE svg PUBLIC "-//W3C//DTD SVG 1.1//EN"
 "http://www.w3.org/Graphics/SVG/1.1/DTD/svg11.dtd">
<!-- Generated by graphviz version 2.28.0 (20110507.0327)
 -->
<!-- Title: ObjectDiagram Pages: 1 -->
<svg width="2075pt" height="1058pt"
 viewBox="0.00 0.00 2075.00 1058.00" xmlns="http://www.w3.org/2000/svg" xmlns:xlink="http://www.w3.org/1999/xlink">
<g id="graph1" class="graph" transform="scale(1 1) rotate(0) translate(4 1054)">
<title>ObjectDiagram</title>
<polygon fill="white" stroke="white" points="-4,5 -4,-1054 2072,-1054 2072,5 -4,5"/>
<!-- c1 -->
<g id="node1" class="node"><title>c1</title>
<a xlink:href="../../SDMLib/src/org/sdmlib/models/classes/ClassModel.java" xlink:title="&lt;TABLE&gt;">
<polygon fill="none" stroke="black" points="1289,-1028 1289,-1045 1443,-1045 1443,-1028 1289,-1028"/>
<text text-anchor="start" x="1330" y="-1034.5" font-family="Arial" font-size="10.00"> </text>
<text text-anchor="start" x="1334" y="-1034.5" font-family="Arial" font-size="10.00">c1 :ClassModel</text>
</a>
<polygon fill="none" stroke="black" points="1289,-994 1289,-1028 1443,-1028 1443,-994 1289,-994"/>
<text text-anchor="start" x="1294" y="-1016" font-family="Arial" font-size="10.00">name = &quot;org.sdmlib.storyboards&quot;</text>
<text text-anchor="start" x="1294" y="-1002" font-family="Arial" font-size="10.00">clazz = &quot;&quot;</text>
</g>
<!-- c2 -->
<g id="node2" class="node"><title>c2</title>
<a xlink:href="../../SDMLib/src/org/sdmlib/models/classes/Clazz.java" xlink:title="&lt;TABLE&gt;">
<polygon fill="none" stroke="black" points="96,-932 96,-949 323,-949 323,-932 96,-932"/>
<text text-anchor="start" x="186.5" y="-938.5" font-family="Arial" font-size="10.00"> </text>
<text text-anchor="start" x="190.5" y="-938.5" font-family="Arial" font-size="10.00">c2 :Clazz</text>
</a>
<polygon fill="none" stroke="black" points="96,-870 96,-932 323,-932 323,-870 96,-870"/>
<text text-anchor="start" x="101" y="-920" font-family="Arial" font-size="10.00">superClass = &quot;&quot;</text>
<text text-anchor="start" x="101" y="-906" font-family="Arial" font-size="10.00">orCreateAttribute = &quot;&quot;</text>
<text text-anchor="start" x="101" y="-892" font-family="Arial" font-size="10.00">name = &quot;org.sdmlib.storyboards.KanbanEntry&quot;</text>
<text text-anchor="start" x="101" y="-878" font-family="Arial" font-size="10.00">fullName = &quot;org.sdmlib.storyboards.KanbanEntry&quot;</text>
</g>
<!-- c1&#45;&#45;c2 -->
<g id="edge2" class="edge"><title>c1&#45;&#45;c2</title>
<path fill="none" stroke="black" d="M1280.74,-1011.32C1147.43,-999.289 881.525,-975.171 656,-954 545.778,-943.653 420.301,-931.555 330.406,-922.831"/>
<text text-anchor="middle" x="339.835" y="-916.999" font-family="Arial" font-size="10.00">classes</text>
<text text-anchor="middle" x="1271.34" y="-1012.22" font-family="Arial" font-size="10.00">classModel</text>
</g>
<!-- c10 -->
<g id="node10" class="node"><title>c10</title>
<a xlink:href="../../SDMLib/src/org/sdmlib/models/classes/Clazz.java" xlink:title="&lt;TABLE&gt;">
<polygon fill="none" stroke="black" points="317,-588 317,-605 575,-605 575,-588 317,-588"/>
<text text-anchor="start" x="420.5" y="-594.5" font-family="Arial" font-size="10.00"> </text>
<text text-anchor="start" x="424.5" y="-594.5" font-family="Arial" font-size="10.00">c10 :Clazz</text>
</a>
<polygon fill="none" stroke="black" points="317,-526 317,-588 575,-588 575,-526 317,-526"/>
<text text-anchor="start" x="322" y="-576" font-family="Arial" font-size="10.00">superClass = &quot;&quot;</text>
<text text-anchor="start" x="322" y="-562" font-family="Arial" font-size="10.00">orCreateAttribute = &quot;&quot;</text>
<text text-anchor="start" x="322" y="-548" font-family="Arial" font-size="10.00">name = &quot;org.sdmlib.storyboards.LogEntryStoryBoard&quot;</text>
<text text-anchor="start" x="322" y="-534" font-family="Arial" font-size="10.00">fullName = &quot;org.sdmlib.storyboards.LogEntryStoryBoard&quot;</text>
</g>
<!-- c1&#45;&#45;c10 -->
<g id="edge4" class="edge"><title>c1&#45;&#45;c10</title>
<path fill="none" stroke="black" d="M1280.84,-1010.26C1215.33,-1001.5 1123.55,-984.745 1048,-954 826.178,-863.73 597.113,-690.002 497.464,-609.667"/>
<text text-anchor="middle" x="507.189" y="-609.496" font-family="Arial" font-size="10.00">classes</text>
<text text-anchor="middle" x="1271.27" y="-1010.68" font-family="Arial" font-size="10.00">classModel</text>
</g>
<!-- c12 -->
<g id="node12" class="node"><title>c12</title>
<a xlink:href="../../SDMLib/src/org/sdmlib/models/classes/Clazz.java" xlink:title="&lt;TABLE&gt;">
<polygon fill="none" stroke="black" points="1162,-932 1162,-949 1399,-949 1399,-932 1162,-932"/>
<text text-anchor="start" x="1255" y="-938.5" font-family="Arial" font-size="10.00"> </text>
<text text-anchor="start" x="1259" y="-938.5" font-family="Arial" font-size="10.00">c12 :Clazz</text>
</a>
<polygon fill="none" stroke="black" points="1162,-870 1162,-932 1399,-932 1399,-870 1162,-870"/>
<text text-anchor="start" x="1167" y="-920" font-family="Arial" font-size="10.00">superClass = &quot;&quot;</text>
<text text-anchor="start" x="1167" y="-906" font-family="Arial" font-size="10.00">orCreateAttribute = &quot;&quot;</text>
<text text-anchor="start" x="1167" y="-892" font-family="Arial" font-size="10.00">name = &quot;StoryboardWall&quot;</text>
<text text-anchor="start" x="1167" y="-878" font-family="Arial" font-size="10.00">fullName = &quot;org.sdmlib.storyboards.StoryboardWall&quot;</text>
</g>
<!-- c1&#45;&#45;c12 -->
<g id="edge6" class="edge"><title>c1&#45;&#45;c12</title>
<path fill="none" stroke="black" d="M1343.18,-990.342C1334.22,-979.093 1323.75,-965.947 1313.95,-953.629"/>
<text text-anchor="middle" x="1322.9" y="-955.586" font-family="Arial" font-size="10.00">classes</text>
<text text-anchor="middle" x="1334.23" y="-983.384" font-family="Arial" font-size="10.00">classModel</text>
</g>
<!-- c15 -->
<g id="node15" class="node"><title>c15</title>
<a xlink:href="../../SDMLib/src/org/sdmlib/models/classes/Clazz.java" xlink:title="&lt;TABLE&gt;">
<polygon fill="none" stroke="black" points="1059,-588 1059,-605 1277,-605 1277,-588 1059,-588"/>
<text text-anchor="start" x="1142.5" y="-594.5" font-family="Arial" font-size="10.00"> </text>
<text text-anchor="start" x="1146.5" y="-594.5" font-family="Arial" font-size="10.00">c15 :Clazz</text>
</a>
<polygon fill="none" stroke="black" points="1059,-526 1059,-588 1277,-588 1277,-526 1059,-526"/>
<text text-anchor="start" x="1064" y="-576" font-family="Arial" font-size="10.00">superClass = &quot;&quot;</text>
<text text-anchor="start" x="1064" y="-562" font-family="Arial" font-size="10.00">orCreateAttribute = &quot;&quot;</text>
<text text-anchor="start" x="1064" y="-548" font-family="Arial" font-size="10.00">name = &quot;org.sdmlib.storyboards.Storyboard&quot;</text>
<text text-anchor="start" x="1064" y="-534" font-family="Arial" font-size="10.00">fullName = &quot;org.sdmlib.storyboards.Storyboard&quot;</text>
</g>
<!-- c1&#45;&#45;c15 -->
<g id="edge8" class="edge"><title>c1&#45;&#45;c15</title>
<path fill="none" stroke="black" d="M1280.95,-1004.92C1225.67,-993.829 1160.86,-976.498 1144,-954 1067.01,-851.235 1118.08,-686.752 1149.11,-609.58"/>
<text text-anchor="middle" x="1149.83" y="-617.054" font-family="Arial" font-size="10.00">classes</text>
<text text-anchor="middle" x="1271.21" y="-1004.7" font-family="Arial" font-size="10.00">classModel</text>
</g>
<!-- c21 -->
<g id="node21" class="node"><title>c21</title>
<a xlink:href="../../SDMLib/src/org/sdmlib/models/classes/Clazz.java" xlink:title="&lt;TABLE&gt;">
<polygon fill="none" stroke="black" points="1119,-244 1119,-261 1357,-261 1357,-244 1119,-244"/>
<text text-anchor="start" x="1212.5" y="-250.5" font-family="Arial" font-size="10.00"> </text>
<text text-anchor="start" x="1216.5" y="-250.5" font-family="Arial" font-size="10.00">c21 :Clazz</text>
</a>
<polygon fill="none" stroke="black" points="1119,-182 1119,-244 1357,-244 1357,-182 1119,-182"/>
<text text-anchor="start" x="1124" y="-232" font-family="Arial" font-size="10.00">superClass = &quot;&quot;</text>
<text text-anchor="start" x="1124" y="-218" font-family="Arial" font-size="10.00">orCreateAttribute = &quot;&quot;</text>
<text text-anchor="start" x="1124" y="-204" font-family="Arial" font-size="10.00">name = &quot;StoryboardStep&quot;</text>
<text text-anchor="start" x="1124" y="-190" font-family="Arial" font-size="10.00">fullName = &quot;org.sdmlib.storyboards.StoryboardStep&quot;</text>
</g>
<!-- c1&#45;&#45;c21 -->
<g id="edge10" class="edge"><title>c1&#45;&#45;c21</title>
<path fill="none" stroke="black" d="M1404.91,-990.492C1415.93,-980.29 1426.65,-967.848 1433,-954 1483.1,-844.726 1449,-804.211 1449,-684 1449,-684 1449,-684 1449,-448 1449,-367.806 1376.8,-304.443 1316.87,-265.66"/>
<text text-anchor="middle" x="1326.74" y="-264.741" font-family="Arial" font-size="10.00">classes</text>
<text text-anchor="middle" x="1408.57" y="-978.687" font-family="Arial" font-size="10.00">classModel</text>
</g>
<!-- g25 -->
<g id="node25" class="node"><title>g25</title>
<a xlink:href="../../SDMLib/src/org/sdmlib/models/classes/logic/GenClassModel.java" xlink:title="&lt;TABLE&gt;">
<polygon fill="none" stroke="black" points="930,-698 930,-715 1089,-715 1089,-698 930,-698"/>
<text text-anchor="start" x="962" y="-704.5" font-family="Arial" font-size="10.00"> </text>
<text text-anchor="start" x="966" y="-704.5" font-family="Arial" font-size="10.00">g25 :GenClassModel</text>
</a>
<polygon fill="none" stroke="black" points="930,-650 930,-698 1089,-698 1089,-650 930,-650"/>
<text text-anchor="start" x="935" y="-686" font-family="Arial" font-size="10.00">orCreateCreatorCreatorParser = &quot;&quot;</text>
<text text-anchor="start" x="935" y="-672" font-family="Arial" font-size="10.00">memberType = &quot;&quot;</text>
<text text-anchor="start" x="935" y="-658" font-family="Arial" font-size="10.00">orCreate = &quot;&quot;</text>
</g>
<!-- c1&#45;&#45;g25 -->
<g id="edge20" class="edge"><title>c1&#45;&#45;g25</title>
<path fill="none" stroke="black" d="M1280.97,-1016.84C1226.39,-1011.17 1157.32,-995.416 1111,-954 1041.52,-891.875 1019.16,-777.494 1012.12,-719.587"/>
<text text-anchor="middle" x="1017.54" y="-725.491" font-family="Arial" font-size="10.00">generator</text>
<text text-anchor="middle" x="1271.47" y="-1017.46" font-family="Arial" font-size="10.00">model</text>
</g>
<!-- f27 -->
<g id="node27" class="node"><title>f27</title>
<a xlink:href="../../SDMLib/src/org/sdmlib/models/classes/Feature.java" xlink:title="&lt;TABLE&gt;">
<polygon fill="none" stroke="black" points="1715,-911 1715,-928 1988,-928 1988,-911 1715,-911"/>
<text text-anchor="start" x="1823.5" y="-917.5" font-family="Arial" font-size="10.00"> </text>
<text text-anchor="start" x="1827.5" y="-917.5" font-family="Arial" font-size="10.00">f27 :Feature</text>
</a>
<polygon fill="none" stroke="black" points="1715,-891 1715,-911 1988,-911 1988,-891 1715,-891"/>
<text text-anchor="start" x="1720" y="-899" font-family="Arial" font-size="10.00">declaringClass = &quot;class org.sdmlib.models.classes.Feature&quot;</text>
</g>
<!-- c1&#45;&#45;f27 -->
<g id="edge12" class="edge"><title>c1&#45;&#45;f27</title>
<path fill="none" stroke="black" d="M1451.11,-1003.65C1517.09,-991.366 1610.67,-973.082 1692,-954 1719.28,-947.599 1748.98,-939.797 1775.24,-932.605"/>
<text text-anchor="middle" x="1767.61" y="-936.566" font-family="Arial" font-size="10.00">features</text>
</g>
<!-- f28 -->
<g id="node28" class="node"><title>f28</title>
<a xlink:href="../../SDMLib/src/org/sdmlib/models/classes/Feature.java" xlink:title="&lt;TABLE&gt;">
<polygon fill="none" stroke="black" points="1486,-794 1486,-811 1759,-811 1759,-794 1486,-794"/>
<text text-anchor="start" x="1594.5" y="-800.5" font-family="Arial" font-size="10.00"> </text>
<text text-anchor="start" x="1598.5" y="-800.5" font-family="Arial" font-size="10.00">f28 :Feature</text>
</a>
<polygon fill="none" stroke="black" points="1486,-774 1486,-794 1759,-794 1759,-774 1486,-774"/>
<text text-anchor="start" x="1491" y="-782" font-family="Arial" font-size="10.00">declaringClass = &quot;class org.sdmlib.models.classes.Feature&quot;</text>
</g>
<!-- c1&#45;&#45;f28 -->
<g id="edge14" class="edge"><title>c1&#45;&#45;f28</title>
<path fill="none" stroke="black" d="M1415.35,-990.409C1432.31,-979.771 1451.03,-967.085 1467,-954 1521.14,-909.628 1576.21,-848.018 1603.82,-815.727"/>
<text text-anchor="middle" x="1601.1" y="-822.849" font-family="Arial" font-size="10.00">features</text>
</g>
<!-- f29 -->
<g id="node29" class="node"><title>f29</title>
<a xlink:href="../../SDMLib/src/org/sdmlib/models/classes/Feature.java" xlink:title="&lt;TABLE&gt;">
<polygon fill="none" stroke="black" points="1673,-684 1673,-701 1946,-701 1946,-684 1673,-684"/>
<text text-anchor="start" x="1781.5" y="-690.5" font-family="Arial" font-size="10.00"> </text>
<text text-anchor="start" x="1785.5" y="-690.5" font-family="Arial" font-size="10.00">f29 :Feature</text>
</a>
<polygon fill="none" stroke="black" points="1673,-664 1673,-684 1946,-684 1946,-664 1673,-664"/>
<text text-anchor="start" x="1678" y="-672" font-family="Arial" font-size="10.00">declaringClass = &quot;class org.sdmlib.models.classes.Feature&quot;</text>
</g>
<!-- c1&#45;&#45;f29 -->
<g id="edge16" class="edge"><title>c1&#45;&#45;f29</title>
<path fill="none" stroke="black" d="M1441.17,-990.348C1468.44,-979.509 1499.34,-966.711 1527,-954 1604.31,-918.48 1619.25,-900.553 1697,-866 1738.64,-847.493 1765.04,-865.982 1793,-830 1821.08,-793.858 1817.65,-736.62 1813.09,-705.638"/>
<text text-anchor="middle" x="1818.45" y="-711.581" font-family="Arial" font-size="10.00">features</text>
</g>
<!-- f30 -->
<g id="node30" class="node"><title>f30</title>
<a xlink:href="../../SDMLib/src/org/sdmlib/models/classes/Feature.java" xlink:title="&lt;TABLE&gt;">
<polygon fill="none" stroke="black" points="1768,-567 1768,-584 2041,-584 2041,-567 1768,-567"/>
<text text-anchor="start" x="1876.5" y="-573.5" font-family="Arial" font-size="10.00"> </text>
<text text-anchor="start" x="1880.5" y="-573.5" font-family="Arial" font-size="10.00">f30 :Feature</text>
</a>
<polygon fill="none" stroke="black" points="1768,-547 1768,-567 2041,-567 2041,-547 1768,-547"/>
<text text-anchor="start" x="1773" y="-555" font-family="Arial" font-size="10.00">declaringClass = &quot;class org.sdmlib.models.classes.Feature&quot;</text>
</g>
<!-- c1&#45;&#45;f30 -->
<g id="edge18" class="edge"><title>c1&#45;&#45;f30</title>
<path fill="none" stroke="black" d="M1451.01,-1016.81C1619.82,-1011.58 1984.35,-995.563 2022,-954 2058.74,-913.439 2056.62,-753.86 1999,-646 1986.16,-621.971 1962.68,-602.341 1942.28,-588.659"/>
<text text-anchor="middle" x="1952.14" y="-587.831" font-family="Arial" font-size="10.00">features</text>
</g>
<!-- c2&#45;&#45;c2 -->
<g id="edge22" class="edge"><title>c2&#45;&#45;c2</title>
<path fill="none" stroke="black" d="M330.526,-926.243C341.268,-922.826 348,-917.412 348,-910 348,-902.588 341.268,-897.174 330.526,-893.757"/>
<text text-anchor="middle" x="340.476" y="-890.262" font-family="Arial" font-size="10.00">interfacesTransitive_kidClazzesTransitive_superClazzesTransitive_superClassTransitive</text>
</g>
<!-- a3 -->
<g id="node3" class="node"><title>a3</title>
<a xlink:href="../../SDMLib/src/org/sdmlib/models/classes/Attribute.java" xlink:title="&lt;TABLE&gt;">
<polygon fill="none" stroke="black" points="8,-457 8,-474 144,-474 144,-457 8,-457"/>
<text text-anchor="start" x="47" y="-463.5" font-family="Arial" font-size="10.00"> </text>
<text text-anchor="start" x="51" y="-463.5" font-family="Arial" font-size="10.00">a3 :Attribute</text>
</a>
<polygon fill="none" stroke="black" points="8,-423 8,-457 144,-457 144,-423 8,-423"/>
<text text-anchor="start" x="13" y="-445" font-family="Arial" font-size="10.00">initialization = &quot;&quot;</text>
<text text-anchor="start" x="13" y="-431" font-family="Arial" font-size="10.00">name = &quot;oldNoOfLogEntries&quot;</text>
</g>
<!-- c2&#45;&#45;a3 -->
<g id="edge26" class="edge"><title>c2&#45;&#45;a3</title>
<path fill="none" stroke="black" d="M170.876,-866.164C162.579,-855.016 154.614,-842.582 149,-830 94.2548,-707.302 80.4933,-544.386 77.0923,-478.982"/>
<text text-anchor="middle" x="81.8604" y="-485.272" font-family="Arial" font-size="10.00">attributes</text>
<text text-anchor="middle" x="162.111" y="-858.85" font-family="Arial" font-size="10.00">clazz</text>
</g>
<!-- a6 -->
<g id="node6" class="node"><title>a6</title>
<a xlink:href="../../SDMLib/src/org/sdmlib/models/classes/Attribute.java" xlink:title="&lt;TABLE&gt;">
<polygon fill="none" stroke="black" points="964,-120 964,-137 1051,-137 1051,-120 964,-120"/>
<text text-anchor="start" x="978.5" y="-126.5" font-family="Arial" font-size="10.00"> </text>
<text text-anchor="start" x="982.5" y="-126.5" font-family="Arial" font-size="10.00">a6 :Attribute</text>
</a>
<polygon fill="none" stroke="black" points="964,-86 964,-120 1051,-120 1051,-86 964,-86"/>
<text text-anchor="start" x="969" y="-108" font-family="Arial" font-size="10.00">initialization = &quot;&quot;</text>
<text text-anchor="start" x="969" y="-94" font-family="Arial" font-size="10.00">name = &quot;phases&quot;</text>
</g>
<!-- c2&#45;&#45;a6 -->
<g id="edge28" class="edge"><title>c2&#45;&#45;a6</title>
<path fill="none" stroke="black" d="M190.975,-866.479C161.963,-790.823 114.628,-630.597 182,-522 359.718,-235.536 804.441,-143.491 955.702,-119.942"/>
<text text-anchor="middle" x="947.489" y="-123.146" font-family="Arial" font-size="10.00">attributes</text>
<text text-anchor="middle" x="183.908" y="-856.905" font-family="Arial" font-size="10.00">clazz</text>
</g>
<!-- r8 -->
<g id="node8" class="node"><title>r8</title>
<a xlink:href="../../SDMLib/src/org/sdmlib/models/classes/Role.java" xlink:title="&lt;TABLE&gt;">
<polygon fill="none" stroke="black" points="199,-808 199,-825 309,-825 309,-808 199,-808"/>
<text text-anchor="start" x="235" y="-814.5" font-family="Arial" font-size="10.00"> </text>
<text text-anchor="start" x="239" y="-814.5" font-family="Arial" font-size="10.00">r8 :Role</text>
</a>
<polygon fill="none" stroke="black" points="199,-760 199,-808 309,-808 309,-760 199,-760"/>
<text text-anchor="start" x="204" y="-796" font-family="Arial" font-size="10.00">name = &quot;kanbanEntry&quot;</text>
<text text-anchor="start" x="204" y="-782" font-family="Arial" font-size="10.00">card = &quot;one&quot;</text>
<text text-anchor="start" x="204" y="-768" font-family="Arial" font-size="10.00">kind = &quot;aggregation&quot;</text>
</g>
<!-- c2&#45;&#45;r8 -->
<g id="edge24" class="edge"><title>c2&#45;&#45;r8</title>
<path fill="none" stroke="black" d="M225.756,-866.178C230.454,-854.173 235.51,-841.252 240.028,-829.707"/>
<text text-anchor="middle" x="240.661" y="-837.187" font-family="Arial" font-size="10.00">roles</text>
<text text-anchor="middle" x="225.123" y="-853.698" font-family="Arial" font-size="10.00">clazz</text>
</g>
<!-- v4 -->
<g id="node4" class="node"><title>v4</title>
<a xlink:href="../../SDMLib/src/org/sdmlib/models/classes/Visibility.java" xlink:title="&lt;TABLE&gt;">
<polygon fill="none" stroke="black" points="927,-24 927,-41 1008,-41 1008,-24 927,-24"/>
<text text-anchor="start" x="939.5" y="-30.5" font-family="Arial" font-size="10.00"> </text>
<text text-anchor="start" x="943.5" y="-30.5" font-family="Arial" font-size="10.00">v4 :Visibility</text>
</a>
<polygon fill="none" stroke="black" points="927,-4 927,-24 1008,-24 1008,-4 927,-4"/>
<text text-anchor="start" x="932" y="-12" font-family="Arial" font-size="10.00">value = &quot;private&quot;</text>
</g>
<!-- a3&#45;&#45;v4 -->
<g id="edge30" class="edge"><title>a3&#45;&#45;v4</title>
<path fill="none" stroke="black" d="M76.5932,-419.276C79.3926,-363.653 93.9025,-241.17 166,-178 279.966,-78.1464 763.127,-37.6216 918.597,-27.0122"/>
<text text-anchor="middle" x="909.869" y="-29.3929" font-family="Arial" font-size="10.00">visibility</text>
</g>
<!-- d5 -->
<g id="node5" class="node"><title>d5</title>
<a xlink:href="../../SDMLib/src/org/sdmlib/models/classes/DataType.java" xlink:title="&lt;TABLE&gt;">
<polygon fill="none" stroke="black" points="817,-340 817,-357 886,-357 886,-340 817,-340"/>
<text text-anchor="start" x="820.5" y="-346.5" font-family="Arial" font-size="10.00"> </text>
<text text-anchor="start" x="824.5" y="-346.5" font-family="Arial" font-size="10.00">d5 :DataType</text>
</a>
<polygon fill="none" stroke="black" points="817,-320 817,-340 886,-340 886,-320 817,-320"/>
<text text-anchor="start" x="822" y="-328" font-family="Arial" font-size="10.00">value = &quot;int&quot;</text>
</g>
<!-- a3&#45;&#45;d5 -->
<g id="edge32" class="edge"><title>a3&#45;&#45;d5</title>
<path fill="none" stroke="black" d="M152.076,-437.398C313.018,-414.97 683.462,-363.347 808.723,-345.892"/>
<text text-anchor="middle" x="800.33" y="-348.828" font-family="Arial" font-size="10.00">type</text>
</g>
<!-- a6&#45;&#45;v4 -->
<g id="edge34" class="edge"><title>a6&#45;&#45;v4</title>
<path fill="none" stroke="black" d="M993.681,-82.0303C988.226,-70.167 982.023,-56.6747 976.971,-45.6874"/>
<text text-anchor="middle" x="984.597" y="-49.6564" font-family="Arial" font-size="10.00">visibility</text>
</g>
<!-- d7 -->
<g id="node7" class="node"><title>d7</title>
<a xlink:href="../../SDMLib/src/org/sdmlib/models/classes/DataType.java" xlink:title="&lt;TABLE&gt;">
<polygon fill="none" stroke="black" points="1087,-24 1087,-41 1165,-41 1165,-24 1087,-24"/>
<text text-anchor="start" x="1095" y="-30.5" font-family="Arial" font-size="10.00"> </text>
<text text-anchor="start" x="1099" y="-30.5" font-family="Arial" font-size="10.00">d7 :DataType</text>
</a>
<polygon fill="none" stroke="black" points="1087,-4 1087,-24 1165,-24 1165,-4 1087,-4"/>
<text text-anchor="start" x="1092" y="-12" font-family="Arial" font-size="10.00">value = &quot;String&quot;</text>
</g>
<!-- a6&#45;&#45;d7 -->
<g id="edge36" class="edge"><title>a6&#45;&#45;d7</title>
<path fill="none" stroke="black" d="M1046.29,-82.2718C1062.68,-70.2942 1081.38,-56.621 1096.55,-45.5309"/>
<text text-anchor="middle" x="1091.73" y="-51.7915" font-family="Arial" font-size="10.00">type</text>
</g>
<!-- r9 -->
<g id="node9" class="node"><title>r9</title>
<a xlink:href="../../SDMLib/src/org/sdmlib/models/classes/Role.java" xlink:title="&lt;TABLE&gt;">
<polygon fill="none" stroke="black" points="278,-698 278,-715 377,-715 377,-698 278,-698"/>
<text text-anchor="start" x="308.5" y="-704.5" font-family="Arial" font-size="10.00"> </text>
<text text-anchor="start" x="312.5" y="-704.5" font-family="Arial" font-size="10.00">r9 :Role</text>
</a>
<polygon fill="none" stroke="black" points="278,-650 278,-698 377,-698 377,-650 278,-650"/>
<text text-anchor="start" x="283" y="-686" font-family="Arial" font-size="10.00">name = &quot;logEntries&quot;</text>
<text text-anchor="start" x="283" y="-672" font-family="Arial" font-size="10.00">card = &quot;many&quot;</text>
<text text-anchor="start" x="283" y="-658" font-family="Arial" font-size="10.00">kind = &quot;vanilla&quot;</text>
</g>
<!-- r8&#45;&#45;r9 -->
<g id="edge40" class="edge"><title>r8&#45;&#45;r9</title>
<path fill="none" stroke="black" d="M278.105,-756.337C286.079,-744.541 294.948,-731.419 302.92,-719.625"/>
<text text-anchor="middle" x="301.346" y="-727" font-family="Arial" font-size="10.00">partnerRole</text>
<text text-anchor="middle" x="279.679" y="-743.962" font-family="Arial" font-size="10.00">partnerRole</text>
</g>
<!-- a11 -->
<g id="node11" class="node"><title>a11</title>
<a xlink:href="../../SDMLib/src/org/sdmlib/models/classes/Association.java" xlink:title="&lt;TABLE&gt;">
<polygon fill="none" stroke="black" points="199,-567 199,-584 283,-584 283,-567 199,-567"/>
<text text-anchor="start" x="202.5" y="-573.5" font-family="Arial" font-size="10.00"> </text>
<text text-anchor="start" x="206.5" y="-573.5" font-family="Arial" font-size="10.00">a11 :Association</text>
</a>
<polygon fill="none" stroke="black" points="199,-547 199,-567 283,-567 283,-547 199,-547"/>
<text text-anchor="start" x="204" y="-555" font-family="Arial" font-size="10.00">name = &quot;&quot;</text>
</g>
<!-- r8&#45;&#45;a11 -->
<g id="edge38" class="edge"><title>r8&#45;&#45;a11</title>
<path fill="none" stroke="black" d="M251.94,-756.348C249.212,-709.137 244.486,-627.339 242.246,-588.572"/>
<text text-anchor="middle" x="246.988" y="-594.876" font-family="Arial" font-size="10.00">assoc</text>
<text text-anchor="middle" x="247.198" y="-745.044" font-family="Arial" font-size="10.00">source</text>
</g>
<!-- r9&#45;&#45;c10 -->
<g id="edge44" class="edge"><title>r9&#45;&#45;c10</title>
<path fill="none" stroke="black" d="M364,-646.244C376.008,-634.639 389.45,-621.649 401.921,-609.597"/>
<text text-anchor="middle" x="398.341" y="-616.434" font-family="Arial" font-size="10.00">clazz</text>
<text text-anchor="middle" x="367.58" y="-634.407" font-family="Arial" font-size="10.00">roles</text>
</g>
<!-- r9&#45;&#45;a11 -->
<g id="edge42" class="edge"><title>r9&#45;&#45;a11</title>
<path fill="none" stroke="black" d="M300.26,-646.244C286.159,-627.386 269.32,-604.87 257.203,-588.667"/>
<text text-anchor="middle" x="266.015" y="-590.894" font-family="Arial" font-size="10.00">assoc</text>
<text text-anchor="middle" x="291.448" y="-639.017" font-family="Arial" font-size="10.00">target</text>
</g>
<!-- c10&#45;&#45;c10 -->
<g id="edge46" class="edge"><title>c10&#45;&#45;c10</title>
<path fill="none" stroke="black" d="M583.051,-582.647C594.132,-579.026 601,-573.477 601,-566 601,-558.523 594.132,-552.974 583.051,-549.353"/>
<text text-anchor="middle" x="593.009" y="-545.93" font-family="Arial" font-size="10.00">interfacesTransitive_kidClazzesTransitive_superClazzesTransitive_superClassTransitive</text>
</g>
<!-- c12&#45;&#45;c12 -->
<g id="edge48" class="edge"><title>c12&#45;&#45;c12</title>
<path fill="none" stroke="black" d="M1406.38,-926.093C1417.23,-922.669 1424,-917.305 1424,-910 1424,-902.695 1417.23,-897.331 1406.38,-893.907"/>
<text text-anchor="middle" x="1416.33" y="-890.384" font-family="Arial" font-size="10.00">interfacesTransitive_kidClazzesTransitive_superClazzesTransitive_superClassTransitive</text>
</g>
<!-- r13 -->
<g id="node13" class="node"><title>r13</title>
<a xlink:href="../../SDMLib/src/org/sdmlib/models/classes/Role.java" xlink:title="&lt;TABLE&gt;">
<polygon fill="none" stroke="black" points="1244,-808 1244,-825 1319,-825 1319,-808 1244,-808"/>
<text text-anchor="start" x="1259.5" y="-814.5" font-family="Arial" font-size="10.00"> </text>
<text text-anchor="start" x="1263.5" y="-814.5" font-family="Arial" font-size="10.00">r13 :Role</text>
</a>
<polygon fill="none" stroke="black" points="1244,-760 1244,-808 1319,-808 1319,-760 1244,-760"/>
<text text-anchor="start" x="1249" y="-796" font-family="Arial" font-size="10.00">name = &quot;wall&quot;</text>
<text text-anchor="start" x="1249" y="-782" font-family="Arial" font-size="10.00">card = &quot;one&quot;</text>
<text text-anchor="start" x="1249" y="-768" font-family="Arial" font-size="10.00">kind = &quot;vanilla&quot;</text>
</g>
<!-- c12&#45;&#45;r13 -->
<g id="edge50" class="edge"><title>c12&#45;&#45;r13</title>
<path fill="none" stroke="black" d="M1280.37,-866.178C1280.48,-854.173 1280.59,-841.252 1280.69,-829.707"/>
<text text-anchor="middle" x="1284.84" y="-836.307" font-family="Arial" font-size="10.00">roles</text>
<text text-anchor="middle" x="1276.23" y="-854.579" font-family="Arial" font-size="10.00">clazz</text>
</g>
<!-- r14 -->
<g id="node14" class="node"><title>r14</title>
<a xlink:href="../../SDMLib/src/org/sdmlib/models/classes/Role.java" xlink:title="&lt;TABLE&gt;">
<polygon fill="none" stroke="black" points="1231,-698 1231,-715 1332,-715 1332,-698 1231,-698"/>
<text text-anchor="start" x="1259.5" y="-704.5" font-family="Arial" font-size="10.00"> </text>
<text text-anchor="start" x="1263.5" y="-704.5" font-family="Arial" font-size="10.00">r14 :Role</text>
</a>
<polygon fill="none" stroke="black" points="1231,-650 1231,-698 1332,-698 1332,-650 1231,-650"/>
<text text-anchor="start" x="1236" y="-686" font-family="Arial" font-size="10.00">name = &quot;storyboard&quot;</text>
<text text-anchor="start" x="1236" y="-672" font-family="Arial" font-size="10.00">card = &quot;one&quot;</text>
<text text-anchor="start" x="1236" y="-658" font-family="Arial" font-size="10.00">kind = &quot;vanilla&quot;</text>
</g>
<!-- r13&#45;&#45;r14 -->
<g id="edge54" class="edge"><title>r13&#45;&#45;r14</title>
<path fill="none" stroke="black" d="M1281,-756.337C1281,-744.541 1281,-731.419 1281,-719.625"/>
<text text-anchor="middle" x="1285.23" y="-726.188" font-family="Arial" font-size="10.00">partnerRole</text>
<text text-anchor="middle" x="1276.77" y="-744.774" font-family="Arial" font-size="10.00">partnerRole</text>
</g>
<!-- a24 -->
<g id="node24" class="node"><title>a24</title>
<a xlink:href="../../SDMLib/src/org/sdmlib/models/classes/Association.java" xlink:title="&lt;TABLE&gt;">
<polygon fill="none" stroke="black" points="1329,-567 1329,-584 1413,-584 1413,-567 1329,-567"/>
<text text-anchor="start" x="1332.5" y="-573.5" font-family="Arial" font-size="10.00"> </text>
<text text-anchor="start" x="1336.5" y="-573.5" font-family="Arial" font-size="10.00">a24 :Association</text>
</a>
<polygon fill="none" stroke="black" points="1329,-547 1329,-567 1413,-567 1413,-547 1329,-547"/>
<text text-anchor="start" x="1334" y="-555" font-family="Arial" font-size="10.00">name = &quot;&quot;</text>
</g>
<!-- r13&#45;&#45;a24 -->
<g id="edge52" class="edge"><title>r13&#45;&#45;a24</title>
<path fill="none" stroke="black" d="M1321.96,-756.415C1331.97,-745.692 1341.62,-733.227 1348,-720 1368.83,-676.812 1371.79,-619.466 1371.68,-588.702"/>
<text text-anchor="middle" x="1375.84" y="-595.296" font-family="Arial" font-size="10.00">assoc</text>
<text text-anchor="middle" x="1324.96" y="-744.375" font-family="Arial" font-size="10.00">source</text>
</g>
<!-- r14&#45;&#45;c15 -->
<g id="edge58" class="edge"><title>r14&#45;&#45;c15</title>
<path fill="none" stroke="black" d="M1245.87,-646.244C1234.46,-634.639 1221.7,-621.649 1209.86,-609.597"/>
<text text-anchor="middle" x="1219.22" y="-610.6" font-family="Arial" font-size="10.00">clazz</text>
<text text-anchor="middle" x="1236.5" y="-640.241" font-family="Arial" font-size="10.00">roles</text>
</g>
<!-- r14&#45;&#45;a24 -->
<g id="edge56" class="edge"><title>r14&#45;&#45;a24</title>
<path fill="none" stroke="black" d="M1308.98,-646.244C1323.74,-627.386 1341.36,-604.87 1354.04,-588.667"/>
<text text-anchor="middle" x="1351.79" y="-595.908" font-family="Arial" font-size="10.00">assoc</text>
<text text-anchor="middle" x="1311.24" y="-634.002" font-family="Arial" font-size="10.00">target</text>
</g>
<!-- c15&#45;&#45;c15 -->
<g id="edge60" class="edge"><title>c15&#45;&#45;c15</title>
<path fill="none" stroke="black" d="M1285.11,-583.437C1296.08,-579.855 1303,-574.043 1303,-566 1303,-557.957 1296.08,-552.145 1285.11,-548.563"/>
<text text-anchor="middle" x="1295.07" y="-545.162" font-family="Arial" font-size="10.00">interfacesTransitive_kidClazzesTransitive_superClazzesTransitive_superClassTransitive</text>
</g>
<!-- a16 -->
<g id="node16" class="node"><title>a16</title>
<a xlink:href="../../SDMLib/src/org/sdmlib/models/classes/Attribute.java" xlink:title="&lt;TABLE&gt;">
<polygon fill="none" stroke="black" points="1201,-120 1201,-137 1285,-137 1285,-120 1201,-120"/>
<text text-anchor="start" x="1211.5" y="-126.5" font-family="Arial" font-size="10.00"> </text>
<text text-anchor="start" x="1215.5" y="-126.5" font-family="Arial" font-size="10.00">a16 :Attribute</text>
</a>
<polygon fill="none" stroke="black" points="1201,-86 1201,-120 1285,-120 1285,-86 1201,-86"/>
<text text-anchor="start" x="1206" y="-108" font-family="Arial" font-size="10.00">initialization = &quot;&quot;</text>
<text text-anchor="start" x="1206" y="-94" font-family="Arial" font-size="10.00">name = &quot;rootDir&quot;</text>
</g>
<!-- c15&#45;&#45;a16 -->
<g id="edge64" class="edge"><title>c15&#45;&#45;a16</title>
<path fill="none" stroke="black" d="M1214.77,-522.398C1269.69,-468.844 1357.65,-371.117 1392,-266 1404.15,-228.824 1413.42,-210.721 1392,-178 1370.28,-144.826 1327.52,-128.487 1293.36,-120.496"/>
<text text-anchor="middle" x="1303.18" y="-116.127" font-family="Arial" font-size="10.00">attributes</text>
<text text-anchor="middle" x="1218.2" y="-510.503" font-family="Arial" font-size="10.00">clazz</text>
</g>
<!-- a17 -->
<g id="node17" class="node"><title>a17</title>
<a xlink:href="../../SDMLib/src/org/sdmlib/models/classes/Attribute.java" xlink:title="&lt;TABLE&gt;">
<polygon fill="none" stroke="black" points="879,-457 879,-474 987,-474 987,-457 879,-457"/>
<text text-anchor="start" x="901.5" y="-463.5" font-family="Arial" font-size="10.00"> </text>
<text text-anchor="start" x="905.5" y="-463.5" font-family="Arial" font-size="10.00">a17 :Attribute</text>
</a>
<polygon fill="none" stroke="black" points="879,-423 879,-457 987,-457 987,-423 879,-423"/>
<text text-anchor="start" x="884" y="-445" font-family="Arial" font-size="10.00">initialization = &quot;&quot;</text>
<text text-anchor="start" x="884" y="-431" font-family="Arial" font-size="10.00">name = &quot;stepCounter&quot;</text>
</g>
<!-- c15&#45;&#45;a17 -->
<g id="edge66" class="edge"><title>c15&#45;&#45;a17</title>
<path fill="none" stroke="black" d="M1080.83,-522.342C1051.05,-507.768 1018.47,-491.828 991.503,-478.629"/>
<text text-anchor="middle" x="1001.5" y="-476.317" font-family="Arial" font-size="10.00">attributes</text>
<text text-anchor="middle" x="1070.83" y="-519.654" font-family="Arial" font-size="10.00">clazz</text>
</g>
<!-- a18 -->
<g id="node18" class="node"><title>a18</title>
<a xlink:href="../../SDMLib/src/org/sdmlib/models/classes/Attribute.java" xlink:title="&lt;TABLE&gt;">
<polygon fill="none" stroke="black" points="715,-457 715,-474 845,-474 845,-457 715,-457"/>
<text text-anchor="start" x="748.5" y="-463.5" font-family="Arial" font-size="10.00"> </text>
<text text-anchor="start" x="752.5" y="-463.5" font-family="Arial" font-size="10.00">a18 :Attribute</text>
</a>
<polygon fill="none" stroke="black" points="715,-423 715,-457 845,-457 845,-423 715,-423"/>
<text text-anchor="start" x="720" y="-445" font-family="Arial" font-size="10.00">initialization = &quot;&quot;</text>
<text text-anchor="start" x="720" y="-431" font-family="Arial" font-size="10.00">name = &quot;stepDoneCounter&quot;</text>
</g>
<!-- c15&#45;&#45;a18 -->
<g id="edge68" class="edge"><title>c15&#45;&#45;a18</title>
<path fill="none" stroke="black" d="M1050.84,-534.391C1034.77,-530.215 1018.48,-525.993 1003,-522 940.373,-505.845 923.149,-507.07 862,-486 855.532,-483.771 848.865,-481.245 842.259,-478.59"/>
<text text-anchor="middle" x="852.243" y="-475.528" font-family="Arial" font-size="10.00">attributes</text>
<text text-anchor="middle" x="1041.01" y="-533.702" font-family="Arial" font-size="10.00">clazz</text>
</g>
<!-- r19 -->
<g id="node19" class="node"><title>r19</title>
<a xlink:href="../../SDMLib/src/org/sdmlib/models/classes/Role.java" xlink:title="&lt;TABLE&gt;">
<polygon fill="none" stroke="black" points="1114,-464 1114,-481 1215,-481 1215,-464 1114,-464"/>
<text text-anchor="start" x="1142.5" y="-470.5" font-family="Arial" font-size="10.00"> </text>
<text text-anchor="start" x="1146.5" y="-470.5" font-family="Arial" font-size="10.00">r19 :Role</text>
</a>
<polygon fill="none" stroke="black" points="1114,-416 1114,-464 1215,-464 1215,-416 1114,-416"/>
<text text-anchor="start" x="1119" y="-452" font-family="Arial" font-size="10.00">name = &quot;storyboard&quot;</text>
<text text-anchor="start" x="1119" y="-438" font-family="Arial" font-size="10.00">card = &quot;one&quot;</text>
<text text-anchor="start" x="1119" y="-424" font-family="Arial" font-size="10.00">kind = &quot;vanilla&quot;</text>
</g>
<!-- c15&#45;&#45;r19 -->
<g id="edge62" class="edge"><title>c15&#45;&#45;r19</title>
<path fill="none" stroke="black" d="M1166.51,-522.178C1166.09,-510.173 1165.64,-497.252 1165.24,-485.707"/>
<text text-anchor="middle" x="1169.78" y="-492.118" font-family="Arial" font-size="10.00">roles</text>
<text text-anchor="middle" x="1161.97" y="-510.768" font-family="Arial" font-size="10.00">clazz</text>
</g>
<!-- a16&#45;&#45;v4 -->
<g id="edge70" class="edge"><title>a16&#45;&#45;v4</title>
<path fill="none" stroke="black" d="M1192.76,-85.4989C1189.82,-84.2597 1186.89,-83.0827 1184,-82 1127.41,-60.7631 1059.8,-43.9804 1015.25,-34.0434"/>
<text text-anchor="middle" x="1025.03" y="-29.4293" font-family="Arial" font-size="10.00">visibility</text>
</g>
<!-- a16&#45;&#45;d7 -->
<g id="edge72" class="edge"><title>a16&#45;&#45;d7</title>
<path fill="none" stroke="black" d="M1204.37,-82.2718C1188.26,-70.2942 1169.87,-56.621 1154.96,-45.5309"/>
<text text-anchor="middle" x="1164.75" y="-45.0475" font-family="Arial" font-size="10.00">type</text>
</g>
<!-- a17&#45;&#45;v4 -->
<g id="edge74" class="edge"><title>a17&#45;&#45;v4</title>
<path fill="none" stroke="black" d="M931.011,-419.184C927.369,-356.946 922.046,-205.592 946,-82 948.405,-69.5941 953.054,-56.302 957.368,-45.5765"/>
<text text-anchor="middle" x="957.965" y="-53.0587" font-family="Arial" font-size="10.00">visibility</text>
</g>
<!-- a17&#45;&#45;d5 -->
<g id="edge76" class="edge"><title>a17&#45;&#45;d5</title>
<path fill="none" stroke="black" d="M911.241,-419.342C897.481,-401.219 879.982,-378.172 867.395,-361.593"/>
<text text-anchor="middle" x="876.241" y="-363.755" font-family="Arial" font-size="10.00">type</text>
</g>
<!-- a18&#45;&#45;v4 -->
<g id="edge78" class="edge"><title>a18&#45;&#45;v4</title>
<path fill="none" stroke="black" d="M780.264,-419.489C781.326,-389.467 785.285,-341.207 799,-302 835.402,-197.936 914.182,-90.6854 949.385,-45.8048"/>
<text text-anchor="middle" x="947.195" y="-53.0619" font-family="Arial" font-size="10.00">visibility</text>
</g>
<!-- a18&#45;&#45;d5 -->
<g id="edge80" class="edge"><title>a18&#45;&#45;d5</title>
<path fill="none" stroke="black" d="M798.84,-419.342C810.754,-401.219 825.906,-378.172 836.805,-361.593"/>
<text text-anchor="middle" x="835.358" y="-368.988" font-family="Arial" font-size="10.00">type</text>
</g>
<!-- r20 -->
<g id="node20" class="node"><title>r20</title>
<a xlink:href="../../SDMLib/src/org/sdmlib/models/classes/Role.java" xlink:title="&lt;TABLE&gt;">
<polygon fill="none" stroke="black" points="1101,-354 1101,-371 1227,-371 1227,-354 1101,-354"/>
<text text-anchor="start" x="1142" y="-360.5" font-family="Arial" font-size="10.00"> </text>
<text text-anchor="start" x="1146" y="-360.5" font-family="Arial" font-size="10.00">r20 :Role</text>
</a>
<polygon fill="none" stroke="black" points="1101,-306 1101,-354 1227,-354 1227,-306 1101,-306"/>
<text text-anchor="start" x="1106" y="-342" font-family="Arial" font-size="10.00">name = &quot;storyboardSteps&quot;</text>
<text text-anchor="start" x="1106" y="-328" font-family="Arial" font-size="10.00">card = &quot;many&quot;</text>
<text text-anchor="start" x="1106" y="-314" font-family="Arial" font-size="10.00">kind = &quot;vanilla&quot;</text>
</g>
<!-- r19&#45;&#45;r20 -->
<g id="edge84" class="edge"><title>r19&#45;&#45;r20</title>
<path fill="none" stroke="black" d="M1164,-412.337C1164,-400.541 1164,-387.419 1164,-375.625"/>
<text text-anchor="middle" x="1168.23" y="-382.188" font-family="Arial" font-size="10.00">partnerRole</text>
<text text-anchor="middle" x="1159.77" y="-400.774" font-family="Arial" font-size="10.00">partnerRole</text>
</g>
<!-- a23 -->
<g id="node23" class="node"><title>a23</title>
<a xlink:href="../../SDMLib/src/org/sdmlib/models/classes/Association.java" xlink:title="&lt;TABLE&gt;">
<polygon fill="none" stroke="black" points="1001,-223 1001,-240 1085,-240 1085,-223 1001,-223"/>
<text text-anchor="start" x="1004.5" y="-229.5" font-family="Arial" font-size="10.00"> </text>
<text text-anchor="start" x="1008.5" y="-229.5" font-family="Arial" font-size="10.00">a23 :Association</text>
</a>
<polygon fill="none" stroke="black" points="1001,-203 1001,-223 1085,-223 1085,-203 1001,-203"/>
<text text-anchor="start" x="1006" y="-211" font-family="Arial" font-size="10.00">name = &quot;&quot;</text>
</g>
<!-- r19&#45;&#45;a23 -->
<g id="edge82" class="edge"><title>r19&#45;&#45;a23</title>
<path fill="none" stroke="black" d="M1115.3,-412.291C1103.64,-401.734 1092.2,-389.382 1084,-376 1058.2,-333.915 1048.43,-275.627 1044.88,-244.548"/>
<text text-anchor="middle" x="1050.2" y="-250.519" font-family="Arial" font-size="10.00">assoc</text>
<text text-anchor="middle" x="1105.77" y="-406.749" font-family="Arial" font-size="10.00">target</text>
</g>
<!-- r20&#45;&#45;c21 -->
<g id="edge88" class="edge"><title>r20&#45;&#45;c21</title>
<path fill="none" stroke="black" d="M1187.01,-302.244C1194.48,-290.639 1202.83,-277.649 1210.59,-265.597"/>
<text text-anchor="middle" x="1209.24" y="-273.005" font-family="Arial" font-size="10.00">clazz</text>
<text text-anchor="middle" x="1188.36" y="-289.835" font-family="Arial" font-size="10.00">roles</text>
</g>
<!-- r20&#45;&#45;a23 -->
<g id="edge86" class="edge"><title>r20&#45;&#45;a23</title>
<path fill="none" stroke="black" d="M1126.38,-302.244C1106.54,-283.386 1082.85,-260.87 1065.8,-244.667"/>
<text text-anchor="middle" x="1075.28" y="-245.347" font-family="Arial" font-size="10.00">assoc</text>
<text text-anchor="middle" x="1116.9" y="-296.563" font-family="Arial" font-size="10.00">source</text>
</g>
<!-- c21&#45;&#45;c21 -->
<g id="edge90" class="edge"><title>c21&#45;&#45;c21</title>
<path fill="none" stroke="black" d="M1365.26,-238.093C1376.18,-234.669 1383,-229.305 1383,-222 1383,-214.695 1376.18,-209.331 1365.26,-205.907"/>
<text text-anchor="middle" x="1375.2" y="-202.363" font-family="Arial" font-size="10.00">interfacesTransitive_kidClazzesTransitive_superClazzesTransitive_superClassTransitive</text>
</g>
<!-- a22 -->
<g id="node22" class="node"><title>a22</title>
<a xlink:href="../../SDMLib/src/org/sdmlib/models/classes/Attribute.java" xlink:title="&lt;TABLE&gt;">
<polygon fill="none" stroke="black" points="1085,-120 1085,-137 1167,-137 1167,-120 1085,-120"/>
<text text-anchor="start" x="1094.5" y="-126.5" font-family="Arial" font-size="10.00"> </text>
<text text-anchor="start" x="1098.5" y="-126.5" font-family="Arial" font-size="10.00">a22 :Attribute</text>
</a>
<polygon fill="none" stroke="black" points="1085,-86 1085,-120 1167,-120 1167,-86 1085,-86"/>
<text text-anchor="start" x="1090" y="-108" font-family="Arial" font-size="10.00">initialization = &quot;&quot;</text>
<text text-anchor="start" x="1090" y="-94" font-family="Arial" font-size="10.00">name = &quot;text&quot;</text>
</g>
<!-- c21&#45;&#45;a22 -->
<g id="edge92" class="edge"><title>c21&#45;&#45;a22</title>
<path fill="none" stroke="black" d="M1193.73,-178.316C1181.02,-166.052 1167.45,-152.973 1155.83,-141.765"/>
<text text-anchor="middle" x="1165.29" y="-142.514" font-family="Arial" font-size="10.00">attributes</text>
<text text-anchor="middle" x="1184.28" y="-172.567" font-family="Arial" font-size="10.00">clazz</text>
</g>
<!-- a22&#45;&#45;v4 -->
<g id="edge94" class="edge"><title>a22&#45;&#45;v4</title>
<path fill="none" stroke="black" d="M1077,-84.1872C1054.37,-71.8053 1027.85,-57.2973 1006.53,-45.6279"/>
<text text-anchor="middle" x="1016.51" y="-43.7708" font-family="Arial" font-size="10.00">visibility</text>
</g>
<!-- a22&#45;&#45;d7 -->
<g id="edge96" class="edge"><title>a22&#45;&#45;d7</title>
<path fill="none" stroke="black" d="M1126,-82.0303C1126,-70.167 1126,-56.6747 1126,-45.6874"/>
<text text-anchor="middle" x="1130.23" y="-52.2504" font-family="Arial" font-size="10.00">type</text>
</g>
<!-- g25&#45;&#45;a11 -->
<g id="edge98" class="edge"><title>g25&#45;&#45;a11</title>
<path fill="none" stroke="black" d="M921.577,-678.818C757.86,-671.926 411.506,-652.673 300,-610 287.215,-605.107 274.717,-596.69 264.539,-588.592"/>
<text text-anchor="middle" x="274.284" y="-588.335" font-family="Arial" font-size="10.00">associations</text>
</g>
<!-- g25&#45;&#45;a23 -->
<g id="edge102" class="edge"><title>g25&#45;&#45;a23</title>
<path fill="none" stroke="black" d="M1011.64,-646.365C1018.36,-555.582 1035.99,-317.635 1041.4,-244.619"/>
<text text-anchor="middle" x="1044.94" y="-251.47" font-family="Arial" font-size="10.00">associations</text>
</g>
<!-- g25&#45;&#45;a24 -->
<g id="edge100" class="edge"><title>g25&#45;&#45;a24</title>
<path fill="none" stroke="black" d="M1096.57,-670.606C1158.77,-660.293 1243.12,-641.719 1312,-610 1323.97,-604.486 1335.96,-596.356 1345.96,-588.645"/>
<text text-anchor="middle" x="1341.3" y="-594.991" font-family="Arial" font-size="10.00">associations</text>
</g>
<!-- g26 -->
<g id="node26" class="node"><title>g26</title>
<a xlink:href="../../SDMLib/src/org/sdmlib/models/classes/logic/GenClassModel.java" xlink:title="&lt;TABLE&gt;">
<polygon fill="none" stroke="black" points="628,-567 628,-584 987,-584 987,-567 628,-567"/>
<text text-anchor="start" x="746.5" y="-573.5" font-family="Arial" font-size="10.00"> </text>
<text text-anchor="start" x="750.5" y="-573.5" font-family="Arial" font-size="10.00">g26 :GenClassModel$DIFF</text>
</a>
<polygon fill="none" stroke="black" points="628,-547 628,-567 987,-567 987,-547 628,-547"/>
<text text-anchor="start" x="633" y="-555" font-family="Arial" font-size="10.00">declaringClass = &quot;class org.sdmlib.models.classes.logic.GenClassModel$DIFF&quot;</text>
</g>
<!-- g25&#45;&#45;g26 -->
<g id="edge104" class="edge"><title>g25&#45;&#45;g26</title>
<path fill="none" stroke="black" d="M946.469,-646.401C913.215,-627.469 873.419,-604.813 844.864,-588.556"/>
<text text-anchor="middle" x="854.831" y="-586.867" font-family="Arial" font-size="10.00">showDiff</text>
</g>
<!-- f27&#45;&#45;f27 -->
<g id="edge106" class="edge"><title>f27&#45;&#45;f27</title>
<path fill="none" stroke="black" d="M1995.28,-925.469C2006.25,-922.031 2013,-916.875 2013,-910 2013,-903.125 2006.25,-897.969 1995.28,-894.531"/>
<text text-anchor="middle" x="2005.22" y="-890.97" font-family="Arial" font-size="10.00">all</text>
</g>
<!-- f27&#45;&#45;f28 -->
<g id="edge108" class="edge"><title>f27&#45;&#45;f28</title>
<path fill="none" stroke="black" d="M1807.93,-887.369C1766.99,-866.809 1705.76,-836.062 1664.88,-815.534"/>
<text text-anchor="middle" x="1674.88" y="-813.324" font-family="Arial" font-size="10.00">all</text>
<text text-anchor="middle" x="1797.93" y="-884.579" font-family="Arial" font-size="10.00">all</text>
</g>
<!-- f27&#45;&#45;f29 -->
<g id="edge110" class="edge"><title>f27&#45;&#45;f29</title>
<path fill="none" stroke="black" d="M1848.23,-887.354C1844.27,-857.613 1836.44,-802.507 1827,-756 1823.54,-738.953 1818.72,-719.863 1814.94,-705.625"/>
<text text-anchor="middle" x="1821.34" y="-710.811" font-family="Arial" font-size="10.00">all</text>
<text text-anchor="middle" x="1842.83" y="-876.437" font-family="Arial" font-size="10.00">all</text>
</g>
<!-- f27&#45;&#45;f30 -->
<g id="edge112" class="edge"><title>f27&#45;&#45;f30</title>
<path fill="none" stroke="black" d="M1872.52,-887.258C1903.39,-854.372 1958.85,-788.516 1980,-720 1989.7,-688.575 1992.29,-676.506 1980,-646 1970.68,-622.875 1951,-602.73 1934,-588.571"/>
<text text-anchor="middle" x="1943.63" y="-588.756" font-family="Arial" font-size="10.00">all</text>
<text text-anchor="middle" x="1875.54" y="-875.224" font-family="Arial" font-size="10.00">all</text>
</g>
<!-- f28&#45;&#45;f28 -->
<g id="edge114" class="edge"><title>f28&#45;&#45;f28</title>
<path fill="none" stroke="black" d="M1766.28,-808.469C1777.25,-805.031 1784,-799.875 1784,-793 1784,-786.125 1777.25,-780.969 1766.28,-777.531"/>
<text text-anchor="middle" x="1776.22" y="-773.97" font-family="Arial" font-size="10.00">all</text>
</g>
<!-- f28&#45;&#45;f29 -->
<g id="edge116" class="edge"><title>f28&#45;&#45;f29</title>
<path fill="none" stroke="black" d="M1659.39,-770.404C1692.01,-751.568 1739.08,-724.384 1771.67,-705.558"/>
<text text-anchor="middle" x="1765.94" y="-711.251" font-family="Arial" font-size="10.00">all</text>
<text text-anchor="middle" x="1665.13" y="-759.712" font-family="Arial" font-size="10.00">all</text>
</g>
<!-- f28&#45;&#45;f30 -->
<g id="edge118" class="edge"><title>f28&#45;&#45;f30</title>
<path fill="none" stroke="black" d="M1620.64,-770.408C1619.88,-738.958 1623.27,-680.546 1655,-646 1682.38,-616.189 1720.93,-597.562 1759.54,-585.944"/>
<text text-anchor="middle" x="1752.2" y="-590.23" font-family="Arial" font-size="10.00">all</text>
<text text-anchor="middle" x="1616.34" y="-758.878" font-family="Arial" font-size="10.00">all</text>
</g>
<!-- f29&#45;&#45;f29 -->
<g id="edge120" class="edge"><title>f29&#45;&#45;f29</title>
<path fill="none" stroke="black" d="M1953.28,-698.469C1964.25,-695.031 1971,-689.875 1971,-683 1971,-676.125 1964.25,-670.969 1953.28,-667.531"/>
<text text-anchor="middle" x="1963.22" y="-663.97" font-family="Arial" font-size="10.00">all</text>
</g>
<!-- f29&#45;&#45;f30 -->
<g id="edge122" class="edge"><title>f29&#45;&#45;f30</title>
<path fill="none" stroke="black" d="M1826.87,-660.369C1843.85,-639.809 1869.25,-609.062 1886.21,-588.534"/>
<text text-anchor="middle" x="1883.7" y="-595.712" font-family="Arial" font-size="10.00">all</text>
<text text-anchor="middle" x="1829.38" y="-648.191" font-family="Arial" font-size="10.00">all</text>
</g>
<!-- f30&#45;&#45;f30 -->
<g id="edge124" class="edge"><title>f30&#45;&#45;f30</title>
<path fill="none" stroke="black" d="M2048.28,-582.313C2059.25,-578.688 2066,-573.25 2066,-566 2066,-558.75 2059.25,-553.313 2048.28,-549.688"/>
<text text-anchor="middle" x="2058.24" y="-546.291" font-family="Arial" font-size="10.00">all</text>
</g>
</g>
</svg>
