<?xml version="1.0" encoding="UTF-8" standalone="no"?>
<!DOCTYPE svg PUBLIC "-//W3C//DTD SVG 1.1//EN"
 "http://www.w3.org/Graphics/SVG/1.1/DTD/svg11.dtd">
<!-- Generated by graphviz version 2.28.0 (20110507.0327)
 -->
<!-- Title: ObjectDiagram Pages: 1 -->
<svg width="821pt" height="924pt"
 viewBox="0.00 0.00 821.00 924.00" xmlns="http://www.w3.org/2000/svg" xmlns:xlink="http://www.w3.org/1999/xlink">
<g id="graph1" class="graph" transform="scale(1 1) rotate(0) translate(4 920)">
<title>ObjectDiagram</title>
<polygon fill="white" stroke="white" points="-4,5 -4,-920 818,-920 818,5 -4,5"/>
<!-- c1 -->
<g id="node1" class="node"><title>c1</title>
<a xlink:href="../../SDMLib/src/org/sdmlib/models/classes/ClassModel.java" xlink:title="&lt;TABLE&gt;">
<polygon fill="none" stroke="black" points="469,-894 469,-911 648,-911 648,-894 469,-894"/>
<text text-anchor="start" x="526" y="-900.5" font-family="Times New Roman,serif" font-size="10.00"> </text>
<text text-anchor="start" x="529" y="-900.5" font-family="Times New Roman,serif" font-size="10.00">c1 :ClassModel</text>
</a>
<polygon fill="none" stroke="black" points="469,-874 469,-894 648,-894 648,-874 469,-874"/>
<text text-anchor="start" x="474" y="-882" font-family="Times New Roman,serif" font-size="10.00">packageName = &quot;org.sdmlib.storyboards&quot;</text>
</g>
<!-- c2 -->
<g id="node2" class="node"><title>c2</title>
<a xlink:href="../../SDMLib/src/org/sdmlib/models/classes/Clazz.java" xlink:title="&lt;TABLE&gt;">
<polygon fill="none" stroke="black" points="73,-812 73,-829 273,-829 273,-812 73,-812"/>
<text text-anchor="start" x="154.5" y="-818.5" font-family="Times New Roman,serif" font-size="10.00"> </text>
<text text-anchor="start" x="157.5" y="-818.5" font-family="Times New Roman,serif" font-size="10.00">c2 :Clazz</text>
</a>
<polygon fill="none" stroke="black" points="73,-792 73,-812 273,-812 273,-792 73,-792"/>
<text text-anchor="start" x="78" y="-800" font-family="Times New Roman,serif" font-size="10.00">name = &quot;org.sdmlib.storyboards.KanbanEntry&quot;</text>
</g>
<!-- c1&#45;&#45;c2 -->
<g id="edge2" class="edge"><title>c1&#45;&#45;c2</title>
<path fill="none" stroke="black" d="M460.351,-871.709C404.212,-860.044 333.724,-845.397 276.612,-833.53"/>
<text text-anchor="middle" x="286.345" y="-828.736" font-family="Times New Roman,serif" font-size="10.00">classes</text>
<text text-anchor="middle" x="450.617" y="-871.503" font-family="Times New Roman,serif" font-size="10.00">classModel</text>
</g>
<!-- a5 -->
<g id="node5" class="node"><title>a5</title>
<a xlink:href="../../SDMLib/src/org/sdmlib/models/classes/Association.java" xlink:title="&lt;TABLE&gt;">
<polygon fill="none" stroke="black" points="229,-615 229,-632 302,-632 302,-615 229,-615"/>
<text text-anchor="start" x="232.5" y="-621.5" font-family="Times New Roman,serif" font-size="10.00"> </text>
<text text-anchor="start" x="235.5" y="-621.5" font-family="Times New Roman,serif" font-size="10.00">a5 :Association</text>
</a>
</g>
<!-- c1&#45;&#45;a5 -->
<g id="edge12" class="edge"><title>c1&#45;&#45;a5</title>
<path fill="none" stroke="black" d="M460.515,-876.81C408.538,-866.829 351.551,-852.244 333,-834 281.723,-783.571 314.989,-745.438 290,-678 285.475,-665.789 279.225,-652.539 274.106,-642.342"/>
<text text-anchor="middle" x="281.929" y="-646.071" font-family="Times New Roman,serif" font-size="10.00">associations</text>
<text text-anchor="middle" x="450.8" y="-876.682" font-family="Times New Roman,serif" font-size="10.00">model</text>
</g>
<!-- c7 -->
<g id="node7" class="node"><title>c7</title>
<a xlink:href="../../SDMLib/src/org/sdmlib/models/classes/Clazz.java" xlink:title="&lt;TABLE&gt;">
<polygon fill="none" stroke="black" points="173,-452 173,-469 357,-469 357,-452 173,-452"/>
<text text-anchor="start" x="246.5" y="-458.5" font-family="Times New Roman,serif" font-size="10.00"> </text>
<text text-anchor="start" x="249.5" y="-458.5" font-family="Times New Roman,serif" font-size="10.00">c7 :Clazz</text>
</a>
<polygon fill="none" stroke="black" points="173,-432 173,-452 357,-452 357,-432 173,-432"/>
<text text-anchor="start" x="178" y="-440" font-family="Times New Roman,serif" font-size="10.00">name = &quot;org.sdmlib.storyboards.LogEntry&quot;</text>
</g>
<!-- c1&#45;&#45;c7 -->
<g id="edge4" class="edge"><title>c1&#45;&#45;c7</title>
<path fill="none" stroke="black" d="M460.529,-883.771C425.996,-875.944 389.839,-861.261 366,-834 331.032,-794.013 347,-769.12 347,-716 347,-716 347,-716 347,-623 347,-572.073 352.266,-554.775 328,-510 320.35,-495.884 307.942,-483.355 296.152,-473.587"/>
<text text-anchor="middle" x="305.797" y="-473.728" font-family="Times New Roman,serif" font-size="10.00">classes</text>
<text text-anchor="middle" x="450.718" y="-883.208" font-family="Times New Roman,serif" font-size="10.00">classModel</text>
</g>
<!-- c8 -->
<g id="node8" class="node"><title>c8</title>
<a xlink:href="../../SDMLib/src/org/sdmlib/models/classes/Clazz.java" xlink:title="&lt;TABLE&gt;">
<polygon fill="none" stroke="black" points="383,-812 383,-829 593,-829 593,-812 383,-812"/>
<text text-anchor="start" x="469.5" y="-818.5" font-family="Times New Roman,serif" font-size="10.00"> </text>
<text text-anchor="start" x="472.5" y="-818.5" font-family="Times New Roman,serif" font-size="10.00">c8 :Clazz</text>
</a>
<polygon fill="none" stroke="black" points="383,-792 383,-812 593,-812 593,-792 383,-792"/>
<text text-anchor="start" x="388" y="-800" font-family="Times New Roman,serif" font-size="10.00">name = &quot;org.sdmlib.storyboards.StoryboardWall&quot;</text>
</g>
<!-- c1&#45;&#45;c8 -->
<g id="edge6" class="edge"><title>c1&#45;&#45;c8</title>
<path fill="none" stroke="black" d="M538.872,-870.14C528.914,-858.759 516.781,-844.893 506.862,-833.557"/>
<text text-anchor="middle" x="516.011" y="-835.095" font-family="Times New Roman,serif" font-size="10.00">classes</text>
<text text-anchor="middle" x="529.724" y="-863.602" font-family="Times New Roman,serif" font-size="10.00">classModel</text>
</g>
<!-- a10 -->
<g id="node10" class="node"><title>a10</title>
<a xlink:href="../../SDMLib/src/org/sdmlib/models/classes/Association.java" xlink:title="&lt;TABLE&gt;">
<polygon fill="none" stroke="black" points="450,-615 450,-632 527,-632 527,-615 450,-615"/>
<text text-anchor="start" x="453.5" y="-621.5" font-family="Times New Roman,serif" font-size="10.00"> </text>
<text text-anchor="start" x="456.5" y="-621.5" font-family="Times New Roman,serif" font-size="10.00">a10 :Association</text>
</a>
</g>
<!-- c1&#45;&#45;a10 -->
<g id="edge14" class="edge"><title>c1&#45;&#45;a10</title>
<path fill="none" stroke="black" d="M584.261,-870.48C594.335,-860.556 604.684,-847.894 610,-834 617.306,-814.906 615.842,-807.592 610,-788 591.517,-726.012 537.116,-669.354 507.594,-642.082"/>
<text text-anchor="middle" x="517.08" y="-642.747" font-family="Times New Roman,serif" font-size="10.00">associations</text>
<text text-anchor="middle" x="587.63" y="-858.565" font-family="Times New Roman,serif" font-size="10.00">model</text>
</g>
<!-- c12 -->
<g id="node12" class="node"><title>c12</title>
<a xlink:href="../../SDMLib/src/org/sdmlib/models/classes/Clazz.java" xlink:title="&lt;TABLE&gt;">
<polygon fill="none" stroke="black" points="391,-452 391,-469 583,-469 583,-452 391,-452"/>
<text text-anchor="start" x="466" y="-458.5" font-family="Times New Roman,serif" font-size="10.00"> </text>
<text text-anchor="start" x="469" y="-458.5" font-family="Times New Roman,serif" font-size="10.00">c12 :Clazz</text>
</a>
<polygon fill="none" stroke="black" points="391,-432 391,-452 583,-452 583,-432 391,-432"/>
<text text-anchor="start" x="396" y="-440" font-family="Times New Roman,serif" font-size="10.00">name = &quot;org.sdmlib.storyboards.Storyboard&quot;</text>
</g>
<!-- c1&#45;&#45;c12 -->
<g id="edge8" class="edge"><title>c1&#45;&#45;c12</title>
<path fill="none" stroke="black" d="M590.961,-870.251C603.696,-860.459 617.467,-847.956 627,-834 658.236,-788.275 667,-771.376 667,-716 667,-716 667,-716 667,-623 667,-551.017 590.401,-500.18 537.14,-473.532"/>
<text text-anchor="middle" x="547.129" y="-471.51" font-family="Times New Roman,serif" font-size="10.00">classes</text>
<text text-anchor="middle" x="595.483" y="-858.832" font-family="Times New Roman,serif" font-size="10.00">classModel</text>
</g>
<!-- a17 -->
<g id="node17" class="node"><title>a17</title>
<a xlink:href="../../SDMLib/src/org/sdmlib/models/classes/Association.java" xlink:title="&lt;TABLE&gt;">
<polygon fill="none" stroke="black" points="615,-269 615,-286 692,-286 692,-269 615,-269"/>
<text text-anchor="start" x="618.5" y="-275.5" font-family="Times New Roman,serif" font-size="10.00"> </text>
<text text-anchor="start" x="621.5" y="-275.5" font-family="Times New Roman,serif" font-size="10.00">a17 :Association</text>
</a>
</g>
<!-- c1&#45;&#45;a17 -->
<g id="edge16" class="edge"><title>c1&#45;&#45;a17</title>
<path fill="none" stroke="black" d="M606.52,-870.418C623.471,-861.086 641.594,-848.86 655,-834 693.759,-791.039 710,-773.861 710,-716 710,-716 710,-716 710,-450 710,-396.88 711.237,-381.114 691,-332 685.652,-319.019 676.569,-306.179 668.624,-296.388"/>
<text text-anchor="middle" x="677.579" y="-298.34" font-family="Times New Roman,serif" font-size="10.00">associations</text>
<text text-anchor="middle" x="612.336" y="-859.783" font-family="Times New Roman,serif" font-size="10.00">model</text>
</g>
<!-- c19 -->
<g id="node19" class="node"><title>c19</title>
<a xlink:href="../../SDMLib/src/org/sdmlib/models/classes/Clazz.java" xlink:title="&lt;TABLE&gt;">
<polygon fill="none" stroke="black" points="595,-120 595,-137 805,-137 805,-120 595,-120"/>
<text text-anchor="start" x="679" y="-126.5" font-family="Times New Roman,serif" font-size="10.00"> </text>
<text text-anchor="start" x="682" y="-126.5" font-family="Times New Roman,serif" font-size="10.00">c19 :Clazz</text>
</a>
<polygon fill="none" stroke="black" points="595,-100 595,-120 805,-120 805,-100 595,-100"/>
<text text-anchor="start" x="600" y="-108" font-family="Times New Roman,serif" font-size="10.00">name = &quot;org.sdmlib.storyboards.StoryboardStep&quot;</text>
</g>
<!-- c1&#45;&#45;c19 -->
<g id="edge10" class="edge"><title>c1&#45;&#45;c19</title>
<path fill="none" stroke="black" d="M629.409,-870.374C650.095,-861.56 671.52,-849.664 688,-834 730.645,-793.467 748,-774.835 748,-716 748,-716 748,-716 748,-277 748,-232.197 743.375,-220.434 729,-178 724.774,-165.525 718.353,-152.338 712.627,-141.695"/>
<text text-anchor="middle" x="720.612" y="-145.214" font-family="Times New Roman,serif" font-size="10.00">classes</text>
<text text-anchor="middle" x="636.003" y="-860.356" font-family="Times New Roman,serif" font-size="10.00">classModel</text>
</g>
<!-- a3 -->
<g id="node3" class="node"><title>a3</title>
<a xlink:href="../../SDMLib/src/org/sdmlib/models/classes/Attribute.java" xlink:title="&lt;TABLE&gt;">
<polygon fill="none" stroke="black" points="8,-723 8,-740 137,-740 137,-723 8,-723"/>
<text text-anchor="start" x="45.5" y="-729.5" font-family="Times New Roman,serif" font-size="10.00"> </text>
<text text-anchor="start" x="48.5" y="-729.5" font-family="Times New Roman,serif" font-size="10.00">a3 :Attribute</text>
</a>
<polygon fill="none" stroke="black" points="8,-689 8,-723 137,-723 137,-689 8,-689"/>
<text text-anchor="start" x="13" y="-711" font-family="Times New Roman,serif" font-size="10.00">type = &quot;int&quot;</text>
<text text-anchor="start" x="13" y="-697" font-family="Times New Roman,serif" font-size="10.00">name = &quot;oldNoOfLogEntries&quot;</text>
</g>
<!-- c2&#45;&#45;a3 -->
<g id="edge18" class="edge"><title>c2&#45;&#45;a3</title>
<path fill="none" stroke="black" d="M149.829,-788.435C135.851,-775.426 117.876,-758.697 102.723,-744.594"/>
<text text-anchor="middle" x="112.237" y="-745.175" font-family="Times New Roman,serif" font-size="10.00">attributes</text>
<text text-anchor="middle" x="140.315" y="-782.854" font-family="Times New Roman,serif" font-size="10.00">clazz</text>
</g>
<!-- r4 -->
<g id="node4" class="node"><title>r4</title>
<a xlink:href="../../SDMLib/src/org/sdmlib/models/classes/Role.java" xlink:title="&lt;TABLE&gt;">
<polygon fill="none" stroke="black" points="171,-730 171,-747 273,-747 273,-730 171,-730"/>
<text text-anchor="start" x="205" y="-736.5" font-family="Times New Roman,serif" font-size="10.00"> </text>
<text text-anchor="start" x="208" y="-736.5" font-family="Times New Roman,serif" font-size="10.00">r4 :Role</text>
</a>
<polygon fill="none" stroke="black" points="171,-682 171,-730 273,-730 273,-682 171,-682"/>
<text text-anchor="start" x="176" y="-718" font-family="Times New Roman,serif" font-size="10.00">name = &quot;kanbanEntry&quot;</text>
<text text-anchor="start" x="176" y="-704" font-family="Times New Roman,serif" font-size="10.00">card = &quot;one&quot;</text>
<text text-anchor="start" x="176" y="-690" font-family="Times New Roman,serif" font-size="10.00">kind = &quot;aggregation&quot;</text>
</g>
<!-- c2&#45;&#45;r4 -->
<g id="edge20" class="edge"><title>c2&#45;&#45;r4</title>
<path fill="none" stroke="black" d="M184.365,-788.198C190.019,-777.351 196.999,-763.962 203.405,-751.671"/>
<text text-anchor="middle" x="202.964" y="-759.162" font-family="Times New Roman,serif" font-size="10.00">sourceRoles</text>
<text text-anchor="middle" x="184.807" y="-775.708" font-family="Times New Roman,serif" font-size="10.00">clazz</text>
</g>
<!-- r4&#45;&#45;a5 -->
<g id="edge22" class="edge"><title>r4&#45;&#45;a5</title>
<path fill="none" stroke="black" d="M239.242,-678.313C245.223,-665.933 251.663,-652.605 256.607,-642.371"/>
<text text-anchor="middle" x="256.47" y="-649.87" font-family="Times New Roman,serif" font-size="10.00">assoc</text>
<text text-anchor="middle" x="239.379" y="-665.814" font-family="Times New Roman,serif" font-size="10.00">source</text>
</g>
<!-- r6 -->
<g id="node6" class="node"><title>r6</title>
<a xlink:href="../../SDMLib/src/org/sdmlib/models/classes/Role.java" xlink:title="&lt;TABLE&gt;">
<polygon fill="none" stroke="black" points="219,-541 219,-558 311,-558 311,-541 219,-541"/>
<text text-anchor="start" x="248" y="-547.5" font-family="Times New Roman,serif" font-size="10.00"> </text>
<text text-anchor="start" x="251" y="-547.5" font-family="Times New Roman,serif" font-size="10.00">r6 :Role</text>
</a>
<polygon fill="none" stroke="black" points="219,-521 219,-541 311,-541 311,-521 219,-521"/>
<text text-anchor="start" x="224" y="-529" font-family="Times New Roman,serif" font-size="10.00">name = &quot;logEntries&quot;</text>
</g>
<!-- a5&#45;&#45;r6 -->
<g id="edge24" class="edge"><title>a5&#45;&#45;r6</title>
<path fill="none" stroke="black" d="M265,-605.61C265,-593.105 265,-576.154 265,-562.752"/>
<text text-anchor="middle" x="269.226" y="-569.316" font-family="Times New Roman,serif" font-size="10.00">target</text>
<text text-anchor="middle" x="260.774" y="-594.047" font-family="Times New Roman,serif" font-size="10.00">assoc</text>
</g>
<!-- r6&#45;&#45;c7 -->
<g id="edge26" class="edge"><title>r6&#45;&#45;c7</title>
<path fill="none" stroke="black" d="M265,-517.494C265,-504.11 265,-486.955 265,-473.56"/>
<text text-anchor="middle" x="269.226" y="-480.123" font-family="Times New Roman,serif" font-size="10.00">clazz</text>
<text text-anchor="middle" x="260.774" y="-505.931" font-family="Times New Roman,serif" font-size="10.00">sourceRoles</text>
</g>
<!-- r9 -->
<g id="node9" class="node"><title>r9</title>
<a xlink:href="../../SDMLib/src/org/sdmlib/models/classes/Role.java" xlink:title="&lt;TABLE&gt;">
<polygon fill="none" stroke="black" points="455,-723 455,-740 522,-740 522,-723 455,-723"/>
<text text-anchor="start" x="471.5" y="-729.5" font-family="Times New Roman,serif" font-size="10.00"> </text>
<text text-anchor="start" x="474.5" y="-729.5" font-family="Times New Roman,serif" font-size="10.00">r9 :Role</text>
</a>
<polygon fill="none" stroke="black" points="455,-689 455,-723 522,-723 522,-689 455,-689"/>
<text text-anchor="start" x="460" y="-711" font-family="Times New Roman,serif" font-size="10.00">name = &quot;wall&quot;</text>
<text text-anchor="start" x="460" y="-697" font-family="Times New Roman,serif" font-size="10.00">card = &quot;one&quot;</text>
</g>
<!-- c8&#45;&#45;r9 -->
<g id="edge28" class="edge"><title>c8&#45;&#45;r9</title>
<path fill="none" stroke="black" d="M488,-788.198C488,-775.29 488,-758.782 488,-744.81"/>
<text text-anchor="middle" x="492.226" y="-751.373" font-family="Times New Roman,serif" font-size="10.00">sourceRoles</text>
<text text-anchor="middle" x="483.774" y="-776.635" font-family="Times New Roman,serif" font-size="10.00">clazz</text>
</g>
<!-- r9&#45;&#45;a10 -->
<g id="edge30" class="edge"><title>r9&#45;&#45;a10</title>
<path fill="none" stroke="black" d="M488,-685.35C488,-671.122 488,-654.407 488,-642.18"/>
<text text-anchor="middle" x="492.226" y="-648.743" font-family="Times New Roman,serif" font-size="10.00">assoc</text>
<text text-anchor="middle" x="483.774" y="-673.787" font-family="Times New Roman,serif" font-size="10.00">source</text>
</g>
<!-- r11 -->
<g id="node11" class="node"><title>r11</title>
<a xlink:href="../../SDMLib/src/org/sdmlib/models/classes/Role.java" xlink:title="&lt;TABLE&gt;">
<polygon fill="none" stroke="black" points="439,-548 439,-565 535,-565 535,-548 439,-548"/>
<text text-anchor="start" x="468" y="-554.5" font-family="Times New Roman,serif" font-size="10.00"> </text>
<text text-anchor="start" x="471" y="-554.5" font-family="Times New Roman,serif" font-size="10.00">r11 :Role</text>
</a>
<polygon fill="none" stroke="black" points="439,-514 439,-548 535,-548 535,-514 439,-514"/>
<text text-anchor="start" x="444" y="-536" font-family="Times New Roman,serif" font-size="10.00">name = &quot;storyboard&quot;</text>
<text text-anchor="start" x="444" y="-522" font-family="Times New Roman,serif" font-size="10.00">card = &quot;one&quot;</text>
</g>
<!-- a10&#45;&#45;r11 -->
<g id="edge32" class="edge"><title>a10&#45;&#45;r11</title>
<path fill="none" stroke="black" d="M487.788,-605.61C487.661,-595.173 487.496,-581.64 487.349,-569.658"/>
<text text-anchor="middle" x="491.686" y="-576.169" font-family="Times New Roman,serif" font-size="10.00">target</text>
<text text-anchor="middle" x="483.452" y="-594.099" font-family="Times New Roman,serif" font-size="10.00">assoc</text>
</g>
<!-- r11&#45;&#45;c12 -->
<g id="edge34" class="edge"><title>r11&#45;&#45;c12</title>
<path fill="none" stroke="black" d="M487,-510.03C487,-498.167 487,-484.675 487,-473.687"/>
<text text-anchor="middle" x="491.226" y="-480.25" font-family="Times New Roman,serif" font-size="10.00">clazz</text>
<text text-anchor="middle" x="482.774" y="-498.467" font-family="Times New Roman,serif" font-size="10.00">sourceRoles</text>
</g>
<!-- a13 -->
<g id="node13" class="node"><title>a13</title>
<a xlink:href="../../SDMLib/src/org/sdmlib/models/classes/Attribute.java" xlink:title="&lt;TABLE&gt;">
<polygon fill="none" stroke="black" points="171,-370 171,-387 251,-387 251,-370 171,-370"/>
<text text-anchor="start" x="182" y="-376.5" font-family="Times New Roman,serif" font-size="10.00"> </text>
<text text-anchor="start" x="185" y="-376.5" font-family="Times New Roman,serif" font-size="10.00">a13 :Attribute</text>
</a>
<polygon fill="none" stroke="black" points="171,-336 171,-370 251,-370 251,-336 171,-336"/>
<text text-anchor="start" x="176" y="-358" font-family="Times New Roman,serif" font-size="10.00">type = &quot;String&quot;</text>
<text text-anchor="start" x="176" y="-344" font-family="Times New Roman,serif" font-size="10.00">name = &quot;rootDir&quot;</text>
</g>
<!-- c12&#45;&#45;a13 -->
<g id="edge36" class="edge"><title>c12&#45;&#45;a13</title>
<path fill="none" stroke="black" d="M387.753,-428.44C349.73,-418.96 306.305,-406.627 268,-392 265.096,-390.891 262.145,-389.678 259.192,-388.396"/>
<text text-anchor="middle" x="269.188" y="-385.609" font-family="Times New Roman,serif" font-size="10.00">attributes</text>
<text text-anchor="middle" x="377.929" y="-427.811" font-family="Times New Roman,serif" font-size="10.00">clazz</text>
</g>
<!-- a14 -->
<g id="node14" class="node"><title>a14</title>
<a xlink:href="../../SDMLib/src/org/sdmlib/models/classes/Attribute.java" xlink:title="&lt;TABLE&gt;">
<polygon fill="none" stroke="black" points="286,-370 286,-387 387,-387 387,-370 286,-370"/>
<text text-anchor="start" x="307.5" y="-376.5" font-family="Times New Roman,serif" font-size="10.00"> </text>
<text text-anchor="start" x="310.5" y="-376.5" font-family="Times New Roman,serif" font-size="10.00">a14 :Attribute</text>
</a>
<polygon fill="none" stroke="black" points="286,-336 286,-370 387,-370 387,-336 286,-336"/>
<text text-anchor="start" x="291" y="-358" font-family="Times New Roman,serif" font-size="10.00">type = &quot;int&quot;</text>
<text text-anchor="start" x="291" y="-344" font-family="Times New Roman,serif" font-size="10.00">name = &quot;stepCounter&quot;</text>
</g>
<!-- c12&#45;&#45;a14 -->
<g id="edge38" class="edge"><title>c12&#45;&#45;a14</title>
<path fill="none" stroke="black" d="M449.674,-428.494C430.373,-417.374 406.555,-403.651 385.716,-391.644"/>
<text text-anchor="middle" x="395.679" y="-390.007" font-family="Times New Roman,serif" font-size="10.00">attributes</text>
<text text-anchor="middle" x="439.711" y="-425.132" font-family="Times New Roman,serif" font-size="10.00">clazz</text>
</g>
<!-- a15 -->
<g id="node15" class="node"><title>a15</title>
<a xlink:href="../../SDMLib/src/org/sdmlib/models/classes/Attribute.java" xlink:title="&lt;TABLE&gt;">
<polygon fill="none" stroke="black" points="421,-370 421,-387 544,-387 544,-370 421,-370"/>
<text text-anchor="start" x="453.5" y="-376.5" font-family="Times New Roman,serif" font-size="10.00"> </text>
<text text-anchor="start" x="456.5" y="-376.5" font-family="Times New Roman,serif" font-size="10.00">a15 :Attribute</text>
</a>
<polygon fill="none" stroke="black" points="421,-336 421,-370 544,-370 544,-336 421,-336"/>
<text text-anchor="start" x="426" y="-358" font-family="Times New Roman,serif" font-size="10.00">type = &quot;int&quot;</text>
<text text-anchor="start" x="426" y="-344" font-family="Times New Roman,serif" font-size="10.00">name = &quot;stepDoneCounter&quot;</text>
</g>
<!-- c12&#45;&#45;a15 -->
<g id="edge40" class="edge"><title>c12&#45;&#45;a15</title>
<path fill="none" stroke="black" d="M485.764,-428.494C485.128,-417.424 484.343,-403.775 483.656,-391.807"/>
<text text-anchor="middle" x="488.395" y="-398.113" font-family="Times New Roman,serif" font-size="10.00">attributes</text>
<text text-anchor="middle" x="481.025" y="-417.189" font-family="Times New Roman,serif" font-size="10.00">clazz</text>
</g>
<!-- r16 -->
<g id="node16" class="node"><title>r16</title>
<a xlink:href="../../SDMLib/src/org/sdmlib/models/classes/Role.java" xlink:title="&lt;TABLE&gt;">
<polygon fill="none" stroke="black" points="578,-370 578,-387 674,-387 674,-370 578,-370"/>
<text text-anchor="start" x="607" y="-376.5" font-family="Times New Roman,serif" font-size="10.00"> </text>
<text text-anchor="start" x="610" y="-376.5" font-family="Times New Roman,serif" font-size="10.00">r16 :Role</text>
</a>
<polygon fill="none" stroke="black" points="578,-336 578,-370 674,-370 674,-336 578,-336"/>
<text text-anchor="start" x="583" y="-358" font-family="Times New Roman,serif" font-size="10.00">name = &quot;storyboard&quot;</text>
<text text-anchor="start" x="583" y="-344" font-family="Times New Roman,serif" font-size="10.00">card = &quot;one&quot;</text>
</g>
<!-- c12&#45;&#45;r16 -->
<g id="edge42" class="edge"><title>c12&#45;&#45;r16</title>
<path fill="none" stroke="black" d="M521.36,-428.494C539.127,-417.374 561.052,-403.651 580.235,-391.644"/>
<text text-anchor="middle" x="574.795" y="-397.535" font-family="Times New Roman,serif" font-size="10.00">sourceRoles</text>
<text text-anchor="middle" x="526.8" y="-417.604" font-family="Times New Roman,serif" font-size="10.00">clazz</text>
</g>
<!-- r16&#45;&#45;a17 -->
<g id="edge44" class="edge"><title>r16&#45;&#45;a17</title>
<path fill="none" stroke="black" d="M635.443,-332.32C639.397,-320.312 643.863,-306.75 647.301,-296.309"/>
<text text-anchor="middle" x="648.48" y="-303.739" font-family="Times New Roman,serif" font-size="10.00">assoc</text>
<text text-anchor="middle" x="634.264" y="-319.89" font-family="Times New Roman,serif" font-size="10.00">source</text>
</g>
<!-- r18 -->
<g id="node18" class="node"><title>r18</title>
<a xlink:href="../../SDMLib/src/org/sdmlib/models/classes/Role.java" xlink:title="&lt;TABLE&gt;">
<polygon fill="none" stroke="black" points="594,-202 594,-219 712,-219 712,-202 594,-202"/>
<text text-anchor="start" x="634" y="-208.5" font-family="Times New Roman,serif" font-size="10.00"> </text>
<text text-anchor="start" x="637" y="-208.5" font-family="Times New Roman,serif" font-size="10.00">r18 :Role</text>
</a>
<polygon fill="none" stroke="black" points="594,-182 594,-202 712,-202 712,-182 594,-182"/>
<text text-anchor="start" x="599" y="-190" font-family="Times New Roman,serif" font-size="10.00">name = &quot;storyboardSteps&quot;</text>
</g>
<!-- a17&#45;&#45;r18 -->
<g id="edge46" class="edge"><title>a17&#45;&#45;r18</title>
<path fill="none" stroke="black" d="M653,-259.981C653,-249.177 653,-235.1 653,-223.522"/>
<text text-anchor="middle" x="657.226" y="-230.085" font-family="Times New Roman,serif" font-size="10.00">target</text>
<text text-anchor="middle" x="648.774" y="-248.418" font-family="Times New Roman,serif" font-size="10.00">assoc</text>
</g>
<!-- r18&#45;&#45;c19 -->
<g id="edge48" class="edge"><title>r18&#45;&#45;c19</title>
<path fill="none" stroke="black" d="M665.843,-178.14C672.529,-166.759 680.675,-152.893 687.335,-141.557"/>
<text text-anchor="middle" x="686.388" y="-149.012" font-family="Times New Roman,serif" font-size="10.00">clazz</text>
<text text-anchor="middle" x="666.79" y="-165.685" font-family="Times New Roman,serif" font-size="10.00">sourceRoles</text>
</g>
<!-- a20 -->
<g id="node20" class="node"><title>a20</title>
<a xlink:href="../../SDMLib/src/org/sdmlib/models/classes/Attribute.java" xlink:title="&lt;TABLE&gt;">
<polygon fill="none" stroke="black" points="664,-38 664,-55 736,-55 736,-38 664,-38"/>
<text text-anchor="start" x="671" y="-44.5" font-family="Times New Roman,serif" font-size="10.00"> </text>
<text text-anchor="start" x="674" y="-44.5" font-family="Times New Roman,serif" font-size="10.00">a20 :Attribute</text>
</a>
<polygon fill="none" stroke="black" points="664,-4 664,-38 736,-38 736,-4 664,-4"/>
<text text-anchor="start" x="669" y="-26" font-family="Times New Roman,serif" font-size="10.00">type = &quot;String&quot;</text>
<text text-anchor="start" x="669" y="-12" font-family="Times New Roman,serif" font-size="10.00">name = &quot;text&quot;</text>
</g>
<!-- c19&#45;&#45;a20 -->
<g id="edge50" class="edge"><title>c19&#45;&#45;a20</title>
<path fill="none" stroke="black" d="M700,-96.4944C700,-85.4243 700,-71.7752 700,-59.8074"/>
<text text-anchor="middle" x="704.226" y="-66.3705" font-family="Times New Roman,serif" font-size="10.00">attributes</text>
<text text-anchor="middle" x="695.774" y="-84.9313" font-family="Times New Roman,serif" font-size="10.00">clazz</text>
</g>
</g>
</svg>
