<?xml version="1.0" encoding="UTF-8" standalone="no"?>
<!DOCTYPE svg PUBLIC "-//W3C//DTD SVG 1.1//EN"
 "http://www.w3.org/Graphics/SVG/1.1/DTD/svg11.dtd">
<!-- Generated by graphviz version 2.28.0 (20110507.0327)
 -->
<!-- Title: ObjectDiagram Pages: 1 -->
<svg width="868pt" height="372pt"
 viewBox="0.00 0.00 868.00 372.00" xmlns="http://www.w3.org/2000/svg" xmlns:xlink="http://www.w3.org/1999/xlink">
<g id="graph1" class="graph" transform="scale(1 1) rotate(0) translate(4 368)">
<title>ObjectDiagram</title>
<polygon fill="white" stroke="white" points="-4,5 -4,-368 865,-368 865,5 -4,5"/>
<!-- s1 -->
<g id="node1" class="node"><title>s1</title>
<a xlink:href="../../SDMLib/src/org/sdmlib/storyboards/StoryboardWall.java" xlink:title="&lt;TABLE&gt;">
<polygon fill="none" stroke="black" points="222,-297 222,-314 310,-314 310,-297 222,-297"/>
<text text-anchor="start" x="225.5" y="-303.5" font-family="Times New Roman,serif" font-size="10.00"> </text>
<text text-anchor="start" x="228.5" y="-303.5" font-family="Times New Roman,serif" font-size="10.00">s1 :StoryboardWall</text>
</a>
</g>
<!-- s3 -->
<g id="node2" class="node"><title>s3</title>
<a xlink:href="../../SDMLib/src/org/sdmlib/storyboards/Storyboard.java" xlink:title="&lt;TABLE&gt;">
<polygon fill="none" stroke="black" points="218,-162 218,-179 315,-179 315,-162 218,-162"/>
<text text-anchor="start" x="235.5" y="-168.5" font-family="Times New Roman,serif" font-size="10.00"> </text>
<text text-anchor="start" x="238.5" y="-168.5" font-family="Times New Roman,serif" font-size="10.00">s3 :Storyboard</text>
</a>
<polygon fill="none" stroke="black" points="218,-114 218,-162 315,-162 315,-114 218,-114"/>
<text text-anchor="start" x="223" y="-150" font-family="Times New Roman,serif" font-size="10.00">rootDir = &quot;test&quot;</text>
<text text-anchor="start" x="223" y="-136" font-family="Times New Roman,serif" font-size="10.00">stepCounter = 0</text>
<text text-anchor="start" x="223" y="-122" font-family="Times New Roman,serif" font-size="10.00">stepDoneCounter = 0</text>
</g>
<!-- s1&#45;&#45;s3 -->
<g id="edge2" class="edge"><title>s1&#45;&#45;s3</title>
<path fill="none" stroke="black" d="M266,-287.899C266,-263.024 266,-216.279 266,-183.7"/>
<text text-anchor="middle" x="270.226" y="-190.263" font-family="Times New Roman,serif" font-size="10.00">storyboard</text>
<text text-anchor="middle" x="261.774" y="-276.336" font-family="Times New Roman,serif" font-size="10.00">wall</text>
</g>
<!-- s4 -->
<g id="node3" class="node"><title>s4</title>
<a xlink:href="../../SDMLib/src/org/sdmlib/storyboards/StoryboardStep.java" xlink:title="&lt;TABLE&gt;">
<polygon fill="none" stroke="black" points="8,-24 8,-41 188,-41 188,-24 8,-24"/>
<text text-anchor="start" x="58" y="-30.5" font-family="Times New Roman,serif" font-size="10.00"> </text>
<text text-anchor="start" x="61" y="-30.5" font-family="Times New Roman,serif" font-size="10.00">s4 :StoryboardStep</text>
</a>
<polygon fill="none" stroke="black" points="8,-4 8,-24 188,-24 188,-4 8,-4"/>
<text text-anchor="start" x="13" y="-12" font-family="Times New Roman,serif" font-size="10.00">text = &quot;StoryboardInfrastructureInternals&quot;</text>
</g>
<!-- s3&#45;&#45;s4 -->
<g id="edge4" class="edge"><title>s3&#45;&#45;s4</title>
<path fill="none" stroke="black" d="M216.956,-110.385C188.094,-89.4257 152.532,-63.6006 127.846,-45.6739"/>
<text text-anchor="middle" x="137.663" y="-45.0797" font-family="Times New Roman,serif" font-size="10.00">storyboardSteps</text>
<text text-anchor="middle" x="207.139" y="-105.979" font-family="Times New Roman,serif" font-size="10.00">storyboard</text>
</g>
<!-- s5 -->
<g id="node4" class="node"><title>s5</title>
<a xlink:href="../../SDMLib/src/org/sdmlib/storyboards/StoryboardStep.java" xlink:title="&lt;TABLE&gt;">
<polygon fill="none" stroke="black" points="223,-24 223,-41 310,-41 310,-24 223,-24"/>
<text text-anchor="start" x="226.5" y="-30.5" font-family="Times New Roman,serif" font-size="10.00"> </text>
<text text-anchor="start" x="229.5" y="-30.5" font-family="Times New Roman,serif" font-size="10.00">s5 :StoryboardStep</text>
</a>
<polygon fill="none" stroke="black" points="223,-4 223,-24 310,-24 310,-4 223,-4"/>
<text text-anchor="start" x="228" y="-12" font-family="Times New Roman,serif" font-size="10.00">text = &quot;Internals.&quot;</text>
</g>
<!-- s3&#45;&#45;s5 -->
<g id="edge6" class="edge"><title>s3&#45;&#45;s5</title>
<path fill="none" stroke="black" d="M266,-110.385C266,-89.4257 266,-63.6006 266,-45.6739"/>
<text text-anchor="middle" x="270.226" y="-52.2369" font-family="Times New Roman,serif" font-size="10.00">storyboardSteps</text>
<text text-anchor="middle" x="261.774" y="-98.8215" font-family="Times New Roman,serif" font-size="10.00">storyboard</text>
</g>
<!-- s6 -->
<g id="node5" class="node"><title>s6</title>
<a xlink:href="../../SDMLib/src/org/sdmlib/storyboards/StoryboardStep.java" xlink:title="&lt;TABLE&gt;">
<polygon fill="none" stroke="black" points="344,-24 344,-41 584,-41 584,-24 344,-24"/>
<text text-anchor="start" x="424" y="-30.5" font-family="Times New Roman,serif" font-size="10.00"> </text>
<text text-anchor="start" x="427" y="-30.5" font-family="Times New Roman,serif" font-size="10.00">s6 :StoryboardStep</text>
</a>
<polygon fill="none" stroke="black" points="344,-4 344,-24 584,-24 584,-4 344,-4"/>
<text text-anchor="start" x="349" y="-12" font-family="Times New Roman,serif" font-size="10.00">text = &quot;Object diagram for storyboard and KanbanEntry:&quot;</text>
</g>
<!-- s3&#45;&#45;s6 -->
<g id="edge8" class="edge"><title>s3&#45;&#45;s6</title>
<path fill="none" stroke="black" d="M322.474,-111.203C356.765,-90.0741 399.46,-63.7669 428.938,-45.6037"/>
<text text-anchor="middle" x="423.439" y="-51.456" font-family="Times New Roman,serif" font-size="10.00">storyboardSteps</text>
<text text-anchor="middle" x="327.973" y="-100.351" font-family="Times New Roman,serif" font-size="10.00">storyboard</text>
</g>
<!-- k2 -->
<g id="node6" class="node"><title>k2</title>
<a xlink:href="../../SDMLib/src/org/sdmlib/storyboards/KanbanEntry.java" xlink:title="&lt;TABLE&gt;">
<polygon fill="none" stroke="black" points="462,-342 462,-359 583,-359 583,-342 462,-342"/>
<text text-anchor="start" x="487.5" y="-348.5" font-family="Times New Roman,serif" font-size="10.00"> </text>
<text text-anchor="start" x="490.5" y="-348.5" font-family="Times New Roman,serif" font-size="10.00">k2 :KanbanEntry</text>
</a>
<polygon fill="none" stroke="black" points="462,-252 462,-342 583,-342 583,-252 462,-252"/>
<text text-anchor="start" x="467" y="-330" font-family="Times New Roman,serif" font-size="10.00">name = &quot;name&quot;</text>
<text text-anchor="start" x="467" y="-316" font-family="Times New Roman,serif" font-size="10.00">phase = &quot;done&quot;</text>
<text text-anchor="start" x="467" y="-302" font-family="Times New Roman,serif" font-size="10.00">lastDeveloper = &quot;zuendorf&quot;</text>
<text text-anchor="start" x="467" y="-288" font-family="Times New Roman,serif" font-size="10.00">hoursRemaining = 1.0</text>
<text text-anchor="start" x="467" y="-274" font-family="Times New Roman,serif" font-size="10.00">hoursSpend = 2.0</text>
<text text-anchor="start" x="467" y="-260" font-family="Times New Roman,serif" font-size="10.00">oldNoOfLogEntries = 0</text>
</g>
<!-- k7 -->
<g id="node7" class="node"><title>k7</title>
<a xlink:href="../../SDMLib/src/org/sdmlib/storyboards/KanbanEntry.java" xlink:title="&lt;TABLE&gt;">
<polygon fill="none" stroke="black" points="409,-162 409,-179 513,-179 513,-162 409,-162"/>
<text text-anchor="start" x="426" y="-168.5" font-family="Times New Roman,serif" font-size="10.00"> </text>
<text text-anchor="start" x="429" y="-168.5" font-family="Times New Roman,serif" font-size="10.00">k7 :KanbanEntry</text>
</a>
<polygon fill="none" stroke="black" points="409,-114 409,-162 513,-162 513,-114 409,-114"/>
<text text-anchor="start" x="414" y="-150" font-family="Times New Roman,serif" font-size="10.00">hoursRemaining = 0.0</text>
<text text-anchor="start" x="414" y="-136" font-family="Times New Roman,serif" font-size="10.00">hoursSpend = 0.0</text>
<text text-anchor="start" x="414" y="-122" font-family="Times New Roman,serif" font-size="10.00">oldNoOfLogEntries = 0</text>
</g>
<!-- k2&#45;&#45;k7 -->
<g id="edge10" class="edge"><title>k2&#45;&#45;k7</title>
<path fill="none" stroke="black" d="M499.978,-248.319C491.583,-226.712 482.257,-202.71 474.832,-183.601"/>
<text text-anchor="middle" x="482.054" y="-188.018" font-family="Times New Roman,serif" font-size="10.00">parent</text>
<text text-anchor="middle" x="492.756" y="-238.902" font-family="Times New Roman,serif" font-size="10.00">subentries</text>
</g>
<!-- l8 -->
<g id="node8" class="node"><title>l8</title>
<a xlink:href="../../SDMLib/src/org/sdmlib/storyboards/LogEntry.java" xlink:title="&lt;TABLE&gt;">
<polygon fill="none" stroke="black" points="548,-190 548,-207 853,-207 853,-190 548,-190"/>
<text text-anchor="start" x="674.5" y="-196.5" font-family="Times New Roman,serif" font-size="10.00"> </text>
<text text-anchor="start" x="677.5" y="-196.5" font-family="Times New Roman,serif" font-size="10.00">l8 :LogEntry</text>
</a>
<polygon fill="none" stroke="black" points="548,-86 548,-190 853,-190 853,-86 548,-86"/>
<text text-anchor="start" x="553" y="-178" font-family="Times New Roman,serif" font-size="10.00">date = &quot;08.10.2013 13:22:42&quot;</text>
<text text-anchor="start" x="553" y="-164" font-family="Times New Roman,serif" font-size="10.00">hoursSpend = 1.0</text>
<text text-anchor="start" x="553" y="-150" font-family="Times New Roman,serif" font-size="10.00">hoursRemainingInPhase = 0.0</text>
<text text-anchor="start" x="553" y="-136" font-family="Times New Roman,serif" font-size="10.00">hoursRemainingInTotal = 0.0</text>
<text text-anchor="start" x="553" y="-122" font-family="Times New Roman,serif" font-size="10.00">developer = &quot;zuendorf&quot;</text>
<text text-anchor="start" x="553" y="-108" font-family="Times New Roman,serif" font-size="10.00">phase = &quot;done&quot;</text>
<text text-anchor="start" x="553" y="-94" font-family="Times New Roman,serif" font-size="10.00">comment = &quot;Achieved: Object diagram for storyboard and KanbanEntry:&quot;</text>
</g>
<!-- k2&#45;&#45;l8 -->
<g id="edge12" class="edge"><title>k2&#45;&#45;l8</title>
<path fill="none" stroke="black" d="M586.262,-248.319C599.805,-236.374 614.179,-223.696 627.985,-211.518"/>
<text text-anchor="middle" x="623.984" y="-218.183" font-family="Times New Roman,serif" font-size="10.00">logEntries</text>
<text text-anchor="middle" x="590.263" y="-236.655" font-family="Times New Roman,serif" font-size="10.00">kanbanEntry</text>
</g>
</g>
</svg>
