<?xml version="1.0" encoding="UTF-8" standalone="no"?>
<!DOCTYPE svg PUBLIC "-//W3C//DTD SVG 1.1//EN"
 "http://www.w3.org/Graphics/SVG/1.1/DTD/svg11.dtd">
<!-- Generated by graphviz version 2.28.0 (20110507.0327)
 -->
<!-- Title: ClassDiagram Pages: 1 -->
<svg width="715pt" height="544pt"
 viewBox="0.00 0.00 715.00 544.00" xmlns="http://www.w3.org/2000/svg" xmlns:xlink="http://www.w3.org/1999/xlink">
<g id="graph1" class="graph" transform="scale(1 1) rotate(0) translate(4 540)">
<title>ClassDiagram</title>
<polygon fill="white" stroke="white" points="-4,5 -4,-540 712,-540 712,5 -4,5"/>
<!-- GroupAccount -->
<g id="node1" class="node"><title>GroupAccount</title>
<polygon fill="none" stroke="black" points="8,-342 8,-359 114,-359 114,-342 8,-342"/>
<text text-anchor="start" x="30.5" y="-348.5" font-family="Times New Roman,serif" font-size="10.00">GroupAccount</text>
<polygon fill="none" stroke="black" points="8,-322 8,-342 114,-342 114,-322 8,-322"/>
<text text-anchor="start" x="59.5" y="-330" font-family="Times New Roman,serif" font-size="10.00"> </text>
<polygon fill="none" stroke="black" points="8,-218 8,-322 114,-322 114,-218 8,-218"/>
<text text-anchor="start" x="13" y="-310" font-family="Times New Roman,serif" font-size="10.00">getItems()</text>
<text text-anchor="start" x="13" y="-296" font-family="Times New Roman,serif" font-size="10.00">addToItems(Item)</text>
<text text-anchor="start" x="13" y="-282" font-family="Times New Roman,serif" font-size="10.00">removeFromItems(Item)</text>
<text text-anchor="start" x="13" y="-268" font-family="Times New Roman,serif" font-size="10.00">withItems(Item)</text>
<text text-anchor="start" x="13" y="-254" font-family="Times New Roman,serif" font-size="10.00">withoutItems(Item)</text>
<text text-anchor="start" x="13" y="-240" font-family="Times New Roman,serif" font-size="10.00">removeAllFromItems()</text>
<text text-anchor="start" x="13" y="-226" font-family="Times New Roman,serif" font-size="10.00">updateBalances()</text>
</g>
<!-- Person -->
<g id="node4" class="node"><title>Person</title>
<polygon fill="none" stroke="black" points="57,-156 57,-173 163,-173 163,-156 57,-156"/>
<text text-anchor="start" x="96" y="-162.5" font-family="Times New Roman,serif" font-size="10.00">Person</text>
<polygon fill="none" stroke="black" points="57,-136 57,-156 163,-156 163,-136 57,-136"/>
<text text-anchor="start" x="62" y="-144" font-family="Times New Roman,serif" font-size="10.00">name :String</text>
<polygon fill="none" stroke="black" points="57,-4 57,-136 163,-136 163,-4 57,-4"/>
<text text-anchor="start" x="62" y="-124" font-family="Times New Roman,serif" font-size="10.00">getBalance()</text>
<text text-anchor="start" x="62" y="-110" font-family="Times New Roman,serif" font-size="10.00">setBalance(double)</text>
<text text-anchor="start" x="62" y="-96" font-family="Times New Roman,serif" font-size="10.00">withBalance(double)</text>
<text text-anchor="start" x="62" y="-82" font-family="Times New Roman,serif" font-size="10.00">getItems()</text>
<text text-anchor="start" x="62" y="-68" font-family="Times New Roman,serif" font-size="10.00">addToItems(Item)</text>
<text text-anchor="start" x="62" y="-54" font-family="Times New Roman,serif" font-size="10.00">removeFromItems(Item)</text>
<text text-anchor="start" x="62" y="-40" font-family="Times New Roman,serif" font-size="10.00">withItems(Item)</text>
<text text-anchor="start" x="62" y="-26" font-family="Times New Roman,serif" font-size="10.00">withoutItems(Item)</text>
<text text-anchor="start" x="62" y="-12" font-family="Times New Roman,serif" font-size="10.00">removeAllFromItems()</text>
</g>
<!-- GroupAccount&#45;&#45;Person -->
<g id="edge2" class="edge"><title>GroupAccount&#45;&#45;Person</title>
<path fill="none" stroke="black" d="M72.6952,-214.272C75.4427,-202.398 78.4563,-190.003 81.551,-177.837"/>
<text text-anchor="middle" x="83.4231" y="-185.16" font-family="Times New Roman,serif" font-size="10.00">persons</text>
<text text-anchor="middle" x="70.6321" y="-201.987" font-family="Times New Roman,serif" font-size="10.00">parent</text>
</g>
<!-- GroupAccount&#45;&#45;Person -->
<g id="edge18" class="edge"><title>GroupAccount&#45;&#45;Person</title>
<path fill="none" stroke="black" d="M85.7964,-214.272C88.9262,-202.398 92.0472,-190.003 94.9744,-177.837"/>
<text text-anchor="middle" x="96.9528" y="-185.139" font-family="Times New Roman,serif" font-size="10.00">persons</text>
<text text-anchor="middle" x="84.0085" y="-201.933" font-family="Times New Roman,serif" font-size="10.00">groupAccount</text>
</g>
<!-- GroupAccountTests -->
<g id="node2" class="node"><title>GroupAccountTests</title>
<polygon fill="none" stroke="black" points="187,-514 187,-531 346,-531 346,-514 187,-514"/>
<text text-anchor="start" x="225" y="-520.5" font-family="Times New Roman,serif" font-size="10.00">GroupAccountTests</text>
<polygon fill="none" stroke="black" points="187,-438 187,-514 346,-514 346,-438 187,-438"/>
<text text-anchor="start" x="192" y="-502" font-family="Times New Roman,serif" font-size="10.00">MODELING :String</text>
<text text-anchor="start" x="192" y="-488" font-family="Times New Roman,serif" font-size="10.00">ACTIVE :String</text>
<text text-anchor="start" x="192" y="-474" font-family="Times New Roman,serif" font-size="10.00">DONE :String</text>
<text text-anchor="start" x="192" y="-460" font-family="Times New Roman,serif" font-size="10.00">IMPLEMENTATION :String</text>
<text text-anchor="start" x="192" y="-446" font-family="Times New Roman,serif" font-size="10.00">BACKLOG :String</text>
<polygon fill="none" stroke="black" points="187,-404 187,-438 346,-438 346,-404 187,-404"/>
<text text-anchor="start" x="192" y="-426" font-family="Times New Roman,serif" font-size="10.00">testGroupAccountRuleRecognition()</text>
<text text-anchor="start" x="192" y="-412" font-family="Times New Roman,serif" font-size="10.00">testGroupAccountCodegen()</text>
</g>
<!-- Item -->
<g id="node3" class="node"><title>Item</title>
<polygon fill="none" stroke="black" points="68,-493 68,-510 153,-510 153,-493 68,-493"/>
<text text-anchor="start" x="101.5" y="-499.5" font-family="Times New Roman,serif" font-size="10.00">Item</text>
<polygon fill="none" stroke="black" points="68,-473 68,-493 153,-493 153,-473 68,-473"/>
<text text-anchor="start" x="73" y="-481" font-family="Times New Roman,serif" font-size="10.00">description :String</text>
<polygon fill="none" stroke="black" points="68,-425 68,-473 153,-473 153,-425 68,-425"/>
<text text-anchor="start" x="73" y="-461" font-family="Times New Roman,serif" font-size="10.00">getValue()</text>
<text text-anchor="start" x="73" y="-447" font-family="Times New Roman,serif" font-size="10.00">setValue(double)</text>
<text text-anchor="start" x="73" y="-433" font-family="Times New Roman,serif" font-size="10.00">withValue(double)</text>
</g>
<!-- Item&#45;&#45;GroupAccount -->
<g id="edge4" class="edge"><title>Item&#45;&#45;GroupAccount</title>
<path fill="none" stroke="black" d="M91.393,-421.418C85.8373,-403.8 79.906,-383.188 74.7062,-363.582"/>
<text text-anchor="middle" x="81.1313" y="-368.745" font-family="Times New Roman,serif" font-size="10.00">parent</text>
<text text-anchor="middle" x="84.658" y="-411.526" font-family="Times New Roman,serif" font-size="10.00">items</text>
</g>
<!-- Item&#45;&#45;GroupAccount -->
<g id="edge16" class="edge"><title>Item&#45;&#45;GroupAccount</title>
<path fill="none" stroke="black" d="M103.37,-421.418C99.1707,-403.8 93.6898,-383.188 88.0343,-363.582"/>
<text text-anchor="middle" x="94.5904" y="-368.633" font-family="Times New Roman,serif" font-size="10.00">groupAccount</text>
<text text-anchor="middle" x="97.1341" y="-411.1" font-family="Times New Roman,serif" font-size="10.00">item</text>
</g>
<!-- Item&#45;&#45;Person -->
<g id="edge6" class="edge"><title>Item&#45;&#45;Person</title>
<path fill="none" stroke="black" d="M112.96,-421.413C116.235,-403.621 120.085,-382.975 122,-364 128.693,-297.67 127.586,-280.432 122,-214 121.012,-202.251 119.507,-189.941 117.83,-177.83"/>
<text text-anchor="middle" x="123.245" y="-183.737" font-family="Times New Roman,serif" font-size="10.00">buyer</text>
<text text-anchor="middle" x="110.444" y="-409.235" font-family="Times New Roman,serif" font-size="10.00">items</text>
</g>
<!-- Item&#45;&#45;Person -->
<g id="edge20" class="edge"><title>Item&#45;&#45;Person</title>
<path fill="none" stroke="black" d="M129.735,-421.413C134.235,-403.621 138.085,-382.975 140,-364 146.693,-297.67 145.586,-280.432 140,-214 139.012,-202.251 137.507,-189.941 135.661,-177.83"/>
<text text-anchor="middle" x="141.179" y="-183.67" font-family="Times New Roman,serif" font-size="10.00">person</text>
<text text-anchor="middle" x="127.79" y="-409.104" font-family="Times New Roman,serif" font-size="10.00">item</text>
</g>
<!-- Room -->
<g id="node5" class="node"><title>Room</title>
<polygon fill="none" stroke="black" points="380,-486 380,-503 452,-503 452,-486 380,-486"/>
<text text-anchor="start" x="404" y="-492.5" font-family="Times New Roman,serif" font-size="10.00">Room</text>
<polygon fill="none" stroke="black" points="380,-452 380,-486 452,-486 452,-452 380,-452"/>
<text text-anchor="start" x="385" y="-474" font-family="Times New Roman,serif" font-size="10.00">roomNo :String</text>
<text text-anchor="start" x="385" y="-460" font-family="Times New Roman,serif" font-size="10.00">credits :int</text>
<polygon fill="none" stroke="black" points="380,-432 380,-452 452,-452 452,-432 380,-432"/>
<text text-anchor="start" x="414.5" y="-440" font-family="Times New Roman,serif" font-size="10.00"> </text>
</g>
<!-- Room&#45;&#45;Room -->
<g id="edge22" class="edge"><title>Room&#45;&#45;Room</title>
<path fill="none" stroke="black" d="M460.019,-489.944C479.359,-491.886 496,-484.572 496,-468 496,-451.428 479.359,-444.114 460.019,-446.056"/>
<text text-anchor="middle" x="468.844" y="-438.852" font-family="Times New Roman,serif" font-size="10.00">rooms</text>
<text text-anchor="middle" x="469.295" y="-483.708" font-family="Times New Roman,serif" font-size="10.00">rooms</text>
</g>
<!-- Room&#45;&#45;Room -->
<g id="edge24" class="edge"><title>Room&#45;&#45;Room</title>
<path fill="none" stroke="black" d="M460.091,-498.95C487.675,-506.564 514,-496.247 514,-468 514,-439.753 487.675,-429.436 460.091,-437.05"/>
<text text-anchor="middle" x="468.077" y="-428.531" font-family="Times New Roman,serif" font-size="10.00">rooms</text>
<text text-anchor="middle" x="469.835" y="-494.201" font-family="Times New Roman,serif" font-size="10.00">rooms</text>
</g>
<!-- Room&#45;&#45;Room -->
<g id="edge10" class="edge"><title>Room&#45;&#45;Room</title>
<path fill="none" stroke="black" d="M460.024,-478.905C470.369,-478.009 478,-474.374 478,-468 478,-461.626 470.369,-457.991 460.024,-457.095"/>
<text text-anchor="middle" x="469.515" y="-451.445" font-family="Times New Roman,serif" font-size="10.00">neighbors</text>
<text text-anchor="middle" x="468.538" y="-471.16" font-family="Times New Roman,serif" font-size="10.00">neighbors</text>
</g>
<!-- Student -->
<g id="node6" class="node"><title>Student</title>
<polygon fill="none" stroke="black" points="348,-307 348,-324 409,-324 409,-307 348,-307"/>
<text text-anchor="start" x="362.5" y="-313.5" font-family="Times New Roman,serif" font-size="10.00">Student</text>
<polygon fill="none" stroke="black" points="348,-273 348,-307 409,-307 409,-273 348,-273"/>
<text text-anchor="start" x="353" y="-295" font-family="Times New Roman,serif" font-size="10.00">name :String</text>
<text text-anchor="start" x="353" y="-281" font-family="Times New Roman,serif" font-size="10.00">matrNo :int</text>
<polygon fill="none" stroke="black" points="348,-253 348,-273 409,-273 409,-253 348,-253"/>
<text text-anchor="start" x="377" y="-261" font-family="Times New Roman,serif" font-size="10.00"> </text>
</g>
<!-- Room&#45;&#45;Student -->
<g id="edge26" class="edge"><title>Room&#45;&#45;Student</title>
<path fill="none" stroke="black" d="M401.961,-428.157C394.223,-398.645 385.551,-358.242 380.625,-328.753"/>
<text text-anchor="middle" x="386.336" y="-334.462" font-family="Times New Roman,serif" font-size="10.00">students</text>
<text text-anchor="middle" x="395.619" y="-417.925" font-family="Times New Roman,serif" font-size="10.00">room</text>
</g>
<!-- Room&#45;&#45;Student -->
<g id="edge12" class="edge"><title>Room&#45;&#45;Student</title>
<path fill="none" stroke="black" d="M413.36,-428.157C408.427,-398.645 399.751,-358.242 392.015,-328.753"/>
<text text-anchor="middle" x="398.358" y="-333.984" font-family="Times New Roman,serif" font-size="10.00">students</text>
<text text-anchor="middle" x="407.648" y="-417.449" font-family="Times New Roman,serif" font-size="10.00">in</text>
</g>
<!-- University -->
<g id="node8" class="node"><title>University</title>
<polygon fill="none" stroke="black" points="386,-100 386,-117 447,-117 447,-100 386,-100"/>
<text text-anchor="start" x="395" y="-106.5" font-family="Times New Roman,serif" font-size="10.00">University</text>
<polygon fill="none" stroke="black" points="386,-80 386,-100 447,-100 447,-80 386,-80"/>
<text text-anchor="start" x="391" y="-88" font-family="Times New Roman,serif" font-size="10.00">name :String</text>
<polygon fill="none" stroke="black" points="386,-60 386,-80 447,-80 447,-60 386,-60"/>
<text text-anchor="start" x="415" y="-68" font-family="Times New Roman,serif" font-size="10.00"> </text>
</g>
<!-- Room&#45;&#45;University -->
<g id="edge28" class="edge"><title>Room&#45;&#45;University</title>
<path fill="none" stroke="black" d="M412.078,-428.412C413.059,-409.097 415.069,-385.34 416,-364 418.904,-297.397 418.415,-280.623 416,-214 414.859,-182.507 412.092,-146.604 411.594,-121.565"/>
<text text-anchor="middle" x="416.066" y="-128.009" font-family="Times New Roman,serif" font-size="10.00">university</text>
<text text-anchor="middle" x="408.352" y="-416.633" font-family="Times New Roman,serif" font-size="10.00">rooms</text>
</g>
<!-- Room&#45;&#45;University -->
<g id="edge8" class="edge"><title>Room&#45;&#45;University</title>
<path fill="none" stroke="black" d="M428.27,-428.412C431.059,-409.097 433.069,-385.34 434,-364 436.904,-297.397 436.415,-280.623 434,-214 432.859,-182.507 430.092,-146.604 426.255,-121.565"/>
<text text-anchor="middle" x="431.722" y="-127.438" font-family="Times New Roman,serif" font-size="10.00">uni</text>
<text text-anchor="middle" x="425.316" y="-416.359" font-family="Times New Roman,serif" font-size="10.00">rooms</text>
</g>
<!-- Student&#45;&#45;University -->
<g id="edge30" class="edge"><title>Student&#45;&#45;University</title>
<path fill="none" stroke="black" d="M379.936,-249.354C385.277,-212.102 396.089,-156.415 404.808,-121.698"/>
<text text-anchor="middle" x="406.778" y="-129.002" font-family="Times New Roman,serif" font-size="10.00">university</text>
<text text-anchor="middle" x="377.105" y="-237.263" font-family="Times New Roman,serif" font-size="10.00">students</text>
</g>
<!-- Student&#45;&#45;University -->
<g id="edge14" class="edge"><title>Student&#45;&#45;University</title>
<path fill="none" stroke="black" d="M390.898,-249.354C399.856,-212.102 410.419,-156.415 415.025,-121.698"/>
<text text-anchor="middle" x="417.943" y="-128.763" font-family="Times New Roman,serif" font-size="10.00">uni</text>
<text text-anchor="middle" x="388.842" y="-237.067" font-family="Times New Roman,serif" font-size="10.00">students</text>
</g>
<!-- StudyRightClassesCodeGen -->
<g id="node7" class="node"><title>StudyRightClassesCodeGen</title>
<polygon fill="none" stroke="black" points="541,-493 541,-510 700,-510 700,-493 541,-493"/>
<text text-anchor="start" x="563.5" y="-499.5" font-family="Times New Roman,serif" font-size="10.00">StudyRightClassesCodeGen</text>
<polygon fill="none" stroke="black" points="541,-473 541,-493 700,-493 700,-473 541,-473"/>
<text text-anchor="start" x="619" y="-481" font-family="Times New Roman,serif" font-size="10.00"> </text>
<polygon fill="none" stroke="black" points="541,-425 541,-473 700,-473 700,-425 541,-425"/>
<text text-anchor="start" x="546" y="-461" font-family="Times New Roman,serif" font-size="10.00">testStudyRightReverseClassModel()</text>
<text text-anchor="start" x="546" y="-447" font-family="Times New Roman,serif" font-size="10.00">testStudyRightObjectScenarios()</text>
<text text-anchor="start" x="546" y="-433" font-family="Times New Roman,serif" font-size="10.00">testStudyRightClassesCodeGen()</text>
</g>
</g>
</svg>
