<?xml version="1.0" encoding="UTF-8" standalone="no"?>
<!DOCTYPE svg PUBLIC "-//W3C//DTD SVG 1.1//EN"
 "http://www.w3.org/Graphics/SVG/1.1/DTD/svg11.dtd">
<!-- Generated by graphviz version 2.28.0 (20110507.0327)
 -->
<!-- Title: ObjectDiagram Pages: 1 -->
<svg width="368pt" height="370pt"
 viewBox="0.00 0.00 368.00 370.00" xmlns="http://www.w3.org/2000/svg" xmlns:xlink="http://www.w3.org/1999/xlink">
<g id="graph1" class="graph" transform="scale(1 1) rotate(0) translate(4 366)">
<title>ObjectDiagram</title>
<polygon fill="white" stroke="white" points="-4,5 -4,-366 365,-366 365,5 -4,5"/>
<!-- u1 -->
<g id="node1" class="node"><title>u1</title>
<polygon fill="none" stroke="black" points="111,-340 111,-357 208,-357 208,-340 111,-340"/>
<text text-anchor="start" x="129.5" y="-346.5" font-family="Times New Roman,serif" font-size="10.00"> </text>
<text text-anchor="start" x="132.5" y="-346.5" font-family="Times New Roman,serif" font-size="10.00">u1 :University</text>
<polygon fill="none" stroke="black" points="111,-320 111,-340 208,-340 208,-320 111,-320"/>
<text text-anchor="start" x="116" y="-328" font-family="Times New Roman,serif" font-size="10.00">name = &quot;StudyRight&quot;</text>
</g>
<!-- s2 -->
<g id="node2" class="node"><title>s2</title>
<polygon fill="none" stroke="black" points="8,-258 8,-275 85,-275 85,-258 8,-258"/>
<text text-anchor="start" x="22" y="-264.5" font-family="Times New Roman,serif" font-size="10.00"> </text>
<text text-anchor="start" x="25" y="-264.5" font-family="Times New Roman,serif" font-size="10.00">s2 :Student</text>
<polygon fill="none" stroke="black" points="8,-196 8,-258 85,-258 85,-196 8,-196"/>
<text text-anchor="start" x="13" y="-246" font-family="Times New Roman,serif" font-size="10.00">name = &quot;Albert&quot;</text>
<text text-anchor="start" x="13" y="-232" font-family="Times New Roman,serif" font-size="10.00">matrNo = 4242</text>
<text text-anchor="start" x="13" y="-218" font-family="Times New Roman,serif" font-size="10.00">credits = 0</text>
<text text-anchor="start" x="13" y="-204" font-family="Times New Roman,serif" font-size="10.00">motivation = 0</text>
</g>
<!-- u1&#45;&#45;s2 -->
<g id="edge2" class="edge"><title>u1&#45;&#45;s2</title>
<path fill="none" stroke="black" d="M134.759,-316.333C122.437,-305.32 107.038,-291.556 92.5411,-278.599"/>
<text text-anchor="middle" x="102.115" y="-278.987" font-family="Times New Roman,serif" font-size="10.00">students</text>
<text text-anchor="middle" x="125.185" y="-310.944" font-family="Times New Roman,serif" font-size="10.00">uni</text>
</g>
<!-- r4 -->
<g id="node3" class="node"><title>r4</title>
<polygon fill="none" stroke="black" points="41,-134 41,-151 123,-151 123,-134 41,-134"/>
<text text-anchor="start" x="62.5" y="-140.5" font-family="Times New Roman,serif" font-size="10.00"> </text>
<text text-anchor="start" x="65.5" y="-140.5" font-family="Times New Roman,serif" font-size="10.00">r4 :Room</text>
<polygon fill="none" stroke="black" points="41,-100 41,-134 123,-134 123,-100 41,-100"/>
<text text-anchor="start" x="46" y="-122" font-family="Times New Roman,serif" font-size="10.00">roomNo = &quot;math&quot;</text>
<text text-anchor="start" x="46" y="-108" font-family="Times New Roman,serif" font-size="10.00">credits = 42</text>
</g>
<!-- u1&#45;&#45;r4 -->
<g id="edge6" class="edge"><title>u1&#45;&#45;r4</title>
<path fill="none" stroke="black" d="M151.05,-316.214C137.063,-277.887 108.064,-198.422 92.4672,-155.683"/>
<text text-anchor="middle" x="99.5443" y="-160.248" font-family="Times New Roman,serif" font-size="10.00">rooms</text>
<text text-anchor="middle" x="143.973" y="-306.649" font-family="Times New Roman,serif" font-size="10.00">uni</text>
</g>
<!-- r5 -->
<g id="node4" class="node"><title>r5</title>
<polygon fill="none" stroke="black" points="81,-38 81,-55 159,-55 159,-38 81,-38"/>
<text text-anchor="start" x="100.5" y="-44.5" font-family="Times New Roman,serif" font-size="10.00"> </text>
<text text-anchor="start" x="103.5" y="-44.5" font-family="Times New Roman,serif" font-size="10.00">r5 :Room</text>
<polygon fill="none" stroke="black" points="81,-4 81,-38 159,-38 159,-4 81,-4"/>
<text text-anchor="start" x="86" y="-26" font-family="Times New Roman,serif" font-size="10.00">roomNo = &quot;arts&quot;</text>
<text text-anchor="start" x="86" y="-12" font-family="Times New Roman,serif" font-size="10.00">credits = 23</text>
</g>
<!-- u1&#45;&#45;r5 -->
<g id="edge8" class="edge"><title>u1&#45;&#45;r5</title>
<path fill="none" stroke="black" d="M158.891,-316.424C158.329,-273.876 155.314,-176.311 140,-96 137.7,-83.9382 133.968,-70.9491 130.347,-59.7768"/>
<text text-anchor="middle" x="137.132" y="-64.6225" font-family="Times New Roman,serif" font-size="10.00">rooms</text>
<text text-anchor="middle" x="154.506" y="-304.936" font-family="Times New Roman,serif" font-size="10.00">uni</text>
</g>
<!-- s3 -->
<g id="node5" class="node"><title>s3</title>
<polygon fill="none" stroke="black" points="195,-258 195,-275 265,-275 265,-258 195,-258"/>
<text text-anchor="start" x="205.5" y="-264.5" font-family="Times New Roman,serif" font-size="10.00"> </text>
<text text-anchor="start" x="208.5" y="-264.5" font-family="Times New Roman,serif" font-size="10.00">s3 :Student</text>
<polygon fill="none" stroke="black" points="195,-196 195,-258 265,-258 265,-196 195,-196"/>
<text text-anchor="start" x="200" y="-246" font-family="Times New Roman,serif" font-size="10.00">name = &quot;Nina&quot;</text>
<text text-anchor="start" x="200" y="-232" font-family="Times New Roman,serif" font-size="10.00">matrNo = 2323</text>
<text text-anchor="start" x="200" y="-218" font-family="Times New Roman,serif" font-size="10.00">credits = 0</text>
<text text-anchor="start" x="200" y="-204" font-family="Times New Roman,serif" font-size="10.00">motivation = 0</text>
</g>
<!-- u1&#45;&#45;s3 -->
<g id="edge4" class="edge"><title>u1&#45;&#45;s3</title>
<path fill="none" stroke="black" d="M174.406,-316.085C181.91,-305.409 191.201,-292.193 200.025,-279.641"/>
<text text-anchor="middle" x="198.27" y="-286.986" font-family="Times New Roman,serif" font-size="10.00">students</text>
<text text-anchor="middle" x="176.161" y="-303.74" font-family="Times New Roman,serif" font-size="10.00">uni</text>
</g>
<!-- r6 -->
<g id="node6" class="node"><title>r6</title>
<polygon fill="none" stroke="black" points="300,-237 300,-254 353,-254 353,-237 300,-237"/>
<text text-anchor="start" x="307" y="-243.5" font-family="Times New Roman,serif" font-size="10.00"> </text>
<text text-anchor="start" x="310" y="-243.5" font-family="Times New Roman,serif" font-size="10.00">r6 :Room</text>
<polygon fill="none" stroke="black" points="300,-217 300,-237 353,-237 353,-217 300,-217"/>
<text text-anchor="start" x="305" y="-225" font-family="Times New Roman,serif" font-size="10.00">credits = 0</text>
</g>
<!-- u1&#45;&#45;r6 -->
<g id="edge10" class="edge"><title>u1&#45;&#45;r6</title>
<path fill="none" stroke="black" d="M214.724,-316.441C236.596,-306.796 261.352,-294.348 282,-280 290.771,-273.905 299.404,-266.011 306.668,-258.652"/>
<text text-anchor="middle" x="303.252" y="-265.551" font-family="Times New Roman,serif" font-size="10.00">rooms</text>
<text text-anchor="middle" x="221.265" y="-306.378" font-family="Times New Roman,serif" font-size="10.00">uni</text>
</g>
<!-- s2&#45;&#45;r4 -->
<g id="edge12" class="edge"><title>s2&#45;&#45;r4</title>
<path fill="none" stroke="black" d="M60.2282,-192.316C64.3161,-180.052 68.6758,-166.973 72.4118,-155.765"/>
<text text-anchor="middle" x="73.5551" y="-163.199" font-family="Times New Roman,serif" font-size="10.00">in</text>
<text text-anchor="middle" x="59.0848" y="-179.881" font-family="Times New Roman,serif" font-size="10.00">students</text>
</g>
<!-- r4&#45;&#45;r5 -->
<g id="edge14" class="edge"><title>r4&#45;&#45;r5</title>
<path fill="none" stroke="black" d="M93.6077,-96.2861C98.3222,-84.624 103.756,-71.1822 108.463,-59.538"/>
<text text-anchor="middle" x="108.985" y="-67.0244" font-family="Times New Roman,serif" font-size="10.00">neighbors</text>
<text text-anchor="middle" x="93.0863" y="-83.7997" font-family="Times New Roman,serif" font-size="10.00">neighbors</text>
</g>
</g>
</svg>
