<?xml version="1.0" encoding="UTF-8" standalone="no"?>
<!DOCTYPE svg PUBLIC "-//W3C//DTD SVG 1.1//EN"
 "http://www.w3.org/Graphics/SVG/1.1/DTD/svg11.dtd">
<!-- Generated by graphviz version 2.28.0 (20110507.0327)
 -->
<!-- Title: ObjectDiagram Pages: 1 -->
<svg width="673pt" height="876pt"
 viewBox="0.00 0.00 672.69 876.00" xmlns="http://www.w3.org/2000/svg" xmlns:xlink="http://www.w3.org/1999/xlink">
<g id="graph1" class="graph" transform="scale(1 1) rotate(0) translate(4 872)">
<title>ObjectDiagram</title>
<polygon fill="white" stroke="white" points="-4,5 -4,-872 669.695,-872 669.695,5 -4,5"/>
<!-- studyRight -->
<g id="node1" class="node"><title>studyRight</title>
<a xlink:href="../examples/org/sdmlib/examples/studyrightWithAssignments/University.java" xlink:title="&lt;TABLE&gt;">
<polygon fill="none" stroke="black" points="507,-846 507,-863 609,-863 609,-846 507,-846"/>
<text text-anchor="start" x="510.5" y="-852.5" font-family="Times New Roman,serif" font-size="10.00"> </text>
<text text-anchor="start" x="513.5" y="-852.5" font-family="Times New Roman,serif" font-size="10.00">studyRight :University</text>
</a>
<polygon fill="none" stroke="black" points="507,-826 507,-846 609,-846 609,-826 507,-826"/>
<text text-anchor="start" x="512" y="-834" font-family="Times New Roman,serif" font-size="10.00">name = &quot;StudyRight&quot;</text>
</g>
<!-- karli -->
<g id="node2" class="node"><title>karli</title>
<image xlink:href="icons/karli.png" width="61px" height="46px" preserveAspectRatio="xMinYMin meet" x="393" y="-780"/>
<a xlink:href="../examples/org/sdmlib/examples/studyrightWithAssignments/Student.java" xlink:title="&lt;TABLE&gt;">
<polygon fill="none" stroke="black" points="375,-716 375,-732 472,-732 472,-716 375,-716"/>
<text text-anchor="start" x="395.5" y="-722" font-family="Times New Roman,serif" font-size="10.00"> </text>
<text text-anchor="start" x="398.5" y="-722" font-family="Times New Roman,serif" font-size="10.00">karli :Student</text>
</a>
<polygon fill="none" stroke="black" points="375,-654 375,-716 472,-716 472,-654 375,-654"/>
<text text-anchor="start" x="380" y="-704" font-family="Times New Roman,serif" font-size="10.00">name = &quot;Karli&quot;</text>
<text text-anchor="start" x="380" y="-690" font-family="Times New Roman,serif" font-size="10.00">assignmentPoints = 0</text>
<text text-anchor="start" x="380" y="-676" font-family="Times New Roman,serif" font-size="10.00">motivation = 0</text>
<text text-anchor="start" x="380" y="-662" font-family="Times New Roman,serif" font-size="10.00">credits = 0</text>
</g>
<!-- studyRight&#45;&#45;karli -->
<g id="edge2" class="edge"><title>studyRight&#45;&#45;karli</title>
<path fill="none" stroke="black" d="M534.485,-822.227C519.225,-808.097 498.653,-789.049 479.336,-771.163"/>
<text text-anchor="middle" x="488.857" y="-771.719" font-family="Times New Roman,serif" font-size="10.00">students</text>
<text text-anchor="middle" x="524.963" y="-816.67" font-family="Times New Roman,serif" font-size="10.00">university</text>
</g>
<!-- mathRoom -->
<g id="node3" class="node"><title>mathRoom</title>
<image xlink:href="icons/mathRoom.png" width="85px" height="63px" preserveAspectRatio="xMinYMin meet" x="337" y="-607"/>
<a xlink:href="../examples/org/sdmlib/examples/studyrightWithAssignments/Room.java" xlink:title="&lt;TABLE&gt;">
<polygon fill="none" stroke="black" points="335,-526 335,-542 424,-542 424,-526 335,-526"/>
<text text-anchor="start" x="342.5" y="-532" font-family="Times New Roman,serif" font-size="10.00"> </text>
<text text-anchor="start" x="345.5" y="-532" font-family="Times New Roman,serif" font-size="10.00">mathRoom :Room</text>
</a>
<polygon fill="none" stroke="black" points="335,-478 335,-526 424,-526 424,-478 335,-478"/>
<text text-anchor="start" x="340" y="-514" font-family="Times New Roman,serif" font-size="10.00">name = &quot;senate&quot;</text>
<text text-anchor="start" x="340" y="-500" font-family="Times New Roman,serif" font-size="10.00">topic = &quot;math&quot;</text>
<text text-anchor="start" x="340" y="-486" font-family="Times New Roman,serif" font-size="10.00">credits = 17</text>
</g>
<!-- studyRight&#45;&#45;mathRoom -->
<g id="edge4" class="edge"><title>studyRight&#45;&#45;mathRoom</title>
<path fill="none" stroke="black" d="M553.624,-822.462C545.315,-785.048 524.716,-706.634 488,-650 472.777,-626.519 451.356,-604.403 431.528,-586.58"/>
<text text-anchor="middle" x="441.069" y="-587.074" font-family="Times New Roman,serif" font-size="10.00">rooms</text>
<text text-anchor="middle" x="547.465" y="-812.084" font-family="Times New Roman,serif" font-size="10.00">university</text>
</g>
<!-- artsRoom -->
<g id="node4" class="node"><title>artsRoom</title>
<a xlink:href="../examples/org/sdmlib/examples/studyrightWithAssignments/Room.java" xlink:title="&lt;TABLE&gt;">
<polygon fill="none" stroke="black" points="8,-399 8,-416 85,-416 85,-399 8,-399"/>
<text text-anchor="start" x="11.5" y="-405.5" font-family="Times New Roman,serif" font-size="10.00"> </text>
<text text-anchor="start" x="14.5" y="-405.5" font-family="Times New Roman,serif" font-size="10.00">artsRoom :Room</text>
</a>
<polygon fill="none" stroke="black" points="8,-351 8,-399 85,-399 85,-351 8,-351"/>
<text text-anchor="start" x="13" y="-387" font-family="Times New Roman,serif" font-size="10.00">name = &quot;7522&quot;</text>
<text text-anchor="start" x="13" y="-373" font-family="Times New Roman,serif" font-size="10.00">topic = &quot;arts&quot;</text>
<text text-anchor="start" x="13" y="-359" font-family="Times New Roman,serif" font-size="10.00">credits = 16</text>
</g>
<!-- studyRight&#45;&#45;artsRoom -->
<g id="edge6" class="edge"><title>studyRight&#45;&#45;artsRoom</title>
<path fill="none" stroke="black" d="M498.865,-836.885C456.454,-829.527 399.531,-814.85 357,-786 211.544,-687.333 103.923,-498.919 63.5041,-420.558"/>
<text text-anchor="middle" x="71.484" y="-424.085" font-family="Times New Roman,serif" font-size="10.00">rooms</text>
<text text-anchor="middle" x="489.183" y="-836.888" font-family="Times New Roman,serif" font-size="10.00">university</text>
</g>
<!-- sportsRoom -->
<g id="node5" class="node"><title>sportsRoom</title>
<a xlink:href="../examples/org/sdmlib/examples/studyrightWithAssignments/Room.java" xlink:title="&lt;TABLE&gt;">
<polygon fill="none" stroke="black" points="121,-272 121,-289 218,-289 218,-272 121,-272"/>
<text text-anchor="start" x="129.5" y="-278.5" font-family="Times New Roman,serif" font-size="10.00"> </text>
<text text-anchor="start" x="132.5" y="-278.5" font-family="Times New Roman,serif" font-size="10.00">sportsRoom :Room</text>
</a>
<polygon fill="none" stroke="black" points="121,-224 121,-272 218,-272 218,-224 121,-224"/>
<text text-anchor="start" x="126" y="-260" font-family="Times New Roman,serif" font-size="10.00">name = &quot;gymnasium&quot;</text>
<text text-anchor="start" x="126" y="-246" font-family="Times New Roman,serif" font-size="10.00">topic = &quot;sports&quot;</text>
<text text-anchor="start" x="126" y="-232" font-family="Times New Roman,serif" font-size="10.00">credits = 25</text>
</g>
<!-- studyRight&#45;&#45;sportsRoom -->
<g id="edge8" class="edge"><title>studyRight&#45;&#45;sportsRoom</title>
<path fill="none" stroke="black" d="M562.054,-822.346C577.978,-734.493 632.334,-405.752 569,-330 525.834,-278.371 324.916,-263.707 225.299,-259.586"/>
<text text-anchor="middle" x="234.555" y="-253.302" font-family="Times New Roman,serif" font-size="10.00">rooms</text>
<text text-anchor="middle" x="559.449" y="-810.191" font-family="Times New Roman,serif" font-size="10.00">university</text>
</g>
<!-- examRoom -->
<g id="node6" class="node"><title>examRoom</title>
<a xlink:href="../examples/org/sdmlib/examples/studyrightWithAssignments/Room.java" xlink:title="&lt;TABLE&gt;">
<polygon fill="none" stroke="black" points="127,-162 127,-179 212,-179 212,-162 127,-162"/>
<text text-anchor="start" x="132.5" y="-168.5" font-family="Times New Roman,serif" font-size="10.00"> </text>
<text text-anchor="start" x="135.5" y="-168.5" font-family="Times New Roman,serif" font-size="10.00">examRoom :Room</text>
</a>
<polygon fill="none" stroke="black" points="127,-114 127,-162 212,-162 212,-114 127,-114"/>
<text text-anchor="start" x="132" y="-150" font-family="Times New Roman,serif" font-size="10.00">name = &quot;The End&quot;</text>
<text text-anchor="start" x="132" y="-136" font-family="Times New Roman,serif" font-size="10.00">topic = &quot;exam&quot;</text>
<text text-anchor="start" x="132" y="-122" font-family="Times New Roman,serif" font-size="10.00">credits = 0</text>
</g>
<!-- studyRight&#45;&#45;examRoom -->
<g id="edge10" class="edge"><title>studyRight&#45;&#45;examRoom</title>
<path fill="none" stroke="black" d="M573.388,-822.406C580.148,-811.893 587.546,-798.786 592,-786 627.582,-683.848 626,-653.172 626,-545 626,-545 626,-545 626,-383 626,-201.893 338.639,-160.242 219.653,-150.759"/>
<text text-anchor="middle" x="229.083" y="-144.93" font-family="Times New Roman,serif" font-size="10.00">rooms</text>
<text text-anchor="middle" x="574.664" y="-809.987" font-family="Times New Roman,serif" font-size="10.00">university</text>
</g>
<!-- placeToBe -->
<g id="node7" class="node"><title>placeToBe</title>
<a xlink:href="../examples/org/sdmlib/examples/studyrightWithAssignments/Room.java" xlink:title="&lt;TABLE&gt;">
<polygon fill="none" stroke="black" points="101,-52 101,-69 237,-69 237,-52 101,-52"/>
<text text-anchor="start" x="132" y="-58.5" font-family="Times New Roman,serif" font-size="10.00"> </text>
<text text-anchor="start" x="135" y="-58.5" font-family="Times New Roman,serif" font-size="10.00">placeToBe :Room</text>
</a>
<polygon fill="none" stroke="black" points="101,-4 101,-52 237,-52 237,-4 101,-4"/>
<text text-anchor="start" x="106" y="-40" font-family="Times New Roman,serif" font-size="10.00">name = &quot;7422&quot;</text>
<text text-anchor="start" x="106" y="-26" font-family="Times New Roman,serif" font-size="10.00">topic = &quot;Software Engineering&quot;</text>
<text text-anchor="start" x="106" y="-12" font-family="Times New Roman,serif" font-size="10.00">credits = 42</text>
</g>
<!-- studyRight&#45;&#45;placeToBe -->
<g id="edge12" class="edge"><title>studyRight&#45;&#45;placeToBe</title>
<path fill="none" stroke="black" d="M589.081,-822.374C600.86,-812.6 613.279,-800.078 621,-786 673.318,-690.602 664,-653.803 664,-545 664,-545 664,-545 664,-256 664,-75.2378 384.11,-43.0605 245.259,-38.2193"/>
<text text-anchor="middle" x="254.532" y="-31.9755" font-family="Times New Roman,serif" font-size="10.00">rooms</text>
<text text-anchor="middle" x="593.253" y="-810.786" font-family="Times New Roman,serif" font-size="10.00">university</text>
</g>
<!-- karli&#45;&#45;mathRoom -->
<g id="edge14" class="edge"><title>karli&#45;&#45;mathRoom</title>
<path fill="none" stroke="black" d="M405.736,-649.515C402.727,-637.75 399.593,-625.501 396.575,-613.704"/>
<text text-anchor="middle" x="402.916" y="-618.937" font-family="Times New Roman,serif" font-size="10.00">in</text>
<text text-anchor="middle" x="399.396" y="-639.282" font-family="Times New Roman,serif" font-size="10.00">students</text>
</g>
<!-- mathRoom&#45;&#45;artsRoom -->
<g id="edge16" class="edge"><title>mathRoom&#45;&#45;artsRoom</title>
<path fill="none" stroke="black" d="M326.529,-484.582C321.243,-480.588 315.709,-476.975 310,-474 228.744,-431.65 189.689,-477.478 107,-438 97.7579,-433.588 88.8266,-427.382 80.7802,-420.765"/>
<text text-anchor="middle" x="90.4858" y="-420.674" font-family="Times New Roman,serif" font-size="10.00">doors</text>
<text text-anchor="middle" x="316.736" y="-480.058" font-family="Times New Roman,serif" font-size="10.00">doors</text>
</g>
<!-- mathRoom&#45;&#45;sportsRoom -->
<g id="edge18" class="edge"><title>mathRoom&#45;&#45;sportsRoom</title>
<path fill="none" stroke="black" d="M326.42,-484.788C321.158,-480.748 315.659,-477.07 310,-474 242.114,-437.174 188.626,-498.001 140,-438 106.818,-397.055 129.066,-333.229 148.677,-293.605"/>
<text text-anchor="middle" x="148.648" y="-301.105" font-family="Times New Roman,serif" font-size="10.00">doors</text>
<text text-anchor="middle" x="316.643" y="-480.186" font-family="Times New Roman,serif" font-size="10.00">doors</text>
</g>
<!-- a1 -->
<g id="node8" class="node"><title>a1</title>
<image xlink:href="icons/matrix.png" width="121px" height="46px" preserveAspectRatio="xMinYMin meet" x="170" y="-432"/>
<a xlink:href="../examples/org/sdmlib/examples/studyrightWithAssignments/Assignment.java" xlink:title="&lt;TABLE&gt;">
<polygon fill="none" stroke="black" points="158,-368 158,-384 303,-384 303,-368 158,-368"/>
<text text-anchor="start" x="197.5" y="-374" font-family="Times New Roman,serif" font-size="10.00"> </text>
<text text-anchor="start" x="200.5" y="-374" font-family="Times New Roman,serif" font-size="10.00">a1 :Assignment</text>
</a>
<polygon fill="none" stroke="black" points="158,-334 158,-368 303,-368 303,-334 158,-334"/>
<text text-anchor="start" x="163" y="-356" font-family="Times New Roman,serif" font-size="10.00">content = &quot;Matrix Multiplication&quot;</text>
<text text-anchor="start" x="163" y="-342" font-family="Times New Roman,serif" font-size="10.00">points = 5</text>
</g>
<!-- mathRoom&#45;&#45;a1 -->
<g id="edge20" class="edge"><title>mathRoom&#45;&#45;a1</title>
<path fill="none" stroke="black" d="M326.468,-487.295C311.387,-471.303 294.986,-453.912 280.059,-438.082"/>
<text text-anchor="middle" x="289.351" y="-439.276" font-family="Times New Roman,serif" font-size="10.00">assignments</text>
<text text-anchor="middle" x="317.176" y="-481.101" font-family="Times New Roman,serif" font-size="10.00">room</text>
</g>
<!-- a2 -->
<g id="node9" class="node"><title>a2</title>
<image xlink:href="icons/limes.png" width="74px" height="35px" preserveAspectRatio="xMinYMin meet" x="342.5" y="-426"/>
<a xlink:href="../examples/org/sdmlib/examples/studyrightWithAssignments/Assignment.java" xlink:title="&lt;TABLE&gt;">
<polygon fill="none" stroke="black" points="337,-373 337,-389 422,-389 422,-373 337,-373"/>
<text text-anchor="start" x="346.5" y="-379" font-family="Times New Roman,serif" font-size="10.00"> </text>
<text text-anchor="start" x="349.5" y="-379" font-family="Times New Roman,serif" font-size="10.00">a2 :Assignment</text>
</a>
<polygon fill="none" stroke="black" points="337,-339 337,-373 422,-373 422,-339 337,-339"/>
<text text-anchor="start" x="342" y="-361" font-family="Times New Roman,serif" font-size="10.00">content = &quot;Series&quot;</text>
<text text-anchor="start" x="342" y="-347" font-family="Times New Roman,serif" font-size="10.00">points = 6</text>
</g>
<!-- mathRoom&#45;&#45;a2 -->
<g id="edge22" class="edge"><title>mathRoom&#45;&#45;a2</title>
<path fill="none" stroke="black" d="M379,-474.159C379,-460.188 379,-445.786 379,-432.74"/>
<text text-anchor="middle" x="383.226" y="-439.303" font-family="Times New Roman,serif" font-size="10.00">assignments</text>
<text text-anchor="middle" x="374.774" y="-462.595" font-family="Times New Roman,serif" font-size="10.00">room</text>
</g>
<!-- a3 -->
<g id="node10" class="node"><title>a3</title>
<image xlink:href="icons/integralAssignment.png" width="83px" height="36px" preserveAspectRatio="xMinYMin meet" x="462.5" y="-427"/>
<a xlink:href="../examples/org/sdmlib/examples/studyrightWithAssignments/Assignment.java" xlink:title="&lt;TABLE&gt;">
<polygon fill="none" stroke="black" points="456,-373 456,-389 552,-389 552,-373 456,-373"/>
<text text-anchor="start" x="471" y="-379" font-family="Times New Roman,serif" font-size="10.00"> </text>
<text text-anchor="start" x="474" y="-379" font-family="Times New Roman,serif" font-size="10.00">a3 :Assignment</text>
</a>
<polygon fill="none" stroke="black" points="456,-339 456,-373 552,-373 552,-339 456,-339"/>
<text text-anchor="start" x="461" y="-361" font-family="Times New Roman,serif" font-size="10.00">content = &quot;Integrals&quot;</text>
<text text-anchor="start" x="461" y="-347" font-family="Times New Roman,serif" font-size="10.00">points = 8</text>
</g>
<!-- mathRoom&#45;&#45;a3 -->
<g id="edge24" class="edge"><title>mathRoom&#45;&#45;a3</title>
<path fill="none" stroke="black" d="M431.287,-476.909C442.928,-462.195 455.054,-446.867 465.992,-433.042"/>
<text text-anchor="middle" x="463.683" y="-440.272" font-family="Times New Roman,serif" font-size="10.00">assignments</text>
<text text-anchor="middle" x="433.596" y="-464.679" font-family="Times New Roman,serif" font-size="10.00">room</text>
</g>
<!-- artsRoom&#45;&#45;sportsRoom -->
<g id="edge26" class="edge"><title>artsRoom&#45;&#45;sportsRoom</title>
<path fill="none" stroke="black" d="M81.2469,-347.18C97.7163,-330.443 117.278,-310.563 133.748,-293.825"/>
<text text-anchor="middle" x="130.404" y="-300.749" font-family="Times New Roman,serif" font-size="10.00">doors</text>
<text text-anchor="middle" x="84.5912" y="-335.256" font-family="Times New Roman,serif" font-size="10.00">doors</text>
</g>
<!-- artsRoom&#45;&#45;examRoom -->
<g id="edge28" class="edge"><title>artsRoom&#45;&#45;examRoom</title>
<path fill="none" stroke="black" d="M53.9722,-347.498C62.668,-313.21 78.6806,-260.647 103,-220 110.661,-207.195 120.855,-194.685 130.933,-183.781"/>
<text text-anchor="middle" x="127.951" y="-190.826" font-family="Times New Roman,serif" font-size="10.00">doors</text>
<text text-anchor="middle" x="52.1798" y="-335.16" font-family="Times New Roman,serif" font-size="10.00">doors</text>
</g>
<!-- artsRoom&#45;&#45;placeToBe -->
<g id="edge30" class="edge"><title>artsRoom&#45;&#45;placeToBe</title>
<path fill="none" stroke="black" d="M47.5048,-347.354C51.2252,-292.73 64.1436,-186.604 109,-110 116.4,-97.3629 126.012,-84.7124 135.367,-73.6197"/>
<text text-anchor="middle" x="132.81" y="-80.7873" font-family="Times New Roman,serif" font-size="10.00">doors</text>
<text text-anchor="middle" x="44.0079" y="-335.486" font-family="Times New Roman,serif" font-size="10.00">doors</text>
</g>
<!-- sportsRoom&#45;&#45;examRoom -->
<g id="edge32" class="edge"><title>sportsRoom&#45;&#45;examRoom</title>
<path fill="none" stroke="black" d="M169,-220.337C169,-208.541 169,-195.419 169,-183.625"/>
<text text-anchor="middle" x="173.226" y="-190.188" font-family="Times New Roman,serif" font-size="10.00">doors</text>
<text text-anchor="middle" x="164.774" y="-208.774" font-family="Times New Roman,serif" font-size="10.00">doors</text>
</g>
<!-- examRoom&#45;&#45;placeToBe -->
<g id="edge34" class="edge"><title>examRoom&#45;&#45;placeToBe</title>
<path fill="none" stroke="black" d="M169,-110.337C169,-98.5407 169,-85.4191 169,-73.6251"/>
<text text-anchor="middle" x="173.226" y="-80.1882" font-family="Times New Roman,serif" font-size="10.00">doors</text>
<text text-anchor="middle" x="164.774" y="-98.7744" font-family="Times New Roman,serif" font-size="10.00">doors</text>
</g>
</g>
</svg>
