<?xml version="1.0" encoding="UTF-8" standalone="no"?>
<!DOCTYPE svg PUBLIC "-//W3C//DTD SVG 1.1//EN"
 "http://www.w3.org/Graphics/SVG/1.1/DTD/svg11.dtd">
<!-- Generated by graphviz version 2.28.0 (20110507.0327)
 -->
<!-- Title: ObjectDiagram Pages: 1 -->
<svg width="150pt" height="290pt"
 viewBox="0.00 0.00 150.00 290.00" xmlns="http://www.w3.org/2000/svg" xmlns:xlink="http://www.w3.org/1999/xlink">
<g id="graph1" class="graph" transform="scale(1 1) rotate(0) translate(4 286)">
<title>ObjectDiagram</title>
<polygon fill="white" stroke="white" points="-4,5 -4,-286 147,-286 147,5 -4,5"/>
<!-- r1 -->
<g id="node1" class="node"><title>r1</title>
<polygon fill="deepskyblue" stroke="deepskyblue" points="35,-240.5 35,-277.5 107,-277.5 107,-240.5 35,-240.5"/>
<polygon fill="none" stroke="black" points="35,-260 35,-277 107,-277 107,-260 35,-260"/>
<text text-anchor="start" x="38.5" y="-266.5" font-family="Arial" font-size="10.00"> </text>
<text text-anchor="start" x="42.5" y="-266.5" font-family="Arial" font-size="10.00"> r1 :RoomPO </text>
<polygon fill="none" stroke="black" points="35,-240 35,-260 107,-260 107,-240 35,-240"/>
<text text-anchor="start" x="67.5" y="-248" font-family="Arial" font-size="10.00"> &#160;</text>
</g>
<!-- s2 -->
<g id="node2" class="node"><title>s2</title>
<polygon fill="deepskyblue" stroke="deepskyblue" points="30,-158.5 30,-195.5 112,-195.5 112,-158.5 30,-158.5"/>
<polygon fill="none" stroke="black" points="30,-178 30,-195 112,-195 112,-178 30,-178"/>
<text text-anchor="start" x="33.5" y="-184.5" font-family="Arial" font-size="10.00"> </text>
<text text-anchor="start" x="37.5" y="-184.5" font-family="Arial" font-size="10.00"> s2 :StudentPO </text>
<polygon fill="none" stroke="black" points="30,-158 30,-178 112,-178 112,-158 30,-158"/>
<text text-anchor="start" x="67.5" y="-166" font-family="Arial" font-size="10.00"> &#160;</text>
</g>
<!-- r1&#45;&#45;s2 -->
<g id="edge4" class="edge"><title>r1&#45;&#45;s2</title>
<path fill="none" stroke="black" d="M71,-236.14C71,-224.759 71,-210.893 71,-199.557"/>
<text text-anchor="middle" x="75.2262" y="-206.12" font-family="Arial" font-size="10.00">students</text>
</g>
<!-- t3 -->
<g id="node3" class="node"><title>t3</title>
<polygon fill="deepskyblue" stroke="deepskyblue" points="8,-76.5 8,-113.5 134,-113.5 134,-76.5 8,-76.5"/>
<polygon fill="none" stroke="black" points="8,-96 8,-113 134,-113 134,-96 8,-96"/>
<text text-anchor="start" x="11.5" y="-102.5" font-family="Arial" font-size="10.00"> </text>
<text text-anchor="start" x="15.5" y="-102.5" font-family="Arial" font-size="10.00"> t3 :TeachingAssistantPO </text>
<polygon fill="none" stroke="black" points="8,-76 8,-96 134,-96 134,-76 8,-76"/>
<text text-anchor="start" x="67.5" y="-84" font-family="Arial" font-size="10.00"> &#160;</text>
</g>
<!-- s2&#45;&#45;t3 -->
<g id="edge6" class="edge"><title>s2&#45;&#45;t3</title>
<path fill="none" stroke="black" d="M71,-154.14C71,-142.759 71,-128.893 71,-117.557"/>
<text text-anchor="middle" x="75.2262" y="-124.12" font-family="Arial" font-size="10.00">instanceof</text>
</g>
<!-- allMatches_t3 -->
<g id="node4" class="node"><title>allMatches_t3</title>
<text text-anchor="middle" x="71" y="-15.5" font-family="Arial" font-size="10.00">allMatches</text>
</g>
<!-- t3&#45;&#45;allMatches_t3 -->
<g id="edge2" class="edge"><title>t3&#45;&#45;allMatches_t3</title>
<path fill="none" stroke="black" stroke-dasharray="1,5" d="M71,-72.3069C71,-60.8856 71,-47.0699 71,-36.3655"/>
</g>
</g>
</svg>
