<?xml version="1.0" encoding="UTF-8" standalone="no"?>
<!DOCTYPE svg PUBLIC "-//W3C//DTD SVG 1.1//EN"
 "http://www.w3.org/Graphics/SVG/1.1/DTD/svg11.dtd">
<!-- Generated by graphviz version 2.28.0 (20110507.0327)
 -->
<!-- Title: ClassDiagram Pages: 1 -->
<svg width="1997pt" height="474pt"
 viewBox="0.00 0.00 1997.00 474.00" xmlns="http://www.w3.org/2000/svg" xmlns:xlink="http://www.w3.org/1999/xlink">
<g id="graph1" class="graph" transform="scale(1 1) rotate(0) translate(4 470)">
<title>ClassDiagram</title>
<polygon fill="white" stroke="white" points="-4,5 -4,-470 1994,-470 1994,5 -4,5"/>
<!-- University -->
<g id="node1" class="node"><title>University</title>
<polygon fill="none" stroke="black" points="63,-409 63,-426 210,-426 210,-409 63,-409"/>
<text text-anchor="start" x="115" y="-415.5" font-family="Times New Roman,serif" font-size="10.00">University</text>
<polygon fill="none" stroke="black" points="63,-389 63,-409 210,-409 210,-389 63,-389"/>
<text text-anchor="start" x="68" y="-397" font-family="Times New Roman,serif" font-size="10.00">listeners :PropertyChangeSupport</text>
<polygon fill="none" stroke="black" points="63,-327 63,-389 210,-389 210,-327 63,-327"/>
<text text-anchor="start" x="68" y="-377" font-family="Times New Roman,serif" font-size="10.00">get(String)</text>
<text text-anchor="start" x="68" y="-363" font-family="Times New Roman,serif" font-size="10.00">set(String,Object)</text>
<text text-anchor="start" x="68" y="-349" font-family="Times New Roman,serif" font-size="10.00">getPropertyChangeSupport()</text>
<text text-anchor="start" x="68" y="-335" font-family="Times New Roman,serif" font-size="10.00">removeYou()</text>
</g>
<!-- Student -->
<g id="node2" class="node"><title>Student</title>
<polygon fill="none" stroke="black" points="8,-230 8,-247 155,-247 155,-230 8,-230"/>
<text text-anchor="start" x="65.5" y="-236.5" font-family="Times New Roman,serif" font-size="10.00">Student</text>
<polygon fill="none" stroke="black" points="8,-210 8,-230 155,-230 155,-210 8,-210"/>
<text text-anchor="start" x="13" y="-218" font-family="Times New Roman,serif" font-size="10.00">listeners :PropertyChangeSupport</text>
<polygon fill="none" stroke="black" points="8,-148 8,-210 155,-210 155,-148 8,-148"/>
<text text-anchor="start" x="13" y="-198" font-family="Times New Roman,serif" font-size="10.00">get(String)</text>
<text text-anchor="start" x="13" y="-184" font-family="Times New Roman,serif" font-size="10.00">set(String,Object)</text>
<text text-anchor="start" x="13" y="-170" font-family="Times New Roman,serif" font-size="10.00">getPropertyChangeSupport()</text>
<text text-anchor="start" x="13" y="-156" font-family="Times New Roman,serif" font-size="10.00">removeYou()</text>
</g>
<!-- University&#45;&#45;Student -->
<g id="edge2" class="edge"><title>University&#45;&#45;Student</title>
<path fill="none" stroke="black" d="M119.647,-323.373C112.617,-300.751 104.418,-274.364 97.3849,-251.729"/>
<text text-anchor="middle" x="104.11" y="-256.63" font-family="Times New Roman,serif" font-size="10.00">students</text>
<text text-anchor="middle" x="112.922" y="-313.473" font-family="Times New Roman,serif" font-size="10.00">uni</text>
</g>
<!-- Room -->
<g id="node3" class="node"><title>Room</title>
<polygon fill="none" stroke="black" points="63,-86 63,-103 210,-103 210,-86 63,-86"/>
<text text-anchor="start" x="124.5" y="-92.5" font-family="Times New Roman,serif" font-size="10.00">Room</text>
<polygon fill="none" stroke="black" points="63,-66 63,-86 210,-86 210,-66 63,-66"/>
<text text-anchor="start" x="68" y="-74" font-family="Times New Roman,serif" font-size="10.00">listeners :PropertyChangeSupport</text>
<polygon fill="none" stroke="black" points="63,-4 63,-66 210,-66 210,-4 63,-4"/>
<text text-anchor="start" x="68" y="-54" font-family="Times New Roman,serif" font-size="10.00">get(String)</text>
<text text-anchor="start" x="68" y="-40" font-family="Times New Roman,serif" font-size="10.00">set(String,Object)</text>
<text text-anchor="start" x="68" y="-26" font-family="Times New Roman,serif" font-size="10.00">getPropertyChangeSupport()</text>
<text text-anchor="start" x="68" y="-12" font-family="Times New Roman,serif" font-size="10.00">removeYou()</text>
</g>
<!-- University&#45;&#45;Room -->
<g id="edge4" class="edge"><title>University&#45;&#45;Room</title>
<path fill="none" stroke="black" d="M154.34,-323.278C161.003,-301.5 167.703,-275.819 171,-252 177.582,-204.453 179.94,-191.16 171,-144 168.712,-131.929 164.822,-119.399 160.447,-107.686"/>
<text text-anchor="middle" x="167.535" y="-112.241" font-family="Times New Roman,serif" font-size="10.00">rooms</text>
<text text-anchor="middle" x="152.9" y="-310.882" font-family="Times New Roman,serif" font-size="10.00">uni</text>
</g>
<!-- Student&#45;&#45;Room -->
<g id="edge8" class="edge"><title>Student&#45;&#45;Room</title>
<path fill="none" stroke="black" d="M101.48,-144.124C106.061,-132.297 110.921,-119.749 115.503,-107.92"/>
<text text-anchor="middle" x="116.17" y="-115.397" font-family="Times New Roman,serif" font-size="10.00">in</text>
<text text-anchor="middle" x="100.812" y="-131.647" font-family="Times New Roman,serif" font-size="10.00">students</text>
</g>
<!-- Room&#45;&#45;Room -->
<g id="edge6" class="edge"><title>Room&#45;&#45;Room</title>
<path fill="none" stroke="black" d="M217.561,-77.6629C228.062,-73.5595 235,-65.6719 235,-54 235,-42.3281 228.062,-34.4405 217.561,-30.3371"/>
<text text-anchor="middle" x="227.559" y="-27.6378" font-family="Times New Roman,serif" font-size="10.00">neighbors</text>
<text text-anchor="middle" x="224.14" y="-67.6321" font-family="Times New Roman,serif" font-size="10.00">neighbors</text>
</g>
<!-- StudyRightClassesCodeGen -->
<g id="node4" class="node"><title>StudyRightClassesCodeGen</title>
<polygon fill="none" stroke="black" points="244,-395 244,-412 390,-412 390,-395 244,-395"/>
<text text-anchor="start" x="260" y="-401.5" font-family="Times New Roman,serif" font-size="10.00">StudyRightClassesCodeGen</text>
<polygon fill="none" stroke="black" points="244,-375 244,-395 390,-395 390,-375 244,-375"/>
<text text-anchor="start" x="315.5" y="-383" font-family="Times New Roman,serif" font-size="10.00"> </text>
<polygon fill="none" stroke="black" points="244,-341 244,-375 390,-375 390,-341 244,-341"/>
<text text-anchor="start" x="249" y="-363" font-family="Times New Roman,serif" font-size="10.00">testStudyRightObjectScenarios()</text>
<text text-anchor="start" x="249" y="-349" font-family="Times New Roman,serif" font-size="10.00">testStudyRightClassesCodeGen()</text>
</g>
<!-- CreatorCreator -->
<g id="node5" class="node"><title>CreatorCreator</title>
<polygon fill="none" stroke="black" points="425,-416 425,-433 572,-433 572,-416 425,-416"/>
<text text-anchor="start" x="469" y="-422.5" font-family="Times New Roman,serif" font-size="10.00">CreatorCreator</text>
<polygon fill="none" stroke="black" points="425,-396 425,-416 572,-416 572,-396 425,-396"/>
<text text-anchor="start" x="430" y="-404" font-family="Times New Roman,serif" font-size="10.00">listeners :PropertyChangeSupport</text>
<polygon fill="none" stroke="black" points="425,-320 425,-396 572,-396 572,-320 425,-320"/>
<text text-anchor="start" x="430" y="-384" font-family="Times New Roman,serif" font-size="10.00">createIdMap(String)</text>
<text text-anchor="start" x="430" y="-370" font-family="Times New Roman,serif" font-size="10.00">get(String)</text>
<text text-anchor="start" x="430" y="-356" font-family="Times New Roman,serif" font-size="10.00">set(String,Object)</text>
<text text-anchor="start" x="430" y="-342" font-family="Times New Roman,serif" font-size="10.00">getPropertyChangeSupport()</text>
<text text-anchor="start" x="430" y="-328" font-family="Times New Roman,serif" font-size="10.00">removeYou()</text>
</g>
<!-- RoomCreator -->
<g id="node6" class="node"><title>RoomCreator</title>
<polygon fill="none" stroke="black" points="606,-416 606,-433 740,-433 740,-416 606,-416"/>
<text text-anchor="start" x="646.5" y="-422.5" font-family="Times New Roman,serif" font-size="10.00">RoomCreator</text>
<polygon fill="none" stroke="black" points="606,-396 606,-416 740,-416 740,-396 606,-396"/>
<text text-anchor="start" x="611" y="-404" font-family="Times New Roman,serif" font-size="10.00">properties :String[]</text>
<polygon fill="none" stroke="black" points="606,-320 606,-396 740,-396 740,-320 606,-320"/>
<text text-anchor="start" x="611" y="-384" font-family="Times New Roman,serif" font-size="10.00">getProperties()</text>
<text text-anchor="start" x="611" y="-370" font-family="Times New Roman,serif" font-size="10.00">getSendableInstance(boolean)</text>
<text text-anchor="start" x="611" y="-356" font-family="Times New Roman,serif" font-size="10.00">getValue(Object,String)</text>
<text text-anchor="start" x="611" y="-342" font-family="Times New Roman,serif" font-size="10.00">setValue(Object,String,Object)</text>
<text text-anchor="start" x="611" y="-328" font-family="Times New Roman,serif" font-size="10.00">createIdMap(String)</text>
</g>
<!-- StudentCreator -->
<g id="node7" class="node"><title>StudentCreator</title>
<polygon fill="none" stroke="black" points="774,-416 774,-433 908,-433 908,-416 774,-416"/>
<text text-anchor="start" x="810.5" y="-422.5" font-family="Times New Roman,serif" font-size="10.00">StudentCreator</text>
<polygon fill="none" stroke="black" points="774,-396 774,-416 908,-416 908,-396 774,-396"/>
<text text-anchor="start" x="779" y="-404" font-family="Times New Roman,serif" font-size="10.00">properties :String[]</text>
<polygon fill="none" stroke="black" points="774,-320 774,-396 908,-396 908,-320 774,-320"/>
<text text-anchor="start" x="779" y="-384" font-family="Times New Roman,serif" font-size="10.00">getProperties()</text>
<text text-anchor="start" x="779" y="-370" font-family="Times New Roman,serif" font-size="10.00">getSendableInstance(boolean)</text>
<text text-anchor="start" x="779" y="-356" font-family="Times New Roman,serif" font-size="10.00">getValue(Object,String)</text>
<text text-anchor="start" x="779" y="-342" font-family="Times New Roman,serif" font-size="10.00">setValue(Object,String,Object)</text>
<text text-anchor="start" x="779" y="-328" font-family="Times New Roman,serif" font-size="10.00">createIdMap(String)</text>
</g>
<!-- UniversityCreator -->
<g id="node8" class="node"><title>UniversityCreator</title>
<polygon fill="none" stroke="black" points="942,-416 942,-433 1076,-433 1076,-416 942,-416"/>
<text text-anchor="start" x="973" y="-422.5" font-family="Times New Roman,serif" font-size="10.00">UniversityCreator</text>
<polygon fill="none" stroke="black" points="942,-396 942,-416 1076,-416 1076,-396 942,-396"/>
<text text-anchor="start" x="947" y="-404" font-family="Times New Roman,serif" font-size="10.00">properties :String[]</text>
<polygon fill="none" stroke="black" points="942,-320 942,-396 1076,-396 1076,-320 942,-320"/>
<text text-anchor="start" x="947" y="-384" font-family="Times New Roman,serif" font-size="10.00">getProperties()</text>
<text text-anchor="start" x="947" y="-370" font-family="Times New Roman,serif" font-size="10.00">getSendableInstance(boolean)</text>
<text text-anchor="start" x="947" y="-356" font-family="Times New Roman,serif" font-size="10.00">getValue(Object,String)</text>
<text text-anchor="start" x="947" y="-342" font-family="Times New Roman,serif" font-size="10.00">setValue(Object,String,Object)</text>
<text text-anchor="start" x="947" y="-328" font-family="Times New Roman,serif" font-size="10.00">createIdMap(String)</text>
</g>
<!-- intPath -->
<g id="node9" class="node"><title>intPath</title>
<polygon fill="none" stroke="black" points="1111,-423 1111,-440 1258,-440 1258,-423 1111,-423"/>
<text text-anchor="start" x="1170" y="-429.5" font-family="Times New Roman,serif" font-size="10.00">intPath</text>
<polygon fill="none" stroke="black" points="1111,-389 1111,-423 1258,-423 1258,-389 1111,-389"/>
<text text-anchor="start" x="1116" y="-411" font-family="Times New Roman,serif" font-size="10.00">serialVersionUID :long</text>
<text text-anchor="start" x="1116" y="-397" font-family="Times New Roman,serif" font-size="10.00">listeners :PropertyChangeSupport</text>
<polygon fill="none" stroke="black" points="1111,-313 1111,-389 1258,-389 1258,-313 1111,-313"/>
<text text-anchor="start" x="1116" y="-377" font-family="Times New Roman,serif" font-size="10.00">sum()</text>
<text text-anchor="start" x="1116" y="-363" font-family="Times New Roman,serif" font-size="10.00">get(String)</text>
<text text-anchor="start" x="1116" y="-349" font-family="Times New Roman,serif" font-size="10.00">set(String,Object)</text>
<text text-anchor="start" x="1116" y="-335" font-family="Times New Roman,serif" font-size="10.00">getPropertyChangeSupport()</text>
<text text-anchor="start" x="1116" y="-321" font-family="Times New Roman,serif" font-size="10.00">removeYou()</text>
</g>
<!-- Path -->
<g id="node10" class="node"><title>Path</title>
<polygon fill="none" stroke="black" points="1292,-416 1292,-433 1439,-433 1439,-416 1292,-416"/>
<text text-anchor="start" x="1356" y="-422.5" font-family="Times New Roman,serif" font-size="10.00">Path</text>
<polygon fill="none" stroke="black" points="1292,-396 1292,-416 1439,-416 1439,-396 1292,-396"/>
<text text-anchor="start" x="1297" y="-404" font-family="Times New Roman,serif" font-size="10.00">listeners :PropertyChangeSupport</text>
<polygon fill="none" stroke="black" points="1292,-320 1292,-396 1439,-396 1439,-320 1292,-320"/>
<text text-anchor="start" x="1297" y="-384" font-family="Times New Roman,serif" font-size="10.00">startWith(Student)</text>
<text text-anchor="start" x="1297" y="-370" font-family="Times New Roman,serif" font-size="10.00">get(String)</text>
<text text-anchor="start" x="1297" y="-356" font-family="Times New Roman,serif" font-size="10.00">set(String,Object)</text>
<text text-anchor="start" x="1297" y="-342" font-family="Times New Roman,serif" font-size="10.00">getPropertyChangeSupport()</text>
<text text-anchor="start" x="1297" y="-328" font-family="Times New Roman,serif" font-size="10.00">removeYou()</text>
</g>
<!-- RoomPath -->
<g id="node11" class="node"><title>RoomPath</title>
<polygon fill="none" stroke="black" points="1473,-423 1473,-440 1620,-440 1620,-423 1473,-423"/>
<text text-anchor="start" x="1525.5" y="-429.5" font-family="Times New Roman,serif" font-size="10.00">RoomPath</text>
<polygon fill="none" stroke="black" points="1473,-389 1473,-423 1620,-423 1620,-389 1473,-389"/>
<text text-anchor="start" x="1478" y="-411" font-family="Times New Roman,serif" font-size="10.00">serialVersionUID :long</text>
<text text-anchor="start" x="1478" y="-397" font-family="Times New Roman,serif" font-size="10.00">listeners :PropertyChangeSupport</text>
<polygon fill="none" stroke="black" points="1473,-313 1473,-389 1620,-389 1620,-313 1473,-313"/>
<text text-anchor="start" x="1478" y="-377" font-family="Times New Roman,serif" font-size="10.00">getCredits()</text>
<text text-anchor="start" x="1478" y="-363" font-family="Times New Roman,serif" font-size="10.00">get(String)</text>
<text text-anchor="start" x="1478" y="-349" font-family="Times New Roman,serif" font-size="10.00">set(String,Object)</text>
<text text-anchor="start" x="1478" y="-335" font-family="Times New Roman,serif" font-size="10.00">getPropertyChangeSupport()</text>
<text text-anchor="start" x="1478" y="-321" font-family="Times New Roman,serif" font-size="10.00">removeYou()</text>
</g>
<!-- StudentPath -->
<g id="node12" class="node"><title>StudentPath</title>
<polygon fill="none" stroke="black" points="1654,-444 1654,-461 1801,-461 1801,-444 1654,-444"/>
<text text-anchor="start" x="1702.5" y="-450.5" font-family="Times New Roman,serif" font-size="10.00">StudentPath</text>
<polygon fill="none" stroke="black" points="1654,-410 1654,-444 1801,-444 1801,-410 1654,-410"/>
<text text-anchor="start" x="1659" y="-432" font-family="Times New Roman,serif" font-size="10.00">serialVersionUID :long</text>
<text text-anchor="start" x="1659" y="-418" font-family="Times New Roman,serif" font-size="10.00">listeners :PropertyChangeSupport</text>
<polygon fill="none" stroke="black" points="1654,-292 1654,-410 1801,-410 1801,-292 1654,-292"/>
<text text-anchor="start" x="1659" y="-398" font-family="Times New Roman,serif" font-size="10.00">with(Student)</text>
<text text-anchor="start" x="1659" y="-384" font-family="Times New Roman,serif" font-size="10.00">getUni()</text>
<text text-anchor="start" x="1659" y="-370" font-family="Times New Roman,serif" font-size="10.00">getIn()</text>
<text text-anchor="start" x="1659" y="-356" font-family="Times New Roman,serif" font-size="10.00">getAny()</text>
<text text-anchor="start" x="1659" y="-342" font-family="Times New Roman,serif" font-size="10.00">get(String)</text>
<text text-anchor="start" x="1659" y="-328" font-family="Times New Roman,serif" font-size="10.00">set(String,Object)</text>
<text text-anchor="start" x="1659" y="-314" font-family="Times New Roman,serif" font-size="10.00">getPropertyChangeSupport()</text>
<text text-anchor="start" x="1659" y="-300" font-family="Times New Roman,serif" font-size="10.00">removeYou()</text>
</g>
<!-- UniversityPath -->
<g id="node13" class="node"><title>UniversityPath</title>
<polygon fill="none" stroke="black" points="1835,-423 1835,-440 1982,-440 1982,-423 1835,-423"/>
<text text-anchor="start" x="1878" y="-429.5" font-family="Times New Roman,serif" font-size="10.00">UniversityPath</text>
<polygon fill="none" stroke="black" points="1835,-389 1835,-423 1982,-423 1982,-389 1835,-389"/>
<text text-anchor="start" x="1840" y="-411" font-family="Times New Roman,serif" font-size="10.00">serialVersionUID :long</text>
<text text-anchor="start" x="1840" y="-397" font-family="Times New Roman,serif" font-size="10.00">listeners :PropertyChangeSupport</text>
<polygon fill="none" stroke="black" points="1835,-313 1835,-389 1982,-389 1982,-313 1835,-313"/>
<text text-anchor="start" x="1840" y="-377" font-family="Times New Roman,serif" font-size="10.00">getRooms()</text>
<text text-anchor="start" x="1840" y="-363" font-family="Times New Roman,serif" font-size="10.00">get(String)</text>
<text text-anchor="start" x="1840" y="-349" font-family="Times New Roman,serif" font-size="10.00">set(String,Object)</text>
<text text-anchor="start" x="1840" y="-335" font-family="Times New Roman,serif" font-size="10.00">getPropertyChangeSupport()</text>
<text text-anchor="start" x="1840" y="-321" font-family="Times New Roman,serif" font-size="10.00">removeYou()</text>
</g>
</g>
</svg>
