<?xml version="1.0" encoding="UTF-8" standalone="no"?>
<!DOCTYPE svg PUBLIC "-//W3C//DTD SVG 1.1//EN"
 "http://www.w3.org/Graphics/SVG/1.1/DTD/svg11.dtd">
<!-- Generated by graphviz version 2.28.0 (20110507.0327)
 -->
<!-- Title: ClassDiagram Pages: 1 -->
<svg width="500pt" height="524pt"
 viewBox="0.00 0.00 500.00 524.00" xmlns="http://www.w3.org/2000/svg" xmlns:xlink="http://www.w3.org/1999/xlink">
<g id="graph1" class="graph" transform="scale(1 1) rotate(0) translate(4 520)">
<title>ClassDiagram</title>
<polygon fill="white" stroke="white" points="-4,5 -4,-520 497,-520 497,5 -4,5"/>
<!-- Lecture -->
<g id="node1" class="node"><title>Lecture</title>
<polygon fill="none" stroke="black" points="160,-304 160,-321 218,-321 218,-304 160,-304"/>
<text text-anchor="start" x="173.5" y="-310.5" font-family="Times New Roman,serif" font-size="10.00">Lecture</text>
<polygon fill="none" stroke="black" points="160,-284 160,-304 218,-304 218,-284 160,-284"/>
<text text-anchor="start" x="165" y="-292" font-family="Times New Roman,serif" font-size="10.00">Title :String</text>
<polygon fill="none" stroke="black" points="160,-264 160,-284 218,-284 218,-264 160,-264"/>
<text text-anchor="start" x="187.5" y="-272" font-family="Times New Roman,serif" font-size="10.00"> </text>
</g>
<!-- Room -->
<g id="node3" class="node"><title>Room</title>
<polygon fill="none" stroke="black" points="159,-174 159,-191 232,-191 232,-174 159,-174"/>
<text text-anchor="start" x="183.5" y="-180.5" font-family="Times New Roman,serif" font-size="10.00">Room</text>
<polygon fill="none" stroke="black" points="159,-140 159,-174 232,-174 232,-140 159,-140"/>
<text text-anchor="start" x="164" y="-162" font-family="Times New Roman,serif" font-size="10.00">roomNo :String</text>
<text text-anchor="start" x="164" y="-148" font-family="Times New Roman,serif" font-size="10.00">credits :int</text>
<polygon fill="none" stroke="black" points="159,-120 159,-140 232,-140 232,-120 159,-120"/>
<text text-anchor="start" x="164" y="-128" font-family="Times New Roman,serif" font-size="10.00">studentCount()</text>
</g>
<!-- Lecture&#45;&gt;Room -->
<g id="edge12" class="edge"><title>Lecture&#45;&gt;Room</title>
<path fill="none" stroke="black" d="M190.407,-260.348C191.266,-241.021 192.37,-216.169 193.281,-195.68"/>
<text text-anchor="middle" x="197.101" y="-202.422" font-family="Times New Roman,serif" font-size="10.00">in</text>
<text text-anchor="middle" x="186.587" y="-248.607" font-family="Times New Roman,serif" font-size="10.00">lecture</text>
</g>
<!-- Professor -->
<g id="node8" class="node"><title>Professor</title>
<polygon fill="none" stroke="black" points="284,-167 284,-184 338,-184 338,-167 284,-167"/>
<text text-anchor="start" x="291.5" y="-173.5" font-family="Times New Roman,serif" font-size="10.00">Professor</text>
<polygon fill="none" stroke="black" points="284,-147 284,-167 338,-167 338,-147 284,-147"/>
<text text-anchor="start" x="289" y="-155" font-family="Times New Roman,serif" font-size="10.00">PersNr :int</text>
<polygon fill="none" stroke="black" points="284,-127 284,-147 338,-147 338,-127 284,-127"/>
<text text-anchor="start" x="309.5" y="-135" font-family="Times New Roman,serif" font-size="10.00"> </text>
</g>
<!-- Lecture&#45;&gt;Professor -->
<g id="edge16" class="edge"><title>Lecture&#45;&gt;Professor</title>
<path fill="none" stroke="black" d="M219.36,-260.411C233.686,-245.317 250.911,-226.896 266,-210 272.111,-203.158 278.559,-195.707 284.606,-188.612"/>
<text text-anchor="middle" x="281.936" y="-195.749" font-family="Times New Roman,serif" font-size="10.00">has</text>
<text text-anchor="middle" x="222.525" y="-248.425" font-family="Times New Roman,serif" font-size="10.00">lecture</text>
</g>
<!-- Student -->
<g id="node9" class="node"><title>Student</title>
<polygon fill="none" stroke="black" points="8,-188 8,-205 125,-205 125,-188 8,-188"/>
<text text-anchor="start" x="50.5" y="-194.5" font-family="Times New Roman,serif" font-size="10.00">Student</text>
<polygon fill="none" stroke="black" points="8,-154 8,-188 125,-188 125,-154 8,-154"/>
<text text-anchor="start" x="13" y="-176" font-family="Times New Roman,serif" font-size="10.00">name :String</text>
<text text-anchor="start" x="13" y="-162" font-family="Times New Roman,serif" font-size="10.00">matrNo :int</text>
<polygon fill="none" stroke="black" points="8,-106 8,-154 125,-154 125,-106 8,-106"/>
<text text-anchor="start" x="13" y="-142" font-family="Times New Roman,serif" font-size="10.00">findMyPosition()</text>
<text text-anchor="start" x="13" y="-128" font-family="Times New Roman,serif" font-size="10.00">findMyPosition(String)</text>
<text text-anchor="start" x="13" y="-114" font-family="Times New Roman,serif" font-size="10.00">findMyPosition(String,int)</text>
</g>
<!-- Lecture&#45;&gt;Student -->
<g id="edge18" class="edge"><title>Lecture&#45;&gt;Student</title>
<path fill="none" stroke="black" d="M160.162,-260.348C146.387,-245.229 129.532,-226.73 113.909,-209.583"/>
<text text-anchor="middle" x="123.136" y="-210.936" font-family="Times New Roman,serif" font-size="10.00">listen</text>
<text text-anchor="middle" x="150.934" y="-253.995" font-family="Times New Roman,serif" font-size="10.00">lecture</text>
</g>
<!-- Person -->
<g id="node2" class="node"><title>Person</title>
<polygon fill="black" stroke="black" points="138.5,-380.5 138.5,-511.5 139.5,-511.5 139.5,-380.5 138.5,-380.5"/>
<polygon fill="black" stroke="black" points="138.5,-511.5 138.5,-510.5 259.5,-510.5 259.5,-511.5 138.5,-511.5"/>
<polygon fill="black" stroke="black" points="259.5,-511.5 259.5,-380.5 258.5,-380.5 258.5,-511.5 259.5,-511.5"/>
<polygon fill="black" stroke="black" points="259.5,-380.5 259.5,-381.5 138.5,-381.5 138.5,-380.5 259.5,-380.5"/>
<polygon fill="none" stroke="black" points="141,-492 141,-509 258,-509 258,-492 141,-492"/>
<text text-anchor="start" x="185.5" y="-498.5" font-family="Times New Roman,serif" font-size="10.00">Person</text>
<polygon fill="none" stroke="black" points="141,-472 141,-492 258,-492 258,-472 141,-472"/>
<text text-anchor="start" x="198" y="-480" font-family="Times New Roman,serif" font-size="10.00"> </text>
<polygon fill="none" stroke="black" points="141,-382 141,-472 258,-472 258,-382 141,-382"/>
<text text-anchor="start" x="146" y="-460" font-family="Times New Roman,serif" font-size="10.00">findMyPosition()</text>
<text text-anchor="start" x="146" y="-446" font-family="Times New Roman,serif" font-size="10.00">findMyPosition(String)</text>
<text text-anchor="start" x="146" y="-432" font-family="Times New Roman,serif" font-size="10.00">findMyPosition(String,int)</text>
<text text-anchor="start" x="146" y="-418" font-family="Times New Roman,serif" font-size="10.00">getName()</text>
<text text-anchor="start" x="146" y="-404" font-family="Times New Roman,serif" font-size="10.00">setName(String)</text>
<text text-anchor="start" x="146" y="-390" font-family="Times New Roman,serif" font-size="10.00">withName(String)</text>
</g>
<!-- Female -->
<g id="node6" class="node"><title>Female</title>
<polygon fill="none" stroke="black" points="253,-318 253,-335 370,-335 370,-318 253,-318"/>
<text text-anchor="start" x="297.5" y="-324.5" font-family="Times New Roman,serif" font-size="10.00">Female</text>
<polygon fill="none" stroke="black" points="253,-298 253,-318 370,-318 370,-298 253,-298"/>
<text text-anchor="start" x="258" y="-306" font-family="Times New Roman,serif" font-size="10.00">name :String</text>
<polygon fill="none" stroke="black" points="253,-250 253,-298 370,-298 370,-250 253,-250"/>
<text text-anchor="start" x="258" y="-286" font-family="Times New Roman,serif" font-size="10.00">findMyPosition()</text>
<text text-anchor="start" x="258" y="-272" font-family="Times New Roman,serif" font-size="10.00">findMyPosition(String)</text>
<text text-anchor="start" x="258" y="-258" font-family="Times New Roman,serif" font-size="10.00">findMyPosition(String,int)</text>
</g>
<!-- Person&#45;&gt;Female -->
<g id="edge4" class="edge"><title>Person&#45;&gt;Female</title>
<path fill="none" stroke="black" d="M256.081,-368.043C263.226,-358.41 270.347,-348.809 276.979,-339.867"/>
<polygon fill="black" stroke="black" points="253.23,-366.011 250.084,-376.128 258.852,-370.181 253.23,-366.011"/>
</g>
<!-- Male -->
<g id="node7" class="node"><title>Male</title>
<polygon fill="black" stroke="black" points="71,-262.5 71,-323.5 72,-323.5 72,-262.5 71,-262.5"/>
<polygon fill="black" stroke="black" points="71,-323.5 71,-322.5 103,-322.5 103,-323.5 71,-323.5"/>
<polygon fill="black" stroke="black" points="103,-323.5 103,-262.5 102,-262.5 102,-323.5 103,-323.5"/>
<polygon fill="black" stroke="black" points="103,-262.5 103,-263.5 71,-263.5 71,-262.5 103,-262.5"/>
<polygon fill="none" stroke="black" points="73,-304 73,-321 101,-321 101,-304 73,-304"/>
<text text-anchor="start" x="76.5" y="-310.5" font-family="Times New Roman,serif" font-size="10.00">Male</text>
<polygon fill="none" stroke="black" points="73,-284 73,-304 101,-304 101,-284 73,-284"/>
<text text-anchor="start" x="85.5" y="-292" font-family="Times New Roman,serif" font-size="10.00"> </text>
<polygon fill="none" stroke="black" points="73,-264 73,-284 101,-284 101,-264 73,-264"/>
<text text-anchor="start" x="85.5" y="-272" font-family="Times New Roman,serif" font-size="10.00"> </text>
</g>
<!-- Person&#45;&gt;Male -->
<g id="edge6" class="edge"><title>Person&#45;&gt;Male</title>
<path fill="none" stroke="black" d="M141.767,-367.838C131.316,-353.748 120.923,-339.735 112.043,-327.764"/>
<polygon fill="black" stroke="black" points="139.148,-370.181 147.916,-376.128 144.77,-366.011 139.148,-370.181"/>
</g>
<!-- Room&#45;&gt;Room -->
<g id="edge10" class="edge"><title>Room&#45;&gt;Room</title>
<path fill="none" stroke="black" d="M239.306,-178.371C249.507,-176.443 257,-168.986 257,-156 257,-143.014 249.507,-135.557 239.306,-133.629"/>
<text text-anchor="middle" x="249.124" y="-129.229" font-family="Times New Roman,serif" font-size="10.00">neighbors</text>
<text text-anchor="middle" x="247.072" y="-169.571" font-family="Times New Roman,serif" font-size="10.00">neighbors</text>
</g>
<!-- University -->
<g id="node4" class="node"><title>University</title>
<polygon fill="none" stroke="black" points="165,-44 165,-61 226,-61 226,-44 165,-44"/>
<text text-anchor="start" x="174" y="-50.5" font-family="Times New Roman,serif" font-size="10.00">University</text>
<polygon fill="none" stroke="black" points="165,-24 165,-44 226,-44 226,-24 165,-24"/>
<text text-anchor="start" x="170" y="-32" font-family="Times New Roman,serif" font-size="10.00">name :String</text>
<polygon fill="none" stroke="black" points="165,-4 165,-24 226,-24 226,-4 165,-4"/>
<text text-anchor="start" x="194" y="-12" font-family="Times New Roman,serif" font-size="10.00"> </text>
</g>
<!-- Room&#45;&gt;University -->
<g id="edge14" class="edge"><title>Room&#45;&gt;University</title>
<path fill="none" stroke="black" d="M195,-116.382C195,-100.06 195,-81.2813 195,-65.779"/>
<text text-anchor="middle" x="199.226" y="-72.342" font-family="Times New Roman,serif" font-size="10.00">uni</text>
<text text-anchor="middle" x="190.774" y="-104.819" font-family="Times New Roman,serif" font-size="10.00">rooms</text>
</g>
<!-- StudyRightClassesCodeGen -->
<g id="node5" class="node"><title>StudyRightClassesCodeGen</title>
<polygon fill="none" stroke="black" points="294,-485 294,-502 484,-502 484,-485 294,-485"/>
<text text-anchor="start" x="332" y="-491.5" font-family="Times New Roman,serif" font-size="10.00">StudyRightClassesCodeGen</text>
<polygon fill="none" stroke="black" points="294,-465 294,-485 484,-485 484,-465 294,-465"/>
<text text-anchor="start" x="387.5" y="-473" font-family="Times New Roman,serif" font-size="10.00"> </text>
<polygon fill="none" stroke="black" points="294,-389 294,-465 484,-465 484,-389 294,-389"/>
<text text-anchor="start" x="299" y="-453" font-family="Times New Roman,serif" font-size="10.00">testStudyRightOneToOneAssoc()</text>
<text text-anchor="start" x="299" y="-439" font-family="Times New Roman,serif" font-size="10.00">testStudyRightClassesCodeGen()</text>
<text text-anchor="start" x="299" y="-425" font-family="Times New Roman,serif" font-size="10.00">testStudyRightObjectScenarios()</text>
<text text-anchor="start" x="299" y="-411" font-family="Times New Roman,serif" font-size="10.00">testStudyRightExtendsReverseClassModel()</text>
<text text-anchor="start" x="299" y="-397" font-family="Times New Roman,serif" font-size="10.00">testStudyRightReverseClassModel()</text>
</g>
<!-- Female&#45;&gt;Professor -->
<g id="edge2" class="edge"><title>Female&#45;&gt;Professor</title>
<path fill="none" stroke="black" d="M311,-235.86C311,-219.724 311,-202.696 311,-188.609"/>
<polygon fill="black" stroke="black" points="307.5,-236.295 311,-246.295 314.5,-236.295 307.5,-236.295"/>
</g>
<!-- Male&#45;&gt;Student -->
<g id="edge8" class="edge"><title>Male&#45;&gt;Student</title>
<path fill="none" stroke="black" d="M80.1987,-248.277C78.2854,-235.977 76.1842,-222.47 74.1986,-209.705"/>
<polygon fill="black" stroke="black" points="76.7594,-248.939 81.755,-258.282 83.6762,-247.863 76.7594,-248.939"/>
</g>
</g>
</svg>
