<?xml version="1.0" encoding="UTF-8" standalone="no"?>
<!DOCTYPE svg PUBLIC "-//W3C//DTD SVG 1.1//EN"
 "http://www.w3.org/Graphics/SVG/1.1/DTD/svg11.dtd">
<!-- Generated by graphviz version 2.28.0 (20110507.0327)
 -->
<!-- Title: ClassDiagram Pages: 1 -->
<svg width="281pt" height="306pt"
 viewBox="0.00 0.00 281.38 306.00" xmlns="http://www.w3.org/2000/svg" xmlns:xlink="http://www.w3.org/1999/xlink">
<g id="graph1" class="graph" transform="scale(1 1) rotate(0) translate(4 302)">
<title>ClassDiagram</title>
<polygon fill="white" stroke="white" points="-4,5 -4,-302 278.375,-302 278.375,5 -4,5"/>
<!-- _Professor -->
<g id="node1" class="node"><title>_Professor</title>
<a xlink:href="../examples/org/sdmlib/examples/studyright/Professor.java" xlink:title="&lt;TABLE&gt;">
<polygon fill="none" stroke="black" points="8,-269 8,-286 75,-286 75,-269 8,-269"/>
<text text-anchor="start" x="20.5" y="-275.5" font-family="Arial" font-size="10.00">Professor</text>
</a>
<polygon fill="none" stroke="black" points="8,-249 8,-269 75,-269 75,-249 8,-249"/>
<text text-anchor="start" x="13" y="-257" font-family="Arial" font-size="10.00">name :String</text>
<polygon fill="none" stroke="black" points="8,-229 8,-249 75,-249 75,-229 8,-229"/>
<text text-anchor="start" x="39.5" y="-237" font-family="Arial" font-size="10.00"> </text>
</g>
<!-- _Topic -->
<g id="node2" class="node"><title>_Topic</title>
<a xlink:href="../examples/org/sdmlib/examples/studyright/Topic.java" xlink:title="&lt;TABLE&gt;">
<polygon fill="none" stroke="black" points="12,-153 12,-170 71,-170 71,-153 12,-153"/>
<text text-anchor="start" x="29.5" y="-159.5" font-family="Arial" font-size="10.00">Topic</text>
</a>
<polygon fill="none" stroke="black" points="12,-133 12,-153 71,-153 71,-133 12,-133"/>
<text text-anchor="start" x="17" y="-141" font-family="Arial" font-size="10.00">title :String</text>
<polygon fill="none" stroke="black" points="12,-113 12,-133 71,-133 71,-113 12,-113"/>
<text text-anchor="start" x="39.5" y="-121" font-family="Arial" font-size="10.00"> </text>
</g>
<!-- _Professor&#45;&gt;_Topic -->
<g id="edge2" class="edge"><title>_Professor&#45;&gt;_Topic</title>
<path fill="none" stroke="black" d="M41,-225.245C41,-209.433 41,-190.373 41,-174.585"/>
<text text-anchor="middle" x="45.2262" y="-181.148" font-family="Arial" font-size="10.00">topic</text>
<text text-anchor="middle" x="36.7738" y="-213.682" font-family="Arial" font-size="10.00">prof</text>
</g>
<!-- _Room -->
<g id="node3" class="node"><title>_Room</title>
<a xlink:href="../examples/org/sdmlib/examples/studyright/Room.java" xlink:title="&lt;TABLE&gt;">
<polygon fill="none" stroke="black" points="139,-276 139,-293 231,-293 231,-276 139,-276"/>
<text text-anchor="start" x="172" y="-282.5" font-family="Arial" font-size="10.00">Room</text>
</a>
<polygon fill="none" stroke="black" points="139,-242 139,-276 231,-276 231,-242 139,-242"/>
<text text-anchor="start" x="144" y="-264" font-family="Arial" font-size="10.00">roomNo :String</text>
<text text-anchor="start" x="144" y="-250" font-family="Arial" font-size="10.00">credits :int</text>
<polygon fill="none" stroke="black" points="139,-222 139,-242 231,-242 231,-222 139,-222"/>
<text text-anchor="start" x="144" y="-230" font-family="Arial" font-size="10.00">findPath(String,int)</text>
</g>
<!-- _Room&#45;&gt;_Room -->
<g id="edge4" class="edge"><title>_Room&#45;&gt;_Room</title>
<path fill="none" stroke="black" d="M239.007,-278.782C249.529,-276.369 257,-269.441 257,-258 257,-246.559 249.529,-239.631 239.007,-237.218"/>
<text text-anchor="middle" x="248.875" y="-233.099" font-family="Arial" font-size="10.00">neighbors *</text>
<text text-anchor="middle" x="246.59" y="-269.763" font-family="Arial" font-size="10.00">neighbors *</text>
</g>
<!-- _Student -->
<g id="node4" class="node"><title>_Student</title>
<a xlink:href="../examples/org/sdmlib/examples/studyright/Student.java" xlink:title="&lt;TABLE&gt;">
<polygon fill="none" stroke="black" points="113,-160 113,-177 180,-177 180,-160 113,-160"/>
<text text-anchor="start" x="129.5" y="-166.5" font-family="Arial" font-size="10.00">Student</text>
</a>
<polygon fill="none" stroke="black" points="113,-126 113,-160 180,-160 180,-126 113,-126"/>
<text text-anchor="start" x="118" y="-148" font-family="Arial" font-size="10.00">name :String</text>
<text text-anchor="start" x="118" y="-134" font-family="Arial" font-size="10.00">matrNo :int</text>
<polygon fill="none" stroke="black" points="113,-106 113,-126 180,-126 180,-106 113,-106"/>
<text text-anchor="start" x="144.5" y="-114" font-family="Arial" font-size="10.00"> </text>
</g>
<!-- _Room&#45;&gt;_Student -->
<g id="edge6" class="edge"><title>_Room&#45;&gt;_Student</title>
<path fill="none" stroke="black" d="M171.796,-218.405C167.73,-206.519 163.255,-193.438 159.19,-181.555"/>
<text text-anchor="middle" x="166.122" y="-186.263" font-family="Arial" font-size="10.00">students *</text>
<text text-anchor="middle" x="164.864" y="-208.698" font-family="Arial" font-size="10.00">in</text>
</g>
<!-- _University -->
<g id="node5" class="node"><title>_University</title>
<a xlink:href="../examples/org/sdmlib/examples/studyright/University.java" xlink:title="&lt;TABLE&gt;">
<polygon fill="none" stroke="black" points="148,-44 148,-61 215,-61 215,-44 148,-44"/>
<text text-anchor="start" x="160" y="-50.5" font-family="Arial" font-size="10.00">University</text>
</a>
<polygon fill="none" stroke="black" points="148,-24 148,-44 215,-44 215,-24 148,-24"/>
<text text-anchor="start" x="153" y="-32" font-family="Arial" font-size="10.00">name :String</text>
<polygon fill="none" stroke="black" points="148,-4 148,-24 215,-24 215,-4 148,-4"/>
<text text-anchor="start" x="179.5" y="-12" font-family="Arial" font-size="10.00"> </text>
</g>
<!-- _Room&#45;&gt;_University -->
<g id="edge8" class="edge"><title>_Room&#45;&gt;_University</title>
<path fill="none" stroke="black" d="M191.79,-218.192C193.523,-206.589 195.138,-193.813 196,-182 198.587,-146.539 199.852,-137.346 196,-102 194.69,-89.9818 192.115,-76.9768 189.463,-65.5899"/>
<text text-anchor="middle" x="195.604" y="-70.9819" font-family="Arial" font-size="10.00">uni</text>
<text text-anchor="middle" x="188.925" y="-206.111" font-family="Arial" font-size="10.00">rooms *</text>
</g>
<!-- _Student&#45;&gt;_University -->
<g id="edge10" class="edge"><title>_Student&#45;&gt;_University</title>
<path fill="none" stroke="black" d="M158.636,-102.371C162.591,-90.2786 166.907,-77.0858 170.682,-65.5428"/>
<text text-anchor="middle" x="171.881" y="-72.9707" font-family="Arial" font-size="10.00">uni</text>
<text text-anchor="middle" x="157.437" y="-89.9427" font-family="Arial" font-size="10.00">students *</text>
</g>
</g>
</svg>
