<?xml version="1.0" encoding="UTF-8" standalone="no"?>
<!DOCTYPE svg PUBLIC "-//W3C//DTD SVG 1.1//EN"
 "http://www.w3.org/Graphics/SVG/1.1/DTD/svg11.dtd">
<!-- Generated by graphviz version 2.28.0 (20110507.0327)
 -->
<!-- Title: ObjectDiagram Pages: 1 -->
<svg width="225pt" height="218pt"
 viewBox="0.00 0.00 225.00 218.00" xmlns="http://www.w3.org/2000/svg" xmlns:xlink="http://www.w3.org/1999/xlink">
<g id="graph1" class="graph" transform="scale(1 1) rotate(0) translate(4 214)">
<title>ObjectDiagram</title>
<polygon fill="white" stroke="white" points="-4,5 -4,-214 222,-214 222,5 -4,5"/>
<!-- r1 -->
<g id="node1" class="node"><title>r1</title>
<polygon fill="deepskyblue" stroke="deepskyblue" points="56,-168.5 56,-205.5 128,-205.5 128,-168.5 56,-168.5"/>
<polygon fill="none" stroke="black" points="56,-188 56,-205 128,-205 128,-188 56,-188"/>
<text text-anchor="start" x="59.5" y="-194.5" font-family="Arial" font-size="10.00"> </text>
<text text-anchor="start" x="63.5" y="-194.5" font-family="Arial" font-size="10.00"> r1 :RoomPO </text>
<polygon fill="none" stroke="black" points="56,-168 56,-188 128,-188 128,-168 56,-168"/>
<text text-anchor="start" x="88.5" y="-176" font-family="Arial" font-size="10.00"> &#160;</text>
</g>
<!-- allMatches_r1 -->
<g id="node2" class="node"><title>allMatches_r1</title>
<text text-anchor="middle" x="32" y="-102.5" font-family="Arial" font-size="10.00">allMatches</text>
</g>
<!-- r1&#45;&#45;allMatches_r1 -->
<g id="edge2" class="edge"><title>r1&#45;&#45;allMatches_r1</title>
<path fill="none" stroke="black" stroke-dasharray="1,5" d="M75.6047,-164.14C65.8896,-151.186 53.7594,-135.013 44.7612,-123.015"/>
</g>
<!-- s2 -->
<g id="node3" class="node"><title>s2</title>
<polygon fill="deepskyblue" stroke="deepskyblue" points="89,-4.5 89,-41.5 171,-41.5 171,-4.5 89,-4.5"/>
<polygon fill="none" stroke="black" points="89,-24 89,-41 171,-41 171,-24 89,-24"/>
<text text-anchor="start" x="92.5" y="-30.5" font-family="Arial" font-size="10.00"> </text>
<text text-anchor="start" x="96.5" y="-30.5" font-family="Arial" font-size="10.00"> s2 :StudentPO </text>
<polygon fill="none" stroke="black" points="89,-4 89,-24 171,-24 171,-4 89,-4"/>
<text text-anchor="start" x="126.5" y="-12" font-family="Arial" font-size="10.00"> &#160;</text>
</g>
<!-- r1&#45;&#45;s2 -->
<g id="edge4" class="edge"><title>r1&#45;&#45;s2</title>
<path fill="none" stroke="black" d="M95.4453,-164.335C98.9769,-143.191 104.941,-110.18 112,-82 115.049,-69.8296 119.153,-56.4413 122.672,-45.5971"/>
<text text-anchor="middle" x="123.915" y="-53.0195" font-family="Arial" font-size="10.00">students</text>
</g>
<!-- s3 -->
<g id="node4" class="node"><title>s3</title>
<polygon fill="deepskyblue" stroke="deepskyblue" points="128.5,-86.5 128.5,-123.5 209.5,-123.5 209.5,-86.5 128.5,-86.5"/>
<polygon fill="none" stroke="black" points="129,-106 129,-123 210,-123 210,-106 129,-106"/>
<text text-anchor="start" x="139" y="-112.5" font-family="Arial" font-size="10.00"> </text>
<text text-anchor="start" x="143" y="-112.5" font-family="Arial" font-size="10.00"> s3 :StudentPO </text>
<polygon fill="none" stroke="black" points="129,-86 129,-106 210,-106 210,-86 129,-86"/>
<text text-anchor="start" x="134.5" y="-94" font-family="Arial" font-size="10.00"> motivation in 0..50 </text>
</g>
<!-- r1&#45;&#45;s3 -->
<g id="edge6" class="edge"><title>r1&#45;&#45;s3</title>
<path fill="none" stroke="black" d="M113.041,-164.14C123.994,-152.759 137.341,-138.893 148.251,-127.557"/>
<text text-anchor="middle" x="145.011" y="-134.517" font-family="Arial" font-size="10.00">students</text>
</g>
<!-- s3&#45;&#45;s2 -->
<g id="edge8" class="edge"><title>s3&#45;&#45;s2</title>
<path fill="none" stroke="black" d="M158.343,-82.1396C152.795,-70.759 146.035,-56.8929 140.509,-45.5569"/>
<text text-anchor="middle" x="148.279" y="-49.3516" font-family="Arial" font-size="10.00">friends</text>
</g>
</g>
</svg>
