<?xml version="1.0" encoding="UTF-8" standalone="no"?>
<!DOCTYPE svg PUBLIC "-//W3C//DTD SVG 1.1//EN"
 "http://www.w3.org/Graphics/SVG/1.1/DTD/svg11.dtd">
<!-- Generated by graphviz version 2.28.0 (20110507.0327)
 -->
<!-- Title: ClassDiagram Pages: 1 -->
<svg width="231pt" height="130pt"
 viewBox="0.00 0.00 231.00 130.00" xmlns="http://www.w3.org/2000/svg" xmlns:xlink="http://www.w3.org/1999/xlink">
<g id="graph1" class="graph" transform="scale(1 1) rotate(0) translate(4 126)">
<title>ClassDiagram</title>
<polygon fill="white" stroke="white" points="-4,5 -4,-126 228,-126 228,5 -4,5"/>
<!-- _University -->
<g id="node1" class="node"><title>_University</title>
<a xlink:href="../examples/org/sdmlib/examples/studyrightWithAssignments/University.java" xlink:title="&lt;TABLE&gt;">
<polygon fill="none" stroke="black" points="8,-72 8,-89 75,-89 75,-72 8,-72"/>
<text text-anchor="start" x="20" y="-78.5" font-family="Arial" font-size="10.00">University</text>
</a>
<polygon fill="none" stroke="black" points="8,-52 8,-72 75,-72 75,-52 8,-52"/>
<text text-anchor="start" x="13" y="-60" font-family="Arial" font-size="10.00">name :String</text>
<polygon fill="none" stroke="black" points="8,-32 8,-52 75,-52 75,-32 8,-32"/>
<text text-anchor="start" x="39.5" y="-40" font-family="Arial" font-size="10.00"> </text>
</g>
<!-- _Student -->
<g id="node2" class="node"><title>_Student</title>
<a xlink:href="../examples/org/sdmlib/examples/studyrightWithAssignments/Student.java" xlink:title="&lt;TABLE&gt;">
<polygon fill="none" stroke="black" points="109,-100 109,-117 215,-117 215,-100 109,-100"/>
<text text-anchor="start" x="145" y="-106.5" font-family="Arial" font-size="10.00">Student</text>
</a>
<polygon fill="none" stroke="black" points="109,-24 109,-100 215,-100 215,-24 109,-24"/>
<text text-anchor="start" x="114" y="-88" font-family="Arial" font-size="10.00">name :String</text>
<text text-anchor="start" x="114" y="-74" font-family="Arial" font-size="10.00">id :String</text>
<text text-anchor="start" x="114" y="-60" font-family="Arial" font-size="10.00">assignmentPoints :int</text>
<text text-anchor="start" x="114" y="-46" font-family="Arial" font-size="10.00">motivation :int</text>
<text text-anchor="start" x="114" y="-32" font-family="Arial" font-size="10.00">credits :int</text>
<polygon fill="none" stroke="black" points="109,-4 109,-24 215,-24 215,-4 109,-4"/>
<text text-anchor="start" x="160" y="-12" font-family="Arial" font-size="10.00"> </text>
</g>
</g>
</svg>
