<?xml version="1.0" encoding="UTF-8" standalone="no"?>
<!DOCTYPE svg PUBLIC "-//W3C//DTD SVG 1.1//EN"
 "http://www.w3.org/Graphics/SVG/1.1/DTD/svg11.dtd">
<!-- Generated by graphviz version 2.28.0 (20110507.0327)
 -->
<!-- Title: ClassDiagram Pages: 1 -->
<svg width="267pt" height="306pt"
 viewBox="0.00 0.00 266.57 306.00" xmlns="http://www.w3.org/2000/svg" xmlns:xlink="http://www.w3.org/1999/xlink">
<g id="graph1" class="graph" transform="scale(1 1) rotate(0) translate(4 302)">
<title>ClassDiagram</title>
<polygon fill="white" stroke="white" points="-4,5 -4,-302 263.567,-302 263.567,5 -4,5"/>
<!-- _Professor -->
<g id="node1" class="node"><title>_Professor</title>
<a xlink:href="../examples/org/sdmlib/examples/studyright/Professor.java" xlink:title="&lt;TABLE&gt;">
<polygon fill="none" stroke="black" points="8,-269 8,-286 69,-286 69,-269 8,-269"/>
<text text-anchor="start" x="19" y="-275.5" font-family="Times New Roman,serif" font-size="10.00">Professor</text>
</a>
<polygon fill="none" stroke="black" points="8,-249 8,-269 69,-269 69,-249 8,-249"/>
<text text-anchor="start" x="13" y="-257" font-family="Times New Roman,serif" font-size="10.00">name :String</text>
<polygon fill="none" stroke="black" points="8,-229 8,-249 69,-249 69,-229 8,-229"/>
<text text-anchor="start" x="37" y="-237" font-family="Times New Roman,serif" font-size="10.00"> </text>
</g>
<!-- _Topic -->
<g id="node2" class="node"><title>_Topic</title>
<a xlink:href="../examples/org/sdmlib/examples/studyright/Topic.java" xlink:title="&lt;TABLE&gt;">
<polygon fill="none" stroke="black" points="11,-153 11,-170 66,-170 66,-153 11,-153"/>
<text text-anchor="start" x="26.5" y="-159.5" font-family="Times New Roman,serif" font-size="10.00">Topic</text>
</a>
<polygon fill="none" stroke="black" points="11,-133 11,-153 66,-153 66,-133 11,-133"/>
<text text-anchor="start" x="16" y="-141" font-family="Times New Roman,serif" font-size="10.00">title :String</text>
<polygon fill="none" stroke="black" points="11,-113 11,-133 66,-133 66,-113 11,-113"/>
<text text-anchor="start" x="37" y="-121" font-family="Times New Roman,serif" font-size="10.00"> </text>
</g>
<!-- _Professor&#45;&gt;_Topic -->
<g id="edge2" class="edge"><title>_Professor&#45;&gt;_Topic</title>
<path fill="none" stroke="black" d="M38,-225.245C38,-209.433 38,-190.373 38,-174.585"/>
<text text-anchor="middle" x="42.2262" y="-181.148" font-family="Times New Roman,serif" font-size="10.00">topic</text>
<text text-anchor="middle" x="33.7738" y="-213.682" font-family="Times New Roman,serif" font-size="10.00">prof</text>
</g>
<!-- _Room -->
<g id="node3" class="node"><title>_Room</title>
<a xlink:href="../examples/org/sdmlib/examples/studyright/Room.java" xlink:title="&lt;TABLE&gt;">
<polygon fill="none" stroke="black" points="132,-276 132,-293 220,-293 220,-276 132,-276"/>
<text text-anchor="start" x="164" y="-282.5" font-family="Times New Roman,serif" font-size="10.00">Room</text>
</a>
<polygon fill="none" stroke="black" points="132,-242 132,-276 220,-276 220,-242 132,-242"/>
<text text-anchor="start" x="137" y="-264" font-family="Times New Roman,serif" font-size="10.00">roomNo :String</text>
<text text-anchor="start" x="137" y="-250" font-family="Times New Roman,serif" font-size="10.00">credits :int</text>
<polygon fill="none" stroke="black" points="132,-222 132,-242 220,-242 220,-222 132,-222"/>
<text text-anchor="start" x="137" y="-230" font-family="Times New Roman,serif" font-size="10.00">findPath(String,int)</text>
</g>
<!-- _Room&#45;&gt;_Room -->
<g id="edge4" class="edge"><title>_Room&#45;&gt;_Room</title>
<path fill="none" stroke="black" d="M228.202,-278.853C238.592,-276.506 246,-269.555 246,-258 246,-246.445 238.592,-239.494 228.202,-237.147"/>
<text text-anchor="middle" x="238.067" y="-233.009" font-family="Times New Roman,serif" font-size="10.00">neighbors</text>
<text text-anchor="middle" x="235.799" y="-269.849" font-family="Times New Roman,serif" font-size="10.00">neighbors</text>
</g>
<!-- _Student -->
<g id="node4" class="node"><title>_Student</title>
<a xlink:href="../examples/org/sdmlib/examples/studyright/Student.java" xlink:title="&lt;TABLE&gt;">
<polygon fill="none" stroke="black" points="108,-160 108,-177 169,-177 169,-160 108,-160"/>
<text text-anchor="start" x="122.5" y="-166.5" font-family="Times New Roman,serif" font-size="10.00">Student</text>
</a>
<polygon fill="none" stroke="black" points="108,-126 108,-160 169,-160 169,-126 108,-126"/>
<text text-anchor="start" x="113" y="-148" font-family="Times New Roman,serif" font-size="10.00">name :String</text>
<text text-anchor="start" x="113" y="-134" font-family="Times New Roman,serif" font-size="10.00">matrNo :int</text>
<polygon fill="none" stroke="black" points="108,-106 108,-126 169,-126 169,-106 108,-106"/>
<text text-anchor="start" x="137" y="-114" font-family="Times New Roman,serif" font-size="10.00"> </text>
</g>
<!-- _Room&#45;&gt;_Student -->
<g id="edge6" class="edge"><title>_Room&#45;&gt;_Student</title>
<path fill="none" stroke="black" d="M163.135,-218.405C159.173,-206.519 154.813,-193.438 150.852,-181.555"/>
<text text-anchor="middle" x="157.727" y="-186.317" font-family="Times New Roman,serif" font-size="10.00">students</text>
<text text-anchor="middle" x="156.26" y="-208.643" font-family="Times New Roman,serif" font-size="10.00">in</text>
</g>
<!-- _University -->
<g id="node5" class="node"><title>_University</title>
<a xlink:href="../examples/org/sdmlib/examples/studyright/University.java" xlink:title="&lt;TABLE&gt;">
<polygon fill="none" stroke="black" points="141,-44 141,-61 202,-61 202,-44 141,-44"/>
<text text-anchor="start" x="150" y="-50.5" font-family="Times New Roman,serif" font-size="10.00">University</text>
</a>
<polygon fill="none" stroke="black" points="141,-24 141,-44 202,-44 202,-24 141,-24"/>
<text text-anchor="start" x="146" y="-32" font-family="Times New Roman,serif" font-size="10.00">name :String</text>
<polygon fill="none" stroke="black" points="141,-4 141,-24 202,-24 202,-4 141,-4"/>
<text text-anchor="start" x="170" y="-12" font-family="Times New Roman,serif" font-size="10.00"> </text>
</g>
<!-- _Room&#45;&gt;_University -->
<g id="edge8" class="edge"><title>_Room&#45;&gt;_University</title>
<path fill="none" stroke="black" d="M181.651,-218.388C185.428,-186.984 189.029,-141.554 185,-102 183.778,-90.0089 181.375,-77.0099 178.899,-65.6201"/>
<text text-anchor="middle" x="184.925" y="-71.1007" font-family="Times New Roman,serif" font-size="10.00">uni</text>
<text text-anchor="middle" x="178.479" y="-206.405" font-family="Times New Roman,serif" font-size="10.00">rooms</text>
</g>
<!-- _Student&#45;&gt;_University -->
<g id="edge10" class="edge"><title>_Student&#45;&gt;_University</title>
<path fill="none" stroke="black" d="M149.914,-102.371C153.643,-90.2786 157.712,-77.0858 161.272,-65.5428"/>
<text text-anchor="middle" x="162.639" y="-72.9489" font-family="Times New Roman,serif" font-size="10.00">uni</text>
<text text-anchor="middle" x="148.546" y="-89.9645" font-family="Times New Roman,serif" font-size="10.00">students</text>
</g>
</g>
</svg>
