<?xml version="1.0" encoding="UTF-8" standalone="no"?>
<!DOCTYPE svg PUBLIC "-//W3C//DTD SVG 1.1//EN"
 "http://www.w3.org/Graphics/SVG/1.1/DTD/svg11.dtd">
<!-- Generated by graphviz version 2.28.0 (20110507.0327)
 -->
<!-- Title: ClassDiagram Pages: 1 -->
<svg width="153pt" height="246pt"
 viewBox="0.00 0.00 153.21 246.00" xmlns="http://www.w3.org/2000/svg" xmlns:xlink="http://www.w3.org/1999/xlink">
<g id="graph1" class="graph" transform="scale(1 1) rotate(0) translate(4 242)">
<title>ClassDiagram</title>
<polygon fill="white" stroke="white" points="-4,5 -4,-242 150.213,-242 150.213,5 -4,5"/>
<!-- University -->
<g id="node1" class="node"><title>University</title>
<polygon fill="none" stroke="black" points="41,-216 41,-233 102,-233 102,-216 41,-216"/>
<text text-anchor="start" x="50" y="-222.5" font-family="Times New Roman,serif" font-size="10.00">University</text>
<polygon fill="none" stroke="black" points="41,-196 41,-216 102,-216 102,-196 41,-196"/>
<text text-anchor="start" x="46.5" y="-204" font-family="Times New Roman,serif" font-size="10.00">name :String</text>
</g>
<!-- Student -->
<g id="node2" class="node"><title>Student</title>
<polygon fill="none" stroke="black" points="8,-134 8,-151 69,-151 69,-134 8,-134"/>
<text text-anchor="start" x="22.5" y="-140.5" font-family="Times New Roman,serif" font-size="10.00">Student</text>
<polygon fill="none" stroke="black" points="8,-100 8,-134 69,-134 69,-100 8,-100"/>
<text text-anchor="start" x="13.5" y="-122" font-family="Times New Roman,serif" font-size="10.00">name :String</text>
<text text-anchor="start" x="16" y="-108" font-family="Times New Roman,serif" font-size="10.00">matrNo :int</text>
</g>
<!-- University&#45;&#45;Student -->
<g id="edge2" class="edge"><title>University&#45;&#45;Student</title>
<path fill="none" stroke="black" d="M62.8427,-192.494C58.6437,-181.424 53.4665,-167.775 48.9269,-155.807"/>
<text text-anchor="middle" x="56.0927" y="-160.283" font-family="Times New Roman,serif" font-size="10.00">students</text>
<text text-anchor="middle" x="55.677" y="-183.019" font-family="Times New Roman,serif" font-size="10.00">uni</text>
</g>
<!-- Room -->
<g id="node3" class="node"><title>Room</title>
<polygon fill="none" stroke="black" points="35,-38 35,-55 107,-55 107,-38 35,-38"/>
<text text-anchor="start" x="59" y="-44.5" font-family="Times New Roman,serif" font-size="10.00">Room</text>
<polygon fill="none" stroke="black" points="35,-4 35,-38 107,-38 107,-4 35,-4"/>
<text text-anchor="start" x="40.5" y="-26" font-family="Times New Roman,serif" font-size="10.00">roomNo :String</text>
<text text-anchor="start" x="49.5" y="-12" font-family="Times New Roman,serif" font-size="10.00">credits :int</text>
</g>
<!-- University&#45;&#45;Room -->
<g id="edge4" class="edge"><title>University&#45;&#45;Room</title>
<path fill="none" stroke="black" d="M77.4858,-192.463C80.4161,-181.634 83.5436,-168.24 85,-156 88.1506,-129.52 87.8233,-122.517 85,-96 83.7167,-83.9474 81.131,-70.8469 78.527,-59.5857"/>
<text text-anchor="middle" x="84.6559" y="-64.9873" font-family="Times New Roman,serif" font-size="10.00">rooms</text>
<text text-anchor="middle" x="75.73" y="-180.118" font-family="Times New Roman,serif" font-size="10.00">uni</text>
</g>
<!-- Student&#45;&#45;Room -->
<g id="edge8" class="edge"><title>Student&#45;&#45;Room</title>
<path fill="none" stroke="black" d="M48.0804,-96.2861C52.1746,-84.624 56.8935,-71.1822 60.9813,-59.538"/>
<text text-anchor="middle" x="61.9668" y="-66.9893" font-family="Times New Roman,serif" font-size="10.00">in</text>
<text text-anchor="middle" x="47.0949" y="-83.8348" font-family="Times New Roman,serif" font-size="10.00">students</text>
</g>
<!-- Room&#45;&#45;Room -->
<g id="edge6" class="edge"><title>Room&#45;&#45;Room</title>
<path fill="none" stroke="black" d="M115.024,-47.644C125.369,-46.1938 133,-40.3125 133,-30 133,-19.6875 125.369,-13.8062 115.024,-12.356"/>
<text text-anchor="middle" x="124.713" y="-7.37956" font-family="Times New Roman,serif" font-size="10.00">neighbors</text>
<text text-anchor="middle" x="123.149" y="-39.314" font-family="Times New Roman,serif" font-size="10.00">neighbors</text>
</g>
</g>
</svg>
