<?xml version="1.0" encoding="UTF-8" standalone="no"?>
<!DOCTYPE svg PUBLIC "-//W3C//DTD SVG 1.1//EN"
 "http://www.w3.org/Graphics/SVG/1.1/DTD/svg11.dtd">
<!-- Generated by graphviz version 2.28.0 (20110507.0327)
 -->
<!-- Title: ObjectDiagram Pages: 1 -->
<svg width="433pt" height="302pt"
 viewBox="0.00 0.00 433.00 302.00" xmlns="http://www.w3.org/2000/svg" xmlns:xlink="http://www.w3.org/1999/xlink">
<g id="graph1" class="graph" transform="scale(1 1) rotate(0) translate(4 298)">
<title>ObjectDiagram</title>
<polygon fill="white" stroke="white" points="-4,5 -4,-298 430,-298 430,5 -4,5"/>
<!-- karli -->
<g id="node1" class="node"><title>karli</title>
<a xlink:href="../examples/org/sdmlib/examples/studyrightWithAssignments/Student.java" xlink:title="&lt;TABLE&gt;">
<polygon fill="none" stroke="black" points="186,-272 186,-289 298,-289 298,-272 186,-272"/>
<text text-anchor="start" x="211" y="-278.5" font-family="Arial" font-size="10.00"> </text>
<text text-anchor="start" x="215" y="-278.5" font-family="Arial" font-size="10.00">karli :Student</text>
</a>
<polygon fill="none" stroke="black" points="186,-210 186,-272 298,-272 298,-210 186,-210"/>
<text text-anchor="start" x="191" y="-260" font-family="Arial" font-size="10.00">name = &quot;Karli&quot;</text>
<text text-anchor="start" x="191" y="-246" font-family="Arial" font-size="10.00">assignmentPoints = 11</text>
<text text-anchor="start" x="191" y="-232" font-family="Arial" font-size="10.00">motivation = 0</text>
<text text-anchor="start" x="191" y="-218" font-family="Arial" font-size="10.00">credits = 0</text>
</g>
<!-- mathRoom -->
<g id="node2" class="node"><title>mathRoom</title>
<a xlink:href="../examples/org/sdmlib/examples/studyrightWithAssignments/Room.java" xlink:title="&lt;TABLE&gt;">
<polygon fill="none" stroke="black" points="197,-148 197,-165 287,-165 287,-148 197,-148"/>
<text text-anchor="start" x="200.5" y="-154.5" font-family="Arial" font-size="10.00"> </text>
<text text-anchor="start" x="204.5" y="-154.5" font-family="Arial" font-size="10.00">mathRoom :Room</text>
</a>
<polygon fill="none" stroke="black" points="197,-100 197,-148 287,-148 287,-100 197,-100"/>
<text text-anchor="start" x="202" y="-136" font-family="Arial" font-size="10.00">name = &quot;senate&quot;</text>
<text text-anchor="start" x="202" y="-122" font-family="Arial" font-size="10.00">topic = &quot;math&quot;</text>
<text text-anchor="start" x="202" y="-108" font-family="Arial" font-size="10.00">credits = 17</text>
</g>
<!-- karli&#45;&#45;mathRoom -->
<g id="edge2" class="edge"><title>karli&#45;&#45;mathRoom</title>
<path fill="none" stroke="black" d="M242,-206.178C242,-194.173 242,-181.252 242,-169.707"/>
<text text-anchor="middle" x="246.226" y="-176.27" font-family="Arial" font-size="10.00">in</text>
<text text-anchor="middle" x="237.774" y="-194.615" font-family="Arial" font-size="10.00">students</text>
</g>
<!-- a1 -->
<g id="node3" class="node"><title>a1</title>
<a xlink:href="../examples/org/sdmlib/examples/studyrightWithAssignments/Assignment.java" xlink:title="&lt;TABLE&gt;">
<polygon fill="none" stroke="black" points="8,-38 8,-55 158,-55 158,-38 8,-38"/>
<text text-anchor="start" x="46.5" y="-44.5" font-family="Arial" font-size="10.00"> </text>
<text text-anchor="start" x="50.5" y="-44.5" font-family="Arial" font-size="10.00">a1 :Assignment</text>
</a>
<polygon fill="none" stroke="black" points="8,-4 8,-38 158,-38 158,-4 8,-4"/>
<text text-anchor="start" x="13" y="-26" font-family="Arial" font-size="10.00">content = &quot;Matrix Multiplication&quot;</text>
<text text-anchor="start" x="13" y="-12" font-family="Arial" font-size="10.00">points = 5</text>
</g>
<!-- karli&#45;&#45;a1 -->
<g id="edge4" class="edge"><title>karli&#45;&#45;a1</title>
<path fill="none" stroke="black" d="M207.771,-206.287C198.616,-194.621 188.819,-181.91 180,-170 152.158,-132.397 121.482,-87.8835 102.233,-59.5495"/>
<text text-anchor="middle" x="110.828" y="-62.1619" font-family="Arial" font-size="10.00">done</text>
<text text-anchor="middle" x="198.855" y="-199.257" font-family="Arial" font-size="10.00">students</text>
</g>
<!-- a2 -->
<g id="node4" class="node"><title>a2</title>
<a xlink:href="../examples/org/sdmlib/examples/studyrightWithAssignments/Assignment.java" xlink:title="&lt;TABLE&gt;">
<polygon fill="none" stroke="black" points="327,-38 327,-55 418,-55 418,-38 327,-38"/>
<text text-anchor="start" x="336" y="-44.5" font-family="Arial" font-size="10.00"> </text>
<text text-anchor="start" x="340" y="-44.5" font-family="Arial" font-size="10.00">a2 :Assignment</text>
</a>
<polygon fill="none" stroke="black" points="327,-4 327,-38 418,-38 418,-4 327,-4"/>
<text text-anchor="start" x="332" y="-26" font-family="Arial" font-size="10.00">content = &quot;Series&quot;</text>
<text text-anchor="start" x="332" y="-12" font-family="Arial" font-size="10.00">points = 6</text>
</g>
<!-- karli&#45;&#45;a2 -->
<g id="edge6" class="edge"><title>karli&#45;&#45;a2</title>
<path fill="none" stroke="black" d="M278.14,-206.323C287.09,-194.873 296.311,-182.259 304,-170 326.839,-133.586 347.692,-88.3928 360.12,-59.6184"/>
<text text-anchor="middle" x="360.365" y="-67.1154" font-family="Arial" font-size="10.00">done</text>
<text text-anchor="middle" x="280.357" y="-194.072" font-family="Arial" font-size="10.00">students</text>
</g>
<!-- mathRoom&#45;&#45;a1 -->
<g id="edge8" class="edge"><title>mathRoom&#45;&#45;a1</title>
<path fill="none" stroke="black" d="M188.613,-98.0875C168.946,-85.5944 146.88,-71.5777 128.023,-59.5997"/>
<text text-anchor="middle" x="137.939" y="-58.3919" font-family="Arial" font-size="10.00">assignments</text>
<text text-anchor="middle" x="178.697" y="-94.2953" font-family="Arial" font-size="10.00">room</text>
</g>
<!-- mathRoom&#45;&#45;a2 -->
<g id="edge10" class="edge"><title>mathRoom&#45;&#45;a2</title>
<path fill="none" stroke="black" d="M287.833,-96.3912C303.331,-84.3509 320.424,-71.0703 335.136,-59.6408"/>
<text text-anchor="middle" x="330.572" y="-66.0385" font-family="Arial" font-size="10.00">assignments</text>
<text text-anchor="middle" x="292.397" y="-84.9935" font-family="Arial" font-size="10.00">room</text>
</g>
<!-- a3 -->
<g id="node5" class="node"><title>a3</title>
<a xlink:href="../examples/org/sdmlib/examples/studyrightWithAssignments/Assignment.java" xlink:title="&lt;TABLE&gt;">
<polygon fill="none" stroke="black" points="192,-38 192,-55 292,-55 292,-38 192,-38"/>
<text text-anchor="start" x="205.5" y="-44.5" font-family="Arial" font-size="10.00"> </text>
<text text-anchor="start" x="209.5" y="-44.5" font-family="Arial" font-size="10.00">a3 :Assignment</text>
</a>
<polygon fill="none" stroke="black" points="192,-4 192,-38 292,-38 292,-4 192,-4"/>
<text text-anchor="start" x="197" y="-26" font-family="Arial" font-size="10.00">content = &quot;Integrals&quot;</text>
<text text-anchor="start" x="197" y="-12" font-family="Arial" font-size="10.00">points = 8</text>
</g>
<!-- mathRoom&#45;&#45;a3 -->
<g id="edge12" class="edge"><title>mathRoom&#45;&#45;a3</title>
<path fill="none" stroke="black" d="M242,-96.3912C242,-84.3509 242,-71.0703 242,-59.6408"/>
<text text-anchor="middle" x="246.226" y="-66.2038" font-family="Arial" font-size="10.00">assignments</text>
<text text-anchor="middle" x="237.774" y="-84.8281" font-family="Arial" font-size="10.00">room</text>
</g>
</g>
</svg>
