<?xml version="1.0" encoding="UTF-8" standalone="no"?>
<!DOCTYPE svg PUBLIC "-//W3C//DTD SVG 1.1//EN"
 "http://www.w3.org/Graphics/SVG/1.1/DTD/svg11.dtd">
<!-- Generated by graphviz version 2.28.0 (20110507.0327)
 -->
<!-- Title: ClassDiagram Pages: 1 -->
<svg width="179pt" height="176pt"
 viewBox="0.00 0.00 179.00 176.00" xmlns="http://www.w3.org/2000/svg" xmlns:xlink="http://www.w3.org/1999/xlink">
<g id="graph1" class="graph" transform="scale(1 1) rotate(0) translate(4 172)">
<title>ClassDiagram</title>
<polygon fill="white" stroke="white" points="-4,5 -4,-172 176,-172 176,5 -4,5"/>
<!-- _University -->
<g id="node1" class="node"><title>_University</title>
<a xlink:href="../src/EMFStudyRight/University.java" xlink:title="&lt;TABLE&gt;">
<polygon fill="none" stroke="black" points="8,-146 8,-163 69,-163 69,-146 8,-146"/>
<text text-anchor="start" x="17" y="-152.5" font-family="Times New Roman,serif" font-size="10.00">University</text>
</a>
<polygon fill="none" stroke="black" points="8,-126 8,-146 69,-146 69,-126 8,-126"/>
<text text-anchor="start" x="13" y="-134" font-family="Times New Roman,serif" font-size="10.00">name :String</text>
<polygon fill="none" stroke="black" points="8,-106 8,-126 69,-126 69,-106 8,-106"/>
<text text-anchor="start" x="37" y="-114" font-family="Times New Roman,serif" font-size="10.00"> </text>
</g>
<!-- _Student -->
<g id="node3" class="node"><title>_Student</title>
<a xlink:href="../src/EMFStudyRight/Student.java" xlink:title="&lt;TABLE&gt;">
<polygon fill="none" stroke="black" points="52,-44 52,-61 118,-61 118,-44 52,-44"/>
<text text-anchor="start" x="69" y="-50.5" font-family="Times New Roman,serif" font-size="10.00">Student</text>
</a>
<polygon fill="none" stroke="black" points="52,-24 52,-44 118,-44 118,-24 52,-24"/>
<text text-anchor="start" x="57" y="-32" font-family="Times New Roman,serif" font-size="10.00">studId :String</text>
<polygon fill="none" stroke="black" points="52,-4 52,-24 118,-24 118,-4 52,-4"/>
<text text-anchor="start" x="83.5" y="-12" font-family="Times New Roman,serif" font-size="10.00"> </text>
</g>
<!-- _University&#45;&gt;_Student -->
<g id="edge4" class="edge"><title>_University&#45;&gt;_Student</title>
<path fill="none" stroke="black" d="M52.8711,-102.359C58.3574,-90.6864 64.5723,-77.4631 70.0643,-65.778"/>
<text text-anchor="middle" x="70.034" y="-73.278" font-family="Times New Roman,serif" font-size="10.00">students *</text>
<text text-anchor="middle" x="52.9014" y="-89.8594" font-family="Times New Roman,serif" font-size="10.00">uni</text>
</g>
<!-- _Person -->
<g id="node2" class="node"><title>_Person</title>
<a xlink:href="../src/EMFStudyRight/Person.java" xlink:title="&lt;TABLE&gt;">
<polygon fill="none" stroke="black" points="103,-146 103,-163 164,-163 164,-146 103,-146"/>
<text text-anchor="start" x="119.5" y="-152.5" font-family="Times New Roman,serif" font-size="10.00">Person</text>
</a>
<polygon fill="none" stroke="black" points="103,-126 103,-146 164,-146 164,-126 103,-126"/>
<text text-anchor="start" x="108" y="-134" font-family="Times New Roman,serif" font-size="10.00">name :String</text>
<polygon fill="none" stroke="black" points="103,-106 103,-126 164,-126 164,-106 103,-106"/>
<text text-anchor="start" x="132" y="-114" font-family="Times New Roman,serif" font-size="10.00"> </text>
</g>
<!-- _Person&#45;&gt;_Student -->
<g id="edge2" class="edge"><title>_Person&#45;&gt;_Student</title>
<path fill="none" stroke="black" d="M113.356,-93.0748C108.986,-83.9704 104.416,-74.4505 100.253,-65.778"/>
<polygon fill="none" stroke="black" points="110.33,-94.8587 117.813,-102.359 116.64,-91.8296 110.33,-94.8587"/>
</g>
</g>
</svg>
