<?xml version="1.0" encoding="UTF-8" standalone="no"?>
<!DOCTYPE svg PUBLIC "-//W3C//DTD SVG 1.1//EN"
 "http://www.w3.org/Graphics/SVG/1.1/DTD/svg11.dtd">
<!-- Generated by graphviz version 2.28.0 (20110507.0327)
 -->
<!-- Title: ClassDiagram Pages: 1 -->
<svg width="178pt" height="450pt"
 viewBox="0.00 0.00 178.00 450.00" xmlns="http://www.w3.org/2000/svg" xmlns:xlink="http://www.w3.org/1999/xlink">
<g id="graph1" class="graph" transform="scale(1 1) rotate(0) translate(4 446)">
<title>ClassDiagram</title>
<polygon fill="white" stroke="white" points="-4,5 -4,-446 175,-446 175,5 -4,5"/>
<!-- _University -->
<g id="node1" class="node"><title>_University</title>
<a xlink:href="../examples/org/sdmlib/examples/studyright/University.java" xlink:title="&lt;TABLE&gt;">
<polygon fill="none" stroke="black" points="57,-420 57,-437 124,-437 124,-420 57,-420"/>
<text text-anchor="start" x="69" y="-426.5" font-family="Arial" font-size="10.00">University</text>
</a>
<polygon fill="none" stroke="black" points="57,-400 57,-420 124,-420 124,-400 57,-400"/>
<text text-anchor="start" x="62" y="-408" font-family="Arial" font-size="10.00">name :String</text>
<polygon fill="none" stroke="black" points="57,-380 57,-400 124,-400 124,-380 57,-380"/>
<text text-anchor="start" x="88.5" y="-388" font-family="Arial" font-size="10.00"> </text>
</g>
<!-- _Student -->
<g id="node2" class="node"><title>_Student</title>
<a xlink:href="../examples/org/sdmlib/examples/studyright/Student.java" xlink:title="&lt;TABLE&gt;">
<polygon fill="none" stroke="black" points="90,-318 90,-335 162,-335 162,-318 90,-318"/>
<text text-anchor="start" x="109" y="-324.5" font-family="Arial" font-size="10.00">Student</text>
</a>
<polygon fill="none" stroke="black" points="90,-256 90,-318 162,-318 162,-256 90,-256"/>
<text text-anchor="start" x="95" y="-306" font-family="Arial" font-size="10.00">name :String</text>
<text text-anchor="start" x="95" y="-292" font-family="Arial" font-size="10.00">matrNo :int</text>
<text text-anchor="start" x="95" y="-278" font-family="Arial" font-size="10.00">credits :int</text>
<text text-anchor="start" x="95" y="-264" font-family="Arial" font-size="10.00">motivation :int</text>
<polygon fill="none" stroke="black" points="90,-236 90,-256 162,-256 162,-236 90,-236"/>
<text text-anchor="start" x="124" y="-244" font-family="Arial" font-size="10.00"> </text>
</g>
<!-- _University&#45;&gt;_Student -->
<g id="edge2" class="edge"><title>_University&#45;&gt;_Student</title>
<path fill="none" stroke="black" d="M99.4586,-376.209C102.792,-365.005 106.634,-352.093 110.341,-339.632"/>
<text text-anchor="middle" x="111.807" y="-347.024" font-family="Arial" font-size="10.00">students *</text>
<text text-anchor="middle" x="97.9924" y="-363.817" font-family="Arial" font-size="10.00">uni</text>
</g>
<!-- _Room -->
<g id="node3" class="node"><title>_Room</title>
<a xlink:href="../examples/org/sdmlib/examples/studyright/Room.java" xlink:title="&lt;TABLE&gt;">
<polygon fill="none" stroke="black" points="8,-174 8,-191 100,-191 100,-174 8,-174"/>
<text text-anchor="start" x="41" y="-180.5" font-family="Arial" font-size="10.00">Room</text>
</a>
<polygon fill="none" stroke="black" points="8,-140 8,-174 100,-174 100,-140 8,-140"/>
<text text-anchor="start" x="13" y="-162" font-family="Arial" font-size="10.00">roomNo :String</text>
<text text-anchor="start" x="13" y="-148" font-family="Arial" font-size="10.00">credits :int</text>
<polygon fill="none" stroke="black" points="8,-120 8,-140 100,-140 100,-120 8,-120"/>
<text text-anchor="start" x="13" y="-128" font-family="Arial" font-size="10.00">findPath(String,int)</text>
</g>
<!-- _University&#45;&gt;_Room -->
<g id="edge4" class="edge"><title>_University&#45;&gt;_Room</title>
<path fill="none" stroke="black" d="M81.1052,-376.373C78.1647,-364.982 75.1093,-351.985 73,-340 64.3075,-290.611 59.1307,-232.972 56.4268,-195.778"/>
<text text-anchor="middle" x="61.3232" y="-201.997" font-family="Arial" font-size="10.00">rooms *</text>
<text text-anchor="middle" x="74.7674" y="-366.138" font-family="Arial" font-size="10.00">uni</text>
</g>
<!-- _Student&#45;&gt;_Room -->
<g id="edge8" class="edge"><title>_Student&#45;&gt;_Room</title>
<path fill="none" stroke="black" d="M96.2992,-232.199C89.404,-219.94 82.1907,-207.117 75.7138,-195.602"/>
<text text-anchor="middle" x="83.8405" y="-198.929" font-family="Arial" font-size="10.00">in</text>
<text text-anchor="middle" x="88.1724" y="-223.871" font-family="Arial" font-size="10.00">students *</text>
</g>
<!-- _Assignment -->
<g id="node4" class="node"><title>_Assignment</title>
<a xlink:href="../examples/org/sdmlib/examples/studyright/Assignment.java" xlink:title="&lt;TABLE&gt;">
<polygon fill="none" stroke="black" points="71,-58 71,-75 138,-75 138,-58 71,-58"/>
<text text-anchor="start" x="78.5" y="-64.5" font-family="Arial" font-size="10.00">Assignment</text>
</a>
<polygon fill="none" stroke="black" points="71,-24 71,-58 138,-58 138,-24 71,-24"/>
<text text-anchor="start" x="76" y="-46" font-family="Arial" font-size="10.00">name :String</text>
<text text-anchor="start" x="76" y="-32" font-family="Arial" font-size="10.00">points :int</text>
<polygon fill="none" stroke="black" points="71,-4 71,-24 138,-24 138,-4 71,-4"/>
<text text-anchor="start" x="102.5" y="-12" font-family="Arial" font-size="10.00"> </text>
</g>
<!-- _Student&#45;&gt;_Assignment -->
<g id="edge12" class="edge"><title>_Student&#45;&gt;_Assignment</title>
<path fill="none" stroke="black" d="M135.457,-232.372C139.862,-198.78 142.638,-154.474 135,-116 132.586,-103.839 128.168,-91.1761 123.41,-79.7937"/>
<text text-anchor="middle" x="130.759" y="-84.0751" font-family="Arial" font-size="10.00">done *</text>
<text text-anchor="middle" x="132.357" y="-220.365" font-family="Arial" font-size="10.00">students</text>
</g>
<!-- _Room&#45;&gt;_Room -->
<g id="edge6" class="edge"><title>_Room&#45;&gt;_Room</title>
<path fill="none" stroke="black" d="M108.007,-176.782C118.529,-174.369 126,-167.441 126,-156 126,-144.559 118.529,-137.631 108.007,-135.218"/>
<text text-anchor="middle" x="117.875" y="-131.099" font-family="Arial" font-size="10.00">neighbors *</text>
<text text-anchor="middle" x="115.59" y="-167.763" font-family="Arial" font-size="10.00">neighbors *</text>
</g>
<!-- _Room&#45;&gt;_Assignment -->
<g id="edge10" class="edge"><title>_Room&#45;&gt;_Assignment</title>
<path fill="none" stroke="black" d="M70.9277,-116.405C76.1406,-104.519 81.878,-91.4381 87.0897,-79.5555"/>
<text text-anchor="middle" x="87.3197" y="-87.0528" font-family="Arial" font-size="10.00">assignments *</text>
<text text-anchor="middle" x="70.6977" y="-103.907" font-family="Arial" font-size="10.00">room</text>
</g>
</g>
</svg>
