<?xml version="1.0" encoding="UTF-8" standalone="no"?>
<!DOCTYPE svg PUBLIC "-//W3C//DTD SVG 1.1//EN"
 "http://www.w3.org/Graphics/SVG/1.1/DTD/svg11.dtd">
<!-- Generated by graphviz version 2.28.0 (20111028.1807)
 -->
<!-- Title: ClassDiagram Pages: 1 -->
<svg width="347pt" height="450pt"
 viewBox="0.00 0.00 347.00 450.00" xmlns="http://www.w3.org/2000/svg" xmlns:xlink="http://www.w3.org/1999/xlink">
<g id="graph1" class="graph" transform="scale(1 1) rotate(0) translate(4 446)">
<title>ClassDiagram</title>
<polygon fill="white" stroke="white" points="-4,5 -4,-446 344,-446 344,5 -4,5"/>
<!-- Female -->
<g id="node1" class="node"><title>Female</title>
<polygon fill="none" stroke="black" points="81,-290 81,-307 198,-307 198,-290 81,-290"/>
<text text-anchor="start" x="125" y="-294.5" font-family="Times,serif" font-size="10.00">Female</text>
<polygon fill="none" stroke="black" points="81,-270 81,-290 198,-290 198,-270 81,-270"/>
<text text-anchor="start" x="86" y="-276" font-family="Times,serif" font-size="10.00">name :String</text>
<polygon fill="none" stroke="black" points="81,-222 81,-270 198,-270 198,-222 81,-222"/>
<text text-anchor="start" x="86" y="-256" font-family="Times,serif" font-size="10.00">findMyPosition()</text>
<text text-anchor="start" x="86" y="-242" font-family="Times,serif" font-size="10.00">findMyPosition(String)</text>
<text text-anchor="start" x="86" y="-228" font-family="Times,serif" font-size="10.00">findMyPosition(String,int)</text>
</g>
<!-- Professor -->
<g id="node5" class="node"><title>Professor</title>
<polygon fill="none" stroke="black" points="169,-153 169,-170 223,-170 223,-153 169,-153"/>
<text text-anchor="start" x="177.5" y="-157.5" font-family="Times,serif" font-size="10.00">Professor</text>
<polygon fill="none" stroke="black" points="169,-133 169,-153 223,-153 223,-133 169,-133"/>
<text text-anchor="start" x="174" y="-139" font-family="Times,serif" font-size="10.00">PersNr :int</text>
<polygon fill="none" stroke="black" points="169,-113 169,-133 223,-133 223,-113 169,-113"/>
<text text-anchor="start" x="195" y="-119" font-family="Times,serif" font-size="10.00"> </text>
</g>
<!-- Female&#45;&gt;Professor -->
<g id="edge2" class="edge"><title>Female&#45;&gt;Professor</title>
<path fill="none" stroke="black" d="M164.959,-208.895C170.512,-197.106 176.195,-185.042 181.155,-174.512"/>
<polygon fill="none" stroke="black" points="161.645,-207.717 160.549,-218.255 167.977,-210.7 161.645,-207.717"/>
</g>
<!-- Student -->
<g id="node7" class="node"><title>Student</title>
<polygon fill="none" stroke="black" points="78,-153 78,-170 135,-170 135,-153 78,-153"/>
<text text-anchor="start" x="91.5" y="-157.5" font-family="Times,serif" font-size="10.00">Student</text>
<polygon fill="none" stroke="black" points="78,-133 78,-153 135,-153 135,-133 78,-133"/>
<text text-anchor="start" x="83" y="-139" font-family="Times,serif" font-size="10.00">matrNo :int</text>
<polygon fill="none" stroke="black" points="78,-113 78,-133 135,-133 135,-113 78,-113"/>
<text text-anchor="start" x="105.5" y="-119" font-family="Times,serif" font-size="10.00"> </text>
</g>
<!-- Female&#45;&gt;Student -->
<g id="edge4" class="edge"><title>Female&#45;&gt;Student</title>
<path fill="none" stroke="black" d="M123.876,-208.544C120.691,-196.867 117.438,-184.938 114.594,-174.512"/>
<polygon fill="none" stroke="black" points="120.516,-209.528 126.524,-218.255 127.27,-207.687 120.516,-209.528"/>
</g>
<!-- Lecture -->
<g id="node2" class="node"><title>Lecture</title>
<polygon fill="none" stroke="black" points="232,-276 232,-293 291,-293 291,-276 232,-276"/>
<text text-anchor="start" x="246.5" y="-280.5" font-family="Times,serif" font-size="10.00">Lecture</text>
<polygon fill="none" stroke="black" points="232,-256 232,-276 291,-276 291,-256 232,-256"/>
<text text-anchor="start" x="237" y="-262" font-family="Times,serif" font-size="10.00">Title :String</text>
<polygon fill="none" stroke="black" points="232,-236 232,-256 291,-256 291,-236 232,-236"/>
<text text-anchor="start" x="260.5" y="-242" font-family="Times,serif" font-size="10.00"> </text>
</g>
<!-- Lecture&#45;&gt;Professor -->
<g id="edge14" class="edge"><title>Lecture&#45;&gt;Professor</title>
<path fill="none" stroke="black" d="M243.922,-232.209C234.368,-214.424 222.499,-192.33 212.964,-174.579"/>
<text text-anchor="middle" x="220.976" y="-176.563" font-family="Times,serif" font-size="10.00">has</text>
<text text-anchor="middle" x="235.91" y="-222.225" font-family="Times,serif" font-size="10.00">lecture *</text>
</g>
<!-- Room -->
<g id="node6" class="node"><title>Room</title>
<polygon fill="none" stroke="black" points="257,-160 257,-177 331,-177 331,-160 257,-160"/>
<text text-anchor="start" x="282" y="-164.5" font-family="Times,serif" font-size="10.00">Room</text>
<polygon fill="none" stroke="black" points="257,-126 257,-160 331,-160 331,-126 257,-126"/>
<text text-anchor="start" x="262" y="-146" font-family="Times,serif" font-size="10.00">roomNo :String</text>
<text text-anchor="start" x="262" y="-132" font-family="Times,serif" font-size="10.00">credits :int</text>
<polygon fill="none" stroke="black" points="257,-106 257,-126 331,-126 331,-106 257,-106"/>
<text text-anchor="start" x="262" y="-112" font-family="Times,serif" font-size="10.00">studentCount()</text>
</g>
<!-- Lecture&#45;&gt;Room -->
<g id="edge12" class="edge"><title>Lecture&#45;&gt;Room</title>
<path fill="none" stroke="black" d="M269.67,-232.209C273.872,-216.804 278.954,-198.167 283.385,-181.92"/>
<text text-anchor="middle" x="285.078" y="-187.776" font-family="Times,serif" font-size="10.00">in</text>
<text text-anchor="middle" x="267.978" y="-218.353" font-family="Times,serif" font-size="10.00">lecture *</text>
</g>
<!-- Lecture&#45;&gt;Student -->
<g id="edge16" class="edge"><title>Lecture&#45;&gt;Student</title>
<path fill="none" stroke="black" d="M230.9,-232.412C225.478,-227.353 219.725,-222.355 214,-218 188.641,-198.707 178.032,-200.375 152,-182 148.75,-179.706 145.451,-177.233 142.189,-174.686"/>
<text text-anchor="middle" x="151.938" y="-172.914" font-family="Times,serif" font-size="10.00">listen</text>
<text text-anchor="middle" x="221.379" y="-225.354" font-family="Times,serif" font-size="10.00">lecture *</text>
</g>
<!-- Male -->
<g id="node3" class="node"><title>Male</title>
<polygon fill="none" stroke="lightgrey" points="14,-276 14,-293 41,-293 41,-276 14,-276"/>
<text text-anchor="start" x="17.5" y="-280.5" font-family="Times,serif" font-size="10.00">Male</text>
<polygon fill="none" stroke="lightgrey" points="14,-256 14,-276 41,-276 41,-256 14,-256"/>
<text text-anchor="start" x="26.5" y="-262" font-family="Times,serif" font-size="10.00"> </text>
<polygon fill="none" stroke="lightgrey" points="14,-236 14,-256 41,-256 41,-236 14,-236"/>
<text text-anchor="start" x="26.5" y="-242" font-family="Times,serif" font-size="10.00"> </text>
</g>
<!-- Male&#45;&gt;Student -->
<g id="edge10" class="edge"><title>Male&#45;&gt;Student</title>
<path fill="none" stroke="black" d="M53.3838,-223.589C63.8066,-207.625 75.6039,-189.556 85.3823,-174.579"/>
<polygon fill="none" stroke="black" points="50.2926,-221.922 47.7563,-232.209 56.1539,-225.749 50.2926,-221.922"/>
</g>
<!-- Person -->
<g id="node4" class="node"><title>Person</title>
<polygon fill="none" stroke="lightgrey" points="25,-420 25,-437 142,-437 142,-420 25,-420"/>
<text text-anchor="start" x="70" y="-424.5" font-family="Times,serif" font-size="10.00">Person</text>
<polygon fill="none" stroke="lightgrey" points="25,-400 25,-420 142,-420 142,-400 25,-400"/>
<text text-anchor="start" x="82.5" y="-406" font-family="Times,serif" font-size="10.00"> </text>
<polygon fill="none" stroke="lightgrey" points="25,-352 25,-400 142,-400 142,-352 25,-352"/>
<text text-anchor="start" x="30" y="-386" font-family="Times,serif" font-size="10.00">findMyPosition()</text>
<text text-anchor="start" x="30" y="-372" font-family="Times,serif" font-size="10.00">findMyPosition(String)</text>
<text text-anchor="start" x="30" y="-358" font-family="Times,serif" font-size="10.00">findMyPosition(String,int)</text>
</g>
<!-- Person&#45;&gt;Female -->
<g id="edge6" class="edge"><title>Person&#45;&gt;Female</title>
<path fill="none" stroke="black" d="M107.154,-338.79C111.134,-329.693 115.22,-320.355 119.081,-311.529"/>
<polygon fill="none" stroke="black" points="103.861,-337.586 103.059,-348.151 110.274,-340.392 103.861,-337.586"/>
</g>
<!-- Person&#45;&gt;Male -->
<g id="edge8" class="edge"><title>Person&#45;&gt;Male</title>
<path fill="none" stroke="black" d="M58.9182,-338.956C52.7196,-324.788 46.2597,-310.022 40.786,-297.511"/>
<polygon fill="none" stroke="black" points="55.7261,-340.392 62.9409,-348.151 62.1392,-337.586 55.7261,-340.392"/>
</g>
<!-- University -->
<g id="node8" class="node"><title>University</title>
<polygon fill="none" stroke="black" points="263,-44 263,-61 325,-61 325,-44 263,-44"/>
<text text-anchor="start" x="273" y="-48.5" font-family="Times,serif" font-size="10.00">University</text>
<polygon fill="none" stroke="black" points="263,-24 263,-44 325,-44 325,-24 263,-24"/>
<text text-anchor="start" x="268" y="-30" font-family="Times,serif" font-size="10.00">name :String</text>
<polygon fill="none" stroke="black" points="263,-4 263,-24 325,-24 325,-4 263,-4"/>
<text text-anchor="start" x="293" y="-10" font-family="Times,serif" font-size="10.00"> </text>
</g>
<!-- Room&#45;&gt;University -->
<g id="edge18" class="edge"><title>Room&#45;&gt;University</title>
<path fill="none" stroke="black" d="M294,-102.371C294,-90.2786 294,-77.0858 294,-65.5428"/>
<text text-anchor="middle" x="298.226" y="-70.6059" font-family="Times,serif" font-size="10.00">uni</text>
<text text-anchor="middle" x="289.774" y="-89.3075" font-family="Times,serif" font-size="10.00">rooms *</text>
</g>
</g>
</svg>
