<?xml version="1.0" encoding="UTF-8" standalone="no"?>
<!DOCTYPE svg PUBLIC "-//W3C//DTD SVG 1.1//EN"
 "http://www.w3.org/Graphics/SVG/1.1/DTD/svg11.dtd">
<!-- Generated by graphviz version 2.28.0 (20110507.0327)
 -->
<!-- Title: ObjectDiagram Pages: 1 -->
<svg width="514pt" height="252pt"
 viewBox="0.00 0.00 514.00 252.00" xmlns="http://www.w3.org/2000/svg" xmlns:xlink="http://www.w3.org/1999/xlink">
<g id="graph1" class="graph" transform="scale(1 1) rotate(0) translate(4 248)">
<title>ObjectDiagram</title>
<polygon fill="white" stroke="white" points="-4,5 -4,-248 511,-248 511,5 -4,5"/>
<g id="graph2" class="cluster"><title>cluster_n4</title>
<polygon fill="none" stroke="grey" points="228,-81 228,-190 354,-190 354,-81 228,-81"/>
<image xlink:href="../../SDMLib.net/doc/forbiddensign.svg" width="30px" height="30px" preserveAspectRatio="xMinYMin meet" x="249.5" y="-181"/>
<text text-anchor="start" x="286" y="-162.8" font-family="Times New Roman,serif" font-size="14.00">NAC n4</text>
</g>
<!-- r1 -->
<g id="node1" class="node"><title>r1</title>
<polygon fill="deepskyblue" stroke="deepskyblue" points="139.5,-202.5 139.5,-239.5 198.5,-239.5 198.5,-202.5 139.5,-202.5"/>
<polygon fill="none" stroke="black" points="140,-222 140,-239 199,-239 199,-222 140,-222"/>
<text text-anchor="start" x="143.5" y="-228.5" font-family="Arial" font-size="10.00"> </text>
<text text-anchor="start" x="147.5" y="-228.5" font-family="Arial" font-size="10.00"> r1 :RoomPO </text>
<polygon fill="none" stroke="black" points="140,-202 140,-222 199,-222 199,-202 140,-202"/>
<text text-anchor="start" x="166" y="-210" font-family="Arial" font-size="10.00"> &#160;</text>
</g>
<!-- allMatches_r1 -->
<g id="node2" class="node"><title>allMatches_r1</title>
<text text-anchor="middle" x="32" y="-109.5" font-family="Arial" font-size="10.00">allMatches</text>
</g>
<!-- r1&#45;&#45;allMatches_r1 -->
<g id="edge3" class="edge"><title>r1&#45;&#45;allMatches_r1</title>
<path fill="none" stroke="black" stroke-dasharray="1,5" d="M131.534,-213.944C113.851,-209.605 93.3202,-202.272 78,-190 58.3114,-174.229 45.1204,-147.583 38.0878,-130.142"/>
</g>
<!-- s2 -->
<g id="node3" class="node"><title>s2</title>
<polygon fill="deepskyblue" stroke="deepskyblue" points="89,-4.5 89,-41.5 171,-41.5 171,-4.5 89,-4.5"/>
<polygon fill="none" stroke="black" points="89,-24 89,-41 171,-41 171,-24 89,-24"/>
<text text-anchor="start" x="92.5" y="-30.5" font-family="Arial" font-size="10.00"> </text>
<text text-anchor="start" x="96.5" y="-30.5" font-family="Arial" font-size="10.00"> s2 :StudentPO </text>
<polygon fill="none" stroke="black" points="89,-4 89,-24 171,-24 171,-4 89,-4"/>
<text text-anchor="start" x="126.5" y="-12" font-family="Arial" font-size="10.00"> &#160;</text>
</g>
<!-- r1&#45;&#45;s2 -->
<g id="edge5" class="edge"><title>r1&#45;&#45;s2</title>
<path fill="none" stroke="black" d="M131.738,-208.268C123.521,-203.873 115.833,-197.941 111,-190 83.4021,-144.654 104.97,-79.3124 119.514,-45.7345"/>
<text text-anchor="middle" x="119.972" y="-53.224" font-family="Arial" font-size="10.00">students</text>
</g>
<!-- s3 -->
<g id="node4" class="node"><title>s3</title>
<polygon fill="deepskyblue" stroke="deepskyblue" points="128,-93.5 128,-130.5 210,-130.5 210,-93.5 128,-93.5"/>
<polygon fill="none" stroke="black" points="128,-113 128,-130 210,-130 210,-113 128,-113"/>
<text text-anchor="start" x="131.5" y="-119.5" font-family="Arial" font-size="10.00"> </text>
<text text-anchor="start" x="135.5" y="-119.5" font-family="Arial" font-size="10.00"> s3 :StudentPO </text>
<polygon fill="none" stroke="black" points="128,-93 128,-113 210,-113 210,-93 128,-93"/>
<text text-anchor="start" x="165.5" y="-101" font-family="Arial" font-size="10.00"> &#160;</text>
</g>
<!-- r1&#45;&#45;s3 -->
<g id="edge7" class="edge"><title>r1&#45;&#45;s3</title>
<path fill="none" stroke="black" d="M169,-198.347C169,-179.783 169,-153.176 169,-134.621"/>
<text text-anchor="middle" x="173.226" y="-141.184" font-family="Arial" font-size="10.00">students</text>
</g>
<!-- p5 -->
<g id="node6" class="node"><title>p5</title>
<polygon fill="deepskyblue" stroke="deepskyblue" points="244,-93.5 244,-130.5 338,-130.5 338,-93.5 244,-93.5"/>
<polygon fill="none" stroke="black" points="244,-113 244,-130 338,-130 338,-113 244,-113"/>
<text text-anchor="start" x="247.5" y="-119.5" font-family="Arial" font-size="10.00"> </text>
<text text-anchor="start" x="251.5" y="-119.5" font-family="Arial" font-size="10.00"> p5 :PatternObject </text>
<polygon fill="none" stroke="black" points="244,-93 244,-113 338,-113 338,-93 244,-93"/>
<text text-anchor="start" x="287.5" y="-101" font-family="Arial" font-size="10.00"> &#160;</text>
</g>
<!-- r1&#45;&#45;p5 -->
<g id="edge11" class="edge"><title>r1&#45;&#45;p5</title>
<path fill="none" stroke="black" d="M206.379,-205.767C215.267,-201.446 224.374,-196.175 232,-190 251.239,-174.42 267.837,-151.343 278.484,-134.517"/>
<text text-anchor="middle" x="277.121" y="-141.924" font-family="Arial" font-size="10.00">tas</text>
</g>
<!-- t6 -->
<g id="node7" class="node"><title>t6</title>
<polygon fill="deepskyblue" stroke="deepskyblue" points="372,-86.5 372,-137.5 498,-137.5 498,-86.5 372,-86.5"/>
<text text-anchor="start" x="458" y="-127.5" font-family="Arial" font-size="10.00" fill="green">«create»</text>
<polygon fill="none" stroke="green" points="372,-106 372,-122 498,-122 498,-106 372,-106"/>
<text text-anchor="start" x="375.5" y="-112" font-family="Arial" font-size="10.00"> </text>
<text text-anchor="start" x="379.5" y="-112" font-family="Arial" font-size="10.00" fill="green"> t6 :TeachingAssistantPO </text>
<polygon fill="none" stroke="green" points="372,-86 372,-106 498,-106 498,-86 372,-86"/>
<text text-anchor="start" x="431.5" y="-94" font-family="Arial" font-size="10.00"> &#160;</text>
</g>
<!-- r1&#45;&#45;t6 -->
<g id="edge13" class="edge"><title>r1&#45;&#45;t6</title>
<path fill="none" stroke="green" d="M206.604,-220.736C246.323,-220.031 309.753,-214.594 358,-190 380.233,-178.667 400.01,-158.549 413.953,-141.719"/>
<text text-anchor="middle" x="411.315" y="-148.865" font-family="Arial" font-size="10.00" fill="green">tas</text>
</g>
<!-- s3&#45;&#45;s2 -->
<g id="edge9" class="edge"><title>s3&#45;&#45;s2</title>
<path fill="none" stroke="black" d="M159.36,-89.4944C153.359,-76.1096 145.669,-58.9547 139.665,-45.5597"/>
<text text-anchor="middle" x="147.228" y="-49.6011" font-family="Arial" font-size="10.00">friends</text>
</g>
</g>
</svg>
