<?xml version="1.0" encoding="UTF-8" standalone="no"?>
<!DOCTYPE svg PUBLIC "-//W3C//DTD SVG 1.1//EN"
 "http://www.w3.org/Graphics/SVG/1.1/DTD/svg11.dtd">
<!-- Generated by graphviz version 2.28.0 (20110507.0327)
 -->
<!-- Title: ObjectDiagram Pages: 1 -->
<svg width="281pt" height="438pt"
 viewBox="0.00 0.00 280.81 438.00" xmlns="http://www.w3.org/2000/svg" xmlns:xlink="http://www.w3.org/1999/xlink">
<g id="graph1" class="graph" transform="scale(1 1) rotate(0) translate(4 434)">
<title>ObjectDiagram</title>
<polygon fill="white" stroke="white" points="-4,5 -4,-434 277.81,-434 277.81,5 -4,5"/>
<!-- s3 -->
<g id="node1" class="node"><title>s3</title>
<polygon fill="none" stroke="black" points="8,-216 8,-233 78,-233 78,-216 8,-216"/>
<text text-anchor="start" x="18.5" y="-222.5" font-family="Times New Roman,serif" font-size="10.00"> </text>
<text text-anchor="start" x="21.5" y="-222.5" font-family="Times New Roman,serif" font-size="10.00">s3 :Student</text>
<polygon fill="none" stroke="black" points="8,-182 8,-216 78,-216 78,-182 8,-182"/>
<text text-anchor="start" x="13.5" y="-204" font-family="Times New Roman,serif" font-size="10.00">name = &quot;Nina&quot;</text>
<text text-anchor="start" x="14" y="-190" font-family="Times New Roman,serif" font-size="10.00">matrNo = 2323</text>
</g>
<!-- u1 -->
<g id="node5" class="node"><title>u1</title>
<polygon fill="none" stroke="black" points="143,-120 143,-137 240,-137 240,-120 143,-120"/>
<text text-anchor="start" x="161.5" y="-126.5" font-family="Times New Roman,serif" font-size="10.00"> </text>
<text text-anchor="start" x="164.5" y="-126.5" font-family="Times New Roman,serif" font-size="10.00">u1 :University</text>
<polygon fill="none" stroke="black" points="143,-100 143,-120 240,-120 240,-100 143,-100"/>
<text text-anchor="start" x="148.5" y="-108" font-family="Times New Roman,serif" font-size="10.00">name = &quot;StudyRight&quot;</text>
</g>
<!-- s3&#45;&#45;u1 -->
<g id="edge14" class="edge"><title>s3&#45;&#45;u1</title>
<path fill="none" stroke="black" d="M86.2056,-181.602C107.706,-168.963 133.429,-153.843 154.008,-141.745"/>
<text text-anchor="middle" x="148.337" y="-147.481" font-family="Times New Roman,serif" font-size="10.00">uni</text>
<text text-anchor="middle" x="91.877" y="-170.866" font-family="Times New Roman,serif" font-size="10.00">students_students</text>
</g>
<!-- r6 -->
<g id="node2" class="node"><title>r6</title>
<polygon fill="none" stroke="black" points="166,-408 166,-425 254,-425 254,-408 166,-408"/>
<text text-anchor="start" x="190.5" y="-414.5" font-family="Times New Roman,serif" font-size="10.00"> </text>
<text text-anchor="start" x="193.5" y="-414.5" font-family="Times New Roman,serif" font-size="10.00">r6 :Room</text>
<polygon fill="none" stroke="black" points="166,-374 166,-408 254,-408 254,-374 166,-374"/>
<text text-anchor="start" x="171.5" y="-396" font-family="Times New Roman,serif" font-size="10.00">roomNo = &quot;sports&quot;</text>
<text text-anchor="start" x="187" y="-382" font-family="Times New Roman,serif" font-size="10.00">credits = 23</text>
</g>
<!-- r5 -->
<g id="node3" class="node"><title>r5</title>
<polygon fill="none" stroke="black" points="171,-312 171,-329 249,-329 249,-312 171,-312"/>
<text text-anchor="start" x="190.5" y="-318.5" font-family="Times New Roman,serif" font-size="10.00"> </text>
<text text-anchor="start" x="193.5" y="-318.5" font-family="Times New Roman,serif" font-size="10.00">r5 :Room</text>
<polygon fill="none" stroke="black" points="171,-278 171,-312 249,-312 249,-278 171,-278"/>
<text text-anchor="start" x="176.5" y="-300" font-family="Times New Roman,serif" font-size="10.00">roomNo = &quot;arts&quot;</text>
<text text-anchor="start" x="187" y="-286" font-family="Times New Roman,serif" font-size="10.00">credits = 23</text>
</g>
<!-- r6&#45;&#45;r5 -->
<g id="edge10" class="edge"><title>r6&#45;&#45;r5</title>
<path fill="none" stroke="black" d="M210,-370.286C210,-358.624 210,-345.182 210,-333.538"/>
<text text-anchor="middle" x="214.226" y="-340.101" font-family="Times New Roman,serif" font-size="10.00">neighbors</text>
<text text-anchor="middle" x="205.774" y="-358.723" font-family="Times New Roman,serif" font-size="10.00">neighbors</text>
</g>
<!-- r4 -->
<g id="node4" class="node"><title>r4</title>
<polygon fill="none" stroke="black" points="112,-216 112,-233 194,-233 194,-216 112,-216"/>
<text text-anchor="start" x="133.5" y="-222.5" font-family="Times New Roman,serif" font-size="10.00"> </text>
<text text-anchor="start" x="136.5" y="-222.5" font-family="Times New Roman,serif" font-size="10.00">r4 :Room</text>
<polygon fill="none" stroke="black" points="112,-182 112,-216 194,-216 194,-182 112,-182"/>
<text text-anchor="start" x="117.5" y="-204" font-family="Times New Roman,serif" font-size="10.00">roomNo = &quot;math&quot;</text>
<text text-anchor="start" x="130" y="-190" font-family="Times New Roman,serif" font-size="10.00">credits = 42</text>
</g>
<!-- r6&#45;&#45;r4 -->
<g id="edge8" class="edge"><title>r6&#45;&#45;r4</title>
<path fill="none" stroke="black" d="M177.615,-370.252C168.165,-359.872 159.032,-347.385 154,-334 142.202,-302.615 144.28,-263.584 147.783,-237.567"/>
<text text-anchor="middle" x="150.882" y="-244.574" font-family="Times New Roman,serif" font-size="10.00">neighbors</text>
<text text-anchor="middle" x="168.436" y="-363.784" font-family="Times New Roman,serif" font-size="10.00">neighbors</text>
</g>
<!-- r6&#45;&#45;u1 -->
<g id="edge12" class="edge"><title>r6&#45;&#45;u1</title>
<path fill="none" stroke="black" d="M242.448,-370.275C251.902,-359.897 261.022,-347.405 266,-334 275.284,-309.001 271.113,-300.172 266,-274 256.078,-223.216 224.996,-170.322 206.101,-141.648"/>
<text text-anchor="middle" x="214.566" y="-144.473" font-family="Times New Roman,serif" font-size="10.00">uni</text>
<text text-anchor="middle" x="245.31" y="-358.194" font-family="Times New Roman,serif" font-size="10.00">rooms_rooms</text>
</g>
<!-- r5&#45;&#45;r4 -->
<g id="edge4" class="edge"><title>r5&#45;&#45;r4</title>
<path fill="none" stroke="black" d="M192.588,-274.286C185.517,-262.624 177.366,-249.182 170.305,-237.538"/>
<text text-anchor="middle" x="178.618" y="-240.596" font-family="Times New Roman,serif" font-size="10.00">neighbors</text>
<text text-anchor="middle" x="184.275" y="-266.228" font-family="Times New Roman,serif" font-size="10.00">neighbors</text>
</g>
<!-- r5&#45;&#45;u1 -->
<g id="edge6" class="edge"><title>r5&#45;&#45;u1</title>
<path fill="none" stroke="black" d="M213.02,-274.481C215.059,-249.001 216.488,-210.748 211,-178 208.923,-165.604 204.511,-152.313 200.359,-141.585"/>
<text text-anchor="middle" x="207.529" y="-146.056" font-family="Times New Roman,serif" font-size="10.00">uni</text>
<text text-anchor="middle" x="209.468" y="-262.634" font-family="Times New Roman,serif" font-size="10.00">rooms_rooms</text>
</g>
<!-- r4&#45;&#45;u1 -->
<g id="edge2" class="edge"><title>r4&#45;&#45;u1</title>
<path fill="none" stroke="black" d="M165.653,-178.03C170.835,-166.167 176.728,-152.675 181.527,-141.687"/>
<text text-anchor="middle" x="181.773" y="-149.184" font-family="Times New Roman,serif" font-size="10.00">uni</text>
<text text-anchor="middle" x="165.408" y="-165.533" font-family="Times New Roman,serif" font-size="10.00">rooms_rooms</text>
</g>
<!-- s2 -->
<g id="node6" class="node"><title>s2</title>
<polygon fill="none" stroke="black" points="153,-38 153,-55 230,-55 230,-38 153,-38"/>
<text text-anchor="start" x="167" y="-44.5" font-family="Times New Roman,serif" font-size="10.00"> </text>
<text text-anchor="start" x="170" y="-44.5" font-family="Times New Roman,serif" font-size="10.00">s2 :Student</text>
<polygon fill="none" stroke="black" points="153,-4 153,-38 230,-38 230,-4 153,-4"/>
<text text-anchor="start" x="158.5" y="-26" font-family="Times New Roman,serif" font-size="10.00">name = &quot;Albert&quot;</text>
<text text-anchor="start" x="162.5" y="-12" font-family="Times New Roman,serif" font-size="10.00">matrNo = 4242</text>
</g>
<!-- u1&#45;&#45;s2 -->
<g id="edge16" class="edge"><title>u1&#45;&#45;s2</title>
<path fill="none" stroke="black" d="M191,-96.4944C191,-85.4243 191,-71.7752 191,-59.8074"/>
<text text-anchor="middle" x="195.226" y="-66.3705" font-family="Times New Roman,serif" font-size="10.00">students_students</text>
<text text-anchor="middle" x="186.774" y="-84.9313" font-family="Times New Roman,serif" font-size="10.00">uni</text>
</g>
</g>
</svg>
