<?xml version="1.0" encoding="UTF-8" standalone="no"?>
<!DOCTYPE svg PUBLIC "-//W3C//DTD SVG 1.1//EN"
 "http://www.w3.org/Graphics/SVG/1.1/DTD/svg11.dtd">
<!-- Generated by graphviz version 2.28.0 (20110507.0327)
 -->
<!-- Title: ObjectDiagram Pages: 1 -->
<svg width="180pt" height="802pt"
 viewBox="0.00 0.00 180.00 802.00" xmlns="http://www.w3.org/2000/svg" xmlns:xlink="http://www.w3.org/1999/xlink">
<g id="graph1" class="graph" transform="scale(1 1) rotate(0) translate(4 798)">
<title>ObjectDiagram</title>
<polygon fill="white" stroke="white" points="-4,5 -4,-798 177,-798 177,5 -4,5"/>
<!-- karli -->
<g id="node1" class="node"><title>karli</title>
<image xlink:href="icons/karli.png" width="61px" height="46px" preserveAspectRatio="xMinYMin meet" x="75.5" y="-788"/>
<a xlink:href="../examples/org/sdmlib/examples/studyrightWithAssignments/model/TeachingAssistant.java" xlink:title="&lt;TABLE&gt;">
<polygon fill="none" stroke="black" points="48,-724 48,-740 164,-740 164,-724 48,-724"/>
<text text-anchor="start" x="51.5" y="-730" font-family="Arial" font-size="10.00"> </text>
<text text-anchor="start" x="55.5" y="-730" font-family="Arial" font-size="10.00">karli :TeachingAssistant</text>
</a>
<polygon fill="none" stroke="black" points="48,-634 48,-724 164,-724 164,-634 48,-634"/>
<text text-anchor="start" x="53" y="-712" font-family="Arial" font-size="10.00">credits = 0</text>
<text text-anchor="start" x="53" y="-698" font-family="Arial" font-size="10.00">motivation = 168</text>
<text text-anchor="start" x="53" y="-684" font-family="Arial" font-size="10.00">name = &quot;Karli&quot;</text>
<text text-anchor="start" x="53" y="-670" font-family="Arial" font-size="10.00">certified = &quot;false&quot;</text>
<text text-anchor="start" x="53" y="-656" font-family="Arial" font-size="10.00">assignmentPoints = 0</text>
<text text-anchor="start" x="53" y="-642" font-family="Arial" font-size="10.00">room = &quot;&quot;</text>
</g>
<!-- mathRoom -->
<g id="node2" class="node"><title>mathRoom</title>
<image xlink:href="icons/mathroom.png" width="86px" height="63px" preserveAspectRatio="xMinYMin meet" x="63" y="-587"/>
<a xlink:href="../examples/org/sdmlib/examples/studyrightWithAssignments/model/Room.java" xlink:title="&lt;TABLE&gt;">
<polygon fill="none" stroke="black" points="61,-506 61,-522 151,-522 151,-506 61,-506"/>
<text text-anchor="start" x="64.5" y="-512" font-family="Arial" font-size="10.00"> </text>
<text text-anchor="start" x="68.5" y="-512" font-family="Arial" font-size="10.00">mathRoom :Room</text>
</a>
<polygon fill="none" stroke="black" points="61,-458 61,-506 151,-506 151,-458 61,-458"/>
<text text-anchor="start" x="66" y="-494" font-family="Arial" font-size="10.00">credits = 17</text>
<text text-anchor="start" x="66" y="-480" font-family="Arial" font-size="10.00">name = &quot;senate&quot;</text>
<text text-anchor="start" x="66" y="-466" font-family="Arial" font-size="10.00">topic = &quot;math&quot;</text>
</g>
<!-- karli&#45;&#45;mathRoom -->
<g id="edge2" class="edge"><title>karli&#45;&#45;mathRoom</title>
<path fill="none" stroke="black" d="M106,-629.959C106,-617.82 106,-605.404 106,-593.558"/>
<text text-anchor="middle" x="110.226" y="-600.121" font-family="Arial" font-size="10.00">in</text>
<text text-anchor="middle" x="101.774" y="-618.396" font-family="Arial" font-size="10.00">students</text>
</g>
<!-- sportsRoom -->
<g id="node3" class="node"><title>sportsRoom</title>
<a xlink:href="../examples/org/sdmlib/examples/studyrightWithAssignments/model/Room.java" xlink:title="&lt;TABLE&gt;">
<polygon fill="none" stroke="black" points="54,-396 54,-413 159,-413 159,-396 54,-396"/>
<text text-anchor="start" x="62" y="-402.5" font-family="Arial" font-size="10.00"> </text>
<text text-anchor="start" x="66" y="-402.5" font-family="Arial" font-size="10.00">sportsRoom :Room</text>
</a>
<polygon fill="none" stroke="black" points="54,-348 54,-396 159,-396 159,-348 54,-348"/>
<text text-anchor="start" x="59" y="-384" font-family="Arial" font-size="10.00">credits = 25</text>
<text text-anchor="start" x="59" y="-370" font-family="Arial" font-size="10.00">name = &quot;gymnasium&quot;</text>
<text text-anchor="start" x="59" y="-356" font-family="Arial" font-size="10.00">topic = &quot;sports&quot;</text>
</g>
<!-- mathRoom&#45;&#45;sportsRoom -->
<g id="edge4" class="edge"><title>mathRoom&#45;&#45;sportsRoom</title>
<path fill="none" stroke="black" d="M106,-454.152C106,-441.569 106,-428.916 106,-417.797"/>
<text text-anchor="middle" x="110.226" y="-424.36" font-family="Arial" font-size="10.00">doors</text>
<text text-anchor="middle" x="101.774" y="-442.589" font-family="Arial" font-size="10.00">doors</text>
</g>
<!-- abu -->
<g id="node4" class="node"><title>abu</title>
<image xlink:href="icons/karli.png" width="61px" height="46px" preserveAspectRatio="xMinYMin meet" x="31" y="-302"/>
<a xlink:href="../examples/org/sdmlib/examples/studyrightWithAssignments/model/Student.java" xlink:title="&lt;TABLE&gt;">
<polygon fill="none" stroke="black" points="8,-238 8,-254 115,-254 115,-238 8,-238"/>
<text text-anchor="start" x="31.5" y="-244" font-family="Arial" font-size="10.00"> </text>
<text text-anchor="start" x="35.5" y="-244" font-family="Arial" font-size="10.00">abu :Student</text>
</a>
<polygon fill="none" stroke="black" points="8,-176 8,-238 115,-238 115,-176 8,-176"/>
<text text-anchor="start" x="13" y="-226" font-family="Arial" font-size="10.00">credits = 0</text>
<text text-anchor="start" x="13" y="-212" font-family="Arial" font-size="10.00">motivation = 168</text>
<text text-anchor="start" x="13" y="-198" font-family="Arial" font-size="10.00">name = &quot;Abu&quot;</text>
<text text-anchor="start" x="13" y="-184" font-family="Arial" font-size="10.00">assignmentPoints = 0</text>
</g>
<!-- sportsRoom&#45;&#45;abu -->
<g id="edge6" class="edge"><title>sportsRoom&#45;&#45;abu</title>
<path fill="none" stroke="black" d="M94.4114,-344.204C90.8437,-333.184 86.7931,-320.672 82.7735,-308.256"/>
<text text-anchor="middle" x="89.5856" y="-313.077" font-family="Arial" font-size="10.00">students</text>
<text text-anchor="middle" x="87.5992" y="-334.383" font-family="Arial" font-size="10.00">in</text>
</g>
<!-- alice -->
<g id="node5" class="node"><title>alice</title>
<image xlink:href="icons/karli.png" width="61px" height="46px" preserveAspectRatio="xMinYMin meet" x="76" y="-130"/>
<a xlink:href="../examples/org/sdmlib/examples/studyrightWithAssignments/model/Student.java" xlink:title="&lt;TABLE&gt;">
<polygon fill="none" stroke="black" points="53,-66 53,-82 160,-82 160,-66 53,-66"/>
<text text-anchor="start" x="74" y="-72" font-family="Arial" font-size="10.00"> </text>
<text text-anchor="start" x="78" y="-72" font-family="Arial" font-size="10.00">alice :Student</text>
</a>
<polygon fill="none" stroke="black" points="53,-4 53,-66 160,-66 160,-4 53,-4"/>
<text text-anchor="start" x="58" y="-54" font-family="Arial" font-size="10.00">credits = 0</text>
<text text-anchor="start" x="58" y="-40" font-family="Arial" font-size="10.00">motivation = 168</text>
<text text-anchor="start" x="58" y="-26" font-family="Arial" font-size="10.00">name = &quot;Alice&quot;</text>
<text text-anchor="start" x="58" y="-12" font-family="Arial" font-size="10.00">assignmentPoints = 0</text>
</g>
<!-- sportsRoom&#45;&#45;alice -->
<g id="edge8" class="edge"><title>sportsRoom&#45;&#45;alice</title>
<path fill="none" stroke="black" d="M121.01,-344.361C125.094,-332.955 128.953,-320.134 131,-308 141.053,-248.397 138.179,-232.017 131,-172 129.601,-160.307 127.339,-148.022 124.733,-136.174"/>
<text text-anchor="middle" x="130.779" y="-141.639" font-family="Arial" font-size="10.00">students</text>
<text text-anchor="middle" x="120.028" y="-331.909" font-family="Arial" font-size="10.00">in</text>
</g>
<!-- abu&#45;&#45;alice -->
<g id="edge10" class="edge"><title>abu&#45;&#45;alice</title>
<path fill="none" stroke="black" d="M78.7852,-171.811C81.8806,-160.118 85.1007,-147.953 88.1966,-136.257"/>
<text text-anchor="middle" x="89.9629" y="-143.6" font-family="Arial" font-size="10.00">friends</text>
<text text-anchor="middle" x="77.0189" y="-159.469" font-family="Arial" font-size="10.00">friends</text>
</g>
</g>
</svg>
