<?xml version="1.0" encoding="UTF-8" standalone="no"?>
<!DOCTYPE svg PUBLIC "-//W3C//DTD SVG 1.1//EN"
 "http://www.w3.org/Graphics/SVG/1.1/DTD/svg11.dtd">
<!-- Generated by graphviz version 2.28.0 (20110507.0327)
 -->
<!-- Title: ClassDiagram Pages: 1 -->
<svg width="478pt" height="348pt"
 viewBox="0.00 0.00 478.00 348.00" xmlns="http://www.w3.org/2000/svg" xmlns:xlink="http://www.w3.org/1999/xlink">
<g id="graph1" class="graph" transform="scale(1 1) rotate(0) translate(4 344)">
<title>ClassDiagram</title>
<polygon fill="white" stroke="white" points="-4,5 -4,-344 475,-344 475,5 -4,5"/>
<!-- Professor -->
<g id="node1" class="node"><title>Professor</title>
<polygon fill="none" stroke="black" points="8,-290 8,-307 69,-307 69,-290 8,-290"/>
<text text-anchor="start" x="19" y="-296.5" font-family="Times New Roman,serif" font-size="10.00">Professor</text>
<polygon fill="none" stroke="black" points="8,-270 8,-290 69,-290 69,-270 8,-270"/>
<text text-anchor="start" x="13" y="-278" font-family="Times New Roman,serif" font-size="10.00">name :String</text>
<polygon fill="none" stroke="black" points="8,-250 8,-270 69,-270 69,-250 8,-250"/>
<text text-anchor="start" x="37" y="-258" font-family="Times New Roman,serif" font-size="10.00"> </text>
</g>
<!-- Topic -->
<g id="node2" class="node"><title>Topic</title>
<polygon fill="none" stroke="black" points="11,-153 11,-170 66,-170 66,-153 11,-153"/>
<text text-anchor="start" x="26.5" y="-159.5" font-family="Times New Roman,serif" font-size="10.00">Topic</text>
<polygon fill="none" stroke="black" points="11,-133 11,-153 66,-153 66,-133 11,-133"/>
<text text-anchor="start" x="16" y="-141" font-family="Times New Roman,serif" font-size="10.00">title :String</text>
<polygon fill="none" stroke="black" points="11,-113 11,-133 66,-133 66,-113 11,-113"/>
<text text-anchor="start" x="37" y="-121" font-family="Times New Roman,serif" font-size="10.00"> </text>
</g>
<!-- Professor&#45;&gt;Topic -->
<g id="edge2" class="edge"><title>Professor&#45;&gt;Topic</title>
<path fill="none" stroke="black" d="M38,-246.348C38,-224.839 38,-196.487 38,-174.921"/>
<text text-anchor="middle" x="42.2262" y="-181.484" font-family="Times New Roman,serif" font-size="10.00">topic</text>
<text text-anchor="middle" x="33.7738" y="-234.785" font-family="Times New Roman,serif" font-size="10.00">prof</text>
</g>
<!-- Room -->
<g id="node3" class="node"><title>Room</title>
<polygon fill="none" stroke="black" points="132,-297 132,-314 220,-314 220,-297 132,-297"/>
<text text-anchor="start" x="164" y="-303.5" font-family="Times New Roman,serif" font-size="10.00">Room</text>
<polygon fill="none" stroke="black" points="132,-263 132,-297 220,-297 220,-263 132,-263"/>
<text text-anchor="start" x="137" y="-285" font-family="Times New Roman,serif" font-size="10.00">roomNo :String</text>
<text text-anchor="start" x="137" y="-271" font-family="Times New Roman,serif" font-size="10.00">credits :int</text>
<polygon fill="none" stroke="black" points="132,-243 132,-263 220,-263 220,-243 132,-243"/>
<text text-anchor="start" x="137" y="-251" font-family="Times New Roman,serif" font-size="10.00">findPath(String,int)</text>
</g>
<!-- Room&#45;&gt;Room -->
<g id="edge4" class="edge"><title>Room&#45;&gt;Room</title>
<path fill="none" stroke="black" d="M228.202,-303.448C238.592,-300.696 246,-292.547 246,-279 246,-265.453 238.592,-257.304 228.202,-254.552"/>
<text text-anchor="middle" x="238.13" y="-250.849" font-family="Times New Roman,serif" font-size="10.00">neighbors</text>
<text text-anchor="middle" x="235.505" y="-294.116" font-family="Times New Roman,serif" font-size="10.00">neighbors</text>
</g>
<!-- Student -->
<g id="node4" class="node"><title>Student</title>
<polygon fill="none" stroke="black" points="108,-160 108,-177 169,-177 169,-160 108,-160"/>
<text text-anchor="start" x="122.5" y="-166.5" font-family="Times New Roman,serif" font-size="10.00">Student</text>
<polygon fill="none" stroke="black" points="108,-126 108,-160 169,-160 169,-126 108,-126"/>
<text text-anchor="start" x="113" y="-148" font-family="Times New Roman,serif" font-size="10.00">name :String</text>
<text text-anchor="start" x="113" y="-134" font-family="Times New Roman,serif" font-size="10.00">matrNo :int</text>
<polygon fill="none" stroke="black" points="108,-106 108,-126 169,-126 169,-106 108,-106"/>
<text text-anchor="start" x="137" y="-114" font-family="Times New Roman,serif" font-size="10.00"> </text>
</g>
<!-- Room&#45;&gt;Student -->
<g id="edge6" class="edge"><title>Room&#45;&gt;Student</title>
<path fill="none" stroke="black" d="M165.111,-239.314C160.023,-221.238 153.979,-199.768 148.891,-181.691"/>
<text text-anchor="middle" x="155.415" y="-186.77" font-family="Times New Roman,serif" font-size="10.00">students</text>
<text text-anchor="middle" x="158.587" y="-229.235" font-family="Times New Roman,serif" font-size="10.00">in</text>
</g>
<!-- University -->
<g id="node6" class="node"><title>University</title>
<polygon fill="none" stroke="black" points="141,-44 141,-61 202,-61 202,-44 141,-44"/>
<text text-anchor="start" x="150" y="-50.5" font-family="Times New Roman,serif" font-size="10.00">University</text>
<polygon fill="none" stroke="black" points="141,-24 141,-44 202,-44 202,-24 141,-24"/>
<text text-anchor="start" x="146" y="-32" font-family="Times New Roman,serif" font-size="10.00">name :String</text>
<polygon fill="none" stroke="black" points="141,-4 141,-24 202,-24 202,-4 141,-4"/>
<text text-anchor="start" x="170" y="-12" font-family="Times New Roman,serif" font-size="10.00"> </text>
</g>
<!-- Room&#45;&gt;University -->
<g id="edge8" class="edge"><title>Room&#45;&gt;University</title>
<path fill="none" stroke="black" d="M181.342,-239.462C185.493,-203.747 189.806,-149.179 185,-102 183.778,-90.0089 181.375,-77.0099 178.899,-65.6201"/>
<text text-anchor="middle" x="184.925" y="-71.1007" font-family="Times New Roman,serif" font-size="10.00">uni</text>
<text text-anchor="middle" x="178.134" y="-227.49" font-family="Times New Roman,serif" font-size="10.00">rooms</text>
</g>
<!-- Student&#45;&gt;University -->
<g id="edge10" class="edge"><title>Student&#45;&gt;University</title>
<path fill="none" stroke="black" d="M149.914,-102.371C153.643,-90.2786 157.712,-77.0858 161.272,-65.5428"/>
<text text-anchor="middle" x="162.639" y="-72.9489" font-family="Times New Roman,serif" font-size="10.00">uni</text>
<text text-anchor="middle" x="148.546" y="-89.9645" font-family="Times New Roman,serif" font-size="10.00">students</text>
</g>
<!-- StudyRightClassesCodeGen -->
<g id="node5" class="node"><title>StudyRightClassesCodeGen</title>
<polygon fill="none" stroke="black" points="272,-318 272,-335 462,-335 462,-318 272,-318"/>
<text text-anchor="start" x="310" y="-324.5" font-family="Times New Roman,serif" font-size="10.00">StudyRightClassesCodeGen</text>
<polygon fill="none" stroke="black" points="272,-298 272,-318 462,-318 462,-298 272,-298"/>
<text text-anchor="start" x="365.5" y="-306" font-family="Times New Roman,serif" font-size="10.00"> </text>
<polygon fill="none" stroke="black" points="272,-222 272,-298 462,-298 462,-222 272,-222"/>
<text text-anchor="start" x="277" y="-286" font-family="Times New Roman,serif" font-size="10.00">testStudyRightOneToOneAssoc()</text>
<text text-anchor="start" x="277" y="-272" font-family="Times New Roman,serif" font-size="10.00">testStudyRightReverseClassModel()</text>
<text text-anchor="start" x="277" y="-258" font-family="Times New Roman,serif" font-size="10.00">testStudyRightExtendsReverseClassModel()</text>
<text text-anchor="start" x="277" y="-244" font-family="Times New Roman,serif" font-size="10.00">testStudyRightObjectScenarios()</text>
<text text-anchor="start" x="277" y="-230" font-family="Times New Roman,serif" font-size="10.00">testStudyRightClassesCodeGen()</text>
</g>
</g>
</svg>
