<?xml version="1.0" encoding="UTF-8" standalone="no"?>
<!DOCTYPE svg PUBLIC "-//W3C//DTD SVG 1.1//EN"
 "http://www.w3.org/Graphics/SVG/1.1/DTD/svg11.dtd">
<!-- Generated by graphviz version 2.28.0 (20110507.0327)
 -->
<!-- Title: ObjectDiagram Pages: 1 -->
<svg width="664pt" height="672pt"
 viewBox="0.00 0.00 664.00 672.00" xmlns="http://www.w3.org/2000/svg" xmlns:xlink="http://www.w3.org/1999/xlink">
<g id="graph1" class="graph" transform="scale(1 1) rotate(0) translate(4 668)">
<title>ObjectDiagram</title>
<polygon fill="white" stroke="white" points="-4,5 -4,-668 661,-668 661,5 -4,5"/>
<!-- u1 -->
<g id="node1" class="node"><title>u1</title>
<polygon fill="none" stroke="black" points="500,-642 500,-659 597,-659 597,-642 500,-642"/>
<text text-anchor="start" x="518.5" y="-648.5" font-family="Times New Roman,serif" font-size="10.00"> </text>
<text text-anchor="start" x="521.5" y="-648.5" font-family="Times New Roman,serif" font-size="10.00">u1 :University</text>
<polygon fill="none" stroke="black" points="500,-622 500,-642 597,-642 597,-622 500,-622"/>
<text text-anchor="start" x="505.5" y="-630" font-family="Times New Roman,serif" font-size="10.00">name = &quot;StudyRight&quot;</text>
</g>
<!-- s2 -->
<g id="node2" class="node"><title>s2</title>
<polygon fill="none" stroke="black" points="361,-560 361,-577 431,-577 431,-560 361,-560"/>
<text text-anchor="start" x="371.5" y="-566.5" font-family="Times New Roman,serif" font-size="10.00"> </text>
<text text-anchor="start" x="374.5" y="-566.5" font-family="Times New Roman,serif" font-size="10.00">s2 :Student</text>
<polygon fill="none" stroke="black" points="361,-540 361,-560 431,-560 431,-540 361,-540"/>
<text text-anchor="start" x="366.5" y="-548" font-family="Times New Roman,serif" font-size="10.00">name = &quot;Karli&quot;</text>
</g>
<!-- u1&#45;&#45;s2 -->
<g id="edge2" class="edge"><title>u1&#45;&#45;s2</title>
<path fill="none" stroke="black" d="M506.867,-618.351C485.15,-606.921 458.585,-592.939 436.903,-581.528"/>
<text text-anchor="middle" x="446.891" y="-579.509" font-family="Times New Roman,serif" font-size="10.00">students</text>
<text text-anchor="middle" x="496.878" y="-615.37" font-family="Times New Roman,serif" font-size="10.00">university</text>
</g>
<!-- r3 -->
<g id="node3" class="node"><title>r3</title>
<polygon fill="none" stroke="black" points="332,-478 332,-495 410,-495 410,-478 332,-478"/>
<text text-anchor="start" x="351.5" y="-484.5" font-family="Times New Roman,serif" font-size="10.00"> </text>
<text text-anchor="start" x="354.5" y="-484.5" font-family="Times New Roman,serif" font-size="10.00">r3 :Room</text>
<polygon fill="none" stroke="black" points="332,-430 332,-478 410,-478 410,-430 332,-430"/>
<text text-anchor="start" x="337.5" y="-466" font-family="Times New Roman,serif" font-size="10.00">name = &quot;senate&quot;</text>
<text text-anchor="start" x="341.5" y="-452" font-family="Times New Roman,serif" font-size="10.00">topic = &quot;math&quot;</text>
<text text-anchor="start" x="348" y="-438" font-family="Times New Roman,serif" font-size="10.00">credits = 17</text>
</g>
<!-- u1&#45;&#45;r3 -->
<g id="edge4" class="edge"><title>u1&#45;&#45;r3</title>
<path fill="none" stroke="black" d="M527.645,-618.163C507.667,-596.892 476.179,-563.789 448,-536 435.881,-524.049 422.405,-511.279 410.158,-499.862"/>
<text text-anchor="middle" x="419.666" y="-500.459" font-family="Times New Roman,serif" font-size="10.00">rooms</text>
<text text-anchor="middle" x="518.356" y="-611.96" font-family="Times New Roman,serif" font-size="10.00">university</text>
</g>
<!-- r4 -->
<g id="node4" class="node"><title>r4</title>
<polygon fill="none" stroke="black" points="8,-368 8,-385 77,-385 77,-368 8,-368"/>
<text text-anchor="start" x="23" y="-374.5" font-family="Times New Roman,serif" font-size="10.00"> </text>
<text text-anchor="start" x="26" y="-374.5" font-family="Times New Roman,serif" font-size="10.00">r4 :Room</text>
<polygon fill="none" stroke="black" points="8,-320 8,-368 77,-368 77,-320 8,-320"/>
<text text-anchor="start" x="13.5" y="-356" font-family="Times New Roman,serif" font-size="10.00">name = &quot;7522&quot;</text>
<text text-anchor="start" x="15" y="-342" font-family="Times New Roman,serif" font-size="10.00">topic = &quot;arts&quot;</text>
<text text-anchor="start" x="19.5" y="-328" font-family="Times New Roman,serif" font-size="10.00">credits = 16</text>
</g>
<!-- u1&#45;&#45;r4 -->
<g id="edge6" class="edge"><title>u1&#45;&#45;r4</title>
<path fill="none" stroke="black" d="M491.4,-629.788C449.266,-620.81 391.137,-605.462 344,-582 239.02,-529.747 133.612,-439.514 79.4116,-389.669"/>
<text text-anchor="middle" x="88.9646" y="-390.125" font-family="Times New Roman,serif" font-size="10.00">rooms</text>
<text text-anchor="middle" x="481.64" y="-629.464" font-family="Times New Roman,serif" font-size="10.00">university</text>
</g>
<!-- r5 -->
<g id="node5" class="node"><title>r5</title>
<polygon fill="none" stroke="black" points="117,-258 117,-275 214,-275 214,-258 117,-258"/>
<text text-anchor="start" x="146" y="-264.5" font-family="Times New Roman,serif" font-size="10.00"> </text>
<text text-anchor="start" x="149" y="-264.5" font-family="Times New Roman,serif" font-size="10.00">r5 :Room</text>
<polygon fill="none" stroke="black" points="117,-210 117,-258 214,-258 214,-210 117,-210"/>
<text text-anchor="start" x="122.5" y="-246" font-family="Times New Roman,serif" font-size="10.00">name = &quot;gymnasium&quot;</text>
<text text-anchor="start" x="133" y="-232" font-family="Times New Roman,serif" font-size="10.00">topic = &quot;sports&quot;</text>
<text text-anchor="start" x="142.5" y="-218" font-family="Times New Roman,serif" font-size="10.00">credits = 25</text>
</g>
<!-- u1&#45;&#45;r5 -->
<g id="edge8" class="edge"><title>u1&#45;&#45;r5</title>
<path fill="none" stroke="black" d="M557.625,-618.354C581.347,-561.332 635.487,-405.251 561,-316 518.409,-264.967 320.414,-250.021 221.519,-245.71"/>
<text text-anchor="middle" x="230.784" y="-239.447" font-family="Times New Roman,serif" font-size="10.00">rooms</text>
<text text-anchor="middle" x="557.026" y="-605.872" font-family="Times New Roman,serif" font-size="10.00">university</text>
</g>
<!-- r6 -->
<g id="node6" class="node"><title>r6</title>
<polygon fill="none" stroke="black" points="123,-148 123,-165 208,-165 208,-148 123,-148"/>
<text text-anchor="start" x="146" y="-154.5" font-family="Times New Roman,serif" font-size="10.00"> </text>
<text text-anchor="start" x="149" y="-154.5" font-family="Times New Roman,serif" font-size="10.00">r6 :Room</text>
<polygon fill="none" stroke="black" points="123,-114 123,-148 208,-148 208,-114 123,-114"/>
<text text-anchor="start" x="128.5" y="-136" font-family="Times New Roman,serif" font-size="10.00">name = &quot;The End&quot;</text>
<text text-anchor="start" x="136" y="-122" font-family="Times New Roman,serif" font-size="10.00">topic = &quot;exam&quot;</text>
</g>
<!-- u1&#45;&#45;r6 -->
<g id="edge10" class="edge"><title>u1&#45;&#45;r6</title>
<path fill="none" stroke="black" d="M568.015,-618.334C576.569,-608.011 585.955,-595.079 592,-582 614.53,-533.252 618,-517.702 618,-464 618,-464 618,-464 618,-352 618,-176.097 333.855,-146.471 215.646,-141.758"/>
<text text-anchor="middle" x="224.935" y="-135.555" font-family="Times New Roman,serif" font-size="10.00">rooms</text>
<text text-anchor="middle" x="570.467" y="-606.139" font-family="Times New Roman,serif" font-size="10.00">university</text>
</g>
<!-- r7 -->
<g id="node7" class="node"><title>r7</title>
<polygon fill="none" stroke="black" points="97,-52 97,-69 233,-69 233,-52 97,-52"/>
<text text-anchor="start" x="145.5" y="-58.5" font-family="Times New Roman,serif" font-size="10.00"> </text>
<text text-anchor="start" x="148.5" y="-58.5" font-family="Times New Roman,serif" font-size="10.00">r7 :Room</text>
<polygon fill="none" stroke="black" points="97,-4 97,-52 233,-52 233,-4 97,-4"/>
<text text-anchor="start" x="136" y="-40" font-family="Times New Roman,serif" font-size="10.00">name = &quot;7422&quot;</text>
<text text-anchor="start" x="102.5" y="-26" font-family="Times New Roman,serif" font-size="10.00">topic = &quot;Software Engineering&quot;</text>
<text text-anchor="start" x="142" y="-12" font-family="Times New Roman,serif" font-size="10.00">credits = 42</text>
</g>
<!-- u1&#45;&#45;r7 -->
<g id="edge12" class="edge"><title>u1&#45;&#45;r7</title>
<path fill="none" stroke="black" d="M579.595,-618.32C592.045,-608.455 605.589,-595.88 615,-582 646.158,-536.047 656,-519.52 656,-464 656,-464 656,-464 656,-242 656,-153.269 379.093,-82.7589 241.18,-53.1439"/>
<text text-anchor="middle" x="250.947" y="-48.4968" font-family="Times New Roman,serif" font-size="10.00">rooms</text>
<text text-anchor="middle" x="583.989" y="-606.837" font-family="Times New Roman,serif" font-size="10.00">university</text>
</g>
<!-- s2&#45;&#45;r3 -->
<g id="edge14" class="edge"><title>s2&#45;&#45;r3</title>
<path fill="none" stroke="black" d="M390.202,-536.198C387.317,-525.351 383.756,-511.962 380.487,-499.671"/>
<text text-anchor="middle" x="386.901" y="-504.844" font-family="Times New Roman,serif" font-size="10.00">in</text>
<text text-anchor="middle" x="383.788" y="-526.026" font-family="Times New Roman,serif" font-size="10.00">students</text>
</g>
<!-- r3&#45;&#45;r4 -->
<g id="edge16" class="edge"><title>r3&#45;&#45;r4</title>
<path fill="none" stroke="black" d="M323.838,-454.042C268.419,-443.675 174.454,-422.888 99,-390 94.1718,-387.896 89.2797,-385.419 84.4955,-382.765"/>
<text text-anchor="middle" x="94.4736" y="-380.927" font-family="Times New Roman,serif" font-size="10.00">doors</text>
<text text-anchor="middle" x="314.137" y="-453.973" font-family="Times New Roman,serif" font-size="10.00">doors</text>
</g>
<!-- r3&#45;&#45;r5 -->
<g id="edge18" class="edge"><title>r3&#45;&#45;r5</title>
<path fill="none" stroke="black" d="M323.835,-454.55C260.967,-443.545 154.94,-420.869 132,-390 108.13,-357.879 124.92,-311.569 142.09,-279.766"/>
<text text-anchor="middle" x="141.716" y="-287.259" font-family="Times New Roman,serif" font-size="10.00">doors</text>
<text text-anchor="middle" x="314.161" y="-454.583" font-family="Times New Roman,serif" font-size="10.00">doors</text>
</g>
<!-- a8 -->
<g id="node8" class="node"><title>a8</title>
<polygon fill="none" stroke="black" points="150,-361 150,-378 295,-378 295,-361 150,-361"/>
<text text-anchor="start" x="189.5" y="-367.5" font-family="Times New Roman,serif" font-size="10.00"> </text>
<text text-anchor="start" x="192.5" y="-367.5" font-family="Times New Roman,serif" font-size="10.00">a8 :Assignment</text>
<polygon fill="none" stroke="black" points="150,-327 150,-361 295,-361 295,-327 150,-327"/>
<text text-anchor="start" x="155.5" y="-349" font-family="Times New Roman,serif" font-size="10.00">content = &quot;Matrix Multiplication&quot;</text>
<text text-anchor="start" x="202.5" y="-335" font-family="Times New Roman,serif" font-size="10.00">points = 5</text>
</g>
<!-- r3&#45;&#45;a8 -->
<g id="edge20" class="edge"><title>r3&#45;&#45;a8</title>
<path fill="none" stroke="black" d="M323.855,-427.828C303.734,-413.244 280.522,-396.419 261.343,-382.517"/>
<text text-anchor="middle" x="271.161" y="-381.914" font-family="Times New Roman,serif" font-size="10.00">assignments</text>
<text text-anchor="middle" x="314.037" y="-423.431" font-family="Times New Roman,serif" font-size="10.00">room</text>
</g>
<!-- a9 -->
<g id="node9" class="node"><title>a9</title>
<polygon fill="none" stroke="black" points="329,-361 329,-378 414,-378 414,-361 329,-361"/>
<text text-anchor="start" x="338.5" y="-367.5" font-family="Times New Roman,serif" font-size="10.00"> </text>
<text text-anchor="start" x="341.5" y="-367.5" font-family="Times New Roman,serif" font-size="10.00">a9 :Assignment</text>
<polygon fill="none" stroke="black" points="329,-327 329,-361 414,-361 414,-327 329,-327"/>
<text text-anchor="start" x="334.5" y="-349" font-family="Times New Roman,serif" font-size="10.00">content = &quot;Series&quot;</text>
<text text-anchor="start" x="351.5" y="-335" font-family="Times New Roman,serif" font-size="10.00">points = 6</text>
</g>
<!-- r3&#45;&#45;a9 -->
<g id="edge22" class="edge"><title>r3&#45;&#45;a9</title>
<path fill="none" stroke="black" d="M371,-426.337C371,-412.206 371,-396.173 371,-382.799"/>
<text text-anchor="middle" x="375.226" y="-389.362" font-family="Times New Roman,serif" font-size="10.00">assignments</text>
<text text-anchor="middle" x="366.774" y="-414.774" font-family="Times New Roman,serif" font-size="10.00">room</text>
</g>
<!-- a10 -->
<g id="node10" class="node"><title>a10</title>
<polygon fill="none" stroke="black" points="448,-361 448,-378 544,-378 544,-361 448,-361"/>
<text text-anchor="start" x="461" y="-367.5" font-family="Times New Roman,serif" font-size="10.00"> </text>
<text text-anchor="start" x="464" y="-367.5" font-family="Times New Roman,serif" font-size="10.00">a10 :Assignment</text>
<polygon fill="none" stroke="black" points="448,-327 448,-361 544,-361 544,-327 448,-327"/>
<text text-anchor="start" x="453.5" y="-349" font-family="Times New Roman,serif" font-size="10.00">content = &quot;Integrals&quot;</text>
<text text-anchor="start" x="476" y="-335" font-family="Times New Roman,serif" font-size="10.00">points = 8</text>
</g>
<!-- r3&#45;&#45;a10 -->
<g id="edge24" class="edge"><title>r3&#45;&#45;a10</title>
<path fill="none" stroke="black" d="M412.276,-426.337C428.632,-412.206 447.188,-396.173 462.668,-382.799"/>
<text text-anchor="middle" x="458.573" y="-389.422" font-family="Times New Roman,serif" font-size="10.00">assignments</text>
<text text-anchor="middle" x="416.371" y="-414.714" font-family="Times New Roman,serif" font-size="10.00">room</text>
</g>
<!-- r4&#45;&#45;r5 -->
<g id="edge26" class="edge"><title>r4&#45;&#45;r5</title>
<path fill="none" stroke="black" d="M82.6157,-316.337C96.0509,-304.541 110.995,-291.419 124.427,-279.625"/>
<text text-anchor="middle" x="120.405" y="-286.281" font-family="Times New Roman,serif" font-size="10.00">doors</text>
<text text-anchor="middle" x="86.6376" y="-304.682" font-family="Times New Roman,serif" font-size="10.00">doors</text>
</g>
<!-- r4&#45;&#45;r6 -->
<g id="edge28" class="edge"><title>r4&#45;&#45;r6</title>
<path fill="none" stroke="black" d="M51.311,-316.39C60.4153,-285.532 76.2431,-240.536 99,-206 107.672,-192.84 119.376,-180.23 130.521,-169.677"/>
<text text-anchor="middle" x="126.915" y="-176.505" font-family="Times New Roman,serif" font-size="10.00">doors</text>
<text text-anchor="middle" x="49.9012" y="-303.99" font-family="Times New Roman,serif" font-size="10.00">doors</text>
</g>
<!-- r4&#45;&#45;r7 -->
<g id="edge30" class="edge"><title>r4&#45;&#45;r7</title>
<path fill="none" stroke="black" d="M43.2657,-316.269C45.0668,-286.318 49.43,-242.689 60,-206 73.0451,-160.72 79.7092,-149.76 105,-110 112.947,-97.5064 122.826,-84.7972 132.259,-73.6044"/>
<text text-anchor="middle" x="129.693" y="-80.7696" font-family="Times New Roman,serif" font-size="10.00">doors</text>
<text text-anchor="middle" x="39.6476" y="-304.446" font-family="Times New Roman,serif" font-size="10.00">doors</text>
</g>
<!-- r5&#45;&#45;r6 -->
<g id="edge32" class="edge"><title>r5&#45;&#45;r6</title>
<path fill="none" stroke="black" d="M165,-206.391C165,-194.351 165,-181.07 165,-169.641"/>
<text text-anchor="middle" x="169.226" y="-176.204" font-family="Times New Roman,serif" font-size="10.00">doors</text>
<text text-anchor="middle" x="160.774" y="-194.828" font-family="Times New Roman,serif" font-size="10.00">doors</text>
</g>
<!-- r6&#45;&#45;r7 -->
<g id="edge34" class="edge"><title>r6&#45;&#45;r7</title>
<path fill="none" stroke="black" d="M165,-110.328C165,-98.8968 165,-85.6185 165,-73.5822"/>
<text text-anchor="middle" x="169.226" y="-80.1453" font-family="Times New Roman,serif" font-size="10.00">doors</text>
<text text-anchor="middle" x="160.774" y="-98.7645" font-family="Times New Roman,serif" font-size="10.00">doors</text>
</g>
</g>
</svg>
