<?xml version="1.0" encoding="UTF-8" standalone="no"?>
<!DOCTYPE svg PUBLIC "-//W3C//DTD SVG 1.1//EN"
 "http://www.w3.org/Graphics/SVG/1.1/DTD/svg11.dtd">
<!-- Generated by graphviz version 2.28.0 (20110507.0327)
 -->
<!-- Title: ClassDiagram Pages: 1 -->
<svg width="493pt" height="506pt"
 viewBox="0.00 0.00 493.00 506.00" xmlns="http://www.w3.org/2000/svg" xmlns:xlink="http://www.w3.org/1999/xlink">
<g id="graph1" class="graph" transform="scale(1 1) rotate(0) translate(4 502)">
<title>ClassDiagram</title>
<polygon fill="white" stroke="white" points="-4,5 -4,-502 490,-502 490,5 -4,5"/>
<!-- _Female -->
<g id="node1" class="node"><title>_Female</title>
<a xlink:href="../examples/org/sdmlib/examples/studyrightextends/Female.java" xlink:title="&lt;TABLE&gt;">
<polygon fill="none" stroke="black" points="288,-346 288,-363 405,-363 405,-346 288,-346"/>
<text text-anchor="start" x="332.5" y="-352.5" font-family="Times New Roman,serif" font-size="10.00">Female</text>
</a>
<polygon fill="none" stroke="black" points="288,-326 288,-346 405,-346 405,-326 288,-326"/>
<text text-anchor="start" x="293" y="-334" font-family="Times New Roman,serif" font-size="10.00">name :String</text>
<polygon fill="none" stroke="black" points="288,-264 288,-326 405,-326 405,-264 288,-264"/>
<text text-anchor="start" x="293" y="-314" font-family="Times New Roman,serif" font-size="10.00">findMyPosition()</text>
<text text-anchor="start" x="293" y="-300" font-family="Times New Roman,serif" font-size="10.00">findMyPosition(String)</text>
<text text-anchor="start" x="293" y="-286" font-family="Times New Roman,serif" font-size="10.00">findMyPosition(String,int)</text>
<text text-anchor="start" x="293" y="-272" font-family="Times New Roman,serif" font-size="10.00">toString()</text>
</g>
<!-- _Professor -->
<g id="node5" class="node"><title>_Professor</title>
<a xlink:href="../examples/org/sdmlib/examples/studyrightextends/Professor.java" xlink:title="&lt;TABLE&gt;">
<polygon fill="none" stroke="black" points="194,-174 194,-191 248,-191 248,-174 194,-174"/>
<text text-anchor="start" x="201.5" y="-180.5" font-family="Times New Roman,serif" font-size="10.00">Professor</text>
</a>
<polygon fill="none" stroke="black" points="194,-154 194,-174 248,-174 248,-154 194,-154"/>
<text text-anchor="start" x="199" y="-162" font-family="Times New Roman,serif" font-size="10.00">PersNr :int</text>
<polygon fill="none" stroke="black" points="194,-134 194,-154 248,-154 248,-134 194,-134"/>
<text text-anchor="start" x="199" y="-142" font-family="Times New Roman,serif" font-size="10.00">toString()</text>
</g>
<!-- _Female&#45;&gt;_Professor -->
<g id="edge2" class="edge"><title>_Female&#45;&gt;_Professor</title>
<path fill="none" stroke="black" d="M291.515,-252.791C283.189,-243.256 274.783,-233.43 267,-224 259.564,-214.99 251.738,-204.993 244.693,-195.785"/>
<polygon fill="none" stroke="black" points="288.934,-255.156 298.161,-260.363 294.195,-250.539 288.934,-255.156"/>
</g>
<!-- _Student -->
<g id="node7" class="node"><title>_Student</title>
<a xlink:href="../examples/org/sdmlib/examples/studyrightextends/Student.java" xlink:title="&lt;TABLE&gt;">
<polygon fill="none" stroke="black" points="285,-202 285,-219 402,-219 402,-202 285,-202"/>
<text text-anchor="start" x="327.5" y="-208.5" font-family="Times New Roman,serif" font-size="10.00">Student</text>
</a>
<polygon fill="none" stroke="black" points="285,-168 285,-202 402,-202 402,-168 285,-168"/>
<text text-anchor="start" x="290" y="-190" font-family="Times New Roman,serif" font-size="10.00">name :String</text>
<text text-anchor="start" x="290" y="-176" font-family="Times New Roman,serif" font-size="10.00">matrNo :int</text>
<polygon fill="none" stroke="black" points="285,-106 285,-168 402,-168 402,-106 285,-106"/>
<text text-anchor="start" x="290" y="-156" font-family="Times New Roman,serif" font-size="10.00">findMyPosition()</text>
<text text-anchor="start" x="290" y="-142" font-family="Times New Roman,serif" font-size="10.00">findMyPosition(String)</text>
<text text-anchor="start" x="290" y="-128" font-family="Times New Roman,serif" font-size="10.00">findMyPosition(String,int)</text>
<text text-anchor="start" x="290" y="-114" font-family="Times New Roman,serif" font-size="10.00">toString()</text>
</g>
<!-- _Female&#45;&gt;_Student -->
<g id="edge4" class="edge"><title>_Female&#45;&gt;_Student</title>
<path fill="none" stroke="black" d="M344.737,-250.265C344.56,-241.46 344.378,-232.43 344.202,-223.683"/>
<polygon fill="none" stroke="black" points="341.242,-250.541 344.942,-260.468 348.24,-250.4 341.242,-250.541"/>
</g>
<!-- _Lecture -->
<g id="node2" class="node"><title>_Lecture</title>
<a xlink:href="../examples/org/sdmlib/examples/studyrightextends/Lecture.java" xlink:title="&lt;TABLE&gt;">
<polygon fill="none" stroke="black" points="157,-325 157,-342 215,-342 215,-325 157,-325"/>
<text text-anchor="start" x="170.5" y="-331.5" font-family="Times New Roman,serif" font-size="10.00">Lecture</text>
</a>
<polygon fill="none" stroke="black" points="157,-305 157,-325 215,-325 215,-305 157,-305"/>
<text text-anchor="start" x="162" y="-313" font-family="Times New Roman,serif" font-size="10.00">Title :String</text>
<polygon fill="none" stroke="black" points="157,-285 157,-305 215,-305 215,-285 157,-285"/>
<text text-anchor="start" x="162" y="-293" font-family="Times New Roman,serif" font-size="10.00">toString()</text>
</g>
<!-- _Lecture&#45;&gt;_Professor -->
<g id="edge26" class="edge"><title>_Lecture&#45;&gt;_Professor</title>
<path fill="none" stroke="black" d="M193.423,-281.401C199.362,-256.115 207.651,-220.827 213.588,-195.554"/>
<text text-anchor="middle" x="215.63" y="-202.843" font-family="Times New Roman,serif" font-size="10.00">has</text>
<text text-anchor="middle" x="191.381" y="-269.112" font-family="Times New Roman,serif" font-size="10.00">lecture *</text>
</g>
<!-- _Room -->
<g id="node6" class="node"><title>_Room</title>
<a xlink:href="../examples/org/sdmlib/examples/studyrightextends/Room.java" xlink:title="&lt;TABLE&gt;">
<polygon fill="none" stroke="black" points="29,-195 29,-212 142,-212 142,-195 29,-195"/>
<text text-anchor="start" x="73.5" y="-201.5" font-family="Times New Roman,serif" font-size="10.00">Room</text>
</a>
<polygon fill="none" stroke="black" points="29,-161 29,-195 142,-195 142,-161 29,-161"/>
<text text-anchor="start" x="34" y="-183" font-family="Times New Roman,serif" font-size="10.00">roomNo :String</text>
<text text-anchor="start" x="34" y="-169" font-family="Times New Roman,serif" font-size="10.00">credits :int</text>
<polygon fill="none" stroke="black" points="29,-113 29,-161 142,-161 142,-113 29,-113"/>
<text text-anchor="start" x="34" y="-149" font-family="Times New Roman,serif" font-size="10.00">studentCount()</text>
<text text-anchor="start" x="34" y="-135" font-family="Times New Roman,serif" font-size="10.00">toString()</text>
<text text-anchor="start" x="34" y="-121" font-family="Times New Roman,serif" font-size="10.00">getNeighborsTransitive()</text>
</g>
<!-- _Lecture&#45;&gt;_Room -->
<g id="edge24" class="edge"><title>_Lecture&#45;&gt;_Room</title>
<path fill="none" stroke="black" d="M164.58,-281.401C151.841,-262.607 135.357,-238.289 120.698,-216.663"/>
<text text-anchor="middle" x="129.281" y="-219.294" font-family="Times New Roman,serif" font-size="10.00">in</text>
<text text-anchor="middle" x="155.997" y="-273.77" font-family="Times New Roman,serif" font-size="10.00">lecture *</text>
</g>
<!-- _Lecture&#45;&gt;_Student -->
<g id="edge28" class="edge"><title>_Lecture&#45;&gt;_Student</title>
<path fill="none" stroke="black" d="M215.854,-281.263C222.71,-274.174 230.035,-266.758 237,-260 249.563,-247.811 263.245,-235.055 276.478,-222.969"/>
<text text-anchor="middle" x="272.646" y="-229.706" font-family="Times New Roman,serif" font-size="10.00">listen</text>
<text text-anchor="middle" x="219.128" y="-269.314" font-family="Times New Roman,serif" font-size="10.00">lecture *</text>
</g>
<!-- _Male -->
<g id="node3" class="node"><title>_Male</title>
<a xlink:href="../examples/org/sdmlib/examples/studyrightextends/Male.java" xlink:title="&lt;TABLE&gt;">
<polygon fill="none" stroke="lightgrey" points="444,-325 444,-342 472,-342 472,-325 444,-325"/>
<text text-anchor="start" x="447.5" y="-331.5" font-family="Times New Roman,serif" font-size="10.00">Male</text>
</a>
<polygon fill="none" stroke="lightgrey" points="444,-305 444,-325 472,-325 472,-305 444,-305"/>
<text text-anchor="start" x="456.5" y="-313" font-family="Times New Roman,serif" font-size="10.00"> </text>
<polygon fill="none" stroke="lightgrey" points="444,-285 444,-305 472,-305 472,-285 444,-285"/>
<text text-anchor="start" x="456.5" y="-293" font-family="Times New Roman,serif" font-size="10.00"> </text>
</g>
<!-- _Male&#45;&gt;_Student -->
<g id="edge18" class="edge"><title>_Male&#45;&gt;_Student</title>
<path fill="none" stroke="black" d="M430.491,-272.929C427.335,-268.533 424.128,-264.15 421,-260 412.017,-248.082 402.162,-235.559 392.571,-223.639"/>
<polygon fill="none" stroke="black" points="427.819,-275.212 436.46,-281.341 433.527,-271.16 427.819,-275.212"/>
</g>
<!-- _Person -->
<g id="node4" class="node"><title>_Person</title>
<a xlink:href="../examples/org/sdmlib/examples/studyrightextends/Person.java" xlink:title="&lt;TABLE&gt;">
<polygon fill="none" stroke="lightgrey" points="344,-476 344,-493 461,-493 461,-476 344,-476"/>
<text text-anchor="start" x="388.5" y="-482.5" font-family="Times New Roman,serif" font-size="10.00">Person</text>
</a>
<polygon fill="none" stroke="lightgrey" points="344,-456 344,-476 461,-476 461,-456 344,-456"/>
<text text-anchor="start" x="401" y="-464" font-family="Times New Roman,serif" font-size="10.00"> </text>
<polygon fill="none" stroke="lightgrey" points="344,-408 344,-456 461,-456 461,-408 344,-408"/>
<text text-anchor="start" x="349" y="-444" font-family="Times New Roman,serif" font-size="10.00">findMyPosition()</text>
<text text-anchor="start" x="349" y="-430" font-family="Times New Roman,serif" font-size="10.00">findMyPosition(String)</text>
<text text-anchor="start" x="349" y="-416" font-family="Times New Roman,serif" font-size="10.00">findMyPosition(String,int)</text>
</g>
<!-- _Person&#45;&gt;_Female -->
<g id="edge6" class="edge"><title>_Person&#45;&gt;_Female</title>
<path fill="none" stroke="black" d="M379.191,-395.015C375.441,-385.974 371.562,-376.623 367.836,-367.642"/>
<polygon fill="none" stroke="black" points="375.976,-396.399 383.041,-404.295 382.442,-393.717 375.976,-396.399"/>
</g>
<!-- _Person&#45;&gt;_Male -->
<g id="edge12" class="edge"><title>_Person&#45;&gt;_Male</title>
<path fill="none" stroke="black" d="M424.906,-394.781C431.712,-378.374 438.933,-360.964 444.888,-346.609"/>
<polygon fill="none" stroke="black" points="421.558,-393.717 420.959,-404.295 428.024,-396.399 421.558,-393.717"/>
</g>
<!-- _Room&#45;&gt;_Room -->
<g id="edge30" class="edge"><title>_Room&#45;&gt;_Room</title>
<path fill="none" stroke="black" d="M149.288,-185.553C159.785,-182.324 167,-174.807 167,-163 167,-151.193 159.785,-143.676 149.288,-140.447"/>
<text text-anchor="middle" x="159.247" y="-137.042" font-family="Times New Roman,serif" font-size="10.00">neighbors *</text>
<text text-anchor="middle" x="156.383" y="-176.006" font-family="Times New Roman,serif" font-size="10.00">neighbors *</text>
</g>
<!-- _University -->
<g id="node8" class="node"><title>_University</title>
<a xlink:href="../examples/org/sdmlib/examples/studyrightextends/University.java" xlink:title="&lt;TABLE&gt;">
<polygon fill="none" stroke="black" points="8,-44 8,-61 69,-61 69,-44 8,-44"/>
<text text-anchor="start" x="17" y="-50.5" font-family="Times New Roman,serif" font-size="10.00">University</text>
</a>
<polygon fill="none" stroke="black" points="8,-24 8,-44 69,-44 69,-24 8,-24"/>
<text text-anchor="start" x="13" y="-32" font-family="Times New Roman,serif" font-size="10.00">name :String</text>
<polygon fill="none" stroke="black" points="8,-4 8,-24 69,-24 69,-4 8,-4"/>
<text text-anchor="start" x="13" y="-12" font-family="Times New Roman,serif" font-size="10.00">toString()</text>
</g>
<!-- _Room&#45;&gt;_University -->
<g id="edge32" class="edge"><title>_Room&#45;&gt;_University</title>
<path fill="none" stroke="black" d="M65.6119,-109.199C60.2006,-94.4613 54.4891,-78.9065 49.6736,-65.7921"/>
<text text-anchor="middle" x="56.7648" y="-70.343" font-family="Times New Roman,serif" font-size="10.00">uni</text>
<text text-anchor="middle" x="58.5208" y="-99.6475" font-family="Times New Roman,serif" font-size="10.00">rooms *</text>
</g>
<!-- _PropertyChangeInterface -->
<g id="node9" class="node"><title>_PropertyChangeInterface</title>
<a xlink:href="../examples/org/sdmlib/utils/PropertyChangeInterface.java" xlink:title="&lt;TABLE&gt;">
<polygon fill="none" stroke="lightgrey" points="99,-462 99,-479 207,-479 207,-462 99,-462"/>
<text text-anchor="start" x="102.5" y="-468.5" font-family="Times New Roman,serif" font-size="10.00">PropertyChangeInterface</text>
</a>
<polygon fill="none" stroke="lightgrey" points="99,-442 99,-462 207,-462 207,-442 99,-442"/>
<text text-anchor="start" x="151.5" y="-450" font-family="Times New Roman,serif" font-size="10.00"> </text>
<polygon fill="none" stroke="lightgrey" points="99,-422 99,-442 207,-442 207,-422 99,-422"/>
<text text-anchor="start" x="151.5" y="-430" font-family="Times New Roman,serif" font-size="10.00"> </text>
</g>
<!-- _PropertyChangeInterface&#45;&gt;_Female -->
<g id="edge8" class="edge"><title>_PropertyChangeInterface&#45;&gt;_Female</title>
<path fill="none" stroke="black" d="M206.685,-412.448C229.231,-396.678 255.687,-378.172 279.453,-361.549"/>
<polygon fill="none" stroke="black" points="204.438,-409.749 198.25,-418.348 208.45,-415.485 204.438,-409.749"/>
</g>
<!-- _PropertyChangeInterface&#45;&gt;_Lecture -->
<g id="edge10" class="edge"><title>_PropertyChangeInterface&#45;&gt;_Lecture</title>
<path fill="none" stroke="black" d="M163.112,-408.634C167.964,-388.785 173.687,-365.37 178.197,-346.921"/>
<polygon fill="none" stroke="black" points="159.712,-407.803 160.737,-418.348 166.512,-409.466 159.712,-407.803"/>
</g>
<!-- _PropertyChangeInterface&#45;&gt;_Professor -->
<g id="edge14" class="edge"><title>_PropertyChangeInterface&#45;&gt;_Professor</title>
<path fill="none" stroke="black" d="M139.819,-408.482C129.562,-368.791 120.096,-308.052 140,-260 148.659,-239.095 161.174,-241.094 176,-224 183.678,-215.147 191.519,-205.103 198.46,-195.8"/>
<polygon fill="none" stroke="black" points="136.499,-409.612 142.496,-418.346 143.254,-407.778 136.499,-409.612"/>
</g>
<!-- _PropertyChangeInterface&#45;&gt;_Room -->
<g id="edge16" class="edge"><title>_PropertyChangeInterface&#45;&gt;_Room</title>
<path fill="none" stroke="black" d="M137.716,-408.804C133.242,-395.857 128.593,-381.433 125,-368 111.432,-317.271 100.366,-258.308 93.3404,-216.858"/>
<polygon fill="none" stroke="black" points="134.462,-410.104 141.082,-418.376 141.066,-407.781 134.462,-410.104"/>
</g>
<!-- _PropertyChangeInterface&#45;&gt;_Student -->
<g id="edge20" class="edge"><title>_PropertyChangeInterface&#45;&gt;_Student</title>
<path fill="none" stroke="black" d="M196.992,-411.199C209.58,-398.409 222.46,-383.472 232,-368 258.707,-324.688 245.863,-304.795 270,-260 276.654,-247.65 284.826,-235.189 293.265,-223.521"/>
<polygon fill="none" stroke="black" points="194.29,-408.949 189.641,-418.469 199.212,-413.926 194.29,-408.949"/>
</g>
<!-- _PropertyChangeInterface&#45;&gt;_University -->
<g id="edge22" class="edge"><title>_PropertyChangeInterface&#45;&gt;_University</title>
<path fill="none" stroke="black" d="M118.115,-410.627C82.9953,-368.07 31.2141,-296.548 11,-224 -3.55362,-171.767 0.813746,-155.257 11,-102 13.3385,-89.7736 17.8433,-76.9429 22.5132,-65.7623"/>
<polygon fill="none" stroke="black" points="115.586,-413.059 124.684,-418.488 120.957,-408.57 115.586,-413.059"/>
</g>
</g>
</svg>
