<?xml version="1.0" encoding="UTF-8" standalone="no"?>
<!DOCTYPE svg PUBLIC "-//W3C//DTD SVG 1.1//EN"
 "http://www.w3.org/Graphics/SVG/1.1/DTD/svg11.dtd">
<!-- Generated by graphviz version 2.28.0 (20110507.0327)
 -->
<!-- Title: ObjectDiagram Pages: 1 -->
<svg width="310pt" height="426pt"
 viewBox="0.00 0.00 310.00 426.00" xmlns="http://www.w3.org/2000/svg" xmlns:xlink="http://www.w3.org/1999/xlink">
<g id="graph1" class="graph" transform="scale(1 1) rotate(0) translate(4 422)">
<title>ObjectDiagram</title>
<polygon fill="white" stroke="white" points="-4,5 -4,-422 307,-422 307,5 -4,5"/>
<!-- sportsRoom -->
<g id="node1" class="node"><title>sportsRoom</title>
<a xlink:href="../examples/org/sdmlib/examples/studyrightWithAssignments/model/Room.java" xlink:title="&lt;TABLE&gt;">
<polygon fill="none" stroke="black" points="99,-396 99,-413 204,-413 204,-396 99,-396"/>
<text text-anchor="start" x="107" y="-402.5" font-family="Arial" font-size="10.00"> </text>
<text text-anchor="start" x="111" y="-402.5" font-family="Arial" font-size="10.00">sportsRoom :Room</text>
</a>
<polygon fill="none" stroke="black" points="99,-348 99,-396 204,-396 204,-348 99,-348"/>
<text text-anchor="start" x="104" y="-384" font-family="Arial" font-size="10.00">topic = &quot;sports&quot;</text>
<text text-anchor="start" x="104" y="-370" font-family="Arial" font-size="10.00">name = &quot;gymnasium&quot;</text>
<text text-anchor="start" x="104" y="-356" font-family="Arial" font-size="10.00">credits = 25</text>
</g>
<!-- abu -->
<g id="node2" class="node"><title>abu</title>
<image xlink:href="icons/karli.png" width="61px" height="46px" preserveAspectRatio="xMinYMin meet" x="31" y="-302"/>
<a xlink:href="../examples/org/sdmlib/examples/studyrightWithAssignments/model/Student.java" xlink:title="&lt;TABLE&gt;">
<polygon fill="none" stroke="black" points="8,-238 8,-254 115,-254 115,-238 8,-238"/>
<text text-anchor="start" x="31.5" y="-244" font-family="Arial" font-size="10.00"> </text>
<text text-anchor="start" x="35.5" y="-244" font-family="Arial" font-size="10.00">abu :Student</text>
</a>
<polygon fill="none" stroke="black" points="8,-176 8,-238 115,-238 115,-176 8,-176"/>
<text text-anchor="start" x="13" y="-226" font-family="Arial" font-size="10.00">assignmentPoints = 0</text>
<text text-anchor="start" x="13" y="-212" font-family="Arial" font-size="10.00">name = &quot;Abu&quot;</text>
<text text-anchor="start" x="13" y="-198" font-family="Arial" font-size="10.00">motivation = 42</text>
<text text-anchor="start" x="13" y="-184" font-family="Arial" font-size="10.00">credits = 0</text>
</g>
<!-- sportsRoom&#45;&#45;abu -->
<g id="edge2" class="edge"><title>sportsRoom&#45;&#45;abu</title>
<path fill="none" stroke="black" d="M127.823,-344.204C120.687,-333.184 112.586,-320.672 104.547,-308.256"/>
<text text-anchor="middle" x="113.02" y="-311.067" font-family="Arial" font-size="10.00">students</text>
<text text-anchor="middle" x="119.349" y="-336.393" font-family="Arial" font-size="10.00">in</text>
</g>
<!-- alice -->
<g id="node3" class="node"><title>alice</title>
<image xlink:href="icons/karli.png" width="61px" height="46px" preserveAspectRatio="xMinYMin meet" x="76" y="-130"/>
<a xlink:href="../examples/org/sdmlib/examples/studyrightWithAssignments/model/Student.java" xlink:title="&lt;TABLE&gt;">
<polygon fill="none" stroke="black" points="53,-66 53,-82 160,-82 160,-66 53,-66"/>
<text text-anchor="start" x="74" y="-72" font-family="Arial" font-size="10.00"> </text>
<text text-anchor="start" x="78" y="-72" font-family="Arial" font-size="10.00">alice :Student</text>
</a>
<polygon fill="none" stroke="black" points="53,-4 53,-66 160,-66 160,-4 53,-4"/>
<text text-anchor="start" x="58" y="-54" font-family="Arial" font-size="10.00">assignmentPoints = 0</text>
<text text-anchor="start" x="58" y="-40" font-family="Arial" font-size="10.00">name = &quot;Alice&quot;</text>
<text text-anchor="start" x="58" y="-26" font-family="Arial" font-size="10.00">motivation = 42</text>
<text text-anchor="start" x="58" y="-12" font-family="Arial" font-size="10.00">credits = 0</text>
</g>
<!-- sportsRoom&#45;&#45;alice -->
<g id="edge4" class="edge"><title>sportsRoom&#45;&#45;alice</title>
<path fill="none" stroke="black" d="M149.126,-344.468C146.578,-302.896 141.13,-232.099 131,-172 129.027,-160.296 126.462,-147.952 123.727,-136.032"/>
<text text-anchor="middle" x="129.856" y="-141.434" font-family="Arial" font-size="10.00">students</text>
<text text-anchor="middle" x="144.329" y="-333.194" font-family="Arial" font-size="10.00">in</text>
</g>
<!-- t5 -->
<g id="node4" class="node"><title>t5</title>
<a xlink:href="../examples/org/sdmlib/examples/studyrightWithAssignments/model/TeachingAssistant.java" xlink:title="&lt;TABLE&gt;">
<polygon fill="none" stroke="black" points="188,-283 188,-300 295,-300 295,-283 188,-283"/>
<text text-anchor="start" x="192" y="-289.5" font-family="Arial" font-size="10.00"> </text>
<text text-anchor="start" x="196" y="-289.5" font-family="Arial" font-size="10.00">t5 :TeachingAssistant</text>
</a>
<polygon fill="none" stroke="black" points="188,-179 188,-283 295,-283 295,-179 188,-179"/>
<text text-anchor="start" x="193" y="-271" font-family="Arial" font-size="10.00">university = &quot;&quot;</text>
<text text-anchor="start" x="193" y="-257" font-family="Arial" font-size="10.00">assignmentPoints = 0</text>
<text text-anchor="start" x="193" y="-243" font-family="Arial" font-size="10.00">certified = &quot;false&quot;</text>
<text text-anchor="start" x="193" y="-229" font-family="Arial" font-size="10.00">name = &quot;&quot;</text>
<text text-anchor="start" x="193" y="-215" font-family="Arial" font-size="10.00">motivation = 0</text>
<text text-anchor="start" x="193" y="-201" font-family="Arial" font-size="10.00">credits = 0</text>
<text text-anchor="start" x="193" y="-187" font-family="Arial" font-size="10.00">in = &quot;&quot;</text>
</g>
<!-- sportsRoom&#45;&#45;t5 -->
<g id="edge6" class="edge"><title>sportsRoom&#45;&#45;t5</title>
<path fill="none" stroke="black" d="M174.177,-344.204C181.99,-332.138 190.96,-318.284 199.739,-304.725"/>
<text text-anchor="middle" x="198.361" y="-312.13" font-family="Arial" font-size="10.00">tas</text>
<text text-anchor="middle" x="175.556" y="-331.799" font-family="Arial" font-size="10.00">room</text>
</g>
<!-- abu&#45;&#45;alice -->
<g id="edge8" class="edge"><title>abu&#45;&#45;alice</title>
<path fill="none" stroke="black" d="M78.7852,-171.811C81.8806,-160.118 85.1007,-147.953 88.1966,-136.257"/>
<text text-anchor="middle" x="89.9629" y="-143.6" font-family="Arial" font-size="10.00">friends</text>
<text text-anchor="middle" x="77.0189" y="-159.469" font-family="Arial" font-size="10.00">friends</text>
</g>
</g>
</svg>
