<?xml version="1.0" encoding="UTF-8" standalone="no"?>
<!DOCTYPE svg PUBLIC "-//W3C//DTD SVG 1.1//EN"
 "http://www.w3.org/Graphics/SVG/1.1/DTD/svg11.dtd">
<!-- Generated by graphviz version 2.28.0 (20110507.0327)
 -->
<!-- Title: ObjectDiagram Pages: 1 -->
<svg width="281pt" height="344pt"
 viewBox="0.00 0.00 281.00 344.00" xmlns="http://www.w3.org/2000/svg" xmlns:xlink="http://www.w3.org/1999/xlink">
<g id="graph1" class="graph" transform="scale(1 1) rotate(0) translate(4 340)">
<title>ObjectDiagram</title>
<polygon fill="white" stroke="white" points="-4,5 -4,-340 278,-340 278,5 -4,5"/>
<!-- karli -->
<g id="node1" class="node"><title>karli</title>
<image xlink:href="icons/karli.png" width="61px" height="46px" preserveAspectRatio="xMinYMin meet" x="35.5" y="-330"/>
<a xlink:href="../examples/org/sdmlib/examples/studyrightWithAssignments/TeachingAssistant.java" xlink:title="&lt;TABLE&gt;">
<polygon fill="none" stroke="black" points="8,-266 8,-282 124,-282 124,-266 8,-266"/>
<text text-anchor="start" x="11.5" y="-272" font-family="Arial" font-size="10.00"> </text>
<text text-anchor="start" x="15.5" y="-272" font-family="Arial" font-size="10.00">karli :TeachingAssistant</text>
</a>
<polygon fill="none" stroke="black" points="8,-176 8,-266 124,-266 124,-176 8,-176"/>
<text text-anchor="start" x="13" y="-254" font-family="Arial" font-size="10.00">certified = &quot;false&quot;</text>
<text text-anchor="start" x="13" y="-240" font-family="Arial" font-size="10.00">name = &quot;Karli&quot;</text>
<text text-anchor="start" x="13" y="-226" font-family="Arial" font-size="10.00">assignmentPoints = 0</text>
<text text-anchor="start" x="13" y="-212" font-family="Arial" font-size="10.00">motivation = 42</text>
<text text-anchor="start" x="13" y="-198" font-family="Arial" font-size="10.00">credits = 0</text>
<text text-anchor="start" x="13" y="-184" font-family="Arial" font-size="10.00">room = &quot;&quot;</text>
</g>
<!-- abu -->
<g id="node2" class="node"><title>abu</title>
<image xlink:href="icons/karli.png" width="61px" height="46px" preserveAspectRatio="xMinYMin meet" x="182" y="-316"/>
<a xlink:href="../examples/org/sdmlib/examples/studyrightWithAssignments/Student.java" xlink:title="&lt;TABLE&gt;">
<polygon fill="none" stroke="black" points="159,-252 159,-268 266,-268 266,-252 159,-252"/>
<text text-anchor="start" x="182.5" y="-258" font-family="Arial" font-size="10.00"> </text>
<text text-anchor="start" x="186.5" y="-258" font-family="Arial" font-size="10.00">abu :Student</text>
</a>
<polygon fill="none" stroke="black" points="159,-190 159,-252 266,-252 266,-190 159,-190"/>
<text text-anchor="start" x="164" y="-240" font-family="Arial" font-size="10.00">name = &quot;Abu&quot;</text>
<text text-anchor="start" x="164" y="-226" font-family="Arial" font-size="10.00">assignmentPoints = 0</text>
<text text-anchor="start" x="164" y="-212" font-family="Arial" font-size="10.00">motivation = 42</text>
<text text-anchor="start" x="164" y="-198" font-family="Arial" font-size="10.00">credits = 0</text>
</g>
<!-- alice -->
<g id="node3" class="node"><title>alice</title>
<image xlink:href="icons/karli.png" width="61px" height="46px" preserveAspectRatio="xMinYMin meet" x="182" y="-130"/>
<a xlink:href="../examples/org/sdmlib/examples/studyrightWithAssignments/Student.java" xlink:title="&lt;TABLE&gt;">
<polygon fill="none" stroke="black" points="159,-66 159,-82 266,-82 266,-66 159,-66"/>
<text text-anchor="start" x="180" y="-72" font-family="Arial" font-size="10.00"> </text>
<text text-anchor="start" x="184" y="-72" font-family="Arial" font-size="10.00">alice :Student</text>
</a>
<polygon fill="none" stroke="black" points="159,-4 159,-66 266,-66 266,-4 159,-4"/>
<text text-anchor="start" x="164" y="-54" font-family="Arial" font-size="10.00">name = &quot;Alice&quot;</text>
<text text-anchor="start" x="164" y="-40" font-family="Arial" font-size="10.00">assignmentPoints = 0</text>
<text text-anchor="start" x="164" y="-26" font-family="Arial" font-size="10.00">motivation = 42</text>
<text text-anchor="start" x="164" y="-12" font-family="Arial" font-size="10.00">credits = 0</text>
</g>
<!-- abu&#45;&#45;alice -->
<g id="edge2" class="edge"><title>abu&#45;&#45;alice</title>
<path fill="none" stroke="black" d="M212,-185.791C212,-169.57 212,-152.239 212,-136.027"/>
<text text-anchor="middle" x="216.226" y="-142.59" font-family="Arial" font-size="10.00">friends</text>
<text text-anchor="middle" x="207.774" y="-174.228" font-family="Arial" font-size="10.00">friends</text>
</g>
</g>
</svg>
