<?xml version="1.0" encoding="UTF-8" standalone="no"?>
<!DOCTYPE svg PUBLIC "-//W3C//DTD SVG 1.1//EN"
 "http://www.w3.org/Graphics/SVG/1.1/DTD/svg11.dtd">
<!-- Generated by graphviz version 2.28.0 (20110507.0327)
 -->
<!-- Title: ObjectDiagram Pages: 1 -->
<svg width="728pt" height="956pt"
 viewBox="0.00 0.00 728.00 956.00" xmlns="http://www.w3.org/2000/svg" xmlns:xlink="http://www.w3.org/1999/xlink">
<g id="graph1" class="graph" transform="scale(1 1) rotate(0) translate(4 952)">
<title>ObjectDiagram</title>
<polygon fill="white" stroke="white" points="-4,5 -4,-952 725,-952 725,5 -4,5"/>
<!-- studyRight -->
<g id="node1" class="node"><title>studyRight</title>
<a xlink:href="../examples/org/sdmlib/examples/studyrightWithAssignments/University.java" xlink:title="&lt;TABLE&gt;">
<polygon fill="none" stroke="black" points="284,-926 284,-943 390,-943 390,-926 284,-926"/>
<text text-anchor="start" x="287.5" y="-932.5" font-family="Arial" font-size="10.00"> </text>
<text text-anchor="start" x="291.5" y="-932.5" font-family="Arial" font-size="10.00">studyRight :University</text>
</a>
<polygon fill="none" stroke="black" points="284,-906 284,-926 390,-926 390,-906 284,-906"/>
<text text-anchor="start" x="289" y="-914" font-family="Arial" font-size="10.00">name = &quot;StudyRight&quot;</text>
</g>
<!-- karli -->
<g id="node2" class="node"><title>karli</title>
<image xlink:href="icons/karli.png" width="61px" height="46px" preserveAspectRatio="xMinYMin meet" x="400" y="-860"/>
<a xlink:href="../examples/org/sdmlib/examples/studyrightWithAssignments/Student.java" xlink:title="&lt;TABLE&gt;">
<polygon fill="none" stroke="black" points="377,-796 377,-812 484,-812 484,-796 377,-796"/>
<text text-anchor="start" x="399.5" y="-802" font-family="Arial" font-size="10.00"> </text>
<text text-anchor="start" x="403.5" y="-802" font-family="Arial" font-size="10.00">karli :Student</text>
</a>
<polygon fill="none" stroke="black" points="377,-734 377,-796 484,-796 484,-734 377,-734"/>
<text text-anchor="start" x="382" y="-784" font-family="Arial" font-size="10.00">name = &quot;Karli&quot;</text>
<text text-anchor="start" x="382" y="-770" font-family="Arial" font-size="10.00">assignmentPoints = 0</text>
<text text-anchor="start" x="382" y="-756" font-family="Arial" font-size="10.00">motivation = 0</text>
<text text-anchor="start" x="382" y="-742" font-family="Arial" font-size="10.00">credits = 0</text>
</g>
<!-- studyRight&#45;&#45;karli -->
<g id="edge2" class="edge"><title>studyRight&#45;&#45;karli</title>
<path fill="none" stroke="black" d="M353.199,-902.227C360.797,-892.014 370.307,-879.232 380.021,-866.177"/>
<text text-anchor="middle" x="378.001" y="-873.471" font-family="Arial" font-size="10.00">students</text>
<text text-anchor="middle" x="355.219" y="-889.933" font-family="Arial" font-size="10.00">university</text>
</g>
<!-- mathRoom -->
<g id="node3" class="node"><title>mathRoom</title>
<image xlink:href="icons/mathroom.png" width="86px" height="63px" preserveAspectRatio="xMinYMin meet" x="294" y="-687"/>
<a xlink:href="../examples/org/sdmlib/examples/studyrightWithAssignments/Room.java" xlink:title="&lt;TABLE&gt;">
<polygon fill="none" stroke="black" points="292,-606 292,-622 382,-622 382,-606 292,-606"/>
<text text-anchor="start" x="295.5" y="-612" font-family="Arial" font-size="10.00"> </text>
<text text-anchor="start" x="299.5" y="-612" font-family="Arial" font-size="10.00">mathRoom :Room</text>
</a>
<polygon fill="none" stroke="black" points="292,-558 292,-606 382,-606 382,-558 292,-558"/>
<text text-anchor="start" x="297" y="-594" font-family="Arial" font-size="10.00">name = &quot;senate&quot;</text>
<text text-anchor="start" x="297" y="-580" font-family="Arial" font-size="10.00">topic = &quot;math&quot;</text>
<text text-anchor="start" x="297" y="-566" font-family="Arial" font-size="10.00">credits = 17</text>
</g>
<!-- studyRight&#45;&#45;mathRoom -->
<g id="edge6" class="edge"><title>studyRight&#45;&#45;mathRoom</title>
<path fill="none" stroke="black" d="M337,-902.497C337,-859.447 337,-761.046 337,-693.781"/>
<text text-anchor="middle" x="341.226" y="-700.344" font-family="Arial" font-size="10.00">rooms</text>
<text text-anchor="middle" x="332.774" y="-890.934" font-family="Arial" font-size="10.00">university</text>
</g>
<!-- artsRoom -->
<g id="node4" class="node"><title>artsRoom</title>
<a xlink:href="../examples/org/sdmlib/examples/studyrightWithAssignments/Room.java" xlink:title="&lt;TABLE&gt;">
<polygon fill="none" stroke="black" points="79,-477 79,-494 164,-494 164,-477 79,-477"/>
<text text-anchor="start" x="82.5" y="-483.5" font-family="Arial" font-size="10.00"> </text>
<text text-anchor="start" x="86.5" y="-483.5" font-family="Arial" font-size="10.00">artsRoom :Room</text>
</a>
<polygon fill="none" stroke="black" points="79,-429 79,-477 164,-477 164,-429 79,-429"/>
<text text-anchor="start" x="84" y="-465" font-family="Arial" font-size="10.00">name = &quot;7522&quot;</text>
<text text-anchor="start" x="84" y="-451" font-family="Arial" font-size="10.00">topic = &quot;arts&quot;</text>
<text text-anchor="start" x="84" y="-437" font-family="Arial" font-size="10.00">credits = 16</text>
</g>
<!-- studyRight&#45;&#45;artsRoom -->
<g id="edge8" class="edge"><title>studyRight&#45;&#45;artsRoom</title>
<path fill="none" stroke="black" d="M326.872,-902.383C292.55,-829.132 180.415,-589.806 137.715,-498.675"/>
<text text-anchor="middle" x="145.387" y="-502.588" font-family="Arial" font-size="10.00">rooms</text>
<text text-anchor="middle" x="319.199" y="-893.47" font-family="Arial" font-size="10.00">university</text>
</g>
<!-- sportsRoom -->
<g id="node5" class="node"><title>sportsRoom</title>
<a xlink:href="../examples/org/sdmlib/examples/studyrightWithAssignments/Room.java" xlink:title="&lt;TABLE&gt;">
<polygon fill="none" stroke="black" points="282,-348 282,-365 387,-365 387,-348 282,-348"/>
<text text-anchor="start" x="290" y="-354.5" font-family="Arial" font-size="10.00"> </text>
<text text-anchor="start" x="294" y="-354.5" font-family="Arial" font-size="10.00">sportsRoom :Room</text>
</a>
<polygon fill="none" stroke="black" points="282,-300 282,-348 387,-348 387,-300 282,-300"/>
<text text-anchor="start" x="287" y="-336" font-family="Arial" font-size="10.00">name = &quot;gymnasium&quot;</text>
<text text-anchor="start" x="287" y="-322" font-family="Arial" font-size="10.00">topic = &quot;sports&quot;</text>
<text text-anchor="start" x="287" y="-308" font-family="Arial" font-size="10.00">credits = 25</text>
</g>
<!-- studyRight&#45;&#45;sportsRoom -->
<g id="edge10" class="edge"><title>studyRight&#45;&#45;sportsRoom</title>
<path fill="none" stroke="black" d="M398.362,-914.126C431.772,-906.04 471.902,-891.578 500,-866 580.143,-793.045 729.923,-490.45 662,-406 629.069,-365.057 479.903,-346.075 394.51,-338.427"/>
<text text-anchor="middle" x="403.938" y="-332.593" font-family="Arial" font-size="10.00">rooms</text>
<text text-anchor="middle" x="406.089" y="-905.278" font-family="Arial" font-size="10.00">university</text>
</g>
<!-- examRoom -->
<g id="node6" class="node"><title>examRoom</title>
<a xlink:href="../examples/org/sdmlib/examples/studyrightWithAssignments/Room.java" xlink:title="&lt;TABLE&gt;">
<polygon fill="none" stroke="black" points="117,-238 117,-255 210,-255 210,-238 117,-238"/>
<text text-anchor="start" x="120.5" y="-244.5" font-family="Arial" font-size="10.00"> </text>
<text text-anchor="start" x="124.5" y="-244.5" font-family="Arial" font-size="10.00">examRoom :Room</text>
</a>
<polygon fill="none" stroke="black" points="117,-190 117,-238 210,-238 210,-190 117,-190"/>
<text text-anchor="start" x="122" y="-226" font-family="Arial" font-size="10.00">name = &quot;The End&quot;</text>
<text text-anchor="start" x="122" y="-212" font-family="Arial" font-size="10.00">topic = &quot;exam&quot;</text>
<text text-anchor="start" x="122" y="-198" font-family="Arial" font-size="10.00">credits = 0</text>
</g>
<!-- studyRight&#45;&#45;examRoom -->
<g id="edge12" class="edge"><title>studyRight&#45;&#45;examRoom</title>
<path fill="none" stroke="black" d="M288.617,-902.416C204.926,-861.399 42,-763.734 42,-625 42,-625 42,-625 42,-461 42,-382.463 95.3585,-303.721 131.209,-259.679"/>
<text text-anchor="middle" x="128.917" y="-266.913" font-family="Arial" font-size="10.00">rooms</text>
<text text-anchor="middle" x="278.624" y="-899.535" font-family="Arial" font-size="10.00">university</text>
</g>
<!-- placeToBe -->
<g id="node7" class="node"><title>placeToBe</title>
<a xlink:href="../examples/org/sdmlib/examples/studyrightWithAssignments/Room.java" xlink:title="&lt;TABLE&gt;">
<polygon fill="none" stroke="black" points="8,-90 8,-107 152,-107 152,-90 8,-90"/>
<text text-anchor="start" x="39" y="-96.5" font-family="Arial" font-size="10.00"> </text>
<text text-anchor="start" x="43" y="-96.5" font-family="Arial" font-size="10.00">placeToBe :Room</text>
</a>
<polygon fill="none" stroke="black" points="8,-42 8,-90 152,-90 152,-42 8,-42"/>
<text text-anchor="start" x="13" y="-78" font-family="Arial" font-size="10.00">name = &quot;7422&quot;</text>
<text text-anchor="start" x="13" y="-64" font-family="Arial" font-size="10.00">topic = &quot;Software Engineering&quot;</text>
<text text-anchor="start" x="13" y="-50" font-family="Arial" font-size="10.00">credits = 42</text>
</g>
<!-- studyRight&#45;&#45;placeToBe -->
<g id="edge14" class="edge"><title>studyRight&#45;&#45;placeToBe</title>
<path fill="none" stroke="black" d="M275.851,-917.655C207.809,-909.388 103.647,-892.745 75,-866 -6.6202,-789.798 4,-736.663 4,-625 4,-625 4,-625 4,-332 4,-250.635 39.7181,-160.516 62.1814,-111.884"/>
<text text-anchor="middle" x="62.3241" y="-119.383" font-family="Arial" font-size="10.00">rooms</text>
<text text-anchor="middle" x="266.325" y="-918.198" font-family="Arial" font-size="10.00">university</text>
</g>
<!-- abu -->
<g id="node9" class="node"><title>abu</title>
<image xlink:href="icons/karli.png" width="61px" height="46px" preserveAspectRatio="xMinYMin meet" x="571" y="-144"/>
<a xlink:href="../examples/org/sdmlib/examples/studyrightWithAssignments/Student.java" xlink:title="&lt;TABLE&gt;">
<polygon fill="none" stroke="black" points="548,-80 548,-96 655,-96 655,-80 548,-80"/>
<text text-anchor="start" x="571.5" y="-86" font-family="Arial" font-size="10.00"> </text>
<text text-anchor="start" x="575.5" y="-86" font-family="Arial" font-size="10.00">abu :Student</text>
</a>
<polygon fill="none" stroke="black" points="548,-4 548,-80 655,-80 655,-4 548,-4"/>
<text text-anchor="start" x="553" y="-68" font-family="Arial" font-size="10.00">name = &quot;Abu&quot;</text>
<text text-anchor="start" x="553" y="-54" font-family="Arial" font-size="10.00">assignmentPoints = 0</text>
<text text-anchor="start" x="553" y="-40" font-family="Arial" font-size="10.00">motivation = 0</text>
<text text-anchor="start" x="553" y="-26" font-family="Arial" font-size="10.00">credits = 0</text>
<text text-anchor="start" x="553" y="-12" font-family="Arial" font-size="10.00">in = &quot;&quot;</text>
</g>
<!-- studyRight&#45;&#45;abu -->
<g id="edge4" class="edge"><title>studyRight&#45;&#45;abu</title>
<path fill="none" stroke="black" d="M398.116,-920.083C446.228,-914.362 512.955,-900.334 561,-866 665.403,-791.39 720,-753.322 720,-625 720,-625 720,-625 720,-332 720,-266.325 687.396,-199.262 656.319,-150.26"/>
<text text-anchor="middle" x="664.66" y="-153.277" font-family="Arial" font-size="10.00">students</text>
<text text-anchor="middle" x="406.547" y="-912.205" font-family="Arial" font-size="10.00">university</text>
</g>
<!-- karli&#45;&#45;mathRoom -->
<g id="edge16" class="edge"><title>karli&#45;&#45;mathRoom</title>
<path fill="none" stroke="black" d="M393.511,-729.515C387.15,-717.75 380.527,-705.501 374.148,-693.704"/>
<text text-anchor="middle" x="382.176" y="-697.166" font-family="Arial" font-size="10.00">in</text>
<text text-anchor="middle" x="385.483" y="-721.052" font-family="Arial" font-size="10.00">students</text>
</g>
<!-- a1 -->
<g id="node10" class="node"><title>a1</title>
<image xlink:href="icons/matrix.png" width="121px" height="46px" preserveAspectRatio="xMinYMin meet" x="384.5" y="-510"/>
<a xlink:href="../examples/org/sdmlib/examples/studyrightWithAssignments/Assignment.java" xlink:title="&lt;TABLE&gt;">
<polygon fill="none" stroke="black" points="370,-446 370,-462 520,-462 520,-446 370,-446"/>
<text text-anchor="start" x="408.5" y="-452" font-family="Arial" font-size="10.00"> </text>
<text text-anchor="start" x="412.5" y="-452" font-family="Arial" font-size="10.00">a1 :Assignment</text>
</a>
<polygon fill="none" stroke="black" points="370,-412 370,-446 520,-446 520,-412 370,-412"/>
<text text-anchor="start" x="375" y="-434" font-family="Arial" font-size="10.00">content = &quot;Matrix Multiplication&quot;</text>
<text text-anchor="start" x="375" y="-420" font-family="Arial" font-size="10.00">points = 5</text>
</g>
<!-- karli&#45;&#45;a1 -->
<g id="edge18" class="edge"><title>karli&#45;&#45;a1</title>
<path fill="none" stroke="black" d="M433.017,-729.812C435.845,-666.853 440.015,-574 442.616,-516.08"/>
<text text-anchor="middle" x="446.431" y="-522.824" font-family="Arial" font-size="10.00">done</text>
<text text-anchor="middle" x="429.202" y="-718.068" font-family="Arial" font-size="10.00">students</text>
</g>
<!-- a2 -->
<g id="node11" class="node"><title>a2</title>
<image xlink:href="icons/limes.png" width="74px" height="35px" preserveAspectRatio="xMinYMin meet" x="563.5" y="-504"/>
<a xlink:href="../examples/org/sdmlib/examples/studyrightWithAssignments/Assignment.java" xlink:title="&lt;TABLE&gt;">
<polygon fill="none" stroke="black" points="555,-451 555,-467 646,-467 646,-451 555,-451"/>
<text text-anchor="start" x="564" y="-457" font-family="Arial" font-size="10.00"> </text>
<text text-anchor="start" x="568" y="-457" font-family="Arial" font-size="10.00">a2 :Assignment</text>
</a>
<polygon fill="none" stroke="black" points="555,-417 555,-451 646,-451 646,-417 555,-417"/>
<text text-anchor="start" x="560" y="-439" font-family="Arial" font-size="10.00">content = &quot;Series&quot;</text>
<text text-anchor="start" x="560" y="-425" font-family="Arial" font-size="10.00">points = 6</text>
</g>
<!-- karli&#45;&#45;a2 -->
<g id="edge20" class="edge"><title>karli&#45;&#45;a2</title>
<path fill="none" stroke="black" d="M464.198,-729.812C497.26,-664.853 546.521,-568.07 575.738,-510.668"/>
<text text-anchor="middle" x="575.393" y="-518.162" font-family="Arial" font-size="10.00">done</text>
<text text-anchor="middle" x="464.542" y="-717.318" font-family="Arial" font-size="10.00">students</text>
</g>
<!-- mathRoom&#45;&#45;artsRoom -->
<g id="edge22" class="edge"><title>mathRoom&#45;&#45;artsRoom</title>
<path fill="none" stroke="black" d="M283.981,-590.125C253.132,-570.313 213.955,-543.958 181,-518 173.34,-511.967 165.451,-505.19 158.012,-498.509"/>
<text text-anchor="middle" x="167.586" y="-498.898" font-family="Arial" font-size="10.00">doors</text>
<text text-anchor="middle" x="274.075" y="-586.255" font-family="Arial" font-size="10.00">doors</text>
</g>
<!-- mathRoom&#45;&#45;sportsRoom -->
<g id="edge24" class="edge"><title>mathRoom&#45;&#45;sportsRoom</title>
<path fill="none" stroke="black" d="M336.285,-554.144C335.684,-496.212 334.848,-415.687 334.372,-369.804"/>
<text text-anchor="middle" x="338.692" y="-376.322" font-family="Arial" font-size="10.00">doors</text>
<text text-anchor="middle" x="331.965" y="-542.626" font-family="Arial" font-size="10.00">doors</text>
</g>
<!-- mathRoom&#45;&#45;a1 -->
<g id="edge26" class="edge"><title>mathRoom&#45;&#45;a1</title>
<path fill="none" stroke="black" d="M383.428,-554.217C392.004,-541.512 400.84,-528.423 409.047,-516.264"/>
<text text-anchor="middle" x="407.479" y="-523.64" font-family="Arial" font-size="10.00">assignments</text>
<text text-anchor="middle" x="384.996" y="-541.841" font-family="Arial" font-size="10.00">room</text>
</g>
<!-- mathRoom&#45;&#45;a2 -->
<g id="edge28" class="edge"><title>mathRoom&#45;&#45;a2</title>
<path fill="none" stroke="black" d="M390.308,-599.223C431.754,-579.755 489.925,-550.246 537,-518 540.354,-515.703 543.728,-513.25 547.077,-510.703"/>
<text text-anchor="middle" x="542.402" y="-517.043" font-family="Arial" font-size="10.00">assignments</text>
<text text-anchor="middle" x="396.68" y="-589.016" font-family="Arial" font-size="10.00">room</text>
</g>
<!-- a3 -->
<g id="node12" class="node"><title>a3</title>
<image xlink:href="icons/integralAssignment.png" width="83px" height="36px" preserveAspectRatio="xMinYMin meet" x="206.5" y="-512"/>
<a xlink:href="../examples/org/sdmlib/examples/studyrightWithAssignments/Assignment.java" xlink:title="&lt;TABLE&gt;">
<polygon fill="none" stroke="black" points="198,-458 198,-474 298,-474 298,-458 198,-458"/>
<text text-anchor="start" x="211.5" y="-464" font-family="Arial" font-size="10.00"> </text>
<text text-anchor="start" x="215.5" y="-464" font-family="Arial" font-size="10.00">a3 :Assignment</text>
</a>
<polygon fill="none" stroke="black" points="198,-410 198,-458 298,-458 298,-410 198,-410"/>
<text text-anchor="start" x="203" y="-446" font-family="Arial" font-size="10.00">content = &quot;Integrals&quot;</text>
<text text-anchor="start" x="203" y="-432" font-family="Arial" font-size="10.00">points = 8</text>
<text text-anchor="start" x="203" y="-418" font-family="Arial" font-size="10.00">students = &quot;&quot;</text>
</g>
<!-- mathRoom&#45;&#45;a3 -->
<g id="edge30" class="edge"><title>mathRoom&#45;&#45;a3</title>
<path fill="none" stroke="black" d="M298.739,-554.217C292.049,-542.19 285.167,-529.818 278.714,-518.217"/>
<text text-anchor="middle" x="286.813" y="-521.583" font-family="Arial" font-size="10.00">assignments</text>
<text text-anchor="middle" x="290.641" y="-545.851" font-family="Arial" font-size="10.00">room</text>
</g>
<!-- artsRoom&#45;&#45;sportsRoom -->
<g id="edge32" class="edge"><title>artsRoom&#45;&#45;sportsRoom</title>
<path fill="none" stroke="black" d="M156.337,-425.389C164.108,-418.499 172.551,-411.668 181,-406 209.767,-386.701 244.522,-369.896 273.632,-357.386"/>
<text text-anchor="middle" x="267.016" y="-362.385" font-family="Arial" font-size="10.00">doors</text>
<text text-anchor="middle" x="160.359" y="-413.733" font-family="Arial" font-size="10.00">doors</text>
</g>
<!-- artsRoom&#45;&#45;examRoom -->
<g id="edge34" class="edge"><title>artsRoom&#45;&#45;examRoom</title>
<path fill="none" stroke="black" d="M127.333,-425.262C135.262,-380.52 148.763,-304.337 156.684,-259.641"/>
<text text-anchor="middle" x="159.264" y="-266.802" font-family="Arial" font-size="10.00">doors</text>
<text text-anchor="middle" x="124.753" y="-413.101" font-family="Arial" font-size="10.00">doors</text>
</g>
<!-- artsRoom&#45;&#45;placeToBe -->
<g id="edge36" class="edge"><title>artsRoom&#45;&#45;placeToBe</title>
<path fill="none" stroke="black" d="M117.04,-425.425C112.584,-385.258 105.163,-317.946 99,-260 93.5148,-208.426 87.3887,-148.695 83.6134,-111.624"/>
<text text-anchor="middle" x="88.7371" y="-117.712" font-family="Arial" font-size="10.00">doors</text>
<text text-anchor="middle" x="111.841" y="-414.382" font-family="Arial" font-size="10.00">doors</text>
</g>
<!-- sportsRoom&#45;&#45;examRoom -->
<g id="edge38" class="edge"><title>sportsRoom&#45;&#45;examRoom</title>
<path fill="none" stroke="black" d="M277.534,-296.337C258.175,-284.111 236.562,-270.461 217.373,-258.341"/>
<text text-anchor="middle" x="227.292" y="-257.107" font-family="Arial" font-size="10.00">doors</text>
<text text-anchor="middle" x="267.615" y="-292.571" font-family="Arial" font-size="10.00">doors</text>
</g>
<!-- a4 -->
<g id="node8" class="node"><title>a4</title>
<a xlink:href="../examples/org/sdmlib/examples/studyrightWithAssignments/Assignment.java" xlink:title="&lt;TABLE&gt;">
<polygon fill="none" stroke="black" points="432,-231 432,-248 534,-248 534,-231 432,-231"/>
<text text-anchor="start" x="446.5" y="-237.5" font-family="Arial" font-size="10.00"> </text>
<text text-anchor="start" x="450.5" y="-237.5" font-family="Arial" font-size="10.00">a4 :Assignment</text>
</a>
<polygon fill="none" stroke="black" points="432,-197 432,-231 534,-231 534,-197 432,-197"/>
<text text-anchor="start" x="437" y="-219" font-family="Arial" font-size="10.00">content = &quot;Pushups&quot;</text>
<text text-anchor="start" x="437" y="-205" font-family="Arial" font-size="10.00">points = 4</text>
</g>
<!-- sportsRoom&#45;&#45;a4 -->
<g id="edge40" class="edge"><title>sportsRoom&#45;&#45;a4</title>
<path fill="none" stroke="black" d="M383.201,-296.337C402.697,-282.206 424.817,-266.173 443.268,-252.799"/>
<text text-anchor="middle" x="438.41" y="-259.04" font-family="Arial" font-size="10.00">assignments</text>
<text text-anchor="middle" x="388.059" y="-285.097" font-family="Arial" font-size="10.00">room</text>
</g>
<!-- examRoom&#45;&#45;placeToBe -->
<g id="edge42" class="edge"><title>examRoom&#45;&#45;placeToBe</title>
<path fill="none" stroke="black" d="M142.696,-186.284C129.786,-163.575 113.135,-134.286 100.238,-111.6"/>
<text text-anchor="middle" x="108.391" y="-114.89" font-family="Arial" font-size="10.00">doors</text>
<text text-anchor="middle" x="134.543" y="-177.994" font-family="Arial" font-size="10.00">doors</text>
</g>
<!-- a4&#45;&#45;abu -->
<g id="edge44" class="edge"><title>a4&#45;&#45;abu</title>
<path fill="none" stroke="black" d="M506.313,-193.155C516.388,-180.69 528.687,-165.473 541.041,-150.186"/>
<text text-anchor="middle" x="538.631" y="-157.391" font-family="Arial" font-size="10.00">students</text>
<text text-anchor="middle" x="508.723" y="-180.95" font-family="Arial" font-size="10.00">done</text>
</g>
</g>
</svg>
