<?xml version="1.0" encoding="UTF-8" standalone="no"?>
<!DOCTYPE svg PUBLIC "-//W3C//DTD SVG 1.1//EN"
 "http://www.w3.org/Graphics/SVG/1.1/DTD/svg11.dtd">
<!-- Generated by graphviz version 2.28.0 (20110507.0327)
 -->
<!-- Title: ObjectDiagram Pages: 1 -->
<svg width="672pt" height="686pt"
 viewBox="0.00 0.00 672.00 686.00" xmlns="http://www.w3.org/2000/svg" xmlns:xlink="http://www.w3.org/1999/xlink">
<g id="graph1" class="graph" transform="scale(1 1) rotate(0) translate(4 682)">
<title>ObjectDiagram</title>
<polygon fill="white" stroke="white" points="-4,5 -4,-682 669,-682 669,5 -4,5"/>
<!-- studyRight -->
<g id="node1" class="node"><title>studyRight</title>
<polygon fill="none" stroke="black" points="508,-656 508,-673 610,-673 610,-656 508,-656"/>
<text text-anchor="start" x="511.5" y="-662.5" font-family="Times New Roman,serif" font-size="10.00"> </text>
<text text-anchor="start" x="514.5" y="-662.5" font-family="Times New Roman,serif" font-size="10.00">studyRight :University</text>
<polygon fill="none" stroke="black" points="508,-636 508,-656 610,-656 610,-636 508,-636"/>
<text text-anchor="start" x="516" y="-644" font-family="Times New Roman,serif" font-size="10.00">name = &quot;StudyRight&quot;</text>
</g>
<!-- karli -->
<g id="node2" class="node"><title>karli</title>
<polygon fill="none" stroke="black" points="372,-574 372,-591 474,-591 474,-574 372,-574"/>
<text text-anchor="start" x="395" y="-580.5" font-family="Times New Roman,serif" font-size="10.00"> </text>
<text text-anchor="start" x="398" y="-580.5" font-family="Times New Roman,serif" font-size="10.00">karli :Student</text>
<polygon fill="none" stroke="black" points="372,-540 372,-574 474,-574 474,-540 372,-540"/>
<text text-anchor="start" x="393.5" y="-562" font-family="Times New Roman,serif" font-size="10.00">name = &quot;Karli&quot;</text>
<text text-anchor="start" x="377.5" y="-548" font-family="Times New Roman,serif" font-size="10.00">assignmentPoints = 11</text>
</g>
<!-- studyRight&#45;&#45;karli -->
<g id="edge2" class="edge"><title>studyRight&#45;&#45;karli</title>
<path fill="none" stroke="black" d="M525.382,-632.494C507.998,-621.374 486.546,-607.651 467.777,-595.644"/>
<text text-anchor="middle" x="477.689" y="-594.468" font-family="Times New Roman,serif" font-size="10.00">students</text>
<text text-anchor="middle" x="515.47" y="-628.671" font-family="Times New Roman,serif" font-size="10.00">university</text>
</g>
<!-- mathRoom -->
<g id="node3" class="node"><title>mathRoom</title>
<polygon fill="none" stroke="black" points="339,-478 339,-495 420,-495 420,-478 339,-478"/>
<text text-anchor="start" x="342.5" y="-484.5" font-family="Times New Roman,serif" font-size="10.00"> </text>
<text text-anchor="start" x="345.5" y="-484.5" font-family="Times New Roman,serif" font-size="10.00">mathRoom :Room</text>
<polygon fill="none" stroke="black" points="339,-430 339,-478 420,-478 420,-430 339,-430"/>
<text text-anchor="start" x="346" y="-466" font-family="Times New Roman,serif" font-size="10.00">name = &quot;senate&quot;</text>
<text text-anchor="start" x="350" y="-452" font-family="Times New Roman,serif" font-size="10.00">topic = &quot;math&quot;</text>
<text text-anchor="start" x="356.5" y="-438" font-family="Times New Roman,serif" font-size="10.00">credits = 17</text>
</g>
<!-- studyRight&#45;&#45;mathRoom -->
<g id="edge4" class="edge"><title>studyRight&#45;&#45;mathRoom</title>
<path fill="none" stroke="black" d="M550.327,-632.403C539.368,-607.09 518.561,-564.933 491,-536 472.824,-516.92 448.626,-500.555 427.374,-488.271"/>
<text text-anchor="middle" x="437.327" y="-486.734" font-family="Times New Roman,serif" font-size="10.00">rooms</text>
<text text-anchor="middle" x="542.788" y="-623.332" font-family="Times New Roman,serif" font-size="10.00">university</text>
</g>
<!-- artsRoom -->
<g id="node4" class="node"><title>artsRoom</title>
<polygon fill="none" stroke="black" points="8,-368 8,-385 85,-385 85,-368 8,-368"/>
<text text-anchor="start" x="11.5" y="-374.5" font-family="Times New Roman,serif" font-size="10.00"> </text>
<text text-anchor="start" x="14.5" y="-374.5" font-family="Times New Roman,serif" font-size="10.00">artsRoom :Room</text>
<polygon fill="none" stroke="black" points="8,-320 8,-368 85,-368 85,-320 8,-320"/>
<text text-anchor="start" x="17.5" y="-356" font-family="Times New Roman,serif" font-size="10.00">name = &quot;7522&quot;</text>
<text text-anchor="start" x="19" y="-342" font-family="Times New Roman,serif" font-size="10.00">topic = &quot;arts&quot;</text>
<text text-anchor="start" x="23.5" y="-328" font-family="Times New Roman,serif" font-size="10.00">credits = 16</text>
</g>
<!-- studyRight&#45;&#45;artsRoom -->
<g id="edge6" class="edge"><title>studyRight&#45;&#45;artsRoom</title>
<path fill="none" stroke="black" d="M499.601,-643.466C457.646,-634.532 400.943,-619.378 355,-596 245.079,-540.067 136.126,-442.253 81.7213,-389.74"/>
<text text-anchor="middle" x="91.2012" y="-390.423" font-family="Times New Roman,serif" font-size="10.00">rooms</text>
<text text-anchor="middle" x="489.84" y="-643.14" font-family="Times New Roman,serif" font-size="10.00">university</text>
</g>
<!-- sportsRoom -->
<g id="node5" class="node"><title>sportsRoom</title>
<polygon fill="none" stroke="black" points="121,-258 121,-275 218,-275 218,-258 121,-258"/>
<text text-anchor="start" x="129.5" y="-264.5" font-family="Times New Roman,serif" font-size="10.00"> </text>
<text text-anchor="start" x="132.5" y="-264.5" font-family="Times New Roman,serif" font-size="10.00">sportsRoom :Room</text>
<polygon fill="none" stroke="black" points="121,-210 121,-258 218,-258 218,-210 121,-210"/>
<text text-anchor="start" x="126.5" y="-246" font-family="Times New Roman,serif" font-size="10.00">name = &quot;gymnasium&quot;</text>
<text text-anchor="start" x="137" y="-232" font-family="Times New Roman,serif" font-size="10.00">topic = &quot;sports&quot;</text>
<text text-anchor="start" x="146.5" y="-218" font-family="Times New Roman,serif" font-size="10.00">credits = 25</text>
</g>
<!-- studyRight&#45;&#45;sportsRoom -->
<g id="edge8" class="edge"><title>studyRight&#45;&#45;sportsRoom</title>
<path fill="none" stroke="black" d="M568.354,-632.265C592.036,-573.472 647.135,-409.455 569,-316 525.834,-264.371 324.916,-249.707 225.299,-245.586"/>
<text text-anchor="middle" x="234.555" y="-239.302" font-family="Times New Roman,serif" font-size="10.00">rooms</text>
<text text-anchor="middle" x="567.643" y="-619.79" font-family="Times New Roman,serif" font-size="10.00">university</text>
</g>
<!-- examRoom -->
<g id="node6" class="node"><title>examRoom</title>
<polygon fill="none" stroke="black" points="127,-148 127,-165 212,-165 212,-148 127,-148"/>
<text text-anchor="start" x="132.5" y="-154.5" font-family="Times New Roman,serif" font-size="10.00"> </text>
<text text-anchor="start" x="135.5" y="-154.5" font-family="Times New Roman,serif" font-size="10.00">examRoom :Room</text>
<polygon fill="none" stroke="black" points="127,-114 127,-148 212,-148 212,-114 127,-114"/>
<text text-anchor="start" x="132.5" y="-136" font-family="Times New Roman,serif" font-size="10.00">name = &quot;The End&quot;</text>
<text text-anchor="start" x="140" y="-122" font-family="Times New Roman,serif" font-size="10.00">topic = &quot;exam&quot;</text>
</g>
<!-- studyRight&#45;&#45;examRoom -->
<g id="edge10" class="edge"><title>studyRight&#45;&#45;examRoom</title>
<path fill="none" stroke="black" d="M579.284,-632.454C587.892,-622.156 597.247,-609.21 603,-596 626.779,-541.403 626,-523.551 626,-464 626,-464 626,-464 626,-352 626,-174.601 338.639,-145.869 219.653,-141.576"/>
<text text-anchor="middle" x="228.928" y="-135.338" font-family="Times New Roman,serif" font-size="10.00">rooms</text>
<text text-anchor="middle" x="581.77" y="-620.268" font-family="Times New Roman,serif" font-size="10.00">university</text>
</g>
<!-- placeToBe -->
<g id="node7" class="node"><title>placeToBe</title>
<polygon fill="none" stroke="black" points="101,-52 101,-69 237,-69 237,-52 101,-52"/>
<text text-anchor="start" x="132" y="-58.5" font-family="Times New Roman,serif" font-size="10.00"> </text>
<text text-anchor="start" x="135" y="-58.5" font-family="Times New Roman,serif" font-size="10.00">placeToBe :Room</text>
<polygon fill="none" stroke="black" points="101,-4 101,-52 237,-52 237,-4 101,-4"/>
<text text-anchor="start" x="140" y="-40" font-family="Times New Roman,serif" font-size="10.00">name = &quot;7422&quot;</text>
<text text-anchor="start" x="106.5" y="-26" font-family="Times New Roman,serif" font-size="10.00">topic = &quot;Software Engineering&quot;</text>
<text text-anchor="start" x="146" y="-12" font-family="Times New Roman,serif" font-size="10.00">credits = 42</text>
</g>
<!-- studyRight&#45;&#45;placeToBe -->
<g id="edge12" class="edge"><title>studyRight&#45;&#45;placeToBe</title>
<path fill="none" stroke="black" d="M591.314,-632.296C603.728,-622.51 617.051,-610 626,-596 658.882,-544.563 664,-525.049 664,-464 664,-464 664,-464 664,-242 664,-152.536 384.11,-82.2691 245.259,-52.9145"/>
<text text-anchor="middle" x="255.019" y="-48.2363" font-family="Times New Roman,serif" font-size="10.00">rooms</text>
<text text-anchor="middle" x="595.723" y="-620.82" font-family="Times New Roman,serif" font-size="10.00">university</text>
</g>
<!-- karli&#45;&#45;mathRoom -->
<g id="edge14" class="edge"><title>karli&#45;&#45;mathRoom</title>
<path fill="none" stroke="black" d="M410.509,-536.328C405.529,-524.897 399.745,-511.618 394.501,-499.582"/>
<text text-anchor="middle" x="401.995" y="-503.703" font-family="Times New Roman,serif" font-size="10.00">in</text>
<text text-anchor="middle" x="403.015" y="-527.207" font-family="Times New Roman,serif" font-size="10.00">students</text>
</g>
<!-- mathRoom&#45;&#45;artsRoom -->
<g id="edge16" class="edge"><title>mathRoom&#45;&#45;artsRoom</title>
<path fill="none" stroke="black" d="M330.416,-433.974C324.018,-430.972 317.443,-428.213 311,-426 223.924,-396.098 193.362,-421.908 107,-390 102.155,-388.21 97.2584,-386.038 92.4568,-383.659"/>
<text text-anchor="middle" x="102.455" y="-381.353" font-family="Times New Roman,serif" font-size="10.00">doors</text>
<text text-anchor="middle" x="320.416" y="-431.493" font-family="Times New Roman,serif" font-size="10.00">doors</text>
</g>
<!-- mathRoom&#45;&#45;sportsRoom -->
<g id="edge18" class="edge"><title>mathRoom&#45;&#45;sportsRoom</title>
<path fill="none" stroke="black" d="M330.72,-434.355C324.215,-431.252 317.532,-428.364 311,-426 237.968,-399.573 188.935,-450.31 140,-390 114.762,-358.895 130.717,-311.934 147.235,-279.72"/>
<text text-anchor="middle" x="147.073" y="-287.219" font-family="Times New Roman,serif" font-size="10.00">doors</text>
<text text-anchor="middle" x="320.72" y="-431.806" font-family="Times New Roman,serif" font-size="10.00">doors</text>
</g>
<!-- a1 -->
<g id="node8" class="node"><title>a1</title>
<polygon fill="none" stroke="black" points="158,-361 158,-378 303,-378 303,-361 158,-361"/>
<text text-anchor="start" x="197.5" y="-367.5" font-family="Times New Roman,serif" font-size="10.00"> </text>
<text text-anchor="start" x="200.5" y="-367.5" font-family="Times New Roman,serif" font-size="10.00">a1 :Assignment</text>
<polygon fill="none" stroke="black" points="158,-327 158,-361 303,-361 303,-327 158,-327"/>
<text text-anchor="start" x="163.5" y="-349" font-family="Times New Roman,serif" font-size="10.00">content = &quot;Matrix Multiplication&quot;</text>
<text text-anchor="start" x="210.5" y="-335" font-family="Times New Roman,serif" font-size="10.00">points = 5</text>
</g>
<!-- mathRoom&#45;&#45;a1 -->
<g id="edge20" class="edge"><title>mathRoom&#45;&#45;a1</title>
<path fill="none" stroke="black" d="M330.624,-426.935C310.91,-412.646 288.401,-396.331 269.679,-382.76"/>
<text text-anchor="middle" x="279.497" y="-382.157" font-family="Times New Roman,serif" font-size="10.00">assignments</text>
<text text-anchor="middle" x="320.806" y="-422.538" font-family="Times New Roman,serif" font-size="10.00">room</text>
</g>
<!-- a2 -->
<g id="node9" class="node"><title>a2</title>
<polygon fill="none" stroke="black" points="337,-361 337,-378 422,-378 422,-361 337,-361"/>
<text text-anchor="start" x="346.5" y="-367.5" font-family="Times New Roman,serif" font-size="10.00"> </text>
<text text-anchor="start" x="349.5" y="-367.5" font-family="Times New Roman,serif" font-size="10.00">a2 :Assignment</text>
<polygon fill="none" stroke="black" points="337,-327 337,-361 422,-361 422,-327 337,-327"/>
<text text-anchor="start" x="342.5" y="-349" font-family="Times New Roman,serif" font-size="10.00">content = &quot;Series&quot;</text>
<text text-anchor="start" x="359.5" y="-335" font-family="Times New Roman,serif" font-size="10.00">points = 6</text>
</g>
<!-- mathRoom&#45;&#45;a2 -->
<g id="edge22" class="edge"><title>mathRoom&#45;&#45;a2</title>
<path fill="none" stroke="black" d="M379,-426.337C379,-412.206 379,-396.173 379,-382.799"/>
<text text-anchor="middle" x="383.226" y="-389.362" font-family="Times New Roman,serif" font-size="10.00">assignments</text>
<text text-anchor="middle" x="374.774" y="-414.774" font-family="Times New Roman,serif" font-size="10.00">room</text>
</g>
<!-- a3 -->
<g id="node10" class="node"><title>a3</title>
<polygon fill="none" stroke="black" points="456,-361 456,-378 552,-378 552,-361 456,-361"/>
<text text-anchor="start" x="471" y="-367.5" font-family="Times New Roman,serif" font-size="10.00"> </text>
<text text-anchor="start" x="474" y="-367.5" font-family="Times New Roman,serif" font-size="10.00">a3 :Assignment</text>
<polygon fill="none" stroke="black" points="456,-327 456,-361 552,-361 552,-327 456,-327"/>
<text text-anchor="start" x="461.5" y="-349" font-family="Times New Roman,serif" font-size="10.00">content = &quot;Integrals&quot;</text>
<text text-anchor="start" x="484" y="-335" font-family="Times New Roman,serif" font-size="10.00">points = 8</text>
</g>
<!-- mathRoom&#45;&#45;a3 -->
<g id="edge24" class="edge"><title>mathRoom&#45;&#45;a3</title>
<path fill="none" stroke="black" d="M420.276,-426.337C436.632,-412.206 455.188,-396.173 470.668,-382.799"/>
<text text-anchor="middle" x="466.573" y="-389.422" font-family="Times New Roman,serif" font-size="10.00">assignments</text>
<text text-anchor="middle" x="424.371" y="-414.714" font-family="Times New Roman,serif" font-size="10.00">room</text>
</g>
<!-- artsRoom&#45;&#45;sportsRoom -->
<g id="edge26" class="edge"><title>artsRoom&#45;&#45;sportsRoom</title>
<path fill="none" stroke="black" d="M86.6157,-316.337C100.051,-304.541 114.995,-291.419 128.427,-279.625"/>
<text text-anchor="middle" x="124.405" y="-286.281" font-family="Times New Roman,serif" font-size="10.00">doors</text>
<text text-anchor="middle" x="90.6376" y="-304.682" font-family="Times New Roman,serif" font-size="10.00">doors</text>
</g>
<!-- artsRoom&#45;&#45;examRoom -->
<g id="edge28" class="edge"><title>artsRoom&#45;&#45;examRoom</title>
<path fill="none" stroke="black" d="M55.311,-316.39C64.4153,-285.532 80.2431,-240.536 103,-206 111.672,-192.84 123.376,-180.23 134.521,-169.677"/>
<text text-anchor="middle" x="130.915" y="-176.505" font-family="Times New Roman,serif" font-size="10.00">doors</text>
<text text-anchor="middle" x="53.9012" y="-303.99" font-family="Times New Roman,serif" font-size="10.00">doors</text>
</g>
<!-- artsRoom&#45;&#45;placeToBe -->
<g id="edge30" class="edge"><title>artsRoom&#45;&#45;placeToBe</title>
<path fill="none" stroke="black" d="M47.2657,-316.269C49.0668,-286.318 53.43,-242.689 64,-206 77.0451,-160.72 83.7092,-149.76 109,-110 116.947,-97.5064 126.826,-84.7972 136.259,-73.6044"/>
<text text-anchor="middle" x="133.693" y="-80.7696" font-family="Times New Roman,serif" font-size="10.00">doors</text>
<text text-anchor="middle" x="43.6476" y="-304.446" font-family="Times New Roman,serif" font-size="10.00">doors</text>
</g>
<!-- sportsRoom&#45;&#45;examRoom -->
<g id="edge32" class="edge"><title>sportsRoom&#45;&#45;examRoom</title>
<path fill="none" stroke="black" d="M169,-206.391C169,-194.351 169,-181.07 169,-169.641"/>
<text text-anchor="middle" x="173.226" y="-176.204" font-family="Times New Roman,serif" font-size="10.00">doors</text>
<text text-anchor="middle" x="164.774" y="-194.828" font-family="Times New Roman,serif" font-size="10.00">doors</text>
</g>
<!-- examRoom&#45;&#45;placeToBe -->
<g id="edge34" class="edge"><title>examRoom&#45;&#45;placeToBe</title>
<path fill="none" stroke="black" d="M169,-110.328C169,-98.8968 169,-85.6185 169,-73.5822"/>
<text text-anchor="middle" x="173.226" y="-80.1453" font-family="Times New Roman,serif" font-size="10.00">doors</text>
<text text-anchor="middle" x="164.774" y="-98.7645" font-family="Times New Roman,serif" font-size="10.00">doors</text>
</g>
</g>
</svg>
