<?xml version="1.0" encoding="UTF-8" standalone="no"?>
<!DOCTYPE svg PUBLIC "-//W3C//DTD SVG 1.1//EN"
 "http://www.w3.org/Graphics/SVG/1.1/DTD/svg11.dtd">
<!-- Generated by graphviz version 2.26.3 (20100126.1600)
 -->
<!-- Title: ClassDiagram Pages: 1 -->
<svg width="246pt" height="116pt"
 viewBox="0.00 0.00 246.00 116.00" xmlns="http://www.w3.org/2000/svg" xmlns:xlink="http://www.w3.org/1999/xlink">
<g id="graph1" class="graph" transform="scale(1 1) rotate(0) translate(4 112)">
<title>ClassDiagram</title>
<polygon fill="white" stroke="white" points="-4,5 -4,-112 243,-112 243,5 -4,5"/>
<!-- _University -->
<g id="node1" class="node"><title>_University</title>
<a xlink:href="../examples/org/sdmlib/examples/studyrightWithAssignments/University.java" xlink:title="&lt;TABLE&gt;">
<polygon fill="none" stroke="black" points="8,-65 8,-82 82,-82 82,-65 8,-65"/>
<text text-anchor="start" x="21" y="-71.1667" font-family="Times Roman,serif" font-size="10.00">University</text>
</a>
<polygon fill="none" stroke="black" points="8,-45 8,-65 82,-65 82,-45 8,-45"/>
<text text-anchor="start" x="13" y="-52.6667" font-family="Times Roman,serif" font-size="10.00">name :String</text>
<polygon fill="none" stroke="black" points="8,-25 8,-45 82,-45 82,-25 8,-25"/>
<text text-anchor="start" x="43" y="-32.6667" font-family="Times Roman,serif" font-size="10.00"> </text>
</g>
<!-- _Student -->
<g id="node2" class="node"><title>_Student</title>
<a xlink:href="../examples/org/sdmlib/examples/studyrightWithAssignments/Student.java" xlink:title="&lt;TABLE&gt;">
<polygon fill="none" stroke="black" points="116,-86 116,-103 231,-103 231,-86 116,-86"/>
<text text-anchor="start" x="154" y="-92.1667" font-family="Times Roman,serif" font-size="10.00">Student</text>
</a>
<polygon fill="none" stroke="black" points="116,-24 116,-86 231,-86 231,-24 116,-24"/>
<text text-anchor="start" x="121" y="-73.6667" font-family="Times Roman,serif" font-size="10.00">name :String</text>
<text text-anchor="start" x="121" y="-59.6667" font-family="Times Roman,serif" font-size="10.00">id :String</text>
<text text-anchor="start" x="121" y="-45.6667" font-family="Times Roman,serif" font-size="10.00">assignmentPoints :int</text>
<text text-anchor="start" x="121" y="-31.6667" font-family="Times Roman,serif" font-size="10.00">motivation :int</text>
<polygon fill="none" stroke="black" points="116,-4 116,-24 231,-24 231,-4 116,-4"/>
<text text-anchor="start" x="171.5" y="-11.6667" font-family="Times Roman,serif" font-size="10.00"> </text>
</g>
</g>
</svg>
