<?xml version="1.0" encoding="UTF-8" standalone="no"?>
<!DOCTYPE svg PUBLIC "-//W3C//DTD SVG 1.1//EN"
 "http://www.w3.org/Graphics/SVG/1.1/DTD/svg11.dtd">
<!-- Generated by graphviz version 2.28.0 (20110507.0327)
 -->
<!-- Title: ObjectDiagram Pages: 1 -->
<svg width="228pt" height="218pt"
 viewBox="0.00 0.00 228.00 218.00" xmlns="http://www.w3.org/2000/svg" xmlns:xlink="http://www.w3.org/1999/xlink">
<g id="graph1" class="graph" transform="scale(1 1) rotate(0) translate(4 214)">
<title>ObjectDiagram</title>
<polygon fill="white" stroke="white" points="-4,5 -4,-214 225,-214 225,5 -4,5"/>
<!-- r1 -->
<g id="node1" class="node"><title>r1</title>
<polygon fill="deepskyblue" stroke="deepskyblue" points="56,-168.5 56,-205.5 128,-205.5 128,-168.5 56,-168.5"/>
<polygon fill="none" stroke="black" points="56,-188 56,-205 128,-205 128,-188 56,-188"/>
<text text-anchor="start" x="59.5" y="-194.5" font-family="Arial" font-size="10.00"> </text>
<text text-anchor="start" x="63.5" y="-194.5" font-family="Arial" font-size="10.00"> r1 :RoomPO </text>
<polygon fill="none" stroke="black" points="56,-168 56,-188 128,-188 128,-168 56,-168"/>
<text text-anchor="start" x="88.5" y="-176" font-family="Arial" font-size="10.00"> &#160;</text>
</g>
<!-- allMatches_r1 -->
<g id="node2" class="node"><title>allMatches_r1</title>
<text text-anchor="middle" x="32" y="-102.5" font-family="Arial" font-size="10.00">allMatches</text>
</g>
<!-- r1&#45;&#45;allMatches_r1 -->
<g id="edge2" class="edge"><title>r1&#45;&#45;allMatches_r1</title>
<path fill="none" stroke="black" stroke-dasharray="1,5" d="M75.6047,-164.14C65.8896,-151.186 53.7594,-135.013 44.7612,-123.015"/>
</g>
<!-- s2 -->
<g id="node3" class="node"><title>s2</title>
<polygon fill="deepskyblue" stroke="deepskyblue" points="90,-4.5 90,-41.5 172,-41.5 172,-4.5 90,-4.5"/>
<polygon fill="none" stroke="black" points="90,-24 90,-41 172,-41 172,-24 90,-24"/>
<text text-anchor="start" x="93.5" y="-30.5" font-family="Arial" font-size="10.00"> </text>
<text text-anchor="start" x="97.5" y="-30.5" font-family="Arial" font-size="10.00"> s2 :StudentPO </text>
<polygon fill="none" stroke="black" points="90,-4 90,-24 172,-24 172,-4 90,-4"/>
<text text-anchor="start" x="127.5" y="-12" font-family="Arial" font-size="10.00"> &#160;</text>
</g>
<!-- r1&#45;&#45;s2 -->
<g id="edge4" class="edge"><title>r1&#45;&#45;s2</title>
<path fill="none" stroke="black" d="M94.9883,-164.279C98.1323,-143.093 103.646,-110.052 111,-82 114.214,-69.7393 118.762,-56.3445 122.709,-45.5194"/>
<text text-anchor="middle" x="123.603" y="-52.9793" font-family="Arial" font-size="10.00">students</text>
</g>
<!-- s3 -->
<g id="node4" class="node"><title>s3</title>
<polygon fill="deepskyblue" stroke="deepskyblue" points="128,-86.5 128,-123.5 212,-123.5 212,-86.5 128,-86.5"/>
<polygon fill="none" stroke="black" points="128,-106 128,-123 212,-123 212,-106 128,-106"/>
<text text-anchor="start" x="132.5" y="-112.5" font-family="Arial" font-size="10.00"> </text>
<text text-anchor="start" x="136.5" y="-112.5" font-family="Arial" font-size="10.00"> s3 :StudentPO </text>
<polygon fill="none" stroke="black" points="128,-86 128,-106 212,-106 212,-86 128,-86"/>
<text text-anchor="start" x="133.5" y="-94" font-family="Arial" font-size="10.00"> motivation == 0 </text>
</g>
<!-- r1&#45;&#45;s3 -->
<g id="edge6" class="edge"><title>r1&#45;&#45;s3</title>
<path fill="none" stroke="black" d="M113.314,-164.14C124.41,-152.759 137.929,-138.893 148.982,-127.557"/>
<text text-anchor="middle" x="145.681" y="-134.496" font-family="Arial" font-size="10.00">students</text>
</g>
<!-- s3&#45;&#45;s2 -->
<g id="edge8" class="edge"><title>s3&#45;&#45;s2</title>
<path fill="none" stroke="black" d="M159.343,-82.1396C153.795,-70.759 147.035,-56.8929 141.509,-45.5569"/>
<text text-anchor="middle" x="149.279" y="-49.3516" font-family="Arial" font-size="10.00">friends</text>
</g>
</g>
</svg>
