<?xml version="1.0" encoding="UTF-8" standalone="no"?>
<!DOCTYPE svg PUBLIC "-//W3C//DTD SVG 1.1//EN"
 "http://www.w3.org/Graphics/SVG/1.1/DTD/svg11.dtd">
<!-- Generated by graphviz version 2.28.0 (20110507.0327)
 -->
<!-- Title: ClassDiagram Pages: 1 -->
<svg width="221pt" height="190pt"
 viewBox="0.00 0.00 221.27 190.00" xmlns="http://www.w3.org/2000/svg" xmlns:xlink="http://www.w3.org/1999/xlink">
<g id="graph1" class="graph" transform="scale(1 1) rotate(0) translate(4 186)">
<title>ClassDiagram</title>
<polygon fill="white" stroke="white" points="-4,5 -4,-186 218.266,-186 218.266,5 -4,5"/>
<!-- University -->
<g id="node1" class="node"><title>University</title>
<polygon fill="none" stroke="black" points="58,-160 58,-177 119,-177 119,-160 58,-160"/>
<text text-anchor="start" x="67" y="-166.5" font-family="Times New Roman,serif" font-size="10.00">University</text>
<polygon fill="none" stroke="black" points="58,-140 58,-160 119,-160 119,-140 58,-140"/>
<text text-anchor="start" x="63" y="-148" font-family="Times New Roman,serif" font-size="10.00">name :String</text>
<polygon fill="none" stroke="black" points="58,-120 58,-140 119,-140 119,-120 58,-120"/>
<text text-anchor="start" x="87" y="-128" font-family="Times New Roman,serif" font-size="10.00"> </text>
</g>
<!-- Student -->
<g id="node2" class="node"><title>Student</title>
<polygon fill="none" stroke="black" points="8,-58 8,-75 69,-75 69,-58 8,-58"/>
<text text-anchor="start" x="22.5" y="-64.5" font-family="Times New Roman,serif" font-size="10.00">Student</text>
<polygon fill="none" stroke="black" points="8,-24 8,-58 69,-58 69,-24 8,-24"/>
<text text-anchor="start" x="13" y="-46" font-family="Times New Roman,serif" font-size="10.00">name :String</text>
<text text-anchor="start" x="13" y="-32" font-family="Times New Roman,serif" font-size="10.00">matrNo :int</text>
<polygon fill="none" stroke="black" points="8,-4 8,-24 69,-24 69,-4 8,-4"/>
<text text-anchor="start" x="37" y="-12" font-family="Times New Roman,serif" font-size="10.00"> </text>
</g>
<!-- University&#45;&#45;Student -->
<g id="edge2" class="edge"><title>University&#45;&#45;Student</title>
<path fill="none" stroke="black" d="M73.2688,-116.475C67.9108,-105.009 61.7912,-91.9132 56.1705,-79.8848"/>
<text text-anchor="middle" x="63.8361" y="-83.8065" font-family="Times New Roman,serif" font-size="10.00">students</text>
<text text-anchor="middle" x="65.6032" y="-107.553" font-family="Times New Roman,serif" font-size="10.00">uni</text>
</g>
<!-- Room -->
<g id="node3" class="node"><title>Room</title>
<polygon fill="none" stroke="black" points="103,-58 103,-75 175,-75 175,-58 103,-58"/>
<text text-anchor="start" x="127" y="-64.5" font-family="Times New Roman,serif" font-size="10.00">Room</text>
<polygon fill="none" stroke="black" points="103,-24 103,-58 175,-58 175,-24 103,-24"/>
<text text-anchor="start" x="108" y="-46" font-family="Times New Roman,serif" font-size="10.00">roomNo :String</text>
<text text-anchor="start" x="108" y="-32" font-family="Times New Roman,serif" font-size="10.00">credits :int</text>
<polygon fill="none" stroke="black" points="103,-4 103,-24 175,-24 175,-4 103,-4"/>
<text text-anchor="start" x="137.5" y="-12" font-family="Times New Roman,serif" font-size="10.00"> </text>
</g>
<!-- University&#45;&#45;Room -->
<g id="edge4" class="edge"><title>University&#45;&#45;Room</title>
<path fill="none" stroke="black" d="M103.026,-116.475C108.491,-105.009 114.733,-91.9132 120.466,-79.8848"/>
<text text-anchor="middle" x="120.382" y="-87.3845" font-family="Times New Roman,serif" font-size="10.00">rooms</text>
<text text-anchor="middle" x="103.11" y="-103.976" font-family="Times New Roman,serif" font-size="10.00">uni</text>
</g>
<!-- Room&#45;&#45;Room -->
<g id="edge6" class="edge"><title>Room&#45;&#45;Room</title>
<path fill="none" stroke="black" d="M183.024,-59.8495C193.369,-58.2181 201,-51.6016 201,-40 201,-28.3984 193.369,-21.7819 183.024,-20.1505"/>
<text text-anchor="middle" x="192.766" y="-15.3939" font-family="Times New Roman,serif" font-size="10.00">neighbors</text>
<text text-anchor="middle" x="191.015" y="-51.3372" font-family="Times New Roman,serif" font-size="10.00">neighbors</text>
</g>
</g>
</svg>
