<?xml version="1.0" encoding="UTF-8" standalone="no"?>
<!DOCTYPE svg PUBLIC "-//W3C//DTD SVG 1.1//EN"
 "http://www.w3.org/Graphics/SVG/1.1/DTD/svg11.dtd">
<!-- Generated by graphviz version 2.28.0 (20110507.0327)
 -->
<!-- Title: ObjectDiagram Pages: 1 -->
<svg width="281pt" height="248pt"
 viewBox="0.00 0.00 281.00 248.00" xmlns="http://www.w3.org/2000/svg" xmlns:xlink="http://www.w3.org/1999/xlink">
<g id="graph1" class="graph" transform="scale(1 1) rotate(0) translate(4 244)">
<title>ObjectDiagram</title>
<polygon fill="white" stroke="white" points="-4,5 -4,-244 278,-244 278,5 -4,5"/>
<!-- karli -->
<g id="node1" class="node"><title>karli</title>
<a xlink:href="../examples/org/sdmlib/examples/studyrightWithAssignments/model/TeachingAssistant.java" xlink:title="&lt;TABLE&gt;">
<polygon fill="none" stroke="black" points="8,-218 8,-235 124,-235 124,-218 8,-218"/>
<text text-anchor="start" x="11.5" y="-224.5" font-family="Arial" font-size="10.00"> </text>
<text text-anchor="start" x="15.5" y="-224.5" font-family="Arial" font-size="10.00">karli :TeachingAssistant</text>
</a>
<polygon fill="none" stroke="black" points="8,-128 8,-218 124,-218 124,-128 8,-128"/>
<text text-anchor="start" x="13" y="-206" font-family="Arial" font-size="10.00">credits = 0</text>
<text text-anchor="start" x="13" y="-192" font-family="Arial" font-size="10.00">motivation = 42</text>
<text text-anchor="start" x="13" y="-178" font-family="Arial" font-size="10.00">name = &quot;Karli&quot;</text>
<text text-anchor="start" x="13" y="-164" font-family="Arial" font-size="10.00">certified = &quot;false&quot;</text>
<text text-anchor="start" x="13" y="-150" font-family="Arial" font-size="10.00">assignmentPoints = 0</text>
<text text-anchor="start" x="13" y="-136" font-family="Arial" font-size="10.00">room = &quot;&quot;</text>
</g>
<!-- abu -->
<g id="node2" class="node"><title>abu</title>
<a xlink:href="../examples/org/sdmlib/examples/studyrightWithAssignments/model/Student.java" xlink:title="&lt;TABLE&gt;">
<polygon fill="none" stroke="black" points="159,-204 159,-221 266,-221 266,-204 159,-204"/>
<text text-anchor="start" x="182.5" y="-210.5" font-family="Arial" font-size="10.00"> </text>
<text text-anchor="start" x="186.5" y="-210.5" font-family="Arial" font-size="10.00">abu :Student</text>
</a>
<polygon fill="none" stroke="black" points="159,-142 159,-204 266,-204 266,-142 159,-142"/>
<text text-anchor="start" x="164" y="-192" font-family="Arial" font-size="10.00">credits = 0</text>
<text text-anchor="start" x="164" y="-178" font-family="Arial" font-size="10.00">motivation = 42</text>
<text text-anchor="start" x="164" y="-164" font-family="Arial" font-size="10.00">name = &quot;Abu&quot;</text>
<text text-anchor="start" x="164" y="-150" font-family="Arial" font-size="10.00">assignmentPoints = 0</text>
</g>
<!-- alice -->
<g id="node3" class="node"><title>alice</title>
<a xlink:href="../examples/org/sdmlib/examples/studyrightWithAssignments/model/Student.java" xlink:title="&lt;TABLE&gt;">
<polygon fill="none" stroke="black" points="159,-66 159,-83 266,-83 266,-66 159,-66"/>
<text text-anchor="start" x="180" y="-72.5" font-family="Arial" font-size="10.00"> </text>
<text text-anchor="start" x="184" y="-72.5" font-family="Arial" font-size="10.00">alice :Student</text>
</a>
<polygon fill="none" stroke="black" points="159,-4 159,-66 266,-66 266,-4 159,-4"/>
<text text-anchor="start" x="164" y="-54" font-family="Arial" font-size="10.00">credits = 0</text>
<text text-anchor="start" x="164" y="-40" font-family="Arial" font-size="10.00">motivation = 42</text>
<text text-anchor="start" x="164" y="-26" font-family="Arial" font-size="10.00">name = &quot;Alice&quot;</text>
<text text-anchor="start" x="164" y="-12" font-family="Arial" font-size="10.00">assignmentPoints = 0</text>
</g>
<!-- abu&#45;&#45;alice -->
<g id="edge2" class="edge"><title>abu&#45;&#45;alice</title>
<path fill="none" stroke="black" d="M212,-138.342C212,-122.139 212,-103.696 212,-87.5067"/>
<text text-anchor="middle" x="216.226" y="-94.0698" font-family="Arial" font-size="10.00">friends</text>
<text text-anchor="middle" x="207.774" y="-126.779" font-family="Arial" font-size="10.00">friends</text>
</g>
</g>
</svg>
