<?xml version="1.0" encoding="UTF-8" standalone="no"?>
<!DOCTYPE svg PUBLIC "-//W3C//DTD SVG 1.1//EN"
 "http://www.w3.org/Graphics/SVG/1.1/DTD/svg11.dtd">
<!-- Generated by graphviz version 2.28.0 (20110507.0327)
 -->
<!-- Title: ClassDiagram Pages: 1 -->
<svg width="254pt" height="478pt"
 viewBox="0.00 0.00 254.23 478.00" xmlns="http://www.w3.org/2000/svg" xmlns:xlink="http://www.w3.org/1999/xlink">
<g id="graph1" class="graph" transform="scale(1 1) rotate(0) translate(4 474)">
<title>ClassDiagram</title>
<polygon fill="white" stroke="white" points="-4,5 -4,-474 251.23,-474 251.23,5 -4,5"/>
<!-- _University -->
<g id="node1" class="node"><title>_University</title>
<a xlink:href="../examples/org/sdmlib/examples/studyrightWithAssignments/University.java" xlink:title="&lt;TABLE&gt;">
<polygon fill="none" stroke="black" points="79,-448 79,-465 146,-465 146,-448 79,-448"/>
<text text-anchor="start" x="91" y="-454.5" font-family="Arial" font-size="10.00">University</text>
</a>
<polygon fill="none" stroke="black" points="79,-428 79,-448 146,-448 146,-428 79,-428"/>
<text text-anchor="start" x="84" y="-436" font-family="Arial" font-size="10.00">name :String</text>
<polygon fill="none" stroke="black" points="79,-408 79,-428 146,-428 146,-408 79,-408"/>
<text text-anchor="start" x="110.5" y="-416" font-family="Arial" font-size="10.00"> </text>
</g>
<!-- _Student -->
<g id="node2" class="node"><title>_Student</title>
<a xlink:href="../examples/org/sdmlib/examples/studyrightWithAssignments/Student.java" xlink:title="&lt;TABLE&gt;">
<polygon fill="none" stroke="black" points="104,-346 104,-363 210,-363 210,-346 104,-346"/>
<text text-anchor="start" x="140" y="-352.5" font-family="Arial" font-size="10.00">Student</text>
</a>
<polygon fill="none" stroke="black" points="104,-270 104,-346 210,-346 210,-270 104,-270"/>
<text text-anchor="start" x="109" y="-334" font-family="Arial" font-size="10.00">name :String</text>
<text text-anchor="start" x="109" y="-320" font-family="Arial" font-size="10.00">id :String</text>
<text text-anchor="start" x="109" y="-306" font-family="Arial" font-size="10.00">assignmentPoints :int</text>
<text text-anchor="start" x="109" y="-292" font-family="Arial" font-size="10.00">motivation :int</text>
<text text-anchor="start" x="109" y="-278" font-family="Arial" font-size="10.00">credits :int</text>
<polygon fill="none" stroke="black" points="104,-250 104,-270 210,-270 210,-250 104,-250"/>
<text text-anchor="start" x="155" y="-258" font-family="Arial" font-size="10.00"> </text>
</g>
<!-- _University&#45;&gt;_Student -->
<g id="edge2" class="edge"><title>_University&#45;&gt;_Student</title>
<path fill="none" stroke="black" d="M123.124,-404.36C127.028,-393.255 131.552,-380.386 135.998,-367.74"/>
<text text-anchor="middle" x="136.979" y="-375.192" font-family="Arial" font-size="10.00">students *</text>
<text text-anchor="middle" x="122.143" y="-391.908" font-family="Arial" font-size="10.00">university</text>
</g>
<!-- _Room -->
<g id="node3" class="node"><title>_Room</title>
<a xlink:href="../examples/org/sdmlib/examples/studyrightWithAssignments/Room.java" xlink:title="&lt;TABLE&gt;">
<polygon fill="none" stroke="black" points="22,-188 22,-205 114,-205 114,-188 22,-188"/>
<text text-anchor="start" x="55" y="-194.5" font-family="Arial" font-size="10.00">Room</text>
</a>
<polygon fill="none" stroke="black" points="22,-140 22,-188 114,-188 114,-140 22,-140"/>
<text text-anchor="start" x="27" y="-176" font-family="Arial" font-size="10.00">name :String</text>
<text text-anchor="start" x="27" y="-162" font-family="Arial" font-size="10.00">topic :String</text>
<text text-anchor="start" x="27" y="-148" font-family="Arial" font-size="10.00">credits :int</text>
<polygon fill="none" stroke="black" points="22,-120 22,-140 114,-140 114,-120 22,-120"/>
<text text-anchor="start" x="27" y="-128" font-family="Arial" font-size="10.00">findPath(String,int)</text>
</g>
<!-- _University&#45;&gt;_Room -->
<g id="edge4" class="edge"><title>_University&#45;&gt;_Room</title>
<path fill="none" stroke="black" d="M98.4264,-404.347C94.1105,-393.066 89.7489,-380.145 87,-368 74.9075,-314.574 70.4881,-251.603 68.8861,-209.905"/>
<text text-anchor="middle" x="73.5018" y="-216.276" font-family="Arial" font-size="10.00">rooms *</text>
<text text-anchor="middle" x="91.273" y="-394.859" font-family="Arial" font-size="10.00">university</text>
</g>
<!-- _Student&#45;&gt;_Student -->
<g id="edge10" class="edge"><title>_Student&#45;&gt;_Student</title>
<path fill="none" stroke="black" d="M218.279,-329.755C228.747,-326.646 236,-319.061 236,-307 236,-294.939 228.747,-287.354 218.279,-284.245"/>
<text text-anchor="middle" x="228.23" y="-280.759" font-family="Arial" font-size="10.00">friends *</text>
<text text-anchor="middle" x="225.431" y="-320.266" font-family="Arial" font-size="10.00">friends *</text>
</g>
<!-- _Student&#45;&gt;_Room -->
<g id="edge8" class="edge"><title>_Student&#45;&gt;_Room</title>
<path fill="none" stroke="black" d="M119.514,-246.191C111.913,-234.063 104.032,-221.489 96.7882,-209.932"/>
<text text-anchor="middle" x="105.182" y="-212.867" font-family="Arial" font-size="10.00">in</text>
<text text-anchor="middle" x="111.12" y="-238.256" font-family="Arial" font-size="10.00">students *</text>
</g>
<!-- _Assignment -->
<g id="node5" class="node"><title>_Assignment</title>
<a xlink:href="../examples/org/sdmlib/examples/studyrightWithAssignments/Assignment.java" xlink:title="&lt;TABLE&gt;">
<polygon fill="none" stroke="black" points="131,-58 131,-75 206,-75 206,-58 131,-58"/>
<text text-anchor="start" x="142.5" y="-64.5" font-family="Arial" font-size="10.00">Assignment</text>
</a>
<polygon fill="none" stroke="black" points="131,-24 131,-58 206,-58 206,-24 131,-24"/>
<text text-anchor="start" x="136" y="-46" font-family="Arial" font-size="10.00">content :String</text>
<text text-anchor="start" x="136" y="-32" font-family="Arial" font-size="10.00">points :int</text>
<polygon fill="none" stroke="black" points="131,-4 131,-24 206,-24 206,-4 131,-4"/>
<text text-anchor="start" x="166.5" y="-12" font-family="Arial" font-size="10.00"> </text>
</g>
<!-- _Student&#45;&gt;_Assignment -->
<g id="edge16" class="edge"><title>_Student&#45;&gt;_Assignment</title>
<path fill="none" stroke="black" d="M159.482,-246.198C161.599,-195.212 164.579,-123.424 166.395,-79.6718"/>
<text text-anchor="middle" x="170.241" y="-86.4023" font-family="Arial" font-size="10.00">done *</text>
<text text-anchor="middle" x="155.636" y="-234.468" font-family="Arial" font-size="10.00">students *</text>
</g>
<!-- _Room&#45;&gt;_Room -->
<g id="edge6" class="edge"><title>_Room&#45;&gt;_Room</title>
<path fill="none" stroke="black" d="M122.007,-184.857C132.529,-182.319 140,-175.033 140,-163 140,-150.967 132.529,-143.681 122.007,-141.143"/>
<text text-anchor="middle" x="131.896" y="-137.157" font-family="Arial" font-size="10.00">doors *</text>
<text text-anchor="middle" x="129.502" y="-175.737" font-family="Arial" font-size="10.00">doors *</text>
</g>
<!-- _TeachingAssistant -->
<g id="node4" class="node"><title>_TeachingAssistant</title>
<a xlink:href="../examples/org/sdmlib/examples/studyrightWithAssignments/TeachingAssistant.java" xlink:title="&lt;TABLE&gt;">
<polygon fill="none" stroke="black" points="8,-51 8,-68 96,-68 96,-51 8,-51"/>
<text text-anchor="start" x="11.5" y="-57.5" font-family="Arial" font-size="10.00">TeachingAssistant</text>
</a>
<polygon fill="none" stroke="black" points="8,-31 8,-51 96,-51 96,-31 8,-31"/>
<text text-anchor="start" x="50" y="-39" font-family="Arial" font-size="10.00"> </text>
<polygon fill="none" stroke="black" points="8,-11 8,-31 96,-31 96,-11 8,-11"/>
<text text-anchor="start" x="50" y="-19" font-family="Arial" font-size="10.00"> </text>
</g>
<!-- _Room&#45;&gt;_TeachingAssistant -->
<g id="edge12" class="edge"><title>_Room&#45;&gt;_TeachingAssistant</title>
<path fill="none" stroke="black" d="M61.9511,-116.255C60.0219,-101.666 57.9315,-85.8571 56.1669,-72.5124"/>
<text text-anchor="middle" x="61.5447" y="-78.4433" font-family="Arial" font-size="10.00">tas *</text>
<text text-anchor="middle" x="56.5733" y="-105.324" font-family="Arial" font-size="10.00">room</text>
</g>
<!-- _Room&#45;&gt;_Assignment -->
<g id="edge14" class="edge"><title>_Room&#45;&gt;_Assignment</title>
<path fill="none" stroke="black" d="M105.806,-116.255C115.761,-104.209 126.404,-91.3313 136.02,-79.6959"/>
<text text-anchor="middle" x="133.504" y="-86.8742" font-family="Arial" font-size="10.00">assignments *</text>
<text text-anchor="middle" x="108.322" y="-104.077" font-family="Arial" font-size="10.00">room</text>
</g>
</g>
</svg>
