<?xml version="1.0" encoding="UTF-8" standalone="no"?>
<!DOCTYPE svg PUBLIC "-//W3C//DTD SVG 1.1//EN"
 "http://www.w3.org/Graphics/SVG/1.1/DTD/svg11.dtd">
<!-- Generated by graphviz version 2.28.0 (20110507.0327)
 -->
<!-- Title: ObjectDiagram Pages: 1 -->
<svg width="271pt" height="316pt"
 viewBox="0.00 0.00 271.00 316.00" xmlns="http://www.w3.org/2000/svg" xmlns:xlink="http://www.w3.org/1999/xlink">
<g id="graph1" class="graph" transform="scale(1 1) rotate(0) translate(4 312)">
<title>ObjectDiagram</title>
<polygon fill="white" stroke="white" points="-4,5 -4,-312 268,-312 268,5 -4,5"/>
<!-- karli -->
<g id="node1" class="node"><title>karli</title>
<image xlink:href="icons/karli.png" width="61px" height="46px" preserveAspectRatio="xMinYMin meet" x="31" y="-302"/>
<a xlink:href="../examples/org/sdmlib/examples/studyrightWithAssignments/Student.java" xlink:title="&lt;TABLE&gt;">
<polygon fill="none" stroke="black" points="8,-238 8,-254 115,-254 115,-238 8,-238"/>
<text text-anchor="start" x="30.5" y="-244" font-family="Arial" font-size="10.00"> </text>
<text text-anchor="start" x="34.5" y="-244" font-family="Arial" font-size="10.00">karli :Student</text>
</a>
<polygon fill="none" stroke="black" points="8,-176 8,-238 115,-238 115,-176 8,-176"/>
<text text-anchor="start" x="13" y="-226" font-family="Arial" font-size="10.00">name = &quot;Karli&quot;</text>
<text text-anchor="start" x="13" y="-212" font-family="Arial" font-size="10.00">assignmentPoints = 0</text>
<text text-anchor="start" x="13" y="-198" font-family="Arial" font-size="10.00">motivation = 42</text>
<text text-anchor="start" x="13" y="-184" font-family="Arial" font-size="10.00">credits = 0</text>
</g>
<!-- abu -->
<g id="node2" class="node"><title>abu</title>
<image xlink:href="icons/karli.png" width="61px" height="46px" preserveAspectRatio="xMinYMin meet" x="172" y="-302"/>
<a xlink:href="../examples/org/sdmlib/examples/studyrightWithAssignments/Student.java" xlink:title="&lt;TABLE&gt;">
<polygon fill="none" stroke="black" points="149,-238 149,-254 256,-254 256,-238 149,-238"/>
<text text-anchor="start" x="172.5" y="-244" font-family="Arial" font-size="10.00"> </text>
<text text-anchor="start" x="176.5" y="-244" font-family="Arial" font-size="10.00">abu :Student</text>
</a>
<polygon fill="none" stroke="black" points="149,-176 149,-238 256,-238 256,-176 149,-176"/>
<text text-anchor="start" x="154" y="-226" font-family="Arial" font-size="10.00">name = &quot;Abu&quot;</text>
<text text-anchor="start" x="154" y="-212" font-family="Arial" font-size="10.00">assignmentPoints = 0</text>
<text text-anchor="start" x="154" y="-198" font-family="Arial" font-size="10.00">motivation = 42</text>
<text text-anchor="start" x="154" y="-184" font-family="Arial" font-size="10.00">credits = 0</text>
</g>
<!-- alice -->
<g id="node3" class="node"><title>alice</title>
<image xlink:href="icons/karli.png" width="61px" height="46px" preserveAspectRatio="xMinYMin meet" x="172" y="-130"/>
<a xlink:href="../examples/org/sdmlib/examples/studyrightWithAssignments/Student.java" xlink:title="&lt;TABLE&gt;">
<polygon fill="none" stroke="black" points="149,-66 149,-82 256,-82 256,-66 149,-66"/>
<text text-anchor="start" x="170" y="-72" font-family="Arial" font-size="10.00"> </text>
<text text-anchor="start" x="174" y="-72" font-family="Arial" font-size="10.00">alice :Student</text>
</a>
<polygon fill="none" stroke="black" points="149,-4 149,-66 256,-66 256,-4 149,-4"/>
<text text-anchor="start" x="154" y="-54" font-family="Arial" font-size="10.00">name = &quot;Alice&quot;</text>
<text text-anchor="start" x="154" y="-40" font-family="Arial" font-size="10.00">assignmentPoints = 0</text>
<text text-anchor="start" x="154" y="-26" font-family="Arial" font-size="10.00">motivation = 42</text>
<text text-anchor="start" x="154" y="-12" font-family="Arial" font-size="10.00">credits = 0</text>
</g>
<!-- abu&#45;&#45;alice -->
<g id="edge2" class="edge"><title>abu&#45;&#45;alice</title>
<path fill="none" stroke="black" d="M202,-171.811C202,-160.118 202,-147.953 202,-136.257"/>
<text text-anchor="middle" x="206.226" y="-142.82" font-family="Arial" font-size="10.00">friends</text>
<text text-anchor="middle" x="197.774" y="-160.248" font-family="Arial" font-size="10.00">friends</text>
</g>
</g>
</svg>
