<?xml version="1.0" encoding="UTF-8" standalone="no"?>
<!DOCTYPE svg PUBLIC "-//W3C//DTD SVG 1.1//EN"
 "http://www.w3.org/Graphics/SVG/1.1/DTD/svg11.dtd">
<!-- Generated by graphviz version 2.28.0 (20110507.0327)
 -->
<!-- Title: ClassDiagram Pages: 1 -->
<svg width="173pt" height="450pt"
 viewBox="0.00 0.00 173.00 450.00" xmlns="http://www.w3.org/2000/svg" xmlns:xlink="http://www.w3.org/1999/xlink">
<g id="graph1" class="graph" transform="scale(1 1) rotate(0) translate(4 446)">
<title>ClassDiagram</title>
<polygon fill="white" stroke="white" points="-4,5 -4,-446 170,-446 170,5 -4,5"/>
<!-- _University -->
<g id="node1" class="node"><title>_University</title>
<a xlink:href="../examples/org/sdmlib/examples/studyright/University.java" xlink:title="&lt;TABLE&gt;">
<polygon fill="none" stroke="black" points="57,-420 57,-437 118,-437 118,-420 57,-420"/>
<text text-anchor="start" x="66" y="-426.5" font-family="Times New Roman,serif" font-size="10.00">University</text>
</a>
<polygon fill="none" stroke="black" points="57,-400 57,-420 118,-420 118,-400 57,-400"/>
<text text-anchor="start" x="62" y="-408" font-family="Times New Roman,serif" font-size="10.00">name :String</text>
<polygon fill="none" stroke="black" points="57,-380 57,-400 118,-400 118,-380 57,-380"/>
<text text-anchor="start" x="86" y="-388" font-family="Times New Roman,serif" font-size="10.00"> </text>
</g>
<!-- _Student -->
<g id="node2" class="node"><title>_Student</title>
<a xlink:href="../examples/org/sdmlib/examples/studyright/Student.java" xlink:title="&lt;TABLE&gt;">
<polygon fill="none" stroke="black" points="89,-318 89,-335 158,-335 158,-318 89,-318"/>
<text text-anchor="start" x="107.5" y="-324.5" font-family="Times New Roman,serif" font-size="10.00">Student</text>
</a>
<polygon fill="none" stroke="black" points="89,-256 89,-318 158,-318 158,-256 89,-256"/>
<text text-anchor="start" x="94" y="-306" font-family="Times New Roman,serif" font-size="10.00">name :String</text>
<text text-anchor="start" x="94" y="-292" font-family="Times New Roman,serif" font-size="10.00">matrNo :int</text>
<text text-anchor="start" x="94" y="-278" font-family="Times New Roman,serif" font-size="10.00">credits :int</text>
<text text-anchor="start" x="94" y="-264" font-family="Times New Roman,serif" font-size="10.00">motivation :int</text>
<polygon fill="none" stroke="black" points="89,-236 89,-256 158,-256 158,-236 89,-236"/>
<text text-anchor="start" x="122" y="-244" font-family="Times New Roman,serif" font-size="10.00"> </text>
</g>
<!-- _University&#45;&gt;_Student -->
<g id="edge2" class="edge"><title>_University&#45;&gt;_Student</title>
<path fill="none" stroke="black" d="M96.4586,-376.209C99.7918,-365.005 103.634,-352.093 107.341,-339.632"/>
<text text-anchor="middle" x="108.807" y="-347.024" font-family="Times New Roman,serif" font-size="10.00">students *</text>
<text text-anchor="middle" x="94.9924" y="-363.817" font-family="Times New Roman,serif" font-size="10.00">uni</text>
</g>
<!-- _Room -->
<g id="node3" class="node"><title>_Room</title>
<a xlink:href="../examples/org/sdmlib/examples/studyright/Room.java" xlink:title="&lt;TABLE&gt;">
<polygon fill="none" stroke="black" points="8,-174 8,-191 96,-191 96,-174 8,-174"/>
<text text-anchor="start" x="40" y="-180.5" font-family="Times New Roman,serif" font-size="10.00">Room</text>
</a>
<polygon fill="none" stroke="black" points="8,-140 8,-174 96,-174 96,-140 8,-140"/>
<text text-anchor="start" x="13" y="-162" font-family="Times New Roman,serif" font-size="10.00">roomNo :String</text>
<text text-anchor="start" x="13" y="-148" font-family="Times New Roman,serif" font-size="10.00">credits :int</text>
<polygon fill="none" stroke="black" points="8,-120 8,-140 96,-140 96,-120 8,-120"/>
<text text-anchor="start" x="13" y="-128" font-family="Times New Roman,serif" font-size="10.00">findPath(String,int)</text>
</g>
<!-- _University&#45;&gt;_Room -->
<g id="edge4" class="edge"><title>_University&#45;&gt;_Room</title>
<path fill="none" stroke="black" d="M78.6663,-376.344C75.9023,-364.951 73.0192,-351.959 71,-340 62.6506,-290.552 57.3961,-232.926 54.5807,-195.751"/>
<text text-anchor="middle" x="59.5011" y="-201.957" font-family="Times New Roman,serif" font-size="10.00">rooms *</text>
<text text-anchor="middle" x="72.4405" y="-366.018" font-family="Times New Roman,serif" font-size="10.00">uni</text>
</g>
<!-- _Student&#45;&gt;_Room -->
<g id="edge8" class="edge"><title>_Student&#45;&gt;_Room</title>
<path fill="none" stroke="black" d="M93.7117,-232.199C86.9123,-219.94 79.7991,-207.117 73.4122,-195.602"/>
<text text-anchor="middle" x="81.504" y="-198.978" font-family="Times New Roman,serif" font-size="10.00">in</text>
<text text-anchor="middle" x="85.6198" y="-223.823" font-family="Times New Roman,serif" font-size="10.00">students *</text>
</g>
<!-- _Assignment -->
<g id="node4" class="node"><title>_Assignment</title>
<a xlink:href="../examples/org/sdmlib/examples/studyright/Assignment.java" xlink:title="&lt;TABLE&gt;">
<polygon fill="none" stroke="black" points="71,-58 71,-75 132,-75 132,-58 71,-58"/>
<text text-anchor="start" x="77" y="-64.5" font-family="Times New Roman,serif" font-size="10.00">Assignment</text>
</a>
<polygon fill="none" stroke="black" points="71,-24 71,-58 132,-58 132,-24 71,-24"/>
<text text-anchor="start" x="76" y="-46" font-family="Times New Roman,serif" font-size="10.00">name :String</text>
<text text-anchor="start" x="76" y="-32" font-family="Times New Roman,serif" font-size="10.00">points :int</text>
<polygon fill="none" stroke="black" points="71,-4 71,-24 132,-24 132,-4 71,-4"/>
<text text-anchor="start" x="100" y="-12" font-family="Times New Roman,serif" font-size="10.00"> </text>
</g>
<!-- _Student&#45;&gt;_Assignment -->
<g id="edge12" class="edge"><title>_Student&#45;&gt;_Assignment</title>
<path fill="none" stroke="black" d="M131.836,-232.394C135.921,-198.81 138.415,-154.506 131,-116 128.666,-103.882 124.392,-91.2324 119.787,-79.8491"/>
<text text-anchor="middle" x="127.059" y="-84.2136" font-family="Times New Roman,serif" font-size="10.00">done *</text>
<text text-anchor="middle" x="128.651" y="-220.414" font-family="Times New Roman,serif" font-size="10.00">students</text>
</g>
<!-- _Room&#45;&gt;_Room -->
<g id="edge6" class="edge"><title>_Room&#45;&gt;_Room</title>
<path fill="none" stroke="black" d="M104.202,-176.853C114.592,-174.506 122,-167.555 122,-156 122,-144.445 114.592,-137.494 104.202,-135.147"/>
<text text-anchor="middle" x="114.067" y="-131.009" font-family="Times New Roman,serif" font-size="10.00">neighbors *</text>
<text text-anchor="middle" x="111.799" y="-167.849" font-family="Times New Roman,serif" font-size="10.00">neighbors *</text>
</g>
<!-- _Room&#45;&gt;_Assignment -->
<g id="edge10" class="edge"><title>_Room&#45;&gt;_Assignment</title>
<path fill="none" stroke="black" d="M68.5892,-116.405C73.6978,-104.519 79.3205,-91.4381 84.4279,-79.5555"/>
<text text-anchor="middle" x="84.7317" y="-87.0508" font-family="Times New Roman,serif" font-size="10.00">assignments *</text>
<text text-anchor="middle" x="68.2854" y="-103.909" font-family="Times New Roman,serif" font-size="10.00">room</text>
</g>
</g>
</svg>
