<?xml version="1.0" encoding="UTF-8" standalone="no"?>
<!DOCTYPE svg PUBLIC "-//W3C//DTD SVG 1.1//EN"
 "http://www.w3.org/Graphics/SVG/1.1/DTD/svg11.dtd">
<!-- Generated by graphviz version 2.28.0 (20110507.0327)
 -->
<!-- Title: ObjectDiagram Pages: 1 -->
<svg width="346pt" height="534pt"
 viewBox="0.00 0.00 346.18 534.00" xmlns="http://www.w3.org/2000/svg" xmlns:xlink="http://www.w3.org/1999/xlink">
<g id="graph1" class="graph" transform="scale(1 1) rotate(0) translate(4 530)">
<title>ObjectDiagram</title>
<polygon fill="white" stroke="white" points="-4,5 -4,-530 343.179,-530 343.179,5 -4,5"/>
<!-- u1 -->
<g id="node1" class="node"><title>u1</title>
<polygon fill="none" stroke="black" points="119.179,-504 119.179,-521 216.179,-521 216.179,-504 119.179,-504"/>
<text text-anchor="start" x="137.679" y="-510.5" font-family="Times New Roman,serif" font-size="10.00"> </text>
<text text-anchor="start" x="140.679" y="-510.5" font-family="Times New Roman,serif" font-size="10.00">u1 :University</text>
<polygon fill="none" stroke="black" points="119.179,-484 119.179,-504 216.179,-504 216.179,-484 119.179,-484"/>
<text text-anchor="start" x="124.679" y="-492" font-family="Times New Roman,serif" font-size="10.00">name = &quot;StudyRight&quot;</text>
</g>
<!-- s2 -->
<g id="node2" class="node"><title>s2</title>
<polygon fill="none" stroke="black" points="35.1786,-422 35.1786,-439 112.179,-439 112.179,-422 35.1786,-422"/>
<text text-anchor="start" x="49.1786" y="-428.5" font-family="Times New Roman,serif" font-size="10.00"> </text>
<text text-anchor="start" x="52.1786" y="-428.5" font-family="Times New Roman,serif" font-size="10.00">s2 :Student</text>
<polygon fill="none" stroke="black" points="35.1786,-388 35.1786,-422 112.179,-422 112.179,-388 35.1786,-388"/>
<text text-anchor="start" x="40.6786" y="-410" font-family="Times New Roman,serif" font-size="10.00">name = &quot;Albert&quot;</text>
<text text-anchor="start" x="44.6786" y="-396" font-family="Times New Roman,serif" font-size="10.00">matrNo = 4242</text>
</g>
<!-- u1&#45;&#45;s2 -->
<g id="edge22" class="edge"><title>u1&#45;&#45;s2</title>
<path fill="none" stroke="black" d="M143.943,-480.494C131.982,-469.424 117.235,-455.775 104.304,-443.807"/>
<text text-anchor="middle" x="113.826" y="-444.362" font-family="Times New Roman,serif" font-size="10.00">students</text>
<text text-anchor="middle" x="134.421" y="-474.94" font-family="Times New Roman,serif" font-size="10.00">uni</text>
</g>
<!-- r3 -->
<g id="node3" class="node"><title>r3</title>
<polygon fill="none" stroke="black" points="51.1786,-326 51.1786,-343 133.179,-343 133.179,-326 51.1786,-326"/>
<text text-anchor="start" x="72.6786" y="-332.5" font-family="Times New Roman,serif" font-size="10.00"> </text>
<text text-anchor="start" x="75.6786" y="-332.5" font-family="Times New Roman,serif" font-size="10.00">r3 :Room</text>
<polygon fill="none" stroke="black" points="51.1786,-292 51.1786,-326 133.179,-326 133.179,-292 51.1786,-292"/>
<text text-anchor="start" x="56.6786" y="-314" font-family="Times New Roman,serif" font-size="10.00">roomNo = &quot;math&quot;</text>
<text text-anchor="start" x="69.1786" y="-300" font-family="Times New Roman,serif" font-size="10.00">credits = 42</text>
</g>
<!-- u1&#45;&#45;r3 -->
<g id="edge14" class="edge"><title>u1&#45;&#45;r3</title>
<path fill="none" stroke="black" d="M161.308,-480.233C154.527,-456.206 142.451,-416.614 128.179,-384 122.8,-371.709 115.85,-358.677 109.493,-347.535"/>
<text text-anchor="middle" x="117.636" y="-350.84" font-family="Times New Roman,serif" font-size="10.00">rooms</text>
<text text-anchor="middle" x="154.752" y="-470.182" font-family="Times New Roman,serif" font-size="10.00">uni</text>
</g>
<!-- r4 -->
<g id="node4" class="node"><title>r4</title>
<polygon fill="none" stroke="black" points="26.1786,-230 26.1786,-247 104.179,-247 104.179,-230 26.1786,-230"/>
<text text-anchor="start" x="45.6786" y="-236.5" font-family="Times New Roman,serif" font-size="10.00"> </text>
<text text-anchor="start" x="48.6786" y="-236.5" font-family="Times New Roman,serif" font-size="10.00">r4 :Room</text>
<polygon fill="none" stroke="black" points="26.1786,-196 26.1786,-230 104.179,-230 104.179,-196 26.1786,-196"/>
<text text-anchor="start" x="31.6786" y="-218" font-family="Times New Roman,serif" font-size="10.00">roomNo = &quot;arts&quot;</text>
<text text-anchor="start" x="42.1786" y="-204" font-family="Times New Roman,serif" font-size="10.00">credits = 23</text>
</g>
<!-- u1&#45;&#45;r4 -->
<g id="edge16" class="edge"><title>u1&#45;&#45;r4</title>
<path fill="none" stroke="black" d="M110.736,-495.833C77.5432,-488.979 38.0955,-474.514 17.1786,-444 -23.5567,-384.575 18.7682,-296.792 46.0084,-251.837"/>
<text text-anchor="middle" x="45.1168" y="-259.297" font-family="Times New Roman,serif" font-size="10.00">rooms</text>
<text text-anchor="middle" x="100.963" y="-495.452" font-family="Times New Roman,serif" font-size="10.00">uni</text>
</g>
<!-- r5 -->
<g id="node5" class="node"><title>r5</title>
<polygon fill="none" stroke="black" points="100.179,-134 100.179,-151 188.179,-151 188.179,-134 100.179,-134"/>
<text text-anchor="start" x="124.679" y="-140.5" font-family="Times New Roman,serif" font-size="10.00"> </text>
<text text-anchor="start" x="127.679" y="-140.5" font-family="Times New Roman,serif" font-size="10.00">r5 :Room</text>
<polygon fill="none" stroke="black" points="100.179,-100 100.179,-134 188.179,-134 188.179,-100 100.179,-100"/>
<text text-anchor="start" x="105.679" y="-122" font-family="Times New Roman,serif" font-size="10.00">roomNo = &quot;sports&quot;</text>
<text text-anchor="start" x="121.179" y="-108" font-family="Times New Roman,serif" font-size="10.00">credits = 23</text>
</g>
<!-- u1&#45;&#45;r5 -->
<g id="edge18" class="edge"><title>u1&#45;&#45;r5</title>
<path fill="none" stroke="black" d="M165.859,-480.491C161.941,-416.605 150.369,-227.932 145.935,-155.636"/>
<text text-anchor="middle" x="150.708" y="-161.924" font-family="Times New Roman,serif" font-size="10.00">rooms</text>
<text text-anchor="middle" x="161.086" y="-469.204" font-family="Times New Roman,serif" font-size="10.00">uni</text>
</g>
<!-- r6 -->
<g id="node6" class="node"><title>r6</title>
<polygon fill="none" stroke="black" points="103.179,-38 103.179,-55 185.179,-55 185.179,-38 103.179,-38"/>
<text text-anchor="start" x="124.679" y="-44.5" font-family="Times New Roman,serif" font-size="10.00"> </text>
<text text-anchor="start" x="127.679" y="-44.5" font-family="Times New Roman,serif" font-size="10.00">r6 :Room</text>
<polygon fill="none" stroke="black" points="103.179,-4 103.179,-38 185.179,-38 185.179,-4 103.179,-4"/>
<text text-anchor="start" x="108.679" y="-26" font-family="Times New Roman,serif" font-size="10.00">roomNo = &quot;exam&quot;</text>
<text text-anchor="start" x="123.179" y="-12" font-family="Times New Roman,serif" font-size="10.00">credits = 0</text>
</g>
<!-- u1&#45;&#45;r6 -->
<g id="edge20" class="edge"><title>u1&#45;&#45;r6</title>
<path fill="none" stroke="black" d="M178.576,-480.425C195.21,-446.875 224.179,-379.729 224.179,-319 224.179,-319 224.179,-319 224.179,-221 224.179,-164.806 229.735,-146.544 205.179,-96 198.686,-82.6369 188.485,-70.1555 178.27,-59.7737"/>
<text text-anchor="middle" x="187.601" y="-60.8678" font-family="Times New Roman,serif" font-size="10.00">rooms</text>
<text text-anchor="middle" x="178.705" y="-467.926" font-family="Times New Roman,serif" font-size="10.00">uni</text>
</g>
<!-- s7 -->
<g id="node7" class="node"><title>s7</title>
<polygon fill="none" stroke="black" points="260.179,-422 260.179,-439 330.179,-439 330.179,-422 260.179,-422"/>
<text text-anchor="start" x="270.679" y="-428.5" font-family="Times New Roman,serif" font-size="10.00"> </text>
<text text-anchor="start" x="273.679" y="-428.5" font-family="Times New Roman,serif" font-size="10.00">s7 :Student</text>
<polygon fill="none" stroke="black" points="260.179,-388 260.179,-422 330.179,-422 330.179,-388 260.179,-388"/>
<text text-anchor="start" x="265.679" y="-410" font-family="Times New Roman,serif" font-size="10.00">name = &quot;Nina&quot;</text>
<text text-anchor="start" x="266.179" y="-396" font-family="Times New Roman,serif" font-size="10.00">matrNo = 2323</text>
</g>
<!-- u1&#45;&#45;s7 -->
<g id="edge24" class="edge"><title>u1&#45;&#45;s7</title>
<path fill="none" stroke="black" d="M198.819,-480.494C215.106,-469.424 235.188,-455.775 252.795,-443.807"/>
<text text-anchor="middle" x="247.675" y="-449.897" font-family="Times New Roman,serif" font-size="10.00">students</text>
<text text-anchor="middle" x="203.939" y="-469.404" font-family="Times New Roman,serif" font-size="10.00">uni</text>
</g>
<!-- s2&#45;&#45;r3 -->
<g id="edge12" class="edge"><title>s2&#45;&#45;r3</title>
<path fill="none" stroke="black" d="M78.9825,-384.286C81.3397,-372.624 84.0567,-359.182 86.4103,-347.538"/>
<text text-anchor="middle" x="88.7571" y="-354.759" font-family="Times New Roman,serif" font-size="10.00">in</text>
<text text-anchor="middle" x="76.6357" y="-372.065" font-family="Times New Roman,serif" font-size="10.00">students</text>
</g>
<!-- r3&#45;&#45;r4 -->
<g id="edge2" class="edge"><title>r3&#45;&#45;r4</title>
<path fill="none" stroke="black" d="M83.931,-288.286C80.5813,-276.624 76.7203,-263.182 73.3757,-251.538"/>
<text text-anchor="middle" x="79.9397" y="-256.582" font-family="Times New Roman,serif" font-size="10.00">neighbors</text>
<text text-anchor="middle" x="77.367" y="-278.242" font-family="Times New Roman,serif" font-size="10.00">neighbors</text>
</g>
<!-- r3&#45;&#45;r5 -->
<g id="edge4" class="edge"><title>r3&#45;&#45;r5</title>
<path fill="none" stroke="black" d="M106.682,-288.448C111.871,-277.303 117.371,-264.274 121.179,-252 131.214,-219.65 137.484,-181.153 140.896,-155.512"/>
<text text-anchor="middle" x="143.846" y="-162.567" font-family="Times New Roman,serif" font-size="10.00">neighbors</text>
<text text-anchor="middle" x="106.633" y="-275.948" font-family="Times New Roman,serif" font-size="10.00">neighbors</text>
</g>
<!-- r4&#45;&#45;r5 -->
<g id="edge6" class="edge"><title>r4&#45;&#45;r5</title>
<path fill="none" stroke="black" d="M89.3105,-192.286C99.1117,-180.624 110.408,-167.182 120.195,-155.538"/>
<text text-anchor="middle" x="117.599" y="-162.695" font-family="Times New Roman,serif" font-size="10.00">neighbors</text>
<text text-anchor="middle" x="91.9062" y="-180.129" font-family="Times New Roman,serif" font-size="10.00">neighbors</text>
</g>
<!-- r4&#45;&#45;r6 -->
<g id="edge8" class="edge"><title>r4&#45;&#45;r6</title>
<path fill="none" stroke="black" d="M64.4943,-192.283C64.9562,-165.989 68.4475,-126.625 83.1786,-96 89.6186,-82.6116 99.8067,-70.1239 110.026,-59.7441"/>
<text text-anchor="middle" x="106.779" y="-66.7023" font-family="Times New Roman,serif" font-size="10.00">neighbors</text>
<text text-anchor="middle" x="60.5306" y="-180.602" font-family="Times New Roman,serif" font-size="10.00">neighbors</text>
</g>
<!-- r5&#45;&#45;r6 -->
<g id="edge10" class="edge"><title>r5&#45;&#45;r6</title>
<path fill="none" stroke="black" d="M144.179,-96.2861C144.179,-84.624 144.179,-71.1822 144.179,-59.538"/>
<text text-anchor="middle" x="148.405" y="-66.1011" font-family="Times New Roman,serif" font-size="10.00">neighbors</text>
<text text-anchor="middle" x="139.952" y="-84.7231" font-family="Times New Roman,serif" font-size="10.00">neighbors</text>
</g>
</g>
</svg>
