<?xml version="1.0" encoding="UTF-8" standalone="no"?>
<!DOCTYPE svg PUBLIC "-//W3C//DTD SVG 1.1//EN"
 "http://www.w3.org/Graphics/SVG/1.1/DTD/svg11.dtd">
<!-- Generated by graphviz version 2.28.0 (20110507.0327)
 -->
<!-- Title: ClassDiagram Pages: 1 -->
<svg width="293pt" height="306pt"
 viewBox="0.00 0.00 293.49 306.00" xmlns="http://www.w3.org/2000/svg" xmlns:xlink="http://www.w3.org/1999/xlink">
<g id="graph1" class="graph" transform="scale(1 1) rotate(0) translate(4 302)">
<title>ClassDiagram</title>
<polygon fill="white" stroke="white" points="-4,5 -4,-302 290.489,-302 290.489,5 -4,5"/>
<!-- _Professor -->
<g id="node1" class="node"><title>_Professor</title>
<a xlink:href="../src/org/sdmlib/examples/studyright/model/Professor.java" xlink:title="&lt;TABLE&gt;">
<polygon fill="none" stroke="black" points="8,-269 8,-286 69,-286 69,-269 8,-269"/>
<text text-anchor="start" x="19" y="-275.5" font-family="Times New Roman,serif" font-size="10.00">Professor</text>
</a>
<polygon fill="none" stroke="black" points="8,-249 8,-269 69,-269 69,-249 8,-249"/>
<text text-anchor="start" x="13" y="-257" font-family="Times New Roman,serif" font-size="10.00">name :String</text>
<polygon fill="none" stroke="black" points="8,-229 8,-249 69,-249 69,-229 8,-229"/>
<text text-anchor="start" x="37" y="-237" font-family="Times New Roman,serif" font-size="10.00"> </text>
</g>
<!-- _Topic -->
<g id="node2" class="node"><title>_Topic</title>
<a xlink:href="../src/org/sdmlib/examples/studyright/Topic.java" xlink:title="&lt;TABLE&gt;">
<polygon fill="none" stroke="black" points="11,-153 11,-170 66,-170 66,-153 11,-153"/>
<text text-anchor="start" x="26.5" y="-159.5" font-family="Times New Roman,serif" font-size="10.00">Topic</text>
</a>
<polygon fill="none" stroke="black" points="11,-133 11,-153 66,-153 66,-133 11,-133"/>
<text text-anchor="start" x="16" y="-141" font-family="Times New Roman,serif" font-size="10.00">title :String</text>
<polygon fill="none" stroke="black" points="11,-113 11,-133 66,-133 66,-113 11,-113"/>
<text text-anchor="start" x="37" y="-121" font-family="Times New Roman,serif" font-size="10.00"> </text>
</g>
<!-- _Professor&#45;&gt;_Topic -->
<g id="edge2" class="edge"><title>_Professor&#45;&gt;_Topic</title>
<path fill="none" stroke="black" d="M38,-225.245C38,-209.433 38,-190.373 38,-174.585"/>
<text text-anchor="middle" x="42.2262" y="-181.148" font-family="Times New Roman,serif" font-size="10.00">topic</text>
<text text-anchor="middle" x="33.7738" y="-213.682" font-family="Times New Roman,serif" font-size="10.00">prof</text>
</g>
<!-- _Room -->
<g id="node3" class="node"><title>_Room</title>
<a xlink:href="../src/org/sdmlib/examples/studyright/model/Room.java" xlink:title="&lt;TABLE&gt;">
<polygon fill="none" stroke="black" points="129,-276 129,-293 243,-293 243,-276 129,-276"/>
<text text-anchor="start" x="174" y="-282.5" font-family="Times New Roman,serif" font-size="10.00">Room</text>
</a>
<polygon fill="none" stroke="black" points="129,-242 129,-276 243,-276 243,-242 129,-242"/>
<text text-anchor="start" x="134" y="-264" font-family="Times New Roman,serif" font-size="10.00">roomNo :String</text>
<text text-anchor="start" x="134" y="-250" font-family="Times New Roman,serif" font-size="10.00">credits :int</text>
<polygon fill="none" stroke="black" points="129,-222 129,-242 243,-242 243,-222 129,-222"/>
<text text-anchor="start" x="134" y="-230" font-family="Times New Roman,serif" font-size="10.00">findPath(String p0, int p1)</text>
</g>
<!-- _Room&#45;&gt;_Room -->
<g id="edge4" class="edge"><title>_Room&#45;&gt;_Room</title>
<path fill="none" stroke="black" d="M251.072,-278.124C261.697,-275.243 269,-268.535 269,-258 269,-247.465 261.697,-240.757 251.072,-237.876"/>
<text text-anchor="middle" x="260.989" y="-234.09" font-family="Times New Roman,serif" font-size="10.00">neighbors *</text>
<text text-anchor="middle" x="258.431" y="-268.853" font-family="Times New Roman,serif" font-size="10.00">neighbors *</text>
</g>
<!-- _Student -->
<g id="node4" class="node"><title>_Student</title>
<a xlink:href="../src/org/sdmlib/examples/studyright/model/Student.java" xlink:title="&lt;TABLE&gt;">
<polygon fill="none" stroke="black" points="115,-160 115,-177 176,-177 176,-160 115,-160"/>
<text text-anchor="start" x="129.5" y="-166.5" font-family="Times New Roman,serif" font-size="10.00">Student</text>
</a>
<polygon fill="none" stroke="black" points="115,-126 115,-160 176,-160 176,-126 115,-126"/>
<text text-anchor="start" x="120" y="-148" font-family="Times New Roman,serif" font-size="10.00">name :String</text>
<text text-anchor="start" x="120" y="-134" font-family="Times New Roman,serif" font-size="10.00">matrNo :int</text>
<polygon fill="none" stroke="black" points="115,-106 115,-126 176,-126 176,-106 115,-106"/>
<text text-anchor="start" x="144" y="-114" font-family="Times New Roman,serif" font-size="10.00"> </text>
</g>
<!-- _Room&#45;&gt;_Student -->
<g id="edge6" class="edge"><title>_Room&#45;&gt;_Student</title>
<path fill="none" stroke="black" d="M172.119,-218.405C167.845,-206.519 163.14,-193.438 158.866,-181.555"/>
<text text-anchor="middle" x="165.91" y="-186.153" font-family="Times New Roman,serif" font-size="10.00">students *</text>
<text text-anchor="middle" x="165.075" y="-208.807" font-family="Times New Roman,serif" font-size="10.00">in</text>
</g>
<!-- _University -->
<g id="node5" class="node"><title>_University</title>
<a xlink:href="../src/org/sdmlib/examples/studyright/model/University.java" xlink:title="&lt;TABLE&gt;">
<polygon fill="none" stroke="black" points="148,-44 148,-61 209,-61 209,-44 148,-44"/>
<text text-anchor="start" x="157" y="-50.5" font-family="Times New Roman,serif" font-size="10.00">University</text>
</a>
<polygon fill="none" stroke="black" points="148,-24 148,-44 209,-44 209,-24 148,-24"/>
<text text-anchor="start" x="153" y="-32" font-family="Times New Roman,serif" font-size="10.00">name :String</text>
<polygon fill="none" stroke="black" points="148,-4 148,-24 209,-24 209,-4 148,-4"/>
<text text-anchor="start" x="177" y="-12" font-family="Times New Roman,serif" font-size="10.00"> </text>
</g>
<!-- _Room&#45;&gt;_University -->
<g id="edge8" class="edge"><title>_Room&#45;&gt;_University</title>
<path fill="none" stroke="black" d="M190.489,-218.368C193.421,-186.953 196.026,-141.517 192,-102 190.778,-90.0089 188.375,-77.0099 185.899,-65.6201"/>
<text text-anchor="middle" x="191.925" y="-71.1007" font-family="Times New Roman,serif" font-size="10.00">uni</text>
<text text-anchor="middle" x="187.073" y="-206.47" font-family="Times New Roman,serif" font-size="10.00">rooms *</text>
</g>
<!-- _Student&#45;&gt;_University -->
<g id="edge10" class="edge"><title>_Student&#45;&gt;_University</title>
<path fill="none" stroke="black" d="M156.914,-102.371C160.643,-90.2786 164.712,-77.0858 168.272,-65.5428"/>
<text text-anchor="middle" x="169.639" y="-72.9489" font-family="Times New Roman,serif" font-size="10.00">uni</text>
<text text-anchor="middle" x="155.546" y="-89.9645" font-family="Times New Roman,serif" font-size="10.00">students *</text>
</g>
</g>
</svg>
