<?xml version="1.0" encoding="UTF-8" standalone="no"?>
<!DOCTYPE svg PUBLIC "-//W3C//DTD SVG 1.1//EN"
 "http://www.w3.org/Graphics/SVG/1.1/DTD/svg11.dtd">
<!-- Generated by graphviz version 2.28.0 (20110507.0327)
 -->
<!-- Title: ClassDiagram Pages: 1 -->
<svg width="514pt" height="292pt"
 viewBox="0.00 0.00 514.00 292.00" xmlns="http://www.w3.org/2000/svg" xmlns:xlink="http://www.w3.org/1999/xlink">
<g id="graph1" class="graph" transform="scale(1 1) rotate(0) translate(4 288)">
<title>ClassDiagram</title>
<polygon fill="white" stroke="white" points="-4,5 -4,-288 511,-288 511,5 -4,5"/>
<!-- Room -->
<g id="node1" class="node"><title>Room</title>
<polygon fill="none" stroke="black" points="8,-262 8,-279 80,-279 80,-262 8,-262"/>
<text text-anchor="start" x="32" y="-268.5" font-family="Times New Roman,serif" font-size="10.00">Room</text>
<polygon fill="none" stroke="black" points="8,-228 8,-262 80,-262 80,-228 8,-228"/>
<text text-anchor="start" x="13" y="-250" font-family="Times New Roman,serif" font-size="10.00">roomNo :String</text>
<text text-anchor="start" x="13" y="-236" font-family="Times New Roman,serif" font-size="10.00">credits :int</text>
<polygon fill="none" stroke="black" points="8,-208 8,-228 80,-228 80,-208 8,-208"/>
<text text-anchor="start" x="42.5" y="-216" font-family="Times New Roman,serif" font-size="10.00"> </text>
</g>
<!-- Room&#45;&#45;Room -->
<g id="edge4" class="edge"><title>Room&#45;&#45;Room</title>
<path fill="none" stroke="black" d="M88.0244,-263.85C98.3686,-262.218 106,-255.602 106,-244 106,-232.398 98.3686,-225.782 88.0244,-224.15"/>
<text text-anchor="middle" x="97.7665" y="-219.394" font-family="Times New Roman,serif" font-size="10.00">neighbors</text>
<text text-anchor="middle" x="96.0151" y="-255.337" font-family="Times New Roman,serif" font-size="10.00">neighbors</text>
</g>
<!-- Student -->
<g id="node6" class="node"><title>Student</title>
<polygon fill="none" stroke="black" points="16,-146 16,-163 55,-163 55,-146 16,-146"/>
<text text-anchor="start" x="19.5" y="-152.5" font-family="Times New Roman,serif" font-size="10.00">Student</text>
<polygon fill="none" stroke="black" points="16,-126 16,-146 55,-146 55,-126 16,-126"/>
<text text-anchor="start" x="34" y="-134" font-family="Times New Roman,serif" font-size="10.00"> </text>
<polygon fill="none" stroke="black" points="16,-106 16,-126 55,-126 55,-106 16,-106"/>
<text text-anchor="start" x="34" y="-114" font-family="Times New Roman,serif" font-size="10.00"> </text>
</g>
<!-- Room&#45;&#45;Student -->
<g id="edge6" class="edge"><title>Room&#45;&#45;Student</title>
<path fill="none" stroke="black" d="M40.7508,-204.371C39.7337,-192.279 38.624,-179.086 37.6531,-167.543"/>
<text text-anchor="middle" x="42.6241" y="-173.72" font-family="Times New Roman,serif" font-size="10.00">students</text>
<text text-anchor="middle" x="35.7798" y="-193.194" font-family="Times New Roman,serif" font-size="10.00">in</text>
</g>
<!-- University -->
<g id="node8" class="node"><title>University</title>
<polygon fill="none" stroke="black" points="51,-44 51,-61 101,-61 101,-44 51,-44"/>
<text text-anchor="start" x="54.5" y="-50.5" font-family="Times New Roman,serif" font-size="10.00">University</text>
<polygon fill="none" stroke="black" points="51,-24 51,-44 101,-44 101,-24 51,-24"/>
<text text-anchor="start" x="74.5" y="-32" font-family="Times New Roman,serif" font-size="10.00"> </text>
<polygon fill="none" stroke="black" points="51,-4 51,-24 101,-24 101,-4 51,-4"/>
<text text-anchor="start" x="74.5" y="-12" font-family="Times New Roman,serif" font-size="10.00"> </text>
</g>
<!-- Room&#45;&#45;University -->
<g id="edge2" class="edge"><title>Room&#45;&#45;University</title>
<path fill="none" stroke="black" d="M60.4873,-204.329C64.6793,-192.841 68.6567,-180.092 71,-168 77.6882,-133.489 78.226,-93.0697 77.542,-65.7187"/>
<text text-anchor="middle" x="81.9402" y="-72.1995" font-family="Times New Roman,serif" font-size="10.00">uni</text>
<text text-anchor="middle" x="59.571" y="-191.871" font-family="Times New Roman,serif" font-size="10.00">rooms</text>
</g>
<!-- GroupAccount -->
<g id="node2" class="node"><title>GroupAccount</title>
<polygon fill="none" stroke="black" points="131,-146 131,-163 199,-163 199,-146 131,-146"/>
<text text-anchor="start" x="134.5" y="-152.5" font-family="Times New Roman,serif" font-size="10.00">GroupAccount</text>
<polygon fill="none" stroke="black" points="131,-126 131,-146 199,-146 199,-126 131,-126"/>
<text text-anchor="start" x="163.5" y="-134" font-family="Times New Roman,serif" font-size="10.00"> </text>
<polygon fill="none" stroke="black" points="131,-106 131,-126 199,-126 199,-106 131,-106"/>
<text text-anchor="start" x="163.5" y="-114" font-family="Times New Roman,serif" font-size="10.00"> </text>
</g>
<!-- Person -->
<g id="node5" class="node"><title>Person</title>
<polygon fill="none" stroke="black" points="163,-44 163,-61 198,-61 198,-44 163,-44"/>
<text text-anchor="start" x="166.5" y="-50.5" font-family="Times New Roman,serif" font-size="10.00">Person</text>
<polygon fill="none" stroke="black" points="163,-24 163,-44 198,-44 198,-24 163,-24"/>
<text text-anchor="start" x="179" y="-32" font-family="Times New Roman,serif" font-size="10.00"> </text>
<polygon fill="none" stroke="black" points="163,-4 163,-24 198,-24 198,-4 163,-4"/>
<text text-anchor="start" x="179" y="-12" font-family="Times New Roman,serif" font-size="10.00"> </text>
</g>
<!-- GroupAccount&#45;&#45;Person -->
<g id="edge8" class="edge"><title>GroupAccount&#45;&#45;Person</title>
<path fill="none" stroke="black" d="M169.746,-102.359C171.497,-90.6864 173.481,-77.4631 175.233,-65.778"/>
<text text-anchor="middle" x="178.068" y="-72.8677" font-family="Times New Roman,serif" font-size="10.00">persons</text>
<text text-anchor="middle" x="166.911" y="-90.2697" font-family="Times New Roman,serif" font-size="10.00">parent</text>
</g>
<!-- GroupAccountTests -->
<g id="node3" class="node"><title>GroupAccountTests</title>
<polygon fill="none" stroke="black" points="253,-255 253,-272 343,-272 343,-255 253,-255"/>
<text text-anchor="start" x="256.5" y="-261.5" font-family="Times New Roman,serif" font-size="10.00">GroupAccountTests</text>
<polygon fill="none" stroke="black" points="253,-235 253,-255 343,-255 343,-235 253,-235"/>
<text text-anchor="start" x="296.5" y="-243" font-family="Times New Roman,serif" font-size="10.00"> </text>
<polygon fill="none" stroke="black" points="253,-215 253,-235 343,-235 343,-215 253,-215"/>
<text text-anchor="start" x="296.5" y="-223" font-family="Times New Roman,serif" font-size="10.00"> </text>
</g>
<!-- Item -->
<g id="node4" class="node"><title>Item</title>
<polygon fill="none" stroke="black" points="188,-255 188,-272 213,-272 213,-255 188,-255"/>
<text text-anchor="start" x="191.5" y="-261.5" font-family="Times New Roman,serif" font-size="10.00">Item</text>
<polygon fill="none" stroke="black" points="188,-235 188,-255 213,-255 213,-235 188,-235"/>
<text text-anchor="start" x="199" y="-243" font-family="Times New Roman,serif" font-size="10.00"> </text>
<polygon fill="none" stroke="black" points="188,-215 188,-235 213,-235 213,-215 188,-215"/>
<text text-anchor="start" x="199" y="-223" font-family="Times New Roman,serif" font-size="10.00"> </text>
</g>
<!-- Item&#45;&#45;GroupAccount -->
<g id="edge10" class="edge"><title>Item&#45;&#45;GroupAccount</title>
<path fill="none" stroke="black" d="M189.688,-211.475C185.171,-197.667 179.881,-181.494 175.359,-167.669"/>
<text text-anchor="middle" x="182.193" y="-172.469" font-family="Times New Roman,serif" font-size="10.00">parent</text>
<text text-anchor="middle" x="182.854" y="-201.675" font-family="Times New Roman,serif" font-size="10.00">items</text>
</g>
<!-- Item&#45;&#45;Person -->
<g id="edge12" class="edge"><title>Item&#45;&#45;Person</title>
<path fill="none" stroke="black" d="M209.952,-211.221C217.498,-182.367 225.145,-138.821 216,-102 212.877,-89.4249 206.952,-76.6166 200.797,-65.5573"/>
<text text-anchor="middle" x="208.846" y="-68.9904" font-family="Times New Roman,serif" font-size="10.00">buyer</text>
<text text-anchor="middle" x="208.03" y="-198.908" font-family="Times New Roman,serif" font-size="10.00">items</text>
</g>
<!-- Student&#45;&#45;University -->
<g id="edge14" class="edge"><title>Student&#45;&#45;University</title>
<path fill="none" stroke="black" d="M47.9727,-102.359C52.7586,-90.6864 58.1801,-77.4631 62.971,-65.778"/>
<text text-anchor="middle" x="63.4432" y="-73.2669" font-family="Times New Roman,serif" font-size="10.00">uni</text>
<text text-anchor="middle" x="47.5005" y="-89.8705" font-family="Times New Roman,serif" font-size="10.00">students</text>
</g>
<!-- StudyRightClassesCodeGen -->
<g id="node7" class="node"><title>StudyRightClassesCodeGen</title>
<polygon fill="none" stroke="black" points="378,-255 378,-272 499,-272 499,-255 378,-255"/>
<text text-anchor="start" x="381.5" y="-261.5" font-family="Times New Roman,serif" font-size="10.00">StudyRightClassesCodeGen</text>
<polygon fill="none" stroke="black" points="378,-235 378,-255 499,-255 499,-235 378,-235"/>
<text text-anchor="start" x="437" y="-243" font-family="Times New Roman,serif" font-size="10.00"> </text>
<polygon fill="none" stroke="black" points="378,-215 378,-235 499,-235 499,-215 378,-215"/>
<text text-anchor="start" x="437" y="-223" font-family="Times New Roman,serif" font-size="10.00"> </text>
</g>
</g>
</svg>
