<?xml version="1.0" encoding="UTF-8" standalone="no"?>
<!DOCTYPE svg PUBLIC "-//W3C//DTD SVG 1.1//EN"
 "http://www.w3.org/Graphics/SVG/1.1/DTD/svg11.dtd">
<!-- Generated by graphviz version 2.28.0 (20110507.0327)
 -->
<!-- Title: ObjectDiagram Pages: 1 -->
<svg width="787pt" height="436pt"
 viewBox="0.00 0.00 787.00 436.00" xmlns="http://www.w3.org/2000/svg" xmlns:xlink="http://www.w3.org/1999/xlink">
<g id="graph1" class="graph" transform="scale(1 1) rotate(0) translate(4 432)">
<title>ObjectDiagram</title>
<polygon fill="white" stroke="white" points="-4,5 -4,-432 784,-432 784,5 -4,5"/>
<!-- karli -->
<g id="node1" class="node"><title>karli</title>
<image xlink:href="icons/karli.png" width="61px" height="46px" preserveAspectRatio="xMinYMin meet" x="443.5" y="-422"/>
<a xlink:href="../examples/org/sdmlib/examples/studyrightWithAssignments/Student.java" xlink:title="&lt;TABLE&gt;">
<polygon fill="none" stroke="black" points="439,-358 439,-374 509,-374 509,-358 439,-358"/>
<text text-anchor="start" x="446" y="-364" font-family="Times New Roman,serif" font-size="10.00"> </text>
<text text-anchor="start" x="449" y="-364" font-family="Times New Roman,serif" font-size="10.00">karli :Student</text>
</a>
<polygon fill="none" stroke="black" points="439,-324 439,-358 509,-358 509,-324 439,-324"/>
<text text-anchor="start" x="444" y="-346" font-family="Times New Roman,serif" font-size="10.00">name = &quot;Karli&quot;</text>
<text text-anchor="start" x="444" y="-332" font-family="Times New Roman,serif" font-size="10.00">credits = 17</text>
</g>
<!-- studyRight -->
<g id="node2" class="node"><title>studyRight</title>
<a xlink:href="../examples/org/sdmlib/examples/studyrightWithAssignments/University.java" xlink:title="&lt;TABLE&gt;">
<polygon fill="none" stroke="black" points="8,-45 8,-62 110,-62 110,-45 8,-45"/>
<text text-anchor="start" x="11.5" y="-51.5" font-family="Times New Roman,serif" font-size="10.00"> </text>
<text text-anchor="start" x="14.5" y="-51.5" font-family="Times New Roman,serif" font-size="10.00">studyRight :University</text>
</a>
</g>
<!-- karli&#45;&#45;studyRight -->
<g id="edge2" class="edge"><title>karli&#45;&#45;studyRight</title>
<path fill="none" stroke="black" d="M430.722,-348.261C401.805,-331.205 363.294,-307.459 331,-284 230.615,-211.077 120.186,-111.494 77.3694,-72.0707"/>
<text text-anchor="middle" x="86.9079" y="-72.5733" font-family="Times New Roman,serif" font-size="10.00">university</text>
</g>
<!-- mathRoom -->
<g id="node3" class="node"><title>mathRoom</title>
<image xlink:href="icons/mathRoom.png" width="85px" height="63px" preserveAspectRatio="xMinYMin meet" x="351" y="-277"/>
<a xlink:href="../examples/org/sdmlib/examples/studyrightWithAssignments/Room.java" xlink:title="&lt;TABLE&gt;">
<polygon fill="none" stroke="black" points="349,-196 349,-212 438,-212 438,-196 349,-196"/>
<text text-anchor="start" x="356.5" y="-202" font-family="Times New Roman,serif" font-size="10.00"> </text>
<text text-anchor="start" x="359.5" y="-202" font-family="Times New Roman,serif" font-size="10.00">mathRoom :Room</text>
</a>
<polygon fill="none" stroke="black" points="349,-148 349,-196 438,-196 438,-148 349,-148"/>
<text text-anchor="start" x="354" y="-184" font-family="Times New Roman,serif" font-size="10.00">name = &quot;senate&quot;</text>
<text text-anchor="start" x="354" y="-170" font-family="Times New Roman,serif" font-size="10.00">topic = &quot;math&quot;</text>
<text text-anchor="start" x="354" y="-156" font-family="Times New Roman,serif" font-size="10.00">credits = 17</text>
</g>
<!-- karli&#45;&#45;mathRoom -->
<g id="edge4" class="edge"><title>karli&#45;&#45;mathRoom</title>
<path fill="none" stroke="black" d="M446.803,-319.949C440.828,-308.294 434.419,-295.792 428.181,-283.624"/>
<text text-anchor="middle" x="436.076" y="-287.261" font-family="Times New Roman,serif" font-size="10.00">in</text>
<text text-anchor="middle" x="438.907" y="-311.312" font-family="Times New Roman,serif" font-size="10.00">students</text>
</g>
<!-- a1 -->
<g id="node6" class="node"><title>a1</title>
<image xlink:href="icons/matrix.png" width="121px" height="46px" preserveAspectRatio="xMinYMin meet" x="389" y="-102"/>
<a xlink:href="../examples/org/sdmlib/examples/studyrightWithAssignments/Assignment.java" xlink:title="&lt;TABLE&gt;">
<polygon fill="none" stroke="black" points="377,-38 377,-54 522,-54 522,-38 377,-38"/>
<text text-anchor="start" x="416.5" y="-44" font-family="Times New Roman,serif" font-size="10.00"> </text>
<text text-anchor="start" x="419.5" y="-44" font-family="Times New Roman,serif" font-size="10.00">a1 :Assignment</text>
</a>
<polygon fill="none" stroke="black" points="377,-4 377,-38 522,-38 522,-4 377,-4"/>
<text text-anchor="start" x="382" y="-26" font-family="Times New Roman,serif" font-size="10.00">content = &quot;Matrix Multiplication&quot;</text>
<text text-anchor="start" x="382" y="-12" font-family="Times New Roman,serif" font-size="10.00">points = 5</text>
</g>
<!-- karli&#45;&#45;a1 -->
<g id="edge6" class="edge"><title>karli&#45;&#45;a1</title>
<path fill="none" stroke="black" d="M469.816,-319.774C465.194,-260.985 457.796,-166.887 453.177,-108.134"/>
<text text-anchor="middle" x="458.101" y="-114.338" font-family="Times New Roman,serif" font-size="10.00">done</text>
<text text-anchor="middle" x="464.892" y="-308.57" font-family="Times New Roman,serif" font-size="10.00">students</text>
</g>
<!-- a2 -->
<g id="node7" class="node"><title>a2</title>
<image xlink:href="icons/limes.png" width="74px" height="35px" preserveAspectRatio="xMinYMin meet" x="561.5" y="-96"/>
<a xlink:href="../examples/org/sdmlib/examples/studyrightWithAssignments/Assignment.java" xlink:title="&lt;TABLE&gt;">
<polygon fill="none" stroke="black" points="556,-43 556,-59 641,-59 641,-43 556,-43"/>
<text text-anchor="start" x="565.5" y="-49" font-family="Times New Roman,serif" font-size="10.00"> </text>
<text text-anchor="start" x="568.5" y="-49" font-family="Times New Roman,serif" font-size="10.00">a2 :Assignment</text>
</a>
<polygon fill="none" stroke="black" points="556,-9 556,-43 641,-43 641,-9 556,-9"/>
<text text-anchor="start" x="561" y="-31" font-family="Times New Roman,serif" font-size="10.00">content = &quot;Series&quot;</text>
<text text-anchor="start" x="561" y="-17" font-family="Times New Roman,serif" font-size="10.00">points = 6</text>
</g>
<!-- karli&#45;&#45;a2 -->
<g id="edge8" class="edge"><title>karli&#45;&#45;a2</title>
<path fill="none" stroke="black" d="M494.755,-319.774C518.403,-259.128 556.702,-160.909 579.409,-102.676"/>
<text text-anchor="middle" x="580.054" y="-110.156" font-family="Times New Roman,serif" font-size="10.00">done</text>
<text text-anchor="middle" x="494.11" y="-307.295" font-family="Times New Roman,serif" font-size="10.00">students</text>
</g>
<!-- a3 -->
<g id="node8" class="node"><title>a3</title>
<image xlink:href="icons/integralAssignment.png" width="83px" height="36px" preserveAspectRatio="xMinYMin meet" x="681.5" y="-97"/>
<a xlink:href="../examples/org/sdmlib/examples/studyrightWithAssignments/Assignment.java" xlink:title="&lt;TABLE&gt;">
<polygon fill="none" stroke="black" points="675,-43 675,-59 771,-59 771,-43 675,-43"/>
<text text-anchor="start" x="690" y="-49" font-family="Times New Roman,serif" font-size="10.00"> </text>
<text text-anchor="start" x="693" y="-49" font-family="Times New Roman,serif" font-size="10.00">a3 :Assignment</text>
</a>
<polygon fill="none" stroke="black" points="675,-9 675,-43 771,-43 771,-9 675,-9"/>
<text text-anchor="start" x="680" y="-31" font-family="Times New Roman,serif" font-size="10.00">content = &quot;Integrals&quot;</text>
<text text-anchor="start" x="680" y="-17" font-family="Times New Roman,serif" font-size="10.00">points = 8</text>
</g>
<!-- karli&#45;&#45;a3 -->
<g id="edge10" class="edge"><title>karli&#45;&#45;a3</title>
<path fill="none" stroke="black" d="M517.139,-323.545C528.016,-310.787 539.564,-296.988 550,-284 599.311,-222.63 653.653,-149.783 688.032,-103.003"/>
<text text-anchor="middle" x="686.059" y="-110.306" font-family="Times New Roman,serif" font-size="10.00">done</text>
<text text-anchor="middle" x="519.793" y="-311.403" font-family="Times New Roman,serif" font-size="10.00">students</text>
</g>
<!-- mathRoom&#45;&#45;studyRight -->
<g id="edge12" class="edge"><title>mathRoom&#45;&#45;studyRight</title>
<path fill="none" stroke="black" d="M340.518,-193.208C268.654,-165.965 146.292,-119.02 127,-108 109.194,-97.8286 90.9717,-83.365 77.8777,-72.1162"/>
<text text-anchor="middle" x="87.5209" y="-72.2638" font-family="Times New Roman,serif" font-size="10.00">university</text>
</g>
<!-- artsRoom -->
<g id="node4" class="node"><title>artsRoom</title>
<a xlink:href="../examples/org/sdmlib/examples/studyrightWithAssignments/Room.java" xlink:title="&lt;TABLE&gt;">
<polygon fill="none" stroke="black" points="145,-45 145,-62 222,-62 222,-45 145,-45"/>
<text text-anchor="start" x="148.5" y="-51.5" font-family="Times New Roman,serif" font-size="10.00"> </text>
<text text-anchor="start" x="151.5" y="-51.5" font-family="Times New Roman,serif" font-size="10.00">artsRoom :Room</text>
</a>
</g>
<!-- mathRoom&#45;&#45;artsRoom -->
<g id="edge14" class="edge"><title>mathRoom&#45;&#45;artsRoom</title>
<path fill="none" stroke="black" d="M340.457,-180.608C309.676,-160.857 270.572,-134.402 238,-108 224.196,-96.8111 209.774,-82.8143 199.163,-72.0147"/>
<text text-anchor="middle" x="208.541" y="-72.9867" font-family="Times New Roman,serif" font-size="10.00">doors</text>
</g>
<!-- sportsRoom -->
<g id="node5" class="node"><title>sportsRoom</title>
<a xlink:href="../examples/org/sdmlib/examples/studyrightWithAssignments/Room.java" xlink:title="&lt;TABLE&gt;">
<polygon fill="none" stroke="black" points="256,-45 256,-62 343,-62 343,-45 256,-45"/>
<text text-anchor="start" x="259.5" y="-51.5" font-family="Times New Roman,serif" font-size="10.00"> </text>
<text text-anchor="start" x="262.5" y="-51.5" font-family="Times New Roman,serif" font-size="10.00">sportsRoom :Room</text>
</a>
</g>
<!-- mathRoom&#45;&#45;sportsRoom -->
<g id="edge16" class="edge"><title>mathRoom&#45;&#45;sportsRoom</title>
<path fill="none" stroke="black" d="M352.044,-144.159C336.311,-117.714 319.659,-89.7248 309.299,-72.3111"/>
<text text-anchor="middle" x="317.565" y="-75.4391" font-family="Times New Roman,serif" font-size="10.00">doors</text>
</g>
<!-- mathRoom&#45;&#45;a1 -->
<g id="edge18" class="edge"><title>mathRoom&#45;&#45;a1</title>
<path fill="none" stroke="black" d="M417.4,-144.159C421.644,-132.184 426,-119.892 430.07,-108.409"/>
<text text-anchor="middle" x="431.026" y="-115.863" font-family="Times New Roman,serif" font-size="10.00">assignments</text>
<text text-anchor="middle" x="416.444" y="-131.704" font-family="Times New Roman,serif" font-size="10.00">room</text>
</g>
<!-- mathRoom&#45;&#45;a2 -->
<g id="edge20" class="edge"><title>mathRoom&#45;&#45;a2</title>
<path fill="none" stroke="black" d="M445.581,-176.773C473.518,-157.066 508.157,-131.893 538,-108 541.146,-105.481 544.35,-102.852 547.557,-100.172"/>
<text text-anchor="middle" x="543.305" y="-106.723" font-family="Times New Roman,serif" font-size="10.00">assignments</text>
<text text-anchor="middle" x="450.535" y="-165.586" font-family="Times New Roman,serif" font-size="10.00">room</text>
</g>
<!-- mathRoom&#45;&#45;a3 -->
<g id="edge22" class="edge"><title>mathRoom&#45;&#45;a3</title>
<path fill="none" stroke="black" d="M445.463,-197.279C500.308,-179.686 587.851,-148.29 657,-108 660.301,-106.076 663.613,-103.997 666.899,-101.813"/>
<text text-anchor="middle" x="661.668" y="-107.836" font-family="Times New Roman,serif" font-size="10.00">assignments</text>
<text text-anchor="middle" x="452.763" y="-187.944" font-family="Times New Roman,serif" font-size="10.00">room</text>
</g>
</g>
</svg>
