<?xml version="1.0" encoding="UTF-8" standalone="no"?>
<!DOCTYPE svg PUBLIC "-//W3C//DTD SVG 1.1//EN"
 "http://www.w3.org/Graphics/SVG/1.1/DTD/svg11.dtd">
<!-- Generated by graphviz version 2.28.0 (20110507.0327)
 -->
<!-- Title: ObjectDiagram Pages: 1 -->
<svg width="493pt" height="236pt"
 viewBox="0.00 0.00 493.00 236.00" xmlns="http://www.w3.org/2000/svg" xmlns:xlink="http://www.w3.org/1999/xlink">
<g id="graph1" class="graph" transform="scale(1 1) rotate(0) translate(4 232)">
<title>ObjectDiagram</title>
<polygon fill="white" stroke="white" points="-4,5 -4,-232 490,-232 490,5 -4,5"/>
<g id="graph2" class="cluster"><title>cluster_n4</title>
<polygon fill="none" stroke="grey" points="228,-81 228,-174 354,-174 354,-81 228,-81"/>
<text text-anchor="start" x="271" y="-154.8" font-family="Times New Roman,serif" font-size="14.00">NAC n4</text>
</g>
<!-- r1 -->
<g id="node1" class="node"><title>r1</title>
<polygon fill="deepskyblue" stroke="deepskyblue" points="139.5,-186.5 139.5,-223.5 198.5,-223.5 198.5,-186.5 139.5,-186.5"/>
<polygon fill="none" stroke="black" points="140,-206 140,-223 199,-223 199,-206 140,-206"/>
<text text-anchor="start" x="143.5" y="-212.5" font-family="Arial" font-size="10.00"> </text>
<text text-anchor="start" x="147.5" y="-212.5" font-family="Arial" font-size="10.00"> r1 :RoomPO </text>
<polygon fill="none" stroke="black" points="140,-186 140,-206 199,-206 199,-186 140,-186"/>
<text text-anchor="start" x="166" y="-194" font-family="Arial" font-size="10.00"> &#160;</text>
</g>
<!-- allMatches_r1 -->
<g id="node2" class="node"><title>allMatches_r1</title>
<text text-anchor="middle" x="32" y="-109.5" font-family="Arial" font-size="10.00">allMatches</text>
</g>
<!-- r1&#45;&#45;allMatches_r1 -->
<g id="edge3" class="edge"><title>r1&#45;&#45;allMatches_r1</title>
<path fill="none" stroke="black" stroke-dasharray="1,5" d="M131.644,-197.095C114.19,-192.574 93.8228,-185.333 78,-174 61.9331,-162.492 48.9861,-143.715 40.9701,-130.03"/>
</g>
<!-- s2 -->
<g id="node3" class="node"><title>s2</title>
<polygon fill="deepskyblue" stroke="deepskyblue" points="89,-4.5 89,-41.5 171,-41.5 171,-4.5 89,-4.5"/>
<polygon fill="none" stroke="black" points="89,-24 89,-41 171,-41 171,-24 89,-24"/>
<text text-anchor="start" x="92.5" y="-30.5" font-family="Arial" font-size="10.00"> </text>
<text text-anchor="start" x="96.5" y="-30.5" font-family="Arial" font-size="10.00"> s2 :StudentPO </text>
<polygon fill="none" stroke="black" points="89,-4 89,-24 171,-24 171,-4 89,-4"/>
<text text-anchor="start" x="126.5" y="-12" font-family="Arial" font-size="10.00"> &#160;</text>
</g>
<!-- r1&#45;&#45;s2 -->
<g id="edge5" class="edge"><title>r1&#45;&#45;s2</title>
<path fill="none" stroke="black" d="M131.738,-192.268C123.521,-187.873 115.833,-181.941 111,-174 86.5718,-133.862 105.594,-76.5186 119.247,-45.654"/>
<text text-anchor="middle" x="119.631" y="-53.1467" font-family="Arial" font-size="10.00">students</text>
</g>
<!-- s3 -->
<g id="node4" class="node"><title>s3</title>
<polygon fill="deepskyblue" stroke="deepskyblue" points="128,-93.5 128,-130.5 210,-130.5 210,-93.5 128,-93.5"/>
<polygon fill="none" stroke="black" points="128,-113 128,-130 210,-130 210,-113 128,-113"/>
<text text-anchor="start" x="131.5" y="-119.5" font-family="Arial" font-size="10.00"> </text>
<text text-anchor="start" x="135.5" y="-119.5" font-family="Arial" font-size="10.00"> s3 :StudentPO </text>
<polygon fill="none" stroke="black" points="128,-93 128,-113 210,-113 210,-93 128,-93"/>
<text text-anchor="start" x="165.5" y="-101" font-family="Arial" font-size="10.00"> &#160;</text>
</g>
<!-- r1&#45;&#45;s3 -->
<g id="edge7" class="edge"><title>r1&#45;&#45;s3</title>
<path fill="none" stroke="black" d="M169,-182.434C169,-168.033 169,-149.16 169,-134.726"/>
<text text-anchor="middle" x="173.226" y="-141.289" font-family="Arial" font-size="10.00">students</text>
</g>
<!-- p5 -->
<g id="node6" class="node"><title>p5</title>
<polygon fill="deepskyblue" stroke="deepskyblue" points="244,-93.5 244,-130.5 338,-130.5 338,-93.5 244,-93.5"/>
<polygon fill="none" stroke="black" points="244,-113 244,-130 338,-130 338,-113 244,-113"/>
<text text-anchor="start" x="247.5" y="-119.5" font-family="Arial" font-size="10.00"> </text>
<text text-anchor="start" x="251.5" y="-119.5" font-family="Arial" font-size="10.00"> p5 :PatternObject </text>
<polygon fill="none" stroke="black" points="244,-93 244,-113 338,-113 338,-93 244,-93"/>
<text text-anchor="start" x="287.5" y="-101" font-family="Arial" font-size="10.00"> &#160;</text>
</g>
<!-- r1&#45;&#45;p5 -->
<g id="edge11" class="edge"><title>r1&#45;&#45;p5</title>
<path fill="none" stroke="black" d="M206.56,-188.818C215.255,-184.581 224.229,-179.586 232,-174 247.552,-162.821 262.524,-147.265 273.494,-134.661"/>
<text text-anchor="middle" x="270.667" y="-141.753" font-family="Arial" font-size="10.00">tas</text>
</g>
<!-- t6 -->
<g id="node7" class="node"><title>t6</title>
<polygon fill="deepskyblue" stroke="deepskyblue" points="372.5,-86.5 372.5,-137.5 477.5,-137.5 477.5,-86.5 372.5,-86.5"/>
<text text-anchor="start" x="443" y="-127.5" font-family="Arial" font-size="10.00" fill="green">«create»</text>
<polygon fill="none" stroke="green" points="373,-106 373,-122 478,-122 478,-106 373,-106"/>
<text text-anchor="start" x="376.5" y="-112" font-family="Arial" font-size="10.00"> </text>
<text text-anchor="start" x="380.5" y="-112" font-family="Arial" font-size="10.00" fill="green"> t6 :TeachingAssistantPO </text>
<polygon fill="none" stroke="green" points="373,-86 373,-106 478,-106 478,-86 373,-86"/>
<text text-anchor="start" x="422" y="-94" font-family="Arial" font-size="10.00"> &#160;</text>
</g>
<!-- r1&#45;&#45;t6 -->
<g id="edge13" class="edge"><title>r1&#45;&#45;t6</title>
<path fill="none" stroke="green" d="M206.381,-204.286C245.914,-203.205 309.19,-197.457 358,-174 374.022,-166.3 388.953,-153.513 400.636,-141.629"/>
<text text-anchor="middle" x="397.198" y="-148.52" font-family="Arial" font-size="10.00" fill="green">tas</text>
</g>
<!-- s3&#45;&#45;s2 -->
<g id="edge9" class="edge"><title>s3&#45;&#45;s2</title>
<path fill="none" stroke="black" d="M159.36,-89.4944C153.359,-76.1096 145.669,-58.9547 139.665,-45.5597"/>
<text text-anchor="middle" x="147.228" y="-49.6011" font-family="Arial" font-size="10.00">friends</text>
</g>
</g>
</svg>
