<?xml version="1.0" encoding="UTF-8" standalone="no"?>
<!DOCTYPE svg PUBLIC "-//W3C//DTD SVG 1.1//EN"
 "http://www.w3.org/Graphics/SVG/1.1/DTD/svg11.dtd">
<!-- Generated by graphviz version 2.26.3 (20100126.1600)
 -->
<!-- Title: ClassDiagram Pages: 1 -->
<svg width="185pt" height="306pt"
 viewBox="0.00 0.00 185.21 306.00" xmlns="http://www.w3.org/2000/svg" xmlns:xlink="http://www.w3.org/1999/xlink">
<g id="graph1" class="graph" transform="scale(1 1) rotate(0) translate(4 302)">
<title>ClassDiagram</title>
<polygon fill="white" stroke="white" points="-4,5 -4,-302 182.214,-302 182.214,5 -4,5"/>
<!-- _University -->
<g id="node1" class="node"><title>_University</title>
<a xlink:href="../examples/org/sdmlib/examples/studyright/University.java" xlink:title="&lt;TABLE&gt;">
<polygon fill="none" stroke="black" points="44,-276 44,-293 118,-293 118,-276 44,-276"/>
<text text-anchor="start" x="57" y="-282.167" font-family="Times Roman,serif" font-size="10.00">University</text>
</a>
<polygon fill="none" stroke="black" points="44,-256 44,-276 118,-276 118,-256 44,-256"/>
<text text-anchor="start" x="49" y="-263.667" font-family="Times Roman,serif" font-size="10.00">name :String</text>
<polygon fill="none" stroke="black" points="44,-236 44,-256 118,-256 118,-236 44,-236"/>
<text text-anchor="start" x="79" y="-243.667" font-family="Times Roman,serif" font-size="10.00"> </text>
</g>
<!-- _Student -->
<g id="node2" class="node"><title>_Student</title>
<a xlink:href="../examples/org/sdmlib/examples/studyright/Student.java" xlink:title="&lt;TABLE&gt;">
<polygon fill="none" stroke="black" points="8,-174 8,-191 82,-191 82,-174 8,-174"/>
<text text-anchor="start" x="25.5" y="-180.167" font-family="Times Roman,serif" font-size="10.00">Student</text>
</a>
<polygon fill="none" stroke="black" points="8,-140 8,-174 82,-174 82,-140 8,-140"/>
<text text-anchor="start" x="13" y="-161.667" font-family="Times Roman,serif" font-size="10.00">name :String</text>
<text text-anchor="start" x="13" y="-147.667" font-family="Times Roman,serif" font-size="10.00">matrNo :int</text>
<polygon fill="none" stroke="black" points="8,-120 8,-140 82,-140 82,-120 8,-120"/>
<text text-anchor="start" x="43" y="-127.667" font-family="Times Roman,serif" font-size="10.00"> </text>
</g>
<!-- _University&#45;&gt;_Student -->
<g id="edge2" class="edge"><title>_University&#45;&gt;_Student</title>
<path fill="none" stroke="black" d="M70.1988,-232.296C66.388,-220.758 62.0618,-207.659 58.0827,-195.612"/>
<text text-anchor="middle" x="64.938" y="-199.892" font-family="Times Roman,serif" font-size="10.00">students *</text>
<text text-anchor="middle" x="63.3435" y="-222.016" font-family="Times Roman,serif" font-size="10.00">uni</text>
</g>
<!-- _Room -->
<g id="node3" class="node"><title>_Room</title>
<a xlink:href="../examples/org/sdmlib/examples/studyright/Room.java" xlink:title="&lt;TABLE&gt;">
<polygon fill="none" stroke="black" points="31,-58 31,-75 132,-75 132,-58 31,-58"/>
<text text-anchor="start" x="67.5" y="-64.1667" font-family="Times Roman,serif" font-size="10.00">Room</text>
</a>
<polygon fill="none" stroke="black" points="31,-24 31,-58 132,-58 132,-24 31,-24"/>
<text text-anchor="start" x="36" y="-45.6667" font-family="Times Roman,serif" font-size="10.00">roomNo :String</text>
<text text-anchor="start" x="36" y="-31.6667" font-family="Times Roman,serif" font-size="10.00">credits :int</text>
<polygon fill="none" stroke="black" points="31,-4 31,-24 132,-24 132,-4 31,-4"/>
<text text-anchor="start" x="36" y="-11.6667" font-family="Times Roman,serif" font-size="10.00">findPath(String,int)</text>
</g>
<!-- _University&#45;&gt;_Room -->
<g id="edge4" class="edge"><title>_University&#45;&gt;_Room</title>
<path fill="none" stroke="black" d="M91.3419,-232.345C94.4566,-220.966 97.4562,-208.034 99,-196 103.524,-160.733 103.125,-151.315 99,-116 97.5999,-104.014 94.9978,-91.1757 92.1986,-79.5272"/>
<text text-anchor="middle" x="98.3939" y="-84.3769" font-family="Times Roman,serif" font-size="10.00">rooms *</text>
<text text-anchor="middle" x="89.6136" y="-219.495" font-family="Times Roman,serif" font-size="10.00">uni</text>
</g>
<!-- _Student&#45;&gt;_Room -->
<g id="edge8" class="edge"><title>_Student&#45;&gt;_Room</title>
<path fill="none" stroke="black" d="M57.2885,-116.404C60.9549,-104.59 64.974,-91.6393 68.6447,-79.8116"/>
<text text-anchor="middle" x="69.9947" y="-86.72" font-family="Times Roman,serif" font-size="10.00">in</text>
<text text-anchor="middle" x="55.9385" y="-103.495" font-family="Times Roman,serif" font-size="10.00">students *</text>
</g>
<!-- _Room&#45;&gt;_Room -->
<g id="edge6" class="edge"><title>_Room&#45;&gt;_Room</title>
<path fill="none" stroke="black" d="M139.312,-60.4743C149.726,-57.813 157,-50.9883 157,-40 157,-29.0117 149.726,-22.187 139.312,-19.5257"/>
<text text-anchor="middle" x="149.214" y="-15.1285" font-family="Times Roman,serif" font-size="10.00">neighbors *</text>
<text text-anchor="middle" x="146.747" y="-50.7871" font-family="Times Roman,serif" font-size="10.00">neighbors *</text>
</g>
</g>
</svg>
