<?xml version="1.0" encoding="UTF-8" standalone="no"?>
<!DOCTYPE svg PUBLIC "-//W3C//DTD SVG 1.1//EN"
 "http://www.w3.org/Graphics/SVG/1.1/DTD/svg11.dtd">
<!-- Generated by graphviz version 2.28.0 (20110507.0327)
 -->
<!-- Title: ObjectDiagram Pages: 1 -->
<svg width="808pt" height="1004pt"
 viewBox="0.00 0.00 808.00 1004.00" xmlns="http://www.w3.org/2000/svg" xmlns:xlink="http://www.w3.org/1999/xlink">
<g id="graph1" class="graph" transform="scale(1 1) rotate(0) translate(4 1000)">
<title>ObjectDiagram</title>
<polygon fill="white" stroke="white" points="-4,5 -4,-1000 805,-1000 805,5 -4,5"/>
<!-- studyRight -->
<g id="node1" class="node"><title>studyRight</title>
<a xlink:href="../examples/org/sdmlib/examples/studyrightWithAssignments/University.java" xlink:title="&lt;TABLE&gt;">
<polygon fill="none" stroke="black" points="486,-974 486,-991 592,-991 592,-974 486,-974"/>
<text text-anchor="start" x="489.5" y="-980.5" font-family="Arial" font-size="10.00"> </text>
<text text-anchor="start" x="493.5" y="-980.5" font-family="Arial" font-size="10.00">studyRight :University</text>
</a>
<polygon fill="none" stroke="black" points="486,-954 486,-974 592,-974 592,-954 486,-954"/>
<text text-anchor="start" x="491" y="-962" font-family="Arial" font-size="10.00">name = &quot;StudyRight&quot;</text>
</g>
<!-- karli -->
<g id="node2" class="node"><title>karli</title>
<image xlink:href="icons/karli.png" width="61px" height="46px" preserveAspectRatio="xMinYMin meet" x="263" y="-908"/>
<a xlink:href="../examples/org/sdmlib/examples/studyrightWithAssignments/Student.java" xlink:title="&lt;TABLE&gt;">
<polygon fill="none" stroke="black" points="240,-844 240,-860 347,-860 347,-844 240,-844"/>
<text text-anchor="start" x="262.5" y="-850" font-family="Arial" font-size="10.00"> </text>
<text text-anchor="start" x="266.5" y="-850" font-family="Arial" font-size="10.00">karli :Student</text>
</a>
<polygon fill="none" stroke="black" points="240,-782 240,-844 347,-844 347,-782 240,-782"/>
<text text-anchor="start" x="245" y="-832" font-family="Arial" font-size="10.00">name = &quot;Karli&quot;</text>
<text text-anchor="start" x="245" y="-818" font-family="Arial" font-size="10.00">assignmentPoints = 0</text>
<text text-anchor="start" x="245" y="-804" font-family="Arial" font-size="10.00">motivation = 0</text>
<text text-anchor="start" x="245" y="-790" font-family="Arial" font-size="10.00">credits = 0</text>
</g>
<!-- studyRight&#45;&#45;karli -->
<g id="edge2" class="edge"><title>studyRight&#45;&#45;karli</title>
<path fill="none" stroke="black" d="M496.431,-950.369C457.239,-930.455 398.646,-900.682 354.394,-878.196"/>
<text text-anchor="middle" x="364.388" y="-876.034" font-family="Arial" font-size="10.00">students</text>
<text text-anchor="middle" x="486.437" y="-947.531" font-family="Arial" font-size="10.00">university</text>
</g>
<!-- mathRoom -->
<g id="node3" class="node"><title>mathRoom</title>
<image xlink:href="icons/mathroom.png" width="86px" height="63px" preserveAspectRatio="xMinYMin meet" x="353" y="-735"/>
<a xlink:href="../examples/org/sdmlib/examples/studyrightWithAssignments/Room.java" xlink:title="&lt;TABLE&gt;">
<polygon fill="none" stroke="black" points="351,-654 351,-670 441,-670 441,-654 351,-654"/>
<text text-anchor="start" x="354.5" y="-660" font-family="Arial" font-size="10.00"> </text>
<text text-anchor="start" x="358.5" y="-660" font-family="Arial" font-size="10.00">mathRoom :Room</text>
</a>
<polygon fill="none" stroke="black" points="351,-606 351,-654 441,-654 441,-606 351,-606"/>
<text text-anchor="start" x="356" y="-642" font-family="Arial" font-size="10.00">name = &quot;senate&quot;</text>
<text text-anchor="start" x="356" y="-628" font-family="Arial" font-size="10.00">topic = &quot;math&quot;</text>
<text text-anchor="start" x="356" y="-614" font-family="Arial" font-size="10.00">credits = 17</text>
</g>
<!-- studyRight&#45;&#45;mathRoom -->
<g id="edge8" class="edge"><title>studyRight&#45;&#45;mathRoom</title>
<path fill="none" stroke="black" d="M526.156,-950.492C519.849,-939.67 512.277,-926.274 506,-914 476.734,-856.775 446.64,-790.209 425.343,-741.553"/>
<text text-anchor="middle" x="432.86" y="-745.648" font-family="Arial" font-size="10.00">rooms</text>
<text text-anchor="middle" x="517.951" y="-942.276" font-family="Arial" font-size="10.00">university</text>
</g>
<!-- artsRoom -->
<g id="node4" class="node"><title>artsRoom</title>
<a xlink:href="../examples/org/sdmlib/examples/studyrightWithAssignments/Room.java" xlink:title="&lt;TABLE&gt;">
<polygon fill="none" stroke="black" points="595,-525 595,-542 680,-542 680,-525 595,-525"/>
<text text-anchor="start" x="598.5" y="-531.5" font-family="Arial" font-size="10.00"> </text>
<text text-anchor="start" x="602.5" y="-531.5" font-family="Arial" font-size="10.00">artsRoom :Room</text>
</a>
<polygon fill="none" stroke="black" points="595,-477 595,-525 680,-525 680,-477 595,-477"/>
<text text-anchor="start" x="600" y="-513" font-family="Arial" font-size="10.00">name = &quot;7522&quot;</text>
<text text-anchor="start" x="600" y="-499" font-family="Arial" font-size="10.00">topic = &quot;arts&quot;</text>
<text text-anchor="start" x="600" y="-485" font-family="Arial" font-size="10.00">credits = 16</text>
</g>
<!-- studyRight&#45;&#45;artsRoom -->
<g id="edge10" class="edge"><title>studyRight&#45;&#45;artsRoom</title>
<path fill="none" stroke="black" d="M553.808,-950.307C560.342,-939.773 567.536,-926.676 572,-914 617.904,-783.651 631.59,-618.054 635.506,-546.537"/>
<text text-anchor="middle" x="639.166" y="-553.343" font-family="Arial" font-size="10.00">rooms</text>
<text text-anchor="middle" x="554.928" y="-937.87" font-family="Arial" font-size="10.00">university</text>
</g>
<!-- sportsRoom -->
<g id="node5" class="node"><title>sportsRoom</title>
<a xlink:href="../examples/org/sdmlib/examples/studyrightWithAssignments/Room.java" xlink:title="&lt;TABLE&gt;">
<polygon fill="none" stroke="black" points="502,-396 502,-413 607,-413 607,-396 502,-396"/>
<text text-anchor="start" x="510" y="-402.5" font-family="Arial" font-size="10.00"> </text>
<text text-anchor="start" x="514" y="-402.5" font-family="Arial" font-size="10.00">sportsRoom :Room</text>
</a>
<polygon fill="none" stroke="black" points="502,-348 502,-396 607,-396 607,-348 502,-348"/>
<text text-anchor="start" x="507" y="-384" font-family="Arial" font-size="10.00">name = &quot;gymnasium&quot;</text>
<text text-anchor="start" x="507" y="-370" font-family="Arial" font-size="10.00">topic = &quot;sports&quot;</text>
<text text-anchor="start" x="507" y="-356" font-family="Arial" font-size="10.00">credits = 25</text>
</g>
<!-- studyRight&#45;&#45;sportsRoom -->
<g id="edge12" class="edge"><title>studyRight&#45;&#45;sportsRoom</title>
<path fill="none" stroke="black" d="M539.552,-950.302C541.801,-861.841 550.29,-527.913 553.095,-417.607"/>
<text text-anchor="middle" x="557.089" y="-424.274" font-family="Arial" font-size="10.00">rooms</text>
<text text-anchor="middle" x="535.557" y="-938.634" font-family="Arial" font-size="10.00">university</text>
</g>
<!-- examRoom -->
<g id="node6" class="node"><title>examRoom</title>
<a xlink:href="../examples/org/sdmlib/examples/studyrightWithAssignments/Room.java" xlink:title="&lt;TABLE&gt;">
<polygon fill="none" stroke="black" points="591,-255 591,-272 684,-272 684,-255 591,-255"/>
<text text-anchor="start" x="594.5" y="-261.5" font-family="Arial" font-size="10.00"> </text>
<text text-anchor="start" x="598.5" y="-261.5" font-family="Arial" font-size="10.00">examRoom :Room</text>
</a>
<polygon fill="none" stroke="black" points="591,-207 591,-255 684,-255 684,-207 591,-207"/>
<text text-anchor="start" x="596" y="-243" font-family="Arial" font-size="10.00">name = &quot;The End&quot;</text>
<text text-anchor="start" x="596" y="-229" font-family="Arial" font-size="10.00">topic = &quot;exam&quot;</text>
<text text-anchor="start" x="596" y="-215" font-family="Arial" font-size="10.00">credits = 0</text>
</g>
<!-- studyRight&#45;&#45;examRoom -->
<g id="edge14" class="edge"><title>studyRight&#45;&#45;examRoom</title>
<path fill="none" stroke="black" d="M567.89,-950.435C580.095,-940.325 593.811,-927.532 604,-914 675.506,-819.039 720,-791.873 720,-673 720,-673 720,-673 720,-509 720,-422.543 680.098,-327.137 655.627,-276.756"/>
<text text-anchor="middle" x="663.318" y="-280.647" font-family="Arial" font-size="10.00">rooms</text>
<text text-anchor="middle" x="572.108" y="-938.869" font-family="Arial" font-size="10.00">university</text>
</g>
<!-- placeToBe -->
<g id="node7" class="node"><title>placeToBe</title>
<a xlink:href="../examples/org/sdmlib/examples/studyrightWithAssignments/Room.java" xlink:title="&lt;TABLE&gt;">
<polygon fill="none" stroke="black" points="648,-83 648,-100 792,-100 792,-83 648,-83"/>
<text text-anchor="start" x="679" y="-89.5" font-family="Arial" font-size="10.00"> </text>
<text text-anchor="start" x="683" y="-89.5" font-family="Arial" font-size="10.00">placeToBe :Room</text>
</a>
<polygon fill="none" stroke="black" points="648,-35 648,-83 792,-83 792,-35 648,-35"/>
<text text-anchor="start" x="653" y="-71" font-family="Arial" font-size="10.00">name = &quot;7422&quot;</text>
<text text-anchor="start" x="653" y="-57" font-family="Arial" font-size="10.00">topic = &quot;Software Engineering&quot;</text>
<text text-anchor="start" x="653" y="-43" font-family="Arial" font-size="10.00">credits = 42</text>
</g>
<!-- studyRight&#45;&#45;placeToBe -->
<g id="edge16" class="edge"><title>studyRight&#45;&#45;placeToBe</title>
<path fill="none" stroke="black" d="M600.087,-954.765C622.923,-945.753 647.529,-932.61 665,-914 743.581,-830.296 758,-787.81 758,-673 758,-673 758,-673 758,-380 758,-279.642 738.262,-162.403 727.237,-104.743"/>
<text text-anchor="middle" x="733.051" y="-110.379" font-family="Arial" font-size="10.00">rooms</text>
<text text-anchor="middle" x="606.868" y="-944.915" font-family="Arial" font-size="10.00">university</text>
</g>
<!-- abu -->
<g id="node8" class="node"><title>abu</title>
<image xlink:href="icons/karli.png" width="61px" height="46px" preserveAspectRatio="xMinYMin meet" x="396" y="-302"/>
<a xlink:href="../examples/org/sdmlib/examples/studyrightWithAssignments/Student.java" xlink:title="&lt;TABLE&gt;">
<polygon fill="none" stroke="black" points="373,-238 373,-254 480,-254 480,-238 373,-238"/>
<text text-anchor="start" x="396.5" y="-244" font-family="Arial" font-size="10.00"> </text>
<text text-anchor="start" x="400.5" y="-244" font-family="Arial" font-size="10.00">abu :Student</text>
</a>
<polygon fill="none" stroke="black" points="373,-176 373,-238 480,-238 480,-176 373,-176"/>
<text text-anchor="start" x="378" y="-226" font-family="Arial" font-size="10.00">name = &quot;Abu&quot;</text>
<text text-anchor="start" x="378" y="-212" font-family="Arial" font-size="10.00">assignmentPoints = 0</text>
<text text-anchor="start" x="378" y="-198" font-family="Arial" font-size="10.00">motivation = 0</text>
<text text-anchor="start" x="378" y="-184" font-family="Arial" font-size="10.00">credits = 0</text>
</g>
<!-- studyRight&#45;&#45;abu -->
<g id="edge4" class="edge"><title>studyRight&#45;&#45;abu</title>
<path fill="none" stroke="black" d="M536.019,-950.256C526.203,-878.995 493.766,-646.063 463,-454 455.164,-405.08 445.571,-349.979 438.118,-308.077"/>
<text text-anchor="middle" x="443.862" y="-313.763" font-family="Arial" font-size="10.00">students</text>
<text text-anchor="middle" x="530.591" y="-939.357" font-family="Arial" font-size="10.00">university</text>
</g>
<!-- alice -->
<g id="node10" class="node"><title>alice</title>
<image xlink:href="icons/karli.png" width="61px" height="46px" preserveAspectRatio="xMinYMin meet" x="385" y="-130"/>
<a xlink:href="../examples/org/sdmlib/examples/studyrightWithAssignments/Student.java" xlink:title="&lt;TABLE&gt;">
<polygon fill="none" stroke="black" points="362,-66 362,-82 469,-82 469,-66 362,-66"/>
<text text-anchor="start" x="383" y="-72" font-family="Arial" font-size="10.00"> </text>
<text text-anchor="start" x="387" y="-72" font-family="Arial" font-size="10.00">alice :Student</text>
</a>
<polygon fill="none" stroke="black" points="362,-4 362,-66 469,-66 469,-4 362,-4"/>
<text text-anchor="start" x="367" y="-54" font-family="Arial" font-size="10.00">name = &quot;Alice&quot;</text>
<text text-anchor="start" x="367" y="-40" font-family="Arial" font-size="10.00">assignmentPoints = 0</text>
<text text-anchor="start" x="367" y="-26" font-family="Arial" font-size="10.00">motivation = 0</text>
<text text-anchor="start" x="367" y="-12" font-family="Arial" font-size="10.00">credits = 0</text>
</g>
<!-- studyRight&#45;&#45;alice -->
<g id="edge6" class="edge"><title>studyRight&#45;&#45;alice</title>
<path fill="none" stroke="black" d="M477.959,-972.114C411.168,-969.771 302.85,-958.556 222,-914 94.4566,-843.711 0,-818.629 0,-673 0,-673 0,-673 0,-380 0,-205.558 237.712,-117.023 353.318,-84.2804"/>
<text text-anchor="middle" x="345.873" y="-88.4561" font-family="Arial" font-size="10.00">students</text>
<text text-anchor="middle" x="468.708" y="-973.412" font-family="Arial" font-size="10.00">university</text>
</g>
<!-- karli&#45;&#45;mathRoom -->
<g id="edge18" class="edge"><title>karli&#45;&#45;mathRoom</title>
<path fill="none" stroke="black" d="M333.413,-777.515C340.458,-765.75 347.793,-753.501 354.857,-741.704"/>
<text text-anchor="middle" x="353.827" y="-749.151" font-family="Arial" font-size="10.00">in</text>
<text text-anchor="middle" x="334.443" y="-765.068" font-family="Arial" font-size="10.00">students</text>
</g>
<!-- a1 -->
<g id="node11" class="node"><title>a1</title>
<image xlink:href="icons/matrix.png" width="121px" height="46px" preserveAspectRatio="xMinYMin meet" x="176.5" y="-558"/>
<a xlink:href="../examples/org/sdmlib/examples/studyrightWithAssignments/Assignment.java" xlink:title="&lt;TABLE&gt;">
<polygon fill="none" stroke="black" points="162,-494 162,-510 312,-510 312,-494 162,-494"/>
<text text-anchor="start" x="200.5" y="-500" font-family="Arial" font-size="10.00"> </text>
<text text-anchor="start" x="204.5" y="-500" font-family="Arial" font-size="10.00">a1 :Assignment</text>
</a>
<polygon fill="none" stroke="black" points="162,-460 162,-494 312,-494 312,-460 162,-460"/>
<text text-anchor="start" x="167" y="-482" font-family="Arial" font-size="10.00">content = &quot;Matrix Multiplication&quot;</text>
<text text-anchor="start" x="167" y="-468" font-family="Arial" font-size="10.00">points = 5</text>
</g>
<!-- karli&#45;&#45;a1 -->
<g id="edge20" class="edge"><title>karli&#45;&#45;a1</title>
<path fill="none" stroke="black" d="M281.735,-777.812C271.179,-714.853 255.611,-622 245.9,-564.08"/>
<text text-anchor="middle" x="251.566" y="-569.82" font-family="Arial" font-size="10.00">done</text>
<text text-anchor="middle" x="276.068" y="-767.072" font-family="Arial" font-size="10.00">students</text>
</g>
<!-- a2 -->
<g id="node12" class="node"><title>a2</title>
<image xlink:href="icons/limes.png" width="74px" height="35px" preserveAspectRatio="xMinYMin meet" x="45.5" y="-552"/>
<a xlink:href="../examples/org/sdmlib/examples/studyrightWithAssignments/Assignment.java" xlink:title="&lt;TABLE&gt;">
<polygon fill="none" stroke="black" points="37,-499 37,-515 128,-515 128,-499 37,-499"/>
<text text-anchor="start" x="46" y="-505" font-family="Arial" font-size="10.00"> </text>
<text text-anchor="start" x="50" y="-505" font-family="Arial" font-size="10.00">a2 :Assignment</text>
</a>
<polygon fill="none" stroke="black" points="37,-465 37,-499 128,-499 128,-465 37,-465"/>
<text text-anchor="start" x="42" y="-487" font-family="Arial" font-size="10.00">content = &quot;Series&quot;</text>
<text text-anchor="start" x="42" y="-473" font-family="Arial" font-size="10.00">points = 6</text>
</g>
<!-- karli&#45;&#45;a2 -->
<g id="edge22" class="edge"><title>karli&#45;&#45;a2</title>
<path fill="none" stroke="black" d="M250.555,-777.812C209.518,-712.853 148.376,-616.07 112.113,-558.668"/>
<text text-anchor="middle" x="120.527" y="-561.573" font-family="Arial" font-size="10.00">done</text>
<text text-anchor="middle" x="242.141" y="-769.907" font-family="Arial" font-size="10.00">students</text>
</g>
<!-- mathRoom&#45;&#45;artsRoom -->
<g id="edge24" class="edge"><title>mathRoom&#45;&#45;artsRoom</title>
<path fill="none" stroke="black" d="M449.187,-635.689C490.079,-608.541 546.198,-571.283 586.423,-544.578"/>
<text text-anchor="middle" x="581.21" y="-550.612" font-family="Arial" font-size="10.00">doors</text>
<text text-anchor="middle" x="454.4" y="-624.656" font-family="Arial" font-size="10.00">doors</text>
</g>
<!-- mathRoom&#45;&#45;sportsRoom -->
<g id="edge26" class="edge"><title>mathRoom&#45;&#45;sportsRoom</title>
<path fill="none" stroke="black" d="M441.234,-602.463C448.731,-590.446 456.253,-577.96 463,-566 491.454,-515.561 520.451,-455.017 537.837,-417.52"/>
<text text-anchor="middle" x="537.837" y="-425.02" font-family="Arial" font-size="10.00">doors</text>
<text text-anchor="middle" x="442.429" y="-590.035" font-family="Arial" font-size="10.00">doors</text>
</g>
<!-- mathRoom&#45;&#45;a1 -->
<g id="edge28" class="edge"><title>mathRoom&#45;&#45;a1</title>
<path fill="none" stroke="black" d="M342.613,-617.277C325.562,-600.119 306.708,-581.146 289.706,-564.037"/>
<text text-anchor="middle" x="299.092" y="-564.987" font-family="Arial" font-size="10.00">assignments</text>
<text text-anchor="middle" x="333.227" y="-611.328" font-family="Arial" font-size="10.00">room</text>
</g>
<!-- mathRoom&#45;&#45;a2 -->
<g id="edge30" class="edge"><title>mathRoom&#45;&#45;a2</title>
<path fill="none" stroke="black" d="M342.66,-654.299C290.139,-636.59 208.754,-605.701 145,-566 141.303,-563.698 137.607,-561.179 133.962,-558.528"/>
<text text-anchor="middle" x="143.783" y="-557.912" font-family="Arial" font-size="10.00">assignments</text>
<text text-anchor="middle" x="332.715" y="-652.846" font-family="Arial" font-size="10.00">room</text>
</g>
<!-- a3 -->
<g id="node13" class="node"><title>a3</title>
<image xlink:href="icons/integralAssignment.png" width="83px" height="36px" preserveAspectRatio="xMinYMin meet" x="354.5" y="-560"/>
<a xlink:href="../examples/org/sdmlib/examples/studyrightWithAssignments/Assignment.java" xlink:title="&lt;TABLE&gt;">
<polygon fill="none" stroke="black" points="346,-506 346,-522 446,-522 446,-506 346,-506"/>
<text text-anchor="start" x="359.5" y="-512" font-family="Arial" font-size="10.00"> </text>
<text text-anchor="start" x="363.5" y="-512" font-family="Arial" font-size="10.00">a3 :Assignment</text>
</a>
<polygon fill="none" stroke="black" points="346,-458 346,-506 446,-506 446,-458 346,-458"/>
<text text-anchor="start" x="351" y="-494" font-family="Arial" font-size="10.00">content = &quot;Integrals&quot;</text>
<text text-anchor="start" x="351" y="-480" font-family="Arial" font-size="10.00">points = 8</text>
<text text-anchor="start" x="351" y="-466" font-family="Arial" font-size="10.00">students = &quot;&quot;</text>
</g>
<!-- mathRoom&#45;&#45;a3 -->
<g id="edge32" class="edge"><title>mathRoom&#45;&#45;a3</title>
<path fill="none" stroke="black" d="M396,-602.217C396,-590.19 396,-577.818 396,-566.217"/>
<text text-anchor="middle" x="400.226" y="-572.78" font-family="Arial" font-size="10.00">assignments</text>
<text text-anchor="middle" x="391.774" y="-590.654" font-family="Arial" font-size="10.00">room</text>
</g>
<!-- artsRoom&#45;&#45;sportsRoom -->
<g id="edge34" class="edge"><title>artsRoom&#45;&#45;sportsRoom</title>
<path fill="none" stroke="black" d="M613.659,-473.285C602.343,-455.971 588.784,-435.224 577.453,-417.887"/>
<text text-anchor="middle" x="585.949" y="-420.661" font-family="Arial" font-size="10.00">doors</text>
<text text-anchor="middle" x="605.163" y="-465.511" font-family="Arial" font-size="10.00">doors</text>
</g>
<!-- artsRoom&#45;&#45;examRoom -->
<g id="edge36" class="edge"><title>artsRoom&#45;&#45;examRoom</title>
<path fill="none" stroke="black" d="M637,-473.412C637,-422.153 637,-328.076 637,-276.736"/>
<text text-anchor="middle" x="641.226" y="-283.299" font-family="Arial" font-size="10.00">doors</text>
<text text-anchor="middle" x="632.774" y="-461.849" font-family="Arial" font-size="10.00">doors</text>
</g>
<!-- artsRoom&#45;&#45;placeToBe -->
<g id="edge38" class="edge"><title>artsRoom&#45;&#45;placeToBe</title>
<path fill="none" stroke="black" d="M650.821,-473.308C665.575,-433.596 688.39,-367.213 700,-308 713.98,-236.699 718.194,-151.554 719.46,-104.567"/>
<text text-anchor="middle" x="723.401" y="-111.258" font-family="Arial" font-size="10.00">doors</text>
<text text-anchor="middle" x="649.973" y="-460.845" font-family="Arial" font-size="10.00">doors</text>
</g>
<!-- sportsRoom&#45;&#45;examRoom -->
<g id="edge40" class="edge"><title>sportsRoom&#45;&#45;examRoom</title>
<path fill="none" stroke="black" d="M575.375,-344.204C587.767,-323.451 603.318,-297.407 615.698,-276.675"/>
<text text-anchor="middle" x="614.68" y="-284.123" font-family="Arial" font-size="10.00">doors</text>
<text text-anchor="middle" x="576.392" y="-331.756" font-family="Arial" font-size="10.00">doors</text>
</g>
<!-- sportsRoom&#45;&#45;abu -->
<g id="edge42" class="edge"><title>sportsRoom&#45;&#45;abu</title>
<path fill="none" stroke="black" d="M521.037,-344.204C510.741,-333.023 499.03,-320.306 487.433,-307.712"/>
<text text-anchor="middle" x="496.681" y="-309.016" font-family="Arial" font-size="10.00">students</text>
<text text-anchor="middle" x="511.789" y="-337.9" font-family="Arial" font-size="10.00">in</text>
</g>
<!-- a4 -->
<g id="node9" class="node"><title>a4</title>
<a xlink:href="../examples/org/sdmlib/examples/studyrightWithAssignments/Assignment.java" xlink:title="&lt;TABLE&gt;">
<polygon fill="none" stroke="black" points="503,-76 503,-93 605,-93 605,-76 503,-76"/>
<text text-anchor="start" x="517.5" y="-82.5" font-family="Arial" font-size="10.00"> </text>
<text text-anchor="start" x="521.5" y="-82.5" font-family="Arial" font-size="10.00">a4 :Assignment</text>
</a>
<polygon fill="none" stroke="black" points="503,-42 503,-76 605,-76 605,-42 503,-42"/>
<text text-anchor="start" x="508" y="-64" font-family="Arial" font-size="10.00">content = &quot;Pushups&quot;</text>
<text text-anchor="start" x="508" y="-50" font-family="Arial" font-size="10.00">points = 4</text>
</g>
<!-- sportsRoom&#45;&#45;a4 -->
<g id="edge46" class="edge"><title>sportsRoom&#45;&#45;a4</title>
<path fill="none" stroke="black" d="M554,-344.324C554,-282.1 554,-154.923 554,-97.8483"/>
<text text-anchor="middle" x="558.226" y="-104.411" font-family="Arial" font-size="10.00">assignments</text>
<text text-anchor="middle" x="549.774" y="-332.761" font-family="Arial" font-size="10.00">room</text>
</g>
<!-- sportsRoom&#45;&#45;alice -->
<g id="edge44" class="edge"><title>sportsRoom&#45;&#45;alice</title>
<path fill="none" stroke="black" d="M548.45,-344.218C540.842,-301.486 524.731,-228.677 496,-172 489.828,-159.825 482.1,-147.7 473.884,-136.269"/>
<text text-anchor="middle" x="482.577" y="-138.712" font-family="Arial" font-size="10.00">students</text>
<text text-anchor="middle" x="542.639" y="-333.58" font-family="Arial" font-size="10.00">in</text>
</g>
<!-- examRoom&#45;&#45;placeToBe -->
<g id="edge48" class="edge"><title>examRoom&#45;&#45;placeToBe</title>
<path fill="none" stroke="black" d="M654.4,-203.362C668.565,-174.348 688.464,-133.592 702.623,-104.591"/>
<text text-anchor="middle" x="702.445" y="-112.089" font-family="Arial" font-size="10.00">doors</text>
<text text-anchor="middle" x="654.578" y="-190.864" font-family="Arial" font-size="10.00">doors</text>
</g>
<!-- abu&#45;&#45;a4 -->
<g id="edge50" class="edge"><title>abu&#45;&#45;a4</title>
<path fill="none" stroke="black" d="M476.589,-171.811C496.015,-146.011 517.168,-117.918 532.445,-97.6279"/>
<text text-anchor="middle" x="530.37" y="-104.91" font-family="Arial" font-size="10.00">done</text>
<text text-anchor="middle" x="478.664" y="-159.529" font-family="Arial" font-size="10.00">students</text>
</g>
<!-- abu&#45;&#45;alice -->
<g id="edge52" class="edge"><title>abu&#45;&#45;alice</title>
<path fill="none" stroke="black" d="M421.653,-171.811C420.896,-160.118 420.109,-147.953 419.352,-136.257"/>
<text text-anchor="middle" x="424.155" y="-142.528" font-family="Arial" font-size="10.00">friends</text>
<text text-anchor="middle" x="416.85" y="-160.54" font-family="Arial" font-size="10.00">friends</text>
</g>
</g>
</svg>
