<?xml version="1.0" encoding="UTF-8" standalone="no"?>
<!DOCTYPE svg PUBLIC "-//W3C//DTD SVG 1.1//EN"
 "http://www.w3.org/Graphics/SVG/1.1/DTD/svg11.dtd">
<!-- Generated by graphviz version 2.28.0 (20110507.0327)
 -->
<!-- Title: ObjectDiagram Pages: 1 -->
<svg width="434pt" height="302pt"
 viewBox="0.00 0.00 434.00 302.00" xmlns="http://www.w3.org/2000/svg" xmlns:xlink="http://www.w3.org/1999/xlink">
<g id="graph1" class="graph" transform="scale(1 1) rotate(0) translate(4 298)">
<title>ObjectDiagram</title>
<polygon fill="white" stroke="white" points="-4,5 -4,-298 431,-298 431,5 -4,5"/>
<!-- karli -->
<g id="node1" class="node"><title>karli</title>
<a xlink:href="../examples/org/sdmlib/examples/studyrightWithAssignments/Student.java" xlink:title="&lt;TABLE&gt;">
<polygon fill="none" stroke="black" points="116,-272 116,-289 223,-289 223,-272 116,-272"/>
<text text-anchor="start" x="138.5" y="-278.5" font-family="Arial" font-size="10.00"> </text>
<text text-anchor="start" x="142.5" y="-278.5" font-family="Arial" font-size="10.00">karli :Student</text>
</a>
<polygon fill="none" stroke="black" points="116,-210 116,-272 223,-272 223,-210 116,-210"/>
<text text-anchor="start" x="121" y="-260" font-family="Arial" font-size="10.00">name = &quot;Karli&quot;</text>
<text text-anchor="start" x="121" y="-246" font-family="Arial" font-size="10.00">assignmentPoints = 5</text>
<text text-anchor="start" x="121" y="-232" font-family="Arial" font-size="10.00">motivation = 0</text>
<text text-anchor="start" x="121" y="-218" font-family="Arial" font-size="10.00">credits = 0</text>
</g>
<!-- mathRoom -->
<g id="node2" class="node"><title>mathRoom</title>
<a xlink:href="../examples/org/sdmlib/examples/studyrightWithAssignments/Room.java" xlink:title="&lt;TABLE&gt;">
<polygon fill="none" stroke="black" points="174,-148 174,-165 264,-165 264,-148 174,-148"/>
<text text-anchor="start" x="177.5" y="-154.5" font-family="Arial" font-size="10.00"> </text>
<text text-anchor="start" x="181.5" y="-154.5" font-family="Arial" font-size="10.00">mathRoom :Room</text>
</a>
<polygon fill="none" stroke="black" points="174,-100 174,-148 264,-148 264,-100 174,-100"/>
<text text-anchor="start" x="179" y="-136" font-family="Arial" font-size="10.00">name = &quot;senate&quot;</text>
<text text-anchor="start" x="179" y="-122" font-family="Arial" font-size="10.00">topic = &quot;math&quot;</text>
<text text-anchor="start" x="179" y="-108" font-family="Arial" font-size="10.00">credits = 17</text>
</g>
<!-- karli&#45;&#45;mathRoom -->
<g id="edge2" class="edge"><title>karli&#45;&#45;mathRoom</title>
<path fill="none" stroke="black" d="M187.618,-206.178C192.838,-194.173 198.456,-181.252 203.475,-169.707"/>
<text text-anchor="middle" x="203.737" y="-177.204" font-family="Arial" font-size="10.00">in</text>
<text text-anchor="middle" x="187.356" y="-193.682" font-family="Arial" font-size="10.00">students</text>
</g>
<!-- a1 -->
<g id="node3" class="node"><title>a1</title>
<a xlink:href="../examples/org/sdmlib/examples/studyrightWithAssignments/Assignment.java" xlink:title="&lt;TABLE&gt;">
<polygon fill="none" stroke="black" points="8,-38 8,-55 158,-55 158,-38 8,-38"/>
<text text-anchor="start" x="46.5" y="-44.5" font-family="Arial" font-size="10.00"> </text>
<text text-anchor="start" x="50.5" y="-44.5" font-family="Arial" font-size="10.00">a1 :Assignment</text>
</a>
<polygon fill="none" stroke="black" points="8,-4 8,-38 158,-38 158,-4 8,-4"/>
<text text-anchor="start" x="13" y="-26" font-family="Arial" font-size="10.00">content = &quot;Matrix Multiplication&quot;</text>
<text text-anchor="start" x="13" y="-12" font-family="Arial" font-size="10.00">points = 5</text>
</g>
<!-- karli&#45;&#45;a1 -->
<g id="edge4" class="edge"><title>karli&#45;&#45;a1</title>
<path fill="none" stroke="black" d="M152.214,-206.45C135.105,-163.081 109.044,-97.0179 94.2644,-59.5539"/>
<text text-anchor="middle" x="101.522" y="-63.9338" font-family="Arial" font-size="10.00">done</text>
<text text-anchor="middle" x="144.957" y="-197.07" font-family="Arial" font-size="10.00">students</text>
</g>
<!-- mathRoom&#45;&#45;a1 -->
<g id="edge6" class="edge"><title>mathRoom&#45;&#45;a1</title>
<path fill="none" stroke="black" d="M171.051,-96.3912C154.839,-84.3509 136.956,-71.0703 121.566,-59.6408"/>
<text text-anchor="middle" x="131.362" y="-59.1514" font-family="Arial" font-size="10.00">assignments</text>
<text text-anchor="middle" x="161.256" y="-91.8805" font-family="Arial" font-size="10.00">room</text>
</g>
<!-- a2 -->
<g id="node4" class="node"><title>a2</title>
<a xlink:href="../examples/org/sdmlib/examples/studyrightWithAssignments/Assignment.java" xlink:title="&lt;TABLE&gt;">
<polygon fill="none" stroke="black" points="193,-38 193,-55 284,-55 284,-38 193,-38"/>
<text text-anchor="start" x="202" y="-44.5" font-family="Arial" font-size="10.00"> </text>
<text text-anchor="start" x="206" y="-44.5" font-family="Arial" font-size="10.00">a2 :Assignment</text>
</a>
<polygon fill="none" stroke="black" points="193,-4 193,-38 284,-38 284,-4 193,-4"/>
<text text-anchor="start" x="198" y="-26" font-family="Arial" font-size="10.00">content = &quot;Series&quot;</text>
<text text-anchor="start" x="198" y="-12" font-family="Arial" font-size="10.00">points = 6</text>
</g>
<!-- mathRoom&#45;&#45;a2 -->
<g id="edge8" class="edge"><title>mathRoom&#45;&#45;a2</title>
<path fill="none" stroke="black" d="M225.699,-96.3912C227.964,-84.3509 230.462,-71.0703 232.612,-59.6408"/>
<text text-anchor="middle" x="235.09" y="-66.8289" font-family="Arial" font-size="10.00">assignments</text>
<text text-anchor="middle" x="223.221" y="-84.203" font-family="Arial" font-size="10.00">room</text>
</g>
<!-- a3 -->
<g id="node5" class="node"><title>a3</title>
<a xlink:href="../examples/org/sdmlib/examples/studyrightWithAssignments/Assignment.java" xlink:title="&lt;TABLE&gt;">
<polygon fill="none" stroke="black" points="318,-38 318,-55 418,-55 418,-38 318,-38"/>
<text text-anchor="start" x="331.5" y="-44.5" font-family="Arial" font-size="10.00"> </text>
<text text-anchor="start" x="335.5" y="-44.5" font-family="Arial" font-size="10.00">a3 :Assignment</text>
</a>
<polygon fill="none" stroke="black" points="318,-4 318,-38 418,-38 418,-4 318,-4"/>
<text text-anchor="start" x="323" y="-26" font-family="Arial" font-size="10.00">content = &quot;Integrals&quot;</text>
<text text-anchor="start" x="323" y="-12" font-family="Arial" font-size="10.00">points = 8</text>
</g>
<!-- mathRoom&#45;&#45;a3 -->
<g id="edge10" class="edge"><title>mathRoom&#45;&#45;a3</title>
<path fill="none" stroke="black" d="M271.532,-96.3912C289.294,-84.3509 308.886,-71.0703 325.748,-59.6408"/>
<text text-anchor="middle" x="320.617" y="-65.7242" font-family="Arial" font-size="10.00">assignments</text>
<text text-anchor="middle" x="276.663" y="-85.3077" font-family="Arial" font-size="10.00">room</text>
</g>
</g>
</svg>
