<?xml version="1.0" encoding="UTF-8" standalone="no"?>
<!DOCTYPE svg PUBLIC "-//W3C//DTD SVG 1.1//EN"
 "http://www.w3.org/Graphics/SVG/1.1/DTD/svg11.dtd">
<!-- Generated by graphviz version 2.28.0 (20110507.0327)
 -->
<!-- Title: ClassDiagram Pages: 1 -->
<svg width="130pt" height="232pt"
 viewBox="0.00 0.00 130.00 232.00" xmlns="http://www.w3.org/2000/svg" xmlns:xlink="http://www.w3.org/1999/xlink">
<g id="graph1" class="graph" transform="scale(1 1) rotate(0) translate(4 228)">
<title>ClassDiagram</title>
<polygon fill="white" stroke="white" points="-4,5 -4,-228 127,-228 127,5 -4,5"/>
<!-- _University -->
<g id="node1" class="node"><title>_University</title>
<a xlink:href="../examples/org/sdmlib/examples/studyrightWithAssignments/University.java" xlink:title="&lt;TABLE&gt;">
<polygon fill="none" stroke="black" points="28,-202 28,-219 95,-219 95,-202 28,-202"/>
<text text-anchor="start" x="40" y="-208.5" font-family="Arial" font-size="10.00">University</text>
</a>
<polygon fill="none" stroke="black" points="28,-182 28,-202 95,-202 95,-182 28,-182"/>
<text text-anchor="start" x="33" y="-190" font-family="Arial" font-size="10.00">name :String</text>
<polygon fill="none" stroke="black" points="28,-162 28,-182 95,-182 95,-162 28,-162"/>
<text text-anchor="start" x="59.5" y="-170" font-family="Arial" font-size="10.00"> </text>
</g>
<!-- _Student -->
<g id="node2" class="node"><title>_Student</title>
<a xlink:href="../examples/org/sdmlib/examples/studyrightWithAssignments/Student.java" xlink:title="&lt;TABLE&gt;">
<polygon fill="none" stroke="black" points="8,-100 8,-117 114,-117 114,-100 8,-100"/>
<text text-anchor="start" x="44" y="-106.5" font-family="Arial" font-size="10.00">Student</text>
</a>
<polygon fill="none" stroke="black" points="8,-24 8,-100 114,-100 114,-24 8,-24"/>
<text text-anchor="start" x="13" y="-88" font-family="Arial" font-size="10.00">name :String</text>
<text text-anchor="start" x="13" y="-74" font-family="Arial" font-size="10.00">id :String</text>
<text text-anchor="start" x="13" y="-60" font-family="Arial" font-size="10.00">assignmentPoints :int</text>
<text text-anchor="start" x="13" y="-46" font-family="Arial" font-size="10.00">motivation :int</text>
<text text-anchor="start" x="13" y="-32" font-family="Arial" font-size="10.00">credits :int</text>
<polygon fill="none" stroke="black" points="8,-4 8,-24 114,-24 114,-4 8,-4"/>
<text text-anchor="start" x="59" y="-12" font-family="Arial" font-size="10.00"> </text>
</g>
<!-- _University&#45;&gt;_Student -->
<g id="edge2" class="edge"><title>_University&#45;&gt;_Student</title>
<path fill="none" stroke="black" d="M61,-158.36C61,-147.255 61,-134.386 61,-121.74"/>
<text text-anchor="middle" x="65.2262" y="-128.303" font-family="Arial" font-size="10.00">students *</text>
<text text-anchor="middle" x="56.7738" y="-146.796" font-family="Arial" font-size="10.00">university</text>
</g>
</g>
</svg>
