<?xml version="1.0" encoding="UTF-8" standalone="no"?>
<!DOCTYPE svg PUBLIC "-//W3C//DTD SVG 1.1//EN"
 "http://www.w3.org/Graphics/SVG/1.1/DTD/svg11.dtd">
<!-- Generated by graphviz version 2.28.0 (20110507.0327)
 -->
<!-- Title: ClassDiagram Pages: 1 -->
<svg width="90pt" height="190pt"
 viewBox="0.00 0.00 90.00 190.00" xmlns="http://www.w3.org/2000/svg" xmlns:xlink="http://www.w3.org/1999/xlink">
<g id="graph1" class="graph" transform="scale(1 1) rotate(0) translate(4 186)">
<title>ClassDiagram</title>
<polygon fill="white" stroke="white" points="-4,5 -4,-186 87,-186 87,5 -4,5"/>
<!-- _University -->
<g id="node1" class="node"><title>_University</title>
<a xlink:href="../examples/org/sdmlib/examples/studyright/University.java" xlink:title="&lt;TABLE&gt;">
<polygon fill="none" stroke="black" points="8,-160 8,-177 75,-177 75,-160 8,-160"/>
<text text-anchor="start" x="20" y="-166.5" font-family="Arial" font-size="10.00">University</text>
</a>
<polygon fill="none" stroke="black" points="8,-140 8,-160 75,-160 75,-140 8,-140"/>
<text text-anchor="start" x="13" y="-148" font-family="Arial" font-size="10.00">name :String</text>
<polygon fill="none" stroke="black" points="8,-120 8,-140 75,-140 75,-120 8,-120"/>
<text text-anchor="start" x="39.5" y="-128" font-family="Arial" font-size="10.00"> </text>
</g>
<!-- _Student -->
<g id="node2" class="node"><title>_Student</title>
<a xlink:href="../examples/org/sdmlib/examples/studyright/Student.java" xlink:title="&lt;TABLE&gt;">
<polygon fill="none" stroke="black" points="8,-58 8,-75 75,-75 75,-58 8,-58"/>
<text text-anchor="start" x="24.5" y="-64.5" font-family="Arial" font-size="10.00">Student</text>
</a>
<polygon fill="none" stroke="black" points="8,-24 8,-58 75,-58 75,-24 8,-24"/>
<text text-anchor="start" x="13" y="-46" font-family="Arial" font-size="10.00">name :String</text>
<text text-anchor="start" x="13" y="-32" font-family="Arial" font-size="10.00">matrNo :int</text>
<polygon fill="none" stroke="black" points="8,-4 8,-24 75,-24 75,-4 8,-4"/>
<text text-anchor="start" x="39.5" y="-12" font-family="Arial" font-size="10.00"> </text>
</g>
<!-- _University&#45;&gt;_Student -->
<g id="edge2" class="edge"><title>_University&#45;&gt;_Student</title>
<path fill="none" stroke="black" d="M41,-116.475C41,-105.009 41,-91.9132 41,-79.8848"/>
<text text-anchor="middle" x="45.2262" y="-86.4479" font-family="Arial" font-size="10.00">students *</text>
<text text-anchor="middle" x="36.7738" y="-104.912" font-family="Arial" font-size="10.00">uni</text>
</g>
</g>
</svg>
