<?xml version="1.0" encoding="UTF-8" standalone="no"?>
<!DOCTYPE svg PUBLIC "-//W3C//DTD SVG 1.1//EN"
 "http://www.w3.org/Graphics/SVG/1.1/DTD/svg11.dtd">
<!-- Generated by graphviz version 2.28.0 (20110507.0327)
 -->
<!-- Title: ObjectDiagram Pages: 1 -->
<svg width="664pt" height="728pt"
 viewBox="0.00 0.00 664.00 728.00" xmlns="http://www.w3.org/2000/svg" xmlns:xlink="http://www.w3.org/1999/xlink">
<g id="graph1" class="graph" transform="scale(1 1) rotate(0) translate(4 724)">
<title>ObjectDiagram</title>
<polygon fill="white" stroke="white" points="-4,5 -4,-724 661,-724 661,5 -4,5"/>
<!-- u4 -->
<g id="node1" class="node"><title>u4</title>
<a xlink:href="../examples/org/sdmlib/examples/studyrightWithAssignments/University.java" xlink:title="&lt;TABLE&gt;">
<polygon fill="none" stroke="black" points="502,-698 502,-715 599,-715 599,-698 502,-698"/>
<text text-anchor="start" x="520.5" y="-704.5" font-family="Times New Roman,serif" font-size="10.00"> </text>
<text text-anchor="start" x="523.5" y="-704.5" font-family="Times New Roman,serif" font-size="10.00">u4 :University</text>
</a>
<polygon fill="none" stroke="black" points="502,-678 502,-698 599,-698 599,-678 502,-678"/>
<text text-anchor="start" x="507" y="-686" font-family="Times New Roman,serif" font-size="10.00">name = &quot;StudyRight&quot;</text>
</g>
<!-- s5 -->
<g id="node2" class="node"><title>s5</title>
<a xlink:href="../examples/org/sdmlib/examples/studyrightWithAssignments/Student.java" xlink:title="&lt;TABLE&gt;">
<polygon fill="none" stroke="black" points="368,-616 368,-633 465,-633 465,-616 368,-616"/>
<text text-anchor="start" x="392" y="-622.5" font-family="Times New Roman,serif" font-size="10.00"> </text>
<text text-anchor="start" x="395" y="-622.5" font-family="Times New Roman,serif" font-size="10.00">s5 :Student</text>
</a>
<polygon fill="none" stroke="black" points="368,-554 368,-616 465,-616 465,-554 368,-554"/>
<text text-anchor="start" x="373" y="-604" font-family="Times New Roman,serif" font-size="10.00">name = &quot;Karli&quot;</text>
<text text-anchor="start" x="373" y="-590" font-family="Times New Roman,serif" font-size="10.00">assignmentPoints = 0</text>
<text text-anchor="start" x="373" y="-576" font-family="Times New Roman,serif" font-size="10.00">motivation = 0</text>
<text text-anchor="start" x="373" y="-562" font-family="Times New Roman,serif" font-size="10.00">credits = 0</text>
</g>
<!-- u4&#45;&#45;s5 -->
<g id="edge2" class="edge"><title>u4&#45;&#45;s5</title>
<path fill="none" stroke="black" d="M521.254,-674.333C506.95,-663.552 489.148,-650.134 472.277,-637.418"/>
<text text-anchor="middle" x="482.059" y="-636.998" font-family="Times New Roman,serif" font-size="10.00">students</text>
<text text-anchor="middle" x="511.472" y="-669.753" font-family="Times New Roman,serif" font-size="10.00">university</text>
</g>
<!-- r6 -->
<g id="node3" class="node"><title>r6</title>
<a xlink:href="../examples/org/sdmlib/examples/studyrightWithAssignments/Room.java" xlink:title="&lt;TABLE&gt;">
<polygon fill="none" stroke="black" points="332,-492 332,-509 410,-509 410,-492 332,-492"/>
<text text-anchor="start" x="351.5" y="-498.5" font-family="Times New Roman,serif" font-size="10.00"> </text>
<text text-anchor="start" x="354.5" y="-498.5" font-family="Times New Roman,serif" font-size="10.00">r6 :Room</text>
</a>
<polygon fill="none" stroke="black" points="332,-444 332,-492 410,-492 410,-444 332,-444"/>
<text text-anchor="start" x="337" y="-480" font-family="Times New Roman,serif" font-size="10.00">name = &quot;senate&quot;</text>
<text text-anchor="start" x="337" y="-466" font-family="Times New Roman,serif" font-size="10.00">topic = &quot;math&quot;</text>
<text text-anchor="start" x="337" y="-452" font-family="Times New Roman,serif" font-size="10.00">credits = 17</text>
</g>
<!-- u4&#45;&#45;r6 -->
<g id="edge4" class="edge"><title>u4&#45;&#45;r6</title>
<path fill="none" stroke="black" d="M543.892,-674.337C534.442,-643.834 513.861,-587.743 481,-550 463.614,-530.032 439.399,-513.376 418.113,-501.132"/>
<text text-anchor="middle" x="428.067" y="-499.587" font-family="Times New Roman,serif" font-size="10.00">rooms</text>
<text text-anchor="middle" x="537.098" y="-664.499" font-family="Times New Roman,serif" font-size="10.00">university</text>
</g>
<!-- r7 -->
<g id="node4" class="node"><title>r7</title>
<a xlink:href="../examples/org/sdmlib/examples/studyrightWithAssignments/Room.java" xlink:title="&lt;TABLE&gt;">
<polygon fill="none" stroke="black" points="8,-382 8,-399 77,-399 77,-382 8,-382"/>
<text text-anchor="start" x="23" y="-388.5" font-family="Times New Roman,serif" font-size="10.00"> </text>
<text text-anchor="start" x="26" y="-388.5" font-family="Times New Roman,serif" font-size="10.00">r7 :Room</text>
</a>
<polygon fill="none" stroke="black" points="8,-334 8,-382 77,-382 77,-334 8,-334"/>
<text text-anchor="start" x="13" y="-370" font-family="Times New Roman,serif" font-size="10.00">name = &quot;7522&quot;</text>
<text text-anchor="start" x="13" y="-356" font-family="Times New Roman,serif" font-size="10.00">topic = &quot;arts&quot;</text>
<text text-anchor="start" x="13" y="-342" font-family="Times New Roman,serif" font-size="10.00">credits = 16</text>
</g>
<!-- u4&#45;&#45;r7 -->
<g id="edge6" class="edge"><title>u4&#45;&#45;r7</title>
<path fill="none" stroke="black" d="M493.566,-686.498C452.037,-677.912 395.186,-662.744 350,-638 234.303,-574.644 124.558,-461.339 72.8873,-403.737"/>
<text text-anchor="middle" x="82.1175" y="-405.085" font-family="Times New Roman,serif" font-size="10.00">rooms</text>
<text text-anchor="middle" x="483.816" y="-686.222" font-family="Times New Roman,serif" font-size="10.00">university</text>
</g>
<!-- r8 -->
<g id="node5" class="node"><title>r8</title>
<a xlink:href="../examples/org/sdmlib/examples/studyrightWithAssignments/Room.java" xlink:title="&lt;TABLE&gt;">
<polygon fill="none" stroke="black" points="117,-272 117,-289 214,-289 214,-272 117,-272"/>
<text text-anchor="start" x="146" y="-278.5" font-family="Times New Roman,serif" font-size="10.00"> </text>
<text text-anchor="start" x="149" y="-278.5" font-family="Times New Roman,serif" font-size="10.00">r8 :Room</text>
</a>
<polygon fill="none" stroke="black" points="117,-224 117,-272 214,-272 214,-224 117,-224"/>
<text text-anchor="start" x="122" y="-260" font-family="Times New Roman,serif" font-size="10.00">name = &quot;gymnasium&quot;</text>
<text text-anchor="start" x="122" y="-246" font-family="Times New Roman,serif" font-size="10.00">topic = &quot;sports&quot;</text>
<text text-anchor="start" x="122" y="-232" font-family="Times New Roman,serif" font-size="10.00">credits = 25</text>
</g>
<!-- u4&#45;&#45;r8 -->
<g id="edge8" class="edge"><title>u4&#45;&#45;r8</title>
<path fill="none" stroke="black" d="M554.218,-674.39C567.441,-603.925 604.686,-382.345 561,-330 518.409,-278.967 320.414,-264.021 221.519,-259.71"/>
<text text-anchor="middle" x="230.784" y="-253.447" font-family="Times New Roman,serif" font-size="10.00">rooms</text>
<text text-anchor="middle" x="551.671" y="-662.22" font-family="Times New Roman,serif" font-size="10.00">university</text>
</g>
<!-- r9 -->
<g id="node6" class="node"><title>r9</title>
<a xlink:href="../examples/org/sdmlib/examples/studyrightWithAssignments/Room.java" xlink:title="&lt;TABLE&gt;">
<polygon fill="none" stroke="black" points="123,-162 123,-179 208,-179 208,-162 123,-162"/>
<text text-anchor="start" x="146" y="-168.5" font-family="Times New Roman,serif" font-size="10.00"> </text>
<text text-anchor="start" x="149" y="-168.5" font-family="Times New Roman,serif" font-size="10.00">r9 :Room</text>
</a>
<polygon fill="none" stroke="black" points="123,-114 123,-162 208,-162 208,-114 123,-114"/>
<text text-anchor="start" x="128" y="-150" font-family="Times New Roman,serif" font-size="10.00">name = &quot;The End&quot;</text>
<text text-anchor="start" x="128" y="-136" font-family="Times New Roman,serif" font-size="10.00">topic = &quot;exam&quot;</text>
<text text-anchor="start" x="128" y="-122" font-family="Times New Roman,serif" font-size="10.00">credits = 0</text>
</g>
<!-- u4&#45;&#45;r9 -->
<g id="edge10" class="edge"><title>u4&#45;&#45;r9</title>
<path fill="none" stroke="black" d="M562.848,-674.27C568.724,-663.619 575.386,-650.436 580,-638 605.423,-569.475 618,-551.089 618,-478 618,-478 618,-478 618,-366 618,-189.042 333.855,-155.642 215.646,-149.403"/>
<text text-anchor="middle" x="224.983" y="-143.321" font-family="Times New Roman,serif" font-size="10.00">rooms</text>
<text text-anchor="middle" x="563.48" y="-661.79" font-family="Times New Roman,serif" font-size="10.00">university</text>
</g>
<!-- r10 -->
<g id="node7" class="node"><title>r10</title>
<a xlink:href="../examples/org/sdmlib/examples/studyrightWithAssignments/Room.java" xlink:title="&lt;TABLE&gt;">
<polygon fill="none" stroke="black" points="97,-52 97,-69 233,-69 233,-52 97,-52"/>
<text text-anchor="start" x="143.5" y="-58.5" font-family="Times New Roman,serif" font-size="10.00"> </text>
<text text-anchor="start" x="146.5" y="-58.5" font-family="Times New Roman,serif" font-size="10.00">r10 :Room</text>
</a>
<polygon fill="none" stroke="black" points="97,-4 97,-52 233,-52 233,-4 97,-4"/>
<text text-anchor="start" x="102" y="-40" font-family="Times New Roman,serif" font-size="10.00">name = &quot;7422&quot;</text>
<text text-anchor="start" x="102" y="-26" font-family="Times New Roman,serif" font-size="10.00">topic = &quot;Software Engineering&quot;</text>
<text text-anchor="start" x="102" y="-12" font-family="Times New Roman,serif" font-size="10.00">credits = 42</text>
</g>
<!-- u4&#45;&#45;r10 -->
<g id="edge12" class="edge"><title>u4&#45;&#45;r10</title>
<path fill="none" stroke="black" d="M577.455,-674.419C588.625,-664.397 600.805,-651.676 609,-638 647.095,-574.424 656,-552.116 656,-478 656,-478 656,-478 656,-256 656,-76.6936 379.093,-43.7525 241.18,-38.4655"/>
<text text-anchor="middle" x="250.466" y="-32.2542" font-family="Times New Roman,serif" font-size="10.00">rooms</text>
<text text-anchor="middle" x="581.294" y="-662.685" font-family="Times New Roman,serif" font-size="10.00">university</text>
</g>
<!-- s5&#45;&#45;r6 -->
<g id="edge14" class="edge"><title>s5&#45;&#45;r6</title>
<path fill="none" stroke="black" d="M399.244,-550.178C394.546,-538.173 389.49,-525.252 384.972,-513.707"/>
<text text-anchor="middle" x="392.211" y="-518.107" font-family="Times New Roman,serif" font-size="10.00">in</text>
<text text-anchor="middle" x="392.005" y="-540.778" font-family="Times New Roman,serif" font-size="10.00">students</text>
</g>
<!-- r6&#45;&#45;r7 -->
<g id="edge16" class="edge"><title>r6&#45;&#45;r7</title>
<path fill="none" stroke="black" d="M323.903,-447.941C317.684,-444.946 311.284,-442.196 305,-440 217.26,-409.34 185.715,-437.45 99,-404 94.086,-402.104 89.1384,-399.763 84.3207,-397.191"/>
<text text-anchor="middle" x="94.3086" y="-395.182" font-family="Times New Roman,serif" font-size="10.00">doors</text>
<text text-anchor="middle" x="313.904" y="-445.36" font-family="Times New Roman,serif" font-size="10.00">doors</text>
</g>
<!-- r6&#45;&#45;r8 -->
<g id="edge18" class="edge"><title>r6&#45;&#45;r8</title>
<path fill="none" stroke="black" d="M323.834,-448.135C317.626,-445.107 311.248,-442.297 305,-440 231.286,-412.904 181.555,-464.928 132,-404 106.585,-372.751 124.043,-325.82 141.775,-293.653"/>
<text text-anchor="middle" x="141.315" y="-301.142" font-family="Times New Roman,serif" font-size="10.00">doors</text>
<text text-anchor="middle" x="313.835" y="-445.5" font-family="Times New Roman,serif" font-size="10.00">doors</text>
</g>
<!-- a11 -->
<g id="node8" class="node"><title>a11</title>
<a xlink:href="../examples/org/sdmlib/examples/studyrightWithAssignments/Assignment.java" xlink:title="&lt;TABLE&gt;">
<polygon fill="none" stroke="black" points="150,-375 150,-392 295,-392 295,-375 150,-375"/>
<text text-anchor="start" x="187.5" y="-381.5" font-family="Times New Roman,serif" font-size="10.00"> </text>
<text text-anchor="start" x="190.5" y="-381.5" font-family="Times New Roman,serif" font-size="10.00">a11 :Assignment</text>
</a>
<polygon fill="none" stroke="black" points="150,-341 150,-375 295,-375 295,-341 150,-341"/>
<text text-anchor="start" x="155" y="-363" font-family="Times New Roman,serif" font-size="10.00">content = &quot;Matrix Multiplication&quot;</text>
<text text-anchor="start" x="155" y="-349" font-family="Times New Roman,serif" font-size="10.00">points = 5</text>
</g>
<!-- r6&#45;&#45;a11 -->
<g id="edge20" class="edge"><title>r6&#45;&#45;a11</title>
<path fill="none" stroke="black" d="M323.855,-441.828C303.734,-427.244 280.522,-410.419 261.343,-396.517"/>
<text text-anchor="middle" x="271.161" y="-395.914" font-family="Times New Roman,serif" font-size="10.00">assignments</text>
<text text-anchor="middle" x="314.037" y="-437.431" font-family="Times New Roman,serif" font-size="10.00">room</text>
</g>
<!-- a12 -->
<g id="node9" class="node"><title>a12</title>
<a xlink:href="../examples/org/sdmlib/examples/studyrightWithAssignments/Assignment.java" xlink:title="&lt;TABLE&gt;">
<polygon fill="none" stroke="black" points="329,-375 329,-392 414,-392 414,-375 329,-375"/>
<text text-anchor="start" x="336.5" y="-381.5" font-family="Times New Roman,serif" font-size="10.00"> </text>
<text text-anchor="start" x="339.5" y="-381.5" font-family="Times New Roman,serif" font-size="10.00">a12 :Assignment</text>
</a>
<polygon fill="none" stroke="black" points="329,-341 329,-375 414,-375 414,-341 329,-341"/>
<text text-anchor="start" x="334" y="-363" font-family="Times New Roman,serif" font-size="10.00">content = &quot;Series&quot;</text>
<text text-anchor="start" x="334" y="-349" font-family="Times New Roman,serif" font-size="10.00">points = 6</text>
</g>
<!-- r6&#45;&#45;a12 -->
<g id="edge22" class="edge"><title>r6&#45;&#45;a12</title>
<path fill="none" stroke="black" d="M371,-440.337C371,-426.206 371,-410.173 371,-396.799"/>
<text text-anchor="middle" x="375.226" y="-403.362" font-family="Times New Roman,serif" font-size="10.00">assignments</text>
<text text-anchor="middle" x="366.774" y="-428.774" font-family="Times New Roman,serif" font-size="10.00">room</text>
</g>
<!-- a13 -->
<g id="node10" class="node"><title>a13</title>
<a xlink:href="../examples/org/sdmlib/examples/studyrightWithAssignments/Assignment.java" xlink:title="&lt;TABLE&gt;">
<polygon fill="none" stroke="black" points="448,-375 448,-392 544,-392 544,-375 448,-375"/>
<text text-anchor="start" x="461" y="-381.5" font-family="Times New Roman,serif" font-size="10.00"> </text>
<text text-anchor="start" x="464" y="-381.5" font-family="Times New Roman,serif" font-size="10.00">a13 :Assignment</text>
</a>
<polygon fill="none" stroke="black" points="448,-341 448,-375 544,-375 544,-341 448,-341"/>
<text text-anchor="start" x="453" y="-363" font-family="Times New Roman,serif" font-size="10.00">content = &quot;Integrals&quot;</text>
<text text-anchor="start" x="453" y="-349" font-family="Times New Roman,serif" font-size="10.00">points = 8</text>
</g>
<!-- r6&#45;&#45;a13 -->
<g id="edge24" class="edge"><title>r6&#45;&#45;a13</title>
<path fill="none" stroke="black" d="M412.276,-440.337C428.632,-426.206 447.188,-410.173 462.668,-396.799"/>
<text text-anchor="middle" x="458.573" y="-403.422" font-family="Times New Roman,serif" font-size="10.00">assignments</text>
<text text-anchor="middle" x="416.371" y="-428.714" font-family="Times New Roman,serif" font-size="10.00">room</text>
</g>
<!-- r7&#45;&#45;r8 -->
<g id="edge26" class="edge"><title>r7&#45;&#45;r8</title>
<path fill="none" stroke="black" d="M82.6157,-330.337C96.0509,-318.541 110.995,-305.419 124.427,-293.625"/>
<text text-anchor="middle" x="120.405" y="-300.281" font-family="Times New Roman,serif" font-size="10.00">doors</text>
<text text-anchor="middle" x="86.6376" y="-318.682" font-family="Times New Roman,serif" font-size="10.00">doors</text>
</g>
<!-- r7&#45;&#45;r9 -->
<g id="edge28" class="edge"><title>r7&#45;&#45;r9</title>
<path fill="none" stroke="black" d="M51.8442,-330.369C61.2433,-299.699 77.2045,-254.991 99,-220 106.979,-207.19 117.387,-194.585 127.571,-183.59"/>
<text text-anchor="middle" x="124.574" y="-190.63" font-family="Times New Roman,serif" font-size="10.00">doors</text>
<text text-anchor="middle" x="50.5291" y="-317.956" font-family="Times New Roman,serif" font-size="10.00">doors</text>
</g>
<!-- r7&#45;&#45;r10 -->
<g id="edge30" class="edge"><title>r7&#45;&#45;r10</title>
<path fill="none" stroke="black" d="M44.125,-330.419C46.5014,-300.559 51.3623,-256.978 61,-220 74.2798,-169.047 78.0357,-155.227 105,-110 112.499,-97.4217 122.141,-84.7885 131.493,-73.6938"/>
<text text-anchor="middle" x="128.936" y="-80.8614" font-family="Times New Roman,serif" font-size="10.00">doors</text>
<text text-anchor="middle" x="40.6767" y="-318.532" font-family="Times New Roman,serif" font-size="10.00">doors</text>
</g>
<!-- r8&#45;&#45;r9 -->
<g id="edge32" class="edge"><title>r8&#45;&#45;r9</title>
<path fill="none" stroke="black" d="M165,-220.337C165,-208.541 165,-195.419 165,-183.625"/>
<text text-anchor="middle" x="169.226" y="-190.188" font-family="Times New Roman,serif" font-size="10.00">doors</text>
<text text-anchor="middle" x="160.774" y="-208.774" font-family="Times New Roman,serif" font-size="10.00">doors</text>
</g>
<!-- r9&#45;&#45;r10 -->
<g id="edge34" class="edge"><title>r9&#45;&#45;r10</title>
<path fill="none" stroke="black" d="M165,-110.337C165,-98.5407 165,-85.4191 165,-73.6251"/>
<text text-anchor="middle" x="169.226" y="-80.1882" font-family="Times New Roman,serif" font-size="10.00">doors</text>
<text text-anchor="middle" x="160.774" y="-98.7744" font-family="Times New Roman,serif" font-size="10.00">doors</text>
</g>
</g>
</svg>
