<?xml version="1.0" encoding="UTF-8" standalone="no"?>
<!DOCTYPE svg PUBLIC "-//W3C//DTD SVG 1.1//EN"
 "http://www.w3.org/Graphics/SVG/1.1/DTD/svg11.dtd">
<!-- Generated by graphviz version 2.26.3 (20100126.1600)
 -->
<!-- Title: ClassDiagram Pages: 1 -->
<svg width="302pt" height="306pt"
 viewBox="0.00 0.00 302.21 306.00" xmlns="http://www.w3.org/2000/svg" xmlns:xlink="http://www.w3.org/1999/xlink">
<g id="graph1" class="graph" transform="scale(1 1) rotate(0) translate(4 302)">
<title>ClassDiagram</title>
<polygon fill="white" stroke="white" points="-4,5 -4,-302 299.214,-302 299.214,5 -4,5"/>
<!-- _Professor -->
<g id="node1" class="node"><title>_Professor</title>
<a xlink:href="../examples/org/sdmlib/examples/studyright/Professor.java" xlink:title="&lt;TABLE&gt;">
<polygon fill="none" stroke="black" points="8,-269 8,-286 82,-286 82,-269 8,-269"/>
<text text-anchor="start" x="22.5" y="-275.167" font-family="Times Roman,serif" font-size="10.00">Professor</text>
</a>
<polygon fill="none" stroke="black" points="8,-249 8,-269 82,-269 82,-249 8,-249"/>
<text text-anchor="start" x="13" y="-256.667" font-family="Times Roman,serif" font-size="10.00">name :String</text>
<polygon fill="none" stroke="black" points="8,-229 8,-249 82,-249 82,-229 8,-229"/>
<text text-anchor="start" x="43" y="-236.667" font-family="Times Roman,serif" font-size="10.00"> </text>
</g>
<!-- _Topic -->
<g id="node2" class="node"><title>_Topic</title>
<a xlink:href="../examples/org/sdmlib/examples/studyright/Topic.java" xlink:title="&lt;TABLE&gt;">
<polygon fill="none" stroke="black" points="13,-153 13,-170 77,-170 77,-153 13,-153"/>
<text text-anchor="start" x="33" y="-159.167" font-family="Times Roman,serif" font-size="10.00">Topic</text>
</a>
<polygon fill="none" stroke="black" points="13,-133 13,-153 77,-153 77,-133 13,-133"/>
<text text-anchor="start" x="18" y="-140.667" font-family="Times Roman,serif" font-size="10.00">title :String</text>
<polygon fill="none" stroke="black" points="13,-113 13,-133 77,-133 77,-113 13,-113"/>
<text text-anchor="start" x="43" y="-120.667" font-family="Times Roman,serif" font-size="10.00"> </text>
</g>
<!-- _Professor&#45;&gt;_Topic -->
<g id="edge2" class="edge"><title>_Professor&#45;&gt;_Topic</title>
<path fill="none" stroke="black" d="M45,-225.379C45,-209.564 45,-190.614 45,-174.778"/>
<text text-anchor="middle" x="49.2262" y="-180.841" font-family="Times Roman,serif" font-size="10.00">topic</text>
<text text-anchor="middle" x="40.7738" y="-213.316" font-family="Times Roman,serif" font-size="10.00">prof</text>
</g>
<!-- _Room -->
<g id="node3" class="node"><title>_Room</title>
<a xlink:href="../examples/org/sdmlib/examples/studyright/Room.java" xlink:title="&lt;TABLE&gt;">
<polygon fill="none" stroke="black" points="148,-276 148,-293 249,-293 249,-276 148,-276"/>
<text text-anchor="start" x="184.5" y="-282.167" font-family="Times Roman,serif" font-size="10.00">Room</text>
</a>
<polygon fill="none" stroke="black" points="148,-242 148,-276 249,-276 249,-242 148,-242"/>
<text text-anchor="start" x="153" y="-263.667" font-family="Times Roman,serif" font-size="10.00">roomNo :String</text>
<text text-anchor="start" x="153" y="-249.667" font-family="Times Roman,serif" font-size="10.00">credits :int</text>
<polygon fill="none" stroke="black" points="148,-222 148,-242 249,-242 249,-222 148,-222"/>
<text text-anchor="start" x="153" y="-229.667" font-family="Times Roman,serif" font-size="10.00">findPath(String,int)</text>
</g>
<!-- _Room&#45;&gt;_Room -->
<g id="edge4" class="edge"><title>_Room&#45;&gt;_Room</title>
<path fill="none" stroke="black" d="M256.312,-278.474C266.726,-275.813 274,-268.988 274,-258 274,-247.012 266.726,-240.187 256.312,-237.526"/>
<text text-anchor="middle" x="266.214" y="-233.129" font-family="Times Roman,serif" font-size="10.00">neighbors *</text>
<text text-anchor="middle" x="263.747" y="-268.787" font-family="Times Roman,serif" font-size="10.00">neighbors *</text>
</g>
<!-- _Student -->
<g id="node4" class="node"><title>_Student</title>
<a xlink:href="../examples/org/sdmlib/examples/studyright/Student.java" xlink:title="&lt;TABLE&gt;">
<polygon fill="none" stroke="black" points="120,-160 120,-177 194,-177 194,-160 120,-160"/>
<text text-anchor="start" x="137.5" y="-166.167" font-family="Times Roman,serif" font-size="10.00">Student</text>
</a>
<polygon fill="none" stroke="black" points="120,-126 120,-160 194,-160 194,-126 120,-126"/>
<text text-anchor="start" x="125" y="-147.667" font-family="Times Roman,serif" font-size="10.00">name :String</text>
<text text-anchor="start" x="125" y="-133.667" font-family="Times Roman,serif" font-size="10.00">matrNo :int</text>
<polygon fill="none" stroke="black" points="120,-106 120,-126 194,-126 194,-106 120,-106"/>
<text text-anchor="start" x="155" y="-113.667" font-family="Times Roman,serif" font-size="10.00"> </text>
</g>
<!-- _Room&#45;&gt;_Student -->
<g id="edge6" class="edge"><title>_Room&#45;&gt;_Student</title>
<path fill="none" stroke="black" d="M184.005,-218.404C179.829,-206.59 175.252,-193.639 171.071,-181.812"/>
<text text-anchor="middle" x="178.076" y="-185.948" font-family="Times Roman,serif" font-size="10.00">students *</text>
<text text-anchor="middle" x="177" y="-208.267" font-family="Times Roman,serif" font-size="10.00">in</text>
</g>
<!-- _University -->
<g id="node5" class="node"><title>_University</title>
<a xlink:href="../examples/org/sdmlib/examples/studyright/University.java" xlink:title="&lt;TABLE&gt;">
<polygon fill="none" stroke="black" points="156,-44 156,-61 230,-61 230,-44 156,-44"/>
<text text-anchor="start" x="169" y="-50.1667" font-family="Times Roman,serif" font-size="10.00">University</text>
</a>
<polygon fill="none" stroke="black" points="156,-24 156,-44 230,-44 230,-24 156,-24"/>
<text text-anchor="start" x="161" y="-31.6667" font-family="Times Roman,serif" font-size="10.00">name :String</text>
<polygon fill="none" stroke="black" points="156,-4 156,-24 230,-24 230,-4 156,-4"/>
<text text-anchor="start" x="191" y="-11.6667" font-family="Times Roman,serif" font-size="10.00"> </text>
</g>
<!-- _Room&#45;&gt;_University -->
<g id="edge8" class="edge"><title>_Room&#45;&gt;_University</title>
<path fill="none" stroke="black" d="M206.092,-218.325C208.114,-206.674 209.992,-193.871 211,-182 214.008,-146.572 215.524,-137.267 211,-102 209.456,-89.9662 206.457,-77.0341 203.342,-65.655"/>
<text text-anchor="middle" x="209.776" y="-70.3101" font-family="Times Roman,serif" font-size="10.00">uni</text>
<text text-anchor="middle" x="203.449" y="-205.681" font-family="Times Roman,serif" font-size="10.00">rooms *</text>
</g>
<!-- _Student&#45;&gt;_University -->
<g id="edge10" class="edge"><title>_Student&#45;&gt;_University</title>
<path fill="none" stroke="black" d="M170.099,-102.34C174.079,-90.2878 178.406,-77.1872 182.216,-65.6517"/>
<text text-anchor="middle" x="183.387" y="-72.5829" font-family="Times Roman,serif" font-size="10.00">uni</text>
<text text-anchor="middle" x="168.928" y="-89.4089" font-family="Times Roman,serif" font-size="10.00">students *</text>
</g>
</g>
</svg>
