<?xml version="1.0" encoding="UTF-8" standalone="no"?>
<!DOCTYPE svg PUBLIC "-//W3C//DTD SVG 1.1//EN"
 "http://www.w3.org/Graphics/SVG/1.1/DTD/svg11.dtd">
<!-- Generated by graphviz version 2.28.0 (20110507.0327)
 -->
<!-- Title: ObjectDiagram Pages: 1 -->
<svg width="686pt" height="728pt"
 viewBox="0.00 0.00 686.00 728.00" xmlns="http://www.w3.org/2000/svg" xmlns:xlink="http://www.w3.org/1999/xlink">
<g id="graph1" class="graph" transform="scale(1 1) rotate(0) translate(4 724)">
<title>ObjectDiagram</title>
<polygon fill="white" stroke="white" points="-4,5 -4,-724 683,-724 683,5 -4,5"/>
<!-- u4 -->
<g id="node1" class="node"><title>u4</title>
<a xlink:href="../examples/org/sdmlib/examples/studyrightWithAssignments/University.java" xlink:title="&lt;TABLE&gt;">
<polygon fill="none" stroke="black" points="521,-698 521,-715 624,-715 624,-698 521,-698"/>
<text text-anchor="start" x="541" y="-704.5" font-family="Arial" font-size="10.00"> </text>
<text text-anchor="start" x="545" y="-704.5" font-family="Arial" font-size="10.00">u4 :University</text>
</a>
<polygon fill="none" stroke="black" points="521,-678 521,-698 624,-698 624,-678 521,-678"/>
<text text-anchor="start" x="526" y="-686" font-family="Arial" font-size="10.00">name = &quot;StudyRight&quot;</text>
</g>
<!-- s5 -->
<g id="node2" class="node"><title>s5</title>
<a xlink:href="../examples/org/sdmlib/examples/studyrightWithAssignments/Student.java" xlink:title="&lt;TABLE&gt;">
<polygon fill="none" stroke="black" points="380,-616 380,-633 487,-633 487,-616 380,-616"/>
<text text-anchor="start" x="406" y="-622.5" font-family="Arial" font-size="10.00"> </text>
<text text-anchor="start" x="410" y="-622.5" font-family="Arial" font-size="10.00">s5 :Student</text>
</a>
<polygon fill="none" stroke="black" points="380,-554 380,-616 487,-616 487,-554 380,-554"/>
<text text-anchor="start" x="385" y="-604" font-family="Arial" font-size="10.00">name = &quot;Karli&quot;</text>
<text text-anchor="start" x="385" y="-590" font-family="Arial" font-size="10.00">assignmentPoints = 0</text>
<text text-anchor="start" x="385" y="-576" font-family="Arial" font-size="10.00">motivation = 0</text>
<text text-anchor="start" x="385" y="-562" font-family="Arial" font-size="10.00">credits = 0</text>
</g>
<!-- u4&#45;&#45;s5 -->
<g id="edge2" class="edge"><title>u4&#45;&#45;s5</title>
<path fill="none" stroke="black" d="M542.181,-674.333C527.423,-663.61 509.076,-650.278 491.66,-637.623"/>
<text text-anchor="middle" x="501.476" y="-637.032" font-family="Arial" font-size="10.00">students</text>
<text text-anchor="middle" x="532.365" y="-669.924" font-family="Arial" font-size="10.00">university</text>
</g>
<!-- r6 -->
<g id="node3" class="node"><title>r6</title>
<a xlink:href="../examples/org/sdmlib/examples/studyrightWithAssignments/Room.java" xlink:title="&lt;TABLE&gt;">
<polygon fill="none" stroke="black" points="344,-492 344,-509 428,-509 428,-492 344,-492"/>
<text text-anchor="start" x="364" y="-498.5" font-family="Arial" font-size="10.00"> </text>
<text text-anchor="start" x="368" y="-498.5" font-family="Arial" font-size="10.00">r6 :Room</text>
</a>
<polygon fill="none" stroke="black" points="344,-444 344,-492 428,-492 428,-444 344,-444"/>
<text text-anchor="start" x="349" y="-480" font-family="Arial" font-size="10.00">name = &quot;senate&quot;</text>
<text text-anchor="start" x="349" y="-466" font-family="Arial" font-size="10.00">topic = &quot;math&quot;</text>
<text text-anchor="start" x="349" y="-452" font-family="Arial" font-size="10.00">credits = 17</text>
</g>
<!-- u4&#45;&#45;r6 -->
<g id="edge4" class="edge"><title>u4&#45;&#45;r6</title>
<path fill="none" stroke="black" d="M566.114,-674.467C556.873,-643.87 536.478,-587.385 503,-550 484.543,-529.389 458.79,-512.674 436.143,-500.555"/>
<text text-anchor="middle" x="446.122" y="-498.709" font-family="Arial" font-size="10.00">rooms</text>
<text text-anchor="middle" x="559.369" y="-664.584" font-family="Arial" font-size="10.00">university</text>
</g>
<!-- r7 -->
<g id="node4" class="node"><title>r7</title>
<a xlink:href="../examples/org/sdmlib/examples/studyrightWithAssignments/Room.java" xlink:title="&lt;TABLE&gt;">
<polygon fill="none" stroke="black" points="8,-382 8,-399 84,-399 84,-382 8,-382"/>
<text text-anchor="start" x="24" y="-388.5" font-family="Arial" font-size="10.00"> </text>
<text text-anchor="start" x="28" y="-388.5" font-family="Arial" font-size="10.00">r7 :Room</text>
</a>
<polygon fill="none" stroke="black" points="8,-334 8,-382 84,-382 84,-334 8,-334"/>
<text text-anchor="start" x="13" y="-370" font-family="Arial" font-size="10.00">name = &quot;7522&quot;</text>
<text text-anchor="start" x="13" y="-356" font-family="Arial" font-size="10.00">topic = &quot;arts&quot;</text>
<text text-anchor="start" x="13" y="-342" font-family="Arial" font-size="10.00">credits = 16</text>
</g>
<!-- u4&#45;&#45;r7 -->
<g id="edge6" class="edge"><title>u4&#45;&#45;r7</title>
<path fill="none" stroke="black" d="M512.376,-686.727C468.858,-678.284 409.433,-663.195 362,-638 243.785,-575.209 130.971,-461.65 77.8004,-403.866"/>
<text text-anchor="middle" x="87.0786" y="-405.096" font-family="Arial" font-size="10.00">rooms</text>
<text text-anchor="middle" x="502.655" y="-686.57" font-family="Arial" font-size="10.00">university</text>
</g>
<!-- r8 -->
<g id="node5" class="node"><title>r8</title>
<a xlink:href="../examples/org/sdmlib/examples/studyrightWithAssignments/Room.java" xlink:title="&lt;TABLE&gt;">
<polygon fill="none" stroke="black" points="121,-272 121,-289 226,-289 226,-272 121,-272"/>
<text text-anchor="start" x="151.5" y="-278.5" font-family="Arial" font-size="10.00"> </text>
<text text-anchor="start" x="155.5" y="-278.5" font-family="Arial" font-size="10.00">r8 :Room</text>
</a>
<polygon fill="none" stroke="black" points="121,-224 121,-272 226,-272 226,-224 121,-224"/>
<text text-anchor="start" x="126" y="-260" font-family="Arial" font-size="10.00">name = &quot;gymnasium&quot;</text>
<text text-anchor="start" x="126" y="-246" font-family="Arial" font-size="10.00">topic = &quot;sports&quot;</text>
<text text-anchor="start" x="126" y="-232" font-family="Arial" font-size="10.00">credits = 25</text>
</g>
<!-- u4&#45;&#45;r8 -->
<g id="edge8" class="edge"><title>u4&#45;&#45;r8</title>
<path fill="none" stroke="black" d="M576.23,-674.38C589.492,-603.883 626.843,-382.213 583,-330 539.083,-277.698 336.538,-263.379 233.526,-259.466"/>
<text text-anchor="middle" x="242.77" y="-253.152" font-family="Arial" font-size="10.00">rooms</text>
<text text-anchor="middle" x="573.687" y="-662.209" font-family="Arial" font-size="10.00">university</text>
</g>
<!-- r9 -->
<g id="node6" class="node"><title>r9</title>
<a xlink:href="../examples/org/sdmlib/examples/studyrightWithAssignments/Room.java" xlink:title="&lt;TABLE&gt;">
<polygon fill="none" stroke="black" points="128,-162 128,-179 219,-179 219,-162 128,-162"/>
<text text-anchor="start" x="151.5" y="-168.5" font-family="Arial" font-size="10.00"> </text>
<text text-anchor="start" x="155.5" y="-168.5" font-family="Arial" font-size="10.00">r9 :Room</text>
</a>
<polygon fill="none" stroke="black" points="128,-114 128,-162 219,-162 219,-114 128,-114"/>
<text text-anchor="start" x="133" y="-150" font-family="Arial" font-size="10.00">name = &quot;The End&quot;</text>
<text text-anchor="start" x="133" y="-136" font-family="Arial" font-size="10.00">topic = &quot;exam&quot;</text>
<text text-anchor="start" x="133" y="-122" font-family="Arial" font-size="10.00">credits = 0</text>
</g>
<!-- u4&#45;&#45;r9 -->
<g id="edge10" class="edge"><title>u4&#45;&#45;r9</title>
<path fill="none" stroke="black" d="M585.342,-674.332C591.427,-663.696 598.306,-650.507 603,-638 628.647,-569.667 640,-550.988 640,-478 640,-478 640,-478 640,-366 640,-185.26 349.237,-154.019 226.571,-148.882"/>
<text text-anchor="middle" x="235.868" y="-142.698" font-family="Arial" font-size="10.00">rooms</text>
<text text-anchor="middle" x="586.126" y="-661.863" font-family="Arial" font-size="10.00">university</text>
</g>
<!-- r10 -->
<g id="node7" class="node"><title>r10</title>
<a xlink:href="../examples/org/sdmlib/examples/studyrightWithAssignments/Room.java" xlink:title="&lt;TABLE&gt;">
<polygon fill="none" stroke="black" points="101,-52 101,-69 245,-69 245,-52 101,-52"/>
<text text-anchor="start" x="148" y="-58.5" font-family="Arial" font-size="10.00"> </text>
<text text-anchor="start" x="152" y="-58.5" font-family="Arial" font-size="10.00">r10 :Room</text>
</a>
<polygon fill="none" stroke="black" points="101,-4 101,-52 245,-52 245,-4 101,-4"/>
<text text-anchor="start" x="106" y="-40" font-family="Arial" font-size="10.00">name = &quot;7422&quot;</text>
<text text-anchor="start" x="106" y="-26" font-family="Arial" font-size="10.00">topic = &quot;Software Engineering&quot;</text>
<text text-anchor="start" x="106" y="-12" font-family="Arial" font-size="10.00">credits = 42</text>
</g>
<!-- u4&#45;&#45;r10 -->
<g id="edge12" class="edge"><title>u4&#45;&#45;r10</title>
<path fill="none" stroke="black" d="M600.276,-674.252C611.558,-664.289 623.791,-651.66 632,-638 670.115,-574.58 678,-551.992 678,-478 678,-478 678,-478 678,-256 678,-73.1293 395.415,-41.8631 253.019,-37.7166"/>
<text text-anchor="middle" x="262.27" y="-31.4199" font-family="Arial" font-size="10.00">rooms</text>
<text text-anchor="middle" x="604.186" y="-662.548" font-family="Arial" font-size="10.00">university</text>
</g>
<!-- s5&#45;&#45;r6 -->
<g id="edge14" class="edge"><title>s5&#45;&#45;r6</title>
<path fill="none" stroke="black" d="M415.499,-550.178C410.592,-538.173 405.312,-525.252 400.593,-513.707"/>
<text text-anchor="middle" x="407.934" y="-517.998" font-family="Arial" font-size="10.00">in</text>
<text text-anchor="middle" x="408.158" y="-540.888" font-family="Arial" font-size="10.00">students</text>
</g>
<!-- r6&#45;&#45;r7 -->
<g id="edge16" class="edge"><title>r6&#45;&#45;r7</title>
<path fill="none" stroke="black" d="M335.944,-447.965C329.365,-444.965 322.61,-442.208 316,-440 226.184,-409.997 194.787,-436.924 106,-404 101.444,-402.311 96.8469,-400.27 92.3328,-398.03"/>
<text text-anchor="middle" x="102.331" y="-395.73" font-family="Arial" font-size="10.00">doors</text>
<text text-anchor="middle" x="325.945" y="-445.592" font-family="Arial" font-size="10.00">doors</text>
</g>
<!-- r6&#45;&#45;r8 -->
<g id="edge18" class="edge"><title>r6&#45;&#45;r8</title>
<path fill="none" stroke="black" d="M335.877,-448.161C329.309,-445.128 322.576,-442.31 316,-440 240.26,-413.393 189.794,-466.165 139,-404 113.476,-372.762 131.324,-325.829 149.38,-293.658"/>
<text text-anchor="middle" x="148.844" y="-301.144" font-family="Arial" font-size="10.00">doors</text>
<text text-anchor="middle" x="325.878" y="-445.736" font-family="Arial" font-size="10.00">doors</text>
</g>
<!-- a11 -->
<g id="node8" class="node"><title>a11</title>
<a xlink:href="../examples/org/sdmlib/examples/studyrightWithAssignments/Assignment.java" xlink:title="&lt;TABLE&gt;">
<polygon fill="none" stroke="black" points="156,-382 156,-399 306,-399 306,-382 156,-382"/>
<text text-anchor="start" x="192" y="-388.5" font-family="Arial" font-size="10.00"> </text>
<text text-anchor="start" x="196" y="-388.5" font-family="Arial" font-size="10.00">a11 :Assignment</text>
</a>
<polygon fill="none" stroke="black" points="156,-334 156,-382 306,-382 306,-334 156,-334"/>
<text text-anchor="start" x="161" y="-370" font-family="Arial" font-size="10.00">content = &quot;Matrix Multiplication&quot;</text>
<text text-anchor="start" x="161" y="-356" font-family="Arial" font-size="10.00">points = 5</text>
<text text-anchor="start" x="161" y="-342" font-family="Arial" font-size="10.00">students = &quot;&quot;</text>
</g>
<!-- r6&#45;&#45;a11 -->
<g id="edge20" class="edge"><title>r6&#45;&#45;a11</title>
<path fill="none" stroke="black" d="M335.676,-440.935C318.527,-428.987 299.345,-415.621 282.134,-403.629"/>
<text text-anchor="middle" x="291.986" y="-402.842" font-family="Arial" font-size="10.00">assignments</text>
<text text-anchor="middle" x="325.824" y="-436.722" font-family="Arial" font-size="10.00">room</text>
</g>
<!-- a12 -->
<g id="node9" class="node"><title>a12</title>
<a xlink:href="../examples/org/sdmlib/examples/studyrightWithAssignments/Assignment.java" xlink:title="&lt;TABLE&gt;">
<polygon fill="none" stroke="black" points="341,-382 341,-399 432,-399 432,-382 341,-382"/>
<text text-anchor="start" x="347.5" y="-388.5" font-family="Arial" font-size="10.00"> </text>
<text text-anchor="start" x="351.5" y="-388.5" font-family="Arial" font-size="10.00">a12 :Assignment</text>
</a>
<polygon fill="none" stroke="black" points="341,-334 341,-382 432,-382 432,-334 341,-334"/>
<text text-anchor="start" x="346" y="-370" font-family="Arial" font-size="10.00">content = &quot;Series&quot;</text>
<text text-anchor="start" x="346" y="-356" font-family="Arial" font-size="10.00">points = 6</text>
<text text-anchor="start" x="346" y="-342" font-family="Arial" font-size="10.00">students = &quot;&quot;</text>
</g>
<!-- r6&#45;&#45;a12 -->
<g id="edge22" class="edge"><title>r6&#45;&#45;a12</title>
<path fill="none" stroke="black" d="M386,-440.337C386,-428.541 386,-415.419 386,-403.625"/>
<text text-anchor="middle" x="390.226" y="-410.188" font-family="Arial" font-size="10.00">assignments</text>
<text text-anchor="middle" x="381.774" y="-428.774" font-family="Arial" font-size="10.00">room</text>
</g>
<!-- a13 -->
<g id="node10" class="node"><title>a13</title>
<a xlink:href="../examples/org/sdmlib/examples/studyrightWithAssignments/Assignment.java" xlink:title="&lt;TABLE&gt;">
<polygon fill="none" stroke="black" points="466,-382 466,-399 566,-399 566,-382 466,-382"/>
<text text-anchor="start" x="477" y="-388.5" font-family="Arial" font-size="10.00"> </text>
<text text-anchor="start" x="481" y="-388.5" font-family="Arial" font-size="10.00">a13 :Assignment</text>
</a>
<polygon fill="none" stroke="black" points="466,-334 466,-382 566,-382 566,-334 466,-334"/>
<text text-anchor="start" x="471" y="-370" font-family="Arial" font-size="10.00">content = &quot;Integrals&quot;</text>
<text text-anchor="start" x="471" y="-356" font-family="Arial" font-size="10.00">points = 8</text>
<text text-anchor="start" x="471" y="-342" font-family="Arial" font-size="10.00">students = &quot;&quot;</text>
</g>
<!-- r6&#45;&#45;a13 -->
<g id="edge24" class="edge"><title>r6&#45;&#45;a13</title>
<path fill="none" stroke="black" d="M428.927,-440.337C443.127,-428.541 458.922,-415.419 473.118,-403.625"/>
<text text-anchor="middle" x="468.847" y="-410.167" font-family="Arial" font-size="10.00">assignments</text>
<text text-anchor="middle" x="433.198" y="-428.795" font-family="Arial" font-size="10.00">room</text>
</g>
<!-- r7&#45;&#45;r8 -->
<g id="edge26" class="edge"><title>r7&#45;&#45;r8</title>
<path fill="none" stroke="black" d="M87.9365,-330.337C101.809,-318.541 117.239,-305.419 131.108,-293.625"/>
<text text-anchor="middle" x="126.941" y="-300.216" font-family="Arial" font-size="10.00">doors</text>
<text text-anchor="middle" x="92.1029" y="-318.747" font-family="Arial" font-size="10.00">doors</text>
</g>
<!-- r7&#45;&#45;r9 -->
<g id="edge28" class="edge"><title>r7&#45;&#45;r9</title>
<path fill="none" stroke="black" d="M55.5886,-330.207C64.8258,-299.435 80.6931,-254.667 103,-220 111.302,-207.098 122.167,-194.559 132.854,-183.657"/>
<text text-anchor="middle" x="129.592" y="-190.61" font-family="Arial" font-size="10.00">doors</text>
<text text-anchor="middle" x="54.2217" y="-317.801" font-family="Arial" font-size="10.00">doors</text>
</g>
<!-- r7&#45;&#45;r10 -->
<g id="edge30" class="edge"><title>r7&#45;&#45;r10</title>
<path fill="none" stroke="black" d="M48.0501,-330.399C50.3813,-300.527 55.218,-256.94 65,-220 78.5214,-168.938 82.23,-154.933 110,-110 117.859,-97.2839 127.979,-84.6099 137.798,-73.5201"/>
<text text-anchor="middle" x="135.009" y="-80.6232" font-family="Arial" font-size="10.00">doors</text>
<text text-anchor="middle" x="44.5887" y="-318.517" font-family="Arial" font-size="10.00">doors</text>
</g>
<!-- r8&#45;&#45;r9 -->
<g id="edge32" class="edge"><title>r8&#45;&#45;r9</title>
<path fill="none" stroke="black" d="M173,-220.337C173,-208.541 173,-195.419 173,-183.625"/>
<text text-anchor="middle" x="177.226" y="-190.188" font-family="Arial" font-size="10.00">doors</text>
<text text-anchor="middle" x="168.774" y="-208.774" font-family="Arial" font-size="10.00">doors</text>
</g>
<!-- r9&#45;&#45;r10 -->
<g id="edge34" class="edge"><title>r9&#45;&#45;r10</title>
<path fill="none" stroke="black" d="M173,-110.337C173,-98.5407 173,-85.4191 173,-73.6251"/>
<text text-anchor="middle" x="177.226" y="-80.1882" font-family="Arial" font-size="10.00">doors</text>
<text text-anchor="middle" x="168.774" y="-98.7744" font-family="Arial" font-size="10.00">doors</text>
</g>
</g>
</svg>
