<?xml version="1.0" encoding="UTF-8" standalone="no"?>
<!DOCTYPE svg PUBLIC "-//W3C//DTD SVG 1.1//EN"
 "http://www.w3.org/Graphics/SVG/1.1/DTD/svg11.dtd">
<!-- Generated by graphviz version 2.28.0 (20110507.0327)
 -->
<!-- Title: ClassDiagram Pages: 1 -->
<svg width="217pt" height="130pt"
 viewBox="0.00 0.00 217.00 130.00" xmlns="http://www.w3.org/2000/svg" xmlns:xlink="http://www.w3.org/1999/xlink">
<g id="graph1" class="graph" transform="scale(1 1) rotate(0) translate(4 126)">
<title>ClassDiagram</title>
<polygon fill="white" stroke="white" points="-4,5 -4,-126 214,-126 214,5 -4,5"/>
<!-- _University -->
<g id="node1" class="node"><title>_University</title>
<a xlink:href="../src/University.java" xlink:title="&lt;TABLE&gt;">
<polygon fill="none" stroke="black" points="8,-72 8,-89 69,-89 69,-72 8,-72"/>
<text text-anchor="start" x="17" y="-78.5" font-family="Times New Roman,serif" font-size="10.00">University</text>
</a>
<polygon fill="none" stroke="black" points="8,-52 8,-72 69,-72 69,-52 8,-52"/>
<text text-anchor="start" x="13" y="-60" font-family="Times New Roman,serif" font-size="10.00">name :String</text>
<polygon fill="none" stroke="black" points="8,-32 8,-52 69,-52 69,-32 8,-32"/>
<text text-anchor="start" x="37" y="-40" font-family="Times New Roman,serif" font-size="10.00"> </text>
</g>
<!-- _Student -->
<g id="node2" class="node"><title>_Student</title>
<a xlink:href="../src/Student.java" xlink:title="&lt;TABLE&gt;">
<polygon fill="none" stroke="black" points="103,-100 103,-117 201,-117 201,-100 103,-100"/>
<text text-anchor="start" x="136" y="-106.5" font-family="Times New Roman,serif" font-size="10.00">Student</text>
</a>
<polygon fill="none" stroke="black" points="103,-24 103,-100 201,-100 201,-24 103,-24"/>
<text text-anchor="start" x="108" y="-88" font-family="Times New Roman,serif" font-size="10.00">name :String</text>
<text text-anchor="start" x="108" y="-74" font-family="Times New Roman,serif" font-size="10.00">id :String</text>
<text text-anchor="start" x="108" y="-60" font-family="Times New Roman,serif" font-size="10.00">assignmentPoints :int</text>
<text text-anchor="start" x="108" y="-46" font-family="Times New Roman,serif" font-size="10.00">motivation :int</text>
<text text-anchor="start" x="108" y="-32" font-family="Times New Roman,serif" font-size="10.00">credits :int</text>
<polygon fill="none" stroke="black" points="103,-4 103,-24 201,-24 201,-4 103,-4"/>
<text text-anchor="start" x="150.5" y="-12" font-family="Times New Roman,serif" font-size="10.00"> </text>
</g>
</g>
</svg>
