<?xml version="1.0" encoding="UTF-8" standalone="no"?>
<!DOCTYPE svg PUBLIC "-//W3C//DTD SVG 1.1//EN"
 "http://www.w3.org/Graphics/SVG/1.1/DTD/svg11.dtd">
<!-- Generated by graphviz version 2.28.0 (20110507.0327)
 -->
<!-- Title: ObjectDiagram Pages: 1 -->
<svg width="319pt" height="438pt"
 viewBox="0.00 0.00 319.00 438.00" xmlns="http://www.w3.org/2000/svg" xmlns:xlink="http://www.w3.org/1999/xlink">
<g id="graph1" class="graph" transform="scale(1 1) rotate(0) translate(4 434)">
<title>ObjectDiagram</title>
<polygon fill="white" stroke="white" points="-4,5 -4,-434 316,-434 316,5 -4,5"/>
<!-- u1 -->
<g id="node1" class="node"><title>u1</title>
<polygon fill="none" stroke="black" points="111,-408 111,-425 208,-425 208,-408 111,-408"/>
<text text-anchor="start" x="129.5" y="-414.5" font-family="Times New Roman,serif" font-size="10.00"> </text>
<text text-anchor="start" x="132.5" y="-414.5" font-family="Times New Roman,serif" font-size="10.00">u1 :University</text>
<polygon fill="none" stroke="black" points="111,-388 111,-408 208,-408 208,-388 111,-388"/>
<text text-anchor="start" x="116.5" y="-396" font-family="Times New Roman,serif" font-size="10.00">name = &quot;StudyRight&quot;</text>
</g>
<!-- s2 -->
<g id="node2" class="node"><title>s2</title>
<polygon fill="none" stroke="black" points="8,-326 8,-343 85,-343 85,-326 8,-326"/>
<text text-anchor="start" x="22" y="-332.5" font-family="Times New Roman,serif" font-size="10.00"> </text>
<text text-anchor="start" x="25" y="-332.5" font-family="Times New Roman,serif" font-size="10.00">s2 :Student</text>
<polygon fill="none" stroke="black" points="8,-292 8,-326 85,-326 85,-292 8,-292"/>
<text text-anchor="start" x="13.5" y="-314" font-family="Times New Roman,serif" font-size="10.00">name = &quot;Albert&quot;</text>
<text text-anchor="start" x="17.5" y="-300" font-family="Times New Roman,serif" font-size="10.00">matrNo = 4242</text>
</g>
<!-- u1&#45;&#45;s2 -->
<g id="edge2" class="edge"><title>u1&#45;&#45;s2</title>
<path fill="none" stroke="black" d="M131.067,-384.494C116.689,-373.424 98.9609,-359.775 83.4165,-347.807"/>
<text text-anchor="middle" x="93.1759" y="-347.488" font-family="Times New Roman,serif" font-size="10.00">students</text>
<text text-anchor="middle" x="121.308" y="-379.814" font-family="Times New Roman,serif" font-size="10.00">uni</text>
</g>
<!-- r4 -->
<g id="node3" class="node"><title>r4</title>
<polygon fill="none" stroke="black" points="23,-230 23,-247 105,-247 105,-230 23,-230"/>
<text text-anchor="start" x="44.5" y="-236.5" font-family="Times New Roman,serif" font-size="10.00"> </text>
<text text-anchor="start" x="47.5" y="-236.5" font-family="Times New Roman,serif" font-size="10.00">r4 :Room</text>
<polygon fill="none" stroke="black" points="23,-196 23,-230 105,-230 105,-196 23,-196"/>
<text text-anchor="start" x="28.5" y="-218" font-family="Times New Roman,serif" font-size="10.00">roomNo = &quot;math&quot;</text>
<text text-anchor="start" x="41" y="-204" font-family="Times New Roman,serif" font-size="10.00">credits = 42</text>
</g>
<!-- u1&#45;&#45;r4 -->
<g id="edge6" class="edge"><title>u1&#45;&#45;r4</title>
<path fill="none" stroke="black" d="M148.908,-384.486C137.629,-360.682 118.632,-321.283 101,-288 94.6175,-275.952 87.2462,-262.852 80.771,-251.59"/>
<text text-anchor="middle" x="88.9459" y="-254.85" font-family="Times New Roman,serif" font-size="10.00">rooms</text>
<text text-anchor="middle" x="141.2" y="-375.615" font-family="Times New Roman,serif" font-size="10.00">uni</text>
</g>
<!-- r5 -->
<g id="node4" class="node"><title>r5</title>
<polygon fill="none" stroke="black" points="83,-134 83,-151 161,-151 161,-134 83,-134"/>
<text text-anchor="start" x="102.5" y="-140.5" font-family="Times New Roman,serif" font-size="10.00"> </text>
<text text-anchor="start" x="105.5" y="-140.5" font-family="Times New Roman,serif" font-size="10.00">r5 :Room</text>
<polygon fill="none" stroke="black" points="83,-100 83,-134 161,-134 161,-100 83,-100"/>
<text text-anchor="start" x="88.5" y="-122" font-family="Times New Roman,serif" font-size="10.00">roomNo = &quot;arts&quot;</text>
<text text-anchor="start" x="99" y="-108" font-family="Times New Roman,serif" font-size="10.00">credits = 23</text>
</g>
<!-- u1&#45;&#45;r5 -->
<g id="edge8" class="edge"><title>u1&#45;&#45;r5</title>
<path fill="none" stroke="black" d="M156.097,-384.107C149.47,-334.136 133.231,-211.684 125.811,-155.734"/>
<text text-anchor="middle" x="131.192" y="-161.663" font-family="Times New Roman,serif" font-size="10.00">rooms</text>
<text text-anchor="middle" x="150.716" y="-373.179" font-family="Times New Roman,serif" font-size="10.00">uni</text>
</g>
<!-- r6 -->
<g id="node5" class="node"><title>r6</title>
<polygon fill="none" stroke="black" points="78,-38 78,-55 166,-55 166,-38 78,-38"/>
<text text-anchor="start" x="102.5" y="-44.5" font-family="Times New Roman,serif" font-size="10.00"> </text>
<text text-anchor="start" x="105.5" y="-44.5" font-family="Times New Roman,serif" font-size="10.00">r6 :Room</text>
<polygon fill="none" stroke="black" points="78,-4 78,-38 166,-38 166,-4 78,-4"/>
<text text-anchor="start" x="83.5" y="-26" font-family="Times New Roman,serif" font-size="10.00">roomNo = &quot;sports&quot;</text>
<text text-anchor="start" x="99" y="-12" font-family="Times New Roman,serif" font-size="10.00">credits = 23</text>
</g>
<!-- u1&#45;&#45;r6 -->
<g id="edge10" class="edge"><title>u1&#45;&#45;r6</title>
<path fill="none" stroke="black" d="M166.123,-384.453C181.999,-332.751 216.012,-198.359 178,-96 173.022,-82.5951 163.902,-70.1033 154.448,-59.7247"/>
<text text-anchor="middle" x="163.627" y="-61.1913" font-family="Times New Roman,serif" font-size="10.00">rooms</text>
<text text-anchor="middle" x="164.605" y="-372.069" font-family="Times New Roman,serif" font-size="10.00">uni</text>
</g>
<!-- s3 -->
<g id="node6" class="node"><title>s3</title>
<polygon fill="none" stroke="black" points="233,-326 233,-343 303,-343 303,-326 233,-326"/>
<text text-anchor="start" x="243.5" y="-332.5" font-family="Times New Roman,serif" font-size="10.00"> </text>
<text text-anchor="start" x="246.5" y="-332.5" font-family="Times New Roman,serif" font-size="10.00">s3 :Student</text>
<polygon fill="none" stroke="black" points="233,-292 233,-326 303,-326 303,-292 233,-292"/>
<text text-anchor="start" x="238.5" y="-314" font-family="Times New Roman,serif" font-size="10.00">name = &quot;Nina&quot;</text>
<text text-anchor="start" x="239" y="-300" font-family="Times New Roman,serif" font-size="10.00">matrNo = 2323</text>
</g>
<!-- u1&#45;&#45;s3 -->
<g id="edge4" class="edge"><title>u1&#45;&#45;s3</title>
<path fill="none" stroke="black" d="M185.944,-384.494C199.813,-373.424 216.914,-359.775 231.908,-347.807"/>
<text text-anchor="middle" x="227.461" y="-354.264" font-family="Times New Roman,serif" font-size="10.00">students</text>
<text text-anchor="middle" x="190.391" y="-373.038" font-family="Times New Roman,serif" font-size="10.00">uni</text>
</g>
<!-- s2&#45;&#45;r4 -->
<g id="edge12" class="edge"><title>s2&#45;&#45;r4</title>
<path fill="none" stroke="black" d="M51.4984,-288.286C53.7316,-276.624 56.3055,-263.182 58.5353,-251.538"/>
<text text-anchor="middle" x="60.9815" y="-258.734" font-family="Times New Roman,serif" font-size="10.00">in</text>
<text text-anchor="middle" x="49.0521" y="-276.09" font-family="Times New Roman,serif" font-size="10.00">students</text>
</g>
<!-- r4&#45;&#45;r5 -->
<g id="edge14" class="edge"><title>r4&#45;&#45;r5</title>
<path fill="none" stroke="black" d="M81.7171,-192.286C88.9129,-180.624 97.2067,-167.182 104.391,-155.538"/>
<text text-anchor="middle" x="103.229" y="-162.97" font-family="Times New Roman,serif" font-size="10.00">neighbors</text>
<text text-anchor="middle" x="82.8795" y="-179.854" font-family="Times New Roman,serif" font-size="10.00">neighbors</text>
</g>
<!-- r4&#45;&#45;r6 -->
<g id="edge16" class="edge"><title>r4&#45;&#45;r6</title>
<path fill="none" stroke="black" d="M59.0701,-192.412C55.8154,-166.381 54.075,-127.341 66,-96 71.0851,-82.6354 80.2314,-70.1536 89.6779,-59.7719"/>
<text text-anchor="middle" x="86.8191" y="-66.8546" font-family="Times New Roman,serif" font-size="10.00">neighbors</text>
<text text-anchor="middle" x="53.8585" y="-181.378" font-family="Times New Roman,serif" font-size="10.00">neighbors</text>
</g>
<!-- r5&#45;&#45;r6 -->
<g id="edge18" class="edge"><title>r5&#45;&#45;r6</title>
<path fill="none" stroke="black" d="M122,-96.2861C122,-84.624 122,-71.1822 122,-59.538"/>
<text text-anchor="middle" x="126.226" y="-66.1011" font-family="Times New Roman,serif" font-size="10.00">neighbors</text>
<text text-anchor="middle" x="117.774" y="-84.7231" font-family="Times New Roman,serif" font-size="10.00">neighbors</text>
</g>
</g>
</svg>
