<?xml version="1.0" encoding="UTF-8" standalone="no"?>
<!DOCTYPE svg PUBLIC "-//W3C//DTD SVG 1.1//EN"
 "http://www.w3.org/Graphics/SVG/1.1/DTD/svg11.dtd">
<!-- Generated by graphviz version 2.28.0 (20110507.0327)
 -->
<!-- Title: ClassDiagram Pages: 1 -->
<svg width="172pt" height="450pt"
 viewBox="0.00 0.00 172.49 450.00" xmlns="http://www.w3.org/2000/svg" xmlns:xlink="http://www.w3.org/1999/xlink">
<g id="graph1" class="graph" transform="scale(1 1) rotate(0) translate(4 446)">
<title>ClassDiagram</title>
<polygon fill="white" stroke="white" points="-4,5 -4,-446 169.489,-446 169.489,5 -4,5"/>
<!-- _University -->
<g id="node1" class="node"><title>_University</title>
<a xlink:href="../src/University.java" xlink:title="&lt;TABLE&gt;">
<polygon fill="none" stroke="black" points="66,-420 66,-437 127,-437 127,-420 66,-420"/>
<text text-anchor="start" x="75" y="-426.5" font-family="Times New Roman,serif" font-size="10.00">University</text>
</a>
<polygon fill="none" stroke="black" points="66,-400 66,-420 127,-420 127,-400 66,-400"/>
<text text-anchor="start" x="71" y="-408" font-family="Times New Roman,serif" font-size="10.00">name :String</text>
<polygon fill="none" stroke="black" points="66,-380 66,-400 127,-400 127,-380 66,-380"/>
<text text-anchor="start" x="95" y="-388" font-family="Times New Roman,serif" font-size="10.00"> </text>
</g>
<!-- _Student -->
<g id="node2" class="node"><title>_Student</title>
<a xlink:href="../src/Student.java" xlink:title="&lt;TABLE&gt;">
<polygon fill="none" stroke="black" points="27,-318 27,-335 96,-335 96,-318 27,-318"/>
<text text-anchor="start" x="45.5" y="-324.5" font-family="Times New Roman,serif" font-size="10.00">Student</text>
</a>
<polygon fill="none" stroke="black" points="27,-256 27,-318 96,-318 96,-256 27,-256"/>
<text text-anchor="start" x="32" y="-306" font-family="Times New Roman,serif" font-size="10.00">name :String</text>
<text text-anchor="start" x="32" y="-292" font-family="Times New Roman,serif" font-size="10.00">matrNo :int</text>
<text text-anchor="start" x="32" y="-278" font-family="Times New Roman,serif" font-size="10.00">credits :int</text>
<text text-anchor="start" x="32" y="-264" font-family="Times New Roman,serif" font-size="10.00">motivation :int</text>
<polygon fill="none" stroke="black" points="27,-236 27,-256 96,-256 96,-236 27,-236"/>
<text text-anchor="start" x="60" y="-244" font-family="Times New Roman,serif" font-size="10.00"> </text>
</g>
<!-- _University&#45;&gt;_Student -->
<g id="edge2" class="edge"><title>_University&#45;&gt;_Student</title>
<path fill="none" stroke="black" d="M86.8042,-376.209C83.5636,-365.005 79.8284,-352.093 76.2243,-339.632"/>
<text text-anchor="middle" x="82.8023" y="-344.664" font-family="Times New Roman,serif" font-size="10.00">students *</text>
<text text-anchor="middle" x="80.2261" y="-366.177" font-family="Times New Roman,serif" font-size="10.00">uni</text>
</g>
<!-- _Room -->
<g id="node3" class="node"><title>_Room</title>
<a xlink:href="../src/Room.java" xlink:title="&lt;TABLE&gt;">
<polygon fill="none" stroke="black" points="8,-58 8,-75 122,-75 122,-58 8,-58"/>
<text text-anchor="start" x="53" y="-64.5" font-family="Times New Roman,serif" font-size="10.00">Room</text>
</a>
<polygon fill="none" stroke="black" points="8,-24 8,-58 122,-58 122,-24 8,-24"/>
<text text-anchor="start" x="13" y="-46" font-family="Times New Roman,serif" font-size="10.00">roomNo :String</text>
<text text-anchor="start" x="13" y="-32" font-family="Times New Roman,serif" font-size="10.00">credits :int</text>
<polygon fill="none" stroke="black" points="8,-4 8,-24 122,-24 122,-4 8,-4"/>
<text text-anchor="start" x="13" y="-12" font-family="Times New Roman,serif" font-size="10.00">findPath(String p0, int p1)</text>
</g>
<!-- _University&#45;&gt;_Room -->
<g id="edge4" class="edge"><title>_University&#45;&gt;_Room</title>
<path fill="none" stroke="black" d="M104.472,-376.12C117.491,-321.602 138.298,-207.49 112,-116 108.392,-103.447 101.998,-90.9616 95.0664,-79.8828"/>
<text text-anchor="middle" x="103.405" y="-82.9034" font-family="Times New Roman,serif" font-size="10.00">rooms *</text>
<text text-anchor="middle" x="102.349" y="-363.848" font-family="Times New Roman,serif" font-size="10.00">uni</text>
</g>
<!-- _Student&#45;&gt;_Room -->
<g id="edge8" class="edge"><title>_Student&#45;&gt;_Room</title>
<path fill="none" stroke="black" d="M30.0825,-232.367C24.6715,-220.754 19.8633,-208.253 17,-196 8.90897,-161.377 7.01501,-150.125 17,-116 20.6902,-103.388 27.2216,-90.8834 34.3007,-79.8045"/>
<text text-anchor="middle" x="33.0772" y="-87.2294" font-family="Times New Roman,serif" font-size="10.00">in</text>
<text text-anchor="middle" x="22.4714" y="-223.381" font-family="Times New Roman,serif" font-size="10.00">students *</text>
</g>
<!-- _Assignment -->
<g id="node4" class="node"><title>_Assignment</title>
<a xlink:href="../src/Assignment.java" xlink:title="&lt;TABLE&gt;">
<polygon fill="none" stroke="black" points="35,-174 35,-191 96,-191 96,-174 35,-174"/>
<text text-anchor="start" x="41" y="-180.5" font-family="Times New Roman,serif" font-size="10.00">Assignment</text>
</a>
<polygon fill="none" stroke="black" points="35,-140 35,-174 96,-174 96,-140 35,-140"/>
<text text-anchor="start" x="40" y="-162" font-family="Times New Roman,serif" font-size="10.00">name :String</text>
<text text-anchor="start" x="40" y="-148" font-family="Times New Roman,serif" font-size="10.00">points :int</text>
<polygon fill="none" stroke="black" points="35,-120 35,-140 96,-140 96,-120 35,-120"/>
<text text-anchor="start" x="64" y="-128" font-family="Times New Roman,serif" font-size="10.00"> </text>
</g>
<!-- _Student&#45;&gt;_Assignment -->
<g id="edge12" class="edge"><title>_Student&#45;&gt;_Assignment</title>
<path fill="none" stroke="black" d="M62.65,-232.199C63.0331,-219.94 63.4339,-207.117 63.7937,-195.602"/>
<text text-anchor="middle" x="67.7347" y="-202.293" font-family="Times New Roman,serif" font-size="10.00">done *</text>
<text text-anchor="middle" x="58.709" y="-220.508" font-family="Times New Roman,serif" font-size="10.00">students</text>
</g>
<!-- _Room&#45;&gt;_Room -->
<g id="edge6" class="edge"><title>_Room&#45;&gt;_Room</title>
<path fill="none" stroke="black" d="M130.072,-60.1238C140.697,-57.2431 148,-50.5352 148,-40 148,-29.4648 140.697,-22.7569 130.072,-19.8762"/>
<text text-anchor="middle" x="139.989" y="-16.0903" font-family="Times New Roman,serif" font-size="10.00">neighbors *</text>
<text text-anchor="middle" x="137.431" y="-50.8535" font-family="Times New Roman,serif" font-size="10.00">neighbors *</text>
</g>
<!-- _Assignment&#45;&gt;_Room -->
<g id="edge10" class="edge"><title>_Assignment&#45;&gt;_Room</title>
<path fill="none" stroke="black" d="M65,-116.405C65,-104.519 65,-91.4381 65,-79.5555"/>
<text text-anchor="middle" x="69.2262" y="-86.1185" font-family="Times New Roman,serif" font-size="10.00">assignments *</text>
<text text-anchor="middle" x="60.7738" y="-104.842" font-family="Times New Roman,serif" font-size="10.00">room</text>
</g>
</g>
</svg>
