<?xml version="1.0" encoding="UTF-8" standalone="no"?>
<!DOCTYPE svg PUBLIC "-//W3C//DTD SVG 1.1//EN"
 "http://www.w3.org/Graphics/SVG/1.1/DTD/svg11.dtd">
<!-- Generated by graphviz version 2.28.0 (20110507.0327)
 -->
<!-- Title: ClassDiagram Pages: 1 -->
<svg width="179pt" height="88pt"
 viewBox="0.00 0.00 179.00 88.00" xmlns="http://www.w3.org/2000/svg" xmlns:xlink="http://www.w3.org/1999/xlink">
<g id="graph1" class="graph" transform="scale(1 1) rotate(0) translate(4 84)">
<title>ClassDiagram</title>
<polygon fill="white" stroke="white" points="-4,5 -4,-84 176,-84 176,5 -4,5"/>
<!-- _University -->
<g id="node1" class="node"><title>_University</title>
<a xlink:href="../src/University.java" xlink:title="&lt;TABLE&gt;">
<polygon fill="none" stroke="black" points="8,-51 8,-68 69,-68 69,-51 8,-51"/>
<text text-anchor="start" x="17" y="-57.5" font-family="Times New Roman,serif" font-size="10.00">University</text>
</a>
<polygon fill="none" stroke="black" points="8,-31 8,-51 69,-51 69,-31 8,-31"/>
<text text-anchor="start" x="13" y="-39" font-family="Times New Roman,serif" font-size="10.00">name :String</text>
<polygon fill="none" stroke="black" points="8,-11 8,-31 69,-31 69,-11 8,-11"/>
<text text-anchor="start" x="37" y="-19" font-family="Times New Roman,serif" font-size="10.00"> </text>
</g>
<!-- _Student -->
<g id="node2" class="node"><title>_Student</title>
<a xlink:href="../src/Student.java" xlink:title="&lt;TABLE&gt;">
<polygon fill="none" stroke="black" points="103,-58 103,-75 164,-75 164,-58 103,-58"/>
<text text-anchor="start" x="117.5" y="-64.5" font-family="Times New Roman,serif" font-size="10.00">Student</text>
</a>
<polygon fill="none" stroke="black" points="103,-24 103,-58 164,-58 164,-24 103,-24"/>
<text text-anchor="start" x="108" y="-46" font-family="Times New Roman,serif" font-size="10.00">name :String</text>
<text text-anchor="start" x="108" y="-32" font-family="Times New Roman,serif" font-size="10.00">matrNo :int</text>
<polygon fill="none" stroke="black" points="103,-4 103,-24 164,-24 164,-4 103,-4"/>
<text text-anchor="start" x="132" y="-12" font-family="Times New Roman,serif" font-size="10.00"> </text>
</g>
</g>
</svg>
