<?xml version="1.0" encoding="UTF-8" standalone="no"?>
<!DOCTYPE svg PUBLIC "-//W3C//DTD SVG 1.1//EN"
 "http://www.w3.org/Graphics/SVG/1.1/DTD/svg11.dtd">
<!-- Generated by graphviz version 2.28.0 (20110507.0327)
 -->
<!-- Title: SwimLaneDiagram Pages: 1 -->
<svg width="238pt" height="182pt"
 viewBox="0.00 0.00 238.00 182.00" xmlns="http://www.w3.org/2000/svg" xmlns:xlink="http://www.w3.org/1999/xlink">
<g id="graph1" class="graph" transform="scale(1 1) rotate(0) translate(4 178)">
<title>SwimLaneDiagram</title>
<polygon fill="white" stroke="white" points="-4,5 -4,-178 235,-178 235,5 -4,5"/>
<g id="graph2" class="cluster"><title>clustertobi</title>
<polygon fill="lightgrey" stroke="lightgrey" points="8,-91 8,-166 222,-166 222,-91 8,-91"/>
<text text-anchor="middle" x="115" y="-150.8" font-family="Times New Roman,serif" font-size="14.00">tobi</text>
</g>
<g id="graph3" class="cluster"><title>clusteralbert</title>
<polygon fill="lightgrey" stroke="lightgrey" points="8,-8 8,-83 150,-83 150,-8 8,-8"/>
<text text-anchor="middle" x="79" y="-67.8" font-family="Times New Roman,serif" font-size="14.00">albert</text>
</g>
<!-- A -->
<g id="node2" class="node"><title>A</title>
<ellipse fill="none" stroke="black" cx="187" cy="-117" rx="27" ry="18"/>
<text text-anchor="middle" x="187" y="-113.3" font-family="Times New Roman,serif" font-size="14.00">A</text>
</g>
<!-- B -->
<g id="node3" class="node"><title>B</title>
<ellipse fill="none" stroke="black" cx="115" cy="-117" rx="27" ry="18"/>
<text text-anchor="middle" x="115" y="-113.3" font-family="Times New Roman,serif" font-size="14.00">B</text>
</g>
<!-- D -->
<g id="node6" class="node"><title>D</title>
<ellipse fill="none" stroke="black" cx="115" cy="-34" rx="27" ry="18"/>
<text text-anchor="middle" x="115" y="-30.3" font-family="Times New Roman,serif" font-size="14.00">D</text>
</g>
<!-- B&#45;&gt;D -->
<g id="edge4" class="edge"><title>B&#45;&gt;D</title>
<path fill="none" stroke="black" d="M115,-98.822C115,-88.1903 115,-74.306 115,-62.2035"/>
<polygon fill="black" stroke="black" points="118.5,-62.1532 115,-52.1533 111.5,-62.1533 118.5,-62.1532"/>
</g>
<!-- C -->
<g id="node4" class="node"><title>C</title>
<ellipse fill="none" stroke="black" cx="43" cy="-117" rx="27" ry="18"/>
<text text-anchor="middle" x="43" y="-113.3" font-family="Times New Roman,serif" font-size="14.00">C</text>
</g>
<!-- E -->
<g id="node7" class="node"><title>E</title>
<ellipse fill="none" stroke="black" cx="43" cy="-34" rx="27" ry="18"/>
<text text-anchor="middle" x="43" y="-30.3" font-family="Times New Roman,serif" font-size="14.00">E</text>
</g>
</g>
</svg>
