<?xml version="1.0" encoding="UTF-8" standalone="no"?>
<!DOCTYPE svg PUBLIC "-//W3C//DTD SVG 1.1//EN"
 "http://www.w3.org/Graphics/SVG/1.1/DTD/svg11.dtd">
<!-- Generated by graphviz version 2.28.0 (20110507.0327)
 -->
<!-- Title: ClassDiagram Pages: 1 -->
<svg width="530pt" height="246pt"
 viewBox="0.00 0.00 530.00 246.00" xmlns="http://www.w3.org/2000/svg" xmlns:xlink="http://www.w3.org/1999/xlink">
<g id="graph1" class="graph" transform="scale(1 1) rotate(0) translate(4 242)">
<title>ClassDiagram</title>
<polygon fill="white" stroke="white" points="-4,5 -4,-242 527,-242 527,5 -4,5"/>
<!-- _TaskFlow -->
<g id="node1" class="node"><title>_TaskFlow</title>
<polygon fill="none" stroke="black" points="42,-195 42,-212 97,-212 97,-195 42,-195"/>
<text text-anchor="start" x="49.5" y="-201.5" font-family="Times New Roman,serif" font-size="10.00">TaskFlow</text>
<polygon fill="none" stroke="black" points="42,-175 42,-195 97,-195 97,-175 42,-175"/>
<text text-anchor="start" x="47" y="-183" font-family="Times New Roman,serif" font-size="10.00">taskNo :int</text>
<polygon fill="none" stroke="black" points="42,-155 42,-175 97,-175 97,-155 42,-155"/>
<text text-anchor="start" x="68" y="-163" font-family="Times New Roman,serif" font-size="10.00"> </text>
</g>
<!-- _FetchFileFlow -->
<g id="node4" class="node"><title>_FetchFileFlow</title>
<polygon fill="none" stroke="black" points="8,-72 8,-89 130,-89 130,-72 8,-72"/>
<text text-anchor="start" x="40.5" y="-78.5" font-family="Times New Roman,serif" font-size="10.00">FetchFileFlow</text>
<polygon fill="none" stroke="black" points="8,-24 8,-72 130,-72 130,-24 8,-24"/>
<text text-anchor="start" x="13" y="-60" font-family="Times New Roman,serif" font-size="10.00">fileServer :PeerProxy</text>
<text text-anchor="start" x="13" y="-46" font-family="Times New Roman,serif" font-size="10.00">idMap :SDMLibJsonIdMap</text>
<text text-anchor="start" x="13" y="-32" font-family="Times New Roman,serif" font-size="10.00">fileName :String</text>
<polygon fill="none" stroke="black" points="8,-4 8,-24 130,-24 130,-4 8,-4"/>
<text text-anchor="start" x="13" y="-12" font-family="Times New Roman,serif" font-size="10.00">run()</text>
</g>
<!-- _TaskFlow&#45;&gt;_FetchFileFlow -->
<g id="edge2" class="edge"><title>_TaskFlow&#45;&gt;_FetchFileFlow</title>
<path fill="none" stroke="black" d="M69,-141.244C69,-126.113 69,-108.953 69,-93.5144"/>
<polygon fill="none" stroke="black" points="65.5001,-141.348 69,-151.348 72.5001,-141.349 65.5001,-141.348"/>
</g>
<!-- _PeerProxy -->
<g id="node2" class="node"><title>_PeerProxy</title>
<polygon fill="none" stroke="black" points="131,-209 131,-226 253,-226 253,-209 131,-209"/>
<text text-anchor="start" x="172" y="-215.5" font-family="Times New Roman,serif" font-size="10.00">PeerProxy</text>
<polygon fill="none" stroke="black" points="131,-161 131,-209 253,-209 253,-161 131,-161"/>
<text text-anchor="start" x="136" y="-197" font-family="Times New Roman,serif" font-size="10.00">ip :String</text>
<text text-anchor="start" x="136" y="-183" font-family="Times New Roman,serif" font-size="10.00">port :int</text>
<text text-anchor="start" x="136" y="-169" font-family="Times New Roman,serif" font-size="10.00">idMap :SDMLibJsonIdMap</text>
<polygon fill="none" stroke="black" points="131,-141 131,-161 253,-161 253,-141 131,-141"/>
<text text-anchor="start" x="190.5" y="-149" font-family="Times New Roman,serif" font-size="10.00"> </text>
</g>
<!-- _SocketThread -->
<g id="node3" class="node"><title>_SocketThread</title>
<polygon fill="none" stroke="black" points="288,-216 288,-233 413,-233 413,-216 288,-216"/>
<text text-anchor="start" x="322.5" y="-222.5" font-family="Times New Roman,serif" font-size="10.00">SocketThread</text>
<polygon fill="none" stroke="black" points="288,-154 288,-216 413,-216 413,-154 288,-154"/>
<text text-anchor="start" x="293" y="-204" font-family="Times New Roman,serif" font-size="10.00">ip :String</text>
<text text-anchor="start" x="293" y="-190" font-family="Times New Roman,serif" font-size="10.00">port :int</text>
<text text-anchor="start" x="293" y="-176" font-family="Times New Roman,serif" font-size="10.00">idMap :SDMLibJsonIdMap</text>
<text text-anchor="start" x="293" y="-162" font-family="Times New Roman,serif" font-size="10.00">defaultTargetThread :Object</text>
<polygon fill="none" stroke="black" points="288,-134 288,-154 413,-154 413,-134 288,-134"/>
<text text-anchor="start" x="349" y="-142" font-family="Times New Roman,serif" font-size="10.00"> </text>
</g>
<!-- _Timer -->
<g id="node5" class="node"><title>_Timer</title>
<polygon fill="none" stroke="black" points="451,-195 451,-212 481,-212 481,-195 451,-195"/>
<text text-anchor="start" x="454.5" y="-201.5" font-family="Times New Roman,serif" font-size="10.00">Timer</text>
<polygon fill="none" stroke="black" points="451,-175 451,-195 481,-195 481,-175 451,-175"/>
<text text-anchor="start" x="464.5" y="-183" font-family="Times New Roman,serif" font-size="10.00"> </text>
<polygon fill="none" stroke="black" points="451,-155 451,-175 481,-175 481,-155 451,-155"/>
<text text-anchor="start" x="464.5" y="-163" font-family="Times New Roman,serif" font-size="10.00"> </text>
</g>
<!-- _SDMTimer -->
<g id="node6" class="node"><title>_SDMTimer</title>
<polygon fill="none" stroke="black" points="418,-58 418,-75 514,-75 514,-58 418,-58"/>
<text text-anchor="start" x="444" y="-64.5" font-family="Times New Roman,serif" font-size="10.00">SDMTimer</text>
<polygon fill="none" stroke="black" points="418,-38 418,-58 514,-58 514,-38 418,-38"/>
<text text-anchor="start" x="464.5" y="-46" font-family="Times New Roman,serif" font-size="10.00"> </text>
<polygon fill="none" stroke="black" points="418,-18 418,-38 514,-38 514,-18 418,-18"/>
<text text-anchor="start" x="423" y="-26" font-family="Times New Roman,serif" font-size="10.00">schedule(TimerTask)</text>
</g>
<!-- _Timer&#45;&gt;_SDMTimer -->
<g id="edge4" class="edge"><title>_Timer&#45;&gt;_SDMTimer</title>
<path fill="none" stroke="black" d="M466,-141.09C466,-121.358 466,-98.2019 466,-79.921"/>
<polygon fill="none" stroke="black" points="462.5,-141.348 466,-151.348 469.5,-141.349 462.5,-141.348"/>
</g>
</g>
</svg>
