<?xml version="1.0" encoding="UTF-8" standalone="no"?>
<!DOCTYPE svg PUBLIC "-//W3C//DTD SVG 1.1//EN"
 "http://www.w3.org/Graphics/SVG/1.1/DTD/svg11.dtd">
<!-- Generated by graphviz version 2.28.0 (20110507.0327)
 -->
<!-- Title: ClassDiagram Pages: 1 -->
<svg width="651pt" height="362pt"
 viewBox="0.00 0.00 651.00 362.00" xmlns="http://www.w3.org/2000/svg" xmlns:xlink="http://www.w3.org/1999/xlink">
<g id="graph1" class="graph" transform="scale(1 1) rotate(0) translate(4 358)">
<title>ClassDiagram</title>
<polygon fill="white" stroke="white" points="-4,5 -4,-358 648,-358 648,5 -4,5"/>
<!-- _TaskFlow -->
<g id="node1" class="node"><title>_TaskFlow</title>
<a xlink:href="../swtsrc/org/sdmlib/model/taskflows/TaskFlow.java" xlink:title="&lt;TABLE&gt;">
<polygon fill="none" stroke="black" points="78,-318 78,-335 200,-335 200,-318 78,-318"/>
<text text-anchor="start" x="119" y="-324.5" font-family="Times New Roman,serif" font-size="10.00">TaskFlow</text>
</a>
<polygon fill="none" stroke="black" points="78,-284 78,-318 200,-318 200,-284 78,-284"/>
<text text-anchor="start" x="83" y="-306" font-family="Times New Roman,serif" font-size="10.00">taskNo :int</text>
<text text-anchor="start" x="83" y="-292" font-family="Times New Roman,serif" font-size="10.00">idMap :SDMLibJsonIdMap</text>
<polygon fill="none" stroke="black" points="78,-264 78,-284 200,-284 200,-264 78,-264"/>
<text text-anchor="start" x="137.5" y="-272" font-family="Times New Roman,serif" font-size="10.00"> </text>
</g>
<!-- _TaskFlow&#45;&gt;_TaskFlow -->
<g id="edge8" class="edge"><title>_TaskFlow&#45;&gt;_TaskFlow</title>
<path fill="none" stroke="black" d="M208.275,-323.253C218.831,-319.704 226,-311.953 226,-300 226,-288.047 218.831,-280.296 208.275,-276.747"/>
<text text-anchor="middle" x="218.253" y="-273.594" font-family="Times New Roman,serif" font-size="10.00">subFlow</text>
<text text-anchor="middle" x="215.19" y="-313.529" font-family="Times New Roman,serif" font-size="10.00">parent</text>
</g>
<!-- _FetchFileFlow -->
<g id="node4" class="node"><title>_FetchFileFlow</title>
<a xlink:href="../swtsrc/org/sdmlib/model/taskflows/FetchFileFlow.java" xlink:title="&lt;TABLE&gt;">
<polygon fill="none" stroke="black" points="8,-188 8,-205 130,-205 130,-188 8,-188"/>
<text text-anchor="start" x="40.5" y="-194.5" font-family="Times New Roman,serif" font-size="10.00">FetchFileFlow</text>
</a>
<polygon fill="none" stroke="black" points="8,-140 8,-188 130,-188 130,-140 8,-140"/>
<text text-anchor="start" x="13" y="-176" font-family="Times New Roman,serif" font-size="10.00">fileServer :PeerProxy</text>
<text text-anchor="start" x="13" y="-162" font-family="Times New Roman,serif" font-size="10.00">idMap :SDMLibJsonIdMap</text>
<text text-anchor="start" x="13" y="-148" font-family="Times New Roman,serif" font-size="10.00">fileName :String</text>
<polygon fill="none" stroke="black" points="8,-120 8,-140 130,-140 130,-120 8,-120"/>
<text text-anchor="start" x="13" y="-128" font-family="Times New Roman,serif" font-size="10.00">run()</text>
</g>
<!-- _TaskFlow&#45;&gt;_FetchFileFlow -->
<g id="edge2" class="edge"><title>_TaskFlow&#45;&gt;_FetchFileFlow</title>
<path fill="none" stroke="black" d="M114.225,-251.22C107.254,-237.776 99.6901,-223.188 92.7789,-209.859"/>
<polygon fill="none" stroke="black" points="111.23,-253.048 118.941,-260.314 117.445,-249.826 111.23,-253.048"/>
</g>
<!-- _Logger -->
<g id="node5" class="node"><title>_Logger</title>
<a xlink:href="../swtsrc/org/sdmlib/model/taskflows/Logger.java" xlink:title="&lt;TABLE&gt;">
<polygon fill="none" stroke="black" points="165,-174 165,-191 256,-191 256,-174 165,-174"/>
<text text-anchor="start" x="196" y="-180.5" font-family="Times New Roman,serif" font-size="10.00">Logger</text>
</a>
<polygon fill="none" stroke="black" points="165,-154 165,-174 256,-174 256,-154 165,-154"/>
<text text-anchor="start" x="170" y="-162" font-family="Times New Roman,serif" font-size="10.00">startPeer :PeerProxy</text>
<polygon fill="none" stroke="black" points="165,-134 165,-154 256,-154 256,-134 165,-134"/>
<text text-anchor="start" x="209" y="-142" font-family="Times New Roman,serif" font-size="10.00"> </text>
</g>
<!-- _TaskFlow&#45;&gt;_Logger -->
<g id="edge4" class="edge"><title>_TaskFlow&#45;&gt;_Logger</title>
<path fill="none" stroke="black" d="M164.128,-251.221C173.783,-232.863 184.561,-212.37 193.242,-195.864"/>
<polygon fill="none" stroke="black" points="160.903,-249.835 159.346,-260.314 167.098,-253.093 160.903,-249.835"/>
</g>
<!-- _PeerProxy -->
<g id="node2" class="node"><title>_PeerProxy</title>
<a xlink:href="../swtsrc/org/sdmlib/model/taskflows/PeerProxy.java" xlink:title="&lt;TABLE&gt;">
<polygon fill="none" stroke="black" points="252,-325 252,-342 374,-342 374,-325 252,-325"/>
<text text-anchor="start" x="293" y="-331.5" font-family="Times New Roman,serif" font-size="10.00">PeerProxy</text>
</a>
<polygon fill="none" stroke="black" points="252,-277 252,-325 374,-325 374,-277 252,-277"/>
<text text-anchor="start" x="257" y="-313" font-family="Times New Roman,serif" font-size="10.00">ip :String</text>
<text text-anchor="start" x="257" y="-299" font-family="Times New Roman,serif" font-size="10.00">port :int</text>
<text text-anchor="start" x="257" y="-285" font-family="Times New Roman,serif" font-size="10.00">idMap :SDMLibJsonIdMap</text>
<polygon fill="none" stroke="black" points="252,-257 252,-277 374,-277 374,-257 252,-257"/>
<text text-anchor="start" x="311.5" y="-265" font-family="Times New Roman,serif" font-size="10.00"> </text>
</g>
<!-- _SocketThread -->
<g id="node3" class="node"><title>_SocketThread</title>
<a xlink:href="../swtsrc/org/sdmlib/model/taskflows/SocketThread.java" xlink:title="&lt;TABLE&gt;">
<polygon fill="none" stroke="black" points="409,-332 409,-349 534,-349 534,-332 409,-332"/>
<text text-anchor="start" x="443.5" y="-338.5" font-family="Times New Roman,serif" font-size="10.00">SocketThread</text>
</a>
<polygon fill="none" stroke="black" points="409,-270 409,-332 534,-332 534,-270 409,-270"/>
<text text-anchor="start" x="414" y="-320" font-family="Times New Roman,serif" font-size="10.00">ip :String</text>
<text text-anchor="start" x="414" y="-306" font-family="Times New Roman,serif" font-size="10.00">port :int</text>
<text text-anchor="start" x="414" y="-292" font-family="Times New Roman,serif" font-size="10.00">idMap :SDMLibJsonIdMap</text>
<text text-anchor="start" x="414" y="-278" font-family="Times New Roman,serif" font-size="10.00">defaultTargetThread :Object</text>
<polygon fill="none" stroke="black" points="409,-250 409,-270 534,-270 534,-250 409,-250"/>
<text text-anchor="start" x="470" y="-258" font-family="Times New Roman,serif" font-size="10.00"> </text>
</g>
<!-- _LogEntry -->
<g id="node6" class="node"><title>_LogEntry</title>
<a xlink:href="../swtsrc/org/sdmlib/model/taskflows/LogEntry.java" xlink:title="&lt;TABLE&gt;">
<polygon fill="none" stroke="black" points="169,-58 169,-75 252,-75 252,-58 169,-58"/>
<text text-anchor="start" x="191.5" y="-64.5" font-family="Times New Roman,serif" font-size="10.00">LogEntry</text>
</a>
<polygon fill="none" stroke="black" points="169,-24 169,-58 252,-58 252,-24 169,-24"/>
<text text-anchor="start" x="174" y="-46" font-family="Times New Roman,serif" font-size="10.00">nodeName :String</text>
<text text-anchor="start" x="174" y="-32" font-family="Times New Roman,serif" font-size="10.00">taskName :String</text>
<polygon fill="none" stroke="black" points="169,-4 169,-24 252,-24 252,-4 169,-4"/>
<text text-anchor="start" x="209" y="-12" font-family="Times New Roman,serif" font-size="10.00"> </text>
</g>
<!-- _Logger&#45;&gt;_LogEntry -->
<g id="edge10" class="edge"><title>_Logger&#45;&gt;_LogEntry</title>
<path fill="none" stroke="black" d="M210,-130.209C210,-114.804 210,-96.1673 210,-79.9199"/>
<text text-anchor="middle" x="214.226" y="-86.483" font-family="Times New Roman,serif" font-size="10.00">entries</text>
<text text-anchor="middle" x="205.774" y="-118.646" font-family="Times New Roman,serif" font-size="10.00">logger</text>
</g>
<!-- _LogEntry&#45;&gt;_LogEntry -->
<g id="edge12" class="edge"><title>_LogEntry&#45;&gt;_LogEntry</title>
<path fill="none" stroke="black" d="M259.377,-62.0708C269.628,-59.7476 277,-52.3906 277,-40 277,-27.6094 269.628,-20.2524 259.377,-17.9292"/>
<text text-anchor="middle" x="269.25" y="-13.8409" font-family="Times New Roman,serif" font-size="10.00">children</text>
<text text-anchor="middle" x="266.94" y="-53.0285" font-family="Times New Roman,serif" font-size="10.00">parent</text>
</g>
<!-- _Timer -->
<g id="node7" class="node"><title>_Timer</title>
<a xlink:href="../swtsrc/java/util/Timer.java" xlink:title="&lt;TABLE&gt;">
<polygon fill="none" stroke="black" points="572,-311 572,-328 602,-328 602,-311 572,-311"/>
<text text-anchor="start" x="575.5" y="-317.5" font-family="Times New Roman,serif" font-size="10.00">Timer</text>
</a>
<polygon fill="none" stroke="black" points="572,-291 572,-311 602,-311 602,-291 572,-291"/>
<text text-anchor="start" x="585.5" y="-299" font-family="Times New Roman,serif" font-size="10.00"> </text>
<polygon fill="none" stroke="black" points="572,-271 572,-291 602,-291 602,-271 572,-271"/>
<text text-anchor="start" x="585.5" y="-279" font-family="Times New Roman,serif" font-size="10.00"> </text>
</g>
<!-- _SDMTimer -->
<g id="node8" class="node"><title>_SDMTimer</title>
<a xlink:href="../swtsrc/org/sdmlib/model/taskflows/SDMTimer.java" xlink:title="&lt;TABLE&gt;">
<polygon fill="none" stroke="black" points="539,-174 539,-191 635,-191 635,-174 539,-174"/>
<text text-anchor="start" x="565" y="-180.5" font-family="Times New Roman,serif" font-size="10.00">SDMTimer</text>
</a>
<polygon fill="none" stroke="black" points="539,-154 539,-174 635,-174 635,-154 539,-154"/>
<text text-anchor="start" x="585.5" y="-162" font-family="Times New Roman,serif" font-size="10.00"> </text>
<polygon fill="none" stroke="black" points="539,-134 539,-154 635,-154 635,-134 539,-134"/>
<text text-anchor="start" x="544" y="-142" font-family="Times New Roman,serif" font-size="10.00">schedule(TimerTask)</text>
</g>
<!-- _Timer&#45;&gt;_SDMTimer -->
<g id="edge6" class="edge"><title>_Timer&#45;&gt;_SDMTimer</title>
<path fill="none" stroke="black" d="M587,-257.09C587,-237.358 587,-214.202 587,-195.921"/>
<polygon fill="none" stroke="black" points="583.5,-257.348 587,-267.348 590.5,-257.349 583.5,-257.348"/>
</g>
</g>
</svg>
