<?xml version="1.0" encoding="UTF-8" standalone="no"?>
<!DOCTYPE svg PUBLIC "-//W3C//DTD SVG 1.1//EN"
 "http://www.w3.org/Graphics/SVG/1.1/DTD/svg11.dtd">
<!-- Generated by graphviz version 2.28.0 (20110507.0327)
 -->
<!-- Title: ClassDiagram Pages: 1 -->
<svg width="446pt" height="450pt"
 viewBox="0.00 0.00 446.00 450.00" xmlns="http://www.w3.org/2000/svg" xmlns:xlink="http://www.w3.org/1999/xlink">
<g id="graph1" class="graph" transform="scale(1 1) rotate(0) translate(4 446)">
<title>ClassDiagram</title>
<polygon fill="white" stroke="white" points="-4,5 -4,-446 443,-446 443,5 -4,5"/>
<!-- _TaskFlow -->
<g id="node1" class="node"><title>_TaskFlow</title>
<a xlink:href="../src/TaskFlow.java" xlink:title="&lt;TABLE&gt;">
<polygon fill="none" stroke="black" points="119,-420 119,-437 241,-437 241,-420 119,-420"/>
<text text-anchor="start" x="160" y="-426.5" font-family="Times New Roman,serif" font-size="10.00">TaskFlow</text>
</a>
<polygon fill="none" stroke="black" points="119,-386 119,-420 241,-420 241,-386 119,-386"/>
<text text-anchor="start" x="124" y="-408" font-family="Times New Roman,serif" font-size="10.00">taskNo :int</text>
<text text-anchor="start" x="124" y="-394" font-family="Times New Roman,serif" font-size="10.00">idMap :SDMLibJsonIdMap</text>
<polygon fill="none" stroke="black" points="119,-366 119,-386 241,-386 241,-366 119,-366"/>
<text text-anchor="start" x="178.5" y="-374" font-family="Times New Roman,serif" font-size="10.00"> </text>
</g>
<!-- _TaskFlow&#45;&gt;_TaskFlow -->
<g id="edge8" class="edge"><title>_TaskFlow&#45;&gt;_TaskFlow</title>
<path fill="none" stroke="black" d="M249.275,-421.833C259.831,-418.806 267,-412.195 267,-402 267,-391.805 259.831,-385.194 249.275,-382.167"/>
<text text-anchor="middle" x="259.207" y="-378.509" font-family="Times New Roman,serif" font-size="10.00">subFlow</text>
<text text-anchor="middle" x="256.546" y="-412.468" font-family="Times New Roman,serif" font-size="10.00">parent</text>
</g>
<!-- _FetchFileFlow -->
<g id="node4" class="node"><title>_FetchFileFlow</title>
<a xlink:href="../src/FetchFileFlow.java" xlink:title="&lt;TABLE&gt;">
<polygon fill="none" stroke="black" points="8,-304 8,-321 101,-321 101,-304 8,-304"/>
<text text-anchor="start" x="26" y="-310.5" font-family="Times New Roman,serif" font-size="10.00">FetchFileFlow</text>
</a>
<polygon fill="none" stroke="black" points="8,-270 8,-304 101,-304 101,-270 8,-270"/>
<text text-anchor="start" x="13" y="-292" font-family="Times New Roman,serif" font-size="10.00">fileServer :PeerProxy</text>
<text text-anchor="start" x="13" y="-278" font-family="Times New Roman,serif" font-size="10.00">fileName :String</text>
<polygon fill="none" stroke="black" points="8,-250 8,-270 101,-270 101,-250 8,-250"/>
<text text-anchor="start" x="13" y="-258" font-family="Times New Roman,serif" font-size="10.00">run()</text>
</g>
<!-- _TaskFlow&#45;&gt;_FetchFileFlow -->
<g id="edge2" class="edge"><title>_TaskFlow&#45;&gt;_FetchFileFlow</title>
<path fill="none" stroke="black" d="M129.831,-355.609C118.83,-345.656 107.285,-335.21 96.6139,-325.555"/>
<polygon fill="none" stroke="black" points="127.579,-358.291 137.342,-362.405 132.275,-353.1 127.579,-358.291"/>
</g>
<!-- _Logger -->
<g id="node5" class="node"><title>_Logger</title>
<a xlink:href="../src/Logger.java" xlink:title="&lt;TABLE&gt;">
<polygon fill="none" stroke="black" points="135,-297 135,-314 226,-314 226,-297 135,-297"/>
<text text-anchor="start" x="166" y="-303.5" font-family="Times New Roman,serif" font-size="10.00">Logger</text>
</a>
<polygon fill="none" stroke="black" points="135,-277 135,-297 226,-297 226,-277 135,-277"/>
<text text-anchor="start" x="140" y="-285" font-family="Times New Roman,serif" font-size="10.00">startPeer :PeerProxy</text>
<polygon fill="none" stroke="black" points="135,-257 135,-277 226,-277 226,-257 135,-257"/>
<text text-anchor="start" x="179" y="-265" font-family="Times New Roman,serif" font-size="10.00"> </text>
</g>
<!-- _TaskFlow&#45;&gt;_Logger -->
<g id="edge4" class="edge"><title>_TaskFlow&#45;&gt;_Logger</title>
<path fill="none" stroke="black" d="M180,-352.184C180,-340.862 180,-329.101 180,-318.736"/>
<polygon fill="none" stroke="black" points="176.5,-352.405 180,-362.405 183.5,-352.405 176.5,-352.405"/>
</g>
<!-- _SDMLibJsonIdMap -->
<g id="node9" class="node"><title>_SDMLibJsonIdMap</title>
<a xlink:href="../src/org/sdmlib/serialization/SDMLibJsonIdMap.java" xlink:title="&lt;TABLE&gt;">
<polygon fill="none" stroke="black" points="226,-44 226,-61 313,-61 313,-44 226,-44"/>
<text text-anchor="start" x="229.5" y="-50.5" font-family="Times New Roman,serif" font-size="10.00">SDMLibJsonIdMap</text>
</a>
<polygon fill="none" stroke="black" points="226,-24 226,-44 313,-44 313,-24 226,-24"/>
<text text-anchor="start" x="268" y="-32" font-family="Times New Roman,serif" font-size="10.00"> </text>
<polygon fill="none" stroke="black" points="226,-4 226,-24 313,-24 313,-4 226,-4"/>
<text text-anchor="start" x="268" y="-12" font-family="Times New Roman,serif" font-size="10.00"> </text>
</g>
<!-- _TaskFlow&#45;&gt;_SDMLibJsonIdMap -->
<g id="edge14" class="edge"><title>_TaskFlow&#45;&gt;_SDMLibJsonIdMap</title>
<path fill="none" stroke="black" d="M219.344,-362.296C228.251,-351.401 236.65,-338.961 242,-326 276.473,-242.492 276.127,-134.45 272.67,-76.0125"/>
<polygon fill="black" stroke="black" points="271.996,-65.6954 277.138,-75.3807 272.322,-70.6847 272.648,-75.6741 272.648,-75.6741 272.648,-75.6741 272.322,-70.6847 268.158,-75.9675 271.996,-65.6954 271.996,-65.6954"/>
<text text-anchor="middle" x="276.804" y="-71.9636" font-family="Times New Roman,serif" font-size="10.00">idMap</text>
</g>
<!-- _PeerProxy -->
<g id="node2" class="node"><title>_PeerProxy</title>
<a xlink:href="../src/org/sdmlib/model/taskflows/PeerProxy.java" xlink:title="&lt;TABLE&gt;">
<polygon fill="none" stroke="black" points="51,-167 51,-184 98,-184 98,-167 51,-167"/>
<text text-anchor="start" x="54.5" y="-173.5" font-family="Times New Roman,serif" font-size="10.00">PeerProxy</text>
</a>
<polygon fill="none" stroke="black" points="51,-147 51,-167 98,-167 98,-147 51,-147"/>
<text text-anchor="start" x="73" y="-155" font-family="Times New Roman,serif" font-size="10.00"> </text>
<polygon fill="none" stroke="black" points="51,-127 51,-147 98,-147 98,-127 51,-127"/>
<text text-anchor="start" x="73" y="-135" font-family="Times New Roman,serif" font-size="10.00"> </text>
</g>
<!-- _PeerProxy&#45;&gt;_SDMLibJsonIdMap -->
<g id="edge16" class="edge"><title>_PeerProxy&#45;&gt;_SDMLibJsonIdMap</title>
<path fill="none" stroke="black" d="M93.8282,-123.23C99.6498,-115.59 106.494,-107.933 114,-102 141.771,-80.0498 177.727,-63.7004 208.016,-52.5411"/>
<polygon fill="black" stroke="black" points="217.634,-49.0998 209.734,-56.7058 212.926,-50.7844 208.218,-52.4689 208.218,-52.4689 208.218,-52.4689 212.926,-50.7844 206.702,-48.232 217.634,-49.0998 217.634,-49.0998"/>
<text text-anchor="middle" x="210.524" y="-53.6323" font-family="Times New Roman,serif" font-size="10.00">idMap</text>
</g>
<!-- _SocketThread -->
<g id="node3" class="node"><title>_SocketThread</title>
<a xlink:href="../src/SocketThread.java" xlink:title="&lt;TABLE&gt;">
<polygon fill="none" stroke="black" points="306,-188 306,-205 431,-205 431,-188 306,-188"/>
<text text-anchor="start" x="340.5" y="-194.5" font-family="Times New Roman,serif" font-size="10.00">SocketThread</text>
</a>
<polygon fill="none" stroke="black" points="306,-126 306,-188 431,-188 431,-126 306,-126"/>
<text text-anchor="start" x="311" y="-176" font-family="Times New Roman,serif" font-size="10.00">ip :String</text>
<text text-anchor="start" x="311" y="-162" font-family="Times New Roman,serif" font-size="10.00">port :int</text>
<text text-anchor="start" x="311" y="-148" font-family="Times New Roman,serif" font-size="10.00">idMap :SDMLibJsonIdMap</text>
<text text-anchor="start" x="311" y="-134" font-family="Times New Roman,serif" font-size="10.00">defaultTargetThread :Object</text>
<polygon fill="none" stroke="black" points="306,-106 306,-126 431,-126 431,-106 306,-106"/>
<text text-anchor="start" x="367" y="-114" font-family="Times New Roman,serif" font-size="10.00"> </text>
</g>
<!-- _SocketThread&#45;&gt;_SDMLibJsonIdMap -->
<g id="edge18" class="edge"><title>_SocketThread&#45;&gt;_SDMLibJsonIdMap</title>
<path fill="none" stroke="black" d="M324.865,-102.28C316.966,-92.6253 308.847,-82.7022 301.331,-73.5159"/>
<polygon fill="black" stroke="black" points="294.902,-65.658 304.717,-70.548 298.068,-69.5278 301.234,-73.3976 301.234,-73.3976 301.234,-73.3976 298.068,-69.5278 297.752,-76.2471 294.902,-65.658 294.902,-65.658"/>
<text text-anchor="middle" x="303.912" y="-67.4962" font-family="Times New Roman,serif" font-size="10.00">idMap</text>
</g>
<!-- _Object -->
<g id="node20" class="node"><title>_Object</title>
<text text-anchor="middle" x="368" y="-30.5" font-family="Times New Roman,serif" font-size="10.00">_Object</text>
</g>
<!-- _SocketThread&#45;&gt;_Object -->
<g id="edge20" class="edge"><title>_SocketThread&#45;&gt;_Object</title>
<path fill="none" stroke="black" d="M368,-102.28C368,-88.237 368,-73.6257 368,-61.5401"/>
<polygon fill="black" stroke="black" points="368,-51.2399 372.5,-61.2399 368,-56.2399 368,-61.2399 368,-61.2399 368,-61.2399 368,-56.2399 363.5,-61.24 368,-51.2399 368,-51.2399"/>
<text text-anchor="middle" x="372.226" y="-57.803" font-family="Times New Roman,serif" font-size="10.00">defaultTargetThread</text>
</g>
<!-- _FetchFileFlow&#45;&gt;_PeerProxy -->
<g id="edge22" class="edge"><title>_FetchFileFlow&#45;&gt;_PeerProxy</title>
<path fill="none" stroke="black" d="M60.0549,-246.248C62.3903,-231.302 65.0675,-214.168 67.4478,-198.934"/>
<polygon fill="black" stroke="black" points="69.0403,-188.742 71.9425,-199.317 68.2684,-193.682 67.4965,-198.622 67.4965,-198.622 67.4965,-198.622 68.2684,-193.682 63.0504,-197.927 69.0403,-188.742 69.0403,-188.742"/>
<text text-anchor="middle" x="71.8167" y="-195.849" font-family="Times New Roman,serif" font-size="10.00">fileServer</text>
</g>
<!-- _Logger&#45;&gt;_PeerProxy -->
<g id="edge24" class="edge"><title>_Logger&#45;&gt;_PeerProxy</title>
<path fill="none" stroke="black" d="M151.198,-253.339C139.434,-240.134 125.838,-224.517 114,-210 110.54,-205.756 106.986,-201.263 103.493,-196.758"/>
<polygon fill="black" stroke="black" points="97.3052,-188.69 106.962,-193.886 100.348,-192.657 103.391,-196.625 103.391,-196.625 103.391,-196.625 100.348,-192.657 99.8202,-199.363 97.3052,-188.69 97.3052,-188.69"/>
<text text-anchor="middle" x="106.174" y="-190.809" font-family="Times New Roman,serif" font-size="10.00">startPeer</text>
</g>
<!-- _LogEntry -->
<g id="node6" class="node"><title>_LogEntry</title>
<a xlink:href="../src/LogEntry.java" xlink:title="&lt;TABLE&gt;">
<polygon fill="none" stroke="black" points="132,-174 132,-191 215,-191 215,-174 132,-174"/>
<text text-anchor="start" x="154.5" y="-180.5" font-family="Times New Roman,serif" font-size="10.00">LogEntry</text>
</a>
<polygon fill="none" stroke="black" points="132,-140 132,-174 215,-174 215,-140 132,-140"/>
<text text-anchor="start" x="137" y="-162" font-family="Times New Roman,serif" font-size="10.00">nodeName :String</text>
<text text-anchor="start" x="137" y="-148" font-family="Times New Roman,serif" font-size="10.00">taskName :String</text>
<polygon fill="none" stroke="black" points="132,-120 132,-140 215,-140 215,-120 132,-120"/>
<text text-anchor="start" x="172" y="-128" font-family="Times New Roman,serif" font-size="10.00"> </text>
</g>
<!-- _Logger&#45;&gt;_LogEntry -->
<g id="edge10" class="edge"><title>_Logger&#45;&gt;_LogEntry</title>
<path fill="none" stroke="black" d="M178.27,-253.36C177.314,-235.888 176.12,-214.05 175.11,-195.583"/>
<text text-anchor="middle" x="179.825" y="-201.902" font-family="Times New Roman,serif" font-size="10.00">entries *</text>
<text text-anchor="middle" x="173.555" y="-242.041" font-family="Times New Roman,serif" font-size="10.00">logger</text>
</g>
<!-- _LogEntry&#45;&gt;_LogEntry -->
<g id="edge12" class="edge"><title>_LogEntry&#45;&gt;_LogEntry</title>
<path fill="none" stroke="black" d="M222.377,-178.071C232.628,-175.748 240,-168.391 240,-156 240,-143.609 232.628,-136.252 222.377,-133.929"/>
<text text-anchor="middle" x="232.25" y="-129.841" font-family="Times New Roman,serif" font-size="10.00">children *</text>
<text text-anchor="middle" x="229.94" y="-169.029" font-family="Times New Roman,serif" font-size="10.00">parent</text>
</g>
<!-- _Timer -->
<g id="node7" class="node"><title>_Timer</title>
<a xlink:href="../src/java/util/Timer.java" xlink:title="&lt;TABLE&gt;">
<polygon fill="none" stroke="black" points="316,-413 316,-430 346,-430 346,-413 316,-413"/>
<text text-anchor="start" x="319.5" y="-419.5" font-family="Times New Roman,serif" font-size="10.00">Timer</text>
</a>
<polygon fill="none" stroke="black" points="316,-393 316,-413 346,-413 346,-393 316,-393"/>
<text text-anchor="start" x="329.5" y="-401" font-family="Times New Roman,serif" font-size="10.00"> </text>
<polygon fill="none" stroke="black" points="316,-373 316,-393 346,-393 346,-373 316,-373"/>
<text text-anchor="start" x="329.5" y="-381" font-family="Times New Roman,serif" font-size="10.00"> </text>
</g>
<!-- _SDMTimer -->
<g id="node8" class="node"><title>_SDMTimer</title>
<a xlink:href="../src/SDMTimer.java" xlink:title="&lt;TABLE&gt;">
<polygon fill="none" stroke="black" points="306,-297 306,-314 357,-314 357,-297 306,-297"/>
<text text-anchor="start" x="309.5" y="-303.5" font-family="Times New Roman,serif" font-size="10.00">SDMTimer</text>
</a>
<polygon fill="none" stroke="black" points="306,-277 306,-297 357,-297 357,-277 306,-277"/>
<text text-anchor="start" x="330" y="-285" font-family="Times New Roman,serif" font-size="10.00"> </text>
<polygon fill="none" stroke="black" points="306,-257 306,-277 357,-277 357,-257 306,-257"/>
<text text-anchor="start" x="330" y="-265" font-family="Times New Roman,serif" font-size="10.00"> </text>
</g>
<!-- _Timer&#45;&gt;_SDMTimer -->
<g id="edge6" class="edge"><title>_Timer&#45;&gt;_SDMTimer</title>
<path fill="none" stroke="black" d="M331,-358.866C331,-345.538 331,-331.043 331,-318.585"/>
<polygon fill="none" stroke="black" points="327.5,-359.245 331,-369.245 334.5,-359.245 327.5,-359.245"/>
</g>
</g>
</svg>
