<?xml version="1.0" encoding="UTF-8" standalone="no"?>
<!DOCTYPE svg PUBLIC "-//W3C//DTD SVG 1.1//EN"
 "http://www.w3.org/Graphics/SVG/1.1/DTD/svg11.dtd">
<!-- Generated by graphviz version 2.28.0 (20110507.0327)
 -->
<!-- Title: ClassDiagram Pages: 1 -->
<svg width="677pt" height="362pt"
 viewBox="0.00 0.00 677.00 362.00" xmlns="http://www.w3.org/2000/svg" xmlns:xlink="http://www.w3.org/1999/xlink">
<g id="graph1" class="graph" transform="scale(1 1) rotate(0) translate(4 358)">
<title>ClassDiagram</title>
<polygon fill="white" stroke="white" points="-4,5 -4,-358 674,-358 674,5 -4,5"/>
<!-- _TaskFlow -->
<g id="node1" class="node"><title>_TaskFlow</title>
<a xlink:href="../swtsrc/org/sdmlib/model/taskflows/TaskFlow.java" xlink:title="&lt;TABLE&gt;">
<polygon fill="none" stroke="black" points="122,-318 122,-335 244,-335 244,-318 122,-318"/>
<text text-anchor="start" x="163" y="-324.5" font-family="Times New Roman,serif" font-size="10.00">TaskFlow</text>
</a>
<polygon fill="none" stroke="black" points="122,-284 122,-318 244,-318 244,-284 122,-284"/>
<text text-anchor="start" x="127" y="-306" font-family="Times New Roman,serif" font-size="10.00">taskNo :int</text>
<text text-anchor="start" x="127" y="-292" font-family="Times New Roman,serif" font-size="10.00">idMap :SDMLibJsonIdMap</text>
<polygon fill="none" stroke="black" points="122,-264 122,-284 244,-284 244,-264 122,-264"/>
<text text-anchor="start" x="181.5" y="-272" font-family="Times New Roman,serif" font-size="10.00"> </text>
</g>
<!-- _FetchFileFlow -->
<g id="node4" class="node"><title>_FetchFileFlow</title>
<a xlink:href="../swtsrc/org/sdmlib/model/taskflows/FetchFileFlow.java" xlink:title="&lt;TABLE&gt;">
<polygon fill="none" stroke="black" points="8,-188 8,-205 130,-205 130,-188 8,-188"/>
<text text-anchor="start" x="40.5" y="-194.5" font-family="Times New Roman,serif" font-size="10.00">FetchFileFlow</text>
</a>
<polygon fill="none" stroke="black" points="8,-140 8,-188 130,-188 130,-140 8,-140"/>
<text text-anchor="start" x="13" y="-176" font-family="Times New Roman,serif" font-size="10.00">fileServer :PeerProxy</text>
<text text-anchor="start" x="13" y="-162" font-family="Times New Roman,serif" font-size="10.00">idMap :SDMLibJsonIdMap</text>
<text text-anchor="start" x="13" y="-148" font-family="Times New Roman,serif" font-size="10.00">fileName :String</text>
<polygon fill="none" stroke="black" points="8,-120 8,-140 130,-140 130,-120 8,-120"/>
<text text-anchor="start" x="13" y="-128" font-family="Times New Roman,serif" font-size="10.00">run()</text>
</g>
<!-- _TaskFlow&#45;&gt;_FetchFileFlow -->
<g id="edge2" class="edge"><title>_TaskFlow&#45;&gt;_FetchFileFlow</title>
<path fill="none" stroke="black" d="M143.632,-252.38C132.011,-238.618 119.306,-223.573 107.726,-209.859"/>
<polygon fill="none" stroke="black" points="141.206,-254.932 150.332,-260.314 146.554,-250.416 141.206,-254.932"/>
</g>
<!-- _Logger -->
<g id="node5" class="node"><title>_Logger</title>
<a xlink:href="../swtsrc/org/sdmlib/model/taskflows/Logger.java" xlink:title="&lt;TABLE&gt;">
<polygon fill="none" stroke="black" points="165,-174 165,-191 201,-191 201,-174 165,-174"/>
<text text-anchor="start" x="168.5" y="-180.5" font-family="Times New Roman,serif" font-size="10.00">Logger</text>
</a>
<polygon fill="none" stroke="black" points="165,-154 165,-174 201,-174 201,-154 165,-154"/>
<text text-anchor="start" x="181.5" y="-162" font-family="Times New Roman,serif" font-size="10.00"> </text>
<polygon fill="none" stroke="black" points="165,-134 165,-154 201,-154 201,-134 165,-134"/>
<text text-anchor="start" x="181.5" y="-142" font-family="Times New Roman,serif" font-size="10.00"> </text>
</g>
<!-- _TaskFlow&#45;&gt;_Logger -->
<g id="edge4" class="edge"><title>_TaskFlow&#45;&gt;_Logger</title>
<path fill="none" stroke="black" d="M176.486,-250.213C176.018,-232.115 176.246,-212.068 177.167,-195.864"/>
<polygon fill="none" stroke="black" points="172.992,-250.439 176.829,-260.314 179.988,-250.201 172.992,-250.439"/>
</g>
<!-- _PeerProxy -->
<g id="node2" class="node"><title>_PeerProxy</title>
<a xlink:href="../swtsrc/org/sdmlib/model/taskflows/PeerProxy.java" xlink:title="&lt;TABLE&gt;">
<polygon fill="none" stroke="black" points="278,-325 278,-342 400,-342 400,-325 278,-325"/>
<text text-anchor="start" x="319" y="-331.5" font-family="Times New Roman,serif" font-size="10.00">PeerProxy</text>
</a>
<polygon fill="none" stroke="black" points="278,-277 278,-325 400,-325 400,-277 278,-277"/>
<text text-anchor="start" x="283" y="-313" font-family="Times New Roman,serif" font-size="10.00">ip :String</text>
<text text-anchor="start" x="283" y="-299" font-family="Times New Roman,serif" font-size="10.00">port :int</text>
<text text-anchor="start" x="283" y="-285" font-family="Times New Roman,serif" font-size="10.00">idMap :SDMLibJsonIdMap</text>
<polygon fill="none" stroke="black" points="278,-257 278,-277 400,-277 400,-257 278,-257"/>
<text text-anchor="start" x="337.5" y="-265" font-family="Times New Roman,serif" font-size="10.00"> </text>
</g>
<!-- _SocketThread -->
<g id="node3" class="node"><title>_SocketThread</title>
<a xlink:href="../swtsrc/org/sdmlib/model/taskflows/SocketThread.java" xlink:title="&lt;TABLE&gt;">
<polygon fill="none" stroke="black" points="435,-332 435,-349 560,-349 560,-332 435,-332"/>
<text text-anchor="start" x="469.5" y="-338.5" font-family="Times New Roman,serif" font-size="10.00">SocketThread</text>
</a>
<polygon fill="none" stroke="black" points="435,-270 435,-332 560,-332 560,-270 435,-270"/>
<text text-anchor="start" x="440" y="-320" font-family="Times New Roman,serif" font-size="10.00">ip :String</text>
<text text-anchor="start" x="440" y="-306" font-family="Times New Roman,serif" font-size="10.00">port :int</text>
<text text-anchor="start" x="440" y="-292" font-family="Times New Roman,serif" font-size="10.00">idMap :SDMLibJsonIdMap</text>
<text text-anchor="start" x="440" y="-278" font-family="Times New Roman,serif" font-size="10.00">defaultTargetThread :Object</text>
<polygon fill="none" stroke="black" points="435,-250 435,-270 560,-270 560,-250 435,-250"/>
<text text-anchor="start" x="496" y="-258" font-family="Times New Roman,serif" font-size="10.00"> </text>
</g>
<!-- _Logger&#45;&gt;_TaskFlow -->
<g id="edge8" class="edge"><title>_Logger&#45;&gt;_TaskFlow</title>
<path fill="none" stroke="black" d="M188.833,-195.864C189.93,-215.159 190.043,-239.901 189.171,-260.314"/>
<text text-anchor="middle" x="185.284" y="-248.601" font-family="Times New Roman,serif" font-size="10.00">targetTaskFlow</text>
<text text-anchor="middle" x="193.51" y="-202.202" font-family="Times New Roman,serif" font-size="10.00">logger</text>
</g>
<!-- _LogEntry -->
<g id="node6" class="node"><title>_LogEntry</title>
<a xlink:href="../swtsrc/org/sdmlib/model/taskflows/LogEntry.java" xlink:title="&lt;TABLE&gt;">
<polygon fill="none" stroke="black" points="142,-58 142,-75 225,-75 225,-58 142,-58"/>
<text text-anchor="start" x="164.5" y="-64.5" font-family="Times New Roman,serif" font-size="10.00">LogEntry</text>
</a>
<polygon fill="none" stroke="black" points="142,-24 142,-58 225,-58 225,-24 142,-24"/>
<text text-anchor="start" x="147" y="-46" font-family="Times New Roman,serif" font-size="10.00">nodeName :String</text>
<text text-anchor="start" x="147" y="-32" font-family="Times New Roman,serif" font-size="10.00">taskName :String</text>
<polygon fill="none" stroke="black" points="142,-4 142,-24 225,-24 225,-4 142,-4"/>
<text text-anchor="start" x="182" y="-12" font-family="Times New Roman,serif" font-size="10.00"> </text>
</g>
<!-- _Logger&#45;&gt;_LogEntry -->
<g id="edge10" class="edge"><title>_Logger&#45;&gt;_LogEntry</title>
<path fill="none" stroke="black" d="M183,-130.209C183,-114.804 183,-96.1673 183,-79.9199"/>
<text text-anchor="middle" x="187.226" y="-86.483" font-family="Times New Roman,serif" font-size="10.00">entries</text>
<text text-anchor="middle" x="178.774" y="-118.646" font-family="Times New Roman,serif" font-size="10.00">logger</text>
</g>
<!-- _Timer -->
<g id="node7" class="node"><title>_Timer</title>
<a xlink:href="../swtsrc/java/util/Timer.java" xlink:title="&lt;TABLE&gt;">
<polygon fill="none" stroke="black" points="598,-311 598,-328 628,-328 628,-311 598,-311"/>
<text text-anchor="start" x="601.5" y="-317.5" font-family="Times New Roman,serif" font-size="10.00">Timer</text>
</a>
<polygon fill="none" stroke="black" points="598,-291 598,-311 628,-311 628,-291 598,-291"/>
<text text-anchor="start" x="611.5" y="-299" font-family="Times New Roman,serif" font-size="10.00"> </text>
<polygon fill="none" stroke="black" points="598,-271 598,-291 628,-291 628,-271 598,-271"/>
<text text-anchor="start" x="611.5" y="-279" font-family="Times New Roman,serif" font-size="10.00"> </text>
</g>
<!-- _SDMTimer -->
<g id="node8" class="node"><title>_SDMTimer</title>
<a xlink:href="../swtsrc/org/sdmlib/model/taskflows/SDMTimer.java" xlink:title="&lt;TABLE&gt;">
<polygon fill="none" stroke="black" points="565,-174 565,-191 661,-191 661,-174 565,-174"/>
<text text-anchor="start" x="591" y="-180.5" font-family="Times New Roman,serif" font-size="10.00">SDMTimer</text>
</a>
<polygon fill="none" stroke="black" points="565,-154 565,-174 661,-174 661,-154 565,-154"/>
<text text-anchor="start" x="611.5" y="-162" font-family="Times New Roman,serif" font-size="10.00"> </text>
<polygon fill="none" stroke="black" points="565,-134 565,-154 661,-154 661,-134 565,-134"/>
<text text-anchor="start" x="570" y="-142" font-family="Times New Roman,serif" font-size="10.00">schedule(TimerTask)</text>
</g>
<!-- _Timer&#45;&gt;_SDMTimer -->
<g id="edge6" class="edge"><title>_Timer&#45;&gt;_SDMTimer</title>
<path fill="none" stroke="black" d="M613,-257.09C613,-237.358 613,-214.202 613,-195.921"/>
<polygon fill="none" stroke="black" points="609.5,-257.348 613,-267.348 616.5,-257.349 609.5,-257.348"/>
</g>
</g>
</svg>
