<?xml version="1.0" encoding="UTF-8" standalone="no"?>
<!DOCTYPE svg PUBLIC "-//W3C//DTD SVG 1.1//EN"
 "http://www.w3.org/Graphics/SVG/1.1/DTD/svg11.dtd">
<!-- Generated by graphviz version 2.28.0 (20110507.0327)
 -->
<!-- Title: ObjectDiagram Pages: 1 -->
<svg width="629pt" height="536pt"
 viewBox="0.00 0.00 629.10 536.00" xmlns="http://www.w3.org/2000/svg" xmlns:xlink="http://www.w3.org/1999/xlink">
<g id="graph1" class="graph" transform="scale(1 1) rotate(0) translate(4 532)">
<title>ObjectDiagram</title>
<polygon fill="white" stroke="white" points="-4,5 -4,-532 626.104,-532 626.104,5 -4,5"/>
<!-- g1 -->
<g id="node1" class="node"><title>g1</title>
<polygon fill="none" stroke="black" points="219,-501 219,-518 268,-518 268,-501 219,-501"/>
<text text-anchor="start" x="222.5" y="-507.5" font-family="Times New Roman,serif" font-size="10.00"> </text>
<text text-anchor="start" x="225.5" y="-507.5" font-family="Times New Roman,serif" font-size="10.00">g1 :Graph</text>
</g>
<!-- n2 -->
<g id="node2" class="node"><title>n2</title>
<polygon fill="none" stroke="black" points="134,-434 134,-451 188,-451 188,-434 134,-434"/>
<text text-anchor="start" x="141" y="-440.5" font-family="Times New Roman,serif" font-size="10.00"> </text>
<text text-anchor="start" x="144" y="-440.5" font-family="Times New Roman,serif" font-size="10.00">n2 :Node</text>
<polygon fill="none" stroke="black" points="134,-414 134,-434 188,-434 188,-414 134,-414"/>
<text text-anchor="start" x="139.5" y="-422" font-family="Times New Roman,serif" font-size="10.00">text = &quot;n1&quot;</text>
</g>
<!-- g1&#45;&#45;n2 -->
<g id="edge10" class="edge"><title>g1&#45;&#45;n2</title>
<path fill="none" stroke="black" d="M224.393,-491.981C212.58,-481.177 197.189,-467.1 184.531,-455.522"/>
<text text-anchor="middle" x="194.07" y="-456.02" font-family="Times New Roman,serif" font-size="10.00">nodes</text>
<text text-anchor="middle" x="214.853" y="-486.483" font-family="Times New Roman,serif" font-size="10.00">graph</text>
</g>
<!-- n3 -->
<g id="node3" class="node"><title>n3</title>
<polygon fill="none" stroke="black" points="172,-352 172,-369 226,-369 226,-352 172,-352"/>
<text text-anchor="start" x="179" y="-358.5" font-family="Times New Roman,serif" font-size="10.00"> </text>
<text text-anchor="start" x="182" y="-358.5" font-family="Times New Roman,serif" font-size="10.00">n3 :Node</text>
<polygon fill="none" stroke="black" points="172,-332 172,-352 226,-352 226,-332 172,-332"/>
<text text-anchor="start" x="177.5" y="-340" font-family="Times New Roman,serif" font-size="10.00">text = &quot;n2&quot;</text>
</g>
<!-- g1&#45;&#45;n3 -->
<g id="edge12" class="edge"><title>g1&#45;&#45;n3</title>
<path fill="none" stroke="black" d="M238.207,-491.899C230.145,-463.13 213.884,-405.107 205.048,-373.579"/>
<text text-anchor="middle" x="211.563" y="-378.666" font-family="Times New Roman,serif" font-size="10.00">nodes</text>
<text text-anchor="middle" x="231.692" y="-481.813" font-family="Times New Roman,serif" font-size="10.00">graph</text>
</g>
<!-- n4 -->
<g id="node4" class="node"><title>n4</title>
<polygon fill="none" stroke="black" points="109,-270 109,-287 163,-287 163,-270 109,-270"/>
<text text-anchor="start" x="116" y="-276.5" font-family="Times New Roman,serif" font-size="10.00"> </text>
<text text-anchor="start" x="119" y="-276.5" font-family="Times New Roman,serif" font-size="10.00">n4 :Node</text>
<polygon fill="none" stroke="black" points="109,-250 109,-270 163,-270 163,-250 109,-250"/>
<text text-anchor="start" x="114.5" y="-258" font-family="Times New Roman,serif" font-size="10.00">text = &quot;n3&quot;</text>
</g>
<!-- g1&#45;&#45;n4 -->
<g id="edge14" class="edge"><title>g1&#45;&#45;n4</title>
<path fill="none" stroke="black" d="M210.579,-505.327C180.607,-500.02 137.681,-487.135 117,-456 83.2356,-405.168 109.309,-328.684 125.544,-291.639"/>
<text text-anchor="middle" x="125.959" y="-299.13" font-family="Times New Roman,serif" font-size="10.00">nodes</text>
<text text-anchor="middle" x="200.872" y="-505.232" font-family="Times New Roman,serif" font-size="10.00">graph</text>
</g>
<!-- n5 -->
<g id="node5" class="node"><title>n5</title>
<polygon fill="none" stroke="black" points="164,-188 164,-205 218,-205 218,-188 164,-188"/>
<text text-anchor="start" x="171" y="-194.5" font-family="Times New Roman,serif" font-size="10.00"> </text>
<text text-anchor="start" x="174" y="-194.5" font-family="Times New Roman,serif" font-size="10.00">n5 :Node</text>
<polygon fill="none" stroke="black" points="164,-168 164,-188 218,-188 218,-168 164,-168"/>
<text text-anchor="start" x="169.5" y="-176" font-family="Times New Roman,serif" font-size="10.00">text = &quot;n4&quot;</text>
</g>
<!-- g1&#45;&#45;n5 -->
<g id="edge16" class="edge"><title>g1&#45;&#45;n5</title>
<path fill="none" stroke="black" d="M245.001,-491.853C248.336,-459.503 253.672,-387.382 243,-328 235.158,-284.362 214.591,-236.556 201.798,-209.621"/>
<text text-anchor="middle" x="209.459" y="-213.547" font-family="Times New Roman,serif" font-size="10.00">nodes</text>
<text text-anchor="middle" x="241.661" y="-479.927" font-family="Times New Roman,serif" font-size="10.00">graph</text>
</g>
<!-- n6 -->
<g id="node6" class="node"><title>n6</title>
<polygon fill="none" stroke="black" points="101,-106 101,-123 155,-123 155,-106 101,-106"/>
<text text-anchor="start" x="108" y="-112.5" font-family="Times New Roman,serif" font-size="10.00"> </text>
<text text-anchor="start" x="111" y="-112.5" font-family="Times New Roman,serif" font-size="10.00">n6 :Node</text>
<polygon fill="none" stroke="black" points="101,-86 101,-106 155,-106 155,-86 101,-86"/>
<text text-anchor="start" x="106.5" y="-94" font-family="Times New Roman,serif" font-size="10.00">text = &quot;n5&quot;</text>
</g>
<!-- g1&#45;&#45;n6 -->
<g id="edge18" class="edge"><title>g1&#45;&#45;n6</title>
<path fill="none" stroke="black" d="M210.552,-505.295C177.767,-499.901 127.695,-486.893 97,-456 62.4206,-421.198 60,-401.06 60,-352 60,-352 60,-352 60,-268 60,-214.164 92.3235,-157.557 112.399,-127.59"/>
<text text-anchor="middle" x="111.002" y="-134.992" font-family="Times New Roman,serif" font-size="10.00">nodes</text>
<text text-anchor="middle" x="200.884" y="-505.349" font-family="Times New Roman,serif" font-size="10.00">graph</text>
</g>
<!-- e7 -->
<g id="node7" class="node"><title>e7</title>
<polygon fill="none" stroke="black" points="8,-24 8,-41 66,-41 66,-24 8,-24"/>
<text text-anchor="start" x="18.5" y="-30.5" font-family="Times New Roman,serif" font-size="10.00"> </text>
<text text-anchor="start" x="21.5" y="-30.5" font-family="Times New Roman,serif" font-size="10.00">e7 :Edge</text>
<polygon fill="none" stroke="black" points="8,-4 8,-24 66,-24 66,-4 8,-4"/>
<text text-anchor="start" x="13.5" y="-12" font-family="Times New Roman,serif" font-size="10.00">text = &quot;e18&quot;</text>
</g>
<!-- g1&#45;&#45;e7 -->
<g id="edge2" class="edge"><title>g1&#45;&#45;e7</title>
<path fill="none" stroke="black" d="M210.707,-507.948C170.893,-504.961 103.428,-494.151 62,-456 25.5706,-422.452 22,-401.523 22,-352 22,-352 22,-352 22,-186 22,-135.582 29.2927,-76.7125 33.7082,-45.6895"/>
<text text-anchor="middle" x="36.65" y="-52.747" font-family="Times New Roman,serif" font-size="10.00">edges</text>
<text text-anchor="middle" x="201.3" y="-508.841" font-family="Times New Roman,serif" font-size="10.00">graph</text>
</g>
<!-- e8 -->
<g id="node8" class="node"><title>e8</title>
<polygon fill="none" stroke="black" points="107,-24 107,-41 165,-41 165,-24 107,-24"/>
<text text-anchor="start" x="117.5" y="-30.5" font-family="Times New Roman,serif" font-size="10.00"> </text>
<text text-anchor="start" x="120.5" y="-30.5" font-family="Times New Roman,serif" font-size="10.00">e8 :Edge</text>
<polygon fill="none" stroke="black" points="107,-4 107,-24 165,-24 165,-4 107,-4"/>
<text text-anchor="start" x="112.5" y="-12" font-family="Times New Roman,serif" font-size="10.00">text = &quot;e19&quot;</text>
</g>
<!-- g1&#45;&#45;e8 -->
<g id="edge4" class="edge"><title>g1&#45;&#45;e8</title>
<path fill="none" stroke="black" d="M253.721,-491.849C270.233,-463.747 300,-405.646 300,-352 300,-352 300,-352 300,-186 300,-115.163 221.601,-64.8372 173.214,-40.5228"/>
<text text-anchor="middle" x="183.202" y="-38.5104" font-family="Times New Roman,serif" font-size="10.00">edges</text>
<text text-anchor="middle" x="254.545" y="-479.383" font-family="Times New Roman,serif" font-size="10.00">graph</text>
</g>
<!-- n9 -->
<g id="node9" class="node"><title>n9</title>
<polygon fill="none" stroke="black" points="336,-434 336,-451 390,-451 390,-434 336,-434"/>
<text text-anchor="start" x="343" y="-440.5" font-family="Times New Roman,serif" font-size="10.00"> </text>
<text text-anchor="start" x="346" y="-440.5" font-family="Times New Roman,serif" font-size="10.00">n9 :Node</text>
<polygon fill="none" stroke="black" points="336,-414 336,-434 390,-434 390,-414 336,-414"/>
<text text-anchor="start" x="341.5" y="-422" font-family="Times New Roman,serif" font-size="10.00">text = &quot;n6&quot;</text>
</g>
<!-- g1&#45;&#45;n9 -->
<g id="edge20" class="edge"><title>g1&#45;&#45;n9</title>
<path fill="none" stroke="black" d="M270.23,-491.981C287.517,-481.177 310.041,-467.1 328.565,-455.522"/>
<text text-anchor="middle" x="323.119" y="-461.409" font-family="Times New Roman,serif" font-size="10.00">nodes</text>
<text text-anchor="middle" x="275.675" y="-481.094" font-family="Times New Roman,serif" font-size="10.00">graph</text>
</g>
<!-- n10 -->
<g id="node10" class="node"><title>n10</title>
<polygon fill="none" stroke="black" points="424,-434 424,-451 478,-451 478,-434 424,-434"/>
<text text-anchor="start" x="429" y="-440.5" font-family="Times New Roman,serif" font-size="10.00"> </text>
<text text-anchor="start" x="432" y="-440.5" font-family="Times New Roman,serif" font-size="10.00">n10 :Node</text>
<polygon fill="none" stroke="black" points="424,-414 424,-434 478,-434 478,-414 424,-414"/>
<text text-anchor="start" x="429.5" y="-422" font-family="Times New Roman,serif" font-size="10.00">text = &quot;n7&quot;</text>
</g>
<!-- g1&#45;&#45;n10 -->
<g id="edge6" class="edge"><title>g1&#45;&#45;n10</title>
<path fill="none" stroke="black" d="M275.258,-500.142C308.707,-490.595 362.27,-474.288 407,-456 409.846,-454.836 412.762,-453.565 415.671,-452.239"/>
<text text-anchor="middle" x="409.164" y="-457.332" font-family="Times New Roman,serif" font-size="10.00">nodes</text>
<text text-anchor="middle" x="282.794" y="-491.068" font-family="Times New Roman,serif" font-size="10.00">graph</text>
</g>
<!-- n11 -->
<g id="node11" class="node"><title>n11</title>
<polygon fill="none" stroke="black" points="512,-434 512,-451 566,-451 566,-434 512,-434"/>
<text text-anchor="start" x="517" y="-440.5" font-family="Times New Roman,serif" font-size="10.00"> </text>
<text text-anchor="start" x="520" y="-440.5" font-family="Times New Roman,serif" font-size="10.00">n11 :Node</text>
<polygon fill="none" stroke="black" points="512,-414 512,-434 566,-434 566,-414 512,-414"/>
<text text-anchor="start" x="517.5" y="-422" font-family="Times New Roman,serif" font-size="10.00">text = &quot;n8&quot;</text>
</g>
<!-- g1&#45;&#45;n11 -->
<g id="edge8" class="edge"><title>g1&#45;&#45;n11</title>
<path fill="none" stroke="black" d="M275.54,-504.878C324.256,-498.104 418.591,-482.64 495,-456 497.903,-454.988 500.86,-453.825 503.798,-452.575"/>
<text text-anchor="middle" x="497.093" y="-457.494" font-family="Times New Roman,serif" font-size="10.00">nodes</text>
<text text-anchor="middle" x="283.907" y="-496.902" font-family="Times New Roman,serif" font-size="10.00">graph</text>
</g>
<!-- n2&#45;&#45;n3 -->
<g id="edge24" class="edge"><title>n2&#45;&#45;n3</title>
<path fill="none" stroke="black" d="M171.384,-410.14C176.789,-398.759 183.376,-384.893 188.76,-373.557"/>
<text text-anchor="middle" x="188.689" y="-381.057" font-family="Times New Roman,serif" font-size="10.00">linksTo</text>
<text text-anchor="middle" x="171.455" y="-397.64" font-family="Times New Roman,serif" font-size="10.00">linksFrom</text>
</g>
<!-- n2&#45;&#45;n4 -->
<g id="edge26" class="edge"><title>n2&#45;&#45;n4</title>
<path fill="none" stroke="black" d="M157.68,-410.488C152.899,-379.503 144.123,-322.636 139.334,-291.601"/>
<text text-anchor="middle" x="144.893" y="-297.414" font-family="Times New Roman,serif" font-size="10.00">linksFrom</text>
<text text-anchor="middle" x="152.121" y="-399.675" font-family="Times New Roman,serif" font-size="10.00">linksTo</text>
</g>
<!-- n3&#45;&#45;n4 -->
<g id="edge28" class="edge"><title>n3&#45;&#45;n4</title>
<path fill="none" stroke="black" d="M181.785,-328.14C172.823,-316.759 161.903,-302.893 152.976,-291.557"/>
<text text-anchor="middle" x="161.904" y="-293.563" font-family="Times New Roman,serif" font-size="10.00">linksTo</text>
<text text-anchor="middle" x="172.858" y="-321.134" font-family="Times New Roman,serif" font-size="10.00">linksFrom</text>
</g>
<!-- n4&#45;&#45;n5 -->
<g id="edge30" class="edge"><title>n4&#45;&#45;n5</title>
<path fill="none" stroke="black" d="M151.029,-246.14C158.853,-234.759 168.386,-220.893 176.18,-209.557"/>
<text text-anchor="middle" x="174.528" y="-216.92" font-family="Times New Roman,serif" font-size="10.00">linksTo</text>
<text text-anchor="middle" x="152.681" y="-233.777" font-family="Times New Roman,serif" font-size="10.00">linksFrom</text>
</g>
<!-- n4&#45;&#45;n6 -->
<g id="edge32" class="edge"><title>n4&#45;&#45;n6</title>
<path fill="none" stroke="black" d="M134.938,-246.488C133.408,-215.503 130.599,-158.636 129.067,-127.601"/>
<text text-anchor="middle" x="133.735" y="-133.945" font-family="Times New Roman,serif" font-size="10.00">linksFrom</text>
<text text-anchor="middle" x="130.27" y="-235.144" font-family="Times New Roman,serif" font-size="10.00">linksTo</text>
</g>
<!-- n5&#45;&#45;n6 -->
<g id="edge34" class="edge"><title>n5&#45;&#45;n6</title>
<path fill="none" stroke="black" d="M173.785,-164.14C164.823,-152.759 153.903,-138.893 144.976,-127.557"/>
<text text-anchor="middle" x="153.904" y="-129.563" font-family="Times New Roman,serif" font-size="10.00">linksTo</text>
<text text-anchor="middle" x="164.858" y="-157.134" font-family="Times New Roman,serif" font-size="10.00">linksFrom</text>
</g>
<!-- n6&#45;&#45;e7 -->
<g id="edge36" class="edge"><title>n6&#45;&#45;e7</title>
<path fill="none" stroke="black" d="M103.134,-82.1396C90.1884,-70.759 74.4157,-56.8929 61.521,-45.5569"/>
<text text-anchor="middle" x="71.1181" y="-45.8668" font-family="Times New Roman,serif" font-size="10.00">outEdges</text>
<text text-anchor="middle" x="93.5367" y="-76.8297" font-family="Times New Roman,serif" font-size="10.00">src</text>
</g>
<!-- n6&#45;&#45;e8 -->
<g id="edge38" class="edge"><title>n6&#45;&#45;e8</title>
<path fill="none" stroke="black" d="M130.186,-82.1396C131.324,-70.759 132.711,-56.8929 133.844,-45.5569"/>
<text text-anchor="middle" x="137.148" y="-52.4956" font-family="Times New Roman,serif" font-size="10.00">inEdges</text>
<text text-anchor="middle" x="126.883" y="-70.201" font-family="Times New Roman,serif" font-size="10.00">tgt</text>
</g>
<!-- n11&#45;&#45;n11 -->
<g id="edge22" class="edge"><title>n11&#45;&#45;n11</title>
<path fill="none" stroke="black" d="M574.168,-447.194C584.236,-446.638 592,-441.906 592,-433 592,-424.094 584.236,-419.362 574.168,-418.806"/>
<text text-anchor="middle" x="583.604" y="-412.995" font-family="Times New Roman,serif" font-size="10.00">linksTo_linksFrom</text>
</g>
</g>
</svg>
