<?xml version="1.0" encoding="UTF-8" standalone="no"?>
<!DOCTYPE svg PUBLIC "-//W3C//DTD SVG 1.1//EN"
 "http://www.w3.org/Graphics/SVG/1.1/DTD/svg11.dtd">
<!-- Generated by graphviz version 2.28.0 (20110507.0327)
 -->
<!-- Title: ClassDiagram Pages: 1 -->
<svg width="149pt" height="278pt"
 viewBox="0.00 0.00 149.00 278.00" xmlns="http://www.w3.org/2000/svg" xmlns:xlink="http://www.w3.org/1999/xlink">
<g id="graph1" class="graph" transform="scale(1 1) rotate(0) translate(4 274)">
<title>ClassDiagram</title>
<polygon fill="white" stroke="white" points="-4,5 -4,-274 146,-274 146,5 -4,5"/>
<!-- _Train -->
<g id="node1" class="node"><title>_Train</title>
<a xlink:href="../examples/org/sdmlib/examples/patternrewriteops/Train.java" xlink:title="&lt;TABLE&gt;">
<polygon fill="none" stroke="black" points="40,-248 40,-265 69,-265 69,-248 40,-248"/>
<text text-anchor="start" x="43.5" y="-254.5" font-family="Arial" font-size="10.00">Train</text>
</a>
<polygon fill="none" stroke="black" points="40,-228 40,-248 69,-248 69,-228 40,-228"/>
<text text-anchor="start" x="52.5" y="-236" font-family="Arial" font-size="10.00"> </text>
<polygon fill="none" stroke="black" points="40,-208 40,-228 69,-228 69,-208 40,-208"/>
<text text-anchor="start" x="52.5" y="-216" font-family="Arial" font-size="10.00"> </text>
</g>
<!-- _Station -->
<g id="node2" class="node"><title>_Station</title>
<a xlink:href="../examples/org/sdmlib/examples/patternrewriteops/Station.java" xlink:title="&lt;TABLE&gt;">
<polygon fill="none" stroke="black" points="63,-146 63,-163 101,-163 101,-146 63,-146"/>
<text text-anchor="start" x="66.5" y="-152.5" font-family="Arial" font-size="10.00">Station</text>
</a>
<polygon fill="none" stroke="black" points="63,-126 63,-146 101,-146 101,-126 63,-126"/>
<text text-anchor="start" x="80" y="-134" font-family="Arial" font-size="10.00"> </text>
<polygon fill="none" stroke="black" points="63,-106 63,-126 101,-126 101,-106 63,-106"/>
<text text-anchor="start" x="80" y="-114" font-family="Arial" font-size="10.00"> </text>
</g>
<!-- _Train&#45;&gt;_Station -->
<g id="edge2" class="edge"><title>_Train&#45;&gt;_Station</title>
<path fill="none" stroke="black" d="M62.8594,-204.359C66.1278,-192.686 69.8303,-179.463 73.1022,-167.778"/>
<text text-anchor="middle" x="74.7281" y="-175.145" font-family="Arial" font-size="10.00">station</text>
<text text-anchor="middle" x="61.2334" y="-191.992" font-family="Arial" font-size="10.00">trains *</text>
</g>
<!-- _Person -->
<g id="node3" class="node"><title>_Person</title>
<a xlink:href="../examples/org/sdmlib/examples/patternrewriteops/Person.java" xlink:title="&lt;TABLE&gt;">
<polygon fill="none" stroke="black" points="8,-44 8,-61 46,-61 46,-44 8,-44"/>
<text text-anchor="start" x="11.5" y="-50.5" font-family="Arial" font-size="10.00">Person</text>
</a>
<polygon fill="none" stroke="black" points="8,-24 8,-44 46,-44 46,-24 8,-24"/>
<text text-anchor="start" x="25" y="-32" font-family="Arial" font-size="10.00"> </text>
<polygon fill="none" stroke="black" points="8,-4 8,-24 46,-24 46,-4 8,-4"/>
<text text-anchor="start" x="25" y="-12" font-family="Arial" font-size="10.00"> </text>
</g>
<!-- _Train&#45;&gt;_Person -->
<g id="edge8" class="edge"><title>_Train&#45;&gt;_Person</title>
<path fill="none" stroke="black" d="M49.7813,-204.438C44.7237,-166.599 36.2977,-103.561 31.2336,-65.6735"/>
<text text-anchor="middle" x="36.6232" y="-71.5968" font-family="Arial" font-size="10.00">passengers *</text>
<text text-anchor="middle" x="44.3916" y="-193.514" font-family="Arial" font-size="10.00">train</text>
</g>
<!-- _Station&#45;&gt;_Station -->
<g id="edge4" class="edge"><title>_Station&#45;&gt;_Station</title>
<path fill="none" stroke="black" d="M109.241,-154.106C119.024,-154.517 127,-148.148 127,-135 127,-121.852 119.024,-115.483 109.241,-115.894"/>
<text text-anchor="middle" x="118.418" y="-109.422" font-family="Arial" font-size="10.00">next</text>
<text text-anchor="middle" x="118.183" y="-147.129" font-family="Arial" font-size="10.00">prev</text>
</g>
<!-- _Station&#45;&gt;_Person -->
<g id="edge6" class="edge"><title>_Station&#45;&gt;_Person</title>
<path fill="none" stroke="black" d="M64.5977,-102.359C58.1775,-90.6864 50.9047,-77.4631 44.4779,-65.778"/>
<text text-anchor="middle" x="52.5486" y="-69.1826" font-family="Arial" font-size="10.00">people *</text>
<text text-anchor="middle" x="56.5269" y="-93.9548" font-family="Arial" font-size="10.00">station</text>
</g>
<!-- _SignalFlag -->
<g id="node4" class="node"><title>_SignalFlag</title>
<a xlink:href="../examples/org/sdmlib/examples/patternrewriteops/SignalFlag.java" xlink:title="&lt;TABLE&gt;">
<polygon fill="none" stroke="black" points="81,-44 81,-61 134,-61 134,-44 81,-44"/>
<text text-anchor="start" x="84.5" y="-50.5" font-family="Arial" font-size="10.00">SignalFlag</text>
</a>
<polygon fill="none" stroke="black" points="81,-24 81,-44 134,-44 134,-24 81,-24"/>
<text text-anchor="start" x="105.5" y="-32" font-family="Arial" font-size="10.00"> </text>
<polygon fill="none" stroke="black" points="81,-4 81,-24 134,-24 134,-4 81,-4"/>
<text text-anchor="start" x="105.5" y="-12" font-family="Arial" font-size="10.00"> </text>
</g>
<!-- _Station&#45;&gt;_SignalFlag -->
<g id="edge10" class="edge"><title>_Station&#45;&gt;_SignalFlag</title>
<path fill="none" stroke="black" d="M89.9102,-102.359C92.8284,-90.6864 96.1342,-77.4631 99.0555,-65.778"/>
<text text-anchor="middle" x="100.957" y="-73.0955" font-family="Arial" font-size="10.00">flag</text>
<text text-anchor="middle" x="88.0083" y="-90.0419" font-family="Arial" font-size="10.00">station *</text>
</g>
</g>
</svg>
