<?xml version="1.0" encoding="UTF-8" standalone="no"?>
<!DOCTYPE svg PUBLIC "-//W3C//DTD SVG 1.1//EN"
 "http://www.w3.org/Graphics/SVG/1.1/DTD/svg11.dtd">
<!-- Generated by graphviz version 2.28.0 (20110507.0327)
 -->
<!-- Title: ObjectDiagram Pages: 1 -->
<svg width="532pt" height="491pt"
 viewBox="0.00 0.00 532.00 491.00" xmlns="http://www.w3.org/2000/svg" xmlns:xlink="http://www.w3.org/1999/xlink">
<g id="graph1" class="graph" transform="scale(1 1) rotate(0) translate(4 487)">
<title>ObjectDiagram</title>
<polygon fill="white" stroke="white" points="-4,5 -4,-487 529,-487 529,5 -4,5"/>
<g id="graph2" class="cluster"><title>cluster_o7</title>
<polygon fill="none" stroke="grey" points="92,-305 92,-475 194,-475 194,-305 92,-305"/>
<text text-anchor="start" x="111.5" y="-455.8" font-family="Times New Roman,serif" font-size="14.00">optional o7</text>
</g>
<!-- t1 -->
<g id="node1" class="node"><title>t1</title>
<polygon fill="deepskyblue" stroke="deepskyblue" points="228,-312.5 228,-349.5 284,-349.5 284,-312.5 228,-312.5"/>
<polygon fill="none" stroke="black" points="228,-332 228,-349 284,-349 284,-332 228,-332"/>
<text text-anchor="start" x="231.5" y="-338.5" font-family="Arial" font-size="10.00"> </text>
<text text-anchor="start" x="235.5" y="-338.5" font-family="Arial" font-size="10.00"> t1 :TrainPO </text>
<polygon fill="none" stroke="black" points="228,-312 228,-332 284,-332 284,-312 228,-312"/>
<text text-anchor="start" x="252.5" y="-320" font-family="Arial" font-size="10.00"> &#160;</text>
</g>
<!-- s3 -->
<g id="node2" class="node"><title>s3</title>
<polygon fill="deepskyblue" stroke="deepskyblue" points="159.5,-230.5 159.5,-267.5 224.5,-267.5 224.5,-230.5 159.5,-230.5"/>
<polygon fill="none" stroke="black" points="160,-250 160,-267 225,-267 225,-250 160,-250"/>
<text text-anchor="start" x="163.5" y="-256.5" font-family="Arial" font-size="10.00"> </text>
<text text-anchor="start" x="167.5" y="-256.5" font-family="Arial" font-size="10.00"> s3 :StationPO </text>
<polygon fill="none" stroke="black" points="160,-230 160,-250 225,-250 225,-230 160,-230"/>
<text text-anchor="start" x="189" y="-238" font-family="Arial" font-size="10.00"> &#160;</text>
</g>
<!-- t1&#45;&#45;s3 -->
<g id="edge11" class="edge"><title>t1&#45;&#45;s3</title>
<path fill="none" stroke="black" d="M238.512,-308.14C229.407,-296.759 218.314,-282.893 209.246,-271.557"/>
<text text-anchor="middle" x="218.207" y="-273.494" font-family="Arial" font-size="10.00">station</text>
</g>
<!-- t2 -->
<g id="node8" class="node"><title>t2</title>
<a xlink:href="../../SDMLib/src/org/sdmlib/examples/patternrewriteops/model/Train.java" xlink:title="&lt;TABLE&gt;">
<polygon fill="none" stroke="black" points="265,-240 265,-257 312,-257 312,-240 265,-240"/>
<text text-anchor="start" x="268.5" y="-246.5" font-family="Arial" font-size="10.00"> </text>
<text text-anchor="start" x="272.5" y="-246.5" font-family="Arial" font-size="10.00">t2 :Train</text>
</a>
</g>
<!-- t1&#45;&#45;t2 -->
<g id="edge3" class="edge"><title>t1&#45;&#45;t2</title>
<path fill="none" stroke="black" stroke-dasharray="1,5" d="M264.744,-308.14C269.926,-295.186 276.395,-279.013 281.194,-267.015"/>
<text text-anchor="middle" x="281.752" y="-274.499" font-family="Arial" font-size="10.00">match</text>
</g>
<!-- s5 -->
<g id="node3" class="node"><title>s5</title>
<polygon fill="deepskyblue" stroke="deepskyblue" points="51.5,-148.5 51.5,-185.5 128.5,-185.5 128.5,-148.5 51.5,-148.5"/>
<polygon fill="none" stroke="black" points="52,-168 52,-185 129,-185 129,-168 52,-168"/>
<text text-anchor="start" x="55.5" y="-174.5" font-family="Arial" font-size="10.00"> </text>
<text text-anchor="start" x="59.5" y="-174.5" font-family="Arial" font-size="10.00"> s5 :SignalFlagPO </text>
<polygon fill="none" stroke="black" points="52,-148 52,-168 129,-168 129,-148 52,-148"/>
<text text-anchor="start" x="87" y="-156" font-family="Arial" font-size="10.00"> &#160;</text>
</g>
<!-- s3&#45;&#45;s5 -->
<g id="edge13" class="edge"><title>s3&#45;&#45;s5</title>
<path fill="none" stroke="black" d="M164.397,-226.351C149.883,-214.967 132.142,-201.052 117.625,-189.666"/>
<text text-anchor="middle" x="127.364" y="-189.434" font-family="Arial" font-size="10.00">flag</text>
</g>
<!-- p17 -->
<g id="node6" class="node"><title>p17</title>
<polygon fill="deepskyblue" stroke="deepskyblue" points="108,-394.5 108,-431.5 178,-431.5 178,-394.5 108,-394.5"/>
<polygon fill="none" stroke="black" points="108,-414 108,-431 178,-431 178,-414 108,-414"/>
<text text-anchor="start" x="111.5" y="-420.5" font-family="Arial" font-size="10.00"> </text>
<text text-anchor="start" x="115.5" y="-420.5" font-family="Arial" font-size="10.00"> p17 :PersonPO </text>
<polygon fill="none" stroke="black" points="108,-394 108,-414 178,-414 178,-394 108,-394"/>
<text text-anchor="start" x="139.5" y="-402" font-family="Arial" font-size="10.00"> &#160;</text>
</g>
<!-- s3&#45;&#45;p17 -->
<g id="edge15" class="edge"><title>s3&#45;&#45;p17</title>
<path fill="none" stroke="red" d="M189.945,-271.583C187.475,-292.952 182.43,-326.382 173,-354 168.714,-366.552 162.08,-379.746 156.138,-390.373"/>
<text text-anchor="middle" x="156.817" y="-377.896" font-family="Arial" font-size="10.00" fill="red">people</text>
</g>
<!-- s4 -->
<g id="node9" class="node"><title>s4</title>
<a xlink:href="../../SDMLib/src/org/sdmlib/examples/patternrewriteops/model/Station.java" xlink:title="&lt;TABLE&gt;">
<polygon fill="none" stroke="black" points="163,-158 163,-175 222,-175 222,-158 163,-158"/>
<text text-anchor="start" x="166.5" y="-164.5" font-family="Arial" font-size="10.00"> </text>
<text text-anchor="start" x="170.5" y="-164.5" font-family="Arial" font-size="10.00">s4 :Station</text>
</a>
</g>
<!-- s3&#45;&#45;s4 -->
<g id="edge5" class="edge"><title>s3&#45;&#45;s4</title>
<path fill="none" stroke="black" stroke-dasharray="1,5" d="M192,-226.14C192,-213.186 192,-197.013 192,-185.015"/>
<text text-anchor="middle" x="196.226" y="-191.578" font-family="Arial" font-size="10.00">match</text>
</g>
<!-- d6 -->
<g id="node4" class="node"><title>d6</title>
<text text-anchor="middle" x="90" y="-87.5" font-family="Arial" font-size="10.00" fill="red">destroy</text>
</g>
<!-- s5&#45;&#45;d6 -->
<g id="edge7" class="edge"><title>s5&#45;&#45;d6</title>
<path fill="none" stroke="red" stroke-dasharray="1,5" d="M90,-144.307C90,-132.886 90,-119.07 90,-108.366"/>
</g>
<!-- p17&#45;&#45;t1 -->
<g id="edge17" class="edge"><title>p17&#45;&#45;t1</title>
<path fill="none" stroke="green" d="M173.579,-390.351C189.659,-378.967 209.313,-365.052 225.396,-353.666"/>
<text text-anchor="middle" x="220.441" y="-359.853" font-family="Arial" font-size="10.00" fill="green">train</text>
</g>
<!-- allMatches_p17 -->
<g id="node7" class="node"><title>allMatches_p17</title>
<text text-anchor="middle" x="132" y="-328.5" font-family="Arial" font-size="10.00">allMatches</text>
</g>
<!-- p17&#45;&#45;allMatches_p17 -->
<g id="edge9" class="edge"><title>p17&#45;&#45;allMatches_p17</title>
<path fill="none" stroke="black" stroke-dasharray="1,5" d="M139.994,-390.14C138.213,-377.186 135.989,-361.013 134.34,-349.015"/>
</g>
<!-- t2&#45;&#45;s4 -->
<g id="edge25" class="edge"><title>t2&#45;&#45;s4</title>
<path fill="none" stroke="black" d="M267.169,-230.641C250.957,-217.131 228.578,-198.482 212.46,-185.05"/>
<text text-anchor="middle" x="222.128" y="-185.105" font-family="Arial" font-size="10.00">station</text>
<text text-anchor="middle" x="257.501" y="-225.586" font-family="Arial" font-size="10.00">trains</text>
</g>
<!-- p14 -->
<g id="node16" class="node"><title>p14</title>
<a xlink:href="../../SDMLib/src/org/sdmlib/examples/patternrewriteops/model/Person.java" xlink:title="&lt;TABLE&gt;">
<polygon fill="none" stroke="black" points="256,-158 256,-175 320,-175 320,-158 256,-158"/>
<text text-anchor="start" x="259.5" y="-164.5" font-family="Arial" font-size="10.00"> </text>
<text text-anchor="start" x="263.5" y="-164.5" font-family="Arial" font-size="10.00">p14 :Person</text>
</a>
</g>
<!-- t2&#45;&#45;p14 -->
<g id="edge19" class="edge"><title>t2&#45;&#45;p14</title>
<path fill="none" stroke="black" d="M288,-230.641C288,-217.131 288,-198.482 288,-185.05"/>
<text text-anchor="middle" x="292.226" y="-191.613" font-family="Arial" font-size="10.00">passengers</text>
<text text-anchor="middle" x="283.774" y="-219.078" font-family="Arial" font-size="10.00">train</text>
</g>
<!-- p15 -->
<g id="node17" class="node"><title>p15</title>
<a xlink:href="../../SDMLib/src/org/sdmlib/examples/patternrewriteops/model/Person.java" xlink:title="&lt;TABLE&gt;">
<polygon fill="none" stroke="black" points="354,-158 354,-175 418,-175 418,-158 354,-158"/>
<text text-anchor="start" x="357.5" y="-164.5" font-family="Arial" font-size="10.00"> </text>
<text text-anchor="start" x="361.5" y="-164.5" font-family="Arial" font-size="10.00">p15 :Person</text>
</a>
</g>
<!-- t2&#45;&#45;p15 -->
<g id="edge21" class="edge"><title>t2&#45;&#45;p15</title>
<path fill="none" stroke="black" d="M309.265,-230.641C325.815,-217.131 348.66,-198.482 365.114,-185.05"/>
<text text-anchor="middle" x="360.765" y="-191.555" font-family="Arial" font-size="10.00">passengers</text>
<text text-anchor="middle" x="313.613" y="-219.136" font-family="Arial" font-size="10.00">train</text>
</g>
<!-- p16 -->
<g id="node18" class="node"><title>p16</title>
<a xlink:href="../../SDMLib/src/org/sdmlib/examples/patternrewriteops/model/Person.java" xlink:title="&lt;TABLE&gt;">
<polygon fill="none" stroke="black" points="452,-158 452,-175 516,-175 516,-158 452,-158"/>
<text text-anchor="start" x="455.5" y="-164.5" font-family="Arial" font-size="10.00"> </text>
<text text-anchor="start" x="459.5" y="-164.5" font-family="Arial" font-size="10.00">p16 :Person</text>
</a>
</g>
<!-- t2&#45;&#45;p16 -->
<g id="edge23" class="edge"><title>t2&#45;&#45;p16</title>
<path fill="none" stroke="black" d="M319.427,-236.083C349.307,-224.64 395.435,-206.677 435,-190 438.695,-188.443 442.531,-186.788 446.357,-185.112"/>
<text text-anchor="middle" x="439.747" y="-190.116" font-family="Arial" font-size="10.00">passengers</text>
<text text-anchor="middle" x="326.372" y="-226.389" font-family="Arial" font-size="10.00">train</text>
</g>
<!-- s8 -->
<g id="node10" class="node"><title>s8</title>
<a xlink:href="../../SDMLib/src/org/sdmlib/examples/patternrewriteops/model/Station.java" xlink:title="&lt;TABLE&gt;">
<polygon fill="none" stroke="black" points="153,-81 153,-98 212,-98 212,-81 153,-81"/>
<text text-anchor="start" x="156.5" y="-87.5" font-family="Arial" font-size="10.00"> </text>
<text text-anchor="start" x="160.5" y="-87.5" font-family="Arial" font-size="10.00">s8 :Station</text>
</a>
</g>
<!-- s4&#45;&#45;s8 -->
<g id="edge27" class="edge"><title>s4&#45;&#45;s8</title>
<path fill="none" stroke="black" d="M189.731,-148.981C188.106,-136.794 185.926,-120.442 184.295,-108.211"/>
<text text-anchor="middle" x="189.682" y="-114.136" font-family="Arial" font-size="10.00">next</text>
<text text-anchor="middle" x="184.344" y="-138.056" font-family="Arial" font-size="10.00">prev</text>
</g>
<!-- s13 -->
<g id="node15" class="node"><title>s13</title>
<a xlink:href="../../SDMLib/src/org/sdmlib/examples/patternrewriteops/model/Station.java" xlink:title="&lt;TABLE&gt;">
<polygon fill="none" stroke="black" points="246,-81 246,-98 310,-98 310,-81 246,-81"/>
<text text-anchor="start" x="249.5" y="-87.5" font-family="Arial" font-size="10.00"> </text>
<text text-anchor="start" x="253.5" y="-87.5" font-family="Arial" font-size="10.00">s13 :Station</text>
</a>
</g>
<!-- s4&#45;&#45;s13 -->
<g id="edge29" class="edge"><title>s4&#45;&#45;s13</title>
<path fill="none" stroke="black" d="M211.515,-148.981C225.49,-136.794 244.24,-120.442 258.265,-108.211"/>
<text text-anchor="middle" x="254.212" y="-114.853" font-family="Arial" font-size="10.00">prev</text>
<text text-anchor="middle" x="215.568" y="-137.339" font-family="Arial" font-size="10.00">next</text>
</g>
<!-- s9 -->
<g id="node11" class="node"><title>s9</title>
<a xlink:href="../../SDMLib/src/org/sdmlib/examples/patternrewriteops/model/Station.java" xlink:title="&lt;TABLE&gt;">
<polygon fill="none" stroke="black" points="8,-9 8,-26 67,-26 67,-9 8,-9"/>
<text text-anchor="start" x="11.5" y="-15.5" font-family="Arial" font-size="10.00"> </text>
<text text-anchor="start" x="15.5" y="-15.5" font-family="Arial" font-size="10.00">s9 :Station</text>
</a>
</g>
<!-- s8&#45;&#45;s9 -->
<g id="edge33" class="edge"><title>s8&#45;&#45;s9</title>
<path fill="none" stroke="black" d="M146.529,-71.8761C123.976,-60.9882 94.887,-46.9454 72.3558,-36.0683"/>
<text text-anchor="middle" x="82.3549" y="-33.7026" font-family="Arial" font-size="10.00">next</text>
<text text-anchor="middle" x="136.53" y="-69.2418" font-family="Arial" font-size="10.00">prev</text>
</g>
<!-- p10 -->
<g id="node12" class="node"><title>p10</title>
<a xlink:href="../../SDMLib/src/org/sdmlib/examples/patternrewriteops/model/Person.java" xlink:title="&lt;TABLE&gt;">
<polygon fill="none" stroke="black" points="101,-9 101,-26 165,-26 165,-9 101,-9"/>
<text text-anchor="start" x="104.5" y="-15.5" font-family="Arial" font-size="10.00"> </text>
<text text-anchor="start" x="108.5" y="-15.5" font-family="Arial" font-size="10.00">p10 :Person</text>
</a>
</g>
<!-- s8&#45;&#45;p10 -->
<g id="edge35" class="edge"><title>s8&#45;&#45;p10</title>
<path fill="none" stroke="black" d="M169.888,-71.6966C162.292,-60.8463 152.542,-46.9167 144.973,-36.1043"/>
<text text-anchor="middle" x="153.633" y="-38.6055" font-family="Arial" font-size="10.00">people</text>
<text text-anchor="middle" x="161.228" y="-64.1954" font-family="Arial" font-size="10.00">station</text>
</g>
<!-- p11 -->
<g id="node13" class="node"><title>p11</title>
<a xlink:href="../../SDMLib/src/org/sdmlib/examples/patternrewriteops/model/Person.java" xlink:title="&lt;TABLE&gt;">
<polygon fill="none" stroke="black" points="199,-9 199,-26 263,-26 263,-9 199,-9"/>
<text text-anchor="start" x="202.5" y="-15.5" font-family="Arial" font-size="10.00"> </text>
<text text-anchor="start" x="206.5" y="-15.5" font-family="Arial" font-size="10.00">p11 :Person</text>
</a>
</g>
<!-- s8&#45;&#45;p11 -->
<g id="edge37" class="edge"><title>s8&#45;&#45;p11</title>
<path fill="none" stroke="black" d="M194.112,-71.6966C201.708,-60.8463 211.458,-46.9167 219.027,-36.1043"/>
<text text-anchor="middle" x="217.292" y="-43.4527" font-family="Arial" font-size="10.00">people</text>
<text text-anchor="middle" x="195.847" y="-59.3483" font-family="Arial" font-size="10.00">station</text>
</g>
<!-- s12 -->
<g id="node14" class="node"><title>s12</title>
<a xlink:href="../../SDMLib/src/org/sdmlib/examples/patternrewriteops/model/SignalFlag.java" xlink:title="&lt;TABLE&gt;">
<polygon fill="none" stroke="black" points="298,-9 298,-26 377,-26 377,-9 298,-9"/>
<text text-anchor="start" x="301.5" y="-15.5" font-family="Arial" font-size="10.00"> </text>
<text text-anchor="start" x="305.5" y="-15.5" font-family="Arial" font-size="10.00">s12 :SignalFlag</text>
</a>
</g>
<!-- s8&#45;&#45;s12 -->
<g id="edge31" class="edge"><title>s8&#45;&#45;s12</title>
<path fill="none" stroke="black" d="M219.521,-72.055C243.712,-61.1301 275.059,-46.9735 299.287,-36.0316"/>
<text text-anchor="middle" x="292.767" y="-41.1135" font-family="Arial" font-size="10.00">flag</text>
<text text-anchor="middle" x="226.042" y="-61.9731" font-family="Arial" font-size="10.00">station</text>
</g>
</g>
</svg>
