<?xml version="1.0" encoding="UTF-8" standalone="no"?>
<!DOCTYPE svg PUBLIC "-//W3C//DTD SVG 1.1//EN"
 "http://www.w3.org/Graphics/SVG/1.1/DTD/svg11.dtd">
<!-- Generated by graphviz version 2.28.0 (20110507.0327)
 -->
<!-- Title: ObjectDiagram Pages: 1 -->
<svg width="649pt" height="445pt"
 viewBox="0.00 0.00 649.00 445.00" xmlns="http://www.w3.org/2000/svg" xmlns:xlink="http://www.w3.org/1999/xlink">
<g id="graph1" class="graph" transform="scale(1 1) rotate(0) translate(4 441)">
<title>ObjectDiagram</title>
<polygon fill="white" stroke="white" points="-4,5 -4,-441 646,-441 646,5 -4,5"/>
<g id="graph2" class="cluster"><title>cluster_o8</title>
<polygon fill="none" stroke="grey" points="531,-213 531,-383 633,-383 633,-213 531,-213"/>
<text text-anchor="start" x="550.5" y="-363.8" font-family="Times New Roman,serif" font-size="14.00">optional o8</text>
</g>
<!-- t1 -->
<g id="node1" class="node"><title>t1</title>
<polygon fill="deepskyblue" stroke="deepskyblue" points="308,-395.5 308,-432.5 364,-432.5 364,-395.5 308,-395.5"/>
<polygon fill="none" stroke="black" points="308,-415 308,-432 364,-432 364,-415 308,-415"/>
<text text-anchor="start" x="311.5" y="-421.5" font-family="Arial" font-size="10.00"> </text>
<text text-anchor="start" x="315.5" y="-421.5" font-family="Arial" font-size="10.00"> t1 :TrainPO </text>
<polygon fill="none" stroke="black" points="308,-395 308,-415 364,-415 364,-395 308,-395"/>
<text text-anchor="start" x="332.5" y="-403" font-family="Arial" font-size="10.00"> &#160;</text>
</g>
<!-- s3 -->
<g id="node2" class="node"><title>s3</title>
<polygon fill="deepskyblue" stroke="deepskyblue" points="210.5,-302.5 210.5,-339.5 275.5,-339.5 275.5,-302.5 210.5,-302.5"/>
<polygon fill="none" stroke="black" points="211,-322 211,-339 276,-339 276,-322 211,-322"/>
<text text-anchor="start" x="214.5" y="-328.5" font-family="Arial" font-size="10.00"> </text>
<text text-anchor="start" x="218.5" y="-328.5" font-family="Arial" font-size="10.00"> s3 :StationPO </text>
<polygon fill="none" stroke="black" points="211,-302 211,-322 276,-322 276,-302 211,-302"/>
<text text-anchor="start" x="240" y="-310" font-family="Arial" font-size="10.00"> &#160;</text>
</g>
<!-- t1&#45;&#45;s3 -->
<g id="edge19" class="edge"><title>t1&#45;&#45;s3</title>
<path fill="none" stroke="black" d="M304.928,-391.473C301.483,-388.735 298.103,-385.88 295,-383 282.048,-370.975 269.149,-355.869 259.438,-343.698"/>
<text text-anchor="middle" x="268.414" y="-345.607" font-family="Arial" font-size="10.00">station</text>
</g>
<!-- t2 -->
<g id="node8" class="node"><title>t2</title>
<a xlink:href="../../SDMLib/src/org/sdmlib/examples/patternrewriteops/model/Train.java" xlink:title="&lt;TABLE&gt;">
<polygon fill="none" stroke="black" points="313,-312 313,-329 360,-329 360,-312 313,-312"/>
<text text-anchor="start" x="316.5" y="-318.5" font-family="Arial" font-size="10.00"> </text>
<text text-anchor="start" x="320.5" y="-318.5" font-family="Arial" font-size="10.00">t2 :Train</text>
</a>
</g>
<!-- t1&#45;&#45;t2 -->
<g id="edge3" class="edge"><title>t1&#45;&#45;t2</title>
<path fill="none" stroke="black" stroke-dasharray="1,5" d="M336,-391.434C336,-375.456 336,-353.974 336,-339.156"/>
<text text-anchor="middle" x="340.226" y="-345.72" font-family="Arial" font-size="10.00">match</text>
</g>
<!-- s5 -->
<g id="node3" class="node"><title>s5</title>
<polygon fill="deepskyblue" stroke="deepskyblue" points="50.5,-220.5 50.5,-257.5 127.5,-257.5 127.5,-220.5 50.5,-220.5"/>
<polygon fill="none" stroke="black" points="51,-240 51,-257 128,-257 128,-240 51,-240"/>
<text text-anchor="start" x="54.5" y="-246.5" font-family="Arial" font-size="10.00"> </text>
<text text-anchor="start" x="58.5" y="-246.5" font-family="Arial" font-size="10.00"> s5 :SignalFlagPO </text>
<polygon fill="none" stroke="black" points="51,-220 51,-240 128,-240 128,-220 51,-220"/>
<text text-anchor="start" x="86" y="-228" font-family="Arial" font-size="10.00"> &#160;</text>
</g>
<!-- s3&#45;&#45;s5 -->
<g id="edge21" class="edge"><title>s3&#45;&#45;s5</title>
<path fill="none" stroke="black" d="M202.538,-298.981C180.348,-287.454 152.888,-273.189 130.532,-261.575"/>
<text text-anchor="middle" x="140.523" y="-259.503" font-family="Arial" font-size="10.00">flag</text>
</g>
<!-- p18 -->
<g id="node6" class="node"><title>p18</title>
<polygon fill="deepskyblue" stroke="deepskyblue" points="547,-302.5 547,-339.5 617,-339.5 617,-302.5 547,-302.5"/>
<polygon fill="none" stroke="black" points="547,-322 547,-339 617,-339 617,-322 547,-322"/>
<text text-anchor="start" x="550.5" y="-328.5" font-family="Arial" font-size="10.00"> </text>
<text text-anchor="start" x="554.5" y="-328.5" font-family="Arial" font-size="10.00"> p18 :PersonPO </text>
<polygon fill="none" stroke="black" points="547,-302 547,-322 617,-322 617,-302 547,-302"/>
<text text-anchor="start" x="578.5" y="-310" font-family="Arial" font-size="10.00"> &#160;</text>
</g>
<!-- s3&#45;&#45;p18 -->
<g id="edge23" class="edge"><title>s3&#45;&#45;p18</title>
<path fill="none" stroke="red" d="M254.349,-343.769C264.553,-360.896 281.411,-382.206 304,-387 328.129,-392.121 501.871,-392.121 526,-387 547.903,-382.352 563.28,-360.756 572.308,-343.516"/>
<text text-anchor="middle" x="571.652" y="-350.994" font-family="Arial" font-size="10.00" fill="red">people</text>
</g>
<!-- s4 -->
<g id="node9" class="node"><title>s4</title>
<a xlink:href="../../SDMLib/src/org/sdmlib/examples/patternrewriteops/model/Station.java" xlink:title="&lt;TABLE&gt;">
<polygon fill="none" stroke="black" points="162,-230 162,-247 221,-247 221,-230 162,-230"/>
<text text-anchor="start" x="165.5" y="-236.5" font-family="Arial" font-size="10.00"> </text>
<text text-anchor="start" x="169.5" y="-236.5" font-family="Arial" font-size="10.00">s4 :Station</text>
</a>
</g>
<!-- s3&#45;&#45;s4 -->
<g id="edge5" class="edge"><title>s3&#45;&#45;s4</title>
<path fill="none" stroke="black" stroke-dasharray="1,5" d="M228.791,-298.14C220.371,-285.186 209.858,-269.013 202.06,-257.015"/>
<text text-anchor="middle" x="210.542" y="-259.811" font-family="Arial" font-size="10.00">match</text>
</g>
<!-- d7 -->
<g id="node4" class="node"><title>d7</title>
<text text-anchor="middle" x="99" y="-159.5" font-family="Arial" font-size="10.00" fill="red">destroy</text>
</g>
<!-- s5&#45;&#45;d7 -->
<g id="edge9" class="edge"><title>s5&#45;&#45;d7</title>
<path fill="none" stroke="red" stroke-dasharray="1,5" d="M91.8924,-216.307C93.4153,-204.886 95.2574,-191.07 96.6846,-180.366"/>
</g>
<!-- s6 -->
<g id="node22" class="node"><title>s6</title>
<text text-anchor="middle" x="27" y="-159.5" font-family="Arial" font-size="10.00">s6</text>
</g>
<!-- s5&#45;&#45;s6 -->
<g id="edge7" class="edge"><title>s5&#45;&#45;s6</title>
<path fill="none" stroke="black" stroke-dasharray="1,5" d="M71.067,-216.307C61.6254,-204.886 50.2044,-191.07 41.3555,-180.366"/>
<text text-anchor="middle" x="50.3873" y="-182.158" font-family="Arial" font-size="10.00">match</text>
</g>
<!-- p18&#45;&#45;t1 -->
<g id="edge25" class="edge"><title>p18&#45;&#45;t1</title>
<path fill="none" stroke="green" d="M571.029,-343.565C562.955,-357.138 550.67,-373.777 535,-383 508.126,-398.817 421.979,-407.162 372.283,-410.765"/>
<text text-anchor="middle" x="380.994" y="-403.355" font-family="Arial" font-size="10.00" fill="green">train</text>
</g>
<!-- allMatches_p18 -->
<g id="node7" class="node"><title>allMatches_p18</title>
<text text-anchor="middle" x="582" y="-236.5" font-family="Arial" font-size="10.00">allMatches</text>
</g>
<!-- p18&#45;&#45;allMatches_p18 -->
<g id="edge11" class="edge"><title>p18&#45;&#45;allMatches_p18</title>
<path fill="none" stroke="black" stroke-dasharray="1,5" d="M582,-298.14C582,-285.186 582,-269.013 582,-257.015"/>
</g>
<!-- p15 -->
<g id="node16" class="node"><title>p15</title>
<a xlink:href="../../SDMLib/src/org/sdmlib/examples/patternrewriteops/model/Person.java" xlink:title="&lt;TABLE&gt;">
<polygon fill="none" stroke="black" points="255,-230 255,-247 319,-247 319,-230 255,-230"/>
<text text-anchor="start" x="258.5" y="-236.5" font-family="Arial" font-size="10.00"> </text>
<text text-anchor="start" x="262.5" y="-236.5" font-family="Arial" font-size="10.00">p15 :Person</text>
</a>
</g>
<!-- p18&#45;&#45;p15 -->
<g id="edge13" class="edge"><title>p18&#45;&#45;p15</title>
<path fill="none" stroke="black" stroke-dasharray="1,5" d="M538.889,-299.308C537.586,-298.848 536.288,-298.41 535,-298 449.36,-270.72 421.853,-288.603 336,-262 331.457,-260.592 326.78,-258.872 322.202,-257.021"/>
<text text-anchor="middle" x="332.186" y="-253.969" font-family="Arial" font-size="10.00">candidate</text>
</g>
<!-- p16 -->
<g id="node17" class="node"><title>p16</title>
<a xlink:href="../../SDMLib/src/org/sdmlib/examples/patternrewriteops/model/Person.java" xlink:title="&lt;TABLE&gt;">
<polygon fill="none" stroke="black" points="353,-230 353,-247 417,-247 417,-230 353,-230"/>
<text text-anchor="start" x="356.5" y="-236.5" font-family="Arial" font-size="10.00"> </text>
<text text-anchor="start" x="360.5" y="-236.5" font-family="Arial" font-size="10.00">p16 :Person</text>
</a>
</g>
<!-- p18&#45;&#45;p16 -->
<g id="edge15" class="edge"><title>p18&#45;&#45;p16</title>
<path fill="none" stroke="black" stroke-dasharray="1,5" d="M538.788,-299.584C537.515,-299.043 536.25,-298.514 535,-298 490.925,-279.878 478.217,-279.774 434,-262 430.107,-260.435 426.068,-258.74 422.055,-257.01"/>
<text text-anchor="middle" x="432.051" y="-254.208" font-family="Arial" font-size="10.00">candidate</text>
</g>
<!-- p17 -->
<g id="node18" class="node"><title>p17</title>
<a xlink:href="../../SDMLib/src/org/sdmlib/examples/patternrewriteops/model/Person.java" xlink:title="&lt;TABLE&gt;">
<polygon fill="none" stroke="black" points="451,-230 451,-247 515,-247 515,-230 451,-230"/>
<text text-anchor="start" x="454.5" y="-236.5" font-family="Arial" font-size="10.00"> </text>
<text text-anchor="start" x="458.5" y="-236.5" font-family="Arial" font-size="10.00">p17 :Person</text>
</a>
</g>
<!-- p18&#45;&#45;p17 -->
<g id="edge17" class="edge"><title>p18&#45;&#45;p17</title>
<path fill="none" stroke="black" stroke-dasharray="1,5" d="M555.209,-298.351C539.175,-285.394 519.083,-269.158 504.166,-257.104"/>
<text text-anchor="middle" x="513.871" y="-257.013" font-family="Arial" font-size="10.00">candidate</text>
</g>
<!-- t2&#45;&#45;s4 -->
<g id="edge33" class="edge"><title>t2&#45;&#45;s4</title>
<path fill="none" stroke="black" d="M304.894,-302.838C280.429,-289.34 246.506,-270.624 222.055,-257.134"/>
<text text-anchor="middle" x="232.032" y="-255.311" font-family="Arial" font-size="10.00">station</text>
<text text-anchor="middle" x="294.917" y="-299.66" font-family="Arial" font-size="10.00">trains</text>
</g>
<!-- t2&#45;&#45;p15 -->
<g id="edge27" class="edge"><title>t2&#45;&#45;p15</title>
<path fill="none" stroke="black" d="M325.368,-302.641C317.092,-289.131 305.67,-270.482 297.443,-257.05"/>
<text text-anchor="middle" x="305.781" y="-260.071" font-family="Arial" font-size="10.00">passengers</text>
<text text-anchor="middle" x="317.03" y="-294.62" font-family="Arial" font-size="10.00">train</text>
</g>
<!-- t2&#45;&#45;p16 -->
<g id="edge29" class="edge"><title>t2&#45;&#45;p16</title>
<path fill="none" stroke="black" d="M346.632,-302.641C354.908,-289.131 366.33,-270.482 374.557,-257.05"/>
<text text-anchor="middle" x="373.427" y="-264.486" font-family="Arial" font-size="10.00">passengers</text>
<text text-anchor="middle" x="347.762" y="-290.205" font-family="Arial" font-size="10.00">train</text>
</g>
<!-- t2&#45;&#45;p17 -->
<g id="edge31" class="edge"><title>t2&#45;&#45;p17</title>
<path fill="none" stroke="black" d="M367.535,-302.838C392.338,-289.34 426.728,-270.624 451.517,-257.134"/>
<text text-anchor="middle" x="445.577" y="-262.678" font-family="Arial" font-size="10.00">passengers</text>
<text text-anchor="middle" x="373.476" y="-292.294" font-family="Arial" font-size="10.00">train</text>
</g>
<!-- s9 -->
<g id="node10" class="node"><title>s9</title>
<a xlink:href="../../SDMLib/src/org/sdmlib/examples/patternrewriteops/model/Station.java" xlink:title="&lt;TABLE&gt;">
<polygon fill="none" stroke="black" points="162,-153 162,-170 221,-170 221,-153 162,-153"/>
<text text-anchor="start" x="165.5" y="-159.5" font-family="Arial" font-size="10.00"> </text>
<text text-anchor="start" x="169.5" y="-159.5" font-family="Arial" font-size="10.00">s9 :Station</text>
</a>
</g>
<!-- s4&#45;&#45;s9 -->
<g id="edge35" class="edge"><title>s4&#45;&#45;s9</title>
<path fill="none" stroke="black" d="M191,-220.981C191,-208.794 191,-192.442 191,-180.211"/>
<text text-anchor="middle" x="195.226" y="-186.774" font-family="Arial" font-size="10.00">next</text>
<text text-anchor="middle" x="186.774" y="-209.418" font-family="Arial" font-size="10.00">prev</text>
</g>
<!-- s10 -->
<g id="node11" class="node"><title>s10</title>
<a xlink:href="../../SDMLib/src/org/sdmlib/examples/patternrewriteops/model/Station.java" xlink:title="&lt;TABLE&gt;">
<polygon fill="none" stroke="black" points="159,-81 159,-98 223,-98 223,-81 159,-81"/>
<text text-anchor="start" x="162.5" y="-87.5" font-family="Arial" font-size="10.00"> </text>
<text text-anchor="start" x="166.5" y="-87.5" font-family="Arial" font-size="10.00">s10 :Station</text>
</a>
</g>
<!-- s9&#45;&#45;s10 -->
<g id="edge37" class="edge"><title>s9&#45;&#45;s10</title>
<path fill="none" stroke="black" d="M191,-143.697C191,-132.846 191,-118.917 191,-108.104"/>
<text text-anchor="middle" x="195.226" y="-114.667" font-family="Arial" font-size="10.00">next</text>
<text text-anchor="middle" x="186.774" y="-132.134" font-family="Arial" font-size="10.00">prev</text>
</g>
<!-- s11 -->
<g id="node12" class="node"><title>s11</title>
<a xlink:href="../../SDMLib/src/org/sdmlib/examples/patternrewriteops/model/Station.java" xlink:title="&lt;TABLE&gt;">
<polygon fill="none" stroke="black" points="12,-9 12,-26 76,-26 76,-9 12,-9"/>
<text text-anchor="start" x="15.5" y="-15.5" font-family="Arial" font-size="10.00"> </text>
<text text-anchor="start" x="19.5" y="-15.5" font-family="Arial" font-size="10.00">s11 :Station</text>
</a>
</g>
<!-- s10&#45;&#45;s11 -->
<g id="edge41" class="edge"><title>s10&#45;&#45;s11</title>
<path fill="none" stroke="black" d="M155.04,-71.8761C132.175,-60.9882 102.685,-46.9454 79.8435,-36.0683"/>
<text text-anchor="middle" x="89.8431" y="-33.6492" font-family="Arial" font-size="10.00">next</text>
<text text-anchor="middle" x="145.04" y="-69.2952" font-family="Arial" font-size="10.00">prev</text>
</g>
<!-- p12 -->
<g id="node13" class="node"><title>p12</title>
<a xlink:href="../../SDMLib/src/org/sdmlib/examples/patternrewriteops/model/Person.java" xlink:title="&lt;TABLE&gt;">
<polygon fill="none" stroke="black" points="110,-9 110,-26 174,-26 174,-9 110,-9"/>
<text text-anchor="start" x="113.5" y="-15.5" font-family="Arial" font-size="10.00"> </text>
<text text-anchor="start" x="117.5" y="-15.5" font-family="Arial" font-size="10.00">p12 :Person</text>
</a>
</g>
<!-- s10&#45;&#45;p12 -->
<g id="edge43" class="edge"><title>s10&#45;&#45;p12</title>
<path fill="none" stroke="black" d="M178.888,-71.6966C171.292,-60.8463 161.542,-46.9167 153.973,-36.1043"/>
<text text-anchor="middle" x="162.633" y="-38.6055" font-family="Arial" font-size="10.00">people</text>
<text text-anchor="middle" x="170.228" y="-64.1954" font-family="Arial" font-size="10.00">station</text>
</g>
<!-- p13 -->
<g id="node14" class="node"><title>p13</title>
<a xlink:href="../../SDMLib/src/org/sdmlib/examples/patternrewriteops/model/Person.java" xlink:title="&lt;TABLE&gt;">
<polygon fill="none" stroke="black" points="208,-9 208,-26 272,-26 272,-9 208,-9"/>
<text text-anchor="start" x="211.5" y="-15.5" font-family="Arial" font-size="10.00"> </text>
<text text-anchor="start" x="215.5" y="-15.5" font-family="Arial" font-size="10.00">p13 :Person</text>
</a>
</g>
<!-- s10&#45;&#45;p13 -->
<g id="edge45" class="edge"><title>s10&#45;&#45;p13</title>
<path fill="none" stroke="black" d="M203.112,-71.6966C210.708,-60.8463 220.458,-46.9167 228.027,-36.1043"/>
<text text-anchor="middle" x="226.292" y="-43.4527" font-family="Arial" font-size="10.00">people</text>
<text text-anchor="middle" x="204.847" y="-59.3483" font-family="Arial" font-size="10.00">station</text>
</g>
<!-- s14 -->
<g id="node15" class="node"><title>s14</title>
<a xlink:href="../../SDMLib/src/org/sdmlib/examples/patternrewriteops/model/SignalFlag.java" xlink:title="&lt;TABLE&gt;">
<polygon fill="none" stroke="black" points="307,-9 307,-26 386,-26 386,-9 307,-9"/>
<text text-anchor="start" x="310.5" y="-15.5" font-family="Arial" font-size="10.00"> </text>
<text text-anchor="start" x="314.5" y="-15.5" font-family="Arial" font-size="10.00">s14 :SignalFlag</text>
</a>
</g>
<!-- s10&#45;&#45;s14 -->
<g id="edge39" class="edge"><title>s10&#45;&#45;s14</title>
<path fill="none" stroke="black" d="M228.917,-71.8761C253.026,-60.9882 284.121,-46.9454 308.206,-36.0683"/>
<text text-anchor="middle" x="301.685" y="-41.1502" font-family="Arial" font-size="10.00">flag</text>
<text text-anchor="middle" x="235.438" y="-61.7942" font-family="Arial" font-size="10.00">station</text>
</g>
</g>
</svg>
