<?xml version="1.0" encoding="UTF-8" standalone="no"?>
<!DOCTYPE svg PUBLIC "-//W3C//DTD SVG 1.1//EN"
 "http://www.w3.org/Graphics/SVG/1.1/DTD/svg11.dtd">
<!-- Generated by graphviz version 2.26.3 (20100126.1600)
 -->
<!-- Title: ClassDiagram Pages: 1 -->
<svg width="154pt" height="278pt"
 viewBox="0.00 0.00 154.00 278.00" xmlns="http://www.w3.org/2000/svg" xmlns:xlink="http://www.w3.org/1999/xlink">
<g id="graph1" class="graph" transform="scale(1 1) rotate(0) translate(4 274)">
<title>ClassDiagram</title>
<polygon fill="white" stroke="white" points="-4,5 -4,-274 151,-274 151,5 -4,5"/>
<!-- _Train -->
<g id="node1" class="node"><title>_Train</title>
<a xlink:href="../examples/org/sdmlib/examples/patternrewriteops/Train.java" xlink:title="&lt;TABLE&gt;">
<polygon fill="none" stroke="black" points="42,-248 42,-265 71,-265 71,-248 42,-248"/>
<text text-anchor="start" x="45.5" y="-254.167" font-family="Times Roman,serif" font-size="10.00">Train</text>
</a>
<polygon fill="none" stroke="black" points="42,-228 42,-248 71,-248 71,-228 42,-228"/>
<text text-anchor="start" x="54.5" y="-235.667" font-family="Times Roman,serif" font-size="10.00"> </text>
<polygon fill="none" stroke="black" points="42,-208 42,-228 71,-228 71,-208 42,-208"/>
<text text-anchor="start" x="54.5" y="-215.667" font-family="Times Roman,serif" font-size="10.00"> </text>
</g>
<!-- _Station -->
<g id="node2" class="node"><title>_Station</title>
<a xlink:href="../examples/org/sdmlib/examples/patternrewriteops/Station.java" xlink:title="&lt;TABLE&gt;">
<polygon fill="none" stroke="black" points="64,-146 64,-163 106,-163 106,-146 64,-146"/>
<text text-anchor="start" x="67.5" y="-152.167" font-family="Times Roman,serif" font-size="10.00">Station</text>
</a>
<polygon fill="none" stroke="black" points="64,-126 64,-146 106,-146 106,-126 64,-126"/>
<text text-anchor="start" x="83" y="-133.667" font-family="Times Roman,serif" font-size="10.00"> </text>
<polygon fill="none" stroke="black" points="64,-106 64,-126 106,-126 106,-106 64,-106"/>
<text text-anchor="start" x="83" y="-113.667" font-family="Times Roman,serif" font-size="10.00"> </text>
</g>
<!-- _Train&#45;&gt;_Station -->
<g id="edge2" class="edge"><title>_Train&#45;&gt;_Station</title>
<path fill="none" stroke="black" d="M65.2555,-204.446C68.6039,-192.669 72.3836,-179.375 75.7329,-167.594"/>
<text text-anchor="middle" x="77.3195" y="-174.468" font-family="Times Roman,serif" font-size="10.00">station</text>
<text text-anchor="middle" x="63.669" y="-191.573" font-family="Times Roman,serif" font-size="10.00">trains *</text>
</g>
<!-- _Person -->
<g id="node3" class="node"><title>_Person</title>
<a xlink:href="../examples/org/sdmlib/examples/patternrewriteops/Person.java" xlink:title="&lt;TABLE&gt;">
<polygon fill="none" stroke="black" points="8,-44 8,-61 48,-61 48,-44 8,-44"/>
<text text-anchor="start" x="11.5" y="-50.1667" font-family="Times Roman,serif" font-size="10.00">Person</text>
</a>
<polygon fill="none" stroke="black" points="8,-24 8,-44 48,-44 48,-24 8,-24"/>
<text text-anchor="start" x="26" y="-31.6667" font-family="Times Roman,serif" font-size="10.00"> </text>
<polygon fill="none" stroke="black" points="8,-4 8,-24 48,-24 48,-4 8,-4"/>
<text text-anchor="start" x="26" y="-11.6667" font-family="Times Roman,serif" font-size="10.00"> </text>
</g>
<!-- _Train&#45;&gt;_Person -->
<g id="edge8" class="edge"><title>_Train&#45;&gt;_Person</title>
<path fill="none" stroke="black" d="M51.5013,-204.224C46.2762,-166.155 37.7079,-103.729 32.4875,-65.6948"/>
<text text-anchor="middle" x="37.9068" y="-71.099" font-family="Times Roman,serif" font-size="10.00">passengers *</text>
<text text-anchor="middle" x="46.082" y="-192.82" font-family="Times Roman,serif" font-size="10.00">train</text>
</g>
<!-- _Station&#45;&gt;_Station -->
<g id="edge4" class="edge"><title>_Station&#45;&gt;_Station</title>
<path fill="none" stroke="black" d="M114.375,-154.125C124.167,-154.125 132,-147.75 132,-135 132,-122.25 124.167,-115.875 114.375,-115.875"/>
<text text-anchor="middle" x="123.699" y="-109.26" font-family="Times Roman,serif" font-size="10.00">next</text>
<text text-anchor="middle" x="123.137" y="-146.306" font-family="Times Roman,serif" font-size="10.00">prev</text>
</g>
<!-- _Station&#45;&gt;_Person -->
<g id="edge6" class="edge"><title>_Station&#45;&gt;_Person</title>
<path fill="none" stroke="black" d="M66.8081,-102.446C60.2268,-90.669 52.7978,-77.3751 46.2146,-65.5945"/>
<text text-anchor="middle" x="54.3249" y="-68.4444" font-family="Times Roman,serif" font-size="10.00">people *</text>
<text text-anchor="middle" x="58.6977" y="-93.5962" font-family="Times Roman,serif" font-size="10.00">station</text>
</g>
<!-- _SignalFlag -->
<g id="node4" class="node"><title>_SignalFlag</title>
<a xlink:href="../examples/org/sdmlib/examples/patternrewriteops/SignalFlag.java" xlink:title="&lt;TABLE&gt;">
<polygon fill="none" stroke="black" points="82,-44 82,-61 138,-61 138,-44 82,-44"/>
<text text-anchor="start" x="85.5" y="-50.1667" font-family="Times Roman,serif" font-size="10.00">SignalFlag</text>
</a>
<polygon fill="none" stroke="black" points="82,-24 82,-44 138,-44 138,-24 82,-24"/>
<text text-anchor="start" x="108" y="-31.6667" font-family="Times Roman,serif" font-size="10.00"> </text>
<polygon fill="none" stroke="black" points="82,-4 82,-24 138,-24 138,-4 82,-4"/>
<text text-anchor="start" x="108" y="-11.6667" font-family="Times Roman,serif" font-size="10.00"> </text>
</g>
<!-- _Station&#45;&gt;_SignalFlag -->
<g id="edge10" class="edge"><title>_Station&#45;&gt;_SignalFlag</title>
<path fill="none" stroke="black" d="M92.9789,-102.446C95.8654,-90.669 99.1238,-77.3751 102.011,-65.5945"/>
<text text-anchor="middle" x="103.958" y="-72.403" font-family="Times Roman,serif" font-size="10.00">flag</text>
<text text-anchor="middle" x="91.0317" y="-89.6375" font-family="Times Roman,serif" font-size="10.00">station *</text>
</g>
</g>
</svg>
