<?xml version="1.0" encoding="UTF-8" standalone="no"?>
<!DOCTYPE svg PUBLIC "-//W3C//DTD SVG 1.1//EN"
 "http://www.w3.org/Graphics/SVG/1.1/DTD/svg11.dtd">
<!-- Generated by graphviz version 2.28.0 (20110507.0327)
 -->
<!-- Title: ObjectDiagram Pages: 1 -->
<svg width="624pt" height="376pt"
 viewBox="0.00 0.00 624.00 376.00" xmlns="http://www.w3.org/2000/svg" xmlns:xlink="http://www.w3.org/1999/xlink">
<g id="graph1" class="graph" transform="scale(1 1) rotate(0) translate(4 372)">
<title>ObjectDiagram</title>
<polygon fill="white" stroke="white" points="-4,5 -4,-372 621,-372 621,5 -4,5"/>
<!-- t1 -->
<g id="node1" class="node"><title>t1</title>
<a xlink:href="../examples/org/sdmlib/examples/patternrewriteops/model/Train.java" xlink:title="&lt;TABLE&gt;">
<polygon fill="none" stroke="black" points="342,-341 342,-358 389,-358 389,-341 342,-341"/>
<text text-anchor="start" x="345.5" y="-347.5" font-family="Arial" font-size="10.00"> </text>
<text text-anchor="start" x="349.5" y="-347.5" font-family="Arial" font-size="10.00">t1 :Train</text>
</a>
</g>
<!-- s2 -->
<g id="node2" class="node"><title>s2</title>
<a xlink:href="../examples/org/sdmlib/examples/patternrewriteops/model/Station.java" xlink:title="&lt;TABLE&gt;">
<polygon fill="none" stroke="black" points="336,-274 336,-291 395,-291 395,-274 336,-274"/>
<text text-anchor="start" x="339.5" y="-280.5" font-family="Arial" font-size="10.00"> </text>
<text text-anchor="start" x="343.5" y="-280.5" font-family="Arial" font-size="10.00">s2 :Station</text>
</a>
<polygon fill="none" stroke="black" points="336,-254 336,-274 395,-274 395,-254 336,-254"/>
<text text-anchor="start" x="341" y="-262" font-family="Arial" font-size="10.00">prev = &quot;&quot;</text>
</g>
<!-- t1&#45;&#45;s2 -->
<g id="edge2" class="edge"><title>t1&#45;&#45;s2</title>
<path fill="none" stroke="black" d="M365,-331.981C365,-321.177 365,-307.1 365,-295.522"/>
<text text-anchor="middle" x="369.226" y="-302.085" font-family="Arial" font-size="10.00">station</text>
<text text-anchor="middle" x="360.774" y="-320.418" font-family="Arial" font-size="10.00">trains</text>
</g>
<!-- s3 -->
<g id="node3" class="node"><title>s3</title>
<a xlink:href="../examples/org/sdmlib/examples/patternrewriteops/model/Station.java" xlink:title="&lt;TABLE&gt;">
<polygon fill="none" stroke="black" points="147,-192 147,-209 206,-209 206,-192 147,-192"/>
<text text-anchor="start" x="150.5" y="-198.5" font-family="Arial" font-size="10.00"> </text>
<text text-anchor="start" x="154.5" y="-198.5" font-family="Arial" font-size="10.00">s3 :Station</text>
</a>
<polygon fill="none" stroke="black" points="147,-172 147,-192 206,-192 206,-172 147,-172"/>
<text text-anchor="start" x="152" y="-180" font-family="Arial" font-size="10.00">flag = &quot;&quot;</text>
</g>
<!-- s2&#45;&#45;s3 -->
<g id="edge6" class="edge"><title>s2&#45;&#45;s3</title>
<path fill="none" stroke="black" d="M327.712,-257.361C298.947,-245.926 258.248,-229.437 223,-214 219.864,-212.627 216.623,-211.176 213.378,-209.702"/>
<text text-anchor="middle" x="223.378" y="-207.097" font-family="Arial" font-size="10.00">next</text>
<text text-anchor="middle" x="317.729" y="-255.431" font-family="Arial" font-size="10.00">prev</text>
</g>
<!-- p9 -->
<g id="node9" class="node"><title>p9</title>
<a xlink:href="../examples/org/sdmlib/examples/patternrewriteops/model/Person.java" xlink:title="&lt;TABLE&gt;">
<polygon fill="none" stroke="black" points="240,-192 240,-209 299,-209 299,-192 240,-192"/>
<text text-anchor="start" x="243.5" y="-198.5" font-family="Arial" font-size="10.00"> </text>
<text text-anchor="start" x="247.5" y="-198.5" font-family="Arial" font-size="10.00">p9 :Person</text>
</a>
<polygon fill="none" stroke="black" points="240,-172 240,-192 299,-192 299,-172 240,-172"/>
<text text-anchor="start" x="245" y="-180" font-family="Arial" font-size="10.00">train = &quot;&quot;</text>
</g>
<!-- s2&#45;&#45;p9 -->
<g id="edge8" class="edge"><title>s2&#45;&#45;p9</title>
<path fill="none" stroke="black" d="M339.021,-250.351C325.361,-238.967 308.663,-225.052 295,-213.666"/>
<text text-anchor="middle" x="304.668" y="-213.722" font-family="Arial" font-size="10.00">people</text>
<text text-anchor="middle" x="329.353" y="-245.295" font-family="Arial" font-size="10.00">station</text>
</g>
<!-- p10 -->
<g id="node10" class="node"><title>p10</title>
<a xlink:href="../examples/org/sdmlib/examples/patternrewriteops/model/Person.java" xlink:title="&lt;TABLE&gt;">
<polygon fill="none" stroke="black" points="333,-192 333,-209 397,-209 397,-192 333,-192"/>
<text text-anchor="start" x="336.5" y="-198.5" font-family="Arial" font-size="10.00"> </text>
<text text-anchor="start" x="340.5" y="-198.5" font-family="Arial" font-size="10.00">p10 :Person</text>
</a>
<polygon fill="none" stroke="black" points="333,-172 333,-192 397,-192 397,-172 333,-172"/>
<text text-anchor="start" x="338" y="-180" font-family="Arial" font-size="10.00">train = &quot;&quot;</text>
</g>
<!-- s2&#45;&#45;p10 -->
<g id="edge10" class="edge"><title>s2&#45;&#45;p10</title>
<path fill="none" stroke="black" d="M365,-250.14C365,-238.759 365,-224.893 365,-213.557"/>
<text text-anchor="middle" x="369.226" y="-220.12" font-family="Arial" font-size="10.00">people</text>
<text text-anchor="middle" x="360.774" y="-238.577" font-family="Arial" font-size="10.00">station</text>
</g>
<!-- p11 -->
<g id="node11" class="node"><title>p11</title>
<a xlink:href="../examples/org/sdmlib/examples/patternrewriteops/model/Person.java" xlink:title="&lt;TABLE&gt;">
<polygon fill="none" stroke="black" points="431,-192 431,-209 495,-209 495,-192 431,-192"/>
<text text-anchor="start" x="434.5" y="-198.5" font-family="Arial" font-size="10.00"> </text>
<text text-anchor="start" x="438.5" y="-198.5" font-family="Arial" font-size="10.00">p11 :Person</text>
</a>
<polygon fill="none" stroke="black" points="431,-172 431,-192 495,-192 495,-172 431,-172"/>
<text text-anchor="start" x="436" y="-180" font-family="Arial" font-size="10.00">train = &quot;&quot;</text>
</g>
<!-- s2&#45;&#45;p11 -->
<g id="edge12" class="edge"><title>s2&#45;&#45;p11</title>
<path fill="none" stroke="black" d="M391.52,-250.351C405.465,-238.967 422.511,-225.052 436.459,-213.666"/>
<text text-anchor="middle" x="432.11" y="-220.172" font-family="Arial" font-size="10.00">people</text>
<text text-anchor="middle" x="395.868" y="-238.846" font-family="Arial" font-size="10.00">station</text>
</g>
<!-- s12 -->
<g id="node12" class="node"><title>s12</title>
<a xlink:href="../examples/org/sdmlib/examples/patternrewriteops/model/SignalFlag.java" xlink:title="&lt;TABLE&gt;">
<polygon fill="none" stroke="black" points="530,-182 530,-199 609,-199 609,-182 530,-182"/>
<text text-anchor="start" x="533.5" y="-188.5" font-family="Arial" font-size="10.00"> </text>
<text text-anchor="start" x="537.5" y="-188.5" font-family="Arial" font-size="10.00">s12 :SignalFlag</text>
</a>
</g>
<!-- s2&#45;&#45;s12 -->
<g id="edge4" class="edge"><title>s2&#45;&#45;s12</title>
<path fill="none" stroke="black" d="M402.417,-257.327C437.154,-243.704 488.869,-223.424 525.448,-209.079"/>
<text text-anchor="middle" x="518.553" y="-213.822" font-family="Arial" font-size="10.00">flag</text>
<text text-anchor="middle" x="409.311" y="-247.583" font-family="Arial" font-size="10.00">station</text>
</g>
<!-- s4 -->
<g id="node4" class="node"><title>s4</title>
<a xlink:href="../examples/org/sdmlib/examples/patternrewriteops/model/Station.java" xlink:title="&lt;TABLE&gt;">
<polygon fill="none" stroke="black" points="147,-105 147,-122 206,-122 206,-105 147,-105"/>
<text text-anchor="start" x="150.5" y="-111.5" font-family="Arial" font-size="10.00"> </text>
<text text-anchor="start" x="154.5" y="-111.5" font-family="Arial" font-size="10.00">s4 :Station</text>
</a>
</g>
<!-- s3&#45;&#45;s4 -->
<g id="edge14" class="edge"><title>s3&#45;&#45;s4</title>
<path fill="none" stroke="black" d="M176,-168.307C176,-156.886 176,-143.07 176,-132.366"/>
<text text-anchor="middle" x="180.226" y="-138.929" font-family="Arial" font-size="10.00">next</text>
<text text-anchor="middle" x="171.774" y="-156.744" font-family="Arial" font-size="10.00">prev</text>
</g>
<!-- s5 -->
<g id="node5" class="node"><title>s5</title>
<a xlink:href="../examples/org/sdmlib/examples/patternrewriteops/model/Station.java" xlink:title="&lt;TABLE&gt;">
<polygon fill="none" stroke="black" points="8,-38 8,-55 67,-55 67,-38 8,-38"/>
<text text-anchor="start" x="11.5" y="-44.5" font-family="Arial" font-size="10.00"> </text>
<text text-anchor="start" x="15.5" y="-44.5" font-family="Arial" font-size="10.00">s5 :Station</text>
</a>
<polygon fill="none" stroke="black" points="8,-4 8,-38 67,-38 67,-4 8,-4"/>
<text text-anchor="start" x="13" y="-26" font-family="Arial" font-size="10.00">flag = &quot;&quot;</text>
<text text-anchor="start" x="13" y="-12" font-family="Arial" font-size="10.00">next = &quot;&quot;</text>
</g>
<!-- s4&#45;&#45;s5 -->
<g id="edge18" class="edge"><title>s4&#45;&#45;s5</title>
<path fill="none" stroke="black" d="M145.224,-95.9144C127.013,-85.6919 103.559,-72.3303 83,-60 80.1663,-58.3005 77.2477,-56.5236 74.3202,-54.7223"/>
<text text-anchor="middle" x="84.2544" y="-53.3677" font-family="Arial" font-size="10.00">next</text>
<text text-anchor="middle" x="135.253" y="-92.6549" font-family="Arial" font-size="10.00">prev</text>
</g>
<!-- p6 -->
<g id="node6" class="node"><title>p6</title>
<a xlink:href="../examples/org/sdmlib/examples/patternrewriteops/model/Person.java" xlink:title="&lt;TABLE&gt;">
<polygon fill="none" stroke="black" points="101,-31 101,-48 160,-48 160,-31 101,-31"/>
<text text-anchor="start" x="104.5" y="-37.5" font-family="Arial" font-size="10.00"> </text>
<text text-anchor="start" x="108.5" y="-37.5" font-family="Arial" font-size="10.00">p6 :Person</text>
</a>
<polygon fill="none" stroke="black" points="101,-11 101,-31 160,-31 160,-11 101,-11"/>
<text text-anchor="start" x="106" y="-19" font-family="Arial" font-size="10.00">train = &quot;&quot;</text>
</g>
<!-- s4&#45;&#45;p6 -->
<g id="edge20" class="edge"><title>s4&#45;&#45;p6</title>
<path fill="none" stroke="black" d="M166.245,-95.6099C159.229,-83.1046 149.721,-66.1541 142.203,-52.7525"/>
<text text-anchor="middle" x="150.323" y="-56.0891" font-family="Arial" font-size="10.00">people</text>
<text text-anchor="middle" x="158.125" y="-87.2733" font-family="Arial" font-size="10.00">station</text>
</g>
<!-- p7 -->
<g id="node7" class="node"><title>p7</title>
<a xlink:href="../examples/org/sdmlib/examples/patternrewriteops/model/Person.java" xlink:title="&lt;TABLE&gt;">
<polygon fill="none" stroke="black" points="194,-31 194,-48 253,-48 253,-31 194,-31"/>
<text text-anchor="start" x="197.5" y="-37.5" font-family="Arial" font-size="10.00"> </text>
<text text-anchor="start" x="201.5" y="-37.5" font-family="Arial" font-size="10.00">p7 :Person</text>
</a>
<polygon fill="none" stroke="black" points="194,-11 194,-31 253,-31 253,-11 194,-11"/>
<text text-anchor="start" x="199" y="-19" font-family="Arial" font-size="10.00">train = &quot;&quot;</text>
</g>
<!-- s4&#45;&#45;p7 -->
<g id="edge22" class="edge"><title>s4&#45;&#45;p7</title>
<path fill="none" stroke="black" d="M185.967,-95.6099C193.135,-83.1046 202.851,-66.1541 210.532,-52.7525"/>
<text text-anchor="middle" x="209.692" y="-60.2171" font-family="Arial" font-size="10.00">people</text>
<text text-anchor="middle" x="186.808" y="-83.1453" font-family="Arial" font-size="10.00">station</text>
</g>
<!-- s8 -->
<g id="node8" class="node"><title>s8</title>
<a xlink:href="../examples/org/sdmlib/examples/patternrewriteops/model/SignalFlag.java" xlink:title="&lt;TABLE&gt;">
<polygon fill="none" stroke="black" points="287,-21 287,-38 361,-38 361,-21 287,-21"/>
<text text-anchor="start" x="290.5" y="-27.5" font-family="Arial" font-size="10.00"> </text>
<text text-anchor="start" x="294.5" y="-27.5" font-family="Arial" font-size="10.00">s8 :SignalFlag</text>
</a>
</g>
<!-- s4&#45;&#45;s8 -->
<g id="edge16" class="edge"><title>s4&#45;&#45;s8</title>
<path fill="none" stroke="black" d="M207.026,-95.8101C232.37,-81.7682 268.005,-62.0241 293.269,-48.0266"/>
<text text-anchor="middle" x="287.39" y="-53.6156" font-family="Arial" font-size="10.00">flag</text>
<text text-anchor="middle" x="212.905" y="-85.2211" font-family="Arial" font-size="10.00">station</text>
</g>
</g>
</svg>
