<?xml version="1.0" encoding="UTF-8" standalone="no"?>
<!DOCTYPE svg PUBLIC "-//W3C//DTD SVG 1.1//EN"
 "http://www.w3.org/Graphics/SVG/1.1/DTD/svg11.dtd">
<!-- Generated by graphviz version 2.26.3 (20100126.1600)
 -->
<!-- Title: ObjectDiagram Pages: 1 -->
<svg width="648pt" height="332pt"
 viewBox="0.00 0.00 648.00 332.00" xmlns="http://www.w3.org/2000/svg" xmlns:xlink="http://www.w3.org/1999/xlink">
<g id="graph1" class="graph" transform="scale(1 1) rotate(0) translate(4 328)">
<title>ObjectDiagram</title>
<polygon fill="white" stroke="white" points="-4,5 -4,-328 645,-328 645,5 -4,5"/>
<!-- t1 -->
<g id="node1" class="node"><title>t1</title>
<polygon fill="none" stroke="black" points="354,-297 354,-314 403,-314 403,-297 354,-297"/>
<text text-anchor="start" x="357.5" y="-303.167" font-family="Times Roman,serif" font-size="10.00"> </text>
<text text-anchor="start" x="361.5" y="-303.167" font-family="Times Roman,serif" font-size="10.00">t1 :Train</text>
</g>
<!-- s2 -->
<g id="node2" class="node"><title>s2</title>
<polygon fill="none" stroke="black" points="347,-225 347,-242 410,-242 410,-225 347,-225"/>
<text text-anchor="start" x="350.5" y="-231.167" font-family="Times Roman,serif" font-size="10.00"> </text>
<text text-anchor="start" x="354.5" y="-231.167" font-family="Times Roman,serif" font-size="10.00">s2 :Station</text>
</g>
<!-- t1&#45;&#45;s2 -->
<g id="edge2" class="edge"><title>t1&#45;&#45;s2</title>
<path fill="none" stroke="black" d="M378,-287.831C378,-277 378,-263.288 378,-252.413"/>
<text text-anchor="middle" x="382.226" y="-258.476" font-family="Times Roman,serif" font-size="10.00">station</text>
<text text-anchor="middle" x="373.774" y="-275.768" font-family="Times Roman,serif" font-size="10.00">trains</text>
</g>
<!-- s3 -->
<g id="node3" class="node"><title>s3</title>
<polygon fill="none" stroke="black" points="152,-153 152,-170 215,-170 215,-153 152,-153"/>
<text text-anchor="start" x="155.5" y="-159.167" font-family="Times Roman,serif" font-size="10.00"> </text>
<text text-anchor="start" x="159.5" y="-159.167" font-family="Times Roman,serif" font-size="10.00">s3 :Station</text>
</g>
<!-- s2&#45;&#45;s3 -->
<g id="edge4" class="edge"><title>s2&#45;&#45;s3</title>
<path fill="none" stroke="black" d="M338.976,-219.746C309.337,-208.9 267.577,-193.576 231,-180 228.08,-178.916 225.061,-177.792 222.025,-176.659"/>
<text text-anchor="middle" x="231.993" y="-172.867" font-family="Times Roman,serif" font-size="10.00">next</text>
<text text-anchor="middle" x="329.013" y="-217.599" font-family="Times Roman,serif" font-size="10.00">prev</text>
</g>
<!-- p9 -->
<g id="node9" class="node"><title>p9</title>
<polygon fill="none" stroke="black" points="248,-153 248,-170 310,-170 310,-153 248,-153"/>
<text text-anchor="start" x="251.5" y="-159.167" font-family="Times Roman,serif" font-size="10.00"> </text>
<text text-anchor="start" x="255.5" y="-159.167" font-family="Times Roman,serif" font-size="10.00">p9 :Person</text>
</g>
<!-- s2&#45;&#45;p9 -->
<g id="edge6" class="edge"><title>s2&#45;&#45;p9</title>
<path fill="none" stroke="black" d="M353.018,-215.831C338.01,-204.917 318.98,-191.076 303.974,-180.163"/>
<text text-anchor="middle" x="313.789" y="-179.076" font-family="Times Roman,serif" font-size="10.00">people</text>
<text text-anchor="middle" x="343.203" y="-210.919" font-family="Times Roman,serif" font-size="10.00">station</text>
</g>
<!-- p10 -->
<g id="node10" class="node"><title>p10</title>
<polygon fill="none" stroke="black" points="344,-153 344,-170 412,-170 412,-153 344,-153"/>
<text text-anchor="start" x="347.5" y="-159.167" font-family="Times Roman,serif" font-size="10.00"> </text>
<text text-anchor="start" x="351.5" y="-159.167" font-family="Times Roman,serif" font-size="10.00">p10 :Person</text>
</g>
<!-- s2&#45;&#45;p10 -->
<g id="edge8" class="edge"><title>s2&#45;&#45;p10</title>
<path fill="none" stroke="black" d="M378,-215.831C378,-205 378,-191.288 378,-180.413"/>
<text text-anchor="middle" x="382.226" y="-186.476" font-family="Times Roman,serif" font-size="10.00">people</text>
<text text-anchor="middle" x="373.774" y="-203.768" font-family="Times Roman,serif" font-size="10.00">station</text>
</g>
<!-- p11 -->
<g id="node11" class="node"><title>p11</title>
<polygon fill="none" stroke="black" points="446,-153 446,-170 514,-170 514,-153 446,-153"/>
<text text-anchor="start" x="449.5" y="-159.167" font-family="Times Roman,serif" font-size="10.00"> </text>
<text text-anchor="start" x="453.5" y="-159.167" font-family="Times Roman,serif" font-size="10.00">p11 :Person</text>
</g>
<!-- s2&#45;&#45;p11 -->
<g id="edge10" class="edge"><title>s2&#45;&#45;p11</title>
<path fill="none" stroke="black" d="M403.739,-215.831C419.201,-204.917 438.808,-191.076 454.269,-180.163"/>
<text text-anchor="middle" x="449.302" y="-185.842" font-family="Times Roman,serif" font-size="10.00">people</text>
<text text-anchor="middle" x="408.706" y="-204.152" font-family="Times Roman,serif" font-size="10.00">station</text>
</g>
<!-- s12 -->
<g id="node12" class="node"><title>s12</title>
<polygon fill="none" stroke="black" points="548,-153 548,-170 632,-170 632,-153 548,-153"/>
<text text-anchor="start" x="551.5" y="-159.167" font-family="Times Roman,serif" font-size="10.00"> </text>
<text text-anchor="start" x="555.5" y="-159.167" font-family="Times Roman,serif" font-size="10.00">s12 :SignalFlag</text>
</g>
<!-- s2&#45;&#45;s12 -->
<g id="edge12" class="edge"><title>s2&#45;&#45;s12</title>
<path fill="none" stroke="black" d="M417.379,-220.626C451.985,-208.873 502.522,-191.709 539.98,-178.988"/>
<text text-anchor="middle" x="532.758" y="-182.904" font-family="Times Roman,serif" font-size="10.00">flag</text>
<text text-anchor="middle" x="424.601" y="-210.71" font-family="Times Roman,serif" font-size="10.00">station</text>
</g>
<!-- s4 -->
<g id="node4" class="node"><title>s4</title>
<polygon fill="none" stroke="black" points="152,-81 152,-98 215,-98 215,-81 152,-81"/>
<text text-anchor="start" x="155.5" y="-87.1667" font-family="Times Roman,serif" font-size="10.00"> </text>
<text text-anchor="start" x="159.5" y="-87.1667" font-family="Times Roman,serif" font-size="10.00">s4 :Station</text>
</g>
<!-- s3&#45;&#45;s4 -->
<g id="edge14" class="edge"><title>s3&#45;&#45;s4</title>
<path fill="none" stroke="black" d="M183,-143.831C183,-133 183,-119.288 183,-108.413"/>
<text text-anchor="middle" x="187.226" y="-114.476" font-family="Times Roman,serif" font-size="10.00">next</text>
<text text-anchor="middle" x="178.774" y="-131.768" font-family="Times Roman,serif" font-size="10.00">prev</text>
</g>
<!-- s5 -->
<g id="node5" class="node"><title>s5</title>
<polygon fill="none" stroke="black" points="8,-9 8,-26 71,-26 71,-9 8,-9"/>
<text text-anchor="start" x="11.5" y="-15.1667" font-family="Times Roman,serif" font-size="10.00"> </text>
<text text-anchor="start" x="15.5" y="-15.1667" font-family="Times Roman,serif" font-size="10.00">s5 :Station</text>
</g>
<!-- s4&#45;&#45;s5 -->
<g id="edge16" class="edge"><title>s4&#45;&#45;s5</title>
<path fill="none" stroke="black" d="M146.663,-71.8314C124.75,-60.875 96.9415,-46.9708 75.076,-36.038"/>
<text text-anchor="middle" x="85.0723" y="-33.3111" font-family="Times Roman,serif" font-size="10.00">next</text>
<text text-anchor="middle" x="136.666" y="-68.5582" font-family="Times Roman,serif" font-size="10.00">prev</text>
</g>
<!-- p6 -->
<g id="node6" class="node"><title>p6</title>
<polygon fill="none" stroke="black" points="104,-9 104,-26 166,-26 166,-9 104,-9"/>
<text text-anchor="start" x="107.5" y="-15.1667" font-family="Times Roman,serif" font-size="10.00"> </text>
<text text-anchor="start" x="111.5" y="-15.1667" font-family="Times Roman,serif" font-size="10.00">p6 :Person</text>
</g>
<!-- s4&#45;&#45;p6 -->
<g id="edge18" class="edge"><title>s4&#45;&#45;p6</title>
<path fill="none" stroke="black" d="M170.888,-71.8314C163.667,-61 154.525,-47.2876 147.276,-36.4133"/>
<text text-anchor="middle" x="155.819" y="-38.6099" font-family="Times Roman,serif" font-size="10.00">people</text>
<text text-anchor="middle" x="162.344" y="-63.6347" font-family="Times Roman,serif" font-size="10.00">station</text>
</g>
<!-- p7 -->
<g id="node7" class="node"><title>p7</title>
<polygon fill="none" stroke="black" points="200,-9 200,-26 262,-26 262,-9 200,-9"/>
<text text-anchor="start" x="203.5" y="-15.1667" font-family="Times Roman,serif" font-size="10.00"> </text>
<text text-anchor="start" x="207.5" y="-15.1667" font-family="Times Roman,serif" font-size="10.00">p7 :Person</text>
</g>
<!-- s4&#45;&#45;p7 -->
<g id="edge20" class="edge"><title>s4&#45;&#45;p7</title>
<path fill="none" stroke="black" d="M195.112,-71.8314C202.333,-61 211.475,-47.2876 218.724,-36.4133"/>
<text text-anchor="middle" x="217.214" y="-43.2985" font-family="Times Roman,serif" font-size="10.00">people</text>
<text text-anchor="middle" x="196.623" y="-58.9462" font-family="Times Roman,serif" font-size="10.00">station</text>
</g>
<!-- s8 -->
<g id="node8" class="node"><title>s8</title>
<polygon fill="none" stroke="black" points="296,-9 296,-26 374,-26 374,-9 296,-9"/>
<text text-anchor="start" x="299.5" y="-15.1667" font-family="Times Roman,serif" font-size="10.00"> </text>
<text text-anchor="start" x="303.5" y="-15.1667" font-family="Times Roman,serif" font-size="10.00">s8 :SignalFlag</text>
</g>
<!-- s4&#45;&#45;s8 -->
<g id="edge22" class="edge"><title>s4&#45;&#45;s8</title>
<path fill="none" stroke="black" d="M221.356,-71.8314C244.486,-60.875 273.84,-46.9708 296.92,-36.038"/>
<text text-anchor="middle" x="290.538" y="-40.7371" font-family="Times Roman,serif" font-size="10.00">flag</text>
<text text-anchor="middle" x="227.737" y="-61.1322" font-family="Times Roman,serif" font-size="10.00">station</text>
</g>
</g>
</svg>
