<?xml version="1.0" encoding="UTF-8" standalone="no"?>
<!DOCTYPE svg PUBLIC "-//W3C//DTD SVG 1.1//EN"
 "http://www.w3.org/Graphics/SVG/1.1/DTD/svg11.dtd">
<!-- Generated by graphviz version 2.26.3 (20100126.1600)
 -->
<!-- Title: ObjectDiagram Pages: 1 -->
<svg width="735pt" height="792pt"
 viewBox="0.00 0.00 735.00 792.00" xmlns="http://www.w3.org/2000/svg" xmlns:xlink="http://www.w3.org/1999/xlink">
<g id="graph1" class="graph" transform="scale(1 1) rotate(0) translate(4 788)">
<title>ObjectDiagram</title>
<polygon fill="white" stroke="white" points="-4,5 -4,-788 732,-788 732,5 -4,5"/>
<!-- n2 -->
<g id="node1" class="node"><title>n2</title>
<polygon fill="none" stroke="black" points="270,-762 270,-779 343,-779 343,-762 270,-762"/>
<text text-anchor="start" x="282.5" y="-768.167" font-family="Times Roman,serif" font-size="10.00"> </text>
<text text-anchor="start" x="286.5" y="-768.167" font-family="Times Roman,serif" font-size="10.00">n2 :Node</text>
<polygon fill="none" stroke="black" points="270,-742 270,-762 343,-762 343,-742 270,-742"/>
<text text-anchor="start" x="275.5" y="-749.667" font-family="Times Roman,serif" font-size="10.00">name = &quot;n1&quot;</text>
</g>
<!-- e3 -->
<g id="node2" class="node"><title>e3</title>
<polygon fill="none" stroke="black" points="230,-680 230,-697 309,-697 309,-680 230,-680"/>
<text text-anchor="start" x="246" y="-686.167" font-family="Times Roman,serif" font-size="10.00"> </text>
<text text-anchor="start" x="250" y="-686.167" font-family="Times Roman,serif" font-size="10.00">e3 :Edge</text>
<polygon fill="none" stroke="black" points="230,-660 230,-680 309,-680 309,-660 230,-660"/>
<text text-anchor="start" x="235.5" y="-667.667" font-family="Times Roman,serif" font-size="10.00">name = &quot;e10&quot;</text>
</g>
<!-- n2&#45;&#45;e3 -->
<g id="edge2" class="edge"><title>n2&#45;&#45;e3</title>
<path fill="none" stroke="black" d="M295.693,-738.158C290.562,-726.785 284.376,-713.076 279.251,-701.719"/>
<text text-anchor="middle" x="286.831" y="-705.242" font-family="Times Roman,serif" font-size="10.00">outEdges</text>
<text text-anchor="middle" x="288.114" y="-728.636" font-family="Times Roman,serif" font-size="10.00">src</text>
</g>
<!-- e7 -->
<g id="node6" class="node"><title>e7</title>
<polygon fill="none" stroke="black" points="305,-352 305,-369 384,-369 384,-352 305,-352"/>
<text text-anchor="start" x="321" y="-358.167" font-family="Times Roman,serif" font-size="10.00"> </text>
<text text-anchor="start" x="325" y="-358.167" font-family="Times Roman,serif" font-size="10.00">e7 :Edge</text>
<polygon fill="none" stroke="black" points="305,-332 305,-352 384,-352 384,-332 305,-332"/>
<text text-anchor="start" x="310.5" y="-339.667" font-family="Times Roman,serif" font-size="10.00">name = &quot;e12&quot;</text>
</g>
<!-- n2&#45;&#45;e7 -->
<g id="edge4" class="edge"><title>n2&#45;&#45;e7</title>
<path fill="none" stroke="black" d="M314.718,-738.3C325.937,-706.996 344,-648.585 344,-597 344,-597 344,-597 344,-515 344,-464.462 344,-405.163 344,-373.549"/>
<text text-anchor="middle" x="348.226" y="-379.612" font-family="Times Roman,serif" font-size="10.00">inEdges</text>
<text text-anchor="middle" x="313.711" y="-725.35" font-family="Times Roman,serif" font-size="10.00">tgt</text>
</g>
<!-- n4 -->
<g id="node3" class="node"><title>n4</title>
<polygon fill="none" stroke="black" points="233,-598 233,-615 306,-615 306,-598 233,-598"/>
<text text-anchor="start" x="245.5" y="-604.167" font-family="Times Roman,serif" font-size="10.00"> </text>
<text text-anchor="start" x="249.5" y="-604.167" font-family="Times Roman,serif" font-size="10.00">n4 :Node</text>
<polygon fill="none" stroke="black" points="233,-578 233,-598 306,-598 306,-578 233,-578"/>
<text text-anchor="start" x="238.5" y="-585.667" font-family="Times Roman,serif" font-size="10.00">name = &quot;n2&quot;</text>
</g>
<!-- e3&#45;&#45;n4 -->
<g id="edge6" class="edge"><title>e3&#45;&#45;n4</title>
<path fill="none" stroke="black" d="M269,-656.158C269,-644.785 269,-631.076 269,-619.719"/>
<text text-anchor="middle" x="273.226" y="-625.782" font-family="Times Roman,serif" font-size="10.00">tgt</text>
<text text-anchor="middle" x="264.774" y="-644.095" font-family="Times Roman,serif" font-size="10.00">inEdges</text>
</g>
<!-- e5 -->
<g id="node4" class="node"><title>e5</title>
<polygon fill="none" stroke="black" points="230,-516 230,-533 309,-533 309,-516 230,-516"/>
<text text-anchor="start" x="246" y="-522.167" font-family="Times Roman,serif" font-size="10.00"> </text>
<text text-anchor="start" x="250" y="-522.167" font-family="Times Roman,serif" font-size="10.00">e5 :Edge</text>
<polygon fill="none" stroke="black" points="230,-496 230,-516 309,-516 309,-496 230,-496"/>
<text text-anchor="start" x="235.5" y="-503.667" font-family="Times Roman,serif" font-size="10.00">name = &quot;e11&quot;</text>
</g>
<!-- n4&#45;&#45;e5 -->
<g id="edge8" class="edge"><title>n4&#45;&#45;e5</title>
<path fill="none" stroke="black" d="M269,-574.158C269,-562.785 269,-549.076 269,-537.719"/>
<text text-anchor="middle" x="273.226" y="-543.782" font-family="Times Roman,serif" font-size="10.00">outEdges</text>
<text text-anchor="middle" x="264.774" y="-562.095" font-family="Times Roman,serif" font-size="10.00">src</text>
</g>
<!-- n6 -->
<g id="node5" class="node"><title>n6</title>
<polygon fill="none" stroke="black" points="233,-434 233,-451 306,-451 306,-434 233,-434"/>
<text text-anchor="start" x="245.5" y="-440.167" font-family="Times Roman,serif" font-size="10.00"> </text>
<text text-anchor="start" x="249.5" y="-440.167" font-family="Times Roman,serif" font-size="10.00">n6 :Node</text>
<polygon fill="none" stroke="black" points="233,-414 233,-434 306,-434 306,-414 233,-414"/>
<text text-anchor="start" x="238.5" y="-421.667" font-family="Times Roman,serif" font-size="10.00">name = &quot;n3&quot;</text>
</g>
<!-- e5&#45;&#45;n6 -->
<g id="edge10" class="edge"><title>e5&#45;&#45;n6</title>
<path fill="none" stroke="black" d="M269,-492.158C269,-480.785 269,-467.076 269,-455.719"/>
<text text-anchor="middle" x="273.226" y="-461.782" font-family="Times Roman,serif" font-size="10.00">tgt</text>
<text text-anchor="middle" x="264.774" y="-480.095" font-family="Times Roman,serif" font-size="10.00">inEdges</text>
</g>
<!-- n6&#45;&#45;e7 -->
<g id="edge12" class="edge"><title>n6&#45;&#45;e7</title>
<path fill="none" stroke="black" d="M289.892,-410.158C300.294,-398.785 312.833,-385.076 323.22,-373.719"/>
<text text-anchor="middle" x="320.222" y="-380.259" font-family="Times Roman,serif" font-size="10.00">outEdges</text>
<text text-anchor="middle" x="292.89" y="-397.618" font-family="Times Roman,serif" font-size="10.00">src</text>
</g>
<!-- e8 -->
<g id="node7" class="node"><title>e8</title>
<polygon fill="none" stroke="black" points="137,-352 137,-369 216,-369 216,-352 137,-352"/>
<text text-anchor="start" x="153" y="-358.167" font-family="Times Roman,serif" font-size="10.00"> </text>
<text text-anchor="start" x="157" y="-358.167" font-family="Times Roman,serif" font-size="10.00">e8 :Edge</text>
<polygon fill="none" stroke="black" points="137,-332 137,-352 216,-352 216,-332 137,-332"/>
<text text-anchor="start" x="142.5" y="-339.667" font-family="Times Roman,serif" font-size="10.00">name = &quot;e13&quot;</text>
</g>
<!-- n6&#45;&#45;e8 -->
<g id="edge14" class="edge"><title>n6&#45;&#45;e8</title>
<path fill="none" stroke="black" d="M243.094,-410.158C230.195,-398.785 214.647,-385.076 201.767,-373.719"/>
<text text-anchor="middle" x="211.36" y="-373.543" font-family="Times Roman,serif" font-size="10.00">outEdges</text>
<text text-anchor="middle" x="233.501" y="-404.334" font-family="Times Roman,serif" font-size="10.00">src</text>
</g>
<!-- e13 -->
<g id="node12" class="node"><title>e13</title>
<polygon fill="none" stroke="black" points="232,-24 232,-41 311,-41 311,-24 232,-24"/>
<text text-anchor="start" x="245" y="-30.1667" font-family="Times Roman,serif" font-size="10.00"> </text>
<text text-anchor="start" x="249" y="-30.1667" font-family="Times Roman,serif" font-size="10.00">e13 :Edge</text>
<polygon fill="none" stroke="black" points="232,-4 232,-24 311,-24 311,-4 232,-4"/>
<text text-anchor="start" x="237.5" y="-11.6667" font-family="Times Roman,serif" font-size="10.00">name = &quot;e15&quot;</text>
</g>
<!-- n6&#45;&#45;e13 -->
<g id="edge16" class="edge"><title>n6&#45;&#45;e13</title>
<path fill="none" stroke="black" d="M269,-410.451C269,-378.837 269,-319.538 269,-269 269,-269 269,-269 269,-187 269,-136.458 269.961,-77.161 270.551,-45.5477"/>
<text text-anchor="middle" x="274.612" y="-51.686" font-family="Times Roman,serif" font-size="10.00">inEdges</text>
<text text-anchor="middle" x="264.774" y="-398.388" font-family="Times Roman,serif" font-size="10.00">tgt</text>
</g>
<!-- n9 -->
<g id="node8" class="node"><title>n9</title>
<polygon fill="none" stroke="black" points="131,-270 131,-287 204,-287 204,-270 131,-270"/>
<text text-anchor="start" x="143.5" y="-276.167" font-family="Times Roman,serif" font-size="10.00"> </text>
<text text-anchor="start" x="147.5" y="-276.167" font-family="Times Roman,serif" font-size="10.00">n9 :Node</text>
<polygon fill="none" stroke="black" points="131,-250 131,-270 204,-270 204,-250 131,-250"/>
<text text-anchor="start" x="136.5" y="-257.667" font-family="Times Roman,serif" font-size="10.00">name = &quot;n4&quot;</text>
</g>
<!-- e8&#45;&#45;n9 -->
<g id="edge18" class="edge"><title>e8&#45;&#45;n9</title>
<path fill="none" stroke="black" d="M173.493,-328.158C172.245,-316.785 170.74,-303.076 169.494,-291.719"/>
<text text-anchor="middle" x="174.683" y="-297.267" font-family="Times Roman,serif" font-size="10.00">tgt</text>
<text text-anchor="middle" x="168.303" y="-316.611" font-family="Times Roman,serif" font-size="10.00">inEdges</text>
</g>
<!-- e10 -->
<g id="node9" class="node"><title>e10</title>
<polygon fill="none" stroke="black" points="123,-188 123,-205 202,-205 202,-188 123,-188"/>
<text text-anchor="start" x="136" y="-194.167" font-family="Times Roman,serif" font-size="10.00"> </text>
<text text-anchor="start" x="140" y="-194.167" font-family="Times Roman,serif" font-size="10.00">e10 :Edge</text>
<polygon fill="none" stroke="black" points="123,-168 123,-188 202,-188 202,-168 123,-168"/>
<text text-anchor="start" x="128.5" y="-175.667" font-family="Times Roman,serif" font-size="10.00">name = &quot;e14&quot;</text>
</g>
<!-- n9&#45;&#45;e10 -->
<g id="edge20" class="edge"><title>n9&#45;&#45;e10</title>
<path fill="none" stroke="black" d="M165.607,-246.158C164.914,-234.785 164.078,-221.076 163.385,-209.719"/>
<text text-anchor="middle" x="168.155" y="-215.508" font-family="Times Roman,serif" font-size="10.00">outEdges</text>
<text text-anchor="middle" x="160.837" y="-234.369" font-family="Times Roman,serif" font-size="10.00">src</text>
</g>
<!-- n11 -->
<g id="node10" class="node"><title>n11</title>
<polygon fill="none" stroke="black" points="124,-106 124,-123 197,-123 197,-106 124,-106"/>
<text text-anchor="start" x="133.5" y="-112.167" font-family="Times Roman,serif" font-size="10.00"> </text>
<text text-anchor="start" x="137.5" y="-112.167" font-family="Times Roman,serif" font-size="10.00">n11 :Node</text>
<polygon fill="none" stroke="black" points="124,-86 124,-106 197,-106 197,-86 124,-86"/>
<text text-anchor="start" x="129.5" y="-93.6667" font-family="Times Roman,serif" font-size="10.00">name = &quot;n5&quot;</text>
</g>
<!-- e10&#45;&#45;n11 -->
<g id="edge22" class="edge"><title>e10&#45;&#45;n11</title>
<path fill="none" stroke="black" d="M161.443,-164.158C161.165,-152.785 160.831,-139.076 160.554,-127.719"/>
<text text-anchor="middle" x="165" y="-133.676" font-family="Times Roman,serif" font-size="10.00">tgt</text>
<text text-anchor="middle" x="156.997" y="-152.201" font-family="Times Roman,serif" font-size="10.00">inEdges</text>
</g>
<!-- e12 -->
<g id="node11" class="node"><title>e12</title>
<polygon fill="none" stroke="black" points="120,-24 120,-41 199,-41 199,-24 120,-24"/>
<text text-anchor="start" x="133" y="-30.1667" font-family="Times Roman,serif" font-size="10.00"> </text>
<text text-anchor="start" x="137" y="-30.1667" font-family="Times Roman,serif" font-size="10.00">e12 :Edge</text>
<polygon fill="none" stroke="black" points="120,-4 120,-24 199,-24 199,-4 120,-4"/>
<text text-anchor="start" x="125.5" y="-11.6667" font-family="Times Roman,serif" font-size="10.00">name = &quot;e18&quot;</text>
</g>
<!-- n11&#45;&#45;e12 -->
<g id="edge24" class="edge"><title>n11&#45;&#45;e12</title>
<path fill="none" stroke="black" d="M159.721,-82.1584C159.583,-70.7851 159.416,-57.0756 159.277,-45.7191"/>
<text text-anchor="middle" x="163.613" y="-51.7299" font-family="Times Roman,serif" font-size="10.00">outEdges</text>
<text text-anchor="middle" x="155.385" y="-70.1476" font-family="Times Roman,serif" font-size="10.00">src</text>
</g>
<!-- n11&#45;&#45;e13 -->
<g id="edge26" class="edge"><title>n11&#45;&#45;e13</title>
<path fill="none" stroke="black" d="M190.625,-82.3761C206.154,-70.904 224.96,-57.0118 240.475,-45.5501"/>
<text text-anchor="middle" x="235.696" y="-51.3345" font-family="Times Roman,serif" font-size="10.00">outEdges</text>
<text text-anchor="middle" x="195.404" y="-70.5917" font-family="Times Roman,serif" font-size="10.00">src</text>
</g>
<!-- e14 -->
<g id="node13" class="node"><title>e14</title>
<polygon fill="none" stroke="black" points="8,-24 8,-41 87,-41 87,-24 8,-24"/>
<text text-anchor="start" x="21" y="-30.1667" font-family="Times Roman,serif" font-size="10.00"> </text>
<text text-anchor="start" x="25" y="-30.1667" font-family="Times Roman,serif" font-size="10.00">e14 :Edge</text>
<polygon fill="none" stroke="black" points="8,-4 8,-24 87,-24 87,-4 8,-4"/>
<text text-anchor="start" x="13.5" y="-11.6667" font-family="Times Roman,serif" font-size="10.00">name = &quot;e19&quot;</text>
</g>
<!-- n11&#45;&#45;e14 -->
<g id="edge28" class="edge"><title>n11&#45;&#45;e14</title>
<path fill="none" stroke="black" d="M128.823,-82.3761C113.014,-70.904 93.8699,-57.0118 78.0751,-45.5501"/>
<text text-anchor="middle" x="87.8925" y="-44.4525" font-family="Times Roman,serif" font-size="10.00">inEdges</text>
<text text-anchor="middle" x="119.006" y="-77.4736" font-family="Times Roman,serif" font-size="10.00">tgt</text>
</g>
<!-- n15 -->
<g id="node14" class="node"><title>n15</title>
<polygon fill="none" stroke="black" points="376,-762 376,-779 449,-779 449,-762 376,-762"/>
<text text-anchor="start" x="385.5" y="-768.167" font-family="Times Roman,serif" font-size="10.00"> </text>
<text text-anchor="start" x="389.5" y="-768.167" font-family="Times Roman,serif" font-size="10.00">n15 :Node</text>
<polygon fill="none" stroke="black" points="376,-742 376,-762 449,-762 449,-742 376,-742"/>
<text text-anchor="start" x="381.5" y="-749.667" font-family="Times Roman,serif" font-size="10.00">name = &quot;n6&quot;</text>
</g>
<!-- n16 -->
<g id="node15" class="node"><title>n16</title>
<polygon fill="none" stroke="black" points="482,-762 482,-779 555,-779 555,-762 482,-762"/>
<text text-anchor="start" x="491.5" y="-768.167" font-family="Times Roman,serif" font-size="10.00"> </text>
<text text-anchor="start" x="495.5" y="-768.167" font-family="Times Roman,serif" font-size="10.00">n16 :Node</text>
<polygon fill="none" stroke="black" points="482,-742 482,-762 555,-762 555,-742 482,-742"/>
<text text-anchor="start" x="487.5" y="-749.667" font-family="Times Roman,serif" font-size="10.00">name = &quot;n7&quot;</text>
</g>
<!-- n17 -->
<g id="node16" class="node"><title>n17</title>
<polygon fill="none" stroke="black" points="588,-762 588,-779 661,-779 661,-762 588,-762"/>
<text text-anchor="start" x="597.5" y="-768.167" font-family="Times Roman,serif" font-size="10.00"> </text>
<text text-anchor="start" x="601.5" y="-768.167" font-family="Times Roman,serif" font-size="10.00">n17 :Node</text>
<polygon fill="none" stroke="black" points="588,-742 588,-762 661,-762 661,-742 588,-742"/>
<text text-anchor="start" x="593.5" y="-749.667" font-family="Times Roman,serif" font-size="10.00">name = &quot;n8&quot;</text>
</g>
<!-- e18 -->
<g id="node17" class="node"><title>e18</title>
<polygon fill="none" stroke="black" points="529,-680 529,-697 608,-697 608,-680 529,-680"/>
<text text-anchor="start" x="542" y="-686.167" font-family="Times Roman,serif" font-size="10.00"> </text>
<text text-anchor="start" x="546" y="-686.167" font-family="Times Roman,serif" font-size="10.00">e18 :Edge</text>
<polygon fill="none" stroke="black" points="529,-660 529,-680 608,-680 608,-660 529,-660"/>
<text text-anchor="start" x="534.5" y="-667.667" font-family="Times Roman,serif" font-size="10.00">name = &quot;e16&quot;</text>
</g>
<!-- n17&#45;&#45;e18 -->
<g id="edge30" class="edge"><title>n17&#45;&#45;e18</title>
<path fill="none" stroke="black" d="M608.401,-738.158C600.634,-726.785 591.271,-713.076 583.515,-701.719"/>
<text text-anchor="middle" x="592.117" y="-703.82" font-family="Times Roman,serif" font-size="10.00">outEdges_inEdges</text>
<text text-anchor="middle" x="599.8" y="-730.058" font-family="Times Roman,serif" font-size="10.00">src_tgt</text>
</g>
<!-- e19 -->
<g id="node18" class="node"><title>e19</title>
<polygon fill="none" stroke="black" points="641,-680 641,-697 720,-697 720,-680 641,-680"/>
<text text-anchor="start" x="654" y="-686.167" font-family="Times Roman,serif" font-size="10.00"> </text>
<text text-anchor="start" x="658" y="-686.167" font-family="Times Roman,serif" font-size="10.00">e19 :Edge</text>
<polygon fill="none" stroke="black" points="641,-660 641,-680 720,-680 720,-660 641,-660"/>
<text text-anchor="start" x="646.5" y="-667.667" font-family="Times Roman,serif" font-size="10.00">name = &quot;e17&quot;</text>
</g>
<!-- n17&#45;&#45;e19 -->
<g id="edge32" class="edge"><title>n17&#45;&#45;e19</title>
<path fill="none" stroke="black" d="M639.599,-738.158C647.366,-726.785 656.729,-713.076 664.485,-701.719"/>
<text text-anchor="middle" x="662.863" y="-708.587" font-family="Times Roman,serif" font-size="10.00">outEdges_inEdges</text>
<text text-anchor="middle" x="641.22" y="-725.291" font-family="Times Roman,serif" font-size="10.00">src_tgt</text>
</g>
</g>
</svg>
