<?xml version="1.0" encoding="UTF-8" standalone="no"?>
<!DOCTYPE svg PUBLIC "-//W3C//DTD SVG 1.1//EN"
 "http://www.w3.org/Graphics/SVG/1.1/DTD/svg11.dtd">
<!-- Generated by graphviz version 2.26.3 (20100126.1600)
 -->
<!-- Title: ClassDiagram Pages: 1 -->
<svg width="222pt" height="176pt"
 viewBox="0.00 0.00 222.00 176.00" xmlns="http://www.w3.org/2000/svg" xmlns:xlink="http://www.w3.org/1999/xlink">
<g id="graph1" class="graph" transform="scale(1 1) rotate(0) translate(4 172)">
<title>ClassDiagram</title>
<polygon fill="white" stroke="white" points="-4,5 -4,-172 219,-172 219,5 -4,5"/>
<!-- _Greeting -->
<g id="node1" class="node"><title>_Greeting</title>
<a xlink:href="../examples/org/sdmlib/examples/helloworld/Greeting.java" xlink:title="&lt;TABLE&gt;">
<polygon fill="none" stroke="black" points="87,-146 87,-163 136,-163 136,-146 87,-146"/>
<text text-anchor="start" x="90.5" y="-152.167" font-family="Times Roman,serif" font-size="10.00">Greeting</text>
</a>
<polygon fill="none" stroke="black" points="87,-126 87,-146 136,-146 136,-126 87,-126"/>
<text text-anchor="start" x="109.5" y="-133.667" font-family="Times Roman,serif" font-size="10.00"> </text>
<polygon fill="none" stroke="black" points="87,-106 87,-126 136,-126 136,-106 87,-106"/>
<text text-anchor="start" x="109.5" y="-113.667" font-family="Times Roman,serif" font-size="10.00"> </text>
</g>
<!-- _GreetingMessage -->
<g id="node2" class="node"><title>_GreetingMessage</title>
<a xlink:href="../examples/org/sdmlib/examples/helloworld/GreetingMessage.java" xlink:title="&lt;TABLE&gt;">
<polygon fill="none" stroke="black" points="8,-44 8,-61 99,-61 99,-44 8,-44"/>
<text text-anchor="start" x="11.5" y="-50.1667" font-family="Times Roman,serif" font-size="10.00">GreetingMessage</text>
</a>
<polygon fill="none" stroke="black" points="8,-24 8,-44 99,-44 99,-24 8,-24"/>
<text text-anchor="start" x="13" y="-31.6667" font-family="Times Roman,serif" font-size="10.00">text :String</text>
<polygon fill="none" stroke="black" points="8,-4 8,-24 99,-24 99,-4 8,-4"/>
<text text-anchor="start" x="51.5" y="-11.6667" font-family="Times Roman,serif" font-size="10.00"> </text>
</g>
<!-- _Greeting&#45;&gt;_GreetingMessage -->
<g id="edge2" class="edge"><title>_Greeting&#45;&gt;_GreetingMessage</title>
<path fill="none" stroke="black" d="M92.489,-102.446C85.7922,-90.669 78.2329,-77.3751 71.5341,-65.5945"/>
<text text-anchor="middle" x="79.6878" y="-68.3839" font-family="Times Roman,serif" font-size="10.00">greetingMessage</text>
<text text-anchor="middle" x="84.3353" y="-93.6567" font-family="Times Roman,serif" font-size="10.00">greeting</text>
</g>
<!-- _Person -->
<g id="node3" class="node"><title>_Person</title>
<a xlink:href="../examples/org/sdmlib/examples/helloworld/Person.java" xlink:title="&lt;TABLE&gt;">
<polygon fill="none" stroke="black" points="132,-44 132,-61 206,-61 206,-44 132,-44"/>
<text text-anchor="start" x="152.5" y="-50.1667" font-family="Times Roman,serif" font-size="10.00">Person</text>
</a>
<polygon fill="none" stroke="black" points="132,-24 132,-44 206,-44 206,-24 132,-24"/>
<text text-anchor="start" x="137" y="-31.6667" font-family="Times Roman,serif" font-size="10.00">name :String</text>
<polygon fill="none" stroke="black" points="132,-4 132,-24 206,-24 206,-4 132,-4"/>
<text text-anchor="start" x="167" y="-11.6667" font-family="Times Roman,serif" font-size="10.00"> </text>
</g>
<!-- _Greeting&#45;&gt;_Person -->
<g id="edge4" class="edge"><title>_Greeting&#45;&gt;_Person</title>
<path fill="none" stroke="black" d="M129.511,-102.446C136.208,-90.669 143.767,-77.3751 150.466,-65.5945"/>
<text text-anchor="middle" x="149.66" y="-72.5619" font-family="Times Roman,serif" font-size="10.00">person</text>
<text text-anchor="middle" x="130.317" y="-89.4787" font-family="Times Roman,serif" font-size="10.00">greeting</text>
</g>
</g>
</svg>
