<?xml version="1.0" encoding="UTF-8" standalone="no"?>
<!DOCTYPE svg PUBLIC "-//W3C//DTD SVG 1.1//EN"
 "http://www.w3.org/Graphics/SVG/1.1/DTD/svg11.dtd">
<!-- Generated by graphviz version 2.28.0 (20110507.0327)
 -->
<!-- Title: ObjectDiagram Pages: 1 -->
<svg width="893pt" height="1298pt"
 viewBox="0.00 0.00 892.88 1298.00" xmlns="http://www.w3.org/2000/svg" xmlns:xlink="http://www.w3.org/1999/xlink">
<g id="graph1" class="graph" transform="scale(1 1) rotate(0) translate(4 1294)">
<title>ObjectDiagram</title>
<polygon fill="white" stroke="white" points="-4,5 -4,-1294 889.885,-1294 889.885,5 -4,5"/>
<!-- g77 -->
<g id="node1" class="node"><title>g77</title>
<a xlink:href="../examples/org/sdmlib/examples/helloworld/Graph.java" xlink:title="&lt;TABLE&gt;">
<polygon fill="none" stroke="black" points="357.885,-1263 357.885,-1280 410.885,-1280 410.885,-1263 357.885,-1263"/>
<text text-anchor="start" x="361.385" y="-1269.5" font-family="Times New Roman,serif" font-size="10.00"> </text>
<text text-anchor="start" x="364.385" y="-1269.5" font-family="Times New Roman,serif" font-size="10.00">g77 :Graph</text>
</a>
</g>
<!-- n78 -->
<g id="node2" class="node"><title>n78</title>
<a xlink:href="../examples/org/sdmlib/examples/helloworld/Node.java" xlink:title="&lt;TABLE&gt;">
<polygon fill="none" stroke="black" points="198.885,-1196 198.885,-1213 252.885,-1213 252.885,-1196 198.885,-1196"/>
<text text-anchor="start" x="203.885" y="-1202.5" font-family="Times New Roman,serif" font-size="10.00"> </text>
<text text-anchor="start" x="206.885" y="-1202.5" font-family="Times New Roman,serif" font-size="10.00">n78 :Node</text>
</a>
<polygon fill="none" stroke="black" points="198.885,-1120 198.885,-1196 252.885,-1196 252.885,-1120 198.885,-1120"/>
<text text-anchor="start" x="203.885" y="-1184" font-family="Times New Roman,serif" font-size="10.00">name = &quot;&quot;</text>
<text text-anchor="start" x="203.885" y="-1170" font-family="Times New Roman,serif" font-size="10.00">graph = &quot;&quot;</text>
<text text-anchor="start" x="203.885" y="-1156" font-family="Times New Roman,serif" font-size="10.00">orig = &quot;&quot;</text>
<text text-anchor="start" x="203.885" y="-1142" font-family="Times New Roman,serif" font-size="10.00">copy = &quot;&quot;</text>
<text text-anchor="start" x="203.885" y="-1128" font-family="Times New Roman,serif" font-size="10.00">text = &quot;n1&quot;</text>
</g>
<!-- g77&#45;&#45;n78 -->
<g id="edge2" class="edge"><title>g77&#45;&#45;n78</title>
<path fill="none" stroke="black" d="M349.301,-1257.8C326.989,-1248.43 297.937,-1234.6 274.885,-1218 270.15,-1214.59 265.469,-1210.7 260.986,-1206.63"/>
<text text-anchor="middle" x="270.551" y="-1207.05" font-family="Times New Roman,serif" font-size="10.00">gcs</text>
<text text-anchor="middle" x="339.306" y="-1255.62" font-family="Times New Roman,serif" font-size="10.00">parent</text>
</g>
<!-- e79 -->
<g id="node3" class="node"><title>e79</title>
<a xlink:href="../examples/org/sdmlib/examples/helloworld/Edge.java" xlink:title="&lt;TABLE&gt;">
<polygon fill="none" stroke="black" points="232.885,-1058 232.885,-1075 290.885,-1075 290.885,-1058 232.885,-1058"/>
<text text-anchor="start" x="240.885" y="-1064.5" font-family="Times New Roman,serif" font-size="10.00"> </text>
<text text-anchor="start" x="243.885" y="-1064.5" font-family="Times New Roman,serif" font-size="10.00">e79 :Edge</text>
</a>
<polygon fill="none" stroke="black" points="232.885,-1010 232.885,-1058 290.885,-1058 290.885,-1010 232.885,-1010"/>
<text text-anchor="start" x="237.885" y="-1046" font-family="Times New Roman,serif" font-size="10.00">graph = &quot;&quot;</text>
<text text-anchor="start" x="237.885" y="-1032" font-family="Times New Roman,serif" font-size="10.00">name = &quot;&quot;</text>
<text text-anchor="start" x="237.885" y="-1018" font-family="Times New Roman,serif" font-size="10.00">text = &quot;e10&quot;</text>
</g>
<!-- g77&#45;&#45;e79 -->
<g id="edge22" class="edge"><title>g77&#45;&#45;e79</title>
<path fill="none" stroke="black" d="M352.543,-1253.93C338.6,-1244.91 323.067,-1232.65 312.885,-1218 283.602,-1175.86 270.933,-1116.84 265.593,-1079.52"/>
<text text-anchor="middle" x="271.158" y="-1085.33" font-family="Times New Roman,serif" font-size="10.00">gcs</text>
<text text-anchor="middle" x="342.655" y="-1249.94" font-family="Times New Roman,serif" font-size="10.00">parent</text>
</g>
<!-- n80 -->
<g id="node4" class="node"><title>n80</title>
<a xlink:href="../examples/org/sdmlib/examples/helloworld/Node.java" xlink:title="&lt;TABLE&gt;">
<polygon fill="none" stroke="black" points="312.885,-948 312.885,-965 366.885,-965 366.885,-948 312.885,-948"/>
<text text-anchor="start" x="317.885" y="-954.5" font-family="Times New Roman,serif" font-size="10.00"> </text>
<text text-anchor="start" x="320.885" y="-954.5" font-family="Times New Roman,serif" font-size="10.00">n80 :Node</text>
</a>
<polygon fill="none" stroke="black" points="312.885,-872 312.885,-948 366.885,-948 366.885,-872 312.885,-872"/>
<text text-anchor="start" x="317.885" y="-936" font-family="Times New Roman,serif" font-size="10.00">name = &quot;&quot;</text>
<text text-anchor="start" x="317.885" y="-922" font-family="Times New Roman,serif" font-size="10.00">graph = &quot;&quot;</text>
<text text-anchor="start" x="317.885" y="-908" font-family="Times New Roman,serif" font-size="10.00">orig = &quot;&quot;</text>
<text text-anchor="start" x="317.885" y="-894" font-family="Times New Roman,serif" font-size="10.00">copy = &quot;&quot;</text>
<text text-anchor="start" x="317.885" y="-880" font-family="Times New Roman,serif" font-size="10.00">text = &quot;n2&quot;</text>
</g>
<!-- g77&#45;&#45;n80 -->
<g id="edge4" class="edge"><title>g77&#45;&#45;n80</title>
<path fill="none" stroke="black" d="M381.703,-1253.59C375.252,-1202.14 356.099,-1049.35 346.108,-969.644"/>
<text text-anchor="middle" x="351.428" y="-975.611" font-family="Times New Roman,serif" font-size="10.00">gcs</text>
<text text-anchor="middle" x="376.382" y="-1242.63" font-family="Times New Roman,serif" font-size="10.00">parent</text>
</g>
<!-- e81 -->
<g id="node5" class="node"><title>e81</title>
<a xlink:href="../examples/org/sdmlib/examples/helloworld/Edge.java" xlink:title="&lt;TABLE&gt;">
<polygon fill="none" stroke="black" points="313.885,-810 313.885,-827 371.885,-827 371.885,-810 313.885,-810"/>
<text text-anchor="start" x="321.885" y="-816.5" font-family="Times New Roman,serif" font-size="10.00"> </text>
<text text-anchor="start" x="324.885" y="-816.5" font-family="Times New Roman,serif" font-size="10.00">e81 :Edge</text>
</a>
<polygon fill="none" stroke="black" points="313.885,-762 313.885,-810 371.885,-810 371.885,-762 313.885,-762"/>
<text text-anchor="start" x="318.885" y="-798" font-family="Times New Roman,serif" font-size="10.00">graph = &quot;&quot;</text>
<text text-anchor="start" x="318.885" y="-784" font-family="Times New Roman,serif" font-size="10.00">name = &quot;&quot;</text>
<text text-anchor="start" x="318.885" y="-770" font-family="Times New Roman,serif" font-size="10.00">text = &quot;e11&quot;</text>
</g>
<!-- g77&#45;&#45;e81 -->
<g id="edge24" class="edge"><title>g77&#45;&#45;e81</title>
<path fill="none" stroke="black" d="M386.979,-1253.7C396.459,-1197.11 422.206,-1012.74 383.885,-868 380.571,-855.485 374.52,-842.871 368.066,-831.774"/>
<text text-anchor="middle" x="376.224" y="-835.056" font-family="Times New Roman,serif" font-size="10.00">gcs</text>
<text text-anchor="middle" x="384.214" y="-1241.59" font-family="Times New Roman,serif" font-size="10.00">parent</text>
</g>
<!-- n82 -->
<g id="node6" class="node"><title>n82</title>
<a xlink:href="../examples/org/sdmlib/examples/helloworld/Node.java" xlink:title="&lt;TABLE&gt;">
<polygon fill="none" stroke="black" points="315.885,-700 315.885,-717 369.885,-717 369.885,-700 315.885,-700"/>
<text text-anchor="start" x="320.885" y="-706.5" font-family="Times New Roman,serif" font-size="10.00"> </text>
<text text-anchor="start" x="323.885" y="-706.5" font-family="Times New Roman,serif" font-size="10.00">n82 :Node</text>
</a>
<polygon fill="none" stroke="black" points="315.885,-624 315.885,-700 369.885,-700 369.885,-624 315.885,-624"/>
<text text-anchor="start" x="320.885" y="-688" font-family="Times New Roman,serif" font-size="10.00">name = &quot;&quot;</text>
<text text-anchor="start" x="320.885" y="-674" font-family="Times New Roman,serif" font-size="10.00">graph = &quot;&quot;</text>
<text text-anchor="start" x="320.885" y="-660" font-family="Times New Roman,serif" font-size="10.00">orig = &quot;&quot;</text>
<text text-anchor="start" x="320.885" y="-646" font-family="Times New Roman,serif" font-size="10.00">copy = &quot;&quot;</text>
<text text-anchor="start" x="320.885" y="-632" font-family="Times New Roman,serif" font-size="10.00">text = &quot;n3&quot;</text>
</g>
<!-- g77&#45;&#45;n82 -->
<g id="edge6" class="edge"><title>g77&#45;&#45;n82</title>
<path fill="none" stroke="black" d="M394.257,-1253.91C399.965,-1243.79 406.715,-1230.54 410.885,-1218 435.641,-1143.53 440.885,-1122.47 440.885,-1044 440.885,-1044 440.885,-1044 440.885,-918 440.885,-845.823 404.025,-769.652 375.517,-721.532"/>
<text text-anchor="middle" x="383.696" y="-724.786" font-family="Times New Roman,serif" font-size="10.00">gcs</text>
<text text-anchor="middle" x="394.974" y="-1241.43" font-family="Times New Roman,serif" font-size="10.00">parent</text>
</g>
<!-- e83 -->
<g id="node7" class="node"><title>e83</title>
<a xlink:href="../examples/org/sdmlib/examples/helloworld/Edge.java" xlink:title="&lt;TABLE&gt;">
<polygon fill="none" stroke="black" points="156.885,-562 156.885,-579 214.885,-579 214.885,-562 156.885,-562"/>
<text text-anchor="start" x="164.885" y="-568.5" font-family="Times New Roman,serif" font-size="10.00"> </text>
<text text-anchor="start" x="167.885" y="-568.5" font-family="Times New Roman,serif" font-size="10.00">e83 :Edge</text>
</a>
<polygon fill="none" stroke="black" points="156.885,-514 156.885,-562 214.885,-562 214.885,-514 156.885,-514"/>
<text text-anchor="start" x="161.885" y="-550" font-family="Times New Roman,serif" font-size="10.00">graph = &quot;&quot;</text>
<text text-anchor="start" x="161.885" y="-536" font-family="Times New Roman,serif" font-size="10.00">name = &quot;&quot;</text>
<text text-anchor="start" x="161.885" y="-522" font-family="Times New Roman,serif" font-size="10.00">text = &quot;e12&quot;</text>
</g>
<!-- g77&#45;&#45;e83 -->
<g id="edge26" class="edge"><title>g77&#45;&#45;e83</title>
<path fill="none" stroke="black" d="M349.329,-1266.6C297.622,-1259.27 203.83,-1242.88 181.885,-1218 130.284,-1159.5 158.885,-1122.01 158.885,-1044 158.885,-1044 158.885,-1044 158.885,-794 158.885,-718.812 171.502,-631.464 179.486,-583.717"/>
<text text-anchor="middle" x="182.201" y="-590.841" font-family="Times New Roman,serif" font-size="10.00">gcs</text>
<text text-anchor="middle" x="339.744" y="-1266.95" font-family="Times New Roman,serif" font-size="10.00">parent</text>
</g>
<!-- e84 -->
<g id="node8" class="node"><title>e84</title>
<a xlink:href="../examples/org/sdmlib/examples/helloworld/Edge.java" xlink:title="&lt;TABLE&gt;">
<polygon fill="none" stroke="black" points="248.885,-562 248.885,-579 306.885,-579 306.885,-562 248.885,-562"/>
<text text-anchor="start" x="256.885" y="-568.5" font-family="Times New Roman,serif" font-size="10.00"> </text>
<text text-anchor="start" x="259.885" y="-568.5" font-family="Times New Roman,serif" font-size="10.00">e84 :Edge</text>
</a>
<polygon fill="none" stroke="black" points="248.885,-514 248.885,-562 306.885,-562 306.885,-514 248.885,-514"/>
<text text-anchor="start" x="253.885" y="-550" font-family="Times New Roman,serif" font-size="10.00">graph = &quot;&quot;</text>
<text text-anchor="start" x="253.885" y="-536" font-family="Times New Roman,serif" font-size="10.00">name = &quot;&quot;</text>
<text text-anchor="start" x="253.885" y="-522" font-family="Times New Roman,serif" font-size="10.00">text = &quot;e13&quot;</text>
</g>
<!-- g77&#45;&#45;e84 -->
<g id="edge28" class="edge"><title>g77&#45;&#45;e84</title>
<path fill="none" stroke="black" d="M375.053,-1253.66C370.109,-1243.47 364.109,-1230.22 359.885,-1218 328.184,-1126.31 334.802,-1099.21 307.885,-1006 303.205,-989.797 298.94,-986.586 295.885,-970 269.877,-828.831 273.118,-656.813 276.085,-583.663"/>
<text text-anchor="middle" x="279.991" y="-590.369" font-family="Times New Roman,serif" font-size="10.00">gcs</text>
<text text-anchor="middle" x="367.318" y="-1244.83" font-family="Times New Roman,serif" font-size="10.00">parent</text>
</g>
<!-- n85 -->
<g id="node9" class="node"><title>n85</title>
<a xlink:href="../examples/org/sdmlib/examples/helloworld/Node.java" xlink:title="&lt;TABLE&gt;">
<polygon fill="none" stroke="black" points="118.885,-452 118.885,-469 172.885,-469 172.885,-452 118.885,-452"/>
<text text-anchor="start" x="123.885" y="-458.5" font-family="Times New Roman,serif" font-size="10.00"> </text>
<text text-anchor="start" x="126.885" y="-458.5" font-family="Times New Roman,serif" font-size="10.00">n85 :Node</text>
</a>
<polygon fill="none" stroke="black" points="118.885,-376 118.885,-452 172.885,-452 172.885,-376 118.885,-376"/>
<text text-anchor="start" x="123.885" y="-440" font-family="Times New Roman,serif" font-size="10.00">name = &quot;&quot;</text>
<text text-anchor="start" x="123.885" y="-426" font-family="Times New Roman,serif" font-size="10.00">graph = &quot;&quot;</text>
<text text-anchor="start" x="123.885" y="-412" font-family="Times New Roman,serif" font-size="10.00">orig = &quot;&quot;</text>
<text text-anchor="start" x="123.885" y="-398" font-family="Times New Roman,serif" font-size="10.00">copy = &quot;&quot;</text>
<text text-anchor="start" x="123.885" y="-384" font-family="Times New Roman,serif" font-size="10.00">text = &quot;n4&quot;</text>
</g>
<!-- g77&#45;&#45;n85 -->
<g id="edge8" class="edge"><title>g77&#45;&#45;n85</title>
<path fill="none" stroke="black" d="M349.42,-1267.97C290.706,-1262.06 174.99,-1246.98 147.885,-1218 94.4308,-1160.84 120.885,-1122.26 120.885,-1044 120.885,-1044 120.885,-1044 120.885,-670 120.885,-601.744 130.529,-523.378 137.837,-473.792"/>
<text text-anchor="middle" x="140.734" y="-480.863" font-family="Times New Roman,serif" font-size="10.00">gcs</text>
<text text-anchor="middle" x="339.959" y="-1268.7" font-family="Times New Roman,serif" font-size="10.00">parent</text>
</g>
<!-- e86 -->
<g id="node10" class="node"><title>e86</title>
<a xlink:href="../examples/org/sdmlib/examples/helloworld/Edge.java" xlink:title="&lt;TABLE&gt;">
<polygon fill="none" stroke="black" points="98.8846,-314 98.8846,-331 156.885,-331 156.885,-314 98.8846,-314"/>
<text text-anchor="start" x="106.885" y="-320.5" font-family="Times New Roman,serif" font-size="10.00"> </text>
<text text-anchor="start" x="109.885" y="-320.5" font-family="Times New Roman,serif" font-size="10.00">e86 :Edge</text>
</a>
<polygon fill="none" stroke="black" points="98.8846,-266 98.8846,-314 156.885,-314 156.885,-266 98.8846,-266"/>
<text text-anchor="start" x="103.885" y="-302" font-family="Times New Roman,serif" font-size="10.00">graph = &quot;&quot;</text>
<text text-anchor="start" x="103.885" y="-288" font-family="Times New Roman,serif" font-size="10.00">name = &quot;&quot;</text>
<text text-anchor="start" x="103.885" y="-274" font-family="Times New Roman,serif" font-size="10.00">text = &quot;e14&quot;</text>
</g>
<!-- g77&#45;&#45;e86 -->
<g id="edge30" class="edge"><title>g77&#45;&#45;e86</title>
<path fill="none" stroke="black" d="M349.589,-1269.12C283.804,-1264.77 143.505,-1251.69 110.885,-1218 56.3971,-1161.73 82.8846,-1122.33 82.8846,-1044 82.8846,-1044 82.8846,-1044 82.8846,-546 82.8846,-468.207 84.3275,-447.786 101.885,-372 104.674,-359.959 108.868,-347.165 113.078,-335.753"/>
<text text-anchor="middle" x="113.948" y="-343.215" font-family="Times New Roman,serif" font-size="10.00">gcs</text>
<text text-anchor="middle" x="340.245" y="-1270.18" font-family="Times New Roman,serif" font-size="10.00">parent</text>
</g>
<!-- n87 -->
<g id="node11" class="node"><title>n87</title>
<a xlink:href="../examples/org/sdmlib/examples/helloworld/Node.java" xlink:title="&lt;TABLE&gt;">
<polygon fill="none" stroke="black" points="100.885,-204 100.885,-221 154.885,-221 154.885,-204 100.885,-204"/>
<text text-anchor="start" x="105.885" y="-210.5" font-family="Times New Roman,serif" font-size="10.00"> </text>
<text text-anchor="start" x="108.885" y="-210.5" font-family="Times New Roman,serif" font-size="10.00">n87 :Node</text>
</a>
<polygon fill="none" stroke="black" points="100.885,-128 100.885,-204 154.885,-204 154.885,-128 100.885,-128"/>
<text text-anchor="start" x="105.885" y="-192" font-family="Times New Roman,serif" font-size="10.00">name = &quot;&quot;</text>
<text text-anchor="start" x="105.885" y="-178" font-family="Times New Roman,serif" font-size="10.00">graph = &quot;&quot;</text>
<text text-anchor="start" x="105.885" y="-164" font-family="Times New Roman,serif" font-size="10.00">orig = &quot;&quot;</text>
<text text-anchor="start" x="105.885" y="-150" font-family="Times New Roman,serif" font-size="10.00">copy = &quot;&quot;</text>
<text text-anchor="start" x="105.885" y="-136" font-family="Times New Roman,serif" font-size="10.00">text = &quot;n5&quot;</text>
</g>
<!-- g77&#45;&#45;n87 -->
<g id="edge10" class="edge"><title>g77&#45;&#45;n87</title>
<path fill="none" stroke="black" d="M349.379,-1270.01C276.637,-1267.19 111.097,-1256.57 72.8846,-1218 17.7548,-1162.36 44.8846,-1122.33 44.8846,-1044 44.8846,-1044 44.8846,-1044 44.8846,-422 44.8846,-349.012 56.2269,-330.329 81.8846,-262 86.4083,-249.953 92.3003,-237.479 98.3494,-225.894"/>
<text text-anchor="middle" x="97.9439" y="-233.386" font-family="Times New Roman,serif" font-size="10.00">gcs</text>
<text text-anchor="middle" x="340.135" y="-1271.33" font-family="Times New Roman,serif" font-size="10.00">parent</text>
</g>
<!-- e88 -->
<g id="node12" class="node"><title>e88</title>
<a xlink:href="../examples/org/sdmlib/examples/helloworld/Edge.java" xlink:title="&lt;TABLE&gt;">
<polygon fill="none" stroke="black" points="29.8846,-66 29.8846,-83 87.8846,-83 87.8846,-66 29.8846,-66"/>
<text text-anchor="start" x="37.8846" y="-72.5" font-family="Times New Roman,serif" font-size="10.00"> </text>
<text text-anchor="start" x="40.8846" y="-72.5" font-family="Times New Roman,serif" font-size="10.00">e88 :Edge</text>
</a>
<polygon fill="none" stroke="black" points="29.8846,-4 29.8846,-66 87.8846,-66 87.8846,-4 29.8846,-4"/>
<text text-anchor="start" x="34.8846" y="-54" font-family="Times New Roman,serif" font-size="10.00">graph = &quot;&quot;</text>
<text text-anchor="start" x="34.8846" y="-40" font-family="Times New Roman,serif" font-size="10.00">tgt = &quot;&quot;</text>
<text text-anchor="start" x="34.8846" y="-26" font-family="Times New Roman,serif" font-size="10.00">name = &quot;&quot;</text>
<text text-anchor="start" x="34.8846" y="-12" font-family="Times New Roman,serif" font-size="10.00">text = &quot;e18&quot;</text>
</g>
<!-- g77&#45;&#45;e88 -->
<g id="edge18" class="edge"><title>g77&#45;&#45;e88</title>
<path fill="none" stroke="black" d="M349.424,-1270.73C270.25,-1269.36 78.7916,-1261.52 34.8846,-1218 -20.7461,-1162.86 6.88459,-1122.33 6.88459,-1044 6.88459,-1044 6.88459,-1044 6.88459,-298 6.88459,-222.89 29.146,-137.758 44.5377,-87.8738"/>
<text text-anchor="middle" x="45.9807" y="-95.2691" font-family="Times New Roman,serif" font-size="10.00">gcs</text>
<text text-anchor="middle" x="340.264" y="-1272.24" font-family="Times New Roman,serif" font-size="10.00">parent</text>
</g>
<!-- e89 -->
<g id="node13" class="node"><title>e89</title>
<a xlink:href="../examples/org/sdmlib/examples/helloworld/Edge.java" xlink:title="&lt;TABLE&gt;">
<polygon fill="none" stroke="black" points="313.885,-59 313.885,-76 371.885,-76 371.885,-59 313.885,-59"/>
<text text-anchor="start" x="321.885" y="-65.5" font-family="Times New Roman,serif" font-size="10.00"> </text>
<text text-anchor="start" x="324.885" y="-65.5" font-family="Times New Roman,serif" font-size="10.00">e89 :Edge</text>
</a>
<polygon fill="none" stroke="black" points="313.885,-11 313.885,-59 371.885,-59 371.885,-11 313.885,-11"/>
<text text-anchor="start" x="318.885" y="-47" font-family="Times New Roman,serif" font-size="10.00">graph = &quot;&quot;</text>
<text text-anchor="start" x="318.885" y="-33" font-family="Times New Roman,serif" font-size="10.00">name = &quot;&quot;</text>
<text text-anchor="start" x="318.885" y="-19" font-family="Times New Roman,serif" font-size="10.00">text = &quot;e15&quot;</text>
</g>
<!-- g77&#45;&#45;e89 -->
<g id="edge32" class="edge"><title>g77&#45;&#45;e89</title>
<path fill="none" stroke="black" d="M406.588,-1253.88C417.592,-1244.45 430.083,-1231.85 437.885,-1218 476.884,-1148.78 478.885,-1123.45 478.885,-1044 478.885,-1044 478.885,-1044 478.885,-298 478.885,-211.979 417.135,-127.011 376.852,-80.735"/>
<text text-anchor="middle" x="385.924" y="-82.4421" font-family="Times New Roman,serif" font-size="10.00">gcs</text>
<text text-anchor="middle" x="410.624" y="-1242.23" font-family="Times New Roman,serif" font-size="10.00">parent</text>
</g>
<!-- e90 -->
<g id="node14" class="node"><title>e90</title>
<a xlink:href="../examples/org/sdmlib/examples/helloworld/Edge.java" xlink:title="&lt;TABLE&gt;">
<polygon fill="none" stroke="black" points="446.885,-66 446.885,-83 504.885,-83 504.885,-66 446.885,-66"/>
<text text-anchor="start" x="454.885" y="-72.5" font-family="Times New Roman,serif" font-size="10.00"> </text>
<text text-anchor="start" x="457.885" y="-72.5" font-family="Times New Roman,serif" font-size="10.00">e90 :Edge</text>
</a>
<polygon fill="none" stroke="black" points="446.885,-4 446.885,-66 504.885,-66 504.885,-4 446.885,-4"/>
<text text-anchor="start" x="451.885" y="-54" font-family="Times New Roman,serif" font-size="10.00">graph = &quot;&quot;</text>
<text text-anchor="start" x="451.885" y="-40" font-family="Times New Roman,serif" font-size="10.00">src = &quot;&quot;</text>
<text text-anchor="start" x="451.885" y="-26" font-family="Times New Roman,serif" font-size="10.00">name = &quot;&quot;</text>
<text text-anchor="start" x="451.885" y="-12" font-family="Times New Roman,serif" font-size="10.00">text = &quot;e19&quot;</text>
</g>
<!-- g77&#45;&#45;e90 -->
<g id="edge20" class="edge"><title>g77&#45;&#45;e90</title>
<path fill="none" stroke="black" d="M418.527,-1257.49C436.611,-1248.77 457.663,-1235.72 470.885,-1218 518.722,-1153.89 516.885,-1123.99 516.885,-1044 516.885,-1044 516.885,-1044 516.885,-298 516.885,-223.246 499.227,-137.648 487.088,-87.6335"/>
<text text-anchor="middle" x="493.284" y="-92.9828" font-family="Times New Roman,serif" font-size="10.00">gcs</text>
<text text-anchor="middle" x="424.751" y="-1247.16" font-family="Times New Roman,serif" font-size="10.00">parent</text>
</g>
<!-- n91 -->
<g id="node15" class="node"><title>n91</title>
<a xlink:href="../examples/org/sdmlib/examples/helloworld/Node.java" xlink:title="&lt;TABLE&gt;">
<polygon fill="none" stroke="black" points="552.885,-1196 552.885,-1213 606.885,-1213 606.885,-1196 552.885,-1196"/>
<text text-anchor="start" x="557.885" y="-1202.5" font-family="Times New Roman,serif" font-size="10.00"> </text>
<text text-anchor="start" x="560.885" y="-1202.5" font-family="Times New Roman,serif" font-size="10.00">n91 :Node</text>
</a>
<polygon fill="none" stroke="black" points="552.885,-1120 552.885,-1196 606.885,-1196 606.885,-1120 552.885,-1120"/>
<text text-anchor="start" x="557.885" y="-1184" font-family="Times New Roman,serif" font-size="10.00">name = &quot;&quot;</text>
<text text-anchor="start" x="557.885" y="-1170" font-family="Times New Roman,serif" font-size="10.00">graph = &quot;&quot;</text>
<text text-anchor="start" x="557.885" y="-1156" font-family="Times New Roman,serif" font-size="10.00">orig = &quot;&quot;</text>
<text text-anchor="start" x="557.885" y="-1142" font-family="Times New Roman,serif" font-size="10.00">copy = &quot;&quot;</text>
<text text-anchor="start" x="557.885" y="-1128" font-family="Times New Roman,serif" font-size="10.00">text = &quot;n6&quot;</text>
</g>
<!-- g77&#45;&#45;n91 -->
<g id="edge12" class="edge"><title>g77&#45;&#45;n91</title>
<path fill="none" stroke="black" d="M418.252,-1263.29C449.374,-1255.26 495.614,-1240.65 530.885,-1218 535.691,-1214.91 540.385,-1211.28 544.845,-1207.39"/>
<text text-anchor="middle" x="540.732" y="-1214.01" font-family="Times New Roman,serif" font-size="10.00">gcs</text>
<text text-anchor="middle" x="425.918" y="-1254.37" font-family="Times New Roman,serif" font-size="10.00">parent</text>
</g>
<!-- n92 -->
<g id="node16" class="node"><title>n92</title>
<a xlink:href="../examples/org/sdmlib/examples/helloworld/Node.java" xlink:title="&lt;TABLE&gt;">
<polygon fill="none" stroke="black" points="640.885,-1196 640.885,-1213 694.885,-1213 694.885,-1196 640.885,-1196"/>
<text text-anchor="start" x="645.885" y="-1202.5" font-family="Times New Roman,serif" font-size="10.00"> </text>
<text text-anchor="start" x="648.885" y="-1202.5" font-family="Times New Roman,serif" font-size="10.00">n92 :Node</text>
</a>
<polygon fill="none" stroke="black" points="640.885,-1120 640.885,-1196 694.885,-1196 694.885,-1120 640.885,-1120"/>
<text text-anchor="start" x="645.885" y="-1184" font-family="Times New Roman,serif" font-size="10.00">name = &quot;&quot;</text>
<text text-anchor="start" x="645.885" y="-1170" font-family="Times New Roman,serif" font-size="10.00">graph = &quot;&quot;</text>
<text text-anchor="start" x="645.885" y="-1156" font-family="Times New Roman,serif" font-size="10.00">orig = &quot;&quot;</text>
<text text-anchor="start" x="645.885" y="-1142" font-family="Times New Roman,serif" font-size="10.00">copy = &quot;&quot;</text>
<text text-anchor="start" x="645.885" y="-1128" font-family="Times New Roman,serif" font-size="10.00">text = &quot;n7&quot;</text>
</g>
<!-- g77&#45;&#45;n92 -->
<g id="edge14" class="edge"><title>g77&#45;&#45;n92</title>
<path fill="none" stroke="black" d="M418.519,-1270.01C467.488,-1267.21 558.292,-1256.72 623.885,-1218 626.971,-1216.18 629.956,-1214.06 632.818,-1211.76"/>
<text text-anchor="middle" x="628.361" y="-1218.21" font-family="Times New Roman,serif" font-size="10.00">gcs</text>
<text text-anchor="middle" x="427.271" y="-1262.68" font-family="Times New Roman,serif" font-size="10.00">parent</text>
</g>
<!-- n93 -->
<g id="node17" class="node"><title>n93</title>
<a xlink:href="../examples/org/sdmlib/examples/helloworld/Node.java" xlink:title="&lt;TABLE&gt;">
<polygon fill="none" stroke="black" points="766.885,-1196 766.885,-1213 820.885,-1213 820.885,-1196 766.885,-1196"/>
<text text-anchor="start" x="771.885" y="-1202.5" font-family="Times New Roman,serif" font-size="10.00"> </text>
<text text-anchor="start" x="774.885" y="-1202.5" font-family="Times New Roman,serif" font-size="10.00">n93 :Node</text>
</a>
<polygon fill="none" stroke="black" points="766.885,-1120 766.885,-1196 820.885,-1196 820.885,-1120 766.885,-1120"/>
<text text-anchor="start" x="771.885" y="-1184" font-family="Times New Roman,serif" font-size="10.00">name = &quot;&quot;</text>
<text text-anchor="start" x="771.885" y="-1170" font-family="Times New Roman,serif" font-size="10.00">graph = &quot;&quot;</text>
<text text-anchor="start" x="771.885" y="-1156" font-family="Times New Roman,serif" font-size="10.00">orig = &quot;&quot;</text>
<text text-anchor="start" x="771.885" y="-1142" font-family="Times New Roman,serif" font-size="10.00">copy = &quot;&quot;</text>
<text text-anchor="start" x="771.885" y="-1128" font-family="Times New Roman,serif" font-size="10.00">text = &quot;n8&quot;</text>
</g>
<!-- g77&#45;&#45;n93 -->
<g id="edge16" class="edge"><title>g77&#45;&#45;n93</title>
<path fill="none" stroke="black" d="M418.268,-1268.75C497.011,-1263.16 688.003,-1246.94 744.885,-1218 749.759,-1215.52 754.434,-1212.37 758.829,-1208.85"/>
<text text-anchor="middle" x="754.315" y="-1215.28" font-family="Times New Roman,serif" font-size="10.00">gcs</text>
<text text-anchor="middle" x="426.991" y="-1261.36" font-family="Times New Roman,serif" font-size="10.00">parent</text>
</g>
<!-- e94 -->
<g id="node18" class="node"><title>e94</title>
<a xlink:href="../examples/org/sdmlib/examples/helloworld/Edge.java" xlink:title="&lt;TABLE&gt;">
<polygon fill="none" stroke="black" points="709.885,-1058 709.885,-1075 767.885,-1075 767.885,-1058 709.885,-1058"/>
<text text-anchor="start" x="717.885" y="-1064.5" font-family="Times New Roman,serif" font-size="10.00"> </text>
<text text-anchor="start" x="720.885" y="-1064.5" font-family="Times New Roman,serif" font-size="10.00">e94 :Edge</text>
</a>
<polygon fill="none" stroke="black" points="709.885,-1010 709.885,-1058 767.885,-1058 767.885,-1010 709.885,-1010"/>
<text text-anchor="start" x="714.885" y="-1046" font-family="Times New Roman,serif" font-size="10.00">graph = &quot;&quot;</text>
<text text-anchor="start" x="714.885" y="-1032" font-family="Times New Roman,serif" font-size="10.00">name = &quot;&quot;</text>
<text text-anchor="start" x="714.885" y="-1018" font-family="Times New Roman,serif" font-size="10.00">text = &quot;e16&quot;</text>
</g>
<!-- g77&#45;&#45;e94 -->
<g id="edge34" class="edge"><title>g77&#45;&#45;e94</title>
<path fill="none" stroke="black" d="M418.267,-1270.37C493.9,-1268.25 671.224,-1258.92 711.885,-1218 747.763,-1181.9 748.392,-1119.15 744.448,-1079.69"/>
<text text-anchor="middle" x="749.395" y="-1085.88" font-family="Times New Roman,serif" font-size="10.00">gcs</text>
<text text-anchor="middle" x="427.179" y="-1263.34" font-family="Times New Roman,serif" font-size="10.00">parent</text>
</g>
<!-- e95 -->
<g id="node19" class="node"><title>e95</title>
<a xlink:href="../examples/org/sdmlib/examples/helloworld/Edge.java" xlink:title="&lt;TABLE&gt;">
<polygon fill="none" stroke="black" points="818.885,-1058 818.885,-1075 876.885,-1075 876.885,-1058 818.885,-1058"/>
<text text-anchor="start" x="826.885" y="-1064.5" font-family="Times New Roman,serif" font-size="10.00"> </text>
<text text-anchor="start" x="829.885" y="-1064.5" font-family="Times New Roman,serif" font-size="10.00">e95 :Edge</text>
</a>
<polygon fill="none" stroke="black" points="818.885,-1010 818.885,-1058 876.885,-1058 876.885,-1010 818.885,-1010"/>
<text text-anchor="start" x="823.885" y="-1046" font-family="Times New Roman,serif" font-size="10.00">graph = &quot;&quot;</text>
<text text-anchor="start" x="823.885" y="-1032" font-family="Times New Roman,serif" font-size="10.00">name = &quot;&quot;</text>
<text text-anchor="start" x="823.885" y="-1018" font-family="Times New Roman,serif" font-size="10.00">text = &quot;e17&quot;</text>
</g>
<!-- g77&#45;&#45;e95 -->
<g id="edge36" class="edge"><title>g77&#45;&#45;e95</title>
<path fill="none" stroke="black" d="M418.375,-1269.49C519.37,-1264.71 809.168,-1248.46 837.885,-1218 872.342,-1181.45 866.317,-1119.14 857.822,-1079.85"/>
<text text-anchor="middle" x="863.713" y="-1085.43" font-family="Times New Roman,serif" font-size="10.00">gcs</text>
<text text-anchor="middle" x="427.216" y="-1262.31" font-family="Times New Roman,serif" font-size="10.00">parent</text>
</g>
<!-- n78&#45;&#45;e79 -->
<g id="edge38" class="edge"><title>n78&#45;&#45;e79</title>
<path fill="none" stroke="black" d="M240.527,-1116.38C244.148,-1104.11 247.957,-1091.2 251.339,-1079.74"/>
<text text-anchor="middle" x="252.827" y="-1087.13" font-family="Times New Roman,serif" font-size="10.00">outEdges</text>
<text text-anchor="middle" x="239.039" y="-1103.99" font-family="Times New Roman,serif" font-size="10.00">src</text>
</g>
<!-- n78&#45;&#45;e83 -->
<g id="edge40" class="edge"><title>n78&#45;&#45;e83</title>
<path fill="none" stroke="black" d="M216.549,-1116.26C208.072,-1066.71 196.885,-988.376 196.885,-920 196.885,-920 196.885,-920 196.885,-794 196.885,-719.186 191.744,-631.701 188.491,-583.829"/>
<text text-anchor="middle" x="193.307" y="-590.093" font-family="Times New Roman,serif" font-size="10.00">inEdges</text>
<text text-anchor="middle" x="210.893" y="-1105.51" font-family="Times New Roman,serif" font-size="10.00">tgt</text>
</g>
<!-- e79&#45;&#45;n80 -->
<g id="edge42" class="edge"><title>e79&#45;&#45;n80</title>
<path fill="none" stroke="black" d="M284.655,-1006.38C291.94,-994.991 300.144,-982.159 307.956,-969.94"/>
<text text-anchor="middle" x="306.635" y="-977.352" font-family="Times New Roman,serif" font-size="10.00">tgt</text>
<text text-anchor="middle" x="285.976" y="-993.972" font-family="Times New Roman,serif" font-size="10.00">inEdges</text>
</g>
<!-- n80&#45;&#45;e81 -->
<g id="edge44" class="edge"><title>n80&#45;&#45;e81</title>
<path fill="none" stroke="black" d="M341.105,-868.378C341.407,-856.108 341.724,-843.2 342.006,-831.739"/>
<text text-anchor="middle" x="346.008" y="-838.403" font-family="Times New Roman,serif" font-size="10.00">outEdges</text>
<text text-anchor="middle" x="337.103" y="-856.714" font-family="Times New Roman,serif" font-size="10.00">src</text>
</g>
<!-- e81&#45;&#45;n82 -->
<g id="edge46" class="edge"><title>e81&#45;&#45;n82</title>
<path fill="none" stroke="black" d="M342.885,-758.385C342.885,-746.991 342.885,-734.159 342.885,-721.94"/>
<text text-anchor="middle" x="347.111" y="-728.503" font-family="Times New Roman,serif" font-size="10.00">tgt</text>
<text text-anchor="middle" x="338.658" y="-746.822" font-family="Times New Roman,serif" font-size="10.00">inEdges</text>
</g>
<!-- n82&#45;&#45;e83 -->
<g id="edge48" class="edge"><title>n82&#45;&#45;e83</title>
<path fill="none" stroke="black" d="M307.856,-642.93C285.992,-626.017 257.274,-603.77 231.885,-584 229.004,-581.757 226.024,-579.433 223.03,-577.095"/>
<text text-anchor="middle" x="232.774" y="-576.841" font-family="Times New Roman,serif" font-size="10.00">outEdges</text>
<text text-anchor="middle" x="298.102" y="-638.227" font-family="Times New Roman,serif" font-size="10.00">src</text>
</g>
<!-- n82&#45;&#45;e84 -->
<g id="edge50" class="edge"><title>n82&#45;&#45;e84</title>
<path fill="none" stroke="black" d="M316.447,-620.378C309.909,-608.108 303.032,-595.2 296.926,-583.739"/>
<text text-anchor="middle" x="304.917" y="-587.25" font-family="Times New Roman,serif" font-size="10.00">outEdges</text>
<text text-anchor="middle" x="308.455" y="-611.866" font-family="Times New Roman,serif" font-size="10.00">src</text>
</g>
<!-- n82&#45;&#45;e89 -->
<g id="edge52" class="edge"><title>n82&#45;&#45;e89</title>
<path fill="none" stroke="black" d="M342.885,-620.058C342.885,-570.357 342.885,-491.906 342.885,-424 342.885,-424 342.885,-424 342.885,-298 342.885,-220.475 342.885,-129.587 342.885,-80.6139"/>
<text text-anchor="middle" x="347.111" y="-87.177" font-family="Times New Roman,serif" font-size="10.00">inEdges</text>
<text text-anchor="middle" x="338.658" y="-608.495" font-family="Times New Roman,serif" font-size="10.00">tgt</text>
</g>
<!-- e84&#45;&#45;n85 -->
<g id="edge54" class="edge"><title>e84&#45;&#45;n85</title>
<path fill="none" stroke="black" d="M240.764,-511.692C222.005,-494.354 199.37,-473.433 180.913,-456.375"/>
<text text-anchor="middle" x="190.437" y="-456.923" font-family="Times New Roman,serif" font-size="10.00">tgt</text>
<text text-anchor="middle" x="231.24" y="-506.144" font-family="Times New Roman,serif" font-size="10.00">inEdges</text>
</g>
<!-- n85&#45;&#45;e86 -->
<g id="edge56" class="edge"><title>n85&#45;&#45;e86</title>
<path fill="none" stroke="black" d="M138.563,-372.378C136.753,-360.108 134.849,-347.2 133.158,-335.739"/>
<text text-anchor="middle" x="138.661" y="-341.588" font-family="Times New Roman,serif" font-size="10.00">outEdges</text>
<text text-anchor="middle" x="133.06" y="-361.529" font-family="Times New Roman,serif" font-size="10.00">src</text>
</g>
<!-- e86&#45;&#45;n87 -->
<g id="edge58" class="edge"><title>e86&#45;&#45;n87</title>
<path fill="none" stroke="black" d="M127.885,-262.385C127.885,-250.991 127.885,-238.159 127.885,-225.94"/>
<text text-anchor="middle" x="132.111" y="-232.503" font-family="Times New Roman,serif" font-size="10.00">tgt</text>
<text text-anchor="middle" x="123.658" y="-250.822" font-family="Times New Roman,serif" font-size="10.00">inEdges</text>
</g>
<!-- n87&#45;&#45;e88 -->
<g id="edge60" class="edge"><title>n87&#45;&#45;e88</title>
<path fill="none" stroke="black" d="M101.405,-124.494C94.9439,-112.415 88.0859,-99.5937 81.8067,-87.8543"/>
<text text-anchor="middle" x="89.8079" y="-91.3527" font-family="Times New Roman,serif" font-size="10.00">outEdges</text>
<text text-anchor="middle" x="93.4035" y="-115.996" font-family="Times New Roman,serif" font-size="10.00">src</text>
</g>
<!-- n87&#45;&#45;e89 -->
<g id="edge62" class="edge"><title>n87&#45;&#45;e89</title>
<path fill="none" stroke="black" d="M162.907,-152.987C202.173,-129.427 265.589,-91.3772 305.712,-67.3033"/>
<text text-anchor="middle" x="300.115" y="-73.0901" font-family="Times New Roman,serif" font-size="10.00">outEdges</text>
<text text-anchor="middle" x="168.504" y="-142.2" font-family="Times New Roman,serif" font-size="10.00">src</text>
</g>
<!-- n87&#45;&#45;e90 -->
<g id="edge64" class="edge"><title>n87&#45;&#45;e90</title>
<path fill="none" stroke="black" d="M163.068,-164.123C213.739,-149.514 309.855,-120.363 388.885,-88 405.568,-81.1683 423.503,-72.5354 438.73,-64.8006"/>
<text text-anchor="middle" x="432.544" y="-70.1572" font-family="Times New Roman,serif" font-size="10.00">inEdges</text>
<text text-anchor="middle" x="170.588" y="-155.03" font-family="Times New Roman,serif" font-size="10.00">tgt</text>
</g>
<!-- n93&#45;&#45;e94 -->
<g id="edge66" class="edge"><title>n93&#45;&#45;e94</title>
<path fill="none" stroke="black" d="M771.514,-1116.38C765.982,-1104.11 760.164,-1091.2 754.996,-1079.74"/>
<text text-anchor="middle" x="762.574" y="-1083.76" font-family="Times New Roman,serif" font-size="10.00">outEdges_inEdges</text>
<text text-anchor="middle" x="763.936" y="-1107.35" font-family="Times New Roman,serif" font-size="10.00">src_tgt</text>
</g>
<!-- n93&#45;&#45;e95 -->
<g id="edge68" class="edge"><title>n93&#45;&#45;e95</title>
<path fill="none" stroke="black" d="M815.848,-1116.38C821.28,-1104.11 826.993,-1091.2 832.066,-1079.74"/>
<text text-anchor="middle" x="832.262" y="-1087.24" font-family="Times New Roman,serif" font-size="10.00">outEdges_inEdges</text>
<text text-anchor="middle" x="815.652" y="-1103.88" font-family="Times New Roman,serif" font-size="10.00">src_tgt</text>
</g>
</g>
</svg>
