<?xml version="1.0" encoding="UTF-8" standalone="no"?>
<!DOCTYPE svg PUBLIC "-//W3C//DTD SVG 1.1//EN"
 "http://www.w3.org/Graphics/SVG/1.1/DTD/svg11.dtd">
<!-- Generated by graphviz version 2.28.0 (20110507.0327)
 -->
<!-- Title: ObjectDiagram Pages: 1 -->
<svg width="886pt" height="864pt"
 viewBox="0.00 0.00 886.00 864.00" xmlns="http://www.w3.org/2000/svg" xmlns:xlink="http://www.w3.org/1999/xlink">
<g id="graph1" class="graph" transform="scale(1 1) rotate(0) translate(4 860)">
<title>ObjectDiagram</title>
<polygon fill="white" stroke="white" points="-4,5 -4,-860 883,-860 883,5 -4,5"/>
<!-- g75 -->
<g id="node1" class="node"><title>g75</title>
<a xlink:href="../examples/org/sdmlib/examples/helloworld/Graph.java" xlink:title="&lt;TABLE&gt;">
<polygon fill="none" stroke="black" points="351,-829 351,-846 404,-846 404,-829 351,-829"/>
<text text-anchor="start" x="354.5" y="-835.5" font-family="Times New Roman,serif" font-size="10.00"> </text>
<text text-anchor="start" x="357.5" y="-835.5" font-family="Times New Roman,serif" font-size="10.00">g75 :Graph</text>
</a>
</g>
<!-- n76 -->
<g id="node2" class="node"><title>n76</title>
<a xlink:href="../examples/org/sdmlib/examples/helloworld/Node.java" xlink:title="&lt;TABLE&gt;">
<polygon fill="none" stroke="black" points="192,-762 192,-779 246,-779 246,-762 192,-762"/>
<text text-anchor="start" x="197" y="-768.5" font-family="Times New Roman,serif" font-size="10.00"> </text>
<text text-anchor="start" x="200" y="-768.5" font-family="Times New Roman,serif" font-size="10.00">n76 :Node</text>
</a>
<polygon fill="none" stroke="black" points="192,-742 192,-762 246,-762 246,-742 192,-742"/>
<text text-anchor="start" x="197" y="-750" font-family="Times New Roman,serif" font-size="10.00">text = &quot;n1&quot;</text>
</g>
<!-- g75&#45;&#45;n76 -->
<g id="edge2" class="edge"><title>g75&#45;&#45;n76</title>
<path fill="none" stroke="black" d="M342.716,-820.726C316.487,-808.275 280.451,-791.17 254.036,-778.631"/>
<text text-anchor="middle" x="264.036" y="-776.2" font-family="Times New Roman,serif" font-size="10.00">gcs</text>
<text text-anchor="middle" x="332.717" y="-818.158" font-family="Times New Roman,serif" font-size="10.00">parent</text>
</g>
<!-- e77 -->
<g id="node3" class="node"><title>e77</title>
<a xlink:href="../examples/org/sdmlib/examples/helloworld/Edge.java" xlink:title="&lt;TABLE&gt;">
<polygon fill="none" stroke="black" points="226,-680 226,-697 284,-697 284,-680 226,-680"/>
<text text-anchor="start" x="234" y="-686.5" font-family="Times New Roman,serif" font-size="10.00"> </text>
<text text-anchor="start" x="237" y="-686.5" font-family="Times New Roman,serif" font-size="10.00">e77 :Edge</text>
</a>
<polygon fill="none" stroke="black" points="226,-660 226,-680 284,-680 284,-660 226,-660"/>
<text text-anchor="start" x="231" y="-668" font-family="Times New Roman,serif" font-size="10.00">text = &quot;e10&quot;</text>
</g>
<!-- g75&#45;&#45;e77 -->
<g id="edge22" class="edge"><title>g75&#45;&#45;e77</title>
<path fill="none" stroke="black" d="M347.806,-819.811C333.854,-810.528 317.69,-798.085 306,-784 285.194,-758.931 270.298,-723.943 262.163,-701.629"/>
<text text-anchor="middle" x="269.301" y="-706.133" font-family="Times New Roman,serif" font-size="10.00">gcs</text>
<text text-anchor="middle" x="337.933" y="-815.723" font-family="Times New Roman,serif" font-size="10.00">parent</text>
</g>
<!-- n78 -->
<g id="node4" class="node"><title>n78</title>
<a xlink:href="../examples/org/sdmlib/examples/helloworld/Node.java" xlink:title="&lt;TABLE&gt;">
<polygon fill="none" stroke="black" points="306,-598 306,-615 360,-615 360,-598 306,-598"/>
<text text-anchor="start" x="311" y="-604.5" font-family="Times New Roman,serif" font-size="10.00"> </text>
<text text-anchor="start" x="314" y="-604.5" font-family="Times New Roman,serif" font-size="10.00">n78 :Node</text>
</a>
<polygon fill="none" stroke="black" points="306,-578 306,-598 360,-598 360,-578 306,-578"/>
<text text-anchor="start" x="311" y="-586" font-family="Times New Roman,serif" font-size="10.00">text = &quot;n2&quot;</text>
</g>
<!-- g75&#45;&#45;n78 -->
<g id="edge4" class="edge"><title>g75&#45;&#45;n78</title>
<path fill="none" stroke="black" d="M373.836,-819.812C365.993,-777.213 345.668,-666.809 337.005,-619.757"/>
<text text-anchor="middle" x="342.803" y="-625.405" font-family="Times New Roman,serif" font-size="10.00">gcs</text>
<text text-anchor="middle" x="368.038" y="-809.164" font-family="Times New Roman,serif" font-size="10.00">parent</text>
</g>
<!-- e79 -->
<g id="node5" class="node"><title>e79</title>
<a xlink:href="../examples/org/sdmlib/examples/helloworld/Edge.java" xlink:title="&lt;TABLE&gt;">
<polygon fill="none" stroke="black" points="307,-516 307,-533 365,-533 365,-516 307,-516"/>
<text text-anchor="start" x="315" y="-522.5" font-family="Times New Roman,serif" font-size="10.00"> </text>
<text text-anchor="start" x="318" y="-522.5" font-family="Times New Roman,serif" font-size="10.00">e79 :Edge</text>
</a>
<polygon fill="none" stroke="black" points="307,-496 307,-516 365,-516 365,-496 307,-496"/>
<text text-anchor="start" x="312" y="-504" font-family="Times New Roman,serif" font-size="10.00">text = &quot;e11&quot;</text>
</g>
<!-- g75&#45;&#45;e79 -->
<g id="edge24" class="edge"><title>g75&#45;&#45;e79</title>
<path fill="none" stroke="black" d="M380.492,-819.843C388.46,-777.071 405.208,-662.772 377,-574 372.78,-560.72 364.297,-547.863 356.137,-537.643"/>
<text text-anchor="middle" x="365.045" y="-539.687" font-family="Times New Roman,serif" font-size="10.00">gcs</text>
<text text-anchor="middle" x="377.888" y="-807.687" font-family="Times New Roman,serif" font-size="10.00">parent</text>
</g>
<!-- n80 -->
<g id="node6" class="node"><title>n80</title>
<a xlink:href="../examples/org/sdmlib/examples/helloworld/Node.java" xlink:title="&lt;TABLE&gt;">
<polygon fill="none" stroke="black" points="309,-434 309,-451 363,-451 363,-434 309,-434"/>
<text text-anchor="start" x="314" y="-440.5" font-family="Times New Roman,serif" font-size="10.00"> </text>
<text text-anchor="start" x="317" y="-440.5" font-family="Times New Roman,serif" font-size="10.00">n80 :Node</text>
</a>
<polygon fill="none" stroke="black" points="309,-414 309,-434 363,-434 363,-414 309,-414"/>
<text text-anchor="start" x="314" y="-422" font-family="Times New Roman,serif" font-size="10.00">text = &quot;n3&quot;</text>
</g>
<!-- g75&#45;&#45;n80 -->
<g id="edge6" class="edge"><title>g75&#45;&#45;n80</title>
<path fill="none" stroke="black" d="M387.721,-819.849C404.233,-791.747 434,-733.646 434,-680 434,-680 434,-680 434,-596 434,-538.805 388.726,-484.519 359.723,-455.611"/>
<text text-anchor="middle" x="369.067" y="-456.675" font-family="Times New Roman,serif" font-size="10.00">gcs</text>
<text text-anchor="middle" x="388.545" y="-807.383" font-family="Times New Roman,serif" font-size="10.00">parent</text>
</g>
<!-- e81 -->
<g id="node7" class="node"><title>e81</title>
<a xlink:href="../examples/org/sdmlib/examples/helloworld/Edge.java" xlink:title="&lt;TABLE&gt;">
<polygon fill="none" stroke="black" points="150,-352 150,-369 208,-369 208,-352 150,-352"/>
<text text-anchor="start" x="158" y="-358.5" font-family="Times New Roman,serif" font-size="10.00"> </text>
<text text-anchor="start" x="161" y="-358.5" font-family="Times New Roman,serif" font-size="10.00">e81 :Edge</text>
</a>
<polygon fill="none" stroke="black" points="150,-332 150,-352 208,-352 208,-332 150,-332"/>
<text text-anchor="start" x="155" y="-340" font-family="Times New Roman,serif" font-size="10.00">text = &quot;e12&quot;</text>
</g>
<!-- g75&#45;&#45;e81 -->
<g id="edge26" class="edge"><title>g75&#45;&#45;e81</title>
<path fill="none" stroke="black" d="M342.701,-832.362C291.338,-824.719 197.997,-807.91 175,-784 142.184,-749.881 152,-727.339 152,-680 152,-680 152,-680 152,-514 152,-463.104 165.127,-404.423 173.075,-373.558"/>
<text text-anchor="middle" x="174.97" y="-380.877" font-family="Times New Roman,serif" font-size="10.00">gcs</text>
<text text-anchor="middle" x="333.098" y="-832.65" font-family="Times New Roman,serif" font-size="10.00">parent</text>
</g>
<!-- e82 -->
<g id="node8" class="node"><title>e82</title>
<a xlink:href="../examples/org/sdmlib/examples/helloworld/Edge.java" xlink:title="&lt;TABLE&gt;">
<polygon fill="none" stroke="black" points="242,-352 242,-369 300,-369 300,-352 242,-352"/>
<text text-anchor="start" x="250" y="-358.5" font-family="Times New Roman,serif" font-size="10.00"> </text>
<text text-anchor="start" x="253" y="-358.5" font-family="Times New Roman,serif" font-size="10.00">e82 :Edge</text>
</a>
<polygon fill="none" stroke="black" points="242,-332 242,-352 300,-352 300,-332 242,-332"/>
<text text-anchor="start" x="247" y="-340" font-family="Times New Roman,serif" font-size="10.00">text = &quot;e13&quot;</text>
</g>
<!-- g75&#45;&#45;e82 -->
<g id="edge28" class="edge"><title>g75&#45;&#45;e82</title>
<path fill="none" stroke="black" d="M369.669,-819.837C349.393,-772.238 293.736,-640.707 289,-620 268.467,-530.219 268.902,-419.457 270.174,-373.523"/>
<text text-anchor="middle" x="274.204" y="-380.175" font-family="Times New Roman,serif" font-size="10.00">gcs</text>
<text text-anchor="middle" x="362.234" y="-810.649" font-family="Times New Roman,serif" font-size="10.00">parent</text>
</g>
<!-- n83 -->
<g id="node9" class="node"><title>n83</title>
<a xlink:href="../examples/org/sdmlib/examples/helloworld/Node.java" xlink:title="&lt;TABLE&gt;">
<polygon fill="none" stroke="black" points="112,-270 112,-287 166,-287 166,-270 112,-270"/>
<text text-anchor="start" x="117" y="-276.5" font-family="Times New Roman,serif" font-size="10.00"> </text>
<text text-anchor="start" x="120" y="-276.5" font-family="Times New Roman,serif" font-size="10.00">n83 :Node</text>
</a>
<polygon fill="none" stroke="black" points="112,-250 112,-270 166,-270 166,-250 112,-250"/>
<text text-anchor="start" x="117" y="-258" font-family="Times New Roman,serif" font-size="10.00">text = &quot;n4&quot;</text>
</g>
<!-- g75&#45;&#45;n83 -->
<g id="edge8" class="edge"><title>g75&#45;&#45;n83</title>
<path fill="none" stroke="black" d="M342.649,-833.194C285.949,-826.254 176.223,-809.828 148,-784 112.126,-751.169 114,-728.63 114,-680 114,-680 114,-680 114,-432 114,-381.203 126.154,-322.483 133.514,-291.585"/>
<text text-anchor="middle" x="135.583" y="-298.869" font-family="Times New Roman,serif" font-size="10.00">gcs</text>
<text text-anchor="middle" x="333.122" y="-833.734" font-family="Times New Roman,serif" font-size="10.00">parent</text>
</g>
<!-- e84 -->
<g id="node10" class="node"><title>e84</title>
<a xlink:href="../examples/org/sdmlib/examples/helloworld/Edge.java" xlink:title="&lt;TABLE&gt;">
<polygon fill="none" stroke="black" points="92,-188 92,-205 150,-205 150,-188 92,-188"/>
<text text-anchor="start" x="100" y="-194.5" font-family="Times New Roman,serif" font-size="10.00"> </text>
<text text-anchor="start" x="103" y="-194.5" font-family="Times New Roman,serif" font-size="10.00">e84 :Edge</text>
</a>
<polygon fill="none" stroke="black" points="92,-168 92,-188 150,-188 150,-168 92,-168"/>
<text text-anchor="start" x="97" y="-176" font-family="Times New Roman,serif" font-size="10.00">text = &quot;e14&quot;</text>
</g>
<!-- g75&#45;&#45;e84 -->
<g id="edge30" class="edge"><title>g75&#45;&#45;e84</title>
<path fill="none" stroke="black" d="M342.42,-834.137C279.329,-828.262 148.907,-812.898 115,-784 77.4287,-751.979 76,-729.365 76,-680 76,-680 76,-680 76,-350 76,-303.013 81.0668,-290.874 95,-246 98.8612,-233.564 104.687,-220.27 109.846,-209.551"/>
<text text-anchor="middle" x="109.769" y="-217.05" font-family="Times New Roman,serif" font-size="10.00">gcs</text>
<text text-anchor="middle" x="332.986" y="-834.953" font-family="Times New Roman,serif" font-size="10.00">parent</text>
</g>
<!-- n85 -->
<g id="node11" class="node"><title>n85</title>
<a xlink:href="../examples/org/sdmlib/examples/helloworld/Node.java" xlink:title="&lt;TABLE&gt;">
<polygon fill="none" stroke="black" points="94,-106 94,-123 148,-123 148,-106 94,-106"/>
<text text-anchor="start" x="99" y="-112.5" font-family="Times New Roman,serif" font-size="10.00"> </text>
<text text-anchor="start" x="102" y="-112.5" font-family="Times New Roman,serif" font-size="10.00">n85 :Node</text>
</a>
<polygon fill="none" stroke="black" points="94,-86 94,-106 148,-106 148,-86 94,-86"/>
<text text-anchor="start" x="99" y="-94" font-family="Times New Roman,serif" font-size="10.00">text = &quot;n5&quot;</text>
</g>
<!-- g75&#45;&#45;n85 -->
<g id="edge10" class="edge"><title>g75&#45;&#45;n85</title>
<path fill="none" stroke="black" d="M342.529,-835.082C272.74,-830.544 117.963,-816.951 78,-784 39.7906,-752.495 38,-729.523 38,-680 38,-680 38,-680 38,-268 38,-212.539 77.0079,-156.985 101.54,-127.53"/>
<text text-anchor="middle" x="99.1381" y="-134.737" font-family="Times New Roman,serif" font-size="10.00">gcs</text>
<text text-anchor="middle" x="333.191" y="-836.159" font-family="Times New Roman,serif" font-size="10.00">parent</text>
</g>
<!-- e86 -->
<g id="node12" class="node"><title>e86</title>
<a xlink:href="../examples/org/sdmlib/examples/helloworld/Edge.java" xlink:title="&lt;TABLE&gt;">
<polygon fill="none" stroke="black" points="23,-24 23,-41 81,-41 81,-24 23,-24"/>
<text text-anchor="start" x="31" y="-30.5" font-family="Times New Roman,serif" font-size="10.00"> </text>
<text text-anchor="start" x="34" y="-30.5" font-family="Times New Roman,serif" font-size="10.00">e86 :Edge</text>
</a>
<polygon fill="none" stroke="black" points="23,-4 23,-24 81,-24 81,-4 23,-4"/>
<text text-anchor="start" x="28" y="-12" font-family="Times New Roman,serif" font-size="10.00">text = &quot;e18&quot;</text>
</g>
<!-- g75&#45;&#45;e86 -->
<g id="edge18" class="edge"><title>g75&#45;&#45;e86</title>
<path fill="none" stroke="black" d="M342.575,-835.858C266.289,-832.666 86.1173,-821.279 40,-784 1.48615,-752.868 0,-729.523 0,-680 0,-680 0,-680 0,-186 0,-133.569 24.9989,-75.9642 40.3302,-45.566"/>
<text text-anchor="middle" x="40.1356" y="-53.0642" font-family="Times New Roman,serif" font-size="10.00">gcs</text>
<text text-anchor="middle" x="333.322" y="-837.15" font-family="Times New Roman,serif" font-size="10.00">parent</text>
</g>
<!-- e87 -->
<g id="node13" class="node"><title>e87</title>
<a xlink:href="../examples/org/sdmlib/examples/helloworld/Edge.java" xlink:title="&lt;TABLE&gt;">
<polygon fill="none" stroke="black" points="307,-24 307,-41 365,-41 365,-24 307,-24"/>
<text text-anchor="start" x="315" y="-30.5" font-family="Times New Roman,serif" font-size="10.00"> </text>
<text text-anchor="start" x="318" y="-30.5" font-family="Times New Roman,serif" font-size="10.00">e87 :Edge</text>
</a>
<polygon fill="none" stroke="black" points="307,-4 307,-24 365,-24 365,-4 307,-4"/>
<text text-anchor="start" x="312" y="-12" font-family="Times New Roman,serif" font-size="10.00">text = &quot;e15&quot;</text>
</g>
<!-- g75&#45;&#45;e87 -->
<g id="edge32" class="edge"><title>g75&#45;&#45;e87</title>
<path fill="none" stroke="black" d="M397.189,-819.895C407.712,-810.187 420.187,-797.335 429,-784 456.576,-742.271 472,-730.017 472,-680 472,-680 472,-680 472,-186 472,-123.756 412.379,-72.9179 372.088,-45.6686"/>
<text text-anchor="middle" x="381.931" y="-44.9344" font-family="Times New Roman,serif" font-size="10.00">gcs</text>
<text text-anchor="middle" x="400.919" y="-808.116" font-family="Times New Roman,serif" font-size="10.00">parent</text>
</g>
<!-- e88 -->
<g id="node14" class="node"><title>e88</title>
<a xlink:href="../examples/org/sdmlib/examples/helloworld/Edge.java" xlink:title="&lt;TABLE&gt;">
<polygon fill="none" stroke="black" points="440,-24 440,-41 498,-41 498,-24 440,-24"/>
<text text-anchor="start" x="448" y="-30.5" font-family="Times New Roman,serif" font-size="10.00"> </text>
<text text-anchor="start" x="451" y="-30.5" font-family="Times New Roman,serif" font-size="10.00">e88 :Edge</text>
</a>
<polygon fill="none" stroke="black" points="440,-4 440,-24 498,-24 498,-4 440,-4"/>
<text text-anchor="start" x="445" y="-12" font-family="Times New Roman,serif" font-size="10.00">text = &quot;e19&quot;</text>
</g>
<!-- g75&#45;&#45;e88 -->
<g id="edge20" class="edge"><title>g75&#45;&#45;e88</title>
<path fill="none" stroke="black" d="M411.547,-819.847C427.19,-810.806 445.036,-798.559 458,-784 492.367,-745.405 510,-731.678 510,-680 510,-680 510,-680 510,-186 510,-134.359 490.178,-76.2109 478.099,-45.5709"/>
<text text-anchor="middle" x="485.29" y="-50.0198" font-family="Times New Roman,serif" font-size="10.00">gcs</text>
<text text-anchor="middle" x="417.2" y="-809.098" font-family="Times New Roman,serif" font-size="10.00">parent</text>
</g>
<!-- n89 -->
<g id="node15" class="node"><title>n89</title>
<a xlink:href="../examples/org/sdmlib/examples/helloworld/Node.java" xlink:title="&lt;TABLE&gt;">
<polygon fill="none" stroke="black" points="546,-762 546,-779 600,-779 600,-762 546,-762"/>
<text text-anchor="start" x="551" y="-768.5" font-family="Times New Roman,serif" font-size="10.00"> </text>
<text text-anchor="start" x="554" y="-768.5" font-family="Times New Roman,serif" font-size="10.00">n89 :Node</text>
</a>
<polygon fill="none" stroke="black" points="546,-742 546,-762 600,-762 600,-742 546,-742"/>
<text text-anchor="start" x="551" y="-750" font-family="Times New Roman,serif" font-size="10.00">text = &quot;n6&quot;</text>
</g>
<!-- g75&#45;&#45;n89 -->
<g id="edge12" class="edge"><title>g75&#45;&#45;n89</title>
<path fill="none" stroke="black" d="M411.437,-825.413C441.407,-815.133 485.893,-799.398 524,-784 528.496,-782.183 533.187,-780.197 537.809,-778.185"/>
<text text-anchor="middle" x="531.178" y="-783.171" font-family="Times New Roman,serif" font-size="10.00">gcs</text>
<text text-anchor="middle" x="418.628" y="-815.964" font-family="Times New Roman,serif" font-size="10.00">parent</text>
</g>
<!-- n90 -->
<g id="node16" class="node"><title>n90</title>
<a xlink:href="../examples/org/sdmlib/examples/helloworld/Node.java" xlink:title="&lt;TABLE&gt;">
<polygon fill="none" stroke="black" points="634,-762 634,-779 688,-779 688,-762 634,-762"/>
<text text-anchor="start" x="639" y="-768.5" font-family="Times New Roman,serif" font-size="10.00"> </text>
<text text-anchor="start" x="642" y="-768.5" font-family="Times New Roman,serif" font-size="10.00">n90 :Node</text>
</a>
<polygon fill="none" stroke="black" points="634,-742 634,-762 688,-762 688,-742 634,-742"/>
<text text-anchor="start" x="639" y="-750" font-family="Times New Roman,serif" font-size="10.00">text = &quot;n7&quot;</text>
</g>
<!-- g75&#45;&#45;n90 -->
<g id="edge14" class="edge"><title>g75&#45;&#45;n90</title>
<path fill="none" stroke="black" d="M411.522,-832.117C458.826,-824.815 546.01,-809.151 617,-784 619.898,-782.973 622.851,-781.8 625.787,-780.542"/>
<text text-anchor="middle" x="619.101" y="-785.479" font-family="Times New Roman,serif" font-size="10.00">gcs</text>
<text text-anchor="middle" x="419.807" y="-824.018" font-family="Times New Roman,serif" font-size="10.00">parent</text>
</g>
<!-- n91 -->
<g id="node17" class="node"><title>n91</title>
<a xlink:href="../examples/org/sdmlib/examples/helloworld/Node.java" xlink:title="&lt;TABLE&gt;">
<polygon fill="none" stroke="black" points="760,-762 760,-779 814,-779 814,-762 760,-762"/>
<text text-anchor="start" x="765" y="-768.5" font-family="Times New Roman,serif" font-size="10.00"> </text>
<text text-anchor="start" x="768" y="-768.5" font-family="Times New Roman,serif" font-size="10.00">n91 :Node</text>
</a>
<polygon fill="none" stroke="black" points="760,-742 760,-762 814,-762 814,-742 760,-742"/>
<text text-anchor="start" x="765" y="-750" font-family="Times New Roman,serif" font-size="10.00">text = &quot;n8&quot;</text>
</g>
<!-- g75&#45;&#45;n91 -->
<g id="edge16" class="edge"><title>g75&#45;&#45;n91</title>
<path fill="none" stroke="black" d="M411.261,-835.123C476.183,-830.879 621.093,-818.11 738,-784 742.565,-782.668 747.257,-780.994 751.842,-779.166"/>
<text text-anchor="middle" x="744.96" y="-783.922" font-family="Times New Roman,serif" font-size="10.00">gcs</text>
<text text-anchor="middle" x="420.003" y="-827.767" font-family="Times New Roman,serif" font-size="10.00">parent</text>
</g>
<!-- e92 -->
<g id="node18" class="node"><title>e92</title>
<a xlink:href="../examples/org/sdmlib/examples/helloworld/Edge.java" xlink:title="&lt;TABLE&gt;">
<polygon fill="none" stroke="black" points="703,-680 703,-697 761,-697 761,-680 703,-680"/>
<text text-anchor="start" x="711" y="-686.5" font-family="Times New Roman,serif" font-size="10.00"> </text>
<text text-anchor="start" x="714" y="-686.5" font-family="Times New Roman,serif" font-size="10.00">e92 :Edge</text>
</a>
<polygon fill="none" stroke="black" points="703,-660 703,-680 761,-680 761,-660 703,-660"/>
<text text-anchor="start" x="708" y="-668" font-family="Times New Roman,serif" font-size="10.00">text = &quot;e16&quot;</text>
</g>
<!-- g75&#45;&#45;e92 -->
<g id="edge34" class="edge"><title>g75&#45;&#45;e92</title>
<path fill="none" stroke="black" d="M411.378,-836.065C486.583,-833.311 662.398,-822.782 705,-784 727.899,-763.155 732.453,-725.614 732.826,-701.795"/>
<text text-anchor="middle" x="736.747" y="-708.494" font-family="Times New Roman,serif" font-size="10.00">gcs</text>
<text text-anchor="middle" x="420.253" y="-828.957" font-family="Times New Roman,serif" font-size="10.00">parent</text>
</g>
<!-- e93 -->
<g id="node19" class="node"><title>e93</title>
<a xlink:href="../examples/org/sdmlib/examples/helloworld/Edge.java" xlink:title="&lt;TABLE&gt;">
<polygon fill="none" stroke="black" points="812,-680 812,-697 870,-697 870,-680 812,-680"/>
<text text-anchor="start" x="820" y="-686.5" font-family="Times New Roman,serif" font-size="10.00"> </text>
<text text-anchor="start" x="823" y="-686.5" font-family="Times New Roman,serif" font-size="10.00">e93 :Edge</text>
</a>
<polygon fill="none" stroke="black" points="812,-660 812,-680 870,-680 870,-660 812,-660"/>
<text text-anchor="start" x="817" y="-668" font-family="Times New Roman,serif" font-size="10.00">text = &quot;e17&quot;</text>
</g>
<!-- g75&#45;&#45;e93 -->
<g id="edge36" class="edge"><title>g75&#45;&#45;e93</title>
<path fill="none" stroke="black" d="M411.437,-835.434C512.282,-830.516 801.704,-813.899 831,-784 852.074,-762.493 850.022,-725.149 845.975,-701.55"/>
<text text-anchor="middle" x="851.514" y="-707.375" font-family="Times New Roman,serif" font-size="10.00">gcs</text>
<text text-anchor="middle" x="420.271" y="-828.247" font-family="Times New Roman,serif" font-size="10.00">parent</text>
</g>
<!-- n76&#45;&#45;e77 -->
<g id="edge38" class="edge"><title>n76&#45;&#45;e77</title>
<path fill="none" stroke="black" d="M228.837,-738.14C233.958,-726.759 240.198,-712.893 245.299,-701.557"/>
<text text-anchor="middle" x="245.434" y="-709.056" font-family="Times New Roman,serif" font-size="10.00">outEdges</text>
<text text-anchor="middle" x="228.702" y="-725.641" font-family="Times New Roman,serif" font-size="10.00">src</text>
</g>
<!-- n76&#45;&#45;e81 -->
<g id="edge40" class="edge"><title>n76&#45;&#45;e81</title>
<path fill="none" stroke="black" d="M212.636,-738.471C204.099,-707.641 190,-649.001 190,-598 190,-598 190,-598 190,-514 190,-463.681 184.652,-404.773 181.414,-373.717"/>
<text text-anchor="middle" x="186.534" y="-379.806" font-family="Times New Roman,serif" font-size="10.00">inEdges</text>
<text text-anchor="middle" x="206.197" y="-728.32" font-family="Times New Roman,serif" font-size="10.00">tgt</text>
</g>
<!-- e77&#45;&#45;n78 -->
<g id="edge42" class="edge"><title>e77&#45;&#45;n78</title>
<path fill="none" stroke="black" d="M276.314,-656.14C287.41,-644.759 300.929,-630.893 311.982,-619.557"/>
<text text-anchor="middle" x="308.681" y="-626.496" font-family="Times New Roman,serif" font-size="10.00">tgt</text>
<text text-anchor="middle" x="279.615" y="-644.2" font-family="Times New Roman,serif" font-size="10.00">inEdges</text>
</g>
<!-- n78&#45;&#45;e79 -->
<g id="edge44" class="edge"><title>n78&#45;&#45;e79</title>
<path fill="none" stroke="black" d="M333.82,-574.14C334.247,-562.759 334.767,-548.893 335.192,-537.557"/>
<text text-anchor="middle" x="339.075" y="-544.272" font-family="Times New Roman,serif" font-size="10.00">outEdges</text>
<text text-anchor="middle" x="329.936" y="-562.425" font-family="Times New Roman,serif" font-size="10.00">src</text>
</g>
<!-- e79&#45;&#45;n80 -->
<g id="edge46" class="edge"><title>e79&#45;&#45;n80</title>
<path fill="none" stroke="black" d="M336,-492.14C336,-480.759 336,-466.893 336,-455.557"/>
<text text-anchor="middle" x="340.226" y="-462.12" font-family="Times New Roman,serif" font-size="10.00">tgt</text>
<text text-anchor="middle" x="331.774" y="-480.577" font-family="Times New Roman,serif" font-size="10.00">inEdges</text>
</g>
<!-- n80&#45;&#45;e81 -->
<g id="edge48" class="edge"><title>n80&#45;&#45;e81</title>
<path fill="none" stroke="black" d="M300.766,-414.046C275.542,-401.194 241.651,-383.924 216.029,-370.868"/>
<text text-anchor="middle" x="226.023" y="-368.717" font-family="Times New Roman,serif" font-size="10.00">outEdges</text>
<text text-anchor="middle" x="290.772" y="-411.197" font-family="Times New Roman,serif" font-size="10.00">src</text>
</g>
<!-- n80&#45;&#45;e82 -->
<g id="edge50" class="edge"><title>n80&#45;&#45;e82</title>
<path fill="none" stroke="black" d="M318.238,-410.14C308.992,-398.759 297.725,-384.893 288.515,-373.557"/>
<text text-anchor="middle" x="297.51" y="-375.426" font-family="Times New Roman,serif" font-size="10.00">outEdges</text>
<text text-anchor="middle" x="309.243" y="-403.271" font-family="Times New Roman,serif" font-size="10.00">src</text>
</g>
<!-- n80&#45;&#45;e87 -->
<g id="edge52" class="edge"><title>n80&#45;&#45;e87</title>
<path fill="none" stroke="black" d="M336,-410.251C336,-379.157 336,-320.203 336,-270 336,-270 336,-270 336,-186 336,-135.797 336,-76.8425 336,-45.7485"/>
<text text-anchor="middle" x="340.226" y="-52.3116" font-family="Times New Roman,serif" font-size="10.00">inEdges</text>
<text text-anchor="middle" x="331.774" y="-398.688" font-family="Times New Roman,serif" font-size="10.00">tgt</text>
</g>
<!-- e82&#45;&#45;n83 -->
<g id="edge54" class="edge"><title>e82&#45;&#45;n83</title>
<path fill="none" stroke="black" d="M235.279,-328.351C216.344,-316.875 193.163,-302.826 174.292,-291.389"/>
<text text-anchor="middle" x="184.233" y="-289.972" font-family="Times New Roman,serif" font-size="10.00">tgt</text>
<text text-anchor="middle" x="225.338" y="-324.768" font-family="Times New Roman,serif" font-size="10.00">inEdges</text>
</g>
<!-- n83&#45;&#45;e84 -->
<g id="edge56" class="edge"><title>n83&#45;&#45;e84</title>
<path fill="none" stroke="black" d="M134.081,-246.14C131.521,-234.759 128.401,-220.893 125.85,-209.557"/>
<text text-anchor="middle" x="131.963" y="-214.971" font-family="Times New Roman,serif" font-size="10.00">outEdges</text>
<text text-anchor="middle" x="127.969" y="-235.725" font-family="Times New Roman,serif" font-size="10.00">src</text>
</g>
<!-- e84&#45;&#45;n85 -->
<g id="edge58" class="edge"><title>e84&#45;&#45;n85</title>
<path fill="none" stroke="black" d="M121,-164.14C121,-152.759 121,-138.893 121,-127.557"/>
<text text-anchor="middle" x="125.226" y="-134.12" font-family="Times New Roman,serif" font-size="10.00">tgt</text>
<text text-anchor="middle" x="116.774" y="-152.577" font-family="Times New Roman,serif" font-size="10.00">inEdges</text>
</g>
<!-- n85&#45;&#45;e86 -->
<g id="edge60" class="edge"><title>n85&#45;&#45;e86</title>
<path fill="none" stroke="black" d="M102.145,-82.1396C92.3296,-70.759 80.3701,-56.8929 70.5929,-45.5569"/>
<text text-anchor="middle" x="79.7125" y="-47.1597" font-family="Times New Roman,serif" font-size="10.00">outEdges</text>
<text text-anchor="middle" x="93.0258" y="-75.5369" font-family="Times New Roman,serif" font-size="10.00">src</text>
</g>
<!-- n85&#45;&#45;e87 -->
<g id="edge62" class="edge"><title>n85&#45;&#45;e87</title>
<path fill="none" stroke="black" d="M156.022,-90.9686C195.289,-76.3577 258.705,-52.7611 298.828,-37.8315"/>
<text text-anchor="middle" x="291.808" y="-42.453" font-family="Times New Roman,serif" font-size="10.00">outEdges</text>
<text text-anchor="middle" x="163.042" y="-81.3471" font-family="Times New Roman,serif" font-size="10.00">src</text>
</g>
<!-- n85&#45;&#45;e88 -->
<g id="edge64" class="edge"><title>n85&#45;&#45;e88</title>
<path fill="none" stroke="black" d="M156.113,-96.5356C206.298,-85.7903 301.386,-65.1453 382,-46 398.371,-42.1121 416.413,-37.589 431.802,-33.6588"/>
<text text-anchor="middle" x="424.063" y="-37.492" font-family="Times New Roman,serif" font-size="10.00">inEdges</text>
<text text-anchor="middle" x="164.087" y="-88.0009" font-family="Times New Roman,serif" font-size="10.00">tgt</text>
</g>
<!-- n91&#45;&#45;e92 -->
<g id="edge66" class="edge"><title>n91&#45;&#45;e92</title>
<path fill="none" stroke="black" d="M771.971,-738.14C764.147,-726.759 754.614,-712.893 746.82,-701.557"/>
<text text-anchor="middle" x="755.437" y="-704.131" font-family="Times New Roman,serif" font-size="10.00">outEdges_inEdges</text>
<text text-anchor="middle" x="763.354" y="-730.566" font-family="Times New Roman,serif" font-size="10.00">src_tgt</text>
</g>
<!-- n91&#45;&#45;e93 -->
<g id="edge68" class="edge"><title>n91&#45;&#45;e93</title>
<path fill="none" stroke="black" d="M801.756,-738.14C809.438,-726.759 818.797,-712.893 826.449,-701.557"/>
<text text-anchor="middle" x="824.881" y="-708.933" font-family="Times New Roman,serif" font-size="10.00">outEdges_inEdges</text>
<text text-anchor="middle" x="803.323" y="-725.763" font-family="Times New Roman,serif" font-size="10.00">src_tgt</text>
</g>
</g>
</svg>
