<?xml version="1.0" encoding="UTF-8" standalone="no"?>
<!DOCTYPE svg PUBLIC "-//W3C//DTD SVG 1.1//EN"
 "http://www.w3.org/Graphics/SVG/1.1/DTD/svg11.dtd">
<!-- Generated by graphviz version 2.28.0 (20110507.0327)
 -->
<!-- Title: ObjectDiagram Pages: 1 -->
<svg width="201pt" height="208pt"
 viewBox="0.00 0.00 201.48 208.00" xmlns="http://www.w3.org/2000/svg" xmlns:xlink="http://www.w3.org/1999/xlink">
<g id="graph1" class="graph" transform="scale(1 1) rotate(0) translate(4 204)">
<title>ObjectDiagram</title>
<polygon fill="white" stroke="white" points="-4,5 -4,-204 198.482,-204 198.482,5 -4,5"/>
<!-- n17 -->
<g id="node1" class="node"><title>n17</title>
<polygon fill="none" stroke="black" points="109,-178 109,-195 170,-195 170,-178 109,-178"/>
<text text-anchor="start" x="117.5" y="-184.5" font-family="Times New Roman,serif" font-size="10.00"> </text>
<text text-anchor="start" x="120.5" y="-184.5" font-family="Times New Roman,serif" font-size="10.00">n17 :Node</text>
<polygon fill="none" stroke="black" points="109,-158 109,-178 170,-178 170,-158 109,-158"/>
<text text-anchor="start" x="114.5" y="-166" font-family="Times New Roman,serif" font-size="10.00">name = &quot;n8&quot;</text>
</g>
<!-- e18 -->
<g id="node2" class="node"><title>e18</title>
<polygon fill="none" stroke="black" points="8,-96 8,-113 73,-113 73,-96 8,-96"/>
<text text-anchor="start" x="19.5" y="-102.5" font-family="Times New Roman,serif" font-size="10.00"> </text>
<text text-anchor="start" x="22.5" y="-102.5" font-family="Times New Roman,serif" font-size="10.00">e18 :Edge</text>
<polygon fill="none" stroke="black" points="8,-76 8,-96 73,-96 73,-76 8,-76"/>
<text text-anchor="start" x="13.5" y="-84" font-family="Times New Roman,serif" font-size="10.00">name = &quot;e16&quot;</text>
</g>
<!-- n17&#45;&#45;e18 -->
<g id="edge6" class="edge"><title>n17&#45;&#45;e18</title>
<path fill="none" stroke="black" d="M112.209,-154.351C98.1222,-142.967 80.9024,-129.052 66.8122,-117.666"/>
<text text-anchor="middle" x="76.5177" y="-117.576" font-family="Times New Roman,serif" font-size="10.00">outEdges_inEdges</text>
<text text-anchor="middle" x="102.504" y="-149.442" font-family="Times New Roman,serif" font-size="10.00">src_tgt</text>
</g>
<!-- e19 -->
<g id="node3" class="node"><title>e19</title>
<polygon fill="none" stroke="black" points="107,-96 107,-113 172,-113 172,-96 107,-96"/>
<text text-anchor="start" x="118.5" y="-102.5" font-family="Times New Roman,serif" font-size="10.00"> </text>
<text text-anchor="start" x="121.5" y="-102.5" font-family="Times New Roman,serif" font-size="10.00">e19 :Edge</text>
<polygon fill="none" stroke="black" points="107,-76 107,-96 172,-96 172,-76 107,-76"/>
<text text-anchor="start" x="112.5" y="-84" font-family="Times New Roman,serif" font-size="10.00">name = &quot;e17&quot;</text>
</g>
<!-- n17&#45;&#45;e19 -->
<g id="edge8" class="edge"><title>n17&#45;&#45;e19</title>
<path fill="none" stroke="black" d="M139,-154.14C139,-142.759 139,-128.893 139,-117.557"/>
<text text-anchor="middle" x="143.226" y="-124.12" font-family="Times New Roman,serif" font-size="10.00">outEdges_inEdges</text>
<text text-anchor="middle" x="134.774" y="-142.577" font-family="Times New Roman,serif" font-size="10.00">src_tgt</text>
</g>
<!-- g2 -->
<g id="node5" class="node"><title>g2</title>
<text text-anchor="middle" x="139" y="-15.5" font-family="Times New Roman,serif" font-size="10.00">g2</text>
</g>
<!-- n17&#45;&#45;g2 -->
<g id="edge10" class="edge"><title>n17&#45;&#45;g2</title>
<path fill="none" stroke="black" d="M163.514,-154.482C173.093,-144.47 182.973,-131.741 188,-118 195.025,-98.8003 195.452,-91.0379 188,-72 182.519,-57.997 171.41,-45.4763 161.153,-36.1251"/>
<text text-anchor="middle" x="170.657" y="-36.7343" font-family="Times New Roman,serif" font-size="10.00">graph</text>
</g>
<!-- e18&#45;&#45;g2 -->
<g id="edge2" class="edge"><title>e18&#45;&#45;g2</title>
<path fill="none" stroke="black" d="M68.6349,-72.3069C83.8252,-60.7991 102.224,-46.8604 116.398,-36.1228"/>
<text text-anchor="middle" x="111.726" y="-42.4642" font-family="Times New Roman,serif" font-size="10.00">graph</text>
</g>
<!-- e19&#45;&#45;g2 -->
<g id="edge4" class="edge"><title>e19&#45;&#45;g2</title>
<path fill="none" stroke="black" d="M139,-72.3069C139,-60.8856 139,-47.0699 139,-36.3655"/>
<text text-anchor="middle" x="143.226" y="-42.9286" font-family="Times New Roman,serif" font-size="10.00">graph</text>
</g>
</g>
</svg>
