<?xml version="1.0" encoding="UTF-8" standalone="no"?>
<!DOCTYPE svg PUBLIC "-//W3C//DTD SVG 1.1//EN"
 "http://www.w3.org/Graphics/SVG/1.1/DTD/svg11.dtd">
<!-- Generated by graphviz version 2.28.0 (20110507.0327)
 -->
<!-- Title: ObjectDiagram Pages: 1 -->
<svg width="1486pt" height="957pt"
 viewBox="0.00 0.00 1486.00 957.00" xmlns="http://www.w3.org/2000/svg" xmlns:xlink="http://www.w3.org/1999/xlink">
<g id="graph1" class="graph" transform="scale(1 1) rotate(0) translate(4 953)">
<title>ObjectDiagram</title>
<polygon fill="white" stroke="white" points="-4,5 -4,-953 1483,-953 1483,5 -4,5"/>
<g id="graph2" class="cluster"><title>cluster_n3</title>
<polygon fill="none" stroke="grey" points="487,-648 487,-741 696,-741 696,-648 487,-648"/>
<text text-anchor="start" x="571.5" y="-721.8" font-family="Times New Roman,serif" font-size="14.00">NAC n3</text>
</g>
<!-- g1 -->
<g id="node1" class="node"><title>g1</title>
<polygon fill="deepskyblue" stroke="deepskyblue" points="793.5,-907.5 793.5,-944.5 868.5,-944.5 868.5,-907.5 793.5,-907.5"/>
<polygon fill="none" stroke="black" points="794,-927 794,-944 869,-944 869,-927 794,-927"/>
<text text-anchor="start" x="797.5" y="-933.5" font-family="Arial" font-size="10.00"> </text>
<text text-anchor="start" x="801.5" y="-933.5" font-family="Arial" font-size="10.00"> g1 :GraphPO </text>
<polygon fill="none" stroke="black" points="794,-907 794,-927 869,-927 869,-907 794,-907"/>
<text text-anchor="start" x="828" y="-915" font-family="Arial" font-size="10.00"> &#160;</text>
</g>
<!-- e2 -->
<g id="node2" class="node"><title>e2</title>
<polygon fill="deepskyblue" stroke="deepskyblue" points="336.5,-753.5 336.5,-790.5 407.5,-790.5 407.5,-753.5 336.5,-753.5"/>
<polygon fill="none" stroke="black" points="337,-773 337,-790 408,-790 408,-773 337,-773"/>
<text text-anchor="start" x="340.5" y="-779.5" font-family="Arial" font-size="10.00"> </text>
<text text-anchor="start" x="344.5" y="-779.5" font-family="Arial" font-size="10.00"> e2 :EdgePO </text>
<polygon fill="none" stroke="black" points="337,-753 337,-773 408,-773 408,-753 337,-753"/>
<text text-anchor="start" x="369" y="-761" font-family="Arial" font-size="10.00"> &#160;</text>
</g>
<!-- g1&#45;&#45;e2 -->
<g id="edge31" class="edge"><title>g1&#45;&#45;e2</title>
<path fill="none" stroke="black" d="M785.733,-910.01C697.301,-880.725 502.648,-816.265 415.583,-787.433"/>
<text text-anchor="middle" x="425.515" y="-783.77" font-family="Arial" font-size="10.00">edges</text>
</g>
<!-- g6 -->
<g id="node7" class="node"><title>g6</title>
<a xlink:href="../../SDMLib/src/org/sdmlib/examples/helloworld/model/Graph.java" xlink:title="&lt;TABLE&gt;">
<polygon fill="none" stroke="black" points="985,-840 985,-857 1039,-857 1039,-840 985,-840"/>
<text text-anchor="start" x="988.5" y="-846.5" font-family="Arial" font-size="10.00"> </text>
<text text-anchor="start" x="992.5" y="-846.5" font-family="Arial" font-size="10.00">g6 :Graph</text>
</a>
</g>
<!-- g1&#45;&#45;g6 -->
<g id="edge3" class="edge"><title>g1&#45;&#45;g6</title>
<path fill="none" stroke="black" stroke-dasharray="1,5" d="M876.674,-906.074C907.778,-893.186 948.332,-876.382 976.907,-864.541"/>
<text text-anchor="middle" x="970.152" y="-869.415" font-family="Arial" font-size="10.00">match</text>
</g>
<!-- allMatches_e2 -->
<g id="node3" class="node"><title>allMatches_e2</title>
<text text-anchor="middle" x="217" y="-676.5" font-family="Arial" font-size="10.00">allMatches</text>
</g>
<!-- e2&#45;&#45;allMatches_e2 -->
<g id="edge5" class="edge"><title>e2&#45;&#45;allMatches_e2</title>
<path fill="none" stroke="black" stroke-dasharray="1,5" d="M328.628,-765.748C307.442,-761.59 282.402,-754.178 263,-741 246.651,-729.896 233.75,-711.053 225.822,-697.242"/>
</g>
<!-- n4 -->
<g id="node5" class="node"><title>n4</title>
<polygon fill="deepskyblue" stroke="deepskyblue" points="608.5,-660.5 608.5,-697.5 679.5,-697.5 679.5,-660.5 608.5,-660.5"/>
<polygon fill="none" stroke="black" points="609,-680 609,-697 680,-697 680,-680 609,-680"/>
<text text-anchor="start" x="612.5" y="-686.5" font-family="Arial" font-size="10.00"> </text>
<text text-anchor="start" x="616.5" y="-686.5" font-family="Arial" font-size="10.00"> n4 :NodePO </text>
<polygon fill="none" stroke="black" points="609,-660 609,-680 680,-680 680,-660 609,-660"/>
<text text-anchor="start" x="641" y="-668" font-family="Arial" font-size="10.00"> &#160;</text>
</g>
<!-- e2&#45;&#45;n4 -->
<g id="edge33" class="edge"><title>e2&#45;&#45;n4</title>
<path fill="none" stroke="black" d="M415.501,-768.658C470.493,-765.081 561.549,-756.929 591,-741 607.782,-731.923 621.691,-715.275 631.044,-701.661"/>
<text text-anchor="middle" x="629.268" y="-709.002" font-family="Arial" font-size="10.00">tgt</text>
</g>
<!-- n5 -->
<g id="node6" class="node"><title>n5</title>
<polygon fill="deepskyblue" stroke="deepskyblue" points="503.5,-660.5 503.5,-697.5 574.5,-697.5 574.5,-660.5 503.5,-660.5"/>
<polygon fill="none" stroke="black" points="504,-680 504,-697 575,-697 575,-680 504,-680"/>
<text text-anchor="start" x="507.5" y="-686.5" font-family="Arial" font-size="10.00"> </text>
<text text-anchor="start" x="511.5" y="-686.5" font-family="Arial" font-size="10.00"> n5 :NodePO </text>
<polygon fill="none" stroke="black" points="504,-660 504,-680 575,-680 575,-660 504,-660"/>
<text text-anchor="start" x="536" y="-668" font-family="Arial" font-size="10.00"> &#160;</text>
</g>
<!-- e2&#45;&#45;n5 -->
<g id="edge35" class="edge"><title>e2&#45;&#45;n5</title>
<path fill="none" stroke="black" d="M415.472,-766.952C439.3,-763.107 468.479,-755.612 491,-741 506.149,-731.172 518.59,-714.919 527.008,-701.661"/>
<text text-anchor="middle" x="525.6" y="-709.061" font-family="Arial" font-size="10.00">src</text>
</g>
<!-- e9 -->
<g id="node9" class="node"><title>e9</title>
<a xlink:href="../../SDMLib/src/org/sdmlib/examples/helloworld/model/Edge.java" xlink:title="&lt;TABLE&gt;">
<polygon fill="none" stroke="black" points="753,-680 753,-697 824,-697 824,-680 753,-680"/>
<text text-anchor="start" x="766.5" y="-686.5" font-family="Arial" font-size="10.00"> </text>
<text text-anchor="start" x="770.5" y="-686.5" font-family="Arial" font-size="10.00">e9 :Edge</text>
</a>
<polygon fill="none" stroke="black" points="753,-660 753,-680 824,-680 824,-660 753,-660"/>
<text text-anchor="start" x="758" y="-668" font-family="Arial" font-size="10.00">name = &quot;e10&quot;</text>
</g>
<!-- e2&#45;&#45;e9 -->
<g id="edge11" class="edge"><title>e2&#45;&#45;e9</title>
<path fill="none" stroke="black" stroke-dasharray="1,5" d="M415.376,-769.768C492.177,-767.135 648.811,-759.608 700,-741 723.935,-732.299 747.455,-715.441 764.149,-701.648"/>
<text text-anchor="middle" x="759.767" y="-708.137" font-family="Arial" font-size="10.00">candidate</text>
</g>
<!-- e10 -->
<g id="node11" class="node"><title>e10</title>
<a xlink:href="../../SDMLib/src/org/sdmlib/examples/helloworld/model/Edge.java" xlink:title="&lt;TABLE&gt;">
<polygon fill="none" stroke="black" points="873,-516 873,-533 944,-533 944,-516 873,-516"/>
<text text-anchor="start" x="884" y="-522.5" font-family="Arial" font-size="10.00"> </text>
<text text-anchor="start" x="888" y="-522.5" font-family="Arial" font-size="10.00">e10 :Edge</text>
</a>
<polygon fill="none" stroke="black" points="873,-496 873,-516 944,-516 944,-496 873,-496"/>
<text text-anchor="start" x="878" y="-504" font-family="Arial" font-size="10.00">name = &quot;e11&quot;</text>
</g>
<!-- e2&#45;&#45;e10 -->
<g id="edge13" class="edge"><title>e2&#45;&#45;e10</title>
<path fill="none" stroke="black" stroke-dasharray="1,5" d="M403.674,-749.31C406.938,-746.643 410.112,-743.849 413,-741 449.828,-704.667 445.388,-683.52 483,-648 526.107,-607.291 539.056,-596.285 594,-574 618.755,-563.959 784.24,-536.158 864.502,-523.033"/>
<text text-anchor="middle" x="856.245" y="-526.175" font-family="Arial" font-size="10.00">candidate</text>
</g>
<!-- e11 -->
<g id="node13" class="node"><title>e11</title>
<a xlink:href="../../SDMLib/src/org/sdmlib/examples/helloworld/model/Edge.java" xlink:title="&lt;TABLE&gt;">
<polygon fill="none" stroke="black" points="390,-352 390,-369 461,-369 461,-352 390,-352"/>
<text text-anchor="start" x="401" y="-358.5" font-family="Arial" font-size="10.00"> </text>
<text text-anchor="start" x="405" y="-358.5" font-family="Arial" font-size="10.00">e11 :Edge</text>
</a>
<polygon fill="none" stroke="black" points="390,-332 390,-352 461,-352 461,-332 390,-332"/>
<text text-anchor="start" x="395" y="-340" font-family="Arial" font-size="10.00">name = &quot;e12&quot;</text>
</g>
<!-- e2&#45;&#45;e11 -->
<g id="edge15" class="edge"><title>e2&#45;&#45;e11</title>
<path fill="none" stroke="black" stroke-dasharray="1,5" d="M328.319,-770.672C276.658,-769.249 195.229,-763.396 176,-741 149.075,-709.64 161.839,-686.832 176,-648 220.749,-525.291 341.234,-418.178 396.541,-373.795"/>
<text text-anchor="middle" x="392.229" y="-380.318" font-family="Arial" font-size="10.00">candidate</text>
</g>
<!-- e12 -->
<g id="node14" class="node"><title>e12</title>
<a xlink:href="../../SDMLib/src/org/sdmlib/examples/helloworld/model/Edge.java" xlink:title="&lt;TABLE&gt;">
<polygon fill="none" stroke="black" points="872,-352 872,-369 943,-369 943,-352 872,-352"/>
<text text-anchor="start" x="883" y="-358.5" font-family="Arial" font-size="10.00"> </text>
<text text-anchor="start" x="887" y="-358.5" font-family="Arial" font-size="10.00">e12 :Edge</text>
</a>
<polygon fill="none" stroke="black" points="872,-332 872,-352 943,-352 943,-332 872,-332"/>
<text text-anchor="start" x="877" y="-340" font-family="Arial" font-size="10.00">name = &quot;e13&quot;</text>
</g>
<!-- e2&#45;&#45;e12 -->
<g id="edge17" class="edge"><title>e2&#45;&#45;e12</title>
<path fill="none" stroke="black" stroke-dasharray="1,5" d="M365.819,-749.194C356.007,-709.513 341.902,-624.908 383,-574 508.364,-418.712 762.141,-370.266 863.625,-356.738"/>
<text text-anchor="middle" x="855.284" y="-359.754" font-family="Arial" font-size="10.00">candidate</text>
</g>
<!-- e13 -->
<g id="node16" class="node"><title>e13</title>
<a xlink:href="../../SDMLib/src/org/sdmlib/examples/helloworld/model/Edge.java" xlink:title="&lt;TABLE&gt;">
<polygon fill="none" stroke="black" points="607,-188 607,-205 678,-205 678,-188 607,-188"/>
<text text-anchor="start" x="618" y="-194.5" font-family="Arial" font-size="10.00"> </text>
<text text-anchor="start" x="622" y="-194.5" font-family="Arial" font-size="10.00">e13 :Edge</text>
</a>
<polygon fill="none" stroke="black" points="607,-168 607,-188 678,-188 678,-168 607,-168"/>
<text text-anchor="start" x="612" y="-176" font-family="Arial" font-size="10.00">name = &quot;e14&quot;</text>
</g>
<!-- e2&#45;&#45;e13 -->
<g id="edge19" class="edge"><title>e2&#45;&#45;e13</title>
<path fill="none" stroke="black" stroke-dasharray="1,5" d="M355.57,-749.464C354.118,-746.728 352.871,-743.876 352,-741 340.022,-701.44 351.903,-689.333 352,-648 352.222,-552.888 353,-529.112 353,-434 353,-434 353,-434 353,-350 353,-238.701 518.112,-203.1 598.734,-192.351"/>
<text text-anchor="middle" x="590.408" y="-195.391" font-family="Arial" font-size="10.00">candidate</text>
</g>
<!-- e7 -->
<g id="node18" class="node"><title>e7</title>
<a xlink:href="../../SDMLib/src/org/sdmlib/examples/helloworld/model/Edge.java" xlink:title="&lt;TABLE&gt;">
<polygon fill="none" stroke="black" points="8,-24 8,-41 79,-41 79,-24 8,-24"/>
<text text-anchor="start" x="21.5" y="-30.5" font-family="Arial" font-size="10.00"> </text>
<text text-anchor="start" x="25.5" y="-30.5" font-family="Arial" font-size="10.00">e7 :Edge</text>
</a>
<polygon fill="none" stroke="black" points="8,-4 8,-24 79,-24 79,-4 8,-4"/>
<text text-anchor="start" x="13" y="-12" font-family="Arial" font-size="10.00">name = &quot;e18&quot;</text>
</g>
<!-- e2&#45;&#45;e7 -->
<g id="edge7" class="edge"><title>e2&#45;&#45;e7</title>
<path fill="none" stroke="black" stroke-dasharray="1,5" d="M328.529,-771.784C263.375,-772.02 144.75,-768.512 114,-741 65.39,-697.509 81,-663.226 81,-598 81,-598 81,-598 81,-268 81,-185.043 59.2897,-88.0908 48.689,-45.6954"/>
<text text-anchor="middle" x="54.9404" y="-51.0006" font-family="Arial" font-size="10.00">candidate</text>
</g>
<!-- e14 -->
<g id="node19" class="node"><title>e14</title>
<a xlink:href="../../SDMLib/src/org/sdmlib/examples/helloworld/model/Edge.java" xlink:title="&lt;TABLE&gt;">
<polygon fill="none" stroke="black" points="123,-24 123,-41 194,-41 194,-24 123,-24"/>
<text text-anchor="start" x="134" y="-30.5" font-family="Arial" font-size="10.00"> </text>
<text text-anchor="start" x="138" y="-30.5" font-family="Arial" font-size="10.00">e14 :Edge</text>
</a>
<polygon fill="none" stroke="black" points="123,-4 123,-24 194,-24 194,-4 123,-4"/>
<text text-anchor="start" x="128" y="-12" font-family="Arial" font-size="10.00">name = &quot;e15&quot;</text>
</g>
<!-- e2&#45;&#45;e14 -->
<g id="edge21" class="edge"><title>e2&#45;&#45;e14</title>
<path fill="none" stroke="black" stroke-dasharray="1,5" d="M328.462,-770.457C273.092,-768.855 181.687,-762.865 157,-741 107.771,-697.399 119,-663.761 119,-598 119,-598 119,-598 119,-186 119,-134.507 137.855,-76.3012 149.345,-45.6121"/>
<text text-anchor="middle" x="150.214" y="-53.0743" font-family="Arial" font-size="10.00">candidate</text>
</g>
<!-- e8 -->
<g id="node20" class="node"><title>e8</title>
<a xlink:href="../../SDMLib/src/org/sdmlib/examples/helloworld/model/Edge.java" xlink:title="&lt;TABLE&gt;">
<polygon fill="none" stroke="black" points="270,-24 270,-41 341,-41 341,-24 270,-24"/>
<text text-anchor="start" x="283.5" y="-30.5" font-family="Arial" font-size="10.00"> </text>
<text text-anchor="start" x="287.5" y="-30.5" font-family="Arial" font-size="10.00">e8 :Edge</text>
</a>
<polygon fill="none" stroke="black" points="270,-4 270,-24 341,-24 341,-4 270,-4"/>
<text text-anchor="start" x="275" y="-12" font-family="Arial" font-size="10.00">name = &quot;e19&quot;</text>
</g>
<!-- e2&#45;&#45;e8 -->
<g id="edge9" class="edge"><title>e2&#45;&#45;e8</title>
<path fill="none" stroke="black" stroke-dasharray="1,5" d="M349.567,-749.45C347.212,-746.717 344.965,-743.869 343,-741 303.451,-683.245 277,-667.998 277,-598 277,-598 277,-598 277,-514 277,-332.933 296.293,-114.841 302.849,-45.9517"/>
<text text-anchor="middle" x="306.22" y="-52.8667" font-family="Arial" font-size="10.00">candidate</text>
</g>
<!-- e15 -->
<g id="node24" class="node"><title>e15</title>
<a xlink:href="../../SDMLib/src/org/sdmlib/examples/helloworld/model/Edge.java" xlink:title="&lt;TABLE&gt;">
<polygon fill="none" stroke="black" points="582,-516 582,-533 653,-533 653,-516 582,-516"/>
<text text-anchor="start" x="593" y="-522.5" font-family="Arial" font-size="10.00"> </text>
<text text-anchor="start" x="597" y="-522.5" font-family="Arial" font-size="10.00">e15 :Edge</text>
</a>
<polygon fill="none" stroke="black" points="582,-496 582,-516 653,-516 653,-496 582,-496"/>
<text text-anchor="start" x="587" y="-504" font-family="Arial" font-size="10.00">name = &quot;e16&quot;</text>
</g>
<!-- e2&#45;&#45;e15 -->
<g id="edge23" class="edge"><title>e2&#45;&#45;e15</title>
<path fill="none" stroke="black" stroke-dasharray="1,5" d="M370.1,-749.414C367.83,-709.332 369.036,-623.039 415,-574 425.979,-562.287 517.338,-539.265 573.366,-526.021"/>
<text text-anchor="middle" x="565.534" y="-529.739" font-family="Arial" font-size="10.00">candidate</text>
</g>
<!-- e16 -->
<g id="node25" class="node"><title>e16</title>
<a xlink:href="../../SDMLib/src/org/sdmlib/examples/helloworld/model/Edge.java" xlink:title="&lt;TABLE&gt;">
<polygon fill="none" stroke="black" points="687,-516 687,-533 758,-533 758,-516 687,-516"/>
<text text-anchor="start" x="698" y="-522.5" font-family="Arial" font-size="10.00"> </text>
<text text-anchor="start" x="702" y="-522.5" font-family="Arial" font-size="10.00">e16 :Edge</text>
</a>
<polygon fill="none" stroke="black" points="687,-496 687,-516 758,-516 758,-496 687,-496"/>
<text text-anchor="start" x="692" y="-504" font-family="Arial" font-size="10.00">name = &quot;e17&quot;</text>
</g>
<!-- e2&#45;&#45;e16 -->
<g id="edge25" class="edge"><title>e2&#45;&#45;e16</title>
<path fill="none" stroke="black" stroke-dasharray="1,5" d="M384.014,-749.196C385.407,-746.461 386.768,-743.682 388,-741 421.243,-668.623 391.189,-624.228 453,-574 528.531,-512.623 575.447,-564.831 669,-538 672.16,-537.094 675.386,-536.055 678.609,-534.934"/>
<text text-anchor="middle" x="671.421" y="-539.387" font-family="Arial" font-size="10.00">candidate</text>
</g>
<!-- n17 -->
<g id="node23" class="node"><title>n17</title>
<a xlink:href="../../SDMLib/src/org/sdmlib/examples/helloworld/model/Node.java" xlink:title="&lt;TABLE&gt;">
<polygon fill="none" stroke="black" points="611,-598 611,-615 677,-615 677,-598 611,-598"/>
<text text-anchor="start" x="619.5" y="-604.5" font-family="Arial" font-size="10.00"> </text>
<text text-anchor="start" x="623.5" y="-604.5" font-family="Arial" font-size="10.00">n17 :Node</text>
</a>
<polygon fill="none" stroke="black" points="611,-578 611,-598 677,-598 677,-578 611,-578"/>
<text text-anchor="start" x="616" y="-586" font-family="Arial" font-size="10.00">name = &quot;n8&quot;</text>
</g>
<!-- n4&#45;&#45;n17 -->
<g id="edge27" class="edge"><title>n4&#45;&#45;n17</title>
<path fill="none" stroke="black" stroke-dasharray="1,5" d="M644,-656.14C644,-644.759 644,-630.893 644,-619.557"/>
<text text-anchor="middle" x="648.226" y="-626.12" font-family="Arial" font-size="10.00">match</text>
</g>
<!-- n5&#45;&#45;n17 -->
<g id="edge29" class="edge"><title>n5&#45;&#45;n17</title>
<path fill="none" stroke="black" stroke-dasharray="1,5" d="M567.415,-656.351C582.355,-644.967 600.619,-631.052 615.563,-619.666"/>
<text text-anchor="middle" x="610.915" y="-626.021" font-family="Arial" font-size="10.00">match</text>
</g>
<!-- n18 -->
<g id="node8" class="node"><title>n18</title>
<a xlink:href="../../SDMLib/src/org/sdmlib/examples/helloworld/model/Node.java" xlink:title="&lt;TABLE&gt;">
<polygon fill="none" stroke="black" points="720,-773 720,-790 786,-790 786,-773 720,-773"/>
<text text-anchor="start" x="728.5" y="-779.5" font-family="Arial" font-size="10.00"> </text>
<text text-anchor="start" x="732.5" y="-779.5" font-family="Arial" font-size="10.00">n18 :Node</text>
</a>
<polygon fill="none" stroke="black" points="720,-753 720,-773 786,-773 786,-753 720,-753"/>
<text text-anchor="start" x="725" y="-761" font-family="Arial" font-size="10.00">name = &quot;n1&quot;</text>
</g>
<!-- g6&#45;&#45;n18 -->
<g id="edge57" class="edge"><title>g6&#45;&#45;n18</title>
<path fill="none" stroke="black" d="M976.96,-840.318C936.009,-831.014 866.406,-814.183 808,-795 803.506,-793.524 798.85,-791.868 794.238,-790.144"/>
<text text-anchor="middle" x="804.205" y="-786.841" font-family="Arial" font-size="10.00">nodes</text>
<text text-anchor="middle" x="967.181" y="-839.907" font-family="Arial" font-size="10.00">graph</text>
</g>
<!-- g6&#45;&#45;e9 -->
<g id="edge41" class="edge"><title>g6&#45;&#45;e9</title>
<path fill="none" stroke="black" d="M976.71,-844.724C940.204,-839.663 883.398,-826.909 846,-795 817.082,-770.327 800.994,-727.71 793.448,-701.861"/>
<text text-anchor="middle" x="800.148" y="-706.785" font-family="Arial" font-size="10.00">edges</text>
<text text-anchor="middle" x="967.113" y="-845.033" font-family="Arial" font-size="10.00">graph</text>
</g>
<!-- n19 -->
<g id="node10" class="node"><title>n19</title>
<a xlink:href="../../SDMLib/src/org/sdmlib/examples/helloworld/model/Node.java" xlink:title="&lt;TABLE&gt;">
<polygon fill="none" stroke="black" points="872,-598 872,-615 938,-615 938,-598 872,-598"/>
<text text-anchor="start" x="880.5" y="-604.5" font-family="Arial" font-size="10.00"> </text>
<text text-anchor="start" x="884.5" y="-604.5" font-family="Arial" font-size="10.00">n19 :Node</text>
</a>
<polygon fill="none" stroke="black" points="872,-578 872,-598 938,-598 938,-578 872,-578"/>
<text text-anchor="start" x="877" y="-586" font-family="Arial" font-size="10.00">name = &quot;n2&quot;</text>
</g>
<!-- g6&#45;&#45;n19 -->
<g id="edge59" class="edge"><title>g6&#45;&#45;n19</title>
<path fill="none" stroke="black" d="M990.642,-830.83C980.048,-821.291 967.87,-808.616 960,-795 942.498,-764.717 919.363,-664.383 909.629,-619.743"/>
<text text-anchor="middle" x="915.712" y="-625.18" font-family="Arial" font-size="10.00">nodes</text>
<text text-anchor="middle" x="981.106" y="-825.318" font-family="Arial" font-size="10.00">graph</text>
</g>
<!-- g6&#45;&#45;e10 -->
<g id="edge43" class="edge"><title>g6&#45;&#45;e10</title>
<path fill="none" stroke="black" d="M1019.07,-830.927C1036.8,-785.187 1078.12,-657.695 1026,-574 1009.77,-547.938 978.022,-533.251 951.542,-525.181"/>
<text text-anchor="middle" x="961.467" y="-521.461" font-family="Arial" font-size="10.00">edges</text>
<text text-anchor="middle" x="1018.24" y="-818.461" font-family="Arial" font-size="10.00">graph</text>
</g>
<!-- n20 -->
<g id="node12" class="node"><title>n20</title>
<a xlink:href="../../SDMLib/src/org/sdmlib/examples/helloworld/model/Node.java" xlink:title="&lt;TABLE&gt;">
<polygon fill="none" stroke="black" points="874,-434 874,-451 940,-451 940,-434 874,-434"/>
<text text-anchor="start" x="882.5" y="-440.5" font-family="Arial" font-size="10.00"> </text>
<text text-anchor="start" x="886.5" y="-440.5" font-family="Arial" font-size="10.00">n20 :Node</text>
</a>
<polygon fill="none" stroke="black" points="874,-414 874,-434 940,-434 940,-414 874,-414"/>
<text text-anchor="start" x="879" y="-422" font-family="Arial" font-size="10.00">name = &quot;n3&quot;</text>
</g>
<!-- g6&#45;&#45;n20 -->
<g id="edge61" class="edge"><title>g6&#45;&#45;n20</title>
<path fill="none" stroke="black" d="M1026.89,-830.793C1034.89,-820.854 1044.44,-807.815 1051,-795 1075.45,-747.199 1088,-733.691 1088,-680 1088,-680 1088,-680 1088,-596 1088,-521.356 1001.47,-472.488 948.072,-449.435"/>
<text text-anchor="middle" x="958.071" y="-446.843" font-family="Arial" font-size="10.00">nodes</text>
<text text-anchor="middle" x="1029.22" y="-818.57" font-family="Arial" font-size="10.00">graph</text>
</g>
<!-- g6&#45;&#45;e11 -->
<g id="edge45" class="edge"><title>g6&#45;&#45;e11</title>
<path fill="none" stroke="black" d="M981.995,-830.938C967.653,-821.685 951.033,-809.232 939,-795 891.903,-739.296 900.772,-712.125 866,-648 827.63,-577.241 835.057,-544.451 774,-492 681.892,-412.875 539.394,-374.823 468.352,-359.93"/>
<text text-anchor="middle" x="478.115" y="-355.269" font-family="Arial" font-size="10.00">edges</text>
<text text-anchor="middle" x="972.101" y="-826.988" font-family="Arial" font-size="10.00">graph</text>
</g>
<!-- g6&#45;&#45;e12 -->
<g id="edge47" class="edge"><title>g6&#45;&#45;e12</title>
<path fill="none" stroke="black" d="M1047.09,-847.897C1124.67,-846.848 1306.95,-839.584 1345,-795 1358.27,-779.449 1353.28,-767.691 1345,-749 1261.72,-561.115 1040.72,-424.251 948.421,-373.552"/>
<text text-anchor="middle" x="958.389" y="-371.85" font-family="Arial" font-size="10.00">edges</text>
<text text-anchor="middle" x="1056.06" y="-840.988" font-family="Arial" font-size="10.00">graph</text>
</g>
<!-- n21 -->
<g id="node15" class="node"><title>n21</title>
<a xlink:href="../../SDMLib/src/org/sdmlib/examples/helloworld/model/Node.java" xlink:title="&lt;TABLE&gt;">
<polygon fill="none" stroke="black" points="874,-270 874,-287 940,-287 940,-270 874,-270"/>
<text text-anchor="start" x="882.5" y="-276.5" font-family="Arial" font-size="10.00"> </text>
<text text-anchor="start" x="886.5" y="-276.5" font-family="Arial" font-size="10.00">n21 :Node</text>
</a>
<polygon fill="none" stroke="black" points="874,-250 874,-270 940,-270 940,-250 874,-250"/>
<text text-anchor="start" x="879" y="-258" font-family="Arial" font-size="10.00">name = &quot;n4&quot;</text>
</g>
<!-- g6&#45;&#45;n21 -->
<g id="edge63" class="edge"><title>g6&#45;&#45;n21</title>
<path fill="none" stroke="black" d="M1038.42,-830.905C1051.18,-821.562 1065.87,-809.039 1076,-795 1133.87,-714.797 1125.19,-670.143 1102,-574 1072.96,-453.615 972.668,-338.043 928.346,-291.51"/>
<text text-anchor="middle" x="937.612" y="-292.768" font-family="Arial" font-size="10.00">nodes</text>
<text text-anchor="middle" x="1043.15" y="-819.596" font-family="Arial" font-size="10.00">graph</text>
</g>
<!-- g6&#45;&#45;e13 -->
<g id="edge49" class="edge"><title>g6&#45;&#45;e13</title>
<path fill="none" stroke="black" d="M1047.07,-847.217C1126.21,-844.754 1315.5,-834.751 1363,-795 1404.39,-760.362 1402,-733.97 1402,-680 1402,-680 1402,-680 1402,-350 1402,-202.359 846.446,-188.758 685.314,-187.918"/>
<text text-anchor="middle" x="694.43" y="-181.308" font-family="Arial" font-size="10.00">edges</text>
<text text-anchor="middle" x="1055.97" y="-840.16" font-family="Arial" font-size="10.00">graph</text>
</g>
<!-- n22 -->
<g id="node17" class="node"><title>n22</title>
<a xlink:href="../../SDMLib/src/org/sdmlib/examples/helloworld/model/Node.java" xlink:title="&lt;TABLE&gt;">
<polygon fill="none" stroke="black" points="203,-106 203,-123 269,-123 269,-106 203,-106"/>
<text text-anchor="start" x="211.5" y="-112.5" font-family="Arial" font-size="10.00"> </text>
<text text-anchor="start" x="215.5" y="-112.5" font-family="Arial" font-size="10.00">n22 :Node</text>
</a>
<polygon fill="none" stroke="black" points="203,-86 203,-106 269,-106 269,-86 203,-86"/>
<text text-anchor="start" x="208" y="-94" font-family="Arial" font-size="10.00">name = &quot;n5&quot;</text>
</g>
<!-- g6&#45;&#45;n22 -->
<g id="edge65" class="edge"><title>g6&#45;&#45;n22</title>
<path fill="none" stroke="black" d="M1047.04,-847.48C1130.75,-845.568 1339.41,-836.639 1393,-795 1436.6,-761.124 1440,-735.215 1440,-680 1440,-680 1440,-680 1440,-268 1440,-147.978 488.111,-113.315 277.096,-107.106"/>
<text text-anchor="middle" x="286.294" y="-100.682" font-family="Arial" font-size="10.00">nodes</text>
<text text-anchor="middle" x="1055.98" y="-840.499" font-family="Arial" font-size="10.00">graph</text>
</g>
<!-- g6&#45;&#45;e7 -->
<g id="edge37" class="edge"><title>g6&#45;&#45;e7</title>
<path fill="none" stroke="black" d="M976.994,-848.108C814.636,-848.334 139.56,-846.168 62,-795 14.3838,-763.586 5,-737.045 5,-680 5,-680 5,-680 5,-186 5,-134.579 23.3715,-76.3447 34.5666,-45.632"/>
<text text-anchor="middle" x="35.5204" y="-53.0864" font-family="Arial" font-size="10.00">edges</text>
<text text-anchor="middle" x="967.928" y="-849.827" font-family="Arial" font-size="10.00">graph</text>
</g>
<!-- g6&#45;&#45;e14 -->
<g id="edge51" class="edge"><title>g6&#45;&#45;e14</title>
<path fill="none" stroke="black" d="M976.83,-847.067C874.681,-843.98 569.36,-832.087 319,-795 187.546,-775.527 43,-812.889 43,-680 43,-680 43,-680 43,-268 43,-178.32 107.351,-86.2736 139.778,-45.5838"/>
<text text-anchor="middle" x="137.577" y="-52.8385" font-family="Arial" font-size="10.00">edges</text>
<text text-anchor="middle" x="967.633" y="-848.491" font-family="Arial" font-size="10.00">graph</text>
</g>
<!-- g6&#45;&#45;e8 -->
<g id="edge39" class="edge"><title>g6&#45;&#45;e8</title>
<path fill="none" stroke="black" d="M1047.29,-847.759C1136.09,-846.494 1366.01,-838.947 1426,-795 1430.13,-791.976 1478,-681.968 1478,-680 1478,-680 1478,-680 1478,-186 1478,-69.6553 560.777,-32.3972 348.49,-25.3321"/>
<text text-anchor="middle" x="357.703" y="-18.9434" font-family="Arial" font-size="10.00">edges</text>
<text text-anchor="middle" x="1056.27" y="-840.856" font-family="Arial" font-size="10.00">graph</text>
</g>
<!-- n23 -->
<g id="node21" class="node"><title>n23</title>
<a xlink:href="../../SDMLib/src/org/sdmlib/examples/helloworld/model/Node.java" xlink:title="&lt;TABLE&gt;">
<polygon fill="none" stroke="black" points="1162,-773 1162,-790 1228,-790 1228,-773 1162,-773"/>
<text text-anchor="start" x="1170.5" y="-779.5" font-family="Arial" font-size="10.00"> </text>
<text text-anchor="start" x="1174.5" y="-779.5" font-family="Arial" font-size="10.00">n23 :Node</text>
</a>
<polygon fill="none" stroke="black" points="1162,-753 1162,-773 1228,-773 1228,-753 1162,-753"/>
<text text-anchor="start" x="1167" y="-761" font-family="Arial" font-size="10.00">name = &quot;n6&quot;</text>
</g>
<!-- g6&#45;&#45;n23 -->
<g id="edge67" class="edge"><title>g6&#45;&#45;n23</title>
<path fill="none" stroke="black" d="M1047.28,-833.539C1077.72,-821.067 1121.69,-803.044 1153.75,-789.907"/>
<text text-anchor="middle" x="1146.96" y="-794.755" font-family="Arial" font-size="10.00">nodes</text>
<text text-anchor="middle" x="1054.07" y="-823.692" font-family="Arial" font-size="10.00">graph</text>
</g>
<!-- n24 -->
<g id="node22" class="node"><title>n24</title>
<a xlink:href="../../SDMLib/src/org/sdmlib/examples/helloworld/model/Node.java" xlink:title="&lt;TABLE&gt;">
<polygon fill="none" stroke="black" points="1262,-773 1262,-790 1328,-790 1328,-773 1262,-773"/>
<text text-anchor="start" x="1270.5" y="-779.5" font-family="Arial" font-size="10.00"> </text>
<text text-anchor="start" x="1274.5" y="-779.5" font-family="Arial" font-size="10.00">n24 :Node</text>
</a>
<polygon fill="none" stroke="black" points="1262,-753 1262,-773 1328,-773 1328,-753 1262,-753"/>
<text text-anchor="start" x="1267" y="-761" font-family="Arial" font-size="10.00">name = &quot;n7&quot;</text>
</g>
<!-- g6&#45;&#45;n24 -->
<g id="edge69" class="edge"><title>g6&#45;&#45;n24</title>
<path fill="none" stroke="black" d="M1047.31,-842.14C1093.45,-833.991 1176.46,-817.644 1245,-795 1247.88,-794.048 1250.82,-792.99 1253.77,-791.868"/>
<text text-anchor="middle" x="1246.79" y="-796.532" font-family="Arial" font-size="10.00">nodes</text>
<text text-anchor="middle" x="1055.47" y="-833.871" font-family="Arial" font-size="10.00">graph</text>
</g>
<!-- g6&#45;&#45;n17 -->
<g id="edge71" class="edge"><title>g6&#45;&#45;n17</title>
<path fill="none" stroke="black" d="M976.775,-842.036C947.97,-835.369 908.181,-821.775 884,-795 838.292,-744.388 889.202,-695.223 840,-648 798.322,-607.999 729.277,-598.76 685.245,-597.266"/>
<text text-anchor="middle" x="694.51" y="-591.003" font-family="Arial" font-size="10.00">nodes</text>
<text text-anchor="middle" x="966.962" y="-841.461" font-family="Arial" font-size="10.00">graph</text>
</g>
<!-- g6&#45;&#45;e15 -->
<g id="edge53" class="edge"><title>g6&#45;&#45;e15</title>
<path fill="none" stroke="black" d="M1010.96,-830.761C1007.3,-776.257 993.111,-609.182 955,-574 907.932,-530.55 730.859,-554.637 669,-538 666.16,-537.236 663.272,-536.349 660.385,-535.379"/>
<text text-anchor="middle" x="670.32" y="-531.735" font-family="Arial" font-size="10.00">edges</text>
<text text-anchor="middle" x="1006.08" y="-819.531" font-family="Arial" font-size="10.00">graph</text>
</g>
<!-- g6&#45;&#45;e16 -->
<g id="edge55" class="edge"><title>g6&#45;&#45;e16</title>
<path fill="none" stroke="black" d="M1013.04,-830.637C1015.9,-776.508 1021.6,-612.175 988,-574 980.613,-565.607 838.778,-537.926 765.316,-524.061"/>
<text text-anchor="middle" x="775.009" y="-519.102" font-family="Arial" font-size="10.00">edges</text>
<text text-anchor="middle" x="1009.24" y="-818.886" font-family="Arial" font-size="10.00">graph</text>
</g>
<!-- n18&#45;&#45;e9 -->
<g id="edge75" class="edge"><title>n18&#45;&#45;e9</title>
<path fill="none" stroke="black" d="M761.295,-749.434C766.833,-735.033 774.092,-716.16 779.644,-701.726"/>
<text text-anchor="middle" x="780.335" y="-709.202" font-family="Arial" font-size="10.00">outEdges</text>
<text text-anchor="middle" x="760.603" y="-736.958" font-family="Arial" font-size="10.00">src</text>
</g>
<!-- n18&#45;&#45;e11 -->
<g id="edge73" class="edge"><title>n18&#45;&#45;e11</title>
<path fill="none" stroke="black" d="M739.359,-749.298C737.813,-746.545 736.321,-743.734 735,-741 715.783,-701.237 732.775,-677.601 700,-648 663.838,-615.341 633.28,-648.834 594,-620 504.207,-554.087 450.725,-424.761 432.293,-373.586"/>
<text text-anchor="middle" x="439.432" y="-378.088" font-family="Arial" font-size="10.00">inEdges</text>
<text text-anchor="middle" x="731.251" y="-740.944" font-family="Arial" font-size="10.00">tgt</text>
</g>
<!-- e9&#45;&#45;n19 -->
<g id="edge77" class="edge"><title>e9&#45;&#45;n19</title>
<path fill="none" stroke="black" d="M819.662,-656.351C836.31,-644.967 856.661,-631.052 873.313,-619.666"/>
<text text-anchor="middle" x="868.217" y="-625.771" font-family="Arial" font-size="10.00">tgt</text>
<text text-anchor="middle" x="824.758" y="-645.247" font-family="Arial" font-size="10.00">inEdges</text>
</g>
<!-- n19&#45;&#45;e10 -->
<g id="edge79" class="edge"><title>n19&#45;&#45;e10</title>
<path fill="none" stroke="black" d="M905.82,-574.14C906.247,-562.759 906.767,-548.893 907.192,-537.557"/>
<text text-anchor="middle" x="911.075" y="-544.272" font-family="Arial" font-size="10.00">outEdges</text>
<text text-anchor="middle" x="901.936" y="-562.425" font-family="Arial" font-size="10.00">src</text>
</g>
<!-- e10&#45;&#45;n20 -->
<g id="edge81" class="edge"><title>e10&#45;&#45;n20</title>
<path fill="none" stroke="black" d="M907.727,-492.14C907.584,-480.759 907.411,-466.893 907.269,-455.557"/>
<text text-anchor="middle" x="911.609" y="-462.066" font-family="Arial" font-size="10.00">tgt</text>
<text text-anchor="middle" x="903.388" y="-480.63" font-family="Arial" font-size="10.00">inEdges</text>
</g>
<!-- n20&#45;&#45;e11 -->
<g id="edge85" class="edge"><title>n20&#45;&#45;e11</title>
<path fill="none" stroke="black" d="M865.698,-414.569C860.479,-412.811 855.16,-411.225 850,-410 690.537,-372.147 642.572,-411.39 483,-374 478.177,-372.87 473.214,-371.435 468.318,-369.843"/>
<text text-anchor="middle" x="478.24" y="-366.094" font-family="Arial" font-size="10.00">outEdges</text>
<text text-anchor="middle" x="855.764" y="-413.216" font-family="Arial" font-size="10.00">src</text>
</g>
<!-- n20&#45;&#45;e12 -->
<g id="edge87" class="edge"><title>n20&#45;&#45;e12</title>
<path fill="none" stroke="black" d="M907,-410.14C907,-398.759 907,-384.893 907,-373.557"/>
<text text-anchor="middle" x="911.226" y="-380.12" font-family="Arial" font-size="10.00">outEdges</text>
<text text-anchor="middle" x="902.774" y="-398.577" font-family="Arial" font-size="10.00">src</text>
</g>
<!-- n20&#45;&#45;e14 -->
<g id="edge83" class="edge"><title>n20&#45;&#45;e14</title>
<path fill="none" stroke="black" d="M865.923,-415.839C716.644,-356.96 210.35,-155.91 186,-128 165.84,-104.893 160.019,-68.71 158.438,-45.688"/>
<text text-anchor="middle" x="163.409" y="-51.8653" font-family="Arial" font-size="10.00">inEdges</text>
<text text-anchor="middle" x="855.941" y="-413.936" font-family="Arial" font-size="10.00">tgt</text>
</g>
<!-- e12&#45;&#45;n21 -->
<g id="edge89" class="edge"><title>e12&#45;&#45;n21</title>
<path fill="none" stroke="black" d="M907,-328.14C907,-316.759 907,-302.893 907,-291.557"/>
<text text-anchor="middle" x="911.226" y="-298.12" font-family="Arial" font-size="10.00">tgt</text>
<text text-anchor="middle" x="902.774" y="-316.577" font-family="Arial" font-size="10.00">inEdges</text>
</g>
<!-- n21&#45;&#45;e13 -->
<g id="edge91" class="edge"><title>n21&#45;&#45;e13</title>
<path fill="none" stroke="black" d="M865.885,-255.588C816.892,-240.798 735.4,-216.196 685.416,-201.107"/>
<text text-anchor="middle" x="695.313" y="-197.18" font-family="Arial" font-size="10.00">outEdges</text>
<text text-anchor="middle" x="855.987" y="-254.514" font-family="Arial" font-size="10.00">src</text>
</g>
<!-- e13&#45;&#45;n22 -->
<g id="edge93" class="edge"><title>e13&#45;&#45;n22</title>
<path fill="none" stroke="black" d="M598.551,-177.439C519.691,-161.9 354.052,-129.261 277.017,-114.082"/>
<text text-anchor="middle" x="286.726" y="-109.188" font-family="Arial" font-size="10.00">tgt</text>
<text text-anchor="middle" x="588.842" y="-177.333" font-family="Arial" font-size="10.00">inEdges</text>
</g>
<!-- n22&#45;&#45;e7 -->
<g id="edge97" class="edge"><title>n22&#45;&#45;e7</title>
<path fill="none" stroke="black" d="M194.597,-86.838C162.697,-73.6155 118.719,-55.386 86.343,-41.966"/>
<text text-anchor="middle" x="96.3336" y="-39.0323" font-family="Arial" font-size="10.00">outEdges</text>
<text text-anchor="middle" x="184.606" y="-84.7717" font-family="Arial" font-size="10.00">src</text>
</g>
<!-- n22&#45;&#45;e14 -->
<g id="edge99" class="edge"><title>n22&#45;&#45;e14</title>
<path fill="none" stroke="black" d="M214.686,-82.1396C203.59,-70.759 190.071,-56.8929 179.018,-45.5569"/>
<text text-anchor="middle" x="188.371" y="-46.5958" font-family="Arial" font-size="10.00">outEdges</text>
<text text-anchor="middle" x="205.333" y="-76.1008" font-family="Arial" font-size="10.00">src</text>
</g>
<!-- n22&#45;&#45;e8 -->
<g id="edge95" class="edge"><title>n22&#45;&#45;e8</title>
<path fill="none" stroke="black" d="M254.855,-82.1396C264.67,-70.759 276.63,-56.8929 286.407,-45.5569"/>
<text text-anchor="middle" x="283.688" y="-52.6802" font-family="Arial" font-size="10.00">inEdges</text>
<text text-anchor="middle" x="257.574" y="-70.0164" font-family="Arial" font-size="10.00">tgt</text>
</g>
<!-- n17&#45;&#45;e15 -->
<g id="edge101" class="edge"><title>n17&#45;&#45;e15</title>
<path fill="none" stroke="black" d="M636.622,-574.14C632.781,-562.759 628.101,-548.893 624.275,-537.557"/>
<text text-anchor="middle" x="631.178" y="-542.293" font-family="Arial" font-size="10.00">inEdges_outEdges</text>
<text text-anchor="middle" x="629.72" y="-564.404" font-family="Arial" font-size="10.00">tgt_src</text>
</g>
<!-- n17&#45;&#45;e16 -->
<g id="edge103" class="edge"><title>n17&#45;&#45;e16</title>
<path fill="none" stroke="black" d="M665.314,-574.14C676.41,-562.759 689.929,-548.893 700.982,-537.557"/>
<text text-anchor="middle" x="697.681" y="-544.496" font-family="Arial" font-size="10.00">inEdges_outEdges</text>
<text text-anchor="middle" x="668.615" y="-562.2" font-family="Arial" font-size="10.00">tgt_src</text>
</g>
</g>
</svg>
