<?xml version="1.0" encoding="UTF-8" standalone="no"?>
<!DOCTYPE svg PUBLIC "-//W3C//DTD SVG 1.1//EN"
 "http://www.w3.org/Graphics/SVG/1.1/DTD/svg11.dtd">
<!-- Generated by graphviz version 2.28.0 (20110507.0327)
 -->
<!-- Title: ObjectDiagram Pages: 1 -->
<svg width="177pt" height="232pt"
 viewBox="0.00 0.00 177.00 232.00" xmlns="http://www.w3.org/2000/svg" xmlns:xlink="http://www.w3.org/1999/xlink">
<g id="graph1" class="graph" transform="scale(1 1) rotate(0) translate(4 228)">
<title>ObjectDiagram</title>
<polygon fill="white" stroke="white" points="-4,5 -4,-228 174,-228 174,5 -4,5"/>
<!-- g1 -->
<g id="node1" class="node"><title>g1</title>
<polygon fill="deepskyblue" stroke="deepskyblue" points="94.5,-168.5 94.5,-219.5 157.5,-219.5 157.5,-168.5 94.5,-168.5"/>
<text text-anchor="start" x="124" y="-209.5" font-family="Arial" font-size="10.00">«bound»</text>
<polygon fill="none" stroke="black" points="95,-188 95,-204 158,-204 158,-188 95,-188"/>
<text text-anchor="start" x="98.5" y="-194" font-family="Arial" font-size="10.00"> </text>
<text text-anchor="start" x="102.5" y="-194" font-family="Arial" font-size="10.00"> g1 :GraphPO </text>
<polygon fill="none" stroke="black" points="95,-168 95,-188 158,-188 158,-168 95,-168"/>
<text text-anchor="start" x="123" y="-176" font-family="Arial" font-size="10.00"> &#160;</text>
</g>
<!-- e2 -->
<g id="node2" class="node"><title>e2</title>
<polygon fill="deepskyblue" stroke="deepskyblue" points="97,-86.5 97,-123.5 155,-123.5 155,-86.5 97,-86.5"/>
<polygon fill="none" stroke="black" points="97,-106 97,-123 155,-123 155,-106 97,-106"/>
<text text-anchor="start" x="100.5" y="-112.5" font-family="Arial" font-size="10.00"> </text>
<text text-anchor="start" x="104.5" y="-112.5" font-family="Arial" font-size="10.00"> e2 :EdgePO </text>
<polygon fill="none" stroke="black" points="97,-86 97,-106 155,-106 155,-86 97,-86"/>
<text text-anchor="start" x="122.5" y="-94" font-family="Arial" font-size="10.00"> &#160;</text>
</g>
<!-- g1&#45;&#45;e2 -->
<g id="edge4" class="edge"><title>g1&#45;&#45;e2</title>
<path fill="none" stroke="black" d="M126,-164.03C126,-152.167 126,-138.675 126,-127.687"/>
<text text-anchor="middle" x="130.226" y="-134.25" font-family="Arial" font-size="10.00">edges</text>
</g>
<!-- allMatches_e2 -->
<g id="node3" class="node"><title>allMatches_e2</title>
<text text-anchor="middle" x="32" y="-20.5" font-family="Arial" font-size="10.00">allMatches</text>
</g>
<!-- e2&#45;&#45;allMatches_e2 -->
<g id="edge2" class="edge"><title>e2&#45;&#45;allMatches_e2</title>
<path fill="none" stroke="black" stroke-dasharray="1,5" d="M100.314,-82.1396C85.0936,-69.1861 66.0897,-53.0125 51.9925,-41.0149"/>
</g>
<!-- n3 -->
<g id="node4" class="node"><title>n3</title>
<polygon fill="deepskyblue" stroke="deepskyblue" points="90.5,-4.5 90.5,-41.5 161.5,-41.5 161.5,-4.5 90.5,-4.5"/>
<polygon fill="none" stroke="black" points="91,-24 91,-41 162,-41 162,-24 91,-24"/>
<text text-anchor="start" x="94.5" y="-30.5" font-family="Arial" font-size="10.00"> </text>
<text text-anchor="start" x="98.5" y="-30.5" font-family="Arial" font-size="10.00"> n3 :NodePO </text>
<polygon fill="none" stroke="black" points="91,-4 91,-24 162,-24 162,-4 91,-4"/>
<text text-anchor="start" x="123" y="-12" font-family="Arial" font-size="10.00"> &#160;</text>
</g>
<!-- e2&#45;&#45;n3 -->
<g id="edge6" class="edge"><title>e2&#45;&#45;n3</title>
<path fill="none" stroke="black" d="M119.909,-82.1396C119.022,-70.759 119.03,-56.8929 119.933,-45.5569"/>
<text text-anchor="middle" x="123.514" y="-52.394" font-family="Arial" font-size="10.00">src</text>
</g>
<!-- e2&#45;&#45;n3 -->
<g id="edge8" class="edge"><title>e2&#45;&#45;n3</title>
<path fill="none" stroke="black" d="M132.091,-82.1396C132.978,-70.759 132.97,-56.8929 132.067,-45.5569"/>
<text text-anchor="middle" x="136.918" y="-51.8014" font-family="Arial" font-size="10.00">tgt</text>
</g>
</g>
</svg>
