<?xml version="1.0" encoding="UTF-8" standalone="no"?>
<!DOCTYPE svg PUBLIC "-//W3C//DTD SVG 1.1//EN"
 "http://www.w3.org/Graphics/SVG/1.1/DTD/svg11.dtd">
<!-- Generated by graphviz version 2.28.0 (20110507.0327)
 -->
<!-- Title: ObjectDiagram Pages: 1 -->
<svg width="556pt" height="454pt"
 viewBox="0.00 0.00 556.04 454.00" xmlns="http://www.w3.org/2000/svg" xmlns:xlink="http://www.w3.org/1999/xlink">
<g id="graph1" class="graph" transform="scale(1 1) rotate(0) translate(4 450)">
<title>ObjectDiagram</title>
<polygon fill="white" stroke="white" points="-4,5 -4,-450 553.04,-450 553.04,5 -4,5"/>
<!-- g151 -->
<g id="node1" class="node"><title>g151</title>
<a xlink:href="../examples/org/sdmlib/examples/helloworld/Graph.java" xlink:title="&lt;TABLE&gt;">
<polygon fill="none" stroke="black" points="173,-419 173,-436 231,-436 231,-419 173,-419"/>
<text text-anchor="start" x="176.5" y="-425.5" font-family="Times New Roman,serif" font-size="10.00"> </text>
<text text-anchor="start" x="179.5" y="-425.5" font-family="Times New Roman,serif" font-size="10.00">g151 :Graph</text>
</a>
</g>
<!-- n152 -->
<g id="node2" class="node"><title>n152</title>
<a xlink:href="../examples/org/sdmlib/examples/helloworld/Node.java" xlink:title="&lt;TABLE&gt;">
<polygon fill="none" stroke="black" points="53,-352 53,-369 109,-369 109,-352 53,-352"/>
<text text-anchor="start" x="56.5" y="-358.5" font-family="Times New Roman,serif" font-size="10.00"> </text>
<text text-anchor="start" x="59.5" y="-358.5" font-family="Times New Roman,serif" font-size="10.00">n152 :Node</text>
</a>
<polygon fill="none" stroke="black" points="53,-332 53,-352 109,-352 109,-332 53,-332"/>
<text text-anchor="start" x="58" y="-340" font-family="Times New Roman,serif" font-size="10.00">text = &quot;n1&quot;</text>
</g>
<!-- g151&#45;&#45;n152 -->
<g id="edge2" class="edge"><title>g151&#45;&#45;n152</title>
<path fill="none" stroke="black" d="M174.543,-409.981C157.112,-399.177 134.401,-385.1 115.722,-373.522"/>
<text text-anchor="middle" x="125.652" y="-372.204" font-family="Times New Roman,serif" font-size="10.00">nodes</text>
<text text-anchor="middle" x="164.613" y="-406.299" font-family="Times New Roman,serif" font-size="10.00">graph</text>
</g>
<!-- n153 -->
<g id="node3" class="node"><title>n153</title>
<a xlink:href="../examples/org/sdmlib/examples/helloworld/Node.java" xlink:title="&lt;TABLE&gt;">
<polygon fill="none" stroke="black" points="8,-270 8,-287 64,-287 64,-270 8,-270"/>
<text text-anchor="start" x="11.5" y="-276.5" font-family="Times New Roman,serif" font-size="10.00"> </text>
<text text-anchor="start" x="14.5" y="-276.5" font-family="Times New Roman,serif" font-size="10.00">n153 :Node</text>
</a>
<polygon fill="none" stroke="black" points="8,-250 8,-270 64,-270 64,-250 8,-250"/>
<text text-anchor="start" x="13" y="-258" font-family="Times New Roman,serif" font-size="10.00">text = &quot;n2&quot;</text>
</g>
<!-- g151&#45;&#45;n153 -->
<g id="edge4" class="edge"><title>g151&#45;&#45;n153</title>
<path fill="none" stroke="black" d="M164.79,-426.929C125.526,-424.611 65.3544,-414.186 36,-374 18.6403,-350.234 23.3871,-314.57 29.127,-291.794"/>
<text text-anchor="middle" x="31.1931" y="-299.078" font-family="Times New Roman,serif" font-size="10.00">nodes</text>
<text text-anchor="middle" x="155.426" y="-427.94" font-family="Times New Roman,serif" font-size="10.00">graph</text>
</g>
<!-- n154 -->
<g id="node4" class="node"><title>n154</title>
<a xlink:href="../examples/org/sdmlib/examples/helloworld/Node.java" xlink:title="&lt;TABLE&gt;">
<polygon fill="none" stroke="black" points="72,-188 72,-205 128,-205 128,-188 72,-188"/>
<text text-anchor="start" x="75.5" y="-194.5" font-family="Times New Roman,serif" font-size="10.00"> </text>
<text text-anchor="start" x="78.5" y="-194.5" font-family="Times New Roman,serif" font-size="10.00">n154 :Node</text>
</a>
<polygon fill="none" stroke="black" points="72,-168 72,-188 128,-188 128,-168 72,-168"/>
<text text-anchor="start" x="77" y="-176" font-family="Times New Roman,serif" font-size="10.00">text = &quot;n3&quot;</text>
</g>
<!-- g151&#45;&#45;n154 -->
<g id="edge6" class="edge"><title>g151&#45;&#45;n154</title>
<path fill="none" stroke="black" d="M190.083,-409.842C183.36,-399.706 175.11,-386.456 169,-374 140.937,-316.795 117.4,-245.134 106.503,-209.785"/>
<text text-anchor="middle" x="113.241" y="-214.674" font-family="Times New Roman,serif" font-size="10.00">nodes</text>
<text text-anchor="middle" x="181.572" y="-402.092" font-family="Times New Roman,serif" font-size="10.00">graph</text>
</g>
<!-- n155 -->
<g id="node5" class="node"><title>n155</title>
<a xlink:href="../examples/org/sdmlib/examples/helloworld/Node.java" xlink:title="&lt;TABLE&gt;">
<polygon fill="none" stroke="black" points="129,-106 129,-123 185,-123 185,-106 129,-106"/>
<text text-anchor="start" x="132.5" y="-112.5" font-family="Times New Roman,serif" font-size="10.00"> </text>
<text text-anchor="start" x="135.5" y="-112.5" font-family="Times New Roman,serif" font-size="10.00">n155 :Node</text>
</a>
<polygon fill="none" stroke="black" points="129,-86 129,-106 185,-106 185,-86 129,-86"/>
<text text-anchor="start" x="134" y="-94" font-family="Times New Roman,serif" font-size="10.00">text = &quot;n4&quot;</text>
</g>
<!-- g151&#45;&#45;n155 -->
<g id="edge8" class="edge"><title>g151&#45;&#45;n155</title>
<path fill="none" stroke="black" d="M199.581,-409.742C191.968,-355.438 168.51,-188.108 160.068,-127.882"/>
<text text-anchor="middle" x="165.511" y="-133.771" font-family="Times New Roman,serif" font-size="10.00">nodes</text>
<text text-anchor="middle" x="194.137" y="-398.853" font-family="Times New Roman,serif" font-size="10.00">graph</text>
</g>
<!-- n156 -->
<g id="node6" class="node"><title>n156</title>
<a xlink:href="../examples/org/sdmlib/examples/helloworld/Node.java" xlink:title="&lt;TABLE&gt;">
<polygon fill="none" stroke="black" points="129,-24 129,-41 185,-41 185,-24 129,-24"/>
<text text-anchor="start" x="132.5" y="-30.5" font-family="Times New Roman,serif" font-size="10.00"> </text>
<text text-anchor="start" x="135.5" y="-30.5" font-family="Times New Roman,serif" font-size="10.00">n156 :Node</text>
</a>
<polygon fill="none" stroke="black" points="129,-4 129,-24 185,-24 185,-4 129,-4"/>
<text text-anchor="start" x="134" y="-12" font-family="Times New Roman,serif" font-size="10.00">text = &quot;n5&quot;</text>
</g>
<!-- g151&#45;&#45;n156 -->
<g id="edge10" class="edge"><title>g151&#45;&#45;n156</title>
<path fill="none" stroke="black" d="M205.485,-409.659C210.97,-380.807 221,-321.068 221,-270 221,-270 221,-270 221,-186 221,-139.013 221.171,-124.898 202,-82 196.124,-68.8517 186.668,-56.0102 177.937,-45.7664"/>
<text text-anchor="middle" x="186.995" y="-47.5017" font-family="Times New Roman,serif" font-size="10.00">nodes</text>
<text text-anchor="middle" x="202.98" y="-397.477" font-family="Times New Roman,serif" font-size="10.00">graph</text>
</g>
<!-- n157 -->
<g id="node7" class="node"><title>n157</title>
<a xlink:href="../examples/org/sdmlib/examples/helloworld/Node.java" xlink:title="&lt;TABLE&gt;">
<polygon fill="none" stroke="black" points="257,-352 257,-369 313,-369 313,-352 257,-352"/>
<text text-anchor="start" x="260.5" y="-358.5" font-family="Times New Roman,serif" font-size="10.00"> </text>
<text text-anchor="start" x="263.5" y="-358.5" font-family="Times New Roman,serif" font-size="10.00">n157 :Node</text>
</a>
<polygon fill="none" stroke="black" points="257,-332 257,-352 313,-352 313,-332 257,-332"/>
<text text-anchor="start" x="262" y="-340" font-family="Times New Roman,serif" font-size="10.00">text = &quot;n6&quot;</text>
</g>
<!-- g151&#45;&#45;n157 -->
<g id="edge12" class="edge"><title>g151&#45;&#45;n157</title>
<path fill="none" stroke="black" d="M220.834,-409.981C232.791,-399.177 248.37,-385.1 261.183,-373.522"/>
<text text-anchor="middle" x="257.292" y="-380.234" font-family="Times New Roman,serif" font-size="10.00">nodes</text>
<text text-anchor="middle" x="224.725" y="-398.269" font-family="Times New Roman,serif" font-size="10.00">graph</text>
</g>
<!-- n158 -->
<g id="node8" class="node"><title>n158</title>
<a xlink:href="../examples/org/sdmlib/examples/helloworld/Node.java" xlink:title="&lt;TABLE&gt;">
<polygon fill="none" stroke="black" points="347,-352 347,-369 403,-369 403,-352 347,-352"/>
<text text-anchor="start" x="350.5" y="-358.5" font-family="Times New Roman,serif" font-size="10.00"> </text>
<text text-anchor="start" x="353.5" y="-358.5" font-family="Times New Roman,serif" font-size="10.00">n158 :Node</text>
</a>
<polygon fill="none" stroke="black" points="347,-332 347,-352 403,-352 403,-332 347,-332"/>
<text text-anchor="start" x="352" y="-340" font-family="Times New Roman,serif" font-size="10.00">text = &quot;n7&quot;</text>
</g>
<!-- g151&#45;&#45;n158 -->
<g id="edge14" class="edge"><title>g151&#45;&#45;n158</title>
<path fill="none" stroke="black" d="M239.23,-412.296C264.911,-401.98 299.743,-387.645 330,-374 332.854,-372.713 335.795,-371.353 338.742,-369.966"/>
<text text-anchor="middle" x="332.337" y="-375.145" font-family="Times New Roman,serif" font-size="10.00">nodes</text>
<text text-anchor="middle" x="246.055" y="-402.488" font-family="Times New Roman,serif" font-size="10.00">graph</text>
</g>
<!-- n159 -->
<g id="node9" class="node"><title>n159</title>
<a xlink:href="../examples/org/sdmlib/examples/helloworld/Node.java" xlink:title="&lt;TABLE&gt;">
<polygon fill="none" stroke="black" points="437,-352 437,-369 493,-369 493,-352 437,-352"/>
<text text-anchor="start" x="440.5" y="-358.5" font-family="Times New Roman,serif" font-size="10.00"> </text>
<text text-anchor="start" x="443.5" y="-358.5" font-family="Times New Roman,serif" font-size="10.00">n159 :Node</text>
</a>
<polygon fill="none" stroke="black" points="437,-332 437,-352 493,-352 493,-332 437,-332"/>
<text text-anchor="start" x="442" y="-340" font-family="Times New Roman,serif" font-size="10.00">text = &quot;n8&quot;</text>
</g>
<!-- g151&#45;&#45;n159 -->
<g id="edge16" class="edge"><title>g151&#45;&#45;n159</title>
<path fill="none" stroke="black" d="M239.36,-420.471C283.359,-412.202 358.273,-396.295 420,-374 422.944,-372.937 425.951,-371.737 428.943,-370.461"/>
<text text-anchor="middle" x="422.247" y="-375.388" font-family="Times New Roman,serif" font-size="10.00">nodes</text>
<text text-anchor="middle" x="247.462" y="-412.109" font-family="Times New Roman,serif" font-size="10.00">graph</text>
</g>
<!-- n152&#45;&#45;n153 -->
<g id="edge18" class="edge"><title>n152&#45;&#45;n153</title>
<path fill="none" stroke="black" d="M68.7036,-328.14C62.3019,-316.759 54.5023,-302.893 48.1258,-291.557"/>
<text text-anchor="middle" x="56.2525" y="-294.884" font-family="Times New Roman,serif" font-size="10.00">linksTo</text>
<text text-anchor="middle" x="60.5768" y="-319.812" font-family="Times New Roman,serif" font-size="10.00">linksFrom</text>
</g>
<!-- n152&#45;&#45;n154 -->
<g id="edge20" class="edge"><title>n152&#45;&#45;n154</title>
<path fill="none" stroke="black" d="M83.5231,-328.488C87.1571,-297.503 93.8267,-240.636 97.4665,-209.601"/>
<text text-anchor="middle" x="100.608" y="-216.595" font-family="Times New Roman,serif" font-size="10.00">linksFrom</text>
<text text-anchor="middle" x="80.3814" y="-316.494" font-family="Times New Roman,serif" font-size="10.00">linksTo</text>
</g>
<!-- n153&#45;&#45;n154 -->
<g id="edge22" class="edge"><title>n153&#45;&#45;n154</title>
<path fill="none" stroke="black" d="M53.4883,-246.14C62.5928,-234.759 73.6857,-220.893 82.7545,-209.557"/>
<text text-anchor="middle" x="80.3929" y="-216.774" font-family="Times New Roman,serif" font-size="10.00">linksTo</text>
<text text-anchor="middle" x="55.8498" y="-233.922" font-family="Times New Roman,serif" font-size="10.00">linksFrom</text>
</g>
<!-- n154&#45;&#45;n155 -->
<g id="edge24" class="edge"><title>n154&#45;&#45;n155</title>
<path fill="none" stroke="black" d="M115.576,-164.14C123.684,-152.759 133.564,-138.893 141.641,-127.557"/>
<text text-anchor="middle" x="139.823" y="-134.89" font-family="Times New Roman,serif" font-size="10.00">linksTo</text>
<text text-anchor="middle" x="117.393" y="-151.806" font-family="Times New Roman,serif" font-size="10.00">linksFrom</text>
</g>
<!-- n154&#45;&#45;n156 -->
<g id="edge26" class="edge"><title>n154&#45;&#45;n156</title>
<path fill="none" stroke="black" d="M99.1625,-164.453C99.0737,-142.819 101.015,-108.926 112,-82 117.44,-68.6655 126.845,-55.8021 135.655,-45.5921"/>
<text text-anchor="middle" x="133.029" y="-52.7411" font-family="Times New Roman,serif" font-size="10.00">linksFrom</text>
<text text-anchor="middle" x="94.9911" y="-152.865" font-family="Times New Roman,serif" font-size="10.00">linksTo</text>
</g>
<!-- n155&#45;&#45;n156 -->
<g id="edge28" class="edge"><title>n155&#45;&#45;n156</title>
<path fill="none" stroke="black" d="M157,-82.1396C157,-70.759 157,-56.8929 157,-45.5569"/>
<text text-anchor="middle" x="161.226" y="-52.12" font-family="Times New Roman,serif" font-size="10.00">linksTo</text>
<text text-anchor="middle" x="152.774" y="-70.5766" font-family="Times New Roman,serif" font-size="10.00">linksFrom</text>
</g>
<!-- n159&#45;&#45;n159 -->
<g id="edge30" class="edge"><title>n159&#45;&#45;n159</title>
<path fill="none" stroke="black" d="M501.087,-365.18C511.221,-364.559 519,-359.832 519,-351 519,-342.168 511.221,-337.441 501.087,-336.82"/>
<text text-anchor="middle" x="510.54" y="-331.058" font-family="Times New Roman,serif" font-size="10.00">linksTo_linksFrom</text>
</g>
</g>
</svg>
