<?xml version="1.0" encoding="UTF-8" standalone="no"?>
<!DOCTYPE svg PUBLIC "-//W3C//DTD SVG 1.1//EN"
 "http://www.w3.org/Graphics/SVG/1.1/DTD/svg11.dtd">
<!-- Generated by graphviz version 2.28.0 (20110507.0327)
 -->
<!-- Title: ClassDiagram Pages: 1 -->
<svg width="119pt" height="380pt"
 viewBox="0.00 0.00 119.44 380.00" xmlns="http://www.w3.org/2000/svg" xmlns:xlink="http://www.w3.org/1999/xlink">
<g id="graph1" class="graph" transform="scale(1 1) rotate(0) translate(4 376)">
<title>ClassDiagram</title>
<polygon fill="white" stroke="white" points="-4,5 -4,-376 116.437,-376 116.437,5 -4,5"/>
<!-- _Graph -->
<g id="node1" class="node"><title>_Graph</title>
<a xlink:href="../examples/org/sdmlib/examples/helloworld/Graph.java" xlink:title="&lt;TABLE&gt;">
<polygon fill="none" stroke="black" points="45.437,-350 45.437,-367 79.437,-367 79.437,-350 45.437,-350"/>
<text text-anchor="start" x="48.937" y="-356.5" font-family="Arial" font-size="10.00">Graph</text>
</a>
<polygon fill="none" stroke="black" points="45.437,-330 45.437,-350 79.437,-350 79.437,-330 45.437,-330"/>
<text text-anchor="start" x="60.437" y="-338" font-family="Arial" font-size="10.00"> </text>
<polygon fill="none" stroke="black" points="45.437,-310 45.437,-330 79.437,-330 79.437,-310 45.437,-310"/>
<text text-anchor="start" x="60.437" y="-318" font-family="Arial" font-size="10.00"> </text>
</g>
<!-- _GraphComponent -->
<g id="node2" class="node"><title>_GraphComponent</title>
<a xlink:href="../examples/org/sdmlib/examples/helloworld/GraphComponent.java" xlink:title="&lt;TABLE&gt;">
<polygon fill="none" stroke="black" points="21.437,-248 21.437,-265 104.437,-265 104.437,-248 21.437,-248"/>
<text text-anchor="start" x="24.937" y="-254.5" font-family="Arial" font-size="10.00">GraphComponent</text>
</a>
<polygon fill="none" stroke="black" points="21.437,-228 21.437,-248 104.437,-248 104.437,-228 21.437,-228"/>
<text text-anchor="start" x="26.437" y="-236" font-family="Arial" font-size="10.00">text :String</text>
<polygon fill="none" stroke="black" points="21.437,-208 21.437,-228 104.437,-228 104.437,-208 21.437,-208"/>
<text text-anchor="start" x="60.937" y="-216" font-family="Arial" font-size="10.00"> </text>
</g>
<!-- _Graph&#45;&gt;_GraphComponent -->
<g id="edge6" class="edge"><title>_Graph&#45;&gt;_GraphComponent</title>
<path fill="none" stroke="black" d="M62.437,-306.359C62.437,-294.686 62.437,-281.463 62.437,-269.778"/>
<text text-anchor="middle" x="66.6632" y="-276.341" font-family="Arial" font-size="10.00">gcs *</text>
<text text-anchor="middle" x="58.2108" y="-294.796" font-family="Arial" font-size="10.00">parent</text>
</g>
<!-- _Edge -->
<g id="node3" class="node"><title>_Edge</title>
<a xlink:href="../examples/org/sdmlib/examples/helloworld/Edge.java" xlink:title="&lt;TABLE&gt;">
<polygon fill="none" stroke="black" points="20.437,-146 20.437,-163 50.437,-163 50.437,-146 20.437,-146"/>
<text text-anchor="start" x="23.937" y="-152.5" font-family="Arial" font-size="10.00">Edge</text>
</a>
<polygon fill="none" stroke="black" points="20.437,-126 20.437,-146 50.437,-146 50.437,-126 20.437,-126"/>
<text text-anchor="start" x="33.437" y="-134" font-family="Arial" font-size="10.00"> </text>
<polygon fill="none" stroke="black" points="20.437,-106 20.437,-126 50.437,-126 50.437,-106 20.437,-106"/>
<text text-anchor="start" x="33.437" y="-114" font-family="Arial" font-size="10.00"> </text>
</g>
<!-- _GraphComponent&#45;&gt;_Edge -->
<g id="edge2" class="edge"><title>_GraphComponent&#45;&gt;_Edge</title>
<path fill="none" stroke="black" d="M51.2318,-194.499C48.8209,-185.57 46.3094,-176.268 44.0171,-167.778"/>
<polygon fill="none" stroke="black" points="47.9083,-195.617 53.894,-204.359 54.6663,-193.793 47.9083,-195.617"/>
</g>
<!-- _Node -->
<g id="node4" class="node"><title>_Node</title>
<a xlink:href="../examples/org/sdmlib/examples/helloworld/Node.java" xlink:title="&lt;TABLE&gt;">
<polygon fill="none" stroke="black" points="20.437,-44 20.437,-61 50.437,-61 50.437,-44 20.437,-44"/>
<text text-anchor="start" x="23.937" y="-50.5" font-family="Arial" font-size="10.00">Node</text>
</a>
<polygon fill="none" stroke="black" points="20.437,-24 20.437,-44 50.437,-44 50.437,-24 20.437,-24"/>
<text text-anchor="start" x="33.437" y="-32" font-family="Arial" font-size="10.00"> </text>
<polygon fill="none" stroke="black" points="20.437,-4 20.437,-24 50.437,-24 50.437,-4 20.437,-4"/>
<text text-anchor="start" x="33.437" y="-12" font-family="Arial" font-size="10.00"> </text>
</g>
<!-- _GraphComponent&#45;&gt;_Node -->
<g id="edge4" class="edge"><title>_GraphComponent&#45;&gt;_Node</title>
<path fill="none" stroke="black" d="M71.7772,-194.215C76.1601,-167.482 78.9541,-132.265 71.437,-102 68.3137,-89.4249 62.3887,-76.6166 56.2337,-65.5573"/>
<polygon fill="none" stroke="black" points="68.2743,-193.923 69.9682,-204.381 75.1661,-195.149 68.2743,-193.923"/>
</g>
<!-- _Edge&#45;&gt;_Node -->
<g id="edge8" class="edge"><title>_Edge&#45;&gt;_Node</title>
<path fill="none" stroke="black" d="M29.1089,-102.359C28.5486,-90.6864 28.5464,-77.4631 29.1023,-65.778"/>
<text text-anchor="middle" x="32.9419" y="-72.5115" font-family="Arial" font-size="10.00">src</text>
<text text-anchor="middle" x="24.5" y="-90.9848" font-family="Arial" font-size="10.00">outEdges *</text>
</g>
<!-- _Edge&#45;&gt;_Node -->
<g id="edge10" class="edge"><title>_Edge&#45;&gt;_Node</title>
<path fill="none" stroke="black" d="M41.7651,-102.359C42.3254,-90.6864 42.3276,-77.4631 41.7717,-65.778"/>
<text text-anchor="middle" x="46.377" y="-72.1545" font-family="Arial" font-size="10.00">tgt</text>
<text text-anchor="middle" x="37.9293" y="-90.6243" font-family="Arial" font-size="10.00">inEdges *</text>
</g>
</g>
</svg>
