<?xml version="1.0" encoding="UTF-8" standalone="no"?>
<!DOCTYPE svg PUBLIC "-//W3C//DTD SVG 1.1//EN"
 "http://www.w3.org/Graphics/SVG/1.1/DTD/svg11.dtd">
<!-- Generated by graphviz version 2.28.0 (20110507.0327)
 -->
<!-- Title: ObjectDiagram Pages: 1 -->
<svg width="899pt" height="1298pt"
 viewBox="0.00 0.00 898.88 1298.00" xmlns="http://www.w3.org/2000/svg" xmlns:xlink="http://www.w3.org/1999/xlink">
<g id="graph1" class="graph" transform="scale(1 1) rotate(0) translate(4 1294)">
<title>ObjectDiagram</title>
<polygon fill="white" stroke="white" points="-4,5 -4,-1294 895.885,-1294 895.885,5 -4,5"/>
<!-- g115 -->
<g id="node1" class="node"><title>g115</title>
<a xlink:href="../examples/org/sdmlib/examples/helloworld/Graph.java" xlink:title="&lt;TABLE&gt;">
<polygon fill="none" stroke="black" points="354.885,-1263 354.885,-1280 412.885,-1280 412.885,-1263 354.885,-1263"/>
<text text-anchor="start" x="358.385" y="-1269.5" font-family="Times New Roman,serif" font-size="10.00"> </text>
<text text-anchor="start" x="361.385" y="-1269.5" font-family="Times New Roman,serif" font-size="10.00">g115 :Graph</text>
</a>
</g>
<!-- n116 -->
<g id="node2" class="node"><title>n116</title>
<a xlink:href="../examples/org/sdmlib/examples/helloworld/Node.java" xlink:title="&lt;TABLE&gt;">
<polygon fill="none" stroke="black" points="196.885,-1196 196.885,-1213 252.885,-1213 252.885,-1196 196.885,-1196"/>
<text text-anchor="start" x="200.385" y="-1202.5" font-family="Times New Roman,serif" font-size="10.00"> </text>
<text text-anchor="start" x="203.385" y="-1202.5" font-family="Times New Roman,serif" font-size="10.00">n116 :Node</text>
</a>
<polygon fill="none" stroke="black" points="196.885,-1120 196.885,-1196 252.885,-1196 252.885,-1120 196.885,-1120"/>
<text text-anchor="start" x="201.885" y="-1184" font-family="Times New Roman,serif" font-size="10.00">name = &quot;&quot;</text>
<text text-anchor="start" x="201.885" y="-1170" font-family="Times New Roman,serif" font-size="10.00">orig = &quot;&quot;</text>
<text text-anchor="start" x="201.885" y="-1156" font-family="Times New Roman,serif" font-size="10.00">copy = &quot;&quot;</text>
<text text-anchor="start" x="201.885" y="-1142" font-family="Times New Roman,serif" font-size="10.00">text = &quot;n1&quot;</text>
<text text-anchor="start" x="201.885" y="-1128" font-family="Times New Roman,serif" font-size="10.00">parent = &quot;&quot;</text>
</g>
<!-- g115&#45;&#45;n116 -->
<g id="edge2" class="edge"><title>g115&#45;&#45;n116</title>
<path fill="none" stroke="black" d="M346.853,-1256.66C324.924,-1247.29 297.164,-1233.87 274.885,-1218 270.185,-1214.65 265.526,-1210.85 261.051,-1206.87"/>
<text text-anchor="middle" x="270.644" y="-1207.19" font-family="Times New Roman,serif" font-size="10.00">nodes</text>
<text text-anchor="middle" x="336.857" y="-1254.42" font-family="Times New Roman,serif" font-size="10.00">graph</text>
</g>
<!-- e117 -->
<g id="node3" class="node"><title>e117</title>
<a xlink:href="../examples/org/sdmlib/examples/helloworld/Edge.java" xlink:title="&lt;TABLE&gt;">
<polygon fill="none" stroke="black" points="232.885,-1058 232.885,-1075 290.885,-1075 290.885,-1058 232.885,-1058"/>
<text text-anchor="start" x="238.885" y="-1064.5" font-family="Times New Roman,serif" font-size="10.00"> </text>
<text text-anchor="start" x="241.885" y="-1064.5" font-family="Times New Roman,serif" font-size="10.00">e117 :Edge</text>
</a>
<polygon fill="none" stroke="black" points="232.885,-1010 232.885,-1058 290.885,-1058 290.885,-1010 232.885,-1010"/>
<text text-anchor="start" x="237.885" y="-1046" font-family="Times New Roman,serif" font-size="10.00">graph = &quot;&quot;</text>
<text text-anchor="start" x="237.885" y="-1032" font-family="Times New Roman,serif" font-size="10.00">name = &quot;&quot;</text>
<text text-anchor="start" x="237.885" y="-1018" font-family="Times New Roman,serif" font-size="10.00">text = &quot;e10&quot;</text>
</g>
<!-- g115&#45;&#45;e117 -->
<g id="edge18" class="edge"><title>g115&#45;&#45;e117</title>
<path fill="none" stroke="black" d="M352.543,-1253.93C338.6,-1244.91 323.067,-1232.65 312.885,-1218 283.602,-1175.86 270.933,-1116.84 265.593,-1079.52"/>
<text text-anchor="middle" x="271.158" y="-1085.33" font-family="Times New Roman,serif" font-size="10.00">gcs</text>
<text text-anchor="middle" x="342.655" y="-1249.94" font-family="Times New Roman,serif" font-size="10.00">parent</text>
</g>
<!-- n118 -->
<g id="node4" class="node"><title>n118</title>
<a xlink:href="../examples/org/sdmlib/examples/helloworld/Node.java" xlink:title="&lt;TABLE&gt;">
<polygon fill="none" stroke="black" points="310.885,-948 310.885,-965 366.885,-965 366.885,-948 310.885,-948"/>
<text text-anchor="start" x="314.385" y="-954.5" font-family="Times New Roman,serif" font-size="10.00"> </text>
<text text-anchor="start" x="317.385" y="-954.5" font-family="Times New Roman,serif" font-size="10.00">n118 :Node</text>
</a>
<polygon fill="none" stroke="black" points="310.885,-872 310.885,-948 366.885,-948 366.885,-872 310.885,-872"/>
<text text-anchor="start" x="315.885" y="-936" font-family="Times New Roman,serif" font-size="10.00">name = &quot;&quot;</text>
<text text-anchor="start" x="315.885" y="-922" font-family="Times New Roman,serif" font-size="10.00">orig = &quot;&quot;</text>
<text text-anchor="start" x="315.885" y="-908" font-family="Times New Roman,serif" font-size="10.00">copy = &quot;&quot;</text>
<text text-anchor="start" x="315.885" y="-894" font-family="Times New Roman,serif" font-size="10.00">text = &quot;n2&quot;</text>
<text text-anchor="start" x="315.885" y="-880" font-family="Times New Roman,serif" font-size="10.00">parent = &quot;&quot;</text>
</g>
<!-- g115&#45;&#45;n118 -->
<g id="edge4" class="edge"><title>g115&#45;&#45;n118</title>
<path fill="none" stroke="black" d="M381.653,-1253.59C375.056,-1202.14 355.468,-1049.35 345.249,-969.644"/>
<text text-anchor="middle" x="350.594" y="-975.596" font-family="Times New Roman,serif" font-size="10.00">nodes</text>
<text text-anchor="middle" x="376.309" y="-1242.64" font-family="Times New Roman,serif" font-size="10.00">graph</text>
</g>
<!-- e119 -->
<g id="node5" class="node"><title>e119</title>
<a xlink:href="../examples/org/sdmlib/examples/helloworld/Edge.java" xlink:title="&lt;TABLE&gt;">
<polygon fill="none" stroke="black" points="312.885,-810 312.885,-827 370.885,-827 370.885,-810 312.885,-810"/>
<text text-anchor="start" x="318.885" y="-816.5" font-family="Times New Roman,serif" font-size="10.00"> </text>
<text text-anchor="start" x="321.885" y="-816.5" font-family="Times New Roman,serif" font-size="10.00">e119 :Edge</text>
</a>
<polygon fill="none" stroke="black" points="312.885,-762 312.885,-810 370.885,-810 370.885,-762 312.885,-762"/>
<text text-anchor="start" x="317.885" y="-798" font-family="Times New Roman,serif" font-size="10.00">graph = &quot;&quot;</text>
<text text-anchor="start" x="317.885" y="-784" font-family="Times New Roman,serif" font-size="10.00">name = &quot;&quot;</text>
<text text-anchor="start" x="317.885" y="-770" font-family="Times New Roman,serif" font-size="10.00">text = &quot;e11&quot;</text>
</g>
<!-- g115&#45;&#45;e119 -->
<g id="edge20" class="edge"><title>g115&#45;&#45;e119</title>
<path fill="none" stroke="black" d="M387.04,-1253.69C396.706,-1197.04 422.96,-1012.54 383.885,-868 380.486,-855.427 374.285,-842.796 367.674,-831.701"/>
<text text-anchor="middle" x="375.892" y="-834.898" font-family="Times New Roman,serif" font-size="10.00">gcs</text>
<text text-anchor="middle" x="384.303" y="-1241.57" font-family="Times New Roman,serif" font-size="10.00">parent</text>
</g>
<!-- n120 -->
<g id="node6" class="node"><title>n120</title>
<a xlink:href="../examples/org/sdmlib/examples/helloworld/Node.java" xlink:title="&lt;TABLE&gt;">
<polygon fill="none" stroke="black" points="313.885,-700 313.885,-717 369.885,-717 369.885,-700 313.885,-700"/>
<text text-anchor="start" x="317.385" y="-706.5" font-family="Times New Roman,serif" font-size="10.00"> </text>
<text text-anchor="start" x="320.385" y="-706.5" font-family="Times New Roman,serif" font-size="10.00">n120 :Node</text>
</a>
<polygon fill="none" stroke="black" points="313.885,-624 313.885,-700 369.885,-700 369.885,-624 313.885,-624"/>
<text text-anchor="start" x="318.885" y="-688" font-family="Times New Roman,serif" font-size="10.00">name = &quot;&quot;</text>
<text text-anchor="start" x="318.885" y="-674" font-family="Times New Roman,serif" font-size="10.00">orig = &quot;&quot;</text>
<text text-anchor="start" x="318.885" y="-660" font-family="Times New Roman,serif" font-size="10.00">copy = &quot;&quot;</text>
<text text-anchor="start" x="318.885" y="-646" font-family="Times New Roman,serif" font-size="10.00">text = &quot;n3&quot;</text>
<text text-anchor="start" x="318.885" y="-632" font-family="Times New Roman,serif" font-size="10.00">parent = &quot;&quot;</text>
</g>
<!-- g115&#45;&#45;n120 -->
<g id="edge6" class="edge"><title>g115&#45;&#45;n120</title>
<path fill="none" stroke="black" d="M394.257,-1253.91C399.965,-1243.79 406.715,-1230.54 410.885,-1218 435.641,-1143.53 440.885,-1122.47 440.885,-1044 440.885,-1044 440.885,-1044 440.885,-918 440.885,-845.952 403.886,-770.058 375.126,-721.947"/>
<text text-anchor="middle" x="383.327" y="-725.169" font-family="Times New Roman,serif" font-size="10.00">nodes</text>
<text text-anchor="middle" x="394.974" y="-1241.43" font-family="Times New Roman,serif" font-size="10.00">graph</text>
</g>
<!-- e121 -->
<g id="node7" class="node"><title>e121</title>
<a xlink:href="../examples/org/sdmlib/examples/helloworld/Edge.java" xlink:title="&lt;TABLE&gt;">
<polygon fill="none" stroke="black" points="156.885,-562 156.885,-579 214.885,-579 214.885,-562 156.885,-562"/>
<text text-anchor="start" x="162.885" y="-568.5" font-family="Times New Roman,serif" font-size="10.00"> </text>
<text text-anchor="start" x="165.885" y="-568.5" font-family="Times New Roman,serif" font-size="10.00">e121 :Edge</text>
</a>
<polygon fill="none" stroke="black" points="156.885,-514 156.885,-562 214.885,-562 214.885,-514 156.885,-514"/>
<text text-anchor="start" x="161.885" y="-550" font-family="Times New Roman,serif" font-size="10.00">graph = &quot;&quot;</text>
<text text-anchor="start" x="161.885" y="-536" font-family="Times New Roman,serif" font-size="10.00">name = &quot;&quot;</text>
<text text-anchor="start" x="161.885" y="-522" font-family="Times New Roman,serif" font-size="10.00">text = &quot;e12&quot;</text>
</g>
<!-- g115&#45;&#45;e121 -->
<g id="edge22" class="edge"><title>g115&#45;&#45;e121</title>
<path fill="none" stroke="black" d="M346.791,-1266.38C294.121,-1259.01 201.62,-1242.86 179.885,-1218 128.618,-1159.35 158.885,-1121.89 158.885,-1044 158.885,-1044 158.885,-1044 158.885,-794 158.885,-718.812 171.502,-631.464 179.486,-583.717"/>
<text text-anchor="middle" x="182.201" y="-590.841" font-family="Times New Roman,serif" font-size="10.00">gcs</text>
<text text-anchor="middle" x="337.211" y="-1266.75" font-family="Times New Roman,serif" font-size="10.00">parent</text>
</g>
<!-- e122 -->
<g id="node8" class="node"><title>e122</title>
<a xlink:href="../examples/org/sdmlib/examples/helloworld/Edge.java" xlink:title="&lt;TABLE&gt;">
<polygon fill="none" stroke="black" points="248.885,-562 248.885,-579 306.885,-579 306.885,-562 248.885,-562"/>
<text text-anchor="start" x="254.885" y="-568.5" font-family="Times New Roman,serif" font-size="10.00"> </text>
<text text-anchor="start" x="257.885" y="-568.5" font-family="Times New Roman,serif" font-size="10.00">e122 :Edge</text>
</a>
<polygon fill="none" stroke="black" points="248.885,-514 248.885,-562 306.885,-562 306.885,-514 248.885,-514"/>
<text text-anchor="start" x="253.885" y="-550" font-family="Times New Roman,serif" font-size="10.00">graph = &quot;&quot;</text>
<text text-anchor="start" x="253.885" y="-536" font-family="Times New Roman,serif" font-size="10.00">name = &quot;&quot;</text>
<text text-anchor="start" x="253.885" y="-522" font-family="Times New Roman,serif" font-size="10.00">text = &quot;e13&quot;</text>
</g>
<!-- g115&#45;&#45;e122 -->
<g id="edge24" class="edge"><title>g115&#45;&#45;e122</title>
<path fill="none" stroke="black" d="M375.053,-1253.66C370.109,-1243.47 364.109,-1230.22 359.885,-1218 328.184,-1126.31 337.084,-1098.52 307.885,-1006 302.718,-989.629 297.369,-986.81 293.885,-970 264.754,-829.47 270.818,-657.114 275.286,-583.77"/>
<text text-anchor="middle" x="279.013" y="-590.549" font-family="Times New Roman,serif" font-size="10.00">gcs</text>
<text text-anchor="middle" x="367.318" y="-1244.83" font-family="Times New Roman,serif" font-size="10.00">parent</text>
</g>
<!-- n123 -->
<g id="node9" class="node"><title>n123</title>
<a xlink:href="../examples/org/sdmlib/examples/helloworld/Node.java" xlink:title="&lt;TABLE&gt;">
<polygon fill="none" stroke="black" points="118.885,-452 118.885,-469 174.885,-469 174.885,-452 118.885,-452"/>
<text text-anchor="start" x="122.385" y="-458.5" font-family="Times New Roman,serif" font-size="10.00"> </text>
<text text-anchor="start" x="125.385" y="-458.5" font-family="Times New Roman,serif" font-size="10.00">n123 :Node</text>
</a>
<polygon fill="none" stroke="black" points="118.885,-376 118.885,-452 174.885,-452 174.885,-376 118.885,-376"/>
<text text-anchor="start" x="123.885" y="-440" font-family="Times New Roman,serif" font-size="10.00">name = &quot;&quot;</text>
<text text-anchor="start" x="123.885" y="-426" font-family="Times New Roman,serif" font-size="10.00">orig = &quot;&quot;</text>
<text text-anchor="start" x="123.885" y="-412" font-family="Times New Roman,serif" font-size="10.00">copy = &quot;&quot;</text>
<text text-anchor="start" x="123.885" y="-398" font-family="Times New Roman,serif" font-size="10.00">text = &quot;n4&quot;</text>
<text text-anchor="start" x="123.885" y="-384" font-family="Times New Roman,serif" font-size="10.00">parent = &quot;&quot;</text>
</g>
<!-- g115&#45;&#45;n123 -->
<g id="edge8" class="edge"><title>g115&#45;&#45;n123</title>
<path fill="none" stroke="black" d="M346.407,-1267.72C286.605,-1261.67 173.599,-1246.7 146.885,-1218 93.6113,-1160.76 120.885,-1122.19 120.885,-1044 120.885,-1044 120.885,-1044 120.885,-670 120.885,-601.716 130.914,-523.357 138.515,-473.779"/>
<text text-anchor="middle" x="141.358" y="-480.866" font-family="Times New Roman,serif" font-size="10.00">nodes</text>
<text text-anchor="middle" x="336.945" y="-1268.45" font-family="Times New Roman,serif" font-size="10.00">graph</text>
</g>
<!-- e124 -->
<g id="node10" class="node"><title>e124</title>
<a xlink:href="../examples/org/sdmlib/examples/helloworld/Edge.java" xlink:title="&lt;TABLE&gt;">
<polygon fill="none" stroke="black" points="99.8846,-314 99.8846,-331 157.885,-331 157.885,-314 99.8846,-314"/>
<text text-anchor="start" x="105.885" y="-320.5" font-family="Times New Roman,serif" font-size="10.00"> </text>
<text text-anchor="start" x="108.885" y="-320.5" font-family="Times New Roman,serif" font-size="10.00">e124 :Edge</text>
</a>
<polygon fill="none" stroke="black" points="99.8846,-266 99.8846,-314 157.885,-314 157.885,-266 99.8846,-266"/>
<text text-anchor="start" x="104.885" y="-302" font-family="Times New Roman,serif" font-size="10.00">graph = &quot;&quot;</text>
<text text-anchor="start" x="104.885" y="-288" font-family="Times New Roman,serif" font-size="10.00">name = &quot;&quot;</text>
<text text-anchor="start" x="104.885" y="-274" font-family="Times New Roman,serif" font-size="10.00">text = &quot;e14&quot;</text>
</g>
<!-- g115&#45;&#45;e124 -->
<g id="edge26" class="edge"><title>g115&#45;&#45;e124</title>
<path fill="none" stroke="black" d="M346.751,-1268.93C279.853,-1264.39 143.043,-1251.21 110.885,-1218 56.3971,-1161.73 82.8846,-1122.33 82.8846,-1044 82.8846,-1044 82.8846,-1044 82.8846,-546 82.8846,-468.207 83.8643,-447.677 101.885,-372 104.761,-359.922 109.11,-347.118 113.483,-335.708"/>
<text text-anchor="middle" x="114.23" y="-343.18" font-family="Times New Roman,serif" font-size="10.00">gcs</text>
<text text-anchor="middle" x="337.4" y="-1269.97" font-family="Times New Roman,serif" font-size="10.00">parent</text>
</g>
<!-- n125 -->
<g id="node11" class="node"><title>n125</title>
<a xlink:href="../examples/org/sdmlib/examples/helloworld/Node.java" xlink:title="&lt;TABLE&gt;">
<polygon fill="none" stroke="black" points="100.885,-204 100.885,-221 156.885,-221 156.885,-204 100.885,-204"/>
<text text-anchor="start" x="104.385" y="-210.5" font-family="Times New Roman,serif" font-size="10.00"> </text>
<text text-anchor="start" x="107.385" y="-210.5" font-family="Times New Roman,serif" font-size="10.00">n125 :Node</text>
</a>
<polygon fill="none" stroke="black" points="100.885,-128 100.885,-204 156.885,-204 156.885,-128 100.885,-128"/>
<text text-anchor="start" x="105.885" y="-192" font-family="Times New Roman,serif" font-size="10.00">name = &quot;&quot;</text>
<text text-anchor="start" x="105.885" y="-178" font-family="Times New Roman,serif" font-size="10.00">orig = &quot;&quot;</text>
<text text-anchor="start" x="105.885" y="-164" font-family="Times New Roman,serif" font-size="10.00">copy = &quot;&quot;</text>
<text text-anchor="start" x="105.885" y="-150" font-family="Times New Roman,serif" font-size="10.00">text = &quot;n5&quot;</text>
<text text-anchor="start" x="105.885" y="-136" font-family="Times New Roman,serif" font-size="10.00">parent = &quot;&quot;</text>
</g>
<!-- g115&#45;&#45;n125 -->
<g id="edge10" class="edge"><title>g115&#45;&#45;n125</title>
<path fill="none" stroke="black" d="M346.867,-1269.91C272.896,-1266.94 110.663,-1256.13 72.8846,-1218 17.7548,-1162.36 44.8846,-1122.33 44.8846,-1044 44.8846,-1044 44.8846,-1044 44.8846,-422 44.8846,-348.911 56.9887,-330.348 82.8846,-262 87.444,-249.966 93.3504,-237.498 99.4023,-225.914"/>
<text text-anchor="middle" x="98.9936" y="-233.405" font-family="Times New Roman,serif" font-size="10.00">nodes</text>
<text text-anchor="middle" x="337.617" y="-1271.21" font-family="Times New Roman,serif" font-size="10.00">graph</text>
</g>
<!-- e126 -->
<g id="node12" class="node"><title>e126</title>
<a xlink:href="../examples/org/sdmlib/examples/helloworld/Edge.java" xlink:title="&lt;TABLE&gt;">
<polygon fill="none" stroke="black" points="29.8846,-66 29.8846,-83 87.8846,-83 87.8846,-66 29.8846,-66"/>
<text text-anchor="start" x="35.8846" y="-72.5" font-family="Times New Roman,serif" font-size="10.00"> </text>
<text text-anchor="start" x="38.8846" y="-72.5" font-family="Times New Roman,serif" font-size="10.00">e126 :Edge</text>
</a>
<polygon fill="none" stroke="black" points="29.8846,-4 29.8846,-66 87.8846,-66 87.8846,-4 29.8846,-4"/>
<text text-anchor="start" x="34.8846" y="-54" font-family="Times New Roman,serif" font-size="10.00">graph = &quot;&quot;</text>
<text text-anchor="start" x="34.8846" y="-40" font-family="Times New Roman,serif" font-size="10.00">tgt = &quot;&quot;</text>
<text text-anchor="start" x="34.8846" y="-26" font-family="Times New Roman,serif" font-size="10.00">name = &quot;&quot;</text>
<text text-anchor="start" x="34.8846" y="-12" font-family="Times New Roman,serif" font-size="10.00">text = &quot;e18&quot;</text>
</g>
<!-- g115&#45;&#45;e126 -->
<g id="edge28" class="edge"><title>g115&#45;&#45;e126</title>
<path fill="none" stroke="black" d="M346.734,-1270.68C265.998,-1269.18 78.3019,-1261.04 34.8846,-1218 -20.7461,-1162.86 6.88459,-1122.33 6.88459,-1044 6.88459,-1044 6.88459,-1044 6.88459,-298 6.88459,-222.89 29.146,-137.758 44.5377,-87.8738"/>
<text text-anchor="middle" x="45.9807" y="-95.2691" font-family="Times New Roman,serif" font-size="10.00">gcs</text>
<text text-anchor="middle" x="337.568" y="-1272.18" font-family="Times New Roman,serif" font-size="10.00">parent</text>
</g>
<!-- e127 -->
<g id="node13" class="node"><title>e127</title>
<a xlink:href="../examples/org/sdmlib/examples/helloworld/Edge.java" xlink:title="&lt;TABLE&gt;">
<polygon fill="none" stroke="black" points="313.885,-59 313.885,-76 371.885,-76 371.885,-59 313.885,-59"/>
<text text-anchor="start" x="319.885" y="-65.5" font-family="Times New Roman,serif" font-size="10.00"> </text>
<text text-anchor="start" x="322.885" y="-65.5" font-family="Times New Roman,serif" font-size="10.00">e127 :Edge</text>
</a>
<polygon fill="none" stroke="black" points="313.885,-11 313.885,-59 371.885,-59 371.885,-11 313.885,-11"/>
<text text-anchor="start" x="318.885" y="-47" font-family="Times New Roman,serif" font-size="10.00">graph = &quot;&quot;</text>
<text text-anchor="start" x="318.885" y="-33" font-family="Times New Roman,serif" font-size="10.00">name = &quot;&quot;</text>
<text text-anchor="start" x="318.885" y="-19" font-family="Times New Roman,serif" font-size="10.00">text = &quot;e15&quot;</text>
</g>
<!-- g115&#45;&#45;e127 -->
<g id="edge30" class="edge"><title>g115&#45;&#45;e127</title>
<path fill="none" stroke="black" d="M406.588,-1253.88C417.592,-1244.45 430.083,-1231.85 437.885,-1218 476.884,-1148.78 478.885,-1123.45 478.885,-1044 478.885,-1044 478.885,-1044 478.885,-298 478.885,-211.979 417.135,-127.011 376.852,-80.735"/>
<text text-anchor="middle" x="385.924" y="-82.4421" font-family="Times New Roman,serif" font-size="10.00">gcs</text>
<text text-anchor="middle" x="410.624" y="-1242.23" font-family="Times New Roman,serif" font-size="10.00">parent</text>
</g>
<!-- e128 -->
<g id="node14" class="node"><title>e128</title>
<a xlink:href="../examples/org/sdmlib/examples/helloworld/Edge.java" xlink:title="&lt;TABLE&gt;">
<polygon fill="none" stroke="black" points="446.885,-66 446.885,-83 504.885,-83 504.885,-66 446.885,-66"/>
<text text-anchor="start" x="452.885" y="-72.5" font-family="Times New Roman,serif" font-size="10.00"> </text>
<text text-anchor="start" x="455.885" y="-72.5" font-family="Times New Roman,serif" font-size="10.00">e128 :Edge</text>
</a>
<polygon fill="none" stroke="black" points="446.885,-4 446.885,-66 504.885,-66 504.885,-4 446.885,-4"/>
<text text-anchor="start" x="451.885" y="-54" font-family="Times New Roman,serif" font-size="10.00">graph = &quot;&quot;</text>
<text text-anchor="start" x="451.885" y="-40" font-family="Times New Roman,serif" font-size="10.00">src = &quot;&quot;</text>
<text text-anchor="start" x="451.885" y="-26" font-family="Times New Roman,serif" font-size="10.00">name = &quot;&quot;</text>
<text text-anchor="start" x="451.885" y="-12" font-family="Times New Roman,serif" font-size="10.00">text = &quot;e19&quot;</text>
</g>
<!-- g115&#45;&#45;e128 -->
<g id="edge32" class="edge"><title>g115&#45;&#45;e128</title>
<path fill="none" stroke="black" d="M421.151,-1256.2C438.614,-1247.51 458.298,-1234.87 470.885,-1218 518.722,-1153.89 516.885,-1123.99 516.885,-1044 516.885,-1044 516.885,-1044 516.885,-298 516.885,-223.246 499.227,-137.648 487.088,-87.6335"/>
<text text-anchor="middle" x="493.284" y="-92.9828" font-family="Times New Roman,serif" font-size="10.00">gcs</text>
<text text-anchor="middle" x="427.273" y="-1245.8" font-family="Times New Roman,serif" font-size="10.00">parent</text>
</g>
<!-- n129 -->
<g id="node15" class="node"><title>n129</title>
<a xlink:href="../examples/org/sdmlib/examples/helloworld/Node.java" xlink:title="&lt;TABLE&gt;">
<polygon fill="none" stroke="black" points="552.885,-1196 552.885,-1213 608.885,-1213 608.885,-1196 552.885,-1196"/>
<text text-anchor="start" x="556.385" y="-1202.5" font-family="Times New Roman,serif" font-size="10.00"> </text>
<text text-anchor="start" x="559.385" y="-1202.5" font-family="Times New Roman,serif" font-size="10.00">n129 :Node</text>
</a>
<polygon fill="none" stroke="black" points="552.885,-1120 552.885,-1196 608.885,-1196 608.885,-1120 552.885,-1120"/>
<text text-anchor="start" x="557.885" y="-1184" font-family="Times New Roman,serif" font-size="10.00">name = &quot;&quot;</text>
<text text-anchor="start" x="557.885" y="-1170" font-family="Times New Roman,serif" font-size="10.00">orig = &quot;&quot;</text>
<text text-anchor="start" x="557.885" y="-1156" font-family="Times New Roman,serif" font-size="10.00">copy = &quot;&quot;</text>
<text text-anchor="start" x="557.885" y="-1142" font-family="Times New Roman,serif" font-size="10.00">text = &quot;n6&quot;</text>
<text text-anchor="start" x="557.885" y="-1128" font-family="Times New Roman,serif" font-size="10.00">parent = &quot;&quot;</text>
</g>
<!-- g115&#45;&#45;n129 -->
<g id="edge12" class="edge"><title>g115&#45;&#45;n129</title>
<path fill="none" stroke="black" d="M420.952,-1262.48C451.967,-1254.26 496.531,-1239.81 530.885,-1218 535.652,-1214.97 540.32,-1211.42 544.771,-1207.63"/>
<text text-anchor="middle" x="540.563" y="-1214.2" font-family="Times New Roman,serif" font-size="10.00">nodes</text>
<text text-anchor="middle" x="428.576" y="-1253.51" font-family="Times New Roman,serif" font-size="10.00">graph</text>
</g>
<!-- n130 -->
<g id="node16" class="node"><title>n130</title>
<a xlink:href="../examples/org/sdmlib/examples/helloworld/Node.java" xlink:title="&lt;TABLE&gt;">
<polygon fill="none" stroke="black" points="642.885,-1196 642.885,-1213 698.885,-1213 698.885,-1196 642.885,-1196"/>
<text text-anchor="start" x="646.385" y="-1202.5" font-family="Times New Roman,serif" font-size="10.00"> </text>
<text text-anchor="start" x="649.385" y="-1202.5" font-family="Times New Roman,serif" font-size="10.00">n130 :Node</text>
</a>
<polygon fill="none" stroke="black" points="642.885,-1120 642.885,-1196 698.885,-1196 698.885,-1120 642.885,-1120"/>
<text text-anchor="start" x="647.885" y="-1184" font-family="Times New Roman,serif" font-size="10.00">name = &quot;&quot;</text>
<text text-anchor="start" x="647.885" y="-1170" font-family="Times New Roman,serif" font-size="10.00">orig = &quot;&quot;</text>
<text text-anchor="start" x="647.885" y="-1156" font-family="Times New Roman,serif" font-size="10.00">copy = &quot;&quot;</text>
<text text-anchor="start" x="647.885" y="-1142" font-family="Times New Roman,serif" font-size="10.00">text = &quot;n7&quot;</text>
<text text-anchor="start" x="647.885" y="-1128" font-family="Times New Roman,serif" font-size="10.00">parent = &quot;&quot;</text>
</g>
<!-- g115&#45;&#45;n130 -->
<g id="edge14" class="edge"><title>g115&#45;&#45;n130</title>
<path fill="none" stroke="black" d="M421.267,-1269.83C471.116,-1266.78 560.636,-1255.95 625.885,-1218 628.913,-1216.24 631.85,-1214.2 634.675,-1211.98"/>
<text text-anchor="middle" x="630.108" y="-1218.38" font-family="Times New Roman,serif" font-size="10.00">nodes</text>
<text text-anchor="middle" x="430" y="-1262.46" font-family="Times New Roman,serif" font-size="10.00">graph</text>
</g>
<!-- n131 -->
<g id="node17" class="node"><title>n131</title>
<a xlink:href="../examples/org/sdmlib/examples/helloworld/Node.java" xlink:title="&lt;TABLE&gt;">
<polygon fill="none" stroke="black" points="770.885,-1196 770.885,-1213 826.885,-1213 826.885,-1196 770.885,-1196"/>
<text text-anchor="start" x="774.385" y="-1202.5" font-family="Times New Roman,serif" font-size="10.00"> </text>
<text text-anchor="start" x="777.385" y="-1202.5" font-family="Times New Roman,serif" font-size="10.00">n131 :Node</text>
</a>
<polygon fill="none" stroke="black" points="770.885,-1120 770.885,-1196 826.885,-1196 826.885,-1120 770.885,-1120"/>
<text text-anchor="start" x="775.885" y="-1184" font-family="Times New Roman,serif" font-size="10.00">name = &quot;&quot;</text>
<text text-anchor="start" x="775.885" y="-1170" font-family="Times New Roman,serif" font-size="10.00">orig = &quot;&quot;</text>
<text text-anchor="start" x="775.885" y="-1156" font-family="Times New Roman,serif" font-size="10.00">copy = &quot;&quot;</text>
<text text-anchor="start" x="775.885" y="-1142" font-family="Times New Roman,serif" font-size="10.00">text = &quot;n8&quot;</text>
<text text-anchor="start" x="775.885" y="-1128" font-family="Times New Roman,serif" font-size="10.00">parent = &quot;&quot;</text>
</g>
<!-- g115&#45;&#45;n131 -->
<g id="edge16" class="edge"><title>g115&#45;&#45;n131</title>
<path fill="none" stroke="black" d="M421.031,-1268.58C502.016,-1262.82 691.788,-1246.63 748.885,-1218 753.713,-1215.58 758.359,-1212.51 762.742,-1209.1"/>
<text text-anchor="middle" x="758.122" y="-1215.46" font-family="Times New Roman,serif" font-size="10.00">nodes</text>
<text text-anchor="middle" x="429.754" y="-1261.19" font-family="Times New Roman,serif" font-size="10.00">graph</text>
</g>
<!-- e132 -->
<g id="node18" class="node"><title>e132</title>
<a xlink:href="../examples/org/sdmlib/examples/helloworld/Edge.java" xlink:title="&lt;TABLE&gt;">
<polygon fill="none" stroke="black" points="714.885,-1058 714.885,-1075 772.885,-1075 772.885,-1058 714.885,-1058"/>
<text text-anchor="start" x="720.885" y="-1064.5" font-family="Times New Roman,serif" font-size="10.00"> </text>
<text text-anchor="start" x="723.885" y="-1064.5" font-family="Times New Roman,serif" font-size="10.00">e132 :Edge</text>
</a>
<polygon fill="none" stroke="black" points="714.885,-1010 714.885,-1058 772.885,-1058 772.885,-1010 714.885,-1010"/>
<text text-anchor="start" x="719.885" y="-1046" font-family="Times New Roman,serif" font-size="10.00">graph = &quot;&quot;</text>
<text text-anchor="start" x="719.885" y="-1032" font-family="Times New Roman,serif" font-size="10.00">name = &quot;&quot;</text>
<text text-anchor="start" x="719.885" y="-1018" font-family="Times New Roman,serif" font-size="10.00">text = &quot;e16&quot;</text>
</g>
<!-- g115&#45;&#45;e132 -->
<g id="edge34" class="edge"><title>g115&#45;&#45;e132</title>
<path fill="none" stroke="black" d="M420.992,-1270.36C498.754,-1268.21 674.999,-1258.83 715.885,-1218 751.93,-1182 752.932,-1119.22 749.228,-1079.73"/>
<text text-anchor="middle" x="754.122" y="-1085.95" font-family="Times New Roman,serif" font-size="10.00">gcs</text>
<text text-anchor="middle" x="429.906" y="-1263.33" font-family="Times New Roman,serif" font-size="10.00">parent</text>
</g>
<!-- e133 -->
<g id="node19" class="node"><title>e133</title>
<a xlink:href="../examples/org/sdmlib/examples/helloworld/Edge.java" xlink:title="&lt;TABLE&gt;">
<polygon fill="none" stroke="black" points="824.885,-1058 824.885,-1075 882.885,-1075 882.885,-1058 824.885,-1058"/>
<text text-anchor="start" x="830.885" y="-1064.5" font-family="Times New Roman,serif" font-size="10.00"> </text>
<text text-anchor="start" x="833.885" y="-1064.5" font-family="Times New Roman,serif" font-size="10.00">e133 :Edge</text>
</a>
<polygon fill="none" stroke="black" points="824.885,-1010 824.885,-1058 882.885,-1058 882.885,-1010 824.885,-1010"/>
<text text-anchor="start" x="829.885" y="-1046" font-family="Times New Roman,serif" font-size="10.00">graph = &quot;&quot;</text>
<text text-anchor="start" x="829.885" y="-1032" font-family="Times New Roman,serif" font-size="10.00">name = &quot;&quot;</text>
<text text-anchor="start" x="829.885" y="-1018" font-family="Times New Roman,serif" font-size="10.00">text = &quot;e17&quot;</text>
</g>
<!-- g115&#45;&#45;e133 -->
<g id="edge36" class="edge"><title>g115&#45;&#45;e133</title>
<path fill="none" stroke="black" d="M421.041,-1269.42C525.316,-1264.62 814.978,-1248.61 843.885,-1218 878.473,-1181.37 872.3,-1118.78 863.755,-1079.5"/>
<text text-anchor="middle" x="869.656" y="-1085.07" font-family="Times New Roman,serif" font-size="10.00">gcs</text>
<text text-anchor="middle" x="429.886" y="-1262.26" font-family="Times New Roman,serif" font-size="10.00">parent</text>
</g>
<!-- n116&#45;&#45;e117 -->
<g id="edge38" class="edge"><title>n116&#45;&#45;e117</title>
<path fill="none" stroke="black" d="M239.934,-1116.38C243.655,-1104.11 247.57,-1091.2 251.046,-1079.74"/>
<text text-anchor="middle" x="252.46" y="-1087.14" font-family="Times New Roman,serif" font-size="10.00">outEdges</text>
<text text-anchor="middle" x="238.52" y="-1103.98" font-family="Times New Roman,serif" font-size="10.00">src</text>
</g>
<!-- n116&#45;&#45;e121 -->
<g id="edge40" class="edge"><title>n116&#45;&#45;e121</title>
<path fill="none" stroke="black" d="M215.871,-1116.25C207.686,-1066.69 196.885,-988.345 196.885,-920 196.885,-920 196.885,-920 196.885,-794 196.885,-719.186 191.744,-631.701 188.491,-583.829"/>
<text text-anchor="middle" x="193.307" y="-590.093" font-family="Times New Roman,serif" font-size="10.00">inEdges</text>
<text text-anchor="middle" x="210.261" y="-1105.47" font-family="Times New Roman,serif" font-size="10.00">tgt</text>
</g>
<!-- e117&#45;&#45;n118 -->
<g id="edge42" class="edge"><title>e117&#45;&#45;n118</title>
<path fill="none" stroke="black" d="M284.363,-1006.38C291.554,-994.991 299.653,-982.159 307.365,-969.94"/>
<text text-anchor="middle" x="306.102" y="-977.36" font-family="Times New Roman,serif" font-size="10.00">tgt</text>
<text text-anchor="middle" x="285.627" y="-993.965" font-family="Times New Roman,serif" font-size="10.00">inEdges</text>
</g>
<!-- n118&#45;&#45;e119 -->
<g id="edge44" class="edge"><title>n118&#45;&#45;e119</title>
<path fill="none" stroke="black" d="M340.105,-868.378C340.407,-856.108 340.724,-843.2 341.006,-831.739"/>
<text text-anchor="middle" x="345.008" y="-838.403" font-family="Times New Roman,serif" font-size="10.00">outEdges</text>
<text text-anchor="middle" x="336.103" y="-856.714" font-family="Times New Roman,serif" font-size="10.00">src</text>
</g>
<!-- e119&#45;&#45;n120 -->
<g id="edge46" class="edge"><title>e119&#45;&#45;n120</title>
<path fill="none" stroke="black" d="M341.885,-758.385C341.885,-746.991 341.885,-734.159 341.885,-721.94"/>
<text text-anchor="middle" x="346.111" y="-728.503" font-family="Times New Roman,serif" font-size="10.00">tgt</text>
<text text-anchor="middle" x="337.658" y="-746.822" font-family="Times New Roman,serif" font-size="10.00">inEdges</text>
</g>
<!-- n120&#45;&#45;e121 -->
<g id="edge48" class="edge"><title>n120&#45;&#45;e121</title>
<path fill="none" stroke="black" d="M305.715,-641.729C284.254,-624.953 256.515,-603.266 231.885,-584 229.009,-581.751 226.033,-579.422 223.04,-577.081"/>
<text text-anchor="middle" x="232.783" y="-576.837" font-family="Times New Roman,serif" font-size="10.00">outEdges</text>
<text text-anchor="middle" x="295.972" y="-636.977" font-family="Times New Roman,serif" font-size="10.00">src</text>
</g>
<!-- n120&#45;&#45;e122 -->
<g id="edge50" class="edge"><title>n120&#45;&#45;e122</title>
<path fill="none" stroke="black" d="M315.853,-620.378C309.416,-608.108 302.646,-595.2 296.633,-583.739"/>
<text text-anchor="middle" x="304.585" y="-587.301" font-family="Times New Roman,serif" font-size="10.00">outEdges</text>
<text text-anchor="middle" x="307.901" y="-611.815" font-family="Times New Roman,serif" font-size="10.00">src</text>
</g>
<!-- n120&#45;&#45;e127 -->
<g id="edge52" class="edge"><title>n120&#45;&#45;e127</title>
<path fill="none" stroke="black" d="M342.207,-620.058C342.499,-570.357 342.885,-491.907 342.885,-424 342.885,-424 342.885,-424 342.885,-298 342.885,-220.475 342.885,-129.587 342.885,-80.6139"/>
<text text-anchor="middle" x="347.111" y="-87.177" font-family="Times New Roman,serif" font-size="10.00">inEdges</text>
<text text-anchor="middle" x="338.032" y="-608.471" font-family="Times New Roman,serif" font-size="10.00">tgt</text>
</g>
<!-- e122&#45;&#45;n123 -->
<g id="edge54" class="edge"><title>e122&#45;&#45;n123</title>
<path fill="none" stroke="black" d="M240.696,-511.366C222.693,-494.6 201.156,-474.543 183.261,-457.877"/>
<text text-anchor="middle" x="192.774" y="-458.461" font-family="Times New Roman,serif" font-size="10.00">tgt</text>
<text text-anchor="middle" x="231.183" y="-505.782" font-family="Times New Roman,serif" font-size="10.00">inEdges</text>
</g>
<!-- n123&#45;&#45;e124 -->
<g id="edge56" class="edge"><title>n123&#45;&#45;e124</title>
<path fill="none" stroke="black" d="M139.563,-372.378C137.753,-360.108 135.849,-347.2 134.158,-335.739"/>
<text text-anchor="middle" x="139.661" y="-341.588" font-family="Times New Roman,serif" font-size="10.00">outEdges</text>
<text text-anchor="middle" x="134.06" y="-361.529" font-family="Times New Roman,serif" font-size="10.00">src</text>
</g>
<!-- e124&#45;&#45;n125 -->
<g id="edge58" class="edge"><title>e124&#45;&#45;n125</title>
<path fill="none" stroke="black" d="M128.885,-262.385C128.885,-250.991 128.885,-238.159 128.885,-225.94"/>
<text text-anchor="middle" x="133.111" y="-232.503" font-family="Times New Roman,serif" font-size="10.00">tgt</text>
<text text-anchor="middle" x="124.658" y="-250.822" font-family="Times New Roman,serif" font-size="10.00">inEdges</text>
</g>
<!-- n125&#45;&#45;e126 -->
<g id="edge60" class="edge"><title>n125&#45;&#45;e126</title>
<path fill="none" stroke="black" d="M102.021,-124.494C95.4665,-112.415 88.5091,-99.5937 82.1389,-87.8543"/>
<text text-anchor="middle" x="90.176" y="-91.3045" font-family="Times New Roman,serif" font-size="10.00">outEdges</text>
<text text-anchor="middle" x="93.9839" y="-116.044" font-family="Times New Roman,serif" font-size="10.00">src</text>
</g>
<!-- n125&#45;&#45;e127 -->
<g id="edge62" class="edge"><title>n125&#45;&#45;e127</title>
<path fill="none" stroke="black" d="M165.187,-152.117C204.3,-128.539 266.227,-91.2096 305.685,-67.424"/>
<text text-anchor="middle" x="300.105" y="-73.2224" font-family="Times New Roman,serif" font-size="10.00">outEdges</text>
<text text-anchor="middle" x="170.767" y="-141.319" font-family="Times New Roman,serif" font-size="10.00">src</text>
</g>
<!-- n125&#45;&#45;e128 -->
<g id="edge64" class="edge"><title>n125&#45;&#45;e128</title>
<path fill="none" stroke="black" d="M165.209,-163.734C216.006,-148.985 310.806,-120.025 388.885,-88 405.564,-81.1587 423.499,-72.5243 438.726,-64.7909"/>
<text text-anchor="middle" x="432.539" y="-70.1471" font-family="Times New Roman,serif" font-size="10.00">inEdges</text>
<text text-anchor="middle" x="172.716" y="-154.627" font-family="Times New Roman,serif" font-size="10.00">tgt</text>
</g>
<!-- n131&#45;&#45;e132 -->
<g id="edge66" class="edge"><title>n131&#45;&#45;e132</title>
<path fill="none" stroke="black" d="M776.514,-1116.38C770.982,-1104.11 765.164,-1091.2 759.996,-1079.74"/>
<text text-anchor="middle" x="767.574" y="-1083.76" font-family="Times New Roman,serif" font-size="10.00">outEdges_inEdges</text>
<text text-anchor="middle" x="768.936" y="-1107.35" font-family="Times New Roman,serif" font-size="10.00">src_tgt</text>
</g>
<!-- n131&#45;&#45;e133 -->
<g id="edge68" class="edge"><title>n131&#45;&#45;e133</title>
<path fill="none" stroke="black" d="M821.255,-1116.38C826.787,-1104.11 832.606,-1091.2 837.773,-1079.74"/>
<text text-anchor="middle" x="837.901" y="-1087.24" font-family="Times New Roman,serif" font-size="10.00">outEdges_inEdges</text>
<text text-anchor="middle" x="821.127" y="-1103.88" font-family="Times New Roman,serif" font-size="10.00">src_tgt</text>
</g>
</g>
</svg>
