<?xml version="1.0" encoding="UTF-8" standalone="no"?>
<!DOCTYPE svg PUBLIC "-//W3C//DTD SVG 1.1//EN"
 "http://www.w3.org/Graphics/SVG/1.1/DTD/svg11.dtd">
<!-- Generated by graphviz version 2.28.0 (20110507.0327)
 -->
<!-- Title: ClassDiagram Pages: 1 -->
<svg width="116pt" height="380pt"
 viewBox="0.00 0.00 115.94 380.00" xmlns="http://www.w3.org/2000/svg" xmlns:xlink="http://www.w3.org/1999/xlink">
<g id="graph1" class="graph" transform="scale(1 1) rotate(0) translate(4 376)">
<title>ClassDiagram</title>
<polygon fill="white" stroke="white" points="-4,5 -4,-376 112.937,-376 112.937,5 -4,5"/>
<!-- _GraphComponent -->
<g id="node1" class="node"><title>_GraphComponent</title>
<a xlink:href="../src/GraphComponent.java" xlink:title="&lt;TABLE&gt;">
<polygon fill="none" stroke="black" points="21.937,-248 21.937,-265 99.937,-265 99.937,-248 21.937,-248"/>
<text text-anchor="start" x="25.437" y="-254.5" font-family="Times New Roman,serif" font-size="10.00">GraphComponent</text>
</a>
<polygon fill="none" stroke="black" points="21.937,-228 21.937,-248 99.937,-248 99.937,-228 21.937,-228"/>
<text text-anchor="start" x="26.937" y="-236" font-family="Times New Roman,serif" font-size="10.00">text :String</text>
<polygon fill="none" stroke="black" points="21.937,-208 21.937,-228 99.937,-228 99.937,-208 21.937,-208"/>
<text text-anchor="start" x="59.437" y="-216" font-family="Times New Roman,serif" font-size="10.00"> </text>
</g>
<!-- _Edge -->
<g id="node2" class="node"><title>_Edge</title>
<a xlink:href="../src/Edge.java" xlink:title="&lt;TABLE&gt;">
<polygon fill="none" stroke="black" points="19.937,-146 19.937,-163 47.937,-163 47.937,-146 19.937,-146"/>
<text text-anchor="start" x="23.437" y="-152.5" font-family="Times New Roman,serif" font-size="10.00">Edge</text>
</a>
<polygon fill="none" stroke="black" points="19.937,-126 19.937,-146 47.937,-146 47.937,-126 19.937,-126"/>
<text text-anchor="start" x="32.437" y="-134" font-family="Times New Roman,serif" font-size="10.00"> </text>
<polygon fill="none" stroke="black" points="19.937,-106 19.937,-126 47.937,-126 47.937,-106 19.937,-106"/>
<text text-anchor="start" x="32.437" y="-114" font-family="Times New Roman,serif" font-size="10.00"> </text>
</g>
<!-- _GraphComponent&#45;&gt;_Edge -->
<g id="edge2" class="edge"><title>_GraphComponent&#45;&gt;_Edge</title>
<path fill="none" stroke="black" d="M49.7318,-194.499C47.3209,-185.57 44.8094,-176.268 42.5171,-167.778"/>
<polygon fill="none" stroke="black" points="46.4083,-195.617 52.394,-204.359 53.1663,-193.793 46.4083,-195.617"/>
</g>
<!-- _Node -->
<g id="node3" class="node"><title>_Node</title>
<a xlink:href="../src/Node.java" xlink:title="&lt;TABLE&gt;">
<polygon fill="none" stroke="black" points="19.937,-44 19.937,-61 48.937,-61 48.937,-44 19.937,-44"/>
<text text-anchor="start" x="23.437" y="-50.5" font-family="Times New Roman,serif" font-size="10.00">Node</text>
</a>
<polygon fill="none" stroke="black" points="19.937,-24 19.937,-44 48.937,-44 48.937,-24 19.937,-24"/>
<text text-anchor="start" x="32.937" y="-32" font-family="Times New Roman,serif" font-size="10.00"> </text>
<polygon fill="none" stroke="black" points="19.937,-4 19.937,-24 48.937,-24 48.937,-4 19.937,-4"/>
<text text-anchor="start" x="32.937" y="-12" font-family="Times New Roman,serif" font-size="10.00"> </text>
</g>
<!-- _GraphComponent&#45;&gt;_Node -->
<g id="edge4" class="edge"><title>_GraphComponent&#45;&gt;_Node</title>
<path fill="none" stroke="black" d="M70.2772,-194.215C74.6601,-167.482 77.4541,-132.265 69.937,-102 66.8137,-89.4249 60.8887,-76.6166 54.7337,-65.5573"/>
<polygon fill="none" stroke="black" points="66.7743,-193.923 68.4682,-204.381 73.6661,-195.149 66.7743,-193.923"/>
</g>
<!-- _Edge&#45;&gt;_Node -->
<g id="edge8" class="edge"><title>_Edge&#45;&gt;_Node</title>
<path fill="none" stroke="black" d="M27.6089,-102.359C27.0486,-90.6864 27.0464,-77.4631 27.6023,-65.778"/>
<text text-anchor="middle" x="31.4419" y="-72.5115" font-family="Times New Roman,serif" font-size="10.00">src</text>
<text text-anchor="middle" x="23" y="-90.9848" font-family="Times New Roman,serif" font-size="10.00">outEdges *</text>
</g>
<!-- _Edge&#45;&gt;_Node -->
<g id="edge10" class="edge"><title>_Edge&#45;&gt;_Node</title>
<path fill="none" stroke="black" d="M40.2651,-102.359C40.8254,-90.6864 40.8276,-77.4631 40.2717,-65.778"/>
<text text-anchor="middle" x="44.877" y="-72.1545" font-family="Times New Roman,serif" font-size="10.00">tgt</text>
<text text-anchor="middle" x="36.4293" y="-90.6243" font-family="Times New Roman,serif" font-size="10.00">inEdges *</text>
</g>
<!-- _Graph -->
<g id="node4" class="node"><title>_Graph</title>
<a xlink:href="../src/Graph.java" xlink:title="&lt;TABLE&gt;">
<polygon fill="none" stroke="black" points="44.937,-350 44.937,-367 76.937,-367 76.937,-350 44.937,-350"/>
<text text-anchor="start" x="48.437" y="-356.5" font-family="Times New Roman,serif" font-size="10.00">Graph</text>
</a>
<polygon fill="none" stroke="black" points="44.937,-330 44.937,-350 76.937,-350 76.937,-330 44.937,-330"/>
<text text-anchor="start" x="59.437" y="-338" font-family="Times New Roman,serif" font-size="10.00"> </text>
<polygon fill="none" stroke="black" points="44.937,-310 44.937,-330 76.937,-330 76.937,-310 44.937,-310"/>
<text text-anchor="start" x="59.437" y="-318" font-family="Times New Roman,serif" font-size="10.00"> </text>
</g>
<!-- _Graph&#45;&gt;_GraphComponent -->
<g id="edge6" class="edge"><title>_Graph&#45;&gt;_GraphComponent</title>
<path fill="none" stroke="black" d="M60.937,-306.359C60.937,-294.686 60.937,-281.463 60.937,-269.778"/>
<text text-anchor="middle" x="65.1632" y="-276.341" font-family="Times New Roman,serif" font-size="10.00">gcs *</text>
<text text-anchor="middle" x="56.7108" y="-294.796" font-family="Times New Roman,serif" font-size="10.00">parent</text>
</g>
</g>
</svg>
