<?xml version="1.0" encoding="UTF-8" standalone="no"?>
<!DOCTYPE svg PUBLIC "-//W3C//DTD SVG 1.1//EN"
 "http://www.w3.org/Graphics/SVG/1.1/DTD/svg11.dtd">
<!-- Generated by graphviz version 2.26.3 (20100126.1600)
 -->
<!-- Title: ObjectDiagram Pages: 1 -->
<svg width="306pt" height="126pt"
 viewBox="0.00 0.00 306.00 126.00" xmlns="http://www.w3.org/2000/svg" xmlns:xlink="http://www.w3.org/1999/xlink">
<g id="graph1" class="graph" transform="scale(1 1) rotate(0) translate(4 122)">
<title>ObjectDiagram</title>
<polygon fill="white" stroke="white" points="-4,5 -4,-122 303,-122 303,5 -4,5"/>
<!-- g4 -->
<g id="node1" class="node"><title>g4</title>
<polygon fill="none" stroke="black" points="108,-91 108,-108 179,-108 179,-91 108,-91"/>
<text text-anchor="start" x="111.5" y="-97.1667" font-family="Times Roman,serif" font-size="10.00"> </text>
<text text-anchor="start" x="115.5" y="-97.1667" font-family="Times Roman,serif" font-size="10.00">g4 :Greeting</text>
</g>
<!-- g5 -->
<g id="node2" class="node"><title>g5</title>
<polygon fill="none" stroke="black" points="8,-24 8,-41 121,-41 121,-24 8,-24"/>
<text text-anchor="start" x="11.5" y="-30.1667" font-family="Times Roman,serif" font-size="10.00"> </text>
<text text-anchor="start" x="15.5" y="-30.1667" font-family="Times Roman,serif" font-size="10.00">g5 :GreetingMessage</text>
<polygon fill="none" stroke="black" points="8,-4 8,-24 121,-24 121,-4 8,-4"/>
<text text-anchor="start" x="32" y="-11.6667" font-family="Times Roman,serif" font-size="10.00">text = &quot;Hello&quot;</text>
</g>
<!-- g4&#45;&#45;g5 -->
<g id="edge2" class="edge"><title>g4&#45;&#45;g5</title>
<path fill="none" stroke="black" d="M124.278,-81.7521C113.145,-70.9008 98.9332,-57.0488 87.1056,-45.5207"/>
<text text-anchor="middle" x="96.5456" y="-45.8201" font-family="Times Roman,serif" font-size="10.00">greetingMessage</text>
<text text-anchor="middle" x="114.838" y="-75.4526" font-family="Times Roman,serif" font-size="10.00">greeting</text>
</g>
<!-- p6 -->
<g id="node3" class="node"><title>p6</title>
<polygon fill="none" stroke="black" points="154,-24 154,-41 290,-41 290,-24 154,-24"/>
<text text-anchor="start" x="194.5" y="-30.1667" font-family="Times Roman,serif" font-size="10.00"> </text>
<text text-anchor="start" x="198.5" y="-30.1667" font-family="Times Roman,serif" font-size="10.00">p6 :Person</text>
<polygon fill="none" stroke="black" points="154,-4 154,-24 290,-24 290,-4 154,-4"/>
<text text-anchor="start" x="159.5" y="-11.6667" font-family="Times Roman,serif" font-size="10.00">name = &quot;TTC Participants&quot;</text>
</g>
<!-- g4&#45;&#45;p6 -->
<g id="edge4" class="edge"><title>g4&#45;&#45;p6</title>
<path fill="none" stroke="black" d="M161.722,-81.7521C172.855,-70.9008 187.067,-57.0488 198.894,-45.5207"/>
<text text-anchor="middle" x="195.354" y="-51.873" font-family="Times Roman,serif" font-size="10.00">person</text>
<text text-anchor="middle" x="165.262" y="-69.3998" font-family="Times Roman,serif" font-size="10.00">greeting</text>
</g>
</g>
</svg>
