<?xml version="1.0" encoding="UTF-8" standalone="no"?>
<!DOCTYPE svg PUBLIC "-//W3C//DTD SVG 1.1//EN"
 "http://www.w3.org/Graphics/SVG/1.1/DTD/svg11.dtd">
<!-- Generated by graphviz version 2.28.0 (20110507.0327)
 -->
<!-- Title: ObjectDiagram Pages: 1 -->
<svg width="132pt" height="246pt"
 viewBox="0.00 0.00 132.00 246.00" xmlns="http://www.w3.org/2000/svg" xmlns:xlink="http://www.w3.org/1999/xlink">
<g id="graph1" class="graph" transform="scale(1 1) rotate(0) translate(4 242)">
<title>ObjectDiagram</title>
<polygon fill="white" stroke="white" points="-4,5 -4,-242 129,-242 129,5 -4,5"/>
<!-- g1 -->
<g id="node1" class="node"><title>g1</title>
<polygon fill="deepskyblue" stroke="deepskyblue" points="8,-182.5 8,-233.5 116,-233.5 116,-182.5 8,-182.5"/>
<text text-anchor="start" x="77" y="-223.5" font-family="Arial" font-size="10.00">«bound»</text>
<polygon fill="none" stroke="black" points="8,-202 8,-218 116,-218 116,-202 8,-202"/>
<text text-anchor="start" x="11.5" y="-208" font-family="Arial" font-size="10.00"> </text>
<text text-anchor="start" x="15.5" y="-208" font-family="Arial" font-size="10.00"> g1 :GenericGraphPO </text>
<polygon fill="none" stroke="black" points="8,-182 8,-202 116,-202 116,-182 8,-182"/>
<text text-anchor="start" x="58.5" y="-190" font-family="Arial" font-size="10.00"> &#160;</text>
</g>
<!-- g2 -->
<g id="node2" class="node"><title>g2</title>
<polygon fill="deepskyblue" stroke="deepskyblue" points="16,-100.5 16,-137.5 108,-137.5 108,-100.5 16,-100.5"/>
<polygon fill="none" stroke="black" points="16,-120 16,-137 108,-137 108,-120 16,-120"/>
<text text-anchor="start" x="19.5" y="-126.5" font-family="Arial" font-size="10.00"> </text>
<text text-anchor="start" x="23.5" y="-126.5" font-family="Arial" font-size="10.00"> g2 :GenericObjectPO </text>
<polygon fill="none" stroke="black" points="16,-100 16,-120 108,-120 108,-100 16,-100"/>
<text text-anchor="start" x="58.5" y="-108" font-family="Arial" font-size="10.00"> &#160;</text>
</g>
<!-- g1&#45;&#45;g2 -->
<g id="edge2" class="edge"><title>g1&#45;&#45;g2</title>
<path fill="none" stroke="black" d="M62,-178.03C62,-166.167 62,-152.675 62,-141.687"/>
<text text-anchor="middle" x="66.2262" y="-148.25" font-family="Arial" font-size="10.00">objects</text>
</g>
<!-- g3 -->
<g id="node3" class="node"><title>g3</title>
<polygon fill="deepskyblue" stroke="deepskyblue" points="12.5,-4.5 12.5,-55.5 111.5,-55.5 111.5,-4.5 12.5,-4.5"/>
<polygon fill="none" stroke="black" points="13,-38 13,-55 112,-55 112,-38 13,-38"/>
<text text-anchor="start" x="16.5" y="-44.5" font-family="Arial" font-size="10.00"> </text>
<text text-anchor="start" x="20.5" y="-44.5" font-family="Arial" font-size="10.00"> g3 :GenericAttributePO </text>
<polygon fill="none" stroke="black" points="13,-4 13,-38 112,-38 112,-4 13,-4"/>
<text text-anchor="start" x="30.5" y="-26" font-family="Arial" font-size="10.00"> name == &quot;name&quot; </text>
<text text-anchor="start" x="35" y="-12" font-family="Arial" font-size="10.00" fill="green"> name := &quot;text&quot; </text>
</g>
<!-- g2&#45;&#45;g3 -->
<g id="edge4" class="edge"><title>g2&#45;&#45;g3</title>
<path fill="none" stroke="black" d="M62,-96.4944C62,-85.4243 62,-71.7752 62,-59.8074"/>
<text text-anchor="middle" x="66.2262" y="-66.3705" font-family="Arial" font-size="10.00">attrs</text>
</g>
</g>
</svg>
