<?xml version="1.0" encoding="UTF-8" standalone="no"?>
<!DOCTYPE svg PUBLIC "-//W3C//DTD SVG 1.1//EN"
 "http://www.w3.org/Graphics/SVG/1.1/DTD/svg11.dtd">
<!-- Generated by graphviz version 2.28.0 (20110507.0327)
 -->
<!-- Title: ObjectDiagram Pages: 1 -->
<svg width="299pt" height="259pt"
 viewBox="0.00 0.00 299.00 259.00" xmlns="http://www.w3.org/2000/svg" xmlns:xlink="http://www.w3.org/1999/xlink">
<g id="graph1" class="graph" transform="scale(1 1) rotate(0) translate(4 255)">
<title>ObjectDiagram</title>
<polygon fill="white" stroke="white" points="-4,5 -4,-255 296,-255 296,5 -4,5"/>
<g id="graph2" class="cluster"><title>cluster_n3</title>
<polygon fill="none" stroke="grey" points="74,-8 74,-101 283,-101 283,-8 74,-8"/>
<text text-anchor="start" x="158.5" y="-81.8" font-family="Times New Roman,serif" font-size="14.00">NAC n3</text>
</g>
<!-- g1 -->
<g id="node1" class="node"><title>g1</title>
<polygon fill="deepskyblue" stroke="deepskyblue" points="88.5,-195.5 88.5,-246.5 163.5,-246.5 163.5,-195.5 88.5,-195.5"/>
<text text-anchor="start" x="125" y="-236.5" font-family="Arial" font-size="10.00">«bound»</text>
<polygon fill="none" stroke="black" points="89,-215 89,-231 164,-231 164,-215 89,-215"/>
<text text-anchor="start" x="92.5" y="-221" font-family="Arial" font-size="10.00"> </text>
<text text-anchor="start" x="96.5" y="-221" font-family="Arial" font-size="10.00"> g1 :GraphPO </text>
<polygon fill="none" stroke="black" points="89,-195 89,-215 164,-215 164,-195 89,-195"/>
<text text-anchor="start" x="123" y="-203" font-family="Arial" font-size="10.00"> &#160;</text>
</g>
<!-- e2 -->
<g id="node2" class="node"><title>e2</title>
<polygon fill="deepskyblue" stroke="deepskyblue" points="90.5,-113.5 90.5,-150.5 161.5,-150.5 161.5,-113.5 90.5,-113.5"/>
<polygon fill="none" stroke="black" points="91,-133 91,-150 162,-150 162,-133 91,-133"/>
<text text-anchor="start" x="94.5" y="-139.5" font-family="Arial" font-size="10.00"> </text>
<text text-anchor="start" x="98.5" y="-139.5" font-family="Arial" font-size="10.00"> e2 :EdgePO </text>
<polygon fill="none" stroke="black" points="91,-113 91,-133 162,-133 162,-113 91,-113"/>
<text text-anchor="start" x="123" y="-121" font-family="Arial" font-size="10.00"> &#160;</text>
</g>
<!-- g1&#45;&#45;e2 -->
<g id="edge5" class="edge"><title>g1&#45;&#45;e2</title>
<path fill="none" stroke="black" d="M126,-191.03C126,-179.167 126,-165.675 126,-154.687"/>
<text text-anchor="middle" x="130.226" y="-161.25" font-family="Arial" font-size="10.00">edges</text>
</g>
<!-- allMatches_e2 -->
<g id="node3" class="node"><title>allMatches_e2</title>
<text text-anchor="middle" x="32" y="-36.5" font-family="Arial" font-size="10.00">allMatches</text>
</g>
<!-- e2&#45;&#45;allMatches_e2 -->
<g id="edge3" class="edge"><title>e2&#45;&#45;allMatches_e2</title>
<path fill="none" stroke="black" stroke-dasharray="1,5" d="M82.5345,-110.748C78.0649,-107.798 73.7833,-104.544 70,-101 56.7053,-88.5464 46.2151,-70.4571 39.6547,-57.2109"/>
</g>
<!-- n4 -->
<g id="node5" class="node"><title>n4</title>
<polygon fill="deepskyblue" stroke="deepskyblue" points="195.5,-20.5 195.5,-57.5 266.5,-57.5 266.5,-20.5 195.5,-20.5"/>
<polygon fill="none" stroke="black" points="196,-40 196,-57 267,-57 267,-40 196,-40"/>
<text text-anchor="start" x="199.5" y="-46.5" font-family="Arial" font-size="10.00"> </text>
<text text-anchor="start" x="203.5" y="-46.5" font-family="Arial" font-size="10.00"> n4 :NodePO </text>
<polygon fill="none" stroke="black" points="196,-20 196,-40 267,-40 267,-20 196,-20"/>
<text text-anchor="start" x="228" y="-28" font-family="Arial" font-size="10.00"> &#160;</text>
</g>
<!-- e2&#45;&#45;n4 -->
<g id="edge7" class="edge"><title>e2&#45;&#45;n4</title>
<path fill="none" stroke="black" d="M166.639,-109.355C170.603,-106.717 174.461,-103.917 178,-101 191.965,-89.4889 205.314,-74.0897 215.121,-61.6437"/>
<text text-anchor="middle" x="212.77" y="-68.8634" font-family="Arial" font-size="10.00">tgt</text>
</g>
<!-- n5 -->
<g id="node6" class="node"><title>n5</title>
<polygon fill="deepskyblue" stroke="deepskyblue" points="90.5,-20.5 90.5,-57.5 161.5,-57.5 161.5,-20.5 90.5,-20.5"/>
<polygon fill="none" stroke="black" points="91,-40 91,-57 162,-57 162,-40 91,-40"/>
<text text-anchor="start" x="94.5" y="-46.5" font-family="Arial" font-size="10.00"> </text>
<text text-anchor="start" x="98.5" y="-46.5" font-family="Arial" font-size="10.00"> n5 :NodePO </text>
<polygon fill="none" stroke="black" points="91,-20 91,-40 162,-40 162,-20 91,-20"/>
<text text-anchor="start" x="123" y="-28" font-family="Arial" font-size="10.00"> &#160;</text>
</g>
<!-- e2&#45;&#45;n5 -->
<g id="edge9" class="edge"><title>e2&#45;&#45;n5</title>
<path fill="none" stroke="black" d="M126,-109.434C126,-95.0333 126,-76.1604 126,-61.7263"/>
<text text-anchor="middle" x="130.226" y="-68.2894" font-family="Arial" font-size="10.00">src</text>
</g>
</g>
</svg>
