<?xml version="1.0" encoding="UTF-8" standalone="no"?>
<!DOCTYPE svg PUBLIC "-//W3C//DTD SVG 1.1//EN"
 "http://www.w3.org/Graphics/SVG/1.1/DTD/svg11.dtd">
<!-- Generated by graphviz version 2.28.0 (20110507.0327)
 -->
<!-- Title: ObjectDiagram Pages: 1 -->
<svg width="1146pt" height="970pt"
 viewBox="0.00 0.00 1146.00 970.00" xmlns="http://www.w3.org/2000/svg" xmlns:xlink="http://www.w3.org/1999/xlink">
<g id="graph1" class="graph" transform="scale(1 1) rotate(0) translate(4 966)">
<title>ObjectDiagram</title>
<polygon fill="white" stroke="white" points="-4,5 -4,-966 1143,-966 1143,5 -4,5"/>
<!-- g1 -->
<g id="node1" class="node"><title>g1</title>
<polygon fill="deepskyblue" stroke="deepskyblue" points="597.5,-906.5 597.5,-957.5 672.5,-957.5 672.5,-906.5 597.5,-906.5"/>
<text text-anchor="start" x="634" y="-947.5" font-family="Arial" font-size="10.00">«bound»</text>
<polygon fill="none" stroke="black" points="598,-926 598,-942 673,-942 673,-926 598,-926"/>
<text text-anchor="start" x="601.5" y="-932" font-family="Arial" font-size="10.00"> </text>
<text text-anchor="start" x="605.5" y="-932" font-family="Arial" font-size="10.00"> g1 :GraphPO </text>
<polygon fill="none" stroke="black" points="598,-906 598,-926 673,-926 673,-906 598,-906"/>
<text text-anchor="start" x="632" y="-914" font-family="Arial" font-size="10.00"> &#160;</text>
</g>
<!-- n2 -->
<g id="node2" class="node"><title>n2</title>
<polygon fill="deepskyblue" stroke="deepskyblue" points="891,-824.5 891,-861.5 945,-861.5 945,-824.5 891,-824.5"/>
<polygon fill="none" stroke="black" points="891,-844 891,-861 945,-861 945,-844 891,-844"/>
<text text-anchor="start" x="894.5" y="-850.5" font-family="Arial" font-size="10.00"> </text>
<text text-anchor="start" x="898.5" y="-850.5" font-family="Arial" font-size="10.00"> n2 :NodePO </text>
<polygon fill="none" stroke="black" points="891,-824 891,-844 945,-844 945,-824 891,-824"/>
<text text-anchor="start" x="914.5" y="-832" font-family="Arial" font-size="10.00"> &#160;</text>
</g>
<!-- g1&#45;&#45;n2 -->
<g id="edge22" class="edge"><title>g1&#45;&#45;n2</title>
<path fill="none" stroke="black" d="M680.469,-917.022C736.873,-899.682 831.824,-870.492 882.924,-854.783"/>
<text text-anchor="middle" x="875.503" y="-858.986" font-family="Arial" font-size="10.00">nodes</text>
</g>
<!-- g3 -->
<g id="node4" class="node"><title>g3</title>
<a xlink:href="../../SDMLib/src/org/sdmlib/examples/helloworld/model/Graph.java" xlink:title="&lt;TABLE&gt;">
<polygon fill="none" stroke="black" points="325,-834 325,-851 379,-851 379,-834 325,-834"/>
<text text-anchor="start" x="328.5" y="-840.5" font-family="Arial" font-size="10.00"> </text>
<text text-anchor="start" x="332.5" y="-840.5" font-family="Arial" font-size="10.00">g3 :Graph</text>
</a>
</g>
<!-- g1&#45;&#45;g3 -->
<g id="edge2" class="edge"><title>g1&#45;&#45;g3</title>
<path fill="none" stroke="black" stroke-dasharray="1,5" d="M589.531,-917.022C533.127,-899.682 438.176,-870.492 387.076,-854.783"/>
<text text-anchor="middle" x="396.981" y="-850.907" font-family="Arial" font-size="10.00">match</text>
</g>
<!-- allMatches_n2 -->
<g id="node3" class="node"><title>allMatches_n2</title>
<text text-anchor="middle" x="964" y="-758.5" font-family="Arial" font-size="10.00">allMatches</text>
</g>
<!-- n2&#45;&#45;allMatches_n2 -->
<g id="edge4" class="edge"><title>n2&#45;&#45;allMatches_n2</title>
<path fill="none" stroke="black" stroke-dasharray="1,5" d="M930.57,-820.14C938.018,-807.186 947.318,-791.013 954.216,-779.015"/>
</g>
<!-- n4 -->
<g id="node5" class="node"><title>n4</title>
<a xlink:href="../../SDMLib/src/org/sdmlib/examples/helloworld/model/Node.java" xlink:title="&lt;TABLE&gt;">
<polygon fill="none" stroke="black" points="840,-762 840,-779 906,-779 906,-762 840,-762"/>
<text text-anchor="start" x="851" y="-768.5" font-family="Arial" font-size="10.00"> </text>
<text text-anchor="start" x="855" y="-768.5" font-family="Arial" font-size="10.00">n4 :Node</text>
</a>
<polygon fill="none" stroke="black" points="840,-742 840,-762 906,-762 906,-742 840,-742"/>
<text text-anchor="start" x="845" y="-750" font-family="Arial" font-size="10.00">name = &quot;n1&quot;</text>
</g>
<!-- n2&#45;&#45;n4 -->
<g id="edge6" class="edge"><title>n2&#45;&#45;n4</title>
<path fill="none" stroke="black" stroke-dasharray="1,5" d="M905.704,-820.14C899.302,-808.759 891.502,-794.893 885.126,-783.557"/>
<text text-anchor="middle" x="893.252" y="-786.884" font-family="Arial" font-size="10.00">candidate</text>
</g>
<!-- n5 -->
<g id="node7" class="node"><title>n5</title>
<a xlink:href="../../SDMLib/src/org/sdmlib/examples/helloworld/model/Node.java" xlink:title="&lt;TABLE&gt;">
<polygon fill="none" stroke="black" points="548,-598 548,-615 614,-615 614,-598 548,-598"/>
<text text-anchor="start" x="559" y="-604.5" font-family="Arial" font-size="10.00"> </text>
<text text-anchor="start" x="563" y="-604.5" font-family="Arial" font-size="10.00">n5 :Node</text>
</a>
<polygon fill="none" stroke="black" points="548,-578 548,-598 614,-598 614,-578 548,-578"/>
<text text-anchor="start" x="553" y="-586" font-family="Arial" font-size="10.00">name = &quot;n2&quot;</text>
</g>
<!-- n2&#45;&#45;n5 -->
<g id="edge8" class="edge"><title>n2&#45;&#45;n5</title>
<path fill="none" stroke="black" stroke-dasharray="1,5" d="M953.277,-828.365C972.286,-818.986 994.036,-804.486 1005,-784 1014.65,-765.975 1016.98,-754.568 1005,-738 914.963,-613.453 710.098,-597.847 622.25,-597.145"/>
<text text-anchor="middle" x="631.418" y="-590.65" font-family="Arial" font-size="10.00">candidate</text>
</g>
<!-- n6 -->
<g id="node9" class="node"><title>n6</title>
<a xlink:href="../../SDMLib/src/org/sdmlib/examples/helloworld/model/Node.java" xlink:title="&lt;TABLE&gt;">
<polygon fill="none" stroke="black" points="236,-434 236,-451 302,-451 302,-434 236,-434"/>
<text text-anchor="start" x="247" y="-440.5" font-family="Arial" font-size="10.00"> </text>
<text text-anchor="start" x="251" y="-440.5" font-family="Arial" font-size="10.00">n6 :Node</text>
</a>
<polygon fill="none" stroke="black" points="236,-414 236,-434 302,-434 302,-414 236,-414"/>
<text text-anchor="start" x="241" y="-422" font-family="Arial" font-size="10.00">name = &quot;n3&quot;</text>
</g>
<!-- n2&#45;&#45;n6 -->
<g id="edge10" class="edge"><title>n2&#45;&#45;n6</title>
<path fill="none" stroke="black" stroke-dasharray="1,5" d="M953.044,-833.071C977.64,-824.773 1008.76,-809.715 1024,-784 1057.06,-728.222 1007.92,-692.01 954,-656 738.278,-511.939 422.226,-455.563 310.215,-439.373"/>
<text text-anchor="middle" x="319.818" y="-434.085" font-family="Arial" font-size="10.00">candidate</text>
</g>
<!-- n7 -->
<g id="node12" class="node"><title>n7</title>
<a xlink:href="../../SDMLib/src/org/sdmlib/examples/helloworld/model/Node.java" xlink:title="&lt;TABLE&gt;">
<polygon fill="none" stroke="black" points="172,-270 172,-287 238,-287 238,-270 172,-270"/>
<text text-anchor="start" x="183" y="-276.5" font-family="Arial" font-size="10.00"> </text>
<text text-anchor="start" x="187" y="-276.5" font-family="Arial" font-size="10.00">n7 :Node</text>
</a>
<polygon fill="none" stroke="black" points="172,-250 172,-270 238,-270 238,-250 172,-250"/>
<text text-anchor="start" x="177" y="-258" font-family="Arial" font-size="10.00">name = &quot;n4&quot;</text>
</g>
<!-- n2&#45;&#45;n7 -->
<g id="edge12" class="edge"><title>n2&#45;&#45;n7</title>
<path fill="none" stroke="black" stroke-dasharray="1,5" d="M953.043,-832.591C980.483,-823.763 1018.2,-808.236 1044,-784 1082.26,-748.058 1100,-732.497 1100,-680 1100,-680 1100,-680 1100,-596 1100,-486.374 1039.82,-450.63 938,-410 658.393,-298.423 562.806,-366.021 271,-292 262.922,-289.951 254.404,-287.408 246.27,-284.787"/>
<text text-anchor="middle" x="256.189" y="-281.021" font-family="Arial" font-size="10.00">candidate</text>
</g>
<!-- n8 -->
<g id="node14" class="node"><title>n8</title>
<a xlink:href="../../SDMLib/src/org/sdmlib/examples/helloworld/model/Node.java" xlink:title="&lt;TABLE&gt;">
<polygon fill="none" stroke="black" points="148,-106 148,-123 214,-123 214,-106 148,-106"/>
<text text-anchor="start" x="159" y="-112.5" font-family="Arial" font-size="10.00"> </text>
<text text-anchor="start" x="163" y="-112.5" font-family="Arial" font-size="10.00">n8 :Node</text>
</a>
<polygon fill="none" stroke="black" points="148,-86 148,-106 214,-106 214,-86 148,-86"/>
<text text-anchor="start" x="153" y="-94" font-family="Arial" font-size="10.00">name = &quot;n5&quot;</text>
</g>
<!-- n2&#45;&#45;n8 -->
<g id="edge14" class="edge"><title>n2&#45;&#45;n8</title>
<path fill="none" stroke="black" stroke-dasharray="1,5" d="M953.21,-836.812C988.691,-830.017 1043.31,-815.092 1080,-784 1120.38,-749.786 1138,-732.924 1138,-680 1138,-680 1138,-680 1138,-432 1138,-382.854 405.297,-170.12 222.121,-117.704"/>
<text text-anchor="middle" x="232" y="-113.652" font-family="Arial" font-size="10.00">candidate</text>
</g>
<!-- n9 -->
<g id="node18" class="node"><title>n9</title>
<a xlink:href="../../SDMLib/src/org/sdmlib/examples/helloworld/model/Node.java" xlink:title="&lt;TABLE&gt;">
<polygon fill="none" stroke="black" points="640,-762 640,-779 706,-779 706,-762 640,-762"/>
<text text-anchor="start" x="651" y="-768.5" font-family="Arial" font-size="10.00"> </text>
<text text-anchor="start" x="655" y="-768.5" font-family="Arial" font-size="10.00">n9 :Node</text>
</a>
<polygon fill="none" stroke="black" points="640,-742 640,-762 706,-762 706,-742 640,-742"/>
<text text-anchor="start" x="645" y="-750" font-family="Arial" font-size="10.00">name = &quot;n6&quot;</text>
</g>
<!-- n2&#45;&#45;n9 -->
<g id="edge16" class="edge"><title>n2&#45;&#45;n9</title>
<path fill="none" stroke="black" stroke-dasharray="1,5" d="M882.694,-832.932C843.297,-822.482 777.874,-804.143 723,-784 720.062,-782.922 717.051,-781.756 714.034,-780.543"/>
<text text-anchor="middle" x="724.018" y="-777.489" font-family="Arial" font-size="10.00">candidate</text>
</g>
<!-- n10 -->
<g id="node19" class="node"><title>n10</title>
<a xlink:href="../../SDMLib/src/org/sdmlib/examples/helloworld/model/Node.java" xlink:title="&lt;TABLE&gt;">
<polygon fill="none" stroke="black" points="740,-762 740,-779 806,-779 806,-762 740,-762"/>
<text text-anchor="start" x="748.5" y="-768.5" font-family="Arial" font-size="10.00"> </text>
<text text-anchor="start" x="752.5" y="-768.5" font-family="Arial" font-size="10.00">n10 :Node</text>
</a>
<polygon fill="none" stroke="black" points="740,-742 740,-762 806,-762 806,-742 740,-742"/>
<text text-anchor="start" x="745" y="-750" font-family="Arial" font-size="10.00">name = &quot;n7&quot;</text>
</g>
<!-- n2&#45;&#45;n10 -->
<g id="edge18" class="edge"><title>n2&#45;&#45;n10</title>
<path fill="none" stroke="black" stroke-dasharray="1,5" d="M882.9,-822.634C861.527,-810.842 834.183,-795.756 812.117,-783.582"/>
<text text-anchor="middle" x="822.094" y="-781.759" font-family="Arial" font-size="10.00">candidate</text>
</g>
<!-- n11 -->
<g id="node20" class="node"><title>n11</title>
<a xlink:href="../../SDMLib/src/org/sdmlib/examples/helloworld/model/Node.java" xlink:title="&lt;TABLE&gt;">
<polygon fill="none" stroke="black" points="464,-762 464,-779 530,-779 530,-762 464,-762"/>
<text text-anchor="start" x="472.5" y="-768.5" font-family="Arial" font-size="10.00"> </text>
<text text-anchor="start" x="476.5" y="-768.5" font-family="Arial" font-size="10.00">n11 :Node</text>
</a>
<polygon fill="none" stroke="black" points="464,-742 464,-762 530,-762 530,-742 464,-742"/>
<text text-anchor="start" x="469" y="-750" font-family="Arial" font-size="10.00">name = &quot;n8&quot;</text>
</g>
<!-- n2&#45;&#45;n11 -->
<g id="edge20" class="edge"><title>n2&#45;&#45;n11</title>
<path fill="none" stroke="black" stroke-dasharray="1,5" d="M882.83,-835.317C805.46,-820.615 620.822,-785.529 538.198,-769.829"/>
<text text-anchor="middle" x="547.89" y="-764.869" font-family="Arial" font-size="10.00">candidate</text>
</g>
<!-- g3&#45;&#45;n4 -->
<g id="edge44" class="edge"><title>g3&#45;&#45;n4</title>
<path fill="none" stroke="black" d="M387.244,-841.154C466.513,-838.499 664.326,-827.661 823,-784 825.926,-783.195 828.902,-782.247 831.869,-781.205"/>
<text text-anchor="middle" x="824.697" y="-785.674" font-family="Arial" font-size="10.00">nodes</text>
<text text-anchor="middle" x="396.134" y="-834.075" font-family="Arial" font-size="10.00">graph</text>
</g>
<!-- e12 -->
<g id="node6" class="node"><title>e12</title>
<a xlink:href="../../SDMLib/src/org/sdmlib/examples/helloworld/model/Edge.java" xlink:title="&lt;TABLE&gt;">
<polygon fill="none" stroke="black" points="637,-680 637,-697 708,-697 708,-680 637,-680"/>
<text text-anchor="start" x="648" y="-686.5" font-family="Arial" font-size="10.00"> </text>
<text text-anchor="start" x="652" y="-686.5" font-family="Arial" font-size="10.00">e12 :Edge</text>
</a>
<polygon fill="none" stroke="black" points="637,-660 637,-680 708,-680 708,-660 637,-660"/>
<text text-anchor="start" x="642" y="-668" font-family="Arial" font-size="10.00">name = &quot;e10&quot;</text>
</g>
<!-- g3&#45;&#45;e12 -->
<g id="edge28" class="edge"><title>g3&#45;&#45;e12</title>
<path fill="none" stroke="black" d="M387.223,-838.55C432.447,-832.855 512.103,-818.466 571,-784 589.899,-772.941 629.766,-728.87 653.368,-701.771"/>
<text text-anchor="middle" x="650.57" y="-708.872" font-family="Arial" font-size="10.00">edges</text>
<text text-anchor="middle" x="395.633" y="-830.64" font-family="Arial" font-size="10.00">graph</text>
</g>
<!-- g3&#45;&#45;n5 -->
<g id="edge46" class="edge"><title>g3&#45;&#45;n5</title>
<path fill="none" stroke="black" d="M356.286,-824.913C367.354,-781.31 396.873,-668.469 409,-656 443.713,-620.305 501.096,-606.578 539.942,-601.299"/>
<text text-anchor="middle" x="531.617" y="-604.34" font-family="Arial" font-size="10.00">nodes</text>
<text text-anchor="middle" x="354.44" y="-812.584" font-family="Arial" font-size="10.00">graph</text>
</g>
<!-- e13 -->
<g id="node8" class="node"><title>e13</title>
<a xlink:href="../../SDMLib/src/org/sdmlib/examples/helloworld/model/Edge.java" xlink:title="&lt;TABLE&gt;">
<polygon fill="none" stroke="black" points="313,-516 313,-533 384,-533 384,-516 313,-516"/>
<text text-anchor="start" x="324" y="-522.5" font-family="Arial" font-size="10.00"> </text>
<text text-anchor="start" x="328" y="-522.5" font-family="Arial" font-size="10.00">e13 :Edge</text>
</a>
<polygon fill="none" stroke="black" points="313,-496 313,-516 384,-516 384,-496 313,-496"/>
<text text-anchor="start" x="318" y="-504" font-family="Arial" font-size="10.00">name = &quot;e11&quot;</text>
</g>
<!-- g3&#45;&#45;e13 -->
<g id="edge30" class="edge"><title>g3&#45;&#45;e13</title>
<path fill="none" stroke="black" d="M346.753,-824.937C343.512,-813.484 339.664,-797.989 338,-784 327.163,-692.919 338.927,-583.314 344.925,-537.63"/>
<text text-anchor="middle" x="347.993" y="-544.648" font-family="Arial" font-size="10.00">edges</text>
<text text-anchor="middle" x="340.253" y="-814.837" font-family="Arial" font-size="10.00">graph</text>
</g>
<!-- g3&#45;&#45;n6 -->
<g id="edge48" class="edge"><title>g3&#45;&#45;n6</title>
<path fill="none" stroke="black" d="M316.813,-827.374C297.829,-817.74 275.574,-803.315 262,-784 234.725,-745.188 238,-727.437 238,-680 238,-680 238,-680 238,-596 238,-545.029 252.987,-486.619 262.12,-455.757"/>
<text text-anchor="middle" x="263.673" y="-463.136" font-family="Arial" font-size="10.00">nodes</text>
<text text-anchor="middle" x="306.824" y="-824.404" font-family="Arial" font-size="10.00">graph</text>
</g>
<!-- e14 -->
<g id="node10" class="node"><title>e14</title>
<a xlink:href="../../SDMLib/src/org/sdmlib/examples/helloworld/model/Edge.java" xlink:title="&lt;TABLE&gt;">
<polygon fill="none" stroke="black" points="360,-352 360,-369 431,-369 431,-352 360,-352"/>
<text text-anchor="start" x="371" y="-358.5" font-family="Arial" font-size="10.00"> </text>
<text text-anchor="start" x="375" y="-358.5" font-family="Arial" font-size="10.00">e14 :Edge</text>
</a>
<polygon fill="none" stroke="black" points="360,-332 360,-352 431,-352 431,-332 360,-332"/>
<text text-anchor="start" x="365" y="-340" font-family="Arial" font-size="10.00">name = &quot;e12&quot;</text>
</g>
<!-- g3&#45;&#45;e14 -->
<g id="edge32" class="edge"><title>g3&#45;&#45;e14</title>
<path fill="none" stroke="black" d="M337.705,-824.791C315.69,-796.481 276,-737.472 276,-680 276,-680 276,-680 276,-596 276,-549.013 276.682,-535.269 295,-492 297.773,-485.45 351.793,-411.124 379.255,-373.519"/>
<text text-anchor="middle" x="377.328" y="-380.831" font-family="Arial" font-size="10.00">edges</text>
<text text-anchor="middle" x="328.873" y="-817.601" font-family="Arial" font-size="10.00">graph</text>
</g>
<!-- e15 -->
<g id="node11" class="node"><title>e15</title>
<a xlink:href="../../SDMLib/src/org/sdmlib/examples/helloworld/model/Edge.java" xlink:title="&lt;TABLE&gt;">
<polygon fill="none" stroke="black" points="199,-352 199,-369 270,-369 270,-352 199,-352"/>
<text text-anchor="start" x="210" y="-358.5" font-family="Arial" font-size="10.00"> </text>
<text text-anchor="start" x="214" y="-358.5" font-family="Arial" font-size="10.00">e15 :Edge</text>
</a>
<polygon fill="none" stroke="black" points="199,-332 199,-352 270,-352 270,-332 199,-332"/>
<text text-anchor="start" x="204" y="-340" font-family="Arial" font-size="10.00">name = &quot;e13&quot;</text>
</g>
<!-- g3&#45;&#45;e15 -->
<g id="edge34" class="edge"><title>g3&#45;&#45;e15</title>
<path fill="none" stroke="black" d="M316.924,-832.092C291.555,-823.269 258.15,-807.982 237,-784 204.549,-747.205 200,-729.06 200,-680 200,-680 200,-680 200,-514 200,-462.847 216.438,-404.508 226.454,-373.707"/>
<text text-anchor="middle" x="227.749" y="-381.123" font-family="Arial" font-size="10.00">edges</text>
<text text-anchor="middle" x="306.963" y="-830.472" font-family="Arial" font-size="10.00">graph</text>
</g>
<!-- g3&#45;&#45;n7 -->
<g id="edge50" class="edge"><title>g3&#45;&#45;n7</title>
<path fill="none" stroke="black" d="M316.876,-836.614C283.552,-829.786 234.08,-814.946 203,-784 167.792,-748.944 162,-729.684 162,-680 162,-680 162,-680 162,-432 162,-385.013 167.721,-373.072 181,-328 184.634,-315.665 190.017,-302.379 194.765,-291.638"/>
<text text-anchor="middle" x="195.005" y="-299.136" font-family="Arial" font-size="10.00">nodes</text>
<text text-anchor="middle" x="307.116" y="-836.295" font-family="Arial" font-size="10.00">graph</text>
</g>
<!-- e16 -->
<g id="node13" class="node"><title>e16</title>
<a xlink:href="../../SDMLib/src/org/sdmlib/examples/helloworld/model/Edge.java" xlink:title="&lt;TABLE&gt;">
<polygon fill="none" stroke="black" points="146,-188 146,-205 217,-205 217,-188 146,-188"/>
<text text-anchor="start" x="157" y="-194.5" font-family="Arial" font-size="10.00"> </text>
<text text-anchor="start" x="161" y="-194.5" font-family="Arial" font-size="10.00">e16 :Edge</text>
</a>
<polygon fill="none" stroke="black" points="146,-168 146,-188 217,-188 217,-168 146,-168"/>
<text text-anchor="start" x="151" y="-176" font-family="Arial" font-size="10.00">name = &quot;e14&quot;</text>
</g>
<!-- g3&#45;&#45;e16 -->
<g id="edge36" class="edge"><title>g3&#45;&#45;e16</title>
<path fill="none" stroke="black" d="M316.961,-839.765C276.143,-835.384 208.959,-822.41 167,-784 130.107,-750.227 124,-730.017 124,-680 124,-680 124,-680 124,-350 124,-297.227 151.248,-239.986 168.066,-209.684"/>
<text text-anchor="middle" x="167.484" y="-217.167" font-family="Arial" font-size="10.00">edges</text>
<text text-anchor="middle" x="307.452" y="-840.359" font-family="Arial" font-size="10.00">graph</text>
</g>
<!-- g3&#45;&#45;n8 -->
<g id="edge52" class="edge"><title>g3&#45;&#45;n8</title>
<path fill="none" stroke="black" d="M316.849,-842.249C268.559,-840.724 181.599,-831.026 128,-784 90.5288,-751.124 86,-729.849 86,-680 86,-680 86,-680 86,-268 86,-211.269 129.888,-156.816 158.003,-127.754"/>
<text text-anchor="middle" x="154.897" y="-134.759" font-family="Arial" font-size="10.00">nodes</text>
<text text-anchor="middle" x="307.598" y="-843.545" font-family="Arial" font-size="10.00">graph</text>
</g>
<!-- e17 -->
<g id="node15" class="node"><title>e17</title>
<a xlink:href="../../SDMLib/src/org/sdmlib/examples/helloworld/model/Edge.java" xlink:title="&lt;TABLE&gt;">
<polygon fill="none" stroke="black" points="8,-24 8,-41 79,-41 79,-24 8,-24"/>
<text text-anchor="start" x="19" y="-30.5" font-family="Arial" font-size="10.00"> </text>
<text text-anchor="start" x="23" y="-30.5" font-family="Arial" font-size="10.00">e17 :Edge</text>
</a>
<polygon fill="none" stroke="black" points="8,-4 8,-24 79,-24 79,-4 8,-4"/>
<text text-anchor="start" x="13" y="-12" font-family="Arial" font-size="10.00">name = &quot;e18&quot;</text>
</g>
<!-- g3&#45;&#45;e17 -->
<g id="edge24" class="edge"><title>g3&#45;&#45;e17</title>
<path fill="none" stroke="black" d="M316.76,-839.425C246.252,-833.613 91.1298,-817.311 51,-784 12.7703,-752.266 10,-729.684 10,-680 10,-680 10,-680 10,-186 10,-134.909 25.9542,-76.5462 35.6762,-45.7241"/>
<text text-anchor="middle" x="37.0567" y="-53.1284" font-family="Arial" font-size="10.00">edges</text>
<text text-anchor="middle" x="307.362" y="-840.341" font-family="Arial" font-size="10.00">graph</text>
</g>
<!-- e18 -->
<g id="node16" class="node"><title>e18</title>
<a xlink:href="../../SDMLib/src/org/sdmlib/examples/helloworld/model/Edge.java" xlink:title="&lt;TABLE&gt;">
<polygon fill="none" stroke="black" points="146,-24 146,-41 217,-41 217,-24 146,-24"/>
<text text-anchor="start" x="157" y="-30.5" font-family="Arial" font-size="10.00"> </text>
<text text-anchor="start" x="161" y="-30.5" font-family="Arial" font-size="10.00">e18 :Edge</text>
</a>
<polygon fill="none" stroke="black" points="146,-4 146,-24 217,-24 217,-4 146,-4"/>
<text text-anchor="start" x="151" y="-12" font-family="Arial" font-size="10.00">name = &quot;e15&quot;</text>
</g>
<!-- g3&#45;&#45;e18 -->
<g id="edge38" class="edge"><title>g3&#45;&#45;e18</title>
<path fill="none" stroke="black" d="M316.814,-838.342C253.333,-831.095 123.063,-813.052 89,-784 51.1973,-751.759 48,-729.684 48,-680 48,-680 48,-680 48,-186 48,-124.138 106.65,-72.9981 146.056,-45.6196"/>
<text text-anchor="middle" x="141.19" y="-51.8558" font-family="Arial" font-size="10.00">edges</text>
<text text-anchor="middle" x="307.313" y="-838.962" font-family="Arial" font-size="10.00">graph</text>
</g>
<!-- e19 -->
<g id="node17" class="node"><title>e19</title>
<a xlink:href="../../SDMLib/src/org/sdmlib/examples/helloworld/model/Edge.java" xlink:title="&lt;TABLE&gt;">
<polygon fill="none" stroke="black" points="658,-24 658,-41 729,-41 729,-24 658,-24"/>
<text text-anchor="start" x="669" y="-30.5" font-family="Arial" font-size="10.00"> </text>
<text text-anchor="start" x="673" y="-30.5" font-family="Arial" font-size="10.00">e19 :Edge</text>
</a>
<polygon fill="none" stroke="black" points="658,-4 658,-24 729,-24 729,-4 658,-4"/>
<text text-anchor="start" x="663" y="-12" font-family="Arial" font-size="10.00">name = &quot;e19&quot;</text>
</g>
<!-- g3&#45;&#45;e19 -->
<g id="edge26" class="edge"><title>g3&#45;&#45;e19</title>
<path fill="none" stroke="black" d="M350.54,-824.827C348.462,-789.392 348.572,-707.211 388,-656 432.695,-597.949 464.914,-605.624 531,-574 775.864,-456.826 1100,-623.455 1100,-352 1100,-352 1100,-352 1100,-186 1100,-108.428 841.551,-51.6146 736.556,-31.735"/>
<text text-anchor="middle" x="746.267" y="-26.8467" font-family="Arial" font-size="10.00">edges</text>
<text text-anchor="middle" x="345.924" y="-813.456" font-family="Arial" font-size="10.00">graph</text>
</g>
<!-- g3&#45;&#45;n9 -->
<g id="edge54" class="edge"><title>g3&#45;&#45;n9</title>
<path fill="none" stroke="black" d="M387.334,-836.222C438.746,-827.383 536.888,-808.878 618,-784 622.523,-782.613 627.196,-781.014 631.82,-779.324"/>
<text text-anchor="middle" x="624.743" y="-783.89" font-family="Arial" font-size="10.00">nodes</text>
<text text-anchor="middle" x="395.531" y="-827.994" font-family="Arial" font-size="10.00">graph</text>
</g>
<!-- g3&#45;&#45;n10 -->
<g id="edge56" class="edge"><title>g3&#45;&#45;n10</title>
<path fill="none" stroke="black" d="M387.184,-839.552C453.862,-834.248 602.717,-819.213 723,-784 725.913,-783.147 728.878,-782.164 731.838,-781.096"/>
<text text-anchor="middle" x="724.729" y="-785.629" font-family="Arial" font-size="10.00">nodes</text>
<text text-anchor="middle" x="395.858" y="-832.076" font-family="Arial" font-size="10.00">graph</text>
</g>
<!-- g3&#45;&#45;n11 -->
<g id="edge58" class="edge"><title>g3&#45;&#45;n11</title>
<path fill="none" stroke="black" d="M383.106,-824.838C404.992,-812.763 434.445,-796.513 457.917,-783.563"/>
<text text-anchor="middle" x="452.023" y="-789.142" font-family="Arial" font-size="10.00">nodes</text>
<text text-anchor="middle" x="389" y="-814.259" font-family="Arial" font-size="10.00">graph</text>
</g>
<!-- e20 -->
<g id="node21" class="node"><title>e20</title>
<a xlink:href="../../SDMLib/src/org/sdmlib/examples/helloworld/model/Edge.java" xlink:title="&lt;TABLE&gt;">
<polygon fill="none" stroke="black" points="427,-680 427,-697 498,-697 498,-680 427,-680"/>
<text text-anchor="start" x="438" y="-686.5" font-family="Arial" font-size="10.00"> </text>
<text text-anchor="start" x="442" y="-686.5" font-family="Arial" font-size="10.00">e20 :Edge</text>
</a>
<polygon fill="none" stroke="black" points="427,-660 427,-680 498,-680 498,-660 427,-660"/>
<text text-anchor="start" x="432" y="-668" font-family="Arial" font-size="10.00">name = &quot;e16&quot;</text>
</g>
<!-- g3&#45;&#45;e20 -->
<g id="edge40" class="edge"><title>g3&#45;&#45;e20</title>
<path fill="none" stroke="black" d="M369.241,-824.838C379.924,-813.724 393.552,-798.641 404,-784 423.214,-757.075 441.067,-723.181 451.755,-701.547"/>
<text text-anchor="middle" x="451.486" y="-709.044" font-family="Arial" font-size="10.00">edges</text>
<text text-anchor="middle" x="372.435" y="-812.862" font-family="Arial" font-size="10.00">graph</text>
</g>
<!-- e21 -->
<g id="node22" class="node"><title>e21</title>
<a xlink:href="../../SDMLib/src/org/sdmlib/examples/helloworld/model/Edge.java" xlink:title="&lt;TABLE&gt;">
<polygon fill="none" stroke="black" points="532,-680 532,-697 603,-697 603,-680 532,-680"/>
<text text-anchor="start" x="543" y="-686.5" font-family="Arial" font-size="10.00"> </text>
<text text-anchor="start" x="547" y="-686.5" font-family="Arial" font-size="10.00">e21 :Edge</text>
</a>
<polygon fill="none" stroke="black" points="532,-660 532,-680 603,-680 603,-660 532,-660"/>
<text text-anchor="start" x="537" y="-668" font-family="Arial" font-size="10.00">name = &quot;e17&quot;</text>
</g>
<!-- g3&#45;&#45;e21 -->
<g id="edge42" class="edge"><title>g3&#45;&#45;e21</title>
<path fill="none" stroke="black" d="M387.269,-841.947C431.353,-839.858 505.987,-829.294 547,-784 567.363,-761.512 569.785,-724.809 568.934,-701.556"/>
<text text-anchor="middle" x="573.335" y="-708.036" font-family="Arial" font-size="10.00">edges</text>
<text text-anchor="middle" x="396.041" y="-834.646" font-family="Arial" font-size="10.00">graph</text>
</g>
<!-- n4&#45;&#45;e12 -->
<g id="edge62" class="edge"><title>n4&#45;&#45;e12</title>
<path fill="none" stroke="black" d="M831.866,-741.715C828.873,-740.442 825.894,-739.192 823,-738 787.035,-723.191 745.788,-707.429 715.501,-696.08"/>
<text text-anchor="middle" x="725.472" y="-692.812" font-family="Arial" font-size="10.00">outEdges</text>
<text text-anchor="middle" x="821.872" y="-739.561" font-family="Arial" font-size="10.00">src</text>
</g>
<!-- n4&#45;&#45;e14 -->
<g id="edge60" class="edge"><title>n4&#45;&#45;e14</title>
<path fill="none" stroke="black" d="M904.532,-738.295C969.365,-691.069 1106.05,-576.456 1038,-492 961.931,-397.587 569.996,-363.492 438.255,-354.597"/>
<text text-anchor="middle" x="447.605" y="-348.551" font-family="Arial" font-size="10.00">inEdges</text>
<text text-anchor="middle" x="909.221" y="-726.962" font-family="Arial" font-size="10.00">tgt</text>
</g>
<!-- e12&#45;&#45;n5 -->
<g id="edge64" class="edge"><title>e12&#45;&#45;n5</title>
<path fill="none" stroke="black" d="M647.134,-656.14C634.188,-644.759 618.416,-630.893 605.521,-619.557"/>
<text text-anchor="middle" x="615.118" y="-619.867" font-family="Arial" font-size="10.00">tgt</text>
<text text-anchor="middle" x="637.537" y="-650.83" font-family="Arial" font-size="10.00">inEdges</text>
</g>
<!-- n5&#45;&#45;e13 -->
<g id="edge66" class="edge"><title>n5&#45;&#45;e13</title>
<path fill="none" stroke="black" d="M539.881,-581.882C498.205,-567.573 433.976,-545.52 391.474,-530.927"/>
<text text-anchor="middle" x="401.419" y="-527.373" font-family="Arial" font-size="10.00">outEdges</text>
<text text-anchor="middle" x="529.936" y="-580.436" font-family="Arial" font-size="10.00">src</text>
</g>
<!-- e13&#45;&#45;n6 -->
<g id="edge68" class="edge"><title>e13&#45;&#45;n6</title>
<path fill="none" stroke="black" d="M326.413,-492.14C315.175,-480.759 301.482,-466.893 290.287,-455.557"/>
<text text-anchor="middle" x="299.663" y="-456.536" font-family="Arial" font-size="10.00">tgt</text>
<text text-anchor="middle" x="317.038" y="-486.16" font-family="Arial" font-size="10.00">inEdges</text>
</g>
<!-- n6&#45;&#45;e14 -->
<g id="edge72" class="edge"><title>n6&#45;&#45;e14</title>
<path fill="none" stroke="black" d="M303.097,-410.351C321.026,-398.967 342.942,-385.052 360.875,-373.666"/>
<text text-anchor="middle" x="355.489" y="-379.592" font-family="Arial" font-size="10.00">outEdges</text>
<text text-anchor="middle" x="308.483" y="-399.425" font-family="Arial" font-size="10.00">src</text>
</g>
<!-- n6&#45;&#45;e15 -->
<g id="edge74" class="edge"><title>n6&#45;&#45;e15</title>
<path fill="none" stroke="black" d="M259.436,-410.14C254.457,-398.759 248.391,-384.893 243.431,-373.557"/>
<text text-anchor="middle" x="250.936" y="-377.666" font-family="Arial" font-size="10.00">outEdges</text>
<text text-anchor="middle" x="251.932" y="-401.03" font-family="Arial" font-size="10.00">src</text>
</g>
<!-- n6&#45;&#45;e18 -->
<g id="edge70" class="edge"><title>n6&#45;&#45;e18</title>
<path fill="none" stroke="black" d="M281.119,-410.488C297.04,-380.153 323,-322.622 323,-270 323,-270 323,-270 323,-186 323,-122.794 261.116,-72.4388 219.053,-45.5132"/>
<text text-anchor="middle" x="228.937" y="-44.5322" font-family="Arial" font-size="10.00">inEdges</text>
<text text-anchor="middle" x="281.472" y="-397.994" font-family="Arial" font-size="10.00">tgt</text>
</g>
<!-- e15&#45;&#45;n7 -->
<g id="edge76" class="edge"><title>e15&#45;&#45;n7</title>
<path fill="none" stroke="black" d="M226.076,-328.14C221.95,-316.759 216.924,-302.893 212.814,-291.557"/>
<text text-anchor="middle" x="219.876" y="-296.137" font-family="Arial" font-size="10.00">tgt</text>
<text text-anchor="middle" x="219.014" y="-318.559" font-family="Arial" font-size="10.00">inEdges</text>
</g>
<!-- n7&#45;&#45;e16 -->
<g id="edge78" class="edge"><title>n7&#45;&#45;e16</title>
<path fill="none" stroke="black" d="M198.442,-246.14C195.028,-234.759 190.868,-220.893 187.467,-209.557"/>
<text text-anchor="middle" x="194.119" y="-214.523" font-family="Arial" font-size="10.00">outEdges</text>
<text text-anchor="middle" x="191.79" y="-236.173" font-family="Arial" font-size="10.00">src</text>
</g>
<!-- e16&#45;&#45;n8 -->
<g id="edge80" class="edge"><title>e16&#45;&#45;n8</title>
<path fill="none" stroke="black" d="M181,-164.14C181,-152.759 181,-138.893 181,-127.557"/>
<text text-anchor="middle" x="185.226" y="-134.12" font-family="Arial" font-size="10.00">tgt</text>
<text text-anchor="middle" x="176.774" y="-152.577" font-family="Arial" font-size="10.00">inEdges</text>
</g>
<!-- n8&#45;&#45;e17 -->
<g id="edge84" class="edge"><title>n8&#45;&#45;e17</title>
<path fill="none" stroke="black" d="M143.655,-82.3508C124.019,-70.9674 100.015,-57.0524 80.3746,-45.6665"/>
<text text-anchor="middle" x="90.335" y="-44.0556" font-family="Arial" font-size="10.00">outEdges</text>
<text text-anchor="middle" x="133.695" y="-78.9617" font-family="Arial" font-size="10.00">src</text>
</g>
<!-- n8&#45;&#45;e18 -->
<g id="edge86" class="edge"><title>n8&#45;&#45;e18</title>
<path fill="none" stroke="black" d="M181,-82.1396C181,-70.759 181,-56.8929 181,-45.5569"/>
<text text-anchor="middle" x="185.226" y="-52.12" font-family="Arial" font-size="10.00">outEdges</text>
<text text-anchor="middle" x="176.774" y="-70.5766" font-family="Arial" font-size="10.00">src</text>
</g>
<!-- n8&#45;&#45;e19 -->
<g id="edge82" class="edge"><title>n8&#45;&#45;e19</title>
<path fill="none" stroke="black" d="M222.034,-97.5885C317.189,-82.7204 552.187,-46.0021 649.608,-30.7801"/>
<text text-anchor="middle" x="641.306" y="-33.8547" font-family="Arial" font-size="10.00">inEdges</text>
<text text-anchor="middle" x="230.336" y="-89.5138" font-family="Arial" font-size="10.00">tgt</text>
</g>
<!-- n11&#45;&#45;e20 -->
<g id="edge88" class="edge"><title>n11&#45;&#45;e20</title>
<path fill="none" stroke="black" d="M487.436,-738.14C482.457,-726.759 476.391,-712.893 471.431,-701.557"/>
<text text-anchor="middle" x="478.936" y="-705.666" font-family="Arial" font-size="10.00">inEdges_outEdges</text>
<text text-anchor="middle" x="479.932" y="-729.03" font-family="Arial" font-size="10.00">tgt_src</text>
</g>
<!-- n11&#45;&#45;e21 -->
<g id="edge90" class="edge"><title>n11&#45;&#45;e21</title>
<path fill="none" stroke="black" d="M516.128,-738.14C526.086,-726.759 538.219,-712.893 548.138,-701.557"/>
<text text-anchor="middle" x="545.35" y="-708.661" font-family="Arial" font-size="10.00">inEdges_outEdges</text>
<text text-anchor="middle" x="518.915" y="-726.036" font-family="Arial" font-size="10.00">tgt_src</text>
</g>
</g>
</svg>
