<?xml version="1.0" encoding="UTF-8" standalone="no"?>
<!DOCTYPE svg PUBLIC "-//W3C//DTD SVG 1.1//EN"
 "http://www.w3.org/Graphics/SVG/1.1/DTD/svg11.dtd">
<!-- Generated by graphviz version 2.28.0 (20110507.0327)
 -->
<!-- Title: ObjectDiagram Pages: 1 -->
<svg width="199pt" height="218pt"
 viewBox="0.00 0.00 199.00 218.00" xmlns="http://www.w3.org/2000/svg" xmlns:xlink="http://www.w3.org/1999/xlink">
<g id="graph1" class="graph" transform="scale(1 1) rotate(0) translate(4 214)">
<title>ObjectDiagram</title>
<polygon fill="white" stroke="white" points="-4,5 -4,-214 196,-214 196,5 -4,5"/>
<!-- e1 -->
<g id="node1" class="node"><title>e1</title>
<polygon fill="deepskyblue" stroke="deepskyblue" points="7.5,-168.5 7.5,-205.5 78.5,-205.5 78.5,-168.5 7.5,-168.5"/>
<polygon fill="none" stroke="black" points="8,-188 8,-205 79,-205 79,-188 8,-188"/>
<text text-anchor="start" x="11.5" y="-194.5" font-family="Arial" font-size="10.00"> </text>
<text text-anchor="start" x="15.5" y="-194.5" font-family="Arial" font-size="10.00"> e1 :EdgePO </text>
<polygon fill="none" stroke="black" points="8,-168 8,-188 79,-188 79,-168 8,-168"/>
<text text-anchor="start" x="40" y="-176" font-family="Arial" font-size="10.00"> &#160;</text>
</g>
<!-- n2 -->
<g id="node2" class="node"><title>n2</title>
<polygon fill="deepskyblue" stroke="deepskyblue" points="7.5,-86.5 7.5,-123.5 78.5,-123.5 78.5,-86.5 7.5,-86.5"/>
<polygon fill="none" stroke="black" points="8,-106 8,-123 79,-123 79,-106 8,-106"/>
<text text-anchor="start" x="11.5" y="-112.5" font-family="Arial" font-size="10.00"> </text>
<text text-anchor="start" x="15.5" y="-112.5" font-family="Arial" font-size="10.00"> n2 :NodePO </text>
<polygon fill="none" stroke="black" points="8,-86 8,-106 79,-106 79,-86 8,-86"/>
<text text-anchor="start" x="40" y="-94" font-family="Arial" font-size="10.00"> &#160;</text>
</g>
<!-- e1&#45;&#45;n2 -->
<g id="edge2" class="edge"><title>e1&#45;&#45;n2</title>
<path fill="none" stroke="black" d="M43,-164.14C43,-152.759 43,-138.893 43,-127.557"/>
<text text-anchor="middle" x="47.2262" y="-134.12" font-family="Arial" font-size="10.00">tgt</text>
</g>
<!-- n3 -->
<g id="node3" class="node"><title>n3</title>
<polygon fill="deepskyblue" stroke="deepskyblue" points="65.5,-4.5 65.5,-41.5 124.5,-41.5 124.5,-4.5 65.5,-4.5"/>
<polygon fill="none" stroke="black" points="66,-24 66,-41 125,-41 125,-24 66,-24"/>
<text text-anchor="start" x="69.5" y="-30.5" font-family="Arial" font-size="10.00"> </text>
<text text-anchor="start" x="73.5" y="-30.5" font-family="Arial" font-size="10.00"> n3 :NodePO </text>
<polygon fill="none" stroke="black" points="66,-4 66,-24 125,-24 125,-4 66,-4"/>
<text text-anchor="start" x="92" y="-12" font-family="Arial" font-size="10.00"> &#160;</text>
</g>
<!-- n2&#45;&#45;n3 -->
<g id="edge4" class="edge"><title>n2&#45;&#45;n3</title>
<path fill="none" stroke="black" d="M57.2092,-82.1396C64.6066,-70.759 73.6196,-56.8929 80.988,-45.5569"/>
<text text-anchor="middle" x="79.5921" y="-52.959" font-family="Arial" font-size="10.00">copy</text>
</g>
<!-- e4 -->
<g id="node4" class="node"><title>e4</title>
<polygon fill="deepskyblue" stroke="deepskyblue" points="112.5,-86.5 112.5,-123.5 183.5,-123.5 183.5,-86.5 112.5,-86.5"/>
<polygon fill="none" stroke="black" points="113,-106 113,-123 184,-123 184,-106 113,-106"/>
<text text-anchor="start" x="116.5" y="-112.5" font-family="Arial" font-size="10.00"> </text>
<text text-anchor="start" x="120.5" y="-112.5" font-family="Arial" font-size="10.00"> e4 :EdgePO </text>
<polygon fill="none" stroke="black" points="113,-86 113,-106 184,-106 184,-86 113,-86"/>
<text text-anchor="start" x="145" y="-94" font-family="Arial" font-size="10.00"> &#160;</text>
</g>
<!-- e4&#45;&#45;n3 -->
<g id="edge6" class="edge"><title>e4&#45;&#45;n3</title>
<path fill="none" stroke="green" d="M133.518,-82.1396C125.978,-70.759 116.792,-56.8929 109.281,-45.5569"/>
<text text-anchor="middle" x="117.81" y="-48.2783" font-family="Arial" font-size="10.00" fill="green">tgt</text>
</g>
</g>
</svg>
