<?xml version="1.0" encoding="UTF-8" standalone="no"?>
<!DOCTYPE svg PUBLIC "-//W3C//DTD SVG 1.1//EN"
 "http://www.w3.org/Graphics/SVG/1.1/DTD/svg11.dtd">
<!-- Generated by graphviz version 2.28.0 (20110507.0327)
 -->
<!-- Title: ObjectDiagram Pages: 1 -->
<svg width="1260pt" height="970pt"
 viewBox="0.00 0.00 1260.00 970.00" xmlns="http://www.w3.org/2000/svg" xmlns:xlink="http://www.w3.org/1999/xlink">
<g id="graph1" class="graph" transform="scale(1 1) rotate(0) translate(4 966)">
<title>ObjectDiagram</title>
<polygon fill="white" stroke="white" points="-4,5 -4,-966 1257,-966 1257,5 -4,5"/>
<!-- g1 -->
<g id="node1" class="node"><title>g1</title>
<polygon fill="deepskyblue" stroke="deepskyblue" points="589.5,-906.5 589.5,-957.5 664.5,-957.5 664.5,-906.5 589.5,-906.5"/>
<text text-anchor="start" x="626" y="-947.5" font-family="Arial" font-size="10.00">«bound»</text>
<polygon fill="none" stroke="black" points="590,-926 590,-942 665,-942 665,-926 590,-926"/>
<text text-anchor="start" x="593.5" y="-932" font-family="Arial" font-size="10.00"> </text>
<text text-anchor="start" x="597.5" y="-932" font-family="Arial" font-size="10.00"> g1 :GraphPO </text>
<polygon fill="none" stroke="black" points="590,-906 590,-926 665,-926 665,-906 590,-906"/>
<text text-anchor="start" x="624" y="-914" font-family="Arial" font-size="10.00"> &#160;</text>
</g>
<!-- n2 -->
<g id="node2" class="node"><title>n2</title>
<polygon fill="deepskyblue" stroke="deepskyblue" points="317,-824.5 317,-861.5 371,-861.5 371,-824.5 317,-824.5"/>
<polygon fill="none" stroke="black" points="317,-844 317,-861 371,-861 371,-844 317,-844"/>
<text text-anchor="start" x="320.5" y="-850.5" font-family="Arial" font-size="10.00"> </text>
<text text-anchor="start" x="324.5" y="-850.5" font-family="Arial" font-size="10.00"> n2 :NodePO </text>
<polygon fill="none" stroke="black" points="317,-824 317,-844 371,-844 371,-824 317,-824"/>
<text text-anchor="start" x="340.5" y="-832" font-family="Arial" font-size="10.00"> &#160;</text>
</g>
<!-- g1&#45;&#45;n2 -->
<g id="edge36" class="edge"><title>g1&#45;&#45;n2</title>
<path fill="none" stroke="black" d="M581.531,-917.022C525.127,-899.682 430.176,-870.492 379.076,-854.783"/>
<text text-anchor="middle" x="388.981" y="-850.907" font-family="Arial" font-size="10.00">nodes</text>
</g>
<!-- g8 -->
<g id="node10" class="node"><title>g8</title>
<a xlink:href="../../SDMLib/src/org/sdmlib/examples/helloworld/model/Graph.java" xlink:title="&lt;TABLE&gt;">
<polygon fill="none" stroke="black" points="883,-834 883,-851 937,-851 937,-834 883,-834"/>
<text text-anchor="start" x="886.5" y="-840.5" font-family="Arial" font-size="10.00"> </text>
<text text-anchor="start" x="890.5" y="-840.5" font-family="Arial" font-size="10.00">g8 :Graph</text>
</a>
</g>
<!-- g1&#45;&#45;g8 -->
<g id="edge2" class="edge"><title>g1&#45;&#45;g8</title>
<path fill="none" stroke="black" stroke-dasharray="1,5" d="M672.293,-905.667C675.205,-904.353 678.123,-903.117 681,-902 747.329,-876.239 828.937,-858.755 874.646,-850.162"/>
<text text-anchor="middle" x="866.548" y="-853.529" font-family="Arial" font-size="10.00">match</text>
</g>
<!-- e3 -->
<g id="node3" class="node"><title>e3</title>
<polygon fill="deepskyblue" stroke="deepskyblue" points="121,-742.5 121,-779.5 175,-779.5 175,-742.5 121,-742.5"/>
<polygon fill="none" stroke="black" points="121,-762 121,-779 175,-779 175,-762 121,-762"/>
<text text-anchor="start" x="124.5" y="-768.5" font-family="Arial" font-size="10.00"> </text>
<text text-anchor="start" x="128.5" y="-768.5" font-family="Arial" font-size="10.00"> e3 :EdgePO </text>
<polygon fill="none" stroke="black" points="121,-742 121,-762 175,-762 175,-742 121,-742"/>
<text text-anchor="start" x="144.5" y="-750" font-family="Arial" font-size="10.00"> &#160;</text>
</g>
<!-- n2&#45;&#45;e3 -->
<g id="edge38" class="edge"><title>n2&#45;&#45;e3</title>
<path fill="none" stroke="black" d="M308.959,-827.698C273.393,-813.181 218.643,-790.834 183.067,-776.313"/>
<text text-anchor="middle" x="193.055" y="-773.325" font-family="Arial" font-size="10.00">outEdges</text>
</g>
<!-- n9 -->
<g id="node11" class="node"><title>n9</title>
<a xlink:href="../../SDMLib/src/org/sdmlib/examples/helloworld/model/Node.java" xlink:title="&lt;TABLE&gt;">
<polygon fill="none" stroke="black" points="732,-762 732,-779 798,-779 798,-762 732,-762"/>
<text text-anchor="start" x="743" y="-768.5" font-family="Arial" font-size="10.00"> </text>
<text text-anchor="start" x="747" y="-768.5" font-family="Arial" font-size="10.00">n9 :Node</text>
</a>
<polygon fill="none" stroke="black" points="732,-742 732,-762 798,-762 798,-742 732,-742"/>
<text text-anchor="start" x="737" y="-750" font-family="Arial" font-size="10.00">name = &quot;n1&quot;</text>
</g>
<!-- n2&#45;&#45;n9 -->
<g id="edge4" class="edge"><title>n2&#45;&#45;n9</title>
<path fill="none" stroke="black" stroke-dasharray="1,5" d="M379.17,-835.317C456.54,-820.615 641.178,-785.529 723.802,-769.829"/>
<text text-anchor="middle" x="715.688" y="-773.172" font-family="Arial" font-size="10.00">candidate</text>
</g>
<!-- n10 -->
<g id="node13" class="node"><title>n10</title>
<a xlink:href="../../SDMLib/src/org/sdmlib/examples/helloworld/model/Node.java" xlink:title="&lt;TABLE&gt;">
<polygon fill="none" stroke="black" points="782,-598 782,-615 848,-615 848,-598 782,-598"/>
<text text-anchor="start" x="790.5" y="-604.5" font-family="Arial" font-size="10.00"> </text>
<text text-anchor="start" x="794.5" y="-604.5" font-family="Arial" font-size="10.00">n10 :Node</text>
</a>
<polygon fill="none" stroke="black" points="782,-578 782,-598 848,-598 848,-578 782,-578"/>
<text text-anchor="start" x="787" y="-586" font-family="Arial" font-size="10.00">name = &quot;n2&quot;</text>
</g>
<!-- n2&#45;&#45;n10 -->
<g id="edge6" class="edge"><title>n2&#45;&#45;n10</title>
<path fill="none" stroke="black" stroke-dasharray="1,5" d="M350.34,-820.46C358.371,-796.87 374.458,-759.534 401,-738 443.91,-703.187 467.486,-719.19 520,-702 611.092,-672.181 716.803,-634.044 773.675,-613.233"/>
<text text-anchor="middle" x="766.61" y="-617.81" font-family="Arial" font-size="10.00">candidate</text>
</g>
<!-- n11 -->
<g id="node15" class="node"><title>n11</title>
<a xlink:href="../../SDMLib/src/org/sdmlib/examples/helloworld/model/Node.java" xlink:title="&lt;TABLE&gt;">
<polygon fill="none" stroke="black" points="891,-434 891,-451 957,-451 957,-434 891,-434"/>
<text text-anchor="start" x="899.5" y="-440.5" font-family="Arial" font-size="10.00"> </text>
<text text-anchor="start" x="903.5" y="-440.5" font-family="Arial" font-size="10.00">n11 :Node</text>
</a>
<polygon fill="none" stroke="black" points="891,-414 891,-434 957,-434 957,-414 891,-414"/>
<text text-anchor="start" x="896" y="-422" font-family="Arial" font-size="10.00">name = &quot;n3&quot;</text>
</g>
<!-- n2&#45;&#45;n11 -->
<g id="edge8" class="edge"><title>n2&#45;&#45;n11</title>
<path fill="none" stroke="black" stroke-dasharray="1,5" d="M342.376,-820.106C341.856,-797.246 344.501,-761.512 363,-738 387.36,-707.039 409.079,-720.236 444,-702 478.998,-683.724 485.802,-675.734 520,-656 651.704,-580.001 810.45,-494.526 883.55,-455.504"/>
<text text-anchor="middle" x="877.551" y="-461.006" font-family="Arial" font-size="10.00">candidate</text>
</g>
<!-- n12 -->
<g id="node18" class="node"><title>n12</title>
<a xlink:href="../../SDMLib/src/org/sdmlib/examples/helloworld/model/Node.java" xlink:title="&lt;TABLE&gt;">
<polygon fill="none" stroke="black" points="1033,-270 1033,-287 1099,-287 1099,-270 1033,-270"/>
<text text-anchor="start" x="1041.5" y="-276.5" font-family="Arial" font-size="10.00"> </text>
<text text-anchor="start" x="1045.5" y="-276.5" font-family="Arial" font-size="10.00">n12 :Node</text>
</a>
<polygon fill="none" stroke="black" points="1033,-250 1033,-270 1099,-270 1099,-250 1033,-250"/>
<text text-anchor="start" x="1038" y="-258" font-family="Arial" font-size="10.00">name = &quot;n4&quot;</text>
</g>
<!-- n2&#45;&#45;n12 -->
<g id="edge10" class="edge"><title>n2&#45;&#45;n12</title>
<path fill="none" stroke="black" stroke-dasharray="1,5" d="M338.618,-820.452C334.292,-798.818 330.493,-764.923 341,-738 350.005,-714.925 473.626,-590.612 492,-574 627.169,-451.794 654.942,-405.207 820,-328 887.767,-296.301 974.386,-281.099 1024.69,-274.48"/>
<text text-anchor="middle" x="1016.29" y="-277.419" font-family="Arial" font-size="10.00">candidate</text>
</g>
<!-- n13 -->
<g id="node20" class="node"><title>n13</title>
<a xlink:href="../../SDMLib/src/org/sdmlib/examples/helloworld/model/Node.java" xlink:title="&lt;TABLE&gt;">
<polygon fill="none" stroke="black" points="1003,-106 1003,-123 1069,-123 1069,-106 1003,-106"/>
<text text-anchor="start" x="1011.5" y="-112.5" font-family="Arial" font-size="10.00"> </text>
<text text-anchor="start" x="1015.5" y="-112.5" font-family="Arial" font-size="10.00">n13 :Node</text>
</a>
<polygon fill="none" stroke="black" points="1003,-86 1003,-106 1069,-106 1069,-86 1003,-86"/>
<text text-anchor="start" x="1008" y="-94" font-family="Arial" font-size="10.00">name = &quot;n5&quot;</text>
</g>
<!-- n2&#45;&#45;n13 -->
<g id="edge12" class="edge"><title>n2&#45;&#45;n13</title>
<path fill="none" stroke="black" stroke-dasharray="1,5" d="M337.275,-820.343C331.654,-799.204 325.386,-766.196 331,-738 338.704,-699.306 349.134,-692.122 365,-656 392.588,-593.19 430,-584.602 430,-516 430,-516 430,-516 430,-350 430,-227.936 858.429,-138.637 994.824,-113.301"/>
<text text-anchor="middle" x="986.73" y="-116.674" font-family="Arial" font-size="10.00">candidate</text>
</g>
<!-- n14 -->
<g id="node24" class="node"><title>n14</title>
<a xlink:href="../../SDMLib/src/org/sdmlib/examples/helloworld/model/Node.java" xlink:title="&lt;TABLE&gt;">
<polygon fill="none" stroke="black" points="418,-762 418,-779 484,-779 484,-762 418,-762"/>
<text text-anchor="start" x="426.5" y="-768.5" font-family="Arial" font-size="10.00"> </text>
<text text-anchor="start" x="430.5" y="-768.5" font-family="Arial" font-size="10.00">n14 :Node</text>
</a>
<polygon fill="none" stroke="black" points="418,-742 418,-762 484,-762 484,-742 418,-742"/>
<text text-anchor="start" x="423" y="-750" font-family="Arial" font-size="10.00">name = &quot;n6&quot;</text>
</g>
<!-- n2&#45;&#45;n14 -->
<g id="edge14" class="edge"><title>n2&#45;&#45;n14</title>
<path fill="none" stroke="black" stroke-dasharray="1,5" d="M372.956,-820.351C388.181,-808.967 406.792,-795.052 422.021,-783.666"/>
<text text-anchor="middle" x="417.293" y="-789.978" font-family="Arial" font-size="10.00">candidate</text>
</g>
<!-- n15 -->
<g id="node25" class="node"><title>n15</title>
<a xlink:href="../../SDMLib/src/org/sdmlib/examples/helloworld/model/Node.java" xlink:title="&lt;TABLE&gt;">
<polygon fill="none" stroke="black" points="518,-762 518,-779 584,-779 584,-762 518,-762"/>
<text text-anchor="start" x="526.5" y="-768.5" font-family="Arial" font-size="10.00"> </text>
<text text-anchor="start" x="530.5" y="-768.5" font-family="Arial" font-size="10.00">n15 :Node</text>
</a>
<polygon fill="none" stroke="black" points="518,-742 518,-762 584,-762 584,-742 518,-742"/>
<text text-anchor="start" x="523" y="-750" font-family="Arial" font-size="10.00">name = &quot;n7&quot;</text>
</g>
<!-- n2&#45;&#45;n15 -->
<g id="edge16" class="edge"><title>n2&#45;&#45;n15</title>
<path fill="none" stroke="black" stroke-dasharray="1,5" d="M379.153,-829.702C411.126,-818.354 459.514,-800.772 501,-784 503.901,-782.827 506.886,-781.591 509.883,-780.327"/>
<text text-anchor="middle" x="503.169" y="-785.238" font-family="Arial" font-size="10.00">candidate</text>
</g>
<!-- n16 -->
<g id="node26" class="node"><title>n16</title>
<a xlink:href="../../SDMLib/src/org/sdmlib/examples/helloworld/model/Node.java" xlink:title="&lt;TABLE&gt;">
<polygon fill="none" stroke="black" points="113,-434 113,-451 179,-451 179,-434 113,-434"/>
<text text-anchor="start" x="121.5" y="-440.5" font-family="Arial" font-size="10.00"> </text>
<text text-anchor="start" x="125.5" y="-440.5" font-family="Arial" font-size="10.00">n16 :Node</text>
</a>
<polygon fill="none" stroke="black" points="113,-414 113,-434 179,-434 179,-414 113,-414"/>
<text text-anchor="start" x="118" y="-422" font-family="Arial" font-size="10.00">name = &quot;n8&quot;</text>
</g>
<!-- n2&#45;&#45;n16 -->
<g id="edge18" class="edge"><title>n2&#45;&#45;n16</title>
<path fill="none" stroke="black" stroke-dasharray="1,5" d="M308.803,-841.399C221.129,-837.857 0,-815.492 0,-680 0,-680 0,-680 0,-596 0,-532.393 62.877,-482.502 106.105,-455.719"/>
<text text-anchor="middle" x="100.791" y="-461.69" font-family="Arial" font-size="10.00">candidate</text>
</g>
<!-- n4 -->
<g id="node4" class="node"><title>n4</title>
<polygon fill="deepskyblue" stroke="deepskyblue" points="112,-660.5 112,-697.5 166,-697.5 166,-660.5 112,-660.5"/>
<polygon fill="none" stroke="black" points="112,-680 112,-697 166,-697 166,-680 112,-680"/>
<text text-anchor="start" x="115.5" y="-686.5" font-family="Arial" font-size="10.00"> </text>
<text text-anchor="start" x="119.5" y="-686.5" font-family="Arial" font-size="10.00"> n4 :NodePO </text>
<polygon fill="none" stroke="black" points="112,-660 112,-680 166,-680 166,-660 112,-660"/>
<text text-anchor="start" x="135.5" y="-668" font-family="Arial" font-size="10.00"> &#160;</text>
</g>
<!-- e3&#45;&#45;n4 -->
<g id="edge40" class="edge"><title>e3&#45;&#45;n4</title>
<path fill="none" stroke="black" d="M145.541,-738.14C144.26,-726.759 142.7,-712.893 141.425,-701.557"/>
<text text-anchor="middle" x="146.638" y="-707.591" font-family="Arial" font-size="10.00">tgt</text>
</g>
<!-- e17 -->
<g id="node27" class="node"><title>e17</title>
<a xlink:href="../../SDMLib/src/org/sdmlib/examples/helloworld/model/Edge.java" xlink:title="&lt;TABLE&gt;">
<polygon fill="none" stroke="black" points="111,-352 111,-369 182,-369 182,-352 111,-352"/>
<text text-anchor="start" x="122" y="-358.5" font-family="Arial" font-size="10.00"> </text>
<text text-anchor="start" x="126" y="-358.5" font-family="Arial" font-size="10.00">e17 :Edge</text>
</a>
<polygon fill="none" stroke="black" points="111,-332 111,-352 182,-352 182,-332 111,-332"/>
<text text-anchor="start" x="116" y="-340" font-family="Arial" font-size="10.00">name = &quot;e16&quot;</text>
</g>
<!-- e3&#45;&#45;e17 -->
<g id="edge20" class="edge"><title>e3&#45;&#45;e17</title>
<path fill="none" stroke="black" stroke-dasharray="1,5" d="M120.526,-738.255C87.9449,-709.811 38,-656.643 38,-598 38,-598 38,-598 38,-514 38,-455.522 87.3215,-402.099 119.303,-373.604"/>
<text text-anchor="middle" x="115.511" y="-380.357" font-family="Arial" font-size="10.00">candidate</text>
</g>
<!-- e18 -->
<g id="node28" class="node"><title>e18</title>
<a xlink:href="../../SDMLib/src/org/sdmlib/examples/helloworld/model/Edge.java" xlink:title="&lt;TABLE&gt;">
<polygon fill="none" stroke="black" points="281,-352 281,-369 352,-369 352,-352 281,-352"/>
<text text-anchor="start" x="292" y="-358.5" font-family="Arial" font-size="10.00"> </text>
<text text-anchor="start" x="296" y="-358.5" font-family="Arial" font-size="10.00">e18 :Edge</text>
</a>
<polygon fill="none" stroke="black" points="281,-332 281,-352 352,-352 352,-332 281,-332"/>
<text text-anchor="start" x="286" y="-340" font-family="Arial" font-size="10.00">name = &quot;e17&quot;</text>
</g>
<!-- e3&#45;&#45;e18 -->
<g id="edge22" class="edge"><title>e3&#45;&#45;e18</title>
<path fill="none" stroke="black" stroke-dasharray="1,5" d="M163.323,-738.456C196.508,-690.471 274.631,-570.02 307,-456 314.869,-428.28 316.435,-394.874 316.492,-373.539"/>
<text text-anchor="middle" x="320.628" y="-380.144" font-family="Arial" font-size="10.00">candidate</text>
</g>
<!-- e5 -->
<g id="node5" class="node"><title>e5</title>
<polygon fill="deepskyblue" stroke="deepskyblue" points="150,-578.5 150,-615.5 204,-615.5 204,-578.5 150,-578.5"/>
<polygon fill="none" stroke="black" points="150,-598 150,-615 204,-615 204,-598 150,-598"/>
<text text-anchor="start" x="153.5" y="-604.5" font-family="Arial" font-size="10.00"> </text>
<text text-anchor="start" x="157.5" y="-604.5" font-family="Arial" font-size="10.00"> e5 :EdgePO </text>
<polygon fill="none" stroke="black" points="150,-578 150,-598 204,-598 204,-578 150,-578"/>
<text text-anchor="start" x="173.5" y="-586" font-family="Arial" font-size="10.00"> &#160;</text>
</g>
<!-- n4&#45;&#45;e5 -->
<g id="edge42" class="edge"><title>n4&#45;&#45;e5</title>
<path fill="none" stroke="black" d="M149.384,-656.14C154.789,-644.759 161.376,-630.893 166.76,-619.557"/>
<text text-anchor="middle" x="166.689" y="-627.057" font-family="Arial" font-size="10.00">outEdges</text>
</g>
<!-- n4&#45;&#45;n16 -->
<g id="edge24" class="edge"><title>n4&#45;&#45;n16</title>
<path fill="none" stroke="black" stroke-dasharray="1,5" d="M136.323,-656.442C132.453,-621.706 126.442,-551.247 133,-492 134.351,-479.795 137.255,-466.404 139.976,-455.567"/>
<text text-anchor="middle" x="141.908" y="-462.879" font-family="Arial" font-size="10.00">match</text>
</g>
<!-- n6 -->
<g id="node6" class="node"><title>n6</title>
<polygon fill="deepskyblue" stroke="deepskyblue" points="150,-496.5 150,-533.5 204,-533.5 204,-496.5 150,-496.5"/>
<polygon fill="none" stroke="black" points="150,-516 150,-533 204,-533 204,-516 150,-516"/>
<text text-anchor="start" x="153.5" y="-522.5" font-family="Arial" font-size="10.00"> </text>
<text text-anchor="start" x="157.5" y="-522.5" font-family="Arial" font-size="10.00"> n6 :NodePO </text>
<polygon fill="none" stroke="black" points="150,-496 150,-516 204,-516 204,-496 150,-496"/>
<text text-anchor="start" x="173.5" y="-504" font-family="Arial" font-size="10.00"> &#160;</text>
</g>
<!-- e5&#45;&#45;n6 -->
<g id="edge44" class="edge"><title>e5&#45;&#45;n6</title>
<path fill="none" stroke="black" d="M177,-574.14C177,-562.759 177,-548.893 177,-537.557"/>
<text text-anchor="middle" x="181.226" y="-544.12" font-family="Arial" font-size="10.00">tgt</text>
</g>
<!-- e5&#45;&#45;e17 -->
<g id="edge26" class="edge"><title>e5&#45;&#45;e17</title>
<path fill="none" stroke="black" stroke-dasharray="1,5" d="M158.384,-574.093C137.706,-548 105.923,-502.12 96,-456 91.6995,-436.013 88.8797,-429.164 96,-410 101.093,-396.292 111.041,-383.655 120.731,-373.701"/>
<text text-anchor="middle" x="117.557" y="-380.683" font-family="Arial" font-size="10.00">candidate</text>
</g>
<!-- e5&#45;&#45;e18 -->
<g id="edge28" class="edge"><title>e5&#45;&#45;e18</title>
<path fill="none" stroke="black" stroke-dasharray="1,5" d="M197.473,-574.408C221.281,-548.254 260.331,-501.963 284,-456 297.838,-429.128 306.878,-395.221 311.713,-373.57"/>
<text text-anchor="middle" x="313.796" y="-380.85" font-family="Arial" font-size="10.00">candidate</text>
</g>
<!-- e7 -->
<g id="node7" class="node"><title>e7</title>
<polygon fill="deepskyblue" stroke="deepskyblue" points="213,-414.5 213,-451.5 267,-451.5 267,-414.5 213,-414.5"/>
<polygon fill="none" stroke="black" points="213,-434 213,-451 267,-451 267,-434 213,-434"/>
<text text-anchor="start" x="216.5" y="-440.5" font-family="Arial" font-size="10.00"> </text>
<text text-anchor="start" x="220.5" y="-440.5" font-family="Arial" font-size="10.00"> e7 :EdgePO </text>
<polygon fill="none" stroke="black" points="213,-414 213,-434 267,-434 267,-414 213,-414"/>
<text text-anchor="start" x="236.5" y="-422" font-family="Arial" font-size="10.00"> &#160;</text>
</g>
<!-- n6&#45;&#45;e7 -->
<g id="edge46" class="edge"><title>n6&#45;&#45;e7</title>
<path fill="none" stroke="black" d="M194.215,-492.14C203.177,-480.759 214.097,-466.893 223.024,-455.557"/>
<text text-anchor="middle" x="220.737" y="-462.792" font-family="Arial" font-size="10.00">outEdges</text>
</g>
<!-- n6&#45;&#45;n16 -->
<g id="edge30" class="edge"><title>n6&#45;&#45;n16</title>
<path fill="none" stroke="black" stroke-dasharray="1,5" d="M168.529,-492.14C164.119,-480.759 158.746,-466.893 154.353,-455.557"/>
<text text-anchor="middle" x="161.569" y="-459.981" font-family="Arial" font-size="10.00">match</text>
</g>
<!-- e7&#45;&#45;n2 -->
<g id="edge48" class="edge"><title>e7&#45;&#45;n2</title>
<path fill="none" stroke="black" d="M238.333,-455.547C233.513,-522.813 221.867,-727.768 254,-784 265.989,-804.981 289.011,-819.61 308.768,-828.928"/>
<text text-anchor="middle" x="298.77" y="-826.221" font-family="Arial" font-size="10.00">tgt</text>
</g>
<!-- e7&#45;&#45;e17 -->
<g id="edge32" class="edge"><title>e7&#45;&#45;e17</title>
<path fill="none" stroke="black" stroke-dasharray="1,5" d="M214.314,-410.14C200.942,-398.759 184.649,-384.893 171.329,-373.557"/>
<text text-anchor="middle" x="180.97" y="-373.712" font-family="Arial" font-size="10.00">candidate</text>
</g>
<!-- e7&#45;&#45;e18 -->
<g id="edge34" class="edge"><title>e7&#45;&#45;e18</title>
<path fill="none" stroke="black" stroke-dasharray="1,5" d="M260.767,-410.14C271.579,-398.759 284.752,-384.893 295.521,-373.557"/>
<text text-anchor="middle" x="292.343" y="-380.538" font-family="Arial" font-size="10.00">candidate</text>
</g>
<!-- matchIsomorphic -->
<g id="node8" class="node"><title>matchIsomorphic</title>
<text text-anchor="middle" x="736" y="-929.5" font-family="Arial" font-size="10.00">matchIsomorphic</text>
</g>
<!-- allMatches -->
<g id="node9" class="node"><title>allMatches</title>
<text text-anchor="middle" x="832" y="-929.5" font-family="Arial" font-size="10.00">allMatches</text>
</g>
<!-- g8&#45;&#45;n9 -->
<g id="edge70" class="edge"><title>g8&#45;&#45;n9</title>
<path fill="none" stroke="black" d="M878.894,-824.838C857.008,-812.763 827.555,-796.513 804.083,-783.563"/>
<text text-anchor="middle" x="814.06" y="-781.741" font-family="Arial" font-size="10.00">nodes</text>
<text text-anchor="middle" x="868.917" y="-821.66" font-family="Arial" font-size="10.00">graph</text>
</g>
<!-- e19 -->
<g id="node12" class="node"><title>e19</title>
<a xlink:href="../../SDMLib/src/org/sdmlib/examples/helloworld/model/Edge.java" xlink:title="&lt;TABLE&gt;">
<polygon fill="none" stroke="black" points="765,-680 765,-697 836,-697 836,-680 765,-680"/>
<text text-anchor="start" x="776" y="-686.5" font-family="Arial" font-size="10.00"> </text>
<text text-anchor="start" x="780" y="-686.5" font-family="Arial" font-size="10.00">e19 :Edge</text>
</a>
<polygon fill="none" stroke="black" points="765,-660 765,-680 836,-680 836,-660 765,-660"/>
<text text-anchor="start" x="770" y="-668" font-family="Arial" font-size="10.00">name = &quot;e10&quot;</text>
</g>
<!-- g8&#45;&#45;e19 -->
<g id="edge54" class="edge"><title>g8&#45;&#45;e19</title>
<path fill="none" stroke="black" d="M892.759,-824.838C882.076,-813.724 868.448,-798.641 858,-784 838.786,-757.075 820.933,-723.181 810.245,-701.547"/>
<text text-anchor="middle" x="818.076" y="-705.267" font-family="Arial" font-size="10.00">edges</text>
<text text-anchor="middle" x="883.446" y="-818.693" font-family="Arial" font-size="10.00">graph</text>
</g>
<!-- g8&#45;&#45;n10 -->
<g id="edge72" class="edge"><title>g8&#45;&#45;n10</title>
<path fill="none" stroke="black" d="M905.269,-824.799C894.186,-784.877 866.399,-686.981 852,-656 846.11,-643.327 837.876,-630.123 830.67,-619.521"/>
<text text-anchor="middle" x="839.234" y="-622.183" font-family="Arial" font-size="10.00">nodes</text>
<text text-anchor="middle" x="898.76" y="-814.707" font-family="Arial" font-size="10.00">graph</text>
</g>
<!-- e20 -->
<g id="node14" class="node"><title>e20</title>
<a xlink:href="../../SDMLib/src/org/sdmlib/examples/helloworld/model/Edge.java" xlink:title="&lt;TABLE&gt;">
<polygon fill="none" stroke="black" points="879,-516 879,-533 950,-533 950,-516 879,-516"/>
<text text-anchor="start" x="890" y="-522.5" font-family="Arial" font-size="10.00"> </text>
<text text-anchor="start" x="894" y="-522.5" font-family="Arial" font-size="10.00">e20 :Edge</text>
</a>
<polygon fill="none" stroke="black" points="879,-496 879,-516 950,-516 950,-496 879,-496"/>
<text text-anchor="start" x="884" y="-504" font-family="Arial" font-size="10.00">name = &quot;e11&quot;</text>
</g>
<!-- g8&#45;&#45;e20 -->
<g id="edge56" class="edge"><title>g8&#45;&#45;e20</title>
<path fill="none" stroke="black" d="M915.247,-824.937C918.488,-813.484 922.336,-797.989 924,-784 934.837,-692.919 923.073,-583.314 917.075,-537.63"/>
<text text-anchor="middle" x="922.394" y="-543.599" font-family="Arial" font-size="10.00">edges</text>
<text text-anchor="middle" x="913.604" y="-812.572" font-family="Arial" font-size="10.00">graph</text>
</g>
<!-- g8&#45;&#45;n11 -->
<g id="edge74" class="edge"><title>g8&#45;&#45;n11</title>
<path fill="none" stroke="black" d="M924.295,-824.791C946.31,-796.481 986,-737.472 986,-680 986,-680 986,-680 986,-596 986,-548.931 984.692,-535.199 966,-492 960.372,-478.993 951.428,-466.068 943.237,-455.733"/>
<text text-anchor="middle" x="952.142" y="-457.782" font-family="Arial" font-size="10.00">nodes</text>
<text text-anchor="middle" x="926.379" y="-812.511" font-family="Arial" font-size="10.00">graph</text>
</g>
<!-- e21 -->
<g id="node16" class="node"><title>e21</title>
<a xlink:href="../../SDMLib/src/org/sdmlib/examples/helloworld/model/Edge.java" xlink:title="&lt;TABLE&gt;">
<polygon fill="none" stroke="black" points="838,-352 838,-369 909,-369 909,-352 838,-352"/>
<text text-anchor="start" x="849" y="-358.5" font-family="Arial" font-size="10.00"> </text>
<text text-anchor="start" x="853" y="-358.5" font-family="Arial" font-size="10.00">e21 :Edge</text>
</a>
<polygon fill="none" stroke="black" points="838,-332 838,-352 909,-352 909,-332 838,-332"/>
<text text-anchor="start" x="843" y="-340" font-family="Arial" font-size="10.00">name = &quot;e12&quot;</text>
</g>
<!-- g8&#45;&#45;e21 -->
<g id="edge58" class="edge"><title>g8&#45;&#45;e21</title>
<path fill="none" stroke="black" d="M934.669,-824.839C948.476,-814.285 965.226,-799.785 977,-784 1007.33,-743.341 1024,-730.723 1024,-680 1024,-680 1024,-680 1024,-514 1024,-462.713 1008.92,-447.567 974,-410 958.032,-392.819 935.797,-379.3 916.254,-369.651"/>
<text text-anchor="middle" x="926.248" y="-367.482" font-family="Arial" font-size="10.00">edges</text>
<text text-anchor="middle" x="939.232" y="-813.44" font-family="Arial" font-size="10.00">graph</text>
</g>
<!-- e22 -->
<g id="node17" class="node"><title>e22</title>
<a xlink:href="../../SDMLib/src/org/sdmlib/examples/helloworld/model/Edge.java" xlink:title="&lt;TABLE&gt;">
<polygon fill="none" stroke="black" points="1031,-352 1031,-369 1102,-369 1102,-352 1031,-352"/>
<text text-anchor="start" x="1042" y="-358.5" font-family="Arial" font-size="10.00"> </text>
<text text-anchor="start" x="1046" y="-358.5" font-family="Arial" font-size="10.00">e22 :Edge</text>
</a>
<polygon fill="none" stroke="black" points="1031,-332 1031,-352 1102,-352 1102,-332 1031,-332"/>
<text text-anchor="start" x="1036" y="-340" font-family="Arial" font-size="10.00">name = &quot;e13&quot;</text>
</g>
<!-- g8&#45;&#45;e22 -->
<g id="edge60" class="edge"><title>g8&#45;&#45;e22</title>
<path fill="none" stroke="black" d="M945.27,-839.443C983.14,-834.762 1042.38,-821.511 1076,-784 1107.66,-748.674 1100,-727.437 1100,-680 1100,-680 1100,-680 1100,-514 1100,-462.847 1083.56,-404.508 1073.55,-373.707"/>
<text text-anchor="middle" x="1080.31" y="-378.572" font-family="Arial" font-size="10.00">edges</text>
<text text-anchor="middle" x="953.658" y="-831.499" font-family="Arial" font-size="10.00">graph</text>
</g>
<!-- g8&#45;&#45;n12 -->
<g id="edge76" class="edge"><title>g8&#45;&#45;n12</title>
<path fill="none" stroke="black" d="M945.245,-840.708C987.821,-837.275 1059.06,-825.256 1102,-784 1137.27,-750.11 1138,-728.913 1138,-680 1138,-680 1138,-680 1138,-432 1138,-384.931 1138.92,-370.167 1118,-328 1111.27,-314.431 1100.48,-301.633 1090.46,-291.529"/>
<text text-anchor="middle" x="1099.81" y="-292.583" font-family="Arial" font-size="10.00">nodes</text>
<text text-anchor="middle" x="953.861" y="-833.132" font-family="Arial" font-size="10.00">graph</text>
</g>
<!-- e23 -->
<g id="node19" class="node"><title>e23</title>
<a xlink:href="../../SDMLib/src/org/sdmlib/examples/helloworld/model/Edge.java" xlink:title="&lt;TABLE&gt;">
<polygon fill="none" stroke="black" points="1031,-188 1031,-205 1102,-205 1102,-188 1031,-188"/>
<text text-anchor="start" x="1042" y="-194.5" font-family="Arial" font-size="10.00"> </text>
<text text-anchor="start" x="1046" y="-194.5" font-family="Arial" font-size="10.00">e23 :Edge</text>
</a>
<polygon fill="none" stroke="black" points="1031,-168 1031,-188 1102,-188 1102,-168 1031,-168"/>
<text text-anchor="start" x="1036" y="-176" font-family="Arial" font-size="10.00">name = &quot;e14&quot;</text>
</g>
<!-- g8&#45;&#45;e23 -->
<g id="edge62" class="edge"><title>g8&#45;&#45;e23</title>
<path fill="none" stroke="black" d="M945.139,-842.016C992.96,-840.193 1078.67,-830.123 1132,-784 1169.96,-751.169 1176,-730.189 1176,-680 1176,-680 1176,-680 1176,-350 1176,-291.357 1126.06,-238.189 1093.47,-209.745"/>
<text text-anchor="middle" x="1103.03" y="-210.193" font-family="Arial" font-size="10.00">edges</text>
<text text-anchor="middle" x="953.964" y="-834.813" font-family="Arial" font-size="10.00">graph</text>
</g>
<!-- g8&#45;&#45;n13 -->
<g id="edge78" class="edge"><title>g8&#45;&#45;n13</title>
<path fill="none" stroke="black" d="M945.015,-827.249C965.342,-817.336 990.337,-802.671 1008,-784 1043.79,-746.165 1062,-732.082 1062,-680 1062,-680 1062,-680 1062,-514 1062,-448.077 1024.05,-438.991 1013,-374 997.363,-281.986 995.486,-255.675 1013,-164 1015.38,-151.551 1020.39,-138.367 1025.12,-127.719"/>
<text text-anchor="middle" x="1025.37" y="-135.216" font-family="Arial" font-size="10.00">nodes</text>
<text text-anchor="middle" x="951.229" y="-816.913" font-family="Arial" font-size="10.00">graph</text>
</g>
<!-- e24 -->
<g id="node21" class="node"><title>e24</title>
<a xlink:href="../../SDMLib/src/org/sdmlib/examples/helloworld/model/Edge.java" xlink:title="&lt;TABLE&gt;">
<polygon fill="none" stroke="black" points="1172,-24 1172,-41 1243,-41 1243,-24 1172,-24"/>
<text text-anchor="start" x="1183" y="-30.5" font-family="Arial" font-size="10.00"> </text>
<text text-anchor="start" x="1187" y="-30.5" font-family="Arial" font-size="10.00">e24 :Edge</text>
</a>
<polygon fill="none" stroke="black" points="1172,-4 1172,-24 1243,-24 1243,-4 1172,-4"/>
<text text-anchor="start" x="1177" y="-12" font-family="Arial" font-size="10.00">name = &quot;e18&quot;</text>
</g>
<!-- g8&#45;&#45;e24 -->
<g id="edge50" class="edge"><title>g8&#45;&#45;e24</title>
<path fill="none" stroke="black" d="M945.017,-838.731C1012.71,-831.814 1158.37,-813.832 1198,-784 1239.61,-752.676 1252,-732.082 1252,-680 1252,-680 1252,-680 1252,-186 1252,-134.188 1230.37,-76.3436 1217.1,-45.7405"/>
<text text-anchor="middle" x="1224.51" y="-49.9499" font-family="Arial" font-size="10.00">edges</text>
<text text-anchor="middle" x="953.578" y="-831.063" font-family="Arial" font-size="10.00">graph</text>
</g>
<!-- e25 -->
<g id="node22" class="node"><title>e25</title>
<a xlink:href="../../SDMLib/src/org/sdmlib/examples/helloworld/model/Edge.java" xlink:title="&lt;TABLE&gt;">
<polygon fill="none" stroke="black" points="910,-24 910,-41 981,-41 981,-24 910,-24"/>
<text text-anchor="start" x="921" y="-30.5" font-family="Arial" font-size="10.00"> </text>
<text text-anchor="start" x="925" y="-30.5" font-family="Arial" font-size="10.00">e25 :Edge</text>
</a>
<polygon fill="none" stroke="black" points="910,-4 910,-24 981,-24 981,-4 910,-4"/>
<text text-anchor="start" x="915" y="-12" font-family="Arial" font-size="10.00">name = &quot;e15&quot;</text>
</g>
<!-- g8&#45;&#45;e25 -->
<g id="edge64" class="edge"><title>g8&#45;&#45;e25</title>
<path fill="none" stroke="black" d="M874.984,-840.023C832.527,-835.899 760.961,-823.184 715,-784 522.127,-619.568 468,-523.452 468,-270 468,-270 468,-270 468,-186 468,-94.9342 783.652,-44.8256 901.405,-29.3011"/>
<text text-anchor="middle" x="893.015" y="-32.2423" font-family="Arial" font-size="10.00">edges</text>
<text text-anchor="middle" x="865.508" y="-840.718" font-family="Arial" font-size="10.00">graph</text>
</g>
<!-- e26 -->
<g id="node23" class="node"><title>e26</title>
<a xlink:href="../../SDMLib/src/org/sdmlib/examples/helloworld/model/Edge.java" xlink:title="&lt;TABLE&gt;">
<polygon fill="none" stroke="black" points="1023,-24 1023,-41 1094,-41 1094,-24 1023,-24"/>
<text text-anchor="start" x="1034" y="-30.5" font-family="Arial" font-size="10.00"> </text>
<text text-anchor="start" x="1038" y="-30.5" font-family="Arial" font-size="10.00">e26 :Edge</text>
</a>
<polygon fill="none" stroke="black" points="1023,-4 1023,-24 1094,-24 1094,-4 1023,-4"/>
<text text-anchor="start" x="1028" y="-12" font-family="Arial" font-size="10.00">name = &quot;e19&quot;</text>
</g>
<!-- g8&#45;&#45;e26 -->
<g id="edge52" class="edge"><title>g8&#45;&#45;e26</title>
<path fill="none" stroke="black" d="M945.246,-837.767C1006.77,-829.77 1130.41,-810.804 1164,-784 1204.09,-752.008 1214,-731.287 1214,-680 1214,-680 1214,-680 1214,-186 1214,-120.795 1147.61,-71.7224 1101.45,-45.4829"/>
<text text-anchor="middle" x="1111.4" y="-43.9859" font-family="Arial" font-size="10.00">edges</text>
<text text-anchor="middle" x="953.661" y="-829.866" font-family="Arial" font-size="10.00">graph</text>
</g>
<!-- g8&#45;&#45;n14 -->
<g id="edge80" class="edge"><title>g8&#45;&#45;n14</title>
<path fill="none" stroke="black" d="M874.86,-840.253C803.258,-835.992 635.836,-822.436 501,-784 498.081,-783.168 495.111,-782.2 492.148,-781.144"/>
<text text-anchor="middle" x="502.101" y="-777.679" font-family="Arial" font-size="10.00">nodes</text>
<text text-anchor="middle" x="865.542" y="-841.383" font-family="Arial" font-size="10.00">graph</text>
</g>
<!-- g8&#45;&#45;n15 -->
<g id="edge82" class="edge"><title>g8&#45;&#45;n15</title>
<path fill="none" stroke="black" d="M874.835,-837.529C817.678,-829.766 701.404,-811.901 606,-784 601.459,-782.672 596.775,-781.111 592.145,-779.444"/>
<text text-anchor="middle" x="602.101" y="-776.014" font-family="Arial" font-size="10.00">nodes</text>
<text text-anchor="middle" x="865.275" y="-837.961" font-family="Arial" font-size="10.00">graph</text>
</g>
<!-- g8&#45;&#45;n16 -->
<g id="edge84" class="edge"><title>g8&#45;&#45;n16</title>
<path fill="none" stroke="black" d="M874.706,-836.058C829.094,-827.701 747.736,-810.469 682,-784 643.596,-768.537 637.473,-757.589 601,-738 569.831,-721.26 560.359,-720.169 530,-702 391.18,-618.92 236.144,-503.061 173.987,-455.586"/>
<text text-anchor="middle" x="183.761" y="-455.201" font-family="Arial" font-size="10.00">nodes</text>
<text text-anchor="middle" x="865.016" y="-836.031" font-family="Arial" font-size="10.00">graph</text>
</g>
<!-- g8&#45;&#45;e17 -->
<g id="edge66" class="edge"><title>g8&#45;&#45;e17</title>
<path fill="none" stroke="black" d="M874.706,-836.058C829.094,-827.701 747.736,-810.469 682,-784 643.596,-768.537 637.473,-757.589 601,-738 569.831,-721.26 557.732,-723.97 530,-702 396.988,-596.625 420.688,-510.561 284,-410 255.426,-388.978 218.089,-373.884 189.458,-364.374"/>
<text text-anchor="middle" x="199.401" y="-360.808" font-family="Arial" font-size="10.00">edges</text>
<text text-anchor="middle" x="865.016" y="-836.031" font-family="Arial" font-size="10.00">graph</text>
</g>
<!-- g8&#45;&#45;e18 -->
<g id="edge68" class="edge"><title>g8&#45;&#45;e18</title>
<path fill="none" stroke="black" d="M912.449,-824.939C918.081,-778.759 927.063,-649.709 865,-574 732.525,-412.398 464.344,-367.465 359.449,-355.809"/>
<text text-anchor="middle" x="368.972" y="-350.257" font-family="Arial" font-size="10.00">edges</text>
<text text-anchor="middle" x="909.201" y="-812.982" font-family="Arial" font-size="10.00">graph</text>
</g>
<!-- n9&#45;&#45;e19 -->
<g id="edge88" class="edge"><title>n9&#45;&#45;e19</title>
<path fill="none" stroke="black" d="M774.564,-738.14C779.543,-726.759 785.609,-712.893 790.569,-701.557"/>
<text text-anchor="middle" x="790.808" y="-709.054" font-family="Arial" font-size="10.00">outEdges</text>
<text text-anchor="middle" x="774.325" y="-725.643" font-family="Arial" font-size="10.00">src</text>
</g>
<!-- n9&#45;&#45;e21 -->
<g id="edge86" class="edge"><title>n9&#45;&#45;e21</title>
<path fill="none" stroke="black" d="M756.573,-738.332C752.835,-727.584 748.865,-714.3 747,-702 743.936,-681.787 744.795,-676.325 747,-656 759.26,-542.971 828.597,-421.971 858.865,-373.691"/>
<text text-anchor="middle" x="857.736" y="-381.127" font-family="Arial" font-size="10.00">inEdges</text>
<text text-anchor="middle" x="749.644" y="-728.621" font-family="Arial" font-size="10.00">tgt</text>
</g>
<!-- e19&#45;&#45;n10 -->
<g id="edge90" class="edge"><title>e19&#45;&#45;n10</title>
<path fill="none" stroke="black" d="M804.099,-656.14C806.233,-644.759 808.833,-630.893 810.958,-619.557"/>
<text text-anchor="middle" x="813.442" y="-626.744" font-family="Arial" font-size="10.00">tgt</text>
<text text-anchor="middle" x="801.615" y="-643.953" font-family="Arial" font-size="10.00">inEdges</text>
</g>
<!-- n10&#45;&#45;e20 -->
<g id="edge92" class="edge"><title>n10&#45;&#45;e20</title>
<path fill="none" stroke="black" d="M841.791,-574.351C855.878,-562.967 873.098,-549.052 887.188,-537.666"/>
<text text-anchor="middle" x="882.795" y="-544.15" font-family="Arial" font-size="10.00">outEdges</text>
<text text-anchor="middle" x="846.184" y="-562.867" font-family="Arial" font-size="10.00">src</text>
</g>
<!-- e20&#45;&#45;n11 -->
<g id="edge94" class="edge"><title>e20&#45;&#45;n11</title>
<path fill="none" stroke="black" d="M916.733,-492.14C918.155,-480.759 919.888,-466.893 921.305,-455.557"/>
<text text-anchor="middle" x="924.375" y="-462.574" font-family="Arial" font-size="10.00">tgt</text>
<text text-anchor="middle" x="913.663" y="-480.122" font-family="Arial" font-size="10.00">inEdges</text>
</g>
<!-- n11&#45;&#45;e21 -->
<g id="edge98" class="edge"><title>n11&#45;&#45;e21</title>
<path fill="none" stroke="black" d="M910.064,-410.14C902.809,-398.759 893.969,-384.893 886.743,-373.557"/>
<text text-anchor="middle" x="895.178" y="-376.427" font-family="Arial" font-size="10.00">outEdges</text>
<text text-anchor="middle" x="901.628" y="-402.269" font-family="Arial" font-size="10.00">src</text>
</g>
<!-- n11&#45;&#45;e22 -->
<g id="edge100" class="edge"><title>n11&#45;&#45;e22</title>
<path fill="none" stroke="black" d="M962.427,-410.351C982.633,-398.967 1007.33,-385.052 1027.54,-373.666"/>
<text text-anchor="middle" x="1021.72" y="-379.297" font-family="Arial" font-size="10.00">outEdges</text>
<text text-anchor="middle" x="968.249" y="-399.72" font-family="Arial" font-size="10.00">src</text>
</g>
<!-- n11&#45;&#45;e25 -->
<g id="edge96" class="edge"><title>n11&#45;&#45;e25</title>
<path fill="none" stroke="black" d="M928.609,-410.367C934.79,-379.412 945,-320.623 945,-270 945,-270 945,-270 945,-186 945,-135.797 945,-76.8425 945,-45.7485"/>
<text text-anchor="middle" x="949.226" y="-52.3116" font-family="Arial" font-size="10.00">inEdges</text>
<text text-anchor="middle" x="926.19" y="-398.164" font-family="Arial" font-size="10.00">tgt</text>
</g>
<!-- e22&#45;&#45;n12 -->
<g id="edge102" class="edge"><title>e22&#45;&#45;n12</title>
<path fill="none" stroke="black" d="M1066,-328.14C1066,-316.759 1066,-302.893 1066,-291.557"/>
<text text-anchor="middle" x="1070.23" y="-298.12" font-family="Arial" font-size="10.00">tgt</text>
<text text-anchor="middle" x="1061.77" y="-316.577" font-family="Arial" font-size="10.00">inEdges</text>
</g>
<!-- n12&#45;&#45;e23 -->
<g id="edge104" class="edge"><title>n12&#45;&#45;e23</title>
<path fill="none" stroke="black" d="M1066,-246.14C1066,-234.759 1066,-220.893 1066,-209.557"/>
<text text-anchor="middle" x="1070.23" y="-216.12" font-family="Arial" font-size="10.00">outEdges</text>
<text text-anchor="middle" x="1061.77" y="-234.577" font-family="Arial" font-size="10.00">src</text>
</g>
<!-- e23&#45;&#45;n13 -->
<g id="edge106" class="edge"><title>e23&#45;&#45;n13</title>
<path fill="none" stroke="black" d="M1057.8,-164.14C1053.53,-152.759 1048.33,-138.893 1044.08,-127.557"/>
<text text-anchor="middle" x="1051.22" y="-132.059" font-family="Arial" font-size="10.00">tgt</text>
<text text-anchor="middle" x="1050.66" y="-154.638" font-family="Arial" font-size="10.00">inEdges</text>
</g>
<!-- n13&#45;&#45;e24 -->
<g id="edge110" class="edge"><title>n13&#45;&#45;e24</title>
<path fill="none" stroke="black" d="M1077.39,-84.6342C1103.49,-72.4262 1137.13,-56.6869 1163.6,-44.3037"/>
<text text-anchor="middle" x="1157.18" y="-49.4722" font-family="Arial" font-size="10.00">outEdges</text>
<text text-anchor="middle" x="1083.81" y="-74.4657" font-family="Arial" font-size="10.00">src</text>
</g>
<!-- n13&#45;&#45;e25 -->
<g id="edge112" class="edge"><title>n13&#45;&#45;e25</title>
<path fill="none" stroke="black" d="M1011.13,-82.1396C998.188,-70.759 982.416,-56.8929 969.521,-45.5569"/>
<text text-anchor="middle" x="979.118" y="-45.8668" font-family="Arial" font-size="10.00">outEdges</text>
<text text-anchor="middle" x="1001.54" y="-76.8297" font-family="Arial" font-size="10.00">src</text>
</g>
<!-- n13&#45;&#45;e26 -->
<g id="edge108" class="edge"><title>n13&#45;&#45;e26</title>
<path fill="none" stroke="black" d="M1042.01,-82.1396C1045.14,-70.759 1048.95,-56.8929 1052.07,-45.5569"/>
<text text-anchor="middle" x="1053.74" y="-52.9162" font-family="Arial" font-size="10.00">inEdges</text>
<text text-anchor="middle" x="1040.34" y="-69.7804" font-family="Arial" font-size="10.00">tgt</text>
</g>
<!-- n16&#45;&#45;e17 -->
<g id="edge114" class="edge"><title>n16&#45;&#45;e17</title>
<path fill="none" stroke="black" d="M146,-410.14C146,-398.759 146,-384.893 146,-373.557"/>
<text text-anchor="middle" x="150.226" y="-380.12" font-family="Arial" font-size="10.00">inEdges_outEdges</text>
<text text-anchor="middle" x="141.774" y="-398.577" font-family="Arial" font-size="10.00">tgt_src</text>
</g>
<!-- n16&#45;&#45;e18 -->
<g id="edge116" class="edge"><title>n16&#45;&#45;e18</title>
<path fill="none" stroke="black" d="M187.152,-412.634C212.996,-400.472 246.287,-384.806 272.555,-372.445"/>
<text text-anchor="middle" x="266.154" y="-377.628" font-family="Arial" font-size="10.00">inEdges_outEdges</text>
<text text-anchor="middle" x="193.553" y="-402.451" font-family="Arial" font-size="10.00">tgt_src</text>
</g>
</g>
</svg>
