<?xml version="1.0" encoding="UTF-8" standalone="no"?>
<!DOCTYPE svg PUBLIC "-//W3C//DTD SVG 1.1//EN"
 "http://www.w3.org/Graphics/SVG/1.1/DTD/svg11.dtd">
<!-- Generated by graphviz version 2.28.0 (20110507.0327)
 -->
<!-- Title: ObjectDiagram Pages: 1 -->
<svg width="390pt" height="246pt"
 viewBox="0.00 0.00 390.00 246.00" xmlns="http://www.w3.org/2000/svg" xmlns:xlink="http://www.w3.org/1999/xlink">
<g id="graph1" class="graph" transform="scale(1 1) rotate(0) translate(4 242)">
<title>ObjectDiagram</title>
<polygon fill="white" stroke="white" points="-4,5 -4,-242 387,-242 387,5 -4,5"/>
<!-- g1 -->
<g id="node1" class="node"><title>g1</title>
<polygon fill="deepskyblue" stroke="deepskyblue" points="146.5,-182.5 146.5,-233.5 221.5,-233.5 221.5,-182.5 146.5,-182.5"/>
<text text-anchor="start" x="185" y="-223.5" font-family="Times New Roman,serif" font-size="10.00" fill="green">«create»</text>
<polygon fill="none" stroke="green" points="147,-202 147,-218 222,-218 222,-202 147,-202"/>
<text text-anchor="start" x="150.5" y="-208" font-family="Times New Roman,serif" font-size="10.00"> </text>
<text text-anchor="start" x="153.5" y="-208" font-family="Times New Roman,serif" font-size="10.00" fill="green"> g1 :GreetingPO </text>
<polygon fill="none" stroke="green" points="147,-182 147,-202 222,-202 222,-182 147,-182"/>
<text text-anchor="start" x="182" y="-190" font-family="Times New Roman,serif" font-size="10.00"> &#160;</text>
</g>
<!-- g2 -->
<g id="node2" class="node"><title>g2</title>
<polygon fill="deepskyblue" stroke="deepskyblue" points="8,-86.5 8,-137.5 120,-137.5 120,-86.5 8,-86.5"/>
<text text-anchor="start" x="83" y="-127.5" font-family="Times New Roman,serif" font-size="10.00" fill="green">«create»</text>
<polygon fill="none" stroke="green" points="8,-106 8,-122 120,-122 120,-106 8,-106"/>
<text text-anchor="start" x="11.5" y="-112" font-family="Times New Roman,serif" font-size="10.00"> </text>
<text text-anchor="start" x="14.5" y="-112" font-family="Times New Roman,serif" font-size="10.00" fill="green"> g2 :GreetingMessagePO </text>
<polygon fill="none" stroke="green" points="8,-86 8,-106 120,-106 120,-86 8,-86"/>
<text text-anchor="start" x="33.5" y="-94" font-family="Times New Roman,serif" font-size="10.00" fill="green"> text := &quot;Hello&quot; </text>
</g>
<!-- g1&#45;&#45;g2 -->
<g id="edge8" class="edge"><title>g1&#45;&#45;g2</title>
<path fill="none" stroke="green" d="M147.344,-178.286C132.456,-166.624 115.296,-153.182 100.432,-141.538"/>
<text text-anchor="middle" x="110.172" y="-141.3" font-family="Times New Roman,serif" font-size="10.00" fill="green">greetingMessage</text>
</g>
<!-- p3 -->
<g id="node3" class="node"><title>p3</title>
<polygon fill="deepskyblue" stroke="deepskyblue" points="248,-86.5 248,-137.5 374,-137.5 374,-86.5 248,-86.5"/>
<text text-anchor="start" x="337" y="-127.5" font-family="Times New Roman,serif" font-size="10.00" fill="green">«create»</text>
<polygon fill="none" stroke="green" points="248,-106 248,-122 374,-122 374,-106 248,-106"/>
<text text-anchor="start" x="280" y="-112" font-family="Times New Roman,serif" font-size="10.00"> </text>
<text text-anchor="start" x="283" y="-112" font-family="Times New Roman,serif" font-size="10.00" fill="green"> p3 :PersonPO </text>
<polygon fill="none" stroke="green" points="248,-86 248,-106 374,-106 374,-86 248,-86"/>
<text text-anchor="start" x="253.5" y="-94" font-family="Times New Roman,serif" font-size="10.00" fill="green"> name := &quot;TTC Participants&quot; </text>
</g>
<!-- g1&#45;&#45;p3 -->
<g id="edge10" class="edge"><title>g1&#45;&#45;p3</title>
<path fill="none" stroke="green" d="M222.794,-178.286C238.551,-166.624 256.711,-153.182 272.443,-141.538"/>
<text text-anchor="middle" x="267.673" y="-147.827" font-family="Times New Roman,serif" font-size="10.00" fill="green">person</text>
</g>
<!-- g4 -->
<g id="node4" class="node"><title>g4</title>
<a xlink:href="../examples/org/sdmlib/examples/helloworld/Greeting.java" xlink:title="&lt;TABLE&gt;">
<polygon fill="none" stroke="black" points="155,-103 155,-120 214,-120 214,-103 155,-103"/>
<text text-anchor="start" x="158.5" y="-109.5" font-family="Times New Roman,serif" font-size="10.00"> </text>
<text text-anchor="start" x="161.5" y="-109.5" font-family="Times New Roman,serif" font-size="10.00">g4 :Greeting</text>
</a>
</g>
<!-- g1&#45;&#45;g4 -->
<g id="edge2" class="edge"><title>g1&#45;&#45;g4</title>
<path fill="none" stroke="green" stroke-dasharray="1,5" d="M184,-178.286C184,-162.521 184,-143.503 184,-130.07"/>
<text text-anchor="middle" x="188.226" y="-136.633" font-family="Times New Roman,serif" font-size="10.00" fill="green">match</text>
</g>
<!-- g5 -->
<g id="node5" class="node"><title>g5</title>
<a xlink:href="../examples/org/sdmlib/examples/helloworld/GreetingMessage.java" xlink:title="&lt;TABLE&gt;">
<polygon fill="none" stroke="black" points="43,-24 43,-41 138,-41 138,-24 43,-24"/>
<text text-anchor="start" x="46.5" y="-30.5" font-family="Times New Roman,serif" font-size="10.00"> </text>
<text text-anchor="start" x="49.5" y="-30.5" font-family="Times New Roman,serif" font-size="10.00">g5 :GreetingMessage</text>
</a>
<polygon fill="none" stroke="black" points="43,-4 43,-24 138,-24 138,-4 43,-4"/>
<text text-anchor="start" x="48" y="-12" font-family="Times New Roman,serif" font-size="10.00">text = &quot;Hello&quot;</text>
</g>
<!-- g2&#45;&#45;g5 -->
<g id="edge4" class="edge"><title>g2&#45;&#45;g5</title>
<path fill="none" stroke="green" stroke-dasharray="1,5" d="M72.6576,-82.0303C76.203,-70.167 80.2351,-56.6747 83.5187,-45.6874"/>
<text text-anchor="middle" x="84.9729" y="-53.0811" font-family="Times New Roman,serif" font-size="10.00" fill="green">match</text>
</g>
<!-- p6 -->
<g id="node6" class="node"><title>p6</title>
<a xlink:href="../examples/org/sdmlib/examples/helloworld/Person.java" xlink:title="&lt;TABLE&gt;">
<polygon fill="none" stroke="black" points="225,-24 225,-41 344,-41 344,-24 225,-24"/>
<text text-anchor="start" x="261.5" y="-30.5" font-family="Times New Roman,serif" font-size="10.00"> </text>
<text text-anchor="start" x="264.5" y="-30.5" font-family="Times New Roman,serif" font-size="10.00">p6 :Person</text>
</a>
<polygon fill="none" stroke="black" points="225,-4 225,-24 344,-24 344,-4 225,-4"/>
<text text-anchor="start" x="230" y="-12" font-family="Times New Roman,serif" font-size="10.00">name = &quot;TTC Participants&quot;</text>
</g>
<!-- p3&#45;&#45;p6 -->
<g id="edge6" class="edge"><title>p3&#45;&#45;p6</title>
<path fill="none" stroke="green" stroke-dasharray="1,5" d="M302.009,-82.0303C298.328,-70.167 294.14,-56.6747 290.731,-45.6874"/>
<text text-anchor="middle" x="297.453" y="-50.5905" font-family="Times New Roman,serif" font-size="10.00" fill="green">match</text>
</g>
<!-- g4&#45;&#45;g5 -->
<g id="edge12" class="edge"><title>g4&#45;&#45;g5</title>
<path fill="none" stroke="black" d="M165.429,-93.8116C150.554,-80.0449 129.595,-60.6465 113.544,-45.7906"/>
<text text-anchor="middle" x="123.066" y="-46.3451" font-family="Times New Roman,serif" font-size="10.00">greetingMessage</text>
<text text-anchor="middle" x="155.907" y="-88.2571" font-family="Times New Roman,serif" font-size="10.00">greeting</text>
</g>
<!-- g4&#45;&#45;p6 -->
<g id="edge14" class="edge"><title>g4&#45;&#45;p6</title>
<path fill="none" stroke="black" d="M203.757,-93.8116C219.581,-80.0449 241.878,-60.6465 258.953,-45.7906"/>
<text text-anchor="middle" x="254.89" y="-52.4278" font-family="Times New Roman,serif" font-size="10.00">person</text>
<text text-anchor="middle" x="207.82" y="-82.1745" font-family="Times New Roman,serif" font-size="10.00">greeting</text>
</g>
</g>
</svg>
