<?xml version="1.0" encoding="UTF-8" standalone="no"?>
<!DOCTYPE svg PUBLIC "-//W3C//DTD SVG 1.1//EN"
 "http://www.w3.org/Graphics/SVG/1.1/DTD/svg11.dtd">
<!-- Generated by graphviz version 2.28.0 (20110507.0327)
 -->
<!-- Title: ObjectDiagram Pages: 1 -->
<svg width="261pt" height="164pt"
 viewBox="0.00 0.00 261.00 164.00" xmlns="http://www.w3.org/2000/svg" xmlns:xlink="http://www.w3.org/1999/xlink">
<g id="graph1" class="graph" transform="scale(1 1) rotate(0) translate(4 160)">
<title>ObjectDiagram</title>
<polygon fill="white" stroke="white" points="-4,5 -4,-160 258,-160 258,5 -4,5"/>
<!-- g1 -->
<g id="node1" class="node"><title>g1</title>
<polygon fill="deepskyblue" stroke="deepskyblue" points="98,-100.5 98,-151.5 166,-151.5 166,-100.5 98,-100.5"/>
<text text-anchor="start" x="133" y="-141.5" font-family="Times New Roman,serif" font-size="10.00" fill="green">«create»</text>
<polygon fill="none" stroke="green" points="98,-120 98,-136 166,-136 166,-120 98,-120"/>
<text text-anchor="start" x="101.5" y="-126" font-family="Times New Roman,serif" font-size="10.00"> </text>
<text text-anchor="start" x="104.5" y="-126" font-family="Times New Roman,serif" font-size="10.00" fill="green"> g1 :GreetingPO </text>
<polygon fill="none" stroke="green" points="98,-100 98,-120 166,-120 166,-100 98,-100"/>
<text text-anchor="start" x="129.5" y="-108" font-family="Times New Roman,serif" font-size="10.00"> &#160;</text>
</g>
<!-- g2 -->
<g id="node2" class="node"><title>g2</title>
<polygon fill="deepskyblue" stroke="deepskyblue" points="8,-4.5 8,-55.5 120,-55.5 120,-4.5 8,-4.5"/>
<text text-anchor="start" x="83" y="-45.5" font-family="Times New Roman,serif" font-size="10.00" fill="green">«create»</text>
<polygon fill="none" stroke="green" points="8,-24 8,-40 120,-40 120,-24 8,-24"/>
<text text-anchor="start" x="11.5" y="-30" font-family="Times New Roman,serif" font-size="10.00"> </text>
<text text-anchor="start" x="14.5" y="-30" font-family="Times New Roman,serif" font-size="10.00" fill="green"> g2 :GreetingMessagePO </text>
<polygon fill="none" stroke="green" points="8,-4 8,-24 120,-24 120,-4 8,-4"/>
<text text-anchor="start" x="33.5" y="-12" font-family="Times New Roman,serif" font-size="10.00" fill="green"> text := &quot;Hello&quot; </text>
</g>
<!-- g1&#45;&#45;g2 -->
<g id="edge2" class="edge"><title>g1&#45;&#45;g2</title>
<path fill="none" stroke="green" d="M111.228,-96.2861C102.792,-84.624 93.068,-71.1822 84.6445,-59.538"/>
<text text-anchor="middle" x="93.3807" y="-61.9041" font-family="Times New Roman,serif" font-size="10.00" fill="green">greetingMessage</text>
</g>
<!-- p3 -->
<g id="node3" class="node"><title>p3</title>
<polygon fill="deepskyblue" stroke="deepskyblue" points="154.5,-4.5 154.5,-55.5 245.5,-55.5 245.5,-4.5 154.5,-4.5"/>
<text text-anchor="start" x="218" y="-45.5" font-family="Times New Roman,serif" font-size="10.00" fill="green">«create»</text>
<polygon fill="none" stroke="green" points="155,-24 155,-40 246,-40 246,-24 155,-24"/>
<text text-anchor="start" x="176.5" y="-30" font-family="Times New Roman,serif" font-size="10.00"> </text>
<text text-anchor="start" x="179.5" y="-30" font-family="Times New Roman,serif" font-size="10.00" fill="green"> p3 :PersonPO </text>
<polygon fill="none" stroke="green" points="155,-4 155,-24 246,-24 246,-4 155,-4"/>
<text text-anchor="start" x="160.5" y="-12" font-family="Times New Roman,serif" font-size="10.00" fill="green"> name := &quot;TTC Participants&quot; </text>
</g>
<!-- g1&#45;&#45;p3 -->
<g id="edge4" class="edge"><title>g1&#45;&#45;p3</title>
<path fill="none" stroke="green" d="M152.772,-96.2861C161.208,-84.624 170.932,-71.1822 179.355,-59.538"/>
<text text-anchor="middle" x="177.468" y="-66.8582" font-family="Times New Roman,serif" font-size="10.00" fill="green">person</text>
</g>
</g>
</svg>
