<?xml version="1.0" encoding="UTF-8" standalone="no"?>
<!DOCTYPE svg PUBLIC "-//W3C//DTD SVG 1.1//EN"
 "http://www.w3.org/Graphics/SVG/1.1/DTD/svg11.dtd">
<!-- Generated by graphviz version 2.28.0 (20110507.0327)
 -->
<!-- Title: ObjectDiagram Pages: 1 -->
<svg width="1278pt" height="970pt"
 viewBox="0.00 0.00 1278.00 970.00" xmlns="http://www.w3.org/2000/svg" xmlns:xlink="http://www.w3.org/1999/xlink">
<g id="graph1" class="graph" transform="scale(1 1) rotate(0) translate(4 966)">
<title>ObjectDiagram</title>
<polygon fill="white" stroke="white" points="-4,5 -4,-966 1275,-966 1275,5 -4,5"/>
<!-- g1 -->
<g id="node1" class="node"><title>g1</title>
<polygon fill="deepskyblue" stroke="deepskyblue" points="607.5,-906.5 607.5,-957.5 682.5,-957.5 682.5,-906.5 607.5,-906.5"/>
<text text-anchor="start" x="644" y="-947.5" font-family="Arial" font-size="10.00">«bound»</text>
<polygon fill="none" stroke="black" points="608,-926 608,-942 683,-942 683,-926 608,-926"/>
<text text-anchor="start" x="611.5" y="-932" font-family="Arial" font-size="10.00"> </text>
<text text-anchor="start" x="615.5" y="-932" font-family="Arial" font-size="10.00"> g1 :GraphPO </text>
<polygon fill="none" stroke="black" points="608,-906 608,-926 683,-926 683,-906 608,-906"/>
<text text-anchor="start" x="642" y="-914" font-family="Arial" font-size="10.00"> &#160;</text>
</g>
<!-- n2 -->
<g id="node2" class="node"><title>n2</title>
<polygon fill="deepskyblue" stroke="deepskyblue" points="326.5,-824.5 326.5,-861.5 397.5,-861.5 397.5,-824.5 326.5,-824.5"/>
<polygon fill="none" stroke="black" points="327,-844 327,-861 398,-861 398,-844 327,-844"/>
<text text-anchor="start" x="330.5" y="-850.5" font-family="Arial" font-size="10.00"> </text>
<text text-anchor="start" x="334.5" y="-850.5" font-family="Arial" font-size="10.00"> n2 :NodePO </text>
<polygon fill="none" stroke="black" points="327,-824 327,-844 398,-844 398,-824 327,-824"/>
<text text-anchor="start" x="359" y="-832" font-family="Arial" font-size="10.00"> &#160;</text>
</g>
<!-- g1&#45;&#45;n2 -->
<g id="edge36" class="edge"><title>g1&#45;&#45;n2</title>
<path fill="none" stroke="black" d="M599.531,-917.022C546.095,-900.595 458.064,-873.532 405.497,-857.372"/>
<text text-anchor="middle" x="415.402" y="-853.495" font-family="Arial" font-size="10.00">nodes</text>
</g>
<!-- g8 -->
<g id="node9" class="node"><title>g8</title>
<a xlink:href="../../SDMLib/src/org/sdmlib/examples/helloworld/model/Graph.java" xlink:title="&lt;TABLE&gt;">
<polygon fill="none" stroke="black" points="901,-834 901,-851 955,-851 955,-834 901,-834"/>
<text text-anchor="start" x="904.5" y="-840.5" font-family="Arial" font-size="10.00"> </text>
<text text-anchor="start" x="908.5" y="-840.5" font-family="Arial" font-size="10.00">g8 :Graph</text>
</a>
</g>
<!-- g1&#45;&#45;g8 -->
<g id="edge2" class="edge"><title>g1&#45;&#45;g8</title>
<path fill="none" stroke="black" stroke-dasharray="1,5" d="M690.293,-905.667C693.205,-904.353 696.123,-903.117 699,-902 765.329,-876.239 846.937,-858.755 892.646,-850.162"/>
<text text-anchor="middle" x="884.548" y="-853.529" font-family="Arial" font-size="10.00">match</text>
</g>
<!-- e3 -->
<g id="node3" class="node"><title>e3</title>
<polygon fill="deepskyblue" stroke="deepskyblue" points="121.5,-742.5 121.5,-779.5 192.5,-779.5 192.5,-742.5 121.5,-742.5"/>
<polygon fill="none" stroke="black" points="122,-762 122,-779 193,-779 193,-762 122,-762"/>
<text text-anchor="start" x="125.5" y="-768.5" font-family="Arial" font-size="10.00"> </text>
<text text-anchor="start" x="129.5" y="-768.5" font-family="Arial" font-size="10.00"> e3 :EdgePO </text>
<polygon fill="none" stroke="black" points="122,-742 122,-762 193,-762 193,-742 122,-742"/>
<text text-anchor="start" x="154" y="-750" font-family="Arial" font-size="10.00"> &#160;</text>
</g>
<!-- n2&#45;&#45;e3 -->
<g id="edge38" class="edge"><title>n2&#45;&#45;e3</title>
<path fill="none" stroke="black" d="M318.525,-825.034C283.736,-811.458 235.185,-792.511 200.413,-778.941"/>
<text text-anchor="middle" x="210.392" y="-775.799" font-family="Arial" font-size="10.00">outEdges</text>
</g>
<!-- n9 -->
<g id="node10" class="node"><title>n9</title>
<a xlink:href="../../SDMLib/src/org/sdmlib/examples/helloworld/model/Node.java" xlink:title="&lt;TABLE&gt;">
<polygon fill="none" stroke="black" points="750,-762 750,-779 816,-779 816,-762 750,-762"/>
<text text-anchor="start" x="761" y="-768.5" font-family="Arial" font-size="10.00"> </text>
<text text-anchor="start" x="765" y="-768.5" font-family="Arial" font-size="10.00">n9 :Node</text>
</a>
<polygon fill="none" stroke="black" points="750,-742 750,-762 816,-762 816,-742 750,-742"/>
<text text-anchor="start" x="755" y="-750" font-family="Arial" font-size="10.00">name = &quot;n1&quot;</text>
</g>
<!-- n2&#45;&#45;n9 -->
<g id="edge4" class="edge"><title>n2&#45;&#45;n9</title>
<path fill="none" stroke="black" stroke-dasharray="1,5" d="M405.469,-833.74C487.088,-818.23 662.211,-784.953 741.946,-769.801"/>
<text text-anchor="middle" x="733.831" y="-773.145" font-family="Arial" font-size="10.00">candidate</text>
</g>
<!-- n10 -->
<g id="node12" class="node"><title>n10</title>
<a xlink:href="../../SDMLib/src/org/sdmlib/examples/helloworld/model/Node.java" xlink:title="&lt;TABLE&gt;">
<polygon fill="none" stroke="black" points="795,-598 795,-615 861,-615 861,-598 795,-598"/>
<text text-anchor="start" x="803.5" y="-604.5" font-family="Arial" font-size="10.00"> </text>
<text text-anchor="start" x="807.5" y="-604.5" font-family="Arial" font-size="10.00">n10 :Node</text>
</a>
<polygon fill="none" stroke="black" points="795,-578 795,-598 861,-598 861,-578 795,-578"/>
<text text-anchor="start" x="800" y="-586" font-family="Arial" font-size="10.00">name = &quot;n2&quot;</text>
</g>
<!-- n2&#45;&#45;n10 -->
<g id="edge6" class="edge"><title>n2&#45;&#45;n10</title>
<path fill="none" stroke="black" stroke-dasharray="1,5" d="M368.34,-820.46C376.371,-796.87 392.458,-759.534 419,-738 461.91,-703.187 485.532,-719.332 538,-702 627.386,-672.472 730.937,-634.389 786.927,-613.47"/>
<text text-anchor="middle" x="779.909" y="-618.094" font-family="Arial" font-size="10.00">candidate</text>
</g>
<!-- n11 -->
<g id="node14" class="node"><title>n11</title>
<a xlink:href="../../SDMLib/src/org/sdmlib/examples/helloworld/model/Node.java" xlink:title="&lt;TABLE&gt;">
<polygon fill="none" stroke="black" points="909,-434 909,-451 975,-451 975,-434 909,-434"/>
<text text-anchor="start" x="917.5" y="-440.5" font-family="Arial" font-size="10.00"> </text>
<text text-anchor="start" x="921.5" y="-440.5" font-family="Arial" font-size="10.00">n11 :Node</text>
</a>
<polygon fill="none" stroke="black" points="909,-414 909,-434 975,-434 975,-414 909,-414"/>
<text text-anchor="start" x="914" y="-422" font-family="Arial" font-size="10.00">name = &quot;n3&quot;</text>
</g>
<!-- n2&#45;&#45;n11 -->
<g id="edge8" class="edge"><title>n2&#45;&#45;n11</title>
<path fill="none" stroke="black" stroke-dasharray="1,5" d="M360.376,-820.106C359.856,-797.246 362.501,-761.512 381,-738 405.36,-707.039 427.079,-720.236 462,-702 496.998,-683.724 503.802,-675.734 538,-656 669.704,-580.001 828.45,-494.526 901.55,-455.504"/>
<text text-anchor="middle" x="895.551" y="-461.006" font-family="Arial" font-size="10.00">candidate</text>
</g>
<!-- n12 -->
<g id="node17" class="node"><title>n12</title>
<a xlink:href="../../SDMLib/src/org/sdmlib/examples/helloworld/model/Node.java" xlink:title="&lt;TABLE&gt;">
<polygon fill="none" stroke="black" points="1051,-270 1051,-287 1117,-287 1117,-270 1051,-270"/>
<text text-anchor="start" x="1059.5" y="-276.5" font-family="Arial" font-size="10.00"> </text>
<text text-anchor="start" x="1063.5" y="-276.5" font-family="Arial" font-size="10.00">n12 :Node</text>
</a>
<polygon fill="none" stroke="black" points="1051,-250 1051,-270 1117,-270 1117,-250 1051,-250"/>
<text text-anchor="start" x="1056" y="-258" font-family="Arial" font-size="10.00">name = &quot;n4&quot;</text>
</g>
<!-- n2&#45;&#45;n12 -->
<g id="edge10" class="edge"><title>n2&#45;&#45;n12</title>
<path fill="none" stroke="black" stroke-dasharray="1,5" d="M356.618,-820.452C352.292,-798.818 348.493,-764.923 359,-738 368.005,-714.925 491.626,-590.612 510,-574 645.169,-451.794 672.942,-405.207 838,-328 905.767,-296.301 992.386,-281.099 1042.69,-274.48"/>
<text text-anchor="middle" x="1034.29" y="-277.419" font-family="Arial" font-size="10.00">candidate</text>
</g>
<!-- n13 -->
<g id="node19" class="node"><title>n13</title>
<a xlink:href="../../SDMLib/src/org/sdmlib/examples/helloworld/model/Node.java" xlink:title="&lt;TABLE&gt;">
<polygon fill="none" stroke="black" points="1021,-106 1021,-123 1087,-123 1087,-106 1021,-106"/>
<text text-anchor="start" x="1029.5" y="-112.5" font-family="Arial" font-size="10.00"> </text>
<text text-anchor="start" x="1033.5" y="-112.5" font-family="Arial" font-size="10.00">n13 :Node</text>
</a>
<polygon fill="none" stroke="black" points="1021,-86 1021,-106 1087,-106 1087,-86 1021,-86"/>
<text text-anchor="start" x="1026" y="-94" font-family="Arial" font-size="10.00">name = &quot;n5&quot;</text>
</g>
<!-- n2&#45;&#45;n13 -->
<g id="edge12" class="edge"><title>n2&#45;&#45;n13</title>
<path fill="none" stroke="black" stroke-dasharray="1,5" d="M355.275,-820.343C349.654,-799.204 343.386,-766.196 349,-738 356.704,-699.306 367.134,-692.122 383,-656 410.588,-593.19 448,-584.602 448,-516 448,-516 448,-516 448,-350 448,-227.936 876.429,-138.637 1012.82,-113.301"/>
<text text-anchor="middle" x="1004.73" y="-116.674" font-family="Arial" font-size="10.00">candidate</text>
</g>
<!-- n14 -->
<g id="node23" class="node"><title>n14</title>
<a xlink:href="../../SDMLib/src/org/sdmlib/examples/helloworld/model/Node.java" xlink:title="&lt;TABLE&gt;">
<polygon fill="none" stroke="black" points="436,-762 436,-779 502,-779 502,-762 436,-762"/>
<text text-anchor="start" x="444.5" y="-768.5" font-family="Arial" font-size="10.00"> </text>
<text text-anchor="start" x="448.5" y="-768.5" font-family="Arial" font-size="10.00">n14 :Node</text>
</a>
<polygon fill="none" stroke="black" points="436,-742 436,-762 502,-762 502,-742 436,-742"/>
<text text-anchor="start" x="441" y="-750" font-family="Arial" font-size="10.00">name = &quot;n6&quot;</text>
</g>
<!-- n2&#45;&#45;n14 -->
<g id="edge14" class="edge"><title>n2&#45;&#45;n14</title>
<path fill="none" stroke="black" stroke-dasharray="1,5" d="M390.956,-820.351C406.181,-808.967 424.792,-795.052 440.021,-783.666"/>
<text text-anchor="middle" x="435.293" y="-789.978" font-family="Arial" font-size="10.00">candidate</text>
</g>
<!-- n15 -->
<g id="node24" class="node"><title>n15</title>
<a xlink:href="../../SDMLib/src/org/sdmlib/examples/helloworld/model/Node.java" xlink:title="&lt;TABLE&gt;">
<polygon fill="none" stroke="black" points="536,-762 536,-779 602,-779 602,-762 536,-762"/>
<text text-anchor="start" x="544.5" y="-768.5" font-family="Arial" font-size="10.00"> </text>
<text text-anchor="start" x="548.5" y="-768.5" font-family="Arial" font-size="10.00">n15 :Node</text>
</a>
<polygon fill="none" stroke="black" points="536,-742 536,-762 602,-762 602,-742 536,-742"/>
<text text-anchor="start" x="541" y="-750" font-family="Arial" font-size="10.00">name = &quot;n7&quot;</text>
</g>
<!-- n2&#45;&#45;n15 -->
<g id="edge16" class="edge"><title>n2&#45;&#45;n15</title>
<path fill="none" stroke="black" stroke-dasharray="1,5" d="M405.25,-826.819C436.935,-815.505 480.881,-799.411 519,-784 521.901,-782.827 524.886,-781.591 527.883,-780.327"/>
<text text-anchor="middle" x="521.169" y="-785.238" font-family="Arial" font-size="10.00">candidate</text>
</g>
<!-- n16 -->
<g id="node25" class="node"><title>n16</title>
<a xlink:href="../../SDMLib/src/org/sdmlib/examples/helloworld/model/Node.java" xlink:title="&lt;TABLE&gt;">
<polygon fill="none" stroke="black" points="122,-434 122,-451 188,-451 188,-434 122,-434"/>
<text text-anchor="start" x="130.5" y="-440.5" font-family="Arial" font-size="10.00"> </text>
<text text-anchor="start" x="134.5" y="-440.5" font-family="Arial" font-size="10.00">n16 :Node</text>
</a>
<polygon fill="none" stroke="black" points="122,-414 122,-434 188,-434 188,-414 122,-414"/>
<text text-anchor="start" x="127" y="-422" font-family="Arial" font-size="10.00">name = &quot;n8&quot;</text>
</g>
<!-- n2&#45;&#45;n16 -->
<g id="edge18" class="edge"><title>n2&#45;&#45;n16</title>
<path fill="none" stroke="black" stroke-dasharray="1,5" d="M318.694,-841.935C222.607,-839.283 0,-818.223 0,-680 0,-680 0,-680 0,-596 0,-530.022 67.9503,-480.395 113.87,-454.39"/>
<text text-anchor="middle" x="108.228" y="-460.146" font-family="Arial" font-size="10.00">candidate</text>
</g>
<!-- n4 -->
<g id="node4" class="node"><title>n4</title>
<polygon fill="deepskyblue" stroke="deepskyblue" points="112.5,-660.5 112.5,-697.5 183.5,-697.5 183.5,-660.5 112.5,-660.5"/>
<polygon fill="none" stroke="black" points="113,-680 113,-697 184,-697 184,-680 113,-680"/>
<text text-anchor="start" x="116.5" y="-686.5" font-family="Arial" font-size="10.00"> </text>
<text text-anchor="start" x="120.5" y="-686.5" font-family="Arial" font-size="10.00"> n4 :NodePO </text>
<polygon fill="none" stroke="black" points="113,-660 113,-680 184,-680 184,-660 113,-660"/>
<text text-anchor="start" x="145" y="-668" font-family="Arial" font-size="10.00"> &#160;</text>
</g>
<!-- e3&#45;&#45;n4 -->
<g id="edge40" class="edge"><title>e3&#45;&#45;n4</title>
<path fill="none" stroke="black" d="M154.541,-738.14C153.26,-726.759 151.7,-712.893 150.425,-701.557"/>
<text text-anchor="middle" x="155.638" y="-707.591" font-family="Arial" font-size="10.00">tgt</text>
</g>
<!-- e17 -->
<g id="node26" class="node"><title>e17</title>
<a xlink:href="../../SDMLib/src/org/sdmlib/examples/helloworld/model/Edge.java" xlink:title="&lt;TABLE&gt;">
<polygon fill="none" stroke="black" points="120,-352 120,-369 191,-369 191,-352 120,-352"/>
<text text-anchor="start" x="131" y="-358.5" font-family="Arial" font-size="10.00"> </text>
<text text-anchor="start" x="135" y="-358.5" font-family="Arial" font-size="10.00">e17 :Edge</text>
</a>
<polygon fill="none" stroke="black" points="120,-332 120,-352 191,-352 191,-332 120,-332"/>
<text text-anchor="start" x="125" y="-340" font-family="Arial" font-size="10.00">name = &quot;e16&quot;</text>
</g>
<!-- e3&#45;&#45;e17 -->
<g id="edge20" class="edge"><title>e3&#45;&#45;e17</title>
<path fill="none" stroke="black" stroke-dasharray="1,5" d="M126.663,-738.263C91.4066,-710.215 38,-657.849 38,-598 38,-598 38,-598 38,-514 38,-454.328 90.8157,-401.711 125.476,-373.605"/>
<text text-anchor="middle" x="121.263" y="-380.175" font-family="Arial" font-size="10.00">candidate</text>
</g>
<!-- e18 -->
<g id="node27" class="node"><title>e18</title>
<a xlink:href="../../SDMLib/src/org/sdmlib/examples/helloworld/model/Edge.java" xlink:title="&lt;TABLE&gt;">
<polygon fill="none" stroke="black" points="299,-352 299,-369 370,-369 370,-352 299,-352"/>
<text text-anchor="start" x="310" y="-358.5" font-family="Arial" font-size="10.00"> </text>
<text text-anchor="start" x="314" y="-358.5" font-family="Arial" font-size="10.00">e18 :Edge</text>
</a>
<polygon fill="none" stroke="black" points="299,-332 299,-352 370,-352 370,-332 299,-332"/>
<text text-anchor="start" x="304" y="-340" font-family="Arial" font-size="10.00">name = &quot;e17&quot;</text>
</g>
<!-- e3&#45;&#45;e18 -->
<g id="edge22" class="edge"><title>e3&#45;&#45;e18</title>
<path fill="none" stroke="black" stroke-dasharray="1,5" d="M175.179,-738.221C213.487,-690.713 301.485,-572.653 332,-456 339.267,-428.221 338.278,-394.83 336.486,-373.514"/>
<text text-anchor="middle" x="341.379" y="-379.735" font-family="Arial" font-size="10.00">candidate</text>
</g>
<!-- e5 -->
<g id="node5" class="node"><title>e5</title>
<polygon fill="deepskyblue" stroke="deepskyblue" points="150.5,-578.5 150.5,-615.5 221.5,-615.5 221.5,-578.5 150.5,-578.5"/>
<polygon fill="none" stroke="black" points="151,-598 151,-615 222,-615 222,-598 151,-598"/>
<text text-anchor="start" x="154.5" y="-604.5" font-family="Arial" font-size="10.00"> </text>
<text text-anchor="start" x="158.5" y="-604.5" font-family="Arial" font-size="10.00"> e5 :EdgePO </text>
<polygon fill="none" stroke="black" points="151,-578 151,-598 222,-598 222,-578 151,-578"/>
<text text-anchor="start" x="183" y="-586" font-family="Arial" font-size="10.00"> &#160;</text>
</g>
<!-- n4&#45;&#45;e5 -->
<g id="edge42" class="edge"><title>n4&#45;&#45;e5</title>
<path fill="none" stroke="black" d="M158.384,-656.14C163.789,-644.759 170.376,-630.893 175.76,-619.557"/>
<text text-anchor="middle" x="175.689" y="-627.057" font-family="Arial" font-size="10.00">outEdges</text>
</g>
<!-- n4&#45;&#45;n16 -->
<g id="edge24" class="edge"><title>n4&#45;&#45;n16</title>
<path fill="none" stroke="black" stroke-dasharray="1,5" d="M141.052,-656.495C137.913,-645.674 134.562,-632.278 133,-620 125.821,-563.566 122.744,-547.957 133,-492 135.272,-479.606 140.062,-466.426 144.595,-455.767"/>
<text text-anchor="middle" x="145.004" y="-463.259" font-family="Arial" font-size="10.00">match</text>
</g>
<!-- n6 -->
<g id="node6" class="node"><title>n6</title>
<polygon fill="deepskyblue" stroke="deepskyblue" points="150.5,-496.5 150.5,-533.5 221.5,-533.5 221.5,-496.5 150.5,-496.5"/>
<polygon fill="none" stroke="black" points="151,-516 151,-533 222,-533 222,-516 151,-516"/>
<text text-anchor="start" x="154.5" y="-522.5" font-family="Arial" font-size="10.00"> </text>
<text text-anchor="start" x="158.5" y="-522.5" font-family="Arial" font-size="10.00"> n6 :NodePO </text>
<polygon fill="none" stroke="black" points="151,-496 151,-516 222,-516 222,-496 151,-496"/>
<text text-anchor="start" x="183" y="-504" font-family="Arial" font-size="10.00"> &#160;</text>
</g>
<!-- e5&#45;&#45;n6 -->
<g id="edge44" class="edge"><title>e5&#45;&#45;n6</title>
<path fill="none" stroke="black" d="M186,-574.14C186,-562.759 186,-548.893 186,-537.557"/>
<text text-anchor="middle" x="190.226" y="-544.12" font-family="Arial" font-size="10.00">tgt</text>
</g>
<!-- e5&#45;&#45;e17 -->
<g id="edge26" class="edge"><title>e5&#45;&#45;e17</title>
<path fill="none" stroke="black" stroke-dasharray="1,5" d="M162.216,-574.34C152.102,-564.117 140.855,-551.262 133,-538 113.375,-504.865 111.307,-493.991 105,-456 101.652,-435.832 97.8797,-429.164 105,-410 110.093,-396.292 120.041,-383.655 129.731,-373.701"/>
<text text-anchor="middle" x="126.557" y="-380.683" font-family="Arial" font-size="10.00">candidate</text>
</g>
<!-- e5&#45;&#45;e18 -->
<g id="edge28" class="edge"><title>e5&#45;&#45;e18</title>
<path fill="none" stroke="black" stroke-dasharray="1,5" d="M211.572,-574.498C240.034,-549.128 285.266,-504.252 310,-456 323.524,-429.616 329.518,-395.587 332.112,-373.776"/>
<text text-anchor="middle" x="335.15" y="-380.803" font-family="Arial" font-size="10.00">candidate</text>
</g>
<!-- e7 -->
<g id="node7" class="node"><title>e7</title>
<polygon fill="deepskyblue" stroke="deepskyblue" points="222.5,-414.5 222.5,-451.5 293.5,-451.5 293.5,-414.5 222.5,-414.5"/>
<polygon fill="none" stroke="black" points="223,-434 223,-451 294,-451 294,-434 223,-434"/>
<text text-anchor="start" x="226.5" y="-440.5" font-family="Arial" font-size="10.00"> </text>
<text text-anchor="start" x="230.5" y="-440.5" font-family="Arial" font-size="10.00"> e7 :EdgePO </text>
<polygon fill="none" stroke="black" points="223,-414 223,-434 294,-434 294,-414 223,-414"/>
<text text-anchor="start" x="255" y="-422" font-family="Arial" font-size="10.00"> &#160;</text>
</g>
<!-- n6&#45;&#45;e7 -->
<g id="edge46" class="edge"><title>n6&#45;&#45;e7</title>
<path fill="none" stroke="black" d="M205.674,-492.14C215.917,-480.759 228.396,-466.893 238.599,-455.557"/>
<text text-anchor="middle" x="235.677" y="-462.621" font-family="Arial" font-size="10.00">outEdges</text>
</g>
<!-- n6&#45;&#45;n16 -->
<g id="edge30" class="edge"><title>n6&#45;&#45;n16</title>
<path fill="none" stroke="black" stroke-dasharray="1,5" d="M177.529,-492.14C173.119,-480.759 167.746,-466.893 163.353,-455.557"/>
<text text-anchor="middle" x="170.569" y="-459.981" font-family="Arial" font-size="10.00">match</text>
</g>
<!-- e7&#45;&#45;n2 -->
<g id="edge48" class="edge"><title>e7&#45;&#45;n2</title>
<path fill="none" stroke="black" d="M256.333,-455.547C251.513,-522.813 239.867,-727.768 272,-784 282.329,-802.076 300.847,-815.437 318.411,-824.749"/>
<text text-anchor="middle" x="308.434" y="-821.574" font-family="Arial" font-size="10.00">tgt</text>
</g>
<!-- e7&#45;&#45;e17 -->
<g id="edge32" class="edge"><title>e7&#45;&#45;e17</title>
<path fill="none" stroke="black" stroke-dasharray="1,5" d="M230.127,-410.351C215.471,-398.967 197.555,-385.052 182.896,-373.666"/>
<text text-anchor="middle" x="192.646" y="-373.388" font-family="Arial" font-size="10.00">candidate</text>
</g>
<!-- e7&#45;&#45;e18 -->
<g id="edge34" class="edge"><title>e7&#45;&#45;e18</title>
<path fill="none" stroke="black" stroke-dasharray="1,5" d="M278.767,-410.14C289.579,-398.759 302.752,-384.893 313.521,-373.557"/>
<text text-anchor="middle" x="310.343" y="-380.538" font-family="Arial" font-size="10.00">candidate</text>
</g>
<!-- matchIsomorphic -->
<g id="node8" class="node"><title>matchIsomorphic</title>
<text text-anchor="middle" x="754" y="-929.5" font-family="Arial" font-size="10.00">matchIsomorphic</text>
</g>
<!-- g8&#45;&#45;n9 -->
<g id="edge70" class="edge"><title>g8&#45;&#45;n9</title>
<path fill="none" stroke="black" d="M896.894,-824.838C875.008,-812.763 845.555,-796.513 822.083,-783.563"/>
<text text-anchor="middle" x="832.06" y="-781.741" font-family="Arial" font-size="10.00">nodes</text>
<text text-anchor="middle" x="886.917" y="-821.66" font-family="Arial" font-size="10.00">graph</text>
</g>
<!-- e19 -->
<g id="node11" class="node"><title>e19</title>
<a xlink:href="../../SDMLib/src/org/sdmlib/examples/helloworld/model/Edge.java" xlink:title="&lt;TABLE&gt;">
<polygon fill="none" stroke="black" points="783,-680 783,-697 854,-697 854,-680 783,-680"/>
<text text-anchor="start" x="794" y="-686.5" font-family="Arial" font-size="10.00"> </text>
<text text-anchor="start" x="798" y="-686.5" font-family="Arial" font-size="10.00">e19 :Edge</text>
</a>
<polygon fill="none" stroke="black" points="783,-660 783,-680 854,-680 854,-660 783,-660"/>
<text text-anchor="start" x="788" y="-668" font-family="Arial" font-size="10.00">name = &quot;e10&quot;</text>
</g>
<!-- g8&#45;&#45;e19 -->
<g id="edge54" class="edge"><title>g8&#45;&#45;e19</title>
<path fill="none" stroke="black" d="M910.759,-824.838C900.076,-813.724 886.448,-798.641 876,-784 856.786,-757.075 838.933,-723.181 828.245,-701.547"/>
<text text-anchor="middle" x="836.076" y="-705.267" font-family="Arial" font-size="10.00">edges</text>
<text text-anchor="middle" x="901.446" y="-818.693" font-family="Arial" font-size="10.00">graph</text>
</g>
<!-- g8&#45;&#45;n10 -->
<g id="edge72" class="edge"><title>g8&#45;&#45;n10</title>
<path fill="none" stroke="black" d="M923.39,-824.741C912.569,-784.693 885.305,-686.544 870,-656 863.595,-643.218 854.469,-630.215 846.359,-619.77"/>
<text text-anchor="middle" x="855.228" y="-621.89" font-family="Arial" font-size="10.00">nodes</text>
<text text-anchor="middle" x="916.931" y="-814.606" font-family="Arial" font-size="10.00">graph</text>
</g>
<!-- e20 -->
<g id="node13" class="node"><title>e20</title>
<a xlink:href="../../SDMLib/src/org/sdmlib/examples/helloworld/model/Edge.java" xlink:title="&lt;TABLE&gt;">
<polygon fill="none" stroke="black" points="897,-516 897,-533 968,-533 968,-516 897,-516"/>
<text text-anchor="start" x="908" y="-522.5" font-family="Arial" font-size="10.00"> </text>
<text text-anchor="start" x="912" y="-522.5" font-family="Arial" font-size="10.00">e20 :Edge</text>
</a>
<polygon fill="none" stroke="black" points="897,-496 897,-516 968,-516 968,-496 897,-496"/>
<text text-anchor="start" x="902" y="-504" font-family="Arial" font-size="10.00">name = &quot;e11&quot;</text>
</g>
<!-- g8&#45;&#45;e20 -->
<g id="edge56" class="edge"><title>g8&#45;&#45;e20</title>
<path fill="none" stroke="black" d="M933.247,-824.937C936.488,-813.484 940.336,-797.989 942,-784 952.837,-692.919 941.073,-583.314 935.075,-537.63"/>
<text text-anchor="middle" x="940.394" y="-543.599" font-family="Arial" font-size="10.00">edges</text>
<text text-anchor="middle" x="931.604" y="-812.572" font-family="Arial" font-size="10.00">graph</text>
</g>
<!-- g8&#45;&#45;n11 -->
<g id="edge74" class="edge"><title>g8&#45;&#45;n11</title>
<path fill="none" stroke="black" d="M942.295,-824.791C964.31,-796.481 1004,-737.472 1004,-680 1004,-680 1004,-680 1004,-596 1004,-548.931 1002.69,-535.199 984,-492 978.372,-478.993 969.428,-466.068 961.237,-455.733"/>
<text text-anchor="middle" x="970.142" y="-457.782" font-family="Arial" font-size="10.00">nodes</text>
<text text-anchor="middle" x="944.379" y="-812.511" font-family="Arial" font-size="10.00">graph</text>
</g>
<!-- e21 -->
<g id="node15" class="node"><title>e21</title>
<a xlink:href="../../SDMLib/src/org/sdmlib/examples/helloworld/model/Edge.java" xlink:title="&lt;TABLE&gt;">
<polygon fill="none" stroke="black" points="856,-352 856,-369 927,-369 927,-352 856,-352"/>
<text text-anchor="start" x="867" y="-358.5" font-family="Arial" font-size="10.00"> </text>
<text text-anchor="start" x="871" y="-358.5" font-family="Arial" font-size="10.00">e21 :Edge</text>
</a>
<polygon fill="none" stroke="black" points="856,-332 856,-352 927,-352 927,-332 856,-332"/>
<text text-anchor="start" x="861" y="-340" font-family="Arial" font-size="10.00">name = &quot;e12&quot;</text>
</g>
<!-- g8&#45;&#45;e21 -->
<g id="edge58" class="edge"><title>g8&#45;&#45;e21</title>
<path fill="none" stroke="black" d="M952.669,-824.839C966.476,-814.285 983.226,-799.785 995,-784 1025.33,-743.341 1042,-730.723 1042,-680 1042,-680 1042,-680 1042,-514 1042,-462.713 1026.92,-447.567 992,-410 976.032,-392.819 953.797,-379.3 934.254,-369.651"/>
<text text-anchor="middle" x="944.248" y="-367.482" font-family="Arial" font-size="10.00">edges</text>
<text text-anchor="middle" x="957.232" y="-813.44" font-family="Arial" font-size="10.00">graph</text>
</g>
<!-- e22 -->
<g id="node16" class="node"><title>e22</title>
<a xlink:href="../../SDMLib/src/org/sdmlib/examples/helloworld/model/Edge.java" xlink:title="&lt;TABLE&gt;">
<polygon fill="none" stroke="black" points="1049,-352 1049,-369 1120,-369 1120,-352 1049,-352"/>
<text text-anchor="start" x="1060" y="-358.5" font-family="Arial" font-size="10.00"> </text>
<text text-anchor="start" x="1064" y="-358.5" font-family="Arial" font-size="10.00">e22 :Edge</text>
</a>
<polygon fill="none" stroke="black" points="1049,-332 1049,-352 1120,-352 1120,-332 1049,-332"/>
<text text-anchor="start" x="1054" y="-340" font-family="Arial" font-size="10.00">name = &quot;e13&quot;</text>
</g>
<!-- g8&#45;&#45;e22 -->
<g id="edge60" class="edge"><title>g8&#45;&#45;e22</title>
<path fill="none" stroke="black" d="M963.27,-839.443C1001.14,-834.762 1060.38,-821.511 1094,-784 1125.66,-748.674 1118,-727.437 1118,-680 1118,-680 1118,-680 1118,-514 1118,-462.847 1101.56,-404.508 1091.55,-373.707"/>
<text text-anchor="middle" x="1098.31" y="-378.572" font-family="Arial" font-size="10.00">edges</text>
<text text-anchor="middle" x="971.658" y="-831.499" font-family="Arial" font-size="10.00">graph</text>
</g>
<!-- g8&#45;&#45;n12 -->
<g id="edge76" class="edge"><title>g8&#45;&#45;n12</title>
<path fill="none" stroke="black" d="M963.245,-840.708C1005.82,-837.275 1077.06,-825.256 1120,-784 1155.27,-750.11 1156,-728.913 1156,-680 1156,-680 1156,-680 1156,-432 1156,-384.931 1156.92,-370.167 1136,-328 1129.27,-314.431 1118.48,-301.633 1108.46,-291.529"/>
<text text-anchor="middle" x="1117.81" y="-292.583" font-family="Arial" font-size="10.00">nodes</text>
<text text-anchor="middle" x="971.861" y="-833.132" font-family="Arial" font-size="10.00">graph</text>
</g>
<!-- e23 -->
<g id="node18" class="node"><title>e23</title>
<a xlink:href="../../SDMLib/src/org/sdmlib/examples/helloworld/model/Edge.java" xlink:title="&lt;TABLE&gt;">
<polygon fill="none" stroke="black" points="1049,-188 1049,-205 1120,-205 1120,-188 1049,-188"/>
<text text-anchor="start" x="1060" y="-194.5" font-family="Arial" font-size="10.00"> </text>
<text text-anchor="start" x="1064" y="-194.5" font-family="Arial" font-size="10.00">e23 :Edge</text>
</a>
<polygon fill="none" stroke="black" points="1049,-168 1049,-188 1120,-188 1120,-168 1049,-168"/>
<text text-anchor="start" x="1054" y="-176" font-family="Arial" font-size="10.00">name = &quot;e14&quot;</text>
</g>
<!-- g8&#45;&#45;e23 -->
<g id="edge62" class="edge"><title>g8&#45;&#45;e23</title>
<path fill="none" stroke="black" d="M963.139,-842.016C1010.96,-840.193 1096.67,-830.123 1150,-784 1187.96,-751.169 1194,-730.189 1194,-680 1194,-680 1194,-680 1194,-350 1194,-291.357 1144.06,-238.189 1111.47,-209.745"/>
<text text-anchor="middle" x="1121.03" y="-210.193" font-family="Arial" font-size="10.00">edges</text>
<text text-anchor="middle" x="971.964" y="-834.813" font-family="Arial" font-size="10.00">graph</text>
</g>
<!-- g8&#45;&#45;n13 -->
<g id="edge78" class="edge"><title>g8&#45;&#45;n13</title>
<path fill="none" stroke="black" d="M963.015,-827.249C983.342,-817.336 1008.34,-802.671 1026,-784 1061.79,-746.165 1080,-732.082 1080,-680 1080,-680 1080,-680 1080,-514 1080,-448.077 1042.05,-438.991 1031,-374 1015.36,-281.986 1013.49,-255.675 1031,-164 1033.38,-151.551 1038.39,-138.367 1043.12,-127.719"/>
<text text-anchor="middle" x="1043.37" y="-135.216" font-family="Arial" font-size="10.00">nodes</text>
<text text-anchor="middle" x="969.229" y="-816.913" font-family="Arial" font-size="10.00">graph</text>
</g>
<!-- e24 -->
<g id="node20" class="node"><title>e24</title>
<a xlink:href="../../SDMLib/src/org/sdmlib/examples/helloworld/model/Edge.java" xlink:title="&lt;TABLE&gt;">
<polygon fill="none" stroke="black" points="1190,-24 1190,-41 1261,-41 1261,-24 1190,-24"/>
<text text-anchor="start" x="1201" y="-30.5" font-family="Arial" font-size="10.00"> </text>
<text text-anchor="start" x="1205" y="-30.5" font-family="Arial" font-size="10.00">e24 :Edge</text>
</a>
<polygon fill="none" stroke="black" points="1190,-4 1190,-24 1261,-24 1261,-4 1190,-4"/>
<text text-anchor="start" x="1195" y="-12" font-family="Arial" font-size="10.00">name = &quot;e18&quot;</text>
</g>
<!-- g8&#45;&#45;e24 -->
<g id="edge50" class="edge"><title>g8&#45;&#45;e24</title>
<path fill="none" stroke="black" d="M963.017,-838.731C1030.71,-831.814 1176.37,-813.832 1216,-784 1257.61,-752.676 1270,-732.082 1270,-680 1270,-680 1270,-680 1270,-186 1270,-134.188 1248.37,-76.3436 1235.1,-45.7405"/>
<text text-anchor="middle" x="1242.51" y="-49.9499" font-family="Arial" font-size="10.00">edges</text>
<text text-anchor="middle" x="971.578" y="-831.063" font-family="Arial" font-size="10.00">graph</text>
</g>
<!-- e25 -->
<g id="node21" class="node"><title>e25</title>
<a xlink:href="../../SDMLib/src/org/sdmlib/examples/helloworld/model/Edge.java" xlink:title="&lt;TABLE&gt;">
<polygon fill="none" stroke="black" points="928,-24 928,-41 999,-41 999,-24 928,-24"/>
<text text-anchor="start" x="939" y="-30.5" font-family="Arial" font-size="10.00"> </text>
<text text-anchor="start" x="943" y="-30.5" font-family="Arial" font-size="10.00">e25 :Edge</text>
</a>
<polygon fill="none" stroke="black" points="928,-4 928,-24 999,-24 999,-4 928,-4"/>
<text text-anchor="start" x="933" y="-12" font-family="Arial" font-size="10.00">name = &quot;e15&quot;</text>
</g>
<!-- g8&#45;&#45;e25 -->
<g id="edge64" class="edge"><title>g8&#45;&#45;e25</title>
<path fill="none" stroke="black" d="M892.984,-840.023C850.527,-835.899 778.961,-823.184 733,-784 540.127,-619.568 486,-523.452 486,-270 486,-270 486,-270 486,-186 486,-94.9342 801.652,-44.8256 919.405,-29.3011"/>
<text text-anchor="middle" x="911.015" y="-32.2423" font-family="Arial" font-size="10.00">edges</text>
<text text-anchor="middle" x="883.508" y="-840.718" font-family="Arial" font-size="10.00">graph</text>
</g>
<!-- e26 -->
<g id="node22" class="node"><title>e26</title>
<a xlink:href="../../SDMLib/src/org/sdmlib/examples/helloworld/model/Edge.java" xlink:title="&lt;TABLE&gt;">
<polygon fill="none" stroke="black" points="1041,-24 1041,-41 1112,-41 1112,-24 1041,-24"/>
<text text-anchor="start" x="1052" y="-30.5" font-family="Arial" font-size="10.00"> </text>
<text text-anchor="start" x="1056" y="-30.5" font-family="Arial" font-size="10.00">e26 :Edge</text>
</a>
<polygon fill="none" stroke="black" points="1041,-4 1041,-24 1112,-24 1112,-4 1041,-4"/>
<text text-anchor="start" x="1046" y="-12" font-family="Arial" font-size="10.00">name = &quot;e19&quot;</text>
</g>
<!-- g8&#45;&#45;e26 -->
<g id="edge52" class="edge"><title>g8&#45;&#45;e26</title>
<path fill="none" stroke="black" d="M963.246,-837.767C1024.77,-829.77 1148.41,-810.804 1182,-784 1222.09,-752.008 1232,-731.287 1232,-680 1232,-680 1232,-680 1232,-186 1232,-120.795 1165.61,-71.7224 1119.45,-45.4829"/>
<text text-anchor="middle" x="1129.4" y="-43.9859" font-family="Arial" font-size="10.00">edges</text>
<text text-anchor="middle" x="971.661" y="-829.866" font-family="Arial" font-size="10.00">graph</text>
</g>
<!-- g8&#45;&#45;n14 -->
<g id="edge80" class="edge"><title>g8&#45;&#45;n14</title>
<path fill="none" stroke="black" d="M892.86,-840.253C821.258,-835.992 653.836,-822.436 519,-784 516.081,-783.168 513.111,-782.2 510.148,-781.144"/>
<text text-anchor="middle" x="520.101" y="-777.679" font-family="Arial" font-size="10.00">nodes</text>
<text text-anchor="middle" x="883.542" y="-841.383" font-family="Arial" font-size="10.00">graph</text>
</g>
<!-- g8&#45;&#45;n15 -->
<g id="edge82" class="edge"><title>g8&#45;&#45;n15</title>
<path fill="none" stroke="black" d="M892.835,-837.529C835.678,-829.766 719.404,-811.901 624,-784 619.459,-782.672 614.775,-781.111 610.145,-779.444"/>
<text text-anchor="middle" x="620.101" y="-776.014" font-family="Arial" font-size="10.00">nodes</text>
<text text-anchor="middle" x="883.275" y="-837.961" font-family="Arial" font-size="10.00">graph</text>
</g>
<!-- g8&#45;&#45;n16 -->
<g id="edge84" class="edge"><title>g8&#45;&#45;n16</title>
<path fill="none" stroke="black" d="M892.706,-836.058C847.094,-827.701 765.736,-810.469 700,-784 661.596,-768.537 655.473,-757.589 619,-738 587.831,-721.26 578.457,-720.004 548,-702 510.855,-680.042 272.419,-515.31 186.12,-455.563"/>
<text text-anchor="middle" x="195.978" y="-454.744" font-family="Arial" font-size="10.00">nodes</text>
<text text-anchor="middle" x="883.016" y="-836.031" font-family="Arial" font-size="10.00">graph</text>
</g>
<!-- g8&#45;&#45;e17 -->
<g id="edge66" class="edge"><title>g8&#45;&#45;e17</title>
<path fill="none" stroke="black" d="M892.706,-836.058C847.094,-827.701 765.736,-810.469 700,-784 661.596,-768.537 655.473,-757.589 619,-738 587.831,-721.26 575.553,-724.194 548,-702 417.615,-596.972 446.02,-507.62 310,-410 276.27,-385.792 231.234,-370.434 198.402,-361.647"/>
<text text-anchor="middle" x="208.266" y="-357.505" font-family="Arial" font-size="10.00">edges</text>
<text text-anchor="middle" x="883.016" y="-836.031" font-family="Arial" font-size="10.00">graph</text>
</g>
<!-- g8&#45;&#45;e18 -->
<g id="edge68" class="edge"><title>g8&#45;&#45;e18</title>
<path fill="none" stroke="black" d="M930.106,-824.877C934.814,-778.541 941.248,-649.134 878,-574 744.811,-415.779 481.366,-368.928 377.532,-356.283"/>
<text text-anchor="middle" x="387.086" y="-350.829" font-family="Arial" font-size="10.00">edges</text>
<text text-anchor="middle" x="926.669" y="-812.987" font-family="Arial" font-size="10.00">graph</text>
</g>
<!-- n9&#45;&#45;e19 -->
<g id="edge88" class="edge"><title>n9&#45;&#45;e19</title>
<path fill="none" stroke="black" d="M792.564,-738.14C797.543,-726.759 803.609,-712.893 808.569,-701.557"/>
<text text-anchor="middle" x="808.808" y="-709.054" font-family="Arial" font-size="10.00">outEdges</text>
<text text-anchor="middle" x="792.325" y="-725.643" font-family="Arial" font-size="10.00">src</text>
</g>
<!-- n9&#45;&#45;e21 -->
<g id="edge86" class="edge"><title>n9&#45;&#45;e21</title>
<path fill="none" stroke="black" d="M774.573,-738.332C770.835,-727.584 766.865,-714.3 765,-702 761.936,-681.787 763.394,-676.381 765,-656 767.898,-619.214 766.602,-609.095 778,-574 803.248,-496.26 852.807,-412.305 877.019,-373.684"/>
<text text-anchor="middle" x="875.847" y="-381.115" font-family="Arial" font-size="10.00">inEdges</text>
<text text-anchor="middle" x="767.644" y="-728.621" font-family="Arial" font-size="10.00">tgt</text>
</g>
<!-- e19&#45;&#45;n10 -->
<g id="edge90" class="edge"><title>e19&#45;&#45;n10</title>
<path fill="none" stroke="black" d="M820.733,-656.14C822.155,-644.759 823.888,-630.893 825.305,-619.557"/>
<text text-anchor="middle" x="828.375" y="-626.574" font-family="Arial" font-size="10.00">tgt</text>
<text text-anchor="middle" x="817.663" y="-644.122" font-family="Arial" font-size="10.00">inEdges</text>
</g>
<!-- n10&#45;&#45;e20 -->
<g id="edge92" class="edge"><title>n10&#45;&#45;e20</title>
<path fill="none" stroke="black" d="M856.144,-574.351C870.942,-562.967 889.032,-549.052 903.834,-537.666"/>
<text text-anchor="middle" x="899.227" y="-544.042" font-family="Arial" font-size="10.00">outEdges</text>
<text text-anchor="middle" x="860.751" y="-562.975" font-family="Arial" font-size="10.00">src</text>
</g>
<!-- e20&#45;&#45;n11 -->
<g id="edge94" class="edge"><title>e20&#45;&#45;n11</title>
<path fill="none" stroke="black" d="M934.733,-492.14C936.155,-480.759 937.888,-466.893 939.305,-455.557"/>
<text text-anchor="middle" x="942.375" y="-462.574" font-family="Arial" font-size="10.00">tgt</text>
<text text-anchor="middle" x="931.663" y="-480.122" font-family="Arial" font-size="10.00">inEdges</text>
</g>
<!-- n11&#45;&#45;e21 -->
<g id="edge98" class="edge"><title>n11&#45;&#45;e21</title>
<path fill="none" stroke="black" d="M928.064,-410.14C920.809,-398.759 911.969,-384.893 904.743,-373.557"/>
<text text-anchor="middle" x="913.178" y="-376.427" font-family="Arial" font-size="10.00">outEdges</text>
<text text-anchor="middle" x="919.628" y="-402.269" font-family="Arial" font-size="10.00">src</text>
</g>
<!-- n11&#45;&#45;e22 -->
<g id="edge100" class="edge"><title>n11&#45;&#45;e22</title>
<path fill="none" stroke="black" d="M980.427,-410.351C1000.63,-398.967 1025.33,-385.052 1045.54,-373.666"/>
<text text-anchor="middle" x="1039.72" y="-379.297" font-family="Arial" font-size="10.00">outEdges</text>
<text text-anchor="middle" x="986.249" y="-399.72" font-family="Arial" font-size="10.00">src</text>
</g>
<!-- n11&#45;&#45;e25 -->
<g id="edge96" class="edge"><title>n11&#45;&#45;e25</title>
<path fill="none" stroke="black" d="M946.609,-410.367C952.79,-379.412 963,-320.623 963,-270 963,-270 963,-270 963,-186 963,-135.797 963,-76.8425 963,-45.7485"/>
<text text-anchor="middle" x="967.226" y="-52.3116" font-family="Arial" font-size="10.00">inEdges</text>
<text text-anchor="middle" x="944.19" y="-398.164" font-family="Arial" font-size="10.00">tgt</text>
</g>
<!-- e22&#45;&#45;n12 -->
<g id="edge102" class="edge"><title>e22&#45;&#45;n12</title>
<path fill="none" stroke="black" d="M1084,-328.14C1084,-316.759 1084,-302.893 1084,-291.557"/>
<text text-anchor="middle" x="1088.23" y="-298.12" font-family="Arial" font-size="10.00">tgt</text>
<text text-anchor="middle" x="1079.77" y="-316.577" font-family="Arial" font-size="10.00">inEdges</text>
</g>
<!-- n12&#45;&#45;e23 -->
<g id="edge104" class="edge"><title>n12&#45;&#45;e23</title>
<path fill="none" stroke="black" d="M1084,-246.14C1084,-234.759 1084,-220.893 1084,-209.557"/>
<text text-anchor="middle" x="1088.23" y="-216.12" font-family="Arial" font-size="10.00">outEdges</text>
<text text-anchor="middle" x="1079.77" y="-234.577" font-family="Arial" font-size="10.00">src</text>
</g>
<!-- e23&#45;&#45;n13 -->
<g id="edge106" class="edge"><title>e23&#45;&#45;n13</title>
<path fill="none" stroke="black" d="M1075.8,-164.14C1071.53,-152.759 1066.33,-138.893 1062.08,-127.557"/>
<text text-anchor="middle" x="1069.22" y="-132.059" font-family="Arial" font-size="10.00">tgt</text>
<text text-anchor="middle" x="1068.66" y="-154.638" font-family="Arial" font-size="10.00">inEdges</text>
</g>
<!-- n13&#45;&#45;e24 -->
<g id="edge110" class="edge"><title>n13&#45;&#45;e24</title>
<path fill="none" stroke="black" d="M1095.39,-84.6342C1121.49,-72.4262 1155.13,-56.6869 1181.6,-44.3037"/>
<text text-anchor="middle" x="1175.18" y="-49.4722" font-family="Arial" font-size="10.00">outEdges</text>
<text text-anchor="middle" x="1101.81" y="-74.4657" font-family="Arial" font-size="10.00">src</text>
</g>
<!-- n13&#45;&#45;e25 -->
<g id="edge112" class="edge"><title>n13&#45;&#45;e25</title>
<path fill="none" stroke="black" d="M1029.13,-82.1396C1016.19,-70.759 1000.42,-56.8929 987.521,-45.5569"/>
<text text-anchor="middle" x="997.118" y="-45.8668" font-family="Arial" font-size="10.00">outEdges</text>
<text text-anchor="middle" x="1019.54" y="-76.8297" font-family="Arial" font-size="10.00">src</text>
</g>
<!-- n13&#45;&#45;e26 -->
<g id="edge108" class="edge"><title>n13&#45;&#45;e26</title>
<path fill="none" stroke="black" d="M1060.01,-82.1396C1063.14,-70.759 1066.95,-56.8929 1070.07,-45.5569"/>
<text text-anchor="middle" x="1071.74" y="-52.9162" font-family="Arial" font-size="10.00">inEdges</text>
<text text-anchor="middle" x="1058.34" y="-69.7804" font-family="Arial" font-size="10.00">tgt</text>
</g>
<!-- n16&#45;&#45;e17 -->
<g id="edge114" class="edge"><title>n16&#45;&#45;e17</title>
<path fill="none" stroke="black" d="M155,-410.14C155,-398.759 155,-384.893 155,-373.557"/>
<text text-anchor="middle" x="159.226" y="-380.12" font-family="Arial" font-size="10.00">inEdges_outEdges</text>
<text text-anchor="middle" x="150.774" y="-398.577" font-family="Arial" font-size="10.00">tgt_src</text>
</g>
<!-- n16&#45;&#45;e18 -->
<g id="edge116" class="edge"><title>n16&#45;&#45;e18</title>
<path fill="none" stroke="black" d="M196.066,-413.646C224.348,-401.007 261.862,-384.24 290.628,-371.384"/>
<text text-anchor="middle" x="284.078" y="-376.44" font-family="Arial" font-size="10.00">inEdges_outEdges</text>
<text text-anchor="middle" x="202.616" y="-403.59" font-family="Arial" font-size="10.00">tgt_src</text>
</g>
</g>
</svg>
