<?xml version="1.0" encoding="UTF-8" standalone="no"?>
<!DOCTYPE svg PUBLIC "-//W3C//DTD SVG 1.1//EN"
 "http://www.w3.org/Graphics/SVG/1.1/DTD/svg11.dtd">
<!-- Generated by graphviz version 2.28.0 (20110507.0327)
 -->
<!-- Title: ObjectDiagram Pages: 1 -->
<svg width="575pt" height="356pt"
 viewBox="0.00 0.00 575.00 356.00" xmlns="http://www.w3.org/2000/svg" xmlns:xlink="http://www.w3.org/1999/xlink">
<g id="graph1" class="graph" transform="scale(1 1) rotate(0) translate(4 352)">
<title>ObjectDiagram</title>
<polygon fill="white" stroke="white" points="-4,5 -4,-352 572,-352 572,5 -4,5"/>
<!-- g1 -->
<g id="node1" class="node"><title>g1</title>
<polygon fill="none" stroke="black" points="216,-326 216,-343 303,-343 303,-326 216,-326"/>
<text text-anchor="start" x="227.5" y="-332.5" font-family="Times New Roman,serif" font-size="10.00"> </text>
<text text-anchor="start" x="230.5" y="-332.5" font-family="Times New Roman,serif" font-size="10.00">g1 :GreetingPO</text>
<polygon fill="none" stroke="black" points="216,-306 216,-326 303,-326 303,-306 216,-306"/>
<text text-anchor="start" x="221.5" y="-314" font-family="Times New Roman,serif" font-size="10.00">modifier = &quot;create&quot;</text>
</g>
<!-- g2 -->
<g id="node2" class="node"><title>g2</title>
<polygon fill="none" stroke="black" points="230,-131 230,-148 289,-148 289,-131 230,-131"/>
<text text-anchor="start" x="233.5" y="-137.5" font-family="Times New Roman,serif" font-size="10.00"> </text>
<text text-anchor="start" x="236.5" y="-137.5" font-family="Times New Roman,serif" font-size="10.00">g2 :Greeting</text>
</g>
<!-- g1&#45;&#45;g2 -->
<g id="edge2" class="edge"><title>g1&#45;&#45;g2</title>
<path fill="none" stroke="black" d="M259,-302.289C259,-265.459 259,-191.49 259,-158.076"/>
<text text-anchor="middle" x="263.226" y="-164.639" font-family="Times New Roman,serif" font-size="10.00">currentMatch</text>
</g>
<!-- l5 -->
<g id="node5" class="node"><title>l5</title>
<polygon fill="none" stroke="black" points="68,-244 68,-261 220,-261 220,-244 68,-244"/>
<text text-anchor="start" x="107" y="-250.5" font-family="Times New Roman,serif" font-size="10.00"> </text>
<text text-anchor="start" x="110" y="-250.5" font-family="Times New Roman,serif" font-size="10.00">l5 :LinkConstraint</text>
<polygon fill="none" stroke="black" points="68,-210 68,-244 220,-244 220,-210 68,-210"/>
<text text-anchor="start" x="73.5" y="-232" font-family="Times New Roman,serif" font-size="10.00">tgtRoleName = &quot;greetingMessage&quot;</text>
<text text-anchor="start" x="106" y="-218" font-family="Times New Roman,serif" font-size="10.00">modifier = &quot;create&quot;</text>
</g>
<!-- g1&#45;&#45;l5 -->
<g id="edge4" class="edge"><title>g1&#45;&#45;l5</title>
<path fill="none" stroke="black" d="M230.573,-302.494C215.94,-291.424 197.898,-277.775 182.079,-265.807"/>
<text text-anchor="middle" x="191.856" y="-265.405" font-family="Times New Roman,serif" font-size="10.00">outgoing</text>
<text text-anchor="middle" x="220.795" y="-297.897" font-family="Times New Roman,serif" font-size="10.00">src</text>
</g>
<!-- l8 -->
<g id="node8" class="node"><title>l8</title>
<polygon fill="none" stroke="black" points="311,-244 311,-261 421,-261 421,-244 311,-244"/>
<text text-anchor="start" x="329" y="-250.5" font-family="Times New Roman,serif" font-size="10.00"> </text>
<text text-anchor="start" x="332" y="-250.5" font-family="Times New Roman,serif" font-size="10.00">l8 :LinkConstraint</text>
<polygon fill="none" stroke="black" points="311,-210 311,-244 421,-244 421,-210 311,-210"/>
<text text-anchor="start" x="316.5" y="-232" font-family="Times New Roman,serif" font-size="10.00">tgtRoleName = &quot;person&quot;</text>
<text text-anchor="start" x="328" y="-218" font-family="Times New Roman,serif" font-size="10.00">modifier = &quot;create&quot;</text>
</g>
<!-- g1&#45;&#45;l8 -->
<g id="edge6" class="edge"><title>g1&#45;&#45;l8</title>
<path fill="none" stroke="black" d="M285.449,-302.494C299.064,-291.424 315.851,-277.775 330.57,-265.807"/>
<text text-anchor="middle" x="326.204" y="-272.304" font-family="Times New Roman,serif" font-size="10.00">outgoing</text>
<text text-anchor="middle" x="289.815" y="-290.998" font-family="Times New Roman,serif" font-size="10.00">src</text>
</g>
<!-- g3 -->
<g id="node3" class="node"><title>g3</title>
<polygon fill="none" stroke="black" points="145,-38 145,-55 240,-55 240,-38 145,-38"/>
<text text-anchor="start" x="148.5" y="-44.5" font-family="Times New Roman,serif" font-size="10.00"> </text>
<text text-anchor="start" x="151.5" y="-44.5" font-family="Times New Roman,serif" font-size="10.00">g3 :GreetingMessage</text>
<polygon fill="none" stroke="black" points="145,-18 145,-38 240,-38 240,-18 145,-18"/>
<text text-anchor="start" x="165" y="-26" font-family="Times New Roman,serif" font-size="10.00">text = &quot;Hello&quot;</text>
</g>
<!-- g2&#45;&#45;g3 -->
<g id="edge8" class="edge"><title>g2&#45;&#45;g3</title>
<path fill="none" stroke="black" d="M247.634,-121.867C236.285,-104.757 218.799,-78.3991 206.466,-59.8067"/>
<text text-anchor="middle" x="214.998" y="-62.5229" font-family="Times New Roman,serif" font-size="10.00">greetingMessage</text>
<text text-anchor="middle" x="239.103" y="-114.151" font-family="Times New Roman,serif" font-size="10.00">greeting</text>
</g>
<!-- p4 -->
<g id="node4" class="node"><title>p4</title>
<polygon fill="none" stroke="black" points="274,-38 274,-55 393,-55 393,-38 274,-38"/>
<text text-anchor="start" x="310.5" y="-44.5" font-family="Times New Roman,serif" font-size="10.00"> </text>
<text text-anchor="start" x="313.5" y="-44.5" font-family="Times New Roman,serif" font-size="10.00">p4 :Person</text>
<polygon fill="none" stroke="black" points="274,-18 274,-38 393,-38 393,-18 274,-18"/>
<text text-anchor="start" x="279.5" y="-26" font-family="Times New Roman,serif" font-size="10.00">name = &quot;TTC Participants&quot;</text>
</g>
<!-- g2&#45;&#45;p4 -->
<g id="edge10" class="edge"><title>g2&#45;&#45;p4</title>
<path fill="none" stroke="black" d="M271.553,-121.867C284.089,-104.757 303.401,-78.3991 317.023,-59.8067"/>
<text text-anchor="middle" x="315.075" y="-67.1152" font-family="Times New Roman,serif" font-size="10.00">person</text>
<text text-anchor="middle" x="273.5" y="-109.558" font-family="Times New Roman,serif" font-size="10.00">greeting</text>
</g>
<!-- g6 -->
<g id="node6" class="node"><title>g6</title>
<polygon fill="none" stroke="black" points="89,-141 89,-158 196,-158 196,-141 89,-141"/>
<text text-anchor="start" x="92.5" y="-147.5" font-family="Times New Roman,serif" font-size="10.00"> </text>
<text text-anchor="start" x="95.5" y="-147.5" font-family="Times New Roman,serif" font-size="10.00">g6 :GreetingMessagePO</text>
<polygon fill="none" stroke="black" points="89,-121 89,-141 196,-141 196,-121 89,-121"/>
<text text-anchor="start" x="104.5" y="-129" font-family="Times New Roman,serif" font-size="10.00">modifier = &quot;create&quot;</text>
</g>
<!-- l5&#45;&#45;g6 -->
<g id="edge16" class="edge"><title>l5&#45;&#45;g6</title>
<path fill="none" stroke="black" d="M143.389,-206.286C143.09,-192.248 142.737,-175.632 142.461,-162.676"/>
<text text-anchor="middle" x="146.879" y="-169.147" font-family="Times New Roman,serif" font-size="10.00">tgt</text>
<text text-anchor="middle" x="138.971" y="-194.815" font-family="Times New Roman,serif" font-size="10.00">incomming</text>
</g>
<!-- g6&#45;&#45;g3 -->
<g id="edge14" class="edge"><title>g6&#45;&#45;g3</title>
<path fill="none" stroke="black" d="M152.849,-117.085C161.293,-100.027 172.949,-76.483 181.344,-59.5257"/>
<text text-anchor="middle" x="181.11" y="-67.023" font-family="Times New Roman,serif" font-size="10.00">currentMatch</text>
</g>
<!-- a7 -->
<g id="node7" class="node"><title>a7</title>
<polygon fill="none" stroke="black" points="8,-52 8,-69 111,-69 111,-52 8,-52"/>
<text text-anchor="start" x="11.5" y="-58.5" font-family="Times New Roman,serif" font-size="10.00"> </text>
<text text-anchor="start" x="14.5" y="-58.5" font-family="Times New Roman,serif" font-size="10.00">a7 :AttributeConstraint</text>
<polygon fill="none" stroke="black" points="8,-4 8,-52 111,-52 111,-4 8,-4"/>
<text text-anchor="start" x="24.5" y="-40" font-family="Times New Roman,serif" font-size="10.00">attrName = &quot;text&quot;</text>
<text text-anchor="start" x="22.5" y="-26" font-family="Times New Roman,serif" font-size="10.00">tgtValue = &quot;Hello&quot;</text>
<text text-anchor="start" x="21.5" y="-12" font-family="Times New Roman,serif" font-size="10.00">modifier = &quot;create&quot;</text>
</g>
<!-- g6&#45;&#45;a7 -->
<g id="edge12" class="edge"><title>g6&#45;&#45;a7</title>
<path fill="none" stroke="black" d="M123.99,-117.085C113.597,-104.437 100.272,-88.2221 88.3959,-73.771"/>
<text text-anchor="middle" x="97.4152" y="-75.5898" font-family="Times New Roman,serif" font-size="10.00">attrConstraints</text>
<text text-anchor="middle" x="114.971" y="-110.266" font-family="Times New Roman,serif" font-size="10.00">src</text>
</g>
<!-- p9 -->
<g id="node9" class="node"><title>p9</title>
<polygon fill="none" stroke="black" points="323,-148 323,-165 442,-165 442,-148 323,-148"/>
<text text-anchor="start" x="353.5" y="-154.5" font-family="Times New Roman,serif" font-size="10.00"> </text>
<text text-anchor="start" x="356.5" y="-154.5" font-family="Times New Roman,serif" font-size="10.00">p9 :PersonPO</text>
<polygon fill="none" stroke="black" points="323,-114 323,-148 442,-148 442,-114 323,-114"/>
<text text-anchor="start" x="344.5" y="-136" font-family="Times New Roman,serif" font-size="10.00">modifier = &quot;create&quot;</text>
<text text-anchor="start" x="328.5" y="-122" font-family="Times New Roman,serif" font-size="10.00">name = &quot;TTC Participants&quot;</text>
</g>
<!-- l8&#45;&#45;p9 -->
<g id="edge18" class="edge"><title>l8&#45;&#45;p9</title>
<path fill="none" stroke="black" d="M370.887,-206.286C372.873,-194.624 375.16,-181.182 377.142,-169.538"/>
<text text-anchor="middle" x="379.788" y="-176.682" font-family="Times New Roman,serif" font-size="10.00">tgt</text>
<text text-anchor="middle" x="368.242" y="-194.142" font-family="Times New Roman,serif" font-size="10.00">incomming</text>
</g>
<!-- p9&#45;&#45;p4 -->
<g id="edge22" class="edge"><title>p9&#45;&#45;p4</title>
<path fill="none" stroke="black" d="M368.09,-110.328C360.28,-94.2312 350.694,-74.4712 343.515,-59.6748"/>
<text text-anchor="middle" x="351.274" y="-63.4842" font-family="Times New Roman,serif" font-size="10.00">currentMatch</text>
</g>
<!-- a10 -->
<g id="node10" class="node"><title>a10</title>
<polygon fill="none" stroke="black" points="427,-52 427,-69 559,-69 559,-52 427,-52"/>
<text text-anchor="start" x="443" y="-58.5" font-family="Times New Roman,serif" font-size="10.00"> </text>
<text text-anchor="start" x="446" y="-58.5" font-family="Times New Roman,serif" font-size="10.00">a10 :AttributeConstraint</text>
<polygon fill="none" stroke="black" points="427,-4 427,-52 559,-52 559,-4 427,-4"/>
<text text-anchor="start" x="455" y="-40" font-family="Times New Roman,serif" font-size="10.00">attrName = &quot;name&quot;</text>
<text text-anchor="start" x="432.5" y="-26" font-family="Times New Roman,serif" font-size="10.00">tgtValue = &quot;TTC Participants&quot;</text>
<text text-anchor="start" x="455" y="-12" font-family="Times New Roman,serif" font-size="10.00">modifier = &quot;create&quot;</text>
</g>
<!-- p9&#45;&#45;a10 -->
<g id="edge20" class="edge"><title>p9&#45;&#45;a10</title>
<path fill="none" stroke="black" d="M413.511,-110.328C426.074,-98.8968 440.667,-85.6185 453.895,-73.5822"/>
<text text-anchor="middle" x="450.036" y="-80.3075" font-family="Times New Roman,serif" font-size="10.00">attrConstraints</text>
<text text-anchor="middle" x="417.37" y="-98.6023" font-family="Times New Roman,serif" font-size="10.00">src</text>
</g>
</g>
</svg>
