<?xml version="1.0" encoding="UTF-8" standalone="no"?>
<!DOCTYPE svg PUBLIC "-//W3C//DTD SVG 1.1//EN"
 "http://www.w3.org/Graphics/SVG/1.1/DTD/svg11.dtd">
<!-- Generated by graphviz version 2.28.0 (20110507.0327)
 -->
<!-- Title: ObjectDiagram Pages: 1 -->
<svg width="858pt" height="372pt"
 viewBox="0.00 0.00 858.00 372.00" xmlns="http://www.w3.org/2000/svg" xmlns:xlink="http://www.w3.org/1999/xlink">
<g id="graph1" class="graph" transform="scale(1 1) rotate(0) translate(4 368)">
<title>ObjectDiagram</title>
<polygon fill="white" stroke="white" points="-4,5 -4,-368 855,-368 855,5 -4,5"/>
<!-- g1 -->
<g id="node1" class="node"><title>g1</title>
<polygon fill="none" stroke="black" points="375,-337 375,-354 424,-354 424,-337 375,-337"/>
<text text-anchor="start" x="378.5" y="-343.5" font-family="Times New Roman,serif" font-size="10.00"> </text>
<text text-anchor="start" x="381.5" y="-343.5" font-family="Times New Roman,serif" font-size="10.00">g1 :Graph</text>
</g>
<!-- n4 -->
<g id="node2" class="node"><title>n4</title>
<polygon fill="none" stroke="black" points="8,-270 8,-287 69,-287 69,-270 8,-270"/>
<text text-anchor="start" x="18.5" y="-276.5" font-family="Times New Roman,serif" font-size="10.00"> </text>
<text text-anchor="start" x="21.5" y="-276.5" font-family="Times New Roman,serif" font-size="10.00">n4 :Node</text>
<polygon fill="none" stroke="black" points="8,-250 8,-270 69,-270 69,-250 8,-250"/>
<text text-anchor="start" x="13.5" y="-258" font-family="Times New Roman,serif" font-size="10.00">name = &quot;n2&quot;</text>
</g>
<!-- g1&#45;&#45;n4 -->
<g id="edge28" class="edge"><title>g1&#45;&#45;n4</title>
<path fill="none" stroke="black" d="M366.542,-341.824C309.797,-335.741 189.239,-320.454 91,-292 86.2154,-290.614 81.2779,-288.93 76.4299,-287.118"/>
<text text-anchor="middle" x="86.3967" y="-283.803" font-family="Times New Roman,serif" font-size="10.00">nodes</text>
<text text-anchor="middle" x="357.066" y="-342.518" font-family="Times New Roman,serif" font-size="10.00">graph</text>
</g>
<!-- e5 -->
<g id="node3" class="node"><title>e5</title>
<polygon fill="none" stroke="black" points="24,-188 24,-205 89,-205 89,-188 24,-188"/>
<text text-anchor="start" x="38" y="-194.5" font-family="Times New Roman,serif" font-size="10.00"> </text>
<text text-anchor="start" x="41" y="-194.5" font-family="Times New Roman,serif" font-size="10.00">e5 :Edge</text>
<polygon fill="none" stroke="black" points="24,-168 24,-188 89,-188 89,-168 24,-168"/>
<text text-anchor="start" x="29.5" y="-176" font-family="Times New Roman,serif" font-size="10.00">name = &quot;e11&quot;</text>
</g>
<!-- g1&#45;&#45;e5 -->
<g id="edge16" class="edge"><title>g1&#45;&#45;e5</title>
<path fill="none" stroke="black" d="M366.484,-341.676C303.571,-334.757 167.952,-317.315 129,-292 98.1108,-271.925 76.457,-233.784 65.1343,-209.691"/>
<text text-anchor="middle" x="72.8994" y="-213.492" font-family="Times New Roman,serif" font-size="10.00">edges</text>
<text text-anchor="middle" x="356.999" y="-342.345" font-family="Times New Roman,serif" font-size="10.00">graph</text>
</g>
<!-- n9 -->
<g id="node4" class="node"><title>n9</title>
<polygon fill="none" stroke="black" points="245,-270 245,-287 306,-287 306,-270 245,-270"/>
<text text-anchor="start" x="255.5" y="-276.5" font-family="Times New Roman,serif" font-size="10.00"> </text>
<text text-anchor="start" x="258.5" y="-276.5" font-family="Times New Roman,serif" font-size="10.00">n9 :Node</text>
<polygon fill="none" stroke="black" points="245,-250 245,-270 306,-270 306,-250 245,-250"/>
<text text-anchor="start" x="250.5" y="-258" font-family="Times New Roman,serif" font-size="10.00">name = &quot;n4&quot;</text>
</g>
<!-- g1&#45;&#45;n9 -->
<g id="edge30" class="edge"><title>g1&#45;&#45;n9</title>
<path fill="none" stroke="black" d="M370.862,-327.981C352.999,-317.177 329.725,-303.1 310.583,-291.522"/>
<text text-anchor="middle" x="320.525" y="-290.096" font-family="Times New Roman,serif" font-size="10.00">nodes</text>
<text text-anchor="middle" x="360.92" y="-324.407" font-family="Times New Roman,serif" font-size="10.00">graph</text>
</g>
<!-- e10 -->
<g id="node5" class="node"><title>e10</title>
<polygon fill="none" stroke="black" points="279,-188 279,-205 344,-205 344,-188 279,-188"/>
<text text-anchor="start" x="290.5" y="-194.5" font-family="Times New Roman,serif" font-size="10.00"> </text>
<text text-anchor="start" x="293.5" y="-194.5" font-family="Times New Roman,serif" font-size="10.00">e10 :Edge</text>
<polygon fill="none" stroke="black" points="279,-168 279,-188 344,-188 344,-168 279,-168"/>
<text text-anchor="start" x="284.5" y="-176" font-family="Times New Roman,serif" font-size="10.00">name = &quot;e14&quot;</text>
</g>
<!-- g1&#45;&#45;e10 -->
<g id="edge4" class="edge"><title>g1&#45;&#45;e10</title>
<path fill="none" stroke="black" d="M387.99,-327.999C381.422,-317.693 373.022,-304.217 366,-292 349.918,-264.021 332.737,-230.963 321.939,-209.753"/>
<text text-anchor="middle" x="329.825" y="-213.401" font-family="Times New Roman,serif" font-size="10.00">edges</text>
<text text-anchor="middle" x="379.563" y="-320.116" font-family="Times New Roman,serif" font-size="10.00">graph</text>
</g>
<!-- n11 -->
<g id="node6" class="node"><title>n11</title>
<polygon fill="none" stroke="black" points="321,-106 321,-123 382,-123 382,-106 321,-106"/>
<text text-anchor="start" x="329.5" y="-112.5" font-family="Times New Roman,serif" font-size="10.00"> </text>
<text text-anchor="start" x="332.5" y="-112.5" font-family="Times New Roman,serif" font-size="10.00">n11 :Node</text>
<polygon fill="none" stroke="black" points="321,-86 321,-106 382,-106 382,-86 321,-86"/>
<text text-anchor="start" x="326.5" y="-94" font-family="Times New Roman,serif" font-size="10.00">name = &quot;n5&quot;</text>
</g>
<!-- g1&#45;&#45;n11 -->
<g id="edge20" class="edge"><title>g1&#45;&#45;n11</title>
<path fill="none" stroke="black" d="M395.548,-327.812C386.993,-285.213 364.819,-174.809 355.37,-127.757"/>
<text text-anchor="middle" x="361.298" y="-133.31" font-family="Times New Roman,serif" font-size="10.00">nodes</text>
<text text-anchor="middle" x="389.62" y="-317.258" font-family="Times New Roman,serif" font-size="10.00">graph</text>
</g>
<!-- e12 -->
<g id="node7" class="node"><title>e12</title>
<polygon fill="none" stroke="black" points="167,-24 167,-41 232,-41 232,-24 167,-24"/>
<text text-anchor="start" x="178.5" y="-30.5" font-family="Times New Roman,serif" font-size="10.00"> </text>
<text text-anchor="start" x="181.5" y="-30.5" font-family="Times New Roman,serif" font-size="10.00">e12 :Edge</text>
<polygon fill="none" stroke="black" points="167,-4 167,-24 232,-24 232,-4 167,-4"/>
<text text-anchor="start" x="172.5" y="-12" font-family="Times New Roman,serif" font-size="10.00">name = &quot;e18&quot;</text>
</g>
<!-- g1&#45;&#45;e12 -->
<g id="edge6" class="edge"><title>g1&#45;&#45;e12</title>
<path fill="none" stroke="black" d="M366.473,-343.745C325.03,-340.57 253.136,-329.586 206,-292 158.966,-254.495 154.25,-223.655 162,-164 167.538,-121.369 182.187,-73.2247 191.303,-45.9539"/>
<text text-anchor="middle" x="192.488" y="-53.3834" font-family="Times New Roman,serif" font-size="10.00">edges</text>
<text text-anchor="middle" x="357.065" y="-344.635" font-family="Times New Roman,serif" font-size="10.00">graph</text>
</g>
<!-- e13 -->
<g id="node8" class="node"><title>e13</title>
<polygon fill="none" stroke="black" points="322,-24 322,-41 387,-41 387,-24 322,-24"/>
<text text-anchor="start" x="333.5" y="-30.5" font-family="Times New Roman,serif" font-size="10.00"> </text>
<text text-anchor="start" x="336.5" y="-30.5" font-family="Times New Roman,serif" font-size="10.00">e13 :Edge</text>
<polygon fill="none" stroke="black" points="322,-4 322,-24 387,-24 387,-4 322,-4"/>
<text text-anchor="start" x="327.5" y="-12" font-family="Times New Roman,serif" font-size="10.00">name = &quot;e15&quot;</text>
</g>
<!-- g1&#45;&#45;e13 -->
<g id="edge8" class="edge"><title>g1&#45;&#45;e13</title>
<path fill="none" stroke="black" d="M402.59,-327.775C410.768,-284.85 427.866,-170.229 398,-82 393.461,-68.5916 384.472,-55.814 375.795,-45.6817"/>
<text text-anchor="middle" x="384.852" y="-47.4213" font-family="Times New Roman,serif" font-size="10.00">edges</text>
<text text-anchor="middle" x="400.022" y="-315.611" font-family="Times New Roman,serif" font-size="10.00">graph</text>
</g>
<!-- e14 -->
<g id="node9" class="node"><title>e14</title>
<polygon fill="none" stroke="black" points="422,-24 422,-41 487,-41 487,-24 422,-24"/>
<text text-anchor="start" x="433.5" y="-30.5" font-family="Times New Roman,serif" font-size="10.00"> </text>
<text text-anchor="start" x="436.5" y="-30.5" font-family="Times New Roman,serif" font-size="10.00">e14 :Edge</text>
<polygon fill="none" stroke="black" points="422,-4 422,-24 487,-24 487,-4 422,-4"/>
<text text-anchor="start" x="427.5" y="-12" font-family="Times New Roman,serif" font-size="10.00">name = &quot;e19&quot;</text>
</g>
<!-- g1&#45;&#45;e14 -->
<g id="edge10" class="edge"><title>g1&#45;&#45;e14</title>
<path fill="none" stroke="black" d="M409.263,-327.951C414.85,-317.851 421.35,-304.601 425,-292 450.715,-203.22 454.013,-91.9145 454.177,-45.6803"/>
<text text-anchor="middle" x="458.31" y="-52.2865" font-family="Times New Roman,serif" font-size="10.00">edges</text>
<text text-anchor="middle" x="409.887" y="-315.47" font-family="Times New Roman,serif" font-size="10.00">graph</text>
</g>
<!-- e8 -->
<g id="node10" class="node"><title>e8</title>
<polygon fill="none" stroke="black" points="180,-188 180,-205 245,-205 245,-188 180,-188"/>
<text text-anchor="start" x="194" y="-194.5" font-family="Times New Roman,serif" font-size="10.00"> </text>
<text text-anchor="start" x="197" y="-194.5" font-family="Times New Roman,serif" font-size="10.00">e8 :Edge</text>
<polygon fill="none" stroke="black" points="180,-168 180,-188 245,-188 245,-168 180,-168"/>
<text text-anchor="start" x="185.5" y="-176" font-family="Times New Roman,serif" font-size="10.00">name = &quot;e13&quot;</text>
</g>
<!-- g1&#45;&#45;e8 -->
<g id="edge18" class="edge"><title>g1&#45;&#45;e8</title>
<path fill="none" stroke="black" d="M366.537,-344.8C327.187,-342.67 261.831,-332.724 227,-292 207.554,-269.264 206.867,-232.977 208.885,-209.832"/>
<text text-anchor="middle" x="212.473" y="-216.666" font-family="Times New Roman,serif" font-size="10.00">edges</text>
<text text-anchor="middle" x="357.195" y="-345.868" font-family="Times New Roman,serif" font-size="10.00">graph</text>
</g>
<!-- n15 -->
<g id="node11" class="node"><title>n15</title>
<polygon fill="none" stroke="black" points="493,-270 493,-287 554,-287 554,-270 493,-270"/>
<text text-anchor="start" x="501.5" y="-276.5" font-family="Times New Roman,serif" font-size="10.00"> </text>
<text text-anchor="start" x="504.5" y="-276.5" font-family="Times New Roman,serif" font-size="10.00">n15 :Node</text>
<polygon fill="none" stroke="black" points="493,-250 493,-270 554,-270 554,-250 493,-250"/>
<text text-anchor="start" x="498.5" y="-258" font-family="Times New Roman,serif" font-size="10.00">name = &quot;n6&quot;</text>
</g>
<!-- g1&#45;&#45;n15 -->
<g id="edge22" class="edge"><title>g1&#45;&#45;n15</title>
<path fill="none" stroke="black" d="M427.138,-327.981C445.001,-317.177 468.275,-303.1 487.417,-291.522"/>
<text text-anchor="middle" x="481.85" y="-297.328" font-family="Times New Roman,serif" font-size="10.00">nodes</text>
<text text-anchor="middle" x="432.705" y="-317.175" font-family="Times New Roman,serif" font-size="10.00">graph</text>
</g>
<!-- n16 -->
<g id="node12" class="node"><title>n16</title>
<polygon fill="none" stroke="black" points="588,-270 588,-287 649,-287 649,-270 588,-270"/>
<text text-anchor="start" x="596.5" y="-276.5" font-family="Times New Roman,serif" font-size="10.00"> </text>
<text text-anchor="start" x="599.5" y="-276.5" font-family="Times New Roman,serif" font-size="10.00">n16 :Node</text>
<polygon fill="none" stroke="black" points="588,-250 588,-270 649,-270 649,-250 588,-250"/>
<text text-anchor="start" x="593.5" y="-258" font-family="Times New Roman,serif" font-size="10.00">name = &quot;n7&quot;</text>
</g>
<!-- g1&#45;&#45;n16 -->
<g id="edge24" class="edge"><title>g1&#45;&#45;n16</title>
<path fill="none" stroke="black" d="M431.251,-336.349C465.947,-326.733 522.533,-310.147 570,-292 573.168,-290.789 576.423,-289.468 579.674,-288.095"/>
<text text-anchor="middle" x="572.959" y="-293.005" font-family="Times New Roman,serif" font-size="10.00">nodes</text>
<text text-anchor="middle" x="438.84" y="-327.337" font-family="Times New Roman,serif" font-size="10.00">graph</text>
</g>
<!-- n17 -->
<g id="node13" class="node"><title>n17</title>
<polygon fill="none" stroke="black" points="722,-270 722,-287 783,-287 783,-270 722,-270"/>
<text text-anchor="start" x="730.5" y="-276.5" font-family="Times New Roman,serif" font-size="10.00"> </text>
<text text-anchor="start" x="733.5" y="-276.5" font-family="Times New Roman,serif" font-size="10.00">n17 :Node</text>
<polygon fill="none" stroke="black" points="722,-250 722,-270 783,-270 783,-250 722,-250"/>
<text text-anchor="start" x="727.5" y="-258" font-family="Times New Roman,serif" font-size="10.00">name = &quot;n8&quot;</text>
</g>
<!-- g1&#45;&#45;n17 -->
<g id="edge26" class="edge"><title>g1&#45;&#45;n17</title>
<path fill="none" stroke="black" d="M431.497,-341.618C487.125,-335.31 603.808,-319.802 699,-292 703.782,-290.604 708.717,-288.913 713.564,-287.097"/>
<text text-anchor="middle" x="706.539" y="-291.714" font-family="Times New Roman,serif" font-size="10.00">nodes</text>
<text text-anchor="middle" x="440.003" y="-333.861" font-family="Times New Roman,serif" font-size="10.00">graph</text>
</g>
<!-- e18 -->
<g id="node14" class="node"><title>e18</title>
<polygon fill="none" stroke="black" points="662,-188 662,-205 727,-205 727,-188 662,-188"/>
<text text-anchor="start" x="673.5" y="-194.5" font-family="Times New Roman,serif" font-size="10.00"> </text>
<text text-anchor="start" x="676.5" y="-194.5" font-family="Times New Roman,serif" font-size="10.00">e18 :Edge</text>
<polygon fill="none" stroke="black" points="662,-168 662,-188 727,-188 727,-168 662,-168"/>
<text text-anchor="start" x="667.5" y="-176" font-family="Times New Roman,serif" font-size="10.00">name = &quot;e16&quot;</text>
</g>
<!-- g1&#45;&#45;e18 -->
<g id="edge12" class="edge"><title>g1&#45;&#45;e18</title>
<path fill="none" stroke="black" d="M431.377,-342.724C494.62,-337.63 631.338,-323.22 665,-292 687.814,-270.841 693.235,-233.394 694.227,-209.679"/>
<text text-anchor="middle" x="697.91" y="-216.475" font-family="Times New Roman,serif" font-size="10.00">edges</text>
<text text-anchor="middle" x="440.043" y="-335.233" font-family="Times New Roman,serif" font-size="10.00">graph</text>
</g>
<!-- e19 -->
<g id="node15" class="node"><title>e19</title>
<polygon fill="none" stroke="black" points="778,-188 778,-205 843,-205 843,-188 778,-188"/>
<text text-anchor="start" x="789.5" y="-194.5" font-family="Times New Roman,serif" font-size="10.00"> </text>
<text text-anchor="start" x="792.5" y="-194.5" font-family="Times New Roman,serif" font-size="10.00">e19 :Edge</text>
<polygon fill="none" stroke="black" points="778,-168 778,-188 843,-188 843,-168 778,-168"/>
<text text-anchor="start" x="783.5" y="-176" font-family="Times New Roman,serif" font-size="10.00">name = &quot;e17&quot;</text>
</g>
<!-- g1&#45;&#45;e19 -->
<g id="edge14" class="edge"><title>g1&#45;&#45;e19</title>
<path fill="none" stroke="black" d="M431.482,-345.623C517.548,-346.542 748.351,-344.001 799,-292 820.029,-270.409 818.411,-233.09 814.675,-209.518"/>
<text text-anchor="middle" x="820.109" y="-215.413" font-family="Times New Roman,serif" font-size="10.00">edges</text>
<text text-anchor="middle" x="440.562" y="-338.935" font-family="Times New Roman,serif" font-size="10.00">graph</text>
</g>
<!-- n4&#45;&#45;e5 -->
<g id="edge42" class="edge"><title>n4&#45;&#45;e5</title>
<path fill="none" stroke="black" d="M42.9186,-246.14C45.4792,-234.759 48.5991,-220.893 51.1497,-209.557"/>
<text text-anchor="middle" x="53.2833" y="-216.827" font-family="Times New Roman,serif" font-size="10.00">outEdges</text>
<text text-anchor="middle" x="40.7849" y="-233.87" font-family="Times New Roman,serif" font-size="10.00">src</text>
</g>
<!-- n9&#45;&#45;e10 -->
<g id="edge44" class="edge"><title>n9&#45;&#45;e10</title>
<path fill="none" stroke="black" d="M284.837,-246.14C289.958,-234.759 296.198,-220.893 301.299,-209.557"/>
<text text-anchor="middle" x="301.434" y="-217.056" font-family="Times New Roman,serif" font-size="10.00">outEdges</text>
<text text-anchor="middle" x="284.702" y="-233.641" font-family="Times New Roman,serif" font-size="10.00">src</text>
</g>
<!-- n9&#45;&#45;e8 -->
<g id="edge46" class="edge"><title>n9&#45;&#45;e8</title>
<path fill="none" stroke="black" d="M257.785,-246.14C248.823,-234.759 237.903,-220.893 228.976,-209.557"/>
<text text-anchor="middle" x="237.904" y="-211.563" font-family="Times New Roman,serif" font-size="10.00">inEdges</text>
<text text-anchor="middle" x="248.858" y="-239.134" font-family="Times New Roman,serif" font-size="10.00">tgt</text>
</g>
<!-- e10&#45;&#45;n11 -->
<g id="edge2" class="edge"><title>e10&#45;&#45;n11</title>
<path fill="none" stroke="black" d="M321.93,-164.14C327.62,-152.759 334.554,-138.893 340.222,-127.557"/>
<text text-anchor="middle" x="339.948" y="-135.053" font-family="Times New Roman,serif" font-size="10.00">tgt</text>
<text text-anchor="middle" x="322.203" y="-151.643" font-family="Times New Roman,serif" font-size="10.00">inEdges</text>
</g>
<!-- n11&#45;&#45;e12 -->
<g id="edge32" class="edge"><title>n11&#45;&#45;e12</title>
<path fill="none" stroke="black" d="M312.644,-83.8126C290.306,-72.0555 262.162,-57.2432 239.471,-45.3006"/>
<text text-anchor="middle" x="249.46" y="-43.2819" font-family="Times New Roman,serif" font-size="10.00">outEdges</text>
<text text-anchor="middle" x="302.656" y="-80.8314" font-family="Times New Roman,serif" font-size="10.00">src</text>
</g>
<!-- n11&#45;&#45;e13 -->
<g id="edge34" class="edge"><title>n11&#45;&#45;e13</title>
<path fill="none" stroke="black" d="M351.82,-82.1396C352.247,-70.759 352.767,-56.8929 353.192,-45.5569"/>
<text text-anchor="middle" x="357.075" y="-52.272" font-family="Times New Roman,serif" font-size="10.00">outEdges</text>
<text text-anchor="middle" x="347.936" y="-70.4246" font-family="Times New Roman,serif" font-size="10.00">src</text>
</g>
<!-- n11&#45;&#45;e14 -->
<g id="edge36" class="edge"><title>n11&#45;&#45;e14</title>
<path fill="none" stroke="black" d="M378.873,-82.3508C393.529,-70.9674 411.445,-57.0524 426.104,-45.6665"/>
<text text-anchor="middle" x="421.539" y="-52.0635" font-family="Times New Roman,serif" font-size="10.00">inEdges</text>
<text text-anchor="middle" x="383.439" y="-70.9538" font-family="Times New Roman,serif" font-size="10.00">tgt</text>
</g>
<!-- n17&#45;&#45;e18 -->
<g id="edge38" class="edge"><title>n17&#45;&#45;e18</title>
<path fill="none" stroke="black" d="M736.151,-246.14C727.9,-234.759 717.847,-220.893 709.629,-209.557"/>
<text text-anchor="middle" x="718.37" y="-211.914" font-family="Times New Roman,serif" font-size="10.00">outEdges_inEdges</text>
<text text-anchor="middle" x="727.41" y="-238.783" font-family="Times New Roman,serif" font-size="10.00">src_tgt</text>
</g>
<!-- n17&#45;&#45;e19 -->
<g id="edge40" class="edge"><title>n17&#45;&#45;e19</title>
<path fill="none" stroke="black" d="M767.849,-246.14C776.1,-234.759 786.153,-220.893 794.371,-209.557"/>
<text text-anchor="middle" x="792.473" y="-216.875" font-family="Times New Roman,serif" font-size="10.00">outEdges_inEdges</text>
<text text-anchor="middle" x="769.747" y="-233.821" font-family="Times New Roman,serif" font-size="10.00">src_tgt</text>
</g>
</g>
</svg>
