<?xml version="1.0" encoding="UTF-8" standalone="no"?>
<!DOCTYPE svg PUBLIC "-//W3C//DTD SVG 1.1//EN"
 "http://www.w3.org/Graphics/SVG/1.1/DTD/svg11.dtd">
<!-- Generated by graphviz version 2.28.0 (20110507.0327)
 -->
<!-- Title: ObjectDiagram Pages: 1 -->
<svg width="187pt" height="246pt"
 viewBox="0.00 0.00 187.00 246.00" xmlns="http://www.w3.org/2000/svg" xmlns:xlink="http://www.w3.org/1999/xlink">
<g id="graph1" class="graph" transform="scale(1 1) rotate(0) translate(4 242)">
<title>ObjectDiagram</title>
<polygon fill="white" stroke="white" points="-4,5 -4,-242 184,-242 184,5 -4,5"/>
<!-- e1 -->
<g id="node1" class="node"><title>e1</title>
<polygon fill="deepskyblue" stroke="deepskyblue" points="8,-182.5 8,-233.5 66,-233.5 66,-182.5 8,-182.5"/>
<text text-anchor="start" x="32" y="-223.5" font-family="Arial" font-size="10.00">«bound»</text>
<polygon fill="none" stroke="black" points="8,-202 8,-218 66,-218 66,-202 8,-202"/>
<text text-anchor="start" x="11.5" y="-208" font-family="Arial" font-size="10.00"> </text>
<text text-anchor="start" x="15.5" y="-208" font-family="Arial" font-size="10.00"> e1 :EdgePO </text>
<polygon fill="none" stroke="black" points="8,-182 8,-202 66,-202 66,-182 8,-182"/>
<text text-anchor="start" x="33.5" y="-190" font-family="Arial" font-size="10.00"> &#160;</text>
</g>
<!-- n2 -->
<g id="node2" class="node"><title>n2</title>
<polygon fill="deepskyblue" stroke="deepskyblue" points="7.5,-93.5 7.5,-130.5 66.5,-130.5 66.5,-93.5 7.5,-93.5"/>
<polygon fill="none" stroke="black" points="8,-113 8,-130 67,-130 67,-113 8,-113"/>
<text text-anchor="start" x="11.5" y="-119.5" font-family="Arial" font-size="10.00"> </text>
<text text-anchor="start" x="15.5" y="-119.5" font-family="Arial" font-size="10.00"> n2 :NodePO </text>
<polygon fill="none" stroke="black" points="8,-93 8,-113 67,-113 67,-93 8,-93"/>
<text text-anchor="start" x="34" y="-101" font-family="Arial" font-size="10.00"> &#160;</text>
</g>
<!-- e1&#45;&#45;n2 -->
<g id="edge2" class="edge"><title>e1&#45;&#45;n2</title>
<path fill="none" stroke="black" d="M37,-178.286C37,-164.248 37,-147.632 37,-134.676"/>
<text text-anchor="middle" x="41.2262" y="-141.239" font-family="Arial" font-size="10.00">src</text>
</g>
<!-- n3 -->
<g id="node3" class="node"><title>n3</title>
<polygon fill="deepskyblue" stroke="deepskyblue" points="50.5,-4.5 50.5,-41.5 121.5,-41.5 121.5,-4.5 50.5,-4.5"/>
<polygon fill="none" stroke="black" points="51,-24 51,-41 122,-41 122,-24 51,-24"/>
<text text-anchor="start" x="54.5" y="-30.5" font-family="Arial" font-size="10.00"> </text>
<text text-anchor="start" x="58.5" y="-30.5" font-family="Arial" font-size="10.00"> n3 :NodePO </text>
<polygon fill="none" stroke="black" points="51,-4 51,-24 122,-24 122,-4 51,-4"/>
<text text-anchor="start" x="83" y="-12" font-family="Arial" font-size="10.00"> &#160;</text>
</g>
<!-- n2&#45;&#45;n3 -->
<g id="edge4" class="edge"><title>n2&#45;&#45;n3</title>
<path fill="none" stroke="black" d="M49.1124,-89.4944C56.6509,-76.1096 66.3129,-58.9547 73.8572,-45.5597"/>
<text text-anchor="middle" x="73.0919" y="-53.0304" font-family="Arial" font-size="10.00">copy</text>
</g>
<!-- e4 -->
<g id="node4" class="node"><title>e4</title>
<polygon fill="deepskyblue" stroke="deepskyblue" points="100.5,-86.5 100.5,-137.5 171.5,-137.5 171.5,-86.5 100.5,-86.5"/>
<text text-anchor="start" x="133" y="-127.5" font-family="Arial" font-size="10.00">«bound»</text>
<polygon fill="none" stroke="black" points="101,-106 101,-122 172,-122 172,-106 101,-106"/>
<text text-anchor="start" x="104.5" y="-112" font-family="Arial" font-size="10.00"> </text>
<text text-anchor="start" x="108.5" y="-112" font-family="Arial" font-size="10.00"> e4 :EdgePO </text>
<polygon fill="none" stroke="black" points="101,-86 101,-106 172,-106 172,-86 101,-86"/>
<text text-anchor="start" x="133" y="-94" font-family="Arial" font-size="10.00"> &#160;</text>
</g>
<!-- e4&#45;&#45;n3 -->
<g id="edge6" class="edge"><title>e4&#45;&#45;n3</title>
<path fill="none" stroke="green" d="M119.351,-82.0303C112.533,-70.167 104.779,-56.6747 98.464,-45.6874"/>
<text text-anchor="middle" x="106.644" y="-48.9393" font-family="Arial" font-size="10.00" fill="green">src</text>
</g>
</g>
</svg>
