<?xml version="1.0" encoding="UTF-8" standalone="no"?>
<!DOCTYPE svg PUBLIC "-//W3C//DTD SVG 1.1//EN"
 "http://www.w3.org/Graphics/SVG/1.1/DTD/svg11.dtd">
<!-- Generated by graphviz version 2.28.0 (20110507.0327)
 -->
<!-- Title: ObjectDiagram Pages: 1 -->
<svg width="150pt" height="136pt"
 viewBox="0.00 0.00 150.00 136.00" xmlns="http://www.w3.org/2000/svg" xmlns:xlink="http://www.w3.org/1999/xlink">
<g id="graph1" class="graph" transform="scale(1 1) rotate(0) translate(4 132)">
<title>ObjectDiagram</title>
<polygon fill="white" stroke="white" points="-4,5 -4,-132 147,-132 147,5 -4,5"/>
<!-- n28 -->
<g id="node1" class="node"><title>n28</title>
<polygon fill="none" stroke="black" points="45,-106 45,-123 106,-123 106,-106 45,-106"/>
<text text-anchor="start" x="53.5" y="-112.5" font-family="Times New Roman,serif" font-size="10.00"> </text>
<text text-anchor="start" x="56.5" y="-112.5" font-family="Times New Roman,serif" font-size="10.00">n28 :Node</text>
<polygon fill="none" stroke="black" points="45,-86 45,-106 106,-106 106,-86 45,-86"/>
<text text-anchor="start" x="50.5" y="-94" font-family="Times New Roman,serif" font-size="10.00">name = &quot;n6&quot;</text>
</g>
<!-- n29 -->
<g id="node2" class="node"><title>n29</title>
<polygon fill="none" stroke="black" points="8,-24 8,-41 62,-41 62,-24 8,-24"/>
<text text-anchor="start" x="13" y="-30.5" font-family="Times New Roman,serif" font-size="10.00"> </text>
<text text-anchor="start" x="16" y="-30.5" font-family="Times New Roman,serif" font-size="10.00">n29 :Node</text>
<polygon fill="none" stroke="black" points="8,-4 8,-24 62,-24 62,-4 8,-4"/>
<text text-anchor="start" x="13.5" y="-12" font-family="Times New Roman,serif" font-size="10.00">text = &quot;n6&quot;</text>
</g>
<!-- n28&#45;&#45;n29 -->
<g id="edge4" class="edge"><title>n28&#45;&#45;n29</title>
<path fill="none" stroke="black" d="M64.0698,-82.1396C58.3795,-70.759 51.4465,-56.8929 45.7785,-45.5569"/>
<text text-anchor="middle" x="53.6116" y="-49.2732" font-family="Times New Roman,serif" font-size="10.00">copy</text>
<text text-anchor="middle" x="56.2367" y="-73.4234" font-family="Times New Roman,serif" font-size="10.00">orig</text>
</g>
<!-- g2 -->
<g id="node4" class="node"><title>g2</title>
<text text-anchor="middle" x="115" y="-20.5" font-family="Times New Roman,serif" font-size="10.00">g2</text>
</g>
<!-- n28&#45;&#45;g2 -->
<g id="edge2" class="edge"><title>n28&#45;&#45;g2</title>
<path fill="none" stroke="black" d="M85.9302,-82.1396C92.407,-69.1861 100.494,-53.0125 106.493,-41.0149"/>
<text text-anchor="middle" x="106.219" y="-48.5112" font-family="Times New Roman,serif" font-size="10.00">graph</text>
</g>
</g>
</svg>
