<?xml version="1.0" encoding="UTF-8" standalone="no"?>
<!DOCTYPE svg PUBLIC "-//W3C//DTD SVG 1.1//EN"
 "http://www.w3.org/Graphics/SVG/1.1/DTD/svg11.dtd">
<!-- Generated by graphviz version 2.28.0 (20110507.0327)
 -->
<!-- Title: ObjectDiagram Pages: 1 -->
<svg width="124pt" height="150pt"
 viewBox="0.00 0.00 124.00 150.00" xmlns="http://www.w3.org/2000/svg" xmlns:xlink="http://www.w3.org/1999/xlink">
<g id="graph1" class="graph" transform="scale(1 1) rotate(0) translate(4 146)">
<title>ObjectDiagram</title>
<polygon fill="white" stroke="white" points="-4,5 -4,-146 121,-146 121,5 -4,5"/>
<!-- g1 -->
<g id="node1" class="node"><title>g1</title>
<polygon fill="deepskyblue" stroke="deepskyblue" points="8,-86.5 8,-137.5 108,-137.5 108,-86.5 8,-86.5"/>
<text text-anchor="start" x="71" y="-127.5" font-family="Times New Roman,serif" font-size="10.00" fill="green">«create»</text>
<polygon fill="none" stroke="green" points="8,-106 8,-122 108,-122 108,-106 8,-106"/>
<text text-anchor="start" x="24" y="-112" font-family="Times New Roman,serif" font-size="10.00"> </text>
<text text-anchor="start" x="27" y="-112" font-family="Times New Roman,serif" font-size="10.00" fill="green"> g1 :GreetingPO </text>
<polygon fill="none" stroke="green" points="8,-86 8,-106 108,-106 108,-86 8,-86"/>
<text text-anchor="start" x="13.5" y="-94" font-family="Times New Roman,serif" font-size="10.00" fill="green"> text := &quot;Hello World&quot; </text>
</g>
<!-- g2 -->
<g id="node2" class="node"><title>g2</title>
<polygon fill="none" stroke="black" points="12,-24 12,-41 105,-41 105,-24 12,-24"/>
<text text-anchor="start" x="32.5" y="-30.5" font-family="Times New Roman,serif" font-size="10.00"> </text>
<text text-anchor="start" x="35.5" y="-30.5" font-family="Times New Roman,serif" font-size="10.00">g2 :Greeting</text>
<polygon fill="none" stroke="black" points="12,-4 12,-24 105,-24 105,-4 12,-4"/>
<text text-anchor="start" x="17.5" y="-12" font-family="Times New Roman,serif" font-size="10.00">text = &quot;Hello World&quot;</text>
</g>
<!-- g1&#45;&#45;g2 -->
<g id="edge2" class="edge"><title>g1&#45;&#45;g2</title>
<path fill="none" stroke="green" stroke-dasharray="1,5" d="M58,-82.0303C58,-70.167 58,-56.6747 58,-45.6874"/>
<text text-anchor="middle" x="62.2262" y="-52.2504" font-family="Times New Roman,serif" font-size="10.00" fill="green">match</text>
</g>
</g>
</svg>
