<?xml version="1.0" encoding="UTF-8" standalone="no"?>
<!DOCTYPE svg PUBLIC "-//W3C//DTD SVG 1.1//EN"
 "http://www.w3.org/Graphics/SVG/1.1/DTD/svg11.dtd">
<!-- Generated by graphviz version 2.26.3 (20100126.1600)
 -->
<!-- Title: ClassDiagram Pages: 1 -->
<svg width="83pt" height="74pt"
 viewBox="0.00 0.00 82.88 74.00" xmlns="http://www.w3.org/2000/svg" xmlns:xlink="http://www.w3.org/1999/xlink">
<g id="graph1" class="graph" transform="scale(1 1) rotate(0) translate(4 70)">
<title>ClassDiagram</title>
<polygon fill="white" stroke="white" points="-4,5 -4,-70 79.8764,-70 79.8764,5 -4,5"/>
<!-- _Node -->
<g id="node1" class="node"><title>_Node</title>
<a xlink:href="../examples/org/sdmlib/examples/helloworld/Node.java" xlink:title="&lt;TABLE&gt;">
<polygon fill="none" stroke="black" points="11,-44 11,-61 44,-61 44,-44 11,-44"/>
<text text-anchor="start" x="14.5" y="-50.1667" font-family="Times Roman,serif" font-size="10.00">Node</text>
</a>
<polygon fill="none" stroke="black" points="11,-24 11,-44 44,-44 44,-24 11,-24"/>
<text text-anchor="start" x="25.5" y="-31.6667" font-family="Times Roman,serif" font-size="10.00"> </text>
<polygon fill="none" stroke="black" points="11,-4 11,-24 44,-24 44,-4 11,-4"/>
<text text-anchor="start" x="25.5" y="-11.6667" font-family="Times Roman,serif" font-size="10.00"> </text>
</g>
<!-- _Node&#45;&gt;_Node -->
<g id="edge2" class="edge"><title>_Node&#45;&gt;_Node</title>
<path fill="none" stroke="black" d="M54.2408,-44.9883C64.0239,-45.2461 72,-41.25 72,-33 72,-24.75 64.0239,-20.7539 54.2408,-21.0117"/>
<text text-anchor="middle" x="63.3764" y="-13.9447" font-family="Times Roman,serif" font-size="10.00">copy</text>
<text text-anchor="middle" x="63.2286" y="-37.6043" font-family="Times Roman,serif" font-size="10.00">orig</text>
</g>
</g>
</svg>
