<?xml version="1.0" encoding="UTF-8" standalone="no"?>
<!DOCTYPE svg PUBLIC "-//W3C//DTD SVG 1.1//EN"
 "http://www.w3.org/Graphics/SVG/1.1/DTD/svg11.dtd">
<!-- Generated by graphviz version 2.28.0 (20110507.0327)
 -->
<!-- Title: ObjectDiagram Pages: 1 -->
<svg width="1149pt" height="864pt"
 viewBox="0.00 0.00 1149.00 864.00" xmlns="http://www.w3.org/2000/svg" xmlns:xlink="http://www.w3.org/1999/xlink">
<g id="graph1" class="graph" transform="scale(1 1) rotate(0) translate(4 860)">
<title>ObjectDiagram</title>
<polygon fill="white" stroke="white" points="-4,5 -4,-860 1146,-860 1146,5 -4,5"/>
<!-- g1 -->
<g id="node1" class="node"><title>g1</title>
<a xlink:href="../examples/org/sdmlib/examples/helloworld/Graph.java" xlink:title="&lt;TABLE&gt;">
<polygon fill="none" stroke="black" points="590,-829 590,-846 639,-846 639,-829 590,-829"/>
<text text-anchor="start" x="593.5" y="-835.5" font-family="Times New Roman,serif" font-size="10.00"> </text>
<text text-anchor="start" x="596.5" y="-835.5" font-family="Times New Roman,serif" font-size="10.00">g1 :Graph</text>
</a>
</g>
<!-- n2 -->
<g id="node2" class="node"><title>n2</title>
<a xlink:href="../examples/org/sdmlib/examples/helloworld/Node.java" xlink:title="&lt;TABLE&gt;">
<polygon fill="none" stroke="black" points="148,-762 148,-779 209,-779 209,-762 148,-762"/>
<text text-anchor="start" x="158.5" y="-768.5" font-family="Times New Roman,serif" font-size="10.00"> </text>
<text text-anchor="start" x="161.5" y="-768.5" font-family="Times New Roman,serif" font-size="10.00">n2 :Node</text>
</a>
<polygon fill="none" stroke="black" points="148,-742 148,-762 209,-762 209,-742 148,-742"/>
<text text-anchor="start" x="153" y="-750" font-family="Times New Roman,serif" font-size="10.00">name = &quot;n1&quot;</text>
</g>
<!-- g1&#45;&#45;n2 -->
<g id="edge2" class="edge"><title>g1&#45;&#45;n2</title>
<path fill="none" stroke="black" d="M581.394,-831.977C523.054,-822.917 396.995,-803.01 291,-784 266.114,-779.537 238.231,-774.113 216.389,-769.767"/>
<text text-anchor="middle" x="226.101" y="-764.885" font-family="Times New Roman,serif" font-size="10.00">nodes</text>
<text text-anchor="middle" x="571.788" y="-832.257" font-family="Times New Roman,serif" font-size="10.00">graph</text>
</g>
<!-- e3 -->
<g id="node3" class="node"><title>e3</title>
<a xlink:href="../examples/org/sdmlib/examples/helloworld/Edge.java" xlink:title="&lt;TABLE&gt;">
<polygon fill="none" stroke="black" points="342,-680 342,-697 407,-697 407,-680 342,-680"/>
<text text-anchor="start" x="356" y="-686.5" font-family="Times New Roman,serif" font-size="10.00"> </text>
<text text-anchor="start" x="359" y="-686.5" font-family="Times New Roman,serif" font-size="10.00">e3 :Edge</text>
</a>
<polygon fill="none" stroke="black" points="342,-660 342,-680 407,-680 407,-660 342,-660"/>
<text text-anchor="start" x="347" y="-668" font-family="Times New Roman,serif" font-size="10.00">name = &quot;e10&quot;</text>
</g>
<!-- g1&#45;&#45;e3 -->
<g id="edge22" class="edge"><title>g1&#45;&#45;e3</title>
<path fill="none" stroke="black" d="M581.73,-835.321C541.796,-831.687 473.623,-820.209 429,-784 402.672,-762.636 387.362,-725.25 379.851,-701.603"/>
<text text-anchor="middle" x="386.725" y="-706.366" font-family="Times New Roman,serif" font-size="10.00">edges</text>
<text text-anchor="middle" x="572.275" y="-836.077" font-family="Times New Roman,serif" font-size="10.00">graph</text>
</g>
<!-- n4 -->
<g id="node4" class="node"><title>n4</title>
<a xlink:href="../examples/org/sdmlib/examples/helloworld/Node.java" xlink:title="&lt;TABLE&gt;">
<polygon fill="none" stroke="black" points="344,-598 344,-615 405,-615 405,-598 344,-598"/>
<text text-anchor="start" x="354.5" y="-604.5" font-family="Times New Roman,serif" font-size="10.00"> </text>
<text text-anchor="start" x="357.5" y="-604.5" font-family="Times New Roman,serif" font-size="10.00">n4 :Node</text>
</a>
<polygon fill="none" stroke="black" points="344,-578 344,-598 405,-598 405,-578 344,-578"/>
<text text-anchor="start" x="349" y="-586" font-family="Times New Roman,serif" font-size="10.00">name = &quot;n2&quot;</text>
</g>
<!-- g1&#45;&#45;n4 -->
<g id="edge4" class="edge"><title>g1&#45;&#45;n4</title>
<path fill="none" stroke="black" d="M581.572,-833.474C548.517,-828.216 497.844,-815.308 467,-784 424.782,-741.147 452.697,-708.315 423,-656 415.582,-642.931 405.053,-630 395.656,-619.676"/>
<text text-anchor="middle" x="404.856" y="-621.096" font-family="Times New Roman,serif" font-size="10.00">nodes</text>
<text text-anchor="middle" x="571.917" y="-833.578" font-family="Times New Roman,serif" font-size="10.00">graph</text>
</g>
<!-- e5 -->
<g id="node5" class="node"><title>e5</title>
<a xlink:href="../examples/org/sdmlib/examples/helloworld/Edge.java" xlink:title="&lt;TABLE&gt;">
<polygon fill="none" stroke="black" points="273,-516 273,-533 338,-533 338,-516 273,-516"/>
<text text-anchor="start" x="287" y="-522.5" font-family="Times New Roman,serif" font-size="10.00"> </text>
<text text-anchor="start" x="290" y="-522.5" font-family="Times New Roman,serif" font-size="10.00">e5 :Edge</text>
</a>
<polygon fill="none" stroke="black" points="273,-496 273,-516 338,-516 338,-496 273,-496"/>
<text text-anchor="start" x="278" y="-504" font-family="Times New Roman,serif" font-size="10.00">name = &quot;e11&quot;</text>
</g>
<!-- g1&#45;&#45;e5 -->
<g id="edge24" class="edge"><title>g1&#45;&#45;e5</title>
<path fill="none" stroke="black" d="M581.613,-835.735C535.867,-832.596 451.2,-821.703 391,-784 351.114,-759.019 342.042,-745.467 324,-702 300.855,-646.238 301.312,-573.317 303.293,-537.608"/>
<text text-anchor="middle" x="307.11" y="-544.35" font-family="Times New Roman,serif" font-size="10.00">edges</text>
<text text-anchor="middle" x="572.24" y="-836.721" font-family="Times New Roman,serif" font-size="10.00">graph</text>
</g>
<!-- n6 -->
<g id="node6" class="node"><title>n6</title>
<a xlink:href="../examples/org/sdmlib/examples/helloworld/Node.java" xlink:title="&lt;TABLE&gt;">
<polygon fill="none" stroke="black" points="267,-434 267,-451 328,-451 328,-434 267,-434"/>
<text text-anchor="start" x="277.5" y="-440.5" font-family="Times New Roman,serif" font-size="10.00"> </text>
<text text-anchor="start" x="280.5" y="-440.5" font-family="Times New Roman,serif" font-size="10.00">n6 :Node</text>
</a>
<polygon fill="none" stroke="black" points="267,-414 267,-434 328,-434 328,-414 267,-414"/>
<text text-anchor="start" x="272" y="-422" font-family="Times New Roman,serif" font-size="10.00">name = &quot;n3&quot;</text>
</g>
<!-- g1&#45;&#45;n6 -->
<g id="edge6" class="edge"><title>g1&#45;&#45;n6</title>
<path fill="none" stroke="black" d="M581.521,-829.364C556.9,-821.891 524.138,-808.032 505,-784 475.449,-746.892 481,-727.437 481,-680 481,-680 481,-680 481,-596 481,-519.177 389.527,-470.15 335.572,-447.915"/>
<text text-anchor="middle" x="345.569" y="-445.155" font-family="Times New Roman,serif" font-size="10.00">nodes</text>
<text text-anchor="middle" x="571.6" y="-828.124" font-family="Times New Roman,serif" font-size="10.00">graph</text>
</g>
<!-- e7 -->
<g id="node7" class="node"><title>e7</title>
<a xlink:href="../examples/org/sdmlib/examples/helloworld/Edge.java" xlink:title="&lt;TABLE&gt;">
<polygon fill="none" stroke="black" points="37,-352 37,-369 102,-369 102,-352 37,-352"/>
<text text-anchor="start" x="51" y="-358.5" font-family="Times New Roman,serif" font-size="10.00"> </text>
<text text-anchor="start" x="54" y="-358.5" font-family="Times New Roman,serif" font-size="10.00">e7 :Edge</text>
</a>
<polygon fill="none" stroke="black" points="37,-332 37,-352 102,-352 102,-332 37,-332"/>
<text text-anchor="start" x="42" y="-340" font-family="Times New Roman,serif" font-size="10.00">name = &quot;e12&quot;</text>
</g>
<!-- g1&#45;&#45;e7 -->
<g id="edge26" class="edge"><title>g1&#45;&#45;e7</title>
<path fill="none" stroke="black" d="M581.64,-837.206C485.656,-837.247 204.59,-833.073 130,-784 85.6044,-754.792 71,-733.142 71,-680 71,-680 71,-680 71,-514 71,-463.793 70.0276,-404.84 69.4389,-373.747"/>
<text text-anchor="middle" x="73.8315" y="-380.231" font-family="Times New Roman,serif" font-size="10.00">edges</text>
<text text-anchor="middle" x="572.558" y="-838.891" font-family="Times New Roman,serif" font-size="10.00">graph</text>
</g>
<!-- e8 -->
<g id="node8" class="node"><title>e8</title>
<a xlink:href="../examples/org/sdmlib/examples/helloworld/Edge.java" xlink:title="&lt;TABLE&gt;">
<polygon fill="none" stroke="black" points="456,-352 456,-369 521,-369 521,-352 456,-352"/>
<text text-anchor="start" x="470" y="-358.5" font-family="Times New Roman,serif" font-size="10.00"> </text>
<text text-anchor="start" x="473" y="-358.5" font-family="Times New Roman,serif" font-size="10.00">e8 :Edge</text>
</a>
<polygon fill="none" stroke="black" points="456,-332 456,-352 521,-352 521,-332 456,-332"/>
<text text-anchor="start" x="461" y="-340" font-family="Times New Roman,serif" font-size="10.00">name = &quot;e13&quot;</text>
</g>
<!-- g1&#45;&#45;e8 -->
<g id="edge28" class="edge"><title>g1&#45;&#45;e8</title>
<path fill="none" stroke="black" d="M581.908,-819.959C567.977,-811.014 552.667,-798.814 543,-784 517.076,-744.273 519,-727.437 519,-680 519,-680 519,-680 519,-514 519,-463.029 504.013,-404.619 494.88,-373.757"/>
<text text-anchor="middle" x="501.449" y="-378.797" font-family="Times New Roman,serif" font-size="10.00">edges</text>
<text text-anchor="middle" x="572.016" y="-815.995" font-family="Times New Roman,serif" font-size="10.00">graph</text>
</g>
<!-- n9 -->
<g id="node9" class="node"><title>n9</title>
<a xlink:href="../examples/org/sdmlib/examples/helloworld/Node.java" xlink:title="&lt;TABLE&gt;">
<polygon fill="none" stroke="black" points="457,-270 457,-287 518,-287 518,-270 457,-270"/>
<text text-anchor="start" x="467.5" y="-276.5" font-family="Times New Roman,serif" font-size="10.00"> </text>
<text text-anchor="start" x="470.5" y="-276.5" font-family="Times New Roman,serif" font-size="10.00">n9 :Node</text>
</a>
<polygon fill="none" stroke="black" points="457,-250 457,-270 518,-270 518,-250 457,-250"/>
<text text-anchor="start" x="462" y="-258" font-family="Times New Roman,serif" font-size="10.00">name = &quot;n4&quot;</text>
</g>
<!-- g1&#45;&#45;n9 -->
<g id="edge8" class="edge"><title>g1&#45;&#45;n9</title>
<path fill="none" stroke="black" d="M601.148,-819.644C594.291,-809.659 586.216,-796.622 581,-784 562.884,-740.159 557,-727.437 557,-680 557,-680 557,-680 557,-432 557,-384.931 557.504,-370.368 537,-328 530.514,-314.597 520.133,-301.82 510.506,-291.687"/>
<text text-anchor="middle" x="519.777" y="-292.935" font-family="Times New Roman,serif" font-size="10.00">nodes</text>
<text text-anchor="middle" x="592.566" y="-812.012" font-family="Times New Roman,serif" font-size="10.00">graph</text>
</g>
<!-- e10 -->
<g id="node10" class="node"><title>e10</title>
<a xlink:href="../examples/org/sdmlib/examples/helloworld/Edge.java" xlink:title="&lt;TABLE&gt;">
<polygon fill="none" stroke="black" points="527,-188 527,-205 592,-205 592,-188 527,-188"/>
<text text-anchor="start" x="538.5" y="-194.5" font-family="Times New Roman,serif" font-size="10.00"> </text>
<text text-anchor="start" x="541.5" y="-194.5" font-family="Times New Roman,serif" font-size="10.00">e10 :Edge</text>
</a>
<polygon fill="none" stroke="black" points="527,-168 527,-188 592,-188 592,-168 527,-168"/>
<text text-anchor="start" x="532" y="-176" font-family="Times New Roman,serif" font-size="10.00">name = &quot;e14&quot;</text>
</g>
<!-- g1&#45;&#45;e10 -->
<g id="edge30" class="edge"><title>g1&#45;&#45;e10</title>
<path fill="none" stroke="black" d="M610.515,-819.659C605.03,-790.807 595,-731.068 595,-680 595,-680 595,-680 595,-350 595,-298.716 577.595,-240.429 566.99,-209.67"/>
<text text-anchor="middle" x="573.879" y="-214.418" font-family="Times New Roman,serif" font-size="10.00">edges</text>
<text text-anchor="middle" x="604.709" y="-809.017" font-family="Times New Roman,serif" font-size="10.00">graph</text>
</g>
<!-- n11 -->
<g id="node11" class="node"><title>n11</title>
<a xlink:href="../examples/org/sdmlib/examples/helloworld/Node.java" xlink:title="&lt;TABLE&gt;">
<polygon fill="none" stroke="black" points="529,-106 529,-123 590,-123 590,-106 529,-106"/>
<text text-anchor="start" x="537.5" y="-112.5" font-family="Times New Roman,serif" font-size="10.00"> </text>
<text text-anchor="start" x="540.5" y="-112.5" font-family="Times New Roman,serif" font-size="10.00">n11 :Node</text>
</a>
<polygon fill="none" stroke="black" points="529,-86 529,-106 590,-106 590,-86 529,-86"/>
<text text-anchor="start" x="534" y="-94" font-family="Times New Roman,serif" font-size="10.00">name = &quot;n5&quot;</text>
</g>
<!-- g1&#45;&#45;n11 -->
<g id="edge10" class="edge"><title>g1&#45;&#45;n11</title>
<path fill="none" stroke="black" d="M617.485,-819.659C622.97,-790.807 633,-731.068 633,-680 633,-680 633,-680 633,-268 633,-220.461 629.474,-206.412 608,-164 601.271,-150.711 590.936,-137.853 581.488,-127.635"/>
<text text-anchor="middle" x="590.712" y="-128.999" font-family="Times New Roman,serif" font-size="10.00">nodes</text>
<text text-anchor="middle" x="614.98" y="-807.477" font-family="Times New Roman,serif" font-size="10.00">graph</text>
</g>
<!-- e12 -->
<g id="node12" class="node"><title>e12</title>
<a xlink:href="../examples/org/sdmlib/examples/helloworld/Edge.java" xlink:title="&lt;TABLE&gt;">
<polygon fill="none" stroke="black" points="626,-24 626,-41 691,-41 691,-24 626,-24"/>
<text text-anchor="start" x="637.5" y="-30.5" font-family="Times New Roman,serif" font-size="10.00"> </text>
<text text-anchor="start" x="640.5" y="-30.5" font-family="Times New Roman,serif" font-size="10.00">e12 :Edge</text>
</a>
<polygon fill="none" stroke="black" points="626,-4 626,-24 691,-24 691,-4 626,-4"/>
<text text-anchor="start" x="631" y="-12" font-family="Times New Roman,serif" font-size="10.00">name = &quot;e18&quot;</text>
</g>
<!-- g1&#45;&#45;e12 -->
<g id="edge18" class="edge"><title>g1&#45;&#45;e12</title>
<path fill="none" stroke="black" d="M646.092,-819.959C660.023,-811.014 675.333,-798.814 685,-784 710.924,-744.273 709,-727.437 709,-680 709,-680 709,-680 709,-186 709,-133.663 684.482,-76.0215 669.445,-45.5924"/>
<text text-anchor="middle" x="677.179" y="-49.432" font-family="Times New Roman,serif" font-size="10.00">edges</text>
<text text-anchor="middle" x="651.329" y="-808.94" font-family="Times New Roman,serif" font-size="10.00">graph</text>
</g>
<!-- e13 -->
<g id="node13" class="node"><title>e13</title>
<a xlink:href="../examples/org/sdmlib/examples/helloworld/Edge.java" xlink:title="&lt;TABLE&gt;">
<polygon fill="none" stroke="black" points="527,-24 527,-41 592,-41 592,-24 527,-24"/>
<text text-anchor="start" x="538.5" y="-30.5" font-family="Times New Roman,serif" font-size="10.00"> </text>
<text text-anchor="start" x="541.5" y="-30.5" font-family="Times New Roman,serif" font-size="10.00">e13 :Edge</text>
</a>
<polygon fill="none" stroke="black" points="527,-4 527,-24 592,-24 592,-4 527,-4"/>
<text text-anchor="start" x="532" y="-12" font-family="Times New Roman,serif" font-size="10.00">name = &quot;e15&quot;</text>
</g>
<!-- g1&#45;&#45;e13 -->
<g id="edge32" class="edge"><title>g1&#45;&#45;e13</title>
<path fill="none" stroke="black" d="M624.721,-819.849C641.233,-791.747 671,-733.646 671,-680 671,-680 671,-680 671,-186 671,-127.019 620.147,-73.9686 586.973,-45.6368"/>
<text text-anchor="middle" x="596.56" y="-45.9815" font-family="Times New Roman,serif" font-size="10.00">edges</text>
<text text-anchor="middle" x="625.545" y="-807.383" font-family="Times New Roman,serif" font-size="10.00">graph</text>
</g>
<!-- e14 -->
<g id="node16" class="node"><title>e14</title>
<a xlink:href="../examples/org/sdmlib/examples/helloworld/Edge.java" xlink:title="&lt;TABLE&gt;">
<polygon fill="none" stroke="black" points="725,-24 725,-41 790,-41 790,-24 725,-24"/>
<text text-anchor="start" x="736.5" y="-30.5" font-family="Times New Roman,serif" font-size="10.00"> </text>
<text text-anchor="start" x="739.5" y="-30.5" font-family="Times New Roman,serif" font-size="10.00">e14 :Edge</text>
</a>
<polygon fill="none" stroke="black" points="725,-4 725,-24 790,-24 790,-4 725,-4"/>
<text text-anchor="start" x="730" y="-12" font-family="Times New Roman,serif" font-size="10.00">name = &quot;e19&quot;</text>
</g>
<!-- g1&#45;&#45;e14 -->
<g id="edge20" class="edge"><title>g1&#45;&#45;e14</title>
<path fill="none" stroke="black" d="M646.458,-825.99C667.193,-817.459 693.24,-803.735 710,-784 741.758,-746.606 747,-729.06 747,-680 747,-680 747,-680 747,-186 747,-135.701 751.862,-76.7847 754.805,-45.7223"/>
<text text-anchor="middle" x="758.181" y="-52.6354" font-family="Times New Roman,serif" font-size="10.00">edges</text>
<text text-anchor="middle" x="653.135" y="-816.046" font-family="Times New Roman,serif" font-size="10.00">graph</text>
</g>
<!-- n15 -->
<g id="node23" class="node"><title>n15</title>
<a xlink:href="../examples/org/sdmlib/examples/helloworld/Node.java" xlink:title="&lt;TABLE&gt;">
<polygon fill="none" stroke="black" points="784,-762 784,-779 845,-779 845,-762 784,-762"/>
<text text-anchor="start" x="792.5" y="-768.5" font-family="Times New Roman,serif" font-size="10.00"> </text>
<text text-anchor="start" x="795.5" y="-768.5" font-family="Times New Roman,serif" font-size="10.00">n15 :Node</text>
</a>
<polygon fill="none" stroke="black" points="784,-742 784,-762 845,-762 845,-742 784,-742"/>
<text text-anchor="start" x="789" y="-750" font-family="Times New Roman,serif" font-size="10.00">name = &quot;n6&quot;</text>
</g>
<!-- g1&#45;&#45;n15 -->
<g id="edge12" class="edge"><title>g1&#45;&#45;n15</title>
<path fill="none" stroke="black" d="M646.28,-825.856C676.173,-815.42 721.792,-799.196 761,-784 765.738,-782.164 770.691,-780.186 775.586,-778.196"/>
<text text-anchor="middle" x="768.777" y="-783.02" font-family="Times New Roman,serif" font-size="10.00">nodes</text>
<text text-anchor="middle" x="653.437" y="-816.372" font-family="Times New Roman,serif" font-size="10.00">graph</text>
</g>
<!-- n16 -->
<g id="node24" class="node"><title>n16</title>
<a xlink:href="../examples/org/sdmlib/examples/helloworld/Node.java" xlink:title="&lt;TABLE&gt;">
<polygon fill="none" stroke="black" points="879,-762 879,-779 940,-779 940,-762 879,-762"/>
<text text-anchor="start" x="887.5" y="-768.5" font-family="Times New Roman,serif" font-size="10.00"> </text>
<text text-anchor="start" x="890.5" y="-768.5" font-family="Times New Roman,serif" font-size="10.00">n16 :Node</text>
</a>
<polygon fill="none" stroke="black" points="879,-742 879,-762 940,-762 940,-742 879,-742"/>
<text text-anchor="start" x="884" y="-750" font-family="Times New Roman,serif" font-size="10.00">name = &quot;n7&quot;</text>
</g>
<!-- g1&#45;&#45;n16 -->
<g id="edge14" class="edge"><title>g1&#45;&#45;n16</title>
<path fill="none" stroke="black" d="M646.572,-832.337C694.402,-824.972 786.077,-808.876 861,-784 864.132,-782.96 867.332,-781.778 870.52,-780.513"/>
<text text-anchor="middle" x="863.636" y="-785.267" font-family="Times New Roman,serif" font-size="10.00">nodes</text>
<text text-anchor="middle" x="654.863" y="-824.245" font-family="Times New Roman,serif" font-size="10.00">graph</text>
</g>
<!-- n17 -->
<g id="node25" class="node"><title>n17</title>
<a xlink:href="../examples/org/sdmlib/examples/helloworld/Node.java" xlink:title="&lt;TABLE&gt;">
<polygon fill="none" stroke="black" points="1013,-762 1013,-779 1074,-779 1074,-762 1013,-762"/>
<text text-anchor="start" x="1021.5" y="-768.5" font-family="Times New Roman,serif" font-size="10.00"> </text>
<text text-anchor="start" x="1024.5" y="-768.5" font-family="Times New Roman,serif" font-size="10.00">n17 :Node</text>
</a>
<polygon fill="none" stroke="black" points="1013,-742 1013,-762 1074,-762 1074,-742 1013,-742"/>
<text text-anchor="start" x="1018" y="-750" font-family="Times New Roman,serif" font-size="10.00">name = &quot;n8&quot;</text>
</g>
<!-- g1&#45;&#45;n17 -->
<g id="edge16" class="edge"><title>g1&#45;&#45;n17</title>
<path fill="none" stroke="black" d="M646.496,-835.195C712.35,-830.933 865.837,-817.928 990,-784 994.805,-782.687 999.755,-781.048 1004.61,-779.259"/>
<text text-anchor="middle" x="997.542" y="-783.834" font-family="Times New Roman,serif" font-size="10.00">nodes</text>
<text text-anchor="middle" x="655.243" y="-827.848" font-family="Times New Roman,serif" font-size="10.00">graph</text>
</g>
<!-- e18 -->
<g id="node26" class="node"><title>e18</title>
<a xlink:href="../examples/org/sdmlib/examples/helloworld/Edge.java" xlink:title="&lt;TABLE&gt;">
<polygon fill="none" stroke="black" points="953,-680 953,-697 1018,-697 1018,-680 953,-680"/>
<text text-anchor="start" x="964.5" y="-686.5" font-family="Times New Roman,serif" font-size="10.00"> </text>
<text text-anchor="start" x="967.5" y="-686.5" font-family="Times New Roman,serif" font-size="10.00">e18 :Edge</text>
</a>
<polygon fill="none" stroke="black" points="953,-660 953,-680 1018,-680 1018,-660 953,-660"/>
<text text-anchor="start" x="958" y="-668" font-family="Times New Roman,serif" font-size="10.00">name = &quot;e16&quot;</text>
</g>
<!-- g1&#45;&#45;e18 -->
<g id="edge34" class="edge"><title>g1&#45;&#45;e18</title>
<path fill="none" stroke="black" d="M646.325,-836.325C722.535,-834.073 910.462,-824.451 956,-784 979.263,-763.336 984.551,-725.741 985.393,-701.862"/>
<text text-anchor="middle" x="989.134" y="-708.636" font-family="Times New Roman,serif" font-size="10.00">edges</text>
<text text-anchor="middle" x="655.233" y="-829.28" font-family="Times New Roman,serif" font-size="10.00">graph</text>
</g>
<!-- e19 -->
<g id="node27" class="node"><title>e19</title>
<a xlink:href="../examples/org/sdmlib/examples/helloworld/Edge.java" xlink:title="&lt;TABLE&gt;">
<polygon fill="none" stroke="black" points="1069,-680 1069,-697 1134,-697 1134,-680 1069,-680"/>
<text text-anchor="start" x="1080.5" y="-686.5" font-family="Times New Roman,serif" font-size="10.00"> </text>
<text text-anchor="start" x="1083.5" y="-686.5" font-family="Times New Roman,serif" font-size="10.00">e19 :Edge</text>
</a>
<polygon fill="none" stroke="black" points="1069,-660 1069,-680 1134,-680 1134,-660 1069,-660"/>
<text text-anchor="start" x="1074" y="-668" font-family="Times New Roman,serif" font-size="10.00">name = &quot;e17&quot;</text>
</g>
<!-- g1&#45;&#45;e19 -->
<g id="edge36" class="edge"><title>g1&#45;&#45;e19</title>
<path fill="none" stroke="black" d="M646.414,-835.705C748.537,-831.312 1058.7,-815.469 1090,-784 1111.25,-762.63 1109.57,-725.245 1105.76,-701.6"/>
<text text-anchor="middle" x="1111.21" y="-707.481" font-family="Times New Roman,serif" font-size="10.00">edges</text>
<text text-anchor="middle" x="655.274" y="-828.569" font-family="Times New Roman,serif" font-size="10.00">graph</text>
</g>
<!-- n2&#45;&#45;e3 -->
<g id="edge38" class="edge"><title>n2&#45;&#45;e3</title>
<path fill="none" stroke="black" d="M216.256,-744.385C250.012,-730.607 299.06,-710.588 333.479,-696.539"/>
<text text-anchor="middle" x="326.685" y="-701.377" font-family="Times New Roman,serif" font-size="10.00">outEdges</text>
<text text-anchor="middle" x="223.05" y="-734.548" font-family="Times New Roman,serif" font-size="10.00">src</text>
</g>
<!-- n2&#45;&#45;e7 -->
<g id="edge42" class="edge"><title>n2&#45;&#45;e7</title>
<path fill="none" stroke="black" d="M163.088,-738.309C143.897,-708.227 113,-651.487 113,-598 113,-598 113,-598 113,-514 113,-462.124 91.7278,-404.068 78.765,-373.505"/>
<text text-anchor="middle" x="86.128" y="-377.772" font-family="Times New Roman,serif" font-size="10.00">inEdges</text>
<text text-anchor="middle" x="154.723" y="-730.329" font-family="Times New Roman,serif" font-size="10.00">tgt</text>
</g>
<!-- e26 -->
<g id="node14" class="node"><title>e26</title>
<a xlink:href="../examples/org/sdmlib/examples/helloworld/Edge.java" xlink:title="&lt;TABLE&gt;">
<polygon fill="none" stroke="black" points="52,-14 52,-31 101,-31 101,-14 52,-14"/>
<text text-anchor="start" x="55.5" y="-20.5" font-family="Times New Roman,serif" font-size="10.00"> </text>
<text text-anchor="start" x="58.5" y="-20.5" font-family="Times New Roman,serif" font-size="10.00">e26 :Edge</text>
</a>
</g>
<!-- n2&#45;&#45;e26 -->
<g id="edge46" class="edge"><title>n2&#45;&#45;e26</title>
<path fill="none" stroke="black" d="M139.377,-745.148C87.0254,-722.197 0,-672.795 0,-598 0,-598 0,-598 0,-186 0,-128.528 39.6896,-69.5191 61.705,-41.2087"/>
<text text-anchor="middle" x="59.6207" y="-48.4891" font-family="Times New Roman,serif" font-size="10.00">inEdges</text>
<text text-anchor="middle" x="129.377" y="-742.685" font-family="Times New Roman,serif" font-size="10.00">tgt</text>
</g>
<!-- e20 -->
<g id="node21" class="node"><title>e20</title>
<a xlink:href="../examples/org/sdmlib/examples/helloworld/Edge.java" xlink:title="&lt;TABLE&gt;">
<polygon fill="none" stroke="black" points="136,-342 136,-359 185,-359 185,-342 136,-342"/>
<text text-anchor="start" x="139.5" y="-348.5" font-family="Times New Roman,serif" font-size="10.00"> </text>
<text text-anchor="start" x="142.5" y="-348.5" font-family="Times New Roman,serif" font-size="10.00">e20 :Edge</text>
</a>
</g>
<!-- n2&#45;&#45;e20 -->
<g id="edge40" class="edge"><title>n2&#45;&#45;e20</title>
<path fill="none" stroke="black" d="M172.514,-738.415C165.154,-707.517 153,-648.797 153,-598 153,-598 153,-598 153,-514 153,-461.076 156.775,-398.516 158.781,-369.016"/>
<text text-anchor="middle" x="162.399" y="-375.838" font-family="Times New Roman,serif" font-size="10.00">outEdges</text>
<text text-anchor="middle" x="166.349" y="-728.041" font-family="Times New Roman,serif" font-size="10.00">src</text>
</g>
<!-- e21 -->
<g id="node22" class="node"><title>e21</title>
<a xlink:href="../examples/org/sdmlib/examples/helloworld/Edge.java" xlink:title="&lt;TABLE&gt;">
<polygon fill="none" stroke="black" points="190,-506 190,-523 239,-523 239,-506 190,-506"/>
<text text-anchor="start" x="193.5" y="-512.5" font-family="Times New Roman,serif" font-size="10.00"> </text>
<text text-anchor="start" x="196.5" y="-512.5" font-family="Times New Roman,serif" font-size="10.00">e21 :Edge</text>
</a>
</g>
<!-- n2&#45;&#45;e21 -->
<g id="edge44" class="edge"><title>n2&#45;&#45;e21</title>
<path fill="none" stroke="black" d="M181.195,-738.347C188.25,-690.527 205.042,-576.714 211.453,-533.264"/>
<text text-anchor="middle" x="214.311" y="-540.347" font-family="Times New Roman,serif" font-size="10.00">inEdges</text>
<text text-anchor="middle" x="178.337" y="-726.264" font-family="Times New Roman,serif" font-size="10.00">tgt</text>
</g>
<!-- e3&#45;&#45;n4 -->
<g id="edge48" class="edge"><title>e3&#45;&#45;n4</title>
<path fill="none" stroke="black" d="M374,-656.14C374,-644.759 374,-630.893 374,-619.557"/>
<text text-anchor="middle" x="378.226" y="-626.12" font-family="Times New Roman,serif" font-size="10.00">tgt</text>
<text text-anchor="middle" x="369.774" y="-644.577" font-family="Times New Roman,serif" font-size="10.00">inEdges</text>
</g>
<!-- n4&#45;&#45;e5 -->
<g id="edge50" class="edge"><title>n4&#45;&#45;e5</title>
<path fill="none" stroke="black" d="M355.145,-574.14C345.33,-562.759 333.37,-548.893 323.593,-537.557"/>
<text text-anchor="middle" x="332.712" y="-539.16" font-family="Times New Roman,serif" font-size="10.00">outEdges</text>
<text text-anchor="middle" x="346.026" y="-567.537" font-family="Times New Roman,serif" font-size="10.00">src</text>
</g>
<!-- e22 -->
<g id="node19" class="node"><title>e22</title>
<a xlink:href="../examples/org/sdmlib/examples/helloworld/Edge.java" xlink:title="&lt;TABLE&gt;">
<polygon fill="none" stroke="black" points="397,-178 397,-195 446,-195 446,-178 397,-178"/>
<text text-anchor="start" x="400.5" y="-184.5" font-family="Times New Roman,serif" font-size="10.00"> </text>
<text text-anchor="start" x="403.5" y="-184.5" font-family="Times New Roman,serif" font-size="10.00">e22 :Edge</text>
</a>
</g>
<!-- n4&#45;&#45;e22 -->
<g id="edge54" class="edge"><title>n4&#45;&#45;e22</title>
<path fill="none" stroke="black" d="M384.099,-574.259C397.366,-543.656 419,-485.812 419,-434 419,-434 419,-434 419,-350 419,-297.121 420.079,-234.54 420.652,-205.025"/>
<text text-anchor="middle" x="424.706" y="-211.667" font-family="Times New Roman,serif" font-size="10.00">outEdges</text>
<text text-anchor="middle" x="383.726" y="-561.766" font-family="Times New Roman,serif" font-size="10.00">src</text>
</g>
<!-- e23 -->
<g id="node20" class="node"><title>e23</title>
<a xlink:href="../examples/org/sdmlib/examples/helloworld/Edge.java" xlink:title="&lt;TABLE&gt;">
<polygon fill="none" stroke="black" points="334,-342 334,-359 383,-359 383,-342 334,-342"/>
<text text-anchor="start" x="337.5" y="-348.5" font-family="Times New Roman,serif" font-size="10.00"> </text>
<text text-anchor="start" x="340.5" y="-348.5" font-family="Times New Roman,serif" font-size="10.00">e23 :Edge</text>
</a>
</g>
<!-- n4&#45;&#45;e23 -->
<g id="edge56" class="edge"><title>n4&#45;&#45;e23</title>
<path fill="none" stroke="black" d="M372.58,-574.347C369.444,-526.527 361.981,-412.714 359.132,-369.264"/>
<text text-anchor="middle" x="363.942" y="-375.531" font-family="Times New Roman,serif" font-size="10.00">inEdges</text>
<text text-anchor="middle" x="367.77" y="-563.08" font-family="Times New Roman,serif" font-size="10.00">tgt</text>
</g>
<!-- n4&#45;&#45;e21 -->
<g id="edge52" class="edge"><title>n4&#45;&#45;e21</title>
<path fill="none" stroke="black" d="M335.493,-577.701C312.102,-566.469 281.7,-551.663 255,-538 251.98,-536.454 248.847,-534.824 245.72,-533.178"/>
<text text-anchor="middle" x="255.708" y="-531.155" font-family="Times New Roman,serif" font-size="10.00">outEdges</text>
<text text-anchor="middle" x="325.494" y="-575.08" font-family="Times New Roman,serif" font-size="10.00">src</text>
</g>
<!-- e5&#45;&#45;n6 -->
<g id="edge58" class="edge"><title>e5&#45;&#45;n6</title>
<path fill="none" stroke="black" d="M302.814,-492.14C301.676,-480.759 300.289,-466.893 299.156,-455.557"/>
<text text-anchor="middle" x="304.263" y="-461.655" font-family="Times New Roman,serif" font-size="10.00">tgt</text>
<text text-anchor="middle" x="297.707" y="-481.042" font-family="Times New Roman,serif" font-size="10.00">inEdges</text>
</g>
<!-- n6&#45;&#45;e7 -->
<g id="edge60" class="edge"><title>n6&#45;&#45;e7</title>
<path fill="none" stroke="black" d="M258.518,-420.854C221.981,-409.961 165.707,-392.376 118,-374 115.215,-372.927 112.361,-371.779 109.499,-370.591"/>
<text text-anchor="middle" x="119.489" y="-367.651" font-family="Times New Roman,serif" font-size="10.00">outEdges</text>
<text text-anchor="middle" x="248.623" y="-419.793" font-family="Times New Roman,serif" font-size="10.00">src</text>
</g>
<!-- n6&#45;&#45;e8 -->
<g id="edge62" class="edge"><title>n6&#45;&#45;e8</title>
<path fill="none" stroke="black" d="M335.652,-415.811C368.135,-402.205 414.416,-382.821 447.428,-368.993"/>
<text text-anchor="middle" x="440.701" y="-373.893" font-family="Times New Roman,serif" font-size="10.00">outEdges</text>
<text text-anchor="middle" x="342.378" y="-405.911" font-family="Times New Roman,serif" font-size="10.00">src</text>
</g>
<!-- n6&#45;&#45;e13 -->
<g id="edge68" class="edge"><title>n6&#45;&#45;e13</title>
<path fill="none" stroke="black" d="M288.567,-410.368C277.371,-379.655 259,-321.421 259,-270 259,-270 259,-270 259,-186 259,-170.521 273.042,-172.467 286,-164 327.524,-136.867 453.13,-75.1109 518.493,-43.4727"/>
<text text-anchor="middle" x="512.186" y="-48.7335" font-family="Times New Roman,serif" font-size="10.00">inEdges</text>
<text text-anchor="middle" x="281.554" y="-400.739" font-family="Times New Roman,serif" font-size="10.00">tgt</text>
</g>
<!-- e24 -->
<g id="node17" class="node"><title>e24</title>
<a xlink:href="../examples/org/sdmlib/examples/helloworld/Edge.java" xlink:title="&lt;TABLE&gt;">
<polygon fill="none" stroke="black" points="286,-14 286,-31 335,-31 335,-14 286,-14"/>
<text text-anchor="start" x="289.5" y="-20.5" font-family="Times New Roman,serif" font-size="10.00"> </text>
<text text-anchor="start" x="292.5" y="-20.5" font-family="Times New Roman,serif" font-size="10.00">e24 :Edge</text>
</a>
</g>
<!-- n6&#45;&#45;e24 -->
<g id="edge66" class="edge"><title>n6&#45;&#45;e24</title>
<path fill="none" stroke="black" d="M272.775,-410.351C262.805,-400.225 251.979,-387.443 245,-374 223.143,-331.898 221,-317.437 221,-270 221,-270 221,-270 221,-186 221,-138.563 220.834,-122.82 245,-82 254.631,-65.7319 270.354,-51.5223 283.923,-41.2396"/>
<text text-anchor="middle" x="279.351" y="-47.6334" font-family="Times New Roman,serif" font-size="10.00">outEdges</text>
<text text-anchor="middle" x="263.437" y="-404.273" font-family="Times New Roman,serif" font-size="10.00">src</text>
</g>
<!-- e25 -->
<g id="node18" class="node"><title>e25</title>
<a xlink:href="../examples/org/sdmlib/examples/helloworld/Edge.java" xlink:title="&lt;TABLE&gt;">
<polygon fill="none" stroke="black" points="304,-178 304,-195 353,-195 353,-178 304,-178"/>
<text text-anchor="start" x="307.5" y="-184.5" font-family="Times New Roman,serif" font-size="10.00"> </text>
<text text-anchor="start" x="310.5" y="-184.5" font-family="Times New Roman,serif" font-size="10.00">e25 :Edge</text>
</a>
</g>
<!-- n6&#45;&#45;e25 -->
<g id="edge72" class="edge"><title>n6&#45;&#45;e25</title>
<path fill="none" stroke="black" d="M299.751,-410.347C305.826,-362.527 320.286,-248.714 325.807,-205.264"/>
<text text-anchor="middle" x="328.857" y="-212.287" font-family="Times New Roman,serif" font-size="10.00">inEdges</text>
<text text-anchor="middle" x="296.701" y="-398.323" font-family="Times New Roman,serif" font-size="10.00">tgt</text>
</g>
<!-- n6&#45;&#45;e23 -->
<g id="edge64" class="edge"><title>n6&#45;&#45;e23</title>
<path fill="none" stroke="black" d="M313.669,-410.14C323.546,-397.186 335.878,-381.013 345.026,-369.015"/>
<text text-anchor="middle" x="342.891" y="-376.284" font-family="Times New Roman,serif" font-size="10.00">outEdges</text>
<text text-anchor="middle" x="315.803" y="-397.87" font-family="Times New Roman,serif" font-size="10.00">src</text>
</g>
<!-- n6&#45;&#45;e20 -->
<g id="edge70" class="edge"><title>n6&#45;&#45;e20</title>
<path fill="none" stroke="black" d="M259.926,-410.351C237.737,-397.394 209.933,-381.158 189.29,-369.104"/>
<text text-anchor="middle" x="199.248" y="-367.524" font-family="Times New Roman,serif" font-size="10.00">inEdges</text>
<text text-anchor="middle" x="249.968" y="-406.93" font-family="Times New Roman,serif" font-size="10.00">tgt</text>
</g>
<!-- e8&#45;&#45;n9 -->
<g id="edge74" class="edge"><title>e8&#45;&#45;n9</title>
<path fill="none" stroke="black" d="M487.727,-328.14C487.584,-316.759 487.411,-302.893 487.269,-291.557"/>
<text text-anchor="middle" x="491.609" y="-298.066" font-family="Times New Roman,serif" font-size="10.00">tgt</text>
<text text-anchor="middle" x="483.388" y="-316.63" font-family="Times New Roman,serif" font-size="10.00">inEdges</text>
</g>
<!-- n9&#45;&#45;e10 -->
<g id="edge76" class="edge"><title>n9&#45;&#45;e10</title>
<path fill="none" stroke="black" d="M506.674,-246.14C516.917,-234.759 529.396,-220.893 539.599,-209.557"/>
<text text-anchor="middle" x="536.677" y="-216.621" font-family="Times New Roman,serif" font-size="10.00">outEdges</text>
<text text-anchor="middle" x="509.596" y="-234.076" font-family="Times New Roman,serif" font-size="10.00">src</text>
</g>
<!-- e27 -->
<g id="node15" class="node"><title>e27</title>
<a xlink:href="../examples/org/sdmlib/examples/helloworld/Edge.java" xlink:title="&lt;TABLE&gt;">
<polygon fill="none" stroke="black" points="444,-14 444,-31 493,-31 493,-14 444,-14"/>
<text text-anchor="start" x="447.5" y="-20.5" font-family="Times New Roman,serif" font-size="10.00"> </text>
<text text-anchor="start" x="450.5" y="-20.5" font-family="Times New Roman,serif" font-size="10.00">e27 :Edge</text>
</a>
</g>
<!-- n9&#45;&#45;e27 -->
<g id="edge82" class="edge"><title>n9&#45;&#45;e27</title>
<path fill="none" stroke="black" d="M485.314,-246.347C481.59,-198.527 472.728,-84.7137 469.344,-41.2639"/>
<text text-anchor="middle" x="474.261" y="-47.4716" font-family="Times New Roman,serif" font-size="10.00">inEdges</text>
<text text-anchor="middle" x="480.397" y="-235.139" font-family="Times New Roman,serif" font-size="10.00">tgt</text>
</g>
<!-- n9&#45;&#45;e25 -->
<g id="edge78" class="edge"><title>n9&#45;&#45;e25</title>
<path fill="none" stroke="black" d="M448.511,-248.634C421.582,-235.085 386.008,-217.186 360.503,-204.354"/>
<text text-anchor="middle" x="370.498" y="-202.152" font-family="Times New Roman,serif" font-size="10.00">outEdges</text>
<text text-anchor="middle" x="438.515" y="-245.836" font-family="Times New Roman,serif" font-size="10.00">src</text>
</g>
<!-- n9&#45;&#45;e22 -->
<g id="edge80" class="edge"><title>n9&#45;&#45;e22</title>
<path fill="none" stroke="black" d="M468.965,-246.14C458.279,-233.186 444.935,-217.013 435.037,-205.015"/>
<text text-anchor="middle" x="444.065" y="-206.816" font-family="Times New Roman,serif" font-size="10.00">inEdges</text>
<text text-anchor="middle" x="459.938" y="-239.338" font-family="Times New Roman,serif" font-size="10.00">tgt</text>
</g>
<!-- e10&#45;&#45;n11 -->
<g id="edge84" class="edge"><title>e10&#45;&#45;n11</title>
<path fill="none" stroke="black" d="M559,-164.14C559,-152.759 559,-138.893 559,-127.557"/>
<text text-anchor="middle" x="563.226" y="-134.12" font-family="Times New Roman,serif" font-size="10.00">tgt</text>
<text text-anchor="middle" x="554.774" y="-152.577" font-family="Times New Roman,serif" font-size="10.00">inEdges</text>
</g>
<!-- n11&#45;&#45;e12 -->
<g id="edge86" class="edge"><title>n11&#45;&#45;e12</title>
<path fill="none" stroke="black" d="M585.791,-82.3508C599.878,-70.9674 617.098,-57.0524 631.188,-45.6665"/>
<text text-anchor="middle" x="626.795" y="-52.1499" font-family="Times New Roman,serif" font-size="10.00">outEdges</text>
<text text-anchor="middle" x="590.184" y="-70.8674" font-family="Times New Roman,serif" font-size="10.00">src</text>
</g>
<!-- n11&#45;&#45;e13 -->
<g id="edge88" class="edge"><title>n11&#45;&#45;e13</title>
<path fill="none" stroke="black" d="M559,-82.1396C559,-70.759 559,-56.8929 559,-45.5569"/>
<text text-anchor="middle" x="563.226" y="-52.12" font-family="Times New Roman,serif" font-size="10.00">outEdges</text>
<text text-anchor="middle" x="554.774" y="-70.5766" font-family="Times New Roman,serif" font-size="10.00">src</text>
</g>
<!-- n11&#45;&#45;e26 -->
<g id="edge90" class="edge"><title>n11&#45;&#45;e26</title>
<path fill="none" stroke="black" d="M520.696,-97.6557C428.323,-82.3557 194.581,-43.6408 108.487,-29.3808"/>
<text text-anchor="middle" x="118.118" y="-24.1924" font-family="Times New Roman,serif" font-size="10.00">outEdges</text>
<text text-anchor="middle" x="511.064" y="-97.8441" font-family="Times New Roman,serif" font-size="10.00">src</text>
</g>
<!-- n11&#45;&#45;e27 -->
<g id="edge92" class="edge"><title>n11&#45;&#45;e27</title>
<path fill="none" stroke="black" d="M534.134,-82.1396C519.399,-69.1861 501.002,-53.0125 487.354,-41.0149"/>
<text text-anchor="middle" x="496.952" y="-41.3248" font-family="Times New Roman,serif" font-size="10.00">outEdges</text>
<text text-anchor="middle" x="524.537" y="-76.8297" font-family="Times New Roman,serif" font-size="10.00">src</text>
</g>
<!-- n11&#45;&#45;e14 -->
<g id="edge94" class="edge"><title>n11&#45;&#45;e14</title>
<path fill="none" stroke="black" d="M597.504,-89.4074C627.477,-77.9286 670.05,-61.3615 707,-46 710.153,-44.6894 713.407,-43.3123 716.673,-41.9134"/>
<text text-anchor="middle" x="710.003" y="-46.8638" font-family="Times New Roman,serif" font-size="10.00">inEdges</text>
<text text-anchor="middle" x="604.451" y="-79.7139" font-family="Times New Roman,serif" font-size="10.00">tgt</text>
</g>
<!-- n11&#45;&#45;e24 -->
<g id="edge96" class="edge"><title>n11&#45;&#45;e24</title>
<path fill="none" stroke="black" d="M520.639,-91.6753C471.801,-75.9844 388.277,-49.1493 342.451,-34.4259"/>
<text text-anchor="middle" x="352.372" y="-30.6745" font-family="Times New Roman,serif" font-size="10.00">inEdges</text>
<text text-anchor="middle" x="510.718" y="-90.4267" font-family="Times New Roman,serif" font-size="10.00">tgt</text>
</g>
<!-- n17&#45;&#45;e18 -->
<g id="edge98" class="edge"><title>n17&#45;&#45;e18</title>
<path fill="none" stroke="black" d="M1027.15,-738.14C1018.9,-726.759 1008.85,-712.893 1000.63,-701.557"/>
<text text-anchor="middle" x="1009.37" y="-703.914" font-family="Times New Roman,serif" font-size="10.00">outEdges_inEdges</text>
<text text-anchor="middle" x="1018.41" y="-730.783" font-family="Times New Roman,serif" font-size="10.00">src_tgt</text>
</g>
<!-- n17&#45;&#45;e19 -->
<g id="edge100" class="edge"><title>n17&#45;&#45;e19</title>
<path fill="none" stroke="black" d="M1058.85,-738.14C1067.1,-726.759 1077.15,-712.893 1085.37,-701.557"/>
<text text-anchor="middle" x="1083.47" y="-708.875" font-family="Times New Roman,serif" font-size="10.00">outEdges_inEdges</text>
<text text-anchor="middle" x="1060.75" y="-725.821" font-family="Times New Roman,serif" font-size="10.00">src_tgt</text>
</g>
</g>
</svg>
