<?xml version="1.0" encoding="UTF-8" standalone="no"?>
<!DOCTYPE svg PUBLIC "-//W3C//DTD SVG 1.1//EN"
 "http://www.w3.org/Graphics/SVG/1.1/DTD/svg11.dtd">
<!-- Generated by graphviz version 2.28.0 (20110507.0327)
 -->
<!-- Title: ObjectDiagram Pages: 1 -->
<svg width="362pt" height="246pt"
 viewBox="0.00 0.00 362.00 246.00" xmlns="http://www.w3.org/2000/svg" xmlns:xlink="http://www.w3.org/1999/xlink">
<g id="graph1" class="graph" transform="scale(1 1) rotate(0) translate(4 242)">
<title>ObjectDiagram</title>
<polygon fill="white" stroke="white" points="-4,5 -4,-242 359,-242 359,5 -4,5"/>
<!-- g1 -->
<g id="node1" class="node"><title>g1</title>
<polygon fill="deepskyblue" stroke="deepskyblue" points="143.5,-182.5 143.5,-233.5 214.5,-233.5 214.5,-182.5 143.5,-182.5"/>
<text text-anchor="start" x="180" y="-223.5" font-family="Arial" font-size="10.00" fill="green">«create»</text>
<polygon fill="none" stroke="green" points="144,-202 144,-218 215,-218 215,-202 144,-202"/>
<text text-anchor="start" x="147.5" y="-208" font-family="Arial" font-size="10.00"> </text>
<text text-anchor="start" x="151.5" y="-208" font-family="Arial" font-size="10.00" fill="green"> g1 :GreetingPO </text>
<polygon fill="none" stroke="green" points="144,-182 144,-202 215,-202 215,-182 144,-182"/>
<text text-anchor="start" x="176" y="-190" font-family="Arial" font-size="10.00"> &#160;</text>
</g>
<!-- g2 -->
<g id="node2" class="node"><title>g2</title>
<polygon fill="deepskyblue" stroke="deepskyblue" points="8,-86.5 8,-137.5 112,-137.5 112,-86.5 8,-86.5"/>
<text text-anchor="start" x="77" y="-127.5" font-family="Arial" font-size="10.00" fill="green">«create»</text>
<polygon fill="none" stroke="green" points="8,-106 8,-122 112,-122 112,-106 8,-106"/>
<text text-anchor="start" x="11.5" y="-112" font-family="Arial" font-size="10.00"> </text>
<text text-anchor="start" x="15.5" y="-112" font-family="Arial" font-size="10.00" fill="green"> g2 :GreetingMessagePO </text>
<polygon fill="none" stroke="green" points="8,-86 8,-106 112,-106 112,-86 8,-86"/>
<text text-anchor="start" x="33.5" y="-94" font-family="Arial" font-size="10.00" fill="green"> text := &quot;Hello&quot; </text>
</g>
<!-- g1&#45;&#45;g2 -->
<g id="edge8" class="edge"><title>g1&#45;&#45;g2</title>
<path fill="none" stroke="green" d="M142.649,-178.286C127.886,-166.624 110.869,-153.182 96.1279,-141.538"/>
<text text-anchor="middle" x="105.859" y="-141.34" font-family="Arial" font-size="10.00" fill="green">greetingMessage</text>
</g>
<!-- p3 -->
<g id="node3" class="node"><title>p3</title>
<polygon fill="deepskyblue" stroke="deepskyblue" points="246,-86.5 246,-137.5 346,-137.5 346,-86.5 246,-86.5"/>
<text text-anchor="start" x="316" y="-127.5" font-family="Arial" font-size="10.00" fill="green">«create»</text>
<polygon fill="none" stroke="green" points="246,-106 246,-122 346,-122 346,-106 246,-106"/>
<text text-anchor="start" x="269.5" y="-112" font-family="Arial" font-size="10.00"> </text>
<text text-anchor="start" x="273.5" y="-112" font-family="Arial" font-size="10.00" fill="green"> p3 :PersonPO </text>
<polygon fill="none" stroke="green" points="246,-86 246,-106 346,-106 346,-86 246,-86"/>
<text text-anchor="start" x="251.5" y="-94" font-family="Arial" font-size="10.00" fill="green"> name := &quot;TTC Participants&quot; </text>
</g>
<!-- g1&#45;&#45;p3 -->
<g id="edge10" class="edge"><title>g1&#45;&#45;p3</title>
<path fill="none" stroke="green" d="M214.74,-178.286C229.255,-166.624 245.986,-153.182 260.479,-141.538"/>
<text text-anchor="middle" x="256.061" y="-148.009" font-family="Arial" font-size="10.00" fill="green">person</text>
</g>
<!-- g4 -->
<g id="node4" class="node"><title>g4</title>
<a xlink:href="../../SDMLib/src/org/sdmlib/examples/helloworld/Greeting.java" xlink:title="&lt;TABLE&gt;">
<polygon fill="none" stroke="black" points="147,-103 147,-120 212,-120 212,-103 147,-103"/>
<text text-anchor="start" x="150.5" y="-109.5" font-family="Arial" font-size="10.00"> </text>
<text text-anchor="start" x="154.5" y="-109.5" font-family="Arial" font-size="10.00">g4 :Greeting</text>
</a>
</g>
<!-- g1&#45;&#45;g4 -->
<g id="edge2" class="edge"><title>g1&#45;&#45;g4</title>
<path fill="none" stroke="green" stroke-dasharray="1,5" d="M179,-178.286C179,-162.521 179,-143.503 179,-130.07"/>
<text text-anchor="middle" x="183.226" y="-136.633" font-family="Arial" font-size="10.00" fill="green">match</text>
</g>
<!-- g5 -->
<g id="node5" class="node"><title>g5</title>
<a xlink:href="../../SDMLib/src/org/sdmlib/examples/helloworld/GreetingMessage.java" xlink:title="&lt;TABLE&gt;">
<polygon fill="none" stroke="black" points="29,-24 29,-41 134,-41 134,-24 29,-24"/>
<text text-anchor="start" x="32.5" y="-30.5" font-family="Arial" font-size="10.00"> </text>
<text text-anchor="start" x="36.5" y="-30.5" font-family="Arial" font-size="10.00">g5 :GreetingMessage</text>
</a>
<polygon fill="none" stroke="black" points="29,-4 29,-24 134,-24 134,-4 29,-4"/>
<text text-anchor="start" x="34" y="-12" font-family="Arial" font-size="10.00">text = &quot;Hello&quot;</text>
</g>
<!-- g2&#45;&#45;g5 -->
<g id="edge4" class="edge"><title>g2&#45;&#45;g5</title>
<path fill="none" stroke="green" stroke-dasharray="1,5" d="M66.9927,-82.0303C69.8562,-70.167 73.113,-56.6747 75.7651,-45.6874"/>
<text text-anchor="middle" x="77.7468" y="-52.989" font-family="Arial" font-size="10.00" fill="green">match</text>
</g>
<!-- p6 -->
<g id="node6" class="node"><title>p6</title>
<a xlink:href="../../SDMLib/src/org/sdmlib/examples/helloworld/Person.java" xlink:title="&lt;TABLE&gt;">
<polygon fill="none" stroke="black" points="211,-24 211,-41 338,-41 338,-24 211,-24"/>
<text text-anchor="start" x="248.5" y="-30.5" font-family="Arial" font-size="10.00"> </text>
<text text-anchor="start" x="252.5" y="-30.5" font-family="Arial" font-size="10.00">p6 :Person</text>
</a>
<polygon fill="none" stroke="black" points="211,-4 211,-24 338,-24 338,-4 211,-4"/>
<text text-anchor="start" x="216" y="-12" font-family="Arial" font-size="10.00">name = &quot;TTC Participants&quot;</text>
</g>
<!-- p3&#45;&#45;p6 -->
<g id="edge6" class="edge"><title>p3&#45;&#45;p6</title>
<path fill="none" stroke="green" stroke-dasharray="1,5" d="M288.674,-82.0303C285.674,-70.167 282.263,-56.6747 279.484,-45.6874"/>
<text text-anchor="middle" x="285.803" y="-50.9378" font-family="Arial" font-size="10.00" fill="green">match</text>
</g>
<!-- g4&#45;&#45;g5 -->
<g id="edge12" class="edge"><title>g4&#45;&#45;g5</title>
<path fill="none" stroke="black" d="M159.638,-93.8116C144.131,-80.0449 122.28,-60.6465 105.546,-45.7906"/>
<text text-anchor="middle" x="115.129" y="-46.1471" font-family="Arial" font-size="10.00">greetingMessage</text>
<text text-anchor="middle" x="150.055" y="-88.4552" font-family="Arial" font-size="10.00">greeting</text>
</g>
<!-- g4&#45;&#45;p6 -->
<g id="edge14" class="edge"><title>g4&#45;&#45;p6</title>
<path fill="none" stroke="black" d="M197.769,-93.8116C212.802,-80.0449 233.984,-60.6465 250.206,-45.7906"/>
<text text-anchor="middle" x="246.376" y="-52.5283" font-family="Arial" font-size="10.00">person</text>
<text text-anchor="middle" x="201.598" y="-82.0739" font-family="Arial" font-size="10.00">greeting</text>
</g>
</g>
</svg>
