<?xml version="1.0" encoding="UTF-8" standalone="no"?>
<!DOCTYPE svg PUBLIC "-//W3C//DTD SVG 1.1//EN"
 "http://www.w3.org/Graphics/SVG/1.1/DTD/svg11.dtd">
<!-- Generated by graphviz version 2.28.0 (20110507.0327)
 -->
<!-- Title: ObjectDiagram Pages: 1 -->
<svg width="802pt" height="700pt"
 viewBox="0.00 0.00 802.00 700.00" xmlns="http://www.w3.org/2000/svg" xmlns:xlink="http://www.w3.org/1999/xlink">
<g id="graph1" class="graph" transform="scale(1 1) rotate(0) translate(4 696)">
<title>ObjectDiagram</title>
<polygon fill="white" stroke="white" points="-4,5 -4,-696 799,-696 799,5 -4,5"/>
<!-- g1 -->
<g id="node1" class="node"><title>g1</title>
<polygon fill="none" stroke="black" points="271,-665 271,-682 320,-682 320,-665 271,-665"/>
<text text-anchor="start" x="274.5" y="-671.5" font-family="Times New Roman,serif" font-size="10.00"> </text>
<text text-anchor="start" x="277.5" y="-671.5" font-family="Times New Roman,serif" font-size="10.00">g1 :Graph</text>
</g>
<!-- n4 -->
<g id="node2" class="node"><title>n4</title>
<polygon fill="none" stroke="black" points="265,-598 265,-615 326,-615 326,-598 265,-598"/>
<text text-anchor="start" x="275.5" y="-604.5" font-family="Times New Roman,serif" font-size="10.00"> </text>
<text text-anchor="start" x="278.5" y="-604.5" font-family="Times New Roman,serif" font-size="10.00">n4 :Node</text>
<polygon fill="none" stroke="black" points="265,-578 265,-598 326,-598 326,-578 265,-578"/>
<text text-anchor="start" x="270.5" y="-586" font-family="Times New Roman,serif" font-size="10.00">name = &quot;n2&quot;</text>
</g>
<!-- g1&#45;&#45;n4 -->
<g id="edge32" class="edge"><title>g1&#45;&#45;n4</title>
<path fill="none" stroke="black" d="M295,-655.981C295,-645.177 295,-631.1 295,-619.522"/>
<text text-anchor="middle" x="299.226" y="-626.085" font-family="Times New Roman,serif" font-size="10.00">nodes</text>
<text text-anchor="middle" x="290.774" y="-644.418" font-family="Times New Roman,serif" font-size="10.00">graph</text>
</g>
<!-- e5 -->
<g id="node3" class="node"><title>e5</title>
<polygon fill="none" stroke="black" points="227,-516 227,-533 292,-533 292,-516 227,-516"/>
<text text-anchor="start" x="241" y="-522.5" font-family="Times New Roman,serif" font-size="10.00"> </text>
<text text-anchor="start" x="244" y="-522.5" font-family="Times New Roman,serif" font-size="10.00">e5 :Edge</text>
<polygon fill="none" stroke="black" points="227,-496 227,-516 292,-516 292,-496 227,-496"/>
<text text-anchor="start" x="232.5" y="-504" font-family="Times New Roman,serif" font-size="10.00">name = &quot;e11&quot;</text>
</g>
<!-- g1&#45;&#45;e5 -->
<g id="edge20" class="edge"><title>g1&#45;&#45;e5</title>
<path fill="none" stroke="black" d="M273.29,-655.787C263.241,-646.414 252.359,-633.9 247,-620 236.605,-593.036 243.751,-559.447 250.66,-537.865"/>
<text text-anchor="middle" x="252.081" y="-545.263" font-family="Times New Roman,serif" font-size="10.00">edges</text>
<text text-anchor="middle" x="263.821" y="-650.072" font-family="Times New Roman,serif" font-size="10.00">graph</text>
</g>
<!-- n6 -->
<g id="node4" class="node"><title>n6</title>
<polygon fill="none" stroke="black" points="206,-434 206,-451 267,-451 267,-434 206,-434"/>
<text text-anchor="start" x="216.5" y="-440.5" font-family="Times New Roman,serif" font-size="10.00"> </text>
<text text-anchor="start" x="219.5" y="-440.5" font-family="Times New Roman,serif" font-size="10.00">n6 :Node</text>
<polygon fill="none" stroke="black" points="206,-414 206,-434 267,-434 267,-414 206,-414"/>
<text text-anchor="start" x="211.5" y="-422" font-family="Times New Roman,serif" font-size="10.00">name = &quot;n3&quot;</text>
</g>
<!-- g1&#45;&#45;n6 -->
<g id="edge34" class="edge"><title>g1&#45;&#45;n6</title>
<path fill="none" stroke="black" d="M271.933,-655.966C260.415,-646.465 247.046,-633.782 238,-620 216.788,-587.683 215.539,-576.099 209,-538 205.542,-517.85 204.581,-511.961 209,-492 211.809,-479.312 217.69,-466.107 223.248,-455.507"/>
<text text-anchor="middle" x="222.862" y="-463" font-family="Times New Roman,serif" font-size="10.00">nodes</text>
<text text-anchor="middle" x="262.275" y="-650.873" font-family="Times New Roman,serif" font-size="10.00">graph</text>
</g>
<!-- e8 -->
<g id="node5" class="node"><title>e8</title>
<polygon fill="none" stroke="black" points="151,-352 151,-369 216,-369 216,-352 151,-352"/>
<text text-anchor="start" x="165" y="-358.5" font-family="Times New Roman,serif" font-size="10.00"> </text>
<text text-anchor="start" x="168" y="-358.5" font-family="Times New Roman,serif" font-size="10.00">e8 :Edge</text>
<polygon fill="none" stroke="black" points="151,-332 151,-352 216,-352 216,-332 151,-332"/>
<text text-anchor="start" x="156.5" y="-340" font-family="Times New Roman,serif" font-size="10.00">name = &quot;e13&quot;</text>
</g>
<!-- g1&#45;&#45;e8 -->
<g id="edge22" class="edge"><title>g1&#45;&#45;e8</title>
<path fill="none" stroke="black" d="M262.411,-660.283C244.631,-651.628 223.881,-638.378 212,-620 161.183,-541.397 172.068,-422.037 179.261,-373.578"/>
<text text-anchor="middle" x="182.254" y="-380.62" font-family="Times New Roman,serif" font-size="10.00">edges</text>
<text text-anchor="middle" x="252.416" y="-657.467" font-family="Times New Roman,serif" font-size="10.00">graph</text>
</g>
<!-- n9 -->
<g id="node6" class="node"><title>n9</title>
<polygon fill="none" stroke="black" points="113,-270 113,-287 174,-287 174,-270 113,-270"/>
<text text-anchor="start" x="123.5" y="-276.5" font-family="Times New Roman,serif" font-size="10.00"> </text>
<text text-anchor="start" x="126.5" y="-276.5" font-family="Times New Roman,serif" font-size="10.00">n9 :Node</text>
<polygon fill="none" stroke="black" points="113,-250 113,-270 174,-270 174,-250 113,-250"/>
<text text-anchor="start" x="118.5" y="-258" font-family="Times New Roman,serif" font-size="10.00">name = &quot;n4&quot;</text>
</g>
<!-- g1&#45;&#45;n9 -->
<g id="edge36" class="edge"><title>g1&#45;&#45;n9</title>
<path fill="none" stroke="black" d="M262.641,-661.885C210.579,-641.705 114,-593.788 114,-516 114,-516 114,-516 114,-432 114,-380.999 128.099,-322.359 136.636,-291.529"/>
<text text-anchor="middle" x="138.358" y="-298.88" font-family="Times New Roman,serif" font-size="10.00">nodes</text>
<text text-anchor="middle" x="252.652" y="-659.86" font-family="Times New Roman,serif" font-size="10.00">graph</text>
</g>
<!-- e10 -->
<g id="node7" class="node"><title>e10</title>
<polygon fill="none" stroke="black" points="93,-188 93,-205 158,-205 158,-188 93,-188"/>
<text text-anchor="start" x="104.5" y="-194.5" font-family="Times New Roman,serif" font-size="10.00"> </text>
<text text-anchor="start" x="107.5" y="-194.5" font-family="Times New Roman,serif" font-size="10.00">e10 :Edge</text>
<polygon fill="none" stroke="black" points="93,-168 93,-188 158,-188 158,-168 93,-168"/>
<text text-anchor="start" x="98.5" y="-176" font-family="Times New Roman,serif" font-size="10.00">name = &quot;e14&quot;</text>
</g>
<!-- g1&#45;&#45;e10 -->
<g id="edge8" class="edge"><title>g1&#45;&#45;e10</title>
<path fill="none" stroke="black" d="M262.706,-669.54C227.35,-664.267 170.684,-651.28 133,-620 92.4425,-586.335 76,-568.709 76,-516 76,-516 76,-516 76,-350 76,-303.013 79.8176,-290.467 95,-246 99.2858,-233.448 105.92,-220.254 111.862,-209.627"/>
<text text-anchor="middle" x="111.183" y="-217.104" font-family="Times New Roman,serif" font-size="10.00">edges</text>
<text text-anchor="middle" x="253.081" y="-669.755" font-family="Times New Roman,serif" font-size="10.00">graph</text>
</g>
<!-- n11 -->
<g id="node8" class="node"><title>n11</title>
<polygon fill="none" stroke="black" points="95,-106 95,-123 156,-123 156,-106 95,-106"/>
<text text-anchor="start" x="103.5" y="-112.5" font-family="Times New Roman,serif" font-size="10.00"> </text>
<text text-anchor="start" x="106.5" y="-112.5" font-family="Times New Roman,serif" font-size="10.00">n11 :Node</text>
<polygon fill="none" stroke="black" points="95,-86 95,-106 156,-106 156,-86 95,-86"/>
<text text-anchor="start" x="100.5" y="-94" font-family="Times New Roman,serif" font-size="10.00">name = &quot;n5&quot;</text>
</g>
<!-- g1&#45;&#45;n11 -->
<g id="edge24" class="edge"><title>g1&#45;&#45;n11</title>
<path fill="none" stroke="black" d="M262.511,-673.085C217.816,-671.524 137.102,-662.467 86,-620 46.847,-587.463 38,-566.908 38,-516 38,-516 38,-516 38,-268 38,-218.94 50.3411,-206.413 75,-164 82.6177,-150.898 93.366,-137.963 102.946,-127.645"/>
<text text-anchor="middle" x="99.9413" y="-134.683" font-family="Times New Roman,serif" font-size="10.00">nodes</text>
<text text-anchor="middle" x="253.249" y="-674.355" font-family="Times New Roman,serif" font-size="10.00">graph</text>
</g>
<!-- e12 -->
<g id="node9" class="node"><title>e12</title>
<polygon fill="none" stroke="black" points="22,-24 22,-41 87,-41 87,-24 22,-24"/>
<text text-anchor="start" x="33.5" y="-30.5" font-family="Times New Roman,serif" font-size="10.00"> </text>
<text text-anchor="start" x="36.5" y="-30.5" font-family="Times New Roman,serif" font-size="10.00">e12 :Edge</text>
<polygon fill="none" stroke="black" points="22,-4 22,-24 87,-24 87,-4 22,-4"/>
<text text-anchor="start" x="27.5" y="-12" font-family="Times New Roman,serif" font-size="10.00">name = &quot;e18&quot;</text>
</g>
<!-- g1&#45;&#45;e12 -->
<g id="edge10" class="edge"><title>g1&#45;&#45;e12</title>
<path fill="none" stroke="black" d="M262.437,-669.867C202.334,-663.494 77.0794,-647.264 44,-620 5.27062,-588.079 0,-566.189 0,-516 0,-516 0,-516 0,-186 0,-133.378 25.9604,-75.8467 41.8813,-45.512"/>
<text text-anchor="middle" x="41.5282" y="-53.0057" font-family="Times New Roman,serif" font-size="10.00">edges</text>
<text text-anchor="middle" x="252.962" y="-670.564" font-family="Times New Roman,serif" font-size="10.00">graph</text>
</g>
<!-- e13 -->
<g id="node10" class="node"><title>e13</title>
<polygon fill="none" stroke="black" points="220,-24 220,-41 285,-41 285,-24 220,-24"/>
<text text-anchor="start" x="231.5" y="-30.5" font-family="Times New Roman,serif" font-size="10.00"> </text>
<text text-anchor="start" x="234.5" y="-30.5" font-family="Times New Roman,serif" font-size="10.00">e13 :Edge</text>
<polygon fill="none" stroke="black" points="220,-4 220,-24 285,-24 285,-4 220,-4"/>
<text text-anchor="start" x="225.5" y="-12" font-family="Times New Roman,serif" font-size="10.00">name = &quot;e15&quot;</text>
</g>
<!-- g1&#45;&#45;e13 -->
<g id="edge12" class="edge"><title>g1&#45;&#45;e13</title>
<path fill="none" stroke="black" d="M314.701,-655.701C324.385,-646.127 335.37,-633.459 342,-620 362.8,-577.776 362,-563.069 362,-516 362,-516 362,-516 362,-186 362,-127.357 312.055,-74.1895 279.474,-45.7448"/>
<text text-anchor="middle" x="289.03" y="-46.1925" font-family="Times New Roman,serif" font-size="10.00">edges</text>
<text text-anchor="middle" x="318.083" y="-643.79" font-family="Times New Roman,serif" font-size="10.00">graph</text>
</g>
<!-- e14 -->
<g id="node11" class="node"><title>e14</title>
<polygon fill="none" stroke="black" points="343,-24 343,-41 408,-41 408,-24 343,-24"/>
<text text-anchor="start" x="354.5" y="-30.5" font-family="Times New Roman,serif" font-size="10.00"> </text>
<text text-anchor="start" x="357.5" y="-30.5" font-family="Times New Roman,serif" font-size="10.00">e14 :Edge</text>
<polygon fill="none" stroke="black" points="343,-4 343,-24 408,-24 408,-4 343,-4"/>
<text text-anchor="start" x="348.5" y="-12" font-family="Times New Roman,serif" font-size="10.00">name = &quot;e19&quot;</text>
</g>
<!-- g1&#45;&#45;e14 -->
<g id="edge14" class="edge"><title>g1&#45;&#45;e14</title>
<path fill="none" stroke="black" d="M325.288,-655.896C339.068,-646.791 354.584,-634.477 365,-620 393.483,-580.412 400,-564.77 400,-516 400,-516 400,-516 400,-186 400,-135.203 387.846,-76.4827 380.486,-45.5851"/>
<text text-anchor="middle" x="386.651" y="-50.9593" font-family="Times New Roman,serif" font-size="10.00">edges</text>
<text text-anchor="middle" x="330.428" y="-644.818" font-family="Times New Roman,serif" font-size="10.00">graph</text>
</g>
<!-- n15 -->
<g id="node12" class="node"><title>n15</title>
<polygon fill="none" stroke="black" points="437,-598 437,-615 498,-615 498,-598 437,-598"/>
<text text-anchor="start" x="445.5" y="-604.5" font-family="Times New Roman,serif" font-size="10.00"> </text>
<text text-anchor="start" x="448.5" y="-604.5" font-family="Times New Roman,serif" font-size="10.00">n15 :Node</text>
<polygon fill="none" stroke="black" points="437,-578 437,-598 498,-598 498,-578 437,-578"/>
<text text-anchor="start" x="442.5" y="-586" font-family="Times New Roman,serif" font-size="10.00">name = &quot;n6&quot;</text>
</g>
<!-- g1&#45;&#45;n15 -->
<g id="edge26" class="edge"><title>g1&#45;&#45;n15</title>
<path fill="none" stroke="black" d="M327.352,-658.893C356.059,-646.375 398.045,-628.067 428.478,-614.797"/>
<text text-anchor="middle" x="421.86" y="-619.794" font-family="Times New Roman,serif" font-size="10.00">nodes</text>
<text text-anchor="middle" x="333.97" y="-648.897" font-family="Times New Roman,serif" font-size="10.00">graph</text>
</g>
<!-- n16 -->
<g id="node13" class="node"><title>n16</title>
<polygon fill="none" stroke="black" points="532,-598 532,-615 593,-615 593,-598 532,-598"/>
<text text-anchor="start" x="540.5" y="-604.5" font-family="Times New Roman,serif" font-size="10.00"> </text>
<text text-anchor="start" x="543.5" y="-604.5" font-family="Times New Roman,serif" font-size="10.00">n16 :Node</text>
<polygon fill="none" stroke="black" points="532,-578 532,-598 593,-598 593,-578 532,-578"/>
<text text-anchor="start" x="537.5" y="-586" font-family="Times New Roman,serif" font-size="10.00">name = &quot;n7&quot;</text>
</g>
<!-- g1&#45;&#45;n16 -->
<g id="edge28" class="edge"><title>g1&#45;&#45;n16</title>
<path fill="none" stroke="black" d="M327.473,-667.172C370.729,-658.952 449.317,-642.416 514,-620 517.118,-618.919 520.309,-617.708 523.489,-616.423"/>
<text text-anchor="middle" x="516.653" y="-621.221" font-family="Times New Roman,serif" font-size="10.00">nodes</text>
<text text-anchor="middle" x="335.566" y="-658.798" font-family="Times New Roman,serif" font-size="10.00">graph</text>
</g>
<!-- n17 -->
<g id="node14" class="node"><title>n17</title>
<polygon fill="none" stroke="black" points="666,-598 666,-615 727,-615 727,-598 666,-598"/>
<text text-anchor="start" x="674.5" y="-604.5" font-family="Times New Roman,serif" font-size="10.00"> </text>
<text text-anchor="start" x="677.5" y="-604.5" font-family="Times New Roman,serif" font-size="10.00">n17 :Node</text>
<polygon fill="none" stroke="black" points="666,-578 666,-598 727,-598 727,-578 666,-578"/>
<text text-anchor="start" x="671.5" y="-586" font-family="Times New Roman,serif" font-size="10.00">name = &quot;n8&quot;</text>
</g>
<!-- g1&#45;&#45;n17 -->
<g id="edge30" class="edge"><title>g1&#45;&#45;n17</title>
<path fill="none" stroke="black" d="M327.698,-670.675C390.017,-665.664 529.691,-651.639 643,-620 647.798,-618.66 652.743,-617.005 657.596,-615.208"/>
<text text-anchor="middle" x="650.541" y="-619.796" font-family="Times New Roman,serif" font-size="10.00">nodes</text>
<text text-anchor="middle" x="336.369" y="-663.194" font-family="Times New Roman,serif" font-size="10.00">graph</text>
</g>
<!-- e18 -->
<g id="node15" class="node"><title>e18</title>
<polygon fill="none" stroke="black" points="606,-516 606,-533 671,-533 671,-516 606,-516"/>
<text text-anchor="start" x="617.5" y="-522.5" font-family="Times New Roman,serif" font-size="10.00"> </text>
<text text-anchor="start" x="620.5" y="-522.5" font-family="Times New Roman,serif" font-size="10.00">e18 :Edge</text>
<polygon fill="none" stroke="black" points="606,-496 606,-516 671,-516 671,-496 606,-496"/>
<text text-anchor="start" x="611.5" y="-504" font-family="Times New Roman,serif" font-size="10.00">name = &quot;e16&quot;</text>
</g>
<!-- g1&#45;&#45;e18 -->
<g id="edge16" class="edge"><title>g1&#45;&#45;e18</title>
<path fill="none" stroke="black" d="M327.336,-671.824C398.953,-668.562 567.864,-657.039 609,-620 632.123,-599.18 637.452,-561.632 638.341,-537.804"/>
<text text-anchor="middle" x="642.064" y="-544.585" font-family="Times New Roman,serif" font-size="10.00">edges</text>
<text text-anchor="middle" x="336.17" y="-664.638" font-family="Times New Roman,serif" font-size="10.00">graph</text>
</g>
<!-- e19 -->
<g id="node16" class="node"><title>e19</title>
<polygon fill="none" stroke="black" points="722,-516 722,-533 787,-533 787,-516 722,-516"/>
<text text-anchor="start" x="733.5" y="-522.5" font-family="Times New Roman,serif" font-size="10.00"> </text>
<text text-anchor="start" x="736.5" y="-522.5" font-family="Times New Roman,serif" font-size="10.00">e19 :Edge</text>
<polygon fill="none" stroke="black" points="722,-496 722,-516 787,-516 787,-496 722,-496"/>
<text text-anchor="start" x="727.5" y="-504" font-family="Times New Roman,serif" font-size="10.00">name = &quot;e17&quot;</text>
</g>
<!-- g1&#45;&#45;e19 -->
<g id="edge18" class="edge"><title>g1&#45;&#45;e19</title>
<path fill="none" stroke="black" d="M327.569,-671.458C425.739,-666.499 713.83,-649.533 743,-620 764.179,-598.557 762.517,-561.194 758.73,-537.573"/>
<text text-anchor="middle" x="764.179" y="-543.458" font-family="Times New Roman,serif" font-size="10.00">edges</text>
<text text-anchor="middle" x="336.394" y="-664.256" font-family="Times New Roman,serif" font-size="10.00">graph</text>
</g>
<!-- n4&#45;&#45;e5 -->
<g id="edge48" class="edge"><title>n4&#45;&#45;e5</title>
<path fill="none" stroke="black" d="M285.163,-574.14C280.042,-562.759 273.802,-548.893 268.701,-537.557"/>
<text text-anchor="middle" x="276.274" y="-541.587" font-family="Times New Roman,serif" font-size="10.00">outEdges</text>
<text text-anchor="middle" x="277.59" y="-565.109" font-family="Times New Roman,serif" font-size="10.00">src</text>
</g>
<!-- e5&#45;&#45;n6 -->
<g id="edge4" class="edge"><title>e5&#45;&#45;n6</title>
<path fill="none" stroke="black" d="M252.715,-492.14C249.443,-480.759 245.457,-466.893 242.198,-455.557"/>
<text text-anchor="middle" x="248.763" y="-460.599" font-family="Times New Roman,serif" font-size="10.00">tgt</text>
<text text-anchor="middle" x="246.149" y="-482.097" font-family="Times New Roman,serif" font-size="10.00">inEdges</text>
</g>
<!-- n6&#45;&#45;e8 -->
<g id="edge52" class="edge"><title>n6&#45;&#45;e8</title>
<path fill="none" stroke="black" d="M221.518,-410.14C213.978,-398.759 204.792,-384.893 197.281,-373.557"/>
<text text-anchor="middle" x="205.81" y="-376.278" font-family="Times New Roman,serif" font-size="10.00">outEdges</text>
<text text-anchor="middle" x="212.989" y="-402.418" font-family="Times New Roman,serif" font-size="10.00">src</text>
</g>
<!-- n6&#45;&#45;e13 -->
<g id="edge50" class="edge"><title>n6&#45;&#45;e13</title>
<path fill="none" stroke="black" d="M239.511,-410.319C244.221,-379.305 252,-320.447 252,-270 252,-270 252,-270 252,-186 252,-135.797 252,-76.8425 252,-45.7485"/>
<text text-anchor="middle" x="256.226" y="-52.3116" font-family="Times New Roman,serif" font-size="10.00">inEdges</text>
<text text-anchor="middle" x="236.657" y="-398.235" font-family="Times New Roman,serif" font-size="10.00">tgt</text>
</g>
<!-- e8&#45;&#45;n9 -->
<g id="edge6" class="edge"><title>e8&#45;&#45;n9</title>
<path fill="none" stroke="black" d="M172.07,-328.14C166.38,-316.759 159.446,-302.893 153.778,-291.557"/>
<text text-anchor="middle" x="161.612" y="-295.273" font-family="Times New Roman,serif" font-size="10.00">tgt</text>
<text text-anchor="middle" x="164.237" y="-319.423" font-family="Times New Roman,serif" font-size="10.00">inEdges</text>
</g>
<!-- n9&#45;&#45;e10 -->
<g id="edge54" class="edge"><title>n9&#45;&#45;e10</title>
<path fill="none" stroke="black" d="M138.081,-246.14C135.521,-234.759 132.401,-220.893 129.85,-209.557"/>
<text text-anchor="middle" x="135.963" y="-214.971" font-family="Times New Roman,serif" font-size="10.00">outEdges</text>
<text text-anchor="middle" x="131.969" y="-235.725" font-family="Times New Roman,serif" font-size="10.00">src</text>
</g>
<!-- e10&#45;&#45;n11 -->
<g id="edge2" class="edge"><title>e10&#45;&#45;n11</title>
<path fill="none" stroke="black" d="M125,-164.14C125,-152.759 125,-138.893 125,-127.557"/>
<text text-anchor="middle" x="129.226" y="-134.12" font-family="Times New Roman,serif" font-size="10.00">tgt</text>
<text text-anchor="middle" x="120.774" y="-152.577" font-family="Times New Roman,serif" font-size="10.00">inEdges</text>
</g>
<!-- n11&#45;&#45;e12 -->
<g id="edge38" class="edge"><title>n11&#45;&#45;e12</title>
<path fill="none" stroke="black" d="M105.599,-82.1396C95.4986,-70.759 83.1925,-56.8929 73.1318,-45.5569"/>
<text text-anchor="middle" x="82.3086" y="-47.0302" font-family="Times New Roman,serif" font-size="10.00">outEdges</text>
<text text-anchor="middle" x="96.4222" y="-75.6664" font-family="Times New Roman,serif" font-size="10.00">src</text>
</g>
<!-- n11&#45;&#45;e13 -->
<g id="edge40" class="edge"><title>n11&#45;&#45;e13</title>
<path fill="none" stroke="black" d="M159.368,-82.3508C177.439,-70.9674 199.529,-57.0524 217.605,-45.6665"/>
<text text-anchor="middle" x="212.189" y="-51.5728" font-family="Times New Roman,serif" font-size="10.00">outEdges</text>
<text text-anchor="middle" x="164.784" y="-71.4445" font-family="Times New Roman,serif" font-size="10.00">src</text>
</g>
<!-- n11&#45;&#45;e14 -->
<g id="edge42" class="edge"><title>n11&#45;&#45;e14</title>
<path fill="none" stroke="black" d="M163.515,-91.6753C209.809,-76.861 287.147,-52.1129 334.366,-37.0029"/>
<text text-anchor="middle" x="327.022" y="-41.2902" font-family="Times New Roman,serif" font-size="10.00">inEdges</text>
<text text-anchor="middle" x="170.858" y="-82.388" font-family="Times New Roman,serif" font-size="10.00">tgt</text>
</g>
<!-- n17&#45;&#45;e18 -->
<g id="edge44" class="edge"><title>n17&#45;&#45;e18</title>
<path fill="none" stroke="black" d="M680.151,-574.14C671.9,-562.759 661.847,-548.893 653.629,-537.557"/>
<text text-anchor="middle" x="662.37" y="-539.914" font-family="Times New Roman,serif" font-size="10.00">outEdges_inEdges</text>
<text text-anchor="middle" x="671.41" y="-566.783" font-family="Times New Roman,serif" font-size="10.00">src_tgt</text>
</g>
<!-- n17&#45;&#45;e19 -->
<g id="edge46" class="edge"><title>n17&#45;&#45;e19</title>
<path fill="none" stroke="black" d="M711.849,-574.14C720.1,-562.759 730.153,-548.893 738.371,-537.557"/>
<text text-anchor="middle" x="736.473" y="-544.875" font-family="Times New Roman,serif" font-size="10.00">outEdges_inEdges</text>
<text text-anchor="middle" x="713.747" y="-561.821" font-family="Times New Roman,serif" font-size="10.00">src_tgt</text>
</g>
</g>
</svg>
