<?xml version="1.0" encoding="UTF-8" standalone="no"?>
<!DOCTYPE svg PUBLIC "-//W3C//DTD SVG 1.1//EN"
 "http://www.w3.org/Graphics/SVG/1.1/DTD/svg11.dtd">
<!-- Generated by graphviz version 2.28.0 (20110507.0327)
 -->
<!-- Title: ObjectDiagram Pages: 1 -->
<svg width="710pt" height="110pt"
 viewBox="0.00 0.00 710.00 110.00" xmlns="http://www.w3.org/2000/svg" xmlns:xlink="http://www.w3.org/1999/xlink">
<g id="graph1" class="graph" transform="scale(1 1) rotate(0) translate(4 106)">
<title>ObjectDiagram</title>
<polygon fill="white" stroke="white" points="-4,5 -4,-106 707,-106 707,5 -4,5"/>
<!-- n23 -->
<g id="node1" class="node"><title>n23</title>
<a xlink:href="../examples/org/sdmlib/examples/helloworld/Node.java" xlink:title="&lt;TABLE&gt;">
<polygon fill="none" stroke="black" points="8,-80 8,-97 64,-97 64,-80 8,-80"/>
<text text-anchor="start" x="14" y="-86.5" font-family="Times New Roman,serif" font-size="10.00"> </text>
<text text-anchor="start" x="17" y="-86.5" font-family="Times New Roman,serif" font-size="10.00">n23 :Node</text>
</a>
<polygon fill="none" stroke="black" points="8,-4 8,-80 64,-80 64,-4 8,-4"/>
<text text-anchor="start" x="13" y="-68" font-family="Times New Roman,serif" font-size="10.00">name = &quot;&quot;</text>
<text text-anchor="start" x="13" y="-54" font-family="Times New Roman,serif" font-size="10.00">text = &quot;n1&quot;</text>
<text text-anchor="start" x="13" y="-40" font-family="Times New Roman,serif" font-size="10.00">copy = &quot;&quot;</text>
<text text-anchor="start" x="13" y="-26" font-family="Times New Roman,serif" font-size="10.00">orig = &quot;&quot;</text>
<text text-anchor="start" x="13" y="-12" font-family="Times New Roman,serif" font-size="10.00">parent = &quot;&quot;</text>
</g>
<!-- n24 -->
<g id="node2" class="node"><title>n24</title>
<a xlink:href="../examples/org/sdmlib/examples/helloworld/Node.java" xlink:title="&lt;TABLE&gt;">
<polygon fill="none" stroke="black" points="98,-80 98,-97 154,-97 154,-80 98,-80"/>
<text text-anchor="start" x="104" y="-86.5" font-family="Times New Roman,serif" font-size="10.00"> </text>
<text text-anchor="start" x="107" y="-86.5" font-family="Times New Roman,serif" font-size="10.00">n24 :Node</text>
</a>
<polygon fill="none" stroke="black" points="98,-4 98,-80 154,-80 154,-4 98,-4"/>
<text text-anchor="start" x="103" y="-68" font-family="Times New Roman,serif" font-size="10.00">name = &quot;&quot;</text>
<text text-anchor="start" x="103" y="-54" font-family="Times New Roman,serif" font-size="10.00">text = &quot;n2&quot;</text>
<text text-anchor="start" x="103" y="-40" font-family="Times New Roman,serif" font-size="10.00">copy = &quot;&quot;</text>
<text text-anchor="start" x="103" y="-26" font-family="Times New Roman,serif" font-size="10.00">orig = &quot;&quot;</text>
<text text-anchor="start" x="103" y="-12" font-family="Times New Roman,serif" font-size="10.00">parent = &quot;&quot;</text>
</g>
<!-- n25 -->
<g id="node3" class="node"><title>n25</title>
<a xlink:href="../examples/org/sdmlib/examples/helloworld/Node.java" xlink:title="&lt;TABLE&gt;">
<polygon fill="none" stroke="black" points="188,-80 188,-97 244,-97 244,-80 188,-80"/>
<text text-anchor="start" x="194" y="-86.5" font-family="Times New Roman,serif" font-size="10.00"> </text>
<text text-anchor="start" x="197" y="-86.5" font-family="Times New Roman,serif" font-size="10.00">n25 :Node</text>
</a>
<polygon fill="none" stroke="black" points="188,-4 188,-80 244,-80 244,-4 188,-4"/>
<text text-anchor="start" x="193" y="-68" font-family="Times New Roman,serif" font-size="10.00">name = &quot;&quot;</text>
<text text-anchor="start" x="193" y="-54" font-family="Times New Roman,serif" font-size="10.00">text = &quot;n3&quot;</text>
<text text-anchor="start" x="193" y="-40" font-family="Times New Roman,serif" font-size="10.00">copy = &quot;&quot;</text>
<text text-anchor="start" x="193" y="-26" font-family="Times New Roman,serif" font-size="10.00">orig = &quot;&quot;</text>
<text text-anchor="start" x="193" y="-12" font-family="Times New Roman,serif" font-size="10.00">parent = &quot;&quot;</text>
</g>
<!-- n26 -->
<g id="node4" class="node"><title>n26</title>
<a xlink:href="../examples/org/sdmlib/examples/helloworld/Node.java" xlink:title="&lt;TABLE&gt;">
<polygon fill="none" stroke="black" points="278,-80 278,-97 334,-97 334,-80 278,-80"/>
<text text-anchor="start" x="284" y="-86.5" font-family="Times New Roman,serif" font-size="10.00"> </text>
<text text-anchor="start" x="287" y="-86.5" font-family="Times New Roman,serif" font-size="10.00">n26 :Node</text>
</a>
<polygon fill="none" stroke="black" points="278,-4 278,-80 334,-80 334,-4 278,-4"/>
<text text-anchor="start" x="283" y="-68" font-family="Times New Roman,serif" font-size="10.00">name = &quot;&quot;</text>
<text text-anchor="start" x="283" y="-54" font-family="Times New Roman,serif" font-size="10.00">text = &quot;n4&quot;</text>
<text text-anchor="start" x="283" y="-40" font-family="Times New Roman,serif" font-size="10.00">copy = &quot;&quot;</text>
<text text-anchor="start" x="283" y="-26" font-family="Times New Roman,serif" font-size="10.00">orig = &quot;&quot;</text>
<text text-anchor="start" x="283" y="-12" font-family="Times New Roman,serif" font-size="10.00">parent = &quot;&quot;</text>
</g>
<!-- n27 -->
<g id="node5" class="node"><title>n27</title>
<a xlink:href="../examples/org/sdmlib/examples/helloworld/Node.java" xlink:title="&lt;TABLE&gt;">
<polygon fill="none" stroke="black" points="368,-80 368,-97 424,-97 424,-80 368,-80"/>
<text text-anchor="start" x="374" y="-86.5" font-family="Times New Roman,serif" font-size="10.00"> </text>
<text text-anchor="start" x="377" y="-86.5" font-family="Times New Roman,serif" font-size="10.00">n27 :Node</text>
</a>
<polygon fill="none" stroke="black" points="368,-4 368,-80 424,-80 424,-4 368,-4"/>
<text text-anchor="start" x="373" y="-68" font-family="Times New Roman,serif" font-size="10.00">name = &quot;&quot;</text>
<text text-anchor="start" x="373" y="-54" font-family="Times New Roman,serif" font-size="10.00">text = &quot;n5&quot;</text>
<text text-anchor="start" x="373" y="-40" font-family="Times New Roman,serif" font-size="10.00">copy = &quot;&quot;</text>
<text text-anchor="start" x="373" y="-26" font-family="Times New Roman,serif" font-size="10.00">orig = &quot;&quot;</text>
<text text-anchor="start" x="373" y="-12" font-family="Times New Roman,serif" font-size="10.00">parent = &quot;&quot;</text>
</g>
<!-- n28 -->
<g id="node6" class="node"><title>n28</title>
<a xlink:href="../examples/org/sdmlib/examples/helloworld/Node.java" xlink:title="&lt;TABLE&gt;">
<polygon fill="none" stroke="black" points="458,-80 458,-97 514,-97 514,-80 458,-80"/>
<text text-anchor="start" x="464" y="-86.5" font-family="Times New Roman,serif" font-size="10.00"> </text>
<text text-anchor="start" x="467" y="-86.5" font-family="Times New Roman,serif" font-size="10.00">n28 :Node</text>
</a>
<polygon fill="none" stroke="black" points="458,-4 458,-80 514,-80 514,-4 458,-4"/>
<text text-anchor="start" x="463" y="-68" font-family="Times New Roman,serif" font-size="10.00">name = &quot;&quot;</text>
<text text-anchor="start" x="463" y="-54" font-family="Times New Roman,serif" font-size="10.00">text = &quot;n6&quot;</text>
<text text-anchor="start" x="463" y="-40" font-family="Times New Roman,serif" font-size="10.00">copy = &quot;&quot;</text>
<text text-anchor="start" x="463" y="-26" font-family="Times New Roman,serif" font-size="10.00">orig = &quot;&quot;</text>
<text text-anchor="start" x="463" y="-12" font-family="Times New Roman,serif" font-size="10.00">parent = &quot;&quot;</text>
</g>
<!-- n29 -->
<g id="node7" class="node"><title>n29</title>
<a xlink:href="../examples/org/sdmlib/examples/helloworld/Node.java" xlink:title="&lt;TABLE&gt;">
<polygon fill="none" stroke="black" points="548,-80 548,-97 604,-97 604,-80 548,-80"/>
<text text-anchor="start" x="554" y="-86.5" font-family="Times New Roman,serif" font-size="10.00"> </text>
<text text-anchor="start" x="557" y="-86.5" font-family="Times New Roman,serif" font-size="10.00">n29 :Node</text>
</a>
<polygon fill="none" stroke="black" points="548,-4 548,-80 604,-80 604,-4 548,-4"/>
<text text-anchor="start" x="553" y="-68" font-family="Times New Roman,serif" font-size="10.00">name = &quot;&quot;</text>
<text text-anchor="start" x="553" y="-54" font-family="Times New Roman,serif" font-size="10.00">text = &quot;n7&quot;</text>
<text text-anchor="start" x="553" y="-40" font-family="Times New Roman,serif" font-size="10.00">copy = &quot;&quot;</text>
<text text-anchor="start" x="553" y="-26" font-family="Times New Roman,serif" font-size="10.00">orig = &quot;&quot;</text>
<text text-anchor="start" x="553" y="-12" font-family="Times New Roman,serif" font-size="10.00">parent = &quot;&quot;</text>
</g>
<!-- n30 -->
<g id="node8" class="node"><title>n30</title>
<a xlink:href="../examples/org/sdmlib/examples/helloworld/Node.java" xlink:title="&lt;TABLE&gt;">
<polygon fill="none" stroke="black" points="638,-80 638,-97 694,-97 694,-80 638,-80"/>
<text text-anchor="start" x="644" y="-86.5" font-family="Times New Roman,serif" font-size="10.00"> </text>
<text text-anchor="start" x="647" y="-86.5" font-family="Times New Roman,serif" font-size="10.00">n30 :Node</text>
</a>
<polygon fill="none" stroke="black" points="638,-4 638,-80 694,-80 694,-4 638,-4"/>
<text text-anchor="start" x="643" y="-68" font-family="Times New Roman,serif" font-size="10.00">name = &quot;&quot;</text>
<text text-anchor="start" x="643" y="-54" font-family="Times New Roman,serif" font-size="10.00">text = &quot;n8&quot;</text>
<text text-anchor="start" x="643" y="-40" font-family="Times New Roman,serif" font-size="10.00">copy = &quot;&quot;</text>
<text text-anchor="start" x="643" y="-26" font-family="Times New Roman,serif" font-size="10.00">orig = &quot;&quot;</text>
<text text-anchor="start" x="643" y="-12" font-family="Times New Roman,serif" font-size="10.00">parent = &quot;&quot;</text>
</g>
</g>
</svg>
