<?xml version="1.0" encoding="UTF-8" standalone="no"?>
<!DOCTYPE svg PUBLIC "-//W3C//DTD SVG 1.1//EN"
 "http://www.w3.org/Graphics/SVG/1.1/DTD/svg11.dtd">
<!-- Generated by graphviz version 2.28.0 (20110507.0327)
 -->
<!-- Title: ObjectDiagram Pages: 1 -->
<svg width="993pt" height="1050pt"
 viewBox="0.00 0.00 992.99 1050.00" xmlns="http://www.w3.org/2000/svg" xmlns:xlink="http://www.w3.org/1999/xlink">
<g id="graph1" class="graph" transform="scale(1 1) rotate(0) translate(4 1046)">
<title>ObjectDiagram</title>
<polygon fill="white" stroke="white" points="-4,5 -4,-1046 989.994,-1046 989.994,5 -4,5"/>
<!-- g1 -->
<g id="node1" class="node"><title>g1</title>
<a xlink:href="../examples/org/sdmlib/examples/helloworld/Graph.java" xlink:title="&lt;TABLE&gt;">
<polygon fill="none" stroke="black" points="432.994,-1015 432.994,-1032 481.994,-1032 481.994,-1015 432.994,-1015"/>
<text text-anchor="start" x="436.494" y="-1021.5" font-family="Times New Roman,serif" font-size="10.00"> </text>
<text text-anchor="start" x="439.494" y="-1021.5" font-family="Times New Roman,serif" font-size="10.00">g1 :Graph</text>
</a>
</g>
<!-- n2 -->
<g id="node2" class="node"><title>n2</title>
<a xlink:href="../examples/org/sdmlib/examples/helloworld/Node.java" xlink:title="&lt;TABLE&gt;">
<polygon fill="none" stroke="black" points="182.994,-948 182.994,-965 243.994,-965 243.994,-948 182.994,-948"/>
<text text-anchor="start" x="193.494" y="-954.5" font-family="Times New Roman,serif" font-size="10.00"> </text>
<text text-anchor="start" x="196.494" y="-954.5" font-family="Times New Roman,serif" font-size="10.00">n2 :Node</text>
</a>
<polygon fill="none" stroke="black" points="182.994,-872 182.994,-948 243.994,-948 243.994,-872 182.994,-872"/>
<text text-anchor="start" x="187.994" y="-936" font-family="Times New Roman,serif" font-size="10.00">name = &quot;n1&quot;</text>
<text text-anchor="start" x="187.994" y="-922" font-family="Times New Roman,serif" font-size="10.00">orig = &quot;&quot;</text>
<text text-anchor="start" x="187.994" y="-908" font-family="Times New Roman,serif" font-size="10.00">copy = &quot;&quot;</text>
<text text-anchor="start" x="187.994" y="-894" font-family="Times New Roman,serif" font-size="10.00">text = &quot;&quot;</text>
<text text-anchor="start" x="187.994" y="-880" font-family="Times New Roman,serif" font-size="10.00">parent = &quot;&quot;</text>
</g>
<!-- g1&#45;&#45;n2 -->
<g id="edge2" class="edge"><title>g1&#45;&#45;n2</title>
<path fill="none" stroke="black" d="M424.411,-1018.86C384.855,-1012.76 317.101,-998.821 265.994,-970 261.035,-967.204 256.182,-963.846 251.551,-960.21"/>
<text text-anchor="middle" x="261.303" y="-959.923" font-family="Times New Roman,serif" font-size="10.00">nodes</text>
<text text-anchor="middle" x="414.785" y="-1019.07" font-family="Times New Roman,serif" font-size="10.00">graph</text>
</g>
<!-- e3 -->
<g id="node3" class="node"><title>e3</title>
<a xlink:href="../examples/org/sdmlib/examples/helloworld/Edge.java" xlink:title="&lt;TABLE&gt;">
<polygon fill="none" stroke="black" points="216.994,-810 216.994,-827 281.994,-827 281.994,-810 216.994,-810"/>
<text text-anchor="start" x="230.994" y="-816.5" font-family="Times New Roman,serif" font-size="10.00"> </text>
<text text-anchor="start" x="233.994" y="-816.5" font-family="Times New Roman,serif" font-size="10.00">e3 :Edge</text>
</a>
<polygon fill="none" stroke="black" points="216.994,-762 216.994,-810 281.994,-810 281.994,-762 216.994,-762"/>
<text text-anchor="start" x="221.994" y="-798" font-family="Times New Roman,serif" font-size="10.00">name = &quot;e12&quot;</text>
<text text-anchor="start" x="221.994" y="-784" font-family="Times New Roman,serif" font-size="10.00">text = &quot;&quot;</text>
<text text-anchor="start" x="221.994" y="-770" font-family="Times New Roman,serif" font-size="10.00">parent = &quot;&quot;</text>
</g>
<!-- g1&#45;&#45;e3 -->
<g id="edge26" class="edge"><title>g1&#45;&#45;e3</title>
<path fill="none" stroke="black" d="M424.688,-1020.23C390.221,-1015.58 336.242,-1003.14 303.994,-970 284.716,-950.189 266.165,-876.54 256.306,-831.654"/>
<text text-anchor="middle" x="262.421" y="-837.066" font-family="Times New Roman,serif" font-size="10.00">edges</text>
<text text-anchor="middle" x="415.096" y="-1020.56" font-family="Times New Roman,serif" font-size="10.00">graph</text>
</g>
<!-- n4 -->
<g id="node4" class="node"><title>n4</title>
<a xlink:href="../examples/org/sdmlib/examples/helloworld/Node.java" xlink:title="&lt;TABLE&gt;">
<polygon fill="none" stroke="black" points="218.994,-700 218.994,-717 279.994,-717 279.994,-700 218.994,-700"/>
<text text-anchor="start" x="229.494" y="-706.5" font-family="Times New Roman,serif" font-size="10.00"> </text>
<text text-anchor="start" x="232.494" y="-706.5" font-family="Times New Roman,serif" font-size="10.00">n4 :Node</text>
</a>
<polygon fill="none" stroke="black" points="218.994,-624 218.994,-700 279.994,-700 279.994,-624 218.994,-624"/>
<text text-anchor="start" x="223.994" y="-688" font-family="Times New Roman,serif" font-size="10.00">name = &quot;n3&quot;</text>
<text text-anchor="start" x="223.994" y="-674" font-family="Times New Roman,serif" font-size="10.00">orig = &quot;&quot;</text>
<text text-anchor="start" x="223.994" y="-660" font-family="Times New Roman,serif" font-size="10.00">copy = &quot;&quot;</text>
<text text-anchor="start" x="223.994" y="-646" font-family="Times New Roman,serif" font-size="10.00">text = &quot;&quot;</text>
<text text-anchor="start" x="223.994" y="-632" font-family="Times New Roman,serif" font-size="10.00">parent = &quot;&quot;</text>
</g>
<!-- g1&#45;&#45;n4 -->
<g id="edge6" class="edge"><title>g1&#45;&#45;n4</title>
<path fill="none" stroke="black" d="M424.728,-1016.54C398.472,-1009.57 362.517,-995.81 341.994,-970 282.101,-894.68 332.007,-848.018 297.994,-758 293.377,-745.783 287.184,-733.241 280.755,-721.642"/>
<text text-anchor="middle" x="288.815" y="-725.062" font-family="Times New Roman,serif" font-size="10.00">nodes</text>
<text text-anchor="middle" x="414.857" y="-1015.64" font-family="Times New Roman,serif" font-size="10.00">graph</text>
</g>
<!-- e5 -->
<g id="node5" class="node"><title>e5</title>
<a xlink:href="../examples/org/sdmlib/examples/helloworld/Edge.java" xlink:title="&lt;TABLE&gt;">
<polygon fill="none" stroke="black" points="78.9935,-562 78.9935,-579 143.994,-579 143.994,-562 78.9935,-562"/>
<text text-anchor="start" x="92.9935" y="-568.5" font-family="Times New Roman,serif" font-size="10.00"> </text>
<text text-anchor="start" x="95.9935" y="-568.5" font-family="Times New Roman,serif" font-size="10.00">e5 :Edge</text>
</a>
<polygon fill="none" stroke="black" points="78.9935,-514 78.9935,-562 143.994,-562 143.994,-514 78.9935,-514"/>
<text text-anchor="start" x="83.9935" y="-550" font-family="Times New Roman,serif" font-size="10.00">name = &quot;e11&quot;</text>
<text text-anchor="start" x="83.9935" y="-536" font-family="Times New Roman,serif" font-size="10.00">text = &quot;&quot;</text>
<text text-anchor="start" x="83.9935" y="-522" font-family="Times New Roman,serif" font-size="10.00">parent = &quot;&quot;</text>
</g>
<!-- g1&#45;&#45;e5 -->
<g id="edge24" class="edge"><title>g1&#45;&#45;e5</title>
<path fill="none" stroke="black" d="M424.486,-1021.78C355.973,-1018.5 200.151,-1007.04 164.994,-970 63.0496,-862.582 87.6673,-664.566 103.133,-583.757"/>
<text text-anchor="middle" x="105.748" y="-590.909" font-family="Times New Roman,serif" font-size="10.00">edges</text>
<text text-anchor="middle" x="415.207" y="-1023.01" font-family="Times New Roman,serif" font-size="10.00">graph</text>
</g>
<!-- n6 -->
<g id="node6" class="node"><title>n6</title>
<a xlink:href="../examples/org/sdmlib/examples/helloworld/Node.java" xlink:title="&lt;TABLE&gt;">
<polygon fill="none" stroke="black" points="60.9935,-452 60.9935,-469 121.994,-469 121.994,-452 60.9935,-452"/>
<text text-anchor="start" x="71.4935" y="-458.5" font-family="Times New Roman,serif" font-size="10.00"> </text>
<text text-anchor="start" x="74.4935" y="-458.5" font-family="Times New Roman,serif" font-size="10.00">n6 :Node</text>
</a>
<polygon fill="none" stroke="black" points="60.9935,-376 60.9935,-452 121.994,-452 121.994,-376 60.9935,-376"/>
<text text-anchor="start" x="65.9935" y="-440" font-family="Times New Roman,serif" font-size="10.00">name = &quot;n2&quot;</text>
<text text-anchor="start" x="65.9935" y="-426" font-family="Times New Roman,serif" font-size="10.00">orig = &quot;&quot;</text>
<text text-anchor="start" x="65.9935" y="-412" font-family="Times New Roman,serif" font-size="10.00">copy = &quot;&quot;</text>
<text text-anchor="start" x="65.9935" y="-398" font-family="Times New Roman,serif" font-size="10.00">text = &quot;&quot;</text>
<text text-anchor="start" x="65.9935" y="-384" font-family="Times New Roman,serif" font-size="10.00">parent = &quot;&quot;</text>
</g>
<!-- g1&#45;&#45;n6 -->
<g id="edge4" class="edge"><title>g1&#45;&#45;n6</title>
<path fill="none" stroke="black" d="M424.609,-1022.22C347.249,-1019.72 154.531,-1009.58 105.994,-970 42.1357,-917.926 41.9935,-878.399 41.9935,-796 41.9935,-796 41.9935,-796 41.9935,-670 41.9935,-598.389 44.8829,-579.775 60.9935,-510 63.7328,-498.136 67.5383,-485.629 71.5209,-473.938"/>
<text text-anchor="middle" x="72.6342" y="-481.376" font-family="Times New Roman,serif" font-size="10.00">nodes</text>
<text text-anchor="middle" x="415.392" y="-1023.6" font-family="Times New Roman,serif" font-size="10.00">graph</text>
</g>
<!-- e7 -->
<g id="node7" class="node"><title>e7</title>
<a xlink:href="../examples/org/sdmlib/examples/helloworld/Edge.java" xlink:title="&lt;TABLE&gt;">
<polygon fill="none" stroke="black" points="58.9935,-307 58.9935,-324 123.994,-324 123.994,-307 58.9935,-307"/>
<text text-anchor="start" x="72.9935" y="-313.5" font-family="Times New Roman,serif" font-size="10.00"> </text>
<text text-anchor="start" x="75.9935" y="-313.5" font-family="Times New Roman,serif" font-size="10.00">e7 :Edge</text>
</a>
<polygon fill="none" stroke="black" points="58.9935,-259 58.9935,-307 123.994,-307 123.994,-259 58.9935,-259"/>
<text text-anchor="start" x="63.9935" y="-295" font-family="Times New Roman,serif" font-size="10.00">name = &quot;e10&quot;</text>
<text text-anchor="start" x="63.9935" y="-281" font-family="Times New Roman,serif" font-size="10.00">text = &quot;&quot;</text>
<text text-anchor="start" x="63.9935" y="-267" font-family="Times New Roman,serif" font-size="10.00">parent = &quot;&quot;</text>
</g>
<!-- g1&#45;&#45;e7 -->
<g id="edge22" class="edge"><title>g1&#45;&#45;e7</title>
<path fill="none" stroke="black" d="M424.571,-1023.49C336.85,-1024.12 97.7053,-1021.01 41.9935,-970 -16.3858,-916.544 3.99354,-875.156 3.99354,-796 3.99354,-796 3.99354,-796 3.99354,-546 3.99354,-466.748 13.3591,-445.503 42.9935,-372 48.9945,-357.116 57.6314,-341.805 65.9293,-328.673"/>
<text text-anchor="middle" x="64.7186" y="-336.099" font-family="Times New Roman,serif" font-size="10.00">edges</text>
<text text-anchor="middle" x="415.512" y="-1025.23" font-family="Times New Roman,serif" font-size="10.00">graph</text>
</g>
<!-- e8 -->
<g id="node8" class="node"><title>e8</title>
<a xlink:href="../examples/org/sdmlib/examples/helloworld/Edge.java" xlink:title="&lt;TABLE&gt;">
<polygon fill="none" stroke="black" points="336.994,-562 336.994,-579 401.994,-579 401.994,-562 336.994,-562"/>
<text text-anchor="start" x="350.994" y="-568.5" font-family="Times New Roman,serif" font-size="10.00"> </text>
<text text-anchor="start" x="353.994" y="-568.5" font-family="Times New Roman,serif" font-size="10.00">e8 :Edge</text>
</a>
<polygon fill="none" stroke="black" points="336.994,-514 336.994,-562 401.994,-562 401.994,-514 336.994,-514"/>
<text text-anchor="start" x="341.994" y="-550" font-family="Times New Roman,serif" font-size="10.00">name = &quot;e15&quot;</text>
<text text-anchor="start" x="341.994" y="-536" font-family="Times New Roman,serif" font-size="10.00">text = &quot;&quot;</text>
<text text-anchor="start" x="341.994" y="-522" font-family="Times New Roman,serif" font-size="10.00">parent = &quot;&quot;</text>
</g>
<!-- g1&#45;&#45;e8 -->
<g id="edge32" class="edge"><title>g1&#45;&#45;e8</title>
<path fill="none" stroke="black" d="M443.663,-1005.83C436.656,-995.901 428.59,-982.861 423.994,-970 375.133,-833.288 368.876,-657.818 368.607,-583.637"/>
<text text-anchor="middle" x="372.94" y="-590.15" font-family="Times New Roman,serif" font-size="10.00">edges</text>
<text text-anchor="middle" x="435.024" y="-998.292" font-family="Times New Roman,serif" font-size="10.00">graph</text>
</g>
<!-- n9 -->
<g id="node9" class="node"><title>n9</title>
<a xlink:href="../examples/org/sdmlib/examples/helloworld/Node.java" xlink:title="&lt;TABLE&gt;">
<polygon fill="none" stroke="black" points="354.994,-452 354.994,-469 415.994,-469 415.994,-452 354.994,-452"/>
<text text-anchor="start" x="365.494" y="-458.5" font-family="Times New Roman,serif" font-size="10.00"> </text>
<text text-anchor="start" x="368.494" y="-458.5" font-family="Times New Roman,serif" font-size="10.00">n9 :Node</text>
</a>
<polygon fill="none" stroke="black" points="354.994,-376 354.994,-452 415.994,-452 415.994,-376 354.994,-376"/>
<text text-anchor="start" x="359.994" y="-440" font-family="Times New Roman,serif" font-size="10.00">name = &quot;n5&quot;</text>
<text text-anchor="start" x="359.994" y="-426" font-family="Times New Roman,serif" font-size="10.00">orig = &quot;&quot;</text>
<text text-anchor="start" x="359.994" y="-412" font-family="Times New Roman,serif" font-size="10.00">copy = &quot;&quot;</text>
<text text-anchor="start" x="359.994" y="-398" font-family="Times New Roman,serif" font-size="10.00">text = &quot;&quot;</text>
<text text-anchor="start" x="359.994" y="-384" font-family="Times New Roman,serif" font-size="10.00">parent = &quot;&quot;</text>
</g>
<!-- g1&#45;&#45;n9 -->
<g id="edge10" class="edge"><title>g1&#45;&#45;n9</title>
<path fill="none" stroke="black" d="M454.587,-1005.96C449.475,-968.214 437.994,-874.7 437.994,-796 437.994,-796 437.994,-796 437.994,-670 437.994,-598.335 435.402,-579.518 417.994,-510 415.002,-498.055 410.825,-485.515 406.446,-473.819"/>
<text text-anchor="middle" x="413.554" y="-478.353" font-family="Times New Roman,serif" font-size="10.00">nodes</text>
<text text-anchor="middle" x="449.211" y="-995.023" font-family="Times New Roman,serif" font-size="10.00">graph</text>
</g>
<!-- e10 -->
<g id="node10" class="node"><title>e10</title>
<a xlink:href="../examples/org/sdmlib/examples/helloworld/Edge.java" xlink:title="&lt;TABLE&gt;">
<polygon fill="none" stroke="black" points="253.994,-314 253.994,-331 318.994,-331 318.994,-314 253.994,-314"/>
<text text-anchor="start" x="265.494" y="-320.5" font-family="Times New Roman,serif" font-size="10.00"> </text>
<text text-anchor="start" x="268.494" y="-320.5" font-family="Times New Roman,serif" font-size="10.00">e10 :Edge</text>
</a>
<polygon fill="none" stroke="black" points="253.994,-252 253.994,-314 318.994,-314 318.994,-252 253.994,-252"/>
<text text-anchor="start" x="258.994" y="-302" font-family="Times New Roman,serif" font-size="10.00">tgt = &quot;&quot;</text>
<text text-anchor="start" x="258.994" y="-288" font-family="Times New Roman,serif" font-size="10.00">name = &quot;e18&quot;</text>
<text text-anchor="start" x="258.994" y="-274" font-family="Times New Roman,serif" font-size="10.00">text = &quot;&quot;</text>
<text text-anchor="start" x="258.994" y="-260" font-family="Times New Roman,serif" font-size="10.00">parent = &quot;&quot;</text>
</g>
<!-- g1&#45;&#45;e10 -->
<g id="edge18" class="edge"><title>g1&#45;&#45;e10</title>
<path fill="none" stroke="black" d="M428.481,-1005.94C415.695,-996.846 401.589,-984.527 392.994,-970 328.613,-861.189 297.388,-466.548 288.635,-335.574"/>
<text text-anchor="middle" x="293.492" y="-341.815" font-family="Times New Roman,serif" font-size="10.00">edges</text>
<text text-anchor="middle" x="418.669" y="-1001.51" font-family="Times New Roman,serif" font-size="10.00">graph</text>
</g>
<!-- e11 -->
<g id="node11" class="node"><title>e11</title>
<a xlink:href="../examples/org/sdmlib/examples/helloworld/Edge.java" xlink:title="&lt;TABLE&gt;">
<polygon fill="none" stroke="black" points="451.994,-307 451.994,-324 516.994,-324 516.994,-307 451.994,-307"/>
<text text-anchor="start" x="463.494" y="-313.5" font-family="Times New Roman,serif" font-size="10.00"> </text>
<text text-anchor="start" x="466.494" y="-313.5" font-family="Times New Roman,serif" font-size="10.00">e11 :Edge</text>
</a>
<polygon fill="none" stroke="black" points="451.994,-259 451.994,-307 516.994,-307 516.994,-259 451.994,-259"/>
<text text-anchor="start" x="456.994" y="-295" font-family="Times New Roman,serif" font-size="10.00">name = &quot;e14&quot;</text>
<text text-anchor="start" x="456.994" y="-281" font-family="Times New Roman,serif" font-size="10.00">text = &quot;&quot;</text>
<text text-anchor="start" x="456.994" y="-267" font-family="Times New Roman,serif" font-size="10.00">parent = &quot;&quot;</text>
</g>
<!-- g1&#45;&#45;e11 -->
<g id="edge30" class="edge"><title>g1&#45;&#45;e11</title>
<path fill="none" stroke="black" d="M470.287,-1005.81C477.282,-995.883 485.349,-982.843 489.994,-970 516.541,-896.587 513.994,-874.065 513.994,-796 513.994,-796 513.994,-796 513.994,-546 513.994,-468.153 499.814,-377.764 490.952,-328.872"/>
<text text-anchor="middle" x="496.689" y="-334.563" font-family="Times New Roman,serif" font-size="10.00">edges</text>
<text text-anchor="middle" x="471.974" y="-993.458" font-family="Times New Roman,serif" font-size="10.00">graph</text>
</g>
<!-- n12 -->
<g id="node12" class="node"><title>n12</title>
<a xlink:href="../examples/org/sdmlib/examples/helloworld/Node.java" xlink:title="&lt;TABLE&gt;">
<polygon fill="none" stroke="black" points="473.994,-190 473.994,-207 534.994,-207 534.994,-190 473.994,-190"/>
<text text-anchor="start" x="482.494" y="-196.5" font-family="Times New Roman,serif" font-size="10.00"> </text>
<text text-anchor="start" x="485.494" y="-196.5" font-family="Times New Roman,serif" font-size="10.00">n12 :Node</text>
</a>
<polygon fill="none" stroke="black" points="473.994,-114 473.994,-190 534.994,-190 534.994,-114 473.994,-114"/>
<text text-anchor="start" x="478.994" y="-178" font-family="Times New Roman,serif" font-size="10.00">name = &quot;n4&quot;</text>
<text text-anchor="start" x="478.994" y="-164" font-family="Times New Roman,serif" font-size="10.00">orig = &quot;&quot;</text>
<text text-anchor="start" x="478.994" y="-150" font-family="Times New Roman,serif" font-size="10.00">copy = &quot;&quot;</text>
<text text-anchor="start" x="478.994" y="-136" font-family="Times New Roman,serif" font-size="10.00">text = &quot;&quot;</text>
<text text-anchor="start" x="478.994" y="-122" font-family="Times New Roman,serif" font-size="10.00">parent = &quot;&quot;</text>
</g>
<!-- g1&#45;&#45;n12 -->
<g id="edge8" class="edge"><title>g1&#45;&#45;n12</title>
<path fill="none" stroke="black" d="M482.553,-1005.9C494.467,-996.634 507.792,-984.185 515.994,-970 555.567,-901.555 552.994,-875.062 552.994,-796 552.994,-796 552.994,-796 552.994,-422 552.994,-344.157 549.969,-323.969 532.994,-248 530.313,-236.006 526.574,-223.337 522.67,-211.517"/>
<text text-anchor="middle" x="529.5" y="-216.322" font-family="Times New Roman,serif" font-size="10.00">nodes</text>
<text text-anchor="middle" x="487.013" y="-994.446" font-family="Times New Roman,serif" font-size="10.00">graph</text>
</g>
<!-- e13 -->
<g id="node13" class="node"><title>e13</title>
<a xlink:href="../examples/org/sdmlib/examples/helloworld/Edge.java" xlink:title="&lt;TABLE&gt;">
<polygon fill="none" stroke="black" points="471.994,-52 471.994,-69 536.994,-69 536.994,-52 471.994,-52"/>
<text text-anchor="start" x="483.494" y="-58.5" font-family="Times New Roman,serif" font-size="10.00"> </text>
<text text-anchor="start" x="486.494" y="-58.5" font-family="Times New Roman,serif" font-size="10.00">e13 :Edge</text>
</a>
<polygon fill="none" stroke="black" points="471.994,-4 471.994,-52 536.994,-52 536.994,-4 471.994,-4"/>
<text text-anchor="start" x="476.994" y="-40" font-family="Times New Roman,serif" font-size="10.00">name = &quot;e13&quot;</text>
<text text-anchor="start" x="476.994" y="-26" font-family="Times New Roman,serif" font-size="10.00">text = &quot;&quot;</text>
<text text-anchor="start" x="476.994" y="-12" font-family="Times New Roman,serif" font-size="10.00">parent = &quot;&quot;</text>
</g>
<!-- g1&#45;&#45;e13 -->
<g id="edge28" class="edge"><title>g1&#45;&#45;e13</title>
<path fill="none" stroke="black" d="M489.29,-1011.72C509.063,-1003.21 533.307,-989.609 547.994,-970 595.747,-906.241 590.994,-875.66 590.994,-796 590.994,-796 590.994,-796 590.994,-291 590.994,-208.615 582.917,-185.949 550.994,-110 545.73,-97.4772 538.269,-84.7596 530.839,-73.568"/>
<text text-anchor="middle" x="539.34" y="-76.3343" font-family="Times New Roman,serif" font-size="10.00">edges</text>
<text text-anchor="middle" x="495.838" y="-1001.66" font-family="Times New Roman,serif" font-size="10.00">graph</text>
</g>
<!-- e14 -->
<g id="node14" class="node"><title>e14</title>
<a xlink:href="../examples/org/sdmlib/examples/helloworld/Edge.java" xlink:title="&lt;TABLE&gt;">
<polygon fill="none" stroke="black" points="352.994,-314 352.994,-331 417.994,-331 417.994,-314 352.994,-314"/>
<text text-anchor="start" x="364.494" y="-320.5" font-family="Times New Roman,serif" font-size="10.00"> </text>
<text text-anchor="start" x="367.494" y="-320.5" font-family="Times New Roman,serif" font-size="10.00">e14 :Edge</text>
</a>
<polygon fill="none" stroke="black" points="352.994,-252 352.994,-314 417.994,-314 417.994,-252 352.994,-252"/>
<text text-anchor="start" x="357.994" y="-302" font-family="Times New Roman,serif" font-size="10.00">src = &quot;&quot;</text>
<text text-anchor="start" x="357.994" y="-288" font-family="Times New Roman,serif" font-size="10.00">name = &quot;e19&quot;</text>
<text text-anchor="start" x="357.994" y="-274" font-family="Times New Roman,serif" font-size="10.00">text = &quot;&quot;</text>
<text text-anchor="start" x="357.994" y="-260" font-family="Times New Roman,serif" font-size="10.00">parent = &quot;&quot;</text>
</g>
<!-- g1&#45;&#45;e14 -->
<g id="edge20" class="edge"><title>g1&#45;&#45;e14</title>
<path fill="none" stroke="black" d="M459.4,-1005.96C464.513,-968.214 475.994,-874.7 475.994,-796 475.994,-796 475.994,-796 475.994,-546 475.994,-466.232 462.481,-445.711 431.994,-372 426.931,-359.76 420.21,-347.152 413.439,-335.702"/>
<text text-anchor="middle" x="421.663" y="-338.892" font-family="Times New Roman,serif" font-size="10.00">edges</text>
<text text-anchor="middle" x="456.397" y="-993.917" font-family="Times New Roman,serif" font-size="10.00">graph</text>
</g>
<!-- n15 -->
<g id="node15" class="node"><title>n15</title>
<a xlink:href="../examples/org/sdmlib/examples/helloworld/Node.java" xlink:title="&lt;TABLE&gt;">
<polygon fill="none" stroke="black" points="627.994,-948 627.994,-965 688.994,-965 688.994,-948 627.994,-948"/>
<text text-anchor="start" x="636.494" y="-954.5" font-family="Times New Roman,serif" font-size="10.00"> </text>
<text text-anchor="start" x="639.494" y="-954.5" font-family="Times New Roman,serif" font-size="10.00">n15 :Node</text>
</a>
<polygon fill="none" stroke="black" points="627.994,-872 627.994,-948 688.994,-948 688.994,-872 627.994,-872"/>
<text text-anchor="start" x="632.994" y="-936" font-family="Times New Roman,serif" font-size="10.00">name = &quot;n6&quot;</text>
<text text-anchor="start" x="632.994" y="-922" font-family="Times New Roman,serif" font-size="10.00">orig = &quot;&quot;</text>
<text text-anchor="start" x="632.994" y="-908" font-family="Times New Roman,serif" font-size="10.00">copy = &quot;&quot;</text>
<text text-anchor="start" x="632.994" y="-894" font-family="Times New Roman,serif" font-size="10.00">text = &quot;&quot;</text>
<text text-anchor="start" x="632.994" y="-880" font-family="Times New Roman,serif" font-size="10.00">parent = &quot;&quot;</text>
</g>
<!-- g1&#45;&#45;n15 -->
<g id="edge12" class="edge"><title>g1&#45;&#45;n15</title>
<path fill="none" stroke="black" d="M489.293,-1015.56C520.472,-1007.45 568.233,-992.542 604.994,-970 609.954,-966.958 614.843,-963.395 619.526,-959.596"/>
<text text-anchor="middle" x="615.103" y="-966.065" font-family="Times New Roman,serif" font-size="10.00">nodes</text>
<text text-anchor="middle" x="496.95" y="-1006.62" font-family="Times New Roman,serif" font-size="10.00">graph</text>
</g>
<!-- n16 -->
<g id="node16" class="node"><title>n16</title>
<a xlink:href="../examples/org/sdmlib/examples/helloworld/Node.java" xlink:title="&lt;TABLE&gt;">
<polygon fill="none" stroke="black" points="722.994,-948 722.994,-965 783.994,-965 783.994,-948 722.994,-948"/>
<text text-anchor="start" x="731.494" y="-954.5" font-family="Times New Roman,serif" font-size="10.00"> </text>
<text text-anchor="start" x="734.494" y="-954.5" font-family="Times New Roman,serif" font-size="10.00">n16 :Node</text>
</a>
<polygon fill="none" stroke="black" points="722.994,-872 722.994,-948 783.994,-948 783.994,-872 722.994,-872"/>
<text text-anchor="start" x="727.994" y="-936" font-family="Times New Roman,serif" font-size="10.00">name = &quot;n7&quot;</text>
<text text-anchor="start" x="727.994" y="-922" font-family="Times New Roman,serif" font-size="10.00">orig = &quot;&quot;</text>
<text text-anchor="start" x="727.994" y="-908" font-family="Times New Roman,serif" font-size="10.00">copy = &quot;&quot;</text>
<text text-anchor="start" x="727.994" y="-894" font-family="Times New Roman,serif" font-size="10.00">text = &quot;&quot;</text>
<text text-anchor="start" x="727.994" y="-880" font-family="Times New Roman,serif" font-size="10.00">parent = &quot;&quot;</text>
</g>
<!-- g1&#45;&#45;n16 -->
<g id="edge14" class="edge"><title>g1&#45;&#45;n16</title>
<path fill="none" stroke="black" d="M489.632,-1022.05C539.175,-1019.33 634.989,-1008.99 704.994,-970 708.252,-968.185 711.426,-966.076 714.487,-963.772"/>
<text text-anchor="middle" x="709.736" y="-970.071" font-family="Times New Roman,serif" font-size="10.00">nodes</text>
<text text-anchor="middle" x="498.398" y="-1014.74" font-family="Times New Roman,serif" font-size="10.00">graph</text>
</g>
<!-- n17 -->
<g id="node17" class="node"><title>n17</title>
<a xlink:href="../examples/org/sdmlib/examples/helloworld/Node.java" xlink:title="&lt;TABLE&gt;">
<polygon fill="none" stroke="black" points="856.994,-948 856.994,-965 917.994,-965 917.994,-948 856.994,-948"/>
<text text-anchor="start" x="865.494" y="-954.5" font-family="Times New Roman,serif" font-size="10.00"> </text>
<text text-anchor="start" x="868.494" y="-954.5" font-family="Times New Roman,serif" font-size="10.00">n17 :Node</text>
</a>
<polygon fill="none" stroke="black" points="856.994,-872 856.994,-948 917.994,-948 917.994,-872 856.994,-872"/>
<text text-anchor="start" x="861.994" y="-936" font-family="Times New Roman,serif" font-size="10.00">name = &quot;n8&quot;</text>
<text text-anchor="start" x="861.994" y="-922" font-family="Times New Roman,serif" font-size="10.00">orig = &quot;&quot;</text>
<text text-anchor="start" x="861.994" y="-908" font-family="Times New Roman,serif" font-size="10.00">copy = &quot;&quot;</text>
<text text-anchor="start" x="861.994" y="-894" font-family="Times New Roman,serif" font-size="10.00">text = &quot;&quot;</text>
<text text-anchor="start" x="861.994" y="-880" font-family="Times New Roman,serif" font-size="10.00">parent = &quot;&quot;</text>
</g>
<!-- g1&#45;&#45;n17 -->
<g id="edge16" class="edge"><title>g1&#45;&#45;n17</title>
<path fill="none" stroke="black" d="M489.524,-1020.96C569.411,-1015.56 773.154,-999.237 833.994,-970 839.01,-967.589 843.868,-964.53 848.474,-961.117"/>
<text text-anchor="middle" x="843.641" y="-967.372" font-family="Times New Roman,serif" font-size="10.00">nodes</text>
<text text-anchor="middle" x="498.264" y="-1013.6" font-family="Times New Roman,serif" font-size="10.00">graph</text>
</g>
<!-- e18 -->
<g id="node18" class="node"><title>e18</title>
<a xlink:href="../examples/org/sdmlib/examples/helloworld/Edge.java" xlink:title="&lt;TABLE&gt;">
<polygon fill="none" stroke="black" points="796.994,-810 796.994,-827 861.994,-827 861.994,-810 796.994,-810"/>
<text text-anchor="start" x="808.494" y="-816.5" font-family="Times New Roman,serif" font-size="10.00"> </text>
<text text-anchor="start" x="811.494" y="-816.5" font-family="Times New Roman,serif" font-size="10.00">e18 :Edge</text>
</a>
<polygon fill="none" stroke="black" points="796.994,-762 796.994,-810 861.994,-810 861.994,-762 796.994,-762"/>
<text text-anchor="start" x="801.994" y="-798" font-family="Times New Roman,serif" font-size="10.00">name = &quot;e16&quot;</text>
<text text-anchor="start" x="801.994" y="-784" font-family="Times New Roman,serif" font-size="10.00">text = &quot;&quot;</text>
<text text-anchor="start" x="801.994" y="-770" font-family="Times New Roman,serif" font-size="10.00">parent = &quot;&quot;</text>
</g>
<!-- g1&#45;&#45;e18 -->
<g id="edge34" class="edge"><title>g1&#45;&#45;e18</title>
<path fill="none" stroke="black" d="M489.417,-1022.65C566.303,-1021.13 756.492,-1012.99 799.994,-970 836.262,-934.158 837.621,-871.335 834.137,-831.789"/>
<text text-anchor="middle" x="838.982" y="-838.038" font-family="Times New Roman,serif" font-size="10.00">edges</text>
<text text-anchor="middle" x="498.367" y="-1015.69" font-family="Times New Roman,serif" font-size="10.00">graph</text>
</g>
<!-- e19 -->
<g id="node19" class="node"><title>e19</title>
<a xlink:href="../examples/org/sdmlib/examples/helloworld/Edge.java" xlink:title="&lt;TABLE&gt;">
<polygon fill="none" stroke="black" points="912.994,-810 912.994,-827 977.994,-827 977.994,-810 912.994,-810"/>
<text text-anchor="start" x="924.494" y="-816.5" font-family="Times New Roman,serif" font-size="10.00"> </text>
<text text-anchor="start" x="927.494" y="-816.5" font-family="Times New Roman,serif" font-size="10.00">e19 :Edge</text>
</a>
<polygon fill="none" stroke="black" points="912.994,-762 912.994,-810 977.994,-810 977.994,-762 912.994,-762"/>
<text text-anchor="start" x="917.994" y="-798" font-family="Times New Roman,serif" font-size="10.00">name = &quot;e17&quot;</text>
<text text-anchor="start" x="917.994" y="-784" font-family="Times New Roman,serif" font-size="10.00">text = &quot;&quot;</text>
<text text-anchor="start" x="917.994" y="-770" font-family="Times New Roman,serif" font-size="10.00">parent = &quot;&quot;</text>
</g>
<!-- g1&#45;&#45;e19 -->
<g id="edge36" class="edge"><title>g1&#45;&#45;e19</title>
<path fill="none" stroke="black" d="M489.531,-1021.76C592.035,-1017.55 903.302,-1002.19 933.994,-970 968.773,-933.527 962.965,-870.894 954.653,-831.558"/>
<text text-anchor="middle" x="960.506" y="-837.166" font-family="Times New Roman,serif" font-size="10.00">edges</text>
<text text-anchor="middle" x="498.4" y="-1014.64" font-family="Times New Roman,serif" font-size="10.00">graph</text>
</g>
<!-- n2&#45;&#45;e3 -->
<g id="edge38" class="edge"><title>n2&#45;&#45;e3</title>
<path fill="none" stroke="black" d="M227.636,-868.378C231.257,-856.108 235.066,-843.2 238.448,-831.739"/>
<text text-anchor="middle" x="239.936" y="-839.127" font-family="Times New Roman,serif" font-size="10.00">outEdges</text>
<text text-anchor="middle" x="226.148" y="-855.989" font-family="Times New Roman,serif" font-size="10.00">src</text>
</g>
<!-- n2&#45;&#45;e7 -->
<g id="edge40" class="edge"><title>n2&#45;&#45;e7</title>
<path fill="none" stroke="black" d="M202.37,-868.32C192.724,-818.817 179.994,-740.515 179.994,-672 179.994,-672 179.994,-672 179.994,-546 179.994,-466.446 168.001,-445.678 137.994,-372 131.974,-357.22 123.485,-341.932 115.375,-328.789"/>
<text text-anchor="middle" x="123.702" y="-331.827" font-family="Times New Roman,serif" font-size="10.00">inEdges</text>
<text text-anchor="middle" x="196.531" y="-857.702" font-family="Times New Roman,serif" font-size="10.00">tgt</text>
</g>
<!-- e3&#45;&#45;n4 -->
<g id="edge42" class="edge"><title>e3&#45;&#45;n4</title>
<path fill="none" stroke="black" d="M248.994,-758.385C248.994,-746.991 248.994,-734.159 248.994,-721.94"/>
<text text-anchor="middle" x="253.22" y="-728.503" font-family="Times New Roman,serif" font-size="10.00">tgt</text>
<text text-anchor="middle" x="244.767" y="-746.822" font-family="Times New Roman,serif" font-size="10.00">inEdges</text>
</g>
<!-- n4&#45;&#45;e5 -->
<g id="edge44" class="edge"><title>n4&#45;&#45;e5</title>
<path fill="none" stroke="black" d="M210.553,-636.016C192.05,-619.659 169.874,-600.054 151.152,-583.503"/>
<text text-anchor="middle" x="160.741" y="-583.839" font-family="Times New Roman,serif" font-size="10.00">outEdges</text>
<text text-anchor="middle" x="200.964" y="-630.68" font-family="Times New Roman,serif" font-size="10.00">src</text>
</g>
<!-- n4&#45;&#45;e8 -->
<g id="edge46" class="edge"><title>n4&#45;&#45;e8</title>
<path fill="none" stroke="black" d="M287.292,-631.063C302.245,-615.861 319.276,-598.546 333.905,-583.673"/>
<text text-anchor="middle" x="330.563" y="-590.598" font-family="Times New Roman,serif" font-size="10.00">outEdges</text>
<text text-anchor="middle" x="290.635" y="-619.138" font-family="Times New Roman,serif" font-size="10.00">src</text>
</g>
<!-- n4&#45;&#45;e13 -->
<g id="edge48" class="edge"><title>n4&#45;&#45;e13</title>
<path fill="none" stroke="black" d="M233.316,-620.425C210.311,-538.256 176.235,-370.745 235.994,-248 283.603,-150.21 401.223,-84.507 463.618,-55.2842"/>
<text text-anchor="middle" x="457.319" y="-60.5507" font-family="Times New Roman,serif" font-size="10.00">inEdges</text>
<text text-anchor="middle" x="226.922" y="-610.237" font-family="Times New Roman,serif" font-size="10.00">tgt</text>
</g>
<!-- e5&#45;&#45;n6 -->
<g id="edge50" class="edge"><title>e5&#45;&#45;n6</title>
<path fill="none" stroke="black" d="M105.155,-510.385C103.287,-498.991 101.184,-486.159 99.1804,-473.94"/>
<text text-anchor="middle" x="104.817" y="-479.7" font-family="Times New Roman,serif" font-size="10.00">tgt</text>
<text text-anchor="middle" x="99.5183" y="-499.625" font-family="Times New Roman,serif" font-size="10.00">inEdges</text>
</g>
<!-- n6&#45;&#45;e7 -->
<g id="edge52" class="edge"><title>n6&#45;&#45;e7</title>
<path fill="none" stroke="black" d="M90.9935,-372.494C90.9935,-357.857 90.9935,-342.13 90.9935,-328.559"/>
<text text-anchor="middle" x="95.2197" y="-335.122" font-family="Times New Roman,serif" font-size="10.00">outEdges</text>
<text text-anchor="middle" x="86.7674" y="-360.931" font-family="Times New Roman,serif" font-size="10.00">src</text>
</g>
<!-- e8&#45;&#45;n9 -->
<g id="edge54" class="edge"><title>e8&#45;&#45;n9</title>
<path fill="none" stroke="black" d="M373.664,-510.385C375.159,-498.991 376.842,-486.159 378.444,-473.94"/>
<text text-anchor="middle" x="381.456" y="-480.975" font-family="Times New Roman,serif" font-size="10.00">tgt</text>
<text text-anchor="middle" x="370.653" y="-498.349" font-family="Times New Roman,serif" font-size="10.00">inEdges</text>
</g>
<!-- n9&#45;&#45;e10 -->
<g id="edge56" class="edge"><title>n9&#45;&#45;e10</title>
<path fill="none" stroke="black" d="M347.001,-372.494C337.731,-360.415 327.891,-347.594 318.882,-335.854"/>
<text text-anchor="middle" x="327.752" y="-337.971" font-family="Times New Roman,serif" font-size="10.00">outEdges</text>
<text text-anchor="middle" x="338.13" y="-365.377" font-family="Times New Roman,serif" font-size="10.00">src</text>
</g>
<!-- n9&#45;&#45;e11 -->
<g id="edge58" class="edge"><title>n9&#45;&#45;e11</title>
<path fill="none" stroke="black" d="M422.986,-372.494C434.219,-357.857 446.289,-342.13 456.704,-328.559"/>
<text text-anchor="middle" x="454.539" y="-335.822" font-family="Times New Roman,serif" font-size="10.00">outEdges</text>
<text text-anchor="middle" x="425.151" y="-360.231" font-family="Times New Roman,serif" font-size="10.00">src</text>
</g>
<!-- n9&#45;&#45;e14 -->
<g id="edge60" class="edge"><title>n9&#45;&#45;e14</title>
<path fill="none" stroke="black" d="M384.994,-372.494C384.994,-360.415 384.994,-347.594 384.994,-335.854"/>
<text text-anchor="middle" x="389.22" y="-342.417" font-family="Times New Roman,serif" font-size="10.00">inEdges</text>
<text text-anchor="middle" x="380.767" y="-360.931" font-family="Times New Roman,serif" font-size="10.00">tgt</text>
</g>
<!-- e11&#45;&#45;n12 -->
<g id="edge62" class="edge"><title>e11&#45;&#45;n12</title>
<path fill="none" stroke="black" d="M489.512,-255.409C491.593,-241.985 494.001,-226.455 496.248,-211.958"/>
<text text-anchor="middle" x="499.036" y="-219.062" font-family="Times New Roman,serif" font-size="10.00">tgt</text>
<text text-anchor="middle" x="486.724" y="-243.305" font-family="Times New Roman,serif" font-size="10.00">inEdges</text>
</g>
<!-- n12&#45;&#45;e13 -->
<g id="edge64" class="edge"><title>n12&#45;&#45;e13</title>
<path fill="none" stroke="black" d="M503.994,-110.378C503.994,-98.1076 503.994,-85.2005 503.994,-73.7386"/>
<text text-anchor="middle" x="508.22" y="-80.3017" font-family="Times New Roman,serif" font-size="10.00">outEdges</text>
<text text-anchor="middle" x="499.767" y="-98.8149" font-family="Times New Roman,serif" font-size="10.00">src</text>
</g>
<!-- n17&#45;&#45;e18 -->
<g id="edge66" class="edge"><title>n17&#45;&#45;e18</title>
<path fill="none" stroke="black" d="M863.403,-868.378C857.569,-856.108 851.433,-843.2 845.984,-831.739"/>
<text text-anchor="middle" x="853.692" y="-835.609" font-family="Times New Roman,serif" font-size="10.00">outEdges_inEdges</text>
<text text-anchor="middle" x="855.695" y="-859.507" font-family="Times New Roman,serif" font-size="10.00">src_tgt</text>
</g>
<!-- n17&#45;&#45;e19 -->
<g id="edge68" class="edge"><title>n17&#45;&#45;e19</title>
<path fill="none" stroke="black" d="M910.584,-868.378C916.418,-856.108 922.554,-843.2 928.003,-831.739"/>
<text text-anchor="middle" x="927.929" y="-839.238" font-family="Times New Roman,serif" font-size="10.00">outEdges_inEdges</text>
<text text-anchor="middle" x="910.659" y="-855.878" font-family="Times New Roman,serif" font-size="10.00">src_tgt</text>
</g>
</g>
</svg>
