<?xml version="1.0" encoding="UTF-8" standalone="no"?>
<!DOCTYPE svg PUBLIC "-//W3C//DTD SVG 1.1//EN"
 "http://www.w3.org/Graphics/SVG/1.1/DTD/svg11.dtd">
<!-- Generated by graphviz version 2.28.0 (20110507.0327)
 -->
<!-- Title: ObjectDiagram Pages: 1 -->
<svg width="653pt" height="792pt"
 viewBox="0.00 0.00 653.00 792.00" xmlns="http://www.w3.org/2000/svg" xmlns:xlink="http://www.w3.org/1999/xlink">
<g id="graph1" class="graph" transform="scale(1 1) rotate(0) translate(4 788)">
<title>ObjectDiagram</title>
<polygon fill="white" stroke="white" points="-4,5 -4,-788 650,-788 650,5 -4,5"/>
<!-- n2 -->
<g id="node1" class="node"><title>n2</title>
<polygon fill="none" stroke="black" points="241,-762 241,-779 302,-779 302,-762 241,-762"/>
<text text-anchor="start" x="251.5" y="-768.5" font-family="Times New Roman,serif" font-size="10.00"> </text>
<text text-anchor="start" x="254.5" y="-768.5" font-family="Times New Roman,serif" font-size="10.00">n2 :Node</text>
<polygon fill="none" stroke="black" points="241,-742 241,-762 302,-762 302,-742 241,-742"/>
<text text-anchor="start" x="246.5" y="-750" font-family="Times New Roman,serif" font-size="10.00">name = &quot;n1&quot;</text>
</g>
<!-- e3 -->
<g id="node2" class="node"><title>e3</title>
<polygon fill="none" stroke="black" points="205,-680 205,-697 270,-697 270,-680 205,-680"/>
<text text-anchor="start" x="219" y="-686.5" font-family="Times New Roman,serif" font-size="10.00"> </text>
<text text-anchor="start" x="222" y="-686.5" font-family="Times New Roman,serif" font-size="10.00">e3 :Edge</text>
<polygon fill="none" stroke="black" points="205,-660 205,-680 270,-680 270,-660 205,-660"/>
<text text-anchor="start" x="210.5" y="-668" font-family="Times New Roman,serif" font-size="10.00">name = &quot;e10&quot;</text>
</g>
<!-- n2&#45;&#45;e3 -->
<g id="edge20" class="edge"><title>n2&#45;&#45;e3</title>
<path fill="none" stroke="black" d="M261.709,-738.14C256.873,-726.759 250.979,-712.893 246.162,-701.557"/>
<text text-anchor="middle" x="253.596" y="-705.745" font-family="Times New Roman,serif" font-size="10.00">outEdges</text>
<text text-anchor="middle" x="254.275" y="-728.952" font-family="Times New Roman,serif" font-size="10.00">src</text>
</g>
<!-- e7 -->
<g id="node6" class="node"><title>e7</title>
<polygon fill="none" stroke="black" points="274,-352 274,-369 339,-369 339,-352 274,-352"/>
<text text-anchor="start" x="288" y="-358.5" font-family="Times New Roman,serif" font-size="10.00"> </text>
<text text-anchor="start" x="291" y="-358.5" font-family="Times New Roman,serif" font-size="10.00">e7 :Edge</text>
<polygon fill="none" stroke="black" points="274,-332 274,-352 339,-352 339,-332 274,-332"/>
<text text-anchor="start" x="279.5" y="-340" font-family="Times New Roman,serif" font-size="10.00">name = &quot;e12&quot;</text>
</g>
<!-- n2&#45;&#45;e7 -->
<g id="edge22" class="edge"><title>n2&#45;&#45;e7</title>
<path fill="none" stroke="black" d="M278.768,-738.311C289.079,-707.531 306,-649.218 306,-598 306,-598 306,-598 306,-514 306,-463.797 306,-404.843 306,-373.749"/>
<text text-anchor="middle" x="310.226" y="-380.312" font-family="Times New Roman,serif" font-size="10.00">inEdges</text>
<text text-anchor="middle" x="277.559" y="-725.885" font-family="Times New Roman,serif" font-size="10.00">tgt</text>
</g>
<!-- n4 -->
<g id="node3" class="node"><title>n4</title>
<polygon fill="none" stroke="black" points="207,-598 207,-615 268,-615 268,-598 207,-598"/>
<text text-anchor="start" x="217.5" y="-604.5" font-family="Times New Roman,serif" font-size="10.00"> </text>
<text text-anchor="start" x="220.5" y="-604.5" font-family="Times New Roman,serif" font-size="10.00">n4 :Node</text>
<polygon fill="none" stroke="black" points="207,-578 207,-598 268,-598 268,-578 207,-578"/>
<text text-anchor="start" x="212.5" y="-586" font-family="Times New Roman,serif" font-size="10.00">name = &quot;n2&quot;</text>
</g>
<!-- e3&#45;&#45;n4 -->
<g id="edge4" class="edge"><title>e3&#45;&#45;n4</title>
<path fill="none" stroke="black" d="M237,-656.14C237,-644.759 237,-630.893 237,-619.557"/>
<text text-anchor="middle" x="241.226" y="-626.12" font-family="Times New Roman,serif" font-size="10.00">tgt</text>
<text text-anchor="middle" x="232.774" y="-644.577" font-family="Times New Roman,serif" font-size="10.00">inEdges</text>
</g>
<!-- e5 -->
<g id="node4" class="node"><title>e5</title>
<polygon fill="none" stroke="black" points="205,-516 205,-533 270,-533 270,-516 205,-516"/>
<text text-anchor="start" x="219" y="-522.5" font-family="Times New Roman,serif" font-size="10.00"> </text>
<text text-anchor="start" x="222" y="-522.5" font-family="Times New Roman,serif" font-size="10.00">e5 :Edge</text>
<polygon fill="none" stroke="black" points="205,-496 205,-516 270,-516 270,-496 205,-496"/>
<text text-anchor="start" x="210.5" y="-504" font-family="Times New Roman,serif" font-size="10.00">name = &quot;e11&quot;</text>
</g>
<!-- n4&#45;&#45;e5 -->
<g id="edge24" class="edge"><title>n4&#45;&#45;e5</title>
<path fill="none" stroke="black" d="M237,-574.14C237,-562.759 237,-548.893 237,-537.557"/>
<text text-anchor="middle" x="241.226" y="-544.12" font-family="Times New Roman,serif" font-size="10.00">outEdges</text>
<text text-anchor="middle" x="232.774" y="-562.577" font-family="Times New Roman,serif" font-size="10.00">src</text>
</g>
<!-- n6 -->
<g id="node5" class="node"><title>n6</title>
<polygon fill="none" stroke="black" points="207,-434 207,-451 268,-451 268,-434 207,-434"/>
<text text-anchor="start" x="217.5" y="-440.5" font-family="Times New Roman,serif" font-size="10.00"> </text>
<text text-anchor="start" x="220.5" y="-440.5" font-family="Times New Roman,serif" font-size="10.00">n6 :Node</text>
<polygon fill="none" stroke="black" points="207,-414 207,-434 268,-434 268,-414 207,-414"/>
<text text-anchor="start" x="212.5" y="-422" font-family="Times New Roman,serif" font-size="10.00">name = &quot;n3&quot;</text>
</g>
<!-- e5&#45;&#45;n6 -->
<g id="edge6" class="edge"><title>e5&#45;&#45;n6</title>
<path fill="none" stroke="black" d="M237,-492.14C237,-480.759 237,-466.893 237,-455.557"/>
<text text-anchor="middle" x="241.226" y="-462.12" font-family="Times New Roman,serif" font-size="10.00">tgt</text>
<text text-anchor="middle" x="232.774" y="-480.577" font-family="Times New Roman,serif" font-size="10.00">inEdges</text>
</g>
<!-- n6&#45;&#45;e7 -->
<g id="edge28" class="edge"><title>n6&#45;&#45;e7</title>
<path fill="none" stroke="black" d="M255.855,-410.14C265.67,-398.759 277.63,-384.893 287.407,-373.557"/>
<text text-anchor="middle" x="284.688" y="-380.68" font-family="Times New Roman,serif" font-size="10.00">outEdges</text>
<text text-anchor="middle" x="258.574" y="-398.016" font-family="Times New Roman,serif" font-size="10.00">src</text>
</g>
<!-- e8 -->
<g id="node7" class="node"><title>e8</title>
<polygon fill="none" stroke="black" points="121,-352 121,-369 186,-369 186,-352 121,-352"/>
<text text-anchor="start" x="135" y="-358.5" font-family="Times New Roman,serif" font-size="10.00"> </text>
<text text-anchor="start" x="138" y="-358.5" font-family="Times New Roman,serif" font-size="10.00">e8 :Edge</text>
<polygon fill="none" stroke="black" points="121,-332 121,-352 186,-352 186,-332 121,-332"/>
<text text-anchor="start" x="126.5" y="-340" font-family="Times New Roman,serif" font-size="10.00">name = &quot;e13&quot;</text>
</g>
<!-- n6&#45;&#45;e8 -->
<g id="edge30" class="edge"><title>n6&#45;&#45;e8</title>
<path fill="none" stroke="black" d="M214.047,-410.14C202.097,-398.759 187.538,-384.893 175.635,-373.557"/>
<text text-anchor="middle" x="185.112" y="-374.247" font-family="Times New Roman,serif" font-size="10.00">outEdges</text>
<text text-anchor="middle" x="204.569" y="-404.45" font-family="Times New Roman,serif" font-size="10.00">src</text>
</g>
<!-- e13 -->
<g id="node12" class="node"><title>e13</title>
<polygon fill="none" stroke="black" points="206,-24 206,-41 271,-41 271,-24 206,-24"/>
<text text-anchor="start" x="217.5" y="-30.5" font-family="Times New Roman,serif" font-size="10.00"> </text>
<text text-anchor="start" x="220.5" y="-30.5" font-family="Times New Roman,serif" font-size="10.00">e13 :Edge</text>
<polygon fill="none" stroke="black" points="206,-4 206,-24 271,-24 271,-4 206,-4"/>
<text text-anchor="start" x="211.5" y="-12" font-family="Times New Roman,serif" font-size="10.00">name = &quot;e15&quot;</text>
</g>
<!-- n6&#45;&#45;e13 -->
<g id="edge26" class="edge"><title>n6&#45;&#45;e13</title>
<path fill="none" stroke="black" d="M237,-410.251C237,-379.157 237,-320.203 237,-270 237,-270 237,-270 237,-186 237,-135.796 237.486,-76.8419 237.781,-45.7483"/>
<text text-anchor="middle" x="241.923" y="-52.3499" font-family="Times New Roman,serif" font-size="10.00">inEdges</text>
<text text-anchor="middle" x="232.774" y="-398.688" font-family="Times New Roman,serif" font-size="10.00">tgt</text>
</g>
<!-- n9 -->
<g id="node8" class="node"><title>n9</title>
<polygon fill="none" stroke="black" points="116,-270 116,-287 177,-287 177,-270 116,-270"/>
<text text-anchor="start" x="126.5" y="-276.5" font-family="Times New Roman,serif" font-size="10.00"> </text>
<text text-anchor="start" x="129.5" y="-276.5" font-family="Times New Roman,serif" font-size="10.00">n9 :Node</text>
<polygon fill="none" stroke="black" points="116,-250 116,-270 177,-270 177,-250 116,-250"/>
<text text-anchor="start" x="121.5" y="-258" font-family="Times New Roman,serif" font-size="10.00">name = &quot;n4&quot;</text>
</g>
<!-- e8&#45;&#45;n9 -->
<g id="edge8" class="edge"><title>e8&#45;&#45;n9</title>
<path fill="none" stroke="black" d="M151.087,-328.14C150.091,-316.759 148.878,-302.893 147.886,-291.557"/>
<text text-anchor="middle" x="152.886" y="-297.717" font-family="Times New Roman,serif" font-size="10.00">tgt</text>
<text text-anchor="middle" x="146.087" y="-316.979" font-family="Times New Roman,serif" font-size="10.00">inEdges</text>
</g>
<!-- e10 -->
<g id="node9" class="node"><title>e10</title>
<polygon fill="none" stroke="black" points="110,-188 110,-205 175,-205 175,-188 110,-188"/>
<text text-anchor="start" x="121.5" y="-194.5" font-family="Times New Roman,serif" font-size="10.00"> </text>
<text text-anchor="start" x="124.5" y="-194.5" font-family="Times New Roman,serif" font-size="10.00">e10 :Edge</text>
<polygon fill="none" stroke="black" points="110,-168 110,-188 175,-188 175,-168 110,-168"/>
<text text-anchor="start" x="115.5" y="-176" font-family="Times New Roman,serif" font-size="10.00">name = &quot;e14&quot;</text>
</g>
<!-- n9&#45;&#45;e10 -->
<g id="edge32" class="edge"><title>n9&#45;&#45;e10</title>
<path fill="none" stroke="black" d="M144.907,-246.14C144.338,-234.759 143.645,-220.893 143.078,-209.557"/>
<text text-anchor="middle" x="147.751" y="-215.898" font-family="Times New Roman,serif" font-size="10.00">outEdges</text>
<text text-anchor="middle" x="140.233" y="-234.799" font-family="Times New Roman,serif" font-size="10.00">src</text>
</g>
<!-- n11 -->
<g id="node10" class="node"><title>n11</title>
<polygon fill="none" stroke="black" points="110,-106 110,-123 171,-123 171,-106 110,-106"/>
<text text-anchor="start" x="118.5" y="-112.5" font-family="Times New Roman,serif" font-size="10.00"> </text>
<text text-anchor="start" x="121.5" y="-112.5" font-family="Times New Roman,serif" font-size="10.00">n11 :Node</text>
<polygon fill="none" stroke="black" points="110,-86 110,-106 171,-106 171,-86 110,-86"/>
<text text-anchor="start" x="115.5" y="-94" font-family="Times New Roman,serif" font-size="10.00">name = &quot;n5&quot;</text>
</g>
<!-- e10&#45;&#45;n11 -->
<g id="edge2" class="edge"><title>e10&#45;&#45;n11</title>
<path fill="none" stroke="black" d="M141.453,-164.14C141.169,-152.759 140.822,-138.893 140.539,-127.557"/>
<text text-anchor="middle" x="144.99" y="-134.012" font-family="Times New Roman,serif" font-size="10.00">tgt</text>
<text text-anchor="middle" x="137.002" y="-152.685" font-family="Times New Roman,serif" font-size="10.00">inEdges</text>
</g>
<!-- e12 -->
<g id="node11" class="node"><title>e12</title>
<polygon fill="none" stroke="black" points="107,-24 107,-41 172,-41 172,-24 107,-24"/>
<text text-anchor="start" x="118.5" y="-30.5" font-family="Times New Roman,serif" font-size="10.00"> </text>
<text text-anchor="start" x="121.5" y="-30.5" font-family="Times New Roman,serif" font-size="10.00">e12 :Edge</text>
<polygon fill="none" stroke="black" points="107,-4 107,-24 172,-24 172,-4 107,-4"/>
<text text-anchor="start" x="112.5" y="-12" font-family="Times New Roman,serif" font-size="10.00">name = &quot;e18&quot;</text>
</g>
<!-- n11&#45;&#45;e12 -->
<g id="edge10" class="edge"><title>n11&#45;&#45;e12</title>
<path fill="none" stroke="black" d="M139.727,-82.1396C139.584,-70.759 139.411,-56.8929 139.269,-45.5569"/>
<text text-anchor="middle" x="143.609" y="-52.0665" font-family="Times New Roman,serif" font-size="10.00">outEdges</text>
<text text-anchor="middle" x="135.388" y="-70.6301" font-family="Times New Roman,serif" font-size="10.00">src</text>
</g>
<!-- n11&#45;&#45;e13 -->
<g id="edge12" class="edge"><title>n11&#45;&#45;e13</title>
<path fill="none" stroke="black" d="M166.52,-82.3508C180.465,-70.9674 197.511,-57.0524 211.459,-45.6665"/>
<text text-anchor="middle" x="207.11" y="-52.1716" font-family="Times New Roman,serif" font-size="10.00">outEdges</text>
<text text-anchor="middle" x="170.868" y="-70.8457" font-family="Times New Roman,serif" font-size="10.00">src</text>
</g>
<!-- e14 -->
<g id="node13" class="node"><title>e14</title>
<polygon fill="none" stroke="black" points="8,-24 8,-41 73,-41 73,-24 8,-24"/>
<text text-anchor="start" x="19.5" y="-30.5" font-family="Times New Roman,serif" font-size="10.00"> </text>
<text text-anchor="start" x="22.5" y="-30.5" font-family="Times New Roman,serif" font-size="10.00">e14 :Edge</text>
<polygon fill="none" stroke="black" points="8,-4 8,-24 73,-24 73,-4 8,-4"/>
<text text-anchor="start" x="13.5" y="-12" font-family="Times New Roman,serif" font-size="10.00">name = &quot;e19&quot;</text>
</g>
<!-- n11&#45;&#45;e14 -->
<g id="edge14" class="edge"><title>n11&#45;&#45;e14</title>
<path fill="none" stroke="black" d="M112.939,-82.3508C98.7093,-70.9674 81.3156,-57.0524 67.0831,-45.6665"/>
<text text-anchor="middle" x="76.8002" y="-45.528" font-family="Times New Roman,serif" font-size="10.00">inEdges</text>
<text text-anchor="middle" x="103.221" y="-77.4893" font-family="Times New Roman,serif" font-size="10.00">tgt</text>
</g>
<!-- n15 -->
<g id="node14" class="node"><title>n15</title>
<polygon fill="none" stroke="black" points="336,-762 336,-779 397,-779 397,-762 336,-762"/>
<text text-anchor="start" x="344.5" y="-768.5" font-family="Times New Roman,serif" font-size="10.00"> </text>
<text text-anchor="start" x="347.5" y="-768.5" font-family="Times New Roman,serif" font-size="10.00">n15 :Node</text>
<polygon fill="none" stroke="black" points="336,-742 336,-762 397,-762 397,-742 336,-742"/>
<text text-anchor="start" x="341.5" y="-750" font-family="Times New Roman,serif" font-size="10.00">name = &quot;n6&quot;</text>
</g>
<!-- n16 -->
<g id="node15" class="node"><title>n16</title>
<polygon fill="none" stroke="black" points="431,-762 431,-779 492,-779 492,-762 431,-762"/>
<text text-anchor="start" x="439.5" y="-768.5" font-family="Times New Roman,serif" font-size="10.00"> </text>
<text text-anchor="start" x="442.5" y="-768.5" font-family="Times New Roman,serif" font-size="10.00">n16 :Node</text>
<polygon fill="none" stroke="black" points="431,-742 431,-762 492,-762 492,-742 431,-742"/>
<text text-anchor="start" x="436.5" y="-750" font-family="Times New Roman,serif" font-size="10.00">name = &quot;n7&quot;</text>
</g>
<!-- n17 -->
<g id="node16" class="node"><title>n17</title>
<polygon fill="none" stroke="black" points="526,-762 526,-779 587,-779 587,-762 526,-762"/>
<text text-anchor="start" x="534.5" y="-768.5" font-family="Times New Roman,serif" font-size="10.00"> </text>
<text text-anchor="start" x="537.5" y="-768.5" font-family="Times New Roman,serif" font-size="10.00">n17 :Node</text>
<polygon fill="none" stroke="black" points="526,-742 526,-762 587,-762 587,-742 526,-742"/>
<text text-anchor="start" x="531.5" y="-750" font-family="Times New Roman,serif" font-size="10.00">name = &quot;n8&quot;</text>
</g>
<!-- e18 -->
<g id="node17" class="node"><title>e18</title>
<polygon fill="none" stroke="black" points="474,-680 474,-697 539,-697 539,-680 474,-680"/>
<text text-anchor="start" x="485.5" y="-686.5" font-family="Times New Roman,serif" font-size="10.00"> </text>
<text text-anchor="start" x="488.5" y="-686.5" font-family="Times New Roman,serif" font-size="10.00">e18 :Edge</text>
<polygon fill="none" stroke="black" points="474,-660 474,-680 539,-680 539,-660 474,-660"/>
<text text-anchor="start" x="479.5" y="-668" font-family="Times New Roman,serif" font-size="10.00">name = &quot;e16&quot;</text>
</g>
<!-- n17&#45;&#45;e18 -->
<g id="edge16" class="edge"><title>n17&#45;&#45;e18</title>
<path fill="none" stroke="black" d="M542.337,-738.14C535.224,-726.759 526.558,-712.893 519.473,-701.557"/>
<text text-anchor="middle" x="527.86" y="-704.503" font-family="Times New Roman,serif" font-size="10.00">outEdges_inEdges</text>
<text text-anchor="middle" x="533.95" y="-730.194" font-family="Times New Roman,serif" font-size="10.00">src_tgt</text>
</g>
<!-- e19 -->
<g id="node18" class="node"><title>e19</title>
<polygon fill="none" stroke="black" points="573,-680 573,-697 638,-697 638,-680 573,-680"/>
<text text-anchor="start" x="584.5" y="-686.5" font-family="Times New Roman,serif" font-size="10.00"> </text>
<text text-anchor="start" x="587.5" y="-686.5" font-family="Times New Roman,serif" font-size="10.00">e19 :Edge</text>
<polygon fill="none" stroke="black" points="573,-660 573,-680 638,-680 638,-660 573,-660"/>
<text text-anchor="start" x="578.5" y="-668" font-family="Times New Roman,serif" font-size="10.00">name = &quot;e17&quot;</text>
</g>
<!-- n17&#45;&#45;e19 -->
<g id="edge18" class="edge"><title>n17&#45;&#45;e19</title>
<path fill="none" stroke="black" d="M569.389,-738.14C576.36,-726.759 584.853,-712.893 591.796,-701.557"/>
<text text-anchor="middle" x="590.667" y="-708.993" font-family="Times New Roman,serif" font-size="10.00">outEdges_inEdges</text>
<text text-anchor="middle" x="570.519" y="-725.704" font-family="Times New Roman,serif" font-size="10.00">src_tgt</text>
</g>
</g>
</svg>
