<?xml version="1.0" encoding="UTF-8" standalone="no"?>
<!DOCTYPE svg PUBLIC "-//W3C//DTD SVG 1.1//EN"
 "http://www.w3.org/Graphics/SVG/1.1/DTD/svg11.dtd">
<!-- Generated by graphviz version 2.28.0 (20110507.0327)
 -->
<!-- Title: ObjectDiagram Pages: 1 -->
<svg width="780pt" height="554pt"
 viewBox="0.00 0.00 780.00 554.00" xmlns="http://www.w3.org/2000/svg" xmlns:xlink="http://www.w3.org/1999/xlink">
<g id="graph1" class="graph" transform="scale(1 1) rotate(0) translate(4 550)">
<title>ObjectDiagram</title>
<polygon fill="white" stroke="white" points="-4,5 -4,-550 777,-550 777,5 -4,5"/>
<!-- g1 -->
<g id="node1" class="node"><title>g1</title>
<a xlink:href="../examples/org/sdmlib/examples/helloworld/model/Graph.java" xlink:title="&lt;TABLE&gt;">
<polygon fill="none" stroke="black" points="316,-519 316,-536 370,-536 370,-519 316,-519"/>
<text text-anchor="start" x="319.5" y="-525.5" font-family="Arial" font-size="10.00"> </text>
<text text-anchor="start" x="323.5" y="-525.5" font-family="Arial" font-size="10.00">g1 :Graph</text>
</a>
</g>
<!-- n4 -->
<g id="node2" class="node"><title>n4</title>
<a xlink:href="../examples/org/sdmlib/examples/helloworld/model/Node.java" xlink:title="&lt;TABLE&gt;">
<polygon fill="none" stroke="black" points="8,-452 8,-469 74,-469 74,-452 8,-452"/>
<text text-anchor="start" x="19" y="-458.5" font-family="Arial" font-size="10.00"> </text>
<text text-anchor="start" x="23" y="-458.5" font-family="Arial" font-size="10.00">n4 :Node</text>
</a>
<polygon fill="none" stroke="black" points="8,-376 8,-452 74,-452 74,-376 8,-376"/>
<text text-anchor="start" x="13" y="-440" font-family="Arial" font-size="10.00">text = &quot;&quot;</text>
<text text-anchor="start" x="13" y="-426" font-family="Arial" font-size="10.00">name = &quot;n2&quot;</text>
<text text-anchor="start" x="13" y="-412" font-family="Arial" font-size="10.00">parent = &quot;&quot;</text>
<text text-anchor="start" x="13" y="-398" font-family="Arial" font-size="10.00">orig = &quot;&quot;</text>
<text text-anchor="start" x="13" y="-384" font-family="Arial" font-size="10.00">copy = &quot;&quot;</text>
</g>
<!-- g1&#45;&#45;n4 -->
<g id="edge14" class="edge"><title>g1&#45;&#45;n4</title>
<path fill="none" stroke="black" d="M307.94,-525.205C258.248,-521.428 165.634,-509.775 96,-474 91.2939,-471.582 86.6844,-468.656 82.2614,-465.447"/>
<text text-anchor="middle" x="92.0907" y="-464.787" font-family="Arial" font-size="10.00">nodes</text>
<text text-anchor="middle" x="298.549" y="-526.14" font-family="Arial" font-size="10.00">graph</text>
</g>
<!-- n9 -->
<g id="node3" class="node"><title>n9</title>
<a xlink:href="../examples/org/sdmlib/examples/helloworld/model/Node.java" xlink:title="&lt;TABLE&gt;">
<polygon fill="none" stroke="black" points="184,-452 184,-469 250,-469 250,-452 184,-452"/>
<text text-anchor="start" x="195" y="-458.5" font-family="Arial" font-size="10.00"> </text>
<text text-anchor="start" x="199" y="-458.5" font-family="Arial" font-size="10.00">n9 :Node</text>
</a>
<polygon fill="none" stroke="black" points="184,-376 184,-452 250,-452 250,-376 184,-376"/>
<text text-anchor="start" x="189" y="-440" font-family="Arial" font-size="10.00">text = &quot;&quot;</text>
<text text-anchor="start" x="189" y="-426" font-family="Arial" font-size="10.00">name = &quot;n4&quot;</text>
<text text-anchor="start" x="189" y="-412" font-family="Arial" font-size="10.00">parent = &quot;&quot;</text>
<text text-anchor="start" x="189" y="-398" font-family="Arial" font-size="10.00">orig = &quot;&quot;</text>
<text text-anchor="start" x="189" y="-384" font-family="Arial" font-size="10.00">copy = &quot;&quot;</text>
</g>
<!-- g1&#45;&#45;n9 -->
<g id="edge16" class="edge"><title>g1&#45;&#45;n9</title>
<path fill="none" stroke="black" d="M318.893,-509.894C304.941,-499.776 287.191,-486.526 272,-474 267.42,-470.224 262.71,-466.19 258.065,-462.113"/>
<text text-anchor="middle" x="267.668" y="-462.403" font-family="Arial" font-size="10.00">nodes</text>
<text text-anchor="middle" x="309.079" y="-505.476" font-family="Arial" font-size="10.00">graph</text>
</g>
<!-- e10 -->
<g id="node4" class="node"><title>e10</title>
<a xlink:href="../examples/org/sdmlib/examples/helloworld/model/Edge.java" xlink:title="&lt;TABLE&gt;">
<polygon fill="none" stroke="black" points="179,-314 179,-331 250,-331 250,-314 179,-314"/>
<text text-anchor="start" x="190" y="-320.5" font-family="Arial" font-size="10.00"> </text>
<text text-anchor="start" x="194" y="-320.5" font-family="Arial" font-size="10.00">e10 :Edge</text>
</a>
<polygon fill="none" stroke="black" points="179,-266 179,-314 250,-314 250,-266 179,-266"/>
<text text-anchor="start" x="184" y="-302" font-family="Arial" font-size="10.00">text = &quot;&quot;</text>
<text text-anchor="start" x="184" y="-288" font-family="Arial" font-size="10.00">name = &quot;e14&quot;</text>
<text text-anchor="start" x="184" y="-274" font-family="Arial" font-size="10.00">parent = &quot;&quot;</text>
</g>
<!-- g1&#45;&#45;e10 -->
<g id="edge6" class="edge"><title>g1&#45;&#45;e10</title>
<path fill="none" stroke="black" d="M307.714,-527.816C266.354,-526.625 199.36,-517.54 167,-474 139.958,-437.615 154.073,-415.451 167,-372 170.788,-359.266 177.623,-346.684 184.929,-335.687"/>
<text text-anchor="middle" x="183.532" y="-343.089" font-family="Arial" font-size="10.00">edges</text>
<text text-anchor="middle" x="298.461" y="-529.109" font-family="Arial" font-size="10.00">graph</text>
</g>
<!-- n11 -->
<g id="node5" class="node"><title>n11</title>
<a xlink:href="../examples/org/sdmlib/examples/helloworld/model/Node.java" xlink:title="&lt;TABLE&gt;">
<polygon fill="none" stroke="black" points="222,-204 222,-221 288,-221 288,-204 222,-204"/>
<text text-anchor="start" x="230.5" y="-210.5" font-family="Arial" font-size="10.00"> </text>
<text text-anchor="start" x="234.5" y="-210.5" font-family="Arial" font-size="10.00">n11 :Node</text>
</a>
<polygon fill="none" stroke="black" points="222,-128 222,-204 288,-204 288,-128 222,-128"/>
<text text-anchor="start" x="227" y="-192" font-family="Arial" font-size="10.00">text = &quot;&quot;</text>
<text text-anchor="start" x="227" y="-178" font-family="Arial" font-size="10.00">name = &quot;n5&quot;</text>
<text text-anchor="start" x="227" y="-164" font-family="Arial" font-size="10.00">parent = &quot;&quot;</text>
<text text-anchor="start" x="227" y="-150" font-family="Arial" font-size="10.00">orig = &quot;&quot;</text>
<text text-anchor="start" x="227" y="-136" font-family="Arial" font-size="10.00">copy = &quot;&quot;</text>
</g>
<!-- g1&#45;&#45;n11 -->
<g id="edge18" class="edge"><title>g1&#45;&#45;n11</title>
<path fill="none" stroke="black" d="M329.931,-509.731C323.006,-499.773 314.935,-486.735 310,-474 292.748,-429.482 272.313,-298.297 261.88,-225.713"/>
<text text-anchor="middle" x="267.372" y="-231.57" font-family="Arial" font-size="10.00">nodes</text>
<text text-anchor="middle" x="321.322" y="-502.142" font-family="Arial" font-size="10.00">graph</text>
</g>
<!-- e12 -->
<g id="node6" class="node"><title>e12</title>
<a xlink:href="../examples/org/sdmlib/examples/helloworld/model/Edge.java" xlink:title="&lt;TABLE&gt;">
<polygon fill="none" stroke="black" points="96,-66 96,-83 167,-83 167,-66 96,-66"/>
<text text-anchor="start" x="107" y="-72.5" font-family="Arial" font-size="10.00"> </text>
<text text-anchor="start" x="111" y="-72.5" font-family="Arial" font-size="10.00">e12 :Edge</text>
</a>
<polygon fill="none" stroke="black" points="96,-4 96,-66 167,-66 167,-4 96,-4"/>
<text text-anchor="start" x="101" y="-54" font-family="Arial" font-size="10.00">text = &quot;&quot;</text>
<text text-anchor="start" x="101" y="-40" font-family="Arial" font-size="10.00">name = &quot;e18&quot;</text>
<text text-anchor="start" x="101" y="-26" font-family="Arial" font-size="10.00">parent = &quot;&quot;</text>
<text text-anchor="start" x="101" y="-12" font-family="Arial" font-size="10.00">tgt = &quot;&quot;</text>
</g>
<!-- g1&#45;&#45;e12 -->
<g id="edge2" class="edge"><title>g1&#45;&#45;e12</title>
<path fill="none" stroke="black" d="M307.689,-522.414C257.068,-515.047 167.778,-498.836 148,-474 57.6873,-360.591 94.7944,-171.873 117.835,-87.7449"/>
<text text-anchor="middle" x="119.69" y="-95.0714" font-family="Arial" font-size="10.00">edges</text>
<text text-anchor="middle" x="298.092" y="-522.726" font-family="Arial" font-size="10.00">graph</text>
</g>
<!-- e13 -->
<g id="node7" class="node"><title>e13</title>
<a xlink:href="../examples/org/sdmlib/examples/helloworld/model/Edge.java" xlink:title="&lt;TABLE&gt;">
<polygon fill="none" stroke="black" points="221,-66 221,-83 292,-83 292,-66 221,-66"/>
<text text-anchor="start" x="232" y="-72.5" font-family="Arial" font-size="10.00"> </text>
<text text-anchor="start" x="236" y="-72.5" font-family="Arial" font-size="10.00">e13 :Edge</text>
</a>
<polygon fill="none" stroke="black" points="221,-4 221,-66 292,-66 292,-4 221,-4"/>
<text text-anchor="start" x="226" y="-54" font-family="Arial" font-size="10.00">text = &quot;&quot;</text>
<text text-anchor="start" x="226" y="-40" font-family="Arial" font-size="10.00">name = &quot;e15&quot;</text>
<text text-anchor="start" x="226" y="-26" font-family="Arial" font-size="10.00">parent = &quot;&quot;</text>
<text text-anchor="start" x="226" y="-12" font-family="Arial" font-size="10.00">tgt = &quot;&quot;</text>
</g>
<!-- g1&#45;&#45;e13 -->
<g id="edge8" class="edge"><title>g1&#45;&#45;e13</title>
<path fill="none" stroke="black" d="M341.825,-509.519C336.881,-436.881 317.439,-160.966 305,-124 300.831,-111.61 294.394,-99.1514 287.543,-87.9083"/>
<text text-anchor="middle" x="295.825" y="-91.0121" font-family="Arial" font-size="10.00">edges</text>
<text text-anchor="middle" x="336.984" y="-498.268" font-family="Arial" font-size="10.00">graph</text>
</g>
<!-- e14 -->
<g id="node8" class="node"><title>e14</title>
<a xlink:href="../examples/org/sdmlib/examples/helloworld/model/Edge.java" xlink:title="&lt;TABLE&gt;">
<polygon fill="none" stroke="black" points="326,-66 326,-83 397,-83 397,-66 326,-66"/>
<text text-anchor="start" x="337" y="-72.5" font-family="Arial" font-size="10.00"> </text>
<text text-anchor="start" x="341" y="-72.5" font-family="Arial" font-size="10.00">e14 :Edge</text>
</a>
<polygon fill="none" stroke="black" points="326,-4 326,-66 397,-66 397,-4 326,-4"/>
<text text-anchor="start" x="331" y="-54" font-family="Arial" font-size="10.00">text = &quot;&quot;</text>
<text text-anchor="start" x="331" y="-40" font-family="Arial" font-size="10.00">name = &quot;e19&quot;</text>
<text text-anchor="start" x="331" y="-26" font-family="Arial" font-size="10.00">parent = &quot;&quot;</text>
<text text-anchor="start" x="331" y="-12" font-family="Arial" font-size="10.00">src = &quot;&quot;</text>
</g>
<!-- g1&#45;&#45;e14 -->
<g id="edge4" class="edge"><title>g1&#45;&#45;e14</title>
<path fill="none" stroke="black" d="M343.641,-509.845C346.183,-441.759 355.609,-189.359 359.403,-87.7677"/>
<text text-anchor="middle" x="363.288" y="-94.4821" font-family="Arial" font-size="10.00">edges</text>
<text text-anchor="middle" x="339.756" y="-498.131" font-family="Arial" font-size="10.00">graph</text>
</g>
<!-- n15 -->
<g id="node9" class="node"><title>n15</title>
<a xlink:href="../examples/org/sdmlib/examples/helloworld/model/Node.java" xlink:title="&lt;TABLE&gt;">
<polygon fill="none" stroke="black" points="398,-452 398,-469 464,-469 464,-452 398,-452"/>
<text text-anchor="start" x="406.5" y="-458.5" font-family="Arial" font-size="10.00"> </text>
<text text-anchor="start" x="410.5" y="-458.5" font-family="Arial" font-size="10.00">n15 :Node</text>
</a>
<polygon fill="none" stroke="black" points="398,-376 398,-452 464,-452 464,-376 398,-376"/>
<text text-anchor="start" x="403" y="-440" font-family="Arial" font-size="10.00">text = &quot;&quot;</text>
<text text-anchor="start" x="403" y="-426" font-family="Arial" font-size="10.00">name = &quot;n6&quot;</text>
<text text-anchor="start" x="403" y="-412" font-family="Arial" font-size="10.00">parent = &quot;&quot;</text>
<text text-anchor="start" x="403" y="-398" font-family="Arial" font-size="10.00">orig = &quot;&quot;</text>
<text text-anchor="start" x="403" y="-384" font-family="Arial" font-size="10.00">copy = &quot;&quot;</text>
</g>
<!-- g1&#45;&#45;n15 -->
<g id="edge20" class="edge"><title>g1&#45;&#45;n15</title>
<path fill="none" stroke="black" d="M357.531,-509.992C366.416,-499.592 378.268,-485.721 389.854,-472.159"/>
<text text-anchor="middle" x="387.18" y="-479.295" font-family="Arial" font-size="10.00">nodes</text>
<text text-anchor="middle" x="360.205" y="-497.856" font-family="Arial" font-size="10.00">graph</text>
</g>
<!-- n16 -->
<g id="node10" class="node"><title>n16</title>
<a xlink:href="../examples/org/sdmlib/examples/helloworld/model/Node.java" xlink:title="&lt;TABLE&gt;">
<polygon fill="none" stroke="black" points="498,-452 498,-469 564,-469 564,-452 498,-452"/>
<text text-anchor="start" x="506.5" y="-458.5" font-family="Arial" font-size="10.00"> </text>
<text text-anchor="start" x="510.5" y="-458.5" font-family="Arial" font-size="10.00">n16 :Node</text>
</a>
<polygon fill="none" stroke="black" points="498,-376 498,-452 564,-452 564,-376 498,-376"/>
<text text-anchor="start" x="503" y="-440" font-family="Arial" font-size="10.00">text = &quot;&quot;</text>
<text text-anchor="start" x="503" y="-426" font-family="Arial" font-size="10.00">name = &quot;n7&quot;</text>
<text text-anchor="start" x="503" y="-412" font-family="Arial" font-size="10.00">parent = &quot;&quot;</text>
<text text-anchor="start" x="503" y="-398" font-family="Arial" font-size="10.00">orig = &quot;&quot;</text>
<text text-anchor="start" x="503" y="-384" font-family="Arial" font-size="10.00">copy = &quot;&quot;</text>
</g>
<!-- g1&#45;&#45;n16 -->
<g id="edge22" class="edge"><title>g1&#45;&#45;n16</title>
<path fill="none" stroke="black" d="M378.072,-517.965C407.165,-509.464 448.823,-494.9 481,-474 483.986,-472.061 486.936,-469.919 489.822,-467.646"/>
<text text-anchor="middle" x="485.282" y="-474.056" font-family="Arial" font-size="10.00">nodes</text>
<text text-anchor="middle" x="385.534" y="-508.807" font-family="Arial" font-size="10.00">graph</text>
</g>
<!-- n17 -->
<g id="node11" class="node"><title>n17</title>
<a xlink:href="../examples/org/sdmlib/examples/helloworld/model/Node.java" xlink:title="&lt;TABLE&gt;">
<polygon fill="none" stroke="black" points="636,-452 636,-469 702,-469 702,-452 636,-452"/>
<text text-anchor="start" x="644.5" y="-458.5" font-family="Arial" font-size="10.00"> </text>
<text text-anchor="start" x="648.5" y="-458.5" font-family="Arial" font-size="10.00">n17 :Node</text>
</a>
<polygon fill="none" stroke="black" points="636,-376 636,-452 702,-452 702,-376 636,-376"/>
<text text-anchor="start" x="641" y="-440" font-family="Arial" font-size="10.00">text = &quot;&quot;</text>
<text text-anchor="start" x="641" y="-426" font-family="Arial" font-size="10.00">name = &quot;n8&quot;</text>
<text text-anchor="start" x="641" y="-412" font-family="Arial" font-size="10.00">parent = &quot;&quot;</text>
<text text-anchor="start" x="641" y="-398" font-family="Arial" font-size="10.00">orig = &quot;&quot;</text>
<text text-anchor="start" x="641" y="-384" font-family="Arial" font-size="10.00">copy = &quot;&quot;</text>
</g>
<!-- g1&#45;&#45;n17 -->
<g id="edge24" class="edge"><title>g1&#45;&#45;n17</title>
<path fill="none" stroke="black" d="M378.297,-526.092C431.953,-523.429 536.032,-513.162 614,-474 618.728,-471.625 623.352,-468.729 627.785,-465.538"/>
<text text-anchor="middle" x="622.841" y="-471.731" font-family="Arial" font-size="10.00">nodes</text>
<text text-anchor="middle" x="387.091" y="-518.832" font-family="Arial" font-size="10.00">graph</text>
</g>
<!-- e18 -->
<g id="node12" class="node"><title>e18</title>
<a xlink:href="../examples/org/sdmlib/examples/helloworld/model/Edge.java" xlink:title="&lt;TABLE&gt;">
<polygon fill="none" stroke="black" points="573,-314 573,-331 644,-331 644,-314 573,-314"/>
<text text-anchor="start" x="584" y="-320.5" font-family="Arial" font-size="10.00"> </text>
<text text-anchor="start" x="588" y="-320.5" font-family="Arial" font-size="10.00">e18 :Edge</text>
</a>
<polygon fill="none" stroke="black" points="573,-266 573,-314 644,-314 644,-266 573,-266"/>
<text text-anchor="start" x="578" y="-302" font-family="Arial" font-size="10.00">text = &quot;&quot;</text>
<text text-anchor="start" x="578" y="-288" font-family="Arial" font-size="10.00">name = &quot;e16&quot;</text>
<text text-anchor="start" x="578" y="-274" font-family="Arial" font-size="10.00">parent = &quot;&quot;</text>
</g>
<!-- g1&#45;&#45;e18 -->
<g id="edge10" class="edge"><title>g1&#45;&#45;e18</title>
<path fill="none" stroke="black" d="M378.224,-523.962C437.577,-518.09 553.722,-503.116 581,-474 615.695,-436.967 616.747,-374.799 613.2,-335.665"/>
<text text-anchor="middle" x="618.07" y="-341.899" font-family="Arial" font-size="10.00">edges</text>
<text text-anchor="middle" x="386.795" y="-516.309" font-family="Arial" font-size="10.00">graph</text>
</g>
<!-- e19 -->
<g id="node13" class="node"><title>e19</title>
<a xlink:href="../examples/org/sdmlib/examples/helloworld/model/Edge.java" xlink:title="&lt;TABLE&gt;">
<polygon fill="none" stroke="black" points="694,-314 694,-331 765,-331 765,-314 694,-314"/>
<text text-anchor="start" x="705" y="-320.5" font-family="Arial" font-size="10.00"> </text>
<text text-anchor="start" x="709" y="-320.5" font-family="Arial" font-size="10.00">e19 :Edge</text>
</a>
<polygon fill="none" stroke="black" points="694,-266 694,-314 765,-314 765,-266 694,-266"/>
<text text-anchor="start" x="699" y="-302" font-family="Arial" font-size="10.00">text = &quot;&quot;</text>
<text text-anchor="start" x="699" y="-288" font-family="Arial" font-size="10.00">name = &quot;e17&quot;</text>
<text text-anchor="start" x="699" y="-274" font-family="Arial" font-size="10.00">parent = &quot;&quot;</text>
</g>
<!-- g1&#45;&#45;e19 -->
<g id="edge12" class="edge"><title>g1&#45;&#45;e19</title>
<path fill="none" stroke="black" d="M378.222,-527.454C462.771,-527.732 673.569,-523.349 719,-474 753.02,-437.046 747.125,-374.855 738.775,-335.694"/>
<text text-anchor="middle" x="744.644" y="-341.291" font-family="Arial" font-size="10.00">edges</text>
<text text-anchor="middle" x="387.271" y="-520.697" font-family="Arial" font-size="10.00">graph</text>
</g>
<!-- n9&#45;&#45;e10 -->
<g id="edge26" class="edge"><title>n9&#45;&#45;e10</title>
<path fill="none" stroke="black" d="M215.78,-372.378C215.478,-360.108 215.161,-347.2 214.879,-335.739"/>
<text text-anchor="middle" x="219.327" y="-342.195" font-family="Arial" font-size="10.00">outEdges</text>
<text text-anchor="middle" x="211.332" y="-360.921" font-family="Arial" font-size="10.00">src</text>
</g>
<!-- e10&#45;&#45;n11 -->
<g id="edge28" class="edge"><title>e10&#45;&#45;n11</title>
<path fill="none" stroke="black" d="M225.969,-262.385C229.798,-250.991 234.111,-238.159 238.217,-225.94"/>
<text text-anchor="middle" x="239.336" y="-233.377" font-family="Arial" font-size="10.00">tgt</text>
<text text-anchor="middle" x="224.85" y="-249.947" font-family="Arial" font-size="10.00">inEdges</text>
</g>
<!-- n11&#45;&#45;e12 -->
<g id="edge32" class="edge"><title>n11&#45;&#45;e12</title>
<path fill="none" stroke="black" d="M213.71,-131.045C200.324,-117.119 185.483,-101.68 172.11,-87.7676"/>
<text text-anchor="middle" x="181.437" y="-88.8728" font-family="Arial" font-size="10.00">outEdges</text>
<text text-anchor="middle" x="204.382" y="-124.94" font-family="Arial" font-size="10.00">src</text>
</g>
<!-- n11&#45;&#45;e13 -->
<g id="edge34" class="edge"><title>n11&#45;&#45;e13</title>
<path fill="none" stroke="black" d="M255.384,-124.494C255.477,-112.415 255.577,-99.5937 255.668,-87.8543"/>
<text text-anchor="middle" x="259.824" y="-94.4499" font-family="Arial" font-size="10.00">outEdges</text>
<text text-anchor="middle" x="251.228" y="-112.899" font-family="Arial" font-size="10.00">src</text>
</g>
<!-- n11&#45;&#45;e14 -->
<g id="edge30" class="edge"><title>n11&#45;&#45;e14</title>
<path fill="none" stroke="black" d="M295.679,-124.494C305.604,-112.415 316.14,-99.5937 325.786,-87.8543"/>
<text text-anchor="middle" x="323.298" y="-95.0397" font-family="Arial" font-size="10.00">inEdges</text>
<text text-anchor="middle" x="298.168" y="-112.309" font-family="Arial" font-size="10.00">tgt</text>
</g>
<!-- n17&#45;&#45;e18 -->
<g id="edge36" class="edge"><title>n17&#45;&#45;e18</title>
<path fill="none" stroke="black" d="M644.189,-372.378C638.054,-360.108 631.6,-347.2 625.869,-335.739"/>
<text text-anchor="middle" x="633.702" y="-339.455" font-family="Arial" font-size="10.00">inEdges_outEdges</text>
<text text-anchor="middle" x="636.356" y="-363.662" font-family="Arial" font-size="10.00">tgt_src</text>
</g>
<!-- n17&#45;&#45;e19 -->
<g id="edge38" class="edge"><title>n17&#45;&#45;e19</title>
<path fill="none" stroke="black" d="M693.404,-372.378C699.439,-360.108 705.787,-347.2 711.424,-335.739"/>
<text text-anchor="middle" x="711.216" y="-343.236" font-family="Arial" font-size="10.00">inEdges_outEdges</text>
<text text-anchor="middle" x="693.612" y="-359.88" font-family="Arial" font-size="10.00">tgt_src</text>
</g>
</g>
</svg>
