<?xml version="1.0" encoding="UTF-8" standalone="no"?>
<!DOCTYPE svg PUBLIC "-//W3C//DTD SVG 1.1//EN"
 "http://www.w3.org/Graphics/SVG/1.1/DTD/svg11.dtd">
<!-- Generated by graphviz version 2.28.0 (20110507.0327)
 -->
<!-- Title: ObjectDiagram Pages: 1 -->
<svg width="269pt" height="164pt"
 viewBox="0.00 0.00 269.00 164.00" xmlns="http://www.w3.org/2000/svg" xmlns:xlink="http://www.w3.org/1999/xlink">
<g id="graph1" class="graph" transform="scale(1 1) rotate(0) translate(4 160)">
<title>ObjectDiagram</title>
<polygon fill="white" stroke="white" points="-4,5 -4,-160 266,-160 266,5 -4,5"/>
<!-- g1 -->
<g id="node1" class="node"><title>g1</title>
<polygon fill="deepskyblue" stroke="deepskyblue" points="88.5,-100.5 88.5,-151.5 163.5,-151.5 163.5,-100.5 88.5,-100.5"/>
<text text-anchor="start" x="127" y="-141.5" font-family="Times New Roman,serif" font-size="10.00" fill="green">«create»</text>
<polygon fill="none" stroke="green" points="89,-120 89,-136 164,-136 164,-120 89,-120"/>
<text text-anchor="start" x="92.5" y="-126" font-family="Times New Roman,serif" font-size="10.00"> </text>
<text text-anchor="start" x="95.5" y="-126" font-family="Times New Roman,serif" font-size="10.00" fill="green"> g1 :GreetingPO </text>
<polygon fill="none" stroke="green" points="89,-100 89,-120 164,-120 164,-100 89,-100"/>
<text text-anchor="start" x="124" y="-108" font-family="Times New Roman,serif" font-size="10.00"> &#160;</text>
</g>
<!-- g2 -->
<g id="node2" class="node"><title>g2</title>
<polygon fill="deepskyblue" stroke="deepskyblue" points="7.5,-4.5 7.5,-55.5 104.5,-55.5 104.5,-4.5 7.5,-4.5"/>
<text text-anchor="start" x="72" y="-45.5" font-family="Times New Roman,serif" font-size="10.00" fill="green">«create»</text>
<polygon fill="none" stroke="green" points="8,-24 8,-40 105,-40 105,-24 8,-24"/>
<text text-anchor="start" x="11.5" y="-30" font-family="Times New Roman,serif" font-size="10.00"> </text>
<text text-anchor="start" x="14.5" y="-30" font-family="Times New Roman,serif" font-size="10.00" fill="green"> g2 :GreetingMessagePO </text>
<polygon fill="none" stroke="green" points="8,-4 8,-24 105,-24 105,-4 8,-4"/>
<text text-anchor="start" x="28" y="-12" font-family="Times New Roman,serif" font-size="10.00" fill="green"> text := &quot;Hello&quot; </text>
</g>
<!-- g1&#45;&#45;g2 -->
<g id="edge2" class="edge"><title>g1&#45;&#45;g2</title>
<path fill="none" stroke="green" d="M104.617,-96.2861C95.9327,-84.624 85.9229,-71.1822 77.2517,-59.538"/>
<text text-anchor="middle" x="86.0544" y="-61.7829" font-family="Times New Roman,serif" font-size="10.00" fill="green">greetingMessage</text>
</g>
<!-- p3 -->
<g id="node3" class="node"><title>p3</title>
<polygon fill="deepskyblue" stroke="deepskyblue" points="138.5,-4.5 138.5,-55.5 253.5,-55.5 253.5,-4.5 138.5,-4.5"/>
<text text-anchor="start" x="221" y="-45.5" font-family="Times New Roman,serif" font-size="10.00" fill="green">«create»</text>
<polygon fill="none" stroke="green" points="139,-24 139,-40 254,-40 254,-24 139,-24"/>
<text text-anchor="start" x="168" y="-30" font-family="Times New Roman,serif" font-size="10.00"> </text>
<text text-anchor="start" x="171" y="-30" font-family="Times New Roman,serif" font-size="10.00" fill="green"> p3 :PersonPO </text>
<polygon fill="none" stroke="green" points="139,-4 139,-24 254,-24 254,-4 139,-4"/>
<text text-anchor="start" x="144.5" y="-12" font-family="Times New Roman,serif" font-size="10.00" fill="green"> name := &quot;TTC Participants&quot; </text>
</g>
<!-- g1&#45;&#45;p3 -->
<g id="edge4" class="edge"><title>g1&#45;&#45;p3</title>
<path fill="none" stroke="green" d="M147.383,-96.2861C156.067,-84.624 166.077,-71.1822 174.748,-59.538"/>
<text text-anchor="middle" x="172.725" y="-66.8312" font-family="Times New Roman,serif" font-size="10.00" fill="green">person</text>
</g>
</g>
</svg>
