<?xml version="1.0" encoding="UTF-8" standalone="no"?>
<!DOCTYPE svg PUBLIC "-//W3C//DTD SVG 1.1//EN"
 "http://www.w3.org/Graphics/SVG/1.1/DTD/svg11.dtd">
<!-- Generated by graphviz version 2.28.0 (20110507.0327)
 -->
<!-- Title: ObjectDiagram Pages: 1 -->
<svg width="233pt" height="164pt"
 viewBox="0.00 0.00 233.00 164.00" xmlns="http://www.w3.org/2000/svg" xmlns:xlink="http://www.w3.org/1999/xlink">
<g id="graph1" class="graph" transform="scale(1 1) rotate(0) translate(4 160)">
<title>ObjectDiagram</title>
<polygon fill="white" stroke="white" points="-4,5 -4,-160 230,-160 230,5 -4,5"/>
<!-- g1 -->
<g id="node1" class="node"><title>g1</title>
<polygon fill="deepskyblue" stroke="deepskyblue" points="81,-100.5 81,-151.5 141,-151.5 141,-100.5 81,-100.5"/>
<text text-anchor="start" x="113" y="-141.5" font-family="Times New Roman,serif" font-size="10.00" fill="green">«create»</text>
<polygon fill="none" stroke="green" points="81,-120 81,-136 141,-136 141,-120 81,-120"/>
<text text-anchor="start" x="84.5" y="-126" font-family="Times New Roman,serif" font-size="10.00"> </text>
<text text-anchor="start" x="87.5" y="-126" font-family="Times New Roman,serif" font-size="10.00" fill="green"> g1 :GreetingPO </text>
<polygon fill="none" stroke="green" points="81,-100 81,-120 141,-120 141,-100 81,-100"/>
<text text-anchor="start" x="108.5" y="-108" font-family="Times New Roman,serif" font-size="10.00"> &#160;</text>
</g>
<!-- g2 -->
<g id="node2" class="node"><title>g2</title>
<polygon fill="deepskyblue" stroke="deepskyblue" points="7.5,-4.5 7.5,-55.5 92.5,-55.5 92.5,-4.5 7.5,-4.5"/>
<text text-anchor="start" x="65" y="-45.5" font-family="Times New Roman,serif" font-size="10.00" fill="green">«create»</text>
<polygon fill="none" stroke="green" points="8,-24 8,-40 93,-40 93,-24 8,-24"/>
<text text-anchor="start" x="11.5" y="-30" font-family="Times New Roman,serif" font-size="10.00"> </text>
<text text-anchor="start" x="14.5" y="-30" font-family="Times New Roman,serif" font-size="10.00" fill="green"> g2 :GreetingMessagePO </text>
<polygon fill="none" stroke="green" points="8,-4 8,-24 93,-24 93,-4 8,-4"/>
<text text-anchor="start" x="28.5" y="-12" font-family="Times New Roman,serif" font-size="10.00" fill="green"> text := &quot;Hello&quot; </text>
</g>
<!-- g1&#45;&#45;g2 -->
<g id="edge2" class="edge"><title>g1&#45;&#45;g2</title>
<path fill="none" stroke="green" d="M92.3665,-96.2861C84.7985,-84.624 76.0757,-71.1822 68.5194,-59.538"/>
<text text-anchor="middle" x="76.9981" y="-62.34" font-family="Times New Roman,serif" font-size="10.00" fill="green">greetingMessage</text>
</g>
<!-- p3 -->
<g id="node3" class="node"><title>p3</title>
<polygon fill="deepskyblue" stroke="deepskyblue" points="126.5,-4.5 126.5,-55.5 217.5,-55.5 217.5,-4.5 126.5,-4.5"/>
<text text-anchor="start" x="190" y="-45.5" font-family="Times New Roman,serif" font-size="10.00" fill="green">«create»</text>
<polygon fill="none" stroke="green" points="127,-24 127,-40 218,-40 218,-24 127,-24"/>
<text text-anchor="start" x="148.5" y="-30" font-family="Times New Roman,serif" font-size="10.00"> </text>
<text text-anchor="start" x="151.5" y="-30" font-family="Times New Roman,serif" font-size="10.00" fill="green"> p3 :PersonPO </text>
<polygon fill="none" stroke="green" points="127,-4 127,-24 218,-24 218,-4 127,-4"/>
<text text-anchor="start" x="132.5" y="-12" font-family="Times New Roman,serif" font-size="10.00" fill="green"> name := &quot;TTC Participants&quot; </text>
</g>
<!-- g1&#45;&#45;p3 -->
<g id="edge4" class="edge"><title>g1&#45;&#45;p3</title>
<path fill="none" stroke="green" d="M129.633,-96.2861C137.201,-84.624 145.924,-71.1822 153.481,-59.538"/>
<text text-anchor="middle" x="152.092" y="-66.9412" font-family="Times New Roman,serif" font-size="10.00" fill="green">person</text>
</g>
</g>
</svg>
