<?xml version="1.0" encoding="UTF-8" standalone="no"?>
<!DOCTYPE svg PUBLIC "-//W3C//DTD SVG 1.1//EN"
 "http://www.w3.org/Graphics/SVG/1.1/DTD/svg11.dtd">
<!-- Generated by graphviz version 2.28.0 (20110507.0327)
 -->
<!-- Title: ObjectDiagram Pages: 1 -->
<svg width="927pt" height="1298pt"
 viewBox="0.00 0.00 926.91 1298.00" xmlns="http://www.w3.org/2000/svg" xmlns:xlink="http://www.w3.org/1999/xlink">
<g id="graph1" class="graph" transform="scale(1 1) rotate(0) translate(4 1294)">
<title>ObjectDiagram</title>
<polygon fill="white" stroke="white" points="-4,5 -4,-1294 923.913,-1294 923.913,5 -4,5"/>
<!-- g134 -->
<g id="node1" class="node"><title>g134</title>
<a xlink:href="../examples/org/sdmlib/examples/helloworld/Graph.java" xlink:title="&lt;TABLE&gt;">
<polygon fill="none" stroke="black" points="362.913,-1263 362.913,-1280 420.913,-1280 420.913,-1263 362.913,-1263"/>
<text text-anchor="start" x="366.413" y="-1269.5" font-family="Times New Roman,serif" font-size="10.00"> </text>
<text text-anchor="start" x="369.413" y="-1269.5" font-family="Times New Roman,serif" font-size="10.00">g134 :Graph</text>
</a>
</g>
<!-- n135 -->
<g id="node2" class="node"><title>n135</title>
<a xlink:href="../examples/org/sdmlib/examples/helloworld/Node.java" xlink:title="&lt;TABLE&gt;">
<polygon fill="none" stroke="black" points="199.913,-1196 199.913,-1213 260.913,-1213 260.913,-1196 199.913,-1196"/>
<text text-anchor="start" x="205.913" y="-1202.5" font-family="Times New Roman,serif" font-size="10.00"> </text>
<text text-anchor="start" x="208.913" y="-1202.5" font-family="Times New Roman,serif" font-size="10.00">n135 :Node</text>
</a>
<polygon fill="none" stroke="black" points="199.913,-1120 199.913,-1196 260.913,-1196 260.913,-1120 199.913,-1120"/>
<text text-anchor="start" x="204.913" y="-1184" font-family="Times New Roman,serif" font-size="10.00">name = &quot;n1&quot;</text>
<text text-anchor="start" x="204.913" y="-1170" font-family="Times New Roman,serif" font-size="10.00">orig = &quot;&quot;</text>
<text text-anchor="start" x="204.913" y="-1156" font-family="Times New Roman,serif" font-size="10.00">copy = &quot;&quot;</text>
<text text-anchor="start" x="204.913" y="-1142" font-family="Times New Roman,serif" font-size="10.00">text = &quot;&quot;</text>
<text text-anchor="start" x="204.913" y="-1128" font-family="Times New Roman,serif" font-size="10.00">parent = &quot;&quot;</text>
</g>
<!-- g134&#45;&#45;n135 -->
<g id="edge2" class="edge"><title>g134&#45;&#45;n135</title>
<path fill="none" stroke="black" d="M354.796,-1256.31C332.965,-1246.87 305.335,-1233.49 282.913,-1218 278.021,-1214.62 273.139,-1210.8 268.428,-1206.81"/>
<text text-anchor="middle" x="278.085" y="-1206.9" font-family="Times New Roman,serif" font-size="10.00">nodes</text>
<text text-anchor="middle" x="344.798" y="-1254.03" font-family="Times New Roman,serif" font-size="10.00">graph</text>
</g>
<!-- e136 -->
<g id="node3" class="node"><title>e136</title>
<a xlink:href="../examples/org/sdmlib/examples/helloworld/Edge.java" xlink:title="&lt;TABLE&gt;">
<polygon fill="none" stroke="black" points="233.913,-1058 233.913,-1075 298.913,-1075 298.913,-1058 233.913,-1058"/>
<text text-anchor="start" x="243.413" y="-1064.5" font-family="Times New Roman,serif" font-size="10.00"> </text>
<text text-anchor="start" x="246.413" y="-1064.5" font-family="Times New Roman,serif" font-size="10.00">e136 :Edge</text>
</a>
<polygon fill="none" stroke="black" points="233.913,-1010 233.913,-1058 298.913,-1058 298.913,-1010 233.913,-1010"/>
<text text-anchor="start" x="238.913" y="-1046" font-family="Times New Roman,serif" font-size="10.00">name = &quot;e10&quot;</text>
<text text-anchor="start" x="238.913" y="-1032" font-family="Times New Roman,serif" font-size="10.00">text = &quot;&quot;</text>
<text text-anchor="start" x="238.913" y="-1018" font-family="Times New Roman,serif" font-size="10.00">parent = &quot;&quot;</text>
</g>
<!-- g134&#45;&#45;e136 -->
<g id="edge22" class="edge"><title>g134&#45;&#45;e136</title>
<path fill="none" stroke="black" d="M360.71,-1253.83C346.796,-1244.79 331.25,-1232.54 320.913,-1218 290.998,-1175.91 276.881,-1116.87 270.571,-1079.54"/>
<text text-anchor="middle" x="276.342" y="-1085.21" font-family="Times New Roman,serif" font-size="10.00">edges</text>
<text text-anchor="middle" x="350.824" y="-1249.83" font-family="Times New Roman,serif" font-size="10.00">graph</text>
</g>
<!-- n137 -->
<g id="node4" class="node"><title>n137</title>
<a xlink:href="../examples/org/sdmlib/examples/helloworld/Node.java" xlink:title="&lt;TABLE&gt;">
<polygon fill="none" stroke="black" points="313.913,-948 313.913,-965 374.913,-965 374.913,-948 313.913,-948"/>
<text text-anchor="start" x="319.913" y="-954.5" font-family="Times New Roman,serif" font-size="10.00"> </text>
<text text-anchor="start" x="322.913" y="-954.5" font-family="Times New Roman,serif" font-size="10.00">n137 :Node</text>
</a>
<polygon fill="none" stroke="black" points="313.913,-872 313.913,-948 374.913,-948 374.913,-872 313.913,-872"/>
<text text-anchor="start" x="318.913" y="-936" font-family="Times New Roman,serif" font-size="10.00">name = &quot;n2&quot;</text>
<text text-anchor="start" x="318.913" y="-922" font-family="Times New Roman,serif" font-size="10.00">orig = &quot;&quot;</text>
<text text-anchor="start" x="318.913" y="-908" font-family="Times New Roman,serif" font-size="10.00">copy = &quot;&quot;</text>
<text text-anchor="start" x="318.913" y="-894" font-family="Times New Roman,serif" font-size="10.00">text = &quot;&quot;</text>
<text text-anchor="start" x="318.913" y="-880" font-family="Times New Roman,serif" font-size="10.00">parent = &quot;&quot;</text>
</g>
<!-- g134&#45;&#45;n137 -->
<g id="edge4" class="edge"><title>g134&#45;&#45;n137</title>
<path fill="none" stroke="black" d="M389.533,-1253.59C382.496,-1202.14 361.602,-1049.35 350.702,-969.644"/>
<text text-anchor="middle" x="356.117" y="-975.551" font-family="Times New Roman,serif" font-size="10.00">nodes</text>
<text text-anchor="middle" x="384.118" y="-1242.69" font-family="Times New Roman,serif" font-size="10.00">graph</text>
</g>
<!-- e138 -->
<g id="node5" class="node"><title>e138</title>
<a xlink:href="../examples/org/sdmlib/examples/helloworld/Edge.java" xlink:title="&lt;TABLE&gt;">
<polygon fill="none" stroke="black" points="319.913,-810 319.913,-827 384.913,-827 384.913,-810 319.913,-810"/>
<text text-anchor="start" x="329.413" y="-816.5" font-family="Times New Roman,serif" font-size="10.00"> </text>
<text text-anchor="start" x="332.413" y="-816.5" font-family="Times New Roman,serif" font-size="10.00">e138 :Edge</text>
</a>
<polygon fill="none" stroke="black" points="319.913,-762 319.913,-810 384.913,-810 384.913,-762 319.913,-762"/>
<text text-anchor="start" x="324.913" y="-798" font-family="Times New Roman,serif" font-size="10.00">name = &quot;e11&quot;</text>
<text text-anchor="start" x="324.913" y="-784" font-family="Times New Roman,serif" font-size="10.00">text = &quot;&quot;</text>
<text text-anchor="start" x="324.913" y="-770" font-family="Times New Roman,serif" font-size="10.00">parent = &quot;&quot;</text>
</g>
<!-- g134&#45;&#45;e138 -->
<g id="edge24" class="edge"><title>g134&#45;&#45;e138</title>
<path fill="none" stroke="black" d="M394.835,-1253.73C403.778,-1197.21 427.989,-1013.06 390.913,-868 387.71,-855.466 381.856,-842.746 375.641,-831.554"/>
<text text-anchor="middle" x="383.685" y="-834.994" font-family="Times New Roman,serif" font-size="10.00">edges</text>
<text text-anchor="middle" x="391.987" y="-1241.65" font-family="Times New Roman,serif" font-size="10.00">graph</text>
</g>
<!-- n139 -->
<g id="node6" class="node"><title>n139</title>
<a xlink:href="../examples/org/sdmlib/examples/helloworld/Node.java" xlink:title="&lt;TABLE&gt;">
<polygon fill="none" stroke="black" points="321.913,-700 321.913,-717 382.913,-717 382.913,-700 321.913,-700"/>
<text text-anchor="start" x="327.913" y="-706.5" font-family="Times New Roman,serif" font-size="10.00"> </text>
<text text-anchor="start" x="330.913" y="-706.5" font-family="Times New Roman,serif" font-size="10.00">n139 :Node</text>
</a>
<polygon fill="none" stroke="black" points="321.913,-624 321.913,-700 382.913,-700 382.913,-624 321.913,-624"/>
<text text-anchor="start" x="326.913" y="-688" font-family="Times New Roman,serif" font-size="10.00">name = &quot;n3&quot;</text>
<text text-anchor="start" x="326.913" y="-674" font-family="Times New Roman,serif" font-size="10.00">orig = &quot;&quot;</text>
<text text-anchor="start" x="326.913" y="-660" font-family="Times New Roman,serif" font-size="10.00">copy = &quot;&quot;</text>
<text text-anchor="start" x="326.913" y="-646" font-family="Times New Roman,serif" font-size="10.00">text = &quot;&quot;</text>
<text text-anchor="start" x="326.913" y="-632" font-family="Times New Roman,serif" font-size="10.00">parent = &quot;&quot;</text>
</g>
<!-- g134&#45;&#45;n139 -->
<g id="edge6" class="edge"><title>g134&#45;&#45;n139</title>
<path fill="none" stroke="black" d="M402.286,-1253.91C407.993,-1243.79 414.743,-1230.54 418.913,-1218 443.669,-1143.53 448.913,-1122.47 448.913,-1044 448.913,-1044 448.913,-1044 448.913,-918 448.913,-845.924 412.43,-769.729 384.213,-721.577"/>
<text text-anchor="middle" x="392.365" y="-724.869" font-family="Times New Roman,serif" font-size="10.00">nodes</text>
<text text-anchor="middle" x="403.003" y="-1241.43" font-family="Times New Roman,serif" font-size="10.00">graph</text>
</g>
<!-- e140 -->
<g id="node7" class="node"><title>e140</title>
<a xlink:href="../examples/org/sdmlib/examples/helloworld/Edge.java" xlink:title="&lt;TABLE&gt;">
<polygon fill="none" stroke="black" points="157.913,-562 157.913,-579 222.913,-579 222.913,-562 157.913,-562"/>
<text text-anchor="start" x="167.413" y="-568.5" font-family="Times New Roman,serif" font-size="10.00"> </text>
<text text-anchor="start" x="170.413" y="-568.5" font-family="Times New Roman,serif" font-size="10.00">e140 :Edge</text>
</a>
<polygon fill="none" stroke="black" points="157.913,-514 157.913,-562 222.913,-562 222.913,-514 157.913,-514"/>
<text text-anchor="start" x="162.913" y="-550" font-family="Times New Roman,serif" font-size="10.00">name = &quot;e12&quot;</text>
<text text-anchor="start" x="162.913" y="-536" font-family="Times New Roman,serif" font-size="10.00">text = &quot;&quot;</text>
<text text-anchor="start" x="162.913" y="-522" font-family="Times New Roman,serif" font-size="10.00">parent = &quot;&quot;</text>
</g>
<!-- g134&#45;&#45;e140 -->
<g id="edge26" class="edge"><title>g134&#45;&#45;e140</title>
<path fill="none" stroke="black" d="M354.675,-1266.62C300.679,-1259.47 204.605,-1243.48 181.913,-1218 130.039,-1159.74 158.913,-1122.01 158.913,-1044 158.913,-1044 158.913,-1044 158.913,-794 158.913,-718.669 173.4,-631.374 182.567,-583.674"/>
<text text-anchor="middle" x="185.054" y="-590.86" font-family="Times New Roman,serif" font-size="10.00">edges</text>
<text text-anchor="middle" x="345.117" y="-1267.06" font-family="Times New Roman,serif" font-size="10.00">graph</text>
</g>
<!-- e141 -->
<g id="node8" class="node"><title>e141</title>
<a xlink:href="../examples/org/sdmlib/examples/helloworld/Edge.java" xlink:title="&lt;TABLE&gt;">
<polygon fill="none" stroke="black" points="256.913,-562 256.913,-579 321.913,-579 321.913,-562 256.913,-562"/>
<text text-anchor="start" x="266.413" y="-568.5" font-family="Times New Roman,serif" font-size="10.00"> </text>
<text text-anchor="start" x="269.413" y="-568.5" font-family="Times New Roman,serif" font-size="10.00">e141 :Edge</text>
</a>
<polygon fill="none" stroke="black" points="256.913,-514 256.913,-562 321.913,-562 321.913,-514 256.913,-514"/>
<text text-anchor="start" x="261.913" y="-550" font-family="Times New Roman,serif" font-size="10.00">name = &quot;e13&quot;</text>
<text text-anchor="start" x="261.913" y="-536" font-family="Times New Roman,serif" font-size="10.00">text = &quot;&quot;</text>
<text text-anchor="start" x="261.913" y="-522" font-family="Times New Roman,serif" font-size="10.00">parent = &quot;&quot;</text>
</g>
<!-- g134&#45;&#45;e141 -->
<g id="edge28" class="edge"><title>g134&#45;&#45;e141</title>
<path fill="none" stroke="black" d="M383.102,-1253.66C378.165,-1243.46 372.165,-1230.21 367.913,-1218 335.974,-1126.28 349.608,-1096.71 314.913,-1006 308.45,-989.102 300.409,-987.524 295.913,-970 260.228,-830.887 275.083,-657.422 284.006,-583.752"/>
<text text-anchor="middle" x="287.196" y="-590.73" font-family="Times New Roman,serif" font-size="10.00">edges</text>
<text text-anchor="middle" x="375.371" y="-1244.82" font-family="Times New Roman,serif" font-size="10.00">graph</text>
</g>
<!-- n142 -->
<g id="node9" class="node"><title>n142</title>
<a xlink:href="../examples/org/sdmlib/examples/helloworld/Node.java" xlink:title="&lt;TABLE&gt;">
<polygon fill="none" stroke="black" points="119.913,-452 119.913,-469 180.913,-469 180.913,-452 119.913,-452"/>
<text text-anchor="start" x="125.913" y="-458.5" font-family="Times New Roman,serif" font-size="10.00"> </text>
<text text-anchor="start" x="128.913" y="-458.5" font-family="Times New Roman,serif" font-size="10.00">n142 :Node</text>
</a>
<polygon fill="none" stroke="black" points="119.913,-376 119.913,-452 180.913,-452 180.913,-376 119.913,-376"/>
<text text-anchor="start" x="124.913" y="-440" font-family="Times New Roman,serif" font-size="10.00">name = &quot;n4&quot;</text>
<text text-anchor="start" x="124.913" y="-426" font-family="Times New Roman,serif" font-size="10.00">orig = &quot;&quot;</text>
<text text-anchor="start" x="124.913" y="-412" font-family="Times New Roman,serif" font-size="10.00">copy = &quot;&quot;</text>
<text text-anchor="start" x="124.913" y="-398" font-family="Times New Roman,serif" font-size="10.00">text = &quot;&quot;</text>
<text text-anchor="start" x="124.913" y="-384" font-family="Times New Roman,serif" font-size="10.00">parent = &quot;&quot;</text>
</g>
<!-- g134&#45;&#45;n142 -->
<g id="edge8" class="edge"><title>g134&#45;&#45;n142</title>
<path fill="none" stroke="black" d="M354.669,-1268.04C293.273,-1262.36 174.814,-1247.77 146.913,-1218 93.4409,-1160.95 120.913,-1122.19 120.913,-1044 120.913,-1044 120.913,-1044 120.913,-670 120.913,-601.624 132.1,-523.287 140.578,-473.74"/>
<text text-anchor="middle" x="143.259" y="-480.873" font-family="Times New Roman,serif" font-size="10.00">nodes</text>
<text text-anchor="middle" x="345.234" y="-1268.85" font-family="Times New Roman,serif" font-size="10.00">graph</text>
</g>
<!-- e143 -->
<g id="node10" class="node"><title>e143</title>
<a xlink:href="../examples/org/sdmlib/examples/helloworld/Edge.java" xlink:title="&lt;TABLE&gt;">
<polygon fill="none" stroke="black" points="99.9132,-314 99.9132,-331 164.913,-331 164.913,-314 99.9132,-314"/>
<text text-anchor="start" x="109.413" y="-320.5" font-family="Times New Roman,serif" font-size="10.00"> </text>
<text text-anchor="start" x="112.413" y="-320.5" font-family="Times New Roman,serif" font-size="10.00">e143 :Edge</text>
</a>
<polygon fill="none" stroke="black" points="99.9132,-266 99.9132,-314 164.913,-314 164.913,-266 99.9132,-266"/>
<text text-anchor="start" x="104.913" y="-302" font-family="Times New Roman,serif" font-size="10.00">name = &quot;e14&quot;</text>
<text text-anchor="start" x="104.913" y="-288" font-family="Times New Roman,serif" font-size="10.00">text = &quot;&quot;</text>
<text text-anchor="start" x="104.913" y="-274" font-family="Times New Roman,serif" font-size="10.00">parent = &quot;&quot;</text>
</g>
<!-- g134&#45;&#45;e143 -->
<g id="edge30" class="edge"><title>g134&#45;&#45;e143</title>
<path fill="none" stroke="black" d="M354.894,-1269.21C286.286,-1265.09 143.317,-1252.48 109.913,-1218 55.4636,-1161.79 82.9132,-1122.26 82.9132,-1044 82.9132,-1044 82.9132,-1044 82.9132,-546 82.9132,-468.207 82.533,-447.34 101.913,-372 105.051,-359.803 109.868,-346.966 114.73,-335.564"/>
<text text-anchor="middle" x="115.113" y="-343.056" font-family="Times New Roman,serif" font-size="10.00">edges</text>
<text text-anchor="middle" x="345.57" y="-1270.32" font-family="Times New Roman,serif" font-size="10.00">graph</text>
</g>
<!-- n144 -->
<g id="node11" class="node"><title>n144</title>
<a xlink:href="../examples/org/sdmlib/examples/helloworld/Node.java" xlink:title="&lt;TABLE&gt;">
<polygon fill="none" stroke="black" points="101.913,-204 101.913,-221 162.913,-221 162.913,-204 101.913,-204"/>
<text text-anchor="start" x="107.913" y="-210.5" font-family="Times New Roman,serif" font-size="10.00"> </text>
<text text-anchor="start" x="110.913" y="-210.5" font-family="Times New Roman,serif" font-size="10.00">n144 :Node</text>
</a>
<polygon fill="none" stroke="black" points="101.913,-128 101.913,-204 162.913,-204 162.913,-128 101.913,-128"/>
<text text-anchor="start" x="106.913" y="-192" font-family="Times New Roman,serif" font-size="10.00">name = &quot;n5&quot;</text>
<text text-anchor="start" x="106.913" y="-178" font-family="Times New Roman,serif" font-size="10.00">orig = &quot;&quot;</text>
<text text-anchor="start" x="106.913" y="-164" font-family="Times New Roman,serif" font-size="10.00">copy = &quot;&quot;</text>
<text text-anchor="start" x="106.913" y="-150" font-family="Times New Roman,serif" font-size="10.00">text = &quot;&quot;</text>
<text text-anchor="start" x="106.913" y="-136" font-family="Times New Roman,serif" font-size="10.00">parent = &quot;&quot;</text>
</g>
<!-- g134&#45;&#45;n144 -->
<g id="edge10" class="edge"><title>g134&#45;&#45;n144</title>
<path fill="none" stroke="black" d="M354.819,-1270.09C279.37,-1267.43 111.866,-1257.15 72.9132,-1218 17.6679,-1162.47 44.9132,-1122.33 44.9132,-1044 44.9132,-1044 44.9132,-1044 44.9132,-422 44.9132,-349.012 55.048,-329.864 81.9132,-262 86.7445,-249.796 93.114,-237.258 99.6825,-225.661"/>
<text text-anchor="middle" x="98.942" y="-233.133" font-family="Times New Roman,serif" font-size="10.00">nodes</text>
<text text-anchor="middle" x="345.588" y="-1271.43" font-family="Times New Roman,serif" font-size="10.00">graph</text>
</g>
<!-- e145 -->
<g id="node12" class="node"><title>e145</title>
<a xlink:href="../examples/org/sdmlib/examples/helloworld/Edge.java" xlink:title="&lt;TABLE&gt;">
<polygon fill="none" stroke="black" points="28.9132,-66 28.9132,-83 93.9132,-83 93.9132,-66 28.9132,-66"/>
<text text-anchor="start" x="38.4132" y="-72.5" font-family="Times New Roman,serif" font-size="10.00"> </text>
<text text-anchor="start" x="41.4132" y="-72.5" font-family="Times New Roman,serif" font-size="10.00">e145 :Edge</text>
</a>
<polygon fill="none" stroke="black" points="28.9132,-4 28.9132,-66 93.9132,-66 93.9132,-4 28.9132,-4"/>
<text text-anchor="start" x="33.9132" y="-54" font-family="Times New Roman,serif" font-size="10.00">tgt = &quot;&quot;</text>
<text text-anchor="start" x="33.9132" y="-40" font-family="Times New Roman,serif" font-size="10.00">name = &quot;e18&quot;</text>
<text text-anchor="start" x="33.9132" y="-26" font-family="Times New Roman,serif" font-size="10.00">text = &quot;&quot;</text>
<text text-anchor="start" x="33.9132" y="-12" font-family="Times New Roman,serif" font-size="10.00">parent = &quot;&quot;</text>
</g>
<!-- g134&#45;&#45;e145 -->
<g id="edge18" class="edge"><title>g134&#45;&#45;e145</title>
<path fill="none" stroke="black" d="M354.845,-1270.83C272.793,-1269.63 79.5439,-1262.09 34.9132,-1218 -20.8091,-1162.95 6.91324,-1122.33 6.91324,-1044 6.91324,-1044 6.91324,-1044 6.91324,-298 6.91324,-222.771 30.0309,-137.676 46.0146,-87.831"/>
<text text-anchor="middle" x="47.351" y="-95.2413" font-family="Times New Roman,serif" font-size="10.00">edges</text>
<text text-anchor="middle" x="345.695" y="-1272.36" font-family="Times New Roman,serif" font-size="10.00">graph</text>
</g>
<!-- e146 -->
<g id="node13" class="node"><title>e146</title>
<a xlink:href="../examples/org/sdmlib/examples/helloworld/Edge.java" xlink:title="&lt;TABLE&gt;">
<polygon fill="none" stroke="black" points="325.913,-59 325.913,-76 390.913,-76 390.913,-59 325.913,-59"/>
<text text-anchor="start" x="335.413" y="-65.5" font-family="Times New Roman,serif" font-size="10.00"> </text>
<text text-anchor="start" x="338.413" y="-65.5" font-family="Times New Roman,serif" font-size="10.00">e146 :Edge</text>
</a>
<polygon fill="none" stroke="black" points="325.913,-11 325.913,-59 390.913,-59 390.913,-11 325.913,-11"/>
<text text-anchor="start" x="330.913" y="-47" font-family="Times New Roman,serif" font-size="10.00">name = &quot;e15&quot;</text>
<text text-anchor="start" x="330.913" y="-33" font-family="Times New Roman,serif" font-size="10.00">text = &quot;&quot;</text>
<text text-anchor="start" x="330.913" y="-19" font-family="Times New Roman,serif" font-size="10.00">parent = &quot;&quot;</text>
</g>
<!-- g134&#45;&#45;e146 -->
<g id="edge32" class="edge"><title>g134&#45;&#45;e146</title>
<path fill="none" stroke="black" d="M415.074,-1253.98C426.292,-1244.57 439.011,-1231.96 446.913,-1218 485.992,-1148.94 486.913,-1123.35 486.913,-1044 486.913,-1044 486.913,-1044 486.913,-298 486.913,-212.705 428.001,-127.151 389.801,-80.6411"/>
<text text-anchor="middle" x="398.751" y="-82.6021" font-family="Times New Roman,serif" font-size="10.00">edges</text>
<text text-anchor="middle" x="419.206" y="-1242.37" font-family="Times New Roman,serif" font-size="10.00">graph</text>
</g>
<!-- e147 -->
<g id="node14" class="node"><title>e147</title>
<a xlink:href="../examples/org/sdmlib/examples/helloworld/Edge.java" xlink:title="&lt;TABLE&gt;">
<polygon fill="none" stroke="black" points="458.913,-66 458.913,-83 523.913,-83 523.913,-66 458.913,-66"/>
<text text-anchor="start" x="468.413" y="-72.5" font-family="Times New Roman,serif" font-size="10.00"> </text>
<text text-anchor="start" x="471.413" y="-72.5" font-family="Times New Roman,serif" font-size="10.00">e147 :Edge</text>
</a>
<polygon fill="none" stroke="black" points="458.913,-4 458.913,-66 523.913,-66 523.913,-4 458.913,-4"/>
<text text-anchor="start" x="463.913" y="-54" font-family="Times New Roman,serif" font-size="10.00">src = &quot;&quot;</text>
<text text-anchor="start" x="463.913" y="-40" font-family="Times New Roman,serif" font-size="10.00">name = &quot;e19&quot;</text>
<text text-anchor="start" x="463.913" y="-26" font-family="Times New Roman,serif" font-size="10.00">text = &quot;&quot;</text>
<text text-anchor="start" x="463.913" y="-12" font-family="Times New Roman,serif" font-size="10.00">parent = &quot;&quot;</text>
</g>
<!-- g134&#45;&#45;e147 -->
<g id="edge20" class="edge"><title>g134&#45;&#45;e147</title>
<path fill="none" stroke="black" d="M429.199,-1256.54C446.981,-1247.87 467.117,-1235.15 479.913,-1218 527.673,-1153.97 524.913,-1123.88 524.913,-1044 524.913,-1044 524.913,-1044 524.913,-298 524.913,-223.545 510.271,-137.854 500.204,-87.7396"/>
<text text-anchor="middle" x="506.09" y="-93.3237" font-family="Times New Roman,serif" font-size="10.00">edges</text>
<text text-anchor="middle" x="435.386" y="-1246.19" font-family="Times New Roman,serif" font-size="10.00">graph</text>
</g>
<!-- n148 -->
<g id="node15" class="node"><title>n148</title>
<a xlink:href="../examples/org/sdmlib/examples/helloworld/Node.java" xlink:title="&lt;TABLE&gt;">
<polygon fill="none" stroke="black" points="561.913,-1196 561.913,-1213 622.913,-1213 622.913,-1196 561.913,-1196"/>
<text text-anchor="start" x="567.913" y="-1202.5" font-family="Times New Roman,serif" font-size="10.00"> </text>
<text text-anchor="start" x="570.913" y="-1202.5" font-family="Times New Roman,serif" font-size="10.00">n148 :Node</text>
</a>
<polygon fill="none" stroke="black" points="561.913,-1120 561.913,-1196 622.913,-1196 622.913,-1120 561.913,-1120"/>
<text text-anchor="start" x="566.913" y="-1184" font-family="Times New Roman,serif" font-size="10.00">name = &quot;n6&quot;</text>
<text text-anchor="start" x="566.913" y="-1170" font-family="Times New Roman,serif" font-size="10.00">orig = &quot;&quot;</text>
<text text-anchor="start" x="566.913" y="-1156" font-family="Times New Roman,serif" font-size="10.00">copy = &quot;&quot;</text>
<text text-anchor="start" x="566.913" y="-1142" font-family="Times New Roman,serif" font-size="10.00">text = &quot;&quot;</text>
<text text-anchor="start" x="566.913" y="-1128" font-family="Times New Roman,serif" font-size="10.00">parent = &quot;&quot;</text>
</g>
<!-- g134&#45;&#45;n148 -->
<g id="edge12" class="edge"><title>g134&#45;&#45;n148</title>
<path fill="none" stroke="black" d="M429.129,-1262.14C460.032,-1253.75 504.361,-1239.24 538.913,-1218 543.87,-1214.95 548.757,-1211.39 553.439,-1207.59"/>
<text text-anchor="middle" x="549.02" y="-1214.06" font-family="Times New Roman,serif" font-size="10.00">nodes</text>
<text text-anchor="middle" x="436.717" y="-1253.13" font-family="Times New Roman,serif" font-size="10.00">graph</text>
</g>
<!-- n149 -->
<g id="node16" class="node"><title>n149</title>
<a xlink:href="../examples/org/sdmlib/examples/helloworld/Node.java" xlink:title="&lt;TABLE&gt;">
<polygon fill="none" stroke="black" points="656.913,-1196 656.913,-1213 717.913,-1213 717.913,-1196 656.913,-1196"/>
<text text-anchor="start" x="662.913" y="-1202.5" font-family="Times New Roman,serif" font-size="10.00"> </text>
<text text-anchor="start" x="665.913" y="-1202.5" font-family="Times New Roman,serif" font-size="10.00">n149 :Node</text>
</a>
<polygon fill="none" stroke="black" points="656.913,-1120 656.913,-1196 717.913,-1196 717.913,-1120 656.913,-1120"/>
<text text-anchor="start" x="661.913" y="-1184" font-family="Times New Roman,serif" font-size="10.00">name = &quot;n7&quot;</text>
<text text-anchor="start" x="661.913" y="-1170" font-family="Times New Roman,serif" font-size="10.00">orig = &quot;&quot;</text>
<text text-anchor="start" x="661.913" y="-1156" font-family="Times New Roman,serif" font-size="10.00">copy = &quot;&quot;</text>
<text text-anchor="start" x="661.913" y="-1142" font-family="Times New Roman,serif" font-size="10.00">text = &quot;&quot;</text>
<text text-anchor="start" x="661.913" y="-1128" font-family="Times New Roman,serif" font-size="10.00">parent = &quot;&quot;</text>
</g>
<!-- g134&#45;&#45;n149 -->
<g id="edge14" class="edge"><title>g134&#45;&#45;n149</title>
<path fill="none" stroke="black" d="M429.019,-1269.75C479.509,-1266.6 571.301,-1255.69 638.913,-1218 642.171,-1216.18 645.344,-1214.07 648.405,-1211.77"/>
<text text-anchor="middle" x="643.656" y="-1218.07" font-family="Times New Roman,serif" font-size="10.00">nodes</text>
<text text-anchor="middle" x="437.749" y="-1262.37" font-family="Times New Roman,serif" font-size="10.00">graph</text>
</g>
<!-- n150 -->
<g id="node17" class="node"><title>n150</title>
<a xlink:href="../examples/org/sdmlib/examples/helloworld/Node.java" xlink:title="&lt;TABLE&gt;">
<polygon fill="none" stroke="black" points="790.913,-1196 790.913,-1213 851.913,-1213 851.913,-1196 790.913,-1196"/>
<text text-anchor="start" x="796.913" y="-1202.5" font-family="Times New Roman,serif" font-size="10.00"> </text>
<text text-anchor="start" x="799.913" y="-1202.5" font-family="Times New Roman,serif" font-size="10.00">n150 :Node</text>
</a>
<polygon fill="none" stroke="black" points="790.913,-1120 790.913,-1196 851.913,-1196 851.913,-1120 790.913,-1120"/>
<text text-anchor="start" x="795.913" y="-1184" font-family="Times New Roman,serif" font-size="10.00">name = &quot;n8&quot;</text>
<text text-anchor="start" x="795.913" y="-1170" font-family="Times New Roman,serif" font-size="10.00">orig = &quot;&quot;</text>
<text text-anchor="start" x="795.913" y="-1156" font-family="Times New Roman,serif" font-size="10.00">copy = &quot;&quot;</text>
<text text-anchor="start" x="795.913" y="-1142" font-family="Times New Roman,serif" font-size="10.00">text = &quot;&quot;</text>
<text text-anchor="start" x="795.913" y="-1128" font-family="Times New Roman,serif" font-size="10.00">parent = &quot;&quot;</text>
</g>
<!-- g134&#45;&#45;n150 -->
<g id="edge16" class="edge"><title>g134&#45;&#45;n150</title>
<path fill="none" stroke="black" d="M429.179,-1268.62C511.937,-1262.89 708.426,-1246.6 767.913,-1218 772.93,-1215.59 777.787,-1212.53 782.392,-1209.11"/>
<text text-anchor="middle" x="777.561" y="-1215.37" font-family="Times New Roman,serif" font-size="10.00">nodes</text>
<text text-anchor="middle" x="437.911" y="-1261.25" font-family="Times New Roman,serif" font-size="10.00">graph</text>
</g>
<!-- e151 -->
<g id="node18" class="node"><title>e151</title>
<a xlink:href="../examples/org/sdmlib/examples/helloworld/Edge.java" xlink:title="&lt;TABLE&gt;">
<polygon fill="none" stroke="black" points="730.913,-1058 730.913,-1075 795.913,-1075 795.913,-1058 730.913,-1058"/>
<text text-anchor="start" x="740.413" y="-1064.5" font-family="Times New Roman,serif" font-size="10.00"> </text>
<text text-anchor="start" x="743.413" y="-1064.5" font-family="Times New Roman,serif" font-size="10.00">e151 :Edge</text>
</a>
<polygon fill="none" stroke="black" points="730.913,-1010 730.913,-1058 795.913,-1058 795.913,-1010 730.913,-1010"/>
<text text-anchor="start" x="735.913" y="-1046" font-family="Times New Roman,serif" font-size="10.00">name = &quot;e16&quot;</text>
<text text-anchor="start" x="735.913" y="-1032" font-family="Times New Roman,serif" font-size="10.00">text = &quot;&quot;</text>
<text text-anchor="start" x="735.913" y="-1018" font-family="Times New Roman,serif" font-size="10.00">parent = &quot;&quot;</text>
</g>
<!-- g134&#45;&#45;e151 -->
<g id="edge34" class="edge"><title>g134&#45;&#45;e151</title>
<path fill="none" stroke="black" d="M429.205,-1270.53C508.783,-1268.72 691.453,-1259.98 733.913,-1218 770.174,-1182.15 771.535,-1119.33 768.054,-1079.79"/>
<text text-anchor="middle" x="772.898" y="-1086.03" font-family="Times New Roman,serif" font-size="10.00">edges</text>
<text text-anchor="middle" x="438.141" y="-1263.54" font-family="Times New Roman,serif" font-size="10.00">graph</text>
</g>
<!-- e152 -->
<g id="node19" class="node"><title>e152</title>
<a xlink:href="../examples/org/sdmlib/examples/helloworld/Edge.java" xlink:title="&lt;TABLE&gt;">
<polygon fill="none" stroke="black" points="846.913,-1058 846.913,-1075 911.913,-1075 911.913,-1058 846.913,-1058"/>
<text text-anchor="start" x="856.413" y="-1064.5" font-family="Times New Roman,serif" font-size="10.00"> </text>
<text text-anchor="start" x="859.413" y="-1064.5" font-family="Times New Roman,serif" font-size="10.00">e152 :Edge</text>
</a>
<polygon fill="none" stroke="black" points="846.913,-1010 846.913,-1058 911.913,-1058 911.913,-1010 846.913,-1010"/>
<text text-anchor="start" x="851.913" y="-1046" font-family="Times New Roman,serif" font-size="10.00">name = &quot;e17&quot;</text>
<text text-anchor="start" x="851.913" y="-1032" font-family="Times New Roman,serif" font-size="10.00">text = &quot;&quot;</text>
<text text-anchor="start" x="851.913" y="-1018" font-family="Times New Roman,serif" font-size="10.00">parent = &quot;&quot;</text>
</g>
<!-- g134&#45;&#45;e152 -->
<g id="edge36" class="edge"><title>g134&#45;&#45;e152</title>
<path fill="none" stroke="black" d="M429.197,-1269.56C536.065,-1265.06 837.755,-1249.63 867.913,-1218 902.689,-1181.52 896.882,-1118.89 888.571,-1079.56"/>
<text text-anchor="middle" x="894.424" y="-1085.16" font-family="Times New Roman,serif" font-size="10.00">edges</text>
<text text-anchor="middle" x="438.061" y="-1262.43" font-family="Times New Roman,serif" font-size="10.00">graph</text>
</g>
<!-- n135&#45;&#45;e136 -->
<g id="edge38" class="edge"><title>n135&#45;&#45;e136</title>
<path fill="none" stroke="black" d="M244.556,-1116.38C248.177,-1104.11 251.985,-1091.2 255.367,-1079.74"/>
<text text-anchor="middle" x="256.856" y="-1087.13" font-family="Times New Roman,serif" font-size="10.00">outEdges</text>
<text text-anchor="middle" x="243.067" y="-1103.99" font-family="Times New Roman,serif" font-size="10.00">src</text>
</g>
<!-- n135&#45;&#45;e140 -->
<g id="edge40" class="edge"><title>n135&#45;&#45;e140</title>
<path fill="none" stroke="black" d="M219.29,-1116.32C209.643,-1066.82 196.913,-988.515 196.913,-920 196.913,-920 196.913,-920 196.913,-794 196.913,-719.23 193.642,-631.729 191.572,-583.842"/>
<text text-anchor="middle" x="196.176" y="-590.22" font-family="Times New Roman,serif" font-size="10.00">inEdges</text>
<text text-anchor="middle" x="213.45" y="-1105.7" font-family="Times New Roman,serif" font-size="10.00">tgt</text>
</g>
<!-- e136&#45;&#45;n137 -->
<g id="edge42" class="edge"><title>e136&#45;&#45;n137</title>
<path fill="none" stroke="black" d="M288.684,-1006.38C295.968,-994.991 304.172,-982.159 311.985,-969.94"/>
<text text-anchor="middle" x="310.663" y="-977.352" font-family="Times New Roman,serif" font-size="10.00">tgt</text>
<text text-anchor="middle" x="290.005" y="-993.972" font-family="Times New Roman,serif" font-size="10.00">inEdges</text>
</g>
<!-- n137&#45;&#45;e138 -->
<g id="edge44" class="edge"><title>n137&#45;&#45;e138</title>
<path fill="none" stroke="black" d="M347.167,-868.378C347.972,-856.108 348.818,-843.2 349.57,-831.739"/>
<text text-anchor="middle" x="353.194" y="-838.559" font-family="Times New Roman,serif" font-size="10.00">outEdges</text>
<text text-anchor="middle" x="343.543" y="-856.558" font-family="Times New Roman,serif" font-size="10.00">src</text>
</g>
<!-- e138&#45;&#45;n139 -->
<g id="edge46" class="edge"><title>e138&#45;&#45;n139</title>
<path fill="none" stroke="black" d="M351.913,-758.385C351.913,-746.991 351.913,-734.159 351.913,-721.94"/>
<text text-anchor="middle" x="356.139" y="-728.503" font-family="Times New Roman,serif" font-size="10.00">tgt</text>
<text text-anchor="middle" x="347.687" y="-746.822" font-family="Times New Roman,serif" font-size="10.00">inEdges</text>
</g>
<!-- n139&#45;&#45;e140 -->
<g id="edge48" class="edge"><title>n139&#45;&#45;e140</title>
<path fill="none" stroke="black" d="M313.522,-641.088C288.446,-622.204 255.754,-597.584 230.29,-578.407"/>
<text text-anchor="middle" x="240.072" y="-577.983" font-family="Times New Roman,serif" font-size="10.00">outEdges</text>
<text text-anchor="middle" x="303.739" y="-636.512" font-family="Times New Roman,serif" font-size="10.00">src</text>
</g>
<!-- n139&#45;&#45;e141 -->
<g id="edge50" class="edge"><title>n139&#45;&#45;e141</title>
<path fill="none" stroke="black" d="M326.289,-620.378C319.952,-608.108 313.287,-595.2 307.368,-583.739"/>
<text text-anchor="middle" x="315.282" y="-587.352" font-family="Times New Roman,serif" font-size="10.00">outEdges</text>
<text text-anchor="middle" x="318.375" y="-611.764" font-family="Times New Roman,serif" font-size="10.00">src</text>
</g>
<!-- n139&#45;&#45;e146 -->
<g id="edge52" class="edge"><title>n139&#45;&#45;e146</title>
<path fill="none" stroke="black" d="M353.845,-620.067C355.599,-570.372 357.913,-491.926 357.913,-424 357.913,-424 357.913,-424 357.913,-298 357.913,-220.475 357.913,-129.587 357.913,-80.6139"/>
<text text-anchor="middle" x="362.139" y="-87.177" font-family="Times New Roman,serif" font-size="10.00">inEdges</text>
<text text-anchor="middle" x="349.932" y="-608.364" font-family="Times New Roman,serif" font-size="10.00">tgt</text>
</g>
<!-- e141&#45;&#45;n142 -->
<g id="edge54" class="edge"><title>e141&#45;&#45;n142</title>
<path fill="none" stroke="black" d="M248.335,-510.385C229.424,-493.786 207.035,-474.136 188.393,-457.774"/>
<text text-anchor="middle" x="197.993" y="-458.076" font-family="Times New Roman,serif" font-size="10.00">tgt</text>
<text text-anchor="middle" x="238.736" y="-505.082" font-family="Times New Roman,serif" font-size="10.00">inEdges</text>
</g>
<!-- n142&#45;&#45;e143 -->
<g id="edge56" class="edge"><title>n142&#45;&#45;e143</title>
<path fill="none" stroke="black" d="M142.592,-372.378C140.782,-360.108 138.877,-347.2 137.186,-335.739"/>
<text text-anchor="middle" x="142.69" y="-341.588" font-family="Times New Roman,serif" font-size="10.00">outEdges</text>
<text text-anchor="middle" x="137.088" y="-361.529" font-family="Times New Roman,serif" font-size="10.00">src</text>
</g>
<!-- e143&#45;&#45;n144 -->
<g id="edge58" class="edge"><title>e143&#45;&#45;n144</title>
<path fill="none" stroke="black" d="M131.913,-262.385C131.913,-250.991 131.913,-238.159 131.913,-225.94"/>
<text text-anchor="middle" x="136.139" y="-232.503" font-family="Times New Roman,serif" font-size="10.00">tgt</text>
<text text-anchor="middle" x="127.687" y="-250.822" font-family="Times New Roman,serif" font-size="10.00">inEdges</text>
</g>
<!-- n144&#45;&#45;e145 -->
<g id="edge60" class="edge"><title>n144&#45;&#45;e145</title>
<path fill="none" stroke="black" d="M104.666,-124.494C98.0178,-112.415 90.961,-99.5937 84.4997,-87.8543"/>
<text text-anchor="middle" x="92.5722" y="-91.2565" font-family="Times New Roman,serif" font-size="10.00">outEdges</text>
<text text-anchor="middle" x="96.5934" y="-116.092" font-family="Times New Roman,serif" font-size="10.00">src</text>
</g>
<!-- n144&#45;&#45;e146 -->
<g id="edge62" class="edge"><title>n144&#45;&#45;e146</title>
<path fill="none" stroke="black" d="M170.251,-152.117C211.18,-128.755 275.763,-91.8913 317.478,-68.0801"/>
<text text-anchor="middle" x="311.702" y="-73.7432" font-family="Times New Roman,serif" font-size="10.00">outEdges</text>
<text text-anchor="middle" x="176.027" y="-141.454" font-family="Times New Roman,serif" font-size="10.00">src</text>
</g>
<!-- n144&#45;&#45;e147 -->
<g id="edge64" class="edge"><title>n144&#45;&#45;e147</title>
<path fill="none" stroke="black" d="M170.445,-164.179C224.304,-149.952 324.726,-121.602 406.913,-88 421.471,-82.048 436.923,-74.5132 450.552,-67.4196"/>
<text text-anchor="middle" x="444.44" y="-72.8344" font-family="Times New Roman,serif" font-size="10.00">inEdges</text>
<text text-anchor="middle" x="178.106" y="-155.252" font-family="Times New Roman,serif" font-size="10.00">tgt</text>
</g>
<!-- n150&#45;&#45;e151 -->
<g id="edge66" class="edge"><title>n150&#45;&#45;e151</title>
<path fill="none" stroke="black" d="M797.322,-1116.38C791.489,-1104.11 785.353,-1091.2 779.904,-1079.74"/>
<text text-anchor="middle" x="787.612" y="-1083.61" font-family="Times New Roman,serif" font-size="10.00">outEdges_inEdges</text>
<text text-anchor="middle" x="789.614" y="-1107.51" font-family="Times New Roman,serif" font-size="10.00">src_tgt</text>
</g>
<!-- n150&#45;&#45;e152 -->
<g id="edge68" class="edge"><title>n150&#45;&#45;e152</title>
<path fill="none" stroke="black" d="M844.504,-1116.38C850.337,-1104.11 856.474,-1091.2 861.923,-1079.74"/>
<text text-anchor="middle" x="861.848" y="-1087.24" font-family="Times New Roman,serif" font-size="10.00">outEdges_inEdges</text>
<text text-anchor="middle" x="844.579" y="-1103.88" font-family="Times New Roman,serif" font-size="10.00">src_tgt</text>
</g>
</g>
</svg>
