<?xml version="1.0" encoding="UTF-8" standalone="no"?>
<!DOCTYPE svg PUBLIC "-//W3C//DTD SVG 1.1//EN"
 "http://www.w3.org/Graphics/SVG/1.1/DTD/svg11.dtd">
<!-- Generated by graphviz version 2.28.0 (20110507.0327)
 -->
<!-- Title: ObjectDiagram Pages: 1 -->
<svg width="286pt" height="414pt"
 viewBox="0.00 0.00 286.00 414.00" xmlns="http://www.w3.org/2000/svg" xmlns:xlink="http://www.w3.org/1999/xlink">
<g id="graph1" class="graph" transform="scale(1 1) rotate(0) translate(4 410)">
<title>ObjectDiagram</title>
<polygon fill="white" stroke="white" points="-4,5 -4,-410 283,-410 283,5 -4,5"/>
<g id="graph2" class="cluster"><title>cluster_n6</title>
<polygon fill="none" stroke="grey" points="8,-81 8,-174 112,-174 112,-81 8,-81"/>
<text text-anchor="start" x="40" y="-154.8" font-family="Times New Roman,serif" font-size="14.00">NAC n6</text>
</g>
<!-- graphPO2 -->
<g id="node1" class="node"><title>graphPO2</title>
<polygon fill="deepskyblue" stroke="deepskyblue" points="108,-350.5 108,-401.5 188,-401.5 188,-350.5 108,-350.5"/>
<text text-anchor="start" x="159" y="-391.5" font-family="Arial" font-size="10.00">«bound»</text>
<polygon fill="none" stroke="black" points="108,-370 108,-386 188,-386 188,-370 108,-370"/>
<text text-anchor="start" x="111.5" y="-376" font-family="Arial" font-size="10.00"> </text>
<text text-anchor="start" x="115.5" y="-376" font-family="Arial" font-size="10.00"> graphPO2 :GraphPO </text>
<polygon fill="none" stroke="black" points="108,-350 108,-370 188,-370 188,-350 108,-350"/>
<text text-anchor="start" x="144.5" y="-358" font-family="Arial" font-size="10.00"> &#160;</text>
</g>
<!-- e1 -->
<g id="node2" class="node"><title>e1</title>
<polygon fill="deepskyblue" stroke="deepskyblue" points="60.5,-268.5 60.5,-305.5 131.5,-305.5 131.5,-268.5 60.5,-268.5"/>
<polygon fill="none" stroke="black" points="61,-288 61,-305 132,-305 132,-288 61,-288"/>
<text text-anchor="start" x="64.5" y="-294.5" font-family="Arial" font-size="10.00"> </text>
<text text-anchor="start" x="68.5" y="-294.5" font-family="Arial" font-size="10.00"> e1 :EdgePO </text>
<polygon fill="none" stroke="black" points="61,-268 61,-288 132,-288 132,-268 61,-268"/>
<text text-anchor="start" x="93" y="-276" font-family="Arial" font-size="10.00"> &#160;</text>
</g>
<!-- graphPO2&#45;&#45;e1 -->
<g id="edge3" class="edge"><title>graphPO2&#45;&#45;e1</title>
<path fill="none" stroke="black" d="M130.685,-346.03C123.594,-334.167 115.53,-320.675 108.963,-309.687"/>
<text text-anchor="middle" x="117.24" y="-312.799" font-family="Arial" font-size="10.00">edges</text>
</g>
<!-- e2 -->
<g id="node3" class="node"><title>e2</title>
<polygon fill="deepskyblue" stroke="deepskyblue" points="165.5,-268.5 165.5,-305.5 236.5,-305.5 236.5,-268.5 165.5,-268.5"/>
<polygon fill="none" stroke="black" points="166,-288 166,-305 237,-305 237,-288 166,-288"/>
<text text-anchor="start" x="169.5" y="-294.5" font-family="Arial" font-size="10.00"> </text>
<text text-anchor="start" x="173.5" y="-294.5" font-family="Arial" font-size="10.00"> e2 :EdgePO </text>
<polygon fill="none" stroke="black" points="166,-268 166,-288 237,-288 237,-268 166,-268"/>
<text text-anchor="start" x="198" y="-276" font-family="Arial" font-size="10.00"> &#160;</text>
</g>
<!-- graphPO2&#45;&#45;e2 -->
<g id="edge5" class="edge"><title>graphPO2&#45;&#45;e2</title>
<path fill="none" stroke="black" d="M165.648,-346.03C172.875,-334.167 181.095,-320.675 187.788,-309.687"/>
<text text-anchor="middle" x="186.682" y="-317.126" font-family="Arial" font-size="10.00">edges</text>
</g>
<!-- n3 -->
<g id="node4" class="node"><title>n3</title>
<polygon fill="deepskyblue" stroke="deepskyblue" points="129.5,-186.5 129.5,-223.5 200.5,-223.5 200.5,-186.5 129.5,-186.5"/>
<polygon fill="none" stroke="black" points="130,-206 130,-223 201,-223 201,-206 130,-206"/>
<text text-anchor="start" x="133.5" y="-212.5" font-family="Arial" font-size="10.00"> </text>
<text text-anchor="start" x="137.5" y="-212.5" font-family="Arial" font-size="10.00"> n3 :NodePO </text>
<polygon fill="none" stroke="black" points="130,-186 130,-206 201,-206 201,-186 130,-186"/>
<text text-anchor="start" x="162" y="-194" font-family="Arial" font-size="10.00"> &#160;</text>
</g>
<!-- e1&#45;&#45;n3 -->
<g id="edge7" class="edge"><title>e1&#45;&#45;n3</title>
<path fill="none" stroke="black" d="M114.855,-264.14C124.67,-252.759 136.63,-238.893 146.407,-227.557"/>
<text text-anchor="middle" x="143.688" y="-234.68" font-family="Arial" font-size="10.00">tgt</text>
</g>
<!-- n4 -->
<g id="node5" class="node"><title>n4</title>
<polygon fill="deepskyblue" stroke="deepskyblue" points="24.5,-186.5 24.5,-223.5 95.5,-223.5 95.5,-186.5 24.5,-186.5"/>
<polygon fill="none" stroke="black" points="25,-206 25,-223 96,-223 96,-206 25,-206"/>
<text text-anchor="start" x="28.5" y="-212.5" font-family="Arial" font-size="10.00"> </text>
<text text-anchor="start" x="32.5" y="-212.5" font-family="Arial" font-size="10.00"> n4 :NodePO </text>
<polygon fill="none" stroke="black" points="25,-186 25,-206 96,-206 96,-186 25,-186"/>
<text text-anchor="start" x="57" y="-194" font-family="Arial" font-size="10.00"> &#160;</text>
</g>
<!-- e1&#45;&#45;n4 -->
<g id="edge11" class="edge"><title>e1&#45;&#45;n4</title>
<path fill="none" stroke="black" d="M86.1628,-264.14C81.0416,-252.759 74.8018,-238.893 69.7006,-227.557"/>
<text text-anchor="middle" x="77.2737" y="-231.587" font-family="Arial" font-size="10.00">src</text>
</g>
<!-- e2&#45;&#45;n3 -->
<g id="edge9" class="edge"><title>e2&#45;&#45;n3</title>
<path fill="none" stroke="black" d="M191.163,-264.14C186.042,-252.759 179.802,-238.893 174.701,-227.557"/>
<text text-anchor="middle" x="182.274" y="-231.587" font-family="Arial" font-size="10.00">src</text>
</g>
<!-- n5 -->
<g id="node6" class="node"><title>n5</title>
<polygon fill="deepskyblue" stroke="deepskyblue" points="129.5,-4.5 129.5,-41.5 200.5,-41.5 200.5,-4.5 129.5,-4.5"/>
<polygon fill="none" stroke="black" points="130,-24 130,-41 201,-41 201,-24 130,-24"/>
<text text-anchor="start" x="133.5" y="-30.5" font-family="Arial" font-size="10.00"> </text>
<text text-anchor="start" x="137.5" y="-30.5" font-family="Arial" font-size="10.00"> n5 :NodePO </text>
<polygon fill="none" stroke="black" points="130,-4 130,-24 201,-24 201,-4 130,-4"/>
<text text-anchor="start" x="162" y="-12" font-family="Arial" font-size="10.00"> &#160;</text>
</g>
<!-- e2&#45;&#45;n5 -->
<g id="edge13" class="edge"><title>e2&#45;&#45;n5</title>
<path fill="none" stroke="black" d="M208.627,-264.456C220.935,-226.099 241.449,-144.076 217,-81 211.772,-67.5112 201.7,-55.2587 191.802,-45.6003"/>
<text text-anchor="middle" x="201.196" y="-46.5274" font-family="Arial" font-size="10.00">tgt</text>
</g>
<!-- e7 -->
<g id="node8" class="node"><title>e7</title>
<polygon fill="deepskyblue" stroke="deepskyblue" points="24.5,-93.5 24.5,-130.5 95.5,-130.5 95.5,-93.5 24.5,-93.5"/>
<polygon fill="none" stroke="black" points="25,-113 25,-130 96,-130 96,-113 25,-113"/>
<text text-anchor="start" x="28.5" y="-119.5" font-family="Arial" font-size="10.00"> </text>
<text text-anchor="start" x="32.5" y="-119.5" font-family="Arial" font-size="10.00"> e7 :EdgePO </text>
<polygon fill="none" stroke="black" points="25,-93 25,-113 96,-113 96,-93 25,-93"/>
<text text-anchor="start" x="57" y="-101" font-family="Arial" font-size="10.00"> &#160;</text>
</g>
<!-- n4&#45;&#45;e7 -->
<g id="edge15" class="edge"><title>n4&#45;&#45;e7</title>
<path fill="none" stroke="black" d="M60,-182.434C60,-168.033 60,-149.16 60,-134.726"/>
<text text-anchor="middle" x="64.2262" y="-141.289" font-family="Arial" font-size="10.00">outEdges</text>
</g>
<!-- e8 -->
<g id="node9" class="node"><title>e8</title>
<polygon fill="deepskyblue" stroke="deepskyblue" points="129.5,-86.5 129.5,-137.5 200.5,-137.5 200.5,-86.5 129.5,-86.5"/>
<text text-anchor="start" x="161" y="-127.5" font-family="Arial" font-size="10.00" fill="green">«create»</text>
<polygon fill="none" stroke="green" points="130,-106 130,-122 201,-122 201,-106 130,-106"/>
<text text-anchor="start" x="133.5" y="-112" font-family="Arial" font-size="10.00"> </text>
<text text-anchor="start" x="137.5" y="-112" font-family="Arial" font-size="10.00" fill="green"> e8 :EdgePO </text>
<polygon fill="none" stroke="green" points="130,-86 130,-106 201,-106 201,-86 130,-86"/>
<text text-anchor="start" x="162" y="-94" font-family="Arial" font-size="10.00"> &#160;</text>
</g>
<!-- n4&#45;&#45;e8 -->
<g id="edge19" class="edge"><title>n4&#45;&#45;e8</title>
<path fill="none" stroke="green" d="M103.345,-183.1C107.788,-180.286 112.097,-177.241 116,-174 127.183,-164.715 137.578,-152.535 145.89,-141.503"/>
<text text-anchor="middle" x="143.74" y="-148.769" font-family="Arial" font-size="10.00" fill="green">outEdges</text>
</g>
<!-- e7&#45;&#45;n5 -->
<g id="edge17" class="edge"><title>e7&#45;&#45;n5</title>
<path fill="none" stroke="black" d="M85.9551,-89.4944C102.109,-76.1096 122.813,-58.9547 138.98,-45.5597"/>
<text text-anchor="middle" x="134.697" y="-52.0964" font-family="Arial" font-size="10.00">tgt</text>
</g>
<!-- e8&#45;&#45;n5 -->
<g id="edge21" class="edge"><title>e8&#45;&#45;n5</title>
<path fill="none" stroke="green" d="M165,-82.0303C165,-70.167 165,-56.6747 165,-45.6874"/>
<text text-anchor="middle" x="169.226" y="-52.2504" font-family="Arial" font-size="10.00" fill="green">tgt</text>
</g>
<!-- allMatches -->
<g id="node10" class="node"><title>allMatches</title>
<text text-anchor="middle" x="246" y="-373.5" font-family="Arial" font-size="10.00">allMatches</text>
</g>
</g>
</svg>
