<?xml version="1.0" encoding="UTF-8" standalone="no"?>
<!DOCTYPE svg PUBLIC "-//W3C//DTD SVG 1.1//EN"
 "http://www.w3.org/Graphics/SVG/1.1/DTD/svg11.dtd">
<!-- Generated by graphviz version 2.28.0 (20110507.0327)
 -->
<!-- Title: ObjectDiagram Pages: 1 -->
<svg width="311pt" height="560pt"
 viewBox="0.00 0.00 311.00 560.00" xmlns="http://www.w3.org/2000/svg" xmlns:xlink="http://www.w3.org/1999/xlink">
<g id="graph1" class="graph" transform="scale(1 1) rotate(0) translate(4 556)">
<title>ObjectDiagram</title>
<polygon fill="white" stroke="white" points="-4,5 -4,-556 308,-556 308,5 -4,5"/>
<!-- g1 -->
<g id="node1" class="node"><title>g1</title>
<polygon fill="deepskyblue" stroke="deepskyblue" points="40.5,-496.5 40.5,-547.5 103.5,-547.5 103.5,-496.5 40.5,-496.5"/>
<text text-anchor="start" x="70" y="-537.5" font-family="Arial" font-size="10.00">«bound»</text>
<polygon fill="none" stroke="black" points="41,-516 41,-532 104,-532 104,-516 41,-516"/>
<text text-anchor="start" x="44.5" y="-522" font-family="Arial" font-size="10.00"> </text>
<text text-anchor="start" x="48.5" y="-522" font-family="Arial" font-size="10.00"> g1 :GraphPO </text>
<polygon fill="none" stroke="black" points="41,-496 41,-516 104,-516 104,-496 41,-496"/>
<text text-anchor="start" x="69" y="-504" font-family="Arial" font-size="10.00"> &#160;</text>
</g>
<!-- n2 -->
<g id="node2" class="node"><title>n2</title>
<polygon fill="deepskyblue" stroke="deepskyblue" points="36.5,-414.5 36.5,-451.5 107.5,-451.5 107.5,-414.5 36.5,-414.5"/>
<polygon fill="none" stroke="black" points="37,-434 37,-451 108,-451 108,-434 37,-434"/>
<text text-anchor="start" x="40.5" y="-440.5" font-family="Arial" font-size="10.00"> </text>
<text text-anchor="start" x="44.5" y="-440.5" font-family="Arial" font-size="10.00"> n2 :NodePO </text>
<polygon fill="none" stroke="black" points="37,-414 37,-434 108,-434 108,-414 37,-414"/>
<text text-anchor="start" x="69" y="-422" font-family="Arial" font-size="10.00"> &#160;</text>
</g>
<!-- g1&#45;&#45;n2 -->
<g id="edge2" class="edge"><title>g1&#45;&#45;n2</title>
<path fill="none" stroke="black" d="M72,-492.03C72,-480.167 72,-466.675 72,-455.687"/>
<text text-anchor="middle" x="76.2262" y="-462.25" font-family="Arial" font-size="10.00">nodes</text>
</g>
<!-- e3 -->
<g id="node3" class="node"><title>e3</title>
<polygon fill="deepskyblue" stroke="deepskyblue" points="12,-332.5 12,-369.5 66,-369.5 66,-332.5 12,-332.5"/>
<polygon fill="none" stroke="black" points="12,-352 12,-369 66,-369 66,-352 12,-352"/>
<text text-anchor="start" x="15.5" y="-358.5" font-family="Arial" font-size="10.00"> </text>
<text text-anchor="start" x="19.5" y="-358.5" font-family="Arial" font-size="10.00"> e3 :EdgePO </text>
<polygon fill="none" stroke="black" points="12,-332 12,-352 66,-352 66,-332 12,-332"/>
<text text-anchor="start" x="35.5" y="-340" font-family="Arial" font-size="10.00"> &#160;</text>
</g>
<!-- n2&#45;&#45;e3 -->
<g id="edge4" class="edge"><title>n2&#45;&#45;e3</title>
<path fill="none" stroke="black" d="M62.9826,-410.14C58.2881,-398.759 52.5683,-384.893 47.8922,-373.557"/>
<text text-anchor="middle" x="55.2551" y="-377.824" font-family="Arial" font-size="10.00">outEdges</text>
</g>
<!-- n4 -->
<g id="node4" class="node"><title>n4</title>
<polygon fill="deepskyblue" stroke="deepskyblue" points="11,-250.5 11,-287.5 65,-287.5 65,-250.5 11,-250.5"/>
<polygon fill="none" stroke="black" points="11,-270 11,-287 65,-287 65,-270 11,-270"/>
<text text-anchor="start" x="14.5" y="-276.5" font-family="Arial" font-size="10.00"> </text>
<text text-anchor="start" x="18.5" y="-276.5" font-family="Arial" font-size="10.00"> n4 :NodePO </text>
<polygon fill="none" stroke="black" points="11,-250 11,-270 65,-270 65,-250 11,-250"/>
<text text-anchor="start" x="34.5" y="-258" font-family="Arial" font-size="10.00"> &#160;</text>
</g>
<!-- e3&#45;&#45;n4 -->
<g id="edge6" class="edge"><title>e3&#45;&#45;n4</title>
<path fill="none" stroke="black" d="M38.7267,-328.14C38.5845,-316.759 38.4112,-302.893 38.2695,-291.557"/>
<text text-anchor="middle" x="42.6086" y="-298.066" font-family="Arial" font-size="10.00">tgt</text>
</g>
<!-- e5 -->
<g id="node5" class="node"><title>e5</title>
<polygon fill="deepskyblue" stroke="deepskyblue" points="8,-168.5 8,-205.5 66,-205.5 66,-168.5 8,-168.5"/>
<polygon fill="none" stroke="black" points="8,-188 8,-205 66,-205 66,-188 8,-188"/>
<text text-anchor="start" x="11.5" y="-194.5" font-family="Arial" font-size="10.00"> </text>
<text text-anchor="start" x="15.5" y="-194.5" font-family="Arial" font-size="10.00"> e5 :EdgePO </text>
<polygon fill="none" stroke="black" points="8,-168 8,-188 66,-188 66,-168 8,-168"/>
<text text-anchor="start" x="33.5" y="-176" font-family="Arial" font-size="10.00"> &#160;</text>
</g>
<!-- n4&#45;&#45;e5 -->
<g id="edge8" class="edge"><title>n4&#45;&#45;e5</title>
<path fill="none" stroke="black" d="M37.7267,-246.14C37.5845,-234.759 37.4112,-220.893 37.2695,-209.557"/>
<text text-anchor="middle" x="41.6086" y="-216.066" font-family="Arial" font-size="10.00">outEdges</text>
</g>
<!-- n6 -->
<g id="node6" class="node"><title>n6</title>
<polygon fill="deepskyblue" stroke="deepskyblue" points="7.5,-86.5 7.5,-123.5 66.5,-123.5 66.5,-86.5 7.5,-86.5"/>
<polygon fill="none" stroke="black" points="8,-106 8,-123 67,-123 67,-106 8,-106"/>
<text text-anchor="start" x="11.5" y="-112.5" font-family="Arial" font-size="10.00"> </text>
<text text-anchor="start" x="15.5" y="-112.5" font-family="Arial" font-size="10.00"> n6 :NodePO </text>
<polygon fill="none" stroke="black" points="8,-86 8,-106 67,-106 67,-86 8,-86"/>
<text text-anchor="start" x="34" y="-94" font-family="Arial" font-size="10.00"> &#160;</text>
</g>
<!-- e5&#45;&#45;n6 -->
<g id="edge10" class="edge"><title>e5&#45;&#45;n6</title>
<path fill="none" stroke="black" d="M37,-164.14C37,-152.759 37,-138.893 37,-127.557"/>
<text text-anchor="middle" x="41.2262" y="-134.12" font-family="Arial" font-size="10.00">tgt</text>
</g>
<!-- e7 -->
<g id="node7" class="node"><title>e7</title>
<polygon fill="deepskyblue" stroke="deepskyblue" points="41,-4.5 41,-41.5 99,-41.5 99,-4.5 41,-4.5"/>
<polygon fill="none" stroke="black" points="41,-24 41,-41 99,-41 99,-24 41,-24"/>
<text text-anchor="start" x="44.5" y="-30.5" font-family="Arial" font-size="10.00"> </text>
<text text-anchor="start" x="48.5" y="-30.5" font-family="Arial" font-size="10.00"> e7 :EdgePO </text>
<polygon fill="none" stroke="black" points="41,-4 41,-24 99,-24 99,-4 41,-4"/>
<text text-anchor="start" x="66.5" y="-12" font-family="Arial" font-size="10.00"> &#160;</text>
</g>
<!-- n6&#45;&#45;e7 -->
<g id="edge12" class="edge"><title>n6&#45;&#45;e7</title>
<path fill="none" stroke="black" d="M46.0174,-82.1396C50.7119,-70.759 56.4317,-56.8929 61.1078,-45.5569"/>
<text text-anchor="middle" x="61.5586" y="-53.0468" font-family="Arial" font-size="10.00">outEdges</text>
</g>
<!-- e7&#45;&#45;n2 -->
<g id="edge14" class="edge"><title>e7&#45;&#45;n2</title>
<path fill="none" stroke="black" d="M77.3238,-45.7241C87.0458,-76.5462 103,-134.909 103,-186 103,-270 103,-270 103,-270 103,-320.971 88.0128,-379.381 78.8799,-410.243"/>
<text text-anchor="middle" x="77.3272" y="-397.864" font-family="Arial" font-size="10.00">tgt</text>
</g>
<!-- matchIsomorphic -->
<g id="node8" class="node"><title>matchIsomorphic</title>
<text text-anchor="middle" x="175" y="-519.5" font-family="Arial" font-size="10.00">matchIsomorphic</text>
</g>
<!-- allMatches -->
<g id="node9" class="node"><title>allMatches</title>
<text text-anchor="middle" x="271" y="-519.5" font-family="Arial" font-size="10.00">allMatches</text>
</g>
</g>
</svg>
