<?xml version="1.0" encoding="UTF-8" standalone="no"?>
<!DOCTYPE svg PUBLIC "-//W3C//DTD SVG 1.1//EN"
 "http://www.w3.org/Graphics/SVG/1.1/DTD/svg11.dtd">
<!-- Generated by graphviz version 2.28.0 (20110507.0327)
 -->
<!-- Title: ObjectDiagram Pages: 1 -->
<svg width="271pt" height="126pt"
 viewBox="0.00 0.00 271.00 126.00" xmlns="http://www.w3.org/2000/svg" xmlns:xlink="http://www.w3.org/1999/xlink">
<g id="graph1" class="graph" transform="scale(1 1) rotate(0) translate(4 122)">
<title>ObjectDiagram</title>
<polygon fill="white" stroke="white" points="-4,5 -4,-122 268,-122 268,5 -4,5"/>
<!-- g1 -->
<g id="node1" class="node"><title>g1</title>
<polygon fill="none" stroke="black" points="96,-91 96,-108 155,-108 155,-91 96,-91"/>
<text text-anchor="start" x="99.5" y="-97.5" font-family="Times New Roman,serif" font-size="10.00"> </text>
<text text-anchor="start" x="102.5" y="-97.5" font-family="Times New Roman,serif" font-size="10.00">g1 :Greeting</text>
</g>
<!-- g2 -->
<g id="node2" class="node"><title>g2</title>
<polygon fill="none" stroke="black" points="8,-24 8,-41 103,-41 103,-24 8,-24"/>
<text text-anchor="start" x="11.5" y="-30.5" font-family="Times New Roman,serif" font-size="10.00"> </text>
<text text-anchor="start" x="14.5" y="-30.5" font-family="Times New Roman,serif" font-size="10.00">g2 :GreetingMessage</text>
<polygon fill="none" stroke="black" points="8,-4 8,-24 103,-24 103,-4 8,-4"/>
<text text-anchor="start" x="28" y="-12" font-family="Times New Roman,serif" font-size="10.00">text = &quot;Hello&quot;</text>
</g>
<!-- g1&#45;&#45;g2 -->
<g id="edge2" class="edge"><title>g1&#45;&#45;g2</title>
<path fill="none" stroke="black" d="M109.116,-81.9813C99.0315,-71.1766 85.8929,-57.0995 75.087,-45.5218"/>
<text text-anchor="middle" x="84.3605" y="-46.7638" font-family="Times New Roman,serif" font-size="10.00">greetingMessage</text>
<text text-anchor="middle" x="99.8424" y="-75.7393" font-family="Times New Roman,serif" font-size="10.00">greeting</text>
</g>
<!-- p3 -->
<g id="node3" class="node"><title>p3</title>
<polygon fill="none" stroke="black" points="137,-24 137,-41 256,-41 256,-24 137,-24"/>
<text text-anchor="start" x="173.5" y="-30.5" font-family="Times New Roman,serif" font-size="10.00"> </text>
<text text-anchor="start" x="176.5" y="-30.5" font-family="Times New Roman,serif" font-size="10.00">p3 :Person</text>
<polygon fill="none" stroke="black" points="137,-4 137,-24 256,-24 256,-4 137,-4"/>
<text text-anchor="start" x="142.5" y="-12" font-family="Times New Roman,serif" font-size="10.00">name = &quot;TTC Participants&quot;</text>
</g>
<!-- g1&#45;&#45;p3 -->
<g id="edge4" class="edge"><title>g1&#45;&#45;p3</title>
<path fill="none" stroke="black" d="M141.111,-81.9813C151.34,-71.1766 164.666,-57.0995 175.626,-45.5218"/>
<text text-anchor="middle" x="172.464" y="-52.5089" font-family="Times New Roman,serif" font-size="10.00">person</text>
<text text-anchor="middle" x="144.273" y="-69.9943" font-family="Times New Roman,serif" font-size="10.00">greeting</text>
</g>
</g>
</svg>
