<?xml version="1.0" encoding="UTF-8" standalone="no"?>
<!DOCTYPE svg PUBLIC "-//W3C//DTD SVG 1.1//EN"
 "http://www.w3.org/Graphics/SVG/1.1/DTD/svg11.dtd">
<!-- Generated by graphviz version 2.28.0 (20110507.0327)
 -->
<!-- Title: ObjectDiagram Pages: 1 -->
<svg width="911pt" height="1228pt"
 viewBox="0.00 0.00 911.02 1228.00" xmlns="http://www.w3.org/2000/svg" xmlns:xlink="http://www.w3.org/1999/xlink">
<g id="graph1" class="graph" transform="scale(1 1) rotate(0) translate(4 1224)">
<title>ObjectDiagram</title>
<polygon fill="white" stroke="white" points="-4,5 -4,-1224 908.025,-1224 908.025,5 -4,5"/>
<!-- g39 -->
<g id="node1" class="node"><title>g39</title>
<a xlink:href="../examples/org/sdmlib/examples/helloworld/model/Graph.java" xlink:title="&lt;TABLE&gt;">
<polygon fill="none" stroke="black" points="358.025,-1193 358.025,-1210 418.025,-1210 418.025,-1193 358.025,-1193"/>
<text text-anchor="start" x="361.525" y="-1199.5" font-family="Arial" font-size="10.00"> </text>
<text text-anchor="start" x="365.525" y="-1199.5" font-family="Arial" font-size="10.00">g39 :Graph</text>
</a>
</g>
<!-- n40 -->
<g id="node2" class="node"><title>n40</title>
<a xlink:href="../examples/org/sdmlib/examples/helloworld/model/Node.java" xlink:title="&lt;TABLE&gt;">
<polygon fill="none" stroke="black" points="199.025,-1126 199.025,-1143 257.025,-1143 257.025,-1126 199.025,-1126"/>
<text text-anchor="start" x="203.525" y="-1132.5" font-family="Arial" font-size="10.00"> </text>
<text text-anchor="start" x="207.525" y="-1132.5" font-family="Arial" font-size="10.00">n40 :Node</text>
</a>
<polygon fill="none" stroke="black" points="199.025,-1064 199.025,-1126 257.025,-1126 257.025,-1064 199.025,-1064"/>
<text text-anchor="start" x="204.025" y="-1114" font-family="Arial" font-size="10.00">text = &quot;n1&quot;</text>
<text text-anchor="start" x="204.025" y="-1100" font-family="Arial" font-size="10.00">graph = &quot;&quot;</text>
<text text-anchor="start" x="204.025" y="-1086" font-family="Arial" font-size="10.00">name = &quot;&quot;</text>
<text text-anchor="start" x="204.025" y="-1072" font-family="Arial" font-size="10.00">copy = &quot;&quot;</text>
</g>
<!-- g39&#45;&#45;n40 -->
<g id="edge2" class="edge"><title>g39&#45;&#45;n40</title>
<path fill="none" stroke="black" d="M349.953,-1185.29C328.43,-1175.73 301.429,-1162.57 279.025,-1148 274.365,-1144.97 269.659,-1141.56 265.089,-1138.03"/>
<text text-anchor="middle" x="274.851" y="-1137.7" font-family="Arial" font-size="10.00">gcs</text>
<text text-anchor="middle" x="339.954" y="-1182.92" font-family="Arial" font-size="10.00">parent</text>
</g>
<!-- e41 -->
<g id="node3" class="node"><title>e41</title>
<a xlink:href="../examples/org/sdmlib/examples/helloworld/model/Edge.java" xlink:title="&lt;TABLE&gt;">
<polygon fill="none" stroke="black" points="232.025,-1002 232.025,-1019 295.025,-1019 295.025,-1002 232.025,-1002"/>
<text text-anchor="start" x="239.025" y="-1008.5" font-family="Arial" font-size="10.00"> </text>
<text text-anchor="start" x="243.025" y="-1008.5" font-family="Arial" font-size="10.00">e41 :Edge</text>
</a>
<polygon fill="none" stroke="black" points="232.025,-954 232.025,-1002 295.025,-1002 295.025,-954 232.025,-954"/>
<text text-anchor="start" x="237.025" y="-990" font-family="Arial" font-size="10.00">text = &quot;e10&quot;</text>
<text text-anchor="start" x="237.025" y="-976" font-family="Arial" font-size="10.00">graph = &quot;&quot;</text>
<text text-anchor="start" x="237.025" y="-962" font-family="Arial" font-size="10.00">name = &quot;&quot;</text>
</g>
<!-- g39&#45;&#45;e41 -->
<g id="edge22" class="edge"><title>g39&#45;&#45;e41</title>
<path fill="none" stroke="black" d="M357.306,-1183.98C343.33,-1174.89 327.592,-1162.57 317.025,-1148 289.742,-1110.39 275.543,-1058.01 268.685,-1023.58"/>
<text text-anchor="middle" x="274.689" y="-1029.08" font-family="Arial" font-size="10.00">gcs</text>
<text text-anchor="middle" x="347.42" y="-1179.97" font-family="Arial" font-size="10.00">parent</text>
</g>
<!-- n42 -->
<g id="node4" class="node"><title>n42</title>
<a xlink:href="../examples/org/sdmlib/examples/helloworld/model/Node.java" xlink:title="&lt;TABLE&gt;">
<polygon fill="none" stroke="black" points="313.025,-892 313.025,-909 371.025,-909 371.025,-892 313.025,-892"/>
<text text-anchor="start" x="317.525" y="-898.5" font-family="Arial" font-size="10.00"> </text>
<text text-anchor="start" x="321.525" y="-898.5" font-family="Arial" font-size="10.00">n42 :Node</text>
</a>
<polygon fill="none" stroke="black" points="313.025,-830 313.025,-892 371.025,-892 371.025,-830 313.025,-830"/>
<text text-anchor="start" x="318.025" y="-880" font-family="Arial" font-size="10.00">text = &quot;n2&quot;</text>
<text text-anchor="start" x="318.025" y="-866" font-family="Arial" font-size="10.00">graph = &quot;&quot;</text>
<text text-anchor="start" x="318.025" y="-852" font-family="Arial" font-size="10.00">name = &quot;&quot;</text>
<text text-anchor="start" x="318.025" y="-838" font-family="Arial" font-size="10.00">copy = &quot;&quot;</text>
</g>
<!-- g39&#45;&#45;n42 -->
<g id="edge4" class="edge"><title>g39&#45;&#45;n42</title>
<path fill="none" stroke="black" d="M385.617,-1183.72C378.629,-1133.59 358.199,-987.031 347.984,-913.748"/>
<text text-anchor="middle" x="353.421" y="-919.641" font-family="Arial" font-size="10.00">gcs</text>
<text text-anchor="middle" x="380.18" y="-1172.83" font-family="Arial" font-size="10.00">parent</text>
</g>
<!-- e43 -->
<g id="node5" class="node"><title>e43</title>
<a xlink:href="../examples/org/sdmlib/examples/helloworld/model/Edge.java" xlink:title="&lt;TABLE&gt;">
<polygon fill="none" stroke="black" points="318.025,-768 318.025,-785 381.025,-785 381.025,-768 318.025,-768"/>
<text text-anchor="start" x="325.025" y="-774.5" font-family="Arial" font-size="10.00"> </text>
<text text-anchor="start" x="329.025" y="-774.5" font-family="Arial" font-size="10.00">e43 :Edge</text>
</a>
<polygon fill="none" stroke="black" points="318.025,-720 318.025,-768 381.025,-768 381.025,-720 318.025,-720"/>
<text text-anchor="start" x="323.025" y="-756" font-family="Arial" font-size="10.00">text = &quot;e11&quot;</text>
<text text-anchor="start" x="323.025" y="-742" font-family="Arial" font-size="10.00">graph = &quot;&quot;</text>
<text text-anchor="start" x="323.025" y="-728" font-family="Arial" font-size="10.00">name = &quot;&quot;</text>
</g>
<!-- g39&#45;&#45;e43 -->
<g id="edge24" class="edge"><title>g39&#45;&#45;e43</title>
<path fill="none" stroke="black" d="M390.994,-1183.81C399.673,-1129.94 422.299,-960.034 388.025,-826 384.82,-813.467 378.966,-800.746 372.75,-789.555"/>
<text text-anchor="middle" x="380.795" y="-792.995" font-family="Arial" font-size="10.00">gcs</text>
<text text-anchor="middle" x="388.172" y="-1171.71" font-family="Arial" font-size="10.00">parent</text>
</g>
<!-- n44 -->
<g id="node6" class="node"><title>n44</title>
<a xlink:href="../examples/org/sdmlib/examples/helloworld/model/Node.java" xlink:title="&lt;TABLE&gt;">
<polygon fill="none" stroke="black" points="320.025,-658 320.025,-675 378.025,-675 378.025,-658 320.025,-658"/>
<text text-anchor="start" x="324.525" y="-664.5" font-family="Arial" font-size="10.00"> </text>
<text text-anchor="start" x="328.525" y="-664.5" font-family="Arial" font-size="10.00">n44 :Node</text>
</a>
<polygon fill="none" stroke="black" points="320.025,-596 320.025,-658 378.025,-658 378.025,-596 320.025,-596"/>
<text text-anchor="start" x="325.025" y="-646" font-family="Arial" font-size="10.00">text = &quot;n3&quot;</text>
<text text-anchor="start" x="325.025" y="-632" font-family="Arial" font-size="10.00">graph = &quot;&quot;</text>
<text text-anchor="start" x="325.025" y="-618" font-family="Arial" font-size="10.00">name = &quot;&quot;</text>
<text text-anchor="start" x="325.025" y="-604" font-family="Arial" font-size="10.00">copy = &quot;&quot;</text>
</g>
<!-- g39&#45;&#45;n44 -->
<g id="edge6" class="edge"><title>g39&#45;&#45;n44</title>
<path fill="none" stroke="black" d="M398.329,-1183.88C404.014,-1173.76 410.764,-1160.51 415.025,-1148 438.35,-1079.51 445.025,-1060.35 445.025,-988 445.025,-988 445.025,-988 445.025,-869 445.025,-798.602 406.819,-724.695 378.611,-679.723"/>
<text text-anchor="middle" x="386.932" y="-682.77" font-family="Arial" font-size="10.00">gcs</text>
<text text-anchor="middle" x="399.028" y="-1171.41" font-family="Arial" font-size="10.00">parent</text>
</g>
<!-- e45 -->
<g id="node7" class="node"><title>e45</title>
<a xlink:href="../examples/org/sdmlib/examples/helloworld/model/Edge.java" xlink:title="&lt;TABLE&gt;">
<polygon fill="none" stroke="black" points="156.025,-534 156.025,-551 219.025,-551 219.025,-534 156.025,-534"/>
<text text-anchor="start" x="163.025" y="-540.5" font-family="Arial" font-size="10.00"> </text>
<text text-anchor="start" x="167.025" y="-540.5" font-family="Arial" font-size="10.00">e45 :Edge</text>
</a>
<polygon fill="none" stroke="black" points="156.025,-486 156.025,-534 219.025,-534 219.025,-486 156.025,-486"/>
<text text-anchor="start" x="161.025" y="-522" font-family="Arial" font-size="10.00">text = &quot;e12&quot;</text>
<text text-anchor="start" x="161.025" y="-508" font-family="Arial" font-size="10.00">graph = &quot;&quot;</text>
<text text-anchor="start" x="161.025" y="-494" font-family="Arial" font-size="10.00">name = &quot;&quot;</text>
</g>
<!-- g39&#45;&#45;e45 -->
<g id="edge26" class="edge"><title>g39&#45;&#45;e45</title>
<path fill="none" stroke="black" d="M349.8,-1196.21C296.616,-1188.73 204.299,-1172.54 182.025,-1148 133.654,-1094.7 157.025,-1059.97 157.025,-988 157.025,-988 157.025,-988 157.025,-752 157.025,-681.942 170.646,-600.96 179.532,-555.585"/>
<text text-anchor="middle" x="181.987" y="-562.779" font-family="Arial" font-size="10.00">gcs</text>
<text text-anchor="middle" x="340.218" y="-1196.57" font-family="Arial" font-size="10.00">parent</text>
</g>
<!-- e46 -->
<g id="node8" class="node"><title>e46</title>
<a xlink:href="../examples/org/sdmlib/examples/helloworld/model/Edge.java" xlink:title="&lt;TABLE&gt;">
<polygon fill="none" stroke="black" points="253.025,-534 253.025,-551 316.025,-551 316.025,-534 253.025,-534"/>
<text text-anchor="start" x="260.025" y="-540.5" font-family="Arial" font-size="10.00"> </text>
<text text-anchor="start" x="264.025" y="-540.5" font-family="Arial" font-size="10.00">e46 :Edge</text>
</a>
<polygon fill="none" stroke="black" points="253.025,-486 253.025,-534 316.025,-534 316.025,-486 253.025,-486"/>
<text text-anchor="start" x="258.025" y="-522" font-family="Arial" font-size="10.00">text = &quot;e13&quot;</text>
<text text-anchor="start" x="258.025" y="-508" font-family="Arial" font-size="10.00">graph = &quot;&quot;</text>
<text text-anchor="start" x="258.025" y="-494" font-family="Arial" font-size="10.00">name = &quot;&quot;</text>
</g>
<!-- g39&#45;&#45;e46 -->
<g id="edge28" class="edge"><title>g39&#45;&#45;e46</title>
<path fill="none" stroke="black" d="M379.717,-1183.58C375.031,-1173.36 369.281,-1160.11 365.025,-1148 334.792,-1061.94 340.627,-1036.28 311.025,-950 305.4,-933.605 299.683,-930.943 296.025,-914 268.045,-784.394 275.544,-625.285 280.845,-555.57"/>
<text text-anchor="middle" x="284.438" y="-562.402" font-family="Arial" font-size="10.00">gcs</text>
<text text-anchor="middle" x="372.116" y="-1174.59" font-family="Arial" font-size="10.00">parent</text>
</g>
<!-- n47 -->
<g id="node9" class="node"><title>n47</title>
<a xlink:href="../examples/org/sdmlib/examples/helloworld/model/Node.java" xlink:title="&lt;TABLE&gt;">
<polygon fill="none" stroke="black" points="117.025,-424 117.025,-441 175.025,-441 175.025,-424 117.025,-424"/>
<text text-anchor="start" x="121.525" y="-430.5" font-family="Arial" font-size="10.00"> </text>
<text text-anchor="start" x="125.525" y="-430.5" font-family="Arial" font-size="10.00">n47 :Node</text>
</a>
<polygon fill="none" stroke="black" points="117.025,-362 117.025,-424 175.025,-424 175.025,-362 117.025,-362"/>
<text text-anchor="start" x="122.025" y="-412" font-family="Arial" font-size="10.00">text = &quot;n4&quot;</text>
<text text-anchor="start" x="122.025" y="-398" font-family="Arial" font-size="10.00">graph = &quot;&quot;</text>
<text text-anchor="start" x="122.025" y="-384" font-family="Arial" font-size="10.00">name = &quot;&quot;</text>
<text text-anchor="start" x="122.025" y="-370" font-family="Arial" font-size="10.00">copy = &quot;&quot;</text>
</g>
<!-- g39&#45;&#45;n47 -->
<g id="edge8" class="edge"><title>g39&#45;&#45;n47</title>
<path fill="none" stroke="black" d="M349.69,-1197.64C289.157,-1191.53 175.473,-1176.51 148.025,-1148 97.9038,-1095.93 119.025,-1060.27 119.025,-988 119.025,-988 119.025,-988 119.025,-635 119.025,-568.499 130.106,-491.989 138.07,-445.587"/>
<text text-anchor="middle" x="140.746" y="-452.722" font-family="Arial" font-size="10.00">gcs</text>
<text text-anchor="middle" x="340.228" y="-1198.38" font-family="Arial" font-size="10.00">parent</text>
</g>
<!-- e48 -->
<g id="node10" class="node"><title>e48</title>
<a xlink:href="../examples/org/sdmlib/examples/helloworld/model/Edge.java" xlink:title="&lt;TABLE&gt;">
<polygon fill="none" stroke="black" points="98.025,-300 98.025,-317 161.025,-317 161.025,-300 98.025,-300"/>
<text text-anchor="start" x="105.025" y="-306.5" font-family="Arial" font-size="10.00"> </text>
<text text-anchor="start" x="109.025" y="-306.5" font-family="Arial" font-size="10.00">e48 :Edge</text>
</a>
<polygon fill="none" stroke="black" points="98.025,-252 98.025,-300 161.025,-300 161.025,-252 98.025,-252"/>
<text text-anchor="start" x="103.025" y="-288" font-family="Arial" font-size="10.00">text = &quot;e14&quot;</text>
<text text-anchor="start" x="103.025" y="-274" font-family="Arial" font-size="10.00">graph = &quot;&quot;</text>
<text text-anchor="start" x="103.025" y="-260" font-family="Arial" font-size="10.00">name = &quot;&quot;</text>
</g>
<!-- g39&#45;&#45;e48 -->
<g id="edge30" class="edge"><title>g39&#45;&#45;e48</title>
<path fill="none" stroke="black" d="M349.903,-1198.89C281.978,-1194.32 144.028,-1181.12 111.025,-1148 59.9604,-1096.75 81.025,-1060.35 81.025,-988 81.025,-988 81.025,-988 81.025,-518 81.025,-446.389 82.2702,-427.375 100.025,-358 103.132,-345.859 107.809,-333.037 112.505,-321.631"/>
<text text-anchor="middle" x="113.009" y="-329.118" font-family="Arial" font-size="10.00">gcs</text>
<text text-anchor="middle" x="340.554" y="-1199.94" font-family="Arial" font-size="10.00">parent</text>
</g>
<!-- n49 -->
<g id="node11" class="node"><title>n49</title>
<a xlink:href="../examples/org/sdmlib/examples/helloworld/model/Node.java" xlink:title="&lt;TABLE&gt;">
<polygon fill="none" stroke="black" points="100.025,-190 100.025,-207 158.025,-207 158.025,-190 100.025,-190"/>
<text text-anchor="start" x="104.525" y="-196.5" font-family="Arial" font-size="10.00"> </text>
<text text-anchor="start" x="108.525" y="-196.5" font-family="Arial" font-size="10.00">n49 :Node</text>
</a>
<polygon fill="none" stroke="black" points="100.025,-128 100.025,-190 158.025,-190 158.025,-128 100.025,-128"/>
<text text-anchor="start" x="105.025" y="-178" font-family="Arial" font-size="10.00">text = &quot;n5&quot;</text>
<text text-anchor="start" x="105.025" y="-164" font-family="Arial" font-size="10.00">graph = &quot;&quot;</text>
<text text-anchor="start" x="105.025" y="-150" font-family="Arial" font-size="10.00">name = &quot;&quot;</text>
<text text-anchor="start" x="105.025" y="-136" font-family="Arial" font-size="10.00">copy = &quot;&quot;</text>
</g>
<!-- g39&#45;&#45;n49 -->
<g id="edge10" class="edge"><title>g39&#45;&#45;n49</title>
<path fill="none" stroke="black" d="M349.755,-1199.87C274.6,-1196.83 111.663,-1185.92 73.025,-1148 21.3906,-1097.32 43.025,-1060.35 43.025,-988 43.025,-988 43.025,-988 43.025,-401 43.025,-331.04 53.0246,-312.54 80.025,-248 85.1949,-235.642 92.1632,-222.993 99.2203,-211.541"/>
<text text-anchor="middle" x="98.1168" y="-218.98" font-family="Arial" font-size="10.00">gcs</text>
<text text-anchor="middle" x="340.505" y="-1201.17" font-family="Arial" font-size="10.00">parent</text>
</g>
<!-- e50 -->
<g id="node12" class="node"><title>e50</title>
<a xlink:href="../examples/org/sdmlib/examples/helloworld/model/Edge.java" xlink:title="&lt;TABLE&gt;">
<polygon fill="none" stroke="black" points="28.025,-66 28.025,-83 91.025,-83 91.025,-66 28.025,-66"/>
<text text-anchor="start" x="35.025" y="-72.5" font-family="Arial" font-size="10.00"> </text>
<text text-anchor="start" x="39.025" y="-72.5" font-family="Arial" font-size="10.00">e50 :Edge</text>
</a>
<polygon fill="none" stroke="black" points="28.025,-4 28.025,-66 91.025,-66 91.025,-4 28.025,-4"/>
<text text-anchor="start" x="33.025" y="-54" font-family="Arial" font-size="10.00">text = &quot;e18&quot;</text>
<text text-anchor="start" x="33.025" y="-40" font-family="Arial" font-size="10.00">graph = &quot;&quot;</text>
<text text-anchor="start" x="33.025" y="-26" font-family="Arial" font-size="10.00">name = &quot;&quot;</text>
<text text-anchor="start" x="33.025" y="-12" font-family="Arial" font-size="10.00">tgt = &quot;&quot;</text>
</g>
<!-- g39&#45;&#45;e50 -->
<g id="edge18" class="edge"><title>g39&#45;&#45;e50</title>
<path fill="none" stroke="black" d="M349.919,-1200.65C268.096,-1199.09 79.411,-1190.8 35.025,-1148 -17.055,-1097.78 5.02499,-1060.35 5.02499,-988 5.02499,-988 5.02499,-988 5.02499,-284 5.02499,-213.811 27.4577,-134.814 43.4059,-87.5218"/>
<text text-anchor="middle" x="44.5983" y="-94.9504" font-family="Arial" font-size="10.00">gcs</text>
<text text-anchor="middle" x="340.751" y="-1202.15" font-family="Arial" font-size="10.00">parent</text>
</g>
<!-- e51 -->
<g id="node13" class="node"><title>e51</title>
<a xlink:href="../examples/org/sdmlib/examples/helloworld/model/Edge.java" xlink:title="&lt;TABLE&gt;">
<polygon fill="none" stroke="black" points="321.025,-59 321.025,-76 384.025,-76 384.025,-59 321.025,-59"/>
<text text-anchor="start" x="328.025" y="-65.5" font-family="Arial" font-size="10.00"> </text>
<text text-anchor="start" x="332.025" y="-65.5" font-family="Arial" font-size="10.00">e51 :Edge</text>
</a>
<polygon fill="none" stroke="black" points="321.025,-11 321.025,-59 384.025,-59 384.025,-11 321.025,-11"/>
<text text-anchor="start" x="326.025" y="-47" font-family="Arial" font-size="10.00">text = &quot;e15&quot;</text>
<text text-anchor="start" x="326.025" y="-33" font-family="Arial" font-size="10.00">graph = &quot;&quot;</text>
<text text-anchor="start" x="326.025" y="-19" font-family="Arial" font-size="10.00">name = &quot;&quot;</text>
</g>
<!-- g39&#45;&#45;e51 -->
<g id="edge32" class="edge"><title>g39&#45;&#45;e51</title>
<path fill="none" stroke="black" d="M410.617,-1183.82C421.591,-1174.37 434.089,-1161.77 442.025,-1148 478.678,-1084.4 483.025,-1061.41 483.025,-988 483.025,-988 483.025,-988 483.025,-284 483.025,-203.561 425.257,-124.561 386.444,-80.5607"/>
<text text-anchor="middle" x="395.542" y="-82.21" font-family="Arial" font-size="10.00">gcs</text>
<text text-anchor="middle" x="414.635" y="-1172.16" font-family="Arial" font-size="10.00">parent</text>
</g>
<!-- e52 -->
<g id="node14" class="node"><title>e52</title>
<a xlink:href="../examples/org/sdmlib/examples/helloworld/model/Edge.java" xlink:title="&lt;TABLE&gt;">
<polygon fill="none" stroke="black" points="454.025,-66 454.025,-83 517.025,-83 517.025,-66 454.025,-66"/>
<text text-anchor="start" x="461.025" y="-72.5" font-family="Arial" font-size="10.00"> </text>
<text text-anchor="start" x="465.025" y="-72.5" font-family="Arial" font-size="10.00">e52 :Edge</text>
</a>
<polygon fill="none" stroke="black" points="454.025,-4 454.025,-66 517.025,-66 517.025,-4 454.025,-4"/>
<text text-anchor="start" x="459.025" y="-54" font-family="Arial" font-size="10.00">text = &quot;e19&quot;</text>
<text text-anchor="start" x="459.025" y="-40" font-family="Arial" font-size="10.00">graph = &quot;&quot;</text>
<text text-anchor="start" x="459.025" y="-26" font-family="Arial" font-size="10.00">name = &quot;&quot;</text>
<text text-anchor="start" x="459.025" y="-12" font-family="Arial" font-size="10.00">src = &quot;&quot;</text>
</g>
<!-- g39&#45;&#45;e52 -->
<g id="edge20" class="edge"><title>g39&#45;&#45;e52</title>
<path fill="none" stroke="black" d="M426.458,-1185.42C443.55,-1176.72 462.58,-1164.31 475.025,-1148 519.909,-1089.18 521.025,-1061.99 521.025,-988 521.025,-988 521.025,-988 521.025,-284 521.025,-214.764 506.07,-135.492 495.438,-87.8832"/>
<text text-anchor="middle" x="501.492" y="-93.3425" font-family="Arial" font-size="10.00">gcs</text>
<text text-anchor="middle" x="432.515" y="-1174.96" font-family="Arial" font-size="10.00">parent</text>
</g>
<!-- n53 -->
<g id="node15" class="node"><title>n53</title>
<a xlink:href="../examples/org/sdmlib/examples/helloworld/model/Node.java" xlink:title="&lt;TABLE&gt;">
<polygon fill="none" stroke="black" points="557.025,-1126 557.025,-1143 615.025,-1143 615.025,-1126 557.025,-1126"/>
<text text-anchor="start" x="561.525" y="-1132.5" font-family="Arial" font-size="10.00"> </text>
<text text-anchor="start" x="565.525" y="-1132.5" font-family="Arial" font-size="10.00">n53 :Node</text>
</a>
<polygon fill="none" stroke="black" points="557.025,-1064 557.025,-1126 615.025,-1126 615.025,-1064 557.025,-1064"/>
<text text-anchor="start" x="562.025" y="-1114" font-family="Arial" font-size="10.00">text = &quot;n6&quot;</text>
<text text-anchor="start" x="562.025" y="-1100" font-family="Arial" font-size="10.00">graph = &quot;&quot;</text>
<text text-anchor="start" x="562.025" y="-1086" font-family="Arial" font-size="10.00">name = &quot;&quot;</text>
<text text-anchor="start" x="562.025" y="-1072" font-family="Arial" font-size="10.00">copy = &quot;&quot;</text>
</g>
<!-- g39&#45;&#45;n53 -->
<g id="edge12" class="edge"><title>g39&#45;&#45;n53</title>
<path fill="none" stroke="black" d="M426.181,-1191.28C456.844,-1182.54 500.364,-1168 535.025,-1148 539.74,-1145.28 544.443,-1142.11 548.979,-1138.75"/>
<text text-anchor="middle" x="544.176" y="-1145.02" font-family="Arial" font-size="10.00">gcs</text>
<text text-anchor="middle" x="433.694" y="-1182.18" font-family="Arial" font-size="10.00">parent</text>
</g>
<!-- n54 -->
<g id="node16" class="node"><title>n54</title>
<a xlink:href="../examples/org/sdmlib/examples/helloworld/model/Node.java" xlink:title="&lt;TABLE&gt;">
<polygon fill="none" stroke="black" points="649.025,-1126 649.025,-1143 707.025,-1143 707.025,-1126 649.025,-1126"/>
<text text-anchor="start" x="653.525" y="-1132.5" font-family="Arial" font-size="10.00"> </text>
<text text-anchor="start" x="657.525" y="-1132.5" font-family="Arial" font-size="10.00">n54 :Node</text>
</a>
<polygon fill="none" stroke="black" points="649.025,-1064 649.025,-1126 707.025,-1126 707.025,-1064 649.025,-1064"/>
<text text-anchor="start" x="654.025" y="-1114" font-family="Arial" font-size="10.00">text = &quot;n7&quot;</text>
<text text-anchor="start" x="654.025" y="-1100" font-family="Arial" font-size="10.00">graph = &quot;&quot;</text>
<text text-anchor="start" x="654.025" y="-1086" font-family="Arial" font-size="10.00">name = &quot;&quot;</text>
<text text-anchor="start" x="654.025" y="-1072" font-family="Arial" font-size="10.00">copy = &quot;&quot;</text>
</g>
<!-- g39&#45;&#45;n54 -->
<g id="edge14" class="edge"><title>g39&#45;&#45;n54</title>
<path fill="none" stroke="black" d="M426.098,-1198.98C475.996,-1194.99 565.027,-1183.12 632.025,-1148 635.027,-1146.43 637.976,-1144.6 640.841,-1142.62"/>
<text text-anchor="middle" x="635.759" y="-1148.73" font-family="Arial" font-size="10.00">gcs</text>
<text text-anchor="middle" x="434.745" y="-1191.46" font-family="Arial" font-size="10.00">parent</text>
</g>
<!-- n55 -->
<g id="node17" class="node"><title>n55</title>
<a xlink:href="../examples/org/sdmlib/examples/helloworld/model/Node.java" xlink:title="&lt;TABLE&gt;">
<polygon fill="none" stroke="black" points="779.025,-1126 779.025,-1143 837.025,-1143 837.025,-1126 779.025,-1126"/>
<text text-anchor="start" x="783.525" y="-1132.5" font-family="Arial" font-size="10.00"> </text>
<text text-anchor="start" x="787.525" y="-1132.5" font-family="Arial" font-size="10.00">n55 :Node</text>
</a>
<polygon fill="none" stroke="black" points="779.025,-1064 779.025,-1126 837.025,-1126 837.025,-1064 779.025,-1064"/>
<text text-anchor="start" x="784.025" y="-1114" font-family="Arial" font-size="10.00">text = &quot;n8&quot;</text>
<text text-anchor="start" x="784.025" y="-1100" font-family="Arial" font-size="10.00">graph = &quot;&quot;</text>
<text text-anchor="start" x="784.025" y="-1086" font-family="Arial" font-size="10.00">name = &quot;&quot;</text>
<text text-anchor="start" x="784.025" y="-1072" font-family="Arial" font-size="10.00">copy = &quot;&quot;</text>
</g>
<!-- g39&#45;&#45;n55 -->
<g id="edge16" class="edge"><title>g39&#45;&#45;n55</title>
<path fill="none" stroke="black" d="M426.329,-1198.18C508.364,-1191.72 698.341,-1174.32 757.025,-1148 761.78,-1145.87 766.44,-1143.16 770.89,-1140.13"/>
<text text-anchor="middle" x="765.705" y="-1146.19" font-family="Arial" font-size="10.00">gcs</text>
<text text-anchor="middle" x="435.016" y="-1190.73" font-family="Arial" font-size="10.00">parent</text>
</g>
<!-- e56 -->
<g id="node18" class="node"><title>e56</title>
<a xlink:href="../examples/org/sdmlib/examples/helloworld/model/Edge.java" xlink:title="&lt;TABLE&gt;">
<polygon fill="none" stroke="black" points="720.025,-1002 720.025,-1019 783.025,-1019 783.025,-1002 720.025,-1002"/>
<text text-anchor="start" x="727.025" y="-1008.5" font-family="Arial" font-size="10.00"> </text>
<text text-anchor="start" x="731.025" y="-1008.5" font-family="Arial" font-size="10.00">e56 :Edge</text>
</a>
<polygon fill="none" stroke="black" points="720.025,-954 720.025,-1002 783.025,-1002 783.025,-954 720.025,-954"/>
<text text-anchor="start" x="725.025" y="-990" font-family="Arial" font-size="10.00">text = &quot;e16&quot;</text>
<text text-anchor="start" x="725.025" y="-976" font-family="Arial" font-size="10.00">graph = &quot;&quot;</text>
<text text-anchor="start" x="725.025" y="-962" font-family="Arial" font-size="10.00">name = &quot;&quot;</text>
</g>
<!-- g39&#45;&#45;e56 -->
<g id="edge34" class="edge"><title>g39&#45;&#45;e56</title>
<path fill="none" stroke="black" d="M426.149,-1200.39C505.095,-1198.29 682.569,-1189.01 724.025,-1148 756.567,-1115.8 758.675,-1060.01 755.874,-1023.56"/>
<text text-anchor="middle" x="760.619" y="-1029.86" font-family="Arial" font-size="10.00">gcs</text>
<text text-anchor="middle" x="435.068" y="-1193.37" font-family="Arial" font-size="10.00">parent</text>
</g>
<!-- e57 -->
<g id="node19" class="node"><title>e57</title>
<a xlink:href="../examples/org/sdmlib/examples/helloworld/model/Edge.java" xlink:title="&lt;TABLE&gt;">
<polygon fill="none" stroke="black" points="833.025,-1002 833.025,-1019 896.025,-1019 896.025,-1002 833.025,-1002"/>
<text text-anchor="start" x="840.025" y="-1008.5" font-family="Arial" font-size="10.00"> </text>
<text text-anchor="start" x="844.025" y="-1008.5" font-family="Arial" font-size="10.00">e57 :Edge</text>
</a>
<polygon fill="none" stroke="black" points="833.025,-954 833.025,-1002 896.025,-1002 896.025,-954 833.025,-954"/>
<text text-anchor="start" x="838.025" y="-990" font-family="Arial" font-size="10.00">text = &quot;e17&quot;</text>
<text text-anchor="start" x="838.025" y="-976" font-family="Arial" font-size="10.00">graph = &quot;&quot;</text>
<text text-anchor="start" x="838.025" y="-962" font-family="Arial" font-size="10.00">name = &quot;&quot;</text>
</g>
<!-- g39&#45;&#45;e57 -->
<g id="edge36" class="edge"><title>g39&#45;&#45;e57</title>
<path fill="none" stroke="black" d="M426.035,-1199.43C531.966,-1194.69 824.681,-1178.87 854.025,-1148 885.086,-1115.32 880.84,-1059.93 873.534,-1023.66"/>
<text text-anchor="middle" x="879.308" y="-1029.32" font-family="Arial" font-size="10.00">gcs</text>
<text text-anchor="middle" x="434.887" y="-1192.28" font-family="Arial" font-size="10.00">parent</text>
</g>
<!-- n40&#45;&#45;e41 -->
<g id="edge40" class="edge"><title>n40&#45;&#45;e41</title>
<path fill="none" stroke="black" d="M241.058,-1060.18C244.712,-1048.17 248.644,-1035.25 252.158,-1023.71"/>
<text text-anchor="middle" x="253.562" y="-1031.11" font-family="Arial" font-size="10.00">outEdges</text>
<text text-anchor="middle" x="239.653" y="-1047.78" font-family="Arial" font-size="10.00">src</text>
</g>
<!-- n40&#45;&#45;e45 -->
<g id="edge38" class="edge"><title>n40&#45;&#45;e45</title>
<path fill="none" stroke="black" d="M218.302,-1060.5C208.568,-1014.17 195.025,-937.72 195.025,-871 195.025,-871 195.025,-871 195.025,-752 195.025,-682.48 191.393,-601.31 189.023,-555.756"/>
<text text-anchor="middle" x="193.702" y="-562.094" font-family="Arial" font-size="10.00">inEdges</text>
<text text-anchor="middle" x="212.347" y="-1049.96" font-family="Arial" font-size="10.00">tgt</text>
</g>
<!-- e41&#45;&#45;n42 -->
<g id="edge42" class="edge"><title>e41&#45;&#45;n42</title>
<path fill="none" stroke="black" d="M287.588,-950.244C295.56,-938.639 304.483,-925.649 312.763,-913.597"/>
<text text-anchor="middle" x="311.114" y="-920.96" font-family="Arial" font-size="10.00">tgt</text>
<text text-anchor="middle" x="289.236" y="-937.88" font-family="Arial" font-size="10.00">inEdges</text>
</g>
<!-- n42&#45;&#45;e43 -->
<g id="edge44" class="edge"><title>n42&#45;&#45;e43</title>
<path fill="none" stroke="black" d="M344.632,-826.178C345.362,-814.173 346.149,-801.252 346.852,-789.707"/>
<text text-anchor="middle" x="350.519" y="-796.51" font-family="Arial" font-size="10.00">outEdges</text>
<text text-anchor="middle" x="340.964" y="-814.375" font-family="Arial" font-size="10.00">src</text>
</g>
<!-- e43&#45;&#45;n44 -->
<g id="edge46" class="edge"><title>e43&#45;&#45;n44</title>
<path fill="none" stroke="black" d="M349.025,-716.244C349.025,-704.639 349.025,-691.649 349.025,-679.597"/>
<text text-anchor="middle" x="353.251" y="-686.16" font-family="Arial" font-size="10.00">tgt</text>
<text text-anchor="middle" x="344.799" y="-704.681" font-family="Arial" font-size="10.00">inEdges</text>
</g>
<!-- n44&#45;&#45;e45 -->
<g id="edge50" class="edge"><title>n44&#45;&#45;e45</title>
<path fill="none" stroke="black" d="M311.813,-609.732C289.416,-594.395 260.415,-574.309 235.025,-556 232.237,-553.989 229.37,-551.899 226.491,-549.783"/>
<text text-anchor="middle" x="236.297" y="-549.241" font-family="Arial" font-size="10.00">outEdges</text>
<text text-anchor="middle" x="301.949" y="-605.591" font-family="Arial" font-size="10.00">src</text>
</g>
<!-- n44&#45;&#45;e46 -->
<g id="edge52" class="edge"><title>n44&#45;&#45;e46</title>
<path fill="none" stroke="black" d="M324.821,-592.178C318.036,-580.173 310.733,-567.252 304.207,-555.707"/>
<text text-anchor="middle" x="312.346" y="-559.018" font-family="Arial" font-size="10.00">outEdges</text>
<text text-anchor="middle" x="316.683" y="-583.868" font-family="Arial" font-size="10.00">src</text>
</g>
<!-- n44&#45;&#45;e51 -->
<g id="edge48" class="edge"><title>n44&#45;&#45;e51</title>
<path fill="none" stroke="black" d="M349.909,-592.243C350.794,-545.694 352.025,-469.061 352.025,-403 352.025,-403 352.025,-403 352.025,-284 352.025,-211.802 352.025,-127.336 352.025,-80.6327"/>
<text text-anchor="middle" x="356.251" y="-87.1958" font-family="Arial" font-size="10.00">inEdges</text>
<text text-anchor="middle" x="345.851" y="-580.603" font-family="Arial" font-size="10.00">tgt</text>
</g>
<!-- e46&#45;&#45;n47 -->
<g id="edge54" class="edge"><title>e46&#45;&#45;n47</title>
<path fill="none" stroke="black" d="M244.48,-485.046C225.205,-468.984 202.156,-449.776 183.206,-433.985"/>
<text text-anchor="middle" x="192.874" y="-434.04" font-family="Arial" font-size="10.00">tgt</text>
<text text-anchor="middle" x="234.812" y="-479.99" font-family="Arial" font-size="10.00">inEdges</text>
</g>
<!-- n47&#45;&#45;e48 -->
<g id="edge56" class="edge"><title>n47&#45;&#45;e48</title>
<path fill="none" stroke="black" d="M139.695,-358.178C137.92,-346.173 136.01,-333.252 134.303,-321.707"/>
<text text-anchor="middle" x="139.81" y="-327.555" font-family="Arial" font-size="10.00">outEdges</text>
<text text-anchor="middle" x="134.189" y="-347.331" font-family="Arial" font-size="10.00">src</text>
</g>
<!-- e48&#45;&#45;n49 -->
<g id="edge58" class="edge"><title>e48&#45;&#45;n49</title>
<path fill="none" stroke="black" d="M129.025,-248.244C129.025,-236.639 129.025,-223.649 129.025,-211.597"/>
<text text-anchor="middle" x="133.251" y="-218.16" font-family="Arial" font-size="10.00">tgt</text>
<text text-anchor="middle" x="124.799" y="-236.681" font-family="Arial" font-size="10.00">inEdges</text>
</g>
<!-- n49&#45;&#45;e50 -->
<g id="edge62" class="edge"><title>n49&#45;&#45;e50</title>
<path fill="none" stroke="black" d="M104.542,-124.33C97.7612,-112.512 90.3992,-99.6809 83.6121,-87.8518"/>
<text text-anchor="middle" x="91.7882" y="-91.1096" font-family="Arial" font-size="10.00">outEdges</text>
<text text-anchor="middle" x="96.3663" y="-116.073" font-family="Arial" font-size="10.00">src</text>
</g>
<!-- n49&#45;&#45;e51 -->
<g id="edge64" class="edge"><title>n49&#45;&#45;e51</title>
<path fill="none" stroke="black" d="M166.099,-146.717C206.598,-124.561 271.205,-89.2152 312.607,-66.5651"/>
<text text-anchor="middle" x="306.684" y="-72.1225" font-family="Arial" font-size="10.00">outEdges</text>
<text text-anchor="middle" x="172.022" y="-136.16" font-family="Arial" font-size="10.00">src</text>
</g>
<!-- n49&#45;&#45;e52 -->
<g id="edge60" class="edge"><title>n49&#45;&#45;e52</title>
<path fill="none" stroke="black" d="M166.126,-158.495C219.006,-145.857 318.659,-120.122 400.025,-88 415.254,-81.9881 431.416,-74.1953 445.512,-66.8981"/>
<text text-anchor="middle" x="439.38" y="-72.2975" font-family="Arial" font-size="10.00">inEdges</text>
<text text-anchor="middle" x="173.936" y="-149.749" font-family="Arial" font-size="10.00">tgt</text>
</g>
<!-- n55&#45;&#45;e56 -->
<g id="edge66" class="edge"><title>n55&#45;&#45;e56</title>
<path fill="none" stroke="black" d="M786.8,-1060.18C780.85,-1048.17 774.446,-1035.25 768.723,-1023.71"/>
<text text-anchor="middle" x="776.535" y="-1027.45" font-family="Arial" font-size="10.00">inEdges_outEdges</text>
<text text-anchor="middle" x="778.989" y="-1051.43" font-family="Arial" font-size="10.00">tgt_src</text>
</g>
<!-- n55&#45;&#45;e57 -->
<g id="edge68" class="edge"><title>n55&#45;&#45;e57</title>
<path fill="none" stroke="black" d="M828.877,-1060.18C834.724,-1048.17 841.015,-1035.25 846.637,-1023.71"/>
<text text-anchor="middle" x="846.469" y="-1031.21" font-family="Arial" font-size="10.00">inEdges_outEdges</text>
<text text-anchor="middle" x="829.046" y="-1047.68" font-family="Arial" font-size="10.00">tgt_src</text>
</g>
</g>
</svg>
