<?xml version="1.0" encoding="UTF-8" standalone="no"?>
<!DOCTYPE svg PUBLIC "-//W3C//DTD SVG 1.1//EN"
 "http://www.w3.org/Graphics/SVG/1.1/DTD/svg11.dtd">
<!-- Generated by graphviz version 2.28.0 (20110507.0327)
 -->
<!-- Title: ObjectDiagram Pages: 1 -->
<svg width="920pt" height="864pt"
 viewBox="0.00 0.00 920.00 864.00" xmlns="http://www.w3.org/2000/svg" xmlns:xlink="http://www.w3.org/1999/xlink">
<g id="graph1" class="graph" transform="scale(1 1) rotate(0) translate(4 860)">
<title>ObjectDiagram</title>
<polygon fill="white" stroke="white" points="-4,5 -4,-860 917,-860 917,5 -4,5"/>
<!-- g132 -->
<g id="node1" class="node"><title>g132</title>
<a xlink:href="../examples/org/sdmlib/examples/helloworld/Graph.java" xlink:title="&lt;TABLE&gt;">
<polygon fill="none" stroke="black" points="356,-829 356,-846 414,-846 414,-829 356,-829"/>
<text text-anchor="start" x="359.5" y="-835.5" font-family="Times New Roman,serif" font-size="10.00"> </text>
<text text-anchor="start" x="362.5" y="-835.5" font-family="Times New Roman,serif" font-size="10.00">g132 :Graph</text>
</a>
</g>
<!-- n133 -->
<g id="node2" class="node"><title>n133</title>
<a xlink:href="../examples/org/sdmlib/examples/helloworld/Node.java" xlink:title="&lt;TABLE&gt;">
<polygon fill="none" stroke="black" points="193,-762 193,-779 254,-779 254,-762 193,-762"/>
<text text-anchor="start" x="199" y="-768.5" font-family="Times New Roman,serif" font-size="10.00"> </text>
<text text-anchor="start" x="202" y="-768.5" font-family="Times New Roman,serif" font-size="10.00">n133 :Node</text>
</a>
<polygon fill="none" stroke="black" points="193,-742 193,-762 254,-762 254,-742 193,-742"/>
<text text-anchor="start" x="198" y="-750" font-family="Times New Roman,serif" font-size="10.00">name = &quot;n1&quot;</text>
</g>
<!-- g132&#45;&#45;n133 -->
<g id="edge2" class="edge"><title>g132&#45;&#45;n133</title>
<path fill="none" stroke="black" d="M348.24,-819.981C322.288,-807.966 287.595,-791.905 261.305,-779.734"/>
<text text-anchor="middle" x="271.305" y="-777.206" font-family="Times New Roman,serif" font-size="10.00">nodes</text>
<text text-anchor="middle" x="338.24" y="-817.509" font-family="Times New Roman,serif" font-size="10.00">graph</text>
</g>
<!-- e134 -->
<g id="node3" class="node"><title>e134</title>
<a xlink:href="../examples/org/sdmlib/examples/helloworld/Edge.java" xlink:title="&lt;TABLE&gt;">
<polygon fill="none" stroke="black" points="227,-680 227,-697 292,-697 292,-680 227,-680"/>
<text text-anchor="start" x="236.5" y="-686.5" font-family="Times New Roman,serif" font-size="10.00"> </text>
<text text-anchor="start" x="239.5" y="-686.5" font-family="Times New Roman,serif" font-size="10.00">e134 :Edge</text>
</a>
<polygon fill="none" stroke="black" points="227,-660 227,-680 292,-680 292,-660 227,-660"/>
<text text-anchor="start" x="232" y="-668" font-family="Times New Roman,serif" font-size="10.00">name = &quot;e10&quot;</text>
</g>
<!-- g132&#45;&#45;e134 -->
<g id="edge22" class="edge"><title>g132&#45;&#45;e134</title>
<path fill="none" stroke="black" d="M356.34,-819.891C342.355,-810.544 326.004,-798.022 314,-784 292.482,-758.864 276.173,-723.894 267.097,-701.602"/>
<text text-anchor="middle" x="274.486" y="-705.84" font-family="Times New Roman,serif" font-size="10.00">edges</text>
<text text-anchor="middle" x="346.469" y="-815.788" font-family="Times New Roman,serif" font-size="10.00">graph</text>
</g>
<!-- n135 -->
<g id="node4" class="node"><title>n135</title>
<a xlink:href="../examples/org/sdmlib/examples/helloworld/Node.java" xlink:title="&lt;TABLE&gt;">
<polygon fill="none" stroke="black" points="307,-598 307,-615 368,-615 368,-598 307,-598"/>
<text text-anchor="start" x="313" y="-604.5" font-family="Times New Roman,serif" font-size="10.00"> </text>
<text text-anchor="start" x="316" y="-604.5" font-family="Times New Roman,serif" font-size="10.00">n135 :Node</text>
</a>
<polygon fill="none" stroke="black" points="307,-578 307,-598 368,-598 368,-578 307,-578"/>
<text text-anchor="start" x="312" y="-586" font-family="Times New Roman,serif" font-size="10.00">name = &quot;n2&quot;</text>
</g>
<!-- g132&#45;&#45;n135 -->
<g id="edge4" class="edge"><title>g132&#45;&#45;n135</title>
<path fill="none" stroke="black" d="M381.548,-819.812C372.993,-777.213 350.819,-666.809 341.37,-619.757"/>
<text text-anchor="middle" x="347.298" y="-625.31" font-family="Times New Roman,serif" font-size="10.00">nodes</text>
<text text-anchor="middle" x="375.62" y="-809.258" font-family="Times New Roman,serif" font-size="10.00">graph</text>
</g>
<!-- e136 -->
<g id="node5" class="node"><title>e136</title>
<a xlink:href="../examples/org/sdmlib/examples/helloworld/Edge.java" xlink:title="&lt;TABLE&gt;">
<polygon fill="none" stroke="black" points="313,-516 313,-533 378,-533 378,-516 313,-516"/>
<text text-anchor="start" x="322.5" y="-522.5" font-family="Times New Roman,serif" font-size="10.00"> </text>
<text text-anchor="start" x="325.5" y="-522.5" font-family="Times New Roman,serif" font-size="10.00">e136 :Edge</text>
</a>
<polygon fill="none" stroke="black" points="313,-496 313,-516 378,-516 378,-496 313,-496"/>
<text text-anchor="start" x="318" y="-504" font-family="Times New Roman,serif" font-size="10.00">name = &quot;e11&quot;</text>
</g>
<!-- g132&#45;&#45;e136 -->
<g id="edge24" class="edge"><title>g132&#45;&#45;e136</title>
<path fill="none" stroke="black" d="M388.277,-819.876C395.741,-777.182 411.339,-663.044 384,-574 379.94,-560.776 371.762,-547.828 363.939,-537.533"/>
<text text-anchor="middle" x="372.737" y="-539.786" font-family="Times New Roman,serif" font-size="10.00">edges</text>
<text text-anchor="middle" x="385.571" y="-807.749" font-family="Times New Roman,serif" font-size="10.00">graph</text>
</g>
<!-- n137 -->
<g id="node6" class="node"><title>n137</title>
<a xlink:href="../examples/org/sdmlib/examples/helloworld/Node.java" xlink:title="&lt;TABLE&gt;">
<polygon fill="none" stroke="black" points="315,-434 315,-451 376,-451 376,-434 315,-434"/>
<text text-anchor="start" x="321" y="-440.5" font-family="Times New Roman,serif" font-size="10.00"> </text>
<text text-anchor="start" x="324" y="-440.5" font-family="Times New Roman,serif" font-size="10.00">n137 :Node</text>
</a>
<polygon fill="none" stroke="black" points="315,-414 315,-434 376,-434 376,-414 315,-414"/>
<text text-anchor="start" x="320" y="-422" font-family="Times New Roman,serif" font-size="10.00">name = &quot;n3&quot;</text>
</g>
<!-- g132&#45;&#45;n137 -->
<g id="edge6" class="edge"><title>g132&#45;&#45;n137</title>
<path fill="none" stroke="black" d="M395.721,-819.849C412.233,-791.747 442,-733.646 442,-680 442,-680 442,-680 442,-596 442,-538.961 397.188,-484.619 368.481,-455.659"/>
<text text-anchor="middle" x="377.803" y="-456.778" font-family="Times New Roman,serif" font-size="10.00">nodes</text>
<text text-anchor="middle" x="396.545" y="-807.383" font-family="Times New Roman,serif" font-size="10.00">graph</text>
</g>
<!-- e138 -->
<g id="node7" class="node"><title>e138</title>
<a xlink:href="../examples/org/sdmlib/examples/helloworld/Edge.java" xlink:title="&lt;TABLE&gt;">
<polygon fill="none" stroke="black" points="151,-352 151,-369 216,-369 216,-352 151,-352"/>
<text text-anchor="start" x="160.5" y="-358.5" font-family="Times New Roman,serif" font-size="10.00"> </text>
<text text-anchor="start" x="163.5" y="-358.5" font-family="Times New Roman,serif" font-size="10.00">e138 :Edge</text>
</a>
<polygon fill="none" stroke="black" points="151,-332 151,-352 216,-352 216,-332 151,-332"/>
<text text-anchor="start" x="156" y="-340" font-family="Times New Roman,serif" font-size="10.00">name = &quot;e12&quot;</text>
</g>
<!-- g132&#45;&#45;e138 -->
<g id="edge26" class="edge"><title>g132&#45;&#45;e138</title>
<path fill="none" stroke="black" d="M347.591,-832.305C293.867,-824.8 198.704,-808.416 175,-784 142.025,-750.035 152,-727.339 152,-680 152,-680 152,-680 152,-514 152,-463.029 166.987,-404.619 176.12,-373.757"/>
<text text-anchor="middle" x="177.673" y="-381.136" font-family="Times New Roman,serif" font-size="10.00">edges</text>
<text text-anchor="middle" x="338.013" y="-832.678" font-family="Times New Roman,serif" font-size="10.00">graph</text>
</g>
<!-- e139 -->
<g id="node8" class="node"><title>e139</title>
<a xlink:href="../examples/org/sdmlib/examples/helloworld/Edge.java" xlink:title="&lt;TABLE&gt;">
<polygon fill="none" stroke="black" points="250,-352 250,-369 315,-369 315,-352 250,-352"/>
<text text-anchor="start" x="259.5" y="-358.5" font-family="Times New Roman,serif" font-size="10.00"> </text>
<text text-anchor="start" x="262.5" y="-358.5" font-family="Times New Roman,serif" font-size="10.00">e139 :Edge</text>
</a>
<polygon fill="none" stroke="black" points="250,-332 250,-352 315,-352 315,-332 250,-332"/>
<text text-anchor="start" x="255" y="-340" font-family="Times New Roman,serif" font-size="10.00">name = &quot;e13&quot;</text>
</g>
<!-- g132&#45;&#45;e139 -->
<g id="edge28" class="edge"><title>g132&#45;&#45;e139</title>
<path fill="none" stroke="black" d="M377.816,-819.886C360.153,-777.844 315.498,-671.766 308,-656 300.23,-639.662 293.579,-637.503 289,-620 265.735,-531.069 274.201,-419.845 279.285,-373.657"/>
<text text-anchor="middle" x="282.577" y="-380.599" font-family="Times New Roman,serif" font-size="10.00">edges</text>
<text text-anchor="middle" x="370.408" y="-810.669" font-family="Times New Roman,serif" font-size="10.00">graph</text>
</g>
<!-- n140 -->
<g id="node9" class="node"><title>n140</title>
<a xlink:href="../examples/org/sdmlib/examples/helloworld/Node.java" xlink:title="&lt;TABLE&gt;">
<polygon fill="none" stroke="black" points="113,-270 113,-287 174,-287 174,-270 113,-270"/>
<text text-anchor="start" x="119" y="-276.5" font-family="Times New Roman,serif" font-size="10.00"> </text>
<text text-anchor="start" x="122" y="-276.5" font-family="Times New Roman,serif" font-size="10.00">n140 :Node</text>
</a>
<polygon fill="none" stroke="black" points="113,-250 113,-270 174,-270 174,-250 113,-250"/>
<text text-anchor="start" x="118" y="-258" font-family="Times New Roman,serif" font-size="10.00">name = &quot;n4&quot;</text>
</g>
<!-- g132&#45;&#45;n140 -->
<g id="edge8" class="edge"><title>g132&#45;&#45;n140</title>
<path fill="none" stroke="black" d="M347.563,-833.138C288.382,-826.31 176.946,-810.294 148,-784 112.004,-751.302 114,-728.63 114,-680 114,-680 114,-680 114,-432 114,-380.999 128.099,-322.359 136.636,-291.529"/>
<text text-anchor="middle" x="138.358" y="-298.88" font-family="Times New Roman,serif" font-size="10.00">nodes</text>
<text text-anchor="middle" x="338.058" y="-833.743" font-family="Times New Roman,serif" font-size="10.00">graph</text>
</g>
<!-- e141 -->
<g id="node10" class="node"><title>e141</title>
<a xlink:href="../examples/org/sdmlib/examples/helloworld/Edge.java" xlink:title="&lt;TABLE&gt;">
<polygon fill="none" stroke="black" points="93,-188 93,-205 158,-205 158,-188 93,-188"/>
<text text-anchor="start" x="102.5" y="-194.5" font-family="Times New Roman,serif" font-size="10.00"> </text>
<text text-anchor="start" x="105.5" y="-194.5" font-family="Times New Roman,serif" font-size="10.00">e141 :Edge</text>
</a>
<polygon fill="none" stroke="black" points="93,-168 93,-188 158,-188 158,-168 93,-168"/>
<text text-anchor="start" x="98" y="-176" font-family="Times New Roman,serif" font-size="10.00">name = &quot;e14&quot;</text>
</g>
<!-- g132&#45;&#45;e141 -->
<g id="edge30" class="edge"><title>g132&#45;&#45;e141</title>
<path fill="none" stroke="black" d="M347.837,-834.143C282.275,-828.4 149.715,-813.414 115,-784 77.3366,-752.088 76,-729.365 76,-680 76,-680 76,-680 76,-350 76,-303.013 79.8176,-290.467 95,-246 99.2858,-233.448 105.92,-220.254 111.862,-209.627"/>
<text text-anchor="middle" x="111.183" y="-217.104" font-family="Times New Roman,serif" font-size="10.00">edges</text>
<text text-anchor="middle" x="338.42" y="-835.01" font-family="Times New Roman,serif" font-size="10.00">graph</text>
</g>
<!-- n142 -->
<g id="node11" class="node"><title>n142</title>
<a xlink:href="../examples/org/sdmlib/examples/helloworld/Node.java" xlink:title="&lt;TABLE&gt;">
<polygon fill="none" stroke="black" points="95,-106 95,-123 156,-123 156,-106 95,-106"/>
<text text-anchor="start" x="101" y="-112.5" font-family="Times New Roman,serif" font-size="10.00"> </text>
<text text-anchor="start" x="104" y="-112.5" font-family="Times New Roman,serif" font-size="10.00">n142 :Node</text>
</a>
<polygon fill="none" stroke="black" points="95,-86 95,-106 156,-106 156,-86 95,-86"/>
<text text-anchor="start" x="100" y="-94" font-family="Times New Roman,serif" font-size="10.00">name = &quot;n5&quot;</text>
</g>
<!-- g132&#45;&#45;n142 -->
<g id="edge10" class="edge"><title>g132&#45;&#45;n142</title>
<path fill="none" stroke="black" d="M347.958,-835.105C275.552,-830.696 118.762,-817.457 78,-784 39.7201,-752.58 38,-729.523 38,-680 38,-680 38,-680 38,-268 38,-218.94 50.3411,-206.413 75,-164 82.6177,-150.898 93.366,-137.963 102.946,-127.645"/>
<text text-anchor="middle" x="99.9413" y="-134.683" font-family="Times New Roman,serif" font-size="10.00">nodes</text>
<text text-anchor="middle" x="338.634" y="-836.221" font-family="Times New Roman,serif" font-size="10.00">graph</text>
</g>
<!-- e143 -->
<g id="node12" class="node"><title>e143</title>
<a xlink:href="../examples/org/sdmlib/examples/helloworld/Edge.java" xlink:title="&lt;TABLE&gt;">
<polygon fill="none" stroke="black" points="22,-24 22,-41 87,-41 87,-24 22,-24"/>
<text text-anchor="start" x="31.5" y="-30.5" font-family="Times New Roman,serif" font-size="10.00"> </text>
<text text-anchor="start" x="34.5" y="-30.5" font-family="Times New Roman,serif" font-size="10.00">e143 :Edge</text>
</a>
<polygon fill="none" stroke="black" points="22,-4 22,-24 87,-24 87,-4 22,-4"/>
<text text-anchor="start" x="27" y="-12" font-family="Times New Roman,serif" font-size="10.00">name = &quot;e18&quot;</text>
</g>
<!-- g132&#45;&#45;e143 -->
<g id="edge18" class="edge"><title>g132&#45;&#45;e143</title>
<path fill="none" stroke="black" d="M347.992,-835.901C268.924,-832.84 86.8998,-821.773 40,-784 1.43078,-752.936 0,-729.523 0,-680 0,-680 0,-680 0,-186 0,-133.378 25.9604,-75.8467 41.8813,-45.512"/>
<text text-anchor="middle" x="41.5282" y="-53.0057" font-family="Times New Roman,serif" font-size="10.00">edges</text>
<text text-anchor="middle" x="338.75" y="-837.222" font-family="Times New Roman,serif" font-size="10.00">graph</text>
</g>
<!-- e144 -->
<g id="node13" class="node"><title>e144</title>
<a xlink:href="../examples/org/sdmlib/examples/helloworld/Edge.java" xlink:title="&lt;TABLE&gt;">
<polygon fill="none" stroke="black" points="319,-24 319,-41 384,-41 384,-24 319,-24"/>
<text text-anchor="start" x="328.5" y="-30.5" font-family="Times New Roman,serif" font-size="10.00"> </text>
<text text-anchor="start" x="331.5" y="-30.5" font-family="Times New Roman,serif" font-size="10.00">e144 :Edge</text>
</a>
<polygon fill="none" stroke="black" points="319,-4 319,-24 384,-24 384,-4 319,-4"/>
<text text-anchor="start" x="324" y="-12" font-family="Times New Roman,serif" font-size="10.00">name = &quot;e15&quot;</text>
</g>
<!-- g132&#45;&#45;e144 -->
<g id="edge32" class="edge"><title>g132&#45;&#45;e144</title>
<path fill="none" stroke="black" d="M405.639,-819.991C416.382,-810.311 429.095,-797.456 438,-784 465.51,-742.429 480,-729.849 480,-680 480,-680 480,-680 480,-186 480,-124.701 422.779,-73.1946 384.556,-45.6277"/>
<text text-anchor="middle" x="394.342" y="-45.1866" font-family="Times New Roman,serif" font-size="10.00">edges</text>
<text text-anchor="middle" x="409.474" y="-808.256" font-family="Times New Roman,serif" font-size="10.00">graph</text>
</g>
<!-- e145 -->
<g id="node14" class="node"><title>e145</title>
<a xlink:href="../examples/org/sdmlib/examples/helloworld/Edge.java" xlink:title="&lt;TABLE&gt;">
<polygon fill="none" stroke="black" points="452,-24 452,-41 517,-41 517,-24 452,-24"/>
<text text-anchor="start" x="461.5" y="-30.5" font-family="Times New Roman,serif" font-size="10.00"> </text>
<text text-anchor="start" x="464.5" y="-30.5" font-family="Times New Roman,serif" font-size="10.00">e145 :Edge</text>
</a>
<polygon fill="none" stroke="black" points="452,-4 452,-24 517,-24 517,-4 452,-4"/>
<text text-anchor="start" x="457" y="-12" font-family="Times New Roman,serif" font-size="10.00">name = &quot;e19&quot;</text>
</g>
<!-- g132&#45;&#45;e145 -->
<g id="edge20" class="edge"><title>g132&#45;&#45;e145</title>
<path fill="none" stroke="black" d="M420.03,-819.972C435.878,-810.959 453.939,-798.699 467,-784 501.195,-745.517 518,-731.481 518,-680 518,-680 518,-680 518,-186 518,-134.847 501.562,-76.5081 491.546,-45.7067"/>
<text text-anchor="middle" x="498.309" y="-50.5723" font-family="Times New Roman,serif" font-size="10.00">edges</text>
<text text-anchor="middle" x="425.739" y="-809.262" font-family="Times New Roman,serif" font-size="10.00">graph</text>
</g>
<!-- n146 -->
<g id="node15" class="node"><title>n146</title>
<a xlink:href="../examples/org/sdmlib/examples/helloworld/Node.java" xlink:title="&lt;TABLE&gt;">
<polygon fill="none" stroke="black" points="555,-762 555,-779 616,-779 616,-762 555,-762"/>
<text text-anchor="start" x="561" y="-768.5" font-family="Times New Roman,serif" font-size="10.00"> </text>
<text text-anchor="start" x="564" y="-768.5" font-family="Times New Roman,serif" font-size="10.00">n146 :Node</text>
</a>
<polygon fill="none" stroke="black" points="555,-742 555,-762 616,-762 616,-742 555,-742"/>
<text text-anchor="start" x="560" y="-750" font-family="Times New Roman,serif" font-size="10.00">name = &quot;n6&quot;</text>
</g>
<!-- g132&#45;&#45;n146 -->
<g id="edge12" class="edge"><title>g132&#45;&#45;n146</title>
<path fill="none" stroke="black" d="M422.031,-824.195C451.865,-813.748 494.816,-798.412 532,-784 536.738,-782.164 541.691,-780.186 546.586,-778.196"/>
<text text-anchor="middle" x="539.777" y="-783.02" font-family="Times New Roman,serif" font-size="10.00">nodes</text>
<text text-anchor="middle" x="429.182" y="-814.704" font-family="Times New Roman,serif" font-size="10.00">graph</text>
</g>
<!-- n147 -->
<g id="node16" class="node"><title>n147</title>
<a xlink:href="../examples/org/sdmlib/examples/helloworld/Node.java" xlink:title="&lt;TABLE&gt;">
<polygon fill="none" stroke="black" points="650,-762 650,-779 711,-779 711,-762 650,-762"/>
<text text-anchor="start" x="656" y="-768.5" font-family="Times New Roman,serif" font-size="10.00"> </text>
<text text-anchor="start" x="659" y="-768.5" font-family="Times New Roman,serif" font-size="10.00">n147 :Node</text>
</a>
<polygon fill="none" stroke="black" points="650,-742 650,-762 711,-762 711,-742 650,-742"/>
<text text-anchor="start" x="655" y="-750" font-family="Times New Roman,serif" font-size="10.00">name = &quot;n7&quot;</text>
</g>
<!-- g132&#45;&#45;n147 -->
<g id="edge14" class="edge"><title>g132&#45;&#45;n147</title>
<path fill="none" stroke="black" d="M422.078,-831.638C470.988,-823.98 559.367,-808.116 632,-784 635.132,-782.96 638.332,-781.778 641.52,-780.513"/>
<text text-anchor="middle" x="634.636" y="-785.267" font-family="Times New Roman,serif" font-size="10.00">nodes</text>
<text text-anchor="middle" x="430.354" y="-823.525" font-family="Times New Roman,serif" font-size="10.00">graph</text>
</g>
<!-- n148 -->
<g id="node17" class="node"><title>n148</title>
<a xlink:href="../examples/org/sdmlib/examples/helloworld/Node.java" xlink:title="&lt;TABLE&gt;">
<polygon fill="none" stroke="black" points="784,-762 784,-779 845,-779 845,-762 784,-762"/>
<text text-anchor="start" x="790" y="-768.5" font-family="Times New Roman,serif" font-size="10.00"> </text>
<text text-anchor="start" x="793" y="-768.5" font-family="Times New Roman,serif" font-size="10.00">n148 :Node</text>
</a>
<polygon fill="none" stroke="black" points="784,-742 784,-762 845,-762 845,-742 784,-742"/>
<text text-anchor="start" x="789" y="-750" font-family="Times New Roman,serif" font-size="10.00">name = &quot;n8&quot;</text>
</g>
<!-- g132&#45;&#45;n148 -->
<g id="edge16" class="edge"><title>g132&#45;&#45;n148</title>
<path fill="none" stroke="black" d="M422.188,-834.886C490.41,-830.322 639.699,-817.146 761,-784 765.805,-782.687 770.755,-781.048 775.61,-779.259"/>
<text text-anchor="middle" x="768.542" y="-783.834" font-family="Times New Roman,serif" font-size="10.00">nodes</text>
<text text-anchor="middle" x="430.924" y="-827.52" font-family="Times New Roman,serif" font-size="10.00">graph</text>
</g>
<!-- e149 -->
<g id="node18" class="node"><title>e149</title>
<a xlink:href="../examples/org/sdmlib/examples/helloworld/Edge.java" xlink:title="&lt;TABLE&gt;">
<polygon fill="none" stroke="black" points="724,-680 724,-697 789,-697 789,-680 724,-680"/>
<text text-anchor="start" x="733.5" y="-686.5" font-family="Times New Roman,serif" font-size="10.00"> </text>
<text text-anchor="start" x="736.5" y="-686.5" font-family="Times New Roman,serif" font-size="10.00">e149 :Edge</text>
</a>
<polygon fill="none" stroke="black" points="724,-660 724,-680 789,-680 789,-660 724,-660"/>
<text text-anchor="start" x="729" y="-668" font-family="Times New Roman,serif" font-size="10.00">name = &quot;e16&quot;</text>
</g>
<!-- g132&#45;&#45;e149 -->
<g id="edge34" class="edge"><title>g132&#45;&#45;e149</title>
<path fill="none" stroke="black" d="M422.263,-836.174C501.351,-833.656 682.416,-823.603 727,-784 750.263,-763.336 755.551,-725.741 756.393,-701.862"/>
<text text-anchor="middle" x="760.134" y="-708.636" font-family="Times New Roman,serif" font-size="10.00">edges</text>
<text text-anchor="middle" x="431.16" y="-829.108" font-family="Times New Roman,serif" font-size="10.00">graph</text>
</g>
<!-- e150 -->
<g id="node19" class="node"><title>e150</title>
<a xlink:href="../examples/org/sdmlib/examples/helloworld/Edge.java" xlink:title="&lt;TABLE&gt;">
<polygon fill="none" stroke="black" points="840,-680 840,-697 905,-697 905,-680 840,-680"/>
<text text-anchor="start" x="849.5" y="-686.5" font-family="Times New Roman,serif" font-size="10.00"> </text>
<text text-anchor="start" x="852.5" y="-686.5" font-family="Times New Roman,serif" font-size="10.00">e150 :Edge</text>
</a>
<polygon fill="none" stroke="black" points="840,-660 840,-680 905,-680 905,-660 840,-660"/>
<text text-anchor="start" x="845" y="-668" font-family="Times New Roman,serif" font-size="10.00">name = &quot;e17&quot;</text>
</g>
<!-- g132&#45;&#45;e150 -->
<g id="edge36" class="edge"><title>g132&#45;&#45;e150</title>
<path fill="none" stroke="black" d="M422.22,-835.496C528.915,-830.826 830.181,-814.989 861,-784 882.253,-762.63 880.569,-725.245 876.758,-701.6"/>
<text text-anchor="middle" x="882.213" y="-707.481" font-family="Times New Roman,serif" font-size="10.00">edges</text>
<text text-anchor="middle" x="431.077" y="-828.353" font-family="Times New Roman,serif" font-size="10.00">graph</text>
</g>
<!-- n133&#45;&#45;e134 -->
<g id="edge38" class="edge"><title>n133&#45;&#45;e134</title>
<path fill="none" stroke="black" d="M232.837,-738.14C237.958,-726.759 244.198,-712.893 249.299,-701.557"/>
<text text-anchor="middle" x="249.434" y="-709.056" font-family="Times New Roman,serif" font-size="10.00">outEdges</text>
<text text-anchor="middle" x="232.702" y="-725.641" font-family="Times New Roman,serif" font-size="10.00">src</text>
</g>
<!-- n133&#45;&#45;e138 -->
<g id="edge40" class="edge"><title>n133&#45;&#45;e138</title>
<path fill="none" stroke="black" d="M215.676,-738.276C205.954,-707.454 190,-649.091 190,-598 190,-598 190,-598 190,-514 190,-463.75 186.597,-404.814 184.536,-373.736"/>
<text text-anchor="middle" x="189.338" y="-380.008" font-family="Times New Roman,serif" font-size="10.00">inEdges</text>
<text text-anchor="middle" x="208.976" y="-728.352" font-family="Times New Roman,serif" font-size="10.00">tgt</text>
</g>
<!-- e134&#45;&#45;n135 -->
<g id="edge42" class="edge"><title>e134&#45;&#45;n135</title>
<path fill="none" stroke="black" d="M280.314,-656.14C291.41,-644.759 304.929,-630.893 315.982,-619.557"/>
<text text-anchor="middle" x="312.681" y="-626.496" font-family="Times New Roman,serif" font-size="10.00">tgt</text>
<text text-anchor="middle" x="283.615" y="-644.2" font-family="Times New Roman,serif" font-size="10.00">inEdges</text>
</g>
<!-- n135&#45;&#45;e136 -->
<g id="edge44" class="edge"><title>n135&#45;&#45;e136</title>
<path fill="none" stroke="black" d="M339.186,-574.14C340.324,-562.759 341.711,-548.893 342.844,-537.557"/>
<text text-anchor="middle" x="346.148" y="-544.496" font-family="Times New Roman,serif" font-size="10.00">outEdges</text>
<text text-anchor="middle" x="335.883" y="-562.201" font-family="Times New Roman,serif" font-size="10.00">src</text>
</g>
<!-- e136&#45;&#45;n137 -->
<g id="edge46" class="edge"><title>e136&#45;&#45;n137</title>
<path fill="none" stroke="black" d="M345,-492.14C345,-480.759 345,-466.893 345,-455.557"/>
<text text-anchor="middle" x="349.226" y="-462.12" font-family="Times New Roman,serif" font-size="10.00">tgt</text>
<text text-anchor="middle" x="340.774" y="-480.577" font-family="Times New Roman,serif" font-size="10.00">inEdges</text>
</g>
<!-- n137&#45;&#45;e138 -->
<g id="edge48" class="edge"><title>n137&#45;&#45;e138</title>
<path fill="none" stroke="black" d="M306.608,-413.041C281.533,-400.658 248.841,-384.514 223.377,-371.939"/>
<text text-anchor="middle" x="233.374" y="-369.663" font-family="Times New Roman,serif" font-size="10.00">outEdges</text>
<text text-anchor="middle" x="296.611" y="-410.317" font-family="Times New Roman,serif" font-size="10.00">src</text>
</g>
<!-- n137&#45;&#45;e139 -->
<g id="edge50" class="edge"><title>n137&#45;&#45;e139</title>
<path fill="none" stroke="black" d="M327.785,-410.14C318.823,-398.759 307.903,-384.893 298.976,-373.557"/>
<text text-anchor="middle" x="307.904" y="-375.563" font-family="Times New Roman,serif" font-size="10.00">outEdges</text>
<text text-anchor="middle" x="318.858" y="-403.134" font-family="Times New Roman,serif" font-size="10.00">src</text>
</g>
<!-- n137&#45;&#45;e144 -->
<g id="edge52" class="edge"><title>n137&#45;&#45;e144</title>
<path fill="none" stroke="black" d="M346.317,-410.261C348.083,-379.178 351,-320.238 351,-270 351,-270 351,-270 351,-186 351,-135.797 351,-76.8425 351,-45.7485"/>
<text text-anchor="middle" x="355.226" y="-52.3116" font-family="Times New Roman,serif" font-size="10.00">inEdges</text>
<text text-anchor="middle" x="342.598" y="-398.478" font-family="Times New Roman,serif" font-size="10.00">tgt</text>
</g>
<!-- e139&#45;&#45;n140 -->
<g id="edge54" class="edge"><title>e139&#45;&#45;n140</title>
<path fill="none" stroke="black" d="M244.385,-328.351C224.606,-316.967 200.429,-303.052 180.645,-291.666"/>
<text text-anchor="middle" x="190.609" y="-290.024" font-family="Times New Roman,serif" font-size="10.00">tgt</text>
<text text-anchor="middle" x="234.421" y="-324.993" font-family="Times New Roman,serif" font-size="10.00">inEdges</text>
</g>
<!-- n140&#45;&#45;e141 -->
<g id="edge56" class="edge"><title>n140&#45;&#45;e141</title>
<path fill="none" stroke="black" d="M138.081,-246.14C135.521,-234.759 132.401,-220.893 129.85,-209.557"/>
<text text-anchor="middle" x="135.963" y="-214.971" font-family="Times New Roman,serif" font-size="10.00">outEdges</text>
<text text-anchor="middle" x="131.969" y="-235.725" font-family="Times New Roman,serif" font-size="10.00">src</text>
</g>
<!-- e141&#45;&#45;n142 -->
<g id="edge58" class="edge"><title>e141&#45;&#45;n142</title>
<path fill="none" stroke="black" d="M125,-164.14C125,-152.759 125,-138.893 125,-127.557"/>
<text text-anchor="middle" x="129.226" y="-134.12" font-family="Times New Roman,serif" font-size="10.00">tgt</text>
<text text-anchor="middle" x="120.774" y="-152.577" font-family="Times New Roman,serif" font-size="10.00">inEdges</text>
</g>
<!-- n142&#45;&#45;e143 -->
<g id="edge60" class="edge"><title>n142&#45;&#45;e143</title>
<path fill="none" stroke="black" d="M105.599,-82.1396C95.4986,-70.759 83.1925,-56.8929 73.1318,-45.5569"/>
<text text-anchor="middle" x="82.3086" y="-47.0302" font-family="Times New Roman,serif" font-size="10.00">outEdges</text>
<text text-anchor="middle" x="96.4222" y="-75.6664" font-family="Times New Roman,serif" font-size="10.00">src</text>
</g>
<!-- n142&#45;&#45;e144 -->
<g id="edge62" class="edge"><title>n142&#45;&#45;e144</title>
<path fill="none" stroke="black" d="M163.338,-90.4291C204.267,-75.941 268.849,-53.0799 310.565,-38.3132"/>
<text text-anchor="middle" x="303.432" y="-42.8214" font-family="Times New Roman,serif" font-size="10.00">outEdges</text>
<text text-anchor="middle" x="170.471" y="-80.9209" font-family="Times New Roman,serif" font-size="10.00">src</text>
</g>
<!-- n142&#45;&#45;e145 -->
<g id="edge64" class="edge"><title>n142&#45;&#45;e145</title>
<path fill="none" stroke="black" d="M163.389,-96.5121C216.663,-85.9825 315.95,-65.8578 400,-46 414.231,-42.6377 429.738,-38.6649 443.51,-35.0269"/>
<text text-anchor="middle" x="435.821" y="-38.921" font-family="Times New Roman,serif" font-size="10.00">inEdges</text>
<text text-anchor="middle" x="171.455" y="-88.1011" font-family="Times New Roman,serif" font-size="10.00">tgt</text>
</g>
<!-- n148&#45;&#45;e149 -->
<g id="edge66" class="edge"><title>n148&#45;&#45;e149</title>
<path fill="none" stroke="black" d="M798.151,-738.14C789.9,-726.759 779.847,-712.893 771.629,-701.557"/>
<text text-anchor="middle" x="780.37" y="-703.914" font-family="Times New Roman,serif" font-size="10.00">outEdges_inEdges</text>
<text text-anchor="middle" x="789.41" y="-730.783" font-family="Times New Roman,serif" font-size="10.00">src_tgt</text>
</g>
<!-- n148&#45;&#45;e150 -->
<g id="edge68" class="edge"><title>n148&#45;&#45;e150</title>
<path fill="none" stroke="black" d="M829.849,-738.14C838.1,-726.759 848.153,-712.893 856.371,-701.557"/>
<text text-anchor="middle" x="854.473" y="-708.875" font-family="Times New Roman,serif" font-size="10.00">outEdges_inEdges</text>
<text text-anchor="middle" x="831.747" y="-725.821" font-family="Times New Roman,serif" font-size="10.00">src_tgt</text>
</g>
</g>
</svg>
