<?xml version="1.0" encoding="UTF-8" standalone="no"?>
<!DOCTYPE svg PUBLIC "-//W3C//DTD SVG 1.1//EN"
 "http://www.w3.org/Graphics/SVG/1.1/DTD/svg11.dtd">
<!-- Generated by graphviz version 2.28.0 (20110507.0327)
 -->
<!-- Title: ObjectDiagram Pages: 1 -->
<svg width="999pt" height="1366pt"
 viewBox="0.00 0.00 999.00 1366.00" xmlns="http://www.w3.org/2000/svg" xmlns:xlink="http://www.w3.org/1999/xlink">
<g id="graph1" class="graph" transform="scale(1 1) rotate(0) translate(4 1362)">
<title>ObjectDiagram</title>
<polygon fill="white" stroke="white" points="-4,5 -4,-1362 996,-1362 996,5 -4,5"/>
<!-- n1 -->
<g id="node1" class="node"><title>n1</title>
<polygon fill="none" stroke="black" points="532,-1336 532,-1353 593,-1353 593,-1336 532,-1336"/>
<text text-anchor="start" x="542.5" y="-1342.5" font-family="Times New Roman,serif" font-size="10.00"> </text>
<text text-anchor="start" x="545.5" y="-1342.5" font-family="Times New Roman,serif" font-size="10.00">n1 :Node</text>
<polygon fill="none" stroke="black" points="532,-1316 532,-1336 593,-1336 593,-1316 532,-1316"/>
<text text-anchor="start" x="537.5" y="-1324" font-family="Times New Roman,serif" font-size="10.00">name = &quot;n1&quot;</text>
</g>
<!-- e3 -->
<g id="node2" class="node"><title>e3</title>
<polygon fill="none" stroke="black" points="110,-1254 110,-1271 175,-1271 175,-1254 110,-1254"/>
<text text-anchor="start" x="124" y="-1260.5" font-family="Times New Roman,serif" font-size="10.00"> </text>
<text text-anchor="start" x="127" y="-1260.5" font-family="Times New Roman,serif" font-size="10.00">e3 :Edge</text>
<polygon fill="none" stroke="black" points="110,-1234 110,-1254 175,-1254 175,-1234 110,-1234"/>
<text text-anchor="start" x="115.5" y="-1242" font-family="Times New Roman,serif" font-size="10.00">name = &quot;e10&quot;</text>
</g>
<!-- n1&#45;&#45;e3 -->
<g id="edge58" class="edge"><title>n1&#45;&#45;e3</title>
<path fill="none" stroke="black" d="M523.573,-1330.73C456.382,-1324.4 313.596,-1308.15 197,-1276 192.241,-1274.69 187.333,-1273.09 182.5,-1271.37"/>
<text text-anchor="middle" x="192.453" y="-1267.9" font-family="Times New Roman,serif" font-size="10.00">outEdges</text>
<text text-anchor="middle" x="514.138" y="-1331.55" font-family="Times New Roman,serif" font-size="10.00">src</text>
</g>
<!-- e7 -->
<g id="node6" class="node"><title>e7</title>
<polygon fill="none" stroke="black" points="75,-926 75,-943 140,-943 140,-926 75,-926"/>
<text text-anchor="start" x="89" y="-932.5" font-family="Times New Roman,serif" font-size="10.00"> </text>
<text text-anchor="start" x="92" y="-932.5" font-family="Times New Roman,serif" font-size="10.00">e7 :Edge</text>
<polygon fill="none" stroke="black" points="75,-906 75,-926 140,-926 140,-906 75,-906"/>
<text text-anchor="start" x="80.5" y="-914" font-family="Times New Roman,serif" font-size="10.00">name = &quot;e12&quot;</text>
</g>
<!-- n1&#45;&#45;e7 -->
<g id="edge60" class="edge"><title>n1&#45;&#45;e7</title>
<path fill="none" stroke="black" d="M523.433,-1333.58C432.253,-1330.33 211,-1308.41 211,-1172 211,-1172 211,-1172 211,-1088 211,-1030.01 163.23,-976.215 132.441,-947.563"/>
<text text-anchor="middle" x="141.9" y="-948.308" font-family="Times New Roman,serif" font-size="10.00">inEdges</text>
<text text-anchor="middle" x="514.16" y="-1334.82" font-family="Times New Roman,serif" font-size="10.00">tgt</text>
</g>
<!-- n20 -->
<g id="node19" class="node"><title>n20</title>
<polygon fill="none" stroke="black" points="861,-270 861,-287 915,-287 915,-270 861,-270"/>
<text text-anchor="start" x="866" y="-276.5" font-family="Times New Roman,serif" font-size="10.00"> </text>
<text text-anchor="start" x="869" y="-276.5" font-family="Times New Roman,serif" font-size="10.00">n20 :Node</text>
<polygon fill="none" stroke="black" points="861,-250 861,-270 915,-270 915,-250 861,-250"/>
<text text-anchor="start" x="866.5" y="-258" font-family="Times New Roman,serif" font-size="10.00">text = &quot;n1&quot;</text>
</g>
<!-- n1&#45;&#45;n20 -->
<g id="edge64" class="edge"><title>n1&#45;&#45;n20</title>
<path fill="none" stroke="black" d="M600.711,-1331.7C657.914,-1327.12 767.373,-1313.78 852,-1276 922.454,-1244.55 991,-1249.16 991,-1172 991,-1172 991,-1172 991,-432 991,-374.175 943.69,-320.32 913.197,-291.613"/>
<text text-anchor="middle" x="922.637" y="-292.413" font-family="Times New Roman,serif" font-size="10.00">copy</text>
<text text-anchor="middle" x="609.366" y="-1324.19" font-family="Times New Roman,serif" font-size="10.00">orig</text>
</g>
<!-- g2 -->
<g id="node28" class="node"><title>g2</title>
<text text-anchor="middle" x="419" y="-512.5" font-family="Times New Roman,serif" font-size="10.00">g2</text>
</g>
<!-- n1&#45;&#45;g2 -->
<g id="edge62" class="edge"><title>n1&#45;&#45;g2</title>
<path fill="none" stroke="black" d="M600.358,-1331.98C684.937,-1325.24 880,-1296.23 880,-1172 880,-1172 880,-1172 880,-760 880,-723.936 646.626,-589.367 614,-574 559.763,-548.454 541.305,-555.617 484,-538 471.474,-534.149 457.711,-529.546 446.087,-525.547"/>
<text text-anchor="middle" x="456.031" y="-521.989" font-family="Times New Roman,serif" font-size="10.00">graph</text>
</g>
<!-- n4 -->
<g id="node3" class="node"><title>n4</title>
<polygon fill="none" stroke="black" points="113,-1172 113,-1189 174,-1189 174,-1172 113,-1172"/>
<text text-anchor="start" x="123.5" y="-1178.5" font-family="Times New Roman,serif" font-size="10.00"> </text>
<text text-anchor="start" x="126.5" y="-1178.5" font-family="Times New Roman,serif" font-size="10.00">n4 :Node</text>
<polygon fill="none" stroke="black" points="113,-1152 113,-1172 174,-1172 174,-1152 113,-1152"/>
<text text-anchor="start" x="118.5" y="-1160" font-family="Times New Roman,serif" font-size="10.00">name = &quot;n2&quot;</text>
</g>
<!-- e3&#45;&#45;n4 -->
<g id="edge22" class="edge"><title>e3&#45;&#45;n4</title>
<path fill="none" stroke="black" d="M142.273,-1230.14C142.416,-1218.76 142.589,-1204.89 142.731,-1193.56"/>
<text text-anchor="middle" x="146.843" y="-1200.17" font-family="Times New Roman,serif" font-size="10.00">tgt</text>
<text text-anchor="middle" x="138.161" y="-1218.52" font-family="Times New Roman,serif" font-size="10.00">inEdges</text>
</g>
<!-- e3&#45;&#45;g2 -->
<g id="edge20" class="edge"><title>e3&#45;&#45;g2</title>
<path fill="none" stroke="black" d="M103.947,-1230.49C61.8845,-1203.56 0,-1153.21 0,-1090 0,-1090 0,-1090 0,-678 0,-621.782 24.5318,-604.121 72,-574 125.442,-540.089 319.779,-523.071 391.856,-517.82"/>
<text text-anchor="middle" x="383.146" y="-520.231" font-family="Times New Roman,serif" font-size="10.00">graph</text>
</g>
<!-- e5 -->
<g id="node4" class="node"><title>e5</title>
<polygon fill="none" stroke="black" points="248,-1090 248,-1107 313,-1107 313,-1090 248,-1090"/>
<text text-anchor="start" x="262" y="-1096.5" font-family="Times New Roman,serif" font-size="10.00"> </text>
<text text-anchor="start" x="265" y="-1096.5" font-family="Times New Roman,serif" font-size="10.00">e5 :Edge</text>
<polygon fill="none" stroke="black" points="248,-1070 248,-1090 313,-1090 313,-1070 248,-1070"/>
<text text-anchor="start" x="253.5" y="-1078" font-family="Times New Roman,serif" font-size="10.00">name = &quot;e11&quot;</text>
</g>
<!-- n4&#45;&#45;e5 -->
<g id="edge72" class="edge"><title>n4&#45;&#45;e5</title>
<path fill="none" stroke="black" d="M180.074,-1148.35C199.568,-1136.97 223.398,-1123.05 242.896,-1111.67"/>
<text text-anchor="middle" x="237.201" y="-1117.39" font-family="Times New Roman,serif" font-size="10.00">outEdges</text>
<text text-anchor="middle" x="185.769" y="-1137.63" font-family="Times New Roman,serif" font-size="10.00">src</text>
</g>
<!-- n22 -->
<g id="node21" class="node"><title>n22</title>
<polygon fill="none" stroke="black" points="861,-106 861,-123 915,-123 915,-106 861,-106"/>
<text text-anchor="start" x="866" y="-112.5" font-family="Times New Roman,serif" font-size="10.00"> </text>
<text text-anchor="start" x="869" y="-112.5" font-family="Times New Roman,serif" font-size="10.00">n22 :Node</text>
<polygon fill="none" stroke="black" points="861,-86 861,-106 915,-106 915,-86 861,-86"/>
<text text-anchor="start" x="866.5" y="-94" font-family="Times New Roman,serif" font-size="10.00">text = &quot;n2&quot;</text>
</g>
<!-- n4&#45;&#45;n22 -->
<g id="edge76" class="edge"><title>n4&#45;&#45;n22</title>
<path fill="none" stroke="black" d="M117.314,-1148.49C86.229,-1119.89 38,-1066.15 38,-1008 38,-1008 38,-1008 38,-268 38,-183.639 692.418,-122.597 852.827,-108.902"/>
<text text-anchor="middle" x="844.175" y="-111.416" font-family="Times New Roman,serif" font-size="10.00">copy</text>
<text text-anchor="middle" x="107.837" y="-1142.8" font-family="Times New Roman,serif" font-size="10.00">orig</text>
</g>
<!-- n4&#45;&#45;g2 -->
<g id="edge74" class="edge"><title>n4&#45;&#45;g2</title>
<path fill="none" stroke="black" d="M181.585,-1165.86C298.358,-1152.28 640,-1104.31 640,-1008 640,-1008 640,-1008 640,-678 640,-623.493 617.243,-608.446 575,-574 569.78,-569.743 489.371,-540.906 446.096,-525.562"/>
<text text-anchor="middle" x="456.051" y="-522.115" font-family="Times New Roman,serif" font-size="10.00">graph</text>
</g>
<!-- n6 -->
<g id="node5" class="node"><title>n6</title>
<polygon fill="none" stroke="black" points="249,-1008 249,-1025 310,-1025 310,-1008 249,-1008"/>
<text text-anchor="start" x="259.5" y="-1014.5" font-family="Times New Roman,serif" font-size="10.00"> </text>
<text text-anchor="start" x="262.5" y="-1014.5" font-family="Times New Roman,serif" font-size="10.00">n6 :Node</text>
<polygon fill="none" stroke="black" points="249,-988 249,-1008 310,-1008 310,-988 249,-988"/>
<text text-anchor="start" x="254.5" y="-996" font-family="Times New Roman,serif" font-size="10.00">name = &quot;n3&quot;</text>
</g>
<!-- e5&#45;&#45;n6 -->
<g id="edge26" class="edge"><title>e5&#45;&#45;n6</title>
<path fill="none" stroke="black" d="M279.727,-1066.14C279.584,-1054.76 279.411,-1040.89 279.269,-1029.56"/>
<text text-anchor="middle" x="283.609" y="-1036.07" font-family="Times New Roman,serif" font-size="10.00">tgt</text>
<text text-anchor="middle" x="275.388" y="-1054.63" font-family="Times New Roman,serif" font-size="10.00">inEdges</text>
</g>
<!-- e5&#45;&#45;g2 -->
<g id="edge24" class="edge"><title>e5&#45;&#45;g2</title>
<path fill="none" stroke="black" d="M320.455,-1086.03C406.938,-1079.42 602,-1050.69 602,-926 602,-926 602,-926 602,-678 602,-595.684 496.907,-545.095 446.002,-525.419"/>
<text text-anchor="middle" x="455.99" y="-522.431" font-family="Times New Roman,serif" font-size="10.00">graph</text>
</g>
<!-- n6&#45;&#45;e7 -->
<g id="edge80" class="edge"><title>n6&#45;&#45;e7</title>
<path fill="none" stroke="black" d="M240.4,-988.046C212.667,-975.147 175.371,-957.8 147.265,-944.728"/>
<text text-anchor="middle" x="157.265" y="-942.218" font-family="Times New Roman,serif" font-size="10.00">outEdges</text>
<text text-anchor="middle" x="230.4" y="-985.556" font-family="Times New Roman,serif" font-size="10.00">src</text>
</g>
<!-- e8 -->
<g id="node7" class="node"><title>e8</title>
<polygon fill="none" stroke="black" points="213,-926 213,-943 278,-943 278,-926 213,-926"/>
<text text-anchor="start" x="227" y="-932.5" font-family="Times New Roman,serif" font-size="10.00"> </text>
<text text-anchor="start" x="230" y="-932.5" font-family="Times New Roman,serif" font-size="10.00">e8 :Edge</text>
<polygon fill="none" stroke="black" points="213,-906 213,-926 278,-926 278,-906 213,-906"/>
<text text-anchor="start" x="218.5" y="-914" font-family="Times New Roman,serif" font-size="10.00">name = &quot;e13&quot;</text>
</g>
<!-- n6&#45;&#45;e8 -->
<g id="edge82" class="edge"><title>n6&#45;&#45;e8</title>
<path fill="none" stroke="black" d="M269.709,-984.14C264.873,-972.759 258.979,-958.893 254.162,-947.557"/>
<text text-anchor="middle" x="261.596" y="-951.745" font-family="Times New Roman,serif" font-size="10.00">outEdges</text>
<text text-anchor="middle" x="262.275" y="-974.952" font-family="Times New Roman,serif" font-size="10.00">src</text>
</g>
<!-- e13 -->
<g id="node12" class="node"><title>e13</title>
<polygon fill="none" stroke="black" points="189,-598 189,-615 254,-615 254,-598 189,-598"/>
<text text-anchor="start" x="200.5" y="-604.5" font-family="Times New Roman,serif" font-size="10.00"> </text>
<text text-anchor="start" x="203.5" y="-604.5" font-family="Times New Roman,serif" font-size="10.00">e13 :Edge</text>
<polygon fill="none" stroke="black" points="189,-578 189,-598 254,-598 254,-578 189,-578"/>
<text text-anchor="start" x="194.5" y="-586" font-family="Times New Roman,serif" font-size="10.00">name = &quot;e15&quot;</text>
</g>
<!-- n6&#45;&#45;e13 -->
<g id="edge78" class="edge"><title>n6&#45;&#45;e13</title>
<path fill="none" stroke="black" d="M286.768,-984.311C297.079,-953.531 314,-895.218 314,-844 314,-844 314,-844 314,-760 314,-703.41 270.789,-648.697 243.276,-619.596"/>
<text text-anchor="middle" x="252.511" y="-620.932" font-family="Times New Roman,serif" font-size="10.00">inEdges</text>
<text text-anchor="middle" x="285.559" y="-971.885" font-family="Times New Roman,serif" font-size="10.00">tgt</text>
</g>
<!-- n18 -->
<g id="node17" class="node"><title>n18</title>
<polygon fill="none" stroke="black" points="815,-434 815,-451 869,-451 869,-434 815,-434"/>
<text text-anchor="start" x="820" y="-440.5" font-family="Times New Roman,serif" font-size="10.00"> </text>
<text text-anchor="start" x="823" y="-440.5" font-family="Times New Roman,serif" font-size="10.00">n18 :Node</text>
<polygon fill="none" stroke="black" points="815,-414 815,-434 869,-434 869,-414 815,-414"/>
<text text-anchor="start" x="820.5" y="-422" font-family="Times New Roman,serif" font-size="10.00">text = &quot;n3&quot;</text>
</g>
<!-- n6&#45;&#45;n18 -->
<g id="edge86" class="edge"><title>n6&#45;&#45;n18</title>
<path fill="none" stroke="black" d="M317.255,-1003.31C443.971,-993.38 842,-953.464 842,-844 842,-844 842,-844 842,-596 842,-545.797 842,-486.843 842,-455.749"/>
<text text-anchor="middle" x="846.226" y="-462.312" font-family="Times New Roman,serif" font-size="10.00">copy</text>
<text text-anchor="middle" x="325.921" y="-995.825" font-family="Times New Roman,serif" font-size="10.00">orig</text>
</g>
<!-- n6&#45;&#45;g2 -->
<g id="edge84" class="edge"><title>n6&#45;&#45;g2</title>
<path fill="none" stroke="black" d="M240.713,-985.875C224.953,-976.11 207.5,-963.189 195,-948 137.704,-878.38 114,-852.165 114,-762 114,-762 114,-762 114,-678 114,-629.639 110.314,-606.638 146,-574 181.934,-541.135 329.737,-524.123 391.587,-518.33"/>
<text text-anchor="middle" x="382.986" y="-520.931" font-family="Times New Roman,serif" font-size="10.00">graph</text>
</g>
<!-- e7&#45;&#45;g2 -->
<g id="edge28" class="edge"><title>e7&#45;&#45;g2</title>
<path fill="none" stroke="black" d="M100.12,-902.243C90.9872,-871.381 76,-812.971 76,-762 76,-762 76,-762 76,-678 76,-630.563 65.6789,-606.747 100,-574 141.897,-534.025 322.506,-520.842 391.795,-517.206"/>
<text text-anchor="middle" x="382.994" y="-519.454" font-family="Times New Roman,serif" font-size="10.00">graph</text>
</g>
<!-- n9 -->
<g id="node8" class="node"><title>n9</title>
<polygon fill="none" stroke="black" points="485,-844 485,-861 546,-861 546,-844 485,-844"/>
<text text-anchor="start" x="495.5" y="-850.5" font-family="Times New Roman,serif" font-size="10.00"> </text>
<text text-anchor="start" x="498.5" y="-850.5" font-family="Times New Roman,serif" font-size="10.00">n9 :Node</text>
<polygon fill="none" stroke="black" points="485,-824 485,-844 546,-844 546,-824 485,-824"/>
<text text-anchor="start" x="490.5" y="-832" font-family="Times New Roman,serif" font-size="10.00">name = &quot;n4&quot;</text>
</g>
<!-- e8&#45;&#45;n9 -->
<g id="edge32" class="edge"><title>e8&#45;&#45;n9</title>
<path fill="none" stroke="black" d="M285.422,-912.023C337.058,-896.724 425.792,-870.432 476.492,-855.41"/>
<text text-anchor="middle" x="469.002" y="-859.537" font-family="Times New Roman,serif" font-size="10.00">tgt</text>
<text text-anchor="middle" x="292.911" y="-902.896" font-family="Times New Roman,serif" font-size="10.00">inEdges</text>
</g>
<!-- e8&#45;&#45;g2 -->
<g id="edge30" class="edge"><title>e8&#45;&#45;g2</title>
<path fill="none" stroke="black" d="M222.724,-902.404C195.211,-873.303 152,-818.59 152,-762 152,-762 152,-762 152,-678 152,-631.013 138.6,-608.03 171,-574 201.262,-542.217 333.699,-524.851 391.666,-518.653"/>
<text text-anchor="middle" x="383.135" y="-521.37" font-family="Times New Roman,serif" font-size="10.00">graph</text>
</g>
<!-- e10 -->
<g id="node9" class="node"><title>e10</title>
<polygon fill="none" stroke="black" points="463,-762 463,-779 528,-779 528,-762 463,-762"/>
<text text-anchor="start" x="474.5" y="-768.5" font-family="Times New Roman,serif" font-size="10.00"> </text>
<text text-anchor="start" x="477.5" y="-768.5" font-family="Times New Roman,serif" font-size="10.00">e10 :Edge</text>
<polygon fill="none" stroke="black" points="463,-742 463,-762 528,-762 528,-742 463,-742"/>
<text text-anchor="start" x="468.5" y="-750" font-family="Times New Roman,serif" font-size="10.00">name = &quot;e14&quot;</text>
</g>
<!-- n9&#45;&#45;e10 -->
<g id="edge88" class="edge"><title>n9&#45;&#45;e10</title>
<path fill="none" stroke="black" d="M509.535,-820.14C506.69,-808.759 503.223,-794.893 500.389,-783.557"/>
<text text-anchor="middle" x="506.687" y="-788.824" font-family="Times New Roman,serif" font-size="10.00">outEdges</text>
<text text-anchor="middle" x="503.237" y="-809.872" font-family="Times New Roman,serif" font-size="10.00">src</text>
</g>
<!-- n25 -->
<g id="node24" class="node"><title>n25</title>
<polygon fill="none" stroke="black" points="704,-270 704,-287 758,-287 758,-270 704,-270"/>
<text text-anchor="start" x="709" y="-276.5" font-family="Times New Roman,serif" font-size="10.00"> </text>
<text text-anchor="start" x="712" y="-276.5" font-family="Times New Roman,serif" font-size="10.00">n25 :Node</text>
<polygon fill="none" stroke="black" points="704,-250 704,-270 758,-270 758,-250 704,-250"/>
<text text-anchor="start" x="709.5" y="-258" font-family="Times New Roman,serif" font-size="10.00">text = &quot;n4&quot;</text>
</g>
<!-- n9&#45;&#45;n25 -->
<g id="edge92" class="edge"><title>n9&#45;&#45;n25</title>
<path fill="none" stroke="black" d="M553.377,-838.284C631.991,-828.339 804,-793.6 804,-680 804,-680 804,-680 804,-596 804,-494.456 773.596,-472.764 750,-374 743.261,-345.794 737.603,-312.789 734.259,-291.653"/>
<text text-anchor="middle" x="739.867" y="-297.432" font-family="Times New Roman,serif" font-size="10.00">copy</text>
<text text-anchor="middle" x="561.741" y="-830.303" font-family="Times New Roman,serif" font-size="10.00">orig</text>
</g>
<!-- n9&#45;&#45;g2 -->
<g id="edge90" class="edge"><title>n9&#45;&#45;g2</title>
<path fill="none" stroke="black" d="M528.841,-820.337C534.764,-809.81 541,-796.71 544,-784 560.333,-714.813 510.491,-580.491 506,-574 491.231,-552.652 465.815,-537.057 446.255,-527.448"/>
<text text-anchor="middle" x="456.25" y="-525.285" font-family="Times New Roman,serif" font-size="10.00">graph</text>
</g>
<!-- n11 -->
<g id="node10" class="node"><title>n11</title>
<polygon fill="none" stroke="black" points="409,-680 409,-697 470,-697 470,-680 409,-680"/>
<text text-anchor="start" x="417.5" y="-686.5" font-family="Times New Roman,serif" font-size="10.00"> </text>
<text text-anchor="start" x="420.5" y="-686.5" font-family="Times New Roman,serif" font-size="10.00">n11 :Node</text>
<polygon fill="none" stroke="black" points="409,-660 409,-680 470,-680 470,-660 409,-660"/>
<text text-anchor="start" x="414.5" y="-668" font-family="Times New Roman,serif" font-size="10.00">name = &quot;n5&quot;</text>
</g>
<!-- e10&#45;&#45;n11 -->
<g id="edge4" class="edge"><title>e10&#45;&#45;n11</title>
<path fill="none" stroke="black" d="M479.698,-738.14C471.731,-726.759 462.025,-712.893 454.09,-701.557"/>
<text text-anchor="middle" x="462.749" y="-704.058" font-family="Times New Roman,serif" font-size="10.00">tgt</text>
<text text-anchor="middle" x="471.038" y="-730.638" font-family="Times New Roman,serif" font-size="10.00">inEdges</text>
</g>
<!-- e10&#45;&#45;g2 -->
<g id="edge2" class="edge"><title>e10&#45;&#45;g2</title>
<path fill="none" stroke="black" d="M498.818,-738.324C504.106,-702.203 510.277,-628.306 484,-574 475.766,-556.982 460.075,-542.755 446.174,-532.651"/>
<text text-anchor="middle" x="455.962" y="-532.197" font-family="Times New Roman,serif" font-size="10.00">graph</text>
</g>
<!-- e12 -->
<g id="node11" class="node"><title>e12</title>
<polygon fill="none" stroke="black" points="288,-598 288,-615 353,-615 353,-598 288,-598"/>
<text text-anchor="start" x="299.5" y="-604.5" font-family="Times New Roman,serif" font-size="10.00"> </text>
<text text-anchor="start" x="302.5" y="-604.5" font-family="Times New Roman,serif" font-size="10.00">e12 :Edge</text>
<polygon fill="none" stroke="black" points="288,-578 288,-598 353,-598 353,-578 288,-578"/>
<text text-anchor="start" x="293.5" y="-586" font-family="Times New Roman,serif" font-size="10.00">name = &quot;e18&quot;</text>
</g>
<!-- n11&#45;&#45;e12 -->
<g id="edge34" class="edge"><title>n11&#45;&#45;e12</title>
<path fill="none" stroke="black" d="M406.797,-656.351C389.864,-644.967 369.166,-631.052 352.229,-619.666"/>
<text text-anchor="middle" x="362.108" y="-618.716" font-family="Times New Roman,serif" font-size="10.00">outEdges</text>
<text text-anchor="middle" x="396.918" y="-652.302" font-family="Times New Roman,serif" font-size="10.00">src</text>
</g>
<!-- n11&#45;&#45;e13 -->
<g id="edge36" class="edge"><title>n11&#45;&#45;e13</title>
<path fill="none" stroke="black" d="M400.715,-665.967C366.223,-654.865 314.284,-637.498 270,-620 267.138,-618.869 264.2,-617.664 261.252,-616.423"/>
<text text-anchor="middle" x="271.245" y="-613.536" font-family="Times New Roman,serif" font-size="10.00">outEdges</text>
<text text-anchor="middle" x="390.791" y="-664.695" font-family="Times New Roman,serif" font-size="10.00">src</text>
</g>
<!-- e14 -->
<g id="node13" class="node"><title>e14</title>
<polygon fill="none" stroke="black" points="387,-598 387,-615 452,-615 452,-598 387,-598"/>
<text text-anchor="start" x="398.5" y="-604.5" font-family="Times New Roman,serif" font-size="10.00"> </text>
<text text-anchor="start" x="401.5" y="-604.5" font-family="Times New Roman,serif" font-size="10.00">e14 :Edge</text>
<polygon fill="none" stroke="black" points="387,-578 387,-598 452,-598 452,-578 387,-578"/>
<text text-anchor="start" x="392.5" y="-586" font-family="Times New Roman,serif" font-size="10.00">name = &quot;e19&quot;</text>
</g>
<!-- n11&#45;&#45;e14 -->
<g id="edge38" class="edge"><title>n11&#45;&#45;e14</title>
<path fill="none" stroke="black" d="M433.535,-656.14C430.69,-644.759 427.223,-630.893 424.389,-619.557"/>
<text text-anchor="middle" x="430.687" y="-624.824" font-family="Times New Roman,serif" font-size="10.00">inEdges</text>
<text text-anchor="middle" x="427.237" y="-645.872" font-family="Times New Roman,serif" font-size="10.00">tgt</text>
</g>
<!-- n15 -->
<g id="node14" class="node"><title>n15</title>
<polygon fill="none" stroke="black" points="714,-598 714,-615 768,-615 768,-598 714,-598"/>
<text text-anchor="start" x="719" y="-604.5" font-family="Times New Roman,serif" font-size="10.00"> </text>
<text text-anchor="start" x="722" y="-604.5" font-family="Times New Roman,serif" font-size="10.00">n15 :Node</text>
<polygon fill="none" stroke="black" points="714,-578 714,-598 768,-598 768,-578 714,-578"/>
<text text-anchor="start" x="719.5" y="-586" font-family="Times New Roman,serif" font-size="10.00">text = &quot;n5&quot;</text>
</g>
<!-- n11&#45;&#45;n15 -->
<g id="edge42" class="edge"><title>n11&#45;&#45;n15</title>
<path fill="none" stroke="black" d="M477.555,-667.787C536.709,-652.117 648.975,-622.377 705.949,-607.285"/>
<text text-anchor="middle" x="698.27" y="-611.191" font-family="Times New Roman,serif" font-size="10.00">copy</text>
<text text-anchor="middle" x="485.234" y="-658.881" font-family="Times New Roman,serif" font-size="10.00">orig</text>
</g>
<!-- n11&#45;&#45;g2 -->
<g id="edge40" class="edge"><title>n11&#45;&#45;g2</title>
<path fill="none" stroke="black" d="M452.969,-656.174C464.744,-634.91 478.176,-601.813 468,-574 462.203,-558.154 449.953,-543.654 439.152,-533.116"/>
<text text-anchor="middle" x="448.548" y="-534.039" font-family="Times New Roman,serif" font-size="10.00">graph</text>
</g>
<!-- e12&#45;&#45;g2 -->
<g id="edge6" class="edge"><title>e12&#45;&#45;g2</title>
<path fill="none" stroke="black" d="M346.791,-574.351C362.825,-561.394 382.917,-545.158 397.834,-533.104"/>
<text text-anchor="middle" x="393.441" y="-539.587" font-family="Times New Roman,serif" font-size="10.00">graph</text>
</g>
<!-- e13&#45;&#45;g2 -->
<g id="edge8" class="edge"><title>e13&#45;&#45;g2</title>
<path fill="none" stroke="black" d="M261.306,-577.708C264.241,-576.437 267.162,-575.189 270,-574 312.247,-556.307 361.932,-537.327 391.918,-526.069"/>
<text text-anchor="middle" x="384.926" y="-530.718" font-family="Times New Roman,serif" font-size="10.00">graph</text>
</g>
<!-- e14&#45;&#45;g2 -->
<g id="edge10" class="edge"><title>e14&#45;&#45;g2</title>
<path fill="none" stroke="black" d="M419,-574.14C419,-561.186 419,-545.013 419,-533.015"/>
<text text-anchor="middle" x="423.226" y="-539.578" font-family="Times New Roman,serif" font-size="10.00">graph</text>
</g>
<!-- e16 -->
<g id="node15" class="node"><title>e16</title>
<polygon fill="none" stroke="black" points="526,-516 526,-533 584,-533 584,-516 526,-516"/>
<text text-anchor="start" x="534" y="-522.5" font-family="Times New Roman,serif" font-size="10.00"> </text>
<text text-anchor="start" x="537" y="-522.5" font-family="Times New Roman,serif" font-size="10.00">e16 :Edge</text>
<polygon fill="none" stroke="black" points="526,-496 526,-516 584,-516 584,-496 526,-496"/>
<text text-anchor="start" x="531.5" y="-504" font-family="Times New Roman,serif" font-size="10.00">text = &quot;e18&quot;</text>
</g>
<!-- n15&#45;&#45;e16 -->
<g id="edge44" class="edge"><title>n15&#45;&#45;e16</title>
<path fill="none" stroke="black" d="M705.754,-579.946C701.142,-577.913 696.467,-575.885 692,-574 651.928,-557.088 640.865,-555.393 601,-538 598.079,-536.726 595.07,-535.375 592.055,-533.994"/>
<text text-anchor="middle" x="602.055" y="-531.418" font-family="Times New Roman,serif" font-size="10.00">outEdges</text>
<text text-anchor="middle" x="695.757" y="-577.663" font-family="Times New Roman,serif" font-size="10.00">src</text>
</g>
<!-- e17 -->
<g id="node16" class="node"><title>e17</title>
<polygon fill="none" stroke="black" points="710,-516 710,-533 768,-533 768,-516 710,-516"/>
<text text-anchor="start" x="718" y="-522.5" font-family="Times New Roman,serif" font-size="10.00"> </text>
<text text-anchor="start" x="721" y="-522.5" font-family="Times New Roman,serif" font-size="10.00">e17 :Edge</text>
<polygon fill="none" stroke="black" points="710,-496 710,-516 768,-516 768,-496 710,-496"/>
<text text-anchor="start" x="715.5" y="-504" font-family="Times New Roman,serif" font-size="10.00">text = &quot;e15&quot;</text>
</g>
<!-- n15&#45;&#45;e17 -->
<g id="edge46" class="edge"><title>n15&#45;&#45;e17</title>
<path fill="none" stroke="black" d="M740.453,-574.14C740.169,-562.759 739.822,-548.893 739.539,-537.557"/>
<text text-anchor="middle" x="743.99" y="-544.012" font-family="Times New Roman,serif" font-size="10.00">outEdges</text>
<text text-anchor="middle" x="736.002" y="-562.685" font-family="Times New Roman,serif" font-size="10.00">src</text>
</g>
<!-- e26 -->
<g id="node25" class="node"><title>e26</title>
<polygon fill="none" stroke="black" points="582,-188 582,-205 640,-205 640,-188 582,-188"/>
<text text-anchor="start" x="590" y="-194.5" font-family="Times New Roman,serif" font-size="10.00"> </text>
<text text-anchor="start" x="593" y="-194.5" font-family="Times New Roman,serif" font-size="10.00">e26 :Edge</text>
<polygon fill="none" stroke="black" points="582,-168 582,-188 640,-188 640,-168 582,-168"/>
<text text-anchor="start" x="587.5" y="-176" font-family="Times New Roman,serif" font-size="10.00">text = &quot;e14&quot;</text>
</g>
<!-- n15&#45;&#45;e26 -->
<g id="edge48" class="edge"><title>n15&#45;&#45;e26</title>
<path fill="none" stroke="black" d="M705.777,-579.046C701.203,-577.183 696.532,-575.442 692,-574 613.012,-548.861 567.215,-597.009 509,-538 476.001,-504.551 490,-480.987 490,-434 490,-434 490,-434 490,-350 490,-289.796 544.304,-237.551 580.154,-209.621"/>
<text text-anchor="middle" x="575.767" y="-216.107" font-family="Times New Roman,serif" font-size="10.00">inEdges</text>
<text text-anchor="middle" x="695.791" y="-577.072" font-family="Times New Roman,serif" font-size="10.00">tgt</text>
</g>
<!-- e27 -->
<g id="node26" class="node"><title>e27</title>
<polygon fill="none" stroke="black" points="618,-516 618,-533 676,-533 676,-516 618,-516"/>
<text text-anchor="start" x="626" y="-522.5" font-family="Times New Roman,serif" font-size="10.00"> </text>
<text text-anchor="start" x="629" y="-522.5" font-family="Times New Roman,serif" font-size="10.00">e27 :Edge</text>
<polygon fill="none" stroke="black" points="618,-496 618,-516 676,-516 676,-496 618,-496"/>
<text text-anchor="start" x="623.5" y="-504" font-family="Times New Roman,serif" font-size="10.00">text = &quot;e19&quot;</text>
</g>
<!-- n15&#45;&#45;e27 -->
<g id="edge50" class="edge"><title>n15&#45;&#45;e27</title>
<path fill="none" stroke="black" d="M715.314,-574.14C701.942,-562.759 685.649,-548.893 672.329,-537.557"/>
<text text-anchor="middle" x="681.97" y="-537.712" font-family="Times New Roman,serif" font-size="10.00">inEdges</text>
<text text-anchor="middle" x="705.673" y="-568.984" font-family="Times New Roman,serif" font-size="10.00">tgt</text>
</g>
<!-- e17&#45;&#45;n18 -->
<g id="edge12" class="edge"><title>e17&#45;&#45;n18</title>
<path fill="none" stroke="black" d="M766.873,-492.351C781.529,-480.967 799.445,-467.052 814.104,-455.666"/>
<text text-anchor="middle" x="809.539" y="-462.064" font-family="Times New Roman,serif" font-size="10.00">tgt</text>
<text text-anchor="middle" x="771.439" y="-480.954" font-family="Times New Roman,serif" font-size="10.00">inEdges</text>
</g>
<!-- e19 -->
<g id="node18" class="node"><title>e19</title>
<polygon fill="none" stroke="black" points="859,-352 859,-369 917,-369 917,-352 859,-352"/>
<text text-anchor="start" x="867" y="-358.5" font-family="Times New Roman,serif" font-size="10.00"> </text>
<text text-anchor="start" x="870" y="-358.5" font-family="Times New Roman,serif" font-size="10.00">e19 :Edge</text>
<polygon fill="none" stroke="black" points="859,-332 859,-352 917,-352 917,-332 859,-332"/>
<text text-anchor="start" x="864.5" y="-340" font-family="Times New Roman,serif" font-size="10.00">text = &quot;e12&quot;</text>
</g>
<!-- n18&#45;&#45;e19 -->
<g id="edge52" class="edge"><title>n18&#45;&#45;e19</title>
<path fill="none" stroke="black" d="M854.57,-410.14C861.114,-398.759 869.087,-384.893 875.605,-373.557"/>
<text text-anchor="middle" x="874.751" y="-381.02" font-family="Times New Roman,serif" font-size="10.00">outEdges</text>
<text text-anchor="middle" x="855.424" y="-397.676" font-family="Times New Roman,serif" font-size="10.00">src</text>
</g>
<!-- e23 -->
<g id="node22" class="node"><title>e23</title>
<polygon fill="none" stroke="black" points="891,-24 891,-41 949,-41 949,-24 891,-24"/>
<text text-anchor="start" x="899" y="-30.5" font-family="Times New Roman,serif" font-size="10.00"> </text>
<text text-anchor="start" x="902" y="-30.5" font-family="Times New Roman,serif" font-size="10.00">e23 :Edge</text>
<polygon fill="none" stroke="black" points="891,-4 891,-24 949,-24 949,-4 891,-4"/>
<text text-anchor="start" x="896.5" y="-12" font-family="Times New Roman,serif" font-size="10.00">text = &quot;e11&quot;</text>
</g>
<!-- n18&#45;&#45;e23 -->
<g id="edge54" class="edge"><title>n18&#45;&#45;e23</title>
<path fill="none" stroke="black" d="M877.389,-418.238C897.104,-408.748 920.358,-394.178 934,-374 960.317,-335.074 953,-316.987 953,-270 953,-270 953,-270 953,-186 953,-134.909 937.046,-76.5462 927.324,-45.7241"/>
<text text-anchor="middle" x="934.024" y="-50.648" font-family="Times New Roman,serif" font-size="10.00">inEdges</text>
<text text-anchor="middle" x="883.609" y="-407.908" font-family="Times New Roman,serif" font-size="10.00">tgt</text>
</g>
<!-- e24 -->
<g id="node23" class="node"><title>e24</title>
<polygon fill="none" stroke="black" points="767,-352 767,-369 825,-369 825,-352 767,-352"/>
<text text-anchor="start" x="775" y="-358.5" font-family="Times New Roman,serif" font-size="10.00"> </text>
<text text-anchor="start" x="778" y="-358.5" font-family="Times New Roman,serif" font-size="10.00">e24 :Edge</text>
<polygon fill="none" stroke="black" points="767,-332 767,-352 825,-352 825,-332 767,-332"/>
<text text-anchor="start" x="772.5" y="-340" font-family="Times New Roman,serif" font-size="10.00">text = &quot;e13&quot;</text>
</g>
<!-- n18&#45;&#45;e24 -->
<g id="edge56" class="edge"><title>n18&#45;&#45;e24</title>
<path fill="none" stroke="black" d="M829.43,-410.14C822.886,-398.759 814.913,-384.893 808.395,-373.557"/>
<text text-anchor="middle" x="816.577" y="-376.807" font-family="Times New Roman,serif" font-size="10.00">outEdges</text>
<text text-anchor="middle" x="821.249" y="-401.889" font-family="Times New Roman,serif" font-size="10.00">src</text>
</g>
<!-- e19&#45;&#45;n20 -->
<g id="edge14" class="edge"><title>e19&#45;&#45;n20</title>
<path fill="none" stroke="black" d="M888,-328.14C888,-316.759 888,-302.893 888,-291.557"/>
<text text-anchor="middle" x="892.226" y="-298.12" font-family="Times New Roman,serif" font-size="10.00">tgt</text>
<text text-anchor="middle" x="883.774" y="-316.577" font-family="Times New Roman,serif" font-size="10.00">inEdges</text>
</g>
<!-- e21 -->
<g id="node20" class="node"><title>e21</title>
<polygon fill="none" stroke="black" points="859,-188 859,-205 917,-205 917,-188 859,-188"/>
<text text-anchor="start" x="867" y="-194.5" font-family="Times New Roman,serif" font-size="10.00"> </text>
<text text-anchor="start" x="870" y="-194.5" font-family="Times New Roman,serif" font-size="10.00">e21 :Edge</text>
<polygon fill="none" stroke="black" points="859,-168 859,-188 917,-188 917,-168 859,-168"/>
<text text-anchor="start" x="864.5" y="-176" font-family="Times New Roman,serif" font-size="10.00">text = &quot;e10&quot;</text>
</g>
<!-- n20&#45;&#45;e21 -->
<g id="edge66" class="edge"><title>n20&#45;&#45;e21</title>
<path fill="none" stroke="black" d="M888,-246.14C888,-234.759 888,-220.893 888,-209.557"/>
<text text-anchor="middle" x="892.226" y="-216.12" font-family="Times New Roman,serif" font-size="10.00">outEdges</text>
<text text-anchor="middle" x="883.774" y="-234.577" font-family="Times New Roman,serif" font-size="10.00">src</text>
</g>
<!-- e21&#45;&#45;n22 -->
<g id="edge16" class="edge"><title>e21&#45;&#45;n22</title>
<path fill="none" stroke="black" d="M888,-164.14C888,-152.759 888,-138.893 888,-127.557"/>
<text text-anchor="middle" x="892.226" y="-134.12" font-family="Times New Roman,serif" font-size="10.00">tgt</text>
<text text-anchor="middle" x="883.774" y="-152.577" font-family="Times New Roman,serif" font-size="10.00">inEdges</text>
</g>
<!-- n22&#45;&#45;e23 -->
<g id="edge68" class="edge"><title>n22&#45;&#45;e23</title>
<path fill="none" stroke="black" d="M896.744,-82.1396C901.296,-70.759 906.843,-56.8929 911.377,-45.5569"/>
<text text-anchor="middle" x="911.935" y="-53.0414" font-family="Times New Roman,serif" font-size="10.00">outEdges</text>
<text text-anchor="middle" x="896.186" y="-69.6552" font-family="Times New Roman,serif" font-size="10.00">src</text>
</g>
<!-- e24&#45;&#45;n25 -->
<g id="edge18" class="edge"><title>e24&#45;&#45;n25</title>
<path fill="none" stroke="black" d="M778.238,-328.14C768.992,-316.759 757.725,-302.893 748.515,-291.557"/>
<text text-anchor="middle" x="757.51" y="-293.426" font-family="Times New Roman,serif" font-size="10.00">tgt</text>
<text text-anchor="middle" x="769.243" y="-321.271" font-family="Times New Roman,serif" font-size="10.00">inEdges</text>
</g>
<!-- n25&#45;&#45;e26 -->
<g id="edge70" class="edge"><title>n25&#45;&#45;e26</title>
<path fill="none" stroke="black" d="M698.526,-246.351C681.451,-234.967 660.579,-221.052 643.5,-209.666"/>
<text text-anchor="middle" x="653.385" y="-208.677" font-family="Times New Roman,serif" font-size="10.00">outEdges</text>
<text text-anchor="middle" x="688.641" y="-242.34" font-family="Times New Roman,serif" font-size="10.00">src</text>
</g>
</g>
</svg>
