<?xml version="1.0" encoding="UTF-8" standalone="no"?>
<!DOCTYPE svg PUBLIC "-//W3C//DTD SVG 1.1//EN"
 "http://www.w3.org/Graphics/SVG/1.1/DTD/svg11.dtd">
<!-- Generated by graphviz version 2.26.3 (20100126.1600)
 -->
<!-- Title: ObjectDiagram Pages: 1 -->
<svg width="1074pt" height="700pt"
 viewBox="0.00 0.00 1074.00 700.00" xmlns="http://www.w3.org/2000/svg" xmlns:xlink="http://www.w3.org/1999/xlink">
<g id="graph1" class="graph" transform="scale(1 1) rotate(0) translate(4 696)">
<title>ObjectDiagram</title>
<polygon fill="white" stroke="white" points="-4,5 -4,-696 1071,-696 1071,5 -4,5"/>
<!-- g1 -->
<g id="node1" class="node"><title>g1</title>
<polygon fill="none" stroke="black" points="467,-665 467,-682 526,-682 526,-665 467,-665"/>
<text text-anchor="start" x="470.5" y="-671.167" font-family="Times Roman,serif" font-size="10.00"> </text>
<text text-anchor="start" x="474.5" y="-671.167" font-family="Times Roman,serif" font-size="10.00">g1 :Graph</text>
</g>
<!-- n2 -->
<g id="node2" class="node"><title>n2</title>
<polygon fill="none" stroke="black" points="192,-598 192,-615 265,-615 265,-598 192,-598"/>
<text text-anchor="start" x="204.5" y="-604.167" font-family="Times Roman,serif" font-size="10.00"> </text>
<text text-anchor="start" x="208.5" y="-604.167" font-family="Times Roman,serif" font-size="10.00">n2 :Node</text>
<polygon fill="none" stroke="black" points="192,-578 192,-598 265,-598 265,-578 192,-578"/>
<text text-anchor="start" x="197.5" y="-585.667" font-family="Times Roman,serif" font-size="10.00">name = &quot;n1&quot;</text>
</g>
<!-- g1&#45;&#45;n2 -->
<g id="edge2" class="edge"><title>g1&#45;&#45;n2</title>
<path fill="none" stroke="black" d="M458.799,-665.926C416.506,-656.404 345.602,-639.395 286,-620 281.468,-618.525 276.78,-616.878 272.124,-615.161"/>
<text text-anchor="middle" x="282.089" y="-611.316" font-family="Times Roman,serif" font-size="10.00">nodes</text>
<text text-anchor="middle" x="449.024" y="-665.034" font-family="Times Roman,serif" font-size="10.00">graph</text>
</g>
<!-- e3 -->
<g id="node3" class="node"><title>e3</title>
<polygon fill="none" stroke="black" points="224,-516 224,-533 303,-533 303,-516 224,-516"/>
<text text-anchor="start" x="240" y="-522.167" font-family="Times Roman,serif" font-size="10.00"> </text>
<text text-anchor="start" x="244" y="-522.167" font-family="Times Roman,serif" font-size="10.00">e3 :Edge</text>
<polygon fill="none" stroke="black" points="224,-496 224,-516 303,-516 303,-496 224,-496"/>
<text text-anchor="start" x="229.5" y="-503.667" font-family="Times Roman,serif" font-size="10.00">name = &quot;e12&quot;</text>
</g>
<!-- g1&#45;&#45;e3 -->
<g id="edge26" class="edge"><title>g1&#45;&#45;e3</title>
<path fill="none" stroke="black" d="M458.782,-670.209C421.243,-664.71 363.36,-651.463 324,-620 296.993,-598.412 279.555,-561.391 270.508,-537.571"/>
<text text-anchor="middle" x="277.768" y="-541.449" font-family="Times Roman,serif" font-size="10.00">edges</text>
<text text-anchor="middle" x="449.165" y="-669.95" font-family="Times Roman,serif" font-size="10.00">graph</text>
</g>
<!-- n4 -->
<g id="node4" class="node"><title>n4</title>
<polygon fill="none" stroke="black" points="227,-434 227,-451 300,-451 300,-434 227,-434"/>
<text text-anchor="start" x="239.5" y="-440.167" font-family="Times Roman,serif" font-size="10.00"> </text>
<text text-anchor="start" x="243.5" y="-440.167" font-family="Times Roman,serif" font-size="10.00">n4 :Node</text>
<polygon fill="none" stroke="black" points="227,-414 227,-434 300,-434 300,-414 227,-414"/>
<text text-anchor="start" x="232.5" y="-421.667" font-family="Times Roman,serif" font-size="10.00">name = &quot;n3&quot;</text>
</g>
<!-- g1&#45;&#45;n4 -->
<g id="edge6" class="edge"><title>g1&#45;&#45;n4</title>
<path fill="none" stroke="black" d="M458.776,-667.837C428.823,-661.025 387.635,-647.194 362,-620 320.834,-576.331 349.943,-543.421 319,-492 310.99,-478.689 299.525,-465.924 289.052,-455.694"/>
<text text-anchor="middle" x="298.462" y="-456.078" font-family="Times Roman,serif" font-size="10.00">nodes</text>
<text text-anchor="middle" x="448.971" y="-666.802" font-family="Times Roman,serif" font-size="10.00">graph</text>
</g>
<!-- e5 -->
<g id="node5" class="node"><title>e5</title>
<polygon fill="none" stroke="black" points="74,-352 74,-369 153,-369 153,-352 74,-352"/>
<text text-anchor="start" x="90" y="-358.167" font-family="Times Roman,serif" font-size="10.00"> </text>
<text text-anchor="start" x="94" y="-358.167" font-family="Times Roman,serif" font-size="10.00">e5 :Edge</text>
<polygon fill="none" stroke="black" points="74,-332 74,-352 153,-352 153,-332 74,-332"/>
<text text-anchor="start" x="79.5" y="-339.667" font-family="Times Roman,serif" font-size="10.00">name = &quot;e11&quot;</text>
</g>
<!-- g1&#45;&#45;e5 -->
<g id="edge24" class="edge"><title>g1&#45;&#45;e5</title>
<path fill="none" stroke="black" d="M458.878,-672.787C383.34,-669.54 215.47,-658.117 175,-620 104.876,-553.953 106.647,-425.79 110.645,-373.768"/>
<text text-anchor="middle" x="114.322" y="-380.068" font-family="Times Roman,serif" font-size="10.00">edges</text>
<text text-anchor="middle" x="449.619" y="-673.563" font-family="Times Roman,serif" font-size="10.00">graph</text>
</g>
<!-- n6 -->
<g id="node6" class="node"><title>n6</title>
<polygon fill="none" stroke="black" points="57,-270 57,-287 130,-287 130,-270 57,-270"/>
<text text-anchor="start" x="69.5" y="-276.167" font-family="Times Roman,serif" font-size="10.00"> </text>
<text text-anchor="start" x="73.5" y="-276.167" font-family="Times Roman,serif" font-size="10.00">n6 :Node</text>
<polygon fill="none" stroke="black" points="57,-250 57,-270 130,-270 130,-250 57,-250"/>
<text text-anchor="start" x="62.5" y="-257.667" font-family="Times Roman,serif" font-size="10.00">name = &quot;n2&quot;</text>
</g>
<!-- g1&#45;&#45;n6 -->
<g id="edge4" class="edge"><title>g1&#45;&#45;n6</title>
<path fill="none" stroke="black" d="M458.911,-671.454C379.033,-665.485 193.481,-648.866 138,-620 80.8306,-590.255 38,-579.444 38,-515 38,-515 38,-515 38,-433 38,-385.575 40.141,-372.327 57,-328 61.8628,-315.214 69.5336,-302.116 76.5472,-291.519"/>
<text text-anchor="middle" x="75.1365" y="-298.419" font-family="Times Roman,serif" font-size="10.00">nodes</text>
<text text-anchor="middle" x="449.545" y="-671.958" font-family="Times Roman,serif" font-size="10.00">graph</text>
</g>
<!-- e7 -->
<g id="node7" class="node"><title>e7</title>
<polygon fill="none" stroke="black" points="54,-188 54,-205 133,-205 133,-188 54,-188"/>
<text text-anchor="start" x="70" y="-194.167" font-family="Times Roman,serif" font-size="10.00"> </text>
<text text-anchor="start" x="74" y="-194.167" font-family="Times Roman,serif" font-size="10.00">e7 :Edge</text>
<polygon fill="none" stroke="black" points="54,-168 54,-188 133,-188 133,-168 54,-168"/>
<text text-anchor="start" x="59.5" y="-175.667" font-family="Times Roman,serif" font-size="10.00">name = &quot;e10&quot;</text>
</g>
<!-- g1&#45;&#45;e7 -->
<g id="edge22" class="edge"><title>g1&#45;&#45;e7</title>
<path fill="none" stroke="black" d="M458.968,-671.387C359.185,-664.078 90.0029,-642.478 57,-620 13.1129,-590.109 0,-568.099 0,-515 0,-515 0,-515 0,-351 0,-301.062 13.9862,-288.628 40,-246 48.0333,-232.836 59.182,-219.898 69.1825,-209.507"/>
<text text-anchor="middle" x="66.0064" y="-215.989" font-family="Times Roman,serif" font-size="10.00">edges</text>
<text text-anchor="middle" x="449.613" y="-671.921" font-family="Times Roman,serif" font-size="10.00">graph</text>
</g>
<!-- e8 -->
<g id="node8" class="node"><title>e8</title>
<polygon fill="none" stroke="black" points="363,-352 363,-369 442,-369 442,-352 363,-352"/>
<text text-anchor="start" x="379" y="-358.167" font-family="Times Roman,serif" font-size="10.00"> </text>
<text text-anchor="start" x="383" y="-358.167" font-family="Times Roman,serif" font-size="10.00">e8 :Edge</text>
<polygon fill="none" stroke="black" points="363,-332 363,-352 442,-352 442,-332 363,-332"/>
<text text-anchor="start" x="368.5" y="-339.667" font-family="Times Roman,serif" font-size="10.00">name = &quot;e15&quot;</text>
</g>
<!-- g1&#45;&#45;e8 -->
<g id="edge32" class="edge"><title>g1&#45;&#45;e8</title>
<path fill="none" stroke="black" d="M482.816,-655.803C476.029,-645.687 468.126,-632.623 463,-620 427.593,-532.817 410.602,-420.985 404.616,-373.71"/>
<text text-anchor="middle" x="410.001" y="-379.137" font-family="Times Roman,serif" font-size="10.00">edges</text>
<text text-anchor="middle" x="474.289" y="-647.579" font-family="Times Roman,serif" font-size="10.00">graph</text>
</g>
<!-- n9 -->
<g id="node9" class="node"><title>n9</title>
<polygon fill="none" stroke="black" points="372,-270 372,-287 445,-287 445,-270 372,-270"/>
<text text-anchor="start" x="384.5" y="-276.167" font-family="Times Roman,serif" font-size="10.00"> </text>
<text text-anchor="start" x="388.5" y="-276.167" font-family="Times Roman,serif" font-size="10.00">n9 :Node</text>
<polygon fill="none" stroke="black" points="372,-250 372,-270 445,-270 445,-250 372,-250"/>
<text text-anchor="start" x="377.5" y="-257.667" font-family="Times Roman,serif" font-size="10.00">name = &quot;n5&quot;</text>
</g>
<!-- g1&#45;&#45;n9 -->
<g id="edge10" class="edge"><title>g1&#45;&#45;n9</title>
<path fill="none" stroke="black" d="M492.426,-655.961C486.922,-626.563 477,-566.431 477,-515 477,-515 477,-515 477,-433 477,-385.575 478.244,-370.887 458,-328 451.696,-314.644 441.578,-301.872 432.087,-291.649"/>
<text text-anchor="middle" x="441.314" y="-292.503" font-family="Times Roman,serif" font-size="10.00">nodes</text>
<text text-anchor="middle" x="486.643" y="-644.804" font-family="Times Roman,serif" font-size="10.00">graph</text>
</g>
<!-- e10 -->
<g id="node10" class="node"><title>e10</title>
<polygon fill="none" stroke="black" points="257,-188 257,-205 336,-205 336,-188 257,-188"/>
<text text-anchor="start" x="270" y="-194.167" font-family="Times Roman,serif" font-size="10.00"> </text>
<text text-anchor="start" x="274" y="-194.167" font-family="Times Roman,serif" font-size="10.00">e10 :Edge</text>
<polygon fill="none" stroke="black" points="257,-168 257,-188 336,-188 336,-168 257,-168"/>
<text text-anchor="start" x="262.5" y="-175.667" font-family="Times Roman,serif" font-size="10.00">name = &quot;e18&quot;</text>
</g>
<!-- g1&#45;&#45;e10 -->
<g id="edge18" class="edge"><title>g1&#45;&#45;e10</title>
<path fill="none" stroke="black" d="M474.549,-655.91C463.969,-646.124 451.655,-633.332 443,-620 352.004,-479.837 311.264,-277.416 299.657,-209.89"/>
<text text-anchor="middle" x="305.434" y="-215.052" font-family="Times Roman,serif" font-size="10.00">edges</text>
<text text-anchor="middle" x="465.049" y="-649.788" font-family="Times Roman,serif" font-size="10.00">graph</text>
</g>
<!-- e11 -->
<g id="node11" class="node"><title>e11</title>
<polygon fill="none" stroke="black" points="481,-188 481,-205 560,-205 560,-188 481,-188"/>
<text text-anchor="start" x="494" y="-194.167" font-family="Times Roman,serif" font-size="10.00"> </text>
<text text-anchor="start" x="498" y="-194.167" font-family="Times Roman,serif" font-size="10.00">e11 :Edge</text>
<polygon fill="none" stroke="black" points="481,-168 481,-188 560,-188 560,-168 481,-168"/>
<text text-anchor="start" x="486.5" y="-175.667" font-family="Times Roman,serif" font-size="10.00">name = &quot;e14&quot;</text>
</g>
<!-- g1&#45;&#45;e11 -->
<g id="edge30" class="edge"><title>g1&#45;&#45;e11</title>
<path fill="none" stroke="black" d="M509.176,-655.799C515.96,-645.682 523.863,-632.618 529,-620 547.05,-575.663 553,-562.87 553,-515 553,-515 553,-515 553,-351 553,-299.594 537.225,-240.874 527.488,-209.528"/>
<text text-anchor="middle" x="534.156" y="-213.981" font-family="Times Roman,serif" font-size="10.00">edges</text>
<text text-anchor="middle" x="510.653" y="-642.909" font-family="Times Roman,serif" font-size="10.00">graph</text>
</g>
<!-- n12 -->
<g id="node12" class="node"><title>n12</title>
<polygon fill="none" stroke="black" points="504,-106 504,-123 577,-123 577,-106 504,-106"/>
<text text-anchor="start" x="513.5" y="-112.167" font-family="Times Roman,serif" font-size="10.00"> </text>
<text text-anchor="start" x="517.5" y="-112.167" font-family="Times Roman,serif" font-size="10.00">n12 :Node</text>
<polygon fill="none" stroke="black" points="504,-86 504,-106 577,-106 577,-86 504,-86"/>
<text text-anchor="start" x="509.5" y="-93.6667" font-family="Times Roman,serif" font-size="10.00">name = &quot;n4&quot;</text>
</g>
<!-- g1&#45;&#45;n12 -->
<g id="edge8" class="edge"><title>g1&#45;&#45;n12</title>
<path fill="none" stroke="black" d="M518.174,-655.969C529.131,-646.2 541.915,-633.403 551,-620 579.39,-578.117 595,-565.598 595,-515 595,-515 595,-515 595,-269 595,-221.575 592.859,-208.327 576,-164 571.137,-151.214 563.466,-138.116 556.453,-127.519"/>
<text text-anchor="middle" x="564.943" y="-129.802" font-family="Times Roman,serif" font-size="10.00">nodes</text>
<text text-anchor="middle" x="522.059" y="-643.754" font-family="Times Roman,serif" font-size="10.00">graph</text>
</g>
<!-- e13 -->
<g id="node13" class="node"><title>e13</title>
<polygon fill="none" stroke="black" points="501,-24 501,-41 580,-41 580,-24 501,-24"/>
<text text-anchor="start" x="514" y="-30.1667" font-family="Times Roman,serif" font-size="10.00"> </text>
<text text-anchor="start" x="518" y="-30.1667" font-family="Times Roman,serif" font-size="10.00">e13 :Edge</text>
<polygon fill="none" stroke="black" points="501,-4 501,-24 580,-24 580,-4 501,-4"/>
<text text-anchor="start" x="506.5" y="-11.6667" font-family="Times Roman,serif" font-size="10.00">name = &quot;e13&quot;</text>
</g>
<!-- g1&#45;&#45;e13 -->
<g id="edge28" class="edge"><title>g1&#45;&#45;e13</title>
<path fill="none" stroke="black" d="M533.073,-655.899C548.982,-646.78 566.885,-634.553 580,-620 614.995,-581.167 633,-567.275 633,-515 633,-515 633,-515 633,-187 633,-137.062 619.014,-124.628 593,-82 584.967,-68.8363 573.818,-55.8979 563.818,-45.5072"/>
<text text-anchor="middle" x="573.123" y="-46.1693" font-family="Times Roman,serif" font-size="10.00">edges</text>
<text text-anchor="middle" x="538.755" y="-644.67" font-family="Times Roman,serif" font-size="10.00">graph</text>
</g>
<!-- e14 -->
<g id="node14" class="node"><title>e14</title>
<polygon fill="none" stroke="black" points="369,-188 369,-205 448,-205 448,-188 369,-188"/>
<text text-anchor="start" x="382" y="-194.167" font-family="Times Roman,serif" font-size="10.00"> </text>
<text text-anchor="start" x="386" y="-194.167" font-family="Times Roman,serif" font-size="10.00">e14 :Edge</text>
<polygon fill="none" stroke="black" points="369,-168 369,-188 448,-188 448,-168 369,-168"/>
<text text-anchor="start" x="374.5" y="-175.667" font-family="Times Roman,serif" font-size="10.00">name = &quot;e19&quot;</text>
</g>
<!-- g1&#45;&#45;e14 -->
<g id="edge20" class="edge"><title>g1&#45;&#45;e14</title>
<path fill="none" stroke="black" d="M499.574,-655.961C505.078,-626.563 515,-566.431 515,-515 515,-515 515,-515 515,-351 515,-292.696 466.979,-238.908 435.277,-209.752"/>
<text text-anchor="middle" x="444.754" y="-209.943" font-family="Times Roman,serif" font-size="10.00">edges</text>
<text text-anchor="middle" x="497.042" y="-643.287" font-family="Times Roman,serif" font-size="10.00">graph</text>
</g>
<!-- n15 -->
<g id="node15" class="node"><title>n15</title>
<polygon fill="none" stroke="black" points="669,-598 669,-615 742,-615 742,-598 669,-598"/>
<text text-anchor="start" x="678.5" y="-604.167" font-family="Times Roman,serif" font-size="10.00"> </text>
<text text-anchor="start" x="682.5" y="-604.167" font-family="Times Roman,serif" font-size="10.00">n15 :Node</text>
<polygon fill="none" stroke="black" points="669,-578 669,-598 742,-598 742,-578 669,-578"/>
<text text-anchor="start" x="674.5" y="-585.667" font-family="Times Roman,serif" font-size="10.00">name = &quot;n6&quot;</text>
</g>
<!-- g1&#45;&#45;n15 -->
<g id="edge12" class="edge"><title>g1&#45;&#45;n15</title>
<path fill="none" stroke="black" d="M533.052,-661.145C563.699,-650.418 608.313,-634.583 647,-620 651.46,-618.319 656.1,-616.536 660.727,-614.736"/>
<text text-anchor="middle" x="653.809" y="-618.958" font-family="Times Roman,serif" font-size="10.00">nodes</text>
<text text-anchor="middle" x="540.205" y="-651.158" font-family="Times Roman,serif" font-size="10.00">graph</text>
</g>
<!-- n16 -->
<g id="node16" class="node"><title>n16</title>
<polygon fill="none" stroke="black" points="775,-598 775,-615 848,-615 848,-598 775,-598"/>
<text text-anchor="start" x="784.5" y="-604.167" font-family="Times Roman,serif" font-size="10.00"> </text>
<text text-anchor="start" x="788.5" y="-604.167" font-family="Times Roman,serif" font-size="10.00">n16 :Node</text>
<polygon fill="none" stroke="black" points="775,-578 775,-598 848,-598 848,-578 775,-578"/>
<text text-anchor="start" x="780.5" y="-585.667" font-family="Times Roman,serif" font-size="10.00">name = &quot;n7&quot;</text>
</g>
<!-- g1&#45;&#45;n16 -->
<g id="edge14" class="edge"><title>g1&#45;&#45;n16</title>
<path fill="none" stroke="black" d="M533.061,-668.829C584.381,-661.115 679.625,-644.791 758,-620 760.869,-619.093 763.793,-618.082 766.721,-617.005"/>
<text text-anchor="middle" x="759.661" y="-621.087" font-family="Times Roman,serif" font-size="10.00">nodes</text>
<text text-anchor="middle" x="541.372" y="-660.269" font-family="Times Roman,serif" font-size="10.00">graph</text>
</g>
<!-- n17 -->
<g id="node17" class="node"><title>n17</title>
<polygon fill="none" stroke="black" points="919,-598 919,-615 992,-615 992,-598 919,-598"/>
<text text-anchor="start" x="928.5" y="-604.167" font-family="Times Roman,serif" font-size="10.00"> </text>
<text text-anchor="start" x="932.5" y="-604.167" font-family="Times Roman,serif" font-size="10.00">n17 :Node</text>
<polygon fill="none" stroke="black" points="919,-578 919,-598 992,-598 992,-578 919,-578"/>
<text text-anchor="start" x="924.5" y="-585.667" font-family="Times Roman,serif" font-size="10.00">name = &quot;n8&quot;</text>
</g>
<!-- g1&#45;&#45;n17 -->
<g id="edge16" class="edge"><title>g1&#45;&#45;n17</title>
<path fill="none" stroke="black" d="M533.072,-672.028C604.523,-667.569 765.832,-654.289 897,-620 901.506,-618.822 906.135,-617.391 910.719,-615.825"/>
<text text-anchor="middle" x="903.488" y="-619.733" font-family="Times Roman,serif" font-size="10.00">nodes</text>
<text text-anchor="middle" x="541.831" y="-664.204" font-family="Times Roman,serif" font-size="10.00">graph</text>
</g>
<!-- e18 -->
<g id="node18" class="node"><title>e18</title>
<polygon fill="none" stroke="black" points="852,-516 852,-533 931,-533 931,-516 852,-516"/>
<text text-anchor="start" x="865" y="-522.167" font-family="Times Roman,serif" font-size="10.00"> </text>
<text text-anchor="start" x="869" y="-522.167" font-family="Times Roman,serif" font-size="10.00">e18 :Edge</text>
<polygon fill="none" stroke="black" points="852,-496 852,-516 931,-516 931,-496 852,-496"/>
<text text-anchor="start" x="857.5" y="-503.667" font-family="Times Roman,serif" font-size="10.00">name = &quot;e16&quot;</text>
</g>
<!-- g1&#45;&#45;e18 -->
<g id="edge34" class="edge"><title>g1&#45;&#45;e18</title>
<path fill="none" stroke="black" d="M533.001,-670.89C621.441,-663.132 839.573,-641.966 864,-620 886.953,-599.36 891.578,-562.073 891.938,-537.938"/>
<text text-anchor="middle" x="895.864" y="-544.135" font-family="Times Roman,serif" font-size="10.00">edges</text>
<text text-anchor="middle" x="541.647" y="-662.866" font-family="Times Roman,serif" font-size="10.00">graph</text>
</g>
<!-- e19 -->
<g id="node19" class="node"><title>e19</title>
<polygon fill="none" stroke="black" points="980,-516 980,-533 1059,-533 1059,-516 980,-516"/>
<text text-anchor="start" x="993" y="-522.167" font-family="Times Roman,serif" font-size="10.00"> </text>
<text text-anchor="start" x="997" y="-522.167" font-family="Times Roman,serif" font-size="10.00">e19 :Edge</text>
<polygon fill="none" stroke="black" points="980,-496 980,-516 1059,-516 1059,-496 980,-496"/>
<text text-anchor="start" x="985.5" y="-503.667" font-family="Times Roman,serif" font-size="10.00">name = &quot;e17&quot;</text>
</g>
<!-- g1&#45;&#45;e19 -->
<g id="edge36" class="edge"><title>g1&#45;&#45;e19</title>
<path fill="none" stroke="black" d="M533.208,-672.732C645.364,-668.551 974.514,-653.509 1008,-620 1029.25,-598.737 1027.79,-561.625 1023.99,-537.697"/>
<text text-anchor="middle" x="1029.42" y="-543.093" font-family="Times Roman,serif" font-size="10.00">edges</text>
<text text-anchor="middle" x="542.095" y="-665.147" font-family="Times Roman,serif" font-size="10.00">graph</text>
</g>
<!-- n2&#45;&#45;e3 -->
<g id="edge38" class="edge"><title>n2&#45;&#45;e3</title>
<path fill="none" stroke="black" d="M237.749,-574.158C242.604,-562.785 248.456,-549.076 253.303,-537.719"/>
<text text-anchor="middle" x="253.632" y="-544.714" font-family="Times Roman,serif" font-size="10.00">outEdges</text>
<text text-anchor="middle" x="237.42" y="-561.164" font-family="Times Roman,serif" font-size="10.00">src</text>
</g>
<!-- n2&#45;&#45;e7 -->
<g id="edge40" class="edge"><title>n2&#45;&#45;e7</title>
<path fill="none" stroke="black" d="M218.823,-574.341C207.014,-543.084 188,-484.727 188,-433 188,-433 188,-433 188,-351 188,-294.076 144.615,-239.193 116.483,-209.588"/>
<text text-anchor="middle" x="125.728" y="-210.401" font-family="Times Roman,serif" font-size="10.00">inEdges</text>
<text text-anchor="middle" x="211.73" y="-564.292" font-family="Times Roman,serif" font-size="10.00">tgt</text>
</g>
<!-- e3&#45;&#45;n4 -->
<g id="edge42" class="edge"><title>e3&#45;&#45;n4</title>
<path fill="none" stroke="black" d="M263,-492.158C263,-480.785 263,-467.076 263,-455.719"/>
<text text-anchor="middle" x="267.226" y="-461.782" font-family="Times Roman,serif" font-size="10.00">tgt</text>
<text text-anchor="middle" x="258.774" y="-480.095" font-family="Times Roman,serif" font-size="10.00">inEdges</text>
</g>
<!-- n4&#45;&#45;e5 -->
<g id="edge44" class="edge"><title>n4&#45;&#45;e5</title>
<path fill="none" stroke="black" d="M221.615,-410.376C200.629,-398.904 175.217,-385.012 154.25,-373.55"/>
<text text-anchor="middle" x="164.23" y="-371.189" font-family="Times Roman,serif" font-size="10.00">outEdges</text>
<text text-anchor="middle" x="211.635" y="-406.737" font-family="Times Roman,serif" font-size="10.00">src</text>
</g>
<!-- n4&#45;&#45;e8 -->
<g id="edge46" class="edge"><title>n4&#45;&#45;e8</title>
<path fill="none" stroke="black" d="M301.35,-410.376C320.797,-398.904 344.346,-385.012 363.775,-373.55"/>
<text text-anchor="middle" x="358.116" y="-378.795" font-family="Times Roman,serif" font-size="10.00">outEdges</text>
<text text-anchor="middle" x="307.009" y="-399.131" font-family="Times Roman,serif" font-size="10.00">src</text>
</g>
<!-- n4&#45;&#45;e13 -->
<g id="edge48" class="edge"><title>n4&#45;&#45;e13</title>
<path fill="none" stroke="black" d="M252.492,-410.271C231.425,-361.015 190.128,-242.545 240,-164 295.988,-75.8215 423.385,-41.8024 492.792,-29.4702"/>
<text text-anchor="middle" x="484.707" y="-32.3558" font-family="Times Roman,serif" font-size="10.00">inEdges</text>
<text text-anchor="middle" x="245.161" y="-400.47" font-family="Times Roman,serif" font-size="10.00">tgt</text>
</g>
<!-- e5&#45;&#45;n6 -->
<g id="edge50" class="edge"><title>e5&#45;&#45;n6</title>
<path fill="none" stroke="black" d="M107.429,-328.158C104.655,-316.785 101.311,-303.076 98.5412,-291.719"/>
<text text-anchor="middle" x="104.795" y="-296.523" font-family="Times Roman,serif" font-size="10.00">tgt</text>
<text text-anchor="middle" x="101.176" y="-317.355" font-family="Times Roman,serif" font-size="10.00">inEdges</text>
</g>
<!-- n6&#45;&#45;e7 -->
<g id="edge52" class="edge"><title>n6&#45;&#45;e7</title>
<path fill="none" stroke="black" d="M93,-246.158C93,-234.785 93,-221.076 93,-209.719"/>
<text text-anchor="middle" x="97.2262" y="-215.782" font-family="Times Roman,serif" font-size="10.00">outEdges</text>
<text text-anchor="middle" x="88.7738" y="-234.095" font-family="Times Roman,serif" font-size="10.00">src</text>
</g>
<!-- e8&#45;&#45;n9 -->
<g id="edge54" class="edge"><title>e8&#45;&#45;n9</title>
<path fill="none" stroke="black" d="M403.671,-328.158C404.504,-316.785 405.507,-303.076 406.338,-291.719"/>
<text text-anchor="middle" x="409.891" y="-298.066" font-family="Times Roman,serif" font-size="10.00">tgt</text>
<text text-anchor="middle" x="400.118" y="-315.811" font-family="Times Roman,serif" font-size="10.00">inEdges</text>
</g>
<!-- n9&#45;&#45;e10 -->
<g id="edge56" class="edge"><title>n9&#45;&#45;e10</title>
<path fill="none" stroke="black" d="M377.099,-246.376C361.43,-234.904 342.455,-221.012 326.8,-209.55"/>
<text text-anchor="middle" x="336.609" y="-208.494" font-family="Times Roman,serif" font-size="10.00">outEdges</text>
<text text-anchor="middle" x="367.29" y="-241.432" font-family="Times Roman,serif" font-size="10.00">src</text>
</g>
<!-- n9&#45;&#45;e11 -->
<g id="edge58" class="edge"><title>n9&#45;&#45;e11</title>
<path fill="none" stroke="black" d="M438.901,-246.376C454.57,-234.904 473.545,-221.012 489.2,-209.55"/>
<text text-anchor="middle" x="484.384" y="-215.314" font-family="Times Roman,serif" font-size="10.00">outEdges</text>
<text text-anchor="middle" x="443.717" y="-234.612" font-family="Times Roman,serif" font-size="10.00">src</text>
</g>
<!-- n9&#45;&#45;e14 -->
<g id="edge60" class="edge"><title>n9&#45;&#45;e14</title>
<path fill="none" stroke="black" d="M408,-246.158C408,-234.785 408,-221.076 408,-209.719"/>
<text text-anchor="middle" x="412.226" y="-215.782" font-family="Times Roman,serif" font-size="10.00">inEdges</text>
<text text-anchor="middle" x="403.774" y="-234.095" font-family="Times Roman,serif" font-size="10.00">tgt</text>
</g>
<!-- e11&#45;&#45;n12 -->
<g id="edge62" class="edge"><title>e11&#45;&#45;n12</title>
<path fill="none" stroke="black" d="M525.571,-164.158C528.345,-152.785 531.689,-139.076 534.459,-127.719"/>
<text text-anchor="middle" x="536.417" y="-134.525" font-family="Times Roman,serif" font-size="10.00">tgt</text>
<text text-anchor="middle" x="523.613" y="-151.352" font-family="Times Roman,serif" font-size="10.00">inEdges</text>
</g>
<!-- n12&#45;&#45;e13 -->
<g id="edge64" class="edge"><title>n12&#45;&#45;e13</title>
<path fill="none" stroke="black" d="M540,-82.1584C540,-70.7851 540,-57.0756 540,-45.7191"/>
<text text-anchor="middle" x="544.226" y="-51.7822" font-family="Times Roman,serif" font-size="10.00">outEdges</text>
<text text-anchor="middle" x="535.774" y="-70.0954" font-family="Times Roman,serif" font-size="10.00">src</text>
</g>
<!-- n17&#45;&#45;e18 -->
<g id="edge66" class="edge"><title>n17&#45;&#45;e18</title>
<path fill="none" stroke="black" d="M937.172,-574.158C928.296,-562.785 917.596,-549.076 908.732,-537.719"/>
<text text-anchor="middle" x="917.64" y="-539.263" font-family="Times Roman,serif" font-size="10.00">outEdges_inEdges</text>
<text text-anchor="middle" x="928.265" y="-566.614" font-family="Times Roman,serif" font-size="10.00">src_tgt</text>
</g>
<!-- n17&#45;&#45;e19 -->
<g id="edge68" class="edge"><title>n17&#45;&#45;e19</title>
<path fill="none" stroke="black" d="M972.828,-574.158C981.704,-562.785 992.404,-549.076 1001.27,-537.719"/>
<text text-anchor="middle" x="999.023" y="-544.464" font-family="Times Roman,serif" font-size="10.00">outEdges_inEdges</text>
<text text-anchor="middle" x="975.072" y="-561.414" font-family="Times Roman,serif" font-size="10.00">src_tgt</text>
</g>
</g>
</svg>
