<?xml version="1.0" encoding="UTF-8" standalone="no"?>
<!DOCTYPE svg PUBLIC "-//W3C//DTD SVG 1.1//EN"
 "http://www.w3.org/Graphics/SVG/1.1/DTD/svg11.dtd">
<!-- Generated by graphviz version 2.28.0 (20110507.0327)
 -->
<!-- Title: ObjectDiagram Pages: 1 -->
<svg width="241pt" height="560pt"
 viewBox="0.00 0.00 241.00 560.00" xmlns="http://www.w3.org/2000/svg" xmlns:xlink="http://www.w3.org/1999/xlink">
<g id="graph1" class="graph" transform="scale(1 1) rotate(0) translate(4 556)">
<title>ObjectDiagram</title>
<polygon fill="white" stroke="white" points="-4,5 -4,-556 238,-556 238,5 -4,5"/>
<!-- g1 -->
<g id="node1" class="node"><title>g1</title>
<polygon fill="deepskyblue" stroke="deepskyblue" points="41.5,-496.5 41.5,-547.5 116.5,-547.5 116.5,-496.5 41.5,-496.5"/>
<text text-anchor="start" x="78" y="-537.5" font-family="Arial" font-size="10.00">«bound»</text>
<polygon fill="none" stroke="black" points="42,-516 42,-532 117,-532 117,-516 42,-516"/>
<text text-anchor="start" x="45.5" y="-522" font-family="Arial" font-size="10.00"> </text>
<text text-anchor="start" x="49.5" y="-522" font-family="Arial" font-size="10.00"> g1 :GraphPO </text>
<polygon fill="none" stroke="black" points="42,-496 42,-516 117,-516 117,-496 42,-496"/>
<text text-anchor="start" x="76" y="-504" font-family="Arial" font-size="10.00"> &#160;</text>
</g>
<!-- n2 -->
<g id="node2" class="node"><title>n2</title>
<polygon fill="deepskyblue" stroke="deepskyblue" points="52,-414.5 52,-451.5 106,-451.5 106,-414.5 52,-414.5"/>
<polygon fill="none" stroke="black" points="52,-434 52,-451 106,-451 106,-434 52,-434"/>
<text text-anchor="start" x="55.5" y="-440.5" font-family="Arial" font-size="10.00"> </text>
<text text-anchor="start" x="59.5" y="-440.5" font-family="Arial" font-size="10.00"> n2 :NodePO </text>
<polygon fill="none" stroke="black" points="52,-414 52,-434 106,-434 106,-414 52,-414"/>
<text text-anchor="start" x="75.5" y="-422" font-family="Arial" font-size="10.00"> &#160;</text>
</g>
<!-- g1&#45;&#45;n2 -->
<g id="edge2" class="edge"><title>g1&#45;&#45;n2</title>
<path fill="none" stroke="black" d="M79,-492.03C79,-480.167 79,-466.675 79,-455.687"/>
<text text-anchor="middle" x="83.2262" y="-462.25" font-family="Arial" font-size="10.00">nodes</text>
</g>
<!-- e3 -->
<g id="node3" class="node"><title>e3</title>
<polygon fill="deepskyblue" stroke="deepskyblue" points="7.5,-332.5 7.5,-369.5 78.5,-369.5 78.5,-332.5 7.5,-332.5"/>
<polygon fill="none" stroke="black" points="8,-352 8,-369 79,-369 79,-352 8,-352"/>
<text text-anchor="start" x="11.5" y="-358.5" font-family="Arial" font-size="10.00"> </text>
<text text-anchor="start" x="15.5" y="-358.5" font-family="Arial" font-size="10.00"> e3 :EdgePO </text>
<polygon fill="none" stroke="black" points="8,-332 8,-352 79,-352 79,-332 8,-332"/>
<text text-anchor="start" x="40" y="-340" font-family="Arial" font-size="10.00"> &#160;</text>
</g>
<!-- n2&#45;&#45;e3 -->
<g id="edge4" class="edge"><title>n2&#45;&#45;e3</title>
<path fill="none" stroke="black" d="M69.1628,-410.14C64.0416,-398.759 57.8018,-384.893 52.7006,-373.557"/>
<text text-anchor="middle" x="60.2737" y="-377.587" font-family="Arial" font-size="10.00">outEdges</text>
</g>
<!-- n4 -->
<g id="node4" class="node"><title>n4</title>
<polygon fill="deepskyblue" stroke="deepskyblue" points="7.5,-250.5 7.5,-287.5 78.5,-287.5 78.5,-250.5 7.5,-250.5"/>
<polygon fill="none" stroke="black" points="8,-270 8,-287 79,-287 79,-270 8,-270"/>
<text text-anchor="start" x="11.5" y="-276.5" font-family="Arial" font-size="10.00"> </text>
<text text-anchor="start" x="15.5" y="-276.5" font-family="Arial" font-size="10.00"> n4 :NodePO </text>
<polygon fill="none" stroke="black" points="8,-250 8,-270 79,-270 79,-250 8,-250"/>
<text text-anchor="start" x="40" y="-258" font-family="Arial" font-size="10.00"> &#160;</text>
</g>
<!-- e3&#45;&#45;n4 -->
<g id="edge6" class="edge"><title>e3&#45;&#45;n4</title>
<path fill="none" stroke="black" d="M43,-328.14C43,-316.759 43,-302.893 43,-291.557"/>
<text text-anchor="middle" x="47.2262" y="-298.12" font-family="Arial" font-size="10.00">tgt</text>
</g>
<!-- e5 -->
<g id="node5" class="node"><title>e5</title>
<polygon fill="deepskyblue" stroke="deepskyblue" points="16,-168.5 16,-205.5 74,-205.5 74,-168.5 16,-168.5"/>
<polygon fill="none" stroke="black" points="16,-188 16,-205 74,-205 74,-188 16,-188"/>
<text text-anchor="start" x="19.5" y="-194.5" font-family="Arial" font-size="10.00"> </text>
<text text-anchor="start" x="23.5" y="-194.5" font-family="Arial" font-size="10.00"> e5 :EdgePO </text>
<polygon fill="none" stroke="black" points="16,-168 16,-188 74,-188 74,-168 16,-168"/>
<text text-anchor="start" x="41.5" y="-176" font-family="Arial" font-size="10.00"> &#160;</text>
</g>
<!-- n4&#45;&#45;e5 -->
<g id="edge8" class="edge"><title>n4&#45;&#45;e5</title>
<path fill="none" stroke="black" d="M43.5465,-246.14C43.831,-234.759 44.1777,-220.893 44.4611,-209.557"/>
<text text-anchor="middle" x="48.4594" y="-216.223" font-family="Arial" font-size="10.00">outEdges</text>
</g>
<!-- n6 -->
<g id="node6" class="node"><title>n6</title>
<polygon fill="deepskyblue" stroke="deepskyblue" points="18.5,-86.5 18.5,-123.5 77.5,-123.5 77.5,-86.5 18.5,-86.5"/>
<polygon fill="none" stroke="black" points="19,-106 19,-123 78,-123 78,-106 19,-106"/>
<text text-anchor="start" x="22.5" y="-112.5" font-family="Arial" font-size="10.00"> </text>
<text text-anchor="start" x="26.5" y="-112.5" font-family="Arial" font-size="10.00"> n6 :NodePO </text>
<polygon fill="none" stroke="black" points="19,-86 19,-106 78,-106 78,-86 19,-86"/>
<text text-anchor="start" x="45" y="-94" font-family="Arial" font-size="10.00"> &#160;</text>
</g>
<!-- e5&#45;&#45;n6 -->
<g id="edge10" class="edge"><title>e5&#45;&#45;n6</title>
<path fill="none" stroke="black" d="M45.8198,-164.14C46.2465,-152.759 46.7665,-138.893 47.1916,-127.557"/>
<text text-anchor="middle" x="51.0752" y="-134.272" font-family="Arial" font-size="10.00">tgt</text>
</g>
<!-- e7 -->
<g id="node7" class="node"><title>e7</title>
<polygon fill="deepskyblue" stroke="deepskyblue" points="52,-4.5 52,-41.5 110,-41.5 110,-4.5 52,-4.5"/>
<polygon fill="none" stroke="black" points="52,-24 52,-41 110,-41 110,-24 52,-24"/>
<text text-anchor="start" x="55.5" y="-30.5" font-family="Arial" font-size="10.00"> </text>
<text text-anchor="start" x="59.5" y="-30.5" font-family="Arial" font-size="10.00"> e7 :EdgePO </text>
<polygon fill="none" stroke="black" points="52,-4 52,-24 110,-24 110,-4 52,-4"/>
<text text-anchor="start" x="77.5" y="-12" font-family="Arial" font-size="10.00"> &#160;</text>
</g>
<!-- n6&#45;&#45;e7 -->
<g id="edge12" class="edge"><title>n6&#45;&#45;e7</title>
<path fill="none" stroke="black" d="M57.0174,-82.1396C61.7119,-70.759 67.4317,-56.8929 72.1078,-45.5569"/>
<text text-anchor="middle" x="72.5586" y="-53.0468" font-family="Arial" font-size="10.00">outEdges</text>
</g>
<!-- e7&#45;&#45;n2 -->
<g id="edge14" class="edge"><title>e7&#45;&#45;n2</title>
<path fill="none" stroke="black" d="M88.5457,-45.7067C98.5624,-76.5081 115,-134.847 115,-186 115,-270 115,-270 115,-270 115,-321.284 97.5955,-379.571 86.9896,-410.33"/>
<text text-anchor="middle" x="85.8658" y="-397.893" font-family="Arial" font-size="10.00">tgt</text>
</g>
<!-- matchIsomorphic -->
<g id="node8" class="node"><title>matchIsomorphic</title>
<text text-anchor="middle" x="188" y="-519.5" font-family="Arial" font-size="10.00">matchIsomorphic</text>
</g>
</g>
</svg>
