<?xml version="1.0" encoding="UTF-8" standalone="no"?>
<!DOCTYPE svg PUBLIC "-//W3C//DTD SVG 1.1//EN"
 "http://www.w3.org/Graphics/SVG/1.1/DTD/svg11.dtd">
<!-- Generated by graphviz version 2.28.0 (20110507.0327)
 -->
<!-- Title: ObjectDiagram Pages: 1 -->
<svg width="383pt" height="218pt"
 viewBox="0.00 0.00 383.00 218.00" xmlns="http://www.w3.org/2000/svg" xmlns:xlink="http://www.w3.org/1999/xlink">
<g id="graph1" class="graph" transform="scale(1 1) rotate(0) translate(4 214)">
<title>ObjectDiagram</title>
<polygon fill="white" stroke="white" points="-4,5 -4,-214 380,-214 380,5 -4,5"/>
<!-- n32 -->
<g id="node1" class="node"><title>n32</title>
<polygon fill="none" stroke="black" points="143,-188 143,-205 204,-205 204,-188 143,-188"/>
<text text-anchor="start" x="151.5" y="-194.5" font-family="Times New Roman,serif" font-size="10.00"> </text>
<text text-anchor="start" x="154.5" y="-194.5" font-family="Times New Roman,serif" font-size="10.00">n32 :Node</text>
<polygon fill="none" stroke="black" points="143,-168 143,-188 204,-188 204,-168 143,-168"/>
<text text-anchor="start" x="148.5" y="-176" font-family="Times New Roman,serif" font-size="10.00">name = &quot;n8&quot;</text>
</g>
<!-- e33 -->
<g id="node2" class="node"><title>e33</title>
<polygon fill="none" stroke="black" points="8,-106 8,-123 73,-123 73,-106 8,-106"/>
<text text-anchor="start" x="19.5" y="-112.5" font-family="Times New Roman,serif" font-size="10.00"> </text>
<text text-anchor="start" x="22.5" y="-112.5" font-family="Times New Roman,serif" font-size="10.00">e33 :Edge</text>
<polygon fill="none" stroke="black" points="8,-86 8,-106 73,-106 73,-86 8,-86"/>
<text text-anchor="start" x="13.5" y="-94" font-family="Times New Roman,serif" font-size="10.00">name = &quot;e16&quot;</text>
</g>
<!-- n32&#45;&#45;e33 -->
<g id="edge6" class="edge"><title>n32&#45;&#45;e33</title>
<path fill="none" stroke="black" d="M137.008,-164.351C118.083,-152.967 94.9497,-139.052 76.0205,-127.666"/>
<text text-anchor="middle" x="85.9652" y="-126.216" font-family="Times New Roman,serif" font-size="10.00">outEdges_inEdges</text>
<text text-anchor="middle" x="127.064" y="-160.801" font-family="Times New Roman,serif" font-size="10.00">src_tgt</text>
</g>
<!-- e34 -->
<g id="node3" class="node"><title>e34</title>
<polygon fill="none" stroke="black" points="107,-106 107,-123 172,-123 172,-106 107,-106"/>
<text text-anchor="start" x="118.5" y="-112.5" font-family="Times New Roman,serif" font-size="10.00"> </text>
<text text-anchor="start" x="121.5" y="-112.5" font-family="Times New Roman,serif" font-size="10.00">e34 :Edge</text>
<polygon fill="none" stroke="black" points="107,-86 107,-106 172,-106 172,-86 107,-86"/>
<text text-anchor="start" x="112.5" y="-94" font-family="Times New Roman,serif" font-size="10.00">name = &quot;e17&quot;</text>
</g>
<!-- n32&#45;&#45;e34 -->
<g id="edge8" class="edge"><title>n32&#45;&#45;e34</title>
<path fill="none" stroke="black" d="M163.709,-164.14C158.873,-152.759 152.979,-138.893 148.162,-127.557"/>
<text text-anchor="middle" x="155.596" y="-131.745" font-family="Times New Roman,serif" font-size="10.00">outEdges_inEdges</text>
<text text-anchor="middle" x="156.275" y="-154.952" font-family="Times New Roman,serif" font-size="10.00">src_tgt</text>
</g>
<!-- n35 -->
<g id="node4" class="node"><title>n35</title>
<polygon fill="none" stroke="black" points="244,-106 244,-123 298,-123 298,-106 244,-106"/>
<text text-anchor="start" x="249" y="-112.5" font-family="Times New Roman,serif" font-size="10.00"> </text>
<text text-anchor="start" x="252" y="-112.5" font-family="Times New Roman,serif" font-size="10.00">n35 :Node</text>
<polygon fill="none" stroke="black" points="244,-86 244,-106 298,-106 298,-86 244,-86"/>
<text text-anchor="start" x="249.5" y="-94" font-family="Times New Roman,serif" font-size="10.00">text = &quot;n8&quot;</text>
</g>
<!-- n32&#45;&#45;n35 -->
<g id="edge12" class="edge"><title>n32&#45;&#45;n35</title>
<path fill="none" stroke="black" d="M199.52,-164.351C213.465,-152.967 230.511,-139.052 244.459,-127.666"/>
<text text-anchor="middle" x="240.11" y="-134.172" font-family="Times New Roman,serif" font-size="10.00">copy</text>
<text text-anchor="middle" x="203.868" y="-152.846" font-family="Times New Roman,serif" font-size="10.00">orig</text>
</g>
<!-- g2 -->
<g id="node8" class="node"><title>g2</title>
<text text-anchor="middle" x="139" y="-20.5" font-family="Times New Roman,serif" font-size="10.00">g2</text>
</g>
<!-- n32&#45;&#45;g2 -->
<g id="edge10" class="edge"><title>n32&#45;&#45;g2</title>
<path fill="none" stroke="black" d="M182.121,-164.254C189.766,-142.761 197.966,-109.239 188,-82 182.203,-66.1544 169.953,-51.6544 159.152,-41.1158"/>
<text text-anchor="middle" x="168.548" y="-42.039" font-family="Times New Roman,serif" font-size="10.00">graph</text>
</g>
<!-- e33&#45;&#45;g2 -->
<g id="edge2" class="edge"><title>e33&#45;&#45;g2</title>
<path fill="none" stroke="black" d="M66.7908,-82.3508C82.8248,-69.3941 102.917,-53.1577 117.834,-41.1037"/>
<text text-anchor="middle" x="113.441" y="-47.5871" font-family="Times New Roman,serif" font-size="10.00">graph</text>
</g>
<!-- e34&#45;&#45;g2 -->
<g id="edge4" class="edge"><title>e34&#45;&#45;g2</title>
<path fill="none" stroke="black" d="M139,-82.1396C139,-69.1861 139,-53.0125 139,-41.0149"/>
<text text-anchor="middle" x="143.226" y="-47.578" font-family="Times New Roman,serif" font-size="10.00">graph</text>
</g>
<!-- e36 -->
<g id="node5" class="node"><title>e36</title>
<polygon fill="none" stroke="black" points="217,-24 217,-41 275,-41 275,-24 217,-24"/>
<text text-anchor="start" x="225" y="-30.5" font-family="Times New Roman,serif" font-size="10.00"> </text>
<text text-anchor="start" x="228" y="-30.5" font-family="Times New Roman,serif" font-size="10.00">e36 :Edge</text>
<polygon fill="none" stroke="black" points="217,-4 217,-24 275,-24 275,-4 217,-4"/>
<text text-anchor="start" x="222.5" y="-12" font-family="Times New Roman,serif" font-size="10.00">text = &quot;e16&quot;</text>
</g>
<!-- n35&#45;&#45;e36 -->
<g id="edge14" class="edge"><title>n35&#45;&#45;e36</title>
<path fill="none" stroke="black" d="M264.169,-82.1396C260.612,-70.759 256.279,-56.8929 252.737,-45.5569"/>
<text text-anchor="middle" x="259.474" y="-50.4469" font-family="Times New Roman,serif" font-size="10.00">outEdges_inEdges</text>
<text text-anchor="middle" x="257.432" y="-72.2497" font-family="Times New Roman,serif" font-size="10.00">src_tgt</text>
</g>
<!-- e37 -->
<g id="node6" class="node"><title>e37</title>
<polygon fill="none" stroke="black" points="309,-24 309,-41 367,-41 367,-24 309,-24"/>
<text text-anchor="start" x="317" y="-30.5" font-family="Times New Roman,serif" font-size="10.00"> </text>
<text text-anchor="start" x="320" y="-30.5" font-family="Times New Roman,serif" font-size="10.00">e37 :Edge</text>
<polygon fill="none" stroke="black" points="309,-4 309,-24 367,-24 367,-4 309,-4"/>
<text text-anchor="start" x="314.5" y="-12" font-family="Times New Roman,serif" font-size="10.00">text = &quot;e17&quot;</text>
</g>
<!-- n35&#45;&#45;e37 -->
<g id="edge16" class="edge"><title>n35&#45;&#45;e37</title>
<path fill="none" stroke="black" d="M289.308,-82.1396C298.839,-70.759 310.452,-56.8929 319.946,-45.5569"/>
<text text-anchor="middle" x="317.367" y="-52.7186" font-family="Times New Roman,serif" font-size="10.00">outEdges_inEdges</text>
<text text-anchor="middle" x="291.887" y="-69.978" font-family="Times New Roman,serif" font-size="10.00">src_tgt</text>
</g>
</g>
</svg>
