<?xml version="1.0" encoding="UTF-8" standalone="no"?>
<!DOCTYPE svg PUBLIC "-//W3C//DTD SVG 1.1//EN"
 "http://www.w3.org/Graphics/SVG/1.1/DTD/svg11.dtd">
<!-- Generated by graphviz version 2.28.0 (20110507.0327)
 -->
<!-- Title: ObjectDiagram Pages: 1 -->
<svg width="289pt" height="136pt"
 viewBox="0.00 0.00 289.00 136.00" xmlns="http://www.w3.org/2000/svg" xmlns:xlink="http://www.w3.org/1999/xlink">
<g id="graph1" class="graph" transform="scale(1 1) rotate(0) translate(4 132)">
<title>ObjectDiagram</title>
<polygon fill="white" stroke="white" points="-4,5 -4,-132 286,-132 286,5 -4,5"/>
<!-- g1 -->
<g id="node1" class="node"><title>g1</title>
<a xlink:href="../examples/org/sdmlib/examples/helloworld/Greeting.java" xlink:title="&lt;TABLE&gt;">
<polygon fill="none" stroke="black" points="103,-106 103,-123 168,-123 168,-106 103,-106"/>
<text text-anchor="start" x="106.5" y="-112.5" font-family="Arial" font-size="10.00"> </text>
<text text-anchor="start" x="110.5" y="-112.5" font-family="Arial" font-size="10.00">g1 :Greeting</text>
</a>
<polygon fill="none" stroke="black" points="103,-86 103,-106 168,-106 168,-86 103,-86"/>
<text text-anchor="start" x="108" y="-94" font-family="Arial" font-size="10.00">text = &quot;&quot;</text>
</g>
<!-- g2 -->
<g id="node2" class="node"><title>g2</title>
<a xlink:href="../examples/org/sdmlib/examples/helloworld/GreetingMessage.java" xlink:title="&lt;TABLE&gt;">
<polygon fill="none" stroke="black" points="8,-24 8,-41 113,-41 113,-24 8,-24"/>
<text text-anchor="start" x="11.5" y="-30.5" font-family="Arial" font-size="10.00"> </text>
<text text-anchor="start" x="15.5" y="-30.5" font-family="Arial" font-size="10.00">g2 :GreetingMessage</text>
</a>
<polygon fill="none" stroke="black" points="8,-4 8,-24 113,-24 113,-4 8,-4"/>
<text text-anchor="start" x="13" y="-12" font-family="Arial" font-size="10.00">text = &quot;Hello&quot;</text>
</g>
<!-- g1&#45;&#45;g2 -->
<g id="edge2" class="edge"><title>g1&#45;&#45;g2</title>
<path fill="none" stroke="black" d="M114.506,-82.1396C103.837,-70.759 90.8371,-56.8929 80.2096,-45.5569"/>
<text text-anchor="middle" x="89.4914" y="-46.7783" font-family="Arial" font-size="10.00">greetingMessage</text>
<text text-anchor="middle" x="105.224" y="-75.9183" font-family="Arial" font-size="10.00">greeting</text>
</g>
<!-- p3 -->
<g id="node3" class="node"><title>p3</title>
<a xlink:href="../examples/org/sdmlib/examples/helloworld/Person.java" xlink:title="&lt;TABLE&gt;">
<polygon fill="none" stroke="black" points="147,-24 147,-41 274,-41 274,-24 147,-24"/>
<text text-anchor="start" x="184.5" y="-30.5" font-family="Arial" font-size="10.00"> </text>
<text text-anchor="start" x="188.5" y="-30.5" font-family="Arial" font-size="10.00">p3 :Person</text>
</a>
<polygon fill="none" stroke="black" points="147,-4 147,-24 274,-24 274,-4 147,-4"/>
<text text-anchor="start" x="152" y="-12" font-family="Arial" font-size="10.00">name = &quot;TTC Participants&quot;</text>
</g>
<!-- g1&#45;&#45;p3 -->
<g id="edge4" class="edge"><title>g1&#45;&#45;p3</title>
<path fill="none" stroke="black" d="M155.494,-82.1396C166.163,-70.759 179.163,-56.8929 189.79,-45.5569"/>
<text text-anchor="middle" x="186.675" y="-52.5592" font-family="Arial" font-size="10.00">person</text>
<text text-anchor="middle" x="158.61" y="-70.1373" font-family="Arial" font-size="10.00">greeting</text>
</g>
</g>
</svg>
