<?xml version="1.0" encoding="UTF-8" standalone="no"?>
<!DOCTYPE svg PUBLIC "-//W3C//DTD SVG 1.1//EN"
 "http://www.w3.org/Graphics/SVG/1.1/DTD/svg11.dtd">
<!-- Generated by graphviz version 2.28.0 (20110507.0327)
 -->
<!-- Title: ObjectDiagram Pages: 1 -->
<svg width="755pt" height="554pt"
 viewBox="0.00 0.00 755.00 554.00" xmlns="http://www.w3.org/2000/svg" xmlns:xlink="http://www.w3.org/1999/xlink">
<g id="graph1" class="graph" transform="scale(1 1) rotate(0) translate(4 550)">
<title>ObjectDiagram</title>
<polygon fill="white" stroke="white" points="-4,5 -4,-550 752,-550 752,5 -4,5"/>
<!-- g1 -->
<g id="node1" class="node"><title>g1</title>
<a xlink:href="../examples/org/sdmlib/examples/helloworld/Graph.java" xlink:title="&lt;TABLE&gt;">
<polygon fill="none" stroke="black" points="310,-519 310,-536 359,-536 359,-519 310,-519"/>
<text text-anchor="start" x="313.5" y="-525.5" font-family="Times New Roman,serif" font-size="10.00"> </text>
<text text-anchor="start" x="316.5" y="-525.5" font-family="Times New Roman,serif" font-size="10.00">g1 :Graph</text>
</a>
</g>
<!-- n4 -->
<g id="node2" class="node"><title>n4</title>
<a xlink:href="../examples/org/sdmlib/examples/helloworld/Node.java" xlink:title="&lt;TABLE&gt;">
<polygon fill="none" stroke="black" points="8,-452 8,-469 69,-469 69,-452 8,-452"/>
<text text-anchor="start" x="18.5" y="-458.5" font-family="Times New Roman,serif" font-size="10.00"> </text>
<text text-anchor="start" x="21.5" y="-458.5" font-family="Times New Roman,serif" font-size="10.00">n4 :Node</text>
</a>
<polygon fill="none" stroke="black" points="8,-376 8,-452 69,-452 69,-376 8,-376"/>
<text text-anchor="start" x="13" y="-440" font-family="Times New Roman,serif" font-size="10.00">name = &quot;n2&quot;</text>
<text text-anchor="start" x="13" y="-426" font-family="Times New Roman,serif" font-size="10.00">orig = &quot;&quot;</text>
<text text-anchor="start" x="13" y="-412" font-family="Times New Roman,serif" font-size="10.00">copy = &quot;&quot;</text>
<text text-anchor="start" x="13" y="-398" font-family="Times New Roman,serif" font-size="10.00">text = &quot;&quot;</text>
<text text-anchor="start" x="13" y="-384" font-family="Times New Roman,serif" font-size="10.00">parent = &quot;&quot;</text>
</g>
<!-- g1&#45;&#45;n4 -->
<g id="edge2" class="edge"><title>g1&#45;&#45;n4</title>
<path fill="none" stroke="black" d="M301.449,-525.41C252.976,-521.864 160.123,-510.472 91,-474 85.9654,-471.344 81.0632,-468.076 76.4023,-464.494"/>
<text text-anchor="middle" x="86.1783" y="-464.099" font-family="Times New Roman,serif" font-size="10.00">nodes</text>
<text text-anchor="middle" x="292.066" y="-526.369" font-family="Times New Roman,serif" font-size="10.00">graph</text>
</g>
<!-- n9 -->
<g id="node3" class="node"><title>n9</title>
<a xlink:href="../examples/org/sdmlib/examples/helloworld/Node.java" xlink:title="&lt;TABLE&gt;">
<polygon fill="none" stroke="black" points="180,-452 180,-469 241,-469 241,-452 180,-452"/>
<text text-anchor="start" x="190.5" y="-458.5" font-family="Times New Roman,serif" font-size="10.00"> </text>
<text text-anchor="start" x="193.5" y="-458.5" font-family="Times New Roman,serif" font-size="10.00">n9 :Node</text>
</a>
<polygon fill="none" stroke="black" points="180,-376 180,-452 241,-452 241,-376 180,-376"/>
<text text-anchor="start" x="185" y="-440" font-family="Times New Roman,serif" font-size="10.00">name = &quot;n4&quot;</text>
<text text-anchor="start" x="185" y="-426" font-family="Times New Roman,serif" font-size="10.00">orig = &quot;&quot;</text>
<text text-anchor="start" x="185" y="-412" font-family="Times New Roman,serif" font-size="10.00">copy = &quot;&quot;</text>
<text text-anchor="start" x="185" y="-398" font-family="Times New Roman,serif" font-size="10.00">text = &quot;&quot;</text>
<text text-anchor="start" x="185" y="-384" font-family="Times New Roman,serif" font-size="10.00">parent = &quot;&quot;</text>
</g>
<!-- g1&#45;&#45;n9 -->
<g id="edge4" class="edge"><title>g1&#45;&#45;n9</title>
<path fill="none" stroke="black" d="M309.806,-509.999C295.825,-499.915 278.075,-486.665 263,-474 258.157,-469.931 253.185,-465.545 248.317,-461.119"/>
<text text-anchor="middle" x="257.871" y="-461.575" font-family="Times New Roman,serif" font-size="10.00">nodes</text>
<text text-anchor="middle" x="299.987" y="-505.604" font-family="Times New Roman,serif" font-size="10.00">graph</text>
</g>
<!-- e10 -->
<g id="node4" class="node"><title>e10</title>
<a xlink:href="../examples/org/sdmlib/examples/helloworld/Edge.java" xlink:title="&lt;TABLE&gt;">
<polygon fill="none" stroke="black" points="176,-314 176,-331 241,-331 241,-314 176,-314"/>
<text text-anchor="start" x="187.5" y="-320.5" font-family="Times New Roman,serif" font-size="10.00"> </text>
<text text-anchor="start" x="190.5" y="-320.5" font-family="Times New Roman,serif" font-size="10.00">e10 :Edge</text>
</a>
<polygon fill="none" stroke="black" points="176,-266 176,-314 241,-314 241,-266 176,-266"/>
<text text-anchor="start" x="181" y="-302" font-family="Times New Roman,serif" font-size="10.00">name = &quot;e14&quot;</text>
<text text-anchor="start" x="181" y="-288" font-family="Times New Roman,serif" font-size="10.00">text = &quot;&quot;</text>
<text text-anchor="start" x="181" y="-274" font-family="Times New Roman,serif" font-size="10.00">parent = &quot;&quot;</text>
</g>
<!-- g1&#45;&#45;e10 -->
<g id="edge18" class="edge"><title>g1&#45;&#45;e10</title>
<path fill="none" stroke="black" d="M301.608,-527.613C261.368,-526.404 194.106,-517.489 162,-474 135.075,-437.529 149.286,-415.514 162,-372 165.702,-359.328 172.39,-346.765 179.54,-335.766"/>
<text text-anchor="middle" x="178.24" y="-343.181" font-family="Times New Roman,serif" font-size="10.00">edges</text>
<text text-anchor="middle" x="292.351" y="-528.896" font-family="Times New Roman,serif" font-size="10.00">graph</text>
</g>
<!-- n11 -->
<g id="node5" class="node"><title>n11</title>
<a xlink:href="../examples/org/sdmlib/examples/helloworld/Node.java" xlink:title="&lt;TABLE&gt;">
<polygon fill="none" stroke="black" points="218,-204 218,-221 279,-221 279,-204 218,-204"/>
<text text-anchor="start" x="226.5" y="-210.5" font-family="Times New Roman,serif" font-size="10.00"> </text>
<text text-anchor="start" x="229.5" y="-210.5" font-family="Times New Roman,serif" font-size="10.00">n11 :Node</text>
</a>
<polygon fill="none" stroke="black" points="218,-128 218,-204 279,-204 279,-128 218,-128"/>
<text text-anchor="start" x="223" y="-192" font-family="Times New Roman,serif" font-size="10.00">name = &quot;n5&quot;</text>
<text text-anchor="start" x="223" y="-178" font-family="Times New Roman,serif" font-size="10.00">orig = &quot;&quot;</text>
<text text-anchor="start" x="223" y="-164" font-family="Times New Roman,serif" font-size="10.00">copy = &quot;&quot;</text>
<text text-anchor="start" x="223" y="-150" font-family="Times New Roman,serif" font-size="10.00">text = &quot;&quot;</text>
<text text-anchor="start" x="223" y="-136" font-family="Times New Roman,serif" font-size="10.00">parent = &quot;&quot;</text>
</g>
<!-- g1&#45;&#45;n11 -->
<g id="edge6" class="edge"><title>g1&#45;&#45;n11</title>
<path fill="none" stroke="black" d="M320.899,-509.743C313.964,-499.789 305.894,-486.751 301,-474 283.913,-429.479 264.414,-298.295 254.512,-225.712"/>
<text text-anchor="middle" x="259.944" y="-231.608" font-family="Times New Roman,serif" font-size="10.00">nodes</text>
<text text-anchor="middle" x="312.287" y="-502.161" font-family="Times New Roman,serif" font-size="10.00">graph</text>
</g>
<!-- e12 -->
<g id="node6" class="node"><title>e12</title>
<a xlink:href="../examples/org/sdmlib/examples/helloworld/Edge.java" xlink:title="&lt;TABLE&gt;">
<polygon fill="none" stroke="black" points="97,-66 97,-83 162,-83 162,-66 97,-66"/>
<text text-anchor="start" x="108.5" y="-72.5" font-family="Times New Roman,serif" font-size="10.00"> </text>
<text text-anchor="start" x="111.5" y="-72.5" font-family="Times New Roman,serif" font-size="10.00">e12 :Edge</text>
</a>
<polygon fill="none" stroke="black" points="97,-4 97,-66 162,-66 162,-4 97,-4"/>
<text text-anchor="start" x="102" y="-54" font-family="Times New Roman,serif" font-size="10.00">tgt = &quot;&quot;</text>
<text text-anchor="start" x="102" y="-40" font-family="Times New Roman,serif" font-size="10.00">name = &quot;e18&quot;</text>
<text text-anchor="start" x="102" y="-26" font-family="Times New Roman,serif" font-size="10.00">text = &quot;&quot;</text>
<text text-anchor="start" x="102" y="-12" font-family="Times New Roman,serif" font-size="10.00">parent = &quot;&quot;</text>
</g>
<!-- g1&#45;&#45;e12 -->
<g id="edge14" class="edge"><title>g1&#45;&#45;e12</title>
<path fill="none" stroke="black" d="M301.416,-522.627C252.19,-515.289 162.517,-498.819 143,-474 53.4077,-360.068 91.8723,-171.622 115.524,-87.6543"/>
<text text-anchor="middle" x="117.308" y="-94.9939" font-family="Times New Roman,serif" font-size="10.00">edges</text>
<text text-anchor="middle" x="291.81" y="-522.906" font-family="Times New Roman,serif" font-size="10.00">graph</text>
</g>
<!-- e13 -->
<g id="node7" class="node"><title>e13</title>
<a xlink:href="../examples/org/sdmlib/examples/helloworld/Edge.java" xlink:title="&lt;TABLE&gt;">
<polygon fill="none" stroke="black" points="219,-66 219,-83 284,-83 284,-66 219,-66"/>
<text text-anchor="start" x="230.5" y="-72.5" font-family="Times New Roman,serif" font-size="10.00"> </text>
<text text-anchor="start" x="233.5" y="-72.5" font-family="Times New Roman,serif" font-size="10.00">e13 :Edge</text>
</a>
<polygon fill="none" stroke="black" points="219,-4 219,-66 284,-66 284,-4 219,-4"/>
<text text-anchor="start" x="224" y="-54" font-family="Times New Roman,serif" font-size="10.00">tgt = &quot;&quot;</text>
<text text-anchor="start" x="224" y="-40" font-family="Times New Roman,serif" font-size="10.00">name = &quot;e15&quot;</text>
<text text-anchor="start" x="224" y="-26" font-family="Times New Roman,serif" font-size="10.00">text = &quot;&quot;</text>
<text text-anchor="start" x="224" y="-12" font-family="Times New Roman,serif" font-size="10.00">parent = &quot;&quot;</text>
</g>
<!-- g1&#45;&#45;e13 -->
<g id="edge20" class="edge"><title>g1&#45;&#45;e13</title>
<path fill="none" stroke="black" d="M332.734,-509.533C327.414,-436.954 306.615,-161.243 295,-124 291.167,-111.711 285.275,-99.1887 279.037,-87.8441"/>
<text text-anchor="middle" x="287.066" y="-91.3047" font-family="Times New Roman,serif" font-size="10.00">edges</text>
<text text-anchor="middle" x="327.848" y="-498.308" font-family="Times New Roman,serif" font-size="10.00">graph</text>
</g>
<!-- e14 -->
<g id="node8" class="node"><title>e14</title>
<a xlink:href="../examples/org/sdmlib/examples/helloworld/Edge.java" xlink:title="&lt;TABLE&gt;">
<polygon fill="none" stroke="black" points="319,-66 319,-83 384,-83 384,-66 319,-66"/>
<text text-anchor="start" x="330.5" y="-72.5" font-family="Times New Roman,serif" font-size="10.00"> </text>
<text text-anchor="start" x="333.5" y="-72.5" font-family="Times New Roman,serif" font-size="10.00">e14 :Edge</text>
</a>
<polygon fill="none" stroke="black" points="319,-4 319,-66 384,-66 384,-4 319,-4"/>
<text text-anchor="start" x="324" y="-54" font-family="Times New Roman,serif" font-size="10.00">src = &quot;&quot;</text>
<text text-anchor="start" x="324" y="-40" font-family="Times New Roman,serif" font-size="10.00">name = &quot;e19&quot;</text>
<text text-anchor="start" x="324" y="-26" font-family="Times New Roman,serif" font-size="10.00">text = &quot;&quot;</text>
<text text-anchor="start" x="324" y="-12" font-family="Times New Roman,serif" font-size="10.00">parent = &quot;&quot;</text>
</g>
<!-- g1&#45;&#45;e14 -->
<g id="edge16" class="edge"><title>g1&#45;&#45;e14</title>
<path fill="none" stroke="black" d="M334.605,-509.845C337.006,-441.759 345.909,-189.359 349.492,-87.7677"/>
<text text-anchor="middle" x="353.396" y="-94.4741" font-family="Times New Roman,serif" font-size="10.00">edges</text>
<text text-anchor="middle" x="330.701" y="-498.139" font-family="Times New Roman,serif" font-size="10.00">graph</text>
</g>
<!-- n15 -->
<g id="node9" class="node"><title>n15</title>
<a xlink:href="../examples/org/sdmlib/examples/helloworld/Node.java" xlink:title="&lt;TABLE&gt;">
<polygon fill="none" stroke="black" points="390,-452 390,-469 451,-469 451,-452 390,-452"/>
<text text-anchor="start" x="398.5" y="-458.5" font-family="Times New Roman,serif" font-size="10.00"> </text>
<text text-anchor="start" x="401.5" y="-458.5" font-family="Times New Roman,serif" font-size="10.00">n15 :Node</text>
</a>
<polygon fill="none" stroke="black" points="390,-376 390,-452 451,-452 451,-376 390,-376"/>
<text text-anchor="start" x="395" y="-440" font-family="Times New Roman,serif" font-size="10.00">name = &quot;n6&quot;</text>
<text text-anchor="start" x="395" y="-426" font-family="Times New Roman,serif" font-size="10.00">orig = &quot;&quot;</text>
<text text-anchor="start" x="395" y="-412" font-family="Times New Roman,serif" font-size="10.00">copy = &quot;&quot;</text>
<text text-anchor="start" x="395" y="-398" font-family="Times New Roman,serif" font-size="10.00">text = &quot;&quot;</text>
<text text-anchor="start" x="395" y="-384" font-family="Times New Roman,serif" font-size="10.00">parent = &quot;&quot;</text>
</g>
<!-- g1&#45;&#45;n15 -->
<g id="edge8" class="edge"><title>g1&#45;&#45;n15</title>
<path fill="none" stroke="black" d="M348.201,-509.992C357.361,-499.021 369.748,-484.186 381.653,-469.927"/>
<text text-anchor="middle" x="379.088" y="-477.093" font-family="Times New Roman,serif" font-size="10.00">nodes</text>
<text text-anchor="middle" x="350.766" y="-497.826" font-family="Times New Roman,serif" font-size="10.00">graph</text>
</g>
<!-- n16 -->
<g id="node10" class="node"><title>n16</title>
<a xlink:href="../examples/org/sdmlib/examples/helloworld/Node.java" xlink:title="&lt;TABLE&gt;">
<polygon fill="none" stroke="black" points="485,-452 485,-469 546,-469 546,-452 485,-452"/>
<text text-anchor="start" x="493.5" y="-458.5" font-family="Times New Roman,serif" font-size="10.00"> </text>
<text text-anchor="start" x="496.5" y="-458.5" font-family="Times New Roman,serif" font-size="10.00">n16 :Node</text>
</a>
<polygon fill="none" stroke="black" points="485,-376 485,-452 546,-452 546,-376 485,-376"/>
<text text-anchor="start" x="490" y="-440" font-family="Times New Roman,serif" font-size="10.00">name = &quot;n7&quot;</text>
<text text-anchor="start" x="490" y="-426" font-family="Times New Roman,serif" font-size="10.00">orig = &quot;&quot;</text>
<text text-anchor="start" x="490" y="-412" font-family="Times New Roman,serif" font-size="10.00">copy = &quot;&quot;</text>
<text text-anchor="start" x="490" y="-398" font-family="Times New Roman,serif" font-size="10.00">text = &quot;&quot;</text>
<text text-anchor="start" x="490" y="-384" font-family="Times New Roman,serif" font-size="10.00">parent = &quot;&quot;</text>
</g>
<!-- g1&#45;&#45;n16 -->
<g id="edge10" class="edge"><title>g1&#45;&#45;n16</title>
<path fill="none" stroke="black" d="M366.498,-518.312C394.648,-509.827 435.659,-495.099 467,-474 470.294,-471.782 473.536,-469.306 476.686,-466.674"/>
<text text-anchor="middle" x="472.402" y="-473.21" font-family="Times New Roman,serif" font-size="10.00">nodes</text>
<text text-anchor="middle" x="373.902" y="-509.09" font-family="Times New Roman,serif" font-size="10.00">graph</text>
</g>
<!-- n17 -->
<g id="node11" class="node"><title>n17</title>
<a xlink:href="../examples/org/sdmlib/examples/helloworld/Node.java" xlink:title="&lt;TABLE&gt;">
<polygon fill="none" stroke="black" points="619,-452 619,-469 680,-469 680,-452 619,-452"/>
<text text-anchor="start" x="627.5" y="-458.5" font-family="Times New Roman,serif" font-size="10.00"> </text>
<text text-anchor="start" x="630.5" y="-458.5" font-family="Times New Roman,serif" font-size="10.00">n17 :Node</text>
</a>
<polygon fill="none" stroke="black" points="619,-376 619,-452 680,-452 680,-376 619,-376"/>
<text text-anchor="start" x="624" y="-440" font-family="Times New Roman,serif" font-size="10.00">name = &quot;n8&quot;</text>
<text text-anchor="start" x="624" y="-426" font-family="Times New Roman,serif" font-size="10.00">orig = &quot;&quot;</text>
<text text-anchor="start" x="624" y="-412" font-family="Times New Roman,serif" font-size="10.00">copy = &quot;&quot;</text>
<text text-anchor="start" x="624" y="-398" font-family="Times New Roman,serif" font-size="10.00">text = &quot;&quot;</text>
<text text-anchor="start" x="624" y="-384" font-family="Times New Roman,serif" font-size="10.00">parent = &quot;&quot;</text>
</g>
<!-- g1&#45;&#45;n17 -->
<g id="edge12" class="edge"><title>g1&#45;&#45;n17</title>
<path fill="none" stroke="black" d="M366.523,-526.101C418.001,-523.472 520.179,-513.275 596,-474 601.055,-471.382 605.97,-468.139 610.638,-464.572"/>
<text text-anchor="middle" x="605.94" y="-470.9" font-family="Times New Roman,serif" font-size="10.00">nodes</text>
<text text-anchor="middle" x="375.31" y="-518.827" font-family="Times New Roman,serif" font-size="10.00">graph</text>
</g>
<!-- e18 -->
<g id="node12" class="node"><title>e18</title>
<a xlink:href="../examples/org/sdmlib/examples/helloworld/Edge.java" xlink:title="&lt;TABLE&gt;">
<polygon fill="none" stroke="black" points="559,-314 559,-331 624,-331 624,-314 559,-314"/>
<text text-anchor="start" x="570.5" y="-320.5" font-family="Times New Roman,serif" font-size="10.00"> </text>
<text text-anchor="start" x="573.5" y="-320.5" font-family="Times New Roman,serif" font-size="10.00">e18 :Edge</text>
</a>
<polygon fill="none" stroke="black" points="559,-266 559,-314 624,-314 624,-266 559,-266"/>
<text text-anchor="start" x="564" y="-302" font-family="Times New Roman,serif" font-size="10.00">name = &quot;e16&quot;</text>
<text text-anchor="start" x="564" y="-288" font-family="Times New Roman,serif" font-size="10.00">text = &quot;&quot;</text>
<text text-anchor="start" x="564" y="-274" font-family="Times New Roman,serif" font-size="10.00">parent = &quot;&quot;</text>
</g>
<!-- g1&#45;&#45;e18 -->
<g id="edge22" class="edge"><title>g1&#45;&#45;e18</title>
<path fill="none" stroke="black" d="M366.381,-523.861C422.784,-517.709 535.578,-502.149 562,-474 596.793,-436.934 598.657,-374.776 595.668,-335.652"/>
<text text-anchor="middle" x="600.416" y="-341.953" font-family="Times New Roman,serif" font-size="10.00">edges</text>
<text text-anchor="middle" x="374.9" y="-516.124" font-family="Times New Roman,serif" font-size="10.00">graph</text>
</g>
<!-- e19 -->
<g id="node13" class="node"><title>e19</title>
<a xlink:href="../examples/org/sdmlib/examples/helloworld/Edge.java" xlink:title="&lt;TABLE&gt;">
<polygon fill="none" stroke="black" points="675,-314 675,-331 740,-331 740,-314 675,-314"/>
<text text-anchor="start" x="686.5" y="-320.5" font-family="Times New Roman,serif" font-size="10.00"> </text>
<text text-anchor="start" x="689.5" y="-320.5" font-family="Times New Roman,serif" font-size="10.00">e19 :Edge</text>
</a>
<polygon fill="none" stroke="black" points="675,-266 675,-314 740,-314 740,-266 675,-266"/>
<text text-anchor="start" x="680" y="-302" font-family="Times New Roman,serif" font-size="10.00">name = &quot;e17&quot;</text>
<text text-anchor="start" x="680" y="-288" font-family="Times New Roman,serif" font-size="10.00">text = &quot;&quot;</text>
<text text-anchor="start" x="680" y="-274" font-family="Times New Roman,serif" font-size="10.00">parent = &quot;&quot;</text>
</g>
<!-- g1&#45;&#45;e19 -->
<g id="edge24" class="edge"><title>g1&#45;&#45;e19</title>
<path fill="none" stroke="black" d="M366.419,-527.229C446.795,-527.055 651.949,-521.832 696,-474 730.039,-437.04 724.559,-374.851 716.498,-335.692"/>
<text text-anchor="middle" x="722.31" y="-341.33" font-family="Times New Roman,serif" font-size="10.00">edges</text>
<text text-anchor="middle" x="375.445" y="-520.424" font-family="Times New Roman,serif" font-size="10.00">graph</text>
</g>
<!-- n9&#45;&#45;e10 -->
<g id="edge26" class="edge"><title>n9&#45;&#45;e10</title>
<path fill="none" stroke="black" d="M209.187,-372.378C208.985,-360.108 208.774,-347.2 208.586,-335.739"/>
<text text-anchor="middle" x="212.96" y="-342.231" font-family="Times New Roman,serif" font-size="10.00">outEdges</text>
<text text-anchor="middle" x="204.812" y="-360.885" font-family="Times New Roman,serif" font-size="10.00">src</text>
</g>
<!-- e10&#45;&#45;n11 -->
<g id="edge28" class="edge"><title>e10&#45;&#45;n11</title>
<path fill="none" stroke="black" d="M219.677,-262.385C223.413,-250.991 227.62,-238.159 231.626,-225.94"/>
<text text-anchor="middle" x="232.819" y="-233.368" font-family="Times New Roman,serif" font-size="10.00">tgt</text>
<text text-anchor="middle" x="218.485" y="-249.956" font-family="Times New Roman,serif" font-size="10.00">inEdges</text>
</g>
<!-- n11&#45;&#45;e12 -->
<g id="edge30" class="edge"><title>n11&#45;&#45;e12</title>
<path fill="none" stroke="black" d="M209.693,-132.474C196.511,-118.185 181.734,-102.166 168.463,-87.7787"/>
<text text-anchor="middle" x="177.714" y="-89.0748" font-family="Times New Roman,serif" font-size="10.00">outEdges</text>
<text text-anchor="middle" x="200.441" y="-126.177" font-family="Times New Roman,serif" font-size="10.00">src</text>
</g>
<!-- n11&#45;&#45;e13 -->
<g id="edge32" class="edge"><title>n11&#45;&#45;e13</title>
<path fill="none" stroke="black" d="M249.151,-124.494C249.432,-112.415 249.73,-99.5937 250.003,-87.8543"/>
<text text-anchor="middle" x="254.018" y="-94.5132" font-family="Times New Roman,serif" font-size="10.00">outEdges</text>
<text text-anchor="middle" x="245.137" y="-112.835" font-family="Times New Roman,serif" font-size="10.00">src</text>
</g>
<!-- n11&#45;&#45;e14 -->
<g id="edge34" class="edge"><title>n11&#45;&#45;e14</title>
<path fill="none" stroke="black" d="M286.353,-125.965C296.42,-113.358 307.205,-99.8506 317.024,-87.5522"/>
<text text-anchor="middle" x="314.672" y="-94.7716" font-family="Times New Roman,serif" font-size="10.00">inEdges</text>
<text text-anchor="middle" x="288.706" y="-113.746" font-family="Times New Roman,serif" font-size="10.00">tgt</text>
</g>
<!-- n17&#45;&#45;e18 -->
<g id="edge36" class="edge"><title>n17&#45;&#45;e18</title>
<path fill="none" stroke="black" d="M625.409,-372.378C619.576,-360.108 613.44,-347.2 607.99,-335.739"/>
<text text-anchor="middle" x="615.699" y="-339.609" font-family="Times New Roman,serif" font-size="10.00">outEdges_inEdges</text>
<text text-anchor="middle" x="617.701" y="-363.507" font-family="Times New Roman,serif" font-size="10.00">src_tgt</text>
</g>
<!-- n17&#45;&#45;e19 -->
<g id="edge38" class="edge"><title>n17&#45;&#45;e19</title>
<path fill="none" stroke="black" d="M672.591,-372.378C678.424,-360.108 684.56,-347.2 690.01,-335.739"/>
<text text-anchor="middle" x="689.935" y="-343.238" font-family="Times New Roman,serif" font-size="10.00">outEdges_inEdges</text>
<text text-anchor="middle" x="672.665" y="-359.878" font-family="Times New Roman,serif" font-size="10.00">src_tgt</text>
</g>
</g>
</svg>
