<?xml version="1.0" encoding="UTF-8" standalone="no"?>
<!DOCTYPE svg PUBLIC "-//W3C//DTD SVG 1.1//EN"
 "http://www.w3.org/Graphics/SVG/1.1/DTD/svg11.dtd">
<!-- Generated by graphviz version 2.28.0 (20110507.0327)
 -->
<!-- Title: ObjectDiagram Pages: 1 -->
<svg width="926pt" height="1028pt"
 viewBox="0.00 0.00 926.25 1028.00" xmlns="http://www.w3.org/2000/svg" xmlns:xlink="http://www.w3.org/1999/xlink">
<g id="graph1" class="graph" transform="scale(1 1) rotate(0) translate(4 1024)">
<title>ObjectDiagram</title>
<polygon fill="white" stroke="white" points="-4,5 -4,-1024 923.25,-1024 923.25,5 -4,5"/>
<!-- g1 -->
<g id="node1" class="node"><title>g1</title>
<polygon fill="none" stroke="black" points="405.25,-998 405.25,-1015 494.25,-1015 494.25,-998 405.25,-998"/>
<text text-anchor="start" x="422.75" y="-1004.5" font-family="Times New Roman,serif" font-size="10.00"> </text>
<text text-anchor="start" x="425.75" y="-1004.5" font-family="Times New Roman,serif" font-size="10.00">g1 :GraphPO</text>
<polygon fill="none" stroke="black" points="405.25,-978 405.25,-998 494.25,-998 494.25,-978 405.25,-978"/>
<text text-anchor="start" x="410.75" y="-986" font-family="Times New Roman,serif" font-size="10.00">modifier = &quot;bound&quot;</text>
</g>
<!-- g2 -->
<g id="node2" class="node"><title>g2</title>
<polygon fill="none" stroke="black" points="380.25,-829 380.25,-846 429.25,-846 429.25,-829 380.25,-829"/>
<text text-anchor="start" x="383.75" y="-835.5" font-family="Times New Roman,serif" font-size="10.00"> </text>
<text text-anchor="start" x="386.75" y="-835.5" font-family="Times New Roman,serif" font-size="10.00">g2 :Graph</text>
</g>
<!-- g1&#45;&#45;g2 -->
<g id="edge10" class="edge"><title>g1&#45;&#45;g2</title>
<path fill="none" stroke="black" d="M438.144,-974.434C432.997,-963.711 427.167,-950.418 423.25,-938 414.407,-909.96 408.988,-876.086 406.307,-856.112"/>
<text text-anchor="middle" x="411.739" y="-862.008" font-family="Times New Roman,serif" font-size="10.00">currentMatch</text>
</g>
<!-- p21 -->
<g id="node21" class="node"><title>p21</title>
<polygon fill="none" stroke="black" points="441.25,-916 441.25,-933 548.25,-933 548.25,-916 441.25,-916"/>
<text text-anchor="start" x="460.75" y="-922.5" font-family="Times New Roman,serif" font-size="10.00"> </text>
<text text-anchor="start" x="463.75" y="-922.5" font-family="Times New Roman,serif" font-size="10.00">p21 :PatternLink</text>
<polygon fill="none" stroke="black" points="441.25,-896 441.25,-916 548.25,-916 548.25,-896 441.25,-896"/>
<text text-anchor="start" x="446.75" y="-904" font-family="Times New Roman,serif" font-size="10.00">tgtRoleName = &quot;nodes&quot;</text>
</g>
<!-- g1&#45;&#45;p21 -->
<g id="edge12" class="edge"><title>g1&#45;&#45;p21</title>
<path fill="none" stroke="black" d="M461.547,-974.14C467.948,-962.759 475.748,-948.893 482.125,-937.557"/>
<text text-anchor="middle" x="481.365" y="-945.028" font-family="Times New Roman,serif" font-size="10.00">outgoing</text>
<text text-anchor="middle" x="462.307" y="-961.669" font-family="Times New Roman,serif" font-size="10.00">src</text>
</g>
<!-- n3 -->
<g id="node3" class="node"><title>n3</title>
<polygon fill="none" stroke="black" points="79.2503,-762 79.2503,-779 140.25,-779 140.25,-762 79.2503,-762"/>
<text text-anchor="start" x="89.7503" y="-768.5" font-family="Times New Roman,serif" font-size="10.00"> </text>
<text text-anchor="start" x="92.7503" y="-768.5" font-family="Times New Roman,serif" font-size="10.00">n3 :Node</text>
<polygon fill="none" stroke="black" points="79.2503,-742 79.2503,-762 140.25,-762 140.25,-742 79.2503,-742"/>
<text text-anchor="start" x="84.7503" y="-750" font-family="Times New Roman,serif" font-size="10.00">name = &quot;n1&quot;</text>
</g>
<!-- g2&#45;&#45;n3 -->
<g id="edge44" class="edge"><title>g2&#45;&#45;n3</title>
<path fill="none" stroke="black" d="M371.673,-831.765C324.748,-823.799 235.695,-807.084 162.25,-784 157.498,-782.506 152.581,-780.757 147.743,-778.909"/>
<text text-anchor="middle" x="157.716" y="-775.672" font-family="Times New Roman,serif" font-size="10.00">nodes</text>
<text text-anchor="middle" x="362.022" y="-831.881" font-family="Times New Roman,serif" font-size="10.00">graph</text>
</g>
<!-- e4 -->
<g id="node4" class="node"><title>e4</title>
<polygon fill="none" stroke="black" points="113.25,-680 113.25,-697 178.25,-697 178.25,-680 113.25,-680"/>
<text text-anchor="start" x="127.25" y="-686.5" font-family="Times New Roman,serif" font-size="10.00"> </text>
<text text-anchor="start" x="130.25" y="-686.5" font-family="Times New Roman,serif" font-size="10.00">e4 :Edge</text>
<polygon fill="none" stroke="black" points="113.25,-660 113.25,-680 178.25,-680 178.25,-660 113.25,-660"/>
<text text-anchor="start" x="118.75" y="-668" font-family="Times New Roman,serif" font-size="10.00">name = &quot;e10&quot;</text>
</g>
<!-- g2&#45;&#45;e4 -->
<g id="edge26" class="edge"><title>g2&#45;&#45;e4</title>
<path fill="none" stroke="black" d="M371.734,-836.413C328.241,-834.023 250.76,-823.956 200.25,-784 173.659,-762.965 158.427,-725.481 151.004,-701.724"/>
<text text-anchor="middle" x="157.846" y="-706.517" font-family="Times New Roman,serif" font-size="10.00">edges</text>
<text text-anchor="middle" x="362.4" y="-837.504" font-family="Times New Roman,serif" font-size="10.00">graph</text>
</g>
<!-- n5 -->
<g id="node5" class="node"><title>n5</title>
<polygon fill="none" stroke="black" points="155.25,-598 155.25,-615 216.25,-615 216.25,-598 155.25,-598"/>
<text text-anchor="start" x="165.75" y="-604.5" font-family="Times New Roman,serif" font-size="10.00"> </text>
<text text-anchor="start" x="168.75" y="-604.5" font-family="Times New Roman,serif" font-size="10.00">n5 :Node</text>
<polygon fill="none" stroke="black" points="155.25,-578 155.25,-598 216.25,-598 216.25,-578 155.25,-578"/>
<text text-anchor="start" x="160.75" y="-586" font-family="Times New Roman,serif" font-size="10.00">name = &quot;n2&quot;</text>
</g>
<!-- g2&#45;&#45;n5 -->
<g id="edge46" class="edge"><title>g2&#45;&#45;n5</title>
<path fill="none" stroke="black" d="M371.761,-835.488C334.416,-831.986 273.724,-820.608 238.25,-784 215.293,-760.309 196.352,-663.401 188.788,-619.633"/>
<text text-anchor="middle" x="194.54" y="-625.314" font-family="Times New Roman,serif" font-size="10.00">nodes</text>
<text text-anchor="middle" x="362.29" y="-836.197" font-family="Times New Roman,serif" font-size="10.00">graph</text>
</g>
<!-- e6 -->
<g id="node6" class="node"><title>e6</title>
<polygon fill="none" stroke="black" points="189.25,-516 189.25,-533 254.25,-533 254.25,-516 189.25,-516"/>
<text text-anchor="start" x="203.25" y="-522.5" font-family="Times New Roman,serif" font-size="10.00"> </text>
<text text-anchor="start" x="206.25" y="-522.5" font-family="Times New Roman,serif" font-size="10.00">e6 :Edge</text>
<polygon fill="none" stroke="black" points="189.25,-496 189.25,-516 254.25,-516 254.25,-496 189.25,-496"/>
<text text-anchor="start" x="194.75" y="-504" font-family="Times New Roman,serif" font-size="10.00">name = &quot;e11&quot;</text>
</g>
<!-- g2&#45;&#45;e6 -->
<g id="edge28" class="edge"><title>g2&#45;&#45;e6</title>
<path fill="none" stroke="black" d="M371.853,-832.3C342.448,-826.283 300.143,-812.93 276.25,-784 272.271,-779.182 237.649,-601.087 225.468,-537.932"/>
<text text-anchor="middle" x="231.338" y="-543.528" font-family="Times New Roman,serif" font-size="10.00">edges</text>
<text text-anchor="middle" x="362.09" y="-831.965" font-family="Times New Roman,serif" font-size="10.00">graph</text>
</g>
<!-- n7 -->
<g id="node7" class="node"><title>n7</title>
<polygon fill="none" stroke="black" points="203.25,-434 203.25,-451 264.25,-451 264.25,-434 203.25,-434"/>
<text text-anchor="start" x="213.75" y="-440.5" font-family="Times New Roman,serif" font-size="10.00"> </text>
<text text-anchor="start" x="216.75" y="-440.5" font-family="Times New Roman,serif" font-size="10.00">n7 :Node</text>
<polygon fill="none" stroke="black" points="203.25,-414 203.25,-434 264.25,-434 264.25,-414 203.25,-414"/>
<text text-anchor="start" x="208.75" y="-422" font-family="Times New Roman,serif" font-size="10.00">name = &quot;n3&quot;</text>
</g>
<!-- g2&#45;&#45;n7 -->
<g id="edge48" class="edge"><title>g2&#45;&#45;n7</title>
<path fill="none" stroke="black" d="M371.762,-825.521C352.246,-816.994 328.511,-803.449 314.25,-784 286.2,-745.745 290.25,-727.437 290.25,-680 290.25,-680 290.25,-680 290.25,-596 290.25,-548.931 287.662,-535.73 270.25,-492 265.125,-479.128 257.048,-466.012 249.746,-455.517"/>
<text text-anchor="middle" x="258.356" y="-458.103" font-family="Times New Roman,serif" font-size="10.00">nodes</text>
<text text-anchor="middle" x="361.762" y="-823.123" font-family="Times New Roman,serif" font-size="10.00">graph</text>
</g>
<!-- e8 -->
<g id="node8" class="node"><title>e8</title>
<polygon fill="none" stroke="black" points="44.2503,-352 44.2503,-369 109.25,-369 109.25,-352 44.2503,-352"/>
<text text-anchor="start" x="58.2503" y="-358.5" font-family="Times New Roman,serif" font-size="10.00"> </text>
<text text-anchor="start" x="61.2503" y="-358.5" font-family="Times New Roman,serif" font-size="10.00">e8 :Edge</text>
<polygon fill="none" stroke="black" points="44.2503,-332 44.2503,-352 109.25,-352 109.25,-332 44.2503,-332"/>
<text text-anchor="start" x="49.7503" y="-340" font-family="Times New Roman,serif" font-size="10.00">name = &quot;e12&quot;</text>
</g>
<!-- g2&#45;&#45;e8 -->
<g id="edge30" class="edge"><title>g2&#45;&#45;e8</title>
<path fill="none" stroke="black" d="M371.97,-836.505C295.402,-834.648 105.865,-825.833 61.2503,-784 26.7171,-751.62 38.2503,-727.339 38.2503,-680 38.2503,-680 38.2503,-680 38.2503,-514 38.2503,-462.579 56.6218,-404.345 67.8169,-373.632"/>
<text text-anchor="middle" x="68.7707" y="-381.086" font-family="Times New Roman,serif" font-size="10.00">edges</text>
<text text-anchor="middle" x="362.783" y="-837.954" font-family="Times New Roman,serif" font-size="10.00">graph</text>
</g>
<!-- e9 -->
<g id="node9" class="node"><title>e9</title>
<polygon fill="none" stroke="black" points="371.25,-352 371.25,-369 436.25,-369 436.25,-352 371.25,-352"/>
<text text-anchor="start" x="385.25" y="-358.5" font-family="Times New Roman,serif" font-size="10.00"> </text>
<text text-anchor="start" x="388.25" y="-358.5" font-family="Times New Roman,serif" font-size="10.00">e9 :Edge</text>
<polygon fill="none" stroke="black" points="371.25,-332 371.25,-352 436.25,-352 436.25,-332 371.25,-332"/>
<text text-anchor="start" x="376.75" y="-340" font-family="Times New Roman,serif" font-size="10.00">name = &quot;e13&quot;</text>
</g>
<!-- g2&#45;&#45;e9 -->
<g id="edge32" class="edge"><title>g2&#45;&#45;e9</title>
<path fill="none" stroke="black" d="M404.25,-819.576C404.25,-790.605 404.25,-730.698 404.25,-680 404.25,-680 404.25,-680 404.25,-514 404.25,-463.796 403.764,-404.842 403.47,-373.748"/>
<text text-anchor="middle" x="407.779" y="-380.272" font-family="Times New Roman,serif" font-size="10.00">edges</text>
<text text-anchor="middle" x="400.024" y="-808.012" font-family="Times New Roman,serif" font-size="10.00">graph</text>
</g>
<!-- n10 -->
<g id="node10" class="node"><title>n10</title>
<polygon fill="none" stroke="black" points="373.25,-270 373.25,-287 434.25,-287 434.25,-270 373.25,-270"/>
<text text-anchor="start" x="381.75" y="-276.5" font-family="Times New Roman,serif" font-size="10.00"> </text>
<text text-anchor="start" x="384.75" y="-276.5" font-family="Times New Roman,serif" font-size="10.00">n10 :Node</text>
<polygon fill="none" stroke="black" points="373.25,-250 373.25,-270 434.25,-270 434.25,-250 373.25,-250"/>
<text text-anchor="start" x="378.75" y="-258" font-family="Times New Roman,serif" font-size="10.00">name = &quot;n4&quot;</text>
</g>
<!-- g2&#45;&#45;n10 -->
<g id="edge34" class="edge"><title>g2&#45;&#45;n10</title>
<path fill="none" stroke="black" d="M409.561,-819.982C412.574,-809.669 416.151,-796.193 418.25,-784 449.274,-603.803 444.688,-556.691 452.25,-374 453.096,-353.573 459.275,-347.2 452.25,-328 447.223,-314.259 437.343,-301.53 427.764,-291.518"/>
<text text-anchor="middle" x="437.037" y="-292.76" font-family="Times New Roman,serif" font-size="10.00">nodes</text>
<text text-anchor="middle" x="408.013" y="-807.603" font-family="Times New Roman,serif" font-size="10.00">graph</text>
</g>
<!-- e11 -->
<g id="node11" class="node"><title>e11</title>
<polygon fill="none" stroke="black" points="352.25,-188 352.25,-205 417.25,-205 417.25,-188 352.25,-188"/>
<text text-anchor="start" x="363.75" y="-194.5" font-family="Times New Roman,serif" font-size="10.00"> </text>
<text text-anchor="start" x="366.75" y="-194.5" font-family="Times New Roman,serif" font-size="10.00">e11 :Edge</text>
<polygon fill="none" stroke="black" points="352.25,-168 352.25,-188 417.25,-188 417.25,-168 352.25,-168"/>
<text text-anchor="start" x="357.75" y="-176" font-family="Times New Roman,serif" font-size="10.00">name = &quot;e14&quot;</text>
</g>
<!-- g2&#45;&#45;e11 -->
<g id="edge14" class="edge"><title>g2&#45;&#45;e11</title>
<path fill="none" stroke="black" d="M397.281,-819.904C386.31,-791.405 366.25,-732.162 366.25,-680 366.25,-680 366.25,-680 366.25,-596 366.25,-440.368 317.649,-397.022 355.25,-246 358.405,-233.328 364.656,-220.231 370.548,-209.696"/>
<text text-anchor="middle" x="369.892" y="-217.175" font-family="Times New Roman,serif" font-size="10.00">edges</text>
<text text-anchor="middle" x="390.143" y="-810.4" font-family="Times New Roman,serif" font-size="10.00">graph</text>
</g>
<!-- n12 -->
<g id="node12" class="node"><title>n12</title>
<polygon fill="none" stroke="black" points="354.25,-106 354.25,-123 415.25,-123 415.25,-106 354.25,-106"/>
<text text-anchor="start" x="362.75" y="-112.5" font-family="Times New Roman,serif" font-size="10.00"> </text>
<text text-anchor="start" x="365.75" y="-112.5" font-family="Times New Roman,serif" font-size="10.00">n12 :Node</text>
<polygon fill="none" stroke="black" points="354.25,-86 354.25,-106 415.25,-106 415.25,-86 354.25,-86"/>
<text text-anchor="start" x="359.75" y="-94" font-family="Times New Roman,serif" font-size="10.00">name = &quot;n5&quot;</text>
</g>
<!-- g2&#45;&#45;n12 -->
<g id="edge36" class="edge"><title>g2&#45;&#45;n12</title>
<path fill="none" stroke="black" d="M417.089,-819.741C423.856,-809.787 431.68,-796.748 436.25,-784 448.681,-749.328 443.574,-738.535 448.25,-702 469.386,-536.888 485.718,-493.541 468.25,-328 460.429,-253.881 466.062,-230.919 433.25,-164 426.693,-150.626 416.377,-137.758 406.899,-127.555"/>
<text text-anchor="middle" x="416.129" y="-128.901" font-family="Times New Roman,serif" font-size="10.00">nodes</text>
<text text-anchor="middle" x="418.616" y="-807.359" font-family="Times New Roman,serif" font-size="10.00">graph</text>
</g>
<!-- e13 -->
<g id="node13" class="node"><title>e13</title>
<polygon fill="none" stroke="black" points="326.25,-24 326.25,-41 391.25,-41 391.25,-24 326.25,-24"/>
<text text-anchor="start" x="337.75" y="-30.5" font-family="Times New Roman,serif" font-size="10.00"> </text>
<text text-anchor="start" x="340.75" y="-30.5" font-family="Times New Roman,serif" font-size="10.00">e13 :Edge</text>
<polygon fill="none" stroke="black" points="326.25,-4 326.25,-24 391.25,-24 391.25,-4 326.25,-4"/>
<text text-anchor="start" x="331.75" y="-12" font-family="Times New Roman,serif" font-size="10.00">name = &quot;e18&quot;</text>
</g>
<!-- g2&#45;&#45;e13 -->
<g id="edge16" class="edge"><title>g2&#45;&#45;e13</title>
<path fill="none" stroke="black" d="M389.597,-819.951C367.512,-792.449 328.25,-735.72 328.25,-680 328.25,-680 328.25,-680 328.25,-596 328.25,-450.415 296.25,-415.585 296.25,-270 296.25,-270 296.25,-270 296.25,-186 296.25,-132.698 325.889,-75.6595 344.182,-45.5323"/>
<text text-anchor="middle" x="343.219" y="-52.9858" font-family="Times New Roman,serif" font-size="10.00">edges</text>
<text text-anchor="middle" x="380.694" y="-812.897" font-family="Times New Roman,serif" font-size="10.00">graph</text>
</g>
<!-- e14 -->
<g id="node14" class="node"><title>e14</title>
<polygon fill="none" stroke="black" points="201.25,-24 201.25,-41 266.25,-41 266.25,-24 201.25,-24"/>
<text text-anchor="start" x="212.75" y="-30.5" font-family="Times New Roman,serif" font-size="10.00"> </text>
<text text-anchor="start" x="215.75" y="-30.5" font-family="Times New Roman,serif" font-size="10.00">e14 :Edge</text>
<polygon fill="none" stroke="black" points="201.25,-4 201.25,-24 266.25,-24 266.25,-4 201.25,-4"/>
<text text-anchor="start" x="206.75" y="-12" font-family="Times New Roman,serif" font-size="10.00">name = &quot;e15&quot;</text>
</g>
<!-- g2&#45;&#45;e14 -->
<g id="edge18" class="edge"><title>g2&#45;&#45;e14</title>
<path fill="none" stroke="black" d="M371.708,-836.654C290.926,-835.14 84.0788,-827.049 33.2503,-784 -3.75444,-752.659 0.250296,-728.493 0.250296,-680 0.250296,-680 0.250296,-680 0.250296,-186 0.250296,-93.2531 126.243,-49.3092 192.931,-32.5457"/>
<text text-anchor="middle" x="185.292" y="-36.4994" font-family="Times New Roman,serif" font-size="10.00">edges</text>
<text text-anchor="middle" x="362.544" y="-838.157" font-family="Times New Roman,serif" font-size="10.00">graph</text>
</g>
<!-- e15 -->
<g id="node15" class="node"><title>e15</title>
<polygon fill="none" stroke="black" points="551.25,-24 551.25,-41 616.25,-41 616.25,-24 551.25,-24"/>
<text text-anchor="start" x="562.75" y="-30.5" font-family="Times New Roman,serif" font-size="10.00"> </text>
<text text-anchor="start" x="565.75" y="-30.5" font-family="Times New Roman,serif" font-size="10.00">e15 :Edge</text>
<polygon fill="none" stroke="black" points="551.25,-4 551.25,-24 616.25,-24 616.25,-4 551.25,-4"/>
<text text-anchor="start" x="556.75" y="-12" font-family="Times New Roman,serif" font-size="10.00">name = &quot;e19&quot;</text>
</g>
<!-- g2&#45;&#45;e15 -->
<g id="edge20" class="edge"><title>g2&#45;&#45;e15</title>
<path fill="none" stroke="black" d="M436.574,-835.45C503.512,-831.557 654.001,-819.034 689.25,-784 722.635,-750.819 709.25,-727.069 709.25,-680 709.25,-680 709.25,-680 709.25,-186 709.25,-125.072 653.031,-73.2584 615.698,-45.568"/>
<text text-anchor="middle" x="625.456" y="-45.2559" font-family="Times New Roman,serif" font-size="10.00">edges</text>
<text text-anchor="middle" x="445.347" y="-828.151" font-family="Times New Roman,serif" font-size="10.00">graph</text>
</g>
<!-- n16 -->
<g id="node16" class="node"><title>n16</title>
<polygon fill="none" stroke="black" points="517.25,-762 517.25,-779 578.25,-779 578.25,-762 517.25,-762"/>
<text text-anchor="start" x="525.75" y="-768.5" font-family="Times New Roman,serif" font-size="10.00"> </text>
<text text-anchor="start" x="528.75" y="-768.5" font-family="Times New Roman,serif" font-size="10.00">n16 :Node</text>
<polygon fill="none" stroke="black" points="517.25,-742 517.25,-762 578.25,-762 578.25,-742 517.25,-742"/>
<text text-anchor="start" x="522.75" y="-750" font-family="Times New Roman,serif" font-size="10.00">name = &quot;n6&quot;</text>
</g>
<!-- g2&#45;&#45;n16 -->
<g id="edge38" class="edge"><title>g2&#45;&#45;n16</title>
<path fill="none" stroke="black" d="M436.699,-819.981C458.124,-808.744 486.298,-793.968 508.841,-782.145"/>
<text text-anchor="middle" x="502.778" y="-787.597" font-family="Times New Roman,serif" font-size="10.00">nodes</text>
<text text-anchor="middle" x="442.762" y="-809.529" font-family="Times New Roman,serif" font-size="10.00">graph</text>
</g>
<!-- n17 -->
<g id="node17" class="node"><title>n17</title>
<polygon fill="none" stroke="black" points="612.25,-762 612.25,-779 673.25,-779 673.25,-762 612.25,-762"/>
<text text-anchor="start" x="620.75" y="-768.5" font-family="Times New Roman,serif" font-size="10.00"> </text>
<text text-anchor="start" x="623.75" y="-768.5" font-family="Times New Roman,serif" font-size="10.00">n17 :Node</text>
<polygon fill="none" stroke="black" points="612.25,-742 612.25,-762 673.25,-762 673.25,-742 612.25,-742"/>
<text text-anchor="start" x="617.75" y="-750" font-family="Times New Roman,serif" font-size="10.00">name = &quot;n7&quot;</text>
</g>
<!-- g2&#45;&#45;n17 -->
<g id="edge40" class="edge"><title>g2&#45;&#45;n17</title>
<path fill="none" stroke="black" d="M436.676,-829.609C474.894,-820.52 540.063,-803.835 594.25,-784 597.435,-782.834 600.702,-781.546 603.961,-780.194"/>
<text text-anchor="middle" x="597.195" y="-785.058" font-family="Times New Roman,serif" font-size="10.00">nodes</text>
<text text-anchor="middle" x="444.496" y="-820.876" font-family="Times New Roman,serif" font-size="10.00">graph</text>
</g>
<!-- n18 -->
<g id="node18" class="node"><title>n18</title>
<polygon fill="none" stroke="black" points="822.25,-762 822.25,-779 883.25,-779 883.25,-762 822.25,-762"/>
<text text-anchor="start" x="830.75" y="-768.5" font-family="Times New Roman,serif" font-size="10.00"> </text>
<text text-anchor="start" x="833.75" y="-768.5" font-family="Times New Roman,serif" font-size="10.00">n18 :Node</text>
<polygon fill="none" stroke="black" points="822.25,-742 822.25,-762 883.25,-762 883.25,-742 822.25,-742"/>
<text text-anchor="start" x="827.75" y="-750" font-family="Times New Roman,serif" font-size="10.00">name = &quot;n8&quot;</text>
</g>
<!-- g2&#45;&#45;n18 -->
<g id="edge42" class="edge"><title>g2&#45;&#45;n18</title>
<path fill="none" stroke="black" d="M436.551,-835.508C504.678,-831.745 667.646,-819.491 799.25,-784 804.06,-782.703 809.012,-781.073 813.869,-779.291"/>
<text text-anchor="middle" x="806.793" y="-783.857" font-family="Times New Roman,serif" font-size="10.00">nodes</text>
<text text-anchor="middle" x="445.343" y="-828.243" font-family="Times New Roman,serif" font-size="10.00">graph</text>
</g>
<!-- e19 -->
<g id="node19" class="node"><title>e19</title>
<polygon fill="none" stroke="black" points="746.25,-680 746.25,-697 811.25,-697 811.25,-680 746.25,-680"/>
<text text-anchor="start" x="757.75" y="-686.5" font-family="Times New Roman,serif" font-size="10.00"> </text>
<text text-anchor="start" x="760.75" y="-686.5" font-family="Times New Roman,serif" font-size="10.00">e19 :Edge</text>
<polygon fill="none" stroke="black" points="746.25,-660 746.25,-680 811.25,-680 811.25,-660 746.25,-660"/>
<text text-anchor="start" x="751.75" y="-668" font-family="Times New Roman,serif" font-size="10.00">name = &quot;e16&quot;</text>
</g>
<!-- g2&#45;&#45;e19 -->
<g id="edge22" class="edge"><title>g2&#45;&#45;e19</title>
<path fill="none" stroke="black" d="M436.559,-835.23C508.199,-830.744 677.648,-816.866 723.25,-784 750.922,-764.057 765.896,-725.876 772.963,-701.738"/>
<text text-anchor="middle" x="774.32" y="-709.146" font-family="Times New Roman,serif" font-size="10.00">edges</text>
<text text-anchor="middle" x="445.316" y="-827.902" font-family="Times New Roman,serif" font-size="10.00">graph</text>
</g>
<!-- e20 -->
<g id="node20" class="node"><title>e20</title>
<polygon fill="none" stroke="black" points="845.25,-680 845.25,-697 910.25,-697 910.25,-680 845.25,-680"/>
<text text-anchor="start" x="856.75" y="-686.5" font-family="Times New Roman,serif" font-size="10.00"> </text>
<text text-anchor="start" x="859.75" y="-686.5" font-family="Times New Roman,serif" font-size="10.00">e20 :Edge</text>
<polygon fill="none" stroke="black" points="845.25,-660 845.25,-680 910.25,-680 910.25,-660 845.25,-660"/>
<text text-anchor="start" x="850.75" y="-668" font-family="Times New Roman,serif" font-size="10.00">name = &quot;e17&quot;</text>
</g>
<!-- g2&#45;&#45;e20 -->
<g id="edge24" class="edge"><title>g2&#45;&#45;e20</title>
<path fill="none" stroke="black" d="M436.758,-834.571C512.626,-828.507 699.183,-811.211 755.25,-784 782.123,-770.958 781.649,-757.53 804.25,-738 818.703,-725.512 835.342,-712.213 849.081,-701.505"/>
<text text-anchor="middle" x="844.544" y="-707.917" font-family="Times New Roman,serif" font-size="10.00">edges</text>
<text text-anchor="middle" x="445.438" y="-827.106" font-family="Times New Roman,serif" font-size="10.00">graph</text>
</g>
<!-- n3&#45;&#45;e4 -->
<g id="edge64" class="edge"><title>n3&#45;&#45;e4</title>
<path fill="none" stroke="black" d="M119.087,-738.14C124.209,-726.759 130.448,-712.893 135.55,-701.557"/>
<text text-anchor="middle" x="135.684" y="-709.056" font-family="Times New Roman,serif" font-size="10.00">outEdges</text>
<text text-anchor="middle" x="118.953" y="-725.641" font-family="Times New Roman,serif" font-size="10.00">src</text>
</g>
<!-- n3&#45;&#45;e8 -->
<g id="edge66" class="edge"><title>n3&#45;&#45;e8</title>
<path fill="none" stroke="black" d="M101.927,-738.276C92.2045,-707.454 76.2503,-649.091 76.2503,-598 76.2503,-598 76.2503,-598 76.2503,-514 76.2503,-463.797 76.2503,-404.843 76.2503,-373.749"/>
<text text-anchor="middle" x="80.4765" y="-380.312" font-family="Times New Roman,serif" font-size="10.00">inEdges</text>
<text text-anchor="middle" x="95.2268" y="-728.352" font-family="Times New Roman,serif" font-size="10.00">tgt</text>
</g>
<!-- e4&#45;&#45;n5 -->
<g id="edge4" class="edge"><title>e4&#45;&#45;n5</title>
<path fill="none" stroke="black" d="M156.18,-656.14C161.871,-644.759 168.804,-630.893 174.472,-619.557"/>
<text text-anchor="middle" x="174.199" y="-627.053" font-family="Times New Roman,serif" font-size="10.00">tgt</text>
<text text-anchor="middle" x="156.454" y="-643.643" font-family="Times New Roman,serif" font-size="10.00">inEdges</text>
</g>
<!-- n5&#45;&#45;e6 -->
<g id="edge68" class="edge"><title>n5&#45;&#45;e6</title>
<path fill="none" stroke="black" d="M195.087,-574.14C200.209,-562.759 206.448,-548.893 211.55,-537.557"/>
<text text-anchor="middle" x="211.684" y="-545.056" font-family="Times New Roman,serif" font-size="10.00">outEdges</text>
<text text-anchor="middle" x="194.953" y="-561.641" font-family="Times New Roman,serif" font-size="10.00">src</text>
</g>
<!-- e6&#45;&#45;n7 -->
<g id="edge6" class="edge"><title>e6&#45;&#45;n7</title>
<path fill="none" stroke="black" d="M224.529,-492.14C226.236,-480.759 228.316,-466.893 230.017,-455.557"/>
<text text-anchor="middle" x="232.852" y="-462.647" font-family="Times New Roman,serif" font-size="10.00">tgt</text>
<text text-anchor="middle" x="221.694" y="-480.05" font-family="Times New Roman,serif" font-size="10.00">inEdges</text>
</g>
<!-- n7&#45;&#45;e8 -->
<g id="edge72" class="edge"><title>n7&#45;&#45;e8</title>
<path fill="none" stroke="black" d="M194.844,-412.43C171.15,-400.357 140.795,-384.889 116.727,-372.625"/>
<text text-anchor="middle" x="126.721" y="-370.474" font-family="Times New Roman,serif" font-size="10.00">outEdges</text>
<text text-anchor="middle" x="184.85" y="-409.581" font-family="Times New Roman,serif" font-size="10.00">src</text>
</g>
<!-- n7&#45;&#45;e9 -->
<g id="edge74" class="edge"><title>n7&#45;&#45;e9</title>
<path fill="none" stroke="black" d="M271.826,-413.847C298.962,-401.077 335.203,-384.022 362.755,-371.056"/>
<text text-anchor="middle" x="356.355" y="-376.239" font-family="Times New Roman,serif" font-size="10.00">outEdges</text>
<text text-anchor="middle" x="278.227" y="-403.664" font-family="Times New Roman,serif" font-size="10.00">src</text>
</g>
<!-- n7&#45;&#45;e14 -->
<g id="edge70" class="edge"><title>n7&#45;&#45;e14</title>
<path fill="none" stroke="black" d="M233.25,-410.251C233.25,-379.157 233.25,-320.203 233.25,-270 233.25,-270 233.25,-270 233.25,-186 233.25,-135.797 233.25,-76.8425 233.25,-45.7485"/>
<text text-anchor="middle" x="237.476" y="-52.3116" font-family="Times New Roman,serif" font-size="10.00">inEdges</text>
<text text-anchor="middle" x="229.024" y="-398.688" font-family="Times New Roman,serif" font-size="10.00">tgt</text>
</g>
<!-- e9&#45;&#45;n10 -->
<g id="edge8" class="edge"><title>e9&#45;&#45;n10</title>
<path fill="none" stroke="black" d="M403.25,-328.14C403.25,-316.759 403.25,-302.893 403.25,-291.557"/>
<text text-anchor="middle" x="407.476" y="-298.12" font-family="Times New Roman,serif" font-size="10.00">tgt</text>
<text text-anchor="middle" x="399.024" y="-316.577" font-family="Times New Roman,serif" font-size="10.00">inEdges</text>
</g>
<!-- n10&#45;&#45;e11 -->
<g id="edge50" class="edge"><title>n10&#45;&#45;e11</title>
<path fill="none" stroke="black" d="M398.058,-246.14C395.356,-234.759 392.062,-220.893 389.37,-209.557"/>
<text text-anchor="middle" x="395.576" y="-214.898" font-family="Times New Roman,serif" font-size="10.00">outEdges</text>
<text text-anchor="middle" x="391.852" y="-235.798" font-family="Times New Roman,serif" font-size="10.00">src</text>
</g>
<!-- e11&#45;&#45;n12 -->
<g id="edge2" class="edge"><title>e11&#45;&#45;n12</title>
<path fill="none" stroke="black" d="M384.25,-164.14C384.25,-152.759 384.25,-138.893 384.25,-127.557"/>
<text text-anchor="middle" x="388.476" y="-134.12" font-family="Times New Roman,serif" font-size="10.00">tgt</text>
<text text-anchor="middle" x="380.024" y="-152.577" font-family="Times New Roman,serif" font-size="10.00">inEdges</text>
</g>
<!-- n12&#45;&#45;e13 -->
<g id="edge52" class="edge"><title>n12&#45;&#45;e13</title>
<path fill="none" stroke="black" d="M377.146,-82.1396C373.447,-70.759 368.94,-56.8929 365.256,-45.5569"/>
<text text-anchor="middle" x="372.077" y="-50.37" font-family="Times New Roman,serif" font-size="10.00">outEdges</text>
<text text-anchor="middle" x="370.325" y="-72.3266" font-family="Times New Roman,serif" font-size="10.00">src</text>
</g>
<!-- n12&#45;&#45;e14 -->
<g id="edge54" class="edge"><title>n12&#45;&#45;e14</title>
<path fill="none" stroke="black" d="M345.756,-83.6056C323.649,-71.8935 295.919,-57.2021 273.521,-45.3355"/>
<text text-anchor="middle" x="283.508" y="-43.344" font-family="Times New Roman,serif" font-size="10.00">outEdges</text>
<text text-anchor="middle" x="335.769" y="-80.5971" font-family="Times New Roman,serif" font-size="10.00">src</text>
</g>
<!-- n12&#45;&#45;e15 -->
<g id="edge56" class="edge"><title>n12&#45;&#45;e15</title>
<path fill="none" stroke="black" d="M422.619,-88.5752C457.18,-74.6814 507.806,-54.3293 542.95,-40.2012"/>
<text text-anchor="middle" x="536.117" y="-45.0029" font-family="Times New Roman,serif" font-size="10.00">inEdges</text>
<text text-anchor="middle" x="429.452" y="-78.7735" font-family="Times New Roman,serif" font-size="10.00">tgt</text>
</g>
<!-- n18&#45;&#45;e19 -->
<g id="edge58" class="edge"><title>n18&#45;&#45;e19</title>
<path fill="none" stroke="black" d="M832.029,-738.14C821.502,-726.759 808.676,-712.893 798.19,-701.557"/>
<text text-anchor="middle" x="807.447" y="-702.84" font-family="Times New Roman,serif" font-size="10.00">outEdges_inEdges</text>
<text text-anchor="middle" x="822.773" y="-731.856" font-family="Times New Roman,serif" font-size="10.00">src_tgt</text>
</g>
<!-- n18&#45;&#45;e20 -->
<g id="edge60" class="edge"><title>n18&#45;&#45;e20</title>
<path fill="none" stroke="black" d="M859.082,-738.14C862.638,-726.759 866.971,-712.893 870.514,-701.557"/>
<text text-anchor="middle" x="871.844" y="-708.968" font-family="Times New Roman,serif" font-size="10.00">outEdges_inEdges</text>
<text text-anchor="middle" x="857.751" y="-725.729" font-family="Times New Roman,serif" font-size="10.00">src_tgt</text>
</g>
<!-- n22 -->
<g id="node22" class="node"><title>n22</title>
<polygon fill="none" stroke="black" points="642.25,-829 642.25,-846 705.25,-846 705.25,-829 642.25,-829"/>
<text text-anchor="start" x="645.75" y="-835.5" font-family="Times New Roman,serif" font-size="10.00"> </text>
<text text-anchor="start" x="648.75" y="-835.5" font-family="Times New Roman,serif" font-size="10.00">n22 :NodePO</text>
</g>
<!-- p21&#45;&#45;n22 -->
<g id="edge76" class="edge"><title>p21&#45;&#45;n22</title>
<path fill="none" stroke="black" d="M546.025,-892.307C574.006,-880.583 608.009,-866.336 633.821,-855.521"/>
<text text-anchor="middle" x="627.095" y="-860.421" font-family="Times New Roman,serif" font-size="10.00">tgt</text>
<text text-anchor="middle" x="552.75" y="-882.407" font-family="Times New Roman,serif" font-size="10.00">incomming</text>
</g>
<!-- n22&#45;&#45;n18 -->
<g id="edge62" class="edge"><title>n22&#45;&#45;n18</title>
<path fill="none" stroke="black" d="M712.533,-820.541C742.686,-807.907 784.084,-790.561 813.982,-778.034"/>
<text text-anchor="middle" x="807.256" y="-782.935" font-family="Times New Roman,serif" font-size="10.00">currentMatch</text>
</g>
</g>
</svg>
