<?xml version="1.0" encoding="UTF-8" standalone="no"?>
<!DOCTYPE svg PUBLIC "-//W3C//DTD SVG 1.1//EN"
 "http://www.w3.org/Graphics/SVG/1.1/DTD/svg11.dtd">
<!-- Generated by graphviz version 2.28.0 (20110507.0327)
 -->
<!-- Title: ObjectDiagram Pages: 1 -->
<svg width="1323pt" height="796pt"
 viewBox="0.00 0.00 1323.00 796.00" xmlns="http://www.w3.org/2000/svg" xmlns:xlink="http://www.w3.org/1999/xlink">
<g id="graph1" class="graph" transform="scale(1 1) rotate(0) translate(4 792)">
<title>ObjectDiagram</title>
<polygon fill="white" stroke="white" points="-4,5 -4,-792 1320,-792 1320,5 -4,5"/>
<!-- g1 -->
<g id="node1" class="node"><title>g1</title>
<polygon fill="deepskyblue" stroke="deepskyblue" points="671.5,-732.5 671.5,-783.5 734.5,-783.5 734.5,-732.5 671.5,-732.5"/>
<text text-anchor="start" x="701" y="-773.5" font-family="Arial" font-size="10.00">«bound»</text>
<polygon fill="none" stroke="black" points="672,-752 672,-768 735,-768 735,-752 672,-752"/>
<text text-anchor="start" x="675.5" y="-758" font-family="Arial" font-size="10.00"> </text>
<text text-anchor="start" x="679.5" y="-758" font-family="Arial" font-size="10.00"> g1 :GraphPO </text>
<polygon fill="none" stroke="black" points="672,-732 672,-752 735,-752 735,-732 672,-732"/>
<text text-anchor="start" x="700" y="-740" font-family="Arial" font-size="10.00"> &#160;</text>
</g>
<!-- e2 -->
<g id="node2" class="node"><title>e2</title>
<polygon fill="deepskyblue" stroke="deepskyblue" points="293.5,-578.5 293.5,-615.5 364.5,-615.5 364.5,-578.5 293.5,-578.5"/>
<polygon fill="none" stroke="black" points="294,-598 294,-615 365,-615 365,-598 294,-598"/>
<text text-anchor="start" x="297.5" y="-604.5" font-family="Arial" font-size="10.00"> </text>
<text text-anchor="start" x="301.5" y="-604.5" font-family="Arial" font-size="10.00"> e2 :EdgePO </text>
<polygon fill="none" stroke="black" points="294,-578 294,-598 365,-598 365,-578 294,-578"/>
<text text-anchor="start" x="326" y="-586" font-family="Arial" font-size="10.00"> &#160;</text>
</g>
<!-- g1&#45;&#45;e2 -->
<g id="edge28" class="edge"><title>g1&#45;&#45;e2</title>
<path fill="none" stroke="black" d="M663.682,-740.285C593.165,-710.306 445.724,-647.623 372.371,-616.438"/>
<text text-anchor="middle" x="382.365" y="-613.595" font-family="Arial" font-size="10.00">edges</text>
</g>
<!-- g5 -->
<g id="node6" class="node"><title>g5</title>
<a xlink:href="../../SDMLib/src/org/sdmlib/examples/helloworld/model/Graph.java" xlink:title="&lt;TABLE&gt;">
<polygon fill="none" stroke="black" points="822,-665 822,-682 876,-682 876,-665 822,-665"/>
<text text-anchor="start" x="825.5" y="-671.5" font-family="Arial" font-size="10.00"> </text>
<text text-anchor="start" x="829.5" y="-671.5" font-family="Arial" font-size="10.00">g5 :Graph</text>
</a>
</g>
<!-- g1&#45;&#45;g5 -->
<g id="edge2" class="edge"><title>g1&#45;&#45;g5</title>
<path fill="none" stroke="black" stroke-dasharray="1,5" d="M742.512,-733.458C745.715,-731.598 748.907,-729.76 752,-728 773.517,-715.759 797.979,-702.397 816.955,-692.152"/>
<text text-anchor="middle" x="810.993" y="-697.68" font-family="Arial" font-size="10.00">match</text>
</g>
<!-- n3 -->
<g id="node3" class="node"><title>n3</title>
<polygon fill="deepskyblue" stroke="deepskyblue" points="112.5,-496.5 112.5,-533.5 183.5,-533.5 183.5,-496.5 112.5,-496.5"/>
<polygon fill="none" stroke="black" points="113,-516 113,-533 184,-533 184,-516 113,-516"/>
<text text-anchor="start" x="116.5" y="-522.5" font-family="Arial" font-size="10.00"> </text>
<text text-anchor="start" x="120.5" y="-522.5" font-family="Arial" font-size="10.00"> n3 :NodePO </text>
<polygon fill="none" stroke="black" points="113,-496 113,-516 184,-516 184,-496 113,-496"/>
<text text-anchor="start" x="145" y="-504" font-family="Arial" font-size="10.00"> &#160;</text>
</g>
<!-- e2&#45;&#45;n3 -->
<g id="edge30" class="edge"><title>e2&#45;&#45;n3</title>
<path fill="none" stroke="black" d="M285.442,-579.229C256.733,-567.134 219.402,-550.701 190.842,-537.619"/>
<text text-anchor="middle" x="200.842" y="-535.033" font-family="Arial" font-size="10.00">src</text>
</g>
<!-- e2&#45;&#45;n3 -->
<g id="edge36" class="edge"><title>e2&#45;&#45;n3</title>
<path fill="none" stroke="green" d="M286.093,-574.351C257.5,-561.255 220.136,-544.809 191.432,-532.718"/>
<text text-anchor="middle" x="201.426" y="-529.861" font-family="Arial" font-size="10.00" fill="green">tgt</text>
</g>
<!-- n4 -->
<g id="node4" class="node"><title>n4</title>
<polygon fill="deepskyblue" stroke="deepskyblue" points="217.5,-496.5 217.5,-533.5 288.5,-533.5 288.5,-496.5 217.5,-496.5"/>
<polygon fill="none" stroke="black" points="218,-516 218,-533 289,-533 289,-516 218,-516"/>
<text text-anchor="start" x="221.5" y="-522.5" font-family="Arial" font-size="10.00"> </text>
<text text-anchor="start" x="225.5" y="-522.5" font-family="Arial" font-size="10.00"> n4 :NodePO </text>
<polygon fill="none" stroke="black" points="218,-496 218,-516 289,-516 289,-496 218,-496"/>
<text text-anchor="start" x="250" y="-504" font-family="Arial" font-size="10.00"> &#160;</text>
</g>
<!-- e2&#45;&#45;n4 -->
<g id="edge32" class="edge"><title>e2&#45;&#45;n4</title>
<path fill="none" stroke="black" d="M302.142,-574.14C290.443,-562.759 277.279,-548.893 267.412,-537.557"/>
<text text-anchor="middle" x="276.572" y="-539.07" font-family="Arial" font-size="10.00">tgt</text>
</g>
<!-- e2&#45;&#45;n4 -->
<g id="edge34" class="edge"><title>e2&#45;&#45;n4</title>
<path fill="none" stroke="green" d="M314.323,-574.14C304.399,-562.759 291.218,-548.893 279.546,-537.557"/>
<text text-anchor="middle" x="288.977" y="-538.383" font-family="Arial" font-size="10.00" fill="green">src</text>
</g>
<!-- e10 -->
<g id="node8" class="node"><title>e10</title>
<a xlink:href="../../SDMLib/src/org/sdmlib/examples/helloworld/model/Edge.java" xlink:title="&lt;TABLE&gt;">
<polygon fill="none" stroke="black" points="704,-516 704,-533 775,-533 775,-516 704,-516"/>
<text text-anchor="start" x="715" y="-522.5" font-family="Arial" font-size="10.00"> </text>
<text text-anchor="start" x="719" y="-522.5" font-family="Arial" font-size="10.00">e10 :Edge</text>
</a>
<polygon fill="none" stroke="black" points="704,-496 704,-516 775,-516 775,-496 704,-496"/>
<text text-anchor="start" x="709" y="-504" font-family="Arial" font-size="10.00">name = &quot;e12&quot;</text>
</g>
<!-- e2&#45;&#45;e10 -->
<g id="edge12" class="edge"><title>e2&#45;&#45;e10</title>
<path fill="none" stroke="black" stroke-dasharray="1,5" d="M372.395,-591.667C439.435,-584.346 571.853,-567.378 681,-538 685.784,-536.712 690.721,-535.177 695.602,-533.525"/>
<text text-anchor="middle" x="688.355" y="-537.916" font-family="Arial" font-size="10.00">candidate</text>
</g>
<!-- e9 -->
<g id="node10" class="node"><title>e9</title>
<a xlink:href="../../SDMLib/src/org/sdmlib/examples/helloworld/model/Edge.java" xlink:title="&lt;TABLE&gt;">
<polygon fill="none" stroke="black" points="590,-352 590,-369 661,-369 661,-352 590,-352"/>
<text text-anchor="start" x="603.5" y="-358.5" font-family="Arial" font-size="10.00"> </text>
<text text-anchor="start" x="607.5" y="-358.5" font-family="Arial" font-size="10.00">e9 :Edge</text>
</a>
<polygon fill="none" stroke="black" points="590,-332 590,-352 661,-352 661,-332 590,-332"/>
<text text-anchor="start" x="595" y="-340" font-family="Arial" font-size="10.00">name = &quot;e11&quot;</text>
</g>
<!-- e2&#45;&#45;e9 -->
<g id="edge10" class="edge"><title>e2&#45;&#45;e9</title>
<path fill="none" stroke="black" stroke-dasharray="1,5" d="M355.268,-574.347C411.439,-528.043 542.672,-419.865 598.791,-373.605"/>
<text text-anchor="middle" x="594.486" y="-380.131" font-family="Arial" font-size="10.00">candidate</text>
</g>
<!-- e8 -->
<g id="node12" class="node"><title>e8</title>
<a xlink:href="../../SDMLib/src/org/sdmlib/examples/helloworld/model/Edge.java" xlink:title="&lt;TABLE&gt;">
<polygon fill="none" stroke="black" points="439,-188 439,-205 510,-205 510,-188 439,-188"/>
<text text-anchor="start" x="452.5" y="-194.5" font-family="Arial" font-size="10.00"> </text>
<text text-anchor="start" x="456.5" y="-194.5" font-family="Arial" font-size="10.00">e8 :Edge</text>
</a>
<polygon fill="none" stroke="black" points="439,-168 439,-188 510,-188 510,-168 439,-168"/>
<text text-anchor="start" x="444" y="-176" font-family="Arial" font-size="10.00">name = &quot;e10&quot;</text>
</g>
<!-- e2&#45;&#45;e8 -->
<g id="edge8" class="edge"><title>e2&#45;&#45;e8</title>
<path fill="none" stroke="black" stroke-dasharray="1,5" d="M336.546,-574.293C346.562,-543.492 363,-485.153 363,-434 363,-434 363,-434 363,-350 363,-302.563 360.028,-285.023 387,-246 397.941,-230.171 414.737,-217.507 430.664,-208.1"/>
<text text-anchor="middle" x="425.12" y="-213.922" font-family="Arial" font-size="10.00">candidate</text>
</g>
<!-- e13 -->
<g id="node13" class="node"><title>e13</title>
<a xlink:href="../../SDMLib/src/org/sdmlib/examples/helloworld/model/Edge.java" xlink:title="&lt;TABLE&gt;">
<polygon fill="none" stroke="black" points="793,-352 793,-369 864,-369 864,-352 793,-352"/>
<text text-anchor="start" x="804" y="-358.5" font-family="Arial" font-size="10.00"> </text>
<text text-anchor="start" x="808" y="-358.5" font-family="Arial" font-size="10.00">e13 :Edge</text>
</a>
<polygon fill="none" stroke="black" points="793,-332 793,-352 864,-352 864,-332 793,-332"/>
<text text-anchor="start" x="798" y="-340" font-family="Arial" font-size="10.00">name = &quot;e15&quot;</text>
</g>
<!-- e2&#45;&#45;e13 -->
<g id="edge18" class="edge"><title>e2&#45;&#45;e13</title>
<path fill="none" stroke="black" stroke-dasharray="1,5" d="M372.393,-587.179C413.776,-577.902 477.281,-561.385 529,-538 625.503,-494.365 639.75,-465.423 730,-410 749.88,-397.792 772.254,-384.515 790.6,-373.749"/>
<text text-anchor="middle" x="784.928" y="-379.484" font-family="Arial" font-size="10.00">candidate</text>
</g>
<!-- e6 -->
<g id="node15" class="node"><title>e6</title>
<a xlink:href="../../SDMLib/src/org/sdmlib/examples/helloworld/model/Edge.java" xlink:title="&lt;TABLE&gt;">
<polygon fill="none" stroke="black" points="898,-188 898,-205 969,-205 969,-188 898,-188"/>
<text text-anchor="start" x="911.5" y="-194.5" font-family="Arial" font-size="10.00"> </text>
<text text-anchor="start" x="915.5" y="-194.5" font-family="Arial" font-size="10.00">e6 :Edge</text>
</a>
<polygon fill="none" stroke="black" points="898,-168 898,-188 969,-188 969,-168 898,-168"/>
<text text-anchor="start" x="903" y="-176" font-family="Arial" font-size="10.00">name = &quot;e18&quot;</text>
</g>
<!-- e2&#45;&#45;e6 -->
<g id="edge4" class="edge"><title>e2&#45;&#45;e6</title>
<path fill="none" stroke="black" stroke-dasharray="1,5" d="M372.257,-583.455C398.312,-574.198 430.822,-559.448 454,-538 532.578,-465.288 490.976,-397.976 572,-328 682.943,-232.184 743.847,-264.327 880,-210 883.146,-208.745 886.391,-207.435 889.654,-206.107"/>
<text text-anchor="middle" x="882.851" y="-210.936" font-family="Arial" font-size="10.00">candidate</text>
</g>
<!-- e12 -->
<g id="node16" class="node"><title>e12</title>
<a xlink:href="../../SDMLib/src/org/sdmlib/examples/helloworld/model/Edge.java" xlink:title="&lt;TABLE&gt;">
<polygon fill="none" stroke="black" points="1004,-188 1004,-205 1075,-205 1075,-188 1004,-188"/>
<text text-anchor="start" x="1015" y="-194.5" font-family="Arial" font-size="10.00"> </text>
<text text-anchor="start" x="1019" y="-194.5" font-family="Arial" font-size="10.00">e12 :Edge</text>
</a>
<polygon fill="none" stroke="black" points="1004,-168 1004,-188 1075,-188 1075,-168 1004,-168"/>
<text text-anchor="start" x="1009" y="-176" font-family="Arial" font-size="10.00">name = &quot;e14&quot;</text>
</g>
<!-- e2&#45;&#45;e12 -->
<g id="edge16" class="edge"><title>e2&#45;&#45;e12</title>
<path fill="none" stroke="black" stroke-dasharray="1,5" d="M372.587,-588.832C423.945,-579.759 511.47,-562.33 584,-538 631.148,-522.184 639.023,-508.318 686,-492 748.317,-470.353 773.22,-489.587 830,-456 933.091,-395.019 1004.11,-262.232 1029.09,-209.863"/>
<text text-anchor="middle" x="1028.87" y="-217.361" font-family="Arial" font-size="10.00">candidate</text>
</g>
<!-- e11 -->
<g id="node18" class="node"><title>e11</title>
<a xlink:href="../../SDMLib/src/org/sdmlib/examples/helloworld/model/Edge.java" xlink:title="&lt;TABLE&gt;">
<polygon fill="none" stroke="black" points="852,-24 852,-41 923,-41 923,-24 852,-24"/>
<text text-anchor="start" x="863" y="-30.5" font-family="Arial" font-size="10.00"> </text>
<text text-anchor="start" x="867" y="-30.5" font-family="Arial" font-size="10.00">e11 :Edge</text>
</a>
<polygon fill="none" stroke="black" points="852,-4 852,-24 923,-24 923,-4 852,-4"/>
<text text-anchor="start" x="857" y="-12" font-family="Arial" font-size="10.00">name = &quot;e13&quot;</text>
</g>
<!-- e2&#45;&#45;e11 -->
<g id="edge14" class="edge"><title>e2&#45;&#45;e11</title>
<path fill="none" stroke="black" stroke-dasharray="1,5" d="M285.678,-591.361C220.37,-583.555 100.927,-565.863 69,-538 2.5684,-480.025 0,-440.172 0,-352 0,-352 0,-352 0,-186 0,-99.218 665.535,-41.227 843.618,-27.2632"/>
<text text-anchor="middle" x="834.931" y="-29.7171" font-family="Arial" font-size="10.00">candidate</text>
</g>
<!-- e7 -->
<g id="node19" class="node"><title>e7</title>
<a xlink:href="../../SDMLib/src/org/sdmlib/examples/helloworld/model/Edge.java" xlink:title="&lt;TABLE&gt;">
<polygon fill="none" stroke="black" points="793,-188 793,-205 864,-205 864,-188 793,-188"/>
<text text-anchor="start" x="806.5" y="-194.5" font-family="Arial" font-size="10.00"> </text>
<text text-anchor="start" x="810.5" y="-194.5" font-family="Arial" font-size="10.00">e7 :Edge</text>
</a>
<polygon fill="none" stroke="black" points="793,-168 793,-188 864,-188 864,-168 793,-168"/>
<text text-anchor="start" x="798" y="-176" font-family="Arial" font-size="10.00">name = &quot;e19&quot;</text>
</g>
<!-- e2&#45;&#45;e7 -->
<g id="edge6" class="edge"><title>e2&#45;&#45;e7</title>
<path fill="none" stroke="black" stroke-dasharray="1,5" d="M369.442,-574.42C413.262,-547.767 477,-497.999 477,-434 477,-434 477,-434 477,-350 477,-303.013 462.647,-279.096 496,-246 536.028,-206.28 703.992,-193.493 784.545,-189.598"/>
<text text-anchor="middle" x="775.727" y="-191.813" font-family="Arial" font-size="10.00">candidate</text>
</g>
<!-- e14 -->
<g id="node23" class="node"><title>e14</title>
<a xlink:href="../../SDMLib/src/org/sdmlib/examples/helloworld/model/Edge.java" xlink:title="&lt;TABLE&gt;">
<polygon fill="none" stroke="black" points="41,-352 41,-369 112,-369 112,-352 41,-352"/>
<text text-anchor="start" x="52" y="-358.5" font-family="Arial" font-size="10.00"> </text>
<text text-anchor="start" x="56" y="-358.5" font-family="Arial" font-size="10.00">e14 :Edge</text>
</a>
<polygon fill="none" stroke="black" points="41,-332 41,-352 112,-352 112,-332 41,-332"/>
<text text-anchor="start" x="46" y="-340" font-family="Arial" font-size="10.00">name = &quot;e16&quot;</text>
</g>
<!-- e2&#45;&#45;e14 -->
<g id="edge20" class="edge"><title>e2&#45;&#45;e14</title>
<path fill="none" stroke="black" stroke-dasharray="1,5" d="M285.65,-591.19C225.053,-583.518 119.657,-566.409 95,-538 54.6809,-491.546 63.642,-411.947 71.0182,-373.728"/>
<text text-anchor="middle" x="73.6197" y="-380.884" font-family="Arial" font-size="10.00">candidate</text>
</g>
<!-- e15 -->
<g id="node24" class="node"><title>e15</title>
<a xlink:href="../../SDMLib/src/org/sdmlib/examples/helloworld/model/Edge.java" xlink:title="&lt;TABLE&gt;">
<polygon fill="none" stroke="black" points="148,-352 148,-369 219,-369 219,-352 148,-352"/>
<text text-anchor="start" x="159" y="-358.5" font-family="Arial" font-size="10.00"> </text>
<text text-anchor="start" x="163" y="-358.5" font-family="Arial" font-size="10.00">e15 :Edge</text>
</a>
<polygon fill="none" stroke="black" points="148,-332 148,-352 219,-352 219,-332 148,-332"/>
<text text-anchor="start" x="153" y="-340" font-family="Arial" font-size="10.00">name = &quot;e17&quot;</text>
</g>
<!-- e2&#45;&#45;e15 -->
<g id="edge22" class="edge"><title>e2&#45;&#45;e15</title>
<path fill="none" stroke="black" stroke-dasharray="1,5" d="M327.091,-574.235C324.481,-552.432 318.475,-518.409 305,-492 280.53,-444.042 236.069,-399.077 208.111,-373.609"/>
<text text-anchor="middle" x="217.629" y="-374.176" font-family="Arial" font-size="10.00">candidate</text>
</g>
<!-- n16 -->
<g id="node22" class="node"><title>n16</title>
<a xlink:href="../../SDMLib/src/org/sdmlib/examples/helloworld/model/Node.java" xlink:title="&lt;TABLE&gt;">
<polygon fill="none" stroke="black" points="150,-434 150,-451 216,-451 216,-434 150,-434"/>
<text text-anchor="start" x="158.5" y="-440.5" font-family="Arial" font-size="10.00"> </text>
<text text-anchor="start" x="162.5" y="-440.5" font-family="Arial" font-size="10.00">n16 :Node</text>
</a>
<polygon fill="none" stroke="black" points="150,-414 150,-434 216,-434 216,-414 150,-414"/>
<text text-anchor="start" x="155" y="-422" font-family="Arial" font-size="10.00">name = &quot;n8&quot;</text>
</g>
<!-- n3&#45;&#45;n16 -->
<g id="edge24" class="edge"><title>n3&#45;&#45;n16</title>
<path fill="none" stroke="black" stroke-dasharray="1,5" d="M157.564,-492.14C162.543,-480.759 168.609,-466.893 173.569,-455.557"/>
<text text-anchor="middle" x="173.808" y="-463.054" font-family="Arial" font-size="10.00">match</text>
</g>
<!-- n4&#45;&#45;n16 -->
<g id="edge26" class="edge"><title>n4&#45;&#45;n16</title>
<path fill="none" stroke="black" stroke-dasharray="1,5" d="M233.872,-492.14C223.914,-480.759 211.781,-466.893 201.862,-455.557"/>
<text text-anchor="middle" x="211.011" y="-457.095" font-family="Arial" font-size="10.00">match</text>
</g>
<!-- allMatches -->
<g id="node5" class="node"><title>allMatches</title>
<text text-anchor="middle" x="793" y="-755.5" font-family="Arial" font-size="10.00">allMatches</text>
</g>
<!-- n17 -->
<g id="node7" class="node"><title>n17</title>
<a xlink:href="../../SDMLib/src/org/sdmlib/examples/helloworld/model/Node.java" xlink:title="&lt;TABLE&gt;">
<polygon fill="none" stroke="black" points="671,-598 671,-615 737,-615 737,-598 671,-598"/>
<text text-anchor="start" x="679.5" y="-604.5" font-family="Arial" font-size="10.00"> </text>
<text text-anchor="start" x="683.5" y="-604.5" font-family="Arial" font-size="10.00">n17 :Node</text>
</a>
<polygon fill="none" stroke="black" points="671,-578 671,-598 737,-598 737,-578 671,-578"/>
<text text-anchor="start" x="676" y="-586" font-family="Arial" font-size="10.00">name = &quot;n1&quot;</text>
</g>
<!-- g5&#45;&#45;n17 -->
<g id="edge58" class="edge"><title>g5&#45;&#45;n17</title>
<path fill="none" stroke="black" d="M816.097,-655.981C795.041,-645.09 767.557,-630.874 745.073,-619.244"/>
<text text-anchor="middle" x="755.064" y="-617.154" font-family="Arial" font-size="10.00">nodes</text>
<text text-anchor="middle" x="806.106" y="-653.071" font-family="Arial" font-size="10.00">graph</text>
</g>
<!-- g5&#45;&#45;e10 -->
<g id="edge46" class="edge"><title>g5&#45;&#45;e10</title>
<path fill="none" stroke="black" d="M829.918,-655.94C819.479,-646.048 806.73,-633.005 797,-620 777.185,-593.514 759.483,-559.511 748.992,-537.732"/>
<text text-anchor="middle" x="756.766" y="-541.523" font-family="Arial" font-size="10.00">edges</text>
<text text-anchor="middle" x="820.448" y="-650.226" font-family="Arial" font-size="10.00">graph</text>
</g>
<!-- n18 -->
<g id="node9" class="node"><title>n18</title>
<a xlink:href="../../SDMLib/src/org/sdmlib/examples/helloworld/model/Node.java" xlink:title="&lt;TABLE&gt;">
<polygon fill="none" stroke="black" points="747,-434 747,-451 813,-451 813,-434 747,-434"/>
<text text-anchor="start" x="755.5" y="-440.5" font-family="Arial" font-size="10.00"> </text>
<text text-anchor="start" x="759.5" y="-440.5" font-family="Arial" font-size="10.00">n18 :Node</text>
</a>
<polygon fill="none" stroke="black" points="747,-414 747,-434 813,-434 813,-414 747,-414"/>
<text text-anchor="start" x="752" y="-422" font-family="Arial" font-size="10.00">name = &quot;n3&quot;</text>
</g>
<!-- g5&#45;&#45;n18 -->
<g id="edge62" class="edge"><title>g5&#45;&#45;n18</title>
<path fill="none" stroke="black" d="M849.641,-655.766C850.251,-622.659 848.589,-548.448 825,-492 819.447,-478.712 810.029,-465.854 801.239,-455.636"/>
<text text-anchor="middle" x="810.313" y="-457.338" font-family="Arial" font-size="10.00">nodes</text>
<text text-anchor="middle" x="845.493" y="-644.167" font-family="Arial" font-size="10.00">graph</text>
</g>
<!-- g5&#45;&#45;e9 -->
<g id="edge44" class="edge"><title>g5&#45;&#45;e9</title>
<path fill="none" stroke="black" d="M845.123,-655.713C835.886,-615.681 811.797,-518.042 791,-492 771.356,-467.401 754.929,-475.224 730,-456 697.085,-430.618 663.78,-395.713 643.76,-373.502"/>
<text text-anchor="middle" x="652.986" y="-374.86" font-family="Arial" font-size="10.00">edges</text>
<text text-anchor="middle" x="838.935" y="-645.358" font-family="Arial" font-size="10.00">graph</text>
</g>
<!-- n19 -->
<g id="node11" class="node"><title>n19</title>
<a xlink:href="../../SDMLib/src/org/sdmlib/examples/helloworld/model/Node.java" xlink:title="&lt;TABLE&gt;">
<polygon fill="none" stroke="black" points="513,-270 513,-287 579,-287 579,-270 513,-270"/>
<text text-anchor="start" x="521.5" y="-276.5" font-family="Arial" font-size="10.00"> </text>
<text text-anchor="start" x="525.5" y="-276.5" font-family="Arial" font-size="10.00">n19 :Node</text>
</a>
<polygon fill="none" stroke="black" points="513,-250 513,-270 579,-270 579,-250 513,-250"/>
<text text-anchor="start" x="518" y="-258" font-family="Arial" font-size="10.00">name = &quot;n2&quot;</text>
</g>
<!-- g5&#45;&#45;n19 -->
<g id="edge60" class="edge"><title>g5&#45;&#45;n19</title>
<path fill="none" stroke="black" d="M813.958,-673.014C770.805,-671.126 697.853,-661.449 654,-620 557.411,-528.707 546.55,-353.197 545.817,-291.829"/>
<text text-anchor="middle" x="550.293" y="-298.271" font-family="Arial" font-size="10.00">nodes</text>
<text text-anchor="middle" x="804.659" y="-674.191" font-family="Arial" font-size="10.00">graph</text>
</g>
<!-- g5&#45;&#45;e8 -->
<g id="edge42" class="edge"><title>g5&#45;&#45;e8</title>
<path fill="none" stroke="black" d="M813.846,-668.423C708.234,-653.699 401,-603.36 401,-516 401,-516 401,-516 401,-350 401,-295.706 435.504,-239.496 457.069,-209.667"/>
<text text-anchor="middle" x="455.326" y="-217.014" font-family="Arial" font-size="10.00">edges</text>
<text text-anchor="middle" x="804.264" y="-668.782" font-family="Arial" font-size="10.00">graph</text>
</g>
<!-- g5&#45;&#45;e13 -->
<g id="edge52" class="edge"><title>g5&#45;&#45;e13</title>
<path fill="none" stroke="black" d="M854.409,-655.529C857.295,-645.289 860.545,-632.039 862,-620 873.085,-528.273 846.976,-419.016 834.352,-373.527"/>
<text text-anchor="middle" x="840.777" y="-378.69" font-family="Arial" font-size="10.00">edges</text>
<text text-anchor="middle" x="852.755" y="-643.167" font-family="Arial" font-size="10.00">graph</text>
</g>
<!-- n20 -->
<g id="node14" class="node"><title>n20</title>
<a xlink:href="../../SDMLib/src/org/sdmlib/examples/helloworld/model/Node.java" xlink:title="&lt;TABLE&gt;">
<polygon fill="none" stroke="black" points="899,-270 899,-287 965,-287 965,-270 899,-270"/>
<text text-anchor="start" x="907.5" y="-276.5" font-family="Arial" font-size="10.00"> </text>
<text text-anchor="start" x="911.5" y="-276.5" font-family="Arial" font-size="10.00">n20 :Node</text>
</a>
<polygon fill="none" stroke="black" points="899,-250 899,-270 965,-270 965,-250 899,-250"/>
<text text-anchor="start" x="904" y="-258" font-family="Arial" font-size="10.00">name = &quot;n5&quot;</text>
</g>
<!-- g5&#45;&#45;n20 -->
<g id="edge66" class="edge"><title>g5&#45;&#45;n20</title>
<path fill="none" stroke="black" d="M884.086,-672.897C961.672,-671.848 1143.95,-664.584 1182,-620 1261.06,-527.365 1192.79,-656.486 987,-374 967.757,-347.586 951.084,-313.564 941.284,-291.763"/>
<text text-anchor="middle" x="948.891" y="-295.755" font-family="Arial" font-size="10.00">nodes</text>
<text text-anchor="middle" x="893.061" y="-665.988" font-family="Arial" font-size="10.00">graph</text>
</g>
<!-- g5&#45;&#45;e6 -->
<g id="edge38" class="edge"><title>g5&#45;&#45;e6</title>
<path fill="none" stroke="black" d="M869.816,-655.928C911.445,-619.729 1001,-530.626 1001,-434 1001,-434 1001,-434 1001,-350 1001,-303.013 1002.06,-288.49 982,-246 975.697,-232.649 965.53,-219.879 956.087,-209.737"/>
<text text-anchor="middle" x="965.32" y="-211.077" font-family="Arial" font-size="10.00">edges</text>
<text text-anchor="middle" x="873.729" y="-644.226" font-family="Arial" font-size="10.00">graph</text>
</g>
<!-- g5&#45;&#45;e12 -->
<g id="edge50" class="edge"><title>g5&#45;&#45;e12</title>
<path fill="none" stroke="black" d="M884.247,-672.652C965.783,-671.114 1164.1,-662.939 1212,-620 1247.56,-588.122 1239,-563.755 1239,-516 1239,-516 1239,-516 1239,-350 1239,-270.016 1141.22,-222.682 1082.4,-201.443"/>
<text text-anchor="middle" x="1092.37" y="-198.241" font-family="Arial" font-size="10.00">edges</text>
<text text-anchor="middle" x="893.203" y="-665.702" font-family="Arial" font-size="10.00">graph</text>
</g>
<!-- n21 -->
<g id="node17" class="node"><title>n21</title>
<a xlink:href="../../SDMLib/src/org/sdmlib/examples/helloworld/model/Node.java" xlink:title="&lt;TABLE&gt;">
<polygon fill="none" stroke="black" points="1006,-106 1006,-123 1072,-123 1072,-106 1006,-106"/>
<text text-anchor="start" x="1014.5" y="-112.5" font-family="Arial" font-size="10.00"> </text>
<text text-anchor="start" x="1018.5" y="-112.5" font-family="Arial" font-size="10.00">n21 :Node</text>
</a>
<polygon fill="none" stroke="black" points="1006,-86 1006,-106 1072,-106 1072,-86 1006,-86"/>
<text text-anchor="start" x="1011" y="-94" font-family="Arial" font-size="10.00">name = &quot;n4&quot;</text>
</g>
<!-- g5&#45;&#45;n21 -->
<g id="edge64" class="edge"><title>g5&#45;&#45;n21</title>
<path fill="none" stroke="black" d="M884.017,-672.738C969.29,-671.41 1184.71,-663.705 1239,-620 1277.33,-589.142 1277,-565.211 1277,-516 1277,-516 1277,-516 1277,-268 1277,-173.907 1148.3,-130.597 1080.18,-114.263"/>
<text text-anchor="middle" x="1090.02" y="-109.952" font-family="Arial" font-size="10.00">nodes</text>
<text text-anchor="middle" x="892.988" y="-665.82" font-family="Arial" font-size="10.00">graph</text>
</g>
<!-- g5&#45;&#45;e11 -->
<g id="edge48" class="edge"><title>g5&#45;&#45;e11</title>
<path fill="none" stroke="black" d="M884.184,-672.894C973.892,-671.96 1208.35,-665.149 1269,-620 1309.54,-589.819 1315,-566.542 1315,-516 1315,-516 1315,-516 1315,-186 1315,-104.365 1039.2,-49.4025 930.394,-30.8948"/>
<text text-anchor="middle" x="940.059" y="-25.8255" font-family="Arial" font-size="10.00">edges</text>
<text text-anchor="middle" x="893.179" y="-666.025" font-family="Arial" font-size="10.00">graph</text>
</g>
<!-- g5&#45;&#45;e7 -->
<g id="edge40" class="edge"><title>g5&#45;&#45;e7</title>
<path fill="none" stroke="black" d="M861.267,-655.774C867.597,-645.83 874.674,-632.79 878,-620 910.661,-494.396 902.956,-455.734 880,-328 872.158,-284.362 851.591,-236.556 838.798,-209.621"/>
<text text-anchor="middle" x="846.459" y="-213.547" font-family="Arial" font-size="10.00">edges</text>
<text text-anchor="middle" x="862.478" y="-643.348" font-family="Arial" font-size="10.00">graph</text>
</g>
<!-- n22 -->
<g id="node20" class="node"><title>n22</title>
<a xlink:href="../../SDMLib/src/org/sdmlib/examples/helloworld/model/Node.java" xlink:title="&lt;TABLE&gt;">
<polygon fill="none" stroke="black" points="999,-598 999,-615 1065,-615 1065,-598 999,-598"/>
<text text-anchor="start" x="1007.5" y="-604.5" font-family="Arial" font-size="10.00"> </text>
<text text-anchor="start" x="1011.5" y="-604.5" font-family="Arial" font-size="10.00">n22 :Node</text>
</a>
<polygon fill="none" stroke="black" points="999,-578 999,-598 1065,-598 1065,-578 999,-578"/>
<text text-anchor="start" x="1004" y="-586" font-family="Arial" font-size="10.00">name = &quot;n6&quot;</text>
</g>
<!-- g5&#45;&#45;n22 -->
<g id="edge68" class="edge"><title>g5&#45;&#45;n22</title>
<path fill="none" stroke="black" d="M884.284,-658.539C914.716,-646.067 958.693,-628.044 990.746,-614.907"/>
<text text-anchor="middle" x="983.962" y="-619.755" font-family="Arial" font-size="10.00">nodes</text>
<text text-anchor="middle" x="891.068" y="-648.692" font-family="Arial" font-size="10.00">graph</text>
</g>
<!-- n23 -->
<g id="node21" class="node"><title>n23</title>
<a xlink:href="../../SDMLib/src/org/sdmlib/examples/helloworld/model/Node.java" xlink:title="&lt;TABLE&gt;">
<polygon fill="none" stroke="black" points="1099,-598 1099,-615 1165,-615 1165,-598 1099,-598"/>
<text text-anchor="start" x="1107.5" y="-604.5" font-family="Arial" font-size="10.00"> </text>
<text text-anchor="start" x="1111.5" y="-604.5" font-family="Arial" font-size="10.00">n23 :Node</text>
</a>
<polygon fill="none" stroke="black" points="1099,-578 1099,-598 1165,-598 1165,-578 1099,-578"/>
<text text-anchor="start" x="1104" y="-586" font-family="Arial" font-size="10.00">name = &quot;n7&quot;</text>
</g>
<!-- g5&#45;&#45;n23 -->
<g id="edge70" class="edge"><title>g5&#45;&#45;n23</title>
<path fill="none" stroke="black" d="M884.306,-667.14C930.452,-658.991 1013.46,-642.644 1082,-620 1084.88,-619.048 1087.82,-617.99 1090.77,-616.868"/>
<text text-anchor="middle" x="1083.79" y="-621.532" font-family="Arial" font-size="10.00">nodes</text>
<text text-anchor="middle" x="892.475" y="-658.871" font-family="Arial" font-size="10.00">graph</text>
</g>
<!-- g5&#45;&#45;n16 -->
<g id="edge72" class="edge"><title>g5&#45;&#45;n16</title>
<path fill="none" stroke="black" d="M813.742,-673.764C722.926,-674.876 474.224,-672.478 276,-620 190.626,-597.398 142.859,-612.223 95,-538 83.9209,-520.818 85.3057,-510 95,-492 105.065,-473.313 124.076,-459.652 141.861,-450.3"/>
<text text-anchor="middle" x="135.941" y="-455.859" font-family="Arial" font-size="10.00">nodes</text>
<text text-anchor="middle" x="804.704" y="-675.542" font-family="Arial" font-size="10.00">graph</text>
</g>
<!-- g5&#45;&#45;e14 -->
<g id="edge54" class="edge"><title>g5&#45;&#45;e14</title>
<path fill="none" stroke="black" d="M813.732,-673.172C669.871,-673.529 132.522,-671.392 79,-620 11.0345,-554.739 48.7154,-425.034 67.4332,-373.671"/>
<text text-anchor="middle" x="68.4816" y="-381.116" font-family="Arial" font-size="10.00">edges</text>
<text text-anchor="middle" x="804.668" y="-674.896" font-family="Arial" font-size="10.00">graph</text>
</g>
<!-- g5&#45;&#45;e15 -->
<g id="edge56" class="edge"><title>g5&#45;&#45;e15</title>
<path fill="none" stroke="black" d="M813.84,-672.486C676.431,-670.203 180.438,-659.284 123,-620 73.9119,-586.427 68.1767,-549.327 84,-492 97.2272,-444.078 135.327,-399.102 160.219,-373.622"/>
<text text-anchor="middle" x="157.026" y="-380.598" font-family="Arial" font-size="10.00">edges</text>
<text text-anchor="middle" x="804.699" y="-674.041" font-family="Arial" font-size="10.00">graph</text>
</g>
<!-- n17&#45;&#45;e10 -->
<g id="edge76" class="edge"><title>n17&#45;&#45;e10</title>
<path fill="none" stroke="black" d="M713.564,-574.14C718.543,-562.759 724.609,-548.893 729.569,-537.557"/>
<text text-anchor="middle" x="729.808" y="-545.054" font-family="Arial" font-size="10.00">outEdges</text>
<text text-anchor="middle" x="713.325" y="-561.643" font-family="Arial" font-size="10.00">src</text>
</g>
<!-- n17&#45;&#45;e8 -->
<g id="edge74" class="edge"><title>n17&#45;&#45;e8</title>
<path fill="none" stroke="black" d="M695.802,-574.294C692.118,-563.538 688.128,-550.258 686,-538 670.022,-445.957 714.327,-413.637 677,-328 647.919,-261.283 567.943,-221.437 517.49,-202.195"/>
<text text-anchor="middle" x="527.475" y="-199.148" font-family="Arial" font-size="10.00">inEdges</text>
<text text-anchor="middle" x="688.902" y="-564.556" font-family="Arial" font-size="10.00">tgt</text>
</g>
<!-- e10&#45;&#45;n18 -->
<g id="edge78" class="edge"><title>e10&#45;&#45;n18</title>
<path fill="none" stroke="black" d="M750.203,-492.14C756.036,-480.759 763.142,-466.893 768.952,-455.557"/>
<text text-anchor="middle" x="768.58" y="-463.05" font-family="Arial" font-size="10.00">tgt</text>
<text text-anchor="middle" x="750.576" y="-479.647" font-family="Arial" font-size="10.00">inEdges</text>
</g>
<!-- n18&#45;&#45;e9 -->
<g id="edge82" class="edge"><title>n18&#45;&#45;e9</title>
<path fill="none" stroke="black" d="M738.87,-410.772C716.628,-399.292 689.216,-385.144 666.862,-373.606"/>
<text text-anchor="middle" x="676.854" y="-371.508" font-family="Arial" font-size="10.00">outEdges</text>
<text text-anchor="middle" x="728.878" y="-407.87" font-family="Arial" font-size="10.00">src</text>
</g>
<!-- n18&#45;&#45;e13 -->
<g id="edge84" class="edge"><title>n18&#45;&#45;e13</title>
<path fill="none" stroke="black" d="M793.116,-410.14C799.945,-398.759 808.264,-384.893 815.066,-373.557"/>
<text text-anchor="middle" x="814.027" y="-381.003" font-family="Arial" font-size="10.00">outEdges</text>
<text text-anchor="middle" x="794.155" y="-397.694" font-family="Arial" font-size="10.00">src</text>
</g>
<!-- n18&#45;&#45;e11 -->
<g id="edge80" class="edge"><title>n18&#45;&#45;e11</title>
<path fill="none" stroke="black" d="M769.901,-410.259C756.634,-379.656 735,-321.812 735,-270 735,-270 735,-270 735,-186 735,-121.401 800.072,-71.9828 845.063,-45.5352"/>
<text text-anchor="middle" x="839.555" y="-51.3819" font-family="Arial" font-size="10.00">inEdges</text>
<text text-anchor="middle" x="762.486" y="-401.05" font-family="Arial" font-size="10.00">tgt</text>
</g>
<!-- e9&#45;&#45;n19 -->
<g id="edge86" class="edge"><title>e9&#45;&#45;n19</title>
<path fill="none" stroke="black" d="M603.413,-328.14C592.175,-316.759 578.482,-302.893 567.287,-291.557"/>
<text text-anchor="middle" x="576.663" y="-292.536" font-family="Arial" font-size="10.00">tgt</text>
<text text-anchor="middle" x="594.038" y="-322.16" font-family="Arial" font-size="10.00">inEdges</text>
</g>
<!-- n19&#45;&#45;e8 -->
<g id="edge88" class="edge"><title>n19&#45;&#45;e8</title>
<path fill="none" stroke="black" d="M526.326,-246.14C516.083,-234.759 503.604,-220.893 493.401,-209.557"/>
<text text-anchor="middle" x="502.605" y="-210.966" font-family="Arial" font-size="10.00">outEdges</text>
<text text-anchor="middle" x="517.122" y="-239.73" font-family="Arial" font-size="10.00">src</text>
</g>
<!-- e13&#45;&#45;n20 -->
<g id="edge90" class="edge"><title>e13&#45;&#45;n20</title>
<path fill="none" stroke="black" d="M856.144,-328.351C870.942,-316.967 889.032,-303.052 903.834,-291.666"/>
<text text-anchor="middle" x="899.227" y="-298.042" font-family="Arial" font-size="10.00">tgt</text>
<text text-anchor="middle" x="860.751" y="-316.975" font-family="Arial" font-size="10.00">inEdges</text>
</g>
<!-- n20&#45;&#45;e6 -->
<g id="edge94" class="edge"><title>n20&#45;&#45;e6</title>
<path fill="none" stroke="black" d="M932.273,-246.14C932.416,-234.759 932.589,-220.893 932.731,-209.557"/>
<text text-anchor="middle" x="936.843" y="-216.172" font-family="Arial" font-size="10.00">outEdges</text>
<text text-anchor="middle" x="928.161" y="-234.524" font-family="Arial" font-size="10.00">src</text>
</g>
<!-- n20&#45;&#45;e12 -->
<g id="edge96" class="edge"><title>n20&#45;&#45;e12</title>
<path fill="none" stroke="black" d="M960.956,-246.351C976.181,-234.967 994.792,-221.052 1010.02,-209.666"/>
<text text-anchor="middle" x="1005.29" y="-215.978" font-family="Arial" font-size="10.00">outEdges</text>
<text text-anchor="middle" x="965.684" y="-235.039" font-family="Arial" font-size="10.00">src</text>
</g>
<!-- n20&#45;&#45;e7 -->
<g id="edge92" class="edge"><title>n20&#45;&#45;e7</title>
<path fill="none" stroke="black" d="M903.856,-246.351C889.058,-234.967 870.968,-221.052 856.166,-209.666"/>
<text text-anchor="middle" x="865.927" y="-209.343" font-family="Arial" font-size="10.00">inEdges</text>
<text text-anchor="middle" x="894.096" y="-241.675" font-family="Arial" font-size="10.00">tgt</text>
</g>
<!-- e12&#45;&#45;n21 -->
<g id="edge98" class="edge"><title>e12&#45;&#45;n21</title>
<path fill="none" stroke="black" d="M1039,-164.14C1039,-152.759 1039,-138.893 1039,-127.557"/>
<text text-anchor="middle" x="1043.23" y="-134.12" font-family="Arial" font-size="10.00">tgt</text>
<text text-anchor="middle" x="1034.77" y="-152.577" font-family="Arial" font-size="10.00">inEdges</text>
</g>
<!-- n21&#45;&#45;e11 -->
<g id="edge100" class="edge"><title>n21&#45;&#45;e11</title>
<path fill="none" stroke="black" d="M997.867,-82.3508C976.15,-70.9211 949.585,-56.9393 927.903,-45.5277"/>
<text text-anchor="middle" x="937.891" y="-43.509" font-family="Arial" font-size="10.00">outEdges</text>
<text text-anchor="middle" x="987.878" y="-79.3696" font-family="Arial" font-size="10.00">src</text>
</g>
<!-- n16&#45;&#45;e14 -->
<g id="edge102" class="edge"><title>n16&#45;&#45;e14</title>
<path fill="none" stroke="black" d="M154.044,-410.351C138.819,-398.967 120.208,-385.052 104.979,-373.666"/>
<text text-anchor="middle" x="114.768" y="-373.209" font-family="Arial" font-size="10.00">inEdges_outEdges</text>
<text text-anchor="middle" x="144.255" y="-405.809" font-family="Arial" font-size="10.00">tgt_src</text>
</g>
<!-- n16&#45;&#45;e15 -->
<g id="edge104" class="edge"><title>n16&#45;&#45;e15</title>
<path fill="none" stroke="black" d="M183,-410.14C183,-398.759 183,-384.893 183,-373.557"/>
<text text-anchor="middle" x="187.226" y="-380.12" font-family="Arial" font-size="10.00">inEdges_outEdges</text>
<text text-anchor="middle" x="178.774" y="-398.577" font-family="Arial" font-size="10.00">tgt_src</text>
</g>
</g>
</svg>
