<?xml version="1.0" encoding="UTF-8" standalone="no"?>
<!DOCTYPE svg PUBLIC "-//W3C//DTD SVG 1.1//EN"
 "http://www.w3.org/Graphics/SVG/1.1/DTD/svg11.dtd">
<!-- Generated by graphviz version 2.28.0 (20110507.0327)
 -->
<!-- Title: ObjectDiagram Pages: 1 -->
<svg width="1451pt" height="971pt"
 viewBox="0.00 0.00 1451.00 971.00" xmlns="http://www.w3.org/2000/svg" xmlns:xlink="http://www.w3.org/1999/xlink">
<g id="graph1" class="graph" transform="scale(1 1) rotate(0) translate(4 967)">
<title>ObjectDiagram</title>
<polygon fill="white" stroke="white" points="-4,5 -4,-967 1448,-967 1448,5 -4,5"/>
<g id="graph2" class="cluster"><title>cluster_n3</title>
<polygon fill="none" stroke="grey" points="487,-648 487,-741 661,-741 661,-648 487,-648"/>
<text text-anchor="start" x="554" y="-721.8" font-family="Times New Roman,serif" font-size="14.00">NAC n3</text>
</g>
<!-- g1 -->
<g id="node1" class="node"><title>g1</title>
<polygon fill="deepskyblue" stroke="deepskyblue" points="773.5,-907.5 773.5,-958.5 836.5,-958.5 836.5,-907.5 773.5,-907.5"/>
<text text-anchor="start" x="803" y="-948.5" font-family="Arial" font-size="10.00">«bound»</text>
<polygon fill="none" stroke="black" points="774,-927 774,-943 837,-943 837,-927 774,-927"/>
<text text-anchor="start" x="777.5" y="-933" font-family="Arial" font-size="10.00"> </text>
<text text-anchor="start" x="781.5" y="-933" font-family="Arial" font-size="10.00"> g1 :GraphPO </text>
<polygon fill="none" stroke="black" points="774,-907 774,-927 837,-927 837,-907 774,-907"/>
<text text-anchor="start" x="802" y="-915" font-family="Arial" font-size="10.00"> &#160;</text>
</g>
<!-- e2 -->
<g id="node2" class="node"><title>e2</title>
<polygon fill="deepskyblue" stroke="deepskyblue" points="345,-753.5 345,-790.5 399,-790.5 399,-753.5 345,-753.5"/>
<polygon fill="none" stroke="black" points="345,-773 345,-790 399,-790 399,-773 345,-773"/>
<text text-anchor="start" x="348.5" y="-779.5" font-family="Arial" font-size="10.00"> </text>
<text text-anchor="start" x="352.5" y="-779.5" font-family="Arial" font-size="10.00"> e2 :EdgePO </text>
<polygon fill="none" stroke="black" points="345,-753 345,-773 399,-773 399,-753 345,-753"/>
<text text-anchor="start" x="368.5" y="-761" font-family="Arial" font-size="10.00"> &#160;</text>
</g>
<!-- g1&#45;&#45;e2 -->
<g id="edge31" class="edge"><title>g1&#45;&#45;e2</title>
<path fill="none" stroke="black" d="M765.426,-917.468C681.5,-886.65 486.829,-815.166 407.055,-785.872"/>
<text text-anchor="middle" x="417.019" y="-782.529" font-family="Arial" font-size="10.00">edges</text>
</g>
<!-- g6 -->
<g id="node7" class="node"><title>g6</title>
<a xlink:href="../../SDMLib/src/org/sdmlib/examples/helloworld/model/Graph.java" xlink:title="&lt;TABLE&gt;">
<polygon fill="none" stroke="black" points="950,-840 950,-857 1004,-857 1004,-840 950,-840"/>
<text text-anchor="start" x="953.5" y="-846.5" font-family="Arial" font-size="10.00"> </text>
<text text-anchor="start" x="957.5" y="-846.5" font-family="Arial" font-size="10.00">g6 :Graph</text>
</a>
</g>
<!-- g1&#45;&#45;g6 -->
<g id="edge3" class="edge"><title>g1&#45;&#45;g6</title>
<path fill="none" stroke="black" stroke-dasharray="1,5" d="M844.46,-913.188C873.818,-899.192 913.529,-880.259 941.811,-866.776"/>
<text text-anchor="middle" x="935.448" y="-871.991" font-family="Arial" font-size="10.00">match</text>
</g>
<!-- allMatches_e2 -->
<g id="node3" class="node"><title>allMatches_e2</title>
<text text-anchor="middle" x="217" y="-676.5" font-family="Arial" font-size="10.00">allMatches</text>
</g>
<!-- e2&#45;&#45;allMatches_e2 -->
<g id="edge5" class="edge"><title>e2&#45;&#45;allMatches_e2</title>
<path fill="none" stroke="black" stroke-dasharray="1,5" d="M336.908,-767.249C314.248,-763.472 285,-755.943 263,-741 246.651,-729.896 233.75,-711.053 225.822,-697.242"/>
</g>
<!-- n4 -->
<g id="node5" class="node"><title>n4</title>
<polygon fill="deepskyblue" stroke="deepskyblue" points="591,-660.5 591,-697.5 645,-697.5 645,-660.5 591,-660.5"/>
<polygon fill="none" stroke="black" points="591,-680 591,-697 645,-697 645,-680 591,-680"/>
<text text-anchor="start" x="594.5" y="-686.5" font-family="Arial" font-size="10.00"> </text>
<text text-anchor="start" x="598.5" y="-686.5" font-family="Arial" font-size="10.00"> n4 :NodePO </text>
<polygon fill="none" stroke="black" points="591,-660 591,-680 645,-680 645,-660 591,-660"/>
<text text-anchor="start" x="614.5" y="-668" font-family="Arial" font-size="10.00"> &#160;</text>
</g>
<!-- e2&#45;&#45;n4 -->
<g id="edge33" class="edge"><title>e2&#45;&#45;n4</title>
<path fill="none" stroke="black" d="M407.213,-769.051C457.456,-765.725 546.666,-757.634 574,-741 589.17,-731.768 600.64,-715.129 608.06,-701.559"/>
<text text-anchor="middle" x="607.28" y="-709.028" font-family="Arial" font-size="10.00">tgt</text>
</g>
<!-- n5 -->
<g id="node6" class="node"><title>n5</title>
<polygon fill="deepskyblue" stroke="deepskyblue" points="503,-660.5 503,-697.5 557,-697.5 557,-660.5 503,-660.5"/>
<polygon fill="none" stroke="black" points="503,-680 503,-697 557,-697 557,-680 503,-680"/>
<text text-anchor="start" x="506.5" y="-686.5" font-family="Arial" font-size="10.00"> </text>
<text text-anchor="start" x="510.5" y="-686.5" font-family="Arial" font-size="10.00"> n5 :NodePO </text>
<polygon fill="none" stroke="black" points="503,-660 503,-680 557,-680 557,-660 503,-660"/>
<text text-anchor="start" x="526.5" y="-668" font-family="Arial" font-size="10.00"> &#160;</text>
</g>
<!-- e2&#45;&#45;n5 -->
<g id="edge35" class="edge"><title>e2&#45;&#45;n5</title>
<path fill="none" stroke="black" d="M407.175,-768.974C432.526,-765.984 466.455,-758.688 491,-741 504.665,-731.152 514.71,-714.901 521.18,-701.648"/>
<text text-anchor="middle" x="520.868" y="-709.143" font-family="Arial" font-size="10.00">src</text>
</g>
<!-- e9 -->
<g id="node9" class="node"><title>e9</title>
<a xlink:href="../../SDMLib/src/org/sdmlib/examples/helloworld/model/Edge.java" xlink:title="&lt;TABLE&gt;">
<polygon fill="none" stroke="black" points="718,-680 718,-697 789,-697 789,-680 718,-680"/>
<text text-anchor="start" x="731.5" y="-686.5" font-family="Arial" font-size="10.00"> </text>
<text text-anchor="start" x="735.5" y="-686.5" font-family="Arial" font-size="10.00">e9 :Edge</text>
</a>
<polygon fill="none" stroke="black" points="718,-660 718,-680 789,-680 789,-660 718,-660"/>
<text text-anchor="start" x="723" y="-668" font-family="Arial" font-size="10.00">name = &quot;e10&quot;</text>
</g>
<!-- e2&#45;&#45;e9 -->
<g id="edge11" class="edge"><title>e2&#45;&#45;e9</title>
<path fill="none" stroke="black" stroke-dasharray="1,5" d="M407.047,-769.6C474.201,-766.559 618.477,-758.198 665,-741 688.888,-732.17 712.41,-715.321 729.118,-701.564"/>
<text text-anchor="middle" x="724.723" y="-708.047" font-family="Arial" font-size="10.00">candidate</text>
</g>
<!-- e10 -->
<g id="node11" class="node"><title>e10</title>
<a xlink:href="../../SDMLib/src/org/sdmlib/examples/helloworld/model/Edge.java" xlink:title="&lt;TABLE&gt;">
<polygon fill="none" stroke="black" points="838,-516 838,-533 909,-533 909,-516 838,-516"/>
<text text-anchor="start" x="849" y="-522.5" font-family="Arial" font-size="10.00"> </text>
<text text-anchor="start" x="853" y="-522.5" font-family="Arial" font-size="10.00">e10 :Edge</text>
</a>
<polygon fill="none" stroke="black" points="838,-496 838,-516 909,-516 909,-496 838,-496"/>
<text text-anchor="start" x="843" y="-504" font-family="Arial" font-size="10.00">name = &quot;e11&quot;</text>
</g>
<!-- e2&#45;&#45;e10 -->
<g id="edge13" class="edge"><title>e2&#45;&#45;e10</title>
<path fill="none" stroke="black" stroke-dasharray="1,5" d="M403.674,-749.31C406.938,-746.643 410.112,-743.849 413,-741 485.088,-669.881 476.91,-618.24 568,-574 570.951,-572.567 745.924,-539.748 829.483,-524.126"/>
<text text-anchor="middle" x="821.352" y="-527.447" font-family="Arial" font-size="10.00">candidate</text>
</g>
<!-- e11 -->
<g id="node13" class="node"><title>e11</title>
<a xlink:href="../../SDMLib/src/org/sdmlib/examples/helloworld/model/Edge.java" xlink:title="&lt;TABLE&gt;">
<polygon fill="none" stroke="black" points="390,-352 390,-369 461,-369 461,-352 390,-352"/>
<text text-anchor="start" x="401" y="-358.5" font-family="Arial" font-size="10.00"> </text>
<text text-anchor="start" x="405" y="-358.5" font-family="Arial" font-size="10.00">e11 :Edge</text>
</a>
<polygon fill="none" stroke="black" points="390,-332 390,-352 461,-352 461,-332 390,-332"/>
<text text-anchor="start" x="395" y="-340" font-family="Arial" font-size="10.00">name = &quot;e12&quot;</text>
</g>
<!-- e2&#45;&#45;e11 -->
<g id="edge15" class="edge"><title>e2&#45;&#45;e11</title>
<path fill="none" stroke="black" stroke-dasharray="1,5" d="M336.614,-770.87C285.87,-769.847 196.294,-764.637 176,-741 149.075,-709.64 161.839,-686.832 176,-648 220.749,-525.291 341.234,-418.178 396.541,-373.795"/>
<text text-anchor="middle" x="392.229" y="-380.318" font-family="Arial" font-size="10.00">candidate</text>
</g>
<!-- e12 -->
<g id="node14" class="node"><title>e12</title>
<a xlink:href="../../SDMLib/src/org/sdmlib/examples/helloworld/model/Edge.java" xlink:title="&lt;TABLE&gt;">
<polygon fill="none" stroke="black" points="837,-352 837,-369 908,-369 908,-352 837,-352"/>
<text text-anchor="start" x="848" y="-358.5" font-family="Arial" font-size="10.00"> </text>
<text text-anchor="start" x="852" y="-358.5" font-family="Arial" font-size="10.00">e12 :Edge</text>
</a>
<polygon fill="none" stroke="black" points="837,-332 837,-352 908,-352 908,-332 837,-332"/>
<text text-anchor="start" x="842" y="-340" font-family="Arial" font-size="10.00">name = &quot;e13&quot;</text>
</g>
<!-- e2&#45;&#45;e12 -->
<g id="edge17" class="edge"><title>e2&#45;&#45;e12</title>
<path fill="none" stroke="black" stroke-dasharray="1,5" d="M366.152,-749.336C356.904,-709.885 343.796,-625.641 384,-574 498.355,-427.112 731.882,-374.238 828.578,-358.135"/>
<text text-anchor="middle" x="820.42" y="-361.418" font-family="Arial" font-size="10.00">candidate</text>
</g>
<!-- e13 -->
<g id="node16" class="node"><title>e13</title>
<a xlink:href="../../SDMLib/src/org/sdmlib/examples/helloworld/model/Edge.java" xlink:title="&lt;TABLE&gt;">
<polygon fill="none" stroke="black" points="590,-188 590,-205 661,-205 661,-188 590,-188"/>
<text text-anchor="start" x="601" y="-194.5" font-family="Arial" font-size="10.00"> </text>
<text text-anchor="start" x="605" y="-194.5" font-family="Arial" font-size="10.00">e13 :Edge</text>
</a>
<polygon fill="none" stroke="black" points="590,-168 590,-188 661,-188 661,-168 590,-168"/>
<text text-anchor="start" x="595" y="-176" font-family="Arial" font-size="10.00">name = &quot;e14&quot;</text>
</g>
<!-- e2&#45;&#45;e13 -->
<g id="edge19" class="edge"><title>e2&#45;&#45;e13</title>
<path fill="none" stroke="black" stroke-dasharray="1,5" d="M356.386,-749.397C355.007,-746.673 353.824,-743.842 353,-741 314.993,-609.956 353,-570.444 353,-434 353,-434 353,-434 353,-350 353,-244.883 504.807,-206.411 581.6,-193.674"/>
<text text-anchor="middle" x="573.456" y="-196.978" font-family="Arial" font-size="10.00">candidate</text>
</g>
<!-- e7 -->
<g id="node18" class="node"><title>e7</title>
<a xlink:href="../../SDMLib/src/org/sdmlib/examples/helloworld/model/Edge.java" xlink:title="&lt;TABLE&gt;">
<polygon fill="none" stroke="black" points="8,-24 8,-41 79,-41 79,-24 8,-24"/>
<text text-anchor="start" x="21.5" y="-30.5" font-family="Arial" font-size="10.00"> </text>
<text text-anchor="start" x="25.5" y="-30.5" font-family="Arial" font-size="10.00">e7 :Edge</text>
</a>
<polygon fill="none" stroke="black" points="8,-4 8,-24 79,-24 79,-4 8,-4"/>
<text text-anchor="start" x="13" y="-12" font-family="Arial" font-size="10.00">name = &quot;e18&quot;</text>
</g>
<!-- e2&#45;&#45;e7 -->
<g id="edge7" class="edge"><title>e2&#45;&#45;e7</title>
<path fill="none" stroke="black" stroke-dasharray="1,5" d="M336.755,-771.733C273.915,-772.281 146.094,-769.714 114,-741 65.39,-697.509 81,-663.226 81,-598 81,-598 81,-598 81,-268 81,-185.043 59.2897,-88.0908 48.689,-45.6954"/>
<text text-anchor="middle" x="54.9404" y="-51.0006" font-family="Arial" font-size="10.00">candidate</text>
</g>
<!-- e14 -->
<g id="node19" class="node"><title>e14</title>
<a xlink:href="../../SDMLib/src/org/sdmlib/examples/helloworld/model/Edge.java" xlink:title="&lt;TABLE&gt;">
<polygon fill="none" stroke="black" points="123,-24 123,-41 194,-41 194,-24 123,-24"/>
<text text-anchor="start" x="134" y="-30.5" font-family="Arial" font-size="10.00"> </text>
<text text-anchor="start" x="138" y="-30.5" font-family="Arial" font-size="10.00">e14 :Edge</text>
</a>
<polygon fill="none" stroke="black" points="123,-4 123,-24 194,-24 194,-4 123,-4"/>
<text text-anchor="start" x="128" y="-12" font-family="Arial" font-size="10.00">name = &quot;e15&quot;</text>
</g>
<!-- e2&#45;&#45;e14 -->
<g id="edge21" class="edge"><title>e2&#45;&#45;e14</title>
<path fill="none" stroke="black" stroke-dasharray="1,5" d="M336.705,-770.671C282.67,-769.429 182.956,-763.989 157,-741 107.771,-697.399 119,-663.761 119,-598 119,-598 119,-598 119,-186 119,-134.507 137.855,-76.3012 149.345,-45.6121"/>
<text text-anchor="middle" x="150.214" y="-53.0743" font-family="Arial" font-size="10.00">candidate</text>
</g>
<!-- e8 -->
<g id="node20" class="node"><title>e8</title>
<a xlink:href="../../SDMLib/src/org/sdmlib/examples/helloworld/model/Edge.java" xlink:title="&lt;TABLE&gt;">
<polygon fill="none" stroke="black" points="270,-24 270,-41 341,-41 341,-24 270,-24"/>
<text text-anchor="start" x="283.5" y="-30.5" font-family="Arial" font-size="10.00"> </text>
<text text-anchor="start" x="287.5" y="-30.5" font-family="Arial" font-size="10.00">e8 :Edge</text>
</a>
<polygon fill="none" stroke="black" points="270,-4 270,-24 341,-24 341,-4 270,-4"/>
<text text-anchor="start" x="275" y="-12" font-family="Arial" font-size="10.00">name = &quot;e19&quot;</text>
</g>
<!-- e2&#45;&#45;e8 -->
<g id="edge9" class="edge"><title>e2&#45;&#45;e8</title>
<path fill="none" stroke="black" stroke-dasharray="1,5" d="M340.322,-749.172C337.652,-746.604 335.155,-743.869 333,-741 292.01,-686.424 277,-666.255 277,-598 277,-598 277,-598 277,-514 277,-332.933 296.293,-114.841 302.849,-45.9517"/>
<text text-anchor="middle" x="306.22" y="-52.8667" font-family="Arial" font-size="10.00">candidate</text>
</g>
<!-- e15 -->
<g id="node24" class="node"><title>e15</title>
<a xlink:href="../../SDMLib/src/org/sdmlib/examples/helloworld/model/Edge.java" xlink:title="&lt;TABLE&gt;">
<polygon fill="none" stroke="black" points="562,-516 562,-533 633,-533 633,-516 562,-516"/>
<text text-anchor="start" x="573" y="-522.5" font-family="Arial" font-size="10.00"> </text>
<text text-anchor="start" x="577" y="-522.5" font-family="Arial" font-size="10.00">e15 :Edge</text>
</a>
<polygon fill="none" stroke="black" points="562,-496 562,-516 633,-516 633,-496 562,-496"/>
<text text-anchor="start" x="567" y="-504" font-family="Arial" font-size="10.00">name = &quot;e16&quot;</text>
</g>
<!-- e2&#45;&#45;e15 -->
<g id="edge23" class="edge"><title>e2&#45;&#45;e15</title>
<path fill="none" stroke="black" stroke-dasharray="1,5" d="M370.218,-749.225C368.195,-709.214 369.867,-623.569 415,-574 433.699,-553.464 505.843,-534.971 553.49,-524.639"/>
<text text-anchor="middle" x="545.566" y="-528.239" font-family="Arial" font-size="10.00">candidate</text>
</g>
<!-- e16 -->
<g id="node25" class="node"><title>e16</title>
<a xlink:href="../../SDMLib/src/org/sdmlib/examples/helloworld/model/Edge.java" xlink:title="&lt;TABLE&gt;">
<polygon fill="none" stroke="black" points="667,-516 667,-533 738,-533 738,-516 667,-516"/>
<text text-anchor="start" x="678" y="-522.5" font-family="Arial" font-size="10.00"> </text>
<text text-anchor="start" x="682" y="-522.5" font-family="Arial" font-size="10.00">e16 :Edge</text>
</a>
<polygon fill="none" stroke="black" points="667,-496 667,-516 738,-516 738,-496 667,-496"/>
<text text-anchor="start" x="672" y="-504" font-family="Arial" font-size="10.00">name = &quot;e17&quot;</text>
</g>
<!-- e2&#45;&#45;e16 -->
<g id="edge25" class="edge"><title>e2&#45;&#45;e16</title>
<path fill="none" stroke="black" stroke-dasharray="1,5" d="M384.014,-749.196C385.407,-746.461 386.768,-743.682 388,-741 421.243,-668.623 391.605,-624.737 453,-574 521.272,-517.58 564.068,-563.118 649,-538 652.153,-537.068 655.373,-536.01 658.592,-534.875"/>
<text text-anchor="middle" x="651.435" y="-539.359" font-family="Arial" font-size="10.00">candidate</text>
</g>
<!-- n17 -->
<g id="node23" class="node"><title>n17</title>
<a xlink:href="../../SDMLib/src/org/sdmlib/examples/helloworld/model/Node.java" xlink:title="&lt;TABLE&gt;">
<polygon fill="none" stroke="black" points="585,-598 585,-615 651,-615 651,-598 585,-598"/>
<text text-anchor="start" x="593.5" y="-604.5" font-family="Arial" font-size="10.00"> </text>
<text text-anchor="start" x="597.5" y="-604.5" font-family="Arial" font-size="10.00">n17 :Node</text>
</a>
<polygon fill="none" stroke="black" points="585,-578 585,-598 651,-598 651,-578 585,-578"/>
<text text-anchor="start" x="590" y="-586" font-family="Arial" font-size="10.00">name = &quot;n8&quot;</text>
</g>
<!-- n4&#45;&#45;n17 -->
<g id="edge27" class="edge"><title>n4&#45;&#45;n17</title>
<path fill="none" stroke="black" stroke-dasharray="1,5" d="M618,-656.14C618,-644.759 618,-630.893 618,-619.557"/>
<text text-anchor="middle" x="622.226" y="-626.12" font-family="Arial" font-size="10.00">match</text>
</g>
<!-- n5&#45;&#45;n17 -->
<g id="edge29" class="edge"><title>n5&#45;&#45;n17</title>
<path fill="none" stroke="black" stroke-dasharray="1,5" d="M554.046,-656.14C566.565,-644.759 581.818,-630.893 594.287,-619.557"/>
<text text-anchor="middle" x="590.424" y="-626.281" font-family="Arial" font-size="10.00">match</text>
</g>
<!-- n18 -->
<g id="node8" class="node"><title>n18</title>
<a xlink:href="../../SDMLib/src/org/sdmlib/examples/helloworld/model/Node.java" xlink:title="&lt;TABLE&gt;">
<polygon fill="none" stroke="black" points="685,-773 685,-790 751,-790 751,-773 685,-773"/>
<text text-anchor="start" x="693.5" y="-779.5" font-family="Arial" font-size="10.00"> </text>
<text text-anchor="start" x="697.5" y="-779.5" font-family="Arial" font-size="10.00">n18 :Node</text>
</a>
<polygon fill="none" stroke="black" points="685,-753 685,-773 751,-773 751,-753 685,-753"/>
<text text-anchor="start" x="690" y="-761" font-family="Arial" font-size="10.00">name = &quot;n1&quot;</text>
</g>
<!-- g6&#45;&#45;n18 -->
<g id="edge57" class="edge"><title>g6&#45;&#45;n18</title>
<path fill="none" stroke="black" d="M941.96,-840.318C901.009,-831.014 831.406,-814.183 773,-795 768.506,-793.524 763.85,-791.868 759.238,-790.144"/>
<text text-anchor="middle" x="769.205" y="-786.841" font-family="Arial" font-size="10.00">nodes</text>
<text text-anchor="middle" x="932.181" y="-839.907" font-family="Arial" font-size="10.00">graph</text>
</g>
<!-- g6&#45;&#45;e9 -->
<g id="edge41" class="edge"><title>g6&#45;&#45;e9</title>
<path fill="none" stroke="black" d="M941.71,-844.724C905.204,-839.663 848.398,-826.909 811,-795 782.082,-770.327 765.994,-727.71 758.448,-701.861"/>
<text text-anchor="middle" x="765.148" y="-706.785" font-family="Arial" font-size="10.00">edges</text>
<text text-anchor="middle" x="932.113" y="-845.033" font-family="Arial" font-size="10.00">graph</text>
</g>
<!-- n19 -->
<g id="node10" class="node"><title>n19</title>
<a xlink:href="../../SDMLib/src/org/sdmlib/examples/helloworld/model/Node.java" xlink:title="&lt;TABLE&gt;">
<polygon fill="none" stroke="black" points="837,-598 837,-615 903,-615 903,-598 837,-598"/>
<text text-anchor="start" x="845.5" y="-604.5" font-family="Arial" font-size="10.00"> </text>
<text text-anchor="start" x="849.5" y="-604.5" font-family="Arial" font-size="10.00">n19 :Node</text>
</a>
<polygon fill="none" stroke="black" points="837,-578 837,-598 903,-598 903,-578 837,-578"/>
<text text-anchor="start" x="842" y="-586" font-family="Arial" font-size="10.00">name = &quot;n2&quot;</text>
</g>
<!-- g6&#45;&#45;n19 -->
<g id="edge59" class="edge"><title>g6&#45;&#45;n19</title>
<path fill="none" stroke="black" d="M955.642,-830.83C945.048,-821.291 932.87,-808.616 925,-795 907.498,-764.717 884.363,-664.383 874.629,-619.743"/>
<text text-anchor="middle" x="880.712" y="-625.18" font-family="Arial" font-size="10.00">nodes</text>
<text text-anchor="middle" x="946.106" y="-825.318" font-family="Arial" font-size="10.00">graph</text>
</g>
<!-- g6&#45;&#45;e10 -->
<g id="edge43" class="edge"><title>g6&#45;&#45;e10</title>
<path fill="none" stroke="black" d="M984.071,-830.927C1001.8,-785.187 1043.12,-657.695 991,-574 974.77,-547.938 943.022,-533.251 916.542,-525.181"/>
<text text-anchor="middle" x="926.467" y="-521.461" font-family="Arial" font-size="10.00">edges</text>
<text text-anchor="middle" x="983.237" y="-818.461" font-family="Arial" font-size="10.00">graph</text>
</g>
<!-- n20 -->
<g id="node12" class="node"><title>n20</title>
<a xlink:href="../../SDMLib/src/org/sdmlib/examples/helloworld/model/Node.java" xlink:title="&lt;TABLE&gt;">
<polygon fill="none" stroke="black" points="839,-434 839,-451 905,-451 905,-434 839,-434"/>
<text text-anchor="start" x="847.5" y="-440.5" font-family="Arial" font-size="10.00"> </text>
<text text-anchor="start" x="851.5" y="-440.5" font-family="Arial" font-size="10.00">n20 :Node</text>
</a>
<polygon fill="none" stroke="black" points="839,-414 839,-434 905,-434 905,-414 839,-414"/>
<text text-anchor="start" x="844" y="-422" font-family="Arial" font-size="10.00">name = &quot;n3&quot;</text>
</g>
<!-- g6&#45;&#45;n20 -->
<g id="edge61" class="edge"><title>g6&#45;&#45;n20</title>
<path fill="none" stroke="black" d="M991.886,-830.793C999.895,-820.854 1009.44,-807.815 1016,-795 1040.45,-747.199 1053,-733.691 1053,-680 1053,-680 1053,-680 1053,-596 1053,-521.356 966.474,-472.488 913.072,-449.435"/>
<text text-anchor="middle" x="923.071" y="-446.843" font-family="Arial" font-size="10.00">nodes</text>
<text text-anchor="middle" x="994.223" y="-818.57" font-family="Arial" font-size="10.00">graph</text>
</g>
<!-- g6&#45;&#45;e11 -->
<g id="edge45" class="edge"><title>g6&#45;&#45;e11</title>
<path fill="none" stroke="black" d="M946.988,-830.944C932.644,-821.693 916.024,-809.24 904,-795 891.882,-780.649 767.657,-504.895 754,-492 670.841,-413.479 536.961,-375.464 468.448,-360.324"/>
<text text-anchor="middle" x="478.236" y="-355.775" font-family="Arial" font-size="10.00">edges</text>
<text text-anchor="middle" x="937.093" y="-826.996" font-family="Arial" font-size="10.00">graph</text>
</g>
<!-- g6&#45;&#45;e12 -->
<g id="edge47" class="edge"><title>g6&#45;&#45;e12</title>
<path fill="none" stroke="black" d="M1012.09,-847.897C1089.67,-846.848 1271.95,-839.584 1310,-795 1323.27,-779.449 1318.28,-767.691 1310,-749 1226.72,-561.115 1005.72,-424.251 913.421,-373.552"/>
<text text-anchor="middle" x="923.389" y="-371.85" font-family="Arial" font-size="10.00">edges</text>
<text text-anchor="middle" x="1021.06" y="-840.988" font-family="Arial" font-size="10.00">graph</text>
</g>
<!-- n21 -->
<g id="node15" class="node"><title>n21</title>
<a xlink:href="../../SDMLib/src/org/sdmlib/examples/helloworld/model/Node.java" xlink:title="&lt;TABLE&gt;">
<polygon fill="none" stroke="black" points="839,-270 839,-287 905,-287 905,-270 839,-270"/>
<text text-anchor="start" x="847.5" y="-276.5" font-family="Arial" font-size="10.00"> </text>
<text text-anchor="start" x="851.5" y="-276.5" font-family="Arial" font-size="10.00">n21 :Node</text>
</a>
<polygon fill="none" stroke="black" points="839,-250 839,-270 905,-270 905,-250 839,-250"/>
<text text-anchor="start" x="844" y="-258" font-family="Arial" font-size="10.00">name = &quot;n4&quot;</text>
</g>
<!-- g6&#45;&#45;n21 -->
<g id="edge63" class="edge"><title>g6&#45;&#45;n21</title>
<path fill="none" stroke="black" d="M1003.42,-830.905C1016.18,-821.562 1030.87,-809.039 1041,-795 1098.87,-714.797 1090.19,-670.143 1067,-574 1037.96,-453.615 937.668,-338.043 893.346,-291.51"/>
<text text-anchor="middle" x="902.612" y="-292.768" font-family="Arial" font-size="10.00">nodes</text>
<text text-anchor="middle" x="1008.15" y="-819.596" font-family="Arial" font-size="10.00">graph</text>
</g>
<!-- g6&#45;&#45;e13 -->
<g id="edge49" class="edge"><title>g6&#45;&#45;e13</title>
<path fill="none" stroke="black" d="M1012.07,-847.217C1091.21,-844.754 1280.5,-834.751 1328,-795 1369.39,-760.362 1367,-733.97 1367,-680 1367,-680 1367,-680 1367,-350 1367,-206.032 827.08,-189.801 668.372,-188.14"/>
<text text-anchor="middle" x="677.51" y="-181.578" font-family="Arial" font-size="10.00">edges</text>
<text text-anchor="middle" x="1020.97" y="-840.16" font-family="Arial" font-size="10.00">graph</text>
</g>
<!-- n22 -->
<g id="node17" class="node"><title>n22</title>
<a xlink:href="../../SDMLib/src/org/sdmlib/examples/helloworld/model/Node.java" xlink:title="&lt;TABLE&gt;">
<polygon fill="none" stroke="black" points="203,-106 203,-123 269,-123 269,-106 203,-106"/>
<text text-anchor="start" x="211.5" y="-112.5" font-family="Arial" font-size="10.00"> </text>
<text text-anchor="start" x="215.5" y="-112.5" font-family="Arial" font-size="10.00">n22 :Node</text>
</a>
<polygon fill="none" stroke="black" points="203,-86 203,-106 269,-106 269,-86 203,-86"/>
<text text-anchor="start" x="208" y="-94" font-family="Arial" font-size="10.00">name = &quot;n5&quot;</text>
</g>
<!-- g6&#45;&#45;n22 -->
<g id="edge65" class="edge"><title>g6&#45;&#45;n22</title>
<path fill="none" stroke="black" d="M1012.04,-847.48C1095.75,-845.568 1304.41,-836.639 1358,-795 1401.6,-761.124 1405,-735.215 1405,-680 1405,-680 1405,-680 1405,-268 1405,-151.66 484.838,-114.239 277.262,-107.278"/>
<text text-anchor="middle" x="286.476" y="-100.891" font-family="Arial" font-size="10.00">nodes</text>
<text text-anchor="middle" x="1020.98" y="-840.499" font-family="Arial" font-size="10.00">graph</text>
</g>
<!-- g6&#45;&#45;e7 -->
<g id="edge37" class="edge"><title>g6&#45;&#45;e7</title>
<path fill="none" stroke="black" d="M941.748,-848.013C782.823,-847.797 137.498,-843.894 63,-795 15.1429,-763.591 5,-737.244 5,-680 5,-680 5,-680 5,-186 5,-134.579 23.3715,-76.3447 34.5666,-45.632"/>
<text text-anchor="middle" x="35.5204" y="-53.0864" font-family="Arial" font-size="10.00">edges</text>
<text text-anchor="middle" x="932.67" y="-849.707" font-family="Arial" font-size="10.00">graph</text>
</g>
<!-- g6&#45;&#45;e14 -->
<g id="edge51" class="edge"><title>g6&#45;&#45;e14</title>
<path fill="none" stroke="black" d="M941.996,-846.728C844.363,-842.839 560.923,-829.223 328,-795 192.861,-775.144 43,-816.59 43,-680 43,-680 43,-680 43,-268 43,-178.32 107.351,-86.2736 139.778,-45.5838"/>
<text text-anchor="middle" x="137.577" y="-52.8385" font-family="Arial" font-size="10.00">edges</text>
<text text-anchor="middle" x="932.762" y="-848.066" font-family="Arial" font-size="10.00">graph</text>
</g>
<!-- g6&#45;&#45;e8 -->
<g id="edge39" class="edge"><title>g6&#45;&#45;e8</title>
<path fill="none" stroke="black" d="M1012.29,-847.759C1101.09,-846.494 1331.01,-838.947 1391,-795 1395.13,-791.976 1443,-681.968 1443,-680 1443,-680 1443,-680 1443,-186 1443,-73.3102 557.072,-33.3619 348.567,-25.5205"/>
<text text-anchor="middle" x="357.797" y="-19.1717" font-family="Arial" font-size="10.00">edges</text>
<text text-anchor="middle" x="1021.27" y="-840.856" font-family="Arial" font-size="10.00">graph</text>
</g>
<!-- n23 -->
<g id="node21" class="node"><title>n23</title>
<a xlink:href="../../SDMLib/src/org/sdmlib/examples/helloworld/model/Node.java" xlink:title="&lt;TABLE&gt;">
<polygon fill="none" stroke="black" points="1127,-773 1127,-790 1193,-790 1193,-773 1127,-773"/>
<text text-anchor="start" x="1135.5" y="-779.5" font-family="Arial" font-size="10.00"> </text>
<text text-anchor="start" x="1139.5" y="-779.5" font-family="Arial" font-size="10.00">n23 :Node</text>
</a>
<polygon fill="none" stroke="black" points="1127,-753 1127,-773 1193,-773 1193,-753 1127,-753"/>
<text text-anchor="start" x="1132" y="-761" font-family="Arial" font-size="10.00">name = &quot;n6&quot;</text>
</g>
<!-- g6&#45;&#45;n23 -->
<g id="edge67" class="edge"><title>g6&#45;&#45;n23</title>
<path fill="none" stroke="black" d="M1012.28,-833.539C1042.72,-821.067 1086.69,-803.044 1118.75,-789.907"/>
<text text-anchor="middle" x="1111.96" y="-794.755" font-family="Arial" font-size="10.00">nodes</text>
<text text-anchor="middle" x="1019.07" y="-823.692" font-family="Arial" font-size="10.00">graph</text>
</g>
<!-- n24 -->
<g id="node22" class="node"><title>n24</title>
<a xlink:href="../../SDMLib/src/org/sdmlib/examples/helloworld/model/Node.java" xlink:title="&lt;TABLE&gt;">
<polygon fill="none" stroke="black" points="1227,-773 1227,-790 1293,-790 1293,-773 1227,-773"/>
<text text-anchor="start" x="1235.5" y="-779.5" font-family="Arial" font-size="10.00"> </text>
<text text-anchor="start" x="1239.5" y="-779.5" font-family="Arial" font-size="10.00">n24 :Node</text>
</a>
<polygon fill="none" stroke="black" points="1227,-753 1227,-773 1293,-773 1293,-753 1227,-753"/>
<text text-anchor="start" x="1232" y="-761" font-family="Arial" font-size="10.00">name = &quot;n7&quot;</text>
</g>
<!-- g6&#45;&#45;n24 -->
<g id="edge69" class="edge"><title>g6&#45;&#45;n24</title>
<path fill="none" stroke="black" d="M1012.31,-842.14C1058.45,-833.991 1141.46,-817.644 1210,-795 1212.88,-794.048 1215.82,-792.99 1218.77,-791.868"/>
<text text-anchor="middle" x="1211.79" y="-796.532" font-family="Arial" font-size="10.00">nodes</text>
<text text-anchor="middle" x="1020.47" y="-833.871" font-family="Arial" font-size="10.00">graph</text>
</g>
<!-- g6&#45;&#45;n17 -->
<g id="edge71" class="edge"><title>g6&#45;&#45;n17</title>
<path fill="none" stroke="black" d="M941.775,-842.036C912.97,-835.369 873.181,-821.775 849,-795 803.292,-744.388 853.93,-695.505 805,-648 765.939,-610.077 701.43,-600.128 659.323,-597.934"/>
<text text-anchor="middle" x="668.655" y="-591.84" font-family="Arial" font-size="10.00">nodes</text>
<text text-anchor="middle" x="931.962" y="-841.461" font-family="Arial" font-size="10.00">graph</text>
</g>
<!-- g6&#45;&#45;e15 -->
<g id="edge53" class="edge"><title>g6&#45;&#45;e15</title>
<path fill="none" stroke="black" d="M975.95,-830.772C972.259,-776.3 957.99,-609.312 920,-574 875.503,-532.639 707.612,-553.979 649,-538 646.163,-537.227 643.276,-536.332 640.391,-535.356"/>
<text text-anchor="middle" x="650.328" y="-531.732" font-family="Arial" font-size="10.00">edges</text>
<text text-anchor="middle" x="971.068" y="-819.545" font-family="Arial" font-size="10.00">graph</text>
</g>
<!-- g6&#45;&#45;e16 -->
<g id="edge55" class="edge"><title>g6&#45;&#45;e16</title>
<path fill="none" stroke="black" d="M978.02,-830.654C980.822,-776.578 986.362,-612.383 953,-574 946.142,-566.11 815.373,-538.799 745.379,-524.65"/>
<text text-anchor="middle" x="755.103" y="-519.816" font-family="Arial" font-size="10.00">edges</text>
<text text-anchor="middle" x="974.212" y="-818.908" font-family="Arial" font-size="10.00">graph</text>
</g>
<!-- n18&#45;&#45;e9 -->
<g id="edge75" class="edge"><title>n18&#45;&#45;e9</title>
<path fill="none" stroke="black" d="M726.295,-749.434C731.833,-735.033 739.092,-716.16 744.644,-701.726"/>
<text text-anchor="middle" x="745.335" y="-709.202" font-family="Arial" font-size="10.00">outEdges</text>
<text text-anchor="middle" x="725.603" y="-736.958" font-family="Arial" font-size="10.00">src</text>
</g>
<!-- n18&#45;&#45;e11 -->
<g id="edge73" class="edge"><title>n18&#45;&#45;e11</title>
<path fill="none" stroke="black" d="M704.359,-749.298C702.813,-746.545 701.321,-743.734 700,-741 680.783,-701.237 697.436,-677.972 665,-648 632.044,-617.548 602.867,-648.244 568,-620 485.222,-552.947 444.043,-424.85 430.354,-373.792"/>
<text text-anchor="middle" x="436.887" y="-378.864" font-family="Arial" font-size="10.00">inEdges</text>
<text text-anchor="middle" x="696.251" y="-740.944" font-family="Arial" font-size="10.00">tgt</text>
</g>
<!-- e9&#45;&#45;n19 -->
<g id="edge77" class="edge"><title>e9&#45;&#45;n19</title>
<path fill="none" stroke="black" d="M784.662,-656.351C801.31,-644.967 821.661,-631.052 838.313,-619.666"/>
<text text-anchor="middle" x="833.217" y="-625.771" font-family="Arial" font-size="10.00">tgt</text>
<text text-anchor="middle" x="789.758" y="-645.247" font-family="Arial" font-size="10.00">inEdges</text>
</g>
<!-- n19&#45;&#45;e10 -->
<g id="edge79" class="edge"><title>n19&#45;&#45;e10</title>
<path fill="none" stroke="black" d="M870.82,-574.14C871.247,-562.759 871.767,-548.893 872.192,-537.557"/>
<text text-anchor="middle" x="876.075" y="-544.272" font-family="Arial" font-size="10.00">outEdges</text>
<text text-anchor="middle" x="866.936" y="-562.425" font-family="Arial" font-size="10.00">src</text>
</g>
<!-- e10&#45;&#45;n20 -->
<g id="edge81" class="edge"><title>e10&#45;&#45;n20</title>
<path fill="none" stroke="black" d="M872.727,-492.14C872.584,-480.759 872.411,-466.893 872.269,-455.557"/>
<text text-anchor="middle" x="876.609" y="-462.066" font-family="Arial" font-size="10.00">tgt</text>
<text text-anchor="middle" x="868.388" y="-480.63" font-family="Arial" font-size="10.00">inEdges</text>
</g>
<!-- n20&#45;&#45;e11 -->
<g id="edge85" class="edge"><title>n20&#45;&#45;e11</title>
<path fill="none" stroke="black" d="M830.999,-414.727C825.682,-412.917 820.257,-411.276 815,-410 670.77,-374.982 627.331,-408.599 483,-374 478.183,-372.845 473.224,-371.395 468.33,-369.793"/>
<text text-anchor="middle" x="478.254" y="-366.064" font-family="Arial" font-size="10.00">outEdges</text>
<text text-anchor="middle" x="821.061" y="-413.342" font-family="Arial" font-size="10.00">src</text>
</g>
<!-- n20&#45;&#45;e12 -->
<g id="edge87" class="edge"><title>n20&#45;&#45;e12</title>
<path fill="none" stroke="black" d="M872,-410.14C872,-398.759 872,-384.893 872,-373.557"/>
<text text-anchor="middle" x="876.226" y="-380.12" font-family="Arial" font-size="10.00">outEdges</text>
<text text-anchor="middle" x="867.774" y="-398.577" font-family="Arial" font-size="10.00">src</text>
</g>
<!-- n20&#45;&#45;e14 -->
<g id="edge83" class="edge"><title>n20&#45;&#45;e14</title>
<path fill="none" stroke="black" d="M830.688,-414.852C685.91,-354.607 208.988,-154.835 186,-128 166.05,-104.711 160.17,-68.5794 158.52,-45.6176"/>
<text text-anchor="middle" x="163.516" y="-51.78" font-family="Arial" font-size="10.00">inEdges</text>
<text text-anchor="middle" x="820.697" y="-412.763" font-family="Arial" font-size="10.00">tgt</text>
</g>
<!-- e12&#45;&#45;n21 -->
<g id="edge89" class="edge"><title>e12&#45;&#45;n21</title>
<path fill="none" stroke="black" d="M872,-328.14C872,-316.759 872,-302.893 872,-291.557"/>
<text text-anchor="middle" x="876.226" y="-298.12" font-family="Arial" font-size="10.00">tgt</text>
<text text-anchor="middle" x="867.774" y="-316.577" font-family="Arial" font-size="10.00">inEdges</text>
</g>
<!-- n21&#45;&#45;e13 -->
<g id="edge91" class="edge"><title>n21&#45;&#45;e13</title>
<path fill="none" stroke="black" d="M830.936,-254.7C786.078,-240.171 714.518,-216.994 668.66,-202.141"/>
<text text-anchor="middle" x="678.585" y="-198.413" font-family="Arial" font-size="10.00">outEdges</text>
<text text-anchor="middle" x="821.011" y="-253.428" font-family="Arial" font-size="10.00">src</text>
</g>
<!-- e13&#45;&#45;n22 -->
<g id="edge93" class="edge"><title>e13&#45;&#45;n22</title>
<path fill="none" stroke="black" d="M581.509,-177.056C505.874,-161.501 351.126,-129.676 277.155,-114.464"/>
<text text-anchor="middle" x="286.884" y="-109.65" font-family="Arial" font-size="10.00">tgt</text>
<text text-anchor="middle" x="571.78" y="-176.87" font-family="Arial" font-size="10.00">inEdges</text>
</g>
<!-- n22&#45;&#45;e7 -->
<g id="edge97" class="edge"><title>n22&#45;&#45;e7</title>
<path fill="none" stroke="black" d="M194.597,-86.838C162.697,-73.6155 118.719,-55.386 86.343,-41.966"/>
<text text-anchor="middle" x="96.3336" y="-39.0323" font-family="Arial" font-size="10.00">outEdges</text>
<text text-anchor="middle" x="184.606" y="-84.7717" font-family="Arial" font-size="10.00">src</text>
</g>
<!-- n22&#45;&#45;e14 -->
<g id="edge99" class="edge"><title>n22&#45;&#45;e14</title>
<path fill="none" stroke="black" d="M214.686,-82.1396C203.59,-70.759 190.071,-56.8929 179.018,-45.5569"/>
<text text-anchor="middle" x="188.371" y="-46.5958" font-family="Arial" font-size="10.00">outEdges</text>
<text text-anchor="middle" x="205.333" y="-76.1008" font-family="Arial" font-size="10.00">src</text>
</g>
<!-- n22&#45;&#45;e8 -->
<g id="edge95" class="edge"><title>n22&#45;&#45;e8</title>
<path fill="none" stroke="black" d="M254.855,-82.1396C264.67,-70.759 276.63,-56.8929 286.407,-45.5569"/>
<text text-anchor="middle" x="283.688" y="-52.6802" font-family="Arial" font-size="10.00">inEdges</text>
<text text-anchor="middle" x="257.574" y="-70.0164" font-family="Arial" font-size="10.00">tgt</text>
</g>
<!-- n17&#45;&#45;e15 -->
<g id="edge101" class="edge"><title>n17&#45;&#45;e15</title>
<path fill="none" stroke="black" d="M612.262,-574.14C609.274,-562.759 605.634,-548.893 602.659,-537.557"/>
<text text-anchor="middle" x="609.047" y="-542.75" font-family="Arial" font-size="10.00">inEdges_outEdges</text>
<text text-anchor="middle" x="605.873" y="-563.947" font-family="Arial" font-size="10.00">tgt_src</text>
</g>
<!-- n17&#45;&#45;e16 -->
<g id="edge103" class="edge"><title>n17&#45;&#45;e16</title>
<path fill="none" stroke="black" d="M640.953,-574.14C652.903,-562.759 667.462,-548.893 679.365,-537.557"/>
<text text-anchor="middle" x="675.717" y="-544.368" font-family="Arial" font-size="10.00">inEdges_outEdges</text>
<text text-anchor="middle" x="644.602" y="-562.329" font-family="Arial" font-size="10.00">tgt_src</text>
</g>
</g>
</svg>
