<?xml version="1.0" encoding="UTF-8" standalone="no"?>
<!DOCTYPE svg PUBLIC "-//W3C//DTD SVG 1.1//EN"
 "http://www.w3.org/Graphics/SVG/1.1/DTD/svg11.dtd">
<!-- Generated by graphviz version 2.26.3 (20100126.1600)
 -->
<!-- Title: ClassDiagram Pages: 1 -->
<svg width="123pt" height="176pt"
 viewBox="0.00 0.00 123.31 176.00" xmlns="http://www.w3.org/2000/svg" xmlns:xlink="http://www.w3.org/1999/xlink">
<g id="graph1" class="graph" transform="scale(1 1) rotate(0) translate(4 172)">
<title>ClassDiagram</title>
<polygon fill="white" stroke="white" points="-4,5 -4,-172 120.313,-172 120.313,5 -4,5"/>
<!-- _Graph -->
<g id="node1" class="node"><title>_Graph</title>
<a xlink:href="../examples/org/sdmlib/examples/helloworld/Graph.java" xlink:title="&lt;TABLE&gt;">
<polygon fill="none" stroke="black" points="22,-146 22,-163 59,-163 59,-146 22,-146"/>
<text text-anchor="start" x="25.5" y="-152.167" font-family="Times Roman,serif" font-size="10.00">Graph</text>
</a>
<polygon fill="none" stroke="black" points="22,-126 22,-146 59,-146 59,-126 22,-126"/>
<text text-anchor="start" x="38.5" y="-133.667" font-family="Times Roman,serif" font-size="10.00"> </text>
<polygon fill="none" stroke="black" points="22,-106 22,-126 59,-126 59,-106 22,-106"/>
<text text-anchor="start" x="38.5" y="-113.667" font-family="Times Roman,serif" font-size="10.00"> </text>
</g>
<!-- _Node -->
<g id="node2" class="node"><title>_Node</title>
<a xlink:href="../examples/org/sdmlib/examples/helloworld/Node.java" xlink:title="&lt;TABLE&gt;">
<polygon fill="none" stroke="black" points="8,-44 8,-61 73,-61 73,-44 8,-44"/>
<text text-anchor="start" x="27.5" y="-50.1667" font-family="Times Roman,serif" font-size="10.00">Node</text>
</a>
<polygon fill="none" stroke="black" points="8,-24 8,-44 73,-44 73,-24 8,-24"/>
<text text-anchor="start" x="13" y="-31.6667" font-family="Times Roman,serif" font-size="10.00">text :String</text>
<polygon fill="none" stroke="black" points="8,-4 8,-24 73,-24 73,-4 8,-4"/>
<text text-anchor="start" x="38.5" y="-11.6667" font-family="Times Roman,serif" font-size="10.00"> </text>
</g>
<!-- _Graph&#45;&gt;_Node -->
<g id="edge2" class="edge"><title>_Graph&#45;&gt;_Node</title>
<path fill="none" stroke="black" d="M40,-102.446C40,-90.669 40,-77.3751 40,-65.5945"/>
<text text-anchor="middle" x="44.2262" y="-71.6575" font-family="Times Roman,serif" font-size="10.00">nodes *</text>
<text text-anchor="middle" x="35.7738" y="-90.383" font-family="Times Roman,serif" font-size="10.00">graph</text>
</g>
<!-- _Node&#45;&gt;_Node -->
<g id="edge4" class="edge"><title>_Node&#45;&gt;_Node</title>
<path fill="none" stroke="black" d="M80.1186,-51.8962C90.3323,-50.6542 98,-44.3555 98,-33 98,-21.6445 90.3323,-15.3458 80.1186,-14.1038"/>
<text text-anchor="middle" x="89.7765" y="-8.51055" font-family="Times Roman,serif" font-size="10.00">linksTo *</text>
<text text-anchor="middle" x="88.3131" y="-43.1647" font-family="Times Roman,serif" font-size="10.00">linksFrom *</text>
</g>
</g>
</svg>
