<?xml version="1.0" encoding="UTF-8" standalone="no"?>
<!DOCTYPE svg PUBLIC "-//W3C//DTD SVG 1.1//EN"
 "http://www.w3.org/Graphics/SVG/1.1/DTD/svg11.dtd">
<!-- Generated by graphviz version 2.28.0 (20110507.0327)
 -->
<!-- Title: ObjectDiagram Pages: 1 -->
<svg width="949pt" height="1298pt"
 viewBox="0.00 0.00 948.93 1298.00" xmlns="http://www.w3.org/2000/svg" xmlns:xlink="http://www.w3.org/1999/xlink">
<g id="graph1" class="graph" transform="scale(1 1) rotate(0) translate(4 1294)">
<title>ObjectDiagram</title>
<polygon fill="white" stroke="white" points="-4,5 -4,-1294 945.934,-1294 945.934,5 -4,5"/>
<!-- g210 -->
<g id="node1" class="node"><title>g210</title>
<a xlink:href="../examples/org/sdmlib/examples/helloworld/Graph.java" xlink:title="&lt;TABLE&gt;">
<polygon fill="none" stroke="black" points="365.934,-1263 365.934,-1280 430.934,-1280 430.934,-1263 365.934,-1263"/>
<text text-anchor="start" x="369.434" y="-1269.5" font-family="Arial" font-size="10.00"> </text>
<text text-anchor="start" x="373.434" y="-1269.5" font-family="Arial" font-size="10.00">g210 :Graph</text>
</a>
</g>
<!-- n211 -->
<g id="node2" class="node"><title>n211</title>
<a xlink:href="../examples/org/sdmlib/examples/helloworld/Node.java" xlink:title="&lt;TABLE&gt;">
<polygon fill="none" stroke="black" points="200.934,-1196 200.934,-1213 266.934,-1213 266.934,-1196 200.934,-1196"/>
<text text-anchor="start" x="206.934" y="-1202.5" font-family="Arial" font-size="10.00"> </text>
<text text-anchor="start" x="210.934" y="-1202.5" font-family="Arial" font-size="10.00">n211 :Node</text>
</a>
<polygon fill="none" stroke="black" points="200.934,-1120 200.934,-1196 266.934,-1196 266.934,-1120 200.934,-1120"/>
<text text-anchor="start" x="205.934" y="-1184" font-family="Arial" font-size="10.00">name = &quot;n1&quot;</text>
<text text-anchor="start" x="205.934" y="-1170" font-family="Arial" font-size="10.00">orig = &quot;&quot;</text>
<text text-anchor="start" x="205.934" y="-1156" font-family="Arial" font-size="10.00">copy = &quot;&quot;</text>
<text text-anchor="start" x="205.934" y="-1142" font-family="Arial" font-size="10.00">text = &quot;&quot;</text>
<text text-anchor="start" x="205.934" y="-1128" font-family="Arial" font-size="10.00">parent = &quot;&quot;</text>
</g>
<!-- g210&#45;&#45;n211 -->
<g id="edge2" class="edge"><title>g210&#45;&#45;n211</title>
<path fill="none" stroke="black" d="M357.596,-1254.7C336.365,-1245.31 310.365,-1232.51 288.934,-1218 284.232,-1214.82 279.522,-1211.25 274.945,-1207.53"/>
<text text-anchor="middle" x="284.651" y="-1207.43" font-family="Arial" font-size="10.00">nodes</text>
<text text-anchor="middle" x="347.597" y="-1252.35" font-family="Arial" font-size="10.00">graph</text>
</g>
<!-- e212 -->
<g id="node3" class="node"><title>e212</title>
<a xlink:href="../examples/org/sdmlib/examples/helloworld/Edge.java" xlink:title="&lt;TABLE&gt;">
<polygon fill="none" stroke="black" points="233.934,-1058 233.934,-1075 304.934,-1075 304.934,-1058 233.934,-1058"/>
<text text-anchor="start" x="242.434" y="-1064.5" font-family="Arial" font-size="10.00"> </text>
<text text-anchor="start" x="246.434" y="-1064.5" font-family="Arial" font-size="10.00">e212 :Edge</text>
</a>
<polygon fill="none" stroke="black" points="233.934,-1010 233.934,-1058 304.934,-1058 304.934,-1010 233.934,-1010"/>
<text text-anchor="start" x="238.934" y="-1046" font-family="Arial" font-size="10.00">name = &quot;e10&quot;</text>
<text text-anchor="start" x="238.934" y="-1032" font-family="Arial" font-size="10.00">text = &quot;&quot;</text>
<text text-anchor="start" x="238.934" y="-1018" font-family="Arial" font-size="10.00">parent = &quot;&quot;</text>
</g>
<!-- g210&#45;&#45;e212 -->
<g id="edge22" class="edge"><title>g210&#45;&#45;e212</title>
<path fill="none" stroke="black" d="M367.191,-1253.99C353.209,-1244.91 337.473,-1232.59 326.934,-1218 310.757,-1195.61 289.867,-1123.65 278.082,-1079.59"/>
<text text-anchor="middle" x="284.535" y="-1084.73" font-family="Arial" font-size="10.00">edges</text>
<text text-anchor="middle" x="357.304" y="-1249.99" font-family="Arial" font-size="10.00">graph</text>
</g>
<!-- n213 -->
<g id="node4" class="node"><title>n213</title>
<a xlink:href="../examples/org/sdmlib/examples/helloworld/Node.java" xlink:title="&lt;TABLE&gt;">
<polygon fill="none" stroke="black" points="314.934,-948 314.934,-965 380.934,-965 380.934,-948 314.934,-948"/>
<text text-anchor="start" x="320.934" y="-954.5" font-family="Arial" font-size="10.00"> </text>
<text text-anchor="start" x="324.934" y="-954.5" font-family="Arial" font-size="10.00">n213 :Node</text>
</a>
<polygon fill="none" stroke="black" points="314.934,-872 314.934,-948 380.934,-948 380.934,-872 314.934,-872"/>
<text text-anchor="start" x="319.934" y="-936" font-family="Arial" font-size="10.00">name = &quot;n2&quot;</text>
<text text-anchor="start" x="319.934" y="-922" font-family="Arial" font-size="10.00">orig = &quot;&quot;</text>
<text text-anchor="start" x="319.934" y="-908" font-family="Arial" font-size="10.00">copy = &quot;&quot;</text>
<text text-anchor="start" x="319.934" y="-894" font-family="Arial" font-size="10.00">text = &quot;&quot;</text>
<text text-anchor="start" x="319.934" y="-880" font-family="Arial" font-size="10.00">parent = &quot;&quot;</text>
</g>
<!-- g210&#45;&#45;n213 -->
<g id="edge4" class="edge"><title>g210&#45;&#45;n213</title>
<path fill="none" stroke="black" d="M395.454,-1253.59C388.124,-1202.14 366.36,-1049.35 355.006,-969.644"/>
<text text-anchor="middle" x="360.468" y="-975.52" font-family="Arial" font-size="10.00">nodes</text>
<text text-anchor="middle" x="389.992" y="-1242.72" font-family="Arial" font-size="10.00">graph</text>
</g>
<!-- e214 -->
<g id="node5" class="node"><title>e214</title>
<a xlink:href="../examples/org/sdmlib/examples/helloworld/Edge.java" xlink:title="&lt;TABLE&gt;">
<polygon fill="none" stroke="black" points="325.934,-810 325.934,-827 396.934,-827 396.934,-810 325.934,-810"/>
<text text-anchor="start" x="334.434" y="-816.5" font-family="Arial" font-size="10.00"> </text>
<text text-anchor="start" x="338.434" y="-816.5" font-family="Arial" font-size="10.00">e214 :Edge</text>
</a>
<polygon fill="none" stroke="black" points="325.934,-762 325.934,-810 396.934,-810 396.934,-762 325.934,-762"/>
<text text-anchor="start" x="330.934" y="-798" font-family="Arial" font-size="10.00">name = &quot;e11&quot;</text>
<text text-anchor="start" x="330.934" y="-784" font-family="Arial" font-size="10.00">text = &quot;&quot;</text>
<text text-anchor="start" x="330.934" y="-770" font-family="Arial" font-size="10.00">parent = &quot;&quot;</text>
</g>
<!-- g210&#45;&#45;e214 -->
<g id="edge24" class="edge"><title>g210&#45;&#45;e214</title>
<path fill="none" stroke="black" d="M400.777,-1253.77C409.485,-1197.36 433.138,-1013.53 397.934,-868 394.927,-855.569 389.382,-842.878 383.484,-831.683"/>
<text text-anchor="middle" x="391.398" y="-835.297" font-family="Arial" font-size="10.00">edges</text>
<text text-anchor="middle" x="397.896" y="-1241.69" font-family="Arial" font-size="10.00">graph</text>
</g>
<!-- n215 -->
<g id="node6" class="node"><title>n215</title>
<a xlink:href="../examples/org/sdmlib/examples/helloworld/Node.java" xlink:title="&lt;TABLE&gt;">
<polygon fill="none" stroke="black" points="327.934,-700 327.934,-717 393.934,-717 393.934,-700 327.934,-700"/>
<text text-anchor="start" x="333.934" y="-706.5" font-family="Arial" font-size="10.00"> </text>
<text text-anchor="start" x="337.934" y="-706.5" font-family="Arial" font-size="10.00">n215 :Node</text>
</a>
<polygon fill="none" stroke="black" points="327.934,-624 327.934,-700 393.934,-700 393.934,-624 327.934,-624"/>
<text text-anchor="start" x="332.934" y="-688" font-family="Arial" font-size="10.00">name = &quot;n3&quot;</text>
<text text-anchor="start" x="332.934" y="-674" font-family="Arial" font-size="10.00">orig = &quot;&quot;</text>
<text text-anchor="start" x="332.934" y="-660" font-family="Arial" font-size="10.00">copy = &quot;&quot;</text>
<text text-anchor="start" x="332.934" y="-646" font-family="Arial" font-size="10.00">text = &quot;&quot;</text>
<text text-anchor="start" x="332.934" y="-632" font-family="Arial" font-size="10.00">parent = &quot;&quot;</text>
</g>
<!-- g210&#45;&#45;n215 -->
<g id="edge6" class="edge"><title>g210&#45;&#45;n215</title>
<path fill="none" stroke="black" d="M408.306,-1253.91C414.014,-1243.79 420.764,-1230.54 424.934,-1218 449.69,-1143.53 454.934,-1122.47 454.934,-1044 454.934,-1044 454.934,-1044 454.934,-918 454.934,-844.48 441.582,-825.709 412.934,-758 407.767,-745.788 401.085,-733.247 394.242,-721.649"/>
<text text-anchor="middle" x="402.461" y="-724.846" font-family="Arial" font-size="10.00">nodes</text>
<text text-anchor="middle" x="409.023" y="-1241.43" font-family="Arial" font-size="10.00">graph</text>
</g>
<!-- e216 -->
<g id="node7" class="node"><title>e216</title>
<a xlink:href="../examples/org/sdmlib/examples/helloworld/Edge.java" xlink:title="&lt;TABLE&gt;">
<polygon fill="none" stroke="black" points="157.934,-562 157.934,-579 228.934,-579 228.934,-562 157.934,-562"/>
<text text-anchor="start" x="166.434" y="-568.5" font-family="Arial" font-size="10.00"> </text>
<text text-anchor="start" x="170.434" y="-568.5" font-family="Arial" font-size="10.00">e216 :Edge</text>
</a>
<polygon fill="none" stroke="black" points="157.934,-514 157.934,-562 228.934,-562 228.934,-514 157.934,-514"/>
<text text-anchor="start" x="162.934" y="-550" font-family="Arial" font-size="10.00">name = &quot;e12&quot;</text>
<text text-anchor="start" x="162.934" y="-536" font-family="Arial" font-size="10.00">text = &quot;&quot;</text>
<text text-anchor="start" x="162.934" y="-522" font-family="Arial" font-size="10.00">parent = &quot;&quot;</text>
</g>
<!-- g210&#45;&#45;e216 -->
<g id="edge26" class="edge"><title>g210&#45;&#45;e216</title>
<path fill="none" stroke="black" d="M357.272,-1266.33C301.852,-1259.11 206.851,-1243.33 183.934,-1218 131.522,-1160.06 158.934,-1122.13 158.934,-1044 158.934,-1044 158.934,-1044 158.934,-794 158.934,-718.55 174.822,-631.298 184.876,-583.638"/>
<text text-anchor="middle" x="187.193" y="-590.866" font-family="Arial" font-size="10.00">edges</text>
<text text-anchor="middle" x="347.719" y="-1266.79" font-family="Arial" font-size="10.00">graph</text>
</g>
<!-- e217 -->
<g id="node8" class="node"><title>e217</title>
<a xlink:href="../examples/org/sdmlib/examples/helloworld/Edge.java" xlink:title="&lt;TABLE&gt;">
<polygon fill="none" stroke="black" points="262.934,-562 262.934,-579 333.934,-579 333.934,-562 262.934,-562"/>
<text text-anchor="start" x="271.434" y="-568.5" font-family="Arial" font-size="10.00"> </text>
<text text-anchor="start" x="275.434" y="-568.5" font-family="Arial" font-size="10.00">e217 :Edge</text>
</a>
<polygon fill="none" stroke="black" points="262.934,-514 262.934,-562 333.934,-562 333.934,-514 262.934,-514"/>
<text text-anchor="start" x="267.934" y="-550" font-family="Arial" font-size="10.00">name = &quot;e13&quot;</text>
<text text-anchor="start" x="267.934" y="-536" font-family="Arial" font-size="10.00">text = &quot;&quot;</text>
<text text-anchor="start" x="267.934" y="-522" font-family="Arial" font-size="10.00">parent = &quot;&quot;</text>
</g>
<!-- g210&#45;&#45;e217 -->
<g id="edge28" class="edge"><title>g210&#45;&#45;e217</title>
<path fill="none" stroke="black" d="M388.697,-1253.71C383.535,-1243.52 377.285,-1230.27 372.934,-1218 340.522,-1126.56 359.118,-1095.18 320.934,-1006 313.461,-988.546 303.259,-988.225 297.934,-970 257.611,-831.99 279.111,-657.577 291.344,-583.68"/>
<text text-anchor="middle" x="294.134" y="-590.783" font-family="Arial" font-size="10.00">edges</text>
<text text-anchor="middle" x="380.852" y="-1245" font-family="Arial" font-size="10.00">graph</text>
</g>
<!-- n218 -->
<g id="node9" class="node"><title>n218</title>
<a xlink:href="../examples/org/sdmlib/examples/helloworld/Node.java" xlink:title="&lt;TABLE&gt;">
<polygon fill="none" stroke="black" points="118.934,-452 118.934,-469 184.934,-469 184.934,-452 118.934,-452"/>
<text text-anchor="start" x="124.934" y="-458.5" font-family="Arial" font-size="10.00"> </text>
<text text-anchor="start" x="128.934" y="-458.5" font-family="Arial" font-size="10.00">n218 :Node</text>
</a>
<polygon fill="none" stroke="black" points="118.934,-376 118.934,-452 184.934,-452 184.934,-376 118.934,-376"/>
<text text-anchor="start" x="123.934" y="-440" font-family="Arial" font-size="10.00">name = &quot;n4&quot;</text>
<text text-anchor="start" x="123.934" y="-426" font-family="Arial" font-size="10.00">orig = &quot;&quot;</text>
<text text-anchor="start" x="123.934" y="-412" font-family="Arial" font-size="10.00">copy = &quot;&quot;</text>
<text text-anchor="start" x="123.934" y="-398" font-family="Arial" font-size="10.00">text = &quot;&quot;</text>
<text text-anchor="start" x="123.934" y="-384" font-family="Arial" font-size="10.00">parent = &quot;&quot;</text>
</g>
<!-- g210&#45;&#45;n218 -->
<g id="edge8" class="edge"><title>g210&#45;&#45;n218</title>
<path fill="none" stroke="black" d="M357.677,-1267.93C294.459,-1262.25 176.183,-1247.85 147.934,-1218 94.138,-1161.16 120.934,-1122.26 120.934,-1044 120.934,-1044 120.934,-1044 120.934,-670 120.934,-601.557 132.892,-523.236 141.955,-473.711"/>
<text text-anchor="middle" x="144.528" y="-480.874" font-family="Arial" font-size="10.00">nodes</text>
<text text-anchor="middle" x="348.25" y="-1268.77" font-family="Arial" font-size="10.00">graph</text>
</g>
<!-- e219 -->
<g id="node10" class="node"><title>e219</title>
<a xlink:href="../examples/org/sdmlib/examples/helloworld/Edge.java" xlink:title="&lt;TABLE&gt;">
<polygon fill="none" stroke="black" points="99.9339,-314 99.9339,-331 170.934,-331 170.934,-314 99.9339,-314"/>
<text text-anchor="start" x="108.434" y="-320.5" font-family="Arial" font-size="10.00"> </text>
<text text-anchor="start" x="112.434" y="-320.5" font-family="Arial" font-size="10.00">e219 :Edge</text>
</a>
<polygon fill="none" stroke="black" points="99.9339,-266 99.9339,-314 170.934,-314 170.934,-266 99.9339,-266"/>
<text text-anchor="start" x="104.934" y="-302" font-family="Arial" font-size="10.00">name = &quot;e14&quot;</text>
<text text-anchor="start" x="104.934" y="-288" font-family="Arial" font-size="10.00">text = &quot;&quot;</text>
<text text-anchor="start" x="104.934" y="-274" font-family="Arial" font-size="10.00">parent = &quot;&quot;</text>
</g>
<!-- g210&#45;&#45;e219 -->
<g id="edge30" class="edge"><title>g210&#45;&#45;e219</title>
<path fill="none" stroke="black" d="M357.529,-1269.13C286.746,-1264.98 144.62,-1252.47 110.934,-1218 56.1898,-1161.98 82.9339,-1122.33 82.9339,-1044 82.9339,-1044 82.9339,-1044 82.9339,-546 82.9339,-468.207 81.2393,-446.99 101.934,-372 105.299,-359.805 110.508,-347.077 115.8,-335.773"/>
<text text-anchor="middle" x="115.84" y="-343.273" font-family="Arial" font-size="10.00">edges</text>
<text text-anchor="middle" x="348.211" y="-1270.26" font-family="Arial" font-size="10.00">graph</text>
</g>
<!-- n220 -->
<g id="node11" class="node"><title>n220</title>
<a xlink:href="../examples/org/sdmlib/examples/helloworld/Node.java" xlink:title="&lt;TABLE&gt;">
<polygon fill="none" stroke="black" points="101.934,-204 101.934,-221 167.934,-221 167.934,-204 101.934,-204"/>
<text text-anchor="start" x="107.934" y="-210.5" font-family="Arial" font-size="10.00"> </text>
<text text-anchor="start" x="111.934" y="-210.5" font-family="Arial" font-size="10.00">n220 :Node</text>
</a>
<polygon fill="none" stroke="black" points="101.934,-128 101.934,-204 167.934,-204 167.934,-128 101.934,-128"/>
<text text-anchor="start" x="106.934" y="-192" font-family="Arial" font-size="10.00">name = &quot;n5&quot;</text>
<text text-anchor="start" x="106.934" y="-178" font-family="Arial" font-size="10.00">orig = &quot;&quot;</text>
<text text-anchor="start" x="106.934" y="-164" font-family="Arial" font-size="10.00">copy = &quot;&quot;</text>
<text text-anchor="start" x="106.934" y="-150" font-family="Arial" font-size="10.00">text = &quot;&quot;</text>
<text text-anchor="start" x="106.934" y="-136" font-family="Arial" font-size="10.00">parent = &quot;&quot;</text>
</g>
<!-- g210&#45;&#45;n220 -->
<g id="edge10" class="edge"><title>g210&#45;&#45;n220</title>
<path fill="none" stroke="black" d="M357.475,-1270.11C279.407,-1267.5 112.205,-1257.35 72.9339,-1218 17.6057,-1162.56 44.9339,-1122.33 44.9339,-1044 44.9339,-1044 44.9339,-1044 44.9339,-422 44.9339,-349.012 54.1997,-329.513 81.9339,-262 86.9321,-249.833 93.5506,-237.414 100.411,-225.934"/>
<text text-anchor="middle" x="99.442" y="-233.387" font-family="Arial" font-size="10.00">nodes</text>
<text text-anchor="middle" x="348.252" y="-1271.47" font-family="Arial" font-size="10.00">graph</text>
</g>
<!-- e221 -->
<g id="node12" class="node"><title>e221</title>
<a xlink:href="../examples/org/sdmlib/examples/helloworld/Edge.java" xlink:title="&lt;TABLE&gt;">
<polygon fill="none" stroke="black" points="27.9339,-66 27.9339,-83 98.9339,-83 98.9339,-66 27.9339,-66"/>
<text text-anchor="start" x="36.4339" y="-72.5" font-family="Arial" font-size="10.00"> </text>
<text text-anchor="start" x="40.4339" y="-72.5" font-family="Arial" font-size="10.00">e221 :Edge</text>
</a>
<polygon fill="none" stroke="black" points="27.9339,-4 27.9339,-66 98.9339,-66 98.9339,-4 27.9339,-4"/>
<text text-anchor="start" x="32.9339" y="-54" font-family="Arial" font-size="10.00">tgt = &quot;&quot;</text>
<text text-anchor="start" x="32.9339" y="-40" font-family="Arial" font-size="10.00">name = &quot;e18&quot;</text>
<text text-anchor="start" x="32.9339" y="-26" font-family="Arial" font-size="10.00">text = &quot;&quot;</text>
<text text-anchor="start" x="32.9339" y="-12" font-family="Arial" font-size="10.00">parent = &quot;&quot;</text>
</g>
<!-- g210&#45;&#45;e221 -->
<g id="edge18" class="edge"><title>g210&#45;&#45;e221</title>
<path fill="none" stroke="black" d="M357.393,-1270.89C272.432,-1269.76 79.8421,-1262.26 34.9339,-1218 -20.8546,-1163.02 6.93389,-1122.33 6.93389,-1044 6.93389,-1044 6.93389,-1044 6.93389,-298 6.93389,-222.647 30.9077,-137.59 47.4834,-87.7867"/>
<text text-anchor="middle" x="48.7136" y="-95.2108" font-family="Arial" font-size="10.00">edges</text>
<text text-anchor="middle" x="348.249" y="-1272.43" font-family="Arial" font-size="10.00">graph</text>
</g>
<!-- e222 -->
<g id="node13" class="node"><title>e222</title>
<a xlink:href="../examples/org/sdmlib/examples/helloworld/Edge.java" xlink:title="&lt;TABLE&gt;">
<polygon fill="none" stroke="black" points="334.934,-59 334.934,-76 405.934,-76 405.934,-59 334.934,-59"/>
<text text-anchor="start" x="343.434" y="-65.5" font-family="Arial" font-size="10.00"> </text>
<text text-anchor="start" x="347.434" y="-65.5" font-family="Arial" font-size="10.00">e222 :Edge</text>
</a>
<polygon fill="none" stroke="black" points="334.934,-11 334.934,-59 405.934,-59 405.934,-11 334.934,-11"/>
<text text-anchor="start" x="339.934" y="-47" font-family="Arial" font-size="10.00">name = &quot;e15&quot;</text>
<text text-anchor="start" x="339.934" y="-33" font-family="Arial" font-size="10.00">text = &quot;&quot;</text>
<text text-anchor="start" x="339.934" y="-19" font-family="Arial" font-size="10.00">parent = &quot;&quot;</text>
</g>
<!-- g210&#45;&#45;e222 -->
<g id="edge32" class="edge"><title>g210&#45;&#45;e222</title>
<path fill="none" stroke="black" d="M421.095,-1253.98C432.313,-1244.57 445.032,-1231.96 452.934,-1218 492.012,-1148.94 492.934,-1123.35 492.934,-1044 492.934,-1044 492.934,-1044 492.934,-298 492.934,-213.508 436.762,-127.672 400.338,-80.8945"/>
<text text-anchor="middle" x="409.171" y="-83.0831" font-family="Arial" font-size="10.00">edges</text>
<text text-anchor="middle" x="425.227" y="-1242.37" font-family="Arial" font-size="10.00">graph</text>
</g>
<!-- e223 -->
<g id="node14" class="node"><title>e223</title>
<a xlink:href="../examples/org/sdmlib/examples/helloworld/Edge.java" xlink:title="&lt;TABLE&gt;">
<polygon fill="none" stroke="black" points="467.934,-66 467.934,-83 538.934,-83 538.934,-66 467.934,-66"/>
<text text-anchor="start" x="476.434" y="-72.5" font-family="Arial" font-size="10.00"> </text>
<text text-anchor="start" x="480.434" y="-72.5" font-family="Arial" font-size="10.00">e223 :Edge</text>
</a>
<polygon fill="none" stroke="black" points="467.934,-4 467.934,-66 538.934,-66 538.934,-4 467.934,-4"/>
<text text-anchor="start" x="472.934" y="-54" font-family="Arial" font-size="10.00">src = &quot;&quot;</text>
<text text-anchor="start" x="472.934" y="-40" font-family="Arial" font-size="10.00">name = &quot;e19&quot;</text>
<text text-anchor="start" x="472.934" y="-26" font-family="Arial" font-size="10.00">text = &quot;&quot;</text>
<text text-anchor="start" x="472.934" y="-12" font-family="Arial" font-size="10.00">parent = &quot;&quot;</text>
</g>
<!-- g210&#45;&#45;e223 -->
<g id="edge20" class="edge"><title>g210&#45;&#45;e223</title>
<path fill="none" stroke="black" d="M438.353,-1254.98C455.326,-1246.37 473.884,-1234.15 485.934,-1218 533.694,-1153.97 530.934,-1123.88 530.934,-1044 530.934,-1044 530.934,-1044 530.934,-298 530.934,-223.758 518.875,-138 510.585,-87.8151"/>
<text text-anchor="middle" x="516.196" y="-93.5925" font-family="Arial" font-size="10.00">edges</text>
<text text-anchor="middle" x="444.416" y="-1244.53" font-family="Arial" font-size="10.00">graph</text>
</g>
<!-- n224 -->
<g id="node15" class="node"><title>n224</title>
<a xlink:href="../examples/org/sdmlib/examples/helloworld/Node.java" xlink:title="&lt;TABLE&gt;">
<polygon fill="none" stroke="black" points="566.934,-1196 566.934,-1213 632.934,-1213 632.934,-1196 566.934,-1196"/>
<text text-anchor="start" x="572.934" y="-1202.5" font-family="Arial" font-size="10.00"> </text>
<text text-anchor="start" x="576.934" y="-1202.5" font-family="Arial" font-size="10.00">n224 :Node</text>
</a>
<polygon fill="none" stroke="black" points="566.934,-1120 566.934,-1196 632.934,-1196 632.934,-1120 566.934,-1120"/>
<text text-anchor="start" x="571.934" y="-1184" font-family="Arial" font-size="10.00">name = &quot;n6&quot;</text>
<text text-anchor="start" x="571.934" y="-1170" font-family="Arial" font-size="10.00">orig = &quot;&quot;</text>
<text text-anchor="start" x="571.934" y="-1156" font-family="Arial" font-size="10.00">copy = &quot;&quot;</text>
<text text-anchor="start" x="571.934" y="-1142" font-family="Arial" font-size="10.00">text = &quot;&quot;</text>
<text text-anchor="start" x="571.934" y="-1128" font-family="Arial" font-size="10.00">parent = &quot;&quot;</text>
</g>
<!-- g210&#45;&#45;n224 -->
<g id="edge12" class="edge"><title>g210&#45;&#45;n224</title>
<path fill="none" stroke="black" d="M438.188,-1261.1C468.843,-1252.5 511.349,-1238.22 544.934,-1218 549.577,-1215.2 554.177,-1211.98 558.624,-1208.54"/>
<text text-anchor="middle" x="553.995" y="-1214.91" font-family="Arial" font-size="10.00">nodes</text>
<text text-anchor="middle" x="445.723" y="-1252.03" font-family="Arial" font-size="10.00">graph</text>
</g>
<!-- n225 -->
<g id="node16" class="node"><title>n225</title>
<a xlink:href="../examples/org/sdmlib/examples/helloworld/Node.java" xlink:title="&lt;TABLE&gt;">
<polygon fill="none" stroke="black" points="666.934,-1196 666.934,-1213 732.934,-1213 732.934,-1196 666.934,-1196"/>
<text text-anchor="start" x="672.934" y="-1202.5" font-family="Arial" font-size="10.00"> </text>
<text text-anchor="start" x="676.934" y="-1202.5" font-family="Arial" font-size="10.00">n225 :Node</text>
</a>
<polygon fill="none" stroke="black" points="666.934,-1120 666.934,-1196 732.934,-1196 732.934,-1120 666.934,-1120"/>
<text text-anchor="start" x="671.934" y="-1184" font-family="Arial" font-size="10.00">name = &quot;n7&quot;</text>
<text text-anchor="start" x="671.934" y="-1170" font-family="Arial" font-size="10.00">orig = &quot;&quot;</text>
<text text-anchor="start" x="671.934" y="-1156" font-family="Arial" font-size="10.00">copy = &quot;&quot;</text>
<text text-anchor="start" x="671.934" y="-1142" font-family="Arial" font-size="10.00">text = &quot;&quot;</text>
<text text-anchor="start" x="671.934" y="-1128" font-family="Arial" font-size="10.00">parent = &quot;&quot;</text>
</g>
<!-- g210&#45;&#45;n225 -->
<g id="edge14" class="edge"><title>g210&#45;&#45;n225</title>
<path fill="none" stroke="black" d="M438.329,-1269.54C490.223,-1266.15 581.727,-1254.94 649.934,-1218 652.956,-1216.36 655.916,-1214.49 658.79,-1212.44"/>
<text text-anchor="middle" x="653.809" y="-1218.61" font-family="Arial" font-size="10.00">nodes</text>
<text text-anchor="middle" x="447.046" y="-1262.14" font-family="Arial" font-size="10.00">graph</text>
</g>
<!-- n226 -->
<g id="node17" class="node"><title>n226</title>
<a xlink:href="../examples/org/sdmlib/examples/helloworld/Node.java" xlink:title="&lt;TABLE&gt;">
<polygon fill="none" stroke="black" points="804.934,-1196 804.934,-1213 870.934,-1213 870.934,-1196 804.934,-1196"/>
<text text-anchor="start" x="810.934" y="-1202.5" font-family="Arial" font-size="10.00"> </text>
<text text-anchor="start" x="814.934" y="-1202.5" font-family="Arial" font-size="10.00">n226 :Node</text>
</a>
<polygon fill="none" stroke="black" points="804.934,-1120 804.934,-1196 870.934,-1196 870.934,-1120 804.934,-1120"/>
<text text-anchor="start" x="809.934" y="-1184" font-family="Arial" font-size="10.00">name = &quot;n8&quot;</text>
<text text-anchor="start" x="809.934" y="-1170" font-family="Arial" font-size="10.00">orig = &quot;&quot;</text>
<text text-anchor="start" x="809.934" y="-1156" font-family="Arial" font-size="10.00">copy = &quot;&quot;</text>
<text text-anchor="start" x="809.934" y="-1142" font-family="Arial" font-size="10.00">text = &quot;&quot;</text>
<text text-anchor="start" x="809.934" y="-1128" font-family="Arial" font-size="10.00">parent = &quot;&quot;</text>
</g>
<!-- g210&#45;&#45;n226 -->
<g id="edge16" class="edge"><title>g210&#45;&#45;n226</title>
<path fill="none" stroke="black" d="M438.297,-1268.47C524.209,-1262.6 722.271,-1246.36 782.934,-1218 787.727,-1215.76 792.395,-1212.95 796.856,-1209.82"/>
<text text-anchor="middle" x="791.805" y="-1215.95" font-family="Arial" font-size="10.00">nodes</text>
<text text-anchor="middle" x="447.034" y="-1261.11" font-family="Arial" font-size="10.00">graph</text>
</g>
<!-- e227 -->
<g id="node18" class="node"><title>e227</title>
<a xlink:href="../examples/org/sdmlib/examples/helloworld/Edge.java" xlink:title="&lt;TABLE&gt;">
<polygon fill="none" stroke="black" points="741.934,-1058 741.934,-1075 812.934,-1075 812.934,-1058 741.934,-1058"/>
<text text-anchor="start" x="750.434" y="-1064.5" font-family="Arial" font-size="10.00"> </text>
<text text-anchor="start" x="754.434" y="-1064.5" font-family="Arial" font-size="10.00">e227 :Edge</text>
</a>
<polygon fill="none" stroke="black" points="741.934,-1010 741.934,-1058 812.934,-1058 812.934,-1010 741.934,-1010"/>
<text text-anchor="start" x="746.934" y="-1046" font-family="Arial" font-size="10.00">name = &quot;e16&quot;</text>
<text text-anchor="start" x="746.934" y="-1032" font-family="Arial" font-size="10.00">text = &quot;&quot;</text>
<text text-anchor="start" x="746.934" y="-1018" font-family="Arial" font-size="10.00">parent = &quot;&quot;</text>
</g>
<!-- g210&#45;&#45;e227 -->
<g id="edge34" class="edge"><title>g210&#45;&#45;e227</title>
<path fill="none" stroke="black" d="M438.216,-1270.7C521.132,-1269.2 706.739,-1261 749.934,-1218 786.006,-1182.09 786.577,-1119.29 782.568,-1079.76"/>
<text text-anchor="middle" x="787.527" y="-1085.95" font-family="Arial" font-size="10.00">edges</text>
<text text-anchor="middle" x="447.173" y="-1263.75" font-family="Arial" font-size="10.00">graph</text>
</g>
<!-- e228 -->
<g id="node19" class="node"><title>e228</title>
<a xlink:href="../examples/org/sdmlib/examples/helloworld/Edge.java" xlink:title="&lt;TABLE&gt;">
<polygon fill="none" stroke="black" points="862.934,-1058 862.934,-1075 933.934,-1075 933.934,-1058 862.934,-1058"/>
<text text-anchor="start" x="871.434" y="-1064.5" font-family="Arial" font-size="10.00"> </text>
<text text-anchor="start" x="875.434" y="-1064.5" font-family="Arial" font-size="10.00">e228 :Edge</text>
</a>
<polygon fill="none" stroke="black" points="862.934,-1010 862.934,-1058 933.934,-1058 933.934,-1010 862.934,-1010"/>
<text text-anchor="start" x="867.934" y="-1046" font-family="Arial" font-size="10.00">name = &quot;e17&quot;</text>
<text text-anchor="start" x="867.934" y="-1032" font-family="Arial" font-size="10.00">text = &quot;&quot;</text>
<text text-anchor="start" x="867.934" y="-1018" font-family="Arial" font-size="10.00">parent = &quot;&quot;</text>
</g>
<!-- g210&#45;&#45;e228 -->
<g id="edge36" class="edge"><title>g210&#45;&#45;e228</title>
<path fill="none" stroke="black" d="M438.303,-1269.57C550.027,-1265.22 857.126,-1250.4 887.934,-1218 922.65,-1181.49 916.438,-1118.87 907.851,-1079.54"/>
<text text-anchor="middle" x="913.759" y="-1085.11" font-family="Arial" font-size="10.00">edges</text>
<text text-anchor="middle" x="447.181" y="-1262.47" font-family="Arial" font-size="10.00">graph</text>
</g>
<!-- n211&#45;&#45;e212 -->
<g id="edge38" class="edge"><title>n211&#45;&#45;e212</title>
<path fill="none" stroke="black" d="M248.17,-1116.38C251.69,-1104.11 255.393,-1091.2 258.681,-1079.74"/>
<text text-anchor="middle" x="260.244" y="-1087.12" font-family="Arial" font-size="10.00">outEdges</text>
<text text-anchor="middle" x="246.607" y="-1104" font-family="Arial" font-size="10.00">src</text>
</g>
<!-- n211&#45;&#45;e216 -->
<g id="edge40" class="edge"><title>n211&#45;&#45;e216</title>
<path fill="none" stroke="black" d="M222.023,-1116.39C211.207,-1066.94 196.934,-988.67 196.934,-920 196.934,-920 196.934,-920 196.934,-794 196.934,-719.251 195.065,-631.742 193.882,-583.848"/>
<text text-anchor="middle" x="198.325" y="-590.307" font-family="Arial" font-size="10.00">inEdges</text>
<text text-anchor="middle" x="216.004" y="-1105.9" font-family="Arial" font-size="10.00">tgt</text>
</g>
<!-- e212&#45;&#45;n213 -->
<g id="edge42" class="edge"><title>e212&#45;&#45;n213</title>
<path fill="none" stroke="black" d="M291.996,-1006.38C299.374,-994.991 307.683,-982.159 315.596,-969.94"/>
<text text-anchor="middle" x="314.217" y="-977.344" font-family="Arial" font-size="10.00">tgt</text>
<text text-anchor="middle" x="293.375" y="-993.98" font-family="Arial" font-size="10.00">inEdges</text>
</g>
<!-- n213&#45;&#45;e214 -->
<g id="edge44" class="edge"><title>n213&#45;&#45;e214</title>
<path fill="none" stroke="black" d="M353.221,-868.378C354.529,-856.108 355.904,-843.2 357.126,-831.739"/>
<text text-anchor="middle" x="360.368" y="-838.698" font-family="Arial" font-size="10.00">outEdges</text>
<text text-anchor="middle" x="349.979" y="-856.418" font-family="Arial" font-size="10.00">src</text>
</g>
<!-- e214&#45;&#45;n215 -->
<g id="edge46" class="edge"><title>e214&#45;&#45;n215</title>
<path fill="none" stroke="black" d="M360.934,-758.385C360.934,-746.991 360.934,-734.159 360.934,-721.94"/>
<text text-anchor="middle" x="365.16" y="-728.503" font-family="Arial" font-size="10.00">tgt</text>
<text text-anchor="middle" x="356.708" y="-746.822" font-family="Arial" font-size="10.00">inEdges</text>
</g>
<!-- n215&#45;&#45;e216 -->
<g id="edge48" class="edge"><title>n215&#45;&#45;e216</title>
<path fill="none" stroke="black" d="M319.836,-640.155C294.483,-621.744 262.001,-598.156 236.247,-579.453"/>
<text text-anchor="middle" x="246.063" y="-578.859" font-family="Arial" font-size="10.00">outEdges</text>
<text text-anchor="middle" x="310.02" y="-635.75" font-family="Arial" font-size="10.00">src</text>
</g>
<!-- n215&#45;&#45;e217 -->
<g id="edge50" class="edge"><title>n215&#45;&#45;e217</title>
<path fill="none" stroke="black" d="M335.309,-620.378C328.973,-608.108 322.308,-595.2 316.389,-583.739"/>
<text text-anchor="middle" x="324.303" y="-587.352" font-family="Arial" font-size="10.00">outEdges</text>
<text text-anchor="middle" x="327.396" y="-611.764" font-family="Arial" font-size="10.00">src</text>
</g>
<!-- n215&#45;&#45;e222 -->
<g id="edge52" class="edge"><title>n215&#45;&#45;e222</title>
<path fill="none" stroke="black" d="M363.831,-620.077C366.462,-570.391 369.934,-491.952 369.934,-424 369.934,-424 369.934,-424 369.934,-298 369.934,-220.475 369.934,-129.587 369.934,-80.6139"/>
<text text-anchor="middle" x="374.16" y="-87.177" font-family="Arial" font-size="10.00">inEdges</text>
<text text-anchor="middle" x="360.077" y="-608.309" font-family="Arial" font-size="10.00">tgt</text>
</g>
<!-- e217&#45;&#45;n218 -->
<g id="edge54" class="edge"><title>e217&#45;&#45;n218</title>
<path fill="none" stroke="black" d="M255.312,-510.385C235.785,-494.068 212.729,-474.801 193.351,-458.609"/>
<text text-anchor="middle" x="203.015" y="-458.677" font-family="Arial" font-size="10.00">tgt</text>
<text text-anchor="middle" x="245.648" y="-505.316" font-family="Arial" font-size="10.00">inEdges</text>
</g>
<!-- n218&#45;&#45;e219 -->
<g id="edge56" class="edge"><title>n218&#45;&#45;e219</title>
<path fill="none" stroke="black" d="M145.019,-372.378C143.31,-360.108 141.511,-347.2 139.914,-335.739"/>
<text text-anchor="middle" x="145.35" y="-341.632" font-family="Arial" font-size="10.00">outEdges</text>
<text text-anchor="middle" x="139.583" y="-361.485" font-family="Arial" font-size="10.00">src</text>
</g>
<!-- e219&#45;&#45;n220 -->
<g id="edge58" class="edge"><title>e219&#45;&#45;n220</title>
<path fill="none" stroke="black" d="M134.934,-262.385C134.934,-250.991 134.934,-238.159 134.934,-225.94"/>
<text text-anchor="middle" x="139.16" y="-232.503" font-family="Arial" font-size="10.00">tgt</text>
<text text-anchor="middle" x="130.708" y="-250.822" font-family="Arial" font-size="10.00">inEdges</text>
</g>
<!-- n220&#45;&#45;e221 -->
<g id="edge60" class="edge"><title>n220&#45;&#45;e221</title>
<path fill="none" stroke="black" d="M107.303,-124.494C100.561,-112.415 93.4048,-99.5937 86.8526,-87.8543"/>
<text text-anchor="middle" x="94.9599" y="-91.2085" font-family="Arial" font-size="10.00">outEdges</text>
<text text-anchor="middle" x="99.1954" y="-116.14" font-family="Arial" font-size="10.00">src</text>
</g>
<!-- n220&#45;&#45;e222 -->
<g id="edge62" class="edge"><title>n220&#45;&#45;e222</title>
<path fill="none" stroke="black" d="M176.137,-151.382C218.26,-128.259 283.431,-92.4845 326.386,-68.905"/>
<text text-anchor="middle" x="320.475" y="-74.4709" font-family="Arial" font-size="10.00">outEdges</text>
<text text-anchor="middle" x="182.048" y="-140.816" font-family="Arial" font-size="10.00">src</text>
</g>
<!-- n220&#45;&#45;e223 -->
<g id="edge64" class="edge"><title>n220&#45;&#45;e223</title>
<path fill="none" stroke="black" d="M176.206,-164.358C232.762,-150.536 337.006,-122.869 421.934,-88 434.453,-82.8601 447.588,-76.3929 459.551,-70.0464"/>
<text text-anchor="middle" x="453.498" y="-75.507" font-family="Arial" font-size="10.00">inEdges</text>
<text text-anchor="middle" x="183.983" y="-155.571" font-family="Arial" font-size="10.00">tgt</text>
</g>
<!-- n226&#45;&#45;e227 -->
<g id="edge66" class="edge"><title>n226&#45;&#45;e227</title>
<path fill="none" stroke="black" d="M813.123,-1116.38C806.988,-1104.11 800.534,-1091.2 794.803,-1079.74"/>
<text text-anchor="middle" x="802.636" y="-1083.45" font-family="Arial" font-size="10.00">outEdges_inEdges</text>
<text text-anchor="middle" x="805.29" y="-1107.66" font-family="Arial" font-size="10.00">src_tgt</text>
</g>
<!-- n226&#45;&#45;e228 -->
<g id="edge68" class="edge"><title>n226&#45;&#45;e228</title>
<path fill="none" stroke="black" d="M862.338,-1116.38C868.373,-1104.11 874.721,-1091.2 880.358,-1079.74"/>
<text text-anchor="middle" x="880.15" y="-1087.24" font-family="Arial" font-size="10.00">outEdges_inEdges</text>
<text text-anchor="middle" x="862.546" y="-1103.88" font-family="Arial" font-size="10.00">src_tgt</text>
</g>
</g>
</svg>
