<?xml version="1.0" encoding="UTF-8" standalone="no"?>
<!DOCTYPE svg PUBLIC "-//W3C//DTD SVG 1.1//EN"
 "http://www.w3.org/Graphics/SVG/1.1/DTD/svg11.dtd">
<!-- Generated by graphviz version 2.28.0 (20110507.0327)
 -->
<!-- Title: ObjectDiagram Pages: 1 -->
<svg width="892pt" height="864pt"
 viewBox="0.00 0.00 892.00 864.00" xmlns="http://www.w3.org/2000/svg" xmlns:xlink="http://www.w3.org/1999/xlink">
<g id="graph1" class="graph" transform="scale(1 1) rotate(0) translate(4 860)">
<title>ObjectDiagram</title>
<polygon fill="white" stroke="white" points="-4,5 -4,-860 889,-860 889,5 -4,5"/>
<!-- g113 -->
<g id="node1" class="node"><title>g113</title>
<a xlink:href="../examples/org/sdmlib/examples/helloworld/Graph.java" xlink:title="&lt;TABLE&gt;">
<polygon fill="none" stroke="black" points="348,-829 348,-846 406,-846 406,-829 348,-829"/>
<text text-anchor="start" x="351.5" y="-835.5" font-family="Times New Roman,serif" font-size="10.00"> </text>
<text text-anchor="start" x="354.5" y="-835.5" font-family="Times New Roman,serif" font-size="10.00">g113 :Graph</text>
</a>
</g>
<!-- n114 -->
<g id="node2" class="node"><title>n114</title>
<a xlink:href="../examples/org/sdmlib/examples/helloworld/Node.java" xlink:title="&lt;TABLE&gt;">
<polygon fill="none" stroke="black" points="190,-762 190,-779 246,-779 246,-762 190,-762"/>
<text text-anchor="start" x="193.5" y="-768.5" font-family="Times New Roman,serif" font-size="10.00"> </text>
<text text-anchor="start" x="196.5" y="-768.5" font-family="Times New Roman,serif" font-size="10.00">n114 :Node</text>
</a>
<polygon fill="none" stroke="black" points="190,-742 190,-762 246,-762 246,-742 190,-742"/>
<text text-anchor="start" x="195" y="-750" font-family="Times New Roman,serif" font-size="10.00">text = &quot;n1&quot;</text>
</g>
<!-- g113&#45;&#45;n114 -->
<g id="edge2" class="edge"><title>g113&#45;&#45;n114</title>
<path fill="none" stroke="black" d="M340.92,-819.981C314.991,-807.75 280.171,-791.326 254.212,-779.081"/>
<text text-anchor="middle" x="264.212" y="-776.625" font-family="Times New Roman,serif" font-size="10.00">nodes</text>
<text text-anchor="middle" x="330.921" y="-817.437" font-family="Times New Roman,serif" font-size="10.00">graph</text>
</g>
<!-- e115 -->
<g id="node3" class="node"><title>e115</title>
<a xlink:href="../examples/org/sdmlib/examples/helloworld/Edge.java" xlink:title="&lt;TABLE&gt;">
<polygon fill="none" stroke="black" points="226,-680 226,-697 284,-697 284,-680 226,-680"/>
<text text-anchor="start" x="232" y="-686.5" font-family="Times New Roman,serif" font-size="10.00"> </text>
<text text-anchor="start" x="235" y="-686.5" font-family="Times New Roman,serif" font-size="10.00">e115 :Edge</text>
</a>
<polygon fill="none" stroke="black" points="226,-660 226,-680 284,-680 284,-660 226,-660"/>
<text text-anchor="start" x="231" y="-668" font-family="Times New Roman,serif" font-size="10.00">text = &quot;e10&quot;</text>
</g>
<!-- g113&#45;&#45;e115 -->
<g id="edge18" class="edge"><title>g113&#45;&#45;e115</title>
<path fill="none" stroke="black" d="M347.806,-819.811C333.854,-810.528 317.69,-798.085 306,-784 285.194,-758.931 270.298,-723.943 262.163,-701.629"/>
<text text-anchor="middle" x="269.301" y="-706.133" font-family="Times New Roman,serif" font-size="10.00">gcs</text>
<text text-anchor="middle" x="337.933" y="-815.723" font-family="Times New Roman,serif" font-size="10.00">parent</text>
</g>
<!-- n116 -->
<g id="node4" class="node"><title>n116</title>
<a xlink:href="../examples/org/sdmlib/examples/helloworld/Node.java" xlink:title="&lt;TABLE&gt;">
<polygon fill="none" stroke="black" points="304,-598 304,-615 360,-615 360,-598 304,-598"/>
<text text-anchor="start" x="307.5" y="-604.5" font-family="Times New Roman,serif" font-size="10.00"> </text>
<text text-anchor="start" x="310.5" y="-604.5" font-family="Times New Roman,serif" font-size="10.00">n116 :Node</text>
</a>
<polygon fill="none" stroke="black" points="304,-578 304,-598 360,-598 360,-578 304,-578"/>
<text text-anchor="start" x="309" y="-586" font-family="Times New Roman,serif" font-size="10.00">text = &quot;n2&quot;</text>
</g>
<!-- g113&#45;&#45;n116 -->
<g id="edge4" class="edge"><title>g113&#45;&#45;n116</title>
<path fill="none" stroke="black" d="M373.764,-819.812C365.743,-777.213 344.956,-666.809 336.097,-619.757"/>
<text text-anchor="middle" x="341.927" y="-625.382" font-family="Times New Roman,serif" font-size="10.00">nodes</text>
<text text-anchor="middle" x="367.934" y="-809.187" font-family="Times New Roman,serif" font-size="10.00">graph</text>
</g>
<!-- e117 -->
<g id="node5" class="node"><title>e117</title>
<a xlink:href="../examples/org/sdmlib/examples/helloworld/Edge.java" xlink:title="&lt;TABLE&gt;">
<polygon fill="none" stroke="black" points="306,-516 306,-533 364,-533 364,-516 306,-516"/>
<text text-anchor="start" x="312" y="-522.5" font-family="Times New Roman,serif" font-size="10.00"> </text>
<text text-anchor="start" x="315" y="-522.5" font-family="Times New Roman,serif" font-size="10.00">e117 :Edge</text>
</a>
<polygon fill="none" stroke="black" points="306,-496 306,-516 364,-516 364,-496 306,-496"/>
<text text-anchor="start" x="311" y="-504" font-family="Times New Roman,serif" font-size="10.00">text = &quot;e11&quot;</text>
</g>
<!-- g113&#45;&#45;e117 -->
<g id="edge20" class="edge"><title>g113&#45;&#45;e117</title>
<path fill="none" stroke="black" d="M380.554,-819.822C388.665,-777.005 405.714,-662.61 377,-574 372.669,-560.636 363.979,-547.769 355.621,-537.564"/>
<text text-anchor="middle" x="364.584" y="-539.499" font-family="Times New Roman,serif" font-size="10.00">gcs</text>
<text text-anchor="middle" x="377.979" y="-807.66" font-family="Times New Roman,serif" font-size="10.00">parent</text>
</g>
<!-- n118 -->
<g id="node6" class="node"><title>n118</title>
<a xlink:href="../examples/org/sdmlib/examples/helloworld/Node.java" xlink:title="&lt;TABLE&gt;">
<polygon fill="none" stroke="black" points="307,-434 307,-451 363,-451 363,-434 307,-434"/>
<text text-anchor="start" x="310.5" y="-440.5" font-family="Times New Roman,serif" font-size="10.00"> </text>
<text text-anchor="start" x="313.5" y="-440.5" font-family="Times New Roman,serif" font-size="10.00">n118 :Node</text>
</a>
<polygon fill="none" stroke="black" points="307,-414 307,-434 363,-434 363,-414 307,-414"/>
<text text-anchor="start" x="312" y="-422" font-family="Times New Roman,serif" font-size="10.00">text = &quot;n3&quot;</text>
</g>
<!-- g113&#45;&#45;n118 -->
<g id="edge6" class="edge"><title>g113&#45;&#45;n118</title>
<path fill="none" stroke="black" d="M387.721,-819.849C404.233,-791.747 434,-733.646 434,-680 434,-680 434,-680 434,-596 434,-538.648 388.264,-484.419 358.965,-455.563"/>
<text text-anchor="middle" x="368.329" y="-456.571" font-family="Times New Roman,serif" font-size="10.00">nodes</text>
<text text-anchor="middle" x="388.545" y="-807.383" font-family="Times New Roman,serif" font-size="10.00">graph</text>
</g>
<!-- e119 -->
<g id="node7" class="node"><title>e119</title>
<a xlink:href="../examples/org/sdmlib/examples/helloworld/Edge.java" xlink:title="&lt;TABLE&gt;">
<polygon fill="none" stroke="black" points="150,-352 150,-369 208,-369 208,-352 150,-352"/>
<text text-anchor="start" x="156" y="-358.5" font-family="Times New Roman,serif" font-size="10.00"> </text>
<text text-anchor="start" x="159" y="-358.5" font-family="Times New Roman,serif" font-size="10.00">e119 :Edge</text>
</a>
<polygon fill="none" stroke="black" points="150,-332 150,-352 208,-352 208,-332 150,-332"/>
<text text-anchor="start" x="155" y="-340" font-family="Times New Roman,serif" font-size="10.00">text = &quot;e12&quot;</text>
</g>
<!-- g113&#45;&#45;e119 -->
<g id="edge22" class="edge"><title>g113&#45;&#45;e119</title>
<path fill="none" stroke="black" d="M339.723,-832.084C287.296,-824.404 195.639,-807.918 173,-784 140.585,-749.753 152,-727.155 152,-680 152,-680 152,-680 152,-514 152,-463.104 165.127,-404.423 173.075,-373.558"/>
<text text-anchor="middle" x="174.97" y="-380.877" font-family="Times New Roman,serif" font-size="10.00">gcs</text>
<text text-anchor="middle" x="330.125" y="-832.393" font-family="Times New Roman,serif" font-size="10.00">parent</text>
</g>
<!-- e120 -->
<g id="node8" class="node"><title>e120</title>
<a xlink:href="../examples/org/sdmlib/examples/helloworld/Edge.java" xlink:title="&lt;TABLE&gt;">
<polygon fill="none" stroke="black" points="242,-352 242,-369 300,-369 300,-352 242,-352"/>
<text text-anchor="start" x="248" y="-358.5" font-family="Times New Roman,serif" font-size="10.00"> </text>
<text text-anchor="start" x="251" y="-358.5" font-family="Times New Roman,serif" font-size="10.00">e120 :Edge</text>
</a>
<polygon fill="none" stroke="black" points="242,-332 242,-352 300,-352 300,-332 242,-332"/>
<text text-anchor="start" x="247" y="-340" font-family="Times New Roman,serif" font-size="10.00">text = &quot;e13&quot;</text>
</g>
<!-- g113&#45;&#45;e120 -->
<g id="edge24" class="edge"><title>g113&#45;&#45;e120</title>
<path fill="none" stroke="black" d="M369.747,-819.728C348.565,-769.259 288.207,-625.241 287,-620 266.341,-530.292 268.035,-419.49 269.888,-373.535"/>
<text text-anchor="middle" x="273.806" y="-380.236" font-family="Times New Roman,serif" font-size="10.00">gcs</text>
<text text-anchor="middle" x="362.344" y="-810.505" font-family="Times New Roman,serif" font-size="10.00">parent</text>
</g>
<!-- n121 -->
<g id="node9" class="node"><title>n121</title>
<a xlink:href="../examples/org/sdmlib/examples/helloworld/Node.java" xlink:title="&lt;TABLE&gt;">
<polygon fill="none" stroke="black" points="112,-270 112,-287 168,-287 168,-270 112,-270"/>
<text text-anchor="start" x="115.5" y="-276.5" font-family="Times New Roman,serif" font-size="10.00"> </text>
<text text-anchor="start" x="118.5" y="-276.5" font-family="Times New Roman,serif" font-size="10.00">n121 :Node</text>
</a>
<polygon fill="none" stroke="black" points="112,-250 112,-270 168,-270 168,-250 112,-250"/>
<text text-anchor="start" x="117" y="-258" font-family="Times New Roman,serif" font-size="10.00">text = &quot;n4&quot;</text>
</g>
<!-- g113&#45;&#45;n121 -->
<g id="edge8" class="edge"><title>g113&#45;&#45;n121</title>
<path fill="none" stroke="black" d="M339.7,-832.904C281.987,-825.845 174.787,-809.628 147,-784 111.353,-751.123 114,-728.493 114,-680 114,-680 114,-680 114,-432 114,-381.154 126.641,-322.454 134.294,-291.572"/>
<text text-anchor="middle" x="136.277" y="-298.873" font-family="Times New Roman,serif" font-size="10.00">nodes</text>
<text text-anchor="middle" x="330.173" y="-833.444" font-family="Times New Roman,serif" font-size="10.00">graph</text>
</g>
<!-- e122 -->
<g id="node10" class="node"><title>e122</title>
<a xlink:href="../examples/org/sdmlib/examples/helloworld/Edge.java" xlink:title="&lt;TABLE&gt;">
<polygon fill="none" stroke="black" points="93,-188 93,-205 151,-205 151,-188 93,-188"/>
<text text-anchor="start" x="99" y="-194.5" font-family="Times New Roman,serif" font-size="10.00"> </text>
<text text-anchor="start" x="102" y="-194.5" font-family="Times New Roman,serif" font-size="10.00">e122 :Edge</text>
</a>
<polygon fill="none" stroke="black" points="93,-168 93,-188 151,-188 151,-168 93,-168"/>
<text text-anchor="start" x="98" y="-176" font-family="Times New Roman,serif" font-size="10.00">text = &quot;e14&quot;</text>
</g>
<!-- g113&#45;&#45;e122 -->
<g id="edge26" class="edge"><title>g113&#45;&#45;e122</title>
<path fill="none" stroke="black" d="M339.757,-833.95C275.503,-827.981 147.478,-812.756 114,-784 76.6696,-751.935 76,-729.211 76,-680 76,-680 76,-680 76,-350 76,-303.013 80.7471,-290.773 95,-246 98.9756,-233.511 105.023,-220.213 110.387,-209.504"/>
<text text-anchor="middle" x="110.154" y="-217.002" font-family="Times New Roman,serif" font-size="10.00">gcs</text>
<text text-anchor="middle" x="330.323" y="-834.767" font-family="Times New Roman,serif" font-size="10.00">parent</text>
</g>
<!-- n123 -->
<g id="node11" class="node"><title>n123</title>
<a xlink:href="../examples/org/sdmlib/examples/helloworld/Node.java" xlink:title="&lt;TABLE&gt;">
<polygon fill="none" stroke="black" points="94,-106 94,-123 150,-123 150,-106 94,-106"/>
<text text-anchor="start" x="97.5" y="-112.5" font-family="Times New Roman,serif" font-size="10.00"> </text>
<text text-anchor="start" x="100.5" y="-112.5" font-family="Times New Roman,serif" font-size="10.00">n123 :Node</text>
</a>
<polygon fill="none" stroke="black" points="94,-86 94,-106 150,-106 150,-86 94,-86"/>
<text text-anchor="start" x="99" y="-94" font-family="Times New Roman,serif" font-size="10.00">text = &quot;n5&quot;</text>
</g>
<!-- g113&#45;&#45;n123 -->
<g id="edge10" class="edge"><title>g113&#45;&#45;n123</title>
<path fill="none" stroke="black" d="M339.824,-834.904C268.821,-830.195 117.455,-816.532 78,-784 39.7906,-752.495 38,-729.523 38,-680 38,-680 38,-680 38,-268 38,-212.558 77.2532,-157.213 102.093,-127.74"/>
<text text-anchor="middle" x="99.6355" y="-134.934" font-family="Times New Roman,serif" font-size="10.00">nodes</text>
<text text-anchor="middle" x="330.481" y="-835.969" font-family="Times New Roman,serif" font-size="10.00">graph</text>
</g>
<!-- e124 -->
<g id="node12" class="node"><title>e124</title>
<a xlink:href="../examples/org/sdmlib/examples/helloworld/Edge.java" xlink:title="&lt;TABLE&gt;">
<polygon fill="none" stroke="black" points="23,-24 23,-41 81,-41 81,-24 23,-24"/>
<text text-anchor="start" x="29" y="-30.5" font-family="Times New Roman,serif" font-size="10.00"> </text>
<text text-anchor="start" x="32" y="-30.5" font-family="Times New Roman,serif" font-size="10.00">e124 :Edge</text>
</a>
<polygon fill="none" stroke="black" points="23,-4 23,-24 81,-24 81,-4 23,-4"/>
<text text-anchor="start" x="28" y="-12" font-family="Times New Roman,serif" font-size="10.00">text = &quot;e18&quot;</text>
</g>
<!-- g113&#45;&#45;e124 -->
<g id="edge28" class="edge"><title>g113&#45;&#45;e124</title>
<path fill="none" stroke="black" d="M339.965,-835.747C262.257,-832.407 85.5992,-820.86 40,-784 1.48615,-752.868 0,-729.523 0,-680 0,-680 0,-680 0,-186 0,-133.569 24.9989,-75.9642 40.3302,-45.566"/>
<text text-anchor="middle" x="40.1356" y="-53.0642" font-family="Times New Roman,serif" font-size="10.00">gcs</text>
<text text-anchor="middle" x="330.708" y="-837.029" font-family="Times New Roman,serif" font-size="10.00">parent</text>
</g>
<!-- e125 -->
<g id="node13" class="node"><title>e125</title>
<a xlink:href="../examples/org/sdmlib/examples/helloworld/Edge.java" xlink:title="&lt;TABLE&gt;">
<polygon fill="none" stroke="black" points="307,-24 307,-41 365,-41 365,-24 307,-24"/>
<text text-anchor="start" x="313" y="-30.5" font-family="Times New Roman,serif" font-size="10.00"> </text>
<text text-anchor="start" x="316" y="-30.5" font-family="Times New Roman,serif" font-size="10.00">e125 :Edge</text>
</a>
<polygon fill="none" stroke="black" points="307,-4 307,-24 365,-24 365,-4 307,-4"/>
<text text-anchor="start" x="312" y="-12" font-family="Times New Roman,serif" font-size="10.00">text = &quot;e15&quot;</text>
</g>
<!-- g113&#45;&#45;e125 -->
<g id="edge30" class="edge"><title>g113&#45;&#45;e125</title>
<path fill="none" stroke="black" d="M397.189,-819.895C407.712,-810.187 420.187,-797.335 429,-784 456.576,-742.271 472,-730.017 472,-680 472,-680 472,-680 472,-186 472,-123.756 412.379,-72.9179 372.088,-45.6686"/>
<text text-anchor="middle" x="381.931" y="-44.9344" font-family="Times New Roman,serif" font-size="10.00">gcs</text>
<text text-anchor="middle" x="400.919" y="-808.116" font-family="Times New Roman,serif" font-size="10.00">parent</text>
</g>
<!-- e126 -->
<g id="node14" class="node"><title>e126</title>
<a xlink:href="../examples/org/sdmlib/examples/helloworld/Edge.java" xlink:title="&lt;TABLE&gt;">
<polygon fill="none" stroke="black" points="440,-24 440,-41 498,-41 498,-24 440,-24"/>
<text text-anchor="start" x="446" y="-30.5" font-family="Times New Roman,serif" font-size="10.00"> </text>
<text text-anchor="start" x="449" y="-30.5" font-family="Times New Roman,serif" font-size="10.00">e126 :Edge</text>
</a>
<polygon fill="none" stroke="black" points="440,-4 440,-24 498,-24 498,-4 440,-4"/>
<text text-anchor="start" x="445" y="-12" font-family="Times New Roman,serif" font-size="10.00">text = &quot;e19&quot;</text>
</g>
<!-- g113&#45;&#45;e126 -->
<g id="edge32" class="edge"><title>g113&#45;&#45;e126</title>
<path fill="none" stroke="black" d="M411.547,-819.847C427.19,-810.806 445.036,-798.559 458,-784 492.367,-745.405 510,-731.678 510,-680 510,-680 510,-680 510,-186 510,-134.359 490.178,-76.2109 478.099,-45.5709"/>
<text text-anchor="middle" x="485.29" y="-50.0198" font-family="Times New Roman,serif" font-size="10.00">gcs</text>
<text text-anchor="middle" x="417.2" y="-809.098" font-family="Times New Roman,serif" font-size="10.00">parent</text>
</g>
<!-- n127 -->
<g id="node15" class="node"><title>n127</title>
<a xlink:href="../examples/org/sdmlib/examples/helloworld/Node.java" xlink:title="&lt;TABLE&gt;">
<polygon fill="none" stroke="black" points="546,-762 546,-779 602,-779 602,-762 546,-762"/>
<text text-anchor="start" x="549.5" y="-768.5" font-family="Times New Roman,serif" font-size="10.00"> </text>
<text text-anchor="start" x="552.5" y="-768.5" font-family="Times New Roman,serif" font-size="10.00">n127 :Node</text>
</a>
<polygon fill="none" stroke="black" points="546,-742 546,-762 602,-762 602,-742 546,-742"/>
<text text-anchor="start" x="551" y="-750" font-family="Times New Roman,serif" font-size="10.00">text = &quot;n6&quot;</text>
</g>
<!-- g113&#45;&#45;n127 -->
<g id="edge12" class="edge"><title>g113&#45;&#45;n127</title>
<path fill="none" stroke="black" d="M414.115,-824.408C443.996,-814.081 486.969,-798.802 524,-784 528.491,-782.205 533.177,-780.252 537.802,-778.275"/>
<text text-anchor="middle" x="531.123" y="-783.217" font-family="Times New Roman,serif" font-size="10.00">nodes</text>
<text text-anchor="middle" x="421.291" y="-814.943" font-family="Times New Roman,serif" font-size="10.00">graph</text>
</g>
<!-- n128 -->
<g id="node16" class="node"><title>n128</title>
<a xlink:href="../examples/org/sdmlib/examples/helloworld/Node.java" xlink:title="&lt;TABLE&gt;">
<polygon fill="none" stroke="black" points="636,-762 636,-779 692,-779 692,-762 636,-762"/>
<text text-anchor="start" x="639.5" y="-768.5" font-family="Times New Roman,serif" font-size="10.00"> </text>
<text text-anchor="start" x="642.5" y="-768.5" font-family="Times New Roman,serif" font-size="10.00">n128 :Node</text>
</a>
<polygon fill="none" stroke="black" points="636,-742 636,-762 692,-762 692,-742 636,-742"/>
<text text-anchor="start" x="641" y="-750" font-family="Times New Roman,serif" font-size="10.00">text = &quot;n7&quot;</text>
</g>
<!-- g113&#45;&#45;n128 -->
<g id="edge14" class="edge"><title>g113&#45;&#45;n128</title>
<path fill="none" stroke="black" d="M414.244,-831.682C462.424,-824.164 548.53,-808.545 619,-784 621.956,-782.97 624.971,-781.795 627.97,-780.536"/>
<text text-anchor="middle" x="621.231" y="-785.424" font-family="Times New Roman,serif" font-size="10.00">nodes</text>
<text text-anchor="middle" x="422.521" y="-823.57" font-family="Times New Roman,serif" font-size="10.00">graph</text>
</g>
<!-- n129 -->
<g id="node17" class="node"><title>n129</title>
<a xlink:href="../examples/org/sdmlib/examples/helloworld/Node.java" xlink:title="&lt;TABLE&gt;">
<polygon fill="none" stroke="black" points="764,-762 764,-779 820,-779 820,-762 764,-762"/>
<text text-anchor="start" x="767.5" y="-768.5" font-family="Times New Roman,serif" font-size="10.00"> </text>
<text text-anchor="start" x="770.5" y="-768.5" font-family="Times New Roman,serif" font-size="10.00">n129 :Node</text>
</a>
<polygon fill="none" stroke="black" points="764,-742 764,-762 820,-762 820,-742 764,-742"/>
<text text-anchor="start" x="769" y="-750" font-family="Times New Roman,serif" font-size="10.00">text = &quot;n8&quot;</text>
</g>
<!-- g113&#45;&#45;n129 -->
<g id="edge16" class="edge"><title>g113&#45;&#45;n129</title>
<path fill="none" stroke="black" d="M414.217,-834.92C481.022,-830.458 625.208,-817.502 742,-784 746.558,-782.693 751.243,-781.057 755.831,-779.27"/>
<text text-anchor="middle" x="748.893" y="-783.971" font-family="Times New Roman,serif" font-size="10.00">nodes</text>
<text text-anchor="middle" x="422.952" y="-827.552" font-family="Times New Roman,serif" font-size="10.00">graph</text>
</g>
<!-- e130 -->
<g id="node18" class="node"><title>e130</title>
<a xlink:href="../examples/org/sdmlib/examples/helloworld/Edge.java" xlink:title="&lt;TABLE&gt;">
<polygon fill="none" stroke="black" points="708,-680 708,-697 766,-697 766,-680 708,-680"/>
<text text-anchor="start" x="714" y="-686.5" font-family="Times New Roman,serif" font-size="10.00"> </text>
<text text-anchor="start" x="717" y="-686.5" font-family="Times New Roman,serif" font-size="10.00">e130 :Edge</text>
</a>
<polygon fill="none" stroke="black" points="708,-660 708,-680 766,-680 766,-660 708,-660"/>
<text text-anchor="start" x="713" y="-668" font-family="Times New Roman,serif" font-size="10.00">text = &quot;e16&quot;</text>
</g>
<!-- g113&#45;&#45;e130 -->
<g id="edge34" class="edge"><title>g113&#45;&#45;e130</title>
<path fill="none" stroke="black" d="M414.083,-836.015C491.38,-833.199 666.112,-822.618 709,-784 732.067,-763.23 736.992,-725.667 737.604,-701.823"/>
<text text-anchor="middle" x="741.433" y="-708.561" font-family="Times New Roman,serif" font-size="10.00">gcs</text>
<text text-anchor="middle" x="422.959" y="-828.908" font-family="Times New Roman,serif" font-size="10.00">parent</text>
</g>
<!-- e131 -->
<g id="node19" class="node"><title>e131</title>
<a xlink:href="../examples/org/sdmlib/examples/helloworld/Edge.java" xlink:title="&lt;TABLE&gt;">
<polygon fill="none" stroke="black" points="818,-680 818,-697 876,-697 876,-680 818,-680"/>
<text text-anchor="start" x="824" y="-686.5" font-family="Times New Roman,serif" font-size="10.00"> </text>
<text text-anchor="start" x="827" y="-686.5" font-family="Times New Roman,serif" font-size="10.00">e131 :Edge</text>
</a>
<polygon fill="none" stroke="black" points="818,-660 818,-680 876,-680 876,-660 818,-660"/>
<text text-anchor="start" x="823" y="-668" font-family="Times New Roman,serif" font-size="10.00">text = &quot;e17&quot;</text>
</g>
<!-- g113&#45;&#45;e131 -->
<g id="edge36" class="edge"><title>g113&#45;&#45;e131</title>
<path fill="none" stroke="black" d="M414.098,-835.364C518.219,-830.412 807.51,-814.051 837,-784 858.09,-762.509 856.033,-725.16 851.981,-701.555"/>
<text text-anchor="middle" x="857.521" y="-707.38" font-family="Times New Roman,serif" font-size="10.00">gcs</text>
<text text-anchor="middle" x="422.937" y="-828.187" font-family="Times New Roman,serif" font-size="10.00">parent</text>
</g>
<!-- n114&#45;&#45;e115 -->
<g id="edge38" class="edge"><title>n114&#45;&#45;e115</title>
<path fill="none" stroke="black" d="M228.11,-738.14C233.374,-726.759 239.787,-712.893 245.03,-701.557"/>
<text text-anchor="middle" x="245.061" y="-709.057" font-family="Times New Roman,serif" font-size="10.00">outEdges</text>
<text text-anchor="middle" x="228.079" y="-725.64" font-family="Times New Roman,serif" font-size="10.00">src</text>
</g>
<!-- n114&#45;&#45;e119 -->
<g id="edge40" class="edge"><title>n114&#45;&#45;e119</title>
<path fill="none" stroke="black" d="M211.855,-738.456C203.613,-707.608 190,-648.947 190,-598 190,-598 190,-598 190,-514 190,-463.681 184.652,-404.773 181.414,-373.717"/>
<text text-anchor="middle" x="186.534" y="-379.806" font-family="Times New Roman,serif" font-size="10.00">inEdges</text>
<text text-anchor="middle" x="205.484" y="-728.249" font-family="Times New Roman,serif" font-size="10.00">tgt</text>
</g>
<!-- e115&#45;&#45;n116 -->
<g id="edge42" class="edge"><title>e115&#45;&#45;n116</title>
<path fill="none" stroke="black" d="M276.041,-656.14C286.994,-644.759 300.341,-630.893 311.251,-619.557"/>
<text text-anchor="middle" x="308.011" y="-626.517" font-family="Times New Roman,serif" font-size="10.00">tgt</text>
<text text-anchor="middle" x="279.281" y="-644.179" font-family="Times New Roman,serif" font-size="10.00">inEdges</text>
</g>
<!-- n116&#45;&#45;e117 -->
<g id="edge44" class="edge"><title>n116&#45;&#45;e117</title>
<path fill="none" stroke="black" d="M332.82,-574.14C333.247,-562.759 333.767,-548.893 334.192,-537.557"/>
<text text-anchor="middle" x="338.075" y="-544.272" font-family="Times New Roman,serif" font-size="10.00">outEdges</text>
<text text-anchor="middle" x="328.936" y="-562.425" font-family="Times New Roman,serif" font-size="10.00">src</text>
</g>
<!-- e117&#45;&#45;n118 -->
<g id="edge46" class="edge"><title>e117&#45;&#45;n118</title>
<path fill="none" stroke="black" d="M335,-492.14C335,-480.759 335,-466.893 335,-455.557"/>
<text text-anchor="middle" x="339.226" y="-462.12" font-family="Times New Roman,serif" font-size="10.00">tgt</text>
<text text-anchor="middle" x="330.774" y="-480.577" font-family="Times New Roman,serif" font-size="10.00">inEdges</text>
</g>
<!-- n118&#45;&#45;e119 -->
<g id="edge48" class="edge"><title>n118&#45;&#45;e119</title>
<path fill="none" stroke="black" d="M298.818,-413.445C273.976,-400.706 241.099,-383.846 216.069,-371.01"/>
<text text-anchor="middle" x="226.062" y="-368.885" font-family="Times New Roman,serif" font-size="10.00">outEdges</text>
<text text-anchor="middle" x="288.825" y="-410.57" font-family="Times New Roman,serif" font-size="10.00">src</text>
</g>
<!-- n118&#45;&#45;e120 -->
<g id="edge50" class="edge"><title>n118&#45;&#45;e120</title>
<path fill="none" stroke="black" d="M317.512,-410.14C308.407,-398.759 297.314,-384.893 288.246,-373.557"/>
<text text-anchor="middle" x="297.207" y="-375.494" font-family="Times New Roman,serif" font-size="10.00">outEdges</text>
<text text-anchor="middle" x="308.55" y="-403.203" font-family="Times New Roman,serif" font-size="10.00">src</text>
</g>
<!-- n118&#45;&#45;e125 -->
<g id="edge52" class="edge"><title>n118&#45;&#45;e125</title>
<path fill="none" stroke="black" d="M335.219,-410.252C335.514,-379.158 336,-320.204 336,-270 336,-270 336,-270 336,-186 336,-135.797 336,-76.8425 336,-45.7485"/>
<text text-anchor="middle" x="340.226" y="-52.3116" font-family="Times New Roman,serif" font-size="10.00">inEdges</text>
<text text-anchor="middle" x="331.077" y="-398.65" font-family="Times New Roman,serif" font-size="10.00">tgt</text>
</g>
<!-- e120&#45;&#45;n121 -->
<g id="edge54" class="edge"><title>e120&#45;&#45;n121</title>
<path fill="none" stroke="black" d="M235.55,-328.351C216.909,-316.967 194.123,-303.052 175.479,-291.666"/>
<text text-anchor="middle" x="185.416" y="-290.283" font-family="Times New Roman,serif" font-size="10.00">tgt</text>
<text text-anchor="middle" x="225.612" y="-324.734" font-family="Times New Roman,serif" font-size="10.00">inEdges</text>
</g>
<!-- n121&#45;&#45;e122 -->
<g id="edge56" class="edge"><title>n121&#45;&#45;e122</title>
<path fill="none" stroke="black" d="M135.081,-246.14C132.521,-234.759 129.401,-220.893 126.85,-209.557"/>
<text text-anchor="middle" x="132.963" y="-214.971" font-family="Times New Roman,serif" font-size="10.00">outEdges</text>
<text text-anchor="middle" x="128.969" y="-235.725" font-family="Times New Roman,serif" font-size="10.00">src</text>
</g>
<!-- e122&#45;&#45;n123 -->
<g id="edge58" class="edge"><title>e122&#45;&#45;n123</title>
<path fill="none" stroke="black" d="M122,-164.14C122,-152.759 122,-138.893 122,-127.557"/>
<text text-anchor="middle" x="126.226" y="-134.12" font-family="Times New Roman,serif" font-size="10.00">tgt</text>
<text text-anchor="middle" x="117.774" y="-152.577" font-family="Times New Roman,serif" font-size="10.00">inEdges</text>
</g>
<!-- n123&#45;&#45;e124 -->
<g id="edge60" class="edge"><title>n123&#45;&#45;e124</title>
<path fill="none" stroke="black" d="M102.872,-82.1396C92.9141,-70.759 80.7813,-56.8929 70.8623,-45.5569"/>
<text text-anchor="middle" x="80.0109" y="-47.0946" font-family="Times New Roman,serif" font-size="10.00">outEdges</text>
<text text-anchor="middle" x="93.7236" y="-75.6019" font-family="Times New Roman,serif" font-size="10.00">src</text>
</g>
<!-- n123&#45;&#45;e125 -->
<g id="edge62" class="edge"><title>n123&#45;&#45;e125</title>
<path fill="none" stroke="black" d="M158.302,-90.4291C197.416,-75.8072 259.342,-52.6571 298.8,-37.9064"/>
<text text-anchor="middle" x="291.791" y="-42.5386" font-family="Times New Roman,serif" font-size="10.00">outEdges</text>
<text text-anchor="middle" x="165.312" y="-80.7969" font-family="Times New Roman,serif" font-size="10.00">src</text>
</g>
<!-- n123&#45;&#45;e126 -->
<g id="edge64" class="edge"><title>n123&#45;&#45;e126</title>
<path fill="none" stroke="black" d="M158.247,-96.252C208.558,-85.4207 302.363,-64.9476 382,-46 398.369,-42.1054 416.411,-37.5813 431.801,-33.6521"/>
<text text-anchor="middle" x="424.061" y="-37.4849" font-family="Times New Roman,serif" font-size="10.00">inEdges</text>
<text text-anchor="middle" x="166.214" y="-87.7086" font-family="Times New Roman,serif" font-size="10.00">tgt</text>
</g>
<!-- n129&#45;&#45;e130 -->
<g id="edge66" class="edge"><title>n129&#45;&#45;e130</title>
<path fill="none" stroke="black" d="M776.971,-738.14C769.147,-726.759 759.614,-712.893 751.82,-701.557"/>
<text text-anchor="middle" x="760.437" y="-704.131" font-family="Times New Roman,serif" font-size="10.00">outEdges_inEdges</text>
<text text-anchor="middle" x="768.354" y="-730.566" font-family="Times New Roman,serif" font-size="10.00">src_tgt</text>
</g>
<!-- n129&#45;&#45;e131 -->
<g id="edge68" class="edge"><title>n129&#45;&#45;e131</title>
<path fill="none" stroke="black" d="M807.029,-738.14C814.853,-726.759 824.386,-712.893 832.18,-701.557"/>
<text text-anchor="middle" x="830.528" y="-708.92" font-family="Times New Roman,serif" font-size="10.00">outEdges_inEdges</text>
<text text-anchor="middle" x="808.681" y="-725.777" font-family="Times New Roman,serif" font-size="10.00">src_tgt</text>
</g>
</g>
</svg>
