<?xml version="1.0" encoding="UTF-8" standalone="no"?>
<!DOCTYPE svg PUBLIC "-//W3C//DTD SVG 1.1//EN"
 "http://www.w3.org/Graphics/SVG/1.1/DTD/svg11.dtd">
<!-- Generated by graphviz version 2.28.0 (20110507.0327)
 -->
<!-- Title: ObjectDiagram Pages: 1 -->
<svg width="418pt" height="246pt"
 viewBox="0.00 0.00 418.00 246.00" xmlns="http://www.w3.org/2000/svg" xmlns:xlink="http://www.w3.org/1999/xlink">
<g id="graph1" class="graph" transform="scale(1 1) rotate(0) translate(4 242)">
<title>ObjectDiagram</title>
<polygon fill="white" stroke="white" points="-4,5 -4,-242 415,-242 415,5 -4,5"/>
<!-- g1 -->
<g id="node1" class="node"><title>g1</title>
<polygon fill="deepskyblue" stroke="deepskyblue" points="156.5,-182.5 156.5,-233.5 241.5,-233.5 241.5,-182.5 156.5,-182.5"/>
<text text-anchor="start" x="202" y="-223.5" font-family="Arial" font-size="10.00" fill="green">«create»</text>
<polygon fill="none" stroke="green" points="157,-202 157,-218 242,-218 242,-202 157,-202"/>
<text text-anchor="start" x="160.5" y="-208" font-family="Arial" font-size="10.00"> </text>
<text text-anchor="start" x="164.5" y="-208" font-family="Arial" font-size="10.00" fill="green"> g1 :GreetingPO </text>
<polygon fill="none" stroke="green" points="157,-182 157,-202 242,-202 242,-182 157,-182"/>
<text text-anchor="start" x="196" y="-190" font-family="Arial" font-size="10.00"> &#160;</text>
</g>
<!-- g2 -->
<g id="node2" class="node"><title>g2</title>
<polygon fill="deepskyblue" stroke="deepskyblue" points="7.5,-86.5 7.5,-137.5 132.5,-137.5 132.5,-86.5 7.5,-86.5"/>
<text text-anchor="start" x="93" y="-127.5" font-family="Arial" font-size="10.00" fill="green">«create»</text>
<polygon fill="none" stroke="green" points="8,-106 8,-122 133,-122 133,-106 8,-106"/>
<text text-anchor="start" x="11.5" y="-112" font-family="Arial" font-size="10.00"> </text>
<text text-anchor="start" x="15.5" y="-112" font-family="Arial" font-size="10.00" fill="green"> g2 :GreetingMessagePO </text>
<polygon fill="none" stroke="green" points="8,-86 8,-106 133,-106 133,-86 8,-86"/>
<text text-anchor="start" x="37" y="-94" font-family="Arial" font-size="10.00" fill="green"> text := &quot;Hello&quot; </text>
</g>
<!-- g1&#45;&#45;g2 -->
<g id="edge8" class="edge"><title>g1&#45;&#45;g2</title>
<path fill="none" stroke="green" d="M159.595,-178.286C143.59,-166.624 125.144,-153.182 109.164,-141.538"/>
<text text-anchor="middle" x="118.977" y="-140.96" font-family="Arial" font-size="10.00" fill="green">greetingMessage</text>
</g>
<!-- p3 -->
<g id="node3" class="node"><title>p3</title>
<polygon fill="deepskyblue" stroke="deepskyblue" points="266,-86.5 266,-137.5 402,-137.5 402,-86.5 266,-86.5"/>
<text text-anchor="start" x="362" y="-127.5" font-family="Arial" font-size="10.00" fill="green">«create»</text>
<polygon fill="none" stroke="green" points="266,-106 266,-122 402,-122 402,-106 266,-106"/>
<text text-anchor="start" x="298" y="-112" font-family="Arial" font-size="10.00"> </text>
<text text-anchor="start" x="302" y="-112" font-family="Arial" font-size="10.00" fill="green"> p3 :PersonPO </text>
<polygon fill="none" stroke="green" points="266,-86 266,-106 402,-106 402,-86 266,-86"/>
<text text-anchor="start" x="271.5" y="-94" font-family="Arial" font-size="10.00" fill="green"> name := &quot;TTC Participants&quot; </text>
</g>
<!-- g1&#45;&#45;p3 -->
<g id="edge10" class="edge"><title>g1&#45;&#45;p3</title>
<path fill="none" stroke="green" d="M240.238,-178.286C256.987,-166.624 276.292,-153.182 293.015,-141.538"/>
<text text-anchor="middle" x="287.992" y="-147.685" font-family="Arial" font-size="10.00" fill="green">person</text>
</g>
<!-- g4 -->
<g id="node4" class="node"><title>g4</title>
<a xlink:href="../examples/org/sdmlib/examples/helloworld/Greeting.java" xlink:title="&lt;TABLE&gt;">
<polygon fill="none" stroke="black" points="167,-103 167,-120 232,-120 232,-103 167,-103"/>
<text text-anchor="start" x="170.5" y="-109.5" font-family="Arial" font-size="10.00"> </text>
<text text-anchor="start" x="174.5" y="-109.5" font-family="Arial" font-size="10.00">g4 :Greeting</text>
</a>
</g>
<!-- g1&#45;&#45;g4 -->
<g id="edge2" class="edge"><title>g1&#45;&#45;g4</title>
<path fill="none" stroke="green" stroke-dasharray="1,5" d="M199,-178.286C199,-162.521 199,-143.503 199,-130.07"/>
<text text-anchor="middle" x="203.226" y="-136.633" font-family="Arial" font-size="10.00" fill="green">match</text>
</g>
<!-- g5 -->
<g id="node5" class="node"><title>g5</title>
<a xlink:href="../examples/org/sdmlib/examples/helloworld/GreetingMessage.java" xlink:title="&lt;TABLE&gt;">
<polygon fill="none" stroke="black" points="46,-24 46,-41 151,-41 151,-24 46,-24"/>
<text text-anchor="start" x="49.5" y="-30.5" font-family="Arial" font-size="10.00"> </text>
<text text-anchor="start" x="53.5" y="-30.5" font-family="Arial" font-size="10.00">g5 :GreetingMessage</text>
</a>
<polygon fill="none" stroke="black" points="46,-4 46,-24 151,-24 151,-4 46,-4"/>
<text text-anchor="start" x="51" y="-12" font-family="Arial" font-size="10.00">text = &quot;Hello&quot;</text>
</g>
<!-- g2&#45;&#45;g5 -->
<g id="edge4" class="edge"><title>g2&#45;&#45;g5</title>
<path fill="none" stroke="green" stroke-dasharray="1,5" d="M79.3236,-82.0303C83.1417,-70.167 87.484,-56.6747 91.0202,-45.6874"/>
<text text-anchor="middle" x="92.2665" y="-53.1094" font-family="Arial" font-size="10.00" fill="green">match</text>
</g>
<!-- p6 -->
<g id="node6" class="node"><title>p6</title>
<a xlink:href="../examples/org/sdmlib/examples/helloworld/Person.java" xlink:title="&lt;TABLE&gt;">
<polygon fill="none" stroke="black" points="242,-24 242,-41 369,-41 369,-24 242,-24"/>
<text text-anchor="start" x="279.5" y="-30.5" font-family="Arial" font-size="10.00"> </text>
<text text-anchor="start" x="283.5" y="-30.5" font-family="Arial" font-size="10.00">p6 :Person</text>
</a>
<polygon fill="none" stroke="black" points="242,-4 242,-24 369,-24 369,-4 242,-4"/>
<text text-anchor="start" x="247" y="-12" font-family="Arial" font-size="10.00">name = &quot;TTC Participants&quot;</text>
</g>
<!-- p3&#45;&#45;p6 -->
<g id="edge6" class="edge"><title>p3&#45;&#45;p6</title>
<path fill="none" stroke="green" stroke-dasharray="1,5" d="M324.343,-82.0303C320.389,-70.167 315.892,-56.6747 312.229,-45.6874"/>
<text text-anchor="middle" x="319.104" y="-50.4489" font-family="Arial" font-size="10.00" fill="green">match</text>
</g>
<!-- g4&#45;&#45;g5 -->
<g id="edge12" class="edge"><title>g4&#45;&#45;g5</title>
<path fill="none" stroke="black" d="M179.046,-93.8116C163.064,-80.0449 140.544,-60.6465 123.297,-45.7906"/>
<text text-anchor="middle" x="132.922" y="-46.0036" font-family="Arial" font-size="10.00">greetingMessage</text>
<text text-anchor="middle" x="169.421" y="-88.5987" font-family="Arial" font-size="10.00">greeting</text>
</g>
<!-- g4&#45;&#45;p6 -->
<g id="edge14" class="edge"><title>g4&#45;&#45;p6</title>
<path fill="none" stroke="black" d="M219.942,-93.8116C236.715,-80.0449 260.35,-60.6465 278.45,-45.7906"/>
<text text-anchor="middle" x="274.126" y="-52.3073" font-family="Arial" font-size="10.00">person</text>
<text text-anchor="middle" x="224.267" y="-82.295" font-family="Arial" font-size="10.00">greeting</text>
</g>
</g>
</svg>
