<?xml version="1.0" encoding="UTF-8" standalone="no"?>
<!DOCTYPE svg PUBLIC "-//W3C//DTD SVG 1.1//EN"
 "http://www.w3.org/Graphics/SVG/1.1/DTD/svg11.dtd">
<!-- Generated by graphviz version 2.26.3 (20100126.1600)
 -->
<!-- Title: ObjectDiagram Pages: 1 -->
<svg width="595pt" height="454pt"
 viewBox="0.00 0.00 595.15 454.00" xmlns="http://www.w3.org/2000/svg" xmlns:xlink="http://www.w3.org/1999/xlink">
<g id="graph1" class="graph" transform="scale(1 1) rotate(0) translate(4 450)">
<title>ObjectDiagram</title>
<polygon fill="white" stroke="white" points="-4,5 -4,-450 592.154,-450 592.154,5 -4,5"/>
<!-- g1 -->
<g id="node1" class="node"><title>g1</title>
<polygon fill="none" stroke="black" points="185,-419 185,-436 244,-436 244,-419 185,-419"/>
<text text-anchor="start" x="188.5" y="-425.167" font-family="Times Roman,serif" font-size="10.00"> </text>
<text text-anchor="start" x="192.5" y="-425.167" font-family="Times Roman,serif" font-size="10.00">g1 :Graph</text>
</g>
<!-- n2 -->
<g id="node2" class="node"><title>n2</title>
<polygon fill="none" stroke="black" points="57,-352 57,-369 121,-369 121,-352 57,-352"/>
<text text-anchor="start" x="65" y="-358.167" font-family="Times Roman,serif" font-size="10.00"> </text>
<text text-anchor="start" x="69" y="-358.167" font-family="Times Roman,serif" font-size="10.00">n2 :Node</text>
<polygon fill="none" stroke="black" points="57,-332 57,-352 121,-352 121,-332 57,-332"/>
<text text-anchor="start" x="62.5" y="-339.667" font-family="Times Roman,serif" font-size="10.00">text = &quot;n1&quot;</text>
</g>
<!-- g1&#45;&#45;n2 -->
<g id="edge2" class="edge"><title>g1&#45;&#45;n2</title>
<path fill="none" stroke="black" d="M184.693,-409.947C167.086,-399.101 144.528,-385.205 125.736,-373.629"/>
<text text-anchor="middle" x="135.669" y="-371.784" font-family="Times Roman,serif" font-size="10.00">nodes</text>
<text text-anchor="middle" x="174.76" y="-405.792" font-family="Times Roman,serif" font-size="10.00">graph</text>
</g>
<!-- n3 -->
<g id="node3" class="node"><title>n3</title>
<polygon fill="none" stroke="black" points="8,-270 8,-287 72,-287 72,-270 8,-270"/>
<text text-anchor="start" x="16" y="-276.167" font-family="Times Roman,serif" font-size="10.00"> </text>
<text text-anchor="start" x="20" y="-276.167" font-family="Times Roman,serif" font-size="10.00">n3 :Node</text>
<polygon fill="none" stroke="black" points="8,-250 8,-270 72,-270 72,-250 8,-250"/>
<text text-anchor="start" x="13.5" y="-257.667" font-family="Times Roman,serif" font-size="10.00">text = &quot;n2&quot;</text>
</g>
<!-- g1&#45;&#45;n3 -->
<g id="edge4" class="edge"><title>g1&#45;&#45;n3</title>
<path fill="none" stroke="black" d="M176.903,-421.747C130.84,-413.14 56.3216,-396.155 40,-374 22.5923,-350.371 27.0802,-314.933 32.8083,-291.885"/>
<text text-anchor="middle" x="34.9079" y="-298.662" font-family="Times Roman,serif" font-size="10.00">nodes</text>
<text text-anchor="middle" x="167.201" y="-421.17" font-family="Times Roman,serif" font-size="10.00">graph</text>
</g>
<!-- n4 -->
<g id="node4" class="node"><title>n4</title>
<polygon fill="none" stroke="black" points="76,-188 76,-205 140,-205 140,-188 76,-188"/>
<text text-anchor="start" x="84" y="-194.167" font-family="Times Roman,serif" font-size="10.00"> </text>
<text text-anchor="start" x="88" y="-194.167" font-family="Times Roman,serif" font-size="10.00">n4 :Node</text>
<polygon fill="none" stroke="black" points="76,-168 76,-188 140,-188 140,-168 76,-168"/>
<text text-anchor="start" x="81.5" y="-175.667" font-family="Times Roman,serif" font-size="10.00">text = &quot;n3&quot;</text>
</g>
<!-- g1&#45;&#45;n4 -->
<g id="edge6" class="edge"><title>g1&#45;&#45;n4</title>
<path fill="none" stroke="black" d="M201.871,-409.962C195.241,-399.678 187.15,-386.402 181,-374 152.588,-316.706 127.4,-245.468 115.412,-209.714"/>
<text text-anchor="middle" x="122.325" y="-213.939" font-family="Times Roman,serif" font-size="10.00">nodes</text>
<text text-anchor="middle" x="193.426" y="-401.607" font-family="Times Roman,serif" font-size="10.00">graph</text>
</g>
<!-- n5 -->
<g id="node5" class="node"><title>n5</title>
<polygon fill="none" stroke="black" points="133,-106 133,-123 197,-123 197,-106 133,-106"/>
<text text-anchor="start" x="141" y="-112.167" font-family="Times Roman,serif" font-size="10.00"> </text>
<text text-anchor="start" x="145" y="-112.167" font-family="Times Roman,serif" font-size="10.00">n5 :Node</text>
<polygon fill="none" stroke="black" points="133,-86 133,-106 197,-106 197,-86 133,-86"/>
<text text-anchor="start" x="138.5" y="-93.6667" font-family="Times Roman,serif" font-size="10.00">text = &quot;n4&quot;</text>
</g>
<!-- g1&#45;&#45;n5 -->
<g id="edge8" class="edge"><title>g1&#45;&#45;n5</title>
<path fill="none" stroke="black" d="M211.225,-409.709C202.823,-354.325 177.672,-188.534 168.444,-127.703"/>
<text text-anchor="middle" x="173.982" y="-133.029" font-family="Times Roman,serif" font-size="10.00">nodes</text>
<text text-anchor="middle" x="205.687" y="-398.382" font-family="Times Roman,serif" font-size="10.00">graph</text>
</g>
<!-- n6 -->
<g id="node6" class="node"><title>n6</title>
<polygon fill="none" stroke="black" points="133,-24 133,-41 197,-41 197,-24 133,-24"/>
<text text-anchor="start" x="141" y="-30.1667" font-family="Times Roman,serif" font-size="10.00"> </text>
<text text-anchor="start" x="145" y="-30.1667" font-family="Times Roman,serif" font-size="10.00">n6 :Node</text>
<polygon fill="none" stroke="black" points="133,-4 133,-24 197,-24 197,-4 133,-4"/>
<text text-anchor="start" x="138.5" y="-11.6667" font-family="Times Roman,serif" font-size="10.00">text = &quot;n5&quot;</text>
</g>
<!-- g1&#45;&#45;n6 -->
<g id="edge10" class="edge"><title>g1&#45;&#45;n6</title>
<path fill="none" stroke="black" d="M217.574,-409.961C223.078,-380.563 233,-320.431 233,-269 233,-269 233,-269 233,-187 233,-139.575 234.03,-124.987 214,-82 207.814,-68.724 197.897,-55.9638 188.598,-45.7273"/>
<text text-anchor="middle" x="197.784" y="-46.6792" font-family="Times Roman,serif" font-size="10.00">nodes</text>
<text text-anchor="middle" x="215.042" y="-397.287" font-family="Times Roman,serif" font-size="10.00">graph</text>
</g>
<!-- n7 -->
<g id="node7" class="node"><title>n7</title>
<polygon fill="none" stroke="black" points="269,-352 269,-369 333,-369 333,-352 269,-352"/>
<text text-anchor="start" x="277" y="-358.167" font-family="Times Roman,serif" font-size="10.00"> </text>
<text text-anchor="start" x="281" y="-358.167" font-family="Times Roman,serif" font-size="10.00">n7 :Node</text>
<polygon fill="none" stroke="black" points="269,-332 269,-352 333,-352 333,-332 269,-332"/>
<text text-anchor="start" x="274.5" y="-339.667" font-family="Times Roman,serif" font-size="10.00">text = &quot;n6&quot;</text>
</g>
<!-- g1&#45;&#45;n7 -->
<g id="edge12" class="edge"><title>g1&#45;&#45;n7</title>
<path fill="none" stroke="black" d="M234.618,-409.752C246.878,-398.901 262.529,-385.049 275.555,-373.521"/>
<text text-anchor="middle" x="271.569" y="-379.692" font-family="Times Roman,serif" font-size="10.00">nodes</text>
<text text-anchor="middle" x="238.604" y="-397.581" font-family="Times Roman,serif" font-size="10.00">graph</text>
</g>
<!-- n8 -->
<g id="node8" class="node"><title>n8</title>
<polygon fill="none" stroke="black" points="367,-352 367,-369 431,-369 431,-352 367,-352"/>
<text text-anchor="start" x="375" y="-358.167" font-family="Times Roman,serif" font-size="10.00"> </text>
<text text-anchor="start" x="379" y="-358.167" font-family="Times Roman,serif" font-size="10.00">n8 :Node</text>
<polygon fill="none" stroke="black" points="367,-332 367,-352 431,-352 431,-332 367,-332"/>
<text text-anchor="start" x="372.5" y="-339.667" font-family="Times Roman,serif" font-size="10.00">text = &quot;n7&quot;</text>
</g>
<!-- g1&#45;&#45;n8 -->
<g id="edge14" class="edge"><title>g1&#45;&#45;n8</title>
<path fill="none" stroke="black" d="M251.193,-413.935C278.67,-403.375 316.893,-388.327 350,-374 352.932,-372.731 355.95,-371.393 358.979,-370.028"/>
<text text-anchor="middle" x="352.449" y="-374.602" font-family="Times Roman,serif" font-size="10.00">nodes</text>
<text text-anchor="middle" x="258.128" y="-403.731" font-family="Times Roman,serif" font-size="10.00">graph</text>
</g>
<!-- n9 -->
<g id="node9" class="node"><title>n9</title>
<polygon fill="none" stroke="black" points="465,-352 465,-369 529,-369 529,-352 465,-352"/>
<text text-anchor="start" x="473" y="-358.167" font-family="Times Roman,serif" font-size="10.00"> </text>
<text text-anchor="start" x="477" y="-358.167" font-family="Times Roman,serif" font-size="10.00">n9 :Node</text>
<polygon fill="none" stroke="black" points="465,-332 465,-352 529,-352 529,-332 465,-332"/>
<text text-anchor="start" x="470.5" y="-339.667" font-family="Times Roman,serif" font-size="10.00">text = &quot;n8&quot;</text>
</g>
<!-- g1&#45;&#45;n9 -->
<g id="edge16" class="edge"><title>g1&#45;&#45;n9</title>
<path fill="none" stroke="black" d="M251.157,-421.941C297.891,-413.752 380.224,-397.429 448,-374 450.931,-372.987 453.921,-371.853 456.905,-370.645"/>
<text text-anchor="middle" x="450.072" y="-374.947" font-family="Times Roman,serif" font-size="10.00">nodes</text>
<text text-anchor="middle" x="259.33" y="-413.18" font-family="Times Roman,serif" font-size="10.00">graph</text>
</g>
<!-- n2&#45;&#45;n3 -->
<g id="edge18" class="edge"><title>n2&#45;&#45;n3</title>
<path fill="none" stroke="black" d="M75.3508,-328.158C68.5545,-316.785 60.3622,-303.076 53.576,-291.719"/>
<text text-anchor="middle" x="61.8528" y="-294.331" font-family="Times Roman,serif" font-size="10.00">linksTo</text>
<text text-anchor="middle" x="67.074" y="-319.546" font-family="Times Roman,serif" font-size="10.00">linksFrom</text>
</g>
<!-- n2&#45;&#45;n4 -->
<g id="edge20" class="edge"><title>n2&#45;&#45;n4</title>
<path fill="none" stroke="black" d="M91.6419,-328.197C95.2719,-296.864 101.762,-240.84 105.381,-209.61"/>
<text text-anchor="middle" x="108.536" y="-216.099" font-family="Times Roman,serif" font-size="10.00">linksFrom</text>
<text text-anchor="middle" x="88.4868" y="-315.707" font-family="Times Roman,serif" font-size="10.00">linksTo</text>
</g>
<!-- n3&#45;&#45;n4 -->
<g id="edge22" class="edge"><title>n3&#45;&#45;n4</title>
<path fill="none" stroke="black" d="M58.9418,-246.158C68.3733,-234.785 79.7422,-221.076 89.1598,-209.719"/>
<text text-anchor="middle" x="86.6276" y="-216.393" font-family="Times Roman,serif" font-size="10.00">linksTo</text>
<text text-anchor="middle" x="61.4739" y="-233.484" font-family="Times Roman,serif" font-size="10.00">linksFrom</text>
</g>
<!-- n4&#45;&#45;n5 -->
<g id="edge24" class="edge"><title>n4&#45;&#45;n5</title>
<path fill="none" stroke="black" d="M123.878,-164.158C131.784,-152.785 141.313,-139.076 149.207,-127.719"/>
<text text-anchor="middle" x="147.505" y="-134.573" font-family="Times Roman,serif" font-size="10.00">linksTo</text>
<text text-anchor="middle" x="125.58" y="-151.304" font-family="Times Roman,serif" font-size="10.00">linksFrom</text>
</g>
<!-- n4&#45;&#45;n6 -->
<g id="edge26" class="edge"><title>n4&#45;&#45;n6</title>
<path fill="none" stroke="black" d="M105.855,-164.391C104.656,-142.497 105.164,-108.776 116,-82 121.445,-68.5467 131.136,-55.8536 140.471,-45.7123"/>
<text text-anchor="middle" x="137.547" y="-52.2755" font-family="Times Roman,serif" font-size="10.00">linksFrom</text>
<text text-anchor="middle" x="101.24" y="-152.52" font-family="Times Roman,serif" font-size="10.00">linksTo</text>
</g>
<!-- n5&#45;&#45;n6 -->
<g id="edge28" class="edge"><title>n5&#45;&#45;n6</title>
<path fill="none" stroke="black" d="M165,-82.1584C165,-70.7851 165,-57.0756 165,-45.7191"/>
<text text-anchor="middle" x="169.226" y="-51.7822" font-family="Times Roman,serif" font-size="10.00">linksTo</text>
<text text-anchor="middle" x="160.774" y="-70.0954" font-family="Times Roman,serif" font-size="10.00">linksFrom</text>
</g>
<!-- n9&#45;&#45;n9 -->
<g id="edge30" class="edge"><title>n9&#45;&#45;n9</title>
<path fill="none" stroke="black" d="M537.119,-365.08C547.332,-364.154 555,-359.461 555,-351 555,-342.539 547.332,-337.846 537.119,-336.92"/>
<text text-anchor="middle" x="546.654" y="-330.907" font-family="Times Roman,serif" font-size="10.00">linksTo_linksFrom</text>
</g>
</g>
</svg>
