<?xml version="1.0" encoding="UTF-8" standalone="no"?>
<!DOCTYPE svg PUBLIC "-//W3C//DTD SVG 1.1//EN"
 "http://www.w3.org/Graphics/SVG/1.1/DTD/svg11.dtd">
<!-- Generated by graphviz version 2.28.0 (20110507.0327)
 -->
<!-- Title: ObjectDiagram Pages: 1 -->
<svg width="271pt" height="136pt"
 viewBox="0.00 0.00 271.00 136.00" xmlns="http://www.w3.org/2000/svg" xmlns:xlink="http://www.w3.org/1999/xlink">
<g id="graph1" class="graph" transform="scale(1 1) rotate(0) translate(4 132)">
<title>ObjectDiagram</title>
<polygon fill="white" stroke="white" points="-4,5 -4,-132 268,-132 268,5 -4,5"/>
<!-- g1 -->
<g id="node1" class="node"><title>g1</title>
<a xlink:href="../examples/org/sdmlib/examples/helloworld/Greeting.java" xlink:title="&lt;TABLE&gt;">
<polygon fill="none" stroke="black" points="96,-106 96,-123 155,-123 155,-106 96,-106"/>
<text text-anchor="start" x="99.5" y="-112.5" font-family="Times New Roman,serif" font-size="10.00"> </text>
<text text-anchor="start" x="102.5" y="-112.5" font-family="Times New Roman,serif" font-size="10.00">g1 :Greeting</text>
</a>
<polygon fill="none" stroke="black" points="96,-86 96,-106 155,-106 155,-86 96,-86"/>
<text text-anchor="start" x="101" y="-94" font-family="Times New Roman,serif" font-size="10.00">text = &quot;&quot;</text>
</g>
<!-- g2 -->
<g id="node2" class="node"><title>g2</title>
<a xlink:href="../examples/org/sdmlib/examples/helloworld/GreetingMessage.java" xlink:title="&lt;TABLE&gt;">
<polygon fill="none" stroke="black" points="8,-24 8,-41 103,-41 103,-24 8,-24"/>
<text text-anchor="start" x="11.5" y="-30.5" font-family="Times New Roman,serif" font-size="10.00"> </text>
<text text-anchor="start" x="14.5" y="-30.5" font-family="Times New Roman,serif" font-size="10.00">g2 :GreetingMessage</text>
</a>
<polygon fill="none" stroke="black" points="8,-4 8,-24 103,-24 103,-4 8,-4"/>
<text text-anchor="start" x="13" y="-12" font-family="Times New Roman,serif" font-size="10.00">text = &quot;Hello&quot;</text>
</g>
<!-- g1&#45;&#45;g2 -->
<g id="edge2" class="edge"><title>g1&#45;&#45;g2</title>
<path fill="none" stroke="black" d="M105.872,-82.1396C95.9141,-70.759 83.7813,-56.8929 73.8623,-45.5569"/>
<text text-anchor="middle" x="83.0109" y="-47.0946" font-family="Times New Roman,serif" font-size="10.00">greetingMessage</text>
<text text-anchor="middle" x="96.7236" y="-75.6019" font-family="Times New Roman,serif" font-size="10.00">greeting</text>
</g>
<!-- p3 -->
<g id="node3" class="node"><title>p3</title>
<a xlink:href="../examples/org/sdmlib/examples/helloworld/Person.java" xlink:title="&lt;TABLE&gt;">
<polygon fill="none" stroke="black" points="137,-24 137,-41 256,-41 256,-24 137,-24"/>
<text text-anchor="start" x="173.5" y="-30.5" font-family="Times New Roman,serif" font-size="10.00"> </text>
<text text-anchor="start" x="176.5" y="-30.5" font-family="Times New Roman,serif" font-size="10.00">p3 :Person</text>
</a>
<polygon fill="none" stroke="black" points="137,-4 137,-24 256,-24 256,-4 137,-4"/>
<text text-anchor="start" x="142" y="-12" font-family="Times New Roman,serif" font-size="10.00">name = &quot;TTC Participants&quot;</text>
</g>
<!-- g1&#45;&#45;p3 -->
<g id="edge4" class="edge"><title>g1&#45;&#45;p3</title>
<path fill="none" stroke="black" d="M144.401,-82.1396C154.501,-70.759 166.808,-56.8929 176.868,-45.5569"/>
<text text-anchor="middle" x="174.013" y="-52.6407" font-family="Times New Roman,serif" font-size="10.00">person</text>
<text text-anchor="middle" x="147.256" y="-70.0559" font-family="Times New Roman,serif" font-size="10.00">greeting</text>
</g>
</g>
</svg>
