<?xml version="1.0" encoding="UTF-8" standalone="no"?>
<!DOCTYPE svg PUBLIC "-//W3C//DTD SVG 1.1//EN"
 "http://www.w3.org/Graphics/SVG/1.1/DTD/svg11.dtd">
<!-- Generated by graphviz version 2.28.0 (20110507.0327)
 -->
<!-- Title: ObjectDiagram Pages: 1 -->
<svg width="886pt" height="864pt"
 viewBox="0.00 0.00 886.00 864.00" xmlns="http://www.w3.org/2000/svg" xmlns:xlink="http://www.w3.org/1999/xlink">
<g id="graph1" class="graph" transform="scale(1 1) rotate(0) translate(4 860)">
<title>ObjectDiagram</title>
<polygon fill="white" stroke="white" points="-4,5 -4,-860 883,-860 883,5 -4,5"/>
<!-- g1 -->
<g id="node1" class="node"><title>g1</title>
<polygon fill="none" stroke="black" points="353,-829 353,-846 402,-846 402,-829 353,-829"/>
<text text-anchor="start" x="356.5" y="-835.5" font-family="Times New Roman,serif" font-size="10.00"> </text>
<text text-anchor="start" x="359.5" y="-835.5" font-family="Times New Roman,serif" font-size="10.00">g1 :Graph</text>
</g>
<!-- n2 -->
<g id="node2" class="node"><title>n2</title>
<polygon fill="none" stroke="black" points="192,-762 192,-779 246,-779 246,-762 192,-762"/>
<text text-anchor="start" x="199" y="-768.5" font-family="Times New Roman,serif" font-size="10.00"> </text>
<text text-anchor="start" x="202" y="-768.5" font-family="Times New Roman,serif" font-size="10.00">n2 :Node</text>
<polygon fill="none" stroke="black" points="192,-742 192,-762 246,-762 246,-742 192,-742"/>
<text text-anchor="start" x="197.5" y="-750" font-family="Times New Roman,serif" font-size="10.00">text = &quot;n1&quot;</text>
</g>
<!-- g1&#45;&#45;n2 -->
<g id="edge38" class="edge"><title>g1&#45;&#45;n2</title>
<path fill="none" stroke="black" d="M344.645,-821.642C318.282,-809.128 281.123,-791.489 254.056,-778.641"/>
<text text-anchor="middle" x="264.056" y="-776.209" font-family="Times New Roman,serif" font-size="10.00">gcs</text>
<text text-anchor="middle" x="334.645" y="-819.073" font-family="Times New Roman,serif" font-size="10.00">parent</text>
</g>
<!-- e3 -->
<g id="node3" class="node"><title>e3</title>
<polygon fill="none" stroke="black" points="226,-680 226,-697 284,-697 284,-680 226,-680"/>
<text text-anchor="start" x="236.5" y="-686.5" font-family="Times New Roman,serif" font-size="10.00"> </text>
<text text-anchor="start" x="239.5" y="-686.5" font-family="Times New Roman,serif" font-size="10.00">e3 :Edge</text>
<polygon fill="none" stroke="black" points="226,-660 226,-680 284,-680 284,-660 226,-660"/>
<text text-anchor="start" x="231.5" y="-668" font-family="Times New Roman,serif" font-size="10.00">text = &quot;e10&quot;</text>
</g>
<!-- g1&#45;&#45;e3 -->
<g id="edge22" class="edge"><title>g1&#45;&#45;e3</title>
<path fill="none" stroke="black" d="M347.806,-819.811C333.854,-810.528 317.69,-798.085 306,-784 285.194,-758.931 270.298,-723.943 262.163,-701.629"/>
<text text-anchor="middle" x="269.301" y="-706.133" font-family="Times New Roman,serif" font-size="10.00">gcs</text>
<text text-anchor="middle" x="337.933" y="-815.723" font-family="Times New Roman,serif" font-size="10.00">parent</text>
</g>
<!-- n4 -->
<g id="node4" class="node"><title>n4</title>
<polygon fill="none" stroke="black" points="306,-598 306,-615 360,-615 360,-598 306,-598"/>
<text text-anchor="start" x="313" y="-604.5" font-family="Times New Roman,serif" font-size="10.00"> </text>
<text text-anchor="start" x="316" y="-604.5" font-family="Times New Roman,serif" font-size="10.00">n4 :Node</text>
<polygon fill="none" stroke="black" points="306,-578 306,-598 360,-598 360,-578 306,-578"/>
<text text-anchor="start" x="311.5" y="-586" font-family="Times New Roman,serif" font-size="10.00">text = &quot;n2&quot;</text>
</g>
<!-- g1&#45;&#45;n4 -->
<g id="edge40" class="edge"><title>g1&#45;&#45;n4</title>
<path fill="none" stroke="black" d="M373.836,-819.812C365.993,-777.213 345.668,-666.809 337.005,-619.757"/>
<text text-anchor="middle" x="342.803" y="-625.405" font-family="Times New Roman,serif" font-size="10.00">gcs</text>
<text text-anchor="middle" x="368.038" y="-809.164" font-family="Times New Roman,serif" font-size="10.00">parent</text>
</g>
<!-- e5 -->
<g id="node5" class="node"><title>e5</title>
<polygon fill="none" stroke="black" points="307,-516 307,-533 365,-533 365,-516 307,-516"/>
<text text-anchor="start" x="317.5" y="-522.5" font-family="Times New Roman,serif" font-size="10.00"> </text>
<text text-anchor="start" x="320.5" y="-522.5" font-family="Times New Roman,serif" font-size="10.00">e5 :Edge</text>
<polygon fill="none" stroke="black" points="307,-496 307,-516 365,-516 365,-496 307,-496"/>
<text text-anchor="start" x="312.5" y="-504" font-family="Times New Roman,serif" font-size="10.00">text = &quot;e11&quot;</text>
</g>
<!-- g1&#45;&#45;e5 -->
<g id="edge24" class="edge"><title>g1&#45;&#45;e5</title>
<path fill="none" stroke="black" d="M380.492,-819.843C388.46,-777.071 405.208,-662.772 377,-574 372.78,-560.72 364.297,-547.863 356.137,-537.643"/>
<text text-anchor="middle" x="365.045" y="-539.687" font-family="Times New Roman,serif" font-size="10.00">gcs</text>
<text text-anchor="middle" x="377.888" y="-807.687" font-family="Times New Roman,serif" font-size="10.00">parent</text>
</g>
<!-- n6 -->
<g id="node6" class="node"><title>n6</title>
<polygon fill="none" stroke="black" points="309,-434 309,-451 363,-451 363,-434 309,-434"/>
<text text-anchor="start" x="316" y="-440.5" font-family="Times New Roman,serif" font-size="10.00"> </text>
<text text-anchor="start" x="319" y="-440.5" font-family="Times New Roman,serif" font-size="10.00">n6 :Node</text>
<polygon fill="none" stroke="black" points="309,-414 309,-434 363,-434 363,-414 309,-414"/>
<text text-anchor="start" x="314.5" y="-422" font-family="Times New Roman,serif" font-size="10.00">text = &quot;n3&quot;</text>
</g>
<!-- g1&#45;&#45;n6 -->
<g id="edge42" class="edge"><title>g1&#45;&#45;n6</title>
<path fill="none" stroke="black" d="M387.721,-819.849C404.233,-791.747 434,-733.646 434,-680 434,-680 434,-680 434,-596 434,-538.805 388.726,-484.519 359.723,-455.611"/>
<text text-anchor="middle" x="369.067" y="-456.675" font-family="Times New Roman,serif" font-size="10.00">gcs</text>
<text text-anchor="middle" x="388.545" y="-807.383" font-family="Times New Roman,serif" font-size="10.00">parent</text>
</g>
<!-- e7 -->
<g id="node7" class="node"><title>e7</title>
<polygon fill="none" stroke="black" points="150,-352 150,-369 208,-369 208,-352 150,-352"/>
<text text-anchor="start" x="160.5" y="-358.5" font-family="Times New Roman,serif" font-size="10.00"> </text>
<text text-anchor="start" x="163.5" y="-358.5" font-family="Times New Roman,serif" font-size="10.00">e7 :Edge</text>
<polygon fill="none" stroke="black" points="150,-332 150,-352 208,-352 208,-332 150,-332"/>
<text text-anchor="start" x="155.5" y="-340" font-family="Times New Roman,serif" font-size="10.00">text = &quot;e12&quot;</text>
</g>
<!-- g1&#45;&#45;e7 -->
<g id="edge26" class="edge"><title>g1&#45;&#45;e7</title>
<path fill="none" stroke="black" d="M344.37,-832.609C293.386,-825.086 198.248,-808.172 175,-784 142.184,-749.881 152,-727.339 152,-680 152,-680 152,-680 152,-514 152,-463.104 165.127,-404.423 173.075,-373.558"/>
<text text-anchor="middle" x="174.97" y="-380.877" font-family="Times New Roman,serif" font-size="10.00">gcs</text>
<text text-anchor="middle" x="334.77" y="-832.909" font-family="Times New Roman,serif" font-size="10.00">parent</text>
</g>
<!-- e8 -->
<g id="node8" class="node"><title>e8</title>
<polygon fill="none" stroke="black" points="242,-352 242,-369 300,-369 300,-352 242,-352"/>
<text text-anchor="start" x="252.5" y="-358.5" font-family="Times New Roman,serif" font-size="10.00"> </text>
<text text-anchor="start" x="255.5" y="-358.5" font-family="Times New Roman,serif" font-size="10.00">e8 :Edge</text>
<polygon fill="none" stroke="black" points="242,-332 242,-352 300,-352 300,-332 242,-332"/>
<text text-anchor="start" x="247.5" y="-340" font-family="Times New Roman,serif" font-size="10.00">text = &quot;e13&quot;</text>
</g>
<!-- g1&#45;&#45;e8 -->
<g id="edge28" class="edge"><title>g1&#45;&#45;e8</title>
<path fill="none" stroke="black" d="M369.669,-819.837C349.393,-772.238 293.736,-640.707 289,-620 268.467,-530.219 268.902,-419.457 270.174,-373.523"/>
<text text-anchor="middle" x="274.204" y="-380.175" font-family="Times New Roman,serif" font-size="10.00">gcs</text>
<text text-anchor="middle" x="362.234" y="-810.649" font-family="Times New Roman,serif" font-size="10.00">parent</text>
</g>
<!-- n9 -->
<g id="node9" class="node"><title>n9</title>
<polygon fill="none" stroke="black" points="112,-270 112,-287 166,-287 166,-270 112,-270"/>
<text text-anchor="start" x="119" y="-276.5" font-family="Times New Roman,serif" font-size="10.00"> </text>
<text text-anchor="start" x="122" y="-276.5" font-family="Times New Roman,serif" font-size="10.00">n9 :Node</text>
<polygon fill="none" stroke="black" points="112,-250 112,-270 166,-270 166,-250 112,-250"/>
<text text-anchor="start" x="117.5" y="-258" font-family="Times New Roman,serif" font-size="10.00">text = &quot;n4&quot;</text>
</g>
<!-- g1&#45;&#45;n9 -->
<g id="edge44" class="edge"><title>g1&#45;&#45;n9</title>
<path fill="none" stroke="black" d="M344.445,-833.413C288.299,-826.603 176.524,-810.104 148,-784 112.126,-751.169 114,-728.63 114,-680 114,-680 114,-680 114,-432 114,-381.203 126.154,-322.483 133.514,-291.585"/>
<text text-anchor="middle" x="135.583" y="-298.869" font-family="Times New Roman,serif" font-size="10.00">gcs</text>
<text text-anchor="middle" x="334.921" y="-833.964" font-family="Times New Roman,serif" font-size="10.00">parent</text>
</g>
<!-- e10 -->
<g id="node10" class="node"><title>e10</title>
<polygon fill="none" stroke="black" points="92,-188 92,-205 150,-205 150,-188 92,-188"/>
<text text-anchor="start" x="100" y="-194.5" font-family="Times New Roman,serif" font-size="10.00"> </text>
<text text-anchor="start" x="103" y="-194.5" font-family="Times New Roman,serif" font-size="10.00">e10 :Edge</text>
<polygon fill="none" stroke="black" points="92,-168 92,-188 150,-188 150,-168 92,-168"/>
<text text-anchor="start" x="97.5" y="-176" font-family="Times New Roman,serif" font-size="10.00">text = &quot;e14&quot;</text>
</g>
<!-- g1&#45;&#45;e10 -->
<g id="edge10" class="edge"><title>g1&#45;&#45;e10</title>
<path fill="none" stroke="black" d="M344.37,-834.318C282.056,-828.58 149.26,-813.199 115,-784 77.4287,-751.979 76,-729.365 76,-680 76,-680 76,-680 76,-350 76,-303.013 81.0668,-290.874 95,-246 98.8612,-233.564 104.687,-220.27 109.846,-209.551"/>
<text text-anchor="middle" x="109.769" y="-217.05" font-family="Times New Roman,serif" font-size="10.00">gcs</text>
<text text-anchor="middle" x="334.939" y="-835.143" font-family="Times New Roman,serif" font-size="10.00">parent</text>
</g>
<!-- n11 -->
<g id="node11" class="node"><title>n11</title>
<polygon fill="none" stroke="black" points="94,-106 94,-123 148,-123 148,-106 94,-106"/>
<text text-anchor="start" x="99" y="-112.5" font-family="Times New Roman,serif" font-size="10.00"> </text>
<text text-anchor="start" x="102" y="-112.5" font-family="Times New Roman,serif" font-size="10.00">n11 :Node</text>
<polygon fill="none" stroke="black" points="94,-86 94,-106 148,-106 148,-86 94,-86"/>
<text text-anchor="start" x="99.5" y="-94" font-family="Times New Roman,serif" font-size="10.00">text = &quot;n5&quot;</text>
</g>
<!-- g1&#45;&#45;n11 -->
<g id="edge30" class="edge"><title>g1&#45;&#45;n11</title>
<path fill="none" stroke="black" d="M344.633,-835.218C275.903,-830.818 118.37,-817.287 78,-784 39.7906,-752.495 38,-729.523 38,-680 38,-680 38,-680 38,-268 38,-212.539 77.0079,-156.985 101.54,-127.53"/>
<text text-anchor="middle" x="99.1381" y="-134.737" font-family="Times New Roman,serif" font-size="10.00">gcs</text>
<text text-anchor="middle" x="335.299" y="-836.305" font-family="Times New Roman,serif" font-size="10.00">parent</text>
</g>
<!-- e12 -->
<g id="node12" class="node"><title>e12</title>
<polygon fill="none" stroke="black" points="23,-24 23,-41 81,-41 81,-24 23,-24"/>
<text text-anchor="start" x="31" y="-30.5" font-family="Times New Roman,serif" font-size="10.00"> </text>
<text text-anchor="start" x="34" y="-30.5" font-family="Times New Roman,serif" font-size="10.00">e12 :Edge</text>
<polygon fill="none" stroke="black" points="23,-4 23,-24 81,-24 81,-4 23,-4"/>
<text text-anchor="start" x="28.5" y="-12" font-family="Times New Roman,serif" font-size="10.00">text = &quot;e18&quot;</text>
</g>
<!-- g1&#45;&#45;e12 -->
<g id="edge12" class="edge"><title>g1&#45;&#45;e12</title>
<path fill="none" stroke="black" d="M344.552,-835.94C269.449,-832.863 86.5204,-821.604 40,-784 1.48615,-752.868 0,-729.523 0,-680 0,-680 0,-680 0,-186 0,-133.569 24.9989,-75.9642 40.3302,-45.566"/>
<text text-anchor="middle" x="40.1356" y="-53.0642" font-family="Times New Roman,serif" font-size="10.00">gcs</text>
<text text-anchor="middle" x="335.302" y="-837.24" font-family="Times New Roman,serif" font-size="10.00">parent</text>
</g>
<!-- e13 -->
<g id="node13" class="node"><title>e13</title>
<polygon fill="none" stroke="black" points="307,-24 307,-41 365,-41 365,-24 307,-24"/>
<text text-anchor="start" x="315" y="-30.5" font-family="Times New Roman,serif" font-size="10.00"> </text>
<text text-anchor="start" x="318" y="-30.5" font-family="Times New Roman,serif" font-size="10.00">e13 :Edge</text>
<polygon fill="none" stroke="black" points="307,-4 307,-24 365,-24 365,-4 307,-4"/>
<text text-anchor="start" x="312.5" y="-12" font-family="Times New Roman,serif" font-size="10.00">text = &quot;e15&quot;</text>
</g>
<!-- g1&#45;&#45;e13 -->
<g id="edge14" class="edge"><title>g1&#45;&#45;e13</title>
<path fill="none" stroke="black" d="M397.189,-819.895C407.712,-810.187 420.187,-797.335 429,-784 456.576,-742.271 472,-730.017 472,-680 472,-680 472,-680 472,-186 472,-123.756 412.379,-72.9179 372.088,-45.6686"/>
<text text-anchor="middle" x="381.931" y="-44.9344" font-family="Times New Roman,serif" font-size="10.00">gcs</text>
<text text-anchor="middle" x="400.919" y="-808.116" font-family="Times New Roman,serif" font-size="10.00">parent</text>
</g>
<!-- e14 -->
<g id="node14" class="node"><title>e14</title>
<polygon fill="none" stroke="black" points="440,-24 440,-41 498,-41 498,-24 440,-24"/>
<text text-anchor="start" x="448" y="-30.5" font-family="Times New Roman,serif" font-size="10.00"> </text>
<text text-anchor="start" x="451" y="-30.5" font-family="Times New Roman,serif" font-size="10.00">e14 :Edge</text>
<polygon fill="none" stroke="black" points="440,-4 440,-24 498,-24 498,-4 440,-4"/>
<text text-anchor="start" x="445.5" y="-12" font-family="Times New Roman,serif" font-size="10.00">text = &quot;e19&quot;</text>
</g>
<!-- g1&#45;&#45;e14 -->
<g id="edge16" class="edge"><title>g1&#45;&#45;e14</title>
<path fill="none" stroke="black" d="M409.537,-820.998C425.642,-811.857 444.477,-799.186 458,-784 492.367,-745.405 510,-731.678 510,-680 510,-680 510,-680 510,-186 510,-134.359 490.178,-76.2109 478.099,-45.5709"/>
<text text-anchor="middle" x="485.29" y="-50.0198" font-family="Times New Roman,serif" font-size="10.00">gcs</text>
<text text-anchor="middle" x="415.254" y="-810.293" font-family="Times New Roman,serif" font-size="10.00">parent</text>
</g>
<!-- n15 -->
<g id="node15" class="node"><title>n15</title>
<polygon fill="none" stroke="black" points="546,-762 546,-779 600,-779 600,-762 546,-762"/>
<text text-anchor="start" x="551" y="-768.5" font-family="Times New Roman,serif" font-size="10.00"> </text>
<text text-anchor="start" x="554" y="-768.5" font-family="Times New Roman,serif" font-size="10.00">n15 :Node</text>
<polygon fill="none" stroke="black" points="546,-742 546,-762 600,-762 600,-742 546,-742"/>
<text text-anchor="start" x="551.5" y="-750" font-family="Times New Roman,serif" font-size="10.00">text = &quot;n6&quot;</text>
</g>
<!-- g1&#45;&#45;n15 -->
<g id="edge32" class="edge"><title>g1&#45;&#45;n15</title>
<path fill="none" stroke="black" d="M409.383,-826.117C439.348,-815.86 485.013,-799.754 524,-784 528.496,-782.183 533.187,-780.197 537.809,-778.185"/>
<text text-anchor="middle" x="531.178" y="-783.171" font-family="Times New Roman,serif" font-size="10.00">gcs</text>
<text text-anchor="middle" x="416.579" y="-816.673" font-family="Times New Roman,serif" font-size="10.00">parent</text>
</g>
<!-- n16 -->
<g id="node16" class="node"><title>n16</title>
<polygon fill="none" stroke="black" points="634,-762 634,-779 688,-779 688,-762 634,-762"/>
<text text-anchor="start" x="639" y="-768.5" font-family="Times New Roman,serif" font-size="10.00"> </text>
<text text-anchor="start" x="642" y="-768.5" font-family="Times New Roman,serif" font-size="10.00">n16 :Node</text>
<polygon fill="none" stroke="black" points="634,-742 634,-762 688,-762 688,-742 634,-742"/>
<text text-anchor="start" x="639.5" y="-750" font-family="Times New Roman,serif" font-size="10.00">text = &quot;n7&quot;</text>
</g>
<!-- g1&#45;&#45;n16 -->
<g id="edge34" class="edge"><title>g1&#45;&#45;n16</title>
<path fill="none" stroke="black" d="M409.536,-832.423C456.353,-825.256 545.005,-809.508 617,-784 619.898,-782.973 622.851,-781.8 625.787,-780.542"/>
<text text-anchor="middle" x="619.101" y="-785.479" font-family="Times New Roman,serif" font-size="10.00">gcs</text>
<text text-anchor="middle" x="417.829" y="-824.334" font-family="Times New Roman,serif" font-size="10.00">parent</text>
</g>
<!-- n17 -->
<g id="node17" class="node"><title>n17</title>
<polygon fill="none" stroke="black" points="760,-762 760,-779 814,-779 814,-762 760,-762"/>
<text text-anchor="start" x="765" y="-768.5" font-family="Times New Roman,serif" font-size="10.00"> </text>
<text text-anchor="start" x="768" y="-768.5" font-family="Times New Roman,serif" font-size="10.00">n17 :Node</text>
<polygon fill="none" stroke="black" points="760,-742 760,-762 814,-762 814,-742 760,-742"/>
<text text-anchor="start" x="765.5" y="-750" font-family="Times New Roman,serif" font-size="10.00">text = &quot;n8&quot;</text>
</g>
<!-- g1&#45;&#45;n17 -->
<g id="edge36" class="edge"><title>g1&#45;&#45;n17</title>
<path fill="none" stroke="black" d="M409.508,-835.236C473.543,-831.109 620.029,-818.42 738,-784 742.565,-782.668 747.257,-780.994 751.842,-779.166"/>
<text text-anchor="middle" x="744.96" y="-783.922" font-family="Times New Roman,serif" font-size="10.00">gcs</text>
<text text-anchor="middle" x="418.254" y="-827.888" font-family="Times New Roman,serif" font-size="10.00">parent</text>
</g>
<!-- e18 -->
<g id="node18" class="node"><title>e18</title>
<polygon fill="none" stroke="black" points="703,-680 703,-697 761,-697 761,-680 703,-680"/>
<text text-anchor="start" x="711" y="-686.5" font-family="Times New Roman,serif" font-size="10.00"> </text>
<text text-anchor="start" x="714" y="-686.5" font-family="Times New Roman,serif" font-size="10.00">e18 :Edge</text>
<polygon fill="none" stroke="black" points="703,-660 703,-680 761,-680 761,-660 703,-660"/>
<text text-anchor="start" x="708.5" y="-668" font-family="Times New Roman,serif" font-size="10.00">text = &quot;e16&quot;</text>
</g>
<!-- g1&#45;&#45;e18 -->
<g id="edge18" class="edge"><title>g1&#45;&#45;e18</title>
<path fill="none" stroke="black" d="M409.424,-836.136C483.492,-833.493 662.024,-823.122 705,-784 727.899,-763.155 732.453,-725.614 732.826,-701.795"/>
<text text-anchor="middle" x="736.747" y="-708.494" font-family="Times New Roman,serif" font-size="10.00">gcs</text>
<text text-anchor="middle" x="418.304" y="-829.036" font-family="Times New Roman,serif" font-size="10.00">parent</text>
</g>
<!-- e19 -->
<g id="node19" class="node"><title>e19</title>
<polygon fill="none" stroke="black" points="812,-680 812,-697 870,-697 870,-680 812,-680"/>
<text text-anchor="start" x="820" y="-686.5" font-family="Times New Roman,serif" font-size="10.00"> </text>
<text text-anchor="start" x="823" y="-686.5" font-family="Times New Roman,serif" font-size="10.00">e19 :Edge</text>
<polygon fill="none" stroke="black" points="812,-660 812,-680 870,-680 870,-660 812,-660"/>
<text text-anchor="start" x="817.5" y="-668" font-family="Times New Roman,serif" font-size="10.00">text = &quot;e17&quot;</text>
</g>
<!-- g1&#45;&#45;e19 -->
<g id="edge20" class="edge"><title>g1&#45;&#45;e19</title>
<path fill="none" stroke="black" d="M409.315,-835.537C508.154,-830.752 801.495,-814.111 831,-784 852.074,-762.493 850.022,-725.149 845.975,-701.55"/>
<text text-anchor="middle" x="851.514" y="-707.375" font-family="Times New Roman,serif" font-size="10.00">gcs</text>
<text text-anchor="middle" x="418.15" y="-828.353" font-family="Times New Roman,serif" font-size="10.00">parent</text>
</g>
<!-- n2&#45;&#45;e3 -->
<g id="edge56" class="edge"><title>n2&#45;&#45;e3</title>
<path fill="none" stroke="black" d="M228.837,-738.14C233.958,-726.759 240.198,-712.893 245.299,-701.557"/>
<text text-anchor="middle" x="245.434" y="-709.056" font-family="Times New Roman,serif" font-size="10.00">outEdges</text>
<text text-anchor="middle" x="228.702" y="-725.641" font-family="Times New Roman,serif" font-size="10.00">src</text>
</g>
<!-- n2&#45;&#45;e7 -->
<g id="edge58" class="edge"><title>n2&#45;&#45;e7</title>
<path fill="none" stroke="black" d="M212.636,-738.471C204.099,-707.641 190,-649.001 190,-598 190,-598 190,-598 190,-514 190,-463.681 184.652,-404.773 181.414,-373.717"/>
<text text-anchor="middle" x="186.534" y="-379.806" font-family="Times New Roman,serif" font-size="10.00">inEdges</text>
<text text-anchor="middle" x="206.197" y="-728.32" font-family="Times New Roman,serif" font-size="10.00">tgt</text>
</g>
<!-- e3&#45;&#45;n4 -->
<g id="edge4" class="edge"><title>e3&#45;&#45;n4</title>
<path fill="none" stroke="black" d="M276.314,-656.14C287.41,-644.759 300.929,-630.893 311.982,-619.557"/>
<text text-anchor="middle" x="308.681" y="-626.496" font-family="Times New Roman,serif" font-size="10.00">tgt</text>
<text text-anchor="middle" x="279.615" y="-644.2" font-family="Times New Roman,serif" font-size="10.00">inEdges</text>
</g>
<!-- n4&#45;&#45;e5 -->
<g id="edge60" class="edge"><title>n4&#45;&#45;e5</title>
<path fill="none" stroke="black" d="M333.82,-574.14C334.247,-562.759 334.767,-548.893 335.192,-537.557"/>
<text text-anchor="middle" x="339.075" y="-544.272" font-family="Times New Roman,serif" font-size="10.00">outEdges</text>
<text text-anchor="middle" x="329.936" y="-562.425" font-family="Times New Roman,serif" font-size="10.00">src</text>
</g>
<!-- e5&#45;&#45;n6 -->
<g id="edge6" class="edge"><title>e5&#45;&#45;n6</title>
<path fill="none" stroke="black" d="M336,-492.14C336,-480.759 336,-466.893 336,-455.557"/>
<text text-anchor="middle" x="340.226" y="-462.12" font-family="Times New Roman,serif" font-size="10.00">tgt</text>
<text text-anchor="middle" x="331.774" y="-480.577" font-family="Times New Roman,serif" font-size="10.00">inEdges</text>
</g>
<!-- n6&#45;&#45;e7 -->
<g id="edge64" class="edge"><title>n6&#45;&#45;e7</title>
<path fill="none" stroke="black" d="M300.766,-414.046C275.542,-401.194 241.651,-383.924 216.029,-370.868"/>
<text text-anchor="middle" x="226.023" y="-368.717" font-family="Times New Roman,serif" font-size="10.00">outEdges</text>
<text text-anchor="middle" x="290.772" y="-411.197" font-family="Times New Roman,serif" font-size="10.00">src</text>
</g>
<!-- n6&#45;&#45;e8 -->
<g id="edge66" class="edge"><title>n6&#45;&#45;e8</title>
<path fill="none" stroke="black" d="M318.238,-410.14C308.992,-398.759 297.725,-384.893 288.515,-373.557"/>
<text text-anchor="middle" x="297.51" y="-375.426" font-family="Times New Roman,serif" font-size="10.00">outEdges</text>
<text text-anchor="middle" x="309.243" y="-403.271" font-family="Times New Roman,serif" font-size="10.00">src</text>
</g>
<!-- n6&#45;&#45;e13 -->
<g id="edge62" class="edge"><title>n6&#45;&#45;e13</title>
<path fill="none" stroke="black" d="M336,-410.251C336,-379.157 336,-320.203 336,-270 336,-270 336,-270 336,-186 336,-135.797 336,-76.8425 336,-45.7485"/>
<text text-anchor="middle" x="340.226" y="-52.3116" font-family="Times New Roman,serif" font-size="10.00">inEdges</text>
<text text-anchor="middle" x="331.774" y="-398.688" font-family="Times New Roman,serif" font-size="10.00">tgt</text>
</g>
<!-- e8&#45;&#45;n9 -->
<g id="edge8" class="edge"><title>e8&#45;&#45;n9</title>
<path fill="none" stroke="black" d="M235.279,-328.351C216.344,-316.875 193.163,-302.826 174.292,-291.389"/>
<text text-anchor="middle" x="184.233" y="-289.972" font-family="Times New Roman,serif" font-size="10.00">tgt</text>
<text text-anchor="middle" x="225.338" y="-324.768" font-family="Times New Roman,serif" font-size="10.00">inEdges</text>
</g>
<!-- n9&#45;&#45;e10 -->
<g id="edge68" class="edge"><title>n9&#45;&#45;e10</title>
<path fill="none" stroke="black" d="M134.081,-246.14C131.521,-234.759 128.401,-220.893 125.85,-209.557"/>
<text text-anchor="middle" x="131.963" y="-214.971" font-family="Times New Roman,serif" font-size="10.00">outEdges</text>
<text text-anchor="middle" x="127.969" y="-235.725" font-family="Times New Roman,serif" font-size="10.00">src</text>
</g>
<!-- e10&#45;&#45;n11 -->
<g id="edge2" class="edge"><title>e10&#45;&#45;n11</title>
<path fill="none" stroke="black" d="M121,-164.14C121,-152.759 121,-138.893 121,-127.557"/>
<text text-anchor="middle" x="125.226" y="-134.12" font-family="Times New Roman,serif" font-size="10.00">tgt</text>
<text text-anchor="middle" x="116.774" y="-152.577" font-family="Times New Roman,serif" font-size="10.00">inEdges</text>
</g>
<!-- n11&#45;&#45;e12 -->
<g id="edge46" class="edge"><title>n11&#45;&#45;e12</title>
<path fill="none" stroke="black" d="M102.145,-82.1396C92.3296,-70.759 80.3701,-56.8929 70.5929,-45.5569"/>
<text text-anchor="middle" x="79.7125" y="-47.1597" font-family="Times New Roman,serif" font-size="10.00">outEdges</text>
<text text-anchor="middle" x="93.0258" y="-75.5369" font-family="Times New Roman,serif" font-size="10.00">src</text>
</g>
<!-- n11&#45;&#45;e13 -->
<g id="edge48" class="edge"><title>n11&#45;&#45;e13</title>
<path fill="none" stroke="black" d="M156.022,-90.9686C195.289,-76.3577 258.705,-52.7611 298.828,-37.8315"/>
<text text-anchor="middle" x="291.808" y="-42.453" font-family="Times New Roman,serif" font-size="10.00">outEdges</text>
<text text-anchor="middle" x="163.042" y="-81.3471" font-family="Times New Roman,serif" font-size="10.00">src</text>
</g>
<!-- n11&#45;&#45;e14 -->
<g id="edge50" class="edge"><title>n11&#45;&#45;e14</title>
<path fill="none" stroke="black" d="M156.113,-96.5356C206.298,-85.7903 301.386,-65.1453 382,-46 398.371,-42.1121 416.413,-37.589 431.802,-33.6588"/>
<text text-anchor="middle" x="424.063" y="-37.492" font-family="Times New Roman,serif" font-size="10.00">inEdges</text>
<text text-anchor="middle" x="164.087" y="-88.0009" font-family="Times New Roman,serif" font-size="10.00">tgt</text>
</g>
<!-- n17&#45;&#45;e18 -->
<g id="edge52" class="edge"><title>n17&#45;&#45;e18</title>
<path fill="none" stroke="black" d="M771.971,-738.14C764.147,-726.759 754.614,-712.893 746.82,-701.557"/>
<text text-anchor="middle" x="755.437" y="-704.131" font-family="Times New Roman,serif" font-size="10.00">outEdges_inEdges</text>
<text text-anchor="middle" x="763.354" y="-730.566" font-family="Times New Roman,serif" font-size="10.00">src_tgt</text>
</g>
<!-- n17&#45;&#45;e19 -->
<g id="edge54" class="edge"><title>n17&#45;&#45;e19</title>
<path fill="none" stroke="black" d="M801.756,-738.14C809.438,-726.759 818.797,-712.893 826.449,-701.557"/>
<text text-anchor="middle" x="824.881" y="-708.933" font-family="Times New Roman,serif" font-size="10.00">outEdges_inEdges</text>
<text text-anchor="middle" x="803.323" y="-725.763" font-family="Times New Roman,serif" font-size="10.00">src_tgt</text>
</g>
</g>
</svg>
