<?xml version="1.0" encoding="UTF-8" standalone="no"?>
<!DOCTYPE svg PUBLIC "-//W3C//DTD SVG 1.1//EN"
 "http://www.w3.org/Graphics/SVG/1.1/DTD/svg11.dtd">
<!-- Generated by graphviz version 2.28.0 (20110507.0327)
 -->
<!-- Title: ObjectDiagram Pages: 1 -->
<svg width="327pt" height="546pt"
 viewBox="0.00 0.00 327.00 546.00" xmlns="http://www.w3.org/2000/svg" xmlns:xlink="http://www.w3.org/1999/xlink">
<g id="graph1" class="graph" transform="scale(1 1) rotate(0) translate(4 542)">
<title>ObjectDiagram</title>
<polygon fill="white" stroke="white" points="-4,5 -4,-542 324,-542 324,5 -4,5"/>
<!-- g1 -->
<g id="node1" class="node"><title>g1</title>
<polygon fill="deepskyblue" stroke="deepskyblue" points="44.5,-496.5 44.5,-533.5 119.5,-533.5 119.5,-496.5 44.5,-496.5"/>
<polygon fill="none" stroke="black" points="45,-516 45,-533 120,-533 120,-516 45,-516"/>
<text text-anchor="start" x="48.5" y="-522.5" font-family="Arial" font-size="10.00"> </text>
<text text-anchor="start" x="52.5" y="-522.5" font-family="Arial" font-size="10.00"> g1 :GraphPO </text>
<polygon fill="none" stroke="black" points="45,-496 45,-516 120,-516 120,-496 45,-496"/>
<text text-anchor="start" x="79" y="-504" font-family="Arial" font-size="10.00"> &#160;</text>
</g>
<!-- n2 -->
<g id="node2" class="node"><title>n2</title>
<polygon fill="deepskyblue" stroke="deepskyblue" points="55,-414.5 55,-451.5 109,-451.5 109,-414.5 55,-414.5"/>
<polygon fill="none" stroke="black" points="55,-434 55,-451 109,-451 109,-434 55,-434"/>
<text text-anchor="start" x="58.5" y="-440.5" font-family="Arial" font-size="10.00"> </text>
<text text-anchor="start" x="62.5" y="-440.5" font-family="Arial" font-size="10.00"> n2 :NodePO </text>
<polygon fill="none" stroke="black" points="55,-414 55,-434 109,-434 109,-414 55,-414"/>
<text text-anchor="start" x="78.5" y="-422" font-family="Arial" font-size="10.00"> &#160;</text>
</g>
<!-- g1&#45;&#45;n2 -->
<g id="edge2" class="edge"><title>g1&#45;&#45;n2</title>
<path fill="none" stroke="black" d="M82,-492.14C82,-480.759 82,-466.893 82,-455.557"/>
<text text-anchor="middle" x="86.2262" y="-462.12" font-family="Arial" font-size="10.00">nodes</text>
</g>
<!-- e3 -->
<g id="node3" class="node"><title>e3</title>
<polygon fill="deepskyblue" stroke="deepskyblue" points="17,-332.5 17,-369.5 75,-369.5 75,-332.5 17,-332.5"/>
<polygon fill="none" stroke="black" points="17,-352 17,-369 75,-369 75,-352 17,-352"/>
<text text-anchor="start" x="20.5" y="-358.5" font-family="Arial" font-size="10.00"> </text>
<text text-anchor="start" x="24.5" y="-358.5" font-family="Arial" font-size="10.00"> e3 :EdgePO </text>
<polygon fill="none" stroke="black" points="17,-332 17,-352 75,-352 75,-332 17,-332"/>
<text text-anchor="start" x="42.5" y="-340" font-family="Arial" font-size="10.00"> &#160;</text>
</g>
<!-- n2&#45;&#45;e3 -->
<g id="edge4" class="edge"><title>n2&#45;&#45;e3</title>
<path fill="none" stroke="black" d="M72.1628,-410.14C67.0416,-398.759 60.8018,-384.893 55.7006,-373.557"/>
<text text-anchor="middle" x="63.2737" y="-377.587" font-family="Arial" font-size="10.00">outEdges</text>
</g>
<!-- n4 -->
<g id="node4" class="node"><title>n4</title>
<polygon fill="deepskyblue" stroke="deepskyblue" points="7.5,-250.5 7.5,-287.5 78.5,-287.5 78.5,-250.5 7.5,-250.5"/>
<polygon fill="none" stroke="black" points="8,-270 8,-287 79,-287 79,-270 8,-270"/>
<text text-anchor="start" x="11.5" y="-276.5" font-family="Arial" font-size="10.00"> </text>
<text text-anchor="start" x="15.5" y="-276.5" font-family="Arial" font-size="10.00"> n4 :NodePO </text>
<polygon fill="none" stroke="black" points="8,-250 8,-270 79,-270 79,-250 8,-250"/>
<text text-anchor="start" x="40" y="-258" font-family="Arial" font-size="10.00"> &#160;</text>
</g>
<!-- e3&#45;&#45;n4 -->
<g id="edge6" class="edge"><title>e3&#45;&#45;n4</title>
<path fill="none" stroke="black" d="M45.1802,-328.14C44.7535,-316.759 44.2335,-302.893 43.8084,-291.557"/>
<text text-anchor="middle" x="48.3712" y="-297.955" font-family="Arial" font-size="10.00">tgt</text>
</g>
<!-- e5 -->
<g id="node5" class="node"><title>e5</title>
<polygon fill="deepskyblue" stroke="deepskyblue" points="7.5,-168.5 7.5,-205.5 78.5,-205.5 78.5,-168.5 7.5,-168.5"/>
<polygon fill="none" stroke="black" points="8,-188 8,-205 79,-205 79,-188 8,-188"/>
<text text-anchor="start" x="11.5" y="-194.5" font-family="Arial" font-size="10.00"> </text>
<text text-anchor="start" x="15.5" y="-194.5" font-family="Arial" font-size="10.00"> e5 :EdgePO </text>
<polygon fill="none" stroke="black" points="8,-168 8,-188 79,-188 79,-168 8,-168"/>
<text text-anchor="start" x="40" y="-176" font-family="Arial" font-size="10.00"> &#160;</text>
</g>
<!-- n4&#45;&#45;e5 -->
<g id="edge8" class="edge"><title>n4&#45;&#45;e5</title>
<path fill="none" stroke="black" d="M43,-246.14C43,-234.759 43,-220.893 43,-209.557"/>
<text text-anchor="middle" x="47.2262" y="-216.12" font-family="Arial" font-size="10.00">outEdges</text>
</g>
<!-- n6 -->
<g id="node6" class="node"><title>n6</title>
<polygon fill="deepskyblue" stroke="deepskyblue" points="7.5,-86.5 7.5,-123.5 78.5,-123.5 78.5,-86.5 7.5,-86.5"/>
<polygon fill="none" stroke="black" points="8,-106 8,-123 79,-123 79,-106 8,-106"/>
<text text-anchor="start" x="11.5" y="-112.5" font-family="Arial" font-size="10.00"> </text>
<text text-anchor="start" x="15.5" y="-112.5" font-family="Arial" font-size="10.00"> n6 :NodePO </text>
<polygon fill="none" stroke="black" points="8,-86 8,-106 79,-106 79,-86 8,-86"/>
<text text-anchor="start" x="40" y="-94" font-family="Arial" font-size="10.00"> &#160;</text>
</g>
<!-- e5&#45;&#45;n6 -->
<g id="edge10" class="edge"><title>e5&#45;&#45;n6</title>
<path fill="none" stroke="black" d="M43,-164.14C43,-152.759 43,-138.893 43,-127.557"/>
<text text-anchor="middle" x="47.2262" y="-134.12" font-family="Arial" font-size="10.00">tgt</text>
</g>
<!-- e7 -->
<g id="node7" class="node"><title>e7</title>
<polygon fill="deepskyblue" stroke="deepskyblue" points="43.5,-4.5 43.5,-41.5 114.5,-41.5 114.5,-4.5 43.5,-4.5"/>
<polygon fill="none" stroke="black" points="44,-24 44,-41 115,-41 115,-24 44,-24"/>
<text text-anchor="start" x="47.5" y="-30.5" font-family="Arial" font-size="10.00"> </text>
<text text-anchor="start" x="51.5" y="-30.5" font-family="Arial" font-size="10.00"> e7 :EdgePO </text>
<polygon fill="none" stroke="black" points="44,-4 44,-24 115,-24 115,-4 44,-4"/>
<text text-anchor="start" x="76" y="-12" font-family="Arial" font-size="10.00"> &#160;</text>
</g>
<!-- n6&#45;&#45;e7 -->
<g id="edge12" class="edge"><title>n6&#45;&#45;e7</title>
<path fill="none" stroke="black" d="M52.8372,-82.1396C57.9584,-70.759 64.1982,-56.8929 69.2994,-45.5569"/>
<text text-anchor="middle" x="69.4342" y="-53.056" font-family="Arial" font-size="10.00">outEdges</text>
</g>
<!-- e7&#45;&#45;n2 -->
<g id="edge14" class="edge"><title>e7&#45;&#45;n2</title>
<path fill="none" stroke="black" d="M86.9896,-45.6704C97.5955,-76.4286 115,-134.716 115,-186 115,-270 115,-270 115,-270 115,-321.091 99.0458,-379.454 89.3238,-410.276"/>
<text text-anchor="middle" x="87.9433" y="-397.872" font-family="Arial" font-size="10.00">tgt</text>
</g>
<!-- matchIsomorphic -->
<g id="node8" class="node"><title>matchIsomorphic</title>
<text text-anchor="middle" x="191" y="-512.5" font-family="Arial" font-size="10.00">matchIsomorphic</text>
</g>
<!-- allMatches -->
<g id="node9" class="node"><title>allMatches</title>
<text text-anchor="middle" x="287" y="-512.5" font-family="Arial" font-size="10.00">allMatches</text>
</g>
</g>
</svg>
