<?xml version="1.0" encoding="UTF-8" standalone="no"?>
<!DOCTYPE svg PUBLIC "-//W3C//DTD SVG 1.1//EN"
 "http://www.w3.org/Graphics/SVG/1.1/DTD/svg11.dtd">
<!-- Generated by graphviz version 2.28.0 (20110507.0327)
 -->
<!-- Title: TrafoOpDiagram Pages: 1 -->
<svg width="261pt" height="428pt"
 viewBox="0.00 0.00 261.00 428.00" xmlns="http://www.w3.org/2000/svg" xmlns:xlink="http://www.w3.org/1999/xlink">
<g id="graph1" class="graph" transform="scale(1 1) rotate(0) translate(4 424)">
<title>TrafoOpDiagram</title>
<polygon fill="white" stroke="white" points="-4,5 -4,-424 258,-424 258,5 -4,5"/>
<!-- this -->
<g id="node1" class="node"><title>this</title>
<polygon fill="none" stroke="black" points="70,-393 70,-410 93,-410 93,-393 70,-393"/>
<text text-anchor="start" x="73.5" y="-399.5" font-family="Times New Roman,serif" font-size="10.00">this</text>
</g>
<!-- items -->
<g id="node2" class="node"><title>items</title>
<polygon fill="none" stroke="black" points="26.5,-304.5 26.5,-343.5 61.5,-343.5 61.5,-304.5 26.5,-304.5"/>
<polygon fill="none" stroke="black" points="28,-325 28,-342 61,-342 61,-325 28,-325"/>
<text text-anchor="start" x="33.5" y="-331.5" font-family="Times New Roman,serif" font-size="10.00">items</text>
<polygon fill="none" stroke="black" points="28,-305 28,-325 61,-325 61,-305 28,-305"/>
<text text-anchor="start" x="33" y="-313" font-family="Times New Roman,serif" font-size="10.00">value</text>
</g>
<!-- this&#45;&gt;items -->
<g id="edge2" class="edge"><title>this&#45;&gt;items</title>
<path fill="none" stroke="black" d="M72.6041,-383.754C67.4017,-373.068 60.6615,-359.224 55.0308,-347.658"/>
<text text-anchor="middle" x="62.7977" y="-351.457" font-family="Times New Roman,serif" font-size="10.00">get</text>
</g>
<!-- persons -->
<g id="node3" class="node"><title>persons</title>
<polygon fill="none" stroke="black" points="97,-314.5 97,-333.5 139,-333.5 139,-314.5 97,-314.5"/>
<polygon fill="none" stroke="black" points="98,-315 98,-332 138,-332 138,-315 98,-315"/>
<text text-anchor="start" x="101.5" y="-321.5" font-family="Times New Roman,serif" font-size="10.00">persons</text>
</g>
<!-- this&#45;&gt;persons -->
<g id="edge4" class="edge"><title>this&#45;&gt;persons</title>
<path fill="none" stroke="black" d="M89.3959,-383.754C95.4511,-371.317 103.59,-354.599 109.637,-342.177"/>
<text text-anchor="middle" x="109.47" y="-349.676" font-family="Times New Roman,serif" font-size="10.00">get</text>
</g>
<!-- totalsum -->
<g id="node6" class="node"><title>totalsum</title>
<text text-anchor="start" x="18.5" y="-243.5" font-family="Times New Roman,serif" font-size="10.00">total = sum()</text>
</g>
<!-- items&#45;&gt;totalsum -->
<g id="edge12" class="edge"><title>items&#45;&gt;totalsum</title>
<path fill="none" stroke="black" stroke-dasharray="1,5" d="M44,-300.197C44,-288.655 44,-274.872 44,-264.228"/>
</g>
<!-- person -->
<g id="node4" class="node"><title>person</title>
<polygon fill="none" stroke="black" points="146,-237 146,-254 181,-254 181,-237 146,-237"/>
<text text-anchor="start" x="149.5" y="-243.5" font-family="Times New Roman,serif" font-size="10.00">person</text>
</g>
<!-- persons&#45;&gt;person -->
<g id="edge6" class="edge"><title>persons&#45;&gt;person</title>
<path fill="none" stroke="black" d="M128.211,-305.754C135.576,-293.317 145.474,-276.599 152.829,-264.177"/>
<text text-anchor="middle" x="151.848" y="-271.629" font-family="Times New Roman,serif" font-size="10.00">foreach</text>
</g>
<!-- sharetotalsize -->
<g id="node7" class="node"><title>sharetotalsize</title>
<text text-anchor="start" x="10.5" y="-165.5" font-family="Times New Roman,serif" font-size="10.00">share = total / size()</text>
</g>
<!-- persons&#45;&gt;sharetotalsize -->
<g id="edge16" class="edge"><title>persons&#45;&gt;sharetotalsize</title>
<path fill="none" stroke="black" stroke-dasharray="1,5" d="M114.371,-305.984C109.873,-286.542 101.271,-254.053 89,-228 81.9369,-213.004 71.4776,-197.417 63.1682,-186.032"/>
</g>
<!-- personItems -->
<g id="node5" class="node"><title>personItems</title>
<polygon fill="none" stroke="black" points="126.5,-148.5 126.5,-187.5 185.5,-187.5 185.5,-148.5 126.5,-148.5"/>
<polygon fill="none" stroke="black" points="128,-169 128,-186 185,-186 185,-169 128,-169"/>
<text text-anchor="start" x="131.5" y="-175.5" font-family="Times New Roman,serif" font-size="10.00">personItems</text>
<polygon fill="none" stroke="black" points="128,-149 128,-169 185,-169 185,-149 128,-149"/>
<text text-anchor="start" x="133" y="-157" font-family="Times New Roman,serif" font-size="10.00">value</text>
</g>
<!-- person&#45;&gt;personItems -->
<g id="edge8" class="edge"><title>person&#45;&gt;personItems</title>
<path fill="none" stroke="black" d="M161.412,-227.754C160.427,-217.068 159.152,-203.224 158.087,-191.658"/>
<text text-anchor="middle" x="163.127" y="-197.795" font-family="Times New Roman,serif" font-size="10.00">get</text>
</g>
<!-- setBalancemyCostsshare -->
<g id="node9" class="node"><title>setBalancemyCostsshare</title>
<text text-anchor="start" x="127.5" y="-15.5" font-family="Times New Roman,serif" font-size="10.00">setBalance(myCosts &#45; share)</text>
</g>
<!-- person&#45;&gt;setBalancemyCostsshare -->
<g id="edge22" class="edge"><title>person&#45;&gt;setBalancemyCostsshare</title>
<path fill="none" stroke="black" stroke-dasharray="1,5" d="M179.89,-227.993C188.293,-218.315 197.582,-205.459 202,-192 218.635,-141.327 210.244,-124.692 202,-72 200.088,-59.7798 195.838,-46.5298 192.066,-36.3349"/>
</g>
<!-- myCostssum -->
<g id="node8" class="node"><title>myCostssum</title>
<text text-anchor="start" x="115.5" y="-87.5" font-family="Times New Roman,serif" font-size="10.00">myCosts = sum()</text>
</g>
<!-- personItems&#45;&gt;myCostssum -->
<g id="edge20" class="edge"><title>personItems&#45;&gt;myCostssum</title>
<path fill="none" stroke="black" stroke-dasharray="1,5" d="M153.9,-144.197C152.837,-132.655 151.567,-118.872 150.587,-108.228"/>
</g>
<!-- totalsum&#45;&gt;sharetotalsize -->
<g id="edge10" class="edge"><title>totalsum&#45;&gt;sharetotalsize</title>
<path fill="none" stroke="black" stroke-dasharray="1,5" d="M45.3615,-227.754C46.0979,-218.426 47.0244,-206.691 47.8554,-196.165"/>
<polygon fill="black" stroke="black" points="48.6439,-186.177 52.3428,-196.501 48.2503,-191.162 47.8568,-196.146 47.8568,-196.146 47.8568,-196.146 48.2503,-191.162 43.3707,-195.792 48.6439,-186.177 48.6439,-186.177"/>
</g>
<!-- sharetotalsize&#45;&gt;myCostssum -->
<g id="edge14" class="edge"><title>sharetotalsize&#45;&gt;myCostssum</title>
<path fill="none" stroke="black" stroke-dasharray="1,5" d="M72.4646,-149.754C86.135,-139.26 103.774,-125.719 118.672,-114.282"/>
<polygon fill="black" stroke="black" points="126.624,-108.177 121.432,-117.836 122.658,-111.222 118.692,-114.267 118.692,-114.267 118.692,-114.267 122.658,-111.222 115.952,-110.697 126.624,-108.177 126.624,-108.177"/>
</g>
<!-- myCostssum&#45;&gt;setBalancemyCostsshare -->
<g id="edge18" class="edge"><title>myCostssum&#45;&gt;setBalancemyCostsshare</title>
<path fill="none" stroke="black" stroke-dasharray="1,5" d="M157.899,-71.6966C161.997,-63.7284 166.949,-54.0995 171.493,-45.2641"/>
<polygon fill="black" stroke="black" points="176.203,-36.1043 175.632,-47.0553 173.917,-40.5508 171.63,-44.9972 171.63,-44.9972 171.63,-44.9972 173.917,-40.5508 167.628,-42.9391 176.203,-36.1043 176.203,-36.1043"/>
</g>
</g>
</svg>
